<?xml version="1.0" encoding="utf-8" standalone="no"?>
<!DOCTYPE svg PUBLIC "-//W3C//DTD SVG 1.1//EN"
  "http://www.w3.org/Graphics/SVG/1.1/DTD/svg11.dtd">
<!-- Created with matplotlib (https://matplotlib.org/) -->
<svg height="300pt" version="1.1" viewBox="0 0 500 300" width="500pt" xmlns="http://www.w3.org/2000/svg" xmlns:xlink="http://www.w3.org/1999/xlink">
 <metadata>
  <rdf:RDF xmlns:cc="http://creativecommons.org/ns#" xmlns:dc="http://purl.org/dc/elements/1.1/" xmlns:rdf="http://www.w3.org/1999/02/22-rdf-syntax-ns#">
   <cc:Work>
    <dc:type rdf:resource="http://purl.org/dc/dcmitype/StillImage"/>
    <dc:date>2021-06-26T23:23:38.623032</dc:date>
    <dc:format>image/svg+xml</dc:format>
    <dc:creator>
     <cc:Agent>
      <dc:title>Matplotlib v3.3.4, https://matplotlib.org/</dc:title>
     </cc:Agent>
    </dc:creator>
   </cc:Work>
  </rdf:RDF>
 </metadata>
 <defs>
  <style type="text/css">*{stroke-linecap:butt;stroke-linejoin:round;}</style>
 </defs>
 <g id="figure_1">
  <g id="patch_1">
   <path d="M 0 300 
L 500 300 
L 500 0 
L 0 0 
z
" style="fill:#ffffff;"/>
  </g>
  <g id="axes_1">
   <g id="patch_2">
    <path d="M 62.5 262.5 
L 450 262.5 
L 450 27 
L 62.5 27 
z
" style="fill:#ffffff;"/>
   </g>
   <g id="matplotlib.axis_1">
    <g id="xtick_1">
     <g id="line2d_1">
      <defs>
       <path d="M 0 0 
L 0 3.5 
" id="m08dc99395e" style="stroke:#555555;stroke-width:0.8;"/>
      </defs>
      <g>
       <use style="fill:#555555;stroke:#555555;stroke-width:0.8;" x="62.5" xlink:href="#m08dc99395e" y="262.5"/>
      </g>
     </g>
    </g>
    <g id="xtick_2">
     <g id="line2d_2">
      <g>
       <use style="fill:#555555;stroke:#555555;stroke-width:0.8;" x="137.556306" xlink:href="#m08dc99395e" y="262.5"/>
      </g>
     </g>
     <g id="text_1">
      <!-- Jul -->
      <g style="fill:#555555;" transform="translate(131.07115 276.640625)scale(0.1 -0.1)">
       <defs>
        <path d="M 44.09375 17.796875 
L 44.09375 71.40625 
L 34.59375 71.40625 
L 34.59375 19.203125 
Q 34.59375 13.296875 32.140625 9.796875 
Q 29.703125 6.296875 23.203125 6.296875 
Q 19.703125 6.296875 17.453125 7.34375 
Q 15.203125 8.40625 13.953125 10.296875 
Q 12.703125 12.203125 12.203125 14.796875 
Q 11.703125 17.40625 11.703125 20.5 
L 11.703125 23.5 
L 2.203125 23.5 
L 2.203125 19.09375 
Q 2.203125 8.90625 7.59375 3.65625 
Q 13 -1.59375 23 -1.59375 
Q 29 -1.59375 33.046875 0.046875 
Q 37.09375 1.703125 39.546875 4.453125 
Q 42 7.203125 43.046875 10.703125 
Q 44.09375 14.203125 44.09375 17.796875 
z
" id="HelveticaNeue-74"/>
        <path d="M 49.203125 0 
L 49.203125 51.703125 
L 40.703125 51.703125 
L 40.703125 22.5 
Q 40.703125 19 39.75 16.046875 
Q 38.796875 13.09375 36.890625 10.890625 
Q 35 8.703125 32.140625 7.5 
Q 29.296875 6.296875 25.40625 6.296875 
Q 20.5 6.296875 17.703125 9.09375 
Q 14.90625 11.90625 14.90625 16.703125 
L 14.90625 51.703125 
L 6.40625 51.703125 
L 6.40625 17.703125 
Q 6.40625 13.5 7.25 10.046875 
Q 8.09375 6.59375 10.1875 4.09375 
Q 12.296875 1.59375 15.6875 0.25 
Q 19.09375 -1.09375 24.203125 -1.09375 
Q 29.90625 -1.09375 34.09375 1.15625 
Q 38.296875 3.40625 41 8.203125 
L 41.203125 8.203125 
L 41.203125 0 
z
" id="HelveticaNeue-117"/>
        <path d="M 6.90625 71.40625 
L 6.90625 0 
L 15.40625 0 
L 15.40625 71.40625 
z
" id="HelveticaNeue-108"/>
       </defs>
       <use xlink:href="#HelveticaNeue-74"/>
       <use x="51.899994" xlink:href="#HelveticaNeue-117"/>
       <use x="107.499985" xlink:href="#HelveticaNeue-108"/>
      </g>
     </g>
    </g>
    <g id="xtick_3">
     <g id="line2d_3">
      <g>
       <use style="fill:#555555;stroke:#555555;stroke-width:0.8;" x="217.849099" xlink:href="#m08dc99395e" y="262.5"/>
      </g>
     </g>
     <g id="text_2">
      <!-- Oct -->
      <g style="fill:#555555;" transform="translate(209.788943 276.640625)scale(0.1 -0.1)">
       <defs>
        <path d="M 13.296875 35.703125 
Q 13.296875 41.09375 14.6875 46.34375 
Q 16.09375 51.59375 19.09375 55.796875 
Q 22.09375 60 26.796875 62.546875 
Q 31.5 65.09375 38 65.09375 
Q 44.5 65.09375 49.203125 62.546875 
Q 53.90625 60 56.90625 55.796875 
Q 59.90625 51.59375 61.296875 46.34375 
Q 62.703125 41.09375 62.703125 35.703125 
Q 62.703125 30.296875 61.296875 25.046875 
Q 59.90625 19.796875 56.90625 15.59375 
Q 53.90625 11.40625 49.203125 8.84375 
Q 44.5 6.296875 38 6.296875 
Q 31.5 6.296875 26.796875 8.84375 
Q 22.09375 11.40625 19.09375 15.59375 
Q 16.09375 19.796875 14.6875 25.046875 
Q 13.296875 30.296875 13.296875 35.703125 
z
M 3.796875 35.703125 
Q 3.796875 28.40625 5.9375 21.65625 
Q 8.09375 14.90625 12.390625 9.703125 
Q 16.703125 4.5 23.09375 1.453125 
Q 29.5 -1.59375 38 -1.59375 
Q 46.5 -1.59375 52.890625 1.453125 
Q 59.296875 4.5 63.59375 9.703125 
Q 67.90625 14.90625 70.046875 21.65625 
Q 72.203125 28.40625 72.203125 35.703125 
Q 72.203125 43 70.046875 49.75 
Q 67.90625 56.5 63.59375 61.703125 
Q 59.296875 66.90625 52.890625 70 
Q 46.5 73.09375 38 73.09375 
Q 29.5 73.09375 23.09375 70 
Q 16.703125 66.90625 12.390625 61.703125 
Q 8.09375 56.5 5.9375 49.75 
Q 3.796875 43 3.796875 35.703125 
z
" id="HelveticaNeue-79"/>
        <path d="M 41.5 35.09375 
L 50.296875 35.09375 
Q 49.796875 39.703125 47.890625 43.046875 
Q 46 46.40625 43.046875 48.59375 
Q 40.09375 50.796875 36.25 51.84375 
Q 32.40625 52.90625 28 52.90625 
Q 21.90625 52.90625 17.296875 50.75 
Q 12.703125 48.59375 9.640625 44.84375 
Q 6.59375 41.09375 5.09375 36.046875 
Q 3.59375 31 3.59375 25.203125 
Q 3.59375 19.40625 5.140625 14.546875 
Q 6.703125 9.703125 9.75 6.203125 
Q 12.796875 2.703125 17.34375 0.796875 
Q 21.90625 -1.09375 27.796875 -1.09375 
Q 37.703125 -1.09375 43.453125 4.09375 
Q 49.203125 9.296875 50.59375 18.90625 
L 41.90625 18.90625 
Q 41.09375 12.90625 37.546875 9.59375 
Q 34 6.296875 27.703125 6.296875 
Q 23.703125 6.296875 20.796875 7.890625 
Q 17.90625 9.5 16.09375 12.140625 
Q 14.296875 14.796875 13.4375 18.1875 
Q 12.59375 21.59375 12.59375 25.203125 
Q 12.59375 29.09375 13.390625 32.75 
Q 14.203125 36.40625 16.046875 39.203125 
Q 17.90625 42 21 43.703125 
Q 24.09375 45.40625 28.703125 45.40625 
Q 34.09375 45.40625 37.296875 42.703125 
Q 40.5 40 41.5 35.09375 
z
" id="HelveticaNeue-99"/>
        <path d="M 18.203125 51.703125 
L 18.203125 67.203125 
L 9.703125 67.203125 
L 9.703125 51.703125 
L 0.90625 51.703125 
L 0.90625 44.203125 
L 9.703125 44.203125 
L 9.703125 11.296875 
Q 9.703125 7.703125 10.390625 5.5 
Q 11.09375 3.296875 12.546875 2.09375 
Q 14 0.90625 16.34375 0.453125 
Q 18.703125 0 22 0 
L 28.5 0 
L 28.5 7.5 
L 24.59375 7.5 
Q 22.59375 7.5 21.34375 7.640625 
Q 20.09375 7.796875 19.390625 8.296875 
Q 18.703125 8.796875 18.453125 9.6875 
Q 18.203125 10.59375 18.203125 12.09375 
L 18.203125 44.203125 
L 28.5 44.203125 
L 28.5 51.703125 
z
" id="HelveticaNeue-116"/>
       </defs>
       <use xlink:href="#HelveticaNeue-79"/>
       <use x="75.999985" xlink:href="#HelveticaNeue-99"/>
       <use x="129.699982" xlink:href="#HelveticaNeue-116"/>
      </g>
     </g>
    </g>
    <g id="xtick_4">
     <g id="line2d_4">
      <g>
       <use style="fill:#555555;stroke:#555555;stroke-width:0.8;" x="298.141892" xlink:href="#m08dc99395e" y="262.5"/>
      </g>
     </g>
     <g id="text_3">
      <!-- Jan -->
      <g style="fill:#555555;" transform="translate(290.081736 276.640625)scale(0.1 -0.1)">
       <defs>
        <path d="M 52.203125 0.203125 
Q 50 -1.09375 46.09375 -1.09375 
Q 42.796875 -1.09375 40.84375 0.75 
Q 38.90625 2.59375 38.90625 6.796875 
Q 35.40625 2.59375 30.75 0.75 
Q 26.09375 -1.09375 20.703125 -1.09375 
Q 17.203125 -1.09375 14.046875 -0.296875 
Q 10.90625 0.5 8.59375 2.203125 
Q 6.296875 3.90625 4.9375 6.65625 
Q 3.59375 9.40625 3.59375 13.296875 
Q 3.59375 17.703125 5.09375 20.5 
Q 6.59375 23.296875 9.046875 25.046875 
Q 11.5 26.796875 14.640625 27.6875 
Q 17.796875 28.59375 21.09375 29.203125 
Q 24.59375 29.90625 27.75 30.25 
Q 30.90625 30.59375 33.296875 31.25 
Q 35.703125 31.90625 37.09375 33.15625 
Q 38.5 34.40625 38.5 36.796875 
Q 38.5 39.59375 37.453125 41.296875 
Q 36.40625 43 34.75 43.890625 
Q 33.09375 44.796875 31.046875 45.09375 
Q 29 45.40625 27 45.40625 
Q 21.59375 45.40625 18 43.34375 
Q 14.40625 41.296875 14.09375 35.59375 
L 5.59375 35.59375 
Q 5.796875 40.40625 7.59375 43.703125 
Q 9.40625 47 12.40625 49.046875 
Q 15.40625 51.09375 19.25 52 
Q 23.09375 52.90625 27.5 52.90625 
Q 31 52.90625 34.453125 52.40625 
Q 37.90625 51.90625 40.703125 50.34375 
Q 43.5 48.796875 45.203125 46 
Q 46.90625 43.203125 46.90625 38.703125 
L 46.90625 12.09375 
Q 46.90625 9.09375 47.25 7.6875 
Q 47.59375 6.296875 49.59375 6.296875 
Q 50.703125 6.296875 52.203125 6.796875 
z
M 38.40625 26.703125 
Q 36.796875 25.5 34.1875 24.953125 
Q 31.59375 24.40625 28.75 24.046875 
Q 25.90625 23.703125 23 23.25 
Q 20.09375 22.796875 17.796875 21.796875 
Q 15.5 20.796875 14.046875 18.9375 
Q 12.59375 17.09375 12.59375 13.90625 
Q 12.59375 11.796875 13.4375 10.34375 
Q 14.296875 8.90625 15.640625 8 
Q 17 7.09375 18.796875 6.6875 
Q 20.59375 6.296875 22.59375 6.296875 
Q 26.796875 6.296875 29.796875 7.4375 
Q 32.796875 8.59375 34.6875 10.34375 
Q 36.59375 12.09375 37.5 14.140625 
Q 38.40625 16.203125 38.40625 18 
z
" id="HelveticaNeue-97"/>
        <path d="M 6.40625 51.703125 
L 6.40625 0 
L 14.90625 0 
L 14.90625 29.203125 
Q 14.90625 32.703125 15.84375 35.640625 
Q 16.796875 38.59375 18.6875 40.796875 
Q 20.59375 43 23.4375 44.203125 
Q 26.296875 45.40625 30.203125 45.40625 
Q 35.09375 45.40625 37.890625 42.59375 
Q 40.703125 39.796875 40.703125 35 
L 40.703125 0 
L 49.203125 0 
L 49.203125 34 
Q 49.203125 38.203125 48.34375 41.640625 
Q 47.5 45.09375 45.390625 47.59375 
Q 43.296875 50.09375 39.890625 51.5 
Q 36.5 52.90625 31.40625 52.90625 
Q 19.90625 52.90625 14.59375 43.5 
L 14.40625 43.5 
L 14.40625 51.703125 
z
" id="HelveticaNeue-110"/>
       </defs>
       <use xlink:href="#HelveticaNeue-74"/>
       <use x="51.899994" xlink:href="#HelveticaNeue-97"/>
       <use x="105.599991" xlink:href="#HelveticaNeue-110"/>
      </g>
      <!-- 2021 -->
      <g style="fill:#555555;" transform="translate(287.023142 287.179688)scale(0.1 -0.1)">
       <defs>
        <path d="M 4.40625 45.796875 
L 12.90625 45.796875 
Q 12.796875 49 13.546875 52.140625 
Q 14.296875 55.296875 16 57.796875 
Q 17.703125 60.296875 20.34375 61.84375 
Q 23 63.40625 26.703125 63.40625 
Q 29.5 63.40625 32 62.5 
Q 34.5 61.59375 36.34375 59.890625 
Q 38.203125 58.203125 39.296875 55.84375 
Q 40.40625 53.5 40.40625 50.59375 
Q 40.40625 46.90625 39.25 44.09375 
Q 38.09375 41.296875 35.84375 38.890625 
Q 33.59375 36.5 30.1875 34.140625 
Q 26.796875 31.796875 22.296875 29 
Q 18.59375 26.796875 15.1875 24.296875 
Q 11.796875 21.796875 9.09375 18.5 
Q 6.40625 15.203125 4.65625 10.75 
Q 2.90625 6.296875 2.40625 0 
L 48.703125 0 
L 48.703125 7.5 
L 12.296875 7.5 
Q 12.90625 10.796875 14.84375 13.34375 
Q 16.796875 15.90625 19.546875 18.09375 
Q 22.296875 20.296875 25.59375 22.25 
Q 28.90625 24.203125 32.203125 26.203125 
Q 35.5 28.296875 38.59375 30.59375 
Q 41.703125 32.90625 44.09375 35.75 
Q 46.5 38.59375 47.953125 42.1875 
Q 49.40625 45.796875 49.40625 50.5 
Q 49.40625 55.5 47.65625 59.296875 
Q 45.90625 63.09375 42.90625 65.640625 
Q 39.90625 68.203125 35.84375 69.546875 
Q 31.796875 70.90625 27.203125 70.90625 
Q 21.59375 70.90625 17.1875 69 
Q 12.796875 67.09375 9.84375 63.75 
Q 6.90625 60.40625 5.5 55.796875 
Q 4.09375 51.203125 4.40625 45.796875 
z
" id="HelveticaNeue-50"/>
        <path d="M 13.203125 34.90625 
Q 13.203125 37.5 13.25 40.640625 
Q 13.296875 43.796875 13.75 46.9375 
Q 14.203125 50.09375 15.046875 53.09375 
Q 15.90625 56.09375 17.546875 58.34375 
Q 19.203125 60.59375 21.703125 62 
Q 24.203125 63.40625 27.796875 63.40625 
Q 31.40625 63.40625 33.90625 62 
Q 36.40625 60.59375 38.046875 58.34375 
Q 39.703125 56.09375 40.546875 53.09375 
Q 41.40625 50.09375 41.84375 46.9375 
Q 42.296875 43.796875 42.34375 40.640625 
Q 42.40625 37.5 42.40625 34.90625 
Q 42.40625 30.90625 42.15625 25.953125 
Q 41.90625 21 40.546875 16.640625 
Q 39.203125 12.296875 36.203125 9.296875 
Q 33.203125 6.296875 27.796875 6.296875 
Q 22.40625 6.296875 19.40625 9.296875 
Q 16.40625 12.296875 15.046875 16.640625 
Q 13.703125 21 13.453125 25.953125 
Q 13.203125 30.90625 13.203125 34.90625 
z
M 4.203125 34.796875 
Q 4.203125 30.90625 4.390625 26.703125 
Q 4.59375 22.5 5.390625 18.5 
Q 6.203125 14.5 7.703125 10.953125 
Q 9.203125 7.40625 11.796875 4.703125 
Q 14.40625 2 18.34375 0.453125 
Q 22.296875 -1.09375 27.796875 -1.09375 
Q 33.40625 -1.09375 37.296875 0.453125 
Q 41.203125 2 43.796875 4.703125 
Q 46.40625 7.40625 47.90625 10.953125 
Q 49.40625 14.5 50.203125 18.5 
Q 51 22.5 51.203125 26.703125 
Q 51.40625 30.90625 51.40625 34.796875 
Q 51.40625 38.703125 51.203125 42.890625 
Q 51 47.09375 50.203125 51.09375 
Q 49.40625 55.09375 47.90625 58.6875 
Q 46.40625 62.296875 43.796875 65 
Q 41.203125 67.703125 37.25 69.296875 
Q 33.296875 70.90625 27.796875 70.90625 
Q 22.296875 70.90625 18.34375 69.296875 
Q 14.40625 67.703125 11.796875 65 
Q 9.203125 62.296875 7.703125 58.6875 
Q 6.203125 55.09375 5.390625 51.09375 
Q 4.59375 47.09375 4.390625 42.890625 
Q 4.203125 38.703125 4.203125 34.796875 
z
" id="HelveticaNeue-48"/>
        <path d="M 35.59375 0 
L 35.59375 70.90625 
L 29.09375 70.90625 
Q 28.40625 66.90625 26.5 64.296875 
Q 24.59375 61.703125 21.84375 60.203125 
Q 19.09375 58.703125 15.6875 58.140625 
Q 12.296875 57.59375 8.703125 57.59375 
L 8.703125 50.796875 
L 27.09375 50.796875 
L 27.09375 0 
z
" id="HelveticaNeue-49"/>
       </defs>
       <use xlink:href="#HelveticaNeue-50"/>
       <use x="55.599991" xlink:href="#HelveticaNeue-48"/>
       <use x="111.199982" xlink:href="#HelveticaNeue-50"/>
       <use x="166.799973" xlink:href="#HelveticaNeue-49"/>
      </g>
     </g>
    </g>
    <g id="xtick_5">
     <g id="line2d_5">
      <g>
       <use style="fill:#555555;stroke:#555555;stroke-width:0.8;" x="376.689189" xlink:href="#m08dc99395e" y="262.5"/>
      </g>
     </g>
     <g id="text_4">
      <!-- Apr -->
      <g style="fill:#555555;" transform="translate(368.819658 276.640625)scale(0.1 -0.1)">
       <defs>
        <path d="M 20.09375 29.5 
L 32.203125 62.796875 
L 32.40625 62.796875 
L 44.296875 29.5 
z
M 27.203125 71.40625 
L -0.59375 0 
L 9.09375 0 
L 17.09375 21.5 
L 47.296875 21.5 
L 55.09375 0 
L 65.59375 0 
L 37.703125 71.40625 
z
" id="HelveticaNeue-65"/>
        <path d="M 6.703125 51.703125 
L 6.703125 -19.703125 
L 15.203125 -19.703125 
L 15.203125 6.90625 
L 15.40625 6.90625 
Q 16.796875 4.59375 18.84375 3.046875 
Q 20.90625 1.5 23.203125 0.59375 
Q 25.5 -0.296875 27.84375 -0.6875 
Q 30.203125 -1.09375 32.09375 -1.09375 
Q 38 -1.09375 42.453125 1 
Q 46.90625 3.09375 49.84375 6.75 
Q 52.796875 10.40625 54.25 15.296875 
Q 55.703125 20.203125 55.703125 25.703125 
Q 55.703125 31.203125 54.203125 36.09375 
Q 52.703125 41 49.75 44.75 
Q 46.796875 48.5 42.34375 50.703125 
Q 37.90625 52.90625 31.90625 52.90625 
Q 26.5 52.90625 22 50.953125 
Q 17.5 49 15.40625 44.703125 
L 15.203125 44.703125 
L 15.203125 51.703125 
z
M 46.703125 26.296875 
Q 46.703125 22.5 45.890625 18.890625 
Q 45.09375 15.296875 43.296875 12.5 
Q 41.5 9.703125 38.546875 8 
Q 35.59375 6.296875 31.203125 6.296875 
Q 26.796875 6.296875 23.6875 7.9375 
Q 20.59375 9.59375 18.640625 12.296875 
Q 16.703125 15 15.796875 18.546875 
Q 14.90625 22.09375 14.90625 25.90625 
Q 14.90625 29.5 15.75 33 
Q 16.59375 36.5 18.5 39.25 
Q 20.40625 42 23.40625 43.703125 
Q 26.40625 45.40625 30.703125 45.40625 
Q 34.796875 45.40625 37.84375 43.796875 
Q 40.90625 42.203125 42.84375 39.5 
Q 44.796875 36.796875 45.75 33.34375 
Q 46.703125 29.90625 46.703125 26.296875 
z
" id="HelveticaNeue-112"/>
        <path d="M 6.09375 51.703125 
L 6.09375 0 
L 14.59375 0 
L 14.59375 23 
Q 14.59375 28 15.59375 31.84375 
Q 16.59375 35.703125 18.796875 38.390625 
Q 21 41.09375 24.59375 42.5 
Q 28.203125 43.90625 33.296875 43.90625 
L 33.296875 52.90625 
Q 26.40625 53.09375 21.90625 50.09375 
Q 17.40625 47.09375 14.296875 40.796875 
L 14.09375 40.796875 
L 14.09375 51.703125 
z
" id="HelveticaNeue-114"/>
       </defs>
       <use xlink:href="#HelveticaNeue-65"/>
       <use x="64.799988" xlink:href="#HelveticaNeue-112"/>
       <use x="124.099976" xlink:href="#HelveticaNeue-114"/>
      </g>
     </g>
    </g>
    <g id="xtick_6">
     <g id="line2d_6">
      <g>
       <use style="fill:#555555;stroke:#555555;stroke-width:0.8;" x="450" xlink:href="#m08dc99395e" y="262.5"/>
      </g>
     </g>
    </g>
    <g id="xtick_7">
     <g id="line2d_7">
      <defs>
       <path d="M 0 0 
L 0 2 
" id="ma08b06d36a" style="stroke:#555555;stroke-width:0.6;"/>
      </defs>
      <g>
       <use style="fill:#555555;stroke:#555555;stroke-width:0.6;" x="84.318694" xlink:href="#ma08b06d36a" y="262.5"/>
      </g>
     </g>
    </g>
    <g id="xtick_8">
     <g id="line2d_8">
      <g>
       <use style="fill:#555555;stroke:#555555;stroke-width:0.6;" x="111.373874" xlink:href="#ma08b06d36a" y="262.5"/>
      </g>
     </g>
    </g>
    <g id="xtick_9">
     <g id="line2d_9">
      <g>
       <use style="fill:#555555;stroke:#555555;stroke-width:0.6;" x="164.611486" xlink:href="#ma08b06d36a" y="262.5"/>
      </g>
     </g>
    </g>
    <g id="xtick_10">
     <g id="line2d_10">
      <g>
       <use style="fill:#555555;stroke:#555555;stroke-width:0.6;" x="191.666667" xlink:href="#ma08b06d36a" y="262.5"/>
      </g>
     </g>
    </g>
    <g id="xtick_11">
     <g id="line2d_11">
      <g>
       <use style="fill:#555555;stroke:#555555;stroke-width:0.6;" x="244.904279" xlink:href="#ma08b06d36a" y="262.5"/>
      </g>
     </g>
    </g>
    <g id="xtick_12">
     <g id="line2d_12">
      <g>
       <use style="fill:#555555;stroke:#555555;stroke-width:0.6;" x="271.086712" xlink:href="#ma08b06d36a" y="262.5"/>
      </g>
     </g>
    </g>
    <g id="xtick_13">
     <g id="line2d_13">
      <g>
       <use style="fill:#555555;stroke:#555555;stroke-width:0.6;" x="325.197072" xlink:href="#ma08b06d36a" y="262.5"/>
      </g>
     </g>
    </g>
    <g id="xtick_14">
     <g id="line2d_14">
      <g>
       <use style="fill:#555555;stroke:#555555;stroke-width:0.6;" x="349.634009" xlink:href="#ma08b06d36a" y="262.5"/>
      </g>
     </g>
    </g>
    <g id="xtick_15">
     <g id="line2d_15">
      <g>
       <use style="fill:#555555;stroke:#555555;stroke-width:0.6;" x="402.871622" xlink:href="#ma08b06d36a" y="262.5"/>
      </g>
     </g>
    </g>
    <g id="xtick_16">
     <g id="line2d_16">
      <g>
       <use style="fill:#555555;stroke:#555555;stroke-width:0.6;" x="429.926802" xlink:href="#ma08b06d36a" y="262.5"/>
      </g>
     </g>
    </g>
    <g id="text_5">
     <!-- fecha -->
     <g style="fill:#555555;" transform="translate(243.935156 300.290625)scale(0.1 -0.1)">
      <defs>
       <path d="M 9.90625 44.203125 
L 9.90625 0 
L 18.40625 0 
L 18.40625 44.203125 
L 28.40625 44.203125 
L 28.40625 51.703125 
L 18.40625 51.703125 
L 18.40625 58.90625 
Q 18.40625 62.296875 20.09375 63.5 
Q 21.796875 64.703125 24.90625 64.703125 
Q 26 64.703125 27.296875 64.546875 
Q 28.59375 64.40625 29.703125 64 
L 29.703125 71.40625 
Q 28.5 71.796875 26.953125 72 
Q 25.40625 72.203125 24.203125 72.203125 
Q 17.203125 72.203125 13.546875 68.953125 
Q 9.90625 65.703125 9.90625 59.40625 
L 9.90625 51.703125 
L 1.203125 51.703125 
L 1.203125 44.203125 
z
" id="HelveticaNeue-102"/>
       <path d="M 42.296875 30.796875 
L 12.59375 30.796875 
Q 12.796875 33.796875 13.890625 36.4375 
Q 15 39.09375 16.890625 41.09375 
Q 18.796875 43.09375 21.4375 44.25 
Q 24.09375 45.40625 27.40625 45.40625 
Q 30.59375 45.40625 33.25 44.25 
Q 35.90625 43.09375 37.84375 41.140625 
Q 39.796875 39.203125 40.9375 36.5 
Q 42.09375 33.796875 42.296875 30.796875 
z
M 50.5 16.40625 
L 42.09375 16.40625 
Q 41 11.296875 37.546875 8.796875 
Q 34.09375 6.296875 28.703125 6.296875 
Q 24.5 6.296875 21.390625 7.6875 
Q 18.296875 9.09375 16.296875 11.4375 
Q 14.296875 13.796875 13.390625 16.84375 
Q 12.5 19.90625 12.59375 23.296875 
L 51.296875 23.296875 
Q 51.5 28 50.453125 33.203125 
Q 49.40625 38.40625 46.65625 42.796875 
Q 43.90625 47.203125 39.34375 50.046875 
Q 34.796875 52.90625 27.90625 52.90625 
Q 22.59375 52.90625 18.140625 50.90625 
Q 13.703125 48.90625 10.453125 45.296875 
Q 7.203125 41.703125 5.390625 36.796875 
Q 3.59375 31.90625 3.59375 26 
Q 3.796875 20.09375 5.34375 15.09375 
Q 6.90625 10.09375 10 6.5 
Q 13.09375 2.90625 17.640625 0.90625 
Q 22.203125 -1.09375 28.40625 -1.09375 
Q 37.203125 -1.09375 43 3.296875 
Q 48.796875 7.703125 50.5 16.40625 
z
" id="HelveticaNeue-101"/>
       <path d="M 6.40625 71.40625 
L 6.40625 0 
L 14.90625 0 
L 14.90625 29.203125 
Q 14.90625 32.703125 15.84375 35.640625 
Q 16.796875 38.59375 18.6875 40.796875 
Q 20.59375 43 23.4375 44.203125 
Q 26.296875 45.40625 30.203125 45.40625 
Q 35.09375 45.40625 37.890625 42.59375 
Q 40.703125 39.796875 40.703125 35 
L 40.703125 0 
L 49.203125 0 
L 49.203125 34 
Q 49.203125 38.203125 48.34375 41.640625 
Q 47.5 45.09375 45.390625 47.59375 
Q 43.296875 50.09375 39.890625 51.5 
Q 36.5 52.90625 31.40625 52.90625 
Q 29.09375 52.90625 26.640625 52.40625 
Q 24.203125 51.90625 21.953125 50.84375 
Q 19.703125 49.796875 17.890625 48.140625 
Q 16.09375 46.5 15.09375 44.09375 
L 14.90625 44.09375 
L 14.90625 71.40625 
z
" id="HelveticaNeue-104"/>
      </defs>
      <use xlink:href="#HelveticaNeue-102"/>
      <use x="29.599991" xlink:href="#HelveticaNeue-101"/>
      <use x="83.299988" xlink:href="#HelveticaNeue-99"/>
      <use x="136.999985" xlink:href="#HelveticaNeue-104"/>
      <use x="192.599976" xlink:href="#HelveticaNeue-97"/>
     </g>
    </g>
   </g>
   <g id="matplotlib.axis_2">
    <g id="ytick_1">
     <g id="line2d_17">
      <defs>
       <path d="M 0 0 
L -3.5 0 
" id="me9d9484976" style="stroke:#555555;stroke-width:0.8;"/>
      </defs>
      <g>
       <use style="fill:#555555;stroke:#555555;stroke-width:0.8;" x="62.5" xlink:href="#me9d9484976" y="251.795455"/>
      </g>
     </g>
     <g id="text_6">
      <!-- 0 -->
      <g style="fill:#555555;" transform="translate(49.940625 255.365767)scale(0.1 -0.1)">
       <use xlink:href="#HelveticaNeue-48"/>
      </g>
     </g>
    </g>
    <g id="ytick_2">
     <g id="line2d_18">
      <g>
       <use style="fill:#555555;stroke:#555555;stroke-width:0.8;" x="62.5" xlink:href="#me9d9484976" y="223.439043"/>
      </g>
     </g>
     <g id="text_7">
      <!-- 20 -->
      <g style="fill:#555555;" transform="translate(44.38125 227.009355)scale(0.1 -0.1)">
       <use xlink:href="#HelveticaNeue-50"/>
       <use x="55.599991" xlink:href="#HelveticaNeue-48"/>
      </g>
     </g>
    </g>
    <g id="ytick_3">
     <g id="line2d_19">
      <g>
       <use style="fill:#555555;stroke:#555555;stroke-width:0.8;" x="62.5" xlink:href="#me9d9484976" y="195.082631"/>
      </g>
     </g>
     <g id="text_8">
      <!-- 40 -->
      <g style="fill:#555555;" transform="translate(44.38125 198.652943)scale(0.1 -0.1)">
       <defs>
        <path d="M 33.90625 24.09375 
L 10.09375 24.09375 
L 33.703125 58.796875 
L 33.90625 58.796875 
z
M 41.90625 24.09375 
L 41.90625 70.90625 
L 35.09375 70.90625 
L 2.796875 24.796875 
L 2.796875 16.59375 
L 33.90625 16.59375 
L 33.90625 0 
L 41.90625 0 
L 41.90625 16.59375 
L 51.5 16.59375 
L 51.5 24.09375 
z
" id="HelveticaNeue-52"/>
       </defs>
       <use xlink:href="#HelveticaNeue-52"/>
       <use x="55.599991" xlink:href="#HelveticaNeue-48"/>
      </g>
     </g>
    </g>
    <g id="ytick_4">
     <g id="line2d_20">
      <g>
       <use style="fill:#555555;stroke:#555555;stroke-width:0.8;" x="62.5" xlink:href="#me9d9484976" y="166.726219"/>
      </g>
     </g>
     <g id="text_9">
      <!-- 60 -->
      <g style="fill:#555555;" transform="translate(44.38125 170.296532)scale(0.1 -0.1)">
       <defs>
        <path d="M 41.40625 52.796875 
L 49.90625 52.796875 
Q 49.09375 61.59375 43.890625 66.25 
Q 38.703125 70.90625 29.90625 70.90625 
Q 22.296875 70.90625 17.296875 67.703125 
Q 12.296875 64.5 9.296875 59.203125 
Q 6.296875 53.90625 5.046875 47.046875 
Q 3.796875 40.203125 3.796875 32.90625 
Q 3.796875 27.296875 4.640625 21.296875 
Q 5.5 15.296875 8.09375 10.296875 
Q 10.703125 5.296875 15.5 2.09375 
Q 20.296875 -1.09375 28.203125 -1.09375 
Q 34.90625 -1.09375 39.453125 1.15625 
Q 44 3.40625 46.75 6.84375 
Q 49.5 10.296875 50.703125 14.5 
Q 51.90625 18.703125 51.90625 22.59375 
Q 51.90625 27.5 50.40625 31.703125 
Q 48.90625 35.90625 46.15625 39 
Q 43.40625 42.09375 39.34375 43.84375 
Q 35.296875 45.59375 30.203125 45.59375 
Q 24.40625 45.59375 19.953125 43.390625 
Q 15.5 41.203125 12.5 36.296875 
L 12.296875 36.5 
Q 12.40625 40.59375 13.09375 45.296875 
Q 13.796875 50 15.640625 54.046875 
Q 17.5 58.09375 20.796875 60.75 
Q 24.09375 63.40625 29.5 63.40625 
Q 34.59375 63.40625 37.6875 60.5 
Q 40.796875 57.59375 41.40625 52.796875 
z
M 28.59375 38.09375 
Q 32.203125 38.09375 34.890625 36.796875 
Q 37.59375 35.5 39.390625 33.34375 
Q 41.203125 31.203125 42.046875 28.25 
Q 42.90625 25.296875 42.90625 22 
Q 42.90625 18.90625 41.953125 16.046875 
Q 41 13.203125 39.203125 11 
Q 37.40625 8.796875 34.75 7.546875 
Q 32.09375 6.296875 28.59375 6.296875 
Q 25.09375 6.296875 22.34375 7.546875 
Q 19.59375 8.796875 17.75 10.890625 
Q 15.90625 13 14.90625 15.890625 
Q 13.90625 18.796875 13.90625 22.09375 
Q 13.90625 25.40625 14.84375 28.34375 
Q 15.796875 31.296875 17.6875 33.4375 
Q 19.59375 35.59375 22.296875 36.84375 
Q 25 38.09375 28.59375 38.09375 
z
" id="HelveticaNeue-54"/>
       </defs>
       <use xlink:href="#HelveticaNeue-54"/>
       <use x="55.599991" xlink:href="#HelveticaNeue-48"/>
      </g>
     </g>
    </g>
    <g id="ytick_5">
     <g id="line2d_21">
      <g>
       <use style="fill:#555555;stroke:#555555;stroke-width:0.8;" x="62.5" xlink:href="#me9d9484976" y="138.369807"/>
      </g>
     </g>
     <g id="text_10">
      <!-- 80 -->
      <g style="fill:#555555;" transform="translate(44.38125 141.94012)scale(0.1 -0.1)">
       <defs>
        <path d="M 15.5 52.5 
Q 15.5 55.203125 16.5 57.203125 
Q 17.5 59.203125 19.140625 60.59375 
Q 20.796875 62 23.09375 62.703125 
Q 25.40625 63.40625 27.90625 63.40625 
Q 33.09375 63.40625 36.4375 60.65625 
Q 39.796875 57.90625 39.796875 52.5 
Q 39.796875 47.09375 36.5 44.09375 
Q 33.203125 41.09375 28.09375 41.09375 
Q 25.5 41.09375 23.203125 41.796875 
Q 20.90625 42.5 19.203125 43.890625 
Q 17.5 45.296875 16.5 47.4375 
Q 15.5 49.59375 15.5 52.5 
z
M 6.5 52.796875 
Q 6.5 48 9.203125 43.953125 
Q 11.90625 39.90625 16.40625 38.09375 
Q 10.40625 36 7.203125 31.34375 
Q 4 26.703125 4 20.40625 
Q 4 15 5.84375 10.953125 
Q 7.703125 6.90625 10.953125 4.203125 
Q 14.203125 1.5 18.59375 0.203125 
Q 23 -1.09375 28.09375 -1.09375 
Q 33 -1.09375 37.296875 0.296875 
Q 41.59375 1.703125 44.75 4.453125 
Q 47.90625 7.203125 49.75 11.203125 
Q 51.59375 15.203125 51.59375 20.40625 
Q 51.59375 27 48.5 31.546875 
Q 45.40625 36.09375 39 38.09375 
Q 43.5 40.09375 46.140625 44.046875 
Q 48.796875 48 48.796875 52.796875 
Q 48.796875 56.203125 47.59375 59.453125 
Q 46.40625 62.703125 43.84375 65.25 
Q 41.296875 67.796875 37.1875 69.34375 
Q 33.09375 70.90625 27.296875 70.90625 
Q 23.203125 70.90625 19.453125 69.703125 
Q 15.703125 68.5 12.796875 66.203125 
Q 9.90625 63.90625 8.203125 60.546875 
Q 6.5 57.203125 6.5 52.796875 
z
M 13 20 
Q 13 23.09375 14.140625 25.59375 
Q 15.296875 28.09375 17.34375 29.890625 
Q 19.40625 31.703125 22.15625 32.640625 
Q 24.90625 33.59375 28 33.59375 
Q 31 33.59375 33.640625 32.546875 
Q 36.296875 31.5 38.296875 29.703125 
Q 40.296875 27.90625 41.4375 25.453125 
Q 42.59375 23 42.59375 20.09375 
Q 42.59375 17.09375 41.546875 14.59375 
Q 40.5 12.09375 38.546875 10.25 
Q 36.59375 8.40625 33.9375 7.34375 
Q 31.296875 6.296875 28.09375 6.296875 
Q 21.5 6.296875 17.25 9.9375 
Q 13 13.59375 13 20 
z
" id="HelveticaNeue-56"/>
       </defs>
       <use xlink:href="#HelveticaNeue-56"/>
       <use x="55.599991" xlink:href="#HelveticaNeue-48"/>
      </g>
     </g>
    </g>
    <g id="ytick_6">
     <g id="line2d_22">
      <g>
       <use style="fill:#555555;stroke:#555555;stroke-width:0.8;" x="62.5" xlink:href="#me9d9484976" y="110.013396"/>
      </g>
     </g>
     <g id="text_11">
      <!-- 100 -->
      <g style="fill:#555555;" transform="translate(38.821875 113.583708)scale(0.1 -0.1)">
       <use xlink:href="#HelveticaNeue-49"/>
       <use x="55.599991" xlink:href="#HelveticaNeue-48"/>
       <use x="111.199982" xlink:href="#HelveticaNeue-48"/>
      </g>
     </g>
    </g>
    <g id="ytick_7">
     <g id="line2d_23">
      <g>
       <use style="fill:#555555;stroke:#555555;stroke-width:0.8;" x="62.5" xlink:href="#me9d9484976" y="81.656984"/>
      </g>
     </g>
     <g id="text_12">
      <!-- 120 -->
      <g style="fill:#555555;" transform="translate(38.821875 85.227296)scale(0.1 -0.1)">
       <use xlink:href="#HelveticaNeue-49"/>
       <use x="55.599991" xlink:href="#HelveticaNeue-50"/>
       <use x="111.199982" xlink:href="#HelveticaNeue-48"/>
      </g>
     </g>
    </g>
    <g id="ytick_8">
     <g id="line2d_24">
      <g>
       <use style="fill:#555555;stroke:#555555;stroke-width:0.8;" x="62.5" xlink:href="#me9d9484976" y="53.300572"/>
      </g>
     </g>
     <g id="text_13">
      <!-- 140 -->
      <g style="fill:#555555;" transform="translate(38.821875 56.870884)scale(0.1 -0.1)">
       <use xlink:href="#HelveticaNeue-49"/>
       <use x="55.599991" xlink:href="#HelveticaNeue-52"/>
       <use x="111.199982" xlink:href="#HelveticaNeue-48"/>
      </g>
     </g>
    </g>
   </g>
   <g id="line2d_25">
    <path clip-path="url(#pc611a4af97)" d="M 63.372748 250.377634 
L 64.245495 251.795455 
L 65.118243 250.377634 
L 65.990991 251.795455 
L 66.863739 250.377634 
L 67.736486 251.795455 
L 68.609234 251.795455 
L 69.481982 248.959813 
L 70.35473 251.795455 
L 71.227477 250.377634 
L 72.100225 251.795455 
L 72.972973 250.377634 
L 73.845721 244.706352 
L 74.718468 251.795455 
L 75.591216 250.377634 
L 76.463964 251.795455 
L 77.336712 250.377634 
L 78.209459 251.795455 
L 79.082207 247.541993 
L 79.954955 250.377634 
L 80.827703 250.377634 
L 81.70045 251.795455 
L 82.573198 251.795455 
L 83.445946 250.377634 
L 84.318694 251.795455 
L 85.191441 250.377634 
L 86.064189 244.706352 
L 86.936937 251.795455 
L 87.809685 251.795455 
L 88.682432 250.377634 
L 89.55518 243.288531 
L 90.427928 247.541993 
L 91.300676 223.439043 
L 92.173423 223.439043 
L 93.046171 248.959813 
L 93.918919 250.377634 
L 94.791667 250.377634 
L 95.664414 248.959813 
L 96.537162 246.124172 
L 97.40991 251.795455 
L 98.282658 246.124172 
L 99.155405 248.959813 
L 100.028153 247.541993 
L 100.900901 250.377634 
L 102.646396 241.87071 
L 103.519144 247.541993 
L 104.391892 246.124172 
L 105.26464 192.24699 
L 106.137387 240.45289 
L 107.010135 247.541993 
L 107.882883 246.124172 
L 108.755631 247.541993 
L 109.628378 247.541993 
L 110.501126 243.288531 
L 111.373874 250.377634 
L 112.246622 240.45289 
L 113.119369 240.45289 
L 113.992117 246.124172 
L 114.864865 240.45289 
L 115.737613 246.124172 
L 116.61036 243.288531 
L 117.483108 248.959813 
L 118.355856 243.288531 
L 119.228604 240.45289 
L 120.101351 250.377634 
L 120.974099 240.45289 
L 121.846847 247.541993 
L 122.719595 246.124172 
L 123.592342 246.124172 
L 124.46509 243.288531 
L 125.337838 234.781607 
L 126.210586 173.815322 
L 127.083333 213.514299 
L 127.956081 222.021222 
L 128.828829 196.500452 
L 129.701577 237.617249 
L 130.574324 236.199428 
L 131.447072 202.171734 
L 132.31982 227.692505 
L 133.192568 224.856863 
L 134.065315 216.34994 
L 134.938063 217.76776 
L 135.810811 234.781607 
L 136.683559 209.260837 
L 137.556306 223.439043 
L 138.429054 98.670831 
L 139.301802 239.035069 
L 140.17455 169.56186 
L 141.047297 239.035069 
L 141.920045 226.274684 
L 142.792793 223.439043 
L 143.665541 162.472757 
L 144.538288 209.260837 
L 145.411036 224.856863 
L 146.283784 202.171734 
L 147.156532 168.14404 
L 148.029279 214.932119 
L 149.774775 206.425196 
L 150.647523 152.548013 
L 151.52027 203.589554 
L 152.393018 183.740066 
L 153.265766 213.514299 
L 154.138514 216.34994 
L 155.011261 170.979681 
L 155.884009 178.068784 
L 156.756757 180.904425 
L 157.629505 162.472757 
L 158.502252 207.843016 
L 159.375 216.34994 
L 160.247748 189.411349 
L 161.120495 195.082631 
L 161.993243 196.500452 
L 162.865991 193.66481 
L 163.738739 195.082631 
L 164.611486 168.14404 
L 165.484234 158.219296 
L 166.356982 207.843016 
L 167.22973 156.801475 
L 168.102477 122.773781 
L 168.975225 212.096478 
L 169.847973 209.260837 
L 170.720721 192.24699 
L 171.593468 186.575707 
L 172.466216 183.740066 
L 173.338964 142.623269 
L 174.211712 192.24699 
L 175.084459 206.425196 
L 175.957207 176.650963 
L 176.829955 175.233143 
L 177.702703 223.439043 
L 179.448198 163.890578 
L 180.320946 176.650963 
L 181.193694 175.233143 
L 182.066441 195.082631 
L 182.939189 210.678657 
L 183.811937 173.815322 
L 184.684685 190.829169 
L 185.557432 136.951987 
L 186.43018 162.472757 
L 187.302928 231.945966 
L 188.175676 182.322246 
L 189.048423 186.575707 
L 189.921171 222.021222 
L 190.793919 179.486604 
L 191.666667 217.76776 
L 192.539414 214.932119 
L 194.28491 220.603402 
L 195.157658 224.856863 
L 196.030405 236.199428 
L 196.903153 209.260837 
L 197.775901 216.34994 
L 198.648649 224.856863 
L 199.521396 206.425196 
L 200.394144 210.678657 
L 201.266892 209.260837 
L 202.13964 233.363787 
L 203.012387 219.185581 
L 203.885135 209.260837 
L 204.757883 222.021222 
L 205.630631 180.904425 
L 206.503378 209.260837 
L 207.376126 219.185581 
L 208.248874 237.617249 
L 209.121622 234.781607 
L 209.994369 222.021222 
L 210.867117 206.425196 
L 211.739865 200.753913 
L 212.612613 224.856863 
L 213.48536 229.110325 
L 214.358108 230.528146 
L 215.230856 237.617249 
L 216.103604 217.76776 
L 216.976351 234.781607 
L 217.849099 214.932119 
L 218.721847 199.336093 
L 220.467342 220.603402 
L 221.34009 224.856863 
L 222.212838 227.692505 
L 223.085586 226.274684 
L 223.958333 210.678657 
L 224.831081 229.110325 
L 225.703829 183.740066 
L 226.576577 229.110325 
L 227.449324 230.528146 
L 228.322072 241.87071 
L 229.19482 230.528146 
L 230.067568 224.856863 
L 230.940315 217.76776 
L 231.813063 220.603402 
L 232.685811 207.843016 
L 233.558559 222.021222 
L 234.431306 226.274684 
L 235.304054 222.021222 
L 236.176802 205.007375 
L 237.04955 217.76776 
L 237.922297 217.76776 
L 238.795045 219.185581 
L 239.667793 217.76776 
L 240.540541 212.096478 
L 241.413288 213.514299 
L 242.286036 202.171734 
L 243.158784 216.34994 
L 244.031532 224.856863 
L 245.777027 219.185581 
L 246.649775 214.932119 
L 247.522523 197.918272 
L 248.39527 229.110325 
L 250.140766 214.932119 
L 251.013514 217.76776 
L 251.886261 219.185581 
L 252.759009 210.678657 
L 253.631757 219.185581 
L 254.504505 229.110325 
L 255.377252 224.856863 
L 256.25 227.692505 
L 257.122748 231.945966 
L 257.995495 229.110325 
L 258.868243 203.589554 
L 259.740991 222.021222 
L 260.613739 210.678657 
L 261.486486 220.603402 
L 262.359234 199.336093 
L 263.231982 220.603402 
L 264.10473 200.753913 
L 264.977477 207.843016 
L 265.850225 179.486604 
L 266.722973 182.322246 
L 267.595721 169.56186 
L 268.468468 219.185581 
L 269.341216 222.021222 
L 270.213964 210.678657 
L 271.086712 202.171734 
L 271.959459 207.843016 
L 272.832207 212.096478 
L 273.704955 193.66481 
L 274.577703 199.336093 
L 275.45045 226.274684 
L 276.323198 195.082631 
L 277.195946 214.932119 
L 278.068694 192.24699 
L 278.941441 189.411349 
L 279.814189 189.411349 
L 280.686937 212.096478 
L 281.559685 200.753913 
L 282.432432 205.007375 
L 283.30518 162.472757 
L 284.177928 136.951987 
L 285.050676 206.425196 
L 285.923423 156.801475 
L 286.796171 209.260837 
L 287.668919 183.740066 
L 288.541667 212.096478 
L 289.414414 156.801475 
L 290.287162 189.411349 
L 291.15991 185.157887 
L 292.032658 222.021222 
L 292.905405 196.500452 
L 293.778153 213.514299 
L 294.650901 172.397502 
L 295.523649 101.506472 
L 296.396396 144.04109 
L 297.269144 175.233143 
L 298.141892 219.185581 
L 299.01464 165.308399 
L 299.887387 176.650963 
L 300.760135 175.233143 
L 301.632883 156.801475 
L 302.505631 141.205449 
L 303.378378 148.294551 
L 304.251126 145.45891 
L 305.123874 166.726219 
L 305.996622 199.336093 
L 306.869369 200.753913 
L 307.742117 100.088651 
L 308.614865 148.294551 
L 309.487613 170.979681 
L 310.36036 136.951987 
L 311.233108 117.102498 
L 312.105856 102.924293 
L 312.978604 149.712372 
L 313.851351 148.294551 
L 314.724099 162.472757 
L 315.596847 165.308399 
L 316.469595 162.472757 
L 317.342342 169.56186 
L 318.21509 205.007375 
L 319.087838 166.726219 
L 319.960586 205.007375 
L 320.833333 156.801475 
L 321.706081 189.411349 
L 322.578829 213.514299 
L 323.451577 213.514299 
L 324.324324 203.589554 
L 325.197072 200.753913 
L 326.06982 203.589554 
L 326.942568 222.021222 
L 327.815315 219.185581 
L 328.688063 210.678657 
L 329.560811 217.76776 
L 330.433559 222.021222 
L 331.306306 216.34994 
L 332.179054 212.096478 
L 333.051802 213.514299 
L 333.92455 226.274684 
L 334.797297 219.185581 
L 335.670045 236.199428 
L 336.542793 230.528146 
L 337.415541 233.363787 
L 338.288288 230.528146 
L 339.161036 233.363787 
L 340.033784 240.45289 
L 340.906532 226.274684 
L 342.652027 243.288531 
L 343.524775 236.199428 
L 345.27027 236.199428 
L 346.143018 223.439043 
L 347.015766 236.199428 
L 347.888514 237.617249 
L 348.761261 240.45289 
L 349.634009 244.706352 
L 350.506757 233.363787 
L 351.379505 239.035069 
L 352.252252 230.528146 
L 353.125 236.199428 
L 353.997748 239.035069 
L 354.870495 247.541993 
L 355.743243 250.377634 
L 356.615991 246.124172 
L 357.488739 244.706352 
L 358.361486 231.945966 
L 359.234234 247.541993 
L 360.106982 248.959813 
L 360.97973 240.45289 
L 361.852477 241.87071 
L 362.725225 240.45289 
L 363.597973 234.781607 
L 364.470721 243.288531 
L 365.343468 241.87071 
L 366.216216 241.87071 
L 367.088964 236.199428 
L 367.961712 250.377634 
L 368.834459 247.541993 
L 369.707207 239.035069 
L 370.579955 237.617249 
L 371.452703 227.692505 
L 372.32545 229.110325 
L 373.198198 240.45289 
L 374.070946 237.617249 
L 374.943694 213.514299 
L 375.816441 230.528146 
L 376.689189 231.945966 
L 377.561937 207.843016 
L 378.434685 224.856863 
L 379.307432 230.528146 
L 380.18018 214.932119 
L 381.052928 187.993528 
L 381.925676 224.856863 
L 382.798423 205.007375 
L 383.671171 202.171734 
L 384.543919 229.110325 
L 385.416667 209.260837 
L 386.289414 153.965834 
L 387.162162 169.56186 
L 388.03491 173.815322 
L 388.907658 180.904425 
L 389.780405 180.904425 
L 390.653153 197.918272 
L 391.525901 195.082631 
L 392.398649 149.712372 
L 393.271396 163.890578 
L 394.144144 175.233143 
L 395.016892 162.472757 
L 395.88964 145.45891 
L 396.762387 190.829169 
L 397.635135 203.589554 
L 398.507883 162.472757 
L 399.380631 146.876731 
L 400.253378 163.890578 
L 401.126126 207.843016 
L 401.998874 156.801475 
L 402.871622 217.76776 
L 403.744369 176.650963 
L 404.617117 161.054937 
L 405.489865 165.308399 
L 406.362613 222.021222 
L 407.23536 78.821343 
L 408.108108 162.472757 
L 408.980856 203.589554 
L 409.853604 169.56186 
L 410.726351 170.979681 
L 411.599099 119.93814 
L 412.471847 146.876731 
L 413.344595 189.411349 
L 414.217342 169.56186 
L 415.09009 166.726219 
L 415.962838 207.843016 
L 416.835586 179.486604 
L 417.708333 172.397502 
L 418.581081 193.66481 
L 419.453829 166.726219 
L 420.326577 81.656984 
L 421.199324 119.93814 
L 422.072072 122.773781 
L 422.94482 98.670831 
L 423.817568 64.643137 
L 424.690315 125.609422 
L 425.563063 129.862884 
L 426.435811 117.102498 
L 427.308559 118.520319 
L 428.181306 131.280704 
L 429.054054 132.698525 
L 429.926802 70.314419 
L 430.79955 54.718393 
L 431.672297 91.581728 
L 432.545045 68.896598 
L 433.417793 56.136213 
L 434.290541 121.35596 
L 435.163288 88.746087 
L 436.036036 114.266857 
L 436.908784 152.548013 
L 437.781532 156.801475 
L 438.654279 104.342113 
L 439.527027 37.704545 
L 440.399775 162.472757 
L 441.272523 142.623269 
L 442.14527 95.83519 
L 443.018018 74.567881 
L 443.890766 127.027243 
L 444.763514 61.807495 
L 445.636261 131.280704 
L 446.509009 119.93814 
L 447.381757 183.740066 
L 448.254505 122.773781 
L 449.127252 115.684678 
L 450 227.692505 
L 450 227.692505 
" style="fill:none;stroke:#000000;stroke-dasharray:1.5,2.475;stroke-dashoffset:0;stroke-opacity:0.5;stroke-width:1.5;"/>
   </g>
   <g id="line2d_26">
    <path clip-path="url(#pc611a4af97)" d="M 62.5 250.377634 
L 65.118243 250.377634 
L 65.990991 251.795455 
L 66.863739 250.377634 
L 86.064189 250.377634 
L 86.936937 248.959813 
L 87.809685 248.959813 
L 88.682432 246.124172 
L 89.55518 241.87071 
L 91.300676 239.035069 
L 93.918919 243.288531 
L 95.664414 248.959813 
L 98.282658 248.959813 
L 99.155405 247.541993 
L 100.900901 247.541993 
L 101.773649 246.124172 
L 102.646396 240.45289 
L 103.519144 237.617249 
L 104.391892 236.199428 
L 106.137387 236.199428 
L 107.010135 237.617249 
L 107.882883 240.45289 
L 108.755631 246.124172 
L 109.628378 246.124172 
L 110.501126 244.706352 
L 112.246622 244.706352 
L 113.119369 243.288531 
L 114.864865 243.288531 
L 115.737613 244.706352 
L 122.719595 244.706352 
L 123.592342 236.199428 
L 125.337838 224.856863 
L 126.210586 217.76776 
L 127.083333 214.932119 
L 127.956081 214.932119 
L 128.828829 213.514299 
L 129.701577 219.185581 
L 130.574324 222.021222 
L 131.447072 220.603402 
L 132.31982 222.021222 
L 133.192568 222.021222 
L 134.065315 220.603402 
L 134.938063 222.021222 
L 135.810811 207.843016 
L 136.683559 205.007375 
L 137.556306 197.918272 
L 139.301802 197.918272 
L 140.17455 202.171734 
L 141.047297 200.753913 
L 141.920045 210.678657 
L 142.792793 207.843016 
L 143.665541 210.678657 
L 144.538288 202.171734 
L 146.283784 199.336093 
L 147.156532 203.589554 
L 148.029279 197.918272 
L 149.774775 192.24699 
L 150.647523 195.082631 
L 151.52027 195.082631 
L 152.393018 193.66481 
L 153.265766 190.829169 
L 154.138514 193.66481 
L 155.011261 187.993528 
L 156.756757 187.993528 
L 157.629505 186.575707 
L 158.502252 190.829169 
L 160.247748 196.500452 
L 161.120495 197.918272 
L 161.993243 193.66481 
L 162.865991 186.575707 
L 163.738739 186.575707 
L 164.611486 182.322246 
L 165.484234 172.397502 
L 166.356982 172.397502 
L 167.22973 173.815322 
L 168.102477 178.068784 
L 168.975225 183.740066 
L 170.720721 183.740066 
L 171.593468 187.993528 
L 173.338964 182.322246 
L 174.211712 180.904425 
L 175.084459 185.157887 
L 176.829955 190.829169 
L 177.702703 189.411349 
L 178.57545 185.157887 
L 179.448198 185.157887 
L 180.320946 187.993528 
L 181.193694 183.740066 
L 182.066441 185.157887 
L 183.811937 179.486604 
L 184.684685 182.322246 
L 185.557432 180.904425 
L 186.43018 180.904425 
L 187.302928 186.575707 
L 188.175676 189.411349 
L 189.048423 197.918272 
L 189.921171 203.589554 
L 190.793919 203.589554 
L 191.666667 207.843016 
L 192.539414 213.514299 
L 193.412162 216.34994 
L 194.28491 220.603402 
L 195.157658 220.603402 
L 196.030405 222.021222 
L 196.903153 220.603402 
L 197.775901 217.76776 
L 199.521396 214.932119 
L 200.394144 216.34994 
L 202.13964 216.34994 
L 203.012387 213.514299 
L 203.885135 212.096478 
L 205.630631 212.096478 
L 207.376126 217.76776 
L 209.121622 220.603402 
L 210.867117 220.603402 
L 211.739865 219.185581 
L 213.48536 222.021222 
L 214.358108 226.274684 
L 215.230856 227.692505 
L 216.103604 224.856863 
L 216.976351 220.603402 
L 217.849099 217.76776 
L 218.721847 216.34994 
L 219.594595 217.76776 
L 220.467342 217.76776 
L 221.34009 219.185581 
L 222.212838 222.021222 
L 223.085586 219.185581 
L 223.958333 217.76776 
L 224.831081 217.76776 
L 225.703829 219.185581 
L 227.449324 224.856863 
L 228.322072 224.856863 
L 229.19482 229.110325 
L 230.067568 224.856863 
L 230.940315 223.439043 
L 231.813063 220.603402 
L 233.558559 217.76776 
L 237.04955 217.76776 
L 238.795045 214.932119 
L 239.667793 214.932119 
L 240.540541 213.514299 
L 241.413288 213.514299 
L 243.158784 216.34994 
L 244.031532 216.34994 
L 244.904279 214.932119 
L 245.777027 217.76776 
L 246.649775 217.76776 
L 247.522523 216.34994 
L 250.140766 216.34994 
L 251.013514 219.185581 
L 251.886261 217.76776 
L 253.631757 220.603402 
L 254.504505 223.439043 
L 255.377252 224.856863 
L 257.122748 224.856863 
L 257.995495 222.021222 
L 258.868243 220.603402 
L 259.740991 216.34994 
L 260.613739 214.932119 
L 261.486486 212.096478 
L 262.359234 212.096478 
L 263.231982 206.425196 
L 264.10473 202.171734 
L 264.977477 195.082631 
L 266.722973 195.082631 
L 267.595721 196.500452 
L 268.468468 199.336093 
L 270.213964 207.843016 
L 271.086712 209.260837 
L 271.959459 206.425196 
L 272.832207 206.425196 
L 273.704955 205.007375 
L 274.577703 206.425196 
L 278.068694 200.753913 
L 278.941441 197.918272 
L 279.814189 199.336093 
L 280.686937 195.082631 
L 281.559685 187.993528 
L 282.432432 186.575707 
L 283.30518 180.904425 
L 285.050676 178.068784 
L 286.796171 183.740066 
L 287.668919 187.993528 
L 288.541667 186.575707 
L 289.414414 192.24699 
L 290.287162 190.829169 
L 291.15991 195.082631 
L 292.032658 193.66481 
L 292.905405 187.993528 
L 293.778153 179.486604 
L 294.650901 172.397502 
L 296.396396 166.726219 
L 297.269144 165.308399 
L 298.141892 169.56186 
L 299.01464 175.233143 
L 299.887387 173.815322 
L 300.760135 168.14404 
L 301.632883 158.219296 
L 302.505631 156.801475 
L 303.378378 158.219296 
L 304.251126 163.890578 
L 305.123874 161.054937 
L 305.996622 162.472757 
L 306.869369 162.472757 
L 307.742117 159.637116 
L 308.614865 152.548013 
L 309.487613 139.787628 
L 310.36036 134.116346 
L 311.233108 136.951987 
L 312.978604 139.787628 
L 313.851351 145.45891 
L 314.724099 152.548013 
L 315.596847 165.308399 
L 316.469595 169.56186 
L 317.342342 176.650963 
L 318.21509 178.068784 
L 319.087838 180.904425 
L 319.960586 185.157887 
L 320.833333 190.829169 
L 321.706081 192.24699 
L 322.578829 197.918272 
L 323.451577 199.336093 
L 324.324324 206.425196 
L 325.197072 209.260837 
L 327.815315 213.514299 
L 328.688063 216.34994 
L 329.560811 217.76776 
L 330.433559 216.34994 
L 331.306306 216.34994 
L 332.179054 217.76776 
L 333.051802 220.603402 
L 333.92455 222.021222 
L 336.542793 230.528146 
L 338.288288 233.363787 
L 339.161036 233.363787 
L 340.033784 234.781607 
L 340.906532 234.781607 
L 341.779279 236.199428 
L 342.652027 236.199428 
L 343.524775 234.781607 
L 346.143018 234.781607 
L 347.015766 236.199428 
L 347.888514 236.199428 
L 348.761261 237.617249 
L 352.252252 237.617249 
L 353.997748 240.45289 
L 354.870495 243.288531 
L 355.743243 243.288531 
L 356.615991 244.706352 
L 357.488739 244.706352 
L 358.361486 243.288531 
L 359.234234 243.288531 
L 360.106982 241.87071 
L 362.725225 241.87071 
L 363.597973 240.45289 
L 365.343468 240.45289 
L 367.088964 243.288531 
L 371.452703 236.199428 
L 372.32545 231.945966 
L 373.198198 230.528146 
L 374.070946 230.528146 
L 374.943694 227.692505 
L 376.689189 224.856863 
L 378.434685 219.185581 
L 379.307432 217.76776 
L 380.18018 213.514299 
L 381.052928 212.096478 
L 381.925676 212.096478 
L 382.798423 210.678657 
L 383.671171 205.007375 
L 384.543919 200.753913 
L 385.416667 192.24699 
L 386.289414 186.575707 
L 387.162162 182.322246 
L 388.03491 179.486604 
L 388.907658 179.486604 
L 389.780405 180.904425 
L 391.525901 178.068784 
L 392.398649 175.233143 
L 393.271396 169.56186 
L 394.144144 166.726219 
L 395.88964 172.397502 
L 397.635135 169.56186 
L 398.507883 173.815322 
L 399.380631 173.815322 
L 400.253378 176.650963 
L 401.126126 176.650963 
L 402.871622 179.486604 
L 403.744369 185.157887 
L 404.617117 170.979681 
L 406.362613 165.308399 
L 407.23536 163.890578 
L 408.108108 165.308399 
L 408.980856 162.472757 
L 409.853604 155.383654 
L 410.726351 163.890578 
L 411.599099 163.890578 
L 412.471847 161.054937 
L 413.344595 166.726219 
L 414.217342 170.979681 
L 415.09009 178.068784 
L 415.962838 182.322246 
L 416.835586 180.904425 
L 418.581081 161.054937 
L 420.326577 135.534166 
L 421.199324 119.93814 
L 422.072072 110.013396 
L 422.94482 105.759934 
L 423.817568 108.595575 
L 424.690315 110.013396 
L 425.563063 112.849037 
L 426.435811 118.520319 
L 427.308559 119.93814 
L 428.181306 110.013396 
L 429.054054 102.924293 
L 429.926802 94.417369 
L 430.79955 84.492625 
L 432.545045 78.821343 
L 433.417793 84.492625 
L 434.290541 97.25301 
L 435.163288 107.177754 
L 436.036036 115.684678 
L 436.908784 115.684678 
L 438.654279 121.35596 
L 439.527027 119.93814 
L 440.399775 111.431216 
L 441.272523 108.595575 
L 442.14527 104.342113 
L 443.018018 110.013396 
L 443.890766 104.342113 
L 444.763514 110.013396 
L 445.636261 117.102498 
L 446.509009 125.609422 
L 448.254505 149.712372 
L 449.127252 155.383654 
L 450 162.472757 
L 450 162.472757 
" style="fill:none;stroke:#b3220f;stroke-linecap:square;stroke-width:1.5;"/>
   </g>
   <g id="patch_3">
    <path d="M 62.5 262.5 
L 62.5 27 
" style="fill:none;stroke:#555555;stroke-linecap:square;stroke-linejoin:miter;"/>
   </g>
   <g id="patch_4">
    <path d="M 62.5 262.5 
L 450 262.5 
" style="fill:none;stroke:#555555;stroke-linecap:square;stroke-linejoin:miter;"/>
   </g>
   <g id="text_14">
    <!-- Antonio Nariño | Casos nuevos: 2021-06-24 -->
    <g style="fill:#555555;" transform="translate(119.325625 17)scale(0.14 -0.14)">
     <defs>
      <path d="M 12.59375 25.796875 
Q 12.59375 30.5 13.84375 34.140625 
Q 15.09375 37.796875 17.296875 40.296875 
Q 19.5 42.796875 22.453125 44.09375 
Q 25.40625 45.40625 28.703125 45.40625 
Q 32 45.40625 34.953125 44.09375 
Q 37.90625 42.796875 40.09375 40.296875 
Q 42.296875 37.796875 43.546875 34.140625 
Q 44.796875 30.5 44.796875 25.796875 
Q 44.796875 21.09375 43.546875 17.4375 
Q 42.296875 13.796875 40.09375 11.34375 
Q 37.90625 8.90625 34.953125 7.59375 
Q 32 6.296875 28.703125 6.296875 
Q 25.40625 6.296875 22.453125 7.59375 
Q 19.5 8.90625 17.296875 11.34375 
Q 15.09375 13.796875 13.84375 17.4375 
Q 12.59375 21.09375 12.59375 25.796875 
z
M 3.59375 25.796875 
Q 3.59375 20.09375 5.1875 15.1875 
Q 6.796875 10.296875 10 6.640625 
Q 13.203125 3 17.890625 0.953125 
Q 22.59375 -1.09375 28.703125 -1.09375 
Q 34.90625 -1.09375 39.546875 0.953125 
Q 44.203125 3 47.390625 6.640625 
Q 50.59375 10.296875 52.1875 15.1875 
Q 53.796875 20.09375 53.796875 25.796875 
Q 53.796875 31.5 52.1875 36.453125 
Q 50.59375 41.40625 47.390625 45.046875 
Q 44.203125 48.703125 39.546875 50.796875 
Q 34.90625 52.90625 28.703125 52.90625 
Q 22.59375 52.90625 17.890625 50.796875 
Q 13.203125 48.703125 10 45.046875 
Q 6.796875 41.40625 5.1875 36.453125 
Q 3.59375 31.5 3.59375 25.796875 
z
" id="HelveticaNeue-111"/>
      <path d="M 15.40625 61 
L 15.40625 71.40625 
L 6.90625 71.40625 
L 6.90625 61 
z
M 6.90625 51.703125 
L 6.90625 0 
L 15.40625 0 
L 15.40625 51.703125 
z
" id="HelveticaNeue-105"/>
      <path id="HelveticaNeue-32"/>
      <path d="M 7.703125 71.40625 
L 7.703125 0 
L 16.703125 0 
L 16.703125 57.296875 
L 16.90625 57.296875 
L 54.203125 0 
L 64.59375 0 
L 64.59375 71.40625 
L 55.59375 71.40625 
L 55.59375 13.5 
L 55.40625 13.5 
L 17.796875 71.40625 
z
" id="HelveticaNeue-78"/>
      <path d="M 45.203125 71.09375 
L 40 71.09375 
Q 39.5 69.59375 38.453125 68.140625 
Q 37.40625 66.703125 35.40625 66.703125 
Q 33.796875 66.703125 32.140625 67.34375 
Q 30.5 68 28.796875 68.75 
Q 27.09375 69.5 25.25 70.09375 
Q 23.40625 70.703125 21.40625 70.703125 
Q 19 70.703125 17.296875 69.796875 
Q 15.59375 68.90625 14.390625 67.40625 
Q 13.203125 65.90625 12.34375 63.90625 
Q 11.5 61.90625 10.90625 59.703125 
L 16.09375 59.703125 
Q 15.90625 61.59375 17.59375 62.75 
Q 19.296875 63.90625 20.90625 63.90625 
Q 22.296875 63.90625 24.046875 63.296875 
Q 25.796875 62.703125 27.59375 62 
Q 29.40625 61.203125 31.15625 60.59375 
Q 32.90625 60 34.203125 60 
Q 37.09375 60 38.9375 60.84375 
Q 40.796875 61.703125 42.09375 63.09375 
Q 44.59375 66.59375 45.203125 71.09375 
z
M 6.40625 51.703125 
L 6.40625 0 
L 14.90625 0 
L 14.90625 29.203125 
Q 14.90625 32.703125 15.84375 35.640625 
Q 16.796875 38.59375 18.6875 40.796875 
Q 20.59375 43 23.4375 44.203125 
Q 26.296875 45.40625 30.203125 45.40625 
Q 35.09375 45.40625 37.890625 42.59375 
Q 40.703125 39.796875 40.703125 35 
L 40.703125 0 
L 49.203125 0 
L 49.203125 34 
Q 49.203125 38.203125 48.34375 41.640625 
Q 47.5 45.09375 45.390625 47.59375 
Q 43.296875 50.09375 39.890625 51.5 
Q 36.5 52.90625 31.40625 52.90625 
Q 19.90625 52.90625 14.59375 43.5 
L 14.40625 43.5 
L 14.40625 51.703125 
z
" id="HelveticaNeue-241"/>
      <path d="M 7.703125 78.59375 
L 7.703125 -21.296875 
L 14.5 -21.296875 
L 14.5 78.59375 
z
" id="HelveticaNeue-124"/>
      <path d="M 58 49.90625 
L 67.5 49.90625 
Q 66.703125 55.59375 64.09375 59.9375 
Q 61.5 64.296875 57.59375 67.1875 
Q 53.703125 70.09375 48.703125 71.59375 
Q 43.703125 73.09375 38.09375 73.09375 
Q 29.90625 73.09375 23.546875 70.140625 
Q 17.203125 67.203125 12.953125 62.09375 
Q 8.703125 57 6.5 50.140625 
Q 4.296875 43.296875 4.296875 35.5 
Q 4.296875 27.703125 6.34375 20.890625 
Q 8.40625 14.09375 12.5 9.09375 
Q 16.59375 4.09375 22.796875 1.25 
Q 29 -1.59375 37.296875 -1.59375 
Q 51 -1.59375 58.890625 5.90625 
Q 66.796875 13.40625 68.203125 26.90625 
L 58.703125 26.90625 
Q 58.40625 22.5 56.90625 18.703125 
Q 55.40625 14.90625 52.75 12.15625 
Q 50.09375 9.40625 46.4375 7.84375 
Q 42.796875 6.296875 38.09375 6.296875 
Q 31.703125 6.296875 27.09375 8.6875 
Q 22.5 11.09375 19.546875 15.140625 
Q 16.59375 19.203125 15.1875 24.640625 
Q 13.796875 30.09375 13.796875 36.203125 
Q 13.796875 41.796875 15.1875 47 
Q 16.59375 52.203125 19.546875 56.25 
Q 22.5 60.296875 27.046875 62.6875 
Q 31.59375 65.09375 38 65.09375 
Q 45.5 65.09375 50.953125 61.296875 
Q 56.40625 57.5 58 49.90625 
z
" id="HelveticaNeue-67"/>
      <path d="M 11.59375 16.296875 
L 3.09375 16.296875 
Q 3.296875 11.5 5.09375 8.140625 
Q 6.90625 4.796875 9.90625 2.75 
Q 12.90625 0.703125 16.796875 -0.1875 
Q 20.703125 -1.09375 25 -1.09375 
Q 28.90625 -1.09375 32.84375 -0.34375 
Q 36.796875 0.40625 39.9375 2.296875 
Q 43.09375 4.203125 45.046875 7.296875 
Q 47 10.40625 47 15.09375 
Q 47 18.796875 45.546875 21.296875 
Q 44.09375 23.796875 41.75 25.4375 
Q 39.40625 27.09375 36.34375 28.09375 
Q 33.296875 29.09375 30.09375 29.796875 
Q 27.09375 30.5 24.09375 31.140625 
Q 21.09375 31.796875 18.6875 32.75 
Q 16.296875 33.703125 14.75 35.140625 
Q 13.203125 36.59375 13.203125 38.796875 
Q 13.203125 40.796875 14.203125 42.046875 
Q 15.203125 43.296875 16.796875 44.046875 
Q 18.40625 44.796875 20.34375 45.09375 
Q 22.296875 45.40625 24.203125 45.40625 
Q 26.296875 45.40625 28.34375 44.953125 
Q 30.40625 44.5 32.09375 43.5 
Q 33.796875 42.5 34.890625 40.84375 
Q 36 39.203125 36.203125 36.703125 
L 44.703125 36.703125 
Q 44.40625 41.40625 42.703125 44.546875 
Q 41 47.703125 38.140625 49.546875 
Q 35.296875 51.40625 31.59375 52.15625 
Q 27.90625 52.90625 23.5 52.90625 
Q 20.09375 52.90625 16.640625 52.046875 
Q 13.203125 51.203125 10.453125 49.453125 
Q 7.703125 47.703125 5.953125 44.890625 
Q 4.203125 42.09375 4.203125 38.203125 
Q 4.203125 33.203125 6.703125 30.390625 
Q 9.203125 27.59375 12.953125 26.046875 
Q 16.703125 24.5 21.09375 23.640625 
Q 25.5 22.796875 29.25 21.75 
Q 33 20.703125 35.5 19 
Q 38 17.296875 38 14 
Q 38 11.59375 36.796875 10.046875 
Q 35.59375 8.5 33.75 7.703125 
Q 31.90625 6.90625 29.703125 6.59375 
Q 27.5 6.296875 25.5 6.296875 
Q 22.90625 6.296875 20.453125 6.796875 
Q 18 7.296875 16.046875 8.4375 
Q 14.09375 9.59375 12.890625 11.546875 
Q 11.703125 13.5 11.59375 16.296875 
z
" id="HelveticaNeue-115"/>
      <path d="M 29.703125 0 
L 48.59375 51.703125 
L 39.703125 51.703125 
L 25.59375 8.59375 
L 25.40625 8.59375 
L 10.90625 51.703125 
L 1.40625 51.703125 
L 20.59375 0 
z
" id="HelveticaNeue-118"/>
      <path d="M 19.40625 40.59375 
L 19.40625 51.703125 
L 8.296875 51.703125 
L 8.296875 40.59375 
z
M 8.296875 11.09375 
L 8.296875 0 
L 19.40625 0 
L 19.40625 11.09375 
z
" id="HelveticaNeue-58"/>
      <path d="M 5 31.796875 
L 5 23.796875 
L 33.90625 23.796875 
L 33.90625 31.796875 
z
" id="HelveticaNeue-45"/>
     </defs>
     <use xlink:href="#HelveticaNeue-65"/>
     <use x="64.799988" xlink:href="#HelveticaNeue-110"/>
     <use x="120.399979" xlink:href="#HelveticaNeue-116"/>
     <use x="151.899963" xlink:href="#HelveticaNeue-111"/>
     <use x="209.299957" xlink:href="#HelveticaNeue-110"/>
     <use x="264.899948" xlink:href="#HelveticaNeue-105"/>
     <use x="287.099945" xlink:href="#HelveticaNeue-111"/>
     <use x="344.499939" xlink:href="#HelveticaNeue-32"/>
     <use x="372.299927" xlink:href="#HelveticaNeue-78"/>
     <use x="444.499908" xlink:href="#HelveticaNeue-97"/>
     <use x="498.199905" xlink:href="#HelveticaNeue-114"/>
     <use x="531.499893" xlink:href="#HelveticaNeue-105"/>
     <use x="553.69989" xlink:href="#HelveticaNeue-241"/>
     <use x="609.299881" xlink:href="#HelveticaNeue-111"/>
     <use x="666.699875" xlink:href="#HelveticaNeue-32"/>
     <use x="694.499863" xlink:href="#HelveticaNeue-124"/>
     <use x="716.69986" xlink:href="#HelveticaNeue-32"/>
     <use x="744.499847" xlink:href="#HelveticaNeue-67"/>
     <use x="816.699829" xlink:href="#HelveticaNeue-97"/>
     <use x="870.399826" xlink:href="#HelveticaNeue-115"/>
     <use x="920.399811" xlink:href="#HelveticaNeue-111"/>
     <use x="977.799805" xlink:href="#HelveticaNeue-115"/>
     <use x="1027.799789" xlink:href="#HelveticaNeue-32"/>
     <use x="1055.599777" xlink:href="#HelveticaNeue-110"/>
     <use x="1111.199768" xlink:href="#HelveticaNeue-117"/>
     <use x="1166.799759" xlink:href="#HelveticaNeue-101"/>
     <use x="1220.499756" xlink:href="#HelveticaNeue-118"/>
     <use x="1270.499741" xlink:href="#HelveticaNeue-111"/>
     <use x="1327.899734" xlink:href="#HelveticaNeue-115"/>
     <use x="1377.899719" xlink:href="#HelveticaNeue-58"/>
     <use x="1405.699707" xlink:href="#HelveticaNeue-32"/>
     <use x="1433.499695" xlink:href="#HelveticaNeue-50"/>
     <use x="1489.099686" xlink:href="#HelveticaNeue-48"/>
     <use x="1544.699677" xlink:href="#HelveticaNeue-50"/>
     <use x="1600.299667" xlink:href="#HelveticaNeue-49"/>
     <use x="1655.899658" xlink:href="#HelveticaNeue-45"/>
     <use x="1694.799652" xlink:href="#HelveticaNeue-48"/>
     <use x="1750.399643" xlink:href="#HelveticaNeue-54"/>
     <use x="1805.999634" xlink:href="#HelveticaNeue-45"/>
     <use x="1844.899628" xlink:href="#HelveticaNeue-50"/>
     <use x="1900.499619" xlink:href="#HelveticaNeue-52"/>
    </g>
   </g>
   <g id="legend_1">
    <g id="line2d_27">
     <path d="M 71.5 39.640625 
L 91.5 39.640625 
" style="fill:none;stroke:#000000;stroke-dasharray:1.5,2.475;stroke-dashoffset:0;stroke-opacity:0.5;stroke-width:1.5;"/>
    </g>
    <g id="line2d_28"/>
    <g id="text_15">
     <!-- Actual -->
     <g style="fill:#555555;" transform="translate(99.5 43.140625)scale(0.1 -0.1)">
      <use xlink:href="#HelveticaNeue-65"/>
      <use x="64.799988" xlink:href="#HelveticaNeue-99"/>
      <use x="118.499985" xlink:href="#HelveticaNeue-116"/>
      <use x="149.999969" xlink:href="#HelveticaNeue-117"/>
      <use x="205.59996" xlink:href="#HelveticaNeue-97"/>
      <use x="259.299957" xlink:href="#HelveticaNeue-108"/>
     </g>
    </g>
    <g id="line2d_29">
     <path d="M 71.5 54.310937 
L 91.5 54.310937 
" style="fill:none;stroke:#b3220f;stroke-linecap:square;stroke-width:1.5;"/>
    </g>
    <g id="line2d_30"/>
    <g id="text_16">
     <!-- Promedio semanal (7 días)  -->
     <g style="fill:#555555;" transform="translate(99.5 57.810937)scale(0.1 -0.1)">
      <defs>
       <path d="M 17.296875 37.203125 
L 17.296875 63.40625 
L 35.90625 63.40625 
Q 44 63.40625 47.75 60.046875 
Q 51.5 56.703125 51.5 50.296875 
Q 51.5 43.90625 47.75 40.5 
Q 44 37.09375 35.90625 37.203125 
z
M 7.796875 71.40625 
L 7.796875 0 
L 17.296875 0 
L 17.296875 29.203125 
L 39.09375 29.203125 
Q 49.90625 29.09375 55.453125 34.6875 
Q 61 40.296875 61 50.296875 
Q 61 60.296875 55.453125 65.84375 
Q 49.90625 71.40625 39.09375 71.40625 
z
" id="HelveticaNeue-80"/>
       <path d="M 6.40625 51.703125 
L 6.40625 0 
L 14.90625 0 
L 14.90625 32.203125 
Q 14.90625 33.703125 15.65625 35.953125 
Q 16.40625 38.203125 18.046875 40.296875 
Q 19.703125 42.40625 22.34375 43.90625 
Q 25 45.40625 28.703125 45.40625 
Q 31.59375 45.40625 33.4375 44.546875 
Q 35.296875 43.703125 36.390625 42.140625 
Q 37.5 40.59375 37.953125 38.5 
Q 38.40625 36.40625 38.40625 33.90625 
L 38.40625 0 
L 46.90625 0 
L 46.90625 32.203125 
Q 46.90625 38.203125 50.5 41.796875 
Q 54.09375 45.40625 60.40625 45.40625 
Q 63.5 45.40625 65.453125 44.5 
Q 67.40625 43.59375 68.5 42.046875 
Q 69.59375 40.5 70 38.390625 
Q 70.40625 36.296875 70.40625 33.90625 
L 70.40625 0 
L 78.90625 0 
L 78.90625 37.90625 
Q 78.90625 41.90625 77.65625 44.75 
Q 76.40625 47.59375 74.15625 49.390625 
Q 71.90625 51.203125 68.75 52.046875 
Q 65.59375 52.90625 61.703125 52.90625 
Q 56.59375 52.90625 52.34375 50.59375 
Q 48.09375 48.296875 45.5 44.09375 
Q 43.90625 48.90625 40 50.90625 
Q 36.09375 52.90625 31.296875 52.90625 
Q 20.40625 52.90625 14.59375 44.09375 
L 14.40625 44.09375 
L 14.40625 51.703125 
z
" id="HelveticaNeue-109"/>
       <path d="M 12.59375 25.40625 
Q 12.59375 29.203125 13.390625 32.796875 
Q 14.203125 36.40625 16 39.203125 
Q 17.796875 42 20.796875 43.703125 
Q 23.796875 45.40625 28.09375 45.40625 
Q 32.5 45.40625 35.59375 43.75 
Q 38.703125 42.09375 40.640625 39.390625 
Q 42.59375 36.703125 43.5 33.140625 
Q 44.40625 29.59375 44.40625 25.796875 
Q 44.40625 22.203125 43.546875 18.703125 
Q 42.703125 15.203125 40.796875 12.453125 
Q 38.90625 9.703125 35.90625 8 
Q 32.90625 6.296875 28.59375 6.296875 
Q 24.5 6.296875 21.453125 7.890625 
Q 18.40625 9.5 16.453125 12.203125 
Q 14.5 14.90625 13.546875 18.34375 
Q 12.59375 21.796875 12.59375 25.40625 
z
M 52.59375 0 
L 52.59375 71.40625 
L 44.09375 71.40625 
L 44.09375 44.796875 
L 43.90625 44.796875 
Q 42.5 47.09375 40.453125 48.640625 
Q 38.40625 50.203125 36.09375 51.140625 
Q 33.796875 52.09375 31.5 52.5 
Q 29.203125 52.90625 27.203125 52.90625 
Q 21.296875 52.90625 16.84375 50.75 
Q 12.40625 48.59375 9.453125 44.9375 
Q 6.5 41.296875 5.046875 36.390625 
Q 3.59375 31.5 3.59375 26 
Q 3.59375 20.5 5.09375 15.59375 
Q 6.59375 10.703125 9.546875 7 
Q 12.5 3.296875 16.953125 1.09375 
Q 21.40625 -1.09375 27.40625 -1.09375 
Q 32.796875 -1.09375 37.296875 0.796875 
Q 41.796875 2.703125 43.90625 7 
L 44.09375 7 
L 44.09375 0 
z
" id="HelveticaNeue-100"/>
       <path d="M 20.40625 -19.703125 
L 26.90625 -19.703125 
Q 19.796875 -8.203125 16.75 3.09375 
Q 13.703125 14.40625 13.703125 27 
Q 13.703125 39.296875 16.703125 50.5 
Q 19.703125 61.703125 26.90625 73.09375 
L 20.40625 73.09375 
Q 12.59375 62.796875 8.640625 50.796875 
Q 4.703125 38.796875 4.703125 27 
Q 4.703125 20.40625 5.796875 14.40625 
Q 6.90625 8.40625 8.953125 2.703125 
Q 11 -3 13.890625 -8.546875 
Q 16.796875 -14.09375 20.40625 -19.703125 
z
" id="HelveticaNeue-40"/>
       <path d="M 50.90625 62.40625 
L 50.90625 69.703125 
L 5 69.703125 
L 5 61.703125 
L 42.203125 61.703125 
Q 36.59375 55.796875 31.75 48.796875 
Q 26.90625 41.796875 23.203125 33.9375 
Q 19.5 26.09375 17.140625 17.546875 
Q 14.796875 9 14.203125 0 
L 23.703125 0 
Q 24.203125 8.296875 26.5 17.09375 
Q 28.796875 25.90625 32.4375 34.203125 
Q 36.09375 42.5 40.796875 49.796875 
Q 45.5 57.09375 50.90625 62.40625 
z
" id="HelveticaNeue-55"/>
       <path d="M 6.90625 0 
L 15.40625 0 
L 15.40625 51.703125 
L 6.90625 51.703125 
z
M 25.5 77 
L 11.40625 60.796875 
L 5 60.796875 
L 14.59375 77 
z
" id="HelveticaNeue-237"/>
       <path d="M -0.90625 -19.703125 
L 5.5 -19.703125 
Q 13.296875 -9.40625 17.25 2.546875 
Q 21.203125 14.5 21.203125 26.296875 
Q 21.203125 32.90625 20.09375 38.90625 
Q 19 44.90625 16.953125 50.65625 
Q 14.90625 56.40625 12 61.953125 
Q 9.09375 67.5 5.5 73.09375 
L -0.90625 73.09375 
Q 6.09375 61.59375 9.140625 50.25 
Q 12.203125 38.90625 12.203125 26.296875 
Q 12.203125 14.09375 9.203125 2.84375 
Q 6.203125 -8.40625 -0.90625 -19.703125 
z
" id="HelveticaNeue-41"/>
      </defs>
      <use xlink:href="#HelveticaNeue-80"/>
      <use x="64.799988" xlink:href="#HelveticaNeue-114"/>
      <use x="96.349976" xlink:href="#HelveticaNeue-111"/>
      <use x="153.749969" xlink:href="#HelveticaNeue-109"/>
      <use x="239.049957" xlink:href="#HelveticaNeue-101"/>
      <use x="292.749954" xlink:href="#HelveticaNeue-100"/>
      <use x="352.049942" xlink:href="#HelveticaNeue-105"/>
      <use x="374.249939" xlink:href="#HelveticaNeue-111"/>
      <use x="431.649933" xlink:href="#HelveticaNeue-32"/>
      <use x="459.449921" xlink:href="#HelveticaNeue-115"/>
      <use x="509.449905" xlink:href="#HelveticaNeue-101"/>
      <use x="563.149902" xlink:href="#HelveticaNeue-109"/>
      <use x="648.44989" xlink:href="#HelveticaNeue-97"/>
      <use x="702.149887" xlink:href="#HelveticaNeue-110"/>
      <use x="757.749878" xlink:href="#HelveticaNeue-97"/>
      <use x="811.449875" xlink:href="#HelveticaNeue-108"/>
      <use x="833.649872" xlink:href="#HelveticaNeue-32"/>
      <use x="861.44986" xlink:href="#HelveticaNeue-40"/>
      <use x="887.349854" xlink:href="#HelveticaNeue-55"/>
      <use x="942.949844" xlink:href="#HelveticaNeue-32"/>
      <use x="970.749832" xlink:href="#HelveticaNeue-100"/>
      <use x="1030.04982" xlink:href="#HelveticaNeue-237"/>
      <use x="1052.249817" xlink:href="#HelveticaNeue-97"/>
      <use x="1105.949814" xlink:href="#HelveticaNeue-115"/>
      <use x="1155.949799" xlink:href="#HelveticaNeue-41"/>
      <use x="1181.849792" xlink:href="#HelveticaNeue-32"/>
     </g>
    </g>
   </g>
  </g>
 </g>
 <defs>
  <clipPath id="pc611a4af97">
   <rect height="235.5" width="387.5" x="62.5" y="27"/>
  </clipPath>
 </defs>
</svg>
