<?xml version="1.0" encoding="utf-8" standalone="no"?>
<!DOCTYPE svg PUBLIC "-//W3C//DTD SVG 1.1//EN"
  "http://www.w3.org/Graphics/SVG/1.1/DTD/svg11.dtd">
<!-- Created with matplotlib (https://matplotlib.org/) -->
<svg height="300pt" version="1.1" viewBox="0 0 500 300" width="500pt" xmlns="http://www.w3.org/2000/svg" xmlns:xlink="http://www.w3.org/1999/xlink">
 <metadata>
  <rdf:RDF xmlns:cc="http://creativecommons.org/ns#" xmlns:dc="http://purl.org/dc/elements/1.1/" xmlns:rdf="http://www.w3.org/1999/02/22-rdf-syntax-ns#">
   <cc:Work>
    <dc:type rdf:resource="http://purl.org/dc/dcmitype/StillImage"/>
    <dc:date>2021-06-05T20:48:13.893747</dc:date>
    <dc:format>image/svg+xml</dc:format>
    <dc:creator>
     <cc:Agent>
      <dc:title>Matplotlib v3.3.4, https://matplotlib.org/</dc:title>
     </cc:Agent>
    </dc:creator>
   </cc:Work>
  </rdf:RDF>
 </metadata>
 <defs>
  <style type="text/css">*{stroke-linecap:butt;stroke-linejoin:round;}</style>
 </defs>
 <g id="figure_1">
  <g id="patch_1">
   <path d="M 0 300 
L 500 300 
L 500 0 
L 0 0 
z
" style="fill:#ffffff;"/>
  </g>
  <g id="axes_1">
   <g id="patch_2">
    <path d="M 62.5 262.5 
L 450 262.5 
L 450 27 
L 62.5 27 
z
" style="fill:#ffffff;"/>
   </g>
   <g id="matplotlib.axis_1">
    <g id="xtick_1">
     <g id="line2d_1">
      <defs>
       <path d="M 0 0 
L 0 3.5 
" id="m98456568e4" style="stroke:#555555;stroke-width:0.8;"/>
      </defs>
      <g>
       <use style="fill:#555555;stroke:#555555;stroke-width:0.8;" x="62.5" xlink:href="#m98456568e4" y="262.5"/>
      </g>
     </g>
    </g>
    <g id="xtick_2">
     <g id="line2d_2">
      <g>
       <use style="fill:#555555;stroke:#555555;stroke-width:0.8;" x="85.78726" xlink:href="#m98456568e4" y="262.5"/>
      </g>
     </g>
     <g id="text_1">
      <!-- May -->
      <g style="fill:#555555;" transform="translate(76.247416 276.640625)scale(0.1 -0.1)">
       <defs>
        <path d="M 8 71.40625 
L 8 0 
L 17 0 
L 17 59.40625 
L 17.203125 59.40625 
L 39.5 0 
L 47.59375 0 
L 69.90625 59.40625 
L 70.09375 59.40625 
L 70.09375 0 
L 79.09375 0 
L 79.09375 71.40625 
L 66.09375 71.40625 
L 43.5 11.40625 
L 21 71.40625 
z
" id="HelveticaNeue-77"/>
        <path d="M 52.203125 0.203125 
Q 50 -1.09375 46.09375 -1.09375 
Q 42.796875 -1.09375 40.84375 0.75 
Q 38.90625 2.59375 38.90625 6.796875 
Q 35.40625 2.59375 30.75 0.75 
Q 26.09375 -1.09375 20.703125 -1.09375 
Q 17.203125 -1.09375 14.046875 -0.296875 
Q 10.90625 0.5 8.59375 2.203125 
Q 6.296875 3.90625 4.9375 6.65625 
Q 3.59375 9.40625 3.59375 13.296875 
Q 3.59375 17.703125 5.09375 20.5 
Q 6.59375 23.296875 9.046875 25.046875 
Q 11.5 26.796875 14.640625 27.6875 
Q 17.796875 28.59375 21.09375 29.203125 
Q 24.59375 29.90625 27.75 30.25 
Q 30.90625 30.59375 33.296875 31.25 
Q 35.703125 31.90625 37.09375 33.15625 
Q 38.5 34.40625 38.5 36.796875 
Q 38.5 39.59375 37.453125 41.296875 
Q 36.40625 43 34.75 43.890625 
Q 33.09375 44.796875 31.046875 45.09375 
Q 29 45.40625 27 45.40625 
Q 21.59375 45.40625 18 43.34375 
Q 14.40625 41.296875 14.09375 35.59375 
L 5.59375 35.59375 
Q 5.796875 40.40625 7.59375 43.703125 
Q 9.40625 47 12.40625 49.046875 
Q 15.40625 51.09375 19.25 52 
Q 23.09375 52.90625 27.5 52.90625 
Q 31 52.90625 34.453125 52.40625 
Q 37.90625 51.90625 40.703125 50.34375 
Q 43.5 48.796875 45.203125 46 
Q 46.90625 43.203125 46.90625 38.703125 
L 46.90625 12.09375 
Q 46.90625 9.09375 47.25 7.6875 
Q 47.59375 6.296875 49.59375 6.296875 
Q 50.703125 6.296875 52.203125 6.796875 
z
M 38.40625 26.703125 
Q 36.796875 25.5 34.1875 24.953125 
Q 31.59375 24.40625 28.75 24.046875 
Q 25.90625 23.703125 23 23.25 
Q 20.09375 22.796875 17.796875 21.796875 
Q 15.5 20.796875 14.046875 18.9375 
Q 12.59375 17.09375 12.59375 13.90625 
Q 12.59375 11.796875 13.4375 10.34375 
Q 14.296875 8.90625 15.640625 8 
Q 17 7.09375 18.796875 6.6875 
Q 20.59375 6.296875 22.59375 6.296875 
Q 26.796875 6.296875 29.796875 7.4375 
Q 32.796875 8.59375 34.6875 10.34375 
Q 36.59375 12.09375 37.5 14.140625 
Q 38.40625 16.203125 38.40625 18 
z
" id="HelveticaNeue-97"/>
        <path d="M 26.703125 -6.90625 
Q 25.203125 -10.703125 23.75 -13.296875 
Q 22.296875 -15.90625 20.546875 -17.546875 
Q 18.796875 -19.203125 16.640625 -19.953125 
Q 14.5 -20.703125 11.703125 -20.703125 
Q 10.203125 -20.703125 8.703125 -20.5 
Q 7.203125 -20.296875 5.796875 -19.796875 
L 5.796875 -12 
Q 6.90625 -12.5 8.34375 -12.84375 
Q 9.796875 -13.203125 10.796875 -13.203125 
Q 13.40625 -13.203125 15.15625 -11.953125 
Q 16.90625 -10.703125 17.796875 -8.40625 
L 21.296875 0.296875 
L 0.796875 51.703125 
L 10.40625 51.703125 
L 25.5 9.40625 
L 25.703125 9.40625 
L 40.203125 51.703125 
L 49.203125 51.703125 
z
" id="HelveticaNeue-121"/>
       </defs>
       <use xlink:href="#HelveticaNeue-77"/>
       <use x="87.099991" xlink:href="#HelveticaNeue-97"/>
       <use x="140.799988" xlink:href="#HelveticaNeue-121"/>
      </g>
     </g>
    </g>
    <g id="xtick_3">
     <g id="line2d_3">
      <g>
       <use style="fill:#555555;stroke:#555555;stroke-width:0.8;" x="114.663462" xlink:href="#m98456568e4" y="262.5"/>
      </g>
     </g>
     <g id="text_2">
      <!-- Jun -->
      <g style="fill:#555555;" transform="translate(106.508774 276.640625)scale(0.1 -0.1)">
       <defs>
        <path d="M 44.09375 17.796875 
L 44.09375 71.40625 
L 34.59375 71.40625 
L 34.59375 19.203125 
Q 34.59375 13.296875 32.140625 9.796875 
Q 29.703125 6.296875 23.203125 6.296875 
Q 19.703125 6.296875 17.453125 7.34375 
Q 15.203125 8.40625 13.953125 10.296875 
Q 12.703125 12.203125 12.203125 14.796875 
Q 11.703125 17.40625 11.703125 20.5 
L 11.703125 23.5 
L 2.203125 23.5 
L 2.203125 19.09375 
Q 2.203125 8.90625 7.59375 3.65625 
Q 13 -1.59375 23 -1.59375 
Q 29 -1.59375 33.046875 0.046875 
Q 37.09375 1.703125 39.546875 4.453125 
Q 42 7.203125 43.046875 10.703125 
Q 44.09375 14.203125 44.09375 17.796875 
z
" id="HelveticaNeue-74"/>
        <path d="M 49.203125 0 
L 49.203125 51.703125 
L 40.703125 51.703125 
L 40.703125 22.5 
Q 40.703125 19 39.75 16.046875 
Q 38.796875 13.09375 36.890625 10.890625 
Q 35 8.703125 32.140625 7.5 
Q 29.296875 6.296875 25.40625 6.296875 
Q 20.5 6.296875 17.703125 9.09375 
Q 14.90625 11.90625 14.90625 16.703125 
L 14.90625 51.703125 
L 6.40625 51.703125 
L 6.40625 17.703125 
Q 6.40625 13.5 7.25 10.046875 
Q 8.09375 6.59375 10.1875 4.09375 
Q 12.296875 1.59375 15.6875 0.25 
Q 19.09375 -1.09375 24.203125 -1.09375 
Q 29.90625 -1.09375 34.09375 1.15625 
Q 38.296875 3.40625 41 8.203125 
L 41.203125 8.203125 
L 41.203125 0 
z
" id="HelveticaNeue-117"/>
        <path d="M 6.40625 51.703125 
L 6.40625 0 
L 14.90625 0 
L 14.90625 29.203125 
Q 14.90625 32.703125 15.84375 35.640625 
Q 16.796875 38.59375 18.6875 40.796875 
Q 20.59375 43 23.4375 44.203125 
Q 26.296875 45.40625 30.203125 45.40625 
Q 35.09375 45.40625 37.890625 42.59375 
Q 40.703125 39.796875 40.703125 35 
L 40.703125 0 
L 49.203125 0 
L 49.203125 34 
Q 49.203125 38.203125 48.34375 41.640625 
Q 47.5 45.09375 45.390625 47.59375 
Q 43.296875 50.09375 39.890625 51.5 
Q 36.5 52.90625 31.40625 52.90625 
Q 19.90625 52.90625 14.59375 43.5 
L 14.40625 43.5 
L 14.40625 51.703125 
z
" id="HelveticaNeue-110"/>
       </defs>
       <use xlink:href="#HelveticaNeue-74"/>
       <use x="51.899994" xlink:href="#HelveticaNeue-117"/>
       <use x="107.499985" xlink:href="#HelveticaNeue-110"/>
      </g>
     </g>
    </g>
    <g id="xtick_4">
     <g id="line2d_4">
      <g>
       <use style="fill:#555555;stroke:#555555;stroke-width:0.8;" x="142.608173" xlink:href="#m98456568e4" y="262.5"/>
      </g>
     </g>
     <g id="text_3">
      <!-- Jul -->
      <g style="fill:#555555;" transform="translate(136.123017 276.640625)scale(0.1 -0.1)">
       <defs>
        <path d="M 6.90625 71.40625 
L 6.90625 0 
L 15.40625 0 
L 15.40625 71.40625 
z
" id="HelveticaNeue-108"/>
       </defs>
       <use xlink:href="#HelveticaNeue-74"/>
       <use x="51.899994" xlink:href="#HelveticaNeue-117"/>
       <use x="107.499985" xlink:href="#HelveticaNeue-108"/>
      </g>
     </g>
    </g>
    <g id="xtick_5">
     <g id="line2d_5">
      <g>
       <use style="fill:#555555;stroke:#555555;stroke-width:0.8;" x="171.484375" xlink:href="#m98456568e4" y="262.5"/>
      </g>
     </g>
     <g id="text_4">
      <!-- Aug -->
      <g style="fill:#555555;" transform="translate(162.594531 276.640625)scale(0.1 -0.1)">
       <defs>
        <path d="M 20.09375 29.5 
L 32.203125 62.796875 
L 32.40625 62.796875 
L 44.296875 29.5 
z
M 27.203125 71.40625 
L -0.59375 0 
L 9.09375 0 
L 17.09375 21.5 
L 47.296875 21.5 
L 55.09375 0 
L 65.59375 0 
L 37.703125 71.40625 
z
" id="HelveticaNeue-65"/>
        <path d="M 51 4.40625 
L 51 51.703125 
L 43 51.703125 
L 43 44.296875 
L 42.90625 44.296875 
Q 40.59375 48.59375 36.5 50.75 
Q 32.40625 52.90625 27.5 52.90625 
Q 20.796875 52.90625 16.1875 50.34375 
Q 11.59375 47.796875 8.796875 43.84375 
Q 6 39.90625 4.796875 35.046875 
Q 3.59375 30.203125 3.59375 25.59375 
Q 3.59375 20.296875 5.046875 15.546875 
Q 6.5 10.796875 9.390625 7.25 
Q 12.296875 3.703125 16.59375 1.59375 
Q 20.90625 -0.5 26.703125 -0.5 
Q 31.703125 -0.5 36.140625 1.75 
Q 40.59375 4 42.796875 8.796875 
L 43 8.796875 
L 43 5.40625 
Q 43 1.09375 42.140625 -2.5 
Q 41.296875 -6.09375 39.390625 -8.640625 
Q 37.5 -11.203125 34.59375 -12.640625 
Q 31.703125 -14.09375 27.5 -14.09375 
Q 25.40625 -14.09375 23.09375 -13.640625 
Q 20.796875 -13.203125 18.84375 -12.203125 
Q 16.90625 -11.203125 15.546875 -9.59375 
Q 14.203125 -8 14.09375 -5.703125 
L 5.59375 -5.703125 
Q 5.796875 -9.90625 7.796875 -12.796875 
Q 9.796875 -15.703125 12.84375 -17.5 
Q 15.90625 -19.296875 19.65625 -20.09375 
Q 23.40625 -20.90625 27 -20.90625 
Q 39.40625 -20.90625 45.203125 -14.59375 
Q 51 -8.296875 51 4.40625 
z
M 27.203125 6.90625 
Q 23 6.90625 20.203125 8.65625 
Q 17.40625 10.40625 15.703125 13.25 
Q 14 16.09375 13.296875 19.59375 
Q 12.59375 23.09375 12.59375 26.59375 
Q 12.59375 30.296875 13.4375 33.6875 
Q 14.296875 37.09375 16.140625 39.6875 
Q 18 42.296875 20.890625 43.84375 
Q 23.796875 45.40625 27.90625 45.40625 
Q 31.90625 45.40625 34.703125 43.796875 
Q 37.5 42.203125 39.25 39.546875 
Q 41 36.90625 41.796875 33.59375 
Q 42.59375 30.296875 42.59375 26.90625 
Q 42.59375 23.296875 41.75 19.6875 
Q 40.90625 16.09375 39.09375 13.25 
Q 37.296875 10.40625 34.34375 8.65625 
Q 31.40625 6.90625 27.203125 6.90625 
z
" id="HelveticaNeue-103"/>
       </defs>
       <use xlink:href="#HelveticaNeue-65"/>
       <use x="64.799988" xlink:href="#HelveticaNeue-117"/>
       <use x="120.399979" xlink:href="#HelveticaNeue-103"/>
      </g>
     </g>
    </g>
    <g id="xtick_6">
     <g id="line2d_6">
      <g>
       <use style="fill:#555555;stroke:#555555;stroke-width:0.8;" x="200.360577" xlink:href="#m98456568e4" y="262.5"/>
      </g>
     </g>
     <g id="text_5">
      <!-- Sep -->
      <g style="fill:#555555;" transform="translate(191.470733 276.809375)scale(0.1 -0.1)">
       <defs>
        <path d="M 49.09375 50.5 
L 58.09375 50.5 
Q 57.90625 56.40625 55.84375 60.65625 
Q 53.796875 64.90625 50.25 67.703125 
Q 46.703125 70.5 42 71.796875 
Q 37.296875 73.09375 31.796875 73.09375 
Q 26.90625 73.09375 22.25 71.84375 
Q 17.59375 70.59375 13.9375 68.046875 
Q 10.296875 65.5 8.09375 61.546875 
Q 5.90625 57.59375 5.90625 52.203125 
Q 5.90625 47.296875 7.84375 44.046875 
Q 9.796875 40.796875 13.046875 38.75 
Q 16.296875 36.703125 20.390625 35.453125 
Q 24.5 34.203125 28.75 33.25 
Q 33 32.296875 37.09375 31.390625 
Q 41.203125 30.5 44.453125 29.046875 
Q 47.703125 27.59375 49.640625 25.296875 
Q 51.59375 23 51.59375 19.296875 
Q 51.59375 15.40625 50 12.90625 
Q 48.40625 10.40625 45.796875 8.953125 
Q 43.203125 7.5 39.953125 6.890625 
Q 36.703125 6.296875 33.5 6.296875 
Q 29.5 6.296875 25.703125 7.296875 
Q 21.90625 8.296875 19.046875 10.390625 
Q 16.203125 12.5 14.453125 15.75 
Q 12.703125 19 12.703125 23.5 
L 3.703125 23.5 
Q 3.703125 17 6.046875 12.25 
Q 8.40625 7.5 12.453125 4.453125 
Q 16.5 1.40625 21.84375 -0.09375 
Q 27.203125 -1.59375 33.203125 -1.59375 
Q 38.09375 -1.59375 43.046875 -0.4375 
Q 48 0.703125 52 3.25 
Q 56 5.796875 58.546875 9.84375 
Q 61.09375 13.90625 61.09375 19.59375 
Q 61.09375 24.90625 59.140625 28.40625 
Q 57.203125 31.90625 53.953125 34.203125 
Q 50.703125 36.5 46.59375 37.84375 
Q 42.5 39.203125 38.25 40.203125 
Q 34 41.203125 29.890625 42.046875 
Q 25.796875 42.90625 22.546875 44.203125 
Q 19.296875 45.5 17.34375 47.546875 
Q 15.40625 49.59375 15.40625 52.90625 
Q 15.40625 56.40625 16.75 58.75 
Q 18.09375 61.09375 20.34375 62.5 
Q 22.59375 63.90625 25.5 64.5 
Q 28.40625 65.09375 31.40625 65.09375 
Q 38.796875 65.09375 43.546875 61.640625 
Q 48.296875 58.203125 49.09375 50.5 
z
" id="HelveticaNeue-83"/>
        <path d="M 42.296875 30.796875 
L 12.59375 30.796875 
Q 12.796875 33.796875 13.890625 36.4375 
Q 15 39.09375 16.890625 41.09375 
Q 18.796875 43.09375 21.4375 44.25 
Q 24.09375 45.40625 27.40625 45.40625 
Q 30.59375 45.40625 33.25 44.25 
Q 35.90625 43.09375 37.84375 41.140625 
Q 39.796875 39.203125 40.9375 36.5 
Q 42.09375 33.796875 42.296875 30.796875 
z
M 50.5 16.40625 
L 42.09375 16.40625 
Q 41 11.296875 37.546875 8.796875 
Q 34.09375 6.296875 28.703125 6.296875 
Q 24.5 6.296875 21.390625 7.6875 
Q 18.296875 9.09375 16.296875 11.4375 
Q 14.296875 13.796875 13.390625 16.84375 
Q 12.5 19.90625 12.59375 23.296875 
L 51.296875 23.296875 
Q 51.5 28 50.453125 33.203125 
Q 49.40625 38.40625 46.65625 42.796875 
Q 43.90625 47.203125 39.34375 50.046875 
Q 34.796875 52.90625 27.90625 52.90625 
Q 22.59375 52.90625 18.140625 50.90625 
Q 13.703125 48.90625 10.453125 45.296875 
Q 7.203125 41.703125 5.390625 36.796875 
Q 3.59375 31.90625 3.59375 26 
Q 3.796875 20.09375 5.34375 15.09375 
Q 6.90625 10.09375 10 6.5 
Q 13.09375 2.90625 17.640625 0.90625 
Q 22.203125 -1.09375 28.40625 -1.09375 
Q 37.203125 -1.09375 43 3.296875 
Q 48.796875 7.703125 50.5 16.40625 
z
" id="HelveticaNeue-101"/>
        <path d="M 6.703125 51.703125 
L 6.703125 -19.703125 
L 15.203125 -19.703125 
L 15.203125 6.90625 
L 15.40625 6.90625 
Q 16.796875 4.59375 18.84375 3.046875 
Q 20.90625 1.5 23.203125 0.59375 
Q 25.5 -0.296875 27.84375 -0.6875 
Q 30.203125 -1.09375 32.09375 -1.09375 
Q 38 -1.09375 42.453125 1 
Q 46.90625 3.09375 49.84375 6.75 
Q 52.796875 10.40625 54.25 15.296875 
Q 55.703125 20.203125 55.703125 25.703125 
Q 55.703125 31.203125 54.203125 36.09375 
Q 52.703125 41 49.75 44.75 
Q 46.796875 48.5 42.34375 50.703125 
Q 37.90625 52.90625 31.90625 52.90625 
Q 26.5 52.90625 22 50.953125 
Q 17.5 49 15.40625 44.703125 
L 15.203125 44.703125 
L 15.203125 51.703125 
z
M 46.703125 26.296875 
Q 46.703125 22.5 45.890625 18.890625 
Q 45.09375 15.296875 43.296875 12.5 
Q 41.5 9.703125 38.546875 8 
Q 35.59375 6.296875 31.203125 6.296875 
Q 26.796875 6.296875 23.6875 7.9375 
Q 20.59375 9.59375 18.640625 12.296875 
Q 16.703125 15 15.796875 18.546875 
Q 14.90625 22.09375 14.90625 25.90625 
Q 14.90625 29.5 15.75 33 
Q 16.59375 36.5 18.5 39.25 
Q 20.40625 42 23.40625 43.703125 
Q 26.40625 45.40625 30.703125 45.40625 
Q 34.796875 45.40625 37.84375 43.796875 
Q 40.90625 42.203125 42.84375 39.5 
Q 44.796875 36.796875 45.75 33.34375 
Q 46.703125 29.90625 46.703125 26.296875 
z
" id="HelveticaNeue-112"/>
       </defs>
       <use xlink:href="#HelveticaNeue-83"/>
       <use x="64.799988" xlink:href="#HelveticaNeue-101"/>
       <use x="118.499985" xlink:href="#HelveticaNeue-112"/>
      </g>
     </g>
    </g>
    <g id="xtick_7">
     <g id="line2d_7">
      <g>
       <use style="fill:#555555;stroke:#555555;stroke-width:0.8;" x="228.305288" xlink:href="#m98456568e4" y="262.5"/>
      </g>
     </g>
     <g id="text_6">
      <!-- Oct -->
      <g style="fill:#555555;" transform="translate(220.245132 276.640625)scale(0.1 -0.1)">
       <defs>
        <path d="M 13.296875 35.703125 
Q 13.296875 41.09375 14.6875 46.34375 
Q 16.09375 51.59375 19.09375 55.796875 
Q 22.09375 60 26.796875 62.546875 
Q 31.5 65.09375 38 65.09375 
Q 44.5 65.09375 49.203125 62.546875 
Q 53.90625 60 56.90625 55.796875 
Q 59.90625 51.59375 61.296875 46.34375 
Q 62.703125 41.09375 62.703125 35.703125 
Q 62.703125 30.296875 61.296875 25.046875 
Q 59.90625 19.796875 56.90625 15.59375 
Q 53.90625 11.40625 49.203125 8.84375 
Q 44.5 6.296875 38 6.296875 
Q 31.5 6.296875 26.796875 8.84375 
Q 22.09375 11.40625 19.09375 15.59375 
Q 16.09375 19.796875 14.6875 25.046875 
Q 13.296875 30.296875 13.296875 35.703125 
z
M 3.796875 35.703125 
Q 3.796875 28.40625 5.9375 21.65625 
Q 8.09375 14.90625 12.390625 9.703125 
Q 16.703125 4.5 23.09375 1.453125 
Q 29.5 -1.59375 38 -1.59375 
Q 46.5 -1.59375 52.890625 1.453125 
Q 59.296875 4.5 63.59375 9.703125 
Q 67.90625 14.90625 70.046875 21.65625 
Q 72.203125 28.40625 72.203125 35.703125 
Q 72.203125 43 70.046875 49.75 
Q 67.90625 56.5 63.59375 61.703125 
Q 59.296875 66.90625 52.890625 70 
Q 46.5 73.09375 38 73.09375 
Q 29.5 73.09375 23.09375 70 
Q 16.703125 66.90625 12.390625 61.703125 
Q 8.09375 56.5 5.9375 49.75 
Q 3.796875 43 3.796875 35.703125 
z
" id="HelveticaNeue-79"/>
        <path d="M 41.5 35.09375 
L 50.296875 35.09375 
Q 49.796875 39.703125 47.890625 43.046875 
Q 46 46.40625 43.046875 48.59375 
Q 40.09375 50.796875 36.25 51.84375 
Q 32.40625 52.90625 28 52.90625 
Q 21.90625 52.90625 17.296875 50.75 
Q 12.703125 48.59375 9.640625 44.84375 
Q 6.59375 41.09375 5.09375 36.046875 
Q 3.59375 31 3.59375 25.203125 
Q 3.59375 19.40625 5.140625 14.546875 
Q 6.703125 9.703125 9.75 6.203125 
Q 12.796875 2.703125 17.34375 0.796875 
Q 21.90625 -1.09375 27.796875 -1.09375 
Q 37.703125 -1.09375 43.453125 4.09375 
Q 49.203125 9.296875 50.59375 18.90625 
L 41.90625 18.90625 
Q 41.09375 12.90625 37.546875 9.59375 
Q 34 6.296875 27.703125 6.296875 
Q 23.703125 6.296875 20.796875 7.890625 
Q 17.90625 9.5 16.09375 12.140625 
Q 14.296875 14.796875 13.4375 18.1875 
Q 12.59375 21.59375 12.59375 25.203125 
Q 12.59375 29.09375 13.390625 32.75 
Q 14.203125 36.40625 16.046875 39.203125 
Q 17.90625 42 21 43.703125 
Q 24.09375 45.40625 28.703125 45.40625 
Q 34.09375 45.40625 37.296875 42.703125 
Q 40.5 40 41.5 35.09375 
z
" id="HelveticaNeue-99"/>
        <path d="M 18.203125 51.703125 
L 18.203125 67.203125 
L 9.703125 67.203125 
L 9.703125 51.703125 
L 0.90625 51.703125 
L 0.90625 44.203125 
L 9.703125 44.203125 
L 9.703125 11.296875 
Q 9.703125 7.703125 10.390625 5.5 
Q 11.09375 3.296875 12.546875 2.09375 
Q 14 0.90625 16.34375 0.453125 
Q 18.703125 0 22 0 
L 28.5 0 
L 28.5 7.5 
L 24.59375 7.5 
Q 22.59375 7.5 21.34375 7.640625 
Q 20.09375 7.796875 19.390625 8.296875 
Q 18.703125 8.796875 18.453125 9.6875 
Q 18.203125 10.59375 18.203125 12.09375 
L 18.203125 44.203125 
L 28.5 44.203125 
L 28.5 51.703125 
z
" id="HelveticaNeue-116"/>
       </defs>
       <use xlink:href="#HelveticaNeue-79"/>
       <use x="75.999985" xlink:href="#HelveticaNeue-99"/>
       <use x="129.699982" xlink:href="#HelveticaNeue-116"/>
      </g>
     </g>
    </g>
    <g id="xtick_8">
     <g id="line2d_8">
      <g>
       <use style="fill:#555555;stroke:#555555;stroke-width:0.8;" x="257.18149" xlink:href="#m98456568e4" y="262.5"/>
      </g>
     </g>
     <g id="text_7">
      <!-- Nov -->
      <g style="fill:#555555;" transform="translate(248.201022 276.640625)scale(0.1 -0.1)">
       <defs>
        <path d="M 7.703125 71.40625 
L 7.703125 0 
L 16.703125 0 
L 16.703125 57.296875 
L 16.90625 57.296875 
L 54.203125 0 
L 64.59375 0 
L 64.59375 71.40625 
L 55.59375 71.40625 
L 55.59375 13.5 
L 55.40625 13.5 
L 17.796875 71.40625 
z
" id="HelveticaNeue-78"/>
        <path d="M 12.59375 25.796875 
Q 12.59375 30.5 13.84375 34.140625 
Q 15.09375 37.796875 17.296875 40.296875 
Q 19.5 42.796875 22.453125 44.09375 
Q 25.40625 45.40625 28.703125 45.40625 
Q 32 45.40625 34.953125 44.09375 
Q 37.90625 42.796875 40.09375 40.296875 
Q 42.296875 37.796875 43.546875 34.140625 
Q 44.796875 30.5 44.796875 25.796875 
Q 44.796875 21.09375 43.546875 17.4375 
Q 42.296875 13.796875 40.09375 11.34375 
Q 37.90625 8.90625 34.953125 7.59375 
Q 32 6.296875 28.703125 6.296875 
Q 25.40625 6.296875 22.453125 7.59375 
Q 19.5 8.90625 17.296875 11.34375 
Q 15.09375 13.796875 13.84375 17.4375 
Q 12.59375 21.09375 12.59375 25.796875 
z
M 3.59375 25.796875 
Q 3.59375 20.09375 5.1875 15.1875 
Q 6.796875 10.296875 10 6.640625 
Q 13.203125 3 17.890625 0.953125 
Q 22.59375 -1.09375 28.703125 -1.09375 
Q 34.90625 -1.09375 39.546875 0.953125 
Q 44.203125 3 47.390625 6.640625 
Q 50.59375 10.296875 52.1875 15.1875 
Q 53.796875 20.09375 53.796875 25.796875 
Q 53.796875 31.5 52.1875 36.453125 
Q 50.59375 41.40625 47.390625 45.046875 
Q 44.203125 48.703125 39.546875 50.796875 
Q 34.90625 52.90625 28.703125 52.90625 
Q 22.59375 52.90625 17.890625 50.796875 
Q 13.203125 48.703125 10 45.046875 
Q 6.796875 41.40625 5.1875 36.453125 
Q 3.59375 31.5 3.59375 25.796875 
z
" id="HelveticaNeue-111"/>
        <path d="M 29.703125 0 
L 48.59375 51.703125 
L 39.703125 51.703125 
L 25.59375 8.59375 
L 25.40625 8.59375 
L 10.90625 51.703125 
L 1.40625 51.703125 
L 20.59375 0 
z
" id="HelveticaNeue-118"/>
       </defs>
       <use xlink:href="#HelveticaNeue-78"/>
       <use x="72.199982" xlink:href="#HelveticaNeue-111"/>
       <use x="129.599976" xlink:href="#HelveticaNeue-118"/>
      </g>
     </g>
    </g>
    <g id="xtick_9">
     <g id="line2d_9">
      <g>
       <use style="fill:#555555;stroke:#555555;stroke-width:0.8;" x="285.126202" xlink:href="#m98456568e4" y="262.5"/>
      </g>
     </g>
     <g id="text_8">
      <!-- Dec -->
      <g style="fill:#555555;" transform="translate(276.235577 276.640625)scale(0.1 -0.1)">
       <defs>
        <path d="M 17.296875 8 
L 17.296875 63.40625 
L 33.296875 63.40625 
Q 39.90625 63.40625 44.40625 61.546875 
Q 48.90625 59.703125 51.75 56.140625 
Q 54.59375 52.59375 55.84375 47.546875 
Q 57.09375 42.5 57.09375 36.09375 
Q 57.09375 29.5 55.75 24.84375 
Q 54.40625 20.203125 52.296875 17.09375 
Q 50.203125 14 47.546875 12.203125 
Q 44.90625 10.40625 42.203125 9.453125 
Q 39.5 8.5 37.09375 8.25 
Q 34.703125 8 33.09375 8 
z
M 7.796875 71.40625 
L 7.796875 0 
L 32.296875 0 
Q 41.203125 0 47.703125 2.5 
Q 54.203125 5 58.390625 9.75 
Q 62.59375 14.5 64.59375 21.453125 
Q 66.59375 28.40625 66.59375 37.40625 
Q 66.59375 54.59375 57.6875 63 
Q 48.796875 71.40625 32.296875 71.40625 
z
" id="HelveticaNeue-68"/>
       </defs>
       <use xlink:href="#HelveticaNeue-68"/>
       <use x="70.399994" xlink:href="#HelveticaNeue-101"/>
       <use x="124.099991" xlink:href="#HelveticaNeue-99"/>
      </g>
     </g>
    </g>
    <g id="xtick_10">
     <g id="line2d_10">
      <g>
       <use style="fill:#555555;stroke:#555555;stroke-width:0.8;" x="314.002404" xlink:href="#m98456568e4" y="262.5"/>
      </g>
     </g>
     <g id="text_9">
      <!-- Jan -->
      <g style="fill:#555555;" transform="translate(305.942248 276.640625)scale(0.1 -0.1)">
       <use xlink:href="#HelveticaNeue-74"/>
       <use x="51.899994" xlink:href="#HelveticaNeue-97"/>
       <use x="105.599991" xlink:href="#HelveticaNeue-110"/>
      </g>
      <!-- 2021 -->
      <g style="fill:#555555;" transform="translate(302.883654 287.179688)scale(0.1 -0.1)">
       <defs>
        <path d="M 4.40625 45.796875 
L 12.90625 45.796875 
Q 12.796875 49 13.546875 52.140625 
Q 14.296875 55.296875 16 57.796875 
Q 17.703125 60.296875 20.34375 61.84375 
Q 23 63.40625 26.703125 63.40625 
Q 29.5 63.40625 32 62.5 
Q 34.5 61.59375 36.34375 59.890625 
Q 38.203125 58.203125 39.296875 55.84375 
Q 40.40625 53.5 40.40625 50.59375 
Q 40.40625 46.90625 39.25 44.09375 
Q 38.09375 41.296875 35.84375 38.890625 
Q 33.59375 36.5 30.1875 34.140625 
Q 26.796875 31.796875 22.296875 29 
Q 18.59375 26.796875 15.1875 24.296875 
Q 11.796875 21.796875 9.09375 18.5 
Q 6.40625 15.203125 4.65625 10.75 
Q 2.90625 6.296875 2.40625 0 
L 48.703125 0 
L 48.703125 7.5 
L 12.296875 7.5 
Q 12.90625 10.796875 14.84375 13.34375 
Q 16.796875 15.90625 19.546875 18.09375 
Q 22.296875 20.296875 25.59375 22.25 
Q 28.90625 24.203125 32.203125 26.203125 
Q 35.5 28.296875 38.59375 30.59375 
Q 41.703125 32.90625 44.09375 35.75 
Q 46.5 38.59375 47.953125 42.1875 
Q 49.40625 45.796875 49.40625 50.5 
Q 49.40625 55.5 47.65625 59.296875 
Q 45.90625 63.09375 42.90625 65.640625 
Q 39.90625 68.203125 35.84375 69.546875 
Q 31.796875 70.90625 27.203125 70.90625 
Q 21.59375 70.90625 17.1875 69 
Q 12.796875 67.09375 9.84375 63.75 
Q 6.90625 60.40625 5.5 55.796875 
Q 4.09375 51.203125 4.40625 45.796875 
z
" id="HelveticaNeue-50"/>
        <path d="M 13.203125 34.90625 
Q 13.203125 37.5 13.25 40.640625 
Q 13.296875 43.796875 13.75 46.9375 
Q 14.203125 50.09375 15.046875 53.09375 
Q 15.90625 56.09375 17.546875 58.34375 
Q 19.203125 60.59375 21.703125 62 
Q 24.203125 63.40625 27.796875 63.40625 
Q 31.40625 63.40625 33.90625 62 
Q 36.40625 60.59375 38.046875 58.34375 
Q 39.703125 56.09375 40.546875 53.09375 
Q 41.40625 50.09375 41.84375 46.9375 
Q 42.296875 43.796875 42.34375 40.640625 
Q 42.40625 37.5 42.40625 34.90625 
Q 42.40625 30.90625 42.15625 25.953125 
Q 41.90625 21 40.546875 16.640625 
Q 39.203125 12.296875 36.203125 9.296875 
Q 33.203125 6.296875 27.796875 6.296875 
Q 22.40625 6.296875 19.40625 9.296875 
Q 16.40625 12.296875 15.046875 16.640625 
Q 13.703125 21 13.453125 25.953125 
Q 13.203125 30.90625 13.203125 34.90625 
z
M 4.203125 34.796875 
Q 4.203125 30.90625 4.390625 26.703125 
Q 4.59375 22.5 5.390625 18.5 
Q 6.203125 14.5 7.703125 10.953125 
Q 9.203125 7.40625 11.796875 4.703125 
Q 14.40625 2 18.34375 0.453125 
Q 22.296875 -1.09375 27.796875 -1.09375 
Q 33.40625 -1.09375 37.296875 0.453125 
Q 41.203125 2 43.796875 4.703125 
Q 46.40625 7.40625 47.90625 10.953125 
Q 49.40625 14.5 50.203125 18.5 
Q 51 22.5 51.203125 26.703125 
Q 51.40625 30.90625 51.40625 34.796875 
Q 51.40625 38.703125 51.203125 42.890625 
Q 51 47.09375 50.203125 51.09375 
Q 49.40625 55.09375 47.90625 58.6875 
Q 46.40625 62.296875 43.796875 65 
Q 41.203125 67.703125 37.25 69.296875 
Q 33.296875 70.90625 27.796875 70.90625 
Q 22.296875 70.90625 18.34375 69.296875 
Q 14.40625 67.703125 11.796875 65 
Q 9.203125 62.296875 7.703125 58.6875 
Q 6.203125 55.09375 5.390625 51.09375 
Q 4.59375 47.09375 4.390625 42.890625 
Q 4.203125 38.703125 4.203125 34.796875 
z
" id="HelveticaNeue-48"/>
        <path d="M 35.59375 0 
L 35.59375 70.90625 
L 29.09375 70.90625 
Q 28.40625 66.90625 26.5 64.296875 
Q 24.59375 61.703125 21.84375 60.203125 
Q 19.09375 58.703125 15.6875 58.140625 
Q 12.296875 57.59375 8.703125 57.59375 
L 8.703125 50.796875 
L 27.09375 50.796875 
L 27.09375 0 
z
" id="HelveticaNeue-49"/>
       </defs>
       <use xlink:href="#HelveticaNeue-50"/>
       <use x="55.599991" xlink:href="#HelveticaNeue-48"/>
       <use x="111.199982" xlink:href="#HelveticaNeue-50"/>
       <use x="166.799973" xlink:href="#HelveticaNeue-49"/>
      </g>
     </g>
    </g>
    <g id="xtick_11">
     <g id="line2d_11">
      <g>
       <use style="fill:#555555;stroke:#555555;stroke-width:0.8;" x="342.878606" xlink:href="#m98456568e4" y="262.5"/>
      </g>
     </g>
     <g id="text_10">
      <!-- Feb -->
      <g style="fill:#555555;" transform="translate(334.358293 276.640625)scale(0.1 -0.1)">
       <defs>
        <path d="M 7.796875 71.40625 
L 7.796875 0 
L 17.296875 0 
L 17.296875 32.703125 
L 50.09375 32.703125 
L 50.09375 40.703125 
L 17.296875 40.703125 
L 17.296875 63.40625 
L 54.703125 63.40625 
L 54.703125 71.40625 
z
" id="HelveticaNeue-70"/>
        <path d="M 6.703125 71.40625 
L 6.703125 0 
L 15.203125 0 
L 15.203125 6.90625 
L 15.40625 6.90625 
Q 16.796875 4.59375 18.84375 3.046875 
Q 20.90625 1.5 23.203125 0.59375 
Q 25.5 -0.296875 27.84375 -0.6875 
Q 30.203125 -1.09375 32.09375 -1.09375 
Q 38 -1.09375 42.453125 1 
Q 46.90625 3.09375 49.84375 6.75 
Q 52.796875 10.40625 54.25 15.296875 
Q 55.703125 20.203125 55.703125 25.703125 
Q 55.703125 31.203125 54.203125 36.09375 
Q 52.703125 41 49.75 44.75 
Q 46.796875 48.5 42.34375 50.703125 
Q 37.90625 52.90625 31.90625 52.90625 
Q 26.5 52.90625 22 50.953125 
Q 17.5 49 15.40625 44.703125 
L 15.203125 44.703125 
L 15.203125 71.40625 
z
M 46.703125 26.296875 
Q 46.703125 22.5 45.890625 18.890625 
Q 45.09375 15.296875 43.296875 12.5 
Q 41.5 9.703125 38.546875 8 
Q 35.59375 6.296875 31.203125 6.296875 
Q 26.796875 6.296875 23.6875 7.9375 
Q 20.59375 9.59375 18.640625 12.296875 
Q 16.703125 15 15.796875 18.546875 
Q 14.90625 22.09375 14.90625 25.90625 
Q 14.90625 29.5 15.75 33 
Q 16.59375 36.5 18.5 39.25 
Q 20.40625 42 23.40625 43.703125 
Q 26.40625 45.40625 30.703125 45.40625 
Q 34.796875 45.40625 37.84375 43.796875 
Q 40.90625 42.203125 42.84375 39.5 
Q 44.796875 36.796875 45.75 33.34375 
Q 46.703125 29.90625 46.703125 26.296875 
z
" id="HelveticaNeue-98"/>
       </defs>
       <use xlink:href="#HelveticaNeue-70"/>
       <use x="57.399994" xlink:href="#HelveticaNeue-101"/>
       <use x="111.099991" xlink:href="#HelveticaNeue-98"/>
      </g>
     </g>
    </g>
    <g id="xtick_12">
     <g id="line2d_12">
      <g>
       <use style="fill:#555555;stroke:#555555;stroke-width:0.8;" x="368.960337" xlink:href="#m98456568e4" y="262.5"/>
      </g>
     </g>
     <g id="text_11">
      <!-- Mar -->
      <g style="fill:#555555;" transform="translate(360.255649 276.640625)scale(0.1 -0.1)">
       <defs>
        <path d="M 6.09375 51.703125 
L 6.09375 0 
L 14.59375 0 
L 14.59375 23 
Q 14.59375 28 15.59375 31.84375 
Q 16.59375 35.703125 18.796875 38.390625 
Q 21 41.09375 24.59375 42.5 
Q 28.203125 43.90625 33.296875 43.90625 
L 33.296875 52.90625 
Q 26.40625 53.09375 21.90625 50.09375 
Q 17.40625 47.09375 14.296875 40.796875 
L 14.09375 40.796875 
L 14.09375 51.703125 
z
" id="HelveticaNeue-114"/>
       </defs>
       <use xlink:href="#HelveticaNeue-77"/>
       <use x="87.099991" xlink:href="#HelveticaNeue-97"/>
       <use x="140.799988" xlink:href="#HelveticaNeue-114"/>
      </g>
     </g>
    </g>
    <g id="xtick_13">
     <g id="line2d_13">
      <g>
       <use style="fill:#555555;stroke:#555555;stroke-width:0.8;" x="397.836538" xlink:href="#m98456568e4" y="262.5"/>
      </g>
     </g>
     <g id="text_12">
      <!-- Apr -->
      <g style="fill:#555555;" transform="translate(389.967007 276.640625)scale(0.1 -0.1)">
       <use xlink:href="#HelveticaNeue-65"/>
       <use x="64.799988" xlink:href="#HelveticaNeue-112"/>
       <use x="124.099976" xlink:href="#HelveticaNeue-114"/>
      </g>
     </g>
    </g>
    <g id="xtick_14">
     <g id="line2d_14">
      <g>
       <use style="fill:#555555;stroke:#555555;stroke-width:0.8;" x="425.78125" xlink:href="#m98456568e4" y="262.5"/>
      </g>
     </g>
     <g id="text_13">
      <!-- May -->
      <g style="fill:#555555;" transform="translate(416.241406 276.640625)scale(0.1 -0.1)">
       <use xlink:href="#HelveticaNeue-77"/>
       <use x="87.099991" xlink:href="#HelveticaNeue-97"/>
       <use x="140.799988" xlink:href="#HelveticaNeue-121"/>
      </g>
     </g>
    </g>
    <g id="xtick_15">
     <g id="line2d_15">
      <g>
       <use style="fill:#555555;stroke:#555555;stroke-width:0.8;" x="450" xlink:href="#m98456568e4" y="262.5"/>
      </g>
     </g>
    </g>
    <g id="xtick_16">
     <g id="line2d_16">
      <defs>
       <path d="M 0 0 
L 0 2 
" id="m4d6ad2c97b" style="stroke:#555555;stroke-width:0.6;"/>
      </defs>
      <g>
       <use style="fill:#555555;stroke:#555555;stroke-width:0.6;" x="69.020433" xlink:href="#m4d6ad2c97b" y="262.5"/>
      </g>
     </g>
    </g>
    <g id="xtick_17">
     <g id="line2d_17">
      <g>
       <use style="fill:#555555;stroke:#555555;stroke-width:0.6;" x="75.540865" xlink:href="#m4d6ad2c97b" y="262.5"/>
      </g>
     </g>
    </g>
    <g id="xtick_18">
     <g id="line2d_18">
      <g>
       <use style="fill:#555555;stroke:#555555;stroke-width:0.6;" x="82.061298" xlink:href="#m4d6ad2c97b" y="262.5"/>
      </g>
     </g>
    </g>
    <g id="xtick_19">
     <g id="line2d_19">
      <g>
       <use style="fill:#555555;stroke:#555555;stroke-width:0.6;" x="88.581731" xlink:href="#m4d6ad2c97b" y="262.5"/>
      </g>
     </g>
    </g>
    <g id="xtick_20">
     <g id="line2d_20">
      <g>
       <use style="fill:#555555;stroke:#555555;stroke-width:0.6;" x="95.102163" xlink:href="#m4d6ad2c97b" y="262.5"/>
      </g>
     </g>
    </g>
    <g id="xtick_21">
     <g id="line2d_21">
      <g>
       <use style="fill:#555555;stroke:#555555;stroke-width:0.6;" x="101.622596" xlink:href="#m4d6ad2c97b" y="262.5"/>
      </g>
     </g>
    </g>
    <g id="xtick_22">
     <g id="line2d_22">
      <g>
       <use style="fill:#555555;stroke:#555555;stroke-width:0.6;" x="108.143029" xlink:href="#m4d6ad2c97b" y="262.5"/>
      </g>
     </g>
    </g>
    <g id="xtick_23">
     <g id="line2d_23">
      <g>
       <use style="fill:#555555;stroke:#555555;stroke-width:0.6;" x="121.183894" xlink:href="#m4d6ad2c97b" y="262.5"/>
      </g>
     </g>
    </g>
    <g id="xtick_24">
     <g id="line2d_24">
      <g>
       <use style="fill:#555555;stroke:#555555;stroke-width:0.6;" x="127.704327" xlink:href="#m4d6ad2c97b" y="262.5"/>
      </g>
     </g>
    </g>
    <g id="xtick_25">
     <g id="line2d_25">
      <g>
       <use style="fill:#555555;stroke:#555555;stroke-width:0.6;" x="134.22476" xlink:href="#m4d6ad2c97b" y="262.5"/>
      </g>
     </g>
    </g>
    <g id="xtick_26">
     <g id="line2d_26">
      <g>
       <use style="fill:#555555;stroke:#555555;stroke-width:0.6;" x="140.745192" xlink:href="#m4d6ad2c97b" y="262.5"/>
      </g>
     </g>
    </g>
    <g id="xtick_27">
     <g id="line2d_27">
      <g>
       <use style="fill:#555555;stroke:#555555;stroke-width:0.6;" x="147.265625" xlink:href="#m4d6ad2c97b" y="262.5"/>
      </g>
     </g>
    </g>
    <g id="xtick_28">
     <g id="line2d_28">
      <g>
       <use style="fill:#555555;stroke:#555555;stroke-width:0.6;" x="153.786058" xlink:href="#m4d6ad2c97b" y="262.5"/>
      </g>
     </g>
    </g>
    <g id="xtick_29">
     <g id="line2d_29">
      <g>
       <use style="fill:#555555;stroke:#555555;stroke-width:0.6;" x="160.30649" xlink:href="#m4d6ad2c97b" y="262.5"/>
      </g>
     </g>
    </g>
    <g id="xtick_30">
     <g id="line2d_30">
      <g>
       <use style="fill:#555555;stroke:#555555;stroke-width:0.6;" x="166.826923" xlink:href="#m4d6ad2c97b" y="262.5"/>
      </g>
     </g>
    </g>
    <g id="xtick_31">
     <g id="line2d_31">
      <g>
       <use style="fill:#555555;stroke:#555555;stroke-width:0.6;" x="173.347356" xlink:href="#m4d6ad2c97b" y="262.5"/>
      </g>
     </g>
    </g>
    <g id="xtick_32">
     <g id="line2d_32">
      <g>
       <use style="fill:#555555;stroke:#555555;stroke-width:0.6;" x="179.867788" xlink:href="#m4d6ad2c97b" y="262.5"/>
      </g>
     </g>
    </g>
    <g id="xtick_33">
     <g id="line2d_33">
      <g>
       <use style="fill:#555555;stroke:#555555;stroke-width:0.6;" x="186.388221" xlink:href="#m4d6ad2c97b" y="262.5"/>
      </g>
     </g>
    </g>
    <g id="xtick_34">
     <g id="line2d_34">
      <g>
       <use style="fill:#555555;stroke:#555555;stroke-width:0.6;" x="192.908654" xlink:href="#m4d6ad2c97b" y="262.5"/>
      </g>
     </g>
    </g>
    <g id="xtick_35">
     <g id="line2d_35">
      <g>
       <use style="fill:#555555;stroke:#555555;stroke-width:0.6;" x="199.429087" xlink:href="#m4d6ad2c97b" y="262.5"/>
      </g>
     </g>
    </g>
    <g id="xtick_36">
     <g id="line2d_36">
      <g>
       <use style="fill:#555555;stroke:#555555;stroke-width:0.6;" x="205.949519" xlink:href="#m4d6ad2c97b" y="262.5"/>
      </g>
     </g>
    </g>
    <g id="xtick_37">
     <g id="line2d_37">
      <g>
       <use style="fill:#555555;stroke:#555555;stroke-width:0.6;" x="212.469952" xlink:href="#m4d6ad2c97b" y="262.5"/>
      </g>
     </g>
    </g>
    <g id="xtick_38">
     <g id="line2d_38">
      <g>
       <use style="fill:#555555;stroke:#555555;stroke-width:0.6;" x="218.990385" xlink:href="#m4d6ad2c97b" y="262.5"/>
      </g>
     </g>
    </g>
    <g id="xtick_39">
     <g id="line2d_39">
      <g>
       <use style="fill:#555555;stroke:#555555;stroke-width:0.6;" x="225.510817" xlink:href="#m4d6ad2c97b" y="262.5"/>
      </g>
     </g>
    </g>
    <g id="xtick_40">
     <g id="line2d_40">
      <g>
       <use style="fill:#555555;stroke:#555555;stroke-width:0.6;" x="232.03125" xlink:href="#m4d6ad2c97b" y="262.5"/>
      </g>
     </g>
    </g>
    <g id="xtick_41">
     <g id="line2d_41">
      <g>
       <use style="fill:#555555;stroke:#555555;stroke-width:0.6;" x="238.551683" xlink:href="#m4d6ad2c97b" y="262.5"/>
      </g>
     </g>
    </g>
    <g id="xtick_42">
     <g id="line2d_42">
      <g>
       <use style="fill:#555555;stroke:#555555;stroke-width:0.6;" x="245.072115" xlink:href="#m4d6ad2c97b" y="262.5"/>
      </g>
     </g>
    </g>
    <g id="xtick_43">
     <g id="line2d_43">
      <g>
       <use style="fill:#555555;stroke:#555555;stroke-width:0.6;" x="251.592548" xlink:href="#m4d6ad2c97b" y="262.5"/>
      </g>
     </g>
    </g>
    <g id="xtick_44">
     <g id="line2d_44">
      <g>
       <use style="fill:#555555;stroke:#555555;stroke-width:0.6;" x="258.112981" xlink:href="#m4d6ad2c97b" y="262.5"/>
      </g>
     </g>
    </g>
    <g id="xtick_45">
     <g id="line2d_45">
      <g>
       <use style="fill:#555555;stroke:#555555;stroke-width:0.6;" x="264.633413" xlink:href="#m4d6ad2c97b" y="262.5"/>
      </g>
     </g>
    </g>
    <g id="xtick_46">
     <g id="line2d_46">
      <g>
       <use style="fill:#555555;stroke:#555555;stroke-width:0.6;" x="271.153846" xlink:href="#m4d6ad2c97b" y="262.5"/>
      </g>
     </g>
    </g>
    <g id="xtick_47">
     <g id="line2d_47">
      <g>
       <use style="fill:#555555;stroke:#555555;stroke-width:0.6;" x="277.674279" xlink:href="#m4d6ad2c97b" y="262.5"/>
      </g>
     </g>
    </g>
    <g id="xtick_48">
     <g id="line2d_48">
      <g>
       <use style="fill:#555555;stroke:#555555;stroke-width:0.6;" x="284.194712" xlink:href="#m4d6ad2c97b" y="262.5"/>
      </g>
     </g>
    </g>
    <g id="xtick_49">
     <g id="line2d_49">
      <g>
       <use style="fill:#555555;stroke:#555555;stroke-width:0.6;" x="290.715144" xlink:href="#m4d6ad2c97b" y="262.5"/>
      </g>
     </g>
    </g>
    <g id="xtick_50">
     <g id="line2d_50">
      <g>
       <use style="fill:#555555;stroke:#555555;stroke-width:0.6;" x="297.235577" xlink:href="#m4d6ad2c97b" y="262.5"/>
      </g>
     </g>
    </g>
    <g id="xtick_51">
     <g id="line2d_51">
      <g>
       <use style="fill:#555555;stroke:#555555;stroke-width:0.6;" x="303.75601" xlink:href="#m4d6ad2c97b" y="262.5"/>
      </g>
     </g>
    </g>
    <g id="xtick_52">
     <g id="line2d_52">
      <g>
       <use style="fill:#555555;stroke:#555555;stroke-width:0.6;" x="310.276442" xlink:href="#m4d6ad2c97b" y="262.5"/>
      </g>
     </g>
    </g>
    <g id="xtick_53">
     <g id="line2d_53">
      <g>
       <use style="fill:#555555;stroke:#555555;stroke-width:0.6;" x="316.796875" xlink:href="#m4d6ad2c97b" y="262.5"/>
      </g>
     </g>
    </g>
    <g id="xtick_54">
     <g id="line2d_54">
      <g>
       <use style="fill:#555555;stroke:#555555;stroke-width:0.6;" x="323.317308" xlink:href="#m4d6ad2c97b" y="262.5"/>
      </g>
     </g>
    </g>
    <g id="xtick_55">
     <g id="line2d_55">
      <g>
       <use style="fill:#555555;stroke:#555555;stroke-width:0.6;" x="329.83774" xlink:href="#m4d6ad2c97b" y="262.5"/>
      </g>
     </g>
    </g>
    <g id="xtick_56">
     <g id="line2d_56">
      <g>
       <use style="fill:#555555;stroke:#555555;stroke-width:0.6;" x="336.358173" xlink:href="#m4d6ad2c97b" y="262.5"/>
      </g>
     </g>
    </g>
    <g id="xtick_57">
     <g id="line2d_57">
      <g>
       <use style="fill:#555555;stroke:#555555;stroke-width:0.6;" x="349.399038" xlink:href="#m4d6ad2c97b" y="262.5"/>
      </g>
     </g>
    </g>
    <g id="xtick_58">
     <g id="line2d_58">
      <g>
       <use style="fill:#555555;stroke:#555555;stroke-width:0.6;" x="355.919471" xlink:href="#m4d6ad2c97b" y="262.5"/>
      </g>
     </g>
    </g>
    <g id="xtick_59">
     <g id="line2d_59">
      <g>
       <use style="fill:#555555;stroke:#555555;stroke-width:0.6;" x="362.439904" xlink:href="#m4d6ad2c97b" y="262.5"/>
      </g>
     </g>
    </g>
    <g id="xtick_60">
     <g id="line2d_60">
      <g>
       <use style="fill:#555555;stroke:#555555;stroke-width:0.6;" x="375.480769" xlink:href="#m4d6ad2c97b" y="262.5"/>
      </g>
     </g>
    </g>
    <g id="xtick_61">
     <g id="line2d_61">
      <g>
       <use style="fill:#555555;stroke:#555555;stroke-width:0.6;" x="382.001202" xlink:href="#m4d6ad2c97b" y="262.5"/>
      </g>
     </g>
    </g>
    <g id="xtick_62">
     <g id="line2d_62">
      <g>
       <use style="fill:#555555;stroke:#555555;stroke-width:0.6;" x="388.521635" xlink:href="#m4d6ad2c97b" y="262.5"/>
      </g>
     </g>
    </g>
    <g id="xtick_63">
     <g id="line2d_63">
      <g>
       <use style="fill:#555555;stroke:#555555;stroke-width:0.6;" x="395.042067" xlink:href="#m4d6ad2c97b" y="262.5"/>
      </g>
     </g>
    </g>
    <g id="xtick_64">
     <g id="line2d_64">
      <g>
       <use style="fill:#555555;stroke:#555555;stroke-width:0.6;" x="401.5625" xlink:href="#m4d6ad2c97b" y="262.5"/>
      </g>
     </g>
    </g>
    <g id="xtick_65">
     <g id="line2d_65">
      <g>
       <use style="fill:#555555;stroke:#555555;stroke-width:0.6;" x="408.082933" xlink:href="#m4d6ad2c97b" y="262.5"/>
      </g>
     </g>
    </g>
    <g id="xtick_66">
     <g id="line2d_66">
      <g>
       <use style="fill:#555555;stroke:#555555;stroke-width:0.6;" x="414.603365" xlink:href="#m4d6ad2c97b" y="262.5"/>
      </g>
     </g>
    </g>
    <g id="xtick_67">
     <g id="line2d_67">
      <g>
       <use style="fill:#555555;stroke:#555555;stroke-width:0.6;" x="421.123798" xlink:href="#m4d6ad2c97b" y="262.5"/>
      </g>
     </g>
    </g>
    <g id="xtick_68">
     <g id="line2d_68">
      <g>
       <use style="fill:#555555;stroke:#555555;stroke-width:0.6;" x="427.644231" xlink:href="#m4d6ad2c97b" y="262.5"/>
      </g>
     </g>
    </g>
    <g id="xtick_69">
     <g id="line2d_69">
      <g>
       <use style="fill:#555555;stroke:#555555;stroke-width:0.6;" x="434.164663" xlink:href="#m4d6ad2c97b" y="262.5"/>
      </g>
     </g>
    </g>
    <g id="xtick_70">
     <g id="line2d_70">
      <g>
       <use style="fill:#555555;stroke:#555555;stroke-width:0.6;" x="440.685096" xlink:href="#m4d6ad2c97b" y="262.5"/>
      </g>
     </g>
    </g>
    <g id="xtick_71">
     <g id="line2d_71">
      <g>
       <use style="fill:#555555;stroke:#555555;stroke-width:0.6;" x="447.205529" xlink:href="#m4d6ad2c97b" y="262.5"/>
      </g>
     </g>
    </g>
    <g id="text_14">
     <!-- fecha -->
     <g style="fill:#555555;" transform="translate(243.935156 300.290625)scale(0.1 -0.1)">
      <defs>
       <path d="M 9.90625 44.203125 
L 9.90625 0 
L 18.40625 0 
L 18.40625 44.203125 
L 28.40625 44.203125 
L 28.40625 51.703125 
L 18.40625 51.703125 
L 18.40625 58.90625 
Q 18.40625 62.296875 20.09375 63.5 
Q 21.796875 64.703125 24.90625 64.703125 
Q 26 64.703125 27.296875 64.546875 
Q 28.59375 64.40625 29.703125 64 
L 29.703125 71.40625 
Q 28.5 71.796875 26.953125 72 
Q 25.40625 72.203125 24.203125 72.203125 
Q 17.203125 72.203125 13.546875 68.953125 
Q 9.90625 65.703125 9.90625 59.40625 
L 9.90625 51.703125 
L 1.203125 51.703125 
L 1.203125 44.203125 
z
" id="HelveticaNeue-102"/>
       <path d="M 6.40625 71.40625 
L 6.40625 0 
L 14.90625 0 
L 14.90625 29.203125 
Q 14.90625 32.703125 15.84375 35.640625 
Q 16.796875 38.59375 18.6875 40.796875 
Q 20.59375 43 23.4375 44.203125 
Q 26.296875 45.40625 30.203125 45.40625 
Q 35.09375 45.40625 37.890625 42.59375 
Q 40.703125 39.796875 40.703125 35 
L 40.703125 0 
L 49.203125 0 
L 49.203125 34 
Q 49.203125 38.203125 48.34375 41.640625 
Q 47.5 45.09375 45.390625 47.59375 
Q 43.296875 50.09375 39.890625 51.5 
Q 36.5 52.90625 31.40625 52.90625 
Q 29.09375 52.90625 26.640625 52.40625 
Q 24.203125 51.90625 21.953125 50.84375 
Q 19.703125 49.796875 17.890625 48.140625 
Q 16.09375 46.5 15.09375 44.09375 
L 14.90625 44.09375 
L 14.90625 71.40625 
z
" id="HelveticaNeue-104"/>
      </defs>
      <use xlink:href="#HelveticaNeue-102"/>
      <use x="29.599991" xlink:href="#HelveticaNeue-101"/>
      <use x="83.299988" xlink:href="#HelveticaNeue-99"/>
      <use x="136.999985" xlink:href="#HelveticaNeue-104"/>
      <use x="192.599976" xlink:href="#HelveticaNeue-97"/>
     </g>
    </g>
   </g>
   <g id="matplotlib.axis_2">
    <g id="ytick_1">
     <g id="line2d_72">
      <defs>
       <path d="M 0 0 
L -3.5 0 
" id="m2c25eb8b69" style="stroke:#555555;stroke-width:0.8;"/>
      </defs>
      <g>
       <use style="fill:#555555;stroke:#555555;stroke-width:0.8;" x="62.5" xlink:href="#m2c25eb8b69" y="251.795455"/>
      </g>
     </g>
     <g id="text_15">
      <!-- 0 -->
      <g style="fill:#555555;" transform="translate(49.940625 255.365767)scale(0.1 -0.1)">
       <use xlink:href="#HelveticaNeue-48"/>
      </g>
     </g>
    </g>
    <g id="ytick_2">
     <g id="line2d_73">
      <g>
       <use style="fill:#555555;stroke:#555555;stroke-width:0.8;" x="62.5" xlink:href="#m2c25eb8b69" y="213.564935"/>
      </g>
     </g>
     <g id="text_16">
      <!-- 20 -->
      <g style="fill:#555555;" transform="translate(44.38125 217.135248)scale(0.1 -0.1)">
       <use xlink:href="#HelveticaNeue-50"/>
       <use x="55.599991" xlink:href="#HelveticaNeue-48"/>
      </g>
     </g>
    </g>
    <g id="ytick_3">
     <g id="line2d_74">
      <g>
       <use style="fill:#555555;stroke:#555555;stroke-width:0.8;" x="62.5" xlink:href="#m2c25eb8b69" y="175.334416"/>
      </g>
     </g>
     <g id="text_17">
      <!-- 40 -->
      <g style="fill:#555555;" transform="translate(44.38125 178.904728)scale(0.1 -0.1)">
       <defs>
        <path d="M 33.90625 24.09375 
L 10.09375 24.09375 
L 33.703125 58.796875 
L 33.90625 58.796875 
z
M 41.90625 24.09375 
L 41.90625 70.90625 
L 35.09375 70.90625 
L 2.796875 24.796875 
L 2.796875 16.59375 
L 33.90625 16.59375 
L 33.90625 0 
L 41.90625 0 
L 41.90625 16.59375 
L 51.5 16.59375 
L 51.5 24.09375 
z
" id="HelveticaNeue-52"/>
       </defs>
       <use xlink:href="#HelveticaNeue-52"/>
       <use x="55.599991" xlink:href="#HelveticaNeue-48"/>
      </g>
     </g>
    </g>
    <g id="ytick_4">
     <g id="line2d_75">
      <g>
       <use style="fill:#555555;stroke:#555555;stroke-width:0.8;" x="62.5" xlink:href="#m2c25eb8b69" y="137.103896"/>
      </g>
     </g>
     <g id="text_18">
      <!-- 60 -->
      <g style="fill:#555555;" transform="translate(44.38125 140.674209)scale(0.1 -0.1)">
       <defs>
        <path d="M 41.40625 52.796875 
L 49.90625 52.796875 
Q 49.09375 61.59375 43.890625 66.25 
Q 38.703125 70.90625 29.90625 70.90625 
Q 22.296875 70.90625 17.296875 67.703125 
Q 12.296875 64.5 9.296875 59.203125 
Q 6.296875 53.90625 5.046875 47.046875 
Q 3.796875 40.203125 3.796875 32.90625 
Q 3.796875 27.296875 4.640625 21.296875 
Q 5.5 15.296875 8.09375 10.296875 
Q 10.703125 5.296875 15.5 2.09375 
Q 20.296875 -1.09375 28.203125 -1.09375 
Q 34.90625 -1.09375 39.453125 1.15625 
Q 44 3.40625 46.75 6.84375 
Q 49.5 10.296875 50.703125 14.5 
Q 51.90625 18.703125 51.90625 22.59375 
Q 51.90625 27.5 50.40625 31.703125 
Q 48.90625 35.90625 46.15625 39 
Q 43.40625 42.09375 39.34375 43.84375 
Q 35.296875 45.59375 30.203125 45.59375 
Q 24.40625 45.59375 19.953125 43.390625 
Q 15.5 41.203125 12.5 36.296875 
L 12.296875 36.5 
Q 12.40625 40.59375 13.09375 45.296875 
Q 13.796875 50 15.640625 54.046875 
Q 17.5 58.09375 20.796875 60.75 
Q 24.09375 63.40625 29.5 63.40625 
Q 34.59375 63.40625 37.6875 60.5 
Q 40.796875 57.59375 41.40625 52.796875 
z
M 28.59375 38.09375 
Q 32.203125 38.09375 34.890625 36.796875 
Q 37.59375 35.5 39.390625 33.34375 
Q 41.203125 31.203125 42.046875 28.25 
Q 42.90625 25.296875 42.90625 22 
Q 42.90625 18.90625 41.953125 16.046875 
Q 41 13.203125 39.203125 11 
Q 37.40625 8.796875 34.75 7.546875 
Q 32.09375 6.296875 28.59375 6.296875 
Q 25.09375 6.296875 22.34375 7.546875 
Q 19.59375 8.796875 17.75 10.890625 
Q 15.90625 13 14.90625 15.890625 
Q 13.90625 18.796875 13.90625 22.09375 
Q 13.90625 25.40625 14.84375 28.34375 
Q 15.796875 31.296875 17.6875 33.4375 
Q 19.59375 35.59375 22.296875 36.84375 
Q 25 38.09375 28.59375 38.09375 
z
" id="HelveticaNeue-54"/>
       </defs>
       <use xlink:href="#HelveticaNeue-54"/>
       <use x="55.599991" xlink:href="#HelveticaNeue-48"/>
      </g>
     </g>
    </g>
    <g id="ytick_5">
     <g id="line2d_76">
      <g>
       <use style="fill:#555555;stroke:#555555;stroke-width:0.8;" x="62.5" xlink:href="#m2c25eb8b69" y="98.873377"/>
      </g>
     </g>
     <g id="text_19">
      <!-- 80 -->
      <g style="fill:#555555;" transform="translate(44.38125 102.443689)scale(0.1 -0.1)">
       <defs>
        <path d="M 15.5 52.5 
Q 15.5 55.203125 16.5 57.203125 
Q 17.5 59.203125 19.140625 60.59375 
Q 20.796875 62 23.09375 62.703125 
Q 25.40625 63.40625 27.90625 63.40625 
Q 33.09375 63.40625 36.4375 60.65625 
Q 39.796875 57.90625 39.796875 52.5 
Q 39.796875 47.09375 36.5 44.09375 
Q 33.203125 41.09375 28.09375 41.09375 
Q 25.5 41.09375 23.203125 41.796875 
Q 20.90625 42.5 19.203125 43.890625 
Q 17.5 45.296875 16.5 47.4375 
Q 15.5 49.59375 15.5 52.5 
z
M 6.5 52.796875 
Q 6.5 48 9.203125 43.953125 
Q 11.90625 39.90625 16.40625 38.09375 
Q 10.40625 36 7.203125 31.34375 
Q 4 26.703125 4 20.40625 
Q 4 15 5.84375 10.953125 
Q 7.703125 6.90625 10.953125 4.203125 
Q 14.203125 1.5 18.59375 0.203125 
Q 23 -1.09375 28.09375 -1.09375 
Q 33 -1.09375 37.296875 0.296875 
Q 41.59375 1.703125 44.75 4.453125 
Q 47.90625 7.203125 49.75 11.203125 
Q 51.59375 15.203125 51.59375 20.40625 
Q 51.59375 27 48.5 31.546875 
Q 45.40625 36.09375 39 38.09375 
Q 43.5 40.09375 46.140625 44.046875 
Q 48.796875 48 48.796875 52.796875 
Q 48.796875 56.203125 47.59375 59.453125 
Q 46.40625 62.703125 43.84375 65.25 
Q 41.296875 67.796875 37.1875 69.34375 
Q 33.09375 70.90625 27.296875 70.90625 
Q 23.203125 70.90625 19.453125 69.703125 
Q 15.703125 68.5 12.796875 66.203125 
Q 9.90625 63.90625 8.203125 60.546875 
Q 6.5 57.203125 6.5 52.796875 
z
M 13 20 
Q 13 23.09375 14.140625 25.59375 
Q 15.296875 28.09375 17.34375 29.890625 
Q 19.40625 31.703125 22.15625 32.640625 
Q 24.90625 33.59375 28 33.59375 
Q 31 33.59375 33.640625 32.546875 
Q 36.296875 31.5 38.296875 29.703125 
Q 40.296875 27.90625 41.4375 25.453125 
Q 42.59375 23 42.59375 20.09375 
Q 42.59375 17.09375 41.546875 14.59375 
Q 40.5 12.09375 38.546875 10.25 
Q 36.59375 8.40625 33.9375 7.34375 
Q 31.296875 6.296875 28.09375 6.296875 
Q 21.5 6.296875 17.25 9.9375 
Q 13 13.59375 13 20 
z
" id="HelveticaNeue-56"/>
       </defs>
       <use xlink:href="#HelveticaNeue-56"/>
       <use x="55.599991" xlink:href="#HelveticaNeue-48"/>
      </g>
     </g>
    </g>
    <g id="ytick_6">
     <g id="line2d_77">
      <g>
       <use style="fill:#555555;stroke:#555555;stroke-width:0.8;" x="62.5" xlink:href="#m2c25eb8b69" y="60.642857"/>
      </g>
     </g>
     <g id="text_20">
      <!-- 100 -->
      <g style="fill:#555555;" transform="translate(38.821875 64.21317)scale(0.1 -0.1)">
       <use xlink:href="#HelveticaNeue-49"/>
       <use x="55.599991" xlink:href="#HelveticaNeue-48"/>
       <use x="111.199982" xlink:href="#HelveticaNeue-48"/>
      </g>
     </g>
    </g>
   </g>
   <g id="line2d_78">
    <path clip-path="url(#p214efea9cb)" d="M 63.43149 249.883929 
L 64.362981 251.795455 
L 65.294471 249.883929 
L 66.225962 251.795455 
L 67.157452 249.883929 
L 68.088942 251.795455 
L 69.020433 251.795455 
L 69.951923 247.972403 
L 70.883413 251.795455 
L 71.814904 249.883929 
L 72.746394 251.795455 
L 73.677885 249.883929 
L 74.609375 242.237825 
L 75.540865 251.795455 
L 76.472356 249.883929 
L 77.403846 251.795455 
L 78.335337 249.883929 
L 79.266827 251.795455 
L 80.198317 246.060877 
L 81.129808 249.883929 
L 82.061298 249.883929 
L 82.992788 251.795455 
L 83.924279 251.795455 
L 84.855769 249.883929 
L 85.78726 251.795455 
L 86.71875 249.883929 
L 87.65024 242.237825 
L 88.581731 251.795455 
L 89.513221 251.795455 
L 90.444712 249.883929 
L 91.376202 240.326299 
L 92.307692 246.060877 
L 93.239183 213.564935 
L 94.170673 213.564935 
L 95.102163 247.972403 
L 96.033654 249.883929 
L 96.965144 249.883929 
L 97.896635 247.972403 
L 98.828125 244.149351 
L 99.759615 251.795455 
L 100.691106 244.149351 
L 101.622596 247.972403 
L 102.554087 246.060877 
L 103.485577 249.883929 
L 105.348558 238.414773 
L 106.280048 246.060877 
L 107.211538 244.149351 
L 108.143029 171.511364 
L 109.074519 236.503247 
L 110.00601 246.060877 
L 110.9375 244.149351 
L 111.86899 246.060877 
L 112.800481 246.060877 
L 113.731971 240.326299 
L 114.663462 249.883929 
L 115.594952 236.503247 
L 116.526442 236.503247 
L 117.457933 244.149351 
L 118.389423 236.503247 
L 119.320913 244.149351 
L 120.252404 240.326299 
L 121.183894 247.972403 
L 122.115385 240.326299 
L 123.046875 236.503247 
L 123.978365 249.883929 
L 124.909856 236.503247 
L 125.841346 246.060877 
L 126.772837 244.149351 
L 127.704327 244.149351 
L 128.635817 240.326299 
L 129.567308 228.857143 
L 130.498798 146.661526 
L 131.430288 200.184253 
L 132.361779 211.653409 
L 133.293269 177.245942 
L 134.22476 232.680195 
L 135.15625 230.768669 
L 136.08774 184.892045 
L 137.019231 219.299513 
L 137.950721 215.476461 
L 138.882212 204.007305 
L 139.813702 205.918831 
L 140.745192 228.857143 
L 141.676683 194.449675 
L 142.608173 213.564935 
L 143.539663 45.350649 
L 144.471154 234.591721 
L 145.402644 140.926948 
L 146.334135 234.591721 
L 147.265625 217.387987 
L 148.197115 213.564935 
L 149.128606 131.369318 
L 150.060096 194.449675 
L 150.991587 215.476461 
L 151.923077 184.892045 
L 152.854567 139.015422 
L 153.786058 202.095779 
L 155.649038 190.626623 
L 156.580529 119.900162 
L 157.512019 186.803571 
L 158.44351 160.042208 
L 159.375 200.184253 
L 160.30649 204.007305 
L 161.237981 142.838474 
L 162.169471 152.396104 
L 163.100962 156.219156 
L 164.032452 131.369318 
L 164.963942 192.538149 
L 165.895433 205.918831 
L 166.826923 167.688312 
L 167.758413 175.334416 
L 168.689904 177.245942 
L 169.621394 173.42289 
L 170.552885 175.334416 
L 171.484375 139.015422 
L 172.415865 125.63474 
L 173.347356 192.538149 
L 174.278846 123.723214 
L 175.210337 77.846591 
L 176.141827 198.272727 
L 177.073317 194.449675 
L 178.004808 171.511364 
L 178.936298 163.86526 
L 179.867788 160.042208 
L 180.799279 104.607955 
L 181.730769 171.511364 
L 182.66226 190.626623 
L 183.59375 150.484578 
L 184.52524 148.573052 
L 185.456731 213.564935 
L 187.319712 133.280844 
L 188.251202 150.484578 
L 189.182692 148.573052 
L 190.114183 175.334416 
L 191.045673 196.361201 
L 191.977163 146.661526 
L 192.908654 169.599838 
L 193.840144 96.961851 
L 194.771635 131.369318 
L 195.703125 225.034091 
L 196.634615 158.130682 
L 197.566106 163.86526 
L 198.497596 211.653409 
L 199.429087 154.30763 
L 200.360577 205.918831 
L 201.292067 202.095779 
L 203.155048 209.741883 
L 204.086538 215.476461 
L 205.018029 230.768669 
L 205.949519 194.449675 
L 206.88101 204.007305 
L 207.8125 215.476461 
L 208.74399 190.626623 
L 209.675481 196.361201 
L 210.606971 194.449675 
L 211.538462 226.945617 
L 212.469952 207.830357 
L 213.401442 194.449675 
L 214.332933 211.653409 
L 215.264423 156.219156 
L 216.195913 194.449675 
L 217.127404 207.830357 
L 218.058894 232.680195 
L 218.990385 228.857143 
L 219.921875 211.653409 
L 220.853365 190.626623 
L 221.784856 182.980519 
L 222.716346 215.476461 
L 223.647837 221.211039 
L 224.579327 223.122565 
L 225.510817 232.680195 
L 226.442308 205.918831 
L 227.373798 228.857143 
L 228.305288 202.095779 
L 229.236779 181.068994 
L 230.168269 196.361201 
L 231.09976 209.741883 
L 232.03125 215.476461 
L 232.96274 219.299513 
L 233.894231 217.387987 
L 234.825721 196.361201 
L 235.757212 221.211039 
L 236.688702 160.042208 
L 237.620192 221.211039 
L 238.551683 223.122565 
L 239.483173 238.414773 
L 240.414663 223.122565 
L 241.346154 215.476461 
L 242.277644 205.918831 
L 243.209135 209.741883 
L 244.140625 192.538149 
L 245.072115 211.653409 
L 246.003606 217.387987 
L 246.935096 211.653409 
L 247.866587 188.715097 
L 248.798077 205.918831 
L 249.729567 205.918831 
L 250.661058 207.830357 
L 251.592548 205.918831 
L 252.524038 198.272727 
L 253.455529 200.184253 
L 254.387019 184.892045 
L 255.31851 204.007305 
L 256.25 215.476461 
L 258.112981 207.830357 
L 259.044471 202.095779 
L 259.975962 179.157468 
L 260.907452 221.211039 
L 261.838942 211.653409 
L 262.770433 204.007305 
L 263.701923 207.830357 
L 264.633413 207.830357 
L 265.564904 196.361201 
L 266.496394 207.830357 
L 267.427885 221.211039 
L 268.359375 215.476461 
L 269.290865 219.299513 
L 270.222356 225.034091 
L 271.153846 221.211039 
L 272.085337 186.803571 
L 273.016827 211.653409 
L 273.948317 196.361201 
L 274.879808 209.741883 
L 275.811298 181.068994 
L 276.742788 209.741883 
L 277.674279 182.980519 
L 278.605769 192.538149 
L 279.53726 154.30763 
L 280.46875 158.130682 
L 281.40024 140.926948 
L 282.331731 207.830357 
L 283.263221 211.653409 
L 284.194712 196.361201 
L 285.126202 184.892045 
L 286.057692 192.538149 
L 286.989183 198.272727 
L 287.920673 173.42289 
L 288.852163 181.068994 
L 289.783654 217.387987 
L 290.715144 175.334416 
L 291.646635 202.095779 
L 292.578125 171.511364 
L 293.509615 167.688312 
L 294.441106 167.688312 
L 295.372596 198.272727 
L 296.304087 182.980519 
L 297.235577 188.715097 
L 298.167067 131.369318 
L 299.098558 96.961851 
L 300.030048 190.626623 
L 300.961538 123.723214 
L 301.893029 194.449675 
L 302.824519 160.042208 
L 303.75601 200.184253 
L 304.6875 123.723214 
L 305.61899 167.688312 
L 306.550481 161.953734 
L 307.481971 211.653409 
L 308.413462 177.245942 
L 309.344952 200.184253 
L 310.276442 144.75 
L 311.207933 49.173701 
L 312.139423 108.431006 
L 313.070913 148.573052 
L 314.002404 207.830357 
L 314.933894 135.19237 
L 315.865385 150.484578 
L 316.796875 148.573052 
L 317.728365 123.723214 
L 318.659856 104.607955 
L 319.591346 112.254058 
L 320.522837 108.431006 
L 321.454327 137.103896 
L 322.385817 181.068994 
L 323.317308 182.980519 
L 324.248798 47.262175 
L 325.180288 114.165584 
L 326.111779 142.838474 
L 327.043269 96.961851 
L 327.97476 70.200487 
L 328.90625 51.085227 
L 329.83774 114.165584 
L 330.769231 114.165584 
L 331.700721 131.369318 
L 332.632212 137.103896 
L 333.563702 131.369318 
L 334.495192 140.926948 
L 335.426683 186.803571 
L 336.358173 137.103896 
L 337.289663 190.626623 
L 338.221154 123.723214 
L 339.152644 165.776786 
L 340.084135 200.184253 
L 341.015625 200.184253 
L 341.947115 186.803571 
L 342.878606 182.980519 
L 343.810096 186.803571 
L 344.741587 211.653409 
L 345.673077 207.830357 
L 346.604567 196.361201 
L 347.536058 205.918831 
L 348.467548 211.653409 
L 349.399038 204.007305 
L 350.330529 198.272727 
L 351.262019 200.184253 
L 352.19351 217.387987 
L 353.125 207.830357 
L 354.05649 230.768669 
L 354.987981 223.122565 
L 355.919471 226.945617 
L 356.850962 223.122565 
L 357.782452 226.945617 
L 358.713942 236.503247 
L 359.645433 215.476461 
L 360.576923 228.857143 
L 361.508413 240.326299 
L 362.439904 230.768669 
L 364.302885 230.768669 
L 365.234375 213.564935 
L 366.165865 230.768669 
L 367.097356 232.680195 
L 368.028846 236.503247 
L 368.960337 242.237825 
L 369.891827 226.945617 
L 370.823317 236.503247 
L 371.754808 223.122565 
L 374.549279 246.060877 
L 375.480769 249.883929 
L 376.41226 244.149351 
L 377.34375 242.237825 
L 378.27524 225.034091 
L 379.206731 246.060877 
L 380.138221 247.972403 
L 381.069712 236.503247 
L 382.001202 238.414773 
L 382.932692 236.503247 
L 383.864183 228.857143 
L 384.795673 240.326299 
L 385.727163 238.414773 
L 386.658654 240.326299 
L 387.590144 230.768669 
L 388.521635 249.883929 
L 389.453125 246.060877 
L 390.384615 234.591721 
L 391.316106 232.680195 
L 392.247596 219.299513 
L 393.179087 221.211039 
L 394.110577 236.503247 
L 395.042067 232.680195 
L 395.973558 200.184253 
L 396.905048 223.122565 
L 397.836538 225.034091 
L 398.768029 190.626623 
L 399.699519 215.476461 
L 400.63101 223.122565 
L 401.5625 202.095779 
L 402.49399 163.86526 
L 403.425481 217.387987 
L 404.356971 188.715097 
L 405.288462 184.892045 
L 406.219952 223.122565 
L 407.151442 198.272727 
L 408.082933 121.811688 
L 409.014423 142.838474 
L 409.945913 146.661526 
L 410.877404 156.219156 
L 411.808894 156.219156 
L 412.740385 182.980519 
L 413.671875 177.245942 
L 414.603365 116.07711 
L 415.534856 137.103896 
L 416.466346 154.30763 
L 417.397837 133.280844 
L 418.329327 116.07711 
L 419.260817 173.42289 
L 420.192308 188.715097 
L 421.123798 131.369318 
L 422.055288 112.254058 
L 422.986779 135.19237 
L 423.918269 196.361201 
L 424.84976 127.546266 
L 425.78125 204.007305 
L 426.71274 148.573052 
L 427.644231 133.280844 
L 428.575721 142.838474 
L 429.507212 217.387987 
L 430.438702 37.704545 
L 431.370192 152.396104 
L 432.301683 188.715097 
L 433.233173 144.75 
L 434.164663 150.484578 
L 435.096154 83.581169 
L 436.027644 116.07711 
L 436.959135 171.511364 
L 437.890625 150.484578 
L 438.822115 154.30763 
L 439.753606 196.361201 
L 440.685096 161.953734 
L 441.616587 150.484578 
L 442.548077 194.449675 
L 443.479567 156.219156 
L 444.411058 43.439123 
L 445.342548 87.404221 
L 446.274038 114.165584 
L 447.205529 117.988636 
L 448.137019 54.908279 
L 450 177.245942 
L 450 177.245942 
" style="fill:none;stroke:#000000;stroke-dasharray:1.5,2.475;stroke-dashoffset:0;stroke-opacity:0.5;stroke-width:1.5;"/>
   </g>
   <g id="line2d_79">
    <path clip-path="url(#p214efea9cb)" d="M 62.5 249.883929 
L 65.294471 249.883929 
L 66.225962 251.795455 
L 67.157452 249.883929 
L 87.65024 249.883929 
L 88.581731 247.972403 
L 89.513221 247.972403 
L 90.444712 244.149351 
L 91.376202 238.414773 
L 93.239183 234.591721 
L 96.033654 240.326299 
L 97.896635 247.972403 
L 100.691106 247.972403 
L 101.622596 246.060877 
L 103.485577 246.060877 
L 104.417067 244.149351 
L 105.348558 236.503247 
L 106.280048 232.680195 
L 107.211538 230.768669 
L 109.074519 230.768669 
L 110.00601 232.680195 
L 110.9375 236.503247 
L 111.86899 244.149351 
L 112.800481 244.149351 
L 113.731971 242.237825 
L 115.594952 242.237825 
L 116.526442 240.326299 
L 118.389423 240.326299 
L 119.320913 242.237825 
L 126.772837 242.237825 
L 127.704327 230.768669 
L 129.567308 215.476461 
L 130.498798 205.918831 
L 131.430288 202.095779 
L 132.361779 202.095779 
L 133.293269 200.184253 
L 134.22476 207.830357 
L 135.15625 211.653409 
L 136.08774 209.741883 
L 137.019231 211.653409 
L 137.950721 211.653409 
L 138.882212 209.741883 
L 139.813702 211.653409 
L 140.745192 192.538149 
L 141.676683 188.715097 
L 142.608173 179.157468 
L 144.471154 179.157468 
L 145.402644 184.892045 
L 146.334135 182.980519 
L 147.265625 196.361201 
L 148.197115 192.538149 
L 149.128606 196.361201 
L 150.060096 184.892045 
L 151.923077 181.068994 
L 152.854567 186.803571 
L 153.786058 179.157468 
L 155.649038 171.511364 
L 156.580529 177.245942 
L 157.512019 177.245942 
L 158.44351 173.42289 
L 159.375 171.511364 
L 160.30649 173.42289 
L 161.237981 165.776786 
L 163.100962 165.776786 
L 164.032452 163.86526 
L 164.963942 169.599838 
L 167.758413 181.068994 
L 168.689904 173.42289 
L 169.621394 163.86526 
L 170.552885 163.86526 
L 171.484375 158.130682 
L 172.415865 144.75 
L 173.347356 144.75 
L 174.278846 146.661526 
L 175.210337 152.396104 
L 176.141827 160.042208 
L 178.004808 160.042208 
L 178.936298 165.776786 
L 180.799279 158.130682 
L 181.730769 156.219156 
L 182.66226 161.953734 
L 184.52524 169.599838 
L 185.456731 167.688312 
L 186.388221 161.953734 
L 187.319712 161.953734 
L 188.251202 165.776786 
L 189.182692 160.042208 
L 190.114183 161.953734 
L 191.977163 154.30763 
L 192.908654 158.130682 
L 193.840144 156.219156 
L 194.771635 156.219156 
L 195.703125 163.86526 
L 196.634615 167.688312 
L 197.566106 179.157468 
L 198.497596 186.803571 
L 199.429087 186.803571 
L 200.360577 192.538149 
L 201.292067 200.184253 
L 202.223558 204.007305 
L 203.155048 209.741883 
L 204.086538 209.741883 
L 205.018029 211.653409 
L 205.949519 209.741883 
L 206.88101 205.918831 
L 208.74399 202.095779 
L 209.675481 204.007305 
L 211.538462 204.007305 
L 212.469952 200.184253 
L 213.401442 198.272727 
L 215.264423 198.272727 
L 217.127404 205.918831 
L 218.990385 209.741883 
L 220.853365 209.741883 
L 221.784856 207.830357 
L 223.647837 211.653409 
L 224.579327 217.387987 
L 225.510817 219.299513 
L 226.442308 215.476461 
L 227.373798 209.741883 
L 228.305288 205.918831 
L 229.236779 204.007305 
L 230.168269 205.918831 
L 231.09976 205.918831 
L 232.03125 207.830357 
L 232.96274 211.653409 
L 233.894231 207.830357 
L 234.825721 205.918831 
L 235.757212 205.918831 
L 236.688702 207.830357 
L 238.551683 215.476461 
L 239.483173 215.476461 
L 240.414663 221.211039 
L 241.346154 215.476461 
L 242.277644 213.564935 
L 243.209135 209.741883 
L 245.072115 205.918831 
L 248.798077 205.918831 
L 250.661058 202.095779 
L 251.592548 202.095779 
L 252.524038 200.184253 
L 253.455529 200.184253 
L 255.31851 204.007305 
L 256.25 204.007305 
L 257.18149 202.095779 
L 258.112981 205.918831 
L 259.044471 205.918831 
L 259.975962 204.007305 
L 260.907452 204.007305 
L 261.838942 205.918831 
L 262.770433 205.918831 
L 263.701923 207.830357 
L 265.564904 207.830357 
L 266.496394 209.741883 
L 267.427885 213.564935 
L 268.359375 215.476461 
L 270.222356 215.476461 
L 271.153846 211.653409 
L 272.085337 209.741883 
L 273.016827 204.007305 
L 273.948317 202.095779 
L 274.879808 198.272727 
L 275.811298 198.272727 
L 276.742788 190.626623 
L 277.674279 184.892045 
L 278.605769 175.334416 
L 280.46875 175.334416 
L 281.40024 177.245942 
L 282.331731 181.068994 
L 284.194712 192.538149 
L 285.126202 194.449675 
L 286.057692 190.626623 
L 286.989183 190.626623 
L 287.920673 188.715097 
L 288.852163 190.626623 
L 292.578125 182.980519 
L 293.509615 179.157468 
L 294.441106 181.068994 
L 295.372596 175.334416 
L 296.304087 165.776786 
L 297.235577 163.86526 
L 298.167067 156.219156 
L 300.030048 152.396104 
L 301.893029 160.042208 
L 302.824519 165.776786 
L 303.75601 163.86526 
L 304.6875 171.511364 
L 305.61899 169.599838 
L 306.550481 175.334416 
L 307.481971 173.42289 
L 308.413462 165.776786 
L 309.344952 154.30763 
L 310.276442 144.75 
L 312.139423 137.103896 
L 313.070913 135.19237 
L 314.002404 140.926948 
L 314.933894 148.573052 
L 315.865385 146.661526 
L 316.796875 139.015422 
L 317.728365 125.63474 
L 318.659856 123.723214 
L 319.591346 127.546266 
L 320.522837 133.280844 
L 321.454327 129.457792 
L 322.385817 131.369318 
L 323.317308 131.369318 
L 324.248798 127.546266 
L 325.180288 117.988636 
L 326.111779 100.784903 
L 327.043269 93.138799 
L 327.97476 96.961851 
L 329.83774 100.784903 
L 330.769231 108.431006 
L 331.700721 119.900162 
L 332.632212 135.19237 
L 333.563702 140.926948 
L 334.495192 150.484578 
L 335.426683 152.396104 
L 336.358173 156.219156 
L 337.289663 161.953734 
L 338.221154 169.599838 
L 339.152644 171.511364 
L 340.084135 179.157468 
L 341.015625 181.068994 
L 341.947115 190.626623 
L 342.878606 194.449675 
L 345.673077 200.184253 
L 346.604567 204.007305 
L 347.536058 205.918831 
L 348.467548 204.007305 
L 349.399038 204.007305 
L 350.330529 205.918831 
L 351.262019 209.741883 
L 352.19351 211.653409 
L 354.987981 223.122565 
L 356.850962 226.945617 
L 358.713942 226.945617 
L 360.576923 230.768669 
L 361.508413 230.768669 
L 362.439904 228.857143 
L 365.234375 228.857143 
L 366.165865 230.768669 
L 367.097356 230.768669 
L 368.028846 232.680195 
L 370.823317 232.680195 
L 371.754808 234.591721 
L 372.686298 234.591721 
L 373.617788 238.414773 
L 374.549279 240.326299 
L 375.480769 240.326299 
L 376.41226 242.237825 
L 377.34375 242.237825 
L 378.27524 240.326299 
L 379.206731 240.326299 
L 380.138221 238.414773 
L 382.932692 238.414773 
L 383.864183 236.503247 
L 384.795673 236.503247 
L 385.727163 238.414773 
L 386.658654 238.414773 
L 387.590144 240.326299 
L 388.521635 240.326299 
L 389.453125 236.503247 
L 392.247596 230.768669 
L 393.179087 225.034091 
L 394.110577 223.122565 
L 395.042067 223.122565 
L 395.973558 219.299513 
L 397.836538 215.476461 
L 399.699519 207.830357 
L 400.63101 205.918831 
L 401.5625 200.184253 
L 402.49399 198.272727 
L 403.425481 198.272727 
L 404.356971 196.361201 
L 405.288462 188.715097 
L 406.219952 184.892045 
L 407.151442 173.42289 
L 408.082933 165.776786 
L 409.945913 154.30763 
L 410.877404 154.30763 
L 411.808894 156.219156 
L 412.740385 156.219156 
L 413.671875 154.30763 
L 414.603365 150.484578 
L 415.534856 144.75 
L 416.466346 140.926948 
L 418.329327 148.573052 
L 420.192308 144.75 
L 421.123798 148.573052 
L 422.986779 152.396104 
L 423.918269 152.396104 
L 424.84976 154.30763 
L 425.78125 158.130682 
L 426.71274 163.86526 
L 427.644231 148.573052 
L 429.507212 144.75 
L 430.438702 144.75 
L 431.370192 146.661526 
L 432.301683 140.926948 
L 433.233173 131.369318 
L 434.164663 140.926948 
L 436.027644 137.103896 
L 436.959135 144.75 
L 437.890625 150.484578 
L 438.822115 160.042208 
L 439.753606 167.688312 
L 440.685096 167.688312 
L 442.548077 144.75 
L 443.479567 129.457792 
L 444.411058 119.900162 
L 445.342548 106.519481 
L 446.274038 96.961851 
L 447.205529 100.784903 
L 448.137019 110.342532 
L 449.06851 116.07711 
L 450 119.900162 
L 450 119.900162 
" style="fill:none;stroke:#b3220f;stroke-linecap:square;stroke-width:1.5;"/>
   </g>
   <g id="patch_3">
    <path d="M 62.5 262.5 
L 62.5 27 
" style="fill:none;stroke:#555555;stroke-linecap:square;stroke-linejoin:miter;"/>
   </g>
   <g id="patch_4">
    <path d="M 62.5 262.5 
L 450 262.5 
" style="fill:none;stroke:#555555;stroke-linecap:square;stroke-linejoin:miter;"/>
   </g>
   <g id="text_21">
    <!-- Antonio Nario | Casos nuevos: 2021-05-27 -->
    <g style="fill:#555555;" transform="translate(119.325625 17)scale(0.14 -0.14)">
     <defs>
      <path d="M 15.40625 61 
L 15.40625 71.40625 
L 6.90625 71.40625 
L 6.90625 61 
z
M 6.90625 51.703125 
L 6.90625 0 
L 15.40625 0 
L 15.40625 51.703125 
z
" id="HelveticaNeue-105"/>
      <path id="HelveticaNeue-32"/>
      <path d="M 45.203125 71.09375 
L 40 71.09375 
Q 39.5 69.59375 38.453125 68.140625 
Q 37.40625 66.703125 35.40625 66.703125 
Q 33.796875 66.703125 32.140625 67.34375 
Q 30.5 68 28.796875 68.75 
Q 27.09375 69.5 25.25 70.09375 
Q 23.40625 70.703125 21.40625 70.703125 
Q 19 70.703125 17.296875 69.796875 
Q 15.59375 68.90625 14.390625 67.40625 
Q 13.203125 65.90625 12.34375 63.90625 
Q 11.5 61.90625 10.90625 59.703125 
L 16.09375 59.703125 
Q 15.90625 61.59375 17.59375 62.75 
Q 19.296875 63.90625 20.90625 63.90625 
Q 22.296875 63.90625 24.046875 63.296875 
Q 25.796875 62.703125 27.59375 62 
Q 29.40625 61.203125 31.15625 60.59375 
Q 32.90625 60 34.203125 60 
Q 37.09375 60 38.9375 60.84375 
Q 40.796875 61.703125 42.09375 63.09375 
Q 44.59375 66.59375 45.203125 71.09375 
z
M 6.40625 51.703125 
L 6.40625 0 
L 14.90625 0 
L 14.90625 29.203125 
Q 14.90625 32.703125 15.84375 35.640625 
Q 16.796875 38.59375 18.6875 40.796875 
Q 20.59375 43 23.4375 44.203125 
Q 26.296875 45.40625 30.203125 45.40625 
Q 35.09375 45.40625 37.890625 42.59375 
Q 40.703125 39.796875 40.703125 35 
L 40.703125 0 
L 49.203125 0 
L 49.203125 34 
Q 49.203125 38.203125 48.34375 41.640625 
Q 47.5 45.09375 45.390625 47.59375 
Q 43.296875 50.09375 39.890625 51.5 
Q 36.5 52.90625 31.40625 52.90625 
Q 19.90625 52.90625 14.59375 43.5 
L 14.40625 43.5 
L 14.40625 51.703125 
z
" id="HelveticaNeue-241"/>
      <path d="M 7.703125 78.59375 
L 7.703125 -21.296875 
L 14.5 -21.296875 
L 14.5 78.59375 
z
" id="HelveticaNeue-124"/>
      <path d="M 58 49.90625 
L 67.5 49.90625 
Q 66.703125 55.59375 64.09375 59.9375 
Q 61.5 64.296875 57.59375 67.1875 
Q 53.703125 70.09375 48.703125 71.59375 
Q 43.703125 73.09375 38.09375 73.09375 
Q 29.90625 73.09375 23.546875 70.140625 
Q 17.203125 67.203125 12.953125 62.09375 
Q 8.703125 57 6.5 50.140625 
Q 4.296875 43.296875 4.296875 35.5 
Q 4.296875 27.703125 6.34375 20.890625 
Q 8.40625 14.09375 12.5 9.09375 
Q 16.59375 4.09375 22.796875 1.25 
Q 29 -1.59375 37.296875 -1.59375 
Q 51 -1.59375 58.890625 5.90625 
Q 66.796875 13.40625 68.203125 26.90625 
L 58.703125 26.90625 
Q 58.40625 22.5 56.90625 18.703125 
Q 55.40625 14.90625 52.75 12.15625 
Q 50.09375 9.40625 46.4375 7.84375 
Q 42.796875 6.296875 38.09375 6.296875 
Q 31.703125 6.296875 27.09375 8.6875 
Q 22.5 11.09375 19.546875 15.140625 
Q 16.59375 19.203125 15.1875 24.640625 
Q 13.796875 30.09375 13.796875 36.203125 
Q 13.796875 41.796875 15.1875 47 
Q 16.59375 52.203125 19.546875 56.25 
Q 22.5 60.296875 27.046875 62.6875 
Q 31.59375 65.09375 38 65.09375 
Q 45.5 65.09375 50.953125 61.296875 
Q 56.40625 57.5 58 49.90625 
z
" id="HelveticaNeue-67"/>
      <path d="M 11.59375 16.296875 
L 3.09375 16.296875 
Q 3.296875 11.5 5.09375 8.140625 
Q 6.90625 4.796875 9.90625 2.75 
Q 12.90625 0.703125 16.796875 -0.1875 
Q 20.703125 -1.09375 25 -1.09375 
Q 28.90625 -1.09375 32.84375 -0.34375 
Q 36.796875 0.40625 39.9375 2.296875 
Q 43.09375 4.203125 45.046875 7.296875 
Q 47 10.40625 47 15.09375 
Q 47 18.796875 45.546875 21.296875 
Q 44.09375 23.796875 41.75 25.4375 
Q 39.40625 27.09375 36.34375 28.09375 
Q 33.296875 29.09375 30.09375 29.796875 
Q 27.09375 30.5 24.09375 31.140625 
Q 21.09375 31.796875 18.6875 32.75 
Q 16.296875 33.703125 14.75 35.140625 
Q 13.203125 36.59375 13.203125 38.796875 
Q 13.203125 40.796875 14.203125 42.046875 
Q 15.203125 43.296875 16.796875 44.046875 
Q 18.40625 44.796875 20.34375 45.09375 
Q 22.296875 45.40625 24.203125 45.40625 
Q 26.296875 45.40625 28.34375 44.953125 
Q 30.40625 44.5 32.09375 43.5 
Q 33.796875 42.5 34.890625 40.84375 
Q 36 39.203125 36.203125 36.703125 
L 44.703125 36.703125 
Q 44.40625 41.40625 42.703125 44.546875 
Q 41 47.703125 38.140625 49.546875 
Q 35.296875 51.40625 31.59375 52.15625 
Q 27.90625 52.90625 23.5 52.90625 
Q 20.09375 52.90625 16.640625 52.046875 
Q 13.203125 51.203125 10.453125 49.453125 
Q 7.703125 47.703125 5.953125 44.890625 
Q 4.203125 42.09375 4.203125 38.203125 
Q 4.203125 33.203125 6.703125 30.390625 
Q 9.203125 27.59375 12.953125 26.046875 
Q 16.703125 24.5 21.09375 23.640625 
Q 25.5 22.796875 29.25 21.75 
Q 33 20.703125 35.5 19 
Q 38 17.296875 38 14 
Q 38 11.59375 36.796875 10.046875 
Q 35.59375 8.5 33.75 7.703125 
Q 31.90625 6.90625 29.703125 6.59375 
Q 27.5 6.296875 25.5 6.296875 
Q 22.90625 6.296875 20.453125 6.796875 
Q 18 7.296875 16.046875 8.4375 
Q 14.09375 9.59375 12.890625 11.546875 
Q 11.703125 13.5 11.59375 16.296875 
z
" id="HelveticaNeue-115"/>
      <path d="M 19.40625 40.59375 
L 19.40625 51.703125 
L 8.296875 51.703125 
L 8.296875 40.59375 
z
M 8.296875 11.09375 
L 8.296875 0 
L 19.40625 0 
L 19.40625 11.09375 
z
" id="HelveticaNeue-58"/>
      <path d="M 5 31.796875 
L 5 23.796875 
L 33.90625 23.796875 
L 33.90625 31.796875 
z
" id="HelveticaNeue-45"/>
      <path d="M 47 62.203125 
L 47 69.703125 
L 12 69.703125 
L 5.40625 32.90625 
L 12.703125 32.5 
Q 15.203125 35.5 18.453125 37.34375 
Q 21.703125 39.203125 25.90625 39.203125 
Q 29.5 39.203125 32.453125 38 
Q 35.40625 36.796875 37.5 34.640625 
Q 39.59375 32.5 40.75 29.546875 
Q 41.90625 26.59375 41.90625 23.09375 
Q 41.90625 18.90625 40.703125 15.75 
Q 39.5 12.59375 37.453125 10.5 
Q 35.40625 8.40625 32.65625 7.34375 
Q 29.90625 6.296875 26.90625 6.296875 
Q 23.703125 6.296875 21.046875 7.25 
Q 18.40625 8.203125 16.453125 9.953125 
Q 14.5 11.703125 13.34375 14.046875 
Q 12.203125 16.40625 12 19.09375 
L 3.5 19.09375 
Q 3.59375 14.296875 5.390625 10.5 
Q 7.203125 6.703125 10.296875 4.140625 
Q 13.40625 1.59375 17.453125 0.25 
Q 21.5 -1.09375 26.09375 -1.09375 
Q 32.296875 -1.09375 36.9375 0.84375 
Q 41.59375 2.796875 44.6875 6.09375 
Q 47.796875 9.40625 49.34375 13.65625 
Q 50.90625 17.90625 50.90625 22.40625 
Q 50.90625 28.5 49.09375 33.046875 
Q 47.296875 37.59375 44.1875 40.640625 
Q 41.09375 43.703125 36.890625 45.203125 
Q 32.703125 46.703125 28 46.703125 
Q 24.40625 46.703125 20.75 45.453125 
Q 17.09375 44.203125 14.796875 41.59375 
L 14.59375 41.796875 
L 18.40625 62.203125 
z
" id="HelveticaNeue-53"/>
      <path d="M 50.90625 62.40625 
L 50.90625 69.703125 
L 5 69.703125 
L 5 61.703125 
L 42.203125 61.703125 
Q 36.59375 55.796875 31.75 48.796875 
Q 26.90625 41.796875 23.203125 33.9375 
Q 19.5 26.09375 17.140625 17.546875 
Q 14.796875 9 14.203125 0 
L 23.703125 0 
Q 24.203125 8.296875 26.5 17.09375 
Q 28.796875 25.90625 32.4375 34.203125 
Q 36.09375 42.5 40.796875 49.796875 
Q 45.5 57.09375 50.90625 62.40625 
z
" id="HelveticaNeue-55"/>
     </defs>
     <use xlink:href="#HelveticaNeue-65"/>
     <use x="64.799988" xlink:href="#HelveticaNeue-110"/>
     <use x="120.399979" xlink:href="#HelveticaNeue-116"/>
     <use x="151.899963" xlink:href="#HelveticaNeue-111"/>
     <use x="209.299957" xlink:href="#HelveticaNeue-110"/>
     <use x="264.899948" xlink:href="#HelveticaNeue-105"/>
     <use x="287.099945" xlink:href="#HelveticaNeue-111"/>
     <use x="344.499939" xlink:href="#HelveticaNeue-32"/>
     <use x="372.299927" xlink:href="#HelveticaNeue-78"/>
     <use x="444.499908" xlink:href="#HelveticaNeue-97"/>
     <use x="498.199905" xlink:href="#HelveticaNeue-114"/>
     <use x="531.499893" xlink:href="#HelveticaNeue-105"/>
     <use x="553.69989" xlink:href="#HelveticaNeue-241"/>
     <use x="609.299881" xlink:href="#HelveticaNeue-111"/>
     <use x="666.699875" xlink:href="#HelveticaNeue-32"/>
     <use x="694.499863" xlink:href="#HelveticaNeue-124"/>
     <use x="716.69986" xlink:href="#HelveticaNeue-32"/>
     <use x="744.499847" xlink:href="#HelveticaNeue-67"/>
     <use x="816.699829" xlink:href="#HelveticaNeue-97"/>
     <use x="870.399826" xlink:href="#HelveticaNeue-115"/>
     <use x="920.399811" xlink:href="#HelveticaNeue-111"/>
     <use x="977.799805" xlink:href="#HelveticaNeue-115"/>
     <use x="1027.799789" xlink:href="#HelveticaNeue-32"/>
     <use x="1055.599777" xlink:href="#HelveticaNeue-110"/>
     <use x="1111.199768" xlink:href="#HelveticaNeue-117"/>
     <use x="1166.799759" xlink:href="#HelveticaNeue-101"/>
     <use x="1220.499756" xlink:href="#HelveticaNeue-118"/>
     <use x="1270.499741" xlink:href="#HelveticaNeue-111"/>
     <use x="1327.899734" xlink:href="#HelveticaNeue-115"/>
     <use x="1377.899719" xlink:href="#HelveticaNeue-58"/>
     <use x="1405.699707" xlink:href="#HelveticaNeue-32"/>
     <use x="1433.499695" xlink:href="#HelveticaNeue-50"/>
     <use x="1489.099686" xlink:href="#HelveticaNeue-48"/>
     <use x="1544.699677" xlink:href="#HelveticaNeue-50"/>
     <use x="1600.299667" xlink:href="#HelveticaNeue-49"/>
     <use x="1655.899658" xlink:href="#HelveticaNeue-45"/>
     <use x="1694.799652" xlink:href="#HelveticaNeue-48"/>
     <use x="1750.399643" xlink:href="#HelveticaNeue-53"/>
     <use x="1805.999634" xlink:href="#HelveticaNeue-45"/>
     <use x="1844.899628" xlink:href="#HelveticaNeue-50"/>
     <use x="1900.499619" xlink:href="#HelveticaNeue-55"/>
    </g>
   </g>
   <g id="legend_1">
    <g id="line2d_80">
     <path d="M 71.5 39.640625 
L 91.5 39.640625 
" style="fill:none;stroke:#000000;stroke-dasharray:1.5,2.475;stroke-dashoffset:0;stroke-opacity:0.5;stroke-width:1.5;"/>
    </g>
    <g id="line2d_81"/>
    <g id="text_22">
     <!-- Actual -->
     <g style="fill:#555555;" transform="translate(99.5 43.140625)scale(0.1 -0.1)">
      <use xlink:href="#HelveticaNeue-65"/>
      <use x="64.799988" xlink:href="#HelveticaNeue-99"/>
      <use x="118.499985" xlink:href="#HelveticaNeue-116"/>
      <use x="149.999969" xlink:href="#HelveticaNeue-117"/>
      <use x="205.59996" xlink:href="#HelveticaNeue-97"/>
      <use x="259.299957" xlink:href="#HelveticaNeue-108"/>
     </g>
    </g>
    <g id="line2d_82">
     <path d="M 71.5 54.310937 
L 91.5 54.310937 
" style="fill:none;stroke:#b3220f;stroke-linecap:square;stroke-width:1.5;"/>
    </g>
    <g id="line2d_83"/>
    <g id="text_23">
     <!-- Promedio semanal (7 das)  -->
     <g style="fill:#555555;" transform="translate(99.5 57.810937)scale(0.1 -0.1)">
      <defs>
       <path d="M 17.296875 37.203125 
L 17.296875 63.40625 
L 35.90625 63.40625 
Q 44 63.40625 47.75 60.046875 
Q 51.5 56.703125 51.5 50.296875 
Q 51.5 43.90625 47.75 40.5 
Q 44 37.09375 35.90625 37.203125 
z
M 7.796875 71.40625 
L 7.796875 0 
L 17.296875 0 
L 17.296875 29.203125 
L 39.09375 29.203125 
Q 49.90625 29.09375 55.453125 34.6875 
Q 61 40.296875 61 50.296875 
Q 61 60.296875 55.453125 65.84375 
Q 49.90625 71.40625 39.09375 71.40625 
z
" id="HelveticaNeue-80"/>
       <path d="M 6.40625 51.703125 
L 6.40625 0 
L 14.90625 0 
L 14.90625 32.203125 
Q 14.90625 33.703125 15.65625 35.953125 
Q 16.40625 38.203125 18.046875 40.296875 
Q 19.703125 42.40625 22.34375 43.90625 
Q 25 45.40625 28.703125 45.40625 
Q 31.59375 45.40625 33.4375 44.546875 
Q 35.296875 43.703125 36.390625 42.140625 
Q 37.5 40.59375 37.953125 38.5 
Q 38.40625 36.40625 38.40625 33.90625 
L 38.40625 0 
L 46.90625 0 
L 46.90625 32.203125 
Q 46.90625 38.203125 50.5 41.796875 
Q 54.09375 45.40625 60.40625 45.40625 
Q 63.5 45.40625 65.453125 44.5 
Q 67.40625 43.59375 68.5 42.046875 
Q 69.59375 40.5 70 38.390625 
Q 70.40625 36.296875 70.40625 33.90625 
L 70.40625 0 
L 78.90625 0 
L 78.90625 37.90625 
Q 78.90625 41.90625 77.65625 44.75 
Q 76.40625 47.59375 74.15625 49.390625 
Q 71.90625 51.203125 68.75 52.046875 
Q 65.59375 52.90625 61.703125 52.90625 
Q 56.59375 52.90625 52.34375 50.59375 
Q 48.09375 48.296875 45.5 44.09375 
Q 43.90625 48.90625 40 50.90625 
Q 36.09375 52.90625 31.296875 52.90625 
Q 20.40625 52.90625 14.59375 44.09375 
L 14.40625 44.09375 
L 14.40625 51.703125 
z
" id="HelveticaNeue-109"/>
       <path d="M 12.59375 25.40625 
Q 12.59375 29.203125 13.390625 32.796875 
Q 14.203125 36.40625 16 39.203125 
Q 17.796875 42 20.796875 43.703125 
Q 23.796875 45.40625 28.09375 45.40625 
Q 32.5 45.40625 35.59375 43.75 
Q 38.703125 42.09375 40.640625 39.390625 
Q 42.59375 36.703125 43.5 33.140625 
Q 44.40625 29.59375 44.40625 25.796875 
Q 44.40625 22.203125 43.546875 18.703125 
Q 42.703125 15.203125 40.796875 12.453125 
Q 38.90625 9.703125 35.90625 8 
Q 32.90625 6.296875 28.59375 6.296875 
Q 24.5 6.296875 21.453125 7.890625 
Q 18.40625 9.5 16.453125 12.203125 
Q 14.5 14.90625 13.546875 18.34375 
Q 12.59375 21.796875 12.59375 25.40625 
z
M 52.59375 0 
L 52.59375 71.40625 
L 44.09375 71.40625 
L 44.09375 44.796875 
L 43.90625 44.796875 
Q 42.5 47.09375 40.453125 48.640625 
Q 38.40625 50.203125 36.09375 51.140625 
Q 33.796875 52.09375 31.5 52.5 
Q 29.203125 52.90625 27.203125 52.90625 
Q 21.296875 52.90625 16.84375 50.75 
Q 12.40625 48.59375 9.453125 44.9375 
Q 6.5 41.296875 5.046875 36.390625 
Q 3.59375 31.5 3.59375 26 
Q 3.59375 20.5 5.09375 15.59375 
Q 6.59375 10.703125 9.546875 7 
Q 12.5 3.296875 16.953125 1.09375 
Q 21.40625 -1.09375 27.40625 -1.09375 
Q 32.796875 -1.09375 37.296875 0.796875 
Q 41.796875 2.703125 43.90625 7 
L 44.09375 7 
L 44.09375 0 
z
" id="HelveticaNeue-100"/>
       <path d="M 20.40625 -19.703125 
L 26.90625 -19.703125 
Q 19.796875 -8.203125 16.75 3.09375 
Q 13.703125 14.40625 13.703125 27 
Q 13.703125 39.296875 16.703125 50.5 
Q 19.703125 61.703125 26.90625 73.09375 
L 20.40625 73.09375 
Q 12.59375 62.796875 8.640625 50.796875 
Q 4.703125 38.796875 4.703125 27 
Q 4.703125 20.40625 5.796875 14.40625 
Q 6.90625 8.40625 8.953125 2.703125 
Q 11 -3 13.890625 -8.546875 
Q 16.796875 -14.09375 20.40625 -19.703125 
z
" id="HelveticaNeue-40"/>
       <path d="M 6.90625 0 
L 15.40625 0 
L 15.40625 51.703125 
L 6.90625 51.703125 
z
M 25.5 77 
L 11.40625 60.796875 
L 5 60.796875 
L 14.59375 77 
z
" id="HelveticaNeue-237"/>
       <path d="M -0.90625 -19.703125 
L 5.5 -19.703125 
Q 13.296875 -9.40625 17.25 2.546875 
Q 21.203125 14.5 21.203125 26.296875 
Q 21.203125 32.90625 20.09375 38.90625 
Q 19 44.90625 16.953125 50.65625 
Q 14.90625 56.40625 12 61.953125 
Q 9.09375 67.5 5.5 73.09375 
L -0.90625 73.09375 
Q 6.09375 61.59375 9.140625 50.25 
Q 12.203125 38.90625 12.203125 26.296875 
Q 12.203125 14.09375 9.203125 2.84375 
Q 6.203125 -8.40625 -0.90625 -19.703125 
z
" id="HelveticaNeue-41"/>
      </defs>
      <use xlink:href="#HelveticaNeue-80"/>
      <use x="64.799988" xlink:href="#HelveticaNeue-114"/>
      <use x="96.349976" xlink:href="#HelveticaNeue-111"/>
      <use x="153.749969" xlink:href="#HelveticaNeue-109"/>
      <use x="239.049957" xlink:href="#HelveticaNeue-101"/>
      <use x="292.749954" xlink:href="#HelveticaNeue-100"/>
      <use x="352.049942" xlink:href="#HelveticaNeue-105"/>
      <use x="374.249939" xlink:href="#HelveticaNeue-111"/>
      <use x="431.649933" xlink:href="#HelveticaNeue-32"/>
      <use x="459.449921" xlink:href="#HelveticaNeue-115"/>
      <use x="509.449905" xlink:href="#HelveticaNeue-101"/>
      <use x="563.149902" xlink:href="#HelveticaNeue-109"/>
      <use x="648.44989" xlink:href="#HelveticaNeue-97"/>
      <use x="702.149887" xlink:href="#HelveticaNeue-110"/>
      <use x="757.749878" xlink:href="#HelveticaNeue-97"/>
      <use x="811.449875" xlink:href="#HelveticaNeue-108"/>
      <use x="833.649872" xlink:href="#HelveticaNeue-32"/>
      <use x="861.44986" xlink:href="#HelveticaNeue-40"/>
      <use x="887.349854" xlink:href="#HelveticaNeue-55"/>
      <use x="942.949844" xlink:href="#HelveticaNeue-32"/>
      <use x="970.749832" xlink:href="#HelveticaNeue-100"/>
      <use x="1030.04982" xlink:href="#HelveticaNeue-237"/>
      <use x="1052.249817" xlink:href="#HelveticaNeue-97"/>
      <use x="1105.949814" xlink:href="#HelveticaNeue-115"/>
      <use x="1155.949799" xlink:href="#HelveticaNeue-41"/>
      <use x="1181.849792" xlink:href="#HelveticaNeue-32"/>
     </g>
    </g>
   </g>
  </g>
 </g>
 <defs>
  <clipPath id="p214efea9cb">
   <rect height="235.5" width="387.5" x="62.5" y="27"/>
  </clipPath>
 </defs>
</svg>
