<?xml version="1.0" encoding="utf-8" standalone="no"?>
<!DOCTYPE svg PUBLIC "-//W3C//DTD SVG 1.1//EN"
  "http://www.w3.org/Graphics/SVG/1.1/DTD/svg11.dtd">
<!-- Created with matplotlib (https://matplotlib.org/) -->
<svg height="300pt" version="1.1" viewBox="0 0 500 300" width="500pt" xmlns="http://www.w3.org/2000/svg" xmlns:xlink="http://www.w3.org/1999/xlink">
 <metadata>
  <rdf:RDF xmlns:cc="http://creativecommons.org/ns#" xmlns:dc="http://purl.org/dc/elements/1.1/" xmlns:rdf="http://www.w3.org/1999/02/22-rdf-syntax-ns#">
   <cc:Work>
    <dc:type rdf:resource="http://purl.org/dc/dcmitype/StillImage"/>
    <dc:date>2021-06-13T18:17:49.444488</dc:date>
    <dc:format>image/svg+xml</dc:format>
    <dc:creator>
     <cc:Agent>
      <dc:title>Matplotlib v3.3.4, https://matplotlib.org/</dc:title>
     </cc:Agent>
    </dc:creator>
   </cc:Work>
  </rdf:RDF>
 </metadata>
 <defs>
  <style type="text/css">*{stroke-linecap:butt;stroke-linejoin:round;}</style>
 </defs>
 <g id="figure_1">
  <g id="patch_1">
   <path d="M 0 300 
L 500 300 
L 500 0 
L 0 0 
z
" style="fill:#ffffff;"/>
  </g>
  <g id="axes_1">
   <g id="patch_2">
    <path d="M 62.5 262.5 
L 450 262.5 
L 450 27 
L 62.5 27 
z
" style="fill:#ffffff;"/>
   </g>
   <g id="matplotlib.axis_1">
    <g id="xtick_1">
     <g id="line2d_1">
      <defs>
       <path d="M 0 0 
L 0 3.5 
" id="mf6aac4428e" style="stroke:#555555;stroke-width:0.8;"/>
      </defs>
      <g>
       <use style="fill:#555555;stroke:#555555;stroke-width:0.8;" x="62.5" xlink:href="#mf6aac4428e" y="262.5"/>
      </g>
     </g>
    </g>
    <g id="xtick_2">
     <g id="line2d_2">
      <g>
       <use style="fill:#555555;stroke:#555555;stroke-width:0.8;" x="139.820186" xlink:href="#mf6aac4428e" y="262.5"/>
      </g>
     </g>
     <g id="text_1">
      <!-- Jul -->
      <g style="fill:#555555;" transform="translate(133.335029 276.640625)scale(0.1 -0.1)">
       <defs>
        <path d="M 44.09375 17.796875 
L 44.09375 71.40625 
L 34.59375 71.40625 
L 34.59375 19.203125 
Q 34.59375 13.296875 32.140625 9.796875 
Q 29.703125 6.296875 23.203125 6.296875 
Q 19.703125 6.296875 17.453125 7.34375 
Q 15.203125 8.40625 13.953125 10.296875 
Q 12.703125 12.203125 12.203125 14.796875 
Q 11.703125 17.40625 11.703125 20.5 
L 11.703125 23.5 
L 2.203125 23.5 
L 2.203125 19.09375 
Q 2.203125 8.90625 7.59375 3.65625 
Q 13 -1.59375 23 -1.59375 
Q 29 -1.59375 33.046875 0.046875 
Q 37.09375 1.703125 39.546875 4.453125 
Q 42 7.203125 43.046875 10.703125 
Q 44.09375 14.203125 44.09375 17.796875 
z
" id="HelveticaNeue-74"/>
        <path d="M 49.203125 0 
L 49.203125 51.703125 
L 40.703125 51.703125 
L 40.703125 22.5 
Q 40.703125 19 39.75 16.046875 
Q 38.796875 13.09375 36.890625 10.890625 
Q 35 8.703125 32.140625 7.5 
Q 29.296875 6.296875 25.40625 6.296875 
Q 20.5 6.296875 17.703125 9.09375 
Q 14.90625 11.90625 14.90625 16.703125 
L 14.90625 51.703125 
L 6.40625 51.703125 
L 6.40625 17.703125 
Q 6.40625 13.5 7.25 10.046875 
Q 8.09375 6.59375 10.1875 4.09375 
Q 12.296875 1.59375 15.6875 0.25 
Q 19.09375 -1.09375 24.203125 -1.09375 
Q 29.90625 -1.09375 34.09375 1.15625 
Q 38.296875 3.40625 41 8.203125 
L 41.203125 8.203125 
L 41.203125 0 
z
" id="HelveticaNeue-117"/>
        <path d="M 6.90625 71.40625 
L 6.90625 0 
L 15.40625 0 
L 15.40625 71.40625 
z
" id="HelveticaNeue-108"/>
       </defs>
       <use xlink:href="#HelveticaNeue-74"/>
       <use x="51.899994" xlink:href="#HelveticaNeue-117"/>
       <use x="107.499985" xlink:href="#HelveticaNeue-108"/>
      </g>
     </g>
    </g>
    <g id="xtick_3">
     <g id="line2d_3">
      <g>
       <use style="fill:#555555;stroke:#555555;stroke-width:0.8;" x="222.534803" xlink:href="#mf6aac4428e" y="262.5"/>
      </g>
     </g>
     <g id="text_2">
      <!-- Oct -->
      <g style="fill:#555555;" transform="translate(214.474647 276.640625)scale(0.1 -0.1)">
       <defs>
        <path d="M 13.296875 35.703125 
Q 13.296875 41.09375 14.6875 46.34375 
Q 16.09375 51.59375 19.09375 55.796875 
Q 22.09375 60 26.796875 62.546875 
Q 31.5 65.09375 38 65.09375 
Q 44.5 65.09375 49.203125 62.546875 
Q 53.90625 60 56.90625 55.796875 
Q 59.90625 51.59375 61.296875 46.34375 
Q 62.703125 41.09375 62.703125 35.703125 
Q 62.703125 30.296875 61.296875 25.046875 
Q 59.90625 19.796875 56.90625 15.59375 
Q 53.90625 11.40625 49.203125 8.84375 
Q 44.5 6.296875 38 6.296875 
Q 31.5 6.296875 26.796875 8.84375 
Q 22.09375 11.40625 19.09375 15.59375 
Q 16.09375 19.796875 14.6875 25.046875 
Q 13.296875 30.296875 13.296875 35.703125 
z
M 3.796875 35.703125 
Q 3.796875 28.40625 5.9375 21.65625 
Q 8.09375 14.90625 12.390625 9.703125 
Q 16.703125 4.5 23.09375 1.453125 
Q 29.5 -1.59375 38 -1.59375 
Q 46.5 -1.59375 52.890625 1.453125 
Q 59.296875 4.5 63.59375 9.703125 
Q 67.90625 14.90625 70.046875 21.65625 
Q 72.203125 28.40625 72.203125 35.703125 
Q 72.203125 43 70.046875 49.75 
Q 67.90625 56.5 63.59375 61.703125 
Q 59.296875 66.90625 52.890625 70 
Q 46.5 73.09375 38 73.09375 
Q 29.5 73.09375 23.09375 70 
Q 16.703125 66.90625 12.390625 61.703125 
Q 8.09375 56.5 5.9375 49.75 
Q 3.796875 43 3.796875 35.703125 
z
" id="HelveticaNeue-79"/>
        <path d="M 41.5 35.09375 
L 50.296875 35.09375 
Q 49.796875 39.703125 47.890625 43.046875 
Q 46 46.40625 43.046875 48.59375 
Q 40.09375 50.796875 36.25 51.84375 
Q 32.40625 52.90625 28 52.90625 
Q 21.90625 52.90625 17.296875 50.75 
Q 12.703125 48.59375 9.640625 44.84375 
Q 6.59375 41.09375 5.09375 36.046875 
Q 3.59375 31 3.59375 25.203125 
Q 3.59375 19.40625 5.140625 14.546875 
Q 6.703125 9.703125 9.75 6.203125 
Q 12.796875 2.703125 17.34375 0.796875 
Q 21.90625 -1.09375 27.796875 -1.09375 
Q 37.703125 -1.09375 43.453125 4.09375 
Q 49.203125 9.296875 50.59375 18.90625 
L 41.90625 18.90625 
Q 41.09375 12.90625 37.546875 9.59375 
Q 34 6.296875 27.703125 6.296875 
Q 23.703125 6.296875 20.796875 7.890625 
Q 17.90625 9.5 16.09375 12.140625 
Q 14.296875 14.796875 13.4375 18.1875 
Q 12.59375 21.59375 12.59375 25.203125 
Q 12.59375 29.09375 13.390625 32.75 
Q 14.203125 36.40625 16.046875 39.203125 
Q 17.90625 42 21 43.703125 
Q 24.09375 45.40625 28.703125 45.40625 
Q 34.09375 45.40625 37.296875 42.703125 
Q 40.5 40 41.5 35.09375 
z
" id="HelveticaNeue-99"/>
        <path d="M 18.203125 51.703125 
L 18.203125 67.203125 
L 9.703125 67.203125 
L 9.703125 51.703125 
L 0.90625 51.703125 
L 0.90625 44.203125 
L 9.703125 44.203125 
L 9.703125 11.296875 
Q 9.703125 7.703125 10.390625 5.5 
Q 11.09375 3.296875 12.546875 2.09375 
Q 14 0.90625 16.34375 0.453125 
Q 18.703125 0 22 0 
L 28.5 0 
L 28.5 7.5 
L 24.59375 7.5 
Q 22.59375 7.5 21.34375 7.640625 
Q 20.09375 7.796875 19.390625 8.296875 
Q 18.703125 8.796875 18.453125 9.6875 
Q 18.203125 10.59375 18.203125 12.09375 
L 18.203125 44.203125 
L 28.5 44.203125 
L 28.5 51.703125 
z
" id="HelveticaNeue-116"/>
       </defs>
       <use xlink:href="#HelveticaNeue-79"/>
       <use x="75.999985" xlink:href="#HelveticaNeue-99"/>
       <use x="129.699982" xlink:href="#HelveticaNeue-116"/>
      </g>
     </g>
    </g>
    <g id="xtick_4">
     <g id="line2d_4">
      <g>
       <use style="fill:#555555;stroke:#555555;stroke-width:0.8;" x="305.24942" xlink:href="#mf6aac4428e" y="262.5"/>
      </g>
     </g>
     <g id="text_3">
      <!-- Jan -->
      <g style="fill:#555555;" transform="translate(297.189264 276.640625)scale(0.1 -0.1)">
       <defs>
        <path d="M 52.203125 0.203125 
Q 50 -1.09375 46.09375 -1.09375 
Q 42.796875 -1.09375 40.84375 0.75 
Q 38.90625 2.59375 38.90625 6.796875 
Q 35.40625 2.59375 30.75 0.75 
Q 26.09375 -1.09375 20.703125 -1.09375 
Q 17.203125 -1.09375 14.046875 -0.296875 
Q 10.90625 0.5 8.59375 2.203125 
Q 6.296875 3.90625 4.9375 6.65625 
Q 3.59375 9.40625 3.59375 13.296875 
Q 3.59375 17.703125 5.09375 20.5 
Q 6.59375 23.296875 9.046875 25.046875 
Q 11.5 26.796875 14.640625 27.6875 
Q 17.796875 28.59375 21.09375 29.203125 
Q 24.59375 29.90625 27.75 30.25 
Q 30.90625 30.59375 33.296875 31.25 
Q 35.703125 31.90625 37.09375 33.15625 
Q 38.5 34.40625 38.5 36.796875 
Q 38.5 39.59375 37.453125 41.296875 
Q 36.40625 43 34.75 43.890625 
Q 33.09375 44.796875 31.046875 45.09375 
Q 29 45.40625 27 45.40625 
Q 21.59375 45.40625 18 43.34375 
Q 14.40625 41.296875 14.09375 35.59375 
L 5.59375 35.59375 
Q 5.796875 40.40625 7.59375 43.703125 
Q 9.40625 47 12.40625 49.046875 
Q 15.40625 51.09375 19.25 52 
Q 23.09375 52.90625 27.5 52.90625 
Q 31 52.90625 34.453125 52.40625 
Q 37.90625 51.90625 40.703125 50.34375 
Q 43.5 48.796875 45.203125 46 
Q 46.90625 43.203125 46.90625 38.703125 
L 46.90625 12.09375 
Q 46.90625 9.09375 47.25 7.6875 
Q 47.59375 6.296875 49.59375 6.296875 
Q 50.703125 6.296875 52.203125 6.796875 
z
M 38.40625 26.703125 
Q 36.796875 25.5 34.1875 24.953125 
Q 31.59375 24.40625 28.75 24.046875 
Q 25.90625 23.703125 23 23.25 
Q 20.09375 22.796875 17.796875 21.796875 
Q 15.5 20.796875 14.046875 18.9375 
Q 12.59375 17.09375 12.59375 13.90625 
Q 12.59375 11.796875 13.4375 10.34375 
Q 14.296875 8.90625 15.640625 8 
Q 17 7.09375 18.796875 6.6875 
Q 20.59375 6.296875 22.59375 6.296875 
Q 26.796875 6.296875 29.796875 7.4375 
Q 32.796875 8.59375 34.6875 10.34375 
Q 36.59375 12.09375 37.5 14.140625 
Q 38.40625 16.203125 38.40625 18 
z
" id="HelveticaNeue-97"/>
        <path d="M 6.40625 51.703125 
L 6.40625 0 
L 14.90625 0 
L 14.90625 29.203125 
Q 14.90625 32.703125 15.84375 35.640625 
Q 16.796875 38.59375 18.6875 40.796875 
Q 20.59375 43 23.4375 44.203125 
Q 26.296875 45.40625 30.203125 45.40625 
Q 35.09375 45.40625 37.890625 42.59375 
Q 40.703125 39.796875 40.703125 35 
L 40.703125 0 
L 49.203125 0 
L 49.203125 34 
Q 49.203125 38.203125 48.34375 41.640625 
Q 47.5 45.09375 45.390625 47.59375 
Q 43.296875 50.09375 39.890625 51.5 
Q 36.5 52.90625 31.40625 52.90625 
Q 19.90625 52.90625 14.59375 43.5 
L 14.40625 43.5 
L 14.40625 51.703125 
z
" id="HelveticaNeue-110"/>
       </defs>
       <use xlink:href="#HelveticaNeue-74"/>
       <use x="51.899994" xlink:href="#HelveticaNeue-97"/>
       <use x="105.599991" xlink:href="#HelveticaNeue-110"/>
      </g>
      <!-- 2021 -->
      <g style="fill:#555555;" transform="translate(294.13067 287.179688)scale(0.1 -0.1)">
       <defs>
        <path d="M 4.40625 45.796875 
L 12.90625 45.796875 
Q 12.796875 49 13.546875 52.140625 
Q 14.296875 55.296875 16 57.796875 
Q 17.703125 60.296875 20.34375 61.84375 
Q 23 63.40625 26.703125 63.40625 
Q 29.5 63.40625 32 62.5 
Q 34.5 61.59375 36.34375 59.890625 
Q 38.203125 58.203125 39.296875 55.84375 
Q 40.40625 53.5 40.40625 50.59375 
Q 40.40625 46.90625 39.25 44.09375 
Q 38.09375 41.296875 35.84375 38.890625 
Q 33.59375 36.5 30.1875 34.140625 
Q 26.796875 31.796875 22.296875 29 
Q 18.59375 26.796875 15.1875 24.296875 
Q 11.796875 21.796875 9.09375 18.5 
Q 6.40625 15.203125 4.65625 10.75 
Q 2.90625 6.296875 2.40625 0 
L 48.703125 0 
L 48.703125 7.5 
L 12.296875 7.5 
Q 12.90625 10.796875 14.84375 13.34375 
Q 16.796875 15.90625 19.546875 18.09375 
Q 22.296875 20.296875 25.59375 22.25 
Q 28.90625 24.203125 32.203125 26.203125 
Q 35.5 28.296875 38.59375 30.59375 
Q 41.703125 32.90625 44.09375 35.75 
Q 46.5 38.59375 47.953125 42.1875 
Q 49.40625 45.796875 49.40625 50.5 
Q 49.40625 55.5 47.65625 59.296875 
Q 45.90625 63.09375 42.90625 65.640625 
Q 39.90625 68.203125 35.84375 69.546875 
Q 31.796875 70.90625 27.203125 70.90625 
Q 21.59375 70.90625 17.1875 69 
Q 12.796875 67.09375 9.84375 63.75 
Q 6.90625 60.40625 5.5 55.796875 
Q 4.09375 51.203125 4.40625 45.796875 
z
" id="HelveticaNeue-50"/>
        <path d="M 13.203125 34.90625 
Q 13.203125 37.5 13.25 40.640625 
Q 13.296875 43.796875 13.75 46.9375 
Q 14.203125 50.09375 15.046875 53.09375 
Q 15.90625 56.09375 17.546875 58.34375 
Q 19.203125 60.59375 21.703125 62 
Q 24.203125 63.40625 27.796875 63.40625 
Q 31.40625 63.40625 33.90625 62 
Q 36.40625 60.59375 38.046875 58.34375 
Q 39.703125 56.09375 40.546875 53.09375 
Q 41.40625 50.09375 41.84375 46.9375 
Q 42.296875 43.796875 42.34375 40.640625 
Q 42.40625 37.5 42.40625 34.90625 
Q 42.40625 30.90625 42.15625 25.953125 
Q 41.90625 21 40.546875 16.640625 
Q 39.203125 12.296875 36.203125 9.296875 
Q 33.203125 6.296875 27.796875 6.296875 
Q 22.40625 6.296875 19.40625 9.296875 
Q 16.40625 12.296875 15.046875 16.640625 
Q 13.703125 21 13.453125 25.953125 
Q 13.203125 30.90625 13.203125 34.90625 
z
M 4.203125 34.796875 
Q 4.203125 30.90625 4.390625 26.703125 
Q 4.59375 22.5 5.390625 18.5 
Q 6.203125 14.5 7.703125 10.953125 
Q 9.203125 7.40625 11.796875 4.703125 
Q 14.40625 2 18.34375 0.453125 
Q 22.296875 -1.09375 27.796875 -1.09375 
Q 33.40625 -1.09375 37.296875 0.453125 
Q 41.203125 2 43.796875 4.703125 
Q 46.40625 7.40625 47.90625 10.953125 
Q 49.40625 14.5 50.203125 18.5 
Q 51 22.5 51.203125 26.703125 
Q 51.40625 30.90625 51.40625 34.796875 
Q 51.40625 38.703125 51.203125 42.890625 
Q 51 47.09375 50.203125 51.09375 
Q 49.40625 55.09375 47.90625 58.6875 
Q 46.40625 62.296875 43.796875 65 
Q 41.203125 67.703125 37.25 69.296875 
Q 33.296875 70.90625 27.796875 70.90625 
Q 22.296875 70.90625 18.34375 69.296875 
Q 14.40625 67.703125 11.796875 65 
Q 9.203125 62.296875 7.703125 58.6875 
Q 6.203125 55.09375 5.390625 51.09375 
Q 4.59375 47.09375 4.390625 42.890625 
Q 4.203125 38.703125 4.203125 34.796875 
z
" id="HelveticaNeue-48"/>
        <path d="M 35.59375 0 
L 35.59375 70.90625 
L 29.09375 70.90625 
Q 28.40625 66.90625 26.5 64.296875 
Q 24.59375 61.703125 21.84375 60.203125 
Q 19.09375 58.703125 15.6875 58.140625 
Q 12.296875 57.59375 8.703125 57.59375 
L 8.703125 50.796875 
L 27.09375 50.796875 
L 27.09375 0 
z
" id="HelveticaNeue-49"/>
       </defs>
       <use xlink:href="#HelveticaNeue-50"/>
       <use x="55.599991" xlink:href="#HelveticaNeue-48"/>
       <use x="111.199982" xlink:href="#HelveticaNeue-50"/>
       <use x="166.799973" xlink:href="#HelveticaNeue-49"/>
      </g>
     </g>
    </g>
    <g id="xtick_5">
     <g id="line2d_5">
      <g>
       <use style="fill:#555555;stroke:#555555;stroke-width:0.8;" x="386.165893" xlink:href="#mf6aac4428e" y="262.5"/>
      </g>
     </g>
     <g id="text_4">
      <!-- Apr -->
      <g style="fill:#555555;" transform="translate(378.296362 276.640625)scale(0.1 -0.1)">
       <defs>
        <path d="M 20.09375 29.5 
L 32.203125 62.796875 
L 32.40625 62.796875 
L 44.296875 29.5 
z
M 27.203125 71.40625 
L -0.59375 0 
L 9.09375 0 
L 17.09375 21.5 
L 47.296875 21.5 
L 55.09375 0 
L 65.59375 0 
L 37.703125 71.40625 
z
" id="HelveticaNeue-65"/>
        <path d="M 6.703125 51.703125 
L 6.703125 -19.703125 
L 15.203125 -19.703125 
L 15.203125 6.90625 
L 15.40625 6.90625 
Q 16.796875 4.59375 18.84375 3.046875 
Q 20.90625 1.5 23.203125 0.59375 
Q 25.5 -0.296875 27.84375 -0.6875 
Q 30.203125 -1.09375 32.09375 -1.09375 
Q 38 -1.09375 42.453125 1 
Q 46.90625 3.09375 49.84375 6.75 
Q 52.796875 10.40625 54.25 15.296875 
Q 55.703125 20.203125 55.703125 25.703125 
Q 55.703125 31.203125 54.203125 36.09375 
Q 52.703125 41 49.75 44.75 
Q 46.796875 48.5 42.34375 50.703125 
Q 37.90625 52.90625 31.90625 52.90625 
Q 26.5 52.90625 22 50.953125 
Q 17.5 49 15.40625 44.703125 
L 15.203125 44.703125 
L 15.203125 51.703125 
z
M 46.703125 26.296875 
Q 46.703125 22.5 45.890625 18.890625 
Q 45.09375 15.296875 43.296875 12.5 
Q 41.5 9.703125 38.546875 8 
Q 35.59375 6.296875 31.203125 6.296875 
Q 26.796875 6.296875 23.6875 7.9375 
Q 20.59375 9.59375 18.640625 12.296875 
Q 16.703125 15 15.796875 18.546875 
Q 14.90625 22.09375 14.90625 25.90625 
Q 14.90625 29.5 15.75 33 
Q 16.59375 36.5 18.5 39.25 
Q 20.40625 42 23.40625 43.703125 
Q 26.40625 45.40625 30.703125 45.40625 
Q 34.796875 45.40625 37.84375 43.796875 
Q 40.90625 42.203125 42.84375 39.5 
Q 44.796875 36.796875 45.75 33.34375 
Q 46.703125 29.90625 46.703125 26.296875 
z
" id="HelveticaNeue-112"/>
        <path d="M 6.09375 51.703125 
L 6.09375 0 
L 14.59375 0 
L 14.59375 23 
Q 14.59375 28 15.59375 31.84375 
Q 16.59375 35.703125 18.796875 38.390625 
Q 21 41.09375 24.59375 42.5 
Q 28.203125 43.90625 33.296875 43.90625 
L 33.296875 52.90625 
Q 26.40625 53.09375 21.90625 50.09375 
Q 17.40625 47.09375 14.296875 40.796875 
L 14.09375 40.796875 
L 14.09375 51.703125 
z
" id="HelveticaNeue-114"/>
       </defs>
       <use xlink:href="#HelveticaNeue-65"/>
       <use x="64.799988" xlink:href="#HelveticaNeue-112"/>
       <use x="124.099976" xlink:href="#HelveticaNeue-114"/>
      </g>
     </g>
    </g>
    <g id="xtick_6">
     <g id="line2d_6">
      <g>
       <use style="fill:#555555;stroke:#555555;stroke-width:0.8;" x="450" xlink:href="#mf6aac4428e" y="262.5"/>
      </g>
     </g>
    </g>
    <g id="xtick_7">
     <g id="line2d_7">
      <defs>
       <path d="M 0 0 
L 0 2 
" id="m2360554b69" style="stroke:#555555;stroke-width:0.6;"/>
      </defs>
      <g>
       <use style="fill:#555555;stroke:#555555;stroke-width:0.6;" x="84.976798" xlink:href="#m2360554b69" y="262.5"/>
      </g>
     </g>
    </g>
    <g id="xtick_8">
     <g id="line2d_8">
      <g>
       <use style="fill:#555555;stroke:#555555;stroke-width:0.6;" x="112.848028" xlink:href="#m2360554b69" y="262.5"/>
      </g>
     </g>
    </g>
    <g id="xtick_9">
     <g id="line2d_9">
      <g>
       <use style="fill:#555555;stroke:#555555;stroke-width:0.6;" x="167.691415" xlink:href="#m2360554b69" y="262.5"/>
      </g>
     </g>
    </g>
    <g id="xtick_10">
     <g id="line2d_10">
      <g>
       <use style="fill:#555555;stroke:#555555;stroke-width:0.6;" x="195.562645" xlink:href="#m2360554b69" y="262.5"/>
      </g>
     </g>
    </g>
    <g id="xtick_11">
     <g id="line2d_11">
      <g>
       <use style="fill:#555555;stroke:#555555;stroke-width:0.6;" x="250.406032" xlink:href="#m2360554b69" y="262.5"/>
      </g>
     </g>
    </g>
    <g id="xtick_12">
     <g id="line2d_12">
      <g>
       <use style="fill:#555555;stroke:#555555;stroke-width:0.6;" x="277.37819" xlink:href="#m2360554b69" y="262.5"/>
      </g>
     </g>
    </g>
    <g id="xtick_13">
     <g id="line2d_13">
      <g>
       <use style="fill:#555555;stroke:#555555;stroke-width:0.6;" x="333.12065" xlink:href="#m2360554b69" y="262.5"/>
      </g>
     </g>
    </g>
    <g id="xtick_14">
     <g id="line2d_14">
      <g>
       <use style="fill:#555555;stroke:#555555;stroke-width:0.6;" x="358.294664" xlink:href="#m2360554b69" y="262.5"/>
      </g>
     </g>
    </g>
    <g id="xtick_15">
     <g id="line2d_15">
      <g>
       <use style="fill:#555555;stroke:#555555;stroke-width:0.6;" x="413.138051" xlink:href="#m2360554b69" y="262.5"/>
      </g>
     </g>
    </g>
    <g id="xtick_16">
     <g id="line2d_16">
      <g>
       <use style="fill:#555555;stroke:#555555;stroke-width:0.6;" x="441.009281" xlink:href="#m2360554b69" y="262.5"/>
      </g>
     </g>
    </g>
    <g id="text_5">
     <!-- fecha -->
     <g style="fill:#555555;" transform="translate(243.935156 300.290625)scale(0.1 -0.1)">
      <defs>
       <path d="M 9.90625 44.203125 
L 9.90625 0 
L 18.40625 0 
L 18.40625 44.203125 
L 28.40625 44.203125 
L 28.40625 51.703125 
L 18.40625 51.703125 
L 18.40625 58.90625 
Q 18.40625 62.296875 20.09375 63.5 
Q 21.796875 64.703125 24.90625 64.703125 
Q 26 64.703125 27.296875 64.546875 
Q 28.59375 64.40625 29.703125 64 
L 29.703125 71.40625 
Q 28.5 71.796875 26.953125 72 
Q 25.40625 72.203125 24.203125 72.203125 
Q 17.203125 72.203125 13.546875 68.953125 
Q 9.90625 65.703125 9.90625 59.40625 
L 9.90625 51.703125 
L 1.203125 51.703125 
L 1.203125 44.203125 
z
" id="HelveticaNeue-102"/>
       <path d="M 42.296875 30.796875 
L 12.59375 30.796875 
Q 12.796875 33.796875 13.890625 36.4375 
Q 15 39.09375 16.890625 41.09375 
Q 18.796875 43.09375 21.4375 44.25 
Q 24.09375 45.40625 27.40625 45.40625 
Q 30.59375 45.40625 33.25 44.25 
Q 35.90625 43.09375 37.84375 41.140625 
Q 39.796875 39.203125 40.9375 36.5 
Q 42.09375 33.796875 42.296875 30.796875 
z
M 50.5 16.40625 
L 42.09375 16.40625 
Q 41 11.296875 37.546875 8.796875 
Q 34.09375 6.296875 28.703125 6.296875 
Q 24.5 6.296875 21.390625 7.6875 
Q 18.296875 9.09375 16.296875 11.4375 
Q 14.296875 13.796875 13.390625 16.84375 
Q 12.5 19.90625 12.59375 23.296875 
L 51.296875 23.296875 
Q 51.5 28 50.453125 33.203125 
Q 49.40625 38.40625 46.65625 42.796875 
Q 43.90625 47.203125 39.34375 50.046875 
Q 34.796875 52.90625 27.90625 52.90625 
Q 22.59375 52.90625 18.140625 50.90625 
Q 13.703125 48.90625 10.453125 45.296875 
Q 7.203125 41.703125 5.390625 36.796875 
Q 3.59375 31.90625 3.59375 26 
Q 3.796875 20.09375 5.34375 15.09375 
Q 6.90625 10.09375 10 6.5 
Q 13.09375 2.90625 17.640625 0.90625 
Q 22.203125 -1.09375 28.40625 -1.09375 
Q 37.203125 -1.09375 43 3.296875 
Q 48.796875 7.703125 50.5 16.40625 
z
" id="HelveticaNeue-101"/>
       <path d="M 6.40625 71.40625 
L 6.40625 0 
L 14.90625 0 
L 14.90625 29.203125 
Q 14.90625 32.703125 15.84375 35.640625 
Q 16.796875 38.59375 18.6875 40.796875 
Q 20.59375 43 23.4375 44.203125 
Q 26.296875 45.40625 30.203125 45.40625 
Q 35.09375 45.40625 37.890625 42.59375 
Q 40.703125 39.796875 40.703125 35 
L 40.703125 0 
L 49.203125 0 
L 49.203125 34 
Q 49.203125 38.203125 48.34375 41.640625 
Q 47.5 45.09375 45.390625 47.59375 
Q 43.296875 50.09375 39.890625 51.5 
Q 36.5 52.90625 31.40625 52.90625 
Q 29.09375 52.90625 26.640625 52.40625 
Q 24.203125 51.90625 21.953125 50.84375 
Q 19.703125 49.796875 17.890625 48.140625 
Q 16.09375 46.5 15.09375 44.09375 
L 14.90625 44.09375 
L 14.90625 71.40625 
z
" id="HelveticaNeue-104"/>
      </defs>
      <use xlink:href="#HelveticaNeue-102"/>
      <use x="29.599991" xlink:href="#HelveticaNeue-101"/>
      <use x="83.299988" xlink:href="#HelveticaNeue-99"/>
      <use x="136.999985" xlink:href="#HelveticaNeue-104"/>
      <use x="192.599976" xlink:href="#HelveticaNeue-97"/>
     </g>
    </g>
   </g>
   <g id="matplotlib.axis_2">
    <g id="ytick_1">
     <g id="line2d_17">
      <defs>
       <path d="M 0 0 
L -3.5 0 
" id="m7e85f523cb" style="stroke:#555555;stroke-width:0.8;"/>
      </defs>
      <g>
       <use style="fill:#555555;stroke:#555555;stroke-width:0.8;" x="62.5" xlink:href="#m7e85f523cb" y="251.795455"/>
      </g>
     </g>
     <g id="text_6">
      <!-- 0 -->
      <g style="fill:#555555;" transform="translate(49.940625 255.365767)scale(0.1 -0.1)">
       <use xlink:href="#HelveticaNeue-48"/>
      </g>
     </g>
    </g>
    <g id="ytick_2">
     <g id="line2d_18">
      <g>
       <use style="fill:#555555;stroke:#555555;stroke-width:0.8;" x="62.5" xlink:href="#m7e85f523cb" y="220.767787"/>
      </g>
     </g>
     <g id="text_7">
      <!-- 20 -->
      <g style="fill:#555555;" transform="translate(44.38125 224.338099)scale(0.1 -0.1)">
       <use xlink:href="#HelveticaNeue-50"/>
       <use x="55.599991" xlink:href="#HelveticaNeue-48"/>
      </g>
     </g>
    </g>
    <g id="ytick_3">
     <g id="line2d_19">
      <g>
       <use style="fill:#555555;stroke:#555555;stroke-width:0.8;" x="62.5" xlink:href="#m7e85f523cb" y="189.740119"/>
      </g>
     </g>
     <g id="text_8">
      <!-- 40 -->
      <g style="fill:#555555;" transform="translate(44.38125 193.310431)scale(0.1 -0.1)">
       <defs>
        <path d="M 33.90625 24.09375 
L 10.09375 24.09375 
L 33.703125 58.796875 
L 33.90625 58.796875 
z
M 41.90625 24.09375 
L 41.90625 70.90625 
L 35.09375 70.90625 
L 2.796875 24.796875 
L 2.796875 16.59375 
L 33.90625 16.59375 
L 33.90625 0 
L 41.90625 0 
L 41.90625 16.59375 
L 51.5 16.59375 
L 51.5 24.09375 
z
" id="HelveticaNeue-52"/>
       </defs>
       <use xlink:href="#HelveticaNeue-52"/>
       <use x="55.599991" xlink:href="#HelveticaNeue-48"/>
      </g>
     </g>
    </g>
    <g id="ytick_4">
     <g id="line2d_20">
      <g>
       <use style="fill:#555555;stroke:#555555;stroke-width:0.8;" x="62.5" xlink:href="#m7e85f523cb" y="158.712451"/>
      </g>
     </g>
     <g id="text_9">
      <!-- 60 -->
      <g style="fill:#555555;" transform="translate(44.38125 162.282763)scale(0.1 -0.1)">
       <defs>
        <path d="M 41.40625 52.796875 
L 49.90625 52.796875 
Q 49.09375 61.59375 43.890625 66.25 
Q 38.703125 70.90625 29.90625 70.90625 
Q 22.296875 70.90625 17.296875 67.703125 
Q 12.296875 64.5 9.296875 59.203125 
Q 6.296875 53.90625 5.046875 47.046875 
Q 3.796875 40.203125 3.796875 32.90625 
Q 3.796875 27.296875 4.640625 21.296875 
Q 5.5 15.296875 8.09375 10.296875 
Q 10.703125 5.296875 15.5 2.09375 
Q 20.296875 -1.09375 28.203125 -1.09375 
Q 34.90625 -1.09375 39.453125 1.15625 
Q 44 3.40625 46.75 6.84375 
Q 49.5 10.296875 50.703125 14.5 
Q 51.90625 18.703125 51.90625 22.59375 
Q 51.90625 27.5 50.40625 31.703125 
Q 48.90625 35.90625 46.15625 39 
Q 43.40625 42.09375 39.34375 43.84375 
Q 35.296875 45.59375 30.203125 45.59375 
Q 24.40625 45.59375 19.953125 43.390625 
Q 15.5 41.203125 12.5 36.296875 
L 12.296875 36.5 
Q 12.40625 40.59375 13.09375 45.296875 
Q 13.796875 50 15.640625 54.046875 
Q 17.5 58.09375 20.796875 60.75 
Q 24.09375 63.40625 29.5 63.40625 
Q 34.59375 63.40625 37.6875 60.5 
Q 40.796875 57.59375 41.40625 52.796875 
z
M 28.59375 38.09375 
Q 32.203125 38.09375 34.890625 36.796875 
Q 37.59375 35.5 39.390625 33.34375 
Q 41.203125 31.203125 42.046875 28.25 
Q 42.90625 25.296875 42.90625 22 
Q 42.90625 18.90625 41.953125 16.046875 
Q 41 13.203125 39.203125 11 
Q 37.40625 8.796875 34.75 7.546875 
Q 32.09375 6.296875 28.59375 6.296875 
Q 25.09375 6.296875 22.34375 7.546875 
Q 19.59375 8.796875 17.75 10.890625 
Q 15.90625 13 14.90625 15.890625 
Q 13.90625 18.796875 13.90625 22.09375 
Q 13.90625 25.40625 14.84375 28.34375 
Q 15.796875 31.296875 17.6875 33.4375 
Q 19.59375 35.59375 22.296875 36.84375 
Q 25 38.09375 28.59375 38.09375 
z
" id="HelveticaNeue-54"/>
       </defs>
       <use xlink:href="#HelveticaNeue-54"/>
       <use x="55.599991" xlink:href="#HelveticaNeue-48"/>
      </g>
     </g>
    </g>
    <g id="ytick_5">
     <g id="line2d_21">
      <g>
       <use style="fill:#555555;stroke:#555555;stroke-width:0.8;" x="62.5" xlink:href="#m7e85f523cb" y="127.684783"/>
      </g>
     </g>
     <g id="text_10">
      <!-- 80 -->
      <g style="fill:#555555;" transform="translate(44.38125 131.255095)scale(0.1 -0.1)">
       <defs>
        <path d="M 15.5 52.5 
Q 15.5 55.203125 16.5 57.203125 
Q 17.5 59.203125 19.140625 60.59375 
Q 20.796875 62 23.09375 62.703125 
Q 25.40625 63.40625 27.90625 63.40625 
Q 33.09375 63.40625 36.4375 60.65625 
Q 39.796875 57.90625 39.796875 52.5 
Q 39.796875 47.09375 36.5 44.09375 
Q 33.203125 41.09375 28.09375 41.09375 
Q 25.5 41.09375 23.203125 41.796875 
Q 20.90625 42.5 19.203125 43.890625 
Q 17.5 45.296875 16.5 47.4375 
Q 15.5 49.59375 15.5 52.5 
z
M 6.5 52.796875 
Q 6.5 48 9.203125 43.953125 
Q 11.90625 39.90625 16.40625 38.09375 
Q 10.40625 36 7.203125 31.34375 
Q 4 26.703125 4 20.40625 
Q 4 15 5.84375 10.953125 
Q 7.703125 6.90625 10.953125 4.203125 
Q 14.203125 1.5 18.59375 0.203125 
Q 23 -1.09375 28.09375 -1.09375 
Q 33 -1.09375 37.296875 0.296875 
Q 41.59375 1.703125 44.75 4.453125 
Q 47.90625 7.203125 49.75 11.203125 
Q 51.59375 15.203125 51.59375 20.40625 
Q 51.59375 27 48.5 31.546875 
Q 45.40625 36.09375 39 38.09375 
Q 43.5 40.09375 46.140625 44.046875 
Q 48.796875 48 48.796875 52.796875 
Q 48.796875 56.203125 47.59375 59.453125 
Q 46.40625 62.703125 43.84375 65.25 
Q 41.296875 67.796875 37.1875 69.34375 
Q 33.09375 70.90625 27.296875 70.90625 
Q 23.203125 70.90625 19.453125 69.703125 
Q 15.703125 68.5 12.796875 66.203125 
Q 9.90625 63.90625 8.203125 60.546875 
Q 6.5 57.203125 6.5 52.796875 
z
M 13 20 
Q 13 23.09375 14.140625 25.59375 
Q 15.296875 28.09375 17.34375 29.890625 
Q 19.40625 31.703125 22.15625 32.640625 
Q 24.90625 33.59375 28 33.59375 
Q 31 33.59375 33.640625 32.546875 
Q 36.296875 31.5 38.296875 29.703125 
Q 40.296875 27.90625 41.4375 25.453125 
Q 42.59375 23 42.59375 20.09375 
Q 42.59375 17.09375 41.546875 14.59375 
Q 40.5 12.09375 38.546875 10.25 
Q 36.59375 8.40625 33.9375 7.34375 
Q 31.296875 6.296875 28.09375 6.296875 
Q 21.5 6.296875 17.25 9.9375 
Q 13 13.59375 13 20 
z
" id="HelveticaNeue-56"/>
       </defs>
       <use xlink:href="#HelveticaNeue-56"/>
       <use x="55.599991" xlink:href="#HelveticaNeue-48"/>
      </g>
     </g>
    </g>
    <g id="ytick_6">
     <g id="line2d_22">
      <g>
       <use style="fill:#555555;stroke:#555555;stroke-width:0.8;" x="62.5" xlink:href="#m7e85f523cb" y="96.657115"/>
      </g>
     </g>
     <g id="text_11">
      <!-- 100 -->
      <g style="fill:#555555;" transform="translate(38.821875 100.227427)scale(0.1 -0.1)">
       <use xlink:href="#HelveticaNeue-49"/>
       <use x="55.599991" xlink:href="#HelveticaNeue-48"/>
       <use x="111.199982" xlink:href="#HelveticaNeue-48"/>
      </g>
     </g>
    </g>
    <g id="ytick_7">
     <g id="line2d_23">
      <g>
       <use style="fill:#555555;stroke:#555555;stroke-width:0.8;" x="62.5" xlink:href="#m7e85f523cb" y="65.629447"/>
      </g>
     </g>
     <g id="text_12">
      <!-- 120 -->
      <g style="fill:#555555;" transform="translate(38.821875 69.199759)scale(0.1 -0.1)">
       <use xlink:href="#HelveticaNeue-49"/>
       <use x="55.599991" xlink:href="#HelveticaNeue-50"/>
       <use x="111.199982" xlink:href="#HelveticaNeue-48"/>
      </g>
     </g>
    </g>
    <g id="ytick_8">
     <g id="line2d_24">
      <g>
       <use style="fill:#555555;stroke:#555555;stroke-width:0.8;" x="62.5" xlink:href="#m7e85f523cb" y="34.601779"/>
      </g>
     </g>
     <g id="text_13">
      <!-- 140 -->
      <g style="fill:#555555;" transform="translate(38.821875 38.172091)scale(0.1 -0.1)">
       <use xlink:href="#HelveticaNeue-49"/>
       <use x="55.599991" xlink:href="#HelveticaNeue-52"/>
       <use x="111.199982" xlink:href="#HelveticaNeue-48"/>
      </g>
     </g>
    </g>
   </g>
   <g id="line2d_25">
    <path clip-path="url(#p3bd3c6166c)" d="M 63.399072 250.244071 
L 64.298144 251.795455 
L 65.197216 250.244071 
L 66.096288 251.795455 
L 66.99536 250.244071 
L 67.894432 251.795455 
L 68.793503 251.795455 
L 69.692575 248.692688 
L 70.591647 251.795455 
L 71.490719 250.244071 
L 72.389791 251.795455 
L 73.288863 250.244071 
L 74.187935 244.038538 
L 75.087007 251.795455 
L 75.986079 250.244071 
L 76.885151 251.795455 
L 77.784223 250.244071 
L 78.683295 251.795455 
L 79.582367 247.141304 
L 80.481439 250.244071 
L 81.38051 250.244071 
L 82.279582 251.795455 
L 83.178654 251.795455 
L 84.077726 250.244071 
L 84.976798 251.795455 
L 85.87587 250.244071 
L 86.774942 244.038538 
L 87.674014 251.795455 
L 88.573086 251.795455 
L 89.472158 250.244071 
L 90.37123 242.487154 
L 91.270302 247.141304 
L 92.169374 220.767787 
L 93.068445 220.767787 
L 93.967517 248.692688 
L 94.866589 250.244071 
L 95.765661 250.244071 
L 96.664733 248.692688 
L 97.563805 245.589921 
L 98.462877 251.795455 
L 99.361949 245.589921 
L 100.261021 248.692688 
L 101.160093 247.141304 
L 102.059165 250.244071 
L 103.857309 240.935771 
L 104.756381 247.141304 
L 105.655452 245.589921 
L 106.554524 186.637352 
L 107.453596 239.384387 
L 108.352668 247.141304 
L 109.25174 245.589921 
L 110.150812 247.141304 
L 111.049884 247.141304 
L 111.948956 242.487154 
L 112.848028 250.244071 
L 113.7471 239.384387 
L 114.646172 239.384387 
L 115.545244 245.589921 
L 116.444316 239.384387 
L 117.343387 245.589921 
L 118.242459 242.487154 
L 119.141531 248.692688 
L 120.040603 242.487154 
L 120.939675 239.384387 
L 121.838747 250.244071 
L 122.737819 239.384387 
L 123.636891 247.141304 
L 124.535963 245.589921 
L 125.435035 245.589921 
L 126.334107 242.487154 
L 127.233179 233.178854 
L 128.132251 166.469368 
L 129.031323 209.908103 
L 129.930394 219.216403 
L 130.829466 191.291502 
L 131.728538 236.281621 
L 132.62761 234.730237 
L 133.526682 197.497036 
L 134.425754 225.421937 
L 135.324826 222.31917 
L 136.223898 213.01087 
L 137.12297 214.562253 
L 138.022042 233.178854 
L 138.921114 205.253953 
L 139.820186 220.767787 
L 140.719258 84.246047 
L 141.618329 237.833004 
L 142.517401 161.815217 
L 143.416473 237.833004 
L 144.315545 223.870553 
L 145.214617 220.767787 
L 146.113689 154.0583 
L 147.012761 205.253953 
L 147.911833 222.31917 
L 148.810905 197.497036 
L 149.709977 160.263834 
L 150.609049 211.459486 
L 152.407193 202.151186 
L 153.306265 143.198617 
L 154.205336 199.048419 
L 155.104408 177.329051 
L 156.00348 209.908103 
L 156.902552 213.01087 
L 157.801624 163.366601 
L 158.700696 171.123518 
L 159.599768 174.226285 
L 160.49884 154.0583 
L 161.397912 203.702569 
L 162.296984 213.01087 
L 163.196056 183.534585 
L 164.095128 189.740119 
L 164.9942 191.291502 
L 165.893271 188.188735 
L 166.792343 189.740119 
L 167.691415 160.263834 
L 168.590487 149.40415 
L 169.489559 203.702569 
L 170.388631 147.852767 
L 171.287703 110.619565 
L 172.186775 208.356719 
L 173.085847 205.253953 
L 173.984919 186.637352 
L 174.883991 180.431818 
L 175.783063 177.329051 
L 176.682135 132.338933 
L 177.581206 186.637352 
L 178.480278 202.151186 
L 179.37935 169.572134 
L 180.278422 168.020751 
L 181.177494 220.767787 
L 182.975638 155.609684 
L 183.87471 169.572134 
L 184.773782 168.020751 
L 185.672854 189.740119 
L 186.571926 206.805336 
L 187.470998 166.469368 
L 188.37007 185.085968 
L 189.269142 126.133399 
L 190.168213 154.0583 
L 191.067285 230.076087 
L 191.966357 175.777668 
L 192.865429 180.431818 
L 193.764501 219.216403 
L 194.663573 172.674901 
L 195.562645 214.562253 
L 196.461717 211.459486 
L 198.259861 217.66502 
L 199.158933 222.31917 
L 200.058005 234.730237 
L 200.957077 205.253953 
L 201.856148 213.01087 
L 202.75522 222.31917 
L 203.654292 202.151186 
L 204.553364 206.805336 
L 205.452436 205.253953 
L 206.351508 231.62747 
L 207.25058 216.113636 
L 208.149652 205.253953 
L 209.048724 219.216403 
L 209.947796 174.226285 
L 210.846868 205.253953 
L 211.74594 216.113636 
L 212.645012 236.281621 
L 213.544084 233.178854 
L 214.443155 219.216403 
L 215.342227 202.151186 
L 216.241299 195.945652 
L 217.140371 222.31917 
L 218.039443 226.97332 
L 218.938515 228.524704 
L 219.837587 236.281621 
L 220.736659 214.562253 
L 221.635731 233.178854 
L 222.534803 211.459486 
L 223.433875 194.394269 
L 224.332947 206.805336 
L 225.232019 217.66502 
L 226.13109 222.31917 
L 227.030162 225.421937 
L 227.929234 223.870553 
L 228.828306 206.805336 
L 229.727378 226.97332 
L 230.62645 177.329051 
L 231.525522 226.97332 
L 232.424594 228.524704 
L 233.323666 240.935771 
L 234.222738 228.524704 
L 235.12181 222.31917 
L 236.020882 214.562253 
L 236.919954 217.66502 
L 237.819026 203.702569 
L 238.718097 219.216403 
L 239.617169 223.870553 
L 240.516241 219.216403 
L 241.415313 200.599802 
L 242.314385 214.562253 
L 243.213457 214.562253 
L 244.112529 216.113636 
L 245.011601 214.562253 
L 245.910673 208.356719 
L 246.809745 209.908103 
L 247.708817 197.497036 
L 248.607889 213.01087 
L 249.506961 222.31917 
L 251.305104 216.113636 
L 252.204176 211.459486 
L 253.103248 192.842885 
L 254.00232 226.97332 
L 255.800464 211.459486 
L 256.699536 214.562253 
L 257.598608 216.113636 
L 258.49768 206.805336 
L 259.396752 216.113636 
L 260.295824 226.97332 
L 261.194896 222.31917 
L 262.093968 225.421937 
L 262.993039 230.076087 
L 263.892111 226.97332 
L 264.791183 199.048419 
L 265.690255 219.216403 
L 266.589327 206.805336 
L 267.488399 217.66502 
L 268.387471 194.394269 
L 269.286543 217.66502 
L 270.185615 195.945652 
L 271.084687 203.702569 
L 271.983759 172.674901 
L 272.882831 175.777668 
L 273.781903 161.815217 
L 274.680974 216.113636 
L 275.580046 219.216403 
L 276.479118 206.805336 
L 277.37819 197.497036 
L 278.277262 203.702569 
L 279.176334 208.356719 
L 280.075406 188.188735 
L 280.974478 194.394269 
L 281.87355 223.870553 
L 282.772622 189.740119 
L 283.671694 211.459486 
L 284.570766 186.637352 
L 285.469838 183.534585 
L 286.36891 183.534585 
L 287.267981 208.356719 
L 288.167053 195.945652 
L 289.066125 200.599802 
L 289.965197 154.0583 
L 290.864269 126.133399 
L 291.763341 202.151186 
L 292.662413 147.852767 
L 293.561485 205.253953 
L 294.460557 177.329051 
L 295.359629 208.356719 
L 296.258701 147.852767 
L 297.157773 183.534585 
L 298.056845 178.880435 
L 298.955916 219.216403 
L 299.854988 191.291502 
L 300.75406 209.908103 
L 301.653132 164.917984 
L 302.552204 87.348814 
L 303.451276 133.890316 
L 304.350348 168.020751 
L 305.24942 216.113636 
L 306.148492 157.161067 
L 307.047564 169.572134 
L 307.946636 168.020751 
L 308.845708 147.852767 
L 309.74478 132.338933 
L 310.643852 138.544466 
L 311.542923 135.4417 
L 312.441995 158.712451 
L 313.341067 194.394269 
L 314.240139 195.945652 
L 315.139211 85.797431 
L 316.038283 138.544466 
L 316.937355 163.366601 
L 317.836427 126.133399 
L 318.735499 105.965415 
L 319.634571 88.900198 
L 320.533643 140.09585 
L 321.432715 138.544466 
L 322.331787 154.0583 
L 323.230858 158.712451 
L 324.12993 154.0583 
L 325.029002 161.815217 
L 325.928074 200.599802 
L 326.827146 158.712451 
L 327.726218 200.599802 
L 328.62529 147.852767 
L 329.524362 183.534585 
L 330.423434 209.908103 
L 331.322506 209.908103 
L 332.221578 199.048419 
L 333.12065 195.945652 
L 334.019722 199.048419 
L 334.918794 219.216403 
L 335.817865 216.113636 
L 336.716937 206.805336 
L 337.616009 214.562253 
L 338.515081 219.216403 
L 339.414153 213.01087 
L 340.313225 208.356719 
L 341.212297 209.908103 
L 342.111369 223.870553 
L 343.010441 216.113636 
L 343.909513 234.730237 
L 344.808585 228.524704 
L 345.707657 231.62747 
L 346.606729 228.524704 
L 347.5058 231.62747 
L 348.404872 239.384387 
L 349.303944 223.870553 
L 351.102088 242.487154 
L 352.00116 234.730237 
L 353.799304 234.730237 
L 354.698376 220.767787 
L 355.597448 234.730237 
L 356.49652 236.281621 
L 357.395592 239.384387 
L 358.294664 244.038538 
L 359.193735 231.62747 
L 360.092807 237.833004 
L 360.991879 228.524704 
L 361.890951 234.730237 
L 362.790023 239.384387 
L 363.689095 247.141304 
L 364.588167 250.244071 
L 365.487239 245.589921 
L 366.386311 244.038538 
L 367.285383 230.076087 
L 368.184455 247.141304 
L 369.083527 248.692688 
L 369.982599 239.384387 
L 370.881671 240.935771 
L 371.780742 239.384387 
L 372.679814 233.178854 
L 373.578886 242.487154 
L 374.477958 240.935771 
L 375.37703 240.935771 
L 376.276102 234.730237 
L 377.175174 250.244071 
L 378.074246 247.141304 
L 378.973318 237.833004 
L 379.87239 236.281621 
L 380.771462 225.421937 
L 381.670534 226.97332 
L 382.569606 239.384387 
L 383.468677 236.281621 
L 384.367749 209.908103 
L 385.266821 228.524704 
L 386.165893 230.076087 
L 387.064965 203.702569 
L 387.964037 222.31917 
L 388.863109 228.524704 
L 389.762181 211.459486 
L 390.661253 181.983202 
L 391.560325 223.870553 
L 392.459397 200.599802 
L 393.358469 197.497036 
L 394.257541 226.97332 
L 395.156613 206.805336 
L 396.055684 144.75 
L 396.954756 163.366601 
L 397.853828 166.469368 
L 398.7529 174.226285 
L 399.651972 174.226285 
L 400.551044 192.842885 
L 401.450116 189.740119 
L 402.349188 140.09585 
L 403.24826 157.161067 
L 404.147332 169.572134 
L 405.046404 154.0583 
L 405.945476 133.890316 
L 406.844548 186.637352 
L 407.743619 199.048419 
L 408.642691 154.0583 
L 409.541763 138.544466 
L 410.440835 157.161067 
L 411.339907 203.702569 
L 412.238979 147.852767 
L 413.138051 214.562253 
L 414.037123 169.572134 
L 414.936195 152.506917 
L 415.835267 160.263834 
L 416.734339 219.216403 
L 417.633411 70.283597 
L 418.532483 157.161067 
L 419.431555 199.048419 
L 420.330626 161.815217 
L 421.229698 164.917984 
L 422.12877 110.619565 
L 423.027842 138.544466 
L 423.926914 183.534585 
L 424.825986 164.917984 
L 425.725058 163.366601 
L 426.62413 203.702569 
L 427.523202 174.226285 
L 428.422274 168.020751 
L 429.321346 189.740119 
L 430.220418 161.815217 
L 431.11949 70.283597 
L 432.018561 107.516798 
L 432.917633 115.273715 
L 433.816705 95.105731 
L 434.715777 51.666996 
L 435.614849 119.927866 
L 436.513921 119.927866 
L 437.412993 113.722332 
L 438.312065 116.825099 
L 439.211137 123.030632 
L 440.110209 136.993083 
L 441.009281 87.348814 
L 441.908353 43.910079 
L 442.807425 92.002964 
L 444.605568 37.704545 
L 445.50464 129.236166 
L 446.403712 82.694664 
L 447.302784 113.722332 
L 448.201856 164.917984 
L 449.100928 185.085968 
L 450 217.66502 
L 450 217.66502 
" style="fill:none;stroke:#000000;stroke-dasharray:1.5,2.475;stroke-dashoffset:0;stroke-opacity:0.5;stroke-width:1.5;"/>
   </g>
   <g id="line2d_26">
    <path clip-path="url(#p3bd3c6166c)" d="M 62.5 250.244071 
L 65.197216 250.244071 
L 66.096288 251.795455 
L 66.99536 250.244071 
L 86.774942 250.244071 
L 87.674014 248.692688 
L 88.573086 248.692688 
L 89.472158 245.589921 
L 90.37123 240.935771 
L 92.169374 237.833004 
L 94.866589 242.487154 
L 96.664733 248.692688 
L 99.361949 248.692688 
L 100.261021 247.141304 
L 102.059165 247.141304 
L 102.958237 245.589921 
L 103.857309 239.384387 
L 104.756381 236.281621 
L 105.655452 234.730237 
L 107.453596 234.730237 
L 108.352668 236.281621 
L 109.25174 239.384387 
L 110.150812 245.589921 
L 111.049884 245.589921 
L 111.948956 244.038538 
L 113.7471 244.038538 
L 114.646172 242.487154 
L 116.444316 242.487154 
L 117.343387 244.038538 
L 124.535963 244.038538 
L 125.435035 234.730237 
L 127.233179 222.31917 
L 128.132251 214.562253 
L 129.031323 211.459486 
L 129.930394 211.459486 
L 130.829466 209.908103 
L 131.728538 216.113636 
L 132.62761 219.216403 
L 133.526682 217.66502 
L 134.425754 219.216403 
L 135.324826 219.216403 
L 136.223898 217.66502 
L 137.12297 219.216403 
L 138.022042 203.702569 
L 138.921114 200.599802 
L 139.820186 192.842885 
L 141.618329 192.842885 
L 142.517401 197.497036 
L 143.416473 195.945652 
L 144.315545 206.805336 
L 145.214617 203.702569 
L 146.113689 206.805336 
L 147.012761 197.497036 
L 148.810905 194.394269 
L 149.709977 199.048419 
L 150.609049 192.842885 
L 152.407193 186.637352 
L 153.306265 189.740119 
L 154.205336 189.740119 
L 155.104408 188.188735 
L 156.00348 185.085968 
L 156.902552 188.188735 
L 157.801624 181.983202 
L 159.599768 181.983202 
L 160.49884 180.431818 
L 161.397912 185.085968 
L 163.196056 191.291502 
L 164.095128 192.842885 
L 164.9942 188.188735 
L 165.893271 180.431818 
L 166.792343 180.431818 
L 167.691415 175.777668 
L 168.590487 164.917984 
L 169.489559 164.917984 
L 170.388631 166.469368 
L 171.287703 171.123518 
L 172.186775 177.329051 
L 173.984919 177.329051 
L 174.883991 181.983202 
L 176.682135 175.777668 
L 177.581206 174.226285 
L 178.480278 178.880435 
L 180.278422 185.085968 
L 181.177494 183.534585 
L 182.076566 178.880435 
L 182.975638 178.880435 
L 183.87471 181.983202 
L 184.773782 177.329051 
L 185.672854 178.880435 
L 187.470998 172.674901 
L 188.37007 175.777668 
L 189.269142 174.226285 
L 190.168213 174.226285 
L 191.067285 180.431818 
L 191.966357 183.534585 
L 192.865429 192.842885 
L 193.764501 199.048419 
L 194.663573 199.048419 
L 195.562645 203.702569 
L 196.461717 209.908103 
L 197.360789 213.01087 
L 198.259861 217.66502 
L 199.158933 217.66502 
L 200.058005 219.216403 
L 200.957077 217.66502 
L 201.856148 214.562253 
L 203.654292 211.459486 
L 204.553364 213.01087 
L 206.351508 213.01087 
L 207.25058 209.908103 
L 208.149652 208.356719 
L 209.947796 208.356719 
L 211.74594 214.562253 
L 213.544084 217.66502 
L 215.342227 217.66502 
L 216.241299 216.113636 
L 218.039443 219.216403 
L 218.938515 223.870553 
L 219.837587 225.421937 
L 220.736659 222.31917 
L 221.635731 217.66502 
L 222.534803 214.562253 
L 223.433875 213.01087 
L 224.332947 214.562253 
L 225.232019 214.562253 
L 226.13109 216.113636 
L 227.030162 219.216403 
L 227.929234 216.113636 
L 228.828306 214.562253 
L 229.727378 214.562253 
L 230.62645 216.113636 
L 232.424594 222.31917 
L 233.323666 222.31917 
L 234.222738 226.97332 
L 235.12181 222.31917 
L 236.020882 220.767787 
L 236.919954 217.66502 
L 238.718097 214.562253 
L 242.314385 214.562253 
L 244.112529 211.459486 
L 245.011601 211.459486 
L 245.910673 209.908103 
L 246.809745 209.908103 
L 248.607889 213.01087 
L 249.506961 213.01087 
L 250.406032 211.459486 
L 251.305104 214.562253 
L 252.204176 214.562253 
L 253.103248 213.01087 
L 255.800464 213.01087 
L 256.699536 216.113636 
L 257.598608 214.562253 
L 259.396752 217.66502 
L 260.295824 220.767787 
L 261.194896 222.31917 
L 262.993039 222.31917 
L 263.892111 219.216403 
L 264.791183 217.66502 
L 265.690255 213.01087 
L 266.589327 211.459486 
L 267.488399 208.356719 
L 268.387471 208.356719 
L 269.286543 202.151186 
L 270.185615 197.497036 
L 271.084687 189.740119 
L 272.882831 189.740119 
L 273.781903 191.291502 
L 274.680974 194.394269 
L 276.479118 203.702569 
L 277.37819 205.253953 
L 278.277262 202.151186 
L 279.176334 202.151186 
L 280.075406 200.599802 
L 280.974478 202.151186 
L 284.570766 195.945652 
L 285.469838 192.842885 
L 286.36891 194.394269 
L 287.267981 189.740119 
L 288.167053 181.983202 
L 289.066125 180.431818 
L 289.965197 174.226285 
L 291.763341 171.123518 
L 293.561485 177.329051 
L 294.460557 181.983202 
L 295.359629 180.431818 
L 296.258701 186.637352 
L 297.157773 185.085968 
L 298.056845 189.740119 
L 298.955916 188.188735 
L 299.854988 181.983202 
L 300.75406 172.674901 
L 301.653132 164.917984 
L 303.451276 158.712451 
L 304.350348 157.161067 
L 305.24942 161.815217 
L 306.148492 168.020751 
L 307.047564 166.469368 
L 307.946636 160.263834 
L 308.845708 149.40415 
L 309.74478 147.852767 
L 310.643852 150.955534 
L 311.542923 155.609684 
L 312.441995 152.506917 
L 313.341067 154.0583 
L 314.240139 154.0583 
L 315.139211 150.955534 
L 316.038283 143.198617 
L 316.937355 129.236166 
L 317.836427 123.030632 
L 318.735499 126.133399 
L 320.533643 129.236166 
L 321.432715 135.4417 
L 322.331787 144.75 
L 323.230858 157.161067 
L 324.12993 161.815217 
L 325.029002 169.572134 
L 325.928074 171.123518 
L 326.827146 174.226285 
L 327.726218 178.880435 
L 328.62529 185.085968 
L 329.524362 186.637352 
L 330.423434 192.842885 
L 331.322506 194.394269 
L 332.221578 202.151186 
L 333.12065 205.253953 
L 335.817865 209.908103 
L 336.716937 213.01087 
L 337.616009 214.562253 
L 338.515081 213.01087 
L 339.414153 213.01087 
L 340.313225 214.562253 
L 341.212297 217.66502 
L 342.111369 219.216403 
L 344.808585 228.524704 
L 346.606729 231.62747 
L 347.5058 231.62747 
L 348.404872 233.178854 
L 349.303944 233.178854 
L 350.203016 234.730237 
L 351.102088 234.730237 
L 352.00116 233.178854 
L 354.698376 233.178854 
L 355.597448 234.730237 
L 356.49652 234.730237 
L 357.395592 236.281621 
L 360.991879 236.281621 
L 361.890951 237.833004 
L 362.790023 240.935771 
L 363.689095 242.487154 
L 364.588167 242.487154 
L 365.487239 244.038538 
L 366.386311 244.038538 
L 367.285383 242.487154 
L 368.184455 242.487154 
L 369.083527 240.935771 
L 371.780742 240.935771 
L 372.679814 239.384387 
L 374.477958 239.384387 
L 376.276102 242.487154 
L 380.771462 234.730237 
L 381.670534 230.076087 
L 382.569606 228.524704 
L 383.468677 228.524704 
L 384.367749 225.421937 
L 386.165893 222.31917 
L 387.964037 216.113636 
L 388.863109 214.562253 
L 390.661253 208.356719 
L 391.560325 208.356719 
L 392.459397 206.805336 
L 393.358469 200.599802 
L 394.257541 195.945652 
L 395.156613 188.188735 
L 396.954756 175.777668 
L 397.853828 172.674901 
L 398.7529 172.674901 
L 399.651972 174.226285 
L 401.450116 171.123518 
L 402.349188 168.020751 
L 403.24826 161.815217 
L 404.147332 160.263834 
L 405.046404 161.815217 
L 405.945476 164.917984 
L 406.844548 163.366601 
L 407.743619 163.366601 
L 408.642691 166.469368 
L 409.541763 168.020751 
L 410.440835 171.123518 
L 411.339907 169.572134 
L 412.238979 172.674901 
L 413.138051 174.226285 
L 414.037123 178.880435 
L 414.936195 164.917984 
L 415.835267 163.366601 
L 416.734339 158.712451 
L 417.633411 158.712451 
L 418.532483 160.263834 
L 419.431555 155.609684 
L 420.330626 147.852767 
L 421.229698 157.161067 
L 422.12877 157.161067 
L 423.027842 154.0583 
L 423.926914 160.263834 
L 424.825986 164.917984 
L 425.725058 172.674901 
L 426.62413 177.329051 
L 427.523202 175.777668 
L 428.422274 166.469368 
L 429.321346 155.609684 
L 431.11949 127.684783 
L 432.018561 110.619565 
L 432.917633 101.311265 
L 433.816705 96.657115 
L 434.715777 101.311265 
L 435.614849 102.862648 
L 436.513921 105.965415 
L 437.412993 113.722332 
L 438.312065 118.376482 
L 439.211137 109.068182 
L 440.110209 102.862648 
L 441.009281 95.105731 
L 441.908353 82.694664 
L 442.807425 79.591897 
L 443.706497 74.937747 
L 444.605568 79.591897 
L 446.403712 110.619565 
L 447.302784 132.338933 
L 448.201856 150.955534 
L 449.100928 160.263834 
L 450 177.329051 
L 450 177.329051 
" style="fill:none;stroke:#b3220f;stroke-linecap:square;stroke-width:1.5;"/>
   </g>
   <g id="patch_3">
    <path d="M 62.5 262.5 
L 62.5 27 
" style="fill:none;stroke:#555555;stroke-linecap:square;stroke-linejoin:miter;"/>
   </g>
   <g id="patch_4">
    <path d="M 62.5 262.5 
L 450 262.5 
" style="fill:none;stroke:#555555;stroke-linecap:square;stroke-linejoin:miter;"/>
   </g>
   <g id="text_14">
    <!-- Antonio Nariño | Casos nuevos: 2021-06-11 -->
    <g style="fill:#555555;" transform="translate(119.325625 17)scale(0.14 -0.14)">
     <defs>
      <path d="M 12.59375 25.796875 
Q 12.59375 30.5 13.84375 34.140625 
Q 15.09375 37.796875 17.296875 40.296875 
Q 19.5 42.796875 22.453125 44.09375 
Q 25.40625 45.40625 28.703125 45.40625 
Q 32 45.40625 34.953125 44.09375 
Q 37.90625 42.796875 40.09375 40.296875 
Q 42.296875 37.796875 43.546875 34.140625 
Q 44.796875 30.5 44.796875 25.796875 
Q 44.796875 21.09375 43.546875 17.4375 
Q 42.296875 13.796875 40.09375 11.34375 
Q 37.90625 8.90625 34.953125 7.59375 
Q 32 6.296875 28.703125 6.296875 
Q 25.40625 6.296875 22.453125 7.59375 
Q 19.5 8.90625 17.296875 11.34375 
Q 15.09375 13.796875 13.84375 17.4375 
Q 12.59375 21.09375 12.59375 25.796875 
z
M 3.59375 25.796875 
Q 3.59375 20.09375 5.1875 15.1875 
Q 6.796875 10.296875 10 6.640625 
Q 13.203125 3 17.890625 0.953125 
Q 22.59375 -1.09375 28.703125 -1.09375 
Q 34.90625 -1.09375 39.546875 0.953125 
Q 44.203125 3 47.390625 6.640625 
Q 50.59375 10.296875 52.1875 15.1875 
Q 53.796875 20.09375 53.796875 25.796875 
Q 53.796875 31.5 52.1875 36.453125 
Q 50.59375 41.40625 47.390625 45.046875 
Q 44.203125 48.703125 39.546875 50.796875 
Q 34.90625 52.90625 28.703125 52.90625 
Q 22.59375 52.90625 17.890625 50.796875 
Q 13.203125 48.703125 10 45.046875 
Q 6.796875 41.40625 5.1875 36.453125 
Q 3.59375 31.5 3.59375 25.796875 
z
" id="HelveticaNeue-111"/>
      <path d="M 15.40625 61 
L 15.40625 71.40625 
L 6.90625 71.40625 
L 6.90625 61 
z
M 6.90625 51.703125 
L 6.90625 0 
L 15.40625 0 
L 15.40625 51.703125 
z
" id="HelveticaNeue-105"/>
      <path id="HelveticaNeue-32"/>
      <path d="M 7.703125 71.40625 
L 7.703125 0 
L 16.703125 0 
L 16.703125 57.296875 
L 16.90625 57.296875 
L 54.203125 0 
L 64.59375 0 
L 64.59375 71.40625 
L 55.59375 71.40625 
L 55.59375 13.5 
L 55.40625 13.5 
L 17.796875 71.40625 
z
" id="HelveticaNeue-78"/>
      <path d="M 45.203125 71.09375 
L 40 71.09375 
Q 39.5 69.59375 38.453125 68.140625 
Q 37.40625 66.703125 35.40625 66.703125 
Q 33.796875 66.703125 32.140625 67.34375 
Q 30.5 68 28.796875 68.75 
Q 27.09375 69.5 25.25 70.09375 
Q 23.40625 70.703125 21.40625 70.703125 
Q 19 70.703125 17.296875 69.796875 
Q 15.59375 68.90625 14.390625 67.40625 
Q 13.203125 65.90625 12.34375 63.90625 
Q 11.5 61.90625 10.90625 59.703125 
L 16.09375 59.703125 
Q 15.90625 61.59375 17.59375 62.75 
Q 19.296875 63.90625 20.90625 63.90625 
Q 22.296875 63.90625 24.046875 63.296875 
Q 25.796875 62.703125 27.59375 62 
Q 29.40625 61.203125 31.15625 60.59375 
Q 32.90625 60 34.203125 60 
Q 37.09375 60 38.9375 60.84375 
Q 40.796875 61.703125 42.09375 63.09375 
Q 44.59375 66.59375 45.203125 71.09375 
z
M 6.40625 51.703125 
L 6.40625 0 
L 14.90625 0 
L 14.90625 29.203125 
Q 14.90625 32.703125 15.84375 35.640625 
Q 16.796875 38.59375 18.6875 40.796875 
Q 20.59375 43 23.4375 44.203125 
Q 26.296875 45.40625 30.203125 45.40625 
Q 35.09375 45.40625 37.890625 42.59375 
Q 40.703125 39.796875 40.703125 35 
L 40.703125 0 
L 49.203125 0 
L 49.203125 34 
Q 49.203125 38.203125 48.34375 41.640625 
Q 47.5 45.09375 45.390625 47.59375 
Q 43.296875 50.09375 39.890625 51.5 
Q 36.5 52.90625 31.40625 52.90625 
Q 19.90625 52.90625 14.59375 43.5 
L 14.40625 43.5 
L 14.40625 51.703125 
z
" id="HelveticaNeue-241"/>
      <path d="M 7.703125 78.59375 
L 7.703125 -21.296875 
L 14.5 -21.296875 
L 14.5 78.59375 
z
" id="HelveticaNeue-124"/>
      <path d="M 58 49.90625 
L 67.5 49.90625 
Q 66.703125 55.59375 64.09375 59.9375 
Q 61.5 64.296875 57.59375 67.1875 
Q 53.703125 70.09375 48.703125 71.59375 
Q 43.703125 73.09375 38.09375 73.09375 
Q 29.90625 73.09375 23.546875 70.140625 
Q 17.203125 67.203125 12.953125 62.09375 
Q 8.703125 57 6.5 50.140625 
Q 4.296875 43.296875 4.296875 35.5 
Q 4.296875 27.703125 6.34375 20.890625 
Q 8.40625 14.09375 12.5 9.09375 
Q 16.59375 4.09375 22.796875 1.25 
Q 29 -1.59375 37.296875 -1.59375 
Q 51 -1.59375 58.890625 5.90625 
Q 66.796875 13.40625 68.203125 26.90625 
L 58.703125 26.90625 
Q 58.40625 22.5 56.90625 18.703125 
Q 55.40625 14.90625 52.75 12.15625 
Q 50.09375 9.40625 46.4375 7.84375 
Q 42.796875 6.296875 38.09375 6.296875 
Q 31.703125 6.296875 27.09375 8.6875 
Q 22.5 11.09375 19.546875 15.140625 
Q 16.59375 19.203125 15.1875 24.640625 
Q 13.796875 30.09375 13.796875 36.203125 
Q 13.796875 41.796875 15.1875 47 
Q 16.59375 52.203125 19.546875 56.25 
Q 22.5 60.296875 27.046875 62.6875 
Q 31.59375 65.09375 38 65.09375 
Q 45.5 65.09375 50.953125 61.296875 
Q 56.40625 57.5 58 49.90625 
z
" id="HelveticaNeue-67"/>
      <path d="M 11.59375 16.296875 
L 3.09375 16.296875 
Q 3.296875 11.5 5.09375 8.140625 
Q 6.90625 4.796875 9.90625 2.75 
Q 12.90625 0.703125 16.796875 -0.1875 
Q 20.703125 -1.09375 25 -1.09375 
Q 28.90625 -1.09375 32.84375 -0.34375 
Q 36.796875 0.40625 39.9375 2.296875 
Q 43.09375 4.203125 45.046875 7.296875 
Q 47 10.40625 47 15.09375 
Q 47 18.796875 45.546875 21.296875 
Q 44.09375 23.796875 41.75 25.4375 
Q 39.40625 27.09375 36.34375 28.09375 
Q 33.296875 29.09375 30.09375 29.796875 
Q 27.09375 30.5 24.09375 31.140625 
Q 21.09375 31.796875 18.6875 32.75 
Q 16.296875 33.703125 14.75 35.140625 
Q 13.203125 36.59375 13.203125 38.796875 
Q 13.203125 40.796875 14.203125 42.046875 
Q 15.203125 43.296875 16.796875 44.046875 
Q 18.40625 44.796875 20.34375 45.09375 
Q 22.296875 45.40625 24.203125 45.40625 
Q 26.296875 45.40625 28.34375 44.953125 
Q 30.40625 44.5 32.09375 43.5 
Q 33.796875 42.5 34.890625 40.84375 
Q 36 39.203125 36.203125 36.703125 
L 44.703125 36.703125 
Q 44.40625 41.40625 42.703125 44.546875 
Q 41 47.703125 38.140625 49.546875 
Q 35.296875 51.40625 31.59375 52.15625 
Q 27.90625 52.90625 23.5 52.90625 
Q 20.09375 52.90625 16.640625 52.046875 
Q 13.203125 51.203125 10.453125 49.453125 
Q 7.703125 47.703125 5.953125 44.890625 
Q 4.203125 42.09375 4.203125 38.203125 
Q 4.203125 33.203125 6.703125 30.390625 
Q 9.203125 27.59375 12.953125 26.046875 
Q 16.703125 24.5 21.09375 23.640625 
Q 25.5 22.796875 29.25 21.75 
Q 33 20.703125 35.5 19 
Q 38 17.296875 38 14 
Q 38 11.59375 36.796875 10.046875 
Q 35.59375 8.5 33.75 7.703125 
Q 31.90625 6.90625 29.703125 6.59375 
Q 27.5 6.296875 25.5 6.296875 
Q 22.90625 6.296875 20.453125 6.796875 
Q 18 7.296875 16.046875 8.4375 
Q 14.09375 9.59375 12.890625 11.546875 
Q 11.703125 13.5 11.59375 16.296875 
z
" id="HelveticaNeue-115"/>
      <path d="M 29.703125 0 
L 48.59375 51.703125 
L 39.703125 51.703125 
L 25.59375 8.59375 
L 25.40625 8.59375 
L 10.90625 51.703125 
L 1.40625 51.703125 
L 20.59375 0 
z
" id="HelveticaNeue-118"/>
      <path d="M 19.40625 40.59375 
L 19.40625 51.703125 
L 8.296875 51.703125 
L 8.296875 40.59375 
z
M 8.296875 11.09375 
L 8.296875 0 
L 19.40625 0 
L 19.40625 11.09375 
z
" id="HelveticaNeue-58"/>
      <path d="M 5 31.796875 
L 5 23.796875 
L 33.90625 23.796875 
L 33.90625 31.796875 
z
" id="HelveticaNeue-45"/>
     </defs>
     <use xlink:href="#HelveticaNeue-65"/>
     <use x="64.799988" xlink:href="#HelveticaNeue-110"/>
     <use x="120.399979" xlink:href="#HelveticaNeue-116"/>
     <use x="151.899963" xlink:href="#HelveticaNeue-111"/>
     <use x="209.299957" xlink:href="#HelveticaNeue-110"/>
     <use x="264.899948" xlink:href="#HelveticaNeue-105"/>
     <use x="287.099945" xlink:href="#HelveticaNeue-111"/>
     <use x="344.499939" xlink:href="#HelveticaNeue-32"/>
     <use x="372.299927" xlink:href="#HelveticaNeue-78"/>
     <use x="444.499908" xlink:href="#HelveticaNeue-97"/>
     <use x="498.199905" xlink:href="#HelveticaNeue-114"/>
     <use x="531.499893" xlink:href="#HelveticaNeue-105"/>
     <use x="553.69989" xlink:href="#HelveticaNeue-241"/>
     <use x="609.299881" xlink:href="#HelveticaNeue-111"/>
     <use x="666.699875" xlink:href="#HelveticaNeue-32"/>
     <use x="694.499863" xlink:href="#HelveticaNeue-124"/>
     <use x="716.69986" xlink:href="#HelveticaNeue-32"/>
     <use x="744.499847" xlink:href="#HelveticaNeue-67"/>
     <use x="816.699829" xlink:href="#HelveticaNeue-97"/>
     <use x="870.399826" xlink:href="#HelveticaNeue-115"/>
     <use x="920.399811" xlink:href="#HelveticaNeue-111"/>
     <use x="977.799805" xlink:href="#HelveticaNeue-115"/>
     <use x="1027.799789" xlink:href="#HelveticaNeue-32"/>
     <use x="1055.599777" xlink:href="#HelveticaNeue-110"/>
     <use x="1111.199768" xlink:href="#HelveticaNeue-117"/>
     <use x="1166.799759" xlink:href="#HelveticaNeue-101"/>
     <use x="1220.499756" xlink:href="#HelveticaNeue-118"/>
     <use x="1270.499741" xlink:href="#HelveticaNeue-111"/>
     <use x="1327.899734" xlink:href="#HelveticaNeue-115"/>
     <use x="1377.899719" xlink:href="#HelveticaNeue-58"/>
     <use x="1405.699707" xlink:href="#HelveticaNeue-32"/>
     <use x="1433.499695" xlink:href="#HelveticaNeue-50"/>
     <use x="1489.099686" xlink:href="#HelveticaNeue-48"/>
     <use x="1544.699677" xlink:href="#HelveticaNeue-50"/>
     <use x="1600.299667" xlink:href="#HelveticaNeue-49"/>
     <use x="1655.899658" xlink:href="#HelveticaNeue-45"/>
     <use x="1694.799652" xlink:href="#HelveticaNeue-48"/>
     <use x="1750.399643" xlink:href="#HelveticaNeue-54"/>
     <use x="1805.999634" xlink:href="#HelveticaNeue-45"/>
     <use x="1844.899628" xlink:href="#HelveticaNeue-49"/>
     <use x="1900.499619" xlink:href="#HelveticaNeue-49"/>
    </g>
   </g>
   <g id="legend_1">
    <g id="line2d_27">
     <path d="M 71.5 39.640625 
L 91.5 39.640625 
" style="fill:none;stroke:#000000;stroke-dasharray:1.5,2.475;stroke-dashoffset:0;stroke-opacity:0.5;stroke-width:1.5;"/>
    </g>
    <g id="line2d_28"/>
    <g id="text_15">
     <!-- Actual -->
     <g style="fill:#555555;" transform="translate(99.5 43.140625)scale(0.1 -0.1)">
      <use xlink:href="#HelveticaNeue-65"/>
      <use x="64.799988" xlink:href="#HelveticaNeue-99"/>
      <use x="118.499985" xlink:href="#HelveticaNeue-116"/>
      <use x="149.999969" xlink:href="#HelveticaNeue-117"/>
      <use x="205.59996" xlink:href="#HelveticaNeue-97"/>
      <use x="259.299957" xlink:href="#HelveticaNeue-108"/>
     </g>
    </g>
    <g id="line2d_29">
     <path d="M 71.5 54.310937 
L 91.5 54.310937 
" style="fill:none;stroke:#b3220f;stroke-linecap:square;stroke-width:1.5;"/>
    </g>
    <g id="line2d_30"/>
    <g id="text_16">
     <!-- Promedio semanal (7 días)  -->
     <g style="fill:#555555;" transform="translate(99.5 57.810937)scale(0.1 -0.1)">
      <defs>
       <path d="M 17.296875 37.203125 
L 17.296875 63.40625 
L 35.90625 63.40625 
Q 44 63.40625 47.75 60.046875 
Q 51.5 56.703125 51.5 50.296875 
Q 51.5 43.90625 47.75 40.5 
Q 44 37.09375 35.90625 37.203125 
z
M 7.796875 71.40625 
L 7.796875 0 
L 17.296875 0 
L 17.296875 29.203125 
L 39.09375 29.203125 
Q 49.90625 29.09375 55.453125 34.6875 
Q 61 40.296875 61 50.296875 
Q 61 60.296875 55.453125 65.84375 
Q 49.90625 71.40625 39.09375 71.40625 
z
" id="HelveticaNeue-80"/>
       <path d="M 6.40625 51.703125 
L 6.40625 0 
L 14.90625 0 
L 14.90625 32.203125 
Q 14.90625 33.703125 15.65625 35.953125 
Q 16.40625 38.203125 18.046875 40.296875 
Q 19.703125 42.40625 22.34375 43.90625 
Q 25 45.40625 28.703125 45.40625 
Q 31.59375 45.40625 33.4375 44.546875 
Q 35.296875 43.703125 36.390625 42.140625 
Q 37.5 40.59375 37.953125 38.5 
Q 38.40625 36.40625 38.40625 33.90625 
L 38.40625 0 
L 46.90625 0 
L 46.90625 32.203125 
Q 46.90625 38.203125 50.5 41.796875 
Q 54.09375 45.40625 60.40625 45.40625 
Q 63.5 45.40625 65.453125 44.5 
Q 67.40625 43.59375 68.5 42.046875 
Q 69.59375 40.5 70 38.390625 
Q 70.40625 36.296875 70.40625 33.90625 
L 70.40625 0 
L 78.90625 0 
L 78.90625 37.90625 
Q 78.90625 41.90625 77.65625 44.75 
Q 76.40625 47.59375 74.15625 49.390625 
Q 71.90625 51.203125 68.75 52.046875 
Q 65.59375 52.90625 61.703125 52.90625 
Q 56.59375 52.90625 52.34375 50.59375 
Q 48.09375 48.296875 45.5 44.09375 
Q 43.90625 48.90625 40 50.90625 
Q 36.09375 52.90625 31.296875 52.90625 
Q 20.40625 52.90625 14.59375 44.09375 
L 14.40625 44.09375 
L 14.40625 51.703125 
z
" id="HelveticaNeue-109"/>
       <path d="M 12.59375 25.40625 
Q 12.59375 29.203125 13.390625 32.796875 
Q 14.203125 36.40625 16 39.203125 
Q 17.796875 42 20.796875 43.703125 
Q 23.796875 45.40625 28.09375 45.40625 
Q 32.5 45.40625 35.59375 43.75 
Q 38.703125 42.09375 40.640625 39.390625 
Q 42.59375 36.703125 43.5 33.140625 
Q 44.40625 29.59375 44.40625 25.796875 
Q 44.40625 22.203125 43.546875 18.703125 
Q 42.703125 15.203125 40.796875 12.453125 
Q 38.90625 9.703125 35.90625 8 
Q 32.90625 6.296875 28.59375 6.296875 
Q 24.5 6.296875 21.453125 7.890625 
Q 18.40625 9.5 16.453125 12.203125 
Q 14.5 14.90625 13.546875 18.34375 
Q 12.59375 21.796875 12.59375 25.40625 
z
M 52.59375 0 
L 52.59375 71.40625 
L 44.09375 71.40625 
L 44.09375 44.796875 
L 43.90625 44.796875 
Q 42.5 47.09375 40.453125 48.640625 
Q 38.40625 50.203125 36.09375 51.140625 
Q 33.796875 52.09375 31.5 52.5 
Q 29.203125 52.90625 27.203125 52.90625 
Q 21.296875 52.90625 16.84375 50.75 
Q 12.40625 48.59375 9.453125 44.9375 
Q 6.5 41.296875 5.046875 36.390625 
Q 3.59375 31.5 3.59375 26 
Q 3.59375 20.5 5.09375 15.59375 
Q 6.59375 10.703125 9.546875 7 
Q 12.5 3.296875 16.953125 1.09375 
Q 21.40625 -1.09375 27.40625 -1.09375 
Q 32.796875 -1.09375 37.296875 0.796875 
Q 41.796875 2.703125 43.90625 7 
L 44.09375 7 
L 44.09375 0 
z
" id="HelveticaNeue-100"/>
       <path d="M 20.40625 -19.703125 
L 26.90625 -19.703125 
Q 19.796875 -8.203125 16.75 3.09375 
Q 13.703125 14.40625 13.703125 27 
Q 13.703125 39.296875 16.703125 50.5 
Q 19.703125 61.703125 26.90625 73.09375 
L 20.40625 73.09375 
Q 12.59375 62.796875 8.640625 50.796875 
Q 4.703125 38.796875 4.703125 27 
Q 4.703125 20.40625 5.796875 14.40625 
Q 6.90625 8.40625 8.953125 2.703125 
Q 11 -3 13.890625 -8.546875 
Q 16.796875 -14.09375 20.40625 -19.703125 
z
" id="HelveticaNeue-40"/>
       <path d="M 50.90625 62.40625 
L 50.90625 69.703125 
L 5 69.703125 
L 5 61.703125 
L 42.203125 61.703125 
Q 36.59375 55.796875 31.75 48.796875 
Q 26.90625 41.796875 23.203125 33.9375 
Q 19.5 26.09375 17.140625 17.546875 
Q 14.796875 9 14.203125 0 
L 23.703125 0 
Q 24.203125 8.296875 26.5 17.09375 
Q 28.796875 25.90625 32.4375 34.203125 
Q 36.09375 42.5 40.796875 49.796875 
Q 45.5 57.09375 50.90625 62.40625 
z
" id="HelveticaNeue-55"/>
       <path d="M 6.90625 0 
L 15.40625 0 
L 15.40625 51.703125 
L 6.90625 51.703125 
z
M 25.5 77 
L 11.40625 60.796875 
L 5 60.796875 
L 14.59375 77 
z
" id="HelveticaNeue-237"/>
       <path d="M -0.90625 -19.703125 
L 5.5 -19.703125 
Q 13.296875 -9.40625 17.25 2.546875 
Q 21.203125 14.5 21.203125 26.296875 
Q 21.203125 32.90625 20.09375 38.90625 
Q 19 44.90625 16.953125 50.65625 
Q 14.90625 56.40625 12 61.953125 
Q 9.09375 67.5 5.5 73.09375 
L -0.90625 73.09375 
Q 6.09375 61.59375 9.140625 50.25 
Q 12.203125 38.90625 12.203125 26.296875 
Q 12.203125 14.09375 9.203125 2.84375 
Q 6.203125 -8.40625 -0.90625 -19.703125 
z
" id="HelveticaNeue-41"/>
      </defs>
      <use xlink:href="#HelveticaNeue-80"/>
      <use x="64.799988" xlink:href="#HelveticaNeue-114"/>
      <use x="96.349976" xlink:href="#HelveticaNeue-111"/>
      <use x="153.749969" xlink:href="#HelveticaNeue-109"/>
      <use x="239.049957" xlink:href="#HelveticaNeue-101"/>
      <use x="292.749954" xlink:href="#HelveticaNeue-100"/>
      <use x="352.049942" xlink:href="#HelveticaNeue-105"/>
      <use x="374.249939" xlink:href="#HelveticaNeue-111"/>
      <use x="431.649933" xlink:href="#HelveticaNeue-32"/>
      <use x="459.449921" xlink:href="#HelveticaNeue-115"/>
      <use x="509.449905" xlink:href="#HelveticaNeue-101"/>
      <use x="563.149902" xlink:href="#HelveticaNeue-109"/>
      <use x="648.44989" xlink:href="#HelveticaNeue-97"/>
      <use x="702.149887" xlink:href="#HelveticaNeue-110"/>
      <use x="757.749878" xlink:href="#HelveticaNeue-97"/>
      <use x="811.449875" xlink:href="#HelveticaNeue-108"/>
      <use x="833.649872" xlink:href="#HelveticaNeue-32"/>
      <use x="861.44986" xlink:href="#HelveticaNeue-40"/>
      <use x="887.349854" xlink:href="#HelveticaNeue-55"/>
      <use x="942.949844" xlink:href="#HelveticaNeue-32"/>
      <use x="970.749832" xlink:href="#HelveticaNeue-100"/>
      <use x="1030.04982" xlink:href="#HelveticaNeue-237"/>
      <use x="1052.249817" xlink:href="#HelveticaNeue-97"/>
      <use x="1105.949814" xlink:href="#HelveticaNeue-115"/>
      <use x="1155.949799" xlink:href="#HelveticaNeue-41"/>
      <use x="1181.849792" xlink:href="#HelveticaNeue-32"/>
     </g>
    </g>
   </g>
  </g>
 </g>
 <defs>
  <clipPath id="p3bd3c6166c">
   <rect height="235.5" width="387.5" x="62.5" y="27"/>
  </clipPath>
 </defs>
</svg>
