<?xml version="1.0" encoding="utf-8" standalone="no"?>
<!DOCTYPE svg PUBLIC "-//W3C//DTD SVG 1.1//EN"
  "http://www.w3.org/Graphics/SVG/1.1/DTD/svg11.dtd">
<!-- Created with matplotlib (https://matplotlib.org/) -->
<svg height="300pt" version="1.1" viewBox="0 0 500 300" width="500pt" xmlns="http://www.w3.org/2000/svg" xmlns:xlink="http://www.w3.org/1999/xlink">
 <metadata>
  <rdf:RDF xmlns:cc="http://creativecommons.org/ns#" xmlns:dc="http://purl.org/dc/elements/1.1/" xmlns:rdf="http://www.w3.org/1999/02/22-rdf-syntax-ns#">
   <cc:Work>
    <dc:type rdf:resource="http://purl.org/dc/dcmitype/StillImage"/>
    <dc:date>2021-07-26T21:09:32.613815</dc:date>
    <dc:format>image/svg+xml</dc:format>
    <dc:creator>
     <cc:Agent>
      <dc:title>Matplotlib v3.3.4, https://matplotlib.org/</dc:title>
     </cc:Agent>
    </dc:creator>
   </cc:Work>
  </rdf:RDF>
 </metadata>
 <defs>
  <style type="text/css">*{stroke-linecap:butt;stroke-linejoin:round;}</style>
 </defs>
 <g id="figure_1">
  <g id="patch_1">
   <path d="M 0 300 
L 500 300 
L 500 0 
L 0 0 
z
" style="fill:#ffffff;"/>
  </g>
  <g id="axes_1">
   <g id="patch_2">
    <path d="M 62.5 262.5 
L 450 262.5 
L 450 27 
L 62.5 27 
z
" style="fill:#ffffff;"/>
   </g>
   <g id="matplotlib.axis_1">
    <g id="xtick_1">
     <g id="line2d_1">
      <defs>
       <path d="M 0 0 
L 0 3.5 
" id="m6880f721ab" style="stroke:#555555;stroke-width:0.8;"/>
      </defs>
      <g>
       <use style="fill:#555555;stroke:#555555;stroke-width:0.8;" x="62.5" xlink:href="#m6880f721ab" y="262.5"/>
      </g>
     </g>
    </g>
    <g id="xtick_2">
     <g id="line2d_2">
      <g>
       <use style="fill:#555555;stroke:#555555;stroke-width:0.8;" x="132.805907" xlink:href="#m6880f721ab" y="262.5"/>
      </g>
     </g>
     <g id="text_1">
      <!-- Jul -->
      <g style="fill:#555555;" transform="translate(126.320751 276.640625)scale(0.1 -0.1)">
       <defs>
        <path d="M 44.09375 17.796875 
L 44.09375 71.40625 
L 34.59375 71.40625 
L 34.59375 19.203125 
Q 34.59375 13.296875 32.140625 9.796875 
Q 29.703125 6.296875 23.203125 6.296875 
Q 19.703125 6.296875 17.453125 7.34375 
Q 15.203125 8.40625 13.953125 10.296875 
Q 12.703125 12.203125 12.203125 14.796875 
Q 11.703125 17.40625 11.703125 20.5 
L 11.703125 23.5 
L 2.203125 23.5 
L 2.203125 19.09375 
Q 2.203125 8.90625 7.59375 3.65625 
Q 13 -1.59375 23 -1.59375 
Q 29 -1.59375 33.046875 0.046875 
Q 37.09375 1.703125 39.546875 4.453125 
Q 42 7.203125 43.046875 10.703125 
Q 44.09375 14.203125 44.09375 17.796875 
z
" id="HelveticaNeue-74"/>
        <path d="M 49.203125 0 
L 49.203125 51.703125 
L 40.703125 51.703125 
L 40.703125 22.5 
Q 40.703125 19 39.75 16.046875 
Q 38.796875 13.09375 36.890625 10.890625 
Q 35 8.703125 32.140625 7.5 
Q 29.296875 6.296875 25.40625 6.296875 
Q 20.5 6.296875 17.703125 9.09375 
Q 14.90625 11.90625 14.90625 16.703125 
L 14.90625 51.703125 
L 6.40625 51.703125 
L 6.40625 17.703125 
Q 6.40625 13.5 7.25 10.046875 
Q 8.09375 6.59375 10.1875 4.09375 
Q 12.296875 1.59375 15.6875 0.25 
Q 19.09375 -1.09375 24.203125 -1.09375 
Q 29.90625 -1.09375 34.09375 1.15625 
Q 38.296875 3.40625 41 8.203125 
L 41.203125 8.203125 
L 41.203125 0 
z
" id="HelveticaNeue-117"/>
        <path d="M 6.90625 71.40625 
L 6.90625 0 
L 15.40625 0 
L 15.40625 71.40625 
z
" id="HelveticaNeue-108"/>
       </defs>
       <use xlink:href="#HelveticaNeue-74"/>
       <use x="51.899994" xlink:href="#HelveticaNeue-117"/>
       <use x="107.499985" xlink:href="#HelveticaNeue-108"/>
      </g>
     </g>
    </g>
    <g id="xtick_3">
     <g id="line2d_3">
      <g>
       <use style="fill:#555555;stroke:#555555;stroke-width:0.8;" x="208.016878" xlink:href="#m6880f721ab" y="262.5"/>
      </g>
     </g>
     <g id="text_2">
      <!-- Oct -->
      <g style="fill:#555555;" transform="translate(199.956721 276.640625)scale(0.1 -0.1)">
       <defs>
        <path d="M 13.296875 35.703125 
Q 13.296875 41.09375 14.6875 46.34375 
Q 16.09375 51.59375 19.09375 55.796875 
Q 22.09375 60 26.796875 62.546875 
Q 31.5 65.09375 38 65.09375 
Q 44.5 65.09375 49.203125 62.546875 
Q 53.90625 60 56.90625 55.796875 
Q 59.90625 51.59375 61.296875 46.34375 
Q 62.703125 41.09375 62.703125 35.703125 
Q 62.703125 30.296875 61.296875 25.046875 
Q 59.90625 19.796875 56.90625 15.59375 
Q 53.90625 11.40625 49.203125 8.84375 
Q 44.5 6.296875 38 6.296875 
Q 31.5 6.296875 26.796875 8.84375 
Q 22.09375 11.40625 19.09375 15.59375 
Q 16.09375 19.796875 14.6875 25.046875 
Q 13.296875 30.296875 13.296875 35.703125 
z
M 3.796875 35.703125 
Q 3.796875 28.40625 5.9375 21.65625 
Q 8.09375 14.90625 12.390625 9.703125 
Q 16.703125 4.5 23.09375 1.453125 
Q 29.5 -1.59375 38 -1.59375 
Q 46.5 -1.59375 52.890625 1.453125 
Q 59.296875 4.5 63.59375 9.703125 
Q 67.90625 14.90625 70.046875 21.65625 
Q 72.203125 28.40625 72.203125 35.703125 
Q 72.203125 43 70.046875 49.75 
Q 67.90625 56.5 63.59375 61.703125 
Q 59.296875 66.90625 52.890625 70 
Q 46.5 73.09375 38 73.09375 
Q 29.5 73.09375 23.09375 70 
Q 16.703125 66.90625 12.390625 61.703125 
Q 8.09375 56.5 5.9375 49.75 
Q 3.796875 43 3.796875 35.703125 
z
" id="HelveticaNeue-79"/>
        <path d="M 41.5 35.09375 
L 50.296875 35.09375 
Q 49.796875 39.703125 47.890625 43.046875 
Q 46 46.40625 43.046875 48.59375 
Q 40.09375 50.796875 36.25 51.84375 
Q 32.40625 52.90625 28 52.90625 
Q 21.90625 52.90625 17.296875 50.75 
Q 12.703125 48.59375 9.640625 44.84375 
Q 6.59375 41.09375 5.09375 36.046875 
Q 3.59375 31 3.59375 25.203125 
Q 3.59375 19.40625 5.140625 14.546875 
Q 6.703125 9.703125 9.75 6.203125 
Q 12.796875 2.703125 17.34375 0.796875 
Q 21.90625 -1.09375 27.796875 -1.09375 
Q 37.703125 -1.09375 43.453125 4.09375 
Q 49.203125 9.296875 50.59375 18.90625 
L 41.90625 18.90625 
Q 41.09375 12.90625 37.546875 9.59375 
Q 34 6.296875 27.703125 6.296875 
Q 23.703125 6.296875 20.796875 7.890625 
Q 17.90625 9.5 16.09375 12.140625 
Q 14.296875 14.796875 13.4375 18.1875 
Q 12.59375 21.59375 12.59375 25.203125 
Q 12.59375 29.09375 13.390625 32.75 
Q 14.203125 36.40625 16.046875 39.203125 
Q 17.90625 42 21 43.703125 
Q 24.09375 45.40625 28.703125 45.40625 
Q 34.09375 45.40625 37.296875 42.703125 
Q 40.5 40 41.5 35.09375 
z
" id="HelveticaNeue-99"/>
        <path d="M 18.203125 51.703125 
L 18.203125 67.203125 
L 9.703125 67.203125 
L 9.703125 51.703125 
L 0.90625 51.703125 
L 0.90625 44.203125 
L 9.703125 44.203125 
L 9.703125 11.296875 
Q 9.703125 7.703125 10.390625 5.5 
Q 11.09375 3.296875 12.546875 2.09375 
Q 14 0.90625 16.34375 0.453125 
Q 18.703125 0 22 0 
L 28.5 0 
L 28.5 7.5 
L 24.59375 7.5 
Q 22.59375 7.5 21.34375 7.640625 
Q 20.09375 7.796875 19.390625 8.296875 
Q 18.703125 8.796875 18.453125 9.6875 
Q 18.203125 10.59375 18.203125 12.09375 
L 18.203125 44.203125 
L 28.5 44.203125 
L 28.5 51.703125 
z
" id="HelveticaNeue-116"/>
       </defs>
       <use xlink:href="#HelveticaNeue-79"/>
       <use x="75.999985" xlink:href="#HelveticaNeue-99"/>
       <use x="129.699982" xlink:href="#HelveticaNeue-116"/>
      </g>
     </g>
    </g>
    <g id="xtick_4">
     <g id="line2d_4">
      <g>
       <use style="fill:#555555;stroke:#555555;stroke-width:0.8;" x="283.227848" xlink:href="#m6880f721ab" y="262.5"/>
      </g>
     </g>
     <g id="text_3">
      <!-- Jan -->
      <g style="fill:#555555;" transform="translate(275.167692 276.640625)scale(0.1 -0.1)">
       <defs>
        <path d="M 52.203125 0.203125 
Q 50 -1.09375 46.09375 -1.09375 
Q 42.796875 -1.09375 40.84375 0.75 
Q 38.90625 2.59375 38.90625 6.796875 
Q 35.40625 2.59375 30.75 0.75 
Q 26.09375 -1.09375 20.703125 -1.09375 
Q 17.203125 -1.09375 14.046875 -0.296875 
Q 10.90625 0.5 8.59375 2.203125 
Q 6.296875 3.90625 4.9375 6.65625 
Q 3.59375 9.40625 3.59375 13.296875 
Q 3.59375 17.703125 5.09375 20.5 
Q 6.59375 23.296875 9.046875 25.046875 
Q 11.5 26.796875 14.640625 27.6875 
Q 17.796875 28.59375 21.09375 29.203125 
Q 24.59375 29.90625 27.75 30.25 
Q 30.90625 30.59375 33.296875 31.25 
Q 35.703125 31.90625 37.09375 33.15625 
Q 38.5 34.40625 38.5 36.796875 
Q 38.5 39.59375 37.453125 41.296875 
Q 36.40625 43 34.75 43.890625 
Q 33.09375 44.796875 31.046875 45.09375 
Q 29 45.40625 27 45.40625 
Q 21.59375 45.40625 18 43.34375 
Q 14.40625 41.296875 14.09375 35.59375 
L 5.59375 35.59375 
Q 5.796875 40.40625 7.59375 43.703125 
Q 9.40625 47 12.40625 49.046875 
Q 15.40625 51.09375 19.25 52 
Q 23.09375 52.90625 27.5 52.90625 
Q 31 52.90625 34.453125 52.40625 
Q 37.90625 51.90625 40.703125 50.34375 
Q 43.5 48.796875 45.203125 46 
Q 46.90625 43.203125 46.90625 38.703125 
L 46.90625 12.09375 
Q 46.90625 9.09375 47.25 7.6875 
Q 47.59375 6.296875 49.59375 6.296875 
Q 50.703125 6.296875 52.203125 6.796875 
z
M 38.40625 26.703125 
Q 36.796875 25.5 34.1875 24.953125 
Q 31.59375 24.40625 28.75 24.046875 
Q 25.90625 23.703125 23 23.25 
Q 20.09375 22.796875 17.796875 21.796875 
Q 15.5 20.796875 14.046875 18.9375 
Q 12.59375 17.09375 12.59375 13.90625 
Q 12.59375 11.796875 13.4375 10.34375 
Q 14.296875 8.90625 15.640625 8 
Q 17 7.09375 18.796875 6.6875 
Q 20.59375 6.296875 22.59375 6.296875 
Q 26.796875 6.296875 29.796875 7.4375 
Q 32.796875 8.59375 34.6875 10.34375 
Q 36.59375 12.09375 37.5 14.140625 
Q 38.40625 16.203125 38.40625 18 
z
" id="HelveticaNeue-97"/>
        <path d="M 6.40625 51.703125 
L 6.40625 0 
L 14.90625 0 
L 14.90625 29.203125 
Q 14.90625 32.703125 15.84375 35.640625 
Q 16.796875 38.59375 18.6875 40.796875 
Q 20.59375 43 23.4375 44.203125 
Q 26.296875 45.40625 30.203125 45.40625 
Q 35.09375 45.40625 37.890625 42.59375 
Q 40.703125 39.796875 40.703125 35 
L 40.703125 0 
L 49.203125 0 
L 49.203125 34 
Q 49.203125 38.203125 48.34375 41.640625 
Q 47.5 45.09375 45.390625 47.59375 
Q 43.296875 50.09375 39.890625 51.5 
Q 36.5 52.90625 31.40625 52.90625 
Q 19.90625 52.90625 14.59375 43.5 
L 14.40625 43.5 
L 14.40625 51.703125 
z
" id="HelveticaNeue-110"/>
       </defs>
       <use xlink:href="#HelveticaNeue-74"/>
       <use x="51.899994" xlink:href="#HelveticaNeue-97"/>
       <use x="105.599991" xlink:href="#HelveticaNeue-110"/>
      </g>
      <!-- 2021 -->
      <g style="fill:#555555;" transform="translate(272.109098 287.179688)scale(0.1 -0.1)">
       <defs>
        <path d="M 4.40625 45.796875 
L 12.90625 45.796875 
Q 12.796875 49 13.546875 52.140625 
Q 14.296875 55.296875 16 57.796875 
Q 17.703125 60.296875 20.34375 61.84375 
Q 23 63.40625 26.703125 63.40625 
Q 29.5 63.40625 32 62.5 
Q 34.5 61.59375 36.34375 59.890625 
Q 38.203125 58.203125 39.296875 55.84375 
Q 40.40625 53.5 40.40625 50.59375 
Q 40.40625 46.90625 39.25 44.09375 
Q 38.09375 41.296875 35.84375 38.890625 
Q 33.59375 36.5 30.1875 34.140625 
Q 26.796875 31.796875 22.296875 29 
Q 18.59375 26.796875 15.1875 24.296875 
Q 11.796875 21.796875 9.09375 18.5 
Q 6.40625 15.203125 4.65625 10.75 
Q 2.90625 6.296875 2.40625 0 
L 48.703125 0 
L 48.703125 7.5 
L 12.296875 7.5 
Q 12.90625 10.796875 14.84375 13.34375 
Q 16.796875 15.90625 19.546875 18.09375 
Q 22.296875 20.296875 25.59375 22.25 
Q 28.90625 24.203125 32.203125 26.203125 
Q 35.5 28.296875 38.59375 30.59375 
Q 41.703125 32.90625 44.09375 35.75 
Q 46.5 38.59375 47.953125 42.1875 
Q 49.40625 45.796875 49.40625 50.5 
Q 49.40625 55.5 47.65625 59.296875 
Q 45.90625 63.09375 42.90625 65.640625 
Q 39.90625 68.203125 35.84375 69.546875 
Q 31.796875 70.90625 27.203125 70.90625 
Q 21.59375 70.90625 17.1875 69 
Q 12.796875 67.09375 9.84375 63.75 
Q 6.90625 60.40625 5.5 55.796875 
Q 4.09375 51.203125 4.40625 45.796875 
z
" id="HelveticaNeue-50"/>
        <path d="M 13.203125 34.90625 
Q 13.203125 37.5 13.25 40.640625 
Q 13.296875 43.796875 13.75 46.9375 
Q 14.203125 50.09375 15.046875 53.09375 
Q 15.90625 56.09375 17.546875 58.34375 
Q 19.203125 60.59375 21.703125 62 
Q 24.203125 63.40625 27.796875 63.40625 
Q 31.40625 63.40625 33.90625 62 
Q 36.40625 60.59375 38.046875 58.34375 
Q 39.703125 56.09375 40.546875 53.09375 
Q 41.40625 50.09375 41.84375 46.9375 
Q 42.296875 43.796875 42.34375 40.640625 
Q 42.40625 37.5 42.40625 34.90625 
Q 42.40625 30.90625 42.15625 25.953125 
Q 41.90625 21 40.546875 16.640625 
Q 39.203125 12.296875 36.203125 9.296875 
Q 33.203125 6.296875 27.796875 6.296875 
Q 22.40625 6.296875 19.40625 9.296875 
Q 16.40625 12.296875 15.046875 16.640625 
Q 13.703125 21 13.453125 25.953125 
Q 13.203125 30.90625 13.203125 34.90625 
z
M 4.203125 34.796875 
Q 4.203125 30.90625 4.390625 26.703125 
Q 4.59375 22.5 5.390625 18.5 
Q 6.203125 14.5 7.703125 10.953125 
Q 9.203125 7.40625 11.796875 4.703125 
Q 14.40625 2 18.34375 0.453125 
Q 22.296875 -1.09375 27.796875 -1.09375 
Q 33.40625 -1.09375 37.296875 0.453125 
Q 41.203125 2 43.796875 4.703125 
Q 46.40625 7.40625 47.90625 10.953125 
Q 49.40625 14.5 50.203125 18.5 
Q 51 22.5 51.203125 26.703125 
Q 51.40625 30.90625 51.40625 34.796875 
Q 51.40625 38.703125 51.203125 42.890625 
Q 51 47.09375 50.203125 51.09375 
Q 49.40625 55.09375 47.90625 58.6875 
Q 46.40625 62.296875 43.796875 65 
Q 41.203125 67.703125 37.25 69.296875 
Q 33.296875 70.90625 27.796875 70.90625 
Q 22.296875 70.90625 18.34375 69.296875 
Q 14.40625 67.703125 11.796875 65 
Q 9.203125 62.296875 7.703125 58.6875 
Q 6.203125 55.09375 5.390625 51.09375 
Q 4.59375 47.09375 4.390625 42.890625 
Q 4.203125 38.703125 4.203125 34.796875 
z
" id="HelveticaNeue-48"/>
        <path d="M 35.59375 0 
L 35.59375 70.90625 
L 29.09375 70.90625 
Q 28.40625 66.90625 26.5 64.296875 
Q 24.59375 61.703125 21.84375 60.203125 
Q 19.09375 58.703125 15.6875 58.140625 
Q 12.296875 57.59375 8.703125 57.59375 
L 8.703125 50.796875 
L 27.09375 50.796875 
L 27.09375 0 
z
" id="HelveticaNeue-49"/>
       </defs>
       <use xlink:href="#HelveticaNeue-50"/>
       <use x="55.599991" xlink:href="#HelveticaNeue-48"/>
       <use x="111.199982" xlink:href="#HelveticaNeue-50"/>
       <use x="166.799973" xlink:href="#HelveticaNeue-49"/>
      </g>
     </g>
    </g>
    <g id="xtick_5">
     <g id="line2d_5">
      <g>
       <use style="fill:#555555;stroke:#555555;stroke-width:0.8;" x="356.803797" xlink:href="#m6880f721ab" y="262.5"/>
      </g>
     </g>
     <g id="text_4">
      <!-- Apr -->
      <g style="fill:#555555;" transform="translate(348.934266 276.640625)scale(0.1 -0.1)">
       <defs>
        <path d="M 20.09375 29.5 
L 32.203125 62.796875 
L 32.40625 62.796875 
L 44.296875 29.5 
z
M 27.203125 71.40625 
L -0.59375 0 
L 9.09375 0 
L 17.09375 21.5 
L 47.296875 21.5 
L 55.09375 0 
L 65.59375 0 
L 37.703125 71.40625 
z
" id="HelveticaNeue-65"/>
        <path d="M 6.703125 51.703125 
L 6.703125 -19.703125 
L 15.203125 -19.703125 
L 15.203125 6.90625 
L 15.40625 6.90625 
Q 16.796875 4.59375 18.84375 3.046875 
Q 20.90625 1.5 23.203125 0.59375 
Q 25.5 -0.296875 27.84375 -0.6875 
Q 30.203125 -1.09375 32.09375 -1.09375 
Q 38 -1.09375 42.453125 1 
Q 46.90625 3.09375 49.84375 6.75 
Q 52.796875 10.40625 54.25 15.296875 
Q 55.703125 20.203125 55.703125 25.703125 
Q 55.703125 31.203125 54.203125 36.09375 
Q 52.703125 41 49.75 44.75 
Q 46.796875 48.5 42.34375 50.703125 
Q 37.90625 52.90625 31.90625 52.90625 
Q 26.5 52.90625 22 50.953125 
Q 17.5 49 15.40625 44.703125 
L 15.203125 44.703125 
L 15.203125 51.703125 
z
M 46.703125 26.296875 
Q 46.703125 22.5 45.890625 18.890625 
Q 45.09375 15.296875 43.296875 12.5 
Q 41.5 9.703125 38.546875 8 
Q 35.59375 6.296875 31.203125 6.296875 
Q 26.796875 6.296875 23.6875 7.9375 
Q 20.59375 9.59375 18.640625 12.296875 
Q 16.703125 15 15.796875 18.546875 
Q 14.90625 22.09375 14.90625 25.90625 
Q 14.90625 29.5 15.75 33 
Q 16.59375 36.5 18.5 39.25 
Q 20.40625 42 23.40625 43.703125 
Q 26.40625 45.40625 30.703125 45.40625 
Q 34.796875 45.40625 37.84375 43.796875 
Q 40.90625 42.203125 42.84375 39.5 
Q 44.796875 36.796875 45.75 33.34375 
Q 46.703125 29.90625 46.703125 26.296875 
z
" id="HelveticaNeue-112"/>
        <path d="M 6.09375 51.703125 
L 6.09375 0 
L 14.59375 0 
L 14.59375 23 
Q 14.59375 28 15.59375 31.84375 
Q 16.59375 35.703125 18.796875 38.390625 
Q 21 41.09375 24.59375 42.5 
Q 28.203125 43.90625 33.296875 43.90625 
L 33.296875 52.90625 
Q 26.40625 53.09375 21.90625 50.09375 
Q 17.40625 47.09375 14.296875 40.796875 
L 14.09375 40.796875 
L 14.09375 51.703125 
z
" id="HelveticaNeue-114"/>
       </defs>
       <use xlink:href="#HelveticaNeue-65"/>
       <use x="64.799988" xlink:href="#HelveticaNeue-112"/>
       <use x="124.099976" xlink:href="#HelveticaNeue-114"/>
      </g>
     </g>
    </g>
    <g id="xtick_6">
     <g id="line2d_6">
      <g>
       <use style="fill:#555555;stroke:#555555;stroke-width:0.8;" x="431.197257" xlink:href="#m6880f721ab" y="262.5"/>
      </g>
     </g>
     <g id="text_5">
      <!-- Jul -->
      <g style="fill:#555555;" transform="translate(424.712101 276.640625)scale(0.1 -0.1)">
       <use xlink:href="#HelveticaNeue-74"/>
       <use x="51.899994" xlink:href="#HelveticaNeue-117"/>
       <use x="107.499985" xlink:href="#HelveticaNeue-108"/>
      </g>
     </g>
    </g>
    <g id="xtick_7">
     <g id="line2d_7">
      <g>
       <use style="fill:#555555;stroke:#555555;stroke-width:0.8;" x="450" xlink:href="#m6880f721ab" y="262.5"/>
      </g>
     </g>
    </g>
    <g id="xtick_8">
     <g id="line2d_8">
      <defs>
       <path d="M 0 0 
L 0 2 
" id="m39e5f0cedf" style="stroke:#555555;stroke-width:0.6;"/>
      </defs>
      <g>
       <use style="fill:#555555;stroke:#555555;stroke-width:0.6;" x="82.937764" xlink:href="#m39e5f0cedf" y="262.5"/>
      </g>
     </g>
    </g>
    <g id="xtick_9">
     <g id="line2d_9">
      <g>
       <use style="fill:#555555;stroke:#555555;stroke-width:0.6;" x="108.280591" xlink:href="#m39e5f0cedf" y="262.5"/>
      </g>
     </g>
    </g>
    <g id="xtick_10">
     <g id="line2d_10">
      <g>
       <use style="fill:#555555;stroke:#555555;stroke-width:0.6;" x="158.148734" xlink:href="#m39e5f0cedf" y="262.5"/>
      </g>
     </g>
    </g>
    <g id="xtick_11">
     <g id="line2d_11">
      <g>
       <use style="fill:#555555;stroke:#555555;stroke-width:0.6;" x="183.491561" xlink:href="#m39e5f0cedf" y="262.5"/>
      </g>
     </g>
    </g>
    <g id="xtick_12">
     <g id="line2d_12">
      <g>
       <use style="fill:#555555;stroke:#555555;stroke-width:0.6;" x="233.359705" xlink:href="#m39e5f0cedf" y="262.5"/>
      </g>
     </g>
    </g>
    <g id="xtick_13">
     <g id="line2d_13">
      <g>
       <use style="fill:#555555;stroke:#555555;stroke-width:0.6;" x="257.885021" xlink:href="#m39e5f0cedf" y="262.5"/>
      </g>
     </g>
    </g>
    <g id="xtick_14">
     <g id="line2d_14">
      <g>
       <use style="fill:#555555;stroke:#555555;stroke-width:0.6;" x="308.570675" xlink:href="#m39e5f0cedf" y="262.5"/>
      </g>
     </g>
    </g>
    <g id="xtick_15">
     <g id="line2d_15">
      <g>
       <use style="fill:#555555;stroke:#555555;stroke-width:0.6;" x="331.46097" xlink:href="#m39e5f0cedf" y="262.5"/>
      </g>
     </g>
    </g>
    <g id="xtick_16">
     <g id="line2d_16">
      <g>
       <use style="fill:#555555;stroke:#555555;stroke-width:0.6;" x="381.329114" xlink:href="#m39e5f0cedf" y="262.5"/>
      </g>
     </g>
    </g>
    <g id="xtick_17">
     <g id="line2d_17">
      <g>
       <use style="fill:#555555;stroke:#555555;stroke-width:0.6;" x="406.671941" xlink:href="#m39e5f0cedf" y="262.5"/>
      </g>
     </g>
    </g>
    <g id="text_6">
     <!-- fecha -->
     <g style="fill:#555555;" transform="translate(243.935156 300.290625)scale(0.1 -0.1)">
      <defs>
       <path d="M 9.90625 44.203125 
L 9.90625 0 
L 18.40625 0 
L 18.40625 44.203125 
L 28.40625 44.203125 
L 28.40625 51.703125 
L 18.40625 51.703125 
L 18.40625 58.90625 
Q 18.40625 62.296875 20.09375 63.5 
Q 21.796875 64.703125 24.90625 64.703125 
Q 26 64.703125 27.296875 64.546875 
Q 28.59375 64.40625 29.703125 64 
L 29.703125 71.40625 
Q 28.5 71.796875 26.953125 72 
Q 25.40625 72.203125 24.203125 72.203125 
Q 17.203125 72.203125 13.546875 68.953125 
Q 9.90625 65.703125 9.90625 59.40625 
L 9.90625 51.703125 
L 1.203125 51.703125 
L 1.203125 44.203125 
z
" id="HelveticaNeue-102"/>
       <path d="M 42.296875 30.796875 
L 12.59375 30.796875 
Q 12.796875 33.796875 13.890625 36.4375 
Q 15 39.09375 16.890625 41.09375 
Q 18.796875 43.09375 21.4375 44.25 
Q 24.09375 45.40625 27.40625 45.40625 
Q 30.59375 45.40625 33.25 44.25 
Q 35.90625 43.09375 37.84375 41.140625 
Q 39.796875 39.203125 40.9375 36.5 
Q 42.09375 33.796875 42.296875 30.796875 
z
M 50.5 16.40625 
L 42.09375 16.40625 
Q 41 11.296875 37.546875 8.796875 
Q 34.09375 6.296875 28.703125 6.296875 
Q 24.5 6.296875 21.390625 7.6875 
Q 18.296875 9.09375 16.296875 11.4375 
Q 14.296875 13.796875 13.390625 16.84375 
Q 12.5 19.90625 12.59375 23.296875 
L 51.296875 23.296875 
Q 51.5 28 50.453125 33.203125 
Q 49.40625 38.40625 46.65625 42.796875 
Q 43.90625 47.203125 39.34375 50.046875 
Q 34.796875 52.90625 27.90625 52.90625 
Q 22.59375 52.90625 18.140625 50.90625 
Q 13.703125 48.90625 10.453125 45.296875 
Q 7.203125 41.703125 5.390625 36.796875 
Q 3.59375 31.90625 3.59375 26 
Q 3.796875 20.09375 5.34375 15.09375 
Q 6.90625 10.09375 10 6.5 
Q 13.09375 2.90625 17.640625 0.90625 
Q 22.203125 -1.09375 28.40625 -1.09375 
Q 37.203125 -1.09375 43 3.296875 
Q 48.796875 7.703125 50.5 16.40625 
z
" id="HelveticaNeue-101"/>
       <path d="M 6.40625 71.40625 
L 6.40625 0 
L 14.90625 0 
L 14.90625 29.203125 
Q 14.90625 32.703125 15.84375 35.640625 
Q 16.796875 38.59375 18.6875 40.796875 
Q 20.59375 43 23.4375 44.203125 
Q 26.296875 45.40625 30.203125 45.40625 
Q 35.09375 45.40625 37.890625 42.59375 
Q 40.703125 39.796875 40.703125 35 
L 40.703125 0 
L 49.203125 0 
L 49.203125 34 
Q 49.203125 38.203125 48.34375 41.640625 
Q 47.5 45.09375 45.390625 47.59375 
Q 43.296875 50.09375 39.890625 51.5 
Q 36.5 52.90625 31.40625 52.90625 
Q 29.09375 52.90625 26.640625 52.40625 
Q 24.203125 51.90625 21.953125 50.84375 
Q 19.703125 49.796875 17.890625 48.140625 
Q 16.09375 46.5 15.09375 44.09375 
L 14.90625 44.09375 
L 14.90625 71.40625 
z
" id="HelveticaNeue-104"/>
      </defs>
      <use xlink:href="#HelveticaNeue-102"/>
      <use x="29.599991" xlink:href="#HelveticaNeue-101"/>
      <use x="83.299988" xlink:href="#HelveticaNeue-99"/>
      <use x="136.999985" xlink:href="#HelveticaNeue-104"/>
      <use x="192.599976" xlink:href="#HelveticaNeue-97"/>
     </g>
    </g>
   </g>
   <g id="matplotlib.axis_2">
    <g id="ytick_1">
     <g id="line2d_18">
      <defs>
       <path d="M 0 0 
L -3.5 0 
" id="mbfb3463a1e" style="stroke:#555555;stroke-width:0.8;"/>
      </defs>
      <g>
       <use style="fill:#555555;stroke:#555555;stroke-width:0.8;" x="62.5" xlink:href="#mbfb3463a1e" y="251.795455"/>
      </g>
     </g>
     <g id="text_7">
      <!-- 0 -->
      <g style="fill:#555555;" transform="translate(49.940625 255.365767)scale(0.1 -0.1)">
       <use xlink:href="#HelveticaNeue-48"/>
      </g>
     </g>
    </g>
    <g id="ytick_2">
     <g id="line2d_19">
      <g>
       <use style="fill:#555555;stroke:#555555;stroke-width:0.8;" x="62.5" xlink:href="#mbfb3463a1e" y="221.035266"/>
      </g>
     </g>
     <g id="text_8">
      <!-- 25 -->
      <g style="fill:#555555;" transform="translate(44.38125 224.605579)scale(0.1 -0.1)">
       <defs>
        <path d="M 47 62.203125 
L 47 69.703125 
L 12 69.703125 
L 5.40625 32.90625 
L 12.703125 32.5 
Q 15.203125 35.5 18.453125 37.34375 
Q 21.703125 39.203125 25.90625 39.203125 
Q 29.5 39.203125 32.453125 38 
Q 35.40625 36.796875 37.5 34.640625 
Q 39.59375 32.5 40.75 29.546875 
Q 41.90625 26.59375 41.90625 23.09375 
Q 41.90625 18.90625 40.703125 15.75 
Q 39.5 12.59375 37.453125 10.5 
Q 35.40625 8.40625 32.65625 7.34375 
Q 29.90625 6.296875 26.90625 6.296875 
Q 23.703125 6.296875 21.046875 7.25 
Q 18.40625 8.203125 16.453125 9.953125 
Q 14.5 11.703125 13.34375 14.046875 
Q 12.203125 16.40625 12 19.09375 
L 3.5 19.09375 
Q 3.59375 14.296875 5.390625 10.5 
Q 7.203125 6.703125 10.296875 4.140625 
Q 13.40625 1.59375 17.453125 0.25 
Q 21.5 -1.09375 26.09375 -1.09375 
Q 32.296875 -1.09375 36.9375 0.84375 
Q 41.59375 2.796875 44.6875 6.09375 
Q 47.796875 9.40625 49.34375 13.65625 
Q 50.90625 17.90625 50.90625 22.40625 
Q 50.90625 28.5 49.09375 33.046875 
Q 47.296875 37.59375 44.1875 40.640625 
Q 41.09375 43.703125 36.890625 45.203125 
Q 32.703125 46.703125 28 46.703125 
Q 24.40625 46.703125 20.75 45.453125 
Q 17.09375 44.203125 14.796875 41.59375 
L 14.59375 41.796875 
L 18.40625 62.203125 
z
" id="HelveticaNeue-53"/>
       </defs>
       <use xlink:href="#HelveticaNeue-50"/>
       <use x="55.599991" xlink:href="#HelveticaNeue-53"/>
      </g>
     </g>
    </g>
    <g id="ytick_3">
     <g id="line2d_20">
      <g>
       <use style="fill:#555555;stroke:#555555;stroke-width:0.8;" x="62.5" xlink:href="#mbfb3463a1e" y="190.275078"/>
      </g>
     </g>
     <g id="text_9">
      <!-- 50 -->
      <g style="fill:#555555;" transform="translate(44.38125 193.845391)scale(0.1 -0.1)">
       <use xlink:href="#HelveticaNeue-53"/>
       <use x="55.599991" xlink:href="#HelveticaNeue-48"/>
      </g>
     </g>
    </g>
    <g id="ytick_4">
     <g id="line2d_21">
      <g>
       <use style="fill:#555555;stroke:#555555;stroke-width:0.8;" x="62.5" xlink:href="#mbfb3463a1e" y="159.51489"/>
      </g>
     </g>
     <g id="text_10">
      <!-- 75 -->
      <g style="fill:#555555;" transform="translate(44.38125 163.085203)scale(0.1 -0.1)">
       <defs>
        <path d="M 50.90625 62.40625 
L 50.90625 69.703125 
L 5 69.703125 
L 5 61.703125 
L 42.203125 61.703125 
Q 36.59375 55.796875 31.75 48.796875 
Q 26.90625 41.796875 23.203125 33.9375 
Q 19.5 26.09375 17.140625 17.546875 
Q 14.796875 9 14.203125 0 
L 23.703125 0 
Q 24.203125 8.296875 26.5 17.09375 
Q 28.796875 25.90625 32.4375 34.203125 
Q 36.09375 42.5 40.796875 49.796875 
Q 45.5 57.09375 50.90625 62.40625 
z
" id="HelveticaNeue-55"/>
       </defs>
       <use xlink:href="#HelveticaNeue-55"/>
       <use x="55.599991" xlink:href="#HelveticaNeue-53"/>
      </g>
     </g>
    </g>
    <g id="ytick_5">
     <g id="line2d_22">
      <g>
       <use style="fill:#555555;stroke:#555555;stroke-width:0.8;" x="62.5" xlink:href="#mbfb3463a1e" y="128.754702"/>
      </g>
     </g>
     <g id="text_11">
      <!-- 100 -->
      <g style="fill:#555555;" transform="translate(38.821875 132.325015)scale(0.1 -0.1)">
       <use xlink:href="#HelveticaNeue-49"/>
       <use x="55.599991" xlink:href="#HelveticaNeue-48"/>
       <use x="111.199982" xlink:href="#HelveticaNeue-48"/>
      </g>
     </g>
    </g>
    <g id="ytick_6">
     <g id="line2d_23">
      <g>
       <use style="fill:#555555;stroke:#555555;stroke-width:0.8;" x="62.5" xlink:href="#mbfb3463a1e" y="97.994514"/>
      </g>
     </g>
     <g id="text_12">
      <!-- 125 -->
      <g style="fill:#555555;" transform="translate(38.821875 101.564827)scale(0.1 -0.1)">
       <use xlink:href="#HelveticaNeue-49"/>
       <use x="55.599991" xlink:href="#HelveticaNeue-50"/>
       <use x="111.199982" xlink:href="#HelveticaNeue-53"/>
      </g>
     </g>
    </g>
    <g id="ytick_7">
     <g id="line2d_24">
      <g>
       <use style="fill:#555555;stroke:#555555;stroke-width:0.8;" x="62.5" xlink:href="#mbfb3463a1e" y="67.234326"/>
      </g>
     </g>
     <g id="text_13">
      <!-- 150 -->
      <g style="fill:#555555;" transform="translate(38.821875 70.804639)scale(0.1 -0.1)">
       <use xlink:href="#HelveticaNeue-49"/>
       <use x="55.599991" xlink:href="#HelveticaNeue-53"/>
       <use x="111.199982" xlink:href="#HelveticaNeue-48"/>
      </g>
     </g>
    </g>
    <g id="ytick_8">
     <g id="line2d_25">
      <g>
       <use style="fill:#555555;stroke:#555555;stroke-width:0.8;" x="62.5" xlink:href="#mbfb3463a1e" y="36.474138"/>
      </g>
     </g>
     <g id="text_14">
      <!-- 175 -->
      <g style="fill:#555555;" transform="translate(38.821875 40.04445)scale(0.1 -0.1)">
       <use xlink:href="#HelveticaNeue-49"/>
       <use x="55.599991" xlink:href="#HelveticaNeue-55"/>
       <use x="111.199982" xlink:href="#HelveticaNeue-53"/>
      </g>
     </g>
    </g>
   </g>
   <g id="line2d_26">
    <path clip-path="url(#pf2e97dc99a)" d="M 63.317511 250.565047 
L 64.135021 251.795455 
L 64.952532 250.565047 
L 65.770042 251.795455 
L 66.587553 250.565047 
L 67.405063 251.795455 
L 68.222574 251.795455 
L 69.040084 249.334639 
L 69.857595 251.795455 
L 70.675105 250.565047 
L 71.492616 251.795455 
L 72.310127 250.565047 
L 73.127637 245.643417 
L 73.945148 251.795455 
L 74.762658 250.565047 
L 75.580169 251.795455 
L 76.397679 250.565047 
L 77.21519 251.795455 
L 78.0327 248.104232 
L 78.850211 250.565047 
L 79.667722 250.565047 
L 80.485232 251.795455 
L 81.302743 251.795455 
L 82.120253 250.565047 
L 82.937764 251.795455 
L 83.755274 250.565047 
L 84.572785 245.643417 
L 85.390295 251.795455 
L 86.207806 251.795455 
L 87.025316 250.565047 
L 87.842827 244.413009 
L 88.660338 248.104232 
L 89.477848 227.187304 
L 90.295359 227.187304 
L 91.112869 249.334639 
L 91.93038 250.565047 
L 92.74789 250.565047 
L 93.565401 249.334639 
L 94.382911 246.873824 
L 95.200422 251.795455 
L 96.017932 246.873824 
L 96.835443 249.334639 
L 97.652954 248.104232 
L 98.470464 250.565047 
L 100.105485 243.182602 
L 100.922996 248.104232 
L 101.740506 246.873824 
L 102.558017 200.118339 
L 103.375527 241.952194 
L 104.193038 248.104232 
L 105.010549 246.873824 
L 105.828059 248.104232 
L 106.64557 248.104232 
L 107.46308 244.413009 
L 108.280591 250.565047 
L 109.098101 241.952194 
L 109.915612 241.952194 
L 110.733122 246.873824 
L 111.550633 241.952194 
L 112.368143 246.873824 
L 113.185654 244.413009 
L 114.003165 249.334639 
L 114.820675 244.413009 
L 115.638186 241.952194 
L 116.455696 250.565047 
L 117.273207 241.952194 
L 118.090717 248.104232 
L 118.908228 246.873824 
L 119.725738 246.873824 
L 120.543249 244.413009 
L 121.360759 237.030564 
L 122.17827 184.123041 
L 122.995781 218.574451 
L 123.813291 225.956897 
L 124.630802 203.809561 
L 125.448312 239.491379 
L 126.265823 238.260972 
L 127.083333 208.731191 
L 127.900844 230.878527 
L 128.718354 228.417712 
L 129.535865 221.035266 
L 130.353376 222.265674 
L 131.170886 237.030564 
L 131.988397 214.883229 
L 132.805907 227.187304 
L 133.623418 118.911442 
L 134.440928 240.721787 
L 135.258439 180.431818 
L 136.075949 240.721787 
L 136.89346 229.648119 
L 137.71097 227.187304 
L 138.528481 174.279781 
L 139.345992 214.883229 
L 140.163502 228.417712 
L 140.981013 208.731191 
L 141.798523 179.201411 
L 142.616034 219.804859 
L 144.251055 212.422414 
L 145.068565 165.666928 
L 145.886076 209.961599 
L 146.703586 192.735893 
L 147.521097 218.574451 
L 148.338608 221.035266 
L 149.156118 181.662226 
L 149.973629 187.814263 
L 150.791139 190.275078 
L 151.60865 174.279781 
L 152.42616 213.652821 
L 153.243671 221.035266 
L 154.061181 197.657524 
L 154.878692 202.579154 
L 155.696203 203.809561 
L 156.513713 201.348746 
L 157.331224 202.579154 
L 158.148734 179.201411 
L 158.966245 170.588558 
L 159.783755 213.652821 
L 160.601266 169.35815 
L 161.418776 139.82837 
L 162.236287 217.344044 
L 163.053797 214.883229 
L 163.871308 200.118339 
L 164.688819 195.196708 
L 165.506329 192.735893 
L 166.32384 157.054075 
L 167.14135 200.118339 
L 167.958861 212.422414 
L 168.776371 186.583856 
L 169.593882 185.353448 
L 170.411392 227.187304 
L 172.046414 175.510188 
L 172.863924 186.583856 
L 173.681435 185.353448 
L 174.498945 202.579154 
L 175.316456 216.113636 
L 176.133966 185.353448 
L 176.951477 198.887931 
L 177.768987 152.132445 
L 178.586498 174.279781 
L 179.404008 234.569749 
L 180.221519 191.505486 
L 181.03903 195.196708 
L 181.85654 225.956897 
L 182.674051 189.044671 
L 183.491561 222.265674 
L 184.309072 219.804859 
L 185.944093 224.726489 
L 186.761603 228.417712 
L 187.579114 238.260972 
L 188.396624 214.883229 
L 189.214135 221.035266 
L 190.031646 228.417712 
L 190.849156 212.422414 
L 191.666667 216.113636 
L 192.484177 214.883229 
L 193.301688 235.800157 
L 194.119198 223.496082 
L 194.936709 214.883229 
L 195.754219 225.956897 
L 196.57173 190.275078 
L 197.389241 214.883229 
L 198.206751 223.496082 
L 199.024262 239.491379 
L 199.841772 237.030564 
L 200.659283 225.956897 
L 201.476793 212.422414 
L 202.294304 207.500784 
L 203.111814 228.417712 
L 203.929325 232.108934 
L 204.746835 233.339342 
L 205.564346 239.491379 
L 206.381857 222.265674 
L 207.199367 237.030564 
L 208.016878 219.804859 
L 208.834388 206.270376 
L 210.469409 224.726489 
L 211.28692 228.417712 
L 212.10443 230.878527 
L 212.921941 229.648119 
L 213.739451 216.113636 
L 214.556962 232.108934 
L 215.374473 192.735893 
L 216.191983 232.108934 
L 217.009494 233.339342 
L 217.827004 243.182602 
L 218.644515 233.339342 
L 219.462025 228.417712 
L 220.279536 222.265674 
L 221.097046 224.726489 
L 221.914557 213.652821 
L 222.732068 225.956897 
L 223.549578 229.648119 
L 224.367089 225.956897 
L 225.184599 211.192006 
L 226.00211 222.265674 
L 226.81962 222.265674 
L 227.637131 223.496082 
L 228.454641 222.265674 
L 229.272152 217.344044 
L 230.089662 218.574451 
L 230.907173 208.731191 
L 231.724684 221.035266 
L 232.542194 228.417712 
L 234.177215 223.496082 
L 234.994726 219.804859 
L 235.812236 205.039969 
L 236.629747 232.108934 
L 238.264768 219.804859 
L 239.082278 222.265674 
L 239.899789 223.496082 
L 240.7173 216.113636 
L 241.53481 223.496082 
L 242.352321 232.108934 
L 243.169831 228.417712 
L 243.987342 230.878527 
L 244.804852 234.569749 
L 245.622363 232.108934 
L 246.439873 209.961599 
L 247.257384 225.956897 
L 248.074895 216.113636 
L 248.892405 224.726489 
L 249.709916 206.270376 
L 250.527426 224.726489 
L 251.344937 207.500784 
L 252.162447 213.652821 
L 252.979958 189.044671 
L 253.797468 191.505486 
L 254.614979 180.431818 
L 255.432489 223.496082 
L 256.25 225.956897 
L 257.067511 216.113636 
L 257.885021 208.731191 
L 258.702532 213.652821 
L 259.520042 217.344044 
L 260.337553 201.348746 
L 261.155063 206.270376 
L 261.972574 229.648119 
L 262.790084 202.579154 
L 263.607595 219.804859 
L 264.425105 200.118339 
L 265.242616 197.657524 
L 266.060127 197.657524 
L 266.877637 217.344044 
L 267.695148 207.500784 
L 268.512658 211.192006 
L 269.330169 174.279781 
L 270.147679 152.132445 
L 270.96519 213.652821 
L 271.7827 169.35815 
L 272.600211 214.883229 
L 273.417722 192.735893 
L 274.235232 217.344044 
L 275.052743 170.588558 
L 275.870253 197.657524 
L 276.687764 193.966301 
L 277.505274 225.956897 
L 278.322785 203.809561 
L 279.140295 219.804859 
L 279.957806 182.892633 
L 280.775316 121.372257 
L 281.592827 157.054075 
L 282.410338 184.123041 
L 283.227848 223.496082 
L 284.045359 177.971003 
L 284.862869 187.814263 
L 285.68038 186.583856 
L 286.49789 169.35815 
L 287.315401 157.054075 
L 288.132911 161.975705 
L 288.950422 160.745298 
L 289.767932 179.201411 
L 290.585443 206.270376 
L 291.402954 207.500784 
L 292.220464 120.14185 
L 293.037975 160.745298 
L 293.855485 181.662226 
L 294.672996 153.362853 
L 295.490506 136.137147 
L 296.308017 121.372257 
L 297.125527 164.43652 
L 297.943038 161.975705 
L 298.760549 175.510188 
L 299.578059 175.510188 
L 300.39557 174.279781 
L 301.21308 179.201411 
L 302.030591 209.961599 
L 302.848101 182.892633 
L 303.665612 209.961599 
L 304.483122 168.127743 
L 305.300633 197.657524 
L 306.118143 219.804859 
L 306.935654 217.344044 
L 308.570675 207.500784 
L 309.388186 209.961599 
L 310.205696 227.187304 
L 311.023207 224.726489 
L 311.840717 216.113636 
L 312.658228 224.726489 
L 313.475738 225.956897 
L 314.293249 221.035266 
L 315.110759 218.574451 
L 315.92827 217.344044 
L 316.745781 229.648119 
L 317.563291 223.496082 
L 318.380802 239.491379 
L 319.198312 233.339342 
L 320.015823 235.800157 
L 320.833333 233.339342 
L 321.650844 235.800157 
L 322.468354 241.952194 
L 323.285865 233.339342 
L 324.103376 237.030564 
L 324.920886 244.413009 
L 325.738397 237.030564 
L 326.555907 237.030564 
L 327.373418 235.800157 
L 328.190928 227.187304 
L 329.008439 239.491379 
L 330.64346 241.952194 
L 331.46097 245.643417 
L 332.278481 235.800157 
L 333.095992 240.721787 
L 333.913502 233.339342 
L 335.548523 240.721787 
L 336.366034 246.873824 
L 337.183544 250.565047 
L 338.001055 246.873824 
L 338.818565 246.873824 
L 339.636076 234.569749 
L 340.453586 248.104232 
L 341.271097 249.334639 
L 342.088608 241.952194 
L 342.906118 243.182602 
L 343.723629 241.952194 
L 344.541139 237.030564 
L 345.35865 244.413009 
L 346.17616 243.182602 
L 346.993671 243.182602 
L 347.811181 238.260972 
L 348.628692 250.565047 
L 349.446203 248.104232 
L 350.263713 240.721787 
L 351.081224 239.491379 
L 351.898734 230.878527 
L 352.716245 234.569749 
L 353.533755 241.952194 
L 354.351266 239.491379 
L 355.168776 218.574451 
L 355.986287 232.108934 
L 356.803797 233.339342 
L 357.621308 206.270376 
L 358.438819 229.648119 
L 359.256329 234.569749 
L 360.07384 223.496082 
L 360.89135 200.118339 
L 361.708861 228.417712 
L 362.526371 211.192006 
L 363.343882 208.731191 
L 364.161392 233.339342 
L 364.978903 218.574451 
L 365.796414 169.35815 
L 366.613924 179.201411 
L 367.431435 186.583856 
L 368.248945 192.735893 
L 369.066456 200.118339 
L 369.883966 209.961599 
L 370.701477 205.039969 
L 371.518987 180.431818 
L 372.336498 177.971003 
L 373.154008 186.583856 
L 373.971519 175.510188 
L 374.78903 161.975705 
L 375.60654 198.887931 
L 376.424051 211.192006 
L 377.241561 166.897335 
L 378.059072 159.51489 
L 378.876582 173.049373 
L 379.694093 214.883229 
L 380.511603 168.127743 
L 381.329114 221.035266 
L 382.146624 186.583856 
L 382.964135 173.049373 
L 383.781646 175.510188 
L 384.599156 223.496082 
L 385.416667 97.994514 
L 386.234177 175.510188 
L 387.051688 207.500784 
L 387.869198 177.971003 
L 388.686709 180.431818 
L 389.504219 139.82837 
L 390.32173 160.745298 
L 391.139241 196.427116 
L 391.956751 180.431818 
L 392.774262 177.971003 
L 393.591772 212.422414 
L 394.409283 187.814263 
L 395.226793 180.431818 
L 396.044304 200.118339 
L 396.861814 177.971003 
L 397.679325 101.685737 
L 398.496835 137.367555 
L 399.314346 139.82837 
L 400.131857 120.14185 
L 400.949367 89.381661 
L 401.766878 143.519592 
L 402.584388 141.058777 
L 403.401899 132.445925 
L 404.219409 136.137147 
L 405.03692 143.519592 
L 405.85443 141.058777 
L 406.671941 90.612069 
L 407.489451 69.695141 
L 408.306962 105.376959 
L 409.124473 88.151254 
L 409.941983 74.616771 
L 410.759494 128.754702 
L 411.577004 102.916144 
L 413.212025 145.980408 
L 414.029536 154.59326 
L 415.664557 56.160658 
L 416.482068 166.897335 
L 417.299578 158.284483 
L 418.117089 107.837774 
L 418.934599 85.690439 
L 419.75211 138.597962 
L 420.56962 77.077586 
L 421.387131 136.137147 
L 422.204641 141.058777 
L 423.022152 186.583856 
L 423.839662 118.911442 
L 424.657173 107.837774 
L 425.474684 141.058777 
L 427.109705 37.704545 
L 427.927215 143.519592 
L 428.744726 134.90674 
L 429.562236 113.989812 
L 430.379747 148.441223 
L 431.197257 105.376959 
L 432.014768 144.75 
L 432.832278 137.367555 
L 433.649789 155.823668 
L 434.4673 195.196708 
L 435.28481 152.132445 
L 436.102321 174.279781 
L 436.919831 166.897335 
L 437.737342 164.43652 
L 438.554852 192.735893 
L 439.372363 206.270376 
L 440.189873 186.583856 
L 441.824895 158.284483 
L 442.642405 180.431818 
L 443.459916 184.123041 
L 444.277426 176.740596 
L 445.094937 211.192006 
L 446.729958 218.574451 
L 447.547468 197.657524 
L 448.364979 216.113636 
L 449.182489 216.113636 
L 450 249.334639 
L 450 249.334639 
" style="fill:none;stroke:#000000;stroke-dasharray:1.5,2.475;stroke-dashoffset:0;stroke-opacity:0.5;stroke-width:1.5;"/>
   </g>
   <g id="line2d_27">
    <path clip-path="url(#pf2e97dc99a)" d="M 62.5 250.565047 
L 64.952532 250.565047 
L 65.770042 251.795455 
L 66.587553 250.565047 
L 84.572785 250.565047 
L 85.390295 249.334639 
L 86.207806 249.334639 
L 87.025316 246.873824 
L 87.842827 243.182602 
L 89.477848 240.721787 
L 91.93038 244.413009 
L 93.565401 249.334639 
L 96.017932 249.334639 
L 96.835443 248.104232 
L 98.470464 248.104232 
L 99.287975 246.873824 
L 100.105485 241.952194 
L 100.922996 239.491379 
L 101.740506 238.260972 
L 103.375527 238.260972 
L 104.193038 239.491379 
L 105.010549 241.952194 
L 105.828059 246.873824 
L 106.64557 246.873824 
L 107.46308 245.643417 
L 109.098101 245.643417 
L 109.915612 244.413009 
L 111.550633 244.413009 
L 112.368143 245.643417 
L 118.908228 245.643417 
L 119.725738 238.260972 
L 121.360759 228.417712 
L 122.17827 222.265674 
L 122.995781 219.804859 
L 123.813291 219.804859 
L 124.630802 218.574451 
L 125.448312 223.496082 
L 126.265823 225.956897 
L 127.083333 224.726489 
L 127.900844 225.956897 
L 128.718354 225.956897 
L 129.535865 224.726489 
L 130.353376 225.956897 
L 131.170886 213.652821 
L 131.988397 211.192006 
L 132.805907 205.039969 
L 134.440928 205.039969 
L 135.258439 208.731191 
L 136.075949 207.500784 
L 136.89346 216.113636 
L 137.71097 213.652821 
L 138.528481 216.113636 
L 139.345992 208.731191 
L 140.981013 206.270376 
L 141.798523 209.961599 
L 142.616034 205.039969 
L 144.251055 200.118339 
L 145.068565 202.579154 
L 145.886076 202.579154 
L 146.703586 201.348746 
L 147.521097 198.887931 
L 148.338608 201.348746 
L 149.156118 196.427116 
L 150.791139 196.427116 
L 151.60865 195.196708 
L 152.42616 198.887931 
L 154.061181 203.809561 
L 154.878692 205.039969 
L 155.696203 201.348746 
L 156.513713 195.196708 
L 157.331224 195.196708 
L 158.148734 191.505486 
L 158.966245 182.892633 
L 159.783755 182.892633 
L 160.601266 184.123041 
L 161.418776 187.814263 
L 162.236287 192.735893 
L 163.871308 192.735893 
L 164.688819 196.427116 
L 166.32384 191.505486 
L 167.14135 190.275078 
L 167.958861 193.966301 
L 169.593882 198.887931 
L 170.411392 197.657524 
L 171.228903 193.966301 
L 172.046414 193.966301 
L 172.863924 196.427116 
L 173.681435 192.735893 
L 174.498945 193.966301 
L 176.133966 189.044671 
L 176.951477 191.505486 
L 177.768987 190.275078 
L 178.586498 190.275078 
L 179.404008 195.196708 
L 180.221519 197.657524 
L 181.03903 205.039969 
L 181.85654 209.961599 
L 182.674051 209.961599 
L 183.491561 213.652821 
L 184.309072 218.574451 
L 185.126582 221.035266 
L 185.944093 224.726489 
L 186.761603 224.726489 
L 187.579114 225.956897 
L 188.396624 224.726489 
L 189.214135 222.265674 
L 190.849156 219.804859 
L 191.666667 221.035266 
L 193.301688 221.035266 
L 194.119198 218.574451 
L 194.936709 217.344044 
L 196.57173 217.344044 
L 198.206751 222.265674 
L 199.841772 224.726489 
L 201.476793 224.726489 
L 202.294304 223.496082 
L 203.929325 225.956897 
L 204.746835 229.648119 
L 205.564346 230.878527 
L 206.381857 228.417712 
L 207.199367 224.726489 
L 208.016878 222.265674 
L 208.834388 221.035266 
L 209.651899 222.265674 
L 210.469409 222.265674 
L 211.28692 223.496082 
L 212.10443 225.956897 
L 212.921941 223.496082 
L 213.739451 222.265674 
L 214.556962 222.265674 
L 215.374473 223.496082 
L 217.009494 228.417712 
L 217.827004 228.417712 
L 218.644515 232.108934 
L 219.462025 228.417712 
L 220.279536 227.187304 
L 221.097046 224.726489 
L 222.732068 222.265674 
L 226.00211 222.265674 
L 227.637131 219.804859 
L 228.454641 219.804859 
L 229.272152 218.574451 
L 230.089662 218.574451 
L 231.724684 221.035266 
L 232.542194 221.035266 
L 233.359705 219.804859 
L 234.177215 222.265674 
L 234.994726 222.265674 
L 235.812236 221.035266 
L 238.264768 221.035266 
L 239.082278 223.496082 
L 239.899789 222.265674 
L 241.53481 224.726489 
L 242.352321 227.187304 
L 243.169831 228.417712 
L 244.804852 228.417712 
L 245.622363 225.956897 
L 246.439873 224.726489 
L 247.257384 221.035266 
L 248.074895 219.804859 
L 248.892405 217.344044 
L 249.709916 217.344044 
L 250.527426 212.422414 
L 251.344937 208.731191 
L 252.162447 202.579154 
L 253.797468 202.579154 
L 254.614979 203.809561 
L 255.432489 206.270376 
L 257.067511 213.652821 
L 257.885021 214.883229 
L 258.702532 212.422414 
L 259.520042 212.422414 
L 260.337553 211.192006 
L 261.155063 212.422414 
L 264.425105 207.500784 
L 265.242616 205.039969 
L 266.060127 206.270376 
L 266.877637 202.579154 
L 267.695148 196.427116 
L 268.512658 196.427116 
L 269.330169 191.505486 
L 270.147679 189.044671 
L 270.96519 187.814263 
L 272.600211 192.735893 
L 273.417722 196.427116 
L 274.235232 195.196708 
L 275.052743 200.118339 
L 275.870253 198.887931 
L 276.687764 203.809561 
L 277.505274 201.348746 
L 278.322785 196.427116 
L 279.140295 189.044671 
L 279.957806 182.892633 
L 280.775316 179.201411 
L 282.410338 176.740596 
L 283.227848 180.431818 
L 284.045359 186.583856 
L 284.862869 184.123041 
L 285.68038 180.431818 
L 286.49789 171.818966 
L 287.315401 170.588558 
L 288.132911 171.818966 
L 288.950422 175.510188 
L 289.767932 173.049373 
L 290.585443 174.279781 
L 291.402954 174.279781 
L 292.220464 171.818966 
L 293.037975 165.666928 
L 293.855485 154.59326 
L 294.672996 149.67163 
L 295.490506 152.132445 
L 297.125527 154.59326 
L 297.943038 159.51489 
L 298.760549 165.666928 
L 299.578059 176.740596 
L 300.39557 180.431818 
L 301.21308 186.583856 
L 302.030591 187.814263 
L 302.848101 190.275078 
L 303.665612 195.196708 
L 304.483122 198.887931 
L 305.300633 201.348746 
L 306.118143 205.039969 
L 306.935654 206.270376 
L 307.753165 213.652821 
L 308.570675 216.113636 
L 309.388186 216.113636 
L 310.205696 217.344044 
L 311.840717 222.265674 
L 312.658228 222.265674 
L 313.475738 221.035266 
L 314.293249 222.265674 
L 315.110759 222.265674 
L 315.92827 224.726489 
L 316.745781 225.956897 
L 319.198312 233.339342 
L 320.833333 235.800157 
L 321.650844 235.800157 
L 323.285865 238.260972 
L 324.920886 238.260972 
L 325.738397 237.030564 
L 328.190928 237.030564 
L 329.008439 238.260972 
L 329.825949 238.260972 
L 330.64346 239.491379 
L 333.913502 239.491379 
L 338.001055 245.643417 
L 339.636076 245.643417 
L 340.453586 244.413009 
L 341.271097 244.413009 
L 342.088608 243.182602 
L 343.723629 243.182602 
L 344.541139 241.952194 
L 346.17616 241.952194 
L 347.811181 244.413009 
L 350.263713 240.721787 
L 351.081224 240.721787 
L 352.716245 235.800157 
L 354.351266 233.339342 
L 355.168776 229.648119 
L 357.621308 225.956897 
L 358.438819 223.496082 
L 359.256329 222.265674 
L 360.07384 219.804859 
L 360.89135 218.574451 
L 361.708861 218.574451 
L 362.526371 217.344044 
L 363.343882 212.422414 
L 364.161392 208.731191 
L 364.978903 201.348746 
L 366.613924 193.966301 
L 367.431435 191.505486 
L 368.248945 192.735893 
L 369.066456 195.196708 
L 369.883966 195.196708 
L 370.701477 193.966301 
L 371.518987 190.275078 
L 372.336498 185.353448 
L 373.154008 181.662226 
L 373.971519 182.892633 
L 374.78903 182.892633 
L 375.60654 181.662226 
L 376.424051 179.201411 
L 377.241561 182.892633 
L 378.059072 182.892633 
L 378.876582 185.353448 
L 379.694093 185.353448 
L 380.511603 187.814263 
L 381.329114 189.044671 
L 382.146624 192.735893 
L 382.964135 180.431818 
L 384.599156 175.510188 
L 385.416667 174.279781 
L 386.234177 175.510188 
L 387.051688 173.049373 
L 387.869198 166.897335 
L 388.686709 175.510188 
L 389.504219 174.279781 
L 390.32173 171.818966 
L 391.139241 176.740596 
L 391.956751 180.431818 
L 392.774262 186.583856 
L 393.591772 190.275078 
L 394.409283 189.044671 
L 396.044304 171.818966 
L 397.679325 149.67163 
L 398.496835 136.137147 
L 399.314346 128.754702 
L 400.131857 123.833072 
L 400.949367 127.524295 
L 401.766878 127.524295 
L 402.584388 129.98511 
L 403.401899 133.676332 
L 404.219409 133.676332 
L 405.03692 125.06348 
L 405.85443 117.681034 
L 407.489451 100.455329 
L 408.306962 96.764107 
L 409.124473 94.303292 
L 409.941983 99.224922 
L 410.759494 109.068182 
L 411.577004 116.450627 
L 412.394515 121.372257 
L 413.212025 120.14185 
L 414.029536 122.602665 
L 414.847046 127.524295 
L 415.664557 125.06348 
L 416.482068 120.14185 
L 417.299578 118.911442 
L 418.117089 116.450627 
L 418.934599 121.372257 
L 419.75211 117.681034 
L 422.204641 132.445925 
L 423.022152 133.676332 
L 423.839662 133.676332 
L 424.657173 120.14185 
L 426.292194 107.837774 
L 427.109705 107.837774 
L 427.927215 112.759404 
L 428.744726 112.759404 
L 429.562236 121.372257 
L 430.379747 131.215517 
L 431.197257 133.676332 
L 432.832278 148.441223 
L 433.649789 153.362853 
L 434.4673 161.975705 
L 435.28481 165.666928 
L 436.102321 170.588558 
L 436.919831 176.740596 
L 437.737342 177.971003 
L 438.554852 181.662226 
L 439.372363 180.431818 
L 440.189873 181.662226 
L 441.007384 181.662226 
L 441.824895 179.201411 
L 442.642405 179.201411 
L 443.459916 184.123041 
L 445.094937 198.887931 
L 446.729958 208.731191 
L 447.547468 216.113636 
L 448.364979 218.574451 
L 449.182489 219.804859 
L 450 222.265674 
L 450 222.265674 
" style="fill:none;stroke:#b3220f;stroke-linecap:square;stroke-width:1.5;"/>
   </g>
   <g id="patch_3">
    <path d="M 62.5 262.5 
L 62.5 27 
" style="fill:none;stroke:#555555;stroke-linecap:square;stroke-linejoin:miter;"/>
   </g>
   <g id="patch_4">
    <path d="M 62.5 262.5 
L 450 262.5 
" style="fill:none;stroke:#555555;stroke-linecap:square;stroke-linejoin:miter;"/>
   </g>
   <g id="text_15">
    <!-- Antonio Nariño | Casos nuevos: 2021-07-24 -->
    <g style="fill:#555555;" transform="translate(119.325625 17)scale(0.14 -0.14)">
     <defs>
      <path d="M 12.59375 25.796875 
Q 12.59375 30.5 13.84375 34.140625 
Q 15.09375 37.796875 17.296875 40.296875 
Q 19.5 42.796875 22.453125 44.09375 
Q 25.40625 45.40625 28.703125 45.40625 
Q 32 45.40625 34.953125 44.09375 
Q 37.90625 42.796875 40.09375 40.296875 
Q 42.296875 37.796875 43.546875 34.140625 
Q 44.796875 30.5 44.796875 25.796875 
Q 44.796875 21.09375 43.546875 17.4375 
Q 42.296875 13.796875 40.09375 11.34375 
Q 37.90625 8.90625 34.953125 7.59375 
Q 32 6.296875 28.703125 6.296875 
Q 25.40625 6.296875 22.453125 7.59375 
Q 19.5 8.90625 17.296875 11.34375 
Q 15.09375 13.796875 13.84375 17.4375 
Q 12.59375 21.09375 12.59375 25.796875 
z
M 3.59375 25.796875 
Q 3.59375 20.09375 5.1875 15.1875 
Q 6.796875 10.296875 10 6.640625 
Q 13.203125 3 17.890625 0.953125 
Q 22.59375 -1.09375 28.703125 -1.09375 
Q 34.90625 -1.09375 39.546875 0.953125 
Q 44.203125 3 47.390625 6.640625 
Q 50.59375 10.296875 52.1875 15.1875 
Q 53.796875 20.09375 53.796875 25.796875 
Q 53.796875 31.5 52.1875 36.453125 
Q 50.59375 41.40625 47.390625 45.046875 
Q 44.203125 48.703125 39.546875 50.796875 
Q 34.90625 52.90625 28.703125 52.90625 
Q 22.59375 52.90625 17.890625 50.796875 
Q 13.203125 48.703125 10 45.046875 
Q 6.796875 41.40625 5.1875 36.453125 
Q 3.59375 31.5 3.59375 25.796875 
z
" id="HelveticaNeue-111"/>
      <path d="M 15.40625 61 
L 15.40625 71.40625 
L 6.90625 71.40625 
L 6.90625 61 
z
M 6.90625 51.703125 
L 6.90625 0 
L 15.40625 0 
L 15.40625 51.703125 
z
" id="HelveticaNeue-105"/>
      <path id="HelveticaNeue-32"/>
      <path d="M 7.703125 71.40625 
L 7.703125 0 
L 16.703125 0 
L 16.703125 57.296875 
L 16.90625 57.296875 
L 54.203125 0 
L 64.59375 0 
L 64.59375 71.40625 
L 55.59375 71.40625 
L 55.59375 13.5 
L 55.40625 13.5 
L 17.796875 71.40625 
z
" id="HelveticaNeue-78"/>
      <path d="M 45.203125 71.09375 
L 40 71.09375 
Q 39.5 69.59375 38.453125 68.140625 
Q 37.40625 66.703125 35.40625 66.703125 
Q 33.796875 66.703125 32.140625 67.34375 
Q 30.5 68 28.796875 68.75 
Q 27.09375 69.5 25.25 70.09375 
Q 23.40625 70.703125 21.40625 70.703125 
Q 19 70.703125 17.296875 69.796875 
Q 15.59375 68.90625 14.390625 67.40625 
Q 13.203125 65.90625 12.34375 63.90625 
Q 11.5 61.90625 10.90625 59.703125 
L 16.09375 59.703125 
Q 15.90625 61.59375 17.59375 62.75 
Q 19.296875 63.90625 20.90625 63.90625 
Q 22.296875 63.90625 24.046875 63.296875 
Q 25.796875 62.703125 27.59375 62 
Q 29.40625 61.203125 31.15625 60.59375 
Q 32.90625 60 34.203125 60 
Q 37.09375 60 38.9375 60.84375 
Q 40.796875 61.703125 42.09375 63.09375 
Q 44.59375 66.59375 45.203125 71.09375 
z
M 6.40625 51.703125 
L 6.40625 0 
L 14.90625 0 
L 14.90625 29.203125 
Q 14.90625 32.703125 15.84375 35.640625 
Q 16.796875 38.59375 18.6875 40.796875 
Q 20.59375 43 23.4375 44.203125 
Q 26.296875 45.40625 30.203125 45.40625 
Q 35.09375 45.40625 37.890625 42.59375 
Q 40.703125 39.796875 40.703125 35 
L 40.703125 0 
L 49.203125 0 
L 49.203125 34 
Q 49.203125 38.203125 48.34375 41.640625 
Q 47.5 45.09375 45.390625 47.59375 
Q 43.296875 50.09375 39.890625 51.5 
Q 36.5 52.90625 31.40625 52.90625 
Q 19.90625 52.90625 14.59375 43.5 
L 14.40625 43.5 
L 14.40625 51.703125 
z
" id="HelveticaNeue-241"/>
      <path d="M 7.703125 78.59375 
L 7.703125 -21.296875 
L 14.5 -21.296875 
L 14.5 78.59375 
z
" id="HelveticaNeue-124"/>
      <path d="M 58 49.90625 
L 67.5 49.90625 
Q 66.703125 55.59375 64.09375 59.9375 
Q 61.5 64.296875 57.59375 67.1875 
Q 53.703125 70.09375 48.703125 71.59375 
Q 43.703125 73.09375 38.09375 73.09375 
Q 29.90625 73.09375 23.546875 70.140625 
Q 17.203125 67.203125 12.953125 62.09375 
Q 8.703125 57 6.5 50.140625 
Q 4.296875 43.296875 4.296875 35.5 
Q 4.296875 27.703125 6.34375 20.890625 
Q 8.40625 14.09375 12.5 9.09375 
Q 16.59375 4.09375 22.796875 1.25 
Q 29 -1.59375 37.296875 -1.59375 
Q 51 -1.59375 58.890625 5.90625 
Q 66.796875 13.40625 68.203125 26.90625 
L 58.703125 26.90625 
Q 58.40625 22.5 56.90625 18.703125 
Q 55.40625 14.90625 52.75 12.15625 
Q 50.09375 9.40625 46.4375 7.84375 
Q 42.796875 6.296875 38.09375 6.296875 
Q 31.703125 6.296875 27.09375 8.6875 
Q 22.5 11.09375 19.546875 15.140625 
Q 16.59375 19.203125 15.1875 24.640625 
Q 13.796875 30.09375 13.796875 36.203125 
Q 13.796875 41.796875 15.1875 47 
Q 16.59375 52.203125 19.546875 56.25 
Q 22.5 60.296875 27.046875 62.6875 
Q 31.59375 65.09375 38 65.09375 
Q 45.5 65.09375 50.953125 61.296875 
Q 56.40625 57.5 58 49.90625 
z
" id="HelveticaNeue-67"/>
      <path d="M 11.59375 16.296875 
L 3.09375 16.296875 
Q 3.296875 11.5 5.09375 8.140625 
Q 6.90625 4.796875 9.90625 2.75 
Q 12.90625 0.703125 16.796875 -0.1875 
Q 20.703125 -1.09375 25 -1.09375 
Q 28.90625 -1.09375 32.84375 -0.34375 
Q 36.796875 0.40625 39.9375 2.296875 
Q 43.09375 4.203125 45.046875 7.296875 
Q 47 10.40625 47 15.09375 
Q 47 18.796875 45.546875 21.296875 
Q 44.09375 23.796875 41.75 25.4375 
Q 39.40625 27.09375 36.34375 28.09375 
Q 33.296875 29.09375 30.09375 29.796875 
Q 27.09375 30.5 24.09375 31.140625 
Q 21.09375 31.796875 18.6875 32.75 
Q 16.296875 33.703125 14.75 35.140625 
Q 13.203125 36.59375 13.203125 38.796875 
Q 13.203125 40.796875 14.203125 42.046875 
Q 15.203125 43.296875 16.796875 44.046875 
Q 18.40625 44.796875 20.34375 45.09375 
Q 22.296875 45.40625 24.203125 45.40625 
Q 26.296875 45.40625 28.34375 44.953125 
Q 30.40625 44.5 32.09375 43.5 
Q 33.796875 42.5 34.890625 40.84375 
Q 36 39.203125 36.203125 36.703125 
L 44.703125 36.703125 
Q 44.40625 41.40625 42.703125 44.546875 
Q 41 47.703125 38.140625 49.546875 
Q 35.296875 51.40625 31.59375 52.15625 
Q 27.90625 52.90625 23.5 52.90625 
Q 20.09375 52.90625 16.640625 52.046875 
Q 13.203125 51.203125 10.453125 49.453125 
Q 7.703125 47.703125 5.953125 44.890625 
Q 4.203125 42.09375 4.203125 38.203125 
Q 4.203125 33.203125 6.703125 30.390625 
Q 9.203125 27.59375 12.953125 26.046875 
Q 16.703125 24.5 21.09375 23.640625 
Q 25.5 22.796875 29.25 21.75 
Q 33 20.703125 35.5 19 
Q 38 17.296875 38 14 
Q 38 11.59375 36.796875 10.046875 
Q 35.59375 8.5 33.75 7.703125 
Q 31.90625 6.90625 29.703125 6.59375 
Q 27.5 6.296875 25.5 6.296875 
Q 22.90625 6.296875 20.453125 6.796875 
Q 18 7.296875 16.046875 8.4375 
Q 14.09375 9.59375 12.890625 11.546875 
Q 11.703125 13.5 11.59375 16.296875 
z
" id="HelveticaNeue-115"/>
      <path d="M 29.703125 0 
L 48.59375 51.703125 
L 39.703125 51.703125 
L 25.59375 8.59375 
L 25.40625 8.59375 
L 10.90625 51.703125 
L 1.40625 51.703125 
L 20.59375 0 
z
" id="HelveticaNeue-118"/>
      <path d="M 19.40625 40.59375 
L 19.40625 51.703125 
L 8.296875 51.703125 
L 8.296875 40.59375 
z
M 8.296875 11.09375 
L 8.296875 0 
L 19.40625 0 
L 19.40625 11.09375 
z
" id="HelveticaNeue-58"/>
      <path d="M 5 31.796875 
L 5 23.796875 
L 33.90625 23.796875 
L 33.90625 31.796875 
z
" id="HelveticaNeue-45"/>
      <path d="M 33.90625 24.09375 
L 10.09375 24.09375 
L 33.703125 58.796875 
L 33.90625 58.796875 
z
M 41.90625 24.09375 
L 41.90625 70.90625 
L 35.09375 70.90625 
L 2.796875 24.796875 
L 2.796875 16.59375 
L 33.90625 16.59375 
L 33.90625 0 
L 41.90625 0 
L 41.90625 16.59375 
L 51.5 16.59375 
L 51.5 24.09375 
z
" id="HelveticaNeue-52"/>
     </defs>
     <use xlink:href="#HelveticaNeue-65"/>
     <use x="64.799988" xlink:href="#HelveticaNeue-110"/>
     <use x="120.399979" xlink:href="#HelveticaNeue-116"/>
     <use x="151.899963" xlink:href="#HelveticaNeue-111"/>
     <use x="209.299957" xlink:href="#HelveticaNeue-110"/>
     <use x="264.899948" xlink:href="#HelveticaNeue-105"/>
     <use x="287.099945" xlink:href="#HelveticaNeue-111"/>
     <use x="344.499939" xlink:href="#HelveticaNeue-32"/>
     <use x="372.299927" xlink:href="#HelveticaNeue-78"/>
     <use x="444.499908" xlink:href="#HelveticaNeue-97"/>
     <use x="498.199905" xlink:href="#HelveticaNeue-114"/>
     <use x="531.499893" xlink:href="#HelveticaNeue-105"/>
     <use x="553.69989" xlink:href="#HelveticaNeue-241"/>
     <use x="609.299881" xlink:href="#HelveticaNeue-111"/>
     <use x="666.699875" xlink:href="#HelveticaNeue-32"/>
     <use x="694.499863" xlink:href="#HelveticaNeue-124"/>
     <use x="716.69986" xlink:href="#HelveticaNeue-32"/>
     <use x="744.499847" xlink:href="#HelveticaNeue-67"/>
     <use x="816.699829" xlink:href="#HelveticaNeue-97"/>
     <use x="870.399826" xlink:href="#HelveticaNeue-115"/>
     <use x="920.399811" xlink:href="#HelveticaNeue-111"/>
     <use x="977.799805" xlink:href="#HelveticaNeue-115"/>
     <use x="1027.799789" xlink:href="#HelveticaNeue-32"/>
     <use x="1055.599777" xlink:href="#HelveticaNeue-110"/>
     <use x="1111.199768" xlink:href="#HelveticaNeue-117"/>
     <use x="1166.799759" xlink:href="#HelveticaNeue-101"/>
     <use x="1220.499756" xlink:href="#HelveticaNeue-118"/>
     <use x="1270.499741" xlink:href="#HelveticaNeue-111"/>
     <use x="1327.899734" xlink:href="#HelveticaNeue-115"/>
     <use x="1377.899719" xlink:href="#HelveticaNeue-58"/>
     <use x="1405.699707" xlink:href="#HelveticaNeue-32"/>
     <use x="1433.499695" xlink:href="#HelveticaNeue-50"/>
     <use x="1489.099686" xlink:href="#HelveticaNeue-48"/>
     <use x="1544.699677" xlink:href="#HelveticaNeue-50"/>
     <use x="1600.299667" xlink:href="#HelveticaNeue-49"/>
     <use x="1655.899658" xlink:href="#HelveticaNeue-45"/>
     <use x="1694.799652" xlink:href="#HelveticaNeue-48"/>
     <use x="1750.399643" xlink:href="#HelveticaNeue-55"/>
     <use x="1805.999634" xlink:href="#HelveticaNeue-45"/>
     <use x="1844.899628" xlink:href="#HelveticaNeue-50"/>
     <use x="1900.499619" xlink:href="#HelveticaNeue-52"/>
    </g>
   </g>
   <g id="legend_1">
    <g id="line2d_28">
     <path d="M 71.5 39.640625 
L 91.5 39.640625 
" style="fill:none;stroke:#000000;stroke-dasharray:1.5,2.475;stroke-dashoffset:0;stroke-opacity:0.5;stroke-width:1.5;"/>
    </g>
    <g id="line2d_29"/>
    <g id="text_16">
     <!-- Actual -->
     <g style="fill:#555555;" transform="translate(99.5 43.140625)scale(0.1 -0.1)">
      <use xlink:href="#HelveticaNeue-65"/>
      <use x="64.799988" xlink:href="#HelveticaNeue-99"/>
      <use x="118.499985" xlink:href="#HelveticaNeue-116"/>
      <use x="149.999969" xlink:href="#HelveticaNeue-117"/>
      <use x="205.59996" xlink:href="#HelveticaNeue-97"/>
      <use x="259.299957" xlink:href="#HelveticaNeue-108"/>
     </g>
    </g>
    <g id="line2d_30">
     <path d="M 71.5 54.310937 
L 91.5 54.310937 
" style="fill:none;stroke:#b3220f;stroke-linecap:square;stroke-width:1.5;"/>
    </g>
    <g id="line2d_31"/>
    <g id="text_17">
     <!-- Promedio semanal (7 días)  -->
     <g style="fill:#555555;" transform="translate(99.5 57.810937)scale(0.1 -0.1)">
      <defs>
       <path d="M 17.296875 37.203125 
L 17.296875 63.40625 
L 35.90625 63.40625 
Q 44 63.40625 47.75 60.046875 
Q 51.5 56.703125 51.5 50.296875 
Q 51.5 43.90625 47.75 40.5 
Q 44 37.09375 35.90625 37.203125 
z
M 7.796875 71.40625 
L 7.796875 0 
L 17.296875 0 
L 17.296875 29.203125 
L 39.09375 29.203125 
Q 49.90625 29.09375 55.453125 34.6875 
Q 61 40.296875 61 50.296875 
Q 61 60.296875 55.453125 65.84375 
Q 49.90625 71.40625 39.09375 71.40625 
z
" id="HelveticaNeue-80"/>
       <path d="M 6.40625 51.703125 
L 6.40625 0 
L 14.90625 0 
L 14.90625 32.203125 
Q 14.90625 33.703125 15.65625 35.953125 
Q 16.40625 38.203125 18.046875 40.296875 
Q 19.703125 42.40625 22.34375 43.90625 
Q 25 45.40625 28.703125 45.40625 
Q 31.59375 45.40625 33.4375 44.546875 
Q 35.296875 43.703125 36.390625 42.140625 
Q 37.5 40.59375 37.953125 38.5 
Q 38.40625 36.40625 38.40625 33.90625 
L 38.40625 0 
L 46.90625 0 
L 46.90625 32.203125 
Q 46.90625 38.203125 50.5 41.796875 
Q 54.09375 45.40625 60.40625 45.40625 
Q 63.5 45.40625 65.453125 44.5 
Q 67.40625 43.59375 68.5 42.046875 
Q 69.59375 40.5 70 38.390625 
Q 70.40625 36.296875 70.40625 33.90625 
L 70.40625 0 
L 78.90625 0 
L 78.90625 37.90625 
Q 78.90625 41.90625 77.65625 44.75 
Q 76.40625 47.59375 74.15625 49.390625 
Q 71.90625 51.203125 68.75 52.046875 
Q 65.59375 52.90625 61.703125 52.90625 
Q 56.59375 52.90625 52.34375 50.59375 
Q 48.09375 48.296875 45.5 44.09375 
Q 43.90625 48.90625 40 50.90625 
Q 36.09375 52.90625 31.296875 52.90625 
Q 20.40625 52.90625 14.59375 44.09375 
L 14.40625 44.09375 
L 14.40625 51.703125 
z
" id="HelveticaNeue-109"/>
       <path d="M 12.59375 25.40625 
Q 12.59375 29.203125 13.390625 32.796875 
Q 14.203125 36.40625 16 39.203125 
Q 17.796875 42 20.796875 43.703125 
Q 23.796875 45.40625 28.09375 45.40625 
Q 32.5 45.40625 35.59375 43.75 
Q 38.703125 42.09375 40.640625 39.390625 
Q 42.59375 36.703125 43.5 33.140625 
Q 44.40625 29.59375 44.40625 25.796875 
Q 44.40625 22.203125 43.546875 18.703125 
Q 42.703125 15.203125 40.796875 12.453125 
Q 38.90625 9.703125 35.90625 8 
Q 32.90625 6.296875 28.59375 6.296875 
Q 24.5 6.296875 21.453125 7.890625 
Q 18.40625 9.5 16.453125 12.203125 
Q 14.5 14.90625 13.546875 18.34375 
Q 12.59375 21.796875 12.59375 25.40625 
z
M 52.59375 0 
L 52.59375 71.40625 
L 44.09375 71.40625 
L 44.09375 44.796875 
L 43.90625 44.796875 
Q 42.5 47.09375 40.453125 48.640625 
Q 38.40625 50.203125 36.09375 51.140625 
Q 33.796875 52.09375 31.5 52.5 
Q 29.203125 52.90625 27.203125 52.90625 
Q 21.296875 52.90625 16.84375 50.75 
Q 12.40625 48.59375 9.453125 44.9375 
Q 6.5 41.296875 5.046875 36.390625 
Q 3.59375 31.5 3.59375 26 
Q 3.59375 20.5 5.09375 15.59375 
Q 6.59375 10.703125 9.546875 7 
Q 12.5 3.296875 16.953125 1.09375 
Q 21.40625 -1.09375 27.40625 -1.09375 
Q 32.796875 -1.09375 37.296875 0.796875 
Q 41.796875 2.703125 43.90625 7 
L 44.09375 7 
L 44.09375 0 
z
" id="HelveticaNeue-100"/>
       <path d="M 20.40625 -19.703125 
L 26.90625 -19.703125 
Q 19.796875 -8.203125 16.75 3.09375 
Q 13.703125 14.40625 13.703125 27 
Q 13.703125 39.296875 16.703125 50.5 
Q 19.703125 61.703125 26.90625 73.09375 
L 20.40625 73.09375 
Q 12.59375 62.796875 8.640625 50.796875 
Q 4.703125 38.796875 4.703125 27 
Q 4.703125 20.40625 5.796875 14.40625 
Q 6.90625 8.40625 8.953125 2.703125 
Q 11 -3 13.890625 -8.546875 
Q 16.796875 -14.09375 20.40625 -19.703125 
z
" id="HelveticaNeue-40"/>
       <path d="M 6.90625 0 
L 15.40625 0 
L 15.40625 51.703125 
L 6.90625 51.703125 
z
M 25.5 77 
L 11.40625 60.796875 
L 5 60.796875 
L 14.59375 77 
z
" id="HelveticaNeue-237"/>
       <path d="M -0.90625 -19.703125 
L 5.5 -19.703125 
Q 13.296875 -9.40625 17.25 2.546875 
Q 21.203125 14.5 21.203125 26.296875 
Q 21.203125 32.90625 20.09375 38.90625 
Q 19 44.90625 16.953125 50.65625 
Q 14.90625 56.40625 12 61.953125 
Q 9.09375 67.5 5.5 73.09375 
L -0.90625 73.09375 
Q 6.09375 61.59375 9.140625 50.25 
Q 12.203125 38.90625 12.203125 26.296875 
Q 12.203125 14.09375 9.203125 2.84375 
Q 6.203125 -8.40625 -0.90625 -19.703125 
z
" id="HelveticaNeue-41"/>
      </defs>
      <use xlink:href="#HelveticaNeue-80"/>
      <use x="64.799988" xlink:href="#HelveticaNeue-114"/>
      <use x="96.349976" xlink:href="#HelveticaNeue-111"/>
      <use x="153.749969" xlink:href="#HelveticaNeue-109"/>
      <use x="239.049957" xlink:href="#HelveticaNeue-101"/>
      <use x="292.749954" xlink:href="#HelveticaNeue-100"/>
      <use x="352.049942" xlink:href="#HelveticaNeue-105"/>
      <use x="374.249939" xlink:href="#HelveticaNeue-111"/>
      <use x="431.649933" xlink:href="#HelveticaNeue-32"/>
      <use x="459.449921" xlink:href="#HelveticaNeue-115"/>
      <use x="509.449905" xlink:href="#HelveticaNeue-101"/>
      <use x="563.149902" xlink:href="#HelveticaNeue-109"/>
      <use x="648.44989" xlink:href="#HelveticaNeue-97"/>
      <use x="702.149887" xlink:href="#HelveticaNeue-110"/>
      <use x="757.749878" xlink:href="#HelveticaNeue-97"/>
      <use x="811.449875" xlink:href="#HelveticaNeue-108"/>
      <use x="833.649872" xlink:href="#HelveticaNeue-32"/>
      <use x="861.44986" xlink:href="#HelveticaNeue-40"/>
      <use x="887.349854" xlink:href="#HelveticaNeue-55"/>
      <use x="942.949844" xlink:href="#HelveticaNeue-32"/>
      <use x="970.749832" xlink:href="#HelveticaNeue-100"/>
      <use x="1030.04982" xlink:href="#HelveticaNeue-237"/>
      <use x="1052.249817" xlink:href="#HelveticaNeue-97"/>
      <use x="1105.949814" xlink:href="#HelveticaNeue-115"/>
      <use x="1155.949799" xlink:href="#HelveticaNeue-41"/>
      <use x="1181.849792" xlink:href="#HelveticaNeue-32"/>
     </g>
    </g>
   </g>
  </g>
 </g>
 <defs>
  <clipPath id="pf2e97dc99a">
   <rect height="235.5" width="387.5" x="62.5" y="27"/>
  </clipPath>
 </defs>
</svg>
