<?xml version="1.0" encoding="utf-8" standalone="no"?>
<!DOCTYPE svg PUBLIC "-//W3C//DTD SVG 1.1//EN"
  "http://www.w3.org/Graphics/SVG/1.1/DTD/svg11.dtd">
<!-- Created with matplotlib (https://matplotlib.org/) -->
<svg height="300pt" version="1.1" viewBox="0 0 500 300" width="500pt" xmlns="http://www.w3.org/2000/svg" xmlns:xlink="http://www.w3.org/1999/xlink">
 <metadata>
  <rdf:RDF xmlns:cc="http://creativecommons.org/ns#" xmlns:dc="http://purl.org/dc/elements/1.1/" xmlns:rdf="http://www.w3.org/1999/02/22-rdf-syntax-ns#">
   <cc:Work>
    <dc:type rdf:resource="http://purl.org/dc/dcmitype/StillImage"/>
    <dc:date>2021-06-05T22:09:05.621901</dc:date>
    <dc:format>image/svg+xml</dc:format>
    <dc:creator>
     <cc:Agent>
      <dc:title>Matplotlib v3.3.4, https://matplotlib.org/</dc:title>
     </cc:Agent>
    </dc:creator>
   </cc:Work>
  </rdf:RDF>
 </metadata>
 <defs>
  <style type="text/css">*{stroke-linecap:butt;stroke-linejoin:round;}</style>
 </defs>
 <g id="figure_1">
  <g id="patch_1">
   <path d="M 0 300 
L 500 300 
L 500 0 
L 0 0 
z
" style="fill:#ffffff;"/>
  </g>
  <g id="axes_1">
   <g id="patch_2">
    <path d="M 62.5 262.5 
L 450 262.5 
L 450 27 
L 62.5 27 
z
" style="fill:#ffffff;"/>
   </g>
   <g id="matplotlib.axis_1">
    <g id="xtick_1">
     <g id="line2d_1">
      <defs>
       <path d="M 0 0 
L 0 3.5 
" id="ma4a0899365" style="stroke:#555555;stroke-width:0.8;"/>
      </defs>
      <g>
       <use style="fill:#555555;stroke:#555555;stroke-width:0.8;" x="62.5" xlink:href="#ma4a0899365" y="262.5"/>
      </g>
     </g>
    </g>
    <g id="xtick_2">
     <g id="line2d_2">
      <g>
       <use style="fill:#555555;stroke:#555555;stroke-width:0.8;" x="141.282506" xlink:href="#ma4a0899365" y="262.5"/>
      </g>
     </g>
     <g id="text_1">
      <!-- Jul -->
      <g style="fill:#555555;" transform="translate(134.79735 276.640625)scale(0.1 -0.1)">
       <defs>
        <path d="M 44.09375 17.796875 
L 44.09375 71.40625 
L 34.59375 71.40625 
L 34.59375 19.203125 
Q 34.59375 13.296875 32.140625 9.796875 
Q 29.703125 6.296875 23.203125 6.296875 
Q 19.703125 6.296875 17.453125 7.34375 
Q 15.203125 8.40625 13.953125 10.296875 
Q 12.703125 12.203125 12.203125 14.796875 
Q 11.703125 17.40625 11.703125 20.5 
L 11.703125 23.5 
L 2.203125 23.5 
L 2.203125 19.09375 
Q 2.203125 8.90625 7.59375 3.65625 
Q 13 -1.59375 23 -1.59375 
Q 29 -1.59375 33.046875 0.046875 
Q 37.09375 1.703125 39.546875 4.453125 
Q 42 7.203125 43.046875 10.703125 
Q 44.09375 14.203125 44.09375 17.796875 
z
" id="HelveticaNeue-74"/>
        <path d="M 49.203125 0 
L 49.203125 51.703125 
L 40.703125 51.703125 
L 40.703125 22.5 
Q 40.703125 19 39.75 16.046875 
Q 38.796875 13.09375 36.890625 10.890625 
Q 35 8.703125 32.140625 7.5 
Q 29.296875 6.296875 25.40625 6.296875 
Q 20.5 6.296875 17.703125 9.09375 
Q 14.90625 11.90625 14.90625 16.703125 
L 14.90625 51.703125 
L 6.40625 51.703125 
L 6.40625 17.703125 
Q 6.40625 13.5 7.25 10.046875 
Q 8.09375 6.59375 10.1875 4.09375 
Q 12.296875 1.59375 15.6875 0.25 
Q 19.09375 -1.09375 24.203125 -1.09375 
Q 29.90625 -1.09375 34.09375 1.15625 
Q 38.296875 3.40625 41 8.203125 
L 41.203125 8.203125 
L 41.203125 0 
z
" id="HelveticaNeue-117"/>
        <path d="M 6.90625 71.40625 
L 6.90625 0 
L 15.40625 0 
L 15.40625 71.40625 
z
" id="HelveticaNeue-108"/>
       </defs>
       <use xlink:href="#HelveticaNeue-74"/>
       <use x="51.899994" xlink:href="#HelveticaNeue-117"/>
       <use x="107.499985" xlink:href="#HelveticaNeue-108"/>
      </g>
     </g>
    </g>
    <g id="xtick_3">
     <g id="line2d_3">
      <g>
       <use style="fill:#555555;stroke:#555555;stroke-width:0.8;" x="225.561466" xlink:href="#ma4a0899365" y="262.5"/>
      </g>
     </g>
     <g id="text_2">
      <!-- Oct -->
      <g style="fill:#555555;" transform="translate(217.501309 276.640625)scale(0.1 -0.1)">
       <defs>
        <path d="M 13.296875 35.703125 
Q 13.296875 41.09375 14.6875 46.34375 
Q 16.09375 51.59375 19.09375 55.796875 
Q 22.09375 60 26.796875 62.546875 
Q 31.5 65.09375 38 65.09375 
Q 44.5 65.09375 49.203125 62.546875 
Q 53.90625 60 56.90625 55.796875 
Q 59.90625 51.59375 61.296875 46.34375 
Q 62.703125 41.09375 62.703125 35.703125 
Q 62.703125 30.296875 61.296875 25.046875 
Q 59.90625 19.796875 56.90625 15.59375 
Q 53.90625 11.40625 49.203125 8.84375 
Q 44.5 6.296875 38 6.296875 
Q 31.5 6.296875 26.796875 8.84375 
Q 22.09375 11.40625 19.09375 15.59375 
Q 16.09375 19.796875 14.6875 25.046875 
Q 13.296875 30.296875 13.296875 35.703125 
z
M 3.796875 35.703125 
Q 3.796875 28.40625 5.9375 21.65625 
Q 8.09375 14.90625 12.390625 9.703125 
Q 16.703125 4.5 23.09375 1.453125 
Q 29.5 -1.59375 38 -1.59375 
Q 46.5 -1.59375 52.890625 1.453125 
Q 59.296875 4.5 63.59375 9.703125 
Q 67.90625 14.90625 70.046875 21.65625 
Q 72.203125 28.40625 72.203125 35.703125 
Q 72.203125 43 70.046875 49.75 
Q 67.90625 56.5 63.59375 61.703125 
Q 59.296875 66.90625 52.890625 70 
Q 46.5 73.09375 38 73.09375 
Q 29.5 73.09375 23.09375 70 
Q 16.703125 66.90625 12.390625 61.703125 
Q 8.09375 56.5 5.9375 49.75 
Q 3.796875 43 3.796875 35.703125 
z
" id="HelveticaNeue-79"/>
        <path d="M 41.5 35.09375 
L 50.296875 35.09375 
Q 49.796875 39.703125 47.890625 43.046875 
Q 46 46.40625 43.046875 48.59375 
Q 40.09375 50.796875 36.25 51.84375 
Q 32.40625 52.90625 28 52.90625 
Q 21.90625 52.90625 17.296875 50.75 
Q 12.703125 48.59375 9.640625 44.84375 
Q 6.59375 41.09375 5.09375 36.046875 
Q 3.59375 31 3.59375 25.203125 
Q 3.59375 19.40625 5.140625 14.546875 
Q 6.703125 9.703125 9.75 6.203125 
Q 12.796875 2.703125 17.34375 0.796875 
Q 21.90625 -1.09375 27.796875 -1.09375 
Q 37.703125 -1.09375 43.453125 4.09375 
Q 49.203125 9.296875 50.59375 18.90625 
L 41.90625 18.90625 
Q 41.09375 12.90625 37.546875 9.59375 
Q 34 6.296875 27.703125 6.296875 
Q 23.703125 6.296875 20.796875 7.890625 
Q 17.90625 9.5 16.09375 12.140625 
Q 14.296875 14.796875 13.4375 18.1875 
Q 12.59375 21.59375 12.59375 25.203125 
Q 12.59375 29.09375 13.390625 32.75 
Q 14.203125 36.40625 16.046875 39.203125 
Q 17.90625 42 21 43.703125 
Q 24.09375 45.40625 28.703125 45.40625 
Q 34.09375 45.40625 37.296875 42.703125 
Q 40.5 40 41.5 35.09375 
z
" id="HelveticaNeue-99"/>
        <path d="M 18.203125 51.703125 
L 18.203125 67.203125 
L 9.703125 67.203125 
L 9.703125 51.703125 
L 0.90625 51.703125 
L 0.90625 44.203125 
L 9.703125 44.203125 
L 9.703125 11.296875 
Q 9.703125 7.703125 10.390625 5.5 
Q 11.09375 3.296875 12.546875 2.09375 
Q 14 0.90625 16.34375 0.453125 
Q 18.703125 0 22 0 
L 28.5 0 
L 28.5 7.5 
L 24.59375 7.5 
Q 22.59375 7.5 21.34375 7.640625 
Q 20.09375 7.796875 19.390625 8.296875 
Q 18.703125 8.796875 18.453125 9.6875 
Q 18.203125 10.59375 18.203125 12.09375 
L 18.203125 44.203125 
L 28.5 44.203125 
L 28.5 51.703125 
z
" id="HelveticaNeue-116"/>
       </defs>
       <use xlink:href="#HelveticaNeue-79"/>
       <use x="75.999985" xlink:href="#HelveticaNeue-99"/>
       <use x="129.699982" xlink:href="#HelveticaNeue-116"/>
      </g>
     </g>
    </g>
    <g id="xtick_4">
     <g id="line2d_4">
      <g>
       <use style="fill:#555555;stroke:#555555;stroke-width:0.8;" x="309.840426" xlink:href="#ma4a0899365" y="262.5"/>
      </g>
     </g>
     <g id="text_3">
      <!-- Jan -->
      <g style="fill:#555555;" transform="translate(301.780269 276.640625)scale(0.1 -0.1)">
       <defs>
        <path d="M 52.203125 0.203125 
Q 50 -1.09375 46.09375 -1.09375 
Q 42.796875 -1.09375 40.84375 0.75 
Q 38.90625 2.59375 38.90625 6.796875 
Q 35.40625 2.59375 30.75 0.75 
Q 26.09375 -1.09375 20.703125 -1.09375 
Q 17.203125 -1.09375 14.046875 -0.296875 
Q 10.90625 0.5 8.59375 2.203125 
Q 6.296875 3.90625 4.9375 6.65625 
Q 3.59375 9.40625 3.59375 13.296875 
Q 3.59375 17.703125 5.09375 20.5 
Q 6.59375 23.296875 9.046875 25.046875 
Q 11.5 26.796875 14.640625 27.6875 
Q 17.796875 28.59375 21.09375 29.203125 
Q 24.59375 29.90625 27.75 30.25 
Q 30.90625 30.59375 33.296875 31.25 
Q 35.703125 31.90625 37.09375 33.15625 
Q 38.5 34.40625 38.5 36.796875 
Q 38.5 39.59375 37.453125 41.296875 
Q 36.40625 43 34.75 43.890625 
Q 33.09375 44.796875 31.046875 45.09375 
Q 29 45.40625 27 45.40625 
Q 21.59375 45.40625 18 43.34375 
Q 14.40625 41.296875 14.09375 35.59375 
L 5.59375 35.59375 
Q 5.796875 40.40625 7.59375 43.703125 
Q 9.40625 47 12.40625 49.046875 
Q 15.40625 51.09375 19.25 52 
Q 23.09375 52.90625 27.5 52.90625 
Q 31 52.90625 34.453125 52.40625 
Q 37.90625 51.90625 40.703125 50.34375 
Q 43.5 48.796875 45.203125 46 
Q 46.90625 43.203125 46.90625 38.703125 
L 46.90625 12.09375 
Q 46.90625 9.09375 47.25 7.6875 
Q 47.59375 6.296875 49.59375 6.296875 
Q 50.703125 6.296875 52.203125 6.796875 
z
M 38.40625 26.703125 
Q 36.796875 25.5 34.1875 24.953125 
Q 31.59375 24.40625 28.75 24.046875 
Q 25.90625 23.703125 23 23.25 
Q 20.09375 22.796875 17.796875 21.796875 
Q 15.5 20.796875 14.046875 18.9375 
Q 12.59375 17.09375 12.59375 13.90625 
Q 12.59375 11.796875 13.4375 10.34375 
Q 14.296875 8.90625 15.640625 8 
Q 17 7.09375 18.796875 6.6875 
Q 20.59375 6.296875 22.59375 6.296875 
Q 26.796875 6.296875 29.796875 7.4375 
Q 32.796875 8.59375 34.6875 10.34375 
Q 36.59375 12.09375 37.5 14.140625 
Q 38.40625 16.203125 38.40625 18 
z
" id="HelveticaNeue-97"/>
        <path d="M 6.40625 51.703125 
L 6.40625 0 
L 14.90625 0 
L 14.90625 29.203125 
Q 14.90625 32.703125 15.84375 35.640625 
Q 16.796875 38.59375 18.6875 40.796875 
Q 20.59375 43 23.4375 44.203125 
Q 26.296875 45.40625 30.203125 45.40625 
Q 35.09375 45.40625 37.890625 42.59375 
Q 40.703125 39.796875 40.703125 35 
L 40.703125 0 
L 49.203125 0 
L 49.203125 34 
Q 49.203125 38.203125 48.34375 41.640625 
Q 47.5 45.09375 45.390625 47.59375 
Q 43.296875 50.09375 39.890625 51.5 
Q 36.5 52.90625 31.40625 52.90625 
Q 19.90625 52.90625 14.59375 43.5 
L 14.40625 43.5 
L 14.40625 51.703125 
z
" id="HelveticaNeue-110"/>
       </defs>
       <use xlink:href="#HelveticaNeue-74"/>
       <use x="51.899994" xlink:href="#HelveticaNeue-97"/>
       <use x="105.599991" xlink:href="#HelveticaNeue-110"/>
      </g>
      <!-- 2021 -->
      <g style="fill:#555555;" transform="translate(298.721676 287.179688)scale(0.1 -0.1)">
       <defs>
        <path d="M 4.40625 45.796875 
L 12.90625 45.796875 
Q 12.796875 49 13.546875 52.140625 
Q 14.296875 55.296875 16 57.796875 
Q 17.703125 60.296875 20.34375 61.84375 
Q 23 63.40625 26.703125 63.40625 
Q 29.5 63.40625 32 62.5 
Q 34.5 61.59375 36.34375 59.890625 
Q 38.203125 58.203125 39.296875 55.84375 
Q 40.40625 53.5 40.40625 50.59375 
Q 40.40625 46.90625 39.25 44.09375 
Q 38.09375 41.296875 35.84375 38.890625 
Q 33.59375 36.5 30.1875 34.140625 
Q 26.796875 31.796875 22.296875 29 
Q 18.59375 26.796875 15.1875 24.296875 
Q 11.796875 21.796875 9.09375 18.5 
Q 6.40625 15.203125 4.65625 10.75 
Q 2.90625 6.296875 2.40625 0 
L 48.703125 0 
L 48.703125 7.5 
L 12.296875 7.5 
Q 12.90625 10.796875 14.84375 13.34375 
Q 16.796875 15.90625 19.546875 18.09375 
Q 22.296875 20.296875 25.59375 22.25 
Q 28.90625 24.203125 32.203125 26.203125 
Q 35.5 28.296875 38.59375 30.59375 
Q 41.703125 32.90625 44.09375 35.75 
Q 46.5 38.59375 47.953125 42.1875 
Q 49.40625 45.796875 49.40625 50.5 
Q 49.40625 55.5 47.65625 59.296875 
Q 45.90625 63.09375 42.90625 65.640625 
Q 39.90625 68.203125 35.84375 69.546875 
Q 31.796875 70.90625 27.203125 70.90625 
Q 21.59375 70.90625 17.1875 69 
Q 12.796875 67.09375 9.84375 63.75 
Q 6.90625 60.40625 5.5 55.796875 
Q 4.09375 51.203125 4.40625 45.796875 
z
" id="HelveticaNeue-50"/>
        <path d="M 13.203125 34.90625 
Q 13.203125 37.5 13.25 40.640625 
Q 13.296875 43.796875 13.75 46.9375 
Q 14.203125 50.09375 15.046875 53.09375 
Q 15.90625 56.09375 17.546875 58.34375 
Q 19.203125 60.59375 21.703125 62 
Q 24.203125 63.40625 27.796875 63.40625 
Q 31.40625 63.40625 33.90625 62 
Q 36.40625 60.59375 38.046875 58.34375 
Q 39.703125 56.09375 40.546875 53.09375 
Q 41.40625 50.09375 41.84375 46.9375 
Q 42.296875 43.796875 42.34375 40.640625 
Q 42.40625 37.5 42.40625 34.90625 
Q 42.40625 30.90625 42.15625 25.953125 
Q 41.90625 21 40.546875 16.640625 
Q 39.203125 12.296875 36.203125 9.296875 
Q 33.203125 6.296875 27.796875 6.296875 
Q 22.40625 6.296875 19.40625 9.296875 
Q 16.40625 12.296875 15.046875 16.640625 
Q 13.703125 21 13.453125 25.953125 
Q 13.203125 30.90625 13.203125 34.90625 
z
M 4.203125 34.796875 
Q 4.203125 30.90625 4.390625 26.703125 
Q 4.59375 22.5 5.390625 18.5 
Q 6.203125 14.5 7.703125 10.953125 
Q 9.203125 7.40625 11.796875 4.703125 
Q 14.40625 2 18.34375 0.453125 
Q 22.296875 -1.09375 27.796875 -1.09375 
Q 33.40625 -1.09375 37.296875 0.453125 
Q 41.203125 2 43.796875 4.703125 
Q 46.40625 7.40625 47.90625 10.953125 
Q 49.40625 14.5 50.203125 18.5 
Q 51 22.5 51.203125 26.703125 
Q 51.40625 30.90625 51.40625 34.796875 
Q 51.40625 38.703125 51.203125 42.890625 
Q 51 47.09375 50.203125 51.09375 
Q 49.40625 55.09375 47.90625 58.6875 
Q 46.40625 62.296875 43.796875 65 
Q 41.203125 67.703125 37.25 69.296875 
Q 33.296875 70.90625 27.796875 70.90625 
Q 22.296875 70.90625 18.34375 69.296875 
Q 14.40625 67.703125 11.796875 65 
Q 9.203125 62.296875 7.703125 58.6875 
Q 6.203125 55.09375 5.390625 51.09375 
Q 4.59375 47.09375 4.390625 42.890625 
Q 4.203125 38.703125 4.203125 34.796875 
z
" id="HelveticaNeue-48"/>
        <path d="M 35.59375 0 
L 35.59375 70.90625 
L 29.09375 70.90625 
Q 28.40625 66.90625 26.5 64.296875 
Q 24.59375 61.703125 21.84375 60.203125 
Q 19.09375 58.703125 15.6875 58.140625 
Q 12.296875 57.59375 8.703125 57.59375 
L 8.703125 50.796875 
L 27.09375 50.796875 
L 27.09375 0 
z
" id="HelveticaNeue-49"/>
       </defs>
       <use xlink:href="#HelveticaNeue-50"/>
       <use x="55.599991" xlink:href="#HelveticaNeue-48"/>
       <use x="111.199982" xlink:href="#HelveticaNeue-50"/>
       <use x="166.799973" xlink:href="#HelveticaNeue-49"/>
      </g>
     </g>
    </g>
    <g id="xtick_5">
     <g id="line2d_5">
      <g>
       <use style="fill:#555555;stroke:#555555;stroke-width:0.8;" x="392.287234" xlink:href="#ma4a0899365" y="262.5"/>
      </g>
     </g>
     <g id="text_4">
      <!-- Apr -->
      <g style="fill:#555555;" transform="translate(384.417703 276.640625)scale(0.1 -0.1)">
       <defs>
        <path d="M 20.09375 29.5 
L 32.203125 62.796875 
L 32.40625 62.796875 
L 44.296875 29.5 
z
M 27.203125 71.40625 
L -0.59375 0 
L 9.09375 0 
L 17.09375 21.5 
L 47.296875 21.5 
L 55.09375 0 
L 65.59375 0 
L 37.703125 71.40625 
z
" id="HelveticaNeue-65"/>
        <path d="M 6.703125 51.703125 
L 6.703125 -19.703125 
L 15.203125 -19.703125 
L 15.203125 6.90625 
L 15.40625 6.90625 
Q 16.796875 4.59375 18.84375 3.046875 
Q 20.90625 1.5 23.203125 0.59375 
Q 25.5 -0.296875 27.84375 -0.6875 
Q 30.203125 -1.09375 32.09375 -1.09375 
Q 38 -1.09375 42.453125 1 
Q 46.90625 3.09375 49.84375 6.75 
Q 52.796875 10.40625 54.25 15.296875 
Q 55.703125 20.203125 55.703125 25.703125 
Q 55.703125 31.203125 54.203125 36.09375 
Q 52.703125 41 49.75 44.75 
Q 46.796875 48.5 42.34375 50.703125 
Q 37.90625 52.90625 31.90625 52.90625 
Q 26.5 52.90625 22 50.953125 
Q 17.5 49 15.40625 44.703125 
L 15.203125 44.703125 
L 15.203125 51.703125 
z
M 46.703125 26.296875 
Q 46.703125 22.5 45.890625 18.890625 
Q 45.09375 15.296875 43.296875 12.5 
Q 41.5 9.703125 38.546875 8 
Q 35.59375 6.296875 31.203125 6.296875 
Q 26.796875 6.296875 23.6875 7.9375 
Q 20.59375 9.59375 18.640625 12.296875 
Q 16.703125 15 15.796875 18.546875 
Q 14.90625 22.09375 14.90625 25.90625 
Q 14.90625 29.5 15.75 33 
Q 16.59375 36.5 18.5 39.25 
Q 20.40625 42 23.40625 43.703125 
Q 26.40625 45.40625 30.703125 45.40625 
Q 34.796875 45.40625 37.84375 43.796875 
Q 40.90625 42.203125 42.84375 39.5 
Q 44.796875 36.796875 45.75 33.34375 
Q 46.703125 29.90625 46.703125 26.296875 
z
" id="HelveticaNeue-112"/>
        <path d="M 6.09375 51.703125 
L 6.09375 0 
L 14.59375 0 
L 14.59375 23 
Q 14.59375 28 15.59375 31.84375 
Q 16.59375 35.703125 18.796875 38.390625 
Q 21 41.09375 24.59375 42.5 
Q 28.203125 43.90625 33.296875 43.90625 
L 33.296875 52.90625 
Q 26.40625 53.09375 21.90625 50.09375 
Q 17.40625 47.09375 14.296875 40.796875 
L 14.09375 40.796875 
L 14.09375 51.703125 
z
" id="HelveticaNeue-114"/>
       </defs>
       <use xlink:href="#HelveticaNeue-65"/>
       <use x="64.799988" xlink:href="#HelveticaNeue-112"/>
       <use x="124.099976" xlink:href="#HelveticaNeue-114"/>
      </g>
     </g>
    </g>
    <g id="xtick_6">
     <g id="line2d_6">
      <g>
       <use style="fill:#555555;stroke:#555555;stroke-width:0.8;" x="450" xlink:href="#ma4a0899365" y="262.5"/>
      </g>
     </g>
    </g>
    <g id="xtick_7">
     <g id="line2d_7">
      <defs>
       <path d="M 0 0 
L 0 2 
" id="md8b7ffdd9b" style="stroke:#555555;stroke-width:0.6;"/>
      </defs>
      <g>
       <use style="fill:#555555;stroke:#555555;stroke-width:0.6;" x="85.401891" xlink:href="#md8b7ffdd9b" y="262.5"/>
      </g>
     </g>
    </g>
    <g id="xtick_8">
     <g id="line2d_8">
      <g>
       <use style="fill:#555555;stroke:#555555;stroke-width:0.6;" x="113.800236" xlink:href="#md8b7ffdd9b" y="262.5"/>
      </g>
     </g>
    </g>
    <g id="xtick_9">
     <g id="line2d_9">
      <g>
       <use style="fill:#555555;stroke:#555555;stroke-width:0.6;" x="169.680851" xlink:href="#md8b7ffdd9b" y="262.5"/>
      </g>
     </g>
    </g>
    <g id="xtick_10">
     <g id="line2d_10">
      <g>
       <use style="fill:#555555;stroke:#555555;stroke-width:0.6;" x="198.079196" xlink:href="#md8b7ffdd9b" y="262.5"/>
      </g>
     </g>
    </g>
    <g id="xtick_11">
     <g id="line2d_11">
      <g>
       <use style="fill:#555555;stroke:#555555;stroke-width:0.6;" x="253.959811" xlink:href="#md8b7ffdd9b" y="262.5"/>
      </g>
     </g>
    </g>
    <g id="xtick_12">
     <g id="line2d_12">
      <g>
       <use style="fill:#555555;stroke:#555555;stroke-width:0.6;" x="281.44208" xlink:href="#md8b7ffdd9b" y="262.5"/>
      </g>
     </g>
    </g>
    <g id="xtick_13">
     <g id="line2d_13">
      <g>
       <use style="fill:#555555;stroke:#555555;stroke-width:0.6;" x="338.238771" xlink:href="#md8b7ffdd9b" y="262.5"/>
      </g>
     </g>
    </g>
    <g id="xtick_14">
     <g id="line2d_14">
      <g>
       <use style="fill:#555555;stroke:#555555;stroke-width:0.6;" x="363.888889" xlink:href="#md8b7ffdd9b" y="262.5"/>
      </g>
     </g>
    </g>
    <g id="xtick_15">
     <g id="line2d_15">
      <g>
       <use style="fill:#555555;stroke:#555555;stroke-width:0.6;" x="419.769504" xlink:href="#md8b7ffdd9b" y="262.5"/>
      </g>
     </g>
    </g>
    <g id="xtick_16">
     <g id="line2d_16">
      <g>
       <use style="fill:#555555;stroke:#555555;stroke-width:0.6;" x="448.167849" xlink:href="#md8b7ffdd9b" y="262.5"/>
      </g>
     </g>
    </g>
    <g id="text_5">
     <!-- fecha -->
     <g style="fill:#555555;" transform="translate(243.935156 300.290625)scale(0.1 -0.1)">
      <defs>
       <path d="M 9.90625 44.203125 
L 9.90625 0 
L 18.40625 0 
L 18.40625 44.203125 
L 28.40625 44.203125 
L 28.40625 51.703125 
L 18.40625 51.703125 
L 18.40625 58.90625 
Q 18.40625 62.296875 20.09375 63.5 
Q 21.796875 64.703125 24.90625 64.703125 
Q 26 64.703125 27.296875 64.546875 
Q 28.59375 64.40625 29.703125 64 
L 29.703125 71.40625 
Q 28.5 71.796875 26.953125 72 
Q 25.40625 72.203125 24.203125 72.203125 
Q 17.203125 72.203125 13.546875 68.953125 
Q 9.90625 65.703125 9.90625 59.40625 
L 9.90625 51.703125 
L 1.203125 51.703125 
L 1.203125 44.203125 
z
" id="HelveticaNeue-102"/>
       <path d="M 42.296875 30.796875 
L 12.59375 30.796875 
Q 12.796875 33.796875 13.890625 36.4375 
Q 15 39.09375 16.890625 41.09375 
Q 18.796875 43.09375 21.4375 44.25 
Q 24.09375 45.40625 27.40625 45.40625 
Q 30.59375 45.40625 33.25 44.25 
Q 35.90625 43.09375 37.84375 41.140625 
Q 39.796875 39.203125 40.9375 36.5 
Q 42.09375 33.796875 42.296875 30.796875 
z
M 50.5 16.40625 
L 42.09375 16.40625 
Q 41 11.296875 37.546875 8.796875 
Q 34.09375 6.296875 28.703125 6.296875 
Q 24.5 6.296875 21.390625 7.6875 
Q 18.296875 9.09375 16.296875 11.4375 
Q 14.296875 13.796875 13.390625 16.84375 
Q 12.5 19.90625 12.59375 23.296875 
L 51.296875 23.296875 
Q 51.5 28 50.453125 33.203125 
Q 49.40625 38.40625 46.65625 42.796875 
Q 43.90625 47.203125 39.34375 50.046875 
Q 34.796875 52.90625 27.90625 52.90625 
Q 22.59375 52.90625 18.140625 50.90625 
Q 13.703125 48.90625 10.453125 45.296875 
Q 7.203125 41.703125 5.390625 36.796875 
Q 3.59375 31.90625 3.59375 26 
Q 3.796875 20.09375 5.34375 15.09375 
Q 6.90625 10.09375 10 6.5 
Q 13.09375 2.90625 17.640625 0.90625 
Q 22.203125 -1.09375 28.40625 -1.09375 
Q 37.203125 -1.09375 43 3.296875 
Q 48.796875 7.703125 50.5 16.40625 
z
" id="HelveticaNeue-101"/>
       <path d="M 6.40625 71.40625 
L 6.40625 0 
L 14.90625 0 
L 14.90625 29.203125 
Q 14.90625 32.703125 15.84375 35.640625 
Q 16.796875 38.59375 18.6875 40.796875 
Q 20.59375 43 23.4375 44.203125 
Q 26.296875 45.40625 30.203125 45.40625 
Q 35.09375 45.40625 37.890625 42.59375 
Q 40.703125 39.796875 40.703125 35 
L 40.703125 0 
L 49.203125 0 
L 49.203125 34 
Q 49.203125 38.203125 48.34375 41.640625 
Q 47.5 45.09375 45.390625 47.59375 
Q 43.296875 50.09375 39.890625 51.5 
Q 36.5 52.90625 31.40625 52.90625 
Q 29.09375 52.90625 26.640625 52.40625 
Q 24.203125 51.90625 21.953125 50.84375 
Q 19.703125 49.796875 17.890625 48.140625 
Q 16.09375 46.5 15.09375 44.09375 
L 14.90625 44.09375 
L 14.90625 71.40625 
z
" id="HelveticaNeue-104"/>
      </defs>
      <use xlink:href="#HelveticaNeue-102"/>
      <use x="29.599991" xlink:href="#HelveticaNeue-101"/>
      <use x="83.299988" xlink:href="#HelveticaNeue-99"/>
      <use x="136.999985" xlink:href="#HelveticaNeue-104"/>
      <use x="192.599976" xlink:href="#HelveticaNeue-97"/>
     </g>
    </g>
   </g>
   <g id="matplotlib.axis_2">
    <g id="ytick_1">
     <g id="line2d_17">
      <defs>
       <path d="M 0 0 
L -3.5 0 
" id="mea81fb7a0e" style="stroke:#555555;stroke-width:0.8;"/>
      </defs>
      <g>
       <use style="fill:#555555;stroke:#555555;stroke-width:0.8;" x="62.5" xlink:href="#mea81fb7a0e" y="251.795455"/>
      </g>
     </g>
     <g id="text_6">
      <!-- 0 -->
      <g style="fill:#555555;" transform="translate(49.940625 255.365767)scale(0.1 -0.1)">
       <use xlink:href="#HelveticaNeue-48"/>
      </g>
     </g>
    </g>
    <g id="ytick_2">
     <g id="line2d_18">
      <g>
       <use style="fill:#555555;stroke:#555555;stroke-width:0.8;" x="62.5" xlink:href="#mea81fb7a0e" y="218.080351"/>
      </g>
     </g>
     <g id="text_7">
      <!-- 20 -->
      <g style="fill:#555555;" transform="translate(44.38125 221.650663)scale(0.1 -0.1)">
       <use xlink:href="#HelveticaNeue-50"/>
       <use x="55.599991" xlink:href="#HelveticaNeue-48"/>
      </g>
     </g>
    </g>
    <g id="ytick_3">
     <g id="line2d_19">
      <g>
       <use style="fill:#555555;stroke:#555555;stroke-width:0.8;" x="62.5" xlink:href="#mea81fb7a0e" y="184.365247"/>
      </g>
     </g>
     <g id="text_8">
      <!-- 40 -->
      <g style="fill:#555555;" transform="translate(44.38125 187.935559)scale(0.1 -0.1)">
       <defs>
        <path d="M 33.90625 24.09375 
L 10.09375 24.09375 
L 33.703125 58.796875 
L 33.90625 58.796875 
z
M 41.90625 24.09375 
L 41.90625 70.90625 
L 35.09375 70.90625 
L 2.796875 24.796875 
L 2.796875 16.59375 
L 33.90625 16.59375 
L 33.90625 0 
L 41.90625 0 
L 41.90625 16.59375 
L 51.5 16.59375 
L 51.5 24.09375 
z
" id="HelveticaNeue-52"/>
       </defs>
       <use xlink:href="#HelveticaNeue-52"/>
       <use x="55.599991" xlink:href="#HelveticaNeue-48"/>
      </g>
     </g>
    </g>
    <g id="ytick_4">
     <g id="line2d_20">
      <g>
       <use style="fill:#555555;stroke:#555555;stroke-width:0.8;" x="62.5" xlink:href="#mea81fb7a0e" y="150.650143"/>
      </g>
     </g>
     <g id="text_9">
      <!-- 60 -->
      <g style="fill:#555555;" transform="translate(44.38125 154.220456)scale(0.1 -0.1)">
       <defs>
        <path d="M 41.40625 52.796875 
L 49.90625 52.796875 
Q 49.09375 61.59375 43.890625 66.25 
Q 38.703125 70.90625 29.90625 70.90625 
Q 22.296875 70.90625 17.296875 67.703125 
Q 12.296875 64.5 9.296875 59.203125 
Q 6.296875 53.90625 5.046875 47.046875 
Q 3.796875 40.203125 3.796875 32.90625 
Q 3.796875 27.296875 4.640625 21.296875 
Q 5.5 15.296875 8.09375 10.296875 
Q 10.703125 5.296875 15.5 2.09375 
Q 20.296875 -1.09375 28.203125 -1.09375 
Q 34.90625 -1.09375 39.453125 1.15625 
Q 44 3.40625 46.75 6.84375 
Q 49.5 10.296875 50.703125 14.5 
Q 51.90625 18.703125 51.90625 22.59375 
Q 51.90625 27.5 50.40625 31.703125 
Q 48.90625 35.90625 46.15625 39 
Q 43.40625 42.09375 39.34375 43.84375 
Q 35.296875 45.59375 30.203125 45.59375 
Q 24.40625 45.59375 19.953125 43.390625 
Q 15.5 41.203125 12.5 36.296875 
L 12.296875 36.5 
Q 12.40625 40.59375 13.09375 45.296875 
Q 13.796875 50 15.640625 54.046875 
Q 17.5 58.09375 20.796875 60.75 
Q 24.09375 63.40625 29.5 63.40625 
Q 34.59375 63.40625 37.6875 60.5 
Q 40.796875 57.59375 41.40625 52.796875 
z
M 28.59375 38.09375 
Q 32.203125 38.09375 34.890625 36.796875 
Q 37.59375 35.5 39.390625 33.34375 
Q 41.203125 31.203125 42.046875 28.25 
Q 42.90625 25.296875 42.90625 22 
Q 42.90625 18.90625 41.953125 16.046875 
Q 41 13.203125 39.203125 11 
Q 37.40625 8.796875 34.75 7.546875 
Q 32.09375 6.296875 28.59375 6.296875 
Q 25.09375 6.296875 22.34375 7.546875 
Q 19.59375 8.796875 17.75 10.890625 
Q 15.90625 13 14.90625 15.890625 
Q 13.90625 18.796875 13.90625 22.09375 
Q 13.90625 25.40625 14.84375 28.34375 
Q 15.796875 31.296875 17.6875 33.4375 
Q 19.59375 35.59375 22.296875 36.84375 
Q 25 38.09375 28.59375 38.09375 
z
" id="HelveticaNeue-54"/>
       </defs>
       <use xlink:href="#HelveticaNeue-54"/>
       <use x="55.599991" xlink:href="#HelveticaNeue-48"/>
      </g>
     </g>
    </g>
    <g id="ytick_5">
     <g id="line2d_21">
      <g>
       <use style="fill:#555555;stroke:#555555;stroke-width:0.8;" x="62.5" xlink:href="#mea81fb7a0e" y="116.935039"/>
      </g>
     </g>
     <g id="text_10">
      <!-- 80 -->
      <g style="fill:#555555;" transform="translate(44.38125 120.505352)scale(0.1 -0.1)">
       <defs>
        <path d="M 15.5 52.5 
Q 15.5 55.203125 16.5 57.203125 
Q 17.5 59.203125 19.140625 60.59375 
Q 20.796875 62 23.09375 62.703125 
Q 25.40625 63.40625 27.90625 63.40625 
Q 33.09375 63.40625 36.4375 60.65625 
Q 39.796875 57.90625 39.796875 52.5 
Q 39.796875 47.09375 36.5 44.09375 
Q 33.203125 41.09375 28.09375 41.09375 
Q 25.5 41.09375 23.203125 41.796875 
Q 20.90625 42.5 19.203125 43.890625 
Q 17.5 45.296875 16.5 47.4375 
Q 15.5 49.59375 15.5 52.5 
z
M 6.5 52.796875 
Q 6.5 48 9.203125 43.953125 
Q 11.90625 39.90625 16.40625 38.09375 
Q 10.40625 36 7.203125 31.34375 
Q 4 26.703125 4 20.40625 
Q 4 15 5.84375 10.953125 
Q 7.703125 6.90625 10.953125 4.203125 
Q 14.203125 1.5 18.59375 0.203125 
Q 23 -1.09375 28.09375 -1.09375 
Q 33 -1.09375 37.296875 0.296875 
Q 41.59375 1.703125 44.75 4.453125 
Q 47.90625 7.203125 49.75 11.203125 
Q 51.59375 15.203125 51.59375 20.40625 
Q 51.59375 27 48.5 31.546875 
Q 45.40625 36.09375 39 38.09375 
Q 43.5 40.09375 46.140625 44.046875 
Q 48.796875 48 48.796875 52.796875 
Q 48.796875 56.203125 47.59375 59.453125 
Q 46.40625 62.703125 43.84375 65.25 
Q 41.296875 67.796875 37.1875 69.34375 
Q 33.09375 70.90625 27.296875 70.90625 
Q 23.203125 70.90625 19.453125 69.703125 
Q 15.703125 68.5 12.796875 66.203125 
Q 9.90625 63.90625 8.203125 60.546875 
Q 6.5 57.203125 6.5 52.796875 
z
M 13 20 
Q 13 23.09375 14.140625 25.59375 
Q 15.296875 28.09375 17.34375 29.890625 
Q 19.40625 31.703125 22.15625 32.640625 
Q 24.90625 33.59375 28 33.59375 
Q 31 33.59375 33.640625 32.546875 
Q 36.296875 31.5 38.296875 29.703125 
Q 40.296875 27.90625 41.4375 25.453125 
Q 42.59375 23 42.59375 20.09375 
Q 42.59375 17.09375 41.546875 14.59375 
Q 40.5 12.09375 38.546875 10.25 
Q 36.59375 8.40625 33.9375 7.34375 
Q 31.296875 6.296875 28.09375 6.296875 
Q 21.5 6.296875 17.25 9.9375 
Q 13 13.59375 13 20 
z
" id="HelveticaNeue-56"/>
       </defs>
       <use xlink:href="#HelveticaNeue-56"/>
       <use x="55.599991" xlink:href="#HelveticaNeue-48"/>
      </g>
     </g>
    </g>
    <g id="ytick_6">
     <g id="line2d_22">
      <g>
       <use style="fill:#555555;stroke:#555555;stroke-width:0.8;" x="62.5" xlink:href="#mea81fb7a0e" y="83.219936"/>
      </g>
     </g>
     <g id="text_11">
      <!-- 100 -->
      <g style="fill:#555555;" transform="translate(38.821875 86.790248)scale(0.1 -0.1)">
       <use xlink:href="#HelveticaNeue-49"/>
       <use x="55.599991" xlink:href="#HelveticaNeue-48"/>
       <use x="111.199982" xlink:href="#HelveticaNeue-48"/>
      </g>
     </g>
    </g>
    <g id="ytick_7">
     <g id="line2d_23">
      <g>
       <use style="fill:#555555;stroke:#555555;stroke-width:0.8;" x="62.5" xlink:href="#mea81fb7a0e" y="49.504832"/>
      </g>
     </g>
     <g id="text_12">
      <!-- 120 -->
      <g style="fill:#555555;" transform="translate(38.821875 53.075144)scale(0.1 -0.1)">
       <use xlink:href="#HelveticaNeue-49"/>
       <use x="55.599991" xlink:href="#HelveticaNeue-50"/>
       <use x="111.199982" xlink:href="#HelveticaNeue-48"/>
      </g>
     </g>
    </g>
   </g>
   <g id="line2d_24">
    <path clip-path="url(#ped7d86d618)" d="M 63.416076 250.109699 
L 64.332151 251.795455 
L 65.248227 250.109699 
L 66.164303 251.795455 
L 67.080378 250.109699 
L 67.996454 251.795455 
L 68.91253 251.795455 
L 69.828605 248.423944 
L 70.744681 251.795455 
L 71.660757 250.109699 
L 72.576832 251.795455 
L 73.492908 250.109699 
L 74.408983 243.366679 
L 75.325059 251.795455 
L 76.241135 250.109699 
L 77.15721 251.795455 
L 78.073286 250.109699 
L 78.989362 251.795455 
L 79.905437 246.738189 
L 80.821513 250.109699 
L 81.737589 250.109699 
L 82.653664 251.795455 
L 83.56974 251.795455 
L 84.485816 250.109699 
L 85.401891 251.795455 
L 86.317967 250.109699 
L 87.234043 243.366679 
L 88.150118 251.795455 
L 89.066194 251.795455 
L 89.98227 250.109699 
L 90.898345 241.680923 
L 91.814421 246.738189 
L 92.730496 218.080351 
L 93.646572 218.080351 
L 94.562648 248.423944 
L 95.478723 250.109699 
L 96.394799 250.109699 
L 97.310875 248.423944 
L 98.22695 245.052434 
L 99.143026 251.795455 
L 100.059102 245.052434 
L 100.975177 248.423944 
L 101.891253 246.738189 
L 102.807329 250.109699 
L 104.63948 239.995168 
L 105.555556 246.738189 
L 106.471631 245.052434 
L 107.387707 180.993737 
L 108.303783 238.309413 
L 109.219858 246.738189 
L 110.135934 245.052434 
L 111.052009 246.738189 
L 111.968085 246.738189 
L 112.884161 241.680923 
L 113.800236 250.109699 
L 114.716312 238.309413 
L 115.632388 238.309413 
L 116.548463 245.052434 
L 117.464539 238.309413 
L 118.380615 245.052434 
L 119.29669 241.680923 
L 120.212766 248.423944 
L 121.128842 241.680923 
L 122.044917 238.309413 
L 122.960993 250.109699 
L 123.877069 238.309413 
L 124.793144 246.738189 
L 125.70922 245.052434 
L 126.625296 245.052434 
L 127.541371 241.680923 
L 128.457447 231.566392 
L 129.373522 159.078919 
L 130.289598 206.280064 
L 131.205674 216.394596 
L 132.121749 186.051002 
L 133.037825 234.937903 
L 133.953901 233.252147 
L 134.869976 192.794023 
L 135.786052 223.137616 
L 136.702128 219.766106 
L 137.618203 209.651575 
L 138.534279 211.33733 
L 139.450355 231.566392 
L 140.36643 201.222799 
L 141.282506 218.080351 
L 142.198582 69.733894 
L 143.114657 236.623658 
L 144.030733 154.021654 
L 144.946809 236.623658 
L 145.862884 221.451861 
L 146.77896 218.080351 
L 147.695035 145.592878 
L 148.611111 201.222799 
L 149.527187 219.766106 
L 150.443262 192.794023 
L 151.359338 152.335898 
L 152.275414 207.96582 
L 154.107565 197.851288 
L 155.023641 135.478346 
L 155.939716 194.479778 
L 156.855792 170.879205 
L 157.771868 206.280064 
L 158.687943 209.651575 
L 159.604019 155.707409 
L 160.520095 164.136185 
L 161.43617 167.507695 
L 162.352246 145.592878 
L 163.268322 199.537044 
L 164.184397 209.651575 
L 165.100473 177.622226 
L 166.016548 184.365247 
L 166.932624 186.051002 
L 167.8487 182.679492 
L 168.764775 184.365247 
L 169.680851 152.335898 
L 170.596927 140.535612 
L 171.513002 199.537044 
L 172.429078 138.849857 
L 173.345154 98.391732 
L 174.261229 204.594309 
L 175.177305 201.222799 
L 176.093381 180.993737 
L 177.009456 174.250716 
L 177.925532 170.879205 
L 178.841608 121.992305 
L 179.757683 180.993737 
L 180.673759 197.851288 
L 181.589835 162.450429 
L 182.50591 160.764674 
L 183.421986 218.080351 
L 185.254137 147.278633 
L 186.170213 162.450429 
L 187.086288 160.764674 
L 188.002364 184.365247 
L 188.91844 202.908554 
L 189.834515 159.078919 
L 190.750591 179.307981 
L 191.666667 115.249284 
L 192.582742 145.592878 
L 193.498818 228.194882 
L 194.414894 169.19345 
L 195.330969 174.250716 
L 196.247045 216.394596 
L 197.163121 165.82194 
L 198.079196 211.33733 
L 198.995272 207.96582 
L 200.827423 214.70884 
L 201.743499 219.766106 
L 202.659574 233.252147 
L 203.57565 201.222799 
L 204.491726 209.651575 
L 205.407801 219.766106 
L 206.323877 197.851288 
L 207.239953 202.908554 
L 208.156028 201.222799 
L 209.072104 229.880637 
L 209.98818 213.023085 
L 210.904255 201.222799 
L 211.820331 216.394596 
L 212.736407 167.507695 
L 213.652482 201.222799 
L 214.568558 213.023085 
L 215.484634 234.937903 
L 216.400709 231.566392 
L 217.316785 216.394596 
L 218.232861 197.851288 
L 219.148936 191.108268 
L 220.065012 219.766106 
L 220.981087 224.823372 
L 221.897163 226.509127 
L 222.813239 234.937903 
L 223.729314 211.33733 
L 224.64539 231.566392 
L 225.561466 207.96582 
L 226.477541 189.422513 
L 227.393617 202.908554 
L 228.309693 214.70884 
L 229.225768 219.766106 
L 230.141844 223.137616 
L 231.05792 221.451861 
L 231.973995 202.908554 
L 232.890071 224.823372 
L 233.806147 170.879205 
L 234.722222 224.823372 
L 235.638298 226.509127 
L 236.554374 239.995168 
L 237.470449 226.509127 
L 238.386525 219.766106 
L 239.3026 211.33733 
L 240.218676 214.70884 
L 241.134752 199.537044 
L 242.050827 216.394596 
L 242.966903 221.451861 
L 243.882979 216.394596 
L 244.799054 196.165533 
L 245.71513 211.33733 
L 246.631206 211.33733 
L 247.547281 213.023085 
L 248.463357 211.33733 
L 249.379433 204.594309 
L 250.295508 206.280064 
L 251.211584 192.794023 
L 252.12766 209.651575 
L 253.043735 219.766106 
L 254.875887 213.023085 
L 255.791962 207.96582 
L 256.708038 187.736757 
L 257.624113 224.823372 
L 259.456265 207.96582 
L 260.37234 213.023085 
L 261.288416 213.023085 
L 262.204492 202.908554 
L 263.120567 213.023085 
L 264.036643 224.823372 
L 264.952719 219.766106 
L 265.868794 223.137616 
L 266.78487 228.194882 
L 267.700946 224.823372 
L 268.617021 194.479778 
L 269.533097 216.394596 
L 270.449173 202.908554 
L 271.365248 214.70884 
L 272.281324 189.422513 
L 273.1974 214.70884 
L 274.113475 191.108268 
L 275.029551 199.537044 
L 275.945626 165.82194 
L 276.861702 169.19345 
L 277.777778 154.021654 
L 278.693853 213.023085 
L 279.609929 216.394596 
L 280.526005 202.908554 
L 281.44208 192.794023 
L 282.358156 199.537044 
L 283.274232 204.594309 
L 284.190307 182.679492 
L 285.106383 189.422513 
L 286.022459 221.451861 
L 286.938534 184.365247 
L 287.85461 207.96582 
L 288.770686 180.993737 
L 289.686761 177.622226 
L 290.602837 177.622226 
L 291.518913 204.594309 
L 292.434988 191.108268 
L 293.351064 196.165533 
L 294.267139 145.592878 
L 295.183215 115.249284 
L 296.099291 197.851288 
L 297.015366 138.849857 
L 297.931442 201.222799 
L 298.847518 170.879205 
L 299.763593 206.280064 
L 300.679669 138.849857 
L 301.595745 177.622226 
L 302.51182 172.564961 
L 303.427896 216.394596 
L 304.343972 186.051002 
L 305.260047 206.280064 
L 306.176123 157.393164 
L 307.092199 73.105404 
L 308.008274 123.67806 
L 308.92435 160.764674 
L 309.840426 213.023085 
L 310.756501 148.964388 
L 311.672577 162.450429 
L 312.588652 160.764674 
L 313.504728 138.849857 
L 314.420804 121.992305 
L 315.336879 128.735326 
L 316.252955 125.363815 
L 317.169031 150.650143 
L 318.085106 189.422513 
L 319.001182 191.108268 
L 319.917258 71.419649 
L 320.833333 128.735326 
L 321.749409 155.707409 
L 322.665485 115.249284 
L 323.58156 93.334467 
L 324.497636 74.79116 
L 325.413712 130.421081 
L 326.329787 128.735326 
L 327.245863 145.592878 
L 328.161939 150.650143 
L 329.078014 145.592878 
L 329.99409 155.707409 
L 330.910165 196.165533 
L 331.826241 150.650143 
L 332.742317 196.165533 
L 333.658392 138.849857 
L 334.574468 177.622226 
L 335.490544 206.280064 
L 336.406619 206.280064 
L 337.322695 196.165533 
L 338.238771 191.108268 
L 339.154846 194.479778 
L 340.070922 216.394596 
L 340.986998 213.023085 
L 341.903073 202.908554 
L 342.819149 211.33733 
L 343.735225 216.394596 
L 344.6513 209.651575 
L 345.567376 204.594309 
L 346.483452 206.280064 
L 347.399527 221.451861 
L 348.315603 213.023085 
L 349.231678 233.252147 
L 350.147754 226.509127 
L 351.06383 229.880637 
L 351.979905 226.509127 
L 352.895981 229.880637 
L 353.812057 238.309413 
L 354.728132 221.451861 
L 356.560284 241.680923 
L 357.476359 233.252147 
L 359.308511 233.252147 
L 360.224586 218.080351 
L 361.140662 233.252147 
L 362.056738 234.937903 
L 362.972813 238.309413 
L 363.888889 243.366679 
L 364.804965 229.880637 
L 365.72104 236.623658 
L 366.637116 226.509127 
L 367.553191 233.252147 
L 368.469267 238.309413 
L 369.385343 246.738189 
L 370.301418 250.109699 
L 371.217494 245.052434 
L 372.13357 243.366679 
L 373.049645 228.194882 
L 373.965721 246.738189 
L 374.881797 248.423944 
L 375.797872 238.309413 
L 376.713948 239.995168 
L 377.630024 238.309413 
L 378.546099 231.566392 
L 379.462175 241.680923 
L 380.378251 239.995168 
L 381.294326 239.995168 
L 382.210402 233.252147 
L 383.126478 250.109699 
L 384.042553 246.738189 
L 384.958629 236.623658 
L 385.874704 234.937903 
L 386.79078 223.137616 
L 387.706856 224.823372 
L 388.622931 238.309413 
L 389.539007 234.937903 
L 390.455083 206.280064 
L 391.371158 226.509127 
L 392.287234 228.194882 
L 393.20331 197.851288 
L 394.119385 219.766106 
L 395.035461 226.509127 
L 395.951537 207.96582 
L 396.867612 175.936471 
L 397.783688 221.451861 
L 398.699764 196.165533 
L 399.615839 192.794023 
L 400.531915 226.509127 
L 401.447991 202.908554 
L 402.364066 135.478346 
L 403.280142 155.707409 
L 404.196217 159.078919 
L 405.112293 167.507695 
L 406.028369 167.507695 
L 406.944444 189.422513 
L 407.86052 184.365247 
L 408.776596 132.106836 
L 409.692671 148.964388 
L 410.608747 162.450429 
L 412.440898 128.735326 
L 413.356974 180.993737 
L 414.27305 194.479778 
L 415.189125 145.592878 
L 416.105201 128.735326 
L 417.021277 148.964388 
L 417.937352 199.537044 
L 418.853428 142.221367 
L 419.769504 211.33733 
L 420.685579 162.450429 
L 421.601655 143.907122 
L 422.51773 154.021654 
L 423.433806 218.080351 
L 424.349882 59.619363 
L 425.265957 150.650143 
L 426.182033 194.479778 
L 427.098109 154.021654 
L 428.014184 157.393164 
L 428.93026 100.077487 
L 429.846336 128.735326 
L 430.762411 180.993737 
L 431.678487 157.393164 
L 432.594563 160.764674 
L 433.510638 201.222799 
L 434.426714 167.507695 
L 435.34279 160.764674 
L 436.258865 186.051002 
L 437.174941 155.707409 
L 438.091017 54.562097 
L 439.007092 96.705977 
L 439.923168 108.506263 
L 440.839243 96.705977 
L 441.755319 37.704545 
L 442.671395 111.877774 
L 443.58747 115.249284 
L 444.503546 110.192019 
L 445.419622 111.877774 
L 446.335697 115.249284 
L 447.251773 157.393164 
L 448.167849 121.992305 
L 449.083924 73.105404 
L 450 177.622226 
L 450 177.622226 
" style="fill:none;stroke:#000000;stroke-dasharray:1.5,2.475;stroke-dashoffset:0;stroke-opacity:0.5;stroke-width:1.5;"/>
   </g>
   <g id="line2d_25">
    <path clip-path="url(#ped7d86d618)" d="M 62.5 250.109699 
L 65.248227 250.109699 
L 66.164303 251.795455 
L 67.080378 250.109699 
L 87.234043 250.109699 
L 88.150118 248.423944 
L 89.066194 248.423944 
L 89.98227 245.052434 
L 90.898345 239.995168 
L 92.730496 236.623658 
L 95.478723 241.680923 
L 97.310875 248.423944 
L 100.059102 248.423944 
L 100.975177 246.738189 
L 102.807329 246.738189 
L 103.723404 245.052434 
L 104.63948 238.309413 
L 105.555556 234.937903 
L 106.471631 233.252147 
L 108.303783 233.252147 
L 109.219858 234.937903 
L 110.135934 238.309413 
L 111.052009 245.052434 
L 111.968085 245.052434 
L 112.884161 243.366679 
L 114.716312 243.366679 
L 115.632388 241.680923 
L 117.464539 241.680923 
L 118.380615 243.366679 
L 125.70922 243.366679 
L 126.625296 233.252147 
L 128.457447 219.766106 
L 129.373522 211.33733 
L 130.289598 207.96582 
L 131.205674 207.96582 
L 132.121749 206.280064 
L 133.037825 213.023085 
L 133.953901 216.394596 
L 134.869976 214.70884 
L 135.786052 216.394596 
L 136.702128 216.394596 
L 137.618203 214.70884 
L 138.534279 216.394596 
L 139.450355 199.537044 
L 140.36643 196.165533 
L 141.282506 187.736757 
L 143.114657 187.736757 
L 144.030733 192.794023 
L 144.946809 191.108268 
L 145.862884 202.908554 
L 146.77896 199.537044 
L 147.695035 202.908554 
L 148.611111 192.794023 
L 150.443262 189.422513 
L 151.359338 194.479778 
L 152.275414 187.736757 
L 154.107565 180.993737 
L 155.023641 186.051002 
L 155.939716 186.051002 
L 156.855792 182.679492 
L 157.771868 180.993737 
L 158.687943 182.679492 
L 159.604019 175.936471 
L 161.43617 175.936471 
L 162.352246 174.250716 
L 163.268322 179.307981 
L 165.100473 186.051002 
L 166.016548 187.736757 
L 166.932624 182.679492 
L 167.8487 174.250716 
L 168.764775 174.250716 
L 169.680851 169.19345 
L 170.596927 157.393164 
L 171.513002 157.393164 
L 172.429078 159.078919 
L 173.345154 164.136185 
L 174.261229 170.879205 
L 176.093381 170.879205 
L 177.009456 175.936471 
L 178.841608 169.19345 
L 179.757683 167.507695 
L 180.673759 172.564961 
L 182.50591 179.307981 
L 183.421986 177.622226 
L 184.338061 172.564961 
L 185.254137 172.564961 
L 186.170213 175.936471 
L 187.086288 170.879205 
L 188.002364 172.564961 
L 189.834515 165.82194 
L 190.750591 169.19345 
L 191.666667 167.507695 
L 192.582742 167.507695 
L 193.498818 174.250716 
L 194.414894 177.622226 
L 195.330969 187.736757 
L 196.247045 194.479778 
L 197.163121 194.479778 
L 198.079196 199.537044 
L 198.995272 206.280064 
L 199.911348 209.651575 
L 200.827423 214.70884 
L 201.743499 214.70884 
L 202.659574 216.394596 
L 203.57565 214.70884 
L 204.491726 211.33733 
L 206.323877 207.96582 
L 207.239953 209.651575 
L 209.072104 209.651575 
L 209.98818 206.280064 
L 210.904255 204.594309 
L 212.736407 204.594309 
L 214.568558 211.33733 
L 216.400709 214.70884 
L 218.232861 214.70884 
L 219.148936 213.023085 
L 220.981087 216.394596 
L 221.897163 221.451861 
L 222.813239 223.137616 
L 223.729314 219.766106 
L 224.64539 214.70884 
L 225.561466 211.33733 
L 226.477541 209.651575 
L 227.393617 211.33733 
L 228.309693 211.33733 
L 229.225768 213.023085 
L 230.141844 216.394596 
L 231.05792 213.023085 
L 231.973995 211.33733 
L 232.890071 211.33733 
L 233.806147 213.023085 
L 235.638298 219.766106 
L 236.554374 219.766106 
L 237.470449 224.823372 
L 238.386525 219.766106 
L 239.3026 218.080351 
L 240.218676 214.70884 
L 242.050827 211.33733 
L 245.71513 211.33733 
L 247.547281 207.96582 
L 248.463357 207.96582 
L 249.379433 206.280064 
L 250.295508 206.280064 
L 252.12766 209.651575 
L 253.043735 209.651575 
L 253.959811 207.96582 
L 254.875887 211.33733 
L 255.791962 211.33733 
L 256.708038 209.651575 
L 257.624113 209.651575 
L 258.540189 211.33733 
L 259.456265 211.33733 
L 260.37234 213.023085 
L 262.204492 213.023085 
L 263.120567 214.70884 
L 264.036643 218.080351 
L 264.952719 219.766106 
L 266.78487 219.766106 
L 267.700946 216.394596 
L 268.617021 214.70884 
L 269.533097 209.651575 
L 270.449173 207.96582 
L 271.365248 204.594309 
L 272.281324 204.594309 
L 273.1974 197.851288 
L 274.113475 192.794023 
L 275.029551 184.365247 
L 276.861702 184.365247 
L 277.777778 186.051002 
L 278.693853 189.422513 
L 280.526005 199.537044 
L 281.44208 201.222799 
L 282.358156 197.851288 
L 283.274232 197.851288 
L 284.190307 196.165533 
L 285.106383 197.851288 
L 288.770686 191.108268 
L 289.686761 187.736757 
L 290.602837 189.422513 
L 291.518913 184.365247 
L 292.434988 175.936471 
L 293.351064 174.250716 
L 294.267139 167.507695 
L 296.099291 164.136185 
L 297.931442 170.879205 
L 298.847518 175.936471 
L 299.763593 174.250716 
L 300.679669 180.993737 
L 301.595745 179.307981 
L 302.51182 184.365247 
L 303.427896 182.679492 
L 304.343972 175.936471 
L 305.260047 165.82194 
L 306.176123 157.393164 
L 308.008274 150.650143 
L 308.92435 148.964388 
L 309.840426 154.021654 
L 310.756501 160.764674 
L 311.672577 159.078919 
L 312.588652 152.335898 
L 313.504728 140.535612 
L 314.420804 138.849857 
L 315.336879 142.221367 
L 316.252955 147.278633 
L 317.169031 143.907122 
L 318.085106 145.592878 
L 319.001182 145.592878 
L 319.917258 142.221367 
L 320.833333 133.792591 
L 321.749409 118.620795 
L 322.665485 111.877774 
L 323.58156 115.249284 
L 325.413712 118.620795 
L 326.329787 125.363815 
L 327.245863 135.478346 
L 328.161939 148.964388 
L 329.078014 154.021654 
L 329.99409 162.450429 
L 330.910165 164.136185 
L 331.826241 167.507695 
L 332.742317 172.564961 
L 333.658392 179.307981 
L 334.574468 180.993737 
L 335.490544 187.736757 
L 336.406619 189.422513 
L 337.322695 197.851288 
L 338.238771 202.908554 
L 339.154846 202.908554 
L 340.986998 206.280064 
L 341.903073 209.651575 
L 342.819149 211.33733 
L 343.735225 209.651575 
L 344.6513 209.651575 
L 345.567376 211.33733 
L 346.483452 214.70884 
L 347.399527 216.394596 
L 350.147754 226.509127 
L 351.979905 229.880637 
L 352.895981 229.880637 
L 353.812057 231.566392 
L 354.728132 231.566392 
L 355.644208 233.252147 
L 356.560284 233.252147 
L 357.476359 231.566392 
L 360.224586 231.566392 
L 361.140662 233.252147 
L 362.056738 233.252147 
L 362.972813 234.937903 
L 366.637116 234.937903 
L 367.553191 236.623658 
L 368.469267 239.995168 
L 369.385343 241.680923 
L 370.301418 241.680923 
L 371.217494 243.366679 
L 372.13357 243.366679 
L 373.049645 241.680923 
L 373.965721 241.680923 
L 374.881797 239.995168 
L 377.630024 239.995168 
L 378.546099 238.309413 
L 380.378251 238.309413 
L 382.210402 241.680923 
L 386.79078 233.252147 
L 387.706856 228.194882 
L 388.622931 226.509127 
L 389.539007 226.509127 
L 390.455083 223.137616 
L 392.287234 219.766106 
L 394.119385 213.023085 
L 395.035461 211.33733 
L 395.951537 206.280064 
L 396.867612 204.594309 
L 397.783688 204.594309 
L 398.699764 202.908554 
L 399.615839 196.165533 
L 400.531915 191.108268 
L 401.447991 182.679492 
L 403.280142 169.19345 
L 404.196217 165.82194 
L 405.112293 165.82194 
L 406.028369 167.507695 
L 406.944444 165.82194 
L 407.86052 165.82194 
L 409.692671 155.707409 
L 410.608747 152.335898 
L 411.524823 154.021654 
L 412.440898 157.393164 
L 413.356974 157.393164 
L 414.27305 155.707409 
L 415.189125 160.764674 
L 416.105201 160.764674 
L 417.021277 164.136185 
L 417.937352 164.136185 
L 419.769504 167.507695 
L 420.685579 172.564961 
L 421.601655 159.078919 
L 422.51773 157.393164 
L 423.433806 152.335898 
L 424.349882 152.335898 
L 425.265957 154.021654 
L 426.182033 148.964388 
L 427.098109 140.535612 
L 428.014184 150.650143 
L 429.846336 147.278633 
L 430.762411 154.021654 
L 431.678487 159.078919 
L 432.594563 167.507695 
L 433.510638 172.564961 
L 434.426714 170.879205 
L 436.258865 147.278633 
L 437.174941 132.106836 
L 438.091017 120.30655 
L 439.007092 103.448998 
L 439.923168 91.648712 
L 440.839243 88.277201 
L 441.755319 95.020222 
L 442.671395 96.705977 
L 443.58747 100.077487 
L 445.419622 120.30655 
L 446.335697 116.935039 
L 447.251773 123.67806 
L 448.167849 125.363815 
L 449.083924 128.735326 
L 450 130.421081 
L 450 130.421081 
" style="fill:none;stroke:#b3220f;stroke-linecap:square;stroke-width:1.5;"/>
   </g>
   <g id="patch_3">
    <path d="M 62.5 262.5 
L 62.5 27 
" style="fill:none;stroke:#555555;stroke-linecap:square;stroke-linejoin:miter;"/>
   </g>
   <g id="patch_4">
    <path d="M 62.5 262.5 
L 450 262.5 
" style="fill:none;stroke:#555555;stroke-linecap:square;stroke-linejoin:miter;"/>
   </g>
   <g id="text_13">
    <!-- Antonio Nariño | Casos nuevos: 2021-06-03 -->
    <g style="fill:#555555;" transform="translate(119.325625 17)scale(0.14 -0.14)">
     <defs>
      <path d="M 12.59375 25.796875 
Q 12.59375 30.5 13.84375 34.140625 
Q 15.09375 37.796875 17.296875 40.296875 
Q 19.5 42.796875 22.453125 44.09375 
Q 25.40625 45.40625 28.703125 45.40625 
Q 32 45.40625 34.953125 44.09375 
Q 37.90625 42.796875 40.09375 40.296875 
Q 42.296875 37.796875 43.546875 34.140625 
Q 44.796875 30.5 44.796875 25.796875 
Q 44.796875 21.09375 43.546875 17.4375 
Q 42.296875 13.796875 40.09375 11.34375 
Q 37.90625 8.90625 34.953125 7.59375 
Q 32 6.296875 28.703125 6.296875 
Q 25.40625 6.296875 22.453125 7.59375 
Q 19.5 8.90625 17.296875 11.34375 
Q 15.09375 13.796875 13.84375 17.4375 
Q 12.59375 21.09375 12.59375 25.796875 
z
M 3.59375 25.796875 
Q 3.59375 20.09375 5.1875 15.1875 
Q 6.796875 10.296875 10 6.640625 
Q 13.203125 3 17.890625 0.953125 
Q 22.59375 -1.09375 28.703125 -1.09375 
Q 34.90625 -1.09375 39.546875 0.953125 
Q 44.203125 3 47.390625 6.640625 
Q 50.59375 10.296875 52.1875 15.1875 
Q 53.796875 20.09375 53.796875 25.796875 
Q 53.796875 31.5 52.1875 36.453125 
Q 50.59375 41.40625 47.390625 45.046875 
Q 44.203125 48.703125 39.546875 50.796875 
Q 34.90625 52.90625 28.703125 52.90625 
Q 22.59375 52.90625 17.890625 50.796875 
Q 13.203125 48.703125 10 45.046875 
Q 6.796875 41.40625 5.1875 36.453125 
Q 3.59375 31.5 3.59375 25.796875 
z
" id="HelveticaNeue-111"/>
      <path d="M 15.40625 61 
L 15.40625 71.40625 
L 6.90625 71.40625 
L 6.90625 61 
z
M 6.90625 51.703125 
L 6.90625 0 
L 15.40625 0 
L 15.40625 51.703125 
z
" id="HelveticaNeue-105"/>
      <path id="HelveticaNeue-32"/>
      <path d="M 7.703125 71.40625 
L 7.703125 0 
L 16.703125 0 
L 16.703125 57.296875 
L 16.90625 57.296875 
L 54.203125 0 
L 64.59375 0 
L 64.59375 71.40625 
L 55.59375 71.40625 
L 55.59375 13.5 
L 55.40625 13.5 
L 17.796875 71.40625 
z
" id="HelveticaNeue-78"/>
      <path d="M 45.203125 71.09375 
L 40 71.09375 
Q 39.5 69.59375 38.453125 68.140625 
Q 37.40625 66.703125 35.40625 66.703125 
Q 33.796875 66.703125 32.140625 67.34375 
Q 30.5 68 28.796875 68.75 
Q 27.09375 69.5 25.25 70.09375 
Q 23.40625 70.703125 21.40625 70.703125 
Q 19 70.703125 17.296875 69.796875 
Q 15.59375 68.90625 14.390625 67.40625 
Q 13.203125 65.90625 12.34375 63.90625 
Q 11.5 61.90625 10.90625 59.703125 
L 16.09375 59.703125 
Q 15.90625 61.59375 17.59375 62.75 
Q 19.296875 63.90625 20.90625 63.90625 
Q 22.296875 63.90625 24.046875 63.296875 
Q 25.796875 62.703125 27.59375 62 
Q 29.40625 61.203125 31.15625 60.59375 
Q 32.90625 60 34.203125 60 
Q 37.09375 60 38.9375 60.84375 
Q 40.796875 61.703125 42.09375 63.09375 
Q 44.59375 66.59375 45.203125 71.09375 
z
M 6.40625 51.703125 
L 6.40625 0 
L 14.90625 0 
L 14.90625 29.203125 
Q 14.90625 32.703125 15.84375 35.640625 
Q 16.796875 38.59375 18.6875 40.796875 
Q 20.59375 43 23.4375 44.203125 
Q 26.296875 45.40625 30.203125 45.40625 
Q 35.09375 45.40625 37.890625 42.59375 
Q 40.703125 39.796875 40.703125 35 
L 40.703125 0 
L 49.203125 0 
L 49.203125 34 
Q 49.203125 38.203125 48.34375 41.640625 
Q 47.5 45.09375 45.390625 47.59375 
Q 43.296875 50.09375 39.890625 51.5 
Q 36.5 52.90625 31.40625 52.90625 
Q 19.90625 52.90625 14.59375 43.5 
L 14.40625 43.5 
L 14.40625 51.703125 
z
" id="HelveticaNeue-241"/>
      <path d="M 7.703125 78.59375 
L 7.703125 -21.296875 
L 14.5 -21.296875 
L 14.5 78.59375 
z
" id="HelveticaNeue-124"/>
      <path d="M 58 49.90625 
L 67.5 49.90625 
Q 66.703125 55.59375 64.09375 59.9375 
Q 61.5 64.296875 57.59375 67.1875 
Q 53.703125 70.09375 48.703125 71.59375 
Q 43.703125 73.09375 38.09375 73.09375 
Q 29.90625 73.09375 23.546875 70.140625 
Q 17.203125 67.203125 12.953125 62.09375 
Q 8.703125 57 6.5 50.140625 
Q 4.296875 43.296875 4.296875 35.5 
Q 4.296875 27.703125 6.34375 20.890625 
Q 8.40625 14.09375 12.5 9.09375 
Q 16.59375 4.09375 22.796875 1.25 
Q 29 -1.59375 37.296875 -1.59375 
Q 51 -1.59375 58.890625 5.90625 
Q 66.796875 13.40625 68.203125 26.90625 
L 58.703125 26.90625 
Q 58.40625 22.5 56.90625 18.703125 
Q 55.40625 14.90625 52.75 12.15625 
Q 50.09375 9.40625 46.4375 7.84375 
Q 42.796875 6.296875 38.09375 6.296875 
Q 31.703125 6.296875 27.09375 8.6875 
Q 22.5 11.09375 19.546875 15.140625 
Q 16.59375 19.203125 15.1875 24.640625 
Q 13.796875 30.09375 13.796875 36.203125 
Q 13.796875 41.796875 15.1875 47 
Q 16.59375 52.203125 19.546875 56.25 
Q 22.5 60.296875 27.046875 62.6875 
Q 31.59375 65.09375 38 65.09375 
Q 45.5 65.09375 50.953125 61.296875 
Q 56.40625 57.5 58 49.90625 
z
" id="HelveticaNeue-67"/>
      <path d="M 11.59375 16.296875 
L 3.09375 16.296875 
Q 3.296875 11.5 5.09375 8.140625 
Q 6.90625 4.796875 9.90625 2.75 
Q 12.90625 0.703125 16.796875 -0.1875 
Q 20.703125 -1.09375 25 -1.09375 
Q 28.90625 -1.09375 32.84375 -0.34375 
Q 36.796875 0.40625 39.9375 2.296875 
Q 43.09375 4.203125 45.046875 7.296875 
Q 47 10.40625 47 15.09375 
Q 47 18.796875 45.546875 21.296875 
Q 44.09375 23.796875 41.75 25.4375 
Q 39.40625 27.09375 36.34375 28.09375 
Q 33.296875 29.09375 30.09375 29.796875 
Q 27.09375 30.5 24.09375 31.140625 
Q 21.09375 31.796875 18.6875 32.75 
Q 16.296875 33.703125 14.75 35.140625 
Q 13.203125 36.59375 13.203125 38.796875 
Q 13.203125 40.796875 14.203125 42.046875 
Q 15.203125 43.296875 16.796875 44.046875 
Q 18.40625 44.796875 20.34375 45.09375 
Q 22.296875 45.40625 24.203125 45.40625 
Q 26.296875 45.40625 28.34375 44.953125 
Q 30.40625 44.5 32.09375 43.5 
Q 33.796875 42.5 34.890625 40.84375 
Q 36 39.203125 36.203125 36.703125 
L 44.703125 36.703125 
Q 44.40625 41.40625 42.703125 44.546875 
Q 41 47.703125 38.140625 49.546875 
Q 35.296875 51.40625 31.59375 52.15625 
Q 27.90625 52.90625 23.5 52.90625 
Q 20.09375 52.90625 16.640625 52.046875 
Q 13.203125 51.203125 10.453125 49.453125 
Q 7.703125 47.703125 5.953125 44.890625 
Q 4.203125 42.09375 4.203125 38.203125 
Q 4.203125 33.203125 6.703125 30.390625 
Q 9.203125 27.59375 12.953125 26.046875 
Q 16.703125 24.5 21.09375 23.640625 
Q 25.5 22.796875 29.25 21.75 
Q 33 20.703125 35.5 19 
Q 38 17.296875 38 14 
Q 38 11.59375 36.796875 10.046875 
Q 35.59375 8.5 33.75 7.703125 
Q 31.90625 6.90625 29.703125 6.59375 
Q 27.5 6.296875 25.5 6.296875 
Q 22.90625 6.296875 20.453125 6.796875 
Q 18 7.296875 16.046875 8.4375 
Q 14.09375 9.59375 12.890625 11.546875 
Q 11.703125 13.5 11.59375 16.296875 
z
" id="HelveticaNeue-115"/>
      <path d="M 29.703125 0 
L 48.59375 51.703125 
L 39.703125 51.703125 
L 25.59375 8.59375 
L 25.40625 8.59375 
L 10.90625 51.703125 
L 1.40625 51.703125 
L 20.59375 0 
z
" id="HelveticaNeue-118"/>
      <path d="M 19.40625 40.59375 
L 19.40625 51.703125 
L 8.296875 51.703125 
L 8.296875 40.59375 
z
M 8.296875 11.09375 
L 8.296875 0 
L 19.40625 0 
L 19.40625 11.09375 
z
" id="HelveticaNeue-58"/>
      <path d="M 5 31.796875 
L 5 23.796875 
L 33.90625 23.796875 
L 33.90625 31.796875 
z
" id="HelveticaNeue-45"/>
      <path d="M 21.796875 40.5 
L 21.796875 33.296875 
Q 24.203125 33.59375 26.90625 33.59375 
Q 30.09375 33.59375 32.84375 32.75 
Q 35.59375 31.90625 37.59375 30.15625 
Q 39.59375 28.40625 40.796875 25.84375 
Q 42 23.296875 42 20 
Q 42 16.796875 40.75 14.25 
Q 39.5 11.703125 37.390625 9.953125 
Q 35.296875 8.203125 32.5 7.25 
Q 29.703125 6.296875 26.59375 6.296875 
Q 19.296875 6.296875 15.5 10.640625 
Q 11.703125 15 11.5 21.90625 
L 3 21.90625 
Q 2.90625 16.40625 4.546875 12.09375 
Q 6.203125 7.796875 9.296875 4.84375 
Q 12.40625 1.90625 16.796875 0.40625 
Q 21.203125 -1.09375 26.59375 -1.09375 
Q 31.59375 -1.09375 36.046875 0.25 
Q 40.5 1.59375 43.796875 4.296875 
Q 47.09375 7 49.046875 11.046875 
Q 51 15.09375 51 20.40625 
Q 51 26.796875 47.84375 31.5 
Q 44.703125 36.203125 38.203125 37.59375 
L 38.203125 37.796875 
Q 42.40625 39.703125 45.203125 43.390625 
Q 48 47.09375 48 51.90625 
Q 48 56.796875 46.34375 60.390625 
Q 44.703125 64 41.796875 66.296875 
Q 38.90625 68.59375 34.953125 69.75 
Q 31 70.90625 26.40625 70.90625 
Q 21.09375 70.90625 17.046875 69.203125 
Q 13 67.5 10.296875 64.5 
Q 7.59375 61.5 6.140625 57.296875 
Q 4.703125 53.09375 4.5 48 
L 13 48 
Q 13 51.09375 13.796875 53.890625 
Q 14.59375 56.703125 16.25 58.796875 
Q 17.90625 60.90625 20.453125 62.15625 
Q 23 63.40625 26.40625 63.40625 
Q 31.796875 63.40625 35.390625 60.546875 
Q 39 57.703125 39 52 
Q 39 49.203125 37.890625 47 
Q 36.796875 44.796875 34.9375 43.34375 
Q 33.09375 41.90625 30.640625 41.15625 
Q 28.203125 40.40625 25.5 40.40625 
L 23.703125 40.40625 
Q 23.203125 40.40625 22.703125 40.40625 
Q 22.296875 40.40625 21.796875 40.5 
z
" id="HelveticaNeue-51"/>
     </defs>
     <use xlink:href="#HelveticaNeue-65"/>
     <use x="64.799988" xlink:href="#HelveticaNeue-110"/>
     <use x="120.399979" xlink:href="#HelveticaNeue-116"/>
     <use x="151.899963" xlink:href="#HelveticaNeue-111"/>
     <use x="209.299957" xlink:href="#HelveticaNeue-110"/>
     <use x="264.899948" xlink:href="#HelveticaNeue-105"/>
     <use x="287.099945" xlink:href="#HelveticaNeue-111"/>
     <use x="344.499939" xlink:href="#HelveticaNeue-32"/>
     <use x="372.299927" xlink:href="#HelveticaNeue-78"/>
     <use x="444.499908" xlink:href="#HelveticaNeue-97"/>
     <use x="498.199905" xlink:href="#HelveticaNeue-114"/>
     <use x="531.499893" xlink:href="#HelveticaNeue-105"/>
     <use x="553.69989" xlink:href="#HelveticaNeue-241"/>
     <use x="609.299881" xlink:href="#HelveticaNeue-111"/>
     <use x="666.699875" xlink:href="#HelveticaNeue-32"/>
     <use x="694.499863" xlink:href="#HelveticaNeue-124"/>
     <use x="716.69986" xlink:href="#HelveticaNeue-32"/>
     <use x="744.499847" xlink:href="#HelveticaNeue-67"/>
     <use x="816.699829" xlink:href="#HelveticaNeue-97"/>
     <use x="870.399826" xlink:href="#HelveticaNeue-115"/>
     <use x="920.399811" xlink:href="#HelveticaNeue-111"/>
     <use x="977.799805" xlink:href="#HelveticaNeue-115"/>
     <use x="1027.799789" xlink:href="#HelveticaNeue-32"/>
     <use x="1055.599777" xlink:href="#HelveticaNeue-110"/>
     <use x="1111.199768" xlink:href="#HelveticaNeue-117"/>
     <use x="1166.799759" xlink:href="#HelveticaNeue-101"/>
     <use x="1220.499756" xlink:href="#HelveticaNeue-118"/>
     <use x="1270.499741" xlink:href="#HelveticaNeue-111"/>
     <use x="1327.899734" xlink:href="#HelveticaNeue-115"/>
     <use x="1377.899719" xlink:href="#HelveticaNeue-58"/>
     <use x="1405.699707" xlink:href="#HelveticaNeue-32"/>
     <use x="1433.499695" xlink:href="#HelveticaNeue-50"/>
     <use x="1489.099686" xlink:href="#HelveticaNeue-48"/>
     <use x="1544.699677" xlink:href="#HelveticaNeue-50"/>
     <use x="1600.299667" xlink:href="#HelveticaNeue-49"/>
     <use x="1655.899658" xlink:href="#HelveticaNeue-45"/>
     <use x="1694.799652" xlink:href="#HelveticaNeue-48"/>
     <use x="1750.399643" xlink:href="#HelveticaNeue-54"/>
     <use x="1805.999634" xlink:href="#HelveticaNeue-45"/>
     <use x="1844.899628" xlink:href="#HelveticaNeue-48"/>
     <use x="1900.499619" xlink:href="#HelveticaNeue-51"/>
    </g>
   </g>
   <g id="legend_1">
    <g id="line2d_26">
     <path d="M 71.5 39.640625 
L 91.5 39.640625 
" style="fill:none;stroke:#000000;stroke-dasharray:1.5,2.475;stroke-dashoffset:0;stroke-opacity:0.5;stroke-width:1.5;"/>
    </g>
    <g id="line2d_27"/>
    <g id="text_14">
     <!-- Actual -->
     <g style="fill:#555555;" transform="translate(99.5 43.140625)scale(0.1 -0.1)">
      <use xlink:href="#HelveticaNeue-65"/>
      <use x="64.799988" xlink:href="#HelveticaNeue-99"/>
      <use x="118.499985" xlink:href="#HelveticaNeue-116"/>
      <use x="149.999969" xlink:href="#HelveticaNeue-117"/>
      <use x="205.59996" xlink:href="#HelveticaNeue-97"/>
      <use x="259.299957" xlink:href="#HelveticaNeue-108"/>
     </g>
    </g>
    <g id="line2d_28">
     <path d="M 71.5 54.310937 
L 91.5 54.310937 
" style="fill:none;stroke:#b3220f;stroke-linecap:square;stroke-width:1.5;"/>
    </g>
    <g id="line2d_29"/>
    <g id="text_15">
     <!-- Promedio semanal (7 días)  -->
     <g style="fill:#555555;" transform="translate(99.5 57.810937)scale(0.1 -0.1)">
      <defs>
       <path d="M 17.296875 37.203125 
L 17.296875 63.40625 
L 35.90625 63.40625 
Q 44 63.40625 47.75 60.046875 
Q 51.5 56.703125 51.5 50.296875 
Q 51.5 43.90625 47.75 40.5 
Q 44 37.09375 35.90625 37.203125 
z
M 7.796875 71.40625 
L 7.796875 0 
L 17.296875 0 
L 17.296875 29.203125 
L 39.09375 29.203125 
Q 49.90625 29.09375 55.453125 34.6875 
Q 61 40.296875 61 50.296875 
Q 61 60.296875 55.453125 65.84375 
Q 49.90625 71.40625 39.09375 71.40625 
z
" id="HelveticaNeue-80"/>
       <path d="M 6.40625 51.703125 
L 6.40625 0 
L 14.90625 0 
L 14.90625 32.203125 
Q 14.90625 33.703125 15.65625 35.953125 
Q 16.40625 38.203125 18.046875 40.296875 
Q 19.703125 42.40625 22.34375 43.90625 
Q 25 45.40625 28.703125 45.40625 
Q 31.59375 45.40625 33.4375 44.546875 
Q 35.296875 43.703125 36.390625 42.140625 
Q 37.5 40.59375 37.953125 38.5 
Q 38.40625 36.40625 38.40625 33.90625 
L 38.40625 0 
L 46.90625 0 
L 46.90625 32.203125 
Q 46.90625 38.203125 50.5 41.796875 
Q 54.09375 45.40625 60.40625 45.40625 
Q 63.5 45.40625 65.453125 44.5 
Q 67.40625 43.59375 68.5 42.046875 
Q 69.59375 40.5 70 38.390625 
Q 70.40625 36.296875 70.40625 33.90625 
L 70.40625 0 
L 78.90625 0 
L 78.90625 37.90625 
Q 78.90625 41.90625 77.65625 44.75 
Q 76.40625 47.59375 74.15625 49.390625 
Q 71.90625 51.203125 68.75 52.046875 
Q 65.59375 52.90625 61.703125 52.90625 
Q 56.59375 52.90625 52.34375 50.59375 
Q 48.09375 48.296875 45.5 44.09375 
Q 43.90625 48.90625 40 50.90625 
Q 36.09375 52.90625 31.296875 52.90625 
Q 20.40625 52.90625 14.59375 44.09375 
L 14.40625 44.09375 
L 14.40625 51.703125 
z
" id="HelveticaNeue-109"/>
       <path d="M 12.59375 25.40625 
Q 12.59375 29.203125 13.390625 32.796875 
Q 14.203125 36.40625 16 39.203125 
Q 17.796875 42 20.796875 43.703125 
Q 23.796875 45.40625 28.09375 45.40625 
Q 32.5 45.40625 35.59375 43.75 
Q 38.703125 42.09375 40.640625 39.390625 
Q 42.59375 36.703125 43.5 33.140625 
Q 44.40625 29.59375 44.40625 25.796875 
Q 44.40625 22.203125 43.546875 18.703125 
Q 42.703125 15.203125 40.796875 12.453125 
Q 38.90625 9.703125 35.90625 8 
Q 32.90625 6.296875 28.59375 6.296875 
Q 24.5 6.296875 21.453125 7.890625 
Q 18.40625 9.5 16.453125 12.203125 
Q 14.5 14.90625 13.546875 18.34375 
Q 12.59375 21.796875 12.59375 25.40625 
z
M 52.59375 0 
L 52.59375 71.40625 
L 44.09375 71.40625 
L 44.09375 44.796875 
L 43.90625 44.796875 
Q 42.5 47.09375 40.453125 48.640625 
Q 38.40625 50.203125 36.09375 51.140625 
Q 33.796875 52.09375 31.5 52.5 
Q 29.203125 52.90625 27.203125 52.90625 
Q 21.296875 52.90625 16.84375 50.75 
Q 12.40625 48.59375 9.453125 44.9375 
Q 6.5 41.296875 5.046875 36.390625 
Q 3.59375 31.5 3.59375 26 
Q 3.59375 20.5 5.09375 15.59375 
Q 6.59375 10.703125 9.546875 7 
Q 12.5 3.296875 16.953125 1.09375 
Q 21.40625 -1.09375 27.40625 -1.09375 
Q 32.796875 -1.09375 37.296875 0.796875 
Q 41.796875 2.703125 43.90625 7 
L 44.09375 7 
L 44.09375 0 
z
" id="HelveticaNeue-100"/>
       <path d="M 20.40625 -19.703125 
L 26.90625 -19.703125 
Q 19.796875 -8.203125 16.75 3.09375 
Q 13.703125 14.40625 13.703125 27 
Q 13.703125 39.296875 16.703125 50.5 
Q 19.703125 61.703125 26.90625 73.09375 
L 20.40625 73.09375 
Q 12.59375 62.796875 8.640625 50.796875 
Q 4.703125 38.796875 4.703125 27 
Q 4.703125 20.40625 5.796875 14.40625 
Q 6.90625 8.40625 8.953125 2.703125 
Q 11 -3 13.890625 -8.546875 
Q 16.796875 -14.09375 20.40625 -19.703125 
z
" id="HelveticaNeue-40"/>
       <path d="M 50.90625 62.40625 
L 50.90625 69.703125 
L 5 69.703125 
L 5 61.703125 
L 42.203125 61.703125 
Q 36.59375 55.796875 31.75 48.796875 
Q 26.90625 41.796875 23.203125 33.9375 
Q 19.5 26.09375 17.140625 17.546875 
Q 14.796875 9 14.203125 0 
L 23.703125 0 
Q 24.203125 8.296875 26.5 17.09375 
Q 28.796875 25.90625 32.4375 34.203125 
Q 36.09375 42.5 40.796875 49.796875 
Q 45.5 57.09375 50.90625 62.40625 
z
" id="HelveticaNeue-55"/>
       <path d="M 6.90625 0 
L 15.40625 0 
L 15.40625 51.703125 
L 6.90625 51.703125 
z
M 25.5 77 
L 11.40625 60.796875 
L 5 60.796875 
L 14.59375 77 
z
" id="HelveticaNeue-237"/>
       <path d="M -0.90625 -19.703125 
L 5.5 -19.703125 
Q 13.296875 -9.40625 17.25 2.546875 
Q 21.203125 14.5 21.203125 26.296875 
Q 21.203125 32.90625 20.09375 38.90625 
Q 19 44.90625 16.953125 50.65625 
Q 14.90625 56.40625 12 61.953125 
Q 9.09375 67.5 5.5 73.09375 
L -0.90625 73.09375 
Q 6.09375 61.59375 9.140625 50.25 
Q 12.203125 38.90625 12.203125 26.296875 
Q 12.203125 14.09375 9.203125 2.84375 
Q 6.203125 -8.40625 -0.90625 -19.703125 
z
" id="HelveticaNeue-41"/>
      </defs>
      <use xlink:href="#HelveticaNeue-80"/>
      <use x="64.799988" xlink:href="#HelveticaNeue-114"/>
      <use x="96.349976" xlink:href="#HelveticaNeue-111"/>
      <use x="153.749969" xlink:href="#HelveticaNeue-109"/>
      <use x="239.049957" xlink:href="#HelveticaNeue-101"/>
      <use x="292.749954" xlink:href="#HelveticaNeue-100"/>
      <use x="352.049942" xlink:href="#HelveticaNeue-105"/>
      <use x="374.249939" xlink:href="#HelveticaNeue-111"/>
      <use x="431.649933" xlink:href="#HelveticaNeue-32"/>
      <use x="459.449921" xlink:href="#HelveticaNeue-115"/>
      <use x="509.449905" xlink:href="#HelveticaNeue-101"/>
      <use x="563.149902" xlink:href="#HelveticaNeue-109"/>
      <use x="648.44989" xlink:href="#HelveticaNeue-97"/>
      <use x="702.149887" xlink:href="#HelveticaNeue-110"/>
      <use x="757.749878" xlink:href="#HelveticaNeue-97"/>
      <use x="811.449875" xlink:href="#HelveticaNeue-108"/>
      <use x="833.649872" xlink:href="#HelveticaNeue-32"/>
      <use x="861.44986" xlink:href="#HelveticaNeue-40"/>
      <use x="887.349854" xlink:href="#HelveticaNeue-55"/>
      <use x="942.949844" xlink:href="#HelveticaNeue-32"/>
      <use x="970.749832" xlink:href="#HelveticaNeue-100"/>
      <use x="1030.04982" xlink:href="#HelveticaNeue-237"/>
      <use x="1052.249817" xlink:href="#HelveticaNeue-97"/>
      <use x="1105.949814" xlink:href="#HelveticaNeue-115"/>
      <use x="1155.949799" xlink:href="#HelveticaNeue-41"/>
      <use x="1181.849792" xlink:href="#HelveticaNeue-32"/>
     </g>
    </g>
   </g>
  </g>
 </g>
 <defs>
  <clipPath id="ped7d86d618">
   <rect height="235.5" width="387.5" x="62.5" y="27"/>
  </clipPath>
 </defs>
</svg>
