<?xml version="1.0" encoding="utf-8" standalone="no"?>
<!DOCTYPE svg PUBLIC "-//W3C//DTD SVG 1.1//EN"
  "http://www.w3.org/Graphics/SVG/1.1/DTD/svg11.dtd">
<!-- Created with matplotlib (https://matplotlib.org/) -->
<svg height="300pt" version="1.1" viewBox="0 0 500 300" width="500pt" xmlns="http://www.w3.org/2000/svg" xmlns:xlink="http://www.w3.org/1999/xlink">
 <metadata>
  <rdf:RDF xmlns:cc="http://creativecommons.org/ns#" xmlns:dc="http://purl.org/dc/elements/1.1/" xmlns:rdf="http://www.w3.org/1999/02/22-rdf-syntax-ns#">
   <cc:Work>
    <dc:type rdf:resource="http://purl.org/dc/dcmitype/StillImage"/>
    <dc:date>2021-06-21T21:58:51.246081</dc:date>
    <dc:format>image/svg+xml</dc:format>
    <dc:creator>
     <cc:Agent>
      <dc:title>Matplotlib v3.3.4, https://matplotlib.org/</dc:title>
     </cc:Agent>
    </dc:creator>
   </cc:Work>
  </rdf:RDF>
 </metadata>
 <defs>
  <style type="text/css">*{stroke-linecap:butt;stroke-linejoin:round;}</style>
 </defs>
 <g id="figure_1">
  <g id="patch_1">
   <path d="M 0 300 
L 500 300 
L 500 0 
L 0 0 
z
" style="fill:#ffffff;"/>
  </g>
  <g id="axes_1">
   <g id="patch_2">
    <path d="M 62.5 262.5 
L 450 262.5 
L 450 27 
L 62.5 27 
z
" style="fill:#ffffff;"/>
   </g>
   <g id="matplotlib.axis_1">
    <g id="xtick_1">
     <g id="line2d_1">
      <defs>
       <path d="M 0 0 
L 0 3.5 
" id="mc63c757c5e" style="stroke:#555555;stroke-width:0.8;"/>
      </defs>
      <g>
       <use style="fill:#555555;stroke:#555555;stroke-width:0.8;" x="62.5" xlink:href="#mc63c757c5e" y="262.5"/>
      </g>
     </g>
    </g>
    <g id="xtick_2">
     <g id="line2d_2">
      <g>
       <use style="fill:#555555;stroke:#555555;stroke-width:0.8;" x="140.526018" xlink:href="#mc63c757c5e" y="262.5"/>
      </g>
     </g>
     <g id="text_1">
      <!-- Jul -->
      <g style="fill:#555555;" transform="translate(134.040862 276.640625)scale(0.1 -0.1)">
       <defs>
        <path d="M 44.09375 17.796875 
L 44.09375 71.40625 
L 34.59375 71.40625 
L 34.59375 19.203125 
Q 34.59375 13.296875 32.140625 9.796875 
Q 29.703125 6.296875 23.203125 6.296875 
Q 19.703125 6.296875 17.453125 7.34375 
Q 15.203125 8.40625 13.953125 10.296875 
Q 12.703125 12.203125 12.203125 14.796875 
Q 11.703125 17.40625 11.703125 20.5 
L 11.703125 23.5 
L 2.203125 23.5 
L 2.203125 19.09375 
Q 2.203125 8.90625 7.59375 3.65625 
Q 13 -1.59375 23 -1.59375 
Q 29 -1.59375 33.046875 0.046875 
Q 37.09375 1.703125 39.546875 4.453125 
Q 42 7.203125 43.046875 10.703125 
Q 44.09375 14.203125 44.09375 17.796875 
z
" id="HelveticaNeue-74"/>
        <path d="M 49.203125 0 
L 49.203125 51.703125 
L 40.703125 51.703125 
L 40.703125 22.5 
Q 40.703125 19 39.75 16.046875 
Q 38.796875 13.09375 36.890625 10.890625 
Q 35 8.703125 32.140625 7.5 
Q 29.296875 6.296875 25.40625 6.296875 
Q 20.5 6.296875 17.703125 9.09375 
Q 14.90625 11.90625 14.90625 16.703125 
L 14.90625 51.703125 
L 6.40625 51.703125 
L 6.40625 17.703125 
Q 6.40625 13.5 7.25 10.046875 
Q 8.09375 6.59375 10.1875 4.09375 
Q 12.296875 1.59375 15.6875 0.25 
Q 19.09375 -1.09375 24.203125 -1.09375 
Q 29.90625 -1.09375 34.09375 1.15625 
Q 38.296875 3.40625 41 8.203125 
L 41.203125 8.203125 
L 41.203125 0 
z
" id="HelveticaNeue-117"/>
        <path d="M 6.90625 71.40625 
L 6.90625 0 
L 15.40625 0 
L 15.40625 71.40625 
z
" id="HelveticaNeue-108"/>
       </defs>
       <use xlink:href="#HelveticaNeue-74"/>
       <use x="51.899994" xlink:href="#HelveticaNeue-117"/>
       <use x="107.499985" xlink:href="#HelveticaNeue-108"/>
      </g>
     </g>
    </g>
    <g id="xtick_3">
     <g id="line2d_3">
      <g>
       <use style="fill:#555555;stroke:#555555;stroke-width:0.8;" x="221.182127" xlink:href="#mc63c757c5e" y="262.5"/>
      </g>
     </g>
     <g id="text_2">
      <!-- Oct -->
      <g style="fill:#555555;" transform="translate(213.12197 276.640625)scale(0.1 -0.1)">
       <defs>
        <path d="M 13.296875 35.703125 
Q 13.296875 41.09375 14.6875 46.34375 
Q 16.09375 51.59375 19.09375 55.796875 
Q 22.09375 60 26.796875 62.546875 
Q 31.5 65.09375 38 65.09375 
Q 44.5 65.09375 49.203125 62.546875 
Q 53.90625 60 56.90625 55.796875 
Q 59.90625 51.59375 61.296875 46.34375 
Q 62.703125 41.09375 62.703125 35.703125 
Q 62.703125 30.296875 61.296875 25.046875 
Q 59.90625 19.796875 56.90625 15.59375 
Q 53.90625 11.40625 49.203125 8.84375 
Q 44.5 6.296875 38 6.296875 
Q 31.5 6.296875 26.796875 8.84375 
Q 22.09375 11.40625 19.09375 15.59375 
Q 16.09375 19.796875 14.6875 25.046875 
Q 13.296875 30.296875 13.296875 35.703125 
z
M 3.796875 35.703125 
Q 3.796875 28.40625 5.9375 21.65625 
Q 8.09375 14.90625 12.390625 9.703125 
Q 16.703125 4.5 23.09375 1.453125 
Q 29.5 -1.59375 38 -1.59375 
Q 46.5 -1.59375 52.890625 1.453125 
Q 59.296875 4.5 63.59375 9.703125 
Q 67.90625 14.90625 70.046875 21.65625 
Q 72.203125 28.40625 72.203125 35.703125 
Q 72.203125 43 70.046875 49.75 
Q 67.90625 56.5 63.59375 61.703125 
Q 59.296875 66.90625 52.890625 70 
Q 46.5 73.09375 38 73.09375 
Q 29.5 73.09375 23.09375 70 
Q 16.703125 66.90625 12.390625 61.703125 
Q 8.09375 56.5 5.9375 49.75 
Q 3.796875 43 3.796875 35.703125 
z
" id="HelveticaNeue-79"/>
        <path d="M 41.5 35.09375 
L 50.296875 35.09375 
Q 49.796875 39.703125 47.890625 43.046875 
Q 46 46.40625 43.046875 48.59375 
Q 40.09375 50.796875 36.25 51.84375 
Q 32.40625 52.90625 28 52.90625 
Q 21.90625 52.90625 17.296875 50.75 
Q 12.703125 48.59375 9.640625 44.84375 
Q 6.59375 41.09375 5.09375 36.046875 
Q 3.59375 31 3.59375 25.203125 
Q 3.59375 19.40625 5.140625 14.546875 
Q 6.703125 9.703125 9.75 6.203125 
Q 12.796875 2.703125 17.34375 0.796875 
Q 21.90625 -1.09375 27.796875 -1.09375 
Q 37.703125 -1.09375 43.453125 4.09375 
Q 49.203125 9.296875 50.59375 18.90625 
L 41.90625 18.90625 
Q 41.09375 12.90625 37.546875 9.59375 
Q 34 6.296875 27.703125 6.296875 
Q 23.703125 6.296875 20.796875 7.890625 
Q 17.90625 9.5 16.09375 12.140625 
Q 14.296875 14.796875 13.4375 18.1875 
Q 12.59375 21.59375 12.59375 25.203125 
Q 12.59375 29.09375 13.390625 32.75 
Q 14.203125 36.40625 16.046875 39.203125 
Q 17.90625 42 21 43.703125 
Q 24.09375 45.40625 28.703125 45.40625 
Q 34.09375 45.40625 37.296875 42.703125 
Q 40.5 40 41.5 35.09375 
z
" id="HelveticaNeue-99"/>
        <path d="M 18.203125 51.703125 
L 18.203125 67.203125 
L 9.703125 67.203125 
L 9.703125 51.703125 
L 0.90625 51.703125 
L 0.90625 44.203125 
L 9.703125 44.203125 
L 9.703125 11.296875 
Q 9.703125 7.703125 10.390625 5.5 
Q 11.09375 3.296875 12.546875 2.09375 
Q 14 0.90625 16.34375 0.453125 
Q 18.703125 0 22 0 
L 28.5 0 
L 28.5 7.5 
L 24.59375 7.5 
Q 22.59375 7.5 21.34375 7.640625 
Q 20.09375 7.796875 19.390625 8.296875 
Q 18.703125 8.796875 18.453125 9.6875 
Q 18.203125 10.59375 18.203125 12.09375 
L 18.203125 44.203125 
L 28.5 44.203125 
L 28.5 51.703125 
z
" id="HelveticaNeue-116"/>
       </defs>
       <use xlink:href="#HelveticaNeue-79"/>
       <use x="75.999985" xlink:href="#HelveticaNeue-99"/>
       <use x="129.699982" xlink:href="#HelveticaNeue-116"/>
      </g>
     </g>
    </g>
    <g id="xtick_4">
     <g id="line2d_4">
      <g>
       <use style="fill:#555555;stroke:#555555;stroke-width:0.8;" x="301.838235" xlink:href="#mc63c757c5e" y="262.5"/>
      </g>
     </g>
     <g id="text_3">
      <!-- Jan -->
      <g style="fill:#555555;" transform="translate(293.778079 276.640625)scale(0.1 -0.1)">
       <defs>
        <path d="M 52.203125 0.203125 
Q 50 -1.09375 46.09375 -1.09375 
Q 42.796875 -1.09375 40.84375 0.75 
Q 38.90625 2.59375 38.90625 6.796875 
Q 35.40625 2.59375 30.75 0.75 
Q 26.09375 -1.09375 20.703125 -1.09375 
Q 17.203125 -1.09375 14.046875 -0.296875 
Q 10.90625 0.5 8.59375 2.203125 
Q 6.296875 3.90625 4.9375 6.65625 
Q 3.59375 9.40625 3.59375 13.296875 
Q 3.59375 17.703125 5.09375 20.5 
Q 6.59375 23.296875 9.046875 25.046875 
Q 11.5 26.796875 14.640625 27.6875 
Q 17.796875 28.59375 21.09375 29.203125 
Q 24.59375 29.90625 27.75 30.25 
Q 30.90625 30.59375 33.296875 31.25 
Q 35.703125 31.90625 37.09375 33.15625 
Q 38.5 34.40625 38.5 36.796875 
Q 38.5 39.59375 37.453125 41.296875 
Q 36.40625 43 34.75 43.890625 
Q 33.09375 44.796875 31.046875 45.09375 
Q 29 45.40625 27 45.40625 
Q 21.59375 45.40625 18 43.34375 
Q 14.40625 41.296875 14.09375 35.59375 
L 5.59375 35.59375 
Q 5.796875 40.40625 7.59375 43.703125 
Q 9.40625 47 12.40625 49.046875 
Q 15.40625 51.09375 19.25 52 
Q 23.09375 52.90625 27.5 52.90625 
Q 31 52.90625 34.453125 52.40625 
Q 37.90625 51.90625 40.703125 50.34375 
Q 43.5 48.796875 45.203125 46 
Q 46.90625 43.203125 46.90625 38.703125 
L 46.90625 12.09375 
Q 46.90625 9.09375 47.25 7.6875 
Q 47.59375 6.296875 49.59375 6.296875 
Q 50.703125 6.296875 52.203125 6.796875 
z
M 38.40625 26.703125 
Q 36.796875 25.5 34.1875 24.953125 
Q 31.59375 24.40625 28.75 24.046875 
Q 25.90625 23.703125 23 23.25 
Q 20.09375 22.796875 17.796875 21.796875 
Q 15.5 20.796875 14.046875 18.9375 
Q 12.59375 17.09375 12.59375 13.90625 
Q 12.59375 11.796875 13.4375 10.34375 
Q 14.296875 8.90625 15.640625 8 
Q 17 7.09375 18.796875 6.6875 
Q 20.59375 6.296875 22.59375 6.296875 
Q 26.796875 6.296875 29.796875 7.4375 
Q 32.796875 8.59375 34.6875 10.34375 
Q 36.59375 12.09375 37.5 14.140625 
Q 38.40625 16.203125 38.40625 18 
z
" id="HelveticaNeue-97"/>
        <path d="M 6.40625 51.703125 
L 6.40625 0 
L 14.90625 0 
L 14.90625 29.203125 
Q 14.90625 32.703125 15.84375 35.640625 
Q 16.796875 38.59375 18.6875 40.796875 
Q 20.59375 43 23.4375 44.203125 
Q 26.296875 45.40625 30.203125 45.40625 
Q 35.09375 45.40625 37.890625 42.59375 
Q 40.703125 39.796875 40.703125 35 
L 40.703125 0 
L 49.203125 0 
L 49.203125 34 
Q 49.203125 38.203125 48.34375 41.640625 
Q 47.5 45.09375 45.390625 47.59375 
Q 43.296875 50.09375 39.890625 51.5 
Q 36.5 52.90625 31.40625 52.90625 
Q 19.90625 52.90625 14.59375 43.5 
L 14.40625 43.5 
L 14.40625 51.703125 
z
" id="HelveticaNeue-110"/>
       </defs>
       <use xlink:href="#HelveticaNeue-74"/>
       <use x="51.899994" xlink:href="#HelveticaNeue-97"/>
       <use x="105.599991" xlink:href="#HelveticaNeue-110"/>
      </g>
      <!-- 2021 -->
      <g style="fill:#555555;" transform="translate(290.719485 287.179688)scale(0.1 -0.1)">
       <defs>
        <path d="M 4.40625 45.796875 
L 12.90625 45.796875 
Q 12.796875 49 13.546875 52.140625 
Q 14.296875 55.296875 16 57.796875 
Q 17.703125 60.296875 20.34375 61.84375 
Q 23 63.40625 26.703125 63.40625 
Q 29.5 63.40625 32 62.5 
Q 34.5 61.59375 36.34375 59.890625 
Q 38.203125 58.203125 39.296875 55.84375 
Q 40.40625 53.5 40.40625 50.59375 
Q 40.40625 46.90625 39.25 44.09375 
Q 38.09375 41.296875 35.84375 38.890625 
Q 33.59375 36.5 30.1875 34.140625 
Q 26.796875 31.796875 22.296875 29 
Q 18.59375 26.796875 15.1875 24.296875 
Q 11.796875 21.796875 9.09375 18.5 
Q 6.40625 15.203125 4.65625 10.75 
Q 2.90625 6.296875 2.40625 0 
L 48.703125 0 
L 48.703125 7.5 
L 12.296875 7.5 
Q 12.90625 10.796875 14.84375 13.34375 
Q 16.796875 15.90625 19.546875 18.09375 
Q 22.296875 20.296875 25.59375 22.25 
Q 28.90625 24.203125 32.203125 26.203125 
Q 35.5 28.296875 38.59375 30.59375 
Q 41.703125 32.90625 44.09375 35.75 
Q 46.5 38.59375 47.953125 42.1875 
Q 49.40625 45.796875 49.40625 50.5 
Q 49.40625 55.5 47.65625 59.296875 
Q 45.90625 63.09375 42.90625 65.640625 
Q 39.90625 68.203125 35.84375 69.546875 
Q 31.796875 70.90625 27.203125 70.90625 
Q 21.59375 70.90625 17.1875 69 
Q 12.796875 67.09375 9.84375 63.75 
Q 6.90625 60.40625 5.5 55.796875 
Q 4.09375 51.203125 4.40625 45.796875 
z
" id="HelveticaNeue-50"/>
        <path d="M 13.203125 34.90625 
Q 13.203125 37.5 13.25 40.640625 
Q 13.296875 43.796875 13.75 46.9375 
Q 14.203125 50.09375 15.046875 53.09375 
Q 15.90625 56.09375 17.546875 58.34375 
Q 19.203125 60.59375 21.703125 62 
Q 24.203125 63.40625 27.796875 63.40625 
Q 31.40625 63.40625 33.90625 62 
Q 36.40625 60.59375 38.046875 58.34375 
Q 39.703125 56.09375 40.546875 53.09375 
Q 41.40625 50.09375 41.84375 46.9375 
Q 42.296875 43.796875 42.34375 40.640625 
Q 42.40625 37.5 42.40625 34.90625 
Q 42.40625 30.90625 42.15625 25.953125 
Q 41.90625 21 40.546875 16.640625 
Q 39.203125 12.296875 36.203125 9.296875 
Q 33.203125 6.296875 27.796875 6.296875 
Q 22.40625 6.296875 19.40625 9.296875 
Q 16.40625 12.296875 15.046875 16.640625 
Q 13.703125 21 13.453125 25.953125 
Q 13.203125 30.90625 13.203125 34.90625 
z
M 4.203125 34.796875 
Q 4.203125 30.90625 4.390625 26.703125 
Q 4.59375 22.5 5.390625 18.5 
Q 6.203125 14.5 7.703125 10.953125 
Q 9.203125 7.40625 11.796875 4.703125 
Q 14.40625 2 18.34375 0.453125 
Q 22.296875 -1.09375 27.796875 -1.09375 
Q 33.40625 -1.09375 37.296875 0.453125 
Q 41.203125 2 43.796875 4.703125 
Q 46.40625 7.40625 47.90625 10.953125 
Q 49.40625 14.5 50.203125 18.5 
Q 51 22.5 51.203125 26.703125 
Q 51.40625 30.90625 51.40625 34.796875 
Q 51.40625 38.703125 51.203125 42.890625 
Q 51 47.09375 50.203125 51.09375 
Q 49.40625 55.09375 47.90625 58.6875 
Q 46.40625 62.296875 43.796875 65 
Q 41.203125 67.703125 37.25 69.296875 
Q 33.296875 70.90625 27.796875 70.90625 
Q 22.296875 70.90625 18.34375 69.296875 
Q 14.40625 67.703125 11.796875 65 
Q 9.203125 62.296875 7.703125 58.6875 
Q 6.203125 55.09375 5.390625 51.09375 
Q 4.59375 47.09375 4.390625 42.890625 
Q 4.203125 38.703125 4.203125 34.796875 
z
" id="HelveticaNeue-48"/>
        <path d="M 35.59375 0 
L 35.59375 70.90625 
L 29.09375 70.90625 
Q 28.40625 66.90625 26.5 64.296875 
Q 24.59375 61.703125 21.84375 60.203125 
Q 19.09375 58.703125 15.6875 58.140625 
Q 12.296875 57.59375 8.703125 57.59375 
L 8.703125 50.796875 
L 27.09375 50.796875 
L 27.09375 0 
z
" id="HelveticaNeue-49"/>
       </defs>
       <use xlink:href="#HelveticaNeue-50"/>
       <use x="55.599991" xlink:href="#HelveticaNeue-48"/>
       <use x="111.199982" xlink:href="#HelveticaNeue-50"/>
       <use x="166.799973" xlink:href="#HelveticaNeue-49"/>
      </g>
     </g>
    </g>
    <g id="xtick_5">
     <g id="line2d_5">
      <g>
       <use style="fill:#555555;stroke:#555555;stroke-width:0.8;" x="380.74095" xlink:href="#mc63c757c5e" y="262.5"/>
      </g>
     </g>
     <g id="text_4">
      <!-- Apr -->
      <g style="fill:#555555;" transform="translate(372.871419 276.640625)scale(0.1 -0.1)">
       <defs>
        <path d="M 20.09375 29.5 
L 32.203125 62.796875 
L 32.40625 62.796875 
L 44.296875 29.5 
z
M 27.203125 71.40625 
L -0.59375 0 
L 9.09375 0 
L 17.09375 21.5 
L 47.296875 21.5 
L 55.09375 0 
L 65.59375 0 
L 37.703125 71.40625 
z
" id="HelveticaNeue-65"/>
        <path d="M 6.703125 51.703125 
L 6.703125 -19.703125 
L 15.203125 -19.703125 
L 15.203125 6.90625 
L 15.40625 6.90625 
Q 16.796875 4.59375 18.84375 3.046875 
Q 20.90625 1.5 23.203125 0.59375 
Q 25.5 -0.296875 27.84375 -0.6875 
Q 30.203125 -1.09375 32.09375 -1.09375 
Q 38 -1.09375 42.453125 1 
Q 46.90625 3.09375 49.84375 6.75 
Q 52.796875 10.40625 54.25 15.296875 
Q 55.703125 20.203125 55.703125 25.703125 
Q 55.703125 31.203125 54.203125 36.09375 
Q 52.703125 41 49.75 44.75 
Q 46.796875 48.5 42.34375 50.703125 
Q 37.90625 52.90625 31.90625 52.90625 
Q 26.5 52.90625 22 50.953125 
Q 17.5 49 15.40625 44.703125 
L 15.203125 44.703125 
L 15.203125 51.703125 
z
M 46.703125 26.296875 
Q 46.703125 22.5 45.890625 18.890625 
Q 45.09375 15.296875 43.296875 12.5 
Q 41.5 9.703125 38.546875 8 
Q 35.59375 6.296875 31.203125 6.296875 
Q 26.796875 6.296875 23.6875 7.9375 
Q 20.59375 9.59375 18.640625 12.296875 
Q 16.703125 15 15.796875 18.546875 
Q 14.90625 22.09375 14.90625 25.90625 
Q 14.90625 29.5 15.75 33 
Q 16.59375 36.5 18.5 39.25 
Q 20.40625 42 23.40625 43.703125 
Q 26.40625 45.40625 30.703125 45.40625 
Q 34.796875 45.40625 37.84375 43.796875 
Q 40.90625 42.203125 42.84375 39.5 
Q 44.796875 36.796875 45.75 33.34375 
Q 46.703125 29.90625 46.703125 26.296875 
z
" id="HelveticaNeue-112"/>
        <path d="M 6.09375 51.703125 
L 6.09375 0 
L 14.59375 0 
L 14.59375 23 
Q 14.59375 28 15.59375 31.84375 
Q 16.59375 35.703125 18.796875 38.390625 
Q 21 41.09375 24.59375 42.5 
Q 28.203125 43.90625 33.296875 43.90625 
L 33.296875 52.90625 
Q 26.40625 53.09375 21.90625 50.09375 
Q 17.40625 47.09375 14.296875 40.796875 
L 14.09375 40.796875 
L 14.09375 51.703125 
z
" id="HelveticaNeue-114"/>
       </defs>
       <use xlink:href="#HelveticaNeue-65"/>
       <use x="64.799988" xlink:href="#HelveticaNeue-112"/>
       <use x="124.099976" xlink:href="#HelveticaNeue-114"/>
      </g>
     </g>
    </g>
    <g id="xtick_6">
     <g id="line2d_6">
      <g>
       <use style="fill:#555555;stroke:#555555;stroke-width:0.8;" x="450" xlink:href="#mc63c757c5e" y="262.5"/>
      </g>
     </g>
    </g>
    <g id="xtick_7">
     <g id="line2d_7">
      <defs>
       <path d="M 0 0 
L 0 2 
" id="m6013741bcf" style="stroke:#555555;stroke-width:0.6;"/>
      </defs>
      <g>
       <use style="fill:#555555;stroke:#555555;stroke-width:0.6;" x="87.047511" xlink:href="#m6013741bcf" y="262.5"/>
      </g>
     </g>
    </g>
    <g id="xtick_8">
     <g id="line2d_8">
      <g>
       <use style="fill:#555555;stroke:#555555;stroke-width:0.6;" x="114.225113" xlink:href="#m6013741bcf" y="262.5"/>
      </g>
     </g>
    </g>
    <g id="xtick_9">
     <g id="line2d_9">
      <g>
       <use style="fill:#555555;stroke:#555555;stroke-width:0.6;" x="167.70362" xlink:href="#m6013741bcf" y="262.5"/>
      </g>
     </g>
    </g>
    <g id="xtick_10">
     <g id="line2d_10">
      <g>
       <use style="fill:#555555;stroke:#555555;stroke-width:0.6;" x="194.881222" xlink:href="#m6013741bcf" y="262.5"/>
      </g>
     </g>
    </g>
    <g id="xtick_11">
     <g id="line2d_11">
      <g>
       <use style="fill:#555555;stroke:#555555;stroke-width:0.6;" x="248.359729" xlink:href="#m6013741bcf" y="262.5"/>
      </g>
     </g>
    </g>
    <g id="xtick_12">
     <g id="line2d_12">
      <g>
       <use style="fill:#555555;stroke:#555555;stroke-width:0.6;" x="274.660633" xlink:href="#m6013741bcf" y="262.5"/>
      </g>
     </g>
    </g>
    <g id="xtick_13">
     <g id="line2d_13">
      <g>
       <use style="fill:#555555;stroke:#555555;stroke-width:0.6;" x="329.015837" xlink:href="#m6013741bcf" y="262.5"/>
      </g>
     </g>
    </g>
    <g id="xtick_14">
     <g id="line2d_14">
      <g>
       <use style="fill:#555555;stroke:#555555;stroke-width:0.6;" x="353.563348" xlink:href="#m6013741bcf" y="262.5"/>
      </g>
     </g>
    </g>
    <g id="xtick_15">
     <g id="line2d_15">
      <g>
       <use style="fill:#555555;stroke:#555555;stroke-width:0.6;" x="407.041855" xlink:href="#m6013741bcf" y="262.5"/>
      </g>
     </g>
    </g>
    <g id="xtick_16">
     <g id="line2d_16">
      <g>
       <use style="fill:#555555;stroke:#555555;stroke-width:0.6;" x="434.219457" xlink:href="#m6013741bcf" y="262.5"/>
      </g>
     </g>
    </g>
    <g id="text_5">
     <!-- fecha -->
     <g style="fill:#555555;" transform="translate(243.935156 300.290625)scale(0.1 -0.1)">
      <defs>
       <path d="M 9.90625 44.203125 
L 9.90625 0 
L 18.40625 0 
L 18.40625 44.203125 
L 28.40625 44.203125 
L 28.40625 51.703125 
L 18.40625 51.703125 
L 18.40625 58.90625 
Q 18.40625 62.296875 20.09375 63.5 
Q 21.796875 64.703125 24.90625 64.703125 
Q 26 64.703125 27.296875 64.546875 
Q 28.59375 64.40625 29.703125 64 
L 29.703125 71.40625 
Q 28.5 71.796875 26.953125 72 
Q 25.40625 72.203125 24.203125 72.203125 
Q 17.203125 72.203125 13.546875 68.953125 
Q 9.90625 65.703125 9.90625 59.40625 
L 9.90625 51.703125 
L 1.203125 51.703125 
L 1.203125 44.203125 
z
" id="HelveticaNeue-102"/>
       <path d="M 42.296875 30.796875 
L 12.59375 30.796875 
Q 12.796875 33.796875 13.890625 36.4375 
Q 15 39.09375 16.890625 41.09375 
Q 18.796875 43.09375 21.4375 44.25 
Q 24.09375 45.40625 27.40625 45.40625 
Q 30.59375 45.40625 33.25 44.25 
Q 35.90625 43.09375 37.84375 41.140625 
Q 39.796875 39.203125 40.9375 36.5 
Q 42.09375 33.796875 42.296875 30.796875 
z
M 50.5 16.40625 
L 42.09375 16.40625 
Q 41 11.296875 37.546875 8.796875 
Q 34.09375 6.296875 28.703125 6.296875 
Q 24.5 6.296875 21.390625 7.6875 
Q 18.296875 9.09375 16.296875 11.4375 
Q 14.296875 13.796875 13.390625 16.84375 
Q 12.5 19.90625 12.59375 23.296875 
L 51.296875 23.296875 
Q 51.5 28 50.453125 33.203125 
Q 49.40625 38.40625 46.65625 42.796875 
Q 43.90625 47.203125 39.34375 50.046875 
Q 34.796875 52.90625 27.90625 52.90625 
Q 22.59375 52.90625 18.140625 50.90625 
Q 13.703125 48.90625 10.453125 45.296875 
Q 7.203125 41.703125 5.390625 36.796875 
Q 3.59375 31.90625 3.59375 26 
Q 3.796875 20.09375 5.34375 15.09375 
Q 6.90625 10.09375 10 6.5 
Q 13.09375 2.90625 17.640625 0.90625 
Q 22.203125 -1.09375 28.40625 -1.09375 
Q 37.203125 -1.09375 43 3.296875 
Q 48.796875 7.703125 50.5 16.40625 
z
" id="HelveticaNeue-101"/>
       <path d="M 6.40625 71.40625 
L 6.40625 0 
L 14.90625 0 
L 14.90625 29.203125 
Q 14.90625 32.703125 15.84375 35.640625 
Q 16.796875 38.59375 18.6875 40.796875 
Q 20.59375 43 23.4375 44.203125 
Q 26.296875 45.40625 30.203125 45.40625 
Q 35.09375 45.40625 37.890625 42.59375 
Q 40.703125 39.796875 40.703125 35 
L 40.703125 0 
L 49.203125 0 
L 49.203125 34 
Q 49.203125 38.203125 48.34375 41.640625 
Q 47.5 45.09375 45.390625 47.59375 
Q 43.296875 50.09375 39.890625 51.5 
Q 36.5 52.90625 31.40625 52.90625 
Q 29.09375 52.90625 26.640625 52.40625 
Q 24.203125 51.90625 21.953125 50.84375 
Q 19.703125 49.796875 17.890625 48.140625 
Q 16.09375 46.5 15.09375 44.09375 
L 14.90625 44.09375 
L 14.90625 71.40625 
z
" id="HelveticaNeue-104"/>
      </defs>
      <use xlink:href="#HelveticaNeue-102"/>
      <use x="29.599991" xlink:href="#HelveticaNeue-101"/>
      <use x="83.299988" xlink:href="#HelveticaNeue-99"/>
      <use x="136.999985" xlink:href="#HelveticaNeue-104"/>
      <use x="192.599976" xlink:href="#HelveticaNeue-97"/>
     </g>
    </g>
   </g>
   <g id="matplotlib.axis_2">
    <g id="ytick_1">
     <g id="line2d_17">
      <defs>
       <path d="M 0 0 
L -3.5 0 
" id="m3189ecd648" style="stroke:#555555;stroke-width:0.8;"/>
      </defs>
      <g>
       <use style="fill:#555555;stroke:#555555;stroke-width:0.8;" x="62.5" xlink:href="#m3189ecd648" y="251.795455"/>
      </g>
     </g>
     <g id="text_6">
      <!-- 0 -->
      <g style="fill:#555555;" transform="translate(49.940625 255.365767)scale(0.1 -0.1)">
       <use xlink:href="#HelveticaNeue-48"/>
      </g>
     </g>
    </g>
    <g id="ytick_2">
     <g id="line2d_18">
      <g>
       <use style="fill:#555555;stroke:#555555;stroke-width:0.8;" x="62.5" xlink:href="#m3189ecd648" y="215.385436"/>
      </g>
     </g>
     <g id="text_7">
      <!-- 50 -->
      <g style="fill:#555555;" transform="translate(44.38125 218.955748)scale(0.1 -0.1)">
       <defs>
        <path d="M 47 62.203125 
L 47 69.703125 
L 12 69.703125 
L 5.40625 32.90625 
L 12.703125 32.5 
Q 15.203125 35.5 18.453125 37.34375 
Q 21.703125 39.203125 25.90625 39.203125 
Q 29.5 39.203125 32.453125 38 
Q 35.40625 36.796875 37.5 34.640625 
Q 39.59375 32.5 40.75 29.546875 
Q 41.90625 26.59375 41.90625 23.09375 
Q 41.90625 18.90625 40.703125 15.75 
Q 39.5 12.59375 37.453125 10.5 
Q 35.40625 8.40625 32.65625 7.34375 
Q 29.90625 6.296875 26.90625 6.296875 
Q 23.703125 6.296875 21.046875 7.25 
Q 18.40625 8.203125 16.453125 9.953125 
Q 14.5 11.703125 13.34375 14.046875 
Q 12.203125 16.40625 12 19.09375 
L 3.5 19.09375 
Q 3.59375 14.296875 5.390625 10.5 
Q 7.203125 6.703125 10.296875 4.140625 
Q 13.40625 1.59375 17.453125 0.25 
Q 21.5 -1.09375 26.09375 -1.09375 
Q 32.296875 -1.09375 36.9375 0.84375 
Q 41.59375 2.796875 44.6875 6.09375 
Q 47.796875 9.40625 49.34375 13.65625 
Q 50.90625 17.90625 50.90625 22.40625 
Q 50.90625 28.5 49.09375 33.046875 
Q 47.296875 37.59375 44.1875 40.640625 
Q 41.09375 43.703125 36.890625 45.203125 
Q 32.703125 46.703125 28 46.703125 
Q 24.40625 46.703125 20.75 45.453125 
Q 17.09375 44.203125 14.796875 41.59375 
L 14.59375 41.796875 
L 18.40625 62.203125 
z
" id="HelveticaNeue-53"/>
       </defs>
       <use xlink:href="#HelveticaNeue-53"/>
       <use x="55.599991" xlink:href="#HelveticaNeue-48"/>
      </g>
     </g>
    </g>
    <g id="ytick_3">
     <g id="line2d_19">
      <g>
       <use style="fill:#555555;stroke:#555555;stroke-width:0.8;" x="62.5" xlink:href="#m3189ecd648" y="178.975417"/>
      </g>
     </g>
     <g id="text_8">
      <!-- 100 -->
      <g style="fill:#555555;" transform="translate(38.821875 182.54573)scale(0.1 -0.1)">
       <use xlink:href="#HelveticaNeue-49"/>
       <use x="55.599991" xlink:href="#HelveticaNeue-48"/>
       <use x="111.199982" xlink:href="#HelveticaNeue-48"/>
      </g>
     </g>
    </g>
    <g id="ytick_4">
     <g id="line2d_20">
      <g>
       <use style="fill:#555555;stroke:#555555;stroke-width:0.8;" x="62.5" xlink:href="#m3189ecd648" y="142.565399"/>
      </g>
     </g>
     <g id="text_9">
      <!-- 150 -->
      <g style="fill:#555555;" transform="translate(38.821875 146.135711)scale(0.1 -0.1)">
       <use xlink:href="#HelveticaNeue-49"/>
       <use x="55.599991" xlink:href="#HelveticaNeue-53"/>
       <use x="111.199982" xlink:href="#HelveticaNeue-48"/>
      </g>
     </g>
    </g>
    <g id="ytick_5">
     <g id="line2d_21">
      <g>
       <use style="fill:#555555;stroke:#555555;stroke-width:0.8;" x="62.5" xlink:href="#m3189ecd648" y="106.15538"/>
      </g>
     </g>
     <g id="text_10">
      <!-- 200 -->
      <g style="fill:#555555;" transform="translate(38.821875 109.725693)scale(0.1 -0.1)">
       <use xlink:href="#HelveticaNeue-50"/>
       <use x="55.599991" xlink:href="#HelveticaNeue-48"/>
       <use x="111.199982" xlink:href="#HelveticaNeue-48"/>
      </g>
     </g>
    </g>
    <g id="ytick_6">
     <g id="line2d_22">
      <g>
       <use style="fill:#555555;stroke:#555555;stroke-width:0.8;" x="62.5" xlink:href="#m3189ecd648" y="69.745362"/>
      </g>
     </g>
     <g id="text_11">
      <!-- 250 -->
      <g style="fill:#555555;" transform="translate(38.821875 73.315674)scale(0.1 -0.1)">
       <use xlink:href="#HelveticaNeue-50"/>
       <use x="55.599991" xlink:href="#HelveticaNeue-53"/>
       <use x="111.199982" xlink:href="#HelveticaNeue-48"/>
      </g>
     </g>
    </g>
    <g id="ytick_7">
     <g id="line2d_23">
      <g>
       <use style="fill:#555555;stroke:#555555;stroke-width:0.8;" x="62.5" xlink:href="#m3189ecd648" y="33.335343"/>
      </g>
     </g>
     <g id="text_12">
      <!-- 300 -->
      <g style="fill:#555555;" transform="translate(38.821875 36.905656)scale(0.1 -0.1)">
       <defs>
        <path d="M 21.796875 40.5 
L 21.796875 33.296875 
Q 24.203125 33.59375 26.90625 33.59375 
Q 30.09375 33.59375 32.84375 32.75 
Q 35.59375 31.90625 37.59375 30.15625 
Q 39.59375 28.40625 40.796875 25.84375 
Q 42 23.296875 42 20 
Q 42 16.796875 40.75 14.25 
Q 39.5 11.703125 37.390625 9.953125 
Q 35.296875 8.203125 32.5 7.25 
Q 29.703125 6.296875 26.59375 6.296875 
Q 19.296875 6.296875 15.5 10.640625 
Q 11.703125 15 11.5 21.90625 
L 3 21.90625 
Q 2.90625 16.40625 4.546875 12.09375 
Q 6.203125 7.796875 9.296875 4.84375 
Q 12.40625 1.90625 16.796875 0.40625 
Q 21.203125 -1.09375 26.59375 -1.09375 
Q 31.59375 -1.09375 36.046875 0.25 
Q 40.5 1.59375 43.796875 4.296875 
Q 47.09375 7 49.046875 11.046875 
Q 51 15.09375 51 20.40625 
Q 51 26.796875 47.84375 31.5 
Q 44.703125 36.203125 38.203125 37.59375 
L 38.203125 37.796875 
Q 42.40625 39.703125 45.203125 43.390625 
Q 48 47.09375 48 51.90625 
Q 48 56.796875 46.34375 60.390625 
Q 44.703125 64 41.796875 66.296875 
Q 38.90625 68.59375 34.953125 69.75 
Q 31 70.90625 26.40625 70.90625 
Q 21.09375 70.90625 17.046875 69.203125 
Q 13 67.5 10.296875 64.5 
Q 7.59375 61.5 6.140625 57.296875 
Q 4.703125 53.09375 4.5 48 
L 13 48 
Q 13 51.09375 13.796875 53.890625 
Q 14.59375 56.703125 16.25 58.796875 
Q 17.90625 60.90625 20.453125 62.15625 
Q 23 63.40625 26.40625 63.40625 
Q 31.796875 63.40625 35.390625 60.546875 
Q 39 57.703125 39 52 
Q 39 49.203125 37.890625 47 
Q 36.796875 44.796875 34.9375 43.34375 
Q 33.09375 41.90625 30.640625 41.15625 
Q 28.203125 40.40625 25.5 40.40625 
L 23.703125 40.40625 
Q 23.203125 40.40625 22.703125 40.40625 
Q 22.296875 40.40625 21.796875 40.5 
z
" id="HelveticaNeue-51"/>
       </defs>
       <use xlink:href="#HelveticaNeue-51"/>
       <use x="55.599991" xlink:href="#HelveticaNeue-48"/>
       <use x="111.199982" xlink:href="#HelveticaNeue-48"/>
      </g>
     </g>
    </g>
   </g>
   <g id="line2d_24">
    <path clip-path="url(#pc289f3a55a)" d="M 63.376697 251.067254 
L 64.253394 251.795455 
L 65.13009 248.882653 
L 66.006787 251.795455 
L 66.883484 249.610853 
L 69.513575 251.795455 
L 71.266968 250.339054 
L 72.143665 251.795455 
L 73.020362 251.795455 
L 73.897059 250.339054 
L 74.773756 247.426252 
L 75.650452 250.339054 
L 76.527149 251.067254 
L 77.403846 248.154453 
L 78.280543 251.067254 
L 79.15724 251.795455 
L 80.033937 248.882653 
L 80.910633 251.067254 
L 81.78733 251.795455 
L 82.664027 250.339054 
L 83.540724 249.610853 
L 84.417421 250.339054 
L 85.294118 250.339054 
L 86.170814 248.154453 
L 87.047511 250.339054 
L 87.924208 250.339054 
L 88.800905 249.610853 
L 89.677602 249.610853 
L 90.554299 251.067254 
L 91.430995 251.067254 
L 92.307692 251.795455 
L 93.184389 248.154453 
L 94.061086 251.795455 
L 94.937783 249.610853 
L 95.81448 248.882653 
L 96.691176 250.339054 
L 97.567873 251.067254 
L 99.321267 249.610853 
L 100.197964 251.067254 
L 101.074661 251.067254 
L 101.951357 251.795455 
L 102.828054 245.241651 
L 103.704751 247.426252 
L 105.458145 248.882653 
L 106.334842 250.339054 
L 108.088235 248.882653 
L 108.964932 251.795455 
L 109.841629 247.426252 
L 110.718326 246.698052 
L 111.595023 243.78525 
L 112.471719 248.882653 
L 113.348416 250.339054 
L 114.225113 249.610853 
L 115.978507 246.698052 
L 116.855204 248.882653 
L 117.7319 247.426252 
L 118.608597 250.339054 
L 119.485294 247.426252 
L 120.361991 247.426252 
L 121.238688 244.513451 
L 122.115385 246.698052 
L 122.992081 248.154453 
L 123.868778 248.154453 
L 124.745475 245.969852 
L 125.622172 248.882653 
L 127.375566 247.426252 
L 128.252262 245.241651 
L 129.128959 245.241651 
L 130.005656 244.513451 
L 130.882353 242.32885 
L 131.75905 236.503247 
L 132.635747 242.32885 
L 133.512443 244.513451 
L 134.38914 235.046846 
L 135.265837 241.600649 
L 136.142534 242.32885 
L 137.019231 233.590445 
L 137.895928 231.405844 
L 138.772624 243.05705 
L 139.649321 237.959647 
L 140.526018 239.416048 
L 141.402715 234.318646 
L 142.279412 239.416048 
L 143.156109 238.687848 
L 144.032805 243.78525 
L 144.909502 232.134045 
L 145.786199 214.657236 
L 146.662896 234.318646 
L 147.539593 215.385436 
L 148.41629 223.39564 
L 149.292986 232.862245 
L 150.169683 233.590445 
L 151.04638 219.026438 
L 151.923077 229.221243 
L 152.799774 211.744434 
L 153.676471 223.39564 
L 154.553167 225.580241 
L 155.429864 217.570037 
L 156.306561 217.570037 
L 157.183258 230.677644 
L 158.059955 197.908627 
L 158.936652 192.083024 
L 159.813348 216.113636 
L 160.690045 166.596011 
L 161.566742 141.108998 
L 162.443439 179.703618 
L 163.320136 196.452226 
L 164.196833 196.452226 
L 165.073529 211.744434 
L 165.950226 202.277829 
L 166.826923 189.898423 
L 167.70362 184.07282 
L 168.580317 214.657236 
L 169.457014 208.103432 
L 170.33371 177.519017 
L 172.087104 208.831633 
L 172.963801 203.73423 
L 173.840498 206.647032 
L 174.717195 122.903989 
L 175.593891 157.857607 
L 176.470588 186.257421 
L 177.347285 158.585807 
L 178.223982 186.257421 
L 179.100679 180.431818 
L 179.977376 186.985622 
L 180.854072 214.657236 
L 181.730769 180.431818 
L 182.607466 178.975417 
L 183.484163 220.482839 
L 184.36086 213.929035 
L 185.237557 211.016234 
L 186.114253 224.852041 
L 186.99095 215.385436 
L 187.867647 219.754638 
L 188.744344 220.482839 
L 190.497738 223.39564 
L 191.374434 227.036642 
L 192.251131 224.12384 
L 193.127828 229.221243 
L 194.004525 37.704545 
L 194.881222 209.559833 
L 195.757919 227.036642 
L 196.634615 231.405844 
L 197.511312 228.493043 
L 198.388009 226.308442 
L 199.264706 194.267625 
L 200.141403 224.12384 
L 201.0181 217.570037 
L 201.894796 227.764842 
L 202.771493 172.421614 
L 204.524887 202.277829 
L 206.278281 227.036642 
L 207.154977 232.862245 
L 208.031674 226.308442 
L 208.908371 216.113636 
L 209.785068 225.580241 
L 210.661765 208.831633 
L 211.538462 235.775046 
L 212.415158 221.939239 
L 213.291855 230.677644 
L 214.168552 227.764842 
L 215.045249 226.308442 
L 215.921946 232.862245 
L 216.798643 235.046846 
L 217.675339 240.872449 
L 218.552036 227.036642 
L 219.428733 232.134045 
L 220.30543 232.134045 
L 221.182127 227.764842 
L 222.058824 219.026438 
L 222.93552 232.134045 
L 223.812217 224.852041 
L 224.688914 227.036642 
L 225.565611 235.046846 
L 226.442308 223.39564 
L 227.319005 227.764842 
L 228.195701 227.036642 
L 229.072398 229.949443 
L 229.949095 230.677644 
L 230.825792 243.78525 
L 231.702489 229.221243 
L 232.579186 232.134045 
L 233.455882 225.580241 
L 234.332579 224.12384 
L 235.209276 232.134045 
L 236.085973 241.600649 
L 236.96267 219.754638 
L 237.839367 220.482839 
L 238.716063 224.852041 
L 239.59276 224.12384 
L 240.469457 226.308442 
L 241.346154 215.385436 
L 242.222851 238.687848 
L 243.099548 213.200835 
L 243.976244 220.482839 
L 244.852941 223.39564 
L 245.729638 224.12384 
L 246.606335 233.590445 
L 247.483032 224.12384 
L 248.359729 229.949443 
L 249.236425 215.385436 
L 250.113122 224.12384 
L 250.989819 227.036642 
L 251.866516 228.493043 
L 252.743213 213.200835 
L 253.61991 224.12384 
L 254.496606 221.211039 
L 255.373303 235.046846 
L 256.25 221.211039 
L 257.126697 225.580241 
L 258.003394 220.482839 
L 258.88009 227.764842 
L 259.756787 233.590445 
L 260.633484 236.503247 
L 261.510181 232.862245 
L 262.386878 224.852041 
L 263.263575 227.764842 
L 264.140271 213.200835 
L 265.016968 223.39564 
L 265.893665 220.482839 
L 266.770362 216.113636 
L 267.647059 216.113636 
L 268.523756 212.472635 
L 269.400452 219.754638 
L 271.153846 192.083024 
L 272.030543 213.929035 
L 272.90724 228.493043 
L 273.783937 225.580241 
L 274.660633 226.308442 
L 275.53733 221.211039 
L 276.414027 221.939239 
L 277.290724 205.918831 
L 278.167421 211.016234 
L 279.044118 206.647032 
L 279.920814 216.113636 
L 280.797511 208.103432 
L 281.674208 197.908627 
L 282.550905 199.365028 
L 283.427602 208.831633 
L 284.304299 195.724026 
L 285.180995 211.744434 
L 286.934389 178.975417 
L 287.811086 157.857607 
L 288.687783 194.267625 
L 289.56448 179.703618 
L 290.441176 202.277829 
L 291.317873 209.559833 
L 292.19457 200.093228 
L 293.071267 177.519017 
L 293.947964 171.693414 
L 294.824661 168.780612 
L 295.701357 229.221243 
L 296.578054 195.724026 
L 297.454751 186.257421 
L 298.331448 181.160019 
L 299.208145 183.34462 
L 300.084842 128.729592 
L 300.961538 194.995826 
L 301.838235 230.677644 
L 302.714932 209.559833 
L 303.591629 161.498609 
L 304.468326 189.170223 
L 305.345023 130.914193 
L 306.221719 168.052412 
L 307.098416 165.13961 
L 307.975113 162.955009 
L 308.85181 182.616419 
L 309.728507 211.744434 
L 310.605204 211.744434 
L 311.4819 133.826994 
L 312.358597 136.739796 
L 313.235294 166.596011 
L 314.111991 150.575603 
L 314.988688 176.790816 
L 315.865385 183.34462 
L 316.742081 186.257421 
L 317.618778 168.052412 
L 318.495475 184.07282 
L 319.372172 163.68321 
L 320.248869 192.083024 
L 321.125566 200.821429 
L 322.002262 200.093228 
L 322.878959 171.693414 
L 323.755656 188.442022 
L 324.632353 200.093228 
L 325.50905 199.365028 
L 326.385747 208.831633 
L 327.262443 213.929035 
L 328.13914 215.385436 
L 329.015837 217.570037 
L 329.892534 223.39564 
L 330.769231 213.200835 
L 331.645928 216.841837 
L 332.522624 230.677644 
L 333.399321 232.134045 
L 334.276018 227.036642 
L 335.152715 229.949443 
L 336.029412 211.744434 
L 336.906109 232.862245 
L 337.782805 224.12384 
L 338.659502 227.036642 
L 339.536199 230.677644 
L 340.412896 242.32885 
L 341.289593 243.05705 
L 342.16629 225.580241 
L 343.042986 229.221243 
L 343.919683 243.78525 
L 344.79638 235.046846 
L 345.673077 237.959647 
L 346.549774 243.05705 
L 347.426471 239.416048 
L 348.303167 240.144249 
L 349.179864 237.231447 
L 350.056561 242.32885 
L 350.933258 232.862245 
L 351.809955 242.32885 
L 352.686652 246.698052 
L 353.563348 227.036642 
L 354.440045 234.318646 
L 356.193439 241.600649 
L 357.070136 244.513451 
L 357.946833 240.872449 
L 358.823529 245.969852 
L 359.700226 236.503247 
L 360.576923 244.513451 
L 361.45362 232.134045 
L 362.330317 240.872449 
L 363.207014 237.231447 
L 364.08371 241.600649 
L 364.960407 241.600649 
L 365.837104 229.949443 
L 366.713801 222.66744 
L 367.590498 232.862245 
L 368.467195 232.134045 
L 369.343891 234.318646 
L 370.220588 239.416048 
L 371.097285 237.959647 
L 371.973982 243.05705 
L 372.850679 241.600649 
L 374.604072 225.580241 
L 375.480769 230.677644 
L 376.357466 228.493043 
L 377.234163 240.144249 
L 378.11086 223.39564 
L 378.987557 219.026438 
L 379.864253 220.482839 
L 380.74095 232.862245 
L 381.617647 227.764842 
L 382.494344 220.482839 
L 383.371041 223.39564 
L 384.247738 224.12384 
L 385.124434 191.354824 
L 386.001131 211.744434 
L 386.877828 203.00603 
L 387.754525 203.73423 
L 388.631222 212.472635 
L 389.507919 200.093228 
L 390.384615 192.811224 
L 391.261312 194.995826 
L 392.138009 165.867811 
L 393.014706 180.431818 
L 393.891403 191.354824 
L 394.7681 199.365028 
L 395.644796 194.995826 
L 396.521493 149.119202 
L 397.39819 160.770408 
L 398.274887 183.34462 
L 399.151584 180.431818 
L 400.028281 164.41141 
L 400.904977 190.626623 
L 401.781674 199.365028 
L 402.658371 198.636827 
L 403.535068 161.498609 
L 404.411765 205.190631 
L 405.288462 152.760204 
L 406.165158 155.673006 
L 407.041855 192.083024 
L 407.918552 200.821429 
L 408.795249 175.334416 
L 409.671946 143.293599 
L 410.548643 184.07282 
L 411.425339 173.149814 
L 412.302036 166.596011 
L 413.178733 181.160019 
L 414.05543 206.647032 
L 414.932127 169.508813 
L 415.808824 181.888219 
L 416.68552 175.334416 
L 417.562217 197.180427 
L 418.438914 174.606215 
L 419.315611 178.247217 
L 420.192308 215.385436 
L 421.069005 202.277829 
L 421.945701 170.237013 
L 422.822398 165.13961 
L 423.699095 185.529221 
L 424.575792 160.042208 
L 425.452489 170.965213 
L 426.329186 135.283395 
L 427.205882 144.75 
L 428.082579 142.565399 
L 428.959276 136.739796 
L 429.835973 135.283395 
L 430.71267 160.042208 
L 431.589367 150.575603 
L 432.466063 104.69898 
L 433.34276 154.216605 
L 434.219457 146.206401 
L 435.096154 85.03757 
L 435.972851 83.581169 
L 436.849548 125.81679 
L 437.726244 116.350186 
L 438.602941 113.437384 
L 439.479638 169.508813 
L 440.356335 138.196197 
L 441.233032 146.934601 
L 442.109729 210.288033 
L 442.986425 187.713822 
L 443.863122 183.34462 
L 444.739819 108.339981 
L 445.616516 124.36039 
L 446.493213 177.519017 
L 447.36991 168.052412 
L 448.246606 162.226809 
L 449.123303 209.559833 
L 450 240.872449 
L 450 240.872449 
" style="fill:none;stroke:#000000;stroke-dasharray:1.5,2.475;stroke-dashoffset:0;stroke-opacity:0.5;stroke-width:1.5;"/>
   </g>
   <g id="line2d_25">
    <path clip-path="url(#pc289f3a55a)" d="M 62.5 251.067254 
L 63.376697 251.067254 
L 64.253394 250.339054 
L 67.760181 250.339054 
L 68.636878 251.067254 
L 72.143665 251.067254 
L 73.020362 250.339054 
L 74.773756 250.339054 
L 75.650452 249.610853 
L 77.403846 249.610853 
L 78.280543 250.339054 
L 84.417421 250.339054 
L 85.294118 249.610853 
L 87.924208 249.610853 
L 88.800905 250.339054 
L 100.197964 250.339054 
L 101.074661 249.610853 
L 101.951357 249.610853 
L 102.828054 248.882653 
L 104.581448 248.882653 
L 105.458145 248.154453 
L 106.334842 249.610853 
L 108.088235 249.610853 
L 109.841629 248.154453 
L 114.225113 248.154453 
L 115.10181 248.882653 
L 115.978507 248.882653 
L 116.855204 248.154453 
L 117.7319 248.154453 
L 118.608597 247.426252 
L 121.238688 247.426252 
L 122.115385 246.698052 
L 122.992081 247.426252 
L 126.498869 247.426252 
L 128.252262 245.969852 
L 130.005656 243.05705 
L 132.635747 240.872449 
L 133.512443 240.872449 
L 134.38914 239.416048 
L 135.265837 238.687848 
L 136.142534 238.687848 
L 137.019231 237.959647 
L 137.895928 237.959647 
L 138.772624 237.231447 
L 139.649321 237.231447 
L 140.526018 237.959647 
L 141.402715 239.416048 
L 142.279412 237.959647 
L 143.156109 235.775046 
L 144.032805 234.318646 
L 145.786199 228.493043 
L 147.539593 225.580241 
L 148.41629 224.852041 
L 149.292986 227.036642 
L 150.169683 224.852041 
L 151.04638 224.852041 
L 151.923077 224.12384 
L 152.799774 222.66744 
L 153.676471 220.482839 
L 154.553167 221.939239 
L 156.306561 216.113636 
L 157.183258 213.929035 
L 158.059955 206.647032 
L 158.936652 196.452226 
L 159.813348 188.442022 
L 160.690045 182.616419 
L 161.566742 181.160019 
L 162.443439 184.07282 
L 163.320136 185.529221 
L 165.073529 195.724026 
L 165.950226 199.365028 
L 166.826923 200.093228 
L 167.70362 198.636827 
L 168.580317 196.452226 
L 169.457014 197.180427 
L 170.33371 198.636827 
L 171.210407 200.821429 
L 172.087104 191.354824 
L 172.963801 184.80102 
L 173.840498 181.888219 
L 174.717195 176.062616 
L 175.593891 171.693414 
L 176.470588 169.508813 
L 177.347285 170.237013 
L 178.223982 181.160019 
L 179.100679 184.80102 
L 179.977376 185.529221 
L 180.854072 192.083024 
L 181.730769 195.724026 
L 182.607466 200.093228 
L 183.484163 205.190631 
L 184.36086 208.103432 
L 185.237557 213.200835 
L 186.114253 217.570037 
L 186.99095 218.298237 
L 188.744344 221.211039 
L 189.621041 221.939239 
L 190.497738 223.39564 
L 191.374434 204.46243 
L 192.251131 197.180427 
L 193.127828 192.811224 
L 194.004525 191.354824 
L 194.881222 193.539425 
L 195.757919 198.636827 
L 196.634615 201.549629 
L 197.511312 221.211039 
L 198.388009 221.211039 
L 199.264706 219.754638 
L 201.0181 208.831633 
L 201.894796 204.46243 
L 203.64819 204.46243 
L 205.401584 210.288033 
L 206.278281 216.841837 
L 207.154977 221.939239 
L 208.031674 222.66744 
L 208.908371 224.12384 
L 209.785068 223.39564 
L 210.661765 223.39564 
L 211.538462 224.12384 
L 213.291855 227.036642 
L 214.168552 229.221243 
L 215.045249 230.677644 
L 217.675339 232.862245 
L 218.552036 232.862245 
L 219.428733 230.677644 
L 220.30543 229.949443 
L 221.182127 227.764842 
L 222.93552 227.764842 
L 223.812217 227.036642 
L 225.565611 228.493043 
L 226.442308 227.764842 
L 227.319005 228.493043 
L 228.195701 229.949443 
L 229.072398 230.677644 
L 229.949095 232.134045 
L 230.825792 232.134045 
L 232.579186 230.677644 
L 233.455882 231.405844 
L 234.332579 229.221243 
L 237.839367 226.308442 
L 238.716063 224.12384 
L 239.59276 224.12384 
L 240.469457 223.39564 
L 242.222851 223.39564 
L 243.099548 222.66744 
L 243.976244 223.39564 
L 244.852941 224.852041 
L 246.606335 224.852041 
L 247.483032 225.580241 
L 249.236425 225.580241 
L 250.113122 223.39564 
L 250.989819 223.39564 
L 251.866516 222.66744 
L 252.743213 224.12384 
L 254.496606 224.12384 
L 255.373303 223.39564 
L 258.003394 227.764842 
L 260.633484 229.949443 
L 261.510181 229.221243 
L 262.386878 227.764842 
L 263.263575 224.852041 
L 265.893665 218.298237 
L 266.770362 217.570037 
L 267.647059 216.113636 
L 268.523756 212.472635 
L 269.400452 211.016234 
L 270.277149 211.744434 
L 271.153846 213.200835 
L 272.030543 215.385436 
L 272.90724 216.841837 
L 273.783937 219.754638 
L 274.660633 221.211039 
L 275.53733 220.482839 
L 276.414027 216.841837 
L 278.167421 212.472635 
L 279.044118 209.559833 
L 279.920814 207.375232 
L 280.797511 206.647032 
L 281.674208 204.46243 
L 282.550905 204.46243 
L 283.427602 202.277829 
L 284.304299 199.365028 
L 285.180995 194.267625 
L 286.057692 191.354824 
L 286.934389 186.985622 
L 287.811086 186.257421 
L 288.687783 186.257421 
L 289.56448 189.170223 
L 290.441176 190.626623 
L 291.317873 192.811224 
L 292.19457 188.442022 
L 293.071267 191.354824 
L 293.947964 190.626623 
L 294.824661 189.170223 
L 295.701357 189.170223 
L 296.578054 189.898423 
L 297.454751 184.80102 
L 298.331448 183.34462 
L 299.208145 182.616419 
L 300.084842 184.80102 
L 300.961538 185.529221 
L 301.838235 187.713822 
L 302.714932 183.34462 
L 303.591629 184.07282 
L 304.468326 176.790816 
L 305.345023 167.324212 
L 306.221719 164.41141 
L 307.975113 176.062616 
L 308.85181 178.975417 
L 309.728507 176.062616 
L 310.605204 173.878015 
L 311.4819 169.508813 
L 313.235294 162.226809 
L 314.111991 162.226809 
L 315.865385 174.606215 
L 316.742081 174.606215 
L 317.618778 178.975417 
L 318.495475 181.160019 
L 319.372172 184.07282 
L 320.248869 184.07282 
L 321.125566 186.985622 
L 322.002262 189.170223 
L 322.878959 192.083024 
L 324.632353 196.452226 
L 325.50905 200.093228 
L 326.385747 206.647032 
L 327.262443 211.016234 
L 328.13914 213.929035 
L 332.522624 224.852041 
L 333.399321 224.12384 
L 334.276018 226.308442 
L 335.152715 226.308442 
L 336.029412 225.580241 
L 336.906109 225.580241 
L 338.659502 229.949443 
L 339.536199 232.862245 
L 340.412896 232.862245 
L 341.289593 235.046846 
L 342.16629 235.775046 
L 343.042986 235.775046 
L 343.919683 236.503247 
L 344.79638 236.503247 
L 345.673077 238.687848 
L 346.549774 239.416048 
L 350.056561 239.416048 
L 351.809955 237.959647 
L 352.686652 237.959647 
L 353.563348 237.231447 
L 354.440045 238.687848 
L 355.316742 238.687848 
L 356.193439 239.416048 
L 357.070136 240.872449 
L 357.946833 241.600649 
L 358.823529 240.872449 
L 359.700226 240.872449 
L 360.576923 239.416048 
L 361.45362 239.416048 
L 362.330317 238.687848 
L 363.207014 238.687848 
L 364.08371 235.775046 
L 364.960407 235.046846 
L 365.837104 233.590445 
L 367.590498 232.134045 
L 368.467195 232.862245 
L 370.220588 237.231447 
L 371.097285 237.959647 
L 372.850679 236.503247 
L 373.727376 234.318646 
L 374.604072 233.590445 
L 376.357466 229.221243 
L 377.234163 227.764842 
L 378.11086 227.764842 
L 378.987557 227.036642 
L 380.74095 224.12384 
L 381.617647 224.12384 
L 382.494344 221.211039 
L 383.371041 219.026438 
L 384.247738 214.657236 
L 385.124434 211.016234 
L 386.001131 208.831633 
L 387.754525 203.00603 
L 388.631222 203.00603 
L 389.507919 197.180427 
L 391.261312 189.898423 
L 392.138009 187.713822 
L 393.014706 187.713822 
L 393.891403 183.34462 
L 394.7681 179.703618 
L 395.644796 179.703618 
L 396.521493 178.247217 
L 397.39819 174.606215 
L 398.274887 173.878015 
L 399.151584 175.334416 
L 400.028281 181.888219 
L 400.904977 183.34462 
L 401.781674 186.257421 
L 402.658371 184.07282 
L 403.535068 181.160019 
L 404.411765 179.703618 
L 405.288462 178.975417 
L 407.041855 176.062616 
L 407.918552 173.878015 
L 408.795249 175.334416 
L 409.671946 175.334416 
L 410.548643 173.149814 
L 412.302036 176.062616 
L 413.178733 180.431818 
L 414.05543 180.431818 
L 414.932127 182.616419 
L 415.808824 183.34462 
L 416.68552 182.616419 
L 417.562217 184.07282 
L 418.438914 188.442022 
L 419.315611 188.442022 
L 420.192308 187.713822 
L 421.069005 185.529221 
L 422.822398 179.703618 
L 423.699095 170.237013 
L 424.575792 162.955009 
L 426.329186 152.760204 
L 427.205882 146.206401 
L 428.959276 143.293599 
L 429.835973 140.380798 
L 430.71267 141.108998 
L 431.589367 141.108998 
L 432.466063 135.283395 
L 433.34276 127.273191 
L 434.219457 120.719388 
L 435.096154 115.621985 
L 435.972851 114.893785 
L 436.849548 116.350186 
L 437.726244 119.262987 
L 438.602941 128.729592 
L 439.479638 144.0218 
L 441.233032 165.13961 
L 442.109729 167.324212 
L 442.986425 162.226809 
L 443.863122 162.955009 
L 444.739819 161.498609 
L 445.616516 155.673006 
L 446.493213 159.314007 
L 447.36991 169.508813 
L 448.246606 182.616419 
L 449.123303 193.539425 
L 450 200.093228 
L 450 200.093228 
" style="fill:none;stroke:#b3220f;stroke-linecap:square;stroke-width:1.5;"/>
   </g>
   <g id="patch_3">
    <path d="M 62.5 262.5 
L 62.5 27 
" style="fill:none;stroke:#555555;stroke-linecap:square;stroke-linejoin:miter;"/>
   </g>
   <g id="patch_4">
    <path d="M 62.5 262.5 
L 450 262.5 
" style="fill:none;stroke:#555555;stroke-linecap:square;stroke-linejoin:miter;"/>
   </g>
   <g id="text_13">
    <!-- Barrios Unidos | Casos nuevos: 2021-06-19 -->
    <g style="fill:#555555;" transform="translate(119.591406 17)scale(0.14 -0.14)">
     <defs>
      <path d="M 17.296875 40.703125 
L 17.296875 63.40625 
L 36.296875 63.40625 
Q 39.40625 63.40625 42.15625 63.046875 
Q 44.90625 62.703125 47 61.5 
Q 49.09375 60.296875 50.296875 58.09375 
Q 51.5 55.90625 51.5 52.09375 
Q 51.5 46.40625 47.953125 43.546875 
Q 44.40625 40.703125 36.296875 40.703125 
z
M 7.796875 71.40625 
L 7.796875 0 
L 42.296875 0 
Q 47.59375 0 51.640625 1.75 
Q 55.703125 3.5 58.453125 6.34375 
Q 61.203125 9.203125 62.59375 12.890625 
Q 64 16.59375 64 20.5 
Q 64 27.09375 60.5 31.6875 
Q 57 36.296875 50.40625 37.703125 
L 50.40625 37.90625 
Q 55.5 39.90625 58.25 44.046875 
Q 61 48.203125 61 53.90625 
Q 61 59.296875 58.546875 63 
Q 56.09375 66.703125 52.59375 68.796875 
Q 51 69.796875 48.75 70.296875 
Q 46.5 70.796875 43.890625 71.046875 
Q 41.296875 71.296875 38.640625 71.34375 
Q 36 71.40625 33.703125 71.40625 
z
M 17.296875 8 
L 17.296875 32.703125 
L 39 32.703125 
Q 42 32.703125 44.796875 32.140625 
Q 47.59375 31.59375 49.75 30.25 
Q 51.90625 28.90625 53.203125 26.59375 
Q 54.5 24.296875 54.5 20.796875 
Q 54.5 14.796875 50.953125 11.390625 
Q 47.40625 8 41.09375 8 
z
" id="HelveticaNeue-66"/>
      <path d="M 15.40625 61 
L 15.40625 71.40625 
L 6.90625 71.40625 
L 6.90625 61 
z
M 6.90625 51.703125 
L 6.90625 0 
L 15.40625 0 
L 15.40625 51.703125 
z
" id="HelveticaNeue-105"/>
      <path d="M 12.59375 25.796875 
Q 12.59375 30.5 13.84375 34.140625 
Q 15.09375 37.796875 17.296875 40.296875 
Q 19.5 42.796875 22.453125 44.09375 
Q 25.40625 45.40625 28.703125 45.40625 
Q 32 45.40625 34.953125 44.09375 
Q 37.90625 42.796875 40.09375 40.296875 
Q 42.296875 37.796875 43.546875 34.140625 
Q 44.796875 30.5 44.796875 25.796875 
Q 44.796875 21.09375 43.546875 17.4375 
Q 42.296875 13.796875 40.09375 11.34375 
Q 37.90625 8.90625 34.953125 7.59375 
Q 32 6.296875 28.703125 6.296875 
Q 25.40625 6.296875 22.453125 7.59375 
Q 19.5 8.90625 17.296875 11.34375 
Q 15.09375 13.796875 13.84375 17.4375 
Q 12.59375 21.09375 12.59375 25.796875 
z
M 3.59375 25.796875 
Q 3.59375 20.09375 5.1875 15.1875 
Q 6.796875 10.296875 10 6.640625 
Q 13.203125 3 17.890625 0.953125 
Q 22.59375 -1.09375 28.703125 -1.09375 
Q 34.90625 -1.09375 39.546875 0.953125 
Q 44.203125 3 47.390625 6.640625 
Q 50.59375 10.296875 52.1875 15.1875 
Q 53.796875 20.09375 53.796875 25.796875 
Q 53.796875 31.5 52.1875 36.453125 
Q 50.59375 41.40625 47.390625 45.046875 
Q 44.203125 48.703125 39.546875 50.796875 
Q 34.90625 52.90625 28.703125 52.90625 
Q 22.59375 52.90625 17.890625 50.796875 
Q 13.203125 48.703125 10 45.046875 
Q 6.796875 41.40625 5.1875 36.453125 
Q 3.59375 31.5 3.59375 25.796875 
z
" id="HelveticaNeue-111"/>
      <path d="M 11.59375 16.296875 
L 3.09375 16.296875 
Q 3.296875 11.5 5.09375 8.140625 
Q 6.90625 4.796875 9.90625 2.75 
Q 12.90625 0.703125 16.796875 -0.1875 
Q 20.703125 -1.09375 25 -1.09375 
Q 28.90625 -1.09375 32.84375 -0.34375 
Q 36.796875 0.40625 39.9375 2.296875 
Q 43.09375 4.203125 45.046875 7.296875 
Q 47 10.40625 47 15.09375 
Q 47 18.796875 45.546875 21.296875 
Q 44.09375 23.796875 41.75 25.4375 
Q 39.40625 27.09375 36.34375 28.09375 
Q 33.296875 29.09375 30.09375 29.796875 
Q 27.09375 30.5 24.09375 31.140625 
Q 21.09375 31.796875 18.6875 32.75 
Q 16.296875 33.703125 14.75 35.140625 
Q 13.203125 36.59375 13.203125 38.796875 
Q 13.203125 40.796875 14.203125 42.046875 
Q 15.203125 43.296875 16.796875 44.046875 
Q 18.40625 44.796875 20.34375 45.09375 
Q 22.296875 45.40625 24.203125 45.40625 
Q 26.296875 45.40625 28.34375 44.953125 
Q 30.40625 44.5 32.09375 43.5 
Q 33.796875 42.5 34.890625 40.84375 
Q 36 39.203125 36.203125 36.703125 
L 44.703125 36.703125 
Q 44.40625 41.40625 42.703125 44.546875 
Q 41 47.703125 38.140625 49.546875 
Q 35.296875 51.40625 31.59375 52.15625 
Q 27.90625 52.90625 23.5 52.90625 
Q 20.09375 52.90625 16.640625 52.046875 
Q 13.203125 51.203125 10.453125 49.453125 
Q 7.703125 47.703125 5.953125 44.890625 
Q 4.203125 42.09375 4.203125 38.203125 
Q 4.203125 33.203125 6.703125 30.390625 
Q 9.203125 27.59375 12.953125 26.046875 
Q 16.703125 24.5 21.09375 23.640625 
Q 25.5 22.796875 29.25 21.75 
Q 33 20.703125 35.5 19 
Q 38 17.296875 38 14 
Q 38 11.59375 36.796875 10.046875 
Q 35.59375 8.5 33.75 7.703125 
Q 31.90625 6.90625 29.703125 6.59375 
Q 27.5 6.296875 25.5 6.296875 
Q 22.90625 6.296875 20.453125 6.796875 
Q 18 7.296875 16.046875 8.4375 
Q 14.09375 9.59375 12.890625 11.546875 
Q 11.703125 13.5 11.59375 16.296875 
z
" id="HelveticaNeue-115"/>
      <path id="HelveticaNeue-32"/>
      <path d="M 64.796875 25.796875 
L 64.796875 71.40625 
L 55.296875 71.40625 
L 55.296875 25.796875 
Q 55.296875 16.203125 50.546875 11.25 
Q 45.796875 6.296875 36.703125 6.296875 
Q 27.09375 6.296875 22 11.25 
Q 16.90625 16.203125 16.90625 25.796875 
L 16.90625 71.40625 
L 7.40625 71.40625 
L 7.40625 25.796875 
Q 7.40625 11.5 15.15625 4.953125 
Q 22.90625 -1.59375 36.703125 -1.59375 
Q 50.203125 -1.59375 57.5 5.25 
Q 64.796875 12.09375 64.796875 25.796875 
z
" id="HelveticaNeue-85"/>
      <path d="M 12.59375 25.40625 
Q 12.59375 29.203125 13.390625 32.796875 
Q 14.203125 36.40625 16 39.203125 
Q 17.796875 42 20.796875 43.703125 
Q 23.796875 45.40625 28.09375 45.40625 
Q 32.5 45.40625 35.59375 43.75 
Q 38.703125 42.09375 40.640625 39.390625 
Q 42.59375 36.703125 43.5 33.140625 
Q 44.40625 29.59375 44.40625 25.796875 
Q 44.40625 22.203125 43.546875 18.703125 
Q 42.703125 15.203125 40.796875 12.453125 
Q 38.90625 9.703125 35.90625 8 
Q 32.90625 6.296875 28.59375 6.296875 
Q 24.5 6.296875 21.453125 7.890625 
Q 18.40625 9.5 16.453125 12.203125 
Q 14.5 14.90625 13.546875 18.34375 
Q 12.59375 21.796875 12.59375 25.40625 
z
M 52.59375 0 
L 52.59375 71.40625 
L 44.09375 71.40625 
L 44.09375 44.796875 
L 43.90625 44.796875 
Q 42.5 47.09375 40.453125 48.640625 
Q 38.40625 50.203125 36.09375 51.140625 
Q 33.796875 52.09375 31.5 52.5 
Q 29.203125 52.90625 27.203125 52.90625 
Q 21.296875 52.90625 16.84375 50.75 
Q 12.40625 48.59375 9.453125 44.9375 
Q 6.5 41.296875 5.046875 36.390625 
Q 3.59375 31.5 3.59375 26 
Q 3.59375 20.5 5.09375 15.59375 
Q 6.59375 10.703125 9.546875 7 
Q 12.5 3.296875 16.953125 1.09375 
Q 21.40625 -1.09375 27.40625 -1.09375 
Q 32.796875 -1.09375 37.296875 0.796875 
Q 41.796875 2.703125 43.90625 7 
L 44.09375 7 
L 44.09375 0 
z
" id="HelveticaNeue-100"/>
      <path d="M 7.703125 78.59375 
L 7.703125 -21.296875 
L 14.5 -21.296875 
L 14.5 78.59375 
z
" id="HelveticaNeue-124"/>
      <path d="M 58 49.90625 
L 67.5 49.90625 
Q 66.703125 55.59375 64.09375 59.9375 
Q 61.5 64.296875 57.59375 67.1875 
Q 53.703125 70.09375 48.703125 71.59375 
Q 43.703125 73.09375 38.09375 73.09375 
Q 29.90625 73.09375 23.546875 70.140625 
Q 17.203125 67.203125 12.953125 62.09375 
Q 8.703125 57 6.5 50.140625 
Q 4.296875 43.296875 4.296875 35.5 
Q 4.296875 27.703125 6.34375 20.890625 
Q 8.40625 14.09375 12.5 9.09375 
Q 16.59375 4.09375 22.796875 1.25 
Q 29 -1.59375 37.296875 -1.59375 
Q 51 -1.59375 58.890625 5.90625 
Q 66.796875 13.40625 68.203125 26.90625 
L 58.703125 26.90625 
Q 58.40625 22.5 56.90625 18.703125 
Q 55.40625 14.90625 52.75 12.15625 
Q 50.09375 9.40625 46.4375 7.84375 
Q 42.796875 6.296875 38.09375 6.296875 
Q 31.703125 6.296875 27.09375 8.6875 
Q 22.5 11.09375 19.546875 15.140625 
Q 16.59375 19.203125 15.1875 24.640625 
Q 13.796875 30.09375 13.796875 36.203125 
Q 13.796875 41.796875 15.1875 47 
Q 16.59375 52.203125 19.546875 56.25 
Q 22.5 60.296875 27.046875 62.6875 
Q 31.59375 65.09375 38 65.09375 
Q 45.5 65.09375 50.953125 61.296875 
Q 56.40625 57.5 58 49.90625 
z
" id="HelveticaNeue-67"/>
      <path d="M 29.703125 0 
L 48.59375 51.703125 
L 39.703125 51.703125 
L 25.59375 8.59375 
L 25.40625 8.59375 
L 10.90625 51.703125 
L 1.40625 51.703125 
L 20.59375 0 
z
" id="HelveticaNeue-118"/>
      <path d="M 19.40625 40.59375 
L 19.40625 51.703125 
L 8.296875 51.703125 
L 8.296875 40.59375 
z
M 8.296875 11.09375 
L 8.296875 0 
L 19.40625 0 
L 19.40625 11.09375 
z
" id="HelveticaNeue-58"/>
      <path d="M 5 31.796875 
L 5 23.796875 
L 33.90625 23.796875 
L 33.90625 31.796875 
z
" id="HelveticaNeue-45"/>
      <path d="M 41.40625 52.796875 
L 49.90625 52.796875 
Q 49.09375 61.59375 43.890625 66.25 
Q 38.703125 70.90625 29.90625 70.90625 
Q 22.296875 70.90625 17.296875 67.703125 
Q 12.296875 64.5 9.296875 59.203125 
Q 6.296875 53.90625 5.046875 47.046875 
Q 3.796875 40.203125 3.796875 32.90625 
Q 3.796875 27.296875 4.640625 21.296875 
Q 5.5 15.296875 8.09375 10.296875 
Q 10.703125 5.296875 15.5 2.09375 
Q 20.296875 -1.09375 28.203125 -1.09375 
Q 34.90625 -1.09375 39.453125 1.15625 
Q 44 3.40625 46.75 6.84375 
Q 49.5 10.296875 50.703125 14.5 
Q 51.90625 18.703125 51.90625 22.59375 
Q 51.90625 27.5 50.40625 31.703125 
Q 48.90625 35.90625 46.15625 39 
Q 43.40625 42.09375 39.34375 43.84375 
Q 35.296875 45.59375 30.203125 45.59375 
Q 24.40625 45.59375 19.953125 43.390625 
Q 15.5 41.203125 12.5 36.296875 
L 12.296875 36.5 
Q 12.40625 40.59375 13.09375 45.296875 
Q 13.796875 50 15.640625 54.046875 
Q 17.5 58.09375 20.796875 60.75 
Q 24.09375 63.40625 29.5 63.40625 
Q 34.59375 63.40625 37.6875 60.5 
Q 40.796875 57.59375 41.40625 52.796875 
z
M 28.59375 38.09375 
Q 32.203125 38.09375 34.890625 36.796875 
Q 37.59375 35.5 39.390625 33.34375 
Q 41.203125 31.203125 42.046875 28.25 
Q 42.90625 25.296875 42.90625 22 
Q 42.90625 18.90625 41.953125 16.046875 
Q 41 13.203125 39.203125 11 
Q 37.40625 8.796875 34.75 7.546875 
Q 32.09375 6.296875 28.59375 6.296875 
Q 25.09375 6.296875 22.34375 7.546875 
Q 19.59375 8.796875 17.75 10.890625 
Q 15.90625 13 14.90625 15.890625 
Q 13.90625 18.796875 13.90625 22.09375 
Q 13.90625 25.40625 14.84375 28.34375 
Q 15.796875 31.296875 17.6875 33.4375 
Q 19.59375 35.59375 22.296875 36.84375 
Q 25 38.09375 28.59375 38.09375 
z
" id="HelveticaNeue-54"/>
      <path d="M 13.40625 17.09375 
L 4.90625 17.09375 
Q 5.703125 7.90625 11.59375 3.40625 
Q 17.5 -1.09375 26.40625 -1.09375 
Q 39.296875 -1.09375 45.140625 8.75 
Q 51 18.59375 51 37 
Q 51 47.09375 49.046875 53.640625 
Q 47.09375 60.203125 43.796875 64 
Q 40.5 67.796875 36.09375 69.34375 
Q 31.703125 70.90625 26.703125 70.90625 
Q 21.59375 70.90625 17.296875 69.203125 
Q 13 67.5 9.890625 64.453125 
Q 6.796875 61.40625 5.09375 57.15625 
Q 3.40625 52.90625 3.40625 47.796875 
Q 3.40625 42.59375 4.84375 38.1875 
Q 6.296875 33.796875 9.140625 30.6875 
Q 12 27.59375 16.203125 25.84375 
Q 20.40625 24.09375 25.796875 24.09375 
Q 31 24.09375 35.390625 26.75 
Q 39.796875 29.40625 42.203125 33.90625 
L 42.40625 33.703125 
Q 42 19.796875 38.09375 13.046875 
Q 34.203125 6.296875 26.40625 6.296875 
Q 21.296875 6.296875 17.59375 9.09375 
Q 13.90625 11.90625 13.40625 17.09375 
z
M 40.90625 47.203125 
Q 40.90625 44.09375 39.90625 41.25 
Q 38.90625 38.40625 37 36.25 
Q 35.09375 34.09375 32.390625 32.84375 
Q 29.703125 31.59375 26.40625 31.59375 
Q 23.296875 31.59375 20.75 32.84375 
Q 18.203125 34.09375 16.34375 36.1875 
Q 14.5 38.296875 13.453125 41 
Q 12.40625 43.703125 12.40625 46.59375 
Q 12.40625 49.90625 13.15625 52.90625 
Q 13.90625 55.90625 15.546875 58.25 
Q 17.203125 60.59375 19.84375 62 
Q 22.5 63.40625 26.296875 63.40625 
Q 29.90625 63.40625 32.59375 62.09375 
Q 35.296875 60.796875 37.140625 58.546875 
Q 39 56.296875 39.953125 53.390625 
Q 40.90625 50.5 40.90625 47.203125 
z
" id="HelveticaNeue-57"/>
     </defs>
     <use xlink:href="#HelveticaNeue-66"/>
     <use x="68.499985" xlink:href="#HelveticaNeue-97"/>
     <use x="122.199982" xlink:href="#HelveticaNeue-114"/>
     <use x="155.499969" xlink:href="#HelveticaNeue-114"/>
     <use x="188.799957" xlink:href="#HelveticaNeue-105"/>
     <use x="210.999954" xlink:href="#HelveticaNeue-111"/>
     <use x="268.399948" xlink:href="#HelveticaNeue-115"/>
     <use x="318.399933" xlink:href="#HelveticaNeue-32"/>
     <use x="346.199921" xlink:href="#HelveticaNeue-85"/>
     <use x="418.399902" xlink:href="#HelveticaNeue-110"/>
     <use x="473.999893" xlink:href="#HelveticaNeue-105"/>
     <use x="496.19989" xlink:href="#HelveticaNeue-100"/>
     <use x="555.499878" xlink:href="#HelveticaNeue-111"/>
     <use x="612.899872" xlink:href="#HelveticaNeue-115"/>
     <use x="662.899857" xlink:href="#HelveticaNeue-32"/>
     <use x="690.699844" xlink:href="#HelveticaNeue-124"/>
     <use x="712.899841" xlink:href="#HelveticaNeue-32"/>
     <use x="740.699829" xlink:href="#HelveticaNeue-67"/>
     <use x="812.899811" xlink:href="#HelveticaNeue-97"/>
     <use x="866.599808" xlink:href="#HelveticaNeue-115"/>
     <use x="916.599792" xlink:href="#HelveticaNeue-111"/>
     <use x="973.999786" xlink:href="#HelveticaNeue-115"/>
     <use x="1023.999771" xlink:href="#HelveticaNeue-32"/>
     <use x="1051.799759" xlink:href="#HelveticaNeue-110"/>
     <use x="1107.39975" xlink:href="#HelveticaNeue-117"/>
     <use x="1162.999741" xlink:href="#HelveticaNeue-101"/>
     <use x="1216.699738" xlink:href="#HelveticaNeue-118"/>
     <use x="1266.699722" xlink:href="#HelveticaNeue-111"/>
     <use x="1324.099716" xlink:href="#HelveticaNeue-115"/>
     <use x="1374.099701" xlink:href="#HelveticaNeue-58"/>
     <use x="1401.899689" xlink:href="#HelveticaNeue-32"/>
     <use x="1429.699677" xlink:href="#HelveticaNeue-50"/>
     <use x="1485.299667" xlink:href="#HelveticaNeue-48"/>
     <use x="1540.899658" xlink:href="#HelveticaNeue-50"/>
     <use x="1596.499649" xlink:href="#HelveticaNeue-49"/>
     <use x="1652.09964" xlink:href="#HelveticaNeue-45"/>
     <use x="1690.999634" xlink:href="#HelveticaNeue-48"/>
     <use x="1746.599625" xlink:href="#HelveticaNeue-54"/>
     <use x="1802.199615" xlink:href="#HelveticaNeue-45"/>
     <use x="1841.099609" xlink:href="#HelveticaNeue-49"/>
     <use x="1896.6996" xlink:href="#HelveticaNeue-57"/>
    </g>
   </g>
   <g id="legend_1">
    <g id="line2d_26">
     <path d="M 292.034375 39.640625 
L 312.034375 39.640625 
" style="fill:none;stroke:#000000;stroke-dasharray:1.5,2.475;stroke-dashoffset:0;stroke-opacity:0.5;stroke-width:1.5;"/>
    </g>
    <g id="line2d_27"/>
    <g id="text_14">
     <!-- Actual -->
     <g style="fill:#555555;" transform="translate(320.034375 43.140625)scale(0.1 -0.1)">
      <use xlink:href="#HelveticaNeue-65"/>
      <use x="64.799988" xlink:href="#HelveticaNeue-99"/>
      <use x="118.499985" xlink:href="#HelveticaNeue-116"/>
      <use x="149.999969" xlink:href="#HelveticaNeue-117"/>
      <use x="205.59996" xlink:href="#HelveticaNeue-97"/>
      <use x="259.299957" xlink:href="#HelveticaNeue-108"/>
     </g>
    </g>
    <g id="line2d_28">
     <path d="M 292.034375 54.310937 
L 312.034375 54.310937 
" style="fill:none;stroke:#b3220f;stroke-linecap:square;stroke-width:1.5;"/>
    </g>
    <g id="line2d_29"/>
    <g id="text_15">
     <!-- Promedio semanal (7 das)  -->
     <g style="fill:#555555;" transform="translate(320.034375 57.810937)scale(0.1 -0.1)">
      <defs>
       <path d="M 17.296875 37.203125 
L 17.296875 63.40625 
L 35.90625 63.40625 
Q 44 63.40625 47.75 60.046875 
Q 51.5 56.703125 51.5 50.296875 
Q 51.5 43.90625 47.75 40.5 
Q 44 37.09375 35.90625 37.203125 
z
M 7.796875 71.40625 
L 7.796875 0 
L 17.296875 0 
L 17.296875 29.203125 
L 39.09375 29.203125 
Q 49.90625 29.09375 55.453125 34.6875 
Q 61 40.296875 61 50.296875 
Q 61 60.296875 55.453125 65.84375 
Q 49.90625 71.40625 39.09375 71.40625 
z
" id="HelveticaNeue-80"/>
       <path d="M 6.40625 51.703125 
L 6.40625 0 
L 14.90625 0 
L 14.90625 32.203125 
Q 14.90625 33.703125 15.65625 35.953125 
Q 16.40625 38.203125 18.046875 40.296875 
Q 19.703125 42.40625 22.34375 43.90625 
Q 25 45.40625 28.703125 45.40625 
Q 31.59375 45.40625 33.4375 44.546875 
Q 35.296875 43.703125 36.390625 42.140625 
Q 37.5 40.59375 37.953125 38.5 
Q 38.40625 36.40625 38.40625 33.90625 
L 38.40625 0 
L 46.90625 0 
L 46.90625 32.203125 
Q 46.90625 38.203125 50.5 41.796875 
Q 54.09375 45.40625 60.40625 45.40625 
Q 63.5 45.40625 65.453125 44.5 
Q 67.40625 43.59375 68.5 42.046875 
Q 69.59375 40.5 70 38.390625 
Q 70.40625 36.296875 70.40625 33.90625 
L 70.40625 0 
L 78.90625 0 
L 78.90625 37.90625 
Q 78.90625 41.90625 77.65625 44.75 
Q 76.40625 47.59375 74.15625 49.390625 
Q 71.90625 51.203125 68.75 52.046875 
Q 65.59375 52.90625 61.703125 52.90625 
Q 56.59375 52.90625 52.34375 50.59375 
Q 48.09375 48.296875 45.5 44.09375 
Q 43.90625 48.90625 40 50.90625 
Q 36.09375 52.90625 31.296875 52.90625 
Q 20.40625 52.90625 14.59375 44.09375 
L 14.40625 44.09375 
L 14.40625 51.703125 
z
" id="HelveticaNeue-109"/>
       <path d="M 20.40625 -19.703125 
L 26.90625 -19.703125 
Q 19.796875 -8.203125 16.75 3.09375 
Q 13.703125 14.40625 13.703125 27 
Q 13.703125 39.296875 16.703125 50.5 
Q 19.703125 61.703125 26.90625 73.09375 
L 20.40625 73.09375 
Q 12.59375 62.796875 8.640625 50.796875 
Q 4.703125 38.796875 4.703125 27 
Q 4.703125 20.40625 5.796875 14.40625 
Q 6.90625 8.40625 8.953125 2.703125 
Q 11 -3 13.890625 -8.546875 
Q 16.796875 -14.09375 20.40625 -19.703125 
z
" id="HelveticaNeue-40"/>
       <path d="M 50.90625 62.40625 
L 50.90625 69.703125 
L 5 69.703125 
L 5 61.703125 
L 42.203125 61.703125 
Q 36.59375 55.796875 31.75 48.796875 
Q 26.90625 41.796875 23.203125 33.9375 
Q 19.5 26.09375 17.140625 17.546875 
Q 14.796875 9 14.203125 0 
L 23.703125 0 
Q 24.203125 8.296875 26.5 17.09375 
Q 28.796875 25.90625 32.4375 34.203125 
Q 36.09375 42.5 40.796875 49.796875 
Q 45.5 57.09375 50.90625 62.40625 
z
" id="HelveticaNeue-55"/>
       <path d="M 6.90625 0 
L 15.40625 0 
L 15.40625 51.703125 
L 6.90625 51.703125 
z
M 25.5 77 
L 11.40625 60.796875 
L 5 60.796875 
L 14.59375 77 
z
" id="HelveticaNeue-237"/>
       <path d="M -0.90625 -19.703125 
L 5.5 -19.703125 
Q 13.296875 -9.40625 17.25 2.546875 
Q 21.203125 14.5 21.203125 26.296875 
Q 21.203125 32.90625 20.09375 38.90625 
Q 19 44.90625 16.953125 50.65625 
Q 14.90625 56.40625 12 61.953125 
Q 9.09375 67.5 5.5 73.09375 
L -0.90625 73.09375 
Q 6.09375 61.59375 9.140625 50.25 
Q 12.203125 38.90625 12.203125 26.296875 
Q 12.203125 14.09375 9.203125 2.84375 
Q 6.203125 -8.40625 -0.90625 -19.703125 
z
" id="HelveticaNeue-41"/>
      </defs>
      <use xlink:href="#HelveticaNeue-80"/>
      <use x="64.799988" xlink:href="#HelveticaNeue-114"/>
      <use x="96.349976" xlink:href="#HelveticaNeue-111"/>
      <use x="153.749969" xlink:href="#HelveticaNeue-109"/>
      <use x="239.049957" xlink:href="#HelveticaNeue-101"/>
      <use x="292.749954" xlink:href="#HelveticaNeue-100"/>
      <use x="352.049942" xlink:href="#HelveticaNeue-105"/>
      <use x="374.249939" xlink:href="#HelveticaNeue-111"/>
      <use x="431.649933" xlink:href="#HelveticaNeue-32"/>
      <use x="459.449921" xlink:href="#HelveticaNeue-115"/>
      <use x="509.449905" xlink:href="#HelveticaNeue-101"/>
      <use x="563.149902" xlink:href="#HelveticaNeue-109"/>
      <use x="648.44989" xlink:href="#HelveticaNeue-97"/>
      <use x="702.149887" xlink:href="#HelveticaNeue-110"/>
      <use x="757.749878" xlink:href="#HelveticaNeue-97"/>
      <use x="811.449875" xlink:href="#HelveticaNeue-108"/>
      <use x="833.649872" xlink:href="#HelveticaNeue-32"/>
      <use x="861.44986" xlink:href="#HelveticaNeue-40"/>
      <use x="887.349854" xlink:href="#HelveticaNeue-55"/>
      <use x="942.949844" xlink:href="#HelveticaNeue-32"/>
      <use x="970.749832" xlink:href="#HelveticaNeue-100"/>
      <use x="1030.04982" xlink:href="#HelveticaNeue-237"/>
      <use x="1052.249817" xlink:href="#HelveticaNeue-97"/>
      <use x="1105.949814" xlink:href="#HelveticaNeue-115"/>
      <use x="1155.949799" xlink:href="#HelveticaNeue-41"/>
      <use x="1181.849792" xlink:href="#HelveticaNeue-32"/>
     </g>
    </g>
   </g>
  </g>
 </g>
 <defs>
  <clipPath id="pc289f3a55a">
   <rect height="235.5" width="387.5" x="62.5" y="27"/>
  </clipPath>
 </defs>
</svg>
