<?xml version="1.0" encoding="utf-8" standalone="no"?>
<!DOCTYPE svg PUBLIC "-//W3C//DTD SVG 1.1//EN"
  "http://www.w3.org/Graphics/SVG/1.1/DTD/svg11.dtd">
<!-- Created with matplotlib (https://matplotlib.org/) -->
<svg height="288pt" version="1.1" viewBox="0 0 432 288" width="432pt" xmlns="http://www.w3.org/2000/svg" xmlns:xlink="http://www.w3.org/1999/xlink">
 <metadata>
  <rdf:RDF xmlns:cc="http://creativecommons.org/ns#" xmlns:dc="http://purl.org/dc/elements/1.1/" xmlns:rdf="http://www.w3.org/1999/02/22-rdf-syntax-ns#">
   <cc:Work>
    <dc:type rdf:resource="http://purl.org/dc/dcmitype/StillImage"/>
    <dc:date>2021-06-26T01:21:39.417957</dc:date>
    <dc:format>image/svg+xml</dc:format>
    <dc:creator>
     <cc:Agent>
      <dc:title>Matplotlib v3.3.4, https://matplotlib.org/</dc:title>
     </cc:Agent>
    </dc:creator>
   </cc:Work>
  </rdf:RDF>
 </metadata>
 <defs>
  <style type="text/css">*{stroke-linecap:butt;stroke-linejoin:round;}</style>
 </defs>
 <g id="figure_1">
  <g id="patch_1">
   <path d="M 0 288 
L 432 288 
L 432 0 
L 0 0 
z
" style="fill:#ffffff;"/>
  </g>
  <g id="axes_1">
   <g id="patch_2">
    <path d="M 37.6 226.614286 
L 421.2 226.614286 
L 421.2 53.417143 
L 37.6 53.417143 
z
" style="fill:#ffffff;"/>
   </g>
   <g id="patch_3">
    <path clip-path="url(#p0dcc241989)" d="M 37.6 226.614286 
L 91.929614 226.614286 
L 91.929614 184.180986 
L 37.6 184.180986 
z
" style="fill:#b2b2b2;"/>
   </g>
   <g id="patch_4">
    <path clip-path="url(#p0dcc241989)" d="M 103.454077 226.614286 
L 157.783691 226.614286 
L 157.783691 177.2531 
L 103.454077 177.2531 
z
" style="fill:#b2b2b2;"/>
   </g>
   <g id="patch_5">
    <path clip-path="url(#p0dcc241989)" d="M 169.308155 226.614286 
L 223.637768 226.614286 
L 223.637768 174.655143 
L 169.308155 174.655143 
z
" style="fill:#b2b2b2;"/>
   </g>
   <g id="patch_6">
    <path clip-path="url(#p0dcc241989)" d="M 235.162232 226.614286 
L 289.491845 226.614286 
L 289.491845 170.325214 
L 235.162232 170.325214 
z
" style="fill:#b2b2b2;"/>
   </g>
   <g id="patch_7">
    <path clip-path="url(#p0dcc241989)" d="M 301.016309 226.614286 
L 355.345923 226.614286 
L 355.345923 167.727257 
L 301.016309 167.727257 
z
" style="fill:#b2b2b2;"/>
   </g>
   <g id="patch_8">
    <path clip-path="url(#p0dcc241989)" d="M 366.870386 226.614286 
L 421.2 226.614286 
L 421.2 162.531343 
L 366.870386 162.531343 
z
" style="fill:#b2b2b2;"/>
   </g>
   <g id="matplotlib.axis_1">
    <g id="xtick_1">
     <g id="line2d_1">
      <defs>
       <path d="M 0 0 
L 0 3.5 
" id="madd8957adf" style="stroke:#000000;stroke-width:0.8;"/>
      </defs>
      <g>
       <use style="stroke:#000000;stroke-width:0.8;" x="64.764807" xlink:href="#madd8957adf" y="226.614286"/>
      </g>
     </g>
     <g id="text_1">
      <!-- Kennedy -->
      <g transform="translate(67.715901 276.151629)rotate(-90)scale(0.11 -0.11)">
       <defs>
        <path d="M 27.640625 30.71875 
L 19.578125 22.171875 
L 19.578125 0 
L 7.234375 0 
L 7.234375 71.09375 
L 19.578125 71.09375 
L 19.578125 37.75 
L 26.421875 46.1875 
L 47.21875 71.09375 
L 62.15625 71.09375 
L 35.75 39.59375 
L 63.671875 0 
L 49.03125 0 
z
" id="Roboto-Medium-75"/>
        <path d="M 29.34375 -0.984375 
Q 18.0625 -0.984375 11.046875 6.125 
Q 4.046875 13.234375 4.046875 25.046875 
L 4.046875 26.515625 
Q 4.046875 34.421875 7.09375 40.640625 
Q 10.15625 46.875 15.671875 50.34375 
Q 21.1875 53.8125 27.984375 53.8125 
Q 38.765625 53.8125 44.640625 46.921875 
Q 50.53125 40.046875 50.53125 27.4375 
L 50.53125 22.65625 
L 16.015625 22.65625 
Q 16.546875 16.109375 20.375 12.296875 
Q 24.21875 8.5 30.03125 8.5 
Q 38.1875 8.5 43.3125 15.09375 
L 49.703125 8.984375 
Q 46.53125 4.25 41.234375 1.625 
Q 35.9375 -0.984375 29.34375 -0.984375 
z
M 27.9375 44.28125 
Q 23.046875 44.28125 20.046875 40.859375 
Q 17.046875 37.453125 16.21875 31.34375 
L 38.8125 31.34375 
L 38.8125 32.234375 
Q 38.421875 38.1875 35.640625 41.234375 
Q 32.859375 44.28125 27.9375 44.28125 
z
" id="Roboto-Medium-101"/>
        <path d="M 17.09375 52.828125 
L 17.4375 46.734375 
Q 23.296875 53.8125 32.8125 53.8125 
Q 49.3125 53.8125 49.609375 34.90625 
L 49.609375 0 
L 37.75 0 
L 37.75 34.234375 
Q 37.75 39.265625 35.578125 41.671875 
Q 33.40625 44.09375 28.46875 44.09375 
Q 21.296875 44.09375 17.78125 37.59375 
L 17.78125 0 
L 5.90625 0 
L 5.90625 52.828125 
z
" id="Roboto-Medium-110"/>
        <path d="M 3.859375 26.8125 
Q 3.859375 39.015625 9.515625 46.40625 
Q 15.1875 53.8125 24.703125 53.8125 
Q 33.109375 53.8125 38.28125 47.953125 
L 38.28125 75 
L 50.140625 75 
L 50.140625 0 
L 39.40625 0 
L 38.8125 5.46875 
Q 33.5 -0.984375 24.609375 -0.984375 
Q 15.328125 -0.984375 9.59375 6.484375 
Q 3.859375 13.96875 3.859375 26.8125 
z
M 15.71875 25.78125 
Q 15.71875 17.71875 18.8125 13.203125 
Q 21.921875 8.6875 27.640625 8.6875 
Q 34.90625 8.6875 38.28125 15.1875 
L 38.28125 37.75 
Q 35.015625 44.09375 27.734375 44.09375 
Q 21.96875 44.09375 18.84375 39.53125 
Q 15.71875 34.96875 15.71875 25.78125 
z
" id="Roboto-Medium-100"/>
        <path d="M 24.5625 17 
L 35.296875 52.828125 
L 47.953125 52.828125 
L 26.953125 -8.015625 
Q 22.125 -21.34375 10.546875 -21.34375 
Q 7.953125 -21.34375 4.828125 -20.453125 
L 4.828125 -11.28125 
L 7.078125 -11.421875 
Q 11.578125 -11.421875 13.84375 -9.78125 
Q 16.109375 -8.15625 17.4375 -4.296875 
L 19.140625 0.25 
L 0.59375 52.828125 
L 13.375 52.828125 
z
" id="Roboto-Medium-121"/>
       </defs>
       <use xlink:href="#Roboto-Medium-75"/>
       <use x="63.037109" xlink:href="#Roboto-Medium-101"/>
       <use x="116.699219" xlink:href="#Roboto-Medium-110"/>
       <use x="172.314453" xlink:href="#Roboto-Medium-110"/>
       <use x="227.929688" xlink:href="#Roboto-Medium-101"/>
       <use x="281.591797" xlink:href="#Roboto-Medium-100"/>
       <use x="338.037109" xlink:href="#Roboto-Medium-121"/>
      </g>
     </g>
    </g>
    <g id="xtick_2">
     <g id="line2d_2">
      <g>
       <use style="stroke:#000000;stroke-width:0.8;" x="130.618884" xlink:href="#madd8957adf" y="226.614286"/>
      </g>
     </g>
     <g id="text_2">
      <!-- Bosa -->
      <g transform="translate(133.626697 258.446786)rotate(-90)scale(0.11 -0.11)">
       <defs>
        <path d="M 7.234375 0 
L 7.234375 71.09375 
L 31.59375 71.09375 
Q 43.65625 71.09375 49.953125 66.25 
Q 56.25 61.421875 56.25 51.859375 
Q 56.25 46.96875 53.609375 43.0625 
Q 50.984375 39.15625 45.90625 37.015625 
Q 51.65625 35.453125 54.796875 31.125 
Q 57.953125 26.8125 57.953125 20.75 
Q 57.953125 10.75 51.53125 5.375 
Q 45.125 0 33.15625 0 
z
M 19.578125 32.078125 
L 19.578125 9.859375 
L 33.296875 9.859375 
Q 39.109375 9.859375 42.375 12.734375 
Q 45.65625 15.625 45.65625 20.75 
Q 45.65625 31.84375 34.328125 32.078125 
z
M 19.578125 41.15625 
L 31.6875 41.15625 
Q 37.453125 41.15625 40.703125 43.765625 
Q 43.953125 46.390625 43.953125 51.171875 
Q 43.953125 56.453125 40.9375 58.796875 
Q 37.9375 61.140625 31.59375 61.140625 
L 19.578125 61.140625 
z
" id="Roboto-Medium-66"/>
        <path d="M 3.859375 26.90625 
Q 3.859375 34.671875 6.9375 40.890625 
Q 10.015625 47.125 15.578125 50.46875 
Q 21.140625 53.8125 28.375 53.8125 
Q 39.0625 53.8125 45.71875 46.921875 
Q 52.390625 40.046875 52.9375 28.65625 
L 52.984375 25.875 
Q 52.984375 18.0625 49.96875 11.90625 
Q 46.96875 5.765625 41.375 2.390625 
Q 35.796875 -0.984375 28.46875 -0.984375 
Q 17.28125 -0.984375 10.5625 6.46875 
Q 3.859375 13.921875 3.859375 26.3125 
z
M 15.71875 25.875 
Q 15.71875 17.71875 19.09375 13.109375 
Q 22.46875 8.5 28.46875 8.5 
Q 34.46875 8.5 37.8125 13.1875 
Q 41.15625 17.875 41.15625 26.90625 
Q 41.15625 34.90625 37.71875 39.59375 
Q 34.28125 44.28125 28.375 44.28125 
Q 22.5625 44.28125 19.140625 39.671875 
Q 15.71875 35.0625 15.71875 25.875 
z
" id="Roboto-Medium-111"/>
        <path d="M 35.6875 14.359375 
Q 35.6875 17.53125 33.078125 19.1875 
Q 30.46875 20.84375 24.40625 22.109375 
Q 18.359375 23.390625 14.3125 25.34375 
Q 5.421875 29.640625 5.421875 37.796875 
Q 5.421875 44.625 11.171875 49.21875 
Q 16.9375 53.8125 25.828125 53.8125 
Q 35.296875 53.8125 41.125 49.125 
Q 46.96875 44.4375 46.96875 36.96875 
L 35.109375 36.96875 
Q 35.109375 40.375 32.5625 42.640625 
Q 30.03125 44.921875 25.828125 44.921875 
Q 21.921875 44.921875 19.453125 43.109375 
Q 17 41.3125 17 38.28125 
Q 17 35.546875 19.28125 34.03125 
Q 21.578125 32.515625 28.5625 30.96875 
Q 35.546875 29.4375 39.515625 27.3125 
Q 43.5 25.203125 45.421875 22.21875 
Q 47.359375 19.234375 47.359375 14.984375 
Q 47.359375 7.859375 41.453125 3.4375 
Q 35.546875 -0.984375 25.984375 -0.984375 
Q 19.484375 -0.984375 14.40625 1.359375 
Q 9.328125 3.71875 6.484375 7.8125 
Q 3.65625 11.921875 3.65625 16.65625 
L 15.1875 16.65625 
Q 15.4375 12.453125 18.359375 10.171875 
Q 21.296875 7.90625 26.125 7.90625 
Q 30.8125 7.90625 33.25 9.6875 
Q 35.6875 11.46875 35.6875 14.359375 
z
" id="Roboto-Medium-115"/>
        <path d="M 37.640625 0 
Q 36.859375 1.515625 36.28125 4.9375 
Q 30.609375 -0.984375 22.40625 -0.984375 
Q 14.453125 -0.984375 9.421875 3.5625 
Q 4.390625 8.109375 4.390625 14.796875 
Q 4.390625 23.25 10.65625 27.765625 
Q 16.9375 32.28125 28.609375 32.28125 
L 35.890625 32.28125 
L 35.890625 35.75 
Q 35.890625 39.84375 33.59375 42.3125 
Q 31.296875 44.78125 26.609375 44.78125 
Q 22.5625 44.78125 19.96875 42.75 
Q 17.390625 40.71875 17.390625 37.59375 
L 5.515625 37.59375 
Q 5.515625 41.9375 8.390625 45.71875 
Q 11.28125 49.515625 16.234375 51.65625 
Q 21.1875 53.8125 27.296875 53.8125 
Q 36.578125 53.8125 42.09375 49.140625 
Q 47.609375 44.484375 47.75 36.03125 
L 47.75 12.203125 
Q 47.75 5.078125 49.75 0.828125 
L 49.75 0 
z
M 24.609375 8.546875 
Q 28.125 8.546875 31.21875 10.25 
Q 34.328125 11.96875 35.890625 14.84375 
L 35.890625 24.8125 
L 29.5 24.8125 
Q 22.90625 24.8125 19.578125 22.515625 
Q 16.265625 20.21875 16.265625 16.015625 
Q 16.265625 12.59375 18.53125 10.5625 
Q 20.796875 8.546875 24.609375 8.546875 
z
" id="Roboto-Medium-97"/>
       </defs>
       <use xlink:href="#Roboto-Medium-66"/>
       <use x="63.085938" xlink:href="#Roboto-Medium-111"/>
       <use x="120.019531" xlink:href="#Roboto-Medium-115"/>
       <use x="171.630859" xlink:href="#Roboto-Medium-97"/>
      </g>
     </g>
    </g>
    <g id="xtick_3">
     <g id="line2d_3">
      <g>
       <use style="stroke:#000000;stroke-width:0.8;" x="196.472961" xlink:href="#madd8957adf" y="226.614286"/>
      </g>
     </g>
     <g id="text_3">
      <!-- Usaquén -->
      <g transform="translate(199.480774 276.791004)rotate(-90)scale(0.11 -0.11)">
       <defs>
        <path d="M 59.234375 71.09375 
L 59.234375 23.578125 
Q 59.234375 12.25 51.984375 5.625 
Q 44.734375 -0.984375 32.671875 -0.984375 
Q 20.453125 -0.984375 13.28125 5.53125 
Q 6.109375 12.0625 6.109375 23.640625 
L 6.109375 71.09375 
L 18.40625 71.09375 
L 18.40625 23.53125 
Q 18.40625 16.40625 22.015625 12.640625 
Q 25.640625 8.890625 32.671875 8.890625 
Q 46.921875 8.890625 46.921875 23.921875 
L 46.921875 71.09375 
z
" id="Roboto-Medium-85"/>
        <path d="M 3.859375 26.859375 
Q 3.859375 39.265625 9.515625 46.53125 
Q 15.1875 53.8125 24.859375 53.8125 
Q 33.6875 53.8125 38.875 47.609375 
L 39.546875 52.828125 
L 50.09375 52.828125 
L 50.09375 -20.3125 
L 38.234375 -20.3125 
L 38.234375 4.5 
Q 33.0625 -0.984375 24.75 -0.984375 
Q 15.28125 -0.984375 9.5625 6.40625 
Q 3.859375 13.8125 3.859375 26.859375 
z
M 15.71875 25.828125 
Q 15.71875 17.71875 18.921875 13.109375 
Q 22.125 8.5 27.78125 8.5 
Q 34.8125 8.5 38.234375 14.5 
L 38.234375 38.53125 
Q 34.8125 44.28125 27.875 44.28125 
Q 22.21875 44.28125 18.96875 39.734375 
Q 15.71875 35.203125 15.71875 25.828125 
z
" id="Roboto-Medium-113"/>
        <path d="M 38.09375 5.171875 
Q 32.859375 -0.984375 23.25 -0.984375 
Q 14.65625 -0.984375 10.234375 4.046875 
Q 5.8125 9.078125 5.8125 18.609375 
L 5.8125 52.828125 
L 17.671875 52.828125 
L 17.671875 18.75 
Q 17.671875 8.6875 26.03125 8.6875 
Q 34.671875 8.6875 37.703125 14.890625 
L 37.703125 52.828125 
L 49.5625 52.828125 
L 49.5625 0 
L 38.375 0 
z
" id="Roboto-Medium-117"/>
        <path d="M 29.34375 -0.984375 
Q 18.0625 -0.984375 11.046875 6.125 
Q 4.046875 13.234375 4.046875 25.046875 
L 4.046875 26.515625 
Q 4.046875 34.421875 7.09375 40.640625 
Q 10.15625 46.875 15.671875 50.34375 
Q 21.1875 53.8125 27.984375 53.8125 
Q 38.765625 53.8125 44.640625 46.921875 
Q 50.53125 40.046875 50.53125 27.4375 
L 50.53125 22.65625 
L 16.015625 22.65625 
Q 16.546875 16.109375 20.375 12.296875 
Q 24.21875 8.5 30.03125 8.5 
Q 38.1875 8.5 43.3125 15.09375 
L 49.703125 8.984375 
Q 46.53125 4.25 41.234375 1.625 
Q 35.9375 -0.984375 29.34375 -0.984375 
z
M 27.9375 44.28125 
Q 23.046875 44.28125 20.046875 40.859375 
Q 17.046875 37.453125 16.21875 31.34375 
L 38.8125 31.34375 
L 38.8125 32.234375 
Q 38.421875 38.1875 35.640625 41.234375 
Q 32.859375 44.28125 27.9375 44.28125 
z
M 30.609375 75 
L 44.140625 75 
L 30.609375 60.203125 
L 21.09375 60.203125 
z
" id="Roboto-Medium-233"/>
       </defs>
       <use xlink:href="#Roboto-Medium-85"/>
       <use x="65.185547" xlink:href="#Roboto-Medium-115"/>
       <use x="116.796875" xlink:href="#Roboto-Medium-97"/>
       <use x="170.898438" xlink:href="#Roboto-Medium-113"/>
       <use x="227.685547" xlink:href="#Roboto-Medium-117"/>
       <use x="283.251953" xlink:href="#Roboto-Medium-233"/>
       <use x="336.914062" xlink:href="#Roboto-Medium-110"/>
      </g>
     </g>
    </g>
    <g id="xtick_4">
     <g id="line2d_4">
      <g>
       <use style="stroke:#000000;stroke-width:0.8;" x="262.327039" xlink:href="#madd8957adf" y="226.614286"/>
      </g>
     </g>
     <g id="text_4">
      <!-- Suba -->
      <g transform="translate(265.334851 258.510379)rotate(-90)scale(0.11 -0.11)">
       <defs>
        <path d="M 44.390625 18.3125 
Q 44.390625 23 41.09375 25.53125 
Q 37.796875 28.078125 29.203125 30.65625 
Q 20.609375 33.25 15.53125 36.421875 
Q 5.8125 42.53125 5.8125 52.34375 
Q 5.8125 60.9375 12.8125 66.5 
Q 19.828125 72.078125 31 72.078125 
Q 38.421875 72.078125 44.234375 69.34375 
Q 50.046875 66.609375 53.359375 61.546875 
Q 56.6875 56.5 56.6875 50.34375 
L 44.390625 50.34375 
Q 44.390625 55.90625 40.890625 59.046875 
Q 37.40625 62.203125 30.90625 62.203125 
Q 24.859375 62.203125 21.515625 59.609375 
Q 18.171875 57.03125 18.171875 52.390625 
Q 18.171875 48.484375 21.78125 45.875 
Q 25.390625 43.265625 33.6875 40.796875 
Q 42 38.328125 47.015625 35.171875 
Q 52.046875 32.03125 54.390625 27.953125 
Q 56.734375 23.875 56.734375 18.40625 
Q 56.734375 9.515625 49.921875 4.265625 
Q 43.109375 -0.984375 31.453125 -0.984375 
Q 23.734375 -0.984375 17.265625 1.875 
Q 10.796875 4.734375 7.203125 9.765625 
Q 3.609375 14.796875 3.609375 21.484375 
L 15.96875 21.484375 
Q 15.96875 15.4375 19.96875 12.109375 
Q 23.96875 8.796875 31.453125 8.796875 
Q 37.890625 8.796875 41.140625 11.40625 
Q 44.390625 14.015625 44.390625 18.3125 
z
" id="Roboto-Medium-83"/>
        <path d="M 52.4375 25.875 
Q 52.4375 13.578125 46.9375 6.296875 
Q 41.453125 -0.984375 31.84375 -0.984375 
Q 22.5625 -0.984375 17.390625 5.71875 
L 16.796875 0 
L 6.0625 0 
L 6.0625 75 
L 17.921875 75 
L 17.921875 47.75 
Q 23.046875 53.8125 31.734375 53.8125 
Q 41.40625 53.8125 46.921875 46.625 
Q 52.4375 39.453125 52.4375 26.5625 
z
M 40.578125 26.90625 
Q 40.578125 35.5 37.546875 39.796875 
Q 34.515625 44.09375 28.765625 44.09375 
Q 21.046875 44.09375 17.921875 37.359375 
L 17.921875 15.578125 
Q 21.09375 8.6875 28.859375 8.6875 
Q 34.421875 8.6875 37.453125 12.84375 
Q 40.484375 17 40.578125 25.390625 
z
" id="Roboto-Medium-98"/>
       </defs>
       <use xlink:href="#Roboto-Medium-83"/>
       <use x="60.351562" xlink:href="#Roboto-Medium-117"/>
       <use x="115.917969" xlink:href="#Roboto-Medium-98"/>
       <use x="172.216797" xlink:href="#Roboto-Medium-97"/>
      </g>
     </g>
    </g>
    <g id="xtick_5">
     <g id="line2d_5">
      <g>
       <use style="stroke:#000000;stroke-width:0.8;" x="328.181116" xlink:href="#madd8957adf" y="226.614286"/>
      </g>
     </g>
     <g id="text_5">
      <!-- Fontibón -->
      <g transform="translate(331.188928 277.076317)rotate(-90)scale(0.11 -0.11)">
       <defs>
        <path d="M 48.1875 30.125 
L 19.578125 30.125 
L 19.578125 0 
L 7.234375 0 
L 7.234375 71.09375 
L 52.390625 71.09375 
L 52.390625 61.140625 
L 19.578125 61.140625 
L 19.578125 39.984375 
L 48.1875 39.984375 
z
" id="Roboto-Medium-70"/>
        <path d="M 20.953125 65.671875 
L 20.953125 52.828125 
L 30.28125 52.828125 
L 30.28125 44.046875 
L 20.953125 44.046875 
L 20.953125 14.546875 
Q 20.953125 11.53125 22.140625 10.1875 
Q 23.34375 8.84375 26.421875 8.84375 
Q 28.46875 8.84375 30.5625 9.328125 
L 30.5625 0.140625 
Q 26.515625 -0.984375 22.75 -0.984375 
Q 9.078125 -0.984375 9.078125 14.109375 
L 9.078125 44.046875 
L 0.390625 44.046875 
L 0.390625 52.828125 
L 9.078125 52.828125 
L 9.078125 65.671875 
z
" id="Roboto-Medium-116"/>
        <path d="M 18.703125 0 
L 6.84375 0 
L 6.84375 52.828125 
L 18.703125 52.828125 
z
M 6.109375 66.546875 
Q 6.109375 69.28125 7.84375 71.09375 
Q 9.578125 72.90625 12.796875 72.90625 
Q 16.015625 72.90625 17.765625 71.09375 
Q 19.53125 69.28125 19.53125 66.546875 
Q 19.53125 63.875 17.765625 62.078125 
Q 16.015625 60.296875 12.796875 60.296875 
Q 9.578125 60.296875 7.84375 62.078125 
Q 6.109375 63.875 6.109375 66.546875 
z
" id="Roboto-Medium-105"/>
        <path d="M 3.859375 26.90625 
Q 3.859375 34.671875 6.9375 40.890625 
Q 10.015625 47.125 15.578125 50.46875 
Q 21.140625 53.8125 28.375 53.8125 
Q 39.0625 53.8125 45.71875 46.921875 
Q 52.390625 40.046875 52.9375 28.65625 
L 52.984375 25.875 
Q 52.984375 18.0625 49.96875 11.90625 
Q 46.96875 5.765625 41.375 2.390625 
Q 35.796875 -0.984375 28.46875 -0.984375 
Q 17.28125 -0.984375 10.5625 6.46875 
Q 3.859375 13.921875 3.859375 26.3125 
z
M 15.71875 25.875 
Q 15.71875 17.71875 19.09375 13.109375 
Q 22.46875 8.5 28.46875 8.5 
Q 34.46875 8.5 37.8125 13.1875 
Q 41.15625 17.875 41.15625 26.90625 
Q 41.15625 34.90625 37.71875 39.59375 
Q 34.28125 44.28125 28.375 44.28125 
Q 22.5625 44.28125 19.140625 39.671875 
Q 15.71875 35.0625 15.71875 25.875 
z
M 31.640625 75 
L 45.171875 75 
L 31.640625 60.203125 
L 22.125 60.203125 
z
" id="Roboto-Medium-243"/>
       </defs>
       <use xlink:href="#Roboto-Medium-70"/>
       <use x="54.931641" xlink:href="#Roboto-Medium-111"/>
       <use x="111.865234" xlink:href="#Roboto-Medium-110"/>
       <use x="167.480469" xlink:href="#Roboto-Medium-116"/>
       <use x="200.732422" xlink:href="#Roboto-Medium-105"/>
       <use x="226.269531" xlink:href="#Roboto-Medium-98"/>
       <use x="282.568359" xlink:href="#Roboto-Medium-243"/>
       <use x="339.501953" xlink:href="#Roboto-Medium-110"/>
      </g>
     </g>
    </g>
    <g id="xtick_6">
     <g id="line2d_6">
      <g>
       <use style="stroke:#000000;stroke-width:0.8;" x="394.035193" xlink:href="#madd8957adf" y="226.614286"/>
      </g>
     </g>
     <g id="text_6">
      <!-- Engativá -->
      <g transform="translate(397.016365 275.998661)rotate(-90)scale(0.11 -0.11)">
       <defs>
        <path d="M 48.78125 31.734375 
L 19.578125 31.734375 
L 19.578125 9.859375 
L 53.71875 9.859375 
L 53.71875 0 
L 7.234375 0 
L 7.234375 71.09375 
L 53.375 71.09375 
L 53.375 61.140625 
L 19.578125 61.140625 
L 19.578125 41.5 
L 48.78125 41.5 
z
" id="Roboto-Medium-69"/>
        <path d="M 4 26.8125 
Q 4 39.109375 9.78125 46.453125 
Q 15.578125 53.8125 25.140625 53.8125 
Q 34.1875 53.8125 39.359375 47.515625 
L 39.890625 52.828125 
L 50.59375 52.828125 
L 50.59375 1.609375 
Q 50.59375 -8.796875 44.109375 -14.796875 
Q 37.640625 -20.796875 26.65625 -20.796875 
Q 20.84375 -20.796875 15.296875 -18.375 
Q 9.765625 -15.96875 6.890625 -12.0625 
L 12.5 -4.9375 
Q 17.96875 -11.421875 25.984375 -11.421875 
Q 31.890625 -11.421875 35.296875 -8.21875 
Q 38.71875 -5.03125 38.71875 1.171875 
L 38.71875 4.734375 
Q 33.59375 -0.984375 25.046875 -0.984375 
Q 15.765625 -0.984375 9.875 6.390625 
Q 4 13.765625 4 26.8125 
z
M 15.828125 25.78125 
Q 15.828125 17.828125 19.0625 13.25 
Q 22.3125 8.6875 28.078125 8.6875 
Q 35.25 8.6875 38.71875 14.84375 
L 38.71875 38.09375 
Q 35.359375 44.09375 28.171875 44.09375 
Q 22.3125 44.09375 19.0625 39.453125 
Q 15.828125 34.8125 15.828125 25.78125 
z
" id="Roboto-Medium-103"/>
        <path d="M 24.703125 15.046875 
L 35.890625 52.828125 
L 48.140625 52.828125 
L 29.828125 0 
L 19.53125 0 
L 1.078125 52.828125 
L 13.375 52.828125 
z
" id="Roboto-Medium-118"/>
        <path d="M 37.640625 0 
Q 36.859375 1.515625 36.28125 4.9375 
Q 30.609375 -0.984375 22.40625 -0.984375 
Q 14.453125 -0.984375 9.421875 3.5625 
Q 4.390625 8.109375 4.390625 14.796875 
Q 4.390625 23.25 10.65625 27.765625 
Q 16.9375 32.28125 28.609375 32.28125 
L 35.890625 32.28125 
L 35.890625 35.75 
Q 35.890625 39.84375 33.59375 42.3125 
Q 31.296875 44.78125 26.609375 44.78125 
Q 22.5625 44.78125 19.96875 42.75 
Q 17.390625 40.71875 17.390625 37.59375 
L 5.515625 37.59375 
Q 5.515625 41.9375 8.390625 45.71875 
Q 11.28125 49.515625 16.234375 51.65625 
Q 21.1875 53.8125 27.296875 53.8125 
Q 36.578125 53.8125 42.09375 49.140625 
Q 47.609375 44.484375 47.75 36.03125 
L 47.75 12.203125 
Q 47.75 5.078125 49.75 0.828125 
L 49.75 0 
z
M 24.609375 8.546875 
Q 28.125 8.546875 31.21875 10.25 
Q 34.328125 11.96875 35.890625 14.84375 
L 35.890625 24.8125 
L 29.5 24.8125 
Q 22.90625 24.8125 19.578125 22.515625 
Q 16.265625 20.21875 16.265625 16.015625 
Q 16.265625 12.59375 18.53125 10.5625 
Q 20.796875 8.546875 24.609375 8.546875 
z
M 31.203125 75 
L 44.734375 75 
L 31.203125 60.203125 
L 21.6875 60.203125 
z
" id="Roboto-Medium-225"/>
       </defs>
       <use xlink:href="#Roboto-Medium-69"/>
       <use x="56.542969" xlink:href="#Roboto-Medium-110"/>
       <use x="112.158203" xlink:href="#Roboto-Medium-103"/>
       <use x="168.847656" xlink:href="#Roboto-Medium-97"/>
       <use x="222.949219" xlink:href="#Roboto-Medium-116"/>
       <use x="256.201172" xlink:href="#Roboto-Medium-105"/>
       <use x="281.738281" xlink:href="#Roboto-Medium-118"/>
       <use x="331.201172" xlink:href="#Roboto-Medium-225"/>
      </g>
     </g>
    </g>
   </g>
   <g id="matplotlib.axis_2">
    <g id="ytick_1">
     <g id="line2d_7">
      <defs>
       <path d="M 0 0 
L -3.5 0 
" id="md4950ab3ee" style="stroke:#000000;stroke-width:0.8;"/>
      </defs>
      <g>
       <use style="stroke:#000000;stroke-width:0.8;" x="37.6" xlink:href="#md4950ab3ee" y="226.614286"/>
      </g>
     </g>
     <g id="text_7">
      <!-- 0.00 -->
      <g transform="translate(10.753125 230.364286)scale(0.1 -0.1)">
       <defs>
        <path d="M 51.65625 29.9375 
Q 51.65625 14.59375 45.921875 6.796875 
Q 40.1875 -0.984375 28.46875 -0.984375 
Q 16.9375 -0.984375 11.109375 6.609375 
Q 5.28125 14.203125 5.125 29.109375 
L 5.125 41.40625 
Q 5.125 56.734375 10.859375 64.40625 
Q 16.609375 72.078125 28.375 72.078125 
Q 40.046875 72.078125 45.78125 64.59375 
Q 51.515625 57.125 51.65625 42.234375 
z
M 39.796875 43.21875 
Q 39.796875 53.21875 37.0625 57.875 
Q 34.328125 62.546875 28.375 62.546875 
Q 22.5625 62.546875 19.828125 58.125 
Q 17.09375 53.71875 16.9375 44.34375 
L 16.9375 28.21875 
Q 16.9375 18.265625 19.71875 13.375 
Q 22.515625 8.5 28.46875 8.5 
Q 34.1875 8.5 36.921875 13.015625 
Q 39.65625 17.53125 39.796875 27.15625 
z
" id="Roboto-Medium-48"/>
        <path d="M 13.484375 12.5 
Q 16.796875 12.5 18.59375 10.609375 
Q 20.40625 8.734375 20.40625 5.90625 
Q 20.40625 3.125 18.59375 1.296875 
Q 16.796875 -0.53125 13.484375 -0.53125 
Q 10.296875 -0.53125 8.4375 1.265625 
Q 6.59375 3.078125 6.59375 5.90625 
Q 6.59375 8.734375 8.390625 10.609375 
Q 10.203125 12.5 13.484375 12.5 
z
" id="Roboto-Medium-46"/>
       </defs>
       <use xlink:href="#Roboto-Medium-48"/>
       <use x="56.835938" xlink:href="#Roboto-Medium-46"/>
       <use x="84.765625" xlink:href="#Roboto-Medium-48"/>
       <use x="141.601562" xlink:href="#Roboto-Medium-48"/>
      </g>
     </g>
    </g>
    <g id="ytick_2">
     <g id="line2d_8">
      <g>
       <use style="stroke:#000000;stroke-width:0.8;" x="37.6" xlink:href="#md4950ab3ee" y="204.964643"/>
      </g>
     </g>
     <g id="text_8">
      <!-- 0.25 -->
      <g transform="translate(10.753125 208.714643)scale(0.1 -0.1)">
       <defs>
        <path d="M 53.125 0 
L 5.328125 0 
L 5.328125 8.15625 
L 29 33.984375 
Q 34.125 39.703125 36.296875 43.53125 
Q 38.484375 47.359375 38.484375 51.21875 
Q 38.484375 56.296875 35.625 59.421875 
Q 32.765625 62.546875 27.9375 62.546875 
Q 22.171875 62.546875 19 59.03125 
Q 15.828125 55.515625 15.828125 49.421875 
L 3.953125 49.421875 
Q 3.953125 55.90625 6.90625 61.109375 
Q 9.859375 66.3125 15.34375 69.1875 
Q 20.84375 72.078125 28.03125 72.078125 
Q 38.375 72.078125 44.359375 66.875 
Q 50.34375 61.671875 50.34375 52.484375 
Q 50.34375 47.171875 47.34375 41.328125 
Q 44.34375 35.5 37.5 28.078125 
L 20.125 9.46875 
L 53.125 9.46875 
z
" id="Roboto-Medium-50"/>
        <path d="M 8.5 35.25 
L 12.359375 71.09375 
L 50.53125 71.09375 
L 50.53125 60.84375 
L 22.21875 60.84375 
L 20.265625 43.84375 
Q 25.203125 46.6875 31.390625 46.6875 
Q 41.546875 46.6875 47.1875 40.1875 
Q 52.828125 33.6875 52.828125 22.703125 
Q 52.828125 11.859375 46.578125 5.4375 
Q 40.328125 -0.984375 29.4375 -0.984375 
Q 19.671875 -0.984375 13.25 4.5625 
Q 6.84375 10.109375 6.296875 19.1875 
L 17.78125 19.1875 
Q 18.453125 14.015625 21.484375 11.25 
Q 24.515625 8.5 29.390625 8.5 
Q 34.859375 8.5 37.90625 12.40625 
Q 40.96875 16.3125 40.96875 23.046875 
Q 40.96875 29.546875 37.59375 33.328125 
Q 34.234375 37.109375 28.328125 37.109375 
Q 25.09375 37.109375 22.84375 36.25 
Q 20.609375 35.40625 17.96875 32.90625 
z
" id="Roboto-Medium-53"/>
       </defs>
       <use xlink:href="#Roboto-Medium-48"/>
       <use x="56.835938" xlink:href="#Roboto-Medium-46"/>
       <use x="84.765625" xlink:href="#Roboto-Medium-50"/>
       <use x="141.601562" xlink:href="#Roboto-Medium-53"/>
      </g>
     </g>
    </g>
    <g id="ytick_3">
     <g id="line2d_9">
      <g>
       <use style="stroke:#000000;stroke-width:0.8;" x="37.6" xlink:href="#md4950ab3ee" y="183.315"/>
      </g>
     </g>
     <g id="text_9">
      <!-- 0.50 -->
      <g transform="translate(10.753125 187.065)scale(0.1 -0.1)">
       <use xlink:href="#Roboto-Medium-48"/>
       <use x="56.835938" xlink:href="#Roboto-Medium-46"/>
       <use x="84.765625" xlink:href="#Roboto-Medium-53"/>
       <use x="141.601562" xlink:href="#Roboto-Medium-48"/>
      </g>
     </g>
    </g>
    <g id="ytick_4">
     <g id="line2d_10">
      <g>
       <use style="stroke:#000000;stroke-width:0.8;" x="37.6" xlink:href="#md4950ab3ee" y="161.665357"/>
      </g>
     </g>
     <g id="text_10">
      <!-- 0.75 -->
      <g transform="translate(10.753125 165.415357)scale(0.1 -0.1)">
       <defs>
        <path d="M 52.640625 64.5 
L 24.21875 0 
L 11.765625 0 
L 40.140625 61.578125 
L 3.375 61.578125 
L 3.375 71.09375 
L 52.640625 71.09375 
z
" id="Roboto-Medium-55"/>
       </defs>
       <use xlink:href="#Roboto-Medium-48"/>
       <use x="56.835938" xlink:href="#Roboto-Medium-46"/>
       <use x="84.765625" xlink:href="#Roboto-Medium-55"/>
       <use x="141.601562" xlink:href="#Roboto-Medium-53"/>
      </g>
     </g>
    </g>
    <g id="ytick_5">
     <g id="line2d_11">
      <g>
       <use style="stroke:#000000;stroke-width:0.8;" x="37.6" xlink:href="#md4950ab3ee" y="140.015714"/>
      </g>
     </g>
     <g id="text_11">
      <!-- 1.00 -->
      <g transform="translate(10.753125 143.765714)scale(0.1 -0.1)">
       <defs>
        <path d="M 37.453125 0 
L 25.640625 0 
L 25.640625 57.078125 
L 8.203125 51.125 
L 8.203125 61.140625 
L 35.9375 71.34375 
L 37.453125 71.34375 
z
" id="Roboto-Medium-49"/>
       </defs>
       <use xlink:href="#Roboto-Medium-49"/>
       <use x="56.835938" xlink:href="#Roboto-Medium-46"/>
       <use x="84.765625" xlink:href="#Roboto-Medium-48"/>
       <use x="141.601562" xlink:href="#Roboto-Medium-48"/>
      </g>
     </g>
    </g>
    <g id="ytick_6">
     <g id="line2d_12">
      <g>
       <use style="stroke:#000000;stroke-width:0.8;" x="37.6" xlink:href="#md4950ab3ee" y="118.366071"/>
      </g>
     </g>
     <g id="text_12">
      <!-- 1.25 -->
      <g transform="translate(10.753125 122.116071)scale(0.1 -0.1)">
       <use xlink:href="#Roboto-Medium-49"/>
       <use x="56.835938" xlink:href="#Roboto-Medium-46"/>
       <use x="84.765625" xlink:href="#Roboto-Medium-50"/>
       <use x="141.601562" xlink:href="#Roboto-Medium-53"/>
      </g>
     </g>
    </g>
    <g id="ytick_7">
     <g id="line2d_13">
      <g>
       <use style="stroke:#000000;stroke-width:0.8;" x="37.6" xlink:href="#md4950ab3ee" y="96.716429"/>
      </g>
     </g>
     <g id="text_13">
      <!-- 1.50 -->
      <g transform="translate(10.753125 100.466429)scale(0.1 -0.1)">
       <use xlink:href="#Roboto-Medium-49"/>
       <use x="56.835938" xlink:href="#Roboto-Medium-46"/>
       <use x="84.765625" xlink:href="#Roboto-Medium-53"/>
       <use x="141.601562" xlink:href="#Roboto-Medium-48"/>
      </g>
     </g>
    </g>
    <g id="ytick_8">
     <g id="line2d_14">
      <g>
       <use style="stroke:#000000;stroke-width:0.8;" x="37.6" xlink:href="#md4950ab3ee" y="75.066786"/>
      </g>
     </g>
     <g id="text_14">
      <!-- 1.75 -->
      <g transform="translate(10.753125 78.816786)scale(0.1 -0.1)">
       <use xlink:href="#Roboto-Medium-49"/>
       <use x="56.835938" xlink:href="#Roboto-Medium-46"/>
       <use x="84.765625" xlink:href="#Roboto-Medium-55"/>
       <use x="141.601562" xlink:href="#Roboto-Medium-53"/>
      </g>
     </g>
    </g>
    <g id="ytick_9">
     <g id="line2d_15">
      <g>
       <use style="stroke:#000000;stroke-width:0.8;" x="37.6" xlink:href="#md4950ab3ee" y="53.417143"/>
      </g>
     </g>
     <g id="text_15">
      <!-- 2.00 -->
      <g transform="translate(10.753125 57.167143)scale(0.1 -0.1)">
       <use xlink:href="#Roboto-Medium-50"/>
       <use x="56.835938" xlink:href="#Roboto-Medium-46"/>
       <use x="84.765625" xlink:href="#Roboto-Medium-48"/>
       <use x="141.601562" xlink:href="#Roboto-Medium-48"/>
      </g>
     </g>
    </g>
   </g>
   <g id="LineCollection_1">
    <path clip-path="url(#p0dcc241989)" d="M 64.764807 199.768729 
L 64.764807 167.727257 
" style="fill:none;stroke:#4c4c4c;stroke-opacity:0.5;"/>
    <path clip-path="url(#p0dcc241989)" d="M 130.618884 194.572814 
L 130.618884 159.0674 
" style="fill:none;stroke:#4c4c4c;stroke-opacity:0.5;"/>
    <path clip-path="url(#p0dcc241989)" d="M 196.472961 192.840843 
L 196.472961 156.469443 
" style="fill:none;stroke:#4c4c4c;stroke-opacity:0.5;"/>
    <path clip-path="url(#p0dcc241989)" d="M 262.327039 185.912957 
L 262.327039 155.603457 
" style="fill:none;stroke:#4c4c4c;stroke-opacity:0.5;"/>
    <path clip-path="url(#p0dcc241989)" d="M 328.181116 187.644929 
L 328.181116 147.809586 
" style="fill:none;stroke:#4c4c4c;stroke-opacity:0.5;"/>
    <path clip-path="url(#p0dcc241989)" d="M 394.035193 178.119086 
L 394.035193 145.211629 
" style="fill:none;stroke:#4c4c4c;stroke-opacity:0.5;"/>
   </g>
   <g id="line2d_16">
    <defs>
     <path d="M 2 0 
L -2 -0 
" id="me3b503979a" style="stroke:#4c4c4c;stroke-opacity:0.5;"/>
    </defs>
    <g clip-path="url(#p0dcc241989)">
     <use style="fill:#4c4c4c;fill-opacity:0.5;stroke:#4c4c4c;stroke-opacity:0.5;" x="64.764807" xlink:href="#me3b503979a" y="199.768729"/>
     <use style="fill:#4c4c4c;fill-opacity:0.5;stroke:#4c4c4c;stroke-opacity:0.5;" x="130.618884" xlink:href="#me3b503979a" y="194.572814"/>
     <use style="fill:#4c4c4c;fill-opacity:0.5;stroke:#4c4c4c;stroke-opacity:0.5;" x="196.472961" xlink:href="#me3b503979a" y="192.840843"/>
     <use style="fill:#4c4c4c;fill-opacity:0.5;stroke:#4c4c4c;stroke-opacity:0.5;" x="262.327039" xlink:href="#me3b503979a" y="185.912957"/>
     <use style="fill:#4c4c4c;fill-opacity:0.5;stroke:#4c4c4c;stroke-opacity:0.5;" x="328.181116" xlink:href="#me3b503979a" y="187.644929"/>
     <use style="fill:#4c4c4c;fill-opacity:0.5;stroke:#4c4c4c;stroke-opacity:0.5;" x="394.035193" xlink:href="#me3b503979a" y="178.119086"/>
    </g>
   </g>
   <g id="line2d_17">
    <g clip-path="url(#p0dcc241989)">
     <use style="fill:#4c4c4c;fill-opacity:0.5;stroke:#4c4c4c;stroke-opacity:0.5;" x="64.764807" xlink:href="#me3b503979a" y="167.727257"/>
     <use style="fill:#4c4c4c;fill-opacity:0.5;stroke:#4c4c4c;stroke-opacity:0.5;" x="130.618884" xlink:href="#me3b503979a" y="159.0674"/>
     <use style="fill:#4c4c4c;fill-opacity:0.5;stroke:#4c4c4c;stroke-opacity:0.5;" x="196.472961" xlink:href="#me3b503979a" y="156.469443"/>
     <use style="fill:#4c4c4c;fill-opacity:0.5;stroke:#4c4c4c;stroke-opacity:0.5;" x="262.327039" xlink:href="#me3b503979a" y="155.603457"/>
     <use style="fill:#4c4c4c;fill-opacity:0.5;stroke:#4c4c4c;stroke-opacity:0.5;" x="328.181116" xlink:href="#me3b503979a" y="147.809586"/>
     <use style="fill:#4c4c4c;fill-opacity:0.5;stroke:#4c4c4c;stroke-opacity:0.5;" x="394.035193" xlink:href="#me3b503979a" y="145.211629"/>
    </g>
   </g>
   <g id="line2d_18">
    <path clip-path="url(#p0dcc241989)" d="M 37.6 140.015714 
L 421.2 140.015714 
" style="fill:none;stroke:#000000;stroke-dasharray:1,1.65;stroke-dashoffset:0;"/>
   </g>
   <g id="patch_9">
    <path d="M 37.6 226.614286 
L 37.6 53.417143 
" style="fill:none;stroke:#000000;stroke-linecap:square;stroke-linejoin:miter;stroke-width:0.8;"/>
   </g>
   <g id="patch_10">
    <path d="M 421.2 226.614286 
L 421.2 53.417143 
" style="fill:none;stroke:#000000;stroke-linecap:square;stroke-linejoin:miter;stroke-width:0.8;"/>
   </g>
   <g id="patch_11">
    <path d="M 37.6 226.614286 
L 421.2 226.614286 
" style="fill:none;stroke:#000000;stroke-linecap:square;stroke-linejoin:miter;stroke-width:0.8;"/>
   </g>
   <g id="patch_12">
    <path d="M 37.6 53.417143 
L 421.2 53.417143 
" style="fill:none;stroke:#000000;stroke-linecap:square;stroke-linejoin:miter;stroke-width:0.8;"/>
   </g>
   <g id="text_16">
    <!-- Localidades que tienen la  -->
    <g transform="translate(160.17875 20.818393)scale(0.12 -0.12)">
     <defs>
      <path d="M 17.671875 7.671875 
L 51.375 7.671875 
L 51.375 0 
L 8.25 0 
L 8.25 71.09375 
L 17.671875 71.09375 
z
" id="Roboto-Regular-76"/>
      <path d="M 4.4375 26.90625 
Q 4.4375 34.671875 7.484375 40.875 
Q 10.546875 47.078125 15.984375 50.4375 
Q 21.4375 53.8125 28.421875 53.8125 
Q 39.203125 53.8125 45.875 46.34375 
Q 52.546875 38.875 52.546875 26.46875 
L 52.546875 25.828125 
Q 52.546875 18.109375 49.578125 11.984375 
Q 46.625 5.859375 41.125 2.4375 
Q 35.640625 -0.984375 28.515625 -0.984375 
Q 17.78125 -0.984375 11.109375 6.484375 
Q 4.4375 13.96875 4.4375 26.265625 
z
M 13.53125 25.828125 
Q 13.53125 17.046875 17.609375 11.71875 
Q 21.6875 6.390625 28.515625 6.390625 
Q 35.40625 6.390625 39.453125 11.78125 
Q 43.5 17.1875 43.5 26.90625 
Q 43.5 35.59375 39.375 40.984375 
Q 35.25 46.390625 28.421875 46.390625 
Q 21.734375 46.390625 17.625 41.0625 
Q 13.53125 35.75 13.53125 25.828125 
z
" id="Roboto-Regular-111"/>
      <path d="M 28.03125 6.390625 
Q 32.859375 6.390625 36.46875 9.3125 
Q 40.09375 12.25 40.484375 16.65625 
L 49.03125 16.65625 
Q 48.78125 12.109375 45.890625 8 
Q 43.015625 3.90625 38.203125 1.453125 
Q 33.40625 -0.984375 28.03125 -0.984375 
Q 17.234375 -0.984375 10.859375 6.21875 
Q 4.5 13.421875 4.5 25.921875 
L 4.5 27.4375 
Q 4.5 35.15625 7.328125 41.15625 
Q 10.15625 47.171875 15.453125 50.484375 
Q 20.75 53.8125 27.984375 53.8125 
Q 36.859375 53.8125 42.75 48.484375 
Q 48.640625 43.171875 49.03125 34.671875 
L 40.484375 34.671875 
Q 40.09375 39.796875 36.59375 43.09375 
Q 33.109375 46.390625 27.984375 46.390625 
Q 21.09375 46.390625 17.3125 41.421875 
Q 13.53125 36.46875 13.53125 27.09375 
L 13.53125 25.390625 
Q 13.53125 16.265625 17.28125 11.328125 
Q 21.046875 6.390625 28.03125 6.390625 
z
" id="Roboto-Regular-99"/>
      <path d="M 39.453125 0 
Q 38.671875 1.5625 38.1875 5.5625 
Q 31.890625 -0.984375 23.140625 -0.984375 
Q 15.328125 -0.984375 10.328125 3.4375 
Q 5.328125 7.859375 5.328125 14.65625 
Q 5.328125 22.90625 11.59375 27.46875 
Q 17.875 32.03125 29.25 32.03125 
L 38.03125 32.03125 
L 38.03125 36.1875 
Q 38.03125 40.921875 35.203125 43.71875 
Q 32.375 46.53125 26.859375 46.53125 
Q 22.015625 46.53125 18.75 44.09375 
Q 15.484375 41.65625 15.484375 38.1875 
L 6.390625 38.1875 
Q 6.390625 42.140625 9.203125 45.828125 
Q 12.015625 49.515625 16.8125 51.65625 
Q 21.625 53.8125 27.390625 53.8125 
Q 36.53125 53.8125 41.703125 49.234375 
Q 46.875 44.671875 47.078125 36.671875 
L 47.078125 12.359375 
Q 47.078125 5.078125 48.921875 0.78125 
L 48.921875 0 
z
M 24.46875 6.890625 
Q 28.71875 6.890625 32.515625 9.078125 
Q 36.328125 11.28125 38.03125 14.796875 
L 38.03125 25.640625 
L 30.953125 25.640625 
Q 14.359375 25.640625 14.359375 15.921875 
Q 14.359375 11.671875 17.1875 9.28125 
Q 20.015625 6.890625 24.46875 6.890625 
z
" id="Roboto-Regular-97"/>
      <path d="M 16.65625 0 
L 7.625 0 
L 7.625 75 
L 16.65625 75 
z
" id="Roboto-Regular-108"/>
      <path d="M 16.65625 0 
L 7.625 0 
L 7.625 52.828125 
L 16.65625 52.828125 
z
M 6.890625 66.84375 
Q 6.890625 69.046875 8.234375 70.5625 
Q 9.578125 72.078125 12.203125 72.078125 
Q 14.84375 72.078125 16.203125 70.5625 
Q 17.578125 69.046875 17.578125 66.84375 
Q 17.578125 64.65625 16.203125 63.1875 
Q 14.84375 61.71875 12.203125 61.71875 
Q 9.578125 61.71875 8.234375 63.1875 
Q 6.890625 64.65625 6.890625 66.84375 
z
" id="Roboto-Regular-105"/>
      <path d="M 4.640625 26.859375 
Q 4.640625 39.015625 10.390625 46.40625 
Q 16.15625 53.8125 25.484375 53.8125 
Q 34.765625 53.8125 40.1875 47.46875 
L 40.1875 75 
L 49.21875 75 
L 49.21875 0 
L 40.921875 0 
L 40.484375 5.671875 
Q 35.0625 -0.984375 25.390625 -0.984375 
Q 16.21875 -0.984375 10.421875 6.53125 
Q 4.640625 14.0625 4.640625 26.171875 
z
M 13.671875 25.828125 
Q 13.671875 16.84375 17.375 11.765625 
Q 21.09375 6.6875 27.640625 6.6875 
Q 36.234375 6.6875 40.1875 14.40625 
L 40.1875 38.671875 
Q 36.140625 46.140625 27.734375 46.140625 
Q 21.09375 46.140625 17.375 41.015625 
Q 13.671875 35.890625 13.671875 25.828125 
z
" id="Roboto-Regular-100"/>
      <path d="M 28.765625 -0.984375 
Q 18.015625 -0.984375 11.28125 6.078125 
Q 4.546875 13.140625 4.546875 24.953125 
L 4.546875 26.609375 
Q 4.546875 34.46875 7.546875 40.640625 
Q 10.546875 46.828125 15.9375 50.3125 
Q 21.34375 53.8125 27.640625 53.8125 
Q 37.9375 53.8125 43.640625 47.015625 
Q 49.359375 40.234375 49.359375 27.59375 
L 49.359375 23.828125 
L 13.578125 23.828125 
Q 13.765625 16.015625 18.140625 11.203125 
Q 22.515625 6.390625 29.25 6.390625 
Q 34.03125 6.390625 37.34375 8.34375 
Q 40.671875 10.296875 43.171875 13.53125 
L 48.6875 9.234375 
Q 42.046875 -0.984375 28.765625 -0.984375 
z
M 27.640625 46.390625 
Q 22.171875 46.390625 18.453125 42.40625 
Q 14.75 38.421875 13.875 31.25 
L 40.328125 31.25 
L 40.328125 31.9375 
Q 39.9375 38.8125 36.609375 42.59375 
Q 33.296875 46.390625 27.640625 46.390625 
z
" id="Roboto-Regular-101"/>
      <path d="M 37.59375 14.015625 
Q 37.59375 17.671875 34.828125 19.703125 
Q 32.078125 21.734375 25.21875 23.1875 
Q 18.359375 24.65625 14.328125 26.703125 
Q 10.296875 28.765625 8.375 31.59375 
Q 6.453125 34.421875 6.453125 38.328125 
Q 6.453125 44.828125 11.9375 49.3125 
Q 17.4375 53.8125 25.984375 53.8125 
Q 34.96875 53.8125 40.546875 49.171875 
Q 46.140625 44.53125 46.140625 37.3125 
L 37.0625 37.3125 
Q 37.0625 41.015625 33.90625 43.703125 
Q 30.765625 46.390625 25.984375 46.390625 
Q 21.046875 46.390625 18.265625 44.234375 
Q 15.484375 42.09375 15.484375 38.625 
Q 15.484375 35.359375 18.0625 33.6875 
Q 20.65625 32.03125 27.421875 30.515625 
Q 34.1875 29 38.375 26.90625 
Q 42.578125 24.8125 44.59375 21.84375 
Q 46.625 18.890625 46.625 14.65625 
Q 46.625 7.5625 40.953125 3.28125 
Q 35.296875 -0.984375 26.265625 -0.984375 
Q 19.921875 -0.984375 15.03125 1.265625 
Q 10.15625 3.515625 7.390625 7.546875 
Q 4.640625 11.578125 4.640625 16.265625 
L 13.671875 16.265625 
Q 13.921875 11.71875 17.3125 9.046875 
Q 20.703125 6.390625 26.265625 6.390625 
Q 31.390625 6.390625 34.484375 8.46875 
Q 37.59375 10.546875 37.59375 14.015625 
z
" id="Roboto-Regular-115"/>
      <path id="Roboto-Regular-32"/>
      <path d="M 4.640625 26.859375 
Q 4.640625 39.3125 10.34375 46.5625 
Q 16.0625 53.8125 25.6875 53.8125 
Q 35.0625 53.8125 40.484375 47.515625 
L 40.875 52.828125 
L 49.171875 52.828125 
L 49.171875 -20.3125 
L 40.140625 -20.3125 
L 40.140625 4.890625 
Q 34.671875 -0.984375 25.59375 -0.984375 
Q 16.015625 -0.984375 10.328125 6.46875 
Q 4.640625 13.921875 4.640625 26.21875 
z
M 13.671875 25.828125 
Q 13.671875 16.75 17.5 11.5625 
Q 21.34375 6.390625 27.828125 6.390625 
Q 35.890625 6.390625 40.140625 13.53125 
L 40.140625 39.40625 
Q 35.84375 46.390625 27.9375 46.390625 
Q 21.390625 46.390625 17.53125 41.1875 
Q 13.671875 35.984375 13.671875 25.828125 
z
" id="Roboto-Regular-113"/>
      <path d="M 39.453125 5.21875 
Q 34.1875 -0.984375 23.96875 -0.984375 
Q 15.53125 -0.984375 11.109375 3.921875 
Q 6.6875 8.84375 6.640625 18.453125 
L 6.640625 52.828125 
L 15.671875 52.828125 
L 15.671875 18.703125 
Q 15.671875 6.6875 25.4375 6.6875 
Q 35.796875 6.6875 39.203125 14.40625 
L 39.203125 52.828125 
L 48.25 52.828125 
L 48.25 0 
L 39.65625 0 
z
" id="Roboto-Regular-117"/>
      <path d="M 19.09375 65.625 
L 19.09375 52.828125 
L 28.953125 52.828125 
L 28.953125 45.84375 
L 19.09375 45.84375 
L 19.09375 13.09375 
Q 19.09375 9.90625 20.40625 8.3125 
Q 21.734375 6.734375 24.90625 6.734375 
Q 26.46875 6.734375 29.203125 7.328125 
L 29.203125 0 
Q 25.640625 -0.984375 22.265625 -0.984375 
Q 16.21875 -0.984375 13.140625 2.671875 
Q 10.0625 6.34375 10.0625 13.09375 
L 10.0625 45.84375 
L 0.4375 45.84375 
L 0.4375 52.828125 
L 10.0625 52.828125 
L 10.0625 65.625 
z
" id="Roboto-Regular-116"/>
      <path d="M 15.375 52.828125 
L 15.671875 46.1875 
Q 21.734375 53.8125 31.5 53.8125 
Q 48.25 53.8125 48.390625 34.90625 
L 48.390625 0 
L 39.359375 0 
L 39.359375 34.96875 
Q 39.3125 40.671875 36.75 43.40625 
Q 34.1875 46.140625 28.765625 46.140625 
Q 24.359375 46.140625 21.03125 43.796875 
Q 17.71875 41.453125 15.875 37.640625 
L 15.875 0 
L 6.84375 0 
L 6.84375 52.828125 
z
" id="Roboto-Regular-110"/>
     </defs>
     <use xlink:href="#Roboto-Regular-76"/>
     <use x="53.808594" xlink:href="#Roboto-Regular-111"/>
     <use x="110.839844" xlink:href="#Roboto-Regular-99"/>
     <use x="163.183594" xlink:href="#Roboto-Regular-97"/>
     <use x="217.578125" xlink:href="#Roboto-Regular-108"/>
     <use x="241.845703" xlink:href="#Roboto-Regular-105"/>
     <use x="266.113281" xlink:href="#Roboto-Regular-100"/>
     <use x="322.509766" xlink:href="#Roboto-Regular-97"/>
     <use x="376.904297" xlink:href="#Roboto-Regular-100"/>
     <use x="433.300781" xlink:href="#Roboto-Regular-101"/>
     <use x="486.279297" xlink:href="#Roboto-Regular-115"/>
     <use x="537.841797" xlink:href="#Roboto-Regular-32"/>
     <use x="562.597656" xlink:href="#Roboto-Regular-113"/>
     <use x="619.433594" xlink:href="#Roboto-Regular-117"/>
     <use x="674.560547" xlink:href="#Roboto-Regular-101"/>
     <use x="727.539062" xlink:href="#Roboto-Regular-32"/>
     <use x="752.294922" xlink:href="#Roboto-Regular-116"/>
     <use x="784.960938" xlink:href="#Roboto-Regular-105"/>
     <use x="809.228516" xlink:href="#Roboto-Regular-101"/>
     <use x="862.207031" xlink:href="#Roboto-Regular-110"/>
     <use x="917.382812" xlink:href="#Roboto-Regular-101"/>
     <use x="970.361328" xlink:href="#Roboto-Regular-110"/>
     <use x="1025.537109" xlink:href="#Roboto-Regular-32"/>
     <use x="1050.292969" xlink:href="#Roboto-Regular-108"/>
     <use x="1074.560547" xlink:href="#Roboto-Regular-97"/>
     <use x="1128.955078" xlink:href="#Roboto-Regular-32"/>
    </g>
    <!--  pandemia bajo control  -->
    <g transform="translate(166.753437 34.055893)scale(0.12 -0.12)">
     <defs>
      <path d="M 51.46875 25.828125 
Q 51.46875 13.765625 45.953125 6.390625 
Q 40.4375 -0.984375 31 -0.984375 
Q 21.390625 -0.984375 15.875 5.125 
L 15.875 -20.3125 
L 6.84375 -20.3125 
L 6.84375 52.828125 
L 15.09375 52.828125 
L 15.53125 46.96875 
Q 21.046875 53.8125 30.859375 53.8125 
Q 40.375 53.8125 45.921875 46.625 
Q 51.46875 39.453125 51.46875 26.65625 
z
M 42.4375 26.859375 
Q 42.4375 35.796875 38.625 40.96875 
Q 34.8125 46.140625 28.171875 46.140625 
Q 19.96875 46.140625 15.875 38.875 
L 15.875 13.625 
Q 19.921875 6.390625 28.265625 6.390625 
Q 34.765625 6.390625 38.59375 11.546875 
Q 42.4375 16.703125 42.4375 26.859375 
z
" id="Roboto-Regular-112"/>
      <path d="M 15.328125 52.828125 
L 15.578125 46.96875 
Q 21.390625 53.8125 31.25 53.8125 
Q 42.328125 53.8125 46.34375 45.3125 
Q 48.96875 49.125 53.1875 51.46875 
Q 57.421875 53.8125 63.1875 53.8125 
Q 80.5625 53.8125 80.859375 35.40625 
L 80.859375 0 
L 71.828125 0 
L 71.828125 34.859375 
Q 71.828125 40.53125 69.234375 43.328125 
Q 66.65625 46.140625 60.546875 46.140625 
Q 55.515625 46.140625 52.1875 43.140625 
Q 48.875 40.140625 48.34375 35.0625 
L 48.34375 0 
L 39.265625 0 
L 39.265625 34.625 
Q 39.265625 46.140625 27.984375 46.140625 
Q 19.09375 46.140625 15.828125 38.578125 
L 15.828125 0 
L 6.78125 0 
L 6.78125 52.828125 
z
" id="Roboto-Regular-109"/>
      <path d="M 51.5625 25.828125 
Q 51.5625 13.71875 46 6.359375 
Q 40.4375 -0.984375 31.0625 -0.984375 
Q 21.046875 -0.984375 15.578125 6.109375 
L 15.140625 0 
L 6.84375 0 
L 6.84375 75 
L 15.875 75 
L 15.875 47.015625 
Q 21.34375 53.8125 30.953125 53.8125 
Q 40.578125 53.8125 46.0625 46.53125 
Q 51.5625 39.265625 51.5625 26.609375 
z
M 42.53125 26.859375 
Q 42.53125 36.078125 38.96875 41.109375 
Q 35.40625 46.140625 28.71875 46.140625 
Q 19.78125 46.140625 15.875 37.84375 
L 15.875 14.984375 
Q 20.015625 6.6875 28.8125 6.6875 
Q 35.296875 6.6875 38.90625 11.71875 
Q 42.53125 16.75 42.53125 26.859375 
z
" id="Roboto-Regular-98"/>
      <path d="M 16.15625 52.828125 
L 16.15625 -6.109375 
Q 16.15625 -21.34375 2.34375 -21.34375 
Q -0.640625 -21.34375 -3.171875 -20.453125 
L -3.171875 -13.234375 
Q -1.609375 -13.625 0.921875 -13.625 
Q 3.953125 -13.625 5.53125 -11.984375 
Q 7.125 -10.359375 7.125 -6.296875 
L 7.125 52.828125 
z
M 6.203125 66.84375 
Q 6.203125 69 7.546875 70.53125 
Q 8.890625 72.078125 11.46875 72.078125 
Q 14.109375 72.078125 15.46875 70.5625 
Q 16.84375 69.046875 16.84375 66.84375 
Q 16.84375 64.65625 15.46875 63.1875 
Q 14.109375 61.71875 11.46875 61.71875 
Q 8.84375 61.71875 7.515625 63.1875 
Q 6.203125 64.65625 6.203125 66.84375 
z
" id="Roboto-Regular-106"/>
      <path d="M 32.375 44.734375 
Q 30.328125 45.0625 27.9375 45.0625 
Q 19.046875 45.0625 15.875 37.5 
L 15.875 0 
L 6.84375 0 
L 6.84375 52.828125 
L 15.625 52.828125 
L 15.765625 46.734375 
Q 20.21875 53.8125 28.375 53.8125 
Q 31 53.8125 32.375 53.125 
z
" id="Roboto-Regular-114"/>
     </defs>
     <use xlink:href="#Roboto-Regular-32"/>
     <use x="24.755859" xlink:href="#Roboto-Regular-112"/>
     <use x="80.859375" xlink:href="#Roboto-Regular-97"/>
     <use x="135.253906" xlink:href="#Roboto-Regular-110"/>
     <use x="190.429688" xlink:href="#Roboto-Regular-100"/>
     <use x="246.826172" xlink:href="#Roboto-Regular-101"/>
     <use x="299.804688" xlink:href="#Roboto-Regular-109"/>
     <use x="387.451172" xlink:href="#Roboto-Regular-105"/>
     <use x="411.71875" xlink:href="#Roboto-Regular-97"/>
     <use x="466.113281" xlink:href="#Roboto-Regular-32"/>
     <use x="490.869141" xlink:href="#Roboto-Regular-98"/>
     <use x="546.972656" xlink:href="#Roboto-Regular-97"/>
     <use x="601.367188" xlink:href="#Roboto-Regular-106"/>
     <use x="625.244141" xlink:href="#Roboto-Regular-111"/>
     <use x="682.275391" xlink:href="#Roboto-Regular-32"/>
     <use x="707.03125" xlink:href="#Roboto-Regular-99"/>
     <use x="759.375" xlink:href="#Roboto-Regular-111"/>
     <use x="816.40625" xlink:href="#Roboto-Regular-110"/>
     <use x="871.582031" xlink:href="#Roboto-Regular-116"/>
     <use x="904.248047" xlink:href="#Roboto-Regular-114"/>
     <use x="938.085938" xlink:href="#Roboto-Regular-111"/>
     <use x="995.117188" xlink:href="#Roboto-Regular-108"/>
     <use x="1019.384766" xlink:href="#Roboto-Regular-32"/>
    </g>
    <!--  2021-06-23 -->
    <g transform="translate(197.64875 47.417143)scale(0.12 -0.12)">
     <defs>
      <path d="M 52.484375 0 
L 5.90625 0 
L 5.90625 6.5 
L 30.515625 33.84375 
Q 35.984375 40.046875 38.0625 43.921875 
Q 40.140625 47.796875 40.140625 51.953125 
Q 40.140625 57.515625 36.765625 61.078125 
Q 33.40625 64.65625 27.78125 64.65625 
Q 21.046875 64.65625 17.3125 60.8125 
Q 13.578125 56.984375 13.578125 50.140625 
L 4.546875 50.140625 
Q 4.546875 59.96875 10.859375 66.015625 
Q 17.1875 72.078125 27.78125 72.078125 
Q 37.703125 72.078125 43.453125 66.875 
Q 49.21875 61.671875 49.21875 53.03125 
Q 49.21875 42.53125 35.84375 28.03125 
L 16.796875 7.375 
L 52.484375 7.375 
z
" id="Roboto-Regular-50"/>
      <path d="M 50.484375 30.328125 
Q 50.484375 14.453125 45.0625 6.734375 
Q 39.65625 -0.984375 28.125 -0.984375 
Q 16.75 -0.984375 11.28125 6.5625 
Q 5.8125 14.109375 5.609375 29.109375 
L 5.609375 41.15625 
Q 5.609375 56.84375 11.03125 64.453125 
Q 16.453125 72.078125 28.03125 72.078125 
Q 39.5 72.078125 44.921875 64.71875 
Q 50.34375 57.375 50.484375 42.046875 
z
M 41.453125 42.671875 
Q 41.453125 54.15625 38.234375 59.40625 
Q 35.015625 64.65625 28.03125 64.65625 
Q 21.09375 64.65625 17.921875 59.421875 
Q 14.75 54.203125 14.65625 43.359375 
L 14.65625 28.90625 
Q 14.65625 17.390625 18 11.890625 
Q 21.34375 6.390625 28.125 6.390625 
Q 34.8125 6.390625 38.0625 11.5625 
Q 41.3125 16.75 41.453125 27.875 
z
" id="Roboto-Regular-48"/>
      <path d="M 35.59375 0 
L 26.515625 0 
L 26.515625 60.203125 
L 8.296875 53.515625 
L 8.296875 61.71875 
L 34.1875 71.4375 
L 35.59375 71.4375 
z
" id="Roboto-Regular-49"/>
      <path d="M 25.640625 26.515625 
L 1.8125 26.515625 
L 1.8125 33.890625 
L 25.640625 33.890625 
z
" id="Roboto-Regular-45"/>
      <path d="M 41.359375 71.140625 
L 41.359375 63.484375 
L 39.703125 63.484375 
Q 29.15625 63.28125 22.90625 57.21875 
Q 16.65625 51.171875 15.671875 40.1875 
Q 21.296875 46.625 31 46.625 
Q 40.28125 46.625 45.828125 40.078125 
Q 51.375 33.546875 51.375 23.1875 
Q 51.375 12.203125 45.390625 5.609375 
Q 39.40625 -0.984375 29.34375 -0.984375 
Q 19.140625 -0.984375 12.796875 6.859375 
Q 6.453125 14.703125 6.453125 27.046875 
L 6.453125 30.515625 
Q 6.453125 50.140625 14.8125 60.515625 
Q 23.1875 70.90625 39.75 71.140625 
z
M 29.5 39.109375 
Q 24.859375 39.109375 20.953125 36.328125 
Q 17.046875 33.546875 15.53125 29.34375 
L 15.53125 26.03125 
Q 15.53125 17.234375 19.484375 11.859375 
Q 23.4375 6.5 29.34375 6.5 
Q 35.453125 6.5 38.9375 10.984375 
Q 42.4375 15.484375 42.4375 22.75 
Q 42.4375 30.078125 38.890625 34.59375 
Q 35.359375 39.109375 29.5 39.109375 
z
" id="Roboto-Regular-54"/>
      <path d="M 19.046875 39.9375 
L 25.828125 39.9375 
Q 32.234375 40.046875 35.890625 43.3125 
Q 39.546875 46.578125 39.546875 52.15625 
Q 39.546875 64.65625 27.09375 64.65625 
Q 21.234375 64.65625 17.75 61.296875 
Q 14.265625 57.953125 14.265625 52.4375 
L 5.21875 52.4375 
Q 5.21875 60.890625 11.390625 66.484375 
Q 17.578125 72.078125 27.09375 72.078125 
Q 37.15625 72.078125 42.859375 66.75 
Q 48.578125 61.421875 48.578125 51.953125 
Q 48.578125 47.3125 45.578125 42.96875 
Q 42.578125 38.625 37.40625 36.46875 
Q 43.265625 34.625 46.453125 30.328125 
Q 49.65625 26.03125 49.65625 19.828125 
Q 49.65625 10.25 43.40625 4.625 
Q 37.15625 -0.984375 27.140625 -0.984375 
Q 17.140625 -0.984375 10.859375 4.4375 
Q 4.59375 9.859375 4.59375 18.75 
L 13.671875 18.75 
Q 13.671875 13.140625 17.328125 9.765625 
Q 21 6.390625 27.15625 6.390625 
Q 33.6875 6.390625 37.15625 9.8125 
Q 40.625 13.234375 40.625 19.625 
Q 40.625 25.828125 36.8125 29.140625 
Q 33.015625 32.46875 25.828125 32.5625 
L 19.046875 32.5625 
z
" id="Roboto-Regular-51"/>
     </defs>
     <use xlink:href="#Roboto-Regular-32"/>
     <use x="24.755859" xlink:href="#Roboto-Regular-50"/>
     <use x="80.908203" xlink:href="#Roboto-Regular-48"/>
     <use x="137.060547" xlink:href="#Roboto-Regular-50"/>
     <use x="193.212891" xlink:href="#Roboto-Regular-49"/>
     <use x="249.365234" xlink:href="#Roboto-Regular-45"/>
     <use x="276.953125" xlink:href="#Roboto-Regular-48"/>
     <use x="333.105469" xlink:href="#Roboto-Regular-54"/>
     <use x="389.257812" xlink:href="#Roboto-Regular-45"/>
     <use x="416.845703" xlink:href="#Roboto-Regular-50"/>
     <use x="472.998047" xlink:href="#Roboto-Regular-51"/>
    </g>
   </g>
  </g>
 </g>
 <defs>
  <clipPath id="p0dcc241989">
   <rect height="173.197143" width="383.6" x="37.6" y="53.417143"/>
  </clipPath>
 </defs>
</svg>
