<?xml version="1.0" encoding="utf-8" standalone="no"?>
<!DOCTYPE svg PUBLIC "-//W3C//DTD SVG 1.1//EN"
  "http://www.w3.org/Graphics/SVG/1.1/DTD/svg11.dtd">
<!-- Created with matplotlib (https://matplotlib.org/) -->
<svg height="288pt" version="1.1" viewBox="0 0 432 288" width="432pt" xmlns="http://www.w3.org/2000/svg" xmlns:xlink="http://www.w3.org/1999/xlink">
 <metadata>
  <rdf:RDF xmlns:cc="http://creativecommons.org/ns#" xmlns:dc="http://purl.org/dc/elements/1.1/" xmlns:rdf="http://www.w3.org/1999/02/22-rdf-syntax-ns#">
   <cc:Work>
    <dc:type rdf:resource="http://purl.org/dc/dcmitype/StillImage"/>
    <dc:date>2021-07-10T15:01:19.026903</dc:date>
    <dc:format>image/svg+xml</dc:format>
    <dc:creator>
     <cc:Agent>
      <dc:title>Matplotlib v3.3.4, https://matplotlib.org/</dc:title>
     </cc:Agent>
    </dc:creator>
   </cc:Work>
  </rdf:RDF>
 </metadata>
 <defs>
  <style type="text/css">*{stroke-linecap:butt;stroke-linejoin:round;}</style>
 </defs>
 <g id="figure_1">
  <g id="patch_1">
   <path d="M 0 288 
L 432 288 
L 432 0 
L 0 0 
z
" style="fill:#ffffff;"/>
  </g>
  <g id="axes_1">
   <g id="patch_2">
    <path d="M 37.342857 180.071429 
L 421.2 180.071429 
L 421.2 61.942857 
L 37.342857 61.942857 
z
" style="fill:#ffffff;"/>
   </g>
   <g id="patch_3">
    <path clip-path="url(#p3b14b2da9d)" d="M 37.342857 180.071429 
L 66.597559 180.071429 
L 66.597559 152.901857 
L 37.342857 152.901857 
z
" style="fill:#b2b2b2;"/>
   </g>
   <g id="patch_4">
    <path clip-path="url(#p3b14b2da9d)" d="M 72.803101 180.071429 
L 102.057803 180.071429 
L 102.057803 148.767357 
L 72.803101 148.767357 
z
" style="fill:#b2b2b2;"/>
   </g>
   <g id="patch_5">
    <path clip-path="url(#p3b14b2da9d)" d="M 108.263345 180.071429 
L 137.518047 180.071429 
L 137.518047 146.995429 
L 108.263345 146.995429 
z
" style="fill:#b2b2b2;"/>
   </g>
   <g id="patch_6">
    <path clip-path="url(#p3b14b2da9d)" d="M 143.72359 180.071429 
L 172.978291 180.071429 
L 172.978291 145.814143 
L 143.72359 145.814143 
z
" style="fill:#b2b2b2;"/>
   </g>
   <g id="patch_7">
    <path clip-path="url(#p3b14b2da9d)" d="M 179.183834 180.071429 
L 208.438535 180.071429 
L 208.438535 145.814143 
L 179.183834 145.814143 
z
" style="fill:#b2b2b2;"/>
   </g>
   <g id="patch_8">
    <path clip-path="url(#p3b14b2da9d)" d="M 214.644078 180.071429 
L 243.898779 180.071429 
L 243.898779 145.2235 
L 214.644078 145.2235 
z
" style="fill:#b2b2b2;"/>
   </g>
   <g id="patch_9">
    <path clip-path="url(#p3b14b2da9d)" d="M 250.104322 180.071429 
L 279.359023 180.071429 
L 279.359023 140.498357 
L 250.104322 140.498357 
z
" style="fill:#b2b2b2;"/>
   </g>
   <g id="patch_10">
    <path clip-path="url(#p3b14b2da9d)" d="M 285.564566 180.071429 
L 314.819268 180.071429 
L 314.819268 140.498357 
L 285.564566 140.498357 
z
" style="fill:#b2b2b2;"/>
   </g>
   <g id="patch_11">
    <path clip-path="url(#p3b14b2da9d)" d="M 321.02481 180.071429 
L 350.279512 180.071429 
L 350.279512 139.317071 
L 321.02481 139.317071 
z
" style="fill:#b2b2b2;"/>
   </g>
   <g id="patch_12">
    <path clip-path="url(#p3b14b2da9d)" d="M 356.485054 180.071429 
L 385.739756 180.071429 
L 385.739756 138.726429 
L 356.485054 138.726429 
z
" style="fill:#b2b2b2;"/>
   </g>
   <g id="patch_13">
    <path clip-path="url(#p3b14b2da9d)" d="M 391.945299 180.071429 
L 421.2 180.071429 
L 421.2 138.726429 
L 391.945299 138.726429 
z
" style="fill:#b2b2b2;"/>
   </g>
   <g id="matplotlib.axis_1">
    <g id="xtick_1">
     <g id="line2d_1">
      <defs>
       <path d="M 0 0 
L 0 3.5 
" id="mcab3c7074b" style="stroke:#555555;stroke-width:0.8;"/>
      </defs>
      <g>
       <use style="fill:#555555;stroke:#555555;stroke-width:0.8;" x="51.970208" xlink:href="#mcab3c7074b" y="180.071429"/>
      </g>
     </g>
     <g id="text_1">
      <!-- Suba -->
      <g style="fill:#555555;" transform="translate(54.81388 212.744397)rotate(-90)scale(0.11 -0.11)">
       <defs>
        <path d="M 49.09375 50.5 
L 58.09375 50.5 
Q 57.90625 56.40625 55.84375 60.65625 
Q 53.796875 64.90625 50.25 67.703125 
Q 46.703125 70.5 42 71.796875 
Q 37.296875 73.09375 31.796875 73.09375 
Q 26.90625 73.09375 22.25 71.84375 
Q 17.59375 70.59375 13.9375 68.046875 
Q 10.296875 65.5 8.09375 61.546875 
Q 5.90625 57.59375 5.90625 52.203125 
Q 5.90625 47.296875 7.84375 44.046875 
Q 9.796875 40.796875 13.046875 38.75 
Q 16.296875 36.703125 20.390625 35.453125 
Q 24.5 34.203125 28.75 33.25 
Q 33 32.296875 37.09375 31.390625 
Q 41.203125 30.5 44.453125 29.046875 
Q 47.703125 27.59375 49.640625 25.296875 
Q 51.59375 23 51.59375 19.296875 
Q 51.59375 15.40625 50 12.90625 
Q 48.40625 10.40625 45.796875 8.953125 
Q 43.203125 7.5 39.953125 6.890625 
Q 36.703125 6.296875 33.5 6.296875 
Q 29.5 6.296875 25.703125 7.296875 
Q 21.90625 8.296875 19.046875 10.390625 
Q 16.203125 12.5 14.453125 15.75 
Q 12.703125 19 12.703125 23.5 
L 3.703125 23.5 
Q 3.703125 17 6.046875 12.25 
Q 8.40625 7.5 12.453125 4.453125 
Q 16.5 1.40625 21.84375 -0.09375 
Q 27.203125 -1.59375 33.203125 -1.59375 
Q 38.09375 -1.59375 43.046875 -0.4375 
Q 48 0.703125 52 3.25 
Q 56 5.796875 58.546875 9.84375 
Q 61.09375 13.90625 61.09375 19.59375 
Q 61.09375 24.90625 59.140625 28.40625 
Q 57.203125 31.90625 53.953125 34.203125 
Q 50.703125 36.5 46.59375 37.84375 
Q 42.5 39.203125 38.25 40.203125 
Q 34 41.203125 29.890625 42.046875 
Q 25.796875 42.90625 22.546875 44.203125 
Q 19.296875 45.5 17.34375 47.546875 
Q 15.40625 49.59375 15.40625 52.90625 
Q 15.40625 56.40625 16.75 58.75 
Q 18.09375 61.09375 20.34375 62.5 
Q 22.59375 63.90625 25.5 64.5 
Q 28.40625 65.09375 31.40625 65.09375 
Q 38.796875 65.09375 43.546875 61.640625 
Q 48.296875 58.203125 49.09375 50.5 
z
" id="HelveticaNeue-83"/>
        <path d="M 49.203125 0 
L 49.203125 51.703125 
L 40.703125 51.703125 
L 40.703125 22.5 
Q 40.703125 19 39.75 16.046875 
Q 38.796875 13.09375 36.890625 10.890625 
Q 35 8.703125 32.140625 7.5 
Q 29.296875 6.296875 25.40625 6.296875 
Q 20.5 6.296875 17.703125 9.09375 
Q 14.90625 11.90625 14.90625 16.703125 
L 14.90625 51.703125 
L 6.40625 51.703125 
L 6.40625 17.703125 
Q 6.40625 13.5 7.25 10.046875 
Q 8.09375 6.59375 10.1875 4.09375 
Q 12.296875 1.59375 15.6875 0.25 
Q 19.09375 -1.09375 24.203125 -1.09375 
Q 29.90625 -1.09375 34.09375 1.15625 
Q 38.296875 3.40625 41 8.203125 
L 41.203125 8.203125 
L 41.203125 0 
z
" id="HelveticaNeue-117"/>
        <path d="M 6.703125 71.40625 
L 6.703125 0 
L 15.203125 0 
L 15.203125 6.90625 
L 15.40625 6.90625 
Q 16.796875 4.59375 18.84375 3.046875 
Q 20.90625 1.5 23.203125 0.59375 
Q 25.5 -0.296875 27.84375 -0.6875 
Q 30.203125 -1.09375 32.09375 -1.09375 
Q 38 -1.09375 42.453125 1 
Q 46.90625 3.09375 49.84375 6.75 
Q 52.796875 10.40625 54.25 15.296875 
Q 55.703125 20.203125 55.703125 25.703125 
Q 55.703125 31.203125 54.203125 36.09375 
Q 52.703125 41 49.75 44.75 
Q 46.796875 48.5 42.34375 50.703125 
Q 37.90625 52.90625 31.90625 52.90625 
Q 26.5 52.90625 22 50.953125 
Q 17.5 49 15.40625 44.703125 
L 15.203125 44.703125 
L 15.203125 71.40625 
z
M 46.703125 26.296875 
Q 46.703125 22.5 45.890625 18.890625 
Q 45.09375 15.296875 43.296875 12.5 
Q 41.5 9.703125 38.546875 8 
Q 35.59375 6.296875 31.203125 6.296875 
Q 26.796875 6.296875 23.6875 7.9375 
Q 20.59375 9.59375 18.640625 12.296875 
Q 16.703125 15 15.796875 18.546875 
Q 14.90625 22.09375 14.90625 25.90625 
Q 14.90625 29.5 15.75 33 
Q 16.59375 36.5 18.5 39.25 
Q 20.40625 42 23.40625 43.703125 
Q 26.40625 45.40625 30.703125 45.40625 
Q 34.796875 45.40625 37.84375 43.796875 
Q 40.90625 42.203125 42.84375 39.5 
Q 44.796875 36.796875 45.75 33.34375 
Q 46.703125 29.90625 46.703125 26.296875 
z
" id="HelveticaNeue-98"/>
        <path d="M 52.203125 0.203125 
Q 50 -1.09375 46.09375 -1.09375 
Q 42.796875 -1.09375 40.84375 0.75 
Q 38.90625 2.59375 38.90625 6.796875 
Q 35.40625 2.59375 30.75 0.75 
Q 26.09375 -1.09375 20.703125 -1.09375 
Q 17.203125 -1.09375 14.046875 -0.296875 
Q 10.90625 0.5 8.59375 2.203125 
Q 6.296875 3.90625 4.9375 6.65625 
Q 3.59375 9.40625 3.59375 13.296875 
Q 3.59375 17.703125 5.09375 20.5 
Q 6.59375 23.296875 9.046875 25.046875 
Q 11.5 26.796875 14.640625 27.6875 
Q 17.796875 28.59375 21.09375 29.203125 
Q 24.59375 29.90625 27.75 30.25 
Q 30.90625 30.59375 33.296875 31.25 
Q 35.703125 31.90625 37.09375 33.15625 
Q 38.5 34.40625 38.5 36.796875 
Q 38.5 39.59375 37.453125 41.296875 
Q 36.40625 43 34.75 43.890625 
Q 33.09375 44.796875 31.046875 45.09375 
Q 29 45.40625 27 45.40625 
Q 21.59375 45.40625 18 43.34375 
Q 14.40625 41.296875 14.09375 35.59375 
L 5.59375 35.59375 
Q 5.796875 40.40625 7.59375 43.703125 
Q 9.40625 47 12.40625 49.046875 
Q 15.40625 51.09375 19.25 52 
Q 23.09375 52.90625 27.5 52.90625 
Q 31 52.90625 34.453125 52.40625 
Q 37.90625 51.90625 40.703125 50.34375 
Q 43.5 48.796875 45.203125 46 
Q 46.90625 43.203125 46.90625 38.703125 
L 46.90625 12.09375 
Q 46.90625 9.09375 47.25 7.6875 
Q 47.59375 6.296875 49.59375 6.296875 
Q 50.703125 6.296875 52.203125 6.796875 
z
M 38.40625 26.703125 
Q 36.796875 25.5 34.1875 24.953125 
Q 31.59375 24.40625 28.75 24.046875 
Q 25.90625 23.703125 23 23.25 
Q 20.09375 22.796875 17.796875 21.796875 
Q 15.5 20.796875 14.046875 18.9375 
Q 12.59375 17.09375 12.59375 13.90625 
Q 12.59375 11.796875 13.4375 10.34375 
Q 14.296875 8.90625 15.640625 8 
Q 17 7.09375 18.796875 6.6875 
Q 20.59375 6.296875 22.59375 6.296875 
Q 26.796875 6.296875 29.796875 7.4375 
Q 32.796875 8.59375 34.6875 10.34375 
Q 36.59375 12.09375 37.5 14.140625 
Q 38.40625 16.203125 38.40625 18 
z
" id="HelveticaNeue-97"/>
       </defs>
       <use xlink:href="#HelveticaNeue-83"/>
       <use x="64.799988" xlink:href="#HelveticaNeue-117"/>
       <use x="120.399979" xlink:href="#HelveticaNeue-98"/>
       <use x="179.699966" xlink:href="#HelveticaNeue-97"/>
      </g>
     </g>
    </g>
    <g id="xtick_2">
     <g id="line2d_2">
      <g>
       <use style="fill:#555555;stroke:#555555;stroke-width:0.8;" x="87.430452" xlink:href="#mcab3c7074b" y="180.071429"/>
      </g>
     </g>
     <g id="text_2">
      <!-- Kennedy -->
      <g style="fill:#555555;" transform="translate(90.219124 230.476741)rotate(-90)scale(0.11 -0.11)">
       <defs>
        <path d="M 7.796875 71.40625 
L 7.796875 0 
L 17.296875 0 
L 17.296875 25 
L 29.203125 36.09375 
L 55 0 
L 67 0 
L 35.703125 42.59375 
L 65.796875 71.40625 
L 53.5 71.40625 
L 17.296875 35.796875 
L 17.296875 71.40625 
z
" id="HelveticaNeue-75"/>
        <path d="M 42.296875 30.796875 
L 12.59375 30.796875 
Q 12.796875 33.796875 13.890625 36.4375 
Q 15 39.09375 16.890625 41.09375 
Q 18.796875 43.09375 21.4375 44.25 
Q 24.09375 45.40625 27.40625 45.40625 
Q 30.59375 45.40625 33.25 44.25 
Q 35.90625 43.09375 37.84375 41.140625 
Q 39.796875 39.203125 40.9375 36.5 
Q 42.09375 33.796875 42.296875 30.796875 
z
M 50.5 16.40625 
L 42.09375 16.40625 
Q 41 11.296875 37.546875 8.796875 
Q 34.09375 6.296875 28.703125 6.296875 
Q 24.5 6.296875 21.390625 7.6875 
Q 18.296875 9.09375 16.296875 11.4375 
Q 14.296875 13.796875 13.390625 16.84375 
Q 12.5 19.90625 12.59375 23.296875 
L 51.296875 23.296875 
Q 51.5 28 50.453125 33.203125 
Q 49.40625 38.40625 46.65625 42.796875 
Q 43.90625 47.203125 39.34375 50.046875 
Q 34.796875 52.90625 27.90625 52.90625 
Q 22.59375 52.90625 18.140625 50.90625 
Q 13.703125 48.90625 10.453125 45.296875 
Q 7.203125 41.703125 5.390625 36.796875 
Q 3.59375 31.90625 3.59375 26 
Q 3.796875 20.09375 5.34375 15.09375 
Q 6.90625 10.09375 10 6.5 
Q 13.09375 2.90625 17.640625 0.90625 
Q 22.203125 -1.09375 28.40625 -1.09375 
Q 37.203125 -1.09375 43 3.296875 
Q 48.796875 7.703125 50.5 16.40625 
z
" id="HelveticaNeue-101"/>
        <path d="M 6.40625 51.703125 
L 6.40625 0 
L 14.90625 0 
L 14.90625 29.203125 
Q 14.90625 32.703125 15.84375 35.640625 
Q 16.796875 38.59375 18.6875 40.796875 
Q 20.59375 43 23.4375 44.203125 
Q 26.296875 45.40625 30.203125 45.40625 
Q 35.09375 45.40625 37.890625 42.59375 
Q 40.703125 39.796875 40.703125 35 
L 40.703125 0 
L 49.203125 0 
L 49.203125 34 
Q 49.203125 38.203125 48.34375 41.640625 
Q 47.5 45.09375 45.390625 47.59375 
Q 43.296875 50.09375 39.890625 51.5 
Q 36.5 52.90625 31.40625 52.90625 
Q 19.90625 52.90625 14.59375 43.5 
L 14.40625 43.5 
L 14.40625 51.703125 
z
" id="HelveticaNeue-110"/>
        <path d="M 12.59375 25.40625 
Q 12.59375 29.203125 13.390625 32.796875 
Q 14.203125 36.40625 16 39.203125 
Q 17.796875 42 20.796875 43.703125 
Q 23.796875 45.40625 28.09375 45.40625 
Q 32.5 45.40625 35.59375 43.75 
Q 38.703125 42.09375 40.640625 39.390625 
Q 42.59375 36.703125 43.5 33.140625 
Q 44.40625 29.59375 44.40625 25.796875 
Q 44.40625 22.203125 43.546875 18.703125 
Q 42.703125 15.203125 40.796875 12.453125 
Q 38.90625 9.703125 35.90625 8 
Q 32.90625 6.296875 28.59375 6.296875 
Q 24.5 6.296875 21.453125 7.890625 
Q 18.40625 9.5 16.453125 12.203125 
Q 14.5 14.90625 13.546875 18.34375 
Q 12.59375 21.796875 12.59375 25.40625 
z
M 52.59375 0 
L 52.59375 71.40625 
L 44.09375 71.40625 
L 44.09375 44.796875 
L 43.90625 44.796875 
Q 42.5 47.09375 40.453125 48.640625 
Q 38.40625 50.203125 36.09375 51.140625 
Q 33.796875 52.09375 31.5 52.5 
Q 29.203125 52.90625 27.203125 52.90625 
Q 21.296875 52.90625 16.84375 50.75 
Q 12.40625 48.59375 9.453125 44.9375 
Q 6.5 41.296875 5.046875 36.390625 
Q 3.59375 31.5 3.59375 26 
Q 3.59375 20.5 5.09375 15.59375 
Q 6.59375 10.703125 9.546875 7 
Q 12.5 3.296875 16.953125 1.09375 
Q 21.40625 -1.09375 27.40625 -1.09375 
Q 32.796875 -1.09375 37.296875 0.796875 
Q 41.796875 2.703125 43.90625 7 
L 44.09375 7 
L 44.09375 0 
z
" id="HelveticaNeue-100"/>
        <path d="M 26.703125 -6.90625 
Q 25.203125 -10.703125 23.75 -13.296875 
Q 22.296875 -15.90625 20.546875 -17.546875 
Q 18.796875 -19.203125 16.640625 -19.953125 
Q 14.5 -20.703125 11.703125 -20.703125 
Q 10.203125 -20.703125 8.703125 -20.5 
Q 7.203125 -20.296875 5.796875 -19.796875 
L 5.796875 -12 
Q 6.90625 -12.5 8.34375 -12.84375 
Q 9.796875 -13.203125 10.796875 -13.203125 
Q 13.40625 -13.203125 15.15625 -11.953125 
Q 16.90625 -10.703125 17.796875 -8.40625 
L 21.296875 0.296875 
L 0.796875 51.703125 
L 10.40625 51.703125 
L 25.5 9.40625 
L 25.703125 9.40625 
L 40.203125 51.703125 
L 49.203125 51.703125 
z
" id="HelveticaNeue-121"/>
       </defs>
       <use xlink:href="#HelveticaNeue-75"/>
       <use x="66.699997" xlink:href="#HelveticaNeue-101"/>
       <use x="120.399994" xlink:href="#HelveticaNeue-110"/>
       <use x="175.999985" xlink:href="#HelveticaNeue-110"/>
       <use x="231.599976" xlink:href="#HelveticaNeue-101"/>
       <use x="285.299973" xlink:href="#HelveticaNeue-100"/>
       <use x="344.59996" xlink:href="#HelveticaNeue-121"/>
      </g>
     </g>
    </g>
    <g id="xtick_3">
     <g id="line2d_3">
      <g>
       <use style="fill:#555555;stroke:#555555;stroke-width:0.8;" x="122.890696" xlink:href="#mcab3c7074b" y="180.071429"/>
      </g>
     </g>
     <g id="text_3">
      <!-- Usaquén -->
      <g style="fill:#555555;" transform="translate(126.042024 231.081741)rotate(-90)scale(0.11 -0.11)">
       <defs>
        <path d="M 64.796875 25.796875 
L 64.796875 71.40625 
L 55.296875 71.40625 
L 55.296875 25.796875 
Q 55.296875 16.203125 50.546875 11.25 
Q 45.796875 6.296875 36.703125 6.296875 
Q 27.09375 6.296875 22 11.25 
Q 16.90625 16.203125 16.90625 25.796875 
L 16.90625 71.40625 
L 7.40625 71.40625 
L 7.40625 25.796875 
Q 7.40625 11.5 15.15625 4.953125 
Q 22.90625 -1.59375 36.703125 -1.59375 
Q 50.203125 -1.59375 57.5 5.25 
Q 64.796875 12.09375 64.796875 25.796875 
z
" id="HelveticaNeue-85"/>
        <path d="M 11.59375 16.296875 
L 3.09375 16.296875 
Q 3.296875 11.5 5.09375 8.140625 
Q 6.90625 4.796875 9.90625 2.75 
Q 12.90625 0.703125 16.796875 -0.1875 
Q 20.703125 -1.09375 25 -1.09375 
Q 28.90625 -1.09375 32.84375 -0.34375 
Q 36.796875 0.40625 39.9375 2.296875 
Q 43.09375 4.203125 45.046875 7.296875 
Q 47 10.40625 47 15.09375 
Q 47 18.796875 45.546875 21.296875 
Q 44.09375 23.796875 41.75 25.4375 
Q 39.40625 27.09375 36.34375 28.09375 
Q 33.296875 29.09375 30.09375 29.796875 
Q 27.09375 30.5 24.09375 31.140625 
Q 21.09375 31.796875 18.6875 32.75 
Q 16.296875 33.703125 14.75 35.140625 
Q 13.203125 36.59375 13.203125 38.796875 
Q 13.203125 40.796875 14.203125 42.046875 
Q 15.203125 43.296875 16.796875 44.046875 
Q 18.40625 44.796875 20.34375 45.09375 
Q 22.296875 45.40625 24.203125 45.40625 
Q 26.296875 45.40625 28.34375 44.953125 
Q 30.40625 44.5 32.09375 43.5 
Q 33.796875 42.5 34.890625 40.84375 
Q 36 39.203125 36.203125 36.703125 
L 44.703125 36.703125 
Q 44.40625 41.40625 42.703125 44.546875 
Q 41 47.703125 38.140625 49.546875 
Q 35.296875 51.40625 31.59375 52.15625 
Q 27.90625 52.90625 23.5 52.90625 
Q 20.09375 52.90625 16.640625 52.046875 
Q 13.203125 51.203125 10.453125 49.453125 
Q 7.703125 47.703125 5.953125 44.890625 
Q 4.203125 42.09375 4.203125 38.203125 
Q 4.203125 33.203125 6.703125 30.390625 
Q 9.203125 27.59375 12.953125 26.046875 
Q 16.703125 24.5 21.09375 23.640625 
Q 25.5 22.796875 29.25 21.75 
Q 33 20.703125 35.5 19 
Q 38 17.296875 38 14 
Q 38 11.59375 36.796875 10.046875 
Q 35.59375 8.5 33.75 7.703125 
Q 31.90625 6.90625 29.703125 6.59375 
Q 27.5 6.296875 25.5 6.296875 
Q 22.90625 6.296875 20.453125 6.796875 
Q 18 7.296875 16.046875 8.4375 
Q 14.09375 9.59375 12.890625 11.546875 
Q 11.703125 13.5 11.59375 16.296875 
z
" id="HelveticaNeue-115"/>
        <path d="M 12.59375 25.40625 
Q 12.59375 29.203125 13.390625 32.796875 
Q 14.203125 36.40625 16 39.203125 
Q 17.796875 42 20.796875 43.703125 
Q 23.796875 45.40625 28.09375 45.40625 
Q 32.5 45.40625 35.59375 43.75 
Q 38.703125 42.09375 40.640625 39.390625 
Q 42.59375 36.703125 43.5 33.140625 
Q 44.40625 29.59375 44.40625 25.796875 
Q 44.40625 22.203125 43.546875 18.703125 
Q 42.703125 15.203125 40.796875 12.453125 
Q 38.90625 9.703125 35.90625 8 
Q 32.90625 6.296875 28.59375 6.296875 
Q 24.5 6.296875 21.453125 7.890625 
Q 18.40625 9.5 16.453125 12.203125 
Q 14.5 14.90625 13.546875 18.34375 
Q 12.59375 21.796875 12.59375 25.40625 
z
M 52.59375 -19.703125 
L 52.59375 51.703125 
L 44.09375 51.703125 
L 44.09375 44.796875 
L 43.90625 44.796875 
Q 42.5 47.09375 40.453125 48.640625 
Q 38.40625 50.203125 36.09375 51.140625 
Q 33.796875 52.09375 31.5 52.5 
Q 29.203125 52.90625 27.203125 52.90625 
Q 21.296875 52.90625 16.84375 50.75 
Q 12.40625 48.59375 9.453125 44.9375 
Q 6.5 41.296875 5.046875 36.390625 
Q 3.59375 31.5 3.59375 26 
Q 3.59375 20.5 5.09375 15.59375 
Q 6.59375 10.703125 9.546875 7 
Q 12.5 3.296875 16.953125 1.09375 
Q 21.40625 -1.09375 27.40625 -1.09375 
Q 32.796875 -1.09375 37.296875 0.796875 
Q 41.796875 2.703125 43.90625 7 
L 44.09375 7 
L 44.09375 -19.703125 
z
" id="HelveticaNeue-113"/>
        <path d="M 42.296875 30.796875 
L 12.59375 30.796875 
Q 12.796875 33.796875 13.890625 36.4375 
Q 15 39.09375 16.890625 41.09375 
Q 18.796875 43.09375 21.4375 44.25 
Q 24.09375 45.40625 27.40625 45.40625 
Q 30.59375 45.40625 33.25 44.25 
Q 35.90625 43.09375 37.84375 41.140625 
Q 39.796875 39.203125 40.9375 36.5 
Q 42.09375 33.796875 42.296875 30.796875 
z
M 50.5 16.40625 
L 42.09375 16.40625 
Q 41 11.296875 37.546875 8.796875 
Q 34.09375 6.296875 28.703125 6.296875 
Q 24.5 6.296875 21.390625 7.6875 
Q 18.296875 9.09375 16.296875 11.4375 
Q 14.296875 13.796875 13.390625 16.84375 
Q 12.5 19.90625 12.59375 23.296875 
L 51.296875 23.296875 
Q 51.5 28 50.453125 33.203125 
Q 49.40625 38.40625 46.65625 42.796875 
Q 43.90625 47.203125 39.34375 50.046875 
Q 34.796875 52.90625 27.90625 52.90625 
Q 22.59375 52.90625 18.140625 50.90625 
Q 13.703125 48.90625 10.453125 45.296875 
Q 7.203125 41.703125 5.390625 36.796875 
Q 3.59375 31.90625 3.59375 26 
Q 3.796875 20.09375 5.34375 15.09375 
Q 6.90625 10.09375 10 6.5 
Q 13.09375 2.90625 17.640625 0.90625 
Q 22.203125 -1.09375 28.40625 -1.09375 
Q 37.203125 -1.09375 43 3.296875 
Q 48.796875 7.703125 50.5 16.40625 
z
M 41.296875 77 
L 27.203125 60.796875 
L 20.796875 60.796875 
L 30.40625 77 
z
" id="HelveticaNeue-233"/>
       </defs>
       <use xlink:href="#HelveticaNeue-85"/>
       <use x="72.199982" xlink:href="#HelveticaNeue-115"/>
       <use x="122.199966" xlink:href="#HelveticaNeue-97"/>
       <use x="175.899963" xlink:href="#HelveticaNeue-113"/>
       <use x="235.199951" xlink:href="#HelveticaNeue-117"/>
       <use x="290.799942" xlink:href="#HelveticaNeue-233"/>
       <use x="344.499939" xlink:href="#HelveticaNeue-110"/>
      </g>
     </g>
    </g>
    <g id="xtick_4">
     <g id="line2d_4">
      <g>
       <use style="fill:#555555;stroke:#555555;stroke-width:0.8;" x="158.35094" xlink:href="#mcab3c7074b" y="180.071429"/>
      </g>
     </g>
     <g id="text_4">
      <!-- Engativá -->
      <g style="fill:#555555;" transform="translate(161.436097 229.443772)rotate(-90)scale(0.11 -0.11)">
       <defs>
        <path d="M 7.796875 71.40625 
L 7.796875 0 
L 57.40625 0 
L 57.40625 8 
L 17.296875 8 
L 17.296875 32.703125 
L 54.40625 32.703125 
L 54.40625 40.703125 
L 17.296875 40.703125 
L 17.296875 63.40625 
L 57.09375 63.40625 
L 57.09375 71.40625 
z
" id="HelveticaNeue-69"/>
        <path d="M 51 4.40625 
L 51 51.703125 
L 43 51.703125 
L 43 44.296875 
L 42.90625 44.296875 
Q 40.59375 48.59375 36.5 50.75 
Q 32.40625 52.90625 27.5 52.90625 
Q 20.796875 52.90625 16.1875 50.34375 
Q 11.59375 47.796875 8.796875 43.84375 
Q 6 39.90625 4.796875 35.046875 
Q 3.59375 30.203125 3.59375 25.59375 
Q 3.59375 20.296875 5.046875 15.546875 
Q 6.5 10.796875 9.390625 7.25 
Q 12.296875 3.703125 16.59375 1.59375 
Q 20.90625 -0.5 26.703125 -0.5 
Q 31.703125 -0.5 36.140625 1.75 
Q 40.59375 4 42.796875 8.796875 
L 43 8.796875 
L 43 5.40625 
Q 43 1.09375 42.140625 -2.5 
Q 41.296875 -6.09375 39.390625 -8.640625 
Q 37.5 -11.203125 34.59375 -12.640625 
Q 31.703125 -14.09375 27.5 -14.09375 
Q 25.40625 -14.09375 23.09375 -13.640625 
Q 20.796875 -13.203125 18.84375 -12.203125 
Q 16.90625 -11.203125 15.546875 -9.59375 
Q 14.203125 -8 14.09375 -5.703125 
L 5.59375 -5.703125 
Q 5.796875 -9.90625 7.796875 -12.796875 
Q 9.796875 -15.703125 12.84375 -17.5 
Q 15.90625 -19.296875 19.65625 -20.09375 
Q 23.40625 -20.90625 27 -20.90625 
Q 39.40625 -20.90625 45.203125 -14.59375 
Q 51 -8.296875 51 4.40625 
z
M 27.203125 6.90625 
Q 23 6.90625 20.203125 8.65625 
Q 17.40625 10.40625 15.703125 13.25 
Q 14 16.09375 13.296875 19.59375 
Q 12.59375 23.09375 12.59375 26.59375 
Q 12.59375 30.296875 13.4375 33.6875 
Q 14.296875 37.09375 16.140625 39.6875 
Q 18 42.296875 20.890625 43.84375 
Q 23.796875 45.40625 27.90625 45.40625 
Q 31.90625 45.40625 34.703125 43.796875 
Q 37.5 42.203125 39.25 39.546875 
Q 41 36.90625 41.796875 33.59375 
Q 42.59375 30.296875 42.59375 26.90625 
Q 42.59375 23.296875 41.75 19.6875 
Q 40.90625 16.09375 39.09375 13.25 
Q 37.296875 10.40625 34.34375 8.65625 
Q 31.40625 6.90625 27.203125 6.90625 
z
" id="HelveticaNeue-103"/>
        <path d="M 18.203125 51.703125 
L 18.203125 67.203125 
L 9.703125 67.203125 
L 9.703125 51.703125 
L 0.90625 51.703125 
L 0.90625 44.203125 
L 9.703125 44.203125 
L 9.703125 11.296875 
Q 9.703125 7.703125 10.390625 5.5 
Q 11.09375 3.296875 12.546875 2.09375 
Q 14 0.90625 16.34375 0.453125 
Q 18.703125 0 22 0 
L 28.5 0 
L 28.5 7.5 
L 24.59375 7.5 
Q 22.59375 7.5 21.34375 7.640625 
Q 20.09375 7.796875 19.390625 8.296875 
Q 18.703125 8.796875 18.453125 9.6875 
Q 18.203125 10.59375 18.203125 12.09375 
L 18.203125 44.203125 
L 28.5 44.203125 
L 28.5 51.703125 
z
" id="HelveticaNeue-116"/>
        <path d="M 15.40625 61 
L 15.40625 71.40625 
L 6.90625 71.40625 
L 6.90625 61 
z
M 6.90625 51.703125 
L 6.90625 0 
L 15.40625 0 
L 15.40625 51.703125 
z
" id="HelveticaNeue-105"/>
        <path d="M 29.703125 0 
L 48.59375 51.703125 
L 39.703125 51.703125 
L 25.59375 8.59375 
L 25.40625 8.59375 
L 10.90625 51.703125 
L 1.40625 51.703125 
L 20.59375 0 
z
" id="HelveticaNeue-118"/>
        <path d="M 52.203125 0.203125 
Q 50 -1.09375 46.09375 -1.09375 
Q 42.796875 -1.09375 40.84375 0.75 
Q 38.90625 2.59375 38.90625 6.796875 
Q 35.40625 2.59375 30.75 0.75 
Q 26.09375 -1.09375 20.703125 -1.09375 
Q 17.203125 -1.09375 14.046875 -0.296875 
Q 10.90625 0.5 8.59375 2.203125 
Q 6.296875 3.90625 4.9375 6.65625 
Q 3.59375 9.40625 3.59375 13.296875 
Q 3.59375 17.703125 5.09375 20.5 
Q 6.59375 23.296875 9.046875 25.046875 
Q 11.5 26.796875 14.640625 27.6875 
Q 17.796875 28.59375 21.09375 29.203125 
Q 24.59375 29.90625 27.75 30.25 
Q 30.90625 30.59375 33.296875 31.25 
Q 35.703125 31.90625 37.09375 33.15625 
Q 38.5 34.40625 38.5 36.796875 
Q 38.5 39.59375 37.453125 41.296875 
Q 36.40625 43 34.75 43.890625 
Q 33.09375 44.796875 31.046875 45.09375 
Q 29 45.40625 27 45.40625 
Q 21.59375 45.40625 18 43.34375 
Q 14.40625 41.296875 14.09375 35.59375 
L 5.59375 35.59375 
Q 5.796875 40.40625 7.59375 43.703125 
Q 9.40625 47 12.40625 49.046875 
Q 15.40625 51.09375 19.25 52 
Q 23.09375 52.90625 27.5 52.90625 
Q 31 52.90625 34.453125 52.40625 
Q 37.90625 51.90625 40.703125 50.34375 
Q 43.5 48.796875 45.203125 46 
Q 46.90625 43.203125 46.90625 38.703125 
L 46.90625 12.09375 
Q 46.90625 9.09375 47.25 7.6875 
Q 47.59375 6.296875 49.59375 6.296875 
Q 50.703125 6.296875 52.203125 6.796875 
z
M 38.40625 26.703125 
Q 36.796875 25.5 34.1875 24.953125 
Q 31.59375 24.40625 28.75 24.046875 
Q 25.90625 23.703125 23 23.25 
Q 20.09375 22.796875 17.796875 21.796875 
Q 15.5 20.796875 14.046875 18.9375 
Q 12.59375 17.09375 12.59375 13.90625 
Q 12.59375 11.796875 13.4375 10.34375 
Q 14.296875 8.90625 15.640625 8 
Q 17 7.09375 18.796875 6.6875 
Q 20.59375 6.296875 22.59375 6.296875 
Q 26.796875 6.296875 29.796875 7.4375 
Q 32.796875 8.59375 34.6875 10.34375 
Q 36.59375 12.09375 37.5 14.140625 
Q 38.40625 16.203125 38.40625 18 
z
M 41.296875 77 
L 27.203125 60.796875 
L 20.796875 60.796875 
L 30.40625 77 
z
" id="HelveticaNeue-225"/>
       </defs>
       <use xlink:href="#HelveticaNeue-69"/>
       <use x="61.099991" xlink:href="#HelveticaNeue-110"/>
       <use x="116.699982" xlink:href="#HelveticaNeue-103"/>
       <use x="174.099976" xlink:href="#HelveticaNeue-97"/>
       <use x="227.799973" xlink:href="#HelveticaNeue-116"/>
       <use x="259.299957" xlink:href="#HelveticaNeue-105"/>
       <use x="281.499954" xlink:href="#HelveticaNeue-118"/>
       <use x="331.499939" xlink:href="#HelveticaNeue-225"/>
      </g>
     </g>
    </g>
    <g id="xtick_5">
     <g id="line2d_5">
      <g>
       <use style="fill:#555555;stroke:#555555;stroke-width:0.8;" x="193.811184" xlink:href="#mcab3c7074b" y="180.071429"/>
      </g>
     </g>
     <g id="text_5">
      <!-- Bosa -->
      <g style="fill:#555555;" transform="translate(196.654856 212.32846)rotate(-90)scale(0.11 -0.11)">
       <defs>
        <path d="M 17.296875 40.703125 
L 17.296875 63.40625 
L 36.296875 63.40625 
Q 39.40625 63.40625 42.15625 63.046875 
Q 44.90625 62.703125 47 61.5 
Q 49.09375 60.296875 50.296875 58.09375 
Q 51.5 55.90625 51.5 52.09375 
Q 51.5 46.40625 47.953125 43.546875 
Q 44.40625 40.703125 36.296875 40.703125 
z
M 7.796875 71.40625 
L 7.796875 0 
L 42.296875 0 
Q 47.59375 0 51.640625 1.75 
Q 55.703125 3.5 58.453125 6.34375 
Q 61.203125 9.203125 62.59375 12.890625 
Q 64 16.59375 64 20.5 
Q 64 27.09375 60.5 31.6875 
Q 57 36.296875 50.40625 37.703125 
L 50.40625 37.90625 
Q 55.5 39.90625 58.25 44.046875 
Q 61 48.203125 61 53.90625 
Q 61 59.296875 58.546875 63 
Q 56.09375 66.703125 52.59375 68.796875 
Q 51 69.796875 48.75 70.296875 
Q 46.5 70.796875 43.890625 71.046875 
Q 41.296875 71.296875 38.640625 71.34375 
Q 36 71.40625 33.703125 71.40625 
z
M 17.296875 8 
L 17.296875 32.703125 
L 39 32.703125 
Q 42 32.703125 44.796875 32.140625 
Q 47.59375 31.59375 49.75 30.25 
Q 51.90625 28.90625 53.203125 26.59375 
Q 54.5 24.296875 54.5 20.796875 
Q 54.5 14.796875 50.953125 11.390625 
Q 47.40625 8 41.09375 8 
z
" id="HelveticaNeue-66"/>
        <path d="M 12.59375 25.796875 
Q 12.59375 30.5 13.84375 34.140625 
Q 15.09375 37.796875 17.296875 40.296875 
Q 19.5 42.796875 22.453125 44.09375 
Q 25.40625 45.40625 28.703125 45.40625 
Q 32 45.40625 34.953125 44.09375 
Q 37.90625 42.796875 40.09375 40.296875 
Q 42.296875 37.796875 43.546875 34.140625 
Q 44.796875 30.5 44.796875 25.796875 
Q 44.796875 21.09375 43.546875 17.4375 
Q 42.296875 13.796875 40.09375 11.34375 
Q 37.90625 8.90625 34.953125 7.59375 
Q 32 6.296875 28.703125 6.296875 
Q 25.40625 6.296875 22.453125 7.59375 
Q 19.5 8.90625 17.296875 11.34375 
Q 15.09375 13.796875 13.84375 17.4375 
Q 12.59375 21.09375 12.59375 25.796875 
z
M 3.59375 25.796875 
Q 3.59375 20.09375 5.1875 15.1875 
Q 6.796875 10.296875 10 6.640625 
Q 13.203125 3 17.890625 0.953125 
Q 22.59375 -1.09375 28.703125 -1.09375 
Q 34.90625 -1.09375 39.546875 0.953125 
Q 44.203125 3 47.390625 6.640625 
Q 50.59375 10.296875 52.1875 15.1875 
Q 53.796875 20.09375 53.796875 25.796875 
Q 53.796875 31.5 52.1875 36.453125 
Q 50.59375 41.40625 47.390625 45.046875 
Q 44.203125 48.703125 39.546875 50.796875 
Q 34.90625 52.90625 28.703125 52.90625 
Q 22.59375 52.90625 17.890625 50.796875 
Q 13.203125 48.703125 10 45.046875 
Q 6.796875 41.40625 5.1875 36.453125 
Q 3.59375 31.5 3.59375 25.796875 
z
" id="HelveticaNeue-111"/>
       </defs>
       <use xlink:href="#HelveticaNeue-66"/>
       <use x="68.499985" xlink:href="#HelveticaNeue-111"/>
       <use x="125.899979" xlink:href="#HelveticaNeue-115"/>
       <use x="175.899963" xlink:href="#HelveticaNeue-97"/>
      </g>
     </g>
    </g>
    <g id="xtick_6">
     <g id="line2d_6">
      <g>
       <use style="fill:#555555;stroke:#555555;stroke-width:0.8;" x="229.271429" xlink:href="#mcab3c7074b" y="180.071429"/>
      </g>
     </g>
     <g id="text_6">
      <!-- Ciudad Bolívar -->
      <g style="fill:#555555;" transform="translate(232.1151 259.386116)rotate(-90)scale(0.11 -0.11)">
       <defs>
        <path d="M 58 49.90625 
L 67.5 49.90625 
Q 66.703125 55.59375 64.09375 59.9375 
Q 61.5 64.296875 57.59375 67.1875 
Q 53.703125 70.09375 48.703125 71.59375 
Q 43.703125 73.09375 38.09375 73.09375 
Q 29.90625 73.09375 23.546875 70.140625 
Q 17.203125 67.203125 12.953125 62.09375 
Q 8.703125 57 6.5 50.140625 
Q 4.296875 43.296875 4.296875 35.5 
Q 4.296875 27.703125 6.34375 20.890625 
Q 8.40625 14.09375 12.5 9.09375 
Q 16.59375 4.09375 22.796875 1.25 
Q 29 -1.59375 37.296875 -1.59375 
Q 51 -1.59375 58.890625 5.90625 
Q 66.796875 13.40625 68.203125 26.90625 
L 58.703125 26.90625 
Q 58.40625 22.5 56.90625 18.703125 
Q 55.40625 14.90625 52.75 12.15625 
Q 50.09375 9.40625 46.4375 7.84375 
Q 42.796875 6.296875 38.09375 6.296875 
Q 31.703125 6.296875 27.09375 8.6875 
Q 22.5 11.09375 19.546875 15.140625 
Q 16.59375 19.203125 15.1875 24.640625 
Q 13.796875 30.09375 13.796875 36.203125 
Q 13.796875 41.796875 15.1875 47 
Q 16.59375 52.203125 19.546875 56.25 
Q 22.5 60.296875 27.046875 62.6875 
Q 31.59375 65.09375 38 65.09375 
Q 45.5 65.09375 50.953125 61.296875 
Q 56.40625 57.5 58 49.90625 
z
" id="HelveticaNeue-67"/>
        <path id="HelveticaNeue-32"/>
        <path d="M 6.90625 71.40625 
L 6.90625 0 
L 15.40625 0 
L 15.40625 71.40625 
z
" id="HelveticaNeue-108"/>
        <path d="M 6.90625 0 
L 15.40625 0 
L 15.40625 51.703125 
L 6.90625 51.703125 
z
M 25.5 77 
L 11.40625 60.796875 
L 5 60.796875 
L 14.59375 77 
z
" id="HelveticaNeue-237"/>
        <path d="M 6.09375 51.703125 
L 6.09375 0 
L 14.59375 0 
L 14.59375 23 
Q 14.59375 28 15.59375 31.84375 
Q 16.59375 35.703125 18.796875 38.390625 
Q 21 41.09375 24.59375 42.5 
Q 28.203125 43.90625 33.296875 43.90625 
L 33.296875 52.90625 
Q 26.40625 53.09375 21.90625 50.09375 
Q 17.40625 47.09375 14.296875 40.796875 
L 14.09375 40.796875 
L 14.09375 51.703125 
z
" id="HelveticaNeue-114"/>
       </defs>
       <use xlink:href="#HelveticaNeue-67"/>
       <use x="72.199982" xlink:href="#HelveticaNeue-105"/>
       <use x="94.399979" xlink:href="#HelveticaNeue-117"/>
       <use x="149.999969" xlink:href="#HelveticaNeue-100"/>
       <use x="209.299957" xlink:href="#HelveticaNeue-97"/>
       <use x="262.999954" xlink:href="#HelveticaNeue-100"/>
       <use x="322.299942" xlink:href="#HelveticaNeue-32"/>
       <use x="350.09993" xlink:href="#HelveticaNeue-66"/>
       <use x="418.599915" xlink:href="#HelveticaNeue-111"/>
       <use x="475.999908" xlink:href="#HelveticaNeue-108"/>
       <use x="498.199905" xlink:href="#HelveticaNeue-237"/>
       <use x="520.399902" xlink:href="#HelveticaNeue-118"/>
       <use x="570.399887" xlink:href="#HelveticaNeue-97"/>
       <use x="624.099884" xlink:href="#HelveticaNeue-114"/>
      </g>
     </g>
    </g>
    <g id="xtick_7">
     <g id="line2d_7">
      <g>
       <use style="fill:#555555;stroke:#555555;stroke-width:0.8;" x="264.731673" xlink:href="#mcab3c7074b" y="180.071429"/>
      </g>
     </g>
     <g id="text_7">
      <!-- Rafael Uribe Uribe -->
      <g style="fill:#555555;" transform="translate(267.575345 277.096116)rotate(-90)scale(0.11 -0.11)">
       <defs>
        <path d="M 7.796875 71.40625 
L 7.796875 0 
L 17.296875 0 
L 17.296875 30.5 
L 40.5 30.5 
Q 44 30.5 46.09375 29.453125 
Q 48.203125 28.40625 49.5 26.65625 
Q 50.796875 24.90625 51.390625 22.546875 
Q 52 20.203125 52.40625 17.59375 
Q 52.90625 15 53 12.296875 
Q 53.09375 9.59375 53.1875 7.25 
Q 53.296875 4.90625 53.640625 3 
Q 54 1.09375 55 0 
L 65.59375 0 
Q 64.09375 1.796875 63.34375 4.140625 
Q 62.59375 6.5 62.1875 9.09375 
Q 61.796875 11.703125 61.6875 14.390625 
Q 61.59375 17.09375 61.40625 19.703125 
Q 61.09375 22.296875 60.546875 24.6875 
Q 60 27.09375 58.84375 29.046875 
Q 57.703125 31 55.75 32.390625 
Q 53.796875 33.796875 50.703125 34.40625 
L 50.703125 34.59375 
Q 57.203125 36.40625 60.140625 41.296875 
Q 63.09375 46.203125 63.09375 52.703125 
Q 63.09375 61.40625 57.34375 66.40625 
Q 51.59375 71.40625 41.40625 71.40625 
z
M 37.09375 38.5 
L 17.296875 38.5 
L 17.296875 63.40625 
L 40.90625 63.40625 
Q 47.59375 63.40625 50.59375 60 
Q 53.59375 56.59375 53.59375 51.203125 
Q 53.59375 47.296875 52.25 44.84375 
Q 50.90625 42.40625 48.65625 40.953125 
Q 46.40625 39.5 43.40625 39 
Q 40.40625 38.5 37.09375 38.5 
z
" id="HelveticaNeue-82"/>
        <path d="M 9.90625 44.203125 
L 9.90625 0 
L 18.40625 0 
L 18.40625 44.203125 
L 28.40625 44.203125 
L 28.40625 51.703125 
L 18.40625 51.703125 
L 18.40625 58.90625 
Q 18.40625 62.296875 20.09375 63.5 
Q 21.796875 64.703125 24.90625 64.703125 
Q 26 64.703125 27.296875 64.546875 
Q 28.59375 64.40625 29.703125 64 
L 29.703125 71.40625 
Q 28.5 71.796875 26.953125 72 
Q 25.40625 72.203125 24.203125 72.203125 
Q 17.203125 72.203125 13.546875 68.953125 
Q 9.90625 65.703125 9.90625 59.40625 
L 9.90625 51.703125 
L 1.203125 51.703125 
L 1.203125 44.203125 
z
" id="HelveticaNeue-102"/>
       </defs>
       <use xlink:href="#HelveticaNeue-82"/>
       <use x="68.499985" xlink:href="#HelveticaNeue-97"/>
       <use x="122.199982" xlink:href="#HelveticaNeue-102"/>
       <use x="151.799973" xlink:href="#HelveticaNeue-97"/>
       <use x="205.499969" xlink:href="#HelveticaNeue-101"/>
       <use x="259.199966" xlink:href="#HelveticaNeue-108"/>
       <use x="281.399963" xlink:href="#HelveticaNeue-32"/>
       <use x="309.199951" xlink:href="#HelveticaNeue-85"/>
       <use x="381.399933" xlink:href="#HelveticaNeue-114"/>
       <use x="414.699921" xlink:href="#HelveticaNeue-105"/>
       <use x="436.899918" xlink:href="#HelveticaNeue-98"/>
       <use x="496.199905" xlink:href="#HelveticaNeue-101"/>
       <use x="549.899902" xlink:href="#HelveticaNeue-32"/>
       <use x="577.69989" xlink:href="#HelveticaNeue-85"/>
       <use x="649.899872" xlink:href="#HelveticaNeue-114"/>
       <use x="683.19986" xlink:href="#HelveticaNeue-105"/>
       <use x="705.399857" xlink:href="#HelveticaNeue-98"/>
       <use x="764.699844" xlink:href="#HelveticaNeue-101"/>
      </g>
     </g>
    </g>
    <g id="xtick_8">
     <g id="line2d_8">
      <g>
       <use style="fill:#555555;stroke:#555555;stroke-width:0.8;" x="300.191917" xlink:href="#mcab3c7074b" y="180.071429"/>
      </g>
     </g>
     <g id="text_8">
      <!-- San Cristóbal -->
      <g style="fill:#555555;" transform="translate(303.035589 253.478772)rotate(-90)scale(0.11 -0.11)">
       <defs>
        <path d="M 12.59375 25.796875 
Q 12.59375 30.5 13.84375 34.140625 
Q 15.09375 37.796875 17.296875 40.296875 
Q 19.5 42.796875 22.453125 44.09375 
Q 25.40625 45.40625 28.703125 45.40625 
Q 32 45.40625 34.953125 44.09375 
Q 37.90625 42.796875 40.09375 40.296875 
Q 42.296875 37.796875 43.546875 34.140625 
Q 44.796875 30.5 44.796875 25.796875 
Q 44.796875 21.09375 43.546875 17.4375 
Q 42.296875 13.796875 40.09375 11.34375 
Q 37.90625 8.90625 34.953125 7.59375 
Q 32 6.296875 28.703125 6.296875 
Q 25.40625 6.296875 22.453125 7.59375 
Q 19.5 8.90625 17.296875 11.34375 
Q 15.09375 13.796875 13.84375 17.4375 
Q 12.59375 21.09375 12.59375 25.796875 
z
M 3.59375 25.796875 
Q 3.59375 20.09375 5.1875 15.1875 
Q 6.796875 10.296875 10 6.640625 
Q 13.203125 3 17.890625 0.953125 
Q 22.59375 -1.09375 28.703125 -1.09375 
Q 34.90625 -1.09375 39.546875 0.953125 
Q 44.203125 3 47.390625 6.640625 
Q 50.59375 10.296875 52.1875 15.1875 
Q 53.796875 20.09375 53.796875 25.796875 
Q 53.796875 31.5 52.1875 36.453125 
Q 50.59375 41.40625 47.390625 45.046875 
Q 44.203125 48.703125 39.546875 50.796875 
Q 34.90625 52.90625 28.703125 52.90625 
Q 22.59375 52.90625 17.890625 50.796875 
Q 13.203125 48.703125 10 45.046875 
Q 6.796875 41.40625 5.1875 36.453125 
Q 3.59375 31.5 3.59375 25.796875 
z
M 42.5 77 
L 28.40625 60.796875 
L 22 60.796875 
L 31.59375 77 
z
" id="HelveticaNeue-243"/>
       </defs>
       <use xlink:href="#HelveticaNeue-83"/>
       <use x="64.799988" xlink:href="#HelveticaNeue-97"/>
       <use x="118.499985" xlink:href="#HelveticaNeue-110"/>
       <use x="174.099976" xlink:href="#HelveticaNeue-32"/>
       <use x="201.899963" xlink:href="#HelveticaNeue-67"/>
       <use x="274.099945" xlink:href="#HelveticaNeue-114"/>
       <use x="307.399933" xlink:href="#HelveticaNeue-105"/>
       <use x="329.59993" xlink:href="#HelveticaNeue-115"/>
       <use x="379.599915" xlink:href="#HelveticaNeue-116"/>
       <use x="411.099899" xlink:href="#HelveticaNeue-243"/>
       <use x="468.499893" xlink:href="#HelveticaNeue-98"/>
       <use x="527.799881" xlink:href="#HelveticaNeue-97"/>
       <use x="581.499878" xlink:href="#HelveticaNeue-108"/>
      </g>
     </g>
    </g>
    <g id="xtick_9">
     <g id="line2d_9">
      <g>
       <use style="fill:#555555;stroke:#555555;stroke-width:0.8;" x="335.652161" xlink:href="#mcab3c7074b" y="180.071429"/>
      </g>
     </g>
     <g id="text_9">
      <!-- Puente Aranda -->
      <g style="fill:#555555;" transform="translate(338.495833 260.010022)rotate(-90)scale(0.11 -0.11)">
       <defs>
        <path d="M 17.296875 37.203125 
L 17.296875 63.40625 
L 35.90625 63.40625 
Q 44 63.40625 47.75 60.046875 
Q 51.5 56.703125 51.5 50.296875 
Q 51.5 43.90625 47.75 40.5 
Q 44 37.09375 35.90625 37.203125 
z
M 7.796875 71.40625 
L 7.796875 0 
L 17.296875 0 
L 17.296875 29.203125 
L 39.09375 29.203125 
Q 49.90625 29.09375 55.453125 34.6875 
Q 61 40.296875 61 50.296875 
Q 61 60.296875 55.453125 65.84375 
Q 49.90625 71.40625 39.09375 71.40625 
z
" id="HelveticaNeue-80"/>
        <path d="M 20.09375 29.5 
L 32.203125 62.796875 
L 32.40625 62.796875 
L 44.296875 29.5 
z
M 27.203125 71.40625 
L -0.59375 0 
L 9.09375 0 
L 17.09375 21.5 
L 47.296875 21.5 
L 55.09375 0 
L 65.59375 0 
L 37.703125 71.40625 
z
" id="HelveticaNeue-65"/>
       </defs>
       <use xlink:href="#HelveticaNeue-80"/>
       <use x="64.799988" xlink:href="#HelveticaNeue-117"/>
       <use x="120.399979" xlink:href="#HelveticaNeue-101"/>
       <use x="174.099976" xlink:href="#HelveticaNeue-110"/>
       <use x="229.699966" xlink:href="#HelveticaNeue-116"/>
       <use x="261.199951" xlink:href="#HelveticaNeue-101"/>
       <use x="314.899948" xlink:href="#HelveticaNeue-32"/>
       <use x="342.699936" xlink:href="#HelveticaNeue-65"/>
       <use x="407.499924" xlink:href="#HelveticaNeue-114"/>
       <use x="440.799911" xlink:href="#HelveticaNeue-97"/>
       <use x="494.499908" xlink:href="#HelveticaNeue-110"/>
       <use x="550.099899" xlink:href="#HelveticaNeue-100"/>
       <use x="609.399887" xlink:href="#HelveticaNeue-97"/>
      </g>
     </g>
    </g>
    <g id="xtick_10">
     <g id="line2d_10">
      <g>
       <use style="fill:#555555;stroke:#555555;stroke-width:0.8;" x="371.112405" xlink:href="#mcab3c7074b" y="180.071429"/>
      </g>
     </g>
     <g id="text_10">
      <!-- Fontibón -->
      <g style="fill:#555555;" transform="translate(373.956077 230.676116)rotate(-90)scale(0.11 -0.11)">
       <defs>
        <path d="M 7.796875 71.40625 
L 7.796875 0 
L 17.296875 0 
L 17.296875 32.703125 
L 50.09375 32.703125 
L 50.09375 40.703125 
L 17.296875 40.703125 
L 17.296875 63.40625 
L 54.703125 63.40625 
L 54.703125 71.40625 
z
" id="HelveticaNeue-70"/>
       </defs>
       <use xlink:href="#HelveticaNeue-70"/>
       <use x="57.399994" xlink:href="#HelveticaNeue-111"/>
       <use x="114.799988" xlink:href="#HelveticaNeue-110"/>
       <use x="170.399979" xlink:href="#HelveticaNeue-116"/>
       <use x="201.899963" xlink:href="#HelveticaNeue-105"/>
       <use x="224.09996" xlink:href="#HelveticaNeue-98"/>
       <use x="283.399948" xlink:href="#HelveticaNeue-243"/>
       <use x="340.799942" xlink:href="#HelveticaNeue-110"/>
      </g>
     </g>
    </g>
    <g id="xtick_11">
     <g id="line2d_11">
      <g>
       <use style="fill:#555555;stroke:#555555;stroke-width:0.8;" x="406.572649" xlink:href="#mcab3c7074b" y="180.071429"/>
      </g>
     </g>
     <g id="text_11">
      <!-- Chapinero -->
      <g style="fill:#555555;" transform="translate(409.509134 237.808929)rotate(-90)scale(0.11 -0.11)">
       <defs>
        <path d="M 6.40625 71.40625 
L 6.40625 0 
L 14.90625 0 
L 14.90625 29.203125 
Q 14.90625 32.703125 15.84375 35.640625 
Q 16.796875 38.59375 18.6875 40.796875 
Q 20.59375 43 23.4375 44.203125 
Q 26.296875 45.40625 30.203125 45.40625 
Q 35.09375 45.40625 37.890625 42.59375 
Q 40.703125 39.796875 40.703125 35 
L 40.703125 0 
L 49.203125 0 
L 49.203125 34 
Q 49.203125 38.203125 48.34375 41.640625 
Q 47.5 45.09375 45.390625 47.59375 
Q 43.296875 50.09375 39.890625 51.5 
Q 36.5 52.90625 31.40625 52.90625 
Q 29.09375 52.90625 26.640625 52.40625 
Q 24.203125 51.90625 21.953125 50.84375 
Q 19.703125 49.796875 17.890625 48.140625 
Q 16.09375 46.5 15.09375 44.09375 
L 14.90625 44.09375 
L 14.90625 71.40625 
z
" id="HelveticaNeue-104"/>
        <path d="M 6.703125 51.703125 
L 6.703125 -19.703125 
L 15.203125 -19.703125 
L 15.203125 6.90625 
L 15.40625 6.90625 
Q 16.796875 4.59375 18.84375 3.046875 
Q 20.90625 1.5 23.203125 0.59375 
Q 25.5 -0.296875 27.84375 -0.6875 
Q 30.203125 -1.09375 32.09375 -1.09375 
Q 38 -1.09375 42.453125 1 
Q 46.90625 3.09375 49.84375 6.75 
Q 52.796875 10.40625 54.25 15.296875 
Q 55.703125 20.203125 55.703125 25.703125 
Q 55.703125 31.203125 54.203125 36.09375 
Q 52.703125 41 49.75 44.75 
Q 46.796875 48.5 42.34375 50.703125 
Q 37.90625 52.90625 31.90625 52.90625 
Q 26.5 52.90625 22 50.953125 
Q 17.5 49 15.40625 44.703125 
L 15.203125 44.703125 
L 15.203125 51.703125 
z
M 46.703125 26.296875 
Q 46.703125 22.5 45.890625 18.890625 
Q 45.09375 15.296875 43.296875 12.5 
Q 41.5 9.703125 38.546875 8 
Q 35.59375 6.296875 31.203125 6.296875 
Q 26.796875 6.296875 23.6875 7.9375 
Q 20.59375 9.59375 18.640625 12.296875 
Q 16.703125 15 15.796875 18.546875 
Q 14.90625 22.09375 14.90625 25.90625 
Q 14.90625 29.5 15.75 33 
Q 16.59375 36.5 18.5 39.25 
Q 20.40625 42 23.40625 43.703125 
Q 26.40625 45.40625 30.703125 45.40625 
Q 34.796875 45.40625 37.84375 43.796875 
Q 40.90625 42.203125 42.84375 39.5 
Q 44.796875 36.796875 45.75 33.34375 
Q 46.703125 29.90625 46.703125 26.296875 
z
" id="HelveticaNeue-112"/>
       </defs>
       <use xlink:href="#HelveticaNeue-67"/>
       <use x="72.199982" xlink:href="#HelveticaNeue-104"/>
       <use x="127.799973" xlink:href="#HelveticaNeue-97"/>
       <use x="181.499969" xlink:href="#HelveticaNeue-112"/>
       <use x="240.799957" xlink:href="#HelveticaNeue-105"/>
       <use x="262.999954" xlink:href="#HelveticaNeue-110"/>
       <use x="318.599945" xlink:href="#HelveticaNeue-101"/>
       <use x="372.299942" xlink:href="#HelveticaNeue-114"/>
       <use x="403.84993" xlink:href="#HelveticaNeue-111"/>
      </g>
     </g>
    </g>
   </g>
   <g id="matplotlib.axis_2">
    <g id="ytick_1">
     <g id="line2d_12">
      <defs>
       <path d="M 0 0 
L -3.5 0 
" id="ma8a2d17ebf" style="stroke:#555555;stroke-width:0.8;"/>
      </defs>
      <g>
       <use style="fill:#555555;stroke:#555555;stroke-width:0.8;" x="37.342857" xlink:href="#ma8a2d17ebf" y="180.071429"/>
      </g>
     </g>
     <g id="text_12">
      <!-- 0.0 -->
      <g style="fill:#555555;" transform="translate(16.44442 183.641741)scale(0.1 -0.1)">
       <defs>
        <path d="M 13.203125 34.90625 
Q 13.203125 37.5 13.25 40.640625 
Q 13.296875 43.796875 13.75 46.9375 
Q 14.203125 50.09375 15.046875 53.09375 
Q 15.90625 56.09375 17.546875 58.34375 
Q 19.203125 60.59375 21.703125 62 
Q 24.203125 63.40625 27.796875 63.40625 
Q 31.40625 63.40625 33.90625 62 
Q 36.40625 60.59375 38.046875 58.34375 
Q 39.703125 56.09375 40.546875 53.09375 
Q 41.40625 50.09375 41.84375 46.9375 
Q 42.296875 43.796875 42.34375 40.640625 
Q 42.40625 37.5 42.40625 34.90625 
Q 42.40625 30.90625 42.15625 25.953125 
Q 41.90625 21 40.546875 16.640625 
Q 39.203125 12.296875 36.203125 9.296875 
Q 33.203125 6.296875 27.796875 6.296875 
Q 22.40625 6.296875 19.40625 9.296875 
Q 16.40625 12.296875 15.046875 16.640625 
Q 13.703125 21 13.453125 25.953125 
Q 13.203125 30.90625 13.203125 34.90625 
z
M 4.203125 34.796875 
Q 4.203125 30.90625 4.390625 26.703125 
Q 4.59375 22.5 5.390625 18.5 
Q 6.203125 14.5 7.703125 10.953125 
Q 9.203125 7.40625 11.796875 4.703125 
Q 14.40625 2 18.34375 0.453125 
Q 22.296875 -1.09375 27.796875 -1.09375 
Q 33.40625 -1.09375 37.296875 0.453125 
Q 41.203125 2 43.796875 4.703125 
Q 46.40625 7.40625 47.90625 10.953125 
Q 49.40625 14.5 50.203125 18.5 
Q 51 22.5 51.203125 26.703125 
Q 51.40625 30.90625 51.40625 34.796875 
Q 51.40625 38.703125 51.203125 42.890625 
Q 51 47.09375 50.203125 51.09375 
Q 49.40625 55.09375 47.90625 58.6875 
Q 46.40625 62.296875 43.796875 65 
Q 41.203125 67.703125 37.25 69.296875 
Q 33.296875 70.90625 27.796875 70.90625 
Q 22.296875 70.90625 18.34375 69.296875 
Q 14.40625 67.703125 11.796875 65 
Q 9.203125 62.296875 7.703125 58.6875 
Q 6.203125 55.09375 5.390625 51.09375 
Q 4.59375 47.09375 4.390625 42.890625 
Q 4.203125 38.703125 4.203125 34.796875 
z
" id="HelveticaNeue-48"/>
        <path d="M 8.296875 11.09375 
L 8.296875 0 
L 19.40625 0 
L 19.40625 11.09375 
z
" id="HelveticaNeue-46"/>
       </defs>
       <use xlink:href="#HelveticaNeue-48"/>
       <use x="55.599991" xlink:href="#HelveticaNeue-46"/>
       <use x="83.399979" xlink:href="#HelveticaNeue-48"/>
      </g>
     </g>
    </g>
    <g id="ytick_2">
     <g id="line2d_13">
      <g>
       <use style="fill:#555555;stroke:#555555;stroke-width:0.8;" x="37.342857" xlink:href="#ma8a2d17ebf" y="150.539286"/>
      </g>
     </g>
     <g id="text_13">
      <!-- 0.5 -->
      <g style="fill:#555555;" transform="translate(16.44442 154.109598)scale(0.1 -0.1)">
       <defs>
        <path d="M 47 62.203125 
L 47 69.703125 
L 12 69.703125 
L 5.40625 32.90625 
L 12.703125 32.5 
Q 15.203125 35.5 18.453125 37.34375 
Q 21.703125 39.203125 25.90625 39.203125 
Q 29.5 39.203125 32.453125 38 
Q 35.40625 36.796875 37.5 34.640625 
Q 39.59375 32.5 40.75 29.546875 
Q 41.90625 26.59375 41.90625 23.09375 
Q 41.90625 18.90625 40.703125 15.75 
Q 39.5 12.59375 37.453125 10.5 
Q 35.40625 8.40625 32.65625 7.34375 
Q 29.90625 6.296875 26.90625 6.296875 
Q 23.703125 6.296875 21.046875 7.25 
Q 18.40625 8.203125 16.453125 9.953125 
Q 14.5 11.703125 13.34375 14.046875 
Q 12.203125 16.40625 12 19.09375 
L 3.5 19.09375 
Q 3.59375 14.296875 5.390625 10.5 
Q 7.203125 6.703125 10.296875 4.140625 
Q 13.40625 1.59375 17.453125 0.25 
Q 21.5 -1.09375 26.09375 -1.09375 
Q 32.296875 -1.09375 36.9375 0.84375 
Q 41.59375 2.796875 44.6875 6.09375 
Q 47.796875 9.40625 49.34375 13.65625 
Q 50.90625 17.90625 50.90625 22.40625 
Q 50.90625 28.5 49.09375 33.046875 
Q 47.296875 37.59375 44.1875 40.640625 
Q 41.09375 43.703125 36.890625 45.203125 
Q 32.703125 46.703125 28 46.703125 
Q 24.40625 46.703125 20.75 45.453125 
Q 17.09375 44.203125 14.796875 41.59375 
L 14.59375 41.796875 
L 18.40625 62.203125 
z
" id="HelveticaNeue-53"/>
       </defs>
       <use xlink:href="#HelveticaNeue-48"/>
       <use x="55.599991" xlink:href="#HelveticaNeue-46"/>
       <use x="83.399979" xlink:href="#HelveticaNeue-53"/>
      </g>
     </g>
    </g>
    <g id="ytick_3">
     <g id="line2d_14">
      <g>
       <use style="fill:#555555;stroke:#555555;stroke-width:0.8;" x="37.342857" xlink:href="#ma8a2d17ebf" y="121.007143"/>
      </g>
     </g>
     <g id="text_14">
      <!-- 1.0 -->
      <g style="fill:#555555;" transform="translate(16.44442 124.577455)scale(0.1 -0.1)">
       <defs>
        <path d="M 35.59375 0 
L 35.59375 70.90625 
L 29.09375 70.90625 
Q 28.40625 66.90625 26.5 64.296875 
Q 24.59375 61.703125 21.84375 60.203125 
Q 19.09375 58.703125 15.6875 58.140625 
Q 12.296875 57.59375 8.703125 57.59375 
L 8.703125 50.796875 
L 27.09375 50.796875 
L 27.09375 0 
z
" id="HelveticaNeue-49"/>
       </defs>
       <use xlink:href="#HelveticaNeue-49"/>
       <use x="55.599991" xlink:href="#HelveticaNeue-46"/>
       <use x="83.399979" xlink:href="#HelveticaNeue-48"/>
      </g>
     </g>
    </g>
    <g id="ytick_4">
     <g id="line2d_15">
      <g>
       <use style="fill:#555555;stroke:#555555;stroke-width:0.8;" x="37.342857" xlink:href="#ma8a2d17ebf" y="91.475"/>
      </g>
     </g>
     <g id="text_15">
      <!-- 1.5 -->
      <g style="fill:#555555;" transform="translate(16.44442 95.045312)scale(0.1 -0.1)">
       <use xlink:href="#HelveticaNeue-49"/>
       <use x="55.599991" xlink:href="#HelveticaNeue-46"/>
       <use x="83.399979" xlink:href="#HelveticaNeue-53"/>
      </g>
     </g>
    </g>
    <g id="ytick_5">
     <g id="line2d_16">
      <g>
       <use style="fill:#555555;stroke:#555555;stroke-width:0.8;" x="37.342857" xlink:href="#ma8a2d17ebf" y="61.942857"/>
      </g>
     </g>
     <g id="text_16">
      <!-- 2.0 -->
      <g style="fill:#555555;" transform="translate(16.44442 65.51317)scale(0.1 -0.1)">
       <defs>
        <path d="M 4.40625 45.796875 
L 12.90625 45.796875 
Q 12.796875 49 13.546875 52.140625 
Q 14.296875 55.296875 16 57.796875 
Q 17.703125 60.296875 20.34375 61.84375 
Q 23 63.40625 26.703125 63.40625 
Q 29.5 63.40625 32 62.5 
Q 34.5 61.59375 36.34375 59.890625 
Q 38.203125 58.203125 39.296875 55.84375 
Q 40.40625 53.5 40.40625 50.59375 
Q 40.40625 46.90625 39.25 44.09375 
Q 38.09375 41.296875 35.84375 38.890625 
Q 33.59375 36.5 30.1875 34.140625 
Q 26.796875 31.796875 22.296875 29 
Q 18.59375 26.796875 15.1875 24.296875 
Q 11.796875 21.796875 9.09375 18.5 
Q 6.40625 15.203125 4.65625 10.75 
Q 2.90625 6.296875 2.40625 0 
L 48.703125 0 
L 48.703125 7.5 
L 12.296875 7.5 
Q 12.90625 10.796875 14.84375 13.34375 
Q 16.796875 15.90625 19.546875 18.09375 
Q 22.296875 20.296875 25.59375 22.25 
Q 28.90625 24.203125 32.203125 26.203125 
Q 35.5 28.296875 38.59375 30.59375 
Q 41.703125 32.90625 44.09375 35.75 
Q 46.5 38.59375 47.953125 42.1875 
Q 49.40625 45.796875 49.40625 50.5 
Q 49.40625 55.5 47.65625 59.296875 
Q 45.90625 63.09375 42.90625 65.640625 
Q 39.90625 68.203125 35.84375 69.546875 
Q 31.796875 70.90625 27.203125 70.90625 
Q 21.59375 70.90625 17.1875 69 
Q 12.796875 67.09375 9.84375 63.75 
Q 6.90625 60.40625 5.5 55.796875 
Q 4.09375 51.203125 4.40625 45.796875 
z
" id="HelveticaNeue-50"/>
       </defs>
       <use xlink:href="#HelveticaNeue-50"/>
       <use x="55.599991" xlink:href="#HelveticaNeue-46"/>
       <use x="83.399979" xlink:href="#HelveticaNeue-48"/>
      </g>
     </g>
    </g>
   </g>
   <g id="LineCollection_1">
    <path clip-path="url(#p3b14b2da9d)" d="M 51.970208 163.533429 
L 51.970208 141.089 
" style="fill:none;stroke:#4c4c4c;stroke-opacity:0.5;"/>
    <path clip-path="url(#p3b14b2da9d)" d="M 87.430452 159.989571 
L 87.430452 136.9545 
" style="fill:none;stroke:#4c4c4c;stroke-opacity:0.5;"/>
    <path clip-path="url(#p3b14b2da9d)" d="M 122.890696 159.989571 
L 122.890696 133.410643 
" style="fill:none;stroke:#4c4c4c;stroke-opacity:0.5;"/>
    <path clip-path="url(#p3b14b2da9d)" d="M 158.35094 157.036357 
L 158.35094 134.591929 
" style="fill:none;stroke:#4c4c4c;stroke-opacity:0.5;"/>
    <path clip-path="url(#p3b14b2da9d)" d="M 193.811184 158.217643 
L 193.811184 132.229357 
" style="fill:none;stroke:#4c4c4c;stroke-opacity:0.5;"/>
    <path clip-path="url(#p3b14b2da9d)" d="M 229.271429 157.627 
L 229.271429 131.048071 
" style="fill:none;stroke:#4c4c4c;stroke-opacity:0.5;"/>
    <path clip-path="url(#p3b14b2da9d)" d="M 264.731673 154.083143 
L 264.731673 125.141643 
" style="fill:none;stroke:#4c4c4c;stroke-opacity:0.5;"/>
    <path clip-path="url(#p3b14b2da9d)" d="M 300.191917 154.083143 
L 300.191917 125.141643 
" style="fill:none;stroke:#4c4c4c;stroke-opacity:0.5;"/>
    <path clip-path="url(#p3b14b2da9d)" d="M 335.652161 153.4925 
L 335.652161 123.369714 
" style="fill:none;stroke:#4c4c4c;stroke-opacity:0.5;"/>
    <path clip-path="url(#p3b14b2da9d)" d="M 371.112405 152.901857 
L 371.112405 124.551 
" style="fill:none;stroke:#4c4c4c;stroke-opacity:0.5;"/>
    <path clip-path="url(#p3b14b2da9d)" d="M 406.572649 155.264429 
L 406.572649 121.007143 
" style="fill:none;stroke:#4c4c4c;stroke-opacity:0.5;"/>
   </g>
   <g id="line2d_17">
    <defs>
     <path d="M 2 0 
L -2 -0 
" id="m80c8046244" style="stroke:#4c4c4c;stroke-opacity:0.5;"/>
    </defs>
    <g clip-path="url(#p3b14b2da9d)">
     <use style="fill:#4c4c4c;fill-opacity:0.5;stroke:#4c4c4c;stroke-opacity:0.5;" x="51.970208" xlink:href="#m80c8046244" y="163.533429"/>
     <use style="fill:#4c4c4c;fill-opacity:0.5;stroke:#4c4c4c;stroke-opacity:0.5;" x="87.430452" xlink:href="#m80c8046244" y="159.989571"/>
     <use style="fill:#4c4c4c;fill-opacity:0.5;stroke:#4c4c4c;stroke-opacity:0.5;" x="122.890696" xlink:href="#m80c8046244" y="159.989571"/>
     <use style="fill:#4c4c4c;fill-opacity:0.5;stroke:#4c4c4c;stroke-opacity:0.5;" x="158.35094" xlink:href="#m80c8046244" y="157.036357"/>
     <use style="fill:#4c4c4c;fill-opacity:0.5;stroke:#4c4c4c;stroke-opacity:0.5;" x="193.811184" xlink:href="#m80c8046244" y="158.217643"/>
     <use style="fill:#4c4c4c;fill-opacity:0.5;stroke:#4c4c4c;stroke-opacity:0.5;" x="229.271429" xlink:href="#m80c8046244" y="157.627"/>
     <use style="fill:#4c4c4c;fill-opacity:0.5;stroke:#4c4c4c;stroke-opacity:0.5;" x="264.731673" xlink:href="#m80c8046244" y="154.083143"/>
     <use style="fill:#4c4c4c;fill-opacity:0.5;stroke:#4c4c4c;stroke-opacity:0.5;" x="300.191917" xlink:href="#m80c8046244" y="154.083143"/>
     <use style="fill:#4c4c4c;fill-opacity:0.5;stroke:#4c4c4c;stroke-opacity:0.5;" x="335.652161" xlink:href="#m80c8046244" y="153.4925"/>
     <use style="fill:#4c4c4c;fill-opacity:0.5;stroke:#4c4c4c;stroke-opacity:0.5;" x="371.112405" xlink:href="#m80c8046244" y="152.901857"/>
     <use style="fill:#4c4c4c;fill-opacity:0.5;stroke:#4c4c4c;stroke-opacity:0.5;" x="406.572649" xlink:href="#m80c8046244" y="155.264429"/>
    </g>
   </g>
   <g id="line2d_18">
    <g clip-path="url(#p3b14b2da9d)">
     <use style="fill:#4c4c4c;fill-opacity:0.5;stroke:#4c4c4c;stroke-opacity:0.5;" x="51.970208" xlink:href="#m80c8046244" y="141.089"/>
     <use style="fill:#4c4c4c;fill-opacity:0.5;stroke:#4c4c4c;stroke-opacity:0.5;" x="87.430452" xlink:href="#m80c8046244" y="136.9545"/>
     <use style="fill:#4c4c4c;fill-opacity:0.5;stroke:#4c4c4c;stroke-opacity:0.5;" x="122.890696" xlink:href="#m80c8046244" y="133.410643"/>
     <use style="fill:#4c4c4c;fill-opacity:0.5;stroke:#4c4c4c;stroke-opacity:0.5;" x="158.35094" xlink:href="#m80c8046244" y="134.591929"/>
     <use style="fill:#4c4c4c;fill-opacity:0.5;stroke:#4c4c4c;stroke-opacity:0.5;" x="193.811184" xlink:href="#m80c8046244" y="132.229357"/>
     <use style="fill:#4c4c4c;fill-opacity:0.5;stroke:#4c4c4c;stroke-opacity:0.5;" x="229.271429" xlink:href="#m80c8046244" y="131.048071"/>
     <use style="fill:#4c4c4c;fill-opacity:0.5;stroke:#4c4c4c;stroke-opacity:0.5;" x="264.731673" xlink:href="#m80c8046244" y="125.141643"/>
     <use style="fill:#4c4c4c;fill-opacity:0.5;stroke:#4c4c4c;stroke-opacity:0.5;" x="300.191917" xlink:href="#m80c8046244" y="125.141643"/>
     <use style="fill:#4c4c4c;fill-opacity:0.5;stroke:#4c4c4c;stroke-opacity:0.5;" x="335.652161" xlink:href="#m80c8046244" y="123.369714"/>
     <use style="fill:#4c4c4c;fill-opacity:0.5;stroke:#4c4c4c;stroke-opacity:0.5;" x="371.112405" xlink:href="#m80c8046244" y="124.551"/>
     <use style="fill:#4c4c4c;fill-opacity:0.5;stroke:#4c4c4c;stroke-opacity:0.5;" x="406.572649" xlink:href="#m80c8046244" y="121.007143"/>
    </g>
   </g>
   <g id="line2d_19">
    <path clip-path="url(#p3b14b2da9d)" d="M 37.342857 121.007143 
L 421.2 121.007143 
" style="fill:none;stroke:#000000;stroke-dasharray:1,1.65;stroke-dashoffset:0;"/>
   </g>
   <g id="patch_14">
    <path d="M 37.342857 180.071429 
L 37.342857 61.942857 
" style="fill:none;stroke:#555555;stroke-linecap:square;stroke-linejoin:miter;"/>
   </g>
   <g id="patch_15">
    <path d="M 37.342857 180.071429 
L 421.2 180.071429 
" style="fill:none;stroke:#555555;stroke-linecap:square;stroke-linejoin:miter;"/>
   </g>
   <g id="text_17">
    <!-- Localidades que tienen la  -->
    <g style="fill:#555555;" transform="translate(147.455647 22.433482)scale(0.14 -0.14)">
     <defs>
      <path d="M 7.796875 71.40625 
L 7.796875 0 
L 55.09375 0 
L 55.09375 8 
L 17.296875 8 
L 17.296875 71.40625 
z
" id="HelveticaNeue-76"/>
      <path d="M 41.5 35.09375 
L 50.296875 35.09375 
Q 49.796875 39.703125 47.890625 43.046875 
Q 46 46.40625 43.046875 48.59375 
Q 40.09375 50.796875 36.25 51.84375 
Q 32.40625 52.90625 28 52.90625 
Q 21.90625 52.90625 17.296875 50.75 
Q 12.703125 48.59375 9.640625 44.84375 
Q 6.59375 41.09375 5.09375 36.046875 
Q 3.59375 31 3.59375 25.203125 
Q 3.59375 19.40625 5.140625 14.546875 
Q 6.703125 9.703125 9.75 6.203125 
Q 12.796875 2.703125 17.34375 0.796875 
Q 21.90625 -1.09375 27.796875 -1.09375 
Q 37.703125 -1.09375 43.453125 4.09375 
Q 49.203125 9.296875 50.59375 18.90625 
L 41.90625 18.90625 
Q 41.09375 12.90625 37.546875 9.59375 
Q 34 6.296875 27.703125 6.296875 
Q 23.703125 6.296875 20.796875 7.890625 
Q 17.90625 9.5 16.09375 12.140625 
Q 14.296875 14.796875 13.4375 18.1875 
Q 12.59375 21.59375 12.59375 25.203125 
Q 12.59375 29.09375 13.390625 32.75 
Q 14.203125 36.40625 16.046875 39.203125 
Q 17.90625 42 21 43.703125 
Q 24.09375 45.40625 28.703125 45.40625 
Q 34.09375 45.40625 37.296875 42.703125 
Q 40.5 40 41.5 35.09375 
z
" id="HelveticaNeue-99"/>
     </defs>
     <use xlink:href="#HelveticaNeue-76"/>
     <use x="55.599991" xlink:href="#HelveticaNeue-111"/>
     <use x="112.999985" xlink:href="#HelveticaNeue-99"/>
     <use x="166.699982" xlink:href="#HelveticaNeue-97"/>
     <use x="220.399979" xlink:href="#HelveticaNeue-108"/>
     <use x="242.599976" xlink:href="#HelveticaNeue-105"/>
     <use x="264.799973" xlink:href="#HelveticaNeue-100"/>
     <use x="324.09996" xlink:href="#HelveticaNeue-97"/>
     <use x="377.799957" xlink:href="#HelveticaNeue-100"/>
     <use x="437.099945" xlink:href="#HelveticaNeue-101"/>
     <use x="490.799942" xlink:href="#HelveticaNeue-115"/>
     <use x="540.799927" xlink:href="#HelveticaNeue-32"/>
     <use x="568.599915" xlink:href="#HelveticaNeue-113"/>
     <use x="627.899902" xlink:href="#HelveticaNeue-117"/>
     <use x="683.499893" xlink:href="#HelveticaNeue-101"/>
     <use x="737.19989" xlink:href="#HelveticaNeue-32"/>
     <use x="764.999878" xlink:href="#HelveticaNeue-116"/>
     <use x="796.499863" xlink:href="#HelveticaNeue-105"/>
     <use x="818.69986" xlink:href="#HelveticaNeue-101"/>
     <use x="872.399857" xlink:href="#HelveticaNeue-110"/>
     <use x="927.999847" xlink:href="#HelveticaNeue-101"/>
     <use x="981.699844" xlink:href="#HelveticaNeue-110"/>
     <use x="1037.299835" xlink:href="#HelveticaNeue-32"/>
     <use x="1065.099823" xlink:href="#HelveticaNeue-108"/>
     <use x="1087.29982" xlink:href="#HelveticaNeue-97"/>
     <use x="1140.999817" xlink:href="#HelveticaNeue-32"/>
    </g>
    <!--  pandemia bajo control  -->
    <g style="fill:#555555;" transform="translate(155.35471 37.18817)scale(0.14 -0.14)">
     <defs>
      <path d="M 6.40625 51.703125 
L 6.40625 0 
L 14.90625 0 
L 14.90625 32.203125 
Q 14.90625 33.703125 15.65625 35.953125 
Q 16.40625 38.203125 18.046875 40.296875 
Q 19.703125 42.40625 22.34375 43.90625 
Q 25 45.40625 28.703125 45.40625 
Q 31.59375 45.40625 33.4375 44.546875 
Q 35.296875 43.703125 36.390625 42.140625 
Q 37.5 40.59375 37.953125 38.5 
Q 38.40625 36.40625 38.40625 33.90625 
L 38.40625 0 
L 46.90625 0 
L 46.90625 32.203125 
Q 46.90625 38.203125 50.5 41.796875 
Q 54.09375 45.40625 60.40625 45.40625 
Q 63.5 45.40625 65.453125 44.5 
Q 67.40625 43.59375 68.5 42.046875 
Q 69.59375 40.5 70 38.390625 
Q 70.40625 36.296875 70.40625 33.90625 
L 70.40625 0 
L 78.90625 0 
L 78.90625 37.90625 
Q 78.90625 41.90625 77.65625 44.75 
Q 76.40625 47.59375 74.15625 49.390625 
Q 71.90625 51.203125 68.75 52.046875 
Q 65.59375 52.90625 61.703125 52.90625 
Q 56.59375 52.90625 52.34375 50.59375 
Q 48.09375 48.296875 45.5 44.09375 
Q 43.90625 48.90625 40 50.90625 
Q 36.09375 52.90625 31.296875 52.90625 
Q 20.40625 52.90625 14.59375 44.09375 
L 14.40625 44.09375 
L 14.40625 51.703125 
z
" id="HelveticaNeue-109"/>
      <path d="M 15.40625 61 
L 15.40625 71.40625 
L 6.90625 71.40625 
L 6.90625 61 
z
M 15.40625 -6.5 
L 15.40625 51.703125 
L 6.90625 51.703125 
L 6.90625 -5.09375 
Q 6.90625 -9.09375 5.90625 -10.640625 
Q 4.90625 -12.203125 2.09375 -12.203125 
L 0.296875 -12.203125 
Q -0.09375 -12.203125 -0.4375 -12.140625 
Q -0.796875 -12.09375 -1.296875 -12 
L -1.296875 -19.296875 
Q 0.703125 -19.703125 3 -19.703125 
Q 8.703125 -19.703125 12.046875 -16.546875 
Q 15.40625 -13.40625 15.40625 -6.5 
z
" id="HelveticaNeue-106"/>
     </defs>
     <use xlink:href="#HelveticaNeue-32"/>
     <use x="27.799988" xlink:href="#HelveticaNeue-112"/>
     <use x="87.099976" xlink:href="#HelveticaNeue-97"/>
     <use x="140.799973" xlink:href="#HelveticaNeue-110"/>
     <use x="196.399963" xlink:href="#HelveticaNeue-100"/>
     <use x="255.699951" xlink:href="#HelveticaNeue-101"/>
     <use x="309.399948" xlink:href="#HelveticaNeue-109"/>
     <use x="394.699936" xlink:href="#HelveticaNeue-105"/>
     <use x="416.899933" xlink:href="#HelveticaNeue-97"/>
     <use x="470.59993" xlink:href="#HelveticaNeue-32"/>
     <use x="498.399918" xlink:href="#HelveticaNeue-98"/>
     <use x="557.699905" xlink:href="#HelveticaNeue-97"/>
     <use x="611.399902" xlink:href="#HelveticaNeue-106"/>
     <use x="633.599899" xlink:href="#HelveticaNeue-111"/>
     <use x="690.999893" xlink:href="#HelveticaNeue-32"/>
     <use x="718.799881" xlink:href="#HelveticaNeue-99"/>
     <use x="772.499878" xlink:href="#HelveticaNeue-111"/>
     <use x="829.899872" xlink:href="#HelveticaNeue-110"/>
     <use x="885.499863" xlink:href="#HelveticaNeue-116"/>
     <use x="916.999847" xlink:href="#HelveticaNeue-114"/>
     <use x="948.549835" xlink:href="#HelveticaNeue-111"/>
     <use x="1005.949829" xlink:href="#HelveticaNeue-108"/>
     <use x="1028.149826" xlink:href="#HelveticaNeue-32"/>
    </g>
    <!--  2021-07-08 -->
    <g style="fill:#555555;" transform="translate(190.746272 51.942857)scale(0.14 -0.14)">
     <defs>
      <path d="M 5 31.796875 
L 5 23.796875 
L 33.90625 23.796875 
L 33.90625 31.796875 
z
" id="HelveticaNeue-45"/>
      <path d="M 50.90625 62.40625 
L 50.90625 69.703125 
L 5 69.703125 
L 5 61.703125 
L 42.203125 61.703125 
Q 36.59375 55.796875 31.75 48.796875 
Q 26.90625 41.796875 23.203125 33.9375 
Q 19.5 26.09375 17.140625 17.546875 
Q 14.796875 9 14.203125 0 
L 23.703125 0 
Q 24.203125 8.296875 26.5 17.09375 
Q 28.796875 25.90625 32.4375 34.203125 
Q 36.09375 42.5 40.796875 49.796875 
Q 45.5 57.09375 50.90625 62.40625 
z
" id="HelveticaNeue-55"/>
      <path d="M 15.5 52.5 
Q 15.5 55.203125 16.5 57.203125 
Q 17.5 59.203125 19.140625 60.59375 
Q 20.796875 62 23.09375 62.703125 
Q 25.40625 63.40625 27.90625 63.40625 
Q 33.09375 63.40625 36.4375 60.65625 
Q 39.796875 57.90625 39.796875 52.5 
Q 39.796875 47.09375 36.5 44.09375 
Q 33.203125 41.09375 28.09375 41.09375 
Q 25.5 41.09375 23.203125 41.796875 
Q 20.90625 42.5 19.203125 43.890625 
Q 17.5 45.296875 16.5 47.4375 
Q 15.5 49.59375 15.5 52.5 
z
M 6.5 52.796875 
Q 6.5 48 9.203125 43.953125 
Q 11.90625 39.90625 16.40625 38.09375 
Q 10.40625 36 7.203125 31.34375 
Q 4 26.703125 4 20.40625 
Q 4 15 5.84375 10.953125 
Q 7.703125 6.90625 10.953125 4.203125 
Q 14.203125 1.5 18.59375 0.203125 
Q 23 -1.09375 28.09375 -1.09375 
Q 33 -1.09375 37.296875 0.296875 
Q 41.59375 1.703125 44.75 4.453125 
Q 47.90625 7.203125 49.75 11.203125 
Q 51.59375 15.203125 51.59375 20.40625 
Q 51.59375 27 48.5 31.546875 
Q 45.40625 36.09375 39 38.09375 
Q 43.5 40.09375 46.140625 44.046875 
Q 48.796875 48 48.796875 52.796875 
Q 48.796875 56.203125 47.59375 59.453125 
Q 46.40625 62.703125 43.84375 65.25 
Q 41.296875 67.796875 37.1875 69.34375 
Q 33.09375 70.90625 27.296875 70.90625 
Q 23.203125 70.90625 19.453125 69.703125 
Q 15.703125 68.5 12.796875 66.203125 
Q 9.90625 63.90625 8.203125 60.546875 
Q 6.5 57.203125 6.5 52.796875 
z
M 13 20 
Q 13 23.09375 14.140625 25.59375 
Q 15.296875 28.09375 17.34375 29.890625 
Q 19.40625 31.703125 22.15625 32.640625 
Q 24.90625 33.59375 28 33.59375 
Q 31 33.59375 33.640625 32.546875 
Q 36.296875 31.5 38.296875 29.703125 
Q 40.296875 27.90625 41.4375 25.453125 
Q 42.59375 23 42.59375 20.09375 
Q 42.59375 17.09375 41.546875 14.59375 
Q 40.5 12.09375 38.546875 10.25 
Q 36.59375 8.40625 33.9375 7.34375 
Q 31.296875 6.296875 28.09375 6.296875 
Q 21.5 6.296875 17.25 9.9375 
Q 13 13.59375 13 20 
z
" id="HelveticaNeue-56"/>
     </defs>
     <use xlink:href="#HelveticaNeue-32"/>
     <use x="27.799988" xlink:href="#HelveticaNeue-50"/>
     <use x="83.399979" xlink:href="#HelveticaNeue-48"/>
     <use x="138.999969" xlink:href="#HelveticaNeue-50"/>
     <use x="194.59996" xlink:href="#HelveticaNeue-49"/>
     <use x="250.199951" xlink:href="#HelveticaNeue-45"/>
     <use x="289.099945" xlink:href="#HelveticaNeue-48"/>
     <use x="344.699936" xlink:href="#HelveticaNeue-55"/>
     <use x="400.299927" xlink:href="#HelveticaNeue-45"/>
     <use x="439.199921" xlink:href="#HelveticaNeue-48"/>
     <use x="494.799911" xlink:href="#HelveticaNeue-56"/>
    </g>
   </g>
  </g>
 </g>
 <defs>
  <clipPath id="p3b14b2da9d">
   <rect height="118.128571" width="383.857143" x="37.342857" y="61.942857"/>
  </clipPath>
 </defs>
</svg>
