<?xml version="1.0" encoding="utf-8" standalone="no"?>
<!DOCTYPE svg PUBLIC "-//W3C//DTD SVG 1.1//EN"
  "http://www.w3.org/Graphics/SVG/1.1/DTD/svg11.dtd">
<!-- Created with matplotlib (https://matplotlib.org/) -->
<svg height="300pt" version="1.1" viewBox="0 0 500 300" width="500pt" xmlns="http://www.w3.org/2000/svg" xmlns:xlink="http://www.w3.org/1999/xlink">
 <metadata>
  <rdf:RDF xmlns:cc="http://creativecommons.org/ns#" xmlns:dc="http://purl.org/dc/elements/1.1/" xmlns:rdf="http://www.w3.org/1999/02/22-rdf-syntax-ns#">
   <cc:Work>
    <dc:type rdf:resource="http://purl.org/dc/dcmitype/StillImage"/>
    <dc:date>2021-06-19T21:11:28.431849</dc:date>
    <dc:format>image/svg+xml</dc:format>
    <dc:creator>
     <cc:Agent>
      <dc:title>Matplotlib v3.3.4, https://matplotlib.org/</dc:title>
     </cc:Agent>
    </dc:creator>
   </cc:Work>
  </rdf:RDF>
 </metadata>
 <defs>
  <style type="text/css">*{stroke-linecap:butt;stroke-linejoin:round;}</style>
 </defs>
 <g id="figure_1">
  <g id="patch_1">
   <path d="M 0 300 
L 500 300 
L 500 0 
L 0 0 
z
" style="fill:#ffffff;"/>
  </g>
  <g id="axes_1">
   <g id="patch_2">
    <path d="M 62.5 262.5 
L 450 262.5 
L 450 27 
L 62.5 27 
z
" style="fill:#ffffff;"/>
   </g>
   <g id="matplotlib.axis_1">
    <g id="xtick_1">
     <g id="line2d_1">
      <defs>
       <path d="M 0 0 
L 0 3.5 
" id="m5781c00419" style="stroke:#555555;stroke-width:0.8;"/>
      </defs>
      <g>
       <use style="fill:#555555;stroke:#555555;stroke-width:0.8;" x="62.5" xlink:href="#m5781c00419" y="262.5"/>
      </g>
     </g>
    </g>
    <g id="xtick_2">
     <g id="line2d_2">
      <g>
       <use style="fill:#555555;stroke:#555555;stroke-width:0.8;" x="64.245495" xlink:href="#m5781c00419" y="262.5"/>
      </g>
     </g>
     <g id="text_1">
      <!-- Apr -->
      <g style="fill:#555555;" transform="translate(56.375964 276.640625)scale(0.1 -0.1)">
       <defs>
        <path d="M 20.09375 29.5 
L 32.203125 62.796875 
L 32.40625 62.796875 
L 44.296875 29.5 
z
M 27.203125 71.40625 
L -0.59375 0 
L 9.09375 0 
L 17.09375 21.5 
L 47.296875 21.5 
L 55.09375 0 
L 65.59375 0 
L 37.703125 71.40625 
z
" id="HelveticaNeue-65"/>
        <path d="M 6.703125 51.703125 
L 6.703125 -19.703125 
L 15.203125 -19.703125 
L 15.203125 6.90625 
L 15.40625 6.90625 
Q 16.796875 4.59375 18.84375 3.046875 
Q 20.90625 1.5 23.203125 0.59375 
Q 25.5 -0.296875 27.84375 -0.6875 
Q 30.203125 -1.09375 32.09375 -1.09375 
Q 38 -1.09375 42.453125 1 
Q 46.90625 3.09375 49.84375 6.75 
Q 52.796875 10.40625 54.25 15.296875 
Q 55.703125 20.203125 55.703125 25.703125 
Q 55.703125 31.203125 54.203125 36.09375 
Q 52.703125 41 49.75 44.75 
Q 46.796875 48.5 42.34375 50.703125 
Q 37.90625 52.90625 31.90625 52.90625 
Q 26.5 52.90625 22 50.953125 
Q 17.5 49 15.40625 44.703125 
L 15.203125 44.703125 
L 15.203125 51.703125 
z
M 46.703125 26.296875 
Q 46.703125 22.5 45.890625 18.890625 
Q 45.09375 15.296875 43.296875 12.5 
Q 41.5 9.703125 38.546875 8 
Q 35.59375 6.296875 31.203125 6.296875 
Q 26.796875 6.296875 23.6875 7.9375 
Q 20.59375 9.59375 18.640625 12.296875 
Q 16.703125 15 15.796875 18.546875 
Q 14.90625 22.09375 14.90625 25.90625 
Q 14.90625 29.5 15.75 33 
Q 16.59375 36.5 18.5 39.25 
Q 20.40625 42 23.40625 43.703125 
Q 26.40625 45.40625 30.703125 45.40625 
Q 34.796875 45.40625 37.84375 43.796875 
Q 40.90625 42.203125 42.84375 39.5 
Q 44.796875 36.796875 45.75 33.34375 
Q 46.703125 29.90625 46.703125 26.296875 
z
" id="HelveticaNeue-112"/>
        <path d="M 6.09375 51.703125 
L 6.09375 0 
L 14.59375 0 
L 14.59375 23 
Q 14.59375 28 15.59375 31.84375 
Q 16.59375 35.703125 18.796875 38.390625 
Q 21 41.09375 24.59375 42.5 
Q 28.203125 43.90625 33.296875 43.90625 
L 33.296875 52.90625 
Q 26.40625 53.09375 21.90625 50.09375 
Q 17.40625 47.09375 14.296875 40.796875 
L 14.09375 40.796875 
L 14.09375 51.703125 
z
" id="HelveticaNeue-114"/>
       </defs>
       <use xlink:href="#HelveticaNeue-65"/>
       <use x="64.799988" xlink:href="#HelveticaNeue-112"/>
       <use x="124.099976" xlink:href="#HelveticaNeue-114"/>
      </g>
     </g>
    </g>
    <g id="xtick_3">
     <g id="line2d_3">
      <g>
       <use style="fill:#555555;stroke:#555555;stroke-width:0.8;" x="143.665541" xlink:href="#m5781c00419" y="262.5"/>
      </g>
     </g>
     <g id="text_2">
      <!-- Jul -->
      <g style="fill:#555555;" transform="translate(137.180384 276.640625)scale(0.1 -0.1)">
       <defs>
        <path d="M 44.09375 17.796875 
L 44.09375 71.40625 
L 34.59375 71.40625 
L 34.59375 19.203125 
Q 34.59375 13.296875 32.140625 9.796875 
Q 29.703125 6.296875 23.203125 6.296875 
Q 19.703125 6.296875 17.453125 7.34375 
Q 15.203125 8.40625 13.953125 10.296875 
Q 12.703125 12.203125 12.203125 14.796875 
Q 11.703125 17.40625 11.703125 20.5 
L 11.703125 23.5 
L 2.203125 23.5 
L 2.203125 19.09375 
Q 2.203125 8.90625 7.59375 3.65625 
Q 13 -1.59375 23 -1.59375 
Q 29 -1.59375 33.046875 0.046875 
Q 37.09375 1.703125 39.546875 4.453125 
Q 42 7.203125 43.046875 10.703125 
Q 44.09375 14.203125 44.09375 17.796875 
z
" id="HelveticaNeue-74"/>
        <path d="M 49.203125 0 
L 49.203125 51.703125 
L 40.703125 51.703125 
L 40.703125 22.5 
Q 40.703125 19 39.75 16.046875 
Q 38.796875 13.09375 36.890625 10.890625 
Q 35 8.703125 32.140625 7.5 
Q 29.296875 6.296875 25.40625 6.296875 
Q 20.5 6.296875 17.703125 9.09375 
Q 14.90625 11.90625 14.90625 16.703125 
L 14.90625 51.703125 
L 6.40625 51.703125 
L 6.40625 17.703125 
Q 6.40625 13.5 7.25 10.046875 
Q 8.09375 6.59375 10.1875 4.09375 
Q 12.296875 1.59375 15.6875 0.25 
Q 19.09375 -1.09375 24.203125 -1.09375 
Q 29.90625 -1.09375 34.09375 1.15625 
Q 38.296875 3.40625 41 8.203125 
L 41.203125 8.203125 
L 41.203125 0 
z
" id="HelveticaNeue-117"/>
        <path d="M 6.90625 71.40625 
L 6.90625 0 
L 15.40625 0 
L 15.40625 71.40625 
z
" id="HelveticaNeue-108"/>
       </defs>
       <use xlink:href="#HelveticaNeue-74"/>
       <use x="51.899994" xlink:href="#HelveticaNeue-117"/>
       <use x="107.499985" xlink:href="#HelveticaNeue-108"/>
      </g>
     </g>
    </g>
    <g id="xtick_4">
     <g id="line2d_4">
      <g>
       <use style="fill:#555555;stroke:#555555;stroke-width:0.8;" x="223.958333" xlink:href="#m5781c00419" y="262.5"/>
      </g>
     </g>
     <g id="text_3">
      <!-- Oct -->
      <g style="fill:#555555;" transform="translate(215.898177 276.640625)scale(0.1 -0.1)">
       <defs>
        <path d="M 13.296875 35.703125 
Q 13.296875 41.09375 14.6875 46.34375 
Q 16.09375 51.59375 19.09375 55.796875 
Q 22.09375 60 26.796875 62.546875 
Q 31.5 65.09375 38 65.09375 
Q 44.5 65.09375 49.203125 62.546875 
Q 53.90625 60 56.90625 55.796875 
Q 59.90625 51.59375 61.296875 46.34375 
Q 62.703125 41.09375 62.703125 35.703125 
Q 62.703125 30.296875 61.296875 25.046875 
Q 59.90625 19.796875 56.90625 15.59375 
Q 53.90625 11.40625 49.203125 8.84375 
Q 44.5 6.296875 38 6.296875 
Q 31.5 6.296875 26.796875 8.84375 
Q 22.09375 11.40625 19.09375 15.59375 
Q 16.09375 19.796875 14.6875 25.046875 
Q 13.296875 30.296875 13.296875 35.703125 
z
M 3.796875 35.703125 
Q 3.796875 28.40625 5.9375 21.65625 
Q 8.09375 14.90625 12.390625 9.703125 
Q 16.703125 4.5 23.09375 1.453125 
Q 29.5 -1.59375 38 -1.59375 
Q 46.5 -1.59375 52.890625 1.453125 
Q 59.296875 4.5 63.59375 9.703125 
Q 67.90625 14.90625 70.046875 21.65625 
Q 72.203125 28.40625 72.203125 35.703125 
Q 72.203125 43 70.046875 49.75 
Q 67.90625 56.5 63.59375 61.703125 
Q 59.296875 66.90625 52.890625 70 
Q 46.5 73.09375 38 73.09375 
Q 29.5 73.09375 23.09375 70 
Q 16.703125 66.90625 12.390625 61.703125 
Q 8.09375 56.5 5.9375 49.75 
Q 3.796875 43 3.796875 35.703125 
z
" id="HelveticaNeue-79"/>
        <path d="M 41.5 35.09375 
L 50.296875 35.09375 
Q 49.796875 39.703125 47.890625 43.046875 
Q 46 46.40625 43.046875 48.59375 
Q 40.09375 50.796875 36.25 51.84375 
Q 32.40625 52.90625 28 52.90625 
Q 21.90625 52.90625 17.296875 50.75 
Q 12.703125 48.59375 9.640625 44.84375 
Q 6.59375 41.09375 5.09375 36.046875 
Q 3.59375 31 3.59375 25.203125 
Q 3.59375 19.40625 5.140625 14.546875 
Q 6.703125 9.703125 9.75 6.203125 
Q 12.796875 2.703125 17.34375 0.796875 
Q 21.90625 -1.09375 27.796875 -1.09375 
Q 37.703125 -1.09375 43.453125 4.09375 
Q 49.203125 9.296875 50.59375 18.90625 
L 41.90625 18.90625 
Q 41.09375 12.90625 37.546875 9.59375 
Q 34 6.296875 27.703125 6.296875 
Q 23.703125 6.296875 20.796875 7.890625 
Q 17.90625 9.5 16.09375 12.140625 
Q 14.296875 14.796875 13.4375 18.1875 
Q 12.59375 21.59375 12.59375 25.203125 
Q 12.59375 29.09375 13.390625 32.75 
Q 14.203125 36.40625 16.046875 39.203125 
Q 17.90625 42 21 43.703125 
Q 24.09375 45.40625 28.703125 45.40625 
Q 34.09375 45.40625 37.296875 42.703125 
Q 40.5 40 41.5 35.09375 
z
" id="HelveticaNeue-99"/>
        <path d="M 18.203125 51.703125 
L 18.203125 67.203125 
L 9.703125 67.203125 
L 9.703125 51.703125 
L 0.90625 51.703125 
L 0.90625 44.203125 
L 9.703125 44.203125 
L 9.703125 11.296875 
Q 9.703125 7.703125 10.390625 5.5 
Q 11.09375 3.296875 12.546875 2.09375 
Q 14 0.90625 16.34375 0.453125 
Q 18.703125 0 22 0 
L 28.5 0 
L 28.5 7.5 
L 24.59375 7.5 
Q 22.59375 7.5 21.34375 7.640625 
Q 20.09375 7.796875 19.390625 8.296875 
Q 18.703125 8.796875 18.453125 9.6875 
Q 18.203125 10.59375 18.203125 12.09375 
L 18.203125 44.203125 
L 28.5 44.203125 
L 28.5 51.703125 
z
" id="HelveticaNeue-116"/>
       </defs>
       <use xlink:href="#HelveticaNeue-79"/>
       <use x="75.999985" xlink:href="#HelveticaNeue-99"/>
       <use x="129.699982" xlink:href="#HelveticaNeue-116"/>
      </g>
     </g>
    </g>
    <g id="xtick_5">
     <g id="line2d_5">
      <g>
       <use style="fill:#555555;stroke:#555555;stroke-width:0.8;" x="304.251126" xlink:href="#m5781c00419" y="262.5"/>
      </g>
     </g>
     <g id="text_4">
      <!-- Jan -->
      <g style="fill:#555555;" transform="translate(296.19097 276.640625)scale(0.1 -0.1)">
       <defs>
        <path d="M 52.203125 0.203125 
Q 50 -1.09375 46.09375 -1.09375 
Q 42.796875 -1.09375 40.84375 0.75 
Q 38.90625 2.59375 38.90625 6.796875 
Q 35.40625 2.59375 30.75 0.75 
Q 26.09375 -1.09375 20.703125 -1.09375 
Q 17.203125 -1.09375 14.046875 -0.296875 
Q 10.90625 0.5 8.59375 2.203125 
Q 6.296875 3.90625 4.9375 6.65625 
Q 3.59375 9.40625 3.59375 13.296875 
Q 3.59375 17.703125 5.09375 20.5 
Q 6.59375 23.296875 9.046875 25.046875 
Q 11.5 26.796875 14.640625 27.6875 
Q 17.796875 28.59375 21.09375 29.203125 
Q 24.59375 29.90625 27.75 30.25 
Q 30.90625 30.59375 33.296875 31.25 
Q 35.703125 31.90625 37.09375 33.15625 
Q 38.5 34.40625 38.5 36.796875 
Q 38.5 39.59375 37.453125 41.296875 
Q 36.40625 43 34.75 43.890625 
Q 33.09375 44.796875 31.046875 45.09375 
Q 29 45.40625 27 45.40625 
Q 21.59375 45.40625 18 43.34375 
Q 14.40625 41.296875 14.09375 35.59375 
L 5.59375 35.59375 
Q 5.796875 40.40625 7.59375 43.703125 
Q 9.40625 47 12.40625 49.046875 
Q 15.40625 51.09375 19.25 52 
Q 23.09375 52.90625 27.5 52.90625 
Q 31 52.90625 34.453125 52.40625 
Q 37.90625 51.90625 40.703125 50.34375 
Q 43.5 48.796875 45.203125 46 
Q 46.90625 43.203125 46.90625 38.703125 
L 46.90625 12.09375 
Q 46.90625 9.09375 47.25 7.6875 
Q 47.59375 6.296875 49.59375 6.296875 
Q 50.703125 6.296875 52.203125 6.796875 
z
M 38.40625 26.703125 
Q 36.796875 25.5 34.1875 24.953125 
Q 31.59375 24.40625 28.75 24.046875 
Q 25.90625 23.703125 23 23.25 
Q 20.09375 22.796875 17.796875 21.796875 
Q 15.5 20.796875 14.046875 18.9375 
Q 12.59375 17.09375 12.59375 13.90625 
Q 12.59375 11.796875 13.4375 10.34375 
Q 14.296875 8.90625 15.640625 8 
Q 17 7.09375 18.796875 6.6875 
Q 20.59375 6.296875 22.59375 6.296875 
Q 26.796875 6.296875 29.796875 7.4375 
Q 32.796875 8.59375 34.6875 10.34375 
Q 36.59375 12.09375 37.5 14.140625 
Q 38.40625 16.203125 38.40625 18 
z
" id="HelveticaNeue-97"/>
        <path d="M 6.40625 51.703125 
L 6.40625 0 
L 14.90625 0 
L 14.90625 29.203125 
Q 14.90625 32.703125 15.84375 35.640625 
Q 16.796875 38.59375 18.6875 40.796875 
Q 20.59375 43 23.4375 44.203125 
Q 26.296875 45.40625 30.203125 45.40625 
Q 35.09375 45.40625 37.890625 42.59375 
Q 40.703125 39.796875 40.703125 35 
L 40.703125 0 
L 49.203125 0 
L 49.203125 34 
Q 49.203125 38.203125 48.34375 41.640625 
Q 47.5 45.09375 45.390625 47.59375 
Q 43.296875 50.09375 39.890625 51.5 
Q 36.5 52.90625 31.40625 52.90625 
Q 19.90625 52.90625 14.59375 43.5 
L 14.40625 43.5 
L 14.40625 51.703125 
z
" id="HelveticaNeue-110"/>
       </defs>
       <use xlink:href="#HelveticaNeue-74"/>
       <use x="51.899994" xlink:href="#HelveticaNeue-97"/>
       <use x="105.599991" xlink:href="#HelveticaNeue-110"/>
      </g>
      <!-- 2021 -->
      <g style="fill:#555555;" transform="translate(293.132376 287.179688)scale(0.1 -0.1)">
       <defs>
        <path d="M 4.40625 45.796875 
L 12.90625 45.796875 
Q 12.796875 49 13.546875 52.140625 
Q 14.296875 55.296875 16 57.796875 
Q 17.703125 60.296875 20.34375 61.84375 
Q 23 63.40625 26.703125 63.40625 
Q 29.5 63.40625 32 62.5 
Q 34.5 61.59375 36.34375 59.890625 
Q 38.203125 58.203125 39.296875 55.84375 
Q 40.40625 53.5 40.40625 50.59375 
Q 40.40625 46.90625 39.25 44.09375 
Q 38.09375 41.296875 35.84375 38.890625 
Q 33.59375 36.5 30.1875 34.140625 
Q 26.796875 31.796875 22.296875 29 
Q 18.59375 26.796875 15.1875 24.296875 
Q 11.796875 21.796875 9.09375 18.5 
Q 6.40625 15.203125 4.65625 10.75 
Q 2.90625 6.296875 2.40625 0 
L 48.703125 0 
L 48.703125 7.5 
L 12.296875 7.5 
Q 12.90625 10.796875 14.84375 13.34375 
Q 16.796875 15.90625 19.546875 18.09375 
Q 22.296875 20.296875 25.59375 22.25 
Q 28.90625 24.203125 32.203125 26.203125 
Q 35.5 28.296875 38.59375 30.59375 
Q 41.703125 32.90625 44.09375 35.75 
Q 46.5 38.59375 47.953125 42.1875 
Q 49.40625 45.796875 49.40625 50.5 
Q 49.40625 55.5 47.65625 59.296875 
Q 45.90625 63.09375 42.90625 65.640625 
Q 39.90625 68.203125 35.84375 69.546875 
Q 31.796875 70.90625 27.203125 70.90625 
Q 21.59375 70.90625 17.1875 69 
Q 12.796875 67.09375 9.84375 63.75 
Q 6.90625 60.40625 5.5 55.796875 
Q 4.09375 51.203125 4.40625 45.796875 
z
" id="HelveticaNeue-50"/>
        <path d="M 13.203125 34.90625 
Q 13.203125 37.5 13.25 40.640625 
Q 13.296875 43.796875 13.75 46.9375 
Q 14.203125 50.09375 15.046875 53.09375 
Q 15.90625 56.09375 17.546875 58.34375 
Q 19.203125 60.59375 21.703125 62 
Q 24.203125 63.40625 27.796875 63.40625 
Q 31.40625 63.40625 33.90625 62 
Q 36.40625 60.59375 38.046875 58.34375 
Q 39.703125 56.09375 40.546875 53.09375 
Q 41.40625 50.09375 41.84375 46.9375 
Q 42.296875 43.796875 42.34375 40.640625 
Q 42.40625 37.5 42.40625 34.90625 
Q 42.40625 30.90625 42.15625 25.953125 
Q 41.90625 21 40.546875 16.640625 
Q 39.203125 12.296875 36.203125 9.296875 
Q 33.203125 6.296875 27.796875 6.296875 
Q 22.40625 6.296875 19.40625 9.296875 
Q 16.40625 12.296875 15.046875 16.640625 
Q 13.703125 21 13.453125 25.953125 
Q 13.203125 30.90625 13.203125 34.90625 
z
M 4.203125 34.796875 
Q 4.203125 30.90625 4.390625 26.703125 
Q 4.59375 22.5 5.390625 18.5 
Q 6.203125 14.5 7.703125 10.953125 
Q 9.203125 7.40625 11.796875 4.703125 
Q 14.40625 2 18.34375 0.453125 
Q 22.296875 -1.09375 27.796875 -1.09375 
Q 33.40625 -1.09375 37.296875 0.453125 
Q 41.203125 2 43.796875 4.703125 
Q 46.40625 7.40625 47.90625 10.953125 
Q 49.40625 14.5 50.203125 18.5 
Q 51 22.5 51.203125 26.703125 
Q 51.40625 30.90625 51.40625 34.796875 
Q 51.40625 38.703125 51.203125 42.890625 
Q 51 47.09375 50.203125 51.09375 
Q 49.40625 55.09375 47.90625 58.6875 
Q 46.40625 62.296875 43.796875 65 
Q 41.203125 67.703125 37.25 69.296875 
Q 33.296875 70.90625 27.796875 70.90625 
Q 22.296875 70.90625 18.34375 69.296875 
Q 14.40625 67.703125 11.796875 65 
Q 9.203125 62.296875 7.703125 58.6875 
Q 6.203125 55.09375 5.390625 51.09375 
Q 4.59375 47.09375 4.390625 42.890625 
Q 4.203125 38.703125 4.203125 34.796875 
z
" id="HelveticaNeue-48"/>
        <path d="M 35.59375 0 
L 35.59375 70.90625 
L 29.09375 70.90625 
Q 28.40625 66.90625 26.5 64.296875 
Q 24.59375 61.703125 21.84375 60.203125 
Q 19.09375 58.703125 15.6875 58.140625 
Q 12.296875 57.59375 8.703125 57.59375 
L 8.703125 50.796875 
L 27.09375 50.796875 
L 27.09375 0 
z
" id="HelveticaNeue-49"/>
       </defs>
       <use xlink:href="#HelveticaNeue-50"/>
       <use x="55.599991" xlink:href="#HelveticaNeue-48"/>
       <use x="111.199982" xlink:href="#HelveticaNeue-50"/>
       <use x="166.799973" xlink:href="#HelveticaNeue-49"/>
      </g>
     </g>
    </g>
    <g id="xtick_6">
     <g id="line2d_6">
      <g>
       <use style="fill:#555555;stroke:#555555;stroke-width:0.8;" x="382.798423" xlink:href="#m5781c00419" y="262.5"/>
      </g>
     </g>
     <g id="text_5">
      <!-- Apr -->
      <g style="fill:#555555;" transform="translate(374.928892 276.640625)scale(0.1 -0.1)">
       <use xlink:href="#HelveticaNeue-65"/>
       <use x="64.799988" xlink:href="#HelveticaNeue-112"/>
       <use x="124.099976" xlink:href="#HelveticaNeue-114"/>
      </g>
     </g>
    </g>
    <g id="xtick_7">
     <g id="line2d_7">
      <g>
       <use style="fill:#555555;stroke:#555555;stroke-width:0.8;" x="450" xlink:href="#m5781c00419" y="262.5"/>
      </g>
     </g>
    </g>
    <g id="xtick_8">
     <g id="line2d_8">
      <defs>
       <path d="M 0 0 
L 0 2 
" id="mc7cf31cec4" style="stroke:#555555;stroke-width:0.6;"/>
      </defs>
      <g>
       <use style="fill:#555555;stroke:#555555;stroke-width:0.6;" x="90.427928" xlink:href="#mc7cf31cec4" y="262.5"/>
      </g>
     </g>
    </g>
    <g id="xtick_9">
     <g id="line2d_9">
      <g>
       <use style="fill:#555555;stroke:#555555;stroke-width:0.6;" x="117.483108" xlink:href="#mc7cf31cec4" y="262.5"/>
      </g>
     </g>
    </g>
    <g id="xtick_10">
     <g id="line2d_10">
      <g>
       <use style="fill:#555555;stroke:#555555;stroke-width:0.6;" x="170.720721" xlink:href="#mc7cf31cec4" y="262.5"/>
      </g>
     </g>
    </g>
    <g id="xtick_11">
     <g id="line2d_11">
      <g>
       <use style="fill:#555555;stroke:#555555;stroke-width:0.6;" x="197.775901" xlink:href="#mc7cf31cec4" y="262.5"/>
      </g>
     </g>
    </g>
    <g id="xtick_12">
     <g id="line2d_12">
      <g>
       <use style="fill:#555555;stroke:#555555;stroke-width:0.6;" x="251.013514" xlink:href="#mc7cf31cec4" y="262.5"/>
      </g>
     </g>
    </g>
    <g id="xtick_13">
     <g id="line2d_13">
      <g>
       <use style="fill:#555555;stroke:#555555;stroke-width:0.6;" x="277.195946" xlink:href="#mc7cf31cec4" y="262.5"/>
      </g>
     </g>
    </g>
    <g id="xtick_14">
     <g id="line2d_14">
      <g>
       <use style="fill:#555555;stroke:#555555;stroke-width:0.6;" x="331.306306" xlink:href="#mc7cf31cec4" y="262.5"/>
      </g>
     </g>
    </g>
    <g id="xtick_15">
     <g id="line2d_15">
      <g>
       <use style="fill:#555555;stroke:#555555;stroke-width:0.6;" x="355.743243" xlink:href="#mc7cf31cec4" y="262.5"/>
      </g>
     </g>
    </g>
    <g id="xtick_16">
     <g id="line2d_16">
      <g>
       <use style="fill:#555555;stroke:#555555;stroke-width:0.6;" x="408.980856" xlink:href="#mc7cf31cec4" y="262.5"/>
      </g>
     </g>
    </g>
    <g id="xtick_17">
     <g id="line2d_17">
      <g>
       <use style="fill:#555555;stroke:#555555;stroke-width:0.6;" x="436.036036" xlink:href="#mc7cf31cec4" y="262.5"/>
      </g>
     </g>
    </g>
    <g id="text_6">
     <!-- fecha -->
     <g style="fill:#555555;" transform="translate(243.935156 300.290625)scale(0.1 -0.1)">
      <defs>
       <path d="M 9.90625 44.203125 
L 9.90625 0 
L 18.40625 0 
L 18.40625 44.203125 
L 28.40625 44.203125 
L 28.40625 51.703125 
L 18.40625 51.703125 
L 18.40625 58.90625 
Q 18.40625 62.296875 20.09375 63.5 
Q 21.796875 64.703125 24.90625 64.703125 
Q 26 64.703125 27.296875 64.546875 
Q 28.59375 64.40625 29.703125 64 
L 29.703125 71.40625 
Q 28.5 71.796875 26.953125 72 
Q 25.40625 72.203125 24.203125 72.203125 
Q 17.203125 72.203125 13.546875 68.953125 
Q 9.90625 65.703125 9.90625 59.40625 
L 9.90625 51.703125 
L 1.203125 51.703125 
L 1.203125 44.203125 
z
" id="HelveticaNeue-102"/>
       <path d="M 42.296875 30.796875 
L 12.59375 30.796875 
Q 12.796875 33.796875 13.890625 36.4375 
Q 15 39.09375 16.890625 41.09375 
Q 18.796875 43.09375 21.4375 44.25 
Q 24.09375 45.40625 27.40625 45.40625 
Q 30.59375 45.40625 33.25 44.25 
Q 35.90625 43.09375 37.84375 41.140625 
Q 39.796875 39.203125 40.9375 36.5 
Q 42.09375 33.796875 42.296875 30.796875 
z
M 50.5 16.40625 
L 42.09375 16.40625 
Q 41 11.296875 37.546875 8.796875 
Q 34.09375 6.296875 28.703125 6.296875 
Q 24.5 6.296875 21.390625 7.6875 
Q 18.296875 9.09375 16.296875 11.4375 
Q 14.296875 13.796875 13.390625 16.84375 
Q 12.5 19.90625 12.59375 23.296875 
L 51.296875 23.296875 
Q 51.5 28 50.453125 33.203125 
Q 49.40625 38.40625 46.65625 42.796875 
Q 43.90625 47.203125 39.34375 50.046875 
Q 34.796875 52.90625 27.90625 52.90625 
Q 22.59375 52.90625 18.140625 50.90625 
Q 13.703125 48.90625 10.453125 45.296875 
Q 7.203125 41.703125 5.390625 36.796875 
Q 3.59375 31.90625 3.59375 26 
Q 3.796875 20.09375 5.34375 15.09375 
Q 6.90625 10.09375 10 6.5 
Q 13.09375 2.90625 17.640625 0.90625 
Q 22.203125 -1.09375 28.40625 -1.09375 
Q 37.203125 -1.09375 43 3.296875 
Q 48.796875 7.703125 50.5 16.40625 
z
" id="HelveticaNeue-101"/>
       <path d="M 6.40625 71.40625 
L 6.40625 0 
L 14.90625 0 
L 14.90625 29.203125 
Q 14.90625 32.703125 15.84375 35.640625 
Q 16.796875 38.59375 18.6875 40.796875 
Q 20.59375 43 23.4375 44.203125 
Q 26.296875 45.40625 30.203125 45.40625 
Q 35.09375 45.40625 37.890625 42.59375 
Q 40.703125 39.796875 40.703125 35 
L 40.703125 0 
L 49.203125 0 
L 49.203125 34 
Q 49.203125 38.203125 48.34375 41.640625 
Q 47.5 45.09375 45.390625 47.59375 
Q 43.296875 50.09375 39.890625 51.5 
Q 36.5 52.90625 31.40625 52.90625 
Q 29.09375 52.90625 26.640625 52.40625 
Q 24.203125 51.90625 21.953125 50.84375 
Q 19.703125 49.796875 17.890625 48.140625 
Q 16.09375 46.5 15.09375 44.09375 
L 14.90625 44.09375 
L 14.90625 71.40625 
z
" id="HelveticaNeue-104"/>
      </defs>
      <use xlink:href="#HelveticaNeue-102"/>
      <use x="29.599991" xlink:href="#HelveticaNeue-101"/>
      <use x="83.299988" xlink:href="#HelveticaNeue-99"/>
      <use x="136.999985" xlink:href="#HelveticaNeue-104"/>
      <use x="192.599976" xlink:href="#HelveticaNeue-97"/>
     </g>
    </g>
   </g>
   <g id="matplotlib.axis_2">
    <g id="ytick_1">
     <g id="line2d_18">
      <defs>
       <path d="M 0 0 
L -3.5 0 
" id="m7f4e69bfe4" style="stroke:#555555;stroke-width:0.8;"/>
      </defs>
      <g>
       <use style="fill:#555555;stroke:#555555;stroke-width:0.8;" x="62.5" xlink:href="#m7f4e69bfe4" y="251.795455"/>
      </g>
     </g>
     <g id="text_7">
      <!-- 0 -->
      <g style="fill:#555555;" transform="translate(49.940625 255.365767)scale(0.1 -0.1)">
       <use xlink:href="#HelveticaNeue-48"/>
      </g>
     </g>
    </g>
    <g id="ytick_2">
     <g id="line2d_19">
      <g>
       <use style="fill:#555555;stroke:#555555;stroke-width:0.8;" x="62.5" xlink:href="#m7f4e69bfe4" y="224.626557"/>
      </g>
     </g>
     <g id="text_8">
      <!-- 100 -->
      <g style="fill:#555555;" transform="translate(38.821875 228.19687)scale(0.1 -0.1)">
       <use xlink:href="#HelveticaNeue-49"/>
       <use x="55.599991" xlink:href="#HelveticaNeue-48"/>
       <use x="111.199982" xlink:href="#HelveticaNeue-48"/>
      </g>
     </g>
    </g>
    <g id="ytick_3">
     <g id="line2d_20">
      <g>
       <use style="fill:#555555;stroke:#555555;stroke-width:0.8;" x="62.5" xlink:href="#m7f4e69bfe4" y="197.45766"/>
      </g>
     </g>
     <g id="text_9">
      <!-- 200 -->
      <g style="fill:#555555;" transform="translate(38.821875 201.027973)scale(0.1 -0.1)">
       <use xlink:href="#HelveticaNeue-50"/>
       <use x="55.599991" xlink:href="#HelveticaNeue-48"/>
       <use x="111.199982" xlink:href="#HelveticaNeue-48"/>
      </g>
     </g>
    </g>
    <g id="ytick_4">
     <g id="line2d_21">
      <g>
       <use style="fill:#555555;stroke:#555555;stroke-width:0.8;" x="62.5" xlink:href="#m7f4e69bfe4" y="170.288763"/>
      </g>
     </g>
     <g id="text_10">
      <!-- 300 -->
      <g style="fill:#555555;" transform="translate(38.821875 173.859076)scale(0.1 -0.1)">
       <defs>
        <path d="M 21.796875 40.5 
L 21.796875 33.296875 
Q 24.203125 33.59375 26.90625 33.59375 
Q 30.09375 33.59375 32.84375 32.75 
Q 35.59375 31.90625 37.59375 30.15625 
Q 39.59375 28.40625 40.796875 25.84375 
Q 42 23.296875 42 20 
Q 42 16.796875 40.75 14.25 
Q 39.5 11.703125 37.390625 9.953125 
Q 35.296875 8.203125 32.5 7.25 
Q 29.703125 6.296875 26.59375 6.296875 
Q 19.296875 6.296875 15.5 10.640625 
Q 11.703125 15 11.5 21.90625 
L 3 21.90625 
Q 2.90625 16.40625 4.546875 12.09375 
Q 6.203125 7.796875 9.296875 4.84375 
Q 12.40625 1.90625 16.796875 0.40625 
Q 21.203125 -1.09375 26.59375 -1.09375 
Q 31.59375 -1.09375 36.046875 0.25 
Q 40.5 1.59375 43.796875 4.296875 
Q 47.09375 7 49.046875 11.046875 
Q 51 15.09375 51 20.40625 
Q 51 26.796875 47.84375 31.5 
Q 44.703125 36.203125 38.203125 37.59375 
L 38.203125 37.796875 
Q 42.40625 39.703125 45.203125 43.390625 
Q 48 47.09375 48 51.90625 
Q 48 56.796875 46.34375 60.390625 
Q 44.703125 64 41.796875 66.296875 
Q 38.90625 68.59375 34.953125 69.75 
Q 31 70.90625 26.40625 70.90625 
Q 21.09375 70.90625 17.046875 69.203125 
Q 13 67.5 10.296875 64.5 
Q 7.59375 61.5 6.140625 57.296875 
Q 4.703125 53.09375 4.5 48 
L 13 48 
Q 13 51.09375 13.796875 53.890625 
Q 14.59375 56.703125 16.25 58.796875 
Q 17.90625 60.90625 20.453125 62.15625 
Q 23 63.40625 26.40625 63.40625 
Q 31.796875 63.40625 35.390625 60.546875 
Q 39 57.703125 39 52 
Q 39 49.203125 37.890625 47 
Q 36.796875 44.796875 34.9375 43.34375 
Q 33.09375 41.90625 30.640625 41.15625 
Q 28.203125 40.40625 25.5 40.40625 
L 23.703125 40.40625 
Q 23.203125 40.40625 22.703125 40.40625 
Q 22.296875 40.40625 21.796875 40.5 
z
" id="HelveticaNeue-51"/>
       </defs>
       <use xlink:href="#HelveticaNeue-51"/>
       <use x="55.599991" xlink:href="#HelveticaNeue-48"/>
       <use x="111.199982" xlink:href="#HelveticaNeue-48"/>
      </g>
     </g>
    </g>
    <g id="ytick_5">
     <g id="line2d_22">
      <g>
       <use style="fill:#555555;stroke:#555555;stroke-width:0.8;" x="62.5" xlink:href="#m7f4e69bfe4" y="143.119866"/>
      </g>
     </g>
     <g id="text_11">
      <!-- 400 -->
      <g style="fill:#555555;" transform="translate(38.821875 146.690179)scale(0.1 -0.1)">
       <defs>
        <path d="M 33.90625 24.09375 
L 10.09375 24.09375 
L 33.703125 58.796875 
L 33.90625 58.796875 
z
M 41.90625 24.09375 
L 41.90625 70.90625 
L 35.09375 70.90625 
L 2.796875 24.796875 
L 2.796875 16.59375 
L 33.90625 16.59375 
L 33.90625 0 
L 41.90625 0 
L 41.90625 16.59375 
L 51.5 16.59375 
L 51.5 24.09375 
z
" id="HelveticaNeue-52"/>
       </defs>
       <use xlink:href="#HelveticaNeue-52"/>
       <use x="55.599991" xlink:href="#HelveticaNeue-48"/>
       <use x="111.199982" xlink:href="#HelveticaNeue-48"/>
      </g>
     </g>
    </g>
    <g id="ytick_6">
     <g id="line2d_23">
      <g>
       <use style="fill:#555555;stroke:#555555;stroke-width:0.8;" x="62.5" xlink:href="#m7f4e69bfe4" y="115.950969"/>
      </g>
     </g>
     <g id="text_12">
      <!-- 500 -->
      <g style="fill:#555555;" transform="translate(38.821875 119.521282)scale(0.1 -0.1)">
       <defs>
        <path d="M 47 62.203125 
L 47 69.703125 
L 12 69.703125 
L 5.40625 32.90625 
L 12.703125 32.5 
Q 15.203125 35.5 18.453125 37.34375 
Q 21.703125 39.203125 25.90625 39.203125 
Q 29.5 39.203125 32.453125 38 
Q 35.40625 36.796875 37.5 34.640625 
Q 39.59375 32.5 40.75 29.546875 
Q 41.90625 26.59375 41.90625 23.09375 
Q 41.90625 18.90625 40.703125 15.75 
Q 39.5 12.59375 37.453125 10.5 
Q 35.40625 8.40625 32.65625 7.34375 
Q 29.90625 6.296875 26.90625 6.296875 
Q 23.703125 6.296875 21.046875 7.25 
Q 18.40625 8.203125 16.453125 9.953125 
Q 14.5 11.703125 13.34375 14.046875 
Q 12.203125 16.40625 12 19.09375 
L 3.5 19.09375 
Q 3.59375 14.296875 5.390625 10.5 
Q 7.203125 6.703125 10.296875 4.140625 
Q 13.40625 1.59375 17.453125 0.25 
Q 21.5 -1.09375 26.09375 -1.09375 
Q 32.296875 -1.09375 36.9375 0.84375 
Q 41.59375 2.796875 44.6875 6.09375 
Q 47.796875 9.40625 49.34375 13.65625 
Q 50.90625 17.90625 50.90625 22.40625 
Q 50.90625 28.5 49.09375 33.046875 
Q 47.296875 37.59375 44.1875 40.640625 
Q 41.09375 43.703125 36.890625 45.203125 
Q 32.703125 46.703125 28 46.703125 
Q 24.40625 46.703125 20.75 45.453125 
Q 17.09375 44.203125 14.796875 41.59375 
L 14.59375 41.796875 
L 18.40625 62.203125 
z
" id="HelveticaNeue-53"/>
       </defs>
       <use xlink:href="#HelveticaNeue-53"/>
       <use x="55.599991" xlink:href="#HelveticaNeue-48"/>
       <use x="111.199982" xlink:href="#HelveticaNeue-48"/>
      </g>
     </g>
    </g>
    <g id="ytick_7">
     <g id="line2d_24">
      <g>
       <use style="fill:#555555;stroke:#555555;stroke-width:0.8;" x="62.5" xlink:href="#m7f4e69bfe4" y="88.782072"/>
      </g>
     </g>
     <g id="text_13">
      <!-- 600 -->
      <g style="fill:#555555;" transform="translate(38.821875 92.352384)scale(0.1 -0.1)">
       <defs>
        <path d="M 41.40625 52.796875 
L 49.90625 52.796875 
Q 49.09375 61.59375 43.890625 66.25 
Q 38.703125 70.90625 29.90625 70.90625 
Q 22.296875 70.90625 17.296875 67.703125 
Q 12.296875 64.5 9.296875 59.203125 
Q 6.296875 53.90625 5.046875 47.046875 
Q 3.796875 40.203125 3.796875 32.90625 
Q 3.796875 27.296875 4.640625 21.296875 
Q 5.5 15.296875 8.09375 10.296875 
Q 10.703125 5.296875 15.5 2.09375 
Q 20.296875 -1.09375 28.203125 -1.09375 
Q 34.90625 -1.09375 39.453125 1.15625 
Q 44 3.40625 46.75 6.84375 
Q 49.5 10.296875 50.703125 14.5 
Q 51.90625 18.703125 51.90625 22.59375 
Q 51.90625 27.5 50.40625 31.703125 
Q 48.90625 35.90625 46.15625 39 
Q 43.40625 42.09375 39.34375 43.84375 
Q 35.296875 45.59375 30.203125 45.59375 
Q 24.40625 45.59375 19.953125 43.390625 
Q 15.5 41.203125 12.5 36.296875 
L 12.296875 36.5 
Q 12.40625 40.59375 13.09375 45.296875 
Q 13.796875 50 15.640625 54.046875 
Q 17.5 58.09375 20.796875 60.75 
Q 24.09375 63.40625 29.5 63.40625 
Q 34.59375 63.40625 37.6875 60.5 
Q 40.796875 57.59375 41.40625 52.796875 
z
M 28.59375 38.09375 
Q 32.203125 38.09375 34.890625 36.796875 
Q 37.59375 35.5 39.390625 33.34375 
Q 41.203125 31.203125 42.046875 28.25 
Q 42.90625 25.296875 42.90625 22 
Q 42.90625 18.90625 41.953125 16.046875 
Q 41 13.203125 39.203125 11 
Q 37.40625 8.796875 34.75 7.546875 
Q 32.09375 6.296875 28.59375 6.296875 
Q 25.09375 6.296875 22.34375 7.546875 
Q 19.59375 8.796875 17.75 10.890625 
Q 15.90625 13 14.90625 15.890625 
Q 13.90625 18.796875 13.90625 22.09375 
Q 13.90625 25.40625 14.84375 28.34375 
Q 15.796875 31.296875 17.6875 33.4375 
Q 19.59375 35.59375 22.296875 36.84375 
Q 25 38.09375 28.59375 38.09375 
z
" id="HelveticaNeue-54"/>
       </defs>
       <use xlink:href="#HelveticaNeue-54"/>
       <use x="55.599991" xlink:href="#HelveticaNeue-48"/>
       <use x="111.199982" xlink:href="#HelveticaNeue-48"/>
      </g>
     </g>
    </g>
    <g id="ytick_8">
     <g id="line2d_25">
      <g>
       <use style="fill:#555555;stroke:#555555;stroke-width:0.8;" x="62.5" xlink:href="#m7f4e69bfe4" y="61.613175"/>
      </g>
     </g>
     <g id="text_14">
      <!-- 700 -->
      <g style="fill:#555555;" transform="translate(38.821875 65.183487)scale(0.1 -0.1)">
       <defs>
        <path d="M 50.90625 62.40625 
L 50.90625 69.703125 
L 5 69.703125 
L 5 61.703125 
L 42.203125 61.703125 
Q 36.59375 55.796875 31.75 48.796875 
Q 26.90625 41.796875 23.203125 33.9375 
Q 19.5 26.09375 17.140625 17.546875 
Q 14.796875 9 14.203125 0 
L 23.703125 0 
Q 24.203125 8.296875 26.5 17.09375 
Q 28.796875 25.90625 32.4375 34.203125 
Q 36.09375 42.5 40.796875 49.796875 
Q 45.5 57.09375 50.90625 62.40625 
z
" id="HelveticaNeue-55"/>
       </defs>
       <use xlink:href="#HelveticaNeue-55"/>
       <use x="55.599991" xlink:href="#HelveticaNeue-48"/>
       <use x="111.199982" xlink:href="#HelveticaNeue-48"/>
      </g>
     </g>
    </g>
    <g id="ytick_9">
     <g id="line2d_26">
      <g>
       <use style="fill:#555555;stroke:#555555;stroke-width:0.8;" x="62.5" xlink:href="#m7f4e69bfe4" y="34.444278"/>
      </g>
     </g>
     <g id="text_15">
      <!-- 800 -->
      <g style="fill:#555555;" transform="translate(38.821875 38.01459)scale(0.1 -0.1)">
       <defs>
        <path d="M 15.5 52.5 
Q 15.5 55.203125 16.5 57.203125 
Q 17.5 59.203125 19.140625 60.59375 
Q 20.796875 62 23.09375 62.703125 
Q 25.40625 63.40625 27.90625 63.40625 
Q 33.09375 63.40625 36.4375 60.65625 
Q 39.796875 57.90625 39.796875 52.5 
Q 39.796875 47.09375 36.5 44.09375 
Q 33.203125 41.09375 28.09375 41.09375 
Q 25.5 41.09375 23.203125 41.796875 
Q 20.90625 42.5 19.203125 43.890625 
Q 17.5 45.296875 16.5 47.4375 
Q 15.5 49.59375 15.5 52.5 
z
M 6.5 52.796875 
Q 6.5 48 9.203125 43.953125 
Q 11.90625 39.90625 16.40625 38.09375 
Q 10.40625 36 7.203125 31.34375 
Q 4 26.703125 4 20.40625 
Q 4 15 5.84375 10.953125 
Q 7.703125 6.90625 10.953125 4.203125 
Q 14.203125 1.5 18.59375 0.203125 
Q 23 -1.09375 28.09375 -1.09375 
Q 33 -1.09375 37.296875 0.296875 
Q 41.59375 1.703125 44.75 4.453125 
Q 47.90625 7.203125 49.75 11.203125 
Q 51.59375 15.203125 51.59375 20.40625 
Q 51.59375 27 48.5 31.546875 
Q 45.40625 36.09375 39 38.09375 
Q 43.5 40.09375 46.140625 44.046875 
Q 48.796875 48 48.796875 52.796875 
Q 48.796875 56.203125 47.59375 59.453125 
Q 46.40625 62.703125 43.84375 65.25 
Q 41.296875 67.796875 37.1875 69.34375 
Q 33.09375 70.90625 27.296875 70.90625 
Q 23.203125 70.90625 19.453125 69.703125 
Q 15.703125 68.5 12.796875 66.203125 
Q 9.90625 63.90625 8.203125 60.546875 
Q 6.5 57.203125 6.5 52.796875 
z
M 13 20 
Q 13 23.09375 14.140625 25.59375 
Q 15.296875 28.09375 17.34375 29.890625 
Q 19.40625 31.703125 22.15625 32.640625 
Q 24.90625 33.59375 28 33.59375 
Q 31 33.59375 33.640625 32.546875 
Q 36.296875 31.5 38.296875 29.703125 
Q 40.296875 27.90625 41.4375 25.453125 
Q 42.59375 23 42.59375 20.09375 
Q 42.59375 17.09375 41.546875 14.59375 
Q 40.5 12.09375 38.546875 10.25 
Q 36.59375 8.40625 33.9375 7.34375 
Q 31.296875 6.296875 28.09375 6.296875 
Q 21.5 6.296875 17.25 9.9375 
Q 13 13.59375 13 20 
z
" id="HelveticaNeue-56"/>
       </defs>
       <use xlink:href="#HelveticaNeue-56"/>
       <use x="55.599991" xlink:href="#HelveticaNeue-48"/>
       <use x="111.199982" xlink:href="#HelveticaNeue-48"/>
      </g>
     </g>
    </g>
   </g>
   <g id="line2d_27">
    <path clip-path="url(#p8e0db5a22e)" d="M 63.372748 251.252077 
L 64.245495 251.523766 
L 65.118243 250.165321 
L 65.990991 249.621943 
L 66.863739 249.621943 
L 67.736486 251.523766 
L 68.609234 249.621943 
L 69.481982 250.43701 
L 71.227477 250.43701 
L 72.100225 251.252077 
L 72.972973 251.795455 
L 73.845721 251.252077 
L 75.591216 250.708699 
L 76.463964 250.165321 
L 77.336712 250.43701 
L 78.209459 247.991809 
L 79.082207 250.165321 
L 79.954955 250.708699 
L 80.827703 249.350254 
L 81.70045 251.252077 
L 82.573198 249.893632 
L 83.445946 249.350254 
L 84.318694 249.078565 
L 85.191441 251.795455 
L 86.064189 249.350254 
L 86.936937 249.893632 
L 87.809685 247.448431 
L 88.682432 249.078565 
L 89.55518 248.806876 
L 90.427928 249.621943 
L 92.173423 245.546608 
L 93.046171 244.731541 
L 93.918919 244.459852 
L 94.791667 247.176742 
L 95.664414 243.101407 
L 96.537162 246.361675 
L 97.40991 246.633364 
L 98.282658 245.274919 
L 99.155405 245.546608 
L 100.028153 249.893632 
L 100.900901 250.165321 
L 101.773649 247.448431 
L 102.646396 240.112829 
L 103.519144 247.991809 
L 105.26464 246.361675 
L 106.137387 244.459852 
L 107.010135 248.535187 
L 107.882883 249.893632 
L 108.755631 241.742963 
L 109.628378 246.633364 
L 110.501126 247.991809 
L 111.373874 240.112829 
L 112.246622 241.471274 
L 113.119369 237.939317 
L 113.992117 238.482695 
L 114.864865 241.199585 
L 115.737613 240.112829 
L 116.61036 240.112829 
L 117.483108 233.592293 
L 118.355856 238.754384 
L 119.228604 239.569451 
L 120.101351 240.656207 
L 120.974099 237.939317 
L 121.846847 239.84114 
L 122.719595 232.505538 
L 123.592342 236.309183 
L 124.46509 233.048916 
L 125.337838 231.147093 
L 126.210586 243.644785 
L 127.083333 236.309183 
L 127.956081 237.395939 
L 128.828829 231.147093 
L 129.701577 239.026073 
L 130.574324 235.222427 
L 131.447072 227.071758 
L 132.31982 217.562644 
L 133.192568 214.030688 
L 134.065315 209.955353 
L 134.938063 233.863982 
L 135.810811 208.868597 
L 136.683559 230.603715 
L 137.556306 198.544416 
L 138.429054 228.158514 
L 139.301802 211.857176 
L 140.17455 228.973581 
L 141.047297 218.921089 
L 141.920045 222.453046 
L 142.792793 216.747577 
L 143.665541 224.354868 
L 144.538288 178.98281 
L 145.411036 195.284149 
L 146.283784 198.816105 
L 147.156532 193.110637 
L 148.029279 196.642593 
L 148.902027 198.001038 
L 149.774775 209.955353 
L 150.647523 225.713313 
L 151.52027 219.464467 
L 152.393018 214.845754 
L 153.265766 217.290955 
L 154.138514 206.695085 
L 155.011261 219.464467 
L 155.884009 205.064952 
L 156.756757 186.318413 
L 157.629505 201.532995 
L 158.502252 200.989617 
L 159.375 204.793263 
L 160.247748 218.377711 
L 161.120495 174.635787 
L 161.993243 171.10383 
L 162.865991 207.238463 
L 163.738739 184.41659 
L 164.611486 196.642593 
L 165.484234 205.608329 
L 166.356982 181.156322 
L 167.22973 183.058145 
L 168.102477 184.41659 
L 168.975225 151.270535 
L 169.847973 155.34587 
L 170.720721 155.889248 
L 171.593468 196.099216 
L 172.466216 176.53761 
L 173.338964 149.368713 
L 174.211712 168.38694 
L 175.084459 194.740771 
L 175.957207 168.930318 
L 176.829955 161.866405 
L 177.702703 172.733964 
L 178.57545 134.425819 
L 179.448198 151.270535 
L 180.320946 158.606138 
L 181.193694 121.11306 
L 182.066441 169.745385 
L 182.939189 136.599331 
L 183.811937 169.202007 
L 184.684685 168.115251 
L 185.557432 116.222658 
L 186.43018 182.243078 
L 187.302928 151.542224 
L 188.175676 162.409783 
L 189.048423 181.428011 
L 189.921171 163.22485 
L 190.793919 171.375519 
L 191.666667 172.462275 
L 192.539414 188.763613 
L 193.412162 184.144901 
L 194.28491 149.91209 
L 195.157658 192.567259 
L 196.030405 178.711121 
L 196.903153 152.085602 
L 197.775901 153.444047 
L 198.648649 194.469082 
L 199.521396 185.231657 
L 200.394144 197.185971 
L 201.266892 187.676857 
L 202.13964 222.453046 
L 203.012387 178.711121 
L 203.885135 208.868597 
L 204.757883 194.197393 
L 205.630631 190.122058 
L 206.503378 209.683664 
L 207.376126 220.279534 
L 208.248874 235.765805 
L 209.121622 195.827527 
L 209.994369 213.758999 
L 210.867117 186.318413 
L 211.739865 217.290955 
L 212.612613 216.204199 
L 213.48536 217.834333 
L 214.358108 229.24527 
L 215.230856 214.574066 
L 216.103604 212.672243 
L 216.976351 205.880018 
L 217.849099 219.192778 
L 218.721847 210.77042 
L 219.594595 225.441624 
L 220.467342 233.048916 
L 222.212838 209.140286 
L 223.085586 223.539802 
L 223.958333 218.921089 
L 224.831081 207.510152 
L 225.703829 224.354868 
L 226.576577 212.943932 
L 227.449324 203.163129 
L 229.19482 224.08318 
L 230.067568 218.921089 
L 230.940315 222.996424 
L 231.813063 224.354868 
L 232.685811 223.268113 
L 233.558559 232.505538 
L 234.431306 226.256691 
L 235.304054 228.973581 
L 236.176802 207.510152 
L 237.04955 216.204199 
L 237.922297 214.574066 
L 238.795045 232.233849 
L 239.667793 204.521574 
L 240.540541 221.36629 
L 241.413288 214.574066 
L 242.286036 219.464467 
L 243.158784 225.713313 
L 244.031532 234.135671 
L 244.904279 230.060337 
L 245.777027 224.08318 
L 246.649775 212.400554 
L 247.522523 217.834333 
L 248.39527 219.464467 
L 250.140766 220.007845 
L 251.013514 235.222427 
L 251.886261 212.943932 
L 252.759009 217.834333 
L 253.631757 217.019266 
L 254.504505 217.019266 
L 255.377252 227.615136 
L 256.25 221.909668 
L 257.122748 222.453046 
L 257.995495 220.822912 
L 258.868243 212.128865 
L 259.740991 227.343447 
L 260.613739 215.93251 
L 261.486486 230.332026 
L 262.359234 233.320605 
L 263.231982 239.026073 
L 264.10473 217.562644 
L 264.977477 214.845754 
L 265.850225 232.505538 
L 266.722973 224.354868 
L 267.595721 223.539802 
L 268.468468 227.886825 
L 269.341216 235.222427 
L 270.213964 223.539802 
L 271.086712 208.325219 
L 271.959459 205.880018 
L 272.832207 211.857176 
L 273.704955 212.128865 
L 274.577703 222.453046 
L 275.45045 230.332026 
L 277.195946 212.400554 
L 278.941441 227.071758 
L 279.814189 209.140286 
L 280.686937 209.683664 
L 281.559685 233.592293 
L 282.432432 215.93251 
L 283.30518 220.551223 
L 284.177928 205.880018 
L 285.050676 197.45766 
L 285.923423 201.532995 
L 286.796171 207.238463 
L 287.668919 221.094601 
L 288.541667 199.631172 
L 289.414414 191.752192 
L 290.287162 193.925704 
L 291.15991 192.023881 
L 292.032658 198.272727 
L 292.905405 212.400554 
L 293.778153 215.117443 
L 294.650901 187.948546 
L 295.523649 184.688279 
L 296.396396 188.491924 
L 297.269144 174.635787 
L 298.141892 224.626557 
L 299.01464 195.827527 
L 299.887387 192.567259 
L 300.760135 195.01246 
L 301.632883 163.496539 
L 302.505631 159.964582 
L 303.378378 200.446239 
L 304.251126 225.169935 
L 305.123874 188.763613 
L 305.996622 179.254499 
L 306.869369 177.896054 
L 307.742117 159.964582 
L 308.614865 146.108445 
L 309.487613 162.953161 
L 310.36036 174.907476 
L 311.233108 174.907476 
L 312.105856 205.336641 
L 312.978604 213.215621 
L 313.851351 140.946354 
L 314.724099 129.535418 
L 315.596847 177.080988 
L 316.469595 163.768228 
L 317.342342 168.115251 
L 318.21509 153.715736 
L 319.087838 157.247693 
L 319.960586 163.768228 
L 320.833333 175.722543 
L 321.706081 163.768228 
L 322.578829 171.10383 
L 323.451577 167.300185 
L 324.324324 208.05353 
L 325.197072 139.58791 
L 326.06982 182.514767 
L 326.942568 176.53761 
L 327.815315 198.272727 
L 328.688063 192.29557 
L 329.560811 217.290955 
L 330.433559 194.197393 
L 331.306306 208.325219 
L 332.179054 210.498731 
L 333.051802 217.562644 
L 333.92455 218.6494 
L 334.797297 219.192778 
L 335.670045 231.690471 
L 336.542793 232.777227 
L 337.415541 215.660821 
L 338.288288 215.117443 
L 339.161036 222.996424 
L 340.033784 220.551223 
L 340.906532 228.701892 
L 341.779279 227.615136 
L 342.652027 232.777227 
L 343.524775 230.603715 
L 344.397523 220.279534 
L 345.27027 233.592293 
L 346.143018 231.418782 
L 347.888514 236.037494 
L 348.761261 236.309183 
L 349.634009 233.592293 
L 350.506757 239.026073 
L 351.379505 234.135671 
L 352.252252 239.297762 
L 353.125 235.222427 
L 353.997748 241.471274 
L 354.870495 241.471274 
L 355.743243 231.690471 
L 356.615991 238.754384 
L 357.488739 234.135671 
L 358.361486 237.939317 
L 359.234234 237.939317 
L 360.106982 242.014652 
L 360.97973 243.644785 
L 361.852477 239.297762 
L 362.725225 238.754384 
L 363.597973 237.667628 
L 364.470721 237.12425 
L 365.343468 234.135671 
L 366.216216 243.644785 
L 367.088964 245.818297 
L 367.961712 239.297762 
L 368.834459 240.384518 
L 369.707207 237.667628 
L 370.579955 238.754384 
L 371.452703 232.777227 
L 372.32545 236.580872 
L 373.198198 239.569451 
L 374.070946 243.644785 
L 374.943694 232.505538 
L 375.816441 233.863982 
L 376.689189 231.96216 
L 377.561937 235.222427 
L 378.434685 227.343447 
L 379.307432 240.384518 
L 380.18018 229.788648 
L 381.052928 227.343447 
L 381.925676 217.290955 
L 382.798423 225.713313 
L 383.671171 231.418782 
L 384.543919 226.52838 
L 385.416667 233.048916 
L 386.289414 219.736156 
L 387.162162 200.17455 
L 388.03491 198.001038 
L 388.907658 210.498731 
L 389.780405 201.804684 
L 390.653153 195.284149 
L 391.525901 202.076373 
L 392.398649 191.752192 
L 393.271396 183.601523 
L 394.144144 168.115251 
L 395.016892 155.074181 
L 395.88964 173.005653 
L 396.762387 182.514767 
L 397.635135 201.804684 
L 398.507883 161.866405 
L 399.380631 131.165551 
L 400.253378 175.179165 
L 401.126126 148.825335 
L 401.998874 169.473696 
L 402.871622 175.722543 
L 403.744369 192.29557 
L 404.617117 151.270535 
L 405.489865 136.599331 
L 406.362613 159.964582 
L 407.23536 166.485118 
L 408.108108 139.316221 
L 408.980856 163.496539 
L 409.853604 195.555838 
L 410.726351 156.976004 
L 411.599099 142.848177 
L 412.471847 176.265921 
L 413.344595 153.172358 
L 414.217342 147.195201 
L 415.09009 183.329834 
L 415.962838 153.444047 
L 416.835586 148.010268 
L 417.708333 125.731772 
L 418.581081 110.788879 
L 419.453829 105.626788 
L 421.199324 169.202007 
L 422.072072 167.028496 
L 422.94482 181.156322 
L 423.817568 136.599331 
L 424.690315 150.727157 
L 425.563063 114.049146 
L 426.435811 128.99204 
L 427.308559 136.327642 
L 428.181306 155.34587 
L 429.054054 107.528611 
L 429.926802 118.39617 
L 430.79955 77.371135 
L 431.672297 113.505768 
L 432.545045 119.482926 
L 433.417793 59.711352 
L 434.290541 130.893862 
L 435.163288 109.158745 
L 436.036036 91.227273 
L 436.908784 37.704545 
L 437.781532 78.186202 
L 438.654279 90.412206 
L 439.527027 108.343678 
L 440.399775 101.551454 
L 441.272523 99.106253 
L 442.14527 125.731772 
L 443.018018 74.382557 
L 443.890766 143.119866 
L 444.763514 140.674665 
L 445.636261 158.606138 
L 446.509009 161.051338 
L 447.381757 148.825335 
L 448.254505 131.43724 
L 449.127252 227.343447 
L 450 251.795455 
L 450 251.795455 
" style="fill:none;stroke:#000000;stroke-dasharray:1.5,2.475;stroke-dashoffset:0;stroke-opacity:0.5;stroke-width:1.5;"/>
   </g>
   <g id="line2d_28">
    <path clip-path="url(#p8e0db5a22e)" d="M 62.5 250.980388 
L 64.245495 250.43701 
L 66.863739 250.43701 
L 67.736486 250.165321 
L 68.609234 250.165321 
L 70.35473 250.708699 
L 71.227477 250.708699 
L 72.100225 250.980388 
L 74.718468 250.980388 
L 75.591216 250.43701 
L 76.463964 250.165321 
L 77.336712 250.165321 
L 78.209459 249.893632 
L 81.70045 249.893632 
L 82.573198 250.165321 
L 83.445946 249.893632 
L 84.318694 250.165321 
L 85.191441 249.621943 
L 86.064189 249.621943 
L 86.936937 249.350254 
L 87.809685 249.350254 
L 92.173423 246.633364 
L 93.046171 245.818297 
L 94.791667 245.274919 
L 95.664414 245.274919 
L 96.537162 245.546608 
L 99.155405 247.176742 
L 100.028153 246.905053 
L 101.773649 246.905053 
L 102.646396 246.633364 
L 103.519144 246.089986 
L 104.391892 246.089986 
L 106.137387 246.633364 
L 107.010135 246.361675 
L 107.882883 246.633364 
L 108.755631 245.818297 
L 109.628378 245.274919 
L 110.501126 243.916474 
L 111.373874 242.286341 
L 112.246622 241.742963 
L 113.119369 240.656207 
L 113.992117 239.84114 
L 115.737613 238.754384 
L 117.483108 238.754384 
L 118.355856 238.482695 
L 119.228604 238.754384 
L 120.101351 237.939317 
L 120.974099 238.211006 
L 122.719595 236.037494 
L 123.592342 235.765805 
L 126.210586 235.765805 
L 127.083333 236.309183 
L 127.956081 236.309183 
L 128.828829 235.765805 
L 130.574324 229.516959 
L 131.447072 225.441624 
L 132.31982 224.08318 
L 133.192568 220.279534 
L 134.065315 219.464467 
L 134.938063 217.019266 
L 135.810811 217.834333 
L 136.683559 217.562644 
L 137.556306 219.192778 
L 138.429054 218.106022 
L 139.301802 219.736156 
L 140.17455 218.921089 
L 141.047297 221.36629 
L 141.920045 216.475888 
L 142.792793 212.943932 
L 144.538288 203.434818 
L 145.411036 199.359483 
L 146.283784 196.914282 
L 147.156532 195.827527 
L 148.029279 201.532995 
L 150.647523 212.672243 
L 152.393018 216.475888 
L 153.265766 215.389132 
L 154.138514 210.77042 
L 155.011261 207.510152 
L 156.756757 202.89144 
L 157.629505 203.434818 
L 159.375 196.099216 
L 160.247748 196.914282 
L 161.120495 193.925704 
L 161.993243 192.567259 
L 162.865991 192.29557 
L 163.738739 189.850369 
L 164.611486 191.208814 
L 165.484234 191.752192 
L 166.356982 185.231657 
L 167.22973 180.069566 
L 168.102477 173.277342 
L 168.975225 170.560452 
L 169.847973 169.745385 
L 170.720721 167.028496 
L 171.593468 166.213429 
L 172.466216 170.832141 
L 173.338964 172.733964 
L 174.211712 173.005653 
L 175.084459 170.832141 
L 175.957207 166.756807 
L 176.829955 165.126673 
L 177.702703 161.866405 
L 178.57545 153.172358 
L 179.448198 151.542224 
L 180.320946 148.553646 
L 181.193694 148.281957 
L 182.066441 152.357291 
L 182.939189 149.91209 
L 184.684685 155.617559 
L 185.557432 155.34587 
L 186.43018 159.964582 
L 187.302928 160.779649 
L 188.175676 162.681472 
L 189.048423 168.658629 
L 189.921171 170.288763 
L 190.793919 174.364098 
L 191.666667 173.82072 
L 192.539414 175.179165 
L 193.412162 176.809299 
L 194.28491 174.907476 
L 195.157658 171.647208 
L 196.030405 171.375519 
L 196.903153 171.647208 
L 197.775901 176.809299 
L 198.648649 178.167743 
L 199.521396 184.959968 
L 200.394144 190.122058 
L 201.266892 196.370904 
L 203.012387 197.45766 
L 203.885135 198.544416 
L 204.757883 201.804684 
L 205.630631 204.521574 
L 206.503378 208.05353 
L 207.376126 209.955353 
L 208.248874 209.683664 
L 209.121622 211.313798 
L 210.867117 210.227042 
L 211.739865 210.498731 
L 212.612613 213.758999 
L 213.48536 215.117443 
L 214.358108 217.019266 
L 215.230856 216.475888 
L 216.103604 215.389132 
L 216.976351 215.660821 
L 217.849099 216.475888 
L 218.721847 218.377711 
L 219.594595 218.921089 
L 220.467342 220.822912 
L 221.34009 220.551223 
L 223.085586 218.921089 
L 224.831081 214.845754 
L 225.703829 214.845754 
L 226.576577 214.574066 
L 227.449324 214.574066 
L 228.322072 216.475888 
L 229.19482 217.290955 
L 230.067568 219.464467 
L 230.940315 222.724735 
L 231.813063 224.626557 
L 232.685811 225.441624 
L 233.558559 224.626557 
L 234.431306 223.539802 
L 235.304054 221.637979 
L 236.176802 221.36629 
L 237.04955 218.377711 
L 237.922297 217.562644 
L 238.795045 216.475888 
L 239.667793 217.562644 
L 240.540541 218.377711 
L 241.413288 220.551223 
L 242.286036 221.637979 
L 243.158784 224.354868 
L 244.031532 224.08318 
L 244.904279 224.354868 
L 245.777027 223.268113 
L 246.649775 221.909668 
L 247.522523 220.007845 
L 248.39527 220.551223 
L 249.268018 220.007845 
L 250.140766 220.822912 
L 251.013514 220.822912 
L 251.886261 220.279534 
L 252.759009 220.551223 
L 253.631757 220.551223 
L 254.504505 219.736156 
L 255.377252 220.822912 
L 256.25 220.551223 
L 257.122748 221.36629 
L 257.995495 220.822912 
L 258.868243 221.094601 
L 259.740991 222.453046 
L 260.613739 225.169935 
L 261.486486 225.985002 
L 262.359234 226.52838 
L 264.10473 227.071758 
L 264.977477 225.713313 
L 265.850225 225.169935 
L 266.722973 225.169935 
L 267.595721 226.256691 
L 268.468468 225.713313 
L 269.341216 222.453046 
L 271.086712 217.290955 
L 271.959459 215.389132 
L 272.832207 215.117443 
L 273.704955 215.93251 
L 274.577703 217.562644 
L 275.45045 219.464467 
L 276.323198 220.822912 
L 277.195946 220.551223 
L 278.068694 218.6494 
L 278.941441 218.6494 
L 279.814189 218.106022 
L 280.686937 219.192778 
L 281.559685 217.834333 
L 282.432432 214.574066 
L 284.177928 210.77042 
L 285.050676 208.596908 
L 285.923423 206.966774 
L 286.796171 204.249885 
L 288.541667 201.532995 
L 289.414414 199.902861 
L 291.15991 199.359483 
L 292.032658 199.631172 
L 292.905405 199.359483 
L 293.778153 198.272727 
L 294.650901 195.01246 
L 295.523649 195.827527 
L 296.396396 194.197393 
L 297.269144 192.838948 
L 298.141892 194.469082 
L 299.01464 192.838948 
L 299.887387 188.491924 
L 300.760135 188.220235 
L 301.632883 187.405168 
L 302.505631 187.948546 
L 303.378378 188.220235 
L 304.251126 187.948546 
L 305.123874 187.133479 
L 305.996622 183.058145 
L 307.742117 168.38694 
L 308.614865 166.213429 
L 309.487613 169.473696 
L 310.36036 175.722543 
L 311.233108 177.080988 
L 312.105856 175.722543 
L 312.978604 174.907476 
L 313.851351 171.10383 
L 314.724099 168.115251 
L 315.596847 162.138094 
L 316.469595 157.247693 
L 317.342342 160.236271 
L 318.21509 164.311606 
L 319.087838 163.22485 
L 319.960586 164.583295 
L 320.833333 165.398362 
L 321.706081 171.375519 
L 322.578829 170.832141 
L 323.451577 172.733964 
L 324.324324 173.005653 
L 325.197072 176.809299 
L 326.06982 179.526188 
L 326.942568 185.775035 
L 327.815315 187.405168 
L 328.688063 196.099216 
L 330.433559 205.336641 
L 331.306306 208.325219 
L 332.179054 211.857176 
L 333.051802 214.574066 
L 333.92455 219.736156 
L 334.797297 221.637979 
L 335.670045 222.453046 
L 336.542793 222.724735 
L 337.415541 222.453046 
L 338.288288 222.996424 
L 339.161036 222.453046 
L 340.033784 223.268113 
L 340.906532 225.713313 
L 341.779279 226.800069 
L 342.652027 228.158514 
L 343.524775 229.24527 
L 344.397523 229.788648 
L 345.27027 230.875404 
L 347.015766 232.505538 
L 347.888514 234.679049 
L 348.761261 234.950738 
L 349.634009 236.037494 
L 350.506757 236.309183 
L 351.379505 236.852561 
L 352.252252 237.667628 
L 354.870495 237.667628 
L 355.743243 237.12425 
L 356.615991 237.395939 
L 357.488739 237.395939 
L 358.361486 237.939317 
L 359.234234 239.026073 
L 360.106982 239.569451 
L 360.97973 239.84114 
L 361.852477 239.84114 
L 362.725225 239.026073 
L 363.597973 238.754384 
L 365.343468 239.297762 
L 366.216216 239.84114 
L 367.961712 240.384518 
L 368.834459 239.84114 
L 369.707207 238.482695 
L 370.579955 237.667628 
L 371.452703 237.939317 
L 372.32545 237.395939 
L 373.198198 237.12425 
L 374.070946 236.309183 
L 374.943694 236.309183 
L 375.816441 234.679049 
L 376.689189 234.40736 
L 377.561937 233.048916 
L 378.434685 232.505538 
L 379.307432 230.603715 
L 380.18018 229.24527 
L 381.052928 228.158514 
L 381.925676 227.615136 
L 382.798423 226.800069 
L 383.671171 226.256691 
L 384.543919 223.539802 
L 386.289414 216.747577 
L 388.907658 203.434818 
L 389.780405 200.446239 
L 390.653153 198.272727 
L 391.525901 193.925704 
L 392.398649 186.590102 
L 393.271396 181.156322 
L 394.144144 177.624365 
L 395.016892 176.809299 
L 395.88964 174.907476 
L 396.762387 170.288763 
L 397.635135 170.288763 
L 399.380631 165.398362 
L 400.253378 163.768228 
L 401.126126 164.039917 
L 401.998874 165.126673 
L 402.871622 165.94174 
L 403.744369 163.768228 
L 404.617117 163.768228 
L 405.489865 159.421204 
L 406.362613 156.976004 
L 407.23536 157.791071 
L 408.108108 160.236271 
L 409.853604 163.496539 
L 410.726351 162.409783 
L 411.599099 162.138094 
L 412.471847 162.953161 
L 413.344595 159.149515 
L 414.217342 158.877826 
L 415.09009 156.432626 
L 416.835586 140.402976 
L 417.708333 135.512575 
L 418.581081 132.252307 
L 419.453829 134.697508 
L 420.326577 141.489732 
L 421.199324 146.923512 
L 422.072072 153.172358 
L 422.94482 153.987425 
L 423.817568 150.183779 
L 424.690315 143.663244 
L 425.563063 140.402976 
L 426.435811 133.067374 
L 427.308559 130.622174 
L 428.181306 122.743193 
L 429.054054 120.026304 
L 429.926802 116.222658 
L 430.79955 106.713544 
L 431.672297 102.909898 
L 432.545045 103.181587 
L 433.417793 101.008076 
L 434.290541 96.661052 
L 435.163288 90.683895 
L 436.036036 85.521804 
L 436.908784 88.238694 
L 437.781532 85.250115 
L 438.654279 86.60856 
L 441.272523 105.626788 
L 442.14527 111.603946 
L 443.018018 118.939548 
L 444.763514 136.87102 
L 445.636261 140.674665 
L 446.509009 156.704315 
L 447.381757 170.560452 
L 450 197.45766 
L 450 197.45766 
" style="fill:none;stroke:#b3220f;stroke-linecap:square;stroke-width:1.5;"/>
   </g>
   <g id="patch_3">
    <path d="M 62.5 262.5 
L 62.5 27 
" style="fill:none;stroke:#555555;stroke-linecap:square;stroke-linejoin:miter;"/>
   </g>
   <g id="patch_4">
    <path d="M 62.5 262.5 
L 450 262.5 
" style="fill:none;stroke:#555555;stroke-linecap:square;stroke-linejoin:miter;"/>
   </g>
   <g id="text_16">
    <!-- Bosa | Casos nuevos: 2021-06-17 -->
    <g style="fill:#555555;" transform="translate(149.922188 17)scale(0.14 -0.14)">
     <defs>
      <path d="M 17.296875 40.703125 
L 17.296875 63.40625 
L 36.296875 63.40625 
Q 39.40625 63.40625 42.15625 63.046875 
Q 44.90625 62.703125 47 61.5 
Q 49.09375 60.296875 50.296875 58.09375 
Q 51.5 55.90625 51.5 52.09375 
Q 51.5 46.40625 47.953125 43.546875 
Q 44.40625 40.703125 36.296875 40.703125 
z
M 7.796875 71.40625 
L 7.796875 0 
L 42.296875 0 
Q 47.59375 0 51.640625 1.75 
Q 55.703125 3.5 58.453125 6.34375 
Q 61.203125 9.203125 62.59375 12.890625 
Q 64 16.59375 64 20.5 
Q 64 27.09375 60.5 31.6875 
Q 57 36.296875 50.40625 37.703125 
L 50.40625 37.90625 
Q 55.5 39.90625 58.25 44.046875 
Q 61 48.203125 61 53.90625 
Q 61 59.296875 58.546875 63 
Q 56.09375 66.703125 52.59375 68.796875 
Q 51 69.796875 48.75 70.296875 
Q 46.5 70.796875 43.890625 71.046875 
Q 41.296875 71.296875 38.640625 71.34375 
Q 36 71.40625 33.703125 71.40625 
z
M 17.296875 8 
L 17.296875 32.703125 
L 39 32.703125 
Q 42 32.703125 44.796875 32.140625 
Q 47.59375 31.59375 49.75 30.25 
Q 51.90625 28.90625 53.203125 26.59375 
Q 54.5 24.296875 54.5 20.796875 
Q 54.5 14.796875 50.953125 11.390625 
Q 47.40625 8 41.09375 8 
z
" id="HelveticaNeue-66"/>
      <path d="M 12.59375 25.796875 
Q 12.59375 30.5 13.84375 34.140625 
Q 15.09375 37.796875 17.296875 40.296875 
Q 19.5 42.796875 22.453125 44.09375 
Q 25.40625 45.40625 28.703125 45.40625 
Q 32 45.40625 34.953125 44.09375 
Q 37.90625 42.796875 40.09375 40.296875 
Q 42.296875 37.796875 43.546875 34.140625 
Q 44.796875 30.5 44.796875 25.796875 
Q 44.796875 21.09375 43.546875 17.4375 
Q 42.296875 13.796875 40.09375 11.34375 
Q 37.90625 8.90625 34.953125 7.59375 
Q 32 6.296875 28.703125 6.296875 
Q 25.40625 6.296875 22.453125 7.59375 
Q 19.5 8.90625 17.296875 11.34375 
Q 15.09375 13.796875 13.84375 17.4375 
Q 12.59375 21.09375 12.59375 25.796875 
z
M 3.59375 25.796875 
Q 3.59375 20.09375 5.1875 15.1875 
Q 6.796875 10.296875 10 6.640625 
Q 13.203125 3 17.890625 0.953125 
Q 22.59375 -1.09375 28.703125 -1.09375 
Q 34.90625 -1.09375 39.546875 0.953125 
Q 44.203125 3 47.390625 6.640625 
Q 50.59375 10.296875 52.1875 15.1875 
Q 53.796875 20.09375 53.796875 25.796875 
Q 53.796875 31.5 52.1875 36.453125 
Q 50.59375 41.40625 47.390625 45.046875 
Q 44.203125 48.703125 39.546875 50.796875 
Q 34.90625 52.90625 28.703125 52.90625 
Q 22.59375 52.90625 17.890625 50.796875 
Q 13.203125 48.703125 10 45.046875 
Q 6.796875 41.40625 5.1875 36.453125 
Q 3.59375 31.5 3.59375 25.796875 
z
" id="HelveticaNeue-111"/>
      <path d="M 11.59375 16.296875 
L 3.09375 16.296875 
Q 3.296875 11.5 5.09375 8.140625 
Q 6.90625 4.796875 9.90625 2.75 
Q 12.90625 0.703125 16.796875 -0.1875 
Q 20.703125 -1.09375 25 -1.09375 
Q 28.90625 -1.09375 32.84375 -0.34375 
Q 36.796875 0.40625 39.9375 2.296875 
Q 43.09375 4.203125 45.046875 7.296875 
Q 47 10.40625 47 15.09375 
Q 47 18.796875 45.546875 21.296875 
Q 44.09375 23.796875 41.75 25.4375 
Q 39.40625 27.09375 36.34375 28.09375 
Q 33.296875 29.09375 30.09375 29.796875 
Q 27.09375 30.5 24.09375 31.140625 
Q 21.09375 31.796875 18.6875 32.75 
Q 16.296875 33.703125 14.75 35.140625 
Q 13.203125 36.59375 13.203125 38.796875 
Q 13.203125 40.796875 14.203125 42.046875 
Q 15.203125 43.296875 16.796875 44.046875 
Q 18.40625 44.796875 20.34375 45.09375 
Q 22.296875 45.40625 24.203125 45.40625 
Q 26.296875 45.40625 28.34375 44.953125 
Q 30.40625 44.5 32.09375 43.5 
Q 33.796875 42.5 34.890625 40.84375 
Q 36 39.203125 36.203125 36.703125 
L 44.703125 36.703125 
Q 44.40625 41.40625 42.703125 44.546875 
Q 41 47.703125 38.140625 49.546875 
Q 35.296875 51.40625 31.59375 52.15625 
Q 27.90625 52.90625 23.5 52.90625 
Q 20.09375 52.90625 16.640625 52.046875 
Q 13.203125 51.203125 10.453125 49.453125 
Q 7.703125 47.703125 5.953125 44.890625 
Q 4.203125 42.09375 4.203125 38.203125 
Q 4.203125 33.203125 6.703125 30.390625 
Q 9.203125 27.59375 12.953125 26.046875 
Q 16.703125 24.5 21.09375 23.640625 
Q 25.5 22.796875 29.25 21.75 
Q 33 20.703125 35.5 19 
Q 38 17.296875 38 14 
Q 38 11.59375 36.796875 10.046875 
Q 35.59375 8.5 33.75 7.703125 
Q 31.90625 6.90625 29.703125 6.59375 
Q 27.5 6.296875 25.5 6.296875 
Q 22.90625 6.296875 20.453125 6.796875 
Q 18 7.296875 16.046875 8.4375 
Q 14.09375 9.59375 12.890625 11.546875 
Q 11.703125 13.5 11.59375 16.296875 
z
" id="HelveticaNeue-115"/>
      <path id="HelveticaNeue-32"/>
      <path d="M 7.703125 78.59375 
L 7.703125 -21.296875 
L 14.5 -21.296875 
L 14.5 78.59375 
z
" id="HelveticaNeue-124"/>
      <path d="M 58 49.90625 
L 67.5 49.90625 
Q 66.703125 55.59375 64.09375 59.9375 
Q 61.5 64.296875 57.59375 67.1875 
Q 53.703125 70.09375 48.703125 71.59375 
Q 43.703125 73.09375 38.09375 73.09375 
Q 29.90625 73.09375 23.546875 70.140625 
Q 17.203125 67.203125 12.953125 62.09375 
Q 8.703125 57 6.5 50.140625 
Q 4.296875 43.296875 4.296875 35.5 
Q 4.296875 27.703125 6.34375 20.890625 
Q 8.40625 14.09375 12.5 9.09375 
Q 16.59375 4.09375 22.796875 1.25 
Q 29 -1.59375 37.296875 -1.59375 
Q 51 -1.59375 58.890625 5.90625 
Q 66.796875 13.40625 68.203125 26.90625 
L 58.703125 26.90625 
Q 58.40625 22.5 56.90625 18.703125 
Q 55.40625 14.90625 52.75 12.15625 
Q 50.09375 9.40625 46.4375 7.84375 
Q 42.796875 6.296875 38.09375 6.296875 
Q 31.703125 6.296875 27.09375 8.6875 
Q 22.5 11.09375 19.546875 15.140625 
Q 16.59375 19.203125 15.1875 24.640625 
Q 13.796875 30.09375 13.796875 36.203125 
Q 13.796875 41.796875 15.1875 47 
Q 16.59375 52.203125 19.546875 56.25 
Q 22.5 60.296875 27.046875 62.6875 
Q 31.59375 65.09375 38 65.09375 
Q 45.5 65.09375 50.953125 61.296875 
Q 56.40625 57.5 58 49.90625 
z
" id="HelveticaNeue-67"/>
      <path d="M 29.703125 0 
L 48.59375 51.703125 
L 39.703125 51.703125 
L 25.59375 8.59375 
L 25.40625 8.59375 
L 10.90625 51.703125 
L 1.40625 51.703125 
L 20.59375 0 
z
" id="HelveticaNeue-118"/>
      <path d="M 19.40625 40.59375 
L 19.40625 51.703125 
L 8.296875 51.703125 
L 8.296875 40.59375 
z
M 8.296875 11.09375 
L 8.296875 0 
L 19.40625 0 
L 19.40625 11.09375 
z
" id="HelveticaNeue-58"/>
      <path d="M 5 31.796875 
L 5 23.796875 
L 33.90625 23.796875 
L 33.90625 31.796875 
z
" id="HelveticaNeue-45"/>
     </defs>
     <use xlink:href="#HelveticaNeue-66"/>
     <use x="68.499985" xlink:href="#HelveticaNeue-111"/>
     <use x="125.899979" xlink:href="#HelveticaNeue-115"/>
     <use x="175.899963" xlink:href="#HelveticaNeue-97"/>
     <use x="229.59996" xlink:href="#HelveticaNeue-32"/>
     <use x="257.399948" xlink:href="#HelveticaNeue-124"/>
     <use x="279.599945" xlink:href="#HelveticaNeue-32"/>
     <use x="307.399933" xlink:href="#HelveticaNeue-67"/>
     <use x="379.599915" xlink:href="#HelveticaNeue-97"/>
     <use x="433.299911" xlink:href="#HelveticaNeue-115"/>
     <use x="483.299896" xlink:href="#HelveticaNeue-111"/>
     <use x="540.69989" xlink:href="#HelveticaNeue-115"/>
     <use x="590.699875" xlink:href="#HelveticaNeue-32"/>
     <use x="618.499863" xlink:href="#HelveticaNeue-110"/>
     <use x="674.099854" xlink:href="#HelveticaNeue-117"/>
     <use x="729.699844" xlink:href="#HelveticaNeue-101"/>
     <use x="783.399841" xlink:href="#HelveticaNeue-118"/>
     <use x="833.399826" xlink:href="#HelveticaNeue-111"/>
     <use x="890.79982" xlink:href="#HelveticaNeue-115"/>
     <use x="940.799805" xlink:href="#HelveticaNeue-58"/>
     <use x="968.599792" xlink:href="#HelveticaNeue-32"/>
     <use x="996.39978" xlink:href="#HelveticaNeue-50"/>
     <use x="1051.999771" xlink:href="#HelveticaNeue-48"/>
     <use x="1107.599762" xlink:href="#HelveticaNeue-50"/>
     <use x="1163.199753" xlink:href="#HelveticaNeue-49"/>
     <use x="1218.799744" xlink:href="#HelveticaNeue-45"/>
     <use x="1257.699738" xlink:href="#HelveticaNeue-48"/>
     <use x="1313.299728" xlink:href="#HelveticaNeue-54"/>
     <use x="1368.899719" xlink:href="#HelveticaNeue-45"/>
     <use x="1407.799713" xlink:href="#HelveticaNeue-49"/>
     <use x="1463.399704" xlink:href="#HelveticaNeue-55"/>
    </g>
   </g>
   <g id="legend_1">
    <g id="line2d_29">
     <path d="M 71.5 39.640625 
L 91.5 39.640625 
" style="fill:none;stroke:#000000;stroke-dasharray:1.5,2.475;stroke-dashoffset:0;stroke-opacity:0.5;stroke-width:1.5;"/>
    </g>
    <g id="line2d_30"/>
    <g id="text_17">
     <!-- Actual -->
     <g style="fill:#555555;" transform="translate(99.5 43.140625)scale(0.1 -0.1)">
      <use xlink:href="#HelveticaNeue-65"/>
      <use x="64.799988" xlink:href="#HelveticaNeue-99"/>
      <use x="118.499985" xlink:href="#HelveticaNeue-116"/>
      <use x="149.999969" xlink:href="#HelveticaNeue-117"/>
      <use x="205.59996" xlink:href="#HelveticaNeue-97"/>
      <use x="259.299957" xlink:href="#HelveticaNeue-108"/>
     </g>
    </g>
    <g id="line2d_31">
     <path d="M 71.5 54.310937 
L 91.5 54.310937 
" style="fill:none;stroke:#b3220f;stroke-linecap:square;stroke-width:1.5;"/>
    </g>
    <g id="line2d_32"/>
    <g id="text_18">
     <!-- Promedio semanal (7 das)  -->
     <g style="fill:#555555;" transform="translate(99.5 57.810937)scale(0.1 -0.1)">
      <defs>
       <path d="M 17.296875 37.203125 
L 17.296875 63.40625 
L 35.90625 63.40625 
Q 44 63.40625 47.75 60.046875 
Q 51.5 56.703125 51.5 50.296875 
Q 51.5 43.90625 47.75 40.5 
Q 44 37.09375 35.90625 37.203125 
z
M 7.796875 71.40625 
L 7.796875 0 
L 17.296875 0 
L 17.296875 29.203125 
L 39.09375 29.203125 
Q 49.90625 29.09375 55.453125 34.6875 
Q 61 40.296875 61 50.296875 
Q 61 60.296875 55.453125 65.84375 
Q 49.90625 71.40625 39.09375 71.40625 
z
" id="HelveticaNeue-80"/>
       <path d="M 6.40625 51.703125 
L 6.40625 0 
L 14.90625 0 
L 14.90625 32.203125 
Q 14.90625 33.703125 15.65625 35.953125 
Q 16.40625 38.203125 18.046875 40.296875 
Q 19.703125 42.40625 22.34375 43.90625 
Q 25 45.40625 28.703125 45.40625 
Q 31.59375 45.40625 33.4375 44.546875 
Q 35.296875 43.703125 36.390625 42.140625 
Q 37.5 40.59375 37.953125 38.5 
Q 38.40625 36.40625 38.40625 33.90625 
L 38.40625 0 
L 46.90625 0 
L 46.90625 32.203125 
Q 46.90625 38.203125 50.5 41.796875 
Q 54.09375 45.40625 60.40625 45.40625 
Q 63.5 45.40625 65.453125 44.5 
Q 67.40625 43.59375 68.5 42.046875 
Q 69.59375 40.5 70 38.390625 
Q 70.40625 36.296875 70.40625 33.90625 
L 70.40625 0 
L 78.90625 0 
L 78.90625 37.90625 
Q 78.90625 41.90625 77.65625 44.75 
Q 76.40625 47.59375 74.15625 49.390625 
Q 71.90625 51.203125 68.75 52.046875 
Q 65.59375 52.90625 61.703125 52.90625 
Q 56.59375 52.90625 52.34375 50.59375 
Q 48.09375 48.296875 45.5 44.09375 
Q 43.90625 48.90625 40 50.90625 
Q 36.09375 52.90625 31.296875 52.90625 
Q 20.40625 52.90625 14.59375 44.09375 
L 14.40625 44.09375 
L 14.40625 51.703125 
z
" id="HelveticaNeue-109"/>
       <path d="M 12.59375 25.40625 
Q 12.59375 29.203125 13.390625 32.796875 
Q 14.203125 36.40625 16 39.203125 
Q 17.796875 42 20.796875 43.703125 
Q 23.796875 45.40625 28.09375 45.40625 
Q 32.5 45.40625 35.59375 43.75 
Q 38.703125 42.09375 40.640625 39.390625 
Q 42.59375 36.703125 43.5 33.140625 
Q 44.40625 29.59375 44.40625 25.796875 
Q 44.40625 22.203125 43.546875 18.703125 
Q 42.703125 15.203125 40.796875 12.453125 
Q 38.90625 9.703125 35.90625 8 
Q 32.90625 6.296875 28.59375 6.296875 
Q 24.5 6.296875 21.453125 7.890625 
Q 18.40625 9.5 16.453125 12.203125 
Q 14.5 14.90625 13.546875 18.34375 
Q 12.59375 21.796875 12.59375 25.40625 
z
M 52.59375 0 
L 52.59375 71.40625 
L 44.09375 71.40625 
L 44.09375 44.796875 
L 43.90625 44.796875 
Q 42.5 47.09375 40.453125 48.640625 
Q 38.40625 50.203125 36.09375 51.140625 
Q 33.796875 52.09375 31.5 52.5 
Q 29.203125 52.90625 27.203125 52.90625 
Q 21.296875 52.90625 16.84375 50.75 
Q 12.40625 48.59375 9.453125 44.9375 
Q 6.5 41.296875 5.046875 36.390625 
Q 3.59375 31.5 3.59375 26 
Q 3.59375 20.5 5.09375 15.59375 
Q 6.59375 10.703125 9.546875 7 
Q 12.5 3.296875 16.953125 1.09375 
Q 21.40625 -1.09375 27.40625 -1.09375 
Q 32.796875 -1.09375 37.296875 0.796875 
Q 41.796875 2.703125 43.90625 7 
L 44.09375 7 
L 44.09375 0 
z
" id="HelveticaNeue-100"/>
       <path d="M 15.40625 61 
L 15.40625 71.40625 
L 6.90625 71.40625 
L 6.90625 61 
z
M 6.90625 51.703125 
L 6.90625 0 
L 15.40625 0 
L 15.40625 51.703125 
z
" id="HelveticaNeue-105"/>
       <path d="M 20.40625 -19.703125 
L 26.90625 -19.703125 
Q 19.796875 -8.203125 16.75 3.09375 
Q 13.703125 14.40625 13.703125 27 
Q 13.703125 39.296875 16.703125 50.5 
Q 19.703125 61.703125 26.90625 73.09375 
L 20.40625 73.09375 
Q 12.59375 62.796875 8.640625 50.796875 
Q 4.703125 38.796875 4.703125 27 
Q 4.703125 20.40625 5.796875 14.40625 
Q 6.90625 8.40625 8.953125 2.703125 
Q 11 -3 13.890625 -8.546875 
Q 16.796875 -14.09375 20.40625 -19.703125 
z
" id="HelveticaNeue-40"/>
       <path d="M 6.90625 0 
L 15.40625 0 
L 15.40625 51.703125 
L 6.90625 51.703125 
z
M 25.5 77 
L 11.40625 60.796875 
L 5 60.796875 
L 14.59375 77 
z
" id="HelveticaNeue-237"/>
       <path d="M -0.90625 -19.703125 
L 5.5 -19.703125 
Q 13.296875 -9.40625 17.25 2.546875 
Q 21.203125 14.5 21.203125 26.296875 
Q 21.203125 32.90625 20.09375 38.90625 
Q 19 44.90625 16.953125 50.65625 
Q 14.90625 56.40625 12 61.953125 
Q 9.09375 67.5 5.5 73.09375 
L -0.90625 73.09375 
Q 6.09375 61.59375 9.140625 50.25 
Q 12.203125 38.90625 12.203125 26.296875 
Q 12.203125 14.09375 9.203125 2.84375 
Q 6.203125 -8.40625 -0.90625 -19.703125 
z
" id="HelveticaNeue-41"/>
      </defs>
      <use xlink:href="#HelveticaNeue-80"/>
      <use x="64.799988" xlink:href="#HelveticaNeue-114"/>
      <use x="96.349976" xlink:href="#HelveticaNeue-111"/>
      <use x="153.749969" xlink:href="#HelveticaNeue-109"/>
      <use x="239.049957" xlink:href="#HelveticaNeue-101"/>
      <use x="292.749954" xlink:href="#HelveticaNeue-100"/>
      <use x="352.049942" xlink:href="#HelveticaNeue-105"/>
      <use x="374.249939" xlink:href="#HelveticaNeue-111"/>
      <use x="431.649933" xlink:href="#HelveticaNeue-32"/>
      <use x="459.449921" xlink:href="#HelveticaNeue-115"/>
      <use x="509.449905" xlink:href="#HelveticaNeue-101"/>
      <use x="563.149902" xlink:href="#HelveticaNeue-109"/>
      <use x="648.44989" xlink:href="#HelveticaNeue-97"/>
      <use x="702.149887" xlink:href="#HelveticaNeue-110"/>
      <use x="757.749878" xlink:href="#HelveticaNeue-97"/>
      <use x="811.449875" xlink:href="#HelveticaNeue-108"/>
      <use x="833.649872" xlink:href="#HelveticaNeue-32"/>
      <use x="861.44986" xlink:href="#HelveticaNeue-40"/>
      <use x="887.349854" xlink:href="#HelveticaNeue-55"/>
      <use x="942.949844" xlink:href="#HelveticaNeue-32"/>
      <use x="970.749832" xlink:href="#HelveticaNeue-100"/>
      <use x="1030.04982" xlink:href="#HelveticaNeue-237"/>
      <use x="1052.249817" xlink:href="#HelveticaNeue-97"/>
      <use x="1105.949814" xlink:href="#HelveticaNeue-115"/>
      <use x="1155.949799" xlink:href="#HelveticaNeue-41"/>
      <use x="1181.849792" xlink:href="#HelveticaNeue-32"/>
     </g>
    </g>
   </g>
  </g>
 </g>
 <defs>
  <clipPath id="p8e0db5a22e">
   <rect height="235.5" width="387.5" x="62.5" y="27"/>
  </clipPath>
 </defs>
</svg>
