<?xml version="1.0" encoding="utf-8" standalone="no"?>
<!DOCTYPE svg PUBLIC "-//W3C//DTD SVG 1.1//EN"
  "http://www.w3.org/Graphics/SVG/1.1/DTD/svg11.dtd">
<!-- Created with matplotlib (https://matplotlib.org/) -->
<svg height="300pt" version="1.1" viewBox="0 0 500 300" width="500pt" xmlns="http://www.w3.org/2000/svg" xmlns:xlink="http://www.w3.org/1999/xlink">
 <metadata>
  <rdf:RDF xmlns:cc="http://creativecommons.org/ns#" xmlns:dc="http://purl.org/dc/elements/1.1/" xmlns:rdf="http://www.w3.org/1999/02/22-rdf-syntax-ns#">
   <cc:Work>
    <dc:type rdf:resource="http://purl.org/dc/dcmitype/StillImage"/>
    <dc:date>2021-06-11T19:31:54.699443</dc:date>
    <dc:format>image/svg+xml</dc:format>
    <dc:creator>
     <cc:Agent>
      <dc:title>Matplotlib v3.3.4, https://matplotlib.org/</dc:title>
     </cc:Agent>
    </dc:creator>
   </cc:Work>
  </rdf:RDF>
 </metadata>
 <defs>
  <style type="text/css">*{stroke-linecap:butt;stroke-linejoin:round;}</style>
 </defs>
 <g id="figure_1">
  <g id="patch_1">
   <path d="M 0 300 
L 500 300 
L 500 0 
L 0 0 
z
" style="fill:#ffffff;"/>
  </g>
  <g id="axes_1">
   <g id="patch_2">
    <path d="M 62.5 262.5 
L 450 262.5 
L 450 27 
L 62.5 27 
z
" style="fill:#ffffff;"/>
   </g>
   <g id="matplotlib.axis_1">
    <g id="xtick_1">
     <g id="line2d_1">
      <defs>
       <path d="M 0 0 
L 0 3.5 
" id="m9f359812b8" style="stroke:#555555;stroke-width:0.8;"/>
      </defs>
      <g>
       <use style="fill:#555555;stroke:#555555;stroke-width:0.8;" x="62.5" xlink:href="#m9f359812b8" y="262.5"/>
      </g>
     </g>
    </g>
    <g id="xtick_2">
     <g id="line2d_2">
      <g>
       <use style="fill:#555555;stroke:#555555;stroke-width:0.8;" x="75.445434" xlink:href="#m9f359812b8" y="262.5"/>
      </g>
     </g>
     <g id="text_1">
      <!-- Apr -->
      <g style="fill:#555555;" transform="translate(67.575903 276.640625)scale(0.1 -0.1)">
       <defs>
        <path d="M 20.09375 29.5 
L 32.203125 62.796875 
L 32.40625 62.796875 
L 44.296875 29.5 
z
M 27.203125 71.40625 
L -0.59375 0 
L 9.09375 0 
L 17.09375 21.5 
L 47.296875 21.5 
L 55.09375 0 
L 65.59375 0 
L 37.703125 71.40625 
z
" id="HelveticaNeue-65"/>
        <path d="M 6.703125 51.703125 
L 6.703125 -19.703125 
L 15.203125 -19.703125 
L 15.203125 6.90625 
L 15.40625 6.90625 
Q 16.796875 4.59375 18.84375 3.046875 
Q 20.90625 1.5 23.203125 0.59375 
Q 25.5 -0.296875 27.84375 -0.6875 
Q 30.203125 -1.09375 32.09375 -1.09375 
Q 38 -1.09375 42.453125 1 
Q 46.90625 3.09375 49.84375 6.75 
Q 52.796875 10.40625 54.25 15.296875 
Q 55.703125 20.203125 55.703125 25.703125 
Q 55.703125 31.203125 54.203125 36.09375 
Q 52.703125 41 49.75 44.75 
Q 46.796875 48.5 42.34375 50.703125 
Q 37.90625 52.90625 31.90625 52.90625 
Q 26.5 52.90625 22 50.953125 
Q 17.5 49 15.40625 44.703125 
L 15.203125 44.703125 
L 15.203125 51.703125 
z
M 46.703125 26.296875 
Q 46.703125 22.5 45.890625 18.890625 
Q 45.09375 15.296875 43.296875 12.5 
Q 41.5 9.703125 38.546875 8 
Q 35.59375 6.296875 31.203125 6.296875 
Q 26.796875 6.296875 23.6875 7.9375 
Q 20.59375 9.59375 18.640625 12.296875 
Q 16.703125 15 15.796875 18.546875 
Q 14.90625 22.09375 14.90625 25.90625 
Q 14.90625 29.5 15.75 33 
Q 16.59375 36.5 18.5 39.25 
Q 20.40625 42 23.40625 43.703125 
Q 26.40625 45.40625 30.703125 45.40625 
Q 34.796875 45.40625 37.84375 43.796875 
Q 40.90625 42.203125 42.84375 39.5 
Q 44.796875 36.796875 45.75 33.34375 
Q 46.703125 29.90625 46.703125 26.296875 
z
" id="HelveticaNeue-112"/>
        <path d="M 6.09375 51.703125 
L 6.09375 0 
L 14.59375 0 
L 14.59375 23 
Q 14.59375 28 15.59375 31.84375 
Q 16.59375 35.703125 18.796875 38.390625 
Q 21 41.09375 24.59375 42.5 
Q 28.203125 43.90625 33.296875 43.90625 
L 33.296875 52.90625 
Q 26.40625 53.09375 21.90625 50.09375 
Q 17.40625 47.09375 14.296875 40.796875 
L 14.09375 40.796875 
L 14.09375 51.703125 
z
" id="HelveticaNeue-114"/>
       </defs>
       <use xlink:href="#HelveticaNeue-65"/>
       <use x="64.799988" xlink:href="#HelveticaNeue-112"/>
       <use x="124.099976" xlink:href="#HelveticaNeue-114"/>
      </g>
     </g>
    </g>
    <g id="xtick_3">
     <g id="line2d_3">
      <g>
       <use style="fill:#555555;stroke:#555555;stroke-width:0.8;" x="153.981069" xlink:href="#m9f359812b8" y="262.5"/>
      </g>
     </g>
     <g id="text_2">
      <!-- Jul -->
      <g style="fill:#555555;" transform="translate(147.495913 276.640625)scale(0.1 -0.1)">
       <defs>
        <path d="M 44.09375 17.796875 
L 44.09375 71.40625 
L 34.59375 71.40625 
L 34.59375 19.203125 
Q 34.59375 13.296875 32.140625 9.796875 
Q 29.703125 6.296875 23.203125 6.296875 
Q 19.703125 6.296875 17.453125 7.34375 
Q 15.203125 8.40625 13.953125 10.296875 
Q 12.703125 12.203125 12.203125 14.796875 
Q 11.703125 17.40625 11.703125 20.5 
L 11.703125 23.5 
L 2.203125 23.5 
L 2.203125 19.09375 
Q 2.203125 8.90625 7.59375 3.65625 
Q 13 -1.59375 23 -1.59375 
Q 29 -1.59375 33.046875 0.046875 
Q 37.09375 1.703125 39.546875 4.453125 
Q 42 7.203125 43.046875 10.703125 
Q 44.09375 14.203125 44.09375 17.796875 
z
" id="HelveticaNeue-74"/>
        <path d="M 49.203125 0 
L 49.203125 51.703125 
L 40.703125 51.703125 
L 40.703125 22.5 
Q 40.703125 19 39.75 16.046875 
Q 38.796875 13.09375 36.890625 10.890625 
Q 35 8.703125 32.140625 7.5 
Q 29.296875 6.296875 25.40625 6.296875 
Q 20.5 6.296875 17.703125 9.09375 
Q 14.90625 11.90625 14.90625 16.703125 
L 14.90625 51.703125 
L 6.40625 51.703125 
L 6.40625 17.703125 
Q 6.40625 13.5 7.25 10.046875 
Q 8.09375 6.59375 10.1875 4.09375 
Q 12.296875 1.59375 15.6875 0.25 
Q 19.09375 -1.09375 24.203125 -1.09375 
Q 29.90625 -1.09375 34.09375 1.15625 
Q 38.296875 3.40625 41 8.203125 
L 41.203125 8.203125 
L 41.203125 0 
z
" id="HelveticaNeue-117"/>
        <path d="M 6.90625 71.40625 
L 6.90625 0 
L 15.40625 0 
L 15.40625 71.40625 
z
" id="HelveticaNeue-108"/>
       </defs>
       <use xlink:href="#HelveticaNeue-74"/>
       <use x="51.899994" xlink:href="#HelveticaNeue-117"/>
       <use x="107.499985" xlink:href="#HelveticaNeue-108"/>
      </g>
     </g>
    </g>
    <g id="xtick_4">
     <g id="line2d_4">
      <g>
       <use style="fill:#555555;stroke:#555555;stroke-width:0.8;" x="233.379733" xlink:href="#m9f359812b8" y="262.5"/>
      </g>
     </g>
     <g id="text_3">
      <!-- Oct -->
      <g style="fill:#555555;" transform="translate(225.319576 276.640625)scale(0.1 -0.1)">
       <defs>
        <path d="M 13.296875 35.703125 
Q 13.296875 41.09375 14.6875 46.34375 
Q 16.09375 51.59375 19.09375 55.796875 
Q 22.09375 60 26.796875 62.546875 
Q 31.5 65.09375 38 65.09375 
Q 44.5 65.09375 49.203125 62.546875 
Q 53.90625 60 56.90625 55.796875 
Q 59.90625 51.59375 61.296875 46.34375 
Q 62.703125 41.09375 62.703125 35.703125 
Q 62.703125 30.296875 61.296875 25.046875 
Q 59.90625 19.796875 56.90625 15.59375 
Q 53.90625 11.40625 49.203125 8.84375 
Q 44.5 6.296875 38 6.296875 
Q 31.5 6.296875 26.796875 8.84375 
Q 22.09375 11.40625 19.09375 15.59375 
Q 16.09375 19.796875 14.6875 25.046875 
Q 13.296875 30.296875 13.296875 35.703125 
z
M 3.796875 35.703125 
Q 3.796875 28.40625 5.9375 21.65625 
Q 8.09375 14.90625 12.390625 9.703125 
Q 16.703125 4.5 23.09375 1.453125 
Q 29.5 -1.59375 38 -1.59375 
Q 46.5 -1.59375 52.890625 1.453125 
Q 59.296875 4.5 63.59375 9.703125 
Q 67.90625 14.90625 70.046875 21.65625 
Q 72.203125 28.40625 72.203125 35.703125 
Q 72.203125 43 70.046875 49.75 
Q 67.90625 56.5 63.59375 61.703125 
Q 59.296875 66.90625 52.890625 70 
Q 46.5 73.09375 38 73.09375 
Q 29.5 73.09375 23.09375 70 
Q 16.703125 66.90625 12.390625 61.703125 
Q 8.09375 56.5 5.9375 49.75 
Q 3.796875 43 3.796875 35.703125 
z
" id="HelveticaNeue-79"/>
        <path d="M 41.5 35.09375 
L 50.296875 35.09375 
Q 49.796875 39.703125 47.890625 43.046875 
Q 46 46.40625 43.046875 48.59375 
Q 40.09375 50.796875 36.25 51.84375 
Q 32.40625 52.90625 28 52.90625 
Q 21.90625 52.90625 17.296875 50.75 
Q 12.703125 48.59375 9.640625 44.84375 
Q 6.59375 41.09375 5.09375 36.046875 
Q 3.59375 31 3.59375 25.203125 
Q 3.59375 19.40625 5.140625 14.546875 
Q 6.703125 9.703125 9.75 6.203125 
Q 12.796875 2.703125 17.34375 0.796875 
Q 21.90625 -1.09375 27.796875 -1.09375 
Q 37.703125 -1.09375 43.453125 4.09375 
Q 49.203125 9.296875 50.59375 18.90625 
L 41.90625 18.90625 
Q 41.09375 12.90625 37.546875 9.59375 
Q 34 6.296875 27.703125 6.296875 
Q 23.703125 6.296875 20.796875 7.890625 
Q 17.90625 9.5 16.09375 12.140625 
Q 14.296875 14.796875 13.4375 18.1875 
Q 12.59375 21.59375 12.59375 25.203125 
Q 12.59375 29.09375 13.390625 32.75 
Q 14.203125 36.40625 16.046875 39.203125 
Q 17.90625 42 21 43.703125 
Q 24.09375 45.40625 28.703125 45.40625 
Q 34.09375 45.40625 37.296875 42.703125 
Q 40.5 40 41.5 35.09375 
z
" id="HelveticaNeue-99"/>
        <path d="M 18.203125 51.703125 
L 18.203125 67.203125 
L 9.703125 67.203125 
L 9.703125 51.703125 
L 0.90625 51.703125 
L 0.90625 44.203125 
L 9.703125 44.203125 
L 9.703125 11.296875 
Q 9.703125 7.703125 10.390625 5.5 
Q 11.09375 3.296875 12.546875 2.09375 
Q 14 0.90625 16.34375 0.453125 
Q 18.703125 0 22 0 
L 28.5 0 
L 28.5 7.5 
L 24.59375 7.5 
Q 22.59375 7.5 21.34375 7.640625 
Q 20.09375 7.796875 19.390625 8.296875 
Q 18.703125 8.796875 18.453125 9.6875 
Q 18.203125 10.59375 18.203125 12.09375 
L 18.203125 44.203125 
L 28.5 44.203125 
L 28.5 51.703125 
z
" id="HelveticaNeue-116"/>
       </defs>
       <use xlink:href="#HelveticaNeue-79"/>
       <use x="75.999985" xlink:href="#HelveticaNeue-99"/>
       <use x="129.699982" xlink:href="#HelveticaNeue-116"/>
      </g>
     </g>
    </g>
    <g id="xtick_5">
     <g id="line2d_5">
      <g>
       <use style="fill:#555555;stroke:#555555;stroke-width:0.8;" x="312.778396" xlink:href="#m9f359812b8" y="262.5"/>
      </g>
     </g>
     <g id="text_4">
      <!-- Jan -->
      <g style="fill:#555555;" transform="translate(304.71824 276.640625)scale(0.1 -0.1)">
       <defs>
        <path d="M 52.203125 0.203125 
Q 50 -1.09375 46.09375 -1.09375 
Q 42.796875 -1.09375 40.84375 0.75 
Q 38.90625 2.59375 38.90625 6.796875 
Q 35.40625 2.59375 30.75 0.75 
Q 26.09375 -1.09375 20.703125 -1.09375 
Q 17.203125 -1.09375 14.046875 -0.296875 
Q 10.90625 0.5 8.59375 2.203125 
Q 6.296875 3.90625 4.9375 6.65625 
Q 3.59375 9.40625 3.59375 13.296875 
Q 3.59375 17.703125 5.09375 20.5 
Q 6.59375 23.296875 9.046875 25.046875 
Q 11.5 26.796875 14.640625 27.6875 
Q 17.796875 28.59375 21.09375 29.203125 
Q 24.59375 29.90625 27.75 30.25 
Q 30.90625 30.59375 33.296875 31.25 
Q 35.703125 31.90625 37.09375 33.15625 
Q 38.5 34.40625 38.5 36.796875 
Q 38.5 39.59375 37.453125 41.296875 
Q 36.40625 43 34.75 43.890625 
Q 33.09375 44.796875 31.046875 45.09375 
Q 29 45.40625 27 45.40625 
Q 21.59375 45.40625 18 43.34375 
Q 14.40625 41.296875 14.09375 35.59375 
L 5.59375 35.59375 
Q 5.796875 40.40625 7.59375 43.703125 
Q 9.40625 47 12.40625 49.046875 
Q 15.40625 51.09375 19.25 52 
Q 23.09375 52.90625 27.5 52.90625 
Q 31 52.90625 34.453125 52.40625 
Q 37.90625 51.90625 40.703125 50.34375 
Q 43.5 48.796875 45.203125 46 
Q 46.90625 43.203125 46.90625 38.703125 
L 46.90625 12.09375 
Q 46.90625 9.09375 47.25 7.6875 
Q 47.59375 6.296875 49.59375 6.296875 
Q 50.703125 6.296875 52.203125 6.796875 
z
M 38.40625 26.703125 
Q 36.796875 25.5 34.1875 24.953125 
Q 31.59375 24.40625 28.75 24.046875 
Q 25.90625 23.703125 23 23.25 
Q 20.09375 22.796875 17.796875 21.796875 
Q 15.5 20.796875 14.046875 18.9375 
Q 12.59375 17.09375 12.59375 13.90625 
Q 12.59375 11.796875 13.4375 10.34375 
Q 14.296875 8.90625 15.640625 8 
Q 17 7.09375 18.796875 6.6875 
Q 20.59375 6.296875 22.59375 6.296875 
Q 26.796875 6.296875 29.796875 7.4375 
Q 32.796875 8.59375 34.6875 10.34375 
Q 36.59375 12.09375 37.5 14.140625 
Q 38.40625 16.203125 38.40625 18 
z
" id="HelveticaNeue-97"/>
        <path d="M 6.40625 51.703125 
L 6.40625 0 
L 14.90625 0 
L 14.90625 29.203125 
Q 14.90625 32.703125 15.84375 35.640625 
Q 16.796875 38.59375 18.6875 40.796875 
Q 20.59375 43 23.4375 44.203125 
Q 26.296875 45.40625 30.203125 45.40625 
Q 35.09375 45.40625 37.890625 42.59375 
Q 40.703125 39.796875 40.703125 35 
L 40.703125 0 
L 49.203125 0 
L 49.203125 34 
Q 49.203125 38.203125 48.34375 41.640625 
Q 47.5 45.09375 45.390625 47.59375 
Q 43.296875 50.09375 39.890625 51.5 
Q 36.5 52.90625 31.40625 52.90625 
Q 19.90625 52.90625 14.59375 43.5 
L 14.40625 43.5 
L 14.40625 51.703125 
z
" id="HelveticaNeue-110"/>
       </defs>
       <use xlink:href="#HelveticaNeue-74"/>
       <use x="51.899994" xlink:href="#HelveticaNeue-97"/>
       <use x="105.599991" xlink:href="#HelveticaNeue-110"/>
      </g>
      <!-- 2021 -->
      <g style="fill:#555555;" transform="translate(301.659646 287.179688)scale(0.1 -0.1)">
       <defs>
        <path d="M 4.40625 45.796875 
L 12.90625 45.796875 
Q 12.796875 49 13.546875 52.140625 
Q 14.296875 55.296875 16 57.796875 
Q 17.703125 60.296875 20.34375 61.84375 
Q 23 63.40625 26.703125 63.40625 
Q 29.5 63.40625 32 62.5 
Q 34.5 61.59375 36.34375 59.890625 
Q 38.203125 58.203125 39.296875 55.84375 
Q 40.40625 53.5 40.40625 50.59375 
Q 40.40625 46.90625 39.25 44.09375 
Q 38.09375 41.296875 35.84375 38.890625 
Q 33.59375 36.5 30.1875 34.140625 
Q 26.796875 31.796875 22.296875 29 
Q 18.59375 26.796875 15.1875 24.296875 
Q 11.796875 21.796875 9.09375 18.5 
Q 6.40625 15.203125 4.65625 10.75 
Q 2.90625 6.296875 2.40625 0 
L 48.703125 0 
L 48.703125 7.5 
L 12.296875 7.5 
Q 12.90625 10.796875 14.84375 13.34375 
Q 16.796875 15.90625 19.546875 18.09375 
Q 22.296875 20.296875 25.59375 22.25 
Q 28.90625 24.203125 32.203125 26.203125 
Q 35.5 28.296875 38.59375 30.59375 
Q 41.703125 32.90625 44.09375 35.75 
Q 46.5 38.59375 47.953125 42.1875 
Q 49.40625 45.796875 49.40625 50.5 
Q 49.40625 55.5 47.65625 59.296875 
Q 45.90625 63.09375 42.90625 65.640625 
Q 39.90625 68.203125 35.84375 69.546875 
Q 31.796875 70.90625 27.203125 70.90625 
Q 21.59375 70.90625 17.1875 69 
Q 12.796875 67.09375 9.84375 63.75 
Q 6.90625 60.40625 5.5 55.796875 
Q 4.09375 51.203125 4.40625 45.796875 
z
" id="HelveticaNeue-50"/>
        <path d="M 13.203125 34.90625 
Q 13.203125 37.5 13.25 40.640625 
Q 13.296875 43.796875 13.75 46.9375 
Q 14.203125 50.09375 15.046875 53.09375 
Q 15.90625 56.09375 17.546875 58.34375 
Q 19.203125 60.59375 21.703125 62 
Q 24.203125 63.40625 27.796875 63.40625 
Q 31.40625 63.40625 33.90625 62 
Q 36.40625 60.59375 38.046875 58.34375 
Q 39.703125 56.09375 40.546875 53.09375 
Q 41.40625 50.09375 41.84375 46.9375 
Q 42.296875 43.796875 42.34375 40.640625 
Q 42.40625 37.5 42.40625 34.90625 
Q 42.40625 30.90625 42.15625 25.953125 
Q 41.90625 21 40.546875 16.640625 
Q 39.203125 12.296875 36.203125 9.296875 
Q 33.203125 6.296875 27.796875 6.296875 
Q 22.40625 6.296875 19.40625 9.296875 
Q 16.40625 12.296875 15.046875 16.640625 
Q 13.703125 21 13.453125 25.953125 
Q 13.203125 30.90625 13.203125 34.90625 
z
M 4.203125 34.796875 
Q 4.203125 30.90625 4.390625 26.703125 
Q 4.59375 22.5 5.390625 18.5 
Q 6.203125 14.5 7.703125 10.953125 
Q 9.203125 7.40625 11.796875 4.703125 
Q 14.40625 2 18.34375 0.453125 
Q 22.296875 -1.09375 27.796875 -1.09375 
Q 33.40625 -1.09375 37.296875 0.453125 
Q 41.203125 2 43.796875 4.703125 
Q 46.40625 7.40625 47.90625 10.953125 
Q 49.40625 14.5 50.203125 18.5 
Q 51 22.5 51.203125 26.703125 
Q 51.40625 30.90625 51.40625 34.796875 
Q 51.40625 38.703125 51.203125 42.890625 
Q 51 47.09375 50.203125 51.09375 
Q 49.40625 55.09375 47.90625 58.6875 
Q 46.40625 62.296875 43.796875 65 
Q 41.203125 67.703125 37.25 69.296875 
Q 33.296875 70.90625 27.796875 70.90625 
Q 22.296875 70.90625 18.34375 69.296875 
Q 14.40625 67.703125 11.796875 65 
Q 9.203125 62.296875 7.703125 58.6875 
Q 6.203125 55.09375 5.390625 51.09375 
Q 4.59375 47.09375 4.390625 42.890625 
Q 4.203125 38.703125 4.203125 34.796875 
z
" id="HelveticaNeue-48"/>
        <path d="M 35.59375 0 
L 35.59375 70.90625 
L 29.09375 70.90625 
Q 28.40625 66.90625 26.5 64.296875 
Q 24.59375 61.703125 21.84375 60.203125 
Q 19.09375 58.703125 15.6875 58.140625 
Q 12.296875 57.59375 8.703125 57.59375 
L 8.703125 50.796875 
L 27.09375 50.796875 
L 27.09375 0 
z
" id="HelveticaNeue-49"/>
       </defs>
       <use xlink:href="#HelveticaNeue-50"/>
       <use x="55.599991" xlink:href="#HelveticaNeue-48"/>
       <use x="111.199982" xlink:href="#HelveticaNeue-50"/>
       <use x="166.799973" xlink:href="#HelveticaNeue-49"/>
      </g>
     </g>
    </g>
    <g id="xtick_6">
     <g id="line2d_6">
      <g>
       <use style="fill:#555555;stroke:#555555;stroke-width:0.8;" x="390.451002" xlink:href="#m9f359812b8" y="262.5"/>
      </g>
     </g>
     <g id="text_5">
      <!-- Apr -->
      <g style="fill:#555555;" transform="translate(382.581471 276.640625)scale(0.1 -0.1)">
       <use xlink:href="#HelveticaNeue-65"/>
       <use x="64.799988" xlink:href="#HelveticaNeue-112"/>
       <use x="124.099976" xlink:href="#HelveticaNeue-114"/>
      </g>
     </g>
    </g>
    <g id="xtick_7">
     <g id="line2d_7">
      <g>
       <use style="fill:#555555;stroke:#555555;stroke-width:0.8;" x="450" xlink:href="#m9f359812b8" y="262.5"/>
      </g>
     </g>
    </g>
    <g id="xtick_8">
     <g id="line2d_8">
      <defs>
       <path d="M 0 0 
L 0 2 
" id="m0a73031916" style="stroke:#555555;stroke-width:0.6;"/>
      </defs>
      <g>
       <use style="fill:#555555;stroke:#555555;stroke-width:0.6;" x="101.336303" xlink:href="#m0a73031916" y="262.5"/>
      </g>
     </g>
    </g>
    <g id="xtick_9">
     <g id="line2d_9">
      <g>
       <use style="fill:#555555;stroke:#555555;stroke-width:0.6;" x="128.0902" xlink:href="#m0a73031916" y="262.5"/>
      </g>
     </g>
    </g>
    <g id="xtick_10">
     <g id="line2d_10">
      <g>
       <use style="fill:#555555;stroke:#555555;stroke-width:0.6;" x="180.734967" xlink:href="#m0a73031916" y="262.5"/>
      </g>
     </g>
    </g>
    <g id="xtick_11">
     <g id="line2d_11">
      <g>
       <use style="fill:#555555;stroke:#555555;stroke-width:0.6;" x="207.488864" xlink:href="#m0a73031916" y="262.5"/>
      </g>
     </g>
    </g>
    <g id="xtick_12">
     <g id="line2d_12">
      <g>
       <use style="fill:#555555;stroke:#555555;stroke-width:0.6;" x="260.13363" xlink:href="#m0a73031916" y="262.5"/>
      </g>
     </g>
    </g>
    <g id="xtick_13">
     <g id="line2d_13">
      <g>
       <use style="fill:#555555;stroke:#555555;stroke-width:0.6;" x="286.024499" xlink:href="#m0a73031916" y="262.5"/>
      </g>
     </g>
    </g>
    <g id="xtick_14">
     <g id="line2d_14">
      <g>
       <use style="fill:#555555;stroke:#555555;stroke-width:0.6;" x="339.532294" xlink:href="#m0a73031916" y="262.5"/>
      </g>
     </g>
    </g>
    <g id="xtick_15">
     <g id="line2d_15">
      <g>
       <use style="fill:#555555;stroke:#555555;stroke-width:0.6;" x="363.697105" xlink:href="#m0a73031916" y="262.5"/>
      </g>
     </g>
    </g>
    <g id="xtick_16">
     <g id="line2d_16">
      <g>
       <use style="fill:#555555;stroke:#555555;stroke-width:0.6;" x="416.341871" xlink:href="#m0a73031916" y="262.5"/>
      </g>
     </g>
    </g>
    <g id="xtick_17">
     <g id="line2d_17">
      <g>
       <use style="fill:#555555;stroke:#555555;stroke-width:0.6;" x="443.095768" xlink:href="#m0a73031916" y="262.5"/>
      </g>
     </g>
    </g>
    <g id="text_6">
     <!-- fecha -->
     <g style="fill:#555555;" transform="translate(243.935156 300.290625)scale(0.1 -0.1)">
      <defs>
       <path d="M 9.90625 44.203125 
L 9.90625 0 
L 18.40625 0 
L 18.40625 44.203125 
L 28.40625 44.203125 
L 28.40625 51.703125 
L 18.40625 51.703125 
L 18.40625 58.90625 
Q 18.40625 62.296875 20.09375 63.5 
Q 21.796875 64.703125 24.90625 64.703125 
Q 26 64.703125 27.296875 64.546875 
Q 28.59375 64.40625 29.703125 64 
L 29.703125 71.40625 
Q 28.5 71.796875 26.953125 72 
Q 25.40625 72.203125 24.203125 72.203125 
Q 17.203125 72.203125 13.546875 68.953125 
Q 9.90625 65.703125 9.90625 59.40625 
L 9.90625 51.703125 
L 1.203125 51.703125 
L 1.203125 44.203125 
z
" id="HelveticaNeue-102"/>
       <path d="M 42.296875 30.796875 
L 12.59375 30.796875 
Q 12.796875 33.796875 13.890625 36.4375 
Q 15 39.09375 16.890625 41.09375 
Q 18.796875 43.09375 21.4375 44.25 
Q 24.09375 45.40625 27.40625 45.40625 
Q 30.59375 45.40625 33.25 44.25 
Q 35.90625 43.09375 37.84375 41.140625 
Q 39.796875 39.203125 40.9375 36.5 
Q 42.09375 33.796875 42.296875 30.796875 
z
M 50.5 16.40625 
L 42.09375 16.40625 
Q 41 11.296875 37.546875 8.796875 
Q 34.09375 6.296875 28.703125 6.296875 
Q 24.5 6.296875 21.390625 7.6875 
Q 18.296875 9.09375 16.296875 11.4375 
Q 14.296875 13.796875 13.390625 16.84375 
Q 12.5 19.90625 12.59375 23.296875 
L 51.296875 23.296875 
Q 51.5 28 50.453125 33.203125 
Q 49.40625 38.40625 46.65625 42.796875 
Q 43.90625 47.203125 39.34375 50.046875 
Q 34.796875 52.90625 27.90625 52.90625 
Q 22.59375 52.90625 18.140625 50.90625 
Q 13.703125 48.90625 10.453125 45.296875 
Q 7.203125 41.703125 5.390625 36.796875 
Q 3.59375 31.90625 3.59375 26 
Q 3.796875 20.09375 5.34375 15.09375 
Q 6.90625 10.09375 10 6.5 
Q 13.09375 2.90625 17.640625 0.90625 
Q 22.203125 -1.09375 28.40625 -1.09375 
Q 37.203125 -1.09375 43 3.296875 
Q 48.796875 7.703125 50.5 16.40625 
z
" id="HelveticaNeue-101"/>
       <path d="M 6.40625 71.40625 
L 6.40625 0 
L 14.90625 0 
L 14.90625 29.203125 
Q 14.90625 32.703125 15.84375 35.640625 
Q 16.796875 38.59375 18.6875 40.796875 
Q 20.59375 43 23.4375 44.203125 
Q 26.296875 45.40625 30.203125 45.40625 
Q 35.09375 45.40625 37.890625 42.59375 
Q 40.703125 39.796875 40.703125 35 
L 40.703125 0 
L 49.203125 0 
L 49.203125 34 
Q 49.203125 38.203125 48.34375 41.640625 
Q 47.5 45.09375 45.390625 47.59375 
Q 43.296875 50.09375 39.890625 51.5 
Q 36.5 52.90625 31.40625 52.90625 
Q 29.09375 52.90625 26.640625 52.40625 
Q 24.203125 51.90625 21.953125 50.84375 
Q 19.703125 49.796875 17.890625 48.140625 
Q 16.09375 46.5 15.09375 44.09375 
L 14.90625 44.09375 
L 14.90625 71.40625 
z
" id="HelveticaNeue-104"/>
      </defs>
      <use xlink:href="#HelveticaNeue-102"/>
      <use x="29.599991" xlink:href="#HelveticaNeue-101"/>
      <use x="83.299988" xlink:href="#HelveticaNeue-99"/>
      <use x="136.999985" xlink:href="#HelveticaNeue-104"/>
      <use x="192.599976" xlink:href="#HelveticaNeue-97"/>
     </g>
    </g>
   </g>
   <g id="matplotlib.axis_2">
    <g id="ytick_1">
     <g id="line2d_18">
      <defs>
       <path d="M 0 0 
L -3.5 0 
" id="m41a4ab5879" style="stroke:#555555;stroke-width:0.8;"/>
      </defs>
      <g>
       <use style="fill:#555555;stroke:#555555;stroke-width:0.8;" x="62.5" xlink:href="#m41a4ab5879" y="251.795455"/>
      </g>
     </g>
     <g id="text_7">
      <!-- 0 -->
      <g style="fill:#555555;" transform="translate(49.940625 255.365767)scale(0.1 -0.1)">
       <use xlink:href="#HelveticaNeue-48"/>
      </g>
     </g>
    </g>
    <g id="ytick_2">
     <g id="line2d_19">
      <g>
       <use style="fill:#555555;stroke:#555555;stroke-width:0.8;" x="62.5" xlink:href="#m41a4ab5879" y="223.019795"/>
      </g>
     </g>
     <g id="text_8">
      <!-- 50 -->
      <g style="fill:#555555;" transform="translate(44.38125 226.590107)scale(0.1 -0.1)">
       <defs>
        <path d="M 47 62.203125 
L 47 69.703125 
L 12 69.703125 
L 5.40625 32.90625 
L 12.703125 32.5 
Q 15.203125 35.5 18.453125 37.34375 
Q 21.703125 39.203125 25.90625 39.203125 
Q 29.5 39.203125 32.453125 38 
Q 35.40625 36.796875 37.5 34.640625 
Q 39.59375 32.5 40.75 29.546875 
Q 41.90625 26.59375 41.90625 23.09375 
Q 41.90625 18.90625 40.703125 15.75 
Q 39.5 12.59375 37.453125 10.5 
Q 35.40625 8.40625 32.65625 7.34375 
Q 29.90625 6.296875 26.90625 6.296875 
Q 23.703125 6.296875 21.046875 7.25 
Q 18.40625 8.203125 16.453125 9.953125 
Q 14.5 11.703125 13.34375 14.046875 
Q 12.203125 16.40625 12 19.09375 
L 3.5 19.09375 
Q 3.59375 14.296875 5.390625 10.5 
Q 7.203125 6.703125 10.296875 4.140625 
Q 13.40625 1.59375 17.453125 0.25 
Q 21.5 -1.09375 26.09375 -1.09375 
Q 32.296875 -1.09375 36.9375 0.84375 
Q 41.59375 2.796875 44.6875 6.09375 
Q 47.796875 9.40625 49.34375 13.65625 
Q 50.90625 17.90625 50.90625 22.40625 
Q 50.90625 28.5 49.09375 33.046875 
Q 47.296875 37.59375 44.1875 40.640625 
Q 41.09375 43.703125 36.890625 45.203125 
Q 32.703125 46.703125 28 46.703125 
Q 24.40625 46.703125 20.75 45.453125 
Q 17.09375 44.203125 14.796875 41.59375 
L 14.59375 41.796875 
L 18.40625 62.203125 
z
" id="HelveticaNeue-53"/>
       </defs>
       <use xlink:href="#HelveticaNeue-53"/>
       <use x="55.599991" xlink:href="#HelveticaNeue-48"/>
      </g>
     </g>
    </g>
    <g id="ytick_3">
     <g id="line2d_20">
      <g>
       <use style="fill:#555555;stroke:#555555;stroke-width:0.8;" x="62.5" xlink:href="#m41a4ab5879" y="194.244135"/>
      </g>
     </g>
     <g id="text_9">
      <!-- 100 -->
      <g style="fill:#555555;" transform="translate(38.821875 197.814447)scale(0.1 -0.1)">
       <use xlink:href="#HelveticaNeue-49"/>
       <use x="55.599991" xlink:href="#HelveticaNeue-48"/>
       <use x="111.199982" xlink:href="#HelveticaNeue-48"/>
      </g>
     </g>
    </g>
    <g id="ytick_4">
     <g id="line2d_21">
      <g>
       <use style="fill:#555555;stroke:#555555;stroke-width:0.8;" x="62.5" xlink:href="#m41a4ab5879" y="165.468475"/>
      </g>
     </g>
     <g id="text_10">
      <!-- 150 -->
      <g style="fill:#555555;" transform="translate(38.821875 169.038788)scale(0.1 -0.1)">
       <use xlink:href="#HelveticaNeue-49"/>
       <use x="55.599991" xlink:href="#HelveticaNeue-53"/>
       <use x="111.199982" xlink:href="#HelveticaNeue-48"/>
      </g>
     </g>
    </g>
    <g id="ytick_5">
     <g id="line2d_22">
      <g>
       <use style="fill:#555555;stroke:#555555;stroke-width:0.8;" x="62.5" xlink:href="#m41a4ab5879" y="136.692815"/>
      </g>
     </g>
     <g id="text_11">
      <!-- 200 -->
      <g style="fill:#555555;" transform="translate(38.821875 140.263128)scale(0.1 -0.1)">
       <use xlink:href="#HelveticaNeue-50"/>
       <use x="55.599991" xlink:href="#HelveticaNeue-48"/>
       <use x="111.199982" xlink:href="#HelveticaNeue-48"/>
      </g>
     </g>
    </g>
    <g id="ytick_6">
     <g id="line2d_23">
      <g>
       <use style="fill:#555555;stroke:#555555;stroke-width:0.8;" x="62.5" xlink:href="#m41a4ab5879" y="107.917155"/>
      </g>
     </g>
     <g id="text_12">
      <!-- 250 -->
      <g style="fill:#555555;" transform="translate(38.821875 111.487468)scale(0.1 -0.1)">
       <use xlink:href="#HelveticaNeue-50"/>
       <use x="55.599991" xlink:href="#HelveticaNeue-53"/>
       <use x="111.199982" xlink:href="#HelveticaNeue-48"/>
      </g>
     </g>
    </g>
    <g id="ytick_7">
     <g id="line2d_24">
      <g>
       <use style="fill:#555555;stroke:#555555;stroke-width:0.8;" x="62.5" xlink:href="#m41a4ab5879" y="79.141496"/>
      </g>
     </g>
     <g id="text_13">
      <!-- 300 -->
      <g style="fill:#555555;" transform="translate(38.821875 82.711808)scale(0.1 -0.1)">
       <defs>
        <path d="M 21.796875 40.5 
L 21.796875 33.296875 
Q 24.203125 33.59375 26.90625 33.59375 
Q 30.09375 33.59375 32.84375 32.75 
Q 35.59375 31.90625 37.59375 30.15625 
Q 39.59375 28.40625 40.796875 25.84375 
Q 42 23.296875 42 20 
Q 42 16.796875 40.75 14.25 
Q 39.5 11.703125 37.390625 9.953125 
Q 35.296875 8.203125 32.5 7.25 
Q 29.703125 6.296875 26.59375 6.296875 
Q 19.296875 6.296875 15.5 10.640625 
Q 11.703125 15 11.5 21.90625 
L 3 21.90625 
Q 2.90625 16.40625 4.546875 12.09375 
Q 6.203125 7.796875 9.296875 4.84375 
Q 12.40625 1.90625 16.796875 0.40625 
Q 21.203125 -1.09375 26.59375 -1.09375 
Q 31.59375 -1.09375 36.046875 0.25 
Q 40.5 1.59375 43.796875 4.296875 
Q 47.09375 7 49.046875 11.046875 
Q 51 15.09375 51 20.40625 
Q 51 26.796875 47.84375 31.5 
Q 44.703125 36.203125 38.203125 37.59375 
L 38.203125 37.796875 
Q 42.40625 39.703125 45.203125 43.390625 
Q 48 47.09375 48 51.90625 
Q 48 56.796875 46.34375 60.390625 
Q 44.703125 64 41.796875 66.296875 
Q 38.90625 68.59375 34.953125 69.75 
Q 31 70.90625 26.40625 70.90625 
Q 21.09375 70.90625 17.046875 69.203125 
Q 13 67.5 10.296875 64.5 
Q 7.59375 61.5 6.140625 57.296875 
Q 4.703125 53.09375 4.5 48 
L 13 48 
Q 13 51.09375 13.796875 53.890625 
Q 14.59375 56.703125 16.25 58.796875 
Q 17.90625 60.90625 20.453125 62.15625 
Q 23 63.40625 26.40625 63.40625 
Q 31.796875 63.40625 35.390625 60.546875 
Q 39 57.703125 39 52 
Q 39 49.203125 37.890625 47 
Q 36.796875 44.796875 34.9375 43.34375 
Q 33.09375 41.90625 30.640625 41.15625 
Q 28.203125 40.40625 25.5 40.40625 
L 23.703125 40.40625 
Q 23.203125 40.40625 22.703125 40.40625 
Q 22.296875 40.40625 21.796875 40.5 
z
" id="HelveticaNeue-51"/>
       </defs>
       <use xlink:href="#HelveticaNeue-51"/>
       <use x="55.599991" xlink:href="#HelveticaNeue-48"/>
       <use x="111.199982" xlink:href="#HelveticaNeue-48"/>
      </g>
     </g>
    </g>
    <g id="ytick_8">
     <g id="line2d_25">
      <g>
       <use style="fill:#555555;stroke:#555555;stroke-width:0.8;" x="62.5" xlink:href="#m41a4ab5879" y="50.365836"/>
      </g>
     </g>
     <g id="text_14">
      <!-- 350 -->
      <g style="fill:#555555;" transform="translate(38.821875 53.936148)scale(0.1 -0.1)">
       <use xlink:href="#HelveticaNeue-51"/>
       <use x="55.599991" xlink:href="#HelveticaNeue-53"/>
       <use x="111.199982" xlink:href="#HelveticaNeue-48"/>
      </g>
     </g>
    </g>
   </g>
   <g id="line2d_26">
    <path clip-path="url(#p17352f06df)" d="M 63.363029 251.795455 
L 64.226058 249.493402 
L 65.089087 251.219941 
L 65.952116 251.795455 
L 66.815145 250.644428 
L 67.678174 251.219941 
L 68.541203 246.040323 
L 69.404232 251.795455 
L 70.267261 247.766862 
L 71.13029 250.644428 
L 72.856347 250.644428 
L 73.719376 248.342375 
L 74.582405 251.219941 
L 75.445434 250.644428 
L 76.308463 250.644428 
L 77.171492 243.162757 
L 78.034521 250.068915 
L 78.89755 251.219941 
L 79.760579 248.342375 
L 80.623608 250.644428 
L 81.486637 250.644428 
L 82.349666 251.219941 
L 83.212695 251.219941 
L 84.075724 251.795455 
L 84.938753 251.795455 
L 85.801782 250.644428 
L 86.664811 251.795455 
L 87.52784 251.219941 
L 88.390869 249.493402 
L 89.253898 246.040323 
L 90.116927 250.068915 
L 90.979955 250.644428 
L 91.842984 249.493402 
L 92.706013 250.068915 
L 93.569042 251.219941 
L 94.432071 251.795455 
L 95.2951 251.219941 
L 96.158129 251.795455 
L 97.021158 249.493402 
L 97.884187 251.219941 
L 98.747216 250.068915 
L 99.610245 251.219941 
L 100.473274 251.219941 
L 101.336303 250.644428 
L 102.199332 251.795455 
L 103.92539 251.795455 
L 104.788419 247.766862 
L 105.651448 251.795455 
L 106.514477 250.644428 
L 107.377506 251.219941 
L 108.240535 250.644428 
L 109.103563 251.795455 
L 109.966592 251.219941 
L 111.69265 251.219941 
L 112.555679 250.068915 
L 113.418708 249.493402 
L 114.281737 251.795455 
L 115.144766 250.644428 
L 116.007795 251.219941 
L 116.870824 249.493402 
L 117.733853 251.219941 
L 118.596882 251.219941 
L 119.459911 250.068915 
L 120.32294 249.493402 
L 121.185969 250.644428 
L 122.048998 249.493402 
L 122.912027 250.644428 
L 123.775056 247.191349 
L 124.638085 247.766862 
L 125.501114 247.766862 
L 126.364143 248.917889 
L 127.227171 232.228006 
L 128.0902 243.73827 
L 128.953229 245.464809 
L 129.816258 245.464809 
L 130.679287 250.068915 
L 131.542316 250.644428 
L 132.405345 249.493402 
L 133.268374 249.493402 
L 134.131403 248.342375 
L 134.994432 246.040323 
L 135.857461 246.040323 
L 136.72049 247.766862 
L 138.446548 242.01173 
L 139.309577 248.342375 
L 140.172606 246.615836 
L 141.035635 244.313783 
L 141.898664 242.587243 
L 142.761693 243.73827 
L 143.624722 243.73827 
L 144.487751 242.01173 
L 145.35078 240.860704 
L 146.213808 238.558651 
L 147.076837 238.558651 
L 147.939866 239.709677 
L 148.802895 241.436217 
L 149.665924 242.587243 
L 150.528953 234.530059 
L 151.391982 235.681085 
L 152.255011 240.285191 
L 153.11804 224.746334 
L 153.981069 232.803519 
L 154.844098 233.379032 
L 155.707127 235.681085 
L 156.570156 224.170821 
L 157.433185 237.407625 
L 158.296214 237.983138 
L 159.159243 223.595308 
L 160.022272 231.652493 
L 160.885301 230.501466 
L 161.74833 214.387097 
L 162.611359 235.105572 
L 163.474388 240.860704 
L 164.337416 225.321848 
L 165.200445 229.925953 
L 166.063474 220.717742 
L 166.926503 195.970674 
L 167.789532 224.170821 
L 168.652561 185.611437 
L 169.51559 201.725806 
L 170.378619 231.652493 
L 171.241648 159.713343 
L 172.104677 201.150293 
L 172.967706 225.897361 
L 173.830735 193.668622 
L 174.693764 198.272727 
L 175.556793 226.472874 
L 176.419822 204.603372 
L 177.282851 188.489003 
L 178.14588 206.905425 
L 179.008909 204.027859 
L 179.871938 147.052053 
L 180.734967 176.403226 
L 181.597996 201.150293 
L 182.461024 175.827713 
L 183.324053 141.296921 
L 184.187082 191.942082 
L 185.050111 221.868768 
L 185.91314 216.68915 
L 186.776169 189.064516 
L 187.639198 216.113636 
L 188.502227 192.517595 
L 189.365256 201.150293 
L 190.228285 191.942082 
L 191.091314 211.509531 
L 191.954343 205.754399 
L 192.817372 195.395161 
L 193.680401 213.811584 
L 194.54343 212.660557 
L 195.406459 208.056452 
L 196.269488 223.595308 
L 197.132517 208.056452 
L 197.995546 210.934018 
L 198.858575 225.897361 
L 199.721604 215.538123 
L 200.584633 217.264663 
L 201.447661 213.811584 
L 202.31069 227.6239 
L 203.173719 229.35044 
L 204.036748 221.868768 
L 204.899777 235.681085 
L 206.625835 221.293255 
L 207.488864 217.264663 
L 208.351893 221.293255 
L 209.214922 222.444282 
L 210.94098 231.652493 
L 211.804009 241.436217 
L 212.667038 218.991202 
L 213.530067 227.048387 
L 214.393096 227.6239 
L 215.256125 225.897361 
L 216.119154 227.048387 
L 217.845212 246.615836 
L 219.571269 219.566716 
L 220.434298 228.199413 
L 221.297327 230.501466 
L 222.160356 228.199413 
L 223.023385 235.105572 
L 223.886414 228.199413 
L 224.749443 225.321848 
L 225.612472 236.832111 
L 226.475501 216.68915 
L 227.33853 225.321848 
L 229.064588 231.076979 
L 229.927617 238.558651 
L 230.790646 224.746334 
L 231.653675 228.199413 
L 232.516704 235.105572 
L 233.379733 225.321848 
L 234.242762 225.321848 
L 235.105791 207.480938 
L 235.96882 231.076979 
L 236.831849 226.472874 
L 237.694878 237.983138 
L 238.557906 221.868768 
L 239.420935 223.595308 
L 240.283964 233.954545 
L 241.146993 233.954545 
L 242.010022 242.587243 
L 242.873051 235.681085 
L 243.73608 239.134164 
L 244.599109 230.501466 
L 245.462138 216.68915 
L 246.325167 230.501466 
L 247.188196 229.925953 
L 248.051225 241.436217 
L 248.914254 225.897361 
L 249.777283 223.019795 
L 250.640312 226.472874 
L 251.503341 224.170821 
L 252.36637 221.293255 
L 253.229399 217.840176 
L 254.092428 229.35044 
L 254.955457 213.23607 
L 255.818486 225.897361 
L 256.681514 227.6239 
L 257.544543 226.472874 
L 258.407572 218.991202 
L 259.270601 215.538123 
L 260.13363 239.709677 
L 260.996659 227.048387 
L 261.859688 209.207478 
L 262.722717 217.264663 
L 263.585746 221.293255 
L 264.448775 212.085044 
L 265.311804 218.415689 
L 266.174833 223.019795 
L 267.037862 221.293255 
L 267.900891 214.96261 
L 268.76392 220.142229 
L 269.626949 206.329912 
L 270.489978 217.264663 
L 271.353007 210.934018 
L 272.216036 240.860704 
L 273.079065 223.019795 
L 273.942094 211.509531 
L 274.805122 230.501466 
L 275.668151 194.819648 
L 276.53118 210.934018 
L 277.394209 202.876833 
L 278.257238 221.868768 
L 279.120267 209.782991 
L 279.983296 213.23607 
L 280.846325 213.811584 
L 281.709354 215.538123 
L 282.572383 198.272727 
L 283.435412 212.085044 
L 284.298441 221.868768 
L 285.16147 201.725806 
L 286.024499 199.423754 
L 286.887528 195.395161 
L 287.750557 205.178886 
L 288.613586 195.970674 
L 289.476615 212.085044 
L 290.339644 204.603372 
L 291.202673 200.57478 
L 292.065702 216.68915 
L 292.928731 185.611437 
L 293.791759 193.093109 
L 295.517817 175.827713 
L 296.380846 212.660557 
L 297.243875 180.431818 
L 298.106904 175.827713 
L 298.969933 176.403226 
L 299.832962 187.91349 
L 300.695991 184.460411 
L 301.55902 190.791056 
L 302.422049 208.631965 
L 304.148107 147.627566 
L 305.011136 171.79912 
L 305.874165 171.223607 
L 306.737194 232.228006 
L 307.600223 180.431818 
L 308.463252 183.309384 
L 309.326281 152.231672 
L 310.18931 152.807185 
L 311.052339 121.729472 
L 311.915367 199.423754 
L 312.778396 231.652493 
L 313.641425 184.460411 
L 314.504454 163.741935 
L 315.367483 189.064516 
L 316.230512 132.664223 
L 317.093541 157.41129 
L 317.95657 160.288856 
L 318.819599 166.043988 
L 319.682628 182.158358 
L 320.545657 202.876833 
L 321.408686 214.387097 
L 322.271715 137.268328 
L 323.134744 156.835777 
L 323.997773 159.713343 
L 324.860802 159.13783 
L 325.723831 189.064516 
L 326.58686 189.640029 
L 327.449889 168.921554 
L 328.312918 121.153959 
L 329.175947 182.158358 
L 330.038976 193.668622 
L 330.902004 197.697214 
L 331.765033 204.603372 
L 332.628062 221.868768 
L 333.491091 201.150293 
L 334.35412 206.905425 
L 335.217149 210.358504 
L 336.080178 212.085044 
L 336.943207 216.68915 
L 337.806236 224.746334 
L 338.669265 218.415689 
L 339.532294 218.415689 
L 340.395323 221.293255 
L 341.258352 213.811584 
L 342.121381 222.444282 
L 343.847439 237.983138 
L 344.710468 239.709677 
L 345.573497 224.746334 
L 346.436526 216.113636 
L 347.299555 224.746334 
L 348.162584 224.746334 
L 349.025612 237.983138 
L 349.888641 235.105572 
L 350.75167 236.256598 
L 351.614699 235.105572 
L 352.477728 235.681085 
L 353.340757 238.558651 
L 354.203786 231.076979 
L 355.066815 235.681085 
L 355.929844 236.256598 
L 356.792873 244.313783 
L 357.655902 240.285191 
L 358.518931 237.407625 
L 359.38196 232.803519 
L 360.244989 237.983138 
L 361.108018 240.860704 
L 361.971047 239.709677 
L 362.834076 235.105572 
L 363.697105 236.832111 
L 365.423163 233.379032 
L 366.286192 237.983138 
L 367.14922 236.832111 
L 368.012249 242.01173 
L 368.875278 246.040323 
L 369.738307 239.709677 
L 370.601336 236.832111 
L 371.464365 216.68915 
L 372.327394 217.840176 
L 373.190423 235.105572 
L 375.77951 226.472874 
L 376.642539 231.076979 
L 377.505568 221.293255 
L 378.368597 214.387097 
L 379.231626 221.293255 
L 380.094655 232.803519 
L 380.957684 221.293255 
L 381.820713 242.01173 
L 382.683742 231.652493 
L 383.546771 227.6239 
L 384.4098 215.538123 
L 385.272829 216.113636 
L 386.998886 225.321848 
L 388.724944 206.329912 
L 389.587973 209.782991 
L 390.451002 230.501466 
L 391.314031 228.199413 
L 392.17706 217.264663 
L 393.040089 223.019795 
L 393.903118 199.423754 
L 394.766147 163.166422 
L 395.629176 199.423754 
L 397.355234 181.007331 
L 399.081292 214.96261 
L 399.944321 174.676686 
L 400.80735 191.366569 
L 401.670379 187.91349 
L 402.533408 159.713343 
L 403.396437 176.978739 
L 404.259465 208.056452 
L 405.122494 206.329912 
L 405.985523 169.497067 
L 406.848552 170.072581 
L 407.711581 186.762463 
L 408.57461 182.733871 
L 409.437639 195.395161 
L 410.300668 201.150293 
L 411.163697 210.358504 
L 412.026726 189.064516 
L 412.889755 160.288856 
L 413.752784 197.121701 
L 414.615813 190.215543 
L 415.478842 178.705279 
L 416.341871 181.582845 
L 417.2049 210.934018 
L 418.067929 181.582845 
L 418.930958 175.252199 
L 419.793987 193.093109 
L 420.657016 177.554252 
L 421.520045 173.52566 
L 422.383073 178.705279 
L 423.246102 208.056452 
L 424.109131 176.403226 
L 424.97216 190.215543 
L 425.835189 197.121701 
L 426.698218 195.395161 
L 427.561247 190.791056 
L 428.424276 193.668622 
L 429.287305 197.697214 
L 430.150334 193.093109 
L 431.013363 172.374633 
L 431.876392 186.18695 
L 432.739421 179.856305 
L 433.60245 142.447947 
L 434.465479 160.288856 
L 435.328508 159.13783 
L 436.191537 141.872434 
L 437.054566 164.892962 
L 438.780624 140.721408 
L 439.643653 140.145894 
L 440.506682 125.758065 
L 441.36971 158.562317 
L 442.232739 113.672287 
L 443.095768 143.02346 
L 443.958797 37.704545 
L 444.821826 104.464076 
L 445.684855 108.492669 
L 446.547884 142.447947 
L 447.410913 166.619501 
L 448.273942 146.47654 
L 450 214.387097 
L 450 214.387097 
" style="fill:none;stroke:#000000;stroke-dasharray:1.5,2.475;stroke-dashoffset:0;stroke-opacity:0.5;stroke-width:1.5;"/>
   </g>
   <g id="line2d_27">
    <path clip-path="url(#p17352f06df)" d="M 62.5 250.644428 
L 63.363029 251.219941 
L 65.089087 251.219941 
L 65.952116 250.644428 
L 66.815145 250.644428 
L 67.678174 250.068915 
L 68.541203 250.068915 
L 69.404232 249.493402 
L 71.13029 249.493402 
L 71.993318 250.068915 
L 73.719376 250.068915 
L 74.582405 249.493402 
L 76.308463 249.493402 
L 77.171492 248.917889 
L 78.034521 248.917889 
L 78.89755 249.493402 
L 79.760579 249.493402 
L 80.623608 250.644428 
L 82.349666 250.644428 
L 83.212695 251.219941 
L 85.801782 251.219941 
L 87.52784 250.068915 
L 88.390869 250.068915 
L 89.253898 249.493402 
L 90.979955 249.493402 
L 92.706013 250.644428 
L 94.432071 250.644428 
L 95.2951 251.219941 
L 96.158129 251.219941 
L 97.021158 250.644428 
L 99.610245 250.644428 
L 100.473274 251.219941 
L 103.062361 251.219941 
L 103.92539 250.644428 
L 107.377506 250.644428 
L 108.240535 251.219941 
L 109.966592 251.219941 
L 110.829621 250.644428 
L 118.596882 250.644428 
L 119.459911 250.068915 
L 121.185969 250.068915 
L 122.912027 248.917889 
L 123.775056 248.917889 
L 124.638085 246.615836 
L 126.364143 244.313783 
L 127.227171 243.73827 
L 129.816258 245.464809 
L 130.679287 247.766862 
L 131.542316 248.917889 
L 133.268374 248.917889 
L 134.131403 248.342375 
L 134.994432 247.191349 
L 136.72049 246.040323 
L 137.583519 246.040323 
L 138.446548 245.464809 
L 139.309577 245.464809 
L 141.035635 244.313783 
L 141.898664 244.313783 
L 142.761693 243.162757 
L 143.624722 242.587243 
L 144.487751 241.436217 
L 146.213808 240.285191 
L 147.076837 240.285191 
L 148.802895 239.134164 
L 149.665924 239.134164 
L 150.528953 237.407625 
L 151.391982 236.256598 
L 152.255011 234.530059 
L 153.981069 232.228006 
L 157.433185 232.228006 
L 158.296214 231.652493 
L 159.159243 229.35044 
L 160.885301 229.35044 
L 161.74833 228.774927 
L 162.611359 229.925953 
L 163.474388 228.774927 
L 164.337416 225.321848 
L 165.200445 224.170821 
L 166.926503 211.509531 
L 167.789532 210.934018 
L 168.652561 203.452346 
L 169.51559 200.57478 
L 170.378619 202.876833 
L 171.241648 199.999267 
L 172.104677 201.150293 
L 172.967706 204.027859 
L 173.830735 202.876833 
L 174.693764 206.329912 
L 175.556793 206.329912 
L 176.419822 204.027859 
L 177.282851 198.272727 
L 179.871938 185.035924 
L 180.734967 178.705279 
L 181.597996 176.403226 
L 182.461024 178.705279 
L 183.324053 186.762463 
L 184.187082 190.215543 
L 186.776169 204.603372 
L 187.639198 204.027859 
L 188.502227 201.725806 
L 189.365256 201.150293 
L 190.228285 201.725806 
L 191.091314 201.725806 
L 191.954343 204.603372 
L 192.817372 205.754399 
L 193.680401 209.207478 
L 194.54343 209.782991 
L 195.406459 210.934018 
L 196.269488 214.387097 
L 197.995546 215.538123 
L 198.858575 216.68915 
L 199.721604 217.264663 
L 200.584633 219.566716 
L 202.31069 223.019795 
L 203.173719 225.321848 
L 204.036748 226.472874 
L 204.899777 226.472874 
L 206.625835 224.170821 
L 207.488864 224.170821 
L 208.351893 223.595308 
L 209.214922 225.321848 
L 211.804009 228.774927 
L 212.667038 228.774927 
L 213.530067 228.199413 
L 214.393096 228.199413 
L 215.256125 229.35044 
L 216.119154 232.228006 
L 218.708241 232.228006 
L 219.571269 231.652493 
L 220.434298 230.501466 
L 221.297327 228.774927 
L 222.160356 228.774927 
L 223.023385 230.501466 
L 224.749443 228.199413 
L 226.475501 227.048387 
L 227.33853 228.199413 
L 228.201559 228.774927 
L 229.064588 228.199413 
L 229.927617 230.501466 
L 230.790646 230.501466 
L 231.653675 229.925953 
L 232.516704 227.048387 
L 233.379733 225.321848 
L 234.242762 224.746334 
L 235.105791 225.897361 
L 235.96882 224.746334 
L 236.831849 225.321848 
L 237.694878 226.472874 
L 238.557906 229.35044 
L 239.420935 231.076979 
L 241.146993 233.379032 
L 242.010022 235.105572 
L 244.599109 231.652493 
L 245.462138 231.076979 
L 247.188196 228.774927 
L 248.914254 228.774927 
L 249.777283 227.6239 
L 250.640312 225.321848 
L 251.503341 223.595308 
L 252.36637 222.444282 
L 254.092428 222.444282 
L 254.955457 223.019795 
L 256.681514 223.019795 
L 257.544543 223.595308 
L 258.407572 225.321848 
L 259.270601 223.595308 
L 260.13363 222.444282 
L 260.996659 221.868768 
L 262.722717 219.566716 
L 263.585746 217.840176 
L 264.448775 217.840176 
L 266.174833 218.991202 
L 267.037862 217.264663 
L 267.900891 217.264663 
L 268.76392 216.113636 
L 270.489978 218.415689 
L 271.353007 218.991202 
L 272.216036 220.717742 
L 273.942094 218.415689 
L 275.668151 212.660557 
L 276.53118 210.934018 
L 277.394209 211.509531 
L 278.257238 210.358504 
L 279.120267 212.660557 
L 279.983296 211.509531 
L 280.846325 212.085044 
L 282.572383 210.934018 
L 283.435412 209.207478 
L 284.298441 206.905425 
L 285.16147 205.178886 
L 286.024499 204.027859 
L 286.887528 203.452346 
L 287.750557 201.725806 
L 288.613586 202.30132 
L 289.476615 204.027859 
L 290.339644 203.452346 
L 291.202673 202.30132 
L 292.065702 199.999267 
L 292.928731 194.819648 
L 293.791759 194.244135 
L 294.654788 191.366569 
L 295.517817 187.337977 
L 297.243875 185.035924 
L 298.106904 184.460411 
L 299.832962 185.611437 
L 300.695991 186.762463 
L 301.55902 184.460411 
L 302.422049 182.733871 
L 303.285078 179.280792 
L 304.148107 182.158358 
L 305.011136 182.158358 
L 305.874165 181.582845 
L 306.737194 180.431818 
L 307.600223 180.431818 
L 308.463252 172.374633 
L 309.326281 170.648094 
L 310.18931 169.497067 
L 311.052339 172.950147 
L 311.915367 174.676686 
L 312.778396 180.431818 
L 313.641425 179.280792 
L 314.504454 179.856305 
L 316.230512 163.166422 
L 317.093541 162.590909 
L 318.819599 173.52566 
L 319.682628 176.978739 
L 320.545657 177.554252 
L 321.408686 176.403226 
L 322.271715 172.950147 
L 323.134744 170.648094 
L 323.997773 168.921554 
L 324.860802 166.619501 
L 325.723831 166.619501 
L 326.58686 168.346041 
L 327.449889 170.648094 
L 329.175947 177.554252 
L 330.038976 183.884897 
L 330.902004 191.366569 
L 331.765033 202.30132 
L 332.628062 205.754399 
L 335.217149 212.660557 
L 336.080178 213.23607 
L 337.806236 217.840176 
L 338.669265 218.415689 
L 340.395323 220.717742 
L 341.258352 222.444282 
L 342.121381 225.897361 
L 342.98441 227.6239 
L 344.710468 228.774927 
L 345.573497 228.199413 
L 346.436526 228.199413 
L 347.299555 227.6239 
L 348.162584 228.199413 
L 349.025612 230.501466 
L 349.888641 233.379032 
L 350.75167 235.105572 
L 351.614699 235.681085 
L 353.340757 235.681085 
L 355.066815 236.832111 
L 355.929844 237.983138 
L 356.792873 237.407625 
L 358.518931 238.558651 
L 359.38196 238.558651 
L 361.108018 237.407625 
L 361.971047 237.407625 
L 362.834076 236.832111 
L 363.697105 236.832111 
L 364.560134 236.256598 
L 365.423163 236.256598 
L 366.286192 237.983138 
L 367.14922 238.558651 
L 368.012249 239.709677 
L 368.875278 237.983138 
L 369.738307 234.530059 
L 371.464365 231.076979 
L 372.327394 228.774927 
L 373.190423 227.6239 
L 374.053452 227.6239 
L 374.916481 228.199413 
L 375.77951 227.6239 
L 376.642539 225.321848 
L 377.505568 224.746334 
L 378.368597 223.595308 
L 379.231626 225.321848 
L 380.094655 226.472874 
L 380.957684 228.199413 
L 381.820713 228.774927 
L 382.683742 227.6239 
L 383.546771 225.321848 
L 384.4098 224.746334 
L 385.272829 221.293255 
L 386.135857 218.415689 
L 386.998886 216.113636 
L 388.724944 218.415689 
L 389.587973 218.415689 
L 390.451002 218.991202 
L 391.314031 217.840176 
L 392.17706 212.660557 
L 393.040089 208.631965 
L 394.766147 194.819648 
L 395.629176 191.366569 
L 396.492205 190.791056 
L 397.355234 189.640029 
L 398.218263 193.093109 
L 399.081292 191.942082 
L 399.944321 188.489003 
L 400.80735 186.18695 
L 402.533408 185.035924 
L 403.396437 185.611437 
L 404.259465 184.460411 
L 405.122494 184.460411 
L 405.985523 185.611437 
L 406.848552 186.18695 
L 407.711581 185.611437 
L 408.57461 187.91349 
L 409.437639 191.942082 
L 410.300668 191.366569 
L 411.163697 191.942082 
L 412.026726 191.366569 
L 412.889755 188.489003 
L 413.752784 186.18695 
L 414.615813 186.18695 
L 415.478842 186.762463 
L 416.341871 187.91349 
L 417.2049 187.337977 
L 418.930958 185.035924 
L 419.793987 183.309384 
L 420.657016 182.733871 
L 421.520045 183.309384 
L 422.383073 185.035924 
L 423.246102 186.18695 
L 424.109131 189.064516 
L 424.97216 191.366569 
L 425.835189 192.517595 
L 426.698218 191.942082 
L 427.561247 194.244135 
L 428.424276 191.942082 
L 429.287305 190.215543 
L 430.150334 187.91349 
L 431.013363 181.582845 
L 431.876392 176.403226 
L 433.60245 163.166422 
L 434.465479 160.288856 
L 435.328508 156.260264 
L 436.191537 152.807185 
L 437.054566 151.656158 
L 437.917595 147.052053 
L 438.780624 145.901026 
L 439.643653 141.872434 
L 440.506682 138.419355 
L 441.36971 126.333578 
L 443.095768 111.945748 
L 443.958797 110.794721 
L 444.821826 112.521261 
L 445.684855 119.427419 
L 446.547884 129.211144 
L 447.410913 151.656158 
L 449.136971 172.950147 
L 450 180.431818 
L 450 180.431818 
" style="fill:none;stroke:#b3220f;stroke-linecap:square;stroke-width:1.5;"/>
   </g>
   <g id="patch_3">
    <path d="M 62.5 262.5 
L 62.5 27 
" style="fill:none;stroke:#555555;stroke-linecap:square;stroke-linejoin:miter;"/>
   </g>
   <g id="patch_4">
    <path d="M 62.5 262.5 
L 450 262.5 
" style="fill:none;stroke:#555555;stroke-linecap:square;stroke-linejoin:miter;"/>
   </g>
   <g id="text_15">
    <!-- Chapinero | Casos nuevos: 2021-06-09 -->
    <g style="fill:#555555;" transform="translate(133.707344 17)scale(0.14 -0.14)">
     <defs>
      <path d="M 58 49.90625 
L 67.5 49.90625 
Q 66.703125 55.59375 64.09375 59.9375 
Q 61.5 64.296875 57.59375 67.1875 
Q 53.703125 70.09375 48.703125 71.59375 
Q 43.703125 73.09375 38.09375 73.09375 
Q 29.90625 73.09375 23.546875 70.140625 
Q 17.203125 67.203125 12.953125 62.09375 
Q 8.703125 57 6.5 50.140625 
Q 4.296875 43.296875 4.296875 35.5 
Q 4.296875 27.703125 6.34375 20.890625 
Q 8.40625 14.09375 12.5 9.09375 
Q 16.59375 4.09375 22.796875 1.25 
Q 29 -1.59375 37.296875 -1.59375 
Q 51 -1.59375 58.890625 5.90625 
Q 66.796875 13.40625 68.203125 26.90625 
L 58.703125 26.90625 
Q 58.40625 22.5 56.90625 18.703125 
Q 55.40625 14.90625 52.75 12.15625 
Q 50.09375 9.40625 46.4375 7.84375 
Q 42.796875 6.296875 38.09375 6.296875 
Q 31.703125 6.296875 27.09375 8.6875 
Q 22.5 11.09375 19.546875 15.140625 
Q 16.59375 19.203125 15.1875 24.640625 
Q 13.796875 30.09375 13.796875 36.203125 
Q 13.796875 41.796875 15.1875 47 
Q 16.59375 52.203125 19.546875 56.25 
Q 22.5 60.296875 27.046875 62.6875 
Q 31.59375 65.09375 38 65.09375 
Q 45.5 65.09375 50.953125 61.296875 
Q 56.40625 57.5 58 49.90625 
z
" id="HelveticaNeue-67"/>
      <path d="M 15.40625 61 
L 15.40625 71.40625 
L 6.90625 71.40625 
L 6.90625 61 
z
M 6.90625 51.703125 
L 6.90625 0 
L 15.40625 0 
L 15.40625 51.703125 
z
" id="HelveticaNeue-105"/>
      <path d="M 12.59375 25.796875 
Q 12.59375 30.5 13.84375 34.140625 
Q 15.09375 37.796875 17.296875 40.296875 
Q 19.5 42.796875 22.453125 44.09375 
Q 25.40625 45.40625 28.703125 45.40625 
Q 32 45.40625 34.953125 44.09375 
Q 37.90625 42.796875 40.09375 40.296875 
Q 42.296875 37.796875 43.546875 34.140625 
Q 44.796875 30.5 44.796875 25.796875 
Q 44.796875 21.09375 43.546875 17.4375 
Q 42.296875 13.796875 40.09375 11.34375 
Q 37.90625 8.90625 34.953125 7.59375 
Q 32 6.296875 28.703125 6.296875 
Q 25.40625 6.296875 22.453125 7.59375 
Q 19.5 8.90625 17.296875 11.34375 
Q 15.09375 13.796875 13.84375 17.4375 
Q 12.59375 21.09375 12.59375 25.796875 
z
M 3.59375 25.796875 
Q 3.59375 20.09375 5.1875 15.1875 
Q 6.796875 10.296875 10 6.640625 
Q 13.203125 3 17.890625 0.953125 
Q 22.59375 -1.09375 28.703125 -1.09375 
Q 34.90625 -1.09375 39.546875 0.953125 
Q 44.203125 3 47.390625 6.640625 
Q 50.59375 10.296875 52.1875 15.1875 
Q 53.796875 20.09375 53.796875 25.796875 
Q 53.796875 31.5 52.1875 36.453125 
Q 50.59375 41.40625 47.390625 45.046875 
Q 44.203125 48.703125 39.546875 50.796875 
Q 34.90625 52.90625 28.703125 52.90625 
Q 22.59375 52.90625 17.890625 50.796875 
Q 13.203125 48.703125 10 45.046875 
Q 6.796875 41.40625 5.1875 36.453125 
Q 3.59375 31.5 3.59375 25.796875 
z
" id="HelveticaNeue-111"/>
      <path id="HelveticaNeue-32"/>
      <path d="M 7.703125 78.59375 
L 7.703125 -21.296875 
L 14.5 -21.296875 
L 14.5 78.59375 
z
" id="HelveticaNeue-124"/>
      <path d="M 11.59375 16.296875 
L 3.09375 16.296875 
Q 3.296875 11.5 5.09375 8.140625 
Q 6.90625 4.796875 9.90625 2.75 
Q 12.90625 0.703125 16.796875 -0.1875 
Q 20.703125 -1.09375 25 -1.09375 
Q 28.90625 -1.09375 32.84375 -0.34375 
Q 36.796875 0.40625 39.9375 2.296875 
Q 43.09375 4.203125 45.046875 7.296875 
Q 47 10.40625 47 15.09375 
Q 47 18.796875 45.546875 21.296875 
Q 44.09375 23.796875 41.75 25.4375 
Q 39.40625 27.09375 36.34375 28.09375 
Q 33.296875 29.09375 30.09375 29.796875 
Q 27.09375 30.5 24.09375 31.140625 
Q 21.09375 31.796875 18.6875 32.75 
Q 16.296875 33.703125 14.75 35.140625 
Q 13.203125 36.59375 13.203125 38.796875 
Q 13.203125 40.796875 14.203125 42.046875 
Q 15.203125 43.296875 16.796875 44.046875 
Q 18.40625 44.796875 20.34375 45.09375 
Q 22.296875 45.40625 24.203125 45.40625 
Q 26.296875 45.40625 28.34375 44.953125 
Q 30.40625 44.5 32.09375 43.5 
Q 33.796875 42.5 34.890625 40.84375 
Q 36 39.203125 36.203125 36.703125 
L 44.703125 36.703125 
Q 44.40625 41.40625 42.703125 44.546875 
Q 41 47.703125 38.140625 49.546875 
Q 35.296875 51.40625 31.59375 52.15625 
Q 27.90625 52.90625 23.5 52.90625 
Q 20.09375 52.90625 16.640625 52.046875 
Q 13.203125 51.203125 10.453125 49.453125 
Q 7.703125 47.703125 5.953125 44.890625 
Q 4.203125 42.09375 4.203125 38.203125 
Q 4.203125 33.203125 6.703125 30.390625 
Q 9.203125 27.59375 12.953125 26.046875 
Q 16.703125 24.5 21.09375 23.640625 
Q 25.5 22.796875 29.25 21.75 
Q 33 20.703125 35.5 19 
Q 38 17.296875 38 14 
Q 38 11.59375 36.796875 10.046875 
Q 35.59375 8.5 33.75 7.703125 
Q 31.90625 6.90625 29.703125 6.59375 
Q 27.5 6.296875 25.5 6.296875 
Q 22.90625 6.296875 20.453125 6.796875 
Q 18 7.296875 16.046875 8.4375 
Q 14.09375 9.59375 12.890625 11.546875 
Q 11.703125 13.5 11.59375 16.296875 
z
" id="HelveticaNeue-115"/>
      <path d="M 29.703125 0 
L 48.59375 51.703125 
L 39.703125 51.703125 
L 25.59375 8.59375 
L 25.40625 8.59375 
L 10.90625 51.703125 
L 1.40625 51.703125 
L 20.59375 0 
z
" id="HelveticaNeue-118"/>
      <path d="M 19.40625 40.59375 
L 19.40625 51.703125 
L 8.296875 51.703125 
L 8.296875 40.59375 
z
M 8.296875 11.09375 
L 8.296875 0 
L 19.40625 0 
L 19.40625 11.09375 
z
" id="HelveticaNeue-58"/>
      <path d="M 5 31.796875 
L 5 23.796875 
L 33.90625 23.796875 
L 33.90625 31.796875 
z
" id="HelveticaNeue-45"/>
      <path d="M 41.40625 52.796875 
L 49.90625 52.796875 
Q 49.09375 61.59375 43.890625 66.25 
Q 38.703125 70.90625 29.90625 70.90625 
Q 22.296875 70.90625 17.296875 67.703125 
Q 12.296875 64.5 9.296875 59.203125 
Q 6.296875 53.90625 5.046875 47.046875 
Q 3.796875 40.203125 3.796875 32.90625 
Q 3.796875 27.296875 4.640625 21.296875 
Q 5.5 15.296875 8.09375 10.296875 
Q 10.703125 5.296875 15.5 2.09375 
Q 20.296875 -1.09375 28.203125 -1.09375 
Q 34.90625 -1.09375 39.453125 1.15625 
Q 44 3.40625 46.75 6.84375 
Q 49.5 10.296875 50.703125 14.5 
Q 51.90625 18.703125 51.90625 22.59375 
Q 51.90625 27.5 50.40625 31.703125 
Q 48.90625 35.90625 46.15625 39 
Q 43.40625 42.09375 39.34375 43.84375 
Q 35.296875 45.59375 30.203125 45.59375 
Q 24.40625 45.59375 19.953125 43.390625 
Q 15.5 41.203125 12.5 36.296875 
L 12.296875 36.5 
Q 12.40625 40.59375 13.09375 45.296875 
Q 13.796875 50 15.640625 54.046875 
Q 17.5 58.09375 20.796875 60.75 
Q 24.09375 63.40625 29.5 63.40625 
Q 34.59375 63.40625 37.6875 60.5 
Q 40.796875 57.59375 41.40625 52.796875 
z
M 28.59375 38.09375 
Q 32.203125 38.09375 34.890625 36.796875 
Q 37.59375 35.5 39.390625 33.34375 
Q 41.203125 31.203125 42.046875 28.25 
Q 42.90625 25.296875 42.90625 22 
Q 42.90625 18.90625 41.953125 16.046875 
Q 41 13.203125 39.203125 11 
Q 37.40625 8.796875 34.75 7.546875 
Q 32.09375 6.296875 28.59375 6.296875 
Q 25.09375 6.296875 22.34375 7.546875 
Q 19.59375 8.796875 17.75 10.890625 
Q 15.90625 13 14.90625 15.890625 
Q 13.90625 18.796875 13.90625 22.09375 
Q 13.90625 25.40625 14.84375 28.34375 
Q 15.796875 31.296875 17.6875 33.4375 
Q 19.59375 35.59375 22.296875 36.84375 
Q 25 38.09375 28.59375 38.09375 
z
" id="HelveticaNeue-54"/>
      <path d="M 13.40625 17.09375 
L 4.90625 17.09375 
Q 5.703125 7.90625 11.59375 3.40625 
Q 17.5 -1.09375 26.40625 -1.09375 
Q 39.296875 -1.09375 45.140625 8.75 
Q 51 18.59375 51 37 
Q 51 47.09375 49.046875 53.640625 
Q 47.09375 60.203125 43.796875 64 
Q 40.5 67.796875 36.09375 69.34375 
Q 31.703125 70.90625 26.703125 70.90625 
Q 21.59375 70.90625 17.296875 69.203125 
Q 13 67.5 9.890625 64.453125 
Q 6.796875 61.40625 5.09375 57.15625 
Q 3.40625 52.90625 3.40625 47.796875 
Q 3.40625 42.59375 4.84375 38.1875 
Q 6.296875 33.796875 9.140625 30.6875 
Q 12 27.59375 16.203125 25.84375 
Q 20.40625 24.09375 25.796875 24.09375 
Q 31 24.09375 35.390625 26.75 
Q 39.796875 29.40625 42.203125 33.90625 
L 42.40625 33.703125 
Q 42 19.796875 38.09375 13.046875 
Q 34.203125 6.296875 26.40625 6.296875 
Q 21.296875 6.296875 17.59375 9.09375 
Q 13.90625 11.90625 13.40625 17.09375 
z
M 40.90625 47.203125 
Q 40.90625 44.09375 39.90625 41.25 
Q 38.90625 38.40625 37 36.25 
Q 35.09375 34.09375 32.390625 32.84375 
Q 29.703125 31.59375 26.40625 31.59375 
Q 23.296875 31.59375 20.75 32.84375 
Q 18.203125 34.09375 16.34375 36.1875 
Q 14.5 38.296875 13.453125 41 
Q 12.40625 43.703125 12.40625 46.59375 
Q 12.40625 49.90625 13.15625 52.90625 
Q 13.90625 55.90625 15.546875 58.25 
Q 17.203125 60.59375 19.84375 62 
Q 22.5 63.40625 26.296875 63.40625 
Q 29.90625 63.40625 32.59375 62.09375 
Q 35.296875 60.796875 37.140625 58.546875 
Q 39 56.296875 39.953125 53.390625 
Q 40.90625 50.5 40.90625 47.203125 
z
" id="HelveticaNeue-57"/>
     </defs>
     <use xlink:href="#HelveticaNeue-67"/>
     <use x="72.199982" xlink:href="#HelveticaNeue-104"/>
     <use x="127.799973" xlink:href="#HelveticaNeue-97"/>
     <use x="181.499969" xlink:href="#HelveticaNeue-112"/>
     <use x="240.799957" xlink:href="#HelveticaNeue-105"/>
     <use x="262.999954" xlink:href="#HelveticaNeue-110"/>
     <use x="318.599945" xlink:href="#HelveticaNeue-101"/>
     <use x="372.299942" xlink:href="#HelveticaNeue-114"/>
     <use x="403.84993" xlink:href="#HelveticaNeue-111"/>
     <use x="461.249924" xlink:href="#HelveticaNeue-32"/>
     <use x="489.049911" xlink:href="#HelveticaNeue-124"/>
     <use x="511.249908" xlink:href="#HelveticaNeue-32"/>
     <use x="539.049896" xlink:href="#HelveticaNeue-67"/>
     <use x="611.249878" xlink:href="#HelveticaNeue-97"/>
     <use x="664.949875" xlink:href="#HelveticaNeue-115"/>
     <use x="714.94986" xlink:href="#HelveticaNeue-111"/>
     <use x="772.349854" xlink:href="#HelveticaNeue-115"/>
     <use x="822.349838" xlink:href="#HelveticaNeue-32"/>
     <use x="850.149826" xlink:href="#HelveticaNeue-110"/>
     <use x="905.749817" xlink:href="#HelveticaNeue-117"/>
     <use x="961.349808" xlink:href="#HelveticaNeue-101"/>
     <use x="1015.049805" xlink:href="#HelveticaNeue-118"/>
     <use x="1065.049789" xlink:href="#HelveticaNeue-111"/>
     <use x="1122.449783" xlink:href="#HelveticaNeue-115"/>
     <use x="1172.449768" xlink:href="#HelveticaNeue-58"/>
     <use x="1200.249756" xlink:href="#HelveticaNeue-32"/>
     <use x="1228.049744" xlink:href="#HelveticaNeue-50"/>
     <use x="1283.649734" xlink:href="#HelveticaNeue-48"/>
     <use x="1339.249725" xlink:href="#HelveticaNeue-50"/>
     <use x="1394.849716" xlink:href="#HelveticaNeue-49"/>
     <use x="1450.449707" xlink:href="#HelveticaNeue-45"/>
     <use x="1489.349701" xlink:href="#HelveticaNeue-48"/>
     <use x="1544.949692" xlink:href="#HelveticaNeue-54"/>
     <use x="1600.549683" xlink:href="#HelveticaNeue-45"/>
     <use x="1639.449677" xlink:href="#HelveticaNeue-48"/>
     <use x="1695.049667" xlink:href="#HelveticaNeue-57"/>
    </g>
   </g>
   <g id="legend_1">
    <g id="line2d_28">
     <path d="M 71.5 39.640625 
L 91.5 39.640625 
" style="fill:none;stroke:#000000;stroke-dasharray:1.5,2.475;stroke-dashoffset:0;stroke-opacity:0.5;stroke-width:1.5;"/>
    </g>
    <g id="line2d_29"/>
    <g id="text_16">
     <!-- Actual -->
     <g style="fill:#555555;" transform="translate(99.5 43.140625)scale(0.1 -0.1)">
      <use xlink:href="#HelveticaNeue-65"/>
      <use x="64.799988" xlink:href="#HelveticaNeue-99"/>
      <use x="118.499985" xlink:href="#HelveticaNeue-116"/>
      <use x="149.999969" xlink:href="#HelveticaNeue-117"/>
      <use x="205.59996" xlink:href="#HelveticaNeue-97"/>
      <use x="259.299957" xlink:href="#HelveticaNeue-108"/>
     </g>
    </g>
    <g id="line2d_30">
     <path d="M 71.5 54.310937 
L 91.5 54.310937 
" style="fill:none;stroke:#b3220f;stroke-linecap:square;stroke-width:1.5;"/>
    </g>
    <g id="line2d_31"/>
    <g id="text_17">
     <!-- Promedio semanal (7 das)  -->
     <g style="fill:#555555;" transform="translate(99.5 57.810937)scale(0.1 -0.1)">
      <defs>
       <path d="M 17.296875 37.203125 
L 17.296875 63.40625 
L 35.90625 63.40625 
Q 44 63.40625 47.75 60.046875 
Q 51.5 56.703125 51.5 50.296875 
Q 51.5 43.90625 47.75 40.5 
Q 44 37.09375 35.90625 37.203125 
z
M 7.796875 71.40625 
L 7.796875 0 
L 17.296875 0 
L 17.296875 29.203125 
L 39.09375 29.203125 
Q 49.90625 29.09375 55.453125 34.6875 
Q 61 40.296875 61 50.296875 
Q 61 60.296875 55.453125 65.84375 
Q 49.90625 71.40625 39.09375 71.40625 
z
" id="HelveticaNeue-80"/>
       <path d="M 6.40625 51.703125 
L 6.40625 0 
L 14.90625 0 
L 14.90625 32.203125 
Q 14.90625 33.703125 15.65625 35.953125 
Q 16.40625 38.203125 18.046875 40.296875 
Q 19.703125 42.40625 22.34375 43.90625 
Q 25 45.40625 28.703125 45.40625 
Q 31.59375 45.40625 33.4375 44.546875 
Q 35.296875 43.703125 36.390625 42.140625 
Q 37.5 40.59375 37.953125 38.5 
Q 38.40625 36.40625 38.40625 33.90625 
L 38.40625 0 
L 46.90625 0 
L 46.90625 32.203125 
Q 46.90625 38.203125 50.5 41.796875 
Q 54.09375 45.40625 60.40625 45.40625 
Q 63.5 45.40625 65.453125 44.5 
Q 67.40625 43.59375 68.5 42.046875 
Q 69.59375 40.5 70 38.390625 
Q 70.40625 36.296875 70.40625 33.90625 
L 70.40625 0 
L 78.90625 0 
L 78.90625 37.90625 
Q 78.90625 41.90625 77.65625 44.75 
Q 76.40625 47.59375 74.15625 49.390625 
Q 71.90625 51.203125 68.75 52.046875 
Q 65.59375 52.90625 61.703125 52.90625 
Q 56.59375 52.90625 52.34375 50.59375 
Q 48.09375 48.296875 45.5 44.09375 
Q 43.90625 48.90625 40 50.90625 
Q 36.09375 52.90625 31.296875 52.90625 
Q 20.40625 52.90625 14.59375 44.09375 
L 14.40625 44.09375 
L 14.40625 51.703125 
z
" id="HelveticaNeue-109"/>
       <path d="M 12.59375 25.40625 
Q 12.59375 29.203125 13.390625 32.796875 
Q 14.203125 36.40625 16 39.203125 
Q 17.796875 42 20.796875 43.703125 
Q 23.796875 45.40625 28.09375 45.40625 
Q 32.5 45.40625 35.59375 43.75 
Q 38.703125 42.09375 40.640625 39.390625 
Q 42.59375 36.703125 43.5 33.140625 
Q 44.40625 29.59375 44.40625 25.796875 
Q 44.40625 22.203125 43.546875 18.703125 
Q 42.703125 15.203125 40.796875 12.453125 
Q 38.90625 9.703125 35.90625 8 
Q 32.90625 6.296875 28.59375 6.296875 
Q 24.5 6.296875 21.453125 7.890625 
Q 18.40625 9.5 16.453125 12.203125 
Q 14.5 14.90625 13.546875 18.34375 
Q 12.59375 21.796875 12.59375 25.40625 
z
M 52.59375 0 
L 52.59375 71.40625 
L 44.09375 71.40625 
L 44.09375 44.796875 
L 43.90625 44.796875 
Q 42.5 47.09375 40.453125 48.640625 
Q 38.40625 50.203125 36.09375 51.140625 
Q 33.796875 52.09375 31.5 52.5 
Q 29.203125 52.90625 27.203125 52.90625 
Q 21.296875 52.90625 16.84375 50.75 
Q 12.40625 48.59375 9.453125 44.9375 
Q 6.5 41.296875 5.046875 36.390625 
Q 3.59375 31.5 3.59375 26 
Q 3.59375 20.5 5.09375 15.59375 
Q 6.59375 10.703125 9.546875 7 
Q 12.5 3.296875 16.953125 1.09375 
Q 21.40625 -1.09375 27.40625 -1.09375 
Q 32.796875 -1.09375 37.296875 0.796875 
Q 41.796875 2.703125 43.90625 7 
L 44.09375 7 
L 44.09375 0 
z
" id="HelveticaNeue-100"/>
       <path d="M 20.40625 -19.703125 
L 26.90625 -19.703125 
Q 19.796875 -8.203125 16.75 3.09375 
Q 13.703125 14.40625 13.703125 27 
Q 13.703125 39.296875 16.703125 50.5 
Q 19.703125 61.703125 26.90625 73.09375 
L 20.40625 73.09375 
Q 12.59375 62.796875 8.640625 50.796875 
Q 4.703125 38.796875 4.703125 27 
Q 4.703125 20.40625 5.796875 14.40625 
Q 6.90625 8.40625 8.953125 2.703125 
Q 11 -3 13.890625 -8.546875 
Q 16.796875 -14.09375 20.40625 -19.703125 
z
" id="HelveticaNeue-40"/>
       <path d="M 50.90625 62.40625 
L 50.90625 69.703125 
L 5 69.703125 
L 5 61.703125 
L 42.203125 61.703125 
Q 36.59375 55.796875 31.75 48.796875 
Q 26.90625 41.796875 23.203125 33.9375 
Q 19.5 26.09375 17.140625 17.546875 
Q 14.796875 9 14.203125 0 
L 23.703125 0 
Q 24.203125 8.296875 26.5 17.09375 
Q 28.796875 25.90625 32.4375 34.203125 
Q 36.09375 42.5 40.796875 49.796875 
Q 45.5 57.09375 50.90625 62.40625 
z
" id="HelveticaNeue-55"/>
       <path d="M 6.90625 0 
L 15.40625 0 
L 15.40625 51.703125 
L 6.90625 51.703125 
z
M 25.5 77 
L 11.40625 60.796875 
L 5 60.796875 
L 14.59375 77 
z
" id="HelveticaNeue-237"/>
       <path d="M -0.90625 -19.703125 
L 5.5 -19.703125 
Q 13.296875 -9.40625 17.25 2.546875 
Q 21.203125 14.5 21.203125 26.296875 
Q 21.203125 32.90625 20.09375 38.90625 
Q 19 44.90625 16.953125 50.65625 
Q 14.90625 56.40625 12 61.953125 
Q 9.09375 67.5 5.5 73.09375 
L -0.90625 73.09375 
Q 6.09375 61.59375 9.140625 50.25 
Q 12.203125 38.90625 12.203125 26.296875 
Q 12.203125 14.09375 9.203125 2.84375 
Q 6.203125 -8.40625 -0.90625 -19.703125 
z
" id="HelveticaNeue-41"/>
      </defs>
      <use xlink:href="#HelveticaNeue-80"/>
      <use x="64.799988" xlink:href="#HelveticaNeue-114"/>
      <use x="96.349976" xlink:href="#HelveticaNeue-111"/>
      <use x="153.749969" xlink:href="#HelveticaNeue-109"/>
      <use x="239.049957" xlink:href="#HelveticaNeue-101"/>
      <use x="292.749954" xlink:href="#HelveticaNeue-100"/>
      <use x="352.049942" xlink:href="#HelveticaNeue-105"/>
      <use x="374.249939" xlink:href="#HelveticaNeue-111"/>
      <use x="431.649933" xlink:href="#HelveticaNeue-32"/>
      <use x="459.449921" xlink:href="#HelveticaNeue-115"/>
      <use x="509.449905" xlink:href="#HelveticaNeue-101"/>
      <use x="563.149902" xlink:href="#HelveticaNeue-109"/>
      <use x="648.44989" xlink:href="#HelveticaNeue-97"/>
      <use x="702.149887" xlink:href="#HelveticaNeue-110"/>
      <use x="757.749878" xlink:href="#HelveticaNeue-97"/>
      <use x="811.449875" xlink:href="#HelveticaNeue-108"/>
      <use x="833.649872" xlink:href="#HelveticaNeue-32"/>
      <use x="861.44986" xlink:href="#HelveticaNeue-40"/>
      <use x="887.349854" xlink:href="#HelveticaNeue-55"/>
      <use x="942.949844" xlink:href="#HelveticaNeue-32"/>
      <use x="970.749832" xlink:href="#HelveticaNeue-100"/>
      <use x="1030.04982" xlink:href="#HelveticaNeue-237"/>
      <use x="1052.249817" xlink:href="#HelveticaNeue-97"/>
      <use x="1105.949814" xlink:href="#HelveticaNeue-115"/>
      <use x="1155.949799" xlink:href="#HelveticaNeue-41"/>
      <use x="1181.849792" xlink:href="#HelveticaNeue-32"/>
     </g>
    </g>
   </g>
  </g>
 </g>
 <defs>
  <clipPath id="p17352f06df">
   <rect height="235.5" width="387.5" x="62.5" y="27"/>
  </clipPath>
 </defs>
</svg>
