<?xml version="1.0" encoding="utf-8" standalone="no"?>
<!DOCTYPE svg PUBLIC "-//W3C//DTD SVG 1.1//EN"
  "http://www.w3.org/Graphics/SVG/1.1/DTD/svg11.dtd">
<!-- Created with matplotlib (https://matplotlib.org/) -->
<svg height="300pt" version="1.1" viewBox="0 0 500 300" width="500pt" xmlns="http://www.w3.org/2000/svg" xmlns:xlink="http://www.w3.org/1999/xlink">
 <metadata>
  <rdf:RDF xmlns:cc="http://creativecommons.org/ns#" xmlns:dc="http://purl.org/dc/elements/1.1/" xmlns:rdf="http://www.w3.org/1999/02/22-rdf-syntax-ns#">
   <cc:Work>
    <dc:type rdf:resource="http://purl.org/dc/dcmitype/StillImage"/>
    <dc:date>2021-06-24T21:52:38.339429</dc:date>
    <dc:format>image/svg+xml</dc:format>
    <dc:creator>
     <cc:Agent>
      <dc:title>Matplotlib v3.3.4, https://matplotlib.org/</dc:title>
     </cc:Agent>
    </dc:creator>
   </cc:Work>
  </rdf:RDF>
 </metadata>
 <defs>
  <style type="text/css">*{stroke-linecap:butt;stroke-linejoin:round;}</style>
 </defs>
 <g id="figure_1">
  <g id="patch_1">
   <path d="M 0 300 
L 500 300 
L 500 0 
L 0 0 
z
" style="fill:#ffffff;"/>
  </g>
  <g id="axes_1">
   <g id="patch_2">
    <path d="M 62.5 262.5 
L 450 262.5 
L 450 27 
L 62.5 27 
z
" style="fill:#ffffff;"/>
   </g>
   <g id="matplotlib.axis_1">
    <g id="xtick_1">
     <g id="line2d_1">
      <defs>
       <path d="M 0 0 
L 0 3.5 
" id="m7f823d8962" style="stroke:#555555;stroke-width:0.8;"/>
      </defs>
      <g>
       <use style="fill:#555555;stroke:#555555;stroke-width:0.8;" x="62.5" xlink:href="#m7f823d8962" y="262.5"/>
      </g>
     </g>
    </g>
    <g id="xtick_2">
     <g id="line2d_2">
      <g>
       <use style="fill:#555555;stroke:#555555;stroke-width:0.8;" x="140.695067" xlink:href="#m7f823d8962" y="262.5"/>
      </g>
     </g>
     <g id="text_1">
      <!-- Jul -->
      <g style="fill:#555555;" transform="translate(134.209911 276.640625)scale(0.1 -0.1)">
       <defs>
        <path d="M 44.09375 17.796875 
L 44.09375 71.40625 
L 34.59375 71.40625 
L 34.59375 19.203125 
Q 34.59375 13.296875 32.140625 9.796875 
Q 29.703125 6.296875 23.203125 6.296875 
Q 19.703125 6.296875 17.453125 7.34375 
Q 15.203125 8.40625 13.953125 10.296875 
Q 12.703125 12.203125 12.203125 14.796875 
Q 11.703125 17.40625 11.703125 20.5 
L 11.703125 23.5 
L 2.203125 23.5 
L 2.203125 19.09375 
Q 2.203125 8.90625 7.59375 3.65625 
Q 13 -1.59375 23 -1.59375 
Q 29 -1.59375 33.046875 0.046875 
Q 37.09375 1.703125 39.546875 4.453125 
Q 42 7.203125 43.046875 10.703125 
Q 44.09375 14.203125 44.09375 17.796875 
z
" id="HelveticaNeue-74"/>
        <path d="M 49.203125 0 
L 49.203125 51.703125 
L 40.703125 51.703125 
L 40.703125 22.5 
Q 40.703125 19 39.75 16.046875 
Q 38.796875 13.09375 36.890625 10.890625 
Q 35 8.703125 32.140625 7.5 
Q 29.296875 6.296875 25.40625 6.296875 
Q 20.5 6.296875 17.703125 9.09375 
Q 14.90625 11.90625 14.90625 16.703125 
L 14.90625 51.703125 
L 6.40625 51.703125 
L 6.40625 17.703125 
Q 6.40625 13.5 7.25 10.046875 
Q 8.09375 6.59375 10.1875 4.09375 
Q 12.296875 1.59375 15.6875 0.25 
Q 19.09375 -1.09375 24.203125 -1.09375 
Q 29.90625 -1.09375 34.09375 1.15625 
Q 38.296875 3.40625 41 8.203125 
L 41.203125 8.203125 
L 41.203125 0 
z
" id="HelveticaNeue-117"/>
        <path d="M 6.90625 71.40625 
L 6.90625 0 
L 15.40625 0 
L 15.40625 71.40625 
z
" id="HelveticaNeue-108"/>
       </defs>
       <use xlink:href="#HelveticaNeue-74"/>
       <use x="51.899994" xlink:href="#HelveticaNeue-117"/>
       <use x="107.499985" xlink:href="#HelveticaNeue-108"/>
      </g>
     </g>
    </g>
    <g id="xtick_3">
     <g id="line2d_3">
      <g>
       <use style="fill:#555555;stroke:#555555;stroke-width:0.8;" x="220.627803" xlink:href="#m7f823d8962" y="262.5"/>
      </g>
     </g>
     <g id="text_2">
      <!-- Oct -->
      <g style="fill:#555555;" transform="translate(212.567646 276.640625)scale(0.1 -0.1)">
       <defs>
        <path d="M 13.296875 35.703125 
Q 13.296875 41.09375 14.6875 46.34375 
Q 16.09375 51.59375 19.09375 55.796875 
Q 22.09375 60 26.796875 62.546875 
Q 31.5 65.09375 38 65.09375 
Q 44.5 65.09375 49.203125 62.546875 
Q 53.90625 60 56.90625 55.796875 
Q 59.90625 51.59375 61.296875 46.34375 
Q 62.703125 41.09375 62.703125 35.703125 
Q 62.703125 30.296875 61.296875 25.046875 
Q 59.90625 19.796875 56.90625 15.59375 
Q 53.90625 11.40625 49.203125 8.84375 
Q 44.5 6.296875 38 6.296875 
Q 31.5 6.296875 26.796875 8.84375 
Q 22.09375 11.40625 19.09375 15.59375 
Q 16.09375 19.796875 14.6875 25.046875 
Q 13.296875 30.296875 13.296875 35.703125 
z
M 3.796875 35.703125 
Q 3.796875 28.40625 5.9375 21.65625 
Q 8.09375 14.90625 12.390625 9.703125 
Q 16.703125 4.5 23.09375 1.453125 
Q 29.5 -1.59375 38 -1.59375 
Q 46.5 -1.59375 52.890625 1.453125 
Q 59.296875 4.5 63.59375 9.703125 
Q 67.90625 14.90625 70.046875 21.65625 
Q 72.203125 28.40625 72.203125 35.703125 
Q 72.203125 43 70.046875 49.75 
Q 67.90625 56.5 63.59375 61.703125 
Q 59.296875 66.90625 52.890625 70 
Q 46.5 73.09375 38 73.09375 
Q 29.5 73.09375 23.09375 70 
Q 16.703125 66.90625 12.390625 61.703125 
Q 8.09375 56.5 5.9375 49.75 
Q 3.796875 43 3.796875 35.703125 
z
" id="HelveticaNeue-79"/>
        <path d="M 41.5 35.09375 
L 50.296875 35.09375 
Q 49.796875 39.703125 47.890625 43.046875 
Q 46 46.40625 43.046875 48.59375 
Q 40.09375 50.796875 36.25 51.84375 
Q 32.40625 52.90625 28 52.90625 
Q 21.90625 52.90625 17.296875 50.75 
Q 12.703125 48.59375 9.640625 44.84375 
Q 6.59375 41.09375 5.09375 36.046875 
Q 3.59375 31 3.59375 25.203125 
Q 3.59375 19.40625 5.140625 14.546875 
Q 6.703125 9.703125 9.75 6.203125 
Q 12.796875 2.703125 17.34375 0.796875 
Q 21.90625 -1.09375 27.796875 -1.09375 
Q 37.703125 -1.09375 43.453125 4.09375 
Q 49.203125 9.296875 50.59375 18.90625 
L 41.90625 18.90625 
Q 41.09375 12.90625 37.546875 9.59375 
Q 34 6.296875 27.703125 6.296875 
Q 23.703125 6.296875 20.796875 7.890625 
Q 17.90625 9.5 16.09375 12.140625 
Q 14.296875 14.796875 13.4375 18.1875 
Q 12.59375 21.59375 12.59375 25.203125 
Q 12.59375 29.09375 13.390625 32.75 
Q 14.203125 36.40625 16.046875 39.203125 
Q 17.90625 42 21 43.703125 
Q 24.09375 45.40625 28.703125 45.40625 
Q 34.09375 45.40625 37.296875 42.703125 
Q 40.5 40 41.5 35.09375 
z
" id="HelveticaNeue-99"/>
        <path d="M 18.203125 51.703125 
L 18.203125 67.203125 
L 9.703125 67.203125 
L 9.703125 51.703125 
L 0.90625 51.703125 
L 0.90625 44.203125 
L 9.703125 44.203125 
L 9.703125 11.296875 
Q 9.703125 7.703125 10.390625 5.5 
Q 11.09375 3.296875 12.546875 2.09375 
Q 14 0.90625 16.34375 0.453125 
Q 18.703125 0 22 0 
L 28.5 0 
L 28.5 7.5 
L 24.59375 7.5 
Q 22.59375 7.5 21.34375 7.640625 
Q 20.09375 7.796875 19.390625 8.296875 
Q 18.703125 8.796875 18.453125 9.6875 
Q 18.203125 10.59375 18.203125 12.09375 
L 18.203125 44.203125 
L 28.5 44.203125 
L 28.5 51.703125 
z
" id="HelveticaNeue-116"/>
       </defs>
       <use xlink:href="#HelveticaNeue-79"/>
       <use x="75.999985" xlink:href="#HelveticaNeue-99"/>
       <use x="129.699982" xlink:href="#HelveticaNeue-116"/>
      </g>
     </g>
    </g>
    <g id="xtick_4">
     <g id="line2d_4">
      <g>
       <use style="fill:#555555;stroke:#555555;stroke-width:0.8;" x="300.560538" xlink:href="#m7f823d8962" y="262.5"/>
      </g>
     </g>
     <g id="text_3">
      <!-- Jan -->
      <g style="fill:#555555;" transform="translate(292.500382 276.640625)scale(0.1 -0.1)">
       <defs>
        <path d="M 52.203125 0.203125 
Q 50 -1.09375 46.09375 -1.09375 
Q 42.796875 -1.09375 40.84375 0.75 
Q 38.90625 2.59375 38.90625 6.796875 
Q 35.40625 2.59375 30.75 0.75 
Q 26.09375 -1.09375 20.703125 -1.09375 
Q 17.203125 -1.09375 14.046875 -0.296875 
Q 10.90625 0.5 8.59375 2.203125 
Q 6.296875 3.90625 4.9375 6.65625 
Q 3.59375 9.40625 3.59375 13.296875 
Q 3.59375 17.703125 5.09375 20.5 
Q 6.59375 23.296875 9.046875 25.046875 
Q 11.5 26.796875 14.640625 27.6875 
Q 17.796875 28.59375 21.09375 29.203125 
Q 24.59375 29.90625 27.75 30.25 
Q 30.90625 30.59375 33.296875 31.25 
Q 35.703125 31.90625 37.09375 33.15625 
Q 38.5 34.40625 38.5 36.796875 
Q 38.5 39.59375 37.453125 41.296875 
Q 36.40625 43 34.75 43.890625 
Q 33.09375 44.796875 31.046875 45.09375 
Q 29 45.40625 27 45.40625 
Q 21.59375 45.40625 18 43.34375 
Q 14.40625 41.296875 14.09375 35.59375 
L 5.59375 35.59375 
Q 5.796875 40.40625 7.59375 43.703125 
Q 9.40625 47 12.40625 49.046875 
Q 15.40625 51.09375 19.25 52 
Q 23.09375 52.90625 27.5 52.90625 
Q 31 52.90625 34.453125 52.40625 
Q 37.90625 51.90625 40.703125 50.34375 
Q 43.5 48.796875 45.203125 46 
Q 46.90625 43.203125 46.90625 38.703125 
L 46.90625 12.09375 
Q 46.90625 9.09375 47.25 7.6875 
Q 47.59375 6.296875 49.59375 6.296875 
Q 50.703125 6.296875 52.203125 6.796875 
z
M 38.40625 26.703125 
Q 36.796875 25.5 34.1875 24.953125 
Q 31.59375 24.40625 28.75 24.046875 
Q 25.90625 23.703125 23 23.25 
Q 20.09375 22.796875 17.796875 21.796875 
Q 15.5 20.796875 14.046875 18.9375 
Q 12.59375 17.09375 12.59375 13.90625 
Q 12.59375 11.796875 13.4375 10.34375 
Q 14.296875 8.90625 15.640625 8 
Q 17 7.09375 18.796875 6.6875 
Q 20.59375 6.296875 22.59375 6.296875 
Q 26.796875 6.296875 29.796875 7.4375 
Q 32.796875 8.59375 34.6875 10.34375 
Q 36.59375 12.09375 37.5 14.140625 
Q 38.40625 16.203125 38.40625 18 
z
" id="HelveticaNeue-97"/>
        <path d="M 6.40625 51.703125 
L 6.40625 0 
L 14.90625 0 
L 14.90625 29.203125 
Q 14.90625 32.703125 15.84375 35.640625 
Q 16.796875 38.59375 18.6875 40.796875 
Q 20.59375 43 23.4375 44.203125 
Q 26.296875 45.40625 30.203125 45.40625 
Q 35.09375 45.40625 37.890625 42.59375 
Q 40.703125 39.796875 40.703125 35 
L 40.703125 0 
L 49.203125 0 
L 49.203125 34 
Q 49.203125 38.203125 48.34375 41.640625 
Q 47.5 45.09375 45.390625 47.59375 
Q 43.296875 50.09375 39.890625 51.5 
Q 36.5 52.90625 31.40625 52.90625 
Q 19.90625 52.90625 14.59375 43.5 
L 14.40625 43.5 
L 14.40625 51.703125 
z
" id="HelveticaNeue-110"/>
       </defs>
       <use xlink:href="#HelveticaNeue-74"/>
       <use x="51.899994" xlink:href="#HelveticaNeue-97"/>
       <use x="105.599991" xlink:href="#HelveticaNeue-110"/>
      </g>
      <!-- 2021 -->
      <g style="fill:#555555;" transform="translate(289.441788 287.179688)scale(0.1 -0.1)">
       <defs>
        <path d="M 4.40625 45.796875 
L 12.90625 45.796875 
Q 12.796875 49 13.546875 52.140625 
Q 14.296875 55.296875 16 57.796875 
Q 17.703125 60.296875 20.34375 61.84375 
Q 23 63.40625 26.703125 63.40625 
Q 29.5 63.40625 32 62.5 
Q 34.5 61.59375 36.34375 59.890625 
Q 38.203125 58.203125 39.296875 55.84375 
Q 40.40625 53.5 40.40625 50.59375 
Q 40.40625 46.90625 39.25 44.09375 
Q 38.09375 41.296875 35.84375 38.890625 
Q 33.59375 36.5 30.1875 34.140625 
Q 26.796875 31.796875 22.296875 29 
Q 18.59375 26.796875 15.1875 24.296875 
Q 11.796875 21.796875 9.09375 18.5 
Q 6.40625 15.203125 4.65625 10.75 
Q 2.90625 6.296875 2.40625 0 
L 48.703125 0 
L 48.703125 7.5 
L 12.296875 7.5 
Q 12.90625 10.796875 14.84375 13.34375 
Q 16.796875 15.90625 19.546875 18.09375 
Q 22.296875 20.296875 25.59375 22.25 
Q 28.90625 24.203125 32.203125 26.203125 
Q 35.5 28.296875 38.59375 30.59375 
Q 41.703125 32.90625 44.09375 35.75 
Q 46.5 38.59375 47.953125 42.1875 
Q 49.40625 45.796875 49.40625 50.5 
Q 49.40625 55.5 47.65625 59.296875 
Q 45.90625 63.09375 42.90625 65.640625 
Q 39.90625 68.203125 35.84375 69.546875 
Q 31.796875 70.90625 27.203125 70.90625 
Q 21.59375 70.90625 17.1875 69 
Q 12.796875 67.09375 9.84375 63.75 
Q 6.90625 60.40625 5.5 55.796875 
Q 4.09375 51.203125 4.40625 45.796875 
z
" id="HelveticaNeue-50"/>
        <path d="M 13.203125 34.90625 
Q 13.203125 37.5 13.25 40.640625 
Q 13.296875 43.796875 13.75 46.9375 
Q 14.203125 50.09375 15.046875 53.09375 
Q 15.90625 56.09375 17.546875 58.34375 
Q 19.203125 60.59375 21.703125 62 
Q 24.203125 63.40625 27.796875 63.40625 
Q 31.40625 63.40625 33.90625 62 
Q 36.40625 60.59375 38.046875 58.34375 
Q 39.703125 56.09375 40.546875 53.09375 
Q 41.40625 50.09375 41.84375 46.9375 
Q 42.296875 43.796875 42.34375 40.640625 
Q 42.40625 37.5 42.40625 34.90625 
Q 42.40625 30.90625 42.15625 25.953125 
Q 41.90625 21 40.546875 16.640625 
Q 39.203125 12.296875 36.203125 9.296875 
Q 33.203125 6.296875 27.796875 6.296875 
Q 22.40625 6.296875 19.40625 9.296875 
Q 16.40625 12.296875 15.046875 16.640625 
Q 13.703125 21 13.453125 25.953125 
Q 13.203125 30.90625 13.203125 34.90625 
z
M 4.203125 34.796875 
Q 4.203125 30.90625 4.390625 26.703125 
Q 4.59375 22.5 5.390625 18.5 
Q 6.203125 14.5 7.703125 10.953125 
Q 9.203125 7.40625 11.796875 4.703125 
Q 14.40625 2 18.34375 0.453125 
Q 22.296875 -1.09375 27.796875 -1.09375 
Q 33.40625 -1.09375 37.296875 0.453125 
Q 41.203125 2 43.796875 4.703125 
Q 46.40625 7.40625 47.90625 10.953125 
Q 49.40625 14.5 50.203125 18.5 
Q 51 22.5 51.203125 26.703125 
Q 51.40625 30.90625 51.40625 34.796875 
Q 51.40625 38.703125 51.203125 42.890625 
Q 51 47.09375 50.203125 51.09375 
Q 49.40625 55.09375 47.90625 58.6875 
Q 46.40625 62.296875 43.796875 65 
Q 41.203125 67.703125 37.25 69.296875 
Q 33.296875 70.90625 27.796875 70.90625 
Q 22.296875 70.90625 18.34375 69.296875 
Q 14.40625 67.703125 11.796875 65 
Q 9.203125 62.296875 7.703125 58.6875 
Q 6.203125 55.09375 5.390625 51.09375 
Q 4.59375 47.09375 4.390625 42.890625 
Q 4.203125 38.703125 4.203125 34.796875 
z
" id="HelveticaNeue-48"/>
        <path d="M 35.59375 0 
L 35.59375 70.90625 
L 29.09375 70.90625 
Q 28.40625 66.90625 26.5 64.296875 
Q 24.59375 61.703125 21.84375 60.203125 
Q 19.09375 58.703125 15.6875 58.140625 
Q 12.296875 57.59375 8.703125 57.59375 
L 8.703125 50.796875 
L 27.09375 50.796875 
L 27.09375 0 
z
" id="HelveticaNeue-49"/>
       </defs>
       <use xlink:href="#HelveticaNeue-50"/>
       <use x="55.599991" xlink:href="#HelveticaNeue-48"/>
       <use x="111.199982" xlink:href="#HelveticaNeue-50"/>
       <use x="166.799973" xlink:href="#HelveticaNeue-49"/>
      </g>
     </g>
    </g>
    <g id="xtick_5">
     <g id="line2d_5">
      <g>
       <use style="fill:#555555;stroke:#555555;stroke-width:0.8;" x="378.755605" xlink:href="#m7f823d8962" y="262.5"/>
      </g>
     </g>
     <g id="text_4">
      <!-- Apr -->
      <g style="fill:#555555;" transform="translate(370.886074 276.640625)scale(0.1 -0.1)">
       <defs>
        <path d="M 20.09375 29.5 
L 32.203125 62.796875 
L 32.40625 62.796875 
L 44.296875 29.5 
z
M 27.203125 71.40625 
L -0.59375 0 
L 9.09375 0 
L 17.09375 21.5 
L 47.296875 21.5 
L 55.09375 0 
L 65.59375 0 
L 37.703125 71.40625 
z
" id="HelveticaNeue-65"/>
        <path d="M 6.703125 51.703125 
L 6.703125 -19.703125 
L 15.203125 -19.703125 
L 15.203125 6.90625 
L 15.40625 6.90625 
Q 16.796875 4.59375 18.84375 3.046875 
Q 20.90625 1.5 23.203125 0.59375 
Q 25.5 -0.296875 27.84375 -0.6875 
Q 30.203125 -1.09375 32.09375 -1.09375 
Q 38 -1.09375 42.453125 1 
Q 46.90625 3.09375 49.84375 6.75 
Q 52.796875 10.40625 54.25 15.296875 
Q 55.703125 20.203125 55.703125 25.703125 
Q 55.703125 31.203125 54.203125 36.09375 
Q 52.703125 41 49.75 44.75 
Q 46.796875 48.5 42.34375 50.703125 
Q 37.90625 52.90625 31.90625 52.90625 
Q 26.5 52.90625 22 50.953125 
Q 17.5 49 15.40625 44.703125 
L 15.203125 44.703125 
L 15.203125 51.703125 
z
M 46.703125 26.296875 
Q 46.703125 22.5 45.890625 18.890625 
Q 45.09375 15.296875 43.296875 12.5 
Q 41.5 9.703125 38.546875 8 
Q 35.59375 6.296875 31.203125 6.296875 
Q 26.796875 6.296875 23.6875 7.9375 
Q 20.59375 9.59375 18.640625 12.296875 
Q 16.703125 15 15.796875 18.546875 
Q 14.90625 22.09375 14.90625 25.90625 
Q 14.90625 29.5 15.75 33 
Q 16.59375 36.5 18.5 39.25 
Q 20.40625 42 23.40625 43.703125 
Q 26.40625 45.40625 30.703125 45.40625 
Q 34.796875 45.40625 37.84375 43.796875 
Q 40.90625 42.203125 42.84375 39.5 
Q 44.796875 36.796875 45.75 33.34375 
Q 46.703125 29.90625 46.703125 26.296875 
z
" id="HelveticaNeue-112"/>
        <path d="M 6.09375 51.703125 
L 6.09375 0 
L 14.59375 0 
L 14.59375 23 
Q 14.59375 28 15.59375 31.84375 
Q 16.59375 35.703125 18.796875 38.390625 
Q 21 41.09375 24.59375 42.5 
Q 28.203125 43.90625 33.296875 43.90625 
L 33.296875 52.90625 
Q 26.40625 53.09375 21.90625 50.09375 
Q 17.40625 47.09375 14.296875 40.796875 
L 14.09375 40.796875 
L 14.09375 51.703125 
z
" id="HelveticaNeue-114"/>
       </defs>
       <use xlink:href="#HelveticaNeue-65"/>
       <use x="64.799988" xlink:href="#HelveticaNeue-112"/>
       <use x="124.099976" xlink:href="#HelveticaNeue-114"/>
      </g>
     </g>
    </g>
    <g id="xtick_6">
     <g id="line2d_6">
      <g>
       <use style="fill:#555555;stroke:#555555;stroke-width:0.8;" x="450" xlink:href="#m7f823d8962" y="262.5"/>
      </g>
     </g>
    </g>
    <g id="xtick_7">
     <g id="line2d_7">
      <defs>
       <path d="M 0 0 
L 0 2 
" id="m97ece228bc" style="stroke:#555555;stroke-width:0.6;"/>
      </defs>
      <g>
       <use style="fill:#555555;stroke:#555555;stroke-width:0.6;" x="87.696188" xlink:href="#m97ece228bc" y="262.5"/>
      </g>
     </g>
    </g>
    <g id="xtick_8">
     <g id="line2d_8">
      <g>
       <use style="fill:#555555;stroke:#555555;stroke-width:0.6;" x="114.630045" xlink:href="#m97ece228bc" y="262.5"/>
      </g>
     </g>
    </g>
    <g id="xtick_9">
     <g id="line2d_9">
      <g>
       <use style="fill:#555555;stroke:#555555;stroke-width:0.6;" x="167.628924" xlink:href="#m97ece228bc" y="262.5"/>
      </g>
     </g>
    </g>
    <g id="xtick_10">
     <g id="line2d_10">
      <g>
       <use style="fill:#555555;stroke:#555555;stroke-width:0.6;" x="194.56278" xlink:href="#m97ece228bc" y="262.5"/>
      </g>
     </g>
    </g>
    <g id="xtick_11">
     <g id="line2d_11">
      <g>
       <use style="fill:#555555;stroke:#555555;stroke-width:0.6;" x="247.561659" xlink:href="#m97ece228bc" y="262.5"/>
      </g>
     </g>
    </g>
    <g id="xtick_12">
     <g id="line2d_12">
      <g>
       <use style="fill:#555555;stroke:#555555;stroke-width:0.6;" x="273.626682" xlink:href="#m97ece228bc" y="262.5"/>
      </g>
     </g>
    </g>
    <g id="xtick_13">
     <g id="line2d_13">
      <g>
       <use style="fill:#555555;stroke:#555555;stroke-width:0.6;" x="327.494395" xlink:href="#m97ece228bc" y="262.5"/>
      </g>
     </g>
    </g>
    <g id="xtick_14">
     <g id="line2d_14">
      <g>
       <use style="fill:#555555;stroke:#555555;stroke-width:0.6;" x="351.821749" xlink:href="#m97ece228bc" y="262.5"/>
      </g>
     </g>
    </g>
    <g id="xtick_15">
     <g id="line2d_15">
      <g>
       <use style="fill:#555555;stroke:#555555;stroke-width:0.6;" x="404.820628" xlink:href="#m97ece228bc" y="262.5"/>
      </g>
     </g>
    </g>
    <g id="xtick_16">
     <g id="line2d_16">
      <g>
       <use style="fill:#555555;stroke:#555555;stroke-width:0.6;" x="431.754484" xlink:href="#m97ece228bc" y="262.5"/>
      </g>
     </g>
    </g>
    <g id="text_5">
     <!-- fecha -->
     <g style="fill:#555555;" transform="translate(243.935156 300.290625)scale(0.1 -0.1)">
      <defs>
       <path d="M 9.90625 44.203125 
L 9.90625 0 
L 18.40625 0 
L 18.40625 44.203125 
L 28.40625 44.203125 
L 28.40625 51.703125 
L 18.40625 51.703125 
L 18.40625 58.90625 
Q 18.40625 62.296875 20.09375 63.5 
Q 21.796875 64.703125 24.90625 64.703125 
Q 26 64.703125 27.296875 64.546875 
Q 28.59375 64.40625 29.703125 64 
L 29.703125 71.40625 
Q 28.5 71.796875 26.953125 72 
Q 25.40625 72.203125 24.203125 72.203125 
Q 17.203125 72.203125 13.546875 68.953125 
Q 9.90625 65.703125 9.90625 59.40625 
L 9.90625 51.703125 
L 1.203125 51.703125 
L 1.203125 44.203125 
z
" id="HelveticaNeue-102"/>
       <path d="M 42.296875 30.796875 
L 12.59375 30.796875 
Q 12.796875 33.796875 13.890625 36.4375 
Q 15 39.09375 16.890625 41.09375 
Q 18.796875 43.09375 21.4375 44.25 
Q 24.09375 45.40625 27.40625 45.40625 
Q 30.59375 45.40625 33.25 44.25 
Q 35.90625 43.09375 37.84375 41.140625 
Q 39.796875 39.203125 40.9375 36.5 
Q 42.09375 33.796875 42.296875 30.796875 
z
M 50.5 16.40625 
L 42.09375 16.40625 
Q 41 11.296875 37.546875 8.796875 
Q 34.09375 6.296875 28.703125 6.296875 
Q 24.5 6.296875 21.390625 7.6875 
Q 18.296875 9.09375 16.296875 11.4375 
Q 14.296875 13.796875 13.390625 16.84375 
Q 12.5 19.90625 12.59375 23.296875 
L 51.296875 23.296875 
Q 51.5 28 50.453125 33.203125 
Q 49.40625 38.40625 46.65625 42.796875 
Q 43.90625 47.203125 39.34375 50.046875 
Q 34.796875 52.90625 27.90625 52.90625 
Q 22.59375 52.90625 18.140625 50.90625 
Q 13.703125 48.90625 10.453125 45.296875 
Q 7.203125 41.703125 5.390625 36.796875 
Q 3.59375 31.90625 3.59375 26 
Q 3.796875 20.09375 5.34375 15.09375 
Q 6.90625 10.09375 10 6.5 
Q 13.09375 2.90625 17.640625 0.90625 
Q 22.203125 -1.09375 28.40625 -1.09375 
Q 37.203125 -1.09375 43 3.296875 
Q 48.796875 7.703125 50.5 16.40625 
z
" id="HelveticaNeue-101"/>
       <path d="M 6.40625 71.40625 
L 6.40625 0 
L 14.90625 0 
L 14.90625 29.203125 
Q 14.90625 32.703125 15.84375 35.640625 
Q 16.796875 38.59375 18.6875 40.796875 
Q 20.59375 43 23.4375 44.203125 
Q 26.296875 45.40625 30.203125 45.40625 
Q 35.09375 45.40625 37.890625 42.59375 
Q 40.703125 39.796875 40.703125 35 
L 40.703125 0 
L 49.203125 0 
L 49.203125 34 
Q 49.203125 38.203125 48.34375 41.640625 
Q 47.5 45.09375 45.390625 47.59375 
Q 43.296875 50.09375 39.890625 51.5 
Q 36.5 52.90625 31.40625 52.90625 
Q 29.09375 52.90625 26.640625 52.40625 
Q 24.203125 51.90625 21.953125 50.84375 
Q 19.703125 49.796875 17.890625 48.140625 
Q 16.09375 46.5 15.09375 44.09375 
L 14.90625 44.09375 
L 14.90625 71.40625 
z
" id="HelveticaNeue-104"/>
      </defs>
      <use xlink:href="#HelveticaNeue-102"/>
      <use x="29.599991" xlink:href="#HelveticaNeue-101"/>
      <use x="83.299988" xlink:href="#HelveticaNeue-99"/>
      <use x="136.999985" xlink:href="#HelveticaNeue-104"/>
      <use x="192.599976" xlink:href="#HelveticaNeue-97"/>
     </g>
    </g>
   </g>
   <g id="matplotlib.axis_2">
    <g id="ytick_1">
     <g id="line2d_17">
      <defs>
       <path d="M 0 0 
L -3.5 0 
" id="m050f6a8a7e" style="stroke:#555555;stroke-width:0.8;"/>
      </defs>
      <g>
       <use style="fill:#555555;stroke:#555555;stroke-width:0.8;" x="62.5" xlink:href="#m050f6a8a7e" y="251.795455"/>
      </g>
     </g>
     <g id="text_6">
      <!-- 0 -->
      <g style="fill:#555555;" transform="translate(49.940625 255.365767)scale(0.1 -0.1)">
       <use xlink:href="#HelveticaNeue-48"/>
      </g>
     </g>
    </g>
    <g id="ytick_2">
     <g id="line2d_18">
      <g>
       <use style="fill:#555555;stroke:#555555;stroke-width:0.8;" x="62.5" xlink:href="#m050f6a8a7e" y="200.516195"/>
      </g>
     </g>
     <g id="text_7">
      <!-- 200 -->
      <g style="fill:#555555;" transform="translate(38.821875 204.086507)scale(0.1 -0.1)">
       <use xlink:href="#HelveticaNeue-50"/>
       <use x="55.599991" xlink:href="#HelveticaNeue-48"/>
       <use x="111.199982" xlink:href="#HelveticaNeue-48"/>
      </g>
     </g>
    </g>
    <g id="ytick_3">
     <g id="line2d_19">
      <g>
       <use style="fill:#555555;stroke:#555555;stroke-width:0.8;" x="62.5" xlink:href="#m050f6a8a7e" y="149.236935"/>
      </g>
     </g>
     <g id="text_8">
      <!-- 400 -->
      <g style="fill:#555555;" transform="translate(38.821875 152.807248)scale(0.1 -0.1)">
       <defs>
        <path d="M 33.90625 24.09375 
L 10.09375 24.09375 
L 33.703125 58.796875 
L 33.90625 58.796875 
z
M 41.90625 24.09375 
L 41.90625 70.90625 
L 35.09375 70.90625 
L 2.796875 24.796875 
L 2.796875 16.59375 
L 33.90625 16.59375 
L 33.90625 0 
L 41.90625 0 
L 41.90625 16.59375 
L 51.5 16.59375 
L 51.5 24.09375 
z
" id="HelveticaNeue-52"/>
       </defs>
       <use xlink:href="#HelveticaNeue-52"/>
       <use x="55.599991" xlink:href="#HelveticaNeue-48"/>
       <use x="111.199982" xlink:href="#HelveticaNeue-48"/>
      </g>
     </g>
    </g>
    <g id="ytick_4">
     <g id="line2d_20">
      <g>
       <use style="fill:#555555;stroke:#555555;stroke-width:0.8;" x="62.5" xlink:href="#m050f6a8a7e" y="97.957676"/>
      </g>
     </g>
     <g id="text_9">
      <!-- 600 -->
      <g style="fill:#555555;" transform="translate(38.821875 101.527988)scale(0.1 -0.1)">
       <defs>
        <path d="M 41.40625 52.796875 
L 49.90625 52.796875 
Q 49.09375 61.59375 43.890625 66.25 
Q 38.703125 70.90625 29.90625 70.90625 
Q 22.296875 70.90625 17.296875 67.703125 
Q 12.296875 64.5 9.296875 59.203125 
Q 6.296875 53.90625 5.046875 47.046875 
Q 3.796875 40.203125 3.796875 32.90625 
Q 3.796875 27.296875 4.640625 21.296875 
Q 5.5 15.296875 8.09375 10.296875 
Q 10.703125 5.296875 15.5 2.09375 
Q 20.296875 -1.09375 28.203125 -1.09375 
Q 34.90625 -1.09375 39.453125 1.15625 
Q 44 3.40625 46.75 6.84375 
Q 49.5 10.296875 50.703125 14.5 
Q 51.90625 18.703125 51.90625 22.59375 
Q 51.90625 27.5 50.40625 31.703125 
Q 48.90625 35.90625 46.15625 39 
Q 43.40625 42.09375 39.34375 43.84375 
Q 35.296875 45.59375 30.203125 45.59375 
Q 24.40625 45.59375 19.953125 43.390625 
Q 15.5 41.203125 12.5 36.296875 
L 12.296875 36.5 
Q 12.40625 40.59375 13.09375 45.296875 
Q 13.796875 50 15.640625 54.046875 
Q 17.5 58.09375 20.796875 60.75 
Q 24.09375 63.40625 29.5 63.40625 
Q 34.59375 63.40625 37.6875 60.5 
Q 40.796875 57.59375 41.40625 52.796875 
z
M 28.59375 38.09375 
Q 32.203125 38.09375 34.890625 36.796875 
Q 37.59375 35.5 39.390625 33.34375 
Q 41.203125 31.203125 42.046875 28.25 
Q 42.90625 25.296875 42.90625 22 
Q 42.90625 18.90625 41.953125 16.046875 
Q 41 13.203125 39.203125 11 
Q 37.40625 8.796875 34.75 7.546875 
Q 32.09375 6.296875 28.59375 6.296875 
Q 25.09375 6.296875 22.34375 7.546875 
Q 19.59375 8.796875 17.75 10.890625 
Q 15.90625 13 14.90625 15.890625 
Q 13.90625 18.796875 13.90625 22.09375 
Q 13.90625 25.40625 14.84375 28.34375 
Q 15.796875 31.296875 17.6875 33.4375 
Q 19.59375 35.59375 22.296875 36.84375 
Q 25 38.09375 28.59375 38.09375 
z
" id="HelveticaNeue-54"/>
       </defs>
       <use xlink:href="#HelveticaNeue-54"/>
       <use x="55.599991" xlink:href="#HelveticaNeue-48"/>
       <use x="111.199982" xlink:href="#HelveticaNeue-48"/>
      </g>
     </g>
    </g>
    <g id="ytick_5">
     <g id="line2d_21">
      <g>
       <use style="fill:#555555;stroke:#555555;stroke-width:0.8;" x="62.5" xlink:href="#m050f6a8a7e" y="46.678416"/>
      </g>
     </g>
     <g id="text_10">
      <!-- 800 -->
      <g style="fill:#555555;" transform="translate(38.821875 50.248728)scale(0.1 -0.1)">
       <defs>
        <path d="M 15.5 52.5 
Q 15.5 55.203125 16.5 57.203125 
Q 17.5 59.203125 19.140625 60.59375 
Q 20.796875 62 23.09375 62.703125 
Q 25.40625 63.40625 27.90625 63.40625 
Q 33.09375 63.40625 36.4375 60.65625 
Q 39.796875 57.90625 39.796875 52.5 
Q 39.796875 47.09375 36.5 44.09375 
Q 33.203125 41.09375 28.09375 41.09375 
Q 25.5 41.09375 23.203125 41.796875 
Q 20.90625 42.5 19.203125 43.890625 
Q 17.5 45.296875 16.5 47.4375 
Q 15.5 49.59375 15.5 52.5 
z
M 6.5 52.796875 
Q 6.5 48 9.203125 43.953125 
Q 11.90625 39.90625 16.40625 38.09375 
Q 10.40625 36 7.203125 31.34375 
Q 4 26.703125 4 20.40625 
Q 4 15 5.84375 10.953125 
Q 7.703125 6.90625 10.953125 4.203125 
Q 14.203125 1.5 18.59375 0.203125 
Q 23 -1.09375 28.09375 -1.09375 
Q 33 -1.09375 37.296875 0.296875 
Q 41.59375 1.703125 44.75 4.453125 
Q 47.90625 7.203125 49.75 11.203125 
Q 51.59375 15.203125 51.59375 20.40625 
Q 51.59375 27 48.5 31.546875 
Q 45.40625 36.09375 39 38.09375 
Q 43.5 40.09375 46.140625 44.046875 
Q 48.796875 48 48.796875 52.796875 
Q 48.796875 56.203125 47.59375 59.453125 
Q 46.40625 62.703125 43.84375 65.25 
Q 41.296875 67.796875 37.1875 69.34375 
Q 33.09375 70.90625 27.296875 70.90625 
Q 23.203125 70.90625 19.453125 69.703125 
Q 15.703125 68.5 12.796875 66.203125 
Q 9.90625 63.90625 8.203125 60.546875 
Q 6.5 57.203125 6.5 52.796875 
z
M 13 20 
Q 13 23.09375 14.140625 25.59375 
Q 15.296875 28.09375 17.34375 29.890625 
Q 19.40625 31.703125 22.15625 32.640625 
Q 24.90625 33.59375 28 33.59375 
Q 31 33.59375 33.640625 32.546875 
Q 36.296875 31.5 38.296875 29.703125 
Q 40.296875 27.90625 41.4375 25.453125 
Q 42.59375 23 42.59375 20.09375 
Q 42.59375 17.09375 41.546875 14.59375 
Q 40.5 12.09375 38.546875 10.25 
Q 36.59375 8.40625 33.9375 7.34375 
Q 31.296875 6.296875 28.09375 6.296875 
Q 21.5 6.296875 17.25 9.9375 
Q 13 13.59375 13 20 
z
" id="HelveticaNeue-56"/>
       </defs>
       <use xlink:href="#HelveticaNeue-56"/>
       <use x="55.599991" xlink:href="#HelveticaNeue-48"/>
       <use x="111.199982" xlink:href="#HelveticaNeue-48"/>
      </g>
     </g>
    </g>
   </g>
   <g id="line2d_22">
    <path clip-path="url(#pdf7357f34a)" d="M 63.368834 251.026266 
L 64.237668 250.769869 
L 65.106502 251.795455 
L 65.975336 249.744284 
L 66.84417 251.539058 
L 67.713004 247.180321 
L 68.581839 251.282662 
L 69.450673 251.026266 
L 70.319507 251.795455 
L 71.188341 250.769869 
L 72.057175 251.026266 
L 72.926009 250.513473 
L 73.794843 251.026266 
L 74.663677 250.513473 
L 75.532511 248.718699 
L 76.401345 248.975095 
L 78.139013 250.513473 
L 79.007848 251.026266 
L 79.876682 251.795455 
L 80.745516 250.257077 
L 81.61435 250.513473 
L 82.483184 251.282662 
L 83.352018 248.718699 
L 84.220852 250.257077 
L 85.089686 250.513473 
L 85.95852 251.539058 
L 86.827354 248.462303 
L 87.696188 250.769869 
L 88.565022 249.487888 
L 89.433857 248.975095 
L 90.302691 249.231492 
L 91.171525 249.744284 
L 92.040359 247.94951 
L 92.909193 247.94951 
L 93.778027 248.718699 
L 94.646861 249.744284 
L 95.515695 250.257077 
L 96.384529 248.205906 
L 98.122197 250.769869 
L 98.991031 248.975095 
L 99.859865 245.641943 
L 100.7287 249.231492 
L 101.597534 248.205906 
L 102.466368 248.718699 
L 103.335202 247.180321 
L 104.204036 247.180321 
L 105.07287 248.462303 
L 105.941704 245.641943 
L 106.810538 248.718699 
L 107.679372 250.257077 
L 108.548206 245.89834 
L 109.41704 248.205906 
L 110.285874 245.385547 
L 111.154709 241.539603 
L 112.023543 239.488432 
L 112.892377 243.847169 
L 113.761211 245.641943 
L 114.630045 246.923925 
L 115.498879 243.847169 
L 116.367713 237.437262 
L 117.236547 246.923925 
L 118.974215 242.052395 
L 119.843049 242.308792 
L 120.711883 242.821584 
L 121.580717 229.23258 
L 122.449552 232.05294 
L 123.318386 245.385547 
L 124.18722 243.590773 
L 125.056054 246.667529 
L 125.924888 242.308792 
L 126.793722 242.052395 
L 127.662556 233.334921 
L 128.53139 240.257621 
L 129.400224 234.360506 
L 130.269058 230.514562 
L 131.137892 221.027899 
L 132.006726 226.412221 
L 132.875561 220.002314 
L 133.744395 233.078525 
L 134.613229 208.46448 
L 135.482063 234.873299 
L 136.350897 226.668617 
L 137.219731 230.770958 
L 138.088565 207.951688 
L 138.957399 226.412221 
L 139.826233 225.386636 
L 140.695067 210.515651 
L 141.563901 188.209173 
L 142.432735 233.078525 
L 143.30157 227.18141 
L 144.170404 231.027354 
L 145.039238 226.155825 
L 145.908072 207.182499 
L 146.776906 200.003402 
L 147.64574 214.105199 
L 148.514574 203.080158 
L 149.383408 208.46448 
L 150.252242 220.002314 
L 151.121076 223.591862 
L 151.98991 218.463936 
L 152.858744 200.259799 
L 153.727578 203.849347 
L 154.596413 222.566277 
L 156.334081 210.772047 
L 157.202915 225.386636 
L 158.071749 206.669706 
L 158.940583 191.542324 
L 159.809417 199.234213 
L 160.678251 197.695836 
L 161.547085 195.901062 
L 162.415919 221.027899 
L 163.284753 205.644121 
L 164.153587 185.64521 
L 165.022422 218.720332 
L 165.891256 187.952776 
L 166.76009 182.055661 
L 167.628924 180.517284 
L 168.497758 222.30988 
L 169.366592 204.362139 
L 170.235426 188.721965 
L 171.10426 183.594039 
L 171.973094 208.977273 
L 172.841928 187.69638 
L 173.710762 196.67025 
L 174.579596 211.028443 
L 176.317265 171.543413 
L 177.186099 191.798721 
L 178.054933 187.952776 
L 178.923767 192.824306 
L 179.792601 180.77368 
L 180.661435 203.080158 
L 182.399103 159.236391 
L 183.267937 206.926102 
L 184.136771 183.081247 
L 185.005605 190.516739 
L 185.874439 203.080158 
L 186.743274 203.336554 
L 188.480942 184.363228 
L 189.349776 194.875476 
L 190.21861 220.002314 
L 191.087444 198.977817 
L 191.956278 202.310969 
L 192.825112 216.669162 
L 193.693946 185.132417 
L 194.56278 190.260343 
L 195.431614 194.106287 
L 196.300448 190.773136 
L 197.169283 221.027899 
L 198.038117 220.771502 
L 198.906951 222.30988 
L 199.775785 211.797632 
L 200.644619 216.156369 
L 201.513453 219.233125 
L 202.382287 206.669706 
L 203.251121 209.490065 
L 204.119955 216.669162 
L 204.988789 236.15528 
L 205.857623 214.361595 
L 206.726457 224.873843 
L 207.595291 199.49061 
L 208.464126 227.437806 
L 209.33296 213.848802 
L 210.201794 224.617447 
L 211.070628 208.46448 
L 211.939462 205.900517 
L 212.808296 208.720876 
L 213.67713 206.41331 
L 214.545964 219.489521 
L 215.414798 227.18141 
L 216.283632 225.386636 
L 217.152466 235.386091 
L 218.0213 223.335465 
L 218.890135 213.33601 
L 219.758969 221.797088 
L 220.627803 226.925014 
L 221.496637 215.899973 
L 222.365471 223.591862 
L 223.234305 208.977273 
L 224.103139 219.745917 
L 224.971973 206.669706 
L 226.709641 221.027899 
L 227.578475 233.847714 
L 228.447309 226.925014 
L 229.316143 232.822128 
L 230.184978 227.437806 
L 231.053812 233.334921 
L 231.922646 230.770958 
L 232.79148 218.463936 
L 233.660314 231.283751 
L 234.529148 233.847714 
L 235.397982 240.001225 
L 236.266816 225.899428 
L 237.13565 220.25871 
L 238.004484 221.797088 
L 238.873318 222.30988 
L 239.742152 223.335465 
L 240.610987 233.847714 
L 241.479821 239.232036 
L 243.217489 214.361595 
L 244.086323 220.515106 
L 244.955157 223.591862 
L 245.823991 231.283751 
L 246.692825 218.976728 
L 247.561659 235.898884 
L 248.430493 228.976184 
L 249.299327 223.335465 
L 250.168161 223.848258 
L 251.036996 233.847714 
L 251.90583 231.540147 
L 252.774664 225.643032 
L 253.643498 233.847714 
L 254.512332 222.053484 
L 255.381166 226.668617 
L 256.25 232.565732 
L 257.118834 227.694203 
L 257.987668 235.129695 
L 258.856502 234.360506 
L 259.725336 237.437262 
L 260.59417 212.823217 
L 261.463004 221.797088 
L 262.331839 228.463391 
L 263.200673 218.463936 
L 264.069507 232.05294 
L 264.938341 224.361051 
L 265.807175 225.13024 
L 266.676009 228.463391 
L 267.544843 221.797088 
L 268.413677 190.003947 
L 269.282511 222.566277 
L 270.151345 219.233125 
L 271.020179 223.079069 
L 271.889013 232.565732 
L 272.757848 223.335465 
L 273.626682 216.669162 
L 274.495516 225.899428 
L 275.36435 227.694203 
L 276.233184 223.335465 
L 277.102018 214.105199 
L 277.970852 233.334921 
L 278.839686 225.643032 
L 279.70852 220.515106 
L 280.577354 212.566821 
L 281.446188 205.900517 
L 282.315022 211.541236 
L 283.183857 210.772047 
L 284.052691 225.899428 
L 284.921525 210.515651 
L 285.790359 212.823217 
L 286.659193 192.055117 
L 287.528027 208.977273 
L 288.396861 199.747006 
L 289.265695 215.38718 
L 290.134529 206.669706 
L 291.003363 206.156913 
L 291.872197 214.617991 
L 292.741031 205.387725 
L 293.609865 190.003947 
L 294.4787 234.873299 
L 295.347534 210.259254 
L 296.216368 213.848802 
L 297.085202 182.568454 
L 297.954036 183.594039 
L 298.82287 180.004491 
L 300.560538 231.283751 
L 302.298206 177.696924 
L 303.16704 191.542324 
L 304.035874 177.184132 
L 304.904709 175.90215 
L 305.773543 195.901062 
L 306.642377 169.235846 
L 307.511211 190.516739 
L 308.380045 201.798176 
L 309.248879 199.49061 
L 310.117713 158.979995 
L 310.986547 187.952776 
L 311.855381 182.312058 
L 312.724215 184.876021 
L 313.593049 176.927735 
L 314.461883 187.183587 
L 315.330717 205.131328 
L 316.199552 179.235302 
L 317.068386 173.594584 
L 317.93722 184.876021 
L 318.806054 187.69638 
L 319.674888 170.005035 
L 320.543722 200.259799 
L 321.412556 193.080702 
L 322.28139 169.492243 
L 323.150224 200.516195 
L 324.019058 178.466113 
L 324.887892 212.310425 
L 325.756726 214.361595 
L 326.625561 217.181954 
L 327.494395 226.412221 
L 328.363229 229.23258 
L 329.232063 220.002314 
L 330.100897 227.694203 
L 330.969731 226.668617 
L 332.707399 242.052395 
L 333.576233 232.309336 
L 334.445067 225.899428 
L 335.313901 232.565732 
L 336.182735 226.412221 
L 337.05157 237.950054 
L 337.920404 230.001769 
L 338.789238 241.795999 
L 339.658072 240.770414 
L 340.526906 232.565732 
L 341.39574 237.693658 
L 342.264574 237.437262 
L 343.133408 237.950054 
L 344.002242 241.02681 
L 344.871076 246.667529 
L 345.73991 238.719243 
L 346.608744 237.950054 
L 347.477578 234.360506 
L 348.346413 239.488432 
L 349.215247 242.821584 
L 350.084081 243.07798 
L 350.952915 239.232036 
L 351.821749 231.283751 
L 352.690583 236.411677 
L 353.559417 236.15528 
L 354.428251 239.744829 
L 355.297085 238.462847 
L 356.165919 246.154736 
L 357.034753 242.565188 
L 357.903587 240.257621 
L 358.772422 240.770414 
L 359.641256 241.539603 
L 360.51009 239.232036 
L 361.378924 241.795999 
L 362.247758 241.283206 
L 363.116592 242.821584 
L 363.985426 245.385547 
L 364.85426 241.02681 
L 365.723094 244.359962 
L 366.591928 242.821584 
L 367.460762 240.001225 
L 368.329596 245.129151 
L 369.19843 242.052395 
L 370.067265 245.385547 
L 370.936099 240.514017 
L 371.804933 237.693658 
L 372.673767 238.97564 
L 373.542601 233.334921 
L 374.411435 240.514017 
L 375.280269 238.719243 
L 376.149103 235.898884 
L 377.017937 233.591317 
L 377.886771 235.386091 
L 378.755605 237.950054 
L 380.493274 231.540147 
L 381.362108 241.795999 
L 382.230942 225.643032 
L 383.099776 219.745917 
L 383.96861 224.873843 
L 384.837444 220.002314 
L 385.706278 219.489521 
L 387.443946 212.823217 
L 388.31278 228.976184 
L 389.181614 200.003402 
L 390.050448 183.594039 
L 390.919283 193.849891 
L 391.788117 189.74755 
L 392.656951 190.773136 
L 393.525785 227.694203 
L 394.394619 168.466658 
L 395.263453 206.41331 
L 396.132287 192.56791 
L 397.001121 209.490065 
L 397.869955 198.721421 
L 398.738789 197.695836 
L 399.607623 209.233669 
L 400.476457 184.876021 
L 401.345291 184.363228 
L 402.214126 196.157458 
L 403.08296 198.465024 
L 403.951794 180.260887 
L 404.820628 177.440528 
L 405.689462 178.209717 
L 406.558296 169.492243 
L 408.295964 202.823762 
L 409.164798 178.978906 
L 410.033632 186.927191 
L 410.902466 177.696924 
L 411.7713 204.874932 
L 412.640135 177.440528 
L 413.508969 186.414398 
L 414.377803 186.414398 
L 415.246637 176.927735 
L 416.115471 181.030076 
L 416.984305 196.67025 
L 417.853139 196.67025 
L 418.721973 197.439439 
L 419.590807 164.364317 
L 420.459641 163.082335 
L 421.328475 150.006124 
L 422.197309 157.954409 
L 423.066143 182.568454 
L 423.934978 132.31478 
L 425.672646 152.826483 
L 426.54148 114.367039 
L 427.410314 127.44325 
L 428.279148 153.595672 
L 429.147982 68.215705 
L 430.016816 187.952776 
L 430.88565 166.415487 
L 431.754484 112.572265 
L 432.623318 37.704545 
L 433.492152 93.086146 
L 434.360987 131.289194 
L 435.229821 162.569543 
L 436.098655 154.877654 
L 436.967489 163.595128 
L 437.836323 119.494965 
L 438.705157 116.674605 
L 439.573991 172.056206 
L 440.442825 163.338732 
L 441.311659 158.210806 
L 442.180493 135.135139 
L 443.049327 157.441617 
L 443.918161 104.111187 
L 444.786996 138.724687 
L 445.65583 92.316957 
L 446.524664 150.006124 
L 447.393498 127.956042 
L 448.262332 137.442705 
L 449.131166 86.419842 
L 450 126.417665 
L 450 126.417665 
" style="fill:none;stroke:#000000;stroke-dasharray:1.5,2.475;stroke-dashoffset:0;stroke-opacity:0.5;stroke-width:1.5;"/>
   </g>
   <g id="line2d_23">
    <path clip-path="url(#pdf7357f34a)" d="M 62.5 251.026266 
L 64.237668 251.026266 
L 65.106502 250.513473 
L 65.975336 250.513473 
L 66.84417 250.257077 
L 67.713004 250.513473 
L 68.581839 250.513473 
L 69.450673 250.769869 
L 70.319507 250.769869 
L 71.188341 251.026266 
L 72.057175 251.026266 
L 72.926009 250.769869 
L 73.794843 250.257077 
L 74.663677 250.00068 
L 77.270179 250.00068 
L 79.876682 250.769869 
L 80.745516 250.769869 
L 81.61435 250.513473 
L 82.483184 250.513473 
L 83.352018 250.257077 
L 85.089686 250.257077 
L 85.95852 250.00068 
L 86.827354 250.00068 
L 87.696188 249.744284 
L 88.565022 249.744284 
L 89.433857 249.231492 
L 90.302691 249.231492 
L 92.040359 248.718699 
L 92.909193 248.975095 
L 94.646861 248.975095 
L 96.384529 249.487888 
L 98.991031 248.718699 
L 99.859865 248.718699 
L 100.7287 248.205906 
L 101.597534 247.94951 
L 102.466368 247.94951 
L 103.335202 247.693114 
L 104.204036 247.693114 
L 105.07287 247.94951 
L 105.941704 247.693114 
L 107.679372 247.693114 
L 108.548206 246.923925 
L 110.285874 244.872754 
L 111.154709 244.103566 
L 112.892377 243.590773 
L 113.761211 243.07798 
L 115.498879 244.103566 
L 116.367713 243.847169 
L 118.105381 242.821584 
L 119.843049 240.257621 
L 120.711883 239.232036 
L 121.580717 238.97564 
L 122.449552 239.488432 
L 124.18722 241.02681 
L 125.924888 242.052395 
L 126.793722 240.514017 
L 127.662556 238.462847 
L 128.53139 235.129695 
L 129.400224 232.565732 
L 130.269058 229.488977 
L 131.137892 228.463391 
L 132.006726 224.873843 
L 132.875561 224.361051 
L 133.744395 224.104654 
L 134.613229 225.386636 
L 135.482063 223.848258 
L 136.350897 224.104654 
L 137.219731 223.335465 
L 138.088565 223.079069 
L 138.957399 217.438351 
L 139.826233 216.925558 
L 140.695067 216.156369 
L 141.563901 218.720332 
L 142.432735 219.745917 
L 144.170404 218.720332 
L 145.039238 219.745917 
L 145.908072 215.130784 
L 146.776906 211.797632 
L 147.64574 210.002858 
L 148.514574 210.259254 
L 149.383408 212.566821 
L 150.252242 213.33601 
L 151.121076 212.566821 
L 151.98991 213.848802 
L 152.858744 214.105199 
L 153.727578 213.079614 
L 154.596413 213.592406 
L 155.465247 213.33601 
L 156.334081 212.310425 
L 157.202915 210.772047 
L 158.940583 203.336554 
L 159.809417 203.336554 
L 160.678251 201.798176 
L 161.547085 200.772591 
L 162.415919 203.59295 
L 163.284753 202.567365 
L 164.153587 200.516195 
L 165.022422 197.439439 
L 165.891256 196.157458 
L 166.76009 196.413854 
L 167.628924 196.926647 
L 168.497758 194.362684 
L 169.366592 196.67025 
L 170.235426 196.926647 
L 171.10426 197.695836 
L 171.973094 196.413854 
L 172.841928 195.901062 
L 173.710762 194.362684 
L 174.579596 194.362684 
L 175.44843 191.285928 
L 176.317265 191.029532 
L 177.186099 188.721965 
L 178.054933 187.952776 
L 178.923767 187.952776 
L 179.792601 186.414398 
L 180.661435 187.183587 
L 181.530269 186.158002 
L 182.399103 185.901606 
L 183.267937 188.465569 
L 184.136771 189.74755 
L 185.874439 195.388269 
L 186.743274 194.106287 
L 187.612108 197.695836 
L 188.480942 198.721421 
L 189.349776 199.49061 
L 190.21861 201.798176 
L 191.087444 201.798176 
L 191.956278 202.054573 
L 192.825112 200.772591 
L 193.693946 196.926647 
L 194.56278 198.465024 
L 196.300448 203.336554 
L 197.169283 208.208084 
L 198.038117 212.310425 
L 198.906951 215.643576 
L 199.775785 216.925558 
L 200.644619 215.130784 
L 201.513453 214.361595 
L 202.382287 215.643576 
L 203.251121 216.669162 
L 204.119955 218.207539 
L 204.988789 216.925558 
L 205.857623 218.720332 
L 206.726457 218.720332 
L 207.595291 218.976728 
L 208.464126 216.412765 
L 209.33296 215.38718 
L 210.201794 213.592406 
L 211.070628 213.33601 
L 211.939462 211.797632 
L 212.808296 213.079614 
L 213.67713 214.105199 
L 214.545964 218.207539 
L 215.414798 221.540691 
L 216.283632 222.822673 
L 217.152466 224.361051 
L 218.0213 224.617447 
L 218.890135 222.822673 
L 219.758969 222.30988 
L 220.627803 219.489521 
L 221.496637 218.976728 
L 222.365471 217.951143 
L 223.234305 216.156369 
L 224.103139 215.130784 
L 224.971973 216.925558 
L 225.840807 218.463936 
L 226.709641 221.797088 
L 227.578475 224.104654 
L 228.447309 227.694203 
L 229.316143 229.745373 
L 230.184978 229.488977 
L 231.053812 228.976184 
L 231.922646 229.23258 
L 232.79148 230.001769 
L 233.660314 230.258165 
L 234.529148 229.488977 
L 235.397982 228.463391 
L 236.266816 227.950599 
L 237.13565 226.155825 
L 238.004484 225.643032 
L 238.873318 225.899428 
L 239.742152 226.925014 
L 240.610987 227.18141 
L 242.348655 226.155825 
L 243.217489 226.155825 
L 244.086323 224.361051 
L 244.955157 224.104654 
L 245.823991 225.13024 
L 246.692825 226.412221 
L 247.561659 226.925014 
L 248.430493 227.950599 
L 249.299327 227.950599 
L 250.168161 228.719788 
L 251.036996 228.719788 
L 251.90583 228.206995 
L 252.774664 228.463391 
L 253.643498 228.976184 
L 254.512332 228.463391 
L 255.381166 228.719788 
L 256.25 230.001769 
L 257.118834 231.027354 
L 257.987668 230.514562 
L 259.725336 228.463391 
L 260.59417 226.668617 
L 262.331839 224.617447 
L 263.200673 223.848258 
L 264.069507 225.643032 
L 264.938341 225.643032 
L 265.807175 221.540691 
L 266.676009 220.515106 
L 267.544843 218.207539 
L 268.413677 217.438351 
L 271.020179 219.745917 
L 271.889013 223.591862 
L 272.757848 224.104654 
L 273.626682 224.361051 
L 274.495516 223.335465 
L 275.36435 223.335465 
L 277.102018 224.361051 
L 277.970852 222.822673 
L 278.839686 220.25871 
L 280.577354 216.412765 
L 281.446188 214.874388 
L 282.315022 213.592406 
L 283.183857 213.079614 
L 284.052691 211.284839 
L 284.921525 210.772047 
L 285.790359 208.720876 
L 286.659193 207.951688 
L 287.528027 205.900517 
L 288.396861 205.900517 
L 289.265695 206.669706 
L 290.134529 208.208084 
L 291.003363 206.41331 
L 291.872197 209.233669 
L 292.741031 209.233669 
L 293.609865 210.515651 
L 294.4787 208.46448 
L 295.347534 204.874932 
L 296.216368 200.516195 
L 297.085202 199.49061 
L 297.954036 198.208628 
L 298.82287 198.721421 
L 299.691704 197.183043 
L 300.560538 198.721421 
L 301.429372 197.439439 
L 302.298206 194.61908 
L 303.16704 191.029532 
L 304.035874 184.106832 
L 304.904709 182.312058 
L 305.773543 184.876021 
L 306.642377 186.670795 
L 307.511211 185.901606 
L 308.380045 186.927191 
L 309.248879 185.132417 
L 310.117713 185.901606 
L 310.986547 183.594039 
L 311.855381 182.055661 
L 312.724215 183.337643 
L 313.593049 186.158002 
L 314.461883 185.132417 
L 316.199552 185.132417 
L 317.068386 183.850435 
L 317.93722 184.363228 
L 318.806054 183.850435 
L 319.674888 183.594039 
L 320.543722 186.414398 
L 321.412556 186.158002 
L 322.28139 188.721965 
L 323.150224 193.849891 
L 324.019058 197.183043 
L 324.887892 203.080158 
L 325.756726 211.284839 
L 326.625561 215.38718 
L 327.494395 221.284295 
L 329.232063 225.899428 
L 330.100897 228.719788 
L 330.969731 230.258165 
L 331.838565 230.770958 
L 332.707399 232.05294 
L 333.576233 231.796543 
L 334.445067 232.565732 
L 335.313901 231.796543 
L 336.182735 232.05294 
L 337.05157 233.591317 
L 337.920404 234.873299 
L 338.789238 235.642488 
L 339.658072 236.924469 
L 340.526906 237.180866 
L 342.264574 238.719243 
L 343.133408 238.97564 
L 344.002242 240.001225 
L 344.871076 239.744829 
L 347.477578 239.744829 
L 348.346413 239.488432 
L 349.215247 238.97564 
L 350.952915 238.462847 
L 352.690583 237.437262 
L 353.559417 237.950054 
L 354.428251 238.719243 
L 355.297085 240.257621 
L 356.165919 241.02681 
L 357.034753 241.539603 
L 358.772422 241.539603 
L 359.641256 241.02681 
L 360.51009 241.02681 
L 361.378924 241.539603 
L 362.247758 241.795999 
L 363.985426 242.821584 
L 364.85426 242.821584 
L 365.723094 243.07798 
L 366.591928 242.821584 
L 368.329596 242.821584 
L 369.19843 242.308792 
L 370.067265 241.539603 
L 371.804933 239.488432 
L 372.673767 238.97564 
L 373.542601 237.950054 
L 374.411435 237.180866 
L 375.280269 236.668073 
L 376.149103 236.411677 
L 377.017937 236.411677 
L 377.886771 235.386091 
L 378.755605 235.642488 
L 379.624439 234.873299 
L 380.493274 233.078525 
L 381.362108 231.027354 
L 383.96861 223.335465 
L 384.837444 220.002314 
L 385.706278 220.002314 
L 386.575112 217.694747 
L 389.181614 203.59295 
L 390.050448 199.234213 
L 390.919283 199.234213 
L 391.788117 193.849891 
L 392.656951 194.875476 
L 393.525785 196.157458 
L 394.394619 197.695836 
L 395.263453 198.721421 
L 396.132287 199.49061 
L 397.001121 198.465024 
L 397.869955 200.259799 
L 398.738789 197.695836 
L 399.607623 196.926647 
L 400.476457 195.131873 
L 402.214126 190.260343 
L 403.08296 186.414398 
L 403.951794 184.106832 
L 404.820628 182.82485 
L 405.689462 183.081247 
L 406.558296 181.799265 
L 407.42713 183.337643 
L 408.295964 184.106832 
L 409.164798 186.927191 
L 410.033632 187.952776 
L 410.902466 187.439984 
L 411.7713 185.901606 
L 412.640135 185.64521 
L 413.508969 184.619624 
L 414.377803 185.901606 
L 415.246637 185.388813 
L 416.115471 188.209173 
L 416.984305 186.927191 
L 417.853139 184.363228 
L 418.721973 180.004491 
L 419.590807 174.876565 
L 420.459641 170.774224 
L 421.328475 163.338732 
L 422.197309 156.928824 
L 423.066143 154.621257 
L 423.934978 148.724143 
L 424.803812 144.365406 
L 425.672646 141.545046 
L 426.54148 129.49442 
L 427.410314 132.827572 
L 428.279148 135.647931 
L 429.147982 133.853157 
L 430.88565 120.007757 
L 431.754484 114.110642 
L 432.623318 119.751361 
L 433.492152 117.187398 
L 434.360987 121.802531 
L 435.229821 128.725231 
L 436.098655 138.724687 
L 436.967489 145.647387 
L 437.836323 147.954954 
L 438.705157 147.954954 
L 439.573991 147.185765 
L 440.442825 148.21135 
L 441.311659 146.929369 
L 442.180493 146.672972 
L 443.049327 136.160724 
L 444.786996 127.956042 
L 445.65583 127.956042 
L 446.524664 121.802531 
L 447.393498 123.340909 
L 448.262332 121.033342 
L 449.131166 123.084513 
L 450 117.956587 
L 450 117.956587 
" style="fill:none;stroke:#b3220f;stroke-linecap:square;stroke-width:1.5;"/>
   </g>
   <g id="patch_3">
    <path d="M 62.5 262.5 
L 62.5 27 
" style="fill:none;stroke:#555555;stroke-linecap:square;stroke-linejoin:miter;"/>
   </g>
   <g id="patch_4">
    <path d="M 62.5 262.5 
L 450 262.5 
" style="fill:none;stroke:#555555;stroke-linecap:square;stroke-linejoin:miter;"/>
   </g>
   <g id="text_11">
    <!-- Ciudad Bolívar | Casos nuevos: 2021-06-22 -->
    <g style="fill:#555555;" transform="translate(119.976406 17)scale(0.14 -0.14)">
     <defs>
      <path d="M 58 49.90625 
L 67.5 49.90625 
Q 66.703125 55.59375 64.09375 59.9375 
Q 61.5 64.296875 57.59375 67.1875 
Q 53.703125 70.09375 48.703125 71.59375 
Q 43.703125 73.09375 38.09375 73.09375 
Q 29.90625 73.09375 23.546875 70.140625 
Q 17.203125 67.203125 12.953125 62.09375 
Q 8.703125 57 6.5 50.140625 
Q 4.296875 43.296875 4.296875 35.5 
Q 4.296875 27.703125 6.34375 20.890625 
Q 8.40625 14.09375 12.5 9.09375 
Q 16.59375 4.09375 22.796875 1.25 
Q 29 -1.59375 37.296875 -1.59375 
Q 51 -1.59375 58.890625 5.90625 
Q 66.796875 13.40625 68.203125 26.90625 
L 58.703125 26.90625 
Q 58.40625 22.5 56.90625 18.703125 
Q 55.40625 14.90625 52.75 12.15625 
Q 50.09375 9.40625 46.4375 7.84375 
Q 42.796875 6.296875 38.09375 6.296875 
Q 31.703125 6.296875 27.09375 8.6875 
Q 22.5 11.09375 19.546875 15.140625 
Q 16.59375 19.203125 15.1875 24.640625 
Q 13.796875 30.09375 13.796875 36.203125 
Q 13.796875 41.796875 15.1875 47 
Q 16.59375 52.203125 19.546875 56.25 
Q 22.5 60.296875 27.046875 62.6875 
Q 31.59375 65.09375 38 65.09375 
Q 45.5 65.09375 50.953125 61.296875 
Q 56.40625 57.5 58 49.90625 
z
" id="HelveticaNeue-67"/>
      <path d="M 15.40625 61 
L 15.40625 71.40625 
L 6.90625 71.40625 
L 6.90625 61 
z
M 6.90625 51.703125 
L 6.90625 0 
L 15.40625 0 
L 15.40625 51.703125 
z
" id="HelveticaNeue-105"/>
      <path d="M 12.59375 25.40625 
Q 12.59375 29.203125 13.390625 32.796875 
Q 14.203125 36.40625 16 39.203125 
Q 17.796875 42 20.796875 43.703125 
Q 23.796875 45.40625 28.09375 45.40625 
Q 32.5 45.40625 35.59375 43.75 
Q 38.703125 42.09375 40.640625 39.390625 
Q 42.59375 36.703125 43.5 33.140625 
Q 44.40625 29.59375 44.40625 25.796875 
Q 44.40625 22.203125 43.546875 18.703125 
Q 42.703125 15.203125 40.796875 12.453125 
Q 38.90625 9.703125 35.90625 8 
Q 32.90625 6.296875 28.59375 6.296875 
Q 24.5 6.296875 21.453125 7.890625 
Q 18.40625 9.5 16.453125 12.203125 
Q 14.5 14.90625 13.546875 18.34375 
Q 12.59375 21.796875 12.59375 25.40625 
z
M 52.59375 0 
L 52.59375 71.40625 
L 44.09375 71.40625 
L 44.09375 44.796875 
L 43.90625 44.796875 
Q 42.5 47.09375 40.453125 48.640625 
Q 38.40625 50.203125 36.09375 51.140625 
Q 33.796875 52.09375 31.5 52.5 
Q 29.203125 52.90625 27.203125 52.90625 
Q 21.296875 52.90625 16.84375 50.75 
Q 12.40625 48.59375 9.453125 44.9375 
Q 6.5 41.296875 5.046875 36.390625 
Q 3.59375 31.5 3.59375 26 
Q 3.59375 20.5 5.09375 15.59375 
Q 6.59375 10.703125 9.546875 7 
Q 12.5 3.296875 16.953125 1.09375 
Q 21.40625 -1.09375 27.40625 -1.09375 
Q 32.796875 -1.09375 37.296875 0.796875 
Q 41.796875 2.703125 43.90625 7 
L 44.09375 7 
L 44.09375 0 
z
" id="HelveticaNeue-100"/>
      <path id="HelveticaNeue-32"/>
      <path d="M 17.296875 40.703125 
L 17.296875 63.40625 
L 36.296875 63.40625 
Q 39.40625 63.40625 42.15625 63.046875 
Q 44.90625 62.703125 47 61.5 
Q 49.09375 60.296875 50.296875 58.09375 
Q 51.5 55.90625 51.5 52.09375 
Q 51.5 46.40625 47.953125 43.546875 
Q 44.40625 40.703125 36.296875 40.703125 
z
M 7.796875 71.40625 
L 7.796875 0 
L 42.296875 0 
Q 47.59375 0 51.640625 1.75 
Q 55.703125 3.5 58.453125 6.34375 
Q 61.203125 9.203125 62.59375 12.890625 
Q 64 16.59375 64 20.5 
Q 64 27.09375 60.5 31.6875 
Q 57 36.296875 50.40625 37.703125 
L 50.40625 37.90625 
Q 55.5 39.90625 58.25 44.046875 
Q 61 48.203125 61 53.90625 
Q 61 59.296875 58.546875 63 
Q 56.09375 66.703125 52.59375 68.796875 
Q 51 69.796875 48.75 70.296875 
Q 46.5 70.796875 43.890625 71.046875 
Q 41.296875 71.296875 38.640625 71.34375 
Q 36 71.40625 33.703125 71.40625 
z
M 17.296875 8 
L 17.296875 32.703125 
L 39 32.703125 
Q 42 32.703125 44.796875 32.140625 
Q 47.59375 31.59375 49.75 30.25 
Q 51.90625 28.90625 53.203125 26.59375 
Q 54.5 24.296875 54.5 20.796875 
Q 54.5 14.796875 50.953125 11.390625 
Q 47.40625 8 41.09375 8 
z
" id="HelveticaNeue-66"/>
      <path d="M 12.59375 25.796875 
Q 12.59375 30.5 13.84375 34.140625 
Q 15.09375 37.796875 17.296875 40.296875 
Q 19.5 42.796875 22.453125 44.09375 
Q 25.40625 45.40625 28.703125 45.40625 
Q 32 45.40625 34.953125 44.09375 
Q 37.90625 42.796875 40.09375 40.296875 
Q 42.296875 37.796875 43.546875 34.140625 
Q 44.796875 30.5 44.796875 25.796875 
Q 44.796875 21.09375 43.546875 17.4375 
Q 42.296875 13.796875 40.09375 11.34375 
Q 37.90625 8.90625 34.953125 7.59375 
Q 32 6.296875 28.703125 6.296875 
Q 25.40625 6.296875 22.453125 7.59375 
Q 19.5 8.90625 17.296875 11.34375 
Q 15.09375 13.796875 13.84375 17.4375 
Q 12.59375 21.09375 12.59375 25.796875 
z
M 3.59375 25.796875 
Q 3.59375 20.09375 5.1875 15.1875 
Q 6.796875 10.296875 10 6.640625 
Q 13.203125 3 17.890625 0.953125 
Q 22.59375 -1.09375 28.703125 -1.09375 
Q 34.90625 -1.09375 39.546875 0.953125 
Q 44.203125 3 47.390625 6.640625 
Q 50.59375 10.296875 52.1875 15.1875 
Q 53.796875 20.09375 53.796875 25.796875 
Q 53.796875 31.5 52.1875 36.453125 
Q 50.59375 41.40625 47.390625 45.046875 
Q 44.203125 48.703125 39.546875 50.796875 
Q 34.90625 52.90625 28.703125 52.90625 
Q 22.59375 52.90625 17.890625 50.796875 
Q 13.203125 48.703125 10 45.046875 
Q 6.796875 41.40625 5.1875 36.453125 
Q 3.59375 31.5 3.59375 25.796875 
z
" id="HelveticaNeue-111"/>
      <path d="M 6.90625 0 
L 15.40625 0 
L 15.40625 51.703125 
L 6.90625 51.703125 
z
M 25.5 77 
L 11.40625 60.796875 
L 5 60.796875 
L 14.59375 77 
z
" id="HelveticaNeue-237"/>
      <path d="M 29.703125 0 
L 48.59375 51.703125 
L 39.703125 51.703125 
L 25.59375 8.59375 
L 25.40625 8.59375 
L 10.90625 51.703125 
L 1.40625 51.703125 
L 20.59375 0 
z
" id="HelveticaNeue-118"/>
      <path d="M 7.703125 78.59375 
L 7.703125 -21.296875 
L 14.5 -21.296875 
L 14.5 78.59375 
z
" id="HelveticaNeue-124"/>
      <path d="M 11.59375 16.296875 
L 3.09375 16.296875 
Q 3.296875 11.5 5.09375 8.140625 
Q 6.90625 4.796875 9.90625 2.75 
Q 12.90625 0.703125 16.796875 -0.1875 
Q 20.703125 -1.09375 25 -1.09375 
Q 28.90625 -1.09375 32.84375 -0.34375 
Q 36.796875 0.40625 39.9375 2.296875 
Q 43.09375 4.203125 45.046875 7.296875 
Q 47 10.40625 47 15.09375 
Q 47 18.796875 45.546875 21.296875 
Q 44.09375 23.796875 41.75 25.4375 
Q 39.40625 27.09375 36.34375 28.09375 
Q 33.296875 29.09375 30.09375 29.796875 
Q 27.09375 30.5 24.09375 31.140625 
Q 21.09375 31.796875 18.6875 32.75 
Q 16.296875 33.703125 14.75 35.140625 
Q 13.203125 36.59375 13.203125 38.796875 
Q 13.203125 40.796875 14.203125 42.046875 
Q 15.203125 43.296875 16.796875 44.046875 
Q 18.40625 44.796875 20.34375 45.09375 
Q 22.296875 45.40625 24.203125 45.40625 
Q 26.296875 45.40625 28.34375 44.953125 
Q 30.40625 44.5 32.09375 43.5 
Q 33.796875 42.5 34.890625 40.84375 
Q 36 39.203125 36.203125 36.703125 
L 44.703125 36.703125 
Q 44.40625 41.40625 42.703125 44.546875 
Q 41 47.703125 38.140625 49.546875 
Q 35.296875 51.40625 31.59375 52.15625 
Q 27.90625 52.90625 23.5 52.90625 
Q 20.09375 52.90625 16.640625 52.046875 
Q 13.203125 51.203125 10.453125 49.453125 
Q 7.703125 47.703125 5.953125 44.890625 
Q 4.203125 42.09375 4.203125 38.203125 
Q 4.203125 33.203125 6.703125 30.390625 
Q 9.203125 27.59375 12.953125 26.046875 
Q 16.703125 24.5 21.09375 23.640625 
Q 25.5 22.796875 29.25 21.75 
Q 33 20.703125 35.5 19 
Q 38 17.296875 38 14 
Q 38 11.59375 36.796875 10.046875 
Q 35.59375 8.5 33.75 7.703125 
Q 31.90625 6.90625 29.703125 6.59375 
Q 27.5 6.296875 25.5 6.296875 
Q 22.90625 6.296875 20.453125 6.796875 
Q 18 7.296875 16.046875 8.4375 
Q 14.09375 9.59375 12.890625 11.546875 
Q 11.703125 13.5 11.59375 16.296875 
z
" id="HelveticaNeue-115"/>
      <path d="M 19.40625 40.59375 
L 19.40625 51.703125 
L 8.296875 51.703125 
L 8.296875 40.59375 
z
M 8.296875 11.09375 
L 8.296875 0 
L 19.40625 0 
L 19.40625 11.09375 
z
" id="HelveticaNeue-58"/>
      <path d="M 5 31.796875 
L 5 23.796875 
L 33.90625 23.796875 
L 33.90625 31.796875 
z
" id="HelveticaNeue-45"/>
     </defs>
     <use xlink:href="#HelveticaNeue-67"/>
     <use x="72.199982" xlink:href="#HelveticaNeue-105"/>
     <use x="94.399979" xlink:href="#HelveticaNeue-117"/>
     <use x="149.999969" xlink:href="#HelveticaNeue-100"/>
     <use x="209.299957" xlink:href="#HelveticaNeue-97"/>
     <use x="262.999954" xlink:href="#HelveticaNeue-100"/>
     <use x="322.299942" xlink:href="#HelveticaNeue-32"/>
     <use x="350.09993" xlink:href="#HelveticaNeue-66"/>
     <use x="418.599915" xlink:href="#HelveticaNeue-111"/>
     <use x="475.999908" xlink:href="#HelveticaNeue-108"/>
     <use x="498.199905" xlink:href="#HelveticaNeue-237"/>
     <use x="520.399902" xlink:href="#HelveticaNeue-118"/>
     <use x="570.399887" xlink:href="#HelveticaNeue-97"/>
     <use x="624.099884" xlink:href="#HelveticaNeue-114"/>
     <use x="657.399872" xlink:href="#HelveticaNeue-32"/>
     <use x="685.19986" xlink:href="#HelveticaNeue-124"/>
     <use x="707.399857" xlink:href="#HelveticaNeue-32"/>
     <use x="735.199844" xlink:href="#HelveticaNeue-67"/>
     <use x="807.399826" xlink:href="#HelveticaNeue-97"/>
     <use x="861.099823" xlink:href="#HelveticaNeue-115"/>
     <use x="911.099808" xlink:href="#HelveticaNeue-111"/>
     <use x="968.499802" xlink:href="#HelveticaNeue-115"/>
     <use x="1018.499786" xlink:href="#HelveticaNeue-32"/>
     <use x="1046.299774" xlink:href="#HelveticaNeue-110"/>
     <use x="1101.899765" xlink:href="#HelveticaNeue-117"/>
     <use x="1157.499756" xlink:href="#HelveticaNeue-101"/>
     <use x="1211.199753" xlink:href="#HelveticaNeue-118"/>
     <use x="1261.199738" xlink:href="#HelveticaNeue-111"/>
     <use x="1318.599731" xlink:href="#HelveticaNeue-115"/>
     <use x="1368.599716" xlink:href="#HelveticaNeue-58"/>
     <use x="1396.399704" xlink:href="#HelveticaNeue-32"/>
     <use x="1424.199692" xlink:href="#HelveticaNeue-50"/>
     <use x="1479.799683" xlink:href="#HelveticaNeue-48"/>
     <use x="1535.399673" xlink:href="#HelveticaNeue-50"/>
     <use x="1590.999664" xlink:href="#HelveticaNeue-49"/>
     <use x="1646.599655" xlink:href="#HelveticaNeue-45"/>
     <use x="1685.499649" xlink:href="#HelveticaNeue-48"/>
     <use x="1741.09964" xlink:href="#HelveticaNeue-54"/>
     <use x="1796.699631" xlink:href="#HelveticaNeue-45"/>
     <use x="1835.599625" xlink:href="#HelveticaNeue-50"/>
     <use x="1891.199615" xlink:href="#HelveticaNeue-50"/>
    </g>
   </g>
   <g id="legend_1">
    <g id="line2d_24">
     <path d="M 71.5 39.640625 
L 91.5 39.640625 
" style="fill:none;stroke:#000000;stroke-dasharray:1.5,2.475;stroke-dashoffset:0;stroke-opacity:0.5;stroke-width:1.5;"/>
    </g>
    <g id="line2d_25"/>
    <g id="text_12">
     <!-- Actual -->
     <g style="fill:#555555;" transform="translate(99.5 43.140625)scale(0.1 -0.1)">
      <use xlink:href="#HelveticaNeue-65"/>
      <use x="64.799988" xlink:href="#HelveticaNeue-99"/>
      <use x="118.499985" xlink:href="#HelveticaNeue-116"/>
      <use x="149.999969" xlink:href="#HelveticaNeue-117"/>
      <use x="205.59996" xlink:href="#HelveticaNeue-97"/>
      <use x="259.299957" xlink:href="#HelveticaNeue-108"/>
     </g>
    </g>
    <g id="line2d_26">
     <path d="M 71.5 54.310937 
L 91.5 54.310937 
" style="fill:none;stroke:#b3220f;stroke-linecap:square;stroke-width:1.5;"/>
    </g>
    <g id="line2d_27"/>
    <g id="text_13">
     <!-- Promedio semanal (7 días)  -->
     <g style="fill:#555555;" transform="translate(99.5 57.810937)scale(0.1 -0.1)">
      <defs>
       <path d="M 17.296875 37.203125 
L 17.296875 63.40625 
L 35.90625 63.40625 
Q 44 63.40625 47.75 60.046875 
Q 51.5 56.703125 51.5 50.296875 
Q 51.5 43.90625 47.75 40.5 
Q 44 37.09375 35.90625 37.203125 
z
M 7.796875 71.40625 
L 7.796875 0 
L 17.296875 0 
L 17.296875 29.203125 
L 39.09375 29.203125 
Q 49.90625 29.09375 55.453125 34.6875 
Q 61 40.296875 61 50.296875 
Q 61 60.296875 55.453125 65.84375 
Q 49.90625 71.40625 39.09375 71.40625 
z
" id="HelveticaNeue-80"/>
       <path d="M 6.40625 51.703125 
L 6.40625 0 
L 14.90625 0 
L 14.90625 32.203125 
Q 14.90625 33.703125 15.65625 35.953125 
Q 16.40625 38.203125 18.046875 40.296875 
Q 19.703125 42.40625 22.34375 43.90625 
Q 25 45.40625 28.703125 45.40625 
Q 31.59375 45.40625 33.4375 44.546875 
Q 35.296875 43.703125 36.390625 42.140625 
Q 37.5 40.59375 37.953125 38.5 
Q 38.40625 36.40625 38.40625 33.90625 
L 38.40625 0 
L 46.90625 0 
L 46.90625 32.203125 
Q 46.90625 38.203125 50.5 41.796875 
Q 54.09375 45.40625 60.40625 45.40625 
Q 63.5 45.40625 65.453125 44.5 
Q 67.40625 43.59375 68.5 42.046875 
Q 69.59375 40.5 70 38.390625 
Q 70.40625 36.296875 70.40625 33.90625 
L 70.40625 0 
L 78.90625 0 
L 78.90625 37.90625 
Q 78.90625 41.90625 77.65625 44.75 
Q 76.40625 47.59375 74.15625 49.390625 
Q 71.90625 51.203125 68.75 52.046875 
Q 65.59375 52.90625 61.703125 52.90625 
Q 56.59375 52.90625 52.34375 50.59375 
Q 48.09375 48.296875 45.5 44.09375 
Q 43.90625 48.90625 40 50.90625 
Q 36.09375 52.90625 31.296875 52.90625 
Q 20.40625 52.90625 14.59375 44.09375 
L 14.40625 44.09375 
L 14.40625 51.703125 
z
" id="HelveticaNeue-109"/>
       <path d="M 20.40625 -19.703125 
L 26.90625 -19.703125 
Q 19.796875 -8.203125 16.75 3.09375 
Q 13.703125 14.40625 13.703125 27 
Q 13.703125 39.296875 16.703125 50.5 
Q 19.703125 61.703125 26.90625 73.09375 
L 20.40625 73.09375 
Q 12.59375 62.796875 8.640625 50.796875 
Q 4.703125 38.796875 4.703125 27 
Q 4.703125 20.40625 5.796875 14.40625 
Q 6.90625 8.40625 8.953125 2.703125 
Q 11 -3 13.890625 -8.546875 
Q 16.796875 -14.09375 20.40625 -19.703125 
z
" id="HelveticaNeue-40"/>
       <path d="M 50.90625 62.40625 
L 50.90625 69.703125 
L 5 69.703125 
L 5 61.703125 
L 42.203125 61.703125 
Q 36.59375 55.796875 31.75 48.796875 
Q 26.90625 41.796875 23.203125 33.9375 
Q 19.5 26.09375 17.140625 17.546875 
Q 14.796875 9 14.203125 0 
L 23.703125 0 
Q 24.203125 8.296875 26.5 17.09375 
Q 28.796875 25.90625 32.4375 34.203125 
Q 36.09375 42.5 40.796875 49.796875 
Q 45.5 57.09375 50.90625 62.40625 
z
" id="HelveticaNeue-55"/>
       <path d="M -0.90625 -19.703125 
L 5.5 -19.703125 
Q 13.296875 -9.40625 17.25 2.546875 
Q 21.203125 14.5 21.203125 26.296875 
Q 21.203125 32.90625 20.09375 38.90625 
Q 19 44.90625 16.953125 50.65625 
Q 14.90625 56.40625 12 61.953125 
Q 9.09375 67.5 5.5 73.09375 
L -0.90625 73.09375 
Q 6.09375 61.59375 9.140625 50.25 
Q 12.203125 38.90625 12.203125 26.296875 
Q 12.203125 14.09375 9.203125 2.84375 
Q 6.203125 -8.40625 -0.90625 -19.703125 
z
" id="HelveticaNeue-41"/>
      </defs>
      <use xlink:href="#HelveticaNeue-80"/>
      <use x="64.799988" xlink:href="#HelveticaNeue-114"/>
      <use x="96.349976" xlink:href="#HelveticaNeue-111"/>
      <use x="153.749969" xlink:href="#HelveticaNeue-109"/>
      <use x="239.049957" xlink:href="#HelveticaNeue-101"/>
      <use x="292.749954" xlink:href="#HelveticaNeue-100"/>
      <use x="352.049942" xlink:href="#HelveticaNeue-105"/>
      <use x="374.249939" xlink:href="#HelveticaNeue-111"/>
      <use x="431.649933" xlink:href="#HelveticaNeue-32"/>
      <use x="459.449921" xlink:href="#HelveticaNeue-115"/>
      <use x="509.449905" xlink:href="#HelveticaNeue-101"/>
      <use x="563.149902" xlink:href="#HelveticaNeue-109"/>
      <use x="648.44989" xlink:href="#HelveticaNeue-97"/>
      <use x="702.149887" xlink:href="#HelveticaNeue-110"/>
      <use x="757.749878" xlink:href="#HelveticaNeue-97"/>
      <use x="811.449875" xlink:href="#HelveticaNeue-108"/>
      <use x="833.649872" xlink:href="#HelveticaNeue-32"/>
      <use x="861.44986" xlink:href="#HelveticaNeue-40"/>
      <use x="887.349854" xlink:href="#HelveticaNeue-55"/>
      <use x="942.949844" xlink:href="#HelveticaNeue-32"/>
      <use x="970.749832" xlink:href="#HelveticaNeue-100"/>
      <use x="1030.04982" xlink:href="#HelveticaNeue-237"/>
      <use x="1052.249817" xlink:href="#HelveticaNeue-97"/>
      <use x="1105.949814" xlink:href="#HelveticaNeue-115"/>
      <use x="1155.949799" xlink:href="#HelveticaNeue-41"/>
      <use x="1181.849792" xlink:href="#HelveticaNeue-32"/>
     </g>
    </g>
   </g>
  </g>
 </g>
 <defs>
  <clipPath id="pdf7357f34a">
   <rect height="235.5" width="387.5" x="62.5" y="27"/>
  </clipPath>
 </defs>
</svg>
