<?xml version="1.0" encoding="utf-8" standalone="no"?>
<!DOCTYPE svg PUBLIC "-//W3C//DTD SVG 1.1//EN"
  "http://www.w3.org/Graphics/SVG/1.1/DTD/svg11.dtd">
<!-- Created with matplotlib (https://matplotlib.org/) -->
<svg height="300pt" version="1.1" viewBox="0 0 500 300" width="500pt" xmlns="http://www.w3.org/2000/svg" xmlns:xlink="http://www.w3.org/1999/xlink">
 <metadata>
  <rdf:RDF xmlns:cc="http://creativecommons.org/ns#" xmlns:dc="http://purl.org/dc/elements/1.1/" xmlns:rdf="http://www.w3.org/1999/02/22-rdf-syntax-ns#">
   <cc:Work>
    <dc:type rdf:resource="http://purl.org/dc/dcmitype/StillImage"/>
    <dc:date>2021-06-21T21:58:53.851182</dc:date>
    <dc:format>image/svg+xml</dc:format>
    <dc:creator>
     <cc:Agent>
      <dc:title>Matplotlib v3.3.4, https://matplotlib.org/</dc:title>
     </cc:Agent>
    </dc:creator>
   </cc:Work>
  </rdf:RDF>
 </metadata>
 <defs>
  <style type="text/css">*{stroke-linecap:butt;stroke-linejoin:round;}</style>
 </defs>
 <g id="figure_1">
  <g id="patch_1">
   <path d="M 0 300 
L 500 300 
L 500 0 
L 0 0 
z
" style="fill:#ffffff;"/>
  </g>
  <g id="axes_1">
   <g id="patch_2">
    <path d="M 62.5 262.5 
L 450 262.5 
L 450 27 
L 62.5 27 
z
" style="fill:#ffffff;"/>
   </g>
   <g id="matplotlib.axis_1">
    <g id="xtick_1">
     <g id="line2d_1">
      <defs>
       <path d="M 0 0 
L 0 3.5 
" id="m109dfd3573" style="stroke:#555555;stroke-width:0.8;"/>
      </defs>
      <g>
       <use style="fill:#555555;stroke:#555555;stroke-width:0.8;" x="62.5" xlink:href="#m109dfd3573" y="262.5"/>
      </g>
     </g>
    </g>
    <g id="xtick_2">
     <g id="line2d_2">
      <g>
       <use style="fill:#555555;stroke:#555555;stroke-width:0.8;" x="141.224605" xlink:href="#m109dfd3573" y="262.5"/>
      </g>
     </g>
     <g id="text_1">
      <!-- Jul -->
      <g style="fill:#555555;" transform="translate(134.739449 276.640625)scale(0.1 -0.1)">
       <defs>
        <path d="M 44.09375 17.796875 
L 44.09375 71.40625 
L 34.59375 71.40625 
L 34.59375 19.203125 
Q 34.59375 13.296875 32.140625 9.796875 
Q 29.703125 6.296875 23.203125 6.296875 
Q 19.703125 6.296875 17.453125 7.34375 
Q 15.203125 8.40625 13.953125 10.296875 
Q 12.703125 12.203125 12.203125 14.796875 
Q 11.703125 17.40625 11.703125 20.5 
L 11.703125 23.5 
L 2.203125 23.5 
L 2.203125 19.09375 
Q 2.203125 8.90625 7.59375 3.65625 
Q 13 -1.59375 23 -1.59375 
Q 29 -1.59375 33.046875 0.046875 
Q 37.09375 1.703125 39.546875 4.453125 
Q 42 7.203125 43.046875 10.703125 
Q 44.09375 14.203125 44.09375 17.796875 
z
" id="HelveticaNeue-74"/>
        <path d="M 49.203125 0 
L 49.203125 51.703125 
L 40.703125 51.703125 
L 40.703125 22.5 
Q 40.703125 19 39.75 16.046875 
Q 38.796875 13.09375 36.890625 10.890625 
Q 35 8.703125 32.140625 7.5 
Q 29.296875 6.296875 25.40625 6.296875 
Q 20.5 6.296875 17.703125 9.09375 
Q 14.90625 11.90625 14.90625 16.703125 
L 14.90625 51.703125 
L 6.40625 51.703125 
L 6.40625 17.703125 
Q 6.40625 13.5 7.25 10.046875 
Q 8.09375 6.59375 10.1875 4.09375 
Q 12.296875 1.59375 15.6875 0.25 
Q 19.09375 -1.09375 24.203125 -1.09375 
Q 29.90625 -1.09375 34.09375 1.15625 
Q 38.296875 3.40625 41 8.203125 
L 41.203125 8.203125 
L 41.203125 0 
z
" id="HelveticaNeue-117"/>
        <path d="M 6.90625 71.40625 
L 6.90625 0 
L 15.40625 0 
L 15.40625 71.40625 
z
" id="HelveticaNeue-108"/>
       </defs>
       <use xlink:href="#HelveticaNeue-74"/>
       <use x="51.899994" xlink:href="#HelveticaNeue-117"/>
       <use x="107.499985" xlink:href="#HelveticaNeue-108"/>
      </g>
     </g>
    </g>
    <g id="xtick_3">
     <g id="line2d_3">
      <g>
       <use style="fill:#555555;stroke:#555555;stroke-width:0.8;" x="221.698646" xlink:href="#m109dfd3573" y="262.5"/>
      </g>
     </g>
     <g id="text_2">
      <!-- Oct -->
      <g style="fill:#555555;" transform="translate(213.638489 276.640625)scale(0.1 -0.1)">
       <defs>
        <path d="M 13.296875 35.703125 
Q 13.296875 41.09375 14.6875 46.34375 
Q 16.09375 51.59375 19.09375 55.796875 
Q 22.09375 60 26.796875 62.546875 
Q 31.5 65.09375 38 65.09375 
Q 44.5 65.09375 49.203125 62.546875 
Q 53.90625 60 56.90625 55.796875 
Q 59.90625 51.59375 61.296875 46.34375 
Q 62.703125 41.09375 62.703125 35.703125 
Q 62.703125 30.296875 61.296875 25.046875 
Q 59.90625 19.796875 56.90625 15.59375 
Q 53.90625 11.40625 49.203125 8.84375 
Q 44.5 6.296875 38 6.296875 
Q 31.5 6.296875 26.796875 8.84375 
Q 22.09375 11.40625 19.09375 15.59375 
Q 16.09375 19.796875 14.6875 25.046875 
Q 13.296875 30.296875 13.296875 35.703125 
z
M 3.796875 35.703125 
Q 3.796875 28.40625 5.9375 21.65625 
Q 8.09375 14.90625 12.390625 9.703125 
Q 16.703125 4.5 23.09375 1.453125 
Q 29.5 -1.59375 38 -1.59375 
Q 46.5 -1.59375 52.890625 1.453125 
Q 59.296875 4.5 63.59375 9.703125 
Q 67.90625 14.90625 70.046875 21.65625 
Q 72.203125 28.40625 72.203125 35.703125 
Q 72.203125 43 70.046875 49.75 
Q 67.90625 56.5 63.59375 61.703125 
Q 59.296875 66.90625 52.890625 70 
Q 46.5 73.09375 38 73.09375 
Q 29.5 73.09375 23.09375 70 
Q 16.703125 66.90625 12.390625 61.703125 
Q 8.09375 56.5 5.9375 49.75 
Q 3.796875 43 3.796875 35.703125 
z
" id="HelveticaNeue-79"/>
        <path d="M 41.5 35.09375 
L 50.296875 35.09375 
Q 49.796875 39.703125 47.890625 43.046875 
Q 46 46.40625 43.046875 48.59375 
Q 40.09375 50.796875 36.25 51.84375 
Q 32.40625 52.90625 28 52.90625 
Q 21.90625 52.90625 17.296875 50.75 
Q 12.703125 48.59375 9.640625 44.84375 
Q 6.59375 41.09375 5.09375 36.046875 
Q 3.59375 31 3.59375 25.203125 
Q 3.59375 19.40625 5.140625 14.546875 
Q 6.703125 9.703125 9.75 6.203125 
Q 12.796875 2.703125 17.34375 0.796875 
Q 21.90625 -1.09375 27.796875 -1.09375 
Q 37.703125 -1.09375 43.453125 4.09375 
Q 49.203125 9.296875 50.59375 18.90625 
L 41.90625 18.90625 
Q 41.09375 12.90625 37.546875 9.59375 
Q 34 6.296875 27.703125 6.296875 
Q 23.703125 6.296875 20.796875 7.890625 
Q 17.90625 9.5 16.09375 12.140625 
Q 14.296875 14.796875 13.4375 18.1875 
Q 12.59375 21.59375 12.59375 25.203125 
Q 12.59375 29.09375 13.390625 32.75 
Q 14.203125 36.40625 16.046875 39.203125 
Q 17.90625 42 21 43.703125 
Q 24.09375 45.40625 28.703125 45.40625 
Q 34.09375 45.40625 37.296875 42.703125 
Q 40.5 40 41.5 35.09375 
z
" id="HelveticaNeue-99"/>
        <path d="M 18.203125 51.703125 
L 18.203125 67.203125 
L 9.703125 67.203125 
L 9.703125 51.703125 
L 0.90625 51.703125 
L 0.90625 44.203125 
L 9.703125 44.203125 
L 9.703125 11.296875 
Q 9.703125 7.703125 10.390625 5.5 
Q 11.09375 3.296875 12.546875 2.09375 
Q 14 0.90625 16.34375 0.453125 
Q 18.703125 0 22 0 
L 28.5 0 
L 28.5 7.5 
L 24.59375 7.5 
Q 22.59375 7.5 21.34375 7.640625 
Q 20.09375 7.796875 19.390625 8.296875 
Q 18.703125 8.796875 18.453125 9.6875 
Q 18.203125 10.59375 18.203125 12.09375 
L 18.203125 44.203125 
L 28.5 44.203125 
L 28.5 51.703125 
z
" id="HelveticaNeue-116"/>
       </defs>
       <use xlink:href="#HelveticaNeue-79"/>
       <use x="75.999985" xlink:href="#HelveticaNeue-99"/>
       <use x="129.699982" xlink:href="#HelveticaNeue-116"/>
      </g>
     </g>
    </g>
    <g id="xtick_4">
     <g id="line2d_4">
      <g>
       <use style="fill:#555555;stroke:#555555;stroke-width:0.8;" x="302.172686" xlink:href="#m109dfd3573" y="262.5"/>
      </g>
     </g>
     <g id="text_3">
      <!-- Jan -->
      <g style="fill:#555555;" transform="translate(294.11253 276.640625)scale(0.1 -0.1)">
       <defs>
        <path d="M 52.203125 0.203125 
Q 50 -1.09375 46.09375 -1.09375 
Q 42.796875 -1.09375 40.84375 0.75 
Q 38.90625 2.59375 38.90625 6.796875 
Q 35.40625 2.59375 30.75 0.75 
Q 26.09375 -1.09375 20.703125 -1.09375 
Q 17.203125 -1.09375 14.046875 -0.296875 
Q 10.90625 0.5 8.59375 2.203125 
Q 6.296875 3.90625 4.9375 6.65625 
Q 3.59375 9.40625 3.59375 13.296875 
Q 3.59375 17.703125 5.09375 20.5 
Q 6.59375 23.296875 9.046875 25.046875 
Q 11.5 26.796875 14.640625 27.6875 
Q 17.796875 28.59375 21.09375 29.203125 
Q 24.59375 29.90625 27.75 30.25 
Q 30.90625 30.59375 33.296875 31.25 
Q 35.703125 31.90625 37.09375 33.15625 
Q 38.5 34.40625 38.5 36.796875 
Q 38.5 39.59375 37.453125 41.296875 
Q 36.40625 43 34.75 43.890625 
Q 33.09375 44.796875 31.046875 45.09375 
Q 29 45.40625 27 45.40625 
Q 21.59375 45.40625 18 43.34375 
Q 14.40625 41.296875 14.09375 35.59375 
L 5.59375 35.59375 
Q 5.796875 40.40625 7.59375 43.703125 
Q 9.40625 47 12.40625 49.046875 
Q 15.40625 51.09375 19.25 52 
Q 23.09375 52.90625 27.5 52.90625 
Q 31 52.90625 34.453125 52.40625 
Q 37.90625 51.90625 40.703125 50.34375 
Q 43.5 48.796875 45.203125 46 
Q 46.90625 43.203125 46.90625 38.703125 
L 46.90625 12.09375 
Q 46.90625 9.09375 47.25 7.6875 
Q 47.59375 6.296875 49.59375 6.296875 
Q 50.703125 6.296875 52.203125 6.796875 
z
M 38.40625 26.703125 
Q 36.796875 25.5 34.1875 24.953125 
Q 31.59375 24.40625 28.75 24.046875 
Q 25.90625 23.703125 23 23.25 
Q 20.09375 22.796875 17.796875 21.796875 
Q 15.5 20.796875 14.046875 18.9375 
Q 12.59375 17.09375 12.59375 13.90625 
Q 12.59375 11.796875 13.4375 10.34375 
Q 14.296875 8.90625 15.640625 8 
Q 17 7.09375 18.796875 6.6875 
Q 20.59375 6.296875 22.59375 6.296875 
Q 26.796875 6.296875 29.796875 7.4375 
Q 32.796875 8.59375 34.6875 10.34375 
Q 36.59375 12.09375 37.5 14.140625 
Q 38.40625 16.203125 38.40625 18 
z
" id="HelveticaNeue-97"/>
        <path d="M 6.40625 51.703125 
L 6.40625 0 
L 14.90625 0 
L 14.90625 29.203125 
Q 14.90625 32.703125 15.84375 35.640625 
Q 16.796875 38.59375 18.6875 40.796875 
Q 20.59375 43 23.4375 44.203125 
Q 26.296875 45.40625 30.203125 45.40625 
Q 35.09375 45.40625 37.890625 42.59375 
Q 40.703125 39.796875 40.703125 35 
L 40.703125 0 
L 49.203125 0 
L 49.203125 34 
Q 49.203125 38.203125 48.34375 41.640625 
Q 47.5 45.09375 45.390625 47.59375 
Q 43.296875 50.09375 39.890625 51.5 
Q 36.5 52.90625 31.40625 52.90625 
Q 19.90625 52.90625 14.59375 43.5 
L 14.40625 43.5 
L 14.40625 51.703125 
z
" id="HelveticaNeue-110"/>
       </defs>
       <use xlink:href="#HelveticaNeue-74"/>
       <use x="51.899994" xlink:href="#HelveticaNeue-97"/>
       <use x="105.599991" xlink:href="#HelveticaNeue-110"/>
      </g>
      <!-- 2021 -->
      <g style="fill:#555555;" transform="translate(291.053936 287.179688)scale(0.1 -0.1)">
       <defs>
        <path d="M 4.40625 45.796875 
L 12.90625 45.796875 
Q 12.796875 49 13.546875 52.140625 
Q 14.296875 55.296875 16 57.796875 
Q 17.703125 60.296875 20.34375 61.84375 
Q 23 63.40625 26.703125 63.40625 
Q 29.5 63.40625 32 62.5 
Q 34.5 61.59375 36.34375 59.890625 
Q 38.203125 58.203125 39.296875 55.84375 
Q 40.40625 53.5 40.40625 50.59375 
Q 40.40625 46.90625 39.25 44.09375 
Q 38.09375 41.296875 35.84375 38.890625 
Q 33.59375 36.5 30.1875 34.140625 
Q 26.796875 31.796875 22.296875 29 
Q 18.59375 26.796875 15.1875 24.296875 
Q 11.796875 21.796875 9.09375 18.5 
Q 6.40625 15.203125 4.65625 10.75 
Q 2.90625 6.296875 2.40625 0 
L 48.703125 0 
L 48.703125 7.5 
L 12.296875 7.5 
Q 12.90625 10.796875 14.84375 13.34375 
Q 16.796875 15.90625 19.546875 18.09375 
Q 22.296875 20.296875 25.59375 22.25 
Q 28.90625 24.203125 32.203125 26.203125 
Q 35.5 28.296875 38.59375 30.59375 
Q 41.703125 32.90625 44.09375 35.75 
Q 46.5 38.59375 47.953125 42.1875 
Q 49.40625 45.796875 49.40625 50.5 
Q 49.40625 55.5 47.65625 59.296875 
Q 45.90625 63.09375 42.90625 65.640625 
Q 39.90625 68.203125 35.84375 69.546875 
Q 31.796875 70.90625 27.203125 70.90625 
Q 21.59375 70.90625 17.1875 69 
Q 12.796875 67.09375 9.84375 63.75 
Q 6.90625 60.40625 5.5 55.796875 
Q 4.09375 51.203125 4.40625 45.796875 
z
" id="HelveticaNeue-50"/>
        <path d="M 13.203125 34.90625 
Q 13.203125 37.5 13.25 40.640625 
Q 13.296875 43.796875 13.75 46.9375 
Q 14.203125 50.09375 15.046875 53.09375 
Q 15.90625 56.09375 17.546875 58.34375 
Q 19.203125 60.59375 21.703125 62 
Q 24.203125 63.40625 27.796875 63.40625 
Q 31.40625 63.40625 33.90625 62 
Q 36.40625 60.59375 38.046875 58.34375 
Q 39.703125 56.09375 40.546875 53.09375 
Q 41.40625 50.09375 41.84375 46.9375 
Q 42.296875 43.796875 42.34375 40.640625 
Q 42.40625 37.5 42.40625 34.90625 
Q 42.40625 30.90625 42.15625 25.953125 
Q 41.90625 21 40.546875 16.640625 
Q 39.203125 12.296875 36.203125 9.296875 
Q 33.203125 6.296875 27.796875 6.296875 
Q 22.40625 6.296875 19.40625 9.296875 
Q 16.40625 12.296875 15.046875 16.640625 
Q 13.703125 21 13.453125 25.953125 
Q 13.203125 30.90625 13.203125 34.90625 
z
M 4.203125 34.796875 
Q 4.203125 30.90625 4.390625 26.703125 
Q 4.59375 22.5 5.390625 18.5 
Q 6.203125 14.5 7.703125 10.953125 
Q 9.203125 7.40625 11.796875 4.703125 
Q 14.40625 2 18.34375 0.453125 
Q 22.296875 -1.09375 27.796875 -1.09375 
Q 33.40625 -1.09375 37.296875 0.453125 
Q 41.203125 2 43.796875 4.703125 
Q 46.40625 7.40625 47.90625 10.953125 
Q 49.40625 14.5 50.203125 18.5 
Q 51 22.5 51.203125 26.703125 
Q 51.40625 30.90625 51.40625 34.796875 
Q 51.40625 38.703125 51.203125 42.890625 
Q 51 47.09375 50.203125 51.09375 
Q 49.40625 55.09375 47.90625 58.6875 
Q 46.40625 62.296875 43.796875 65 
Q 41.203125 67.703125 37.25 69.296875 
Q 33.296875 70.90625 27.796875 70.90625 
Q 22.296875 70.90625 18.34375 69.296875 
Q 14.40625 67.703125 11.796875 65 
Q 9.203125 62.296875 7.703125 58.6875 
Q 6.203125 55.09375 5.390625 51.09375 
Q 4.59375 47.09375 4.390625 42.890625 
Q 4.203125 38.703125 4.203125 34.796875 
z
" id="HelveticaNeue-48"/>
        <path d="M 35.59375 0 
L 35.59375 70.90625 
L 29.09375 70.90625 
Q 28.40625 66.90625 26.5 64.296875 
Q 24.59375 61.703125 21.84375 60.203125 
Q 19.09375 58.703125 15.6875 58.140625 
Q 12.296875 57.59375 8.703125 57.59375 
L 8.703125 50.796875 
L 27.09375 50.796875 
L 27.09375 0 
z
" id="HelveticaNeue-49"/>
       </defs>
       <use xlink:href="#HelveticaNeue-50"/>
       <use x="55.599991" xlink:href="#HelveticaNeue-48"/>
       <use x="111.199982" xlink:href="#HelveticaNeue-50"/>
       <use x="166.799973" xlink:href="#HelveticaNeue-49"/>
      </g>
     </g>
    </g>
    <g id="xtick_5">
     <g id="line2d_5">
      <g>
       <use style="fill:#555555;stroke:#555555;stroke-width:0.8;" x="380.897291" xlink:href="#m109dfd3573" y="262.5"/>
      </g>
     </g>
     <g id="text_4">
      <!-- Apr -->
      <g style="fill:#555555;" transform="translate(373.02776 276.640625)scale(0.1 -0.1)">
       <defs>
        <path d="M 20.09375 29.5 
L 32.203125 62.796875 
L 32.40625 62.796875 
L 44.296875 29.5 
z
M 27.203125 71.40625 
L -0.59375 0 
L 9.09375 0 
L 17.09375 21.5 
L 47.296875 21.5 
L 55.09375 0 
L 65.59375 0 
L 37.703125 71.40625 
z
" id="HelveticaNeue-65"/>
        <path d="M 6.703125 51.703125 
L 6.703125 -19.703125 
L 15.203125 -19.703125 
L 15.203125 6.90625 
L 15.40625 6.90625 
Q 16.796875 4.59375 18.84375 3.046875 
Q 20.90625 1.5 23.203125 0.59375 
Q 25.5 -0.296875 27.84375 -0.6875 
Q 30.203125 -1.09375 32.09375 -1.09375 
Q 38 -1.09375 42.453125 1 
Q 46.90625 3.09375 49.84375 6.75 
Q 52.796875 10.40625 54.25 15.296875 
Q 55.703125 20.203125 55.703125 25.703125 
Q 55.703125 31.203125 54.203125 36.09375 
Q 52.703125 41 49.75 44.75 
Q 46.796875 48.5 42.34375 50.703125 
Q 37.90625 52.90625 31.90625 52.90625 
Q 26.5 52.90625 22 50.953125 
Q 17.5 49 15.40625 44.703125 
L 15.203125 44.703125 
L 15.203125 51.703125 
z
M 46.703125 26.296875 
Q 46.703125 22.5 45.890625 18.890625 
Q 45.09375 15.296875 43.296875 12.5 
Q 41.5 9.703125 38.546875 8 
Q 35.59375 6.296875 31.203125 6.296875 
Q 26.796875 6.296875 23.6875 7.9375 
Q 20.59375 9.59375 18.640625 12.296875 
Q 16.703125 15 15.796875 18.546875 
Q 14.90625 22.09375 14.90625 25.90625 
Q 14.90625 29.5 15.75 33 
Q 16.59375 36.5 18.5 39.25 
Q 20.40625 42 23.40625 43.703125 
Q 26.40625 45.40625 30.703125 45.40625 
Q 34.796875 45.40625 37.84375 43.796875 
Q 40.90625 42.203125 42.84375 39.5 
Q 44.796875 36.796875 45.75 33.34375 
Q 46.703125 29.90625 46.703125 26.296875 
z
" id="HelveticaNeue-112"/>
        <path d="M 6.09375 51.703125 
L 6.09375 0 
L 14.59375 0 
L 14.59375 23 
Q 14.59375 28 15.59375 31.84375 
Q 16.59375 35.703125 18.796875 38.390625 
Q 21 41.09375 24.59375 42.5 
Q 28.203125 43.90625 33.296875 43.90625 
L 33.296875 52.90625 
Q 26.40625 53.09375 21.90625 50.09375 
Q 17.40625 47.09375 14.296875 40.796875 
L 14.09375 40.796875 
L 14.09375 51.703125 
z
" id="HelveticaNeue-114"/>
       </defs>
       <use xlink:href="#HelveticaNeue-65"/>
       <use x="64.799988" xlink:href="#HelveticaNeue-112"/>
       <use x="124.099976" xlink:href="#HelveticaNeue-114"/>
      </g>
     </g>
    </g>
    <g id="xtick_6">
     <g id="line2d_6">
      <g>
       <use style="fill:#555555;stroke:#555555;stroke-width:0.8;" x="450" xlink:href="#m109dfd3573" y="262.5"/>
      </g>
     </g>
    </g>
    <g id="xtick_7">
     <g id="line2d_7">
      <defs>
       <path d="M 0 0 
L 0 2 
" id="m38c404df95" style="stroke:#555555;stroke-width:0.6;"/>
      </defs>
      <g>
       <use style="fill:#555555;stroke:#555555;stroke-width:0.6;" x="87.866817" xlink:href="#m38c404df95" y="262.5"/>
      </g>
     </g>
    </g>
    <g id="xtick_8">
     <g id="line2d_8">
      <g>
       <use style="fill:#555555;stroke:#555555;stroke-width:0.6;" x="114.98307" xlink:href="#m38c404df95" y="262.5"/>
      </g>
     </g>
    </g>
    <g id="xtick_9">
     <g id="line2d_9">
      <g>
       <use style="fill:#555555;stroke:#555555;stroke-width:0.6;" x="168.340858" xlink:href="#m38c404df95" y="262.5"/>
      </g>
     </g>
    </g>
    <g id="xtick_10">
     <g id="line2d_10">
      <g>
       <use style="fill:#555555;stroke:#555555;stroke-width:0.6;" x="195.457111" xlink:href="#m38c404df95" y="262.5"/>
      </g>
     </g>
    </g>
    <g id="xtick_11">
     <g id="line2d_11">
      <g>
       <use style="fill:#555555;stroke:#555555;stroke-width:0.6;" x="248.814898" xlink:href="#m38c404df95" y="262.5"/>
      </g>
     </g>
    </g>
    <g id="xtick_12">
     <g id="line2d_12">
      <g>
       <use style="fill:#555555;stroke:#555555;stroke-width:0.6;" x="275.056433" xlink:href="#m38c404df95" y="262.5"/>
      </g>
     </g>
    </g>
    <g id="xtick_13">
     <g id="line2d_13">
      <g>
       <use style="fill:#555555;stroke:#555555;stroke-width:0.6;" x="329.288939" xlink:href="#m38c404df95" y="262.5"/>
      </g>
     </g>
    </g>
    <g id="xtick_14">
     <g id="line2d_14">
      <g>
       <use style="fill:#555555;stroke:#555555;stroke-width:0.6;" x="353.781038" xlink:href="#m38c404df95" y="262.5"/>
      </g>
     </g>
    </g>
    <g id="xtick_15">
     <g id="line2d_15">
      <g>
       <use style="fill:#555555;stroke:#555555;stroke-width:0.6;" x="407.138826" xlink:href="#m38c404df95" y="262.5"/>
      </g>
     </g>
    </g>
    <g id="xtick_16">
     <g id="line2d_16">
      <g>
       <use style="fill:#555555;stroke:#555555;stroke-width:0.6;" x="434.255079" xlink:href="#m38c404df95" y="262.5"/>
      </g>
     </g>
    </g>
    <g id="text_5">
     <!-- fecha -->
     <g style="fill:#555555;" transform="translate(243.935156 300.290625)scale(0.1 -0.1)">
      <defs>
       <path d="M 9.90625 44.203125 
L 9.90625 0 
L 18.40625 0 
L 18.40625 44.203125 
L 28.40625 44.203125 
L 28.40625 51.703125 
L 18.40625 51.703125 
L 18.40625 58.90625 
Q 18.40625 62.296875 20.09375 63.5 
Q 21.796875 64.703125 24.90625 64.703125 
Q 26 64.703125 27.296875 64.546875 
Q 28.59375 64.40625 29.703125 64 
L 29.703125 71.40625 
Q 28.5 71.796875 26.953125 72 
Q 25.40625 72.203125 24.203125 72.203125 
Q 17.203125 72.203125 13.546875 68.953125 
Q 9.90625 65.703125 9.90625 59.40625 
L 9.90625 51.703125 
L 1.203125 51.703125 
L 1.203125 44.203125 
z
" id="HelveticaNeue-102"/>
       <path d="M 42.296875 30.796875 
L 12.59375 30.796875 
Q 12.796875 33.796875 13.890625 36.4375 
Q 15 39.09375 16.890625 41.09375 
Q 18.796875 43.09375 21.4375 44.25 
Q 24.09375 45.40625 27.40625 45.40625 
Q 30.59375 45.40625 33.25 44.25 
Q 35.90625 43.09375 37.84375 41.140625 
Q 39.796875 39.203125 40.9375 36.5 
Q 42.09375 33.796875 42.296875 30.796875 
z
M 50.5 16.40625 
L 42.09375 16.40625 
Q 41 11.296875 37.546875 8.796875 
Q 34.09375 6.296875 28.703125 6.296875 
Q 24.5 6.296875 21.390625 7.6875 
Q 18.296875 9.09375 16.296875 11.4375 
Q 14.296875 13.796875 13.390625 16.84375 
Q 12.5 19.90625 12.59375 23.296875 
L 51.296875 23.296875 
Q 51.5 28 50.453125 33.203125 
Q 49.40625 38.40625 46.65625 42.796875 
Q 43.90625 47.203125 39.34375 50.046875 
Q 34.796875 52.90625 27.90625 52.90625 
Q 22.59375 52.90625 18.140625 50.90625 
Q 13.703125 48.90625 10.453125 45.296875 
Q 7.203125 41.703125 5.390625 36.796875 
Q 3.59375 31.90625 3.59375 26 
Q 3.796875 20.09375 5.34375 15.09375 
Q 6.90625 10.09375 10 6.5 
Q 13.09375 2.90625 17.640625 0.90625 
Q 22.203125 -1.09375 28.40625 -1.09375 
Q 37.203125 -1.09375 43 3.296875 
Q 48.796875 7.703125 50.5 16.40625 
z
" id="HelveticaNeue-101"/>
       <path d="M 6.40625 71.40625 
L 6.40625 0 
L 14.90625 0 
L 14.90625 29.203125 
Q 14.90625 32.703125 15.84375 35.640625 
Q 16.796875 38.59375 18.6875 40.796875 
Q 20.59375 43 23.4375 44.203125 
Q 26.296875 45.40625 30.203125 45.40625 
Q 35.09375 45.40625 37.890625 42.59375 
Q 40.703125 39.796875 40.703125 35 
L 40.703125 0 
L 49.203125 0 
L 49.203125 34 
Q 49.203125 38.203125 48.34375 41.640625 
Q 47.5 45.09375 45.390625 47.59375 
Q 43.296875 50.09375 39.890625 51.5 
Q 36.5 52.90625 31.40625 52.90625 
Q 29.09375 52.90625 26.640625 52.40625 
Q 24.203125 51.90625 21.953125 50.84375 
Q 19.703125 49.796875 17.890625 48.140625 
Q 16.09375 46.5 15.09375 44.09375 
L 14.90625 44.09375 
L 14.90625 71.40625 
z
" id="HelveticaNeue-104"/>
      </defs>
      <use xlink:href="#HelveticaNeue-102"/>
      <use x="29.599991" xlink:href="#HelveticaNeue-101"/>
      <use x="83.299988" xlink:href="#HelveticaNeue-99"/>
      <use x="136.999985" xlink:href="#HelveticaNeue-104"/>
      <use x="192.599976" xlink:href="#HelveticaNeue-97"/>
     </g>
    </g>
   </g>
   <g id="matplotlib.axis_2">
    <g id="ytick_1">
     <g id="line2d_17">
      <defs>
       <path d="M 0 0 
L -3.5 0 
" id="m805b7d6cbc" style="stroke:#555555;stroke-width:0.8;"/>
      </defs>
      <g>
       <use style="fill:#555555;stroke:#555555;stroke-width:0.8;" x="62.5" xlink:href="#m805b7d6cbc" y="251.795455"/>
      </g>
     </g>
     <g id="text_6">
      <!-- 0 -->
      <g style="fill:#555555;" transform="translate(49.940625 255.365767)scale(0.1 -0.1)">
       <use xlink:href="#HelveticaNeue-48"/>
      </g>
     </g>
    </g>
    <g id="ytick_2">
     <g id="line2d_18">
      <g>
       <use style="fill:#555555;stroke:#555555;stroke-width:0.8;" x="62.5" xlink:href="#m805b7d6cbc" y="225.034091"/>
      </g>
     </g>
     <g id="text_7">
      <!-- 100 -->
      <g style="fill:#555555;" transform="translate(38.821875 228.604403)scale(0.1 -0.1)">
       <use xlink:href="#HelveticaNeue-49"/>
       <use x="55.599991" xlink:href="#HelveticaNeue-48"/>
       <use x="111.199982" xlink:href="#HelveticaNeue-48"/>
      </g>
     </g>
    </g>
    <g id="ytick_3">
     <g id="line2d_19">
      <g>
       <use style="fill:#555555;stroke:#555555;stroke-width:0.8;" x="62.5" xlink:href="#m805b7d6cbc" y="198.272727"/>
      </g>
     </g>
     <g id="text_8">
      <!-- 200 -->
      <g style="fill:#555555;" transform="translate(38.821875 201.84304)scale(0.1 -0.1)">
       <use xlink:href="#HelveticaNeue-50"/>
       <use x="55.599991" xlink:href="#HelveticaNeue-48"/>
       <use x="111.199982" xlink:href="#HelveticaNeue-48"/>
      </g>
     </g>
    </g>
    <g id="ytick_4">
     <g id="line2d_20">
      <g>
       <use style="fill:#555555;stroke:#555555;stroke-width:0.8;" x="62.5" xlink:href="#m805b7d6cbc" y="171.511364"/>
      </g>
     </g>
     <g id="text_9">
      <!-- 300 -->
      <g style="fill:#555555;" transform="translate(38.821875 175.081676)scale(0.1 -0.1)">
       <defs>
        <path d="M 21.796875 40.5 
L 21.796875 33.296875 
Q 24.203125 33.59375 26.90625 33.59375 
Q 30.09375 33.59375 32.84375 32.75 
Q 35.59375 31.90625 37.59375 30.15625 
Q 39.59375 28.40625 40.796875 25.84375 
Q 42 23.296875 42 20 
Q 42 16.796875 40.75 14.25 
Q 39.5 11.703125 37.390625 9.953125 
Q 35.296875 8.203125 32.5 7.25 
Q 29.703125 6.296875 26.59375 6.296875 
Q 19.296875 6.296875 15.5 10.640625 
Q 11.703125 15 11.5 21.90625 
L 3 21.90625 
Q 2.90625 16.40625 4.546875 12.09375 
Q 6.203125 7.796875 9.296875 4.84375 
Q 12.40625 1.90625 16.796875 0.40625 
Q 21.203125 -1.09375 26.59375 -1.09375 
Q 31.59375 -1.09375 36.046875 0.25 
Q 40.5 1.59375 43.796875 4.296875 
Q 47.09375 7 49.046875 11.046875 
Q 51 15.09375 51 20.40625 
Q 51 26.796875 47.84375 31.5 
Q 44.703125 36.203125 38.203125 37.59375 
L 38.203125 37.796875 
Q 42.40625 39.703125 45.203125 43.390625 
Q 48 47.09375 48 51.90625 
Q 48 56.796875 46.34375 60.390625 
Q 44.703125 64 41.796875 66.296875 
Q 38.90625 68.59375 34.953125 69.75 
Q 31 70.90625 26.40625 70.90625 
Q 21.09375 70.90625 17.046875 69.203125 
Q 13 67.5 10.296875 64.5 
Q 7.59375 61.5 6.140625 57.296875 
Q 4.703125 53.09375 4.5 48 
L 13 48 
Q 13 51.09375 13.796875 53.890625 
Q 14.59375 56.703125 16.25 58.796875 
Q 17.90625 60.90625 20.453125 62.15625 
Q 23 63.40625 26.40625 63.40625 
Q 31.796875 63.40625 35.390625 60.546875 
Q 39 57.703125 39 52 
Q 39 49.203125 37.890625 47 
Q 36.796875 44.796875 34.9375 43.34375 
Q 33.09375 41.90625 30.640625 41.15625 
Q 28.203125 40.40625 25.5 40.40625 
L 23.703125 40.40625 
Q 23.203125 40.40625 22.703125 40.40625 
Q 22.296875 40.40625 21.796875 40.5 
z
" id="HelveticaNeue-51"/>
       </defs>
       <use xlink:href="#HelveticaNeue-51"/>
       <use x="55.599991" xlink:href="#HelveticaNeue-48"/>
       <use x="111.199982" xlink:href="#HelveticaNeue-48"/>
      </g>
     </g>
    </g>
    <g id="ytick_5">
     <g id="line2d_21">
      <g>
       <use style="fill:#555555;stroke:#555555;stroke-width:0.8;" x="62.5" xlink:href="#m805b7d6cbc" y="144.75"/>
      </g>
     </g>
     <g id="text_10">
      <!-- 400 -->
      <g style="fill:#555555;" transform="translate(38.821875 148.320312)scale(0.1 -0.1)">
       <defs>
        <path d="M 33.90625 24.09375 
L 10.09375 24.09375 
L 33.703125 58.796875 
L 33.90625 58.796875 
z
M 41.90625 24.09375 
L 41.90625 70.90625 
L 35.09375 70.90625 
L 2.796875 24.796875 
L 2.796875 16.59375 
L 33.90625 16.59375 
L 33.90625 0 
L 41.90625 0 
L 41.90625 16.59375 
L 51.5 16.59375 
L 51.5 24.09375 
z
" id="HelveticaNeue-52"/>
       </defs>
       <use xlink:href="#HelveticaNeue-52"/>
       <use x="55.599991" xlink:href="#HelveticaNeue-48"/>
       <use x="111.199982" xlink:href="#HelveticaNeue-48"/>
      </g>
     </g>
    </g>
    <g id="ytick_6">
     <g id="line2d_22">
      <g>
       <use style="fill:#555555;stroke:#555555;stroke-width:0.8;" x="62.5" xlink:href="#m805b7d6cbc" y="117.988636"/>
      </g>
     </g>
     <g id="text_11">
      <!-- 500 -->
      <g style="fill:#555555;" transform="translate(38.821875 121.558949)scale(0.1 -0.1)">
       <defs>
        <path d="M 47 62.203125 
L 47 69.703125 
L 12 69.703125 
L 5.40625 32.90625 
L 12.703125 32.5 
Q 15.203125 35.5 18.453125 37.34375 
Q 21.703125 39.203125 25.90625 39.203125 
Q 29.5 39.203125 32.453125 38 
Q 35.40625 36.796875 37.5 34.640625 
Q 39.59375 32.5 40.75 29.546875 
Q 41.90625 26.59375 41.90625 23.09375 
Q 41.90625 18.90625 40.703125 15.75 
Q 39.5 12.59375 37.453125 10.5 
Q 35.40625 8.40625 32.65625 7.34375 
Q 29.90625 6.296875 26.90625 6.296875 
Q 23.703125 6.296875 21.046875 7.25 
Q 18.40625 8.203125 16.453125 9.953125 
Q 14.5 11.703125 13.34375 14.046875 
Q 12.203125 16.40625 12 19.09375 
L 3.5 19.09375 
Q 3.59375 14.296875 5.390625 10.5 
Q 7.203125 6.703125 10.296875 4.140625 
Q 13.40625 1.59375 17.453125 0.25 
Q 21.5 -1.09375 26.09375 -1.09375 
Q 32.296875 -1.09375 36.9375 0.84375 
Q 41.59375 2.796875 44.6875 6.09375 
Q 47.796875 9.40625 49.34375 13.65625 
Q 50.90625 17.90625 50.90625 22.40625 
Q 50.90625 28.5 49.09375 33.046875 
Q 47.296875 37.59375 44.1875 40.640625 
Q 41.09375 43.703125 36.890625 45.203125 
Q 32.703125 46.703125 28 46.703125 
Q 24.40625 46.703125 20.75 45.453125 
Q 17.09375 44.203125 14.796875 41.59375 
L 14.59375 41.796875 
L 18.40625 62.203125 
z
" id="HelveticaNeue-53"/>
       </defs>
       <use xlink:href="#HelveticaNeue-53"/>
       <use x="55.599991" xlink:href="#HelveticaNeue-48"/>
       <use x="111.199982" xlink:href="#HelveticaNeue-48"/>
      </g>
     </g>
    </g>
    <g id="ytick_7">
     <g id="line2d_23">
      <g>
       <use style="fill:#555555;stroke:#555555;stroke-width:0.8;" x="62.5" xlink:href="#m805b7d6cbc" y="91.227273"/>
      </g>
     </g>
     <g id="text_12">
      <!-- 600 -->
      <g style="fill:#555555;" transform="translate(38.821875 94.797585)scale(0.1 -0.1)">
       <defs>
        <path d="M 41.40625 52.796875 
L 49.90625 52.796875 
Q 49.09375 61.59375 43.890625 66.25 
Q 38.703125 70.90625 29.90625 70.90625 
Q 22.296875 70.90625 17.296875 67.703125 
Q 12.296875 64.5 9.296875 59.203125 
Q 6.296875 53.90625 5.046875 47.046875 
Q 3.796875 40.203125 3.796875 32.90625 
Q 3.796875 27.296875 4.640625 21.296875 
Q 5.5 15.296875 8.09375 10.296875 
Q 10.703125 5.296875 15.5 2.09375 
Q 20.296875 -1.09375 28.203125 -1.09375 
Q 34.90625 -1.09375 39.453125 1.15625 
Q 44 3.40625 46.75 6.84375 
Q 49.5 10.296875 50.703125 14.5 
Q 51.90625 18.703125 51.90625 22.59375 
Q 51.90625 27.5 50.40625 31.703125 
Q 48.90625 35.90625 46.15625 39 
Q 43.40625 42.09375 39.34375 43.84375 
Q 35.296875 45.59375 30.203125 45.59375 
Q 24.40625 45.59375 19.953125 43.390625 
Q 15.5 41.203125 12.5 36.296875 
L 12.296875 36.5 
Q 12.40625 40.59375 13.09375 45.296875 
Q 13.796875 50 15.640625 54.046875 
Q 17.5 58.09375 20.796875 60.75 
Q 24.09375 63.40625 29.5 63.40625 
Q 34.59375 63.40625 37.6875 60.5 
Q 40.796875 57.59375 41.40625 52.796875 
z
M 28.59375 38.09375 
Q 32.203125 38.09375 34.890625 36.796875 
Q 37.59375 35.5 39.390625 33.34375 
Q 41.203125 31.203125 42.046875 28.25 
Q 42.90625 25.296875 42.90625 22 
Q 42.90625 18.90625 41.953125 16.046875 
Q 41 13.203125 39.203125 11 
Q 37.40625 8.796875 34.75 7.546875 
Q 32.09375 6.296875 28.59375 6.296875 
Q 25.09375 6.296875 22.34375 7.546875 
Q 19.59375 8.796875 17.75 10.890625 
Q 15.90625 13 14.90625 15.890625 
Q 13.90625 18.796875 13.90625 22.09375 
Q 13.90625 25.40625 14.84375 28.34375 
Q 15.796875 31.296875 17.6875 33.4375 
Q 19.59375 35.59375 22.296875 36.84375 
Q 25 38.09375 28.59375 38.09375 
z
" id="HelveticaNeue-54"/>
       </defs>
       <use xlink:href="#HelveticaNeue-54"/>
       <use x="55.599991" xlink:href="#HelveticaNeue-48"/>
       <use x="111.199982" xlink:href="#HelveticaNeue-48"/>
      </g>
     </g>
    </g>
    <g id="ytick_8">
     <g id="line2d_24">
      <g>
       <use style="fill:#555555;stroke:#555555;stroke-width:0.8;" x="62.5" xlink:href="#m805b7d6cbc" y="64.465909"/>
      </g>
     </g>
     <g id="text_13">
      <!-- 700 -->
      <g style="fill:#555555;" transform="translate(38.821875 68.036222)scale(0.1 -0.1)">
       <defs>
        <path d="M 50.90625 62.40625 
L 50.90625 69.703125 
L 5 69.703125 
L 5 61.703125 
L 42.203125 61.703125 
Q 36.59375 55.796875 31.75 48.796875 
Q 26.90625 41.796875 23.203125 33.9375 
Q 19.5 26.09375 17.140625 17.546875 
Q 14.796875 9 14.203125 0 
L 23.703125 0 
Q 24.203125 8.296875 26.5 17.09375 
Q 28.796875 25.90625 32.4375 34.203125 
Q 36.09375 42.5 40.796875 49.796875 
Q 45.5 57.09375 50.90625 62.40625 
z
" id="HelveticaNeue-55"/>
       </defs>
       <use xlink:href="#HelveticaNeue-55"/>
       <use x="55.599991" xlink:href="#HelveticaNeue-48"/>
       <use x="111.199982" xlink:href="#HelveticaNeue-48"/>
      </g>
     </g>
    </g>
    <g id="ytick_9">
     <g id="line2d_25">
      <g>
       <use style="fill:#555555;stroke:#555555;stroke-width:0.8;" x="62.5" xlink:href="#m805b7d6cbc" y="37.704545"/>
      </g>
     </g>
     <g id="text_14">
      <!-- 800 -->
      <g style="fill:#555555;" transform="translate(38.821875 41.274858)scale(0.1 -0.1)">
       <defs>
        <path d="M 15.5 52.5 
Q 15.5 55.203125 16.5 57.203125 
Q 17.5 59.203125 19.140625 60.59375 
Q 20.796875 62 23.09375 62.703125 
Q 25.40625 63.40625 27.90625 63.40625 
Q 33.09375 63.40625 36.4375 60.65625 
Q 39.796875 57.90625 39.796875 52.5 
Q 39.796875 47.09375 36.5 44.09375 
Q 33.203125 41.09375 28.09375 41.09375 
Q 25.5 41.09375 23.203125 41.796875 
Q 20.90625 42.5 19.203125 43.890625 
Q 17.5 45.296875 16.5 47.4375 
Q 15.5 49.59375 15.5 52.5 
z
M 6.5 52.796875 
Q 6.5 48 9.203125 43.953125 
Q 11.90625 39.90625 16.40625 38.09375 
Q 10.40625 36 7.203125 31.34375 
Q 4 26.703125 4 20.40625 
Q 4 15 5.84375 10.953125 
Q 7.703125 6.90625 10.953125 4.203125 
Q 14.203125 1.5 18.59375 0.203125 
Q 23 -1.09375 28.09375 -1.09375 
Q 33 -1.09375 37.296875 0.296875 
Q 41.59375 1.703125 44.75 4.453125 
Q 47.90625 7.203125 49.75 11.203125 
Q 51.59375 15.203125 51.59375 20.40625 
Q 51.59375 27 48.5 31.546875 
Q 45.40625 36.09375 39 38.09375 
Q 43.5 40.09375 46.140625 44.046875 
Q 48.796875 48 48.796875 52.796875 
Q 48.796875 56.203125 47.59375 59.453125 
Q 46.40625 62.703125 43.84375 65.25 
Q 41.296875 67.796875 37.1875 69.34375 
Q 33.09375 70.90625 27.296875 70.90625 
Q 23.203125 70.90625 19.453125 69.703125 
Q 15.703125 68.5 12.796875 66.203125 
Q 9.90625 63.90625 8.203125 60.546875 
Q 6.5 57.203125 6.5 52.796875 
z
M 13 20 
Q 13 23.09375 14.140625 25.59375 
Q 15.296875 28.09375 17.34375 29.890625 
Q 19.40625 31.703125 22.15625 32.640625 
Q 24.90625 33.59375 28 33.59375 
Q 31 33.59375 33.640625 32.546875 
Q 36.296875 31.5 38.296875 29.703125 
Q 40.296875 27.90625 41.4375 25.453125 
Q 42.59375 23 42.59375 20.09375 
Q 42.59375 17.09375 41.546875 14.59375 
Q 40.5 12.09375 38.546875 10.25 
Q 36.59375 8.40625 33.9375 7.34375 
Q 31.296875 6.296875 28.09375 6.296875 
Q 21.5 6.296875 17.25 9.9375 
Q 13 13.59375 13 20 
z
" id="HelveticaNeue-56"/>
       </defs>
       <use xlink:href="#HelveticaNeue-56"/>
       <use x="55.599991" xlink:href="#HelveticaNeue-48"/>
       <use x="111.199982" xlink:href="#HelveticaNeue-48"/>
      </g>
     </g>
    </g>
   </g>
   <g id="line2d_26">
    <path clip-path="url(#pa6cd432023)" d="M 63.374718 250.992614 
L 64.249436 250.725 
L 65.124153 251.795455 
L 65.998871 249.654545 
L 66.873589 251.527841 
L 67.748307 246.978409 
L 68.623025 251.260227 
L 69.497743 250.992614 
L 70.37246 251.795455 
L 71.247178 250.725 
L 72.121896 250.992614 
L 72.996614 250.457386 
L 73.871332 250.992614 
L 74.74605 250.457386 
L 75.620767 248.584091 
L 76.495485 248.851705 
L 78.244921 250.457386 
L 79.119639 250.992614 
L 79.994357 251.795455 
L 80.869074 250.189773 
L 81.743792 250.457386 
L 82.61851 251.260227 
L 83.493228 248.584091 
L 84.367946 250.189773 
L 85.242664 250.457386 
L 86.117381 251.527841 
L 86.992099 248.316477 
L 87.866817 250.725 
L 88.741535 249.386932 
L 89.616253 248.851705 
L 90.490971 249.119318 
L 91.365688 249.654545 
L 92.240406 247.78125 
L 93.115124 247.78125 
L 93.989842 248.584091 
L 94.86456 249.654545 
L 95.739278 250.189773 
L 96.613995 248.048864 
L 98.363431 250.725 
L 99.238149 248.851705 
L 100.112867 245.372727 
L 100.987585 249.119318 
L 101.862302 248.048864 
L 102.73702 248.584091 
L 103.611738 246.978409 
L 104.486456 246.978409 
L 105.361174 248.316477 
L 106.235892 245.372727 
L 107.110609 248.584091 
L 107.985327 250.189773 
L 108.860045 245.640341 
L 109.734763 248.048864 
L 110.609481 245.105114 
L 111.484199 241.090909 
L 112.358916 238.95 
L 113.233634 243.499432 
L 114.108352 245.372727 
L 114.98307 246.710795 
L 115.857788 243.499432 
L 116.732506 236.809091 
L 117.607223 246.710795 
L 119.356659 241.626136 
L 120.231377 241.89375 
L 121.106095 242.428977 
L 121.980813 228.245455 
L 122.85553 231.189205 
L 123.730248 245.105114 
L 124.604966 243.231818 
L 125.479684 246.443182 
L 126.354402 241.89375 
L 127.22912 241.626136 
L 128.103837 232.527273 
L 128.978555 239.752841 
L 129.853273 233.597727 
L 130.727991 229.583523 
L 131.602709 219.681818 
L 132.477427 225.301705 
L 133.352144 218.611364 
L 134.226862 232.259659 
L 135.10158 206.56875 
L 135.976298 234.132955 
L 136.851016 225.569318 
L 137.725734 229.851136 
L 138.600451 206.033523 
L 139.475169 225.301705 
L 140.349887 224.23125 
L 141.224605 208.709659 
L 142.099323 185.427273 
L 142.974041 232.259659 
L 143.848758 226.104545 
L 144.723476 230.11875 
L 145.598194 225.034091 
L 146.472912 205.230682 
L 147.34763 197.7375 
L 148.222348 212.45625 
L 149.097065 200.948864 
L 149.971783 206.56875 
L 150.846501 218.611364 
L 151.721219 222.357955 
L 152.595937 217.005682 
L 153.470655 198.005114 
L 154.345372 201.751705 
L 155.22009 221.2875 
L 156.969526 208.977273 
L 157.844244 224.23125 
L 158.718962 204.695455 
L 159.593679 188.90625 
L 160.468397 196.934659 
L 161.343115 195.328977 
L 162.217833 193.455682 
L 163.092551 219.681818 
L 163.967269 203.625 
L 164.841986 182.751136 
L 165.716704 217.273295 
L 166.591422 185.159659 
L 167.46614 179.004545 
L 168.340858 177.398864 
L 169.215576 221.019886 
L 170.090293 202.286932 
L 170.965011 185.9625 
L 171.839729 180.610227 
L 172.714447 207.103977 
L 173.589165 184.892045 
L 174.463883 194.258523 
L 175.3386 209.244886 
L 177.088036 168.032386 
L 177.962754 189.173864 
L 178.837472 185.159659 
L 179.71219 190.244318 
L 180.586907 177.666477 
L 181.461625 200.948864 
L 183.211061 155.186932 
L 184.085779 204.963068 
L 184.960497 180.075 
L 185.835214 187.835795 
L 186.709932 200.948864 
L 187.58465 201.216477 
L 189.334086 181.413068 
L 190.208804 192.385227 
L 191.083521 218.611364 
L 191.958239 196.667045 
L 192.832957 200.146023 
L 193.707675 215.132386 
L 194.582393 182.215909 
L 195.457111 187.568182 
L 196.331828 191.582386 
L 197.206546 188.103409 
L 198.081264 219.681818 
L 198.955982 219.414205 
L 199.8307 221.019886 
L 200.705418 210.047727 
L 201.580135 214.597159 
L 202.454853 217.808523 
L 203.329571 204.695455 
L 204.204289 207.639205 
L 205.079007 215.132386 
L 205.953725 235.471023 
L 206.828442 212.723864 
L 207.70316 223.696023 
L 208.577878 197.202273 
L 209.452596 226.372159 
L 210.327314 212.188636 
L 211.202032 223.428409 
L 212.076749 206.56875 
L 212.951467 203.892614 
L 213.826185 206.836364 
L 214.700903 204.427841 
L 215.575621 218.076136 
L 216.450339 226.104545 
L 217.325056 224.23125 
L 218.199774 234.668182 
L 219.074492 222.090341 
L 219.94921 211.653409 
L 220.823928 220.484659 
L 221.698646 225.836932 
L 222.573363 214.329545 
L 223.448081 222.357955 
L 224.322799 207.103977 
L 225.197517 218.34375 
L 226.072235 204.695455 
L 227.82167 219.681818 
L 228.696388 233.0625 
L 229.571106 225.836932 
L 230.445824 231.992045 
L 231.320542 226.372159 
L 232.19526 232.527273 
L 233.069977 229.851136 
L 233.944695 217.005682 
L 234.819413 230.386364 
L 235.694131 233.0625 
L 236.568849 239.485227 
L 237.443567 224.766477 
L 238.318284 218.878977 
L 239.193002 220.484659 
L 240.06772 221.019886 
L 240.942438 222.090341 
L 241.817156 233.0625 
L 242.691874 238.682386 
L 244.441309 212.723864 
L 245.316027 219.146591 
L 246.190745 222.357955 
L 247.065463 230.386364 
L 247.940181 217.540909 
L 248.814898 235.203409 
L 249.689616 227.977841 
L 250.564334 222.090341 
L 251.439052 222.625568 
L 252.31377 233.0625 
L 253.188488 230.653977 
L 254.063205 224.498864 
L 254.937923 233.0625 
L 255.812641 220.752273 
L 256.687359 225.569318 
L 257.562077 231.724432 
L 258.436795 226.639773 
L 259.311512 234.400568 
L 260.18623 233.597727 
L 261.060948 236.809091 
L 261.935666 211.118182 
L 262.810384 220.484659 
L 263.685102 227.442614 
L 264.559819 217.005682 
L 265.434537 231.189205 
L 266.309255 223.160795 
L 267.183973 223.963636 
L 268.058691 227.442614 
L 268.933409 220.484659 
L 269.808126 187.300568 
L 270.682844 221.2875 
L 271.557562 217.808523 
L 272.43228 221.822727 
L 273.306998 231.724432 
L 274.181716 222.090341 
L 275.056433 215.132386 
L 275.931151 224.766477 
L 276.805869 226.372159 
L 277.680587 222.090341 
L 278.555305 212.45625 
L 279.430023 232.527273 
L 280.30474 224.498864 
L 281.179458 219.146591 
L 282.928894 203.892614 
L 283.803612 209.780114 
L 284.67833 208.977273 
L 285.553047 224.766477 
L 286.427765 208.709659 
L 287.302483 211.118182 
L 288.177201 189.441477 
L 289.051919 207.103977 
L 289.926637 197.469886 
L 290.801354 213.794318 
L 291.676072 204.695455 
L 292.55079 204.160227 
L 293.425508 212.991477 
L 294.300226 203.357386 
L 295.174944 187.300568 
L 296.049661 234.132955 
L 296.924379 208.442045 
L 297.799097 212.188636 
L 298.673815 179.539773 
L 299.548533 180.342614 
L 300.423251 176.863636 
L 302.172686 230.386364 
L 303.922122 174.455114 
L 304.79684 188.90625 
L 305.671558 174.1875 
L 306.546275 172.581818 
L 307.420993 193.455682 
L 308.295711 165.623864 
L 309.170429 187.835795 
L 310.045147 199.610795 
L 310.919865 197.202273 
L 311.794582 154.919318 
L 312.6693 185.159659 
L 313.544018 179.272159 
L 314.418736 181.948295 
L 315.293454 173.652273 
L 316.168172 184.356818 
L 317.042889 203.089773 
L 317.917607 176.328409 
L 318.792325 170.173295 
L 319.667043 181.948295 
L 320.541761 184.892045 
L 321.416479 166.426705 
L 322.291196 198.005114 
L 323.165914 190.511932 
L 324.040632 165.891477 
L 324.91535 198.272727 
L 325.790068 175.257955 
L 326.664786 210.582955 
L 327.539503 212.45625 
L 328.414221 215.667614 
L 329.288939 225.301705 
L 330.163657 228.245455 
L 331.038375 218.611364 
L 331.913093 226.639773 
L 332.78781 225.836932 
L 334.537246 241.626136 
L 335.411964 231.456818 
L 336.286682 224.766477 
L 337.1614 231.724432 
L 338.036117 225.301705 
L 338.910835 237.344318 
L 339.785553 229.048295 
L 340.660271 241.358523 
L 341.534989 240.288068 
L 342.409707 231.724432 
L 343.284424 237.076705 
L 344.159142 236.809091 
L 345.03386 237.344318 
L 345.908578 240.555682 
L 346.783296 246.443182 
L 347.658014 238.147159 
L 348.532731 237.344318 
L 349.407449 233.597727 
L 350.282167 238.95 
L 351.156885 242.428977 
L 352.031603 242.696591 
L 352.906321 238.682386 
L 353.781038 230.386364 
L 354.655756 235.738636 
L 355.530474 235.471023 
L 356.405192 239.217614 
L 357.27991 237.879545 
L 358.154628 245.907955 
L 359.029345 242.161364 
L 359.904063 239.752841 
L 360.778781 240.288068 
L 361.653499 241.090909 
L 362.528217 238.682386 
L 363.402935 241.358523 
L 364.277652 240.823295 
L 365.15237 242.428977 
L 366.027088 245.105114 
L 366.901806 240.555682 
L 367.776524 244.034659 
L 368.651242 242.428977 
L 369.525959 239.485227 
L 370.400677 244.8375 
L 371.275395 241.626136 
L 372.150113 245.105114 
L 373.024831 240.020455 
L 373.899549 237.076705 
L 374.774266 238.414773 
L 375.648984 232.527273 
L 376.523702 240.020455 
L 377.39842 238.147159 
L 379.147856 232.794886 
L 380.022573 234.400568 
L 380.897291 237.344318 
L 382.646727 230.653977 
L 383.521445 241.358523 
L 384.396163 224.23125 
L 385.27088 218.34375 
L 386.145598 223.696023 
L 387.020316 218.611364 
L 387.895034 217.808523 
L 388.769752 214.597159 
L 389.64447 210.850568 
L 390.519187 227.977841 
L 391.393905 197.469886 
L 392.268623 180.610227 
L 393.143341 191.314773 
L 394.018059 187.032955 
L 394.892777 188.371023 
L 395.767494 226.639773 
L 396.642212 165.891477 
L 397.51693 204.963068 
L 398.391648 190.244318 
L 399.266366 207.371591 
L 400.141084 196.399432 
L 401.015801 196.399432 
L 401.890519 207.371591 
L 402.765237 184.892045 
L 403.639955 182.215909 
L 404.514673 194.258523 
L 405.389391 196.667045 
L 406.264108 176.863636 
L 407.138826 175.525568 
L 408.013544 175.793182 
L 408.888262 166.426705 
L 409.76298 185.9625 
L 410.637698 202.822159 
L 411.512415 184.624432 
L 412.387133 185.159659 
L 413.261851 174.990341 
L 414.136569 204.160227 
L 415.011287 175.525568 
L 415.886005 184.089205 
L 416.760722 185.159659 
L 417.63544 177.934091 
L 418.510158 182.215909 
L 419.384876 196.131818 
L 420.259594 196.667045 
L 421.134312 196.399432 
L 422.009029 161.877273 
L 422.883747 161.342045 
L 423.758465 146.088068 
L 424.633183 154.919318 
L 425.507901 181.680682 
L 426.382619 133.242614 
L 427.257336 144.75 
L 428.132054 154.651705 
L 429.006772 115.3125 
L 429.88149 131.636932 
L 430.756208 158.398295 
L 431.630926 67.677273 
L 432.505643 187.032955 
L 433.380361 142.609091 
L 434.255079 107.551705 
L 435.129797 37.704545 
L 436.004515 95.509091 
L 436.879233 131.636932 
L 437.75395 158.130682 
L 438.628668 148.764205 
L 439.503386 161.877273 
L 440.378104 125.749432 
L 441.252822 127.890341 
L 442.12754 182.483523 
L 443.002257 168.032386 
L 443.876975 159.46875 
L 444.751693 134.313068 
L 445.626411 157.595455 
L 446.501129 107.284091 
L 447.375847 147.158523 
L 448.250564 107.016477 
L 449.125282 163.215341 
L 450 209.244886 
L 450 209.244886 
" style="fill:none;stroke:#000000;stroke-dasharray:1.5,2.475;stroke-dashoffset:0;stroke-opacity:0.5;stroke-width:1.5;"/>
   </g>
   <g id="line2d_27">
    <path clip-path="url(#pa6cd432023)" d="M 62.5 250.992614 
L 64.249436 250.992614 
L 65.124153 250.457386 
L 65.998871 250.457386 
L 66.873589 250.189773 
L 67.748307 250.457386 
L 68.623025 250.457386 
L 69.497743 250.725 
L 70.37246 250.725 
L 71.247178 250.992614 
L 72.121896 250.992614 
L 72.996614 250.725 
L 73.871332 250.189773 
L 74.74605 249.922159 
L 77.370203 249.922159 
L 79.994357 250.725 
L 80.869074 250.725 
L 81.743792 250.457386 
L 82.61851 250.457386 
L 83.493228 250.189773 
L 85.242664 250.189773 
L 86.117381 249.922159 
L 86.992099 249.922159 
L 87.866817 249.654545 
L 88.741535 249.654545 
L 89.616253 249.119318 
L 90.490971 249.119318 
L 92.240406 248.584091 
L 93.115124 248.851705 
L 94.86456 248.851705 
L 96.613995 249.386932 
L 99.238149 248.584091 
L 100.112867 248.584091 
L 100.987585 248.048864 
L 101.862302 247.78125 
L 102.73702 247.78125 
L 103.611738 247.513636 
L 104.486456 247.513636 
L 105.361174 247.78125 
L 106.235892 247.513636 
L 107.985327 247.513636 
L 108.860045 246.710795 
L 110.609481 244.569886 
L 111.484199 243.767045 
L 113.233634 243.231818 
L 114.108352 242.696591 
L 115.857788 243.767045 
L 116.732506 243.499432 
L 118.481941 242.428977 
L 120.231377 239.752841 
L 121.106095 238.682386 
L 121.980813 238.414773 
L 122.85553 238.95 
L 124.604966 240.555682 
L 126.354402 241.626136 
L 127.22912 240.020455 
L 128.103837 237.879545 
L 128.978555 234.400568 
L 129.853273 231.724432 
L 130.727991 228.513068 
L 131.602709 227.442614 
L 132.477427 223.696023 
L 133.352144 223.160795 
L 134.226862 222.893182 
L 135.10158 224.23125 
L 135.976298 222.625568 
L 136.851016 222.893182 
L 137.725734 222.090341 
L 138.600451 221.822727 
L 139.475169 215.935227 
L 140.349887 215.4 
L 141.224605 214.597159 
L 142.099323 217.273295 
L 142.974041 218.34375 
L 144.723476 217.273295 
L 145.598194 218.34375 
L 146.472912 213.526705 
L 147.34763 210.047727 
L 148.222348 208.174432 
L 149.097065 208.442045 
L 149.971783 210.850568 
L 150.846501 211.653409 
L 151.721219 210.850568 
L 152.595937 212.188636 
L 153.470655 212.45625 
L 154.345372 211.385795 
L 155.22009 211.921023 
L 156.094808 211.653409 
L 156.969526 210.582955 
L 157.844244 208.977273 
L 159.593679 201.216477 
L 160.468397 201.216477 
L 161.343115 199.610795 
L 162.217833 198.540341 
L 163.092551 201.484091 
L 163.967269 200.413636 
L 164.841986 198.272727 
L 165.716704 195.061364 
L 166.591422 193.723295 
L 167.46614 193.990909 
L 168.340858 194.526136 
L 169.215576 191.85 
L 170.090293 194.258523 
L 170.965011 194.526136 
L 171.839729 195.328977 
L 172.714447 193.990909 
L 173.589165 193.455682 
L 174.463883 191.85 
L 175.3386 191.85 
L 176.213318 188.638636 
L 177.088036 188.371023 
L 177.962754 185.9625 
L 178.837472 185.159659 
L 179.71219 185.159659 
L 180.586907 183.553977 
L 181.461625 184.356818 
L 182.336343 183.286364 
L 183.211061 183.01875 
L 184.085779 185.694886 
L 184.960497 187.032955 
L 186.709932 192.920455 
L 187.58465 191.582386 
L 188.459368 195.328977 
L 189.334086 196.399432 
L 190.208804 197.202273 
L 191.083521 199.610795 
L 191.958239 199.610795 
L 192.832957 199.878409 
L 193.707675 198.540341 
L 194.582393 194.526136 
L 195.457111 196.131818 
L 197.206546 201.216477 
L 198.081264 206.301136 
L 198.955982 210.582955 
L 199.8307 214.061932 
L 200.705418 215.4 
L 201.580135 213.526705 
L 202.454853 212.723864 
L 203.329571 214.061932 
L 204.204289 215.132386 
L 205.079007 216.738068 
L 205.953725 215.4 
L 206.828442 217.273295 
L 207.70316 217.273295 
L 208.577878 217.540909 
L 209.452596 214.864773 
L 210.327314 213.794318 
L 211.202032 211.921023 
L 212.076749 211.653409 
L 212.951467 210.047727 
L 213.826185 211.385795 
L 214.700903 212.45625 
L 215.575621 216.738068 
L 216.450339 220.217045 
L 217.325056 221.555114 
L 218.199774 223.160795 
L 219.074492 223.428409 
L 219.94921 221.555114 
L 220.823928 221.019886 
L 221.698646 218.076136 
L 222.573363 217.540909 
L 223.448081 216.470455 
L 224.322799 214.597159 
L 225.197517 213.526705 
L 226.072235 215.4 
L 226.946953 217.005682 
L 227.82167 220.484659 
L 228.696388 222.893182 
L 229.571106 226.639773 
L 230.445824 228.780682 
L 231.320542 228.513068 
L 232.19526 227.977841 
L 233.069977 228.245455 
L 233.944695 229.048295 
L 234.819413 229.315909 
L 235.694131 228.513068 
L 236.568849 227.442614 
L 237.443567 226.907386 
L 238.318284 225.034091 
L 239.193002 224.498864 
L 240.06772 224.766477 
L 240.942438 225.836932 
L 241.817156 226.104545 
L 243.566591 225.034091 
L 244.441309 225.034091 
L 245.316027 223.160795 
L 246.190745 222.893182 
L 247.065463 223.963636 
L 247.940181 225.301705 
L 248.814898 225.836932 
L 249.689616 226.907386 
L 250.564334 226.907386 
L 251.439052 227.710227 
L 252.31377 227.710227 
L 253.188488 227.175 
L 254.063205 227.442614 
L 254.937923 227.977841 
L 255.812641 227.442614 
L 256.687359 227.710227 
L 257.562077 229.048295 
L 258.436795 230.11875 
L 259.311512 229.583523 
L 261.060948 227.442614 
L 261.935666 225.569318 
L 263.685102 223.428409 
L 264.559819 222.625568 
L 265.434537 224.498864 
L 266.309255 224.498864 
L 267.183973 220.217045 
L 268.058691 219.146591 
L 268.933409 216.738068 
L 269.808126 215.935227 
L 272.43228 218.34375 
L 273.306998 222.357955 
L 274.181716 222.893182 
L 275.056433 223.160795 
L 275.931151 222.090341 
L 276.805869 222.090341 
L 278.555305 223.160795 
L 279.430023 221.555114 
L 280.30474 218.878977 
L 282.054176 214.864773 
L 282.928894 213.259091 
L 283.803612 211.921023 
L 284.67833 211.385795 
L 285.553047 209.5125 
L 286.427765 208.977273 
L 287.302483 206.836364 
L 288.177201 206.033523 
L 289.051919 203.892614 
L 289.926637 203.892614 
L 290.801354 204.695455 
L 291.676072 206.301136 
L 292.55079 204.427841 
L 293.425508 207.371591 
L 294.300226 207.371591 
L 295.174944 208.709659 
L 296.049661 206.56875 
L 296.924379 202.822159 
L 297.799097 198.272727 
L 298.673815 197.202273 
L 299.548533 195.864205 
L 300.423251 196.399432 
L 301.297968 194.526136 
L 302.172686 196.399432 
L 303.047404 195.061364 
L 303.922122 192.117614 
L 304.79684 188.638636 
L 305.671558 181.145455 
L 306.546275 179.539773 
L 307.420993 181.948295 
L 308.295711 183.821591 
L 309.170429 183.01875 
L 310.045147 184.089205 
L 310.919865 182.215909 
L 311.794582 183.01875 
L 312.6693 180.610227 
L 313.544018 179.004545 
L 314.418736 180.342614 
L 315.293454 183.286364 
L 316.168172 182.215909 
L 317.917607 182.215909 
L 318.792325 180.877841 
L 319.667043 181.413068 
L 320.541761 180.877841 
L 321.416479 180.610227 
L 322.291196 183.553977 
L 323.165914 183.286364 
L 324.040632 185.9625 
L 324.91535 191.314773 
L 325.790068 194.79375 
L 326.664786 200.948864 
L 327.539503 209.5125 
L 328.414221 213.794318 
L 329.288939 219.949432 
L 331.038375 224.766477 
L 331.913093 227.710227 
L 332.78781 229.315909 
L 333.662528 229.851136 
L 334.537246 231.456818 
L 335.411964 231.189205 
L 336.286682 231.724432 
L 337.1614 230.921591 
L 338.036117 231.189205 
L 338.910835 232.794886 
L 339.785553 234.132955 
L 340.660271 234.935795 
L 341.534989 236.273864 
L 342.409707 236.541477 
L 344.159142 238.147159 
L 345.03386 238.414773 
L 345.908578 239.485227 
L 346.783296 239.217614 
L 349.407449 239.217614 
L 350.282167 238.95 
L 351.156885 238.414773 
L 352.906321 237.879545 
L 354.655756 236.809091 
L 355.530474 237.344318 
L 356.405192 238.147159 
L 357.27991 239.752841 
L 358.154628 240.555682 
L 359.029345 241.090909 
L 360.778781 241.090909 
L 361.653499 240.555682 
L 362.528217 240.555682 
L 363.402935 241.090909 
L 364.277652 241.358523 
L 366.027088 242.428977 
L 366.901806 242.428977 
L 367.776524 242.696591 
L 368.651242 242.428977 
L 370.400677 242.428977 
L 371.275395 241.89375 
L 372.150113 241.090909 
L 373.899549 238.95 
L 374.774266 238.414773 
L 375.648984 237.344318 
L 376.523702 236.541477 
L 377.39842 236.00625 
L 378.273138 235.738636 
L 379.147856 235.738636 
L 380.022573 234.668182 
L 380.897291 234.935795 
L 381.772009 233.865341 
L 383.521445 230.11875 
L 386.145598 222.090341 
L 387.020316 218.611364 
L 387.895034 218.34375 
L 388.769752 216.202841 
L 391.393905 201.484091 
L 392.268623 196.667045 
L 393.143341 196.934659 
L 394.018059 191.582386 
L 394.892777 192.652841 
L 395.767494 193.990909 
L 396.642212 195.596591 
L 397.51693 196.667045 
L 398.391648 197.469886 
L 399.266366 196.399432 
L 400.141084 198.540341 
L 401.015801 195.864205 
L 401.890519 195.328977 
L 402.765237 193.455682 
L 404.514673 188.371023 
L 405.389391 184.624432 
L 406.264108 181.680682 
L 407.138826 180.610227 
L 408.013544 180.877841 
L 408.888262 180.610227 
L 409.76298 182.751136 
L 410.637698 183.553977 
L 411.512415 186.765341 
L 412.387133 187.568182 
L 413.261851 186.765341 
L 414.136569 184.892045 
L 415.011287 184.356818 
L 415.886005 183.553977 
L 416.760722 185.159659 
L 417.63544 184.892045 
L 418.510158 187.835795 
L 419.384876 186.497727 
L 420.259594 183.821591 
L 421.134312 179.004545 
L 422.009029 173.117045 
L 422.883747 168.835227 
L 423.758465 161.342045 
L 424.633183 155.454545 
L 425.507901 154.116477 
L 426.382619 148.764205 
L 427.257336 145.285227 
L 428.132054 143.411932 
L 429.006772 131.636932 
L 429.88149 134.848295 
L 430.756208 134.848295 
L 431.630926 131.369318 
L 433.380361 115.580114 
L 434.255079 109.692614 
L 435.129797 115.3125 
L 436.004515 113.171591 
L 436.879233 119.861932 
L 437.75395 127.622727 
L 438.628668 138.8625 
L 439.503386 147.426136 
L 440.378104 151.172727 
L 441.252822 152.510795 
L 442.12754 152.510795 
L 443.002257 153.046023 
L 443.876975 150.905114 
L 444.751693 149.834659 
L 445.626411 139.932955 
L 446.501129 137.524432 
L 447.375847 142.876705 
L 448.250564 146.890909 
L 449.125282 150.102273 
L 450 160.539205 
L 450 160.539205 
" style="fill:none;stroke:#b3220f;stroke-linecap:square;stroke-width:1.5;"/>
   </g>
   <g id="patch_3">
    <path d="M 62.5 262.5 
L 62.5 27 
" style="fill:none;stroke:#555555;stroke-linecap:square;stroke-linejoin:miter;"/>
   </g>
   <g id="patch_4">
    <path d="M 62.5 262.5 
L 450 262.5 
" style="fill:none;stroke:#555555;stroke-linecap:square;stroke-linejoin:miter;"/>
   </g>
   <g id="text_15">
    <!-- Ciudad Bolvar | Casos nuevos: 2021-06-19 -->
    <g style="fill:#555555;" transform="translate(119.976406 17)scale(0.14 -0.14)">
     <defs>
      <path d="M 58 49.90625 
L 67.5 49.90625 
Q 66.703125 55.59375 64.09375 59.9375 
Q 61.5 64.296875 57.59375 67.1875 
Q 53.703125 70.09375 48.703125 71.59375 
Q 43.703125 73.09375 38.09375 73.09375 
Q 29.90625 73.09375 23.546875 70.140625 
Q 17.203125 67.203125 12.953125 62.09375 
Q 8.703125 57 6.5 50.140625 
Q 4.296875 43.296875 4.296875 35.5 
Q 4.296875 27.703125 6.34375 20.890625 
Q 8.40625 14.09375 12.5 9.09375 
Q 16.59375 4.09375 22.796875 1.25 
Q 29 -1.59375 37.296875 -1.59375 
Q 51 -1.59375 58.890625 5.90625 
Q 66.796875 13.40625 68.203125 26.90625 
L 58.703125 26.90625 
Q 58.40625 22.5 56.90625 18.703125 
Q 55.40625 14.90625 52.75 12.15625 
Q 50.09375 9.40625 46.4375 7.84375 
Q 42.796875 6.296875 38.09375 6.296875 
Q 31.703125 6.296875 27.09375 8.6875 
Q 22.5 11.09375 19.546875 15.140625 
Q 16.59375 19.203125 15.1875 24.640625 
Q 13.796875 30.09375 13.796875 36.203125 
Q 13.796875 41.796875 15.1875 47 
Q 16.59375 52.203125 19.546875 56.25 
Q 22.5 60.296875 27.046875 62.6875 
Q 31.59375 65.09375 38 65.09375 
Q 45.5 65.09375 50.953125 61.296875 
Q 56.40625 57.5 58 49.90625 
z
" id="HelveticaNeue-67"/>
      <path d="M 15.40625 61 
L 15.40625 71.40625 
L 6.90625 71.40625 
L 6.90625 61 
z
M 6.90625 51.703125 
L 6.90625 0 
L 15.40625 0 
L 15.40625 51.703125 
z
" id="HelveticaNeue-105"/>
      <path d="M 12.59375 25.40625 
Q 12.59375 29.203125 13.390625 32.796875 
Q 14.203125 36.40625 16 39.203125 
Q 17.796875 42 20.796875 43.703125 
Q 23.796875 45.40625 28.09375 45.40625 
Q 32.5 45.40625 35.59375 43.75 
Q 38.703125 42.09375 40.640625 39.390625 
Q 42.59375 36.703125 43.5 33.140625 
Q 44.40625 29.59375 44.40625 25.796875 
Q 44.40625 22.203125 43.546875 18.703125 
Q 42.703125 15.203125 40.796875 12.453125 
Q 38.90625 9.703125 35.90625 8 
Q 32.90625 6.296875 28.59375 6.296875 
Q 24.5 6.296875 21.453125 7.890625 
Q 18.40625 9.5 16.453125 12.203125 
Q 14.5 14.90625 13.546875 18.34375 
Q 12.59375 21.796875 12.59375 25.40625 
z
M 52.59375 0 
L 52.59375 71.40625 
L 44.09375 71.40625 
L 44.09375 44.796875 
L 43.90625 44.796875 
Q 42.5 47.09375 40.453125 48.640625 
Q 38.40625 50.203125 36.09375 51.140625 
Q 33.796875 52.09375 31.5 52.5 
Q 29.203125 52.90625 27.203125 52.90625 
Q 21.296875 52.90625 16.84375 50.75 
Q 12.40625 48.59375 9.453125 44.9375 
Q 6.5 41.296875 5.046875 36.390625 
Q 3.59375 31.5 3.59375 26 
Q 3.59375 20.5 5.09375 15.59375 
Q 6.59375 10.703125 9.546875 7 
Q 12.5 3.296875 16.953125 1.09375 
Q 21.40625 -1.09375 27.40625 -1.09375 
Q 32.796875 -1.09375 37.296875 0.796875 
Q 41.796875 2.703125 43.90625 7 
L 44.09375 7 
L 44.09375 0 
z
" id="HelveticaNeue-100"/>
      <path id="HelveticaNeue-32"/>
      <path d="M 17.296875 40.703125 
L 17.296875 63.40625 
L 36.296875 63.40625 
Q 39.40625 63.40625 42.15625 63.046875 
Q 44.90625 62.703125 47 61.5 
Q 49.09375 60.296875 50.296875 58.09375 
Q 51.5 55.90625 51.5 52.09375 
Q 51.5 46.40625 47.953125 43.546875 
Q 44.40625 40.703125 36.296875 40.703125 
z
M 7.796875 71.40625 
L 7.796875 0 
L 42.296875 0 
Q 47.59375 0 51.640625 1.75 
Q 55.703125 3.5 58.453125 6.34375 
Q 61.203125 9.203125 62.59375 12.890625 
Q 64 16.59375 64 20.5 
Q 64 27.09375 60.5 31.6875 
Q 57 36.296875 50.40625 37.703125 
L 50.40625 37.90625 
Q 55.5 39.90625 58.25 44.046875 
Q 61 48.203125 61 53.90625 
Q 61 59.296875 58.546875 63 
Q 56.09375 66.703125 52.59375 68.796875 
Q 51 69.796875 48.75 70.296875 
Q 46.5 70.796875 43.890625 71.046875 
Q 41.296875 71.296875 38.640625 71.34375 
Q 36 71.40625 33.703125 71.40625 
z
M 17.296875 8 
L 17.296875 32.703125 
L 39 32.703125 
Q 42 32.703125 44.796875 32.140625 
Q 47.59375 31.59375 49.75 30.25 
Q 51.90625 28.90625 53.203125 26.59375 
Q 54.5 24.296875 54.5 20.796875 
Q 54.5 14.796875 50.953125 11.390625 
Q 47.40625 8 41.09375 8 
z
" id="HelveticaNeue-66"/>
      <path d="M 12.59375 25.796875 
Q 12.59375 30.5 13.84375 34.140625 
Q 15.09375 37.796875 17.296875 40.296875 
Q 19.5 42.796875 22.453125 44.09375 
Q 25.40625 45.40625 28.703125 45.40625 
Q 32 45.40625 34.953125 44.09375 
Q 37.90625 42.796875 40.09375 40.296875 
Q 42.296875 37.796875 43.546875 34.140625 
Q 44.796875 30.5 44.796875 25.796875 
Q 44.796875 21.09375 43.546875 17.4375 
Q 42.296875 13.796875 40.09375 11.34375 
Q 37.90625 8.90625 34.953125 7.59375 
Q 32 6.296875 28.703125 6.296875 
Q 25.40625 6.296875 22.453125 7.59375 
Q 19.5 8.90625 17.296875 11.34375 
Q 15.09375 13.796875 13.84375 17.4375 
Q 12.59375 21.09375 12.59375 25.796875 
z
M 3.59375 25.796875 
Q 3.59375 20.09375 5.1875 15.1875 
Q 6.796875 10.296875 10 6.640625 
Q 13.203125 3 17.890625 0.953125 
Q 22.59375 -1.09375 28.703125 -1.09375 
Q 34.90625 -1.09375 39.546875 0.953125 
Q 44.203125 3 47.390625 6.640625 
Q 50.59375 10.296875 52.1875 15.1875 
Q 53.796875 20.09375 53.796875 25.796875 
Q 53.796875 31.5 52.1875 36.453125 
Q 50.59375 41.40625 47.390625 45.046875 
Q 44.203125 48.703125 39.546875 50.796875 
Q 34.90625 52.90625 28.703125 52.90625 
Q 22.59375 52.90625 17.890625 50.796875 
Q 13.203125 48.703125 10 45.046875 
Q 6.796875 41.40625 5.1875 36.453125 
Q 3.59375 31.5 3.59375 25.796875 
z
" id="HelveticaNeue-111"/>
      <path d="M 6.90625 0 
L 15.40625 0 
L 15.40625 51.703125 
L 6.90625 51.703125 
z
M 25.5 77 
L 11.40625 60.796875 
L 5 60.796875 
L 14.59375 77 
z
" id="HelveticaNeue-237"/>
      <path d="M 29.703125 0 
L 48.59375 51.703125 
L 39.703125 51.703125 
L 25.59375 8.59375 
L 25.40625 8.59375 
L 10.90625 51.703125 
L 1.40625 51.703125 
L 20.59375 0 
z
" id="HelveticaNeue-118"/>
      <path d="M 7.703125 78.59375 
L 7.703125 -21.296875 
L 14.5 -21.296875 
L 14.5 78.59375 
z
" id="HelveticaNeue-124"/>
      <path d="M 11.59375 16.296875 
L 3.09375 16.296875 
Q 3.296875 11.5 5.09375 8.140625 
Q 6.90625 4.796875 9.90625 2.75 
Q 12.90625 0.703125 16.796875 -0.1875 
Q 20.703125 -1.09375 25 -1.09375 
Q 28.90625 -1.09375 32.84375 -0.34375 
Q 36.796875 0.40625 39.9375 2.296875 
Q 43.09375 4.203125 45.046875 7.296875 
Q 47 10.40625 47 15.09375 
Q 47 18.796875 45.546875 21.296875 
Q 44.09375 23.796875 41.75 25.4375 
Q 39.40625 27.09375 36.34375 28.09375 
Q 33.296875 29.09375 30.09375 29.796875 
Q 27.09375 30.5 24.09375 31.140625 
Q 21.09375 31.796875 18.6875 32.75 
Q 16.296875 33.703125 14.75 35.140625 
Q 13.203125 36.59375 13.203125 38.796875 
Q 13.203125 40.796875 14.203125 42.046875 
Q 15.203125 43.296875 16.796875 44.046875 
Q 18.40625 44.796875 20.34375 45.09375 
Q 22.296875 45.40625 24.203125 45.40625 
Q 26.296875 45.40625 28.34375 44.953125 
Q 30.40625 44.5 32.09375 43.5 
Q 33.796875 42.5 34.890625 40.84375 
Q 36 39.203125 36.203125 36.703125 
L 44.703125 36.703125 
Q 44.40625 41.40625 42.703125 44.546875 
Q 41 47.703125 38.140625 49.546875 
Q 35.296875 51.40625 31.59375 52.15625 
Q 27.90625 52.90625 23.5 52.90625 
Q 20.09375 52.90625 16.640625 52.046875 
Q 13.203125 51.203125 10.453125 49.453125 
Q 7.703125 47.703125 5.953125 44.890625 
Q 4.203125 42.09375 4.203125 38.203125 
Q 4.203125 33.203125 6.703125 30.390625 
Q 9.203125 27.59375 12.953125 26.046875 
Q 16.703125 24.5 21.09375 23.640625 
Q 25.5 22.796875 29.25 21.75 
Q 33 20.703125 35.5 19 
Q 38 17.296875 38 14 
Q 38 11.59375 36.796875 10.046875 
Q 35.59375 8.5 33.75 7.703125 
Q 31.90625 6.90625 29.703125 6.59375 
Q 27.5 6.296875 25.5 6.296875 
Q 22.90625 6.296875 20.453125 6.796875 
Q 18 7.296875 16.046875 8.4375 
Q 14.09375 9.59375 12.890625 11.546875 
Q 11.703125 13.5 11.59375 16.296875 
z
" id="HelveticaNeue-115"/>
      <path d="M 19.40625 40.59375 
L 19.40625 51.703125 
L 8.296875 51.703125 
L 8.296875 40.59375 
z
M 8.296875 11.09375 
L 8.296875 0 
L 19.40625 0 
L 19.40625 11.09375 
z
" id="HelveticaNeue-58"/>
      <path d="M 5 31.796875 
L 5 23.796875 
L 33.90625 23.796875 
L 33.90625 31.796875 
z
" id="HelveticaNeue-45"/>
      <path d="M 13.40625 17.09375 
L 4.90625 17.09375 
Q 5.703125 7.90625 11.59375 3.40625 
Q 17.5 -1.09375 26.40625 -1.09375 
Q 39.296875 -1.09375 45.140625 8.75 
Q 51 18.59375 51 37 
Q 51 47.09375 49.046875 53.640625 
Q 47.09375 60.203125 43.796875 64 
Q 40.5 67.796875 36.09375 69.34375 
Q 31.703125 70.90625 26.703125 70.90625 
Q 21.59375 70.90625 17.296875 69.203125 
Q 13 67.5 9.890625 64.453125 
Q 6.796875 61.40625 5.09375 57.15625 
Q 3.40625 52.90625 3.40625 47.796875 
Q 3.40625 42.59375 4.84375 38.1875 
Q 6.296875 33.796875 9.140625 30.6875 
Q 12 27.59375 16.203125 25.84375 
Q 20.40625 24.09375 25.796875 24.09375 
Q 31 24.09375 35.390625 26.75 
Q 39.796875 29.40625 42.203125 33.90625 
L 42.40625 33.703125 
Q 42 19.796875 38.09375 13.046875 
Q 34.203125 6.296875 26.40625 6.296875 
Q 21.296875 6.296875 17.59375 9.09375 
Q 13.90625 11.90625 13.40625 17.09375 
z
M 40.90625 47.203125 
Q 40.90625 44.09375 39.90625 41.25 
Q 38.90625 38.40625 37 36.25 
Q 35.09375 34.09375 32.390625 32.84375 
Q 29.703125 31.59375 26.40625 31.59375 
Q 23.296875 31.59375 20.75 32.84375 
Q 18.203125 34.09375 16.34375 36.1875 
Q 14.5 38.296875 13.453125 41 
Q 12.40625 43.703125 12.40625 46.59375 
Q 12.40625 49.90625 13.15625 52.90625 
Q 13.90625 55.90625 15.546875 58.25 
Q 17.203125 60.59375 19.84375 62 
Q 22.5 63.40625 26.296875 63.40625 
Q 29.90625 63.40625 32.59375 62.09375 
Q 35.296875 60.796875 37.140625 58.546875 
Q 39 56.296875 39.953125 53.390625 
Q 40.90625 50.5 40.90625 47.203125 
z
" id="HelveticaNeue-57"/>
     </defs>
     <use xlink:href="#HelveticaNeue-67"/>
     <use x="72.199982" xlink:href="#HelveticaNeue-105"/>
     <use x="94.399979" xlink:href="#HelveticaNeue-117"/>
     <use x="149.999969" xlink:href="#HelveticaNeue-100"/>
     <use x="209.299957" xlink:href="#HelveticaNeue-97"/>
     <use x="262.999954" xlink:href="#HelveticaNeue-100"/>
     <use x="322.299942" xlink:href="#HelveticaNeue-32"/>
     <use x="350.09993" xlink:href="#HelveticaNeue-66"/>
     <use x="418.599915" xlink:href="#HelveticaNeue-111"/>
     <use x="475.999908" xlink:href="#HelveticaNeue-108"/>
     <use x="498.199905" xlink:href="#HelveticaNeue-237"/>
     <use x="520.399902" xlink:href="#HelveticaNeue-118"/>
     <use x="570.399887" xlink:href="#HelveticaNeue-97"/>
     <use x="624.099884" xlink:href="#HelveticaNeue-114"/>
     <use x="657.399872" xlink:href="#HelveticaNeue-32"/>
     <use x="685.19986" xlink:href="#HelveticaNeue-124"/>
     <use x="707.399857" xlink:href="#HelveticaNeue-32"/>
     <use x="735.199844" xlink:href="#HelveticaNeue-67"/>
     <use x="807.399826" xlink:href="#HelveticaNeue-97"/>
     <use x="861.099823" xlink:href="#HelveticaNeue-115"/>
     <use x="911.099808" xlink:href="#HelveticaNeue-111"/>
     <use x="968.499802" xlink:href="#HelveticaNeue-115"/>
     <use x="1018.499786" xlink:href="#HelveticaNeue-32"/>
     <use x="1046.299774" xlink:href="#HelveticaNeue-110"/>
     <use x="1101.899765" xlink:href="#HelveticaNeue-117"/>
     <use x="1157.499756" xlink:href="#HelveticaNeue-101"/>
     <use x="1211.199753" xlink:href="#HelveticaNeue-118"/>
     <use x="1261.199738" xlink:href="#HelveticaNeue-111"/>
     <use x="1318.599731" xlink:href="#HelveticaNeue-115"/>
     <use x="1368.599716" xlink:href="#HelveticaNeue-58"/>
     <use x="1396.399704" xlink:href="#HelveticaNeue-32"/>
     <use x="1424.199692" xlink:href="#HelveticaNeue-50"/>
     <use x="1479.799683" xlink:href="#HelveticaNeue-48"/>
     <use x="1535.399673" xlink:href="#HelveticaNeue-50"/>
     <use x="1590.999664" xlink:href="#HelveticaNeue-49"/>
     <use x="1646.599655" xlink:href="#HelveticaNeue-45"/>
     <use x="1685.499649" xlink:href="#HelveticaNeue-48"/>
     <use x="1741.09964" xlink:href="#HelveticaNeue-54"/>
     <use x="1796.699631" xlink:href="#HelveticaNeue-45"/>
     <use x="1835.599625" xlink:href="#HelveticaNeue-49"/>
     <use x="1891.199615" xlink:href="#HelveticaNeue-57"/>
    </g>
   </g>
   <g id="legend_1">
    <g id="line2d_28">
     <path d="M 71.5 39.640625 
L 91.5 39.640625 
" style="fill:none;stroke:#000000;stroke-dasharray:1.5,2.475;stroke-dashoffset:0;stroke-opacity:0.5;stroke-width:1.5;"/>
    </g>
    <g id="line2d_29"/>
    <g id="text_16">
     <!-- Actual -->
     <g style="fill:#555555;" transform="translate(99.5 43.140625)scale(0.1 -0.1)">
      <use xlink:href="#HelveticaNeue-65"/>
      <use x="64.799988" xlink:href="#HelveticaNeue-99"/>
      <use x="118.499985" xlink:href="#HelveticaNeue-116"/>
      <use x="149.999969" xlink:href="#HelveticaNeue-117"/>
      <use x="205.59996" xlink:href="#HelveticaNeue-97"/>
      <use x="259.299957" xlink:href="#HelveticaNeue-108"/>
     </g>
    </g>
    <g id="line2d_30">
     <path d="M 71.5 54.310937 
L 91.5 54.310937 
" style="fill:none;stroke:#b3220f;stroke-linecap:square;stroke-width:1.5;"/>
    </g>
    <g id="line2d_31"/>
    <g id="text_17">
     <!-- Promedio semanal (7 das)  -->
     <g style="fill:#555555;" transform="translate(99.5 57.810937)scale(0.1 -0.1)">
      <defs>
       <path d="M 17.296875 37.203125 
L 17.296875 63.40625 
L 35.90625 63.40625 
Q 44 63.40625 47.75 60.046875 
Q 51.5 56.703125 51.5 50.296875 
Q 51.5 43.90625 47.75 40.5 
Q 44 37.09375 35.90625 37.203125 
z
M 7.796875 71.40625 
L 7.796875 0 
L 17.296875 0 
L 17.296875 29.203125 
L 39.09375 29.203125 
Q 49.90625 29.09375 55.453125 34.6875 
Q 61 40.296875 61 50.296875 
Q 61 60.296875 55.453125 65.84375 
Q 49.90625 71.40625 39.09375 71.40625 
z
" id="HelveticaNeue-80"/>
       <path d="M 6.40625 51.703125 
L 6.40625 0 
L 14.90625 0 
L 14.90625 32.203125 
Q 14.90625 33.703125 15.65625 35.953125 
Q 16.40625 38.203125 18.046875 40.296875 
Q 19.703125 42.40625 22.34375 43.90625 
Q 25 45.40625 28.703125 45.40625 
Q 31.59375 45.40625 33.4375 44.546875 
Q 35.296875 43.703125 36.390625 42.140625 
Q 37.5 40.59375 37.953125 38.5 
Q 38.40625 36.40625 38.40625 33.90625 
L 38.40625 0 
L 46.90625 0 
L 46.90625 32.203125 
Q 46.90625 38.203125 50.5 41.796875 
Q 54.09375 45.40625 60.40625 45.40625 
Q 63.5 45.40625 65.453125 44.5 
Q 67.40625 43.59375 68.5 42.046875 
Q 69.59375 40.5 70 38.390625 
Q 70.40625 36.296875 70.40625 33.90625 
L 70.40625 0 
L 78.90625 0 
L 78.90625 37.90625 
Q 78.90625 41.90625 77.65625 44.75 
Q 76.40625 47.59375 74.15625 49.390625 
Q 71.90625 51.203125 68.75 52.046875 
Q 65.59375 52.90625 61.703125 52.90625 
Q 56.59375 52.90625 52.34375 50.59375 
Q 48.09375 48.296875 45.5 44.09375 
Q 43.90625 48.90625 40 50.90625 
Q 36.09375 52.90625 31.296875 52.90625 
Q 20.40625 52.90625 14.59375 44.09375 
L 14.40625 44.09375 
L 14.40625 51.703125 
z
" id="HelveticaNeue-109"/>
       <path d="M 20.40625 -19.703125 
L 26.90625 -19.703125 
Q 19.796875 -8.203125 16.75 3.09375 
Q 13.703125 14.40625 13.703125 27 
Q 13.703125 39.296875 16.703125 50.5 
Q 19.703125 61.703125 26.90625 73.09375 
L 20.40625 73.09375 
Q 12.59375 62.796875 8.640625 50.796875 
Q 4.703125 38.796875 4.703125 27 
Q 4.703125 20.40625 5.796875 14.40625 
Q 6.90625 8.40625 8.953125 2.703125 
Q 11 -3 13.890625 -8.546875 
Q 16.796875 -14.09375 20.40625 -19.703125 
z
" id="HelveticaNeue-40"/>
       <path d="M -0.90625 -19.703125 
L 5.5 -19.703125 
Q 13.296875 -9.40625 17.25 2.546875 
Q 21.203125 14.5 21.203125 26.296875 
Q 21.203125 32.90625 20.09375 38.90625 
Q 19 44.90625 16.953125 50.65625 
Q 14.90625 56.40625 12 61.953125 
Q 9.09375 67.5 5.5 73.09375 
L -0.90625 73.09375 
Q 6.09375 61.59375 9.140625 50.25 
Q 12.203125 38.90625 12.203125 26.296875 
Q 12.203125 14.09375 9.203125 2.84375 
Q 6.203125 -8.40625 -0.90625 -19.703125 
z
" id="HelveticaNeue-41"/>
      </defs>
      <use xlink:href="#HelveticaNeue-80"/>
      <use x="64.799988" xlink:href="#HelveticaNeue-114"/>
      <use x="96.349976" xlink:href="#HelveticaNeue-111"/>
      <use x="153.749969" xlink:href="#HelveticaNeue-109"/>
      <use x="239.049957" xlink:href="#HelveticaNeue-101"/>
      <use x="292.749954" xlink:href="#HelveticaNeue-100"/>
      <use x="352.049942" xlink:href="#HelveticaNeue-105"/>
      <use x="374.249939" xlink:href="#HelveticaNeue-111"/>
      <use x="431.649933" xlink:href="#HelveticaNeue-32"/>
      <use x="459.449921" xlink:href="#HelveticaNeue-115"/>
      <use x="509.449905" xlink:href="#HelveticaNeue-101"/>
      <use x="563.149902" xlink:href="#HelveticaNeue-109"/>
      <use x="648.44989" xlink:href="#HelveticaNeue-97"/>
      <use x="702.149887" xlink:href="#HelveticaNeue-110"/>
      <use x="757.749878" xlink:href="#HelveticaNeue-97"/>
      <use x="811.449875" xlink:href="#HelveticaNeue-108"/>
      <use x="833.649872" xlink:href="#HelveticaNeue-32"/>
      <use x="861.44986" xlink:href="#HelveticaNeue-40"/>
      <use x="887.349854" xlink:href="#HelveticaNeue-55"/>
      <use x="942.949844" xlink:href="#HelveticaNeue-32"/>
      <use x="970.749832" xlink:href="#HelveticaNeue-100"/>
      <use x="1030.04982" xlink:href="#HelveticaNeue-237"/>
      <use x="1052.249817" xlink:href="#HelveticaNeue-97"/>
      <use x="1105.949814" xlink:href="#HelveticaNeue-115"/>
      <use x="1155.949799" xlink:href="#HelveticaNeue-41"/>
      <use x="1181.849792" xlink:href="#HelveticaNeue-32"/>
     </g>
    </g>
   </g>
  </g>
 </g>
 <defs>
  <clipPath id="pa6cd432023">
   <rect height="235.5" width="387.5" x="62.5" y="27"/>
  </clipPath>
 </defs>
</svg>
