<?xml version="1.0" encoding="utf-8" standalone="no"?>
<!DOCTYPE svg PUBLIC "-//W3C//DTD SVG 1.1//EN"
  "http://www.w3.org/Graphics/SVG/1.1/DTD/svg11.dtd">
<!-- Created with matplotlib (https://matplotlib.org/) -->
<svg height="300pt" version="1.1" viewBox="0 0 500 300" width="500pt" xmlns="http://www.w3.org/2000/svg" xmlns:xlink="http://www.w3.org/1999/xlink">
 <metadata>
  <rdf:RDF xmlns:cc="http://creativecommons.org/ns#" xmlns:dc="http://purl.org/dc/elements/1.1/" xmlns:rdf="http://www.w3.org/1999/02/22-rdf-syntax-ns#">
   <cc:Work>
    <dc:type rdf:resource="http://purl.org/dc/dcmitype/StillImage"/>
    <dc:date>2021-06-06T15:19:25.806555</dc:date>
    <dc:format>image/svg+xml</dc:format>
    <dc:creator>
     <cc:Agent>
      <dc:title>Matplotlib v3.3.4, https://matplotlib.org/</dc:title>
     </cc:Agent>
    </dc:creator>
   </cc:Work>
  </rdf:RDF>
 </metadata>
 <defs>
  <style type="text/css">*{stroke-linecap:butt;stroke-linejoin:round;}</style>
 </defs>
 <g id="figure_1">
  <g id="patch_1">
   <path d="M 0 300 
L 500 300 
L 500 0 
L 0 0 
z
" style="fill:#ffffff;"/>
  </g>
  <g id="axes_1">
   <g id="patch_2">
    <path d="M 62.5 262.5 
L 450 262.5 
L 450 27 
L 62.5 27 
z
" style="fill:#ffffff;"/>
   </g>
   <g id="matplotlib.axis_1">
    <g id="xtick_1">
     <g id="line2d_1">
      <defs>
       <path d="M 0 0 
L 0 3.5 
" id="mf9cc3fc8ef" style="stroke:#555555;stroke-width:0.8;"/>
      </defs>
      <g>
       <use style="fill:#555555;stroke:#555555;stroke-width:0.8;" x="62.5" xlink:href="#mf9cc3fc8ef" y="262.5"/>
      </g>
     </g>
    </g>
    <g id="xtick_2">
     <g id="line2d_2">
      <g>
       <use style="fill:#555555;stroke:#555555;stroke-width:0.8;" x="143.983645" xlink:href="#mf9cc3fc8ef" y="262.5"/>
      </g>
     </g>
     <g id="text_1">
      <!-- Jul -->
      <g style="fill:#555555;" transform="translate(137.498489 276.640625)scale(0.1 -0.1)">
       <defs>
        <path d="M 44.09375 17.796875 
L 44.09375 71.40625 
L 34.59375 71.40625 
L 34.59375 19.203125 
Q 34.59375 13.296875 32.140625 9.796875 
Q 29.703125 6.296875 23.203125 6.296875 
Q 19.703125 6.296875 17.453125 7.34375 
Q 15.203125 8.40625 13.953125 10.296875 
Q 12.703125 12.203125 12.203125 14.796875 
Q 11.703125 17.40625 11.703125 20.5 
L 11.703125 23.5 
L 2.203125 23.5 
L 2.203125 19.09375 
Q 2.203125 8.90625 7.59375 3.65625 
Q 13 -1.59375 23 -1.59375 
Q 29 -1.59375 33.046875 0.046875 
Q 37.09375 1.703125 39.546875 4.453125 
Q 42 7.203125 43.046875 10.703125 
Q 44.09375 14.203125 44.09375 17.796875 
z
" id="HelveticaNeue-74"/>
        <path d="M 49.203125 0 
L 49.203125 51.703125 
L 40.703125 51.703125 
L 40.703125 22.5 
Q 40.703125 19 39.75 16.046875 
Q 38.796875 13.09375 36.890625 10.890625 
Q 35 8.703125 32.140625 7.5 
Q 29.296875 6.296875 25.40625 6.296875 
Q 20.5 6.296875 17.703125 9.09375 
Q 14.90625 11.90625 14.90625 16.703125 
L 14.90625 51.703125 
L 6.40625 51.703125 
L 6.40625 17.703125 
Q 6.40625 13.5 7.25 10.046875 
Q 8.09375 6.59375 10.1875 4.09375 
Q 12.296875 1.59375 15.6875 0.25 
Q 19.09375 -1.09375 24.203125 -1.09375 
Q 29.90625 -1.09375 34.09375 1.15625 
Q 38.296875 3.40625 41 8.203125 
L 41.203125 8.203125 
L 41.203125 0 
z
" id="HelveticaNeue-117"/>
        <path d="M 6.90625 71.40625 
L 6.90625 0 
L 15.40625 0 
L 15.40625 71.40625 
z
" id="HelveticaNeue-108"/>
       </defs>
       <use xlink:href="#HelveticaNeue-74"/>
       <use x="51.899994" xlink:href="#HelveticaNeue-117"/>
       <use x="107.499985" xlink:href="#HelveticaNeue-108"/>
      </g>
     </g>
    </g>
    <g id="xtick_3">
     <g id="line2d_3">
      <g>
       <use style="fill:#555555;stroke:#555555;stroke-width:0.8;" x="227.278037" xlink:href="#mf9cc3fc8ef" y="262.5"/>
      </g>
     </g>
     <g id="text_2">
      <!-- Oct -->
      <g style="fill:#555555;" transform="translate(219.217881 276.640625)scale(0.1 -0.1)">
       <defs>
        <path d="M 13.296875 35.703125 
Q 13.296875 41.09375 14.6875 46.34375 
Q 16.09375 51.59375 19.09375 55.796875 
Q 22.09375 60 26.796875 62.546875 
Q 31.5 65.09375 38 65.09375 
Q 44.5 65.09375 49.203125 62.546875 
Q 53.90625 60 56.90625 55.796875 
Q 59.90625 51.59375 61.296875 46.34375 
Q 62.703125 41.09375 62.703125 35.703125 
Q 62.703125 30.296875 61.296875 25.046875 
Q 59.90625 19.796875 56.90625 15.59375 
Q 53.90625 11.40625 49.203125 8.84375 
Q 44.5 6.296875 38 6.296875 
Q 31.5 6.296875 26.796875 8.84375 
Q 22.09375 11.40625 19.09375 15.59375 
Q 16.09375 19.796875 14.6875 25.046875 
Q 13.296875 30.296875 13.296875 35.703125 
z
M 3.796875 35.703125 
Q 3.796875 28.40625 5.9375 21.65625 
Q 8.09375 14.90625 12.390625 9.703125 
Q 16.703125 4.5 23.09375 1.453125 
Q 29.5 -1.59375 38 -1.59375 
Q 46.5 -1.59375 52.890625 1.453125 
Q 59.296875 4.5 63.59375 9.703125 
Q 67.90625 14.90625 70.046875 21.65625 
Q 72.203125 28.40625 72.203125 35.703125 
Q 72.203125 43 70.046875 49.75 
Q 67.90625 56.5 63.59375 61.703125 
Q 59.296875 66.90625 52.890625 70 
Q 46.5 73.09375 38 73.09375 
Q 29.5 73.09375 23.09375 70 
Q 16.703125 66.90625 12.390625 61.703125 
Q 8.09375 56.5 5.9375 49.75 
Q 3.796875 43 3.796875 35.703125 
z
" id="HelveticaNeue-79"/>
        <path d="M 41.5 35.09375 
L 50.296875 35.09375 
Q 49.796875 39.703125 47.890625 43.046875 
Q 46 46.40625 43.046875 48.59375 
Q 40.09375 50.796875 36.25 51.84375 
Q 32.40625 52.90625 28 52.90625 
Q 21.90625 52.90625 17.296875 50.75 
Q 12.703125 48.59375 9.640625 44.84375 
Q 6.59375 41.09375 5.09375 36.046875 
Q 3.59375 31 3.59375 25.203125 
Q 3.59375 19.40625 5.140625 14.546875 
Q 6.703125 9.703125 9.75 6.203125 
Q 12.796875 2.703125 17.34375 0.796875 
Q 21.90625 -1.09375 27.796875 -1.09375 
Q 37.703125 -1.09375 43.453125 4.09375 
Q 49.203125 9.296875 50.59375 18.90625 
L 41.90625 18.90625 
Q 41.09375 12.90625 37.546875 9.59375 
Q 34 6.296875 27.703125 6.296875 
Q 23.703125 6.296875 20.796875 7.890625 
Q 17.90625 9.5 16.09375 12.140625 
Q 14.296875 14.796875 13.4375 18.1875 
Q 12.59375 21.59375 12.59375 25.203125 
Q 12.59375 29.09375 13.390625 32.75 
Q 14.203125 36.40625 16.046875 39.203125 
Q 17.90625 42 21 43.703125 
Q 24.09375 45.40625 28.703125 45.40625 
Q 34.09375 45.40625 37.296875 42.703125 
Q 40.5 40 41.5 35.09375 
z
" id="HelveticaNeue-99"/>
        <path d="M 18.203125 51.703125 
L 18.203125 67.203125 
L 9.703125 67.203125 
L 9.703125 51.703125 
L 0.90625 51.703125 
L 0.90625 44.203125 
L 9.703125 44.203125 
L 9.703125 11.296875 
Q 9.703125 7.703125 10.390625 5.5 
Q 11.09375 3.296875 12.546875 2.09375 
Q 14 0.90625 16.34375 0.453125 
Q 18.703125 0 22 0 
L 28.5 0 
L 28.5 7.5 
L 24.59375 7.5 
Q 22.59375 7.5 21.34375 7.640625 
Q 20.09375 7.796875 19.390625 8.296875 
Q 18.703125 8.796875 18.453125 9.6875 
Q 18.203125 10.59375 18.203125 12.09375 
L 18.203125 44.203125 
L 28.5 44.203125 
L 28.5 51.703125 
z
" id="HelveticaNeue-116"/>
       </defs>
       <use xlink:href="#HelveticaNeue-79"/>
       <use x="75.999985" xlink:href="#HelveticaNeue-99"/>
       <use x="129.699982" xlink:href="#HelveticaNeue-116"/>
      </g>
     </g>
    </g>
    <g id="xtick_4">
     <g id="line2d_4">
      <g>
       <use style="fill:#555555;stroke:#555555;stroke-width:0.8;" x="310.57243" xlink:href="#mf9cc3fc8ef" y="262.5"/>
      </g>
     </g>
     <g id="text_3">
      <!-- Jan -->
      <g style="fill:#555555;" transform="translate(302.512274 276.640625)scale(0.1 -0.1)">
       <defs>
        <path d="M 52.203125 0.203125 
Q 50 -1.09375 46.09375 -1.09375 
Q 42.796875 -1.09375 40.84375 0.75 
Q 38.90625 2.59375 38.90625 6.796875 
Q 35.40625 2.59375 30.75 0.75 
Q 26.09375 -1.09375 20.703125 -1.09375 
Q 17.203125 -1.09375 14.046875 -0.296875 
Q 10.90625 0.5 8.59375 2.203125 
Q 6.296875 3.90625 4.9375 6.65625 
Q 3.59375 9.40625 3.59375 13.296875 
Q 3.59375 17.703125 5.09375 20.5 
Q 6.59375 23.296875 9.046875 25.046875 
Q 11.5 26.796875 14.640625 27.6875 
Q 17.796875 28.59375 21.09375 29.203125 
Q 24.59375 29.90625 27.75 30.25 
Q 30.90625 30.59375 33.296875 31.25 
Q 35.703125 31.90625 37.09375 33.15625 
Q 38.5 34.40625 38.5 36.796875 
Q 38.5 39.59375 37.453125 41.296875 
Q 36.40625 43 34.75 43.890625 
Q 33.09375 44.796875 31.046875 45.09375 
Q 29 45.40625 27 45.40625 
Q 21.59375 45.40625 18 43.34375 
Q 14.40625 41.296875 14.09375 35.59375 
L 5.59375 35.59375 
Q 5.796875 40.40625 7.59375 43.703125 
Q 9.40625 47 12.40625 49.046875 
Q 15.40625 51.09375 19.25 52 
Q 23.09375 52.90625 27.5 52.90625 
Q 31 52.90625 34.453125 52.40625 
Q 37.90625 51.90625 40.703125 50.34375 
Q 43.5 48.796875 45.203125 46 
Q 46.90625 43.203125 46.90625 38.703125 
L 46.90625 12.09375 
Q 46.90625 9.09375 47.25 7.6875 
Q 47.59375 6.296875 49.59375 6.296875 
Q 50.703125 6.296875 52.203125 6.796875 
z
M 38.40625 26.703125 
Q 36.796875 25.5 34.1875 24.953125 
Q 31.59375 24.40625 28.75 24.046875 
Q 25.90625 23.703125 23 23.25 
Q 20.09375 22.796875 17.796875 21.796875 
Q 15.5 20.796875 14.046875 18.9375 
Q 12.59375 17.09375 12.59375 13.90625 
Q 12.59375 11.796875 13.4375 10.34375 
Q 14.296875 8.90625 15.640625 8 
Q 17 7.09375 18.796875 6.6875 
Q 20.59375 6.296875 22.59375 6.296875 
Q 26.796875 6.296875 29.796875 7.4375 
Q 32.796875 8.59375 34.6875 10.34375 
Q 36.59375 12.09375 37.5 14.140625 
Q 38.40625 16.203125 38.40625 18 
z
" id="HelveticaNeue-97"/>
        <path d="M 6.40625 51.703125 
L 6.40625 0 
L 14.90625 0 
L 14.90625 29.203125 
Q 14.90625 32.703125 15.84375 35.640625 
Q 16.796875 38.59375 18.6875 40.796875 
Q 20.59375 43 23.4375 44.203125 
Q 26.296875 45.40625 30.203125 45.40625 
Q 35.09375 45.40625 37.890625 42.59375 
Q 40.703125 39.796875 40.703125 35 
L 40.703125 0 
L 49.203125 0 
L 49.203125 34 
Q 49.203125 38.203125 48.34375 41.640625 
Q 47.5 45.09375 45.390625 47.59375 
Q 43.296875 50.09375 39.890625 51.5 
Q 36.5 52.90625 31.40625 52.90625 
Q 19.90625 52.90625 14.59375 43.5 
L 14.40625 43.5 
L 14.40625 51.703125 
z
" id="HelveticaNeue-110"/>
       </defs>
       <use xlink:href="#HelveticaNeue-74"/>
       <use x="51.899994" xlink:href="#HelveticaNeue-97"/>
       <use x="105.599991" xlink:href="#HelveticaNeue-110"/>
      </g>
      <!-- 2021 -->
      <g style="fill:#555555;" transform="translate(299.45368 287.179688)scale(0.1 -0.1)">
       <defs>
        <path d="M 4.40625 45.796875 
L 12.90625 45.796875 
Q 12.796875 49 13.546875 52.140625 
Q 14.296875 55.296875 16 57.796875 
Q 17.703125 60.296875 20.34375 61.84375 
Q 23 63.40625 26.703125 63.40625 
Q 29.5 63.40625 32 62.5 
Q 34.5 61.59375 36.34375 59.890625 
Q 38.203125 58.203125 39.296875 55.84375 
Q 40.40625 53.5 40.40625 50.59375 
Q 40.40625 46.90625 39.25 44.09375 
Q 38.09375 41.296875 35.84375 38.890625 
Q 33.59375 36.5 30.1875 34.140625 
Q 26.796875 31.796875 22.296875 29 
Q 18.59375 26.796875 15.1875 24.296875 
Q 11.796875 21.796875 9.09375 18.5 
Q 6.40625 15.203125 4.65625 10.75 
Q 2.90625 6.296875 2.40625 0 
L 48.703125 0 
L 48.703125 7.5 
L 12.296875 7.5 
Q 12.90625 10.796875 14.84375 13.34375 
Q 16.796875 15.90625 19.546875 18.09375 
Q 22.296875 20.296875 25.59375 22.25 
Q 28.90625 24.203125 32.203125 26.203125 
Q 35.5 28.296875 38.59375 30.59375 
Q 41.703125 32.90625 44.09375 35.75 
Q 46.5 38.59375 47.953125 42.1875 
Q 49.40625 45.796875 49.40625 50.5 
Q 49.40625 55.5 47.65625 59.296875 
Q 45.90625 63.09375 42.90625 65.640625 
Q 39.90625 68.203125 35.84375 69.546875 
Q 31.796875 70.90625 27.203125 70.90625 
Q 21.59375 70.90625 17.1875 69 
Q 12.796875 67.09375 9.84375 63.75 
Q 6.90625 60.40625 5.5 55.796875 
Q 4.09375 51.203125 4.40625 45.796875 
z
" id="HelveticaNeue-50"/>
        <path d="M 13.203125 34.90625 
Q 13.203125 37.5 13.25 40.640625 
Q 13.296875 43.796875 13.75 46.9375 
Q 14.203125 50.09375 15.046875 53.09375 
Q 15.90625 56.09375 17.546875 58.34375 
Q 19.203125 60.59375 21.703125 62 
Q 24.203125 63.40625 27.796875 63.40625 
Q 31.40625 63.40625 33.90625 62 
Q 36.40625 60.59375 38.046875 58.34375 
Q 39.703125 56.09375 40.546875 53.09375 
Q 41.40625 50.09375 41.84375 46.9375 
Q 42.296875 43.796875 42.34375 40.640625 
Q 42.40625 37.5 42.40625 34.90625 
Q 42.40625 30.90625 42.15625 25.953125 
Q 41.90625 21 40.546875 16.640625 
Q 39.203125 12.296875 36.203125 9.296875 
Q 33.203125 6.296875 27.796875 6.296875 
Q 22.40625 6.296875 19.40625 9.296875 
Q 16.40625 12.296875 15.046875 16.640625 
Q 13.703125 21 13.453125 25.953125 
Q 13.203125 30.90625 13.203125 34.90625 
z
M 4.203125 34.796875 
Q 4.203125 30.90625 4.390625 26.703125 
Q 4.59375 22.5 5.390625 18.5 
Q 6.203125 14.5 7.703125 10.953125 
Q 9.203125 7.40625 11.796875 4.703125 
Q 14.40625 2 18.34375 0.453125 
Q 22.296875 -1.09375 27.796875 -1.09375 
Q 33.40625 -1.09375 37.296875 0.453125 
Q 41.203125 2 43.796875 4.703125 
Q 46.40625 7.40625 47.90625 10.953125 
Q 49.40625 14.5 50.203125 18.5 
Q 51 22.5 51.203125 26.703125 
Q 51.40625 30.90625 51.40625 34.796875 
Q 51.40625 38.703125 51.203125 42.890625 
Q 51 47.09375 50.203125 51.09375 
Q 49.40625 55.09375 47.90625 58.6875 
Q 46.40625 62.296875 43.796875 65 
Q 41.203125 67.703125 37.25 69.296875 
Q 33.296875 70.90625 27.796875 70.90625 
Q 22.296875 70.90625 18.34375 69.296875 
Q 14.40625 67.703125 11.796875 65 
Q 9.203125 62.296875 7.703125 58.6875 
Q 6.203125 55.09375 5.390625 51.09375 
Q 4.59375 47.09375 4.390625 42.890625 
Q 4.203125 38.703125 4.203125 34.796875 
z
" id="HelveticaNeue-48"/>
        <path d="M 35.59375 0 
L 35.59375 70.90625 
L 29.09375 70.90625 
Q 28.40625 66.90625 26.5 64.296875 
Q 24.59375 61.703125 21.84375 60.203125 
Q 19.09375 58.703125 15.6875 58.140625 
Q 12.296875 57.59375 8.703125 57.59375 
L 8.703125 50.796875 
L 27.09375 50.796875 
L 27.09375 0 
z
" id="HelveticaNeue-49"/>
       </defs>
       <use xlink:href="#HelveticaNeue-50"/>
       <use x="55.599991" xlink:href="#HelveticaNeue-48"/>
       <use x="111.199982" xlink:href="#HelveticaNeue-50"/>
       <use x="166.799973" xlink:href="#HelveticaNeue-49"/>
      </g>
     </g>
    </g>
    <g id="xtick_5">
     <g id="line2d_5">
      <g>
       <use style="fill:#555555;stroke:#555555;stroke-width:0.8;" x="392.056075" xlink:href="#mf9cc3fc8ef" y="262.5"/>
      </g>
     </g>
     <g id="text_4">
      <!-- Apr -->
      <g style="fill:#555555;" transform="translate(384.186544 276.640625)scale(0.1 -0.1)">
       <defs>
        <path d="M 20.09375 29.5 
L 32.203125 62.796875 
L 32.40625 62.796875 
L 44.296875 29.5 
z
M 27.203125 71.40625 
L -0.59375 0 
L 9.09375 0 
L 17.09375 21.5 
L 47.296875 21.5 
L 55.09375 0 
L 65.59375 0 
L 37.703125 71.40625 
z
" id="HelveticaNeue-65"/>
        <path d="M 6.703125 51.703125 
L 6.703125 -19.703125 
L 15.203125 -19.703125 
L 15.203125 6.90625 
L 15.40625 6.90625 
Q 16.796875 4.59375 18.84375 3.046875 
Q 20.90625 1.5 23.203125 0.59375 
Q 25.5 -0.296875 27.84375 -0.6875 
Q 30.203125 -1.09375 32.09375 -1.09375 
Q 38 -1.09375 42.453125 1 
Q 46.90625 3.09375 49.84375 6.75 
Q 52.796875 10.40625 54.25 15.296875 
Q 55.703125 20.203125 55.703125 25.703125 
Q 55.703125 31.203125 54.203125 36.09375 
Q 52.703125 41 49.75 44.75 
Q 46.796875 48.5 42.34375 50.703125 
Q 37.90625 52.90625 31.90625 52.90625 
Q 26.5 52.90625 22 50.953125 
Q 17.5 49 15.40625 44.703125 
L 15.203125 44.703125 
L 15.203125 51.703125 
z
M 46.703125 26.296875 
Q 46.703125 22.5 45.890625 18.890625 
Q 45.09375 15.296875 43.296875 12.5 
Q 41.5 9.703125 38.546875 8 
Q 35.59375 6.296875 31.203125 6.296875 
Q 26.796875 6.296875 23.6875 7.9375 
Q 20.59375 9.59375 18.640625 12.296875 
Q 16.703125 15 15.796875 18.546875 
Q 14.90625 22.09375 14.90625 25.90625 
Q 14.90625 29.5 15.75 33 
Q 16.59375 36.5 18.5 39.25 
Q 20.40625 42 23.40625 43.703125 
Q 26.40625 45.40625 30.703125 45.40625 
Q 34.796875 45.40625 37.84375 43.796875 
Q 40.90625 42.203125 42.84375 39.5 
Q 44.796875 36.796875 45.75 33.34375 
Q 46.703125 29.90625 46.703125 26.296875 
z
" id="HelveticaNeue-112"/>
        <path d="M 6.09375 51.703125 
L 6.09375 0 
L 14.59375 0 
L 14.59375 23 
Q 14.59375 28 15.59375 31.84375 
Q 16.59375 35.703125 18.796875 38.390625 
Q 21 41.09375 24.59375 42.5 
Q 28.203125 43.90625 33.296875 43.90625 
L 33.296875 52.90625 
Q 26.40625 53.09375 21.90625 50.09375 
Q 17.40625 47.09375 14.296875 40.796875 
L 14.09375 40.796875 
L 14.09375 51.703125 
z
" id="HelveticaNeue-114"/>
       </defs>
       <use xlink:href="#HelveticaNeue-65"/>
       <use x="64.799988" xlink:href="#HelveticaNeue-112"/>
       <use x="124.099976" xlink:href="#HelveticaNeue-114"/>
      </g>
     </g>
    </g>
    <g id="xtick_6">
     <g id="line2d_6">
      <g>
       <use style="fill:#555555;stroke:#555555;stroke-width:0.8;" x="450" xlink:href="#mf9cc3fc8ef" y="262.5"/>
      </g>
     </g>
    </g>
    <g id="xtick_7">
     <g id="line2d_7">
      <defs>
       <path d="M 0 0 
L 0 2 
" id="mc450d02250" style="stroke:#555555;stroke-width:0.6;"/>
      </defs>
      <g>
       <use style="fill:#555555;stroke:#555555;stroke-width:0.6;" x="88.755841" xlink:href="#mc450d02250" y="262.5"/>
      </g>
     </g>
    </g>
    <g id="xtick_8">
     <g id="line2d_8">
      <g>
       <use style="fill:#555555;stroke:#555555;stroke-width:0.6;" x="116.82243" xlink:href="#mc450d02250" y="262.5"/>
      </g>
     </g>
    </g>
    <g id="xtick_9">
     <g id="line2d_9">
      <g>
       <use style="fill:#555555;stroke:#555555;stroke-width:0.6;" x="172.050234" xlink:href="#mc450d02250" y="262.5"/>
      </g>
     </g>
    </g>
    <g id="xtick_10">
     <g id="line2d_10">
      <g>
       <use style="fill:#555555;stroke:#555555;stroke-width:0.6;" x="200.116822" xlink:href="#mc450d02250" y="262.5"/>
      </g>
     </g>
    </g>
    <g id="xtick_11">
     <g id="line2d_11">
      <g>
       <use style="fill:#555555;stroke:#555555;stroke-width:0.6;" x="255.344626" xlink:href="#mc450d02250" y="262.5"/>
      </g>
     </g>
    </g>
    <g id="xtick_12">
     <g id="line2d_12">
      <g>
       <use style="fill:#555555;stroke:#555555;stroke-width:0.6;" x="282.505841" xlink:href="#mc450d02250" y="262.5"/>
      </g>
     </g>
    </g>
    <g id="xtick_13">
     <g id="line2d_13">
      <g>
       <use style="fill:#555555;stroke:#555555;stroke-width:0.6;" x="338.639019" xlink:href="#mc450d02250" y="262.5"/>
      </g>
     </g>
    </g>
    <g id="xtick_14">
     <g id="line2d_14">
      <g>
       <use style="fill:#555555;stroke:#555555;stroke-width:0.6;" x="363.989486" xlink:href="#mc450d02250" y="262.5"/>
      </g>
     </g>
    </g>
    <g id="xtick_15">
     <g id="line2d_15">
      <g>
       <use style="fill:#555555;stroke:#555555;stroke-width:0.6;" x="419.21729" xlink:href="#mc450d02250" y="262.5"/>
      </g>
     </g>
    </g>
    <g id="xtick_16">
     <g id="line2d_16">
      <g>
       <use style="fill:#555555;stroke:#555555;stroke-width:0.6;" x="447.283879" xlink:href="#mc450d02250" y="262.5"/>
      </g>
     </g>
    </g>
    <g id="text_5">
     <!-- fecha -->
     <g style="fill:#555555;" transform="translate(243.935156 300.290625)scale(0.1 -0.1)">
      <defs>
       <path d="M 9.90625 44.203125 
L 9.90625 0 
L 18.40625 0 
L 18.40625 44.203125 
L 28.40625 44.203125 
L 28.40625 51.703125 
L 18.40625 51.703125 
L 18.40625 58.90625 
Q 18.40625 62.296875 20.09375 63.5 
Q 21.796875 64.703125 24.90625 64.703125 
Q 26 64.703125 27.296875 64.546875 
Q 28.59375 64.40625 29.703125 64 
L 29.703125 71.40625 
Q 28.5 71.796875 26.953125 72 
Q 25.40625 72.203125 24.203125 72.203125 
Q 17.203125 72.203125 13.546875 68.953125 
Q 9.90625 65.703125 9.90625 59.40625 
L 9.90625 51.703125 
L 1.203125 51.703125 
L 1.203125 44.203125 
z
" id="HelveticaNeue-102"/>
       <path d="M 42.296875 30.796875 
L 12.59375 30.796875 
Q 12.796875 33.796875 13.890625 36.4375 
Q 15 39.09375 16.890625 41.09375 
Q 18.796875 43.09375 21.4375 44.25 
Q 24.09375 45.40625 27.40625 45.40625 
Q 30.59375 45.40625 33.25 44.25 
Q 35.90625 43.09375 37.84375 41.140625 
Q 39.796875 39.203125 40.9375 36.5 
Q 42.09375 33.796875 42.296875 30.796875 
z
M 50.5 16.40625 
L 42.09375 16.40625 
Q 41 11.296875 37.546875 8.796875 
Q 34.09375 6.296875 28.703125 6.296875 
Q 24.5 6.296875 21.390625 7.6875 
Q 18.296875 9.09375 16.296875 11.4375 
Q 14.296875 13.796875 13.390625 16.84375 
Q 12.5 19.90625 12.59375 23.296875 
L 51.296875 23.296875 
Q 51.5 28 50.453125 33.203125 
Q 49.40625 38.40625 46.65625 42.796875 
Q 43.90625 47.203125 39.34375 50.046875 
Q 34.796875 52.90625 27.90625 52.90625 
Q 22.59375 52.90625 18.140625 50.90625 
Q 13.703125 48.90625 10.453125 45.296875 
Q 7.203125 41.703125 5.390625 36.796875 
Q 3.59375 31.90625 3.59375 26 
Q 3.796875 20.09375 5.34375 15.09375 
Q 6.90625 10.09375 10 6.5 
Q 13.09375 2.90625 17.640625 0.90625 
Q 22.203125 -1.09375 28.40625 -1.09375 
Q 37.203125 -1.09375 43 3.296875 
Q 48.796875 7.703125 50.5 16.40625 
z
" id="HelveticaNeue-101"/>
       <path d="M 6.40625 71.40625 
L 6.40625 0 
L 14.90625 0 
L 14.90625 29.203125 
Q 14.90625 32.703125 15.84375 35.640625 
Q 16.796875 38.59375 18.6875 40.796875 
Q 20.59375 43 23.4375 44.203125 
Q 26.296875 45.40625 30.203125 45.40625 
Q 35.09375 45.40625 37.890625 42.59375 
Q 40.703125 39.796875 40.703125 35 
L 40.703125 0 
L 49.203125 0 
L 49.203125 34 
Q 49.203125 38.203125 48.34375 41.640625 
Q 47.5 45.09375 45.390625 47.59375 
Q 43.296875 50.09375 39.890625 51.5 
Q 36.5 52.90625 31.40625 52.90625 
Q 29.09375 52.90625 26.640625 52.40625 
Q 24.203125 51.90625 21.953125 50.84375 
Q 19.703125 49.796875 17.890625 48.140625 
Q 16.09375 46.5 15.09375 44.09375 
L 14.90625 44.09375 
L 14.90625 71.40625 
z
" id="HelveticaNeue-104"/>
      </defs>
      <use xlink:href="#HelveticaNeue-102"/>
      <use x="29.599991" xlink:href="#HelveticaNeue-101"/>
      <use x="83.299988" xlink:href="#HelveticaNeue-99"/>
      <use x="136.999985" xlink:href="#HelveticaNeue-104"/>
      <use x="192.599976" xlink:href="#HelveticaNeue-97"/>
     </g>
    </g>
   </g>
   <g id="matplotlib.axis_2">
    <g id="ytick_1">
     <g id="line2d_17">
      <defs>
       <path d="M 0 0 
L -3.5 0 
" id="mc13f1bfd4a" style="stroke:#555555;stroke-width:0.8;"/>
      </defs>
      <g>
       <use style="fill:#555555;stroke:#555555;stroke-width:0.8;" x="62.5" xlink:href="#mc13f1bfd4a" y="251.795455"/>
      </g>
     </g>
     <g id="text_6">
      <!-- 0 -->
      <g style="fill:#555555;" transform="translate(49.940625 255.365767)scale(0.1 -0.1)">
       <use xlink:href="#HelveticaNeue-48"/>
      </g>
     </g>
    </g>
    <g id="ytick_2">
     <g id="line2d_18">
      <g>
       <use style="fill:#555555;stroke:#555555;stroke-width:0.8;" x="62.5" xlink:href="#mc13f1bfd4a" y="220.94662"/>
      </g>
     </g>
     <g id="text_7">
      <!-- 100 -->
      <g style="fill:#555555;" transform="translate(38.821875 224.516933)scale(0.1 -0.1)">
       <use xlink:href="#HelveticaNeue-49"/>
       <use x="55.599991" xlink:href="#HelveticaNeue-48"/>
       <use x="111.199982" xlink:href="#HelveticaNeue-48"/>
      </g>
     </g>
    </g>
    <g id="ytick_3">
     <g id="line2d_19">
      <g>
       <use style="fill:#555555;stroke:#555555;stroke-width:0.8;" x="62.5" xlink:href="#mc13f1bfd4a" y="190.097786"/>
      </g>
     </g>
     <g id="text_8">
      <!-- 200 -->
      <g style="fill:#555555;" transform="translate(38.821875 193.668099)scale(0.1 -0.1)">
       <use xlink:href="#HelveticaNeue-50"/>
       <use x="55.599991" xlink:href="#HelveticaNeue-48"/>
       <use x="111.199982" xlink:href="#HelveticaNeue-48"/>
      </g>
     </g>
    </g>
    <g id="ytick_4">
     <g id="line2d_20">
      <g>
       <use style="fill:#555555;stroke:#555555;stroke-width:0.8;" x="62.5" xlink:href="#mc13f1bfd4a" y="159.248952"/>
      </g>
     </g>
     <g id="text_9">
      <!-- 300 -->
      <g style="fill:#555555;" transform="translate(38.821875 162.819265)scale(0.1 -0.1)">
       <defs>
        <path d="M 21.796875 40.5 
L 21.796875 33.296875 
Q 24.203125 33.59375 26.90625 33.59375 
Q 30.09375 33.59375 32.84375 32.75 
Q 35.59375 31.90625 37.59375 30.15625 
Q 39.59375 28.40625 40.796875 25.84375 
Q 42 23.296875 42 20 
Q 42 16.796875 40.75 14.25 
Q 39.5 11.703125 37.390625 9.953125 
Q 35.296875 8.203125 32.5 7.25 
Q 29.703125 6.296875 26.59375 6.296875 
Q 19.296875 6.296875 15.5 10.640625 
Q 11.703125 15 11.5 21.90625 
L 3 21.90625 
Q 2.90625 16.40625 4.546875 12.09375 
Q 6.203125 7.796875 9.296875 4.84375 
Q 12.40625 1.90625 16.796875 0.40625 
Q 21.203125 -1.09375 26.59375 -1.09375 
Q 31.59375 -1.09375 36.046875 0.25 
Q 40.5 1.59375 43.796875 4.296875 
Q 47.09375 7 49.046875 11.046875 
Q 51 15.09375 51 20.40625 
Q 51 26.796875 47.84375 31.5 
Q 44.703125 36.203125 38.203125 37.59375 
L 38.203125 37.796875 
Q 42.40625 39.703125 45.203125 43.390625 
Q 48 47.09375 48 51.90625 
Q 48 56.796875 46.34375 60.390625 
Q 44.703125 64 41.796875 66.296875 
Q 38.90625 68.59375 34.953125 69.75 
Q 31 70.90625 26.40625 70.90625 
Q 21.09375 70.90625 17.046875 69.203125 
Q 13 67.5 10.296875 64.5 
Q 7.59375 61.5 6.140625 57.296875 
Q 4.703125 53.09375 4.5 48 
L 13 48 
Q 13 51.09375 13.796875 53.890625 
Q 14.59375 56.703125 16.25 58.796875 
Q 17.90625 60.90625 20.453125 62.15625 
Q 23 63.40625 26.40625 63.40625 
Q 31.796875 63.40625 35.390625 60.546875 
Q 39 57.703125 39 52 
Q 39 49.203125 37.890625 47 
Q 36.796875 44.796875 34.9375 43.34375 
Q 33.09375 41.90625 30.640625 41.15625 
Q 28.203125 40.40625 25.5 40.40625 
L 23.703125 40.40625 
Q 23.203125 40.40625 22.703125 40.40625 
Q 22.296875 40.40625 21.796875 40.5 
z
" id="HelveticaNeue-51"/>
       </defs>
       <use xlink:href="#HelveticaNeue-51"/>
       <use x="55.599991" xlink:href="#HelveticaNeue-48"/>
       <use x="111.199982" xlink:href="#HelveticaNeue-48"/>
      </g>
     </g>
    </g>
    <g id="ytick_5">
     <g id="line2d_21">
      <g>
       <use style="fill:#555555;stroke:#555555;stroke-width:0.8;" x="62.5" xlink:href="#mc13f1bfd4a" y="128.400118"/>
      </g>
     </g>
     <g id="text_10">
      <!-- 400 -->
      <g style="fill:#555555;" transform="translate(38.821875 131.97043)scale(0.1 -0.1)">
       <defs>
        <path d="M 33.90625 24.09375 
L 10.09375 24.09375 
L 33.703125 58.796875 
L 33.90625 58.796875 
z
M 41.90625 24.09375 
L 41.90625 70.90625 
L 35.09375 70.90625 
L 2.796875 24.796875 
L 2.796875 16.59375 
L 33.90625 16.59375 
L 33.90625 0 
L 41.90625 0 
L 41.90625 16.59375 
L 51.5 16.59375 
L 51.5 24.09375 
z
" id="HelveticaNeue-52"/>
       </defs>
       <use xlink:href="#HelveticaNeue-52"/>
       <use x="55.599991" xlink:href="#HelveticaNeue-48"/>
       <use x="111.199982" xlink:href="#HelveticaNeue-48"/>
      </g>
     </g>
    </g>
    <g id="ytick_6">
     <g id="line2d_22">
      <g>
       <use style="fill:#555555;stroke:#555555;stroke-width:0.8;" x="62.5" xlink:href="#mc13f1bfd4a" y="97.551284"/>
      </g>
     </g>
     <g id="text_11">
      <!-- 500 -->
      <g style="fill:#555555;" transform="translate(38.821875 101.121596)scale(0.1 -0.1)">
       <defs>
        <path d="M 47 62.203125 
L 47 69.703125 
L 12 69.703125 
L 5.40625 32.90625 
L 12.703125 32.5 
Q 15.203125 35.5 18.453125 37.34375 
Q 21.703125 39.203125 25.90625 39.203125 
Q 29.5 39.203125 32.453125 38 
Q 35.40625 36.796875 37.5 34.640625 
Q 39.59375 32.5 40.75 29.546875 
Q 41.90625 26.59375 41.90625 23.09375 
Q 41.90625 18.90625 40.703125 15.75 
Q 39.5 12.59375 37.453125 10.5 
Q 35.40625 8.40625 32.65625 7.34375 
Q 29.90625 6.296875 26.90625 6.296875 
Q 23.703125 6.296875 21.046875 7.25 
Q 18.40625 8.203125 16.453125 9.953125 
Q 14.5 11.703125 13.34375 14.046875 
Q 12.203125 16.40625 12 19.09375 
L 3.5 19.09375 
Q 3.59375 14.296875 5.390625 10.5 
Q 7.203125 6.703125 10.296875 4.140625 
Q 13.40625 1.59375 17.453125 0.25 
Q 21.5 -1.09375 26.09375 -1.09375 
Q 32.296875 -1.09375 36.9375 0.84375 
Q 41.59375 2.796875 44.6875 6.09375 
Q 47.796875 9.40625 49.34375 13.65625 
Q 50.90625 17.90625 50.90625 22.40625 
Q 50.90625 28.5 49.09375 33.046875 
Q 47.296875 37.59375 44.1875 40.640625 
Q 41.09375 43.703125 36.890625 45.203125 
Q 32.703125 46.703125 28 46.703125 
Q 24.40625 46.703125 20.75 45.453125 
Q 17.09375 44.203125 14.796875 41.59375 
L 14.59375 41.796875 
L 18.40625 62.203125 
z
" id="HelveticaNeue-53"/>
       </defs>
       <use xlink:href="#HelveticaNeue-53"/>
       <use x="55.599991" xlink:href="#HelveticaNeue-48"/>
       <use x="111.199982" xlink:href="#HelveticaNeue-48"/>
      </g>
     </g>
    </g>
    <g id="ytick_7">
     <g id="line2d_23">
      <g>
       <use style="fill:#555555;stroke:#555555;stroke-width:0.8;" x="62.5" xlink:href="#mc13f1bfd4a" y="66.70245"/>
      </g>
     </g>
     <g id="text_12">
      <!-- 600 -->
      <g style="fill:#555555;" transform="translate(38.821875 70.272762)scale(0.1 -0.1)">
       <defs>
        <path d="M 41.40625 52.796875 
L 49.90625 52.796875 
Q 49.09375 61.59375 43.890625 66.25 
Q 38.703125 70.90625 29.90625 70.90625 
Q 22.296875 70.90625 17.296875 67.703125 
Q 12.296875 64.5 9.296875 59.203125 
Q 6.296875 53.90625 5.046875 47.046875 
Q 3.796875 40.203125 3.796875 32.90625 
Q 3.796875 27.296875 4.640625 21.296875 
Q 5.5 15.296875 8.09375 10.296875 
Q 10.703125 5.296875 15.5 2.09375 
Q 20.296875 -1.09375 28.203125 -1.09375 
Q 34.90625 -1.09375 39.453125 1.15625 
Q 44 3.40625 46.75 6.84375 
Q 49.5 10.296875 50.703125 14.5 
Q 51.90625 18.703125 51.90625 22.59375 
Q 51.90625 27.5 50.40625 31.703125 
Q 48.90625 35.90625 46.15625 39 
Q 43.40625 42.09375 39.34375 43.84375 
Q 35.296875 45.59375 30.203125 45.59375 
Q 24.40625 45.59375 19.953125 43.390625 
Q 15.5 41.203125 12.5 36.296875 
L 12.296875 36.5 
Q 12.40625 40.59375 13.09375 45.296875 
Q 13.796875 50 15.640625 54.046875 
Q 17.5 58.09375 20.796875 60.75 
Q 24.09375 63.40625 29.5 63.40625 
Q 34.59375 63.40625 37.6875 60.5 
Q 40.796875 57.59375 41.40625 52.796875 
z
M 28.59375 38.09375 
Q 32.203125 38.09375 34.890625 36.796875 
Q 37.59375 35.5 39.390625 33.34375 
Q 41.203125 31.203125 42.046875 28.25 
Q 42.90625 25.296875 42.90625 22 
Q 42.90625 18.90625 41.953125 16.046875 
Q 41 13.203125 39.203125 11 
Q 37.40625 8.796875 34.75 7.546875 
Q 32.09375 6.296875 28.59375 6.296875 
Q 25.09375 6.296875 22.34375 7.546875 
Q 19.59375 8.796875 17.75 10.890625 
Q 15.90625 13 14.90625 15.890625 
Q 13.90625 18.796875 13.90625 22.09375 
Q 13.90625 25.40625 14.84375 28.34375 
Q 15.796875 31.296875 17.6875 33.4375 
Q 19.59375 35.59375 22.296875 36.84375 
Q 25 38.09375 28.59375 38.09375 
z
" id="HelveticaNeue-54"/>
       </defs>
       <use xlink:href="#HelveticaNeue-54"/>
       <use x="55.599991" xlink:href="#HelveticaNeue-48"/>
       <use x="111.199982" xlink:href="#HelveticaNeue-48"/>
      </g>
     </g>
    </g>
    <g id="ytick_8">
     <g id="line2d_24">
      <g>
       <use style="fill:#555555;stroke:#555555;stroke-width:0.8;" x="62.5" xlink:href="#mc13f1bfd4a" y="35.853615"/>
      </g>
     </g>
     <g id="text_13">
      <!-- 700 -->
      <g style="fill:#555555;" transform="translate(38.821875 39.423928)scale(0.1 -0.1)">
       <defs>
        <path d="M 50.90625 62.40625 
L 50.90625 69.703125 
L 5 69.703125 
L 5 61.703125 
L 42.203125 61.703125 
Q 36.59375 55.796875 31.75 48.796875 
Q 26.90625 41.796875 23.203125 33.9375 
Q 19.5 26.09375 17.140625 17.546875 
Q 14.796875 9 14.203125 0 
L 23.703125 0 
Q 24.203125 8.296875 26.5 17.09375 
Q 28.796875 25.90625 32.4375 34.203125 
Q 36.09375 42.5 40.796875 49.796875 
Q 45.5 57.09375 50.90625 62.40625 
z
" id="HelveticaNeue-55"/>
       </defs>
       <use xlink:href="#HelveticaNeue-55"/>
       <use x="55.599991" xlink:href="#HelveticaNeue-48"/>
       <use x="111.199982" xlink:href="#HelveticaNeue-48"/>
      </g>
     </g>
    </g>
   </g>
   <g id="line2d_25">
    <path clip-path="url(#p75b1e786ca)" d="M 63.405374 250.86999 
L 64.310748 250.561501 
L 65.216121 251.795455 
L 66.121495 249.327548 
L 67.026869 251.486966 
L 67.932243 246.242664 
L 68.837617 251.178478 
L 69.742991 250.86999 
L 70.648364 251.795455 
L 71.553738 250.561501 
L 72.459112 250.86999 
L 73.364486 250.253013 
L 74.26986 250.86999 
L 75.175234 250.253013 
L 76.080607 248.093594 
L 76.985981 248.402083 
L 78.796729 250.253013 
L 79.702103 250.86999 
L 80.607477 251.795455 
L 81.51285 249.944524 
L 82.418224 250.253013 
L 83.323598 251.178478 
L 84.228972 248.093594 
L 85.134346 249.944524 
L 86.03972 250.253013 
L 86.945093 251.486966 
L 87.850467 247.785106 
L 88.755841 250.561501 
L 89.661215 249.019059 
L 90.566589 248.402083 
L 91.471963 248.710571 
L 92.377336 249.327548 
L 93.28271 247.168129 
L 94.188084 247.168129 
L 95.093458 248.093594 
L 95.998832 249.327548 
L 96.904206 249.944524 
L 97.809579 247.476618 
L 99.620327 250.561501 
L 100.525701 248.402083 
L 101.431075 244.391734 
L 102.336449 248.710571 
L 103.241822 247.476618 
L 104.147196 248.093594 
L 105.05257 246.242664 
L 105.957944 246.242664 
L 106.863318 247.785106 
L 107.768692 244.391734 
L 108.674065 248.093594 
L 109.579439 249.944524 
L 110.484813 244.700223 
L 111.390187 247.476618 
L 112.295561 244.083246 
L 113.200935 239.455921 
L 114.106308 236.988014 
L 115.011682 242.232316 
L 115.917056 244.391734 
L 116.82243 245.934176 
L 117.727804 242.232316 
L 118.633178 234.520107 
L 119.538551 245.934176 
L 121.349299 240.072898 
L 122.254673 240.381386 
L 123.160047 240.998363 
L 124.065421 224.64848 
L 124.970794 228.041852 
L 125.876168 244.083246 
L 126.781542 241.923828 
L 127.686916 245.625688 
L 128.59229 240.381386 
L 129.497664 240.072898 
L 130.403037 229.584294 
L 131.308411 237.913479 
L 132.213785 230.818247 
L 133.119159 226.190922 
L 134.024533 214.776854 
L 134.929907 221.255109 
L 135.83528 213.5429 
L 136.740654 229.275806 
L 137.646028 199.660925 
L 138.551402 231.435224 
L 139.456776 221.563597 
L 140.36215 226.499411 
L 141.267523 199.043948 
L 142.172897 221.255109 
L 143.078271 220.021155 
L 143.983645 202.128832 
L 144.889019 175.290346 
L 145.794393 229.275806 
L 146.699766 222.180574 
L 147.60514 226.807899 
L 148.510514 220.94662 
L 149.415888 198.118483 
L 150.321262 189.48081 
L 151.226636 206.447668 
L 152.132009 193.18267 
L 153.037383 199.660925 
L 153.942757 213.5429 
L 154.848131 217.861737 
L 155.753505 211.69197 
L 156.658879 189.789298 
L 157.564252 194.108135 
L 158.469626 216.627784 
L 160.280374 202.43732 
L 161.185748 220.021155 
L 162.091121 197.501506 
L 162.996495 179.300694 
L 163.901869 188.555345 
L 164.807243 186.704414 
L 165.712617 184.544996 
L 166.617991 214.776854 
L 167.523364 196.267553 
L 168.428738 172.205462 
L 169.334112 212.000458 
L 170.239486 174.981857 
L 171.14486 167.886626 
L 172.050234 166.035696 
L 172.955607 216.319295 
L 173.860981 194.725111 
L 174.766355 175.907323 
L 175.671729 169.737556 
L 176.577103 200.277901 
L 177.482477 174.673369 
L 178.38785 185.470461 
L 179.293224 202.745808 
L 181.103972 155.238604 
L 182.009346 179.609183 
L 182.91472 174.981857 
L 183.820093 180.843136 
L 184.725467 166.344184 
L 185.630841 193.18267 
L 187.441589 140.431163 
L 188.346963 197.809995 
L 189.252336 169.120579 
L 190.15771 178.066741 
L 191.063084 193.18267 
L 191.968458 193.491158 
L 193.779206 170.663021 
L 194.684579 183.311043 
L 195.589953 213.5429 
L 196.495327 188.246856 
L 197.400701 192.257205 
L 198.306075 209.532552 
L 199.211449 171.588486 
L 200.116822 177.758253 
L 201.022196 182.385578 
L 201.92757 178.375229 
L 202.832944 214.776854 
L 203.738318 214.468365 
L 204.643692 216.319295 
L 205.549065 203.671273 
L 206.454439 208.915575 
L 207.359813 212.617435 
L 208.265187 197.501506 
L 209.170561 200.894878 
L 210.075935 209.532552 
L 210.981308 232.977666 
L 211.886682 206.756157 
L 212.792056 219.404179 
L 213.69743 188.863833 
L 214.602804 222.489062 
L 215.508178 206.13918 
L 216.413551 219.09569 
L 217.318925 199.660925 
L 218.224299 196.576041 
L 219.129673 199.969413 
L 220.035047 197.193018 
L 220.940421 212.925924 
L 221.845794 222.180574 
L 222.751168 220.021155 
L 223.656542 232.052201 
L 224.561916 217.553249 
L 225.46729 205.522203 
L 226.372664 215.702319 
L 227.278037 221.872085 
L 228.183411 208.607087 
L 229.088785 217.861737 
L 229.994159 200.277901 
L 230.899533 213.234412 
L 231.804907 197.501506 
L 233.615654 214.776854 
L 234.521028 230.201271 
L 235.426402 221.872085 
L 236.331776 228.967317 
L 237.23715 222.489062 
L 238.142523 229.584294 
L 239.047897 226.499411 
L 239.953271 211.69197 
L 240.858645 227.116387 
L 241.764019 230.201271 
L 242.669393 237.604991 
L 243.574766 220.638132 
L 244.48014 213.851389 
L 245.385514 215.702319 
L 246.290888 216.319295 
L 247.196262 217.553249 
L 248.101636 230.201271 
L 249.007009 236.679526 
L 250.817757 206.756157 
L 251.723131 214.159877 
L 252.628505 217.861737 
L 253.533879 227.116387 
L 254.439252 212.308947 
L 255.344626 232.669177 
L 256.25 224.339992 
L 257.155374 217.553249 
L 258.060748 218.170225 
L 258.966121 230.201271 
L 259.871495 227.424876 
L 260.776869 220.329644 
L 261.682243 230.201271 
L 262.587617 216.010807 
L 263.492991 221.563597 
L 264.398364 228.658829 
L 265.303738 222.79755 
L 266.209112 231.743712 
L 267.114486 230.818247 
L 268.01986 234.520107 
L 268.925234 204.905227 
L 269.830607 215.702319 
L 270.735981 223.723015 
L 271.641355 211.69197 
L 272.546729 228.041852 
L 273.452103 218.787202 
L 274.357477 219.712667 
L 275.26285 223.723015 
L 276.168224 215.702319 
L 277.073598 177.449764 
L 277.978972 216.627784 
L 278.884346 212.617435 
L 279.78972 217.24476 
L 280.695093 228.658829 
L 281.600467 217.553249 
L 282.505841 209.532552 
L 283.411215 220.638132 
L 284.316589 222.489062 
L 285.221963 217.553249 
L 286.127336 206.447668 
L 287.03271 229.584294 
L 287.938084 220.329644 
L 288.843458 214.159877 
L 290.654206 196.576041 
L 291.559579 203.362785 
L 292.464953 202.43732 
L 293.370327 220.638132 
L 294.275701 202.128832 
L 295.181075 204.905227 
L 296.086449 179.917671 
L 296.991822 200.277901 
L 297.897196 189.172321 
L 298.80257 207.99011 
L 299.707944 197.501506 
L 300.613318 196.88453 
L 301.518692 207.064645 
L 302.424065 195.959065 
L 303.329439 177.449764 
L 304.234813 231.435224 
L 305.140187 201.820343 
L 306.045561 206.13918 
L 306.950935 168.503602 
L 307.856308 169.429067 
L 308.761682 165.727207 
L 310.57243 227.116387 
L 312.383178 162.642324 
L 313.288551 179.300694 
L 314.193925 162.333835 
L 315.099299 160.482905 
L 316.004673 184.544996 
L 316.910047 152.462209 
L 317.815421 178.375229 
L 318.720794 191.640228 
L 319.626168 188.555345 
L 320.531542 140.739652 
L 321.436916 175.290346 
L 322.34229 167.886626 
L 323.247664 171.279997 
L 324.153037 162.025347 
L 325.058411 173.747904 
L 325.963785 195.650576 
L 326.869159 164.801742 
L 327.774533 157.398022 
L 328.679907 170.971509 
L 329.58528 174.673369 
L 330.490654 153.079185 
L 331.396028 189.789298 
L 332.301402 181.151624 
L 333.206776 153.079185 
L 334.11215 189.48081 
L 335.017523 163.567789 
L 335.922897 204.28825 
L 336.828271 206.447668 
L 337.733645 210.149528 
L 338.639019 221.255109 
L 339.544393 224.339992 
L 340.449766 213.5429 
L 341.35514 222.79755 
L 342.260514 221.872085 
L 344.071262 240.072898 
L 344.976636 228.350341 
L 345.882009 220.638132 
L 346.787383 228.658829 
L 347.692757 221.563597 
L 348.598131 235.137084 
L 349.503505 225.573946 
L 350.408879 239.764409 
L 351.314252 238.530456 
L 352.219626 228.658829 
L 353.125 235.137084 
L 354.030374 234.211619 
L 354.935748 235.137084 
L 355.841121 238.530456 
L 356.746495 245.625688 
L 357.651869 236.062549 
L 358.557243 235.445572 
L 359.462617 230.509759 
L 360.367991 236.988014 
L 361.273364 241.615339 
L 362.178738 241.306851 
L 363.084112 236.679526 
L 363.989486 227.424876 
L 364.89486 232.977666 
L 365.800234 233.286154 
L 366.705607 237.604991 
L 367.610981 235.754061 
L 368.516355 245.317199 
L 369.421729 240.689874 
L 370.327103 237.913479 
L 371.232477 238.530456 
L 372.13785 239.455921 
L 373.043224 236.371037 
L 373.948598 239.764409 
L 374.853972 238.838944 
L 375.759346 240.998363 
L 376.66472 244.083246 
L 377.570093 239.147433 
L 378.475467 242.540804 
L 379.380841 241.306851 
L 380.286215 237.296502 
L 381.191589 243.774758 
L 382.096963 240.072898 
L 383.002336 244.083246 
L 383.90771 238.221968 
L 384.813084 234.520107 
L 385.718458 236.371037 
L 386.623832 229.275806 
L 387.529206 238.221968 
L 388.434579 236.062549 
L 389.339953 232.360689 
L 390.245327 229.275806 
L 391.150701 231.743712 
L 392.056075 235.137084 
L 393.866822 226.807899 
L 394.772196 239.764409 
L 395.67757 220.021155 
L 396.582944 215.39383 
L 397.488318 219.404179 
L 398.393692 213.5429 
L 399.299065 213.5429 
L 401.109813 204.596738 
L 402.015187 225.573946 
L 402.920561 188.555345 
L 403.825935 168.503602 
L 404.731308 183.002554 
L 405.636682 176.832788 
L 406.542056 183.928019 
L 407.44743 224.031504 
L 408.352804 152.770697 
L 409.258178 196.267553 
L 410.163551 180.534648 
L 411.068925 203.979762 
L 411.974299 189.789298 
L 412.879673 187.938368 
L 413.785047 203.979762 
L 414.690421 175.907323 
L 415.595794 172.822439 
L 416.501168 185.161973 
L 417.406542 188.555345 
L 418.311916 165.418719 
L 419.21729 164.184766 
L 420.122664 164.801742 
L 421.028037 154.00465 
L 421.933411 176.215811 
L 422.838785 195.650576 
L 423.744159 175.598834 
L 424.649533 176.215811 
L 425.554907 164.801742 
L 426.46028 197.193018 
L 427.365654 164.184766 
L 428.271028 174.673369 
L 429.176402 174.364881 
L 430.081776 168.195114 
L 430.98715 173.747904 
L 431.892523 187.938368 
L 432.797897 188.246856 
L 433.703271 187.938368 
L 434.608645 150.919767 
L 435.514019 149.994302 
L 436.419393 130.868025 
L 437.324766 142.282093 
L 438.23014 171.588486 
L 439.135514 115.135119 
L 440.040888 131.79349 
L 440.946262 139.814187 
L 441.851636 95.391865 
L 442.757009 112.358724 
L 443.662383 145.058488 
L 444.567757 41.714894 
L 445.473131 181.460113 
L 446.378505 131.176513 
L 447.283879 92.61547 
L 448.189252 37.704545 
L 449.094626 120.070933 
L 450 238.530456 
L 450 238.530456 
" style="fill:none;stroke:#000000;stroke-dasharray:1.5,2.475;stroke-dashoffset:0;stroke-opacity:0.5;stroke-width:1.5;"/>
   </g>
   <g id="line2d_26">
    <path clip-path="url(#p75b1e786ca)" d="M 62.5 250.86999 
L 64.310748 250.86999 
L 65.216121 250.253013 
L 66.121495 250.253013 
L 67.026869 249.944524 
L 67.932243 250.253013 
L 68.837617 250.253013 
L 69.742991 250.561501 
L 70.648364 250.561501 
L 71.553738 250.86999 
L 72.459112 250.86999 
L 73.364486 250.561501 
L 74.26986 249.944524 
L 75.175234 249.636036 
L 77.891355 249.636036 
L 80.607477 250.561501 
L 81.51285 250.561501 
L 82.418224 250.253013 
L 83.323598 250.253013 
L 84.228972 249.944524 
L 86.03972 249.944524 
L 86.945093 249.636036 
L 87.850467 249.636036 
L 88.755841 249.327548 
L 89.661215 249.327548 
L 90.566589 248.710571 
L 91.471963 248.710571 
L 93.28271 248.093594 
L 94.188084 248.402083 
L 95.998832 248.402083 
L 97.809579 249.019059 
L 100.525701 248.093594 
L 101.431075 248.093594 
L 102.336449 247.476618 
L 103.241822 247.168129 
L 104.147196 247.168129 
L 105.05257 246.859641 
L 105.957944 246.859641 
L 106.863318 247.168129 
L 107.768692 246.859641 
L 109.579439 246.859641 
L 110.484813 245.934176 
L 112.295561 243.466269 
L 113.200935 242.540804 
L 115.011682 241.923828 
L 115.917056 241.306851 
L 117.727804 242.540804 
L 118.633178 242.232316 
L 120.443925 240.998363 
L 122.254673 237.913479 
L 123.160047 236.679526 
L 124.065421 236.371037 
L 124.970794 236.988014 
L 126.781542 238.838944 
L 128.59229 240.072898 
L 129.497664 238.221968 
L 130.403037 235.754061 
L 131.308411 231.743712 
L 132.213785 228.658829 
L 133.119159 224.956969 
L 134.024533 223.723015 
L 134.929907 219.404179 
L 135.83528 218.787202 
L 136.740654 218.478714 
L 137.646028 220.021155 
L 138.551402 218.170225 
L 139.456776 218.478714 
L 140.36215 217.553249 
L 141.267523 217.24476 
L 142.172897 210.458017 
L 143.078271 209.84104 
L 143.983645 208.915575 
L 144.889019 212.000458 
L 145.794393 213.234412 
L 147.60514 212.000458 
L 148.510514 213.234412 
L 149.415888 207.681622 
L 150.321262 203.671273 
L 151.226636 201.511855 
L 152.132009 201.820343 
L 153.037383 204.596738 
L 153.942757 205.522203 
L 154.848131 204.596738 
L 155.753505 206.13918 
L 156.658879 206.447668 
L 157.564252 205.213715 
L 158.469626 205.830692 
L 159.375 205.522203 
L 160.280374 204.28825 
L 161.185748 202.43732 
L 162.996495 193.491158 
L 163.901869 193.491158 
L 164.807243 191.640228 
L 165.712617 190.406275 
L 166.617991 193.799646 
L 167.523364 192.565693 
L 168.428738 190.097786 
L 169.334112 186.395926 
L 170.239486 184.853484 
L 171.14486 185.161973 
L 172.050234 185.778949 
L 172.955607 182.694066 
L 173.860981 185.470461 
L 174.766355 185.778949 
L 175.671729 186.704414 
L 176.577103 185.161973 
L 177.482477 184.544996 
L 178.38785 182.694066 
L 179.293224 182.694066 
L 180.198598 178.992206 
L 181.103972 178.683718 
L 182.009346 175.907323 
L 182.91472 174.981857 
L 183.820093 174.981857 
L 184.725467 173.130927 
L 185.630841 174.056392 
L 186.536215 172.822439 
L 187.441589 172.513951 
L 188.346963 175.598834 
L 189.252336 177.141276 
L 191.063084 183.928019 
L 191.968458 182.385578 
L 192.873832 186.704414 
L 193.779206 187.938368 
L 194.684579 188.863833 
L 195.589953 191.640228 
L 196.495327 191.640228 
L 197.400701 191.948716 
L 198.306075 190.406275 
L 199.211449 185.778949 
L 200.116822 187.629879 
L 201.92757 193.491158 
L 202.832944 199.352436 
L 203.738318 204.28825 
L 204.643692 208.298598 
L 205.549065 209.84104 
L 206.454439 207.681622 
L 207.359813 206.756157 
L 208.265187 208.298598 
L 209.170561 209.532552 
L 210.075935 211.383482 
L 210.981308 209.84104 
L 211.886682 212.000458 
L 212.792056 212.000458 
L 213.69743 212.308947 
L 214.602804 209.224063 
L 215.508178 207.99011 
L 216.413551 205.830692 
L 217.318925 205.522203 
L 218.224299 203.671273 
L 219.129673 205.213715 
L 220.035047 206.447668 
L 220.940421 211.383482 
L 221.845794 215.39383 
L 222.751168 216.936272 
L 223.656542 218.787202 
L 224.561916 219.09569 
L 225.46729 216.936272 
L 226.372664 216.319295 
L 227.278037 212.925924 
L 228.183411 212.308947 
L 229.088785 211.074993 
L 229.994159 208.915575 
L 230.899533 207.681622 
L 231.804907 209.84104 
L 232.71028 211.69197 
L 233.615654 215.702319 
L 234.521028 218.478714 
L 235.426402 222.79755 
L 236.331776 225.265457 
L 237.23715 224.956969 
L 238.142523 224.339992 
L 239.047897 224.64848 
L 239.953271 225.573946 
L 240.858645 225.882434 
L 241.764019 224.956969 
L 242.669393 223.723015 
L 243.574766 223.106039 
L 244.48014 220.94662 
L 245.385514 220.329644 
L 246.290888 220.638132 
L 247.196262 221.872085 
L 248.101636 222.180574 
L 249.912383 220.94662 
L 250.817757 220.94662 
L 251.723131 218.787202 
L 252.628505 218.478714 
L 253.533879 219.712667 
L 254.439252 221.255109 
L 255.344626 221.872085 
L 256.25 223.106039 
L 257.155374 223.106039 
L 258.060748 224.031504 
L 258.966121 224.031504 
L 259.871495 223.414527 
L 260.776869 223.723015 
L 261.682243 224.339992 
L 262.587617 223.723015 
L 263.492991 224.031504 
L 264.398364 225.573946 
L 265.303738 226.807899 
L 266.209112 226.190922 
L 268.01986 223.723015 
L 268.925234 221.563597 
L 270.735981 219.09569 
L 271.641355 218.170225 
L 272.546729 220.329644 
L 273.452103 220.329644 
L 274.357477 215.39383 
L 275.26285 214.159877 
L 276.168224 211.383482 
L 277.073598 210.458017 
L 279.78972 213.234412 
L 280.695093 217.861737 
L 281.600467 218.478714 
L 282.505841 218.787202 
L 283.411215 217.553249 
L 284.316589 217.553249 
L 286.127336 218.787202 
L 287.03271 216.936272 
L 287.938084 213.851389 
L 289.748832 209.224063 
L 290.654206 207.373133 
L 291.559579 205.830692 
L 292.464953 205.213715 
L 293.370327 203.054297 
L 294.275701 202.43732 
L 295.181075 199.969413 
L 296.086449 199.043948 
L 296.991822 196.576041 
L 297.897196 196.576041 
L 298.80257 197.501506 
L 299.707944 199.352436 
L 300.613318 197.193018 
L 301.518692 200.58639 
L 302.424065 200.58639 
L 303.329439 202.128832 
L 304.234813 199.660925 
L 305.140187 195.342088 
L 306.045561 190.097786 
L 306.950935 188.863833 
L 307.856308 187.321391 
L 308.761682 187.938368 
L 309.667056 186.087438 
L 310.57243 187.938368 
L 311.477804 186.395926 
L 312.383178 183.311043 
L 313.288551 178.992206 
L 314.193925 170.354532 
L 315.099299 168.503602 
L 316.004673 171.588486 
L 316.910047 173.439416 
L 317.815421 172.822439 
L 318.720794 173.747904 
L 319.626168 171.896974 
L 320.531542 172.513951 
L 322.34229 167.886626 
L 323.247664 169.429067 
L 324.153037 172.822439 
L 325.058411 171.588486 
L 326.869159 171.588486 
L 327.774533 170.046044 
L 328.679907 170.663021 
L 329.58528 169.737556 
L 330.490654 169.737556 
L 331.396028 172.822439 
L 332.301402 172.513951 
L 333.206776 175.907323 
L 334.11215 181.768601 
L 335.017523 186.087438 
L 335.922897 192.874181 
L 336.828271 202.745808 
L 337.733645 207.99011 
L 338.639019 215.085342 
L 339.544393 217.553249 
L 341.35514 224.031504 
L 342.260514 225.882434 
L 343.165888 226.499411 
L 344.071262 228.350341 
L 344.976636 228.041852 
L 345.882009 228.658829 
L 346.787383 228.041852 
L 347.692757 228.041852 
L 348.598131 229.892782 
L 349.503505 231.435224 
L 351.314252 233.903131 
L 352.219626 234.211619 
L 354.030374 236.062549 
L 354.935748 236.371037 
L 355.841121 237.604991 
L 357.651869 236.988014 
L 359.462617 237.604991 
L 361.273364 236.371037 
L 363.084112 235.754061 
L 364.89486 234.520107 
L 365.800234 235.137084 
L 366.705607 236.371037 
L 367.610981 237.913479 
L 368.516355 238.838944 
L 369.421729 239.455921 
L 371.232477 239.455921 
L 372.13785 238.530456 
L 373.043224 238.838944 
L 373.948598 239.455921 
L 374.853972 239.764409 
L 376.66472 240.998363 
L 377.570093 240.998363 
L 378.475467 241.306851 
L 379.380841 240.998363 
L 381.191589 240.998363 
L 382.096963 240.381386 
L 383.002336 239.455921 
L 384.813084 236.988014 
L 385.718458 236.062549 
L 386.623832 234.828596 
L 387.529206 233.903131 
L 390.245327 232.977666 
L 391.150701 231.743712 
L 392.056075 232.052201 
L 392.961449 230.818247 
L 393.866822 229.275806 
L 394.772196 227.116387 
L 395.67757 223.723015 
L 397.488318 218.170225 
L 398.393692 213.851389 
L 399.299065 213.851389 
L 400.204439 211.074993 
L 401.109813 204.905227 
L 402.015187 199.969413 
L 402.920561 193.799646 
L 403.825935 188.863833 
L 404.731308 189.48081 
L 405.636682 183.311043 
L 406.542056 184.544996 
L 407.44743 186.087438 
L 408.352804 187.938368 
L 409.258178 189.48081 
L 410.163551 189.789298 
L 411.068925 188.863833 
L 411.974299 191.640228 
L 412.879673 189.172321 
L 413.785047 188.246856 
L 414.690421 185.778949 
L 416.501168 179.300694 
L 417.406542 174.673369 
L 418.311916 171.279997 
L 419.21729 170.046044 
L 420.122664 170.354532 
L 421.028037 170.354532 
L 421.933411 172.822439 
L 422.838785 174.056392 
L 423.744159 177.449764 
L 424.649533 178.683718 
L 425.554907 177.758253 
L 426.46028 175.598834 
L 427.365654 174.673369 
L 428.271028 174.056392 
L 429.176402 175.598834 
L 430.081776 175.598834 
L 430.98715 178.992206 
L 431.892523 177.449764 
L 432.797897 174.673369 
L 435.514019 157.70651 
L 436.419393 148.760348 
L 437.324766 142.282093 
L 438.23014 140.431163 
L 439.135514 133.952908 
L 440.040888 129.94256 
L 440.946262 127.783141 
L 441.851636 113.901166 
L 442.757009 118.220003 
L 443.662383 118.528491 
L 444.567757 115.443608 
L 445.473131 109.890817 
L 446.378505 107.731399 
L 447.283879 116.369073 
L 448.189252 126.549188 
L 449.094626 124.389769 
L 450 130.868025 
L 450 130.868025 
" style="fill:none;stroke:#b3220f;stroke-linecap:square;stroke-width:1.5;"/>
   </g>
   <g id="patch_3">
    <path d="M 62.5 262.5 
L 62.5 27 
" style="fill:none;stroke:#555555;stroke-linecap:square;stroke-linejoin:miter;"/>
   </g>
   <g id="patch_4">
    <path d="M 62.5 262.5 
L 450 262.5 
" style="fill:none;stroke:#555555;stroke-linecap:square;stroke-linejoin:miter;"/>
   </g>
   <g id="text_14">
    <!-- Ciudad Bolvar | Casos nuevos: 2021-06-04 -->
    <g style="fill:#555555;" transform="translate(119.976406 17)scale(0.14 -0.14)">
     <defs>
      <path d="M 58 49.90625 
L 67.5 49.90625 
Q 66.703125 55.59375 64.09375 59.9375 
Q 61.5 64.296875 57.59375 67.1875 
Q 53.703125 70.09375 48.703125 71.59375 
Q 43.703125 73.09375 38.09375 73.09375 
Q 29.90625 73.09375 23.546875 70.140625 
Q 17.203125 67.203125 12.953125 62.09375 
Q 8.703125 57 6.5 50.140625 
Q 4.296875 43.296875 4.296875 35.5 
Q 4.296875 27.703125 6.34375 20.890625 
Q 8.40625 14.09375 12.5 9.09375 
Q 16.59375 4.09375 22.796875 1.25 
Q 29 -1.59375 37.296875 -1.59375 
Q 51 -1.59375 58.890625 5.90625 
Q 66.796875 13.40625 68.203125 26.90625 
L 58.703125 26.90625 
Q 58.40625 22.5 56.90625 18.703125 
Q 55.40625 14.90625 52.75 12.15625 
Q 50.09375 9.40625 46.4375 7.84375 
Q 42.796875 6.296875 38.09375 6.296875 
Q 31.703125 6.296875 27.09375 8.6875 
Q 22.5 11.09375 19.546875 15.140625 
Q 16.59375 19.203125 15.1875 24.640625 
Q 13.796875 30.09375 13.796875 36.203125 
Q 13.796875 41.796875 15.1875 47 
Q 16.59375 52.203125 19.546875 56.25 
Q 22.5 60.296875 27.046875 62.6875 
Q 31.59375 65.09375 38 65.09375 
Q 45.5 65.09375 50.953125 61.296875 
Q 56.40625 57.5 58 49.90625 
z
" id="HelveticaNeue-67"/>
      <path d="M 15.40625 61 
L 15.40625 71.40625 
L 6.90625 71.40625 
L 6.90625 61 
z
M 6.90625 51.703125 
L 6.90625 0 
L 15.40625 0 
L 15.40625 51.703125 
z
" id="HelveticaNeue-105"/>
      <path d="M 12.59375 25.40625 
Q 12.59375 29.203125 13.390625 32.796875 
Q 14.203125 36.40625 16 39.203125 
Q 17.796875 42 20.796875 43.703125 
Q 23.796875 45.40625 28.09375 45.40625 
Q 32.5 45.40625 35.59375 43.75 
Q 38.703125 42.09375 40.640625 39.390625 
Q 42.59375 36.703125 43.5 33.140625 
Q 44.40625 29.59375 44.40625 25.796875 
Q 44.40625 22.203125 43.546875 18.703125 
Q 42.703125 15.203125 40.796875 12.453125 
Q 38.90625 9.703125 35.90625 8 
Q 32.90625 6.296875 28.59375 6.296875 
Q 24.5 6.296875 21.453125 7.890625 
Q 18.40625 9.5 16.453125 12.203125 
Q 14.5 14.90625 13.546875 18.34375 
Q 12.59375 21.796875 12.59375 25.40625 
z
M 52.59375 0 
L 52.59375 71.40625 
L 44.09375 71.40625 
L 44.09375 44.796875 
L 43.90625 44.796875 
Q 42.5 47.09375 40.453125 48.640625 
Q 38.40625 50.203125 36.09375 51.140625 
Q 33.796875 52.09375 31.5 52.5 
Q 29.203125 52.90625 27.203125 52.90625 
Q 21.296875 52.90625 16.84375 50.75 
Q 12.40625 48.59375 9.453125 44.9375 
Q 6.5 41.296875 5.046875 36.390625 
Q 3.59375 31.5 3.59375 26 
Q 3.59375 20.5 5.09375 15.59375 
Q 6.59375 10.703125 9.546875 7 
Q 12.5 3.296875 16.953125 1.09375 
Q 21.40625 -1.09375 27.40625 -1.09375 
Q 32.796875 -1.09375 37.296875 0.796875 
Q 41.796875 2.703125 43.90625 7 
L 44.09375 7 
L 44.09375 0 
z
" id="HelveticaNeue-100"/>
      <path id="HelveticaNeue-32"/>
      <path d="M 17.296875 40.703125 
L 17.296875 63.40625 
L 36.296875 63.40625 
Q 39.40625 63.40625 42.15625 63.046875 
Q 44.90625 62.703125 47 61.5 
Q 49.09375 60.296875 50.296875 58.09375 
Q 51.5 55.90625 51.5 52.09375 
Q 51.5 46.40625 47.953125 43.546875 
Q 44.40625 40.703125 36.296875 40.703125 
z
M 7.796875 71.40625 
L 7.796875 0 
L 42.296875 0 
Q 47.59375 0 51.640625 1.75 
Q 55.703125 3.5 58.453125 6.34375 
Q 61.203125 9.203125 62.59375 12.890625 
Q 64 16.59375 64 20.5 
Q 64 27.09375 60.5 31.6875 
Q 57 36.296875 50.40625 37.703125 
L 50.40625 37.90625 
Q 55.5 39.90625 58.25 44.046875 
Q 61 48.203125 61 53.90625 
Q 61 59.296875 58.546875 63 
Q 56.09375 66.703125 52.59375 68.796875 
Q 51 69.796875 48.75 70.296875 
Q 46.5 70.796875 43.890625 71.046875 
Q 41.296875 71.296875 38.640625 71.34375 
Q 36 71.40625 33.703125 71.40625 
z
M 17.296875 8 
L 17.296875 32.703125 
L 39 32.703125 
Q 42 32.703125 44.796875 32.140625 
Q 47.59375 31.59375 49.75 30.25 
Q 51.90625 28.90625 53.203125 26.59375 
Q 54.5 24.296875 54.5 20.796875 
Q 54.5 14.796875 50.953125 11.390625 
Q 47.40625 8 41.09375 8 
z
" id="HelveticaNeue-66"/>
      <path d="M 12.59375 25.796875 
Q 12.59375 30.5 13.84375 34.140625 
Q 15.09375 37.796875 17.296875 40.296875 
Q 19.5 42.796875 22.453125 44.09375 
Q 25.40625 45.40625 28.703125 45.40625 
Q 32 45.40625 34.953125 44.09375 
Q 37.90625 42.796875 40.09375 40.296875 
Q 42.296875 37.796875 43.546875 34.140625 
Q 44.796875 30.5 44.796875 25.796875 
Q 44.796875 21.09375 43.546875 17.4375 
Q 42.296875 13.796875 40.09375 11.34375 
Q 37.90625 8.90625 34.953125 7.59375 
Q 32 6.296875 28.703125 6.296875 
Q 25.40625 6.296875 22.453125 7.59375 
Q 19.5 8.90625 17.296875 11.34375 
Q 15.09375 13.796875 13.84375 17.4375 
Q 12.59375 21.09375 12.59375 25.796875 
z
M 3.59375 25.796875 
Q 3.59375 20.09375 5.1875 15.1875 
Q 6.796875 10.296875 10 6.640625 
Q 13.203125 3 17.890625 0.953125 
Q 22.59375 -1.09375 28.703125 -1.09375 
Q 34.90625 -1.09375 39.546875 0.953125 
Q 44.203125 3 47.390625 6.640625 
Q 50.59375 10.296875 52.1875 15.1875 
Q 53.796875 20.09375 53.796875 25.796875 
Q 53.796875 31.5 52.1875 36.453125 
Q 50.59375 41.40625 47.390625 45.046875 
Q 44.203125 48.703125 39.546875 50.796875 
Q 34.90625 52.90625 28.703125 52.90625 
Q 22.59375 52.90625 17.890625 50.796875 
Q 13.203125 48.703125 10 45.046875 
Q 6.796875 41.40625 5.1875 36.453125 
Q 3.59375 31.5 3.59375 25.796875 
z
" id="HelveticaNeue-111"/>
      <path d="M 6.90625 0 
L 15.40625 0 
L 15.40625 51.703125 
L 6.90625 51.703125 
z
M 25.5 77 
L 11.40625 60.796875 
L 5 60.796875 
L 14.59375 77 
z
" id="HelveticaNeue-237"/>
      <path d="M 29.703125 0 
L 48.59375 51.703125 
L 39.703125 51.703125 
L 25.59375 8.59375 
L 25.40625 8.59375 
L 10.90625 51.703125 
L 1.40625 51.703125 
L 20.59375 0 
z
" id="HelveticaNeue-118"/>
      <path d="M 7.703125 78.59375 
L 7.703125 -21.296875 
L 14.5 -21.296875 
L 14.5 78.59375 
z
" id="HelveticaNeue-124"/>
      <path d="M 11.59375 16.296875 
L 3.09375 16.296875 
Q 3.296875 11.5 5.09375 8.140625 
Q 6.90625 4.796875 9.90625 2.75 
Q 12.90625 0.703125 16.796875 -0.1875 
Q 20.703125 -1.09375 25 -1.09375 
Q 28.90625 -1.09375 32.84375 -0.34375 
Q 36.796875 0.40625 39.9375 2.296875 
Q 43.09375 4.203125 45.046875 7.296875 
Q 47 10.40625 47 15.09375 
Q 47 18.796875 45.546875 21.296875 
Q 44.09375 23.796875 41.75 25.4375 
Q 39.40625 27.09375 36.34375 28.09375 
Q 33.296875 29.09375 30.09375 29.796875 
Q 27.09375 30.5 24.09375 31.140625 
Q 21.09375 31.796875 18.6875 32.75 
Q 16.296875 33.703125 14.75 35.140625 
Q 13.203125 36.59375 13.203125 38.796875 
Q 13.203125 40.796875 14.203125 42.046875 
Q 15.203125 43.296875 16.796875 44.046875 
Q 18.40625 44.796875 20.34375 45.09375 
Q 22.296875 45.40625 24.203125 45.40625 
Q 26.296875 45.40625 28.34375 44.953125 
Q 30.40625 44.5 32.09375 43.5 
Q 33.796875 42.5 34.890625 40.84375 
Q 36 39.203125 36.203125 36.703125 
L 44.703125 36.703125 
Q 44.40625 41.40625 42.703125 44.546875 
Q 41 47.703125 38.140625 49.546875 
Q 35.296875 51.40625 31.59375 52.15625 
Q 27.90625 52.90625 23.5 52.90625 
Q 20.09375 52.90625 16.640625 52.046875 
Q 13.203125 51.203125 10.453125 49.453125 
Q 7.703125 47.703125 5.953125 44.890625 
Q 4.203125 42.09375 4.203125 38.203125 
Q 4.203125 33.203125 6.703125 30.390625 
Q 9.203125 27.59375 12.953125 26.046875 
Q 16.703125 24.5 21.09375 23.640625 
Q 25.5 22.796875 29.25 21.75 
Q 33 20.703125 35.5 19 
Q 38 17.296875 38 14 
Q 38 11.59375 36.796875 10.046875 
Q 35.59375 8.5 33.75 7.703125 
Q 31.90625 6.90625 29.703125 6.59375 
Q 27.5 6.296875 25.5 6.296875 
Q 22.90625 6.296875 20.453125 6.796875 
Q 18 7.296875 16.046875 8.4375 
Q 14.09375 9.59375 12.890625 11.546875 
Q 11.703125 13.5 11.59375 16.296875 
z
" id="HelveticaNeue-115"/>
      <path d="M 19.40625 40.59375 
L 19.40625 51.703125 
L 8.296875 51.703125 
L 8.296875 40.59375 
z
M 8.296875 11.09375 
L 8.296875 0 
L 19.40625 0 
L 19.40625 11.09375 
z
" id="HelveticaNeue-58"/>
      <path d="M 5 31.796875 
L 5 23.796875 
L 33.90625 23.796875 
L 33.90625 31.796875 
z
" id="HelveticaNeue-45"/>
     </defs>
     <use xlink:href="#HelveticaNeue-67"/>
     <use x="72.199982" xlink:href="#HelveticaNeue-105"/>
     <use x="94.399979" xlink:href="#HelveticaNeue-117"/>
     <use x="149.999969" xlink:href="#HelveticaNeue-100"/>
     <use x="209.299957" xlink:href="#HelveticaNeue-97"/>
     <use x="262.999954" xlink:href="#HelveticaNeue-100"/>
     <use x="322.299942" xlink:href="#HelveticaNeue-32"/>
     <use x="350.09993" xlink:href="#HelveticaNeue-66"/>
     <use x="418.599915" xlink:href="#HelveticaNeue-111"/>
     <use x="475.999908" xlink:href="#HelveticaNeue-108"/>
     <use x="498.199905" xlink:href="#HelveticaNeue-237"/>
     <use x="520.399902" xlink:href="#HelveticaNeue-118"/>
     <use x="570.399887" xlink:href="#HelveticaNeue-97"/>
     <use x="624.099884" xlink:href="#HelveticaNeue-114"/>
     <use x="657.399872" xlink:href="#HelveticaNeue-32"/>
     <use x="685.19986" xlink:href="#HelveticaNeue-124"/>
     <use x="707.399857" xlink:href="#HelveticaNeue-32"/>
     <use x="735.199844" xlink:href="#HelveticaNeue-67"/>
     <use x="807.399826" xlink:href="#HelveticaNeue-97"/>
     <use x="861.099823" xlink:href="#HelveticaNeue-115"/>
     <use x="911.099808" xlink:href="#HelveticaNeue-111"/>
     <use x="968.499802" xlink:href="#HelveticaNeue-115"/>
     <use x="1018.499786" xlink:href="#HelveticaNeue-32"/>
     <use x="1046.299774" xlink:href="#HelveticaNeue-110"/>
     <use x="1101.899765" xlink:href="#HelveticaNeue-117"/>
     <use x="1157.499756" xlink:href="#HelveticaNeue-101"/>
     <use x="1211.199753" xlink:href="#HelveticaNeue-118"/>
     <use x="1261.199738" xlink:href="#HelveticaNeue-111"/>
     <use x="1318.599731" xlink:href="#HelveticaNeue-115"/>
     <use x="1368.599716" xlink:href="#HelveticaNeue-58"/>
     <use x="1396.399704" xlink:href="#HelveticaNeue-32"/>
     <use x="1424.199692" xlink:href="#HelveticaNeue-50"/>
     <use x="1479.799683" xlink:href="#HelveticaNeue-48"/>
     <use x="1535.399673" xlink:href="#HelveticaNeue-50"/>
     <use x="1590.999664" xlink:href="#HelveticaNeue-49"/>
     <use x="1646.599655" xlink:href="#HelveticaNeue-45"/>
     <use x="1685.499649" xlink:href="#HelveticaNeue-48"/>
     <use x="1741.09964" xlink:href="#HelveticaNeue-54"/>
     <use x="1796.699631" xlink:href="#HelveticaNeue-45"/>
     <use x="1835.599625" xlink:href="#HelveticaNeue-48"/>
     <use x="1891.199615" xlink:href="#HelveticaNeue-52"/>
    </g>
   </g>
   <g id="legend_1">
    <g id="line2d_27">
     <path d="M 71.5 39.640625 
L 91.5 39.640625 
" style="fill:none;stroke:#000000;stroke-dasharray:1.5,2.475;stroke-dashoffset:0;stroke-opacity:0.5;stroke-width:1.5;"/>
    </g>
    <g id="line2d_28"/>
    <g id="text_15">
     <!-- Actual -->
     <g style="fill:#555555;" transform="translate(99.5 43.140625)scale(0.1 -0.1)">
      <use xlink:href="#HelveticaNeue-65"/>
      <use x="64.799988" xlink:href="#HelveticaNeue-99"/>
      <use x="118.499985" xlink:href="#HelveticaNeue-116"/>
      <use x="149.999969" xlink:href="#HelveticaNeue-117"/>
      <use x="205.59996" xlink:href="#HelveticaNeue-97"/>
      <use x="259.299957" xlink:href="#HelveticaNeue-108"/>
     </g>
    </g>
    <g id="line2d_29">
     <path d="M 71.5 54.310937 
L 91.5 54.310937 
" style="fill:none;stroke:#b3220f;stroke-linecap:square;stroke-width:1.5;"/>
    </g>
    <g id="line2d_30"/>
    <g id="text_16">
     <!-- Promedio semanal (7 das)  -->
     <g style="fill:#555555;" transform="translate(99.5 57.810937)scale(0.1 -0.1)">
      <defs>
       <path d="M 17.296875 37.203125 
L 17.296875 63.40625 
L 35.90625 63.40625 
Q 44 63.40625 47.75 60.046875 
Q 51.5 56.703125 51.5 50.296875 
Q 51.5 43.90625 47.75 40.5 
Q 44 37.09375 35.90625 37.203125 
z
M 7.796875 71.40625 
L 7.796875 0 
L 17.296875 0 
L 17.296875 29.203125 
L 39.09375 29.203125 
Q 49.90625 29.09375 55.453125 34.6875 
Q 61 40.296875 61 50.296875 
Q 61 60.296875 55.453125 65.84375 
Q 49.90625 71.40625 39.09375 71.40625 
z
" id="HelveticaNeue-80"/>
       <path d="M 6.40625 51.703125 
L 6.40625 0 
L 14.90625 0 
L 14.90625 32.203125 
Q 14.90625 33.703125 15.65625 35.953125 
Q 16.40625 38.203125 18.046875 40.296875 
Q 19.703125 42.40625 22.34375 43.90625 
Q 25 45.40625 28.703125 45.40625 
Q 31.59375 45.40625 33.4375 44.546875 
Q 35.296875 43.703125 36.390625 42.140625 
Q 37.5 40.59375 37.953125 38.5 
Q 38.40625 36.40625 38.40625 33.90625 
L 38.40625 0 
L 46.90625 0 
L 46.90625 32.203125 
Q 46.90625 38.203125 50.5 41.796875 
Q 54.09375 45.40625 60.40625 45.40625 
Q 63.5 45.40625 65.453125 44.5 
Q 67.40625 43.59375 68.5 42.046875 
Q 69.59375 40.5 70 38.390625 
Q 70.40625 36.296875 70.40625 33.90625 
L 70.40625 0 
L 78.90625 0 
L 78.90625 37.90625 
Q 78.90625 41.90625 77.65625 44.75 
Q 76.40625 47.59375 74.15625 49.390625 
Q 71.90625 51.203125 68.75 52.046875 
Q 65.59375 52.90625 61.703125 52.90625 
Q 56.59375 52.90625 52.34375 50.59375 
Q 48.09375 48.296875 45.5 44.09375 
Q 43.90625 48.90625 40 50.90625 
Q 36.09375 52.90625 31.296875 52.90625 
Q 20.40625 52.90625 14.59375 44.09375 
L 14.40625 44.09375 
L 14.40625 51.703125 
z
" id="HelveticaNeue-109"/>
       <path d="M 20.40625 -19.703125 
L 26.90625 -19.703125 
Q 19.796875 -8.203125 16.75 3.09375 
Q 13.703125 14.40625 13.703125 27 
Q 13.703125 39.296875 16.703125 50.5 
Q 19.703125 61.703125 26.90625 73.09375 
L 20.40625 73.09375 
Q 12.59375 62.796875 8.640625 50.796875 
Q 4.703125 38.796875 4.703125 27 
Q 4.703125 20.40625 5.796875 14.40625 
Q 6.90625 8.40625 8.953125 2.703125 
Q 11 -3 13.890625 -8.546875 
Q 16.796875 -14.09375 20.40625 -19.703125 
z
" id="HelveticaNeue-40"/>
       <path d="M -0.90625 -19.703125 
L 5.5 -19.703125 
Q 13.296875 -9.40625 17.25 2.546875 
Q 21.203125 14.5 21.203125 26.296875 
Q 21.203125 32.90625 20.09375 38.90625 
Q 19 44.90625 16.953125 50.65625 
Q 14.90625 56.40625 12 61.953125 
Q 9.09375 67.5 5.5 73.09375 
L -0.90625 73.09375 
Q 6.09375 61.59375 9.140625 50.25 
Q 12.203125 38.90625 12.203125 26.296875 
Q 12.203125 14.09375 9.203125 2.84375 
Q 6.203125 -8.40625 -0.90625 -19.703125 
z
" id="HelveticaNeue-41"/>
      </defs>
      <use xlink:href="#HelveticaNeue-80"/>
      <use x="64.799988" xlink:href="#HelveticaNeue-114"/>
      <use x="96.349976" xlink:href="#HelveticaNeue-111"/>
      <use x="153.749969" xlink:href="#HelveticaNeue-109"/>
      <use x="239.049957" xlink:href="#HelveticaNeue-101"/>
      <use x="292.749954" xlink:href="#HelveticaNeue-100"/>
      <use x="352.049942" xlink:href="#HelveticaNeue-105"/>
      <use x="374.249939" xlink:href="#HelveticaNeue-111"/>
      <use x="431.649933" xlink:href="#HelveticaNeue-32"/>
      <use x="459.449921" xlink:href="#HelveticaNeue-115"/>
      <use x="509.449905" xlink:href="#HelveticaNeue-101"/>
      <use x="563.149902" xlink:href="#HelveticaNeue-109"/>
      <use x="648.44989" xlink:href="#HelveticaNeue-97"/>
      <use x="702.149887" xlink:href="#HelveticaNeue-110"/>
      <use x="757.749878" xlink:href="#HelveticaNeue-97"/>
      <use x="811.449875" xlink:href="#HelveticaNeue-108"/>
      <use x="833.649872" xlink:href="#HelveticaNeue-32"/>
      <use x="861.44986" xlink:href="#HelveticaNeue-40"/>
      <use x="887.349854" xlink:href="#HelveticaNeue-55"/>
      <use x="942.949844" xlink:href="#HelveticaNeue-32"/>
      <use x="970.749832" xlink:href="#HelveticaNeue-100"/>
      <use x="1030.04982" xlink:href="#HelveticaNeue-237"/>
      <use x="1052.249817" xlink:href="#HelveticaNeue-97"/>
      <use x="1105.949814" xlink:href="#HelveticaNeue-115"/>
      <use x="1155.949799" xlink:href="#HelveticaNeue-41"/>
      <use x="1181.849792" xlink:href="#HelveticaNeue-32"/>
     </g>
    </g>
   </g>
  </g>
 </g>
 <defs>
  <clipPath id="p75b1e786ca">
   <rect height="235.5" width="387.5" x="62.5" y="27"/>
  </clipPath>
 </defs>
</svg>
