<?xml version="1.0" encoding="utf-8" standalone="no"?>
<!DOCTYPE svg PUBLIC "-//W3C//DTD SVG 1.1//EN"
  "http://www.w3.org/Graphics/SVG/1.1/DTD/svg11.dtd">
<!-- Created with matplotlib (https://matplotlib.org/) -->
<svg height="300pt" version="1.1" viewBox="0 0 500 300" width="500pt" xmlns="http://www.w3.org/2000/svg" xmlns:xlink="http://www.w3.org/1999/xlink">
 <metadata>
  <rdf:RDF xmlns:cc="http://creativecommons.org/ns#" xmlns:dc="http://purl.org/dc/elements/1.1/" xmlns:rdf="http://www.w3.org/1999/02/22-rdf-syntax-ns#">
   <cc:Work>
    <dc:type rdf:resource="http://purl.org/dc/dcmitype/StillImage"/>
    <dc:date>2021-06-04T21:06:07.433217</dc:date>
    <dc:format>image/svg+xml</dc:format>
    <dc:creator>
     <cc:Agent>
      <dc:title>Matplotlib v3.3.4, https://matplotlib.org/</dc:title>
     </cc:Agent>
    </dc:creator>
   </cc:Work>
  </rdf:RDF>
 </metadata>
 <defs>
  <style type="text/css">*{stroke-linecap:butt;stroke-linejoin:round;}</style>
 </defs>
 <g id="figure_1">
  <g id="patch_1">
   <path d="M 0 300 
L 500 300 
L 500 0 
L 0 0 
z
" style="fill:#ffffff;"/>
  </g>
  <g id="axes_1">
   <g id="patch_2">
    <path d="M 62.5 262.5 
L 450 262.5 
L 450 27 
L 62.5 27 
z
" style="fill:#ffffff;"/>
   </g>
   <g id="matplotlib.axis_1">
    <g id="xtick_1">
     <g id="line2d_1">
      <defs>
       <path d="M 0 0 
L 0 3.5 
" id="ma78fe40897" style="stroke:#555555;stroke-width:0.8;"/>
      </defs>
      <g>
       <use style="fill:#555555;stroke:#555555;stroke-width:0.8;" x="62.5" xlink:href="#ma78fe40897" y="262.5"/>
      </g>
     </g>
    </g>
    <g id="xtick_2">
     <g id="line2d_2">
      <g>
       <use style="fill:#555555;stroke:#555555;stroke-width:0.8;" x="145.535714" xlink:href="#ma78fe40897" y="262.5"/>
      </g>
     </g>
     <g id="text_1">
      <!-- Jul -->
      <g style="fill:#555555;" transform="translate(139.050558 276.640625)scale(0.1 -0.1)">
       <defs>
        <path d="M 44.09375 17.796875 
L 44.09375 71.40625 
L 34.59375 71.40625 
L 34.59375 19.203125 
Q 34.59375 13.296875 32.140625 9.796875 
Q 29.703125 6.296875 23.203125 6.296875 
Q 19.703125 6.296875 17.453125 7.34375 
Q 15.203125 8.40625 13.953125 10.296875 
Q 12.703125 12.203125 12.203125 14.796875 
Q 11.703125 17.40625 11.703125 20.5 
L 11.703125 23.5 
L 2.203125 23.5 
L 2.203125 19.09375 
Q 2.203125 8.90625 7.59375 3.65625 
Q 13 -1.59375 23 -1.59375 
Q 29 -1.59375 33.046875 0.046875 
Q 37.09375 1.703125 39.546875 4.453125 
Q 42 7.203125 43.046875 10.703125 
Q 44.09375 14.203125 44.09375 17.796875 
z
" id="HelveticaNeue-74"/>
        <path d="M 49.203125 0 
L 49.203125 51.703125 
L 40.703125 51.703125 
L 40.703125 22.5 
Q 40.703125 19 39.75 16.046875 
Q 38.796875 13.09375 36.890625 10.890625 
Q 35 8.703125 32.140625 7.5 
Q 29.296875 6.296875 25.40625 6.296875 
Q 20.5 6.296875 17.703125 9.09375 
Q 14.90625 11.90625 14.90625 16.703125 
L 14.90625 51.703125 
L 6.40625 51.703125 
L 6.40625 17.703125 
Q 6.40625 13.5 7.25 10.046875 
Q 8.09375 6.59375 10.1875 4.09375 
Q 12.296875 1.59375 15.6875 0.25 
Q 19.09375 -1.09375 24.203125 -1.09375 
Q 29.90625 -1.09375 34.09375 1.15625 
Q 38.296875 3.40625 41 8.203125 
L 41.203125 8.203125 
L 41.203125 0 
z
" id="HelveticaNeue-117"/>
        <path d="M 6.90625 71.40625 
L 6.90625 0 
L 15.40625 0 
L 15.40625 71.40625 
z
" id="HelveticaNeue-108"/>
       </defs>
       <use xlink:href="#HelveticaNeue-74"/>
       <use x="51.899994" xlink:href="#HelveticaNeue-117"/>
       <use x="107.499985" xlink:href="#HelveticaNeue-108"/>
      </g>
     </g>
    </g>
    <g id="xtick_3">
     <g id="line2d_3">
      <g>
       <use style="fill:#555555;stroke:#555555;stroke-width:0.8;" x="230.416667" xlink:href="#ma78fe40897" y="262.5"/>
      </g>
     </g>
     <g id="text_2">
      <!-- Oct -->
      <g style="fill:#555555;" transform="translate(222.35651 276.640625)scale(0.1 -0.1)">
       <defs>
        <path d="M 13.296875 35.703125 
Q 13.296875 41.09375 14.6875 46.34375 
Q 16.09375 51.59375 19.09375 55.796875 
Q 22.09375 60 26.796875 62.546875 
Q 31.5 65.09375 38 65.09375 
Q 44.5 65.09375 49.203125 62.546875 
Q 53.90625 60 56.90625 55.796875 
Q 59.90625 51.59375 61.296875 46.34375 
Q 62.703125 41.09375 62.703125 35.703125 
Q 62.703125 30.296875 61.296875 25.046875 
Q 59.90625 19.796875 56.90625 15.59375 
Q 53.90625 11.40625 49.203125 8.84375 
Q 44.5 6.296875 38 6.296875 
Q 31.5 6.296875 26.796875 8.84375 
Q 22.09375 11.40625 19.09375 15.59375 
Q 16.09375 19.796875 14.6875 25.046875 
Q 13.296875 30.296875 13.296875 35.703125 
z
M 3.796875 35.703125 
Q 3.796875 28.40625 5.9375 21.65625 
Q 8.09375 14.90625 12.390625 9.703125 
Q 16.703125 4.5 23.09375 1.453125 
Q 29.5 -1.59375 38 -1.59375 
Q 46.5 -1.59375 52.890625 1.453125 
Q 59.296875 4.5 63.59375 9.703125 
Q 67.90625 14.90625 70.046875 21.65625 
Q 72.203125 28.40625 72.203125 35.703125 
Q 72.203125 43 70.046875 49.75 
Q 67.90625 56.5 63.59375 61.703125 
Q 59.296875 66.90625 52.890625 70 
Q 46.5 73.09375 38 73.09375 
Q 29.5 73.09375 23.09375 70 
Q 16.703125 66.90625 12.390625 61.703125 
Q 8.09375 56.5 5.9375 49.75 
Q 3.796875 43 3.796875 35.703125 
z
" id="HelveticaNeue-79"/>
        <path d="M 41.5 35.09375 
L 50.296875 35.09375 
Q 49.796875 39.703125 47.890625 43.046875 
Q 46 46.40625 43.046875 48.59375 
Q 40.09375 50.796875 36.25 51.84375 
Q 32.40625 52.90625 28 52.90625 
Q 21.90625 52.90625 17.296875 50.75 
Q 12.703125 48.59375 9.640625 44.84375 
Q 6.59375 41.09375 5.09375 36.046875 
Q 3.59375 31 3.59375 25.203125 
Q 3.59375 19.40625 5.140625 14.546875 
Q 6.703125 9.703125 9.75 6.203125 
Q 12.796875 2.703125 17.34375 0.796875 
Q 21.90625 -1.09375 27.796875 -1.09375 
Q 37.703125 -1.09375 43.453125 4.09375 
Q 49.203125 9.296875 50.59375 18.90625 
L 41.90625 18.90625 
Q 41.09375 12.90625 37.546875 9.59375 
Q 34 6.296875 27.703125 6.296875 
Q 23.703125 6.296875 20.796875 7.890625 
Q 17.90625 9.5 16.09375 12.140625 
Q 14.296875 14.796875 13.4375 18.1875 
Q 12.59375 21.59375 12.59375 25.203125 
Q 12.59375 29.09375 13.390625 32.75 
Q 14.203125 36.40625 16.046875 39.203125 
Q 17.90625 42 21 43.703125 
Q 24.09375 45.40625 28.703125 45.40625 
Q 34.09375 45.40625 37.296875 42.703125 
Q 40.5 40 41.5 35.09375 
z
" id="HelveticaNeue-99"/>
        <path d="M 18.203125 51.703125 
L 18.203125 67.203125 
L 9.703125 67.203125 
L 9.703125 51.703125 
L 0.90625 51.703125 
L 0.90625 44.203125 
L 9.703125 44.203125 
L 9.703125 11.296875 
Q 9.703125 7.703125 10.390625 5.5 
Q 11.09375 3.296875 12.546875 2.09375 
Q 14 0.90625 16.34375 0.453125 
Q 18.703125 0 22 0 
L 28.5 0 
L 28.5 7.5 
L 24.59375 7.5 
Q 22.59375 7.5 21.34375 7.640625 
Q 20.09375 7.796875 19.390625 8.296875 
Q 18.703125 8.796875 18.453125 9.6875 
Q 18.203125 10.59375 18.203125 12.09375 
L 18.203125 44.203125 
L 28.5 44.203125 
L 28.5 51.703125 
z
" id="HelveticaNeue-116"/>
       </defs>
       <use xlink:href="#HelveticaNeue-79"/>
       <use x="75.999985" xlink:href="#HelveticaNeue-99"/>
       <use x="129.699982" xlink:href="#HelveticaNeue-116"/>
      </g>
     </g>
    </g>
    <g id="xtick_4">
     <g id="line2d_4">
      <g>
       <use style="fill:#555555;stroke:#555555;stroke-width:0.8;" x="315.297619" xlink:href="#ma78fe40897" y="262.5"/>
      </g>
     </g>
     <g id="text_3">
      <!-- Jan -->
      <g style="fill:#555555;" transform="translate(307.237463 276.640625)scale(0.1 -0.1)">
       <defs>
        <path d="M 52.203125 0.203125 
Q 50 -1.09375 46.09375 -1.09375 
Q 42.796875 -1.09375 40.84375 0.75 
Q 38.90625 2.59375 38.90625 6.796875 
Q 35.40625 2.59375 30.75 0.75 
Q 26.09375 -1.09375 20.703125 -1.09375 
Q 17.203125 -1.09375 14.046875 -0.296875 
Q 10.90625 0.5 8.59375 2.203125 
Q 6.296875 3.90625 4.9375 6.65625 
Q 3.59375 9.40625 3.59375 13.296875 
Q 3.59375 17.703125 5.09375 20.5 
Q 6.59375 23.296875 9.046875 25.046875 
Q 11.5 26.796875 14.640625 27.6875 
Q 17.796875 28.59375 21.09375 29.203125 
Q 24.59375 29.90625 27.75 30.25 
Q 30.90625 30.59375 33.296875 31.25 
Q 35.703125 31.90625 37.09375 33.15625 
Q 38.5 34.40625 38.5 36.796875 
Q 38.5 39.59375 37.453125 41.296875 
Q 36.40625 43 34.75 43.890625 
Q 33.09375 44.796875 31.046875 45.09375 
Q 29 45.40625 27 45.40625 
Q 21.59375 45.40625 18 43.34375 
Q 14.40625 41.296875 14.09375 35.59375 
L 5.59375 35.59375 
Q 5.796875 40.40625 7.59375 43.703125 
Q 9.40625 47 12.40625 49.046875 
Q 15.40625 51.09375 19.25 52 
Q 23.09375 52.90625 27.5 52.90625 
Q 31 52.90625 34.453125 52.40625 
Q 37.90625 51.90625 40.703125 50.34375 
Q 43.5 48.796875 45.203125 46 
Q 46.90625 43.203125 46.90625 38.703125 
L 46.90625 12.09375 
Q 46.90625 9.09375 47.25 7.6875 
Q 47.59375 6.296875 49.59375 6.296875 
Q 50.703125 6.296875 52.203125 6.796875 
z
M 38.40625 26.703125 
Q 36.796875 25.5 34.1875 24.953125 
Q 31.59375 24.40625 28.75 24.046875 
Q 25.90625 23.703125 23 23.25 
Q 20.09375 22.796875 17.796875 21.796875 
Q 15.5 20.796875 14.046875 18.9375 
Q 12.59375 17.09375 12.59375 13.90625 
Q 12.59375 11.796875 13.4375 10.34375 
Q 14.296875 8.90625 15.640625 8 
Q 17 7.09375 18.796875 6.6875 
Q 20.59375 6.296875 22.59375 6.296875 
Q 26.796875 6.296875 29.796875 7.4375 
Q 32.796875 8.59375 34.6875 10.34375 
Q 36.59375 12.09375 37.5 14.140625 
Q 38.40625 16.203125 38.40625 18 
z
" id="HelveticaNeue-97"/>
        <path d="M 6.40625 51.703125 
L 6.40625 0 
L 14.90625 0 
L 14.90625 29.203125 
Q 14.90625 32.703125 15.84375 35.640625 
Q 16.796875 38.59375 18.6875 40.796875 
Q 20.59375 43 23.4375 44.203125 
Q 26.296875 45.40625 30.203125 45.40625 
Q 35.09375 45.40625 37.890625 42.59375 
Q 40.703125 39.796875 40.703125 35 
L 40.703125 0 
L 49.203125 0 
L 49.203125 34 
Q 49.203125 38.203125 48.34375 41.640625 
Q 47.5 45.09375 45.390625 47.59375 
Q 43.296875 50.09375 39.890625 51.5 
Q 36.5 52.90625 31.40625 52.90625 
Q 19.90625 52.90625 14.59375 43.5 
L 14.40625 43.5 
L 14.40625 51.703125 
z
" id="HelveticaNeue-110"/>
       </defs>
       <use xlink:href="#HelveticaNeue-74"/>
       <use x="51.899994" xlink:href="#HelveticaNeue-97"/>
       <use x="105.599991" xlink:href="#HelveticaNeue-110"/>
      </g>
      <!-- 2021 -->
      <g style="fill:#555555;" transform="translate(304.178869 287.179688)scale(0.1 -0.1)">
       <defs>
        <path d="M 4.40625 45.796875 
L 12.90625 45.796875 
Q 12.796875 49 13.546875 52.140625 
Q 14.296875 55.296875 16 57.796875 
Q 17.703125 60.296875 20.34375 61.84375 
Q 23 63.40625 26.703125 63.40625 
Q 29.5 63.40625 32 62.5 
Q 34.5 61.59375 36.34375 59.890625 
Q 38.203125 58.203125 39.296875 55.84375 
Q 40.40625 53.5 40.40625 50.59375 
Q 40.40625 46.90625 39.25 44.09375 
Q 38.09375 41.296875 35.84375 38.890625 
Q 33.59375 36.5 30.1875 34.140625 
Q 26.796875 31.796875 22.296875 29 
Q 18.59375 26.796875 15.1875 24.296875 
Q 11.796875 21.796875 9.09375 18.5 
Q 6.40625 15.203125 4.65625 10.75 
Q 2.90625 6.296875 2.40625 0 
L 48.703125 0 
L 48.703125 7.5 
L 12.296875 7.5 
Q 12.90625 10.796875 14.84375 13.34375 
Q 16.796875 15.90625 19.546875 18.09375 
Q 22.296875 20.296875 25.59375 22.25 
Q 28.90625 24.203125 32.203125 26.203125 
Q 35.5 28.296875 38.59375 30.59375 
Q 41.703125 32.90625 44.09375 35.75 
Q 46.5 38.59375 47.953125 42.1875 
Q 49.40625 45.796875 49.40625 50.5 
Q 49.40625 55.5 47.65625 59.296875 
Q 45.90625 63.09375 42.90625 65.640625 
Q 39.90625 68.203125 35.84375 69.546875 
Q 31.796875 70.90625 27.203125 70.90625 
Q 21.59375 70.90625 17.1875 69 
Q 12.796875 67.09375 9.84375 63.75 
Q 6.90625 60.40625 5.5 55.796875 
Q 4.09375 51.203125 4.40625 45.796875 
z
" id="HelveticaNeue-50"/>
        <path d="M 13.203125 34.90625 
Q 13.203125 37.5 13.25 40.640625 
Q 13.296875 43.796875 13.75 46.9375 
Q 14.203125 50.09375 15.046875 53.09375 
Q 15.90625 56.09375 17.546875 58.34375 
Q 19.203125 60.59375 21.703125 62 
Q 24.203125 63.40625 27.796875 63.40625 
Q 31.40625 63.40625 33.90625 62 
Q 36.40625 60.59375 38.046875 58.34375 
Q 39.703125 56.09375 40.546875 53.09375 
Q 41.40625 50.09375 41.84375 46.9375 
Q 42.296875 43.796875 42.34375 40.640625 
Q 42.40625 37.5 42.40625 34.90625 
Q 42.40625 30.90625 42.15625 25.953125 
Q 41.90625 21 40.546875 16.640625 
Q 39.203125 12.296875 36.203125 9.296875 
Q 33.203125 6.296875 27.796875 6.296875 
Q 22.40625 6.296875 19.40625 9.296875 
Q 16.40625 12.296875 15.046875 16.640625 
Q 13.703125 21 13.453125 25.953125 
Q 13.203125 30.90625 13.203125 34.90625 
z
M 4.203125 34.796875 
Q 4.203125 30.90625 4.390625 26.703125 
Q 4.59375 22.5 5.390625 18.5 
Q 6.203125 14.5 7.703125 10.953125 
Q 9.203125 7.40625 11.796875 4.703125 
Q 14.40625 2 18.34375 0.453125 
Q 22.296875 -1.09375 27.796875 -1.09375 
Q 33.40625 -1.09375 37.296875 0.453125 
Q 41.203125 2 43.796875 4.703125 
Q 46.40625 7.40625 47.90625 10.953125 
Q 49.40625 14.5 50.203125 18.5 
Q 51 22.5 51.203125 26.703125 
Q 51.40625 30.90625 51.40625 34.796875 
Q 51.40625 38.703125 51.203125 42.890625 
Q 51 47.09375 50.203125 51.09375 
Q 49.40625 55.09375 47.90625 58.6875 
Q 46.40625 62.296875 43.796875 65 
Q 41.203125 67.703125 37.25 69.296875 
Q 33.296875 70.90625 27.796875 70.90625 
Q 22.296875 70.90625 18.34375 69.296875 
Q 14.40625 67.703125 11.796875 65 
Q 9.203125 62.296875 7.703125 58.6875 
Q 6.203125 55.09375 5.390625 51.09375 
Q 4.59375 47.09375 4.390625 42.890625 
Q 4.203125 38.703125 4.203125 34.796875 
z
" id="HelveticaNeue-48"/>
        <path d="M 35.59375 0 
L 35.59375 70.90625 
L 29.09375 70.90625 
Q 28.40625 66.90625 26.5 64.296875 
Q 24.59375 61.703125 21.84375 60.203125 
Q 19.09375 58.703125 15.6875 58.140625 
Q 12.296875 57.59375 8.703125 57.59375 
L 8.703125 50.796875 
L 27.09375 50.796875 
L 27.09375 0 
z
" id="HelveticaNeue-49"/>
       </defs>
       <use xlink:href="#HelveticaNeue-50"/>
       <use x="55.599991" xlink:href="#HelveticaNeue-48"/>
       <use x="111.199982" xlink:href="#HelveticaNeue-50"/>
       <use x="166.799973" xlink:href="#HelveticaNeue-49"/>
      </g>
     </g>
    </g>
    <g id="xtick_5">
     <g id="line2d_5">
      <g>
       <use style="fill:#555555;stroke:#555555;stroke-width:0.8;" x="398.333333" xlink:href="#ma78fe40897" y="262.5"/>
      </g>
     </g>
     <g id="text_4">
      <!-- Apr -->
      <g style="fill:#555555;" transform="translate(390.463802 276.640625)scale(0.1 -0.1)">
       <defs>
        <path d="M 20.09375 29.5 
L 32.203125 62.796875 
L 32.40625 62.796875 
L 44.296875 29.5 
z
M 27.203125 71.40625 
L -0.59375 0 
L 9.09375 0 
L 17.09375 21.5 
L 47.296875 21.5 
L 55.09375 0 
L 65.59375 0 
L 37.703125 71.40625 
z
" id="HelveticaNeue-65"/>
        <path d="M 6.703125 51.703125 
L 6.703125 -19.703125 
L 15.203125 -19.703125 
L 15.203125 6.90625 
L 15.40625 6.90625 
Q 16.796875 4.59375 18.84375 3.046875 
Q 20.90625 1.5 23.203125 0.59375 
Q 25.5 -0.296875 27.84375 -0.6875 
Q 30.203125 -1.09375 32.09375 -1.09375 
Q 38 -1.09375 42.453125 1 
Q 46.90625 3.09375 49.84375 6.75 
Q 52.796875 10.40625 54.25 15.296875 
Q 55.703125 20.203125 55.703125 25.703125 
Q 55.703125 31.203125 54.203125 36.09375 
Q 52.703125 41 49.75 44.75 
Q 46.796875 48.5 42.34375 50.703125 
Q 37.90625 52.90625 31.90625 52.90625 
Q 26.5 52.90625 22 50.953125 
Q 17.5 49 15.40625 44.703125 
L 15.203125 44.703125 
L 15.203125 51.703125 
z
M 46.703125 26.296875 
Q 46.703125 22.5 45.890625 18.890625 
Q 45.09375 15.296875 43.296875 12.5 
Q 41.5 9.703125 38.546875 8 
Q 35.59375 6.296875 31.203125 6.296875 
Q 26.796875 6.296875 23.6875 7.9375 
Q 20.59375 9.59375 18.640625 12.296875 
Q 16.703125 15 15.796875 18.546875 
Q 14.90625 22.09375 14.90625 25.90625 
Q 14.90625 29.5 15.75 33 
Q 16.59375 36.5 18.5 39.25 
Q 20.40625 42 23.40625 43.703125 
Q 26.40625 45.40625 30.703125 45.40625 
Q 34.796875 45.40625 37.84375 43.796875 
Q 40.90625 42.203125 42.84375 39.5 
Q 44.796875 36.796875 45.75 33.34375 
Q 46.703125 29.90625 46.703125 26.296875 
z
" id="HelveticaNeue-112"/>
        <path d="M 6.09375 51.703125 
L 6.09375 0 
L 14.59375 0 
L 14.59375 23 
Q 14.59375 28 15.59375 31.84375 
Q 16.59375 35.703125 18.796875 38.390625 
Q 21 41.09375 24.59375 42.5 
Q 28.203125 43.90625 33.296875 43.90625 
L 33.296875 52.90625 
Q 26.40625 53.09375 21.90625 50.09375 
Q 17.40625 47.09375 14.296875 40.796875 
L 14.09375 40.796875 
L 14.09375 51.703125 
z
" id="HelveticaNeue-114"/>
       </defs>
       <use xlink:href="#HelveticaNeue-65"/>
       <use x="64.799988" xlink:href="#HelveticaNeue-112"/>
       <use x="124.099976" xlink:href="#HelveticaNeue-114"/>
      </g>
     </g>
    </g>
    <g id="xtick_6">
     <g id="line2d_6">
      <g>
       <use style="fill:#555555;stroke:#555555;stroke-width:0.8;" x="450" xlink:href="#ma78fe40897" y="262.5"/>
      </g>
     </g>
    </g>
    <g id="xtick_7">
     <g id="line2d_7">
      <defs>
       <path d="M 0 0 
L 0 2 
" id="m449124e4c3" style="stroke:#555555;stroke-width:0.6;"/>
      </defs>
      <g>
       <use style="fill:#555555;stroke:#555555;stroke-width:0.6;" x="89.255952" xlink:href="#m449124e4c3" y="262.5"/>
      </g>
     </g>
    </g>
    <g id="xtick_8">
     <g id="line2d_8">
      <g>
       <use style="fill:#555555;stroke:#555555;stroke-width:0.6;" x="117.857143" xlink:href="#m449124e4c3" y="262.5"/>
      </g>
     </g>
    </g>
    <g id="xtick_9">
     <g id="line2d_9">
      <g>
       <use style="fill:#555555;stroke:#555555;stroke-width:0.6;" x="174.136905" xlink:href="#m449124e4c3" y="262.5"/>
      </g>
     </g>
    </g>
    <g id="xtick_10">
     <g id="line2d_10">
      <g>
       <use style="fill:#555555;stroke:#555555;stroke-width:0.6;" x="202.738095" xlink:href="#m449124e4c3" y="262.5"/>
      </g>
     </g>
    </g>
    <g id="xtick_11">
     <g id="line2d_11">
      <g>
       <use style="fill:#555555;stroke:#555555;stroke-width:0.6;" x="259.017857" xlink:href="#m449124e4c3" y="262.5"/>
      </g>
     </g>
    </g>
    <g id="xtick_12">
     <g id="line2d_12">
      <g>
       <use style="fill:#555555;stroke:#555555;stroke-width:0.6;" x="286.696429" xlink:href="#m449124e4c3" y="262.5"/>
      </g>
     </g>
    </g>
    <g id="xtick_13">
     <g id="line2d_13">
      <g>
       <use style="fill:#555555;stroke:#555555;stroke-width:0.6;" x="343.89881" xlink:href="#m449124e4c3" y="262.5"/>
      </g>
     </g>
    </g>
    <g id="xtick_14">
     <g id="line2d_14">
      <g>
       <use style="fill:#555555;stroke:#555555;stroke-width:0.6;" x="369.732143" xlink:href="#m449124e4c3" y="262.5"/>
      </g>
     </g>
    </g>
    <g id="xtick_15">
     <g id="line2d_15">
      <g>
       <use style="fill:#555555;stroke:#555555;stroke-width:0.6;" x="426.011905" xlink:href="#m449124e4c3" y="262.5"/>
      </g>
     </g>
    </g>
    <g id="text_5">
     <!-- fecha -->
     <g style="fill:#555555;" transform="translate(243.935156 300.290625)scale(0.1 -0.1)">
      <defs>
       <path d="M 9.90625 44.203125 
L 9.90625 0 
L 18.40625 0 
L 18.40625 44.203125 
L 28.40625 44.203125 
L 28.40625 51.703125 
L 18.40625 51.703125 
L 18.40625 58.90625 
Q 18.40625 62.296875 20.09375 63.5 
Q 21.796875 64.703125 24.90625 64.703125 
Q 26 64.703125 27.296875 64.546875 
Q 28.59375 64.40625 29.703125 64 
L 29.703125 71.40625 
Q 28.5 71.796875 26.953125 72 
Q 25.40625 72.203125 24.203125 72.203125 
Q 17.203125 72.203125 13.546875 68.953125 
Q 9.90625 65.703125 9.90625 59.40625 
L 9.90625 51.703125 
L 1.203125 51.703125 
L 1.203125 44.203125 
z
" id="HelveticaNeue-102"/>
       <path d="M 42.296875 30.796875 
L 12.59375 30.796875 
Q 12.796875 33.796875 13.890625 36.4375 
Q 15 39.09375 16.890625 41.09375 
Q 18.796875 43.09375 21.4375 44.25 
Q 24.09375 45.40625 27.40625 45.40625 
Q 30.59375 45.40625 33.25 44.25 
Q 35.90625 43.09375 37.84375 41.140625 
Q 39.796875 39.203125 40.9375 36.5 
Q 42.09375 33.796875 42.296875 30.796875 
z
M 50.5 16.40625 
L 42.09375 16.40625 
Q 41 11.296875 37.546875 8.796875 
Q 34.09375 6.296875 28.703125 6.296875 
Q 24.5 6.296875 21.390625 7.6875 
Q 18.296875 9.09375 16.296875 11.4375 
Q 14.296875 13.796875 13.390625 16.84375 
Q 12.5 19.90625 12.59375 23.296875 
L 51.296875 23.296875 
Q 51.5 28 50.453125 33.203125 
Q 49.40625 38.40625 46.65625 42.796875 
Q 43.90625 47.203125 39.34375 50.046875 
Q 34.796875 52.90625 27.90625 52.90625 
Q 22.59375 52.90625 18.140625 50.90625 
Q 13.703125 48.90625 10.453125 45.296875 
Q 7.203125 41.703125 5.390625 36.796875 
Q 3.59375 31.90625 3.59375 26 
Q 3.796875 20.09375 5.34375 15.09375 
Q 6.90625 10.09375 10 6.5 
Q 13.09375 2.90625 17.640625 0.90625 
Q 22.203125 -1.09375 28.40625 -1.09375 
Q 37.203125 -1.09375 43 3.296875 
Q 48.796875 7.703125 50.5 16.40625 
z
" id="HelveticaNeue-101"/>
       <path d="M 6.40625 71.40625 
L 6.40625 0 
L 14.90625 0 
L 14.90625 29.203125 
Q 14.90625 32.703125 15.84375 35.640625 
Q 16.796875 38.59375 18.6875 40.796875 
Q 20.59375 43 23.4375 44.203125 
Q 26.296875 45.40625 30.203125 45.40625 
Q 35.09375 45.40625 37.890625 42.59375 
Q 40.703125 39.796875 40.703125 35 
L 40.703125 0 
L 49.203125 0 
L 49.203125 34 
Q 49.203125 38.203125 48.34375 41.640625 
Q 47.5 45.09375 45.390625 47.59375 
Q 43.296875 50.09375 39.890625 51.5 
Q 36.5 52.90625 31.40625 52.90625 
Q 29.09375 52.90625 26.640625 52.40625 
Q 24.203125 51.90625 21.953125 50.84375 
Q 19.703125 49.796875 17.890625 48.140625 
Q 16.09375 46.5 15.09375 44.09375 
L 14.90625 44.09375 
L 14.90625 71.40625 
z
" id="HelveticaNeue-104"/>
      </defs>
      <use xlink:href="#HelveticaNeue-102"/>
      <use x="29.599991" xlink:href="#HelveticaNeue-101"/>
      <use x="83.299988" xlink:href="#HelveticaNeue-99"/>
      <use x="136.999985" xlink:href="#HelveticaNeue-104"/>
      <use x="192.599976" xlink:href="#HelveticaNeue-97"/>
     </g>
    </g>
   </g>
   <g id="matplotlib.axis_2">
    <g id="ytick_1">
     <g id="line2d_16">
      <defs>
       <path d="M 0 0 
L -3.5 0 
" id="mee7721cc7e" style="stroke:#555555;stroke-width:0.8;"/>
      </defs>
      <g>
       <use style="fill:#555555;stroke:#555555;stroke-width:0.8;" x="62.5" xlink:href="#mee7721cc7e" y="251.795455"/>
      </g>
     </g>
     <g id="text_6">
      <!-- 0 -->
      <g style="fill:#555555;" transform="translate(49.940625 255.365767)scale(0.1 -0.1)">
       <use xlink:href="#HelveticaNeue-48"/>
      </g>
     </g>
    </g>
    <g id="ytick_2">
     <g id="line2d_17">
      <g>
       <use style="fill:#555555;stroke:#555555;stroke-width:0.8;" x="62.5" xlink:href="#mee7721cc7e" y="200.821429"/>
      </g>
     </g>
     <g id="text_7">
      <!-- 100 -->
      <g style="fill:#555555;" transform="translate(38.821875 204.391741)scale(0.1 -0.1)">
       <use xlink:href="#HelveticaNeue-49"/>
       <use x="55.599991" xlink:href="#HelveticaNeue-48"/>
       <use x="111.199982" xlink:href="#HelveticaNeue-48"/>
      </g>
     </g>
    </g>
    <g id="ytick_3">
     <g id="line2d_18">
      <g>
       <use style="fill:#555555;stroke:#555555;stroke-width:0.8;" x="62.5" xlink:href="#mee7721cc7e" y="149.847403"/>
      </g>
     </g>
     <g id="text_8">
      <!-- 200 -->
      <g style="fill:#555555;" transform="translate(38.821875 153.417715)scale(0.1 -0.1)">
       <use xlink:href="#HelveticaNeue-50"/>
       <use x="55.599991" xlink:href="#HelveticaNeue-48"/>
       <use x="111.199982" xlink:href="#HelveticaNeue-48"/>
      </g>
     </g>
    </g>
    <g id="ytick_4">
     <g id="line2d_19">
      <g>
       <use style="fill:#555555;stroke:#555555;stroke-width:0.8;" x="62.5" xlink:href="#mee7721cc7e" y="98.873377"/>
      </g>
     </g>
     <g id="text_9">
      <!-- 300 -->
      <g style="fill:#555555;" transform="translate(38.821875 102.443689)scale(0.1 -0.1)">
       <defs>
        <path d="M 21.796875 40.5 
L 21.796875 33.296875 
Q 24.203125 33.59375 26.90625 33.59375 
Q 30.09375 33.59375 32.84375 32.75 
Q 35.59375 31.90625 37.59375 30.15625 
Q 39.59375 28.40625 40.796875 25.84375 
Q 42 23.296875 42 20 
Q 42 16.796875 40.75 14.25 
Q 39.5 11.703125 37.390625 9.953125 
Q 35.296875 8.203125 32.5 7.25 
Q 29.703125 6.296875 26.59375 6.296875 
Q 19.296875 6.296875 15.5 10.640625 
Q 11.703125 15 11.5 21.90625 
L 3 21.90625 
Q 2.90625 16.40625 4.546875 12.09375 
Q 6.203125 7.796875 9.296875 4.84375 
Q 12.40625 1.90625 16.796875 0.40625 
Q 21.203125 -1.09375 26.59375 -1.09375 
Q 31.59375 -1.09375 36.046875 0.25 
Q 40.5 1.59375 43.796875 4.296875 
Q 47.09375 7 49.046875 11.046875 
Q 51 15.09375 51 20.40625 
Q 51 26.796875 47.84375 31.5 
Q 44.703125 36.203125 38.203125 37.59375 
L 38.203125 37.796875 
Q 42.40625 39.703125 45.203125 43.390625 
Q 48 47.09375 48 51.90625 
Q 48 56.796875 46.34375 60.390625 
Q 44.703125 64 41.796875 66.296875 
Q 38.90625 68.59375 34.953125 69.75 
Q 31 70.90625 26.40625 70.90625 
Q 21.09375 70.90625 17.046875 69.203125 
Q 13 67.5 10.296875 64.5 
Q 7.59375 61.5 6.140625 57.296875 
Q 4.703125 53.09375 4.5 48 
L 13 48 
Q 13 51.09375 13.796875 53.890625 
Q 14.59375 56.703125 16.25 58.796875 
Q 17.90625 60.90625 20.453125 62.15625 
Q 23 63.40625 26.40625 63.40625 
Q 31.796875 63.40625 35.390625 60.546875 
Q 39 57.703125 39 52 
Q 39 49.203125 37.890625 47 
Q 36.796875 44.796875 34.9375 43.34375 
Q 33.09375 41.90625 30.640625 41.15625 
Q 28.203125 40.40625 25.5 40.40625 
L 23.703125 40.40625 
Q 23.203125 40.40625 22.703125 40.40625 
Q 22.296875 40.40625 21.796875 40.5 
z
" id="HelveticaNeue-51"/>
       </defs>
       <use xlink:href="#HelveticaNeue-51"/>
       <use x="55.599991" xlink:href="#HelveticaNeue-48"/>
       <use x="111.199982" xlink:href="#HelveticaNeue-48"/>
      </g>
     </g>
    </g>
    <g id="ytick_5">
     <g id="line2d_20">
      <g>
       <use style="fill:#555555;stroke:#555555;stroke-width:0.8;" x="62.5" xlink:href="#mee7721cc7e" y="47.899351"/>
      </g>
     </g>
     <g id="text_10">
      <!-- 400 -->
      <g style="fill:#555555;" transform="translate(38.821875 51.469663)scale(0.1 -0.1)">
       <defs>
        <path d="M 33.90625 24.09375 
L 10.09375 24.09375 
L 33.703125 58.796875 
L 33.90625 58.796875 
z
M 41.90625 24.09375 
L 41.90625 70.90625 
L 35.09375 70.90625 
L 2.796875 24.796875 
L 2.796875 16.59375 
L 33.90625 16.59375 
L 33.90625 0 
L 41.90625 0 
L 41.90625 16.59375 
L 51.5 16.59375 
L 51.5 24.09375 
z
" id="HelveticaNeue-52"/>
       </defs>
       <use xlink:href="#HelveticaNeue-52"/>
       <use x="55.599991" xlink:href="#HelveticaNeue-48"/>
       <use x="111.199982" xlink:href="#HelveticaNeue-48"/>
      </g>
     </g>
    </g>
   </g>
   <g id="line2d_21">
    <path clip-path="url(#p4bb4aa88d7)" d="M 63.422619 250.266234 
L 64.345238 249.756494 
L 65.267857 251.795455 
L 66.190476 247.717532 
L 67.113095 251.285714 
L 68.035714 242.62013 
L 68.958333 250.775974 
L 69.880952 250.266234 
L 70.803571 251.795455 
L 71.72619 249.756494 
L 72.64881 250.266234 
L 73.571429 249.246753 
L 74.494048 250.266234 
L 75.416667 249.246753 
L 76.339286 245.678571 
L 77.261905 246.188312 
L 79.107143 249.246753 
L 80.029762 250.266234 
L 80.952381 251.795455 
L 81.875 248.737013 
L 82.797619 249.246753 
L 83.720238 250.775974 
L 84.642857 245.678571 
L 85.565476 248.737013 
L 86.488095 249.246753 
L 87.410714 251.285714 
L 88.333333 245.168831 
L 89.255952 249.756494 
L 90.178571 247.207792 
L 91.10119 246.188312 
L 92.02381 246.698052 
L 92.946429 247.717532 
L 93.869048 244.149351 
L 94.791667 244.149351 
L 95.714286 245.678571 
L 96.636905 247.717532 
L 97.559524 248.737013 
L 98.482143 244.659091 
L 100.327381 249.756494 
L 101.25 246.188312 
L 102.172619 239.561688 
L 103.095238 246.698052 
L 104.017857 244.659091 
L 104.940476 245.678571 
L 105.863095 242.62013 
L 106.785714 242.62013 
L 107.708333 245.168831 
L 108.630952 239.561688 
L 109.553571 245.678571 
L 110.47619 248.737013 
L 111.39881 240.071429 
L 112.321429 244.659091 
L 113.244048 239.051948 
L 114.166667 231.405844 
L 115.089286 227.327922 
L 116.011905 235.993506 
L 116.934524 239.561688 
L 117.857143 242.11039 
L 118.779762 235.993506 
L 119.702381 223.25 
L 120.625 242.11039 
L 122.470238 232.425325 
L 123.392857 232.935065 
L 124.315476 233.954545 
L 125.238095 206.938312 
L 126.160714 212.545455 
L 127.083333 239.051948 
L 128.005952 235.483766 
L 128.928571 241.600649 
L 129.85119 232.935065 
L 130.77381 232.425325 
L 131.696429 215.094156 
L 132.619048 228.857143 
L 133.541667 217.133117 
L 134.464286 209.487013 
L 135.386905 190.626623 
L 136.309524 201.331169 
L 137.232143 189.097403 
L 138.154762 214.584416 
L 139.077381 165.649351 
L 140 218.152597 
L 140.922619 201.840909 
L 141.845238 209.996753 
L 142.767857 164.62987 
L 143.690476 201.331169 
L 144.613095 199.292208 
L 145.535714 169.727273 
L 146.458333 125.37987 
L 147.380952 214.584416 
L 148.303571 202.86039 
L 149.22619 210.506494 
L 150.14881 200.821429 
L 151.071429 163.100649 
L 151.994048 148.827922 
L 152.916667 176.863636 
L 153.839286 154.944805 
L 154.761905 165.649351 
L 155.684524 188.587662 
L 156.607143 195.724026 
L 157.529762 185.529221 
L 158.452381 149.337662 
L 159.375 156.474026 
L 160.297619 193.685065 
L 162.142857 170.237013 
L 163.065476 199.292208 
L 163.988095 162.081169 
L 164.910714 132.006494 
L 165.833333 147.298701 
L 166.755952 144.24026 
L 167.678571 140.672078 
L 168.60119 190.626623 
L 169.52381 160.042208 
L 170.446429 120.282468 
L 171.369048 186.038961 
L 172.291667 124.87013 
L 173.214286 113.146104 
L 174.136905 110.087662 
L 175.059524 193.175325 
L 175.982143 157.493506 
L 176.904762 126.399351 
L 177.827381 116.204545 
L 178.75 166.668831 
L 179.672619 124.36039 
L 180.595238 142.201299 
L 181.517857 170.746753 
L 183.363095 92.246753 
L 184.285714 132.516234 
L 185.208333 124.87013 
L 186.130952 134.555195 
L 187.053571 110.597403 
L 187.97619 154.944805 
L 189.821429 67.779221 
L 190.744048 162.590909 
L 191.666667 115.694805 
L 192.589286 129.967532 
L 193.511905 154.944805 
L 194.434524 155.454545 
L 196.279762 117.733766 
L 197.202381 138.633117 
L 198.125 188.587662 
L 199.047619 146.788961 
L 199.970238 153.415584 
L 200.892857 181.961039 
L 201.815476 119.262987 
L 202.738095 129.457792 
L 203.660714 137.103896 
L 204.583333 130.477273 
L 205.505952 190.626623 
L 206.428571 190.626623 
L 207.35119 193.175325 
L 208.27381 172.275974 
L 209.196429 180.941558 
L 210.119048 187.058442 
L 211.041667 162.081169 
L 211.964286 167.688312 
L 212.886905 181.961039 
L 213.809524 220.701299 
L 214.732143 177.373377 
L 215.654762 198.272727 
L 216.577381 147.808442 
L 217.5 203.37013 
L 218.422619 176.353896 
L 219.345238 197.762987 
L 220.267857 165.649351 
L 221.190476 160.551948 
L 222.113095 166.159091 
L 223.035714 161.571429 
L 223.958333 187.568182 
L 224.880952 202.86039 
L 225.803571 199.292208 
L 226.72619 219.172078 
L 227.64881 195.214286 
L 228.571429 175.334416 
L 229.494048 192.155844 
L 230.416667 202.350649 
L 231.339286 180.431818 
L 232.261905 195.724026 
L 233.184524 166.668831 
L 234.107143 188.077922 
L 235.029762 162.081169 
L 236.875 190.626623 
L 237.797619 216.113636 
L 238.720238 202.350649 
L 239.642857 214.074675 
L 240.565476 203.37013 
L 241.488095 215.094156 
L 242.410714 209.996753 
L 243.333333 185.529221 
L 244.255952 211.016234 
L 245.178571 216.113636 
L 246.10119 228.347403 
L 247.02381 200.311688 
L 247.946429 189.097403 
L 248.869048 192.155844 
L 249.791667 193.175325 
L 250.714286 195.214286 
L 251.636905 216.113636 
L 252.559524 226.818182 
L 254.404762 177.373377 
L 255.327381 189.607143 
L 256.25 195.724026 
L 257.172619 211.016234 
L 258.095238 186.548701 
L 259.017857 220.191558 
L 259.940476 206.428571 
L 260.863095 195.214286 
L 261.785714 196.233766 
L 262.708333 216.113636 
L 263.630952 211.525974 
L 264.553571 199.801948 
L 265.47619 216.113636 
L 266.39881 192.665584 
L 267.321429 201.840909 
L 268.244048 213.564935 
L 269.166667 203.87987 
L 270.089286 218.662338 
L 271.011905 217.133117 
L 271.934524 223.25 
L 272.857143 174.314935 
L 273.779762 192.155844 
L 274.702381 205.409091 
L 275.625 185.529221 
L 276.547619 212.545455 
L 277.470238 197.253247 
L 278.392857 198.782468 
L 279.315476 205.409091 
L 280.238095 192.155844 
L 281.160714 128.948052 
L 282.083333 193.685065 
L 283.005952 187.058442 
L 283.928571 194.704545 
L 284.85119 214.074675 
L 285.77381 195.214286 
L 286.696429 181.961039 
L 287.619048 200.311688 
L 288.541667 203.37013 
L 289.464286 195.214286 
L 290.386905 176.863636 
L 291.309524 215.094156 
L 292.232143 199.801948 
L 293.154762 189.607143 
L 295 160.551948 
L 295.922619 171.766234 
L 296.845238 170.237013 
L 297.767857 200.311688 
L 298.690476 169.727273 
L 299.613095 174.314935 
L 300.535714 133.025974 
L 301.458333 166.668831 
L 302.380952 148.318182 
L 303.303571 179.412338 
L 304.22619 162.081169 
L 305.14881 161.061688 
L 306.071429 177.883117 
L 306.994048 159.532468 
L 307.916667 128.948052 
L 308.839286 218.152597 
L 309.761905 169.217532 
L 310.684524 176.353896 
L 311.607143 114.165584 
L 312.529762 116.204545 
L 313.452381 111.107143 
L 315.297619 211.525974 
L 317.142857 104.99026 
L 318.065476 131.496753 
L 318.988095 103.461039 
L 319.910714 100.402597 
L 320.833333 140.162338 
L 321.755952 89.188312 
L 322.678571 129.457792 
L 323.60119 152.396104 
L 324.52381 147.298701 
L 325.446429 68.798701 
L 326.369048 124.87013 
L 327.291667 113.146104 
L 328.214286 119.262987 
L 329.136905 102.951299 
L 330.059524 122.831169 
L 330.982143 159.022727 
L 331.904762 108.048701 
L 332.827381 96.324675 
L 333.75 118.243506 
L 334.672619 123.850649 
L 335.595238 88.678571 
L 336.517857 149.337662 
L 337.440476 135.064935 
L 338.363095 87.659091 
L 339.285714 148.318182 
L 340.208333 106.519481 
L 341.130952 173.295455 
L 342.053571 175.334416 
L 342.97619 182.980519 
L 343.89881 201.331169 
L 344.821429 206.428571 
L 345.744048 188.587662 
L 346.666667 203.37013 
L 347.589286 202.86039 
L 349.434524 232.425325 
L 350.357143 213.055195 
L 351.279762 200.311688 
L 352.202381 212.545455 
L 353.125 201.840909 
L 354.047619 224.269481 
L 354.970238 208.977273 
L 355.892857 231.405844 
L 356.815476 229.876623 
L 357.738095 214.074675 
L 358.660714 224.269481 
L 359.583333 222.74026 
L 360.505952 224.269481 
L 361.428571 231.405844 
L 362.35119 241.600649 
L 363.27381 224.779221 
L 364.196429 223.25 
L 365.119048 216.623377 
L 366.041667 227.327922 
L 366.964286 234.974026 
L 367.886905 233.954545 
L 368.809524 224.779221 
L 369.732143 211.525974 
L 370.654762 220.191558 
L 371.577381 221.211039 
L 372.5 228.347403 
L 373.422619 225.288961 
L 374.345238 240.581169 
L 375.267857 233.444805 
L 376.190476 228.857143 
L 377.113095 229.876623 
L 378.035714 231.405844 
L 378.958333 226.308442 
L 379.880952 231.915584 
L 380.803571 230.896104 
L 381.72619 234.464286 
L 382.64881 239.051948 
L 383.571429 230.896104 
L 384.494048 235.993506 
L 385.416667 234.464286 
L 386.339286 227.837662 
L 387.261905 238.542208 
L 388.184524 232.425325 
L 389.107143 239.051948 
L 390.029762 229.876623 
L 390.952381 223.25 
L 391.875 226.308442 
L 392.797619 215.094156 
L 393.720238 229.366883 
L 394.642857 225.798701 
L 395.565476 219.681818 
L 396.488095 214.584416 
L 397.410714 218.662338 
L 398.333333 224.269481 
L 400.178571 209.996753 
L 401.10119 232.425325 
L 402.02381 199.292208 
L 402.946429 192.155844 
L 403.869048 197.253247 
L 404.791667 188.587662 
L 405.714286 188.587662 
L 406.636905 182.470779 
L 407.559524 173.805195 
L 408.482143 207.957792 
L 409.404762 147.808442 
L 410.327381 114.675325 
L 411.25 138.123377 
L 412.172619 127.928571 
L 413.095238 139.142857 
L 414.017857 206.938312 
L 414.940476 88.678571 
L 415.863095 159.022727 
L 416.785714 133.025974 
L 417.708333 164.62987 
L 418.630952 148.827922 
L 419.553571 148.827922 
L 420.47619 175.334416 
L 421.39881 129.457792 
L 422.321429 122.321429 
L 423.244048 141.691558 
L 424.166667 148.827922 
L 425.089286 109.577922 
L 426.011905 111.616883 
L 426.934524 108.558442 
L 427.857143 91.737013 
L 428.779762 129.457792 
L 429.702381 162.081169 
L 430.625 127.928571 
L 431.547619 126.399351 
L 432.470238 106.00974 
L 433.392857 162.590909 
L 434.315476 106.519481 
L 435.238095 127.928571 
L 436.160714 127.418831 
L 437.083333 117.224026 
L 438.005952 126.399351 
L 438.928571 146.788961 
L 439.85119 144.75 
L 440.77381 147.298701 
L 441.696429 98.363636 
L 442.619048 112.126623 
L 443.541667 62.681818 
L 444.464286 87.149351 
L 445.386905 134.555195 
L 446.309524 37.704545 
L 447.232143 94.795455 
L 448.154762 113.146104 
L 449.077381 48.409091 
L 450 172.785714 
L 450 172.785714 
" style="fill:none;stroke:#000000;stroke-dasharray:1.5,2.475;stroke-dashoffset:0;stroke-opacity:0.5;stroke-width:1.5;"/>
   </g>
   <g id="line2d_22">
    <path clip-path="url(#p4bb4aa88d7)" d="M 62.5 250.266234 
L 64.345238 250.266234 
L 65.267857 249.246753 
L 66.190476 249.246753 
L 67.113095 248.737013 
L 68.035714 249.246753 
L 68.958333 249.246753 
L 69.880952 249.756494 
L 70.803571 249.756494 
L 71.72619 250.266234 
L 72.64881 250.266234 
L 73.571429 249.756494 
L 74.494048 248.737013 
L 75.416667 248.227273 
L 78.184524 248.227273 
L 80.952381 249.756494 
L 81.875 249.756494 
L 82.797619 249.246753 
L 83.720238 249.246753 
L 84.642857 248.737013 
L 86.488095 248.737013 
L 87.410714 248.227273 
L 88.333333 248.227273 
L 89.255952 247.717532 
L 90.178571 247.717532 
L 91.10119 246.698052 
L 92.02381 246.698052 
L 93.869048 245.678571 
L 94.791667 246.188312 
L 96.636905 246.188312 
L 98.482143 247.207792 
L 101.25 245.678571 
L 102.172619 245.678571 
L 103.095238 244.659091 
L 104.017857 244.149351 
L 104.940476 244.149351 
L 105.863095 243.63961 
L 106.785714 243.63961 
L 107.708333 244.149351 
L 108.630952 243.63961 
L 110.47619 243.63961 
L 111.39881 242.11039 
L 113.244048 238.032468 
L 114.166667 236.503247 
L 116.011905 235.483766 
L 116.934524 234.464286 
L 118.779762 236.503247 
L 119.702381 235.993506 
L 121.547619 233.954545 
L 123.392857 228.857143 
L 124.315476 226.818182 
L 125.238095 226.308442 
L 126.160714 227.327922 
L 128.005952 230.386364 
L 129.85119 232.425325 
L 130.77381 229.366883 
L 131.696429 225.288961 
L 132.619048 218.662338 
L 133.541667 213.564935 
L 134.464286 207.448052 
L 135.386905 205.409091 
L 136.309524 198.272727 
L 137.232143 197.762987 
L 138.154762 196.743506 
L 139.077381 199.292208 
L 140 196.233766 
L 140.922619 196.743506 
L 141.845238 195.214286 
L 142.767857 194.704545 
L 143.690476 183.49026 
L 144.613095 182.470779 
L 145.535714 180.941558 
L 146.458333 186.038961 
L 147.380952 188.077922 
L 149.22619 186.038961 
L 150.14881 188.077922 
L 151.071429 178.902597 
L 151.994048 172.275974 
L 152.916667 168.707792 
L 153.839286 169.217532 
L 154.761905 173.805195 
L 155.684524 175.334416 
L 156.607143 173.805195 
L 157.529762 176.353896 
L 158.452381 176.863636 
L 159.375 174.824675 
L 160.297619 175.844156 
L 161.220238 175.334416 
L 162.142857 173.295455 
L 163.065476 170.237013 
L 164.910714 155.454545 
L 165.833333 155.454545 
L 166.755952 152.396104 
L 167.678571 150.357143 
L 168.60119 155.964286 
L 169.52381 153.925325 
L 170.446429 149.847403 
L 171.369048 143.730519 
L 172.291667 141.181818 
L 173.214286 141.691558 
L 174.136905 142.711039 
L 175.059524 137.613636 
L 175.982143 142.201299 
L 176.904762 142.711039 
L 177.827381 144.24026 
L 178.75 141.691558 
L 179.672619 140.672078 
L 180.595238 137.613636 
L 181.517857 137.613636 
L 182.440476 131.496753 
L 183.363095 130.987013 
L 184.285714 126.399351 
L 185.208333 124.87013 
L 186.130952 124.87013 
L 187.053571 121.811688 
L 187.97619 123.340909 
L 188.89881 121.811688 
L 189.821429 121.301948 
L 190.744048 125.88961 
L 191.666667 128.438312 
L 193.511905 139.652597 
L 194.434524 137.103896 
L 195.357143 144.24026 
L 196.279762 146.279221 
L 197.202381 147.808442 
L 198.125 152.396104 
L 199.047619 152.396104 
L 199.970238 152.905844 
L 200.892857 150.357143 
L 201.815476 142.711039 
L 202.738095 145.769481 
L 204.583333 155.454545 
L 205.505952 165.13961 
L 206.428571 173.295455 
L 207.35119 179.922078 
L 208.27381 182.470779 
L 209.196429 179.412338 
L 210.119048 177.373377 
L 211.041667 179.922078 
L 211.964286 181.961039 
L 212.886905 185.019481 
L 213.809524 182.470779 
L 214.732143 186.038961 
L 215.654762 186.038961 
L 216.577381 186.548701 
L 217.5 181.451299 
L 218.422619 179.412338 
L 219.345238 175.844156 
L 220.267857 175.334416 
L 221.190476 172.275974 
L 222.113095 174.824675 
L 223.035714 176.863636 
L 223.958333 185.019481 
L 224.880952 191.646104 
L 225.803571 194.194805 
L 226.72619 197.253247 
L 227.64881 197.762987 
L 228.571429 194.194805 
L 229.494048 193.175325 
L 230.416667 187.568182 
L 231.339286 186.548701 
L 232.261905 184.50974 
L 233.184524 180.941558 
L 234.107143 178.902597 
L 235.029762 182.470779 
L 235.952381 185.529221 
L 236.875 192.155844 
L 237.797619 196.743506 
L 238.720238 203.87987 
L 239.642857 207.957792 
L 240.565476 207.448052 
L 241.488095 206.428571 
L 242.410714 206.938312 
L 243.333333 208.467532 
L 244.255952 208.977273 
L 245.178571 207.448052 
L 246.10119 205.409091 
L 247.02381 204.38961 
L 247.946429 200.821429 
L 248.869048 199.801948 
L 249.791667 200.311688 
L 250.714286 202.350649 
L 251.636905 202.86039 
L 253.482143 200.821429 
L 254.404762 200.821429 
L 255.327381 197.253247 
L 256.25 196.743506 
L 257.172619 198.782468 
L 258.095238 201.331169 
L 259.017857 202.350649 
L 259.940476 204.38961 
L 260.863095 204.38961 
L 261.785714 205.918831 
L 262.708333 205.918831 
L 263.630952 204.899351 
L 264.553571 205.409091 
L 265.47619 206.428571 
L 266.39881 205.409091 
L 267.321429 205.918831 
L 268.244048 208.467532 
L 269.166667 210.506494 
L 270.089286 209.487013 
L 271.934524 205.409091 
L 272.857143 201.840909 
L 274.702381 197.762987 
L 275.625 196.233766 
L 276.547619 199.801948 
L 277.470238 199.801948 
L 278.392857 191.646104 
L 279.315476 189.607143 
L 280.238095 185.019481 
L 281.160714 183.49026 
L 283.928571 188.077922 
L 284.85119 195.724026 
L 285.77381 196.743506 
L 286.696429 197.253247 
L 287.619048 195.214286 
L 288.541667 195.214286 
L 290.386905 197.253247 
L 291.309524 194.194805 
L 292.232143 189.097403 
L 293.154762 185.019481 
L 294.077381 181.451299 
L 295 178.392857 
L 295.922619 175.844156 
L 296.845238 174.824675 
L 297.767857 171.256494 
L 298.690476 170.237013 
L 299.613095 166.159091 
L 300.535714 164.62987 
L 301.458333 160.551948 
L 302.380952 160.551948 
L 303.303571 162.081169 
L 304.22619 165.13961 
L 305.14881 161.571429 
L 306.071429 167.178571 
L 306.994048 167.178571 
L 307.916667 169.727273 
L 308.839286 165.649351 
L 309.761905 158.512987 
L 310.684524 150.357143 
L 311.607143 148.318182 
L 312.529762 145.769481 
L 313.452381 146.788961 
L 314.375 143.220779 
L 315.297619 146.279221 
L 316.220238 143.730519 
L 317.142857 138.123377 
L 318.065476 130.987013 
L 318.988095 117.224026 
L 319.910714 113.655844 
L 320.833333 118.753247 
L 321.755952 122.321429 
L 322.678571 121.301948 
L 323.60119 122.831169 
L 324.52381 119.772727 
L 325.446429 120.792208 
L 326.369048 116.714286 
L 327.291667 113.146104 
L 328.214286 115.694805 
L 329.136905 121.301948 
L 330.059524 119.262987 
L 331.904762 119.262987 
L 332.827381 116.714286 
L 333.75 117.733766 
L 334.672619 116.204545 
L 335.595238 115.694805 
L 336.517857 121.301948 
L 337.440476 120.792208 
L 338.363095 125.88961 
L 339.285714 136.084416 
L 340.208333 142.711039 
L 341.130952 154.435065 
L 342.053571 170.746753 
L 342.97619 178.902597 
L 343.89881 191.136364 
L 344.821429 195.214286 
L 346.666667 205.918831 
L 347.589286 208.977273 
L 348.511905 209.996753 
L 349.434524 213.055195 
L 350.357143 212.545455 
L 351.279762 213.564935 
L 352.202381 212.035714 
L 353.125 212.545455 
L 354.047619 215.603896 
L 354.970238 218.152597 
L 356.815476 222.230519 
L 357.738095 222.74026 
L 358.660714 224.779221 
L 360.505952 226.818182 
L 361.428571 228.347403 
L 362.35119 227.327922 
L 363.27381 227.327922 
L 364.196429 227.837662 
L 365.119048 227.837662 
L 366.964286 225.798701 
L 368.809524 224.779221 
L 370.654762 222.74026 
L 371.577381 223.75974 
L 372.5 225.798701 
L 373.422619 228.857143 
L 374.345238 230.386364 
L 375.267857 231.405844 
L 376.190476 230.896104 
L 377.113095 231.405844 
L 378.035714 230.386364 
L 378.958333 230.386364 
L 380.803571 232.425325 
L 381.72619 232.935065 
L 382.64881 233.954545 
L 383.571429 233.954545 
L 384.494048 234.464286 
L 385.416667 233.954545 
L 387.261905 233.954545 
L 388.184524 232.935065 
L 389.107143 231.405844 
L 390.952381 227.327922 
L 391.875 226.308442 
L 393.720238 222.230519 
L 396.488095 220.701299 
L 397.410714 218.662338 
L 398.333333 219.172078 
L 399.255952 217.133117 
L 400.178571 214.584416 
L 401.10119 211.016234 
L 402.02381 205.409091 
L 403.869048 196.233766 
L 404.791667 189.097403 
L 405.714286 189.097403 
L 406.636905 184.50974 
L 409.404762 155.964286 
L 410.327381 147.808442 
L 411.25 148.827922 
L 412.172619 138.633117 
L 413.095238 140.672078 
L 414.017857 143.220779 
L 415.863095 147.298701 
L 416.785714 148.318182 
L 417.708333 146.788961 
L 418.630952 151.886364 
L 419.553571 148.318182 
L 420.47619 147.298701 
L 421.39881 144.24026 
L 423.244048 134.045455 
L 424.166667 125.88961 
L 425.089286 120.282468 
L 426.011905 118.243506 
L 426.934524 119.262987 
L 427.857143 119.262987 
L 428.779762 123.340909 
L 429.702381 124.36039 
L 430.625 130.477273 
L 431.547619 131.496753 
L 432.470238 129.967532 
L 433.392857 126.399351 
L 434.315476 125.37987 
L 435.238095 125.37987 
L 436.160714 128.438312 
L 437.083333 127.928571 
L 438.005952 133.535714 
L 438.928571 132.006494 
L 439.85119 129.967532 
L 441.696429 114.165584 
L 442.619048 109.068182 
L 443.541667 96.324675 
L 444.464286 89.698052 
L 445.386905 90.207792 
L 446.309524 84.600649 
L 447.232143 94.795455 
L 448.154762 97.853896 
L 449.077381 97.344156 
L 450 109.577922 
L 450 109.577922 
" style="fill:none;stroke:#b3220f;stroke-linecap:square;stroke-width:1.5;"/>
   </g>
   <g id="patch_3">
    <path d="M 62.5 262.5 
L 62.5 27 
" style="fill:none;stroke:#555555;stroke-linecap:square;stroke-linejoin:miter;"/>
   </g>
   <g id="patch_4">
    <path d="M 62.5 262.5 
L 450 262.5 
" style="fill:none;stroke:#555555;stroke-linecap:square;stroke-linejoin:miter;"/>
   </g>
   <g id="text_11">
    <!-- Ciudad Bolívar | Casos nuevos: 2021-05-27 -->
    <g style="fill:#555555;" transform="translate(119.976406 17)scale(0.14 -0.14)">
     <defs>
      <path d="M 58 49.90625 
L 67.5 49.90625 
Q 66.703125 55.59375 64.09375 59.9375 
Q 61.5 64.296875 57.59375 67.1875 
Q 53.703125 70.09375 48.703125 71.59375 
Q 43.703125 73.09375 38.09375 73.09375 
Q 29.90625 73.09375 23.546875 70.140625 
Q 17.203125 67.203125 12.953125 62.09375 
Q 8.703125 57 6.5 50.140625 
Q 4.296875 43.296875 4.296875 35.5 
Q 4.296875 27.703125 6.34375 20.890625 
Q 8.40625 14.09375 12.5 9.09375 
Q 16.59375 4.09375 22.796875 1.25 
Q 29 -1.59375 37.296875 -1.59375 
Q 51 -1.59375 58.890625 5.90625 
Q 66.796875 13.40625 68.203125 26.90625 
L 58.703125 26.90625 
Q 58.40625 22.5 56.90625 18.703125 
Q 55.40625 14.90625 52.75 12.15625 
Q 50.09375 9.40625 46.4375 7.84375 
Q 42.796875 6.296875 38.09375 6.296875 
Q 31.703125 6.296875 27.09375 8.6875 
Q 22.5 11.09375 19.546875 15.140625 
Q 16.59375 19.203125 15.1875 24.640625 
Q 13.796875 30.09375 13.796875 36.203125 
Q 13.796875 41.796875 15.1875 47 
Q 16.59375 52.203125 19.546875 56.25 
Q 22.5 60.296875 27.046875 62.6875 
Q 31.59375 65.09375 38 65.09375 
Q 45.5 65.09375 50.953125 61.296875 
Q 56.40625 57.5 58 49.90625 
z
" id="HelveticaNeue-67"/>
      <path d="M 15.40625 61 
L 15.40625 71.40625 
L 6.90625 71.40625 
L 6.90625 61 
z
M 6.90625 51.703125 
L 6.90625 0 
L 15.40625 0 
L 15.40625 51.703125 
z
" id="HelveticaNeue-105"/>
      <path d="M 12.59375 25.40625 
Q 12.59375 29.203125 13.390625 32.796875 
Q 14.203125 36.40625 16 39.203125 
Q 17.796875 42 20.796875 43.703125 
Q 23.796875 45.40625 28.09375 45.40625 
Q 32.5 45.40625 35.59375 43.75 
Q 38.703125 42.09375 40.640625 39.390625 
Q 42.59375 36.703125 43.5 33.140625 
Q 44.40625 29.59375 44.40625 25.796875 
Q 44.40625 22.203125 43.546875 18.703125 
Q 42.703125 15.203125 40.796875 12.453125 
Q 38.90625 9.703125 35.90625 8 
Q 32.90625 6.296875 28.59375 6.296875 
Q 24.5 6.296875 21.453125 7.890625 
Q 18.40625 9.5 16.453125 12.203125 
Q 14.5 14.90625 13.546875 18.34375 
Q 12.59375 21.796875 12.59375 25.40625 
z
M 52.59375 0 
L 52.59375 71.40625 
L 44.09375 71.40625 
L 44.09375 44.796875 
L 43.90625 44.796875 
Q 42.5 47.09375 40.453125 48.640625 
Q 38.40625 50.203125 36.09375 51.140625 
Q 33.796875 52.09375 31.5 52.5 
Q 29.203125 52.90625 27.203125 52.90625 
Q 21.296875 52.90625 16.84375 50.75 
Q 12.40625 48.59375 9.453125 44.9375 
Q 6.5 41.296875 5.046875 36.390625 
Q 3.59375 31.5 3.59375 26 
Q 3.59375 20.5 5.09375 15.59375 
Q 6.59375 10.703125 9.546875 7 
Q 12.5 3.296875 16.953125 1.09375 
Q 21.40625 -1.09375 27.40625 -1.09375 
Q 32.796875 -1.09375 37.296875 0.796875 
Q 41.796875 2.703125 43.90625 7 
L 44.09375 7 
L 44.09375 0 
z
" id="HelveticaNeue-100"/>
      <path id="HelveticaNeue-32"/>
      <path d="M 17.296875 40.703125 
L 17.296875 63.40625 
L 36.296875 63.40625 
Q 39.40625 63.40625 42.15625 63.046875 
Q 44.90625 62.703125 47 61.5 
Q 49.09375 60.296875 50.296875 58.09375 
Q 51.5 55.90625 51.5 52.09375 
Q 51.5 46.40625 47.953125 43.546875 
Q 44.40625 40.703125 36.296875 40.703125 
z
M 7.796875 71.40625 
L 7.796875 0 
L 42.296875 0 
Q 47.59375 0 51.640625 1.75 
Q 55.703125 3.5 58.453125 6.34375 
Q 61.203125 9.203125 62.59375 12.890625 
Q 64 16.59375 64 20.5 
Q 64 27.09375 60.5 31.6875 
Q 57 36.296875 50.40625 37.703125 
L 50.40625 37.90625 
Q 55.5 39.90625 58.25 44.046875 
Q 61 48.203125 61 53.90625 
Q 61 59.296875 58.546875 63 
Q 56.09375 66.703125 52.59375 68.796875 
Q 51 69.796875 48.75 70.296875 
Q 46.5 70.796875 43.890625 71.046875 
Q 41.296875 71.296875 38.640625 71.34375 
Q 36 71.40625 33.703125 71.40625 
z
M 17.296875 8 
L 17.296875 32.703125 
L 39 32.703125 
Q 42 32.703125 44.796875 32.140625 
Q 47.59375 31.59375 49.75 30.25 
Q 51.90625 28.90625 53.203125 26.59375 
Q 54.5 24.296875 54.5 20.796875 
Q 54.5 14.796875 50.953125 11.390625 
Q 47.40625 8 41.09375 8 
z
" id="HelveticaNeue-66"/>
      <path d="M 12.59375 25.796875 
Q 12.59375 30.5 13.84375 34.140625 
Q 15.09375 37.796875 17.296875 40.296875 
Q 19.5 42.796875 22.453125 44.09375 
Q 25.40625 45.40625 28.703125 45.40625 
Q 32 45.40625 34.953125 44.09375 
Q 37.90625 42.796875 40.09375 40.296875 
Q 42.296875 37.796875 43.546875 34.140625 
Q 44.796875 30.5 44.796875 25.796875 
Q 44.796875 21.09375 43.546875 17.4375 
Q 42.296875 13.796875 40.09375 11.34375 
Q 37.90625 8.90625 34.953125 7.59375 
Q 32 6.296875 28.703125 6.296875 
Q 25.40625 6.296875 22.453125 7.59375 
Q 19.5 8.90625 17.296875 11.34375 
Q 15.09375 13.796875 13.84375 17.4375 
Q 12.59375 21.09375 12.59375 25.796875 
z
M 3.59375 25.796875 
Q 3.59375 20.09375 5.1875 15.1875 
Q 6.796875 10.296875 10 6.640625 
Q 13.203125 3 17.890625 0.953125 
Q 22.59375 -1.09375 28.703125 -1.09375 
Q 34.90625 -1.09375 39.546875 0.953125 
Q 44.203125 3 47.390625 6.640625 
Q 50.59375 10.296875 52.1875 15.1875 
Q 53.796875 20.09375 53.796875 25.796875 
Q 53.796875 31.5 52.1875 36.453125 
Q 50.59375 41.40625 47.390625 45.046875 
Q 44.203125 48.703125 39.546875 50.796875 
Q 34.90625 52.90625 28.703125 52.90625 
Q 22.59375 52.90625 17.890625 50.796875 
Q 13.203125 48.703125 10 45.046875 
Q 6.796875 41.40625 5.1875 36.453125 
Q 3.59375 31.5 3.59375 25.796875 
z
" id="HelveticaNeue-111"/>
      <path d="M 6.90625 0 
L 15.40625 0 
L 15.40625 51.703125 
L 6.90625 51.703125 
z
M 25.5 77 
L 11.40625 60.796875 
L 5 60.796875 
L 14.59375 77 
z
" id="HelveticaNeue-237"/>
      <path d="M 29.703125 0 
L 48.59375 51.703125 
L 39.703125 51.703125 
L 25.59375 8.59375 
L 25.40625 8.59375 
L 10.90625 51.703125 
L 1.40625 51.703125 
L 20.59375 0 
z
" id="HelveticaNeue-118"/>
      <path d="M 7.703125 78.59375 
L 7.703125 -21.296875 
L 14.5 -21.296875 
L 14.5 78.59375 
z
" id="HelveticaNeue-124"/>
      <path d="M 11.59375 16.296875 
L 3.09375 16.296875 
Q 3.296875 11.5 5.09375 8.140625 
Q 6.90625 4.796875 9.90625 2.75 
Q 12.90625 0.703125 16.796875 -0.1875 
Q 20.703125 -1.09375 25 -1.09375 
Q 28.90625 -1.09375 32.84375 -0.34375 
Q 36.796875 0.40625 39.9375 2.296875 
Q 43.09375 4.203125 45.046875 7.296875 
Q 47 10.40625 47 15.09375 
Q 47 18.796875 45.546875 21.296875 
Q 44.09375 23.796875 41.75 25.4375 
Q 39.40625 27.09375 36.34375 28.09375 
Q 33.296875 29.09375 30.09375 29.796875 
Q 27.09375 30.5 24.09375 31.140625 
Q 21.09375 31.796875 18.6875 32.75 
Q 16.296875 33.703125 14.75 35.140625 
Q 13.203125 36.59375 13.203125 38.796875 
Q 13.203125 40.796875 14.203125 42.046875 
Q 15.203125 43.296875 16.796875 44.046875 
Q 18.40625 44.796875 20.34375 45.09375 
Q 22.296875 45.40625 24.203125 45.40625 
Q 26.296875 45.40625 28.34375 44.953125 
Q 30.40625 44.5 32.09375 43.5 
Q 33.796875 42.5 34.890625 40.84375 
Q 36 39.203125 36.203125 36.703125 
L 44.703125 36.703125 
Q 44.40625 41.40625 42.703125 44.546875 
Q 41 47.703125 38.140625 49.546875 
Q 35.296875 51.40625 31.59375 52.15625 
Q 27.90625 52.90625 23.5 52.90625 
Q 20.09375 52.90625 16.640625 52.046875 
Q 13.203125 51.203125 10.453125 49.453125 
Q 7.703125 47.703125 5.953125 44.890625 
Q 4.203125 42.09375 4.203125 38.203125 
Q 4.203125 33.203125 6.703125 30.390625 
Q 9.203125 27.59375 12.953125 26.046875 
Q 16.703125 24.5 21.09375 23.640625 
Q 25.5 22.796875 29.25 21.75 
Q 33 20.703125 35.5 19 
Q 38 17.296875 38 14 
Q 38 11.59375 36.796875 10.046875 
Q 35.59375 8.5 33.75 7.703125 
Q 31.90625 6.90625 29.703125 6.59375 
Q 27.5 6.296875 25.5 6.296875 
Q 22.90625 6.296875 20.453125 6.796875 
Q 18 7.296875 16.046875 8.4375 
Q 14.09375 9.59375 12.890625 11.546875 
Q 11.703125 13.5 11.59375 16.296875 
z
" id="HelveticaNeue-115"/>
      <path d="M 19.40625 40.59375 
L 19.40625 51.703125 
L 8.296875 51.703125 
L 8.296875 40.59375 
z
M 8.296875 11.09375 
L 8.296875 0 
L 19.40625 0 
L 19.40625 11.09375 
z
" id="HelveticaNeue-58"/>
      <path d="M 5 31.796875 
L 5 23.796875 
L 33.90625 23.796875 
L 33.90625 31.796875 
z
" id="HelveticaNeue-45"/>
      <path d="M 47 62.203125 
L 47 69.703125 
L 12 69.703125 
L 5.40625 32.90625 
L 12.703125 32.5 
Q 15.203125 35.5 18.453125 37.34375 
Q 21.703125 39.203125 25.90625 39.203125 
Q 29.5 39.203125 32.453125 38 
Q 35.40625 36.796875 37.5 34.640625 
Q 39.59375 32.5 40.75 29.546875 
Q 41.90625 26.59375 41.90625 23.09375 
Q 41.90625 18.90625 40.703125 15.75 
Q 39.5 12.59375 37.453125 10.5 
Q 35.40625 8.40625 32.65625 7.34375 
Q 29.90625 6.296875 26.90625 6.296875 
Q 23.703125 6.296875 21.046875 7.25 
Q 18.40625 8.203125 16.453125 9.953125 
Q 14.5 11.703125 13.34375 14.046875 
Q 12.203125 16.40625 12 19.09375 
L 3.5 19.09375 
Q 3.59375 14.296875 5.390625 10.5 
Q 7.203125 6.703125 10.296875 4.140625 
Q 13.40625 1.59375 17.453125 0.25 
Q 21.5 -1.09375 26.09375 -1.09375 
Q 32.296875 -1.09375 36.9375 0.84375 
Q 41.59375 2.796875 44.6875 6.09375 
Q 47.796875 9.40625 49.34375 13.65625 
Q 50.90625 17.90625 50.90625 22.40625 
Q 50.90625 28.5 49.09375 33.046875 
Q 47.296875 37.59375 44.1875 40.640625 
Q 41.09375 43.703125 36.890625 45.203125 
Q 32.703125 46.703125 28 46.703125 
Q 24.40625 46.703125 20.75 45.453125 
Q 17.09375 44.203125 14.796875 41.59375 
L 14.59375 41.796875 
L 18.40625 62.203125 
z
" id="HelveticaNeue-53"/>
      <path d="M 50.90625 62.40625 
L 50.90625 69.703125 
L 5 69.703125 
L 5 61.703125 
L 42.203125 61.703125 
Q 36.59375 55.796875 31.75 48.796875 
Q 26.90625 41.796875 23.203125 33.9375 
Q 19.5 26.09375 17.140625 17.546875 
Q 14.796875 9 14.203125 0 
L 23.703125 0 
Q 24.203125 8.296875 26.5 17.09375 
Q 28.796875 25.90625 32.4375 34.203125 
Q 36.09375 42.5 40.796875 49.796875 
Q 45.5 57.09375 50.90625 62.40625 
z
" id="HelveticaNeue-55"/>
     </defs>
     <use xlink:href="#HelveticaNeue-67"/>
     <use x="72.199982" xlink:href="#HelveticaNeue-105"/>
     <use x="94.399979" xlink:href="#HelveticaNeue-117"/>
     <use x="149.999969" xlink:href="#HelveticaNeue-100"/>
     <use x="209.299957" xlink:href="#HelveticaNeue-97"/>
     <use x="262.999954" xlink:href="#HelveticaNeue-100"/>
     <use x="322.299942" xlink:href="#HelveticaNeue-32"/>
     <use x="350.09993" xlink:href="#HelveticaNeue-66"/>
     <use x="418.599915" xlink:href="#HelveticaNeue-111"/>
     <use x="475.999908" xlink:href="#HelveticaNeue-108"/>
     <use x="498.199905" xlink:href="#HelveticaNeue-237"/>
     <use x="520.399902" xlink:href="#HelveticaNeue-118"/>
     <use x="570.399887" xlink:href="#HelveticaNeue-97"/>
     <use x="624.099884" xlink:href="#HelveticaNeue-114"/>
     <use x="657.399872" xlink:href="#HelveticaNeue-32"/>
     <use x="685.19986" xlink:href="#HelveticaNeue-124"/>
     <use x="707.399857" xlink:href="#HelveticaNeue-32"/>
     <use x="735.199844" xlink:href="#HelveticaNeue-67"/>
     <use x="807.399826" xlink:href="#HelveticaNeue-97"/>
     <use x="861.099823" xlink:href="#HelveticaNeue-115"/>
     <use x="911.099808" xlink:href="#HelveticaNeue-111"/>
     <use x="968.499802" xlink:href="#HelveticaNeue-115"/>
     <use x="1018.499786" xlink:href="#HelveticaNeue-32"/>
     <use x="1046.299774" xlink:href="#HelveticaNeue-110"/>
     <use x="1101.899765" xlink:href="#HelveticaNeue-117"/>
     <use x="1157.499756" xlink:href="#HelveticaNeue-101"/>
     <use x="1211.199753" xlink:href="#HelveticaNeue-118"/>
     <use x="1261.199738" xlink:href="#HelveticaNeue-111"/>
     <use x="1318.599731" xlink:href="#HelveticaNeue-115"/>
     <use x="1368.599716" xlink:href="#HelveticaNeue-58"/>
     <use x="1396.399704" xlink:href="#HelveticaNeue-32"/>
     <use x="1424.199692" xlink:href="#HelveticaNeue-50"/>
     <use x="1479.799683" xlink:href="#HelveticaNeue-48"/>
     <use x="1535.399673" xlink:href="#HelveticaNeue-50"/>
     <use x="1590.999664" xlink:href="#HelveticaNeue-49"/>
     <use x="1646.599655" xlink:href="#HelveticaNeue-45"/>
     <use x="1685.499649" xlink:href="#HelveticaNeue-48"/>
     <use x="1741.09964" xlink:href="#HelveticaNeue-53"/>
     <use x="1796.699631" xlink:href="#HelveticaNeue-45"/>
     <use x="1835.599625" xlink:href="#HelveticaNeue-50"/>
     <use x="1891.199615" xlink:href="#HelveticaNeue-55"/>
    </g>
   </g>
   <g id="legend_1">
    <g id="line2d_23">
     <path d="M 71.5 39.640625 
L 91.5 39.640625 
" style="fill:none;stroke:#000000;stroke-dasharray:1.5,2.475;stroke-dashoffset:0;stroke-opacity:0.5;stroke-width:1.5;"/>
    </g>
    <g id="line2d_24"/>
    <g id="text_12">
     <!-- Actual -->
     <g style="fill:#555555;" transform="translate(99.5 43.140625)scale(0.1 -0.1)">
      <use xlink:href="#HelveticaNeue-65"/>
      <use x="64.799988" xlink:href="#HelveticaNeue-99"/>
      <use x="118.499985" xlink:href="#HelveticaNeue-116"/>
      <use x="149.999969" xlink:href="#HelveticaNeue-117"/>
      <use x="205.59996" xlink:href="#HelveticaNeue-97"/>
      <use x="259.299957" xlink:href="#HelveticaNeue-108"/>
     </g>
    </g>
    <g id="line2d_25">
     <path d="M 71.5 54.310937 
L 91.5 54.310937 
" style="fill:none;stroke:#b3220f;stroke-linecap:square;stroke-width:1.5;"/>
    </g>
    <g id="line2d_26"/>
    <g id="text_13">
     <!-- Promedio semanal (7 días)  -->
     <g style="fill:#555555;" transform="translate(99.5 57.810937)scale(0.1 -0.1)">
      <defs>
       <path d="M 17.296875 37.203125 
L 17.296875 63.40625 
L 35.90625 63.40625 
Q 44 63.40625 47.75 60.046875 
Q 51.5 56.703125 51.5 50.296875 
Q 51.5 43.90625 47.75 40.5 
Q 44 37.09375 35.90625 37.203125 
z
M 7.796875 71.40625 
L 7.796875 0 
L 17.296875 0 
L 17.296875 29.203125 
L 39.09375 29.203125 
Q 49.90625 29.09375 55.453125 34.6875 
Q 61 40.296875 61 50.296875 
Q 61 60.296875 55.453125 65.84375 
Q 49.90625 71.40625 39.09375 71.40625 
z
" id="HelveticaNeue-80"/>
       <path d="M 6.40625 51.703125 
L 6.40625 0 
L 14.90625 0 
L 14.90625 32.203125 
Q 14.90625 33.703125 15.65625 35.953125 
Q 16.40625 38.203125 18.046875 40.296875 
Q 19.703125 42.40625 22.34375 43.90625 
Q 25 45.40625 28.703125 45.40625 
Q 31.59375 45.40625 33.4375 44.546875 
Q 35.296875 43.703125 36.390625 42.140625 
Q 37.5 40.59375 37.953125 38.5 
Q 38.40625 36.40625 38.40625 33.90625 
L 38.40625 0 
L 46.90625 0 
L 46.90625 32.203125 
Q 46.90625 38.203125 50.5 41.796875 
Q 54.09375 45.40625 60.40625 45.40625 
Q 63.5 45.40625 65.453125 44.5 
Q 67.40625 43.59375 68.5 42.046875 
Q 69.59375 40.5 70 38.390625 
Q 70.40625 36.296875 70.40625 33.90625 
L 70.40625 0 
L 78.90625 0 
L 78.90625 37.90625 
Q 78.90625 41.90625 77.65625 44.75 
Q 76.40625 47.59375 74.15625 49.390625 
Q 71.90625 51.203125 68.75 52.046875 
Q 65.59375 52.90625 61.703125 52.90625 
Q 56.59375 52.90625 52.34375 50.59375 
Q 48.09375 48.296875 45.5 44.09375 
Q 43.90625 48.90625 40 50.90625 
Q 36.09375 52.90625 31.296875 52.90625 
Q 20.40625 52.90625 14.59375 44.09375 
L 14.40625 44.09375 
L 14.40625 51.703125 
z
" id="HelveticaNeue-109"/>
       <path d="M 20.40625 -19.703125 
L 26.90625 -19.703125 
Q 19.796875 -8.203125 16.75 3.09375 
Q 13.703125 14.40625 13.703125 27 
Q 13.703125 39.296875 16.703125 50.5 
Q 19.703125 61.703125 26.90625 73.09375 
L 20.40625 73.09375 
Q 12.59375 62.796875 8.640625 50.796875 
Q 4.703125 38.796875 4.703125 27 
Q 4.703125 20.40625 5.796875 14.40625 
Q 6.90625 8.40625 8.953125 2.703125 
Q 11 -3 13.890625 -8.546875 
Q 16.796875 -14.09375 20.40625 -19.703125 
z
" id="HelveticaNeue-40"/>
       <path d="M -0.90625 -19.703125 
L 5.5 -19.703125 
Q 13.296875 -9.40625 17.25 2.546875 
Q 21.203125 14.5 21.203125 26.296875 
Q 21.203125 32.90625 20.09375 38.90625 
Q 19 44.90625 16.953125 50.65625 
Q 14.90625 56.40625 12 61.953125 
Q 9.09375 67.5 5.5 73.09375 
L -0.90625 73.09375 
Q 6.09375 61.59375 9.140625 50.25 
Q 12.203125 38.90625 12.203125 26.296875 
Q 12.203125 14.09375 9.203125 2.84375 
Q 6.203125 -8.40625 -0.90625 -19.703125 
z
" id="HelveticaNeue-41"/>
      </defs>
      <use xlink:href="#HelveticaNeue-80"/>
      <use x="64.799988" xlink:href="#HelveticaNeue-114"/>
      <use x="96.349976" xlink:href="#HelveticaNeue-111"/>
      <use x="153.749969" xlink:href="#HelveticaNeue-109"/>
      <use x="239.049957" xlink:href="#HelveticaNeue-101"/>
      <use x="292.749954" xlink:href="#HelveticaNeue-100"/>
      <use x="352.049942" xlink:href="#HelveticaNeue-105"/>
      <use x="374.249939" xlink:href="#HelveticaNeue-111"/>
      <use x="431.649933" xlink:href="#HelveticaNeue-32"/>
      <use x="459.449921" xlink:href="#HelveticaNeue-115"/>
      <use x="509.449905" xlink:href="#HelveticaNeue-101"/>
      <use x="563.149902" xlink:href="#HelveticaNeue-109"/>
      <use x="648.44989" xlink:href="#HelveticaNeue-97"/>
      <use x="702.149887" xlink:href="#HelveticaNeue-110"/>
      <use x="757.749878" xlink:href="#HelveticaNeue-97"/>
      <use x="811.449875" xlink:href="#HelveticaNeue-108"/>
      <use x="833.649872" xlink:href="#HelveticaNeue-32"/>
      <use x="861.44986" xlink:href="#HelveticaNeue-40"/>
      <use x="887.349854" xlink:href="#HelveticaNeue-55"/>
      <use x="942.949844" xlink:href="#HelveticaNeue-32"/>
      <use x="970.749832" xlink:href="#HelveticaNeue-100"/>
      <use x="1030.04982" xlink:href="#HelveticaNeue-237"/>
      <use x="1052.249817" xlink:href="#HelveticaNeue-97"/>
      <use x="1105.949814" xlink:href="#HelveticaNeue-115"/>
      <use x="1155.949799" xlink:href="#HelveticaNeue-41"/>
      <use x="1181.849792" xlink:href="#HelveticaNeue-32"/>
     </g>
    </g>
   </g>
  </g>
 </g>
 <defs>
  <clipPath id="p4bb4aa88d7">
   <rect height="235.5" width="387.5" x="62.5" y="27"/>
  </clipPath>
 </defs>
</svg>
