<?xml version="1.0" encoding="utf-8" standalone="no"?>
<!DOCTYPE svg PUBLIC "-//W3C//DTD SVG 1.1//EN"
  "http://www.w3.org/Graphics/SVG/1.1/DTD/svg11.dtd">
<!-- Created with matplotlib (https://matplotlib.org/) -->
<svg height="300pt" version="1.1" viewBox="0 0 500 300" width="500pt" xmlns="http://www.w3.org/2000/svg" xmlns:xlink="http://www.w3.org/1999/xlink">
 <metadata>
  <rdf:RDF xmlns:cc="http://creativecommons.org/ns#" xmlns:dc="http://purl.org/dc/elements/1.1/" xmlns:rdf="http://www.w3.org/1999/02/22-rdf-syntax-ns#">
   <cc:Work>
    <dc:type rdf:resource="http://purl.org/dc/dcmitype/StillImage"/>
    <dc:date>2021-07-17T16:53:53.712121</dc:date>
    <dc:format>image/svg+xml</dc:format>
    <dc:creator>
     <cc:Agent>
      <dc:title>Matplotlib v3.3.4, https://matplotlib.org/</dc:title>
     </cc:Agent>
    </dc:creator>
   </cc:Work>
  </rdf:RDF>
 </metadata>
 <defs>
  <style type="text/css">*{stroke-linecap:butt;stroke-linejoin:round;}</style>
 </defs>
 <g id="figure_1">
  <g id="patch_1">
   <path d="M 0 300 
L 500 300 
L 500 0 
L 0 0 
z
" style="fill:#ffffff;"/>
  </g>
  <g id="axes_1">
   <g id="patch_2">
    <path d="M 62.5 262.5 
L 450 262.5 
L 450 27 
L 62.5 27 
z
" style="fill:#ffffff;"/>
   </g>
   <g id="matplotlib.axis_1">
    <g id="xtick_1">
     <g id="line2d_1">
      <defs>
       <path d="M 0 0 
L 0 3.5 
" id="mb1d7aaa12a" style="stroke:#555555;stroke-width:0.8;"/>
      </defs>
      <g>
       <use style="fill:#555555;stroke:#555555;stroke-width:0.8;" x="62.5" xlink:href="#mb1d7aaa12a" y="262.5"/>
      </g>
     </g>
    </g>
    <g id="xtick_2">
     <g id="line2d_2">
      <g>
       <use style="fill:#555555;stroke:#555555;stroke-width:0.8;" x="72.147303" xlink:href="#mb1d7aaa12a" y="262.5"/>
      </g>
     </g>
     <g id="text_1">
      <!-- Apr -->
      <g style="fill:#555555;" transform="translate(64.277772 276.640625)scale(0.1 -0.1)">
       <defs>
        <path d="M 20.09375 29.5 
L 32.203125 62.796875 
L 32.40625 62.796875 
L 44.296875 29.5 
z
M 27.203125 71.40625 
L -0.59375 0 
L 9.09375 0 
L 17.09375 21.5 
L 47.296875 21.5 
L 55.09375 0 
L 65.59375 0 
L 37.703125 71.40625 
z
" id="HelveticaNeue-65"/>
        <path d="M 6.703125 51.703125 
L 6.703125 -19.703125 
L 15.203125 -19.703125 
L 15.203125 6.90625 
L 15.40625 6.90625 
Q 16.796875 4.59375 18.84375 3.046875 
Q 20.90625 1.5 23.203125 0.59375 
Q 25.5 -0.296875 27.84375 -0.6875 
Q 30.203125 -1.09375 32.09375 -1.09375 
Q 38 -1.09375 42.453125 1 
Q 46.90625 3.09375 49.84375 6.75 
Q 52.796875 10.40625 54.25 15.296875 
Q 55.703125 20.203125 55.703125 25.703125 
Q 55.703125 31.203125 54.203125 36.09375 
Q 52.703125 41 49.75 44.75 
Q 46.796875 48.5 42.34375 50.703125 
Q 37.90625 52.90625 31.90625 52.90625 
Q 26.5 52.90625 22 50.953125 
Q 17.5 49 15.40625 44.703125 
L 15.203125 44.703125 
L 15.203125 51.703125 
z
M 46.703125 26.296875 
Q 46.703125 22.5 45.890625 18.890625 
Q 45.09375 15.296875 43.296875 12.5 
Q 41.5 9.703125 38.546875 8 
Q 35.59375 6.296875 31.203125 6.296875 
Q 26.796875 6.296875 23.6875 7.9375 
Q 20.59375 9.59375 18.640625 12.296875 
Q 16.703125 15 15.796875 18.546875 
Q 14.90625 22.09375 14.90625 25.90625 
Q 14.90625 29.5 15.75 33 
Q 16.59375 36.5 18.5 39.25 
Q 20.40625 42 23.40625 43.703125 
Q 26.40625 45.40625 30.703125 45.40625 
Q 34.796875 45.40625 37.84375 43.796875 
Q 40.90625 42.203125 42.84375 39.5 
Q 44.796875 36.796875 45.75 33.34375 
Q 46.703125 29.90625 46.703125 26.296875 
z
" id="HelveticaNeue-112"/>
        <path d="M 6.09375 51.703125 
L 6.09375 0 
L 14.59375 0 
L 14.59375 23 
Q 14.59375 28 15.59375 31.84375 
Q 16.59375 35.703125 18.796875 38.390625 
Q 21 41.09375 24.59375 42.5 
Q 28.203125 43.90625 33.296875 43.90625 
L 33.296875 52.90625 
Q 26.40625 53.09375 21.90625 50.09375 
Q 17.40625 47.09375 14.296875 40.796875 
L 14.09375 40.796875 
L 14.09375 51.703125 
z
" id="HelveticaNeue-114"/>
       </defs>
       <use xlink:href="#HelveticaNeue-65"/>
       <use x="64.799988" xlink:href="#HelveticaNeue-112"/>
       <use x="124.099976" xlink:href="#HelveticaNeue-114"/>
      </g>
     </g>
    </g>
    <g id="xtick_3">
     <g id="line2d_3">
      <g>
       <use style="fill:#555555;stroke:#555555;stroke-width:0.8;" x="145.306017" xlink:href="#mb1d7aaa12a" y="262.5"/>
      </g>
     </g>
     <g id="text_2">
      <!-- Jul -->
      <g style="fill:#555555;" transform="translate(138.82086 276.640625)scale(0.1 -0.1)">
       <defs>
        <path d="M 44.09375 17.796875 
L 44.09375 71.40625 
L 34.59375 71.40625 
L 34.59375 19.203125 
Q 34.59375 13.296875 32.140625 9.796875 
Q 29.703125 6.296875 23.203125 6.296875 
Q 19.703125 6.296875 17.453125 7.34375 
Q 15.203125 8.40625 13.953125 10.296875 
Q 12.703125 12.203125 12.203125 14.796875 
Q 11.703125 17.40625 11.703125 20.5 
L 11.703125 23.5 
L 2.203125 23.5 
L 2.203125 19.09375 
Q 2.203125 8.90625 7.59375 3.65625 
Q 13 -1.59375 23 -1.59375 
Q 29 -1.59375 33.046875 0.046875 
Q 37.09375 1.703125 39.546875 4.453125 
Q 42 7.203125 43.046875 10.703125 
Q 44.09375 14.203125 44.09375 17.796875 
z
" id="HelveticaNeue-74"/>
        <path d="M 49.203125 0 
L 49.203125 51.703125 
L 40.703125 51.703125 
L 40.703125 22.5 
Q 40.703125 19 39.75 16.046875 
Q 38.796875 13.09375 36.890625 10.890625 
Q 35 8.703125 32.140625 7.5 
Q 29.296875 6.296875 25.40625 6.296875 
Q 20.5 6.296875 17.703125 9.09375 
Q 14.90625 11.90625 14.90625 16.703125 
L 14.90625 51.703125 
L 6.40625 51.703125 
L 6.40625 17.703125 
Q 6.40625 13.5 7.25 10.046875 
Q 8.09375 6.59375 10.1875 4.09375 
Q 12.296875 1.59375 15.6875 0.25 
Q 19.09375 -1.09375 24.203125 -1.09375 
Q 29.90625 -1.09375 34.09375 1.15625 
Q 38.296875 3.40625 41 8.203125 
L 41.203125 8.203125 
L 41.203125 0 
z
" id="HelveticaNeue-117"/>
        <path d="M 6.90625 71.40625 
L 6.90625 0 
L 15.40625 0 
L 15.40625 71.40625 
z
" id="HelveticaNeue-108"/>
       </defs>
       <use xlink:href="#HelveticaNeue-74"/>
       <use x="51.899994" xlink:href="#HelveticaNeue-117"/>
       <use x="107.499985" xlink:href="#HelveticaNeue-108"/>
      </g>
     </g>
    </g>
    <g id="xtick_4">
     <g id="line2d_4">
      <g>
       <use style="fill:#555555;stroke:#555555;stroke-width:0.8;" x="219.268672" xlink:href="#mb1d7aaa12a" y="262.5"/>
      </g>
     </g>
     <g id="text_3">
      <!-- Oct -->
      <g style="fill:#555555;" transform="translate(211.208516 276.640625)scale(0.1 -0.1)">
       <defs>
        <path d="M 13.296875 35.703125 
Q 13.296875 41.09375 14.6875 46.34375 
Q 16.09375 51.59375 19.09375 55.796875 
Q 22.09375 60 26.796875 62.546875 
Q 31.5 65.09375 38 65.09375 
Q 44.5 65.09375 49.203125 62.546875 
Q 53.90625 60 56.90625 55.796875 
Q 59.90625 51.59375 61.296875 46.34375 
Q 62.703125 41.09375 62.703125 35.703125 
Q 62.703125 30.296875 61.296875 25.046875 
Q 59.90625 19.796875 56.90625 15.59375 
Q 53.90625 11.40625 49.203125 8.84375 
Q 44.5 6.296875 38 6.296875 
Q 31.5 6.296875 26.796875 8.84375 
Q 22.09375 11.40625 19.09375 15.59375 
Q 16.09375 19.796875 14.6875 25.046875 
Q 13.296875 30.296875 13.296875 35.703125 
z
M 3.796875 35.703125 
Q 3.796875 28.40625 5.9375 21.65625 
Q 8.09375 14.90625 12.390625 9.703125 
Q 16.703125 4.5 23.09375 1.453125 
Q 29.5 -1.59375 38 -1.59375 
Q 46.5 -1.59375 52.890625 1.453125 
Q 59.296875 4.5 63.59375 9.703125 
Q 67.90625 14.90625 70.046875 21.65625 
Q 72.203125 28.40625 72.203125 35.703125 
Q 72.203125 43 70.046875 49.75 
Q 67.90625 56.5 63.59375 61.703125 
Q 59.296875 66.90625 52.890625 70 
Q 46.5 73.09375 38 73.09375 
Q 29.5 73.09375 23.09375 70 
Q 16.703125 66.90625 12.390625 61.703125 
Q 8.09375 56.5 5.9375 49.75 
Q 3.796875 43 3.796875 35.703125 
z
" id="HelveticaNeue-79"/>
        <path d="M 41.5 35.09375 
L 50.296875 35.09375 
Q 49.796875 39.703125 47.890625 43.046875 
Q 46 46.40625 43.046875 48.59375 
Q 40.09375 50.796875 36.25 51.84375 
Q 32.40625 52.90625 28 52.90625 
Q 21.90625 52.90625 17.296875 50.75 
Q 12.703125 48.59375 9.640625 44.84375 
Q 6.59375 41.09375 5.09375 36.046875 
Q 3.59375 31 3.59375 25.203125 
Q 3.59375 19.40625 5.140625 14.546875 
Q 6.703125 9.703125 9.75 6.203125 
Q 12.796875 2.703125 17.34375 0.796875 
Q 21.90625 -1.09375 27.796875 -1.09375 
Q 37.703125 -1.09375 43.453125 4.09375 
Q 49.203125 9.296875 50.59375 18.90625 
L 41.90625 18.90625 
Q 41.09375 12.90625 37.546875 9.59375 
Q 34 6.296875 27.703125 6.296875 
Q 23.703125 6.296875 20.796875 7.890625 
Q 17.90625 9.5 16.09375 12.140625 
Q 14.296875 14.796875 13.4375 18.1875 
Q 12.59375 21.59375 12.59375 25.203125 
Q 12.59375 29.09375 13.390625 32.75 
Q 14.203125 36.40625 16.046875 39.203125 
Q 17.90625 42 21 43.703125 
Q 24.09375 45.40625 28.703125 45.40625 
Q 34.09375 45.40625 37.296875 42.703125 
Q 40.5 40 41.5 35.09375 
z
" id="HelveticaNeue-99"/>
        <path d="M 18.203125 51.703125 
L 18.203125 67.203125 
L 9.703125 67.203125 
L 9.703125 51.703125 
L 0.90625 51.703125 
L 0.90625 44.203125 
L 9.703125 44.203125 
L 9.703125 11.296875 
Q 9.703125 7.703125 10.390625 5.5 
Q 11.09375 3.296875 12.546875 2.09375 
Q 14 0.90625 16.34375 0.453125 
Q 18.703125 0 22 0 
L 28.5 0 
L 28.5 7.5 
L 24.59375 7.5 
Q 22.59375 7.5 21.34375 7.640625 
Q 20.09375 7.796875 19.390625 8.296875 
Q 18.703125 8.796875 18.453125 9.6875 
Q 18.203125 10.59375 18.203125 12.09375 
L 18.203125 44.203125 
L 28.5 44.203125 
L 28.5 51.703125 
z
" id="HelveticaNeue-116"/>
       </defs>
       <use xlink:href="#HelveticaNeue-79"/>
       <use x="75.999985" xlink:href="#HelveticaNeue-99"/>
       <use x="129.699982" xlink:href="#HelveticaNeue-116"/>
      </g>
     </g>
    </g>
    <g id="xtick_5">
     <g id="line2d_5">
      <g>
       <use style="fill:#555555;stroke:#555555;stroke-width:0.8;" x="293.231328" xlink:href="#mb1d7aaa12a" y="262.5"/>
      </g>
     </g>
     <g id="text_4">
      <!-- Jan -->
      <g style="fill:#555555;" transform="translate(285.171172 276.640625)scale(0.1 -0.1)">
       <defs>
        <path d="M 52.203125 0.203125 
Q 50 -1.09375 46.09375 -1.09375 
Q 42.796875 -1.09375 40.84375 0.75 
Q 38.90625 2.59375 38.90625 6.796875 
Q 35.40625 2.59375 30.75 0.75 
Q 26.09375 -1.09375 20.703125 -1.09375 
Q 17.203125 -1.09375 14.046875 -0.296875 
Q 10.90625 0.5 8.59375 2.203125 
Q 6.296875 3.90625 4.9375 6.65625 
Q 3.59375 9.40625 3.59375 13.296875 
Q 3.59375 17.703125 5.09375 20.5 
Q 6.59375 23.296875 9.046875 25.046875 
Q 11.5 26.796875 14.640625 27.6875 
Q 17.796875 28.59375 21.09375 29.203125 
Q 24.59375 29.90625 27.75 30.25 
Q 30.90625 30.59375 33.296875 31.25 
Q 35.703125 31.90625 37.09375 33.15625 
Q 38.5 34.40625 38.5 36.796875 
Q 38.5 39.59375 37.453125 41.296875 
Q 36.40625 43 34.75 43.890625 
Q 33.09375 44.796875 31.046875 45.09375 
Q 29 45.40625 27 45.40625 
Q 21.59375 45.40625 18 43.34375 
Q 14.40625 41.296875 14.09375 35.59375 
L 5.59375 35.59375 
Q 5.796875 40.40625 7.59375 43.703125 
Q 9.40625 47 12.40625 49.046875 
Q 15.40625 51.09375 19.25 52 
Q 23.09375 52.90625 27.5 52.90625 
Q 31 52.90625 34.453125 52.40625 
Q 37.90625 51.90625 40.703125 50.34375 
Q 43.5 48.796875 45.203125 46 
Q 46.90625 43.203125 46.90625 38.703125 
L 46.90625 12.09375 
Q 46.90625 9.09375 47.25 7.6875 
Q 47.59375 6.296875 49.59375 6.296875 
Q 50.703125 6.296875 52.203125 6.796875 
z
M 38.40625 26.703125 
Q 36.796875 25.5 34.1875 24.953125 
Q 31.59375 24.40625 28.75 24.046875 
Q 25.90625 23.703125 23 23.25 
Q 20.09375 22.796875 17.796875 21.796875 
Q 15.5 20.796875 14.046875 18.9375 
Q 12.59375 17.09375 12.59375 13.90625 
Q 12.59375 11.796875 13.4375 10.34375 
Q 14.296875 8.90625 15.640625 8 
Q 17 7.09375 18.796875 6.6875 
Q 20.59375 6.296875 22.59375 6.296875 
Q 26.796875 6.296875 29.796875 7.4375 
Q 32.796875 8.59375 34.6875 10.34375 
Q 36.59375 12.09375 37.5 14.140625 
Q 38.40625 16.203125 38.40625 18 
z
" id="HelveticaNeue-97"/>
        <path d="M 6.40625 51.703125 
L 6.40625 0 
L 14.90625 0 
L 14.90625 29.203125 
Q 14.90625 32.703125 15.84375 35.640625 
Q 16.796875 38.59375 18.6875 40.796875 
Q 20.59375 43 23.4375 44.203125 
Q 26.296875 45.40625 30.203125 45.40625 
Q 35.09375 45.40625 37.890625 42.59375 
Q 40.703125 39.796875 40.703125 35 
L 40.703125 0 
L 49.203125 0 
L 49.203125 34 
Q 49.203125 38.203125 48.34375 41.640625 
Q 47.5 45.09375 45.390625 47.59375 
Q 43.296875 50.09375 39.890625 51.5 
Q 36.5 52.90625 31.40625 52.90625 
Q 19.90625 52.90625 14.59375 43.5 
L 14.40625 43.5 
L 14.40625 51.703125 
z
" id="HelveticaNeue-110"/>
       </defs>
       <use xlink:href="#HelveticaNeue-74"/>
       <use x="51.899994" xlink:href="#HelveticaNeue-97"/>
       <use x="105.599991" xlink:href="#HelveticaNeue-110"/>
      </g>
      <!-- 2021 -->
      <g style="fill:#555555;" transform="translate(282.112578 287.179688)scale(0.1 -0.1)">
       <defs>
        <path d="M 4.40625 45.796875 
L 12.90625 45.796875 
Q 12.796875 49 13.546875 52.140625 
Q 14.296875 55.296875 16 57.796875 
Q 17.703125 60.296875 20.34375 61.84375 
Q 23 63.40625 26.703125 63.40625 
Q 29.5 63.40625 32 62.5 
Q 34.5 61.59375 36.34375 59.890625 
Q 38.203125 58.203125 39.296875 55.84375 
Q 40.40625 53.5 40.40625 50.59375 
Q 40.40625 46.90625 39.25 44.09375 
Q 38.09375 41.296875 35.84375 38.890625 
Q 33.59375 36.5 30.1875 34.140625 
Q 26.796875 31.796875 22.296875 29 
Q 18.59375 26.796875 15.1875 24.296875 
Q 11.796875 21.796875 9.09375 18.5 
Q 6.40625 15.203125 4.65625 10.75 
Q 2.90625 6.296875 2.40625 0 
L 48.703125 0 
L 48.703125 7.5 
L 12.296875 7.5 
Q 12.90625 10.796875 14.84375 13.34375 
Q 16.796875 15.90625 19.546875 18.09375 
Q 22.296875 20.296875 25.59375 22.25 
Q 28.90625 24.203125 32.203125 26.203125 
Q 35.5 28.296875 38.59375 30.59375 
Q 41.703125 32.90625 44.09375 35.75 
Q 46.5 38.59375 47.953125 42.1875 
Q 49.40625 45.796875 49.40625 50.5 
Q 49.40625 55.5 47.65625 59.296875 
Q 45.90625 63.09375 42.90625 65.640625 
Q 39.90625 68.203125 35.84375 69.546875 
Q 31.796875 70.90625 27.203125 70.90625 
Q 21.59375 70.90625 17.1875 69 
Q 12.796875 67.09375 9.84375 63.75 
Q 6.90625 60.40625 5.5 55.796875 
Q 4.09375 51.203125 4.40625 45.796875 
z
" id="HelveticaNeue-50"/>
        <path d="M 13.203125 34.90625 
Q 13.203125 37.5 13.25 40.640625 
Q 13.296875 43.796875 13.75 46.9375 
Q 14.203125 50.09375 15.046875 53.09375 
Q 15.90625 56.09375 17.546875 58.34375 
Q 19.203125 60.59375 21.703125 62 
Q 24.203125 63.40625 27.796875 63.40625 
Q 31.40625 63.40625 33.90625 62 
Q 36.40625 60.59375 38.046875 58.34375 
Q 39.703125 56.09375 40.546875 53.09375 
Q 41.40625 50.09375 41.84375 46.9375 
Q 42.296875 43.796875 42.34375 40.640625 
Q 42.40625 37.5 42.40625 34.90625 
Q 42.40625 30.90625 42.15625 25.953125 
Q 41.90625 21 40.546875 16.640625 
Q 39.203125 12.296875 36.203125 9.296875 
Q 33.203125 6.296875 27.796875 6.296875 
Q 22.40625 6.296875 19.40625 9.296875 
Q 16.40625 12.296875 15.046875 16.640625 
Q 13.703125 21 13.453125 25.953125 
Q 13.203125 30.90625 13.203125 34.90625 
z
M 4.203125 34.796875 
Q 4.203125 30.90625 4.390625 26.703125 
Q 4.59375 22.5 5.390625 18.5 
Q 6.203125 14.5 7.703125 10.953125 
Q 9.203125 7.40625 11.796875 4.703125 
Q 14.40625 2 18.34375 0.453125 
Q 22.296875 -1.09375 27.796875 -1.09375 
Q 33.40625 -1.09375 37.296875 0.453125 
Q 41.203125 2 43.796875 4.703125 
Q 46.40625 7.40625 47.90625 10.953125 
Q 49.40625 14.5 50.203125 18.5 
Q 51 22.5 51.203125 26.703125 
Q 51.40625 30.90625 51.40625 34.796875 
Q 51.40625 38.703125 51.203125 42.890625 
Q 51 47.09375 50.203125 51.09375 
Q 49.40625 55.09375 47.90625 58.6875 
Q 46.40625 62.296875 43.796875 65 
Q 41.203125 67.703125 37.25 69.296875 
Q 33.296875 70.90625 27.796875 70.90625 
Q 22.296875 70.90625 18.34375 69.296875 
Q 14.40625 67.703125 11.796875 65 
Q 9.203125 62.296875 7.703125 58.6875 
Q 6.203125 55.09375 5.390625 51.09375 
Q 4.59375 47.09375 4.390625 42.890625 
Q 4.203125 38.703125 4.203125 34.796875 
z
" id="HelveticaNeue-48"/>
        <path d="M 35.59375 0 
L 35.59375 70.90625 
L 29.09375 70.90625 
Q 28.40625 66.90625 26.5 64.296875 
Q 24.59375 61.703125 21.84375 60.203125 
Q 19.09375 58.703125 15.6875 58.140625 
Q 12.296875 57.59375 8.703125 57.59375 
L 8.703125 50.796875 
L 27.09375 50.796875 
L 27.09375 0 
z
" id="HelveticaNeue-49"/>
       </defs>
       <use xlink:href="#HelveticaNeue-50"/>
       <use x="55.599991" xlink:href="#HelveticaNeue-48"/>
       <use x="111.199982" xlink:href="#HelveticaNeue-50"/>
       <use x="166.799973" xlink:href="#HelveticaNeue-49"/>
      </g>
     </g>
    </g>
    <g id="xtick_6">
     <g id="line2d_6">
      <g>
       <use style="fill:#555555;stroke:#555555;stroke-width:0.8;" x="365.5861" xlink:href="#mb1d7aaa12a" y="262.5"/>
      </g>
     </g>
     <g id="text_5">
      <!-- Apr -->
      <g style="fill:#555555;" transform="translate(357.716568 276.640625)scale(0.1 -0.1)">
       <use xlink:href="#HelveticaNeue-65"/>
       <use x="64.799988" xlink:href="#HelveticaNeue-112"/>
       <use x="124.099976" xlink:href="#HelveticaNeue-114"/>
      </g>
     </g>
    </g>
    <g id="xtick_7">
     <g id="line2d_7">
      <g>
       <use style="fill:#555555;stroke:#555555;stroke-width:0.8;" x="438.744813" xlink:href="#mb1d7aaa12a" y="262.5"/>
      </g>
     </g>
     <g id="text_6">
      <!-- Jul -->
      <g style="fill:#555555;" transform="translate(432.259657 276.640625)scale(0.1 -0.1)">
       <use xlink:href="#HelveticaNeue-74"/>
       <use x="51.899994" xlink:href="#HelveticaNeue-117"/>
       <use x="107.499985" xlink:href="#HelveticaNeue-108"/>
      </g>
     </g>
    </g>
    <g id="xtick_8">
     <g id="line2d_8">
      <g>
       <use style="fill:#555555;stroke:#555555;stroke-width:0.8;" x="450" xlink:href="#mb1d7aaa12a" y="262.5"/>
      </g>
     </g>
    </g>
    <g id="xtick_9">
     <g id="line2d_9">
      <defs>
       <path d="M 0 0 
L 0 2 
" id="mc011b2d1cd" style="stroke:#555555;stroke-width:0.6;"/>
      </defs>
      <g>
       <use style="fill:#555555;stroke:#555555;stroke-width:0.6;" x="96.26556" xlink:href="#mc011b2d1cd" y="262.5"/>
      </g>
     </g>
    </g>
    <g id="xtick_10">
     <g id="line2d_10">
      <g>
       <use style="fill:#555555;stroke:#555555;stroke-width:0.6;" x="121.187759" xlink:href="#mc011b2d1cd" y="262.5"/>
      </g>
     </g>
    </g>
    <g id="xtick_11">
     <g id="line2d_11">
      <g>
       <use style="fill:#555555;stroke:#555555;stroke-width:0.6;" x="170.228216" xlink:href="#mc011b2d1cd" y="262.5"/>
      </g>
     </g>
    </g>
    <g id="xtick_12">
     <g id="line2d_12">
      <g>
       <use style="fill:#555555;stroke:#555555;stroke-width:0.6;" x="195.150415" xlink:href="#mc011b2d1cd" y="262.5"/>
      </g>
     </g>
    </g>
    <g id="xtick_13">
     <g id="line2d_13">
      <g>
       <use style="fill:#555555;stroke:#555555;stroke-width:0.6;" x="244.190871" xlink:href="#mc011b2d1cd" y="262.5"/>
      </g>
     </g>
    </g>
    <g id="xtick_14">
     <g id="line2d_14">
      <g>
       <use style="fill:#555555;stroke:#555555;stroke-width:0.6;" x="268.309129" xlink:href="#mc011b2d1cd" y="262.5"/>
      </g>
     </g>
    </g>
    <g id="xtick_15">
     <g id="line2d_15">
      <g>
       <use style="fill:#555555;stroke:#555555;stroke-width:0.6;" x="318.153527" xlink:href="#mc011b2d1cd" y="262.5"/>
      </g>
     </g>
    </g>
    <g id="xtick_16">
     <g id="line2d_16">
      <g>
       <use style="fill:#555555;stroke:#555555;stroke-width:0.6;" x="340.6639" xlink:href="#mc011b2d1cd" y="262.5"/>
      </g>
     </g>
    </g>
    <g id="xtick_17">
     <g id="line2d_17">
      <g>
       <use style="fill:#555555;stroke:#555555;stroke-width:0.6;" x="389.704357" xlink:href="#mc011b2d1cd" y="262.5"/>
      </g>
     </g>
    </g>
    <g id="xtick_18">
     <g id="line2d_18">
      <g>
       <use style="fill:#555555;stroke:#555555;stroke-width:0.6;" x="414.626556" xlink:href="#mc011b2d1cd" y="262.5"/>
      </g>
     </g>
    </g>
    <g id="text_7">
     <!-- fecha -->
     <g style="fill:#555555;" transform="translate(243.935156 300.290625)scale(0.1 -0.1)">
      <defs>
       <path d="M 9.90625 44.203125 
L 9.90625 0 
L 18.40625 0 
L 18.40625 44.203125 
L 28.40625 44.203125 
L 28.40625 51.703125 
L 18.40625 51.703125 
L 18.40625 58.90625 
Q 18.40625 62.296875 20.09375 63.5 
Q 21.796875 64.703125 24.90625 64.703125 
Q 26 64.703125 27.296875 64.546875 
Q 28.59375 64.40625 29.703125 64 
L 29.703125 71.40625 
Q 28.5 71.796875 26.953125 72 
Q 25.40625 72.203125 24.203125 72.203125 
Q 17.203125 72.203125 13.546875 68.953125 
Q 9.90625 65.703125 9.90625 59.40625 
L 9.90625 51.703125 
L 1.203125 51.703125 
L 1.203125 44.203125 
z
" id="HelveticaNeue-102"/>
       <path d="M 42.296875 30.796875 
L 12.59375 30.796875 
Q 12.796875 33.796875 13.890625 36.4375 
Q 15 39.09375 16.890625 41.09375 
Q 18.796875 43.09375 21.4375 44.25 
Q 24.09375 45.40625 27.40625 45.40625 
Q 30.59375 45.40625 33.25 44.25 
Q 35.90625 43.09375 37.84375 41.140625 
Q 39.796875 39.203125 40.9375 36.5 
Q 42.09375 33.796875 42.296875 30.796875 
z
M 50.5 16.40625 
L 42.09375 16.40625 
Q 41 11.296875 37.546875 8.796875 
Q 34.09375 6.296875 28.703125 6.296875 
Q 24.5 6.296875 21.390625 7.6875 
Q 18.296875 9.09375 16.296875 11.4375 
Q 14.296875 13.796875 13.390625 16.84375 
Q 12.5 19.90625 12.59375 23.296875 
L 51.296875 23.296875 
Q 51.5 28 50.453125 33.203125 
Q 49.40625 38.40625 46.65625 42.796875 
Q 43.90625 47.203125 39.34375 50.046875 
Q 34.796875 52.90625 27.90625 52.90625 
Q 22.59375 52.90625 18.140625 50.90625 
Q 13.703125 48.90625 10.453125 45.296875 
Q 7.203125 41.703125 5.390625 36.796875 
Q 3.59375 31.90625 3.59375 26 
Q 3.796875 20.09375 5.34375 15.09375 
Q 6.90625 10.09375 10 6.5 
Q 13.09375 2.90625 17.640625 0.90625 
Q 22.203125 -1.09375 28.40625 -1.09375 
Q 37.203125 -1.09375 43 3.296875 
Q 48.796875 7.703125 50.5 16.40625 
z
" id="HelveticaNeue-101"/>
       <path d="M 6.40625 71.40625 
L 6.40625 0 
L 14.90625 0 
L 14.90625 29.203125 
Q 14.90625 32.703125 15.84375 35.640625 
Q 16.796875 38.59375 18.6875 40.796875 
Q 20.59375 43 23.4375 44.203125 
Q 26.296875 45.40625 30.203125 45.40625 
Q 35.09375 45.40625 37.890625 42.59375 
Q 40.703125 39.796875 40.703125 35 
L 40.703125 0 
L 49.203125 0 
L 49.203125 34 
Q 49.203125 38.203125 48.34375 41.640625 
Q 47.5 45.09375 45.390625 47.59375 
Q 43.296875 50.09375 39.890625 51.5 
Q 36.5 52.90625 31.40625 52.90625 
Q 29.09375 52.90625 26.640625 52.40625 
Q 24.203125 51.90625 21.953125 50.84375 
Q 19.703125 49.796875 17.890625 48.140625 
Q 16.09375 46.5 15.09375 44.09375 
L 14.90625 44.09375 
L 14.90625 71.40625 
z
" id="HelveticaNeue-104"/>
      </defs>
      <use xlink:href="#HelveticaNeue-102"/>
      <use x="29.599991" xlink:href="#HelveticaNeue-101"/>
      <use x="83.299988" xlink:href="#HelveticaNeue-99"/>
      <use x="136.999985" xlink:href="#HelveticaNeue-104"/>
      <use x="192.599976" xlink:href="#HelveticaNeue-97"/>
     </g>
    </g>
   </g>
   <g id="matplotlib.axis_2">
    <g id="ytick_1">
     <g id="line2d_19">
      <defs>
       <path d="M 0 0 
L -3.5 0 
" id="m13554cfe6f" style="stroke:#555555;stroke-width:0.8;"/>
      </defs>
      <g>
       <use style="fill:#555555;stroke:#555555;stroke-width:0.8;" x="62.5" xlink:href="#m13554cfe6f" y="251.795455"/>
      </g>
     </g>
     <g id="text_8">
      <!-- 0 -->
      <g style="fill:#555555;" transform="translate(49.940625 255.365767)scale(0.1 -0.1)">
       <use xlink:href="#HelveticaNeue-48"/>
      </g>
     </g>
    </g>
    <g id="ytick_2">
     <g id="line2d_20">
      <g>
       <use style="fill:#555555;stroke:#555555;stroke-width:0.8;" x="62.5" xlink:href="#m13554cfe6f" y="221.831716"/>
      </g>
     </g>
     <g id="text_9">
      <!-- 200 -->
      <g style="fill:#555555;" transform="translate(38.821875 225.402029)scale(0.1 -0.1)">
       <use xlink:href="#HelveticaNeue-50"/>
       <use x="55.599991" xlink:href="#HelveticaNeue-48"/>
       <use x="111.199982" xlink:href="#HelveticaNeue-48"/>
      </g>
     </g>
    </g>
    <g id="ytick_3">
     <g id="line2d_21">
      <g>
       <use style="fill:#555555;stroke:#555555;stroke-width:0.8;" x="62.5" xlink:href="#m13554cfe6f" y="191.867978"/>
      </g>
     </g>
     <g id="text_10">
      <!-- 400 -->
      <g style="fill:#555555;" transform="translate(38.821875 195.438291)scale(0.1 -0.1)">
       <defs>
        <path d="M 33.90625 24.09375 
L 10.09375 24.09375 
L 33.703125 58.796875 
L 33.90625 58.796875 
z
M 41.90625 24.09375 
L 41.90625 70.90625 
L 35.09375 70.90625 
L 2.796875 24.796875 
L 2.796875 16.59375 
L 33.90625 16.59375 
L 33.90625 0 
L 41.90625 0 
L 41.90625 16.59375 
L 51.5 16.59375 
L 51.5 24.09375 
z
" id="HelveticaNeue-52"/>
       </defs>
       <use xlink:href="#HelveticaNeue-52"/>
       <use x="55.599991" xlink:href="#HelveticaNeue-48"/>
       <use x="111.199982" xlink:href="#HelveticaNeue-48"/>
      </g>
     </g>
    </g>
    <g id="ytick_4">
     <g id="line2d_22">
      <g>
       <use style="fill:#555555;stroke:#555555;stroke-width:0.8;" x="62.5" xlink:href="#m13554cfe6f" y="161.90424"/>
      </g>
     </g>
     <g id="text_11">
      <!-- 600 -->
      <g style="fill:#555555;" transform="translate(38.821875 165.474553)scale(0.1 -0.1)">
       <defs>
        <path d="M 41.40625 52.796875 
L 49.90625 52.796875 
Q 49.09375 61.59375 43.890625 66.25 
Q 38.703125 70.90625 29.90625 70.90625 
Q 22.296875 70.90625 17.296875 67.703125 
Q 12.296875 64.5 9.296875 59.203125 
Q 6.296875 53.90625 5.046875 47.046875 
Q 3.796875 40.203125 3.796875 32.90625 
Q 3.796875 27.296875 4.640625 21.296875 
Q 5.5 15.296875 8.09375 10.296875 
Q 10.703125 5.296875 15.5 2.09375 
Q 20.296875 -1.09375 28.203125 -1.09375 
Q 34.90625 -1.09375 39.453125 1.15625 
Q 44 3.40625 46.75 6.84375 
Q 49.5 10.296875 50.703125 14.5 
Q 51.90625 18.703125 51.90625 22.59375 
Q 51.90625 27.5 50.40625 31.703125 
Q 48.90625 35.90625 46.15625 39 
Q 43.40625 42.09375 39.34375 43.84375 
Q 35.296875 45.59375 30.203125 45.59375 
Q 24.40625 45.59375 19.953125 43.390625 
Q 15.5 41.203125 12.5 36.296875 
L 12.296875 36.5 
Q 12.40625 40.59375 13.09375 45.296875 
Q 13.796875 50 15.640625 54.046875 
Q 17.5 58.09375 20.796875 60.75 
Q 24.09375 63.40625 29.5 63.40625 
Q 34.59375 63.40625 37.6875 60.5 
Q 40.796875 57.59375 41.40625 52.796875 
z
M 28.59375 38.09375 
Q 32.203125 38.09375 34.890625 36.796875 
Q 37.59375 35.5 39.390625 33.34375 
Q 41.203125 31.203125 42.046875 28.25 
Q 42.90625 25.296875 42.90625 22 
Q 42.90625 18.90625 41.953125 16.046875 
Q 41 13.203125 39.203125 11 
Q 37.40625 8.796875 34.75 7.546875 
Q 32.09375 6.296875 28.59375 6.296875 
Q 25.09375 6.296875 22.34375 7.546875 
Q 19.59375 8.796875 17.75 10.890625 
Q 15.90625 13 14.90625 15.890625 
Q 13.90625 18.796875 13.90625 22.09375 
Q 13.90625 25.40625 14.84375 28.34375 
Q 15.796875 31.296875 17.6875 33.4375 
Q 19.59375 35.59375 22.296875 36.84375 
Q 25 38.09375 28.59375 38.09375 
z
" id="HelveticaNeue-54"/>
       </defs>
       <use xlink:href="#HelveticaNeue-54"/>
       <use x="55.599991" xlink:href="#HelveticaNeue-48"/>
       <use x="111.199982" xlink:href="#HelveticaNeue-48"/>
      </g>
     </g>
    </g>
    <g id="ytick_5">
     <g id="line2d_23">
      <g>
       <use style="fill:#555555;stroke:#555555;stroke-width:0.8;" x="62.5" xlink:href="#m13554cfe6f" y="131.940502"/>
      </g>
     </g>
     <g id="text_12">
      <!-- 800 -->
      <g style="fill:#555555;" transform="translate(38.821875 135.510814)scale(0.1 -0.1)">
       <defs>
        <path d="M 15.5 52.5 
Q 15.5 55.203125 16.5 57.203125 
Q 17.5 59.203125 19.140625 60.59375 
Q 20.796875 62 23.09375 62.703125 
Q 25.40625 63.40625 27.90625 63.40625 
Q 33.09375 63.40625 36.4375 60.65625 
Q 39.796875 57.90625 39.796875 52.5 
Q 39.796875 47.09375 36.5 44.09375 
Q 33.203125 41.09375 28.09375 41.09375 
Q 25.5 41.09375 23.203125 41.796875 
Q 20.90625 42.5 19.203125 43.890625 
Q 17.5 45.296875 16.5 47.4375 
Q 15.5 49.59375 15.5 52.5 
z
M 6.5 52.796875 
Q 6.5 48 9.203125 43.953125 
Q 11.90625 39.90625 16.40625 38.09375 
Q 10.40625 36 7.203125 31.34375 
Q 4 26.703125 4 20.40625 
Q 4 15 5.84375 10.953125 
Q 7.703125 6.90625 10.953125 4.203125 
Q 14.203125 1.5 18.59375 0.203125 
Q 23 -1.09375 28.09375 -1.09375 
Q 33 -1.09375 37.296875 0.296875 
Q 41.59375 1.703125 44.75 4.453125 
Q 47.90625 7.203125 49.75 11.203125 
Q 51.59375 15.203125 51.59375 20.40625 
Q 51.59375 27 48.5 31.546875 
Q 45.40625 36.09375 39 38.09375 
Q 43.5 40.09375 46.140625 44.046875 
Q 48.796875 48 48.796875 52.796875 
Q 48.796875 56.203125 47.59375 59.453125 
Q 46.40625 62.703125 43.84375 65.25 
Q 41.296875 67.796875 37.1875 69.34375 
Q 33.09375 70.90625 27.296875 70.90625 
Q 23.203125 70.90625 19.453125 69.703125 
Q 15.703125 68.5 12.796875 66.203125 
Q 9.90625 63.90625 8.203125 60.546875 
Q 6.5 57.203125 6.5 52.796875 
z
M 13 20 
Q 13 23.09375 14.140625 25.59375 
Q 15.296875 28.09375 17.34375 29.890625 
Q 19.40625 31.703125 22.15625 32.640625 
Q 24.90625 33.59375 28 33.59375 
Q 31 33.59375 33.640625 32.546875 
Q 36.296875 31.5 38.296875 29.703125 
Q 40.296875 27.90625 41.4375 25.453125 
Q 42.59375 23 42.59375 20.09375 
Q 42.59375 17.09375 41.546875 14.59375 
Q 40.5 12.09375 38.546875 10.25 
Q 36.59375 8.40625 33.9375 7.34375 
Q 31.296875 6.296875 28.09375 6.296875 
Q 21.5 6.296875 17.25 9.9375 
Q 13 13.59375 13 20 
z
" id="HelveticaNeue-56"/>
       </defs>
       <use xlink:href="#HelveticaNeue-56"/>
       <use x="55.599991" xlink:href="#HelveticaNeue-48"/>
       <use x="111.199982" xlink:href="#HelveticaNeue-48"/>
      </g>
     </g>
    </g>
    <g id="ytick_6">
     <g id="line2d_24">
      <g>
       <use style="fill:#555555;stroke:#555555;stroke-width:0.8;" x="62.5" xlink:href="#m13554cfe6f" y="101.976764"/>
      </g>
     </g>
     <g id="text_13">
      <!-- 1000 -->
      <g style="fill:#555555;" transform="translate(33.2625 105.547076)scale(0.1 -0.1)">
       <use xlink:href="#HelveticaNeue-49"/>
       <use x="55.599991" xlink:href="#HelveticaNeue-48"/>
       <use x="111.199982" xlink:href="#HelveticaNeue-48"/>
       <use x="166.799973" xlink:href="#HelveticaNeue-48"/>
      </g>
     </g>
    </g>
    <g id="ytick_7">
     <g id="line2d_25">
      <g>
       <use style="fill:#555555;stroke:#555555;stroke-width:0.8;" x="62.5" xlink:href="#m13554cfe6f" y="72.013026"/>
      </g>
     </g>
     <g id="text_14">
      <!-- 1200 -->
      <g style="fill:#555555;" transform="translate(33.2625 75.583338)scale(0.1 -0.1)">
       <use xlink:href="#HelveticaNeue-49"/>
       <use x="55.599991" xlink:href="#HelveticaNeue-50"/>
       <use x="111.199982" xlink:href="#HelveticaNeue-48"/>
       <use x="166.799973" xlink:href="#HelveticaNeue-48"/>
      </g>
     </g>
    </g>
    <g id="ytick_8">
     <g id="line2d_26">
      <g>
       <use style="fill:#555555;stroke:#555555;stroke-width:0.8;" x="62.5" xlink:href="#m13554cfe6f" y="42.049287"/>
      </g>
     </g>
     <g id="text_15">
      <!-- 1400 -->
      <g style="fill:#555555;" transform="translate(33.2625 45.6196)scale(0.1 -0.1)">
       <use xlink:href="#HelveticaNeue-49"/>
       <use x="55.599991" xlink:href="#HelveticaNeue-52"/>
       <use x="111.199982" xlink:href="#HelveticaNeue-48"/>
       <use x="166.799973" xlink:href="#HelveticaNeue-48"/>
      </g>
     </g>
    </g>
   </g>
   <g id="line2d_27">
    <path clip-path="url(#pe751ae851a)" d="M 63.303942 251.795455 
L 64.107884 251.495817 
L 64.911826 251.645636 
L 65.715768 250.297268 
L 66.51971 251.495817 
L 67.323651 250.147449 
L 68.127593 250.746724 
L 68.931535 250.746724 
L 69.735477 250.596905 
L 70.539419 250.746724 
L 71.343361 251.495817 
L 72.147303 251.345998 
L 73.755187 249.548174 
L 75.363071 251.645636 
L 76.167012 248.948899 
L 76.970954 249.398355 
L 77.774896 250.746724 
L 78.578838 250.746724 
L 79.38278 251.495817 
L 80.186722 251.495817 
L 80.990664 251.046361 
L 81.794606 250.147449 
L 83.40249 251.645636 
L 84.206432 250.746724 
L 85.010373 250.147449 
L 85.814315 250.896542 
L 86.618257 249.697993 
L 87.422199 249.697993 
L 88.226141 251.645636 
L 89.834025 250.147449 
L 90.637967 249.99763 
L 91.441909 251.046361 
L 92.245851 250.447086 
L 93.049793 249.398355 
L 94.657676 250.746724 
L 95.461618 250.447086 
L 96.26556 250.746724 
L 97.069502 250.896542 
L 97.873444 251.495817 
L 98.677386 249.098718 
L 99.481328 251.19618 
L 100.28527 250.896542 
L 101.089212 249.847812 
L 101.893154 250.746724 
L 102.697095 250.447086 
L 103.501037 249.398355 
L 104.304979 249.697993 
L 105.108921 249.248537 
L 105.912863 250.896542 
L 106.716805 249.847812 
L 107.520747 249.697993 
L 108.324689 250.746724 
L 109.128631 250.596905 
L 109.932573 251.345998 
L 110.736515 247.900169 
L 111.540456 249.99763 
L 112.344398 250.447086 
L 113.14834 248.499443 
L 114.756224 251.046361 
L 115.560166 249.398355 
L 116.364108 250.447086 
L 117.16805 246.851438 
L 117.971992 245.802707 
L 118.775934 247.001256 
L 119.579876 248.799081 
L 120.383817 247.151075 
L 121.187759 248.948899 
L 122.795643 244.604157 
L 123.599585 248.349625 
L 124.403527 247.600531 
L 125.207469 248.049987 
L 126.011411 247.001256 
L 126.815353 248.049987 
L 127.619295 245.50307 
L 128.423237 245.652888 
L 129.227178 247.900169 
L 130.03112 246.851438 
L 130.835062 247.75035 
L 131.639004 248.049987 
L 132.442946 246.701619 
L 133.246888 247.450713 
L 134.05083 245.053613 
L 134.854772 240.708871 
L 135.658714 242.956152 
L 136.462656 236.663767 
L 137.266598 243.10597 
L 138.070539 243.405608 
L 138.874481 243.255789 
L 139.678423 229.921926 
L 140.482365 241.757602 
L 141.286307 238.61141 
L 142.090249 237.862316 
L 142.894191 236.364129 
L 143.698133 242.356877 
L 144.502075 230.671019 
L 145.306017 232.169206 
L 146.109959 221.981535 
L 146.9139 239.360503 
L 147.717842 230.970657 
L 148.521784 236.513948 
L 149.325726 234.865942 
L 150.129668 222.281172 
L 150.93361 229.47247 
L 151.737552 224.528453 
L 152.541494 223.929178 
L 153.345436 227.974283 
L 154.149378 236.963404 
L 154.95332 222.880447 
L 155.757261 229.172832 
L 156.561203 215.838969 
L 157.365145 210.445496 
L 158.169087 224.528453 
L 158.973029 219.734255 
L 159.776971 221.082623 
L 160.580913 228.423739 
L 161.384855 202.205468 
L 162.188797 195.913083 
L 162.992739 221.232442 
L 163.79668 196.512358 
L 165.404564 229.47247 
L 166.208506 188.871604 
L 167.012448 189.021423 
L 167.81639 208.198216 
L 168.620332 210.445496 
L 169.424274 201.756012 
L 170.228216 188.721786 
L 171.032158 199.808369 
L 171.8361 202.055649 
L 172.640041 153.514393 
L 173.443983 197.860726 
L 174.247925 187.223599 
L 175.855809 173.290461 
L 176.659751 197.41127 
L 177.463693 175.837378 
L 178.267635 161.604603 
L 179.071577 166.398801 
L 179.875519 156.360949 
L 180.679461 176.73629 
L 181.483402 166.099163 
L 182.287344 165.649707 
L 183.091286 160.555872 
L 183.895228 143.176904 
L 184.69917 204.902204 
L 185.503112 183.927588 
L 186.307054 168.646081 
L 187.110996 190.819247 
L 187.914938 179.582846 
L 188.71888 174.039554 
L 189.522822 186.025049 
L 190.326763 178.384296 
L 191.130705 206.999666 
L 191.934647 202.205468 
L 192.738589 217.037518 
L 193.542531 211.494227 
L 194.346473 175.088285 
L 195.150415 211.943683 
L 195.954357 225.577184 
L 196.758299 213.891326 
L 197.562241 215.089875 
L 198.366183 229.921926 
L 199.170124 233.068118 
L 199.974066 211.344408 
L 200.778008 217.93643 
L 201.58195 228.573557 
L 202.385892 212.992414 
L 203.189834 209.546584 
L 203.993776 227.674645 
L 204.797718 241.457965 
L 205.60166 224.228815 
L 206.405602 220.183711 
L 207.209544 227.225189 
L 208.013485 220.633167 
L 208.817427 227.375008 
L 209.621369 227.974283 
L 210.425311 230.5212 
L 211.229253 223.329903 
L 212.033195 222.880447 
L 212.837137 219.584436 
L 213.641079 227.524827 
L 214.445021 224.678272 
L 215.248963 221.38226 
L 216.052905 233.817212 
L 216.856846 227.824464 
L 217.660788 228.873195 
L 218.46473 237.263042 
L 219.268672 226.02664 
L 220.072614 220.033892 
L 220.876556 212.842595 
L 221.680498 224.977909 
L 222.48444 230.671019 
L 223.288382 228.124101 
L 224.092324 216.288425 
L 224.896266 219.13498 
L 226.504149 227.075371 
L 227.308091 233.96703 
L 228.112033 239.510322 
L 229.719917 230.221563 
L 230.523859 211.644045 
L 231.327801 222.430991 
L 232.131743 222.58081 
L 232.935685 228.723376 
L 233.739627 226.326277 
L 234.543568 214.640419 
L 235.34751 224.82809 
L 236.151452 220.782986 
L 236.955394 219.284799 
L 238.563278 233.817212 
L 239.36722 221.38226 
L 240.171162 213.292051 
L 240.975104 216.737881 
L 241.779046 215.239694 
L 242.582988 223.629541 
L 243.386929 219.584436 
L 244.190871 224.678272 
L 244.994813 213.741507 
L 245.798755 218.985161 
L 246.602697 216.737881 
L 247.406639 221.38226 
L 248.210581 226.925552 
L 249.014523 222.880447 
L 249.818465 220.932804 
L 250.622407 224.82809 
L 251.426349 219.584436 
L 252.23029 223.030266 
L 253.034232 217.636793 
L 253.838174 225.876821 
L 254.642116 225.876821 
L 255.446058 233.517574 
L 256.25 218.086249 
L 257.053942 212.842595 
L 257.857884 228.27392 
L 258.661826 217.786612 
L 259.465768 219.584436 
L 260.26971 222.58081 
L 261.073651 230.371382 
L 261.877593 214.940057 
L 262.681535 214.190963 
L 263.485477 205.950935 
L 264.289419 211.044771 
L 265.093361 211.194589 
L 265.897303 222.281172 
L 266.701245 222.430991 
L 267.505187 219.284799 
L 268.309129 208.647672 
L 269.113071 206.400391 
L 269.917012 219.434617 
L 270.720954 197.860726 
L 271.524896 212.992414 
L 272.328838 220.183711 
L 273.13278 207.299303 
L 274.740664 216.588062 
L 276.348548 200.407644 
L 277.15249 202.205468 
L 277.956432 211.044771 
L 278.760373 189.620698 
L 279.564315 192.916709 
L 280.368257 172.24173 
L 281.172199 200.257825 
L 281.976141 183.028675 
L 282.780083 185.425775 
L 283.584025 209.246946 
L 284.387967 181.530489 
L 285.191909 173.140642 
L 285.995851 179.732664 
L 286.799793 177.93484 
L 287.603734 207.598941 
L 290.819502 159.806778 
L 291.623444 151.267113 
L 293.231328 226.775733 
L 294.839212 152.315844 
L 295.643154 181.230851 
L 296.447095 139.880893 
L 297.251037 155.462036 
L 298.054979 143.62636 
L 298.858921 155.162399 
L 300.466805 186.025049 
L 301.270747 211.793864 
L 302.074689 131.640865 
L 302.878631 112.613891 
L 303.682573 150.817657 
L 304.486515 153.814031 
L 305.290456 141.528898 
L 306.094398 174.788647 
L 306.89834 158.45841 
L 307.702282 158.907866 
L 308.506224 165.649707 
L 309.310166 176.436653 
L 310.114108 183.028675 
L 310.91805 179.882483 
L 311.721992 209.696402 
L 312.525934 156.21113 
L 313.329876 174.638829 
L 314.133817 198.160363 
L 314.937759 205.950935 
L 315.741701 203.853474 
L 316.545643 220.333529 
L 317.349585 210.445496 
L 318.153527 216.138606 
L 318.957469 217.93643 
L 319.761411 218.835343 
L 320.565353 216.737881 
L 321.369295 221.681898 
L 322.173237 223.779359 
L 322.977178 227.674645 
L 323.78112 227.824464 
L 324.585062 227.225189 
L 325.389004 230.371382 
L 326.192946 223.329903 
L 326.996888 231.869569 
L 327.80083 227.225189 
L 328.604772 231.869569 
L 329.408714 235.764855 
L 330.212656 226.476096 
L 331.016598 233.517574 
L 331.820539 235.764855 
L 332.624481 239.959778 
L 333.428423 238.311772 
L 334.232365 240.109597 
L 335.036307 235.465217 
L 335.840249 238.61141 
L 336.644191 233.217937 
L 337.448133 238.311772 
L 338.252075 238.311772 
L 339.056017 239.060866 
L 339.859959 241.158328 
L 340.6639 233.517574 
L 341.467842 240.409234 
L 342.271784 240.708871 
L 343.075726 242.506696 
L 343.879668 242.207058 
L 344.68361 240.259415 
L 345.487552 244.30452 
L 346.291494 244.903795 
L 347.095436 240.559053 
L 347.899378 235.015761 
L 348.70332 236.663767 
L 349.507261 243.255789 
L 350.311203 245.802707 
L 351.115145 244.004883 
L 351.919087 245.50307 
L 352.723029 236.963404 
L 353.526971 239.959778 
L 354.330913 239.060866 
L 355.134855 236.963404 
L 355.938797 241.607784 
L 356.742739 238.911047 
L 357.54668 243.555427 
L 358.350622 237.41286 
L 359.154564 236.813585 
L 359.958506 228.573557 
L 360.762448 227.075371 
L 361.56639 230.671019 
L 362.370332 239.360503 
L 363.978216 221.38226 
L 364.782158 221.082623 
L 365.5861 231.71975 
L 366.390041 226.326277 
L 367.193983 219.13498 
L 367.997925 231.270294 
L 368.801867 223.030266 
L 369.605809 211.494227 
L 370.409751 211.644045 
L 371.213693 202.355287 
L 372.017635 200.108006 
L 372.821577 201.905831 
L 373.625519 211.644045 
L 374.429461 181.830126 
L 375.233402 188.122511 
L 376.037344 171.942092 
L 376.841286 192.76689 
L 377.645228 172.391548 
L 378.44917 191.71816 
L 379.253112 189.620698 
L 380.057054 172.24173 
L 380.860996 167.447532 
L 381.664938 181.38067 
L 382.46888 159.207504 
L 383.272822 173.140642 
L 384.076763 189.021423 
L 384.880705 190.219973 
L 385.684647 177.335565 
L 386.488589 158.45841 
L 387.292531 179.732664 
L 388.096473 162.353696 
L 388.900415 153.514393 
L 389.704357 184.526862 
L 390.508299 193.815621 
L 391.312241 176.286834 
L 392.116183 145.124547 
L 392.920124 171.792274 
L 393.724066 166.998076 
L 394.528008 155.611855 
L 395.33195 162.503515 
L 396.135892 186.324687 
L 396.939834 166.248982 
L 397.743776 151.267113 
L 398.547718 167.59735 
L 399.35166 164.15152 
L 400.155602 170.443905 
L 400.959544 182.579219 
L 401.763485 182.729038 
L 402.567427 184.8265 
L 403.371369 153.814031 
L 404.175311 158.758048 
L 404.979253 150.218382 
L 405.783195 146.023459 
L 406.587137 164.001702 
L 407.391079 164.900614 
L 408.195021 94.635648 
L 408.998963 120.254644 
L 409.802905 113.362984 
L 410.606846 121.603012 
L 411.410788 135.086694 
L 412.21473 127.445941 
L 413.018672 105.572412 
L 413.822614 92.987642 
L 414.626556 104.823319 
L 415.430498 37.704545 
L 416.23444 59.278437 
L 417.038382 76.657405 
L 417.842324 106.171687 
L 418.646266 99.729483 
L 419.450207 107.669874 
L 420.254149 88.193444 
L 421.058091 112.464072 
L 421.862033 129.543403 
L 422.665975 117.25827 
L 423.469917 150.51802 
L 424.273859 161.155147 
L 425.077801 131.940502 
L 425.881743 116.359358 
L 426.685685 115.160809 
L 427.489627 89.541812 
L 428.293568 120.104825 
L 429.09751 141.828536 
L 429.901452 139.281618 
L 430.705394 101.826945 
L 431.509336 125.048842 
L 432.313278 97.332384 
L 433.11722 99.729483 
L 433.921162 123.101199 
L 434.725104 128.644491 
L 435.529046 138.682343 
L 436.332988 115.909902 
L 437.136929 79.653779 
L 437.940871 106.021868 
L 438.744813 108.718605 
L 439.548755 149.169651 
L 440.352697 130.592134 
L 441.156639 153.364575 
L 441.960581 150.667838 
L 442.764523 114.861171 
L 443.568465 166.398801 
L 444.372407 177.035928 
L 445.176349 185.275956 
L 445.98029 168.496262 
L 446.784232 184.526862 
L 447.588174 193.066528 
L 448.392116 145.424184 
L 450 242.356877 
L 450 242.356877 
" style="fill:none;stroke:#000000;stroke-dasharray:1.5,2.475;stroke-dashoffset:0;stroke-opacity:0.5;stroke-width:1.5;"/>
   </g>
   <g id="line2d_28">
    <path clip-path="url(#pe751ae851a)" d="M 62.5 251.645636 
L 63.303942 251.345998 
L 64.107884 251.345998 
L 67.323651 250.746724 
L 68.931535 250.746724 
L 69.735477 250.896542 
L 70.539419 250.896542 
L 71.343361 250.746724 
L 72.951245 250.746724 
L 73.755187 250.596905 
L 74.559129 250.297268 
L 75.363071 250.147449 
L 76.167012 250.147449 
L 76.970954 250.447086 
L 77.774896 250.596905 
L 78.578838 250.596905 
L 79.38278 250.896542 
L 80.186722 251.046361 
L 81.794606 251.046361 
L 84.206432 250.596905 
L 85.814315 250.596905 
L 86.618257 250.447086 
L 89.030083 250.447086 
L 89.834025 250.596905 
L 91.441909 250.297268 
L 93.853734 250.297268 
L 95.461618 250.596905 
L 97.069502 250.596905 
L 97.873444 250.746724 
L 98.677386 250.596905 
L 99.481328 250.596905 
L 101.089212 250.297268 
L 101.893154 250.297268 
L 102.697095 249.99763 
L 104.304979 249.99763 
L 105.108921 249.847812 
L 107.520747 250.297268 
L 108.324689 250.147449 
L 109.932573 250.147449 
L 110.736515 249.847812 
L 111.540456 249.697993 
L 113.14834 249.697993 
L 113.952282 249.99763 
L 114.756224 249.697993 
L 115.560166 249.098718 
L 116.364108 248.649262 
L 117.16805 248.349625 
L 117.971992 247.75035 
L 120.383817 247.300894 
L 121.187759 247.450713 
L 121.991701 247.300894 
L 124.403527 247.300894 
L 125.207469 247.151075 
L 126.011411 247.151075 
L 127.619295 246.851438 
L 128.423237 246.851438 
L 129.227178 247.001256 
L 130.03112 247.001256 
L 130.835062 247.300894 
L 131.639004 247.151075 
L 133.246888 245.652888 
L 134.05083 244.154701 
L 134.854772 243.10597 
L 135.658714 242.356877 
L 136.462656 241.907421 
L 137.266598 240.409234 
L 138.070539 240.259415 
L 138.874481 239.660141 
L 139.678423 239.510322 
L 140.482365 238.61141 
L 141.286307 238.311772 
L 142.090249 237.263042 
L 142.894191 237.263042 
L 143.698133 234.865942 
L 144.502075 234.116849 
L 145.306017 232.9183 
L 146.109959 232.768481 
L 146.9139 232.319025 
L 147.717842 231.71975 
L 149.325726 231.120475 
L 150.129668 229.023014 
L 150.93361 227.974283 
L 151.737552 227.824464 
L 152.541494 227.075371 
L 153.345436 227.824464 
L 154.149378 226.625914 
L 154.95332 224.82809 
L 155.757261 223.779359 
L 157.365145 220.033892 
L 158.169087 220.633167 
L 159.776971 216.138606 
L 160.580913 215.838969 
L 161.384855 212.093501 
L 162.188797 210.295677 
L 162.992739 210.745133 
L 163.79668 207.748759 
L 164.600622 206.400391 
L 165.404564 206.55021 
L 166.208506 204.902204 
L 167.012448 204.752386 
L 168.620332 199.209094 
L 169.424274 200.407644 
L 170.228216 195.913083 
L 171.032158 193.066528 
L 171.8361 189.620698 
L 172.640041 186.774143 
L 173.443983 184.526862 
L 174.247925 183.777769 
L 175.051867 181.830126 
L 175.855809 182.129763 
L 177.463693 173.739917 
L 179.071577 169.994449 
L 179.875519 166.54862 
L 180.679461 165.200251 
L 181.483402 163.252608 
L 183.091286 169.694812 
L 183.895228 170.294087 
L 184.69917 174.189373 
L 185.503112 177.185747 
L 186.307054 179.283208 
L 187.110996 182.878857 
L 187.914938 180.18212 
L 188.71888 182.878857 
L 190.326763 191.418522 
L 191.130705 196.961814 
L 191.934647 198.759638 
L 192.738589 201.756012 
L 193.542531 206.100754 
L 194.346473 207.149485 
L 195.150415 209.246946 
L 195.954357 211.793864 
L 197.562241 220.633167 
L 198.366183 221.38226 
L 199.170124 221.831716 
L 199.974066 221.681898 
L 200.778008 220.483348 
L 201.58195 219.584436 
L 202.385892 220.633167 
L 203.189834 222.730629 
L 203.993776 223.779359 
L 204.797718 224.378634 
L 206.405602 226.625914 
L 207.209544 226.176458 
L 208.013485 225.277546 
L 208.817427 225.577184 
L 209.621369 226.02664 
L 210.425311 225.127728 
L 211.229253 225.427365 
L 212.033195 224.82809 
L 212.837137 224.078997 
L 213.641079 224.378634 
L 215.248963 226.326277 
L 216.052905 228.423739 
L 216.856846 228.873195 
L 217.660788 228.723376 
L 218.46473 227.375008 
L 219.268672 225.577184 
L 220.072614 224.977909 
L 220.876556 224.678272 
L 221.680498 222.880447 
L 222.48444 222.430991 
L 223.288382 222.730629 
L 224.092324 223.779359 
L 224.896266 224.528453 
L 225.700207 226.02664 
L 226.504149 227.824464 
L 227.308091 230.371382 
L 228.112033 230.071744 
L 228.915975 229.322651 
L 232.131743 222.58081 
L 232.935685 222.281172 
L 233.739627 223.030266 
L 234.543568 222.430991 
L 235.34751 222.58081 
L 236.151452 223.180085 
L 237.759336 223.479722 
L 239.36722 221.38226 
L 240.171162 220.932804 
L 240.975104 219.584436 
L 241.779046 218.835343 
L 242.582988 218.535705 
L 243.386929 219.284799 
L 244.190871 219.284799 
L 244.994813 219.584436 
L 245.798755 219.734255 
L 246.602697 220.333529 
L 247.406639 220.483348 
L 248.210581 221.981535 
L 249.014523 222.281172 
L 249.818465 222.880447 
L 250.622407 222.281172 
L 251.426349 221.981535 
L 252.23029 222.281172 
L 253.034232 223.779359 
L 253.838174 223.629541 
L 254.642116 223.180085 
L 255.446058 223.479722 
L 256.25 223.030266 
L 257.053942 221.981535 
L 257.857884 221.232442 
L 259.465768 221.232442 
L 260.26971 221.38226 
L 261.073651 218.835343 
L 261.877593 217.337156 
L 262.681535 215.389513 
L 263.485477 214.490601 
L 264.289419 213.891326 
L 265.093361 215.089875 
L 266.701245 215.389513 
L 267.505187 215.838969 
L 269.113071 211.943683 
L 269.917012 211.344408 
L 270.720954 210.445496 
L 271.524896 210.894952 
L 272.328838 212.093501 
L 273.13278 211.344408 
L 273.936722 211.344408 
L 275.544606 208.198216 
L 276.348548 205.801116 
L 277.15249 202.954561 
L 277.956432 197.561088 
L 278.760373 195.313808 
L 280.368257 189.770517 
L 281.172199 189.470879 
L 281.976141 189.321061 
L 282.780083 187.822874 
L 283.584025 187.822874 
L 284.387967 184.8265 
L 285.191909 186.324687 
L 285.995851 187.373418 
L 286.799793 186.025049 
L 287.603734 186.025049 
L 288.407676 184.526862 
L 289.211618 179.882483 
L 290.01556 177.785021 
L 291.623444 179.582846 
L 292.427386 178.833752 
L 293.231328 180.781395 
L 294.839212 175.68756 
L 295.643154 167.747169 
L 296.447095 158.308592 
L 297.251037 155.611855 
L 298.054979 159.207504 
L 298.858921 164.451158 
L 299.662863 166.698438 
L 300.466805 163.402427 
L 301.270747 161.90424 
L 302.074689 158.45841 
L 302.878631 152.615481 
L 303.682573 150.068564 
L 304.486515 146.622734 
L 305.290456 151.56675 
L 306.094398 157.859135 
L 306.89834 161.304965 
L 307.702282 165.35007 
L 309.310166 175.387922 
L 310.91805 179.433027 
L 313.329876 188.422148 
L 314.133817 194.115259 
L 314.937759 197.111632 
L 315.741701 205.201842 
L 316.545643 210.745133 
L 317.349585 213.591688 
L 318.153527 215.239694 
L 318.957469 217.187337 
L 319.761411 217.93643 
L 320.565353 220.183711 
L 322.977178 225.277546 
L 324.585062 227.524827 
L 326.192946 228.423739 
L 326.996888 229.322651 
L 327.80083 229.622288 
L 328.604772 230.221563 
L 329.408714 231.71975 
L 330.212656 232.768481 
L 331.820539 235.615036 
L 332.624481 236.214311 
L 333.428423 237.712498 
L 334.232365 237.562679 
L 335.036307 237.562679 
L 335.840249 237.263042 
L 339.056017 237.862316 
L 339.859959 238.761228 
L 340.6639 239.210685 
L 341.467842 239.809959 
L 342.271784 240.109597 
L 343.075726 240.85869 
L 343.879668 242.05724 
L 344.68361 242.356877 
L 345.487552 241.757602 
L 346.291494 240.85869 
L 347.095436 240.559053 
L 347.899378 240.85869 
L 348.70332 241.008509 
L 349.507261 241.457965 
L 350.311203 241.607784 
L 351.115145 242.207058 
L 351.919087 242.207058 
L 353.526971 240.259415 
L 354.330913 239.660141 
L 355.134855 239.510322 
L 355.938797 239.660141 
L 356.742739 239.510322 
L 357.54668 238.311772 
L 358.350622 236.663767 
L 359.154564 234.716124 
L 359.958506 233.96703 
L 361.56639 230.820838 
L 362.370332 229.023014 
L 363.174274 228.723376 
L 363.978216 228.27392 
L 364.782158 226.625914 
L 365.5861 225.577184 
L 366.390041 225.127728 
L 367.193983 224.078997 
L 367.997925 222.430991 
L 370.409751 211.044771 
L 371.213693 207.898578 
L 372.017635 203.254199 
L 372.821577 200.108006 
L 373.625519 195.014171 
L 374.429461 192.317434 
L 375.233402 188.122511 
L 376.841286 183.62795 
L 377.645228 183.028675 
L 378.44917 180.931214 
L 379.253112 181.081033 
L 380.057054 177.035928 
L 380.860996 175.68756 
L 381.664938 174.638829 
L 382.46888 175.238104 
L 383.272822 176.886109 
L 384.880705 176.586472 
L 385.684647 176.286834 
L 386.488589 172.841005 
L 387.292531 170.893362 
L 388.096473 171.342818 
L 388.900415 172.391548 
L 389.704357 171.942092 
L 390.508299 171.192999 
L 391.312241 171.192999 
L 392.116183 169.844631 
L 392.920124 166.248982 
L 393.724066 165.200251 
L 394.528008 165.200251 
L 395.33195 166.248982 
L 396.939834 165.35007 
L 397.743776 166.398801 
L 398.547718 168.046806 
L 399.35166 168.7959 
L 400.155602 172.24173 
L 400.959544 173.739917 
L 401.763485 172.691186 
L 402.567427 170.144268 
L 404.175311 161.454784 
L 404.979253 158.608229 
L 405.783195 149.469289 
L 406.587137 144.225635 
L 407.391079 137.184156 
L 408.195021 131.191408 
L 408.998963 127.59576 
L 410.606846 118.606638 
L 411.410788 118.307001 
L 412.21473 115.460446 
L 414.626556 84.897433 
L 415.430498 80.103235 
L 416.23444 79.50396 
L 417.038382 82.799971 
L 417.842324 84.597796 
L 418.646266 94.336011 
L 419.450207 102.576039 
L 420.254149 107.819693 
L 421.058091 113.962259 
L 421.862033 122.801562 
L 422.665975 128.794309 
L 423.469917 133.588508 
L 424.273859 133.888145 
L 425.077801 128.344853 
L 425.881743 125.34848 
L 426.685685 121.90265 
L 427.489627 119.805188 
L 428.293568 118.307001 
L 429.09751 120.254644 
L 429.901452 119.056095 
L 430.705394 118.606638 
L 431.509336 116.658995 
L 432.313278 114.411715 
L 433.11722 115.160809 
L 433.921162 118.157182 
L 434.725104 115.01099 
L 435.529046 115.160809 
L 436.332988 114.112078 
L 437.136929 115.01099 
L 437.940871 115.610265 
L 438.744813 119.505551 
L 439.548755 126.696848 
L 441.156639 139.731074 
L 441.960581 147.222008 
L 442.764523 152.615481 
L 445.176349 171.792274 
L 445.98029 175.837378 
L 446.784232 178.534115 
L 447.588174 185.275956 
L 448.392116 187.972692 
L 449.196058 193.216346 
L 450 197.561088 
L 450 197.561088 
" style="fill:none;stroke:#b3220f;stroke-linecap:square;stroke-width:1.5;"/>
   </g>
   <g id="patch_3">
    <path d="M 62.5 262.5 
L 62.5 27 
" style="fill:none;stroke:#555555;stroke-linecap:square;stroke-linejoin:miter;"/>
   </g>
   <g id="patch_4">
    <path d="M 62.5 262.5 
L 450 262.5 
" style="fill:none;stroke:#555555;stroke-linecap:square;stroke-linejoin:miter;"/>
   </g>
   <g id="text_16">
    <!-- Engativ | Casos nuevos: 2021-07-15 -->
    <g style="fill:#555555;" transform="translate(139.030625 17)scale(0.14 -0.14)">
     <defs>
      <path d="M 7.796875 71.40625 
L 7.796875 0 
L 57.40625 0 
L 57.40625 8 
L 17.296875 8 
L 17.296875 32.703125 
L 54.40625 32.703125 
L 54.40625 40.703125 
L 17.296875 40.703125 
L 17.296875 63.40625 
L 57.09375 63.40625 
L 57.09375 71.40625 
z
" id="HelveticaNeue-69"/>
      <path d="M 51 4.40625 
L 51 51.703125 
L 43 51.703125 
L 43 44.296875 
L 42.90625 44.296875 
Q 40.59375 48.59375 36.5 50.75 
Q 32.40625 52.90625 27.5 52.90625 
Q 20.796875 52.90625 16.1875 50.34375 
Q 11.59375 47.796875 8.796875 43.84375 
Q 6 39.90625 4.796875 35.046875 
Q 3.59375 30.203125 3.59375 25.59375 
Q 3.59375 20.296875 5.046875 15.546875 
Q 6.5 10.796875 9.390625 7.25 
Q 12.296875 3.703125 16.59375 1.59375 
Q 20.90625 -0.5 26.703125 -0.5 
Q 31.703125 -0.5 36.140625 1.75 
Q 40.59375 4 42.796875 8.796875 
L 43 8.796875 
L 43 5.40625 
Q 43 1.09375 42.140625 -2.5 
Q 41.296875 -6.09375 39.390625 -8.640625 
Q 37.5 -11.203125 34.59375 -12.640625 
Q 31.703125 -14.09375 27.5 -14.09375 
Q 25.40625 -14.09375 23.09375 -13.640625 
Q 20.796875 -13.203125 18.84375 -12.203125 
Q 16.90625 -11.203125 15.546875 -9.59375 
Q 14.203125 -8 14.09375 -5.703125 
L 5.59375 -5.703125 
Q 5.796875 -9.90625 7.796875 -12.796875 
Q 9.796875 -15.703125 12.84375 -17.5 
Q 15.90625 -19.296875 19.65625 -20.09375 
Q 23.40625 -20.90625 27 -20.90625 
Q 39.40625 -20.90625 45.203125 -14.59375 
Q 51 -8.296875 51 4.40625 
z
M 27.203125 6.90625 
Q 23 6.90625 20.203125 8.65625 
Q 17.40625 10.40625 15.703125 13.25 
Q 14 16.09375 13.296875 19.59375 
Q 12.59375 23.09375 12.59375 26.59375 
Q 12.59375 30.296875 13.4375 33.6875 
Q 14.296875 37.09375 16.140625 39.6875 
Q 18 42.296875 20.890625 43.84375 
Q 23.796875 45.40625 27.90625 45.40625 
Q 31.90625 45.40625 34.703125 43.796875 
Q 37.5 42.203125 39.25 39.546875 
Q 41 36.90625 41.796875 33.59375 
Q 42.59375 30.296875 42.59375 26.90625 
Q 42.59375 23.296875 41.75 19.6875 
Q 40.90625 16.09375 39.09375 13.25 
Q 37.296875 10.40625 34.34375 8.65625 
Q 31.40625 6.90625 27.203125 6.90625 
z
" id="HelveticaNeue-103"/>
      <path d="M 15.40625 61 
L 15.40625 71.40625 
L 6.90625 71.40625 
L 6.90625 61 
z
M 6.90625 51.703125 
L 6.90625 0 
L 15.40625 0 
L 15.40625 51.703125 
z
" id="HelveticaNeue-105"/>
      <path d="M 29.703125 0 
L 48.59375 51.703125 
L 39.703125 51.703125 
L 25.59375 8.59375 
L 25.40625 8.59375 
L 10.90625 51.703125 
L 1.40625 51.703125 
L 20.59375 0 
z
" id="HelveticaNeue-118"/>
      <path d="M 52.203125 0.203125 
Q 50 -1.09375 46.09375 -1.09375 
Q 42.796875 -1.09375 40.84375 0.75 
Q 38.90625 2.59375 38.90625 6.796875 
Q 35.40625 2.59375 30.75 0.75 
Q 26.09375 -1.09375 20.703125 -1.09375 
Q 17.203125 -1.09375 14.046875 -0.296875 
Q 10.90625 0.5 8.59375 2.203125 
Q 6.296875 3.90625 4.9375 6.65625 
Q 3.59375 9.40625 3.59375 13.296875 
Q 3.59375 17.703125 5.09375 20.5 
Q 6.59375 23.296875 9.046875 25.046875 
Q 11.5 26.796875 14.640625 27.6875 
Q 17.796875 28.59375 21.09375 29.203125 
Q 24.59375 29.90625 27.75 30.25 
Q 30.90625 30.59375 33.296875 31.25 
Q 35.703125 31.90625 37.09375 33.15625 
Q 38.5 34.40625 38.5 36.796875 
Q 38.5 39.59375 37.453125 41.296875 
Q 36.40625 43 34.75 43.890625 
Q 33.09375 44.796875 31.046875 45.09375 
Q 29 45.40625 27 45.40625 
Q 21.59375 45.40625 18 43.34375 
Q 14.40625 41.296875 14.09375 35.59375 
L 5.59375 35.59375 
Q 5.796875 40.40625 7.59375 43.703125 
Q 9.40625 47 12.40625 49.046875 
Q 15.40625 51.09375 19.25 52 
Q 23.09375 52.90625 27.5 52.90625 
Q 31 52.90625 34.453125 52.40625 
Q 37.90625 51.90625 40.703125 50.34375 
Q 43.5 48.796875 45.203125 46 
Q 46.90625 43.203125 46.90625 38.703125 
L 46.90625 12.09375 
Q 46.90625 9.09375 47.25 7.6875 
Q 47.59375 6.296875 49.59375 6.296875 
Q 50.703125 6.296875 52.203125 6.796875 
z
M 38.40625 26.703125 
Q 36.796875 25.5 34.1875 24.953125 
Q 31.59375 24.40625 28.75 24.046875 
Q 25.90625 23.703125 23 23.25 
Q 20.09375 22.796875 17.796875 21.796875 
Q 15.5 20.796875 14.046875 18.9375 
Q 12.59375 17.09375 12.59375 13.90625 
Q 12.59375 11.796875 13.4375 10.34375 
Q 14.296875 8.90625 15.640625 8 
Q 17 7.09375 18.796875 6.6875 
Q 20.59375 6.296875 22.59375 6.296875 
Q 26.796875 6.296875 29.796875 7.4375 
Q 32.796875 8.59375 34.6875 10.34375 
Q 36.59375 12.09375 37.5 14.140625 
Q 38.40625 16.203125 38.40625 18 
z
M 41.296875 77 
L 27.203125 60.796875 
L 20.796875 60.796875 
L 30.40625 77 
z
" id="HelveticaNeue-225"/>
      <path id="HelveticaNeue-32"/>
      <path d="M 7.703125 78.59375 
L 7.703125 -21.296875 
L 14.5 -21.296875 
L 14.5 78.59375 
z
" id="HelveticaNeue-124"/>
      <path d="M 58 49.90625 
L 67.5 49.90625 
Q 66.703125 55.59375 64.09375 59.9375 
Q 61.5 64.296875 57.59375 67.1875 
Q 53.703125 70.09375 48.703125 71.59375 
Q 43.703125 73.09375 38.09375 73.09375 
Q 29.90625 73.09375 23.546875 70.140625 
Q 17.203125 67.203125 12.953125 62.09375 
Q 8.703125 57 6.5 50.140625 
Q 4.296875 43.296875 4.296875 35.5 
Q 4.296875 27.703125 6.34375 20.890625 
Q 8.40625 14.09375 12.5 9.09375 
Q 16.59375 4.09375 22.796875 1.25 
Q 29 -1.59375 37.296875 -1.59375 
Q 51 -1.59375 58.890625 5.90625 
Q 66.796875 13.40625 68.203125 26.90625 
L 58.703125 26.90625 
Q 58.40625 22.5 56.90625 18.703125 
Q 55.40625 14.90625 52.75 12.15625 
Q 50.09375 9.40625 46.4375 7.84375 
Q 42.796875 6.296875 38.09375 6.296875 
Q 31.703125 6.296875 27.09375 8.6875 
Q 22.5 11.09375 19.546875 15.140625 
Q 16.59375 19.203125 15.1875 24.640625 
Q 13.796875 30.09375 13.796875 36.203125 
Q 13.796875 41.796875 15.1875 47 
Q 16.59375 52.203125 19.546875 56.25 
Q 22.5 60.296875 27.046875 62.6875 
Q 31.59375 65.09375 38 65.09375 
Q 45.5 65.09375 50.953125 61.296875 
Q 56.40625 57.5 58 49.90625 
z
" id="HelveticaNeue-67"/>
      <path d="M 11.59375 16.296875 
L 3.09375 16.296875 
Q 3.296875 11.5 5.09375 8.140625 
Q 6.90625 4.796875 9.90625 2.75 
Q 12.90625 0.703125 16.796875 -0.1875 
Q 20.703125 -1.09375 25 -1.09375 
Q 28.90625 -1.09375 32.84375 -0.34375 
Q 36.796875 0.40625 39.9375 2.296875 
Q 43.09375 4.203125 45.046875 7.296875 
Q 47 10.40625 47 15.09375 
Q 47 18.796875 45.546875 21.296875 
Q 44.09375 23.796875 41.75 25.4375 
Q 39.40625 27.09375 36.34375 28.09375 
Q 33.296875 29.09375 30.09375 29.796875 
Q 27.09375 30.5 24.09375 31.140625 
Q 21.09375 31.796875 18.6875 32.75 
Q 16.296875 33.703125 14.75 35.140625 
Q 13.203125 36.59375 13.203125 38.796875 
Q 13.203125 40.796875 14.203125 42.046875 
Q 15.203125 43.296875 16.796875 44.046875 
Q 18.40625 44.796875 20.34375 45.09375 
Q 22.296875 45.40625 24.203125 45.40625 
Q 26.296875 45.40625 28.34375 44.953125 
Q 30.40625 44.5 32.09375 43.5 
Q 33.796875 42.5 34.890625 40.84375 
Q 36 39.203125 36.203125 36.703125 
L 44.703125 36.703125 
Q 44.40625 41.40625 42.703125 44.546875 
Q 41 47.703125 38.140625 49.546875 
Q 35.296875 51.40625 31.59375 52.15625 
Q 27.90625 52.90625 23.5 52.90625 
Q 20.09375 52.90625 16.640625 52.046875 
Q 13.203125 51.203125 10.453125 49.453125 
Q 7.703125 47.703125 5.953125 44.890625 
Q 4.203125 42.09375 4.203125 38.203125 
Q 4.203125 33.203125 6.703125 30.390625 
Q 9.203125 27.59375 12.953125 26.046875 
Q 16.703125 24.5 21.09375 23.640625 
Q 25.5 22.796875 29.25 21.75 
Q 33 20.703125 35.5 19 
Q 38 17.296875 38 14 
Q 38 11.59375 36.796875 10.046875 
Q 35.59375 8.5 33.75 7.703125 
Q 31.90625 6.90625 29.703125 6.59375 
Q 27.5 6.296875 25.5 6.296875 
Q 22.90625 6.296875 20.453125 6.796875 
Q 18 7.296875 16.046875 8.4375 
Q 14.09375 9.59375 12.890625 11.546875 
Q 11.703125 13.5 11.59375 16.296875 
z
" id="HelveticaNeue-115"/>
      <path d="M 12.59375 25.796875 
Q 12.59375 30.5 13.84375 34.140625 
Q 15.09375 37.796875 17.296875 40.296875 
Q 19.5 42.796875 22.453125 44.09375 
Q 25.40625 45.40625 28.703125 45.40625 
Q 32 45.40625 34.953125 44.09375 
Q 37.90625 42.796875 40.09375 40.296875 
Q 42.296875 37.796875 43.546875 34.140625 
Q 44.796875 30.5 44.796875 25.796875 
Q 44.796875 21.09375 43.546875 17.4375 
Q 42.296875 13.796875 40.09375 11.34375 
Q 37.90625 8.90625 34.953125 7.59375 
Q 32 6.296875 28.703125 6.296875 
Q 25.40625 6.296875 22.453125 7.59375 
Q 19.5 8.90625 17.296875 11.34375 
Q 15.09375 13.796875 13.84375 17.4375 
Q 12.59375 21.09375 12.59375 25.796875 
z
M 3.59375 25.796875 
Q 3.59375 20.09375 5.1875 15.1875 
Q 6.796875 10.296875 10 6.640625 
Q 13.203125 3 17.890625 0.953125 
Q 22.59375 -1.09375 28.703125 -1.09375 
Q 34.90625 -1.09375 39.546875 0.953125 
Q 44.203125 3 47.390625 6.640625 
Q 50.59375 10.296875 52.1875 15.1875 
Q 53.796875 20.09375 53.796875 25.796875 
Q 53.796875 31.5 52.1875 36.453125 
Q 50.59375 41.40625 47.390625 45.046875 
Q 44.203125 48.703125 39.546875 50.796875 
Q 34.90625 52.90625 28.703125 52.90625 
Q 22.59375 52.90625 17.890625 50.796875 
Q 13.203125 48.703125 10 45.046875 
Q 6.796875 41.40625 5.1875 36.453125 
Q 3.59375 31.5 3.59375 25.796875 
z
" id="HelveticaNeue-111"/>
      <path d="M 19.40625 40.59375 
L 19.40625 51.703125 
L 8.296875 51.703125 
L 8.296875 40.59375 
z
M 8.296875 11.09375 
L 8.296875 0 
L 19.40625 0 
L 19.40625 11.09375 
z
" id="HelveticaNeue-58"/>
      <path d="M 5 31.796875 
L 5 23.796875 
L 33.90625 23.796875 
L 33.90625 31.796875 
z
" id="HelveticaNeue-45"/>
      <path d="M 50.90625 62.40625 
L 50.90625 69.703125 
L 5 69.703125 
L 5 61.703125 
L 42.203125 61.703125 
Q 36.59375 55.796875 31.75 48.796875 
Q 26.90625 41.796875 23.203125 33.9375 
Q 19.5 26.09375 17.140625 17.546875 
Q 14.796875 9 14.203125 0 
L 23.703125 0 
Q 24.203125 8.296875 26.5 17.09375 
Q 28.796875 25.90625 32.4375 34.203125 
Q 36.09375 42.5 40.796875 49.796875 
Q 45.5 57.09375 50.90625 62.40625 
z
" id="HelveticaNeue-55"/>
      <path d="M 47 62.203125 
L 47 69.703125 
L 12 69.703125 
L 5.40625 32.90625 
L 12.703125 32.5 
Q 15.203125 35.5 18.453125 37.34375 
Q 21.703125 39.203125 25.90625 39.203125 
Q 29.5 39.203125 32.453125 38 
Q 35.40625 36.796875 37.5 34.640625 
Q 39.59375 32.5 40.75 29.546875 
Q 41.90625 26.59375 41.90625 23.09375 
Q 41.90625 18.90625 40.703125 15.75 
Q 39.5 12.59375 37.453125 10.5 
Q 35.40625 8.40625 32.65625 7.34375 
Q 29.90625 6.296875 26.90625 6.296875 
Q 23.703125 6.296875 21.046875 7.25 
Q 18.40625 8.203125 16.453125 9.953125 
Q 14.5 11.703125 13.34375 14.046875 
Q 12.203125 16.40625 12 19.09375 
L 3.5 19.09375 
Q 3.59375 14.296875 5.390625 10.5 
Q 7.203125 6.703125 10.296875 4.140625 
Q 13.40625 1.59375 17.453125 0.25 
Q 21.5 -1.09375 26.09375 -1.09375 
Q 32.296875 -1.09375 36.9375 0.84375 
Q 41.59375 2.796875 44.6875 6.09375 
Q 47.796875 9.40625 49.34375 13.65625 
Q 50.90625 17.90625 50.90625 22.40625 
Q 50.90625 28.5 49.09375 33.046875 
Q 47.296875 37.59375 44.1875 40.640625 
Q 41.09375 43.703125 36.890625 45.203125 
Q 32.703125 46.703125 28 46.703125 
Q 24.40625 46.703125 20.75 45.453125 
Q 17.09375 44.203125 14.796875 41.59375 
L 14.59375 41.796875 
L 18.40625 62.203125 
z
" id="HelveticaNeue-53"/>
     </defs>
     <use xlink:href="#HelveticaNeue-69"/>
     <use x="61.099991" xlink:href="#HelveticaNeue-110"/>
     <use x="116.699982" xlink:href="#HelveticaNeue-103"/>
     <use x="174.099976" xlink:href="#HelveticaNeue-97"/>
     <use x="227.799973" xlink:href="#HelveticaNeue-116"/>
     <use x="259.299957" xlink:href="#HelveticaNeue-105"/>
     <use x="281.499954" xlink:href="#HelveticaNeue-118"/>
     <use x="331.499939" xlink:href="#HelveticaNeue-225"/>
     <use x="385.199936" xlink:href="#HelveticaNeue-32"/>
     <use x="412.999924" xlink:href="#HelveticaNeue-124"/>
     <use x="435.199921" xlink:href="#HelveticaNeue-32"/>
     <use x="462.999908" xlink:href="#HelveticaNeue-67"/>
     <use x="535.19989" xlink:href="#HelveticaNeue-97"/>
     <use x="588.899887" xlink:href="#HelveticaNeue-115"/>
     <use x="638.899872" xlink:href="#HelveticaNeue-111"/>
     <use x="696.299866" xlink:href="#HelveticaNeue-115"/>
     <use x="746.29985" xlink:href="#HelveticaNeue-32"/>
     <use x="774.099838" xlink:href="#HelveticaNeue-110"/>
     <use x="829.699829" xlink:href="#HelveticaNeue-117"/>
     <use x="885.29982" xlink:href="#HelveticaNeue-101"/>
     <use x="938.999817" xlink:href="#HelveticaNeue-118"/>
     <use x="988.999802" xlink:href="#HelveticaNeue-111"/>
     <use x="1046.399796" xlink:href="#HelveticaNeue-115"/>
     <use x="1096.39978" xlink:href="#HelveticaNeue-58"/>
     <use x="1124.199768" xlink:href="#HelveticaNeue-32"/>
     <use x="1151.999756" xlink:href="#HelveticaNeue-50"/>
     <use x="1207.599747" xlink:href="#HelveticaNeue-48"/>
     <use x="1263.199738" xlink:href="#HelveticaNeue-50"/>
     <use x="1318.799728" xlink:href="#HelveticaNeue-49"/>
     <use x="1374.399719" xlink:href="#HelveticaNeue-45"/>
     <use x="1413.299713" xlink:href="#HelveticaNeue-48"/>
     <use x="1468.899704" xlink:href="#HelveticaNeue-55"/>
     <use x="1524.499695" xlink:href="#HelveticaNeue-45"/>
     <use x="1563.399689" xlink:href="#HelveticaNeue-49"/>
     <use x="1618.99968" xlink:href="#HelveticaNeue-53"/>
    </g>
   </g>
   <g id="legend_1">
    <g id="line2d_29">
     <path d="M 71.5 39.640625 
L 91.5 39.640625 
" style="fill:none;stroke:#000000;stroke-dasharray:1.5,2.475;stroke-dashoffset:0;stroke-opacity:0.5;stroke-width:1.5;"/>
    </g>
    <g id="line2d_30"/>
    <g id="text_17">
     <!-- Actual -->
     <g style="fill:#555555;" transform="translate(99.5 43.140625)scale(0.1 -0.1)">
      <use xlink:href="#HelveticaNeue-65"/>
      <use x="64.799988" xlink:href="#HelveticaNeue-99"/>
      <use x="118.499985" xlink:href="#HelveticaNeue-116"/>
      <use x="149.999969" xlink:href="#HelveticaNeue-117"/>
      <use x="205.59996" xlink:href="#HelveticaNeue-97"/>
      <use x="259.299957" xlink:href="#HelveticaNeue-108"/>
     </g>
    </g>
    <g id="line2d_31">
     <path d="M 71.5 54.310937 
L 91.5 54.310937 
" style="fill:none;stroke:#b3220f;stroke-linecap:square;stroke-width:1.5;"/>
    </g>
    <g id="line2d_32"/>
    <g id="text_18">
     <!-- Promedio semanal (7 das)  -->
     <g style="fill:#555555;" transform="translate(99.5 57.810937)scale(0.1 -0.1)">
      <defs>
       <path d="M 17.296875 37.203125 
L 17.296875 63.40625 
L 35.90625 63.40625 
Q 44 63.40625 47.75 60.046875 
Q 51.5 56.703125 51.5 50.296875 
Q 51.5 43.90625 47.75 40.5 
Q 44 37.09375 35.90625 37.203125 
z
M 7.796875 71.40625 
L 7.796875 0 
L 17.296875 0 
L 17.296875 29.203125 
L 39.09375 29.203125 
Q 49.90625 29.09375 55.453125 34.6875 
Q 61 40.296875 61 50.296875 
Q 61 60.296875 55.453125 65.84375 
Q 49.90625 71.40625 39.09375 71.40625 
z
" id="HelveticaNeue-80"/>
       <path d="M 6.40625 51.703125 
L 6.40625 0 
L 14.90625 0 
L 14.90625 32.203125 
Q 14.90625 33.703125 15.65625 35.953125 
Q 16.40625 38.203125 18.046875 40.296875 
Q 19.703125 42.40625 22.34375 43.90625 
Q 25 45.40625 28.703125 45.40625 
Q 31.59375 45.40625 33.4375 44.546875 
Q 35.296875 43.703125 36.390625 42.140625 
Q 37.5 40.59375 37.953125 38.5 
Q 38.40625 36.40625 38.40625 33.90625 
L 38.40625 0 
L 46.90625 0 
L 46.90625 32.203125 
Q 46.90625 38.203125 50.5 41.796875 
Q 54.09375 45.40625 60.40625 45.40625 
Q 63.5 45.40625 65.453125 44.5 
Q 67.40625 43.59375 68.5 42.046875 
Q 69.59375 40.5 70 38.390625 
Q 70.40625 36.296875 70.40625 33.90625 
L 70.40625 0 
L 78.90625 0 
L 78.90625 37.90625 
Q 78.90625 41.90625 77.65625 44.75 
Q 76.40625 47.59375 74.15625 49.390625 
Q 71.90625 51.203125 68.75 52.046875 
Q 65.59375 52.90625 61.703125 52.90625 
Q 56.59375 52.90625 52.34375 50.59375 
Q 48.09375 48.296875 45.5 44.09375 
Q 43.90625 48.90625 40 50.90625 
Q 36.09375 52.90625 31.296875 52.90625 
Q 20.40625 52.90625 14.59375 44.09375 
L 14.40625 44.09375 
L 14.40625 51.703125 
z
" id="HelveticaNeue-109"/>
       <path d="M 12.59375 25.40625 
Q 12.59375 29.203125 13.390625 32.796875 
Q 14.203125 36.40625 16 39.203125 
Q 17.796875 42 20.796875 43.703125 
Q 23.796875 45.40625 28.09375 45.40625 
Q 32.5 45.40625 35.59375 43.75 
Q 38.703125 42.09375 40.640625 39.390625 
Q 42.59375 36.703125 43.5 33.140625 
Q 44.40625 29.59375 44.40625 25.796875 
Q 44.40625 22.203125 43.546875 18.703125 
Q 42.703125 15.203125 40.796875 12.453125 
Q 38.90625 9.703125 35.90625 8 
Q 32.90625 6.296875 28.59375 6.296875 
Q 24.5 6.296875 21.453125 7.890625 
Q 18.40625 9.5 16.453125 12.203125 
Q 14.5 14.90625 13.546875 18.34375 
Q 12.59375 21.796875 12.59375 25.40625 
z
M 52.59375 0 
L 52.59375 71.40625 
L 44.09375 71.40625 
L 44.09375 44.796875 
L 43.90625 44.796875 
Q 42.5 47.09375 40.453125 48.640625 
Q 38.40625 50.203125 36.09375 51.140625 
Q 33.796875 52.09375 31.5 52.5 
Q 29.203125 52.90625 27.203125 52.90625 
Q 21.296875 52.90625 16.84375 50.75 
Q 12.40625 48.59375 9.453125 44.9375 
Q 6.5 41.296875 5.046875 36.390625 
Q 3.59375 31.5 3.59375 26 
Q 3.59375 20.5 5.09375 15.59375 
Q 6.59375 10.703125 9.546875 7 
Q 12.5 3.296875 16.953125 1.09375 
Q 21.40625 -1.09375 27.40625 -1.09375 
Q 32.796875 -1.09375 37.296875 0.796875 
Q 41.796875 2.703125 43.90625 7 
L 44.09375 7 
L 44.09375 0 
z
" id="HelveticaNeue-100"/>
       <path d="M 20.40625 -19.703125 
L 26.90625 -19.703125 
Q 19.796875 -8.203125 16.75 3.09375 
Q 13.703125 14.40625 13.703125 27 
Q 13.703125 39.296875 16.703125 50.5 
Q 19.703125 61.703125 26.90625 73.09375 
L 20.40625 73.09375 
Q 12.59375 62.796875 8.640625 50.796875 
Q 4.703125 38.796875 4.703125 27 
Q 4.703125 20.40625 5.796875 14.40625 
Q 6.90625 8.40625 8.953125 2.703125 
Q 11 -3 13.890625 -8.546875 
Q 16.796875 -14.09375 20.40625 -19.703125 
z
" id="HelveticaNeue-40"/>
       <path d="M 6.90625 0 
L 15.40625 0 
L 15.40625 51.703125 
L 6.90625 51.703125 
z
M 25.5 77 
L 11.40625 60.796875 
L 5 60.796875 
L 14.59375 77 
z
" id="HelveticaNeue-237"/>
       <path d="M -0.90625 -19.703125 
L 5.5 -19.703125 
Q 13.296875 -9.40625 17.25 2.546875 
Q 21.203125 14.5 21.203125 26.296875 
Q 21.203125 32.90625 20.09375 38.90625 
Q 19 44.90625 16.953125 50.65625 
Q 14.90625 56.40625 12 61.953125 
Q 9.09375 67.5 5.5 73.09375 
L -0.90625 73.09375 
Q 6.09375 61.59375 9.140625 50.25 
Q 12.203125 38.90625 12.203125 26.296875 
Q 12.203125 14.09375 9.203125 2.84375 
Q 6.203125 -8.40625 -0.90625 -19.703125 
z
" id="HelveticaNeue-41"/>
      </defs>
      <use xlink:href="#HelveticaNeue-80"/>
      <use x="64.799988" xlink:href="#HelveticaNeue-114"/>
      <use x="96.349976" xlink:href="#HelveticaNeue-111"/>
      <use x="153.749969" xlink:href="#HelveticaNeue-109"/>
      <use x="239.049957" xlink:href="#HelveticaNeue-101"/>
      <use x="292.749954" xlink:href="#HelveticaNeue-100"/>
      <use x="352.049942" xlink:href="#HelveticaNeue-105"/>
      <use x="374.249939" xlink:href="#HelveticaNeue-111"/>
      <use x="431.649933" xlink:href="#HelveticaNeue-32"/>
      <use x="459.449921" xlink:href="#HelveticaNeue-115"/>
      <use x="509.449905" xlink:href="#HelveticaNeue-101"/>
      <use x="563.149902" xlink:href="#HelveticaNeue-109"/>
      <use x="648.44989" xlink:href="#HelveticaNeue-97"/>
      <use x="702.149887" xlink:href="#HelveticaNeue-110"/>
      <use x="757.749878" xlink:href="#HelveticaNeue-97"/>
      <use x="811.449875" xlink:href="#HelveticaNeue-108"/>
      <use x="833.649872" xlink:href="#HelveticaNeue-32"/>
      <use x="861.44986" xlink:href="#HelveticaNeue-40"/>
      <use x="887.349854" xlink:href="#HelveticaNeue-55"/>
      <use x="942.949844" xlink:href="#HelveticaNeue-32"/>
      <use x="970.749832" xlink:href="#HelveticaNeue-100"/>
      <use x="1030.04982" xlink:href="#HelveticaNeue-237"/>
      <use x="1052.249817" xlink:href="#HelveticaNeue-97"/>
      <use x="1105.949814" xlink:href="#HelveticaNeue-115"/>
      <use x="1155.949799" xlink:href="#HelveticaNeue-41"/>
      <use x="1181.849792" xlink:href="#HelveticaNeue-32"/>
     </g>
    </g>
   </g>
  </g>
 </g>
 <defs>
  <clipPath id="pe751ae851a">
   <rect height="235.5" width="387.5" x="62.5" y="27"/>
  </clipPath>
 </defs>
</svg>
