<?xml version="1.0" encoding="utf-8" standalone="no"?>
<!DOCTYPE svg PUBLIC "-//W3C//DTD SVG 1.1//EN"
  "http://www.w3.org/Graphics/SVG/1.1/DTD/svg11.dtd">
<!-- Created with matplotlib (https://matplotlib.org/) -->
<svg height="300pt" version="1.1" viewBox="0 0 500 300" width="500pt" xmlns="http://www.w3.org/2000/svg" xmlns:xlink="http://www.w3.org/1999/xlink">
 <metadata>
  <rdf:RDF xmlns:cc="http://creativecommons.org/ns#" xmlns:dc="http://purl.org/dc/elements/1.1/" xmlns:rdf="http://www.w3.org/1999/02/22-rdf-syntax-ns#">
   <cc:Work>
    <dc:type rdf:resource="http://purl.org/dc/dcmitype/StillImage"/>
    <dc:date>2021-06-05T20:48:13.473117</dc:date>
    <dc:format>image/svg+xml</dc:format>
    <dc:creator>
     <cc:Agent>
      <dc:title>Matplotlib v3.3.4, https://matplotlib.org/</dc:title>
     </cc:Agent>
    </dc:creator>
   </cc:Work>
  </rdf:RDF>
 </metadata>
 <defs>
  <style type="text/css">*{stroke-linecap:butt;stroke-linejoin:round;}</style>
 </defs>
 <g id="figure_1">
  <g id="patch_1">
   <path d="M 0 300 
L 500 300 
L 500 0 
L 0 0 
z
" style="fill:#ffffff;"/>
  </g>
  <g id="axes_1">
   <g id="patch_2">
    <path d="M 62.5 262.5 
L 450 262.5 
L 450 27 
L 62.5 27 
z
" style="fill:#ffffff;"/>
   </g>
   <g id="matplotlib.axis_1">
    <g id="xtick_1">
     <g id="line2d_1">
      <defs>
       <path d="M 0 0 
L 0 3.5 
" id="ma8a07213bd" style="stroke:#555555;stroke-width:0.8;"/>
      </defs>
      <g>
       <use style="fill:#555555;stroke:#555555;stroke-width:0.8;" x="62.5" xlink:href="#ma8a07213bd" y="262.5"/>
      </g>
     </g>
    </g>
    <g id="xtick_2">
     <g id="line2d_2">
      <g>
       <use style="fill:#555555;stroke:#555555;stroke-width:0.8;" x="73.23903" xlink:href="#ma8a07213bd" y="262.5"/>
      </g>
     </g>
     <g id="text_1">
      <!-- Apr -->
      <g style="fill:#555555;" transform="translate(65.369499 276.640625)scale(0.1 -0.1)">
       <defs>
        <path d="M 20.09375 29.5 
L 32.203125 62.796875 
L 32.40625 62.796875 
L 44.296875 29.5 
z
M 27.203125 71.40625 
L -0.59375 0 
L 9.09375 0 
L 17.09375 21.5 
L 47.296875 21.5 
L 55.09375 0 
L 65.59375 0 
L 37.703125 71.40625 
z
" id="HelveticaNeue-65"/>
        <path d="M 6.703125 51.703125 
L 6.703125 -19.703125 
L 15.203125 -19.703125 
L 15.203125 6.90625 
L 15.40625 6.90625 
Q 16.796875 4.59375 18.84375 3.046875 
Q 20.90625 1.5 23.203125 0.59375 
Q 25.5 -0.296875 27.84375 -0.6875 
Q 30.203125 -1.09375 32.09375 -1.09375 
Q 38 -1.09375 42.453125 1 
Q 46.90625 3.09375 49.84375 6.75 
Q 52.796875 10.40625 54.25 15.296875 
Q 55.703125 20.203125 55.703125 25.703125 
Q 55.703125 31.203125 54.203125 36.09375 
Q 52.703125 41 49.75 44.75 
Q 46.796875 48.5 42.34375 50.703125 
Q 37.90625 52.90625 31.90625 52.90625 
Q 26.5 52.90625 22 50.953125 
Q 17.5 49 15.40625 44.703125 
L 15.203125 44.703125 
L 15.203125 51.703125 
z
M 46.703125 26.296875 
Q 46.703125 22.5 45.890625 18.890625 
Q 45.09375 15.296875 43.296875 12.5 
Q 41.5 9.703125 38.546875 8 
Q 35.59375 6.296875 31.203125 6.296875 
Q 26.796875 6.296875 23.6875 7.9375 
Q 20.59375 9.59375 18.640625 12.296875 
Q 16.703125 15 15.796875 18.546875 
Q 14.90625 22.09375 14.90625 25.90625 
Q 14.90625 29.5 15.75 33 
Q 16.59375 36.5 18.5 39.25 
Q 20.40625 42 23.40625 43.703125 
Q 26.40625 45.40625 30.703125 45.40625 
Q 34.796875 45.40625 37.84375 43.796875 
Q 40.90625 42.203125 42.84375 39.5 
Q 44.796875 36.796875 45.75 33.34375 
Q 46.703125 29.90625 46.703125 26.296875 
z
" id="HelveticaNeue-112"/>
        <path d="M 6.09375 51.703125 
L 6.09375 0 
L 14.59375 0 
L 14.59375 23 
Q 14.59375 28 15.59375 31.84375 
Q 16.59375 35.703125 18.796875 38.390625 
Q 21 41.09375 24.59375 42.5 
Q 28.203125 43.90625 33.296875 43.90625 
L 33.296875 52.90625 
Q 26.40625 53.09375 21.90625 50.09375 
Q 17.40625 47.09375 14.296875 40.796875 
L 14.09375 40.796875 
L 14.09375 51.703125 
z
" id="HelveticaNeue-114"/>
       </defs>
       <use xlink:href="#HelveticaNeue-65"/>
       <use x="64.799988" xlink:href="#HelveticaNeue-112"/>
       <use x="124.099976" xlink:href="#HelveticaNeue-114"/>
      </g>
     </g>
    </g>
    <g id="xtick_3">
     <g id="line2d_3">
      <g>
       <use style="fill:#555555;stroke:#555555;stroke-width:0.8;" x="154.676674" xlink:href="#ma8a07213bd" y="262.5"/>
      </g>
     </g>
     <g id="text_2">
      <!-- Jul -->
      <g style="fill:#555555;" transform="translate(148.191518 276.640625)scale(0.1 -0.1)">
       <defs>
        <path d="M 44.09375 17.796875 
L 44.09375 71.40625 
L 34.59375 71.40625 
L 34.59375 19.203125 
Q 34.59375 13.296875 32.140625 9.796875 
Q 29.703125 6.296875 23.203125 6.296875 
Q 19.703125 6.296875 17.453125 7.34375 
Q 15.203125 8.40625 13.953125 10.296875 
Q 12.703125 12.203125 12.203125 14.796875 
Q 11.703125 17.40625 11.703125 20.5 
L 11.703125 23.5 
L 2.203125 23.5 
L 2.203125 19.09375 
Q 2.203125 8.90625 7.59375 3.65625 
Q 13 -1.59375 23 -1.59375 
Q 29 -1.59375 33.046875 0.046875 
Q 37.09375 1.703125 39.546875 4.453125 
Q 42 7.203125 43.046875 10.703125 
Q 44.09375 14.203125 44.09375 17.796875 
z
" id="HelveticaNeue-74"/>
        <path d="M 49.203125 0 
L 49.203125 51.703125 
L 40.703125 51.703125 
L 40.703125 22.5 
Q 40.703125 19 39.75 16.046875 
Q 38.796875 13.09375 36.890625 10.890625 
Q 35 8.703125 32.140625 7.5 
Q 29.296875 6.296875 25.40625 6.296875 
Q 20.5 6.296875 17.703125 9.09375 
Q 14.90625 11.90625 14.90625 16.703125 
L 14.90625 51.703125 
L 6.40625 51.703125 
L 6.40625 17.703125 
Q 6.40625 13.5 7.25 10.046875 
Q 8.09375 6.59375 10.1875 4.09375 
Q 12.296875 1.59375 15.6875 0.25 
Q 19.09375 -1.09375 24.203125 -1.09375 
Q 29.90625 -1.09375 34.09375 1.15625 
Q 38.296875 3.40625 41 8.203125 
L 41.203125 8.203125 
L 41.203125 0 
z
" id="HelveticaNeue-117"/>
        <path d="M 6.90625 71.40625 
L 6.90625 0 
L 15.40625 0 
L 15.40625 71.40625 
z
" id="HelveticaNeue-108"/>
       </defs>
       <use xlink:href="#HelveticaNeue-74"/>
       <use x="51.899994" xlink:href="#HelveticaNeue-117"/>
       <use x="107.499985" xlink:href="#HelveticaNeue-108"/>
      </g>
     </g>
    </g>
    <g id="xtick_4">
     <g id="line2d_4">
      <g>
       <use style="fill:#555555;stroke:#555555;stroke-width:0.8;" x="237.009238" xlink:href="#ma8a07213bd" y="262.5"/>
      </g>
     </g>
     <g id="text_3">
      <!-- Oct -->
      <g style="fill:#555555;" transform="translate(228.949082 276.640625)scale(0.1 -0.1)">
       <defs>
        <path d="M 13.296875 35.703125 
Q 13.296875 41.09375 14.6875 46.34375 
Q 16.09375 51.59375 19.09375 55.796875 
Q 22.09375 60 26.796875 62.546875 
Q 31.5 65.09375 38 65.09375 
Q 44.5 65.09375 49.203125 62.546875 
Q 53.90625 60 56.90625 55.796875 
Q 59.90625 51.59375 61.296875 46.34375 
Q 62.703125 41.09375 62.703125 35.703125 
Q 62.703125 30.296875 61.296875 25.046875 
Q 59.90625 19.796875 56.90625 15.59375 
Q 53.90625 11.40625 49.203125 8.84375 
Q 44.5 6.296875 38 6.296875 
Q 31.5 6.296875 26.796875 8.84375 
Q 22.09375 11.40625 19.09375 15.59375 
Q 16.09375 19.796875 14.6875 25.046875 
Q 13.296875 30.296875 13.296875 35.703125 
z
M 3.796875 35.703125 
Q 3.796875 28.40625 5.9375 21.65625 
Q 8.09375 14.90625 12.390625 9.703125 
Q 16.703125 4.5 23.09375 1.453125 
Q 29.5 -1.59375 38 -1.59375 
Q 46.5 -1.59375 52.890625 1.453125 
Q 59.296875 4.5 63.59375 9.703125 
Q 67.90625 14.90625 70.046875 21.65625 
Q 72.203125 28.40625 72.203125 35.703125 
Q 72.203125 43 70.046875 49.75 
Q 67.90625 56.5 63.59375 61.703125 
Q 59.296875 66.90625 52.890625 70 
Q 46.5 73.09375 38 73.09375 
Q 29.5 73.09375 23.09375 70 
Q 16.703125 66.90625 12.390625 61.703125 
Q 8.09375 56.5 5.9375 49.75 
Q 3.796875 43 3.796875 35.703125 
z
" id="HelveticaNeue-79"/>
        <path d="M 41.5 35.09375 
L 50.296875 35.09375 
Q 49.796875 39.703125 47.890625 43.046875 
Q 46 46.40625 43.046875 48.59375 
Q 40.09375 50.796875 36.25 51.84375 
Q 32.40625 52.90625 28 52.90625 
Q 21.90625 52.90625 17.296875 50.75 
Q 12.703125 48.59375 9.640625 44.84375 
Q 6.59375 41.09375 5.09375 36.046875 
Q 3.59375 31 3.59375 25.203125 
Q 3.59375 19.40625 5.140625 14.546875 
Q 6.703125 9.703125 9.75 6.203125 
Q 12.796875 2.703125 17.34375 0.796875 
Q 21.90625 -1.09375 27.796875 -1.09375 
Q 37.703125 -1.09375 43.453125 4.09375 
Q 49.203125 9.296875 50.59375 18.90625 
L 41.90625 18.90625 
Q 41.09375 12.90625 37.546875 9.59375 
Q 34 6.296875 27.703125 6.296875 
Q 23.703125 6.296875 20.796875 7.890625 
Q 17.90625 9.5 16.09375 12.140625 
Q 14.296875 14.796875 13.4375 18.1875 
Q 12.59375 21.59375 12.59375 25.203125 
Q 12.59375 29.09375 13.390625 32.75 
Q 14.203125 36.40625 16.046875 39.203125 
Q 17.90625 42 21 43.703125 
Q 24.09375 45.40625 28.703125 45.40625 
Q 34.09375 45.40625 37.296875 42.703125 
Q 40.5 40 41.5 35.09375 
z
" id="HelveticaNeue-99"/>
        <path d="M 18.203125 51.703125 
L 18.203125 67.203125 
L 9.703125 67.203125 
L 9.703125 51.703125 
L 0.90625 51.703125 
L 0.90625 44.203125 
L 9.703125 44.203125 
L 9.703125 11.296875 
Q 9.703125 7.703125 10.390625 5.5 
Q 11.09375 3.296875 12.546875 2.09375 
Q 14 0.90625 16.34375 0.453125 
Q 18.703125 0 22 0 
L 28.5 0 
L 28.5 7.5 
L 24.59375 7.5 
Q 22.59375 7.5 21.34375 7.640625 
Q 20.09375 7.796875 19.390625 8.296875 
Q 18.703125 8.796875 18.453125 9.6875 
Q 18.203125 10.59375 18.203125 12.09375 
L 18.203125 44.203125 
L 28.5 44.203125 
L 28.5 51.703125 
z
" id="HelveticaNeue-116"/>
       </defs>
       <use xlink:href="#HelveticaNeue-79"/>
       <use x="75.999985" xlink:href="#HelveticaNeue-99"/>
       <use x="129.699982" xlink:href="#HelveticaNeue-116"/>
      </g>
     </g>
    </g>
    <g id="xtick_5">
     <g id="line2d_5">
      <g>
       <use style="fill:#555555;stroke:#555555;stroke-width:0.8;" x="319.341801" xlink:href="#ma8a07213bd" y="262.5"/>
      </g>
     </g>
     <g id="text_4">
      <!-- Jan -->
      <g style="fill:#555555;" transform="translate(311.281645 276.640625)scale(0.1 -0.1)">
       <defs>
        <path d="M 52.203125 0.203125 
Q 50 -1.09375 46.09375 -1.09375 
Q 42.796875 -1.09375 40.84375 0.75 
Q 38.90625 2.59375 38.90625 6.796875 
Q 35.40625 2.59375 30.75 0.75 
Q 26.09375 -1.09375 20.703125 -1.09375 
Q 17.203125 -1.09375 14.046875 -0.296875 
Q 10.90625 0.5 8.59375 2.203125 
Q 6.296875 3.90625 4.9375 6.65625 
Q 3.59375 9.40625 3.59375 13.296875 
Q 3.59375 17.703125 5.09375 20.5 
Q 6.59375 23.296875 9.046875 25.046875 
Q 11.5 26.796875 14.640625 27.6875 
Q 17.796875 28.59375 21.09375 29.203125 
Q 24.59375 29.90625 27.75 30.25 
Q 30.90625 30.59375 33.296875 31.25 
Q 35.703125 31.90625 37.09375 33.15625 
Q 38.5 34.40625 38.5 36.796875 
Q 38.5 39.59375 37.453125 41.296875 
Q 36.40625 43 34.75 43.890625 
Q 33.09375 44.796875 31.046875 45.09375 
Q 29 45.40625 27 45.40625 
Q 21.59375 45.40625 18 43.34375 
Q 14.40625 41.296875 14.09375 35.59375 
L 5.59375 35.59375 
Q 5.796875 40.40625 7.59375 43.703125 
Q 9.40625 47 12.40625 49.046875 
Q 15.40625 51.09375 19.25 52 
Q 23.09375 52.90625 27.5 52.90625 
Q 31 52.90625 34.453125 52.40625 
Q 37.90625 51.90625 40.703125 50.34375 
Q 43.5 48.796875 45.203125 46 
Q 46.90625 43.203125 46.90625 38.703125 
L 46.90625 12.09375 
Q 46.90625 9.09375 47.25 7.6875 
Q 47.59375 6.296875 49.59375 6.296875 
Q 50.703125 6.296875 52.203125 6.796875 
z
M 38.40625 26.703125 
Q 36.796875 25.5 34.1875 24.953125 
Q 31.59375 24.40625 28.75 24.046875 
Q 25.90625 23.703125 23 23.25 
Q 20.09375 22.796875 17.796875 21.796875 
Q 15.5 20.796875 14.046875 18.9375 
Q 12.59375 17.09375 12.59375 13.90625 
Q 12.59375 11.796875 13.4375 10.34375 
Q 14.296875 8.90625 15.640625 8 
Q 17 7.09375 18.796875 6.6875 
Q 20.59375 6.296875 22.59375 6.296875 
Q 26.796875 6.296875 29.796875 7.4375 
Q 32.796875 8.59375 34.6875 10.34375 
Q 36.59375 12.09375 37.5 14.140625 
Q 38.40625 16.203125 38.40625 18 
z
" id="HelveticaNeue-97"/>
        <path d="M 6.40625 51.703125 
L 6.40625 0 
L 14.90625 0 
L 14.90625 29.203125 
Q 14.90625 32.703125 15.84375 35.640625 
Q 16.796875 38.59375 18.6875 40.796875 
Q 20.59375 43 23.4375 44.203125 
Q 26.296875 45.40625 30.203125 45.40625 
Q 35.09375 45.40625 37.890625 42.59375 
Q 40.703125 39.796875 40.703125 35 
L 40.703125 0 
L 49.203125 0 
L 49.203125 34 
Q 49.203125 38.203125 48.34375 41.640625 
Q 47.5 45.09375 45.390625 47.59375 
Q 43.296875 50.09375 39.890625 51.5 
Q 36.5 52.90625 31.40625 52.90625 
Q 19.90625 52.90625 14.59375 43.5 
L 14.40625 43.5 
L 14.40625 51.703125 
z
" id="HelveticaNeue-110"/>
       </defs>
       <use xlink:href="#HelveticaNeue-74"/>
       <use x="51.899994" xlink:href="#HelveticaNeue-97"/>
       <use x="105.599991" xlink:href="#HelveticaNeue-110"/>
      </g>
      <!-- 2021 -->
      <g style="fill:#555555;" transform="translate(308.223051 287.179688)scale(0.1 -0.1)">
       <defs>
        <path d="M 4.40625 45.796875 
L 12.90625 45.796875 
Q 12.796875 49 13.546875 52.140625 
Q 14.296875 55.296875 16 57.796875 
Q 17.703125 60.296875 20.34375 61.84375 
Q 23 63.40625 26.703125 63.40625 
Q 29.5 63.40625 32 62.5 
Q 34.5 61.59375 36.34375 59.890625 
Q 38.203125 58.203125 39.296875 55.84375 
Q 40.40625 53.5 40.40625 50.59375 
Q 40.40625 46.90625 39.25 44.09375 
Q 38.09375 41.296875 35.84375 38.890625 
Q 33.59375 36.5 30.1875 34.140625 
Q 26.796875 31.796875 22.296875 29 
Q 18.59375 26.796875 15.1875 24.296875 
Q 11.796875 21.796875 9.09375 18.5 
Q 6.40625 15.203125 4.65625 10.75 
Q 2.90625 6.296875 2.40625 0 
L 48.703125 0 
L 48.703125 7.5 
L 12.296875 7.5 
Q 12.90625 10.796875 14.84375 13.34375 
Q 16.796875 15.90625 19.546875 18.09375 
Q 22.296875 20.296875 25.59375 22.25 
Q 28.90625 24.203125 32.203125 26.203125 
Q 35.5 28.296875 38.59375 30.59375 
Q 41.703125 32.90625 44.09375 35.75 
Q 46.5 38.59375 47.953125 42.1875 
Q 49.40625 45.796875 49.40625 50.5 
Q 49.40625 55.5 47.65625 59.296875 
Q 45.90625 63.09375 42.90625 65.640625 
Q 39.90625 68.203125 35.84375 69.546875 
Q 31.796875 70.90625 27.203125 70.90625 
Q 21.59375 70.90625 17.1875 69 
Q 12.796875 67.09375 9.84375 63.75 
Q 6.90625 60.40625 5.5 55.796875 
Q 4.09375 51.203125 4.40625 45.796875 
z
" id="HelveticaNeue-50"/>
        <path d="M 13.203125 34.90625 
Q 13.203125 37.5 13.25 40.640625 
Q 13.296875 43.796875 13.75 46.9375 
Q 14.203125 50.09375 15.046875 53.09375 
Q 15.90625 56.09375 17.546875 58.34375 
Q 19.203125 60.59375 21.703125 62 
Q 24.203125 63.40625 27.796875 63.40625 
Q 31.40625 63.40625 33.90625 62 
Q 36.40625 60.59375 38.046875 58.34375 
Q 39.703125 56.09375 40.546875 53.09375 
Q 41.40625 50.09375 41.84375 46.9375 
Q 42.296875 43.796875 42.34375 40.640625 
Q 42.40625 37.5 42.40625 34.90625 
Q 42.40625 30.90625 42.15625 25.953125 
Q 41.90625 21 40.546875 16.640625 
Q 39.203125 12.296875 36.203125 9.296875 
Q 33.203125 6.296875 27.796875 6.296875 
Q 22.40625 6.296875 19.40625 9.296875 
Q 16.40625 12.296875 15.046875 16.640625 
Q 13.703125 21 13.453125 25.953125 
Q 13.203125 30.90625 13.203125 34.90625 
z
M 4.203125 34.796875 
Q 4.203125 30.90625 4.390625 26.703125 
Q 4.59375 22.5 5.390625 18.5 
Q 6.203125 14.5 7.703125 10.953125 
Q 9.203125 7.40625 11.796875 4.703125 
Q 14.40625 2 18.34375 0.453125 
Q 22.296875 -1.09375 27.796875 -1.09375 
Q 33.40625 -1.09375 37.296875 0.453125 
Q 41.203125 2 43.796875 4.703125 
Q 46.40625 7.40625 47.90625 10.953125 
Q 49.40625 14.5 50.203125 18.5 
Q 51 22.5 51.203125 26.703125 
Q 51.40625 30.90625 51.40625 34.796875 
Q 51.40625 38.703125 51.203125 42.890625 
Q 51 47.09375 50.203125 51.09375 
Q 49.40625 55.09375 47.90625 58.6875 
Q 46.40625 62.296875 43.796875 65 
Q 41.203125 67.703125 37.25 69.296875 
Q 33.296875 70.90625 27.796875 70.90625 
Q 22.296875 70.90625 18.34375 69.296875 
Q 14.40625 67.703125 11.796875 65 
Q 9.203125 62.296875 7.703125 58.6875 
Q 6.203125 55.09375 5.390625 51.09375 
Q 4.59375 47.09375 4.390625 42.890625 
Q 4.203125 38.703125 4.203125 34.796875 
z
" id="HelveticaNeue-48"/>
        <path d="M 35.59375 0 
L 35.59375 70.90625 
L 29.09375 70.90625 
Q 28.40625 66.90625 26.5 64.296875 
Q 24.59375 61.703125 21.84375 60.203125 
Q 19.09375 58.703125 15.6875 58.140625 
Q 12.296875 57.59375 8.703125 57.59375 
L 8.703125 50.796875 
L 27.09375 50.796875 
L 27.09375 0 
z
" id="HelveticaNeue-49"/>
       </defs>
       <use xlink:href="#HelveticaNeue-50"/>
       <use x="55.599991" xlink:href="#HelveticaNeue-48"/>
       <use x="111.199982" xlink:href="#HelveticaNeue-50"/>
       <use x="166.799973" xlink:href="#HelveticaNeue-49"/>
      </g>
     </g>
    </g>
    <g id="xtick_6">
     <g id="line2d_6">
      <g>
       <use style="fill:#555555;stroke:#555555;stroke-width:0.8;" x="399.884527" xlink:href="#ma8a07213bd" y="262.5"/>
      </g>
     </g>
     <g id="text_5">
      <!-- Apr -->
      <g style="fill:#555555;" transform="translate(392.014995 276.640625)scale(0.1 -0.1)">
       <use xlink:href="#HelveticaNeue-65"/>
       <use x="64.799988" xlink:href="#HelveticaNeue-112"/>
       <use x="124.099976" xlink:href="#HelveticaNeue-114"/>
      </g>
     </g>
    </g>
    <g id="xtick_7">
     <g id="line2d_7">
      <g>
       <use style="fill:#555555;stroke:#555555;stroke-width:0.8;" x="450" xlink:href="#ma8a07213bd" y="262.5"/>
      </g>
     </g>
    </g>
    <g id="xtick_8">
     <g id="line2d_8">
      <defs>
       <path d="M 0 0 
L 0 2 
" id="m2285ff2c9f" style="stroke:#555555;stroke-width:0.6;"/>
      </defs>
      <g>
       <use style="fill:#555555;stroke:#555555;stroke-width:0.6;" x="100.086605" xlink:href="#m2285ff2c9f" y="262.5"/>
      </g>
     </g>
    </g>
    <g id="xtick_9">
     <g id="line2d_9">
      <g>
       <use style="fill:#555555;stroke:#555555;stroke-width:0.6;" x="127.829099" xlink:href="#m2285ff2c9f" y="262.5"/>
      </g>
     </g>
    </g>
    <g id="xtick_10">
     <g id="line2d_10">
      <g>
       <use style="fill:#555555;stroke:#555555;stroke-width:0.6;" x="182.419169" xlink:href="#m2285ff2c9f" y="262.5"/>
      </g>
     </g>
    </g>
    <g id="xtick_11">
     <g id="line2d_11">
      <g>
       <use style="fill:#555555;stroke:#555555;stroke-width:0.6;" x="210.161663" xlink:href="#m2285ff2c9f" y="262.5"/>
      </g>
     </g>
    </g>
    <g id="xtick_12">
     <g id="line2d_12">
      <g>
       <use style="fill:#555555;stroke:#555555;stroke-width:0.6;" x="264.751732" xlink:href="#m2285ff2c9f" y="262.5"/>
      </g>
     </g>
    </g>
    <g id="xtick_13">
     <g id="line2d_13">
      <g>
       <use style="fill:#555555;stroke:#555555;stroke-width:0.6;" x="291.599307" xlink:href="#m2285ff2c9f" y="262.5"/>
      </g>
     </g>
    </g>
    <g id="xtick_14">
     <g id="line2d_14">
      <g>
       <use style="fill:#555555;stroke:#555555;stroke-width:0.6;" x="347.084296" xlink:href="#m2285ff2c9f" y="262.5"/>
      </g>
     </g>
    </g>
    <g id="xtick_15">
     <g id="line2d_15">
      <g>
       <use style="fill:#555555;stroke:#555555;stroke-width:0.6;" x="372.142032" xlink:href="#m2285ff2c9f" y="262.5"/>
      </g>
     </g>
    </g>
    <g id="xtick_16">
     <g id="line2d_16">
      <g>
       <use style="fill:#555555;stroke:#555555;stroke-width:0.6;" x="426.732102" xlink:href="#m2285ff2c9f" y="262.5"/>
      </g>
     </g>
    </g>
    <g id="text_6">
     <!-- fecha -->
     <g style="fill:#555555;" transform="translate(243.935156 300.290625)scale(0.1 -0.1)">
      <defs>
       <path d="M 9.90625 44.203125 
L 9.90625 0 
L 18.40625 0 
L 18.40625 44.203125 
L 28.40625 44.203125 
L 28.40625 51.703125 
L 18.40625 51.703125 
L 18.40625 58.90625 
Q 18.40625 62.296875 20.09375 63.5 
Q 21.796875 64.703125 24.90625 64.703125 
Q 26 64.703125 27.296875 64.546875 
Q 28.59375 64.40625 29.703125 64 
L 29.703125 71.40625 
Q 28.5 71.796875 26.953125 72 
Q 25.40625 72.203125 24.203125 72.203125 
Q 17.203125 72.203125 13.546875 68.953125 
Q 9.90625 65.703125 9.90625 59.40625 
L 9.90625 51.703125 
L 1.203125 51.703125 
L 1.203125 44.203125 
z
" id="HelveticaNeue-102"/>
       <path d="M 42.296875 30.796875 
L 12.59375 30.796875 
Q 12.796875 33.796875 13.890625 36.4375 
Q 15 39.09375 16.890625 41.09375 
Q 18.796875 43.09375 21.4375 44.25 
Q 24.09375 45.40625 27.40625 45.40625 
Q 30.59375 45.40625 33.25 44.25 
Q 35.90625 43.09375 37.84375 41.140625 
Q 39.796875 39.203125 40.9375 36.5 
Q 42.09375 33.796875 42.296875 30.796875 
z
M 50.5 16.40625 
L 42.09375 16.40625 
Q 41 11.296875 37.546875 8.796875 
Q 34.09375 6.296875 28.703125 6.296875 
Q 24.5 6.296875 21.390625 7.6875 
Q 18.296875 9.09375 16.296875 11.4375 
Q 14.296875 13.796875 13.390625 16.84375 
Q 12.5 19.90625 12.59375 23.296875 
L 51.296875 23.296875 
Q 51.5 28 50.453125 33.203125 
Q 49.40625 38.40625 46.65625 42.796875 
Q 43.90625 47.203125 39.34375 50.046875 
Q 34.796875 52.90625 27.90625 52.90625 
Q 22.59375 52.90625 18.140625 50.90625 
Q 13.703125 48.90625 10.453125 45.296875 
Q 7.203125 41.703125 5.390625 36.796875 
Q 3.59375 31.90625 3.59375 26 
Q 3.796875 20.09375 5.34375 15.09375 
Q 6.90625 10.09375 10 6.5 
Q 13.09375 2.90625 17.640625 0.90625 
Q 22.203125 -1.09375 28.40625 -1.09375 
Q 37.203125 -1.09375 43 3.296875 
Q 48.796875 7.703125 50.5 16.40625 
z
" id="HelveticaNeue-101"/>
       <path d="M 6.40625 71.40625 
L 6.40625 0 
L 14.90625 0 
L 14.90625 29.203125 
Q 14.90625 32.703125 15.84375 35.640625 
Q 16.796875 38.59375 18.6875 40.796875 
Q 20.59375 43 23.4375 44.203125 
Q 26.296875 45.40625 30.203125 45.40625 
Q 35.09375 45.40625 37.890625 42.59375 
Q 40.703125 39.796875 40.703125 35 
L 40.703125 0 
L 49.203125 0 
L 49.203125 34 
Q 49.203125 38.203125 48.34375 41.640625 
Q 47.5 45.09375 45.390625 47.59375 
Q 43.296875 50.09375 39.890625 51.5 
Q 36.5 52.90625 31.40625 52.90625 
Q 29.09375 52.90625 26.640625 52.40625 
Q 24.203125 51.90625 21.953125 50.84375 
Q 19.703125 49.796875 17.890625 48.140625 
Q 16.09375 46.5 15.09375 44.09375 
L 14.90625 44.09375 
L 14.90625 71.40625 
z
" id="HelveticaNeue-104"/>
      </defs>
      <use xlink:href="#HelveticaNeue-102"/>
      <use x="29.599991" xlink:href="#HelveticaNeue-101"/>
      <use x="83.299988" xlink:href="#HelveticaNeue-99"/>
      <use x="136.999985" xlink:href="#HelveticaNeue-104"/>
      <use x="192.599976" xlink:href="#HelveticaNeue-97"/>
     </g>
    </g>
   </g>
   <g id="matplotlib.axis_2">
    <g id="ytick_1">
     <g id="line2d_17">
      <defs>
       <path d="M 0 0 
L -3.5 0 
" id="m9837306457" style="stroke:#555555;stroke-width:0.8;"/>
      </defs>
      <g>
       <use style="fill:#555555;stroke:#555555;stroke-width:0.8;" x="62.5" xlink:href="#m9837306457" y="251.795455"/>
      </g>
     </g>
     <g id="text_7">
      <!-- 0 -->
      <g style="fill:#555555;" transform="translate(49.940625 255.365767)scale(0.1 -0.1)">
       <use xlink:href="#HelveticaNeue-48"/>
      </g>
     </g>
    </g>
    <g id="ytick_2">
     <g id="line2d_18">
      <g>
       <use style="fill:#555555;stroke:#555555;stroke-width:0.8;" x="62.5" xlink:href="#m9837306457" y="204.999627"/>
      </g>
     </g>
     <g id="text_8">
      <!-- 200 -->
      <g style="fill:#555555;" transform="translate(38.821875 208.56994)scale(0.1 -0.1)">
       <use xlink:href="#HelveticaNeue-50"/>
       <use x="55.599991" xlink:href="#HelveticaNeue-48"/>
       <use x="111.199982" xlink:href="#HelveticaNeue-48"/>
      </g>
     </g>
    </g>
    <g id="ytick_3">
     <g id="line2d_19">
      <g>
       <use style="fill:#555555;stroke:#555555;stroke-width:0.8;" x="62.5" xlink:href="#m9837306457" y="158.2038"/>
      </g>
     </g>
     <g id="text_9">
      <!-- 400 -->
      <g style="fill:#555555;" transform="translate(38.821875 161.774113)scale(0.1 -0.1)">
       <defs>
        <path d="M 33.90625 24.09375 
L 10.09375 24.09375 
L 33.703125 58.796875 
L 33.90625 58.796875 
z
M 41.90625 24.09375 
L 41.90625 70.90625 
L 35.09375 70.90625 
L 2.796875 24.796875 
L 2.796875 16.59375 
L 33.90625 16.59375 
L 33.90625 0 
L 41.90625 0 
L 41.90625 16.59375 
L 51.5 16.59375 
L 51.5 24.09375 
z
" id="HelveticaNeue-52"/>
       </defs>
       <use xlink:href="#HelveticaNeue-52"/>
       <use x="55.599991" xlink:href="#HelveticaNeue-48"/>
       <use x="111.199982" xlink:href="#HelveticaNeue-48"/>
      </g>
     </g>
    </g>
    <g id="ytick_4">
     <g id="line2d_20">
      <g>
       <use style="fill:#555555;stroke:#555555;stroke-width:0.8;" x="62.5" xlink:href="#m9837306457" y="111.407973"/>
      </g>
     </g>
     <g id="text_10">
      <!-- 600 -->
      <g style="fill:#555555;" transform="translate(38.821875 114.978286)scale(0.1 -0.1)">
       <defs>
        <path d="M 41.40625 52.796875 
L 49.90625 52.796875 
Q 49.09375 61.59375 43.890625 66.25 
Q 38.703125 70.90625 29.90625 70.90625 
Q 22.296875 70.90625 17.296875 67.703125 
Q 12.296875 64.5 9.296875 59.203125 
Q 6.296875 53.90625 5.046875 47.046875 
Q 3.796875 40.203125 3.796875 32.90625 
Q 3.796875 27.296875 4.640625 21.296875 
Q 5.5 15.296875 8.09375 10.296875 
Q 10.703125 5.296875 15.5 2.09375 
Q 20.296875 -1.09375 28.203125 -1.09375 
Q 34.90625 -1.09375 39.453125 1.15625 
Q 44 3.40625 46.75 6.84375 
Q 49.5 10.296875 50.703125 14.5 
Q 51.90625 18.703125 51.90625 22.59375 
Q 51.90625 27.5 50.40625 31.703125 
Q 48.90625 35.90625 46.15625 39 
Q 43.40625 42.09375 39.34375 43.84375 
Q 35.296875 45.59375 30.203125 45.59375 
Q 24.40625 45.59375 19.953125 43.390625 
Q 15.5 41.203125 12.5 36.296875 
L 12.296875 36.5 
Q 12.40625 40.59375 13.09375 45.296875 
Q 13.796875 50 15.640625 54.046875 
Q 17.5 58.09375 20.796875 60.75 
Q 24.09375 63.40625 29.5 63.40625 
Q 34.59375 63.40625 37.6875 60.5 
Q 40.796875 57.59375 41.40625 52.796875 
z
M 28.59375 38.09375 
Q 32.203125 38.09375 34.890625 36.796875 
Q 37.59375 35.5 39.390625 33.34375 
Q 41.203125 31.203125 42.046875 28.25 
Q 42.90625 25.296875 42.90625 22 
Q 42.90625 18.90625 41.953125 16.046875 
Q 41 13.203125 39.203125 11 
Q 37.40625 8.796875 34.75 7.546875 
Q 32.09375 6.296875 28.59375 6.296875 
Q 25.09375 6.296875 22.34375 7.546875 
Q 19.59375 8.796875 17.75 10.890625 
Q 15.90625 13 14.90625 15.890625 
Q 13.90625 18.796875 13.90625 22.09375 
Q 13.90625 25.40625 14.84375 28.34375 
Q 15.796875 31.296875 17.6875 33.4375 
Q 19.59375 35.59375 22.296875 36.84375 
Q 25 38.09375 28.59375 38.09375 
z
" id="HelveticaNeue-54"/>
       </defs>
       <use xlink:href="#HelveticaNeue-54"/>
       <use x="55.599991" xlink:href="#HelveticaNeue-48"/>
       <use x="111.199982" xlink:href="#HelveticaNeue-48"/>
      </g>
     </g>
    </g>
    <g id="ytick_5">
     <g id="line2d_21">
      <g>
       <use style="fill:#555555;stroke:#555555;stroke-width:0.8;" x="62.5" xlink:href="#m9837306457" y="64.612146"/>
      </g>
     </g>
     <g id="text_11">
      <!-- 800 -->
      <g style="fill:#555555;" transform="translate(38.821875 68.182459)scale(0.1 -0.1)">
       <defs>
        <path d="M 15.5 52.5 
Q 15.5 55.203125 16.5 57.203125 
Q 17.5 59.203125 19.140625 60.59375 
Q 20.796875 62 23.09375 62.703125 
Q 25.40625 63.40625 27.90625 63.40625 
Q 33.09375 63.40625 36.4375 60.65625 
Q 39.796875 57.90625 39.796875 52.5 
Q 39.796875 47.09375 36.5 44.09375 
Q 33.203125 41.09375 28.09375 41.09375 
Q 25.5 41.09375 23.203125 41.796875 
Q 20.90625 42.5 19.203125 43.890625 
Q 17.5 45.296875 16.5 47.4375 
Q 15.5 49.59375 15.5 52.5 
z
M 6.5 52.796875 
Q 6.5 48 9.203125 43.953125 
Q 11.90625 39.90625 16.40625 38.09375 
Q 10.40625 36 7.203125 31.34375 
Q 4 26.703125 4 20.40625 
Q 4 15 5.84375 10.953125 
Q 7.703125 6.90625 10.953125 4.203125 
Q 14.203125 1.5 18.59375 0.203125 
Q 23 -1.09375 28.09375 -1.09375 
Q 33 -1.09375 37.296875 0.296875 
Q 41.59375 1.703125 44.75 4.453125 
Q 47.90625 7.203125 49.75 11.203125 
Q 51.59375 15.203125 51.59375 20.40625 
Q 51.59375 27 48.5 31.546875 
Q 45.40625 36.09375 39 38.09375 
Q 43.5 40.09375 46.140625 44.046875 
Q 48.796875 48 48.796875 52.796875 
Q 48.796875 56.203125 47.59375 59.453125 
Q 46.40625 62.703125 43.84375 65.25 
Q 41.296875 67.796875 37.1875 69.34375 
Q 33.09375 70.90625 27.296875 70.90625 
Q 23.203125 70.90625 19.453125 69.703125 
Q 15.703125 68.5 12.796875 66.203125 
Q 9.90625 63.90625 8.203125 60.546875 
Q 6.5 57.203125 6.5 52.796875 
z
M 13 20 
Q 13 23.09375 14.140625 25.59375 
Q 15.296875 28.09375 17.34375 29.890625 
Q 19.40625 31.703125 22.15625 32.640625 
Q 24.90625 33.59375 28 33.59375 
Q 31 33.59375 33.640625 32.546875 
Q 36.296875 31.5 38.296875 29.703125 
Q 40.296875 27.90625 41.4375 25.453125 
Q 42.59375 23 42.59375 20.09375 
Q 42.59375 17.09375 41.546875 14.59375 
Q 40.5 12.09375 38.546875 10.25 
Q 36.59375 8.40625 33.9375 7.34375 
Q 31.296875 6.296875 28.09375 6.296875 
Q 21.5 6.296875 17.25 9.9375 
Q 13 13.59375 13 20 
z
" id="HelveticaNeue-56"/>
       </defs>
       <use xlink:href="#HelveticaNeue-56"/>
       <use x="55.599991" xlink:href="#HelveticaNeue-48"/>
       <use x="111.199982" xlink:href="#HelveticaNeue-48"/>
      </g>
     </g>
    </g>
   </g>
   <g id="line2d_22">
    <path clip-path="url(#p6c706b1e8a)" d="M 63.394919 251.795455 
L 64.289838 251.327496 
L 65.184758 251.561475 
L 66.079677 249.455663 
L 66.974596 251.327496 
L 67.869515 249.221684 
L 68.764434 250.157601 
L 69.659353 250.157601 
L 70.554273 249.923621 
L 71.449192 250.157601 
L 72.344111 251.327496 
L 73.23903 251.093517 
L 75.028868 248.285768 
L 76.818707 251.561475 
L 77.713626 247.349851 
L 78.608545 248.051788 
L 79.503464 250.157601 
L 80.398383 250.157601 
L 81.293303 251.327496 
L 82.188222 251.327496 
L 83.083141 250.625559 
L 83.97806 249.221684 
L 85.767898 251.561475 
L 86.662818 250.157601 
L 87.557737 249.221684 
L 88.452656 250.39158 
L 89.347575 248.285768 
L 90.242494 248.519747 
L 91.137413 251.561475 
L 92.927252 249.221684 
L 93.822171 248.987705 
L 94.71709 250.625559 
L 95.612009 249.689642 
L 96.506928 248.051788 
L 97.401848 249.221684 
L 98.296767 250.157601 
L 99.191686 249.689642 
L 100.086605 250.157601 
L 100.981524 250.39158 
L 101.876443 251.327496 
L 102.771363 247.58383 
L 103.666282 250.859538 
L 104.561201 250.39158 
L 105.45612 248.753726 
L 106.351039 250.157601 
L 107.245958 249.689642 
L 108.140878 248.051788 
L 109.035797 248.519747 
L 109.930716 247.817809 
L 110.825635 250.39158 
L 111.720554 248.753726 
L 112.615473 248.519747 
L 113.510393 250.157601 
L 114.405312 249.923621 
L 115.300231 251.093517 
L 116.19515 245.711997 
L 117.090069 248.987705 
L 117.984988 249.689642 
L 118.879908 246.647914 
L 120.669746 250.625559 
L 121.564665 248.051788 
L 122.459584 249.689642 
L 123.354503 244.074143 
L 124.249423 242.436289 
L 125.144342 244.308122 
L 126.039261 247.115872 
L 126.93418 244.542101 
L 127.829099 247.349851 
L 129.618938 240.564456 
L 130.513857 246.413934 
L 131.408776 245.244039 
L 132.303695 245.945976 
L 133.198614 244.308122 
L 134.093533 245.945976 
L 134.988453 241.968331 
L 135.883372 242.20231 
L 136.778291 245.711997 
L 137.67321 244.074143 
L 138.568129 245.478018 
L 139.463048 245.945976 
L 140.357968 243.840164 
L 141.252887 245.01006 
L 142.147806 241.266393 
L 143.042725 234.480999 
L 143.937644 237.990686 
L 144.832564 228.163562 
L 145.727483 238.224665 
L 146.622402 238.692623 
L 147.517321 238.458644 
L 148.41224 217.86848 
L 149.307159 236.118852 
L 150.202079 231.205291 
L 151.096998 230.035395 
L 151.991917 227.695604 
L 152.886836 237.054769 
L 153.781755 218.804396 
L 154.676674 221.144188 
L 155.571594 205.233607 
L 156.466513 232.375186 
L 157.361432 219.272355 
L 158.256351 228.163562 
L 159.15127 225.355812 
L 160.046189 205.701565 
L 160.941109 216.932563 
L 161.836028 209.211252 
L 162.730947 208.275335 
L 163.625866 214.592772 
L 164.520785 228.63152 
L 165.415704 206.637481 
L 166.310624 216.464605 
L 167.205543 195.640462 
L 168.100462 187.217213 
L 168.995381 209.211252 
L 169.8903 201.72392 
L 170.785219 203.829732 
L 171.680139 215.294709 
L 172.575058 174.348361 
L 173.469977 164.521237 
L 174.364896 204.063711 
L 175.259815 165.457154 
L 177.049654 216.932563 
L 177.944573 153.524218 
L 178.839492 153.758197 
L 179.734411 183.707526 
L 180.62933 187.217213 
L 181.524249 173.646423 
L 182.419169 153.290238 
L 183.314088 170.604694 
L 184.209007 174.114382 
L 185.103926 98.305142 
L 185.998845 167.562966 
L 186.893764 150.950447 
L 188.683603 129.190387 
L 189.578522 166.861028 
L 190.473441 133.168033 
L 191.36836 110.940015 
L 192.263279 118.427347 
L 193.158199 102.750745 
L 194.053118 134.805887 
L 194.948037 117.959389 
L 195.842956 117.257452 
L 196.737875 109.302161 
L 197.632794 82.160581 
L 198.527714 178.559985 
L 199.422633 145.802906 
L 200.317552 121.937034 
L 201.212471 156.565946 
L 202.10739 139.017511 
L 203.002309 130.360283 
L 203.897229 149.078614 
L 204.792148 137.145678 
L 205.687067 181.835693 
L 206.581986 174.348361 
L 207.476905 197.512295 
L 208.371824 188.855067 
L 209.266744 131.998137 
L 210.161663 189.790984 
L 211.056582 210.849106 
L 211.951501 192.598733 
L 212.84642 194.470566 
L 213.741339 217.634501 
L 214.636259 222.548063 
L 215.531178 188.621088 
L 216.426097 198.91617 
L 217.321016 215.528689 
L 218.215935 191.194858 
L 219.110855 185.813338 
L 220.005774 214.124814 
L 220.900693 235.650894 
L 221.795612 208.743294 
L 222.690531 202.425857 
L 223.58545 213.422876 
L 224.48037 202.893815 
L 225.375289 213.656855 
L 226.270208 214.592772 
L 227.165127 218.570417 
L 228.060046 207.339419 
L 228.954965 206.637481 
L 229.849885 201.48994 
L 230.744804 213.890835 
L 231.639723 209.445231 
L 232.534642 204.29769 
L 233.429561 223.717958 
L 234.32448 214.358793 
L 235.2194 215.996647 
L 236.114319 229.099478 
L 237.009238 211.551043 
L 237.904157 202.191878 
L 238.799076 190.960879 
L 239.693995 209.913189 
L 240.588915 218.804396 
L 241.483834 214.826751 
L 242.378753 196.342399 
L 243.273672 200.788003 
L 245.06351 213.188897 
L 245.95843 223.951937 
L 246.853349 232.609165 
L 248.643187 218.102459 
L 249.538106 189.089046 
L 250.433025 205.935544 
L 251.327945 206.169523 
L 252.222864 215.762668 
L 253.117783 212.019001 
L 254.012702 193.768629 
L 254.907621 209.67921 
L 255.80254 203.361773 
L 256.69746 201.021982 
L 258.487298 223.717958 
L 259.382217 204.29769 
L 260.277136 191.896796 
L 261.172055 197.044337 
L 262.066975 195.172504 
L 262.961894 208.041356 
L 263.856813 201.48994 
L 264.751732 209.445231 
L 265.646651 192.364754 
L 266.54157 200.788003 
L 267.43649 197.044337 
L 268.331409 204.29769 
L 269.226328 212.954918 
L 270.121247 206.637481 
L 271.016166 203.829732 
L 271.911085 209.67921 
L 272.806005 201.48994 
L 273.700924 206.871461 
L 274.595843 198.448212 
L 275.490762 211.551043 
L 276.385681 211.317064 
L 277.2806 223.25 
L 278.17552 199.150149 
L 279.070439 190.960879 
L 279.965358 215.06073 
L 280.860277 198.682191 
L 281.755196 201.48994 
L 282.650115 206.169523 
L 283.545035 218.336438 
L 284.439954 194.236587 
L 285.334873 193.066692 
L 286.229792 180.197839 
L 287.124711 188.15313 
L 288.01963 188.621088 
L 288.91455 205.701565 
L 289.809469 205.935544 
L 290.704388 201.021982 
L 291.599307 184.409463 
L 292.494226 180.899776 
L 293.389145 201.255961 
L 294.284065 167.562966 
L 295.178984 191.194858 
L 296.073903 202.425857 
L 296.968822 182.53763 
L 298.758661 196.810358 
L 300.548499 171.540611 
L 301.443418 174.58234 
L 302.338337 188.15313 
L 303.233256 154.694113 
L 304.128176 159.841654 
L 305.023095 127.786513 
L 305.918014 171.306632 
L 306.812933 144.399031 
L 307.707852 148.376677 
L 308.602771 185.34538 
L 309.497691 142.05924 
L 310.39261 129.190387 
L 311.287529 139.25149 
L 312.182448 136.443741 
L 313.077367 182.77161 
L 316.657044 109.068182 
L 317.551963 96.199329 
L 319.341801 213.188897 
L 321.13164 97.837183 
L 322.026559 143.463115 
L 322.921478 77.948957 
L 323.816397 104.15462 
L 324.711316 85.20231 
L 325.606236 102.516766 
L 327.396074 149.312593 
L 328.290993 190.492921 
L 329.185912 68.589791 
L 330.080831 37.704545 
L 330.975751 95.731371 
L 331.87067 98.7731 
L 332.765589 80.990686 
L 333.660508 132.700075 
L 334.555427 107.664307 
L 335.450346 107.898286 
L 336.345266 119.831222 
L 337.240185 135.975782 
L 338.135104 146.270864 
L 339.030023 140.889344 
L 339.924942 186.749255 
L 340.819861 104.388599 
L 341.714781 133.168033 
L 342.6097 169.20082 
L 343.504619 181.367735 
L 344.399538 178.326006 
L 345.294457 205.233607 
L 346.189376 189.323025 
L 347.084296 196.576379 
L 347.979215 199.618107 
L 348.874134 202.191878 
L 349.769053 198.214232 
L 350.663972 205.233607 
L 351.558891 210.147168 
L 352.453811 214.358793 
L 353.34873 215.06073 
L 354.243649 213.422876 
L 355.138568 218.570417 
L 356.033487 207.807377 
L 356.928406 220.910209 
L 357.823326 213.890835 
L 359.613164 227.929583 
L 360.508083 212.019001 
L 361.403002 223.483979 
L 362.297921 226.525708 
L 363.192841 233.077124 
L 364.08776 230.971311 
L 364.982679 233.311103 
L 365.877598 227.227645 
L 366.772517 231.673249 
L 367.667436 223.25 
L 368.562356 231.205291 
L 369.457275 230.737332 
L 370.352194 231.673249 
L 371.247113 235.182936 
L 372.142032 223.483979 
L 373.036952 234.01304 
L 373.931871 234.714978 
L 374.82679 237.288748 
L 375.721709 236.82079 
L 376.616628 235.650894 
L 377.511547 240.096498 
L 378.406467 241.032414 
L 379.301386 234.247019 
L 380.196305 226.525708 
L 381.091224 228.865499 
L 381.986143 238.926602 
L 382.881062 242.436289 
L 383.775982 239.862519 
L 384.670901 241.968331 
L 385.56582 229.333458 
L 386.460739 234.247019 
L 387.355658 232.141207 
L 388.250577 228.63152 
L 389.145497 236.118852 
L 390.040416 231.907228 
L 390.935335 239.39456 
L 391.830254 229.801416 
L 392.725173 230.035395 
L 393.620092 216.464605 
L 394.515012 216.230626 
L 395.409931 223.483979 
L 396.30485 235.182936 
L 397.199769 239.160581 
L 398.094688 238.458644 
L 398.989607 234.714978 
L 399.884527 235.884873 
L 400.779446 232.141207 
L 401.674365 238.224665 
L 402.569284 245.945976 
L 403.464203 232.375186 
L 404.359122 200.788003 
L 405.254042 216.464605 
L 407.04388 173.412444 
L 407.938799 175.752235 
L 408.833718 190.7269 
L 409.728637 145.100969 
L 410.623557 157.267884 
L 411.518476 131.764158 
L 412.413395 162.649404 
L 413.308314 130.126304 
L 414.203233 163.58532 
L 415.098152 157.735842 
L 415.993072 131.530179 
L 416.887991 122.872951 
L 417.78291 146.504844 
L 418.677829 111.173994 
L 420.467667 157.033905 
L 421.362587 157.969821 
L 422.257506 140.187407 
L 423.152425 107.664307 
L 424.047344 146.738823 
L 424.942263 118.427347 
L 425.837182 105.090537 
L 426.732102 152.120343 
L 427.627021 164.989195 
L 428.52194 138.549553 
L 429.416859 92.455663 
L 430.311778 135.273845 
L 431.206697 130.594262 
L 432.101617 110.472057 
L 432.996536 122.404993 
L 433.891455 152.120343 
L 434.786374 125.91468 
L 435.681293 104.622578 
L 436.576212 131.764158 
L 437.471132 128.020492 
L 438.366051 139.25149 
L 439.26097 157.033905 
L 440.155889 151.184426 
L 441.050808 153.524218 
L 441.945727 117.491431 
L 442.840647 131.530179 
L 443.735566 112.577869 
L 444.630485 108.600224 
L 445.525404 141.357303 
L 446.420323 137.847615 
L 447.315242 46.595753 
L 448.210162 99.475037 
L 449.105081 104.622578 
L 450 206.637481 
L 450 206.637481 
" style="fill:none;stroke:#000000;stroke-dasharray:1.5,2.475;stroke-dashoffset:0;stroke-opacity:0.5;stroke-width:1.5;"/>
   </g>
   <g id="line2d_23">
    <path clip-path="url(#p6c706b1e8a)" d="M 62.5 251.561475 
L 63.394919 251.093517 
L 64.289838 251.093517 
L 67.869515 250.157601 
L 69.659353 250.157601 
L 70.554273 250.39158 
L 71.449192 250.39158 
L 72.344111 250.157601 
L 74.133949 250.157601 
L 75.028868 249.923621 
L 75.923788 249.455663 
L 76.818707 249.221684 
L 77.713626 249.221684 
L 78.608545 249.689642 
L 79.503464 249.923621 
L 80.398383 249.923621 
L 81.293303 250.39158 
L 82.188222 250.625559 
L 83.97806 250.625559 
L 86.662818 249.923621 
L 87.557737 249.923621 
L 88.452656 249.689642 
L 92.032333 249.689642 
L 92.927252 249.923621 
L 94.71709 249.455663 
L 97.401848 249.455663 
L 99.191686 249.923621 
L 100.981524 249.923621 
L 101.876443 250.157601 
L 102.771363 249.923621 
L 103.666282 249.923621 
L 105.45612 249.455663 
L 106.351039 249.455663 
L 107.245958 248.987705 
L 109.035797 248.987705 
L 109.930716 248.753726 
L 112.615473 249.455663 
L 113.510393 249.221684 
L 115.300231 249.221684 
L 116.19515 248.753726 
L 117.090069 248.519747 
L 118.879908 248.519747 
L 119.774827 248.987705 
L 120.669746 248.519747 
L 121.564665 247.58383 
L 122.459584 246.881893 
L 123.354503 246.413934 
L 124.249423 245.478018 
L 126.93418 244.77608 
L 127.829099 245.01006 
L 128.724018 244.77608 
L 131.408776 244.77608 
L 132.303695 244.542101 
L 133.198614 244.542101 
L 134.988453 244.074143 
L 135.883372 244.074143 
L 136.778291 244.308122 
L 137.67321 244.308122 
L 138.568129 244.77608 
L 139.463048 244.542101 
L 141.252887 242.20231 
L 142.147806 239.862519 
L 143.042725 238.224665 
L 143.937644 237.054769 
L 144.832564 236.352832 
L 145.727483 234.01304 
L 146.622402 233.779061 
L 147.517321 232.843145 
L 148.41224 232.609165 
L 149.307159 231.205291 
L 150.202079 230.971311 
L 151.096998 229.099478 
L 151.991917 229.099478 
L 152.886836 225.355812 
L 153.781755 224.185917 
L 154.676674 222.314083 
L 155.571594 222.080104 
L 156.466513 221.378167 
L 157.361432 220.44225 
L 159.15127 219.506334 
L 160.046189 216.230626 
L 160.941109 214.592772 
L 161.836028 214.358793 
L 162.730947 213.188897 
L 163.625866 214.358793 
L 164.520785 212.48696 
L 165.415704 209.67921 
L 166.310624 208.041356 
L 168.100462 202.191878 
L 168.995381 203.127794 
L 170.785219 196.10842 
L 171.680139 195.640462 
L 172.575058 189.790984 
L 173.469977 186.983234 
L 174.364896 187.685171 
L 175.259815 183.005589 
L 176.154734 180.899776 
L 177.049654 181.133756 
L 177.944573 178.559985 
L 178.839492 178.326006 
L 180.62933 169.668778 
L 181.524249 171.540611 
L 182.419169 164.521237 
L 183.314088 160.075633 
L 184.209007 154.694113 
L 185.103926 150.24851 
L 185.998845 146.738823 
L 186.893764 145.568927 
L 187.788684 142.527198 
L 188.683603 142.995156 
L 190.473441 129.892325 
L 192.263279 124.042846 
L 193.158199 118.661326 
L 194.053118 116.789493 
L 194.948037 113.513785 
L 196.737875 123.574888 
L 197.632794 124.510805 
L 198.527714 130.594262 
L 199.422633 135.273845 
L 200.317552 138.549553 
L 201.212471 144.165052 
L 202.10739 139.953428 
L 203.002309 144.165052 
L 204.792148 157.501863 
L 205.687067 166.159091 
L 206.581986 168.966841 
L 207.476905 173.646423 
L 208.371824 180.665797 
L 209.266744 182.303651 
L 210.161663 185.34538 
L 211.056582 189.323025 
L 212.84642 203.127794 
L 213.741339 204.29769 
L 214.636259 204.999627 
L 215.531178 204.765648 
L 216.426097 202.893815 
L 217.321016 201.48994 
L 218.215935 203.127794 
L 219.110855 206.403502 
L 220.005774 208.041356 
L 220.900693 208.977273 
L 221.795612 210.615127 
L 222.690531 212.48696 
L 223.58545 211.785022 
L 224.48037 210.381148 
L 225.375289 210.849106 
L 226.270208 211.551043 
L 227.165127 210.147168 
L 228.060046 210.615127 
L 228.954965 209.67921 
L 229.849885 208.509314 
L 230.744804 208.977273 
L 231.639723 210.381148 
L 232.534642 212.019001 
L 233.429561 215.294709 
L 234.32448 215.996647 
L 235.2194 215.762668 
L 236.114319 213.656855 
L 237.009238 210.849106 
L 237.904157 209.913189 
L 238.799076 209.445231 
L 239.693995 206.637481 
L 240.588915 205.935544 
L 241.483834 206.403502 
L 242.378753 208.041356 
L 243.273672 209.211252 
L 244.168591 211.551043 
L 245.06351 214.358793 
L 245.95843 218.336438 
L 246.853349 217.86848 
L 247.748268 216.698584 
L 251.327945 206.169523 
L 252.222864 205.701565 
L 253.117783 206.871461 
L 254.012702 205.935544 
L 254.907621 206.169523 
L 255.80254 207.10544 
L 257.592379 207.573398 
L 259.382217 204.29769 
L 260.277136 203.595753 
L 261.172055 201.72392 
L 262.066975 200.554024 
L 262.961894 200.086066 
L 263.856813 201.255961 
L 264.751732 201.021982 
L 266.54157 201.957899 
L 267.43649 202.893815 
L 268.331409 203.127794 
L 269.226328 205.233607 
L 270.121247 205.701565 
L 271.016166 206.637481 
L 271.911085 205.701565 
L 272.806005 205.233607 
L 273.700924 205.701565 
L 274.595843 208.041356 
L 275.490762 208.041356 
L 276.385681 207.10544 
L 277.2806 207.573398 
L 278.17552 207.10544 
L 279.070439 205.233607 
L 279.965358 204.063711 
L 281.755196 204.063711 
L 282.650115 204.29769 
L 283.545035 200.320045 
L 284.439954 197.980253 
L 285.334873 194.938525 
L 286.229792 193.53465 
L 287.124711 192.598733 
L 288.01963 194.470566 
L 288.91455 194.704545 
L 290.704388 195.640462 
L 291.599307 192.364754 
L 292.494226 189.557004 
L 293.389145 188.621088 
L 294.284065 187.217213 
L 295.178984 188.15313 
L 296.073903 189.790984 
L 296.968822 188.621088 
L 297.863741 188.855067 
L 298.758661 186.047317 
L 299.65358 183.707526 
L 300.548499 179.96386 
L 301.443418 175.518256 
L 302.338337 167.095007 
L 303.233256 163.58532 
L 305.023095 154.928092 
L 305.918014 154.460134 
L 306.812933 154.226155 
L 307.707852 151.886364 
L 308.602771 152.120343 
L 309.497691 147.206781 
L 310.39261 149.546572 
L 311.287529 151.184426 
L 312.182448 149.078614 
L 313.077367 149.312593 
L 313.972286 146.738823 
L 314.867206 139.719449 
L 315.762125 136.911699 
L 317.551963 139.719449 
L 318.446882 138.783532 
L 319.341801 141.825261 
L 320.236721 138.315574 
L 321.13164 134.337928 
L 322.026559 121.937034 
L 322.921478 107.430328 
L 323.816397 103.452683 
L 324.711316 108.834203 
L 325.606236 116.789493 
L 326.501155 120.767139 
L 327.396074 115.619598 
L 328.290993 113.513785 
L 329.185912 107.898286 
L 330.080831 99.007079 
L 330.975751 94.795455 
L 331.87067 89.179955 
L 332.765589 96.667288 
L 333.660508 106.494411 
L 334.555427 111.875931 
L 335.450346 118.427347 
L 337.240185 134.103949 
L 339.030023 140.421386 
L 341.714781 154.226155 
L 342.6097 163.117362 
L 343.504619 168.030924 
L 344.399538 180.665797 
L 345.294457 189.089046 
L 346.189376 193.53465 
L 347.084296 196.10842 
L 347.979215 199.150149 
L 348.874134 200.320045 
L 350.663972 206.169523 
L 352.453811 211.083085 
L 354.243649 214.358793 
L 355.138568 214.826751 
L 356.033487 215.528689 
L 356.928406 217.166542 
L 357.823326 217.634501 
L 358.718245 218.570417 
L 359.613164 220.67623 
L 360.508083 222.314083 
L 361.403002 224.653875 
L 362.297921 226.525708 
L 363.192841 227.461624 
L 364.08776 229.801416 
L 364.982679 229.801416 
L 365.877598 230.035395 
L 366.772517 229.567437 
L 367.667436 229.567437 
L 368.562356 230.035395 
L 369.457275 229.801416 
L 370.352194 230.269374 
L 371.247113 231.43927 
L 372.142032 232.141207 
L 373.036952 233.077124 
L 373.931871 233.779061 
L 374.82679 234.948957 
L 375.721709 237.054769 
L 376.616628 237.288748 
L 377.511547 236.586811 
L 378.406467 235.182936 
L 379.301386 234.714978 
L 380.196305 235.182936 
L 381.091224 235.182936 
L 381.986143 236.118852 
L 382.881062 236.352832 
L 383.775982 237.288748 
L 384.670901 237.054769 
L 385.56582 235.416915 
L 387.355658 233.077124 
L 388.250577 232.843145 
L 389.145497 233.311103 
L 390.040416 232.843145 
L 390.935335 231.205291 
L 391.830254 229.099478 
L 392.725173 226.525708 
L 393.620092 226.05775 
L 394.515012 226.05775 
L 395.409931 227.695604 
L 396.30485 229.567437 
L 397.199769 232.843145 
L 398.094688 234.948957 
L 399.884527 237.288748 
L 400.779446 236.82079 
L 401.674365 233.077124 
L 402.569284 230.035395 
L 403.464203 223.951937 
L 404.359122 215.294709 
L 405.254042 205.233607 
L 406.148961 196.576379 
L 407.04388 185.813338 
L 407.938799 178.559985 
L 408.833718 167.796945 
L 410.623557 155.63003 
L 412.413395 149.078614 
L 413.308314 148.142697 
L 414.203233 144.63301 
L 415.098152 144.86699 
L 415.993072 138.783532 
L 417.78291 135.039866 
L 418.677829 135.975782 
L 419.572748 138.549553 
L 420.467667 138.081595 
L 421.362587 138.315574 
L 422.257506 138.081595 
L 423.152425 133.168033 
L 424.047344 130.594262 
L 424.942263 131.2962 
L 425.837182 133.168033 
L 426.732102 132.934054 
L 427.627021 131.764158 
L 428.52194 132.232116 
L 429.416859 131.062221 
L 430.311778 126.148659 
L 431.206697 124.744784 
L 432.101617 124.744784 
L 432.996536 126.382638 
L 433.891455 125.91468 
L 434.786374 125.6807 
L 435.681293 128.254471 
L 436.576212 131.764158 
L 437.471132 133.635991 
L 438.366051 138.783532 
L 439.26097 141.591282 
L 440.155889 141.591282 
L 441.050808 138.783532 
L 441.945727 133.168033 
L 442.840647 128.956408 
L 443.735566 126.850596 
L 444.630485 116.321535 
L 445.525404 112.577869 
L 446.420323 107.664307 
L 447.315242 115.619598 
L 448.210162 118.427347 
L 449.105081 119.831222 
L 450 123.340909 
L 450 123.340909 
" style="fill:none;stroke:#b3220f;stroke-linecap:square;stroke-width:1.5;"/>
   </g>
   <g id="patch_3">
    <path d="M 62.5 262.5 
L 62.5 27 
" style="fill:none;stroke:#555555;stroke-linecap:square;stroke-linejoin:miter;"/>
   </g>
   <g id="patch_4">
    <path d="M 62.5 262.5 
L 450 262.5 
" style="fill:none;stroke:#555555;stroke-linecap:square;stroke-linejoin:miter;"/>
   </g>
   <g id="text_12">
    <!-- Engativá | Casos nuevos: 2021-05-27 -->
    <g style="fill:#555555;" transform="translate(139.030625 17)scale(0.14 -0.14)">
     <defs>
      <path d="M 7.796875 71.40625 
L 7.796875 0 
L 57.40625 0 
L 57.40625 8 
L 17.296875 8 
L 17.296875 32.703125 
L 54.40625 32.703125 
L 54.40625 40.703125 
L 17.296875 40.703125 
L 17.296875 63.40625 
L 57.09375 63.40625 
L 57.09375 71.40625 
z
" id="HelveticaNeue-69"/>
      <path d="M 51 4.40625 
L 51 51.703125 
L 43 51.703125 
L 43 44.296875 
L 42.90625 44.296875 
Q 40.59375 48.59375 36.5 50.75 
Q 32.40625 52.90625 27.5 52.90625 
Q 20.796875 52.90625 16.1875 50.34375 
Q 11.59375 47.796875 8.796875 43.84375 
Q 6 39.90625 4.796875 35.046875 
Q 3.59375 30.203125 3.59375 25.59375 
Q 3.59375 20.296875 5.046875 15.546875 
Q 6.5 10.796875 9.390625 7.25 
Q 12.296875 3.703125 16.59375 1.59375 
Q 20.90625 -0.5 26.703125 -0.5 
Q 31.703125 -0.5 36.140625 1.75 
Q 40.59375 4 42.796875 8.796875 
L 43 8.796875 
L 43 5.40625 
Q 43 1.09375 42.140625 -2.5 
Q 41.296875 -6.09375 39.390625 -8.640625 
Q 37.5 -11.203125 34.59375 -12.640625 
Q 31.703125 -14.09375 27.5 -14.09375 
Q 25.40625 -14.09375 23.09375 -13.640625 
Q 20.796875 -13.203125 18.84375 -12.203125 
Q 16.90625 -11.203125 15.546875 -9.59375 
Q 14.203125 -8 14.09375 -5.703125 
L 5.59375 -5.703125 
Q 5.796875 -9.90625 7.796875 -12.796875 
Q 9.796875 -15.703125 12.84375 -17.5 
Q 15.90625 -19.296875 19.65625 -20.09375 
Q 23.40625 -20.90625 27 -20.90625 
Q 39.40625 -20.90625 45.203125 -14.59375 
Q 51 -8.296875 51 4.40625 
z
M 27.203125 6.90625 
Q 23 6.90625 20.203125 8.65625 
Q 17.40625 10.40625 15.703125 13.25 
Q 14 16.09375 13.296875 19.59375 
Q 12.59375 23.09375 12.59375 26.59375 
Q 12.59375 30.296875 13.4375 33.6875 
Q 14.296875 37.09375 16.140625 39.6875 
Q 18 42.296875 20.890625 43.84375 
Q 23.796875 45.40625 27.90625 45.40625 
Q 31.90625 45.40625 34.703125 43.796875 
Q 37.5 42.203125 39.25 39.546875 
Q 41 36.90625 41.796875 33.59375 
Q 42.59375 30.296875 42.59375 26.90625 
Q 42.59375 23.296875 41.75 19.6875 
Q 40.90625 16.09375 39.09375 13.25 
Q 37.296875 10.40625 34.34375 8.65625 
Q 31.40625 6.90625 27.203125 6.90625 
z
" id="HelveticaNeue-103"/>
      <path d="M 15.40625 61 
L 15.40625 71.40625 
L 6.90625 71.40625 
L 6.90625 61 
z
M 6.90625 51.703125 
L 6.90625 0 
L 15.40625 0 
L 15.40625 51.703125 
z
" id="HelveticaNeue-105"/>
      <path d="M 29.703125 0 
L 48.59375 51.703125 
L 39.703125 51.703125 
L 25.59375 8.59375 
L 25.40625 8.59375 
L 10.90625 51.703125 
L 1.40625 51.703125 
L 20.59375 0 
z
" id="HelveticaNeue-118"/>
      <path d="M 52.203125 0.203125 
Q 50 -1.09375 46.09375 -1.09375 
Q 42.796875 -1.09375 40.84375 0.75 
Q 38.90625 2.59375 38.90625 6.796875 
Q 35.40625 2.59375 30.75 0.75 
Q 26.09375 -1.09375 20.703125 -1.09375 
Q 17.203125 -1.09375 14.046875 -0.296875 
Q 10.90625 0.5 8.59375 2.203125 
Q 6.296875 3.90625 4.9375 6.65625 
Q 3.59375 9.40625 3.59375 13.296875 
Q 3.59375 17.703125 5.09375 20.5 
Q 6.59375 23.296875 9.046875 25.046875 
Q 11.5 26.796875 14.640625 27.6875 
Q 17.796875 28.59375 21.09375 29.203125 
Q 24.59375 29.90625 27.75 30.25 
Q 30.90625 30.59375 33.296875 31.25 
Q 35.703125 31.90625 37.09375 33.15625 
Q 38.5 34.40625 38.5 36.796875 
Q 38.5 39.59375 37.453125 41.296875 
Q 36.40625 43 34.75 43.890625 
Q 33.09375 44.796875 31.046875 45.09375 
Q 29 45.40625 27 45.40625 
Q 21.59375 45.40625 18 43.34375 
Q 14.40625 41.296875 14.09375 35.59375 
L 5.59375 35.59375 
Q 5.796875 40.40625 7.59375 43.703125 
Q 9.40625 47 12.40625 49.046875 
Q 15.40625 51.09375 19.25 52 
Q 23.09375 52.90625 27.5 52.90625 
Q 31 52.90625 34.453125 52.40625 
Q 37.90625 51.90625 40.703125 50.34375 
Q 43.5 48.796875 45.203125 46 
Q 46.90625 43.203125 46.90625 38.703125 
L 46.90625 12.09375 
Q 46.90625 9.09375 47.25 7.6875 
Q 47.59375 6.296875 49.59375 6.296875 
Q 50.703125 6.296875 52.203125 6.796875 
z
M 38.40625 26.703125 
Q 36.796875 25.5 34.1875 24.953125 
Q 31.59375 24.40625 28.75 24.046875 
Q 25.90625 23.703125 23 23.25 
Q 20.09375 22.796875 17.796875 21.796875 
Q 15.5 20.796875 14.046875 18.9375 
Q 12.59375 17.09375 12.59375 13.90625 
Q 12.59375 11.796875 13.4375 10.34375 
Q 14.296875 8.90625 15.640625 8 
Q 17 7.09375 18.796875 6.6875 
Q 20.59375 6.296875 22.59375 6.296875 
Q 26.796875 6.296875 29.796875 7.4375 
Q 32.796875 8.59375 34.6875 10.34375 
Q 36.59375 12.09375 37.5 14.140625 
Q 38.40625 16.203125 38.40625 18 
z
M 41.296875 77 
L 27.203125 60.796875 
L 20.796875 60.796875 
L 30.40625 77 
z
" id="HelveticaNeue-225"/>
      <path id="HelveticaNeue-32"/>
      <path d="M 7.703125 78.59375 
L 7.703125 -21.296875 
L 14.5 -21.296875 
L 14.5 78.59375 
z
" id="HelveticaNeue-124"/>
      <path d="M 58 49.90625 
L 67.5 49.90625 
Q 66.703125 55.59375 64.09375 59.9375 
Q 61.5 64.296875 57.59375 67.1875 
Q 53.703125 70.09375 48.703125 71.59375 
Q 43.703125 73.09375 38.09375 73.09375 
Q 29.90625 73.09375 23.546875 70.140625 
Q 17.203125 67.203125 12.953125 62.09375 
Q 8.703125 57 6.5 50.140625 
Q 4.296875 43.296875 4.296875 35.5 
Q 4.296875 27.703125 6.34375 20.890625 
Q 8.40625 14.09375 12.5 9.09375 
Q 16.59375 4.09375 22.796875 1.25 
Q 29 -1.59375 37.296875 -1.59375 
Q 51 -1.59375 58.890625 5.90625 
Q 66.796875 13.40625 68.203125 26.90625 
L 58.703125 26.90625 
Q 58.40625 22.5 56.90625 18.703125 
Q 55.40625 14.90625 52.75 12.15625 
Q 50.09375 9.40625 46.4375 7.84375 
Q 42.796875 6.296875 38.09375 6.296875 
Q 31.703125 6.296875 27.09375 8.6875 
Q 22.5 11.09375 19.546875 15.140625 
Q 16.59375 19.203125 15.1875 24.640625 
Q 13.796875 30.09375 13.796875 36.203125 
Q 13.796875 41.796875 15.1875 47 
Q 16.59375 52.203125 19.546875 56.25 
Q 22.5 60.296875 27.046875 62.6875 
Q 31.59375 65.09375 38 65.09375 
Q 45.5 65.09375 50.953125 61.296875 
Q 56.40625 57.5 58 49.90625 
z
" id="HelveticaNeue-67"/>
      <path d="M 11.59375 16.296875 
L 3.09375 16.296875 
Q 3.296875 11.5 5.09375 8.140625 
Q 6.90625 4.796875 9.90625 2.75 
Q 12.90625 0.703125 16.796875 -0.1875 
Q 20.703125 -1.09375 25 -1.09375 
Q 28.90625 -1.09375 32.84375 -0.34375 
Q 36.796875 0.40625 39.9375 2.296875 
Q 43.09375 4.203125 45.046875 7.296875 
Q 47 10.40625 47 15.09375 
Q 47 18.796875 45.546875 21.296875 
Q 44.09375 23.796875 41.75 25.4375 
Q 39.40625 27.09375 36.34375 28.09375 
Q 33.296875 29.09375 30.09375 29.796875 
Q 27.09375 30.5 24.09375 31.140625 
Q 21.09375 31.796875 18.6875 32.75 
Q 16.296875 33.703125 14.75 35.140625 
Q 13.203125 36.59375 13.203125 38.796875 
Q 13.203125 40.796875 14.203125 42.046875 
Q 15.203125 43.296875 16.796875 44.046875 
Q 18.40625 44.796875 20.34375 45.09375 
Q 22.296875 45.40625 24.203125 45.40625 
Q 26.296875 45.40625 28.34375 44.953125 
Q 30.40625 44.5 32.09375 43.5 
Q 33.796875 42.5 34.890625 40.84375 
Q 36 39.203125 36.203125 36.703125 
L 44.703125 36.703125 
Q 44.40625 41.40625 42.703125 44.546875 
Q 41 47.703125 38.140625 49.546875 
Q 35.296875 51.40625 31.59375 52.15625 
Q 27.90625 52.90625 23.5 52.90625 
Q 20.09375 52.90625 16.640625 52.046875 
Q 13.203125 51.203125 10.453125 49.453125 
Q 7.703125 47.703125 5.953125 44.890625 
Q 4.203125 42.09375 4.203125 38.203125 
Q 4.203125 33.203125 6.703125 30.390625 
Q 9.203125 27.59375 12.953125 26.046875 
Q 16.703125 24.5 21.09375 23.640625 
Q 25.5 22.796875 29.25 21.75 
Q 33 20.703125 35.5 19 
Q 38 17.296875 38 14 
Q 38 11.59375 36.796875 10.046875 
Q 35.59375 8.5 33.75 7.703125 
Q 31.90625 6.90625 29.703125 6.59375 
Q 27.5 6.296875 25.5 6.296875 
Q 22.90625 6.296875 20.453125 6.796875 
Q 18 7.296875 16.046875 8.4375 
Q 14.09375 9.59375 12.890625 11.546875 
Q 11.703125 13.5 11.59375 16.296875 
z
" id="HelveticaNeue-115"/>
      <path d="M 12.59375 25.796875 
Q 12.59375 30.5 13.84375 34.140625 
Q 15.09375 37.796875 17.296875 40.296875 
Q 19.5 42.796875 22.453125 44.09375 
Q 25.40625 45.40625 28.703125 45.40625 
Q 32 45.40625 34.953125 44.09375 
Q 37.90625 42.796875 40.09375 40.296875 
Q 42.296875 37.796875 43.546875 34.140625 
Q 44.796875 30.5 44.796875 25.796875 
Q 44.796875 21.09375 43.546875 17.4375 
Q 42.296875 13.796875 40.09375 11.34375 
Q 37.90625 8.90625 34.953125 7.59375 
Q 32 6.296875 28.703125 6.296875 
Q 25.40625 6.296875 22.453125 7.59375 
Q 19.5 8.90625 17.296875 11.34375 
Q 15.09375 13.796875 13.84375 17.4375 
Q 12.59375 21.09375 12.59375 25.796875 
z
M 3.59375 25.796875 
Q 3.59375 20.09375 5.1875 15.1875 
Q 6.796875 10.296875 10 6.640625 
Q 13.203125 3 17.890625 0.953125 
Q 22.59375 -1.09375 28.703125 -1.09375 
Q 34.90625 -1.09375 39.546875 0.953125 
Q 44.203125 3 47.390625 6.640625 
Q 50.59375 10.296875 52.1875 15.1875 
Q 53.796875 20.09375 53.796875 25.796875 
Q 53.796875 31.5 52.1875 36.453125 
Q 50.59375 41.40625 47.390625 45.046875 
Q 44.203125 48.703125 39.546875 50.796875 
Q 34.90625 52.90625 28.703125 52.90625 
Q 22.59375 52.90625 17.890625 50.796875 
Q 13.203125 48.703125 10 45.046875 
Q 6.796875 41.40625 5.1875 36.453125 
Q 3.59375 31.5 3.59375 25.796875 
z
" id="HelveticaNeue-111"/>
      <path d="M 19.40625 40.59375 
L 19.40625 51.703125 
L 8.296875 51.703125 
L 8.296875 40.59375 
z
M 8.296875 11.09375 
L 8.296875 0 
L 19.40625 0 
L 19.40625 11.09375 
z
" id="HelveticaNeue-58"/>
      <path d="M 5 31.796875 
L 5 23.796875 
L 33.90625 23.796875 
L 33.90625 31.796875 
z
" id="HelveticaNeue-45"/>
      <path d="M 47 62.203125 
L 47 69.703125 
L 12 69.703125 
L 5.40625 32.90625 
L 12.703125 32.5 
Q 15.203125 35.5 18.453125 37.34375 
Q 21.703125 39.203125 25.90625 39.203125 
Q 29.5 39.203125 32.453125 38 
Q 35.40625 36.796875 37.5 34.640625 
Q 39.59375 32.5 40.75 29.546875 
Q 41.90625 26.59375 41.90625 23.09375 
Q 41.90625 18.90625 40.703125 15.75 
Q 39.5 12.59375 37.453125 10.5 
Q 35.40625 8.40625 32.65625 7.34375 
Q 29.90625 6.296875 26.90625 6.296875 
Q 23.703125 6.296875 21.046875 7.25 
Q 18.40625 8.203125 16.453125 9.953125 
Q 14.5 11.703125 13.34375 14.046875 
Q 12.203125 16.40625 12 19.09375 
L 3.5 19.09375 
Q 3.59375 14.296875 5.390625 10.5 
Q 7.203125 6.703125 10.296875 4.140625 
Q 13.40625 1.59375 17.453125 0.25 
Q 21.5 -1.09375 26.09375 -1.09375 
Q 32.296875 -1.09375 36.9375 0.84375 
Q 41.59375 2.796875 44.6875 6.09375 
Q 47.796875 9.40625 49.34375 13.65625 
Q 50.90625 17.90625 50.90625 22.40625 
Q 50.90625 28.5 49.09375 33.046875 
Q 47.296875 37.59375 44.1875 40.640625 
Q 41.09375 43.703125 36.890625 45.203125 
Q 32.703125 46.703125 28 46.703125 
Q 24.40625 46.703125 20.75 45.453125 
Q 17.09375 44.203125 14.796875 41.59375 
L 14.59375 41.796875 
L 18.40625 62.203125 
z
" id="HelveticaNeue-53"/>
      <path d="M 50.90625 62.40625 
L 50.90625 69.703125 
L 5 69.703125 
L 5 61.703125 
L 42.203125 61.703125 
Q 36.59375 55.796875 31.75 48.796875 
Q 26.90625 41.796875 23.203125 33.9375 
Q 19.5 26.09375 17.140625 17.546875 
Q 14.796875 9 14.203125 0 
L 23.703125 0 
Q 24.203125 8.296875 26.5 17.09375 
Q 28.796875 25.90625 32.4375 34.203125 
Q 36.09375 42.5 40.796875 49.796875 
Q 45.5 57.09375 50.90625 62.40625 
z
" id="HelveticaNeue-55"/>
     </defs>
     <use xlink:href="#HelveticaNeue-69"/>
     <use x="61.099991" xlink:href="#HelveticaNeue-110"/>
     <use x="116.699982" xlink:href="#HelveticaNeue-103"/>
     <use x="174.099976" xlink:href="#HelveticaNeue-97"/>
     <use x="227.799973" xlink:href="#HelveticaNeue-116"/>
     <use x="259.299957" xlink:href="#HelveticaNeue-105"/>
     <use x="281.499954" xlink:href="#HelveticaNeue-118"/>
     <use x="331.499939" xlink:href="#HelveticaNeue-225"/>
     <use x="385.199936" xlink:href="#HelveticaNeue-32"/>
     <use x="412.999924" xlink:href="#HelveticaNeue-124"/>
     <use x="435.199921" xlink:href="#HelveticaNeue-32"/>
     <use x="462.999908" xlink:href="#HelveticaNeue-67"/>
     <use x="535.19989" xlink:href="#HelveticaNeue-97"/>
     <use x="588.899887" xlink:href="#HelveticaNeue-115"/>
     <use x="638.899872" xlink:href="#HelveticaNeue-111"/>
     <use x="696.299866" xlink:href="#HelveticaNeue-115"/>
     <use x="746.29985" xlink:href="#HelveticaNeue-32"/>
     <use x="774.099838" xlink:href="#HelveticaNeue-110"/>
     <use x="829.699829" xlink:href="#HelveticaNeue-117"/>
     <use x="885.29982" xlink:href="#HelveticaNeue-101"/>
     <use x="938.999817" xlink:href="#HelveticaNeue-118"/>
     <use x="988.999802" xlink:href="#HelveticaNeue-111"/>
     <use x="1046.399796" xlink:href="#HelveticaNeue-115"/>
     <use x="1096.39978" xlink:href="#HelveticaNeue-58"/>
     <use x="1124.199768" xlink:href="#HelveticaNeue-32"/>
     <use x="1151.999756" xlink:href="#HelveticaNeue-50"/>
     <use x="1207.599747" xlink:href="#HelveticaNeue-48"/>
     <use x="1263.199738" xlink:href="#HelveticaNeue-50"/>
     <use x="1318.799728" xlink:href="#HelveticaNeue-49"/>
     <use x="1374.399719" xlink:href="#HelveticaNeue-45"/>
     <use x="1413.299713" xlink:href="#HelveticaNeue-48"/>
     <use x="1468.899704" xlink:href="#HelveticaNeue-53"/>
     <use x="1524.499695" xlink:href="#HelveticaNeue-45"/>
     <use x="1563.399689" xlink:href="#HelveticaNeue-50"/>
     <use x="1618.99968" xlink:href="#HelveticaNeue-55"/>
    </g>
   </g>
   <g id="legend_1">
    <g id="line2d_24">
     <path d="M 71.5 39.640625 
L 91.5 39.640625 
" style="fill:none;stroke:#000000;stroke-dasharray:1.5,2.475;stroke-dashoffset:0;stroke-opacity:0.5;stroke-width:1.5;"/>
    </g>
    <g id="line2d_25"/>
    <g id="text_13">
     <!-- Actual -->
     <g style="fill:#555555;" transform="translate(99.5 43.140625)scale(0.1 -0.1)">
      <use xlink:href="#HelveticaNeue-65"/>
      <use x="64.799988" xlink:href="#HelveticaNeue-99"/>
      <use x="118.499985" xlink:href="#HelveticaNeue-116"/>
      <use x="149.999969" xlink:href="#HelveticaNeue-117"/>
      <use x="205.59996" xlink:href="#HelveticaNeue-97"/>
      <use x="259.299957" xlink:href="#HelveticaNeue-108"/>
     </g>
    </g>
    <g id="line2d_26">
     <path d="M 71.5 54.310937 
L 91.5 54.310937 
" style="fill:none;stroke:#b3220f;stroke-linecap:square;stroke-width:1.5;"/>
    </g>
    <g id="line2d_27"/>
    <g id="text_14">
     <!-- Promedio semanal (7 días)  -->
     <g style="fill:#555555;" transform="translate(99.5 57.810937)scale(0.1 -0.1)">
      <defs>
       <path d="M 17.296875 37.203125 
L 17.296875 63.40625 
L 35.90625 63.40625 
Q 44 63.40625 47.75 60.046875 
Q 51.5 56.703125 51.5 50.296875 
Q 51.5 43.90625 47.75 40.5 
Q 44 37.09375 35.90625 37.203125 
z
M 7.796875 71.40625 
L 7.796875 0 
L 17.296875 0 
L 17.296875 29.203125 
L 39.09375 29.203125 
Q 49.90625 29.09375 55.453125 34.6875 
Q 61 40.296875 61 50.296875 
Q 61 60.296875 55.453125 65.84375 
Q 49.90625 71.40625 39.09375 71.40625 
z
" id="HelveticaNeue-80"/>
       <path d="M 6.40625 51.703125 
L 6.40625 0 
L 14.90625 0 
L 14.90625 32.203125 
Q 14.90625 33.703125 15.65625 35.953125 
Q 16.40625 38.203125 18.046875 40.296875 
Q 19.703125 42.40625 22.34375 43.90625 
Q 25 45.40625 28.703125 45.40625 
Q 31.59375 45.40625 33.4375 44.546875 
Q 35.296875 43.703125 36.390625 42.140625 
Q 37.5 40.59375 37.953125 38.5 
Q 38.40625 36.40625 38.40625 33.90625 
L 38.40625 0 
L 46.90625 0 
L 46.90625 32.203125 
Q 46.90625 38.203125 50.5 41.796875 
Q 54.09375 45.40625 60.40625 45.40625 
Q 63.5 45.40625 65.453125 44.5 
Q 67.40625 43.59375 68.5 42.046875 
Q 69.59375 40.5 70 38.390625 
Q 70.40625 36.296875 70.40625 33.90625 
L 70.40625 0 
L 78.90625 0 
L 78.90625 37.90625 
Q 78.90625 41.90625 77.65625 44.75 
Q 76.40625 47.59375 74.15625 49.390625 
Q 71.90625 51.203125 68.75 52.046875 
Q 65.59375 52.90625 61.703125 52.90625 
Q 56.59375 52.90625 52.34375 50.59375 
Q 48.09375 48.296875 45.5 44.09375 
Q 43.90625 48.90625 40 50.90625 
Q 36.09375 52.90625 31.296875 52.90625 
Q 20.40625 52.90625 14.59375 44.09375 
L 14.40625 44.09375 
L 14.40625 51.703125 
z
" id="HelveticaNeue-109"/>
       <path d="M 12.59375 25.40625 
Q 12.59375 29.203125 13.390625 32.796875 
Q 14.203125 36.40625 16 39.203125 
Q 17.796875 42 20.796875 43.703125 
Q 23.796875 45.40625 28.09375 45.40625 
Q 32.5 45.40625 35.59375 43.75 
Q 38.703125 42.09375 40.640625 39.390625 
Q 42.59375 36.703125 43.5 33.140625 
Q 44.40625 29.59375 44.40625 25.796875 
Q 44.40625 22.203125 43.546875 18.703125 
Q 42.703125 15.203125 40.796875 12.453125 
Q 38.90625 9.703125 35.90625 8 
Q 32.90625 6.296875 28.59375 6.296875 
Q 24.5 6.296875 21.453125 7.890625 
Q 18.40625 9.5 16.453125 12.203125 
Q 14.5 14.90625 13.546875 18.34375 
Q 12.59375 21.796875 12.59375 25.40625 
z
M 52.59375 0 
L 52.59375 71.40625 
L 44.09375 71.40625 
L 44.09375 44.796875 
L 43.90625 44.796875 
Q 42.5 47.09375 40.453125 48.640625 
Q 38.40625 50.203125 36.09375 51.140625 
Q 33.796875 52.09375 31.5 52.5 
Q 29.203125 52.90625 27.203125 52.90625 
Q 21.296875 52.90625 16.84375 50.75 
Q 12.40625 48.59375 9.453125 44.9375 
Q 6.5 41.296875 5.046875 36.390625 
Q 3.59375 31.5 3.59375 26 
Q 3.59375 20.5 5.09375 15.59375 
Q 6.59375 10.703125 9.546875 7 
Q 12.5 3.296875 16.953125 1.09375 
Q 21.40625 -1.09375 27.40625 -1.09375 
Q 32.796875 -1.09375 37.296875 0.796875 
Q 41.796875 2.703125 43.90625 7 
L 44.09375 7 
L 44.09375 0 
z
" id="HelveticaNeue-100"/>
       <path d="M 20.40625 -19.703125 
L 26.90625 -19.703125 
Q 19.796875 -8.203125 16.75 3.09375 
Q 13.703125 14.40625 13.703125 27 
Q 13.703125 39.296875 16.703125 50.5 
Q 19.703125 61.703125 26.90625 73.09375 
L 20.40625 73.09375 
Q 12.59375 62.796875 8.640625 50.796875 
Q 4.703125 38.796875 4.703125 27 
Q 4.703125 20.40625 5.796875 14.40625 
Q 6.90625 8.40625 8.953125 2.703125 
Q 11 -3 13.890625 -8.546875 
Q 16.796875 -14.09375 20.40625 -19.703125 
z
" id="HelveticaNeue-40"/>
       <path d="M 6.90625 0 
L 15.40625 0 
L 15.40625 51.703125 
L 6.90625 51.703125 
z
M 25.5 77 
L 11.40625 60.796875 
L 5 60.796875 
L 14.59375 77 
z
" id="HelveticaNeue-237"/>
       <path d="M -0.90625 -19.703125 
L 5.5 -19.703125 
Q 13.296875 -9.40625 17.25 2.546875 
Q 21.203125 14.5 21.203125 26.296875 
Q 21.203125 32.90625 20.09375 38.90625 
Q 19 44.90625 16.953125 50.65625 
Q 14.90625 56.40625 12 61.953125 
Q 9.09375 67.5 5.5 73.09375 
L -0.90625 73.09375 
Q 6.09375 61.59375 9.140625 50.25 
Q 12.203125 38.90625 12.203125 26.296875 
Q 12.203125 14.09375 9.203125 2.84375 
Q 6.203125 -8.40625 -0.90625 -19.703125 
z
" id="HelveticaNeue-41"/>
      </defs>
      <use xlink:href="#HelveticaNeue-80"/>
      <use x="64.799988" xlink:href="#HelveticaNeue-114"/>
      <use x="96.349976" xlink:href="#HelveticaNeue-111"/>
      <use x="153.749969" xlink:href="#HelveticaNeue-109"/>
      <use x="239.049957" xlink:href="#HelveticaNeue-101"/>
      <use x="292.749954" xlink:href="#HelveticaNeue-100"/>
      <use x="352.049942" xlink:href="#HelveticaNeue-105"/>
      <use x="374.249939" xlink:href="#HelveticaNeue-111"/>
      <use x="431.649933" xlink:href="#HelveticaNeue-32"/>
      <use x="459.449921" xlink:href="#HelveticaNeue-115"/>
      <use x="509.449905" xlink:href="#HelveticaNeue-101"/>
      <use x="563.149902" xlink:href="#HelveticaNeue-109"/>
      <use x="648.44989" xlink:href="#HelveticaNeue-97"/>
      <use x="702.149887" xlink:href="#HelveticaNeue-110"/>
      <use x="757.749878" xlink:href="#HelveticaNeue-97"/>
      <use x="811.449875" xlink:href="#HelveticaNeue-108"/>
      <use x="833.649872" xlink:href="#HelveticaNeue-32"/>
      <use x="861.44986" xlink:href="#HelveticaNeue-40"/>
      <use x="887.349854" xlink:href="#HelveticaNeue-55"/>
      <use x="942.949844" xlink:href="#HelveticaNeue-32"/>
      <use x="970.749832" xlink:href="#HelveticaNeue-100"/>
      <use x="1030.04982" xlink:href="#HelveticaNeue-237"/>
      <use x="1052.249817" xlink:href="#HelveticaNeue-97"/>
      <use x="1105.949814" xlink:href="#HelveticaNeue-115"/>
      <use x="1155.949799" xlink:href="#HelveticaNeue-41"/>
      <use x="1181.849792" xlink:href="#HelveticaNeue-32"/>
     </g>
    </g>
   </g>
  </g>
 </g>
 <defs>
  <clipPath id="p6c706b1e8a">
   <rect height="235.5" width="387.5" x="62.5" y="27"/>
  </clipPath>
 </defs>
</svg>
