<?xml version="1.0" encoding="utf-8" standalone="no"?>
<!DOCTYPE svg PUBLIC "-//W3C//DTD SVG 1.1//EN"
  "http://www.w3.org/Graphics/SVG/1.1/DTD/svg11.dtd">
<!-- Created with matplotlib (https://matplotlib.org/) -->
<svg height="300pt" version="1.1" viewBox="0 0 500 300" width="500pt" xmlns="http://www.w3.org/2000/svg" xmlns:xlink="http://www.w3.org/1999/xlink">
 <metadata>
  <rdf:RDF xmlns:cc="http://creativecommons.org/ns#" xmlns:dc="http://purl.org/dc/elements/1.1/" xmlns:rdf="http://www.w3.org/1999/02/22-rdf-syntax-ns#">
   <cc:Work>
    <dc:type rdf:resource="http://purl.org/dc/dcmitype/StillImage"/>
    <dc:date>2021-07-31T15:05:13.444640</dc:date>
    <dc:format>image/svg+xml</dc:format>
    <dc:creator>
     <cc:Agent>
      <dc:title>Matplotlib v3.3.4, https://matplotlib.org/</dc:title>
     </cc:Agent>
    </dc:creator>
   </cc:Work>
  </rdf:RDF>
 </metadata>
 <defs>
  <style type="text/css">*{stroke-linecap:butt;stroke-linejoin:round;}</style>
 </defs>
 <g id="figure_1">
  <g id="patch_1">
   <path d="M 0 300 
L 500 300 
L 500 0 
L 0 0 
z
" style="fill:#ffffff;"/>
  </g>
  <g id="axes_1">
   <g id="patch_2">
    <path d="M 62.5 262.5 
L 450 262.5 
L 450 27 
L 62.5 27 
z
" style="fill:#ffffff;"/>
   </g>
   <g id="matplotlib.axis_1">
    <g id="xtick_1">
     <g id="line2d_1">
      <defs>
       <path d="M 0 0 
L 0 3.5 
" id="m90b95d5614" style="stroke:#555555;stroke-width:0.8;"/>
      </defs>
      <g>
       <use style="fill:#555555;stroke:#555555;stroke-width:0.8;" x="62.5" xlink:href="#m90b95d5614" y="262.5"/>
      </g>
     </g>
    </g>
    <g id="xtick_2">
     <g id="line2d_2">
      <g>
       <use style="fill:#555555;stroke:#555555;stroke-width:0.8;" x="71.875" xlink:href="#m90b95d5614" y="262.5"/>
      </g>
     </g>
     <g id="text_1">
      <!-- Apr -->
      <g style="fill:#555555;" transform="translate(64.005469 276.640625)scale(0.1 -0.1)">
       <defs>
        <path d="M 20.09375 29.5 
L 32.203125 62.796875 
L 32.40625 62.796875 
L 44.296875 29.5 
z
M 27.203125 71.40625 
L -0.59375 0 
L 9.09375 0 
L 17.09375 21.5 
L 47.296875 21.5 
L 55.09375 0 
L 65.59375 0 
L 37.703125 71.40625 
z
" id="HelveticaNeue-65"/>
        <path d="M 6.703125 51.703125 
L 6.703125 -19.703125 
L 15.203125 -19.703125 
L 15.203125 6.90625 
L 15.40625 6.90625 
Q 16.796875 4.59375 18.84375 3.046875 
Q 20.90625 1.5 23.203125 0.59375 
Q 25.5 -0.296875 27.84375 -0.6875 
Q 30.203125 -1.09375 32.09375 -1.09375 
Q 38 -1.09375 42.453125 1 
Q 46.90625 3.09375 49.84375 6.75 
Q 52.796875 10.40625 54.25 15.296875 
Q 55.703125 20.203125 55.703125 25.703125 
Q 55.703125 31.203125 54.203125 36.09375 
Q 52.703125 41 49.75 44.75 
Q 46.796875 48.5 42.34375 50.703125 
Q 37.90625 52.90625 31.90625 52.90625 
Q 26.5 52.90625 22 50.953125 
Q 17.5 49 15.40625 44.703125 
L 15.203125 44.703125 
L 15.203125 51.703125 
z
M 46.703125 26.296875 
Q 46.703125 22.5 45.890625 18.890625 
Q 45.09375 15.296875 43.296875 12.5 
Q 41.5 9.703125 38.546875 8 
Q 35.59375 6.296875 31.203125 6.296875 
Q 26.796875 6.296875 23.6875 7.9375 
Q 20.59375 9.59375 18.640625 12.296875 
Q 16.703125 15 15.796875 18.546875 
Q 14.90625 22.09375 14.90625 25.90625 
Q 14.90625 29.5 15.75 33 
Q 16.59375 36.5 18.5 39.25 
Q 20.40625 42 23.40625 43.703125 
Q 26.40625 45.40625 30.703125 45.40625 
Q 34.796875 45.40625 37.84375 43.796875 
Q 40.90625 42.203125 42.84375 39.5 
Q 44.796875 36.796875 45.75 33.34375 
Q 46.703125 29.90625 46.703125 26.296875 
z
" id="HelveticaNeue-112"/>
        <path d="M 6.09375 51.703125 
L 6.09375 0 
L 14.59375 0 
L 14.59375 23 
Q 14.59375 28 15.59375 31.84375 
Q 16.59375 35.703125 18.796875 38.390625 
Q 21 41.09375 24.59375 42.5 
Q 28.203125 43.90625 33.296875 43.90625 
L 33.296875 52.90625 
Q 26.40625 53.09375 21.90625 50.09375 
Q 17.40625 47.09375 14.296875 40.796875 
L 14.09375 40.796875 
L 14.09375 51.703125 
z
" id="HelveticaNeue-114"/>
       </defs>
       <use xlink:href="#HelveticaNeue-65"/>
       <use x="64.799988" xlink:href="#HelveticaNeue-112"/>
       <use x="124.099976" xlink:href="#HelveticaNeue-114"/>
      </g>
     </g>
    </g>
    <g id="xtick_3">
     <g id="line2d_3">
      <g>
       <use style="fill:#555555;stroke:#555555;stroke-width:0.8;" x="142.96875" xlink:href="#m90b95d5614" y="262.5"/>
      </g>
     </g>
     <g id="text_2">
      <!-- Jul -->
      <g style="fill:#555555;" transform="translate(136.483594 276.640625)scale(0.1 -0.1)">
       <defs>
        <path d="M 44.09375 17.796875 
L 44.09375 71.40625 
L 34.59375 71.40625 
L 34.59375 19.203125 
Q 34.59375 13.296875 32.140625 9.796875 
Q 29.703125 6.296875 23.203125 6.296875 
Q 19.703125 6.296875 17.453125 7.34375 
Q 15.203125 8.40625 13.953125 10.296875 
Q 12.703125 12.203125 12.203125 14.796875 
Q 11.703125 17.40625 11.703125 20.5 
L 11.703125 23.5 
L 2.203125 23.5 
L 2.203125 19.09375 
Q 2.203125 8.90625 7.59375 3.65625 
Q 13 -1.59375 23 -1.59375 
Q 29 -1.59375 33.046875 0.046875 
Q 37.09375 1.703125 39.546875 4.453125 
Q 42 7.203125 43.046875 10.703125 
Q 44.09375 14.203125 44.09375 17.796875 
z
" id="HelveticaNeue-74"/>
        <path d="M 49.203125 0 
L 49.203125 51.703125 
L 40.703125 51.703125 
L 40.703125 22.5 
Q 40.703125 19 39.75 16.046875 
Q 38.796875 13.09375 36.890625 10.890625 
Q 35 8.703125 32.140625 7.5 
Q 29.296875 6.296875 25.40625 6.296875 
Q 20.5 6.296875 17.703125 9.09375 
Q 14.90625 11.90625 14.90625 16.703125 
L 14.90625 51.703125 
L 6.40625 51.703125 
L 6.40625 17.703125 
Q 6.40625 13.5 7.25 10.046875 
Q 8.09375 6.59375 10.1875 4.09375 
Q 12.296875 1.59375 15.6875 0.25 
Q 19.09375 -1.09375 24.203125 -1.09375 
Q 29.90625 -1.09375 34.09375 1.15625 
Q 38.296875 3.40625 41 8.203125 
L 41.203125 8.203125 
L 41.203125 0 
z
" id="HelveticaNeue-117"/>
        <path d="M 6.90625 71.40625 
L 6.90625 0 
L 15.40625 0 
L 15.40625 71.40625 
z
" id="HelveticaNeue-108"/>
       </defs>
       <use xlink:href="#HelveticaNeue-74"/>
       <use x="51.899994" xlink:href="#HelveticaNeue-117"/>
       <use x="107.499985" xlink:href="#HelveticaNeue-108"/>
      </g>
     </g>
    </g>
    <g id="xtick_4">
     <g id="line2d_4">
      <g>
       <use style="fill:#555555;stroke:#555555;stroke-width:0.8;" x="214.84375" xlink:href="#m90b95d5614" y="262.5"/>
      </g>
     </g>
     <g id="text_3">
      <!-- Oct -->
      <g style="fill:#555555;" transform="translate(206.783594 276.640625)scale(0.1 -0.1)">
       <defs>
        <path d="M 13.296875 35.703125 
Q 13.296875 41.09375 14.6875 46.34375 
Q 16.09375 51.59375 19.09375 55.796875 
Q 22.09375 60 26.796875 62.546875 
Q 31.5 65.09375 38 65.09375 
Q 44.5 65.09375 49.203125 62.546875 
Q 53.90625 60 56.90625 55.796875 
Q 59.90625 51.59375 61.296875 46.34375 
Q 62.703125 41.09375 62.703125 35.703125 
Q 62.703125 30.296875 61.296875 25.046875 
Q 59.90625 19.796875 56.90625 15.59375 
Q 53.90625 11.40625 49.203125 8.84375 
Q 44.5 6.296875 38 6.296875 
Q 31.5 6.296875 26.796875 8.84375 
Q 22.09375 11.40625 19.09375 15.59375 
Q 16.09375 19.796875 14.6875 25.046875 
Q 13.296875 30.296875 13.296875 35.703125 
z
M 3.796875 35.703125 
Q 3.796875 28.40625 5.9375 21.65625 
Q 8.09375 14.90625 12.390625 9.703125 
Q 16.703125 4.5 23.09375 1.453125 
Q 29.5 -1.59375 38 -1.59375 
Q 46.5 -1.59375 52.890625 1.453125 
Q 59.296875 4.5 63.59375 9.703125 
Q 67.90625 14.90625 70.046875 21.65625 
Q 72.203125 28.40625 72.203125 35.703125 
Q 72.203125 43 70.046875 49.75 
Q 67.90625 56.5 63.59375 61.703125 
Q 59.296875 66.90625 52.890625 70 
Q 46.5 73.09375 38 73.09375 
Q 29.5 73.09375 23.09375 70 
Q 16.703125 66.90625 12.390625 61.703125 
Q 8.09375 56.5 5.9375 49.75 
Q 3.796875 43 3.796875 35.703125 
z
" id="HelveticaNeue-79"/>
        <path d="M 41.5 35.09375 
L 50.296875 35.09375 
Q 49.796875 39.703125 47.890625 43.046875 
Q 46 46.40625 43.046875 48.59375 
Q 40.09375 50.796875 36.25 51.84375 
Q 32.40625 52.90625 28 52.90625 
Q 21.90625 52.90625 17.296875 50.75 
Q 12.703125 48.59375 9.640625 44.84375 
Q 6.59375 41.09375 5.09375 36.046875 
Q 3.59375 31 3.59375 25.203125 
Q 3.59375 19.40625 5.140625 14.546875 
Q 6.703125 9.703125 9.75 6.203125 
Q 12.796875 2.703125 17.34375 0.796875 
Q 21.90625 -1.09375 27.796875 -1.09375 
Q 37.703125 -1.09375 43.453125 4.09375 
Q 49.203125 9.296875 50.59375 18.90625 
L 41.90625 18.90625 
Q 41.09375 12.90625 37.546875 9.59375 
Q 34 6.296875 27.703125 6.296875 
Q 23.703125 6.296875 20.796875 7.890625 
Q 17.90625 9.5 16.09375 12.140625 
Q 14.296875 14.796875 13.4375 18.1875 
Q 12.59375 21.59375 12.59375 25.203125 
Q 12.59375 29.09375 13.390625 32.75 
Q 14.203125 36.40625 16.046875 39.203125 
Q 17.90625 42 21 43.703125 
Q 24.09375 45.40625 28.703125 45.40625 
Q 34.09375 45.40625 37.296875 42.703125 
Q 40.5 40 41.5 35.09375 
z
" id="HelveticaNeue-99"/>
        <path d="M 18.203125 51.703125 
L 18.203125 67.203125 
L 9.703125 67.203125 
L 9.703125 51.703125 
L 0.90625 51.703125 
L 0.90625 44.203125 
L 9.703125 44.203125 
L 9.703125 11.296875 
Q 9.703125 7.703125 10.390625 5.5 
Q 11.09375 3.296875 12.546875 2.09375 
Q 14 0.90625 16.34375 0.453125 
Q 18.703125 0 22 0 
L 28.5 0 
L 28.5 7.5 
L 24.59375 7.5 
Q 22.59375 7.5 21.34375 7.640625 
Q 20.09375 7.796875 19.390625 8.296875 
Q 18.703125 8.796875 18.453125 9.6875 
Q 18.203125 10.59375 18.203125 12.09375 
L 18.203125 44.203125 
L 28.5 44.203125 
L 28.5 51.703125 
z
" id="HelveticaNeue-116"/>
       </defs>
       <use xlink:href="#HelveticaNeue-79"/>
       <use x="75.999985" xlink:href="#HelveticaNeue-99"/>
       <use x="129.699982" xlink:href="#HelveticaNeue-116"/>
      </g>
     </g>
    </g>
    <g id="xtick_5">
     <g id="line2d_5">
      <g>
       <use style="fill:#555555;stroke:#555555;stroke-width:0.8;" x="286.71875" xlink:href="#m90b95d5614" y="262.5"/>
      </g>
     </g>
     <g id="text_4">
      <!-- Jan -->
      <g style="fill:#555555;" transform="translate(278.658594 276.640625)scale(0.1 -0.1)">
       <defs>
        <path d="M 52.203125 0.203125 
Q 50 -1.09375 46.09375 -1.09375 
Q 42.796875 -1.09375 40.84375 0.75 
Q 38.90625 2.59375 38.90625 6.796875 
Q 35.40625 2.59375 30.75 0.75 
Q 26.09375 -1.09375 20.703125 -1.09375 
Q 17.203125 -1.09375 14.046875 -0.296875 
Q 10.90625 0.5 8.59375 2.203125 
Q 6.296875 3.90625 4.9375 6.65625 
Q 3.59375 9.40625 3.59375 13.296875 
Q 3.59375 17.703125 5.09375 20.5 
Q 6.59375 23.296875 9.046875 25.046875 
Q 11.5 26.796875 14.640625 27.6875 
Q 17.796875 28.59375 21.09375 29.203125 
Q 24.59375 29.90625 27.75 30.25 
Q 30.90625 30.59375 33.296875 31.25 
Q 35.703125 31.90625 37.09375 33.15625 
Q 38.5 34.40625 38.5 36.796875 
Q 38.5 39.59375 37.453125 41.296875 
Q 36.40625 43 34.75 43.890625 
Q 33.09375 44.796875 31.046875 45.09375 
Q 29 45.40625 27 45.40625 
Q 21.59375 45.40625 18 43.34375 
Q 14.40625 41.296875 14.09375 35.59375 
L 5.59375 35.59375 
Q 5.796875 40.40625 7.59375 43.703125 
Q 9.40625 47 12.40625 49.046875 
Q 15.40625 51.09375 19.25 52 
Q 23.09375 52.90625 27.5 52.90625 
Q 31 52.90625 34.453125 52.40625 
Q 37.90625 51.90625 40.703125 50.34375 
Q 43.5 48.796875 45.203125 46 
Q 46.90625 43.203125 46.90625 38.703125 
L 46.90625 12.09375 
Q 46.90625 9.09375 47.25 7.6875 
Q 47.59375 6.296875 49.59375 6.296875 
Q 50.703125 6.296875 52.203125 6.796875 
z
M 38.40625 26.703125 
Q 36.796875 25.5 34.1875 24.953125 
Q 31.59375 24.40625 28.75 24.046875 
Q 25.90625 23.703125 23 23.25 
Q 20.09375 22.796875 17.796875 21.796875 
Q 15.5 20.796875 14.046875 18.9375 
Q 12.59375 17.09375 12.59375 13.90625 
Q 12.59375 11.796875 13.4375 10.34375 
Q 14.296875 8.90625 15.640625 8 
Q 17 7.09375 18.796875 6.6875 
Q 20.59375 6.296875 22.59375 6.296875 
Q 26.796875 6.296875 29.796875 7.4375 
Q 32.796875 8.59375 34.6875 10.34375 
Q 36.59375 12.09375 37.5 14.140625 
Q 38.40625 16.203125 38.40625 18 
z
" id="HelveticaNeue-97"/>
        <path d="M 6.40625 51.703125 
L 6.40625 0 
L 14.90625 0 
L 14.90625 29.203125 
Q 14.90625 32.703125 15.84375 35.640625 
Q 16.796875 38.59375 18.6875 40.796875 
Q 20.59375 43 23.4375 44.203125 
Q 26.296875 45.40625 30.203125 45.40625 
Q 35.09375 45.40625 37.890625 42.59375 
Q 40.703125 39.796875 40.703125 35 
L 40.703125 0 
L 49.203125 0 
L 49.203125 34 
Q 49.203125 38.203125 48.34375 41.640625 
Q 47.5 45.09375 45.390625 47.59375 
Q 43.296875 50.09375 39.890625 51.5 
Q 36.5 52.90625 31.40625 52.90625 
Q 19.90625 52.90625 14.59375 43.5 
L 14.40625 43.5 
L 14.40625 51.703125 
z
" id="HelveticaNeue-110"/>
       </defs>
       <use xlink:href="#HelveticaNeue-74"/>
       <use x="51.899994" xlink:href="#HelveticaNeue-97"/>
       <use x="105.599991" xlink:href="#HelveticaNeue-110"/>
      </g>
      <!-- 2021 -->
      <g style="fill:#555555;" transform="translate(275.6 287.179688)scale(0.1 -0.1)">
       <defs>
        <path d="M 4.40625 45.796875 
L 12.90625 45.796875 
Q 12.796875 49 13.546875 52.140625 
Q 14.296875 55.296875 16 57.796875 
Q 17.703125 60.296875 20.34375 61.84375 
Q 23 63.40625 26.703125 63.40625 
Q 29.5 63.40625 32 62.5 
Q 34.5 61.59375 36.34375 59.890625 
Q 38.203125 58.203125 39.296875 55.84375 
Q 40.40625 53.5 40.40625 50.59375 
Q 40.40625 46.90625 39.25 44.09375 
Q 38.09375 41.296875 35.84375 38.890625 
Q 33.59375 36.5 30.1875 34.140625 
Q 26.796875 31.796875 22.296875 29 
Q 18.59375 26.796875 15.1875 24.296875 
Q 11.796875 21.796875 9.09375 18.5 
Q 6.40625 15.203125 4.65625 10.75 
Q 2.90625 6.296875 2.40625 0 
L 48.703125 0 
L 48.703125 7.5 
L 12.296875 7.5 
Q 12.90625 10.796875 14.84375 13.34375 
Q 16.796875 15.90625 19.546875 18.09375 
Q 22.296875 20.296875 25.59375 22.25 
Q 28.90625 24.203125 32.203125 26.203125 
Q 35.5 28.296875 38.59375 30.59375 
Q 41.703125 32.90625 44.09375 35.75 
Q 46.5 38.59375 47.953125 42.1875 
Q 49.40625 45.796875 49.40625 50.5 
Q 49.40625 55.5 47.65625 59.296875 
Q 45.90625 63.09375 42.90625 65.640625 
Q 39.90625 68.203125 35.84375 69.546875 
Q 31.796875 70.90625 27.203125 70.90625 
Q 21.59375 70.90625 17.1875 69 
Q 12.796875 67.09375 9.84375 63.75 
Q 6.90625 60.40625 5.5 55.796875 
Q 4.09375 51.203125 4.40625 45.796875 
z
" id="HelveticaNeue-50"/>
        <path d="M 13.203125 34.90625 
Q 13.203125 37.5 13.25 40.640625 
Q 13.296875 43.796875 13.75 46.9375 
Q 14.203125 50.09375 15.046875 53.09375 
Q 15.90625 56.09375 17.546875 58.34375 
Q 19.203125 60.59375 21.703125 62 
Q 24.203125 63.40625 27.796875 63.40625 
Q 31.40625 63.40625 33.90625 62 
Q 36.40625 60.59375 38.046875 58.34375 
Q 39.703125 56.09375 40.546875 53.09375 
Q 41.40625 50.09375 41.84375 46.9375 
Q 42.296875 43.796875 42.34375 40.640625 
Q 42.40625 37.5 42.40625 34.90625 
Q 42.40625 30.90625 42.15625 25.953125 
Q 41.90625 21 40.546875 16.640625 
Q 39.203125 12.296875 36.203125 9.296875 
Q 33.203125 6.296875 27.796875 6.296875 
Q 22.40625 6.296875 19.40625 9.296875 
Q 16.40625 12.296875 15.046875 16.640625 
Q 13.703125 21 13.453125 25.953125 
Q 13.203125 30.90625 13.203125 34.90625 
z
M 4.203125 34.796875 
Q 4.203125 30.90625 4.390625 26.703125 
Q 4.59375 22.5 5.390625 18.5 
Q 6.203125 14.5 7.703125 10.953125 
Q 9.203125 7.40625 11.796875 4.703125 
Q 14.40625 2 18.34375 0.453125 
Q 22.296875 -1.09375 27.796875 -1.09375 
Q 33.40625 -1.09375 37.296875 0.453125 
Q 41.203125 2 43.796875 4.703125 
Q 46.40625 7.40625 47.90625 10.953125 
Q 49.40625 14.5 50.203125 18.5 
Q 51 22.5 51.203125 26.703125 
Q 51.40625 30.90625 51.40625 34.796875 
Q 51.40625 38.703125 51.203125 42.890625 
Q 51 47.09375 50.203125 51.09375 
Q 49.40625 55.09375 47.90625 58.6875 
Q 46.40625 62.296875 43.796875 65 
Q 41.203125 67.703125 37.25 69.296875 
Q 33.296875 70.90625 27.796875 70.90625 
Q 22.296875 70.90625 18.34375 69.296875 
Q 14.40625 67.703125 11.796875 65 
Q 9.203125 62.296875 7.703125 58.6875 
Q 6.203125 55.09375 5.390625 51.09375 
Q 4.59375 47.09375 4.390625 42.890625 
Q 4.203125 38.703125 4.203125 34.796875 
z
" id="HelveticaNeue-48"/>
        <path d="M 35.59375 0 
L 35.59375 70.90625 
L 29.09375 70.90625 
Q 28.40625 66.90625 26.5 64.296875 
Q 24.59375 61.703125 21.84375 60.203125 
Q 19.09375 58.703125 15.6875 58.140625 
Q 12.296875 57.59375 8.703125 57.59375 
L 8.703125 50.796875 
L 27.09375 50.796875 
L 27.09375 0 
z
" id="HelveticaNeue-49"/>
       </defs>
       <use xlink:href="#HelveticaNeue-50"/>
       <use x="55.599991" xlink:href="#HelveticaNeue-48"/>
       <use x="111.199982" xlink:href="#HelveticaNeue-50"/>
       <use x="166.799973" xlink:href="#HelveticaNeue-49"/>
      </g>
     </g>
    </g>
    <g id="xtick_6">
     <g id="line2d_6">
      <g>
       <use style="fill:#555555;stroke:#555555;stroke-width:0.8;" x="357.03125" xlink:href="#m90b95d5614" y="262.5"/>
      </g>
     </g>
     <g id="text_5">
      <!-- Apr -->
      <g style="fill:#555555;" transform="translate(349.161719 276.640625)scale(0.1 -0.1)">
       <use xlink:href="#HelveticaNeue-65"/>
       <use x="64.799988" xlink:href="#HelveticaNeue-112"/>
       <use x="124.099976" xlink:href="#HelveticaNeue-114"/>
      </g>
     </g>
    </g>
    <g id="xtick_7">
     <g id="line2d_7">
      <g>
       <use style="fill:#555555;stroke:#555555;stroke-width:0.8;" x="428.125" xlink:href="#m90b95d5614" y="262.5"/>
      </g>
     </g>
     <g id="text_6">
      <!-- Jul -->
      <g style="fill:#555555;" transform="translate(421.639844 276.640625)scale(0.1 -0.1)">
       <use xlink:href="#HelveticaNeue-74"/>
       <use x="51.899994" xlink:href="#HelveticaNeue-117"/>
       <use x="107.499985" xlink:href="#HelveticaNeue-108"/>
      </g>
     </g>
    </g>
    <g id="xtick_8">
     <g id="line2d_8">
      <g>
       <use style="fill:#555555;stroke:#555555;stroke-width:0.8;" x="450" xlink:href="#m90b95d5614" y="262.5"/>
      </g>
     </g>
    </g>
    <g id="xtick_9">
     <g id="line2d_9">
      <defs>
       <path d="M 0 0 
L 0 2 
" id="m9709347ef2" style="stroke:#555555;stroke-width:0.6;"/>
      </defs>
      <g>
       <use style="fill:#555555;stroke:#555555;stroke-width:0.6;" x="95.3125" xlink:href="#m9709347ef2" y="262.5"/>
      </g>
     </g>
    </g>
    <g id="xtick_10">
     <g id="line2d_10">
      <g>
       <use style="fill:#555555;stroke:#555555;stroke-width:0.6;" x="119.53125" xlink:href="#m9709347ef2" y="262.5"/>
      </g>
     </g>
    </g>
    <g id="xtick_11">
     <g id="line2d_11">
      <g>
       <use style="fill:#555555;stroke:#555555;stroke-width:0.6;" x="167.1875" xlink:href="#m9709347ef2" y="262.5"/>
      </g>
     </g>
    </g>
    <g id="xtick_12">
     <g id="line2d_12">
      <g>
       <use style="fill:#555555;stroke:#555555;stroke-width:0.6;" x="191.40625" xlink:href="#m9709347ef2" y="262.5"/>
      </g>
     </g>
    </g>
    <g id="xtick_13">
     <g id="line2d_13">
      <g>
       <use style="fill:#555555;stroke:#555555;stroke-width:0.6;" x="239.0625" xlink:href="#m9709347ef2" y="262.5"/>
      </g>
     </g>
    </g>
    <g id="xtick_14">
     <g id="line2d_14">
      <g>
       <use style="fill:#555555;stroke:#555555;stroke-width:0.6;" x="262.5" xlink:href="#m9709347ef2" y="262.5"/>
      </g>
     </g>
    </g>
    <g id="xtick_15">
     <g id="line2d_15">
      <g>
       <use style="fill:#555555;stroke:#555555;stroke-width:0.6;" x="310.9375" xlink:href="#m9709347ef2" y="262.5"/>
      </g>
     </g>
    </g>
    <g id="xtick_16">
     <g id="line2d_16">
      <g>
       <use style="fill:#555555;stroke:#555555;stroke-width:0.6;" x="332.8125" xlink:href="#m9709347ef2" y="262.5"/>
      </g>
     </g>
    </g>
    <g id="xtick_17">
     <g id="line2d_17">
      <g>
       <use style="fill:#555555;stroke:#555555;stroke-width:0.6;" x="380.46875" xlink:href="#m9709347ef2" y="262.5"/>
      </g>
     </g>
    </g>
    <g id="xtick_18">
     <g id="line2d_18">
      <g>
       <use style="fill:#555555;stroke:#555555;stroke-width:0.6;" x="404.6875" xlink:href="#m9709347ef2" y="262.5"/>
      </g>
     </g>
    </g>
    <g id="text_7">
     <!-- fecha -->
     <g style="fill:#555555;" transform="translate(243.935156 300.290625)scale(0.1 -0.1)">
      <defs>
       <path d="M 9.90625 44.203125 
L 9.90625 0 
L 18.40625 0 
L 18.40625 44.203125 
L 28.40625 44.203125 
L 28.40625 51.703125 
L 18.40625 51.703125 
L 18.40625 58.90625 
Q 18.40625 62.296875 20.09375 63.5 
Q 21.796875 64.703125 24.90625 64.703125 
Q 26 64.703125 27.296875 64.546875 
Q 28.59375 64.40625 29.703125 64 
L 29.703125 71.40625 
Q 28.5 71.796875 26.953125 72 
Q 25.40625 72.203125 24.203125 72.203125 
Q 17.203125 72.203125 13.546875 68.953125 
Q 9.90625 65.703125 9.90625 59.40625 
L 9.90625 51.703125 
L 1.203125 51.703125 
L 1.203125 44.203125 
z
" id="HelveticaNeue-102"/>
       <path d="M 42.296875 30.796875 
L 12.59375 30.796875 
Q 12.796875 33.796875 13.890625 36.4375 
Q 15 39.09375 16.890625 41.09375 
Q 18.796875 43.09375 21.4375 44.25 
Q 24.09375 45.40625 27.40625 45.40625 
Q 30.59375 45.40625 33.25 44.25 
Q 35.90625 43.09375 37.84375 41.140625 
Q 39.796875 39.203125 40.9375 36.5 
Q 42.09375 33.796875 42.296875 30.796875 
z
M 50.5 16.40625 
L 42.09375 16.40625 
Q 41 11.296875 37.546875 8.796875 
Q 34.09375 6.296875 28.703125 6.296875 
Q 24.5 6.296875 21.390625 7.6875 
Q 18.296875 9.09375 16.296875 11.4375 
Q 14.296875 13.796875 13.390625 16.84375 
Q 12.5 19.90625 12.59375 23.296875 
L 51.296875 23.296875 
Q 51.5 28 50.453125 33.203125 
Q 49.40625 38.40625 46.65625 42.796875 
Q 43.90625 47.203125 39.34375 50.046875 
Q 34.796875 52.90625 27.90625 52.90625 
Q 22.59375 52.90625 18.140625 50.90625 
Q 13.703125 48.90625 10.453125 45.296875 
Q 7.203125 41.703125 5.390625 36.796875 
Q 3.59375 31.90625 3.59375 26 
Q 3.796875 20.09375 5.34375 15.09375 
Q 6.90625 10.09375 10 6.5 
Q 13.09375 2.90625 17.640625 0.90625 
Q 22.203125 -1.09375 28.40625 -1.09375 
Q 37.203125 -1.09375 43 3.296875 
Q 48.796875 7.703125 50.5 16.40625 
z
" id="HelveticaNeue-101"/>
       <path d="M 6.40625 71.40625 
L 6.40625 0 
L 14.90625 0 
L 14.90625 29.203125 
Q 14.90625 32.703125 15.84375 35.640625 
Q 16.796875 38.59375 18.6875 40.796875 
Q 20.59375 43 23.4375 44.203125 
Q 26.296875 45.40625 30.203125 45.40625 
Q 35.09375 45.40625 37.890625 42.59375 
Q 40.703125 39.796875 40.703125 35 
L 40.703125 0 
L 49.203125 0 
L 49.203125 34 
Q 49.203125 38.203125 48.34375 41.640625 
Q 47.5 45.09375 45.390625 47.59375 
Q 43.296875 50.09375 39.890625 51.5 
Q 36.5 52.90625 31.40625 52.90625 
Q 29.09375 52.90625 26.640625 52.40625 
Q 24.203125 51.90625 21.953125 50.84375 
Q 19.703125 49.796875 17.890625 48.140625 
Q 16.09375 46.5 15.09375 44.09375 
L 14.90625 44.09375 
L 14.90625 71.40625 
z
" id="HelveticaNeue-104"/>
      </defs>
      <use xlink:href="#HelveticaNeue-102"/>
      <use x="29.599991" xlink:href="#HelveticaNeue-101"/>
      <use x="83.299988" xlink:href="#HelveticaNeue-99"/>
      <use x="136.999985" xlink:href="#HelveticaNeue-104"/>
      <use x="192.599976" xlink:href="#HelveticaNeue-97"/>
     </g>
    </g>
   </g>
   <g id="matplotlib.axis_2">
    <g id="ytick_1">
     <g id="line2d_19">
      <defs>
       <path d="M 0 0 
L -3.5 0 
" id="md390ad5bcb" style="stroke:#555555;stroke-width:0.8;"/>
      </defs>
      <g>
       <use style="fill:#555555;stroke:#555555;stroke-width:0.8;" x="62.5" xlink:href="#md390ad5bcb" y="251.795455"/>
      </g>
     </g>
     <g id="text_8">
      <!-- 0 -->
      <g style="fill:#555555;" transform="translate(49.940625 255.365767)scale(0.1 -0.1)">
       <use xlink:href="#HelveticaNeue-48"/>
      </g>
     </g>
    </g>
    <g id="ytick_2">
     <g id="line2d_20">
      <g>
       <use style="fill:#555555;stroke:#555555;stroke-width:0.8;" x="62.5" xlink:href="#md390ad5bcb" y="222.427703"/>
      </g>
     </g>
     <g id="text_9">
      <!-- 200 -->
      <g style="fill:#555555;" transform="translate(38.821875 225.998015)scale(0.1 -0.1)">
       <use xlink:href="#HelveticaNeue-50"/>
       <use x="55.599991" xlink:href="#HelveticaNeue-48"/>
       <use x="111.199982" xlink:href="#HelveticaNeue-48"/>
      </g>
     </g>
    </g>
    <g id="ytick_3">
     <g id="line2d_21">
      <g>
       <use style="fill:#555555;stroke:#555555;stroke-width:0.8;" x="62.5" xlink:href="#md390ad5bcb" y="193.059951"/>
      </g>
     </g>
     <g id="text_10">
      <!-- 400 -->
      <g style="fill:#555555;" transform="translate(38.821875 196.630264)scale(0.1 -0.1)">
       <defs>
        <path d="M 33.90625 24.09375 
L 10.09375 24.09375 
L 33.703125 58.796875 
L 33.90625 58.796875 
z
M 41.90625 24.09375 
L 41.90625 70.90625 
L 35.09375 70.90625 
L 2.796875 24.796875 
L 2.796875 16.59375 
L 33.90625 16.59375 
L 33.90625 0 
L 41.90625 0 
L 41.90625 16.59375 
L 51.5 16.59375 
L 51.5 24.09375 
z
" id="HelveticaNeue-52"/>
       </defs>
       <use xlink:href="#HelveticaNeue-52"/>
       <use x="55.599991" xlink:href="#HelveticaNeue-48"/>
       <use x="111.199982" xlink:href="#HelveticaNeue-48"/>
      </g>
     </g>
    </g>
    <g id="ytick_4">
     <g id="line2d_22">
      <g>
       <use style="fill:#555555;stroke:#555555;stroke-width:0.8;" x="62.5" xlink:href="#md390ad5bcb" y="163.6922"/>
      </g>
     </g>
     <g id="text_11">
      <!-- 600 -->
      <g style="fill:#555555;" transform="translate(38.821875 167.262512)scale(0.1 -0.1)">
       <defs>
        <path d="M 41.40625 52.796875 
L 49.90625 52.796875 
Q 49.09375 61.59375 43.890625 66.25 
Q 38.703125 70.90625 29.90625 70.90625 
Q 22.296875 70.90625 17.296875 67.703125 
Q 12.296875 64.5 9.296875 59.203125 
Q 6.296875 53.90625 5.046875 47.046875 
Q 3.796875 40.203125 3.796875 32.90625 
Q 3.796875 27.296875 4.640625 21.296875 
Q 5.5 15.296875 8.09375 10.296875 
Q 10.703125 5.296875 15.5 2.09375 
Q 20.296875 -1.09375 28.203125 -1.09375 
Q 34.90625 -1.09375 39.453125 1.15625 
Q 44 3.40625 46.75 6.84375 
Q 49.5 10.296875 50.703125 14.5 
Q 51.90625 18.703125 51.90625 22.59375 
Q 51.90625 27.5 50.40625 31.703125 
Q 48.90625 35.90625 46.15625 39 
Q 43.40625 42.09375 39.34375 43.84375 
Q 35.296875 45.59375 30.203125 45.59375 
Q 24.40625 45.59375 19.953125 43.390625 
Q 15.5 41.203125 12.5 36.296875 
L 12.296875 36.5 
Q 12.40625 40.59375 13.09375 45.296875 
Q 13.796875 50 15.640625 54.046875 
Q 17.5 58.09375 20.796875 60.75 
Q 24.09375 63.40625 29.5 63.40625 
Q 34.59375 63.40625 37.6875 60.5 
Q 40.796875 57.59375 41.40625 52.796875 
z
M 28.59375 38.09375 
Q 32.203125 38.09375 34.890625 36.796875 
Q 37.59375 35.5 39.390625 33.34375 
Q 41.203125 31.203125 42.046875 28.25 
Q 42.90625 25.296875 42.90625 22 
Q 42.90625 18.90625 41.953125 16.046875 
Q 41 13.203125 39.203125 11 
Q 37.40625 8.796875 34.75 7.546875 
Q 32.09375 6.296875 28.59375 6.296875 
Q 25.09375 6.296875 22.34375 7.546875 
Q 19.59375 8.796875 17.75 10.890625 
Q 15.90625 13 14.90625 15.890625 
Q 13.90625 18.796875 13.90625 22.09375 
Q 13.90625 25.40625 14.84375 28.34375 
Q 15.796875 31.296875 17.6875 33.4375 
Q 19.59375 35.59375 22.296875 36.84375 
Q 25 38.09375 28.59375 38.09375 
z
" id="HelveticaNeue-54"/>
       </defs>
       <use xlink:href="#HelveticaNeue-54"/>
       <use x="55.599991" xlink:href="#HelveticaNeue-48"/>
       <use x="111.199982" xlink:href="#HelveticaNeue-48"/>
      </g>
     </g>
    </g>
    <g id="ytick_5">
     <g id="line2d_23">
      <g>
       <use style="fill:#555555;stroke:#555555;stroke-width:0.8;" x="62.5" xlink:href="#md390ad5bcb" y="134.324448"/>
      </g>
     </g>
     <g id="text_12">
      <!-- 800 -->
      <g style="fill:#555555;" transform="translate(38.821875 137.894761)scale(0.1 -0.1)">
       <defs>
        <path d="M 15.5 52.5 
Q 15.5 55.203125 16.5 57.203125 
Q 17.5 59.203125 19.140625 60.59375 
Q 20.796875 62 23.09375 62.703125 
Q 25.40625 63.40625 27.90625 63.40625 
Q 33.09375 63.40625 36.4375 60.65625 
Q 39.796875 57.90625 39.796875 52.5 
Q 39.796875 47.09375 36.5 44.09375 
Q 33.203125 41.09375 28.09375 41.09375 
Q 25.5 41.09375 23.203125 41.796875 
Q 20.90625 42.5 19.203125 43.890625 
Q 17.5 45.296875 16.5 47.4375 
Q 15.5 49.59375 15.5 52.5 
z
M 6.5 52.796875 
Q 6.5 48 9.203125 43.953125 
Q 11.90625 39.90625 16.40625 38.09375 
Q 10.40625 36 7.203125 31.34375 
Q 4 26.703125 4 20.40625 
Q 4 15 5.84375 10.953125 
Q 7.703125 6.90625 10.953125 4.203125 
Q 14.203125 1.5 18.59375 0.203125 
Q 23 -1.09375 28.09375 -1.09375 
Q 33 -1.09375 37.296875 0.296875 
Q 41.59375 1.703125 44.75 4.453125 
Q 47.90625 7.203125 49.75 11.203125 
Q 51.59375 15.203125 51.59375 20.40625 
Q 51.59375 27 48.5 31.546875 
Q 45.40625 36.09375 39 38.09375 
Q 43.5 40.09375 46.140625 44.046875 
Q 48.796875 48 48.796875 52.796875 
Q 48.796875 56.203125 47.59375 59.453125 
Q 46.40625 62.703125 43.84375 65.25 
Q 41.296875 67.796875 37.1875 69.34375 
Q 33.09375 70.90625 27.296875 70.90625 
Q 23.203125 70.90625 19.453125 69.703125 
Q 15.703125 68.5 12.796875 66.203125 
Q 9.90625 63.90625 8.203125 60.546875 
Q 6.5 57.203125 6.5 52.796875 
z
M 13 20 
Q 13 23.09375 14.140625 25.59375 
Q 15.296875 28.09375 17.34375 29.890625 
Q 19.40625 31.703125 22.15625 32.640625 
Q 24.90625 33.59375 28 33.59375 
Q 31 33.59375 33.640625 32.546875 
Q 36.296875 31.5 38.296875 29.703125 
Q 40.296875 27.90625 41.4375 25.453125 
Q 42.59375 23 42.59375 20.09375 
Q 42.59375 17.09375 41.546875 14.59375 
Q 40.5 12.09375 38.546875 10.25 
Q 36.59375 8.40625 33.9375 7.34375 
Q 31.296875 6.296875 28.09375 6.296875 
Q 21.5 6.296875 17.25 9.9375 
Q 13 13.59375 13 20 
z
" id="HelveticaNeue-56"/>
       </defs>
       <use xlink:href="#HelveticaNeue-56"/>
       <use x="55.599991" xlink:href="#HelveticaNeue-48"/>
       <use x="111.199982" xlink:href="#HelveticaNeue-48"/>
      </g>
     </g>
    </g>
    <g id="ytick_6">
     <g id="line2d_24">
      <g>
       <use style="fill:#555555;stroke:#555555;stroke-width:0.8;" x="62.5" xlink:href="#md390ad5bcb" y="104.956697"/>
      </g>
     </g>
     <g id="text_13">
      <!-- 1000 -->
      <g style="fill:#555555;" transform="translate(33.2625 108.527009)scale(0.1 -0.1)">
       <use xlink:href="#HelveticaNeue-49"/>
       <use x="55.599991" xlink:href="#HelveticaNeue-48"/>
       <use x="111.199982" xlink:href="#HelveticaNeue-48"/>
       <use x="166.799973" xlink:href="#HelveticaNeue-48"/>
      </g>
     </g>
    </g>
    <g id="ytick_7">
     <g id="line2d_25">
      <g>
       <use style="fill:#555555;stroke:#555555;stroke-width:0.8;" x="62.5" xlink:href="#md390ad5bcb" y="75.588945"/>
      </g>
     </g>
     <g id="text_14">
      <!-- 1200 -->
      <g style="fill:#555555;" transform="translate(33.2625 79.159258)scale(0.1 -0.1)">
       <use xlink:href="#HelveticaNeue-49"/>
       <use x="55.599991" xlink:href="#HelveticaNeue-50"/>
       <use x="111.199982" xlink:href="#HelveticaNeue-48"/>
       <use x="166.799973" xlink:href="#HelveticaNeue-48"/>
      </g>
     </g>
    </g>
    <g id="ytick_8">
     <g id="line2d_26">
      <g>
       <use style="fill:#555555;stroke:#555555;stroke-width:0.8;" x="62.5" xlink:href="#md390ad5bcb" y="46.221193"/>
      </g>
     </g>
     <g id="text_15">
      <!-- 1400 -->
      <g style="fill:#555555;" transform="translate(33.2625 49.791506)scale(0.1 -0.1)">
       <use xlink:href="#HelveticaNeue-49"/>
       <use x="55.599991" xlink:href="#HelveticaNeue-52"/>
       <use x="111.199982" xlink:href="#HelveticaNeue-48"/>
       <use x="166.799973" xlink:href="#HelveticaNeue-48"/>
      </g>
     </g>
    </g>
   </g>
   <g id="line2d_27">
    <path clip-path="url(#p0cad1c7619)" d="M 63.28125 251.795455 
L 64.0625 251.501777 
L 64.84375 251.648616 
L 65.625 250.327067 
L 66.40625 251.501777 
L 67.1875 250.180228 
L 67.96875 250.767583 
L 68.75 250.767583 
L 69.53125 250.620744 
L 70.3125 250.767583 
L 71.09375 251.501777 
L 71.875 251.354938 
L 73.4375 249.592873 
L 75 251.648616 
L 75.78125 249.005518 
L 76.5625 249.446034 
L 77.34375 250.767583 
L 78.125 250.767583 
L 78.90625 251.501777 
L 79.6875 251.501777 
L 80.46875 251.061261 
L 81.25 250.180228 
L 82.8125 251.648616 
L 83.59375 250.767583 
L 84.375 250.180228 
L 85.15625 250.914422 
L 85.9375 249.739712 
L 86.71875 249.739712 
L 87.5 251.648616 
L 89.0625 250.180228 
L 89.84375 250.033389 
L 90.625 251.061261 
L 91.40625 250.473906 
L 92.1875 249.446034 
L 93.75 250.767583 
L 94.53125 250.473906 
L 95.3125 250.767583 
L 96.09375 250.914422 
L 96.875 251.501777 
L 97.65625 249.152357 
L 98.4375 251.2081 
L 99.21875 250.914422 
L 100 249.886551 
L 100.78125 250.767583 
L 101.5625 250.473906 
L 102.34375 249.446034 
L 103.125 249.739712 
L 103.90625 249.299196 
L 104.6875 250.914422 
L 105.46875 249.886551 
L 106.25 249.739712 
L 107.03125 250.767583 
L 107.8125 250.620744 
L 108.59375 251.354938 
L 109.375 247.977647 
L 110.15625 250.033389 
L 110.9375 250.473906 
L 111.71875 248.565002 
L 113.28125 251.061261 
L 114.0625 249.446034 
L 114.84375 250.473906 
L 115.625 246.949776 
L 116.40625 245.921904 
L 117.1875 247.096614 
L 117.96875 248.858679 
L 118.75 247.243453 
L 119.53125 249.005518 
L 121.09375 244.747194 
L 121.875 248.418163 
L 122.65625 247.683969 
L 123.4375 248.124486 
L 124.21875 247.096614 
L 125 248.124486 
L 125.78125 245.628227 
L 126.5625 245.775065 
L 127.34375 247.977647 
L 128.125 246.949776 
L 128.90625 247.830808 
L 129.6875 248.124486 
L 130.46875 246.802937 
L 131.25 247.537131 
L 132.03125 245.18771 
L 132.8125 240.929386 
L 133.59375 243.131968 
L 134.375 236.96474 
L 135.15625 243.278807 
L 135.9375 243.572484 
L 136.71875 243.425645 
L 137.5 230.356996 
L 138.28125 241.957258 
L 139.0625 238.873644 
L 139.84375 238.13945 
L 140.625 236.671062 
L 141.40625 242.544613 
L 142.1875 231.09119 
L 142.96875 232.559577 
L 143.75 222.574542 
L 144.53125 239.607838 
L 145.3125 231.384867 
L 146.09375 236.817901 
L 146.875 235.202675 
L 147.65625 222.868219 
L 148.4375 229.91648 
L 149.21875 225.070801 
L 150 224.483446 
L 150.78125 228.448092 
L 151.5625 237.258418 
L 152.34375 223.455574 
L 153.125 229.622802 
L 153.90625 216.554153 
L 154.6875 211.267957 
L 155.46875 225.070801 
L 156.25 220.37196 
L 157.03125 221.693509 
L 157.8125 228.888608 
L 158.59375 203.191826 
L 159.375 197.024598 
L 160.15625 221.840348 
L 160.9375 197.611953 
L 162.5 229.91648 
L 163.28125 190.123176 
L 164.0625 190.270015 
L 164.84375 209.065376 
L 165.625 211.267957 
L 166.40625 202.751309 
L 167.1875 189.976337 
L 167.96875 200.842406 
L 168.75 203.044987 
L 169.53125 155.469229 
L 170.3125 198.933502 
L 171.09375 188.50795 
L 172.65625 174.851945 
L 173.4375 198.492985 
L 174.21875 177.348204 
L 175 163.398522 
L 175.78125 168.097363 
L 176.5625 158.259166 
L 177.34375 178.229237 
L 178.125 167.803685 
L 178.90625 167.363169 
L 179.6875 162.370651 
L 180.46875 145.337355 
L 181.25 205.834923 
L 182.03125 185.277497 
L 182.8125 170.299944 
L 183.59375 192.03208 
L 184.375 181.019173 
L 185.15625 175.586139 
L 185.9375 187.33324 
L 186.71875 179.844463 
L 187.5 207.890666 
L 188.28125 203.191826 
L 189.0625 217.728863 
L 189.84375 212.295829 
L 190.625 176.61401 
L 191.40625 212.736345 
L 192.1875 226.098672 
L 192.96875 214.645249 
L 193.75 215.819959 
L 194.53125 230.356996 
L 195.3125 233.44061 
L 196.09375 212.14899 
L 196.875 218.609895 
L 197.65625 229.035447 
L 198.4375 213.764216 
L 199.21875 210.386925 
L 200 228.154415 
L 200.78125 241.66358 
L 201.5625 224.777123 
L 202.34375 220.812477 
L 203.125 227.713898 
L 203.90625 221.252993 
L 204.6875 227.860737 
L 205.46875 228.448092 
L 206.25 230.944351 
L 207.03125 223.896091 
L 207.8125 223.455574 
L 208.59375 220.225122 
L 209.375 228.007576 
L 210.15625 225.217639 
L 210.9375 221.987187 
L 211.71875 234.174804 
L 212.5 228.301253 
L 213.28125 229.329125 
L 214.0625 237.552095 
L 214.84375 226.539188 
L 215.625 220.665638 
L 216.40625 213.617377 
L 217.1875 225.511317 
L 217.96875 231.09119 
L 218.75 228.594931 
L 219.53125 216.994669 
L 220.3125 219.784605 
L 221.875 227.567059 
L 222.65625 234.321642 
L 223.4375 239.754676 
L 225 230.650673 
L 225.78125 212.442667 
L 226.5625 223.015058 
L 227.34375 223.161897 
L 228.125 229.182286 
L 228.90625 226.832866 
L 229.6875 215.379443 
L 230.46875 225.364478 
L 231.25 221.399832 
L 232.03125 219.931444 
L 233.59375 234.174804 
L 234.375 221.987187 
L 235.15625 214.057894 
L 235.9375 217.435185 
L 236.71875 215.966798 
L 237.5 224.189768 
L 238.28125 220.225122 
L 239.0625 225.217639 
L 239.84375 214.49841 
L 240.625 219.637767 
L 241.40625 217.435185 
L 242.1875 221.987187 
L 242.96875 227.420221 
L 243.75 223.455574 
L 244.53125 221.54667 
L 245.3125 225.364478 
L 246.09375 220.225122 
L 246.875 223.602413 
L 247.65625 218.316218 
L 248.4375 226.392349 
L 249.21875 226.392349 
L 250 233.881126 
L 250.78125 218.756734 
L 251.5625 213.617377 
L 252.34375 228.74177 
L 253.125 218.463056 
L 253.90625 220.225122 
L 254.6875 223.161897 
L 255.46875 230.797512 
L 256.25 215.67312 
L 257.03125 214.938926 
L 257.8125 206.862795 
L 258.59375 211.855312 
L 259.375 212.002151 
L 260.15625 222.868219 
L 260.9375 223.015058 
L 261.71875 219.931444 
L 262.5 209.505892 
L 263.28125 207.303311 
L 264.0625 220.078283 
L 264.84375 198.933502 
L 265.625 213.764216 
L 266.40625 220.812477 
L 267.1875 208.184343 
L 268.75 217.288346 
L 270.3125 201.429761 
L 271.09375 203.191826 
L 271.875 211.855312 
L 272.65625 190.85737 
L 273.4375 194.087823 
L 274.21875 173.824074 
L 275 201.282922 
L 275.78125 184.249626 
L 276.5625 186.745885 
L 277.34375 210.093247 
L 278.125 182.781238 
L 278.90625 174.558268 
L 279.6875 181.166012 
L 280.46875 179.403947 
L 281.25 208.478021 
L 284.375 161.636457 
L 285.15625 152.97297 
L 286.71875 227.126543 
L 288.28125 153.854003 
L 289.0625 182.6344 
L 289.84375 141.666386 
L 290.625 157.231294 
L 291.40625 145.777871 
L 292.1875 156.937617 
L 293.75 187.33324 
L 294.53125 212.442667 
L 295.3125 133.590254 
L 296.09375 115.23541 
L 296.875 152.679293 
L 297.65625 155.175552 
L 298.4375 143.281612 
L 299.21875 176.320333 
L 300 160.16807 
L 300.78125 160.021231 
L 301.5625 167.21633 
L 302.34375 178.082398 
L 303.125 184.249626 
L 303.90625 181.019173 
L 304.6875 210.680602 
L 305.46875 158.259166 
L 306.25 176.173494 
L 307.03125 199.227179 
L 307.8125 206.569117 
L 308.59375 204.513374 
L 309.375 220.665638 
L 310.15625 211.267957 
L 310.9375 216.700991 
L 311.71875 218.316218 
L 312.5 219.637767 
L 313.28125 217.582024 
L 314.0625 222.280864 
L 314.84375 224.336607 
L 315.625 228.154415 
L 316.40625 228.301253 
L 317.1875 227.567059 
L 317.96875 230.797512 
L 318.75 223.896091 
L 319.53125 232.2659 
L 320.3125 227.713898 
L 321.875 235.936869 
L 322.65625 226.686027 
L 323.4375 233.734287 
L 324.21875 235.936869 
L 325 240.195193 
L 325.78125 238.579966 
L 326.5625 240.342031 
L 327.34375 235.79003 
L 328.125 238.873644 
L 328.90625 233.587449 
L 329.6875 238.579966 
L 330.46875 238.433128 
L 331.25 239.460999 
L 332.03125 241.223064 
L 332.8125 234.027965 
L 333.59375 240.635709 
L 334.375 240.929386 
L 335.15625 242.544613 
L 335.9375 242.250935 
L 336.71875 240.195193 
L 337.5 244.453517 
L 338.28125 244.894033 
L 339.0625 240.635709 
L 339.84375 235.349514 
L 340.625 236.96474 
L 341.40625 243.278807 
L 342.1875 245.921904 
L 342.96875 244.159839 
L 343.75 245.628227 
L 344.53125 237.258418 
L 345.3125 240.195193 
L 346.09375 239.31416 
L 346.875 237.258418 
L 347.65625 241.810419 
L 348.4375 239.167321 
L 349.21875 243.719323 
L 350 237.698934 
L 350.78125 236.96474 
L 351.5625 229.035447 
L 352.34375 227.567059 
L 353.125 231.09119 
L 353.90625 239.607838 
L 355.46875 221.840348 
L 356.25 221.693509 
L 357.03125 231.972222 
L 357.8125 226.686027 
L 358.59375 219.784605 
L 359.375 231.678545 
L 360.15625 223.455574 
L 360.9375 212.002151 
L 361.71875 212.295829 
L 362.5 203.191826 
L 363.28125 200.695567 
L 364.0625 202.898148 
L 364.84375 212.295829 
L 365.625 182.928077 
L 366.40625 189.388982 
L 367.1875 173.08988 
L 367.96875 193.500468 
L 368.75 173.236719 
L 369.53125 191.738403 
L 370.3125 190.563692 
L 371.09375 173.236719 
L 371.875 168.684718 
L 372.65625 182.487561 
L 373.4375 161.049102 
L 374.21875 173.970913 
L 375 189.535821 
L 375.78125 191.297886 
L 376.5625 178.669753 
L 377.34375 159.140198 
L 378.125 179.844463 
L 378.90625 163.6922 
L 379.6875 154.735036 
L 380.46875 185.718013 
L 381.25 194.234661 
L 382.03125 176.760849 
L 382.8125 146.071549 
L 383.59375 172.649364 
L 384.375 167.803685 
L 385.15625 156.497101 
L 385.9375 163.104845 
L 386.71875 187.626917 
L 387.5 167.510007 
L 388.28125 152.97297 
L 389.0625 169.125234 
L 389.84375 164.426394 
L 390.625 171.327815 
L 391.40625 183.368593 
L 392.1875 183.662271 
L 392.96875 185.130658 
L 393.75 153.854003 
L 394.53125 159.433876 
L 395.3125 150.476712 
L 396.09375 145.337355 
L 396.875 164.426394 
L 397.65625 165.747942 
L 398.4375 93.650112 
L 399.21875 118.319024 
L 400 111.711279 
L 400.78125 119.053217 
L 401.5625 133.443416 
L 402.34375 124.926768 
L 403.125 107.012439 
L 403.90625 91.888047 
L 404.6875 103.34147 
L 405.46875 37.704545 
L 407.03125 76.616816 
L 407.8125 105.103535 
L 408.59375 101.138889 
L 409.375 107.893472 
L 410.15625 84.252432 
L 410.9375 106.8656 
L 411.71875 123.752058 
L 412.5 110.830247 
L 413.28125 144.603161 
L 414.0625 158.112327 
L 414.84375 125.514123 
L 415.625 107.452955 
L 416.40625 107.306117 
L 417.1875 76.1763 
L 417.96875 113.620183 
L 418.75 134.764964 
L 419.53125 135.939675 
L 420.3125 96.146371 
L 421.09375 115.088571 
L 421.875 92.622241 
L 422.65625 90.566498 
L 423.4375 110.830247 
L 424.21875 118.75954 
L 425 134.911803 
L 425.78125 111.858118 
L 426.5625 77.791526 
L 427.34375 103.194632 
L 428.125 105.984568 
L 428.90625 144.603161 
L 429.6875 127.423027 
L 430.46875 152.238777 
L 431.25 149.742518 
L 432.03125 110.683408 
L 432.8125 160.461747 
L 433.59375 165.013749 
L 434.375 176.907688 
L 435.15625 157.084456 
L 435.9375 170.153105 
L 436.71875 174.705107 
L 437.5 127.129349 
L 438.28125 173.383558 
L 439.0625 188.214272 
L 439.84375 183.368593 
L 440.625 203.191826 
L 441.40625 203.485503 
L 442.1875 185.424336 
L 442.96875 200.989244 
L 443.75 209.652731 
L 444.53125 214.792088 
L 445.3125 218.903573 
L 446.09375 216.113636 
L 446.875 223.602413 
L 447.65625 228.594931 
L 448.4375 225.511317 
L 449.21875 226.979704 
L 450 242.83829 
L 450 242.83829 
" style="fill:none;stroke:#000000;stroke-dasharray:1.5,2.475;stroke-dashoffset:0;stroke-opacity:0.5;stroke-width:1.5;"/>
   </g>
   <g id="line2d_28">
    <path clip-path="url(#p0cad1c7619)" d="M 62.5 251.648616 
L 63.28125 251.354938 
L 64.0625 251.354938 
L 67.1875 250.767583 
L 68.75 250.767583 
L 69.53125 250.914422 
L 70.3125 250.914422 
L 71.09375 250.767583 
L 72.65625 250.767583 
L 73.4375 250.620744 
L 74.21875 250.327067 
L 75 250.180228 
L 75.78125 250.180228 
L 76.5625 250.473906 
L 77.34375 250.620744 
L 78.125 250.620744 
L 78.90625 250.914422 
L 79.6875 251.061261 
L 81.25 251.061261 
L 83.59375 250.620744 
L 85.15625 250.620744 
L 85.9375 250.473906 
L 88.28125 250.473906 
L 89.0625 250.620744 
L 90.625 250.327067 
L 92.96875 250.327067 
L 94.53125 250.620744 
L 96.09375 250.620744 
L 96.875 250.767583 
L 97.65625 250.620744 
L 98.4375 250.620744 
L 100 250.327067 
L 100.78125 250.327067 
L 101.5625 250.033389 
L 103.125 250.033389 
L 103.90625 249.886551 
L 106.25 250.327067 
L 107.03125 250.180228 
L 108.59375 250.180228 
L 109.375 249.886551 
L 110.15625 249.739712 
L 111.71875 249.739712 
L 112.5 250.033389 
L 113.28125 249.739712 
L 114.0625 249.152357 
L 114.84375 248.711841 
L 115.625 248.418163 
L 116.40625 247.830808 
L 118.75 247.390292 
L 119.53125 247.537131 
L 120.3125 247.390292 
L 122.65625 247.390292 
L 123.4375 247.243453 
L 124.21875 247.243453 
L 125.78125 246.949776 
L 126.5625 246.949776 
L 127.34375 247.096614 
L 128.125 247.096614 
L 128.90625 247.390292 
L 129.6875 247.243453 
L 131.25 245.775065 
L 132.03125 244.306678 
L 132.8125 243.278807 
L 133.59375 242.544613 
L 134.375 242.104097 
L 135.15625 240.635709 
L 135.9375 240.48887 
L 136.71875 239.901515 
L 137.5 239.754676 
L 138.28125 238.873644 
L 139.0625 238.579966 
L 139.84375 237.552095 
L 140.625 237.552095 
L 141.40625 235.202675 
L 142.1875 234.468481 
L 142.96875 233.293771 
L 143.75 233.146932 
L 144.53125 232.706416 
L 145.3125 232.119061 
L 146.875 231.531706 
L 147.65625 229.475963 
L 148.4375 228.448092 
L 149.21875 228.301253 
L 150 227.567059 
L 150.78125 228.301253 
L 151.5625 227.126543 
L 152.34375 225.364478 
L 153.125 224.336607 
L 154.6875 220.665638 
L 155.46875 221.252993 
L 157.03125 216.84783 
L 157.8125 216.554153 
L 158.59375 212.883184 
L 159.375 211.121119 
L 160.15625 211.561635 
L 160.9375 208.62486 
L 161.71875 207.303311 
L 162.5 207.45015 
L 163.28125 205.834923 
L 164.0625 205.688085 
L 165.625 200.255051 
L 166.40625 201.429761 
L 167.1875 197.024598 
L 167.96875 194.234661 
L 168.75 190.85737 
L 169.53125 188.067434 
L 170.3125 185.864852 
L 171.09375 185.130658 
L 171.875 183.221755 
L 172.65625 183.515432 
L 174.21875 175.292462 
L 175.78125 171.621493 
L 176.5625 168.244201 
L 177.34375 166.922652 
L 178.125 165.013749 
L 179.6875 171.327815 
L 180.46875 171.91517 
L 181.25 175.732978 
L 182.03125 178.669753 
L 182.8125 180.725496 
L 183.59375 184.249626 
L 184.375 181.606528 
L 185.15625 184.249626 
L 186.71875 192.619435 
L 187.5 198.052469 
L 188.28125 199.814534 
L 189.0625 202.751309 
L 189.84375 207.009633 
L 190.625 208.037505 
L 191.40625 210.093247 
L 192.1875 212.589506 
L 193.75 221.252993 
L 194.53125 221.987187 
L 195.3125 222.427703 
L 196.09375 222.280864 
L 196.875 221.106154 
L 197.65625 220.225122 
L 198.4375 221.252993 
L 199.21875 223.308736 
L 200 224.336607 
L 200.78125 224.923962 
L 202.34375 227.126543 
L 203.125 226.686027 
L 203.90625 225.804994 
L 204.6875 226.098672 
L 205.46875 226.539188 
L 206.25 225.658156 
L 207.03125 225.951833 
L 207.8125 225.364478 
L 208.59375 224.630284 
L 209.375 224.923962 
L 210.9375 226.832866 
L 211.71875 228.888608 
L 212.5 229.329125 
L 213.28125 229.182286 
L 214.0625 227.860737 
L 214.84375 226.098672 
L 215.625 225.511317 
L 216.40625 225.217639 
L 217.1875 223.455574 
L 217.96875 223.015058 
L 218.75 223.308736 
L 219.53125 224.336607 
L 220.3125 225.070801 
L 221.09375 226.539188 
L 221.875 228.301253 
L 222.65625 230.797512 
L 223.4375 230.503835 
L 224.21875 229.769641 
L 227.34375 223.161897 
L 228.125 222.868219 
L 228.90625 223.602413 
L 229.6875 223.015058 
L 230.46875 223.161897 
L 231.25 223.749252 
L 232.8125 224.042929 
L 234.375 221.987187 
L 235.15625 221.54667 
L 235.9375 220.225122 
L 236.71875 219.490928 
L 237.5 219.19725 
L 238.28125 219.931444 
L 239.0625 219.931444 
L 239.84375 220.225122 
L 240.625 220.37196 
L 241.40625 220.959315 
L 242.1875 221.106154 
L 242.96875 222.574542 
L 243.75 222.868219 
L 244.53125 223.455574 
L 245.3125 222.868219 
L 246.09375 222.574542 
L 246.875 222.868219 
L 247.65625 224.336607 
L 248.4375 224.189768 
L 249.21875 223.749252 
L 250 224.042929 
L 250.78125 223.602413 
L 251.5625 222.574542 
L 252.34375 221.840348 
L 253.90625 221.840348 
L 254.6875 221.987187 
L 255.46875 219.490928 
L 256.25 218.02254 
L 257.03125 216.113636 
L 257.8125 215.232604 
L 258.59375 214.645249 
L 259.375 215.819959 
L 260.9375 216.113636 
L 261.71875 216.554153 
L 263.28125 212.736345 
L 264.0625 212.14899 
L 264.84375 211.267957 
L 265.625 211.708474 
L 266.40625 212.883184 
L 267.1875 212.14899 
L 267.96875 212.14899 
L 269.53125 209.065376 
L 270.3125 206.715956 
L 271.09375 203.926019 
L 271.875 198.639824 
L 272.65625 196.437243 
L 274.21875 191.004209 
L 275 190.710531 
L 275.78125 190.563692 
L 276.5625 188.948466 
L 277.34375 189.095305 
L 278.125 186.011691 
L 278.90625 187.626917 
L 279.6875 188.654789 
L 280.46875 187.186401 
L 281.25 187.33324 
L 282.03125 185.718013 
L 282.8125 181.166012 
L 283.59375 179.257108 
L 285.15625 180.872334 
L 285.9375 180.138141 
L 286.71875 182.047045 
L 288.28125 177.054527 
L 289.0625 169.272073 
L 289.84375 160.021231 
L 290.625 157.378133 
L 291.40625 160.902263 
L 292.1875 166.04162 
L 292.96875 168.244201 
L 293.75 165.013749 
L 294.53125 163.545361 
L 295.3125 160.16807 
L 296.09375 154.441358 
L 296.875 151.79826 
L 297.65625 148.420969 
L 298.4375 153.266648 
L 299.21875 159.433876 
L 300 162.811167 
L 301.5625 171.621493 
L 302.34375 176.760849 
L 303.125 178.669753 
L 303.90625 180.872334 
L 306.25 189.68266 
L 307.03125 195.115694 
L 307.8125 198.052469 
L 308.59375 205.981762 
L 309.375 211.414796 
L 310.15625 214.204733 
L 310.9375 215.819959 
L 311.71875 217.875701 
L 312.5 218.609895 
L 313.28125 220.812477 
L 314.0625 222.574542 
L 314.84375 224.042929 
L 315.625 225.804994 
L 317.1875 228.007576 
L 317.96875 228.301253 
L 318.75 228.888608 
L 319.53125 229.769641 
L 320.3125 230.063318 
L 321.09375 230.650673 
L 321.875 231.972222 
L 322.65625 233.000094 
L 324.21875 235.79003 
L 325 236.377385 
L 325.78125 237.845773 
L 327.34375 237.845773 
L 328.125 237.552095 
L 328.90625 237.552095 
L 329.6875 237.845773 
L 330.46875 237.845773 
L 331.25 238.13945 
L 332.03125 239.020483 
L 332.8125 239.460999 
L 333.59375 240.048354 
L 334.375 240.342031 
L 335.15625 240.929386 
L 335.9375 242.250935 
L 336.71875 242.397774 
L 337.5 241.810419 
L 338.28125 240.929386 
L 339.0625 240.782548 
L 339.84375 241.076225 
L 340.625 241.076225 
L 341.40625 241.66358 
L 342.1875 241.810419 
L 342.96875 242.397774 
L 343.75 242.397774 
L 345.3125 240.48887 
L 346.09375 239.901515 
L 346.875 239.754676 
L 347.65625 239.901515 
L 348.4375 239.607838 
L 349.21875 238.433128 
L 350 236.96474 
L 350.78125 235.055836 
L 351.5625 234.321642 
L 353.90625 229.475963 
L 354.6875 229.182286 
L 355.46875 228.594931 
L 356.25 226.979704 
L 357.03125 226.098672 
L 357.8125 225.511317 
L 358.59375 224.483446 
L 359.375 222.868219 
L 361.71875 211.708474 
L 362.5 208.62486 
L 363.28125 204.072858 
L 364.0625 200.842406 
L 364.84375 195.849888 
L 365.625 193.353629 
L 366.40625 189.095305 
L 367.96875 184.543303 
L 368.75 183.80911 
L 369.53125 181.753367 
L 370.3125 181.900206 
L 371.09375 177.935559 
L 372.65625 175.732978 
L 373.4375 176.320333 
L 374.21875 177.935559 
L 375 177.788721 
L 375.78125 177.495043 
L 376.5625 177.054527 
L 377.34375 173.677235 
L 378.125 171.91517 
L 378.90625 172.208848 
L 379.6875 173.236719 
L 380.46875 172.796203 
L 381.25 172.062009 
L 382.03125 171.91517 
L 382.8125 170.74046 
L 383.59375 167.069491 
L 384.375 166.04162 
L 385.15625 166.188459 
L 385.9375 167.21633 
L 386.71875 166.922652 
L 387.5 166.482136 
L 388.28125 167.510007 
L 389.0625 169.272073 
L 389.84375 169.712589 
L 390.625 173.08988 
L 391.40625 174.411429 
L 392.1875 173.383558 
L 392.96875 170.74046 
L 393.75 165.894781 
L 394.53125 161.783296 
L 395.3125 158.846521 
L 396.09375 149.595679 
L 396.875 144.162645 
L 397.65625 136.673868 
L 398.4375 130.359802 
L 399.21875 126.395155 
L 400.78125 116.997475 
L 401.5625 116.850636 
L 402.34375 114.207538 
L 404.6875 84.252432 
L 405.46875 79.553591 
L 406.25 78.966236 
L 407.03125 82.490367 
L 407.8125 84.105593 
L 408.59375 93.209596 
L 409.375 100.698373 
L 410.15625 104.809858 
L 410.9375 109.949214 
L 411.71875 118.172185 
L 412.5 123.45838 
L 413.28125 127.716704 
L 414.0625 127.716704 
L 414.84375 121.255799 
L 416.40625 113.913861 
L 417.1875 111.711279 
L 417.96875 110.683408 
L 418.75 112.739151 
L 419.53125 112.151796 
L 420.3125 112.004957 
L 421.875 106.425084 
L 422.65625 107.012439 
L 423.4375 110.242892 
L 424.21875 108.040311 
L 425 108.921343 
L 425.78125 109.068182 
L 426.5625 111.123924 
L 427.34375 112.445473 
L 428.125 116.556958 
L 428.90625 124.045735 
L 431.25 143.134774 
L 434.375 161.049102 
L 435.15625 163.251684 
L 435.9375 163.398522 
L 437.5 166.482136 
L 439.0625 178.669753 
L 439.84375 183.074916 
L 440.625 191.885241 
L 441.40625 196.290404 
L 442.1875 199.814534 
L 442.96875 204.219697 
L 443.75 207.009633 
L 444.53125 210.680602 
L 445.3125 216.260475 
L 446.09375 219.637767 
L 446.875 222.280864 
L 447.65625 225.804994 
L 448.4375 227.713898 
L 449.21875 229.91648 
L 450 231.678545 
L 450 231.678545 
" style="fill:none;stroke:#b3220f;stroke-linecap:square;stroke-width:1.5;"/>
   </g>
   <g id="patch_3">
    <path d="M 62.5 262.5 
L 62.5 27 
" style="fill:none;stroke:#555555;stroke-linecap:square;stroke-linejoin:miter;"/>
   </g>
   <g id="patch_4">
    <path d="M 62.5 262.5 
L 450 262.5 
" style="fill:none;stroke:#555555;stroke-linecap:square;stroke-linejoin:miter;"/>
   </g>
   <g id="text_16">
    <!-- Engativ | Casos nuevos: 2021-07-29 -->
    <g style="fill:#555555;" transform="translate(139.030625 17)scale(0.14 -0.14)">
     <defs>
      <path d="M 7.796875 71.40625 
L 7.796875 0 
L 57.40625 0 
L 57.40625 8 
L 17.296875 8 
L 17.296875 32.703125 
L 54.40625 32.703125 
L 54.40625 40.703125 
L 17.296875 40.703125 
L 17.296875 63.40625 
L 57.09375 63.40625 
L 57.09375 71.40625 
z
" id="HelveticaNeue-69"/>
      <path d="M 51 4.40625 
L 51 51.703125 
L 43 51.703125 
L 43 44.296875 
L 42.90625 44.296875 
Q 40.59375 48.59375 36.5 50.75 
Q 32.40625 52.90625 27.5 52.90625 
Q 20.796875 52.90625 16.1875 50.34375 
Q 11.59375 47.796875 8.796875 43.84375 
Q 6 39.90625 4.796875 35.046875 
Q 3.59375 30.203125 3.59375 25.59375 
Q 3.59375 20.296875 5.046875 15.546875 
Q 6.5 10.796875 9.390625 7.25 
Q 12.296875 3.703125 16.59375 1.59375 
Q 20.90625 -0.5 26.703125 -0.5 
Q 31.703125 -0.5 36.140625 1.75 
Q 40.59375 4 42.796875 8.796875 
L 43 8.796875 
L 43 5.40625 
Q 43 1.09375 42.140625 -2.5 
Q 41.296875 -6.09375 39.390625 -8.640625 
Q 37.5 -11.203125 34.59375 -12.640625 
Q 31.703125 -14.09375 27.5 -14.09375 
Q 25.40625 -14.09375 23.09375 -13.640625 
Q 20.796875 -13.203125 18.84375 -12.203125 
Q 16.90625 -11.203125 15.546875 -9.59375 
Q 14.203125 -8 14.09375 -5.703125 
L 5.59375 -5.703125 
Q 5.796875 -9.90625 7.796875 -12.796875 
Q 9.796875 -15.703125 12.84375 -17.5 
Q 15.90625 -19.296875 19.65625 -20.09375 
Q 23.40625 -20.90625 27 -20.90625 
Q 39.40625 -20.90625 45.203125 -14.59375 
Q 51 -8.296875 51 4.40625 
z
M 27.203125 6.90625 
Q 23 6.90625 20.203125 8.65625 
Q 17.40625 10.40625 15.703125 13.25 
Q 14 16.09375 13.296875 19.59375 
Q 12.59375 23.09375 12.59375 26.59375 
Q 12.59375 30.296875 13.4375 33.6875 
Q 14.296875 37.09375 16.140625 39.6875 
Q 18 42.296875 20.890625 43.84375 
Q 23.796875 45.40625 27.90625 45.40625 
Q 31.90625 45.40625 34.703125 43.796875 
Q 37.5 42.203125 39.25 39.546875 
Q 41 36.90625 41.796875 33.59375 
Q 42.59375 30.296875 42.59375 26.90625 
Q 42.59375 23.296875 41.75 19.6875 
Q 40.90625 16.09375 39.09375 13.25 
Q 37.296875 10.40625 34.34375 8.65625 
Q 31.40625 6.90625 27.203125 6.90625 
z
" id="HelveticaNeue-103"/>
      <path d="M 15.40625 61 
L 15.40625 71.40625 
L 6.90625 71.40625 
L 6.90625 61 
z
M 6.90625 51.703125 
L 6.90625 0 
L 15.40625 0 
L 15.40625 51.703125 
z
" id="HelveticaNeue-105"/>
      <path d="M 29.703125 0 
L 48.59375 51.703125 
L 39.703125 51.703125 
L 25.59375 8.59375 
L 25.40625 8.59375 
L 10.90625 51.703125 
L 1.40625 51.703125 
L 20.59375 0 
z
" id="HelveticaNeue-118"/>
      <path d="M 52.203125 0.203125 
Q 50 -1.09375 46.09375 -1.09375 
Q 42.796875 -1.09375 40.84375 0.75 
Q 38.90625 2.59375 38.90625 6.796875 
Q 35.40625 2.59375 30.75 0.75 
Q 26.09375 -1.09375 20.703125 -1.09375 
Q 17.203125 -1.09375 14.046875 -0.296875 
Q 10.90625 0.5 8.59375 2.203125 
Q 6.296875 3.90625 4.9375 6.65625 
Q 3.59375 9.40625 3.59375 13.296875 
Q 3.59375 17.703125 5.09375 20.5 
Q 6.59375 23.296875 9.046875 25.046875 
Q 11.5 26.796875 14.640625 27.6875 
Q 17.796875 28.59375 21.09375 29.203125 
Q 24.59375 29.90625 27.75 30.25 
Q 30.90625 30.59375 33.296875 31.25 
Q 35.703125 31.90625 37.09375 33.15625 
Q 38.5 34.40625 38.5 36.796875 
Q 38.5 39.59375 37.453125 41.296875 
Q 36.40625 43 34.75 43.890625 
Q 33.09375 44.796875 31.046875 45.09375 
Q 29 45.40625 27 45.40625 
Q 21.59375 45.40625 18 43.34375 
Q 14.40625 41.296875 14.09375 35.59375 
L 5.59375 35.59375 
Q 5.796875 40.40625 7.59375 43.703125 
Q 9.40625 47 12.40625 49.046875 
Q 15.40625 51.09375 19.25 52 
Q 23.09375 52.90625 27.5 52.90625 
Q 31 52.90625 34.453125 52.40625 
Q 37.90625 51.90625 40.703125 50.34375 
Q 43.5 48.796875 45.203125 46 
Q 46.90625 43.203125 46.90625 38.703125 
L 46.90625 12.09375 
Q 46.90625 9.09375 47.25 7.6875 
Q 47.59375 6.296875 49.59375 6.296875 
Q 50.703125 6.296875 52.203125 6.796875 
z
M 38.40625 26.703125 
Q 36.796875 25.5 34.1875 24.953125 
Q 31.59375 24.40625 28.75 24.046875 
Q 25.90625 23.703125 23 23.25 
Q 20.09375 22.796875 17.796875 21.796875 
Q 15.5 20.796875 14.046875 18.9375 
Q 12.59375 17.09375 12.59375 13.90625 
Q 12.59375 11.796875 13.4375 10.34375 
Q 14.296875 8.90625 15.640625 8 
Q 17 7.09375 18.796875 6.6875 
Q 20.59375 6.296875 22.59375 6.296875 
Q 26.796875 6.296875 29.796875 7.4375 
Q 32.796875 8.59375 34.6875 10.34375 
Q 36.59375 12.09375 37.5 14.140625 
Q 38.40625 16.203125 38.40625 18 
z
M 41.296875 77 
L 27.203125 60.796875 
L 20.796875 60.796875 
L 30.40625 77 
z
" id="HelveticaNeue-225"/>
      <path id="HelveticaNeue-32"/>
      <path d="M 7.703125 78.59375 
L 7.703125 -21.296875 
L 14.5 -21.296875 
L 14.5 78.59375 
z
" id="HelveticaNeue-124"/>
      <path d="M 58 49.90625 
L 67.5 49.90625 
Q 66.703125 55.59375 64.09375 59.9375 
Q 61.5 64.296875 57.59375 67.1875 
Q 53.703125 70.09375 48.703125 71.59375 
Q 43.703125 73.09375 38.09375 73.09375 
Q 29.90625 73.09375 23.546875 70.140625 
Q 17.203125 67.203125 12.953125 62.09375 
Q 8.703125 57 6.5 50.140625 
Q 4.296875 43.296875 4.296875 35.5 
Q 4.296875 27.703125 6.34375 20.890625 
Q 8.40625 14.09375 12.5 9.09375 
Q 16.59375 4.09375 22.796875 1.25 
Q 29 -1.59375 37.296875 -1.59375 
Q 51 -1.59375 58.890625 5.90625 
Q 66.796875 13.40625 68.203125 26.90625 
L 58.703125 26.90625 
Q 58.40625 22.5 56.90625 18.703125 
Q 55.40625 14.90625 52.75 12.15625 
Q 50.09375 9.40625 46.4375 7.84375 
Q 42.796875 6.296875 38.09375 6.296875 
Q 31.703125 6.296875 27.09375 8.6875 
Q 22.5 11.09375 19.546875 15.140625 
Q 16.59375 19.203125 15.1875 24.640625 
Q 13.796875 30.09375 13.796875 36.203125 
Q 13.796875 41.796875 15.1875 47 
Q 16.59375 52.203125 19.546875 56.25 
Q 22.5 60.296875 27.046875 62.6875 
Q 31.59375 65.09375 38 65.09375 
Q 45.5 65.09375 50.953125 61.296875 
Q 56.40625 57.5 58 49.90625 
z
" id="HelveticaNeue-67"/>
      <path d="M 11.59375 16.296875 
L 3.09375 16.296875 
Q 3.296875 11.5 5.09375 8.140625 
Q 6.90625 4.796875 9.90625 2.75 
Q 12.90625 0.703125 16.796875 -0.1875 
Q 20.703125 -1.09375 25 -1.09375 
Q 28.90625 -1.09375 32.84375 -0.34375 
Q 36.796875 0.40625 39.9375 2.296875 
Q 43.09375 4.203125 45.046875 7.296875 
Q 47 10.40625 47 15.09375 
Q 47 18.796875 45.546875 21.296875 
Q 44.09375 23.796875 41.75 25.4375 
Q 39.40625 27.09375 36.34375 28.09375 
Q 33.296875 29.09375 30.09375 29.796875 
Q 27.09375 30.5 24.09375 31.140625 
Q 21.09375 31.796875 18.6875 32.75 
Q 16.296875 33.703125 14.75 35.140625 
Q 13.203125 36.59375 13.203125 38.796875 
Q 13.203125 40.796875 14.203125 42.046875 
Q 15.203125 43.296875 16.796875 44.046875 
Q 18.40625 44.796875 20.34375 45.09375 
Q 22.296875 45.40625 24.203125 45.40625 
Q 26.296875 45.40625 28.34375 44.953125 
Q 30.40625 44.5 32.09375 43.5 
Q 33.796875 42.5 34.890625 40.84375 
Q 36 39.203125 36.203125 36.703125 
L 44.703125 36.703125 
Q 44.40625 41.40625 42.703125 44.546875 
Q 41 47.703125 38.140625 49.546875 
Q 35.296875 51.40625 31.59375 52.15625 
Q 27.90625 52.90625 23.5 52.90625 
Q 20.09375 52.90625 16.640625 52.046875 
Q 13.203125 51.203125 10.453125 49.453125 
Q 7.703125 47.703125 5.953125 44.890625 
Q 4.203125 42.09375 4.203125 38.203125 
Q 4.203125 33.203125 6.703125 30.390625 
Q 9.203125 27.59375 12.953125 26.046875 
Q 16.703125 24.5 21.09375 23.640625 
Q 25.5 22.796875 29.25 21.75 
Q 33 20.703125 35.5 19 
Q 38 17.296875 38 14 
Q 38 11.59375 36.796875 10.046875 
Q 35.59375 8.5 33.75 7.703125 
Q 31.90625 6.90625 29.703125 6.59375 
Q 27.5 6.296875 25.5 6.296875 
Q 22.90625 6.296875 20.453125 6.796875 
Q 18 7.296875 16.046875 8.4375 
Q 14.09375 9.59375 12.890625 11.546875 
Q 11.703125 13.5 11.59375 16.296875 
z
" id="HelveticaNeue-115"/>
      <path d="M 12.59375 25.796875 
Q 12.59375 30.5 13.84375 34.140625 
Q 15.09375 37.796875 17.296875 40.296875 
Q 19.5 42.796875 22.453125 44.09375 
Q 25.40625 45.40625 28.703125 45.40625 
Q 32 45.40625 34.953125 44.09375 
Q 37.90625 42.796875 40.09375 40.296875 
Q 42.296875 37.796875 43.546875 34.140625 
Q 44.796875 30.5 44.796875 25.796875 
Q 44.796875 21.09375 43.546875 17.4375 
Q 42.296875 13.796875 40.09375 11.34375 
Q 37.90625 8.90625 34.953125 7.59375 
Q 32 6.296875 28.703125 6.296875 
Q 25.40625 6.296875 22.453125 7.59375 
Q 19.5 8.90625 17.296875 11.34375 
Q 15.09375 13.796875 13.84375 17.4375 
Q 12.59375 21.09375 12.59375 25.796875 
z
M 3.59375 25.796875 
Q 3.59375 20.09375 5.1875 15.1875 
Q 6.796875 10.296875 10 6.640625 
Q 13.203125 3 17.890625 0.953125 
Q 22.59375 -1.09375 28.703125 -1.09375 
Q 34.90625 -1.09375 39.546875 0.953125 
Q 44.203125 3 47.390625 6.640625 
Q 50.59375 10.296875 52.1875 15.1875 
Q 53.796875 20.09375 53.796875 25.796875 
Q 53.796875 31.5 52.1875 36.453125 
Q 50.59375 41.40625 47.390625 45.046875 
Q 44.203125 48.703125 39.546875 50.796875 
Q 34.90625 52.90625 28.703125 52.90625 
Q 22.59375 52.90625 17.890625 50.796875 
Q 13.203125 48.703125 10 45.046875 
Q 6.796875 41.40625 5.1875 36.453125 
Q 3.59375 31.5 3.59375 25.796875 
z
" id="HelveticaNeue-111"/>
      <path d="M 19.40625 40.59375 
L 19.40625 51.703125 
L 8.296875 51.703125 
L 8.296875 40.59375 
z
M 8.296875 11.09375 
L 8.296875 0 
L 19.40625 0 
L 19.40625 11.09375 
z
" id="HelveticaNeue-58"/>
      <path d="M 5 31.796875 
L 5 23.796875 
L 33.90625 23.796875 
L 33.90625 31.796875 
z
" id="HelveticaNeue-45"/>
      <path d="M 50.90625 62.40625 
L 50.90625 69.703125 
L 5 69.703125 
L 5 61.703125 
L 42.203125 61.703125 
Q 36.59375 55.796875 31.75 48.796875 
Q 26.90625 41.796875 23.203125 33.9375 
Q 19.5 26.09375 17.140625 17.546875 
Q 14.796875 9 14.203125 0 
L 23.703125 0 
Q 24.203125 8.296875 26.5 17.09375 
Q 28.796875 25.90625 32.4375 34.203125 
Q 36.09375 42.5 40.796875 49.796875 
Q 45.5 57.09375 50.90625 62.40625 
z
" id="HelveticaNeue-55"/>
      <path d="M 13.40625 17.09375 
L 4.90625 17.09375 
Q 5.703125 7.90625 11.59375 3.40625 
Q 17.5 -1.09375 26.40625 -1.09375 
Q 39.296875 -1.09375 45.140625 8.75 
Q 51 18.59375 51 37 
Q 51 47.09375 49.046875 53.640625 
Q 47.09375 60.203125 43.796875 64 
Q 40.5 67.796875 36.09375 69.34375 
Q 31.703125 70.90625 26.703125 70.90625 
Q 21.59375 70.90625 17.296875 69.203125 
Q 13 67.5 9.890625 64.453125 
Q 6.796875 61.40625 5.09375 57.15625 
Q 3.40625 52.90625 3.40625 47.796875 
Q 3.40625 42.59375 4.84375 38.1875 
Q 6.296875 33.796875 9.140625 30.6875 
Q 12 27.59375 16.203125 25.84375 
Q 20.40625 24.09375 25.796875 24.09375 
Q 31 24.09375 35.390625 26.75 
Q 39.796875 29.40625 42.203125 33.90625 
L 42.40625 33.703125 
Q 42 19.796875 38.09375 13.046875 
Q 34.203125 6.296875 26.40625 6.296875 
Q 21.296875 6.296875 17.59375 9.09375 
Q 13.90625 11.90625 13.40625 17.09375 
z
M 40.90625 47.203125 
Q 40.90625 44.09375 39.90625 41.25 
Q 38.90625 38.40625 37 36.25 
Q 35.09375 34.09375 32.390625 32.84375 
Q 29.703125 31.59375 26.40625 31.59375 
Q 23.296875 31.59375 20.75 32.84375 
Q 18.203125 34.09375 16.34375 36.1875 
Q 14.5 38.296875 13.453125 41 
Q 12.40625 43.703125 12.40625 46.59375 
Q 12.40625 49.90625 13.15625 52.90625 
Q 13.90625 55.90625 15.546875 58.25 
Q 17.203125 60.59375 19.84375 62 
Q 22.5 63.40625 26.296875 63.40625 
Q 29.90625 63.40625 32.59375 62.09375 
Q 35.296875 60.796875 37.140625 58.546875 
Q 39 56.296875 39.953125 53.390625 
Q 40.90625 50.5 40.90625 47.203125 
z
" id="HelveticaNeue-57"/>
     </defs>
     <use xlink:href="#HelveticaNeue-69"/>
     <use x="61.099991" xlink:href="#HelveticaNeue-110"/>
     <use x="116.699982" xlink:href="#HelveticaNeue-103"/>
     <use x="174.099976" xlink:href="#HelveticaNeue-97"/>
     <use x="227.799973" xlink:href="#HelveticaNeue-116"/>
     <use x="259.299957" xlink:href="#HelveticaNeue-105"/>
     <use x="281.499954" xlink:href="#HelveticaNeue-118"/>
     <use x="331.499939" xlink:href="#HelveticaNeue-225"/>
     <use x="385.199936" xlink:href="#HelveticaNeue-32"/>
     <use x="412.999924" xlink:href="#HelveticaNeue-124"/>
     <use x="435.199921" xlink:href="#HelveticaNeue-32"/>
     <use x="462.999908" xlink:href="#HelveticaNeue-67"/>
     <use x="535.19989" xlink:href="#HelveticaNeue-97"/>
     <use x="588.899887" xlink:href="#HelveticaNeue-115"/>
     <use x="638.899872" xlink:href="#HelveticaNeue-111"/>
     <use x="696.299866" xlink:href="#HelveticaNeue-115"/>
     <use x="746.29985" xlink:href="#HelveticaNeue-32"/>
     <use x="774.099838" xlink:href="#HelveticaNeue-110"/>
     <use x="829.699829" xlink:href="#HelveticaNeue-117"/>
     <use x="885.29982" xlink:href="#HelveticaNeue-101"/>
     <use x="938.999817" xlink:href="#HelveticaNeue-118"/>
     <use x="988.999802" xlink:href="#HelveticaNeue-111"/>
     <use x="1046.399796" xlink:href="#HelveticaNeue-115"/>
     <use x="1096.39978" xlink:href="#HelveticaNeue-58"/>
     <use x="1124.199768" xlink:href="#HelveticaNeue-32"/>
     <use x="1151.999756" xlink:href="#HelveticaNeue-50"/>
     <use x="1207.599747" xlink:href="#HelveticaNeue-48"/>
     <use x="1263.199738" xlink:href="#HelveticaNeue-50"/>
     <use x="1318.799728" xlink:href="#HelveticaNeue-49"/>
     <use x="1374.399719" xlink:href="#HelveticaNeue-45"/>
     <use x="1413.299713" xlink:href="#HelveticaNeue-48"/>
     <use x="1468.899704" xlink:href="#HelveticaNeue-55"/>
     <use x="1524.499695" xlink:href="#HelveticaNeue-45"/>
     <use x="1563.399689" xlink:href="#HelveticaNeue-50"/>
     <use x="1618.99968" xlink:href="#HelveticaNeue-57"/>
    </g>
   </g>
   <g id="legend_1">
    <g id="line2d_29">
     <path d="M 71.5 39.640625 
L 91.5 39.640625 
" style="fill:none;stroke:#000000;stroke-dasharray:1.5,2.475;stroke-dashoffset:0;stroke-opacity:0.5;stroke-width:1.5;"/>
    </g>
    <g id="line2d_30"/>
    <g id="text_17">
     <!-- Actual -->
     <g style="fill:#555555;" transform="translate(99.5 43.140625)scale(0.1 -0.1)">
      <use xlink:href="#HelveticaNeue-65"/>
      <use x="64.799988" xlink:href="#HelveticaNeue-99"/>
      <use x="118.499985" xlink:href="#HelveticaNeue-116"/>
      <use x="149.999969" xlink:href="#HelveticaNeue-117"/>
      <use x="205.59996" xlink:href="#HelveticaNeue-97"/>
      <use x="259.299957" xlink:href="#HelveticaNeue-108"/>
     </g>
    </g>
    <g id="line2d_31">
     <path d="M 71.5 54.310937 
L 91.5 54.310937 
" style="fill:none;stroke:#b3220f;stroke-linecap:square;stroke-width:1.5;"/>
    </g>
    <g id="line2d_32"/>
    <g id="text_18">
     <!-- Promedio semanal (7 das)  -->
     <g style="fill:#555555;" transform="translate(99.5 57.810937)scale(0.1 -0.1)">
      <defs>
       <path d="M 17.296875 37.203125 
L 17.296875 63.40625 
L 35.90625 63.40625 
Q 44 63.40625 47.75 60.046875 
Q 51.5 56.703125 51.5 50.296875 
Q 51.5 43.90625 47.75 40.5 
Q 44 37.09375 35.90625 37.203125 
z
M 7.796875 71.40625 
L 7.796875 0 
L 17.296875 0 
L 17.296875 29.203125 
L 39.09375 29.203125 
Q 49.90625 29.09375 55.453125 34.6875 
Q 61 40.296875 61 50.296875 
Q 61 60.296875 55.453125 65.84375 
Q 49.90625 71.40625 39.09375 71.40625 
z
" id="HelveticaNeue-80"/>
       <path d="M 6.40625 51.703125 
L 6.40625 0 
L 14.90625 0 
L 14.90625 32.203125 
Q 14.90625 33.703125 15.65625 35.953125 
Q 16.40625 38.203125 18.046875 40.296875 
Q 19.703125 42.40625 22.34375 43.90625 
Q 25 45.40625 28.703125 45.40625 
Q 31.59375 45.40625 33.4375 44.546875 
Q 35.296875 43.703125 36.390625 42.140625 
Q 37.5 40.59375 37.953125 38.5 
Q 38.40625 36.40625 38.40625 33.90625 
L 38.40625 0 
L 46.90625 0 
L 46.90625 32.203125 
Q 46.90625 38.203125 50.5 41.796875 
Q 54.09375 45.40625 60.40625 45.40625 
Q 63.5 45.40625 65.453125 44.5 
Q 67.40625 43.59375 68.5 42.046875 
Q 69.59375 40.5 70 38.390625 
Q 70.40625 36.296875 70.40625 33.90625 
L 70.40625 0 
L 78.90625 0 
L 78.90625 37.90625 
Q 78.90625 41.90625 77.65625 44.75 
Q 76.40625 47.59375 74.15625 49.390625 
Q 71.90625 51.203125 68.75 52.046875 
Q 65.59375 52.90625 61.703125 52.90625 
Q 56.59375 52.90625 52.34375 50.59375 
Q 48.09375 48.296875 45.5 44.09375 
Q 43.90625 48.90625 40 50.90625 
Q 36.09375 52.90625 31.296875 52.90625 
Q 20.40625 52.90625 14.59375 44.09375 
L 14.40625 44.09375 
L 14.40625 51.703125 
z
" id="HelveticaNeue-109"/>
       <path d="M 12.59375 25.40625 
Q 12.59375 29.203125 13.390625 32.796875 
Q 14.203125 36.40625 16 39.203125 
Q 17.796875 42 20.796875 43.703125 
Q 23.796875 45.40625 28.09375 45.40625 
Q 32.5 45.40625 35.59375 43.75 
Q 38.703125 42.09375 40.640625 39.390625 
Q 42.59375 36.703125 43.5 33.140625 
Q 44.40625 29.59375 44.40625 25.796875 
Q 44.40625 22.203125 43.546875 18.703125 
Q 42.703125 15.203125 40.796875 12.453125 
Q 38.90625 9.703125 35.90625 8 
Q 32.90625 6.296875 28.59375 6.296875 
Q 24.5 6.296875 21.453125 7.890625 
Q 18.40625 9.5 16.453125 12.203125 
Q 14.5 14.90625 13.546875 18.34375 
Q 12.59375 21.796875 12.59375 25.40625 
z
M 52.59375 0 
L 52.59375 71.40625 
L 44.09375 71.40625 
L 44.09375 44.796875 
L 43.90625 44.796875 
Q 42.5 47.09375 40.453125 48.640625 
Q 38.40625 50.203125 36.09375 51.140625 
Q 33.796875 52.09375 31.5 52.5 
Q 29.203125 52.90625 27.203125 52.90625 
Q 21.296875 52.90625 16.84375 50.75 
Q 12.40625 48.59375 9.453125 44.9375 
Q 6.5 41.296875 5.046875 36.390625 
Q 3.59375 31.5 3.59375 26 
Q 3.59375 20.5 5.09375 15.59375 
Q 6.59375 10.703125 9.546875 7 
Q 12.5 3.296875 16.953125 1.09375 
Q 21.40625 -1.09375 27.40625 -1.09375 
Q 32.796875 -1.09375 37.296875 0.796875 
Q 41.796875 2.703125 43.90625 7 
L 44.09375 7 
L 44.09375 0 
z
" id="HelveticaNeue-100"/>
       <path d="M 20.40625 -19.703125 
L 26.90625 -19.703125 
Q 19.796875 -8.203125 16.75 3.09375 
Q 13.703125 14.40625 13.703125 27 
Q 13.703125 39.296875 16.703125 50.5 
Q 19.703125 61.703125 26.90625 73.09375 
L 20.40625 73.09375 
Q 12.59375 62.796875 8.640625 50.796875 
Q 4.703125 38.796875 4.703125 27 
Q 4.703125 20.40625 5.796875 14.40625 
Q 6.90625 8.40625 8.953125 2.703125 
Q 11 -3 13.890625 -8.546875 
Q 16.796875 -14.09375 20.40625 -19.703125 
z
" id="HelveticaNeue-40"/>
       <path d="M 6.90625 0 
L 15.40625 0 
L 15.40625 51.703125 
L 6.90625 51.703125 
z
M 25.5 77 
L 11.40625 60.796875 
L 5 60.796875 
L 14.59375 77 
z
" id="HelveticaNeue-237"/>
       <path d="M -0.90625 -19.703125 
L 5.5 -19.703125 
Q 13.296875 -9.40625 17.25 2.546875 
Q 21.203125 14.5 21.203125 26.296875 
Q 21.203125 32.90625 20.09375 38.90625 
Q 19 44.90625 16.953125 50.65625 
Q 14.90625 56.40625 12 61.953125 
Q 9.09375 67.5 5.5 73.09375 
L -0.90625 73.09375 
Q 6.09375 61.59375 9.140625 50.25 
Q 12.203125 38.90625 12.203125 26.296875 
Q 12.203125 14.09375 9.203125 2.84375 
Q 6.203125 -8.40625 -0.90625 -19.703125 
z
" id="HelveticaNeue-41"/>
      </defs>
      <use xlink:href="#HelveticaNeue-80"/>
      <use x="64.799988" xlink:href="#HelveticaNeue-114"/>
      <use x="96.349976" xlink:href="#HelveticaNeue-111"/>
      <use x="153.749969" xlink:href="#HelveticaNeue-109"/>
      <use x="239.049957" xlink:href="#HelveticaNeue-101"/>
      <use x="292.749954" xlink:href="#HelveticaNeue-100"/>
      <use x="352.049942" xlink:href="#HelveticaNeue-105"/>
      <use x="374.249939" xlink:href="#HelveticaNeue-111"/>
      <use x="431.649933" xlink:href="#HelveticaNeue-32"/>
      <use x="459.449921" xlink:href="#HelveticaNeue-115"/>
      <use x="509.449905" xlink:href="#HelveticaNeue-101"/>
      <use x="563.149902" xlink:href="#HelveticaNeue-109"/>
      <use x="648.44989" xlink:href="#HelveticaNeue-97"/>
      <use x="702.149887" xlink:href="#HelveticaNeue-110"/>
      <use x="757.749878" xlink:href="#HelveticaNeue-97"/>
      <use x="811.449875" xlink:href="#HelveticaNeue-108"/>
      <use x="833.649872" xlink:href="#HelveticaNeue-32"/>
      <use x="861.44986" xlink:href="#HelveticaNeue-40"/>
      <use x="887.349854" xlink:href="#HelveticaNeue-55"/>
      <use x="942.949844" xlink:href="#HelveticaNeue-32"/>
      <use x="970.749832" xlink:href="#HelveticaNeue-100"/>
      <use x="1030.04982" xlink:href="#HelveticaNeue-237"/>
      <use x="1052.249817" xlink:href="#HelveticaNeue-97"/>
      <use x="1105.949814" xlink:href="#HelveticaNeue-115"/>
      <use x="1155.949799" xlink:href="#HelveticaNeue-41"/>
      <use x="1181.849792" xlink:href="#HelveticaNeue-32"/>
     </g>
    </g>
   </g>
  </g>
 </g>
 <defs>
  <clipPath id="p0cad1c7619">
   <rect height="235.5" width="387.5" x="62.5" y="27"/>
  </clipPath>
 </defs>
</svg>
