<?xml version="1.0" encoding="utf-8" standalone="no"?>
<!DOCTYPE svg PUBLIC "-//W3C//DTD SVG 1.1//EN"
  "http://www.w3.org/Graphics/SVG/1.1/DTD/svg11.dtd">
<!-- Created with matplotlib (https://matplotlib.org/) -->
<svg height="300pt" version="1.1" viewBox="0 0 500 300" width="500pt" xmlns="http://www.w3.org/2000/svg" xmlns:xlink="http://www.w3.org/1999/xlink">
 <metadata>
  <rdf:RDF xmlns:cc="http://creativecommons.org/ns#" xmlns:dc="http://purl.org/dc/elements/1.1/" xmlns:rdf="http://www.w3.org/1999/02/22-rdf-syntax-ns#">
   <cc:Work>
    <dc:type rdf:resource="http://purl.org/dc/dcmitype/StillImage"/>
    <dc:date>2021-07-07T23:33:20.091878</dc:date>
    <dc:format>image/svg+xml</dc:format>
    <dc:creator>
     <cc:Agent>
      <dc:title>Matplotlib v3.3.4, https://matplotlib.org/</dc:title>
     </cc:Agent>
    </dc:creator>
   </cc:Work>
  </rdf:RDF>
 </metadata>
 <defs>
  <style type="text/css">*{stroke-linecap:butt;stroke-linejoin:round;}</style>
 </defs>
 <g id="figure_1">
  <g id="patch_1">
   <path d="M 0 300 
L 500 300 
L 500 0 
L 0 0 
z
" style="fill:#ffffff;"/>
  </g>
  <g id="axes_1">
   <g id="patch_2">
    <path d="M 62.5 262.5 
L 450 262.5 
L 450 27 
L 62.5 27 
z
" style="fill:#ffffff;"/>
   </g>
   <g id="matplotlib.axis_1">
    <g id="xtick_1">
     <g id="line2d_1">
      <defs>
       <path d="M 0 0 
L 0 3.5 
" id="m0c19b5a38d" style="stroke:#555555;stroke-width:0.8;"/>
      </defs>
      <g>
       <use style="fill:#555555;stroke:#555555;stroke-width:0.8;" x="62.5" xlink:href="#m0c19b5a38d" y="262.5"/>
      </g>
     </g>
    </g>
    <g id="xtick_2">
     <g id="line2d_2">
      <g>
       <use style="fill:#555555;stroke:#555555;stroke-width:0.8;" x="70.744681" xlink:href="#m0c19b5a38d" y="262.5"/>
      </g>
     </g>
     <g id="text_1">
      <!-- Apr -->
      <g style="fill:#555555;" transform="translate(62.87515 276.640625)scale(0.1 -0.1)">
       <defs>
        <path d="M 20.09375 29.5 
L 32.203125 62.796875 
L 32.40625 62.796875 
L 44.296875 29.5 
z
M 27.203125 71.40625 
L -0.59375 0 
L 9.09375 0 
L 17.09375 21.5 
L 47.296875 21.5 
L 55.09375 0 
L 65.59375 0 
L 37.703125 71.40625 
z
" id="HelveticaNeue-65"/>
        <path d="M 6.703125 51.703125 
L 6.703125 -19.703125 
L 15.203125 -19.703125 
L 15.203125 6.90625 
L 15.40625 6.90625 
Q 16.796875 4.59375 18.84375 3.046875 
Q 20.90625 1.5 23.203125 0.59375 
Q 25.5 -0.296875 27.84375 -0.6875 
Q 30.203125 -1.09375 32.09375 -1.09375 
Q 38 -1.09375 42.453125 1 
Q 46.90625 3.09375 49.84375 6.75 
Q 52.796875 10.40625 54.25 15.296875 
Q 55.703125 20.203125 55.703125 25.703125 
Q 55.703125 31.203125 54.203125 36.09375 
Q 52.703125 41 49.75 44.75 
Q 46.796875 48.5 42.34375 50.703125 
Q 37.90625 52.90625 31.90625 52.90625 
Q 26.5 52.90625 22 50.953125 
Q 17.5 49 15.40625 44.703125 
L 15.203125 44.703125 
L 15.203125 51.703125 
z
M 46.703125 26.296875 
Q 46.703125 22.5 45.890625 18.890625 
Q 45.09375 15.296875 43.296875 12.5 
Q 41.5 9.703125 38.546875 8 
Q 35.59375 6.296875 31.203125 6.296875 
Q 26.796875 6.296875 23.6875 7.9375 
Q 20.59375 9.59375 18.640625 12.296875 
Q 16.703125 15 15.796875 18.546875 
Q 14.90625 22.09375 14.90625 25.90625 
Q 14.90625 29.5 15.75 33 
Q 16.59375 36.5 18.5 39.25 
Q 20.40625 42 23.40625 43.703125 
Q 26.40625 45.40625 30.703125 45.40625 
Q 34.796875 45.40625 37.84375 43.796875 
Q 40.90625 42.203125 42.84375 39.5 
Q 44.796875 36.796875 45.75 33.34375 
Q 46.703125 29.90625 46.703125 26.296875 
z
" id="HelveticaNeue-112"/>
        <path d="M 6.09375 51.703125 
L 6.09375 0 
L 14.59375 0 
L 14.59375 23 
Q 14.59375 28 15.59375 31.84375 
Q 16.59375 35.703125 18.796875 38.390625 
Q 21 41.09375 24.59375 42.5 
Q 28.203125 43.90625 33.296875 43.90625 
L 33.296875 52.90625 
Q 26.40625 53.09375 21.90625 50.09375 
Q 17.40625 47.09375 14.296875 40.796875 
L 14.09375 40.796875 
L 14.09375 51.703125 
z
" id="HelveticaNeue-114"/>
       </defs>
       <use xlink:href="#HelveticaNeue-65"/>
       <use x="64.799988" xlink:href="#HelveticaNeue-112"/>
       <use x="124.099976" xlink:href="#HelveticaNeue-114"/>
      </g>
     </g>
    </g>
    <g id="xtick_3">
     <g id="line2d_3">
      <g>
       <use style="fill:#555555;stroke:#555555;stroke-width:0.8;" x="145.771277" xlink:href="#m0c19b5a38d" y="262.5"/>
      </g>
     </g>
     <g id="text_2">
      <!-- Jul -->
      <g style="fill:#555555;" transform="translate(139.28612 276.640625)scale(0.1 -0.1)">
       <defs>
        <path d="M 44.09375 17.796875 
L 44.09375 71.40625 
L 34.59375 71.40625 
L 34.59375 19.203125 
Q 34.59375 13.296875 32.140625 9.796875 
Q 29.703125 6.296875 23.203125 6.296875 
Q 19.703125 6.296875 17.453125 7.34375 
Q 15.203125 8.40625 13.953125 10.296875 
Q 12.703125 12.203125 12.203125 14.796875 
Q 11.703125 17.40625 11.703125 20.5 
L 11.703125 23.5 
L 2.203125 23.5 
L 2.203125 19.09375 
Q 2.203125 8.90625 7.59375 3.65625 
Q 13 -1.59375 23 -1.59375 
Q 29 -1.59375 33.046875 0.046875 
Q 37.09375 1.703125 39.546875 4.453125 
Q 42 7.203125 43.046875 10.703125 
Q 44.09375 14.203125 44.09375 17.796875 
z
" id="HelveticaNeue-74"/>
        <path d="M 49.203125 0 
L 49.203125 51.703125 
L 40.703125 51.703125 
L 40.703125 22.5 
Q 40.703125 19 39.75 16.046875 
Q 38.796875 13.09375 36.890625 10.890625 
Q 35 8.703125 32.140625 7.5 
Q 29.296875 6.296875 25.40625 6.296875 
Q 20.5 6.296875 17.703125 9.09375 
Q 14.90625 11.90625 14.90625 16.703125 
L 14.90625 51.703125 
L 6.40625 51.703125 
L 6.40625 17.703125 
Q 6.40625 13.5 7.25 10.046875 
Q 8.09375 6.59375 10.1875 4.09375 
Q 12.296875 1.59375 15.6875 0.25 
Q 19.09375 -1.09375 24.203125 -1.09375 
Q 29.90625 -1.09375 34.09375 1.15625 
Q 38.296875 3.40625 41 8.203125 
L 41.203125 8.203125 
L 41.203125 0 
z
" id="HelveticaNeue-117"/>
        <path d="M 6.90625 71.40625 
L 6.90625 0 
L 15.40625 0 
L 15.40625 71.40625 
z
" id="HelveticaNeue-108"/>
       </defs>
       <use xlink:href="#HelveticaNeue-74"/>
       <use x="51.899994" xlink:href="#HelveticaNeue-117"/>
       <use x="107.499985" xlink:href="#HelveticaNeue-108"/>
      </g>
     </g>
    </g>
    <g id="xtick_4">
     <g id="line2d_4">
      <g>
       <use style="fill:#555555;stroke:#555555;stroke-width:0.8;" x="221.62234" xlink:href="#m0c19b5a38d" y="262.5"/>
      </g>
     </g>
     <g id="text_3">
      <!-- Oct -->
      <g style="fill:#555555;" transform="translate(213.562184 276.640625)scale(0.1 -0.1)">
       <defs>
        <path d="M 13.296875 35.703125 
Q 13.296875 41.09375 14.6875 46.34375 
Q 16.09375 51.59375 19.09375 55.796875 
Q 22.09375 60 26.796875 62.546875 
Q 31.5 65.09375 38 65.09375 
Q 44.5 65.09375 49.203125 62.546875 
Q 53.90625 60 56.90625 55.796875 
Q 59.90625 51.59375 61.296875 46.34375 
Q 62.703125 41.09375 62.703125 35.703125 
Q 62.703125 30.296875 61.296875 25.046875 
Q 59.90625 19.796875 56.90625 15.59375 
Q 53.90625 11.40625 49.203125 8.84375 
Q 44.5 6.296875 38 6.296875 
Q 31.5 6.296875 26.796875 8.84375 
Q 22.09375 11.40625 19.09375 15.59375 
Q 16.09375 19.796875 14.6875 25.046875 
Q 13.296875 30.296875 13.296875 35.703125 
z
M 3.796875 35.703125 
Q 3.796875 28.40625 5.9375 21.65625 
Q 8.09375 14.90625 12.390625 9.703125 
Q 16.703125 4.5 23.09375 1.453125 
Q 29.5 -1.59375 38 -1.59375 
Q 46.5 -1.59375 52.890625 1.453125 
Q 59.296875 4.5 63.59375 9.703125 
Q 67.90625 14.90625 70.046875 21.65625 
Q 72.203125 28.40625 72.203125 35.703125 
Q 72.203125 43 70.046875 49.75 
Q 67.90625 56.5 63.59375 61.703125 
Q 59.296875 66.90625 52.890625 70 
Q 46.5 73.09375 38 73.09375 
Q 29.5 73.09375 23.09375 70 
Q 16.703125 66.90625 12.390625 61.703125 
Q 8.09375 56.5 5.9375 49.75 
Q 3.796875 43 3.796875 35.703125 
z
" id="HelveticaNeue-79"/>
        <path d="M 41.5 35.09375 
L 50.296875 35.09375 
Q 49.796875 39.703125 47.890625 43.046875 
Q 46 46.40625 43.046875 48.59375 
Q 40.09375 50.796875 36.25 51.84375 
Q 32.40625 52.90625 28 52.90625 
Q 21.90625 52.90625 17.296875 50.75 
Q 12.703125 48.59375 9.640625 44.84375 
Q 6.59375 41.09375 5.09375 36.046875 
Q 3.59375 31 3.59375 25.203125 
Q 3.59375 19.40625 5.140625 14.546875 
Q 6.703125 9.703125 9.75 6.203125 
Q 12.796875 2.703125 17.34375 0.796875 
Q 21.90625 -1.09375 27.796875 -1.09375 
Q 37.703125 -1.09375 43.453125 4.09375 
Q 49.203125 9.296875 50.59375 18.90625 
L 41.90625 18.90625 
Q 41.09375 12.90625 37.546875 9.59375 
Q 34 6.296875 27.703125 6.296875 
Q 23.703125 6.296875 20.796875 7.890625 
Q 17.90625 9.5 16.09375 12.140625 
Q 14.296875 14.796875 13.4375 18.1875 
Q 12.59375 21.59375 12.59375 25.203125 
Q 12.59375 29.09375 13.390625 32.75 
Q 14.203125 36.40625 16.046875 39.203125 
Q 17.90625 42 21 43.703125 
Q 24.09375 45.40625 28.703125 45.40625 
Q 34.09375 45.40625 37.296875 42.703125 
Q 40.5 40 41.5 35.09375 
z
" id="HelveticaNeue-99"/>
        <path d="M 18.203125 51.703125 
L 18.203125 67.203125 
L 9.703125 67.203125 
L 9.703125 51.703125 
L 0.90625 51.703125 
L 0.90625 44.203125 
L 9.703125 44.203125 
L 9.703125 11.296875 
Q 9.703125 7.703125 10.390625 5.5 
Q 11.09375 3.296875 12.546875 2.09375 
Q 14 0.90625 16.34375 0.453125 
Q 18.703125 0 22 0 
L 28.5 0 
L 28.5 7.5 
L 24.59375 7.5 
Q 22.59375 7.5 21.34375 7.640625 
Q 20.09375 7.796875 19.390625 8.296875 
Q 18.703125 8.796875 18.453125 9.6875 
Q 18.203125 10.59375 18.203125 12.09375 
L 18.203125 44.203125 
L 28.5 44.203125 
L 28.5 51.703125 
z
" id="HelveticaNeue-116"/>
       </defs>
       <use xlink:href="#HelveticaNeue-79"/>
       <use x="75.999985" xlink:href="#HelveticaNeue-99"/>
       <use x="129.699982" xlink:href="#HelveticaNeue-116"/>
      </g>
     </g>
    </g>
    <g id="xtick_5">
     <g id="line2d_5">
      <g>
       <use style="fill:#555555;stroke:#555555;stroke-width:0.8;" x="297.473404" xlink:href="#m0c19b5a38d" y="262.5"/>
      </g>
     </g>
     <g id="text_4">
      <!-- Jan -->
      <g style="fill:#555555;" transform="translate(289.413248 276.640625)scale(0.1 -0.1)">
       <defs>
        <path d="M 52.203125 0.203125 
Q 50 -1.09375 46.09375 -1.09375 
Q 42.796875 -1.09375 40.84375 0.75 
Q 38.90625 2.59375 38.90625 6.796875 
Q 35.40625 2.59375 30.75 0.75 
Q 26.09375 -1.09375 20.703125 -1.09375 
Q 17.203125 -1.09375 14.046875 -0.296875 
Q 10.90625 0.5 8.59375 2.203125 
Q 6.296875 3.90625 4.9375 6.65625 
Q 3.59375 9.40625 3.59375 13.296875 
Q 3.59375 17.703125 5.09375 20.5 
Q 6.59375 23.296875 9.046875 25.046875 
Q 11.5 26.796875 14.640625 27.6875 
Q 17.796875 28.59375 21.09375 29.203125 
Q 24.59375 29.90625 27.75 30.25 
Q 30.90625 30.59375 33.296875 31.25 
Q 35.703125 31.90625 37.09375 33.15625 
Q 38.5 34.40625 38.5 36.796875 
Q 38.5 39.59375 37.453125 41.296875 
Q 36.40625 43 34.75 43.890625 
Q 33.09375 44.796875 31.046875 45.09375 
Q 29 45.40625 27 45.40625 
Q 21.59375 45.40625 18 43.34375 
Q 14.40625 41.296875 14.09375 35.59375 
L 5.59375 35.59375 
Q 5.796875 40.40625 7.59375 43.703125 
Q 9.40625 47 12.40625 49.046875 
Q 15.40625 51.09375 19.25 52 
Q 23.09375 52.90625 27.5 52.90625 
Q 31 52.90625 34.453125 52.40625 
Q 37.90625 51.90625 40.703125 50.34375 
Q 43.5 48.796875 45.203125 46 
Q 46.90625 43.203125 46.90625 38.703125 
L 46.90625 12.09375 
Q 46.90625 9.09375 47.25 7.6875 
Q 47.59375 6.296875 49.59375 6.296875 
Q 50.703125 6.296875 52.203125 6.796875 
z
M 38.40625 26.703125 
Q 36.796875 25.5 34.1875 24.953125 
Q 31.59375 24.40625 28.75 24.046875 
Q 25.90625 23.703125 23 23.25 
Q 20.09375 22.796875 17.796875 21.796875 
Q 15.5 20.796875 14.046875 18.9375 
Q 12.59375 17.09375 12.59375 13.90625 
Q 12.59375 11.796875 13.4375 10.34375 
Q 14.296875 8.90625 15.640625 8 
Q 17 7.09375 18.796875 6.6875 
Q 20.59375 6.296875 22.59375 6.296875 
Q 26.796875 6.296875 29.796875 7.4375 
Q 32.796875 8.59375 34.6875 10.34375 
Q 36.59375 12.09375 37.5 14.140625 
Q 38.40625 16.203125 38.40625 18 
z
" id="HelveticaNeue-97"/>
        <path d="M 6.40625 51.703125 
L 6.40625 0 
L 14.90625 0 
L 14.90625 29.203125 
Q 14.90625 32.703125 15.84375 35.640625 
Q 16.796875 38.59375 18.6875 40.796875 
Q 20.59375 43 23.4375 44.203125 
Q 26.296875 45.40625 30.203125 45.40625 
Q 35.09375 45.40625 37.890625 42.59375 
Q 40.703125 39.796875 40.703125 35 
L 40.703125 0 
L 49.203125 0 
L 49.203125 34 
Q 49.203125 38.203125 48.34375 41.640625 
Q 47.5 45.09375 45.390625 47.59375 
Q 43.296875 50.09375 39.890625 51.5 
Q 36.5 52.90625 31.40625 52.90625 
Q 19.90625 52.90625 14.59375 43.5 
L 14.40625 43.5 
L 14.40625 51.703125 
z
" id="HelveticaNeue-110"/>
       </defs>
       <use xlink:href="#HelveticaNeue-74"/>
       <use x="51.899994" xlink:href="#HelveticaNeue-97"/>
       <use x="105.599991" xlink:href="#HelveticaNeue-110"/>
      </g>
      <!-- 2021 -->
      <g style="fill:#555555;" transform="translate(286.354654 287.179688)scale(0.1 -0.1)">
       <defs>
        <path d="M 4.40625 45.796875 
L 12.90625 45.796875 
Q 12.796875 49 13.546875 52.140625 
Q 14.296875 55.296875 16 57.796875 
Q 17.703125 60.296875 20.34375 61.84375 
Q 23 63.40625 26.703125 63.40625 
Q 29.5 63.40625 32 62.5 
Q 34.5 61.59375 36.34375 59.890625 
Q 38.203125 58.203125 39.296875 55.84375 
Q 40.40625 53.5 40.40625 50.59375 
Q 40.40625 46.90625 39.25 44.09375 
Q 38.09375 41.296875 35.84375 38.890625 
Q 33.59375 36.5 30.1875 34.140625 
Q 26.796875 31.796875 22.296875 29 
Q 18.59375 26.796875 15.1875 24.296875 
Q 11.796875 21.796875 9.09375 18.5 
Q 6.40625 15.203125 4.65625 10.75 
Q 2.90625 6.296875 2.40625 0 
L 48.703125 0 
L 48.703125 7.5 
L 12.296875 7.5 
Q 12.90625 10.796875 14.84375 13.34375 
Q 16.796875 15.90625 19.546875 18.09375 
Q 22.296875 20.296875 25.59375 22.25 
Q 28.90625 24.203125 32.203125 26.203125 
Q 35.5 28.296875 38.59375 30.59375 
Q 41.703125 32.90625 44.09375 35.75 
Q 46.5 38.59375 47.953125 42.1875 
Q 49.40625 45.796875 49.40625 50.5 
Q 49.40625 55.5 47.65625 59.296875 
Q 45.90625 63.09375 42.90625 65.640625 
Q 39.90625 68.203125 35.84375 69.546875 
Q 31.796875 70.90625 27.203125 70.90625 
Q 21.59375 70.90625 17.1875 69 
Q 12.796875 67.09375 9.84375 63.75 
Q 6.90625 60.40625 5.5 55.796875 
Q 4.09375 51.203125 4.40625 45.796875 
z
" id="HelveticaNeue-50"/>
        <path d="M 13.203125 34.90625 
Q 13.203125 37.5 13.25 40.640625 
Q 13.296875 43.796875 13.75 46.9375 
Q 14.203125 50.09375 15.046875 53.09375 
Q 15.90625 56.09375 17.546875 58.34375 
Q 19.203125 60.59375 21.703125 62 
Q 24.203125 63.40625 27.796875 63.40625 
Q 31.40625 63.40625 33.90625 62 
Q 36.40625 60.59375 38.046875 58.34375 
Q 39.703125 56.09375 40.546875 53.09375 
Q 41.40625 50.09375 41.84375 46.9375 
Q 42.296875 43.796875 42.34375 40.640625 
Q 42.40625 37.5 42.40625 34.90625 
Q 42.40625 30.90625 42.15625 25.953125 
Q 41.90625 21 40.546875 16.640625 
Q 39.203125 12.296875 36.203125 9.296875 
Q 33.203125 6.296875 27.796875 6.296875 
Q 22.40625 6.296875 19.40625 9.296875 
Q 16.40625 12.296875 15.046875 16.640625 
Q 13.703125 21 13.453125 25.953125 
Q 13.203125 30.90625 13.203125 34.90625 
z
M 4.203125 34.796875 
Q 4.203125 30.90625 4.390625 26.703125 
Q 4.59375 22.5 5.390625 18.5 
Q 6.203125 14.5 7.703125 10.953125 
Q 9.203125 7.40625 11.796875 4.703125 
Q 14.40625 2 18.34375 0.453125 
Q 22.296875 -1.09375 27.796875 -1.09375 
Q 33.40625 -1.09375 37.296875 0.453125 
Q 41.203125 2 43.796875 4.703125 
Q 46.40625 7.40625 47.90625 10.953125 
Q 49.40625 14.5 50.203125 18.5 
Q 51 22.5 51.203125 26.703125 
Q 51.40625 30.90625 51.40625 34.796875 
Q 51.40625 38.703125 51.203125 42.890625 
Q 51 47.09375 50.203125 51.09375 
Q 49.40625 55.09375 47.90625 58.6875 
Q 46.40625 62.296875 43.796875 65 
Q 41.203125 67.703125 37.25 69.296875 
Q 33.296875 70.90625 27.796875 70.90625 
Q 22.296875 70.90625 18.34375 69.296875 
Q 14.40625 67.703125 11.796875 65 
Q 9.203125 62.296875 7.703125 58.6875 
Q 6.203125 55.09375 5.390625 51.09375 
Q 4.59375 47.09375 4.390625 42.890625 
Q 4.203125 38.703125 4.203125 34.796875 
z
" id="HelveticaNeue-48"/>
        <path d="M 35.59375 0 
L 35.59375 70.90625 
L 29.09375 70.90625 
Q 28.40625 66.90625 26.5 64.296875 
Q 24.59375 61.703125 21.84375 60.203125 
Q 19.09375 58.703125 15.6875 58.140625 
Q 12.296875 57.59375 8.703125 57.59375 
L 8.703125 50.796875 
L 27.09375 50.796875 
L 27.09375 0 
z
" id="HelveticaNeue-49"/>
       </defs>
       <use xlink:href="#HelveticaNeue-50"/>
       <use x="55.599991" xlink:href="#HelveticaNeue-48"/>
       <use x="111.199982" xlink:href="#HelveticaNeue-50"/>
       <use x="166.799973" xlink:href="#HelveticaNeue-49"/>
      </g>
     </g>
    </g>
    <g id="xtick_6">
     <g id="line2d_6">
      <g>
       <use style="fill:#555555;stroke:#555555;stroke-width:0.8;" x="371.675532" xlink:href="#m0c19b5a38d" y="262.5"/>
      </g>
     </g>
     <g id="text_5">
      <!-- Apr -->
      <g style="fill:#555555;" transform="translate(363.806001 276.640625)scale(0.1 -0.1)">
       <use xlink:href="#HelveticaNeue-65"/>
       <use x="64.799988" xlink:href="#HelveticaNeue-112"/>
       <use x="124.099976" xlink:href="#HelveticaNeue-114"/>
      </g>
     </g>
    </g>
    <g id="xtick_7">
     <g id="line2d_7">
      <g>
       <use style="fill:#555555;stroke:#555555;stroke-width:0.8;" x="446.702128" xlink:href="#m0c19b5a38d" y="262.5"/>
      </g>
     </g>
     <g id="text_6">
      <!-- Jul -->
      <g style="fill:#555555;" transform="translate(440.216971 276.640625)scale(0.1 -0.1)">
       <use xlink:href="#HelveticaNeue-74"/>
       <use x="51.899994" xlink:href="#HelveticaNeue-117"/>
       <use x="107.499985" xlink:href="#HelveticaNeue-108"/>
      </g>
     </g>
    </g>
    <g id="xtick_8">
     <g id="line2d_8">
      <g>
       <use style="fill:#555555;stroke:#555555;stroke-width:0.8;" x="450" xlink:href="#m0c19b5a38d" y="262.5"/>
      </g>
     </g>
    </g>
    <g id="xtick_9">
     <g id="line2d_9">
      <defs>
       <path d="M 0 0 
L 0 2 
" id="mdbce6304e2" style="stroke:#555555;stroke-width:0.6;"/>
      </defs>
      <g>
       <use style="fill:#555555;stroke:#555555;stroke-width:0.6;" x="95.478723" xlink:href="#mdbce6304e2" y="262.5"/>
      </g>
     </g>
    </g>
    <g id="xtick_10">
     <g id="line2d_10">
      <g>
       <use style="fill:#555555;stroke:#555555;stroke-width:0.6;" x="121.037234" xlink:href="#mdbce6304e2" y="262.5"/>
      </g>
     </g>
    </g>
    <g id="xtick_11">
     <g id="line2d_11">
      <g>
       <use style="fill:#555555;stroke:#555555;stroke-width:0.6;" x="171.329787" xlink:href="#mdbce6304e2" y="262.5"/>
      </g>
     </g>
    </g>
    <g id="xtick_12">
     <g id="line2d_12">
      <g>
       <use style="fill:#555555;stroke:#555555;stroke-width:0.6;" x="196.888298" xlink:href="#mdbce6304e2" y="262.5"/>
      </g>
     </g>
    </g>
    <g id="xtick_13">
     <g id="line2d_13">
      <g>
       <use style="fill:#555555;stroke:#555555;stroke-width:0.6;" x="247.180851" xlink:href="#mdbce6304e2" y="262.5"/>
      </g>
     </g>
    </g>
    <g id="xtick_14">
     <g id="line2d_14">
      <g>
       <use style="fill:#555555;stroke:#555555;stroke-width:0.6;" x="271.914894" xlink:href="#mdbce6304e2" y="262.5"/>
      </g>
     </g>
    </g>
    <g id="xtick_15">
     <g id="line2d_15">
      <g>
       <use style="fill:#555555;stroke:#555555;stroke-width:0.6;" x="323.031915" xlink:href="#mdbce6304e2" y="262.5"/>
      </g>
     </g>
    </g>
    <g id="xtick_16">
     <g id="line2d_16">
      <g>
       <use style="fill:#555555;stroke:#555555;stroke-width:0.6;" x="346.117021" xlink:href="#mdbce6304e2" y="262.5"/>
      </g>
     </g>
    </g>
    <g id="xtick_17">
     <g id="line2d_17">
      <g>
       <use style="fill:#555555;stroke:#555555;stroke-width:0.6;" x="396.409574" xlink:href="#mdbce6304e2" y="262.5"/>
      </g>
     </g>
    </g>
    <g id="xtick_18">
     <g id="line2d_18">
      <g>
       <use style="fill:#555555;stroke:#555555;stroke-width:0.6;" x="421.968085" xlink:href="#mdbce6304e2" y="262.5"/>
      </g>
     </g>
    </g>
    <g id="text_7">
     <!-- fecha -->
     <g style="fill:#555555;" transform="translate(243.935156 300.290625)scale(0.1 -0.1)">
      <defs>
       <path d="M 9.90625 44.203125 
L 9.90625 0 
L 18.40625 0 
L 18.40625 44.203125 
L 28.40625 44.203125 
L 28.40625 51.703125 
L 18.40625 51.703125 
L 18.40625 58.90625 
Q 18.40625 62.296875 20.09375 63.5 
Q 21.796875 64.703125 24.90625 64.703125 
Q 26 64.703125 27.296875 64.546875 
Q 28.59375 64.40625 29.703125 64 
L 29.703125 71.40625 
Q 28.5 71.796875 26.953125 72 
Q 25.40625 72.203125 24.203125 72.203125 
Q 17.203125 72.203125 13.546875 68.953125 
Q 9.90625 65.703125 9.90625 59.40625 
L 9.90625 51.703125 
L 1.203125 51.703125 
L 1.203125 44.203125 
z
" id="HelveticaNeue-102"/>
       <path d="M 42.296875 30.796875 
L 12.59375 30.796875 
Q 12.796875 33.796875 13.890625 36.4375 
Q 15 39.09375 16.890625 41.09375 
Q 18.796875 43.09375 21.4375 44.25 
Q 24.09375 45.40625 27.40625 45.40625 
Q 30.59375 45.40625 33.25 44.25 
Q 35.90625 43.09375 37.84375 41.140625 
Q 39.796875 39.203125 40.9375 36.5 
Q 42.09375 33.796875 42.296875 30.796875 
z
M 50.5 16.40625 
L 42.09375 16.40625 
Q 41 11.296875 37.546875 8.796875 
Q 34.09375 6.296875 28.703125 6.296875 
Q 24.5 6.296875 21.390625 7.6875 
Q 18.296875 9.09375 16.296875 11.4375 
Q 14.296875 13.796875 13.390625 16.84375 
Q 12.5 19.90625 12.59375 23.296875 
L 51.296875 23.296875 
Q 51.5 28 50.453125 33.203125 
Q 49.40625 38.40625 46.65625 42.796875 
Q 43.90625 47.203125 39.34375 50.046875 
Q 34.796875 52.90625 27.90625 52.90625 
Q 22.59375 52.90625 18.140625 50.90625 
Q 13.703125 48.90625 10.453125 45.296875 
Q 7.203125 41.703125 5.390625 36.796875 
Q 3.59375 31.90625 3.59375 26 
Q 3.796875 20.09375 5.34375 15.09375 
Q 6.90625 10.09375 10 6.5 
Q 13.09375 2.90625 17.640625 0.90625 
Q 22.203125 -1.09375 28.40625 -1.09375 
Q 37.203125 -1.09375 43 3.296875 
Q 48.796875 7.703125 50.5 16.40625 
z
" id="HelveticaNeue-101"/>
       <path d="M 6.40625 71.40625 
L 6.40625 0 
L 14.90625 0 
L 14.90625 29.203125 
Q 14.90625 32.703125 15.84375 35.640625 
Q 16.796875 38.59375 18.6875 40.796875 
Q 20.59375 43 23.4375 44.203125 
Q 26.296875 45.40625 30.203125 45.40625 
Q 35.09375 45.40625 37.890625 42.59375 
Q 40.703125 39.796875 40.703125 35 
L 40.703125 0 
L 49.203125 0 
L 49.203125 34 
Q 49.203125 38.203125 48.34375 41.640625 
Q 47.5 45.09375 45.390625 47.59375 
Q 43.296875 50.09375 39.890625 51.5 
Q 36.5 52.90625 31.40625 52.90625 
Q 29.09375 52.90625 26.640625 52.40625 
Q 24.203125 51.90625 21.953125 50.84375 
Q 19.703125 49.796875 17.890625 48.140625 
Q 16.09375 46.5 15.09375 44.09375 
L 14.90625 44.09375 
L 14.90625 71.40625 
z
" id="HelveticaNeue-104"/>
      </defs>
      <use xlink:href="#HelveticaNeue-102"/>
      <use x="29.599991" xlink:href="#HelveticaNeue-101"/>
      <use x="83.299988" xlink:href="#HelveticaNeue-99"/>
      <use x="136.999985" xlink:href="#HelveticaNeue-104"/>
      <use x="192.599976" xlink:href="#HelveticaNeue-97"/>
     </g>
    </g>
   </g>
   <g id="matplotlib.axis_2">
    <g id="ytick_1">
     <g id="line2d_19">
      <defs>
       <path d="M 0 0 
L -3.5 0 
" id="mc6b1af8c1a" style="stroke:#555555;stroke-width:0.8;"/>
      </defs>
      <g>
       <use style="fill:#555555;stroke:#555555;stroke-width:0.8;" x="62.5" xlink:href="#mc6b1af8c1a" y="251.795455"/>
      </g>
     </g>
     <g id="text_8">
      <!-- 0 -->
      <g style="fill:#555555;" transform="translate(49.940625 255.365767)scale(0.1 -0.1)">
       <use xlink:href="#HelveticaNeue-48"/>
      </g>
     </g>
    </g>
    <g id="ytick_2">
     <g id="line2d_20">
      <g>
       <use style="fill:#555555;stroke:#555555;stroke-width:0.8;" x="62.5" xlink:href="#mc6b1af8c1a" y="218.186207"/>
      </g>
     </g>
     <g id="text_9">
      <!-- 100 -->
      <g style="fill:#555555;" transform="translate(38.821875 221.756519)scale(0.1 -0.1)">
       <use xlink:href="#HelveticaNeue-49"/>
       <use x="55.599991" xlink:href="#HelveticaNeue-48"/>
       <use x="111.199982" xlink:href="#HelveticaNeue-48"/>
      </g>
     </g>
    </g>
    <g id="ytick_3">
     <g id="line2d_21">
      <g>
       <use style="fill:#555555;stroke:#555555;stroke-width:0.8;" x="62.5" xlink:href="#mc6b1af8c1a" y="184.576959"/>
      </g>
     </g>
     <g id="text_10">
      <!-- 200 -->
      <g style="fill:#555555;" transform="translate(38.821875 188.147271)scale(0.1 -0.1)">
       <use xlink:href="#HelveticaNeue-50"/>
       <use x="55.599991" xlink:href="#HelveticaNeue-48"/>
       <use x="111.199982" xlink:href="#HelveticaNeue-48"/>
      </g>
     </g>
    </g>
    <g id="ytick_4">
     <g id="line2d_22">
      <g>
       <use style="fill:#555555;stroke:#555555;stroke-width:0.8;" x="62.5" xlink:href="#mc6b1af8c1a" y="150.967711"/>
      </g>
     </g>
     <g id="text_11">
      <!-- 300 -->
      <g style="fill:#555555;" transform="translate(38.821875 154.538023)scale(0.1 -0.1)">
       <defs>
        <path d="M 21.796875 40.5 
L 21.796875 33.296875 
Q 24.203125 33.59375 26.90625 33.59375 
Q 30.09375 33.59375 32.84375 32.75 
Q 35.59375 31.90625 37.59375 30.15625 
Q 39.59375 28.40625 40.796875 25.84375 
Q 42 23.296875 42 20 
Q 42 16.796875 40.75 14.25 
Q 39.5 11.703125 37.390625 9.953125 
Q 35.296875 8.203125 32.5 7.25 
Q 29.703125 6.296875 26.59375 6.296875 
Q 19.296875 6.296875 15.5 10.640625 
Q 11.703125 15 11.5 21.90625 
L 3 21.90625 
Q 2.90625 16.40625 4.546875 12.09375 
Q 6.203125 7.796875 9.296875 4.84375 
Q 12.40625 1.90625 16.796875 0.40625 
Q 21.203125 -1.09375 26.59375 -1.09375 
Q 31.59375 -1.09375 36.046875 0.25 
Q 40.5 1.59375 43.796875 4.296875 
Q 47.09375 7 49.046875 11.046875 
Q 51 15.09375 51 20.40625 
Q 51 26.796875 47.84375 31.5 
Q 44.703125 36.203125 38.203125 37.59375 
L 38.203125 37.796875 
Q 42.40625 39.703125 45.203125 43.390625 
Q 48 47.09375 48 51.90625 
Q 48 56.796875 46.34375 60.390625 
Q 44.703125 64 41.796875 66.296875 
Q 38.90625 68.59375 34.953125 69.75 
Q 31 70.90625 26.40625 70.90625 
Q 21.09375 70.90625 17.046875 69.203125 
Q 13 67.5 10.296875 64.5 
Q 7.59375 61.5 6.140625 57.296875 
Q 4.703125 53.09375 4.5 48 
L 13 48 
Q 13 51.09375 13.796875 53.890625 
Q 14.59375 56.703125 16.25 58.796875 
Q 17.90625 60.90625 20.453125 62.15625 
Q 23 63.40625 26.40625 63.40625 
Q 31.796875 63.40625 35.390625 60.546875 
Q 39 57.703125 39 52 
Q 39 49.203125 37.890625 47 
Q 36.796875 44.796875 34.9375 43.34375 
Q 33.09375 41.90625 30.640625 41.15625 
Q 28.203125 40.40625 25.5 40.40625 
L 23.703125 40.40625 
Q 23.203125 40.40625 22.703125 40.40625 
Q 22.296875 40.40625 21.796875 40.5 
z
" id="HelveticaNeue-51"/>
       </defs>
       <use xlink:href="#HelveticaNeue-51"/>
       <use x="55.599991" xlink:href="#HelveticaNeue-48"/>
       <use x="111.199982" xlink:href="#HelveticaNeue-48"/>
      </g>
     </g>
    </g>
    <g id="ytick_5">
     <g id="line2d_23">
      <g>
       <use style="fill:#555555;stroke:#555555;stroke-width:0.8;" x="62.5" xlink:href="#mc6b1af8c1a" y="117.358463"/>
      </g>
     </g>
     <g id="text_12">
      <!-- 400 -->
      <g style="fill:#555555;" transform="translate(38.821875 120.928775)scale(0.1 -0.1)">
       <defs>
        <path d="M 33.90625 24.09375 
L 10.09375 24.09375 
L 33.703125 58.796875 
L 33.90625 58.796875 
z
M 41.90625 24.09375 
L 41.90625 70.90625 
L 35.09375 70.90625 
L 2.796875 24.796875 
L 2.796875 16.59375 
L 33.90625 16.59375 
L 33.90625 0 
L 41.90625 0 
L 41.90625 16.59375 
L 51.5 16.59375 
L 51.5 24.09375 
z
" id="HelveticaNeue-52"/>
       </defs>
       <use xlink:href="#HelveticaNeue-52"/>
       <use x="55.599991" xlink:href="#HelveticaNeue-48"/>
       <use x="111.199982" xlink:href="#HelveticaNeue-48"/>
      </g>
     </g>
    </g>
    <g id="ytick_6">
     <g id="line2d_24">
      <g>
       <use style="fill:#555555;stroke:#555555;stroke-width:0.8;" x="62.5" xlink:href="#mc6b1af8c1a" y="83.749215"/>
      </g>
     </g>
     <g id="text_13">
      <!-- 500 -->
      <g style="fill:#555555;" transform="translate(38.821875 87.319528)scale(0.1 -0.1)">
       <defs>
        <path d="M 47 62.203125 
L 47 69.703125 
L 12 69.703125 
L 5.40625 32.90625 
L 12.703125 32.5 
Q 15.203125 35.5 18.453125 37.34375 
Q 21.703125 39.203125 25.90625 39.203125 
Q 29.5 39.203125 32.453125 38 
Q 35.40625 36.796875 37.5 34.640625 
Q 39.59375 32.5 40.75 29.546875 
Q 41.90625 26.59375 41.90625 23.09375 
Q 41.90625 18.90625 40.703125 15.75 
Q 39.5 12.59375 37.453125 10.5 
Q 35.40625 8.40625 32.65625 7.34375 
Q 29.90625 6.296875 26.90625 6.296875 
Q 23.703125 6.296875 21.046875 7.25 
Q 18.40625 8.203125 16.453125 9.953125 
Q 14.5 11.703125 13.34375 14.046875 
Q 12.203125 16.40625 12 19.09375 
L 3.5 19.09375 
Q 3.59375 14.296875 5.390625 10.5 
Q 7.203125 6.703125 10.296875 4.140625 
Q 13.40625 1.59375 17.453125 0.25 
Q 21.5 -1.09375 26.09375 -1.09375 
Q 32.296875 -1.09375 36.9375 0.84375 
Q 41.59375 2.796875 44.6875 6.09375 
Q 47.796875 9.40625 49.34375 13.65625 
Q 50.90625 17.90625 50.90625 22.40625 
Q 50.90625 28.5 49.09375 33.046875 
Q 47.296875 37.59375 44.1875 40.640625 
Q 41.09375 43.703125 36.890625 45.203125 
Q 32.703125 46.703125 28 46.703125 
Q 24.40625 46.703125 20.75 45.453125 
Q 17.09375 44.203125 14.796875 41.59375 
L 14.59375 41.796875 
L 18.40625 62.203125 
z
" id="HelveticaNeue-53"/>
       </defs>
       <use xlink:href="#HelveticaNeue-53"/>
       <use x="55.599991" xlink:href="#HelveticaNeue-48"/>
       <use x="111.199982" xlink:href="#HelveticaNeue-48"/>
      </g>
     </g>
    </g>
    <g id="ytick_7">
     <g id="line2d_25">
      <g>
       <use style="fill:#555555;stroke:#555555;stroke-width:0.8;" x="62.5" xlink:href="#mc6b1af8c1a" y="50.139967"/>
      </g>
     </g>
     <g id="text_14">
      <!-- 600 -->
      <g style="fill:#555555;" transform="translate(38.821875 53.71028)scale(0.1 -0.1)">
       <defs>
        <path d="M 41.40625 52.796875 
L 49.90625 52.796875 
Q 49.09375 61.59375 43.890625 66.25 
Q 38.703125 70.90625 29.90625 70.90625 
Q 22.296875 70.90625 17.296875 67.703125 
Q 12.296875 64.5 9.296875 59.203125 
Q 6.296875 53.90625 5.046875 47.046875 
Q 3.796875 40.203125 3.796875 32.90625 
Q 3.796875 27.296875 4.640625 21.296875 
Q 5.5 15.296875 8.09375 10.296875 
Q 10.703125 5.296875 15.5 2.09375 
Q 20.296875 -1.09375 28.203125 -1.09375 
Q 34.90625 -1.09375 39.453125 1.15625 
Q 44 3.40625 46.75 6.84375 
Q 49.5 10.296875 50.703125 14.5 
Q 51.90625 18.703125 51.90625 22.59375 
Q 51.90625 27.5 50.40625 31.703125 
Q 48.90625 35.90625 46.15625 39 
Q 43.40625 42.09375 39.34375 43.84375 
Q 35.296875 45.59375 30.203125 45.59375 
Q 24.40625 45.59375 19.953125 43.390625 
Q 15.5 41.203125 12.5 36.296875 
L 12.296875 36.5 
Q 12.40625 40.59375 13.09375 45.296875 
Q 13.796875 50 15.640625 54.046875 
Q 17.5 58.09375 20.796875 60.75 
Q 24.09375 63.40625 29.5 63.40625 
Q 34.59375 63.40625 37.6875 60.5 
Q 40.796875 57.59375 41.40625 52.796875 
z
M 28.59375 38.09375 
Q 32.203125 38.09375 34.890625 36.796875 
Q 37.59375 35.5 39.390625 33.34375 
Q 41.203125 31.203125 42.046875 28.25 
Q 42.90625 25.296875 42.90625 22 
Q 42.90625 18.90625 41.953125 16.046875 
Q 41 13.203125 39.203125 11 
Q 37.40625 8.796875 34.75 7.546875 
Q 32.09375 6.296875 28.59375 6.296875 
Q 25.09375 6.296875 22.34375 7.546875 
Q 19.59375 8.796875 17.75 10.890625 
Q 15.90625 13 14.90625 15.890625 
Q 13.90625 18.796875 13.90625 22.09375 
Q 13.90625 25.40625 14.84375 28.34375 
Q 15.796875 31.296875 17.6875 33.4375 
Q 19.59375 35.59375 22.296875 36.84375 
Q 25 38.09375 28.59375 38.09375 
z
" id="HelveticaNeue-54"/>
       </defs>
       <use xlink:href="#HelveticaNeue-54"/>
       <use x="55.599991" xlink:href="#HelveticaNeue-48"/>
       <use x="111.199982" xlink:href="#HelveticaNeue-48"/>
      </g>
     </g>
    </g>
   </g>
   <g id="line2d_26">
    <path clip-path="url(#p4d8ec0fb2d)" d="M 63.324468 251.795455 
L 64.148936 250.451085 
L 64.973404 250.787177 
L 65.797872 249.7789 
L 66.62234 251.795455 
L 67.446809 250.114992 
L 68.271277 251.459362 
L 69.920213 250.787177 
L 70.744681 251.795455 
L 71.569149 250.451085 
L 72.393617 249.442807 
L 73.218085 249.442807 
L 74.042553 251.795455 
L 74.867021 248.770622 
L 75.691489 249.442807 
L 76.515957 251.459362 
L 77.340426 250.451085 
L 78.989362 251.795455 
L 79.81383 251.795455 
L 80.638298 250.787177 
L 81.462766 251.459362 
L 82.287234 250.787177 
L 83.111702 249.7789 
L 83.93617 250.451085 
L 84.760638 249.106715 
L 85.585106 250.787177 
L 86.409574 250.787177 
L 87.234043 251.795455 
L 88.058511 251.459362 
L 88.882979 250.114992 
L 89.707447 250.451085 
L 90.531915 250.451085 
L 91.356383 249.7789 
L 92.180851 249.7789 
L 93.005319 249.442807 
L 93.829787 250.787177 
L 94.654255 249.442807 
L 95.478723 250.451085 
L 96.303191 250.451085 
L 97.12766 247.426252 
L 97.952128 248.770622 
L 98.776596 249.442807 
L 99.601064 250.451085 
L 100.425532 249.442807 
L 101.25 249.442807 
L 102.074468 249.7789 
L 102.898936 242.720958 
L 103.723404 249.106715 
L 104.547872 250.451085 
L 105.37234 250.114992 
L 106.196809 248.098437 
L 107.021277 247.426252 
L 107.845745 246.417975 
L 108.670213 249.106715 
L 109.494681 251.12327 
L 110.319149 245.74579 
L 111.143617 245.073605 
L 111.968085 249.442807 
L 112.792553 245.74579 
L 113.617021 246.754067 
L 114.441489 251.459362 
L 115.265957 246.081882 
L 116.090426 249.7789 
L 116.914894 245.409697 
L 117.739362 242.384865 
L 118.56383 247.762345 
L 119.388298 249.106715 
L 120.212766 242.384865 
L 121.037234 242.384865 
L 121.861702 245.073605 
L 122.68617 242.384865 
L 123.510638 249.442807 
L 124.335106 244.40142 
L 125.159574 248.098437 
L 125.984043 248.098437 
L 126.808511 247.09016 
L 127.632979 242.384865 
L 128.457447 246.081882 
L 129.281915 245.409697 
L 130.106383 240.704403 
L 130.930851 246.754067 
L 131.755319 248.098437 
L 132.579787 245.74579 
L 133.404255 239.02394 
L 134.228723 241.71268 
L 135.053191 241.040495 
L 135.87766 238.351755 
L 136.702128 232.974276 
L 137.526596 236.671293 
L 138.351064 235.326923 
L 139.175532 243.393143 
L 140 227.260704 
L 140.824468 241.71268 
L 141.648936 234.654738 
L 142.473404 231.293813 
L 143.297872 226.588519 
L 144.12234 246.081882 
L 144.946809 231.293813 
L 145.771277 237.343478 
L 146.595745 231.293813 
L 147.420213 230.621628 
L 148.244681 232.974276 
L 149.069149 238.015663 
L 150.718085 220.874946 
L 151.542553 227.596796 
L 152.367021 235.326923 
L 153.191489 218.186207 
L 154.015957 224.908056 
L 154.840426 228.605073 
L 155.664894 221.211039 
L 156.489362 232.638183 
L 157.31383 228.605073 
L 158.138298 217.514022 
L 158.962766 221.547131 
L 159.787234 206.086877 
L 160.611702 220.538854 
L 161.43617 226.588519 
L 162.260638 194.659733 
L 163.085106 199.365028 
L 163.909574 219.866669 
L 164.734043 193.315363 
L 165.558511 209.783895 
L 166.382979 217.850114 
L 167.207447 186.257421 
L 168.031915 192.307086 
L 168.856383 204.070323 
L 170.505319 198.692843 
L 171.329787 200.037213 
L 172.154255 215.833559 
L 172.978723 203.398138 
L 173.803191 152.648173 
L 174.62766 201.381583 
L 175.452128 203.73423 
L 176.276596 178.191202 
L 177.101064 198.692843 
L 177.925532 209.783895 
L 178.75 166.427965 
L 179.574468 194.659733 
L 180.398936 198.692843 
L 181.223404 183.568681 
L 182.047872 188.610069 
L 182.87234 173.821999 
L 183.696809 180.879941 
L 184.521277 198.692843 
L 185.345745 149.959433 
L 186.170213 213.480912 
L 186.994681 197.684565 
L 187.819149 197.684565 
L 188.643617 214.153097 
L 189.468085 196.676288 
L 190.292553 214.489189 
L 191.117021 196.340196 
L 191.941489 212.808727 
L 192.765957 218.186207 
L 193.590426 208.439525 
L 194.414894 227.260704 
L 195.239362 219.530577 
L 196.06383 202.053768 
L 196.888298 195.668011 
L 197.712766 227.260704 
L 198.537234 211.80045 
L 199.361702 192.643178 
L 200.18617 225.916334 
L 201.010638 232.974276 
L 201.835106 220.202762 
L 202.659574 227.260704 
L 203.484043 214.825282 
L 204.308511 215.833559 
L 205.132979 203.398138 
L 205.957447 225.916334 
L 206.781915 235.999108 
L 207.606383 225.244149 
L 208.430851 220.874946 
L 209.255319 212.136542 
L 210.079787 217.514022 
L 210.904255 216.169652 
L 211.728723 230.957721 
L 212.553191 233.646461 
L 213.37766 228.605073 
L 214.202128 225.916334 
L 215.026596 214.489189 
L 215.851064 220.538854 
L 216.675532 220.202762 
L 217.5 228.268981 
L 218.324468 233.310368 
L 219.148936 229.277258 
L 219.973404 212.136542 
L 220.797872 232.302091 
L 221.62234 220.874946 
L 222.446809 193.651456 
L 223.271277 210.119987 
L 224.095745 215.497467 
L 224.920213 224.235871 
L 225.744681 220.202762 
L 226.569149 222.219316 
L 227.393617 217.850114 
L 228.218085 223.227594 
L 229.042553 226.252426 
L 229.867021 230.957721 
L 230.691489 238.015663 
L 231.515957 238.351755 
L 232.340426 228.268981 
L 233.164894 208.103432 
L 233.989362 215.833559 
L 234.81383 219.866669 
L 235.638298 229.277258 
L 236.462766 227.260704 
L 237.287234 216.169652 
L 238.111702 207.76734 
L 238.93617 203.398138 
L 239.760638 209.11171 
L 240.585106 225.916334 
L 241.409574 222.219316 
L 242.234043 220.202762 
L 243.058511 201.717675 
L 243.882979 195.331918 
L 244.707447 213.480912 
L 245.531915 213.817004 
L 246.356383 218.522299 
L 247.180851 221.883224 
L 248.005319 214.825282 
L 248.829787 211.464357 
L 249.654255 207.431247 
L 250.478723 214.153097 
L 251.303191 212.472635 
L 252.12766 210.45608 
L 253.776596 226.252426 
L 254.601064 218.186207 
L 255.425532 221.547131 
L 256.25 218.522299 
L 257.074468 214.825282 
L 257.898936 232.638183 
L 258.723404 239.696125 
L 259.547872 219.866669 
L 260.37234 213.817004 
L 261.196809 232.638183 
L 262.021277 213.480912 
L 262.845745 210.119987 
L 263.670213 227.596796 
L 264.494681 215.161374 
L 265.319149 215.833559 
L 266.143617 212.808727 
L 266.968085 211.464357 
L 267.792553 203.062045 
L 268.617021 202.053768 
L 269.441489 210.792172 
L 270.265957 226.924611 
L 271.090426 215.833559 
L 271.914894 206.42297 
L 272.739362 214.153097 
L 273.56383 212.472635 
L 274.388298 201.381583 
L 275.212766 207.76734 
L 276.037234 231.965998 
L 276.861702 214.153097 
L 277.68617 215.161374 
L 278.510638 206.086877 
L 279.335106 190.290531 
L 280.159574 188.273976 
L 280.984043 197.01238 
L 281.808511 207.095155 
L 283.457447 179.871664 
L 284.281915 179.535572 
L 285.106383 198.35675 
L 285.930851 181.552126 
L 286.755319 178.527294 
L 287.579787 208.775617 
L 288.404255 185.585236 
L 289.228723 177.182924 
L 290.053191 156.681283 
L 290.87766 188.610069 
L 291.702128 199.028935 
L 292.526596 198.020658 
L 293.351064 178.527294 
L 294.175532 171.805445 
L 295 132.482625 
L 295.824468 136.515734 
L 296.648936 185.249144 
L 297.473404 223.227594 
L 299.12234 136.851827 
L 299.946809 169.452797 
L 300.771277 113.997538 
L 301.595745 117.02237 
L 302.420213 137.860104 
L 303.244681 155.336913 
L 304.069149 129.1217 
L 304.893617 186.257421 
L 305.718085 182.896496 
L 306.542553 92.823712 
L 307.367021 97.865099 
L 308.191489 145.590231 
L 309.015957 164.075318 
L 309.840426 141.221029 
L 310.664894 162.058763 
L 311.489362 159.706115 
L 312.31383 156.681283 
L 313.138298 170.461075 
L 313.962766 155.673006 
L 314.787234 164.41141 
L 315.611702 165.419687 
L 316.43617 202.725953 
L 317.260638 165.083595 
L 318.085106 203.73423 
L 318.909574 171.469352 
L 320.558511 209.783895 
L 321.382979 223.563686 
L 322.207447 204.070323 
L 323.031915 220.874946 
L 323.856383 222.891501 
L 324.680851 211.128265 
L 325.505319 213.144819 
L 326.329787 222.219316 
L 327.154255 228.605073 
L 327.978723 235.999108 
L 328.803191 221.211039 
L 329.62766 218.522299 
L 330.452128 224.908056 
L 331.276596 233.310368 
L 332.101064 225.244149 
L 332.925532 235.663016 
L 333.75 231.293813 
L 334.574468 241.71268 
L 335.398936 221.211039 
L 336.223404 229.613351 
L 337.047872 235.663016 
L 337.87234 234.654738 
L 338.696809 235.999108 
L 339.521277 242.720958 
L 340.345745 239.02394 
L 341.170213 236.671293 
L 341.994681 233.310368 
L 342.819149 231.293813 
L 343.643617 239.02394 
L 344.468085 242.384865 
L 345.292553 237.67957 
L 346.117021 239.02394 
L 346.941489 236.335201 
L 347.765957 236.671293 
L 348.590426 238.351755 
L 349.414894 231.629906 
L 351.06383 243.05705 
L 351.888298 238.351755 
L 352.712766 242.720958 
L 353.537234 238.687848 
L 354.361702 240.36831 
L 355.18617 244.737512 
L 356.010638 246.754067 
L 356.835106 240.36831 
L 357.659574 239.360033 
L 358.484043 239.696125 
L 359.308511 233.982553 
L 360.132979 238.687848 
L 360.957447 227.596796 
L 361.781915 236.335201 
L 362.606383 236.335201 
L 363.430851 246.081882 
L 364.255319 231.965998 
L 365.079787 227.932889 
L 365.904255 233.310368 
L 366.728723 227.260704 
L 367.553191 222.555409 
L 368.37766 237.343478 
L 369.202128 223.899779 
L 370.026596 214.153097 
L 370.851064 219.194484 
L 371.675532 235.326923 
L 372.5 224.908056 
L 373.324468 218.858392 
L 374.148936 228.605073 
L 374.973404 210.45608 
L 375.797872 189.618346 
L 376.62234 202.053768 
L 377.446809 197.348473 
L 378.271277 174.830277 
L 379.920213 192.643178 
L 380.744681 173.485907 
L 381.569149 166.427965 
L 382.393617 160.3783 
L 384.867021 182.896496 
L 385.691489 201.381583 
L 386.515957 190.290531 
L 387.340426 151.975988 
L 388.164894 181.888219 
L 388.989362 169.116705 
L 389.81383 189.954438 
L 390.638298 191.298808 
L 391.462766 183.568681 
L 392.287234 184.576959 
L 393.111702 171.13326 
L 393.93617 181.552126 
L 394.760638 174.830277 
L 395.585106 158.361745 
L 396.409574 183.568681 
L 397.234043 178.527294 
L 398.058511 171.805445 
L 398.882979 149.287248 
L 399.707447 164.41141 
L 400.531915 152.312081 
L 401.356383 171.805445 
L 402.180851 179.871664 
L 403.005319 155.336913 
L 403.829787 156.681283 
L 404.654255 131.474347 
L 405.478723 171.805445 
L 406.303191 187.265699 
L 407.12766 170.461075 
L 407.952128 185.585236 
L 408.776596 196.004103 
L 409.601064 165.083595 
L 410.425532 145.254139 
L 411.25 165.083595 
L 412.074468 148.951156 
L 412.898936 126.096867 
L 413.723404 143.237584 
L 414.547872 134.835272 
L 415.37234 140.548844 
L 416.196809 107.611781 
L 417.021277 120.383295 
L 418.670213 129.457792 
L 419.494681 83.07703 
L 420.319149 174.830277 
L 421.143617 132.146532 
L 421.968085 112.317076 
L 422.792553 37.704545 
L 423.617021 94.168082 
L 424.441489 97.529007 
L 425.265957 121.05548 
L 426.090426 158.697838 
L 426.914894 97.529007 
L 427.739362 162.394855 
L 428.56383 97.865099 
L 429.388298 128.449515 
L 430.212766 149.623341 
L 431.037234 165.083595 
L 431.861702 175.166369 
L 432.68617 146.598509 
L 433.510638 128.113422 
L 434.335106 141.893214 
L 435.159574 80.724383 
L 435.984043 153.656451 
L 436.808511 134.835272 
L 437.632979 143.573676 
L 438.457447 124.080313 
L 439.281915 144.245861 
L 440.106383 118.36674 
L 440.930851 124.416405 
L 442.579787 153.656451 
L 443.404255 162.730948 
L 444.228723 125.08859 
L 445.053191 104.586949 
L 445.87766 120.047203 
L 446.702128 150.295526 
L 447.526596 165.75578 
L 448.351064 173.485907 
L 449.175532 197.01238 
L 450 210.45608 
L 450 210.45608 
" style="fill:none;stroke:#000000;stroke-dasharray:1.5,2.475;stroke-dashoffset:0;stroke-opacity:0.5;stroke-width:1.5;"/>
   </g>
   <g id="line2d_27">
    <path clip-path="url(#p4d8ec0fb2d)" d="M 62.5 251.12327 
L 63.324468 250.787177 
L 67.446809 250.787177 
L 68.271277 251.12327 
L 69.095745 251.12327 
L 69.920213 250.787177 
L 71.569149 250.787177 
L 73.218085 250.114992 
L 74.867021 250.114992 
L 75.691489 250.451085 
L 76.515957 250.451085 
L 78.164894 251.12327 
L 81.462766 251.12327 
L 82.287234 250.451085 
L 85.585106 250.451085 
L 86.409574 250.787177 
L 88.882979 250.787177 
L 90.531915 250.114992 
L 93.829787 250.114992 
L 94.654255 249.7789 
L 95.478723 249.7789 
L 96.303191 249.442807 
L 99.601064 249.442807 
L 100.425532 248.770622 
L 101.25 248.770622 
L 102.074468 248.43453 
L 104.547872 248.43453 
L 105.37234 248.098437 
L 106.196809 248.770622 
L 107.021277 248.770622 
L 107.845745 248.098437 
L 108.670213 247.762345 
L 109.494681 247.762345 
L 110.319149 247.426252 
L 111.143617 247.426252 
L 111.968085 247.762345 
L 112.792553 247.426252 
L 113.617021 247.762345 
L 114.441489 247.762345 
L 115.265957 247.09016 
L 116.914894 247.09016 
L 117.739362 246.081882 
L 118.56383 245.74579 
L 119.388298 245.073605 
L 120.212766 244.737512 
L 121.037234 245.073605 
L 121.861702 244.737512 
L 122.68617 244.737512 
L 123.510638 245.74579 
L 124.335106 246.417975 
L 125.984043 246.417975 
L 126.808511 246.081882 
L 127.632979 245.409697 
L 128.457447 245.073605 
L 130.106383 245.073605 
L 130.930851 244.737512 
L 132.579787 243.393143 
L 133.404255 243.05705 
L 134.228723 241.040495 
L 135.053191 239.360033 
L 135.87766 238.015663 
L 136.702128 238.015663 
L 137.526596 236.335201 
L 138.351064 236.335201 
L 139.175532 235.999108 
L 140 235.999108 
L 140.824468 234.654738 
L 141.648936 235.326923 
L 142.473404 234.318646 
L 143.297872 234.990831 
L 144.12234 234.318646 
L 144.946809 233.982553 
L 145.771277 233.982553 
L 146.595745 234.654738 
L 147.420213 232.974276 
L 148.244681 231.965998 
L 149.069149 230.621628 
L 149.893617 230.621628 
L 150.718085 228.941166 
L 151.542553 227.596796 
L 153.191489 225.580241 
L 154.015957 226.588519 
L 154.840426 226.588519 
L 155.664894 225.244149 
L 156.489362 225.244149 
L 157.31383 222.891501 
L 158.138298 221.211039 
L 158.962766 220.874946 
L 160.611702 213.144819 
L 161.43617 212.472635 
L 162.260638 209.11171 
L 163.909574 207.76734 
L 164.734043 204.070323 
L 165.558511 203.398138 
L 166.382979 203.062045 
L 167.207447 200.709398 
L 168.031915 200.709398 
L 168.856383 199.365028 
L 169.680851 199.70112 
L 170.505319 202.38986 
L 171.329787 198.35675 
L 172.154255 196.676288 
L 172.978723 195.668011 
L 173.803191 192.979271 
L 174.62766 191.970993 
L 175.452128 191.970993 
L 176.276596 189.618346 
L 177.101064 193.315363 
L 177.925532 192.307086 
L 178.75 190.290531 
L 179.574468 190.962716 
L 180.398936 188.273976 
L 181.223404 184.913051 
L 182.047872 187.265699 
L 182.87234 182.560404 
L 183.696809 183.232589 
L 184.521277 184.913051 
L 185.345745 187.265699 
L 186.170213 192.643178 
L 187.819149 199.365028 
L 188.643617 204.406415 
L 189.468085 204.406415 
L 190.292553 206.759062 
L 191.117021 208.439525 
L 191.941489 210.45608 
L 192.765957 213.480912 
L 193.590426 213.480912 
L 194.414894 213.144819 
L 195.239362 213.817004 
L 196.06383 212.808727 
L 196.888298 210.45608 
L 197.712766 210.119987 
L 198.537234 212.136542 
L 199.361702 215.161374 
L 200.18617 219.194484 
L 201.010638 219.194484 
L 201.835106 220.202762 
L 202.659574 220.538854 
L 203.484043 219.194484 
L 204.308511 219.194484 
L 205.132979 220.202762 
L 205.957447 220.538854 
L 206.781915 221.211039 
L 208.430851 221.883224 
L 210.079787 221.211039 
L 210.904255 222.555409 
L 211.728723 224.235871 
L 212.553191 225.244149 
L 213.37766 225.244149 
L 214.202128 224.571964 
L 215.026596 223.563686 
L 215.851064 223.563686 
L 216.675532 224.235871 
L 217.5 223.563686 
L 218.324468 225.580241 
L 219.148936 225.580241 
L 221.62234 215.833559 
L 222.446809 214.489189 
L 223.271277 215.161374 
L 224.095745 214.825282 
L 224.920213 215.833559 
L 225.744681 219.530577 
L 227.393617 222.891501 
L 228.218085 224.908056 
L 229.042553 227.932889 
L 229.867021 229.613351 
L 230.691489 229.277258 
L 231.515957 227.596796 
L 232.340426 225.580241 
L 233.164894 223.899779 
L 233.989362 222.555409 
L 234.81383 220.538854 
L 235.638298 219.194484 
L 236.462766 218.186207 
L 237.287234 216.169652 
L 238.111702 215.497467 
L 238.93617 214.489189 
L 239.760638 214.489189 
L 240.585106 214.153097 
L 241.409574 212.808727 
L 242.234043 212.808727 
L 243.058511 212.136542 
L 243.882979 210.792172 
L 244.707447 211.128265 
L 245.531915 211.80045 
L 246.356383 213.817004 
L 247.180851 215.161374 
L 248.005319 214.825282 
L 248.829787 214.153097 
L 249.654255 212.808727 
L 250.478723 212.472635 
L 251.303191 213.817004 
L 252.12766 215.497467 
L 252.952128 217.514022 
L 253.776596 218.522299 
L 254.601064 219.194484 
L 255.425532 221.211039 
L 256.25 223.563686 
L 257.074468 223.563686 
L 257.898936 223.899779 
L 258.723404 225.244149 
L 259.547872 224.571964 
L 260.37234 223.227594 
L 261.196809 221.547131 
L 262.021277 218.858392 
L 262.845745 218.522299 
L 263.670213 217.850114 
L 264.494681 215.833559 
L 266.143617 212.472635 
L 266.968085 209.783895 
L 267.792553 210.792172 
L 268.617021 211.128265 
L 269.441489 211.128265 
L 270.265957 212.136542 
L 271.090426 213.480912 
L 271.914894 212.808727 
L 272.739362 211.80045 
L 273.56383 211.80045 
L 274.388298 212.136542 
L 275.212766 213.817004 
L 276.037234 213.480912 
L 276.861702 211.464357 
L 277.68617 208.775617 
L 278.510638 205.414692 
L 279.335106 201.381583 
L 280.159574 198.35675 
L 280.984043 194.659733 
L 281.808511 191.970993 
L 282.632979 191.970993 
L 283.457447 190.290531 
L 284.281915 187.601791 
L 285.930851 187.601791 
L 286.755319 187.937884 
L 287.579787 184.913051 
L 288.404255 182.896496 
L 289.228723 183.568681 
L 290.053191 185.249144 
L 290.87766 183.232589 
L 291.702128 183.232589 
L 294.175532 169.452797 
L 295 170.124982 
L 295.824468 170.124982 
L 296.648936 168.780612 
L 297.473404 170.124982 
L 298.297872 167.772335 
L 299.12234 161.386578 
L 300.771277 141.557121 
L 301.595745 136.179642 
L 303.244681 145.590231 
L 304.069149 146.598509 
L 304.893617 144.245861 
L 305.718085 142.229306 
L 306.542553 140.548844 
L 307.367021 140.212752 
L 308.191489 138.532289 
L 309.015957 139.540567 
L 310.664894 157.017375 
L 311.489362 158.697838 
L 312.31383 159.370023 
L 313.138298 162.058763 
L 313.962766 166.427965 
L 314.787234 168.44452 
L 315.611702 174.494184 
L 316.43617 176.846832 
L 317.260638 181.216034 
L 318.085106 186.593514 
L 318.909574 193.315363 
L 319.734043 195.668011 
L 320.558511 203.398138 
L 321.382979 207.431247 
L 322.207447 212.808727 
L 323.031915 215.497467 
L 324.680851 217.514022 
L 325.505319 221.211039 
L 326.329787 222.219316 
L 327.154255 222.555409 
L 327.978723 224.235871 
L 328.803191 226.252426 
L 329.62766 226.252426 
L 330.452128 227.260704 
L 331.276596 227.260704 
L 332.101064 230.285536 
L 333.75 231.629906 
L 334.574468 231.629906 
L 335.398936 232.302091 
L 336.223404 232.638183 
L 337.047872 233.982553 
L 337.87234 234.654738 
L 338.696809 236.671293 
L 339.521277 237.343478 
L 340.345745 236.671293 
L 341.170213 236.671293 
L 341.994681 237.007385 
L 342.819149 236.671293 
L 344.468085 237.343478 
L 345.292553 238.015663 
L 346.117021 238.351755 
L 346.941489 237.343478 
L 347.765957 236.671293 
L 348.590426 237.007385 
L 349.414894 237.007385 
L 350.239362 238.015663 
L 351.888298 239.360033 
L 352.712766 240.704403 
L 353.537234 241.71268 
L 354.361702 241.71268 
L 355.18617 242.048773 
L 356.010638 241.71268 
L 357.659574 240.36831 
L 358.484043 238.015663 
L 359.308511 236.335201 
L 360.132979 235.663016 
L 360.957447 236.335201 
L 361.781915 235.999108 
L 362.606383 235.326923 
L 363.430851 234.990831 
L 364.255319 234.318646 
L 365.079787 232.302091 
L 365.904255 231.629906 
L 366.728723 229.277258 
L 367.553191 227.260704 
L 368.37766 225.580241 
L 370.026596 224.908056 
L 371.675532 223.563686 
L 372.5 222.555409 
L 373.324468 219.530577 
L 374.148936 215.833559 
L 374.973404 210.119987 
L 375.797872 203.062045 
L 377.446809 192.307086 
L 378.271277 187.937884 
L 379.095745 184.240866 
L 379.920213 178.863387 
L 380.744681 174.830277 
L 381.569149 173.149814 
L 382.393617 172.141537 
L 383.218085 173.821999 
L 384.042553 177.519017 
L 384.867021 177.855109 
L 385.691489 180.207757 
L 386.515957 179.535572 
L 388.164894 180.207757 
L 388.989362 179.199479 
L 389.81383 180.207757 
L 390.638298 182.560404 
L 391.462766 182.560404 
L 392.287234 182.224311 
L 393.111702 178.191202 
L 393.93617 176.174647 
L 394.760638 175.502462 
L 395.585106 174.158092 
L 397.234043 169.452797 
L 398.058511 166.427965 
L 398.882979 166.091872 
L 399.707447 165.083595 
L 400.531915 163.403133 
L 401.356383 162.394855 
L 402.180851 160.714393 
L 403.005319 160.042208 
L 403.829787 162.394855 
L 404.654255 162.730948 
L 405.478723 165.083595 
L 406.303191 171.469352 
L 407.12766 174.830277 
L 407.952128 176.510739 
L 408.776596 174.158092 
L 409.601064 168.780612 
L 411.25 154.664728 
L 412.074468 146.598509 
L 412.898936 142.901491 
L 415.37234 128.449515 
L 416.196809 127.441237 
L 417.021277 120.719388 
L 417.845745 123.74422 
L 418.670213 124.080313 
L 419.494681 125.760775 
L 420.319149 117.694555 
L 421.968085 104.923041 
L 422.792553 104.586949 
L 423.617021 102.570394 
L 424.441489 102.570394 
L 426.090426 121.05548 
L 426.914894 125.08859 
L 428.56383 134.499179 
L 429.388298 138.532289 
L 430.212766 145.926324 
L 431.037234 145.254139 
L 431.861702 149.959433 
L 432.68617 143.573676 
L 433.510638 140.212752 
L 434.335106 134.499179 
L 435.159574 130.802162 
L 435.984043 129.457792 
L 436.808511 132.146532 
L 437.632979 131.138255 
L 438.457447 134.499179 
L 439.281915 132.146532 
L 440.106383 133.826994 
L 440.930851 136.851827 
L 441.755319 138.532289 
L 442.579787 135.843549 
L 443.404255 134.835272 
L 444.228723 135.507457 
L 445.053191 136.851827 
L 445.87766 139.876659 
L 446.702128 146.934601 
L 447.526596 160.714393 
L 449.175532 182.224311 
L 450 189.618346 
L 450 189.618346 
" style="fill:none;stroke:#b3220f;stroke-linecap:square;stroke-width:1.5;"/>
   </g>
   <g id="patch_3">
    <path d="M 62.5 262.5 
L 62.5 27 
" style="fill:none;stroke:#555555;stroke-linecap:square;stroke-linejoin:miter;"/>
   </g>
   <g id="patch_4">
    <path d="M 62.5 262.5 
L 450 262.5 
" style="fill:none;stroke:#555555;stroke-linecap:square;stroke-linejoin:miter;"/>
   </g>
   <g id="text_15">
    <!-- Fontibn | Casos nuevos: 2021-07-05 -->
    <g style="fill:#555555;" transform="translate(138.246406 17)scale(0.14 -0.14)">
     <defs>
      <path d="M 7.796875 71.40625 
L 7.796875 0 
L 17.296875 0 
L 17.296875 32.703125 
L 50.09375 32.703125 
L 50.09375 40.703125 
L 17.296875 40.703125 
L 17.296875 63.40625 
L 54.703125 63.40625 
L 54.703125 71.40625 
z
" id="HelveticaNeue-70"/>
      <path d="M 12.59375 25.796875 
Q 12.59375 30.5 13.84375 34.140625 
Q 15.09375 37.796875 17.296875 40.296875 
Q 19.5 42.796875 22.453125 44.09375 
Q 25.40625 45.40625 28.703125 45.40625 
Q 32 45.40625 34.953125 44.09375 
Q 37.90625 42.796875 40.09375 40.296875 
Q 42.296875 37.796875 43.546875 34.140625 
Q 44.796875 30.5 44.796875 25.796875 
Q 44.796875 21.09375 43.546875 17.4375 
Q 42.296875 13.796875 40.09375 11.34375 
Q 37.90625 8.90625 34.953125 7.59375 
Q 32 6.296875 28.703125 6.296875 
Q 25.40625 6.296875 22.453125 7.59375 
Q 19.5 8.90625 17.296875 11.34375 
Q 15.09375 13.796875 13.84375 17.4375 
Q 12.59375 21.09375 12.59375 25.796875 
z
M 3.59375 25.796875 
Q 3.59375 20.09375 5.1875 15.1875 
Q 6.796875 10.296875 10 6.640625 
Q 13.203125 3 17.890625 0.953125 
Q 22.59375 -1.09375 28.703125 -1.09375 
Q 34.90625 -1.09375 39.546875 0.953125 
Q 44.203125 3 47.390625 6.640625 
Q 50.59375 10.296875 52.1875 15.1875 
Q 53.796875 20.09375 53.796875 25.796875 
Q 53.796875 31.5 52.1875 36.453125 
Q 50.59375 41.40625 47.390625 45.046875 
Q 44.203125 48.703125 39.546875 50.796875 
Q 34.90625 52.90625 28.703125 52.90625 
Q 22.59375 52.90625 17.890625 50.796875 
Q 13.203125 48.703125 10 45.046875 
Q 6.796875 41.40625 5.1875 36.453125 
Q 3.59375 31.5 3.59375 25.796875 
z
" id="HelveticaNeue-111"/>
      <path d="M 15.40625 61 
L 15.40625 71.40625 
L 6.90625 71.40625 
L 6.90625 61 
z
M 6.90625 51.703125 
L 6.90625 0 
L 15.40625 0 
L 15.40625 51.703125 
z
" id="HelveticaNeue-105"/>
      <path d="M 6.703125 71.40625 
L 6.703125 0 
L 15.203125 0 
L 15.203125 6.90625 
L 15.40625 6.90625 
Q 16.796875 4.59375 18.84375 3.046875 
Q 20.90625 1.5 23.203125 0.59375 
Q 25.5 -0.296875 27.84375 -0.6875 
Q 30.203125 -1.09375 32.09375 -1.09375 
Q 38 -1.09375 42.453125 1 
Q 46.90625 3.09375 49.84375 6.75 
Q 52.796875 10.40625 54.25 15.296875 
Q 55.703125 20.203125 55.703125 25.703125 
Q 55.703125 31.203125 54.203125 36.09375 
Q 52.703125 41 49.75 44.75 
Q 46.796875 48.5 42.34375 50.703125 
Q 37.90625 52.90625 31.90625 52.90625 
Q 26.5 52.90625 22 50.953125 
Q 17.5 49 15.40625 44.703125 
L 15.203125 44.703125 
L 15.203125 71.40625 
z
M 46.703125 26.296875 
Q 46.703125 22.5 45.890625 18.890625 
Q 45.09375 15.296875 43.296875 12.5 
Q 41.5 9.703125 38.546875 8 
Q 35.59375 6.296875 31.203125 6.296875 
Q 26.796875 6.296875 23.6875 7.9375 
Q 20.59375 9.59375 18.640625 12.296875 
Q 16.703125 15 15.796875 18.546875 
Q 14.90625 22.09375 14.90625 25.90625 
Q 14.90625 29.5 15.75 33 
Q 16.59375 36.5 18.5 39.25 
Q 20.40625 42 23.40625 43.703125 
Q 26.40625 45.40625 30.703125 45.40625 
Q 34.796875 45.40625 37.84375 43.796875 
Q 40.90625 42.203125 42.84375 39.5 
Q 44.796875 36.796875 45.75 33.34375 
Q 46.703125 29.90625 46.703125 26.296875 
z
" id="HelveticaNeue-98"/>
      <path d="M 12.59375 25.796875 
Q 12.59375 30.5 13.84375 34.140625 
Q 15.09375 37.796875 17.296875 40.296875 
Q 19.5 42.796875 22.453125 44.09375 
Q 25.40625 45.40625 28.703125 45.40625 
Q 32 45.40625 34.953125 44.09375 
Q 37.90625 42.796875 40.09375 40.296875 
Q 42.296875 37.796875 43.546875 34.140625 
Q 44.796875 30.5 44.796875 25.796875 
Q 44.796875 21.09375 43.546875 17.4375 
Q 42.296875 13.796875 40.09375 11.34375 
Q 37.90625 8.90625 34.953125 7.59375 
Q 32 6.296875 28.703125 6.296875 
Q 25.40625 6.296875 22.453125 7.59375 
Q 19.5 8.90625 17.296875 11.34375 
Q 15.09375 13.796875 13.84375 17.4375 
Q 12.59375 21.09375 12.59375 25.796875 
z
M 3.59375 25.796875 
Q 3.59375 20.09375 5.1875 15.1875 
Q 6.796875 10.296875 10 6.640625 
Q 13.203125 3 17.890625 0.953125 
Q 22.59375 -1.09375 28.703125 -1.09375 
Q 34.90625 -1.09375 39.546875 0.953125 
Q 44.203125 3 47.390625 6.640625 
Q 50.59375 10.296875 52.1875 15.1875 
Q 53.796875 20.09375 53.796875 25.796875 
Q 53.796875 31.5 52.1875 36.453125 
Q 50.59375 41.40625 47.390625 45.046875 
Q 44.203125 48.703125 39.546875 50.796875 
Q 34.90625 52.90625 28.703125 52.90625 
Q 22.59375 52.90625 17.890625 50.796875 
Q 13.203125 48.703125 10 45.046875 
Q 6.796875 41.40625 5.1875 36.453125 
Q 3.59375 31.5 3.59375 25.796875 
z
M 42.5 77 
L 28.40625 60.796875 
L 22 60.796875 
L 31.59375 77 
z
" id="HelveticaNeue-243"/>
      <path id="HelveticaNeue-32"/>
      <path d="M 7.703125 78.59375 
L 7.703125 -21.296875 
L 14.5 -21.296875 
L 14.5 78.59375 
z
" id="HelveticaNeue-124"/>
      <path d="M 58 49.90625 
L 67.5 49.90625 
Q 66.703125 55.59375 64.09375 59.9375 
Q 61.5 64.296875 57.59375 67.1875 
Q 53.703125 70.09375 48.703125 71.59375 
Q 43.703125 73.09375 38.09375 73.09375 
Q 29.90625 73.09375 23.546875 70.140625 
Q 17.203125 67.203125 12.953125 62.09375 
Q 8.703125 57 6.5 50.140625 
Q 4.296875 43.296875 4.296875 35.5 
Q 4.296875 27.703125 6.34375 20.890625 
Q 8.40625 14.09375 12.5 9.09375 
Q 16.59375 4.09375 22.796875 1.25 
Q 29 -1.59375 37.296875 -1.59375 
Q 51 -1.59375 58.890625 5.90625 
Q 66.796875 13.40625 68.203125 26.90625 
L 58.703125 26.90625 
Q 58.40625 22.5 56.90625 18.703125 
Q 55.40625 14.90625 52.75 12.15625 
Q 50.09375 9.40625 46.4375 7.84375 
Q 42.796875 6.296875 38.09375 6.296875 
Q 31.703125 6.296875 27.09375 8.6875 
Q 22.5 11.09375 19.546875 15.140625 
Q 16.59375 19.203125 15.1875 24.640625 
Q 13.796875 30.09375 13.796875 36.203125 
Q 13.796875 41.796875 15.1875 47 
Q 16.59375 52.203125 19.546875 56.25 
Q 22.5 60.296875 27.046875 62.6875 
Q 31.59375 65.09375 38 65.09375 
Q 45.5 65.09375 50.953125 61.296875 
Q 56.40625 57.5 58 49.90625 
z
" id="HelveticaNeue-67"/>
      <path d="M 11.59375 16.296875 
L 3.09375 16.296875 
Q 3.296875 11.5 5.09375 8.140625 
Q 6.90625 4.796875 9.90625 2.75 
Q 12.90625 0.703125 16.796875 -0.1875 
Q 20.703125 -1.09375 25 -1.09375 
Q 28.90625 -1.09375 32.84375 -0.34375 
Q 36.796875 0.40625 39.9375 2.296875 
Q 43.09375 4.203125 45.046875 7.296875 
Q 47 10.40625 47 15.09375 
Q 47 18.796875 45.546875 21.296875 
Q 44.09375 23.796875 41.75 25.4375 
Q 39.40625 27.09375 36.34375 28.09375 
Q 33.296875 29.09375 30.09375 29.796875 
Q 27.09375 30.5 24.09375 31.140625 
Q 21.09375 31.796875 18.6875 32.75 
Q 16.296875 33.703125 14.75 35.140625 
Q 13.203125 36.59375 13.203125 38.796875 
Q 13.203125 40.796875 14.203125 42.046875 
Q 15.203125 43.296875 16.796875 44.046875 
Q 18.40625 44.796875 20.34375 45.09375 
Q 22.296875 45.40625 24.203125 45.40625 
Q 26.296875 45.40625 28.34375 44.953125 
Q 30.40625 44.5 32.09375 43.5 
Q 33.796875 42.5 34.890625 40.84375 
Q 36 39.203125 36.203125 36.703125 
L 44.703125 36.703125 
Q 44.40625 41.40625 42.703125 44.546875 
Q 41 47.703125 38.140625 49.546875 
Q 35.296875 51.40625 31.59375 52.15625 
Q 27.90625 52.90625 23.5 52.90625 
Q 20.09375 52.90625 16.640625 52.046875 
Q 13.203125 51.203125 10.453125 49.453125 
Q 7.703125 47.703125 5.953125 44.890625 
Q 4.203125 42.09375 4.203125 38.203125 
Q 4.203125 33.203125 6.703125 30.390625 
Q 9.203125 27.59375 12.953125 26.046875 
Q 16.703125 24.5 21.09375 23.640625 
Q 25.5 22.796875 29.25 21.75 
Q 33 20.703125 35.5 19 
Q 38 17.296875 38 14 
Q 38 11.59375 36.796875 10.046875 
Q 35.59375 8.5 33.75 7.703125 
Q 31.90625 6.90625 29.703125 6.59375 
Q 27.5 6.296875 25.5 6.296875 
Q 22.90625 6.296875 20.453125 6.796875 
Q 18 7.296875 16.046875 8.4375 
Q 14.09375 9.59375 12.890625 11.546875 
Q 11.703125 13.5 11.59375 16.296875 
z
" id="HelveticaNeue-115"/>
      <path d="M 29.703125 0 
L 48.59375 51.703125 
L 39.703125 51.703125 
L 25.59375 8.59375 
L 25.40625 8.59375 
L 10.90625 51.703125 
L 1.40625 51.703125 
L 20.59375 0 
z
" id="HelveticaNeue-118"/>
      <path d="M 19.40625 40.59375 
L 19.40625 51.703125 
L 8.296875 51.703125 
L 8.296875 40.59375 
z
M 8.296875 11.09375 
L 8.296875 0 
L 19.40625 0 
L 19.40625 11.09375 
z
" id="HelveticaNeue-58"/>
      <path d="M 5 31.796875 
L 5 23.796875 
L 33.90625 23.796875 
L 33.90625 31.796875 
z
" id="HelveticaNeue-45"/>
      <path d="M 50.90625 62.40625 
L 50.90625 69.703125 
L 5 69.703125 
L 5 61.703125 
L 42.203125 61.703125 
Q 36.59375 55.796875 31.75 48.796875 
Q 26.90625 41.796875 23.203125 33.9375 
Q 19.5 26.09375 17.140625 17.546875 
Q 14.796875 9 14.203125 0 
L 23.703125 0 
Q 24.203125 8.296875 26.5 17.09375 
Q 28.796875 25.90625 32.4375 34.203125 
Q 36.09375 42.5 40.796875 49.796875 
Q 45.5 57.09375 50.90625 62.40625 
z
" id="HelveticaNeue-55"/>
     </defs>
     <use xlink:href="#HelveticaNeue-70"/>
     <use x="57.399994" xlink:href="#HelveticaNeue-111"/>
     <use x="114.799988" xlink:href="#HelveticaNeue-110"/>
     <use x="170.399979" xlink:href="#HelveticaNeue-116"/>
     <use x="201.899963" xlink:href="#HelveticaNeue-105"/>
     <use x="224.09996" xlink:href="#HelveticaNeue-98"/>
     <use x="283.399948" xlink:href="#HelveticaNeue-243"/>
     <use x="340.799942" xlink:href="#HelveticaNeue-110"/>
     <use x="396.399933" xlink:href="#HelveticaNeue-32"/>
     <use x="424.199921" xlink:href="#HelveticaNeue-124"/>
     <use x="446.399918" xlink:href="#HelveticaNeue-32"/>
     <use x="474.199905" xlink:href="#HelveticaNeue-67"/>
     <use x="546.399887" xlink:href="#HelveticaNeue-97"/>
     <use x="600.099884" xlink:href="#HelveticaNeue-115"/>
     <use x="650.099869" xlink:href="#HelveticaNeue-111"/>
     <use x="707.499863" xlink:href="#HelveticaNeue-115"/>
     <use x="757.499847" xlink:href="#HelveticaNeue-32"/>
     <use x="785.299835" xlink:href="#HelveticaNeue-110"/>
     <use x="840.899826" xlink:href="#HelveticaNeue-117"/>
     <use x="896.499817" xlink:href="#HelveticaNeue-101"/>
     <use x="950.199814" xlink:href="#HelveticaNeue-118"/>
     <use x="1000.199799" xlink:href="#HelveticaNeue-111"/>
     <use x="1057.599792" xlink:href="#HelveticaNeue-115"/>
     <use x="1107.599777" xlink:href="#HelveticaNeue-58"/>
     <use x="1135.399765" xlink:href="#HelveticaNeue-32"/>
     <use x="1163.199753" xlink:href="#HelveticaNeue-50"/>
     <use x="1218.799744" xlink:href="#HelveticaNeue-48"/>
     <use x="1274.399734" xlink:href="#HelveticaNeue-50"/>
     <use x="1329.999725" xlink:href="#HelveticaNeue-49"/>
     <use x="1385.599716" xlink:href="#HelveticaNeue-45"/>
     <use x="1424.49971" xlink:href="#HelveticaNeue-48"/>
     <use x="1480.099701" xlink:href="#HelveticaNeue-55"/>
     <use x="1535.699692" xlink:href="#HelveticaNeue-45"/>
     <use x="1574.599686" xlink:href="#HelveticaNeue-48"/>
     <use x="1630.199677" xlink:href="#HelveticaNeue-53"/>
    </g>
   </g>
   <g id="legend_1">
    <g id="line2d_28">
     <path d="M 71.5 39.640625 
L 91.5 39.640625 
" style="fill:none;stroke:#000000;stroke-dasharray:1.5,2.475;stroke-dashoffset:0;stroke-opacity:0.5;stroke-width:1.5;"/>
    </g>
    <g id="line2d_29"/>
    <g id="text_16">
     <!-- Actual -->
     <g style="fill:#555555;" transform="translate(99.5 43.140625)scale(0.1 -0.1)">
      <use xlink:href="#HelveticaNeue-65"/>
      <use x="64.799988" xlink:href="#HelveticaNeue-99"/>
      <use x="118.499985" xlink:href="#HelveticaNeue-116"/>
      <use x="149.999969" xlink:href="#HelveticaNeue-117"/>
      <use x="205.59996" xlink:href="#HelveticaNeue-97"/>
      <use x="259.299957" xlink:href="#HelveticaNeue-108"/>
     </g>
    </g>
    <g id="line2d_30">
     <path d="M 71.5 54.310937 
L 91.5 54.310937 
" style="fill:none;stroke:#b3220f;stroke-linecap:square;stroke-width:1.5;"/>
    </g>
    <g id="line2d_31"/>
    <g id="text_17">
     <!-- Promedio semanal (7 das)  -->
     <g style="fill:#555555;" transform="translate(99.5 57.810937)scale(0.1 -0.1)">
      <defs>
       <path d="M 17.296875 37.203125 
L 17.296875 63.40625 
L 35.90625 63.40625 
Q 44 63.40625 47.75 60.046875 
Q 51.5 56.703125 51.5 50.296875 
Q 51.5 43.90625 47.75 40.5 
Q 44 37.09375 35.90625 37.203125 
z
M 7.796875 71.40625 
L 7.796875 0 
L 17.296875 0 
L 17.296875 29.203125 
L 39.09375 29.203125 
Q 49.90625 29.09375 55.453125 34.6875 
Q 61 40.296875 61 50.296875 
Q 61 60.296875 55.453125 65.84375 
Q 49.90625 71.40625 39.09375 71.40625 
z
" id="HelveticaNeue-80"/>
       <path d="M 6.40625 51.703125 
L 6.40625 0 
L 14.90625 0 
L 14.90625 32.203125 
Q 14.90625 33.703125 15.65625 35.953125 
Q 16.40625 38.203125 18.046875 40.296875 
Q 19.703125 42.40625 22.34375 43.90625 
Q 25 45.40625 28.703125 45.40625 
Q 31.59375 45.40625 33.4375 44.546875 
Q 35.296875 43.703125 36.390625 42.140625 
Q 37.5 40.59375 37.953125 38.5 
Q 38.40625 36.40625 38.40625 33.90625 
L 38.40625 0 
L 46.90625 0 
L 46.90625 32.203125 
Q 46.90625 38.203125 50.5 41.796875 
Q 54.09375 45.40625 60.40625 45.40625 
Q 63.5 45.40625 65.453125 44.5 
Q 67.40625 43.59375 68.5 42.046875 
Q 69.59375 40.5 70 38.390625 
Q 70.40625 36.296875 70.40625 33.90625 
L 70.40625 0 
L 78.90625 0 
L 78.90625 37.90625 
Q 78.90625 41.90625 77.65625 44.75 
Q 76.40625 47.59375 74.15625 49.390625 
Q 71.90625 51.203125 68.75 52.046875 
Q 65.59375 52.90625 61.703125 52.90625 
Q 56.59375 52.90625 52.34375 50.59375 
Q 48.09375 48.296875 45.5 44.09375 
Q 43.90625 48.90625 40 50.90625 
Q 36.09375 52.90625 31.296875 52.90625 
Q 20.40625 52.90625 14.59375 44.09375 
L 14.40625 44.09375 
L 14.40625 51.703125 
z
" id="HelveticaNeue-109"/>
       <path d="M 12.59375 25.40625 
Q 12.59375 29.203125 13.390625 32.796875 
Q 14.203125 36.40625 16 39.203125 
Q 17.796875 42 20.796875 43.703125 
Q 23.796875 45.40625 28.09375 45.40625 
Q 32.5 45.40625 35.59375 43.75 
Q 38.703125 42.09375 40.640625 39.390625 
Q 42.59375 36.703125 43.5 33.140625 
Q 44.40625 29.59375 44.40625 25.796875 
Q 44.40625 22.203125 43.546875 18.703125 
Q 42.703125 15.203125 40.796875 12.453125 
Q 38.90625 9.703125 35.90625 8 
Q 32.90625 6.296875 28.59375 6.296875 
Q 24.5 6.296875 21.453125 7.890625 
Q 18.40625 9.5 16.453125 12.203125 
Q 14.5 14.90625 13.546875 18.34375 
Q 12.59375 21.796875 12.59375 25.40625 
z
M 52.59375 0 
L 52.59375 71.40625 
L 44.09375 71.40625 
L 44.09375 44.796875 
L 43.90625 44.796875 
Q 42.5 47.09375 40.453125 48.640625 
Q 38.40625 50.203125 36.09375 51.140625 
Q 33.796875 52.09375 31.5 52.5 
Q 29.203125 52.90625 27.203125 52.90625 
Q 21.296875 52.90625 16.84375 50.75 
Q 12.40625 48.59375 9.453125 44.9375 
Q 6.5 41.296875 5.046875 36.390625 
Q 3.59375 31.5 3.59375 26 
Q 3.59375 20.5 5.09375 15.59375 
Q 6.59375 10.703125 9.546875 7 
Q 12.5 3.296875 16.953125 1.09375 
Q 21.40625 -1.09375 27.40625 -1.09375 
Q 32.796875 -1.09375 37.296875 0.796875 
Q 41.796875 2.703125 43.90625 7 
L 44.09375 7 
L 44.09375 0 
z
" id="HelveticaNeue-100"/>
       <path d="M 20.40625 -19.703125 
L 26.90625 -19.703125 
Q 19.796875 -8.203125 16.75 3.09375 
Q 13.703125 14.40625 13.703125 27 
Q 13.703125 39.296875 16.703125 50.5 
Q 19.703125 61.703125 26.90625 73.09375 
L 20.40625 73.09375 
Q 12.59375 62.796875 8.640625 50.796875 
Q 4.703125 38.796875 4.703125 27 
Q 4.703125 20.40625 5.796875 14.40625 
Q 6.90625 8.40625 8.953125 2.703125 
Q 11 -3 13.890625 -8.546875 
Q 16.796875 -14.09375 20.40625 -19.703125 
z
" id="HelveticaNeue-40"/>
       <path d="M 6.90625 0 
L 15.40625 0 
L 15.40625 51.703125 
L 6.90625 51.703125 
z
M 25.5 77 
L 11.40625 60.796875 
L 5 60.796875 
L 14.59375 77 
z
" id="HelveticaNeue-237"/>
       <path d="M -0.90625 -19.703125 
L 5.5 -19.703125 
Q 13.296875 -9.40625 17.25 2.546875 
Q 21.203125 14.5 21.203125 26.296875 
Q 21.203125 32.90625 20.09375 38.90625 
Q 19 44.90625 16.953125 50.65625 
Q 14.90625 56.40625 12 61.953125 
Q 9.09375 67.5 5.5 73.09375 
L -0.90625 73.09375 
Q 6.09375 61.59375 9.140625 50.25 
Q 12.203125 38.90625 12.203125 26.296875 
Q 12.203125 14.09375 9.203125 2.84375 
Q 6.203125 -8.40625 -0.90625 -19.703125 
z
" id="HelveticaNeue-41"/>
      </defs>
      <use xlink:href="#HelveticaNeue-80"/>
      <use x="64.799988" xlink:href="#HelveticaNeue-114"/>
      <use x="96.349976" xlink:href="#HelveticaNeue-111"/>
      <use x="153.749969" xlink:href="#HelveticaNeue-109"/>
      <use x="239.049957" xlink:href="#HelveticaNeue-101"/>
      <use x="292.749954" xlink:href="#HelveticaNeue-100"/>
      <use x="352.049942" xlink:href="#HelveticaNeue-105"/>
      <use x="374.249939" xlink:href="#HelveticaNeue-111"/>
      <use x="431.649933" xlink:href="#HelveticaNeue-32"/>
      <use x="459.449921" xlink:href="#HelveticaNeue-115"/>
      <use x="509.449905" xlink:href="#HelveticaNeue-101"/>
      <use x="563.149902" xlink:href="#HelveticaNeue-109"/>
      <use x="648.44989" xlink:href="#HelveticaNeue-97"/>
      <use x="702.149887" xlink:href="#HelveticaNeue-110"/>
      <use x="757.749878" xlink:href="#HelveticaNeue-97"/>
      <use x="811.449875" xlink:href="#HelveticaNeue-108"/>
      <use x="833.649872" xlink:href="#HelveticaNeue-32"/>
      <use x="861.44986" xlink:href="#HelveticaNeue-40"/>
      <use x="887.349854" xlink:href="#HelveticaNeue-55"/>
      <use x="942.949844" xlink:href="#HelveticaNeue-32"/>
      <use x="970.749832" xlink:href="#HelveticaNeue-100"/>
      <use x="1030.04982" xlink:href="#HelveticaNeue-237"/>
      <use x="1052.249817" xlink:href="#HelveticaNeue-97"/>
      <use x="1105.949814" xlink:href="#HelveticaNeue-115"/>
      <use x="1155.949799" xlink:href="#HelveticaNeue-41"/>
      <use x="1181.849792" xlink:href="#HelveticaNeue-32"/>
     </g>
    </g>
   </g>
  </g>
 </g>
 <defs>
  <clipPath id="p4d8ec0fb2d">
   <rect height="235.5" width="387.5" x="62.5" y="27"/>
  </clipPath>
 </defs>
</svg>
