<?xml version="1.0" encoding="utf-8" standalone="no"?>
<!DOCTYPE svg PUBLIC "-//W3C//DTD SVG 1.1//EN"
  "http://www.w3.org/Graphics/SVG/1.1/DTD/svg11.dtd">
<!-- Created with matplotlib (https://matplotlib.org/) -->
<svg height="300pt" version="1.1" viewBox="0 0 500 300" width="500pt" xmlns="http://www.w3.org/2000/svg" xmlns:xlink="http://www.w3.org/1999/xlink">
 <metadata>
  <rdf:RDF xmlns:cc="http://creativecommons.org/ns#" xmlns:dc="http://purl.org/dc/elements/1.1/" xmlns:rdf="http://www.w3.org/1999/02/22-rdf-syntax-ns#">
   <cc:Work>
    <dc:type rdf:resource="http://purl.org/dc/dcmitype/StillImage"/>
    <dc:date>2021-06-06T15:19:24.064305</dc:date>
    <dc:format>image/svg+xml</dc:format>
    <dc:creator>
     <cc:Agent>
      <dc:title>Matplotlib v3.3.4, https://matplotlib.org/</dc:title>
     </cc:Agent>
    </dc:creator>
   </cc:Work>
  </rdf:RDF>
 </metadata>
 <defs>
  <style type="text/css">*{stroke-linecap:butt;stroke-linejoin:round;}</style>
 </defs>
 <g id="figure_1">
  <g id="patch_1">
   <path d="M 0 300 
L 500 300 
L 500 0 
L 0 0 
z
" style="fill:#ffffff;"/>
  </g>
  <g id="axes_1">
   <g id="patch_2">
    <path d="M 62.5 262.5 
L 450 262.5 
L 450 27 
L 62.5 27 
z
" style="fill:#ffffff;"/>
   </g>
   <g id="matplotlib.axis_1">
    <g id="xtick_1">
     <g id="line2d_1">
      <defs>
       <path d="M 0 0 
L 0 3.5 
" id="m2cc69e5499" style="stroke:#555555;stroke-width:0.8;"/>
      </defs>
      <g>
       <use style="fill:#555555;stroke:#555555;stroke-width:0.8;" x="62.5" xlink:href="#m2cc69e5499" y="262.5"/>
      </g>
     </g>
    </g>
    <g id="xtick_2">
     <g id="line2d_2">
      <g>
       <use style="fill:#555555;stroke:#555555;stroke-width:0.8;" x="71.326879" xlink:href="#m2cc69e5499" y="262.5"/>
      </g>
     </g>
     <g id="text_1">
      <!-- Apr -->
      <g style="fill:#555555;" transform="translate(63.457348 276.640625)scale(0.1 -0.1)">
       <defs>
        <path d="M 20.09375 29.5 
L 32.203125 62.796875 
L 32.40625 62.796875 
L 44.296875 29.5 
z
M 27.203125 71.40625 
L -0.59375 0 
L 9.09375 0 
L 17.09375 21.5 
L 47.296875 21.5 
L 55.09375 0 
L 65.59375 0 
L 37.703125 71.40625 
z
" id="HelveticaNeue-65"/>
        <path d="M 6.703125 51.703125 
L 6.703125 -19.703125 
L 15.203125 -19.703125 
L 15.203125 6.90625 
L 15.40625 6.90625 
Q 16.796875 4.59375 18.84375 3.046875 
Q 20.90625 1.5 23.203125 0.59375 
Q 25.5 -0.296875 27.84375 -0.6875 
Q 30.203125 -1.09375 32.09375 -1.09375 
Q 38 -1.09375 42.453125 1 
Q 46.90625 3.09375 49.84375 6.75 
Q 52.796875 10.40625 54.25 15.296875 
Q 55.703125 20.203125 55.703125 25.703125 
Q 55.703125 31.203125 54.203125 36.09375 
Q 52.703125 41 49.75 44.75 
Q 46.796875 48.5 42.34375 50.703125 
Q 37.90625 52.90625 31.90625 52.90625 
Q 26.5 52.90625 22 50.953125 
Q 17.5 49 15.40625 44.703125 
L 15.203125 44.703125 
L 15.203125 51.703125 
z
M 46.703125 26.296875 
Q 46.703125 22.5 45.890625 18.890625 
Q 45.09375 15.296875 43.296875 12.5 
Q 41.5 9.703125 38.546875 8 
Q 35.59375 6.296875 31.203125 6.296875 
Q 26.796875 6.296875 23.6875 7.9375 
Q 20.59375 9.59375 18.640625 12.296875 
Q 16.703125 15 15.796875 18.546875 
Q 14.90625 22.09375 14.90625 25.90625 
Q 14.90625 29.5 15.75 33 
Q 16.59375 36.5 18.5 39.25 
Q 20.40625 42 23.40625 43.703125 
Q 26.40625 45.40625 30.703125 45.40625 
Q 34.796875 45.40625 37.84375 43.796875 
Q 40.90625 42.203125 42.84375 39.5 
Q 44.796875 36.796875 45.75 33.34375 
Q 46.703125 29.90625 46.703125 26.296875 
z
" id="HelveticaNeue-112"/>
        <path d="M 6.09375 51.703125 
L 6.09375 0 
L 14.59375 0 
L 14.59375 23 
Q 14.59375 28 15.59375 31.84375 
Q 16.59375 35.703125 18.796875 38.390625 
Q 21 41.09375 24.59375 42.5 
Q 28.203125 43.90625 33.296875 43.90625 
L 33.296875 52.90625 
Q 26.40625 53.09375 21.90625 50.09375 
Q 17.40625 47.09375 14.296875 40.796875 
L 14.09375 40.796875 
L 14.09375 51.703125 
z
" id="HelveticaNeue-114"/>
       </defs>
       <use xlink:href="#HelveticaNeue-65"/>
       <use x="64.799988" xlink:href="#HelveticaNeue-112"/>
       <use x="124.099976" xlink:href="#HelveticaNeue-114"/>
      </g>
     </g>
    </g>
    <g id="xtick_3">
     <g id="line2d_3">
      <g>
       <use style="fill:#555555;stroke:#555555;stroke-width:0.8;" x="151.651481" xlink:href="#m2cc69e5499" y="262.5"/>
      </g>
     </g>
     <g id="text_2">
      <!-- Jul -->
      <g style="fill:#555555;" transform="translate(145.166324 276.640625)scale(0.1 -0.1)">
       <defs>
        <path d="M 44.09375 17.796875 
L 44.09375 71.40625 
L 34.59375 71.40625 
L 34.59375 19.203125 
Q 34.59375 13.296875 32.140625 9.796875 
Q 29.703125 6.296875 23.203125 6.296875 
Q 19.703125 6.296875 17.453125 7.34375 
Q 15.203125 8.40625 13.953125 10.296875 
Q 12.703125 12.203125 12.203125 14.796875 
Q 11.703125 17.40625 11.703125 20.5 
L 11.703125 23.5 
L 2.203125 23.5 
L 2.203125 19.09375 
Q 2.203125 8.90625 7.59375 3.65625 
Q 13 -1.59375 23 -1.59375 
Q 29 -1.59375 33.046875 0.046875 
Q 37.09375 1.703125 39.546875 4.453125 
Q 42 7.203125 43.046875 10.703125 
Q 44.09375 14.203125 44.09375 17.796875 
z
" id="HelveticaNeue-74"/>
        <path d="M 49.203125 0 
L 49.203125 51.703125 
L 40.703125 51.703125 
L 40.703125 22.5 
Q 40.703125 19 39.75 16.046875 
Q 38.796875 13.09375 36.890625 10.890625 
Q 35 8.703125 32.140625 7.5 
Q 29.296875 6.296875 25.40625 6.296875 
Q 20.5 6.296875 17.703125 9.09375 
Q 14.90625 11.90625 14.90625 16.703125 
L 14.90625 51.703125 
L 6.40625 51.703125 
L 6.40625 17.703125 
Q 6.40625 13.5 7.25 10.046875 
Q 8.09375 6.59375 10.1875 4.09375 
Q 12.296875 1.59375 15.6875 0.25 
Q 19.09375 -1.09375 24.203125 -1.09375 
Q 29.90625 -1.09375 34.09375 1.15625 
Q 38.296875 3.40625 41 8.203125 
L 41.203125 8.203125 
L 41.203125 0 
z
" id="HelveticaNeue-117"/>
        <path d="M 6.90625 71.40625 
L 6.90625 0 
L 15.40625 0 
L 15.40625 71.40625 
z
" id="HelveticaNeue-108"/>
       </defs>
       <use xlink:href="#HelveticaNeue-74"/>
       <use x="51.899994" xlink:href="#HelveticaNeue-117"/>
       <use x="107.499985" xlink:href="#HelveticaNeue-108"/>
      </g>
     </g>
    </g>
    <g id="xtick_4">
     <g id="line2d_4">
      <g>
       <use style="fill:#555555;stroke:#555555;stroke-width:0.8;" x="232.85877" xlink:href="#m2cc69e5499" y="262.5"/>
      </g>
     </g>
     <g id="text_3">
      <!-- Oct -->
      <g style="fill:#555555;" transform="translate(224.798614 276.640625)scale(0.1 -0.1)">
       <defs>
        <path d="M 13.296875 35.703125 
Q 13.296875 41.09375 14.6875 46.34375 
Q 16.09375 51.59375 19.09375 55.796875 
Q 22.09375 60 26.796875 62.546875 
Q 31.5 65.09375 38 65.09375 
Q 44.5 65.09375 49.203125 62.546875 
Q 53.90625 60 56.90625 55.796875 
Q 59.90625 51.59375 61.296875 46.34375 
Q 62.703125 41.09375 62.703125 35.703125 
Q 62.703125 30.296875 61.296875 25.046875 
Q 59.90625 19.796875 56.90625 15.59375 
Q 53.90625 11.40625 49.203125 8.84375 
Q 44.5 6.296875 38 6.296875 
Q 31.5 6.296875 26.796875 8.84375 
Q 22.09375 11.40625 19.09375 15.59375 
Q 16.09375 19.796875 14.6875 25.046875 
Q 13.296875 30.296875 13.296875 35.703125 
z
M 3.796875 35.703125 
Q 3.796875 28.40625 5.9375 21.65625 
Q 8.09375 14.90625 12.390625 9.703125 
Q 16.703125 4.5 23.09375 1.453125 
Q 29.5 -1.59375 38 -1.59375 
Q 46.5 -1.59375 52.890625 1.453125 
Q 59.296875 4.5 63.59375 9.703125 
Q 67.90625 14.90625 70.046875 21.65625 
Q 72.203125 28.40625 72.203125 35.703125 
Q 72.203125 43 70.046875 49.75 
Q 67.90625 56.5 63.59375 61.703125 
Q 59.296875 66.90625 52.890625 70 
Q 46.5 73.09375 38 73.09375 
Q 29.5 73.09375 23.09375 70 
Q 16.703125 66.90625 12.390625 61.703125 
Q 8.09375 56.5 5.9375 49.75 
Q 3.796875 43 3.796875 35.703125 
z
" id="HelveticaNeue-79"/>
        <path d="M 41.5 35.09375 
L 50.296875 35.09375 
Q 49.796875 39.703125 47.890625 43.046875 
Q 46 46.40625 43.046875 48.59375 
Q 40.09375 50.796875 36.25 51.84375 
Q 32.40625 52.90625 28 52.90625 
Q 21.90625 52.90625 17.296875 50.75 
Q 12.703125 48.59375 9.640625 44.84375 
Q 6.59375 41.09375 5.09375 36.046875 
Q 3.59375 31 3.59375 25.203125 
Q 3.59375 19.40625 5.140625 14.546875 
Q 6.703125 9.703125 9.75 6.203125 
Q 12.796875 2.703125 17.34375 0.796875 
Q 21.90625 -1.09375 27.796875 -1.09375 
Q 37.703125 -1.09375 43.453125 4.09375 
Q 49.203125 9.296875 50.59375 18.90625 
L 41.90625 18.90625 
Q 41.09375 12.90625 37.546875 9.59375 
Q 34 6.296875 27.703125 6.296875 
Q 23.703125 6.296875 20.796875 7.890625 
Q 17.90625 9.5 16.09375 12.140625 
Q 14.296875 14.796875 13.4375 18.1875 
Q 12.59375 21.59375 12.59375 25.203125 
Q 12.59375 29.09375 13.390625 32.75 
Q 14.203125 36.40625 16.046875 39.203125 
Q 17.90625 42 21 43.703125 
Q 24.09375 45.40625 28.703125 45.40625 
Q 34.09375 45.40625 37.296875 42.703125 
Q 40.5 40 41.5 35.09375 
z
" id="HelveticaNeue-99"/>
        <path d="M 18.203125 51.703125 
L 18.203125 67.203125 
L 9.703125 67.203125 
L 9.703125 51.703125 
L 0.90625 51.703125 
L 0.90625 44.203125 
L 9.703125 44.203125 
L 9.703125 11.296875 
Q 9.703125 7.703125 10.390625 5.5 
Q 11.09375 3.296875 12.546875 2.09375 
Q 14 0.90625 16.34375 0.453125 
Q 18.703125 0 22 0 
L 28.5 0 
L 28.5 7.5 
L 24.59375 7.5 
Q 22.59375 7.5 21.34375 7.640625 
Q 20.09375 7.796875 19.390625 8.296875 
Q 18.703125 8.796875 18.453125 9.6875 
Q 18.203125 10.59375 18.203125 12.09375 
L 18.203125 44.203125 
L 28.5 44.203125 
L 28.5 51.703125 
z
" id="HelveticaNeue-116"/>
       </defs>
       <use xlink:href="#HelveticaNeue-79"/>
       <use x="75.999985" xlink:href="#HelveticaNeue-99"/>
       <use x="129.699982" xlink:href="#HelveticaNeue-116"/>
      </g>
     </g>
    </g>
    <g id="xtick_5">
     <g id="line2d_5">
      <g>
       <use style="fill:#555555;stroke:#555555;stroke-width:0.8;" x="314.066059" xlink:href="#m2cc69e5499" y="262.5"/>
      </g>
     </g>
     <g id="text_4">
      <!-- Jan -->
      <g style="fill:#555555;" transform="translate(306.005903 276.640625)scale(0.1 -0.1)">
       <defs>
        <path d="M 52.203125 0.203125 
Q 50 -1.09375 46.09375 -1.09375 
Q 42.796875 -1.09375 40.84375 0.75 
Q 38.90625 2.59375 38.90625 6.796875 
Q 35.40625 2.59375 30.75 0.75 
Q 26.09375 -1.09375 20.703125 -1.09375 
Q 17.203125 -1.09375 14.046875 -0.296875 
Q 10.90625 0.5 8.59375 2.203125 
Q 6.296875 3.90625 4.9375 6.65625 
Q 3.59375 9.40625 3.59375 13.296875 
Q 3.59375 17.703125 5.09375 20.5 
Q 6.59375 23.296875 9.046875 25.046875 
Q 11.5 26.796875 14.640625 27.6875 
Q 17.796875 28.59375 21.09375 29.203125 
Q 24.59375 29.90625 27.75 30.25 
Q 30.90625 30.59375 33.296875 31.25 
Q 35.703125 31.90625 37.09375 33.15625 
Q 38.5 34.40625 38.5 36.796875 
Q 38.5 39.59375 37.453125 41.296875 
Q 36.40625 43 34.75 43.890625 
Q 33.09375 44.796875 31.046875 45.09375 
Q 29 45.40625 27 45.40625 
Q 21.59375 45.40625 18 43.34375 
Q 14.40625 41.296875 14.09375 35.59375 
L 5.59375 35.59375 
Q 5.796875 40.40625 7.59375 43.703125 
Q 9.40625 47 12.40625 49.046875 
Q 15.40625 51.09375 19.25 52 
Q 23.09375 52.90625 27.5 52.90625 
Q 31 52.90625 34.453125 52.40625 
Q 37.90625 51.90625 40.703125 50.34375 
Q 43.5 48.796875 45.203125 46 
Q 46.90625 43.203125 46.90625 38.703125 
L 46.90625 12.09375 
Q 46.90625 9.09375 47.25 7.6875 
Q 47.59375 6.296875 49.59375 6.296875 
Q 50.703125 6.296875 52.203125 6.796875 
z
M 38.40625 26.703125 
Q 36.796875 25.5 34.1875 24.953125 
Q 31.59375 24.40625 28.75 24.046875 
Q 25.90625 23.703125 23 23.25 
Q 20.09375 22.796875 17.796875 21.796875 
Q 15.5 20.796875 14.046875 18.9375 
Q 12.59375 17.09375 12.59375 13.90625 
Q 12.59375 11.796875 13.4375 10.34375 
Q 14.296875 8.90625 15.640625 8 
Q 17 7.09375 18.796875 6.6875 
Q 20.59375 6.296875 22.59375 6.296875 
Q 26.796875 6.296875 29.796875 7.4375 
Q 32.796875 8.59375 34.6875 10.34375 
Q 36.59375 12.09375 37.5 14.140625 
Q 38.40625 16.203125 38.40625 18 
z
" id="HelveticaNeue-97"/>
        <path d="M 6.40625 51.703125 
L 6.40625 0 
L 14.90625 0 
L 14.90625 29.203125 
Q 14.90625 32.703125 15.84375 35.640625 
Q 16.796875 38.59375 18.6875 40.796875 
Q 20.59375 43 23.4375 44.203125 
Q 26.296875 45.40625 30.203125 45.40625 
Q 35.09375 45.40625 37.890625 42.59375 
Q 40.703125 39.796875 40.703125 35 
L 40.703125 0 
L 49.203125 0 
L 49.203125 34 
Q 49.203125 38.203125 48.34375 41.640625 
Q 47.5 45.09375 45.390625 47.59375 
Q 43.296875 50.09375 39.890625 51.5 
Q 36.5 52.90625 31.40625 52.90625 
Q 19.90625 52.90625 14.59375 43.5 
L 14.40625 43.5 
L 14.40625 51.703125 
z
" id="HelveticaNeue-110"/>
       </defs>
       <use xlink:href="#HelveticaNeue-74"/>
       <use x="51.899994" xlink:href="#HelveticaNeue-97"/>
       <use x="105.599991" xlink:href="#HelveticaNeue-110"/>
      </g>
      <!-- 2021 -->
      <g style="fill:#555555;" transform="translate(302.947309 287.179688)scale(0.1 -0.1)">
       <defs>
        <path d="M 4.40625 45.796875 
L 12.90625 45.796875 
Q 12.796875 49 13.546875 52.140625 
Q 14.296875 55.296875 16 57.796875 
Q 17.703125 60.296875 20.34375 61.84375 
Q 23 63.40625 26.703125 63.40625 
Q 29.5 63.40625 32 62.5 
Q 34.5 61.59375 36.34375 59.890625 
Q 38.203125 58.203125 39.296875 55.84375 
Q 40.40625 53.5 40.40625 50.59375 
Q 40.40625 46.90625 39.25 44.09375 
Q 38.09375 41.296875 35.84375 38.890625 
Q 33.59375 36.5 30.1875 34.140625 
Q 26.796875 31.796875 22.296875 29 
Q 18.59375 26.796875 15.1875 24.296875 
Q 11.796875 21.796875 9.09375 18.5 
Q 6.40625 15.203125 4.65625 10.75 
Q 2.90625 6.296875 2.40625 0 
L 48.703125 0 
L 48.703125 7.5 
L 12.296875 7.5 
Q 12.90625 10.796875 14.84375 13.34375 
Q 16.796875 15.90625 19.546875 18.09375 
Q 22.296875 20.296875 25.59375 22.25 
Q 28.90625 24.203125 32.203125 26.203125 
Q 35.5 28.296875 38.59375 30.59375 
Q 41.703125 32.90625 44.09375 35.75 
Q 46.5 38.59375 47.953125 42.1875 
Q 49.40625 45.796875 49.40625 50.5 
Q 49.40625 55.5 47.65625 59.296875 
Q 45.90625 63.09375 42.90625 65.640625 
Q 39.90625 68.203125 35.84375 69.546875 
Q 31.796875 70.90625 27.203125 70.90625 
Q 21.59375 70.90625 17.1875 69 
Q 12.796875 67.09375 9.84375 63.75 
Q 6.90625 60.40625 5.5 55.796875 
Q 4.09375 51.203125 4.40625 45.796875 
z
" id="HelveticaNeue-50"/>
        <path d="M 13.203125 34.90625 
Q 13.203125 37.5 13.25 40.640625 
Q 13.296875 43.796875 13.75 46.9375 
Q 14.203125 50.09375 15.046875 53.09375 
Q 15.90625 56.09375 17.546875 58.34375 
Q 19.203125 60.59375 21.703125 62 
Q 24.203125 63.40625 27.796875 63.40625 
Q 31.40625 63.40625 33.90625 62 
Q 36.40625 60.59375 38.046875 58.34375 
Q 39.703125 56.09375 40.546875 53.09375 
Q 41.40625 50.09375 41.84375 46.9375 
Q 42.296875 43.796875 42.34375 40.640625 
Q 42.40625 37.5 42.40625 34.90625 
Q 42.40625 30.90625 42.15625 25.953125 
Q 41.90625 21 40.546875 16.640625 
Q 39.203125 12.296875 36.203125 9.296875 
Q 33.203125 6.296875 27.796875 6.296875 
Q 22.40625 6.296875 19.40625 9.296875 
Q 16.40625 12.296875 15.046875 16.640625 
Q 13.703125 21 13.453125 25.953125 
Q 13.203125 30.90625 13.203125 34.90625 
z
M 4.203125 34.796875 
Q 4.203125 30.90625 4.390625 26.703125 
Q 4.59375 22.5 5.390625 18.5 
Q 6.203125 14.5 7.703125 10.953125 
Q 9.203125 7.40625 11.796875 4.703125 
Q 14.40625 2 18.34375 0.453125 
Q 22.296875 -1.09375 27.796875 -1.09375 
Q 33.40625 -1.09375 37.296875 0.453125 
Q 41.203125 2 43.796875 4.703125 
Q 46.40625 7.40625 47.90625 10.953125 
Q 49.40625 14.5 50.203125 18.5 
Q 51 22.5 51.203125 26.703125 
Q 51.40625 30.90625 51.40625 34.796875 
Q 51.40625 38.703125 51.203125 42.890625 
Q 51 47.09375 50.203125 51.09375 
Q 49.40625 55.09375 47.90625 58.6875 
Q 46.40625 62.296875 43.796875 65 
Q 41.203125 67.703125 37.25 69.296875 
Q 33.296875 70.90625 27.796875 70.90625 
Q 22.296875 70.90625 18.34375 69.296875 
Q 14.40625 67.703125 11.796875 65 
Q 9.203125 62.296875 7.703125 58.6875 
Q 6.203125 55.09375 5.390625 51.09375 
Q 4.59375 47.09375 4.390625 42.890625 
Q 4.203125 38.703125 4.203125 34.796875 
z
" id="HelveticaNeue-48"/>
        <path d="M 35.59375 0 
L 35.59375 70.90625 
L 29.09375 70.90625 
Q 28.40625 66.90625 26.5 64.296875 
Q 24.59375 61.703125 21.84375 60.203125 
Q 19.09375 58.703125 15.6875 58.140625 
Q 12.296875 57.59375 8.703125 57.59375 
L 8.703125 50.796875 
L 27.09375 50.796875 
L 27.09375 0 
z
" id="HelveticaNeue-49"/>
       </defs>
       <use xlink:href="#HelveticaNeue-50"/>
       <use x="55.599991" xlink:href="#HelveticaNeue-48"/>
       <use x="111.199982" xlink:href="#HelveticaNeue-50"/>
       <use x="166.799973" xlink:href="#HelveticaNeue-49"/>
      </g>
     </g>
    </g>
    <g id="xtick_6">
     <g id="line2d_6">
      <g>
       <use style="fill:#555555;stroke:#555555;stroke-width:0.8;" x="393.507973" xlink:href="#m2cc69e5499" y="262.5"/>
      </g>
     </g>
     <g id="text_5">
      <!-- Apr -->
      <g style="fill:#555555;" transform="translate(385.638441 276.640625)scale(0.1 -0.1)">
       <use xlink:href="#HelveticaNeue-65"/>
       <use x="64.799988" xlink:href="#HelveticaNeue-112"/>
       <use x="124.099976" xlink:href="#HelveticaNeue-114"/>
      </g>
     </g>
    </g>
    <g id="xtick_7">
     <g id="line2d_7">
      <g>
       <use style="fill:#555555;stroke:#555555;stroke-width:0.8;" x="450" xlink:href="#m2cc69e5499" y="262.5"/>
      </g>
     </g>
    </g>
    <g id="xtick_8">
     <g id="line2d_8">
      <defs>
       <path d="M 0 0 
L 0 2 
" id="mee9adfb305" style="stroke:#555555;stroke-width:0.6;"/>
      </defs>
      <g>
       <use style="fill:#555555;stroke:#555555;stroke-width:0.6;" x="97.807517" xlink:href="#mee9adfb305" y="262.5"/>
      </g>
     </g>
    </g>
    <g id="xtick_9">
     <g id="line2d_9">
      <g>
       <use style="fill:#555555;stroke:#555555;stroke-width:0.6;" x="125.170843" xlink:href="#mee9adfb305" y="262.5"/>
      </g>
     </g>
    </g>
    <g id="xtick_10">
     <g id="line2d_10">
      <g>
       <use style="fill:#555555;stroke:#555555;stroke-width:0.6;" x="179.014806" xlink:href="#mee9adfb305" y="262.5"/>
      </g>
     </g>
    </g>
    <g id="xtick_11">
     <g id="line2d_11">
      <g>
       <use style="fill:#555555;stroke:#555555;stroke-width:0.6;" x="206.378132" xlink:href="#mee9adfb305" y="262.5"/>
      </g>
     </g>
    </g>
    <g id="xtick_12">
     <g id="line2d_12">
      <g>
       <use style="fill:#555555;stroke:#555555;stroke-width:0.6;" x="260.222096" xlink:href="#mee9adfb305" y="262.5"/>
      </g>
     </g>
    </g>
    <g id="xtick_13">
     <g id="line2d_13">
      <g>
       <use style="fill:#555555;stroke:#555555;stroke-width:0.6;" x="286.702733" xlink:href="#mee9adfb305" y="262.5"/>
      </g>
     </g>
    </g>
    <g id="xtick_14">
     <g id="line2d_14">
      <g>
       <use style="fill:#555555;stroke:#555555;stroke-width:0.6;" x="341.429385" xlink:href="#mee9adfb305" y="262.5"/>
      </g>
     </g>
    </g>
    <g id="xtick_15">
     <g id="line2d_15">
      <g>
       <use style="fill:#555555;stroke:#555555;stroke-width:0.6;" x="366.144647" xlink:href="#mee9adfb305" y="262.5"/>
      </g>
     </g>
    </g>
    <g id="xtick_16">
     <g id="line2d_16">
      <g>
       <use style="fill:#555555;stroke:#555555;stroke-width:0.6;" x="419.98861" xlink:href="#mee9adfb305" y="262.5"/>
      </g>
     </g>
    </g>
    <g id="xtick_17">
     <g id="line2d_17">
      <g>
       <use style="fill:#555555;stroke:#555555;stroke-width:0.6;" x="447.351936" xlink:href="#mee9adfb305" y="262.5"/>
      </g>
     </g>
    </g>
    <g id="text_6">
     <!-- fecha -->
     <g style="fill:#555555;" transform="translate(243.935156 300.290625)scale(0.1 -0.1)">
      <defs>
       <path d="M 9.90625 44.203125 
L 9.90625 0 
L 18.40625 0 
L 18.40625 44.203125 
L 28.40625 44.203125 
L 28.40625 51.703125 
L 18.40625 51.703125 
L 18.40625 58.90625 
Q 18.40625 62.296875 20.09375 63.5 
Q 21.796875 64.703125 24.90625 64.703125 
Q 26 64.703125 27.296875 64.546875 
Q 28.59375 64.40625 29.703125 64 
L 29.703125 71.40625 
Q 28.5 71.796875 26.953125 72 
Q 25.40625 72.203125 24.203125 72.203125 
Q 17.203125 72.203125 13.546875 68.953125 
Q 9.90625 65.703125 9.90625 59.40625 
L 9.90625 51.703125 
L 1.203125 51.703125 
L 1.203125 44.203125 
z
" id="HelveticaNeue-102"/>
       <path d="M 42.296875 30.796875 
L 12.59375 30.796875 
Q 12.796875 33.796875 13.890625 36.4375 
Q 15 39.09375 16.890625 41.09375 
Q 18.796875 43.09375 21.4375 44.25 
Q 24.09375 45.40625 27.40625 45.40625 
Q 30.59375 45.40625 33.25 44.25 
Q 35.90625 43.09375 37.84375 41.140625 
Q 39.796875 39.203125 40.9375 36.5 
Q 42.09375 33.796875 42.296875 30.796875 
z
M 50.5 16.40625 
L 42.09375 16.40625 
Q 41 11.296875 37.546875 8.796875 
Q 34.09375 6.296875 28.703125 6.296875 
Q 24.5 6.296875 21.390625 7.6875 
Q 18.296875 9.09375 16.296875 11.4375 
Q 14.296875 13.796875 13.390625 16.84375 
Q 12.5 19.90625 12.59375 23.296875 
L 51.296875 23.296875 
Q 51.5 28 50.453125 33.203125 
Q 49.40625 38.40625 46.65625 42.796875 
Q 43.90625 47.203125 39.34375 50.046875 
Q 34.796875 52.90625 27.90625 52.90625 
Q 22.59375 52.90625 18.140625 50.90625 
Q 13.703125 48.90625 10.453125 45.296875 
Q 7.203125 41.703125 5.390625 36.796875 
Q 3.59375 31.90625 3.59375 26 
Q 3.796875 20.09375 5.34375 15.09375 
Q 6.90625 10.09375 10 6.5 
Q 13.09375 2.90625 17.640625 0.90625 
Q 22.203125 -1.09375 28.40625 -1.09375 
Q 37.203125 -1.09375 43 3.296875 
Q 48.796875 7.703125 50.5 16.40625 
z
" id="HelveticaNeue-101"/>
       <path d="M 6.40625 71.40625 
L 6.40625 0 
L 14.90625 0 
L 14.90625 29.203125 
Q 14.90625 32.703125 15.84375 35.640625 
Q 16.796875 38.59375 18.6875 40.796875 
Q 20.59375 43 23.4375 44.203125 
Q 26.296875 45.40625 30.203125 45.40625 
Q 35.09375 45.40625 37.890625 42.59375 
Q 40.703125 39.796875 40.703125 35 
L 40.703125 0 
L 49.203125 0 
L 49.203125 34 
Q 49.203125 38.203125 48.34375 41.640625 
Q 47.5 45.09375 45.390625 47.59375 
Q 43.296875 50.09375 39.890625 51.5 
Q 36.5 52.90625 31.40625 52.90625 
Q 29.09375 52.90625 26.640625 52.40625 
Q 24.203125 51.90625 21.953125 50.84375 
Q 19.703125 49.796875 17.890625 48.140625 
Q 16.09375 46.5 15.09375 44.09375 
L 14.90625 44.09375 
L 14.90625 71.40625 
z
" id="HelveticaNeue-104"/>
      </defs>
      <use xlink:href="#HelveticaNeue-102"/>
      <use x="29.599991" xlink:href="#HelveticaNeue-101"/>
      <use x="83.299988" xlink:href="#HelveticaNeue-99"/>
      <use x="136.999985" xlink:href="#HelveticaNeue-104"/>
      <use x="192.599976" xlink:href="#HelveticaNeue-97"/>
     </g>
    </g>
   </g>
   <g id="matplotlib.axis_2">
    <g id="ytick_1">
     <g id="line2d_18">
      <defs>
       <path d="M 0 0 
L -3.5 0 
" id="mfa05a0f29c" style="stroke:#555555;stroke-width:0.8;"/>
      </defs>
      <g>
       <use style="fill:#555555;stroke:#555555;stroke-width:0.8;" x="62.5" xlink:href="#mfa05a0f29c" y="251.795455"/>
      </g>
     </g>
     <g id="text_7">
      <!-- 0 -->
      <g style="fill:#555555;" transform="translate(49.940625 255.365767)scale(0.1 -0.1)">
       <use xlink:href="#HelveticaNeue-48"/>
      </g>
     </g>
    </g>
    <g id="ytick_2">
     <g id="line2d_19">
      <g>
       <use style="fill:#555555;stroke:#555555;stroke-width:0.8;" x="62.5" xlink:href="#mfa05a0f29c" y="209.3171"/>
      </g>
     </g>
     <g id="text_8">
      <!-- 100 -->
      <g style="fill:#555555;" transform="translate(38.821875 212.887412)scale(0.1 -0.1)">
       <use xlink:href="#HelveticaNeue-49"/>
       <use x="55.599991" xlink:href="#HelveticaNeue-48"/>
       <use x="111.199982" xlink:href="#HelveticaNeue-48"/>
      </g>
     </g>
    </g>
    <g id="ytick_3">
     <g id="line2d_20">
      <g>
       <use style="fill:#555555;stroke:#555555;stroke-width:0.8;" x="62.5" xlink:href="#mfa05a0f29c" y="166.838745"/>
      </g>
     </g>
     <g id="text_9">
      <!-- 200 -->
      <g style="fill:#555555;" transform="translate(38.821875 170.409057)scale(0.1 -0.1)">
       <use xlink:href="#HelveticaNeue-50"/>
       <use x="55.599991" xlink:href="#HelveticaNeue-48"/>
       <use x="111.199982" xlink:href="#HelveticaNeue-48"/>
      </g>
     </g>
    </g>
    <g id="ytick_4">
     <g id="line2d_21">
      <g>
       <use style="fill:#555555;stroke:#555555;stroke-width:0.8;" x="62.5" xlink:href="#mfa05a0f29c" y="124.36039"/>
      </g>
     </g>
     <g id="text_10">
      <!-- 300 -->
      <g style="fill:#555555;" transform="translate(38.821875 127.930702)scale(0.1 -0.1)">
       <defs>
        <path d="M 21.796875 40.5 
L 21.796875 33.296875 
Q 24.203125 33.59375 26.90625 33.59375 
Q 30.09375 33.59375 32.84375 32.75 
Q 35.59375 31.90625 37.59375 30.15625 
Q 39.59375 28.40625 40.796875 25.84375 
Q 42 23.296875 42 20 
Q 42 16.796875 40.75 14.25 
Q 39.5 11.703125 37.390625 9.953125 
Q 35.296875 8.203125 32.5 7.25 
Q 29.703125 6.296875 26.59375 6.296875 
Q 19.296875 6.296875 15.5 10.640625 
Q 11.703125 15 11.5 21.90625 
L 3 21.90625 
Q 2.90625 16.40625 4.546875 12.09375 
Q 6.203125 7.796875 9.296875 4.84375 
Q 12.40625 1.90625 16.796875 0.40625 
Q 21.203125 -1.09375 26.59375 -1.09375 
Q 31.59375 -1.09375 36.046875 0.25 
Q 40.5 1.59375 43.796875 4.296875 
Q 47.09375 7 49.046875 11.046875 
Q 51 15.09375 51 20.40625 
Q 51 26.796875 47.84375 31.5 
Q 44.703125 36.203125 38.203125 37.59375 
L 38.203125 37.796875 
Q 42.40625 39.703125 45.203125 43.390625 
Q 48 47.09375 48 51.90625 
Q 48 56.796875 46.34375 60.390625 
Q 44.703125 64 41.796875 66.296875 
Q 38.90625 68.59375 34.953125 69.75 
Q 31 70.90625 26.40625 70.90625 
Q 21.09375 70.90625 17.046875 69.203125 
Q 13 67.5 10.296875 64.5 
Q 7.59375 61.5 6.140625 57.296875 
Q 4.703125 53.09375 4.5 48 
L 13 48 
Q 13 51.09375 13.796875 53.890625 
Q 14.59375 56.703125 16.25 58.796875 
Q 17.90625 60.90625 20.453125 62.15625 
Q 23 63.40625 26.40625 63.40625 
Q 31.796875 63.40625 35.390625 60.546875 
Q 39 57.703125 39 52 
Q 39 49.203125 37.890625 47 
Q 36.796875 44.796875 34.9375 43.34375 
Q 33.09375 41.90625 30.640625 41.15625 
Q 28.203125 40.40625 25.5 40.40625 
L 23.703125 40.40625 
Q 23.203125 40.40625 22.703125 40.40625 
Q 22.296875 40.40625 21.796875 40.5 
z
" id="HelveticaNeue-51"/>
       </defs>
       <use xlink:href="#HelveticaNeue-51"/>
       <use x="55.599991" xlink:href="#HelveticaNeue-48"/>
       <use x="111.199982" xlink:href="#HelveticaNeue-48"/>
      </g>
     </g>
    </g>
    <g id="ytick_5">
     <g id="line2d_22">
      <g>
       <use style="fill:#555555;stroke:#555555;stroke-width:0.8;" x="62.5" xlink:href="#mfa05a0f29c" y="81.882035"/>
      </g>
     </g>
     <g id="text_11">
      <!-- 400 -->
      <g style="fill:#555555;" transform="translate(38.821875 85.452347)scale(0.1 -0.1)">
       <defs>
        <path d="M 33.90625 24.09375 
L 10.09375 24.09375 
L 33.703125 58.796875 
L 33.90625 58.796875 
z
M 41.90625 24.09375 
L 41.90625 70.90625 
L 35.09375 70.90625 
L 2.796875 24.796875 
L 2.796875 16.59375 
L 33.90625 16.59375 
L 33.90625 0 
L 41.90625 0 
L 41.90625 16.59375 
L 51.5 16.59375 
L 51.5 24.09375 
z
" id="HelveticaNeue-52"/>
       </defs>
       <use xlink:href="#HelveticaNeue-52"/>
       <use x="55.599991" xlink:href="#HelveticaNeue-48"/>
       <use x="111.199982" xlink:href="#HelveticaNeue-48"/>
      </g>
     </g>
    </g>
    <g id="ytick_6">
     <g id="line2d_23">
      <g>
       <use style="fill:#555555;stroke:#555555;stroke-width:0.8;" x="62.5" xlink:href="#mfa05a0f29c" y="39.40368"/>
      </g>
     </g>
     <g id="text_12">
      <!-- 500 -->
      <g style="fill:#555555;" transform="translate(38.821875 42.973992)scale(0.1 -0.1)">
       <defs>
        <path d="M 47 62.203125 
L 47 69.703125 
L 12 69.703125 
L 5.40625 32.90625 
L 12.703125 32.5 
Q 15.203125 35.5 18.453125 37.34375 
Q 21.703125 39.203125 25.90625 39.203125 
Q 29.5 39.203125 32.453125 38 
Q 35.40625 36.796875 37.5 34.640625 
Q 39.59375 32.5 40.75 29.546875 
Q 41.90625 26.59375 41.90625 23.09375 
Q 41.90625 18.90625 40.703125 15.75 
Q 39.5 12.59375 37.453125 10.5 
Q 35.40625 8.40625 32.65625 7.34375 
Q 29.90625 6.296875 26.90625 6.296875 
Q 23.703125 6.296875 21.046875 7.25 
Q 18.40625 8.203125 16.453125 9.953125 
Q 14.5 11.703125 13.34375 14.046875 
Q 12.203125 16.40625 12 19.09375 
L 3.5 19.09375 
Q 3.59375 14.296875 5.390625 10.5 
Q 7.203125 6.703125 10.296875 4.140625 
Q 13.40625 1.59375 17.453125 0.25 
Q 21.5 -1.09375 26.09375 -1.09375 
Q 32.296875 -1.09375 36.9375 0.84375 
Q 41.59375 2.796875 44.6875 6.09375 
Q 47.796875 9.40625 49.34375 13.65625 
Q 50.90625 17.90625 50.90625 22.40625 
Q 50.90625 28.5 49.09375 33.046875 
Q 47.296875 37.59375 44.1875 40.640625 
Q 41.09375 43.703125 36.890625 45.203125 
Q 32.703125 46.703125 28 46.703125 
Q 24.40625 46.703125 20.75 45.453125 
Q 17.09375 44.203125 14.796875 41.59375 
L 14.59375 41.796875 
L 18.40625 62.203125 
z
" id="HelveticaNeue-53"/>
       </defs>
       <use xlink:href="#HelveticaNeue-53"/>
       <use x="55.599991" xlink:href="#HelveticaNeue-48"/>
       <use x="111.199982" xlink:href="#HelveticaNeue-48"/>
      </g>
     </g>
    </g>
   </g>
   <g id="line2d_24">
    <path clip-path="url(#pe78e156372)" d="M 63.382688 251.795455 
L 64.265376 250.09632 
L 65.148064 250.521104 
L 66.030752 249.246753 
L 66.91344 251.795455 
L 67.796128 249.671537 
L 68.678815 251.370671 
L 70.444191 250.521104 
L 71.326879 251.795455 
L 72.209567 250.09632 
L 73.092255 248.82197 
L 73.974943 248.82197 
L 74.857631 251.795455 
L 75.740319 247.972403 
L 76.623007 248.82197 
L 77.505695 251.370671 
L 78.388383 250.09632 
L 80.153759 251.795455 
L 81.036446 251.795455 
L 81.919134 250.521104 
L 82.801822 251.370671 
L 83.68451 250.521104 
L 84.567198 249.246753 
L 85.449886 250.09632 
L 86.332574 248.397186 
L 87.215262 250.521104 
L 88.09795 250.521104 
L 88.980638 251.795455 
L 89.863326 251.370671 
L 90.746014 249.671537 
L 91.628702 250.09632 
L 92.51139 250.09632 
L 93.394077 249.246753 
L 94.276765 249.246753 
L 95.159453 248.82197 
L 96.042141 250.521104 
L 96.924829 248.82197 
L 97.807517 250.09632 
L 98.690205 250.09632 
L 99.572893 246.273268 
L 100.455581 247.972403 
L 101.338269 248.82197 
L 102.220957 250.09632 
L 103.103645 248.82197 
L 103.986333 248.82197 
L 104.869021 249.246753 
L 105.751708 240.326299 
L 106.634396 248.397186 
L 107.517084 250.09632 
L 108.399772 249.671537 
L 109.28246 247.122835 
L 110.165148 246.273268 
L 111.047836 244.998918 
L 111.930524 248.397186 
L 112.813212 250.945887 
L 113.6959 244.149351 
L 114.578588 243.299784 
L 115.461276 248.82197 
L 116.343964 244.149351 
L 117.226651 245.423701 
L 118.109339 251.370671 
L 118.992027 244.574134 
L 119.874715 249.246753 
L 120.757403 243.724567 
L 121.640091 239.901515 
L 122.522779 246.698052 
L 123.405467 248.397186 
L 124.288155 239.901515 
L 125.170843 239.901515 
L 126.053531 243.299784 
L 126.936219 239.901515 
L 127.818907 248.82197 
L 128.701595 242.450216 
L 129.584282 247.122835 
L 130.46697 247.122835 
L 131.349658 245.848485 
L 132.232346 239.901515 
L 133.115034 244.574134 
L 133.997722 243.724567 
L 134.88041 237.777597 
L 135.763098 245.423701 
L 136.645786 247.122835 
L 137.528474 244.149351 
L 138.411162 235.65368 
L 139.29385 239.051948 
L 140.176538 238.202381 
L 141.059226 234.804113 
L 141.941913 228.007576 
L 142.824601 232.680195 
L 143.707289 230.981061 
L 144.589977 241.175866 
L 145.472665 220.786255 
L 146.355353 239.051948 
L 147.238041 230.131494 
L 148.120729 225.883658 
L 149.003417 219.936688 
L 149.886105 244.574134 
L 150.768793 225.883658 
L 151.651481 233.529762 
L 152.534169 225.883658 
L 153.416856 225.034091 
L 154.299544 228.007576 
L 155.182232 234.379329 
L 156.947608 212.715368 
L 157.830296 221.211039 
L 158.712984 230.981061 
L 159.595672 209.3171 
L 160.47836 217.812771 
L 161.361048 222.48539 
L 162.243736 213.140152 
L 163.126424 227.582792 
L 164.009112 222.48539 
L 164.8918 208.467532 
L 165.774487 213.564935 
L 166.657175 194.024892 
L 167.539863 212.290584 
L 168.422551 219.936688 
L 169.305239 179.582251 
L 170.187927 185.529221 
L 171.070615 211.441017 
L 171.953303 177.883117 
L 172.835991 198.697511 
L 173.718679 208.892316 
L 174.601367 168.962662 
L 175.484055 176.608766 
L 176.366743 191.47619 
L 178.132118 184.679654 
L 179.014806 186.378788 
L 179.897494 206.343615 
L 180.780182 190.626623 
L 181.66287 126.484307 
L 182.545558 188.077922 
L 183.428246 191.051407 
L 184.310934 158.767857 
L 185.193622 184.679654 
L 186.07631 198.697511 
L 186.958998 143.900433 
L 187.841686 179.582251 
L 188.724374 184.679654 
L 189.607062 165.564394 
L 190.489749 171.936147 
L 191.372437 153.245671 
L 192.255125 162.166126 
L 193.137813 184.679654 
L 194.020501 123.086039 
L 194.903189 203.37013 
L 195.785877 183.405303 
L 196.668565 183.405303 
L 197.551253 204.219697 
L 198.433941 182.130952 
L 199.316629 204.644481 
L 200.199317 181.706169 
L 201.082005 202.520563 
L 201.964692 209.3171 
L 202.84738 196.998377 
L 203.730068 220.786255 
L 204.612756 211.016234 
L 205.495444 188.927489 
L 206.378132 180.856602 
L 207.26082 220.786255 
L 208.143508 201.246212 
L 209.026196 177.03355 
L 209.908884 219.087121 
L 210.791572 228.007576 
L 211.67426 211.865801 
L 212.556948 220.786255 
L 213.439636 205.069264 
L 214.322323 206.343615 
L 215.205011 190.626623 
L 216.087699 219.087121 
L 216.970387 231.830628 
L 217.853075 218.237554 
L 218.735763 212.715368 
L 219.618451 201.670996 
L 220.501139 208.467532 
L 221.383827 206.768398 
L 222.266515 225.458874 
L 223.149203 228.857143 
L 224.031891 222.48539 
L 224.914579 219.087121 
L 225.797267 204.644481 
L 226.679954 212.290584 
L 227.562642 211.865801 
L 228.44533 222.060606 
L 229.328018 228.432359 
L 230.210706 223.334957 
L 231.093394 201.670996 
L 231.976082 227.158009 
L 232.85877 212.715368 
L 233.741458 178.3079 
L 234.624146 199.122294 
L 235.506834 205.918831 
L 236.389522 216.963203 
L 237.27221 211.865801 
L 238.154897 214.414502 
L 239.037585 208.892316 
L 239.920273 215.688853 
L 240.802961 219.511905 
L 241.685649 225.458874 
L 242.568337 234.379329 
L 243.451025 234.804113 
L 244.333713 222.060606 
L 245.216401 196.573593 
L 246.099089 206.343615 
L 246.981777 211.441017 
L 247.864465 223.334957 
L 248.747153 220.786255 
L 249.629841 206.768398 
L 250.512528 196.14881 
L 251.395216 190.626623 
L 252.277904 197.847944 
L 253.160592 219.087121 
L 254.04328 214.414502 
L 254.925968 211.865801 
L 255.808656 188.502706 
L 256.691344 180.431818 
L 257.574032 203.37013 
L 258.45672 203.794913 
L 259.339408 209.741883 
L 260.222096 213.989719 
L 261.104784 205.069264 
L 261.987472 200.821429 
L 262.870159 195.724026 
L 263.752847 204.219697 
L 264.635535 202.095779 
L 265.518223 199.547078 
L 267.283599 219.511905 
L 268.166287 209.3171 
L 269.048975 213.564935 
L 269.931663 209.741883 
L 270.814351 205.069264 
L 271.697039 227.582792 
L 272.579727 236.503247 
L 273.462415 211.441017 
L 274.345103 203.794913 
L 275.22779 227.582792 
L 276.110478 203.37013 
L 276.993166 199.122294 
L 277.875854 221.211039 
L 278.758542 205.494048 
L 279.64123 206.343615 
L 280.523918 202.520563 
L 281.406606 200.821429 
L 282.289294 190.20184 
L 283.171982 188.927489 
L 284.05467 199.971861 
L 284.937358 220.361472 
L 285.820046 206.343615 
L 286.702733 194.449675 
L 287.585421 204.219697 
L 288.468109 202.095779 
L 289.350797 188.077922 
L 290.233485 196.14881 
L 291.116173 226.733225 
L 291.998861 204.219697 
L 292.881549 205.494048 
L 293.764237 194.024892 
L 294.646925 174.060065 
L 295.529613 171.511364 
L 296.412301 182.555736 
L 297.294989 195.299242 
L 299.060364 160.891775 
L 299.943052 160.466991 
L 300.82574 184.25487 
L 301.708428 163.015693 
L 302.591116 159.192641 
L 303.473804 197.42316 
L 304.356492 168.113095 
L 305.23918 157.493506 
L 306.121868 131.58171 
L 307.004556 171.936147 
L 307.887244 185.104437 
L 308.769932 183.830087 
L 309.65262 159.192641 
L 310.535308 150.69697 
L 311.417995 100.997294 
L 312.300683 106.094697 
L 313.183371 167.688312 
L 314.066059 215.688853 
L 315.831435 106.519481 
L 316.714123 148.148268 
L 317.596811 77.634199 
L 318.479499 81.882035 
L 319.362187 108.218615 
L 320.244875 130.307359 
L 321.127563 96.749459 
L 322.010251 168.962662 
L 322.892938 164.714827 
L 323.775626 50.872835 
L 324.658314 57.244589 
L 325.541002 117.988636 
L 326.42369 140.926948 
L 327.306378 112.46645 
L 328.189066 138.378247 
L 329.071754 135.404762 
L 329.954442 131.58171 
L 330.83713 148.997835 
L 331.719818 130.307359 
L 332.602506 141.351732 
L 333.485194 143.050866 
L 334.367882 189.777056 
L 335.250569 142.201299 
L 336.133257 191.47619 
L 337.015945 150.272186 
L 338.781321 198.697511 
L 339.664009 216.53842 
L 340.546697 191.47619 
L 341.429385 212.715368 
L 342.312073 215.264069 
L 343.194761 200.396645 
L 344.077449 202.945346 
L 344.960137 214.839286 
L 345.842825 222.48539 
L 346.725513 231.830628 
L 347.6082 213.140152 
L 348.490888 209.741883 
L 349.373576 217.812771 
L 350.256264 228.432359 
L 351.138952 218.237554 
L 352.02164 231.405844 
L 352.904328 225.883658 
L 353.787016 239.051948 
L 354.669704 213.140152 
L 355.552392 223.75974 
L 356.43508 231.405844 
L 357.317768 230.131494 
L 358.200456 231.830628 
L 359.083144 240.326299 
L 359.965831 235.65368 
L 360.848519 232.680195 
L 361.731207 228.432359 
L 362.613895 225.883658 
L 363.496583 235.65368 
L 364.379271 239.901515 
L 365.261959 234.379329 
L 366.144647 235.65368 
L 367.027335 232.255411 
L 367.910023 232.680195 
L 368.792711 234.804113 
L 369.675399 226.308442 
L 370.558087 234.379329 
L 371.440774 240.751082 
L 372.323462 234.804113 
L 373.20615 240.326299 
L 374.088838 235.228896 
L 374.971526 237.352814 
L 375.854214 242.875 
L 376.736902 245.423701 
L 377.61959 237.352814 
L 378.502278 236.078463 
L 379.384966 236.503247 
L 380.267654 229.281926 
L 381.150342 235.228896 
L 382.03303 221.211039 
L 382.915718 232.255411 
L 383.798405 232.255411 
L 384.681093 245.423701 
L 385.563781 226.733225 
L 386.446469 221.635823 
L 387.329157 228.857143 
L 388.211845 220.786255 
L 389.094533 214.839286 
L 389.977221 233.529762 
L 390.859909 216.963203 
L 391.742597 204.219697 
L 392.625285 210.59145 
L 393.507973 230.981061 
L 394.390661 218.237554 
L 395.273349 211.441017 
L 396.156036 222.48539 
L 397.921412 175.334416 
L 398.8041 190.626623 
L 399.686788 183.830087 
L 400.569476 155.369589 
L 402.334852 177.458333 
L 403.21754 153.245671 
L 404.100228 147.298701 
L 404.982916 140.077381 
L 405.865604 147.723485 
L 406.748292 154.095238 
L 407.630979 167.688312 
L 408.513667 189.352273 
L 409.396355 176.183983 
L 410.279043 128.183442 
L 411.161731 164.714827 
L 412.044419 149.422619 
L 412.927107 174.909632 
L 413.809795 177.458333 
L 414.692483 167.263528 
L 415.575171 167.263528 
L 416.457859 151.121753 
L 417.340547 165.989177 
L 418.223235 156.643939 
L 419.105923 137.103896 
L 419.98861 166.838745 
L 421.753986 154.520022 
L 422.636674 125.63474 
L 423.519362 145.599567 
L 424.40205 132.006494 
L 425.284738 153.670455 
L 426.167426 163.440476 
L 427.050114 139.227814 
L 427.932802 135.404762 
L 428.81549 111.1921 
L 429.698178 154.095238 
L 430.580866 172.785714 
L 431.463554 154.095238 
L 432.346241 172.360931 
L 433.228929 183.830087 
L 434.111617 146.873918 
L 434.994305 119.687771 
L 435.876993 146.024351 
L 437.642369 104.395563 
L 438.525057 125.209957 
L 439.407745 112.041667 
L 440.290433 120.962121 
L 441.173121 86.979437 
L 442.055809 96.324675 
L 443.821185 108.643398 
L 444.703872 56.395022 
L 445.58656 164.714827 
L 446.469248 121.386905 
L 447.351936 115.439935 
L 448.234624 37.704545 
L 449.117312 118.838203 
L 450 229.281926 
L 450 229.281926 
" style="fill:none;stroke:#000000;stroke-dasharray:1.5,2.475;stroke-dashoffset:0;stroke-opacity:0.5;stroke-width:1.5;"/>
   </g>
   <g id="line2d_25">
    <path clip-path="url(#pe78e156372)" d="M 62.5 250.945887 
L 63.382688 250.521104 
L 67.796128 250.521104 
L 68.678815 250.945887 
L 69.561503 250.945887 
L 70.444191 250.521104 
L 72.209567 250.521104 
L 73.974943 249.671537 
L 75.740319 249.671537 
L 76.623007 250.09632 
L 77.505695 250.09632 
L 79.271071 250.945887 
L 82.801822 250.945887 
L 83.68451 250.09632 
L 87.215262 250.09632 
L 88.09795 250.521104 
L 90.746014 250.521104 
L 92.51139 249.671537 
L 96.042141 249.671537 
L 96.924829 249.246753 
L 97.807517 249.246753 
L 98.690205 248.82197 
L 102.220957 248.82197 
L 103.103645 247.972403 
L 103.986333 247.972403 
L 104.869021 247.547619 
L 107.517084 247.547619 
L 108.399772 247.122835 
L 109.28246 247.972403 
L 110.165148 247.972403 
L 111.047836 247.122835 
L 111.930524 246.698052 
L 112.813212 246.698052 
L 113.6959 246.273268 
L 114.578588 246.273268 
L 115.461276 246.698052 
L 116.343964 246.273268 
L 117.226651 246.698052 
L 118.109339 246.698052 
L 118.992027 245.848485 
L 120.757403 245.848485 
L 121.640091 244.574134 
L 122.522779 244.149351 
L 123.405467 243.299784 
L 124.288155 242.875 
L 125.170843 243.299784 
L 126.053531 242.875 
L 126.936219 242.875 
L 127.818907 244.149351 
L 128.701595 244.998918 
L 130.46697 244.998918 
L 131.349658 244.574134 
L 132.232346 243.724567 
L 133.115034 243.299784 
L 134.88041 243.299784 
L 135.763098 242.875 
L 137.528474 241.175866 
L 138.411162 240.751082 
L 139.29385 238.202381 
L 140.176538 236.078463 
L 141.059226 234.379329 
L 141.941913 234.379329 
L 142.824601 232.255411 
L 143.707289 232.255411 
L 144.589977 231.830628 
L 145.472665 231.830628 
L 146.355353 230.131494 
L 147.238041 230.981061 
L 148.120729 229.70671 
L 149.003417 230.556277 
L 149.886105 229.70671 
L 150.768793 229.281926 
L 151.651481 229.281926 
L 152.534169 230.131494 
L 153.416856 228.007576 
L 154.299544 226.733225 
L 155.182232 225.034091 
L 156.06492 225.034091 
L 156.947608 222.910173 
L 157.830296 221.211039 
L 159.595672 218.662338 
L 160.47836 219.936688 
L 161.361048 219.936688 
L 162.243736 218.237554 
L 163.126424 218.237554 
L 164.009112 215.264069 
L 164.8918 213.140152 
L 165.774487 212.715368 
L 167.539863 202.945346 
L 168.422551 202.095779 
L 169.305239 197.847944 
L 171.070615 196.14881 
L 171.953303 191.47619 
L 172.835991 190.626623 
L 173.718679 190.20184 
L 174.601367 187.228355 
L 175.484055 187.228355 
L 176.366743 185.529221 
L 177.249431 185.954004 
L 178.132118 189.352273 
L 179.014806 184.25487 
L 179.897494 182.130952 
L 180.780182 180.856602 
L 181.66287 177.458333 
L 182.545558 176.183983 
L 183.428246 176.183983 
L 184.310934 173.210498 
L 185.193622 177.883117 
L 186.07631 176.608766 
L 186.958998 174.060065 
L 187.841686 174.909632 
L 188.724374 171.511364 
L 189.607062 167.263528 
L 190.489749 170.237013 
L 191.372437 164.290043 
L 192.255125 165.13961 
L 193.137813 167.263528 
L 194.020501 170.237013 
L 194.903189 177.03355 
L 196.668565 185.529221 
L 197.551253 191.900974 
L 198.433941 191.900974 
L 199.316629 194.874459 
L 200.199317 196.998377 
L 201.082005 199.547078 
L 201.964692 203.37013 
L 202.84738 203.37013 
L 203.730068 202.945346 
L 204.612756 203.794913 
L 205.495444 202.520563 
L 206.378132 199.547078 
L 207.26082 199.122294 
L 208.143508 201.670996 
L 209.026196 205.494048 
L 209.908884 210.59145 
L 210.791572 210.59145 
L 211.67426 211.865801 
L 212.556948 212.290584 
L 213.439636 210.59145 
L 214.322323 210.59145 
L 215.205011 211.865801 
L 216.087699 212.290584 
L 216.970387 213.140152 
L 218.735763 213.989719 
L 220.501139 213.140152 
L 221.383827 214.839286 
L 222.266515 216.963203 
L 223.149203 218.237554 
L 224.031891 218.237554 
L 224.914579 217.387987 
L 225.797267 216.113636 
L 226.679954 216.113636 
L 227.562642 216.963203 
L 228.44533 216.113636 
L 229.328018 218.662338 
L 230.210706 218.662338 
L 232.85877 206.343615 
L 233.741458 204.644481 
L 234.624146 205.494048 
L 235.506834 205.069264 
L 236.389522 206.343615 
L 237.27221 211.016234 
L 239.037585 215.264069 
L 239.920273 217.812771 
L 240.802961 221.635823 
L 241.685649 223.75974 
L 242.568337 223.334957 
L 243.451025 221.211039 
L 244.333713 218.662338 
L 245.216401 216.53842 
L 246.099089 214.839286 
L 246.981777 212.290584 
L 247.864465 210.59145 
L 248.747153 209.3171 
L 249.629841 206.768398 
L 250.512528 205.918831 
L 251.395216 204.644481 
L 252.277904 204.644481 
L 253.160592 204.219697 
L 254.04328 202.520563 
L 254.925968 202.520563 
L 255.808656 201.670996 
L 256.691344 199.971861 
L 257.574032 200.396645 
L 258.45672 201.246212 
L 259.339408 203.794913 
L 260.222096 205.494048 
L 261.104784 205.069264 
L 261.987472 204.219697 
L 262.870159 202.520563 
L 263.752847 202.095779 
L 264.635535 203.794913 
L 265.518223 205.918831 
L 266.400911 208.467532 
L 267.283599 209.741883 
L 268.166287 210.59145 
L 269.048975 213.140152 
L 269.931663 216.113636 
L 270.814351 216.113636 
L 271.697039 216.53842 
L 272.579727 218.237554 
L 273.462415 217.387987 
L 274.345103 215.688853 
L 275.22779 213.564935 
L 276.110478 210.166667 
L 276.993166 209.741883 
L 277.875854 208.892316 
L 278.758542 206.343615 
L 280.523918 202.095779 
L 281.406606 198.697511 
L 282.289294 199.971861 
L 283.171982 200.396645 
L 284.05467 200.396645 
L 284.937358 201.670996 
L 285.820046 203.37013 
L 286.702733 202.520563 
L 287.585421 201.246212 
L 288.468109 201.246212 
L 289.350797 201.670996 
L 290.233485 203.794913 
L 291.116173 203.37013 
L 291.998861 200.821429 
L 292.881549 197.42316 
L 293.764237 193.175325 
L 294.646925 188.077922 
L 295.529613 184.25487 
L 296.412301 179.582251 
L 297.294989 176.183983 
L 298.177677 176.183983 
L 299.060364 174.060065 
L 299.943052 170.661797 
L 301.708428 170.661797 
L 302.591116 171.08658 
L 303.473804 167.263528 
L 304.356492 164.714827 
L 305.23918 165.564394 
L 306.121868 167.688312 
L 307.004556 165.13961 
L 307.887244 165.13961 
L 310.535308 147.723485 
L 311.417995 148.573052 
L 312.300683 148.573052 
L 313.183371 146.873918 
L 314.066059 148.573052 
L 314.948747 145.599567 
L 315.831435 137.52868 
L 317.596811 112.891234 
L 318.479499 105.669913 
L 319.362187 112.46645 
L 320.244875 117.563853 
L 321.127563 118.838203 
L 322.010251 115.864719 
L 322.892938 113.316017 
L 323.775626 111.1921 
L 324.658314 110.767316 
L 325.541002 108.643398 
L 326.42369 110.342532 
L 328.189066 132.006494 
L 329.071754 134.130411 
L 329.954442 134.979978 
L 330.83713 138.378247 
L 331.719818 143.900433 
L 332.602506 146.873918 
L 333.485194 154.520022 
L 334.367882 157.068723 
L 336.133257 169.387446 
L 337.015945 177.883117 
L 337.898633 181.281385 
L 338.781321 190.626623 
L 339.664009 195.724026 
L 340.546697 202.520563 
L 341.429385 205.918831 
L 343.194761 208.467532 
L 344.077449 213.140152 
L 344.960137 214.414502 
L 345.842825 214.839286 
L 346.725513 216.963203 
L 347.6082 219.511905 
L 348.490888 219.511905 
L 349.373576 220.786255 
L 350.256264 220.786255 
L 351.138952 224.609307 
L 352.904328 226.308442 
L 353.787016 226.308442 
L 354.669704 227.158009 
L 355.552392 227.582792 
L 356.43508 229.281926 
L 357.317768 230.131494 
L 358.200456 232.680195 
L 359.083144 233.529762 
L 359.965831 232.680195 
L 360.848519 232.680195 
L 361.731207 233.104978 
L 362.613895 232.680195 
L 364.379271 233.529762 
L 365.261959 234.379329 
L 366.144647 234.804113 
L 367.027335 233.529762 
L 367.910023 232.680195 
L 368.792711 233.529762 
L 369.675399 233.529762 
L 370.558087 234.804113 
L 371.440774 235.228896 
L 372.323462 236.078463 
L 373.20615 237.777597 
L 374.088838 239.051948 
L 374.971526 239.051948 
L 375.854214 239.476732 
L 376.736902 239.051948 
L 378.502278 237.352814 
L 379.384966 234.379329 
L 380.267654 232.255411 
L 381.150342 231.405844 
L 382.03303 232.255411 
L 383.798405 231.405844 
L 384.681093 230.556277 
L 385.563781 230.131494 
L 386.446469 227.158009 
L 387.329157 226.308442 
L 388.211845 223.334957 
L 389.094533 220.786255 
L 389.977221 218.662338 
L 392.625285 217.387987 
L 393.507973 216.53842 
L 394.390661 215.264069 
L 396.156036 207.193182 
L 397.038724 199.971861 
L 397.921412 191.47619 
L 399.686788 177.458333 
L 400.569476 171.936147 
L 401.452164 167.688312 
L 402.334852 160.891775 
L 403.21754 155.794372 
L 404.100228 154.095238 
L 404.982916 153.245671 
L 405.865604 155.369589 
L 406.748292 160.042208 
L 407.630979 160.466991 
L 408.513667 163.015693 
L 409.396355 162.590909 
L 410.279043 163.015693 
L 411.161731 163.015693 
L 412.044419 161.741342 
L 412.927107 163.015693 
L 413.809795 165.989177 
L 414.692483 165.564394 
L 415.575171 165.564394 
L 416.457859 160.466991 
L 417.340547 158.343074 
L 419.105923 155.794372 
L 419.98861 153.245671 
L 420.871298 150.272186 
L 421.753986 146.873918 
L 422.636674 146.873918 
L 423.519362 146.024351 
L 424.40205 144.325216 
L 425.284738 143.475649 
L 426.167426 142.201299 
L 427.050114 141.351732 
L 427.932802 144.325216 
L 428.81549 145.174784 
L 429.698178 147.723485 
L 430.580866 154.944805 
L 431.463554 159.192641 
L 432.346241 160.042208 
L 433.228929 157.493506 
L 434.994305 142.201299 
L 435.876993 134.555195 
L 436.759681 125.209957 
L 437.642369 121.811688 
L 438.525057 117.139069 
L 439.407745 110.767316 
L 440.290433 107.369048 
L 441.173121 106.094697 
L 442.055809 98.448593 
L 442.938497 102.271645 
L 443.821185 104.395563 
L 444.703872 109.068182 
L 445.58656 104.820346 
L 446.469248 105.24513 
L 447.351936 116.714286 
L 448.234624 125.63474 
L 449.117312 125.209957 
L 450 131.58171 
L 450 131.58171 
" style="fill:none;stroke:#b3220f;stroke-linecap:square;stroke-width:1.5;"/>
   </g>
   <g id="patch_3">
    <path d="M 62.5 262.5 
L 62.5 27 
" style="fill:none;stroke:#555555;stroke-linecap:square;stroke-linejoin:miter;"/>
   </g>
   <g id="patch_4">
    <path d="M 62.5 262.5 
L 450 262.5 
" style="fill:none;stroke:#555555;stroke-linecap:square;stroke-linejoin:miter;"/>
   </g>
   <g id="text_13">
    <!-- Fontibón | Casos nuevos: 2021-06-04 -->
    <g style="fill:#555555;" transform="translate(138.246406 17)scale(0.14 -0.14)">
     <defs>
      <path d="M 7.796875 71.40625 
L 7.796875 0 
L 17.296875 0 
L 17.296875 32.703125 
L 50.09375 32.703125 
L 50.09375 40.703125 
L 17.296875 40.703125 
L 17.296875 63.40625 
L 54.703125 63.40625 
L 54.703125 71.40625 
z
" id="HelveticaNeue-70"/>
      <path d="M 12.59375 25.796875 
Q 12.59375 30.5 13.84375 34.140625 
Q 15.09375 37.796875 17.296875 40.296875 
Q 19.5 42.796875 22.453125 44.09375 
Q 25.40625 45.40625 28.703125 45.40625 
Q 32 45.40625 34.953125 44.09375 
Q 37.90625 42.796875 40.09375 40.296875 
Q 42.296875 37.796875 43.546875 34.140625 
Q 44.796875 30.5 44.796875 25.796875 
Q 44.796875 21.09375 43.546875 17.4375 
Q 42.296875 13.796875 40.09375 11.34375 
Q 37.90625 8.90625 34.953125 7.59375 
Q 32 6.296875 28.703125 6.296875 
Q 25.40625 6.296875 22.453125 7.59375 
Q 19.5 8.90625 17.296875 11.34375 
Q 15.09375 13.796875 13.84375 17.4375 
Q 12.59375 21.09375 12.59375 25.796875 
z
M 3.59375 25.796875 
Q 3.59375 20.09375 5.1875 15.1875 
Q 6.796875 10.296875 10 6.640625 
Q 13.203125 3 17.890625 0.953125 
Q 22.59375 -1.09375 28.703125 -1.09375 
Q 34.90625 -1.09375 39.546875 0.953125 
Q 44.203125 3 47.390625 6.640625 
Q 50.59375 10.296875 52.1875 15.1875 
Q 53.796875 20.09375 53.796875 25.796875 
Q 53.796875 31.5 52.1875 36.453125 
Q 50.59375 41.40625 47.390625 45.046875 
Q 44.203125 48.703125 39.546875 50.796875 
Q 34.90625 52.90625 28.703125 52.90625 
Q 22.59375 52.90625 17.890625 50.796875 
Q 13.203125 48.703125 10 45.046875 
Q 6.796875 41.40625 5.1875 36.453125 
Q 3.59375 31.5 3.59375 25.796875 
z
" id="HelveticaNeue-111"/>
      <path d="M 15.40625 61 
L 15.40625 71.40625 
L 6.90625 71.40625 
L 6.90625 61 
z
M 6.90625 51.703125 
L 6.90625 0 
L 15.40625 0 
L 15.40625 51.703125 
z
" id="HelveticaNeue-105"/>
      <path d="M 6.703125 71.40625 
L 6.703125 0 
L 15.203125 0 
L 15.203125 6.90625 
L 15.40625 6.90625 
Q 16.796875 4.59375 18.84375 3.046875 
Q 20.90625 1.5 23.203125 0.59375 
Q 25.5 -0.296875 27.84375 -0.6875 
Q 30.203125 -1.09375 32.09375 -1.09375 
Q 38 -1.09375 42.453125 1 
Q 46.90625 3.09375 49.84375 6.75 
Q 52.796875 10.40625 54.25 15.296875 
Q 55.703125 20.203125 55.703125 25.703125 
Q 55.703125 31.203125 54.203125 36.09375 
Q 52.703125 41 49.75 44.75 
Q 46.796875 48.5 42.34375 50.703125 
Q 37.90625 52.90625 31.90625 52.90625 
Q 26.5 52.90625 22 50.953125 
Q 17.5 49 15.40625 44.703125 
L 15.203125 44.703125 
L 15.203125 71.40625 
z
M 46.703125 26.296875 
Q 46.703125 22.5 45.890625 18.890625 
Q 45.09375 15.296875 43.296875 12.5 
Q 41.5 9.703125 38.546875 8 
Q 35.59375 6.296875 31.203125 6.296875 
Q 26.796875 6.296875 23.6875 7.9375 
Q 20.59375 9.59375 18.640625 12.296875 
Q 16.703125 15 15.796875 18.546875 
Q 14.90625 22.09375 14.90625 25.90625 
Q 14.90625 29.5 15.75 33 
Q 16.59375 36.5 18.5 39.25 
Q 20.40625 42 23.40625 43.703125 
Q 26.40625 45.40625 30.703125 45.40625 
Q 34.796875 45.40625 37.84375 43.796875 
Q 40.90625 42.203125 42.84375 39.5 
Q 44.796875 36.796875 45.75 33.34375 
Q 46.703125 29.90625 46.703125 26.296875 
z
" id="HelveticaNeue-98"/>
      <path d="M 12.59375 25.796875 
Q 12.59375 30.5 13.84375 34.140625 
Q 15.09375 37.796875 17.296875 40.296875 
Q 19.5 42.796875 22.453125 44.09375 
Q 25.40625 45.40625 28.703125 45.40625 
Q 32 45.40625 34.953125 44.09375 
Q 37.90625 42.796875 40.09375 40.296875 
Q 42.296875 37.796875 43.546875 34.140625 
Q 44.796875 30.5 44.796875 25.796875 
Q 44.796875 21.09375 43.546875 17.4375 
Q 42.296875 13.796875 40.09375 11.34375 
Q 37.90625 8.90625 34.953125 7.59375 
Q 32 6.296875 28.703125 6.296875 
Q 25.40625 6.296875 22.453125 7.59375 
Q 19.5 8.90625 17.296875 11.34375 
Q 15.09375 13.796875 13.84375 17.4375 
Q 12.59375 21.09375 12.59375 25.796875 
z
M 3.59375 25.796875 
Q 3.59375 20.09375 5.1875 15.1875 
Q 6.796875 10.296875 10 6.640625 
Q 13.203125 3 17.890625 0.953125 
Q 22.59375 -1.09375 28.703125 -1.09375 
Q 34.90625 -1.09375 39.546875 0.953125 
Q 44.203125 3 47.390625 6.640625 
Q 50.59375 10.296875 52.1875 15.1875 
Q 53.796875 20.09375 53.796875 25.796875 
Q 53.796875 31.5 52.1875 36.453125 
Q 50.59375 41.40625 47.390625 45.046875 
Q 44.203125 48.703125 39.546875 50.796875 
Q 34.90625 52.90625 28.703125 52.90625 
Q 22.59375 52.90625 17.890625 50.796875 
Q 13.203125 48.703125 10 45.046875 
Q 6.796875 41.40625 5.1875 36.453125 
Q 3.59375 31.5 3.59375 25.796875 
z
M 42.5 77 
L 28.40625 60.796875 
L 22 60.796875 
L 31.59375 77 
z
" id="HelveticaNeue-243"/>
      <path id="HelveticaNeue-32"/>
      <path d="M 7.703125 78.59375 
L 7.703125 -21.296875 
L 14.5 -21.296875 
L 14.5 78.59375 
z
" id="HelveticaNeue-124"/>
      <path d="M 58 49.90625 
L 67.5 49.90625 
Q 66.703125 55.59375 64.09375 59.9375 
Q 61.5 64.296875 57.59375 67.1875 
Q 53.703125 70.09375 48.703125 71.59375 
Q 43.703125 73.09375 38.09375 73.09375 
Q 29.90625 73.09375 23.546875 70.140625 
Q 17.203125 67.203125 12.953125 62.09375 
Q 8.703125 57 6.5 50.140625 
Q 4.296875 43.296875 4.296875 35.5 
Q 4.296875 27.703125 6.34375 20.890625 
Q 8.40625 14.09375 12.5 9.09375 
Q 16.59375 4.09375 22.796875 1.25 
Q 29 -1.59375 37.296875 -1.59375 
Q 51 -1.59375 58.890625 5.90625 
Q 66.796875 13.40625 68.203125 26.90625 
L 58.703125 26.90625 
Q 58.40625 22.5 56.90625 18.703125 
Q 55.40625 14.90625 52.75 12.15625 
Q 50.09375 9.40625 46.4375 7.84375 
Q 42.796875 6.296875 38.09375 6.296875 
Q 31.703125 6.296875 27.09375 8.6875 
Q 22.5 11.09375 19.546875 15.140625 
Q 16.59375 19.203125 15.1875 24.640625 
Q 13.796875 30.09375 13.796875 36.203125 
Q 13.796875 41.796875 15.1875 47 
Q 16.59375 52.203125 19.546875 56.25 
Q 22.5 60.296875 27.046875 62.6875 
Q 31.59375 65.09375 38 65.09375 
Q 45.5 65.09375 50.953125 61.296875 
Q 56.40625 57.5 58 49.90625 
z
" id="HelveticaNeue-67"/>
      <path d="M 11.59375 16.296875 
L 3.09375 16.296875 
Q 3.296875 11.5 5.09375 8.140625 
Q 6.90625 4.796875 9.90625 2.75 
Q 12.90625 0.703125 16.796875 -0.1875 
Q 20.703125 -1.09375 25 -1.09375 
Q 28.90625 -1.09375 32.84375 -0.34375 
Q 36.796875 0.40625 39.9375 2.296875 
Q 43.09375 4.203125 45.046875 7.296875 
Q 47 10.40625 47 15.09375 
Q 47 18.796875 45.546875 21.296875 
Q 44.09375 23.796875 41.75 25.4375 
Q 39.40625 27.09375 36.34375 28.09375 
Q 33.296875 29.09375 30.09375 29.796875 
Q 27.09375 30.5 24.09375 31.140625 
Q 21.09375 31.796875 18.6875 32.75 
Q 16.296875 33.703125 14.75 35.140625 
Q 13.203125 36.59375 13.203125 38.796875 
Q 13.203125 40.796875 14.203125 42.046875 
Q 15.203125 43.296875 16.796875 44.046875 
Q 18.40625 44.796875 20.34375 45.09375 
Q 22.296875 45.40625 24.203125 45.40625 
Q 26.296875 45.40625 28.34375 44.953125 
Q 30.40625 44.5 32.09375 43.5 
Q 33.796875 42.5 34.890625 40.84375 
Q 36 39.203125 36.203125 36.703125 
L 44.703125 36.703125 
Q 44.40625 41.40625 42.703125 44.546875 
Q 41 47.703125 38.140625 49.546875 
Q 35.296875 51.40625 31.59375 52.15625 
Q 27.90625 52.90625 23.5 52.90625 
Q 20.09375 52.90625 16.640625 52.046875 
Q 13.203125 51.203125 10.453125 49.453125 
Q 7.703125 47.703125 5.953125 44.890625 
Q 4.203125 42.09375 4.203125 38.203125 
Q 4.203125 33.203125 6.703125 30.390625 
Q 9.203125 27.59375 12.953125 26.046875 
Q 16.703125 24.5 21.09375 23.640625 
Q 25.5 22.796875 29.25 21.75 
Q 33 20.703125 35.5 19 
Q 38 17.296875 38 14 
Q 38 11.59375 36.796875 10.046875 
Q 35.59375 8.5 33.75 7.703125 
Q 31.90625 6.90625 29.703125 6.59375 
Q 27.5 6.296875 25.5 6.296875 
Q 22.90625 6.296875 20.453125 6.796875 
Q 18 7.296875 16.046875 8.4375 
Q 14.09375 9.59375 12.890625 11.546875 
Q 11.703125 13.5 11.59375 16.296875 
z
" id="HelveticaNeue-115"/>
      <path d="M 29.703125 0 
L 48.59375 51.703125 
L 39.703125 51.703125 
L 25.59375 8.59375 
L 25.40625 8.59375 
L 10.90625 51.703125 
L 1.40625 51.703125 
L 20.59375 0 
z
" id="HelveticaNeue-118"/>
      <path d="M 19.40625 40.59375 
L 19.40625 51.703125 
L 8.296875 51.703125 
L 8.296875 40.59375 
z
M 8.296875 11.09375 
L 8.296875 0 
L 19.40625 0 
L 19.40625 11.09375 
z
" id="HelveticaNeue-58"/>
      <path d="M 5 31.796875 
L 5 23.796875 
L 33.90625 23.796875 
L 33.90625 31.796875 
z
" id="HelveticaNeue-45"/>
      <path d="M 41.40625 52.796875 
L 49.90625 52.796875 
Q 49.09375 61.59375 43.890625 66.25 
Q 38.703125 70.90625 29.90625 70.90625 
Q 22.296875 70.90625 17.296875 67.703125 
Q 12.296875 64.5 9.296875 59.203125 
Q 6.296875 53.90625 5.046875 47.046875 
Q 3.796875 40.203125 3.796875 32.90625 
Q 3.796875 27.296875 4.640625 21.296875 
Q 5.5 15.296875 8.09375 10.296875 
Q 10.703125 5.296875 15.5 2.09375 
Q 20.296875 -1.09375 28.203125 -1.09375 
Q 34.90625 -1.09375 39.453125 1.15625 
Q 44 3.40625 46.75 6.84375 
Q 49.5 10.296875 50.703125 14.5 
Q 51.90625 18.703125 51.90625 22.59375 
Q 51.90625 27.5 50.40625 31.703125 
Q 48.90625 35.90625 46.15625 39 
Q 43.40625 42.09375 39.34375 43.84375 
Q 35.296875 45.59375 30.203125 45.59375 
Q 24.40625 45.59375 19.953125 43.390625 
Q 15.5 41.203125 12.5 36.296875 
L 12.296875 36.5 
Q 12.40625 40.59375 13.09375 45.296875 
Q 13.796875 50 15.640625 54.046875 
Q 17.5 58.09375 20.796875 60.75 
Q 24.09375 63.40625 29.5 63.40625 
Q 34.59375 63.40625 37.6875 60.5 
Q 40.796875 57.59375 41.40625 52.796875 
z
M 28.59375 38.09375 
Q 32.203125 38.09375 34.890625 36.796875 
Q 37.59375 35.5 39.390625 33.34375 
Q 41.203125 31.203125 42.046875 28.25 
Q 42.90625 25.296875 42.90625 22 
Q 42.90625 18.90625 41.953125 16.046875 
Q 41 13.203125 39.203125 11 
Q 37.40625 8.796875 34.75 7.546875 
Q 32.09375 6.296875 28.59375 6.296875 
Q 25.09375 6.296875 22.34375 7.546875 
Q 19.59375 8.796875 17.75 10.890625 
Q 15.90625 13 14.90625 15.890625 
Q 13.90625 18.796875 13.90625 22.09375 
Q 13.90625 25.40625 14.84375 28.34375 
Q 15.796875 31.296875 17.6875 33.4375 
Q 19.59375 35.59375 22.296875 36.84375 
Q 25 38.09375 28.59375 38.09375 
z
" id="HelveticaNeue-54"/>
     </defs>
     <use xlink:href="#HelveticaNeue-70"/>
     <use x="57.399994" xlink:href="#HelveticaNeue-111"/>
     <use x="114.799988" xlink:href="#HelveticaNeue-110"/>
     <use x="170.399979" xlink:href="#HelveticaNeue-116"/>
     <use x="201.899963" xlink:href="#HelveticaNeue-105"/>
     <use x="224.09996" xlink:href="#HelveticaNeue-98"/>
     <use x="283.399948" xlink:href="#HelveticaNeue-243"/>
     <use x="340.799942" xlink:href="#HelveticaNeue-110"/>
     <use x="396.399933" xlink:href="#HelveticaNeue-32"/>
     <use x="424.199921" xlink:href="#HelveticaNeue-124"/>
     <use x="446.399918" xlink:href="#HelveticaNeue-32"/>
     <use x="474.199905" xlink:href="#HelveticaNeue-67"/>
     <use x="546.399887" xlink:href="#HelveticaNeue-97"/>
     <use x="600.099884" xlink:href="#HelveticaNeue-115"/>
     <use x="650.099869" xlink:href="#HelveticaNeue-111"/>
     <use x="707.499863" xlink:href="#HelveticaNeue-115"/>
     <use x="757.499847" xlink:href="#HelveticaNeue-32"/>
     <use x="785.299835" xlink:href="#HelveticaNeue-110"/>
     <use x="840.899826" xlink:href="#HelveticaNeue-117"/>
     <use x="896.499817" xlink:href="#HelveticaNeue-101"/>
     <use x="950.199814" xlink:href="#HelveticaNeue-118"/>
     <use x="1000.199799" xlink:href="#HelveticaNeue-111"/>
     <use x="1057.599792" xlink:href="#HelveticaNeue-115"/>
     <use x="1107.599777" xlink:href="#HelveticaNeue-58"/>
     <use x="1135.399765" xlink:href="#HelveticaNeue-32"/>
     <use x="1163.199753" xlink:href="#HelveticaNeue-50"/>
     <use x="1218.799744" xlink:href="#HelveticaNeue-48"/>
     <use x="1274.399734" xlink:href="#HelveticaNeue-50"/>
     <use x="1329.999725" xlink:href="#HelveticaNeue-49"/>
     <use x="1385.599716" xlink:href="#HelveticaNeue-45"/>
     <use x="1424.49971" xlink:href="#HelveticaNeue-48"/>
     <use x="1480.099701" xlink:href="#HelveticaNeue-54"/>
     <use x="1535.699692" xlink:href="#HelveticaNeue-45"/>
     <use x="1574.599686" xlink:href="#HelveticaNeue-48"/>
     <use x="1630.199677" xlink:href="#HelveticaNeue-52"/>
    </g>
   </g>
   <g id="legend_1">
    <g id="line2d_26">
     <path d="M 71.5 39.640625 
L 91.5 39.640625 
" style="fill:none;stroke:#000000;stroke-dasharray:1.5,2.475;stroke-dashoffset:0;stroke-opacity:0.5;stroke-width:1.5;"/>
    </g>
    <g id="line2d_27"/>
    <g id="text_14">
     <!-- Actual -->
     <g style="fill:#555555;" transform="translate(99.5 43.140625)scale(0.1 -0.1)">
      <use xlink:href="#HelveticaNeue-65"/>
      <use x="64.799988" xlink:href="#HelveticaNeue-99"/>
      <use x="118.499985" xlink:href="#HelveticaNeue-116"/>
      <use x="149.999969" xlink:href="#HelveticaNeue-117"/>
      <use x="205.59996" xlink:href="#HelveticaNeue-97"/>
      <use x="259.299957" xlink:href="#HelveticaNeue-108"/>
     </g>
    </g>
    <g id="line2d_28">
     <path d="M 71.5 54.310937 
L 91.5 54.310937 
" style="fill:none;stroke:#b3220f;stroke-linecap:square;stroke-width:1.5;"/>
    </g>
    <g id="line2d_29"/>
    <g id="text_15">
     <!-- Promedio semanal (7 días)  -->
     <g style="fill:#555555;" transform="translate(99.5 57.810937)scale(0.1 -0.1)">
      <defs>
       <path d="M 17.296875 37.203125 
L 17.296875 63.40625 
L 35.90625 63.40625 
Q 44 63.40625 47.75 60.046875 
Q 51.5 56.703125 51.5 50.296875 
Q 51.5 43.90625 47.75 40.5 
Q 44 37.09375 35.90625 37.203125 
z
M 7.796875 71.40625 
L 7.796875 0 
L 17.296875 0 
L 17.296875 29.203125 
L 39.09375 29.203125 
Q 49.90625 29.09375 55.453125 34.6875 
Q 61 40.296875 61 50.296875 
Q 61 60.296875 55.453125 65.84375 
Q 49.90625 71.40625 39.09375 71.40625 
z
" id="HelveticaNeue-80"/>
       <path d="M 6.40625 51.703125 
L 6.40625 0 
L 14.90625 0 
L 14.90625 32.203125 
Q 14.90625 33.703125 15.65625 35.953125 
Q 16.40625 38.203125 18.046875 40.296875 
Q 19.703125 42.40625 22.34375 43.90625 
Q 25 45.40625 28.703125 45.40625 
Q 31.59375 45.40625 33.4375 44.546875 
Q 35.296875 43.703125 36.390625 42.140625 
Q 37.5 40.59375 37.953125 38.5 
Q 38.40625 36.40625 38.40625 33.90625 
L 38.40625 0 
L 46.90625 0 
L 46.90625 32.203125 
Q 46.90625 38.203125 50.5 41.796875 
Q 54.09375 45.40625 60.40625 45.40625 
Q 63.5 45.40625 65.453125 44.5 
Q 67.40625 43.59375 68.5 42.046875 
Q 69.59375 40.5 70 38.390625 
Q 70.40625 36.296875 70.40625 33.90625 
L 70.40625 0 
L 78.90625 0 
L 78.90625 37.90625 
Q 78.90625 41.90625 77.65625 44.75 
Q 76.40625 47.59375 74.15625 49.390625 
Q 71.90625 51.203125 68.75 52.046875 
Q 65.59375 52.90625 61.703125 52.90625 
Q 56.59375 52.90625 52.34375 50.59375 
Q 48.09375 48.296875 45.5 44.09375 
Q 43.90625 48.90625 40 50.90625 
Q 36.09375 52.90625 31.296875 52.90625 
Q 20.40625 52.90625 14.59375 44.09375 
L 14.40625 44.09375 
L 14.40625 51.703125 
z
" id="HelveticaNeue-109"/>
       <path d="M 12.59375 25.40625 
Q 12.59375 29.203125 13.390625 32.796875 
Q 14.203125 36.40625 16 39.203125 
Q 17.796875 42 20.796875 43.703125 
Q 23.796875 45.40625 28.09375 45.40625 
Q 32.5 45.40625 35.59375 43.75 
Q 38.703125 42.09375 40.640625 39.390625 
Q 42.59375 36.703125 43.5 33.140625 
Q 44.40625 29.59375 44.40625 25.796875 
Q 44.40625 22.203125 43.546875 18.703125 
Q 42.703125 15.203125 40.796875 12.453125 
Q 38.90625 9.703125 35.90625 8 
Q 32.90625 6.296875 28.59375 6.296875 
Q 24.5 6.296875 21.453125 7.890625 
Q 18.40625 9.5 16.453125 12.203125 
Q 14.5 14.90625 13.546875 18.34375 
Q 12.59375 21.796875 12.59375 25.40625 
z
M 52.59375 0 
L 52.59375 71.40625 
L 44.09375 71.40625 
L 44.09375 44.796875 
L 43.90625 44.796875 
Q 42.5 47.09375 40.453125 48.640625 
Q 38.40625 50.203125 36.09375 51.140625 
Q 33.796875 52.09375 31.5 52.5 
Q 29.203125 52.90625 27.203125 52.90625 
Q 21.296875 52.90625 16.84375 50.75 
Q 12.40625 48.59375 9.453125 44.9375 
Q 6.5 41.296875 5.046875 36.390625 
Q 3.59375 31.5 3.59375 26 
Q 3.59375 20.5 5.09375 15.59375 
Q 6.59375 10.703125 9.546875 7 
Q 12.5 3.296875 16.953125 1.09375 
Q 21.40625 -1.09375 27.40625 -1.09375 
Q 32.796875 -1.09375 37.296875 0.796875 
Q 41.796875 2.703125 43.90625 7 
L 44.09375 7 
L 44.09375 0 
z
" id="HelveticaNeue-100"/>
       <path d="M 20.40625 -19.703125 
L 26.90625 -19.703125 
Q 19.796875 -8.203125 16.75 3.09375 
Q 13.703125 14.40625 13.703125 27 
Q 13.703125 39.296875 16.703125 50.5 
Q 19.703125 61.703125 26.90625 73.09375 
L 20.40625 73.09375 
Q 12.59375 62.796875 8.640625 50.796875 
Q 4.703125 38.796875 4.703125 27 
Q 4.703125 20.40625 5.796875 14.40625 
Q 6.90625 8.40625 8.953125 2.703125 
Q 11 -3 13.890625 -8.546875 
Q 16.796875 -14.09375 20.40625 -19.703125 
z
" id="HelveticaNeue-40"/>
       <path d="M 50.90625 62.40625 
L 50.90625 69.703125 
L 5 69.703125 
L 5 61.703125 
L 42.203125 61.703125 
Q 36.59375 55.796875 31.75 48.796875 
Q 26.90625 41.796875 23.203125 33.9375 
Q 19.5 26.09375 17.140625 17.546875 
Q 14.796875 9 14.203125 0 
L 23.703125 0 
Q 24.203125 8.296875 26.5 17.09375 
Q 28.796875 25.90625 32.4375 34.203125 
Q 36.09375 42.5 40.796875 49.796875 
Q 45.5 57.09375 50.90625 62.40625 
z
" id="HelveticaNeue-55"/>
       <path d="M 6.90625 0 
L 15.40625 0 
L 15.40625 51.703125 
L 6.90625 51.703125 
z
M 25.5 77 
L 11.40625 60.796875 
L 5 60.796875 
L 14.59375 77 
z
" id="HelveticaNeue-237"/>
       <path d="M -0.90625 -19.703125 
L 5.5 -19.703125 
Q 13.296875 -9.40625 17.25 2.546875 
Q 21.203125 14.5 21.203125 26.296875 
Q 21.203125 32.90625 20.09375 38.90625 
Q 19 44.90625 16.953125 50.65625 
Q 14.90625 56.40625 12 61.953125 
Q 9.09375 67.5 5.5 73.09375 
L -0.90625 73.09375 
Q 6.09375 61.59375 9.140625 50.25 
Q 12.203125 38.90625 12.203125 26.296875 
Q 12.203125 14.09375 9.203125 2.84375 
Q 6.203125 -8.40625 -0.90625 -19.703125 
z
" id="HelveticaNeue-41"/>
      </defs>
      <use xlink:href="#HelveticaNeue-80"/>
      <use x="64.799988" xlink:href="#HelveticaNeue-114"/>
      <use x="96.349976" xlink:href="#HelveticaNeue-111"/>
      <use x="153.749969" xlink:href="#HelveticaNeue-109"/>
      <use x="239.049957" xlink:href="#HelveticaNeue-101"/>
      <use x="292.749954" xlink:href="#HelveticaNeue-100"/>
      <use x="352.049942" xlink:href="#HelveticaNeue-105"/>
      <use x="374.249939" xlink:href="#HelveticaNeue-111"/>
      <use x="431.649933" xlink:href="#HelveticaNeue-32"/>
      <use x="459.449921" xlink:href="#HelveticaNeue-115"/>
      <use x="509.449905" xlink:href="#HelveticaNeue-101"/>
      <use x="563.149902" xlink:href="#HelveticaNeue-109"/>
      <use x="648.44989" xlink:href="#HelveticaNeue-97"/>
      <use x="702.149887" xlink:href="#HelveticaNeue-110"/>
      <use x="757.749878" xlink:href="#HelveticaNeue-97"/>
      <use x="811.449875" xlink:href="#HelveticaNeue-108"/>
      <use x="833.649872" xlink:href="#HelveticaNeue-32"/>
      <use x="861.44986" xlink:href="#HelveticaNeue-40"/>
      <use x="887.349854" xlink:href="#HelveticaNeue-55"/>
      <use x="942.949844" xlink:href="#HelveticaNeue-32"/>
      <use x="970.749832" xlink:href="#HelveticaNeue-100"/>
      <use x="1030.04982" xlink:href="#HelveticaNeue-237"/>
      <use x="1052.249817" xlink:href="#HelveticaNeue-97"/>
      <use x="1105.949814" xlink:href="#HelveticaNeue-115"/>
      <use x="1155.949799" xlink:href="#HelveticaNeue-41"/>
      <use x="1181.849792" xlink:href="#HelveticaNeue-32"/>
     </g>
    </g>
   </g>
  </g>
 </g>
 <defs>
  <clipPath id="pe78e156372">
   <rect height="235.5" width="387.5" x="62.5" y="27"/>
  </clipPath>
 </defs>
</svg>
