<?xml version="1.0" encoding="utf-8" standalone="no"?>
<!DOCTYPE svg PUBLIC "-//W3C//DTD SVG 1.1//EN"
  "http://www.w3.org/Graphics/SVG/1.1/DTD/svg11.dtd">
<!-- Created with matplotlib (https://matplotlib.org/) -->
<svg height="300pt" version="1.1" viewBox="0 0 500 300" width="500pt" xmlns="http://www.w3.org/2000/svg" xmlns:xlink="http://www.w3.org/1999/xlink">
 <metadata>
  <rdf:RDF xmlns:cc="http://creativecommons.org/ns#" xmlns:dc="http://purl.org/dc/elements/1.1/" xmlns:rdf="http://www.w3.org/1999/02/22-rdf-syntax-ns#">
   <cc:Work>
    <dc:type rdf:resource="http://purl.org/dc/dcmitype/StillImage"/>
    <dc:date>2021-07-31T15:05:16.210824</dc:date>
    <dc:format>image/svg+xml</dc:format>
    <dc:creator>
     <cc:Agent>
      <dc:title>Matplotlib v3.3.4, https://matplotlib.org/</dc:title>
     </cc:Agent>
    </dc:creator>
   </cc:Work>
  </rdf:RDF>
 </metadata>
 <defs>
  <style type="text/css">*{stroke-linecap:butt;stroke-linejoin:round;}</style>
 </defs>
 <g id="figure_1">
  <g id="patch_1">
   <path d="M 0 300 
L 500 300 
L 500 0 
L 0 0 
z
" style="fill:#ffffff;"/>
  </g>
  <g id="axes_1">
   <g id="patch_2">
    <path d="M 62.5 262.5 
L 450 262.5 
L 450 27 
L 62.5 27 
z
" style="fill:#ffffff;"/>
   </g>
   <g id="matplotlib.axis_1">
    <g id="xtick_1">
     <g id="line2d_1">
      <defs>
       <path d="M 0 0 
L 0 3.5 
" id="m5343e93b58" style="stroke:#555555;stroke-width:0.8;"/>
      </defs>
      <g>
       <use style="fill:#555555;stroke:#555555;stroke-width:0.8;" x="62.5" xlink:href="#m5343e93b58" y="262.5"/>
      </g>
     </g>
    </g>
    <g id="xtick_2">
     <g id="line2d_2">
      <g>
       <use style="fill:#555555;stroke:#555555;stroke-width:0.8;" x="70.34413" xlink:href="#m5343e93b58" y="262.5"/>
      </g>
     </g>
     <g id="text_1">
      <!-- Apr -->
      <g style="fill:#555555;" transform="translate(62.474598 276.640625)scale(0.1 -0.1)">
       <defs>
        <path d="M 20.09375 29.5 
L 32.203125 62.796875 
L 32.40625 62.796875 
L 44.296875 29.5 
z
M 27.203125 71.40625 
L -0.59375 0 
L 9.09375 0 
L 17.09375 21.5 
L 47.296875 21.5 
L 55.09375 0 
L 65.59375 0 
L 37.703125 71.40625 
z
" id="HelveticaNeue-65"/>
        <path d="M 6.703125 51.703125 
L 6.703125 -19.703125 
L 15.203125 -19.703125 
L 15.203125 6.90625 
L 15.40625 6.90625 
Q 16.796875 4.59375 18.84375 3.046875 
Q 20.90625 1.5 23.203125 0.59375 
Q 25.5 -0.296875 27.84375 -0.6875 
Q 30.203125 -1.09375 32.09375 -1.09375 
Q 38 -1.09375 42.453125 1 
Q 46.90625 3.09375 49.84375 6.75 
Q 52.796875 10.40625 54.25 15.296875 
Q 55.703125 20.203125 55.703125 25.703125 
Q 55.703125 31.203125 54.203125 36.09375 
Q 52.703125 41 49.75 44.75 
Q 46.796875 48.5 42.34375 50.703125 
Q 37.90625 52.90625 31.90625 52.90625 
Q 26.5 52.90625 22 50.953125 
Q 17.5 49 15.40625 44.703125 
L 15.203125 44.703125 
L 15.203125 51.703125 
z
M 46.703125 26.296875 
Q 46.703125 22.5 45.890625 18.890625 
Q 45.09375 15.296875 43.296875 12.5 
Q 41.5 9.703125 38.546875 8 
Q 35.59375 6.296875 31.203125 6.296875 
Q 26.796875 6.296875 23.6875 7.9375 
Q 20.59375 9.59375 18.640625 12.296875 
Q 16.703125 15 15.796875 18.546875 
Q 14.90625 22.09375 14.90625 25.90625 
Q 14.90625 29.5 15.75 33 
Q 16.59375 36.5 18.5 39.25 
Q 20.40625 42 23.40625 43.703125 
Q 26.40625 45.40625 30.703125 45.40625 
Q 34.796875 45.40625 37.84375 43.796875 
Q 40.90625 42.203125 42.84375 39.5 
Q 44.796875 36.796875 45.75 33.34375 
Q 46.703125 29.90625 46.703125 26.296875 
z
" id="HelveticaNeue-112"/>
        <path d="M 6.09375 51.703125 
L 6.09375 0 
L 14.59375 0 
L 14.59375 23 
Q 14.59375 28 15.59375 31.84375 
Q 16.59375 35.703125 18.796875 38.390625 
Q 21 41.09375 24.59375 42.5 
Q 28.203125 43.90625 33.296875 43.90625 
L 33.296875 52.90625 
Q 26.40625 53.09375 21.90625 50.09375 
Q 17.40625 47.09375 14.296875 40.796875 
L 14.09375 40.796875 
L 14.09375 51.703125 
z
" id="HelveticaNeue-114"/>
       </defs>
       <use xlink:href="#HelveticaNeue-65"/>
       <use x="64.799988" xlink:href="#HelveticaNeue-112"/>
       <use x="124.099976" xlink:href="#HelveticaNeue-114"/>
      </g>
     </g>
    </g>
    <g id="xtick_3">
     <g id="line2d_3">
      <g>
       <use style="fill:#555555;stroke:#555555;stroke-width:0.8;" x="141.725709" xlink:href="#m5343e93b58" y="262.5"/>
      </g>
     </g>
     <g id="text_2">
      <!-- Jul -->
      <g style="fill:#555555;" transform="translate(135.240552 276.640625)scale(0.1 -0.1)">
       <defs>
        <path d="M 44.09375 17.796875 
L 44.09375 71.40625 
L 34.59375 71.40625 
L 34.59375 19.203125 
Q 34.59375 13.296875 32.140625 9.796875 
Q 29.703125 6.296875 23.203125 6.296875 
Q 19.703125 6.296875 17.453125 7.34375 
Q 15.203125 8.40625 13.953125 10.296875 
Q 12.703125 12.203125 12.203125 14.796875 
Q 11.703125 17.40625 11.703125 20.5 
L 11.703125 23.5 
L 2.203125 23.5 
L 2.203125 19.09375 
Q 2.203125 8.90625 7.59375 3.65625 
Q 13 -1.59375 23 -1.59375 
Q 29 -1.59375 33.046875 0.046875 
Q 37.09375 1.703125 39.546875 4.453125 
Q 42 7.203125 43.046875 10.703125 
Q 44.09375 14.203125 44.09375 17.796875 
z
" id="HelveticaNeue-74"/>
        <path d="M 49.203125 0 
L 49.203125 51.703125 
L 40.703125 51.703125 
L 40.703125 22.5 
Q 40.703125 19 39.75 16.046875 
Q 38.796875 13.09375 36.890625 10.890625 
Q 35 8.703125 32.140625 7.5 
Q 29.296875 6.296875 25.40625 6.296875 
Q 20.5 6.296875 17.703125 9.09375 
Q 14.90625 11.90625 14.90625 16.703125 
L 14.90625 51.703125 
L 6.40625 51.703125 
L 6.40625 17.703125 
Q 6.40625 13.5 7.25 10.046875 
Q 8.09375 6.59375 10.1875 4.09375 
Q 12.296875 1.59375 15.6875 0.25 
Q 19.09375 -1.09375 24.203125 -1.09375 
Q 29.90625 -1.09375 34.09375 1.15625 
Q 38.296875 3.40625 41 8.203125 
L 41.203125 8.203125 
L 41.203125 0 
z
" id="HelveticaNeue-117"/>
        <path d="M 6.90625 71.40625 
L 6.90625 0 
L 15.40625 0 
L 15.40625 71.40625 
z
" id="HelveticaNeue-108"/>
       </defs>
       <use xlink:href="#HelveticaNeue-74"/>
       <use x="51.899994" xlink:href="#HelveticaNeue-117"/>
       <use x="107.499985" xlink:href="#HelveticaNeue-108"/>
      </g>
     </g>
    </g>
    <g id="xtick_4">
     <g id="line2d_4">
      <g>
       <use style="fill:#555555;stroke:#555555;stroke-width:0.8;" x="213.8917" xlink:href="#m5343e93b58" y="262.5"/>
      </g>
     </g>
     <g id="text_3">
      <!-- Oct -->
      <g style="fill:#555555;" transform="translate(205.831544 276.640625)scale(0.1 -0.1)">
       <defs>
        <path d="M 13.296875 35.703125 
Q 13.296875 41.09375 14.6875 46.34375 
Q 16.09375 51.59375 19.09375 55.796875 
Q 22.09375 60 26.796875 62.546875 
Q 31.5 65.09375 38 65.09375 
Q 44.5 65.09375 49.203125 62.546875 
Q 53.90625 60 56.90625 55.796875 
Q 59.90625 51.59375 61.296875 46.34375 
Q 62.703125 41.09375 62.703125 35.703125 
Q 62.703125 30.296875 61.296875 25.046875 
Q 59.90625 19.796875 56.90625 15.59375 
Q 53.90625 11.40625 49.203125 8.84375 
Q 44.5 6.296875 38 6.296875 
Q 31.5 6.296875 26.796875 8.84375 
Q 22.09375 11.40625 19.09375 15.59375 
Q 16.09375 19.796875 14.6875 25.046875 
Q 13.296875 30.296875 13.296875 35.703125 
z
M 3.796875 35.703125 
Q 3.796875 28.40625 5.9375 21.65625 
Q 8.09375 14.90625 12.390625 9.703125 
Q 16.703125 4.5 23.09375 1.453125 
Q 29.5 -1.59375 38 -1.59375 
Q 46.5 -1.59375 52.890625 1.453125 
Q 59.296875 4.5 63.59375 9.703125 
Q 67.90625 14.90625 70.046875 21.65625 
Q 72.203125 28.40625 72.203125 35.703125 
Q 72.203125 43 70.046875 49.75 
Q 67.90625 56.5 63.59375 61.703125 
Q 59.296875 66.90625 52.890625 70 
Q 46.5 73.09375 38 73.09375 
Q 29.5 73.09375 23.09375 70 
Q 16.703125 66.90625 12.390625 61.703125 
Q 8.09375 56.5 5.9375 49.75 
Q 3.796875 43 3.796875 35.703125 
z
" id="HelveticaNeue-79"/>
        <path d="M 41.5 35.09375 
L 50.296875 35.09375 
Q 49.796875 39.703125 47.890625 43.046875 
Q 46 46.40625 43.046875 48.59375 
Q 40.09375 50.796875 36.25 51.84375 
Q 32.40625 52.90625 28 52.90625 
Q 21.90625 52.90625 17.296875 50.75 
Q 12.703125 48.59375 9.640625 44.84375 
Q 6.59375 41.09375 5.09375 36.046875 
Q 3.59375 31 3.59375 25.203125 
Q 3.59375 19.40625 5.140625 14.546875 
Q 6.703125 9.703125 9.75 6.203125 
Q 12.796875 2.703125 17.34375 0.796875 
Q 21.90625 -1.09375 27.796875 -1.09375 
Q 37.703125 -1.09375 43.453125 4.09375 
Q 49.203125 9.296875 50.59375 18.90625 
L 41.90625 18.90625 
Q 41.09375 12.90625 37.546875 9.59375 
Q 34 6.296875 27.703125 6.296875 
Q 23.703125 6.296875 20.796875 7.890625 
Q 17.90625 9.5 16.09375 12.140625 
Q 14.296875 14.796875 13.4375 18.1875 
Q 12.59375 21.59375 12.59375 25.203125 
Q 12.59375 29.09375 13.390625 32.75 
Q 14.203125 36.40625 16.046875 39.203125 
Q 17.90625 42 21 43.703125 
Q 24.09375 45.40625 28.703125 45.40625 
Q 34.09375 45.40625 37.296875 42.703125 
Q 40.5 40 41.5 35.09375 
z
" id="HelveticaNeue-99"/>
        <path d="M 18.203125 51.703125 
L 18.203125 67.203125 
L 9.703125 67.203125 
L 9.703125 51.703125 
L 0.90625 51.703125 
L 0.90625 44.203125 
L 9.703125 44.203125 
L 9.703125 11.296875 
Q 9.703125 7.703125 10.390625 5.5 
Q 11.09375 3.296875 12.546875 2.09375 
Q 14 0.90625 16.34375 0.453125 
Q 18.703125 0 22 0 
L 28.5 0 
L 28.5 7.5 
L 24.59375 7.5 
Q 22.59375 7.5 21.34375 7.640625 
Q 20.09375 7.796875 19.390625 8.296875 
Q 18.703125 8.796875 18.453125 9.6875 
Q 18.203125 10.59375 18.203125 12.09375 
L 18.203125 44.203125 
L 28.5 44.203125 
L 28.5 51.703125 
z
" id="HelveticaNeue-116"/>
       </defs>
       <use xlink:href="#HelveticaNeue-79"/>
       <use x="75.999985" xlink:href="#HelveticaNeue-99"/>
       <use x="129.699982" xlink:href="#HelveticaNeue-116"/>
      </g>
     </g>
    </g>
    <g id="xtick_5">
     <g id="line2d_5">
      <g>
       <use style="fill:#555555;stroke:#555555;stroke-width:0.8;" x="286.057692" xlink:href="#m5343e93b58" y="262.5"/>
      </g>
     </g>
     <g id="text_4">
      <!-- Jan -->
      <g style="fill:#555555;" transform="translate(277.997536 276.640625)scale(0.1 -0.1)">
       <defs>
        <path d="M 52.203125 0.203125 
Q 50 -1.09375 46.09375 -1.09375 
Q 42.796875 -1.09375 40.84375 0.75 
Q 38.90625 2.59375 38.90625 6.796875 
Q 35.40625 2.59375 30.75 0.75 
Q 26.09375 -1.09375 20.703125 -1.09375 
Q 17.203125 -1.09375 14.046875 -0.296875 
Q 10.90625 0.5 8.59375 2.203125 
Q 6.296875 3.90625 4.9375 6.65625 
Q 3.59375 9.40625 3.59375 13.296875 
Q 3.59375 17.703125 5.09375 20.5 
Q 6.59375 23.296875 9.046875 25.046875 
Q 11.5 26.796875 14.640625 27.6875 
Q 17.796875 28.59375 21.09375 29.203125 
Q 24.59375 29.90625 27.75 30.25 
Q 30.90625 30.59375 33.296875 31.25 
Q 35.703125 31.90625 37.09375 33.15625 
Q 38.5 34.40625 38.5 36.796875 
Q 38.5 39.59375 37.453125 41.296875 
Q 36.40625 43 34.75 43.890625 
Q 33.09375 44.796875 31.046875 45.09375 
Q 29 45.40625 27 45.40625 
Q 21.59375 45.40625 18 43.34375 
Q 14.40625 41.296875 14.09375 35.59375 
L 5.59375 35.59375 
Q 5.796875 40.40625 7.59375 43.703125 
Q 9.40625 47 12.40625 49.046875 
Q 15.40625 51.09375 19.25 52 
Q 23.09375 52.90625 27.5 52.90625 
Q 31 52.90625 34.453125 52.40625 
Q 37.90625 51.90625 40.703125 50.34375 
Q 43.5 48.796875 45.203125 46 
Q 46.90625 43.203125 46.90625 38.703125 
L 46.90625 12.09375 
Q 46.90625 9.09375 47.25 7.6875 
Q 47.59375 6.296875 49.59375 6.296875 
Q 50.703125 6.296875 52.203125 6.796875 
z
M 38.40625 26.703125 
Q 36.796875 25.5 34.1875 24.953125 
Q 31.59375 24.40625 28.75 24.046875 
Q 25.90625 23.703125 23 23.25 
Q 20.09375 22.796875 17.796875 21.796875 
Q 15.5 20.796875 14.046875 18.9375 
Q 12.59375 17.09375 12.59375 13.90625 
Q 12.59375 11.796875 13.4375 10.34375 
Q 14.296875 8.90625 15.640625 8 
Q 17 7.09375 18.796875 6.6875 
Q 20.59375 6.296875 22.59375 6.296875 
Q 26.796875 6.296875 29.796875 7.4375 
Q 32.796875 8.59375 34.6875 10.34375 
Q 36.59375 12.09375 37.5 14.140625 
Q 38.40625 16.203125 38.40625 18 
z
" id="HelveticaNeue-97"/>
        <path d="M 6.40625 51.703125 
L 6.40625 0 
L 14.90625 0 
L 14.90625 29.203125 
Q 14.90625 32.703125 15.84375 35.640625 
Q 16.796875 38.59375 18.6875 40.796875 
Q 20.59375 43 23.4375 44.203125 
Q 26.296875 45.40625 30.203125 45.40625 
Q 35.09375 45.40625 37.890625 42.59375 
Q 40.703125 39.796875 40.703125 35 
L 40.703125 0 
L 49.203125 0 
L 49.203125 34 
Q 49.203125 38.203125 48.34375 41.640625 
Q 47.5 45.09375 45.390625 47.59375 
Q 43.296875 50.09375 39.890625 51.5 
Q 36.5 52.90625 31.40625 52.90625 
Q 19.90625 52.90625 14.59375 43.5 
L 14.40625 43.5 
L 14.40625 51.703125 
z
" id="HelveticaNeue-110"/>
       </defs>
       <use xlink:href="#HelveticaNeue-74"/>
       <use x="51.899994" xlink:href="#HelveticaNeue-97"/>
       <use x="105.599991" xlink:href="#HelveticaNeue-110"/>
      </g>
      <!-- 2021 -->
      <g style="fill:#555555;" transform="translate(274.938942 287.179688)scale(0.1 -0.1)">
       <defs>
        <path d="M 4.40625 45.796875 
L 12.90625 45.796875 
Q 12.796875 49 13.546875 52.140625 
Q 14.296875 55.296875 16 57.796875 
Q 17.703125 60.296875 20.34375 61.84375 
Q 23 63.40625 26.703125 63.40625 
Q 29.5 63.40625 32 62.5 
Q 34.5 61.59375 36.34375 59.890625 
Q 38.203125 58.203125 39.296875 55.84375 
Q 40.40625 53.5 40.40625 50.59375 
Q 40.40625 46.90625 39.25 44.09375 
Q 38.09375 41.296875 35.84375 38.890625 
Q 33.59375 36.5 30.1875 34.140625 
Q 26.796875 31.796875 22.296875 29 
Q 18.59375 26.796875 15.1875 24.296875 
Q 11.796875 21.796875 9.09375 18.5 
Q 6.40625 15.203125 4.65625 10.75 
Q 2.90625 6.296875 2.40625 0 
L 48.703125 0 
L 48.703125 7.5 
L 12.296875 7.5 
Q 12.90625 10.796875 14.84375 13.34375 
Q 16.796875 15.90625 19.546875 18.09375 
Q 22.296875 20.296875 25.59375 22.25 
Q 28.90625 24.203125 32.203125 26.203125 
Q 35.5 28.296875 38.59375 30.59375 
Q 41.703125 32.90625 44.09375 35.75 
Q 46.5 38.59375 47.953125 42.1875 
Q 49.40625 45.796875 49.40625 50.5 
Q 49.40625 55.5 47.65625 59.296875 
Q 45.90625 63.09375 42.90625 65.640625 
Q 39.90625 68.203125 35.84375 69.546875 
Q 31.796875 70.90625 27.203125 70.90625 
Q 21.59375 70.90625 17.1875 69 
Q 12.796875 67.09375 9.84375 63.75 
Q 6.90625 60.40625 5.5 55.796875 
Q 4.09375 51.203125 4.40625 45.796875 
z
" id="HelveticaNeue-50"/>
        <path d="M 13.203125 34.90625 
Q 13.203125 37.5 13.25 40.640625 
Q 13.296875 43.796875 13.75 46.9375 
Q 14.203125 50.09375 15.046875 53.09375 
Q 15.90625 56.09375 17.546875 58.34375 
Q 19.203125 60.59375 21.703125 62 
Q 24.203125 63.40625 27.796875 63.40625 
Q 31.40625 63.40625 33.90625 62 
Q 36.40625 60.59375 38.046875 58.34375 
Q 39.703125 56.09375 40.546875 53.09375 
Q 41.40625 50.09375 41.84375 46.9375 
Q 42.296875 43.796875 42.34375 40.640625 
Q 42.40625 37.5 42.40625 34.90625 
Q 42.40625 30.90625 42.15625 25.953125 
Q 41.90625 21 40.546875 16.640625 
Q 39.203125 12.296875 36.203125 9.296875 
Q 33.203125 6.296875 27.796875 6.296875 
Q 22.40625 6.296875 19.40625 9.296875 
Q 16.40625 12.296875 15.046875 16.640625 
Q 13.703125 21 13.453125 25.953125 
Q 13.203125 30.90625 13.203125 34.90625 
z
M 4.203125 34.796875 
Q 4.203125 30.90625 4.390625 26.703125 
Q 4.59375 22.5 5.390625 18.5 
Q 6.203125 14.5 7.703125 10.953125 
Q 9.203125 7.40625 11.796875 4.703125 
Q 14.40625 2 18.34375 0.453125 
Q 22.296875 -1.09375 27.796875 -1.09375 
Q 33.40625 -1.09375 37.296875 0.453125 
Q 41.203125 2 43.796875 4.703125 
Q 46.40625 7.40625 47.90625 10.953125 
Q 49.40625 14.5 50.203125 18.5 
Q 51 22.5 51.203125 26.703125 
Q 51.40625 30.90625 51.40625 34.796875 
Q 51.40625 38.703125 51.203125 42.890625 
Q 51 47.09375 50.203125 51.09375 
Q 49.40625 55.09375 47.90625 58.6875 
Q 46.40625 62.296875 43.796875 65 
Q 41.203125 67.703125 37.25 69.296875 
Q 33.296875 70.90625 27.796875 70.90625 
Q 22.296875 70.90625 18.34375 69.296875 
Q 14.40625 67.703125 11.796875 65 
Q 9.203125 62.296875 7.703125 58.6875 
Q 6.203125 55.09375 5.390625 51.09375 
Q 4.59375 47.09375 4.390625 42.890625 
Q 4.203125 38.703125 4.203125 34.796875 
z
" id="HelveticaNeue-48"/>
        <path d="M 35.59375 0 
L 35.59375 70.90625 
L 29.09375 70.90625 
Q 28.40625 66.90625 26.5 64.296875 
Q 24.59375 61.703125 21.84375 60.203125 
Q 19.09375 58.703125 15.6875 58.140625 
Q 12.296875 57.59375 8.703125 57.59375 
L 8.703125 50.796875 
L 27.09375 50.796875 
L 27.09375 0 
z
" id="HelveticaNeue-49"/>
       </defs>
       <use xlink:href="#HelveticaNeue-50"/>
       <use x="55.599991" xlink:href="#HelveticaNeue-48"/>
       <use x="111.199982" xlink:href="#HelveticaNeue-50"/>
       <use x="166.799973" xlink:href="#HelveticaNeue-49"/>
      </g>
     </g>
    </g>
    <g id="xtick_6">
     <g id="line2d_6">
      <g>
       <use style="fill:#555555;stroke:#555555;stroke-width:0.8;" x="356.654858" xlink:href="#m5343e93b58" y="262.5"/>
      </g>
     </g>
     <g id="text_5">
      <!-- Apr -->
      <g style="fill:#555555;" transform="translate(348.785327 276.640625)scale(0.1 -0.1)">
       <use xlink:href="#HelveticaNeue-65"/>
       <use x="64.799988" xlink:href="#HelveticaNeue-112"/>
       <use x="124.099976" xlink:href="#HelveticaNeue-114"/>
      </g>
     </g>
    </g>
    <g id="xtick_7">
     <g id="line2d_7">
      <g>
       <use style="fill:#555555;stroke:#555555;stroke-width:0.8;" x="428.036437" xlink:href="#m5343e93b58" y="262.5"/>
      </g>
     </g>
     <g id="text_6">
      <!-- Jul -->
      <g style="fill:#555555;" transform="translate(421.551281 276.640625)scale(0.1 -0.1)">
       <use xlink:href="#HelveticaNeue-74"/>
       <use x="51.899994" xlink:href="#HelveticaNeue-117"/>
       <use x="107.499985" xlink:href="#HelveticaNeue-108"/>
      </g>
     </g>
    </g>
    <g id="xtick_8">
     <g id="line2d_8">
      <g>
       <use style="fill:#555555;stroke:#555555;stroke-width:0.8;" x="450" xlink:href="#m5343e93b58" y="262.5"/>
      </g>
     </g>
    </g>
    <g id="xtick_9">
     <g id="line2d_9">
      <defs>
       <path d="M 0 0 
L 0 2 
" id="mdaaff4ce8d" style="stroke:#555555;stroke-width:0.6;"/>
      </defs>
      <g>
       <use style="fill:#555555;stroke:#555555;stroke-width:0.6;" x="93.876518" xlink:href="#mdaaff4ce8d" y="262.5"/>
      </g>
     </g>
    </g>
    <g id="xtick_10">
     <g id="line2d_10">
      <g>
       <use style="fill:#555555;stroke:#555555;stroke-width:0.6;" x="118.19332" xlink:href="#mdaaff4ce8d" y="262.5"/>
      </g>
     </g>
    </g>
    <g id="xtick_11">
     <g id="line2d_11">
      <g>
       <use style="fill:#555555;stroke:#555555;stroke-width:0.6;" x="166.04251" xlink:href="#mdaaff4ce8d" y="262.5"/>
      </g>
     </g>
    </g>
    <g id="xtick_12">
     <g id="line2d_12">
      <g>
       <use style="fill:#555555;stroke:#555555;stroke-width:0.6;" x="190.359312" xlink:href="#mdaaff4ce8d" y="262.5"/>
      </g>
     </g>
    </g>
    <g id="xtick_13">
     <g id="line2d_13">
      <g>
       <use style="fill:#555555;stroke:#555555;stroke-width:0.6;" x="238.208502" xlink:href="#mdaaff4ce8d" y="262.5"/>
      </g>
     </g>
    </g>
    <g id="xtick_14">
     <g id="line2d_14">
      <g>
       <use style="fill:#555555;stroke:#555555;stroke-width:0.6;" x="261.740891" xlink:href="#mdaaff4ce8d" y="262.5"/>
      </g>
     </g>
    </g>
    <g id="xtick_15">
     <g id="line2d_15">
      <g>
       <use style="fill:#555555;stroke:#555555;stroke-width:0.6;" x="310.374494" xlink:href="#mdaaff4ce8d" y="262.5"/>
      </g>
     </g>
    </g>
    <g id="xtick_16">
     <g id="line2d_16">
      <g>
       <use style="fill:#555555;stroke:#555555;stroke-width:0.6;" x="332.338057" xlink:href="#mdaaff4ce8d" y="262.5"/>
      </g>
     </g>
    </g>
    <g id="xtick_17">
     <g id="line2d_17">
      <g>
       <use style="fill:#555555;stroke:#555555;stroke-width:0.6;" x="380.187247" xlink:href="#mdaaff4ce8d" y="262.5"/>
      </g>
     </g>
    </g>
    <g id="xtick_18">
     <g id="line2d_18">
      <g>
       <use style="fill:#555555;stroke:#555555;stroke-width:0.6;" x="404.504049" xlink:href="#mdaaff4ce8d" y="262.5"/>
      </g>
     </g>
    </g>
    <g id="text_7">
     <!-- fecha -->
     <g style="fill:#555555;" transform="translate(243.935156 300.290625)scale(0.1 -0.1)">
      <defs>
       <path d="M 9.90625 44.203125 
L 9.90625 0 
L 18.40625 0 
L 18.40625 44.203125 
L 28.40625 44.203125 
L 28.40625 51.703125 
L 18.40625 51.703125 
L 18.40625 58.90625 
Q 18.40625 62.296875 20.09375 63.5 
Q 21.796875 64.703125 24.90625 64.703125 
Q 26 64.703125 27.296875 64.546875 
Q 28.59375 64.40625 29.703125 64 
L 29.703125 71.40625 
Q 28.5 71.796875 26.953125 72 
Q 25.40625 72.203125 24.203125 72.203125 
Q 17.203125 72.203125 13.546875 68.953125 
Q 9.90625 65.703125 9.90625 59.40625 
L 9.90625 51.703125 
L 1.203125 51.703125 
L 1.203125 44.203125 
z
" id="HelveticaNeue-102"/>
       <path d="M 42.296875 30.796875 
L 12.59375 30.796875 
Q 12.796875 33.796875 13.890625 36.4375 
Q 15 39.09375 16.890625 41.09375 
Q 18.796875 43.09375 21.4375 44.25 
Q 24.09375 45.40625 27.40625 45.40625 
Q 30.59375 45.40625 33.25 44.25 
Q 35.90625 43.09375 37.84375 41.140625 
Q 39.796875 39.203125 40.9375 36.5 
Q 42.09375 33.796875 42.296875 30.796875 
z
M 50.5 16.40625 
L 42.09375 16.40625 
Q 41 11.296875 37.546875 8.796875 
Q 34.09375 6.296875 28.703125 6.296875 
Q 24.5 6.296875 21.390625 7.6875 
Q 18.296875 9.09375 16.296875 11.4375 
Q 14.296875 13.796875 13.390625 16.84375 
Q 12.5 19.90625 12.59375 23.296875 
L 51.296875 23.296875 
Q 51.5 28 50.453125 33.203125 
Q 49.40625 38.40625 46.65625 42.796875 
Q 43.90625 47.203125 39.34375 50.046875 
Q 34.796875 52.90625 27.90625 52.90625 
Q 22.59375 52.90625 18.140625 50.90625 
Q 13.703125 48.90625 10.453125 45.296875 
Q 7.203125 41.703125 5.390625 36.796875 
Q 3.59375 31.90625 3.59375 26 
Q 3.796875 20.09375 5.34375 15.09375 
Q 6.90625 10.09375 10 6.5 
Q 13.09375 2.90625 17.640625 0.90625 
Q 22.203125 -1.09375 28.40625 -1.09375 
Q 37.203125 -1.09375 43 3.296875 
Q 48.796875 7.703125 50.5 16.40625 
z
" id="HelveticaNeue-101"/>
       <path d="M 6.40625 71.40625 
L 6.40625 0 
L 14.90625 0 
L 14.90625 29.203125 
Q 14.90625 32.703125 15.84375 35.640625 
Q 16.796875 38.59375 18.6875 40.796875 
Q 20.59375 43 23.4375 44.203125 
Q 26.296875 45.40625 30.203125 45.40625 
Q 35.09375 45.40625 37.890625 42.59375 
Q 40.703125 39.796875 40.703125 35 
L 40.703125 0 
L 49.203125 0 
L 49.203125 34 
Q 49.203125 38.203125 48.34375 41.640625 
Q 47.5 45.09375 45.390625 47.59375 
Q 43.296875 50.09375 39.890625 51.5 
Q 36.5 52.90625 31.40625 52.90625 
Q 29.09375 52.90625 26.640625 52.40625 
Q 24.203125 51.90625 21.953125 50.84375 
Q 19.703125 49.796875 17.890625 48.140625 
Q 16.09375 46.5 15.09375 44.09375 
L 14.90625 44.09375 
L 14.90625 71.40625 
z
" id="HelveticaNeue-104"/>
      </defs>
      <use xlink:href="#HelveticaNeue-102"/>
      <use x="29.599991" xlink:href="#HelveticaNeue-101"/>
      <use x="83.299988" xlink:href="#HelveticaNeue-99"/>
      <use x="136.999985" xlink:href="#HelveticaNeue-104"/>
      <use x="192.599976" xlink:href="#HelveticaNeue-97"/>
     </g>
    </g>
   </g>
   <g id="matplotlib.axis_2">
    <g id="ytick_1">
     <g id="line2d_19">
      <defs>
       <path d="M 0 0 
L -3.5 0 
" id="md0483b21a9" style="stroke:#555555;stroke-width:0.8;"/>
      </defs>
      <g>
       <use style="fill:#555555;stroke:#555555;stroke-width:0.8;" x="62.5" xlink:href="#md0483b21a9" y="251.795455"/>
      </g>
     </g>
     <g id="text_8">
      <!-- 0 -->
      <g style="fill:#555555;" transform="translate(49.940625 255.365767)scale(0.1 -0.1)">
       <use xlink:href="#HelveticaNeue-48"/>
      </g>
     </g>
    </g>
    <g id="ytick_2">
     <g id="line2d_20">
      <g>
       <use style="fill:#555555;stroke:#555555;stroke-width:0.8;" x="62.5" xlink:href="#md0483b21a9" y="219.209319"/>
      </g>
     </g>
     <g id="text_9">
      <!-- 100 -->
      <g style="fill:#555555;" transform="translate(38.821875 222.779632)scale(0.1 -0.1)">
       <use xlink:href="#HelveticaNeue-49"/>
       <use x="55.599991" xlink:href="#HelveticaNeue-48"/>
       <use x="111.199982" xlink:href="#HelveticaNeue-48"/>
      </g>
     </g>
    </g>
    <g id="ytick_3">
     <g id="line2d_21">
      <g>
       <use style="fill:#555555;stroke:#555555;stroke-width:0.8;" x="62.5" xlink:href="#md0483b21a9" y="186.623184"/>
      </g>
     </g>
     <g id="text_10">
      <!-- 200 -->
      <g style="fill:#555555;" transform="translate(38.821875 190.193496)scale(0.1 -0.1)">
       <use xlink:href="#HelveticaNeue-50"/>
       <use x="55.599991" xlink:href="#HelveticaNeue-48"/>
       <use x="111.199982" xlink:href="#HelveticaNeue-48"/>
      </g>
     </g>
    </g>
    <g id="ytick_4">
     <g id="line2d_22">
      <g>
       <use style="fill:#555555;stroke:#555555;stroke-width:0.8;" x="62.5" xlink:href="#md0483b21a9" y="154.037049"/>
      </g>
     </g>
     <g id="text_11">
      <!-- 300 -->
      <g style="fill:#555555;" transform="translate(38.821875 157.607361)scale(0.1 -0.1)">
       <defs>
        <path d="M 21.796875 40.5 
L 21.796875 33.296875 
Q 24.203125 33.59375 26.90625 33.59375 
Q 30.09375 33.59375 32.84375 32.75 
Q 35.59375 31.90625 37.59375 30.15625 
Q 39.59375 28.40625 40.796875 25.84375 
Q 42 23.296875 42 20 
Q 42 16.796875 40.75 14.25 
Q 39.5 11.703125 37.390625 9.953125 
Q 35.296875 8.203125 32.5 7.25 
Q 29.703125 6.296875 26.59375 6.296875 
Q 19.296875 6.296875 15.5 10.640625 
Q 11.703125 15 11.5 21.90625 
L 3 21.90625 
Q 2.90625 16.40625 4.546875 12.09375 
Q 6.203125 7.796875 9.296875 4.84375 
Q 12.40625 1.90625 16.796875 0.40625 
Q 21.203125 -1.09375 26.59375 -1.09375 
Q 31.59375 -1.09375 36.046875 0.25 
Q 40.5 1.59375 43.796875 4.296875 
Q 47.09375 7 49.046875 11.046875 
Q 51 15.09375 51 20.40625 
Q 51 26.796875 47.84375 31.5 
Q 44.703125 36.203125 38.203125 37.59375 
L 38.203125 37.796875 
Q 42.40625 39.703125 45.203125 43.390625 
Q 48 47.09375 48 51.90625 
Q 48 56.796875 46.34375 60.390625 
Q 44.703125 64 41.796875 66.296875 
Q 38.90625 68.59375 34.953125 69.75 
Q 31 70.90625 26.40625 70.90625 
Q 21.09375 70.90625 17.046875 69.203125 
Q 13 67.5 10.296875 64.5 
Q 7.59375 61.5 6.140625 57.296875 
Q 4.703125 53.09375 4.5 48 
L 13 48 
Q 13 51.09375 13.796875 53.890625 
Q 14.59375 56.703125 16.25 58.796875 
Q 17.90625 60.90625 20.453125 62.15625 
Q 23 63.40625 26.40625 63.40625 
Q 31.796875 63.40625 35.390625 60.546875 
Q 39 57.703125 39 52 
Q 39 49.203125 37.890625 47 
Q 36.796875 44.796875 34.9375 43.34375 
Q 33.09375 41.90625 30.640625 41.15625 
Q 28.203125 40.40625 25.5 40.40625 
L 23.703125 40.40625 
Q 23.203125 40.40625 22.703125 40.40625 
Q 22.296875 40.40625 21.796875 40.5 
z
" id="HelveticaNeue-51"/>
       </defs>
       <use xlink:href="#HelveticaNeue-51"/>
       <use x="55.599991" xlink:href="#HelveticaNeue-48"/>
       <use x="111.199982" xlink:href="#HelveticaNeue-48"/>
      </g>
     </g>
    </g>
    <g id="ytick_5">
     <g id="line2d_23">
      <g>
       <use style="fill:#555555;stroke:#555555;stroke-width:0.8;" x="62.5" xlink:href="#md0483b21a9" y="121.450913"/>
      </g>
     </g>
     <g id="text_12">
      <!-- 400 -->
      <g style="fill:#555555;" transform="translate(38.821875 125.021226)scale(0.1 -0.1)">
       <defs>
        <path d="M 33.90625 24.09375 
L 10.09375 24.09375 
L 33.703125 58.796875 
L 33.90625 58.796875 
z
M 41.90625 24.09375 
L 41.90625 70.90625 
L 35.09375 70.90625 
L 2.796875 24.796875 
L 2.796875 16.59375 
L 33.90625 16.59375 
L 33.90625 0 
L 41.90625 0 
L 41.90625 16.59375 
L 51.5 16.59375 
L 51.5 24.09375 
z
" id="HelveticaNeue-52"/>
       </defs>
       <use xlink:href="#HelveticaNeue-52"/>
       <use x="55.599991" xlink:href="#HelveticaNeue-48"/>
       <use x="111.199982" xlink:href="#HelveticaNeue-48"/>
      </g>
     </g>
    </g>
    <g id="ytick_6">
     <g id="line2d_24">
      <g>
       <use style="fill:#555555;stroke:#555555;stroke-width:0.8;" x="62.5" xlink:href="#md0483b21a9" y="88.864778"/>
      </g>
     </g>
     <g id="text_13">
      <!-- 500 -->
      <g style="fill:#555555;" transform="translate(38.821875 92.43509)scale(0.1 -0.1)">
       <defs>
        <path d="M 47 62.203125 
L 47 69.703125 
L 12 69.703125 
L 5.40625 32.90625 
L 12.703125 32.5 
Q 15.203125 35.5 18.453125 37.34375 
Q 21.703125 39.203125 25.90625 39.203125 
Q 29.5 39.203125 32.453125 38 
Q 35.40625 36.796875 37.5 34.640625 
Q 39.59375 32.5 40.75 29.546875 
Q 41.90625 26.59375 41.90625 23.09375 
Q 41.90625 18.90625 40.703125 15.75 
Q 39.5 12.59375 37.453125 10.5 
Q 35.40625 8.40625 32.65625 7.34375 
Q 29.90625 6.296875 26.90625 6.296875 
Q 23.703125 6.296875 21.046875 7.25 
Q 18.40625 8.203125 16.453125 9.953125 
Q 14.5 11.703125 13.34375 14.046875 
Q 12.203125 16.40625 12 19.09375 
L 3.5 19.09375 
Q 3.59375 14.296875 5.390625 10.5 
Q 7.203125 6.703125 10.296875 4.140625 
Q 13.40625 1.59375 17.453125 0.25 
Q 21.5 -1.09375 26.09375 -1.09375 
Q 32.296875 -1.09375 36.9375 0.84375 
Q 41.59375 2.796875 44.6875 6.09375 
Q 47.796875 9.40625 49.34375 13.65625 
Q 50.90625 17.90625 50.90625 22.40625 
Q 50.90625 28.5 49.09375 33.046875 
Q 47.296875 37.59375 44.1875 40.640625 
Q 41.09375 43.703125 36.890625 45.203125 
Q 32.703125 46.703125 28 46.703125 
Q 24.40625 46.703125 20.75 45.453125 
Q 17.09375 44.203125 14.796875 41.59375 
L 14.59375 41.796875 
L 18.40625 62.203125 
z
" id="HelveticaNeue-53"/>
       </defs>
       <use xlink:href="#HelveticaNeue-53"/>
       <use x="55.599991" xlink:href="#HelveticaNeue-48"/>
       <use x="111.199982" xlink:href="#HelveticaNeue-48"/>
      </g>
     </g>
    </g>
    <g id="ytick_7">
     <g id="line2d_25">
      <g>
       <use style="fill:#555555;stroke:#555555;stroke-width:0.8;" x="62.5" xlink:href="#md0483b21a9" y="56.278643"/>
      </g>
     </g>
     <g id="text_14">
      <!-- 600 -->
      <g style="fill:#555555;" transform="translate(38.821875 59.848955)scale(0.1 -0.1)">
       <defs>
        <path d="M 41.40625 52.796875 
L 49.90625 52.796875 
Q 49.09375 61.59375 43.890625 66.25 
Q 38.703125 70.90625 29.90625 70.90625 
Q 22.296875 70.90625 17.296875 67.703125 
Q 12.296875 64.5 9.296875 59.203125 
Q 6.296875 53.90625 5.046875 47.046875 
Q 3.796875 40.203125 3.796875 32.90625 
Q 3.796875 27.296875 4.640625 21.296875 
Q 5.5 15.296875 8.09375 10.296875 
Q 10.703125 5.296875 15.5 2.09375 
Q 20.296875 -1.09375 28.203125 -1.09375 
Q 34.90625 -1.09375 39.453125 1.15625 
Q 44 3.40625 46.75 6.84375 
Q 49.5 10.296875 50.703125 14.5 
Q 51.90625 18.703125 51.90625 22.59375 
Q 51.90625 27.5 50.40625 31.703125 
Q 48.90625 35.90625 46.15625 39 
Q 43.40625 42.09375 39.34375 43.84375 
Q 35.296875 45.59375 30.203125 45.59375 
Q 24.40625 45.59375 19.953125 43.390625 
Q 15.5 41.203125 12.5 36.296875 
L 12.296875 36.5 
Q 12.40625 40.59375 13.09375 45.296875 
Q 13.796875 50 15.640625 54.046875 
Q 17.5 58.09375 20.796875 60.75 
Q 24.09375 63.40625 29.5 63.40625 
Q 34.59375 63.40625 37.6875 60.5 
Q 40.796875 57.59375 41.40625 52.796875 
z
M 28.59375 38.09375 
Q 32.203125 38.09375 34.890625 36.796875 
Q 37.59375 35.5 39.390625 33.34375 
Q 41.203125 31.203125 42.046875 28.25 
Q 42.90625 25.296875 42.90625 22 
Q 42.90625 18.90625 41.953125 16.046875 
Q 41 13.203125 39.203125 11 
Q 37.40625 8.796875 34.75 7.546875 
Q 32.09375 6.296875 28.59375 6.296875 
Q 25.09375 6.296875 22.34375 7.546875 
Q 19.59375 8.796875 17.75 10.890625 
Q 15.90625 13 14.90625 15.890625 
Q 13.90625 18.796875 13.90625 22.09375 
Q 13.90625 25.40625 14.84375 28.34375 
Q 15.796875 31.296875 17.6875 33.4375 
Q 19.59375 35.59375 22.296875 36.84375 
Q 25 38.09375 28.59375 38.09375 
z
" id="HelveticaNeue-54"/>
       </defs>
       <use xlink:href="#HelveticaNeue-54"/>
       <use x="55.599991" xlink:href="#HelveticaNeue-48"/>
       <use x="111.199982" xlink:href="#HelveticaNeue-48"/>
      </g>
     </g>
    </g>
   </g>
   <g id="line2d_26">
    <path clip-path="url(#peee4cd0412)" d="M 63.284413 251.795455 
L 64.068826 250.492009 
L 64.853239 250.81787 
L 65.637652 249.840286 
L 66.422065 251.795455 
L 67.206478 250.166148 
L 67.990891 251.469593 
L 69.559717 250.81787 
L 70.34413 251.795455 
L 71.128543 250.492009 
L 71.912955 249.514425 
L 72.697368 249.514425 
L 73.481781 251.795455 
L 74.266194 248.862702 
L 75.050607 249.514425 
L 75.83502 251.469593 
L 76.619433 250.492009 
L 78.188259 251.795455 
L 78.972672 251.795455 
L 79.757085 250.81787 
L 80.541498 251.469593 
L 81.325911 250.81787 
L 82.110324 249.840286 
L 82.894737 250.492009 
L 83.67915 249.188564 
L 84.463563 250.81787 
L 85.247976 250.81787 
L 86.032389 251.795455 
L 86.816802 251.469593 
L 87.601215 250.166148 
L 88.385628 250.492009 
L 89.17004 250.492009 
L 89.954453 249.840286 
L 90.738866 249.840286 
L 91.523279 249.514425 
L 92.307692 250.81787 
L 93.092105 249.514425 
L 93.876518 250.492009 
L 94.660931 250.492009 
L 95.445344 247.559257 
L 96.229757 248.862702 
L 97.01417 249.514425 
L 97.798583 250.492009 
L 98.582996 249.514425 
L 99.367409 249.514425 
L 100.151822 249.840286 
L 100.936235 242.997198 
L 101.720648 249.188564 
L 102.505061 250.492009 
L 103.289474 250.166148 
L 104.073887 248.21098 
L 104.8583 247.559257 
L 105.642713 246.581673 
L 106.427126 249.188564 
L 107.211538 251.143732 
L 107.995951 245.92995 
L 108.780364 245.278227 
L 109.564777 249.514425 
L 110.34919 245.92995 
L 111.133603 246.907534 
L 111.918016 251.469593 
L 112.702429 246.255812 
L 113.486842 249.840286 
L 114.271255 245.604089 
L 115.055668 242.671337 
L 115.840081 247.885118 
L 116.624494 249.188564 
L 117.408907 242.671337 
L 118.19332 242.671337 
L 118.977733 245.278227 
L 119.762146 242.671337 
L 120.546559 249.514425 
L 121.330972 244.626505 
L 122.115385 248.21098 
L 122.899798 248.21098 
L 123.684211 247.233396 
L 124.468623 242.671337 
L 125.253036 246.255812 
L 126.037449 245.604089 
L 126.821862 241.04203 
L 127.606275 246.907534 
L 128.390688 248.21098 
L 129.175101 245.92995 
L 129.959514 239.412723 
L 130.743927 242.019614 
L 131.52834 241.367891 
L 132.312753 238.761 
L 133.097166 233.547219 
L 133.881579 237.131694 
L 134.665992 235.828248 
L 135.450405 243.648921 
L 136.234818 228.007576 
L 137.019231 242.019614 
L 137.803644 235.176526 
L 138.588057 231.917912 
L 139.37247 227.355853 
L 140.156883 246.255812 
L 140.941296 231.917912 
L 141.725709 237.783416 
L 142.510121 231.917912 
L 143.294534 231.266189 
L 144.078947 233.547219 
L 144.86336 238.435139 
L 146.432186 221.81621 
L 147.216599 228.333437 
L 148.001012 235.828248 
L 148.785425 219.209319 
L 149.569838 225.726546 
L 150.354251 229.311021 
L 151.138664 222.142071 
L 151.923077 233.221357 
L 152.70749 229.311021 
L 153.491903 218.557597 
L 154.276316 222.467933 
L 155.060729 207.478311 
L 155.845142 221.490349 
L 156.629555 227.355853 
L 157.413968 196.399024 
L 158.198381 200.961083 
L 158.982794 220.838626 
L 159.767206 195.095579 
L 160.551619 211.062785 
L 161.336032 218.883458 
L 162.120445 188.578352 
L 162.904858 194.117995 
L 163.689271 205.523142 
L 165.258097 200.309361 
L 166.04251 201.612806 
L 166.826923 216.92829 
L 167.611336 204.87142 
L 168.395749 155.666355 
L 169.180162 202.916252 
L 169.964575 205.197281 
L 170.748988 180.431818 
L 171.533401 200.309361 
L 172.317814 211.062785 
L 173.102227 169.026671 
L 173.88664 196.399024 
L 174.671053 200.309361 
L 175.455466 185.6456 
L 176.239879 190.53352 
L 177.024291 176.195621 
L 177.808704 183.038709 
L 178.593117 200.309361 
L 179.37753 153.059465 
L 180.161943 214.64726 
L 180.946356 199.331777 
L 181.730769 199.331777 
L 182.515182 215.298983 
L 183.299595 198.354193 
L 184.084008 215.298983 
L 184.868421 198.028331 
L 185.652834 213.995538 
L 186.437247 219.209319 
L 187.22166 209.75934 
L 188.006073 228.007576 
L 188.790486 220.512765 
L 189.574899 203.567974 
L 190.359312 197.376609 
L 191.143725 228.007576 
L 191.928138 213.017954 
L 192.712551 194.443856 
L 193.496964 226.70413 
L 194.281377 233.547219 
L 195.065789 221.164487 
L 195.850202 228.007576 
L 196.634615 215.950706 
L 197.419028 216.92829 
L 198.203441 204.87142 
L 198.987854 226.70413 
L 199.772267 236.479971 
L 200.55668 226.052408 
L 201.341093 221.81621 
L 202.125506 213.343815 
L 202.909919 218.557597 
L 203.694332 217.254151 
L 204.478745 231.592051 
L 205.263158 234.198941 
L 206.047571 229.311021 
L 206.831984 226.70413 
L 207.616397 215.624844 
L 208.40081 221.490349 
L 209.185223 221.164487 
L 209.969636 228.98516 
L 210.754049 233.87308 
L 211.538462 229.962744 
L 212.322874 213.343815 
L 213.107287 232.895496 
L 213.8917 221.81621 
L 214.676113 195.42144 
L 215.460526 211.388647 
L 216.244939 216.602428 
L 217.029352 225.074824 
L 217.813765 221.164487 
L 218.598178 223.119655 
L 219.382591 218.883458 
L 220.167004 224.09724 
L 220.951417 227.029992 
L 221.73583 231.592051 
L 222.520243 238.435139 
L 223.304656 238.761 
L 224.089069 228.98516 
L 224.873482 209.433479 
L 225.657895 216.92829 
L 226.442308 220.838626 
L 227.226721 229.962744 
L 228.011134 228.007576 
L 228.795547 217.254151 
L 229.57996 209.107617 
L 230.364372 204.87142 
L 231.148785 210.411063 
L 231.933198 226.70413 
L 232.717611 223.119655 
L 233.502024 221.164487 
L 234.286437 203.242113 
L 235.07085 197.050747 
L 235.855263 214.64726 
L 236.639676 214.973122 
L 237.424089 219.535181 
L 238.208502 222.793794 
L 238.992915 215.950706 
L 239.777328 212.692092 
L 240.561741 208.781756 
L 241.346154 215.298983 
L 242.130567 213.995538 
L 242.91498 211.714508 
L 244.483806 227.029992 
L 245.268219 219.209319 
L 246.052632 222.467933 
L 246.837045 219.535181 
L 247.621457 215.950706 
L 248.40587 233.221357 
L 249.190283 240.064446 
L 249.974696 220.838626 
L 250.759109 214.973122 
L 251.543522 233.221357 
L 252.327935 214.64726 
L 253.112348 211.388647 
L 253.896761 228.333437 
L 254.681174 216.276567 
L 255.465587 216.92829 
L 256.25 213.995538 
L 257.034413 212.692092 
L 257.818826 204.545558 
L 258.603239 203.567974 
L 259.387652 212.040369 
L 260.172065 227.681714 
L 260.956478 216.92829 
L 261.740891 207.804172 
L 262.525304 215.298983 
L 263.309717 213.669676 
L 264.09413 202.916252 
L 264.878543 209.107617 
L 265.662955 232.569635 
L 266.447368 215.298983 
L 267.231781 216.276567 
L 268.016194 207.478311 
L 268.800607 192.162827 
L 269.58502 190.207659 
L 270.369433 198.680054 
L 271.153846 208.455895 
L 272.722672 182.061125 
L 273.507085 181.735264 
L 274.291498 199.983499 
L 275.075911 183.690432 
L 275.860324 180.75768 
L 276.644737 210.085201 
L 277.42915 187.600768 
L 278.213563 179.454234 
L 278.997976 159.576692 
L 279.782389 190.207659 
L 280.566802 200.635222 
L 281.351215 199.657638 
L 282.135628 180.75768 
L 282.92004 174.240452 
L 283.704453 136.114674 
L 284.488866 139.699149 
L 285.273279 187.274907 
L 286.057692 224.09724 
L 287.626518 140.02501 
L 288.410931 170.981839 
L 289.195344 118.1923 
L 289.979757 121.125052 
L 291.548583 158.273246 
L 292.332996 132.204338 
L 293.117409 188.578352 
L 293.901822 184.993877 
L 294.686235 97.337173 
L 295.470648 101.899232 
L 296.255061 148.823267 
L 297.039474 165.442196 
L 297.823887 143.609485 
L 298.6083 165.116335 
L 300.177126 159.576692 
L 300.961538 172.611146 
L 301.745951 157.295662 
L 302.530364 167.071503 
L 303.314777 167.397364 
L 304.09919 203.893836 
L 304.883603 167.071503 
L 305.668016 204.545558 
L 306.452429 174.566314 
L 308.021255 211.062785 
L 308.805668 224.423101 
L 309.590081 205.523142 
L 310.374494 222.142071 
L 311.158907 223.445517 
L 311.94332 212.366231 
L 312.727733 214.64726 
L 313.512146 223.119655 
L 314.296559 228.659298 
L 315.080972 236.479971 
L 315.865385 221.81621 
L 316.649798 218.883458 
L 317.434211 225.726546 
L 318.218623 233.87308 
L 319.003036 226.052408 
L 319.787449 236.15411 
L 320.571862 231.917912 
L 321.356275 242.019614 
L 322.140688 222.142071 
L 322.925101 230.288605 
L 323.709514 236.479971 
L 324.493927 235.176526 
L 325.27834 236.479971 
L 326.062753 242.997198 
L 326.847166 239.086862 
L 327.631579 237.131694 
L 328.415992 233.87308 
L 329.200405 231.917912 
L 329.984818 239.412723 
L 330.769231 242.345475 
L 331.553644 238.435139 
L 332.338057 239.412723 
L 333.12247 236.805832 
L 333.906883 236.479971 
L 334.691296 238.761 
L 335.475709 231.917912 
L 336.260121 237.131694 
L 337.044534 243.323059 
L 337.828947 238.761 
L 338.61336 242.997198 
L 339.397773 238.761 
L 340.182186 240.716169 
L 340.966599 244.626505 
L 341.751012 246.581673 
L 342.535425 240.716169 
L 343.319838 239.738584 
L 344.104251 240.064446 
L 344.888664 234.850664 
L 345.673077 239.086862 
L 346.45749 228.333437 
L 347.241903 236.479971 
L 348.026316 236.805832 
L 348.810729 245.92995 
L 349.595142 232.895496 
L 350.379555 234.850664 
L 351.163968 234.198941 
L 351.948381 227.681714 
L 352.732794 223.445517 
L 353.517206 237.783416 
L 354.301619 224.748962 
L 355.086032 214.64726 
L 355.870445 219.535181 
L 356.654858 235.176526 
L 357.439271 225.400685 
L 358.223684 219.535181 
L 359.008097 228.98516 
L 360.576923 190.859381 
L 361.361336 203.893836 
L 362.145749 198.680054 
L 362.930162 175.543898 
L 364.498988 194.443856 
L 365.283401 174.566314 
L 366.852227 161.857721 
L 367.63664 169.678394 
L 368.421053 174.566314 
L 369.205466 184.016293 
L 369.989879 202.59039 
L 370.774291 190.207659 
L 371.558704 154.037049 
L 372.343117 182.712848 
L 373.12753 171.3077 
L 373.911943 190.207659 
L 374.696356 191.836966 
L 375.480769 185.6456 
L 376.265182 185.6456 
L 377.049595 173.262868 
L 377.834008 182.712848 
L 378.618421 175.869759 
L 379.402834 161.205998 
L 380.187247 183.690432 
L 380.97166 180.105957 
L 381.756073 172.937007 
L 382.540486 150.452574 
L 383.324899 166.745641 
L 384.109312 154.037049 
L 384.893725 172.285284 
L 385.678138 180.75768 
L 386.462551 156.969801 
L 387.246964 157.295662 
L 388.031377 133.833645 
L 388.815789 172.937007 
L 389.600202 187.274907 
L 390.384615 169.352532 
L 391.169028 187.274907 
L 391.953441 195.747302 
L 392.737854 166.093919 
L 393.522267 145.564653 
L 394.30668 166.093919 
L 395.091093 147.845683 
L 395.875506 126.012972 
L 396.659919 143.935347 
L 397.444332 132.530199 
L 398.228745 140.350872 
L 399.013158 105.483707 
L 399.797571 119.169884 
L 400.581984 123.731943 
L 401.366397 123.406081 
L 402.15081 80.392383 
L 402.935223 173.58873 
L 403.719636 127.316418 
L 404.504049 106.461291 
L 405.288462 37.704545 
L 406.072874 93.752698 
L 406.857287 92.123391 
L 407.6417 118.1923 
L 408.426113 156.318078 
L 409.210526 93.752698 
L 409.994939 157.621523 
L 410.779352 82.347551 
L 411.563765 111.349211 
L 412.348178 127.96814 
L 413.917004 167.071503 
L 414.701417 136.766397 
L 415.48583 111.349211 
L 416.270243 126.338834 
L 417.054656 61.166563 
L 417.839069 135.788813 
L 418.623482 121.776775 
L 419.407895 140.350872 
L 420.192308 111.02335 
L 420.976721 133.833645 
L 421.761134 106.13543 
L 422.545547 105.157846 
L 423.32996 113.304379 
L 424.114372 129.923308 
L 424.898785 155.340494 
L 425.683198 114.933686 
L 426.467611 89.190639 
L 428.036437 131.878477 
L 428.82085 141.980178 
L 429.605263 139.699149 
L 430.389676 182.061125 
L 431.174089 164.790473 
L 431.958502 154.037049 
L 432.742915 137.743981 
L 433.527328 173.58873 
L 434.311741 168.700809 
L 435.096154 166.745641 
L 435.880567 174.566314 
L 436.66498 192.162827 
L 437.449393 160.880137 
L 438.233806 175.543898 
L 439.018219 199.331777 
L 439.802632 176.847343 
L 440.587045 204.219697 
L 441.371457 220.838626 
L 442.15587 195.095579 
L 442.940283 208.455895 
L 443.724696 213.343815 
L 444.509109 217.254151 
L 445.293522 224.748962 
L 446.077935 225.726546 
L 446.862348 228.98516 
L 447.646761 233.547219 
L 448.431174 222.793794 
L 449.215587 225.726546 
L 450 243.648921 
L 450 243.648921 
" style="fill:none;stroke:#000000;stroke-dasharray:1.5,2.475;stroke-dashoffset:0;stroke-opacity:0.5;stroke-width:1.5;"/>
   </g>
   <g id="line2d_27">
    <path clip-path="url(#peee4cd0412)" d="M 62.5 251.143732 
L 63.284413 250.81787 
L 67.206478 250.81787 
L 67.990891 251.143732 
L 68.775304 251.143732 
L 69.559717 250.81787 
L 71.128543 250.81787 
L 72.697368 250.166148 
L 74.266194 250.166148 
L 75.050607 250.492009 
L 75.83502 250.492009 
L 77.403846 251.143732 
L 80.541498 251.143732 
L 81.325911 250.492009 
L 84.463563 250.492009 
L 85.247976 250.81787 
L 87.601215 250.81787 
L 89.17004 250.166148 
L 92.307692 250.166148 
L 93.092105 249.840286 
L 93.876518 249.840286 
L 94.660931 249.514425 
L 97.798583 249.514425 
L 98.582996 248.862702 
L 99.367409 248.862702 
L 100.151822 248.536841 
L 102.505061 248.536841 
L 103.289474 248.21098 
L 104.073887 248.862702 
L 104.8583 248.862702 
L 105.642713 248.21098 
L 106.427126 247.885118 
L 107.211538 247.885118 
L 107.995951 247.559257 
L 108.780364 247.559257 
L 109.564777 247.885118 
L 110.34919 247.559257 
L 111.133603 247.885118 
L 111.918016 247.885118 
L 112.702429 247.233396 
L 114.271255 247.233396 
L 115.055668 246.255812 
L 115.840081 245.92995 
L 116.624494 245.278227 
L 117.408907 244.952366 
L 118.19332 245.278227 
L 118.977733 244.952366 
L 119.762146 244.952366 
L 120.546559 245.92995 
L 121.330972 246.581673 
L 122.899798 246.581673 
L 123.684211 246.255812 
L 124.468623 245.604089 
L 125.253036 245.278227 
L 126.821862 245.278227 
L 127.606275 244.952366 
L 129.175101 243.648921 
L 129.959514 243.323059 
L 130.743927 241.367891 
L 131.52834 239.738584 
L 132.312753 238.435139 
L 133.097166 238.435139 
L 133.881579 236.805832 
L 134.665992 236.805832 
L 135.450405 236.479971 
L 136.234818 236.479971 
L 137.019231 235.176526 
L 137.803644 235.828248 
L 138.588057 234.850664 
L 139.37247 235.502387 
L 140.156883 234.850664 
L 140.941296 234.524803 
L 141.725709 234.524803 
L 142.510121 235.176526 
L 143.294534 233.547219 
L 144.078947 232.569635 
L 144.86336 231.266189 
L 145.647773 231.266189 
L 146.432186 229.636883 
L 147.216599 228.333437 
L 148.785425 226.378269 
L 149.569838 227.355853 
L 150.354251 227.355853 
L 151.138664 226.052408 
L 151.923077 226.052408 
L 152.70749 223.771378 
L 153.491903 222.142071 
L 154.276316 221.81621 
L 155.845142 214.321399 
L 156.629555 213.669676 
L 157.413968 210.411063 
L 158.982794 209.107617 
L 159.767206 205.523142 
L 160.551619 205.197281 
L 161.336032 204.545558 
L 162.120445 202.264529 
L 162.904858 202.264529 
L 163.689271 200.961083 
L 164.473684 201.612806 
L 165.258097 203.893836 
L 166.04251 199.983499 
L 166.826923 198.354193 
L 167.611336 197.376609 
L 168.395749 194.769718 
L 169.180162 193.792134 
L 169.964575 193.792134 
L 170.748988 191.511104 
L 171.533401 195.095579 
L 172.317814 194.117995 
L 173.102227 192.162827 
L 173.88664 192.81455 
L 174.671053 190.207659 
L 175.455466 186.949045 
L 176.239879 189.230075 
L 177.024291 184.668016 
L 177.808704 185.319738 
L 178.593117 186.949045 
L 179.37753 189.230075 
L 180.161943 194.443856 
L 181.730769 200.635222 
L 182.515182 205.849004 
L 183.299595 205.849004 
L 184.084008 208.130033 
L 184.868421 209.75934 
L 185.652834 211.714508 
L 186.437247 214.64726 
L 187.22166 214.64726 
L 188.006073 214.321399 
L 188.790486 214.973122 
L 189.574899 213.995538 
L 190.359312 211.714508 
L 191.143725 211.388647 
L 191.928138 213.343815 
L 192.712551 216.276567 
L 193.496964 220.186903 
L 194.281377 220.186903 
L 195.065789 221.164487 
L 195.850202 221.490349 
L 196.634615 220.186903 
L 197.419028 220.186903 
L 198.203441 221.164487 
L 198.987854 221.490349 
L 199.772267 222.142071 
L 201.341093 222.793794 
L 202.909919 222.142071 
L 203.694332 223.445517 
L 204.478745 225.074824 
L 205.263158 226.052408 
L 206.047571 226.052408 
L 206.831984 225.400685 
L 207.616397 224.423101 
L 208.40081 224.423101 
L 209.185223 225.074824 
L 209.969636 224.423101 
L 210.754049 226.378269 
L 211.538462 226.378269 
L 213.8917 216.92829 
L 214.676113 215.624844 
L 215.460526 216.276567 
L 216.244939 215.950706 
L 217.029352 216.92829 
L 217.813765 220.512765 
L 219.382591 223.771378 
L 220.167004 225.726546 
L 220.951417 228.659298 
L 221.73583 230.288605 
L 222.520243 229.962744 
L 223.304656 228.333437 
L 224.089069 226.378269 
L 224.873482 224.748962 
L 225.657895 223.445517 
L 226.442308 221.490349 
L 227.226721 220.186903 
L 228.011134 219.209319 
L 228.795547 217.254151 
L 229.57996 216.602428 
L 230.364372 215.624844 
L 231.148785 215.624844 
L 231.933198 215.298983 
L 232.717611 213.995538 
L 233.502024 213.995538 
L 234.286437 213.343815 
L 235.07085 212.040369 
L 235.855263 212.366231 
L 236.639676 213.017954 
L 237.424089 214.973122 
L 238.208502 216.276567 
L 238.992915 215.950706 
L 239.777328 215.298983 
L 240.561741 213.995538 
L 241.346154 213.669676 
L 242.130567 215.298983 
L 242.91498 216.602428 
L 243.699393 218.557597 
L 244.483806 219.535181 
L 245.268219 220.186903 
L 246.052632 222.142071 
L 246.837045 224.423101 
L 247.621457 224.423101 
L 248.40587 224.748962 
L 249.190283 226.052408 
L 249.974696 225.400685 
L 250.759109 224.09724 
L 251.543522 222.467933 
L 252.327935 219.861042 
L 253.112348 219.535181 
L 253.896761 218.883458 
L 254.681174 216.92829 
L 256.25 213.669676 
L 257.034413 211.062785 
L 257.818826 212.040369 
L 258.603239 212.366231 
L 259.387652 212.366231 
L 260.172065 213.343815 
L 260.956478 214.64726 
L 261.740891 213.995538 
L 262.525304 213.017954 
L 263.309717 213.017954 
L 264.09413 213.343815 
L 264.878543 214.973122 
L 265.662955 214.64726 
L 266.447368 212.692092 
L 267.231781 210.085201 
L 268.016194 206.826588 
L 268.800607 202.916252 
L 269.58502 199.983499 
L 270.369433 196.399024 
L 271.153846 193.792134 
L 271.938259 193.792134 
L 272.722672 192.162827 
L 273.507085 189.555936 
L 275.075911 189.555936 
L 275.860324 189.881797 
L 276.644737 186.949045 
L 277.42915 184.993877 
L 278.213563 185.6456 
L 278.997976 187.274907 
L 279.782389 185.319738 
L 280.566802 184.993877 
L 281.351215 180.75768 
L 282.135628 175.869759 
L 282.92004 171.959423 
L 283.704453 172.611146 
L 284.488866 172.611146 
L 285.273279 171.3077 
L 286.057692 172.285284 
L 286.842105 170.004255 
L 287.626518 163.812889 
L 289.195344 144.587069 
L 289.979757 139.373288 
L 291.548583 148.497406 
L 292.332996 149.47499 
L 293.901822 145.238792 
L 294.686235 143.609485 
L 295.470648 143.283624 
L 296.255061 141.328456 
L 297.039474 142.631901 
L 298.6083 159.576692 
L 299.392713 160.880137 
L 300.177126 161.857721 
L 300.961538 164.464612 
L 301.745951 168.700809 
L 302.530364 170.655978 
L 303.314777 176.521482 
L 304.09919 178.47665 
L 305.668016 188.252491 
L 306.452429 195.095579 
L 307.236842 197.376609 
L 308.021255 204.87142 
L 308.805668 208.781756 
L 309.590081 213.995538 
L 310.374494 216.602428 
L 311.94332 218.557597 
L 312.727733 222.142071 
L 314.296559 223.445517 
L 315.865385 226.70413 
L 316.649798 227.029992 
L 317.434211 227.681714 
L 318.218623 228.007576 
L 319.003036 230.614467 
L 319.787449 231.592051 
L 320.571862 232.243773 
L 321.356275 232.243773 
L 322.140688 232.895496 
L 322.925101 233.221357 
L 323.709514 234.524803 
L 324.493927 235.176526 
L 325.27834 237.131694 
L 326.062753 237.783416 
L 326.847166 237.131694 
L 327.631579 237.131694 
L 328.415992 237.457555 
L 329.200405 237.131694 
L 331.553644 238.109278 
L 332.338057 238.761 
L 333.906883 236.805832 
L 334.691296 237.457555 
L 335.475709 237.457555 
L 336.260121 238.435139 
L 337.044534 239.086862 
L 337.828947 239.412723 
L 339.397773 242.019614 
L 340.182186 242.019614 
L 340.966599 242.345475 
L 341.751012 242.019614 
L 343.319838 240.716169 
L 344.104251 238.435139 
L 344.888664 237.131694 
L 345.673077 236.15411 
L 346.45749 236.805832 
L 347.241903 236.479971 
L 348.026316 236.479971 
L 349.595142 235.828248 
L 350.379555 233.87308 
L 351.163968 233.221357 
L 352.732794 228.333437 
L 353.517206 226.378269 
L 354.301619 225.726546 
L 355.086032 225.400685 
L 356.654858 224.09724 
L 357.439271 223.119655 
L 359.008097 216.602428 
L 359.79251 211.062785 
L 360.576923 204.219697 
L 361.361336 198.354193 
L 362.930162 189.230075 
L 363.714575 185.6456 
L 364.498988 180.105957 
L 365.283401 176.195621 
L 366.067814 174.566314 
L 366.852227 173.58873 
L 367.63664 174.892175 
L 368.421053 178.47665 
L 369.205466 178.802511 
L 369.989879 181.083541 
L 370.774291 180.75768 
L 372.343117 181.409402 
L 373.12753 180.431818 
L 373.911943 181.409402 
L 374.696356 183.690432 
L 375.480769 183.690432 
L 376.265182 183.36457 
L 377.049595 179.780095 
L 377.834008 177.824927 
L 378.618421 176.847343 
L 379.402834 175.543898 
L 380.97166 170.981839 
L 381.756073 167.723225 
L 382.540486 167.397364 
L 383.324899 166.41978 
L 384.109312 164.790473 
L 384.893725 163.812889 
L 385.678138 161.857721 
L 386.462551 161.205998 
L 387.246964 163.487028 
L 388.031377 163.812889 
L 388.815789 166.093919 
L 389.600202 172.285284 
L 390.384615 175.218037 
L 391.169028 176.847343 
L 391.953441 174.566314 
L 392.737854 169.026671 
L 394.30668 154.688771 
L 395.091093 146.542237 
L 395.875506 142.631901 
L 396.659919 137.41812 
L 397.444332 131.226754 
L 398.228745 127.642279 
L 399.013158 126.012972 
L 399.797571 118.518161 
L 400.581984 121.450913 
L 401.366397 121.125052 
L 402.15081 122.428497 
L 402.935223 114.281963 
L 404.504049 101.899232 
L 405.288462 101.573371 
L 406.072874 99.618203 
L 406.857287 99.944064 
L 407.6417 109.068182 
L 408.426113 116.237132 
L 409.210526 118.1923 
L 411.563765 125.035388 
L 412.348178 131.552615 
L 413.132591 130.24917 
L 413.917004 135.462951 
L 414.701417 128.619863 
L 415.48583 125.361249 
L 416.270243 119.821606 
L 417.054656 116.237132 
L 417.839069 115.259548 
L 418.623482 118.844022 
L 419.407895 118.844022 
L 420.192308 122.428497 
L 420.976721 118.844022 
L 421.761134 118.518161 
L 422.545547 120.147468 
L 423.32996 122.102636 
L 424.114372 118.844022 
L 424.898785 119.169884 
L 425.683198 120.473329 
L 426.467611 122.102636 
L 427.252024 123.406081 
L 428.036437 128.619863 
L 429.605263 147.845683 
L 431.174089 156.969801 
L 431.958502 159.902553 
L 432.742915 162.183582 
L 433.527328 162.183582 
L 434.311741 166.745641 
L 435.096154 169.026671 
L 435.880567 173.58873 
L 436.66498 176.521482 
L 437.449393 178.150789 
L 438.233806 182.386986 
L 439.018219 188.578352 
L 439.802632 191.185243 
L 440.587045 198.028331 
L 441.371457 202.916252 
L 442.15587 205.849004 
L 442.940283 211.388647 
L 443.724696 214.321399 
L 444.509109 216.602428 
L 445.293522 221.81621 
L 446.077935 224.423101 
L 446.862348 226.052408 
L 447.646761 228.98516 
L 450 231.917912 
L 450 231.917912 
" style="fill:none;stroke:#b3220f;stroke-linecap:square;stroke-width:1.5;"/>
   </g>
   <g id="patch_3">
    <path d="M 62.5 262.5 
L 62.5 27 
" style="fill:none;stroke:#555555;stroke-linecap:square;stroke-linejoin:miter;"/>
   </g>
   <g id="patch_4">
    <path d="M 62.5 262.5 
L 450 262.5 
" style="fill:none;stroke:#555555;stroke-linecap:square;stroke-linejoin:miter;"/>
   </g>
   <g id="text_15">
    <!-- Fontibn | Casos nuevos: 2021-07-29 -->
    <g style="fill:#555555;" transform="translate(138.246406 17)scale(0.14 -0.14)">
     <defs>
      <path d="M 7.796875 71.40625 
L 7.796875 0 
L 17.296875 0 
L 17.296875 32.703125 
L 50.09375 32.703125 
L 50.09375 40.703125 
L 17.296875 40.703125 
L 17.296875 63.40625 
L 54.703125 63.40625 
L 54.703125 71.40625 
z
" id="HelveticaNeue-70"/>
      <path d="M 12.59375 25.796875 
Q 12.59375 30.5 13.84375 34.140625 
Q 15.09375 37.796875 17.296875 40.296875 
Q 19.5 42.796875 22.453125 44.09375 
Q 25.40625 45.40625 28.703125 45.40625 
Q 32 45.40625 34.953125 44.09375 
Q 37.90625 42.796875 40.09375 40.296875 
Q 42.296875 37.796875 43.546875 34.140625 
Q 44.796875 30.5 44.796875 25.796875 
Q 44.796875 21.09375 43.546875 17.4375 
Q 42.296875 13.796875 40.09375 11.34375 
Q 37.90625 8.90625 34.953125 7.59375 
Q 32 6.296875 28.703125 6.296875 
Q 25.40625 6.296875 22.453125 7.59375 
Q 19.5 8.90625 17.296875 11.34375 
Q 15.09375 13.796875 13.84375 17.4375 
Q 12.59375 21.09375 12.59375 25.796875 
z
M 3.59375 25.796875 
Q 3.59375 20.09375 5.1875 15.1875 
Q 6.796875 10.296875 10 6.640625 
Q 13.203125 3 17.890625 0.953125 
Q 22.59375 -1.09375 28.703125 -1.09375 
Q 34.90625 -1.09375 39.546875 0.953125 
Q 44.203125 3 47.390625 6.640625 
Q 50.59375 10.296875 52.1875 15.1875 
Q 53.796875 20.09375 53.796875 25.796875 
Q 53.796875 31.5 52.1875 36.453125 
Q 50.59375 41.40625 47.390625 45.046875 
Q 44.203125 48.703125 39.546875 50.796875 
Q 34.90625 52.90625 28.703125 52.90625 
Q 22.59375 52.90625 17.890625 50.796875 
Q 13.203125 48.703125 10 45.046875 
Q 6.796875 41.40625 5.1875 36.453125 
Q 3.59375 31.5 3.59375 25.796875 
z
" id="HelveticaNeue-111"/>
      <path d="M 15.40625 61 
L 15.40625 71.40625 
L 6.90625 71.40625 
L 6.90625 61 
z
M 6.90625 51.703125 
L 6.90625 0 
L 15.40625 0 
L 15.40625 51.703125 
z
" id="HelveticaNeue-105"/>
      <path d="M 6.703125 71.40625 
L 6.703125 0 
L 15.203125 0 
L 15.203125 6.90625 
L 15.40625 6.90625 
Q 16.796875 4.59375 18.84375 3.046875 
Q 20.90625 1.5 23.203125 0.59375 
Q 25.5 -0.296875 27.84375 -0.6875 
Q 30.203125 -1.09375 32.09375 -1.09375 
Q 38 -1.09375 42.453125 1 
Q 46.90625 3.09375 49.84375 6.75 
Q 52.796875 10.40625 54.25 15.296875 
Q 55.703125 20.203125 55.703125 25.703125 
Q 55.703125 31.203125 54.203125 36.09375 
Q 52.703125 41 49.75 44.75 
Q 46.796875 48.5 42.34375 50.703125 
Q 37.90625 52.90625 31.90625 52.90625 
Q 26.5 52.90625 22 50.953125 
Q 17.5 49 15.40625 44.703125 
L 15.203125 44.703125 
L 15.203125 71.40625 
z
M 46.703125 26.296875 
Q 46.703125 22.5 45.890625 18.890625 
Q 45.09375 15.296875 43.296875 12.5 
Q 41.5 9.703125 38.546875 8 
Q 35.59375 6.296875 31.203125 6.296875 
Q 26.796875 6.296875 23.6875 7.9375 
Q 20.59375 9.59375 18.640625 12.296875 
Q 16.703125 15 15.796875 18.546875 
Q 14.90625 22.09375 14.90625 25.90625 
Q 14.90625 29.5 15.75 33 
Q 16.59375 36.5 18.5 39.25 
Q 20.40625 42 23.40625 43.703125 
Q 26.40625 45.40625 30.703125 45.40625 
Q 34.796875 45.40625 37.84375 43.796875 
Q 40.90625 42.203125 42.84375 39.5 
Q 44.796875 36.796875 45.75 33.34375 
Q 46.703125 29.90625 46.703125 26.296875 
z
" id="HelveticaNeue-98"/>
      <path d="M 12.59375 25.796875 
Q 12.59375 30.5 13.84375 34.140625 
Q 15.09375 37.796875 17.296875 40.296875 
Q 19.5 42.796875 22.453125 44.09375 
Q 25.40625 45.40625 28.703125 45.40625 
Q 32 45.40625 34.953125 44.09375 
Q 37.90625 42.796875 40.09375 40.296875 
Q 42.296875 37.796875 43.546875 34.140625 
Q 44.796875 30.5 44.796875 25.796875 
Q 44.796875 21.09375 43.546875 17.4375 
Q 42.296875 13.796875 40.09375 11.34375 
Q 37.90625 8.90625 34.953125 7.59375 
Q 32 6.296875 28.703125 6.296875 
Q 25.40625 6.296875 22.453125 7.59375 
Q 19.5 8.90625 17.296875 11.34375 
Q 15.09375 13.796875 13.84375 17.4375 
Q 12.59375 21.09375 12.59375 25.796875 
z
M 3.59375 25.796875 
Q 3.59375 20.09375 5.1875 15.1875 
Q 6.796875 10.296875 10 6.640625 
Q 13.203125 3 17.890625 0.953125 
Q 22.59375 -1.09375 28.703125 -1.09375 
Q 34.90625 -1.09375 39.546875 0.953125 
Q 44.203125 3 47.390625 6.640625 
Q 50.59375 10.296875 52.1875 15.1875 
Q 53.796875 20.09375 53.796875 25.796875 
Q 53.796875 31.5 52.1875 36.453125 
Q 50.59375 41.40625 47.390625 45.046875 
Q 44.203125 48.703125 39.546875 50.796875 
Q 34.90625 52.90625 28.703125 52.90625 
Q 22.59375 52.90625 17.890625 50.796875 
Q 13.203125 48.703125 10 45.046875 
Q 6.796875 41.40625 5.1875 36.453125 
Q 3.59375 31.5 3.59375 25.796875 
z
M 42.5 77 
L 28.40625 60.796875 
L 22 60.796875 
L 31.59375 77 
z
" id="HelveticaNeue-243"/>
      <path id="HelveticaNeue-32"/>
      <path d="M 7.703125 78.59375 
L 7.703125 -21.296875 
L 14.5 -21.296875 
L 14.5 78.59375 
z
" id="HelveticaNeue-124"/>
      <path d="M 58 49.90625 
L 67.5 49.90625 
Q 66.703125 55.59375 64.09375 59.9375 
Q 61.5 64.296875 57.59375 67.1875 
Q 53.703125 70.09375 48.703125 71.59375 
Q 43.703125 73.09375 38.09375 73.09375 
Q 29.90625 73.09375 23.546875 70.140625 
Q 17.203125 67.203125 12.953125 62.09375 
Q 8.703125 57 6.5 50.140625 
Q 4.296875 43.296875 4.296875 35.5 
Q 4.296875 27.703125 6.34375 20.890625 
Q 8.40625 14.09375 12.5 9.09375 
Q 16.59375 4.09375 22.796875 1.25 
Q 29 -1.59375 37.296875 -1.59375 
Q 51 -1.59375 58.890625 5.90625 
Q 66.796875 13.40625 68.203125 26.90625 
L 58.703125 26.90625 
Q 58.40625 22.5 56.90625 18.703125 
Q 55.40625 14.90625 52.75 12.15625 
Q 50.09375 9.40625 46.4375 7.84375 
Q 42.796875 6.296875 38.09375 6.296875 
Q 31.703125 6.296875 27.09375 8.6875 
Q 22.5 11.09375 19.546875 15.140625 
Q 16.59375 19.203125 15.1875 24.640625 
Q 13.796875 30.09375 13.796875 36.203125 
Q 13.796875 41.796875 15.1875 47 
Q 16.59375 52.203125 19.546875 56.25 
Q 22.5 60.296875 27.046875 62.6875 
Q 31.59375 65.09375 38 65.09375 
Q 45.5 65.09375 50.953125 61.296875 
Q 56.40625 57.5 58 49.90625 
z
" id="HelveticaNeue-67"/>
      <path d="M 11.59375 16.296875 
L 3.09375 16.296875 
Q 3.296875 11.5 5.09375 8.140625 
Q 6.90625 4.796875 9.90625 2.75 
Q 12.90625 0.703125 16.796875 -0.1875 
Q 20.703125 -1.09375 25 -1.09375 
Q 28.90625 -1.09375 32.84375 -0.34375 
Q 36.796875 0.40625 39.9375 2.296875 
Q 43.09375 4.203125 45.046875 7.296875 
Q 47 10.40625 47 15.09375 
Q 47 18.796875 45.546875 21.296875 
Q 44.09375 23.796875 41.75 25.4375 
Q 39.40625 27.09375 36.34375 28.09375 
Q 33.296875 29.09375 30.09375 29.796875 
Q 27.09375 30.5 24.09375 31.140625 
Q 21.09375 31.796875 18.6875 32.75 
Q 16.296875 33.703125 14.75 35.140625 
Q 13.203125 36.59375 13.203125 38.796875 
Q 13.203125 40.796875 14.203125 42.046875 
Q 15.203125 43.296875 16.796875 44.046875 
Q 18.40625 44.796875 20.34375 45.09375 
Q 22.296875 45.40625 24.203125 45.40625 
Q 26.296875 45.40625 28.34375 44.953125 
Q 30.40625 44.5 32.09375 43.5 
Q 33.796875 42.5 34.890625 40.84375 
Q 36 39.203125 36.203125 36.703125 
L 44.703125 36.703125 
Q 44.40625 41.40625 42.703125 44.546875 
Q 41 47.703125 38.140625 49.546875 
Q 35.296875 51.40625 31.59375 52.15625 
Q 27.90625 52.90625 23.5 52.90625 
Q 20.09375 52.90625 16.640625 52.046875 
Q 13.203125 51.203125 10.453125 49.453125 
Q 7.703125 47.703125 5.953125 44.890625 
Q 4.203125 42.09375 4.203125 38.203125 
Q 4.203125 33.203125 6.703125 30.390625 
Q 9.203125 27.59375 12.953125 26.046875 
Q 16.703125 24.5 21.09375 23.640625 
Q 25.5 22.796875 29.25 21.75 
Q 33 20.703125 35.5 19 
Q 38 17.296875 38 14 
Q 38 11.59375 36.796875 10.046875 
Q 35.59375 8.5 33.75 7.703125 
Q 31.90625 6.90625 29.703125 6.59375 
Q 27.5 6.296875 25.5 6.296875 
Q 22.90625 6.296875 20.453125 6.796875 
Q 18 7.296875 16.046875 8.4375 
Q 14.09375 9.59375 12.890625 11.546875 
Q 11.703125 13.5 11.59375 16.296875 
z
" id="HelveticaNeue-115"/>
      <path d="M 29.703125 0 
L 48.59375 51.703125 
L 39.703125 51.703125 
L 25.59375 8.59375 
L 25.40625 8.59375 
L 10.90625 51.703125 
L 1.40625 51.703125 
L 20.59375 0 
z
" id="HelveticaNeue-118"/>
      <path d="M 19.40625 40.59375 
L 19.40625 51.703125 
L 8.296875 51.703125 
L 8.296875 40.59375 
z
M 8.296875 11.09375 
L 8.296875 0 
L 19.40625 0 
L 19.40625 11.09375 
z
" id="HelveticaNeue-58"/>
      <path d="M 5 31.796875 
L 5 23.796875 
L 33.90625 23.796875 
L 33.90625 31.796875 
z
" id="HelveticaNeue-45"/>
      <path d="M 50.90625 62.40625 
L 50.90625 69.703125 
L 5 69.703125 
L 5 61.703125 
L 42.203125 61.703125 
Q 36.59375 55.796875 31.75 48.796875 
Q 26.90625 41.796875 23.203125 33.9375 
Q 19.5 26.09375 17.140625 17.546875 
Q 14.796875 9 14.203125 0 
L 23.703125 0 
Q 24.203125 8.296875 26.5 17.09375 
Q 28.796875 25.90625 32.4375 34.203125 
Q 36.09375 42.5 40.796875 49.796875 
Q 45.5 57.09375 50.90625 62.40625 
z
" id="HelveticaNeue-55"/>
      <path d="M 13.40625 17.09375 
L 4.90625 17.09375 
Q 5.703125 7.90625 11.59375 3.40625 
Q 17.5 -1.09375 26.40625 -1.09375 
Q 39.296875 -1.09375 45.140625 8.75 
Q 51 18.59375 51 37 
Q 51 47.09375 49.046875 53.640625 
Q 47.09375 60.203125 43.796875 64 
Q 40.5 67.796875 36.09375 69.34375 
Q 31.703125 70.90625 26.703125 70.90625 
Q 21.59375 70.90625 17.296875 69.203125 
Q 13 67.5 9.890625 64.453125 
Q 6.796875 61.40625 5.09375 57.15625 
Q 3.40625 52.90625 3.40625 47.796875 
Q 3.40625 42.59375 4.84375 38.1875 
Q 6.296875 33.796875 9.140625 30.6875 
Q 12 27.59375 16.203125 25.84375 
Q 20.40625 24.09375 25.796875 24.09375 
Q 31 24.09375 35.390625 26.75 
Q 39.796875 29.40625 42.203125 33.90625 
L 42.40625 33.703125 
Q 42 19.796875 38.09375 13.046875 
Q 34.203125 6.296875 26.40625 6.296875 
Q 21.296875 6.296875 17.59375 9.09375 
Q 13.90625 11.90625 13.40625 17.09375 
z
M 40.90625 47.203125 
Q 40.90625 44.09375 39.90625 41.25 
Q 38.90625 38.40625 37 36.25 
Q 35.09375 34.09375 32.390625 32.84375 
Q 29.703125 31.59375 26.40625 31.59375 
Q 23.296875 31.59375 20.75 32.84375 
Q 18.203125 34.09375 16.34375 36.1875 
Q 14.5 38.296875 13.453125 41 
Q 12.40625 43.703125 12.40625 46.59375 
Q 12.40625 49.90625 13.15625 52.90625 
Q 13.90625 55.90625 15.546875 58.25 
Q 17.203125 60.59375 19.84375 62 
Q 22.5 63.40625 26.296875 63.40625 
Q 29.90625 63.40625 32.59375 62.09375 
Q 35.296875 60.796875 37.140625 58.546875 
Q 39 56.296875 39.953125 53.390625 
Q 40.90625 50.5 40.90625 47.203125 
z
" id="HelveticaNeue-57"/>
     </defs>
     <use xlink:href="#HelveticaNeue-70"/>
     <use x="57.399994" xlink:href="#HelveticaNeue-111"/>
     <use x="114.799988" xlink:href="#HelveticaNeue-110"/>
     <use x="170.399979" xlink:href="#HelveticaNeue-116"/>
     <use x="201.899963" xlink:href="#HelveticaNeue-105"/>
     <use x="224.09996" xlink:href="#HelveticaNeue-98"/>
     <use x="283.399948" xlink:href="#HelveticaNeue-243"/>
     <use x="340.799942" xlink:href="#HelveticaNeue-110"/>
     <use x="396.399933" xlink:href="#HelveticaNeue-32"/>
     <use x="424.199921" xlink:href="#HelveticaNeue-124"/>
     <use x="446.399918" xlink:href="#HelveticaNeue-32"/>
     <use x="474.199905" xlink:href="#HelveticaNeue-67"/>
     <use x="546.399887" xlink:href="#HelveticaNeue-97"/>
     <use x="600.099884" xlink:href="#HelveticaNeue-115"/>
     <use x="650.099869" xlink:href="#HelveticaNeue-111"/>
     <use x="707.499863" xlink:href="#HelveticaNeue-115"/>
     <use x="757.499847" xlink:href="#HelveticaNeue-32"/>
     <use x="785.299835" xlink:href="#HelveticaNeue-110"/>
     <use x="840.899826" xlink:href="#HelveticaNeue-117"/>
     <use x="896.499817" xlink:href="#HelveticaNeue-101"/>
     <use x="950.199814" xlink:href="#HelveticaNeue-118"/>
     <use x="1000.199799" xlink:href="#HelveticaNeue-111"/>
     <use x="1057.599792" xlink:href="#HelveticaNeue-115"/>
     <use x="1107.599777" xlink:href="#HelveticaNeue-58"/>
     <use x="1135.399765" xlink:href="#HelveticaNeue-32"/>
     <use x="1163.199753" xlink:href="#HelveticaNeue-50"/>
     <use x="1218.799744" xlink:href="#HelveticaNeue-48"/>
     <use x="1274.399734" xlink:href="#HelveticaNeue-50"/>
     <use x="1329.999725" xlink:href="#HelveticaNeue-49"/>
     <use x="1385.599716" xlink:href="#HelveticaNeue-45"/>
     <use x="1424.49971" xlink:href="#HelveticaNeue-48"/>
     <use x="1480.099701" xlink:href="#HelveticaNeue-55"/>
     <use x="1535.699692" xlink:href="#HelveticaNeue-45"/>
     <use x="1574.599686" xlink:href="#HelveticaNeue-50"/>
     <use x="1630.199677" xlink:href="#HelveticaNeue-57"/>
    </g>
   </g>
   <g id="legend_1">
    <g id="line2d_28">
     <path d="M 71.5 39.640625 
L 91.5 39.640625 
" style="fill:none;stroke:#000000;stroke-dasharray:1.5,2.475;stroke-dashoffset:0;stroke-opacity:0.5;stroke-width:1.5;"/>
    </g>
    <g id="line2d_29"/>
    <g id="text_16">
     <!-- Actual -->
     <g style="fill:#555555;" transform="translate(99.5 43.140625)scale(0.1 -0.1)">
      <use xlink:href="#HelveticaNeue-65"/>
      <use x="64.799988" xlink:href="#HelveticaNeue-99"/>
      <use x="118.499985" xlink:href="#HelveticaNeue-116"/>
      <use x="149.999969" xlink:href="#HelveticaNeue-117"/>
      <use x="205.59996" xlink:href="#HelveticaNeue-97"/>
      <use x="259.299957" xlink:href="#HelveticaNeue-108"/>
     </g>
    </g>
    <g id="line2d_30">
     <path d="M 71.5 54.310937 
L 91.5 54.310937 
" style="fill:none;stroke:#b3220f;stroke-linecap:square;stroke-width:1.5;"/>
    </g>
    <g id="line2d_31"/>
    <g id="text_17">
     <!-- Promedio semanal (7 das)  -->
     <g style="fill:#555555;" transform="translate(99.5 57.810937)scale(0.1 -0.1)">
      <defs>
       <path d="M 17.296875 37.203125 
L 17.296875 63.40625 
L 35.90625 63.40625 
Q 44 63.40625 47.75 60.046875 
Q 51.5 56.703125 51.5 50.296875 
Q 51.5 43.90625 47.75 40.5 
Q 44 37.09375 35.90625 37.203125 
z
M 7.796875 71.40625 
L 7.796875 0 
L 17.296875 0 
L 17.296875 29.203125 
L 39.09375 29.203125 
Q 49.90625 29.09375 55.453125 34.6875 
Q 61 40.296875 61 50.296875 
Q 61 60.296875 55.453125 65.84375 
Q 49.90625 71.40625 39.09375 71.40625 
z
" id="HelveticaNeue-80"/>
       <path d="M 6.40625 51.703125 
L 6.40625 0 
L 14.90625 0 
L 14.90625 32.203125 
Q 14.90625 33.703125 15.65625 35.953125 
Q 16.40625 38.203125 18.046875 40.296875 
Q 19.703125 42.40625 22.34375 43.90625 
Q 25 45.40625 28.703125 45.40625 
Q 31.59375 45.40625 33.4375 44.546875 
Q 35.296875 43.703125 36.390625 42.140625 
Q 37.5 40.59375 37.953125 38.5 
Q 38.40625 36.40625 38.40625 33.90625 
L 38.40625 0 
L 46.90625 0 
L 46.90625 32.203125 
Q 46.90625 38.203125 50.5 41.796875 
Q 54.09375 45.40625 60.40625 45.40625 
Q 63.5 45.40625 65.453125 44.5 
Q 67.40625 43.59375 68.5 42.046875 
Q 69.59375 40.5 70 38.390625 
Q 70.40625 36.296875 70.40625 33.90625 
L 70.40625 0 
L 78.90625 0 
L 78.90625 37.90625 
Q 78.90625 41.90625 77.65625 44.75 
Q 76.40625 47.59375 74.15625 49.390625 
Q 71.90625 51.203125 68.75 52.046875 
Q 65.59375 52.90625 61.703125 52.90625 
Q 56.59375 52.90625 52.34375 50.59375 
Q 48.09375 48.296875 45.5 44.09375 
Q 43.90625 48.90625 40 50.90625 
Q 36.09375 52.90625 31.296875 52.90625 
Q 20.40625 52.90625 14.59375 44.09375 
L 14.40625 44.09375 
L 14.40625 51.703125 
z
" id="HelveticaNeue-109"/>
       <path d="M 12.59375 25.40625 
Q 12.59375 29.203125 13.390625 32.796875 
Q 14.203125 36.40625 16 39.203125 
Q 17.796875 42 20.796875 43.703125 
Q 23.796875 45.40625 28.09375 45.40625 
Q 32.5 45.40625 35.59375 43.75 
Q 38.703125 42.09375 40.640625 39.390625 
Q 42.59375 36.703125 43.5 33.140625 
Q 44.40625 29.59375 44.40625 25.796875 
Q 44.40625 22.203125 43.546875 18.703125 
Q 42.703125 15.203125 40.796875 12.453125 
Q 38.90625 9.703125 35.90625 8 
Q 32.90625 6.296875 28.59375 6.296875 
Q 24.5 6.296875 21.453125 7.890625 
Q 18.40625 9.5 16.453125 12.203125 
Q 14.5 14.90625 13.546875 18.34375 
Q 12.59375 21.796875 12.59375 25.40625 
z
M 52.59375 0 
L 52.59375 71.40625 
L 44.09375 71.40625 
L 44.09375 44.796875 
L 43.90625 44.796875 
Q 42.5 47.09375 40.453125 48.640625 
Q 38.40625 50.203125 36.09375 51.140625 
Q 33.796875 52.09375 31.5 52.5 
Q 29.203125 52.90625 27.203125 52.90625 
Q 21.296875 52.90625 16.84375 50.75 
Q 12.40625 48.59375 9.453125 44.9375 
Q 6.5 41.296875 5.046875 36.390625 
Q 3.59375 31.5 3.59375 26 
Q 3.59375 20.5 5.09375 15.59375 
Q 6.59375 10.703125 9.546875 7 
Q 12.5 3.296875 16.953125 1.09375 
Q 21.40625 -1.09375 27.40625 -1.09375 
Q 32.796875 -1.09375 37.296875 0.796875 
Q 41.796875 2.703125 43.90625 7 
L 44.09375 7 
L 44.09375 0 
z
" id="HelveticaNeue-100"/>
       <path d="M 20.40625 -19.703125 
L 26.90625 -19.703125 
Q 19.796875 -8.203125 16.75 3.09375 
Q 13.703125 14.40625 13.703125 27 
Q 13.703125 39.296875 16.703125 50.5 
Q 19.703125 61.703125 26.90625 73.09375 
L 20.40625 73.09375 
Q 12.59375 62.796875 8.640625 50.796875 
Q 4.703125 38.796875 4.703125 27 
Q 4.703125 20.40625 5.796875 14.40625 
Q 6.90625 8.40625 8.953125 2.703125 
Q 11 -3 13.890625 -8.546875 
Q 16.796875 -14.09375 20.40625 -19.703125 
z
" id="HelveticaNeue-40"/>
       <path d="M 6.90625 0 
L 15.40625 0 
L 15.40625 51.703125 
L 6.90625 51.703125 
z
M 25.5 77 
L 11.40625 60.796875 
L 5 60.796875 
L 14.59375 77 
z
" id="HelveticaNeue-237"/>
       <path d="M -0.90625 -19.703125 
L 5.5 -19.703125 
Q 13.296875 -9.40625 17.25 2.546875 
Q 21.203125 14.5 21.203125 26.296875 
Q 21.203125 32.90625 20.09375 38.90625 
Q 19 44.90625 16.953125 50.65625 
Q 14.90625 56.40625 12 61.953125 
Q 9.09375 67.5 5.5 73.09375 
L -0.90625 73.09375 
Q 6.09375 61.59375 9.140625 50.25 
Q 12.203125 38.90625 12.203125 26.296875 
Q 12.203125 14.09375 9.203125 2.84375 
Q 6.203125 -8.40625 -0.90625 -19.703125 
z
" id="HelveticaNeue-41"/>
      </defs>
      <use xlink:href="#HelveticaNeue-80"/>
      <use x="64.799988" xlink:href="#HelveticaNeue-114"/>
      <use x="96.349976" xlink:href="#HelveticaNeue-111"/>
      <use x="153.749969" xlink:href="#HelveticaNeue-109"/>
      <use x="239.049957" xlink:href="#HelveticaNeue-101"/>
      <use x="292.749954" xlink:href="#HelveticaNeue-100"/>
      <use x="352.049942" xlink:href="#HelveticaNeue-105"/>
      <use x="374.249939" xlink:href="#HelveticaNeue-111"/>
      <use x="431.649933" xlink:href="#HelveticaNeue-32"/>
      <use x="459.449921" xlink:href="#HelveticaNeue-115"/>
      <use x="509.449905" xlink:href="#HelveticaNeue-101"/>
      <use x="563.149902" xlink:href="#HelveticaNeue-109"/>
      <use x="648.44989" xlink:href="#HelveticaNeue-97"/>
      <use x="702.149887" xlink:href="#HelveticaNeue-110"/>
      <use x="757.749878" xlink:href="#HelveticaNeue-97"/>
      <use x="811.449875" xlink:href="#HelveticaNeue-108"/>
      <use x="833.649872" xlink:href="#HelveticaNeue-32"/>
      <use x="861.44986" xlink:href="#HelveticaNeue-40"/>
      <use x="887.349854" xlink:href="#HelveticaNeue-55"/>
      <use x="942.949844" xlink:href="#HelveticaNeue-32"/>
      <use x="970.749832" xlink:href="#HelveticaNeue-100"/>
      <use x="1030.04982" xlink:href="#HelveticaNeue-237"/>
      <use x="1052.249817" xlink:href="#HelveticaNeue-97"/>
      <use x="1105.949814" xlink:href="#HelveticaNeue-115"/>
      <use x="1155.949799" xlink:href="#HelveticaNeue-41"/>
      <use x="1181.849792" xlink:href="#HelveticaNeue-32"/>
     </g>
    </g>
   </g>
  </g>
 </g>
 <defs>
  <clipPath id="peee4cd0412">
   <rect height="235.5" width="387.5" x="62.5" y="27"/>
  </clipPath>
 </defs>
</svg>
