<?xml version="1.0" encoding="utf-8" standalone="no"?>
<!DOCTYPE svg PUBLIC "-//W3C//DTD SVG 1.1//EN"
  "http://www.w3.org/Graphics/SVG/1.1/DTD/svg11.dtd">
<!-- Created with matplotlib (https://matplotlib.org/) -->
<svg height="300pt" version="1.1" viewBox="0 0 500 300" width="500pt" xmlns="http://www.w3.org/2000/svg" xmlns:xlink="http://www.w3.org/1999/xlink">
 <metadata>
  <rdf:RDF xmlns:cc="http://creativecommons.org/ns#" xmlns:dc="http://purl.org/dc/elements/1.1/" xmlns:rdf="http://www.w3.org/1999/02/22-rdf-syntax-ns#">
   <cc:Work>
    <dc:type rdf:resource="http://purl.org/dc/dcmitype/StillImage"/>
    <dc:date>2021-06-27T21:41:20.033040</dc:date>
    <dc:format>image/svg+xml</dc:format>
    <dc:creator>
     <cc:Agent>
      <dc:title>Matplotlib v3.3.4, https://matplotlib.org/</dc:title>
     </cc:Agent>
    </dc:creator>
   </cc:Work>
  </rdf:RDF>
 </metadata>
 <defs>
  <style type="text/css">*{stroke-linecap:butt;stroke-linejoin:round;}</style>
 </defs>
 <g id="figure_1">
  <g id="patch_1">
   <path d="M 0 300 
L 500 300 
L 500 0 
L 0 0 
z
" style="fill:#ffffff;"/>
  </g>
  <g id="axes_1">
   <g id="patch_2">
    <path d="M 62.5 262.5 
L 450 262.5 
L 450 27 
L 62.5 27 
z
" style="fill:#ffffff;"/>
   </g>
   <g id="matplotlib.axis_1">
    <g id="xtick_1">
     <g id="line2d_1">
      <defs>
       <path d="M 0 0 
L 0 3.5 
" id="m17ceaba9fb" style="stroke:#555555;stroke-width:0.8;"/>
      </defs>
      <g>
       <use style="fill:#555555;stroke:#555555;stroke-width:0.8;" x="62.5" xlink:href="#m17ceaba9fb" y="262.5"/>
      </g>
     </g>
    </g>
    <g id="xtick_2">
     <g id="line2d_2">
      <g>
       <use style="fill:#555555;stroke:#555555;stroke-width:0.8;" x="70.923913" xlink:href="#m17ceaba9fb" y="262.5"/>
      </g>
     </g>
     <g id="text_1">
      <!-- Apr -->
      <g style="fill:#555555;" transform="translate(63.054382 276.640625)scale(0.1 -0.1)">
       <defs>
        <path d="M 20.09375 29.5 
L 32.203125 62.796875 
L 32.40625 62.796875 
L 44.296875 29.5 
z
M 27.203125 71.40625 
L -0.59375 0 
L 9.09375 0 
L 17.09375 21.5 
L 47.296875 21.5 
L 55.09375 0 
L 65.59375 0 
L 37.703125 71.40625 
z
" id="HelveticaNeue-65"/>
        <path d="M 6.703125 51.703125 
L 6.703125 -19.703125 
L 15.203125 -19.703125 
L 15.203125 6.90625 
L 15.40625 6.90625 
Q 16.796875 4.59375 18.84375 3.046875 
Q 20.90625 1.5 23.203125 0.59375 
Q 25.5 -0.296875 27.84375 -0.6875 
Q 30.203125 -1.09375 32.09375 -1.09375 
Q 38 -1.09375 42.453125 1 
Q 46.90625 3.09375 49.84375 6.75 
Q 52.796875 10.40625 54.25 15.296875 
Q 55.703125 20.203125 55.703125 25.703125 
Q 55.703125 31.203125 54.203125 36.09375 
Q 52.703125 41 49.75 44.75 
Q 46.796875 48.5 42.34375 50.703125 
Q 37.90625 52.90625 31.90625 52.90625 
Q 26.5 52.90625 22 50.953125 
Q 17.5 49 15.40625 44.703125 
L 15.203125 44.703125 
L 15.203125 51.703125 
z
M 46.703125 26.296875 
Q 46.703125 22.5 45.890625 18.890625 
Q 45.09375 15.296875 43.296875 12.5 
Q 41.5 9.703125 38.546875 8 
Q 35.59375 6.296875 31.203125 6.296875 
Q 26.796875 6.296875 23.6875 7.9375 
Q 20.59375 9.59375 18.640625 12.296875 
Q 16.703125 15 15.796875 18.546875 
Q 14.90625 22.09375 14.90625 25.90625 
Q 14.90625 29.5 15.75 33 
Q 16.59375 36.5 18.5 39.25 
Q 20.40625 42 23.40625 43.703125 
Q 26.40625 45.40625 30.703125 45.40625 
Q 34.796875 45.40625 37.84375 43.796875 
Q 40.90625 42.203125 42.84375 39.5 
Q 44.796875 36.796875 45.75 33.34375 
Q 46.703125 29.90625 46.703125 26.296875 
z
" id="HelveticaNeue-112"/>
        <path d="M 6.09375 51.703125 
L 6.09375 0 
L 14.59375 0 
L 14.59375 23 
Q 14.59375 28 15.59375 31.84375 
Q 16.59375 35.703125 18.796875 38.390625 
Q 21 41.09375 24.59375 42.5 
Q 28.203125 43.90625 33.296875 43.90625 
L 33.296875 52.90625 
Q 26.40625 53.09375 21.90625 50.09375 
Q 17.40625 47.09375 14.296875 40.796875 
L 14.09375 40.796875 
L 14.09375 51.703125 
z
" id="HelveticaNeue-114"/>
       </defs>
       <use xlink:href="#HelveticaNeue-65"/>
       <use x="64.799988" xlink:href="#HelveticaNeue-112"/>
       <use x="124.099976" xlink:href="#HelveticaNeue-114"/>
      </g>
     </g>
    </g>
    <g id="xtick_3">
     <g id="line2d_3">
      <g>
       <use style="fill:#555555;stroke:#555555;stroke-width:0.8;" x="147.581522" xlink:href="#m17ceaba9fb" y="262.5"/>
      </g>
     </g>
     <g id="text_2">
      <!-- Jul -->
      <g style="fill:#555555;" transform="translate(141.096365 276.640625)scale(0.1 -0.1)">
       <defs>
        <path d="M 44.09375 17.796875 
L 44.09375 71.40625 
L 34.59375 71.40625 
L 34.59375 19.203125 
Q 34.59375 13.296875 32.140625 9.796875 
Q 29.703125 6.296875 23.203125 6.296875 
Q 19.703125 6.296875 17.453125 7.34375 
Q 15.203125 8.40625 13.953125 10.296875 
Q 12.703125 12.203125 12.203125 14.796875 
Q 11.703125 17.40625 11.703125 20.5 
L 11.703125 23.5 
L 2.203125 23.5 
L 2.203125 19.09375 
Q 2.203125 8.90625 7.59375 3.65625 
Q 13 -1.59375 23 -1.59375 
Q 29 -1.59375 33.046875 0.046875 
Q 37.09375 1.703125 39.546875 4.453125 
Q 42 7.203125 43.046875 10.703125 
Q 44.09375 14.203125 44.09375 17.796875 
z
" id="HelveticaNeue-74"/>
        <path d="M 49.203125 0 
L 49.203125 51.703125 
L 40.703125 51.703125 
L 40.703125 22.5 
Q 40.703125 19 39.75 16.046875 
Q 38.796875 13.09375 36.890625 10.890625 
Q 35 8.703125 32.140625 7.5 
Q 29.296875 6.296875 25.40625 6.296875 
Q 20.5 6.296875 17.703125 9.09375 
Q 14.90625 11.90625 14.90625 16.703125 
L 14.90625 51.703125 
L 6.40625 51.703125 
L 6.40625 17.703125 
Q 6.40625 13.5 7.25 10.046875 
Q 8.09375 6.59375 10.1875 4.09375 
Q 12.296875 1.59375 15.6875 0.25 
Q 19.09375 -1.09375 24.203125 -1.09375 
Q 29.90625 -1.09375 34.09375 1.15625 
Q 38.296875 3.40625 41 8.203125 
L 41.203125 8.203125 
L 41.203125 0 
z
" id="HelveticaNeue-117"/>
        <path d="M 6.90625 71.40625 
L 6.90625 0 
L 15.40625 0 
L 15.40625 71.40625 
z
" id="HelveticaNeue-108"/>
       </defs>
       <use xlink:href="#HelveticaNeue-74"/>
       <use x="51.899994" xlink:href="#HelveticaNeue-117"/>
       <use x="107.499985" xlink:href="#HelveticaNeue-108"/>
      </g>
     </g>
    </g>
    <g id="xtick_4">
     <g id="line2d_4">
      <g>
       <use style="fill:#555555;stroke:#555555;stroke-width:0.8;" x="225.081522" xlink:href="#m17ceaba9fb" y="262.5"/>
      </g>
     </g>
     <g id="text_3">
      <!-- Oct -->
      <g style="fill:#555555;" transform="translate(217.021365 276.640625)scale(0.1 -0.1)">
       <defs>
        <path d="M 13.296875 35.703125 
Q 13.296875 41.09375 14.6875 46.34375 
Q 16.09375 51.59375 19.09375 55.796875 
Q 22.09375 60 26.796875 62.546875 
Q 31.5 65.09375 38 65.09375 
Q 44.5 65.09375 49.203125 62.546875 
Q 53.90625 60 56.90625 55.796875 
Q 59.90625 51.59375 61.296875 46.34375 
Q 62.703125 41.09375 62.703125 35.703125 
Q 62.703125 30.296875 61.296875 25.046875 
Q 59.90625 19.796875 56.90625 15.59375 
Q 53.90625 11.40625 49.203125 8.84375 
Q 44.5 6.296875 38 6.296875 
Q 31.5 6.296875 26.796875 8.84375 
Q 22.09375 11.40625 19.09375 15.59375 
Q 16.09375 19.796875 14.6875 25.046875 
Q 13.296875 30.296875 13.296875 35.703125 
z
M 3.796875 35.703125 
Q 3.796875 28.40625 5.9375 21.65625 
Q 8.09375 14.90625 12.390625 9.703125 
Q 16.703125 4.5 23.09375 1.453125 
Q 29.5 -1.59375 38 -1.59375 
Q 46.5 -1.59375 52.890625 1.453125 
Q 59.296875 4.5 63.59375 9.703125 
Q 67.90625 14.90625 70.046875 21.65625 
Q 72.203125 28.40625 72.203125 35.703125 
Q 72.203125 43 70.046875 49.75 
Q 67.90625 56.5 63.59375 61.703125 
Q 59.296875 66.90625 52.890625 70 
Q 46.5 73.09375 38 73.09375 
Q 29.5 73.09375 23.09375 70 
Q 16.703125 66.90625 12.390625 61.703125 
Q 8.09375 56.5 5.9375 49.75 
Q 3.796875 43 3.796875 35.703125 
z
" id="HelveticaNeue-79"/>
        <path d="M 41.5 35.09375 
L 50.296875 35.09375 
Q 49.796875 39.703125 47.890625 43.046875 
Q 46 46.40625 43.046875 48.59375 
Q 40.09375 50.796875 36.25 51.84375 
Q 32.40625 52.90625 28 52.90625 
Q 21.90625 52.90625 17.296875 50.75 
Q 12.703125 48.59375 9.640625 44.84375 
Q 6.59375 41.09375 5.09375 36.046875 
Q 3.59375 31 3.59375 25.203125 
Q 3.59375 19.40625 5.140625 14.546875 
Q 6.703125 9.703125 9.75 6.203125 
Q 12.796875 2.703125 17.34375 0.796875 
Q 21.90625 -1.09375 27.796875 -1.09375 
Q 37.703125 -1.09375 43.453125 4.09375 
Q 49.203125 9.296875 50.59375 18.90625 
L 41.90625 18.90625 
Q 41.09375 12.90625 37.546875 9.59375 
Q 34 6.296875 27.703125 6.296875 
Q 23.703125 6.296875 20.796875 7.890625 
Q 17.90625 9.5 16.09375 12.140625 
Q 14.296875 14.796875 13.4375 18.1875 
Q 12.59375 21.59375 12.59375 25.203125 
Q 12.59375 29.09375 13.390625 32.75 
Q 14.203125 36.40625 16.046875 39.203125 
Q 17.90625 42 21 43.703125 
Q 24.09375 45.40625 28.703125 45.40625 
Q 34.09375 45.40625 37.296875 42.703125 
Q 40.5 40 41.5 35.09375 
z
" id="HelveticaNeue-99"/>
        <path d="M 18.203125 51.703125 
L 18.203125 67.203125 
L 9.703125 67.203125 
L 9.703125 51.703125 
L 0.90625 51.703125 
L 0.90625 44.203125 
L 9.703125 44.203125 
L 9.703125 11.296875 
Q 9.703125 7.703125 10.390625 5.5 
Q 11.09375 3.296875 12.546875 2.09375 
Q 14 0.90625 16.34375 0.453125 
Q 18.703125 0 22 0 
L 28.5 0 
L 28.5 7.5 
L 24.59375 7.5 
Q 22.59375 7.5 21.34375 7.640625 
Q 20.09375 7.796875 19.390625 8.296875 
Q 18.703125 8.796875 18.453125 9.6875 
Q 18.203125 10.59375 18.203125 12.09375 
L 18.203125 44.203125 
L 28.5 44.203125 
L 28.5 51.703125 
z
" id="HelveticaNeue-116"/>
       </defs>
       <use xlink:href="#HelveticaNeue-79"/>
       <use x="75.999985" xlink:href="#HelveticaNeue-99"/>
       <use x="129.699982" xlink:href="#HelveticaNeue-116"/>
      </g>
     </g>
    </g>
    <g id="xtick_5">
     <g id="line2d_5">
      <g>
       <use style="fill:#555555;stroke:#555555;stroke-width:0.8;" x="302.581522" xlink:href="#m17ceaba9fb" y="262.5"/>
      </g>
     </g>
     <g id="text_4">
      <!-- Jan -->
      <g style="fill:#555555;" transform="translate(294.521365 276.640625)scale(0.1 -0.1)">
       <defs>
        <path d="M 52.203125 0.203125 
Q 50 -1.09375 46.09375 -1.09375 
Q 42.796875 -1.09375 40.84375 0.75 
Q 38.90625 2.59375 38.90625 6.796875 
Q 35.40625 2.59375 30.75 0.75 
Q 26.09375 -1.09375 20.703125 -1.09375 
Q 17.203125 -1.09375 14.046875 -0.296875 
Q 10.90625 0.5 8.59375 2.203125 
Q 6.296875 3.90625 4.9375 6.65625 
Q 3.59375 9.40625 3.59375 13.296875 
Q 3.59375 17.703125 5.09375 20.5 
Q 6.59375 23.296875 9.046875 25.046875 
Q 11.5 26.796875 14.640625 27.6875 
Q 17.796875 28.59375 21.09375 29.203125 
Q 24.59375 29.90625 27.75 30.25 
Q 30.90625 30.59375 33.296875 31.25 
Q 35.703125 31.90625 37.09375 33.15625 
Q 38.5 34.40625 38.5 36.796875 
Q 38.5 39.59375 37.453125 41.296875 
Q 36.40625 43 34.75 43.890625 
Q 33.09375 44.796875 31.046875 45.09375 
Q 29 45.40625 27 45.40625 
Q 21.59375 45.40625 18 43.34375 
Q 14.40625 41.296875 14.09375 35.59375 
L 5.59375 35.59375 
Q 5.796875 40.40625 7.59375 43.703125 
Q 9.40625 47 12.40625 49.046875 
Q 15.40625 51.09375 19.25 52 
Q 23.09375 52.90625 27.5 52.90625 
Q 31 52.90625 34.453125 52.40625 
Q 37.90625 51.90625 40.703125 50.34375 
Q 43.5 48.796875 45.203125 46 
Q 46.90625 43.203125 46.90625 38.703125 
L 46.90625 12.09375 
Q 46.90625 9.09375 47.25 7.6875 
Q 47.59375 6.296875 49.59375 6.296875 
Q 50.703125 6.296875 52.203125 6.796875 
z
M 38.40625 26.703125 
Q 36.796875 25.5 34.1875 24.953125 
Q 31.59375 24.40625 28.75 24.046875 
Q 25.90625 23.703125 23 23.25 
Q 20.09375 22.796875 17.796875 21.796875 
Q 15.5 20.796875 14.046875 18.9375 
Q 12.59375 17.09375 12.59375 13.90625 
Q 12.59375 11.796875 13.4375 10.34375 
Q 14.296875 8.90625 15.640625 8 
Q 17 7.09375 18.796875 6.6875 
Q 20.59375 6.296875 22.59375 6.296875 
Q 26.796875 6.296875 29.796875 7.4375 
Q 32.796875 8.59375 34.6875 10.34375 
Q 36.59375 12.09375 37.5 14.140625 
Q 38.40625 16.203125 38.40625 18 
z
" id="HelveticaNeue-97"/>
        <path d="M 6.40625 51.703125 
L 6.40625 0 
L 14.90625 0 
L 14.90625 29.203125 
Q 14.90625 32.703125 15.84375 35.640625 
Q 16.796875 38.59375 18.6875 40.796875 
Q 20.59375 43 23.4375 44.203125 
Q 26.296875 45.40625 30.203125 45.40625 
Q 35.09375 45.40625 37.890625 42.59375 
Q 40.703125 39.796875 40.703125 35 
L 40.703125 0 
L 49.203125 0 
L 49.203125 34 
Q 49.203125 38.203125 48.34375 41.640625 
Q 47.5 45.09375 45.390625 47.59375 
Q 43.296875 50.09375 39.890625 51.5 
Q 36.5 52.90625 31.40625 52.90625 
Q 19.90625 52.90625 14.59375 43.5 
L 14.40625 43.5 
L 14.40625 51.703125 
z
" id="HelveticaNeue-110"/>
       </defs>
       <use xlink:href="#HelveticaNeue-74"/>
       <use x="51.899994" xlink:href="#HelveticaNeue-97"/>
       <use x="105.599991" xlink:href="#HelveticaNeue-110"/>
      </g>
      <!-- 2021 -->
      <g style="fill:#555555;" transform="translate(291.462772 287.179688)scale(0.1 -0.1)">
       <defs>
        <path d="M 4.40625 45.796875 
L 12.90625 45.796875 
Q 12.796875 49 13.546875 52.140625 
Q 14.296875 55.296875 16 57.796875 
Q 17.703125 60.296875 20.34375 61.84375 
Q 23 63.40625 26.703125 63.40625 
Q 29.5 63.40625 32 62.5 
Q 34.5 61.59375 36.34375 59.890625 
Q 38.203125 58.203125 39.296875 55.84375 
Q 40.40625 53.5 40.40625 50.59375 
Q 40.40625 46.90625 39.25 44.09375 
Q 38.09375 41.296875 35.84375 38.890625 
Q 33.59375 36.5 30.1875 34.140625 
Q 26.796875 31.796875 22.296875 29 
Q 18.59375 26.796875 15.1875 24.296875 
Q 11.796875 21.796875 9.09375 18.5 
Q 6.40625 15.203125 4.65625 10.75 
Q 2.90625 6.296875 2.40625 0 
L 48.703125 0 
L 48.703125 7.5 
L 12.296875 7.5 
Q 12.90625 10.796875 14.84375 13.34375 
Q 16.796875 15.90625 19.546875 18.09375 
Q 22.296875 20.296875 25.59375 22.25 
Q 28.90625 24.203125 32.203125 26.203125 
Q 35.5 28.296875 38.59375 30.59375 
Q 41.703125 32.90625 44.09375 35.75 
Q 46.5 38.59375 47.953125 42.1875 
Q 49.40625 45.796875 49.40625 50.5 
Q 49.40625 55.5 47.65625 59.296875 
Q 45.90625 63.09375 42.90625 65.640625 
Q 39.90625 68.203125 35.84375 69.546875 
Q 31.796875 70.90625 27.203125 70.90625 
Q 21.59375 70.90625 17.1875 69 
Q 12.796875 67.09375 9.84375 63.75 
Q 6.90625 60.40625 5.5 55.796875 
Q 4.09375 51.203125 4.40625 45.796875 
z
" id="HelveticaNeue-50"/>
        <path d="M 13.203125 34.90625 
Q 13.203125 37.5 13.25 40.640625 
Q 13.296875 43.796875 13.75 46.9375 
Q 14.203125 50.09375 15.046875 53.09375 
Q 15.90625 56.09375 17.546875 58.34375 
Q 19.203125 60.59375 21.703125 62 
Q 24.203125 63.40625 27.796875 63.40625 
Q 31.40625 63.40625 33.90625 62 
Q 36.40625 60.59375 38.046875 58.34375 
Q 39.703125 56.09375 40.546875 53.09375 
Q 41.40625 50.09375 41.84375 46.9375 
Q 42.296875 43.796875 42.34375 40.640625 
Q 42.40625 37.5 42.40625 34.90625 
Q 42.40625 30.90625 42.15625 25.953125 
Q 41.90625 21 40.546875 16.640625 
Q 39.203125 12.296875 36.203125 9.296875 
Q 33.203125 6.296875 27.796875 6.296875 
Q 22.40625 6.296875 19.40625 9.296875 
Q 16.40625 12.296875 15.046875 16.640625 
Q 13.703125 21 13.453125 25.953125 
Q 13.203125 30.90625 13.203125 34.90625 
z
M 4.203125 34.796875 
Q 4.203125 30.90625 4.390625 26.703125 
Q 4.59375 22.5 5.390625 18.5 
Q 6.203125 14.5 7.703125 10.953125 
Q 9.203125 7.40625 11.796875 4.703125 
Q 14.40625 2 18.34375 0.453125 
Q 22.296875 -1.09375 27.796875 -1.09375 
Q 33.40625 -1.09375 37.296875 0.453125 
Q 41.203125 2 43.796875 4.703125 
Q 46.40625 7.40625 47.90625 10.953125 
Q 49.40625 14.5 50.203125 18.5 
Q 51 22.5 51.203125 26.703125 
Q 51.40625 30.90625 51.40625 34.796875 
Q 51.40625 38.703125 51.203125 42.890625 
Q 51 47.09375 50.203125 51.09375 
Q 49.40625 55.09375 47.90625 58.6875 
Q 46.40625 62.296875 43.796875 65 
Q 41.203125 67.703125 37.25 69.296875 
Q 33.296875 70.90625 27.796875 70.90625 
Q 22.296875 70.90625 18.34375 69.296875 
Q 14.40625 67.703125 11.796875 65 
Q 9.203125 62.296875 7.703125 58.6875 
Q 6.203125 55.09375 5.390625 51.09375 
Q 4.59375 47.09375 4.390625 42.890625 
Q 4.203125 38.703125 4.203125 34.796875 
z
" id="HelveticaNeue-48"/>
        <path d="M 35.59375 0 
L 35.59375 70.90625 
L 29.09375 70.90625 
Q 28.40625 66.90625 26.5 64.296875 
Q 24.59375 61.703125 21.84375 60.203125 
Q 19.09375 58.703125 15.6875 58.140625 
Q 12.296875 57.59375 8.703125 57.59375 
L 8.703125 50.796875 
L 27.09375 50.796875 
L 27.09375 0 
z
" id="HelveticaNeue-49"/>
       </defs>
       <use xlink:href="#HelveticaNeue-50"/>
       <use x="55.599991" xlink:href="#HelveticaNeue-48"/>
       <use x="111.199982" xlink:href="#HelveticaNeue-50"/>
       <use x="166.799973" xlink:href="#HelveticaNeue-49"/>
      </g>
     </g>
    </g>
    <g id="xtick_6">
     <g id="line2d_6">
      <g>
       <use style="fill:#555555;stroke:#555555;stroke-width:0.8;" x="378.396739" xlink:href="#m17ceaba9fb" y="262.5"/>
      </g>
     </g>
     <g id="text_5">
      <!-- Apr -->
      <g style="fill:#555555;" transform="translate(370.527208 276.640625)scale(0.1 -0.1)">
       <use xlink:href="#HelveticaNeue-65"/>
       <use x="64.799988" xlink:href="#HelveticaNeue-112"/>
       <use x="124.099976" xlink:href="#HelveticaNeue-114"/>
      </g>
     </g>
    </g>
    <g id="xtick_7">
     <g id="line2d_7">
      <g>
       <use style="fill:#555555;stroke:#555555;stroke-width:0.8;" x="450" xlink:href="#m17ceaba9fb" y="262.5"/>
      </g>
     </g>
    </g>
    <g id="xtick_8">
     <g id="line2d_8">
      <defs>
       <path d="M 0 0 
L 0 2 
" id="m64fde528cf" style="stroke:#555555;stroke-width:0.6;"/>
      </defs>
      <g>
       <use style="fill:#555555;stroke:#555555;stroke-width:0.6;" x="96.195652" xlink:href="#m64fde528cf" y="262.5"/>
      </g>
     </g>
    </g>
    <g id="xtick_9">
     <g id="line2d_9">
      <g>
       <use style="fill:#555555;stroke:#555555;stroke-width:0.6;" x="122.309783" xlink:href="#m64fde528cf" y="262.5"/>
      </g>
     </g>
    </g>
    <g id="xtick_10">
     <g id="line2d_10">
      <g>
       <use style="fill:#555555;stroke:#555555;stroke-width:0.6;" x="173.695652" xlink:href="#m64fde528cf" y="262.5"/>
      </g>
     </g>
    </g>
    <g id="xtick_11">
     <g id="line2d_11">
      <g>
       <use style="fill:#555555;stroke:#555555;stroke-width:0.6;" x="199.809783" xlink:href="#m64fde528cf" y="262.5"/>
      </g>
     </g>
    </g>
    <g id="xtick_12">
     <g id="line2d_12">
      <g>
       <use style="fill:#555555;stroke:#555555;stroke-width:0.6;" x="251.195652" xlink:href="#m64fde528cf" y="262.5"/>
      </g>
     </g>
    </g>
    <g id="xtick_13">
     <g id="line2d_13">
      <g>
       <use style="fill:#555555;stroke:#555555;stroke-width:0.6;" x="276.467391" xlink:href="#m64fde528cf" y="262.5"/>
      </g>
     </g>
    </g>
    <g id="xtick_14">
     <g id="line2d_14">
      <g>
       <use style="fill:#555555;stroke:#555555;stroke-width:0.6;" x="328.695652" xlink:href="#m64fde528cf" y="262.5"/>
      </g>
     </g>
    </g>
    <g id="xtick_15">
     <g id="line2d_15">
      <g>
       <use style="fill:#555555;stroke:#555555;stroke-width:0.6;" x="352.282609" xlink:href="#m64fde528cf" y="262.5"/>
      </g>
     </g>
    </g>
    <g id="xtick_16">
     <g id="line2d_16">
      <g>
       <use style="fill:#555555;stroke:#555555;stroke-width:0.6;" x="403.668478" xlink:href="#m64fde528cf" y="262.5"/>
      </g>
     </g>
    </g>
    <g id="xtick_17">
     <g id="line2d_17">
      <g>
       <use style="fill:#555555;stroke:#555555;stroke-width:0.6;" x="429.782609" xlink:href="#m64fde528cf" y="262.5"/>
      </g>
     </g>
    </g>
    <g id="text_6">
     <!-- fecha -->
     <g style="fill:#555555;" transform="translate(243.935156 300.290625)scale(0.1 -0.1)">
      <defs>
       <path d="M 9.90625 44.203125 
L 9.90625 0 
L 18.40625 0 
L 18.40625 44.203125 
L 28.40625 44.203125 
L 28.40625 51.703125 
L 18.40625 51.703125 
L 18.40625 58.90625 
Q 18.40625 62.296875 20.09375 63.5 
Q 21.796875 64.703125 24.90625 64.703125 
Q 26 64.703125 27.296875 64.546875 
Q 28.59375 64.40625 29.703125 64 
L 29.703125 71.40625 
Q 28.5 71.796875 26.953125 72 
Q 25.40625 72.203125 24.203125 72.203125 
Q 17.203125 72.203125 13.546875 68.953125 
Q 9.90625 65.703125 9.90625 59.40625 
L 9.90625 51.703125 
L 1.203125 51.703125 
L 1.203125 44.203125 
z
" id="HelveticaNeue-102"/>
       <path d="M 42.296875 30.796875 
L 12.59375 30.796875 
Q 12.796875 33.796875 13.890625 36.4375 
Q 15 39.09375 16.890625 41.09375 
Q 18.796875 43.09375 21.4375 44.25 
Q 24.09375 45.40625 27.40625 45.40625 
Q 30.59375 45.40625 33.25 44.25 
Q 35.90625 43.09375 37.84375 41.140625 
Q 39.796875 39.203125 40.9375 36.5 
Q 42.09375 33.796875 42.296875 30.796875 
z
M 50.5 16.40625 
L 42.09375 16.40625 
Q 41 11.296875 37.546875 8.796875 
Q 34.09375 6.296875 28.703125 6.296875 
Q 24.5 6.296875 21.390625 7.6875 
Q 18.296875 9.09375 16.296875 11.4375 
Q 14.296875 13.796875 13.390625 16.84375 
Q 12.5 19.90625 12.59375 23.296875 
L 51.296875 23.296875 
Q 51.5 28 50.453125 33.203125 
Q 49.40625 38.40625 46.65625 42.796875 
Q 43.90625 47.203125 39.34375 50.046875 
Q 34.796875 52.90625 27.90625 52.90625 
Q 22.59375 52.90625 18.140625 50.90625 
Q 13.703125 48.90625 10.453125 45.296875 
Q 7.203125 41.703125 5.390625 36.796875 
Q 3.59375 31.90625 3.59375 26 
Q 3.796875 20.09375 5.34375 15.09375 
Q 6.90625 10.09375 10 6.5 
Q 13.09375 2.90625 17.640625 0.90625 
Q 22.203125 -1.09375 28.40625 -1.09375 
Q 37.203125 -1.09375 43 3.296875 
Q 48.796875 7.703125 50.5 16.40625 
z
" id="HelveticaNeue-101"/>
       <path d="M 6.40625 71.40625 
L 6.40625 0 
L 14.90625 0 
L 14.90625 29.203125 
Q 14.90625 32.703125 15.84375 35.640625 
Q 16.796875 38.59375 18.6875 40.796875 
Q 20.59375 43 23.4375 44.203125 
Q 26.296875 45.40625 30.203125 45.40625 
Q 35.09375 45.40625 37.890625 42.59375 
Q 40.703125 39.796875 40.703125 35 
L 40.703125 0 
L 49.203125 0 
L 49.203125 34 
Q 49.203125 38.203125 48.34375 41.640625 
Q 47.5 45.09375 45.390625 47.59375 
Q 43.296875 50.09375 39.890625 51.5 
Q 36.5 52.90625 31.40625 52.90625 
Q 29.09375 52.90625 26.640625 52.40625 
Q 24.203125 51.90625 21.953125 50.84375 
Q 19.703125 49.796875 17.890625 48.140625 
Q 16.09375 46.5 15.09375 44.09375 
L 14.90625 44.09375 
L 14.90625 71.40625 
z
" id="HelveticaNeue-104"/>
      </defs>
      <use xlink:href="#HelveticaNeue-102"/>
      <use x="29.599991" xlink:href="#HelveticaNeue-101"/>
      <use x="83.299988" xlink:href="#HelveticaNeue-99"/>
      <use x="136.999985" xlink:href="#HelveticaNeue-104"/>
      <use x="192.599976" xlink:href="#HelveticaNeue-97"/>
     </g>
    </g>
   </g>
   <g id="matplotlib.axis_2">
    <g id="ytick_1">
     <g id="line2d_18">
      <defs>
       <path d="M 0 0 
L -3.5 0 
" id="mc557300d73" style="stroke:#555555;stroke-width:0.8;"/>
      </defs>
      <g>
       <use style="fill:#555555;stroke:#555555;stroke-width:0.8;" x="62.5" xlink:href="#mc557300d73" y="251.795455"/>
      </g>
     </g>
     <g id="text_7">
      <!-- 0 -->
      <g style="fill:#555555;" transform="translate(49.940625 255.365767)scale(0.1 -0.1)">
       <use xlink:href="#HelveticaNeue-48"/>
      </g>
     </g>
    </g>
    <g id="ytick_2">
     <g id="line2d_19">
      <g>
       <use style="fill:#555555;stroke:#555555;stroke-width:0.8;" x="62.5" xlink:href="#mc557300d73" y="217.920311"/>
      </g>
     </g>
     <g id="text_8">
      <!-- 100 -->
      <g style="fill:#555555;" transform="translate(38.821875 221.490623)scale(0.1 -0.1)">
       <use xlink:href="#HelveticaNeue-49"/>
       <use x="55.599991" xlink:href="#HelveticaNeue-48"/>
       <use x="111.199982" xlink:href="#HelveticaNeue-48"/>
      </g>
     </g>
    </g>
    <g id="ytick_3">
     <g id="line2d_20">
      <g>
       <use style="fill:#555555;stroke:#555555;stroke-width:0.8;" x="62.5" xlink:href="#mc557300d73" y="184.045167"/>
      </g>
     </g>
     <g id="text_9">
      <!-- 200 -->
      <g style="fill:#555555;" transform="translate(38.821875 187.615479)scale(0.1 -0.1)">
       <use xlink:href="#HelveticaNeue-50"/>
       <use x="55.599991" xlink:href="#HelveticaNeue-48"/>
       <use x="111.199982" xlink:href="#HelveticaNeue-48"/>
      </g>
     </g>
    </g>
    <g id="ytick_4">
     <g id="line2d_21">
      <g>
       <use style="fill:#555555;stroke:#555555;stroke-width:0.8;" x="62.5" xlink:href="#mc557300d73" y="150.170023"/>
      </g>
     </g>
     <g id="text_10">
      <!-- 300 -->
      <g style="fill:#555555;" transform="translate(38.821875 153.740336)scale(0.1 -0.1)">
       <defs>
        <path d="M 21.796875 40.5 
L 21.796875 33.296875 
Q 24.203125 33.59375 26.90625 33.59375 
Q 30.09375 33.59375 32.84375 32.75 
Q 35.59375 31.90625 37.59375 30.15625 
Q 39.59375 28.40625 40.796875 25.84375 
Q 42 23.296875 42 20 
Q 42 16.796875 40.75 14.25 
Q 39.5 11.703125 37.390625 9.953125 
Q 35.296875 8.203125 32.5 7.25 
Q 29.703125 6.296875 26.59375 6.296875 
Q 19.296875 6.296875 15.5 10.640625 
Q 11.703125 15 11.5 21.90625 
L 3 21.90625 
Q 2.90625 16.40625 4.546875 12.09375 
Q 6.203125 7.796875 9.296875 4.84375 
Q 12.40625 1.90625 16.796875 0.40625 
Q 21.203125 -1.09375 26.59375 -1.09375 
Q 31.59375 -1.09375 36.046875 0.25 
Q 40.5 1.59375 43.796875 4.296875 
Q 47.09375 7 49.046875 11.046875 
Q 51 15.09375 51 20.40625 
Q 51 26.796875 47.84375 31.5 
Q 44.703125 36.203125 38.203125 37.59375 
L 38.203125 37.796875 
Q 42.40625 39.703125 45.203125 43.390625 
Q 48 47.09375 48 51.90625 
Q 48 56.796875 46.34375 60.390625 
Q 44.703125 64 41.796875 66.296875 
Q 38.90625 68.59375 34.953125 69.75 
Q 31 70.90625 26.40625 70.90625 
Q 21.09375 70.90625 17.046875 69.203125 
Q 13 67.5 10.296875 64.5 
Q 7.59375 61.5 6.140625 57.296875 
Q 4.703125 53.09375 4.5 48 
L 13 48 
Q 13 51.09375 13.796875 53.890625 
Q 14.59375 56.703125 16.25 58.796875 
Q 17.90625 60.90625 20.453125 62.15625 
Q 23 63.40625 26.40625 63.40625 
Q 31.796875 63.40625 35.390625 60.546875 
Q 39 57.703125 39 52 
Q 39 49.203125 37.890625 47 
Q 36.796875 44.796875 34.9375 43.34375 
Q 33.09375 41.90625 30.640625 41.15625 
Q 28.203125 40.40625 25.5 40.40625 
L 23.703125 40.40625 
Q 23.203125 40.40625 22.703125 40.40625 
Q 22.296875 40.40625 21.796875 40.5 
z
" id="HelveticaNeue-51"/>
       </defs>
       <use xlink:href="#HelveticaNeue-51"/>
       <use x="55.599991" xlink:href="#HelveticaNeue-48"/>
       <use x="111.199982" xlink:href="#HelveticaNeue-48"/>
      </g>
     </g>
    </g>
    <g id="ytick_5">
     <g id="line2d_22">
      <g>
       <use style="fill:#555555;stroke:#555555;stroke-width:0.8;" x="62.5" xlink:href="#mc557300d73" y="116.294879"/>
      </g>
     </g>
     <g id="text_11">
      <!-- 400 -->
      <g style="fill:#555555;" transform="translate(38.821875 119.865192)scale(0.1 -0.1)">
       <defs>
        <path d="M 33.90625 24.09375 
L 10.09375 24.09375 
L 33.703125 58.796875 
L 33.90625 58.796875 
z
M 41.90625 24.09375 
L 41.90625 70.90625 
L 35.09375 70.90625 
L 2.796875 24.796875 
L 2.796875 16.59375 
L 33.90625 16.59375 
L 33.90625 0 
L 41.90625 0 
L 41.90625 16.59375 
L 51.5 16.59375 
L 51.5 24.09375 
z
" id="HelveticaNeue-52"/>
       </defs>
       <use xlink:href="#HelveticaNeue-52"/>
       <use x="55.599991" xlink:href="#HelveticaNeue-48"/>
       <use x="111.199982" xlink:href="#HelveticaNeue-48"/>
      </g>
     </g>
    </g>
    <g id="ytick_6">
     <g id="line2d_23">
      <g>
       <use style="fill:#555555;stroke:#555555;stroke-width:0.8;" x="62.5" xlink:href="#mc557300d73" y="82.419735"/>
      </g>
     </g>
     <g id="text_12">
      <!-- 500 -->
      <g style="fill:#555555;" transform="translate(38.821875 85.990048)scale(0.1 -0.1)">
       <defs>
        <path d="M 47 62.203125 
L 47 69.703125 
L 12 69.703125 
L 5.40625 32.90625 
L 12.703125 32.5 
Q 15.203125 35.5 18.453125 37.34375 
Q 21.703125 39.203125 25.90625 39.203125 
Q 29.5 39.203125 32.453125 38 
Q 35.40625 36.796875 37.5 34.640625 
Q 39.59375 32.5 40.75 29.546875 
Q 41.90625 26.59375 41.90625 23.09375 
Q 41.90625 18.90625 40.703125 15.75 
Q 39.5 12.59375 37.453125 10.5 
Q 35.40625 8.40625 32.65625 7.34375 
Q 29.90625 6.296875 26.90625 6.296875 
Q 23.703125 6.296875 21.046875 7.25 
Q 18.40625 8.203125 16.453125 9.953125 
Q 14.5 11.703125 13.34375 14.046875 
Q 12.203125 16.40625 12 19.09375 
L 3.5 19.09375 
Q 3.59375 14.296875 5.390625 10.5 
Q 7.203125 6.703125 10.296875 4.140625 
Q 13.40625 1.59375 17.453125 0.25 
Q 21.5 -1.09375 26.09375 -1.09375 
Q 32.296875 -1.09375 36.9375 0.84375 
Q 41.59375 2.796875 44.6875 6.09375 
Q 47.796875 9.40625 49.34375 13.65625 
Q 50.90625 17.90625 50.90625 22.40625 
Q 50.90625 28.5 49.09375 33.046875 
Q 47.296875 37.59375 44.1875 40.640625 
Q 41.09375 43.703125 36.890625 45.203125 
Q 32.703125 46.703125 28 46.703125 
Q 24.40625 46.703125 20.75 45.453125 
Q 17.09375 44.203125 14.796875 41.59375 
L 14.59375 41.796875 
L 18.40625 62.203125 
z
" id="HelveticaNeue-53"/>
       </defs>
       <use xlink:href="#HelveticaNeue-53"/>
       <use x="55.599991" xlink:href="#HelveticaNeue-48"/>
       <use x="111.199982" xlink:href="#HelveticaNeue-48"/>
      </g>
     </g>
    </g>
    <g id="ytick_7">
     <g id="line2d_24">
      <g>
       <use style="fill:#555555;stroke:#555555;stroke-width:0.8;" x="62.5" xlink:href="#mc557300d73" y="48.544591"/>
      </g>
     </g>
     <g id="text_13">
      <!-- 600 -->
      <g style="fill:#555555;" transform="translate(38.821875 52.114904)scale(0.1 -0.1)">
       <defs>
        <path d="M 41.40625 52.796875 
L 49.90625 52.796875 
Q 49.09375 61.59375 43.890625 66.25 
Q 38.703125 70.90625 29.90625 70.90625 
Q 22.296875 70.90625 17.296875 67.703125 
Q 12.296875 64.5 9.296875 59.203125 
Q 6.296875 53.90625 5.046875 47.046875 
Q 3.796875 40.203125 3.796875 32.90625 
Q 3.796875 27.296875 4.640625 21.296875 
Q 5.5 15.296875 8.09375 10.296875 
Q 10.703125 5.296875 15.5 2.09375 
Q 20.296875 -1.09375 28.203125 -1.09375 
Q 34.90625 -1.09375 39.453125 1.15625 
Q 44 3.40625 46.75 6.84375 
Q 49.5 10.296875 50.703125 14.5 
Q 51.90625 18.703125 51.90625 22.59375 
Q 51.90625 27.5 50.40625 31.703125 
Q 48.90625 35.90625 46.15625 39 
Q 43.40625 42.09375 39.34375 43.84375 
Q 35.296875 45.59375 30.203125 45.59375 
Q 24.40625 45.59375 19.953125 43.390625 
Q 15.5 41.203125 12.5 36.296875 
L 12.296875 36.5 
Q 12.40625 40.59375 13.09375 45.296875 
Q 13.796875 50 15.640625 54.046875 
Q 17.5 58.09375 20.796875 60.75 
Q 24.09375 63.40625 29.5 63.40625 
Q 34.59375 63.40625 37.6875 60.5 
Q 40.796875 57.59375 41.40625 52.796875 
z
M 28.59375 38.09375 
Q 32.203125 38.09375 34.890625 36.796875 
Q 37.59375 35.5 39.390625 33.34375 
Q 41.203125 31.203125 42.046875 28.25 
Q 42.90625 25.296875 42.90625 22 
Q 42.90625 18.90625 41.953125 16.046875 
Q 41 13.203125 39.203125 11 
Q 37.40625 8.796875 34.75 7.546875 
Q 32.09375 6.296875 28.59375 6.296875 
Q 25.09375 6.296875 22.34375 7.546875 
Q 19.59375 8.796875 17.75 10.890625 
Q 15.90625 13 14.90625 15.890625 
Q 13.90625 18.796875 13.90625 22.09375 
Q 13.90625 25.40625 14.84375 28.34375 
Q 15.796875 31.296875 17.6875 33.4375 
Q 19.59375 35.59375 22.296875 36.84375 
Q 25 38.09375 28.59375 38.09375 
z
" id="HelveticaNeue-54"/>
       </defs>
       <use xlink:href="#HelveticaNeue-54"/>
       <use x="55.599991" xlink:href="#HelveticaNeue-48"/>
       <use x="111.199982" xlink:href="#HelveticaNeue-48"/>
      </g>
     </g>
    </g>
   </g>
   <g id="line2d_25">
    <path clip-path="url(#p0b22f41d15)" d="M 63.342391 251.795455 
L 64.184783 250.440449 
L 65.027174 250.7792 
L 65.869565 249.762946 
L 66.711957 251.795455 
L 67.554348 250.101697 
L 68.396739 251.456703 
L 70.081522 250.7792 
L 70.923913 251.795455 
L 71.766304 250.440449 
L 72.608696 249.424194 
L 73.451087 249.424194 
L 74.293478 251.795455 
L 75.13587 248.746692 
L 75.978261 249.424194 
L 76.820652 251.456703 
L 77.663043 250.440449 
L 79.347826 251.795455 
L 80.190217 251.795455 
L 81.032609 250.7792 
L 81.875 251.456703 
L 82.717391 250.7792 
L 83.559783 249.762946 
L 84.402174 250.440449 
L 85.244565 249.085443 
L 86.086957 250.7792 
L 86.929348 250.7792 
L 87.771739 251.795455 
L 88.61413 251.456703 
L 89.456522 250.101697 
L 90.298913 250.440449 
L 91.141304 250.440449 
L 91.983696 249.762946 
L 92.826087 249.762946 
L 93.668478 249.424194 
L 94.51087 250.7792 
L 95.353261 249.424194 
L 96.195652 250.440449 
L 97.038043 250.440449 
L 97.880435 247.391686 
L 98.722826 248.746692 
L 99.565217 249.424194 
L 100.407609 250.440449 
L 101.25 249.424194 
L 102.092391 249.424194 
L 102.934783 249.762946 
L 103.777174 242.649166 
L 104.619565 249.085443 
L 105.461957 250.440449 
L 106.304348 250.101697 
L 107.146739 248.069189 
L 107.98913 247.391686 
L 108.831522 246.375432 
L 109.673913 249.085443 
L 110.516304 251.117952 
L 111.358696 245.697929 
L 112.201087 245.020426 
L 113.043478 249.424194 
L 113.88587 245.697929 
L 114.728261 246.714183 
L 115.570652 251.456703 
L 116.413043 246.03668 
L 117.255435 249.762946 
L 118.097826 245.359177 
L 118.940217 242.310414 
L 119.782609 247.730437 
L 120.625 249.085443 
L 121.467391 242.310414 
L 122.309783 242.310414 
L 123.152174 245.020426 
L 123.994565 242.310414 
L 124.836957 249.424194 
L 125.679348 244.342923 
L 126.521739 248.069189 
L 127.36413 248.069189 
L 128.206522 247.052934 
L 129.048913 242.310414 
L 129.891304 246.03668 
L 130.733696 245.359177 
L 131.576087 240.616657 
L 132.418478 246.714183 
L 133.26087 248.069189 
L 134.103261 245.697929 
L 134.945652 238.9229 
L 135.788043 241.632911 
L 136.630435 240.955409 
L 137.472826 238.245397 
L 138.315217 232.825374 
L 139.157609 236.55164 
L 140 235.196634 
L 140.842391 243.326669 
L 141.684783 227.0666 
L 142.527174 241.632911 
L 143.369565 234.519131 
L 144.211957 231.131617 
L 145.054348 226.389097 
L 145.896739 246.03668 
L 146.73913 231.131617 
L 147.581522 237.229143 
L 148.423913 231.131617 
L 149.266304 230.454114 
L 150.108696 232.825374 
L 150.951087 237.906646 
L 152.63587 220.630322 
L 153.478261 227.405351 
L 154.320652 235.196634 
L 155.163043 217.920311 
L 156.005435 224.695339 
L 156.847826 228.421605 
L 157.690217 220.969074 
L 158.532609 232.486623 
L 159.375 228.421605 
L 160.217391 217.242808 
L 161.059783 221.307825 
L 161.902174 205.725259 
L 162.744565 220.291571 
L 163.586957 226.389097 
L 164.429348 194.20771 
L 165.271739 198.95023 
L 166.11413 219.614068 
L 166.956522 192.852704 
L 167.798913 209.451525 
L 168.641304 217.581559 
L 169.483696 185.738924 
L 170.326087 191.83645 
L 171.168478 203.69275 
L 172.853261 198.272727 
L 173.695652 199.627733 
L 174.538043 215.549051 
L 175.380435 203.015247 
L 176.222826 151.86378 
L 177.065217 200.982739 
L 177.907609 203.353999 
L 178.75 177.60889 
L 179.592391 198.272727 
L 180.434783 209.451525 
L 181.277174 165.752589 
L 182.119565 194.20771 
L 182.961957 198.272727 
L 183.804348 183.028913 
L 184.646739 188.110184 
L 185.48913 173.205121 
L 186.331522 180.318901 
L 187.173913 198.272727 
L 188.016304 149.153769 
L 188.858696 213.177791 
L 189.701087 197.256473 
L 190.543478 197.256473 
L 191.38587 213.855293 
L 192.228261 196.240219 
L 193.070652 214.194045 
L 193.913043 195.901467 
L 194.755435 212.500288 
L 195.597826 217.920311 
L 196.440217 208.096519 
L 197.282609 227.0666 
L 198.125 219.275316 
L 198.967391 201.660242 
L 199.809783 195.223964 
L 200.652174 227.0666 
L 201.494565 211.484033 
L 202.336957 192.175201 
L 203.179348 225.711594 
L 204.021739 232.825374 
L 204.86413 219.952819 
L 205.706522 227.0666 
L 206.548913 214.532796 
L 207.391304 215.549051 
L 208.233696 203.015247 
L 209.076087 225.711594 
L 209.918478 235.874137 
L 210.76087 225.034091 
L 211.603261 220.630322 
L 212.445652 211.822785 
L 213.288043 217.242808 
L 214.130435 215.887802 
L 214.972826 230.792865 
L 215.815217 233.502877 
L 216.657609 228.421605 
L 217.5 225.711594 
L 218.342391 214.194045 
L 219.184783 220.291571 
L 220.027174 219.952819 
L 220.869565 228.082854 
L 221.711957 233.164125 
L 222.554348 229.099108 
L 223.396739 211.822785 
L 224.23913 232.147871 
L 225.081522 220.630322 
L 225.923913 193.191456 
L 226.766304 209.790276 
L 227.608696 215.210299 
L 228.451087 224.017837 
L 229.293478 219.952819 
L 230.13587 221.985328 
L 230.978261 217.581559 
L 231.820652 223.001582 
L 232.663043 226.050345 
L 233.505435 230.792865 
L 234.347826 237.906646 
L 235.190217 238.245397 
L 236.032609 228.082854 
L 236.875 207.757768 
L 237.717391 215.549051 
L 238.559783 219.614068 
L 239.402174 229.099108 
L 240.244565 227.0666 
L 241.086957 215.887802 
L 241.929348 207.419016 
L 242.771739 203.015247 
L 243.61413 208.774022 
L 244.456522 225.711594 
L 245.298913 221.985328 
L 246.141304 219.952819 
L 246.983696 201.32149 
L 247.826087 194.885213 
L 248.668478 213.177791 
L 249.51087 213.516542 
L 250.353261 218.259062 
L 251.195652 221.646577 
L 252.038043 214.532796 
L 252.880435 211.145282 
L 253.722826 207.080265 
L 254.565217 213.855293 
L 255.407609 212.161536 
L 256.25 210.129028 
L 257.934783 226.050345 
L 258.777174 217.920311 
L 259.619565 221.307825 
L 260.461957 218.259062 
L 261.304348 214.532796 
L 262.146739 232.486623 
L 262.98913 239.600403 
L 263.831522 219.614068 
L 264.673913 213.516542 
L 265.516304 232.486623 
L 266.358696 213.177791 
L 267.201087 209.790276 
L 268.043478 227.405351 
L 268.88587 214.871548 
L 269.728261 215.549051 
L 270.570652 212.500288 
L 271.413043 211.145282 
L 272.255435 202.676496 
L 273.097826 201.660242 
L 273.940217 210.467779 
L 274.782609 226.727848 
L 275.625 215.549051 
L 276.467391 206.06401 
L 277.309783 213.855293 
L 278.152174 212.161536 
L 278.994565 200.982739 
L 279.836957 207.419016 
L 280.679348 231.80912 
L 281.521739 213.855293 
L 282.36413 214.871548 
L 283.206522 205.725259 
L 284.048913 189.803941 
L 284.891304 187.771433 
L 285.733696 196.57897 
L 286.576087 206.741513 
L 288.26087 179.302647 
L 289.103261 178.963895 
L 289.945652 197.933976 
L 290.788043 180.996404 
L 291.630435 177.947641 
L 292.472826 208.43527 
L 293.315217 185.061421 
L 294.157609 176.592635 
L 295 155.928797 
L 295.842391 188.110184 
L 296.684783 198.611479 
L 297.527174 197.595224 
L 298.369565 177.947641 
L 299.211957 171.172612 
L 300.054348 131.538694 
L 300.896739 135.603711 
L 301.73913 184.72267 
L 302.581522 223.001582 
L 304.266304 135.942463 
L 305.108696 168.801352 
L 305.951087 112.907365 
L 306.793478 115.956128 
L 307.63587 136.958717 
L 308.478261 154.573792 
L 309.320652 128.15118 
L 310.163043 185.738924 
L 311.005435 182.35141 
L 311.847826 91.566024 
L 312.690217 96.647296 
L 313.532609 144.75 
L 314.375 163.381329 
L 315.217391 140.346231 
L 316.059783 161.34882 
L 316.902174 158.97756 
L 317.744565 155.928797 
L 318.586957 169.817606 
L 319.429348 154.912543 
L 320.271739 163.720081 
L 321.11413 164.736335 
L 321.956522 202.337745 
L 322.798913 164.397583 
L 323.641304 203.353999 
L 324.483696 170.833861 
L 326.168478 209.451525 
L 327.01087 223.340334 
L 327.853261 203.69275 
L 328.695652 220.630322 
L 329.538043 222.662831 
L 330.380435 210.80653 
L 331.222826 212.839039 
L 332.065217 221.985328 
L 332.907609 228.421605 
L 333.75 235.874137 
L 334.592391 220.969074 
L 335.434783 218.259062 
L 336.277174 224.695339 
L 337.119565 233.164125 
L 337.961957 225.034091 
L 338.804348 235.535386 
L 339.646739 231.131617 
L 340.48913 241.632911 
L 341.331522 220.969074 
L 342.173913 229.43786 
L 343.016304 235.535386 
L 343.858696 234.519131 
L 344.701087 235.874137 
L 345.543478 242.649166 
L 346.38587 238.9229 
L 347.228261 236.55164 
L 348.070652 233.164125 
L 348.913043 231.131617 
L 349.755435 238.9229 
L 350.597826 242.310414 
L 351.440217 237.567894 
L 352.282609 238.9229 
L 353.125 236.212888 
L 353.967391 236.55164 
L 354.809783 238.245397 
L 355.652174 231.470368 
L 357.336957 242.987917 
L 358.179348 238.245397 
L 359.021739 242.649166 
L 359.86413 238.584148 
L 360.706522 240.277906 
L 361.548913 244.681674 
L 362.391304 246.714183 
L 363.233696 240.277906 
L 364.076087 239.261651 
L 364.918478 239.600403 
L 365.76087 233.841628 
L 366.603261 238.584148 
L 367.445652 227.405351 
L 368.288043 236.212888 
L 369.130435 236.212888 
L 369.972826 246.714183 
L 370.815217 231.80912 
L 371.657609 227.744102 
L 372.5 233.164125 
L 373.342391 227.0666 
L 374.184783 222.324079 
L 375.027174 237.229143 
L 375.869565 223.679085 
L 376.711957 213.855293 
L 377.554348 218.936565 
L 378.396739 235.196634 
L 379.23913 224.695339 
L 380.081522 219.275316 
L 380.923913 228.421605 
L 381.766304 210.129028 
L 382.608696 189.126438 
L 383.451087 202.337745 
L 384.293478 197.256473 
L 385.13587 174.221375 
L 386.820652 192.175201 
L 387.663043 172.866369 
L 388.505435 165.752589 
L 389.347826 160.332566 
L 391.032609 173.882624 
L 391.875 182.35141 
L 392.717391 200.982739 
L 393.559783 189.803941 
L 394.402174 151.186277 
L 395.244565 182.012658 
L 396.086957 168.462601 
L 396.929348 189.46519 
L 397.771739 190.820196 
L 398.61413 183.028913 
L 399.456522 184.045167 
L 400.298913 170.833861 
L 401.141304 180.996404 
L 401.983696 174.221375 
L 402.826087 157.622555 
L 403.668478 183.028913 
L 404.51087 178.625144 
L 405.353261 171.511364 
L 406.195652 149.153769 
L 407.038043 164.058832 
L 407.880435 153.557537 
L 408.722826 171.511364 
L 409.565217 179.302647 
L 410.407609 154.573792 
L 411.25 157.283803 
L 412.092391 130.52244 
L 412.934783 171.172612 
L 413.777174 186.755178 
L 414.619565 170.156358 
L 415.461957 185.061421 
L 416.304348 195.901467 
L 417.146739 166.430092 
L 417.98913 145.088751 
L 418.831522 164.397583 
L 419.673913 148.476266 
L 420.516304 129.167434 
L 421.358696 143.056243 
L 422.201087 134.587457 
L 423.043478 140.684983 
L 423.88587 109.51985 
L 424.728261 120.359896 
L 426.413043 128.828682 
L 427.255435 82.080984 
L 428.097826 175.576381 
L 428.940217 133.571203 
L 429.782609 113.246116 
L 430.625 37.704545 
L 431.467391 94.614787 
L 432.309783 96.986047 
L 433.152174 121.376151 
L 433.994565 158.300058 
L 434.836957 98.002301 
L 435.679348 162.703826 
L 436.521739 100.712313 
L 437.36413 131.877445 
L 438.206522 157.622555 
L 439.048913 168.801352 
L 439.891304 176.931387 
L 440.733696 147.12126 
L 441.576087 125.779919 
L 442.418478 140.00748 
L 443.26087 79.032221 
L 444.103261 151.86378 
L 444.945652 92.582278 
L 445.788043 138.991226 
L 446.630435 124.086162 
L 447.472826 154.573792 
L 448.315217 131.877445 
L 449.157609 143.733746 
L 450 209.790276 
L 450 209.790276 
" style="fill:none;stroke:#000000;stroke-dasharray:1.5,2.475;stroke-dashoffset:0;stroke-opacity:0.5;stroke-width:1.5;"/>
   </g>
   <g id="line2d_26">
    <path clip-path="url(#p0b22f41d15)" d="M 62.5 251.117952 
L 63.342391 250.7792 
L 67.554348 250.7792 
L 68.396739 251.117952 
L 69.23913 251.117952 
L 70.081522 250.7792 
L 71.766304 250.7792 
L 73.451087 250.101697 
L 75.13587 250.101697 
L 75.978261 250.440449 
L 76.820652 250.440449 
L 78.505435 251.117952 
L 81.875 251.117952 
L 82.717391 250.440449 
L 86.086957 250.440449 
L 86.929348 250.7792 
L 89.456522 250.7792 
L 91.141304 250.101697 
L 94.51087 250.101697 
L 95.353261 249.762946 
L 96.195652 249.762946 
L 97.038043 249.424194 
L 100.407609 249.424194 
L 101.25 248.746692 
L 102.092391 248.746692 
L 102.934783 248.40794 
L 105.461957 248.40794 
L 106.304348 248.069189 
L 107.146739 248.746692 
L 107.98913 248.746692 
L 108.831522 248.069189 
L 109.673913 247.730437 
L 110.516304 247.730437 
L 111.358696 247.391686 
L 112.201087 247.391686 
L 113.043478 247.730437 
L 113.88587 247.391686 
L 114.728261 247.730437 
L 115.570652 247.730437 
L 116.413043 247.052934 
L 118.097826 247.052934 
L 118.940217 246.03668 
L 119.782609 245.697929 
L 120.625 245.020426 
L 121.467391 244.681674 
L 122.309783 245.020426 
L 123.152174 244.681674 
L 123.994565 244.681674 
L 124.836957 245.697929 
L 125.679348 246.375432 
L 127.36413 246.375432 
L 128.206522 246.03668 
L 129.048913 245.359177 
L 129.891304 245.020426 
L 131.576087 245.020426 
L 132.418478 244.681674 
L 134.103261 243.326669 
L 134.945652 242.987917 
L 135.788043 240.955409 
L 136.630435 239.261651 
L 137.472826 237.906646 
L 138.315217 237.906646 
L 139.157609 236.212888 
L 140 236.212888 
L 140.842391 235.874137 
L 141.684783 235.874137 
L 142.527174 234.519131 
L 143.369565 235.196634 
L 144.211957 234.18038 
L 145.054348 234.857883 
L 145.896739 234.18038 
L 146.73913 233.841628 
L 147.581522 233.841628 
L 148.423913 234.519131 
L 149.266304 232.825374 
L 150.108696 231.80912 
L 150.951087 230.454114 
L 151.793478 230.454114 
L 152.63587 228.760357 
L 153.478261 227.405351 
L 155.163043 225.372842 
L 156.005435 226.389097 
L 156.847826 226.389097 
L 157.690217 225.034091 
L 158.532609 225.034091 
L 159.375 222.662831 
L 160.217391 220.969074 
L 161.059783 220.630322 
L 162.744565 212.839039 
L 163.586957 212.161536 
L 164.429348 208.774022 
L 166.11413 207.419016 
L 166.956522 203.69275 
L 167.798913 203.015247 
L 168.641304 202.676496 
L 169.483696 200.305236 
L 170.326087 200.305236 
L 171.168478 198.95023 
L 172.01087 199.288982 
L 172.853261 201.998993 
L 173.695652 197.933976 
L 174.538043 196.240219 
L 175.380435 195.223964 
L 176.222826 192.513953 
L 177.065217 191.497699 
L 177.907609 191.497699 
L 178.75 189.126438 
L 179.592391 192.852704 
L 180.434783 191.83645 
L 181.277174 189.803941 
L 182.119565 190.481444 
L 182.961957 187.771433 
L 183.804348 184.383918 
L 184.646739 186.755178 
L 185.48913 182.012658 
L 186.331522 182.690161 
L 187.173913 184.383918 
L 188.016304 186.755178 
L 188.858696 192.175201 
L 190.543478 198.95023 
L 191.38587 204.031502 
L 192.228261 204.031502 
L 193.070652 206.402762 
L 193.913043 208.096519 
L 194.755435 210.129028 
L 195.597826 213.177791 
L 196.440217 213.177791 
L 197.282609 212.839039 
L 198.125 213.516542 
L 198.967391 212.500288 
L 199.809783 210.129028 
L 200.652174 209.790276 
L 201.494565 211.822785 
L 202.336957 214.871548 
L 203.179348 218.936565 
L 204.021739 218.936565 
L 204.86413 219.952819 
L 205.706522 220.291571 
L 206.548913 218.936565 
L 207.391304 218.936565 
L 208.233696 219.952819 
L 209.076087 220.291571 
L 209.918478 220.969074 
L 211.603261 221.646577 
L 213.288043 220.969074 
L 214.130435 222.324079 
L 214.972826 224.017837 
L 215.815217 225.034091 
L 216.657609 225.034091 
L 217.5 224.356588 
L 218.342391 223.340334 
L 219.184783 223.340334 
L 220.027174 224.017837 
L 220.869565 223.340334 
L 221.711957 225.372842 
L 222.554348 225.372842 
L 225.081522 215.549051 
L 225.923913 214.194045 
L 226.766304 214.871548 
L 227.608696 214.532796 
L 228.451087 215.549051 
L 229.293478 219.275316 
L 230.978261 222.662831 
L 231.820652 224.695339 
L 232.663043 227.744102 
L 233.505435 229.43786 
L 234.347826 229.099108 
L 235.190217 227.405351 
L 236.032609 225.372842 
L 236.875 223.679085 
L 237.717391 222.324079 
L 238.559783 220.291571 
L 239.402174 218.936565 
L 240.244565 217.920311 
L 241.086957 215.887802 
L 241.929348 215.210299 
L 242.771739 214.194045 
L 243.61413 214.194045 
L 244.456522 213.855293 
L 245.298913 212.500288 
L 246.141304 212.500288 
L 246.983696 211.822785 
L 247.826087 210.467779 
L 248.668478 210.80653 
L 249.51087 211.484033 
L 250.353261 213.516542 
L 251.195652 214.871548 
L 252.038043 214.532796 
L 252.880435 213.855293 
L 253.722826 212.500288 
L 254.565217 212.161536 
L 255.407609 213.516542 
L 256.25 215.210299 
L 257.092391 217.242808 
L 257.934783 218.259062 
L 258.777174 218.936565 
L 259.619565 220.969074 
L 260.461957 223.340334 
L 261.304348 223.340334 
L 262.146739 223.679085 
L 262.98913 225.034091 
L 263.831522 224.356588 
L 264.673913 223.001582 
L 265.516304 221.307825 
L 266.358696 218.597814 
L 267.201087 218.259062 
L 268.043478 217.581559 
L 268.88587 215.549051 
L 270.570652 212.161536 
L 271.413043 209.451525 
L 272.255435 210.467779 
L 273.097826 210.80653 
L 273.940217 210.80653 
L 274.782609 211.822785 
L 275.625 213.177791 
L 276.467391 212.500288 
L 277.309783 211.484033 
L 278.152174 211.484033 
L 278.994565 211.822785 
L 279.836957 213.516542 
L 280.679348 213.177791 
L 281.521739 211.145282 
L 282.36413 208.43527 
L 283.206522 205.047756 
L 284.048913 200.982739 
L 284.891304 197.933976 
L 285.733696 194.20771 
L 286.576087 191.497699 
L 287.418478 191.497699 
L 288.26087 189.803941 
L 289.103261 187.09393 
L 290.788043 187.09393 
L 291.630435 187.432681 
L 292.472826 184.383918 
L 293.315217 182.35141 
L 294.157609 183.028913 
L 295 184.72267 
L 295.842391 182.690161 
L 296.684783 182.690161 
L 299.211957 168.801352 
L 300.054348 169.478855 
L 300.896739 169.478855 
L 301.73913 168.123849 
L 302.581522 169.478855 
L 303.423913 167.107595 
L 304.266304 160.671318 
L 305.951087 140.684983 
L 306.793478 135.26496 
L 308.478261 144.75 
L 309.320652 145.766254 
L 310.163043 143.394994 
L 311.005435 141.362486 
L 311.847826 139.668728 
L 312.690217 139.329977 
L 313.532609 137.63622 
L 314.375 138.652474 
L 316.059783 156.267549 
L 316.902174 157.961306 
L 317.744565 158.638809 
L 318.586957 161.34882 
L 319.429348 165.752589 
L 320.271739 167.785098 
L 321.11413 173.882624 
L 321.956522 176.253884 
L 322.798913 180.657652 
L 323.641304 186.077675 
L 324.483696 192.852704 
L 325.326087 195.223964 
L 326.168478 203.015247 
L 327.01087 207.080265 
L 327.853261 212.500288 
L 328.695652 215.210299 
L 330.380435 217.242808 
L 331.222826 220.969074 
L 332.065217 221.985328 
L 332.907609 222.324079 
L 333.75 224.017837 
L 334.592391 226.050345 
L 335.434783 226.050345 
L 336.277174 227.0666 
L 337.119565 227.0666 
L 337.961957 230.115362 
L 339.646739 231.470368 
L 340.48913 231.470368 
L 341.331522 232.147871 
L 342.173913 232.486623 
L 343.016304 233.841628 
L 343.858696 234.519131 
L 344.701087 236.55164 
L 345.543478 237.229143 
L 346.38587 236.55164 
L 347.228261 236.55164 
L 348.070652 236.890391 
L 348.913043 236.55164 
L 350.597826 237.229143 
L 351.440217 237.906646 
L 352.282609 238.245397 
L 353.125 237.229143 
L 353.967391 236.55164 
L 354.809783 236.890391 
L 355.652174 236.890391 
L 356.494565 237.906646 
L 358.179348 239.261651 
L 359.021739 240.616657 
L 359.86413 241.632911 
L 360.706522 241.632911 
L 361.548913 241.971663 
L 362.391304 241.632911 
L 364.076087 240.277906 
L 364.918478 237.906646 
L 365.76087 236.212888 
L 366.603261 235.535386 
L 367.445652 236.212888 
L 369.130435 235.535386 
L 369.972826 234.857883 
L 370.815217 234.519131 
L 371.657609 232.147871 
L 372.5 231.470368 
L 373.342391 229.099108 
L 374.184783 227.0666 
L 375.027174 225.372842 
L 377.554348 224.356588 
L 378.396739 223.679085 
L 379.23913 222.662831 
L 380.923913 215.887802 
L 381.766304 210.129028 
L 382.608696 203.015247 
L 384.293478 192.175201 
L 385.13587 187.432681 
L 385.978261 184.045167 
L 386.820652 178.625144 
L 387.663043 174.221375 
L 388.505435 172.866369 
L 389.347826 171.850115 
L 390.190217 173.205121 
L 391.032609 176.931387 
L 391.875 177.270138 
L 392.717391 179.641398 
L 393.559783 179.302647 
L 394.402174 179.641398 
L 395.244565 179.641398 
L 396.086957 178.625144 
L 396.929348 179.641398 
L 397.771739 182.012658 
L 398.61413 182.012658 
L 399.456522 181.673907 
L 400.298913 177.60889 
L 401.141304 175.915132 
L 401.983696 174.898878 
L 402.826087 173.543872 
L 403.668478 171.511364 
L 404.51087 169.140104 
L 405.353261 166.091341 
L 406.195652 166.091341 
L 407.038043 165.075086 
L 407.880435 163.381329 
L 408.722826 162.365075 
L 409.565217 160.332566 
L 410.407609 159.655063 
L 411.25 162.026323 
L 412.092391 162.365075 
L 412.934783 164.736335 
L 413.777174 171.172612 
L 414.619565 174.560127 
L 415.461957 176.253884 
L 416.304348 174.221375 
L 417.98913 162.026323 
L 419.673913 147.12126 
L 420.516304 143.394994 
L 422.201087 132.554948 
L 423.043478 129.167434 
L 423.88587 127.812428 
L 424.728261 120.698648 
L 425.570652 123.747411 
L 426.413043 124.086162 
L 427.255435 125.779919 
L 428.097826 117.649885 
L 428.940217 111.89111 
L 429.782609 105.116082 
L 430.625 105.116082 
L 431.467391 102.744822 
L 432.309783 102.744822 
L 433.994565 121.376151 
L 434.836957 125.779919 
L 435.679348 131.877445 
L 437.36413 141.701237 
L 438.206522 149.49252 
L 439.048913 148.137514 
L 439.891304 152.202532 
L 440.733696 144.411249 
L 441.576087 139.668728 
L 442.418478 129.167434 
L 443.26087 123.408659 
L 444.103261 120.698648 
L 444.945652 124.086162 
L 445.788043 125.779919 
L 447.472826 141.362486 
L 448.315217 150.170023 
L 449.157609 154.912543 
L 450 162.703826 
L 450 162.703826 
" style="fill:none;stroke:#b3220f;stroke-linecap:square;stroke-width:1.5;"/>
   </g>
   <g id="patch_3">
    <path d="M 62.5 262.5 
L 62.5 27 
" style="fill:none;stroke:#555555;stroke-linecap:square;stroke-linejoin:miter;"/>
   </g>
   <g id="patch_4">
    <path d="M 62.5 262.5 
L 450 262.5 
" style="fill:none;stroke:#555555;stroke-linecap:square;stroke-linejoin:miter;"/>
   </g>
   <g id="text_14">
    <!-- Fontibn | Casos nuevos: 2021-06-25 -->
    <g style="fill:#555555;" transform="translate(138.246406 17)scale(0.14 -0.14)">
     <defs>
      <path d="M 7.796875 71.40625 
L 7.796875 0 
L 17.296875 0 
L 17.296875 32.703125 
L 50.09375 32.703125 
L 50.09375 40.703125 
L 17.296875 40.703125 
L 17.296875 63.40625 
L 54.703125 63.40625 
L 54.703125 71.40625 
z
" id="HelveticaNeue-70"/>
      <path d="M 12.59375 25.796875 
Q 12.59375 30.5 13.84375 34.140625 
Q 15.09375 37.796875 17.296875 40.296875 
Q 19.5 42.796875 22.453125 44.09375 
Q 25.40625 45.40625 28.703125 45.40625 
Q 32 45.40625 34.953125 44.09375 
Q 37.90625 42.796875 40.09375 40.296875 
Q 42.296875 37.796875 43.546875 34.140625 
Q 44.796875 30.5 44.796875 25.796875 
Q 44.796875 21.09375 43.546875 17.4375 
Q 42.296875 13.796875 40.09375 11.34375 
Q 37.90625 8.90625 34.953125 7.59375 
Q 32 6.296875 28.703125 6.296875 
Q 25.40625 6.296875 22.453125 7.59375 
Q 19.5 8.90625 17.296875 11.34375 
Q 15.09375 13.796875 13.84375 17.4375 
Q 12.59375 21.09375 12.59375 25.796875 
z
M 3.59375 25.796875 
Q 3.59375 20.09375 5.1875 15.1875 
Q 6.796875 10.296875 10 6.640625 
Q 13.203125 3 17.890625 0.953125 
Q 22.59375 -1.09375 28.703125 -1.09375 
Q 34.90625 -1.09375 39.546875 0.953125 
Q 44.203125 3 47.390625 6.640625 
Q 50.59375 10.296875 52.1875 15.1875 
Q 53.796875 20.09375 53.796875 25.796875 
Q 53.796875 31.5 52.1875 36.453125 
Q 50.59375 41.40625 47.390625 45.046875 
Q 44.203125 48.703125 39.546875 50.796875 
Q 34.90625 52.90625 28.703125 52.90625 
Q 22.59375 52.90625 17.890625 50.796875 
Q 13.203125 48.703125 10 45.046875 
Q 6.796875 41.40625 5.1875 36.453125 
Q 3.59375 31.5 3.59375 25.796875 
z
" id="HelveticaNeue-111"/>
      <path d="M 15.40625 61 
L 15.40625 71.40625 
L 6.90625 71.40625 
L 6.90625 61 
z
M 6.90625 51.703125 
L 6.90625 0 
L 15.40625 0 
L 15.40625 51.703125 
z
" id="HelveticaNeue-105"/>
      <path d="M 6.703125 71.40625 
L 6.703125 0 
L 15.203125 0 
L 15.203125 6.90625 
L 15.40625 6.90625 
Q 16.796875 4.59375 18.84375 3.046875 
Q 20.90625 1.5 23.203125 0.59375 
Q 25.5 -0.296875 27.84375 -0.6875 
Q 30.203125 -1.09375 32.09375 -1.09375 
Q 38 -1.09375 42.453125 1 
Q 46.90625 3.09375 49.84375 6.75 
Q 52.796875 10.40625 54.25 15.296875 
Q 55.703125 20.203125 55.703125 25.703125 
Q 55.703125 31.203125 54.203125 36.09375 
Q 52.703125 41 49.75 44.75 
Q 46.796875 48.5 42.34375 50.703125 
Q 37.90625 52.90625 31.90625 52.90625 
Q 26.5 52.90625 22 50.953125 
Q 17.5 49 15.40625 44.703125 
L 15.203125 44.703125 
L 15.203125 71.40625 
z
M 46.703125 26.296875 
Q 46.703125 22.5 45.890625 18.890625 
Q 45.09375 15.296875 43.296875 12.5 
Q 41.5 9.703125 38.546875 8 
Q 35.59375 6.296875 31.203125 6.296875 
Q 26.796875 6.296875 23.6875 7.9375 
Q 20.59375 9.59375 18.640625 12.296875 
Q 16.703125 15 15.796875 18.546875 
Q 14.90625 22.09375 14.90625 25.90625 
Q 14.90625 29.5 15.75 33 
Q 16.59375 36.5 18.5 39.25 
Q 20.40625 42 23.40625 43.703125 
Q 26.40625 45.40625 30.703125 45.40625 
Q 34.796875 45.40625 37.84375 43.796875 
Q 40.90625 42.203125 42.84375 39.5 
Q 44.796875 36.796875 45.75 33.34375 
Q 46.703125 29.90625 46.703125 26.296875 
z
" id="HelveticaNeue-98"/>
      <path d="M 12.59375 25.796875 
Q 12.59375 30.5 13.84375 34.140625 
Q 15.09375 37.796875 17.296875 40.296875 
Q 19.5 42.796875 22.453125 44.09375 
Q 25.40625 45.40625 28.703125 45.40625 
Q 32 45.40625 34.953125 44.09375 
Q 37.90625 42.796875 40.09375 40.296875 
Q 42.296875 37.796875 43.546875 34.140625 
Q 44.796875 30.5 44.796875 25.796875 
Q 44.796875 21.09375 43.546875 17.4375 
Q 42.296875 13.796875 40.09375 11.34375 
Q 37.90625 8.90625 34.953125 7.59375 
Q 32 6.296875 28.703125 6.296875 
Q 25.40625 6.296875 22.453125 7.59375 
Q 19.5 8.90625 17.296875 11.34375 
Q 15.09375 13.796875 13.84375 17.4375 
Q 12.59375 21.09375 12.59375 25.796875 
z
M 3.59375 25.796875 
Q 3.59375 20.09375 5.1875 15.1875 
Q 6.796875 10.296875 10 6.640625 
Q 13.203125 3 17.890625 0.953125 
Q 22.59375 -1.09375 28.703125 -1.09375 
Q 34.90625 -1.09375 39.546875 0.953125 
Q 44.203125 3 47.390625 6.640625 
Q 50.59375 10.296875 52.1875 15.1875 
Q 53.796875 20.09375 53.796875 25.796875 
Q 53.796875 31.5 52.1875 36.453125 
Q 50.59375 41.40625 47.390625 45.046875 
Q 44.203125 48.703125 39.546875 50.796875 
Q 34.90625 52.90625 28.703125 52.90625 
Q 22.59375 52.90625 17.890625 50.796875 
Q 13.203125 48.703125 10 45.046875 
Q 6.796875 41.40625 5.1875 36.453125 
Q 3.59375 31.5 3.59375 25.796875 
z
M 42.5 77 
L 28.40625 60.796875 
L 22 60.796875 
L 31.59375 77 
z
" id="HelveticaNeue-243"/>
      <path id="HelveticaNeue-32"/>
      <path d="M 7.703125 78.59375 
L 7.703125 -21.296875 
L 14.5 -21.296875 
L 14.5 78.59375 
z
" id="HelveticaNeue-124"/>
      <path d="M 58 49.90625 
L 67.5 49.90625 
Q 66.703125 55.59375 64.09375 59.9375 
Q 61.5 64.296875 57.59375 67.1875 
Q 53.703125 70.09375 48.703125 71.59375 
Q 43.703125 73.09375 38.09375 73.09375 
Q 29.90625 73.09375 23.546875 70.140625 
Q 17.203125 67.203125 12.953125 62.09375 
Q 8.703125 57 6.5 50.140625 
Q 4.296875 43.296875 4.296875 35.5 
Q 4.296875 27.703125 6.34375 20.890625 
Q 8.40625 14.09375 12.5 9.09375 
Q 16.59375 4.09375 22.796875 1.25 
Q 29 -1.59375 37.296875 -1.59375 
Q 51 -1.59375 58.890625 5.90625 
Q 66.796875 13.40625 68.203125 26.90625 
L 58.703125 26.90625 
Q 58.40625 22.5 56.90625 18.703125 
Q 55.40625 14.90625 52.75 12.15625 
Q 50.09375 9.40625 46.4375 7.84375 
Q 42.796875 6.296875 38.09375 6.296875 
Q 31.703125 6.296875 27.09375 8.6875 
Q 22.5 11.09375 19.546875 15.140625 
Q 16.59375 19.203125 15.1875 24.640625 
Q 13.796875 30.09375 13.796875 36.203125 
Q 13.796875 41.796875 15.1875 47 
Q 16.59375 52.203125 19.546875 56.25 
Q 22.5 60.296875 27.046875 62.6875 
Q 31.59375 65.09375 38 65.09375 
Q 45.5 65.09375 50.953125 61.296875 
Q 56.40625 57.5 58 49.90625 
z
" id="HelveticaNeue-67"/>
      <path d="M 11.59375 16.296875 
L 3.09375 16.296875 
Q 3.296875 11.5 5.09375 8.140625 
Q 6.90625 4.796875 9.90625 2.75 
Q 12.90625 0.703125 16.796875 -0.1875 
Q 20.703125 -1.09375 25 -1.09375 
Q 28.90625 -1.09375 32.84375 -0.34375 
Q 36.796875 0.40625 39.9375 2.296875 
Q 43.09375 4.203125 45.046875 7.296875 
Q 47 10.40625 47 15.09375 
Q 47 18.796875 45.546875 21.296875 
Q 44.09375 23.796875 41.75 25.4375 
Q 39.40625 27.09375 36.34375 28.09375 
Q 33.296875 29.09375 30.09375 29.796875 
Q 27.09375 30.5 24.09375 31.140625 
Q 21.09375 31.796875 18.6875 32.75 
Q 16.296875 33.703125 14.75 35.140625 
Q 13.203125 36.59375 13.203125 38.796875 
Q 13.203125 40.796875 14.203125 42.046875 
Q 15.203125 43.296875 16.796875 44.046875 
Q 18.40625 44.796875 20.34375 45.09375 
Q 22.296875 45.40625 24.203125 45.40625 
Q 26.296875 45.40625 28.34375 44.953125 
Q 30.40625 44.5 32.09375 43.5 
Q 33.796875 42.5 34.890625 40.84375 
Q 36 39.203125 36.203125 36.703125 
L 44.703125 36.703125 
Q 44.40625 41.40625 42.703125 44.546875 
Q 41 47.703125 38.140625 49.546875 
Q 35.296875 51.40625 31.59375 52.15625 
Q 27.90625 52.90625 23.5 52.90625 
Q 20.09375 52.90625 16.640625 52.046875 
Q 13.203125 51.203125 10.453125 49.453125 
Q 7.703125 47.703125 5.953125 44.890625 
Q 4.203125 42.09375 4.203125 38.203125 
Q 4.203125 33.203125 6.703125 30.390625 
Q 9.203125 27.59375 12.953125 26.046875 
Q 16.703125 24.5 21.09375 23.640625 
Q 25.5 22.796875 29.25 21.75 
Q 33 20.703125 35.5 19 
Q 38 17.296875 38 14 
Q 38 11.59375 36.796875 10.046875 
Q 35.59375 8.5 33.75 7.703125 
Q 31.90625 6.90625 29.703125 6.59375 
Q 27.5 6.296875 25.5 6.296875 
Q 22.90625 6.296875 20.453125 6.796875 
Q 18 7.296875 16.046875 8.4375 
Q 14.09375 9.59375 12.890625 11.546875 
Q 11.703125 13.5 11.59375 16.296875 
z
" id="HelveticaNeue-115"/>
      <path d="M 29.703125 0 
L 48.59375 51.703125 
L 39.703125 51.703125 
L 25.59375 8.59375 
L 25.40625 8.59375 
L 10.90625 51.703125 
L 1.40625 51.703125 
L 20.59375 0 
z
" id="HelveticaNeue-118"/>
      <path d="M 19.40625 40.59375 
L 19.40625 51.703125 
L 8.296875 51.703125 
L 8.296875 40.59375 
z
M 8.296875 11.09375 
L 8.296875 0 
L 19.40625 0 
L 19.40625 11.09375 
z
" id="HelveticaNeue-58"/>
      <path d="M 5 31.796875 
L 5 23.796875 
L 33.90625 23.796875 
L 33.90625 31.796875 
z
" id="HelveticaNeue-45"/>
     </defs>
     <use xlink:href="#HelveticaNeue-70"/>
     <use x="57.399994" xlink:href="#HelveticaNeue-111"/>
     <use x="114.799988" xlink:href="#HelveticaNeue-110"/>
     <use x="170.399979" xlink:href="#HelveticaNeue-116"/>
     <use x="201.899963" xlink:href="#HelveticaNeue-105"/>
     <use x="224.09996" xlink:href="#HelveticaNeue-98"/>
     <use x="283.399948" xlink:href="#HelveticaNeue-243"/>
     <use x="340.799942" xlink:href="#HelveticaNeue-110"/>
     <use x="396.399933" xlink:href="#HelveticaNeue-32"/>
     <use x="424.199921" xlink:href="#HelveticaNeue-124"/>
     <use x="446.399918" xlink:href="#HelveticaNeue-32"/>
     <use x="474.199905" xlink:href="#HelveticaNeue-67"/>
     <use x="546.399887" xlink:href="#HelveticaNeue-97"/>
     <use x="600.099884" xlink:href="#HelveticaNeue-115"/>
     <use x="650.099869" xlink:href="#HelveticaNeue-111"/>
     <use x="707.499863" xlink:href="#HelveticaNeue-115"/>
     <use x="757.499847" xlink:href="#HelveticaNeue-32"/>
     <use x="785.299835" xlink:href="#HelveticaNeue-110"/>
     <use x="840.899826" xlink:href="#HelveticaNeue-117"/>
     <use x="896.499817" xlink:href="#HelveticaNeue-101"/>
     <use x="950.199814" xlink:href="#HelveticaNeue-118"/>
     <use x="1000.199799" xlink:href="#HelveticaNeue-111"/>
     <use x="1057.599792" xlink:href="#HelveticaNeue-115"/>
     <use x="1107.599777" xlink:href="#HelveticaNeue-58"/>
     <use x="1135.399765" xlink:href="#HelveticaNeue-32"/>
     <use x="1163.199753" xlink:href="#HelveticaNeue-50"/>
     <use x="1218.799744" xlink:href="#HelveticaNeue-48"/>
     <use x="1274.399734" xlink:href="#HelveticaNeue-50"/>
     <use x="1329.999725" xlink:href="#HelveticaNeue-49"/>
     <use x="1385.599716" xlink:href="#HelveticaNeue-45"/>
     <use x="1424.49971" xlink:href="#HelveticaNeue-48"/>
     <use x="1480.099701" xlink:href="#HelveticaNeue-54"/>
     <use x="1535.699692" xlink:href="#HelveticaNeue-45"/>
     <use x="1574.599686" xlink:href="#HelveticaNeue-50"/>
     <use x="1630.199677" xlink:href="#HelveticaNeue-53"/>
    </g>
   </g>
   <g id="legend_1">
    <g id="line2d_27">
     <path d="M 71.5 39.640625 
L 91.5 39.640625 
" style="fill:none;stroke:#000000;stroke-dasharray:1.5,2.475;stroke-dashoffset:0;stroke-opacity:0.5;stroke-width:1.5;"/>
    </g>
    <g id="line2d_28"/>
    <g id="text_15">
     <!-- Actual -->
     <g style="fill:#555555;" transform="translate(99.5 43.140625)scale(0.1 -0.1)">
      <use xlink:href="#HelveticaNeue-65"/>
      <use x="64.799988" xlink:href="#HelveticaNeue-99"/>
      <use x="118.499985" xlink:href="#HelveticaNeue-116"/>
      <use x="149.999969" xlink:href="#HelveticaNeue-117"/>
      <use x="205.59996" xlink:href="#HelveticaNeue-97"/>
      <use x="259.299957" xlink:href="#HelveticaNeue-108"/>
     </g>
    </g>
    <g id="line2d_29">
     <path d="M 71.5 54.310937 
L 91.5 54.310937 
" style="fill:none;stroke:#b3220f;stroke-linecap:square;stroke-width:1.5;"/>
    </g>
    <g id="line2d_30"/>
    <g id="text_16">
     <!-- Promedio semanal (7 das)  -->
     <g style="fill:#555555;" transform="translate(99.5 57.810937)scale(0.1 -0.1)">
      <defs>
       <path d="M 17.296875 37.203125 
L 17.296875 63.40625 
L 35.90625 63.40625 
Q 44 63.40625 47.75 60.046875 
Q 51.5 56.703125 51.5 50.296875 
Q 51.5 43.90625 47.75 40.5 
Q 44 37.09375 35.90625 37.203125 
z
M 7.796875 71.40625 
L 7.796875 0 
L 17.296875 0 
L 17.296875 29.203125 
L 39.09375 29.203125 
Q 49.90625 29.09375 55.453125 34.6875 
Q 61 40.296875 61 50.296875 
Q 61 60.296875 55.453125 65.84375 
Q 49.90625 71.40625 39.09375 71.40625 
z
" id="HelveticaNeue-80"/>
       <path d="M 6.40625 51.703125 
L 6.40625 0 
L 14.90625 0 
L 14.90625 32.203125 
Q 14.90625 33.703125 15.65625 35.953125 
Q 16.40625 38.203125 18.046875 40.296875 
Q 19.703125 42.40625 22.34375 43.90625 
Q 25 45.40625 28.703125 45.40625 
Q 31.59375 45.40625 33.4375 44.546875 
Q 35.296875 43.703125 36.390625 42.140625 
Q 37.5 40.59375 37.953125 38.5 
Q 38.40625 36.40625 38.40625 33.90625 
L 38.40625 0 
L 46.90625 0 
L 46.90625 32.203125 
Q 46.90625 38.203125 50.5 41.796875 
Q 54.09375 45.40625 60.40625 45.40625 
Q 63.5 45.40625 65.453125 44.5 
Q 67.40625 43.59375 68.5 42.046875 
Q 69.59375 40.5 70 38.390625 
Q 70.40625 36.296875 70.40625 33.90625 
L 70.40625 0 
L 78.90625 0 
L 78.90625 37.90625 
Q 78.90625 41.90625 77.65625 44.75 
Q 76.40625 47.59375 74.15625 49.390625 
Q 71.90625 51.203125 68.75 52.046875 
Q 65.59375 52.90625 61.703125 52.90625 
Q 56.59375 52.90625 52.34375 50.59375 
Q 48.09375 48.296875 45.5 44.09375 
Q 43.90625 48.90625 40 50.90625 
Q 36.09375 52.90625 31.296875 52.90625 
Q 20.40625 52.90625 14.59375 44.09375 
L 14.40625 44.09375 
L 14.40625 51.703125 
z
" id="HelveticaNeue-109"/>
       <path d="M 12.59375 25.40625 
Q 12.59375 29.203125 13.390625 32.796875 
Q 14.203125 36.40625 16 39.203125 
Q 17.796875 42 20.796875 43.703125 
Q 23.796875 45.40625 28.09375 45.40625 
Q 32.5 45.40625 35.59375 43.75 
Q 38.703125 42.09375 40.640625 39.390625 
Q 42.59375 36.703125 43.5 33.140625 
Q 44.40625 29.59375 44.40625 25.796875 
Q 44.40625 22.203125 43.546875 18.703125 
Q 42.703125 15.203125 40.796875 12.453125 
Q 38.90625 9.703125 35.90625 8 
Q 32.90625 6.296875 28.59375 6.296875 
Q 24.5 6.296875 21.453125 7.890625 
Q 18.40625 9.5 16.453125 12.203125 
Q 14.5 14.90625 13.546875 18.34375 
Q 12.59375 21.796875 12.59375 25.40625 
z
M 52.59375 0 
L 52.59375 71.40625 
L 44.09375 71.40625 
L 44.09375 44.796875 
L 43.90625 44.796875 
Q 42.5 47.09375 40.453125 48.640625 
Q 38.40625 50.203125 36.09375 51.140625 
Q 33.796875 52.09375 31.5 52.5 
Q 29.203125 52.90625 27.203125 52.90625 
Q 21.296875 52.90625 16.84375 50.75 
Q 12.40625 48.59375 9.453125 44.9375 
Q 6.5 41.296875 5.046875 36.390625 
Q 3.59375 31.5 3.59375 26 
Q 3.59375 20.5 5.09375 15.59375 
Q 6.59375 10.703125 9.546875 7 
Q 12.5 3.296875 16.953125 1.09375 
Q 21.40625 -1.09375 27.40625 -1.09375 
Q 32.796875 -1.09375 37.296875 0.796875 
Q 41.796875 2.703125 43.90625 7 
L 44.09375 7 
L 44.09375 0 
z
" id="HelveticaNeue-100"/>
       <path d="M 20.40625 -19.703125 
L 26.90625 -19.703125 
Q 19.796875 -8.203125 16.75 3.09375 
Q 13.703125 14.40625 13.703125 27 
Q 13.703125 39.296875 16.703125 50.5 
Q 19.703125 61.703125 26.90625 73.09375 
L 20.40625 73.09375 
Q 12.59375 62.796875 8.640625 50.796875 
Q 4.703125 38.796875 4.703125 27 
Q 4.703125 20.40625 5.796875 14.40625 
Q 6.90625 8.40625 8.953125 2.703125 
Q 11 -3 13.890625 -8.546875 
Q 16.796875 -14.09375 20.40625 -19.703125 
z
" id="HelveticaNeue-40"/>
       <path d="M 50.90625 62.40625 
L 50.90625 69.703125 
L 5 69.703125 
L 5 61.703125 
L 42.203125 61.703125 
Q 36.59375 55.796875 31.75 48.796875 
Q 26.90625 41.796875 23.203125 33.9375 
Q 19.5 26.09375 17.140625 17.546875 
Q 14.796875 9 14.203125 0 
L 23.703125 0 
Q 24.203125 8.296875 26.5 17.09375 
Q 28.796875 25.90625 32.4375 34.203125 
Q 36.09375 42.5 40.796875 49.796875 
Q 45.5 57.09375 50.90625 62.40625 
z
" id="HelveticaNeue-55"/>
       <path d="M 6.90625 0 
L 15.40625 0 
L 15.40625 51.703125 
L 6.90625 51.703125 
z
M 25.5 77 
L 11.40625 60.796875 
L 5 60.796875 
L 14.59375 77 
z
" id="HelveticaNeue-237"/>
       <path d="M -0.90625 -19.703125 
L 5.5 -19.703125 
Q 13.296875 -9.40625 17.25 2.546875 
Q 21.203125 14.5 21.203125 26.296875 
Q 21.203125 32.90625 20.09375 38.90625 
Q 19 44.90625 16.953125 50.65625 
Q 14.90625 56.40625 12 61.953125 
Q 9.09375 67.5 5.5 73.09375 
L -0.90625 73.09375 
Q 6.09375 61.59375 9.140625 50.25 
Q 12.203125 38.90625 12.203125 26.296875 
Q 12.203125 14.09375 9.203125 2.84375 
Q 6.203125 -8.40625 -0.90625 -19.703125 
z
" id="HelveticaNeue-41"/>
      </defs>
      <use xlink:href="#HelveticaNeue-80"/>
      <use x="64.799988" xlink:href="#HelveticaNeue-114"/>
      <use x="96.349976" xlink:href="#HelveticaNeue-111"/>
      <use x="153.749969" xlink:href="#HelveticaNeue-109"/>
      <use x="239.049957" xlink:href="#HelveticaNeue-101"/>
      <use x="292.749954" xlink:href="#HelveticaNeue-100"/>
      <use x="352.049942" xlink:href="#HelveticaNeue-105"/>
      <use x="374.249939" xlink:href="#HelveticaNeue-111"/>
      <use x="431.649933" xlink:href="#HelveticaNeue-32"/>
      <use x="459.449921" xlink:href="#HelveticaNeue-115"/>
      <use x="509.449905" xlink:href="#HelveticaNeue-101"/>
      <use x="563.149902" xlink:href="#HelveticaNeue-109"/>
      <use x="648.44989" xlink:href="#HelveticaNeue-97"/>
      <use x="702.149887" xlink:href="#HelveticaNeue-110"/>
      <use x="757.749878" xlink:href="#HelveticaNeue-97"/>
      <use x="811.449875" xlink:href="#HelveticaNeue-108"/>
      <use x="833.649872" xlink:href="#HelveticaNeue-32"/>
      <use x="861.44986" xlink:href="#HelveticaNeue-40"/>
      <use x="887.349854" xlink:href="#HelveticaNeue-55"/>
      <use x="942.949844" xlink:href="#HelveticaNeue-32"/>
      <use x="970.749832" xlink:href="#HelveticaNeue-100"/>
      <use x="1030.04982" xlink:href="#HelveticaNeue-237"/>
      <use x="1052.249817" xlink:href="#HelveticaNeue-97"/>
      <use x="1105.949814" xlink:href="#HelveticaNeue-115"/>
      <use x="1155.949799" xlink:href="#HelveticaNeue-41"/>
      <use x="1181.849792" xlink:href="#HelveticaNeue-32"/>
     </g>
    </g>
   </g>
  </g>
 </g>
 <defs>
  <clipPath id="p0b22f41d15">
   <rect height="235.5" width="387.5" x="62.5" y="27"/>
  </clipPath>
 </defs>
</svg>
