<?xml version="1.0" encoding="utf-8" standalone="no"?>
<!DOCTYPE svg PUBLIC "-//W3C//DTD SVG 1.1//EN"
  "http://www.w3.org/Graphics/SVG/1.1/DTD/svg11.dtd">
<!-- Created with matplotlib (https://matplotlib.org/) -->
<svg height="300pt" version="1.1" viewBox="0 0 500 300" width="500pt" xmlns="http://www.w3.org/2000/svg" xmlns:xlink="http://www.w3.org/1999/xlink">
 <metadata>
  <rdf:RDF xmlns:cc="http://creativecommons.org/ns#" xmlns:dc="http://purl.org/dc/elements/1.1/" xmlns:rdf="http://www.w3.org/1999/02/22-rdf-syntax-ns#">
   <cc:Work>
    <dc:type rdf:resource="http://purl.org/dc/dcmitype/StillImage"/>
    <dc:date>2021-06-13T18:17:52.516912</dc:date>
    <dc:format>image/svg+xml</dc:format>
    <dc:creator>
     <cc:Agent>
      <dc:title>Matplotlib v3.3.4, https://matplotlib.org/</dc:title>
     </cc:Agent>
    </dc:creator>
   </cc:Work>
  </rdf:RDF>
 </metadata>
 <defs>
  <style type="text/css">*{stroke-linecap:butt;stroke-linejoin:round;}</style>
 </defs>
 <g id="figure_1">
  <g id="patch_1">
   <path d="M 0 300 
L 500 300 
L 500 0 
L 0 0 
z
" style="fill:#ffffff;"/>
  </g>
  <g id="axes_1">
   <g id="patch_2">
    <path d="M 62.5 262.5 
L 450 262.5 
L 450 27 
L 62.5 27 
z
" style="fill:#ffffff;"/>
   </g>
   <g id="matplotlib.axis_1">
    <g id="xtick_1">
     <g id="line2d_1">
      <defs>
       <path d="M 0 0 
L 0 3.5 
" id="m90e2aeb8e2" style="stroke:#555555;stroke-width:0.8;"/>
      </defs>
      <g>
       <use style="fill:#555555;stroke:#555555;stroke-width:0.8;" x="62.5" xlink:href="#m90e2aeb8e2" y="262.5"/>
      </g>
     </g>
    </g>
    <g id="xtick_2">
     <g id="line2d_2">
      <g>
       <use style="fill:#555555;stroke:#555555;stroke-width:0.8;" x="71.188341" xlink:href="#m90e2aeb8e2" y="262.5"/>
      </g>
     </g>
     <g id="text_1">
      <!-- Apr -->
      <g style="fill:#555555;" transform="translate(63.31881 276.640625)scale(0.1 -0.1)">
       <defs>
        <path d="M 20.09375 29.5 
L 32.203125 62.796875 
L 32.40625 62.796875 
L 44.296875 29.5 
z
M 27.203125 71.40625 
L -0.59375 0 
L 9.09375 0 
L 17.09375 21.5 
L 47.296875 21.5 
L 55.09375 0 
L 65.59375 0 
L 37.703125 71.40625 
z
" id="HelveticaNeue-65"/>
        <path d="M 6.703125 51.703125 
L 6.703125 -19.703125 
L 15.203125 -19.703125 
L 15.203125 6.90625 
L 15.40625 6.90625 
Q 16.796875 4.59375 18.84375 3.046875 
Q 20.90625 1.5 23.203125 0.59375 
Q 25.5 -0.296875 27.84375 -0.6875 
Q 30.203125 -1.09375 32.09375 -1.09375 
Q 38 -1.09375 42.453125 1 
Q 46.90625 3.09375 49.84375 6.75 
Q 52.796875 10.40625 54.25 15.296875 
Q 55.703125 20.203125 55.703125 25.703125 
Q 55.703125 31.203125 54.203125 36.09375 
Q 52.703125 41 49.75 44.75 
Q 46.796875 48.5 42.34375 50.703125 
Q 37.90625 52.90625 31.90625 52.90625 
Q 26.5 52.90625 22 50.953125 
Q 17.5 49 15.40625 44.703125 
L 15.203125 44.703125 
L 15.203125 51.703125 
z
M 46.703125 26.296875 
Q 46.703125 22.5 45.890625 18.890625 
Q 45.09375 15.296875 43.296875 12.5 
Q 41.5 9.703125 38.546875 8 
Q 35.59375 6.296875 31.203125 6.296875 
Q 26.796875 6.296875 23.6875 7.9375 
Q 20.59375 9.59375 18.640625 12.296875 
Q 16.703125 15 15.796875 18.546875 
Q 14.90625 22.09375 14.90625 25.90625 
Q 14.90625 29.5 15.75 33 
Q 16.59375 36.5 18.5 39.25 
Q 20.40625 42 23.40625 43.703125 
Q 26.40625 45.40625 30.703125 45.40625 
Q 34.796875 45.40625 37.84375 43.796875 
Q 40.90625 42.203125 42.84375 39.5 
Q 44.796875 36.796875 45.75 33.34375 
Q 46.703125 29.90625 46.703125 26.296875 
z
" id="HelveticaNeue-112"/>
        <path d="M 6.09375 51.703125 
L 6.09375 0 
L 14.59375 0 
L 14.59375 23 
Q 14.59375 28 15.59375 31.84375 
Q 16.59375 35.703125 18.796875 38.390625 
Q 21 41.09375 24.59375 42.5 
Q 28.203125 43.90625 33.296875 43.90625 
L 33.296875 52.90625 
Q 26.40625 53.09375 21.90625 50.09375 
Q 17.40625 47.09375 14.296875 40.796875 
L 14.09375 40.796875 
L 14.09375 51.703125 
z
" id="HelveticaNeue-114"/>
       </defs>
       <use xlink:href="#HelveticaNeue-65"/>
       <use x="64.799988" xlink:href="#HelveticaNeue-112"/>
       <use x="124.099976" xlink:href="#HelveticaNeue-114"/>
      </g>
     </g>
    </g>
    <g id="xtick_3">
     <g id="line2d_3">
      <g>
       <use style="fill:#555555;stroke:#555555;stroke-width:0.8;" x="150.252242" xlink:href="#m90e2aeb8e2" y="262.5"/>
      </g>
     </g>
     <g id="text_2">
      <!-- Jul -->
      <g style="fill:#555555;" transform="translate(143.767086 276.640625)scale(0.1 -0.1)">
       <defs>
        <path d="M 44.09375 17.796875 
L 44.09375 71.40625 
L 34.59375 71.40625 
L 34.59375 19.203125 
Q 34.59375 13.296875 32.140625 9.796875 
Q 29.703125 6.296875 23.203125 6.296875 
Q 19.703125 6.296875 17.453125 7.34375 
Q 15.203125 8.40625 13.953125 10.296875 
Q 12.703125 12.203125 12.203125 14.796875 
Q 11.703125 17.40625 11.703125 20.5 
L 11.703125 23.5 
L 2.203125 23.5 
L 2.203125 19.09375 
Q 2.203125 8.90625 7.59375 3.65625 
Q 13 -1.59375 23 -1.59375 
Q 29 -1.59375 33.046875 0.046875 
Q 37.09375 1.703125 39.546875 4.453125 
Q 42 7.203125 43.046875 10.703125 
Q 44.09375 14.203125 44.09375 17.796875 
z
" id="HelveticaNeue-74"/>
        <path d="M 49.203125 0 
L 49.203125 51.703125 
L 40.703125 51.703125 
L 40.703125 22.5 
Q 40.703125 19 39.75 16.046875 
Q 38.796875 13.09375 36.890625 10.890625 
Q 35 8.703125 32.140625 7.5 
Q 29.296875 6.296875 25.40625 6.296875 
Q 20.5 6.296875 17.703125 9.09375 
Q 14.90625 11.90625 14.90625 16.703125 
L 14.90625 51.703125 
L 6.40625 51.703125 
L 6.40625 17.703125 
Q 6.40625 13.5 7.25 10.046875 
Q 8.09375 6.59375 10.1875 4.09375 
Q 12.296875 1.59375 15.6875 0.25 
Q 19.09375 -1.09375 24.203125 -1.09375 
Q 29.90625 -1.09375 34.09375 1.15625 
Q 38.296875 3.40625 41 8.203125 
L 41.203125 8.203125 
L 41.203125 0 
z
" id="HelveticaNeue-117"/>
        <path d="M 6.90625 71.40625 
L 6.90625 0 
L 15.40625 0 
L 15.40625 71.40625 
z
" id="HelveticaNeue-108"/>
       </defs>
       <use xlink:href="#HelveticaNeue-74"/>
       <use x="51.899994" xlink:href="#HelveticaNeue-117"/>
       <use x="107.499985" xlink:href="#HelveticaNeue-108"/>
      </g>
     </g>
    </g>
    <g id="xtick_4">
     <g id="line2d_4">
      <g>
       <use style="fill:#555555;stroke:#555555;stroke-width:0.8;" x="230.184978" xlink:href="#m90e2aeb8e2" y="262.5"/>
      </g>
     </g>
     <g id="text_3">
      <!-- Oct -->
      <g style="fill:#555555;" transform="translate(222.124821 276.640625)scale(0.1 -0.1)">
       <defs>
        <path d="M 13.296875 35.703125 
Q 13.296875 41.09375 14.6875 46.34375 
Q 16.09375 51.59375 19.09375 55.796875 
Q 22.09375 60 26.796875 62.546875 
Q 31.5 65.09375 38 65.09375 
Q 44.5 65.09375 49.203125 62.546875 
Q 53.90625 60 56.90625 55.796875 
Q 59.90625 51.59375 61.296875 46.34375 
Q 62.703125 41.09375 62.703125 35.703125 
Q 62.703125 30.296875 61.296875 25.046875 
Q 59.90625 19.796875 56.90625 15.59375 
Q 53.90625 11.40625 49.203125 8.84375 
Q 44.5 6.296875 38 6.296875 
Q 31.5 6.296875 26.796875 8.84375 
Q 22.09375 11.40625 19.09375 15.59375 
Q 16.09375 19.796875 14.6875 25.046875 
Q 13.296875 30.296875 13.296875 35.703125 
z
M 3.796875 35.703125 
Q 3.796875 28.40625 5.9375 21.65625 
Q 8.09375 14.90625 12.390625 9.703125 
Q 16.703125 4.5 23.09375 1.453125 
Q 29.5 -1.59375 38 -1.59375 
Q 46.5 -1.59375 52.890625 1.453125 
Q 59.296875 4.5 63.59375 9.703125 
Q 67.90625 14.90625 70.046875 21.65625 
Q 72.203125 28.40625 72.203125 35.703125 
Q 72.203125 43 70.046875 49.75 
Q 67.90625 56.5 63.59375 61.703125 
Q 59.296875 66.90625 52.890625 70 
Q 46.5 73.09375 38 73.09375 
Q 29.5 73.09375 23.09375 70 
Q 16.703125 66.90625 12.390625 61.703125 
Q 8.09375 56.5 5.9375 49.75 
Q 3.796875 43 3.796875 35.703125 
z
" id="HelveticaNeue-79"/>
        <path d="M 41.5 35.09375 
L 50.296875 35.09375 
Q 49.796875 39.703125 47.890625 43.046875 
Q 46 46.40625 43.046875 48.59375 
Q 40.09375 50.796875 36.25 51.84375 
Q 32.40625 52.90625 28 52.90625 
Q 21.90625 52.90625 17.296875 50.75 
Q 12.703125 48.59375 9.640625 44.84375 
Q 6.59375 41.09375 5.09375 36.046875 
Q 3.59375 31 3.59375 25.203125 
Q 3.59375 19.40625 5.140625 14.546875 
Q 6.703125 9.703125 9.75 6.203125 
Q 12.796875 2.703125 17.34375 0.796875 
Q 21.90625 -1.09375 27.796875 -1.09375 
Q 37.703125 -1.09375 43.453125 4.09375 
Q 49.203125 9.296875 50.59375 18.90625 
L 41.90625 18.90625 
Q 41.09375 12.90625 37.546875 9.59375 
Q 34 6.296875 27.703125 6.296875 
Q 23.703125 6.296875 20.796875 7.890625 
Q 17.90625 9.5 16.09375 12.140625 
Q 14.296875 14.796875 13.4375 18.1875 
Q 12.59375 21.59375 12.59375 25.203125 
Q 12.59375 29.09375 13.390625 32.75 
Q 14.203125 36.40625 16.046875 39.203125 
Q 17.90625 42 21 43.703125 
Q 24.09375 45.40625 28.703125 45.40625 
Q 34.09375 45.40625 37.296875 42.703125 
Q 40.5 40 41.5 35.09375 
z
" id="HelveticaNeue-99"/>
        <path d="M 18.203125 51.703125 
L 18.203125 67.203125 
L 9.703125 67.203125 
L 9.703125 51.703125 
L 0.90625 51.703125 
L 0.90625 44.203125 
L 9.703125 44.203125 
L 9.703125 11.296875 
Q 9.703125 7.703125 10.390625 5.5 
Q 11.09375 3.296875 12.546875 2.09375 
Q 14 0.90625 16.34375 0.453125 
Q 18.703125 0 22 0 
L 28.5 0 
L 28.5 7.5 
L 24.59375 7.5 
Q 22.59375 7.5 21.34375 7.640625 
Q 20.09375 7.796875 19.390625 8.296875 
Q 18.703125 8.796875 18.453125 9.6875 
Q 18.203125 10.59375 18.203125 12.09375 
L 18.203125 44.203125 
L 28.5 44.203125 
L 28.5 51.703125 
z
" id="HelveticaNeue-116"/>
       </defs>
       <use xlink:href="#HelveticaNeue-79"/>
       <use x="75.999985" xlink:href="#HelveticaNeue-99"/>
       <use x="129.699982" xlink:href="#HelveticaNeue-116"/>
      </g>
     </g>
    </g>
    <g id="xtick_5">
     <g id="line2d_5">
      <g>
       <use style="fill:#555555;stroke:#555555;stroke-width:0.8;" x="310.117713" xlink:href="#m90e2aeb8e2" y="262.5"/>
      </g>
     </g>
     <g id="text_4">
      <!-- Jan -->
      <g style="fill:#555555;" transform="translate(302.057557 276.640625)scale(0.1 -0.1)">
       <defs>
        <path d="M 52.203125 0.203125 
Q 50 -1.09375 46.09375 -1.09375 
Q 42.796875 -1.09375 40.84375 0.75 
Q 38.90625 2.59375 38.90625 6.796875 
Q 35.40625 2.59375 30.75 0.75 
Q 26.09375 -1.09375 20.703125 -1.09375 
Q 17.203125 -1.09375 14.046875 -0.296875 
Q 10.90625 0.5 8.59375 2.203125 
Q 6.296875 3.90625 4.9375 6.65625 
Q 3.59375 9.40625 3.59375 13.296875 
Q 3.59375 17.703125 5.09375 20.5 
Q 6.59375 23.296875 9.046875 25.046875 
Q 11.5 26.796875 14.640625 27.6875 
Q 17.796875 28.59375 21.09375 29.203125 
Q 24.59375 29.90625 27.75 30.25 
Q 30.90625 30.59375 33.296875 31.25 
Q 35.703125 31.90625 37.09375 33.15625 
Q 38.5 34.40625 38.5 36.796875 
Q 38.5 39.59375 37.453125 41.296875 
Q 36.40625 43 34.75 43.890625 
Q 33.09375 44.796875 31.046875 45.09375 
Q 29 45.40625 27 45.40625 
Q 21.59375 45.40625 18 43.34375 
Q 14.40625 41.296875 14.09375 35.59375 
L 5.59375 35.59375 
Q 5.796875 40.40625 7.59375 43.703125 
Q 9.40625 47 12.40625 49.046875 
Q 15.40625 51.09375 19.25 52 
Q 23.09375 52.90625 27.5 52.90625 
Q 31 52.90625 34.453125 52.40625 
Q 37.90625 51.90625 40.703125 50.34375 
Q 43.5 48.796875 45.203125 46 
Q 46.90625 43.203125 46.90625 38.703125 
L 46.90625 12.09375 
Q 46.90625 9.09375 47.25 7.6875 
Q 47.59375 6.296875 49.59375 6.296875 
Q 50.703125 6.296875 52.203125 6.796875 
z
M 38.40625 26.703125 
Q 36.796875 25.5 34.1875 24.953125 
Q 31.59375 24.40625 28.75 24.046875 
Q 25.90625 23.703125 23 23.25 
Q 20.09375 22.796875 17.796875 21.796875 
Q 15.5 20.796875 14.046875 18.9375 
Q 12.59375 17.09375 12.59375 13.90625 
Q 12.59375 11.796875 13.4375 10.34375 
Q 14.296875 8.90625 15.640625 8 
Q 17 7.09375 18.796875 6.6875 
Q 20.59375 6.296875 22.59375 6.296875 
Q 26.796875 6.296875 29.796875 7.4375 
Q 32.796875 8.59375 34.6875 10.34375 
Q 36.59375 12.09375 37.5 14.140625 
Q 38.40625 16.203125 38.40625 18 
z
" id="HelveticaNeue-97"/>
        <path d="M 6.40625 51.703125 
L 6.40625 0 
L 14.90625 0 
L 14.90625 29.203125 
Q 14.90625 32.703125 15.84375 35.640625 
Q 16.796875 38.59375 18.6875 40.796875 
Q 20.59375 43 23.4375 44.203125 
Q 26.296875 45.40625 30.203125 45.40625 
Q 35.09375 45.40625 37.890625 42.59375 
Q 40.703125 39.796875 40.703125 35 
L 40.703125 0 
L 49.203125 0 
L 49.203125 34 
Q 49.203125 38.203125 48.34375 41.640625 
Q 47.5 45.09375 45.390625 47.59375 
Q 43.296875 50.09375 39.890625 51.5 
Q 36.5 52.90625 31.40625 52.90625 
Q 19.90625 52.90625 14.59375 43.5 
L 14.40625 43.5 
L 14.40625 51.703125 
z
" id="HelveticaNeue-110"/>
       </defs>
       <use xlink:href="#HelveticaNeue-74"/>
       <use x="51.899994" xlink:href="#HelveticaNeue-97"/>
       <use x="105.599991" xlink:href="#HelveticaNeue-110"/>
      </g>
      <!-- 2021 -->
      <g style="fill:#555555;" transform="translate(298.998963 287.179688)scale(0.1 -0.1)">
       <defs>
        <path d="M 4.40625 45.796875 
L 12.90625 45.796875 
Q 12.796875 49 13.546875 52.140625 
Q 14.296875 55.296875 16 57.796875 
Q 17.703125 60.296875 20.34375 61.84375 
Q 23 63.40625 26.703125 63.40625 
Q 29.5 63.40625 32 62.5 
Q 34.5 61.59375 36.34375 59.890625 
Q 38.203125 58.203125 39.296875 55.84375 
Q 40.40625 53.5 40.40625 50.59375 
Q 40.40625 46.90625 39.25 44.09375 
Q 38.09375 41.296875 35.84375 38.890625 
Q 33.59375 36.5 30.1875 34.140625 
Q 26.796875 31.796875 22.296875 29 
Q 18.59375 26.796875 15.1875 24.296875 
Q 11.796875 21.796875 9.09375 18.5 
Q 6.40625 15.203125 4.65625 10.75 
Q 2.90625 6.296875 2.40625 0 
L 48.703125 0 
L 48.703125 7.5 
L 12.296875 7.5 
Q 12.90625 10.796875 14.84375 13.34375 
Q 16.796875 15.90625 19.546875 18.09375 
Q 22.296875 20.296875 25.59375 22.25 
Q 28.90625 24.203125 32.203125 26.203125 
Q 35.5 28.296875 38.59375 30.59375 
Q 41.703125 32.90625 44.09375 35.75 
Q 46.5 38.59375 47.953125 42.1875 
Q 49.40625 45.796875 49.40625 50.5 
Q 49.40625 55.5 47.65625 59.296875 
Q 45.90625 63.09375 42.90625 65.640625 
Q 39.90625 68.203125 35.84375 69.546875 
Q 31.796875 70.90625 27.203125 70.90625 
Q 21.59375 70.90625 17.1875 69 
Q 12.796875 67.09375 9.84375 63.75 
Q 6.90625 60.40625 5.5 55.796875 
Q 4.09375 51.203125 4.40625 45.796875 
z
" id="HelveticaNeue-50"/>
        <path d="M 13.203125 34.90625 
Q 13.203125 37.5 13.25 40.640625 
Q 13.296875 43.796875 13.75 46.9375 
Q 14.203125 50.09375 15.046875 53.09375 
Q 15.90625 56.09375 17.546875 58.34375 
Q 19.203125 60.59375 21.703125 62 
Q 24.203125 63.40625 27.796875 63.40625 
Q 31.40625 63.40625 33.90625 62 
Q 36.40625 60.59375 38.046875 58.34375 
Q 39.703125 56.09375 40.546875 53.09375 
Q 41.40625 50.09375 41.84375 46.9375 
Q 42.296875 43.796875 42.34375 40.640625 
Q 42.40625 37.5 42.40625 34.90625 
Q 42.40625 30.90625 42.15625 25.953125 
Q 41.90625 21 40.546875 16.640625 
Q 39.203125 12.296875 36.203125 9.296875 
Q 33.203125 6.296875 27.796875 6.296875 
Q 22.40625 6.296875 19.40625 9.296875 
Q 16.40625 12.296875 15.046875 16.640625 
Q 13.703125 21 13.453125 25.953125 
Q 13.203125 30.90625 13.203125 34.90625 
z
M 4.203125 34.796875 
Q 4.203125 30.90625 4.390625 26.703125 
Q 4.59375 22.5 5.390625 18.5 
Q 6.203125 14.5 7.703125 10.953125 
Q 9.203125 7.40625 11.796875 4.703125 
Q 14.40625 2 18.34375 0.453125 
Q 22.296875 -1.09375 27.796875 -1.09375 
Q 33.40625 -1.09375 37.296875 0.453125 
Q 41.203125 2 43.796875 4.703125 
Q 46.40625 7.40625 47.90625 10.953125 
Q 49.40625 14.5 50.203125 18.5 
Q 51 22.5 51.203125 26.703125 
Q 51.40625 30.90625 51.40625 34.796875 
Q 51.40625 38.703125 51.203125 42.890625 
Q 51 47.09375 50.203125 51.09375 
Q 49.40625 55.09375 47.90625 58.6875 
Q 46.40625 62.296875 43.796875 65 
Q 41.203125 67.703125 37.25 69.296875 
Q 33.296875 70.90625 27.796875 70.90625 
Q 22.296875 70.90625 18.34375 69.296875 
Q 14.40625 67.703125 11.796875 65 
Q 9.203125 62.296875 7.703125 58.6875 
Q 6.203125 55.09375 5.390625 51.09375 
Q 4.59375 47.09375 4.390625 42.890625 
Q 4.203125 38.703125 4.203125 34.796875 
z
" id="HelveticaNeue-48"/>
        <path d="M 35.59375 0 
L 35.59375 70.90625 
L 29.09375 70.90625 
Q 28.40625 66.90625 26.5 64.296875 
Q 24.59375 61.703125 21.84375 60.203125 
Q 19.09375 58.703125 15.6875 58.140625 
Q 12.296875 57.59375 8.703125 57.59375 
L 8.703125 50.796875 
L 27.09375 50.796875 
L 27.09375 0 
z
" id="HelveticaNeue-49"/>
       </defs>
       <use xlink:href="#HelveticaNeue-50"/>
       <use x="55.599991" xlink:href="#HelveticaNeue-48"/>
       <use x="111.199982" xlink:href="#HelveticaNeue-50"/>
       <use x="166.799973" xlink:href="#HelveticaNeue-49"/>
      </g>
     </g>
    </g>
    <g id="xtick_6">
     <g id="line2d_6">
      <g>
       <use style="fill:#555555;stroke:#555555;stroke-width:0.8;" x="388.31278" xlink:href="#m90e2aeb8e2" y="262.5"/>
      </g>
     </g>
     <g id="text_5">
      <!-- Apr -->
      <g style="fill:#555555;" transform="translate(380.443249 276.640625)scale(0.1 -0.1)">
       <use xlink:href="#HelveticaNeue-65"/>
       <use x="64.799988" xlink:href="#HelveticaNeue-112"/>
       <use x="124.099976" xlink:href="#HelveticaNeue-114"/>
      </g>
     </g>
    </g>
    <g id="xtick_7">
     <g id="line2d_7">
      <g>
       <use style="fill:#555555;stroke:#555555;stroke-width:0.8;" x="450" xlink:href="#m90e2aeb8e2" y="262.5"/>
      </g>
     </g>
    </g>
    <g id="xtick_8">
     <g id="line2d_8">
      <defs>
       <path d="M 0 0 
L 0 2 
" id="m4debd0755d" style="stroke:#555555;stroke-width:0.6;"/>
      </defs>
      <g>
       <use style="fill:#555555;stroke:#555555;stroke-width:0.6;" x="97.253363" xlink:href="#m4debd0755d" y="262.5"/>
      </g>
     </g>
    </g>
    <g id="xtick_9">
     <g id="line2d_9">
      <g>
       <use style="fill:#555555;stroke:#555555;stroke-width:0.6;" x="124.18722" xlink:href="#m4debd0755d" y="262.5"/>
      </g>
     </g>
    </g>
    <g id="xtick_10">
     <g id="line2d_10">
      <g>
       <use style="fill:#555555;stroke:#555555;stroke-width:0.6;" x="177.186099" xlink:href="#m4debd0755d" y="262.5"/>
      </g>
     </g>
    </g>
    <g id="xtick_11">
     <g id="line2d_11">
      <g>
       <use style="fill:#555555;stroke:#555555;stroke-width:0.6;" x="204.119955" xlink:href="#m4debd0755d" y="262.5"/>
      </g>
     </g>
    </g>
    <g id="xtick_12">
     <g id="line2d_12">
      <g>
       <use style="fill:#555555;stroke:#555555;stroke-width:0.6;" x="257.118834" xlink:href="#m4debd0755d" y="262.5"/>
      </g>
     </g>
    </g>
    <g id="xtick_13">
     <g id="line2d_13">
      <g>
       <use style="fill:#555555;stroke:#555555;stroke-width:0.6;" x="283.183857" xlink:href="#m4debd0755d" y="262.5"/>
      </g>
     </g>
    </g>
    <g id="xtick_14">
     <g id="line2d_14">
      <g>
       <use style="fill:#555555;stroke:#555555;stroke-width:0.6;" x="337.05157" xlink:href="#m4debd0755d" y="262.5"/>
      </g>
     </g>
    </g>
    <g id="xtick_15">
     <g id="line2d_15">
      <g>
       <use style="fill:#555555;stroke:#555555;stroke-width:0.6;" x="361.378924" xlink:href="#m4debd0755d" y="262.5"/>
      </g>
     </g>
    </g>
    <g id="xtick_16">
     <g id="line2d_16">
      <g>
       <use style="fill:#555555;stroke:#555555;stroke-width:0.6;" x="414.377803" xlink:href="#m4debd0755d" y="262.5"/>
      </g>
     </g>
    </g>
    <g id="xtick_17">
     <g id="line2d_17">
      <g>
       <use style="fill:#555555;stroke:#555555;stroke-width:0.6;" x="441.311659" xlink:href="#m4debd0755d" y="262.5"/>
      </g>
     </g>
    </g>
    <g id="text_6">
     <!-- fecha -->
     <g style="fill:#555555;" transform="translate(243.935156 300.290625)scale(0.1 -0.1)">
      <defs>
       <path d="M 9.90625 44.203125 
L 9.90625 0 
L 18.40625 0 
L 18.40625 44.203125 
L 28.40625 44.203125 
L 28.40625 51.703125 
L 18.40625 51.703125 
L 18.40625 58.90625 
Q 18.40625 62.296875 20.09375 63.5 
Q 21.796875 64.703125 24.90625 64.703125 
Q 26 64.703125 27.296875 64.546875 
Q 28.59375 64.40625 29.703125 64 
L 29.703125 71.40625 
Q 28.5 71.796875 26.953125 72 
Q 25.40625 72.203125 24.203125 72.203125 
Q 17.203125 72.203125 13.546875 68.953125 
Q 9.90625 65.703125 9.90625 59.40625 
L 9.90625 51.703125 
L 1.203125 51.703125 
L 1.203125 44.203125 
z
" id="HelveticaNeue-102"/>
       <path d="M 42.296875 30.796875 
L 12.59375 30.796875 
Q 12.796875 33.796875 13.890625 36.4375 
Q 15 39.09375 16.890625 41.09375 
Q 18.796875 43.09375 21.4375 44.25 
Q 24.09375 45.40625 27.40625 45.40625 
Q 30.59375 45.40625 33.25 44.25 
Q 35.90625 43.09375 37.84375 41.140625 
Q 39.796875 39.203125 40.9375 36.5 
Q 42.09375 33.796875 42.296875 30.796875 
z
M 50.5 16.40625 
L 42.09375 16.40625 
Q 41 11.296875 37.546875 8.796875 
Q 34.09375 6.296875 28.703125 6.296875 
Q 24.5 6.296875 21.390625 7.6875 
Q 18.296875 9.09375 16.296875 11.4375 
Q 14.296875 13.796875 13.390625 16.84375 
Q 12.5 19.90625 12.59375 23.296875 
L 51.296875 23.296875 
Q 51.5 28 50.453125 33.203125 
Q 49.40625 38.40625 46.65625 42.796875 
Q 43.90625 47.203125 39.34375 50.046875 
Q 34.796875 52.90625 27.90625 52.90625 
Q 22.59375 52.90625 18.140625 50.90625 
Q 13.703125 48.90625 10.453125 45.296875 
Q 7.203125 41.703125 5.390625 36.796875 
Q 3.59375 31.90625 3.59375 26 
Q 3.796875 20.09375 5.34375 15.09375 
Q 6.90625 10.09375 10 6.5 
Q 13.09375 2.90625 17.640625 0.90625 
Q 22.203125 -1.09375 28.40625 -1.09375 
Q 37.203125 -1.09375 43 3.296875 
Q 48.796875 7.703125 50.5 16.40625 
z
" id="HelveticaNeue-101"/>
       <path d="M 6.40625 71.40625 
L 6.40625 0 
L 14.90625 0 
L 14.90625 29.203125 
Q 14.90625 32.703125 15.84375 35.640625 
Q 16.796875 38.59375 18.6875 40.796875 
Q 20.59375 43 23.4375 44.203125 
Q 26.296875 45.40625 30.203125 45.40625 
Q 35.09375 45.40625 37.890625 42.59375 
Q 40.703125 39.796875 40.703125 35 
L 40.703125 0 
L 49.203125 0 
L 49.203125 34 
Q 49.203125 38.203125 48.34375 41.640625 
Q 47.5 45.09375 45.390625 47.59375 
Q 43.296875 50.09375 39.890625 51.5 
Q 36.5 52.90625 31.40625 52.90625 
Q 29.09375 52.90625 26.640625 52.40625 
Q 24.203125 51.90625 21.953125 50.84375 
Q 19.703125 49.796875 17.890625 48.140625 
Q 16.09375 46.5 15.09375 44.09375 
L 14.90625 44.09375 
L 14.90625 71.40625 
z
" id="HelveticaNeue-104"/>
      </defs>
      <use xlink:href="#HelveticaNeue-102"/>
      <use x="29.599991" xlink:href="#HelveticaNeue-101"/>
      <use x="83.299988" xlink:href="#HelveticaNeue-99"/>
      <use x="136.999985" xlink:href="#HelveticaNeue-104"/>
      <use x="192.599976" xlink:href="#HelveticaNeue-97"/>
     </g>
    </g>
   </g>
   <g id="matplotlib.axis_2">
    <g id="ytick_1">
     <g id="line2d_18">
      <defs>
       <path d="M 0 0 
L -3.5 0 
" id="m493ea44a28" style="stroke:#555555;stroke-width:0.8;"/>
      </defs>
      <g>
       <use style="fill:#555555;stroke:#555555;stroke-width:0.8;" x="62.5" xlink:href="#m493ea44a28" y="251.795455"/>
      </g>
     </g>
     <g id="text_7">
      <!-- 0 -->
      <g style="fill:#555555;" transform="translate(49.940625 255.365767)scale(0.1 -0.1)">
       <use xlink:href="#HelveticaNeue-48"/>
      </g>
     </g>
    </g>
    <g id="ytick_2">
     <g id="line2d_19">
      <g>
       <use style="fill:#555555;stroke:#555555;stroke-width:0.8;" x="62.5" xlink:href="#m493ea44a28" y="215.26117"/>
      </g>
     </g>
     <g id="text_8">
      <!-- 100 -->
      <g style="fill:#555555;" transform="translate(38.821875 218.831482)scale(0.1 -0.1)">
       <use xlink:href="#HelveticaNeue-49"/>
       <use x="55.599991" xlink:href="#HelveticaNeue-48"/>
       <use x="111.199982" xlink:href="#HelveticaNeue-48"/>
      </g>
     </g>
    </g>
    <g id="ytick_3">
     <g id="line2d_20">
      <g>
       <use style="fill:#555555;stroke:#555555;stroke-width:0.8;" x="62.5" xlink:href="#m493ea44a28" y="178.726885"/>
      </g>
     </g>
     <g id="text_9">
      <!-- 200 -->
      <g style="fill:#555555;" transform="translate(38.821875 182.297197)scale(0.1 -0.1)">
       <use xlink:href="#HelveticaNeue-50"/>
       <use x="55.599991" xlink:href="#HelveticaNeue-48"/>
       <use x="111.199982" xlink:href="#HelveticaNeue-48"/>
      </g>
     </g>
    </g>
    <g id="ytick_4">
     <g id="line2d_21">
      <g>
       <use style="fill:#555555;stroke:#555555;stroke-width:0.8;" x="62.5" xlink:href="#m493ea44a28" y="142.1926"/>
      </g>
     </g>
     <g id="text_10">
      <!-- 300 -->
      <g style="fill:#555555;" transform="translate(38.821875 145.762913)scale(0.1 -0.1)">
       <defs>
        <path d="M 21.796875 40.5 
L 21.796875 33.296875 
Q 24.203125 33.59375 26.90625 33.59375 
Q 30.09375 33.59375 32.84375 32.75 
Q 35.59375 31.90625 37.59375 30.15625 
Q 39.59375 28.40625 40.796875 25.84375 
Q 42 23.296875 42 20 
Q 42 16.796875 40.75 14.25 
Q 39.5 11.703125 37.390625 9.953125 
Q 35.296875 8.203125 32.5 7.25 
Q 29.703125 6.296875 26.59375 6.296875 
Q 19.296875 6.296875 15.5 10.640625 
Q 11.703125 15 11.5 21.90625 
L 3 21.90625 
Q 2.90625 16.40625 4.546875 12.09375 
Q 6.203125 7.796875 9.296875 4.84375 
Q 12.40625 1.90625 16.796875 0.40625 
Q 21.203125 -1.09375 26.59375 -1.09375 
Q 31.59375 -1.09375 36.046875 0.25 
Q 40.5 1.59375 43.796875 4.296875 
Q 47.09375 7 49.046875 11.046875 
Q 51 15.09375 51 20.40625 
Q 51 26.796875 47.84375 31.5 
Q 44.703125 36.203125 38.203125 37.59375 
L 38.203125 37.796875 
Q 42.40625 39.703125 45.203125 43.390625 
Q 48 47.09375 48 51.90625 
Q 48 56.796875 46.34375 60.390625 
Q 44.703125 64 41.796875 66.296875 
Q 38.90625 68.59375 34.953125 69.75 
Q 31 70.90625 26.40625 70.90625 
Q 21.09375 70.90625 17.046875 69.203125 
Q 13 67.5 10.296875 64.5 
Q 7.59375 61.5 6.140625 57.296875 
Q 4.703125 53.09375 4.5 48 
L 13 48 
Q 13 51.09375 13.796875 53.890625 
Q 14.59375 56.703125 16.25 58.796875 
Q 17.90625 60.90625 20.453125 62.15625 
Q 23 63.40625 26.40625 63.40625 
Q 31.796875 63.40625 35.390625 60.546875 
Q 39 57.703125 39 52 
Q 39 49.203125 37.890625 47 
Q 36.796875 44.796875 34.9375 43.34375 
Q 33.09375 41.90625 30.640625 41.15625 
Q 28.203125 40.40625 25.5 40.40625 
L 23.703125 40.40625 
Q 23.203125 40.40625 22.703125 40.40625 
Q 22.296875 40.40625 21.796875 40.5 
z
" id="HelveticaNeue-51"/>
       </defs>
       <use xlink:href="#HelveticaNeue-51"/>
       <use x="55.599991" xlink:href="#HelveticaNeue-48"/>
       <use x="111.199982" xlink:href="#HelveticaNeue-48"/>
      </g>
     </g>
    </g>
    <g id="ytick_5">
     <g id="line2d_22">
      <g>
       <use style="fill:#555555;stroke:#555555;stroke-width:0.8;" x="62.5" xlink:href="#m493ea44a28" y="105.658315"/>
      </g>
     </g>
     <g id="text_11">
      <!-- 400 -->
      <g style="fill:#555555;" transform="translate(38.821875 109.228628)scale(0.1 -0.1)">
       <defs>
        <path d="M 33.90625 24.09375 
L 10.09375 24.09375 
L 33.703125 58.796875 
L 33.90625 58.796875 
z
M 41.90625 24.09375 
L 41.90625 70.90625 
L 35.09375 70.90625 
L 2.796875 24.796875 
L 2.796875 16.59375 
L 33.90625 16.59375 
L 33.90625 0 
L 41.90625 0 
L 41.90625 16.59375 
L 51.5 16.59375 
L 51.5 24.09375 
z
" id="HelveticaNeue-52"/>
       </defs>
       <use xlink:href="#HelveticaNeue-52"/>
       <use x="55.599991" xlink:href="#HelveticaNeue-48"/>
       <use x="111.199982" xlink:href="#HelveticaNeue-48"/>
      </g>
     </g>
    </g>
    <g id="ytick_6">
     <g id="line2d_23">
      <g>
       <use style="fill:#555555;stroke:#555555;stroke-width:0.8;" x="62.5" xlink:href="#m493ea44a28" y="69.12403"/>
      </g>
     </g>
     <g id="text_12">
      <!-- 500 -->
      <g style="fill:#555555;" transform="translate(38.821875 72.694343)scale(0.1 -0.1)">
       <defs>
        <path d="M 47 62.203125 
L 47 69.703125 
L 12 69.703125 
L 5.40625 32.90625 
L 12.703125 32.5 
Q 15.203125 35.5 18.453125 37.34375 
Q 21.703125 39.203125 25.90625 39.203125 
Q 29.5 39.203125 32.453125 38 
Q 35.40625 36.796875 37.5 34.640625 
Q 39.59375 32.5 40.75 29.546875 
Q 41.90625 26.59375 41.90625 23.09375 
Q 41.90625 18.90625 40.703125 15.75 
Q 39.5 12.59375 37.453125 10.5 
Q 35.40625 8.40625 32.65625 7.34375 
Q 29.90625 6.296875 26.90625 6.296875 
Q 23.703125 6.296875 21.046875 7.25 
Q 18.40625 8.203125 16.453125 9.953125 
Q 14.5 11.703125 13.34375 14.046875 
Q 12.203125 16.40625 12 19.09375 
L 3.5 19.09375 
Q 3.59375 14.296875 5.390625 10.5 
Q 7.203125 6.703125 10.296875 4.140625 
Q 13.40625 1.59375 17.453125 0.25 
Q 21.5 -1.09375 26.09375 -1.09375 
Q 32.296875 -1.09375 36.9375 0.84375 
Q 41.59375 2.796875 44.6875 6.09375 
Q 47.796875 9.40625 49.34375 13.65625 
Q 50.90625 17.90625 50.90625 22.40625 
Q 50.90625 28.5 49.09375 33.046875 
Q 47.296875 37.59375 44.1875 40.640625 
Q 41.09375 43.703125 36.890625 45.203125 
Q 32.703125 46.703125 28 46.703125 
Q 24.40625 46.703125 20.75 45.453125 
Q 17.09375 44.203125 14.796875 41.59375 
L 14.59375 41.796875 
L 18.40625 62.203125 
z
" id="HelveticaNeue-53"/>
       </defs>
       <use xlink:href="#HelveticaNeue-53"/>
       <use x="55.599991" xlink:href="#HelveticaNeue-48"/>
       <use x="111.199982" xlink:href="#HelveticaNeue-48"/>
      </g>
     </g>
    </g>
    <g id="ytick_7">
     <g id="line2d_24">
      <g>
       <use style="fill:#555555;stroke:#555555;stroke-width:0.8;" x="62.5" xlink:href="#m493ea44a28" y="32.589746"/>
      </g>
     </g>
     <g id="text_13">
      <!-- 600 -->
      <g style="fill:#555555;" transform="translate(38.821875 36.160058)scale(0.1 -0.1)">
       <defs>
        <path d="M 41.40625 52.796875 
L 49.90625 52.796875 
Q 49.09375 61.59375 43.890625 66.25 
Q 38.703125 70.90625 29.90625 70.90625 
Q 22.296875 70.90625 17.296875 67.703125 
Q 12.296875 64.5 9.296875 59.203125 
Q 6.296875 53.90625 5.046875 47.046875 
Q 3.796875 40.203125 3.796875 32.90625 
Q 3.796875 27.296875 4.640625 21.296875 
Q 5.5 15.296875 8.09375 10.296875 
Q 10.703125 5.296875 15.5 2.09375 
Q 20.296875 -1.09375 28.203125 -1.09375 
Q 34.90625 -1.09375 39.453125 1.15625 
Q 44 3.40625 46.75 6.84375 
Q 49.5 10.296875 50.703125 14.5 
Q 51.90625 18.703125 51.90625 22.59375 
Q 51.90625 27.5 50.40625 31.703125 
Q 48.90625 35.90625 46.15625 39 
Q 43.40625 42.09375 39.34375 43.84375 
Q 35.296875 45.59375 30.203125 45.59375 
Q 24.40625 45.59375 19.953125 43.390625 
Q 15.5 41.203125 12.5 36.296875 
L 12.296875 36.5 
Q 12.40625 40.59375 13.09375 45.296875 
Q 13.796875 50 15.640625 54.046875 
Q 17.5 58.09375 20.796875 60.75 
Q 24.09375 63.40625 29.5 63.40625 
Q 34.59375 63.40625 37.6875 60.5 
Q 40.796875 57.59375 41.40625 52.796875 
z
M 28.59375 38.09375 
Q 32.203125 38.09375 34.890625 36.796875 
Q 37.59375 35.5 39.390625 33.34375 
Q 41.203125 31.203125 42.046875 28.25 
Q 42.90625 25.296875 42.90625 22 
Q 42.90625 18.90625 41.953125 16.046875 
Q 41 13.203125 39.203125 11 
Q 37.40625 8.796875 34.75 7.546875 
Q 32.09375 6.296875 28.59375 6.296875 
Q 25.09375 6.296875 22.34375 7.546875 
Q 19.59375 8.796875 17.75 10.890625 
Q 15.90625 13 14.90625 15.890625 
Q 13.90625 18.796875 13.90625 22.09375 
Q 13.90625 25.40625 14.84375 28.34375 
Q 15.796875 31.296875 17.6875 33.4375 
Q 19.59375 35.59375 22.296875 36.84375 
Q 25 38.09375 28.59375 38.09375 
z
" id="HelveticaNeue-54"/>
       </defs>
       <use xlink:href="#HelveticaNeue-54"/>
       <use x="55.599991" xlink:href="#HelveticaNeue-48"/>
       <use x="111.199982" xlink:href="#HelveticaNeue-48"/>
      </g>
     </g>
    </g>
   </g>
   <g id="line2d_25">
    <path clip-path="url(#p7b61953d57)" d="M 63.368834 251.795455 
L 64.237668 250.334083 
L 65.106502 250.699426 
L 65.975336 249.603397 
L 66.84417 251.795455 
L 67.713004 249.96874 
L 68.581839 251.430112 
L 70.319507 250.699426 
L 71.188341 251.795455 
L 72.057175 250.334083 
L 72.926009 249.238055 
L 73.794843 249.238055 
L 74.663677 251.795455 
L 75.532511 248.507369 
L 76.401345 249.238055 
L 77.270179 251.430112 
L 78.139013 250.334083 
L 79.876682 251.795455 
L 80.745516 251.795455 
L 81.61435 250.699426 
L 82.483184 251.430112 
L 83.352018 250.699426 
L 84.220852 249.603397 
L 85.089686 250.334083 
L 85.95852 248.872712 
L 86.827354 250.699426 
L 87.696188 250.699426 
L 88.565022 251.795455 
L 89.433857 251.430112 
L 90.302691 249.96874 
L 91.171525 250.334083 
L 92.040359 250.334083 
L 92.909193 249.603397 
L 93.778027 249.603397 
L 94.646861 249.238055 
L 95.515695 250.699426 
L 96.384529 249.238055 
L 97.253363 250.334083 
L 98.122197 250.334083 
L 98.991031 247.045998 
L 99.859865 248.507369 
L 100.7287 249.238055 
L 101.597534 250.334083 
L 102.466368 249.238055 
L 103.335202 249.238055 
L 104.204036 249.603397 
L 105.07287 241.931198 
L 105.941704 248.872712 
L 106.810538 250.334083 
L 107.679372 249.96874 
L 108.548206 247.776683 
L 109.41704 247.045998 
L 110.285874 245.949969 
L 111.154709 248.872712 
L 112.023543 251.064769 
L 112.892377 245.219283 
L 113.761211 244.488598 
L 114.630045 249.238055 
L 115.498879 245.219283 
L 116.367713 246.315312 
L 117.236547 251.430112 
L 118.105381 245.584626 
L 118.974215 249.603397 
L 119.843049 244.85394 
L 120.711883 241.565855 
L 121.580717 247.41134 
L 122.449552 248.872712 
L 123.318386 241.565855 
L 124.18722 241.565855 
L 125.056054 244.488598 
L 125.924888 241.565855 
L 126.793722 249.238055 
L 127.662556 243.757912 
L 128.53139 247.776683 
L 129.400224 247.776683 
L 130.269058 246.680655 
L 131.137892 241.565855 
L 132.006726 245.584626 
L 132.875561 244.85394 
L 133.744395 239.739141 
L 134.613229 246.315312 
L 135.482063 247.776683 
L 136.350897 245.219283 
L 137.219731 237.912426 
L 138.088565 240.835169 
L 138.957399 240.104483 
L 139.826233 237.181741 
L 140.695067 231.336255 
L 141.563901 235.355026 
L 142.432735 233.893655 
L 143.30157 242.661883 
L 144.170404 225.125427 
L 145.039238 240.835169 
L 145.908072 233.162969 
L 146.776906 229.509541 
L 147.64574 224.394741 
L 148.514574 245.584626 
L 149.383408 229.509541 
L 150.252242 236.085712 
L 151.121076 229.509541 
L 151.98991 228.778855 
L 152.858744 231.336255 
L 153.727578 236.816398 
L 155.465247 218.183913 
L 156.334081 225.490769 
L 157.202915 233.893655 
L 158.071749 215.26117 
L 158.940583 222.568027 
L 159.809417 226.586798 
L 160.678251 218.549255 
L 161.547085 230.970912 
L 162.415919 226.586798 
L 163.284753 214.530484 
L 164.153587 218.914598 
L 165.022422 202.108827 
L 165.891256 217.81857 
L 166.76009 224.394741 
L 167.628924 189.68717 
L 168.497758 194.80197 
L 169.366592 217.087884 
L 170.235426 188.225799 
L 171.10426 206.127599 
L 171.973094 214.895827 
L 172.841928 180.553599 
L 173.710762 187.12977 
L 174.579596 199.91677 
L 176.317265 194.071285 
L 177.186099 195.532656 
L 178.054933 212.70377 
L 178.923767 199.186084 
L 179.792601 144.019314 
L 180.661435 196.994027 
L 181.530269 199.551427 
L 182.399103 171.785371 
L 183.267937 194.071285 
L 184.136771 206.127599 
L 185.005605 158.998371 
L 185.874439 189.68717 
L 186.743274 194.071285 
L 187.612108 177.630856 
L 188.480942 183.110999 
L 189.349776 167.035914 
L 190.21861 174.708114 
L 191.087444 194.071285 
L 191.956278 141.096572 
L 192.825112 210.14637 
L 193.693946 192.975256 
L 194.56278 192.975256 
L 195.431614 210.877056 
L 196.300448 191.879227 
L 197.169283 211.242398 
L 198.038117 191.513885 
L 198.906951 209.415684 
L 199.775785 215.26117 
L 200.644619 204.666227 
L 201.513453 225.125427 
L 202.382287 216.722541 
L 203.251121 197.724713 
L 204.119955 190.783199 
L 204.988789 225.125427 
L 205.857623 208.319656 
L 206.726457 187.495113 
L 207.595291 223.664055 
L 208.464126 231.336255 
L 209.33296 217.453227 
L 210.201794 225.125427 
L 211.070628 211.607741 
L 211.939462 212.70377 
L 212.808296 199.186084 
L 213.67713 223.664055 
L 214.545964 234.624341 
L 215.414798 222.93337 
L 216.283632 218.183913 
L 217.152466 208.684998 
L 218.0213 214.530484 
L 218.890135 213.069113 
L 219.758969 229.144198 
L 220.627803 232.066941 
L 221.496637 226.586798 
L 222.365471 223.664055 
L 223.234305 211.242398 
L 224.103139 217.81857 
L 224.971973 217.453227 
L 225.840807 226.221455 
L 226.709641 231.701598 
L 227.578475 227.317484 
L 228.447309 208.684998 
L 229.316143 230.605569 
L 230.184978 218.183913 
L 231.053812 188.591142 
L 231.922646 206.492941 
L 232.79148 212.338427 
L 233.660314 221.837341 
L 234.529148 217.453227 
L 235.397982 219.645284 
L 236.266816 214.895827 
L 237.13565 220.741312 
L 238.004484 224.029398 
L 238.873318 229.144198 
L 239.742152 236.816398 
L 240.610987 237.181741 
L 241.479821 226.221455 
L 242.348655 204.300884 
L 243.217489 212.70377 
L 244.086323 217.087884 
L 244.955157 227.317484 
L 245.823991 225.125427 
L 246.692825 213.069113 
L 247.561659 203.935541 
L 248.430493 199.186084 
L 249.299327 205.396913 
L 250.168161 223.664055 
L 251.036996 219.645284 
L 251.90583 217.453227 
L 252.774664 197.35937 
L 253.643498 190.417856 
L 254.512332 210.14637 
L 255.381166 210.511713 
L 256.25 215.626513 
L 257.118834 219.279941 
L 257.987668 211.607741 
L 258.856502 207.954313 
L 259.725336 203.570199 
L 260.59417 210.877056 
L 261.463004 209.050341 
L 262.331839 206.858284 
L 264.069507 224.029398 
L 264.938341 215.26117 
L 265.807175 218.914598 
L 266.676009 215.626513 
L 267.544843 211.607741 
L 268.413677 230.970912 
L 269.282511 238.643112 
L 270.151345 217.087884 
L 271.020179 210.511713 
L 271.889013 230.970912 
L 272.757848 210.14637 
L 273.626682 206.492941 
L 274.495516 225.490769 
L 275.36435 211.973084 
L 276.233184 212.70377 
L 277.102018 209.415684 
L 277.970852 207.954313 
L 278.839686 198.820742 
L 279.70852 197.724713 
L 280.577354 207.223627 
L 281.446188 224.760084 
L 282.315022 212.70377 
L 283.183857 202.47417 
L 284.052691 210.877056 
L 284.921525 209.050341 
L 285.790359 196.994027 
L 286.659193 203.935541 
L 287.528027 230.240226 
L 288.396861 210.877056 
L 289.265695 211.973084 
L 290.134529 202.108827 
L 291.003363 184.937713 
L 291.872197 182.745656 
L 292.741031 192.24457 
L 293.609865 203.204856 
L 295.347534 173.612085 
L 296.216368 173.246742 
L 297.085202 193.705942 
L 297.954036 175.438799 
L 298.82287 172.150714 
L 299.691704 205.03157 
L 300.560538 179.822913 
L 301.429372 170.689342 
L 302.298206 148.403428 
L 303.16704 183.110999 
L 304.035874 194.436627 
L 304.904709 193.340599 
L 305.773543 172.150714 
L 306.642377 164.843857 
L 307.511211 122.098743 
L 308.380045 126.482858 
L 309.248879 179.457571 
L 310.117713 220.741312 
L 311.855381 126.8482 
L 312.724215 162.286457 
L 313.593049 102.004887 
L 314.461883 105.292972 
L 315.330717 128.309572 
L 316.199552 146.942057 
L 317.068386 118.445315 
L 317.93722 180.553599 
L 318.806054 176.900171 
L 319.674888 78.988287 
L 320.543722 84.46843 
L 321.412556 136.712457 
L 322.28139 156.440971 
L 323.150224 131.597657 
L 324.019058 154.248914 
L 324.887892 151.691514 
L 325.756726 148.403428 
L 326.625561 163.382485 
L 327.494395 147.3074 
L 328.363229 156.806314 
L 329.232063 158.267685 
L 330.100897 198.455399 
L 330.969731 157.537 
L 331.838565 199.91677 
L 332.707399 164.478514 
L 334.445067 206.127599 
L 335.313901 221.471998 
L 336.182735 199.91677 
L 337.05157 218.183913 
L 337.920404 220.37597 
L 338.789238 207.58897 
L 339.658072 209.781027 
L 340.526906 220.010627 
L 341.39574 226.586798 
L 342.264574 234.624341 
L 343.133408 218.549255 
L 344.002242 215.626513 
L 344.871076 222.568027 
L 345.73991 231.701598 
L 346.608744 222.93337 
L 347.477578 234.258998 
L 348.346413 229.509541 
L 349.215247 240.835169 
L 350.084081 218.549255 
L 350.952915 227.682827 
L 351.821749 234.258998 
L 352.690583 233.162969 
L 353.559417 234.624341 
L 354.428251 241.931198 
L 355.297085 237.912426 
L 356.165919 235.355026 
L 357.034753 231.701598 
L 357.903587 229.509541 
L 358.772422 237.912426 
L 359.641256 241.565855 
L 360.51009 236.816398 
L 361.378924 237.912426 
L 362.247758 234.989684 
L 363.116592 235.355026 
L 363.985426 237.181741 
L 364.85426 229.874884 
L 365.723094 236.816398 
L 366.591928 242.29654 
L 367.460762 237.181741 
L 368.329596 241.931198 
L 369.19843 237.547083 
L 370.067265 239.373798 
L 370.936099 244.123255 
L 371.804933 246.315312 
L 372.673767 239.373798 
L 373.542601 238.277769 
L 374.411435 238.643112 
L 375.280269 232.432284 
L 376.149103 237.547083 
L 377.017937 225.490769 
L 377.886771 234.989684 
L 378.755605 234.989684 
L 379.624439 246.315312 
L 380.493274 230.240226 
L 381.362108 225.856112 
L 382.230942 232.066941 
L 383.099776 225.125427 
L 383.96861 220.010627 
L 384.837444 236.085712 
L 385.706278 221.837341 
L 386.575112 210.877056 
L 387.443946 216.357198 
L 388.31278 233.893655 
L 389.181614 222.93337 
L 390.050448 217.087884 
L 390.919283 226.586798 
L 392.656951 186.033742 
L 393.525785 199.186084 
L 394.394619 193.340599 
L 395.263453 168.862628 
L 397.001121 187.860456 
L 397.869955 167.035914 
L 398.738789 161.921114 
L 399.607623 155.710285 
L 400.476457 162.286457 
L 401.345291 167.766599 
L 402.214126 179.457571 
L 403.08296 198.090056 
L 403.951794 186.764428 
L 404.820628 145.480686 
L 405.689462 176.900171 
L 406.558296 163.382485 
L 407.42713 185.668399 
L 408.295964 187.860456 
L 409.164798 179.092228 
L 410.033632 179.092228 
L 410.902466 165.2092 
L 411.7713 177.996199 
L 412.640135 169.958657 
L 413.508969 153.152886 
L 414.377803 178.726885 
L 416.115471 167.766599 
L 416.984305 142.557943 
L 417.853139 160.459742 
L 418.721973 148.768771 
L 419.590807 167.035914 
L 420.459641 175.438799 
L 421.328475 154.9796 
L 422.197309 151.326171 
L 423.066143 130.501629 
L 423.934978 167.766599 
L 424.803812 183.110999 
L 425.672646 167.401257 
L 426.54148 182.745656 
L 427.410314 193.340599 
L 428.279148 161.190428 
L 429.147982 138.173829 
L 430.016816 160.825085 
L 431.754484 124.656143 
L 432.623318 141.096572 
L 433.492152 129.040258 
L 434.360987 135.981772 
L 435.229821 108.946401 
L 436.098655 116.983944 
L 436.967489 120.272029 
L 437.836323 125.021486 
L 438.705157 80.449659 
L 439.573991 173.612085 
L 440.442825 134.5204 
L 441.311659 115.887915 
L 442.180493 37.704545 
L 443.049327 98.716801 
L 443.918161 100.543515 
L 444.786996 121.733401 
L 445.65583 140.000543 
L 446.524664 75.334859 
L 447.393498 181.284285 
L 448.262332 149.8648 
L 449.131166 194.80197 
L 450 248.872712 
L 450 248.872712 
" style="fill:none;stroke:#000000;stroke-dasharray:1.5,2.475;stroke-dashoffset:0;stroke-opacity:0.5;stroke-width:1.5;"/>
   </g>
   <g id="line2d_26">
    <path clip-path="url(#p7b61953d57)" d="M 62.5 251.064769 
L 63.368834 250.699426 
L 67.713004 250.699426 
L 68.581839 251.064769 
L 69.450673 251.064769 
L 70.319507 250.699426 
L 72.057175 250.699426 
L 73.794843 249.96874 
L 75.532511 249.96874 
L 76.401345 250.334083 
L 77.270179 250.334083 
L 79.007848 251.064769 
L 82.483184 251.064769 
L 83.352018 250.334083 
L 86.827354 250.334083 
L 87.696188 250.699426 
L 90.302691 250.699426 
L 92.040359 249.96874 
L 95.515695 249.96874 
L 96.384529 249.603397 
L 97.253363 249.603397 
L 98.122197 249.238055 
L 101.597534 249.238055 
L 102.466368 248.507369 
L 103.335202 248.507369 
L 104.204036 248.142026 
L 106.810538 248.142026 
L 107.679372 247.776683 
L 108.548206 248.507369 
L 109.41704 248.507369 
L 110.285874 247.776683 
L 111.154709 247.41134 
L 112.023543 247.41134 
L 112.892377 247.045998 
L 113.761211 247.045998 
L 114.630045 247.41134 
L 115.498879 247.045998 
L 116.367713 247.41134 
L 117.236547 247.41134 
L 118.105381 246.680655 
L 119.843049 246.680655 
L 120.711883 245.584626 
L 121.580717 245.219283 
L 122.449552 244.488598 
L 123.318386 244.123255 
L 124.18722 244.488598 
L 125.056054 244.123255 
L 125.924888 244.123255 
L 126.793722 245.219283 
L 127.662556 245.949969 
L 129.400224 245.949969 
L 130.269058 245.584626 
L 131.137892 244.85394 
L 132.006726 244.488598 
L 133.744395 244.488598 
L 134.613229 244.123255 
L 136.350897 242.661883 
L 137.219731 242.29654 
L 138.088565 240.104483 
L 138.957399 238.277769 
L 139.826233 236.816398 
L 140.695067 236.816398 
L 141.563901 234.989684 
L 142.432735 234.989684 
L 143.30157 234.624341 
L 144.170404 234.624341 
L 145.039238 233.162969 
L 145.908072 233.893655 
L 146.776906 232.797626 
L 147.64574 233.528312 
L 148.514574 232.797626 
L 149.383408 232.432284 
L 150.252242 232.432284 
L 151.121076 233.162969 
L 151.98991 231.336255 
L 152.858744 230.240226 
L 153.727578 228.778855 
L 154.596413 228.778855 
L 155.465247 226.952141 
L 156.334081 225.490769 
L 158.071749 223.298712 
L 158.940583 224.394741 
L 159.809417 224.394741 
L 160.678251 222.93337 
L 161.547085 222.93337 
L 162.415919 220.37597 
L 163.284753 218.549255 
L 164.153587 218.183913 
L 165.891256 209.781027 
L 166.76009 209.050341 
L 167.628924 205.396913 
L 169.366592 203.935541 
L 170.235426 199.91677 
L 171.10426 199.186084 
L 171.973094 198.820742 
L 172.841928 196.263342 
L 173.710762 196.263342 
L 174.579596 194.80197 
L 175.44843 195.167313 
L 176.317265 198.090056 
L 177.186099 193.705942 
L 178.054933 191.879227 
L 178.923767 190.783199 
L 179.792601 187.860456 
L 180.661435 186.764428 
L 181.530269 186.764428 
L 182.399103 184.207028 
L 183.267937 188.225799 
L 184.136771 187.12977 
L 185.005605 184.937713 
L 185.874439 185.668399 
L 186.743274 182.745656 
L 187.612108 179.092228 
L 188.480942 181.649628 
L 189.349776 176.534828 
L 190.21861 177.265513 
L 191.087444 179.092228 
L 191.956278 181.649628 
L 192.825112 187.495113 
L 194.56278 194.80197 
L 195.431614 200.282113 
L 196.300448 200.282113 
L 197.169283 202.839513 
L 198.038117 204.666227 
L 198.906951 206.858284 
L 199.775785 210.14637 
L 200.644619 210.14637 
L 201.513453 209.781027 
L 202.382287 210.511713 
L 203.251121 209.415684 
L 204.119955 206.858284 
L 204.988789 206.492941 
L 205.857623 208.684998 
L 206.726457 211.973084 
L 207.595291 216.357198 
L 208.464126 216.357198 
L 209.33296 217.453227 
L 210.201794 217.81857 
L 211.070628 216.357198 
L 211.939462 216.357198 
L 212.808296 217.453227 
L 213.67713 217.81857 
L 214.545964 218.549255 
L 216.283632 219.279941 
L 218.0213 218.549255 
L 218.890135 220.010627 
L 219.758969 221.837341 
L 220.627803 222.93337 
L 221.496637 222.93337 
L 222.365471 222.202684 
L 223.234305 221.106655 
L 224.103139 221.106655 
L 224.971973 221.837341 
L 225.840807 221.106655 
L 226.709641 223.298712 
L 227.578475 223.298712 
L 230.184978 212.70377 
L 231.053812 211.242398 
L 231.922646 211.973084 
L 232.79148 211.607741 
L 233.660314 212.70377 
L 234.529148 216.722541 
L 236.266816 220.37597 
L 237.13565 222.568027 
L 238.004484 225.856112 
L 238.873318 227.682827 
L 239.742152 227.317484 
L 240.610987 225.490769 
L 241.479821 223.298712 
L 242.348655 221.471998 
L 243.217489 220.010627 
L 244.086323 217.81857 
L 244.955157 216.357198 
L 245.823991 215.26117 
L 246.692825 213.069113 
L 247.561659 212.338427 
L 248.430493 211.242398 
L 249.299327 211.242398 
L 250.168161 210.877056 
L 251.036996 209.415684 
L 251.90583 209.415684 
L 252.774664 208.684998 
L 253.643498 207.223627 
L 254.512332 207.58897 
L 255.381166 208.319656 
L 256.25 210.511713 
L 257.118834 211.973084 
L 257.987668 211.607741 
L 258.856502 210.877056 
L 259.725336 209.415684 
L 260.59417 209.050341 
L 261.463004 210.511713 
L 262.331839 212.338427 
L 263.200673 214.530484 
L 264.069507 215.626513 
L 264.938341 216.357198 
L 265.807175 218.549255 
L 266.676009 221.106655 
L 267.544843 221.106655 
L 268.413677 221.471998 
L 269.282511 222.93337 
L 270.151345 222.202684 
L 271.020179 220.741312 
L 271.889013 218.914598 
L 272.757848 215.991855 
L 273.626682 215.626513 
L 274.495516 214.895827 
L 275.36435 212.70377 
L 277.102018 209.050341 
L 277.970852 206.127599 
L 278.839686 207.223627 
L 279.70852 207.58897 
L 280.577354 207.58897 
L 281.446188 208.684998 
L 282.315022 210.14637 
L 283.183857 209.415684 
L 284.052691 208.319656 
L 284.921525 208.319656 
L 285.790359 208.684998 
L 286.659193 210.511713 
L 287.528027 210.14637 
L 288.396861 207.954313 
L 289.265695 205.03157 
L 290.134529 201.378141 
L 291.003363 196.994027 
L 291.872197 193.705942 
L 292.741031 189.68717 
L 293.609865 186.764428 
L 294.4787 186.764428 
L 295.347534 184.937713 
L 296.216368 182.014971 
L 297.954036 182.014971 
L 298.82287 182.380313 
L 299.691704 179.092228 
L 300.560538 176.900171 
L 301.429372 177.630856 
L 302.298206 179.457571 
L 303.16704 177.265513 
L 304.035874 177.265513 
L 306.642377 162.286457 
L 307.511211 163.017142 
L 308.380045 163.017142 
L 309.248879 161.555771 
L 310.117713 163.017142 
L 310.986547 160.459742 
L 311.855381 153.518228 
L 313.593049 132.328343 
L 314.461883 126.117515 
L 315.330717 131.597657 
L 316.199552 136.347114 
L 317.068386 137.443143 
L 317.93722 134.885743 
L 318.806054 132.693686 
L 319.674888 130.866972 
L 320.543722 130.501629 
L 321.412556 128.674915 
L 322.28139 129.770943 
L 324.019058 148.768771 
L 324.887892 150.595486 
L 325.756726 151.326171 
L 326.625561 154.248914 
L 327.494395 158.998371 
L 328.363229 161.555771 
L 329.232063 168.131942 
L 330.100897 170.323999 
L 331.838565 180.918942 
L 332.707399 188.225799 
L 333.576233 191.148542 
L 334.445067 199.186084 
L 335.313901 203.570199 
L 336.182735 209.415684 
L 337.05157 212.338427 
L 338.789238 214.530484 
L 339.658072 218.549255 
L 340.526906 219.645284 
L 341.39574 220.010627 
L 342.264574 221.837341 
L 343.133408 224.029398 
L 344.002242 224.029398 
L 344.871076 225.125427 
L 345.73991 225.125427 
L 346.608744 228.413512 
L 348.346413 229.874884 
L 349.215247 229.874884 
L 350.084081 230.605569 
L 350.952915 230.970912 
L 351.821749 232.432284 
L 352.690583 233.162969 
L 353.559417 235.355026 
L 354.428251 236.085712 
L 355.297085 235.355026 
L 356.165919 235.355026 
L 357.034753 235.720369 
L 357.903587 235.355026 
L 359.641256 236.085712 
L 360.51009 236.816398 
L 361.378924 237.181741 
L 362.247758 236.085712 
L 363.116592 235.355026 
L 363.985426 236.085712 
L 364.85426 236.085712 
L 365.723094 237.181741 
L 366.591928 237.547083 
L 367.460762 238.277769 
L 368.329596 239.739141 
L 369.19843 240.835169 
L 370.067265 240.835169 
L 370.936099 241.200512 
L 371.804933 240.835169 
L 373.542601 239.373798 
L 374.411435 236.816398 
L 375.280269 234.989684 
L 376.149103 234.258998 
L 377.017937 234.989684 
L 378.755605 234.258998 
L 379.624439 233.528312 
L 380.493274 233.162969 
L 381.362108 230.605569 
L 382.230942 229.874884 
L 383.099776 227.317484 
L 383.96861 225.125427 
L 384.837444 223.298712 
L 387.443946 222.202684 
L 388.31278 221.471998 
L 389.181614 220.37597 
L 390.919283 213.434455 
L 391.788117 207.223627 
L 392.656951 199.91677 
L 394.394619 187.860456 
L 395.263453 183.110999 
L 396.132287 179.457571 
L 397.001121 173.612085 
L 397.869955 169.227971 
L 398.738789 167.766599 
L 399.607623 167.035914 
L 400.476457 168.862628 
L 401.345291 172.881399 
L 402.214126 173.246742 
L 403.08296 175.438799 
L 403.951794 174.708114 
L 404.820628 175.438799 
L 405.689462 175.438799 
L 406.558296 174.342771 
L 407.42713 175.073456 
L 408.295964 177.630856 
L 410.033632 177.630856 
L 410.902466 173.246742 
L 411.7713 171.420028 
L 413.508969 169.227971 
L 414.377803 167.035914 
L 415.246637 164.478514 
L 416.115471 161.555771 
L 416.984305 161.190428 
L 417.853139 160.459742 
L 418.721973 159.363714 
L 419.590807 158.633028 
L 420.459641 157.171657 
L 421.328475 156.806314 
L 422.197309 159.363714 
L 423.066143 159.729057 
L 423.934978 161.921114 
L 424.803812 168.131942 
L 425.672646 171.785371 
L 426.54148 172.516056 
L 427.410314 170.323999 
L 428.279148 164.478514 
L 430.016816 150.595486 
L 430.88565 142.557943 
L 431.754484 138.904514 
L 432.623318 134.5204 
L 433.492152 129.040258 
L 434.360987 125.386829 
L 435.229821 124.2908 
L 436.098655 117.349286 
L 436.967489 120.637372 
L 437.836323 121.733401 
L 438.705157 123.925458 
L 439.573991 116.618601 
L 440.442825 111.869144 
L 441.311659 106.389001 
L 442.180493 106.389001 
L 443.918161 99.447487 
L 444.786996 108.946401 
L 446.524664 135.981772 
L 447.393498 155.344943 
L 449.131166 177.265513 
L 450 197.724713 
L 450 197.724713 
" style="fill:none;stroke:#b3220f;stroke-linecap:square;stroke-width:1.5;"/>
   </g>
   <g id="patch_3">
    <path d="M 62.5 262.5 
L 62.5 27 
" style="fill:none;stroke:#555555;stroke-linecap:square;stroke-linejoin:miter;"/>
   </g>
   <g id="patch_4">
    <path d="M 62.5 262.5 
L 450 262.5 
" style="fill:none;stroke:#555555;stroke-linecap:square;stroke-linejoin:miter;"/>
   </g>
   <g id="text_14">
    <!-- Fontibn | Casos nuevos: 2021-06-11 -->
    <g style="fill:#555555;" transform="translate(138.246406 17)scale(0.14 -0.14)">
     <defs>
      <path d="M 7.796875 71.40625 
L 7.796875 0 
L 17.296875 0 
L 17.296875 32.703125 
L 50.09375 32.703125 
L 50.09375 40.703125 
L 17.296875 40.703125 
L 17.296875 63.40625 
L 54.703125 63.40625 
L 54.703125 71.40625 
z
" id="HelveticaNeue-70"/>
      <path d="M 12.59375 25.796875 
Q 12.59375 30.5 13.84375 34.140625 
Q 15.09375 37.796875 17.296875 40.296875 
Q 19.5 42.796875 22.453125 44.09375 
Q 25.40625 45.40625 28.703125 45.40625 
Q 32 45.40625 34.953125 44.09375 
Q 37.90625 42.796875 40.09375 40.296875 
Q 42.296875 37.796875 43.546875 34.140625 
Q 44.796875 30.5 44.796875 25.796875 
Q 44.796875 21.09375 43.546875 17.4375 
Q 42.296875 13.796875 40.09375 11.34375 
Q 37.90625 8.90625 34.953125 7.59375 
Q 32 6.296875 28.703125 6.296875 
Q 25.40625 6.296875 22.453125 7.59375 
Q 19.5 8.90625 17.296875 11.34375 
Q 15.09375 13.796875 13.84375 17.4375 
Q 12.59375 21.09375 12.59375 25.796875 
z
M 3.59375 25.796875 
Q 3.59375 20.09375 5.1875 15.1875 
Q 6.796875 10.296875 10 6.640625 
Q 13.203125 3 17.890625 0.953125 
Q 22.59375 -1.09375 28.703125 -1.09375 
Q 34.90625 -1.09375 39.546875 0.953125 
Q 44.203125 3 47.390625 6.640625 
Q 50.59375 10.296875 52.1875 15.1875 
Q 53.796875 20.09375 53.796875 25.796875 
Q 53.796875 31.5 52.1875 36.453125 
Q 50.59375 41.40625 47.390625 45.046875 
Q 44.203125 48.703125 39.546875 50.796875 
Q 34.90625 52.90625 28.703125 52.90625 
Q 22.59375 52.90625 17.890625 50.796875 
Q 13.203125 48.703125 10 45.046875 
Q 6.796875 41.40625 5.1875 36.453125 
Q 3.59375 31.5 3.59375 25.796875 
z
" id="HelveticaNeue-111"/>
      <path d="M 15.40625 61 
L 15.40625 71.40625 
L 6.90625 71.40625 
L 6.90625 61 
z
M 6.90625 51.703125 
L 6.90625 0 
L 15.40625 0 
L 15.40625 51.703125 
z
" id="HelveticaNeue-105"/>
      <path d="M 6.703125 71.40625 
L 6.703125 0 
L 15.203125 0 
L 15.203125 6.90625 
L 15.40625 6.90625 
Q 16.796875 4.59375 18.84375 3.046875 
Q 20.90625 1.5 23.203125 0.59375 
Q 25.5 -0.296875 27.84375 -0.6875 
Q 30.203125 -1.09375 32.09375 -1.09375 
Q 38 -1.09375 42.453125 1 
Q 46.90625 3.09375 49.84375 6.75 
Q 52.796875 10.40625 54.25 15.296875 
Q 55.703125 20.203125 55.703125 25.703125 
Q 55.703125 31.203125 54.203125 36.09375 
Q 52.703125 41 49.75 44.75 
Q 46.796875 48.5 42.34375 50.703125 
Q 37.90625 52.90625 31.90625 52.90625 
Q 26.5 52.90625 22 50.953125 
Q 17.5 49 15.40625 44.703125 
L 15.203125 44.703125 
L 15.203125 71.40625 
z
M 46.703125 26.296875 
Q 46.703125 22.5 45.890625 18.890625 
Q 45.09375 15.296875 43.296875 12.5 
Q 41.5 9.703125 38.546875 8 
Q 35.59375 6.296875 31.203125 6.296875 
Q 26.796875 6.296875 23.6875 7.9375 
Q 20.59375 9.59375 18.640625 12.296875 
Q 16.703125 15 15.796875 18.546875 
Q 14.90625 22.09375 14.90625 25.90625 
Q 14.90625 29.5 15.75 33 
Q 16.59375 36.5 18.5 39.25 
Q 20.40625 42 23.40625 43.703125 
Q 26.40625 45.40625 30.703125 45.40625 
Q 34.796875 45.40625 37.84375 43.796875 
Q 40.90625 42.203125 42.84375 39.5 
Q 44.796875 36.796875 45.75 33.34375 
Q 46.703125 29.90625 46.703125 26.296875 
z
" id="HelveticaNeue-98"/>
      <path d="M 12.59375 25.796875 
Q 12.59375 30.5 13.84375 34.140625 
Q 15.09375 37.796875 17.296875 40.296875 
Q 19.5 42.796875 22.453125 44.09375 
Q 25.40625 45.40625 28.703125 45.40625 
Q 32 45.40625 34.953125 44.09375 
Q 37.90625 42.796875 40.09375 40.296875 
Q 42.296875 37.796875 43.546875 34.140625 
Q 44.796875 30.5 44.796875 25.796875 
Q 44.796875 21.09375 43.546875 17.4375 
Q 42.296875 13.796875 40.09375 11.34375 
Q 37.90625 8.90625 34.953125 7.59375 
Q 32 6.296875 28.703125 6.296875 
Q 25.40625 6.296875 22.453125 7.59375 
Q 19.5 8.90625 17.296875 11.34375 
Q 15.09375 13.796875 13.84375 17.4375 
Q 12.59375 21.09375 12.59375 25.796875 
z
M 3.59375 25.796875 
Q 3.59375 20.09375 5.1875 15.1875 
Q 6.796875 10.296875 10 6.640625 
Q 13.203125 3 17.890625 0.953125 
Q 22.59375 -1.09375 28.703125 -1.09375 
Q 34.90625 -1.09375 39.546875 0.953125 
Q 44.203125 3 47.390625 6.640625 
Q 50.59375 10.296875 52.1875 15.1875 
Q 53.796875 20.09375 53.796875 25.796875 
Q 53.796875 31.5 52.1875 36.453125 
Q 50.59375 41.40625 47.390625 45.046875 
Q 44.203125 48.703125 39.546875 50.796875 
Q 34.90625 52.90625 28.703125 52.90625 
Q 22.59375 52.90625 17.890625 50.796875 
Q 13.203125 48.703125 10 45.046875 
Q 6.796875 41.40625 5.1875 36.453125 
Q 3.59375 31.5 3.59375 25.796875 
z
M 42.5 77 
L 28.40625 60.796875 
L 22 60.796875 
L 31.59375 77 
z
" id="HelveticaNeue-243"/>
      <path id="HelveticaNeue-32"/>
      <path d="M 7.703125 78.59375 
L 7.703125 -21.296875 
L 14.5 -21.296875 
L 14.5 78.59375 
z
" id="HelveticaNeue-124"/>
      <path d="M 58 49.90625 
L 67.5 49.90625 
Q 66.703125 55.59375 64.09375 59.9375 
Q 61.5 64.296875 57.59375 67.1875 
Q 53.703125 70.09375 48.703125 71.59375 
Q 43.703125 73.09375 38.09375 73.09375 
Q 29.90625 73.09375 23.546875 70.140625 
Q 17.203125 67.203125 12.953125 62.09375 
Q 8.703125 57 6.5 50.140625 
Q 4.296875 43.296875 4.296875 35.5 
Q 4.296875 27.703125 6.34375 20.890625 
Q 8.40625 14.09375 12.5 9.09375 
Q 16.59375 4.09375 22.796875 1.25 
Q 29 -1.59375 37.296875 -1.59375 
Q 51 -1.59375 58.890625 5.90625 
Q 66.796875 13.40625 68.203125 26.90625 
L 58.703125 26.90625 
Q 58.40625 22.5 56.90625 18.703125 
Q 55.40625 14.90625 52.75 12.15625 
Q 50.09375 9.40625 46.4375 7.84375 
Q 42.796875 6.296875 38.09375 6.296875 
Q 31.703125 6.296875 27.09375 8.6875 
Q 22.5 11.09375 19.546875 15.140625 
Q 16.59375 19.203125 15.1875 24.640625 
Q 13.796875 30.09375 13.796875 36.203125 
Q 13.796875 41.796875 15.1875 47 
Q 16.59375 52.203125 19.546875 56.25 
Q 22.5 60.296875 27.046875 62.6875 
Q 31.59375 65.09375 38 65.09375 
Q 45.5 65.09375 50.953125 61.296875 
Q 56.40625 57.5 58 49.90625 
z
" id="HelveticaNeue-67"/>
      <path d="M 11.59375 16.296875 
L 3.09375 16.296875 
Q 3.296875 11.5 5.09375 8.140625 
Q 6.90625 4.796875 9.90625 2.75 
Q 12.90625 0.703125 16.796875 -0.1875 
Q 20.703125 -1.09375 25 -1.09375 
Q 28.90625 -1.09375 32.84375 -0.34375 
Q 36.796875 0.40625 39.9375 2.296875 
Q 43.09375 4.203125 45.046875 7.296875 
Q 47 10.40625 47 15.09375 
Q 47 18.796875 45.546875 21.296875 
Q 44.09375 23.796875 41.75 25.4375 
Q 39.40625 27.09375 36.34375 28.09375 
Q 33.296875 29.09375 30.09375 29.796875 
Q 27.09375 30.5 24.09375 31.140625 
Q 21.09375 31.796875 18.6875 32.75 
Q 16.296875 33.703125 14.75 35.140625 
Q 13.203125 36.59375 13.203125 38.796875 
Q 13.203125 40.796875 14.203125 42.046875 
Q 15.203125 43.296875 16.796875 44.046875 
Q 18.40625 44.796875 20.34375 45.09375 
Q 22.296875 45.40625 24.203125 45.40625 
Q 26.296875 45.40625 28.34375 44.953125 
Q 30.40625 44.5 32.09375 43.5 
Q 33.796875 42.5 34.890625 40.84375 
Q 36 39.203125 36.203125 36.703125 
L 44.703125 36.703125 
Q 44.40625 41.40625 42.703125 44.546875 
Q 41 47.703125 38.140625 49.546875 
Q 35.296875 51.40625 31.59375 52.15625 
Q 27.90625 52.90625 23.5 52.90625 
Q 20.09375 52.90625 16.640625 52.046875 
Q 13.203125 51.203125 10.453125 49.453125 
Q 7.703125 47.703125 5.953125 44.890625 
Q 4.203125 42.09375 4.203125 38.203125 
Q 4.203125 33.203125 6.703125 30.390625 
Q 9.203125 27.59375 12.953125 26.046875 
Q 16.703125 24.5 21.09375 23.640625 
Q 25.5 22.796875 29.25 21.75 
Q 33 20.703125 35.5 19 
Q 38 17.296875 38 14 
Q 38 11.59375 36.796875 10.046875 
Q 35.59375 8.5 33.75 7.703125 
Q 31.90625 6.90625 29.703125 6.59375 
Q 27.5 6.296875 25.5 6.296875 
Q 22.90625 6.296875 20.453125 6.796875 
Q 18 7.296875 16.046875 8.4375 
Q 14.09375 9.59375 12.890625 11.546875 
Q 11.703125 13.5 11.59375 16.296875 
z
" id="HelveticaNeue-115"/>
      <path d="M 29.703125 0 
L 48.59375 51.703125 
L 39.703125 51.703125 
L 25.59375 8.59375 
L 25.40625 8.59375 
L 10.90625 51.703125 
L 1.40625 51.703125 
L 20.59375 0 
z
" id="HelveticaNeue-118"/>
      <path d="M 19.40625 40.59375 
L 19.40625 51.703125 
L 8.296875 51.703125 
L 8.296875 40.59375 
z
M 8.296875 11.09375 
L 8.296875 0 
L 19.40625 0 
L 19.40625 11.09375 
z
" id="HelveticaNeue-58"/>
      <path d="M 5 31.796875 
L 5 23.796875 
L 33.90625 23.796875 
L 33.90625 31.796875 
z
" id="HelveticaNeue-45"/>
     </defs>
     <use xlink:href="#HelveticaNeue-70"/>
     <use x="57.399994" xlink:href="#HelveticaNeue-111"/>
     <use x="114.799988" xlink:href="#HelveticaNeue-110"/>
     <use x="170.399979" xlink:href="#HelveticaNeue-116"/>
     <use x="201.899963" xlink:href="#HelveticaNeue-105"/>
     <use x="224.09996" xlink:href="#HelveticaNeue-98"/>
     <use x="283.399948" xlink:href="#HelveticaNeue-243"/>
     <use x="340.799942" xlink:href="#HelveticaNeue-110"/>
     <use x="396.399933" xlink:href="#HelveticaNeue-32"/>
     <use x="424.199921" xlink:href="#HelveticaNeue-124"/>
     <use x="446.399918" xlink:href="#HelveticaNeue-32"/>
     <use x="474.199905" xlink:href="#HelveticaNeue-67"/>
     <use x="546.399887" xlink:href="#HelveticaNeue-97"/>
     <use x="600.099884" xlink:href="#HelveticaNeue-115"/>
     <use x="650.099869" xlink:href="#HelveticaNeue-111"/>
     <use x="707.499863" xlink:href="#HelveticaNeue-115"/>
     <use x="757.499847" xlink:href="#HelveticaNeue-32"/>
     <use x="785.299835" xlink:href="#HelveticaNeue-110"/>
     <use x="840.899826" xlink:href="#HelveticaNeue-117"/>
     <use x="896.499817" xlink:href="#HelveticaNeue-101"/>
     <use x="950.199814" xlink:href="#HelveticaNeue-118"/>
     <use x="1000.199799" xlink:href="#HelveticaNeue-111"/>
     <use x="1057.599792" xlink:href="#HelveticaNeue-115"/>
     <use x="1107.599777" xlink:href="#HelveticaNeue-58"/>
     <use x="1135.399765" xlink:href="#HelveticaNeue-32"/>
     <use x="1163.199753" xlink:href="#HelveticaNeue-50"/>
     <use x="1218.799744" xlink:href="#HelveticaNeue-48"/>
     <use x="1274.399734" xlink:href="#HelveticaNeue-50"/>
     <use x="1329.999725" xlink:href="#HelveticaNeue-49"/>
     <use x="1385.599716" xlink:href="#HelveticaNeue-45"/>
     <use x="1424.49971" xlink:href="#HelveticaNeue-48"/>
     <use x="1480.099701" xlink:href="#HelveticaNeue-54"/>
     <use x="1535.699692" xlink:href="#HelveticaNeue-45"/>
     <use x="1574.599686" xlink:href="#HelveticaNeue-49"/>
     <use x="1630.199677" xlink:href="#HelveticaNeue-49"/>
    </g>
   </g>
   <g id="legend_1">
    <g id="line2d_27">
     <path d="M 71.5 39.640625 
L 91.5 39.640625 
" style="fill:none;stroke:#000000;stroke-dasharray:1.5,2.475;stroke-dashoffset:0;stroke-opacity:0.5;stroke-width:1.5;"/>
    </g>
    <g id="line2d_28"/>
    <g id="text_15">
     <!-- Actual -->
     <g style="fill:#555555;" transform="translate(99.5 43.140625)scale(0.1 -0.1)">
      <use xlink:href="#HelveticaNeue-65"/>
      <use x="64.799988" xlink:href="#HelveticaNeue-99"/>
      <use x="118.499985" xlink:href="#HelveticaNeue-116"/>
      <use x="149.999969" xlink:href="#HelveticaNeue-117"/>
      <use x="205.59996" xlink:href="#HelveticaNeue-97"/>
      <use x="259.299957" xlink:href="#HelveticaNeue-108"/>
     </g>
    </g>
    <g id="line2d_29">
     <path d="M 71.5 54.310937 
L 91.5 54.310937 
" style="fill:none;stroke:#b3220f;stroke-linecap:square;stroke-width:1.5;"/>
    </g>
    <g id="line2d_30"/>
    <g id="text_16">
     <!-- Promedio semanal (7 das)  -->
     <g style="fill:#555555;" transform="translate(99.5 57.810937)scale(0.1 -0.1)">
      <defs>
       <path d="M 17.296875 37.203125 
L 17.296875 63.40625 
L 35.90625 63.40625 
Q 44 63.40625 47.75 60.046875 
Q 51.5 56.703125 51.5 50.296875 
Q 51.5 43.90625 47.75 40.5 
Q 44 37.09375 35.90625 37.203125 
z
M 7.796875 71.40625 
L 7.796875 0 
L 17.296875 0 
L 17.296875 29.203125 
L 39.09375 29.203125 
Q 49.90625 29.09375 55.453125 34.6875 
Q 61 40.296875 61 50.296875 
Q 61 60.296875 55.453125 65.84375 
Q 49.90625 71.40625 39.09375 71.40625 
z
" id="HelveticaNeue-80"/>
       <path d="M 6.40625 51.703125 
L 6.40625 0 
L 14.90625 0 
L 14.90625 32.203125 
Q 14.90625 33.703125 15.65625 35.953125 
Q 16.40625 38.203125 18.046875 40.296875 
Q 19.703125 42.40625 22.34375 43.90625 
Q 25 45.40625 28.703125 45.40625 
Q 31.59375 45.40625 33.4375 44.546875 
Q 35.296875 43.703125 36.390625 42.140625 
Q 37.5 40.59375 37.953125 38.5 
Q 38.40625 36.40625 38.40625 33.90625 
L 38.40625 0 
L 46.90625 0 
L 46.90625 32.203125 
Q 46.90625 38.203125 50.5 41.796875 
Q 54.09375 45.40625 60.40625 45.40625 
Q 63.5 45.40625 65.453125 44.5 
Q 67.40625 43.59375 68.5 42.046875 
Q 69.59375 40.5 70 38.390625 
Q 70.40625 36.296875 70.40625 33.90625 
L 70.40625 0 
L 78.90625 0 
L 78.90625 37.90625 
Q 78.90625 41.90625 77.65625 44.75 
Q 76.40625 47.59375 74.15625 49.390625 
Q 71.90625 51.203125 68.75 52.046875 
Q 65.59375 52.90625 61.703125 52.90625 
Q 56.59375 52.90625 52.34375 50.59375 
Q 48.09375 48.296875 45.5 44.09375 
Q 43.90625 48.90625 40 50.90625 
Q 36.09375 52.90625 31.296875 52.90625 
Q 20.40625 52.90625 14.59375 44.09375 
L 14.40625 44.09375 
L 14.40625 51.703125 
z
" id="HelveticaNeue-109"/>
       <path d="M 12.59375 25.40625 
Q 12.59375 29.203125 13.390625 32.796875 
Q 14.203125 36.40625 16 39.203125 
Q 17.796875 42 20.796875 43.703125 
Q 23.796875 45.40625 28.09375 45.40625 
Q 32.5 45.40625 35.59375 43.75 
Q 38.703125 42.09375 40.640625 39.390625 
Q 42.59375 36.703125 43.5 33.140625 
Q 44.40625 29.59375 44.40625 25.796875 
Q 44.40625 22.203125 43.546875 18.703125 
Q 42.703125 15.203125 40.796875 12.453125 
Q 38.90625 9.703125 35.90625 8 
Q 32.90625 6.296875 28.59375 6.296875 
Q 24.5 6.296875 21.453125 7.890625 
Q 18.40625 9.5 16.453125 12.203125 
Q 14.5 14.90625 13.546875 18.34375 
Q 12.59375 21.796875 12.59375 25.40625 
z
M 52.59375 0 
L 52.59375 71.40625 
L 44.09375 71.40625 
L 44.09375 44.796875 
L 43.90625 44.796875 
Q 42.5 47.09375 40.453125 48.640625 
Q 38.40625 50.203125 36.09375 51.140625 
Q 33.796875 52.09375 31.5 52.5 
Q 29.203125 52.90625 27.203125 52.90625 
Q 21.296875 52.90625 16.84375 50.75 
Q 12.40625 48.59375 9.453125 44.9375 
Q 6.5 41.296875 5.046875 36.390625 
Q 3.59375 31.5 3.59375 26 
Q 3.59375 20.5 5.09375 15.59375 
Q 6.59375 10.703125 9.546875 7 
Q 12.5 3.296875 16.953125 1.09375 
Q 21.40625 -1.09375 27.40625 -1.09375 
Q 32.796875 -1.09375 37.296875 0.796875 
Q 41.796875 2.703125 43.90625 7 
L 44.09375 7 
L 44.09375 0 
z
" id="HelveticaNeue-100"/>
       <path d="M 20.40625 -19.703125 
L 26.90625 -19.703125 
Q 19.796875 -8.203125 16.75 3.09375 
Q 13.703125 14.40625 13.703125 27 
Q 13.703125 39.296875 16.703125 50.5 
Q 19.703125 61.703125 26.90625 73.09375 
L 20.40625 73.09375 
Q 12.59375 62.796875 8.640625 50.796875 
Q 4.703125 38.796875 4.703125 27 
Q 4.703125 20.40625 5.796875 14.40625 
Q 6.90625 8.40625 8.953125 2.703125 
Q 11 -3 13.890625 -8.546875 
Q 16.796875 -14.09375 20.40625 -19.703125 
z
" id="HelveticaNeue-40"/>
       <path d="M 50.90625 62.40625 
L 50.90625 69.703125 
L 5 69.703125 
L 5 61.703125 
L 42.203125 61.703125 
Q 36.59375 55.796875 31.75 48.796875 
Q 26.90625 41.796875 23.203125 33.9375 
Q 19.5 26.09375 17.140625 17.546875 
Q 14.796875 9 14.203125 0 
L 23.703125 0 
Q 24.203125 8.296875 26.5 17.09375 
Q 28.796875 25.90625 32.4375 34.203125 
Q 36.09375 42.5 40.796875 49.796875 
Q 45.5 57.09375 50.90625 62.40625 
z
" id="HelveticaNeue-55"/>
       <path d="M 6.90625 0 
L 15.40625 0 
L 15.40625 51.703125 
L 6.90625 51.703125 
z
M 25.5 77 
L 11.40625 60.796875 
L 5 60.796875 
L 14.59375 77 
z
" id="HelveticaNeue-237"/>
       <path d="M -0.90625 -19.703125 
L 5.5 -19.703125 
Q 13.296875 -9.40625 17.25 2.546875 
Q 21.203125 14.5 21.203125 26.296875 
Q 21.203125 32.90625 20.09375 38.90625 
Q 19 44.90625 16.953125 50.65625 
Q 14.90625 56.40625 12 61.953125 
Q 9.09375 67.5 5.5 73.09375 
L -0.90625 73.09375 
Q 6.09375 61.59375 9.140625 50.25 
Q 12.203125 38.90625 12.203125 26.296875 
Q 12.203125 14.09375 9.203125 2.84375 
Q 6.203125 -8.40625 -0.90625 -19.703125 
z
" id="HelveticaNeue-41"/>
      </defs>
      <use xlink:href="#HelveticaNeue-80"/>
      <use x="64.799988" xlink:href="#HelveticaNeue-114"/>
      <use x="96.349976" xlink:href="#HelveticaNeue-111"/>
      <use x="153.749969" xlink:href="#HelveticaNeue-109"/>
      <use x="239.049957" xlink:href="#HelveticaNeue-101"/>
      <use x="292.749954" xlink:href="#HelveticaNeue-100"/>
      <use x="352.049942" xlink:href="#HelveticaNeue-105"/>
      <use x="374.249939" xlink:href="#HelveticaNeue-111"/>
      <use x="431.649933" xlink:href="#HelveticaNeue-32"/>
      <use x="459.449921" xlink:href="#HelveticaNeue-115"/>
      <use x="509.449905" xlink:href="#HelveticaNeue-101"/>
      <use x="563.149902" xlink:href="#HelveticaNeue-109"/>
      <use x="648.44989" xlink:href="#HelveticaNeue-97"/>
      <use x="702.149887" xlink:href="#HelveticaNeue-110"/>
      <use x="757.749878" xlink:href="#HelveticaNeue-97"/>
      <use x="811.449875" xlink:href="#HelveticaNeue-108"/>
      <use x="833.649872" xlink:href="#HelveticaNeue-32"/>
      <use x="861.44986" xlink:href="#HelveticaNeue-40"/>
      <use x="887.349854" xlink:href="#HelveticaNeue-55"/>
      <use x="942.949844" xlink:href="#HelveticaNeue-32"/>
      <use x="970.749832" xlink:href="#HelveticaNeue-100"/>
      <use x="1030.04982" xlink:href="#HelveticaNeue-237"/>
      <use x="1052.249817" xlink:href="#HelveticaNeue-97"/>
      <use x="1105.949814" xlink:href="#HelveticaNeue-115"/>
      <use x="1155.949799" xlink:href="#HelveticaNeue-41"/>
      <use x="1181.849792" xlink:href="#HelveticaNeue-32"/>
     </g>
    </g>
   </g>
  </g>
 </g>
 <defs>
  <clipPath id="p7b61953d57">
   <rect height="235.5" width="387.5" x="62.5" y="27"/>
  </clipPath>
 </defs>
</svg>
