<?xml version="1.0" encoding="utf-8" standalone="no"?>
<!DOCTYPE svg PUBLIC "-//W3C//DTD SVG 1.1//EN"
  "http://www.w3.org/Graphics/SVG/1.1/DTD/svg11.dtd">
<!-- Created with matplotlib (https://matplotlib.org/) -->
<svg height="300pt" version="1.1" viewBox="0 0 500 300" width="500pt" xmlns="http://www.w3.org/2000/svg" xmlns:xlink="http://www.w3.org/1999/xlink">
 <metadata>
  <rdf:RDF xmlns:cc="http://creativecommons.org/ns#" xmlns:dc="http://purl.org/dc/elements/1.1/" xmlns:rdf="http://www.w3.org/1999/02/22-rdf-syntax-ns#">
   <cc:Work>
    <dc:type rdf:resource="http://purl.org/dc/dcmitype/StillImage"/>
    <dc:date>2021-06-26T00:11:00.196256</dc:date>
    <dc:format>image/svg+xml</dc:format>
    <dc:creator>
     <cc:Agent>
      <dc:title>Matplotlib v3.3.4, https://matplotlib.org/</dc:title>
     </cc:Agent>
    </dc:creator>
   </cc:Work>
  </rdf:RDF>
 </metadata>
 <defs>
  <style type="text/css">*{stroke-linecap:butt;stroke-linejoin:round;}</style>
 </defs>
 <g id="figure_1">
  <g id="patch_1">
   <path d="M 0 300 
L 500 300 
L 500 0 
L 0 0 
z
" style="fill:#ffffff;"/>
  </g>
  <g id="axes_1">
   <g id="patch_2">
    <path d="M 62.5 262.5 
L 450 262.5 
L 450 36 
L 62.5 36 
z
" style="fill:#ffffff;"/>
   </g>
   <g id="matplotlib.axis_1">
    <g id="xtick_1">
     <g id="line2d_1">
      <defs>
       <path d="M 0 0 
L 0 3.5 
" id="m5c9bbc818d" style="stroke:#000000;stroke-width:0.8;"/>
      </defs>
      <g>
       <use style="stroke:#000000;stroke-width:0.8;" x="62.5" xlink:href="#m5c9bbc818d" y="262.5"/>
      </g>
     </g>
    </g>
    <g id="xtick_2">
     <g id="line2d_2">
      <g>
       <use style="stroke:#000000;stroke-width:0.8;" x="67.621145" xlink:href="#m5c9bbc818d" y="262.5"/>
      </g>
     </g>
     <g id="text_1">
      <!-- Apr -->
      <g transform="translate(59.721145 277)scale(0.1 -0.1)">
       <defs>
        <path d="M 47.015625 16.546875 
L 19.484375 16.546875 
L 13.71875 0 
L 0.875 0 
L 27.734375 71.09375 
L 38.8125 71.09375 
L 65.71875 0 
L 52.828125 0 
z
M 22.953125 26.515625 
L 43.5625 26.515625 
L 33.25 56 
z
" id="Roboto-Medium-65"/>
        <path d="M 52.34375 25.875 
Q 52.34375 13.625 46.78125 6.3125 
Q 41.21875 -0.984375 31.84375 -0.984375 
Q 23.140625 -0.984375 17.921875 4.734375 
L 17.921875 -20.3125 
L 6.0625 -20.3125 
L 6.0625 52.828125 
L 17 52.828125 
L 17.484375 47.46875 
Q 22.703125 53.8125 31.6875 53.8125 
Q 41.359375 53.8125 46.84375 46.609375 
Q 52.34375 39.40625 52.34375 26.609375 
z
M 40.53125 26.90625 
Q 40.53125 34.8125 37.375 39.453125 
Q 34.234375 44.09375 28.375 44.09375 
Q 21.09375 44.09375 17.921875 38.09375 
L 17.921875 14.65625 
Q 21.140625 8.5 28.46875 8.5 
Q 34.125 8.5 37.328125 13.0625 
Q 40.53125 17.625 40.53125 26.90625 
z
" id="Roboto-Medium-112"/>
        <path d="M 33.734375 42 
Q 31.390625 42.390625 28.90625 42.390625 
Q 20.75 42.390625 17.921875 36.140625 
L 17.921875 0 
L 6.0625 0 
L 6.0625 52.828125 
L 17.390625 52.828125 
L 17.671875 46.921875 
Q 21.96875 53.8125 29.59375 53.8125 
Q 32.125 53.8125 33.796875 53.125 
z
" id="Roboto-Medium-114"/>
       </defs>
       <use xlink:href="#Roboto-Medium-65"/>
       <use x="66.552734" xlink:href="#Roboto-Medium-112"/>
       <use x="122.851562" xlink:href="#Roboto-Medium-114"/>
      </g>
     </g>
    </g>
    <g id="xtick_3">
     <g id="line2d_3">
      <g>
       <use style="stroke:#000000;stroke-width:0.8;" x="145.29185" xlink:href="#m5c9bbc818d" y="262.5"/>
      </g>
     </g>
     <g id="text_2">
      <!-- Jul -->
      <g transform="translate(138.461381 277)scale(0.1 -0.1)">
       <defs>
        <path d="M 36.328125 71.09375 
L 48.640625 71.09375 
L 48.640625 21.234375 
Q 48.640625 11.03125 42.265625 5.015625 
Q 35.890625 -0.984375 25.4375 -0.984375 
Q 14.3125 -0.984375 8.25 4.625 
Q 2.203125 10.25 2.203125 20.265625 
L 14.5 20.265625 
Q 14.5 14.59375 17.3125 11.734375 
Q 20.125 8.890625 25.4375 8.890625 
Q 30.421875 8.890625 33.375 12.1875 
Q 36.328125 15.484375 36.328125 21.296875 
z
" id="Roboto-Medium-74"/>
        <path d="M 38.09375 5.171875 
Q 32.859375 -0.984375 23.25 -0.984375 
Q 14.65625 -0.984375 10.234375 4.046875 
Q 5.8125 9.078125 5.8125 18.609375 
L 5.8125 52.828125 
L 17.671875 52.828125 
L 17.671875 18.75 
Q 17.671875 8.6875 26.03125 8.6875 
Q 34.671875 8.6875 37.703125 14.890625 
L 37.703125 52.828125 
L 49.5625 52.828125 
L 49.5625 0 
L 38.375 0 
z
" id="Roboto-Medium-117"/>
        <path d="M 18.703125 0 
L 6.84375 0 
L 6.84375 75 
L 18.703125 75 
z
" id="Roboto-Medium-108"/>
       </defs>
       <use xlink:href="#Roboto-Medium-74"/>
       <use x="55.517578" xlink:href="#Roboto-Medium-117"/>
       <use x="111.083984" xlink:href="#Roboto-Medium-108"/>
      </g>
     </g>
    </g>
    <g id="xtick_4">
     <g id="line2d_4">
      <g>
       <use style="stroke:#000000;stroke-width:0.8;" x="223.816079" xlink:href="#m5c9bbc818d" y="262.5"/>
      </g>
     </g>
     <g id="text_3">
      <!-- Oct -->
      <g transform="translate(216.084048 277)scale(0.1 -0.1)">
       <defs>
        <path d="M 63.96875 33.6875 
Q 63.96875 23.25 60.34375 15.359375 
Q 56.734375 7.46875 50.015625 3.234375 
Q 43.3125 -0.984375 34.578125 -0.984375 
Q 25.921875 -0.984375 19.15625 3.234375 
Q 12.40625 7.46875 8.71875 15.28125 
Q 5.03125 23.09375 4.984375 33.296875 
L 4.984375 37.3125 
Q 4.984375 47.703125 8.671875 55.65625 
Q 12.359375 63.625 19.0625 67.84375 
Q 25.78125 72.078125 34.46875 72.078125 
Q 43.171875 72.078125 49.875 67.890625 
Q 56.59375 63.71875 60.25 55.875 
Q 63.921875 48.046875 63.96875 37.640625 
z
M 51.609375 37.40625 
Q 51.609375 49.21875 47.140625 55.515625 
Q 42.671875 61.8125 34.46875 61.8125 
Q 26.46875 61.8125 21.953125 55.53125 
Q 17.4375 49.265625 17.328125 37.796875 
L 17.328125 33.6875 
Q 17.328125 21.96875 21.890625 15.578125 
Q 26.46875 9.1875 34.578125 9.1875 
Q 42.78125 9.1875 47.1875 15.4375 
Q 51.609375 21.6875 51.609375 33.6875 
z
" id="Roboto-Medium-79"/>
        <path d="M 27.78125 8.5 
Q 32.234375 8.5 35.15625 11.078125 
Q 38.09375 13.671875 38.28125 17.484375 
L 49.46875 17.484375 
Q 49.265625 12.546875 46.375 8.265625 
Q 43.5 4 38.5625 1.5 
Q 33.640625 -0.984375 27.9375 -0.984375 
Q 16.84375 -0.984375 10.34375 6.1875 
Q 3.859375 13.375 3.859375 26.03125 
L 3.859375 27.25 
Q 3.859375 39.3125 10.296875 46.5625 
Q 16.75 53.8125 27.875 53.8125 
Q 37.3125 53.8125 43.234375 48.3125 
Q 49.171875 42.828125 49.46875 33.890625 
L 38.28125 33.890625 
Q 38.09375 38.421875 35.1875 41.34375 
Q 32.28125 44.28125 27.78125 44.28125 
Q 22.015625 44.28125 18.890625 40.109375 
Q 15.765625 35.9375 15.71875 27.4375 
L 15.71875 25.53125 
Q 15.71875 16.9375 18.8125 12.71875 
Q 21.921875 8.5 27.78125 8.5 
z
" id="Roboto-Medium-99"/>
        <path d="M 20.953125 65.671875 
L 20.953125 52.828125 
L 30.28125 52.828125 
L 30.28125 44.046875 
L 20.953125 44.046875 
L 20.953125 14.546875 
Q 20.953125 11.53125 22.140625 10.1875 
Q 23.34375 8.84375 26.421875 8.84375 
Q 28.46875 8.84375 30.5625 9.328125 
L 30.5625 0.140625 
Q 26.515625 -0.984375 22.75 -0.984375 
Q 9.078125 -0.984375 9.078125 14.109375 
L 9.078125 44.046875 
L 0.390625 44.046875 
L 0.390625 52.828125 
L 9.078125 52.828125 
L 9.078125 65.671875 
z
" id="Roboto-Medium-116"/>
       </defs>
       <use xlink:href="#Roboto-Medium-79"/>
       <use x="69.042969" xlink:href="#Roboto-Medium-99"/>
       <use x="121.386719" xlink:href="#Roboto-Medium-116"/>
      </g>
     </g>
    </g>
    <g id="xtick_5">
     <g id="line2d_5">
      <g>
       <use style="stroke:#000000;stroke-width:0.8;" x="302.340308" xlink:href="#m5c9bbc818d" y="262.5"/>
      </g>
     </g>
     <g id="text_4">
      <!-- Jan -->
      <g transform="translate(294.07859 277)scale(0.1 -0.1)">
       <defs>
        <path d="M 37.640625 0 
Q 36.859375 1.515625 36.28125 4.9375 
Q 30.609375 -0.984375 22.40625 -0.984375 
Q 14.453125 -0.984375 9.421875 3.5625 
Q 4.390625 8.109375 4.390625 14.796875 
Q 4.390625 23.25 10.65625 27.765625 
Q 16.9375 32.28125 28.609375 32.28125 
L 35.890625 32.28125 
L 35.890625 35.75 
Q 35.890625 39.84375 33.59375 42.3125 
Q 31.296875 44.78125 26.609375 44.78125 
Q 22.5625 44.78125 19.96875 42.75 
Q 17.390625 40.71875 17.390625 37.59375 
L 5.515625 37.59375 
Q 5.515625 41.9375 8.390625 45.71875 
Q 11.28125 49.515625 16.234375 51.65625 
Q 21.1875 53.8125 27.296875 53.8125 
Q 36.578125 53.8125 42.09375 49.140625 
Q 47.609375 44.484375 47.75 36.03125 
L 47.75 12.203125 
Q 47.75 5.078125 49.75 0.828125 
L 49.75 0 
z
M 24.609375 8.546875 
Q 28.125 8.546875 31.21875 10.25 
Q 34.328125 11.96875 35.890625 14.84375 
L 35.890625 24.8125 
L 29.5 24.8125 
Q 22.90625 24.8125 19.578125 22.515625 
Q 16.265625 20.21875 16.265625 16.015625 
Q 16.265625 12.59375 18.53125 10.5625 
Q 20.796875 8.546875 24.609375 8.546875 
z
" id="Roboto-Medium-97"/>
        <path d="M 17.09375 52.828125 
L 17.4375 46.734375 
Q 23.296875 53.8125 32.8125 53.8125 
Q 49.3125 53.8125 49.609375 34.90625 
L 49.609375 0 
L 37.75 0 
L 37.75 34.234375 
Q 37.75 39.265625 35.578125 41.671875 
Q 33.40625 44.09375 28.46875 44.09375 
Q 21.296875 44.09375 17.78125 37.59375 
L 17.78125 0 
L 5.90625 0 
L 5.90625 52.828125 
z
" id="Roboto-Medium-110"/>
       </defs>
       <use xlink:href="#Roboto-Medium-74"/>
       <use x="55.517578" xlink:href="#Roboto-Medium-97"/>
       <use x="109.619141" xlink:href="#Roboto-Medium-110"/>
      </g>
      <!-- 2021 -->
      <g transform="translate(290.971558 288.03125)scale(0.1 -0.1)">
       <defs>
        <path d="M 53.125 0 
L 5.328125 0 
L 5.328125 8.15625 
L 29 33.984375 
Q 34.125 39.703125 36.296875 43.53125 
Q 38.484375 47.359375 38.484375 51.21875 
Q 38.484375 56.296875 35.625 59.421875 
Q 32.765625 62.546875 27.9375 62.546875 
Q 22.171875 62.546875 19 59.03125 
Q 15.828125 55.515625 15.828125 49.421875 
L 3.953125 49.421875 
Q 3.953125 55.90625 6.90625 61.109375 
Q 9.859375 66.3125 15.34375 69.1875 
Q 20.84375 72.078125 28.03125 72.078125 
Q 38.375 72.078125 44.359375 66.875 
Q 50.34375 61.671875 50.34375 52.484375 
Q 50.34375 47.171875 47.34375 41.328125 
Q 44.34375 35.5 37.5 28.078125 
L 20.125 9.46875 
L 53.125 9.46875 
z
" id="Roboto-Medium-50"/>
        <path d="M 51.65625 29.9375 
Q 51.65625 14.59375 45.921875 6.796875 
Q 40.1875 -0.984375 28.46875 -0.984375 
Q 16.9375 -0.984375 11.109375 6.609375 
Q 5.28125 14.203125 5.125 29.109375 
L 5.125 41.40625 
Q 5.125 56.734375 10.859375 64.40625 
Q 16.609375 72.078125 28.375 72.078125 
Q 40.046875 72.078125 45.78125 64.59375 
Q 51.515625 57.125 51.65625 42.234375 
z
M 39.796875 43.21875 
Q 39.796875 53.21875 37.0625 57.875 
Q 34.328125 62.546875 28.375 62.546875 
Q 22.5625 62.546875 19.828125 58.125 
Q 17.09375 53.71875 16.9375 44.34375 
L 16.9375 28.21875 
Q 16.9375 18.265625 19.71875 13.375 
Q 22.515625 8.5 28.46875 8.5 
Q 34.1875 8.5 36.921875 13.015625 
Q 39.65625 17.53125 39.796875 27.15625 
z
" id="Roboto-Medium-48"/>
        <path d="M 37.453125 0 
L 25.640625 0 
L 25.640625 57.078125 
L 8.203125 51.125 
L 8.203125 61.140625 
L 35.9375 71.34375 
L 37.453125 71.34375 
z
" id="Roboto-Medium-49"/>
       </defs>
       <use xlink:href="#Roboto-Medium-50"/>
       <use x="56.835938" xlink:href="#Roboto-Medium-48"/>
       <use x="113.671875" xlink:href="#Roboto-Medium-50"/>
       <use x="170.507812" xlink:href="#Roboto-Medium-49"/>
      </g>
     </g>
    </g>
    <g id="xtick_6">
     <g id="line2d_6">
      <g>
       <use style="stroke:#000000;stroke-width:0.8;" x="379.157489" xlink:href="#m5c9bbc818d" y="262.5"/>
      </g>
     </g>
     <g id="text_5">
      <!-- Apr -->
      <g transform="translate(371.257489 277)scale(0.1 -0.1)">
       <use xlink:href="#Roboto-Medium-65"/>
       <use x="66.552734" xlink:href="#Roboto-Medium-112"/>
       <use x="122.851562" xlink:href="#Roboto-Medium-114"/>
      </g>
     </g>
    </g>
    <g id="xtick_7">
     <g id="line2d_7">
      <g>
       <use style="stroke:#000000;stroke-width:0.8;" x="450" xlink:href="#m5c9bbc818d" y="262.5"/>
      </g>
     </g>
    </g>
    <g id="xtick_8">
     <g id="line2d_8">
      <defs>
       <path d="M 0 0 
L 0 2 
" id="m7fad474ab2" style="stroke:#000000;stroke-width:0.6;"/>
      </defs>
      <g>
       <use style="stroke:#000000;stroke-width:0.6;" x="93.226872" xlink:href="#m7fad474ab2" y="262.5"/>
      </g>
     </g>
    </g>
    <g id="xtick_9">
     <g id="line2d_9">
      <g>
       <use style="stroke:#000000;stroke-width:0.6;" x="119.686123" xlink:href="#m7fad474ab2" y="262.5"/>
      </g>
     </g>
    </g>
    <g id="xtick_10">
     <g id="line2d_10">
      <g>
       <use style="stroke:#000000;stroke-width:0.6;" x="171.751101" xlink:href="#m7fad474ab2" y="262.5"/>
      </g>
     </g>
    </g>
    <g id="xtick_11">
     <g id="line2d_11">
      <g>
       <use style="stroke:#000000;stroke-width:0.6;" x="198.210352" xlink:href="#m7fad474ab2" y="262.5"/>
      </g>
     </g>
    </g>
    <g id="xtick_12">
     <g id="line2d_12">
      <g>
       <use style="stroke:#000000;stroke-width:0.6;" x="250.27533" xlink:href="#m7fad474ab2" y="262.5"/>
      </g>
     </g>
    </g>
    <g id="xtick_13">
     <g id="line2d_13">
      <g>
       <use style="stroke:#000000;stroke-width:0.6;" x="275.881057" xlink:href="#m7fad474ab2" y="262.5"/>
      </g>
     </g>
    </g>
    <g id="xtick_14">
     <g id="line2d_14">
      <g>
       <use style="stroke:#000000;stroke-width:0.6;" x="328.799559" xlink:href="#m7fad474ab2" y="262.5"/>
      </g>
     </g>
    </g>
    <g id="xtick_15">
     <g id="line2d_15">
      <g>
       <use style="stroke:#000000;stroke-width:0.6;" x="352.698238" xlink:href="#m7fad474ab2" y="262.5"/>
      </g>
     </g>
    </g>
    <g id="xtick_16">
     <g id="line2d_16">
      <g>
       <use style="stroke:#000000;stroke-width:0.6;" x="404.763216" xlink:href="#m7fad474ab2" y="262.5"/>
      </g>
     </g>
    </g>
    <g id="xtick_17">
     <g id="line2d_17">
      <g>
       <use style="stroke:#000000;stroke-width:0.6;" x="431.222467" xlink:href="#m7fad474ab2" y="262.5"/>
      </g>
     </g>
    </g>
    <g id="text_6">
     <!-- fecha -->
     <g transform="translate(243.774219 301.5625)scale(0.1 -0.1)">
      <defs>
       <path d="M 11.28125 0 
L 11.28125 45.84375 
L 2.9375 45.84375 
L 2.9375 52.828125 
L 11.28125 52.828125 
L 11.28125 58.25 
Q 11.28125 66.75 15.8125 71.390625 
Q 20.359375 76.03125 28.65625 76.03125 
Q 31.78125 76.03125 34.859375 75.203125 
L 34.375 67.875 
Q 32.078125 68.3125 29.5 68.3125 
Q 25.09375 68.3125 22.703125 65.75 
Q 20.3125 63.1875 20.3125 58.40625 
L 20.3125 52.828125 
L 31.59375 52.828125 
L 31.59375 45.84375 
L 20.3125 45.84375 
L 20.3125 0 
z
" id="Roboto-Regular-102"/>
       <path d="M 28.765625 -0.984375 
Q 18.015625 -0.984375 11.28125 6.078125 
Q 4.546875 13.140625 4.546875 24.953125 
L 4.546875 26.609375 
Q 4.546875 34.46875 7.546875 40.640625 
Q 10.546875 46.828125 15.9375 50.3125 
Q 21.34375 53.8125 27.640625 53.8125 
Q 37.9375 53.8125 43.640625 47.015625 
Q 49.359375 40.234375 49.359375 27.59375 
L 49.359375 23.828125 
L 13.578125 23.828125 
Q 13.765625 16.015625 18.140625 11.203125 
Q 22.515625 6.390625 29.25 6.390625 
Q 34.03125 6.390625 37.34375 8.34375 
Q 40.671875 10.296875 43.171875 13.53125 
L 48.6875 9.234375 
Q 42.046875 -0.984375 28.765625 -0.984375 
z
M 27.640625 46.390625 
Q 22.171875 46.390625 18.453125 42.40625 
Q 14.75 38.421875 13.875 31.25 
L 40.328125 31.25 
L 40.328125 31.9375 
Q 39.9375 38.8125 36.609375 42.59375 
Q 33.296875 46.390625 27.640625 46.390625 
z
" id="Roboto-Regular-101"/>
       <path d="M 28.03125 6.390625 
Q 32.859375 6.390625 36.46875 9.3125 
Q 40.09375 12.25 40.484375 16.65625 
L 49.03125 16.65625 
Q 48.78125 12.109375 45.890625 8 
Q 43.015625 3.90625 38.203125 1.453125 
Q 33.40625 -0.984375 28.03125 -0.984375 
Q 17.234375 -0.984375 10.859375 6.21875 
Q 4.5 13.421875 4.5 25.921875 
L 4.5 27.4375 
Q 4.5 35.15625 7.328125 41.15625 
Q 10.15625 47.171875 15.453125 50.484375 
Q 20.75 53.8125 27.984375 53.8125 
Q 36.859375 53.8125 42.75 48.484375 
Q 48.640625 43.171875 49.03125 34.671875 
L 40.484375 34.671875 
Q 40.09375 39.796875 36.59375 43.09375 
Q 33.109375 46.390625 27.984375 46.390625 
Q 21.09375 46.390625 17.3125 41.421875 
Q 13.53125 36.46875 13.53125 27.09375 
L 13.53125 25.390625 
Q 13.53125 16.265625 17.28125 11.328125 
Q 21.046875 6.390625 28.03125 6.390625 
z
" id="Roboto-Regular-99"/>
       <path d="M 15.875 46.4375 
Q 21.875 53.8125 31.5 53.8125 
Q 48.25 53.8125 48.390625 34.90625 
L 48.390625 0 
L 39.359375 0 
L 39.359375 34.96875 
Q 39.3125 40.671875 36.75 43.40625 
Q 34.1875 46.140625 28.765625 46.140625 
Q 24.359375 46.140625 21.03125 43.796875 
Q 17.71875 41.453125 15.875 37.640625 
L 15.875 0 
L 6.84375 0 
L 6.84375 75 
L 15.875 75 
z
" id="Roboto-Regular-104"/>
       <path d="M 39.453125 0 
Q 38.671875 1.5625 38.1875 5.5625 
Q 31.890625 -0.984375 23.140625 -0.984375 
Q 15.328125 -0.984375 10.328125 3.4375 
Q 5.328125 7.859375 5.328125 14.65625 
Q 5.328125 22.90625 11.59375 27.46875 
Q 17.875 32.03125 29.25 32.03125 
L 38.03125 32.03125 
L 38.03125 36.1875 
Q 38.03125 40.921875 35.203125 43.71875 
Q 32.375 46.53125 26.859375 46.53125 
Q 22.015625 46.53125 18.75 44.09375 
Q 15.484375 41.65625 15.484375 38.1875 
L 6.390625 38.1875 
Q 6.390625 42.140625 9.203125 45.828125 
Q 12.015625 49.515625 16.8125 51.65625 
Q 21.625 53.8125 27.390625 53.8125 
Q 36.53125 53.8125 41.703125 49.234375 
Q 46.875 44.671875 47.078125 36.671875 
L 47.078125 12.359375 
Q 47.078125 5.078125 48.921875 0.78125 
L 48.921875 0 
z
M 24.46875 6.890625 
Q 28.71875 6.890625 32.515625 9.078125 
Q 36.328125 11.28125 38.03125 14.796875 
L 38.03125 25.640625 
L 30.953125 25.640625 
Q 14.359375 25.640625 14.359375 15.921875 
Q 14.359375 11.671875 17.1875 9.28125 
Q 20.015625 6.890625 24.46875 6.890625 
z
" id="Roboto-Regular-97"/>
      </defs>
      <use xlink:href="#Roboto-Regular-102"/>
      <use x="34.716797" xlink:href="#Roboto-Regular-101"/>
      <use x="87.695312" xlink:href="#Roboto-Regular-99"/>
      <use x="140.039062" xlink:href="#Roboto-Regular-104"/>
      <use x="195.117188" xlink:href="#Roboto-Regular-97"/>
     </g>
    </g>
   </g>
   <g id="matplotlib.axis_2">
    <g id="ytick_1">
     <g id="line2d_18">
      <defs>
       <path d="M 0 0 
L -3.5 0 
" id="m69e2de66e2" style="stroke:#000000;stroke-width:0.8;"/>
      </defs>
      <g>
       <use style="stroke:#000000;stroke-width:0.8;" x="62.5" xlink:href="#m69e2de66e2" y="252.360183"/>
      </g>
     </g>
     <g id="text_7">
      <!-- 0 -->
      <g transform="translate(49.815625 256.110183)scale(0.1 -0.1)">
       <use xlink:href="#Roboto-Medium-48"/>
      </g>
     </g>
    </g>
    <g id="ytick_2">
     <g id="line2d_19">
      <g>
       <use style="stroke:#000000;stroke-width:0.8;" x="62.5" xlink:href="#m69e2de66e2" y="221.232581"/>
      </g>
     </g>
     <g id="text_8">
      <!-- 200 -->
      <g transform="translate(38.446875 224.982581)scale(0.1 -0.1)">
       <use xlink:href="#Roboto-Medium-50"/>
       <use x="56.835938" xlink:href="#Roboto-Medium-48"/>
       <use x="113.671875" xlink:href="#Roboto-Medium-48"/>
      </g>
     </g>
    </g>
    <g id="ytick_3">
     <g id="line2d_20">
      <g>
       <use style="stroke:#000000;stroke-width:0.8;" x="62.5" xlink:href="#m69e2de66e2" y="190.104978"/>
      </g>
     </g>
     <g id="text_9">
      <!-- 400 -->
      <g transform="translate(38.446875 193.854978)scale(0.1 -0.1)">
       <defs>
        <path d="M 45.453125 25.34375 
L 54.296875 25.34375 
L 54.296875 15.828125 
L 45.453125 15.828125 
L 45.453125 0 
L 33.59375 0 
L 33.59375 15.828125 
L 2.875 15.828125 
L 2.546875 23.046875 
L 33.203125 71.09375 
L 45.453125 71.09375 
z
M 14.984375 25.34375 
L 33.59375 25.34375 
L 33.59375 55.03125 
L 32.71875 53.46875 
z
" id="Roboto-Medium-52"/>
       </defs>
       <use xlink:href="#Roboto-Medium-52"/>
       <use x="56.835938" xlink:href="#Roboto-Medium-48"/>
       <use x="113.671875" xlink:href="#Roboto-Medium-48"/>
      </g>
     </g>
    </g>
    <g id="ytick_4">
     <g id="line2d_21">
      <g>
       <use style="stroke:#000000;stroke-width:0.8;" x="62.5" xlink:href="#m69e2de66e2" y="158.977376"/>
      </g>
     </g>
     <g id="text_10">
      <!-- 600 -->
      <g transform="translate(38.446875 162.727376)scale(0.1 -0.1)">
       <defs>
        <path d="M 42.234375 71.4375 
L 42.234375 61.625 
L 40.765625 61.625 
Q 30.8125 61.46875 24.84375 56.140625 
Q 18.890625 50.828125 17.78125 41.0625 
Q 23.484375 47.078125 32.375 47.078125 
Q 41.796875 47.078125 47.234375 40.4375 
Q 52.6875 33.796875 52.6875 23.296875 
Q 52.6875 12.453125 46.3125 5.734375 
Q 39.9375 -0.984375 29.59375 -0.984375 
Q 18.953125 -0.984375 12.328125 6.875 
Q 5.71875 14.75 5.71875 27.484375 
L 5.71875 31.546875 
Q 5.71875 50.25 14.8125 60.84375 
Q 23.921875 71.4375 41.015625 71.4375 
z
M 29.5 37.5 
Q 25.59375 37.5 22.34375 35.296875 
Q 19.09375 33.109375 17.578125 29.4375 
L 17.578125 25.828125 
Q 17.578125 17.921875 20.890625 13.25 
Q 24.21875 8.59375 29.484375 8.59375 
Q 34.765625 8.59375 37.84375 12.546875 
Q 40.921875 16.5 40.921875 22.9375 
Q 40.921875 29.390625 37.796875 33.4375 
Q 34.671875 37.5 29.5 37.5 
z
" id="Roboto-Medium-54"/>
       </defs>
       <use xlink:href="#Roboto-Medium-54"/>
       <use x="56.835938" xlink:href="#Roboto-Medium-48"/>
       <use x="113.671875" xlink:href="#Roboto-Medium-48"/>
      </g>
     </g>
    </g>
    <g id="ytick_5">
     <g id="line2d_22">
      <g>
       <use style="stroke:#000000;stroke-width:0.8;" x="62.5" xlink:href="#m69e2de66e2" y="127.849773"/>
      </g>
     </g>
     <g id="text_11">
      <!-- 800 -->
      <g transform="translate(38.446875 131.599773)scale(0.1 -0.1)">
       <defs>
        <path d="M 50.09375 52.34375 
Q 50.09375 47.125 47.40625 43.046875 
Q 44.734375 38.96875 40.09375 36.625 
Q 45.65625 34.03125 48.65625 29.53125 
Q 51.65625 25.046875 51.65625 19.390625 
Q 51.65625 10.015625 45.3125 4.515625 
Q 38.96875 -0.984375 28.421875 -0.984375 
Q 17.828125 -0.984375 11.453125 4.53125 
Q 5.078125 10.0625 5.078125 19.390625 
Q 5.078125 25.09375 8.109375 29.640625 
Q 11.140625 34.1875 16.609375 36.625 
Q 12.015625 38.96875 9.34375 43.046875 
Q 6.6875 47.125 6.6875 52.34375 
Q 6.6875 61.421875 12.546875 66.75 
Q 18.40625 72.078125 28.375 72.078125 
Q 38.375 72.078125 44.234375 66.75 
Q 50.09375 61.421875 50.09375 52.34375 
z
M 39.796875 19.96875 
Q 39.796875 25.25 36.640625 28.484375 
Q 33.5 31.734375 28.3125 31.734375 
Q 23.140625 31.734375 20.03125 28.515625 
Q 16.9375 25.296875 16.9375 19.96875 
Q 16.9375 14.75 19.984375 11.625 
Q 23.046875 8.5 28.421875 8.5 
Q 33.796875 8.5 36.796875 11.515625 
Q 39.796875 14.546875 39.796875 19.96875 
z
M 38.28125 51.90625 
Q 38.28125 56.546875 35.59375 59.546875 
Q 32.90625 62.546875 28.359375 62.546875 
Q 23.828125 62.546875 21.1875 59.6875 
Q 18.5625 56.84375 18.5625 51.90625 
Q 18.5625 47.015625 21.21875 44.140625 
Q 23.875 41.265625 28.40625 41.265625 
Q 32.953125 41.265625 35.609375 44.140625 
Q 38.28125 47.015625 38.28125 51.90625 
z
" id="Roboto-Medium-56"/>
       </defs>
       <use xlink:href="#Roboto-Medium-56"/>
       <use x="56.835938" xlink:href="#Roboto-Medium-48"/>
       <use x="113.671875" xlink:href="#Roboto-Medium-48"/>
      </g>
     </g>
    </g>
    <g id="ytick_6">
     <g id="line2d_23">
      <g>
       <use style="stroke:#000000;stroke-width:0.8;" x="62.5" xlink:href="#m69e2de66e2" y="96.722171"/>
      </g>
     </g>
     <g id="text_12">
      <!-- 1000 -->
      <g transform="translate(32.7625 100.472171)scale(0.1 -0.1)">
       <use xlink:href="#Roboto-Medium-49"/>
       <use x="56.835938" xlink:href="#Roboto-Medium-48"/>
       <use x="113.671875" xlink:href="#Roboto-Medium-48"/>
       <use x="170.507812" xlink:href="#Roboto-Medium-48"/>
      </g>
     </g>
    </g>
    <g id="ytick_7">
     <g id="line2d_24">
      <g>
       <use style="stroke:#000000;stroke-width:0.8;" x="62.5" xlink:href="#m69e2de66e2" y="65.594568"/>
      </g>
     </g>
     <g id="text_13">
      <!-- 1200 -->
      <g transform="translate(32.7625 69.344568)scale(0.1 -0.1)">
       <use xlink:href="#Roboto-Medium-49"/>
       <use x="56.835938" xlink:href="#Roboto-Medium-50"/>
       <use x="113.671875" xlink:href="#Roboto-Medium-48"/>
       <use x="170.507812" xlink:href="#Roboto-Medium-48"/>
      </g>
     </g>
    </g>
   </g>
   <g id="line2d_25">
    <path clip-path="url(#p78969449d1)" d="M 63.353524 251.581993 
L 64.207048 251.115079 
L 65.060573 251.893269 
L 65.914097 252.048907 
L 66.767621 252.048907 
L 67.621145 251.581993 
L 68.47467 250.181251 
L 69.328194 250.181251 
L 70.181718 250.648165 
L 71.035242 252.204545 
L 71.888767 250.025613 
L 72.742291 250.492527 
L 73.595815 250.803803 
L 74.449339 250.648165 
L 75.302863 251.426355 
L 76.156388 252.048907 
L 77.009912 251.115079 
L 77.863436 251.270717 
L 78.71696 251.893269 
L 79.570485 251.426355 
L 80.424009 248.936147 
L 81.277533 249.091785 
L 82.131057 250.025613 
L 82.984581 249.558699 
L 83.838106 249.247423 
L 84.69163 250.959441 
L 85.545154 249.403061 
L 86.398678 250.648165 
L 87.252203 247.379767 
L 88.105727 245.356473 
L 88.959251 248.936147 
L 89.812775 249.091785 
L 90.6663 248.313595 
L 91.519824 250.959441 
L 92.373348 248.624871 
L 93.226872 250.025613 
L 94.080396 248.936147 
L 94.933921 248.780509 
L 95.787445 245.823387 
L 96.640969 243.800093 
L 97.494493 243.955731 
L 98.348018 240.842971 
L 100.055066 246.290301 
L 100.90859 243.644455 
L 101.762115 238.5084 
L 102.615639 246.757215 
L 103.469163 239.28659 
L 104.322687 239.442228 
L 105.176211 233.372346 
L 106.029736 240.842971 
L 106.88326 240.842971 
L 107.736784 248.780509 
L 108.590308 239.597866 
L 109.443833 242.243713 
L 110.297357 247.846681 
L 111.150881 235.551278 
L 112.004405 244.267007 
L 112.85793 243.333179 
L 113.711454 240.220418 
L 114.564978 234.773088 
L 115.418502 227.302463 
L 116.272026 222.477685 
L 117.125551 237.263296 
L 117.979075 239.28659 
L 118.832599 230.570862 
L 119.686123 238.041486 
L 120.539648 236.485106 
L 121.393172 232.438518 
L 122.246696 237.885848 
L 123.10022 238.197124 
L 123.953744 237.574572 
L 124.807269 236.796382 
L 125.660793 235.240002 
L 126.514317 228.236291 
L 127.367841 236.329468 
L 128.221366 242.866265 
L 129.07489 227.302463 
L 129.928414 227.925015 
L 130.781938 235.39564 
L 131.635463 231.193414 
L 132.488987 212.516852 
L 133.342511 222.322047 
L 134.196035 215.00706 
L 135.049559 224.656617 
L 135.903084 216.096526 
L 136.756608 228.391929 
L 137.610132 229.792672 
L 138.463656 237.574572 
L 139.317181 206.135694 
L 140.170705 235.706916 
L 141.024229 231.037776 
L 141.877753 234.150536 
L 142.731278 223.255875 
L 143.584802 237.418934 
L 144.438326 212.67249 
L 145.29185 232.749794 
L 146.145374 219.209287 
L 146.998899 227.146825 
L 147.852423 221.388219 
L 148.705947 226.835549 
L 149.559471 220.610029 
L 150.412996 202.244743 
L 151.26652 221.076943 
L 152.120044 217.964183 
L 152.973568 212.361214 
L 153.827093 218.586735 
L 154.680617 217.185993 
L 155.534141 218.431097 
L 156.387665 221.388219 
L 157.241189 213.761956 
L 158.094714 203.956761 
L 158.948238 214.073232 
L 159.801762 203.334209 
L 160.655286 205.046228 
L 161.508811 218.742373 
L 162.362335 175.475005 
L 163.215859 181.700526 
L 164.069383 197.575603 
L 164.922907 188.081684 
L 165.776432 193.684653 
L 166.629956 215.00706 
L 167.48348 179.210317 
L 168.337004 171.895331 
L 169.190529 178.587765 
L 170.044053 159.133014 
L 170.897577 167.070552 
L 171.751101 178.120851 
L 172.604626 208.314626 
L 173.45815 184.50201 
L 174.311674 152.284941 
L 176.018722 204.423676 
L 176.872247 187.61477 
L 177.725771 202.556019 
L 178.579295 189.015512 
L 179.432819 148.705267 
L 180.286344 174.541177 
L 181.139868 174.229901 
L 181.993392 163.802154 
L 182.846916 171.117141 
L 183.700441 157.732272 
L 184.553965 160.533756 
L 185.407489 151.662389 
L 186.261013 153.218769 
L 187.114537 189.793702 
L 187.968062 182.478716 
L 188.821586 168.160019 
L 189.67511 201.155277 
L 190.528634 175.008091 
L 192.235683 190.571892 
L 193.089207 215.78525 
L 193.942731 195.707947 
L 194.796256 181.700526 
L 195.64978 207.069522 
L 196.503304 214.22887 
L 197.356828 186.05839 
L 198.210352 187.61477 
L 199.063877 210.649196 
L 199.917401 203.178571 
L 200.770925 203.334209 
L 201.624449 221.388219 
L 202.477974 223.878427 
L 203.331498 190.72753 
L 204.185022 215.940888 
L 205.038546 221.388219 
L 205.89207 194.307205 
L 207.599119 224.967893 
L 208.452643 239.130952 
L 209.306167 217.185993 
L 210.159692 207.536436 
L 211.013216 210.33792 
L 211.86674 219.209287 
L 212.720264 215.940888 
L 213.573789 215.473974 
L 214.427313 228.080653 
L 215.280837 220.143115 
L 216.134361 215.629612 
L 216.987885 214.22887 
L 218.694934 220.454391 
L 219.548458 225.901721 
L 220.401982 232.594156 
L 221.255507 230.103948 
L 222.109031 214.851422 
L 222.962555 230.570862 
L 223.816079 219.364925 
L 224.669604 215.318336 
L 225.523128 220.143115 
L 226.376652 217.652907 
L 227.230176 219.209287 
L 228.0837 220.454391 
L 228.937225 225.746083 
L 229.790749 215.78525 
L 230.644273 214.851422 
L 232.351322 231.815966 
L 233.204846 228.080653 
L 234.05837 229.014482 
L 234.911894 226.679911 
L 235.765419 208.158988 
L 236.618943 220.610029 
L 237.472467 215.78525 
L 238.325991 235.084364 
L 239.179515 216.719079 
L 240.03304 212.049938 
L 240.886564 210.804834 
L 241.740088 215.940888 
L 242.593612 208.78154 
L 243.447137 226.212997 
L 244.300661 231.193414 
L 245.154185 215.940888 
L 246.007709 204.1124 
L 246.861233 212.828128 
L 247.714758 207.536436 
L 248.568282 214.22887 
L 249.421806 211.583024 
L 250.27533 218.742373 
L 251.128855 211.427386 
L 251.982379 213.761956 
L 252.835903 216.874717 
L 253.689427 224.967893 
L 254.542952 215.318336 
L 255.396476 214.22887 
L 256.25 227.146825 
L 257.103524 216.407803 
L 257.957048 218.275459 
L 258.810573 221.388219 
L 259.664097 215.162698 
L 260.517621 226.212997 
L 261.371145 226.991187 
L 262.22467 235.39564 
L 263.931718 199.287621 
L 264.785242 232.127242 
L 265.638767 217.808545 
L 266.492291 226.991187 
L 267.345815 215.162698 
L 268.199339 226.368635 
L 269.052863 213.761956 
L 269.906388 205.980056 
L 270.759912 208.470264 
L 271.613436 209.55973 
L 272.46696 201.622191 
L 273.320485 207.847712 
L 274.174009 226.212997 
L 275.027533 205.513142 
L 275.881057 212.516852 
L 276.734581 208.314626 
L 277.588106 222.010771 
L 278.44163 199.443259 
L 279.295154 203.645485 
L 280.148678 228.236291 
L 281.002203 207.069522 
L 281.855727 215.473974 
L 282.709251 195.085395 
L 283.562775 196.486137 
L 284.4163 195.707947 
L 285.269824 195.085395 
L 286.123348 201.933467 
L 286.976872 193.217739 
L 287.830396 180.144146 
L 288.683921 175.941919 
L 289.537445 187.303494 
L 290.390969 176.564471 
L 291.244493 188.548598 
L 292.098018 206.291332 
L 292.951542 183.256906 
L 293.805066 175.008091 
L 294.65859 176.720109 
L 295.512115 173.918625 
L 296.365639 218.431097 
L 297.219163 187.770408 
L 298.072687 175.630643 
L 299.779736 141.39028 
L 300.63326 143.413575 
L 302.340308 217.030355 
L 303.193833 181.38925 
L 304.047357 140.456452 
L 304.900881 165.047258 
L 305.754405 106.838642 
L 306.60793 116.955112 
L 307.461454 138.744434 
L 308.314978 153.685683 
L 309.168502 147.927077 
L 310.022026 192.128273 
L 310.875551 200.999639 
L 311.729075 115.243094 
L 312.582599 107.461194 
L 313.436123 141.545918 
L 314.289648 160.533756 
L 315.143172 136.098588 
L 315.996696 151.662389 
L 316.85022 149.639095 
L 317.703744 118.200216 
L 318.557269 173.607349 
L 319.410793 137.188054 
L 320.264317 176.875747 
L 321.117841 164.424706 
L 321.971366 192.595187 
L 322.82489 160.845032 
L 323.678414 184.346372 
L 324.531938 170.183313 
L 325.385463 201.155277 
L 326.238987 199.287621 
L 327.092511 211.583024 
L 327.946035 205.513142 
L 328.799559 204.268038 
L 329.653084 214.22887 
L 330.506608 207.692074 
L 331.360132 214.851422 
L 332.213656 214.695784 
L 333.067181 224.967893 
L 333.920705 230.882138 
L 334.774229 220.298753 
L 335.627753 220.143115 
L 336.481278 226.679911 
L 337.334802 224.812255 
L 338.188326 228.703206 
L 339.04185 229.94831 
L 339.895374 232.749794 
L 341.602423 224.656617 
L 342.455947 230.103948 
L 343.309471 229.325758 
L 344.162996 235.39564 
L 345.01652 238.5084 
L 345.870044 243.488817 
L 346.723568 236.640744 
L 347.577093 232.438518 
L 348.430617 235.240002 
L 349.284141 232.127242 
L 350.137665 238.664038 
L 350.991189 239.130952 
L 351.844714 238.197124 
L 352.698238 238.664038 
L 353.551762 229.94831 
L 354.405286 232.749794 
L 355.258811 236.018192 
L 356.112335 232.438518 
L 356.965859 236.485106 
L 358.672907 239.442228 
L 359.526432 243.177541 
L 360.379956 235.862554 
L 361.23348 233.372346 
L 362.087004 236.796382 
L 362.940529 241.465523 
L 363.794053 237.73021 
L 364.647577 238.197124 
L 365.501101 240.06478 
L 366.354626 233.83926 
L 367.20815 230.882138 
L 368.061674 230.415224 
L 368.915198 236.17383 
L 369.768722 233.06107 
L 370.622247 242.554989 
L 371.475771 229.325758 
L 372.329295 229.94831 
L 374.036344 223.100237 
L 374.889868 223.255875 
L 375.743392 236.640744 
L 376.596916 218.119821 
L 377.450441 219.209287 
L 378.303965 213.761956 
L 379.157489 226.057359 
L 380.011013 221.232581 
L 380.864537 220.298753 
L 381.718062 222.633323 
L 382.571586 206.44697 
L 383.42511 195.396671 
L 384.278634 191.350082 
L 385.132159 199.131983 
L 385.985683 189.482426 
L 386.839207 189.015512 
L 387.692731 189.17115 
L 388.546256 165.047258 
L 389.39978 163.33524 
L 390.253304 156.175892 
L 391.106828 173.762987 
L 391.960352 167.848743 
L 392.813877 172.517883 
L 393.667401 189.015512 
L 394.520925 153.218769 
L 395.374449 147.148887 
L 396.227974 170.183313 
L 397.081498 145.125593 
L 397.935022 161.467584 
L 398.788546 165.825448 
L 399.64207 167.537467 
L 400.495595 143.102298 
L 401.349119 145.748145 
L 402.202643 161.311946 
L 403.056167 166.759276 
L 403.909692 151.506751 
L 404.763216 166.448 
L 405.61674 177.342661 
L 406.470264 138.744434 
L 407.323789 139.522624 
L 408.177313 170.961503 
L 409.030837 130.651257 
L 409.884361 133.764018 
L 410.737885 165.202896 
L 411.59141 170.494589 
L 412.444934 144.036127 
L 413.298458 123.336271 
L 414.151982 165.981086 
L 415.005507 172.984797 
L 415.859031 164.269068 
L 416.712555 168.160019 
L 417.566079 174.696815 
L 418.419604 163.957792 
L 419.273128 141.701556 
L 420.126652 138.588796 
L 420.980176 122.713719 
L 421.8337 117.733302 
L 422.687225 146.215059 
L 423.540749 148.705267 
L 424.394273 109.795764 
L 425.247797 85.671872 
L 426.101322 94.076324 
L 426.954846 119.445321 
L 427.80837 114.77618 
L 428.661894 97.500361 
L 429.515419 153.063131 
L 430.368943 106.838642 
L 431.222467 46.295455 
L 432.075991 56.100649 
L 432.929515 46.918007 
L 433.78304 105.437899 
L 434.636564 83.804216 
L 435.490088 131.429448 
L 436.343612 102.792053 
L 437.197137 90.185374 
L 438.050661 97.967275 
L 438.904185 89.251546 
L 439.757709 110.262678 
L 440.611233 118.044578 
L 441.464758 131.896362 
L 442.318282 128.783601 
L 443.171806 93.765048 
L 444.02533 121.468615 
L 444.878855 79.913265 
L 445.732379 106.371727 
L 446.585903 109.795764 
L 447.439427 145.748145 
L 448.292952 154.930787 
L 449.146476 156.954082 
L 450 231.50469 
L 450 231.50469 
" style="fill:none;stroke:#000000;stroke-dasharray:1.5,2.475;stroke-dashoffset:0;stroke-opacity:0.5;stroke-width:1.5;"/>
   </g>
   <g id="line2d_26">
    <path clip-path="url(#p78969449d1)" d="M 62.5 251.426355 
L 64.207048 251.737631 
L 65.060573 251.737631 
L 71.035242 250.648165 
L 71.888767 250.803803 
L 72.742291 250.803803 
L 73.595815 250.959441 
L 74.449339 250.959441 
L 77.009912 251.426355 
L 77.863436 251.270717 
L 78.71696 250.959441 
L 79.570485 250.492527 
L 81.277533 249.869975 
L 82.984581 249.558699 
L 83.838106 249.869975 
L 84.69163 249.714337 
L 85.545154 249.091785 
L 86.398678 248.936147 
L 88.105727 248.313595 
L 88.959251 248.469233 
L 89.812775 248.469233 
L 90.6663 248.936147 
L 91.519824 249.247423 
L 92.373348 249.247423 
L 93.226872 248.936147 
L 94.080396 248.313595 
L 96.640969 244.889559 
L 97.494493 244.422645 
L 99.201542 243.177541 
L 100.055066 243.333179 
L 100.90859 242.866265 
L 101.762115 242.554989 
L 102.615639 241.154247 
L 103.469163 240.220418 
L 104.322687 239.753504 
L 105.176211 240.531694 
L 106.029736 240.220418 
L 106.88326 240.998609 
L 107.736784 242.243713 
L 108.590308 242.554989 
L 110.297357 242.866265 
L 111.150881 241.932437 
L 112.004405 241.309885 
L 112.85793 239.442228 
L 113.711454 236.17383 
L 114.564978 235.240002 
L 116.272026 232.594156 
L 117.125551 232.594156 
L 117.979075 233.372346 
L 118.832599 234.306174 
L 119.686123 235.862554 
L 120.539648 235.862554 
L 121.393172 236.018192 
L 122.246696 236.640744 
L 123.10022 236.485106 
L 123.953744 235.706916 
L 124.807269 235.706916 
L 125.660793 236.018192 
L 127.367841 233.83926 
L 129.07489 232.905432 
L 129.928414 230.882138 
L 130.781938 228.547568 
L 131.635463 224.967893 
L 132.488987 223.722789 
L 133.342511 221.855133 
L 134.196035 220.765667 
L 135.049559 221.076943 
L 135.903084 224.189703 
L 136.756608 223.567151 
L 137.610132 225.746083 
L 138.463656 226.524273 
L 139.317181 228.391929 
L 140.170705 228.080653 
L 141.024229 229.17012 
L 141.877753 227.302463 
L 142.731278 229.325758 
L 143.584802 227.302463 
L 144.438326 226.368635 
L 145.29185 224.812255 
L 146.145374 224.967893 
L 148.705947 220.143115 
L 149.559471 219.209287 
L 150.412996 217.185993 
L 151.26652 216.563441 
L 152.120044 215.629612 
L 152.973568 215.78525 
L 153.827093 217.808545 
L 154.680617 217.185993 
L 155.534141 215.940888 
L 156.387665 215.473974 
L 158.094714 211.271748 
L 158.948238 210.649196 
L 160.655286 201.622191 
L 161.508811 199.131983 
L 162.362335 195.241033 
L 163.215859 193.217739 
L 164.069383 193.840291 
L 164.922907 191.194444 
L 165.776432 191.194444 
L 166.629956 189.94934 
L 167.48348 184.657648 
L 168.337004 180.299784 
L 169.190529 176.564471 
L 170.044053 175.475005 
L 170.897577 177.342661 
L 171.751101 176.875747 
L 172.604626 177.187023 
L 173.45815 181.544888 
L 174.311674 183.568182 
L 175.165198 186.214028 
L 176.018722 185.902752 
L 176.872247 183.879458 
L 177.725771 184.968924 
L 178.579295 182.478716 
L 179.432819 176.564471 
L 180.286344 173.296073 
L 181.139868 168.315657 
L 181.993392 165.514172 
L 182.846916 164.89162 
L 183.700441 161.623222 
L 184.553965 162.55705 
L 185.407489 164.89162 
L 186.261013 166.292362 
L 187.114537 172.206607 
L 187.968062 175.786281 
L 189.67511 183.879458 
L 191.382159 189.793702 
L 192.235683 192.128273 
L 193.089207 193.529015 
L 193.942731 198.198155 
L 194.796256 198.976345 
L 196.503304 197.731241 
L 197.356828 198.665069 
L 198.210352 200.844001 
L 199.063877 202.711657 
L 199.917401 205.201866 
L 200.770925 207.22516 
L 201.624449 210.182282 
L 202.477974 211.583024 
L 203.331498 210.804834 
L 205.038546 210.804834 
L 205.89207 213.139404 
L 206.745595 217.030355 
L 207.599119 217.341631 
L 208.452643 216.874717 
L 209.306167 218.898011 
L 210.159692 218.431097 
L 211.013216 216.719079 
L 211.86674 215.78525 
L 212.720264 216.874717 
L 213.573789 218.275459 
L 214.427313 218.742373 
L 215.280837 218.431097 
L 216.134361 218.586735 
L 217.84141 220.143115 
L 218.694934 222.166409 
L 219.548458 223.100237 
L 220.401982 224.967893 
L 221.255507 225.279169 
L 222.109031 224.345341 
L 222.962555 222.944599 
L 223.816079 220.921305 
L 224.669604 219.676201 
L 225.523128 219.831839 
L 226.376652 219.364925 
L 227.230176 219.364925 
L 228.937225 219.676201 
L 231.497797 223.722789 
L 232.351322 224.656617 
L 234.05837 224.345341 
L 234.911894 222.788961 
L 235.765419 222.322047 
L 237.472467 219.676201 
L 238.325991 218.119821 
L 239.179515 218.431097 
L 240.03304 216.407803 
L 240.886564 216.563441 
L 241.740088 216.563441 
L 242.593612 217.341631 
L 244.300661 217.341631 
L 245.154185 215.78525 
L 246.007709 215.162698 
L 246.861233 212.983766 
L 247.714758 211.738662 
L 248.568282 211.738662 
L 249.421806 212.983766 
L 250.27533 213.606318 
L 251.128855 215.473974 
L 251.982379 216.096526 
L 252.835903 216.563441 
L 253.689427 217.808545 
L 254.542952 218.586735 
L 256.25 219.520563 
L 257.103524 218.586735 
L 257.957048 219.676201 
L 259.664097 222.477685 
L 260.517621 223.255875 
L 261.371145 221.699495 
L 262.22467 222.166409 
L 263.931718 221.232581 
L 264.785242 219.987477 
L 265.638767 219.520563 
L 266.492291 219.831839 
L 267.345815 219.987477 
L 268.199339 216.874717 
L 269.052863 215.00706 
L 269.906388 211.583024 
L 270.759912 209.871006 
L 272.46696 209.248454 
L 273.320485 210.33792 
L 274.174009 210.649196 
L 275.027533 212.205576 
L 275.881057 212.049938 
L 276.734581 211.11611 
L 277.588106 210.960472 
L 279.295154 211.8943 
L 280.148678 210.649196 
L 281.002203 207.847712 
L 281.855727 206.44697 
L 282.709251 203.956761 
L 283.562775 200.221449 
L 284.4163 198.353793 
L 285.269824 194.618481 
L 287.830396 186.83658 
L 288.683921 185.124562 
L 289.537445 185.435838 
L 290.390969 185.435838 
L 291.244493 185.747114 
L 292.098018 185.747114 
L 292.951542 183.879458 
L 293.805066 186.992218 
L 294.65859 186.992218 
L 296.365639 183.101268 
L 297.219163 178.587765 
L 298.072687 172.362245 
L 298.926211 169.249485 
L 299.779736 167.848743 
L 300.63326 169.249485 
L 301.486784 168.626933 
L 302.340308 170.494589 
L 303.193833 166.292362 
L 304.047357 159.133014 
L 305.754405 140.300814 
L 306.60793 136.565502 
L 307.461454 142.94666 
L 308.314978 150.572923 
L 309.168502 155.55334 
L 310.022026 155.397702 
L 310.875551 153.374407 
L 311.729075 150.884199 
L 312.582599 146.993249 
L 313.436123 142.012832 
L 314.289648 138.744434 
L 315.143172 140.456452 
L 315.996696 146.526335 
L 316.85022 146.059421 
L 317.703744 148.082715 
L 318.557269 152.129303 
L 319.410793 158.199186 
L 320.264317 162.090136 
L 321.117841 169.872037 
L 321.971366 170.961503 
L 322.82489 177.809575 
L 323.678414 181.077974 
L 324.531938 187.147856 
L 325.385463 191.038806 
L 326.238987 197.419965 
L 327.946035 206.44697 
L 328.799559 208.158988 
L 330.506608 212.049938 
L 331.360132 215.473974 
L 332.213656 218.275459 
L 333.067181 219.831839 
L 333.920705 222.166409 
L 335.627753 224.812255 
L 336.481278 225.434807 
L 337.334802 226.212997 
L 338.188326 227.613739 
L 339.04185 228.391929 
L 339.895374 228.858844 
L 340.748899 229.17012 
L 341.602423 229.792672 
L 342.455947 230.7265 
L 344.162996 234.306174 
L 345.01652 235.706916 
L 345.870044 236.485106 
L 347.577093 236.485106 
L 349.284141 235.862554 
L 350.137665 236.485106 
L 350.991189 236.485106 
L 351.844714 236.17383 
L 352.698238 236.17383 
L 353.551762 235.084364 
L 354.405286 234.61745 
L 355.258811 234.61745 
L 356.112335 235.084364 
L 356.965859 236.796382 
L 357.819383 237.574572 
L 358.672907 237.574572 
L 360.379956 238.197124 
L 362.940529 237.73021 
L 363.794053 237.73021 
L 364.647577 237.418934 
L 365.501101 236.17383 
L 367.20815 234.306174 
L 368.061674 234.61745 
L 368.915198 233.83926 
L 369.768722 233.683622 
L 370.622247 233.06107 
L 371.475771 231.815966 
L 372.329295 229.637034 
L 373.182819 229.17012 
L 374.036344 226.679911 
L 374.889868 225.434807 
L 375.743392 223.411513 
L 378.303965 221.543857 
L 380.011013 219.209287 
L 380.864537 216.407803 
L 381.718062 212.516852 
L 386.839207 184.657648 
L 387.692731 179.054679 
L 388.546256 174.385539 
L 389.39978 170.805865 
L 390.253304 168.471295 
L 391.106828 168.938209 
L 391.960352 168.938209 
L 392.813877 167.537467 
L 393.667401 167.848743 
L 394.520925 163.957792 
L 395.374449 161.77886 
L 396.227974 160.22248 
L 397.081498 158.354824 
L 397.935022 158.043548 
L 398.788546 157.576634 
L 399.64207 156.175892 
L 400.495595 157.732272 
L 401.349119 156.642806 
L 402.202643 156.954082 
L 403.056167 158.977376 
L 403.909692 159.599928 
L 404.763216 158.510462 
L 405.61674 158.354824 
L 406.470264 154.152597 
L 407.323789 150.884199 
L 408.177313 149.327819 
L 409.030837 149.016543 
L 409.884361 150.572923 
L 410.737885 149.172181 
L 411.59141 148.705267 
L 412.444934 153.063131 
L 413.298458 156.175892 
L 414.151982 157.420996 
L 415.005507 159.911204 
L 415.859031 163.646516 
L 416.712555 165.66981 
L 417.566079 161.77886 
L 419.273128 147.148887 
L 420.126652 141.701556 
L 420.980176 137.654968 
L 422.687225 126.293393 
L 423.540749 120.067873 
L 425.247797 114.153628 
L 426.101322 108.239384 
L 426.954846 109.173212 
L 427.80837 111.196506 
L 428.661894 108.083746 
L 429.515419 102.013863 
L 430.368943 90.49665 
L 431.222467 84.738044 
L 432.075991 80.224541 
L 432.929515 78.512523 
L 433.78304 82.247835 
L 434.636564 90.49665 
L 435.490088 96.877809 
L 436.343612 100.924397 
L 437.197137 100.613121 
L 438.050661 103.258967 
L 438.904185 104.348433 
L 439.757709 109.173212 
L 440.611233 111.819058 
L 441.464758 115.087456 
L 442.318282 113.842352 
L 443.171806 111.507782 
L 444.02533 108.706298 
L 444.878855 109.484488 
L 445.732379 113.99799 
L 446.585903 123.647547 
L 447.439427 139.522624 
L 448.292952 152.751855 
L 450 176.720109 
L 450 176.720109 
" style="fill:none;stroke:#b3220f;stroke-linecap:square;stroke-width:1.5;"/>
   </g>
   <g id="patch_3">
    <path d="M 62.5 262.5 
L 62.5 36 
" style="fill:none;stroke:#000000;stroke-linecap:square;stroke-linejoin:miter;stroke-width:0.8;"/>
   </g>
   <g id="patch_4">
    <path d="M 450 262.5 
L 450 36 
" style="fill:none;stroke:#000000;stroke-linecap:square;stroke-linejoin:miter;stroke-width:0.8;"/>
   </g>
   <g id="patch_5">
    <path d="M 62.5 262.5 
L 450 262.5 
" style="fill:none;stroke:#000000;stroke-linecap:square;stroke-linejoin:miter;stroke-width:0.8;"/>
   </g>
   <g id="patch_6">
    <path d="M 62.5 36 
L 450 36 
" style="fill:none;stroke:#000000;stroke-linecap:square;stroke-linejoin:miter;stroke-width:0.8;"/>
   </g>
   <g id="text_14">
    <!-- Kennedy | Casos nuevos: 2021-06-23 -->
    <g transform="translate(158.16875 30)scale(0.12 -0.12)">
     <defs>
      <path d="M 26.3125 33.0625 
L 17.625 24.03125 
L 17.625 0 
L 8.25 0 
L 8.25 71.09375 
L 17.625 71.09375 
L 17.625 35.9375 
L 49.21875 71.09375 
L 60.546875 71.09375 
L 32.5625 39.703125 
L 62.75 0 
L 51.515625 0 
z
" id="Roboto-Regular-75"/>
      <path d="M 15.375 52.828125 
L 15.671875 46.1875 
Q 21.734375 53.8125 31.5 53.8125 
Q 48.25 53.8125 48.390625 34.90625 
L 48.390625 0 
L 39.359375 0 
L 39.359375 34.96875 
Q 39.3125 40.671875 36.75 43.40625 
Q 34.1875 46.140625 28.765625 46.140625 
Q 24.359375 46.140625 21.03125 43.796875 
Q 17.71875 41.453125 15.875 37.640625 
L 15.875 0 
L 6.84375 0 
L 6.84375 52.828125 
z
" id="Roboto-Regular-110"/>
      <path d="M 4.640625 26.859375 
Q 4.640625 39.015625 10.390625 46.40625 
Q 16.15625 53.8125 25.484375 53.8125 
Q 34.765625 53.8125 40.1875 47.46875 
L 40.1875 75 
L 49.21875 75 
L 49.21875 0 
L 40.921875 0 
L 40.484375 5.671875 
Q 35.0625 -0.984375 25.390625 -0.984375 
Q 16.21875 -0.984375 10.421875 6.53125 
Q 4.640625 14.0625 4.640625 26.171875 
z
M 13.671875 25.828125 
Q 13.671875 16.84375 17.375 11.765625 
Q 21.09375 6.6875 27.640625 6.6875 
Q 36.234375 6.6875 40.1875 14.40625 
L 40.1875 38.671875 
Q 36.140625 46.140625 27.734375 46.140625 
Q 21.09375 46.140625 17.375 41.015625 
Q 13.671875 35.890625 13.671875 25.828125 
z
" id="Roboto-Regular-100"/>
      <path d="M 24.125 13.234375 
L 36.421875 52.828125 
L 46.09375 52.828125 
L 24.859375 -8.15625 
Q 19.921875 -21.34375 9.1875 -21.34375 
L 7.46875 -21.1875 
L 4.109375 -20.5625 
L 4.109375 -13.234375 
L 6.546875 -13.421875 
Q 11.140625 -13.421875 13.703125 -11.5625 
Q 16.265625 -9.71875 17.921875 -4.78125 
L 19.921875 0.59375 
L 1.078125 52.828125 
L 10.9375 52.828125 
z
" id="Roboto-Regular-121"/>
      <path id="Roboto-Regular-32"/>
      <path d="M 15.828125 -13.1875 
L 8.546875 -13.1875 
L 8.546875 71.09375 
L 15.828125 71.09375 
z
" id="Roboto-Regular-124"/>
      <path d="M 60.546875 22.5625 
Q 59.234375 11.28125 52.21875 5.140625 
Q 45.21875 -0.984375 33.59375 -0.984375 
Q 21 -0.984375 13.40625 8.046875 
Q 5.8125 17.09375 5.8125 32.234375 
L 5.8125 39.0625 
Q 5.8125 48.96875 9.34375 56.484375 
Q 12.890625 64.015625 19.375 68.046875 
Q 25.875 72.078125 34.421875 72.078125 
Q 45.75 72.078125 52.578125 65.75 
Q 59.421875 59.421875 60.546875 48.25 
L 51.125 48.25 
Q 49.90625 56.734375 45.828125 60.546875 
Q 41.75 64.359375 34.421875 64.359375 
Q 25.4375 64.359375 20.328125 57.71875 
Q 15.234375 51.078125 15.234375 38.8125 
L 15.234375 31.9375 
Q 15.234375 20.359375 20.0625 13.515625 
Q 24.90625 6.6875 33.59375 6.6875 
Q 41.40625 6.6875 45.578125 10.21875 
Q 49.75 13.765625 51.125 22.5625 
z
" id="Roboto-Regular-67"/>
      <path d="M 37.59375 14.015625 
Q 37.59375 17.671875 34.828125 19.703125 
Q 32.078125 21.734375 25.21875 23.1875 
Q 18.359375 24.65625 14.328125 26.703125 
Q 10.296875 28.765625 8.375 31.59375 
Q 6.453125 34.421875 6.453125 38.328125 
Q 6.453125 44.828125 11.9375 49.3125 
Q 17.4375 53.8125 25.984375 53.8125 
Q 34.96875 53.8125 40.546875 49.171875 
Q 46.140625 44.53125 46.140625 37.3125 
L 37.0625 37.3125 
Q 37.0625 41.015625 33.90625 43.703125 
Q 30.765625 46.390625 25.984375 46.390625 
Q 21.046875 46.390625 18.265625 44.234375 
Q 15.484375 42.09375 15.484375 38.625 
Q 15.484375 35.359375 18.0625 33.6875 
Q 20.65625 32.03125 27.421875 30.515625 
Q 34.1875 29 38.375 26.90625 
Q 42.578125 24.8125 44.59375 21.84375 
Q 46.625 18.890625 46.625 14.65625 
Q 46.625 7.5625 40.953125 3.28125 
Q 35.296875 -0.984375 26.265625 -0.984375 
Q 19.921875 -0.984375 15.03125 1.265625 
Q 10.15625 3.515625 7.390625 7.546875 
Q 4.640625 11.578125 4.640625 16.265625 
L 13.671875 16.265625 
Q 13.921875 11.71875 17.3125 9.046875 
Q 20.703125 6.390625 26.265625 6.390625 
Q 31.390625 6.390625 34.484375 8.46875 
Q 37.59375 10.546875 37.59375 14.015625 
z
" id="Roboto-Regular-115"/>
      <path d="M 4.4375 26.90625 
Q 4.4375 34.671875 7.484375 40.875 
Q 10.546875 47.078125 15.984375 50.4375 
Q 21.4375 53.8125 28.421875 53.8125 
Q 39.203125 53.8125 45.875 46.34375 
Q 52.546875 38.875 52.546875 26.46875 
L 52.546875 25.828125 
Q 52.546875 18.109375 49.578125 11.984375 
Q 46.625 5.859375 41.125 2.4375 
Q 35.640625 -0.984375 28.515625 -0.984375 
Q 17.78125 -0.984375 11.109375 6.484375 
Q 4.4375 13.96875 4.4375 26.265625 
z
M 13.53125 25.828125 
Q 13.53125 17.046875 17.609375 11.71875 
Q 21.6875 6.390625 28.515625 6.390625 
Q 35.40625 6.390625 39.453125 11.78125 
Q 43.5 17.1875 43.5 26.90625 
Q 43.5 35.59375 39.375 40.984375 
Q 35.25 46.390625 28.421875 46.390625 
Q 21.734375 46.390625 17.625 41.0625 
Q 13.53125 35.75 13.53125 25.828125 
z
" id="Roboto-Regular-111"/>
      <path d="M 39.453125 5.21875 
Q 34.1875 -0.984375 23.96875 -0.984375 
Q 15.53125 -0.984375 11.109375 3.921875 
Q 6.6875 8.84375 6.640625 18.453125 
L 6.640625 52.828125 
L 15.671875 52.828125 
L 15.671875 18.703125 
Q 15.671875 6.6875 25.4375 6.6875 
Q 35.796875 6.6875 39.203125 14.40625 
L 39.203125 52.828125 
L 48.25 52.828125 
L 48.25 0 
L 39.65625 0 
z
" id="Roboto-Regular-117"/>
      <path d="M 24.265625 12.25 
L 37.359375 52.828125 
L 46.578125 52.828125 
L 27.640625 0 
L 20.75 0 
L 1.609375 52.828125 
L 10.84375 52.828125 
z
" id="Roboto-Regular-118"/>
      <path d="M 6.546875 4.734375 
Q 6.546875 7.078125 7.9375 8.640625 
Q 9.328125 10.203125 12.109375 10.203125 
Q 14.890625 10.203125 16.328125 8.640625 
Q 17.78125 7.078125 17.78125 4.734375 
Q 17.78125 2.484375 16.328125 0.96875 
Q 14.890625 -0.53125 12.109375 -0.53125 
Q 9.328125 -0.53125 7.9375 0.96875 
Q 6.546875 2.484375 6.546875 4.734375 
z
M 6.59375 47.84375 
Q 6.59375 50.1875 7.984375 51.75 
Q 9.375 53.3125 12.15625 53.3125 
Q 14.9375 53.3125 16.375 51.75 
Q 17.828125 50.1875 17.828125 47.84375 
Q 17.828125 45.59375 16.375 44.078125 
Q 14.9375 42.578125 12.15625 42.578125 
Q 9.375 42.578125 7.984375 44.078125 
Q 6.59375 45.59375 6.59375 47.84375 
z
" id="Roboto-Regular-58"/>
      <path d="M 52.484375 0 
L 5.90625 0 
L 5.90625 6.5 
L 30.515625 33.84375 
Q 35.984375 40.046875 38.0625 43.921875 
Q 40.140625 47.796875 40.140625 51.953125 
Q 40.140625 57.515625 36.765625 61.078125 
Q 33.40625 64.65625 27.78125 64.65625 
Q 21.046875 64.65625 17.3125 60.8125 
Q 13.578125 56.984375 13.578125 50.140625 
L 4.546875 50.140625 
Q 4.546875 59.96875 10.859375 66.015625 
Q 17.1875 72.078125 27.78125 72.078125 
Q 37.703125 72.078125 43.453125 66.875 
Q 49.21875 61.671875 49.21875 53.03125 
Q 49.21875 42.53125 35.84375 28.03125 
L 16.796875 7.375 
L 52.484375 7.375 
z
" id="Roboto-Regular-50"/>
      <path d="M 50.484375 30.328125 
Q 50.484375 14.453125 45.0625 6.734375 
Q 39.65625 -0.984375 28.125 -0.984375 
Q 16.75 -0.984375 11.28125 6.5625 
Q 5.8125 14.109375 5.609375 29.109375 
L 5.609375 41.15625 
Q 5.609375 56.84375 11.03125 64.453125 
Q 16.453125 72.078125 28.03125 72.078125 
Q 39.5 72.078125 44.921875 64.71875 
Q 50.34375 57.375 50.484375 42.046875 
z
M 41.453125 42.671875 
Q 41.453125 54.15625 38.234375 59.40625 
Q 35.015625 64.65625 28.03125 64.65625 
Q 21.09375 64.65625 17.921875 59.421875 
Q 14.75 54.203125 14.65625 43.359375 
L 14.65625 28.90625 
Q 14.65625 17.390625 18 11.890625 
Q 21.34375 6.390625 28.125 6.390625 
Q 34.8125 6.390625 38.0625 11.5625 
Q 41.3125 16.75 41.453125 27.875 
z
" id="Roboto-Regular-48"/>
      <path d="M 35.59375 0 
L 26.515625 0 
L 26.515625 60.203125 
L 8.296875 53.515625 
L 8.296875 61.71875 
L 34.1875 71.4375 
L 35.59375 71.4375 
z
" id="Roboto-Regular-49"/>
      <path d="M 25.640625 26.515625 
L 1.8125 26.515625 
L 1.8125 33.890625 
L 25.640625 33.890625 
z
" id="Roboto-Regular-45"/>
      <path d="M 41.359375 71.140625 
L 41.359375 63.484375 
L 39.703125 63.484375 
Q 29.15625 63.28125 22.90625 57.21875 
Q 16.65625 51.171875 15.671875 40.1875 
Q 21.296875 46.625 31 46.625 
Q 40.28125 46.625 45.828125 40.078125 
Q 51.375 33.546875 51.375 23.1875 
Q 51.375 12.203125 45.390625 5.609375 
Q 39.40625 -0.984375 29.34375 -0.984375 
Q 19.140625 -0.984375 12.796875 6.859375 
Q 6.453125 14.703125 6.453125 27.046875 
L 6.453125 30.515625 
Q 6.453125 50.140625 14.8125 60.515625 
Q 23.1875 70.90625 39.75 71.140625 
z
M 29.5 39.109375 
Q 24.859375 39.109375 20.953125 36.328125 
Q 17.046875 33.546875 15.53125 29.34375 
L 15.53125 26.03125 
Q 15.53125 17.234375 19.484375 11.859375 
Q 23.4375 6.5 29.34375 6.5 
Q 35.453125 6.5 38.9375 10.984375 
Q 42.4375 15.484375 42.4375 22.75 
Q 42.4375 30.078125 38.890625 34.59375 
Q 35.359375 39.109375 29.5 39.109375 
z
" id="Roboto-Regular-54"/>
      <path d="M 19.046875 39.9375 
L 25.828125 39.9375 
Q 32.234375 40.046875 35.890625 43.3125 
Q 39.546875 46.578125 39.546875 52.15625 
Q 39.546875 64.65625 27.09375 64.65625 
Q 21.234375 64.65625 17.75 61.296875 
Q 14.265625 57.953125 14.265625 52.4375 
L 5.21875 52.4375 
Q 5.21875 60.890625 11.390625 66.484375 
Q 17.578125 72.078125 27.09375 72.078125 
Q 37.15625 72.078125 42.859375 66.75 
Q 48.578125 61.421875 48.578125 51.953125 
Q 48.578125 47.3125 45.578125 42.96875 
Q 42.578125 38.625 37.40625 36.46875 
Q 43.265625 34.625 46.453125 30.328125 
Q 49.65625 26.03125 49.65625 19.828125 
Q 49.65625 10.25 43.40625 4.625 
Q 37.15625 -0.984375 27.140625 -0.984375 
Q 17.140625 -0.984375 10.859375 4.4375 
Q 4.59375 9.859375 4.59375 18.75 
L 13.671875 18.75 
Q 13.671875 13.140625 17.328125 9.765625 
Q 21 6.390625 27.15625 6.390625 
Q 33.6875 6.390625 37.15625 9.8125 
Q 40.625 13.234375 40.625 19.625 
Q 40.625 25.828125 36.8125 29.140625 
Q 33.015625 32.46875 25.828125 32.5625 
L 19.046875 32.5625 
z
" id="Roboto-Regular-51"/>
     </defs>
     <use xlink:href="#Roboto-Regular-75"/>
     <use x="62.695312" xlink:href="#Roboto-Regular-101"/>
     <use x="115.673828" xlink:href="#Roboto-Regular-110"/>
     <use x="170.849609" xlink:href="#Roboto-Regular-110"/>
     <use x="226.025391" xlink:href="#Roboto-Regular-101"/>
     <use x="279.003906" xlink:href="#Roboto-Regular-100"/>
     <use x="335.400391" xlink:href="#Roboto-Regular-121"/>
     <use x="382.714844" xlink:href="#Roboto-Regular-32"/>
     <use x="407.470703" xlink:href="#Roboto-Regular-124"/>
     <use x="431.835938" xlink:href="#Roboto-Regular-32"/>
     <use x="456.591797" xlink:href="#Roboto-Regular-67"/>
     <use x="521.679688" xlink:href="#Roboto-Regular-97"/>
     <use x="576.074219" xlink:href="#Roboto-Regular-115"/>
     <use x="627.636719" xlink:href="#Roboto-Regular-111"/>
     <use x="684.667969" xlink:href="#Roboto-Regular-115"/>
     <use x="736.230469" xlink:href="#Roboto-Regular-32"/>
     <use x="760.986328" xlink:href="#Roboto-Regular-110"/>
     <use x="816.162109" xlink:href="#Roboto-Regular-117"/>
     <use x="871.289062" xlink:href="#Roboto-Regular-101"/>
     <use x="924.267578" xlink:href="#Roboto-Regular-118"/>
     <use x="972.705078" xlink:href="#Roboto-Regular-111"/>
     <use x="1029.736328" xlink:href="#Roboto-Regular-115"/>
     <use x="1081.298828" xlink:href="#Roboto-Regular-58"/>
     <use x="1105.517578" xlink:href="#Roboto-Regular-32"/>
     <use x="1130.273438" xlink:href="#Roboto-Regular-50"/>
     <use x="1186.425781" xlink:href="#Roboto-Regular-48"/>
     <use x="1242.578125" xlink:href="#Roboto-Regular-50"/>
     <use x="1298.730469" xlink:href="#Roboto-Regular-49"/>
     <use x="1354.882812" xlink:href="#Roboto-Regular-45"/>
     <use x="1382.470703" xlink:href="#Roboto-Regular-48"/>
     <use x="1438.623047" xlink:href="#Roboto-Regular-54"/>
     <use x="1494.775391" xlink:href="#Roboto-Regular-45"/>
     <use x="1522.363281" xlink:href="#Roboto-Regular-50"/>
     <use x="1578.515625" xlink:href="#Roboto-Regular-51"/>
    </g>
   </g>
   <g id="legend_1">
    <g id="patch_7">
     <path d="M 69.5 73.75625 
L 224.726562 73.75625 
Q 226.726562 73.75625 226.726562 71.75625 
L 226.726562 43 
Q 226.726562 41 224.726562 41 
L 69.5 41 
Q 67.5 41 67.5 43 
L 67.5 71.75625 
Q 67.5 73.75625 69.5 73.75625 
z
" style="fill:#ffffff;opacity:0.8;stroke:#cccccc;stroke-linejoin:miter;"/>
    </g>
    <g id="line2d_27">
     <path d="M 71.5 49 
L 91.5 49 
" style="fill:none;stroke:#000000;stroke-dasharray:1.5,2.475;stroke-dashoffset:0;stroke-opacity:0.5;stroke-width:1.5;"/>
    </g>
    <g id="line2d_28"/>
    <g id="text_15">
     <!-- Actual -->
     <g transform="translate(99.5 52.5)scale(0.1 -0.1)">
      <use xlink:href="#Roboto-Medium-65"/>
      <use x="66.552734" xlink:href="#Roboto-Medium-99"/>
      <use x="118.896484" xlink:href="#Roboto-Medium-116"/>
      <use x="152.148438" xlink:href="#Roboto-Medium-117"/>
      <use x="207.714844" xlink:href="#Roboto-Medium-97"/>
      <use x="261.816406" xlink:href="#Roboto-Medium-108"/>
     </g>
    </g>
    <g id="line2d_29">
     <path d="M 71.5 63.995313 
L 91.5 63.995313 
" style="fill:none;stroke:#b3220f;stroke-linecap:square;stroke-width:1.5;"/>
    </g>
    <g id="line2d_30"/>
    <g id="text_16">
     <!-- Promedio semanal (7 das)  -->
     <g transform="translate(99.5 67.495313)scale(0.1 -0.1)">
      <defs>
       <path d="M 19.578125 26.421875 
L 19.578125 0 
L 7.234375 0 
L 7.234375 71.09375 
L 34.421875 71.09375 
Q 46.34375 71.09375 53.34375 64.890625 
Q 60.359375 58.6875 60.359375 48.484375 
Q 60.359375 38.03125 53.484375 32.21875 
Q 46.625 26.421875 34.28125 26.421875 
z
M 19.578125 36.328125 
L 34.421875 36.328125 
Q 41.015625 36.328125 44.484375 39.421875 
Q 47.953125 42.53125 47.953125 48.390625 
Q 47.953125 54.15625 44.4375 57.59375 
Q 40.921875 61.03125 34.765625 61.140625 
L 19.578125 61.140625 
z
" id="Roboto-Medium-80"/>
       <path d="M 3.859375 26.90625 
Q 3.859375 34.671875 6.9375 40.890625 
Q 10.015625 47.125 15.578125 50.46875 
Q 21.140625 53.8125 28.375 53.8125 
Q 39.0625 53.8125 45.71875 46.921875 
Q 52.390625 40.046875 52.9375 28.65625 
L 52.984375 25.875 
Q 52.984375 18.0625 49.96875 11.90625 
Q 46.96875 5.765625 41.375 2.390625 
Q 35.796875 -0.984375 28.46875 -0.984375 
Q 17.28125 -0.984375 10.5625 6.46875 
Q 3.859375 13.921875 3.859375 26.3125 
z
M 15.71875 25.875 
Q 15.71875 17.71875 19.09375 13.109375 
Q 22.46875 8.5 28.46875 8.5 
Q 34.46875 8.5 37.8125 13.1875 
Q 41.15625 17.875 41.15625 26.90625 
Q 41.15625 34.90625 37.71875 39.59375 
Q 34.28125 44.28125 28.375 44.28125 
Q 22.5625 44.28125 19.140625 39.671875 
Q 15.71875 35.0625 15.71875 25.875 
z
" id="Roboto-Medium-111"/>
       <path d="M 17.234375 52.828125 
L 17.578125 47.3125 
Q 23.140625 53.8125 32.8125 53.8125 
Q 43.40625 53.8125 47.3125 45.703125 
Q 53.078125 53.8125 63.53125 53.8125 
Q 72.265625 53.8125 76.53125 48.96875 
Q 80.8125 44.140625 80.90625 34.71875 
L 80.90625 0 
L 69.046875 0 
L 69.046875 34.375 
Q 69.046875 39.40625 66.84375 41.75 
Q 64.65625 44.09375 59.578125 44.09375 
Q 55.515625 44.09375 52.953125 41.921875 
Q 50.390625 39.75 49.359375 36.234375 
L 49.421875 0 
L 37.546875 0 
L 37.546875 34.765625 
Q 37.3125 44.09375 28.03125 44.09375 
Q 20.90625 44.09375 17.921875 38.28125 
L 17.921875 0 
L 6.0625 0 
L 6.0625 52.828125 
z
" id="Roboto-Medium-109"/>
       <path d="M 29.34375 -0.984375 
Q 18.0625 -0.984375 11.046875 6.125 
Q 4.046875 13.234375 4.046875 25.046875 
L 4.046875 26.515625 
Q 4.046875 34.421875 7.09375 40.640625 
Q 10.15625 46.875 15.671875 50.34375 
Q 21.1875 53.8125 27.984375 53.8125 
Q 38.765625 53.8125 44.640625 46.921875 
Q 50.53125 40.046875 50.53125 27.4375 
L 50.53125 22.65625 
L 16.015625 22.65625 
Q 16.546875 16.109375 20.375 12.296875 
Q 24.21875 8.5 30.03125 8.5 
Q 38.1875 8.5 43.3125 15.09375 
L 49.703125 8.984375 
Q 46.53125 4.25 41.234375 1.625 
Q 35.9375 -0.984375 29.34375 -0.984375 
z
M 27.9375 44.28125 
Q 23.046875 44.28125 20.046875 40.859375 
Q 17.046875 37.453125 16.21875 31.34375 
L 38.8125 31.34375 
L 38.8125 32.234375 
Q 38.421875 38.1875 35.640625 41.234375 
Q 32.859375 44.28125 27.9375 44.28125 
z
" id="Roboto-Medium-101"/>
       <path d="M 3.859375 26.8125 
Q 3.859375 39.015625 9.515625 46.40625 
Q 15.1875 53.8125 24.703125 53.8125 
Q 33.109375 53.8125 38.28125 47.953125 
L 38.28125 75 
L 50.140625 75 
L 50.140625 0 
L 39.40625 0 
L 38.8125 5.46875 
Q 33.5 -0.984375 24.609375 -0.984375 
Q 15.328125 -0.984375 9.59375 6.484375 
Q 3.859375 13.96875 3.859375 26.8125 
z
M 15.71875 25.78125 
Q 15.71875 17.71875 18.8125 13.203125 
Q 21.921875 8.6875 27.640625 8.6875 
Q 34.90625 8.6875 38.28125 15.1875 
L 38.28125 37.75 
Q 35.015625 44.09375 27.734375 44.09375 
Q 21.96875 44.09375 18.84375 39.53125 
Q 15.71875 34.96875 15.71875 25.78125 
z
" id="Roboto-Medium-100"/>
       <path d="M 18.703125 0 
L 6.84375 0 
L 6.84375 52.828125 
L 18.703125 52.828125 
z
M 6.109375 66.546875 
Q 6.109375 69.28125 7.84375 71.09375 
Q 9.578125 72.90625 12.796875 72.90625 
Q 16.015625 72.90625 17.765625 71.09375 
Q 19.53125 69.28125 19.53125 66.546875 
Q 19.53125 63.875 17.765625 62.078125 
Q 16.015625 60.296875 12.796875 60.296875 
Q 9.578125 60.296875 7.84375 62.078125 
Q 6.109375 63.875 6.109375 66.546875 
z
" id="Roboto-Medium-105"/>
       <path id="Roboto-Medium-32"/>
       <path d="M 35.6875 14.359375 
Q 35.6875 17.53125 33.078125 19.1875 
Q 30.46875 20.84375 24.40625 22.109375 
Q 18.359375 23.390625 14.3125 25.34375 
Q 5.421875 29.640625 5.421875 37.796875 
Q 5.421875 44.625 11.171875 49.21875 
Q 16.9375 53.8125 25.828125 53.8125 
Q 35.296875 53.8125 41.125 49.125 
Q 46.96875 44.4375 46.96875 36.96875 
L 35.109375 36.96875 
Q 35.109375 40.375 32.5625 42.640625 
Q 30.03125 44.921875 25.828125 44.921875 
Q 21.921875 44.921875 19.453125 43.109375 
Q 17 41.3125 17 38.28125 
Q 17 35.546875 19.28125 34.03125 
Q 21.578125 32.515625 28.5625 30.96875 
Q 35.546875 29.4375 39.515625 27.3125 
Q 43.5 25.203125 45.421875 22.21875 
Q 47.359375 19.234375 47.359375 14.984375 
Q 47.359375 7.859375 41.453125 3.4375 
Q 35.546875 -0.984375 25.984375 -0.984375 
Q 19.484375 -0.984375 14.40625 1.359375 
Q 9.328125 3.71875 6.484375 7.8125 
Q 3.65625 11.921875 3.65625 16.65625 
L 15.1875 16.65625 
Q 15.4375 12.453125 18.359375 10.171875 
Q 21.296875 7.90625 26.125 7.90625 
Q 30.8125 7.90625 33.25 9.6875 
Q 35.6875 11.46875 35.6875 14.359375 
z
" id="Roboto-Medium-115"/>
       <path d="M 6.25 28.90625 
Q 6.25 40.1875 9.28125 50.3125 
Q 12.3125 60.453125 18.171875 68.4375 
Q 24.03125 76.421875 30.5625 79.640625 
L 32.90625 72.703125 
Q 26.03125 67.484375 21.75 56.765625 
Q 17.484375 46.046875 17.09375 32.234375 
L 17.046875 28.03125 
Q 17.046875 13.234375 21.21875 1.625 
Q 25.390625 -9.96875 32.90625 -16.015625 
L 30.5625 -22.609375 
Q 24.03125 -19.390625 18.140625 -11.359375 
Q 12.25 -3.328125 9.25 6.75 
Q 6.25 16.84375 6.25 28.90625 
z
" id="Roboto-Medium-40"/>
       <path d="M 52.640625 64.5 
L 24.21875 0 
L 11.765625 0 
L 40.140625 61.578125 
L 3.375 61.578125 
L 3.375 71.09375 
L 52.640625 71.09375 
z
" id="Roboto-Medium-55"/>
       <path d="M 18.84375 0 
L 6.984375 0 
L 6.984375 52.828125 
L 18.84375 52.828125 
z
M 16.609375 74.65625 
L 30.125 74.65625 
L 16.609375 59.859375 
L 7.078125 59.859375 
z
" id="Roboto-Medium-237"/>
       <path d="M 28.953125 28.125 
Q 28.953125 17.28125 25.96875 7.203125 
Q 23 -2.875 16.9375 -11.15625 
Q 10.890625 -19.4375 4.296875 -22.609375 
L 1.953125 -16.015625 
Q 9.28125 -10.359375 13.546875 1.28125 
Q 17.828125 12.9375 17.828125 27.875 
L 17.828125 29 
Q 17.828125 42.578125 14.109375 53.734375 
Q 10.40625 64.890625 3.46875 71.625 
L 1.953125 73 
L 4.296875 79.640625 
Q 10.546875 76.609375 16.40625 68.890625 
Q 22.265625 61.1875 25.390625 51.640625 
Q 28.515625 42.09375 28.90625 31.9375 
z
" id="Roboto-Medium-41"/>
      </defs>
      <use xlink:href="#Roboto-Medium-80"/>
      <use x="63.916016" xlink:href="#Roboto-Medium-114"/>
      <use x="99.072266" xlink:href="#Roboto-Medium-111"/>
      <use x="156.005859" xlink:href="#Roboto-Medium-109"/>
      <use x="243.017578" xlink:href="#Roboto-Medium-101"/>
      <use x="296.679688" xlink:href="#Roboto-Medium-100"/>
      <use x="353.125" xlink:href="#Roboto-Medium-105"/>
      <use x="378.662109" xlink:href="#Roboto-Medium-111"/>
      <use x="435.595703" xlink:href="#Roboto-Medium-32"/>
      <use x="460.498047" xlink:href="#Roboto-Medium-115"/>
      <use x="512.109375" xlink:href="#Roboto-Medium-101"/>
      <use x="565.771484" xlink:href="#Roboto-Medium-109"/>
      <use x="652.783203" xlink:href="#Roboto-Medium-97"/>
      <use x="706.884766" xlink:href="#Roboto-Medium-110"/>
      <use x="762.5" xlink:href="#Roboto-Medium-97"/>
      <use x="816.601562" xlink:href="#Roboto-Medium-108"/>
      <use x="842.138672" xlink:href="#Roboto-Medium-32"/>
      <use x="867.041016" xlink:href="#Roboto-Medium-40"/>
      <use x="901.904297" xlink:href="#Roboto-Medium-55"/>
      <use x="958.740234" xlink:href="#Roboto-Medium-32"/>
      <use x="983.642578" xlink:href="#Roboto-Medium-100"/>
      <use x="1040.087891" xlink:href="#Roboto-Medium-237"/>
      <use x="1066.357422" xlink:href="#Roboto-Medium-97"/>
      <use x="1120.458984" xlink:href="#Roboto-Medium-115"/>
      <use x="1172.070312" xlink:href="#Roboto-Medium-41"/>
      <use x="1207.324219" xlink:href="#Roboto-Medium-32"/>
     </g>
    </g>
   </g>
  </g>
 </g>
 <defs>
  <clipPath id="p78969449d1">
   <rect height="226.5" width="387.5" x="62.5" y="36"/>
  </clipPath>
 </defs>
</svg>
