<?xml version="1.0" encoding="utf-8" standalone="no"?>
<!DOCTYPE svg PUBLIC "-//W3C//DTD SVG 1.1//EN"
  "http://www.w3.org/Graphics/SVG/1.1/DTD/svg11.dtd">
<!-- Created with matplotlib (https://matplotlib.org/) -->
<svg height="300pt" version="1.1" viewBox="0 0 500 300" width="500pt" xmlns="http://www.w3.org/2000/svg" xmlns:xlink="http://www.w3.org/1999/xlink">
 <metadata>
  <rdf:RDF xmlns:cc="http://creativecommons.org/ns#" xmlns:dc="http://purl.org/dc/elements/1.1/" xmlns:rdf="http://www.w3.org/1999/02/22-rdf-syntax-ns#">
   <cc:Work>
    <dc:type rdf:resource="http://purl.org/dc/dcmitype/StillImage"/>
    <dc:date>2021-06-20T18:25:02.508028</dc:date>
    <dc:format>image/svg+xml</dc:format>
    <dc:creator>
     <cc:Agent>
      <dc:title>Matplotlib v3.3.4, https://matplotlib.org/</dc:title>
     </cc:Agent>
    </dc:creator>
   </cc:Work>
  </rdf:RDF>
 </metadata>
 <defs>
  <style type="text/css">*{stroke-linecap:butt;stroke-linejoin:round;}</style>
 </defs>
 <g id="figure_1">
  <g id="patch_1">
   <path d="M 0 300 
L 500 300 
L 500 0 
L 0 0 
z
" style="fill:#ffffff;"/>
  </g>
  <g id="axes_1">
   <g id="patch_2">
    <path d="M 62.5 262.5 
L 450 262.5 
L 450 27 
L 62.5 27 
z
" style="fill:#ffffff;"/>
   </g>
   <g id="matplotlib.axis_1">
    <g id="xtick_1">
     <g id="line2d_1">
      <defs>
       <path d="M 0 0 
L 0 3.5 
" id="mc97110489b" style="stroke:#555555;stroke-width:0.8;"/>
      </defs>
      <g>
       <use style="fill:#555555;stroke:#555555;stroke-width:0.8;" x="62.5" xlink:href="#mc97110489b" y="262.5"/>
      </g>
     </g>
    </g>
    <g id="xtick_2">
     <g id="line2d_2">
      <g>
       <use style="fill:#555555;stroke:#555555;stroke-width:0.8;" x="67.678174" xlink:href="#mc97110489b" y="262.5"/>
      </g>
     </g>
     <g id="text_1">
      <!-- Apr -->
      <g style="fill:#555555;" transform="translate(59.808642 276.640625)scale(0.1 -0.1)">
       <defs>
        <path d="M 20.09375 29.5 
L 32.203125 62.796875 
L 32.40625 62.796875 
L 44.296875 29.5 
z
M 27.203125 71.40625 
L -0.59375 0 
L 9.09375 0 
L 17.09375 21.5 
L 47.296875 21.5 
L 55.09375 0 
L 65.59375 0 
L 37.703125 71.40625 
z
" id="HelveticaNeue-65"/>
        <path d="M 6.703125 51.703125 
L 6.703125 -19.703125 
L 15.203125 -19.703125 
L 15.203125 6.90625 
L 15.40625 6.90625 
Q 16.796875 4.59375 18.84375 3.046875 
Q 20.90625 1.5 23.203125 0.59375 
Q 25.5 -0.296875 27.84375 -0.6875 
Q 30.203125 -1.09375 32.09375 -1.09375 
Q 38 -1.09375 42.453125 1 
Q 46.90625 3.09375 49.84375 6.75 
Q 52.796875 10.40625 54.25 15.296875 
Q 55.703125 20.203125 55.703125 25.703125 
Q 55.703125 31.203125 54.203125 36.09375 
Q 52.703125 41 49.75 44.75 
Q 46.796875 48.5 42.34375 50.703125 
Q 37.90625 52.90625 31.90625 52.90625 
Q 26.5 52.90625 22 50.953125 
Q 17.5 49 15.40625 44.703125 
L 15.203125 44.703125 
L 15.203125 51.703125 
z
M 46.703125 26.296875 
Q 46.703125 22.5 45.890625 18.890625 
Q 45.09375 15.296875 43.296875 12.5 
Q 41.5 9.703125 38.546875 8 
Q 35.59375 6.296875 31.203125 6.296875 
Q 26.796875 6.296875 23.6875 7.9375 
Q 20.59375 9.59375 18.640625 12.296875 
Q 16.703125 15 15.796875 18.546875 
Q 14.90625 22.09375 14.90625 25.90625 
Q 14.90625 29.5 15.75 33 
Q 16.59375 36.5 18.5 39.25 
Q 20.40625 42 23.40625 43.703125 
Q 26.40625 45.40625 30.703125 45.40625 
Q 34.796875 45.40625 37.84375 43.796875 
Q 40.90625 42.203125 42.84375 39.5 
Q 44.796875 36.796875 45.75 33.34375 
Q 46.703125 29.90625 46.703125 26.296875 
z
" id="HelveticaNeue-112"/>
        <path d="M 6.09375 51.703125 
L 6.09375 0 
L 14.59375 0 
L 14.59375 23 
Q 14.59375 28 15.59375 31.84375 
Q 16.59375 35.703125 18.796875 38.390625 
Q 21 41.09375 24.59375 42.5 
Q 28.203125 43.90625 33.296875 43.90625 
L 33.296875 52.90625 
Q 26.40625 53.09375 21.90625 50.09375 
Q 17.40625 47.09375 14.296875 40.796875 
L 14.09375 40.796875 
L 14.09375 51.703125 
z
" id="HelveticaNeue-114"/>
       </defs>
       <use xlink:href="#HelveticaNeue-65"/>
       <use x="64.799988" xlink:href="#HelveticaNeue-112"/>
       <use x="124.099976" xlink:href="#HelveticaNeue-114"/>
      </g>
     </g>
    </g>
    <g id="xtick_3">
     <g id="line2d_3">
      <g>
       <use style="fill:#555555;stroke:#555555;stroke-width:0.8;" x="146.213808" xlink:href="#mc97110489b" y="262.5"/>
      </g>
     </g>
     <g id="text_2">
      <!-- Jul -->
      <g style="fill:#555555;" transform="translate(139.728652 276.640625)scale(0.1 -0.1)">
       <defs>
        <path d="M 44.09375 17.796875 
L 44.09375 71.40625 
L 34.59375 71.40625 
L 34.59375 19.203125 
Q 34.59375 13.296875 32.140625 9.796875 
Q 29.703125 6.296875 23.203125 6.296875 
Q 19.703125 6.296875 17.453125 7.34375 
Q 15.203125 8.40625 13.953125 10.296875 
Q 12.703125 12.203125 12.203125 14.796875 
Q 11.703125 17.40625 11.703125 20.5 
L 11.703125 23.5 
L 2.203125 23.5 
L 2.203125 19.09375 
Q 2.203125 8.90625 7.59375 3.65625 
Q 13 -1.59375 23 -1.59375 
Q 29 -1.59375 33.046875 0.046875 
Q 37.09375 1.703125 39.546875 4.453125 
Q 42 7.203125 43.046875 10.703125 
Q 44.09375 14.203125 44.09375 17.796875 
z
" id="HelveticaNeue-74"/>
        <path d="M 49.203125 0 
L 49.203125 51.703125 
L 40.703125 51.703125 
L 40.703125 22.5 
Q 40.703125 19 39.75 16.046875 
Q 38.796875 13.09375 36.890625 10.890625 
Q 35 8.703125 32.140625 7.5 
Q 29.296875 6.296875 25.40625 6.296875 
Q 20.5 6.296875 17.703125 9.09375 
Q 14.90625 11.90625 14.90625 16.703125 
L 14.90625 51.703125 
L 6.40625 51.703125 
L 6.40625 17.703125 
Q 6.40625 13.5 7.25 10.046875 
Q 8.09375 6.59375 10.1875 4.09375 
Q 12.296875 1.59375 15.6875 0.25 
Q 19.09375 -1.09375 24.203125 -1.09375 
Q 29.90625 -1.09375 34.09375 1.15625 
Q 38.296875 3.40625 41 8.203125 
L 41.203125 8.203125 
L 41.203125 0 
z
" id="HelveticaNeue-117"/>
        <path d="M 6.90625 71.40625 
L 6.90625 0 
L 15.40625 0 
L 15.40625 71.40625 
z
" id="HelveticaNeue-108"/>
       </defs>
       <use xlink:href="#HelveticaNeue-74"/>
       <use x="51.899994" xlink:href="#HelveticaNeue-117"/>
       <use x="107.499985" xlink:href="#HelveticaNeue-108"/>
      </g>
     </g>
    </g>
    <g id="xtick_4">
     <g id="line2d_4">
      <g>
       <use style="fill:#555555;stroke:#555555;stroke-width:0.8;" x="225.612472" xlink:href="#mc97110489b" y="262.5"/>
      </g>
     </g>
     <g id="text_3">
      <!-- Oct -->
      <g style="fill:#555555;" transform="translate(217.552316 276.640625)scale(0.1 -0.1)">
       <defs>
        <path d="M 13.296875 35.703125 
Q 13.296875 41.09375 14.6875 46.34375 
Q 16.09375 51.59375 19.09375 55.796875 
Q 22.09375 60 26.796875 62.546875 
Q 31.5 65.09375 38 65.09375 
Q 44.5 65.09375 49.203125 62.546875 
Q 53.90625 60 56.90625 55.796875 
Q 59.90625 51.59375 61.296875 46.34375 
Q 62.703125 41.09375 62.703125 35.703125 
Q 62.703125 30.296875 61.296875 25.046875 
Q 59.90625 19.796875 56.90625 15.59375 
Q 53.90625 11.40625 49.203125 8.84375 
Q 44.5 6.296875 38 6.296875 
Q 31.5 6.296875 26.796875 8.84375 
Q 22.09375 11.40625 19.09375 15.59375 
Q 16.09375 19.796875 14.6875 25.046875 
Q 13.296875 30.296875 13.296875 35.703125 
z
M 3.796875 35.703125 
Q 3.796875 28.40625 5.9375 21.65625 
Q 8.09375 14.90625 12.390625 9.703125 
Q 16.703125 4.5 23.09375 1.453125 
Q 29.5 -1.59375 38 -1.59375 
Q 46.5 -1.59375 52.890625 1.453125 
Q 59.296875 4.5 63.59375 9.703125 
Q 67.90625 14.90625 70.046875 21.65625 
Q 72.203125 28.40625 72.203125 35.703125 
Q 72.203125 43 70.046875 49.75 
Q 67.90625 56.5 63.59375 61.703125 
Q 59.296875 66.90625 52.890625 70 
Q 46.5 73.09375 38 73.09375 
Q 29.5 73.09375 23.09375 70 
Q 16.703125 66.90625 12.390625 61.703125 
Q 8.09375 56.5 5.9375 49.75 
Q 3.796875 43 3.796875 35.703125 
z
" id="HelveticaNeue-79"/>
        <path d="M 41.5 35.09375 
L 50.296875 35.09375 
Q 49.796875 39.703125 47.890625 43.046875 
Q 46 46.40625 43.046875 48.59375 
Q 40.09375 50.796875 36.25 51.84375 
Q 32.40625 52.90625 28 52.90625 
Q 21.90625 52.90625 17.296875 50.75 
Q 12.703125 48.59375 9.640625 44.84375 
Q 6.59375 41.09375 5.09375 36.046875 
Q 3.59375 31 3.59375 25.203125 
Q 3.59375 19.40625 5.140625 14.546875 
Q 6.703125 9.703125 9.75 6.203125 
Q 12.796875 2.703125 17.34375 0.796875 
Q 21.90625 -1.09375 27.796875 -1.09375 
Q 37.703125 -1.09375 43.453125 4.09375 
Q 49.203125 9.296875 50.59375 18.90625 
L 41.90625 18.90625 
Q 41.09375 12.90625 37.546875 9.59375 
Q 34 6.296875 27.703125 6.296875 
Q 23.703125 6.296875 20.796875 7.890625 
Q 17.90625 9.5 16.09375 12.140625 
Q 14.296875 14.796875 13.4375 18.1875 
Q 12.59375 21.59375 12.59375 25.203125 
Q 12.59375 29.09375 13.390625 32.75 
Q 14.203125 36.40625 16.046875 39.203125 
Q 17.90625 42 21 43.703125 
Q 24.09375 45.40625 28.703125 45.40625 
Q 34.09375 45.40625 37.296875 42.703125 
Q 40.5 40 41.5 35.09375 
z
" id="HelveticaNeue-99"/>
        <path d="M 18.203125 51.703125 
L 18.203125 67.203125 
L 9.703125 67.203125 
L 9.703125 51.703125 
L 0.90625 51.703125 
L 0.90625 44.203125 
L 9.703125 44.203125 
L 9.703125 11.296875 
Q 9.703125 7.703125 10.390625 5.5 
Q 11.09375 3.296875 12.546875 2.09375 
Q 14 0.90625 16.34375 0.453125 
Q 18.703125 0 22 0 
L 28.5 0 
L 28.5 7.5 
L 24.59375 7.5 
Q 22.59375 7.5 21.34375 7.640625 
Q 20.09375 7.796875 19.390625 8.296875 
Q 18.703125 8.796875 18.453125 9.6875 
Q 18.203125 10.59375 18.203125 12.09375 
L 18.203125 44.203125 
L 28.5 44.203125 
L 28.5 51.703125 
z
" id="HelveticaNeue-116"/>
       </defs>
       <use xlink:href="#HelveticaNeue-79"/>
       <use x="75.999985" xlink:href="#HelveticaNeue-99"/>
       <use x="129.699982" xlink:href="#HelveticaNeue-116"/>
      </g>
     </g>
    </g>
    <g id="xtick_5">
     <g id="line2d_5">
      <g>
       <use style="fill:#555555;stroke:#555555;stroke-width:0.8;" x="305.011136" xlink:href="#mc97110489b" y="262.5"/>
      </g>
     </g>
     <g id="text_4">
      <!-- Jan -->
      <g style="fill:#555555;" transform="translate(296.95098 276.640625)scale(0.1 -0.1)">
       <defs>
        <path d="M 52.203125 0.203125 
Q 50 -1.09375 46.09375 -1.09375 
Q 42.796875 -1.09375 40.84375 0.75 
Q 38.90625 2.59375 38.90625 6.796875 
Q 35.40625 2.59375 30.75 0.75 
Q 26.09375 -1.09375 20.703125 -1.09375 
Q 17.203125 -1.09375 14.046875 -0.296875 
Q 10.90625 0.5 8.59375 2.203125 
Q 6.296875 3.90625 4.9375 6.65625 
Q 3.59375 9.40625 3.59375 13.296875 
Q 3.59375 17.703125 5.09375 20.5 
Q 6.59375 23.296875 9.046875 25.046875 
Q 11.5 26.796875 14.640625 27.6875 
Q 17.796875 28.59375 21.09375 29.203125 
Q 24.59375 29.90625 27.75 30.25 
Q 30.90625 30.59375 33.296875 31.25 
Q 35.703125 31.90625 37.09375 33.15625 
Q 38.5 34.40625 38.5 36.796875 
Q 38.5 39.59375 37.453125 41.296875 
Q 36.40625 43 34.75 43.890625 
Q 33.09375 44.796875 31.046875 45.09375 
Q 29 45.40625 27 45.40625 
Q 21.59375 45.40625 18 43.34375 
Q 14.40625 41.296875 14.09375 35.59375 
L 5.59375 35.59375 
Q 5.796875 40.40625 7.59375 43.703125 
Q 9.40625 47 12.40625 49.046875 
Q 15.40625 51.09375 19.25 52 
Q 23.09375 52.90625 27.5 52.90625 
Q 31 52.90625 34.453125 52.40625 
Q 37.90625 51.90625 40.703125 50.34375 
Q 43.5 48.796875 45.203125 46 
Q 46.90625 43.203125 46.90625 38.703125 
L 46.90625 12.09375 
Q 46.90625 9.09375 47.25 7.6875 
Q 47.59375 6.296875 49.59375 6.296875 
Q 50.703125 6.296875 52.203125 6.796875 
z
M 38.40625 26.703125 
Q 36.796875 25.5 34.1875 24.953125 
Q 31.59375 24.40625 28.75 24.046875 
Q 25.90625 23.703125 23 23.25 
Q 20.09375 22.796875 17.796875 21.796875 
Q 15.5 20.796875 14.046875 18.9375 
Q 12.59375 17.09375 12.59375 13.90625 
Q 12.59375 11.796875 13.4375 10.34375 
Q 14.296875 8.90625 15.640625 8 
Q 17 7.09375 18.796875 6.6875 
Q 20.59375 6.296875 22.59375 6.296875 
Q 26.796875 6.296875 29.796875 7.4375 
Q 32.796875 8.59375 34.6875 10.34375 
Q 36.59375 12.09375 37.5 14.140625 
Q 38.40625 16.203125 38.40625 18 
z
" id="HelveticaNeue-97"/>
        <path d="M 6.40625 51.703125 
L 6.40625 0 
L 14.90625 0 
L 14.90625 29.203125 
Q 14.90625 32.703125 15.84375 35.640625 
Q 16.796875 38.59375 18.6875 40.796875 
Q 20.59375 43 23.4375 44.203125 
Q 26.296875 45.40625 30.203125 45.40625 
Q 35.09375 45.40625 37.890625 42.59375 
Q 40.703125 39.796875 40.703125 35 
L 40.703125 0 
L 49.203125 0 
L 49.203125 34 
Q 49.203125 38.203125 48.34375 41.640625 
Q 47.5 45.09375 45.390625 47.59375 
Q 43.296875 50.09375 39.890625 51.5 
Q 36.5 52.90625 31.40625 52.90625 
Q 19.90625 52.90625 14.59375 43.5 
L 14.40625 43.5 
L 14.40625 51.703125 
z
" id="HelveticaNeue-110"/>
       </defs>
       <use xlink:href="#HelveticaNeue-74"/>
       <use x="51.899994" xlink:href="#HelveticaNeue-97"/>
       <use x="105.599991" xlink:href="#HelveticaNeue-110"/>
      </g>
      <!-- 2021 -->
      <g style="fill:#555555;" transform="translate(293.892386 287.179688)scale(0.1 -0.1)">
       <defs>
        <path d="M 4.40625 45.796875 
L 12.90625 45.796875 
Q 12.796875 49 13.546875 52.140625 
Q 14.296875 55.296875 16 57.796875 
Q 17.703125 60.296875 20.34375 61.84375 
Q 23 63.40625 26.703125 63.40625 
Q 29.5 63.40625 32 62.5 
Q 34.5 61.59375 36.34375 59.890625 
Q 38.203125 58.203125 39.296875 55.84375 
Q 40.40625 53.5 40.40625 50.59375 
Q 40.40625 46.90625 39.25 44.09375 
Q 38.09375 41.296875 35.84375 38.890625 
Q 33.59375 36.5 30.1875 34.140625 
Q 26.796875 31.796875 22.296875 29 
Q 18.59375 26.796875 15.1875 24.296875 
Q 11.796875 21.796875 9.09375 18.5 
Q 6.40625 15.203125 4.65625 10.75 
Q 2.90625 6.296875 2.40625 0 
L 48.703125 0 
L 48.703125 7.5 
L 12.296875 7.5 
Q 12.90625 10.796875 14.84375 13.34375 
Q 16.796875 15.90625 19.546875 18.09375 
Q 22.296875 20.296875 25.59375 22.25 
Q 28.90625 24.203125 32.203125 26.203125 
Q 35.5 28.296875 38.59375 30.59375 
Q 41.703125 32.90625 44.09375 35.75 
Q 46.5 38.59375 47.953125 42.1875 
Q 49.40625 45.796875 49.40625 50.5 
Q 49.40625 55.5 47.65625 59.296875 
Q 45.90625 63.09375 42.90625 65.640625 
Q 39.90625 68.203125 35.84375 69.546875 
Q 31.796875 70.90625 27.203125 70.90625 
Q 21.59375 70.90625 17.1875 69 
Q 12.796875 67.09375 9.84375 63.75 
Q 6.90625 60.40625 5.5 55.796875 
Q 4.09375 51.203125 4.40625 45.796875 
z
" id="HelveticaNeue-50"/>
        <path d="M 13.203125 34.90625 
Q 13.203125 37.5 13.25 40.640625 
Q 13.296875 43.796875 13.75 46.9375 
Q 14.203125 50.09375 15.046875 53.09375 
Q 15.90625 56.09375 17.546875 58.34375 
Q 19.203125 60.59375 21.703125 62 
Q 24.203125 63.40625 27.796875 63.40625 
Q 31.40625 63.40625 33.90625 62 
Q 36.40625 60.59375 38.046875 58.34375 
Q 39.703125 56.09375 40.546875 53.09375 
Q 41.40625 50.09375 41.84375 46.9375 
Q 42.296875 43.796875 42.34375 40.640625 
Q 42.40625 37.5 42.40625 34.90625 
Q 42.40625 30.90625 42.15625 25.953125 
Q 41.90625 21 40.546875 16.640625 
Q 39.203125 12.296875 36.203125 9.296875 
Q 33.203125 6.296875 27.796875 6.296875 
Q 22.40625 6.296875 19.40625 9.296875 
Q 16.40625 12.296875 15.046875 16.640625 
Q 13.703125 21 13.453125 25.953125 
Q 13.203125 30.90625 13.203125 34.90625 
z
M 4.203125 34.796875 
Q 4.203125 30.90625 4.390625 26.703125 
Q 4.59375 22.5 5.390625 18.5 
Q 6.203125 14.5 7.703125 10.953125 
Q 9.203125 7.40625 11.796875 4.703125 
Q 14.40625 2 18.34375 0.453125 
Q 22.296875 -1.09375 27.796875 -1.09375 
Q 33.40625 -1.09375 37.296875 0.453125 
Q 41.203125 2 43.796875 4.703125 
Q 46.40625 7.40625 47.90625 10.953125 
Q 49.40625 14.5 50.203125 18.5 
Q 51 22.5 51.203125 26.703125 
Q 51.40625 30.90625 51.40625 34.796875 
Q 51.40625 38.703125 51.203125 42.890625 
Q 51 47.09375 50.203125 51.09375 
Q 49.40625 55.09375 47.90625 58.6875 
Q 46.40625 62.296875 43.796875 65 
Q 41.203125 67.703125 37.25 69.296875 
Q 33.296875 70.90625 27.796875 70.90625 
Q 22.296875 70.90625 18.34375 69.296875 
Q 14.40625 67.703125 11.796875 65 
Q 9.203125 62.296875 7.703125 58.6875 
Q 6.203125 55.09375 5.390625 51.09375 
Q 4.59375 47.09375 4.390625 42.890625 
Q 4.203125 38.703125 4.203125 34.796875 
z
" id="HelveticaNeue-48"/>
        <path d="M 35.59375 0 
L 35.59375 70.90625 
L 29.09375 70.90625 
Q 28.40625 66.90625 26.5 64.296875 
Q 24.59375 61.703125 21.84375 60.203125 
Q 19.09375 58.703125 15.6875 58.140625 
Q 12.296875 57.59375 8.703125 57.59375 
L 8.703125 50.796875 
L 27.09375 50.796875 
L 27.09375 0 
z
" id="HelveticaNeue-49"/>
       </defs>
       <use xlink:href="#HelveticaNeue-50"/>
       <use x="55.599991" xlink:href="#HelveticaNeue-48"/>
       <use x="111.199982" xlink:href="#HelveticaNeue-50"/>
       <use x="166.799973" xlink:href="#HelveticaNeue-49"/>
      </g>
     </g>
    </g>
    <g id="xtick_6">
     <g id="line2d_6">
      <g>
       <use style="fill:#555555;stroke:#555555;stroke-width:0.8;" x="382.683742" xlink:href="#mc97110489b" y="262.5"/>
      </g>
     </g>
     <g id="text_5">
      <!-- Apr -->
      <g style="fill:#555555;" transform="translate(374.81421 276.640625)scale(0.1 -0.1)">
       <use xlink:href="#HelveticaNeue-65"/>
       <use x="64.799988" xlink:href="#HelveticaNeue-112"/>
       <use x="124.099976" xlink:href="#HelveticaNeue-114"/>
      </g>
     </g>
    </g>
    <g id="xtick_7">
     <g id="line2d_7">
      <g>
       <use style="fill:#555555;stroke:#555555;stroke-width:0.8;" x="450" xlink:href="#mc97110489b" y="262.5"/>
      </g>
     </g>
    </g>
    <g id="xtick_8">
     <g id="line2d_8">
      <defs>
       <path d="M 0 0 
L 0 2 
" id="m75bd9c53e6" style="stroke:#555555;stroke-width:0.6;"/>
      </defs>
      <g>
       <use style="fill:#555555;stroke:#555555;stroke-width:0.6;" x="93.569042" xlink:href="#m75bd9c53e6" y="262.5"/>
      </g>
     </g>
    </g>
    <g id="xtick_9">
     <g id="line2d_9">
      <g>
       <use style="fill:#555555;stroke:#555555;stroke-width:0.6;" x="120.32294" xlink:href="#m75bd9c53e6" y="262.5"/>
      </g>
     </g>
    </g>
    <g id="xtick_10">
     <g id="line2d_10">
      <g>
       <use style="fill:#555555;stroke:#555555;stroke-width:0.6;" x="172.967706" xlink:href="#m75bd9c53e6" y="262.5"/>
      </g>
     </g>
    </g>
    <g id="xtick_11">
     <g id="line2d_11">
      <g>
       <use style="fill:#555555;stroke:#555555;stroke-width:0.6;" x="199.721604" xlink:href="#m75bd9c53e6" y="262.5"/>
      </g>
     </g>
    </g>
    <g id="xtick_12">
     <g id="line2d_12">
      <g>
       <use style="fill:#555555;stroke:#555555;stroke-width:0.6;" x="252.36637" xlink:href="#m75bd9c53e6" y="262.5"/>
      </g>
     </g>
    </g>
    <g id="xtick_13">
     <g id="line2d_13">
      <g>
       <use style="fill:#555555;stroke:#555555;stroke-width:0.6;" x="278.257238" xlink:href="#m75bd9c53e6" y="262.5"/>
      </g>
     </g>
    </g>
    <g id="xtick_14">
     <g id="line2d_14">
      <g>
       <use style="fill:#555555;stroke:#555555;stroke-width:0.6;" x="331.765033" xlink:href="#m75bd9c53e6" y="262.5"/>
      </g>
     </g>
    </g>
    <g id="xtick_15">
     <g id="line2d_15">
      <g>
       <use style="fill:#555555;stroke:#555555;stroke-width:0.6;" x="355.929844" xlink:href="#m75bd9c53e6" y="262.5"/>
      </g>
     </g>
    </g>
    <g id="xtick_16">
     <g id="line2d_16">
      <g>
       <use style="fill:#555555;stroke:#555555;stroke-width:0.6;" x="408.57461" xlink:href="#m75bd9c53e6" y="262.5"/>
      </g>
     </g>
    </g>
    <g id="xtick_17">
     <g id="line2d_17">
      <g>
       <use style="fill:#555555;stroke:#555555;stroke-width:0.6;" x="435.328508" xlink:href="#m75bd9c53e6" y="262.5"/>
      </g>
     </g>
    </g>
    <g id="text_6">
     <!-- fecha -->
     <g style="fill:#555555;" transform="translate(243.935156 300.290625)scale(0.1 -0.1)">
      <defs>
       <path d="M 9.90625 44.203125 
L 9.90625 0 
L 18.40625 0 
L 18.40625 44.203125 
L 28.40625 44.203125 
L 28.40625 51.703125 
L 18.40625 51.703125 
L 18.40625 58.90625 
Q 18.40625 62.296875 20.09375 63.5 
Q 21.796875 64.703125 24.90625 64.703125 
Q 26 64.703125 27.296875 64.546875 
Q 28.59375 64.40625 29.703125 64 
L 29.703125 71.40625 
Q 28.5 71.796875 26.953125 72 
Q 25.40625 72.203125 24.203125 72.203125 
Q 17.203125 72.203125 13.546875 68.953125 
Q 9.90625 65.703125 9.90625 59.40625 
L 9.90625 51.703125 
L 1.203125 51.703125 
L 1.203125 44.203125 
z
" id="HelveticaNeue-102"/>
       <path d="M 42.296875 30.796875 
L 12.59375 30.796875 
Q 12.796875 33.796875 13.890625 36.4375 
Q 15 39.09375 16.890625 41.09375 
Q 18.796875 43.09375 21.4375 44.25 
Q 24.09375 45.40625 27.40625 45.40625 
Q 30.59375 45.40625 33.25 44.25 
Q 35.90625 43.09375 37.84375 41.140625 
Q 39.796875 39.203125 40.9375 36.5 
Q 42.09375 33.796875 42.296875 30.796875 
z
M 50.5 16.40625 
L 42.09375 16.40625 
Q 41 11.296875 37.546875 8.796875 
Q 34.09375 6.296875 28.703125 6.296875 
Q 24.5 6.296875 21.390625 7.6875 
Q 18.296875 9.09375 16.296875 11.4375 
Q 14.296875 13.796875 13.390625 16.84375 
Q 12.5 19.90625 12.59375 23.296875 
L 51.296875 23.296875 
Q 51.5 28 50.453125 33.203125 
Q 49.40625 38.40625 46.65625 42.796875 
Q 43.90625 47.203125 39.34375 50.046875 
Q 34.796875 52.90625 27.90625 52.90625 
Q 22.59375 52.90625 18.140625 50.90625 
Q 13.703125 48.90625 10.453125 45.296875 
Q 7.203125 41.703125 5.390625 36.796875 
Q 3.59375 31.90625 3.59375 26 
Q 3.796875 20.09375 5.34375 15.09375 
Q 6.90625 10.09375 10 6.5 
Q 13.09375 2.90625 17.640625 0.90625 
Q 22.203125 -1.09375 28.40625 -1.09375 
Q 37.203125 -1.09375 43 3.296875 
Q 48.796875 7.703125 50.5 16.40625 
z
" id="HelveticaNeue-101"/>
       <path d="M 6.40625 71.40625 
L 6.40625 0 
L 14.90625 0 
L 14.90625 29.203125 
Q 14.90625 32.703125 15.84375 35.640625 
Q 16.796875 38.59375 18.6875 40.796875 
Q 20.59375 43 23.4375 44.203125 
Q 26.296875 45.40625 30.203125 45.40625 
Q 35.09375 45.40625 37.890625 42.59375 
Q 40.703125 39.796875 40.703125 35 
L 40.703125 0 
L 49.203125 0 
L 49.203125 34 
Q 49.203125 38.203125 48.34375 41.640625 
Q 47.5 45.09375 45.390625 47.59375 
Q 43.296875 50.09375 39.890625 51.5 
Q 36.5 52.90625 31.40625 52.90625 
Q 29.09375 52.90625 26.640625 52.40625 
Q 24.203125 51.90625 21.953125 50.84375 
Q 19.703125 49.796875 17.890625 48.140625 
Q 16.09375 46.5 15.09375 44.09375 
L 14.90625 44.09375 
L 14.90625 71.40625 
z
" id="HelveticaNeue-104"/>
      </defs>
      <use xlink:href="#HelveticaNeue-102"/>
      <use x="29.599991" xlink:href="#HelveticaNeue-101"/>
      <use x="83.299988" xlink:href="#HelveticaNeue-99"/>
      <use x="136.999985" xlink:href="#HelveticaNeue-104"/>
      <use x="192.599976" xlink:href="#HelveticaNeue-97"/>
     </g>
    </g>
   </g>
   <g id="matplotlib.axis_2">
    <g id="ytick_1">
     <g id="line2d_18">
      <defs>
       <path d="M 0 0 
L -3.5 0 
" id="mfd82204ff8" style="stroke:#555555;stroke-width:0.8;"/>
      </defs>
      <g>
       <use style="fill:#555555;stroke:#555555;stroke-width:0.8;" x="62.5" xlink:href="#mfd82204ff8" y="251.979224"/>
      </g>
     </g>
     <g id="text_7">
      <!-- 0 -->
      <g style="fill:#555555;" transform="translate(49.940625 255.549536)scale(0.1 -0.1)">
       <use xlink:href="#HelveticaNeue-48"/>
      </g>
     </g>
    </g>
    <g id="ytick_2">
     <g id="line2d_19">
      <g>
       <use style="fill:#555555;stroke:#555555;stroke-width:0.8;" x="62.5" xlink:href="#mfd82204ff8" y="215.225419"/>
      </g>
     </g>
     <g id="text_8">
      <!-- 200 -->
      <g style="fill:#555555;" transform="translate(38.821875 218.795732)scale(0.1 -0.1)">
       <use xlink:href="#HelveticaNeue-50"/>
       <use x="55.599991" xlink:href="#HelveticaNeue-48"/>
       <use x="111.199982" xlink:href="#HelveticaNeue-48"/>
      </g>
     </g>
    </g>
    <g id="ytick_3">
     <g id="line2d_20">
      <g>
       <use style="fill:#555555;stroke:#555555;stroke-width:0.8;" x="62.5" xlink:href="#mfd82204ff8" y="178.471615"/>
      </g>
     </g>
     <g id="text_9">
      <!-- 400 -->
      <g style="fill:#555555;" transform="translate(38.821875 182.041928)scale(0.1 -0.1)">
       <defs>
        <path d="M 33.90625 24.09375 
L 10.09375 24.09375 
L 33.703125 58.796875 
L 33.90625 58.796875 
z
M 41.90625 24.09375 
L 41.90625 70.90625 
L 35.09375 70.90625 
L 2.796875 24.796875 
L 2.796875 16.59375 
L 33.90625 16.59375 
L 33.90625 0 
L 41.90625 0 
L 41.90625 16.59375 
L 51.5 16.59375 
L 51.5 24.09375 
z
" id="HelveticaNeue-52"/>
       </defs>
       <use xlink:href="#HelveticaNeue-52"/>
       <use x="55.599991" xlink:href="#HelveticaNeue-48"/>
       <use x="111.199982" xlink:href="#HelveticaNeue-48"/>
      </g>
     </g>
    </g>
    <g id="ytick_4">
     <g id="line2d_21">
      <g>
       <use style="fill:#555555;stroke:#555555;stroke-width:0.8;" x="62.5" xlink:href="#mfd82204ff8" y="141.717811"/>
      </g>
     </g>
     <g id="text_10">
      <!-- 600 -->
      <g style="fill:#555555;" transform="translate(38.821875 145.288124)scale(0.1 -0.1)">
       <defs>
        <path d="M 41.40625 52.796875 
L 49.90625 52.796875 
Q 49.09375 61.59375 43.890625 66.25 
Q 38.703125 70.90625 29.90625 70.90625 
Q 22.296875 70.90625 17.296875 67.703125 
Q 12.296875 64.5 9.296875 59.203125 
Q 6.296875 53.90625 5.046875 47.046875 
Q 3.796875 40.203125 3.796875 32.90625 
Q 3.796875 27.296875 4.640625 21.296875 
Q 5.5 15.296875 8.09375 10.296875 
Q 10.703125 5.296875 15.5 2.09375 
Q 20.296875 -1.09375 28.203125 -1.09375 
Q 34.90625 -1.09375 39.453125 1.15625 
Q 44 3.40625 46.75 6.84375 
Q 49.5 10.296875 50.703125 14.5 
Q 51.90625 18.703125 51.90625 22.59375 
Q 51.90625 27.5 50.40625 31.703125 
Q 48.90625 35.90625 46.15625 39 
Q 43.40625 42.09375 39.34375 43.84375 
Q 35.296875 45.59375 30.203125 45.59375 
Q 24.40625 45.59375 19.953125 43.390625 
Q 15.5 41.203125 12.5 36.296875 
L 12.296875 36.5 
Q 12.40625 40.59375 13.09375 45.296875 
Q 13.796875 50 15.640625 54.046875 
Q 17.5 58.09375 20.796875 60.75 
Q 24.09375 63.40625 29.5 63.40625 
Q 34.59375 63.40625 37.6875 60.5 
Q 40.796875 57.59375 41.40625 52.796875 
z
M 28.59375 38.09375 
Q 32.203125 38.09375 34.890625 36.796875 
Q 37.59375 35.5 39.390625 33.34375 
Q 41.203125 31.203125 42.046875 28.25 
Q 42.90625 25.296875 42.90625 22 
Q 42.90625 18.90625 41.953125 16.046875 
Q 41 13.203125 39.203125 11 
Q 37.40625 8.796875 34.75 7.546875 
Q 32.09375 6.296875 28.59375 6.296875 
Q 25.09375 6.296875 22.34375 7.546875 
Q 19.59375 8.796875 17.75 10.890625 
Q 15.90625 13 14.90625 15.890625 
Q 13.90625 18.796875 13.90625 22.09375 
Q 13.90625 25.40625 14.84375 28.34375 
Q 15.796875 31.296875 17.6875 33.4375 
Q 19.59375 35.59375 22.296875 36.84375 
Q 25 38.09375 28.59375 38.09375 
z
" id="HelveticaNeue-54"/>
       </defs>
       <use xlink:href="#HelveticaNeue-54"/>
       <use x="55.599991" xlink:href="#HelveticaNeue-48"/>
       <use x="111.199982" xlink:href="#HelveticaNeue-48"/>
      </g>
     </g>
    </g>
    <g id="ytick_5">
     <g id="line2d_22">
      <g>
       <use style="fill:#555555;stroke:#555555;stroke-width:0.8;" x="62.5" xlink:href="#mfd82204ff8" y="104.964007"/>
      </g>
     </g>
     <g id="text_11">
      <!-- 800 -->
      <g style="fill:#555555;" transform="translate(38.821875 108.53432)scale(0.1 -0.1)">
       <defs>
        <path d="M 15.5 52.5 
Q 15.5 55.203125 16.5 57.203125 
Q 17.5 59.203125 19.140625 60.59375 
Q 20.796875 62 23.09375 62.703125 
Q 25.40625 63.40625 27.90625 63.40625 
Q 33.09375 63.40625 36.4375 60.65625 
Q 39.796875 57.90625 39.796875 52.5 
Q 39.796875 47.09375 36.5 44.09375 
Q 33.203125 41.09375 28.09375 41.09375 
Q 25.5 41.09375 23.203125 41.796875 
Q 20.90625 42.5 19.203125 43.890625 
Q 17.5 45.296875 16.5 47.4375 
Q 15.5 49.59375 15.5 52.5 
z
M 6.5 52.796875 
Q 6.5 48 9.203125 43.953125 
Q 11.90625 39.90625 16.40625 38.09375 
Q 10.40625 36 7.203125 31.34375 
Q 4 26.703125 4 20.40625 
Q 4 15 5.84375 10.953125 
Q 7.703125 6.90625 10.953125 4.203125 
Q 14.203125 1.5 18.59375 0.203125 
Q 23 -1.09375 28.09375 -1.09375 
Q 33 -1.09375 37.296875 0.296875 
Q 41.59375 1.703125 44.75 4.453125 
Q 47.90625 7.203125 49.75 11.203125 
Q 51.59375 15.203125 51.59375 20.40625 
Q 51.59375 27 48.5 31.546875 
Q 45.40625 36.09375 39 38.09375 
Q 43.5 40.09375 46.140625 44.046875 
Q 48.796875 48 48.796875 52.796875 
Q 48.796875 56.203125 47.59375 59.453125 
Q 46.40625 62.703125 43.84375 65.25 
Q 41.296875 67.796875 37.1875 69.34375 
Q 33.09375 70.90625 27.296875 70.90625 
Q 23.203125 70.90625 19.453125 69.703125 
Q 15.703125 68.5 12.796875 66.203125 
Q 9.90625 63.90625 8.203125 60.546875 
Q 6.5 57.203125 6.5 52.796875 
z
M 13 20 
Q 13 23.09375 14.140625 25.59375 
Q 15.296875 28.09375 17.34375 29.890625 
Q 19.40625 31.703125 22.15625 32.640625 
Q 24.90625 33.59375 28 33.59375 
Q 31 33.59375 33.640625 32.546875 
Q 36.296875 31.5 38.296875 29.703125 
Q 40.296875 27.90625 41.4375 25.453125 
Q 42.59375 23 42.59375 20.09375 
Q 42.59375 17.09375 41.546875 14.59375 
Q 40.5 12.09375 38.546875 10.25 
Q 36.59375 8.40625 33.9375 7.34375 
Q 31.296875 6.296875 28.09375 6.296875 
Q 21.5 6.296875 17.25 9.9375 
Q 13 13.59375 13 20 
z
" id="HelveticaNeue-56"/>
       </defs>
       <use xlink:href="#HelveticaNeue-56"/>
       <use x="55.599991" xlink:href="#HelveticaNeue-48"/>
       <use x="111.199982" xlink:href="#HelveticaNeue-48"/>
      </g>
     </g>
    </g>
    <g id="ytick_6">
     <g id="line2d_23">
      <g>
       <use style="fill:#555555;stroke:#555555;stroke-width:0.8;" x="62.5" xlink:href="#mfd82204ff8" y="68.210203"/>
      </g>
     </g>
     <g id="text_12">
      <!-- 1000 -->
      <g style="fill:#555555;" transform="translate(33.2625 71.780515)scale(0.1 -0.1)">
       <use xlink:href="#HelveticaNeue-49"/>
       <use x="55.599991" xlink:href="#HelveticaNeue-48"/>
       <use x="111.199982" xlink:href="#HelveticaNeue-48"/>
       <use x="166.799973" xlink:href="#HelveticaNeue-48"/>
      </g>
     </g>
    </g>
    <g id="ytick_7">
     <g id="line2d_24">
      <g>
       <use style="fill:#555555;stroke:#555555;stroke-width:0.8;" x="62.5" xlink:href="#mfd82204ff8" y="31.456399"/>
      </g>
     </g>
     <g id="text_13">
      <!-- 1200 -->
      <g style="fill:#555555;" transform="translate(33.2625 35.026711)scale(0.1 -0.1)">
       <use xlink:href="#HelveticaNeue-49"/>
       <use x="55.599991" xlink:href="#HelveticaNeue-50"/>
       <use x="111.199982" xlink:href="#HelveticaNeue-48"/>
       <use x="166.799973" xlink:href="#HelveticaNeue-48"/>
      </g>
     </g>
    </g>
   </g>
   <g id="line2d_25">
    <path clip-path="url(#p0d9836034d)" d="M 63.363029 251.060378 
L 64.226058 250.509071 
L 65.089087 251.427917 
L 65.952116 251.611686 
L 66.815145 251.611686 
L 67.678174 251.060378 
L 68.541203 249.406457 
L 69.404232 249.406457 
L 70.267261 249.957764 
L 71.13029 251.795455 
L 71.993318 249.222688 
L 72.856347 249.773995 
L 73.719376 250.141533 
L 74.582405 249.957764 
L 75.445434 250.876609 
L 76.308463 251.611686 
L 77.171492 250.509071 
L 78.034521 250.69284 
L 78.89755 251.427917 
L 79.760579 250.876609 
L 80.623608 247.936305 
L 81.486637 248.120074 
L 82.349666 249.222688 
L 83.212695 248.671381 
L 84.075724 248.303843 
L 84.938753 250.325302 
L 85.801782 248.487612 
L 86.664811 249.957764 
L 87.52784 246.098615 
L 88.390869 243.709618 
L 89.253898 247.936305 
L 90.116927 248.120074 
L 90.979955 247.201229 
L 91.842984 250.325302 
L 92.706013 247.568767 
L 93.569042 249.222688 
L 94.432071 247.936305 
L 95.2951 247.752536 
L 96.158129 244.260925 
L 97.021158 241.871927 
L 97.884187 242.055696 
L 98.747216 238.380316 
L 100.473274 244.812232 
L 101.336303 241.688158 
L 102.199332 235.623781 
L 103.062361 245.363539 
L 103.92539 236.542626 
L 104.788419 236.726395 
L 105.651448 229.559403 
L 106.514477 238.380316 
L 107.377506 238.380316 
L 108.240535 247.752536 
L 109.103563 236.910164 
L 109.966592 240.034237 
L 110.829621 246.649922 
L 111.69265 232.132169 
L 112.555679 242.423234 
L 113.418708 241.32062 
L 114.281737 237.64524 
L 115.144766 231.213324 
L 116.007795 222.392411 
L 116.870824 216.695572 
L 117.733853 234.153629 
L 118.596882 236.542626 
L 119.459911 226.251561 
L 120.32294 235.072474 
L 121.185969 233.234783 
L 122.048998 228.456789 
L 122.912027 234.888705 
L 123.775056 235.256243 
L 124.638085 234.521167 
L 125.501114 233.602321 
L 126.364143 231.764631 
L 127.227171 223.495025 
L 128.0902 233.051014 
L 128.953229 240.769313 
L 129.816258 222.392411 
L 130.679287 223.127487 
L 131.542316 231.9484 
L 132.405345 226.986637 
L 133.268374 204.934354 
L 134.131403 216.511803 
L 134.994432 207.874659 
L 135.857461 219.268338 
L 136.72049 209.161042 
L 137.583519 223.678794 
L 138.446548 225.332716 
L 139.309577 234.521167 
L 140.172606 197.399824 
L 141.035635 232.315938 
L 141.898664 226.802868 
L 142.761693 230.478248 
L 143.624722 217.614417 
L 144.487751 234.337398 
L 145.35078 205.118123 
L 146.213808 228.824327 
L 147.076837 212.836422 
L 147.939866 222.208642 
L 148.802895 215.409188 
L 149.665924 221.841104 
L 150.528953 214.490343 
L 151.391982 192.805599 
L 152.255011 215.04165 
L 153.11804 211.36627 
L 153.981069 204.750585 
L 154.844098 212.101346 
L 155.707127 210.447425 
L 156.570156 211.917577 
L 157.433185 215.409188 
L 158.296214 206.404506 
L 159.159243 194.827058 
L 160.022272 206.772044 
L 160.885301 194.091982 
L 161.74833 196.113441 
L 162.611359 212.285115 
L 163.474388 161.197327 
L 164.337416 168.548088 
L 165.200445 187.292528 
L 166.063474 176.082618 
L 166.926503 182.698303 
L 167.789532 207.874659 
L 168.652561 165.607784 
L 169.51559 156.97064 
L 170.378619 164.872708 
L 171.241648 141.90158 
L 172.104677 151.2738 
L 172.967706 164.321401 
L 173.830735 199.972591 
L 174.693764 171.855931 
L 175.556793 133.815743 
L 177.282851 195.378365 
L 178.14588 175.531311 
L 179.008909 193.173137 
L 179.871938 177.185232 
L 180.734967 129.589056 
L 181.597996 160.094713 
L 182.461024 159.727175 
L 183.324053 147.414651 
L 184.187082 156.051795 
L 185.050111 140.247659 
L 185.91314 143.555501 
L 186.776169 133.080667 
L 187.639198 134.918357 
L 188.502227 178.104077 
L 189.365256 169.466933 
L 190.228285 152.560183 
L 191.091314 191.519216 
L 191.954343 160.64602 
L 193.680401 179.022922 
L 194.54343 208.793504 
L 195.406459 185.0873 
L 196.269488 168.548088 
L 197.132517 198.502439 
L 197.995546 206.955813 
L 198.858575 173.693621 
L 199.721604 175.531311 
L 200.584633 202.729126 
L 201.447661 193.908213 
L 202.31069 194.091982 
L 203.173719 215.409188 
L 204.036748 218.349493 
L 204.899777 179.206691 
L 205.762806 208.977273 
L 206.625835 215.409188 
L 207.488864 183.433379 
L 209.214922 219.635876 
L 210.077951 236.358857 
L 210.94098 210.447425 
L 211.804009 199.053746 
L 212.667038 202.361588 
L 213.530067 212.836422 
L 214.393096 208.977273 
L 215.256125 208.425966 
L 216.119154 223.311256 
L 216.982183 213.939036 
L 217.845212 208.609735 
L 218.708241 206.955813 
L 220.434298 214.306574 
L 221.297327 220.73849 
L 222.160356 228.640558 
L 223.023385 225.700254 
L 223.886414 207.69089 
L 224.749443 226.251561 
L 225.612472 213.020191 
L 226.475501 208.242197 
L 227.33853 213.939036 
L 228.201559 210.998732 
L 229.064588 212.836422 
L 229.927617 214.306574 
L 230.790646 220.554721 
L 231.653675 208.793504 
L 232.516704 207.69089 
L 234.242762 227.721713 
L 235.105791 223.311256 
L 235.96882 224.41387 
L 236.831849 221.657335 
L 237.694878 199.788822 
L 238.557906 214.490343 
L 239.420935 208.793504 
L 240.283964 231.580862 
L 241.146993 209.896118 
L 242.010022 204.383047 
L 242.873051 202.912895 
L 243.73608 208.977273 
L 244.599109 200.523898 
L 245.462138 221.106028 
L 246.325167 226.986637 
L 247.188196 208.977273 
L 248.051225 195.010827 
L 248.914254 205.301892 
L 249.777283 199.053746 
L 250.640312 206.955813 
L 251.503341 203.83174 
L 252.36637 212.285115 
L 253.229399 203.647971 
L 254.092428 206.404506 
L 254.955457 210.079887 
L 255.818486 219.635876 
L 256.681514 208.242197 
L 257.544543 206.955813 
L 258.407572 222.208642 
L 259.270601 209.52858 
L 260.13363 211.733808 
L 260.996659 215.409188 
L 261.859688 208.058428 
L 262.722717 221.106028 
L 263.585746 222.024873 
L 264.448775 231.9484 
L 266.174833 189.313988 
L 267.037862 228.089251 
L 267.900891 211.182501 
L 268.76392 222.024873 
L 269.626949 208.058428 
L 270.489978 221.289797 
L 271.353007 206.404506 
L 272.216036 197.216055 
L 273.079065 200.15636 
L 273.942094 201.442743 
L 274.805122 192.070523 
L 275.668151 199.421284 
L 276.53118 221.106028 
L 277.394209 196.664748 
L 278.257238 204.934354 
L 279.120267 199.972591 
L 279.983296 216.144265 
L 280.846325 189.497757 
L 281.709354 194.45952 
L 282.572383 223.495025 
L 283.435412 198.686208 
L 284.298441 208.425966 
L 285.16147 184.352224 
L 286.024499 186.006145 
L 286.887528 185.0873 
L 287.750557 184.352224 
L 288.613586 192.438061 
L 289.476615 182.146996 
L 290.339644 166.710398 
L 291.202673 161.748634 
L 292.065702 175.163773 
L 292.928731 162.48371 
L 293.791759 176.817694 
L 294.654788 197.583593 
L 295.517817 170.385778 
L 296.380846 160.64602 
L 297.243875 162.66748 
L 298.106904 159.359637 
L 298.969933 211.917577 
L 299.832962 175.71508 
L 300.695991 161.381096 
L 302.422049 120.951912 
L 303.285078 123.340909 
L 305.011136 210.263656 
L 305.874165 168.18055 
L 306.737194 120.400605 
L 307.600223 148.884803 
L 308.463252 80.155189 
L 309.326281 92.100176 
L 310.18931 117.827838 
L 311.052339 135.469664 
L 311.915367 128.670211 
L 312.778396 180.860613 
L 313.641425 191.519216 
L 314.504454 90.078716 
L 315.367483 81.074034 
L 316.230512 121.135681 
L 317.093541 143.923039 
L 317.95657 114.887534 
L 318.819599 133.264436 
L 319.682628 130.69167 
L 320.545657 93.570328 
L 321.408686 159.543406 
L 322.271715 115.990148 
L 323.134744 163.035018 
L 323.997773 148.333496 
L 324.860802 181.779458 
L 325.723831 143.923039 
L 326.58686 171.672162 
L 327.449889 154.949181 
L 328.312918 191.702985 
L 329.175947 189.313988 
L 330.038976 204.199278 
L 330.902004 196.664748 
L 331.765033 195.194596 
L 332.628062 206.955813 
L 333.491091 199.237515 
L 334.35412 207.69089 
L 335.217149 207.69089 
L 336.080178 219.819645 
L 336.943207 226.619099 
L 337.806236 214.122805 
L 338.669265 213.939036 
L 339.532294 221.657335 
L 340.395323 219.452107 
L 341.258352 224.046332 
L 342.121381 225.516485 
L 342.98441 228.824327 
L 344.710468 219.268338 
L 345.573497 225.700254 
L 346.436526 224.781409 
L 347.299555 231.9484 
L 348.162584 235.623781 
L 349.025612 241.504389 
L 349.888641 233.418552 
L 350.75167 228.456789 
L 351.614699 231.764631 
L 352.477728 228.089251 
L 353.340757 235.80755 
L 354.203786 236.358857 
L 355.066815 235.256243 
L 355.929844 235.80755 
L 356.792873 225.516485 
L 357.655902 228.824327 
L 358.518931 232.683476 
L 359.38196 228.27302 
L 360.244989 233.602321 
L 361.971047 236.726395 
L 362.834076 241.136851 
L 363.697105 232.499707 
L 364.560134 229.559403 
L 365.423163 233.602321 
L 366.286192 239.115392 
L 367.14922 234.888705 
L 368.012249 235.256243 
L 368.875278 237.829009 
L 369.738307 230.11071 
L 370.601336 226.619099 
L 371.464365 226.067792 
L 372.327394 232.867245 
L 373.190423 229.191865 
L 374.053452 240.401775 
L 374.916481 224.781409 
L 375.77951 225.516485 
L 377.505568 217.430648 
L 378.368597 217.614417 
L 379.231626 233.418552 
L 380.094655 211.550039 
L 380.957684 212.836422 
L 381.820713 206.588275 
L 382.683742 221.289797 
L 383.546771 215.592957 
L 384.4098 214.490343 
L 385.272829 217.614417 
L 386.135857 198.31867 
L 386.998886 185.638607 
L 387.861915 181.595689 
L 388.724944 190.049064 
L 389.587973 179.39046 
L 390.451002 177.736539 
L 391.314031 177.920308 
L 392.17706 149.803648 
L 393.040089 149.068572 
L 393.903118 140.431428 
L 394.766147 160.64602 
L 395.629176 152.927721 
L 396.492205 159.543406 
L 397.355234 179.206691 
L 398.218263 136.38851 
L 399.081292 129.037749 
L 399.944321 157.521947 
L 400.80735 129.772825 
L 401.670379 146.495806 
L 402.533408 152.376414 
L 403.396437 153.662798 
L 404.259465 125.546137 
L 405.122494 127.935135 
L 405.985523 147.414651 
L 406.848552 152.927721 
L 407.711581 134.183281 
L 408.57461 154.397874 
L 409.437639 165.240246 
L 410.300668 120.033067 
L 411.163697 124.627292 
L 412.026726 159.910944 
L 412.889755 112.314768 
L 413.752784 116.541455 
L 414.615813 151.457569 
L 415.478842 158.624561 
L 416.341871 128.486442 
L 417.2049 106.985466 
L 418.067929 153.479028 
L 418.930958 163.586325 
L 419.793987 152.008876 
L 420.657016 155.13295 
L 421.520045 162.48371 
L 422.383073 148.884803 
L 423.246102 123.524678 
L 424.109131 119.114222 
L 424.97216 102.207472 
L 425.835189 98.164553 
L 426.698218 130.140363 
L 427.561247 133.631974 
L 428.424276 90.446254 
L 429.287305 65.637437 
L 430.150334 71.885583 
L 431.013363 106.985466 
L 431.876392 100.921089 
L 432.739421 78.501268 
L 433.60245 142.269118 
L 434.465479 103.861393 
L 435.328508 43.585154 
L 436.191537 51.85476 
L 437.054566 37.704545 
L 437.917595 99.450936 
L 438.780624 68.026434 
L 439.643653 118.562915 
L 440.506682 81.992879 
L 441.36971 79.97142 
L 442.232739 110.844616 
L 443.095768 108.271849 
L 443.958797 134.183281 
L 444.821826 138.593738 
L 445.684855 136.939817 
L 446.547884 126.648751 
L 447.410913 103.493855 
L 448.273942 142.820425 
L 449.136971 109.190694 
L 450 229.559403 
L 450 229.559403 
" style="fill:none;stroke:#000000;stroke-dasharray:1.5,2.475;stroke-dashoffset:0;stroke-opacity:0.5;stroke-width:1.5;"/>
   </g>
   <g id="line2d_26">
    <path clip-path="url(#p0d9836034d)" d="M 62.5 250.876609 
L 64.226058 251.244147 
L 65.089087 251.244147 
L 71.13029 249.957764 
L 71.993318 250.141533 
L 72.856347 250.141533 
L 73.719376 250.325302 
L 74.582405 250.325302 
L 77.171492 250.876609 
L 78.034521 250.69284 
L 78.89755 250.325302 
L 79.760579 249.773995 
L 81.486637 249.038919 
L 83.212695 248.671381 
L 84.075724 249.038919 
L 84.938753 248.85515 
L 85.801782 248.120074 
L 86.664811 247.936305 
L 88.390869 247.201229 
L 89.253898 247.384998 
L 90.116927 247.384998 
L 90.979955 247.936305 
L 91.842984 248.303843 
L 92.706013 248.303843 
L 93.569042 247.936305 
L 94.432071 247.201229 
L 97.021158 243.158311 
L 97.884187 242.607004 
L 99.610245 241.136851 
L 100.473274 241.32062 
L 101.336303 240.769313 
L 102.199332 240.401775 
L 103.062361 238.747854 
L 103.92539 237.64524 
L 104.788419 237.093933 
L 105.651448 238.012778 
L 106.514477 237.64524 
L 107.377506 238.564085 
L 108.240535 240.034237 
L 109.103563 240.401775 
L 110.829621 240.769313 
L 111.69265 239.666699 
L 112.555679 238.931623 
L 113.418708 236.726395 
L 114.281737 232.867245 
L 115.144766 231.764631 
L 116.870824 228.640558 
L 117.733853 228.640558 
L 118.596882 229.559403 
L 119.459911 230.662017 
L 120.32294 232.499707 
L 121.185969 232.499707 
L 122.048998 232.683476 
L 122.912027 233.418552 
L 123.775056 233.234783 
L 124.638085 232.315938 
L 125.501114 232.315938 
L 126.364143 232.683476 
L 128.0902 230.11071 
L 129.816258 229.008096 
L 130.679287 226.619099 
L 131.542316 223.862563 
L 132.405345 219.635876 
L 133.268374 218.165724 
L 134.131403 215.960496 
L 134.994432 214.674112 
L 135.857461 215.04165 
L 136.72049 218.717031 
L 137.583519 217.981955 
L 138.446548 220.554721 
L 139.309577 221.473566 
L 140.172606 223.678794 
L 141.035635 223.311256 
L 141.898664 224.597639 
L 142.761693 222.392411 
L 143.624722 224.781409 
L 144.487751 222.392411 
L 145.35078 221.289797 
L 146.213808 219.452107 
L 147.076837 219.635876 
L 149.665924 213.939036 
L 150.528953 212.836422 
L 151.391982 210.447425 
L 152.255011 209.712349 
L 153.11804 208.609735 
L 153.981069 208.793504 
L 154.844098 211.182501 
L 155.707127 210.447425 
L 156.570156 208.977273 
L 157.433185 208.425966 
L 159.159243 203.464202 
L 160.022272 202.729126 
L 161.74833 192.070523 
L 162.611359 189.130218 
L 163.474388 184.535993 
L 164.337416 182.146996 
L 165.200445 182.882072 
L 166.063474 179.757998 
L 166.926503 179.757998 
L 167.789532 178.287846 
L 168.652561 172.0397 
L 169.51559 166.894167 
L 170.378619 162.48371 
L 171.241648 161.197327 
L 172.104677 163.402556 
L 172.967706 162.851249 
L 173.830735 163.218787 
L 174.693764 168.364319 
L 175.556793 170.753316 
L 176.419822 173.87739 
L 177.282851 173.509852 
L 178.14588 171.120854 
L 179.008909 172.407238 
L 179.871938 169.466933 
L 180.734967 162.48371 
L 181.597996 158.624561 
L 182.461024 152.743952 
L 183.324053 149.43611 
L 184.187082 148.701034 
L 185.050111 144.841885 
L 185.91314 145.944499 
L 186.776169 148.701034 
L 187.639198 150.354955 
L 188.502227 157.338178 
L 189.365256 161.564865 
L 191.091314 171.120854 
L 192.817372 178.104077 
L 193.680401 180.860613 
L 194.54343 182.514534 
L 195.406459 188.027604 
L 196.269488 188.946449 
L 197.995546 187.476297 
L 198.858575 188.578911 
L 199.721604 191.151678 
L 200.584633 193.356906 
L 201.447661 196.29721 
L 202.31069 198.686208 
L 203.173719 202.177819 
L 204.036748 203.83174 
L 204.899777 202.912895 
L 206.625835 202.912895 
L 207.488864 205.66943 
L 208.351893 210.263656 
L 209.214922 210.631194 
L 210.077951 210.079887 
L 210.94098 212.468884 
L 211.804009 211.917577 
L 212.667038 209.896118 
L 213.530067 208.793504 
L 214.393096 210.079887 
L 215.256125 211.733808 
L 216.119154 212.285115 
L 216.982183 211.917577 
L 217.845212 212.101346 
L 219.571269 213.939036 
L 220.434298 216.328034 
L 221.297327 217.430648 
L 222.160356 219.635876 
L 223.023385 220.003414 
L 223.886414 218.9008 
L 224.749443 217.246879 
L 225.612472 214.857881 
L 226.475501 213.387729 
L 227.33853 213.571498 
L 228.201559 213.020191 
L 229.064588 213.020191 
L 230.790646 213.387729 
L 233.379733 218.165724 
L 234.242762 219.268338 
L 235.96882 218.9008 
L 236.831849 217.06311 
L 237.694878 216.511803 
L 239.420935 213.387729 
L 240.283964 211.550039 
L 241.146993 211.917577 
L 242.010022 209.52858 
L 242.873051 209.712349 
L 243.73608 209.712349 
L 244.599109 210.631194 
L 246.325167 210.631194 
L 247.188196 208.793504 
L 248.051225 208.058428 
L 248.914254 205.485661 
L 249.777283 204.015509 
L 250.640312 204.015509 
L 251.503341 205.485661 
L 252.36637 206.220737 
L 253.229399 208.425966 
L 254.092428 209.161042 
L 254.955457 209.712349 
L 255.818486 211.182501 
L 256.681514 212.101346 
L 258.407572 213.20396 
L 259.270601 212.101346 
L 260.13363 213.387729 
L 261.859688 216.695572 
L 262.722717 217.614417 
L 263.585746 215.776726 
L 264.448775 216.328034 
L 266.174833 215.225419 
L 267.037862 213.755267 
L 267.900891 213.20396 
L 268.76392 213.571498 
L 269.626949 213.755267 
L 270.489978 210.079887 
L 271.353007 207.874659 
L 272.216036 203.83174 
L 273.079065 201.810281 
L 274.805122 201.075205 
L 275.668151 202.361588 
L 276.53118 202.729126 
L 277.394209 204.566816 
L 278.257238 204.383047 
L 279.120267 203.280433 
L 279.983296 203.096664 
L 281.709354 204.199278 
L 282.572383 202.729126 
L 283.435412 199.421284 
L 284.298441 197.767362 
L 285.16147 194.827058 
L 286.024499 190.600371 
L 286.887528 188.211373 
L 287.750557 183.800917 
L 290.339644 174.612466 
L 291.202673 172.591007 
L 292.065702 172.958545 
L 292.928731 173.142314 
L 293.791759 173.509852 
L 294.654788 173.509852 
L 295.517817 171.120854 
L 296.380846 174.796235 
L 297.243875 174.796235 
L 298.969933 170.202009 
L 299.832962 164.872708 
L 300.695991 157.521947 
L 301.55902 153.846567 
L 302.422049 152.192645 
L 303.285078 153.846567 
L 304.148107 153.11149 
L 305.011136 155.500488 
L 305.874165 150.354955 
L 306.737194 142.085349 
L 308.463252 119.665529 
L 309.326281 115.255072 
L 310.18931 122.789602 
L 311.052339 131.794284 
L 311.915367 137.674893 
L 312.778396 137.491124 
L 313.641425 135.102126 
L 314.504454 132.345591 
L 315.367483 127.751366 
L 316.230512 121.870757 
L 317.093541 117.827838 
L 317.95657 120.033067 
L 318.819599 127.200059 
L 319.682628 126.648751 
L 320.545657 129.037749 
L 321.408686 133.815743 
L 322.271715 140.982735 
L 323.134744 145.576961 
L 323.997773 154.765412 
L 324.860802 156.051795 
L 325.723831 164.137632 
L 326.58686 167.996781 
L 327.449889 175.163773 
L 328.312918 179.574229 
L 329.175947 187.108759 
L 330.902004 197.767362 
L 333.491091 204.383047 
L 334.35412 208.609735 
L 335.217149 211.733808 
L 336.080178 213.571498 
L 336.943207 216.511803 
L 338.669265 219.452107 
L 339.532294 220.187183 
L 340.395323 221.106028 
L 341.258352 222.759949 
L 342.121381 223.678794 
L 342.98441 224.230101 
L 343.847439 224.597639 
L 344.710468 225.332716 
L 345.573497 226.43533 
L 347.299555 230.662017 
L 348.162584 232.315938 
L 349.025612 233.234783 
L 350.75167 233.234783 
L 352.477728 232.499707 
L 353.340757 233.234783 
L 354.203786 233.234783 
L 355.066815 232.867245 
L 355.929844 232.867245 
L 356.792873 231.580862 
L 357.655902 231.029555 
L 358.518931 231.029555 
L 359.38196 231.580862 
L 360.244989 233.602321 
L 361.108018 234.521167 
L 361.971047 234.521167 
L 363.697105 235.256243 
L 366.286192 234.704936 
L 367.14922 234.888705 
L 368.012249 234.337398 
L 370.601336 230.662017 
L 371.464365 231.029555 
L 372.327394 230.11071 
L 373.190423 229.926941 
L 374.053452 229.191865 
L 374.916481 227.721713 
L 375.77951 225.148947 
L 376.642539 224.597639 
L 377.505568 221.657335 
L 378.368597 220.187183 
L 379.231626 217.981955 
L 381.820713 215.776726 
L 382.683742 214.306574 
L 383.546771 213.20396 
L 384.4098 209.896118 
L 385.272829 205.66943 
L 390.451002 173.142314 
L 391.314031 166.710398 
L 392.17706 161.197327 
L 393.040089 156.97064 
L 393.903118 154.214105 
L 394.766147 155.13295 
L 395.629176 155.13295 
L 396.492205 153.295259 
L 397.355234 153.846567 
L 398.218263 149.619879 
L 399.081292 147.230882 
L 400.80735 143.371732 
L 401.670379 143.187963 
L 402.533408 142.636656 
L 403.396437 140.982735 
L 404.259465 142.636656 
L 405.122494 141.166504 
L 405.985523 141.534042 
L 406.848552 143.923039 
L 407.711581 144.658115 
L 408.57461 143.923039 
L 409.437639 144.106808 
L 410.300668 139.328814 
L 411.163697 136.020972 
L 412.026726 134.183281 
L 412.889755 133.815743 
L 413.752784 135.837202 
L 414.615813 134.36705 
L 415.478842 133.815743 
L 416.341871 139.145045 
L 417.2049 143.004194 
L 418.067929 144.474346 
L 418.930958 147.047113 
L 419.793987 151.090031 
L 420.657016 152.560183 
L 421.520045 147.59842 
L 423.246102 130.140363 
L 424.109131 124.075985 
L 424.97216 119.48176 
L 426.698218 107.904311 
L 427.561247 101.472396 
L 429.287305 96.694401 
L 430.150334 90.630023 
L 431.013363 92.283945 
L 431.876392 96.510632 
L 432.739421 95.959325 
L 433.60245 92.283945 
L 434.465479 81.992879 
L 436.191537 73.355735 
L 437.054566 70.966738 
L 437.917595 72.253121 
L 438.780624 78.868806 
L 440.506682 94.489173 
L 441.36971 99.267167 
L 442.232739 108.271849 
L 443.095768 113.601151 
L 443.958797 121.135681 
L 444.821826 124.99483 
L 445.684855 127.935135 
L 446.547884 127.383828 
L 447.410913 136.38851 
L 448.273942 139.696352 
L 449.136971 144.474346 
L 450 152.008876 
L 450 152.008876 
" style="fill:none;stroke:#b3220f;stroke-linecap:square;stroke-width:1.5;"/>
   </g>
   <g id="patch_3">
    <path d="M 62.5 262.5 
L 62.5 27 
" style="fill:none;stroke:#555555;stroke-linecap:square;stroke-linejoin:miter;"/>
   </g>
   <g id="patch_4">
    <path d="M 62.5 262.5 
L 450 262.5 
" style="fill:none;stroke:#555555;stroke-linecap:square;stroke-linejoin:miter;"/>
   </g>
   <g id="text_14">
    <!-- Kennedy | Casos nuevos: 2021-06-18 -->
    <g style="fill:#555555;" transform="translate(138.373281 17)scale(0.14 -0.14)">
     <defs>
      <path d="M 7.796875 71.40625 
L 7.796875 0 
L 17.296875 0 
L 17.296875 25 
L 29.203125 36.09375 
L 55 0 
L 67 0 
L 35.703125 42.59375 
L 65.796875 71.40625 
L 53.5 71.40625 
L 17.296875 35.796875 
L 17.296875 71.40625 
z
" id="HelveticaNeue-75"/>
      <path d="M 12.59375 25.40625 
Q 12.59375 29.203125 13.390625 32.796875 
Q 14.203125 36.40625 16 39.203125 
Q 17.796875 42 20.796875 43.703125 
Q 23.796875 45.40625 28.09375 45.40625 
Q 32.5 45.40625 35.59375 43.75 
Q 38.703125 42.09375 40.640625 39.390625 
Q 42.59375 36.703125 43.5 33.140625 
Q 44.40625 29.59375 44.40625 25.796875 
Q 44.40625 22.203125 43.546875 18.703125 
Q 42.703125 15.203125 40.796875 12.453125 
Q 38.90625 9.703125 35.90625 8 
Q 32.90625 6.296875 28.59375 6.296875 
Q 24.5 6.296875 21.453125 7.890625 
Q 18.40625 9.5 16.453125 12.203125 
Q 14.5 14.90625 13.546875 18.34375 
Q 12.59375 21.796875 12.59375 25.40625 
z
M 52.59375 0 
L 52.59375 71.40625 
L 44.09375 71.40625 
L 44.09375 44.796875 
L 43.90625 44.796875 
Q 42.5 47.09375 40.453125 48.640625 
Q 38.40625 50.203125 36.09375 51.140625 
Q 33.796875 52.09375 31.5 52.5 
Q 29.203125 52.90625 27.203125 52.90625 
Q 21.296875 52.90625 16.84375 50.75 
Q 12.40625 48.59375 9.453125 44.9375 
Q 6.5 41.296875 5.046875 36.390625 
Q 3.59375 31.5 3.59375 26 
Q 3.59375 20.5 5.09375 15.59375 
Q 6.59375 10.703125 9.546875 7 
Q 12.5 3.296875 16.953125 1.09375 
Q 21.40625 -1.09375 27.40625 -1.09375 
Q 32.796875 -1.09375 37.296875 0.796875 
Q 41.796875 2.703125 43.90625 7 
L 44.09375 7 
L 44.09375 0 
z
" id="HelveticaNeue-100"/>
      <path d="M 26.703125 -6.90625 
Q 25.203125 -10.703125 23.75 -13.296875 
Q 22.296875 -15.90625 20.546875 -17.546875 
Q 18.796875 -19.203125 16.640625 -19.953125 
Q 14.5 -20.703125 11.703125 -20.703125 
Q 10.203125 -20.703125 8.703125 -20.5 
Q 7.203125 -20.296875 5.796875 -19.796875 
L 5.796875 -12 
Q 6.90625 -12.5 8.34375 -12.84375 
Q 9.796875 -13.203125 10.796875 -13.203125 
Q 13.40625 -13.203125 15.15625 -11.953125 
Q 16.90625 -10.703125 17.796875 -8.40625 
L 21.296875 0.296875 
L 0.796875 51.703125 
L 10.40625 51.703125 
L 25.5 9.40625 
L 25.703125 9.40625 
L 40.203125 51.703125 
L 49.203125 51.703125 
z
" id="HelveticaNeue-121"/>
      <path id="HelveticaNeue-32"/>
      <path d="M 7.703125 78.59375 
L 7.703125 -21.296875 
L 14.5 -21.296875 
L 14.5 78.59375 
z
" id="HelveticaNeue-124"/>
      <path d="M 58 49.90625 
L 67.5 49.90625 
Q 66.703125 55.59375 64.09375 59.9375 
Q 61.5 64.296875 57.59375 67.1875 
Q 53.703125 70.09375 48.703125 71.59375 
Q 43.703125 73.09375 38.09375 73.09375 
Q 29.90625 73.09375 23.546875 70.140625 
Q 17.203125 67.203125 12.953125 62.09375 
Q 8.703125 57 6.5 50.140625 
Q 4.296875 43.296875 4.296875 35.5 
Q 4.296875 27.703125 6.34375 20.890625 
Q 8.40625 14.09375 12.5 9.09375 
Q 16.59375 4.09375 22.796875 1.25 
Q 29 -1.59375 37.296875 -1.59375 
Q 51 -1.59375 58.890625 5.90625 
Q 66.796875 13.40625 68.203125 26.90625 
L 58.703125 26.90625 
Q 58.40625 22.5 56.90625 18.703125 
Q 55.40625 14.90625 52.75 12.15625 
Q 50.09375 9.40625 46.4375 7.84375 
Q 42.796875 6.296875 38.09375 6.296875 
Q 31.703125 6.296875 27.09375 8.6875 
Q 22.5 11.09375 19.546875 15.140625 
Q 16.59375 19.203125 15.1875 24.640625 
Q 13.796875 30.09375 13.796875 36.203125 
Q 13.796875 41.796875 15.1875 47 
Q 16.59375 52.203125 19.546875 56.25 
Q 22.5 60.296875 27.046875 62.6875 
Q 31.59375 65.09375 38 65.09375 
Q 45.5 65.09375 50.953125 61.296875 
Q 56.40625 57.5 58 49.90625 
z
" id="HelveticaNeue-67"/>
      <path d="M 11.59375 16.296875 
L 3.09375 16.296875 
Q 3.296875 11.5 5.09375 8.140625 
Q 6.90625 4.796875 9.90625 2.75 
Q 12.90625 0.703125 16.796875 -0.1875 
Q 20.703125 -1.09375 25 -1.09375 
Q 28.90625 -1.09375 32.84375 -0.34375 
Q 36.796875 0.40625 39.9375 2.296875 
Q 43.09375 4.203125 45.046875 7.296875 
Q 47 10.40625 47 15.09375 
Q 47 18.796875 45.546875 21.296875 
Q 44.09375 23.796875 41.75 25.4375 
Q 39.40625 27.09375 36.34375 28.09375 
Q 33.296875 29.09375 30.09375 29.796875 
Q 27.09375 30.5 24.09375 31.140625 
Q 21.09375 31.796875 18.6875 32.75 
Q 16.296875 33.703125 14.75 35.140625 
Q 13.203125 36.59375 13.203125 38.796875 
Q 13.203125 40.796875 14.203125 42.046875 
Q 15.203125 43.296875 16.796875 44.046875 
Q 18.40625 44.796875 20.34375 45.09375 
Q 22.296875 45.40625 24.203125 45.40625 
Q 26.296875 45.40625 28.34375 44.953125 
Q 30.40625 44.5 32.09375 43.5 
Q 33.796875 42.5 34.890625 40.84375 
Q 36 39.203125 36.203125 36.703125 
L 44.703125 36.703125 
Q 44.40625 41.40625 42.703125 44.546875 
Q 41 47.703125 38.140625 49.546875 
Q 35.296875 51.40625 31.59375 52.15625 
Q 27.90625 52.90625 23.5 52.90625 
Q 20.09375 52.90625 16.640625 52.046875 
Q 13.203125 51.203125 10.453125 49.453125 
Q 7.703125 47.703125 5.953125 44.890625 
Q 4.203125 42.09375 4.203125 38.203125 
Q 4.203125 33.203125 6.703125 30.390625 
Q 9.203125 27.59375 12.953125 26.046875 
Q 16.703125 24.5 21.09375 23.640625 
Q 25.5 22.796875 29.25 21.75 
Q 33 20.703125 35.5 19 
Q 38 17.296875 38 14 
Q 38 11.59375 36.796875 10.046875 
Q 35.59375 8.5 33.75 7.703125 
Q 31.90625 6.90625 29.703125 6.59375 
Q 27.5 6.296875 25.5 6.296875 
Q 22.90625 6.296875 20.453125 6.796875 
Q 18 7.296875 16.046875 8.4375 
Q 14.09375 9.59375 12.890625 11.546875 
Q 11.703125 13.5 11.59375 16.296875 
z
" id="HelveticaNeue-115"/>
      <path d="M 12.59375 25.796875 
Q 12.59375 30.5 13.84375 34.140625 
Q 15.09375 37.796875 17.296875 40.296875 
Q 19.5 42.796875 22.453125 44.09375 
Q 25.40625 45.40625 28.703125 45.40625 
Q 32 45.40625 34.953125 44.09375 
Q 37.90625 42.796875 40.09375 40.296875 
Q 42.296875 37.796875 43.546875 34.140625 
Q 44.796875 30.5 44.796875 25.796875 
Q 44.796875 21.09375 43.546875 17.4375 
Q 42.296875 13.796875 40.09375 11.34375 
Q 37.90625 8.90625 34.953125 7.59375 
Q 32 6.296875 28.703125 6.296875 
Q 25.40625 6.296875 22.453125 7.59375 
Q 19.5 8.90625 17.296875 11.34375 
Q 15.09375 13.796875 13.84375 17.4375 
Q 12.59375 21.09375 12.59375 25.796875 
z
M 3.59375 25.796875 
Q 3.59375 20.09375 5.1875 15.1875 
Q 6.796875 10.296875 10 6.640625 
Q 13.203125 3 17.890625 0.953125 
Q 22.59375 -1.09375 28.703125 -1.09375 
Q 34.90625 -1.09375 39.546875 0.953125 
Q 44.203125 3 47.390625 6.640625 
Q 50.59375 10.296875 52.1875 15.1875 
Q 53.796875 20.09375 53.796875 25.796875 
Q 53.796875 31.5 52.1875 36.453125 
Q 50.59375 41.40625 47.390625 45.046875 
Q 44.203125 48.703125 39.546875 50.796875 
Q 34.90625 52.90625 28.703125 52.90625 
Q 22.59375 52.90625 17.890625 50.796875 
Q 13.203125 48.703125 10 45.046875 
Q 6.796875 41.40625 5.1875 36.453125 
Q 3.59375 31.5 3.59375 25.796875 
z
" id="HelveticaNeue-111"/>
      <path d="M 29.703125 0 
L 48.59375 51.703125 
L 39.703125 51.703125 
L 25.59375 8.59375 
L 25.40625 8.59375 
L 10.90625 51.703125 
L 1.40625 51.703125 
L 20.59375 0 
z
" id="HelveticaNeue-118"/>
      <path d="M 19.40625 40.59375 
L 19.40625 51.703125 
L 8.296875 51.703125 
L 8.296875 40.59375 
z
M 8.296875 11.09375 
L 8.296875 0 
L 19.40625 0 
L 19.40625 11.09375 
z
" id="HelveticaNeue-58"/>
      <path d="M 5 31.796875 
L 5 23.796875 
L 33.90625 23.796875 
L 33.90625 31.796875 
z
" id="HelveticaNeue-45"/>
     </defs>
     <use xlink:href="#HelveticaNeue-75"/>
     <use x="66.699997" xlink:href="#HelveticaNeue-101"/>
     <use x="120.399994" xlink:href="#HelveticaNeue-110"/>
     <use x="175.999985" xlink:href="#HelveticaNeue-110"/>
     <use x="231.599976" xlink:href="#HelveticaNeue-101"/>
     <use x="285.299973" xlink:href="#HelveticaNeue-100"/>
     <use x="344.59996" xlink:href="#HelveticaNeue-121"/>
     <use x="394.599945" xlink:href="#HelveticaNeue-32"/>
     <use x="422.399933" xlink:href="#HelveticaNeue-124"/>
     <use x="444.59993" xlink:href="#HelveticaNeue-32"/>
     <use x="472.399918" xlink:href="#HelveticaNeue-67"/>
     <use x="544.599899" xlink:href="#HelveticaNeue-97"/>
     <use x="598.299896" xlink:href="#HelveticaNeue-115"/>
     <use x="648.299881" xlink:href="#HelveticaNeue-111"/>
     <use x="705.699875" xlink:href="#HelveticaNeue-115"/>
     <use x="755.69986" xlink:href="#HelveticaNeue-32"/>
     <use x="783.499847" xlink:href="#HelveticaNeue-110"/>
     <use x="839.099838" xlink:href="#HelveticaNeue-117"/>
     <use x="894.699829" xlink:href="#HelveticaNeue-101"/>
     <use x="948.399826" xlink:href="#HelveticaNeue-118"/>
     <use x="998.399811" xlink:href="#HelveticaNeue-111"/>
     <use x="1055.799805" xlink:href="#HelveticaNeue-115"/>
     <use x="1105.799789" xlink:href="#HelveticaNeue-58"/>
     <use x="1133.599777" xlink:href="#HelveticaNeue-32"/>
     <use x="1161.399765" xlink:href="#HelveticaNeue-50"/>
     <use x="1216.999756" xlink:href="#HelveticaNeue-48"/>
     <use x="1272.599747" xlink:href="#HelveticaNeue-50"/>
     <use x="1328.199738" xlink:href="#HelveticaNeue-49"/>
     <use x="1383.799728" xlink:href="#HelveticaNeue-45"/>
     <use x="1422.699722" xlink:href="#HelveticaNeue-48"/>
     <use x="1478.299713" xlink:href="#HelveticaNeue-54"/>
     <use x="1533.899704" xlink:href="#HelveticaNeue-45"/>
     <use x="1572.799698" xlink:href="#HelveticaNeue-49"/>
     <use x="1628.399689" xlink:href="#HelveticaNeue-56"/>
    </g>
   </g>
   <g id="legend_1">
    <g id="line2d_27">
     <path d="M 71.5 39.640625 
L 91.5 39.640625 
" style="fill:none;stroke:#000000;stroke-dasharray:1.5,2.475;stroke-dashoffset:0;stroke-opacity:0.5;stroke-width:1.5;"/>
    </g>
    <g id="line2d_28"/>
    <g id="text_15">
     <!-- Actual -->
     <g style="fill:#555555;" transform="translate(99.5 43.140625)scale(0.1 -0.1)">
      <use xlink:href="#HelveticaNeue-65"/>
      <use x="64.799988" xlink:href="#HelveticaNeue-99"/>
      <use x="118.499985" xlink:href="#HelveticaNeue-116"/>
      <use x="149.999969" xlink:href="#HelveticaNeue-117"/>
      <use x="205.59996" xlink:href="#HelveticaNeue-97"/>
      <use x="259.299957" xlink:href="#HelveticaNeue-108"/>
     </g>
    </g>
    <g id="line2d_29">
     <path d="M 71.5 54.310937 
L 91.5 54.310937 
" style="fill:none;stroke:#b3220f;stroke-linecap:square;stroke-width:1.5;"/>
    </g>
    <g id="line2d_30"/>
    <g id="text_16">
     <!-- Promedio semanal (7 das)  -->
     <g style="fill:#555555;" transform="translate(99.5 57.810937)scale(0.1 -0.1)">
      <defs>
       <path d="M 17.296875 37.203125 
L 17.296875 63.40625 
L 35.90625 63.40625 
Q 44 63.40625 47.75 60.046875 
Q 51.5 56.703125 51.5 50.296875 
Q 51.5 43.90625 47.75 40.5 
Q 44 37.09375 35.90625 37.203125 
z
M 7.796875 71.40625 
L 7.796875 0 
L 17.296875 0 
L 17.296875 29.203125 
L 39.09375 29.203125 
Q 49.90625 29.09375 55.453125 34.6875 
Q 61 40.296875 61 50.296875 
Q 61 60.296875 55.453125 65.84375 
Q 49.90625 71.40625 39.09375 71.40625 
z
" id="HelveticaNeue-80"/>
       <path d="M 6.40625 51.703125 
L 6.40625 0 
L 14.90625 0 
L 14.90625 32.203125 
Q 14.90625 33.703125 15.65625 35.953125 
Q 16.40625 38.203125 18.046875 40.296875 
Q 19.703125 42.40625 22.34375 43.90625 
Q 25 45.40625 28.703125 45.40625 
Q 31.59375 45.40625 33.4375 44.546875 
Q 35.296875 43.703125 36.390625 42.140625 
Q 37.5 40.59375 37.953125 38.5 
Q 38.40625 36.40625 38.40625 33.90625 
L 38.40625 0 
L 46.90625 0 
L 46.90625 32.203125 
Q 46.90625 38.203125 50.5 41.796875 
Q 54.09375 45.40625 60.40625 45.40625 
Q 63.5 45.40625 65.453125 44.5 
Q 67.40625 43.59375 68.5 42.046875 
Q 69.59375 40.5 70 38.390625 
Q 70.40625 36.296875 70.40625 33.90625 
L 70.40625 0 
L 78.90625 0 
L 78.90625 37.90625 
Q 78.90625 41.90625 77.65625 44.75 
Q 76.40625 47.59375 74.15625 49.390625 
Q 71.90625 51.203125 68.75 52.046875 
Q 65.59375 52.90625 61.703125 52.90625 
Q 56.59375 52.90625 52.34375 50.59375 
Q 48.09375 48.296875 45.5 44.09375 
Q 43.90625 48.90625 40 50.90625 
Q 36.09375 52.90625 31.296875 52.90625 
Q 20.40625 52.90625 14.59375 44.09375 
L 14.40625 44.09375 
L 14.40625 51.703125 
z
" id="HelveticaNeue-109"/>
       <path d="M 15.40625 61 
L 15.40625 71.40625 
L 6.90625 71.40625 
L 6.90625 61 
z
M 6.90625 51.703125 
L 6.90625 0 
L 15.40625 0 
L 15.40625 51.703125 
z
" id="HelveticaNeue-105"/>
       <path d="M 20.40625 -19.703125 
L 26.90625 -19.703125 
Q 19.796875 -8.203125 16.75 3.09375 
Q 13.703125 14.40625 13.703125 27 
Q 13.703125 39.296875 16.703125 50.5 
Q 19.703125 61.703125 26.90625 73.09375 
L 20.40625 73.09375 
Q 12.59375 62.796875 8.640625 50.796875 
Q 4.703125 38.796875 4.703125 27 
Q 4.703125 20.40625 5.796875 14.40625 
Q 6.90625 8.40625 8.953125 2.703125 
Q 11 -3 13.890625 -8.546875 
Q 16.796875 -14.09375 20.40625 -19.703125 
z
" id="HelveticaNeue-40"/>
       <path d="M 50.90625 62.40625 
L 50.90625 69.703125 
L 5 69.703125 
L 5 61.703125 
L 42.203125 61.703125 
Q 36.59375 55.796875 31.75 48.796875 
Q 26.90625 41.796875 23.203125 33.9375 
Q 19.5 26.09375 17.140625 17.546875 
Q 14.796875 9 14.203125 0 
L 23.703125 0 
Q 24.203125 8.296875 26.5 17.09375 
Q 28.796875 25.90625 32.4375 34.203125 
Q 36.09375 42.5 40.796875 49.796875 
Q 45.5 57.09375 50.90625 62.40625 
z
" id="HelveticaNeue-55"/>
       <path d="M 6.90625 0 
L 15.40625 0 
L 15.40625 51.703125 
L 6.90625 51.703125 
z
M 25.5 77 
L 11.40625 60.796875 
L 5 60.796875 
L 14.59375 77 
z
" id="HelveticaNeue-237"/>
       <path d="M -0.90625 -19.703125 
L 5.5 -19.703125 
Q 13.296875 -9.40625 17.25 2.546875 
Q 21.203125 14.5 21.203125 26.296875 
Q 21.203125 32.90625 20.09375 38.90625 
Q 19 44.90625 16.953125 50.65625 
Q 14.90625 56.40625 12 61.953125 
Q 9.09375 67.5 5.5 73.09375 
L -0.90625 73.09375 
Q 6.09375 61.59375 9.140625 50.25 
Q 12.203125 38.90625 12.203125 26.296875 
Q 12.203125 14.09375 9.203125 2.84375 
Q 6.203125 -8.40625 -0.90625 -19.703125 
z
" id="HelveticaNeue-41"/>
      </defs>
      <use xlink:href="#HelveticaNeue-80"/>
      <use x="64.799988" xlink:href="#HelveticaNeue-114"/>
      <use x="96.349976" xlink:href="#HelveticaNeue-111"/>
      <use x="153.749969" xlink:href="#HelveticaNeue-109"/>
      <use x="239.049957" xlink:href="#HelveticaNeue-101"/>
      <use x="292.749954" xlink:href="#HelveticaNeue-100"/>
      <use x="352.049942" xlink:href="#HelveticaNeue-105"/>
      <use x="374.249939" xlink:href="#HelveticaNeue-111"/>
      <use x="431.649933" xlink:href="#HelveticaNeue-32"/>
      <use x="459.449921" xlink:href="#HelveticaNeue-115"/>
      <use x="509.449905" xlink:href="#HelveticaNeue-101"/>
      <use x="563.149902" xlink:href="#HelveticaNeue-109"/>
      <use x="648.44989" xlink:href="#HelveticaNeue-97"/>
      <use x="702.149887" xlink:href="#HelveticaNeue-110"/>
      <use x="757.749878" xlink:href="#HelveticaNeue-97"/>
      <use x="811.449875" xlink:href="#HelveticaNeue-108"/>
      <use x="833.649872" xlink:href="#HelveticaNeue-32"/>
      <use x="861.44986" xlink:href="#HelveticaNeue-40"/>
      <use x="887.349854" xlink:href="#HelveticaNeue-55"/>
      <use x="942.949844" xlink:href="#HelveticaNeue-32"/>
      <use x="970.749832" xlink:href="#HelveticaNeue-100"/>
      <use x="1030.04982" xlink:href="#HelveticaNeue-237"/>
      <use x="1052.249817" xlink:href="#HelveticaNeue-97"/>
      <use x="1105.949814" xlink:href="#HelveticaNeue-115"/>
      <use x="1155.949799" xlink:href="#HelveticaNeue-41"/>
      <use x="1181.849792" xlink:href="#HelveticaNeue-32"/>
     </g>
    </g>
   </g>
  </g>
 </g>
 <defs>
  <clipPath id="p0d9836034d">
   <rect height="235.5" width="387.5" x="62.5" y="27"/>
  </clipPath>
 </defs>
</svg>
