<?xml version="1.0" encoding="utf-8" standalone="no"?>
<!DOCTYPE svg PUBLIC "-//W3C//DTD SVG 1.1//EN"
  "http://www.w3.org/Graphics/SVG/1.1/DTD/svg11.dtd">
<!-- Created with matplotlib (https://matplotlib.org/) -->
<svg height="300pt" version="1.1" viewBox="0 0 500 300" width="500pt" xmlns="http://www.w3.org/2000/svg" xmlns:xlink="http://www.w3.org/1999/xlink">
 <metadata>
  <rdf:RDF xmlns:cc="http://creativecommons.org/ns#" xmlns:dc="http://purl.org/dc/elements/1.1/" xmlns:rdf="http://www.w3.org/1999/02/22-rdf-syntax-ns#">
   <cc:Work>
    <dc:type rdf:resource="http://purl.org/dc/dcmitype/StillImage"/>
    <dc:date>2021-06-30T08:20:05.804815</dc:date>
    <dc:format>image/svg+xml</dc:format>
    <dc:creator>
     <cc:Agent>
      <dc:title>Matplotlib v3.3.4, https://matplotlib.org/</dc:title>
     </cc:Agent>
    </dc:creator>
   </cc:Work>
  </rdf:RDF>
 </metadata>
 <defs>
  <style type="text/css">*{stroke-linecap:butt;stroke-linejoin:round;}</style>
 </defs>
 <g id="figure_1">
  <g id="patch_1">
   <path d="M 0 300 
L 500 300 
L 500 0 
L 0 0 
z
" style="fill:#ffffff;"/>
  </g>
  <g id="axes_1">
   <g id="patch_2">
    <path d="M 62.5 262.5 
L 450 262.5 
L 450 27 
L 62.5 27 
z
" style="fill:#ffffff;"/>
   </g>
   <g id="matplotlib.axis_1">
    <g id="xtick_1">
     <g id="line2d_1">
      <defs>
       <path d="M 0 0 
L 0 3.5 
" id="m3f609e0577" style="stroke:#555555;stroke-width:0.8;"/>
      </defs>
      <g>
       <use style="fill:#555555;stroke:#555555;stroke-width:0.8;" x="62.5" xlink:href="#m3f609e0577" y="262.5"/>
      </g>
     </g>
    </g>
    <g id="xtick_2">
     <g id="line2d_2">
      <g>
       <use style="fill:#555555;stroke:#555555;stroke-width:0.8;" x="131.193182" xlink:href="#m3f609e0577" y="262.5"/>
      </g>
     </g>
     <g id="text_1">
      <!-- Jul -->
      <g style="fill:#555555;" transform="translate(124.708026 276.640625)scale(0.1 -0.1)">
       <defs>
        <path d="M 44.09375 17.796875 
L 44.09375 71.40625 
L 34.59375 71.40625 
L 34.59375 19.203125 
Q 34.59375 13.296875 32.140625 9.796875 
Q 29.703125 6.296875 23.203125 6.296875 
Q 19.703125 6.296875 17.453125 7.34375 
Q 15.203125 8.40625 13.953125 10.296875 
Q 12.703125 12.203125 12.203125 14.796875 
Q 11.703125 17.40625 11.703125 20.5 
L 11.703125 23.5 
L 2.203125 23.5 
L 2.203125 19.09375 
Q 2.203125 8.90625 7.59375 3.65625 
Q 13 -1.59375 23 -1.59375 
Q 29 -1.59375 33.046875 0.046875 
Q 37.09375 1.703125 39.546875 4.453125 
Q 42 7.203125 43.046875 10.703125 
Q 44.09375 14.203125 44.09375 17.796875 
z
" id="HelveticaNeue-74"/>
        <path d="M 49.203125 0 
L 49.203125 51.703125 
L 40.703125 51.703125 
L 40.703125 22.5 
Q 40.703125 19 39.75 16.046875 
Q 38.796875 13.09375 36.890625 10.890625 
Q 35 8.703125 32.140625 7.5 
Q 29.296875 6.296875 25.40625 6.296875 
Q 20.5 6.296875 17.703125 9.09375 
Q 14.90625 11.90625 14.90625 16.703125 
L 14.90625 51.703125 
L 6.40625 51.703125 
L 6.40625 17.703125 
Q 6.40625 13.5 7.25 10.046875 
Q 8.09375 6.59375 10.1875 4.09375 
Q 12.296875 1.59375 15.6875 0.25 
Q 19.09375 -1.09375 24.203125 -1.09375 
Q 29.90625 -1.09375 34.09375 1.15625 
Q 38.296875 3.40625 41 8.203125 
L 41.203125 8.203125 
L 41.203125 0 
z
" id="HelveticaNeue-117"/>
        <path d="M 6.90625 71.40625 
L 6.90625 0 
L 15.40625 0 
L 15.40625 71.40625 
z
" id="HelveticaNeue-108"/>
       </defs>
       <use xlink:href="#HelveticaNeue-74"/>
       <use x="51.899994" xlink:href="#HelveticaNeue-117"/>
       <use x="107.499985" xlink:href="#HelveticaNeue-108"/>
      </g>
     </g>
    </g>
    <g id="xtick_3">
     <g id="line2d_3">
      <g>
       <use style="fill:#555555;stroke:#555555;stroke-width:0.8;" x="212.215909" xlink:href="#m3f609e0577" y="262.5"/>
      </g>
     </g>
     <g id="text_2">
      <!-- Oct -->
      <g style="fill:#555555;" transform="translate(204.155753 276.640625)scale(0.1 -0.1)">
       <defs>
        <path d="M 13.296875 35.703125 
Q 13.296875 41.09375 14.6875 46.34375 
Q 16.09375 51.59375 19.09375 55.796875 
Q 22.09375 60 26.796875 62.546875 
Q 31.5 65.09375 38 65.09375 
Q 44.5 65.09375 49.203125 62.546875 
Q 53.90625 60 56.90625 55.796875 
Q 59.90625 51.59375 61.296875 46.34375 
Q 62.703125 41.09375 62.703125 35.703125 
Q 62.703125 30.296875 61.296875 25.046875 
Q 59.90625 19.796875 56.90625 15.59375 
Q 53.90625 11.40625 49.203125 8.84375 
Q 44.5 6.296875 38 6.296875 
Q 31.5 6.296875 26.796875 8.84375 
Q 22.09375 11.40625 19.09375 15.59375 
Q 16.09375 19.796875 14.6875 25.046875 
Q 13.296875 30.296875 13.296875 35.703125 
z
M 3.796875 35.703125 
Q 3.796875 28.40625 5.9375 21.65625 
Q 8.09375 14.90625 12.390625 9.703125 
Q 16.703125 4.5 23.09375 1.453125 
Q 29.5 -1.59375 38 -1.59375 
Q 46.5 -1.59375 52.890625 1.453125 
Q 59.296875 4.5 63.59375 9.703125 
Q 67.90625 14.90625 70.046875 21.65625 
Q 72.203125 28.40625 72.203125 35.703125 
Q 72.203125 43 70.046875 49.75 
Q 67.90625 56.5 63.59375 61.703125 
Q 59.296875 66.90625 52.890625 70 
Q 46.5 73.09375 38 73.09375 
Q 29.5 73.09375 23.09375 70 
Q 16.703125 66.90625 12.390625 61.703125 
Q 8.09375 56.5 5.9375 49.75 
Q 3.796875 43 3.796875 35.703125 
z
" id="HelveticaNeue-79"/>
        <path d="M 41.5 35.09375 
L 50.296875 35.09375 
Q 49.796875 39.703125 47.890625 43.046875 
Q 46 46.40625 43.046875 48.59375 
Q 40.09375 50.796875 36.25 51.84375 
Q 32.40625 52.90625 28 52.90625 
Q 21.90625 52.90625 17.296875 50.75 
Q 12.703125 48.59375 9.640625 44.84375 
Q 6.59375 41.09375 5.09375 36.046875 
Q 3.59375 31 3.59375 25.203125 
Q 3.59375 19.40625 5.140625 14.546875 
Q 6.703125 9.703125 9.75 6.203125 
Q 12.796875 2.703125 17.34375 0.796875 
Q 21.90625 -1.09375 27.796875 -1.09375 
Q 37.703125 -1.09375 43.453125 4.09375 
Q 49.203125 9.296875 50.59375 18.90625 
L 41.90625 18.90625 
Q 41.09375 12.90625 37.546875 9.59375 
Q 34 6.296875 27.703125 6.296875 
Q 23.703125 6.296875 20.796875 7.890625 
Q 17.90625 9.5 16.09375 12.140625 
Q 14.296875 14.796875 13.4375 18.1875 
Q 12.59375 21.59375 12.59375 25.203125 
Q 12.59375 29.09375 13.390625 32.75 
Q 14.203125 36.40625 16.046875 39.203125 
Q 17.90625 42 21 43.703125 
Q 24.09375 45.40625 28.703125 45.40625 
Q 34.09375 45.40625 37.296875 42.703125 
Q 40.5 40 41.5 35.09375 
z
" id="HelveticaNeue-99"/>
        <path d="M 18.203125 51.703125 
L 18.203125 67.203125 
L 9.703125 67.203125 
L 9.703125 51.703125 
L 0.90625 51.703125 
L 0.90625 44.203125 
L 9.703125 44.203125 
L 9.703125 11.296875 
Q 9.703125 7.703125 10.390625 5.5 
Q 11.09375 3.296875 12.546875 2.09375 
Q 14 0.90625 16.34375 0.453125 
Q 18.703125 0 22 0 
L 28.5 0 
L 28.5 7.5 
L 24.59375 7.5 
Q 22.59375 7.5 21.34375 7.640625 
Q 20.09375 7.796875 19.390625 8.296875 
Q 18.703125 8.796875 18.453125 9.6875 
Q 18.203125 10.59375 18.203125 12.09375 
L 18.203125 44.203125 
L 28.5 44.203125 
L 28.5 51.703125 
z
" id="HelveticaNeue-116"/>
       </defs>
       <use xlink:href="#HelveticaNeue-79"/>
       <use x="75.999985" xlink:href="#HelveticaNeue-99"/>
       <use x="129.699982" xlink:href="#HelveticaNeue-116"/>
      </g>
     </g>
    </g>
    <g id="xtick_4">
     <g id="line2d_4">
      <g>
       <use style="fill:#555555;stroke:#555555;stroke-width:0.8;" x="293.238636" xlink:href="#m3f609e0577" y="262.5"/>
      </g>
     </g>
     <g id="text_3">
      <!-- Jan -->
      <g style="fill:#555555;" transform="translate(285.17848 276.640625)scale(0.1 -0.1)">
       <defs>
        <path d="M 52.203125 0.203125 
Q 50 -1.09375 46.09375 -1.09375 
Q 42.796875 -1.09375 40.84375 0.75 
Q 38.90625 2.59375 38.90625 6.796875 
Q 35.40625 2.59375 30.75 0.75 
Q 26.09375 -1.09375 20.703125 -1.09375 
Q 17.203125 -1.09375 14.046875 -0.296875 
Q 10.90625 0.5 8.59375 2.203125 
Q 6.296875 3.90625 4.9375 6.65625 
Q 3.59375 9.40625 3.59375 13.296875 
Q 3.59375 17.703125 5.09375 20.5 
Q 6.59375 23.296875 9.046875 25.046875 
Q 11.5 26.796875 14.640625 27.6875 
Q 17.796875 28.59375 21.09375 29.203125 
Q 24.59375 29.90625 27.75 30.25 
Q 30.90625 30.59375 33.296875 31.25 
Q 35.703125 31.90625 37.09375 33.15625 
Q 38.5 34.40625 38.5 36.796875 
Q 38.5 39.59375 37.453125 41.296875 
Q 36.40625 43 34.75 43.890625 
Q 33.09375 44.796875 31.046875 45.09375 
Q 29 45.40625 27 45.40625 
Q 21.59375 45.40625 18 43.34375 
Q 14.40625 41.296875 14.09375 35.59375 
L 5.59375 35.59375 
Q 5.796875 40.40625 7.59375 43.703125 
Q 9.40625 47 12.40625 49.046875 
Q 15.40625 51.09375 19.25 52 
Q 23.09375 52.90625 27.5 52.90625 
Q 31 52.90625 34.453125 52.40625 
Q 37.90625 51.90625 40.703125 50.34375 
Q 43.5 48.796875 45.203125 46 
Q 46.90625 43.203125 46.90625 38.703125 
L 46.90625 12.09375 
Q 46.90625 9.09375 47.25 7.6875 
Q 47.59375 6.296875 49.59375 6.296875 
Q 50.703125 6.296875 52.203125 6.796875 
z
M 38.40625 26.703125 
Q 36.796875 25.5 34.1875 24.953125 
Q 31.59375 24.40625 28.75 24.046875 
Q 25.90625 23.703125 23 23.25 
Q 20.09375 22.796875 17.796875 21.796875 
Q 15.5 20.796875 14.046875 18.9375 
Q 12.59375 17.09375 12.59375 13.90625 
Q 12.59375 11.796875 13.4375 10.34375 
Q 14.296875 8.90625 15.640625 8 
Q 17 7.09375 18.796875 6.6875 
Q 20.59375 6.296875 22.59375 6.296875 
Q 26.796875 6.296875 29.796875 7.4375 
Q 32.796875 8.59375 34.6875 10.34375 
Q 36.59375 12.09375 37.5 14.140625 
Q 38.40625 16.203125 38.40625 18 
z
" id="HelveticaNeue-97"/>
        <path d="M 6.40625 51.703125 
L 6.40625 0 
L 14.90625 0 
L 14.90625 29.203125 
Q 14.90625 32.703125 15.84375 35.640625 
Q 16.796875 38.59375 18.6875 40.796875 
Q 20.59375 43 23.4375 44.203125 
Q 26.296875 45.40625 30.203125 45.40625 
Q 35.09375 45.40625 37.890625 42.59375 
Q 40.703125 39.796875 40.703125 35 
L 40.703125 0 
L 49.203125 0 
L 49.203125 34 
Q 49.203125 38.203125 48.34375 41.640625 
Q 47.5 45.09375 45.390625 47.59375 
Q 43.296875 50.09375 39.890625 51.5 
Q 36.5 52.90625 31.40625 52.90625 
Q 19.90625 52.90625 14.59375 43.5 
L 14.40625 43.5 
L 14.40625 51.703125 
z
" id="HelveticaNeue-110"/>
       </defs>
       <use xlink:href="#HelveticaNeue-74"/>
       <use x="51.899994" xlink:href="#HelveticaNeue-97"/>
       <use x="105.599991" xlink:href="#HelveticaNeue-110"/>
      </g>
      <!-- 2021 -->
      <g style="fill:#555555;" transform="translate(282.119886 287.179688)scale(0.1 -0.1)">
       <defs>
        <path d="M 4.40625 45.796875 
L 12.90625 45.796875 
Q 12.796875 49 13.546875 52.140625 
Q 14.296875 55.296875 16 57.796875 
Q 17.703125 60.296875 20.34375 61.84375 
Q 23 63.40625 26.703125 63.40625 
Q 29.5 63.40625 32 62.5 
Q 34.5 61.59375 36.34375 59.890625 
Q 38.203125 58.203125 39.296875 55.84375 
Q 40.40625 53.5 40.40625 50.59375 
Q 40.40625 46.90625 39.25 44.09375 
Q 38.09375 41.296875 35.84375 38.890625 
Q 33.59375 36.5 30.1875 34.140625 
Q 26.796875 31.796875 22.296875 29 
Q 18.59375 26.796875 15.1875 24.296875 
Q 11.796875 21.796875 9.09375 18.5 
Q 6.40625 15.203125 4.65625 10.75 
Q 2.90625 6.296875 2.40625 0 
L 48.703125 0 
L 48.703125 7.5 
L 12.296875 7.5 
Q 12.90625 10.796875 14.84375 13.34375 
Q 16.796875 15.90625 19.546875 18.09375 
Q 22.296875 20.296875 25.59375 22.25 
Q 28.90625 24.203125 32.203125 26.203125 
Q 35.5 28.296875 38.59375 30.59375 
Q 41.703125 32.90625 44.09375 35.75 
Q 46.5 38.59375 47.953125 42.1875 
Q 49.40625 45.796875 49.40625 50.5 
Q 49.40625 55.5 47.65625 59.296875 
Q 45.90625 63.09375 42.90625 65.640625 
Q 39.90625 68.203125 35.84375 69.546875 
Q 31.796875 70.90625 27.203125 70.90625 
Q 21.59375 70.90625 17.1875 69 
Q 12.796875 67.09375 9.84375 63.75 
Q 6.90625 60.40625 5.5 55.796875 
Q 4.09375 51.203125 4.40625 45.796875 
z
" id="HelveticaNeue-50"/>
        <path d="M 13.203125 34.90625 
Q 13.203125 37.5 13.25 40.640625 
Q 13.296875 43.796875 13.75 46.9375 
Q 14.203125 50.09375 15.046875 53.09375 
Q 15.90625 56.09375 17.546875 58.34375 
Q 19.203125 60.59375 21.703125 62 
Q 24.203125 63.40625 27.796875 63.40625 
Q 31.40625 63.40625 33.90625 62 
Q 36.40625 60.59375 38.046875 58.34375 
Q 39.703125 56.09375 40.546875 53.09375 
Q 41.40625 50.09375 41.84375 46.9375 
Q 42.296875 43.796875 42.34375 40.640625 
Q 42.40625 37.5 42.40625 34.90625 
Q 42.40625 30.90625 42.15625 25.953125 
Q 41.90625 21 40.546875 16.640625 
Q 39.203125 12.296875 36.203125 9.296875 
Q 33.203125 6.296875 27.796875 6.296875 
Q 22.40625 6.296875 19.40625 9.296875 
Q 16.40625 12.296875 15.046875 16.640625 
Q 13.703125 21 13.453125 25.953125 
Q 13.203125 30.90625 13.203125 34.90625 
z
M 4.203125 34.796875 
Q 4.203125 30.90625 4.390625 26.703125 
Q 4.59375 22.5 5.390625 18.5 
Q 6.203125 14.5 7.703125 10.953125 
Q 9.203125 7.40625 11.796875 4.703125 
Q 14.40625 2 18.34375 0.453125 
Q 22.296875 -1.09375 27.796875 -1.09375 
Q 33.40625 -1.09375 37.296875 0.453125 
Q 41.203125 2 43.796875 4.703125 
Q 46.40625 7.40625 47.90625 10.953125 
Q 49.40625 14.5 50.203125 18.5 
Q 51 22.5 51.203125 26.703125 
Q 51.40625 30.90625 51.40625 34.796875 
Q 51.40625 38.703125 51.203125 42.890625 
Q 51 47.09375 50.203125 51.09375 
Q 49.40625 55.09375 47.90625 58.6875 
Q 46.40625 62.296875 43.796875 65 
Q 41.203125 67.703125 37.25 69.296875 
Q 33.296875 70.90625 27.796875 70.90625 
Q 22.296875 70.90625 18.34375 69.296875 
Q 14.40625 67.703125 11.796875 65 
Q 9.203125 62.296875 7.703125 58.6875 
Q 6.203125 55.09375 5.390625 51.09375 
Q 4.59375 47.09375 4.390625 42.890625 
Q 4.203125 38.703125 4.203125 34.796875 
z
" id="HelveticaNeue-48"/>
        <path d="M 35.59375 0 
L 35.59375 70.90625 
L 29.09375 70.90625 
Q 28.40625 66.90625 26.5 64.296875 
Q 24.59375 61.703125 21.84375 60.203125 
Q 19.09375 58.703125 15.6875 58.140625 
Q 12.296875 57.59375 8.703125 57.59375 
L 8.703125 50.796875 
L 27.09375 50.796875 
L 27.09375 0 
z
" id="HelveticaNeue-49"/>
       </defs>
       <use xlink:href="#HelveticaNeue-50"/>
       <use x="55.599991" xlink:href="#HelveticaNeue-48"/>
       <use x="111.199982" xlink:href="#HelveticaNeue-50"/>
       <use x="166.799973" xlink:href="#HelveticaNeue-49"/>
      </g>
     </g>
    </g>
    <g id="xtick_5">
     <g id="line2d_5">
      <g>
       <use style="fill:#555555;stroke:#555555;stroke-width:0.8;" x="372.5" xlink:href="#m3f609e0577" y="262.5"/>
      </g>
     </g>
     <g id="text_4">
      <!-- Apr -->
      <g style="fill:#555555;" transform="translate(364.630469 276.640625)scale(0.1 -0.1)">
       <defs>
        <path d="M 20.09375 29.5 
L 32.203125 62.796875 
L 32.40625 62.796875 
L 44.296875 29.5 
z
M 27.203125 71.40625 
L -0.59375 0 
L 9.09375 0 
L 17.09375 21.5 
L 47.296875 21.5 
L 55.09375 0 
L 65.59375 0 
L 37.703125 71.40625 
z
" id="HelveticaNeue-65"/>
        <path d="M 6.703125 51.703125 
L 6.703125 -19.703125 
L 15.203125 -19.703125 
L 15.203125 6.90625 
L 15.40625 6.90625 
Q 16.796875 4.59375 18.84375 3.046875 
Q 20.90625 1.5 23.203125 0.59375 
Q 25.5 -0.296875 27.84375 -0.6875 
Q 30.203125 -1.09375 32.09375 -1.09375 
Q 38 -1.09375 42.453125 1 
Q 46.90625 3.09375 49.84375 6.75 
Q 52.796875 10.40625 54.25 15.296875 
Q 55.703125 20.203125 55.703125 25.703125 
Q 55.703125 31.203125 54.203125 36.09375 
Q 52.703125 41 49.75 44.75 
Q 46.796875 48.5 42.34375 50.703125 
Q 37.90625 52.90625 31.90625 52.90625 
Q 26.5 52.90625 22 50.953125 
Q 17.5 49 15.40625 44.703125 
L 15.203125 44.703125 
L 15.203125 51.703125 
z
M 46.703125 26.296875 
Q 46.703125 22.5 45.890625 18.890625 
Q 45.09375 15.296875 43.296875 12.5 
Q 41.5 9.703125 38.546875 8 
Q 35.59375 6.296875 31.203125 6.296875 
Q 26.796875 6.296875 23.6875 7.9375 
Q 20.59375 9.59375 18.640625 12.296875 
Q 16.703125 15 15.796875 18.546875 
Q 14.90625 22.09375 14.90625 25.90625 
Q 14.90625 29.5 15.75 33 
Q 16.59375 36.5 18.5 39.25 
Q 20.40625 42 23.40625 43.703125 
Q 26.40625 45.40625 30.703125 45.40625 
Q 34.796875 45.40625 37.84375 43.796875 
Q 40.90625 42.203125 42.84375 39.5 
Q 44.796875 36.796875 45.75 33.34375 
Q 46.703125 29.90625 46.703125 26.296875 
z
" id="HelveticaNeue-112"/>
        <path d="M 6.09375 51.703125 
L 6.09375 0 
L 14.59375 0 
L 14.59375 23 
Q 14.59375 28 15.59375 31.84375 
Q 16.59375 35.703125 18.796875 38.390625 
Q 21 41.09375 24.59375 42.5 
Q 28.203125 43.90625 33.296875 43.90625 
L 33.296875 52.90625 
Q 26.40625 53.09375 21.90625 50.09375 
Q 17.40625 47.09375 14.296875 40.796875 
L 14.09375 40.796875 
L 14.09375 51.703125 
z
" id="HelveticaNeue-114"/>
       </defs>
       <use xlink:href="#HelveticaNeue-65"/>
       <use x="64.799988" xlink:href="#HelveticaNeue-112"/>
       <use x="124.099976" xlink:href="#HelveticaNeue-114"/>
      </g>
     </g>
    </g>
    <g id="xtick_6">
     <g id="line2d_6">
      <g>
       <use style="fill:#555555;stroke:#555555;stroke-width:0.8;" x="450" xlink:href="#m3f609e0577" y="262.5"/>
      </g>
     </g>
    </g>
    <g id="xtick_7">
     <g id="line2d_7">
      <defs>
       <path d="M 0 0 
L 0 2 
" id="m9af216b75d" style="stroke:#555555;stroke-width:0.6;"/>
      </defs>
      <g>
       <use style="fill:#555555;stroke:#555555;stroke-width:0.6;" x="77.471591" xlink:href="#m9af216b75d" y="262.5"/>
      </g>
     </g>
    </g>
    <g id="xtick_8">
     <g id="line2d_8">
      <g>
       <use style="fill:#555555;stroke:#555555;stroke-width:0.6;" x="104.772727" xlink:href="#m9af216b75d" y="262.5"/>
      </g>
     </g>
    </g>
    <g id="xtick_9">
     <g id="line2d_9">
      <g>
       <use style="fill:#555555;stroke:#555555;stroke-width:0.6;" x="158.494318" xlink:href="#m9af216b75d" y="262.5"/>
      </g>
     </g>
    </g>
    <g id="xtick_10">
     <g id="line2d_10">
      <g>
       <use style="fill:#555555;stroke:#555555;stroke-width:0.6;" x="185.795455" xlink:href="#m9af216b75d" y="262.5"/>
      </g>
     </g>
    </g>
    <g id="xtick_11">
     <g id="line2d_11">
      <g>
       <use style="fill:#555555;stroke:#555555;stroke-width:0.6;" x="239.517045" xlink:href="#m9af216b75d" y="262.5"/>
      </g>
     </g>
    </g>
    <g id="xtick_12">
     <g id="line2d_12">
      <g>
       <use style="fill:#555555;stroke:#555555;stroke-width:0.6;" x="265.9375" xlink:href="#m9af216b75d" y="262.5"/>
      </g>
     </g>
    </g>
    <g id="xtick_13">
     <g id="line2d_13">
      <g>
       <use style="fill:#555555;stroke:#555555;stroke-width:0.6;" x="320.539773" xlink:href="#m9af216b75d" y="262.5"/>
      </g>
     </g>
    </g>
    <g id="xtick_14">
     <g id="line2d_14">
      <g>
       <use style="fill:#555555;stroke:#555555;stroke-width:0.6;" x="345.198864" xlink:href="#m9af216b75d" y="262.5"/>
      </g>
     </g>
    </g>
    <g id="xtick_15">
     <g id="line2d_15">
      <g>
       <use style="fill:#555555;stroke:#555555;stroke-width:0.6;" x="398.920455" xlink:href="#m9af216b75d" y="262.5"/>
      </g>
     </g>
    </g>
    <g id="xtick_16">
     <g id="line2d_16">
      <g>
       <use style="fill:#555555;stroke:#555555;stroke-width:0.6;" x="426.221591" xlink:href="#m9af216b75d" y="262.5"/>
      </g>
     </g>
    </g>
    <g id="text_5">
     <!-- fecha -->
     <g style="fill:#555555;" transform="translate(243.935156 300.290625)scale(0.1 -0.1)">
      <defs>
       <path d="M 9.90625 44.203125 
L 9.90625 0 
L 18.40625 0 
L 18.40625 44.203125 
L 28.40625 44.203125 
L 28.40625 51.703125 
L 18.40625 51.703125 
L 18.40625 58.90625 
Q 18.40625 62.296875 20.09375 63.5 
Q 21.796875 64.703125 24.90625 64.703125 
Q 26 64.703125 27.296875 64.546875 
Q 28.59375 64.40625 29.703125 64 
L 29.703125 71.40625 
Q 28.5 71.796875 26.953125 72 
Q 25.40625 72.203125 24.203125 72.203125 
Q 17.203125 72.203125 13.546875 68.953125 
Q 9.90625 65.703125 9.90625 59.40625 
L 9.90625 51.703125 
L 1.203125 51.703125 
L 1.203125 44.203125 
z
" id="HelveticaNeue-102"/>
       <path d="M 42.296875 30.796875 
L 12.59375 30.796875 
Q 12.796875 33.796875 13.890625 36.4375 
Q 15 39.09375 16.890625 41.09375 
Q 18.796875 43.09375 21.4375 44.25 
Q 24.09375 45.40625 27.40625 45.40625 
Q 30.59375 45.40625 33.25 44.25 
Q 35.90625 43.09375 37.84375 41.140625 
Q 39.796875 39.203125 40.9375 36.5 
Q 42.09375 33.796875 42.296875 30.796875 
z
M 50.5 16.40625 
L 42.09375 16.40625 
Q 41 11.296875 37.546875 8.796875 
Q 34.09375 6.296875 28.703125 6.296875 
Q 24.5 6.296875 21.390625 7.6875 
Q 18.296875 9.09375 16.296875 11.4375 
Q 14.296875 13.796875 13.390625 16.84375 
Q 12.5 19.90625 12.59375 23.296875 
L 51.296875 23.296875 
Q 51.5 28 50.453125 33.203125 
Q 49.40625 38.40625 46.65625 42.796875 
Q 43.90625 47.203125 39.34375 50.046875 
Q 34.796875 52.90625 27.90625 52.90625 
Q 22.59375 52.90625 18.140625 50.90625 
Q 13.703125 48.90625 10.453125 45.296875 
Q 7.203125 41.703125 5.390625 36.796875 
Q 3.59375 31.90625 3.59375 26 
Q 3.796875 20.09375 5.34375 15.09375 
Q 6.90625 10.09375 10 6.5 
Q 13.09375 2.90625 17.640625 0.90625 
Q 22.203125 -1.09375 28.40625 -1.09375 
Q 37.203125 -1.09375 43 3.296875 
Q 48.796875 7.703125 50.5 16.40625 
z
" id="HelveticaNeue-101"/>
       <path d="M 6.40625 71.40625 
L 6.40625 0 
L 14.90625 0 
L 14.90625 29.203125 
Q 14.90625 32.703125 15.84375 35.640625 
Q 16.796875 38.59375 18.6875 40.796875 
Q 20.59375 43 23.4375 44.203125 
Q 26.296875 45.40625 30.203125 45.40625 
Q 35.09375 45.40625 37.890625 42.59375 
Q 40.703125 39.796875 40.703125 35 
L 40.703125 0 
L 49.203125 0 
L 49.203125 34 
Q 49.203125 38.203125 48.34375 41.640625 
Q 47.5 45.09375 45.390625 47.59375 
Q 43.296875 50.09375 39.890625 51.5 
Q 36.5 52.90625 31.40625 52.90625 
Q 29.09375 52.90625 26.640625 52.40625 
Q 24.203125 51.90625 21.953125 50.84375 
Q 19.703125 49.796875 17.890625 48.140625 
Q 16.09375 46.5 15.09375 44.09375 
L 14.90625 44.09375 
L 14.90625 71.40625 
z
" id="HelveticaNeue-104"/>
      </defs>
      <use xlink:href="#HelveticaNeue-102"/>
      <use x="29.599991" xlink:href="#HelveticaNeue-101"/>
      <use x="83.299988" xlink:href="#HelveticaNeue-99"/>
      <use x="136.999985" xlink:href="#HelveticaNeue-104"/>
      <use x="192.599976" xlink:href="#HelveticaNeue-97"/>
     </g>
    </g>
   </g>
   <g id="matplotlib.axis_2">
    <g id="ytick_1">
     <g id="line2d_17">
      <defs>
       <path d="M 0 0 
L -3.5 0 
" id="m99a44acd40" style="stroke:#555555;stroke-width:0.8;"/>
      </defs>
      <g>
       <use style="fill:#555555;stroke:#555555;stroke-width:0.8;" x="62.5" xlink:href="#m99a44acd40" y="251.795455"/>
      </g>
     </g>
     <g id="text_6">
      <!-- 0 -->
      <g style="fill:#555555;" transform="translate(49.940625 255.365767)scale(0.1 -0.1)">
       <use xlink:href="#HelveticaNeue-48"/>
      </g>
     </g>
    </g>
    <g id="ytick_2">
     <g id="line2d_18">
      <g>
       <use style="fill:#555555;stroke:#555555;stroke-width:0.8;" x="62.5" xlink:href="#m99a44acd40" y="222.387363"/>
      </g>
     </g>
     <g id="text_7">
      <!-- 25 -->
      <g style="fill:#555555;" transform="translate(44.38125 225.957675)scale(0.1 -0.1)">
       <defs>
        <path d="M 47 62.203125 
L 47 69.703125 
L 12 69.703125 
L 5.40625 32.90625 
L 12.703125 32.5 
Q 15.203125 35.5 18.453125 37.34375 
Q 21.703125 39.203125 25.90625 39.203125 
Q 29.5 39.203125 32.453125 38 
Q 35.40625 36.796875 37.5 34.640625 
Q 39.59375 32.5 40.75 29.546875 
Q 41.90625 26.59375 41.90625 23.09375 
Q 41.90625 18.90625 40.703125 15.75 
Q 39.5 12.59375 37.453125 10.5 
Q 35.40625 8.40625 32.65625 7.34375 
Q 29.90625 6.296875 26.90625 6.296875 
Q 23.703125 6.296875 21.046875 7.25 
Q 18.40625 8.203125 16.453125 9.953125 
Q 14.5 11.703125 13.34375 14.046875 
Q 12.203125 16.40625 12 19.09375 
L 3.5 19.09375 
Q 3.59375 14.296875 5.390625 10.5 
Q 7.203125 6.703125 10.296875 4.140625 
Q 13.40625 1.59375 17.453125 0.25 
Q 21.5 -1.09375 26.09375 -1.09375 
Q 32.296875 -1.09375 36.9375 0.84375 
Q 41.59375 2.796875 44.6875 6.09375 
Q 47.796875 9.40625 49.34375 13.65625 
Q 50.90625 17.90625 50.90625 22.40625 
Q 50.90625 28.5 49.09375 33.046875 
Q 47.296875 37.59375 44.1875 40.640625 
Q 41.09375 43.703125 36.890625 45.203125 
Q 32.703125 46.703125 28 46.703125 
Q 24.40625 46.703125 20.75 45.453125 
Q 17.09375 44.203125 14.796875 41.59375 
L 14.59375 41.796875 
L 18.40625 62.203125 
z
" id="HelveticaNeue-53"/>
       </defs>
       <use xlink:href="#HelveticaNeue-50"/>
       <use x="55.599991" xlink:href="#HelveticaNeue-53"/>
      </g>
     </g>
    </g>
    <g id="ytick_3">
     <g id="line2d_19">
      <g>
       <use style="fill:#555555;stroke:#555555;stroke-width:0.8;" x="62.5" xlink:href="#m99a44acd40" y="192.979271"/>
      </g>
     </g>
     <g id="text_8">
      <!-- 50 -->
      <g style="fill:#555555;" transform="translate(44.38125 196.549583)scale(0.1 -0.1)">
       <use xlink:href="#HelveticaNeue-53"/>
       <use x="55.599991" xlink:href="#HelveticaNeue-48"/>
      </g>
     </g>
    </g>
    <g id="ytick_4">
     <g id="line2d_20">
      <g>
       <use style="fill:#555555;stroke:#555555;stroke-width:0.8;" x="62.5" xlink:href="#m99a44acd40" y="163.571179"/>
      </g>
     </g>
     <g id="text_9">
      <!-- 75 -->
      <g style="fill:#555555;" transform="translate(44.38125 167.141491)scale(0.1 -0.1)">
       <defs>
        <path d="M 50.90625 62.40625 
L 50.90625 69.703125 
L 5 69.703125 
L 5 61.703125 
L 42.203125 61.703125 
Q 36.59375 55.796875 31.75 48.796875 
Q 26.90625 41.796875 23.203125 33.9375 
Q 19.5 26.09375 17.140625 17.546875 
Q 14.796875 9 14.203125 0 
L 23.703125 0 
Q 24.203125 8.296875 26.5 17.09375 
Q 28.796875 25.90625 32.4375 34.203125 
Q 36.09375 42.5 40.796875 49.796875 
Q 45.5 57.09375 50.90625 62.40625 
z
" id="HelveticaNeue-55"/>
       </defs>
       <use xlink:href="#HelveticaNeue-55"/>
       <use x="55.599991" xlink:href="#HelveticaNeue-53"/>
      </g>
     </g>
    </g>
    <g id="ytick_5">
     <g id="line2d_21">
      <g>
       <use style="fill:#555555;stroke:#555555;stroke-width:0.8;" x="62.5" xlink:href="#m99a44acd40" y="134.163087"/>
      </g>
     </g>
     <g id="text_10">
      <!-- 100 -->
      <g style="fill:#555555;" transform="translate(38.821875 137.733399)scale(0.1 -0.1)">
       <use xlink:href="#HelveticaNeue-49"/>
       <use x="55.599991" xlink:href="#HelveticaNeue-48"/>
       <use x="111.199982" xlink:href="#HelveticaNeue-48"/>
      </g>
     </g>
    </g>
    <g id="ytick_6">
     <g id="line2d_22">
      <g>
       <use style="fill:#555555;stroke:#555555;stroke-width:0.8;" x="62.5" xlink:href="#m99a44acd40" y="104.754995"/>
      </g>
     </g>
     <g id="text_11">
      <!-- 125 -->
      <g style="fill:#555555;" transform="translate(38.821875 108.325308)scale(0.1 -0.1)">
       <use xlink:href="#HelveticaNeue-49"/>
       <use x="55.599991" xlink:href="#HelveticaNeue-50"/>
       <use x="111.199982" xlink:href="#HelveticaNeue-53"/>
      </g>
     </g>
    </g>
    <g id="ytick_7">
     <g id="line2d_23">
      <g>
       <use style="fill:#555555;stroke:#555555;stroke-width:0.8;" x="62.5" xlink:href="#m99a44acd40" y="75.346903"/>
      </g>
     </g>
     <g id="text_12">
      <!-- 150 -->
      <g style="fill:#555555;" transform="translate(38.821875 78.917216)scale(0.1 -0.1)">
       <use xlink:href="#HelveticaNeue-49"/>
       <use x="55.599991" xlink:href="#HelveticaNeue-53"/>
       <use x="111.199982" xlink:href="#HelveticaNeue-48"/>
      </g>
     </g>
    </g>
    <g id="ytick_8">
     <g id="line2d_24">
      <g>
       <use style="fill:#555555;stroke:#555555;stroke-width:0.8;" x="62.5" xlink:href="#m99a44acd40" y="45.938811"/>
      </g>
     </g>
     <g id="text_13">
      <!-- 175 -->
      <g style="fill:#555555;" transform="translate(38.821875 49.509124)scale(0.1 -0.1)">
       <use xlink:href="#HelveticaNeue-49"/>
       <use x="55.599991" xlink:href="#HelveticaNeue-55"/>
       <use x="111.199982" xlink:href="#HelveticaNeue-53"/>
      </g>
     </g>
    </g>
   </g>
   <g id="line2d_25">
    <path clip-path="url(#p5cc6c5d2f2)" d="M 62.5 251.795455 
L 63.380682 251.795455 
L 64.261364 250.619131 
L 66.022727 250.619131 
L 66.903409 251.795455 
L 67.784091 249.442807 
L 68.664773 251.795455 
L 69.545455 251.795455 
L 70.426136 250.619131 
L 71.306818 251.795455 
L 73.068182 251.795455 
L 73.948864 250.619131 
L 74.829545 251.795455 
L 75.710227 250.619131 
L 76.590909 241.208541 
L 77.471591 250.619131 
L 78.352273 251.795455 
L 79.232955 249.442807 
L 80.113636 249.442807 
L 80.994318 247.09016 
L 81.875 249.442807 
L 82.755682 244.737512 
L 83.636364 242.384865 
L 84.517045 250.619131 
L 85.397727 248.266484 
L 86.278409 250.619131 
L 87.159091 244.737512 
L 88.039773 248.266484 
L 88.920455 243.561189 
L 89.801136 249.442807 
L 90.681818 250.619131 
L 91.5625 245.913836 
L 92.443182 247.09016 
L 93.323864 244.737512 
L 94.204545 243.561189 
L 95.085227 247.09016 
L 95.965909 238.855894 
L 96.846591 244.737512 
L 97.727273 251.795455 
L 98.607955 243.561189 
L 99.488636 248.266484 
L 100.369318 234.150599 
L 101.25 102.402348 
L 102.130682 224.74001 
L 103.011364 241.208541 
L 103.892045 225.916334 
L 104.772727 240.032218 
L 105.653409 225.916334 
L 106.534091 242.384865 
L 107.414773 242.384865 
L 108.295455 244.737512 
L 109.176136 242.384865 
L 110.056818 235.326923 
L 110.9375 244.737512 
L 111.818182 234.150599 
L 112.698864 243.561189 
L 114.460227 243.561189 
L 115.340909 242.384865 
L 116.221591 240.032218 
L 117.102273 248.266484 
L 117.982955 227.092657 
L 118.863636 228.268981 
L 119.744318 230.621628 
L 120.625 231.797952 
L 121.505682 203.566184 
L 122.386364 237.67957 
L 123.267045 238.855894 
L 124.147727 235.326923 
L 125.028409 157.68956 
L 125.909091 238.855894 
L 126.789773 229.445305 
L 127.670455 224.74001 
L 128.551136 229.445305 
L 129.431818 245.913836 
L 130.3125 216.505744 
L 131.193182 203.566184 
L 132.073864 195.331918 
L 132.954545 235.326923 
L 133.835227 236.503247 
L 134.715909 228.268981 
L 135.596591 221.211039 
L 136.477273 209.447802 
L 137.357955 227.092657 
L 139.119318 227.092657 
L 140 231.797952 
L 140.880682 216.505744 
L 141.761364 220.034715 
L 142.642045 227.092657 
L 143.522727 187.097652 
L 144.403409 211.80045 
L 146.164773 184.745005 
L 147.045455 209.447802 
L 147.926136 227.092657 
L 148.806818 182.392358 
L 149.6875 215.329421 
L 150.568182 223.563686 
L 151.448864 189.4503 
L 152.329545 217.682068 
L 153.210227 195.331918 
L 154.090909 195.331918 
L 154.971591 196.508242 
L 155.852273 143.573676 
L 156.732955 204.742507 
L 157.613636 208.271479 
L 158.494318 202.38986 
L 159.375 209.447802 
L 160.255682 208.271479 
L 161.136364 174.158092 
L 162.017045 205.918831 
L 162.897727 210.624126 
L 163.778409 195.331918 
L 164.659091 208.271479 
L 165.539773 212.976773 
L 166.420455 182.392358 
L 167.301136 190.626623 
L 169.0625 223.563686 
L 169.943182 189.4503 
L 170.823864 200.037213 
L 171.704545 154.160589 
L 172.585227 220.034715 
L 173.465909 183.568681 
L 174.346591 220.034715 
L 175.227273 210.624126 
L 176.107955 222.387363 
L 176.988636 215.329421 
L 177.869318 205.918831 
L 178.75 217.682068 
L 179.630682 197.684565 
L 180.511364 204.742507 
L 181.392045 216.505744 
L 182.272727 180.03971 
L 183.153409 218.858392 
L 184.034091 194.155594 
L 184.914773 203.566184 
L 185.795455 221.211039 
L 186.676136 229.445305 
L 187.556818 209.447802 
L 188.4375 207.095155 
L 189.318182 224.74001 
L 190.198864 240.032218 
L 191.079545 209.447802 
L 191.960227 240.032218 
L 192.840909 241.208541 
L 193.721591 215.329421 
L 194.602273 220.034715 
L 195.482955 228.268981 
L 196.363636 235.326923 
L 197.244318 228.268981 
L 198.125 235.326923 
L 199.886364 208.271479 
L 200.767045 222.387363 
L 201.647727 228.268981 
L 202.528409 210.624126 
L 203.409091 225.916334 
L 204.289773 232.974276 
L 205.170455 227.092657 
L 206.051136 231.797952 
L 206.931818 240.032218 
L 207.8125 230.621628 
L 208.693182 235.326923 
L 209.573864 232.974276 
L 210.454545 231.797952 
L 211.335227 221.211039 
L 212.215909 217.682068 
L 213.096591 196.508242 
L 213.977273 223.563686 
L 214.857955 221.211039 
L 215.738636 236.503247 
L 216.619318 220.034715 
L 217.5 221.211039 
L 218.380682 209.447802 
L 219.261364 231.797952 
L 220.142045 229.445305 
L 221.022727 229.445305 
L 221.903409 237.67957 
L 222.784091 241.208541 
L 223.664773 231.797952 
L 224.545455 216.505744 
L 225.426136 225.916334 
L 226.306818 230.621628 
L 227.1875 237.67957 
L 228.068182 216.505744 
L 228.948864 215.329421 
L 229.829545 224.74001 
L 230.710227 228.268981 
L 231.590909 220.034715 
L 232.471591 231.797952 
L 233.352273 230.621628 
L 234.232955 216.505744 
L 235.113636 207.095155 
L 235.994318 212.976773 
L 236.875 192.979271 
L 237.755682 222.387363 
L 238.636364 204.742507 
L 239.517045 225.916334 
L 240.397727 227.092657 
L 241.278409 230.621628 
L 242.159091 227.092657 
L 243.039773 227.092657 
L 243.920455 222.387363 
L 244.801136 221.211039 
L 245.681818 217.682068 
L 246.5625 229.445305 
L 247.443182 222.387363 
L 248.323864 221.211039 
L 249.204545 217.682068 
L 250.085227 229.445305 
L 250.965909 232.974276 
L 251.846591 237.67957 
L 252.727273 220.034715 
L 253.607955 222.387363 
L 254.488636 228.268981 
L 255.369318 208.271479 
L 256.25 227.092657 
L 257.130682 216.505744 
L 258.011364 220.034715 
L 258.892045 232.974276 
L 259.772727 191.802947 
L 260.653409 207.095155 
L 261.534091 192.979271 
L 262.414773 190.626623 
L 263.295455 224.74001 
L 264.176136 215.329421 
L 265.9375 222.387363 
L 266.818182 214.153097 
L 267.698864 223.563686 
L 268.579545 208.271479 
L 269.460227 221.211039 
L 270.340909 229.445305 
L 271.221591 212.976773 
L 272.102273 235.326923 
L 272.982955 212.976773 
L 273.863636 220.034715 
L 274.744318 208.271479 
L 275.625 215.329421 
L 276.505682 214.153097 
L 277.386364 216.505744 
L 278.267045 182.392358 
L 279.147727 172.981768 
L 280.028409 197.684565 
L 281.789773 204.742507 
L 282.670455 190.626623 
L 283.551136 197.684565 
L 284.431818 172.981768 
L 285.3125 167.10015 
L 286.193182 181.216034 
L 287.073864 220.034715 
L 287.954545 198.860889 
L 288.835227 190.626623 
L 289.715909 178.863387 
L 290.596591 132.986763 
L 293.238636 224.74001 
L 294.119318 189.4503 
L 295 177.687063 
L 295.880682 201.213536 
L 296.761364 169.452797 
L 297.642045 183.568681 
L 298.522727 164.747502 
L 299.403409 163.571179 
L 300.284091 190.626623 
L 301.164773 203.566184 
L 302.045455 222.387363 
L 302.926136 122.39985 
L 303.806818 169.452797 
L 304.6875 128.281469 
L 305.568182 198.860889 
L 306.448864 136.515734 
L 307.329545 154.160589 
L 308.210227 197.684565 
L 309.090909 145.926324 
L 309.971591 180.03971 
L 310.852273 178.863387 
L 311.732955 187.097652 
L 312.613636 168.276474 
L 313.494318 200.037213 
L 314.375 152.984266 
L 315.255682 196.508242 
L 316.136364 190.626623 
L 317.017045 180.03971 
L 317.897727 205.918831 
L 318.778409 217.682068 
L 319.659091 205.918831 
L 320.539773 205.918831 
L 321.420455 216.505744 
L 322.301136 217.682068 
L 323.181818 217.682068 
L 324.0625 224.74001 
L 324.943182 238.855894 
L 325.823864 236.503247 
L 326.704545 221.211039 
L 328.465909 225.916334 
L 329.346591 220.034715 
L 330.227273 230.621628 
L 331.107955 234.150599 
L 331.988636 234.150599 
L 332.869318 237.67957 
L 333.75 225.916334 
L 334.630682 241.208541 
L 335.511364 228.268981 
L 336.392045 220.034715 
L 337.272727 238.855894 
L 338.153409 235.326923 
L 339.034091 238.855894 
L 339.914773 235.326923 
L 340.795455 232.974276 
L 341.676136 235.326923 
L 342.556818 225.916334 
L 343.4375 248.266484 
L 344.318182 238.855894 
L 345.198864 238.855894 
L 346.079545 235.326923 
L 346.960227 240.032218 
L 347.840909 235.326923 
L 348.721591 243.561189 
L 349.602273 244.737512 
L 351.363636 240.032218 
L 352.244318 249.442807 
L 354.886364 231.797952 
L 355.767045 243.561189 
L 356.647727 248.266484 
L 357.528409 232.974276 
L 358.409091 236.503247 
L 359.289773 234.150599 
L 360.170455 241.208541 
L 361.051136 234.150599 
L 361.931818 241.208541 
L 362.8125 241.208541 
L 363.693182 245.913836 
L 364.573864 240.032218 
L 365.454545 241.208541 
L 366.335227 238.855894 
L 367.215909 225.916334 
L 368.096591 220.034715 
L 368.977273 235.326923 
L 369.857955 222.387363 
L 370.738636 221.211039 
L 371.619318 212.976773 
L 372.5 229.445305 
L 373.380682 228.268981 
L 374.261364 234.150599 
L 375.142045 221.211039 
L 376.022727 221.211039 
L 376.903409 210.624126 
L 377.784091 224.74001 
L 378.664773 198.860889 
L 379.545455 201.213536 
L 380.426136 183.568681 
L 381.306818 223.563686 
L 382.1875 204.742507 
L 383.068182 191.802947 
L 383.948864 155.336913 
L 384.829545 176.510739 
L 385.710227 183.568681 
L 386.590909 183.568681 
L 387.471591 176.510739 
L 388.352273 177.687063 
L 389.232955 144.75 
L 390.113636 184.745005 
L 390.994318 162.394855 
L 391.875 170.629121 
L 392.755682 175.334416 
L 393.636364 211.80045 
L 394.517045 176.510739 
L 395.397727 180.03971 
L 396.278409 191.802947 
L 397.159091 208.271479 
L 398.039773 188.273976 
L 398.920455 205.918831 
L 399.801136 161.218531 
L 401.5625 212.976773 
L 402.443182 220.034715 
L 403.323864 155.336913 
L 404.204545 188.273976 
L 405.085227 176.510739 
L 405.965909 180.03971 
L 406.846591 201.213536 
L 407.727273 152.984266 
L 408.607955 168.276474 
L 409.488636 203.566184 
L 410.369318 188.273976 
L 411.25 163.571179 
L 412.130682 209.447802 
L 413.011364 191.802947 
L 413.892045 192.979271 
L 414.772727 191.802947 
L 415.653409 165.923826 
L 416.534091 154.160589 
L 417.414773 145.926324 
L 418.295455 176.510739 
L 420.056818 101.226024 
L 420.9375 143.573676 
L 421.818182 127.105145 
L 422.698864 151.807942 
L 423.579545 158.865884 
L 424.460227 187.097652 
L 425.340909 127.105145 
L 426.221591 140.044705 
L 427.102273 92.991758 
L 427.982955 165.923826 
L 428.863636 120.047203 
L 429.744318 95.344406 
L 430.625 187.097652 
L 431.505682 167.10015 
L 432.386364 167.10015 
L 433.267045 182.392358 
L 434.147727 203.566184 
L 435.909091 137.692058 
L 436.789773 187.097652 
L 437.670455 191.802947 
L 438.551136 130.634116 
L 439.431818 98.873377 
L 440.3125 156.513237 
L 441.193182 150.631618 
L 442.073864 169.452797 
L 442.954545 138.868382 
L 443.835227 37.704545 
L 444.715909 100.0497 
L 445.596591 97.697053 
L 446.477273 157.68956 
L 447.357955 97.697053 
L 448.238636 149.455295 
L 449.119318 178.863387 
L 450 203.566184 
L 450 203.566184 
" style="fill:none;stroke:#000000;stroke-dasharray:1.5,2.475;stroke-dashoffset:0;stroke-opacity:0.5;stroke-width:1.5;"/>
   </g>
   <g id="line2d_26">
    <path clip-path="url(#p5cc6c5d2f2)" d="M 62.5 250.619131 
L 68.664773 250.619131 
L 69.545455 251.795455 
L 73.068182 251.795455 
L 74.829545 249.442807 
L 77.471591 249.442807 
L 78.352273 248.266484 
L 79.232955 248.266484 
L 80.113636 249.442807 
L 81.875 247.09016 
L 86.278409 247.09016 
L 87.159091 248.266484 
L 88.039773 247.09016 
L 92.443182 247.09016 
L 94.204545 244.737512 
L 95.965909 244.737512 
L 96.846591 245.913836 
L 97.727273 244.737512 
L 98.607955 229.445305 
L 99.488636 222.387363 
L 101.25 212.976773 
L 102.130682 212.976773 
L 103.011364 214.153097 
L 103.892045 218.858392 
L 104.772727 234.150599 
L 105.653409 236.503247 
L 106.534091 237.67957 
L 107.414773 240.032218 
L 108.295455 240.032218 
L 109.176136 241.208541 
L 112.698864 241.208541 
L 113.579545 242.384865 
L 114.460227 242.384865 
L 116.221591 240.032218 
L 117.982955 235.326923 
L 118.863636 230.621628 
L 119.744318 228.268981 
L 120.625 227.092657 
L 121.505682 228.268981 
L 122.386364 222.387363 
L 124.147727 220.034715 
L 125.028409 221.211039 
L 125.909091 220.034715 
L 126.789773 222.387363 
L 127.670455 223.563686 
L 128.551136 228.268981 
L 129.431818 222.387363 
L 130.3125 221.211039 
L 132.073864 221.211039 
L 132.954545 220.034715 
L 133.835227 221.211039 
L 135.596591 225.916334 
L 137.357955 223.563686 
L 139.119318 223.563686 
L 140 224.74001 
L 140.880682 220.034715 
L 141.761364 217.682068 
L 142.642045 212.976773 
L 143.522727 207.095155 
L 144.403409 204.742507 
L 145.284091 204.742507 
L 146.164773 201.213536 
L 147.926136 205.918831 
L 148.806818 205.918831 
L 149.6875 209.447802 
L 150.568182 207.095155 
L 151.448864 203.566184 
L 152.329545 204.742507 
L 153.210227 195.331918 
L 154.090909 191.802947 
L 154.971591 191.802947 
L 155.852273 190.626623 
L 156.732955 192.979271 
L 157.613636 196.508242 
L 158.494318 196.508242 
L 159.375 202.38986 
L 160.255682 202.38986 
L 161.136364 200.037213 
L 162.897727 202.38986 
L 163.778409 200.037213 
L 164.659091 201.213536 
L 168.181818 201.213536 
L 169.0625 195.331918 
L 169.943182 197.684565 
L 170.823864 195.331918 
L 171.704545 196.508242 
L 172.585227 196.508242 
L 173.465909 201.213536 
L 174.346591 204.742507 
L 175.227273 211.80045 
L 176.107955 211.80045 
L 176.988636 212.976773 
L 177.869318 210.624126 
L 178.75 210.624126 
L 179.630682 205.918831 
L 180.511364 205.918831 
L 181.392045 203.566184 
L 182.272727 202.38986 
L 183.153409 204.742507 
L 184.034091 208.271479 
L 184.914773 208.271479 
L 185.795455 212.976773 
L 186.676136 214.153097 
L 187.556818 218.858392 
L 188.4375 220.034715 
L 191.079545 227.092657 
L 191.960227 228.268981 
L 192.840909 228.268981 
L 193.721591 227.092657 
L 194.602273 228.268981 
L 195.482955 228.268981 
L 196.363636 227.092657 
L 197.244318 227.092657 
L 199.005682 224.74001 
L 199.886364 221.211039 
L 201.647727 221.211039 
L 202.528409 222.387363 
L 203.409091 224.74001 
L 204.289773 228.268981 
L 205.170455 229.445305 
L 206.051136 231.797952 
L 206.931818 232.974276 
L 208.693182 232.974276 
L 209.573864 230.621628 
L 210.454545 224.74001 
L 212.215909 220.034715 
L 213.096591 218.858392 
L 213.977273 218.858392 
L 214.857955 220.034715 
L 215.738636 220.034715 
L 216.619318 223.563686 
L 217.5 223.563686 
L 218.380682 224.74001 
L 219.261364 224.74001 
L 220.142045 228.268981 
L 221.022727 230.621628 
L 221.903409 231.797952 
L 222.784091 230.621628 
L 224.545455 230.621628 
L 226.306818 225.916334 
L 227.1875 224.74001 
L 228.948864 224.74001 
L 229.829545 223.563686 
L 230.710227 223.563686 
L 231.590909 224.74001 
L 232.471591 223.563686 
L 233.352273 221.211039 
L 234.232955 216.505744 
L 235.113636 215.329421 
L 235.994318 211.80045 
L 236.875 210.624126 
L 237.755682 212.976773 
L 238.636364 216.505744 
L 239.517045 218.858392 
L 240.397727 223.563686 
L 242.159091 225.916334 
L 243.039773 224.74001 
L 243.920455 224.74001 
L 245.681818 222.387363 
L 247.443182 222.387363 
L 248.323864 223.563686 
L 249.204545 225.916334 
L 250.085227 225.916334 
L 250.965909 227.092657 
L 251.846591 227.092657 
L 253.607955 224.74001 
L 255.369318 220.034715 
L 256.25 221.211039 
L 258.011364 216.505744 
L 258.892045 212.976773 
L 259.772727 208.271479 
L 261.534091 205.918831 
L 262.414773 205.918831 
L 263.295455 210.624126 
L 264.176136 212.976773 
L 265.056818 216.505744 
L 265.9375 218.858392 
L 266.818182 217.682068 
L 267.698864 218.858392 
L 268.579545 218.858392 
L 270.340909 221.211039 
L 271.221591 221.211039 
L 272.982955 218.858392 
L 273.863636 216.505744 
L 274.744318 216.505744 
L 275.625 210.624126 
L 277.386364 201.213536 
L 280.028409 194.155594 
L 280.909091 192.979271 
L 281.789773 192.979271 
L 282.670455 191.802947 
L 283.551136 188.273976 
L 285.3125 188.273976 
L 286.193182 189.4503 
L 287.073864 189.4503 
L 288.835227 182.392358 
L 289.715909 180.03971 
L 290.596591 180.03971 
L 292.357955 182.392358 
L 294.119318 191.802947 
L 295 191.802947 
L 295.880682 187.097652 
L 296.761364 178.863387 
L 297.642045 177.687063 
L 298.522727 180.03971 
L 299.403409 183.568681 
L 300.284091 181.216034 
L 301.164773 180.03971 
L 302.045455 174.158092 
L 302.926136 174.158092 
L 303.806818 165.923826 
L 304.6875 160.042208 
L 305.568182 157.68956 
L 306.448864 161.218531 
L 307.329545 163.571179 
L 308.210227 169.452797 
L 309.090909 169.452797 
L 310.852273 178.863387 
L 311.732955 175.334416 
L 312.613636 180.03971 
L 314.375 182.392358 
L 315.255682 184.745005 
L 316.136364 190.626623 
L 317.017045 192.979271 
L 317.897727 200.037213 
L 318.778409 203.566184 
L 319.659091 208.271479 
L 320.539773 211.80045 
L 321.420455 214.153097 
L 322.301136 217.682068 
L 323.181818 222.387363 
L 324.943182 227.092657 
L 325.823864 228.268981 
L 326.704545 227.092657 
L 329.346591 227.092657 
L 330.227273 229.445305 
L 332.869318 232.974276 
L 333.75 231.797952 
L 336.392045 231.797952 
L 337.272727 232.974276 
L 338.153409 232.974276 
L 339.914773 235.326923 
L 340.795455 235.326923 
L 341.676136 236.503247 
L 343.4375 236.503247 
L 344.318182 237.67957 
L 345.198864 237.67957 
L 346.079545 238.855894 
L 346.960227 238.855894 
L 347.840909 240.032218 
L 348.721591 240.032218 
L 349.602273 242.384865 
L 350.482955 242.384865 
L 351.363636 243.561189 
L 353.125 241.208541 
L 354.886364 241.208541 
L 355.767045 238.855894 
L 358.409091 238.855894 
L 359.289773 237.67957 
L 360.170455 237.67957 
L 362.8125 241.208541 
L 363.693182 241.208541 
L 364.573864 240.032218 
L 365.454545 236.503247 
L 366.335227 235.326923 
L 367.215909 231.797952 
L 368.096591 229.445305 
L 368.977273 225.916334 
L 369.857955 223.563686 
L 370.738636 223.563686 
L 371.619318 224.74001 
L 373.380682 224.74001 
L 374.261364 223.563686 
L 375.142045 223.563686 
L 376.903409 216.505744 
L 377.784091 209.447802 
L 378.664773 208.271479 
L 380.426136 203.566184 
L 381.306818 196.508242 
L 382.1875 192.979271 
L 383.068182 188.273976 
L 383.948864 185.921329 
L 384.829545 180.03971 
L 385.710227 177.687063 
L 386.590909 172.981768 
L 387.471591 175.334416 
L 389.232955 170.629121 
L 390.113636 169.452797 
L 390.994318 174.158092 
L 391.875 175.334416 
L 392.755682 180.03971 
L 393.636364 182.392358 
L 394.517045 187.097652 
L 396.278409 194.155594 
L 397.159091 189.4503 
L 398.920455 191.802947 
L 399.801136 195.331918 
L 400.681818 190.626623 
L 401.5625 190.626623 
L 402.443182 188.273976 
L 404.204545 188.273976 
L 405.085227 181.216034 
L 405.965909 176.510739 
L 406.846591 180.03971 
L 407.727273 181.216034 
L 408.607955 180.03971 
L 409.488636 182.392358 
L 410.369318 183.568681 
L 411.25 188.273976 
L 412.130682 190.626623 
L 413.011364 188.273976 
L 414.772727 178.863387 
L 415.653409 172.981768 
L 416.534091 165.923826 
L 417.414773 154.160589 
L 418.295455 147.102647 
L 419.176136 141.221029 
L 420.056818 138.868382 
L 420.9375 138.868382 
L 421.818182 142.397353 
L 422.698864 144.75 
L 423.579545 149.455295 
L 424.460227 144.75 
L 425.340909 145.926324 
L 426.221591 140.044705 
L 427.102273 131.81044 
L 427.982955 130.634116 
L 429.744318 142.397353 
L 430.625 154.160589 
L 431.505682 161.218531 
L 432.386364 170.629121 
L 433.267045 175.334416 
L 434.147727 174.158092 
L 435.028409 176.510739 
L 435.909091 171.805445 
L 436.789773 161.218531 
L 437.670455 154.160589 
L 438.551136 149.455295 
L 439.431818 150.631618 
L 440.3125 145.926324 
L 441.193182 131.81044 
L 442.073864 125.928821 
L 443.835227 116.518232 
L 444.715909 109.46029 
L 445.596591 109.46029 
L 446.477273 117.694555 
L 447.357955 138.868382 
L 449.119318 160.042208 
L 450 164.747502 
L 450 164.747502 
" style="fill:none;stroke:#b3220f;stroke-linecap:square;stroke-width:1.5;"/>
   </g>
   <g id="patch_3">
    <path d="M 62.5 262.5 
L 62.5 27 
" style="fill:none;stroke:#555555;stroke-linecap:square;stroke-linejoin:miter;"/>
   </g>
   <g id="patch_4">
    <path d="M 62.5 262.5 
L 450 262.5 
" style="fill:none;stroke:#555555;stroke-linecap:square;stroke-linejoin:miter;"/>
   </g>
   <g id="text_14">
    <!-- Los Mártires | Casos nuevos: 2021-06-28 -->
    <g style="fill:#555555;" transform="translate(127.225781 17)scale(0.14 -0.14)">
     <defs>
      <path d="M 7.796875 71.40625 
L 7.796875 0 
L 55.09375 0 
L 55.09375 8 
L 17.296875 8 
L 17.296875 71.40625 
z
" id="HelveticaNeue-76"/>
      <path d="M 12.59375 25.796875 
Q 12.59375 30.5 13.84375 34.140625 
Q 15.09375 37.796875 17.296875 40.296875 
Q 19.5 42.796875 22.453125 44.09375 
Q 25.40625 45.40625 28.703125 45.40625 
Q 32 45.40625 34.953125 44.09375 
Q 37.90625 42.796875 40.09375 40.296875 
Q 42.296875 37.796875 43.546875 34.140625 
Q 44.796875 30.5 44.796875 25.796875 
Q 44.796875 21.09375 43.546875 17.4375 
Q 42.296875 13.796875 40.09375 11.34375 
Q 37.90625 8.90625 34.953125 7.59375 
Q 32 6.296875 28.703125 6.296875 
Q 25.40625 6.296875 22.453125 7.59375 
Q 19.5 8.90625 17.296875 11.34375 
Q 15.09375 13.796875 13.84375 17.4375 
Q 12.59375 21.09375 12.59375 25.796875 
z
M 3.59375 25.796875 
Q 3.59375 20.09375 5.1875 15.1875 
Q 6.796875 10.296875 10 6.640625 
Q 13.203125 3 17.890625 0.953125 
Q 22.59375 -1.09375 28.703125 -1.09375 
Q 34.90625 -1.09375 39.546875 0.953125 
Q 44.203125 3 47.390625 6.640625 
Q 50.59375 10.296875 52.1875 15.1875 
Q 53.796875 20.09375 53.796875 25.796875 
Q 53.796875 31.5 52.1875 36.453125 
Q 50.59375 41.40625 47.390625 45.046875 
Q 44.203125 48.703125 39.546875 50.796875 
Q 34.90625 52.90625 28.703125 52.90625 
Q 22.59375 52.90625 17.890625 50.796875 
Q 13.203125 48.703125 10 45.046875 
Q 6.796875 41.40625 5.1875 36.453125 
Q 3.59375 31.5 3.59375 25.796875 
z
" id="HelveticaNeue-111"/>
      <path d="M 11.59375 16.296875 
L 3.09375 16.296875 
Q 3.296875 11.5 5.09375 8.140625 
Q 6.90625 4.796875 9.90625 2.75 
Q 12.90625 0.703125 16.796875 -0.1875 
Q 20.703125 -1.09375 25 -1.09375 
Q 28.90625 -1.09375 32.84375 -0.34375 
Q 36.796875 0.40625 39.9375 2.296875 
Q 43.09375 4.203125 45.046875 7.296875 
Q 47 10.40625 47 15.09375 
Q 47 18.796875 45.546875 21.296875 
Q 44.09375 23.796875 41.75 25.4375 
Q 39.40625 27.09375 36.34375 28.09375 
Q 33.296875 29.09375 30.09375 29.796875 
Q 27.09375 30.5 24.09375 31.140625 
Q 21.09375 31.796875 18.6875 32.75 
Q 16.296875 33.703125 14.75 35.140625 
Q 13.203125 36.59375 13.203125 38.796875 
Q 13.203125 40.796875 14.203125 42.046875 
Q 15.203125 43.296875 16.796875 44.046875 
Q 18.40625 44.796875 20.34375 45.09375 
Q 22.296875 45.40625 24.203125 45.40625 
Q 26.296875 45.40625 28.34375 44.953125 
Q 30.40625 44.5 32.09375 43.5 
Q 33.796875 42.5 34.890625 40.84375 
Q 36 39.203125 36.203125 36.703125 
L 44.703125 36.703125 
Q 44.40625 41.40625 42.703125 44.546875 
Q 41 47.703125 38.140625 49.546875 
Q 35.296875 51.40625 31.59375 52.15625 
Q 27.90625 52.90625 23.5 52.90625 
Q 20.09375 52.90625 16.640625 52.046875 
Q 13.203125 51.203125 10.453125 49.453125 
Q 7.703125 47.703125 5.953125 44.890625 
Q 4.203125 42.09375 4.203125 38.203125 
Q 4.203125 33.203125 6.703125 30.390625 
Q 9.203125 27.59375 12.953125 26.046875 
Q 16.703125 24.5 21.09375 23.640625 
Q 25.5 22.796875 29.25 21.75 
Q 33 20.703125 35.5 19 
Q 38 17.296875 38 14 
Q 38 11.59375 36.796875 10.046875 
Q 35.59375 8.5 33.75 7.703125 
Q 31.90625 6.90625 29.703125 6.59375 
Q 27.5 6.296875 25.5 6.296875 
Q 22.90625 6.296875 20.453125 6.796875 
Q 18 7.296875 16.046875 8.4375 
Q 14.09375 9.59375 12.890625 11.546875 
Q 11.703125 13.5 11.59375 16.296875 
z
" id="HelveticaNeue-115"/>
      <path id="HelveticaNeue-32"/>
      <path d="M 8 71.40625 
L 8 0 
L 17 0 
L 17 59.40625 
L 17.203125 59.40625 
L 39.5 0 
L 47.59375 0 
L 69.90625 59.40625 
L 70.09375 59.40625 
L 70.09375 0 
L 79.09375 0 
L 79.09375 71.40625 
L 66.09375 71.40625 
L 43.5 11.40625 
L 21 71.40625 
z
" id="HelveticaNeue-77"/>
      <path d="M 52.203125 0.203125 
Q 50 -1.09375 46.09375 -1.09375 
Q 42.796875 -1.09375 40.84375 0.75 
Q 38.90625 2.59375 38.90625 6.796875 
Q 35.40625 2.59375 30.75 0.75 
Q 26.09375 -1.09375 20.703125 -1.09375 
Q 17.203125 -1.09375 14.046875 -0.296875 
Q 10.90625 0.5 8.59375 2.203125 
Q 6.296875 3.90625 4.9375 6.65625 
Q 3.59375 9.40625 3.59375 13.296875 
Q 3.59375 17.703125 5.09375 20.5 
Q 6.59375 23.296875 9.046875 25.046875 
Q 11.5 26.796875 14.640625 27.6875 
Q 17.796875 28.59375 21.09375 29.203125 
Q 24.59375 29.90625 27.75 30.25 
Q 30.90625 30.59375 33.296875 31.25 
Q 35.703125 31.90625 37.09375 33.15625 
Q 38.5 34.40625 38.5 36.796875 
Q 38.5 39.59375 37.453125 41.296875 
Q 36.40625 43 34.75 43.890625 
Q 33.09375 44.796875 31.046875 45.09375 
Q 29 45.40625 27 45.40625 
Q 21.59375 45.40625 18 43.34375 
Q 14.40625 41.296875 14.09375 35.59375 
L 5.59375 35.59375 
Q 5.796875 40.40625 7.59375 43.703125 
Q 9.40625 47 12.40625 49.046875 
Q 15.40625 51.09375 19.25 52 
Q 23.09375 52.90625 27.5 52.90625 
Q 31 52.90625 34.453125 52.40625 
Q 37.90625 51.90625 40.703125 50.34375 
Q 43.5 48.796875 45.203125 46 
Q 46.90625 43.203125 46.90625 38.703125 
L 46.90625 12.09375 
Q 46.90625 9.09375 47.25 7.6875 
Q 47.59375 6.296875 49.59375 6.296875 
Q 50.703125 6.296875 52.203125 6.796875 
z
M 38.40625 26.703125 
Q 36.796875 25.5 34.1875 24.953125 
Q 31.59375 24.40625 28.75 24.046875 
Q 25.90625 23.703125 23 23.25 
Q 20.09375 22.796875 17.796875 21.796875 
Q 15.5 20.796875 14.046875 18.9375 
Q 12.59375 17.09375 12.59375 13.90625 
Q 12.59375 11.796875 13.4375 10.34375 
Q 14.296875 8.90625 15.640625 8 
Q 17 7.09375 18.796875 6.6875 
Q 20.59375 6.296875 22.59375 6.296875 
Q 26.796875 6.296875 29.796875 7.4375 
Q 32.796875 8.59375 34.6875 10.34375 
Q 36.59375 12.09375 37.5 14.140625 
Q 38.40625 16.203125 38.40625 18 
z
M 41.296875 77 
L 27.203125 60.796875 
L 20.796875 60.796875 
L 30.40625 77 
z
" id="HelveticaNeue-225"/>
      <path d="M 15.40625 61 
L 15.40625 71.40625 
L 6.90625 71.40625 
L 6.90625 61 
z
M 6.90625 51.703125 
L 6.90625 0 
L 15.40625 0 
L 15.40625 51.703125 
z
" id="HelveticaNeue-105"/>
      <path d="M 7.703125 78.59375 
L 7.703125 -21.296875 
L 14.5 -21.296875 
L 14.5 78.59375 
z
" id="HelveticaNeue-124"/>
      <path d="M 58 49.90625 
L 67.5 49.90625 
Q 66.703125 55.59375 64.09375 59.9375 
Q 61.5 64.296875 57.59375 67.1875 
Q 53.703125 70.09375 48.703125 71.59375 
Q 43.703125 73.09375 38.09375 73.09375 
Q 29.90625 73.09375 23.546875 70.140625 
Q 17.203125 67.203125 12.953125 62.09375 
Q 8.703125 57 6.5 50.140625 
Q 4.296875 43.296875 4.296875 35.5 
Q 4.296875 27.703125 6.34375 20.890625 
Q 8.40625 14.09375 12.5 9.09375 
Q 16.59375 4.09375 22.796875 1.25 
Q 29 -1.59375 37.296875 -1.59375 
Q 51 -1.59375 58.890625 5.90625 
Q 66.796875 13.40625 68.203125 26.90625 
L 58.703125 26.90625 
Q 58.40625 22.5 56.90625 18.703125 
Q 55.40625 14.90625 52.75 12.15625 
Q 50.09375 9.40625 46.4375 7.84375 
Q 42.796875 6.296875 38.09375 6.296875 
Q 31.703125 6.296875 27.09375 8.6875 
Q 22.5 11.09375 19.546875 15.140625 
Q 16.59375 19.203125 15.1875 24.640625 
Q 13.796875 30.09375 13.796875 36.203125 
Q 13.796875 41.796875 15.1875 47 
Q 16.59375 52.203125 19.546875 56.25 
Q 22.5 60.296875 27.046875 62.6875 
Q 31.59375 65.09375 38 65.09375 
Q 45.5 65.09375 50.953125 61.296875 
Q 56.40625 57.5 58 49.90625 
z
" id="HelveticaNeue-67"/>
      <path d="M 29.703125 0 
L 48.59375 51.703125 
L 39.703125 51.703125 
L 25.59375 8.59375 
L 25.40625 8.59375 
L 10.90625 51.703125 
L 1.40625 51.703125 
L 20.59375 0 
z
" id="HelveticaNeue-118"/>
      <path d="M 19.40625 40.59375 
L 19.40625 51.703125 
L 8.296875 51.703125 
L 8.296875 40.59375 
z
M 8.296875 11.09375 
L 8.296875 0 
L 19.40625 0 
L 19.40625 11.09375 
z
" id="HelveticaNeue-58"/>
      <path d="M 5 31.796875 
L 5 23.796875 
L 33.90625 23.796875 
L 33.90625 31.796875 
z
" id="HelveticaNeue-45"/>
      <path d="M 41.40625 52.796875 
L 49.90625 52.796875 
Q 49.09375 61.59375 43.890625 66.25 
Q 38.703125 70.90625 29.90625 70.90625 
Q 22.296875 70.90625 17.296875 67.703125 
Q 12.296875 64.5 9.296875 59.203125 
Q 6.296875 53.90625 5.046875 47.046875 
Q 3.796875 40.203125 3.796875 32.90625 
Q 3.796875 27.296875 4.640625 21.296875 
Q 5.5 15.296875 8.09375 10.296875 
Q 10.703125 5.296875 15.5 2.09375 
Q 20.296875 -1.09375 28.203125 -1.09375 
Q 34.90625 -1.09375 39.453125 1.15625 
Q 44 3.40625 46.75 6.84375 
Q 49.5 10.296875 50.703125 14.5 
Q 51.90625 18.703125 51.90625 22.59375 
Q 51.90625 27.5 50.40625 31.703125 
Q 48.90625 35.90625 46.15625 39 
Q 43.40625 42.09375 39.34375 43.84375 
Q 35.296875 45.59375 30.203125 45.59375 
Q 24.40625 45.59375 19.953125 43.390625 
Q 15.5 41.203125 12.5 36.296875 
L 12.296875 36.5 
Q 12.40625 40.59375 13.09375 45.296875 
Q 13.796875 50 15.640625 54.046875 
Q 17.5 58.09375 20.796875 60.75 
Q 24.09375 63.40625 29.5 63.40625 
Q 34.59375 63.40625 37.6875 60.5 
Q 40.796875 57.59375 41.40625 52.796875 
z
M 28.59375 38.09375 
Q 32.203125 38.09375 34.890625 36.796875 
Q 37.59375 35.5 39.390625 33.34375 
Q 41.203125 31.203125 42.046875 28.25 
Q 42.90625 25.296875 42.90625 22 
Q 42.90625 18.90625 41.953125 16.046875 
Q 41 13.203125 39.203125 11 
Q 37.40625 8.796875 34.75 7.546875 
Q 32.09375 6.296875 28.59375 6.296875 
Q 25.09375 6.296875 22.34375 7.546875 
Q 19.59375 8.796875 17.75 10.890625 
Q 15.90625 13 14.90625 15.890625 
Q 13.90625 18.796875 13.90625 22.09375 
Q 13.90625 25.40625 14.84375 28.34375 
Q 15.796875 31.296875 17.6875 33.4375 
Q 19.59375 35.59375 22.296875 36.84375 
Q 25 38.09375 28.59375 38.09375 
z
" id="HelveticaNeue-54"/>
      <path d="M 15.5 52.5 
Q 15.5 55.203125 16.5 57.203125 
Q 17.5 59.203125 19.140625 60.59375 
Q 20.796875 62 23.09375 62.703125 
Q 25.40625 63.40625 27.90625 63.40625 
Q 33.09375 63.40625 36.4375 60.65625 
Q 39.796875 57.90625 39.796875 52.5 
Q 39.796875 47.09375 36.5 44.09375 
Q 33.203125 41.09375 28.09375 41.09375 
Q 25.5 41.09375 23.203125 41.796875 
Q 20.90625 42.5 19.203125 43.890625 
Q 17.5 45.296875 16.5 47.4375 
Q 15.5 49.59375 15.5 52.5 
z
M 6.5 52.796875 
Q 6.5 48 9.203125 43.953125 
Q 11.90625 39.90625 16.40625 38.09375 
Q 10.40625 36 7.203125 31.34375 
Q 4 26.703125 4 20.40625 
Q 4 15 5.84375 10.953125 
Q 7.703125 6.90625 10.953125 4.203125 
Q 14.203125 1.5 18.59375 0.203125 
Q 23 -1.09375 28.09375 -1.09375 
Q 33 -1.09375 37.296875 0.296875 
Q 41.59375 1.703125 44.75 4.453125 
Q 47.90625 7.203125 49.75 11.203125 
Q 51.59375 15.203125 51.59375 20.40625 
Q 51.59375 27 48.5 31.546875 
Q 45.40625 36.09375 39 38.09375 
Q 43.5 40.09375 46.140625 44.046875 
Q 48.796875 48 48.796875 52.796875 
Q 48.796875 56.203125 47.59375 59.453125 
Q 46.40625 62.703125 43.84375 65.25 
Q 41.296875 67.796875 37.1875 69.34375 
Q 33.09375 70.90625 27.296875 70.90625 
Q 23.203125 70.90625 19.453125 69.703125 
Q 15.703125 68.5 12.796875 66.203125 
Q 9.90625 63.90625 8.203125 60.546875 
Q 6.5 57.203125 6.5 52.796875 
z
M 13 20 
Q 13 23.09375 14.140625 25.59375 
Q 15.296875 28.09375 17.34375 29.890625 
Q 19.40625 31.703125 22.15625 32.640625 
Q 24.90625 33.59375 28 33.59375 
Q 31 33.59375 33.640625 32.546875 
Q 36.296875 31.5 38.296875 29.703125 
Q 40.296875 27.90625 41.4375 25.453125 
Q 42.59375 23 42.59375 20.09375 
Q 42.59375 17.09375 41.546875 14.59375 
Q 40.5 12.09375 38.546875 10.25 
Q 36.59375 8.40625 33.9375 7.34375 
Q 31.296875 6.296875 28.09375 6.296875 
Q 21.5 6.296875 17.25 9.9375 
Q 13 13.59375 13 20 
z
" id="HelveticaNeue-56"/>
     </defs>
     <use xlink:href="#HelveticaNeue-76"/>
     <use x="55.599991" xlink:href="#HelveticaNeue-111"/>
     <use x="112.999985" xlink:href="#HelveticaNeue-115"/>
     <use x="162.999969" xlink:href="#HelveticaNeue-32"/>
     <use x="190.799957" xlink:href="#HelveticaNeue-77"/>
     <use x="277.899948" xlink:href="#HelveticaNeue-225"/>
     <use x="331.599945" xlink:href="#HelveticaNeue-114"/>
     <use x="364.899933" xlink:href="#HelveticaNeue-116"/>
     <use x="396.399918" xlink:href="#HelveticaNeue-105"/>
     <use x="418.599915" xlink:href="#HelveticaNeue-114"/>
     <use x="450.149902" xlink:href="#HelveticaNeue-101"/>
     <use x="503.849899" xlink:href="#HelveticaNeue-115"/>
     <use x="553.849884" xlink:href="#HelveticaNeue-32"/>
     <use x="581.649872" xlink:href="#HelveticaNeue-124"/>
     <use x="603.849869" xlink:href="#HelveticaNeue-32"/>
     <use x="631.649857" xlink:href="#HelveticaNeue-67"/>
     <use x="703.849838" xlink:href="#HelveticaNeue-97"/>
     <use x="757.549835" xlink:href="#HelveticaNeue-115"/>
     <use x="807.54982" xlink:href="#HelveticaNeue-111"/>
     <use x="864.949814" xlink:href="#HelveticaNeue-115"/>
     <use x="914.949799" xlink:href="#HelveticaNeue-32"/>
     <use x="942.749786" xlink:href="#HelveticaNeue-110"/>
     <use x="998.349777" xlink:href="#HelveticaNeue-117"/>
     <use x="1053.949768" xlink:href="#HelveticaNeue-101"/>
     <use x="1107.649765" xlink:href="#HelveticaNeue-118"/>
     <use x="1157.64975" xlink:href="#HelveticaNeue-111"/>
     <use x="1215.049744" xlink:href="#HelveticaNeue-115"/>
     <use x="1265.049728" xlink:href="#HelveticaNeue-58"/>
     <use x="1292.849716" xlink:href="#HelveticaNeue-32"/>
     <use x="1320.649704" xlink:href="#HelveticaNeue-50"/>
     <use x="1376.249695" xlink:href="#HelveticaNeue-48"/>
     <use x="1431.849686" xlink:href="#HelveticaNeue-50"/>
     <use x="1487.449677" xlink:href="#HelveticaNeue-49"/>
     <use x="1543.049667" xlink:href="#HelveticaNeue-45"/>
     <use x="1581.949661" xlink:href="#HelveticaNeue-48"/>
     <use x="1637.549652" xlink:href="#HelveticaNeue-54"/>
     <use x="1693.149643" xlink:href="#HelveticaNeue-45"/>
     <use x="1732.049637" xlink:href="#HelveticaNeue-50"/>
     <use x="1787.649628" xlink:href="#HelveticaNeue-56"/>
    </g>
   </g>
   <g id="legend_1">
    <g id="line2d_27">
     <path d="M 71.5 39.640625 
L 91.5 39.640625 
" style="fill:none;stroke:#000000;stroke-dasharray:1.5,2.475;stroke-dashoffset:0;stroke-opacity:0.5;stroke-width:1.5;"/>
    </g>
    <g id="line2d_28"/>
    <g id="text_15">
     <!-- Actual -->
     <g style="fill:#555555;" transform="translate(99.5 43.140625)scale(0.1 -0.1)">
      <use xlink:href="#HelveticaNeue-65"/>
      <use x="64.799988" xlink:href="#HelveticaNeue-99"/>
      <use x="118.499985" xlink:href="#HelveticaNeue-116"/>
      <use x="149.999969" xlink:href="#HelveticaNeue-117"/>
      <use x="205.59996" xlink:href="#HelveticaNeue-97"/>
      <use x="259.299957" xlink:href="#HelveticaNeue-108"/>
     </g>
    </g>
    <g id="line2d_29">
     <path d="M 71.5 54.310937 
L 91.5 54.310937 
" style="fill:none;stroke:#b3220f;stroke-linecap:square;stroke-width:1.5;"/>
    </g>
    <g id="line2d_30"/>
    <g id="text_16">
     <!-- Promedio semanal (7 días)  -->
     <g style="fill:#555555;" transform="translate(99.5 57.810937)scale(0.1 -0.1)">
      <defs>
       <path d="M 17.296875 37.203125 
L 17.296875 63.40625 
L 35.90625 63.40625 
Q 44 63.40625 47.75 60.046875 
Q 51.5 56.703125 51.5 50.296875 
Q 51.5 43.90625 47.75 40.5 
Q 44 37.09375 35.90625 37.203125 
z
M 7.796875 71.40625 
L 7.796875 0 
L 17.296875 0 
L 17.296875 29.203125 
L 39.09375 29.203125 
Q 49.90625 29.09375 55.453125 34.6875 
Q 61 40.296875 61 50.296875 
Q 61 60.296875 55.453125 65.84375 
Q 49.90625 71.40625 39.09375 71.40625 
z
" id="HelveticaNeue-80"/>
       <path d="M 6.40625 51.703125 
L 6.40625 0 
L 14.90625 0 
L 14.90625 32.203125 
Q 14.90625 33.703125 15.65625 35.953125 
Q 16.40625 38.203125 18.046875 40.296875 
Q 19.703125 42.40625 22.34375 43.90625 
Q 25 45.40625 28.703125 45.40625 
Q 31.59375 45.40625 33.4375 44.546875 
Q 35.296875 43.703125 36.390625 42.140625 
Q 37.5 40.59375 37.953125 38.5 
Q 38.40625 36.40625 38.40625 33.90625 
L 38.40625 0 
L 46.90625 0 
L 46.90625 32.203125 
Q 46.90625 38.203125 50.5 41.796875 
Q 54.09375 45.40625 60.40625 45.40625 
Q 63.5 45.40625 65.453125 44.5 
Q 67.40625 43.59375 68.5 42.046875 
Q 69.59375 40.5 70 38.390625 
Q 70.40625 36.296875 70.40625 33.90625 
L 70.40625 0 
L 78.90625 0 
L 78.90625 37.90625 
Q 78.90625 41.90625 77.65625 44.75 
Q 76.40625 47.59375 74.15625 49.390625 
Q 71.90625 51.203125 68.75 52.046875 
Q 65.59375 52.90625 61.703125 52.90625 
Q 56.59375 52.90625 52.34375 50.59375 
Q 48.09375 48.296875 45.5 44.09375 
Q 43.90625 48.90625 40 50.90625 
Q 36.09375 52.90625 31.296875 52.90625 
Q 20.40625 52.90625 14.59375 44.09375 
L 14.40625 44.09375 
L 14.40625 51.703125 
z
" id="HelveticaNeue-109"/>
       <path d="M 12.59375 25.40625 
Q 12.59375 29.203125 13.390625 32.796875 
Q 14.203125 36.40625 16 39.203125 
Q 17.796875 42 20.796875 43.703125 
Q 23.796875 45.40625 28.09375 45.40625 
Q 32.5 45.40625 35.59375 43.75 
Q 38.703125 42.09375 40.640625 39.390625 
Q 42.59375 36.703125 43.5 33.140625 
Q 44.40625 29.59375 44.40625 25.796875 
Q 44.40625 22.203125 43.546875 18.703125 
Q 42.703125 15.203125 40.796875 12.453125 
Q 38.90625 9.703125 35.90625 8 
Q 32.90625 6.296875 28.59375 6.296875 
Q 24.5 6.296875 21.453125 7.890625 
Q 18.40625 9.5 16.453125 12.203125 
Q 14.5 14.90625 13.546875 18.34375 
Q 12.59375 21.796875 12.59375 25.40625 
z
M 52.59375 0 
L 52.59375 71.40625 
L 44.09375 71.40625 
L 44.09375 44.796875 
L 43.90625 44.796875 
Q 42.5 47.09375 40.453125 48.640625 
Q 38.40625 50.203125 36.09375 51.140625 
Q 33.796875 52.09375 31.5 52.5 
Q 29.203125 52.90625 27.203125 52.90625 
Q 21.296875 52.90625 16.84375 50.75 
Q 12.40625 48.59375 9.453125 44.9375 
Q 6.5 41.296875 5.046875 36.390625 
Q 3.59375 31.5 3.59375 26 
Q 3.59375 20.5 5.09375 15.59375 
Q 6.59375 10.703125 9.546875 7 
Q 12.5 3.296875 16.953125 1.09375 
Q 21.40625 -1.09375 27.40625 -1.09375 
Q 32.796875 -1.09375 37.296875 0.796875 
Q 41.796875 2.703125 43.90625 7 
L 44.09375 7 
L 44.09375 0 
z
" id="HelveticaNeue-100"/>
       <path d="M 20.40625 -19.703125 
L 26.90625 -19.703125 
Q 19.796875 -8.203125 16.75 3.09375 
Q 13.703125 14.40625 13.703125 27 
Q 13.703125 39.296875 16.703125 50.5 
Q 19.703125 61.703125 26.90625 73.09375 
L 20.40625 73.09375 
Q 12.59375 62.796875 8.640625 50.796875 
Q 4.703125 38.796875 4.703125 27 
Q 4.703125 20.40625 5.796875 14.40625 
Q 6.90625 8.40625 8.953125 2.703125 
Q 11 -3 13.890625 -8.546875 
Q 16.796875 -14.09375 20.40625 -19.703125 
z
" id="HelveticaNeue-40"/>
       <path d="M 6.90625 0 
L 15.40625 0 
L 15.40625 51.703125 
L 6.90625 51.703125 
z
M 25.5 77 
L 11.40625 60.796875 
L 5 60.796875 
L 14.59375 77 
z
" id="HelveticaNeue-237"/>
       <path d="M -0.90625 -19.703125 
L 5.5 -19.703125 
Q 13.296875 -9.40625 17.25 2.546875 
Q 21.203125 14.5 21.203125 26.296875 
Q 21.203125 32.90625 20.09375 38.90625 
Q 19 44.90625 16.953125 50.65625 
Q 14.90625 56.40625 12 61.953125 
Q 9.09375 67.5 5.5 73.09375 
L -0.90625 73.09375 
Q 6.09375 61.59375 9.140625 50.25 
Q 12.203125 38.90625 12.203125 26.296875 
Q 12.203125 14.09375 9.203125 2.84375 
Q 6.203125 -8.40625 -0.90625 -19.703125 
z
" id="HelveticaNeue-41"/>
      </defs>
      <use xlink:href="#HelveticaNeue-80"/>
      <use x="64.799988" xlink:href="#HelveticaNeue-114"/>
      <use x="96.349976" xlink:href="#HelveticaNeue-111"/>
      <use x="153.749969" xlink:href="#HelveticaNeue-109"/>
      <use x="239.049957" xlink:href="#HelveticaNeue-101"/>
      <use x="292.749954" xlink:href="#HelveticaNeue-100"/>
      <use x="352.049942" xlink:href="#HelveticaNeue-105"/>
      <use x="374.249939" xlink:href="#HelveticaNeue-111"/>
      <use x="431.649933" xlink:href="#HelveticaNeue-32"/>
      <use x="459.449921" xlink:href="#HelveticaNeue-115"/>
      <use x="509.449905" xlink:href="#HelveticaNeue-101"/>
      <use x="563.149902" xlink:href="#HelveticaNeue-109"/>
      <use x="648.44989" xlink:href="#HelveticaNeue-97"/>
      <use x="702.149887" xlink:href="#HelveticaNeue-110"/>
      <use x="757.749878" xlink:href="#HelveticaNeue-97"/>
      <use x="811.449875" xlink:href="#HelveticaNeue-108"/>
      <use x="833.649872" xlink:href="#HelveticaNeue-32"/>
      <use x="861.44986" xlink:href="#HelveticaNeue-40"/>
      <use x="887.349854" xlink:href="#HelveticaNeue-55"/>
      <use x="942.949844" xlink:href="#HelveticaNeue-32"/>
      <use x="970.749832" xlink:href="#HelveticaNeue-100"/>
      <use x="1030.04982" xlink:href="#HelveticaNeue-237"/>
      <use x="1052.249817" xlink:href="#HelveticaNeue-97"/>
      <use x="1105.949814" xlink:href="#HelveticaNeue-115"/>
      <use x="1155.949799" xlink:href="#HelveticaNeue-41"/>
      <use x="1181.849792" xlink:href="#HelveticaNeue-32"/>
     </g>
    </g>
   </g>
  </g>
 </g>
 <defs>
  <clipPath id="p5cc6c5d2f2">
   <rect height="235.5" width="387.5" x="62.5" y="27"/>
  </clipPath>
 </defs>
</svg>
