<?xml version="1.0" encoding="utf-8" standalone="no"?>
<!DOCTYPE svg PUBLIC "-//W3C//DTD SVG 1.1//EN"
  "http://www.w3.org/Graphics/SVG/1.1/DTD/svg11.dtd">
<!-- Created with matplotlib (https://matplotlib.org/) -->
<svg height="300pt" version="1.1" viewBox="0 0 500 300" width="500pt" xmlns="http://www.w3.org/2000/svg" xmlns:xlink="http://www.w3.org/1999/xlink">
 <metadata>
  <rdf:RDF xmlns:cc="http://creativecommons.org/ns#" xmlns:dc="http://purl.org/dc/elements/1.1/" xmlns:rdf="http://www.w3.org/1999/02/22-rdf-syntax-ns#">
   <cc:Work>
    <dc:type rdf:resource="http://purl.org/dc/dcmitype/StillImage"/>
    <dc:date>2021-06-11T19:12:39.214354</dc:date>
    <dc:format>image/svg+xml</dc:format>
    <dc:creator>
     <cc:Agent>
      <dc:title>Matplotlib v3.3.4, https://matplotlib.org/</dc:title>
     </cc:Agent>
    </dc:creator>
   </cc:Work>
  </rdf:RDF>
 </metadata>
 <defs>
  <style type="text/css">*{stroke-linecap:butt;stroke-linejoin:round;}</style>
 </defs>
 <g id="figure_1">
  <g id="patch_1">
   <path d="M 0 300 
L 500 300 
L 500 0 
L 0 0 
z
" style="fill:#ffffff;"/>
  </g>
  <g id="axes_1">
   <g id="patch_2">
    <path d="M 62.5 262.5 
L 450 262.5 
L 450 27 
L 62.5 27 
z
" style="fill:#ffffff;"/>
   </g>
   <g id="matplotlib.axis_1">
    <g id="xtick_1">
     <g id="line2d_1">
      <defs>
       <path d="M 0 0 
L 0 3.5 
" id="m2c305d6ec3" style="stroke:#555555;stroke-width:0.8;"/>
      </defs>
      <g>
       <use style="fill:#555555;stroke:#555555;stroke-width:0.8;" x="62.5" xlink:href="#m2c305d6ec3" y="262.5"/>
      </g>
     </g>
    </g>
    <g id="xtick_2">
     <g id="line2d_2">
      <g>
       <use style="fill:#555555;stroke:#555555;stroke-width:0.8;" x="138.176471" xlink:href="#m2c305d6ec3" y="262.5"/>
      </g>
     </g>
     <g id="text_1">
      <!-- Jul -->
      <g style="fill:#555555;" transform="translate(131.691314 276.640625)scale(0.1 -0.1)">
       <defs>
        <path d="M 44.09375 17.796875 
L 44.09375 71.40625 
L 34.59375 71.40625 
L 34.59375 19.203125 
Q 34.59375 13.296875 32.140625 9.796875 
Q 29.703125 6.296875 23.203125 6.296875 
Q 19.703125 6.296875 17.453125 7.34375 
Q 15.203125 8.40625 13.953125 10.296875 
Q 12.703125 12.203125 12.203125 14.796875 
Q 11.703125 17.40625 11.703125 20.5 
L 11.703125 23.5 
L 2.203125 23.5 
L 2.203125 19.09375 
Q 2.203125 8.90625 7.59375 3.65625 
Q 13 -1.59375 23 -1.59375 
Q 29 -1.59375 33.046875 0.046875 
Q 37.09375 1.703125 39.546875 4.453125 
Q 42 7.203125 43.046875 10.703125 
Q 44.09375 14.203125 44.09375 17.796875 
z
" id="HelveticaNeue-74"/>
        <path d="M 49.203125 0 
L 49.203125 51.703125 
L 40.703125 51.703125 
L 40.703125 22.5 
Q 40.703125 19 39.75 16.046875 
Q 38.796875 13.09375 36.890625 10.890625 
Q 35 8.703125 32.140625 7.5 
Q 29.296875 6.296875 25.40625 6.296875 
Q 20.5 6.296875 17.703125 9.09375 
Q 14.90625 11.90625 14.90625 16.703125 
L 14.90625 51.703125 
L 6.40625 51.703125 
L 6.40625 17.703125 
Q 6.40625 13.5 7.25 10.046875 
Q 8.09375 6.59375 10.1875 4.09375 
Q 12.296875 1.59375 15.6875 0.25 
Q 19.09375 -1.09375 24.203125 -1.09375 
Q 29.90625 -1.09375 34.09375 1.15625 
Q 38.296875 3.40625 41 8.203125 
L 41.203125 8.203125 
L 41.203125 0 
z
" id="HelveticaNeue-117"/>
        <path d="M 6.90625 71.40625 
L 6.90625 0 
L 15.40625 0 
L 15.40625 71.40625 
z
" id="HelveticaNeue-108"/>
       </defs>
       <use xlink:href="#HelveticaNeue-74"/>
       <use x="51.899994" xlink:href="#HelveticaNeue-117"/>
       <use x="107.499985" xlink:href="#HelveticaNeue-108"/>
      </g>
     </g>
    </g>
    <g id="xtick_3">
     <g id="line2d_3">
      <g>
       <use style="fill:#555555;stroke:#555555;stroke-width:0.8;" x="222.058824" xlink:href="#m2c305d6ec3" y="262.5"/>
      </g>
     </g>
     <g id="text_2">
      <!-- Oct -->
      <g style="fill:#555555;" transform="translate(213.998667 276.640625)scale(0.1 -0.1)">
       <defs>
        <path d="M 13.296875 35.703125 
Q 13.296875 41.09375 14.6875 46.34375 
Q 16.09375 51.59375 19.09375 55.796875 
Q 22.09375 60 26.796875 62.546875 
Q 31.5 65.09375 38 65.09375 
Q 44.5 65.09375 49.203125 62.546875 
Q 53.90625 60 56.90625 55.796875 
Q 59.90625 51.59375 61.296875 46.34375 
Q 62.703125 41.09375 62.703125 35.703125 
Q 62.703125 30.296875 61.296875 25.046875 
Q 59.90625 19.796875 56.90625 15.59375 
Q 53.90625 11.40625 49.203125 8.84375 
Q 44.5 6.296875 38 6.296875 
Q 31.5 6.296875 26.796875 8.84375 
Q 22.09375 11.40625 19.09375 15.59375 
Q 16.09375 19.796875 14.6875 25.046875 
Q 13.296875 30.296875 13.296875 35.703125 
z
M 3.796875 35.703125 
Q 3.796875 28.40625 5.9375 21.65625 
Q 8.09375 14.90625 12.390625 9.703125 
Q 16.703125 4.5 23.09375 1.453125 
Q 29.5 -1.59375 38 -1.59375 
Q 46.5 -1.59375 52.890625 1.453125 
Q 59.296875 4.5 63.59375 9.703125 
Q 67.90625 14.90625 70.046875 21.65625 
Q 72.203125 28.40625 72.203125 35.703125 
Q 72.203125 43 70.046875 49.75 
Q 67.90625 56.5 63.59375 61.703125 
Q 59.296875 66.90625 52.890625 70 
Q 46.5 73.09375 38 73.09375 
Q 29.5 73.09375 23.09375 70 
Q 16.703125 66.90625 12.390625 61.703125 
Q 8.09375 56.5 5.9375 49.75 
Q 3.796875 43 3.796875 35.703125 
z
" id="HelveticaNeue-79"/>
        <path d="M 41.5 35.09375 
L 50.296875 35.09375 
Q 49.796875 39.703125 47.890625 43.046875 
Q 46 46.40625 43.046875 48.59375 
Q 40.09375 50.796875 36.25 51.84375 
Q 32.40625 52.90625 28 52.90625 
Q 21.90625 52.90625 17.296875 50.75 
Q 12.703125 48.59375 9.640625 44.84375 
Q 6.59375 41.09375 5.09375 36.046875 
Q 3.59375 31 3.59375 25.203125 
Q 3.59375 19.40625 5.140625 14.546875 
Q 6.703125 9.703125 9.75 6.203125 
Q 12.796875 2.703125 17.34375 0.796875 
Q 21.90625 -1.09375 27.796875 -1.09375 
Q 37.703125 -1.09375 43.453125 4.09375 
Q 49.203125 9.296875 50.59375 18.90625 
L 41.90625 18.90625 
Q 41.09375 12.90625 37.546875 9.59375 
Q 34 6.296875 27.703125 6.296875 
Q 23.703125 6.296875 20.796875 7.890625 
Q 17.90625 9.5 16.09375 12.140625 
Q 14.296875 14.796875 13.4375 18.1875 
Q 12.59375 21.59375 12.59375 25.203125 
Q 12.59375 29.09375 13.390625 32.75 
Q 14.203125 36.40625 16.046875 39.203125 
Q 17.90625 42 21 43.703125 
Q 24.09375 45.40625 28.703125 45.40625 
Q 34.09375 45.40625 37.296875 42.703125 
Q 40.5 40 41.5 35.09375 
z
" id="HelveticaNeue-99"/>
        <path d="M 18.203125 51.703125 
L 18.203125 67.203125 
L 9.703125 67.203125 
L 9.703125 51.703125 
L 0.90625 51.703125 
L 0.90625 44.203125 
L 9.703125 44.203125 
L 9.703125 11.296875 
Q 9.703125 7.703125 10.390625 5.5 
Q 11.09375 3.296875 12.546875 2.09375 
Q 14 0.90625 16.34375 0.453125 
Q 18.703125 0 22 0 
L 28.5 0 
L 28.5 7.5 
L 24.59375 7.5 
Q 22.59375 7.5 21.34375 7.640625 
Q 20.09375 7.796875 19.390625 8.296875 
Q 18.703125 8.796875 18.453125 9.6875 
Q 18.203125 10.59375 18.203125 12.09375 
L 18.203125 44.203125 
L 28.5 44.203125 
L 28.5 51.703125 
z
" id="HelveticaNeue-116"/>
       </defs>
       <use xlink:href="#HelveticaNeue-79"/>
       <use x="75.999985" xlink:href="#HelveticaNeue-99"/>
       <use x="129.699982" xlink:href="#HelveticaNeue-116"/>
      </g>
     </g>
    </g>
    <g id="xtick_4">
     <g id="line2d_4">
      <g>
       <use style="fill:#555555;stroke:#555555;stroke-width:0.8;" x="305.941176" xlink:href="#m2c305d6ec3" y="262.5"/>
      </g>
     </g>
     <g id="text_3">
      <!-- Jan -->
      <g style="fill:#555555;" transform="translate(297.88102 276.640625)scale(0.1 -0.1)">
       <defs>
        <path d="M 52.203125 0.203125 
Q 50 -1.09375 46.09375 -1.09375 
Q 42.796875 -1.09375 40.84375 0.75 
Q 38.90625 2.59375 38.90625 6.796875 
Q 35.40625 2.59375 30.75 0.75 
Q 26.09375 -1.09375 20.703125 -1.09375 
Q 17.203125 -1.09375 14.046875 -0.296875 
Q 10.90625 0.5 8.59375 2.203125 
Q 6.296875 3.90625 4.9375 6.65625 
Q 3.59375 9.40625 3.59375 13.296875 
Q 3.59375 17.703125 5.09375 20.5 
Q 6.59375 23.296875 9.046875 25.046875 
Q 11.5 26.796875 14.640625 27.6875 
Q 17.796875 28.59375 21.09375 29.203125 
Q 24.59375 29.90625 27.75 30.25 
Q 30.90625 30.59375 33.296875 31.25 
Q 35.703125 31.90625 37.09375 33.15625 
Q 38.5 34.40625 38.5 36.796875 
Q 38.5 39.59375 37.453125 41.296875 
Q 36.40625 43 34.75 43.890625 
Q 33.09375 44.796875 31.046875 45.09375 
Q 29 45.40625 27 45.40625 
Q 21.59375 45.40625 18 43.34375 
Q 14.40625 41.296875 14.09375 35.59375 
L 5.59375 35.59375 
Q 5.796875 40.40625 7.59375 43.703125 
Q 9.40625 47 12.40625 49.046875 
Q 15.40625 51.09375 19.25 52 
Q 23.09375 52.90625 27.5 52.90625 
Q 31 52.90625 34.453125 52.40625 
Q 37.90625 51.90625 40.703125 50.34375 
Q 43.5 48.796875 45.203125 46 
Q 46.90625 43.203125 46.90625 38.703125 
L 46.90625 12.09375 
Q 46.90625 9.09375 47.25 7.6875 
Q 47.59375 6.296875 49.59375 6.296875 
Q 50.703125 6.296875 52.203125 6.796875 
z
M 38.40625 26.703125 
Q 36.796875 25.5 34.1875 24.953125 
Q 31.59375 24.40625 28.75 24.046875 
Q 25.90625 23.703125 23 23.25 
Q 20.09375 22.796875 17.796875 21.796875 
Q 15.5 20.796875 14.046875 18.9375 
Q 12.59375 17.09375 12.59375 13.90625 
Q 12.59375 11.796875 13.4375 10.34375 
Q 14.296875 8.90625 15.640625 8 
Q 17 7.09375 18.796875 6.6875 
Q 20.59375 6.296875 22.59375 6.296875 
Q 26.796875 6.296875 29.796875 7.4375 
Q 32.796875 8.59375 34.6875 10.34375 
Q 36.59375 12.09375 37.5 14.140625 
Q 38.40625 16.203125 38.40625 18 
z
" id="HelveticaNeue-97"/>
        <path d="M 6.40625 51.703125 
L 6.40625 0 
L 14.90625 0 
L 14.90625 29.203125 
Q 14.90625 32.703125 15.84375 35.640625 
Q 16.796875 38.59375 18.6875 40.796875 
Q 20.59375 43 23.4375 44.203125 
Q 26.296875 45.40625 30.203125 45.40625 
Q 35.09375 45.40625 37.890625 42.59375 
Q 40.703125 39.796875 40.703125 35 
L 40.703125 0 
L 49.203125 0 
L 49.203125 34 
Q 49.203125 38.203125 48.34375 41.640625 
Q 47.5 45.09375 45.390625 47.59375 
Q 43.296875 50.09375 39.890625 51.5 
Q 36.5 52.90625 31.40625 52.90625 
Q 19.90625 52.90625 14.59375 43.5 
L 14.40625 43.5 
L 14.40625 51.703125 
z
" id="HelveticaNeue-110"/>
       </defs>
       <use xlink:href="#HelveticaNeue-74"/>
       <use x="51.899994" xlink:href="#HelveticaNeue-97"/>
       <use x="105.599991" xlink:href="#HelveticaNeue-110"/>
      </g>
      <!-- 2021 -->
      <g style="fill:#555555;" transform="translate(294.822426 287.179688)scale(0.1 -0.1)">
       <defs>
        <path d="M 4.40625 45.796875 
L 12.90625 45.796875 
Q 12.796875 49 13.546875 52.140625 
Q 14.296875 55.296875 16 57.796875 
Q 17.703125 60.296875 20.34375 61.84375 
Q 23 63.40625 26.703125 63.40625 
Q 29.5 63.40625 32 62.5 
Q 34.5 61.59375 36.34375 59.890625 
Q 38.203125 58.203125 39.296875 55.84375 
Q 40.40625 53.5 40.40625 50.59375 
Q 40.40625 46.90625 39.25 44.09375 
Q 38.09375 41.296875 35.84375 38.890625 
Q 33.59375 36.5 30.1875 34.140625 
Q 26.796875 31.796875 22.296875 29 
Q 18.59375 26.796875 15.1875 24.296875 
Q 11.796875 21.796875 9.09375 18.5 
Q 6.40625 15.203125 4.65625 10.75 
Q 2.90625 6.296875 2.40625 0 
L 48.703125 0 
L 48.703125 7.5 
L 12.296875 7.5 
Q 12.90625 10.796875 14.84375 13.34375 
Q 16.796875 15.90625 19.546875 18.09375 
Q 22.296875 20.296875 25.59375 22.25 
Q 28.90625 24.203125 32.203125 26.203125 
Q 35.5 28.296875 38.59375 30.59375 
Q 41.703125 32.90625 44.09375 35.75 
Q 46.5 38.59375 47.953125 42.1875 
Q 49.40625 45.796875 49.40625 50.5 
Q 49.40625 55.5 47.65625 59.296875 
Q 45.90625 63.09375 42.90625 65.640625 
Q 39.90625 68.203125 35.84375 69.546875 
Q 31.796875 70.90625 27.203125 70.90625 
Q 21.59375 70.90625 17.1875 69 
Q 12.796875 67.09375 9.84375 63.75 
Q 6.90625 60.40625 5.5 55.796875 
Q 4.09375 51.203125 4.40625 45.796875 
z
" id="HelveticaNeue-50"/>
        <path d="M 13.203125 34.90625 
Q 13.203125 37.5 13.25 40.640625 
Q 13.296875 43.796875 13.75 46.9375 
Q 14.203125 50.09375 15.046875 53.09375 
Q 15.90625 56.09375 17.546875 58.34375 
Q 19.203125 60.59375 21.703125 62 
Q 24.203125 63.40625 27.796875 63.40625 
Q 31.40625 63.40625 33.90625 62 
Q 36.40625 60.59375 38.046875 58.34375 
Q 39.703125 56.09375 40.546875 53.09375 
Q 41.40625 50.09375 41.84375 46.9375 
Q 42.296875 43.796875 42.34375 40.640625 
Q 42.40625 37.5 42.40625 34.90625 
Q 42.40625 30.90625 42.15625 25.953125 
Q 41.90625 21 40.546875 16.640625 
Q 39.203125 12.296875 36.203125 9.296875 
Q 33.203125 6.296875 27.796875 6.296875 
Q 22.40625 6.296875 19.40625 9.296875 
Q 16.40625 12.296875 15.046875 16.640625 
Q 13.703125 21 13.453125 25.953125 
Q 13.203125 30.90625 13.203125 34.90625 
z
M 4.203125 34.796875 
Q 4.203125 30.90625 4.390625 26.703125 
Q 4.59375 22.5 5.390625 18.5 
Q 6.203125 14.5 7.703125 10.953125 
Q 9.203125 7.40625 11.796875 4.703125 
Q 14.40625 2 18.34375 0.453125 
Q 22.296875 -1.09375 27.796875 -1.09375 
Q 33.40625 -1.09375 37.296875 0.453125 
Q 41.203125 2 43.796875 4.703125 
Q 46.40625 7.40625 47.90625 10.953125 
Q 49.40625 14.5 50.203125 18.5 
Q 51 22.5 51.203125 26.703125 
Q 51.40625 30.90625 51.40625 34.796875 
Q 51.40625 38.703125 51.203125 42.890625 
Q 51 47.09375 50.203125 51.09375 
Q 49.40625 55.09375 47.90625 58.6875 
Q 46.40625 62.296875 43.796875 65 
Q 41.203125 67.703125 37.25 69.296875 
Q 33.296875 70.90625 27.796875 70.90625 
Q 22.296875 70.90625 18.34375 69.296875 
Q 14.40625 67.703125 11.796875 65 
Q 9.203125 62.296875 7.703125 58.6875 
Q 6.203125 55.09375 5.390625 51.09375 
Q 4.59375 47.09375 4.390625 42.890625 
Q 4.203125 38.703125 4.203125 34.796875 
z
" id="HelveticaNeue-48"/>
        <path d="M 35.59375 0 
L 35.59375 70.90625 
L 29.09375 70.90625 
Q 28.40625 66.90625 26.5 64.296875 
Q 24.59375 61.703125 21.84375 60.203125 
Q 19.09375 58.703125 15.6875 58.140625 
Q 12.296875 57.59375 8.703125 57.59375 
L 8.703125 50.796875 
L 27.09375 50.796875 
L 27.09375 0 
z
" id="HelveticaNeue-49"/>
       </defs>
       <use xlink:href="#HelveticaNeue-50"/>
       <use x="55.599991" xlink:href="#HelveticaNeue-48"/>
       <use x="111.199982" xlink:href="#HelveticaNeue-50"/>
       <use x="166.799973" xlink:href="#HelveticaNeue-49"/>
      </g>
     </g>
    </g>
    <g id="xtick_5">
     <g id="line2d_5">
      <g>
       <use style="fill:#555555;stroke:#555555;stroke-width:0.8;" x="388" xlink:href="#m2c305d6ec3" y="262.5"/>
      </g>
     </g>
     <g id="text_4">
      <!-- Apr -->
      <g style="fill:#555555;" transform="translate(380.130469 276.640625)scale(0.1 -0.1)">
       <defs>
        <path d="M 20.09375 29.5 
L 32.203125 62.796875 
L 32.40625 62.796875 
L 44.296875 29.5 
z
M 27.203125 71.40625 
L -0.59375 0 
L 9.09375 0 
L 17.09375 21.5 
L 47.296875 21.5 
L 55.09375 0 
L 65.59375 0 
L 37.703125 71.40625 
z
" id="HelveticaNeue-65"/>
        <path d="M 6.703125 51.703125 
L 6.703125 -19.703125 
L 15.203125 -19.703125 
L 15.203125 6.90625 
L 15.40625 6.90625 
Q 16.796875 4.59375 18.84375 3.046875 
Q 20.90625 1.5 23.203125 0.59375 
Q 25.5 -0.296875 27.84375 -0.6875 
Q 30.203125 -1.09375 32.09375 -1.09375 
Q 38 -1.09375 42.453125 1 
Q 46.90625 3.09375 49.84375 6.75 
Q 52.796875 10.40625 54.25 15.296875 
Q 55.703125 20.203125 55.703125 25.703125 
Q 55.703125 31.203125 54.203125 36.09375 
Q 52.703125 41 49.75 44.75 
Q 46.796875 48.5 42.34375 50.703125 
Q 37.90625 52.90625 31.90625 52.90625 
Q 26.5 52.90625 22 50.953125 
Q 17.5 49 15.40625 44.703125 
L 15.203125 44.703125 
L 15.203125 51.703125 
z
M 46.703125 26.296875 
Q 46.703125 22.5 45.890625 18.890625 
Q 45.09375 15.296875 43.296875 12.5 
Q 41.5 9.703125 38.546875 8 
Q 35.59375 6.296875 31.203125 6.296875 
Q 26.796875 6.296875 23.6875 7.9375 
Q 20.59375 9.59375 18.640625 12.296875 
Q 16.703125 15 15.796875 18.546875 
Q 14.90625 22.09375 14.90625 25.90625 
Q 14.90625 29.5 15.75 33 
Q 16.59375 36.5 18.5 39.25 
Q 20.40625 42 23.40625 43.703125 
Q 26.40625 45.40625 30.703125 45.40625 
Q 34.796875 45.40625 37.84375 43.796875 
Q 40.90625 42.203125 42.84375 39.5 
Q 44.796875 36.796875 45.75 33.34375 
Q 46.703125 29.90625 46.703125 26.296875 
z
" id="HelveticaNeue-112"/>
        <path d="M 6.09375 51.703125 
L 6.09375 0 
L 14.59375 0 
L 14.59375 23 
Q 14.59375 28 15.59375 31.84375 
Q 16.59375 35.703125 18.796875 38.390625 
Q 21 41.09375 24.59375 42.5 
Q 28.203125 43.90625 33.296875 43.90625 
L 33.296875 52.90625 
Q 26.40625 53.09375 21.90625 50.09375 
Q 17.40625 47.09375 14.296875 40.796875 
L 14.09375 40.796875 
L 14.09375 51.703125 
z
" id="HelveticaNeue-114"/>
       </defs>
       <use xlink:href="#HelveticaNeue-65"/>
       <use x="64.799988" xlink:href="#HelveticaNeue-112"/>
       <use x="124.099976" xlink:href="#HelveticaNeue-114"/>
      </g>
     </g>
    </g>
    <g id="xtick_6">
     <g id="line2d_6">
      <g>
       <use style="fill:#555555;stroke:#555555;stroke-width:0.8;" x="450" xlink:href="#m2c305d6ec3" y="262.5"/>
      </g>
     </g>
    </g>
    <g id="xtick_7">
     <g id="line2d_7">
      <defs>
       <path d="M 0 0 
L 0 2 
" id="m7e4b163387" style="stroke:#555555;stroke-width:0.6;"/>
      </defs>
      <g>
       <use style="fill:#555555;stroke:#555555;stroke-width:0.6;" x="82.558824" xlink:href="#m7e4b163387" y="262.5"/>
      </g>
     </g>
    </g>
    <g id="xtick_8">
     <g id="line2d_8">
      <g>
       <use style="fill:#555555;stroke:#555555;stroke-width:0.6;" x="110.823529" xlink:href="#m7e4b163387" y="262.5"/>
      </g>
     </g>
    </g>
    <g id="xtick_9">
     <g id="line2d_9">
      <g>
       <use style="fill:#555555;stroke:#555555;stroke-width:0.6;" x="166.441176" xlink:href="#m7e4b163387" y="262.5"/>
      </g>
     </g>
    </g>
    <g id="xtick_10">
     <g id="line2d_10">
      <g>
       <use style="fill:#555555;stroke:#555555;stroke-width:0.6;" x="194.705882" xlink:href="#m7e4b163387" y="262.5"/>
      </g>
     </g>
    </g>
    <g id="xtick_11">
     <g id="line2d_11">
      <g>
       <use style="fill:#555555;stroke:#555555;stroke-width:0.6;" x="250.323529" xlink:href="#m7e4b163387" y="262.5"/>
      </g>
     </g>
    </g>
    <g id="xtick_12">
     <g id="line2d_12">
      <g>
       <use style="fill:#555555;stroke:#555555;stroke-width:0.6;" x="277.676471" xlink:href="#m7e4b163387" y="262.5"/>
      </g>
     </g>
    </g>
    <g id="xtick_13">
     <g id="line2d_13">
      <g>
       <use style="fill:#555555;stroke:#555555;stroke-width:0.6;" x="334.205882" xlink:href="#m7e4b163387" y="262.5"/>
      </g>
     </g>
    </g>
    <g id="xtick_14">
     <g id="line2d_14">
      <g>
       <use style="fill:#555555;stroke:#555555;stroke-width:0.6;" x="359.735294" xlink:href="#m7e4b163387" y="262.5"/>
      </g>
     </g>
    </g>
    <g id="xtick_15">
     <g id="line2d_15">
      <g>
       <use style="fill:#555555;stroke:#555555;stroke-width:0.6;" x="415.352941" xlink:href="#m7e4b163387" y="262.5"/>
      </g>
     </g>
    </g>
    <g id="xtick_16">
     <g id="line2d_16">
      <g>
       <use style="fill:#555555;stroke:#555555;stroke-width:0.6;" x="443.617647" xlink:href="#m7e4b163387" y="262.5"/>
      </g>
     </g>
    </g>
    <g id="text_5">
     <!-- fecha -->
     <g style="fill:#555555;" transform="translate(243.935156 300.290625)scale(0.1 -0.1)">
      <defs>
       <path d="M 9.90625 44.203125 
L 9.90625 0 
L 18.40625 0 
L 18.40625 44.203125 
L 28.40625 44.203125 
L 28.40625 51.703125 
L 18.40625 51.703125 
L 18.40625 58.90625 
Q 18.40625 62.296875 20.09375 63.5 
Q 21.796875 64.703125 24.90625 64.703125 
Q 26 64.703125 27.296875 64.546875 
Q 28.59375 64.40625 29.703125 64 
L 29.703125 71.40625 
Q 28.5 71.796875 26.953125 72 
Q 25.40625 72.203125 24.203125 72.203125 
Q 17.203125 72.203125 13.546875 68.953125 
Q 9.90625 65.703125 9.90625 59.40625 
L 9.90625 51.703125 
L 1.203125 51.703125 
L 1.203125 44.203125 
z
" id="HelveticaNeue-102"/>
       <path d="M 42.296875 30.796875 
L 12.59375 30.796875 
Q 12.796875 33.796875 13.890625 36.4375 
Q 15 39.09375 16.890625 41.09375 
Q 18.796875 43.09375 21.4375 44.25 
Q 24.09375 45.40625 27.40625 45.40625 
Q 30.59375 45.40625 33.25 44.25 
Q 35.90625 43.09375 37.84375 41.140625 
Q 39.796875 39.203125 40.9375 36.5 
Q 42.09375 33.796875 42.296875 30.796875 
z
M 50.5 16.40625 
L 42.09375 16.40625 
Q 41 11.296875 37.546875 8.796875 
Q 34.09375 6.296875 28.703125 6.296875 
Q 24.5 6.296875 21.390625 7.6875 
Q 18.296875 9.09375 16.296875 11.4375 
Q 14.296875 13.796875 13.390625 16.84375 
Q 12.5 19.90625 12.59375 23.296875 
L 51.296875 23.296875 
Q 51.5 28 50.453125 33.203125 
Q 49.40625 38.40625 46.65625 42.796875 
Q 43.90625 47.203125 39.34375 50.046875 
Q 34.796875 52.90625 27.90625 52.90625 
Q 22.59375 52.90625 18.140625 50.90625 
Q 13.703125 48.90625 10.453125 45.296875 
Q 7.203125 41.703125 5.390625 36.796875 
Q 3.59375 31.90625 3.59375 26 
Q 3.796875 20.09375 5.34375 15.09375 
Q 6.90625 10.09375 10 6.5 
Q 13.09375 2.90625 17.640625 0.90625 
Q 22.203125 -1.09375 28.40625 -1.09375 
Q 37.203125 -1.09375 43 3.296875 
Q 48.796875 7.703125 50.5 16.40625 
z
" id="HelveticaNeue-101"/>
       <path d="M 6.40625 71.40625 
L 6.40625 0 
L 14.90625 0 
L 14.90625 29.203125 
Q 14.90625 32.703125 15.84375 35.640625 
Q 16.796875 38.59375 18.6875 40.796875 
Q 20.59375 43 23.4375 44.203125 
Q 26.296875 45.40625 30.203125 45.40625 
Q 35.09375 45.40625 37.890625 42.59375 
Q 40.703125 39.796875 40.703125 35 
L 40.703125 0 
L 49.203125 0 
L 49.203125 34 
Q 49.203125 38.203125 48.34375 41.640625 
Q 47.5 45.09375 45.390625 47.59375 
Q 43.296875 50.09375 39.890625 51.5 
Q 36.5 52.90625 31.40625 52.90625 
Q 29.09375 52.90625 26.640625 52.40625 
Q 24.203125 51.90625 21.953125 50.84375 
Q 19.703125 49.796875 17.890625 48.140625 
Q 16.09375 46.5 15.09375 44.09375 
L 14.90625 44.09375 
L 14.90625 71.40625 
z
" id="HelveticaNeue-104"/>
      </defs>
      <use xlink:href="#HelveticaNeue-102"/>
      <use x="29.599991" xlink:href="#HelveticaNeue-101"/>
      <use x="83.299988" xlink:href="#HelveticaNeue-99"/>
      <use x="136.999985" xlink:href="#HelveticaNeue-104"/>
      <use x="192.599976" xlink:href="#HelveticaNeue-97"/>
     </g>
    </g>
   </g>
   <g id="matplotlib.axis_2">
    <g id="ytick_1">
     <g id="line2d_17">
      <defs>
       <path d="M 0 0 
L -3.5 0 
" id="m76e742c5b1" style="stroke:#555555;stroke-width:0.8;"/>
      </defs>
      <g>
       <use style="fill:#555555;stroke:#555555;stroke-width:0.8;" x="62.5" xlink:href="#m76e742c5b1" y="251.795455"/>
      </g>
     </g>
     <g id="text_6">
      <!-- 0 -->
      <g style="fill:#555555;" transform="translate(49.940625 255.365767)scale(0.1 -0.1)">
       <use xlink:href="#HelveticaNeue-48"/>
      </g>
     </g>
    </g>
    <g id="ytick_2">
     <g id="line2d_18">
      <g>
       <use style="fill:#555555;stroke:#555555;stroke-width:0.8;" x="62.5" xlink:href="#m76e742c5b1" y="218.080351"/>
      </g>
     </g>
     <g id="text_7">
      <!-- 20 -->
      <g style="fill:#555555;" transform="translate(44.38125 221.650663)scale(0.1 -0.1)">
       <use xlink:href="#HelveticaNeue-50"/>
       <use x="55.599991" xlink:href="#HelveticaNeue-48"/>
      </g>
     </g>
    </g>
    <g id="ytick_3">
     <g id="line2d_19">
      <g>
       <use style="fill:#555555;stroke:#555555;stroke-width:0.8;" x="62.5" xlink:href="#m76e742c5b1" y="184.365247"/>
      </g>
     </g>
     <g id="text_8">
      <!-- 40 -->
      <g style="fill:#555555;" transform="translate(44.38125 187.935559)scale(0.1 -0.1)">
       <defs>
        <path d="M 33.90625 24.09375 
L 10.09375 24.09375 
L 33.703125 58.796875 
L 33.90625 58.796875 
z
M 41.90625 24.09375 
L 41.90625 70.90625 
L 35.09375 70.90625 
L 2.796875 24.796875 
L 2.796875 16.59375 
L 33.90625 16.59375 
L 33.90625 0 
L 41.90625 0 
L 41.90625 16.59375 
L 51.5 16.59375 
L 51.5 24.09375 
z
" id="HelveticaNeue-52"/>
       </defs>
       <use xlink:href="#HelveticaNeue-52"/>
       <use x="55.599991" xlink:href="#HelveticaNeue-48"/>
      </g>
     </g>
    </g>
    <g id="ytick_4">
     <g id="line2d_20">
      <g>
       <use style="fill:#555555;stroke:#555555;stroke-width:0.8;" x="62.5" xlink:href="#m76e742c5b1" y="150.650143"/>
      </g>
     </g>
     <g id="text_9">
      <!-- 60 -->
      <g style="fill:#555555;" transform="translate(44.38125 154.220456)scale(0.1 -0.1)">
       <defs>
        <path d="M 41.40625 52.796875 
L 49.90625 52.796875 
Q 49.09375 61.59375 43.890625 66.25 
Q 38.703125 70.90625 29.90625 70.90625 
Q 22.296875 70.90625 17.296875 67.703125 
Q 12.296875 64.5 9.296875 59.203125 
Q 6.296875 53.90625 5.046875 47.046875 
Q 3.796875 40.203125 3.796875 32.90625 
Q 3.796875 27.296875 4.640625 21.296875 
Q 5.5 15.296875 8.09375 10.296875 
Q 10.703125 5.296875 15.5 2.09375 
Q 20.296875 -1.09375 28.203125 -1.09375 
Q 34.90625 -1.09375 39.453125 1.15625 
Q 44 3.40625 46.75 6.84375 
Q 49.5 10.296875 50.703125 14.5 
Q 51.90625 18.703125 51.90625 22.59375 
Q 51.90625 27.5 50.40625 31.703125 
Q 48.90625 35.90625 46.15625 39 
Q 43.40625 42.09375 39.34375 43.84375 
Q 35.296875 45.59375 30.203125 45.59375 
Q 24.40625 45.59375 19.953125 43.390625 
Q 15.5 41.203125 12.5 36.296875 
L 12.296875 36.5 
Q 12.40625 40.59375 13.09375 45.296875 
Q 13.796875 50 15.640625 54.046875 
Q 17.5 58.09375 20.796875 60.75 
Q 24.09375 63.40625 29.5 63.40625 
Q 34.59375 63.40625 37.6875 60.5 
Q 40.796875 57.59375 41.40625 52.796875 
z
M 28.59375 38.09375 
Q 32.203125 38.09375 34.890625 36.796875 
Q 37.59375 35.5 39.390625 33.34375 
Q 41.203125 31.203125 42.046875 28.25 
Q 42.90625 25.296875 42.90625 22 
Q 42.90625 18.90625 41.953125 16.046875 
Q 41 13.203125 39.203125 11 
Q 37.40625 8.796875 34.75 7.546875 
Q 32.09375 6.296875 28.59375 6.296875 
Q 25.09375 6.296875 22.34375 7.546875 
Q 19.59375 8.796875 17.75 10.890625 
Q 15.90625 13 14.90625 15.890625 
Q 13.90625 18.796875 13.90625 22.09375 
Q 13.90625 25.40625 14.84375 28.34375 
Q 15.796875 31.296875 17.6875 33.4375 
Q 19.59375 35.59375 22.296875 36.84375 
Q 25 38.09375 28.59375 38.09375 
z
" id="HelveticaNeue-54"/>
       </defs>
       <use xlink:href="#HelveticaNeue-54"/>
       <use x="55.599991" xlink:href="#HelveticaNeue-48"/>
      </g>
     </g>
    </g>
    <g id="ytick_5">
     <g id="line2d_21">
      <g>
       <use style="fill:#555555;stroke:#555555;stroke-width:0.8;" x="62.5" xlink:href="#m76e742c5b1" y="116.935039"/>
      </g>
     </g>
     <g id="text_10">
      <!-- 80 -->
      <g style="fill:#555555;" transform="translate(44.38125 120.505352)scale(0.1 -0.1)">
       <defs>
        <path d="M 15.5 52.5 
Q 15.5 55.203125 16.5 57.203125 
Q 17.5 59.203125 19.140625 60.59375 
Q 20.796875 62 23.09375 62.703125 
Q 25.40625 63.40625 27.90625 63.40625 
Q 33.09375 63.40625 36.4375 60.65625 
Q 39.796875 57.90625 39.796875 52.5 
Q 39.796875 47.09375 36.5 44.09375 
Q 33.203125 41.09375 28.09375 41.09375 
Q 25.5 41.09375 23.203125 41.796875 
Q 20.90625 42.5 19.203125 43.890625 
Q 17.5 45.296875 16.5 47.4375 
Q 15.5 49.59375 15.5 52.5 
z
M 6.5 52.796875 
Q 6.5 48 9.203125 43.953125 
Q 11.90625 39.90625 16.40625 38.09375 
Q 10.40625 36 7.203125 31.34375 
Q 4 26.703125 4 20.40625 
Q 4 15 5.84375 10.953125 
Q 7.703125 6.90625 10.953125 4.203125 
Q 14.203125 1.5 18.59375 0.203125 
Q 23 -1.09375 28.09375 -1.09375 
Q 33 -1.09375 37.296875 0.296875 
Q 41.59375 1.703125 44.75 4.453125 
Q 47.90625 7.203125 49.75 11.203125 
Q 51.59375 15.203125 51.59375 20.40625 
Q 51.59375 27 48.5 31.546875 
Q 45.40625 36.09375 39 38.09375 
Q 43.5 40.09375 46.140625 44.046875 
Q 48.796875 48 48.796875 52.796875 
Q 48.796875 56.203125 47.59375 59.453125 
Q 46.40625 62.703125 43.84375 65.25 
Q 41.296875 67.796875 37.1875 69.34375 
Q 33.09375 70.90625 27.296875 70.90625 
Q 23.203125 70.90625 19.453125 69.703125 
Q 15.703125 68.5 12.796875 66.203125 
Q 9.90625 63.90625 8.203125 60.546875 
Q 6.5 57.203125 6.5 52.796875 
z
M 13 20 
Q 13 23.09375 14.140625 25.59375 
Q 15.296875 28.09375 17.34375 29.890625 
Q 19.40625 31.703125 22.15625 32.640625 
Q 24.90625 33.59375 28 33.59375 
Q 31 33.59375 33.640625 32.546875 
Q 36.296875 31.5 38.296875 29.703125 
Q 40.296875 27.90625 41.4375 25.453125 
Q 42.59375 23 42.59375 20.09375 
Q 42.59375 17.09375 41.546875 14.59375 
Q 40.5 12.09375 38.546875 10.25 
Q 36.59375 8.40625 33.9375 7.34375 
Q 31.296875 6.296875 28.09375 6.296875 
Q 21.5 6.296875 17.25 9.9375 
Q 13 13.59375 13 20 
z
" id="HelveticaNeue-56"/>
       </defs>
       <use xlink:href="#HelveticaNeue-56"/>
       <use x="55.599991" xlink:href="#HelveticaNeue-48"/>
      </g>
     </g>
    </g>
    <g id="ytick_6">
     <g id="line2d_22">
      <g>
       <use style="fill:#555555;stroke:#555555;stroke-width:0.8;" x="62.5" xlink:href="#m76e742c5b1" y="83.219936"/>
      </g>
     </g>
     <g id="text_11">
      <!-- 100 -->
      <g style="fill:#555555;" transform="translate(38.821875 86.790248)scale(0.1 -0.1)">
       <use xlink:href="#HelveticaNeue-49"/>
       <use x="55.599991" xlink:href="#HelveticaNeue-48"/>
       <use x="111.199982" xlink:href="#HelveticaNeue-48"/>
      </g>
     </g>
    </g>
    <g id="ytick_7">
     <g id="line2d_23">
      <g>
       <use style="fill:#555555;stroke:#555555;stroke-width:0.8;" x="62.5" xlink:href="#m76e742c5b1" y="49.504832"/>
      </g>
     </g>
     <g id="text_12">
      <!-- 120 -->
      <g style="fill:#555555;" transform="translate(38.821875 53.075144)scale(0.1 -0.1)">
       <use xlink:href="#HelveticaNeue-49"/>
       <use x="55.599991" xlink:href="#HelveticaNeue-50"/>
       <use x="111.199982" xlink:href="#HelveticaNeue-48"/>
      </g>
     </g>
    </g>
   </g>
   <g id="line2d_24">
    <path clip-path="url(#pcbfe00d905)" d="M 62.5 248.423944 
L 63.411765 251.795455 
L 64.323529 251.795455 
L 65.235294 250.109699 
L 66.147059 250.109699 
L 67.058824 251.795455 
L 67.970588 251.795455 
L 68.882353 250.109699 
L 70.705882 250.109699 
L 71.617647 251.795455 
L 72.529412 248.423944 
L 73.441176 251.795455 
L 74.352941 251.795455 
L 75.264706 250.109699 
L 76.176471 251.795455 
L 78 251.795455 
L 78.911765 250.109699 
L 79.823529 251.795455 
L 80.735294 250.109699 
L 81.647059 236.623658 
L 82.558824 250.109699 
L 83.470588 251.795455 
L 84.382353 248.423944 
L 85.294118 248.423944 
L 86.205882 245.052434 
L 87.117647 248.423944 
L 88.029412 241.680923 
L 88.941176 238.309413 
L 89.852941 250.109699 
L 90.764706 246.738189 
L 91.676471 250.109699 
L 92.588235 241.680923 
L 93.5 246.738189 
L 94.411765 239.995168 
L 95.323529 248.423944 
L 96.235294 250.109699 
L 97.147059 243.366679 
L 98.058824 245.052434 
L 98.970588 241.680923 
L 99.882353 239.995168 
L 100.794118 245.052434 
L 101.705882 233.252147 
L 102.617647 241.680923 
L 103.529412 251.795455 
L 104.441176 239.995168 
L 105.352941 246.738189 
L 106.264706 226.509127 
L 107.176471 37.704545 
L 108.088235 213.023085 
L 109 236.623658 
L 109.911765 214.70884 
L 110.823529 234.937903 
L 111.735294 214.70884 
L 112.647059 238.309413 
L 113.558824 238.309413 
L 114.470588 241.680923 
L 115.382353 238.309413 
L 116.294118 228.194882 
L 117.205882 241.680923 
L 118.117647 226.509127 
L 119.029412 239.995168 
L 120.852941 239.995168 
L 121.764706 238.309413 
L 122.676471 234.937903 
L 123.588235 246.738189 
L 124.5 216.394596 
L 125.411765 218.080351 
L 126.323529 221.451861 
L 127.235294 223.137616 
L 128.147059 182.679492 
L 129.058824 231.566392 
L 129.970588 233.252147 
L 130.882353 228.194882 
L 131.794118 116.935039 
L 132.705882 233.252147 
L 133.617647 219.766106 
L 134.529412 213.023085 
L 135.441176 219.766106 
L 136.352941 243.366679 
L 137.264706 201.222799 
L 138.176471 182.679492 
L 139.088235 170.879205 
L 140 228.194882 
L 140.911765 229.880637 
L 141.823529 218.080351 
L 142.735294 207.96582 
L 143.647059 191.108268 
L 144.558824 216.394596 
L 146.382353 216.394596 
L 147.294118 223.137616 
L 148.205882 201.222799 
L 149.117647 206.280064 
L 150.029412 216.394596 
L 150.941176 159.078919 
L 151.852941 194.479778 
L 153.676471 155.707409 
L 154.588235 191.108268 
L 155.5 216.394596 
L 156.411765 152.335898 
L 157.323529 199.537044 
L 158.235294 211.33733 
L 159.147059 162.450429 
L 160.058824 202.908554 
L 160.970588 170.879205 
L 161.882353 170.879205 
L 162.794118 172.564961 
L 163.705882 96.705977 
L 164.617647 184.365247 
L 165.529412 189.422513 
L 166.441176 180.993737 
L 167.352941 191.108268 
L 168.264706 189.422513 
L 169.176471 140.535612 
L 170.088235 186.051002 
L 171 192.794023 
L 171.911765 170.879205 
L 172.823529 189.422513 
L 173.735294 196.165533 
L 174.647059 152.335898 
L 175.558824 164.136185 
L 177.382353 211.33733 
L 178.294118 162.450429 
L 179.205882 177.622226 
L 180.117647 111.877774 
L 181.029412 206.280064 
L 181.941176 154.021654 
L 182.852941 206.280064 
L 183.764706 192.794023 
L 184.676471 209.651575 
L 185.588235 199.537044 
L 186.5 186.051002 
L 187.411765 202.908554 
L 188.323529 174.250716 
L 189.235294 184.365247 
L 190.147059 201.222799 
L 191.058824 148.964388 
L 191.970588 204.594309 
L 192.882353 169.19345 
L 193.794118 182.679492 
L 194.705882 207.96582 
L 195.617647 219.766106 
L 196.529412 191.108268 
L 197.441176 187.736757 
L 198.352941 213.023085 
L 199.264706 234.937903 
L 200.176471 191.108268 
L 201.088235 234.937903 
L 202 236.623658 
L 202.911765 199.537044 
L 203.823529 206.280064 
L 204.735294 218.080351 
L 205.647059 228.194882 
L 206.558824 218.080351 
L 207.470588 228.194882 
L 209.294118 189.422513 
L 210.205882 209.651575 
L 211.117647 218.080351 
L 212.029412 192.794023 
L 212.941176 214.70884 
L 213.852941 224.823372 
L 214.764706 216.394596 
L 215.676471 223.137616 
L 216.588235 234.937903 
L 217.5 221.451861 
L 218.411765 228.194882 
L 219.323529 224.823372 
L 220.235294 223.137616 
L 221.147059 207.96582 
L 222.058824 202.908554 
L 222.970588 172.564961 
L 223.882353 211.33733 
L 224.794118 207.96582 
L 225.705882 229.880637 
L 226.617647 206.280064 
L 227.529412 207.96582 
L 228.441176 191.108268 
L 229.352941 223.137616 
L 230.264706 219.766106 
L 231.176471 219.766106 
L 232.088235 231.566392 
L 233 236.623658 
L 233.911765 223.137616 
L 234.823529 201.222799 
L 235.735294 214.70884 
L 236.647059 221.451861 
L 237.558824 231.566392 
L 238.470588 201.222799 
L 239.382353 199.537044 
L 240.294118 213.023085 
L 241.205882 218.080351 
L 242.117647 206.280064 
L 243.029412 223.137616 
L 243.941176 221.451861 
L 244.852941 201.222799 
L 245.764706 187.736757 
L 246.676471 196.165533 
L 247.588235 167.507695 
L 248.5 209.651575 
L 249.411765 184.365247 
L 250.323529 214.70884 
L 251.235294 216.394596 
L 252.147059 221.451861 
L 253.058824 216.394596 
L 253.970588 216.394596 
L 254.882353 209.651575 
L 255.794118 207.96582 
L 256.705882 202.908554 
L 257.617647 219.766106 
L 258.529412 209.651575 
L 259.441176 207.96582 
L 260.352941 202.908554 
L 261.264706 219.766106 
L 262.176471 224.823372 
L 263.088235 231.566392 
L 264 206.280064 
L 264.911765 209.651575 
L 265.823529 218.080351 
L 266.735294 189.422513 
L 267.647059 216.394596 
L 268.558824 201.222799 
L 269.470588 206.280064 
L 270.382353 224.823372 
L 271.294118 165.82194 
L 272.205882 187.736757 
L 273.117647 167.507695 
L 274.029412 164.136185 
L 274.941176 213.023085 
L 275.852941 199.537044 
L 277.676471 209.651575 
L 278.588235 197.851288 
L 279.5 211.33733 
L 280.411765 189.422513 
L 281.323529 207.96582 
L 282.235294 219.766106 
L 283.147059 196.165533 
L 284.058824 228.194882 
L 284.970588 196.165533 
L 285.882353 206.280064 
L 286.794118 189.422513 
L 287.705882 199.537044 
L 288.617647 197.851288 
L 289.529412 201.222799 
L 290.441176 152.335898 
L 291.352941 138.849857 
L 292.264706 174.250716 
L 294.088235 184.365247 
L 295 164.136185 
L 295.911765 175.936471 
L 296.823529 138.849857 
L 297.735294 130.421081 
L 298.647059 150.650143 
L 299.558824 206.280064 
L 300.470588 175.936471 
L 301.382353 164.136185 
L 302.294118 147.278633 
L 303.205882 81.53418 
L 305.941176 213.023085 
L 306.852941 162.450429 
L 307.764706 145.592878 
L 308.676471 179.307981 
L 309.588235 133.792591 
L 310.5 155.707409 
L 311.411765 127.049571 
L 312.323529 125.363815 
L 313.235294 164.136185 
L 314.147059 182.679492 
L 315.058824 209.651575 
L 315.970588 66.362384 
L 316.882353 133.792591 
L 317.794118 74.79116 
L 318.705882 175.936471 
L 319.617647 86.591446 
L 320.529412 113.563529 
L 321.441176 174.250716 
L 322.352941 100.077487 
L 323.264706 148.964388 
L 324.176471 147.278633 
L 325.088235 159.078919 
L 326 132.106836 
L 326.911765 177.622226 
L 327.823529 110.192019 
L 328.735294 172.564961 
L 329.647059 165.82194 
L 330.558824 152.335898 
L 331.470588 186.051002 
L 332.382353 204.594309 
L 333.294118 184.365247 
L 334.205882 186.051002 
L 335.117647 201.222799 
L 336.029412 202.908554 
L 336.941176 202.908554 
L 337.852941 213.023085 
L 338.764706 234.937903 
L 339.676471 229.880637 
L 340.588235 207.96582 
L 342.411765 214.70884 
L 343.323529 206.280064 
L 344.235294 221.451861 
L 345.147059 226.509127 
L 346.058824 226.509127 
L 346.970588 231.566392 
L 347.882353 214.70884 
L 348.794118 236.623658 
L 349.705882 218.080351 
L 350.617647 206.280064 
L 351.529412 233.252147 
L 352.441176 228.194882 
L 353.352941 233.252147 
L 354.264706 228.194882 
L 355.176471 224.823372 
L 356.088235 228.194882 
L 357 214.70884 
L 357.911765 246.738189 
L 358.823529 233.252147 
L 359.735294 233.252147 
L 360.647059 228.194882 
L 361.558824 234.937903 
L 362.470588 228.194882 
L 363.382353 239.995168 
L 364.294118 241.680923 
L 366.117647 234.937903 
L 367.029412 248.423944 
L 369.764706 223.137616 
L 370.676471 239.995168 
L 371.588235 246.738189 
L 372.5 224.823372 
L 373.411765 229.880637 
L 374.323529 226.509127 
L 375.235294 236.623658 
L 376.147059 226.509127 
L 377.058824 236.623658 
L 377.970588 236.623658 
L 378.882353 243.366679 
L 379.794118 234.937903 
L 380.705882 236.623658 
L 381.617647 233.252147 
L 382.529412 214.70884 
L 383.441176 206.280064 
L 384.352941 228.194882 
L 385.264706 209.651575 
L 386.176471 207.96582 
L 387.088235 196.165533 
L 388 219.766106 
L 388.911765 218.080351 
L 389.823529 226.509127 
L 390.735294 207.96582 
L 391.647059 207.96582 
L 392.558824 194.479778 
L 393.470588 214.70884 
L 394.382353 175.936471 
L 395.294118 179.307981 
L 396.205882 154.021654 
L 397.117647 211.33733 
L 398.029412 184.365247 
L 398.941176 165.82194 
L 399.852941 116.935039 
L 400.764706 142.221367 
L 401.676471 155.707409 
L 402.588235 155.707409 
L 403.5 145.592878 
L 404.411765 145.592878 
L 405.323529 98.391732 
L 406.235294 157.393164 
L 407.147059 127.049571 
L 408.058824 137.164102 
L 408.970588 142.221367 
L 409.882353 196.165533 
L 410.794118 143.907122 
L 411.705882 148.964388 
L 412.617647 167.507695 
L 413.529412 192.794023 
L 414.441176 160.764674 
L 415.352941 189.422513 
L 416.264706 121.992305 
L 418.088235 196.165533 
L 419 206.280064 
L 419.911765 127.049571 
L 420.823529 162.450429 
L 421.735294 143.907122 
L 422.647059 152.335898 
L 423.558824 179.307981 
L 424.470588 110.192019 
L 425.382353 135.478346 
L 426.294118 186.051002 
L 427.205882 160.764674 
L 428.117647 128.735326 
L 429.029412 192.794023 
L 429.941176 165.82194 
L 430.852941 169.19345 
L 431.764706 165.82194 
L 432.676471 128.735326 
L 433.588235 115.249284 
L 434.5 105.134753 
L 435.411765 145.592878 
L 437.235294 39.390301 
L 438.147059 95.020222 
L 439.058824 74.79116 
L 439.970588 113.563529 
L 440.882353 120.30655 
L 441.794118 157.393164 
L 442.705882 83.219936 
L 443.617647 103.448998 
L 444.529412 41.076056 
L 445.441176 137.164102 
L 446.352941 69.733894 
L 447.264706 61.305118 
L 448.176471 172.564961 
L 449.088235 137.164102 
L 450 234.937903 
L 450 234.937903 
" style="fill:none;stroke:#000000;stroke-dasharray:1.5,2.475;stroke-dashoffset:0;stroke-opacity:0.5;stroke-width:1.5;"/>
   </g>
   <g id="line2d_25">
    <path clip-path="url(#pcbfe00d905)" d="M 62.5 250.109699 
L 65.235294 250.109699 
L 66.147059 251.795455 
L 67.058824 250.109699 
L 73.441176 250.109699 
L 74.352941 251.795455 
L 78 251.795455 
L 79.823529 248.423944 
L 82.558824 248.423944 
L 83.470588 246.738189 
L 84.382353 246.738189 
L 85.294118 248.423944 
L 87.117647 245.052434 
L 91.676471 245.052434 
L 92.588235 246.738189 
L 93.5 245.052434 
L 98.058824 245.052434 
L 99.882353 241.680923 
L 101.705882 241.680923 
L 102.617647 243.366679 
L 103.529412 241.680923 
L 104.441176 219.766106 
L 105.352941 209.651575 
L 107.176471 196.165533 
L 108.088235 196.165533 
L 109 197.851288 
L 109.911765 204.594309 
L 110.823529 226.509127 
L 111.735294 229.880637 
L 112.647059 231.566392 
L 113.558824 234.937903 
L 114.470588 234.937903 
L 115.382353 236.623658 
L 119.029412 236.623658 
L 119.941176 238.309413 
L 120.852941 238.309413 
L 122.676471 234.937903 
L 124.5 228.194882 
L 125.411765 221.451861 
L 126.323529 218.080351 
L 127.235294 216.394596 
L 128.147059 218.080351 
L 129.058824 209.651575 
L 130.882353 206.280064 
L 131.794118 207.96582 
L 132.705882 206.280064 
L 133.617647 209.651575 
L 134.529412 211.33733 
L 135.441176 218.080351 
L 136.352941 209.651575 
L 137.264706 207.96582 
L 139.088235 207.96582 
L 140 206.280064 
L 140.911765 207.96582 
L 142.735294 214.70884 
L 144.558824 211.33733 
L 146.382353 211.33733 
L 147.294118 213.023085 
L 148.205882 206.280064 
L 149.117647 202.908554 
L 150.029412 196.165533 
L 150.941176 187.736757 
L 151.852941 184.365247 
L 152.764706 184.365247 
L 153.676471 179.307981 
L 155.5 186.051002 
L 156.411765 186.051002 
L 157.323529 191.108268 
L 158.235294 187.736757 
L 159.147059 182.679492 
L 160.058824 184.365247 
L 160.970588 170.879205 
L 161.882353 165.82194 
L 162.794118 165.82194 
L 163.705882 164.136185 
L 164.617647 167.507695 
L 165.529412 172.564961 
L 166.441176 172.564961 
L 167.352941 180.993737 
L 168.264706 180.993737 
L 169.176471 177.622226 
L 171 180.993737 
L 171.911765 177.622226 
L 172.823529 179.307981 
L 176.470588 179.307981 
L 177.382353 170.879205 
L 178.294118 174.250716 
L 179.205882 170.879205 
L 180.117647 172.564961 
L 181.029412 172.564961 
L 181.941176 179.307981 
L 182.852941 184.365247 
L 183.764706 194.479778 
L 184.676471 194.479778 
L 185.588235 196.165533 
L 186.5 192.794023 
L 187.411765 192.794023 
L 188.323529 186.051002 
L 189.235294 186.051002 
L 190.147059 182.679492 
L 191.058824 180.993737 
L 191.970588 184.365247 
L 192.882353 189.422513 
L 193.794118 189.422513 
L 194.705882 196.165533 
L 195.617647 197.851288 
L 196.529412 204.594309 
L 197.441176 206.280064 
L 200.176471 216.394596 
L 201.088235 218.080351 
L 202 218.080351 
L 202.911765 216.394596 
L 203.823529 218.080351 
L 204.735294 218.080351 
L 205.647059 216.394596 
L 206.558824 216.394596 
L 208.382353 213.023085 
L 209.294118 207.96582 
L 211.117647 207.96582 
L 212.029412 209.651575 
L 212.941176 213.023085 
L 213.852941 218.080351 
L 214.764706 219.766106 
L 215.676471 223.137616 
L 216.588235 224.823372 
L 218.411765 224.823372 
L 219.323529 221.451861 
L 220.235294 213.023085 
L 222.058824 206.280064 
L 222.970588 204.594309 
L 223.882353 204.594309 
L 224.794118 206.280064 
L 225.705882 206.280064 
L 226.617647 211.33733 
L 227.529412 211.33733 
L 228.441176 213.023085 
L 229.352941 213.023085 
L 230.264706 218.080351 
L 231.176471 221.451861 
L 232.088235 223.137616 
L 233 221.451861 
L 234.823529 221.451861 
L 236.647059 214.70884 
L 237.558824 213.023085 
L 239.382353 213.023085 
L 240.294118 211.33733 
L 241.205882 211.33733 
L 242.117647 213.023085 
L 243.029412 211.33733 
L 243.941176 207.96582 
L 244.852941 201.222799 
L 245.764706 199.537044 
L 246.676471 194.479778 
L 247.588235 192.794023 
L 248.5 196.165533 
L 249.411765 201.222799 
L 250.323529 204.594309 
L 251.235294 211.33733 
L 253.058824 214.70884 
L 253.970588 213.023085 
L 254.882353 213.023085 
L 256.705882 209.651575 
L 258.529412 209.651575 
L 259.441176 211.33733 
L 260.352941 214.70884 
L 261.264706 214.70884 
L 262.176471 216.394596 
L 263.088235 216.394596 
L 264.911765 213.023085 
L 266.735294 206.280064 
L 267.647059 207.96582 
L 269.470588 201.222799 
L 270.382353 196.165533 
L 271.294118 189.422513 
L 273.117647 186.051002 
L 274.029412 186.051002 
L 274.941176 192.794023 
L 275.852941 196.165533 
L 276.764706 201.222799 
L 277.676471 204.594309 
L 278.588235 202.908554 
L 279.5 204.594309 
L 280.411765 204.594309 
L 282.235294 207.96582 
L 283.147059 207.96582 
L 284.970588 204.594309 
L 285.882353 201.222799 
L 286.794118 201.222799 
L 287.705882 192.794023 
L 289.529412 179.307981 
L 292.264706 169.19345 
L 293.176471 167.507695 
L 294.088235 167.507695 
L 295 165.82194 
L 295.911765 160.764674 
L 297.735294 160.764674 
L 298.647059 162.450429 
L 299.558824 162.450429 
L 301.382353 152.335898 
L 302.294118 148.964388 
L 303.205882 148.964388 
L 305.029412 152.335898 
L 306.852941 165.82194 
L 307.764706 165.82194 
L 308.676471 159.078919 
L 309.588235 147.278633 
L 310.5 145.592878 
L 311.411765 148.964388 
L 312.323529 154.021654 
L 313.235294 150.650143 
L 314.147059 148.964388 
L 315.058824 140.535612 
L 315.970588 140.535612 
L 316.882353 128.735326 
L 317.794118 120.30655 
L 318.705882 118.620795 
L 319.617647 123.67806 
L 320.529412 125.363815 
L 321.441176 133.792591 
L 322.352941 133.792591 
L 324.176471 147.278633 
L 325.088235 142.221367 
L 326 148.964388 
L 327.823529 152.335898 
L 328.735294 155.707409 
L 329.647059 165.82194 
L 330.558824 169.19345 
L 331.470588 179.307981 
L 334.205882 194.479778 
L 335.117647 197.851288 
L 336.029412 202.908554 
L 336.941176 209.651575 
L 337.852941 214.70884 
L 339.676471 218.080351 
L 340.588235 218.080351 
L 341.5 216.394596 
L 343.323529 216.394596 
L 344.235294 219.766106 
L 346.970588 224.823372 
L 347.882353 223.137616 
L 350.617647 223.137616 
L 351.529412 224.823372 
L 352.441176 224.823372 
L 354.264706 228.194882 
L 355.176471 228.194882 
L 356.088235 229.880637 
L 357.911765 229.880637 
L 358.823529 231.566392 
L 359.735294 231.566392 
L 360.647059 233.252147 
L 361.558824 233.252147 
L 362.470588 234.937903 
L 363.382353 234.937903 
L 364.294118 238.309413 
L 365.205882 238.309413 
L 366.117647 239.995168 
L 367.941176 236.623658 
L 369.764706 236.623658 
L 370.676471 233.252147 
L 373.411765 233.252147 
L 374.323529 231.566392 
L 375.235294 231.566392 
L 377.970588 236.623658 
L 378.882353 236.623658 
L 379.794118 234.937903 
L 380.705882 229.880637 
L 381.617647 228.194882 
L 382.529412 223.137616 
L 383.441176 219.766106 
L 384.352941 214.70884 
L 385.264706 211.33733 
L 386.176471 211.33733 
L 387.088235 213.023085 
L 388.911765 213.023085 
L 389.823529 211.33733 
L 390.735294 213.023085 
L 391.647059 206.280064 
L 392.558824 201.222799 
L 393.470588 191.108268 
L 394.382353 189.422513 
L 396.205882 182.679492 
L 397.117647 172.564961 
L 398.029412 167.507695 
L 398.941176 160.764674 
L 399.852941 159.078919 
L 400.764706 150.650143 
L 401.676471 147.278633 
L 402.588235 140.535612 
L 403.5 142.221367 
L 404.411765 140.535612 
L 405.323529 137.164102 
L 406.235294 135.478346 
L 407.147059 140.535612 
L 408.058824 143.907122 
L 408.970588 150.650143 
L 409.882353 154.021654 
L 410.794118 160.764674 
L 411.705882 164.136185 
L 412.617647 169.19345 
L 413.529412 164.136185 
L 414.441176 164.136185 
L 416.264706 170.879205 
L 417.176471 167.507695 
L 418.088235 167.507695 
L 419 162.450429 
L 419.911765 164.136185 
L 420.823529 164.136185 
L 421.735294 154.021654 
L 422.647059 147.278633 
L 423.558824 150.650143 
L 425.382353 150.650143 
L 426.294118 154.021654 
L 427.205882 155.707409 
L 428.117647 162.450429 
L 429.029412 165.82194 
L 430.852941 155.707409 
L 431.764706 148.964388 
L 432.676471 140.535612 
L 433.588235 130.421081 
L 434.5 115.249284 
L 435.411765 103.448998 
L 436.323529 95.020222 
L 437.235294 93.334467 
L 438.147059 93.334467 
L 439.970588 100.077487 
L 440.882353 108.506263 
L 441.794118 103.448998 
L 442.705882 106.820508 
L 443.617647 100.077487 
L 444.529412 91.648712 
L 445.441176 93.334467 
L 446.352941 100.077487 
L 448.176471 135.478346 
L 449.088235 142.221367 
L 450 160.764674 
L 450 160.764674 
" style="fill:none;stroke:#b3220f;stroke-linecap:square;stroke-width:1.5;"/>
   </g>
   <g id="patch_3">
    <path d="M 62.5 262.5 
L 62.5 27 
" style="fill:none;stroke:#555555;stroke-linecap:square;stroke-linejoin:miter;"/>
   </g>
   <g id="patch_4">
    <path d="M 62.5 262.5 
L 450 262.5 
" style="fill:none;stroke:#555555;stroke-linecap:square;stroke-linejoin:miter;"/>
   </g>
   <g id="text_13">
    <!-- Los Mártires | Casos nuevos: 2021-06-08 -->
    <g style="fill:#555555;" transform="translate(127.225781 17)scale(0.14 -0.14)">
     <defs>
      <path d="M 7.796875 71.40625 
L 7.796875 0 
L 55.09375 0 
L 55.09375 8 
L 17.296875 8 
L 17.296875 71.40625 
z
" id="HelveticaNeue-76"/>
      <path d="M 12.59375 25.796875 
Q 12.59375 30.5 13.84375 34.140625 
Q 15.09375 37.796875 17.296875 40.296875 
Q 19.5 42.796875 22.453125 44.09375 
Q 25.40625 45.40625 28.703125 45.40625 
Q 32 45.40625 34.953125 44.09375 
Q 37.90625 42.796875 40.09375 40.296875 
Q 42.296875 37.796875 43.546875 34.140625 
Q 44.796875 30.5 44.796875 25.796875 
Q 44.796875 21.09375 43.546875 17.4375 
Q 42.296875 13.796875 40.09375 11.34375 
Q 37.90625 8.90625 34.953125 7.59375 
Q 32 6.296875 28.703125 6.296875 
Q 25.40625 6.296875 22.453125 7.59375 
Q 19.5 8.90625 17.296875 11.34375 
Q 15.09375 13.796875 13.84375 17.4375 
Q 12.59375 21.09375 12.59375 25.796875 
z
M 3.59375 25.796875 
Q 3.59375 20.09375 5.1875 15.1875 
Q 6.796875 10.296875 10 6.640625 
Q 13.203125 3 17.890625 0.953125 
Q 22.59375 -1.09375 28.703125 -1.09375 
Q 34.90625 -1.09375 39.546875 0.953125 
Q 44.203125 3 47.390625 6.640625 
Q 50.59375 10.296875 52.1875 15.1875 
Q 53.796875 20.09375 53.796875 25.796875 
Q 53.796875 31.5 52.1875 36.453125 
Q 50.59375 41.40625 47.390625 45.046875 
Q 44.203125 48.703125 39.546875 50.796875 
Q 34.90625 52.90625 28.703125 52.90625 
Q 22.59375 52.90625 17.890625 50.796875 
Q 13.203125 48.703125 10 45.046875 
Q 6.796875 41.40625 5.1875 36.453125 
Q 3.59375 31.5 3.59375 25.796875 
z
" id="HelveticaNeue-111"/>
      <path d="M 11.59375 16.296875 
L 3.09375 16.296875 
Q 3.296875 11.5 5.09375 8.140625 
Q 6.90625 4.796875 9.90625 2.75 
Q 12.90625 0.703125 16.796875 -0.1875 
Q 20.703125 -1.09375 25 -1.09375 
Q 28.90625 -1.09375 32.84375 -0.34375 
Q 36.796875 0.40625 39.9375 2.296875 
Q 43.09375 4.203125 45.046875 7.296875 
Q 47 10.40625 47 15.09375 
Q 47 18.796875 45.546875 21.296875 
Q 44.09375 23.796875 41.75 25.4375 
Q 39.40625 27.09375 36.34375 28.09375 
Q 33.296875 29.09375 30.09375 29.796875 
Q 27.09375 30.5 24.09375 31.140625 
Q 21.09375 31.796875 18.6875 32.75 
Q 16.296875 33.703125 14.75 35.140625 
Q 13.203125 36.59375 13.203125 38.796875 
Q 13.203125 40.796875 14.203125 42.046875 
Q 15.203125 43.296875 16.796875 44.046875 
Q 18.40625 44.796875 20.34375 45.09375 
Q 22.296875 45.40625 24.203125 45.40625 
Q 26.296875 45.40625 28.34375 44.953125 
Q 30.40625 44.5 32.09375 43.5 
Q 33.796875 42.5 34.890625 40.84375 
Q 36 39.203125 36.203125 36.703125 
L 44.703125 36.703125 
Q 44.40625 41.40625 42.703125 44.546875 
Q 41 47.703125 38.140625 49.546875 
Q 35.296875 51.40625 31.59375 52.15625 
Q 27.90625 52.90625 23.5 52.90625 
Q 20.09375 52.90625 16.640625 52.046875 
Q 13.203125 51.203125 10.453125 49.453125 
Q 7.703125 47.703125 5.953125 44.890625 
Q 4.203125 42.09375 4.203125 38.203125 
Q 4.203125 33.203125 6.703125 30.390625 
Q 9.203125 27.59375 12.953125 26.046875 
Q 16.703125 24.5 21.09375 23.640625 
Q 25.5 22.796875 29.25 21.75 
Q 33 20.703125 35.5 19 
Q 38 17.296875 38 14 
Q 38 11.59375 36.796875 10.046875 
Q 35.59375 8.5 33.75 7.703125 
Q 31.90625 6.90625 29.703125 6.59375 
Q 27.5 6.296875 25.5 6.296875 
Q 22.90625 6.296875 20.453125 6.796875 
Q 18 7.296875 16.046875 8.4375 
Q 14.09375 9.59375 12.890625 11.546875 
Q 11.703125 13.5 11.59375 16.296875 
z
" id="HelveticaNeue-115"/>
      <path id="HelveticaNeue-32"/>
      <path d="M 8 71.40625 
L 8 0 
L 17 0 
L 17 59.40625 
L 17.203125 59.40625 
L 39.5 0 
L 47.59375 0 
L 69.90625 59.40625 
L 70.09375 59.40625 
L 70.09375 0 
L 79.09375 0 
L 79.09375 71.40625 
L 66.09375 71.40625 
L 43.5 11.40625 
L 21 71.40625 
z
" id="HelveticaNeue-77"/>
      <path d="M 52.203125 0.203125 
Q 50 -1.09375 46.09375 -1.09375 
Q 42.796875 -1.09375 40.84375 0.75 
Q 38.90625 2.59375 38.90625 6.796875 
Q 35.40625 2.59375 30.75 0.75 
Q 26.09375 -1.09375 20.703125 -1.09375 
Q 17.203125 -1.09375 14.046875 -0.296875 
Q 10.90625 0.5 8.59375 2.203125 
Q 6.296875 3.90625 4.9375 6.65625 
Q 3.59375 9.40625 3.59375 13.296875 
Q 3.59375 17.703125 5.09375 20.5 
Q 6.59375 23.296875 9.046875 25.046875 
Q 11.5 26.796875 14.640625 27.6875 
Q 17.796875 28.59375 21.09375 29.203125 
Q 24.59375 29.90625 27.75 30.25 
Q 30.90625 30.59375 33.296875 31.25 
Q 35.703125 31.90625 37.09375 33.15625 
Q 38.5 34.40625 38.5 36.796875 
Q 38.5 39.59375 37.453125 41.296875 
Q 36.40625 43 34.75 43.890625 
Q 33.09375 44.796875 31.046875 45.09375 
Q 29 45.40625 27 45.40625 
Q 21.59375 45.40625 18 43.34375 
Q 14.40625 41.296875 14.09375 35.59375 
L 5.59375 35.59375 
Q 5.796875 40.40625 7.59375 43.703125 
Q 9.40625 47 12.40625 49.046875 
Q 15.40625 51.09375 19.25 52 
Q 23.09375 52.90625 27.5 52.90625 
Q 31 52.90625 34.453125 52.40625 
Q 37.90625 51.90625 40.703125 50.34375 
Q 43.5 48.796875 45.203125 46 
Q 46.90625 43.203125 46.90625 38.703125 
L 46.90625 12.09375 
Q 46.90625 9.09375 47.25 7.6875 
Q 47.59375 6.296875 49.59375 6.296875 
Q 50.703125 6.296875 52.203125 6.796875 
z
M 38.40625 26.703125 
Q 36.796875 25.5 34.1875 24.953125 
Q 31.59375 24.40625 28.75 24.046875 
Q 25.90625 23.703125 23 23.25 
Q 20.09375 22.796875 17.796875 21.796875 
Q 15.5 20.796875 14.046875 18.9375 
Q 12.59375 17.09375 12.59375 13.90625 
Q 12.59375 11.796875 13.4375 10.34375 
Q 14.296875 8.90625 15.640625 8 
Q 17 7.09375 18.796875 6.6875 
Q 20.59375 6.296875 22.59375 6.296875 
Q 26.796875 6.296875 29.796875 7.4375 
Q 32.796875 8.59375 34.6875 10.34375 
Q 36.59375 12.09375 37.5 14.140625 
Q 38.40625 16.203125 38.40625 18 
z
M 41.296875 77 
L 27.203125 60.796875 
L 20.796875 60.796875 
L 30.40625 77 
z
" id="HelveticaNeue-225"/>
      <path d="M 15.40625 61 
L 15.40625 71.40625 
L 6.90625 71.40625 
L 6.90625 61 
z
M 6.90625 51.703125 
L 6.90625 0 
L 15.40625 0 
L 15.40625 51.703125 
z
" id="HelveticaNeue-105"/>
      <path d="M 7.703125 78.59375 
L 7.703125 -21.296875 
L 14.5 -21.296875 
L 14.5 78.59375 
z
" id="HelveticaNeue-124"/>
      <path d="M 58 49.90625 
L 67.5 49.90625 
Q 66.703125 55.59375 64.09375 59.9375 
Q 61.5 64.296875 57.59375 67.1875 
Q 53.703125 70.09375 48.703125 71.59375 
Q 43.703125 73.09375 38.09375 73.09375 
Q 29.90625 73.09375 23.546875 70.140625 
Q 17.203125 67.203125 12.953125 62.09375 
Q 8.703125 57 6.5 50.140625 
Q 4.296875 43.296875 4.296875 35.5 
Q 4.296875 27.703125 6.34375 20.890625 
Q 8.40625 14.09375 12.5 9.09375 
Q 16.59375 4.09375 22.796875 1.25 
Q 29 -1.59375 37.296875 -1.59375 
Q 51 -1.59375 58.890625 5.90625 
Q 66.796875 13.40625 68.203125 26.90625 
L 58.703125 26.90625 
Q 58.40625 22.5 56.90625 18.703125 
Q 55.40625 14.90625 52.75 12.15625 
Q 50.09375 9.40625 46.4375 7.84375 
Q 42.796875 6.296875 38.09375 6.296875 
Q 31.703125 6.296875 27.09375 8.6875 
Q 22.5 11.09375 19.546875 15.140625 
Q 16.59375 19.203125 15.1875 24.640625 
Q 13.796875 30.09375 13.796875 36.203125 
Q 13.796875 41.796875 15.1875 47 
Q 16.59375 52.203125 19.546875 56.25 
Q 22.5 60.296875 27.046875 62.6875 
Q 31.59375 65.09375 38 65.09375 
Q 45.5 65.09375 50.953125 61.296875 
Q 56.40625 57.5 58 49.90625 
z
" id="HelveticaNeue-67"/>
      <path d="M 29.703125 0 
L 48.59375 51.703125 
L 39.703125 51.703125 
L 25.59375 8.59375 
L 25.40625 8.59375 
L 10.90625 51.703125 
L 1.40625 51.703125 
L 20.59375 0 
z
" id="HelveticaNeue-118"/>
      <path d="M 19.40625 40.59375 
L 19.40625 51.703125 
L 8.296875 51.703125 
L 8.296875 40.59375 
z
M 8.296875 11.09375 
L 8.296875 0 
L 19.40625 0 
L 19.40625 11.09375 
z
" id="HelveticaNeue-58"/>
      <path d="M 5 31.796875 
L 5 23.796875 
L 33.90625 23.796875 
L 33.90625 31.796875 
z
" id="HelveticaNeue-45"/>
     </defs>
     <use xlink:href="#HelveticaNeue-76"/>
     <use x="55.599991" xlink:href="#HelveticaNeue-111"/>
     <use x="112.999985" xlink:href="#HelveticaNeue-115"/>
     <use x="162.999969" xlink:href="#HelveticaNeue-32"/>
     <use x="190.799957" xlink:href="#HelveticaNeue-77"/>
     <use x="277.899948" xlink:href="#HelveticaNeue-225"/>
     <use x="331.599945" xlink:href="#HelveticaNeue-114"/>
     <use x="364.899933" xlink:href="#HelveticaNeue-116"/>
     <use x="396.399918" xlink:href="#HelveticaNeue-105"/>
     <use x="418.599915" xlink:href="#HelveticaNeue-114"/>
     <use x="450.149902" xlink:href="#HelveticaNeue-101"/>
     <use x="503.849899" xlink:href="#HelveticaNeue-115"/>
     <use x="553.849884" xlink:href="#HelveticaNeue-32"/>
     <use x="581.649872" xlink:href="#HelveticaNeue-124"/>
     <use x="603.849869" xlink:href="#HelveticaNeue-32"/>
     <use x="631.649857" xlink:href="#HelveticaNeue-67"/>
     <use x="703.849838" xlink:href="#HelveticaNeue-97"/>
     <use x="757.549835" xlink:href="#HelveticaNeue-115"/>
     <use x="807.54982" xlink:href="#HelveticaNeue-111"/>
     <use x="864.949814" xlink:href="#HelveticaNeue-115"/>
     <use x="914.949799" xlink:href="#HelveticaNeue-32"/>
     <use x="942.749786" xlink:href="#HelveticaNeue-110"/>
     <use x="998.349777" xlink:href="#HelveticaNeue-117"/>
     <use x="1053.949768" xlink:href="#HelveticaNeue-101"/>
     <use x="1107.649765" xlink:href="#HelveticaNeue-118"/>
     <use x="1157.64975" xlink:href="#HelveticaNeue-111"/>
     <use x="1215.049744" xlink:href="#HelveticaNeue-115"/>
     <use x="1265.049728" xlink:href="#HelveticaNeue-58"/>
     <use x="1292.849716" xlink:href="#HelveticaNeue-32"/>
     <use x="1320.649704" xlink:href="#HelveticaNeue-50"/>
     <use x="1376.249695" xlink:href="#HelveticaNeue-48"/>
     <use x="1431.849686" xlink:href="#HelveticaNeue-50"/>
     <use x="1487.449677" xlink:href="#HelveticaNeue-49"/>
     <use x="1543.049667" xlink:href="#HelveticaNeue-45"/>
     <use x="1581.949661" xlink:href="#HelveticaNeue-48"/>
     <use x="1637.549652" xlink:href="#HelveticaNeue-54"/>
     <use x="1693.149643" xlink:href="#HelveticaNeue-45"/>
     <use x="1732.049637" xlink:href="#HelveticaNeue-48"/>
     <use x="1787.649628" xlink:href="#HelveticaNeue-56"/>
    </g>
   </g>
   <g id="legend_1">
    <g id="line2d_26">
     <path d="M 181.767188 39.640625 
L 201.767188 39.640625 
" style="fill:none;stroke:#000000;stroke-dasharray:1.5,2.475;stroke-dashoffset:0;stroke-opacity:0.5;stroke-width:1.5;"/>
    </g>
    <g id="line2d_27"/>
    <g id="text_14">
     <!-- Actual -->
     <g style="fill:#555555;" transform="translate(209.767188 43.140625)scale(0.1 -0.1)">
      <use xlink:href="#HelveticaNeue-65"/>
      <use x="64.799988" xlink:href="#HelveticaNeue-99"/>
      <use x="118.499985" xlink:href="#HelveticaNeue-116"/>
      <use x="149.999969" xlink:href="#HelveticaNeue-117"/>
      <use x="205.59996" xlink:href="#HelveticaNeue-97"/>
      <use x="259.299957" xlink:href="#HelveticaNeue-108"/>
     </g>
    </g>
    <g id="line2d_28">
     <path d="M 181.767188 54.310937 
L 201.767188 54.310937 
" style="fill:none;stroke:#b3220f;stroke-linecap:square;stroke-width:1.5;"/>
    </g>
    <g id="line2d_29"/>
    <g id="text_15">
     <!-- Promedio semanal (7 días)  -->
     <g style="fill:#555555;" transform="translate(209.767188 57.810937)scale(0.1 -0.1)">
      <defs>
       <path d="M 17.296875 37.203125 
L 17.296875 63.40625 
L 35.90625 63.40625 
Q 44 63.40625 47.75 60.046875 
Q 51.5 56.703125 51.5 50.296875 
Q 51.5 43.90625 47.75 40.5 
Q 44 37.09375 35.90625 37.203125 
z
M 7.796875 71.40625 
L 7.796875 0 
L 17.296875 0 
L 17.296875 29.203125 
L 39.09375 29.203125 
Q 49.90625 29.09375 55.453125 34.6875 
Q 61 40.296875 61 50.296875 
Q 61 60.296875 55.453125 65.84375 
Q 49.90625 71.40625 39.09375 71.40625 
z
" id="HelveticaNeue-80"/>
       <path d="M 6.40625 51.703125 
L 6.40625 0 
L 14.90625 0 
L 14.90625 32.203125 
Q 14.90625 33.703125 15.65625 35.953125 
Q 16.40625 38.203125 18.046875 40.296875 
Q 19.703125 42.40625 22.34375 43.90625 
Q 25 45.40625 28.703125 45.40625 
Q 31.59375 45.40625 33.4375 44.546875 
Q 35.296875 43.703125 36.390625 42.140625 
Q 37.5 40.59375 37.953125 38.5 
Q 38.40625 36.40625 38.40625 33.90625 
L 38.40625 0 
L 46.90625 0 
L 46.90625 32.203125 
Q 46.90625 38.203125 50.5 41.796875 
Q 54.09375 45.40625 60.40625 45.40625 
Q 63.5 45.40625 65.453125 44.5 
Q 67.40625 43.59375 68.5 42.046875 
Q 69.59375 40.5 70 38.390625 
Q 70.40625 36.296875 70.40625 33.90625 
L 70.40625 0 
L 78.90625 0 
L 78.90625 37.90625 
Q 78.90625 41.90625 77.65625 44.75 
Q 76.40625 47.59375 74.15625 49.390625 
Q 71.90625 51.203125 68.75 52.046875 
Q 65.59375 52.90625 61.703125 52.90625 
Q 56.59375 52.90625 52.34375 50.59375 
Q 48.09375 48.296875 45.5 44.09375 
Q 43.90625 48.90625 40 50.90625 
Q 36.09375 52.90625 31.296875 52.90625 
Q 20.40625 52.90625 14.59375 44.09375 
L 14.40625 44.09375 
L 14.40625 51.703125 
z
" id="HelveticaNeue-109"/>
       <path d="M 12.59375 25.40625 
Q 12.59375 29.203125 13.390625 32.796875 
Q 14.203125 36.40625 16 39.203125 
Q 17.796875 42 20.796875 43.703125 
Q 23.796875 45.40625 28.09375 45.40625 
Q 32.5 45.40625 35.59375 43.75 
Q 38.703125 42.09375 40.640625 39.390625 
Q 42.59375 36.703125 43.5 33.140625 
Q 44.40625 29.59375 44.40625 25.796875 
Q 44.40625 22.203125 43.546875 18.703125 
Q 42.703125 15.203125 40.796875 12.453125 
Q 38.90625 9.703125 35.90625 8 
Q 32.90625 6.296875 28.59375 6.296875 
Q 24.5 6.296875 21.453125 7.890625 
Q 18.40625 9.5 16.453125 12.203125 
Q 14.5 14.90625 13.546875 18.34375 
Q 12.59375 21.796875 12.59375 25.40625 
z
M 52.59375 0 
L 52.59375 71.40625 
L 44.09375 71.40625 
L 44.09375 44.796875 
L 43.90625 44.796875 
Q 42.5 47.09375 40.453125 48.640625 
Q 38.40625 50.203125 36.09375 51.140625 
Q 33.796875 52.09375 31.5 52.5 
Q 29.203125 52.90625 27.203125 52.90625 
Q 21.296875 52.90625 16.84375 50.75 
Q 12.40625 48.59375 9.453125 44.9375 
Q 6.5 41.296875 5.046875 36.390625 
Q 3.59375 31.5 3.59375 26 
Q 3.59375 20.5 5.09375 15.59375 
Q 6.59375 10.703125 9.546875 7 
Q 12.5 3.296875 16.953125 1.09375 
Q 21.40625 -1.09375 27.40625 -1.09375 
Q 32.796875 -1.09375 37.296875 0.796875 
Q 41.796875 2.703125 43.90625 7 
L 44.09375 7 
L 44.09375 0 
z
" id="HelveticaNeue-100"/>
       <path d="M 20.40625 -19.703125 
L 26.90625 -19.703125 
Q 19.796875 -8.203125 16.75 3.09375 
Q 13.703125 14.40625 13.703125 27 
Q 13.703125 39.296875 16.703125 50.5 
Q 19.703125 61.703125 26.90625 73.09375 
L 20.40625 73.09375 
Q 12.59375 62.796875 8.640625 50.796875 
Q 4.703125 38.796875 4.703125 27 
Q 4.703125 20.40625 5.796875 14.40625 
Q 6.90625 8.40625 8.953125 2.703125 
Q 11 -3 13.890625 -8.546875 
Q 16.796875 -14.09375 20.40625 -19.703125 
z
" id="HelveticaNeue-40"/>
       <path d="M 50.90625 62.40625 
L 50.90625 69.703125 
L 5 69.703125 
L 5 61.703125 
L 42.203125 61.703125 
Q 36.59375 55.796875 31.75 48.796875 
Q 26.90625 41.796875 23.203125 33.9375 
Q 19.5 26.09375 17.140625 17.546875 
Q 14.796875 9 14.203125 0 
L 23.703125 0 
Q 24.203125 8.296875 26.5 17.09375 
Q 28.796875 25.90625 32.4375 34.203125 
Q 36.09375 42.5 40.796875 49.796875 
Q 45.5 57.09375 50.90625 62.40625 
z
" id="HelveticaNeue-55"/>
       <path d="M 6.90625 0 
L 15.40625 0 
L 15.40625 51.703125 
L 6.90625 51.703125 
z
M 25.5 77 
L 11.40625 60.796875 
L 5 60.796875 
L 14.59375 77 
z
" id="HelveticaNeue-237"/>
       <path d="M -0.90625 -19.703125 
L 5.5 -19.703125 
Q 13.296875 -9.40625 17.25 2.546875 
Q 21.203125 14.5 21.203125 26.296875 
Q 21.203125 32.90625 20.09375 38.90625 
Q 19 44.90625 16.953125 50.65625 
Q 14.90625 56.40625 12 61.953125 
Q 9.09375 67.5 5.5 73.09375 
L -0.90625 73.09375 
Q 6.09375 61.59375 9.140625 50.25 
Q 12.203125 38.90625 12.203125 26.296875 
Q 12.203125 14.09375 9.203125 2.84375 
Q 6.203125 -8.40625 -0.90625 -19.703125 
z
" id="HelveticaNeue-41"/>
      </defs>
      <use xlink:href="#HelveticaNeue-80"/>
      <use x="64.799988" xlink:href="#HelveticaNeue-114"/>
      <use x="96.349976" xlink:href="#HelveticaNeue-111"/>
      <use x="153.749969" xlink:href="#HelveticaNeue-109"/>
      <use x="239.049957" xlink:href="#HelveticaNeue-101"/>
      <use x="292.749954" xlink:href="#HelveticaNeue-100"/>
      <use x="352.049942" xlink:href="#HelveticaNeue-105"/>
      <use x="374.249939" xlink:href="#HelveticaNeue-111"/>
      <use x="431.649933" xlink:href="#HelveticaNeue-32"/>
      <use x="459.449921" xlink:href="#HelveticaNeue-115"/>
      <use x="509.449905" xlink:href="#HelveticaNeue-101"/>
      <use x="563.149902" xlink:href="#HelveticaNeue-109"/>
      <use x="648.44989" xlink:href="#HelveticaNeue-97"/>
      <use x="702.149887" xlink:href="#HelveticaNeue-110"/>
      <use x="757.749878" xlink:href="#HelveticaNeue-97"/>
      <use x="811.449875" xlink:href="#HelveticaNeue-108"/>
      <use x="833.649872" xlink:href="#HelveticaNeue-32"/>
      <use x="861.44986" xlink:href="#HelveticaNeue-40"/>
      <use x="887.349854" xlink:href="#HelveticaNeue-55"/>
      <use x="942.949844" xlink:href="#HelveticaNeue-32"/>
      <use x="970.749832" xlink:href="#HelveticaNeue-100"/>
      <use x="1030.04982" xlink:href="#HelveticaNeue-237"/>
      <use x="1052.249817" xlink:href="#HelveticaNeue-97"/>
      <use x="1105.949814" xlink:href="#HelveticaNeue-115"/>
      <use x="1155.949799" xlink:href="#HelveticaNeue-41"/>
      <use x="1181.849792" xlink:href="#HelveticaNeue-32"/>
     </g>
    </g>
   </g>
  </g>
 </g>
 <defs>
  <clipPath id="pcbfe00d905">
   <rect height="235.5" width="387.5" x="62.5" y="27"/>
  </clipPath>
 </defs>
</svg>
