<?xml version="1.0" encoding="utf-8" standalone="no"?>
<!DOCTYPE svg PUBLIC "-//W3C//DTD SVG 1.1//EN"
  "http://www.w3.org/Graphics/SVG/1.1/DTD/svg11.dtd">
<!-- Created with matplotlib (https://matplotlib.org/) -->
<svg height="300pt" version="1.1" viewBox="0 0 500 300" width="500pt" xmlns="http://www.w3.org/2000/svg" xmlns:xlink="http://www.w3.org/1999/xlink">
 <metadata>
  <rdf:RDF xmlns:cc="http://creativecommons.org/ns#" xmlns:dc="http://purl.org/dc/elements/1.1/" xmlns:rdf="http://www.w3.org/1999/02/22-rdf-syntax-ns#">
   <cc:Work>
    <dc:type rdf:resource="http://purl.org/dc/dcmitype/StillImage"/>
    <dc:date>2021-06-06T15:19:22.600349</dc:date>
    <dc:format>image/svg+xml</dc:format>
    <dc:creator>
     <cc:Agent>
      <dc:title>Matplotlib v3.3.4, https://matplotlib.org/</dc:title>
     </cc:Agent>
    </dc:creator>
   </cc:Work>
  </rdf:RDF>
 </metadata>
 <defs>
  <style type="text/css">*{stroke-linecap:butt;stroke-linejoin:round;}</style>
 </defs>
 <g id="figure_1">
  <g id="patch_1">
   <path d="M 0 300 
L 500 300 
L 500 0 
L 0 0 
z
" style="fill:#ffffff;"/>
  </g>
  <g id="axes_1">
   <g id="patch_2">
    <path d="M 62.5 262.5 
L 450 262.5 
L 450 27 
L 62.5 27 
z
" style="fill:#ffffff;"/>
   </g>
   <g id="matplotlib.axis_1">
    <g id="xtick_1">
     <g id="line2d_1">
      <defs>
       <path d="M 0 0 
L 0 3.5 
" id="m674e23a678" style="stroke:#555555;stroke-width:0.8;"/>
      </defs>
      <g>
       <use style="fill:#555555;stroke:#555555;stroke-width:0.8;" x="62.5" xlink:href="#m674e23a678" y="262.5"/>
      </g>
     </g>
    </g>
    <g id="xtick_2">
     <g id="line2d_2">
      <g>
       <use style="fill:#555555;stroke:#555555;stroke-width:0.8;" x="138.895487" xlink:href="#m674e23a678" y="262.5"/>
      </g>
     </g>
     <g id="text_1">
      <!-- Jul -->
      <g style="fill:#555555;" transform="translate(132.410331 276.640625)scale(0.1 -0.1)">
       <defs>
        <path d="M 44.09375 17.796875 
L 44.09375 71.40625 
L 34.59375 71.40625 
L 34.59375 19.203125 
Q 34.59375 13.296875 32.140625 9.796875 
Q 29.703125 6.296875 23.203125 6.296875 
Q 19.703125 6.296875 17.453125 7.34375 
Q 15.203125 8.40625 13.953125 10.296875 
Q 12.703125 12.203125 12.203125 14.796875 
Q 11.703125 17.40625 11.703125 20.5 
L 11.703125 23.5 
L 2.203125 23.5 
L 2.203125 19.09375 
Q 2.203125 8.90625 7.59375 3.65625 
Q 13 -1.59375 23 -1.59375 
Q 29 -1.59375 33.046875 0.046875 
Q 37.09375 1.703125 39.546875 4.453125 
Q 42 7.203125 43.046875 10.703125 
Q 44.09375 14.203125 44.09375 17.796875 
z
" id="HelveticaNeue-74"/>
        <path d="M 49.203125 0 
L 49.203125 51.703125 
L 40.703125 51.703125 
L 40.703125 22.5 
Q 40.703125 19 39.75 16.046875 
Q 38.796875 13.09375 36.890625 10.890625 
Q 35 8.703125 32.140625 7.5 
Q 29.296875 6.296875 25.40625 6.296875 
Q 20.5 6.296875 17.703125 9.09375 
Q 14.90625 11.90625 14.90625 16.703125 
L 14.90625 51.703125 
L 6.40625 51.703125 
L 6.40625 17.703125 
Q 6.40625 13.5 7.25 10.046875 
Q 8.09375 6.59375 10.1875 4.09375 
Q 12.296875 1.59375 15.6875 0.25 
Q 19.09375 -1.09375 24.203125 -1.09375 
Q 29.90625 -1.09375 34.09375 1.15625 
Q 38.296875 3.40625 41 8.203125 
L 41.203125 8.203125 
L 41.203125 0 
z
" id="HelveticaNeue-117"/>
        <path d="M 6.90625 71.40625 
L 6.90625 0 
L 15.40625 0 
L 15.40625 71.40625 
z
" id="HelveticaNeue-108"/>
       </defs>
       <use xlink:href="#HelveticaNeue-74"/>
       <use x="51.899994" xlink:href="#HelveticaNeue-117"/>
       <use x="107.499985" xlink:href="#HelveticaNeue-108"/>
      </g>
     </g>
    </g>
    <g id="xtick_3">
     <g id="line2d_3">
      <g>
       <use style="fill:#555555;stroke:#555555;stroke-width:0.8;" x="223.574822" xlink:href="#m674e23a678" y="262.5"/>
      </g>
     </g>
     <g id="text_2">
      <!-- Oct -->
      <g style="fill:#555555;" transform="translate(215.514666 276.640625)scale(0.1 -0.1)">
       <defs>
        <path d="M 13.296875 35.703125 
Q 13.296875 41.09375 14.6875 46.34375 
Q 16.09375 51.59375 19.09375 55.796875 
Q 22.09375 60 26.796875 62.546875 
Q 31.5 65.09375 38 65.09375 
Q 44.5 65.09375 49.203125 62.546875 
Q 53.90625 60 56.90625 55.796875 
Q 59.90625 51.59375 61.296875 46.34375 
Q 62.703125 41.09375 62.703125 35.703125 
Q 62.703125 30.296875 61.296875 25.046875 
Q 59.90625 19.796875 56.90625 15.59375 
Q 53.90625 11.40625 49.203125 8.84375 
Q 44.5 6.296875 38 6.296875 
Q 31.5 6.296875 26.796875 8.84375 
Q 22.09375 11.40625 19.09375 15.59375 
Q 16.09375 19.796875 14.6875 25.046875 
Q 13.296875 30.296875 13.296875 35.703125 
z
M 3.796875 35.703125 
Q 3.796875 28.40625 5.9375 21.65625 
Q 8.09375 14.90625 12.390625 9.703125 
Q 16.703125 4.5 23.09375 1.453125 
Q 29.5 -1.59375 38 -1.59375 
Q 46.5 -1.59375 52.890625 1.453125 
Q 59.296875 4.5 63.59375 9.703125 
Q 67.90625 14.90625 70.046875 21.65625 
Q 72.203125 28.40625 72.203125 35.703125 
Q 72.203125 43 70.046875 49.75 
Q 67.90625 56.5 63.59375 61.703125 
Q 59.296875 66.90625 52.890625 70 
Q 46.5 73.09375 38 73.09375 
Q 29.5 73.09375 23.09375 70 
Q 16.703125 66.90625 12.390625 61.703125 
Q 8.09375 56.5 5.9375 49.75 
Q 3.796875 43 3.796875 35.703125 
z
" id="HelveticaNeue-79"/>
        <path d="M 41.5 35.09375 
L 50.296875 35.09375 
Q 49.796875 39.703125 47.890625 43.046875 
Q 46 46.40625 43.046875 48.59375 
Q 40.09375 50.796875 36.25 51.84375 
Q 32.40625 52.90625 28 52.90625 
Q 21.90625 52.90625 17.296875 50.75 
Q 12.703125 48.59375 9.640625 44.84375 
Q 6.59375 41.09375 5.09375 36.046875 
Q 3.59375 31 3.59375 25.203125 
Q 3.59375 19.40625 5.140625 14.546875 
Q 6.703125 9.703125 9.75 6.203125 
Q 12.796875 2.703125 17.34375 0.796875 
Q 21.90625 -1.09375 27.796875 -1.09375 
Q 37.703125 -1.09375 43.453125 4.09375 
Q 49.203125 9.296875 50.59375 18.90625 
L 41.90625 18.90625 
Q 41.09375 12.90625 37.546875 9.59375 
Q 34 6.296875 27.703125 6.296875 
Q 23.703125 6.296875 20.796875 7.890625 
Q 17.90625 9.5 16.09375 12.140625 
Q 14.296875 14.796875 13.4375 18.1875 
Q 12.59375 21.59375 12.59375 25.203125 
Q 12.59375 29.09375 13.390625 32.75 
Q 14.203125 36.40625 16.046875 39.203125 
Q 17.90625 42 21 43.703125 
Q 24.09375 45.40625 28.703125 45.40625 
Q 34.09375 45.40625 37.296875 42.703125 
Q 40.5 40 41.5 35.09375 
z
" id="HelveticaNeue-99"/>
        <path d="M 18.203125 51.703125 
L 18.203125 67.203125 
L 9.703125 67.203125 
L 9.703125 51.703125 
L 0.90625 51.703125 
L 0.90625 44.203125 
L 9.703125 44.203125 
L 9.703125 11.296875 
Q 9.703125 7.703125 10.390625 5.5 
Q 11.09375 3.296875 12.546875 2.09375 
Q 14 0.90625 16.34375 0.453125 
Q 18.703125 0 22 0 
L 28.5 0 
L 28.5 7.5 
L 24.59375 7.5 
Q 22.59375 7.5 21.34375 7.640625 
Q 20.09375 7.796875 19.390625 8.296875 
Q 18.703125 8.796875 18.453125 9.6875 
Q 18.203125 10.59375 18.203125 12.09375 
L 18.203125 44.203125 
L 28.5 44.203125 
L 28.5 51.703125 
z
" id="HelveticaNeue-116"/>
       </defs>
       <use xlink:href="#HelveticaNeue-79"/>
       <use x="75.999985" xlink:href="#HelveticaNeue-99"/>
       <use x="129.699982" xlink:href="#HelveticaNeue-116"/>
      </g>
     </g>
    </g>
    <g id="xtick_4">
     <g id="line2d_4">
      <g>
       <use style="fill:#555555;stroke:#555555;stroke-width:0.8;" x="308.254157" xlink:href="#m674e23a678" y="262.5"/>
      </g>
     </g>
     <g id="text_3">
      <!-- Jan -->
      <g style="fill:#555555;" transform="translate(300.194001 276.640625)scale(0.1 -0.1)">
       <defs>
        <path d="M 52.203125 0.203125 
Q 50 -1.09375 46.09375 -1.09375 
Q 42.796875 -1.09375 40.84375 0.75 
Q 38.90625 2.59375 38.90625 6.796875 
Q 35.40625 2.59375 30.75 0.75 
Q 26.09375 -1.09375 20.703125 -1.09375 
Q 17.203125 -1.09375 14.046875 -0.296875 
Q 10.90625 0.5 8.59375 2.203125 
Q 6.296875 3.90625 4.9375 6.65625 
Q 3.59375 9.40625 3.59375 13.296875 
Q 3.59375 17.703125 5.09375 20.5 
Q 6.59375 23.296875 9.046875 25.046875 
Q 11.5 26.796875 14.640625 27.6875 
Q 17.796875 28.59375 21.09375 29.203125 
Q 24.59375 29.90625 27.75 30.25 
Q 30.90625 30.59375 33.296875 31.25 
Q 35.703125 31.90625 37.09375 33.15625 
Q 38.5 34.40625 38.5 36.796875 
Q 38.5 39.59375 37.453125 41.296875 
Q 36.40625 43 34.75 43.890625 
Q 33.09375 44.796875 31.046875 45.09375 
Q 29 45.40625 27 45.40625 
Q 21.59375 45.40625 18 43.34375 
Q 14.40625 41.296875 14.09375 35.59375 
L 5.59375 35.59375 
Q 5.796875 40.40625 7.59375 43.703125 
Q 9.40625 47 12.40625 49.046875 
Q 15.40625 51.09375 19.25 52 
Q 23.09375 52.90625 27.5 52.90625 
Q 31 52.90625 34.453125 52.40625 
Q 37.90625 51.90625 40.703125 50.34375 
Q 43.5 48.796875 45.203125 46 
Q 46.90625 43.203125 46.90625 38.703125 
L 46.90625 12.09375 
Q 46.90625 9.09375 47.25 7.6875 
Q 47.59375 6.296875 49.59375 6.296875 
Q 50.703125 6.296875 52.203125 6.796875 
z
M 38.40625 26.703125 
Q 36.796875 25.5 34.1875 24.953125 
Q 31.59375 24.40625 28.75 24.046875 
Q 25.90625 23.703125 23 23.25 
Q 20.09375 22.796875 17.796875 21.796875 
Q 15.5 20.796875 14.046875 18.9375 
Q 12.59375 17.09375 12.59375 13.90625 
Q 12.59375 11.796875 13.4375 10.34375 
Q 14.296875 8.90625 15.640625 8 
Q 17 7.09375 18.796875 6.6875 
Q 20.59375 6.296875 22.59375 6.296875 
Q 26.796875 6.296875 29.796875 7.4375 
Q 32.796875 8.59375 34.6875 10.34375 
Q 36.59375 12.09375 37.5 14.140625 
Q 38.40625 16.203125 38.40625 18 
z
" id="HelveticaNeue-97"/>
        <path d="M 6.40625 51.703125 
L 6.40625 0 
L 14.90625 0 
L 14.90625 29.203125 
Q 14.90625 32.703125 15.84375 35.640625 
Q 16.796875 38.59375 18.6875 40.796875 
Q 20.59375 43 23.4375 44.203125 
Q 26.296875 45.40625 30.203125 45.40625 
Q 35.09375 45.40625 37.890625 42.59375 
Q 40.703125 39.796875 40.703125 35 
L 40.703125 0 
L 49.203125 0 
L 49.203125 34 
Q 49.203125 38.203125 48.34375 41.640625 
Q 47.5 45.09375 45.390625 47.59375 
Q 43.296875 50.09375 39.890625 51.5 
Q 36.5 52.90625 31.40625 52.90625 
Q 19.90625 52.90625 14.59375 43.5 
L 14.40625 43.5 
L 14.40625 51.703125 
z
" id="HelveticaNeue-110"/>
       </defs>
       <use xlink:href="#HelveticaNeue-74"/>
       <use x="51.899994" xlink:href="#HelveticaNeue-97"/>
       <use x="105.599991" xlink:href="#HelveticaNeue-110"/>
      </g>
      <!-- 2021 -->
      <g style="fill:#555555;" transform="translate(297.135407 287.179688)scale(0.1 -0.1)">
       <defs>
        <path d="M 4.40625 45.796875 
L 12.90625 45.796875 
Q 12.796875 49 13.546875 52.140625 
Q 14.296875 55.296875 16 57.796875 
Q 17.703125 60.296875 20.34375 61.84375 
Q 23 63.40625 26.703125 63.40625 
Q 29.5 63.40625 32 62.5 
Q 34.5 61.59375 36.34375 59.890625 
Q 38.203125 58.203125 39.296875 55.84375 
Q 40.40625 53.5 40.40625 50.59375 
Q 40.40625 46.90625 39.25 44.09375 
Q 38.09375 41.296875 35.84375 38.890625 
Q 33.59375 36.5 30.1875 34.140625 
Q 26.796875 31.796875 22.296875 29 
Q 18.59375 26.796875 15.1875 24.296875 
Q 11.796875 21.796875 9.09375 18.5 
Q 6.40625 15.203125 4.65625 10.75 
Q 2.90625 6.296875 2.40625 0 
L 48.703125 0 
L 48.703125 7.5 
L 12.296875 7.5 
Q 12.90625 10.796875 14.84375 13.34375 
Q 16.796875 15.90625 19.546875 18.09375 
Q 22.296875 20.296875 25.59375 22.25 
Q 28.90625 24.203125 32.203125 26.203125 
Q 35.5 28.296875 38.59375 30.59375 
Q 41.703125 32.90625 44.09375 35.75 
Q 46.5 38.59375 47.953125 42.1875 
Q 49.40625 45.796875 49.40625 50.5 
Q 49.40625 55.5 47.65625 59.296875 
Q 45.90625 63.09375 42.90625 65.640625 
Q 39.90625 68.203125 35.84375 69.546875 
Q 31.796875 70.90625 27.203125 70.90625 
Q 21.59375 70.90625 17.1875 69 
Q 12.796875 67.09375 9.84375 63.75 
Q 6.90625 60.40625 5.5 55.796875 
Q 4.09375 51.203125 4.40625 45.796875 
z
" id="HelveticaNeue-50"/>
        <path d="M 13.203125 34.90625 
Q 13.203125 37.5 13.25 40.640625 
Q 13.296875 43.796875 13.75 46.9375 
Q 14.203125 50.09375 15.046875 53.09375 
Q 15.90625 56.09375 17.546875 58.34375 
Q 19.203125 60.59375 21.703125 62 
Q 24.203125 63.40625 27.796875 63.40625 
Q 31.40625 63.40625 33.90625 62 
Q 36.40625 60.59375 38.046875 58.34375 
Q 39.703125 56.09375 40.546875 53.09375 
Q 41.40625 50.09375 41.84375 46.9375 
Q 42.296875 43.796875 42.34375 40.640625 
Q 42.40625 37.5 42.40625 34.90625 
Q 42.40625 30.90625 42.15625 25.953125 
Q 41.90625 21 40.546875 16.640625 
Q 39.203125 12.296875 36.203125 9.296875 
Q 33.203125 6.296875 27.796875 6.296875 
Q 22.40625 6.296875 19.40625 9.296875 
Q 16.40625 12.296875 15.046875 16.640625 
Q 13.703125 21 13.453125 25.953125 
Q 13.203125 30.90625 13.203125 34.90625 
z
M 4.203125 34.796875 
Q 4.203125 30.90625 4.390625 26.703125 
Q 4.59375 22.5 5.390625 18.5 
Q 6.203125 14.5 7.703125 10.953125 
Q 9.203125 7.40625 11.796875 4.703125 
Q 14.40625 2 18.34375 0.453125 
Q 22.296875 -1.09375 27.796875 -1.09375 
Q 33.40625 -1.09375 37.296875 0.453125 
Q 41.203125 2 43.796875 4.703125 
Q 46.40625 7.40625 47.90625 10.953125 
Q 49.40625 14.5 50.203125 18.5 
Q 51 22.5 51.203125 26.703125 
Q 51.40625 30.90625 51.40625 34.796875 
Q 51.40625 38.703125 51.203125 42.890625 
Q 51 47.09375 50.203125 51.09375 
Q 49.40625 55.09375 47.90625 58.6875 
Q 46.40625 62.296875 43.796875 65 
Q 41.203125 67.703125 37.25 69.296875 
Q 33.296875 70.90625 27.796875 70.90625 
Q 22.296875 70.90625 18.34375 69.296875 
Q 14.40625 67.703125 11.796875 65 
Q 9.203125 62.296875 7.703125 58.6875 
Q 6.203125 55.09375 5.390625 51.09375 
Q 4.59375 47.09375 4.390625 42.890625 
Q 4.203125 38.703125 4.203125 34.796875 
z
" id="HelveticaNeue-48"/>
        <path d="M 35.59375 0 
L 35.59375 70.90625 
L 29.09375 70.90625 
Q 28.40625 66.90625 26.5 64.296875 
Q 24.59375 61.703125 21.84375 60.203125 
Q 19.09375 58.703125 15.6875 58.140625 
Q 12.296875 57.59375 8.703125 57.59375 
L 8.703125 50.796875 
L 27.09375 50.796875 
L 27.09375 0 
z
" id="HelveticaNeue-49"/>
       </defs>
       <use xlink:href="#HelveticaNeue-50"/>
       <use x="55.599991" xlink:href="#HelveticaNeue-48"/>
       <use x="111.199982" xlink:href="#HelveticaNeue-50"/>
       <use x="166.799973" xlink:href="#HelveticaNeue-49"/>
      </g>
     </g>
    </g>
    <g id="xtick_5">
     <g id="line2d_5">
      <g>
       <use style="fill:#555555;stroke:#555555;stroke-width:0.8;" x="391.092637" xlink:href="#m674e23a678" y="262.5"/>
      </g>
     </g>
     <g id="text_4">
      <!-- Apr -->
      <g style="fill:#555555;" transform="translate(383.223105 276.640625)scale(0.1 -0.1)">
       <defs>
        <path d="M 20.09375 29.5 
L 32.203125 62.796875 
L 32.40625 62.796875 
L 44.296875 29.5 
z
M 27.203125 71.40625 
L -0.59375 0 
L 9.09375 0 
L 17.09375 21.5 
L 47.296875 21.5 
L 55.09375 0 
L 65.59375 0 
L 37.703125 71.40625 
z
" id="HelveticaNeue-65"/>
        <path d="M 6.703125 51.703125 
L 6.703125 -19.703125 
L 15.203125 -19.703125 
L 15.203125 6.90625 
L 15.40625 6.90625 
Q 16.796875 4.59375 18.84375 3.046875 
Q 20.90625 1.5 23.203125 0.59375 
Q 25.5 -0.296875 27.84375 -0.6875 
Q 30.203125 -1.09375 32.09375 -1.09375 
Q 38 -1.09375 42.453125 1 
Q 46.90625 3.09375 49.84375 6.75 
Q 52.796875 10.40625 54.25 15.296875 
Q 55.703125 20.203125 55.703125 25.703125 
Q 55.703125 31.203125 54.203125 36.09375 
Q 52.703125 41 49.75 44.75 
Q 46.796875 48.5 42.34375 50.703125 
Q 37.90625 52.90625 31.90625 52.90625 
Q 26.5 52.90625 22 50.953125 
Q 17.5 49 15.40625 44.703125 
L 15.203125 44.703125 
L 15.203125 51.703125 
z
M 46.703125 26.296875 
Q 46.703125 22.5 45.890625 18.890625 
Q 45.09375 15.296875 43.296875 12.5 
Q 41.5 9.703125 38.546875 8 
Q 35.59375 6.296875 31.203125 6.296875 
Q 26.796875 6.296875 23.6875 7.9375 
Q 20.59375 9.59375 18.640625 12.296875 
Q 16.703125 15 15.796875 18.546875 
Q 14.90625 22.09375 14.90625 25.90625 
Q 14.90625 29.5 15.75 33 
Q 16.59375 36.5 18.5 39.25 
Q 20.40625 42 23.40625 43.703125 
Q 26.40625 45.40625 30.703125 45.40625 
Q 34.796875 45.40625 37.84375 43.796875 
Q 40.90625 42.203125 42.84375 39.5 
Q 44.796875 36.796875 45.75 33.34375 
Q 46.703125 29.90625 46.703125 26.296875 
z
" id="HelveticaNeue-112"/>
        <path d="M 6.09375 51.703125 
L 6.09375 0 
L 14.59375 0 
L 14.59375 23 
Q 14.59375 28 15.59375 31.84375 
Q 16.59375 35.703125 18.796875 38.390625 
Q 21 41.09375 24.59375 42.5 
Q 28.203125 43.90625 33.296875 43.90625 
L 33.296875 52.90625 
Q 26.40625 53.09375 21.90625 50.09375 
Q 17.40625 47.09375 14.296875 40.796875 
L 14.09375 40.796875 
L 14.09375 51.703125 
z
" id="HelveticaNeue-114"/>
       </defs>
       <use xlink:href="#HelveticaNeue-65"/>
       <use x="64.799988" xlink:href="#HelveticaNeue-112"/>
       <use x="124.099976" xlink:href="#HelveticaNeue-114"/>
      </g>
     </g>
    </g>
    <g id="xtick_6">
     <g id="line2d_6">
      <g>
       <use style="fill:#555555;stroke:#555555;stroke-width:0.8;" x="450" xlink:href="#m674e23a678" y="262.5"/>
      </g>
     </g>
    </g>
    <g id="xtick_7">
     <g id="line2d_7">
      <defs>
       <path d="M 0 0 
L 0 2 
" id="m365647ac92" style="stroke:#555555;stroke-width:0.6;"/>
      </defs>
      <g>
       <use style="fill:#555555;stroke:#555555;stroke-width:0.6;" x="82.749406" xlink:href="#m365647ac92" y="262.5"/>
      </g>
     </g>
    </g>
    <g id="xtick_8">
     <g id="line2d_8">
      <g>
       <use style="fill:#555555;stroke:#555555;stroke-width:0.6;" x="111.28266" xlink:href="#m365647ac92" y="262.5"/>
      </g>
     </g>
    </g>
    <g id="xtick_9">
     <g id="line2d_9">
      <g>
       <use style="fill:#555555;stroke:#555555;stroke-width:0.6;" x="167.428741" xlink:href="#m365647ac92" y="262.5"/>
      </g>
     </g>
    </g>
    <g id="xtick_10">
     <g id="line2d_10">
      <g>
       <use style="fill:#555555;stroke:#555555;stroke-width:0.6;" x="195.961995" xlink:href="#m365647ac92" y="262.5"/>
      </g>
     </g>
    </g>
    <g id="xtick_11">
     <g id="line2d_11">
      <g>
       <use style="fill:#555555;stroke:#555555;stroke-width:0.6;" x="252.108076" xlink:href="#m365647ac92" y="262.5"/>
      </g>
     </g>
    </g>
    <g id="xtick_12">
     <g id="line2d_12">
      <g>
       <use style="fill:#555555;stroke:#555555;stroke-width:0.6;" x="279.720903" xlink:href="#m365647ac92" y="262.5"/>
      </g>
     </g>
    </g>
    <g id="xtick_13">
     <g id="line2d_13">
      <g>
       <use style="fill:#555555;stroke:#555555;stroke-width:0.6;" x="336.787411" xlink:href="#m365647ac92" y="262.5"/>
      </g>
     </g>
    </g>
    <g id="xtick_14">
     <g id="line2d_14">
      <g>
       <use style="fill:#555555;stroke:#555555;stroke-width:0.6;" x="362.559382" xlink:href="#m365647ac92" y="262.5"/>
      </g>
     </g>
    </g>
    <g id="xtick_15">
     <g id="line2d_15">
      <g>
       <use style="fill:#555555;stroke:#555555;stroke-width:0.6;" x="418.705463" xlink:href="#m365647ac92" y="262.5"/>
      </g>
     </g>
    </g>
    <g id="xtick_16">
     <g id="line2d_16">
      <g>
       <use style="fill:#555555;stroke:#555555;stroke-width:0.6;" x="447.238717" xlink:href="#m365647ac92" y="262.5"/>
      </g>
     </g>
    </g>
    <g id="text_5">
     <!-- fecha -->
     <g style="fill:#555555;" transform="translate(243.935156 300.290625)scale(0.1 -0.1)">
      <defs>
       <path d="M 9.90625 44.203125 
L 9.90625 0 
L 18.40625 0 
L 18.40625 44.203125 
L 28.40625 44.203125 
L 28.40625 51.703125 
L 18.40625 51.703125 
L 18.40625 58.90625 
Q 18.40625 62.296875 20.09375 63.5 
Q 21.796875 64.703125 24.90625 64.703125 
Q 26 64.703125 27.296875 64.546875 
Q 28.59375 64.40625 29.703125 64 
L 29.703125 71.40625 
Q 28.5 71.796875 26.953125 72 
Q 25.40625 72.203125 24.203125 72.203125 
Q 17.203125 72.203125 13.546875 68.953125 
Q 9.90625 65.703125 9.90625 59.40625 
L 9.90625 51.703125 
L 1.203125 51.703125 
L 1.203125 44.203125 
z
" id="HelveticaNeue-102"/>
       <path d="M 42.296875 30.796875 
L 12.59375 30.796875 
Q 12.796875 33.796875 13.890625 36.4375 
Q 15 39.09375 16.890625 41.09375 
Q 18.796875 43.09375 21.4375 44.25 
Q 24.09375 45.40625 27.40625 45.40625 
Q 30.59375 45.40625 33.25 44.25 
Q 35.90625 43.09375 37.84375 41.140625 
Q 39.796875 39.203125 40.9375 36.5 
Q 42.09375 33.796875 42.296875 30.796875 
z
M 50.5 16.40625 
L 42.09375 16.40625 
Q 41 11.296875 37.546875 8.796875 
Q 34.09375 6.296875 28.703125 6.296875 
Q 24.5 6.296875 21.390625 7.6875 
Q 18.296875 9.09375 16.296875 11.4375 
Q 14.296875 13.796875 13.390625 16.84375 
Q 12.5 19.90625 12.59375 23.296875 
L 51.296875 23.296875 
Q 51.5 28 50.453125 33.203125 
Q 49.40625 38.40625 46.65625 42.796875 
Q 43.90625 47.203125 39.34375 50.046875 
Q 34.796875 52.90625 27.90625 52.90625 
Q 22.59375 52.90625 18.140625 50.90625 
Q 13.703125 48.90625 10.453125 45.296875 
Q 7.203125 41.703125 5.390625 36.796875 
Q 3.59375 31.90625 3.59375 26 
Q 3.796875 20.09375 5.34375 15.09375 
Q 6.90625 10.09375 10 6.5 
Q 13.09375 2.90625 17.640625 0.90625 
Q 22.203125 -1.09375 28.40625 -1.09375 
Q 37.203125 -1.09375 43 3.296875 
Q 48.796875 7.703125 50.5 16.40625 
z
" id="HelveticaNeue-101"/>
       <path d="M 6.40625 71.40625 
L 6.40625 0 
L 14.90625 0 
L 14.90625 29.203125 
Q 14.90625 32.703125 15.84375 35.640625 
Q 16.796875 38.59375 18.6875 40.796875 
Q 20.59375 43 23.4375 44.203125 
Q 26.296875 45.40625 30.203125 45.40625 
Q 35.09375 45.40625 37.890625 42.59375 
Q 40.703125 39.796875 40.703125 35 
L 40.703125 0 
L 49.203125 0 
L 49.203125 34 
Q 49.203125 38.203125 48.34375 41.640625 
Q 47.5 45.09375 45.390625 47.59375 
Q 43.296875 50.09375 39.890625 51.5 
Q 36.5 52.90625 31.40625 52.90625 
Q 29.09375 52.90625 26.640625 52.40625 
Q 24.203125 51.90625 21.953125 50.84375 
Q 19.703125 49.796875 17.890625 48.140625 
Q 16.09375 46.5 15.09375 44.09375 
L 14.90625 44.09375 
L 14.90625 71.40625 
z
" id="HelveticaNeue-104"/>
      </defs>
      <use xlink:href="#HelveticaNeue-102"/>
      <use x="29.599991" xlink:href="#HelveticaNeue-101"/>
      <use x="83.299988" xlink:href="#HelveticaNeue-99"/>
      <use x="136.999985" xlink:href="#HelveticaNeue-104"/>
      <use x="192.599976" xlink:href="#HelveticaNeue-97"/>
     </g>
    </g>
   </g>
   <g id="matplotlib.axis_2">
    <g id="ytick_1">
     <g id="line2d_17">
      <defs>
       <path d="M 0 0 
L -3.5 0 
" id="mea646d7553" style="stroke:#555555;stroke-width:0.8;"/>
      </defs>
      <g>
       <use style="fill:#555555;stroke:#555555;stroke-width:0.8;" x="62.5" xlink:href="#mea646d7553" y="251.795455"/>
      </g>
     </g>
     <g id="text_6">
      <!-- 0 -->
      <g style="fill:#555555;" transform="translate(49.940625 255.365767)scale(0.1 -0.1)">
       <use xlink:href="#HelveticaNeue-48"/>
      </g>
     </g>
    </g>
    <g id="ytick_2">
     <g id="line2d_18">
      <g>
       <use style="fill:#555555;stroke:#555555;stroke-width:0.8;" x="62.5" xlink:href="#mea646d7553" y="218.080351"/>
      </g>
     </g>
     <g id="text_7">
      <!-- 20 -->
      <g style="fill:#555555;" transform="translate(44.38125 221.650663)scale(0.1 -0.1)">
       <use xlink:href="#HelveticaNeue-50"/>
       <use x="55.599991" xlink:href="#HelveticaNeue-48"/>
      </g>
     </g>
    </g>
    <g id="ytick_3">
     <g id="line2d_19">
      <g>
       <use style="fill:#555555;stroke:#555555;stroke-width:0.8;" x="62.5" xlink:href="#mea646d7553" y="184.365247"/>
      </g>
     </g>
     <g id="text_8">
      <!-- 40 -->
      <g style="fill:#555555;" transform="translate(44.38125 187.935559)scale(0.1 -0.1)">
       <defs>
        <path d="M 33.90625 24.09375 
L 10.09375 24.09375 
L 33.703125 58.796875 
L 33.90625 58.796875 
z
M 41.90625 24.09375 
L 41.90625 70.90625 
L 35.09375 70.90625 
L 2.796875 24.796875 
L 2.796875 16.59375 
L 33.90625 16.59375 
L 33.90625 0 
L 41.90625 0 
L 41.90625 16.59375 
L 51.5 16.59375 
L 51.5 24.09375 
z
" id="HelveticaNeue-52"/>
       </defs>
       <use xlink:href="#HelveticaNeue-52"/>
       <use x="55.599991" xlink:href="#HelveticaNeue-48"/>
      </g>
     </g>
    </g>
    <g id="ytick_4">
     <g id="line2d_20">
      <g>
       <use style="fill:#555555;stroke:#555555;stroke-width:0.8;" x="62.5" xlink:href="#mea646d7553" y="150.650143"/>
      </g>
     </g>
     <g id="text_9">
      <!-- 60 -->
      <g style="fill:#555555;" transform="translate(44.38125 154.220456)scale(0.1 -0.1)">
       <defs>
        <path d="M 41.40625 52.796875 
L 49.90625 52.796875 
Q 49.09375 61.59375 43.890625 66.25 
Q 38.703125 70.90625 29.90625 70.90625 
Q 22.296875 70.90625 17.296875 67.703125 
Q 12.296875 64.5 9.296875 59.203125 
Q 6.296875 53.90625 5.046875 47.046875 
Q 3.796875 40.203125 3.796875 32.90625 
Q 3.796875 27.296875 4.640625 21.296875 
Q 5.5 15.296875 8.09375 10.296875 
Q 10.703125 5.296875 15.5 2.09375 
Q 20.296875 -1.09375 28.203125 -1.09375 
Q 34.90625 -1.09375 39.453125 1.15625 
Q 44 3.40625 46.75 6.84375 
Q 49.5 10.296875 50.703125 14.5 
Q 51.90625 18.703125 51.90625 22.59375 
Q 51.90625 27.5 50.40625 31.703125 
Q 48.90625 35.90625 46.15625 39 
Q 43.40625 42.09375 39.34375 43.84375 
Q 35.296875 45.59375 30.203125 45.59375 
Q 24.40625 45.59375 19.953125 43.390625 
Q 15.5 41.203125 12.5 36.296875 
L 12.296875 36.5 
Q 12.40625 40.59375 13.09375 45.296875 
Q 13.796875 50 15.640625 54.046875 
Q 17.5 58.09375 20.796875 60.75 
Q 24.09375 63.40625 29.5 63.40625 
Q 34.59375 63.40625 37.6875 60.5 
Q 40.796875 57.59375 41.40625 52.796875 
z
M 28.59375 38.09375 
Q 32.203125 38.09375 34.890625 36.796875 
Q 37.59375 35.5 39.390625 33.34375 
Q 41.203125 31.203125 42.046875 28.25 
Q 42.90625 25.296875 42.90625 22 
Q 42.90625 18.90625 41.953125 16.046875 
Q 41 13.203125 39.203125 11 
Q 37.40625 8.796875 34.75 7.546875 
Q 32.09375 6.296875 28.59375 6.296875 
Q 25.09375 6.296875 22.34375 7.546875 
Q 19.59375 8.796875 17.75 10.890625 
Q 15.90625 13 14.90625 15.890625 
Q 13.90625 18.796875 13.90625 22.09375 
Q 13.90625 25.40625 14.84375 28.34375 
Q 15.796875 31.296875 17.6875 33.4375 
Q 19.59375 35.59375 22.296875 36.84375 
Q 25 38.09375 28.59375 38.09375 
z
" id="HelveticaNeue-54"/>
       </defs>
       <use xlink:href="#HelveticaNeue-54"/>
       <use x="55.599991" xlink:href="#HelveticaNeue-48"/>
      </g>
     </g>
    </g>
    <g id="ytick_5">
     <g id="line2d_21">
      <g>
       <use style="fill:#555555;stroke:#555555;stroke-width:0.8;" x="62.5" xlink:href="#mea646d7553" y="116.935039"/>
      </g>
     </g>
     <g id="text_10">
      <!-- 80 -->
      <g style="fill:#555555;" transform="translate(44.38125 120.505352)scale(0.1 -0.1)">
       <defs>
        <path d="M 15.5 52.5 
Q 15.5 55.203125 16.5 57.203125 
Q 17.5 59.203125 19.140625 60.59375 
Q 20.796875 62 23.09375 62.703125 
Q 25.40625 63.40625 27.90625 63.40625 
Q 33.09375 63.40625 36.4375 60.65625 
Q 39.796875 57.90625 39.796875 52.5 
Q 39.796875 47.09375 36.5 44.09375 
Q 33.203125 41.09375 28.09375 41.09375 
Q 25.5 41.09375 23.203125 41.796875 
Q 20.90625 42.5 19.203125 43.890625 
Q 17.5 45.296875 16.5 47.4375 
Q 15.5 49.59375 15.5 52.5 
z
M 6.5 52.796875 
Q 6.5 48 9.203125 43.953125 
Q 11.90625 39.90625 16.40625 38.09375 
Q 10.40625 36 7.203125 31.34375 
Q 4 26.703125 4 20.40625 
Q 4 15 5.84375 10.953125 
Q 7.703125 6.90625 10.953125 4.203125 
Q 14.203125 1.5 18.59375 0.203125 
Q 23 -1.09375 28.09375 -1.09375 
Q 33 -1.09375 37.296875 0.296875 
Q 41.59375 1.703125 44.75 4.453125 
Q 47.90625 7.203125 49.75 11.203125 
Q 51.59375 15.203125 51.59375 20.40625 
Q 51.59375 27 48.5 31.546875 
Q 45.40625 36.09375 39 38.09375 
Q 43.5 40.09375 46.140625 44.046875 
Q 48.796875 48 48.796875 52.796875 
Q 48.796875 56.203125 47.59375 59.453125 
Q 46.40625 62.703125 43.84375 65.25 
Q 41.296875 67.796875 37.1875 69.34375 
Q 33.09375 70.90625 27.296875 70.90625 
Q 23.203125 70.90625 19.453125 69.703125 
Q 15.703125 68.5 12.796875 66.203125 
Q 9.90625 63.90625 8.203125 60.546875 
Q 6.5 57.203125 6.5 52.796875 
z
M 13 20 
Q 13 23.09375 14.140625 25.59375 
Q 15.296875 28.09375 17.34375 29.890625 
Q 19.40625 31.703125 22.15625 32.640625 
Q 24.90625 33.59375 28 33.59375 
Q 31 33.59375 33.640625 32.546875 
Q 36.296875 31.5 38.296875 29.703125 
Q 40.296875 27.90625 41.4375 25.453125 
Q 42.59375 23 42.59375 20.09375 
Q 42.59375 17.09375 41.546875 14.59375 
Q 40.5 12.09375 38.546875 10.25 
Q 36.59375 8.40625 33.9375 7.34375 
Q 31.296875 6.296875 28.09375 6.296875 
Q 21.5 6.296875 17.25 9.9375 
Q 13 13.59375 13 20 
z
" id="HelveticaNeue-56"/>
       </defs>
       <use xlink:href="#HelveticaNeue-56"/>
       <use x="55.599991" xlink:href="#HelveticaNeue-48"/>
      </g>
     </g>
    </g>
    <g id="ytick_6">
     <g id="line2d_22">
      <g>
       <use style="fill:#555555;stroke:#555555;stroke-width:0.8;" x="62.5" xlink:href="#mea646d7553" y="83.219936"/>
      </g>
     </g>
     <g id="text_11">
      <!-- 100 -->
      <g style="fill:#555555;" transform="translate(38.821875 86.790248)scale(0.1 -0.1)">
       <use xlink:href="#HelveticaNeue-49"/>
       <use x="55.599991" xlink:href="#HelveticaNeue-48"/>
       <use x="111.199982" xlink:href="#HelveticaNeue-48"/>
      </g>
     </g>
    </g>
    <g id="ytick_7">
     <g id="line2d_23">
      <g>
       <use style="fill:#555555;stroke:#555555;stroke-width:0.8;" x="62.5" xlink:href="#mea646d7553" y="49.504832"/>
      </g>
     </g>
     <g id="text_12">
      <!-- 120 -->
      <g style="fill:#555555;" transform="translate(38.821875 53.075144)scale(0.1 -0.1)">
       <use xlink:href="#HelveticaNeue-49"/>
       <use x="55.599991" xlink:href="#HelveticaNeue-50"/>
       <use x="111.199982" xlink:href="#HelveticaNeue-48"/>
      </g>
     </g>
    </g>
   </g>
   <g id="line2d_24">
    <path clip-path="url(#p1584e4686e)" d="M 62.5 248.423944 
L 63.420428 251.795455 
L 64.340855 251.795455 
L 65.261283 250.109699 
L 66.18171 250.109699 
L 67.102138 251.795455 
L 68.022565 251.795455 
L 68.942993 250.109699 
L 70.783848 250.109699 
L 71.704276 251.795455 
L 72.624703 248.423944 
L 73.545131 251.795455 
L 74.465558 251.795455 
L 75.385986 250.109699 
L 76.306413 251.795455 
L 78.147268 251.795455 
L 79.067696 250.109699 
L 79.988124 251.795455 
L 80.908551 250.109699 
L 81.828979 236.623658 
L 82.749406 250.109699 
L 83.669834 251.795455 
L 84.590261 248.423944 
L 85.510689 248.423944 
L 86.431116 245.052434 
L 87.351544 248.423944 
L 88.271971 241.680923 
L 89.192399 238.309413 
L 90.112827 250.109699 
L 91.033254 246.738189 
L 91.953682 250.109699 
L 92.874109 241.680923 
L 93.794537 246.738189 
L 94.714964 239.995168 
L 95.635392 248.423944 
L 96.555819 250.109699 
L 97.476247 243.366679 
L 98.396675 245.052434 
L 99.317102 241.680923 
L 100.23753 239.995168 
L 101.157957 245.052434 
L 102.078385 233.252147 
L 102.998812 241.680923 
L 103.91924 251.795455 
L 104.839667 239.995168 
L 105.760095 246.738189 
L 106.680523 226.509127 
L 107.60095 37.704545 
L 108.521378 213.023085 
L 109.441805 236.623658 
L 110.362233 214.70884 
L 111.28266 234.937903 
L 112.203088 214.70884 
L 113.123515 238.309413 
L 114.043943 238.309413 
L 114.964371 241.680923 
L 115.884798 238.309413 
L 116.805226 228.194882 
L 117.725653 241.680923 
L 118.646081 226.509127 
L 119.566508 239.995168 
L 121.407363 239.995168 
L 122.327791 238.309413 
L 123.248219 234.937903 
L 124.168646 246.738189 
L 125.089074 216.394596 
L 126.009501 218.080351 
L 126.929929 221.451861 
L 127.850356 223.137616 
L 128.770784 182.679492 
L 129.691211 231.566392 
L 130.611639 233.252147 
L 131.532067 228.194882 
L 132.452494 116.935039 
L 133.372922 233.252147 
L 134.293349 219.766106 
L 135.213777 213.023085 
L 136.134204 219.766106 
L 137.054632 243.366679 
L 137.975059 201.222799 
L 138.895487 182.679492 
L 139.815914 170.879205 
L 140.736342 228.194882 
L 141.65677 229.880637 
L 142.577197 218.080351 
L 143.497625 207.96582 
L 144.418052 191.108268 
L 145.33848 216.394596 
L 147.179335 216.394596 
L 148.099762 223.137616 
L 149.02019 201.222799 
L 149.940618 206.280064 
L 150.861045 216.394596 
L 151.781473 159.078919 
L 152.7019 194.479778 
L 154.542755 155.707409 
L 155.463183 191.108268 
L 156.38361 216.394596 
L 157.304038 152.335898 
L 158.224466 199.537044 
L 159.144893 211.33733 
L 160.065321 162.450429 
L 160.985748 202.908554 
L 161.906176 170.879205 
L 162.826603 170.879205 
L 163.747031 172.564961 
L 164.667458 96.705977 
L 165.587886 184.365247 
L 166.508314 189.422513 
L 167.428741 180.993737 
L 168.349169 191.108268 
L 169.269596 189.422513 
L 170.190024 140.535612 
L 171.110451 186.051002 
L 172.030879 192.794023 
L 172.951306 170.879205 
L 173.871734 189.422513 
L 174.792162 196.165533 
L 175.712589 152.335898 
L 176.633017 164.136185 
L 178.473872 211.33733 
L 179.394299 162.450429 
L 180.314727 177.622226 
L 181.235154 111.877774 
L 182.155582 206.280064 
L 183.07601 154.021654 
L 183.996437 206.280064 
L 184.916865 192.794023 
L 185.837292 209.651575 
L 186.75772 199.537044 
L 187.678147 186.051002 
L 188.598575 202.908554 
L 189.519002 174.250716 
L 190.43943 184.365247 
L 191.359857 201.222799 
L 192.280285 148.964388 
L 193.200713 204.594309 
L 194.12114 169.19345 
L 195.041568 182.679492 
L 195.961995 207.96582 
L 196.882423 219.766106 
L 197.80285 191.108268 
L 198.723278 187.736757 
L 199.643705 213.023085 
L 200.564133 234.937903 
L 201.484561 191.108268 
L 202.404988 234.937903 
L 203.325416 236.623658 
L 204.245843 199.537044 
L 205.166271 206.280064 
L 206.086698 218.080351 
L 207.007126 228.194882 
L 207.927553 218.080351 
L 208.847981 228.194882 
L 210.688836 189.422513 
L 211.609264 209.651575 
L 212.529691 218.080351 
L 213.450119 192.794023 
L 214.370546 214.70884 
L 215.290974 224.823372 
L 216.211401 216.394596 
L 217.131829 223.137616 
L 218.052257 234.937903 
L 218.972684 221.451861 
L 219.893112 228.194882 
L 220.813539 224.823372 
L 221.733967 223.137616 
L 222.654394 207.96582 
L 223.574822 202.908554 
L 224.495249 172.564961 
L 225.415677 211.33733 
L 226.336105 207.96582 
L 227.256532 229.880637 
L 228.17696 206.280064 
L 229.097387 207.96582 
L 230.017815 191.108268 
L 230.938242 223.137616 
L 231.85867 219.766106 
L 232.779097 219.766106 
L 233.699525 231.566392 
L 234.619952 236.623658 
L 235.54038 223.137616 
L 236.460808 201.222799 
L 237.381235 214.70884 
L 238.301663 221.451861 
L 239.22209 231.566392 
L 240.142518 201.222799 
L 241.062945 199.537044 
L 241.983373 213.023085 
L 242.9038 218.080351 
L 243.824228 206.280064 
L 244.744656 223.137616 
L 245.665083 221.451861 
L 246.585511 201.222799 
L 247.505938 187.736757 
L 248.426366 196.165533 
L 249.346793 167.507695 
L 250.267221 209.651575 
L 251.187648 184.365247 
L 252.108076 214.70884 
L 253.028504 216.394596 
L 253.948931 221.451861 
L 254.869359 216.394596 
L 255.789786 216.394596 
L 256.710214 209.651575 
L 257.630641 207.96582 
L 258.551069 202.908554 
L 259.471496 219.766106 
L 260.391924 209.651575 
L 261.312352 207.96582 
L 262.232779 202.908554 
L 263.153207 219.766106 
L 264.073634 224.823372 
L 264.994062 231.566392 
L 265.914489 206.280064 
L 266.834917 209.651575 
L 267.755344 218.080351 
L 268.675772 189.422513 
L 269.5962 216.394596 
L 270.516627 201.222799 
L 271.437055 206.280064 
L 272.357482 224.823372 
L 273.27791 165.82194 
L 274.198337 187.736757 
L 275.118765 167.507695 
L 276.039192 164.136185 
L 276.95962 213.023085 
L 277.880048 199.537044 
L 279.720903 209.651575 
L 280.64133 197.851288 
L 281.561758 211.33733 
L 282.482185 189.422513 
L 283.402613 207.96582 
L 284.32304 219.766106 
L 285.243468 196.165533 
L 286.163895 228.194882 
L 287.084323 196.165533 
L 288.004751 206.280064 
L 288.925178 189.422513 
L 289.845606 199.537044 
L 290.766033 197.851288 
L 291.686461 201.222799 
L 292.606888 152.335898 
L 293.527316 138.849857 
L 294.447743 174.250716 
L 296.288599 184.365247 
L 297.209026 164.136185 
L 298.129454 175.936471 
L 299.049881 138.849857 
L 299.970309 130.421081 
L 300.890736 150.650143 
L 301.811164 206.280064 
L 302.731591 175.936471 
L 303.652019 164.136185 
L 304.572447 147.278633 
L 305.492874 81.53418 
L 308.254157 213.023085 
L 309.174584 162.450429 
L 310.095012 145.592878 
L 311.015439 179.307981 
L 311.935867 133.792591 
L 312.856295 155.707409 
L 313.776722 127.049571 
L 314.69715 125.363815 
L 315.617577 164.136185 
L 316.538005 182.679492 
L 317.458432 209.651575 
L 318.37886 66.362384 
L 319.299287 133.792591 
L 320.219715 74.79116 
L 321.140143 175.936471 
L 322.06057 86.591446 
L 322.980998 113.563529 
L 323.901425 174.250716 
L 324.821853 100.077487 
L 325.74228 148.964388 
L 326.662708 147.278633 
L 327.583135 157.393164 
L 328.503563 132.106836 
L 329.42399 177.622226 
L 330.344418 110.192019 
L 331.264846 172.564961 
L 332.185273 165.82194 
L 333.105701 152.335898 
L 334.026128 186.051002 
L 334.946556 204.594309 
L 335.866983 184.365247 
L 336.787411 186.051002 
L 337.707838 201.222799 
L 338.628266 202.908554 
L 339.548694 202.908554 
L 340.469121 213.023085 
L 341.389549 234.937903 
L 342.309976 229.880637 
L 343.230404 207.96582 
L 345.071259 214.70884 
L 345.991686 206.280064 
L 346.912114 221.451861 
L 347.832542 226.509127 
L 348.752969 226.509127 
L 349.673397 231.566392 
L 350.593824 214.70884 
L 351.514252 234.937903 
L 352.434679 218.080351 
L 353.355107 206.280064 
L 354.275534 233.252147 
L 355.195962 228.194882 
L 356.11639 233.252147 
L 357.036817 228.194882 
L 357.957245 224.823372 
L 358.877672 228.194882 
L 359.7981 214.70884 
L 360.718527 246.738189 
L 361.638955 233.252147 
L 362.559382 233.252147 
L 363.47981 228.194882 
L 364.400238 234.937903 
L 365.320665 228.194882 
L 366.241093 239.995168 
L 367.16152 241.680923 
L 369.002375 234.937903 
L 369.922803 248.423944 
L 372.684086 223.137616 
L 373.604513 239.995168 
L 374.524941 246.738189 
L 375.445368 224.823372 
L 376.365796 229.880637 
L 377.286223 226.509127 
L 378.206651 236.623658 
L 379.127078 226.509127 
L 380.047506 236.623658 
L 380.967933 236.623658 
L 381.888361 243.366679 
L 382.808789 234.937903 
L 383.729216 236.623658 
L 384.649644 233.252147 
L 385.570071 214.70884 
L 386.490499 206.280064 
L 387.410926 228.194882 
L 388.331354 209.651575 
L 389.251781 207.96582 
L 390.172209 196.165533 
L 391.092637 219.766106 
L 392.013064 218.080351 
L 392.933492 226.509127 
L 393.853919 207.96582 
L 394.774347 207.96582 
L 395.694774 194.479778 
L 396.615202 214.70884 
L 397.535629 175.936471 
L 398.456057 179.307981 
L 399.376485 154.021654 
L 400.296912 211.33733 
L 401.21734 184.365247 
L 402.137767 165.82194 
L 403.058195 116.935039 
L 403.978622 142.221367 
L 404.89905 155.707409 
L 405.819477 155.707409 
L 406.739905 145.592878 
L 407.660333 145.592878 
L 408.58076 98.391732 
L 409.501188 157.393164 
L 410.421615 127.049571 
L 411.342043 137.164102 
L 412.26247 142.221367 
L 413.182898 196.165533 
L 414.103325 143.907122 
L 415.023753 148.964388 
L 415.944181 167.507695 
L 416.864608 192.794023 
L 417.785036 162.450429 
L 418.705463 189.422513 
L 419.625891 121.992305 
L 421.466746 197.851288 
L 422.387173 207.96582 
L 423.307601 127.049571 
L 424.228029 162.450429 
L 425.148456 143.907122 
L 426.068884 152.335898 
L 426.989311 179.307981 
L 427.909739 111.877774 
L 428.830166 135.478346 
L 429.750594 186.051002 
L 430.671021 160.764674 
L 431.591449 128.735326 
L 432.511876 192.794023 
L 433.432304 165.82194 
L 434.352732 169.19345 
L 435.273159 165.82194 
L 436.193587 132.106836 
L 437.114014 115.249284 
L 438.034442 106.820508 
L 438.954869 147.278633 
L 439.875297 96.705977 
L 440.795724 39.390301 
L 441.716152 96.705977 
L 442.63658 76.476915 
L 443.557007 115.249284 
L 444.477435 120.30655 
L 445.397862 160.764674 
L 446.31829 84.905691 
L 447.238717 103.448998 
L 448.159145 62.990873 
L 449.079572 157.393164 
L 450 229.880637 
L 450 229.880637 
" style="fill:none;stroke:#000000;stroke-dasharray:1.5,2.475;stroke-dashoffset:0;stroke-opacity:0.5;stroke-width:1.5;"/>
   </g>
   <g id="line2d_25">
    <path clip-path="url(#p1584e4686e)" d="M 62.5 250.109699 
L 65.261283 250.109699 
L 66.18171 251.795455 
L 67.102138 250.109699 
L 73.545131 250.109699 
L 74.465558 251.795455 
L 78.147268 251.795455 
L 79.988124 248.423944 
L 82.749406 248.423944 
L 83.669834 246.738189 
L 84.590261 246.738189 
L 85.510689 248.423944 
L 87.351544 245.052434 
L 91.953682 245.052434 
L 92.874109 246.738189 
L 93.794537 245.052434 
L 98.396675 245.052434 
L 100.23753 241.680923 
L 102.078385 241.680923 
L 102.998812 243.366679 
L 103.91924 241.680923 
L 104.839667 219.766106 
L 105.760095 209.651575 
L 107.60095 196.165533 
L 108.521378 196.165533 
L 109.441805 197.851288 
L 110.362233 204.594309 
L 111.28266 226.509127 
L 112.203088 229.880637 
L 113.123515 231.566392 
L 114.043943 234.937903 
L 114.964371 234.937903 
L 115.884798 236.623658 
L 119.566508 236.623658 
L 120.486936 238.309413 
L 121.407363 238.309413 
L 123.248219 234.937903 
L 125.089074 228.194882 
L 126.009501 221.451861 
L 126.929929 218.080351 
L 127.850356 216.394596 
L 128.770784 218.080351 
L 129.691211 209.651575 
L 131.532067 206.280064 
L 132.452494 207.96582 
L 133.372922 206.280064 
L 134.293349 209.651575 
L 135.213777 211.33733 
L 136.134204 218.080351 
L 137.054632 209.651575 
L 137.975059 207.96582 
L 139.815914 207.96582 
L 140.736342 206.280064 
L 141.65677 207.96582 
L 143.497625 214.70884 
L 145.33848 211.33733 
L 147.179335 211.33733 
L 148.099762 213.023085 
L 149.02019 206.280064 
L 149.940618 202.908554 
L 150.861045 196.165533 
L 151.781473 187.736757 
L 152.7019 184.365247 
L 153.622328 184.365247 
L 154.542755 179.307981 
L 156.38361 186.051002 
L 157.304038 186.051002 
L 158.224466 191.108268 
L 159.144893 187.736757 
L 160.065321 182.679492 
L 160.985748 184.365247 
L 161.906176 170.879205 
L 162.826603 165.82194 
L 163.747031 165.82194 
L 164.667458 164.136185 
L 165.587886 167.507695 
L 166.508314 172.564961 
L 167.428741 172.564961 
L 168.349169 180.993737 
L 169.269596 180.993737 
L 170.190024 177.622226 
L 172.030879 180.993737 
L 172.951306 177.622226 
L 173.871734 179.307981 
L 177.553444 179.307981 
L 178.473872 170.879205 
L 179.394299 174.250716 
L 180.314727 170.879205 
L 181.235154 172.564961 
L 182.155582 172.564961 
L 183.07601 179.307981 
L 183.996437 184.365247 
L 184.916865 194.479778 
L 185.837292 194.479778 
L 186.75772 196.165533 
L 187.678147 192.794023 
L 188.598575 192.794023 
L 189.519002 186.051002 
L 190.43943 186.051002 
L 191.359857 182.679492 
L 192.280285 180.993737 
L 193.200713 184.365247 
L 194.12114 189.422513 
L 195.041568 189.422513 
L 195.961995 196.165533 
L 196.882423 197.851288 
L 197.80285 204.594309 
L 198.723278 206.280064 
L 201.484561 216.394596 
L 202.404988 218.080351 
L 203.325416 218.080351 
L 204.245843 216.394596 
L 205.166271 218.080351 
L 206.086698 218.080351 
L 207.007126 216.394596 
L 207.927553 216.394596 
L 209.768409 213.023085 
L 210.688836 207.96582 
L 212.529691 207.96582 
L 213.450119 209.651575 
L 214.370546 213.023085 
L 215.290974 218.080351 
L 216.211401 219.766106 
L 217.131829 223.137616 
L 218.052257 224.823372 
L 219.893112 224.823372 
L 220.813539 221.451861 
L 221.733967 213.023085 
L 223.574822 206.280064 
L 224.495249 204.594309 
L 225.415677 204.594309 
L 226.336105 206.280064 
L 227.256532 206.280064 
L 228.17696 211.33733 
L 229.097387 211.33733 
L 230.017815 213.023085 
L 230.938242 213.023085 
L 231.85867 218.080351 
L 232.779097 221.451861 
L 233.699525 223.137616 
L 234.619952 221.451861 
L 236.460808 221.451861 
L 238.301663 214.70884 
L 239.22209 213.023085 
L 241.062945 213.023085 
L 241.983373 211.33733 
L 242.9038 211.33733 
L 243.824228 213.023085 
L 244.744656 211.33733 
L 245.665083 207.96582 
L 246.585511 201.222799 
L 247.505938 199.537044 
L 248.426366 194.479778 
L 249.346793 192.794023 
L 250.267221 196.165533 
L 251.187648 201.222799 
L 252.108076 204.594309 
L 253.028504 211.33733 
L 254.869359 214.70884 
L 255.789786 213.023085 
L 256.710214 213.023085 
L 258.551069 209.651575 
L 260.391924 209.651575 
L 261.312352 211.33733 
L 262.232779 214.70884 
L 263.153207 214.70884 
L 264.073634 216.394596 
L 264.994062 216.394596 
L 266.834917 213.023085 
L 268.675772 206.280064 
L 269.5962 207.96582 
L 271.437055 201.222799 
L 272.357482 196.165533 
L 273.27791 189.422513 
L 275.118765 186.051002 
L 276.039192 186.051002 
L 276.95962 192.794023 
L 277.880048 196.165533 
L 278.800475 201.222799 
L 279.720903 204.594309 
L 280.64133 202.908554 
L 281.561758 204.594309 
L 282.482185 204.594309 
L 284.32304 207.96582 
L 285.243468 207.96582 
L 287.084323 204.594309 
L 288.004751 201.222799 
L 288.925178 201.222799 
L 289.845606 192.794023 
L 291.686461 179.307981 
L 294.447743 169.19345 
L 295.368171 167.507695 
L 296.288599 167.507695 
L 297.209026 165.82194 
L 298.129454 160.764674 
L 299.970309 160.764674 
L 300.890736 162.450429 
L 301.811164 162.450429 
L 303.652019 152.335898 
L 304.572447 148.964388 
L 305.492874 148.964388 
L 307.333729 152.335898 
L 309.174584 165.82194 
L 310.095012 165.82194 
L 311.015439 159.078919 
L 311.935867 147.278633 
L 312.856295 145.592878 
L 313.776722 148.964388 
L 314.69715 154.021654 
L 315.617577 150.650143 
L 316.538005 148.964388 
L 317.458432 140.535612 
L 318.37886 140.535612 
L 319.299287 128.735326 
L 320.219715 120.30655 
L 321.140143 118.620795 
L 322.06057 123.67806 
L 322.980998 125.363815 
L 323.901425 133.792591 
L 324.821853 133.792591 
L 326.662708 147.278633 
L 327.583135 142.221367 
L 328.503563 148.964388 
L 330.344418 152.335898 
L 331.264846 155.707409 
L 332.185273 165.82194 
L 333.105701 169.19345 
L 334.026128 179.307981 
L 336.787411 194.479778 
L 337.707838 197.851288 
L 338.628266 202.908554 
L 339.548694 209.651575 
L 340.469121 214.70884 
L 342.309976 218.080351 
L 343.230404 218.080351 
L 344.150831 216.394596 
L 345.991686 216.394596 
L 346.912114 219.766106 
L 349.673397 224.823372 
L 350.593824 223.137616 
L 353.355107 223.137616 
L 354.275534 224.823372 
L 355.195962 224.823372 
L 357.036817 228.194882 
L 357.957245 228.194882 
L 358.877672 229.880637 
L 360.718527 229.880637 
L 361.638955 231.566392 
L 362.559382 231.566392 
L 363.47981 233.252147 
L 364.400238 233.252147 
L 365.320665 234.937903 
L 366.241093 234.937903 
L 367.16152 238.309413 
L 368.081948 238.309413 
L 369.002375 239.995168 
L 370.84323 236.623658 
L 372.684086 236.623658 
L 373.604513 233.252147 
L 376.365796 233.252147 
L 377.286223 231.566392 
L 378.206651 231.566392 
L 380.967933 236.623658 
L 381.888361 236.623658 
L 382.808789 234.937903 
L 383.729216 229.880637 
L 384.649644 228.194882 
L 385.570071 223.137616 
L 386.490499 219.766106 
L 387.410926 214.70884 
L 388.331354 211.33733 
L 389.251781 211.33733 
L 390.172209 213.023085 
L 392.013064 213.023085 
L 392.933492 211.33733 
L 393.853919 213.023085 
L 394.774347 206.280064 
L 395.694774 201.222799 
L 396.615202 191.108268 
L 397.535629 189.422513 
L 399.376485 182.679492 
L 400.296912 172.564961 
L 401.21734 167.507695 
L 402.137767 160.764674 
L 403.058195 159.078919 
L 403.978622 150.650143 
L 404.89905 147.278633 
L 405.819477 140.535612 
L 406.739905 142.221367 
L 407.660333 140.535612 
L 408.58076 137.164102 
L 409.501188 135.478346 
L 410.421615 140.535612 
L 411.342043 143.907122 
L 412.26247 150.650143 
L 413.182898 154.021654 
L 414.103325 160.764674 
L 415.023753 164.136185 
L 415.944181 169.19345 
L 416.864608 164.136185 
L 417.785036 165.82194 
L 419.625891 172.564961 
L 420.546318 167.507695 
L 421.466746 167.507695 
L 422.387173 164.136185 
L 424.228029 164.136185 
L 425.148456 154.021654 
L 426.068884 147.278633 
L 426.989311 150.650143 
L 427.909739 152.335898 
L 428.830166 150.650143 
L 429.750594 155.707409 
L 430.671021 155.707409 
L 431.591449 162.450429 
L 432.511876 165.82194 
L 435.273159 150.650143 
L 436.193587 142.221367 
L 437.114014 132.106836 
L 438.034442 116.935039 
L 438.954869 105.134753 
L 439.875297 96.705977 
L 440.795724 93.334467 
L 441.716152 95.020222 
L 443.557007 101.763243 
L 444.477435 110.192019 
L 445.397862 108.506263 
L 446.31829 113.563529 
L 447.238717 123.67806 
L 448.159145 128.735326 
L 449.079572 132.106836 
L 450 147.278633 
L 450 147.278633 
" style="fill:none;stroke:#b3220f;stroke-linecap:square;stroke-width:1.5;"/>
   </g>
   <g id="patch_3">
    <path d="M 62.5 262.5 
L 62.5 27 
" style="fill:none;stroke:#555555;stroke-linecap:square;stroke-linejoin:miter;"/>
   </g>
   <g id="patch_4">
    <path d="M 62.5 262.5 
L 450 262.5 
" style="fill:none;stroke:#555555;stroke-linecap:square;stroke-linejoin:miter;"/>
   </g>
   <g id="text_13">
    <!-- Los Mártires | Casos nuevos: 2021-06-04 -->
    <g style="fill:#555555;" transform="translate(127.225781 17)scale(0.14 -0.14)">
     <defs>
      <path d="M 7.796875 71.40625 
L 7.796875 0 
L 55.09375 0 
L 55.09375 8 
L 17.296875 8 
L 17.296875 71.40625 
z
" id="HelveticaNeue-76"/>
      <path d="M 12.59375 25.796875 
Q 12.59375 30.5 13.84375 34.140625 
Q 15.09375 37.796875 17.296875 40.296875 
Q 19.5 42.796875 22.453125 44.09375 
Q 25.40625 45.40625 28.703125 45.40625 
Q 32 45.40625 34.953125 44.09375 
Q 37.90625 42.796875 40.09375 40.296875 
Q 42.296875 37.796875 43.546875 34.140625 
Q 44.796875 30.5 44.796875 25.796875 
Q 44.796875 21.09375 43.546875 17.4375 
Q 42.296875 13.796875 40.09375 11.34375 
Q 37.90625 8.90625 34.953125 7.59375 
Q 32 6.296875 28.703125 6.296875 
Q 25.40625 6.296875 22.453125 7.59375 
Q 19.5 8.90625 17.296875 11.34375 
Q 15.09375 13.796875 13.84375 17.4375 
Q 12.59375 21.09375 12.59375 25.796875 
z
M 3.59375 25.796875 
Q 3.59375 20.09375 5.1875 15.1875 
Q 6.796875 10.296875 10 6.640625 
Q 13.203125 3 17.890625 0.953125 
Q 22.59375 -1.09375 28.703125 -1.09375 
Q 34.90625 -1.09375 39.546875 0.953125 
Q 44.203125 3 47.390625 6.640625 
Q 50.59375 10.296875 52.1875 15.1875 
Q 53.796875 20.09375 53.796875 25.796875 
Q 53.796875 31.5 52.1875 36.453125 
Q 50.59375 41.40625 47.390625 45.046875 
Q 44.203125 48.703125 39.546875 50.796875 
Q 34.90625 52.90625 28.703125 52.90625 
Q 22.59375 52.90625 17.890625 50.796875 
Q 13.203125 48.703125 10 45.046875 
Q 6.796875 41.40625 5.1875 36.453125 
Q 3.59375 31.5 3.59375 25.796875 
z
" id="HelveticaNeue-111"/>
      <path d="M 11.59375 16.296875 
L 3.09375 16.296875 
Q 3.296875 11.5 5.09375 8.140625 
Q 6.90625 4.796875 9.90625 2.75 
Q 12.90625 0.703125 16.796875 -0.1875 
Q 20.703125 -1.09375 25 -1.09375 
Q 28.90625 -1.09375 32.84375 -0.34375 
Q 36.796875 0.40625 39.9375 2.296875 
Q 43.09375 4.203125 45.046875 7.296875 
Q 47 10.40625 47 15.09375 
Q 47 18.796875 45.546875 21.296875 
Q 44.09375 23.796875 41.75 25.4375 
Q 39.40625 27.09375 36.34375 28.09375 
Q 33.296875 29.09375 30.09375 29.796875 
Q 27.09375 30.5 24.09375 31.140625 
Q 21.09375 31.796875 18.6875 32.75 
Q 16.296875 33.703125 14.75 35.140625 
Q 13.203125 36.59375 13.203125 38.796875 
Q 13.203125 40.796875 14.203125 42.046875 
Q 15.203125 43.296875 16.796875 44.046875 
Q 18.40625 44.796875 20.34375 45.09375 
Q 22.296875 45.40625 24.203125 45.40625 
Q 26.296875 45.40625 28.34375 44.953125 
Q 30.40625 44.5 32.09375 43.5 
Q 33.796875 42.5 34.890625 40.84375 
Q 36 39.203125 36.203125 36.703125 
L 44.703125 36.703125 
Q 44.40625 41.40625 42.703125 44.546875 
Q 41 47.703125 38.140625 49.546875 
Q 35.296875 51.40625 31.59375 52.15625 
Q 27.90625 52.90625 23.5 52.90625 
Q 20.09375 52.90625 16.640625 52.046875 
Q 13.203125 51.203125 10.453125 49.453125 
Q 7.703125 47.703125 5.953125 44.890625 
Q 4.203125 42.09375 4.203125 38.203125 
Q 4.203125 33.203125 6.703125 30.390625 
Q 9.203125 27.59375 12.953125 26.046875 
Q 16.703125 24.5 21.09375 23.640625 
Q 25.5 22.796875 29.25 21.75 
Q 33 20.703125 35.5 19 
Q 38 17.296875 38 14 
Q 38 11.59375 36.796875 10.046875 
Q 35.59375 8.5 33.75 7.703125 
Q 31.90625 6.90625 29.703125 6.59375 
Q 27.5 6.296875 25.5 6.296875 
Q 22.90625 6.296875 20.453125 6.796875 
Q 18 7.296875 16.046875 8.4375 
Q 14.09375 9.59375 12.890625 11.546875 
Q 11.703125 13.5 11.59375 16.296875 
z
" id="HelveticaNeue-115"/>
      <path id="HelveticaNeue-32"/>
      <path d="M 8 71.40625 
L 8 0 
L 17 0 
L 17 59.40625 
L 17.203125 59.40625 
L 39.5 0 
L 47.59375 0 
L 69.90625 59.40625 
L 70.09375 59.40625 
L 70.09375 0 
L 79.09375 0 
L 79.09375 71.40625 
L 66.09375 71.40625 
L 43.5 11.40625 
L 21 71.40625 
z
" id="HelveticaNeue-77"/>
      <path d="M 52.203125 0.203125 
Q 50 -1.09375 46.09375 -1.09375 
Q 42.796875 -1.09375 40.84375 0.75 
Q 38.90625 2.59375 38.90625 6.796875 
Q 35.40625 2.59375 30.75 0.75 
Q 26.09375 -1.09375 20.703125 -1.09375 
Q 17.203125 -1.09375 14.046875 -0.296875 
Q 10.90625 0.5 8.59375 2.203125 
Q 6.296875 3.90625 4.9375 6.65625 
Q 3.59375 9.40625 3.59375 13.296875 
Q 3.59375 17.703125 5.09375 20.5 
Q 6.59375 23.296875 9.046875 25.046875 
Q 11.5 26.796875 14.640625 27.6875 
Q 17.796875 28.59375 21.09375 29.203125 
Q 24.59375 29.90625 27.75 30.25 
Q 30.90625 30.59375 33.296875 31.25 
Q 35.703125 31.90625 37.09375 33.15625 
Q 38.5 34.40625 38.5 36.796875 
Q 38.5 39.59375 37.453125 41.296875 
Q 36.40625 43 34.75 43.890625 
Q 33.09375 44.796875 31.046875 45.09375 
Q 29 45.40625 27 45.40625 
Q 21.59375 45.40625 18 43.34375 
Q 14.40625 41.296875 14.09375 35.59375 
L 5.59375 35.59375 
Q 5.796875 40.40625 7.59375 43.703125 
Q 9.40625 47 12.40625 49.046875 
Q 15.40625 51.09375 19.25 52 
Q 23.09375 52.90625 27.5 52.90625 
Q 31 52.90625 34.453125 52.40625 
Q 37.90625 51.90625 40.703125 50.34375 
Q 43.5 48.796875 45.203125 46 
Q 46.90625 43.203125 46.90625 38.703125 
L 46.90625 12.09375 
Q 46.90625 9.09375 47.25 7.6875 
Q 47.59375 6.296875 49.59375 6.296875 
Q 50.703125 6.296875 52.203125 6.796875 
z
M 38.40625 26.703125 
Q 36.796875 25.5 34.1875 24.953125 
Q 31.59375 24.40625 28.75 24.046875 
Q 25.90625 23.703125 23 23.25 
Q 20.09375 22.796875 17.796875 21.796875 
Q 15.5 20.796875 14.046875 18.9375 
Q 12.59375 17.09375 12.59375 13.90625 
Q 12.59375 11.796875 13.4375 10.34375 
Q 14.296875 8.90625 15.640625 8 
Q 17 7.09375 18.796875 6.6875 
Q 20.59375 6.296875 22.59375 6.296875 
Q 26.796875 6.296875 29.796875 7.4375 
Q 32.796875 8.59375 34.6875 10.34375 
Q 36.59375 12.09375 37.5 14.140625 
Q 38.40625 16.203125 38.40625 18 
z
M 41.296875 77 
L 27.203125 60.796875 
L 20.796875 60.796875 
L 30.40625 77 
z
" id="HelveticaNeue-225"/>
      <path d="M 15.40625 61 
L 15.40625 71.40625 
L 6.90625 71.40625 
L 6.90625 61 
z
M 6.90625 51.703125 
L 6.90625 0 
L 15.40625 0 
L 15.40625 51.703125 
z
" id="HelveticaNeue-105"/>
      <path d="M 7.703125 78.59375 
L 7.703125 -21.296875 
L 14.5 -21.296875 
L 14.5 78.59375 
z
" id="HelveticaNeue-124"/>
      <path d="M 58 49.90625 
L 67.5 49.90625 
Q 66.703125 55.59375 64.09375 59.9375 
Q 61.5 64.296875 57.59375 67.1875 
Q 53.703125 70.09375 48.703125 71.59375 
Q 43.703125 73.09375 38.09375 73.09375 
Q 29.90625 73.09375 23.546875 70.140625 
Q 17.203125 67.203125 12.953125 62.09375 
Q 8.703125 57 6.5 50.140625 
Q 4.296875 43.296875 4.296875 35.5 
Q 4.296875 27.703125 6.34375 20.890625 
Q 8.40625 14.09375 12.5 9.09375 
Q 16.59375 4.09375 22.796875 1.25 
Q 29 -1.59375 37.296875 -1.59375 
Q 51 -1.59375 58.890625 5.90625 
Q 66.796875 13.40625 68.203125 26.90625 
L 58.703125 26.90625 
Q 58.40625 22.5 56.90625 18.703125 
Q 55.40625 14.90625 52.75 12.15625 
Q 50.09375 9.40625 46.4375 7.84375 
Q 42.796875 6.296875 38.09375 6.296875 
Q 31.703125 6.296875 27.09375 8.6875 
Q 22.5 11.09375 19.546875 15.140625 
Q 16.59375 19.203125 15.1875 24.640625 
Q 13.796875 30.09375 13.796875 36.203125 
Q 13.796875 41.796875 15.1875 47 
Q 16.59375 52.203125 19.546875 56.25 
Q 22.5 60.296875 27.046875 62.6875 
Q 31.59375 65.09375 38 65.09375 
Q 45.5 65.09375 50.953125 61.296875 
Q 56.40625 57.5 58 49.90625 
z
" id="HelveticaNeue-67"/>
      <path d="M 29.703125 0 
L 48.59375 51.703125 
L 39.703125 51.703125 
L 25.59375 8.59375 
L 25.40625 8.59375 
L 10.90625 51.703125 
L 1.40625 51.703125 
L 20.59375 0 
z
" id="HelveticaNeue-118"/>
      <path d="M 19.40625 40.59375 
L 19.40625 51.703125 
L 8.296875 51.703125 
L 8.296875 40.59375 
z
M 8.296875 11.09375 
L 8.296875 0 
L 19.40625 0 
L 19.40625 11.09375 
z
" id="HelveticaNeue-58"/>
      <path d="M 5 31.796875 
L 5 23.796875 
L 33.90625 23.796875 
L 33.90625 31.796875 
z
" id="HelveticaNeue-45"/>
     </defs>
     <use xlink:href="#HelveticaNeue-76"/>
     <use x="55.599991" xlink:href="#HelveticaNeue-111"/>
     <use x="112.999985" xlink:href="#HelveticaNeue-115"/>
     <use x="162.999969" xlink:href="#HelveticaNeue-32"/>
     <use x="190.799957" xlink:href="#HelveticaNeue-77"/>
     <use x="277.899948" xlink:href="#HelveticaNeue-225"/>
     <use x="331.599945" xlink:href="#HelveticaNeue-114"/>
     <use x="364.899933" xlink:href="#HelveticaNeue-116"/>
     <use x="396.399918" xlink:href="#HelveticaNeue-105"/>
     <use x="418.599915" xlink:href="#HelveticaNeue-114"/>
     <use x="450.149902" xlink:href="#HelveticaNeue-101"/>
     <use x="503.849899" xlink:href="#HelveticaNeue-115"/>
     <use x="553.849884" xlink:href="#HelveticaNeue-32"/>
     <use x="581.649872" xlink:href="#HelveticaNeue-124"/>
     <use x="603.849869" xlink:href="#HelveticaNeue-32"/>
     <use x="631.649857" xlink:href="#HelveticaNeue-67"/>
     <use x="703.849838" xlink:href="#HelveticaNeue-97"/>
     <use x="757.549835" xlink:href="#HelveticaNeue-115"/>
     <use x="807.54982" xlink:href="#HelveticaNeue-111"/>
     <use x="864.949814" xlink:href="#HelveticaNeue-115"/>
     <use x="914.949799" xlink:href="#HelveticaNeue-32"/>
     <use x="942.749786" xlink:href="#HelveticaNeue-110"/>
     <use x="998.349777" xlink:href="#HelveticaNeue-117"/>
     <use x="1053.949768" xlink:href="#HelveticaNeue-101"/>
     <use x="1107.649765" xlink:href="#HelveticaNeue-118"/>
     <use x="1157.64975" xlink:href="#HelveticaNeue-111"/>
     <use x="1215.049744" xlink:href="#HelveticaNeue-115"/>
     <use x="1265.049728" xlink:href="#HelveticaNeue-58"/>
     <use x="1292.849716" xlink:href="#HelveticaNeue-32"/>
     <use x="1320.649704" xlink:href="#HelveticaNeue-50"/>
     <use x="1376.249695" xlink:href="#HelveticaNeue-48"/>
     <use x="1431.849686" xlink:href="#HelveticaNeue-50"/>
     <use x="1487.449677" xlink:href="#HelveticaNeue-49"/>
     <use x="1543.049667" xlink:href="#HelveticaNeue-45"/>
     <use x="1581.949661" xlink:href="#HelveticaNeue-48"/>
     <use x="1637.549652" xlink:href="#HelveticaNeue-54"/>
     <use x="1693.149643" xlink:href="#HelveticaNeue-45"/>
     <use x="1732.049637" xlink:href="#HelveticaNeue-48"/>
     <use x="1787.649628" xlink:href="#HelveticaNeue-52"/>
    </g>
   </g>
   <g id="legend_1">
    <g id="line2d_26">
     <path d="M 181.767188 39.640625 
L 201.767188 39.640625 
" style="fill:none;stroke:#000000;stroke-dasharray:1.5,2.475;stroke-dashoffset:0;stroke-opacity:0.5;stroke-width:1.5;"/>
    </g>
    <g id="line2d_27"/>
    <g id="text_14">
     <!-- Actual -->
     <g style="fill:#555555;" transform="translate(209.767188 43.140625)scale(0.1 -0.1)">
      <use xlink:href="#HelveticaNeue-65"/>
      <use x="64.799988" xlink:href="#HelveticaNeue-99"/>
      <use x="118.499985" xlink:href="#HelveticaNeue-116"/>
      <use x="149.999969" xlink:href="#HelveticaNeue-117"/>
      <use x="205.59996" xlink:href="#HelveticaNeue-97"/>
      <use x="259.299957" xlink:href="#HelveticaNeue-108"/>
     </g>
    </g>
    <g id="line2d_28">
     <path d="M 181.767188 54.310937 
L 201.767188 54.310937 
" style="fill:none;stroke:#b3220f;stroke-linecap:square;stroke-width:1.5;"/>
    </g>
    <g id="line2d_29"/>
    <g id="text_15">
     <!-- Promedio semanal (7 días)  -->
     <g style="fill:#555555;" transform="translate(209.767188 57.810937)scale(0.1 -0.1)">
      <defs>
       <path d="M 17.296875 37.203125 
L 17.296875 63.40625 
L 35.90625 63.40625 
Q 44 63.40625 47.75 60.046875 
Q 51.5 56.703125 51.5 50.296875 
Q 51.5 43.90625 47.75 40.5 
Q 44 37.09375 35.90625 37.203125 
z
M 7.796875 71.40625 
L 7.796875 0 
L 17.296875 0 
L 17.296875 29.203125 
L 39.09375 29.203125 
Q 49.90625 29.09375 55.453125 34.6875 
Q 61 40.296875 61 50.296875 
Q 61 60.296875 55.453125 65.84375 
Q 49.90625 71.40625 39.09375 71.40625 
z
" id="HelveticaNeue-80"/>
       <path d="M 6.40625 51.703125 
L 6.40625 0 
L 14.90625 0 
L 14.90625 32.203125 
Q 14.90625 33.703125 15.65625 35.953125 
Q 16.40625 38.203125 18.046875 40.296875 
Q 19.703125 42.40625 22.34375 43.90625 
Q 25 45.40625 28.703125 45.40625 
Q 31.59375 45.40625 33.4375 44.546875 
Q 35.296875 43.703125 36.390625 42.140625 
Q 37.5 40.59375 37.953125 38.5 
Q 38.40625 36.40625 38.40625 33.90625 
L 38.40625 0 
L 46.90625 0 
L 46.90625 32.203125 
Q 46.90625 38.203125 50.5 41.796875 
Q 54.09375 45.40625 60.40625 45.40625 
Q 63.5 45.40625 65.453125 44.5 
Q 67.40625 43.59375 68.5 42.046875 
Q 69.59375 40.5 70 38.390625 
Q 70.40625 36.296875 70.40625 33.90625 
L 70.40625 0 
L 78.90625 0 
L 78.90625 37.90625 
Q 78.90625 41.90625 77.65625 44.75 
Q 76.40625 47.59375 74.15625 49.390625 
Q 71.90625 51.203125 68.75 52.046875 
Q 65.59375 52.90625 61.703125 52.90625 
Q 56.59375 52.90625 52.34375 50.59375 
Q 48.09375 48.296875 45.5 44.09375 
Q 43.90625 48.90625 40 50.90625 
Q 36.09375 52.90625 31.296875 52.90625 
Q 20.40625 52.90625 14.59375 44.09375 
L 14.40625 44.09375 
L 14.40625 51.703125 
z
" id="HelveticaNeue-109"/>
       <path d="M 12.59375 25.40625 
Q 12.59375 29.203125 13.390625 32.796875 
Q 14.203125 36.40625 16 39.203125 
Q 17.796875 42 20.796875 43.703125 
Q 23.796875 45.40625 28.09375 45.40625 
Q 32.5 45.40625 35.59375 43.75 
Q 38.703125 42.09375 40.640625 39.390625 
Q 42.59375 36.703125 43.5 33.140625 
Q 44.40625 29.59375 44.40625 25.796875 
Q 44.40625 22.203125 43.546875 18.703125 
Q 42.703125 15.203125 40.796875 12.453125 
Q 38.90625 9.703125 35.90625 8 
Q 32.90625 6.296875 28.59375 6.296875 
Q 24.5 6.296875 21.453125 7.890625 
Q 18.40625 9.5 16.453125 12.203125 
Q 14.5 14.90625 13.546875 18.34375 
Q 12.59375 21.796875 12.59375 25.40625 
z
M 52.59375 0 
L 52.59375 71.40625 
L 44.09375 71.40625 
L 44.09375 44.796875 
L 43.90625 44.796875 
Q 42.5 47.09375 40.453125 48.640625 
Q 38.40625 50.203125 36.09375 51.140625 
Q 33.796875 52.09375 31.5 52.5 
Q 29.203125 52.90625 27.203125 52.90625 
Q 21.296875 52.90625 16.84375 50.75 
Q 12.40625 48.59375 9.453125 44.9375 
Q 6.5 41.296875 5.046875 36.390625 
Q 3.59375 31.5 3.59375 26 
Q 3.59375 20.5 5.09375 15.59375 
Q 6.59375 10.703125 9.546875 7 
Q 12.5 3.296875 16.953125 1.09375 
Q 21.40625 -1.09375 27.40625 -1.09375 
Q 32.796875 -1.09375 37.296875 0.796875 
Q 41.796875 2.703125 43.90625 7 
L 44.09375 7 
L 44.09375 0 
z
" id="HelveticaNeue-100"/>
       <path d="M 20.40625 -19.703125 
L 26.90625 -19.703125 
Q 19.796875 -8.203125 16.75 3.09375 
Q 13.703125 14.40625 13.703125 27 
Q 13.703125 39.296875 16.703125 50.5 
Q 19.703125 61.703125 26.90625 73.09375 
L 20.40625 73.09375 
Q 12.59375 62.796875 8.640625 50.796875 
Q 4.703125 38.796875 4.703125 27 
Q 4.703125 20.40625 5.796875 14.40625 
Q 6.90625 8.40625 8.953125 2.703125 
Q 11 -3 13.890625 -8.546875 
Q 16.796875 -14.09375 20.40625 -19.703125 
z
" id="HelveticaNeue-40"/>
       <path d="M 50.90625 62.40625 
L 50.90625 69.703125 
L 5 69.703125 
L 5 61.703125 
L 42.203125 61.703125 
Q 36.59375 55.796875 31.75 48.796875 
Q 26.90625 41.796875 23.203125 33.9375 
Q 19.5 26.09375 17.140625 17.546875 
Q 14.796875 9 14.203125 0 
L 23.703125 0 
Q 24.203125 8.296875 26.5 17.09375 
Q 28.796875 25.90625 32.4375 34.203125 
Q 36.09375 42.5 40.796875 49.796875 
Q 45.5 57.09375 50.90625 62.40625 
z
" id="HelveticaNeue-55"/>
       <path d="M 6.90625 0 
L 15.40625 0 
L 15.40625 51.703125 
L 6.90625 51.703125 
z
M 25.5 77 
L 11.40625 60.796875 
L 5 60.796875 
L 14.59375 77 
z
" id="HelveticaNeue-237"/>
       <path d="M -0.90625 -19.703125 
L 5.5 -19.703125 
Q 13.296875 -9.40625 17.25 2.546875 
Q 21.203125 14.5 21.203125 26.296875 
Q 21.203125 32.90625 20.09375 38.90625 
Q 19 44.90625 16.953125 50.65625 
Q 14.90625 56.40625 12 61.953125 
Q 9.09375 67.5 5.5 73.09375 
L -0.90625 73.09375 
Q 6.09375 61.59375 9.140625 50.25 
Q 12.203125 38.90625 12.203125 26.296875 
Q 12.203125 14.09375 9.203125 2.84375 
Q 6.203125 -8.40625 -0.90625 -19.703125 
z
" id="HelveticaNeue-41"/>
      </defs>
      <use xlink:href="#HelveticaNeue-80"/>
      <use x="64.799988" xlink:href="#HelveticaNeue-114"/>
      <use x="96.349976" xlink:href="#HelveticaNeue-111"/>
      <use x="153.749969" xlink:href="#HelveticaNeue-109"/>
      <use x="239.049957" xlink:href="#HelveticaNeue-101"/>
      <use x="292.749954" xlink:href="#HelveticaNeue-100"/>
      <use x="352.049942" xlink:href="#HelveticaNeue-105"/>
      <use x="374.249939" xlink:href="#HelveticaNeue-111"/>
      <use x="431.649933" xlink:href="#HelveticaNeue-32"/>
      <use x="459.449921" xlink:href="#HelveticaNeue-115"/>
      <use x="509.449905" xlink:href="#HelveticaNeue-101"/>
      <use x="563.149902" xlink:href="#HelveticaNeue-109"/>
      <use x="648.44989" xlink:href="#HelveticaNeue-97"/>
      <use x="702.149887" xlink:href="#HelveticaNeue-110"/>
      <use x="757.749878" xlink:href="#HelveticaNeue-97"/>
      <use x="811.449875" xlink:href="#HelveticaNeue-108"/>
      <use x="833.649872" xlink:href="#HelveticaNeue-32"/>
      <use x="861.44986" xlink:href="#HelveticaNeue-40"/>
      <use x="887.349854" xlink:href="#HelveticaNeue-55"/>
      <use x="942.949844" xlink:href="#HelveticaNeue-32"/>
      <use x="970.749832" xlink:href="#HelveticaNeue-100"/>
      <use x="1030.04982" xlink:href="#HelveticaNeue-237"/>
      <use x="1052.249817" xlink:href="#HelveticaNeue-97"/>
      <use x="1105.949814" xlink:href="#HelveticaNeue-115"/>
      <use x="1155.949799" xlink:href="#HelveticaNeue-41"/>
      <use x="1181.849792" xlink:href="#HelveticaNeue-32"/>
     </g>
    </g>
   </g>
  </g>
 </g>
 <defs>
  <clipPath id="p1584e4686e">
   <rect height="235.5" width="387.5" x="62.5" y="27"/>
  </clipPath>
 </defs>
</svg>
