<?xml version="1.0" encoding="utf-8" standalone="no"?>
<!DOCTYPE svg PUBLIC "-//W3C//DTD SVG 1.1//EN"
  "http://www.w3.org/Graphics/SVG/1.1/DTD/svg11.dtd">
<!-- Created with matplotlib (https://matplotlib.org/) -->
<svg height="300pt" version="1.1" viewBox="0 0 500 300" width="500pt" xmlns="http://www.w3.org/2000/svg" xmlns:xlink="http://www.w3.org/1999/xlink">
 <metadata>
  <rdf:RDF xmlns:cc="http://creativecommons.org/ns#" xmlns:dc="http://purl.org/dc/elements/1.1/" xmlns:rdf="http://www.w3.org/1999/02/22-rdf-syntax-ns#">
   <cc:Work>
    <dc:type rdf:resource="http://purl.org/dc/dcmitype/StillImage"/>
    <dc:date>2021-07-31T15:05:15.036085</dc:date>
    <dc:format>image/svg+xml</dc:format>
    <dc:creator>
     <cc:Agent>
      <dc:title>Matplotlib v3.3.4, https://matplotlib.org/</dc:title>
     </cc:Agent>
    </dc:creator>
   </cc:Work>
  </rdf:RDF>
 </metadata>
 <defs>
  <style type="text/css">*{stroke-linecap:butt;stroke-linejoin:round;}</style>
 </defs>
 <g id="figure_1">
  <g id="patch_1">
   <path d="M 0 300 
L 500 300 
L 500 0 
L 0 0 
z
" style="fill:#ffffff;"/>
  </g>
  <g id="axes_1">
   <g id="patch_2">
    <path d="M 62.5 262.5 
L 450 262.5 
L 450 27 
L 62.5 27 
z
" style="fill:#ffffff;"/>
   </g>
   <g id="matplotlib.axis_1">
    <g id="xtick_1">
     <g id="line2d_1">
      <defs>
       <path d="M 0 0 
L 0 3.5 
" id="m13e6dce7e1" style="stroke:#555555;stroke-width:0.8;"/>
      </defs>
      <g>
       <use style="fill:#555555;stroke:#555555;stroke-width:0.8;" x="62.5" xlink:href="#m13e6dce7e1" y="262.5"/>
      </g>
     </g>
    </g>
    <g id="xtick_2">
     <g id="line2d_2">
      <g>
       <use style="fill:#555555;stroke:#555555;stroke-width:0.8;" x="126.671975" xlink:href="#m13e6dce7e1" y="262.5"/>
      </g>
     </g>
     <g id="text_1">
      <!-- Jul -->
      <g style="fill:#555555;" transform="translate(120.186818 276.640625)scale(0.1 -0.1)">
       <defs>
        <path d="M 44.09375 17.796875 
L 44.09375 71.40625 
L 34.59375 71.40625 
L 34.59375 19.203125 
Q 34.59375 13.296875 32.140625 9.796875 
Q 29.703125 6.296875 23.203125 6.296875 
Q 19.703125 6.296875 17.453125 7.34375 
Q 15.203125 8.40625 13.953125 10.296875 
Q 12.703125 12.203125 12.203125 14.796875 
Q 11.703125 17.40625 11.703125 20.5 
L 11.703125 23.5 
L 2.203125 23.5 
L 2.203125 19.09375 
Q 2.203125 8.90625 7.59375 3.65625 
Q 13 -1.59375 23 -1.59375 
Q 29 -1.59375 33.046875 0.046875 
Q 37.09375 1.703125 39.546875 4.453125 
Q 42 7.203125 43.046875 10.703125 
Q 44.09375 14.203125 44.09375 17.796875 
z
" id="HelveticaNeue-74"/>
        <path d="M 49.203125 0 
L 49.203125 51.703125 
L 40.703125 51.703125 
L 40.703125 22.5 
Q 40.703125 19 39.75 16.046875 
Q 38.796875 13.09375 36.890625 10.890625 
Q 35 8.703125 32.140625 7.5 
Q 29.296875 6.296875 25.40625 6.296875 
Q 20.5 6.296875 17.703125 9.09375 
Q 14.90625 11.90625 14.90625 16.703125 
L 14.90625 51.703125 
L 6.40625 51.703125 
L 6.40625 17.703125 
Q 6.40625 13.5 7.25 10.046875 
Q 8.09375 6.59375 10.1875 4.09375 
Q 12.296875 1.59375 15.6875 0.25 
Q 19.09375 -1.09375 24.203125 -1.09375 
Q 29.90625 -1.09375 34.09375 1.15625 
Q 38.296875 3.40625 41 8.203125 
L 41.203125 8.203125 
L 41.203125 0 
z
" id="HelveticaNeue-117"/>
        <path d="M 6.90625 71.40625 
L 6.90625 0 
L 15.40625 0 
L 15.40625 71.40625 
z
" id="HelveticaNeue-108"/>
       </defs>
       <use xlink:href="#HelveticaNeue-74"/>
       <use x="51.899994" xlink:href="#HelveticaNeue-117"/>
       <use x="107.499985" xlink:href="#HelveticaNeue-108"/>
      </g>
     </g>
    </g>
    <g id="xtick_3">
     <g id="line2d_3">
      <g>
       <use style="fill:#555555;stroke:#555555;stroke-width:0.8;" x="202.361996" xlink:href="#m13e6dce7e1" y="262.5"/>
      </g>
     </g>
     <g id="text_2">
      <!-- Oct -->
      <g style="fill:#555555;" transform="translate(194.30184 276.640625)scale(0.1 -0.1)">
       <defs>
        <path d="M 13.296875 35.703125 
Q 13.296875 41.09375 14.6875 46.34375 
Q 16.09375 51.59375 19.09375 55.796875 
Q 22.09375 60 26.796875 62.546875 
Q 31.5 65.09375 38 65.09375 
Q 44.5 65.09375 49.203125 62.546875 
Q 53.90625 60 56.90625 55.796875 
Q 59.90625 51.59375 61.296875 46.34375 
Q 62.703125 41.09375 62.703125 35.703125 
Q 62.703125 30.296875 61.296875 25.046875 
Q 59.90625 19.796875 56.90625 15.59375 
Q 53.90625 11.40625 49.203125 8.84375 
Q 44.5 6.296875 38 6.296875 
Q 31.5 6.296875 26.796875 8.84375 
Q 22.09375 11.40625 19.09375 15.59375 
Q 16.09375 19.796875 14.6875 25.046875 
Q 13.296875 30.296875 13.296875 35.703125 
z
M 3.796875 35.703125 
Q 3.796875 28.40625 5.9375 21.65625 
Q 8.09375 14.90625 12.390625 9.703125 
Q 16.703125 4.5 23.09375 1.453125 
Q 29.5 -1.59375 38 -1.59375 
Q 46.5 -1.59375 52.890625 1.453125 
Q 59.296875 4.5 63.59375 9.703125 
Q 67.90625 14.90625 70.046875 21.65625 
Q 72.203125 28.40625 72.203125 35.703125 
Q 72.203125 43 70.046875 49.75 
Q 67.90625 56.5 63.59375 61.703125 
Q 59.296875 66.90625 52.890625 70 
Q 46.5 73.09375 38 73.09375 
Q 29.5 73.09375 23.09375 70 
Q 16.703125 66.90625 12.390625 61.703125 
Q 8.09375 56.5 5.9375 49.75 
Q 3.796875 43 3.796875 35.703125 
z
" id="HelveticaNeue-79"/>
        <path d="M 41.5 35.09375 
L 50.296875 35.09375 
Q 49.796875 39.703125 47.890625 43.046875 
Q 46 46.40625 43.046875 48.59375 
Q 40.09375 50.796875 36.25 51.84375 
Q 32.40625 52.90625 28 52.90625 
Q 21.90625 52.90625 17.296875 50.75 
Q 12.703125 48.59375 9.640625 44.84375 
Q 6.59375 41.09375 5.09375 36.046875 
Q 3.59375 31 3.59375 25.203125 
Q 3.59375 19.40625 5.140625 14.546875 
Q 6.703125 9.703125 9.75 6.203125 
Q 12.796875 2.703125 17.34375 0.796875 
Q 21.90625 -1.09375 27.796875 -1.09375 
Q 37.703125 -1.09375 43.453125 4.09375 
Q 49.203125 9.296875 50.59375 18.90625 
L 41.90625 18.90625 
Q 41.09375 12.90625 37.546875 9.59375 
Q 34 6.296875 27.703125 6.296875 
Q 23.703125 6.296875 20.796875 7.890625 
Q 17.90625 9.5 16.09375 12.140625 
Q 14.296875 14.796875 13.4375 18.1875 
Q 12.59375 21.59375 12.59375 25.203125 
Q 12.59375 29.09375 13.390625 32.75 
Q 14.203125 36.40625 16.046875 39.203125 
Q 17.90625 42 21 43.703125 
Q 24.09375 45.40625 28.703125 45.40625 
Q 34.09375 45.40625 37.296875 42.703125 
Q 40.5 40 41.5 35.09375 
z
" id="HelveticaNeue-99"/>
        <path d="M 18.203125 51.703125 
L 18.203125 67.203125 
L 9.703125 67.203125 
L 9.703125 51.703125 
L 0.90625 51.703125 
L 0.90625 44.203125 
L 9.703125 44.203125 
L 9.703125 11.296875 
Q 9.703125 7.703125 10.390625 5.5 
Q 11.09375 3.296875 12.546875 2.09375 
Q 14 0.90625 16.34375 0.453125 
Q 18.703125 0 22 0 
L 28.5 0 
L 28.5 7.5 
L 24.59375 7.5 
Q 22.59375 7.5 21.34375 7.640625 
Q 20.09375 7.796875 19.390625 8.296875 
Q 18.703125 8.796875 18.453125 9.6875 
Q 18.203125 10.59375 18.203125 12.09375 
L 18.203125 44.203125 
L 28.5 44.203125 
L 28.5 51.703125 
z
" id="HelveticaNeue-116"/>
       </defs>
       <use xlink:href="#HelveticaNeue-79"/>
       <use x="75.999985" xlink:href="#HelveticaNeue-99"/>
       <use x="129.699982" xlink:href="#HelveticaNeue-116"/>
      </g>
     </g>
    </g>
    <g id="xtick_4">
     <g id="line2d_4">
      <g>
       <use style="fill:#555555;stroke:#555555;stroke-width:0.8;" x="278.052017" xlink:href="#m13e6dce7e1" y="262.5"/>
      </g>
     </g>
     <g id="text_3">
      <!-- Jan -->
      <g style="fill:#555555;" transform="translate(269.991861 276.640625)scale(0.1 -0.1)">
       <defs>
        <path d="M 52.203125 0.203125 
Q 50 -1.09375 46.09375 -1.09375 
Q 42.796875 -1.09375 40.84375 0.75 
Q 38.90625 2.59375 38.90625 6.796875 
Q 35.40625 2.59375 30.75 0.75 
Q 26.09375 -1.09375 20.703125 -1.09375 
Q 17.203125 -1.09375 14.046875 -0.296875 
Q 10.90625 0.5 8.59375 2.203125 
Q 6.296875 3.90625 4.9375 6.65625 
Q 3.59375 9.40625 3.59375 13.296875 
Q 3.59375 17.703125 5.09375 20.5 
Q 6.59375 23.296875 9.046875 25.046875 
Q 11.5 26.796875 14.640625 27.6875 
Q 17.796875 28.59375 21.09375 29.203125 
Q 24.59375 29.90625 27.75 30.25 
Q 30.90625 30.59375 33.296875 31.25 
Q 35.703125 31.90625 37.09375 33.15625 
Q 38.5 34.40625 38.5 36.796875 
Q 38.5 39.59375 37.453125 41.296875 
Q 36.40625 43 34.75 43.890625 
Q 33.09375 44.796875 31.046875 45.09375 
Q 29 45.40625 27 45.40625 
Q 21.59375 45.40625 18 43.34375 
Q 14.40625 41.296875 14.09375 35.59375 
L 5.59375 35.59375 
Q 5.796875 40.40625 7.59375 43.703125 
Q 9.40625 47 12.40625 49.046875 
Q 15.40625 51.09375 19.25 52 
Q 23.09375 52.90625 27.5 52.90625 
Q 31 52.90625 34.453125 52.40625 
Q 37.90625 51.90625 40.703125 50.34375 
Q 43.5 48.796875 45.203125 46 
Q 46.90625 43.203125 46.90625 38.703125 
L 46.90625 12.09375 
Q 46.90625 9.09375 47.25 7.6875 
Q 47.59375 6.296875 49.59375 6.296875 
Q 50.703125 6.296875 52.203125 6.796875 
z
M 38.40625 26.703125 
Q 36.796875 25.5 34.1875 24.953125 
Q 31.59375 24.40625 28.75 24.046875 
Q 25.90625 23.703125 23 23.25 
Q 20.09375 22.796875 17.796875 21.796875 
Q 15.5 20.796875 14.046875 18.9375 
Q 12.59375 17.09375 12.59375 13.90625 
Q 12.59375 11.796875 13.4375 10.34375 
Q 14.296875 8.90625 15.640625 8 
Q 17 7.09375 18.796875 6.6875 
Q 20.59375 6.296875 22.59375 6.296875 
Q 26.796875 6.296875 29.796875 7.4375 
Q 32.796875 8.59375 34.6875 10.34375 
Q 36.59375 12.09375 37.5 14.140625 
Q 38.40625 16.203125 38.40625 18 
z
" id="HelveticaNeue-97"/>
        <path d="M 6.40625 51.703125 
L 6.40625 0 
L 14.90625 0 
L 14.90625 29.203125 
Q 14.90625 32.703125 15.84375 35.640625 
Q 16.796875 38.59375 18.6875 40.796875 
Q 20.59375 43 23.4375 44.203125 
Q 26.296875 45.40625 30.203125 45.40625 
Q 35.09375 45.40625 37.890625 42.59375 
Q 40.703125 39.796875 40.703125 35 
L 40.703125 0 
L 49.203125 0 
L 49.203125 34 
Q 49.203125 38.203125 48.34375 41.640625 
Q 47.5 45.09375 45.390625 47.59375 
Q 43.296875 50.09375 39.890625 51.5 
Q 36.5 52.90625 31.40625 52.90625 
Q 19.90625 52.90625 14.59375 43.5 
L 14.40625 43.5 
L 14.40625 51.703125 
z
" id="HelveticaNeue-110"/>
       </defs>
       <use xlink:href="#HelveticaNeue-74"/>
       <use x="51.899994" xlink:href="#HelveticaNeue-97"/>
       <use x="105.599991" xlink:href="#HelveticaNeue-110"/>
      </g>
      <!-- 2021 -->
      <g style="fill:#555555;" transform="translate(266.933267 287.179688)scale(0.1 -0.1)">
       <defs>
        <path d="M 4.40625 45.796875 
L 12.90625 45.796875 
Q 12.796875 49 13.546875 52.140625 
Q 14.296875 55.296875 16 57.796875 
Q 17.703125 60.296875 20.34375 61.84375 
Q 23 63.40625 26.703125 63.40625 
Q 29.5 63.40625 32 62.5 
Q 34.5 61.59375 36.34375 59.890625 
Q 38.203125 58.203125 39.296875 55.84375 
Q 40.40625 53.5 40.40625 50.59375 
Q 40.40625 46.90625 39.25 44.09375 
Q 38.09375 41.296875 35.84375 38.890625 
Q 33.59375 36.5 30.1875 34.140625 
Q 26.796875 31.796875 22.296875 29 
Q 18.59375 26.796875 15.1875 24.296875 
Q 11.796875 21.796875 9.09375 18.5 
Q 6.40625 15.203125 4.65625 10.75 
Q 2.90625 6.296875 2.40625 0 
L 48.703125 0 
L 48.703125 7.5 
L 12.296875 7.5 
Q 12.90625 10.796875 14.84375 13.34375 
Q 16.796875 15.90625 19.546875 18.09375 
Q 22.296875 20.296875 25.59375 22.25 
Q 28.90625 24.203125 32.203125 26.203125 
Q 35.5 28.296875 38.59375 30.59375 
Q 41.703125 32.90625 44.09375 35.75 
Q 46.5 38.59375 47.953125 42.1875 
Q 49.40625 45.796875 49.40625 50.5 
Q 49.40625 55.5 47.65625 59.296875 
Q 45.90625 63.09375 42.90625 65.640625 
Q 39.90625 68.203125 35.84375 69.546875 
Q 31.796875 70.90625 27.203125 70.90625 
Q 21.59375 70.90625 17.1875 69 
Q 12.796875 67.09375 9.84375 63.75 
Q 6.90625 60.40625 5.5 55.796875 
Q 4.09375 51.203125 4.40625 45.796875 
z
" id="HelveticaNeue-50"/>
        <path d="M 13.203125 34.90625 
Q 13.203125 37.5 13.25 40.640625 
Q 13.296875 43.796875 13.75 46.9375 
Q 14.203125 50.09375 15.046875 53.09375 
Q 15.90625 56.09375 17.546875 58.34375 
Q 19.203125 60.59375 21.703125 62 
Q 24.203125 63.40625 27.796875 63.40625 
Q 31.40625 63.40625 33.90625 62 
Q 36.40625 60.59375 38.046875 58.34375 
Q 39.703125 56.09375 40.546875 53.09375 
Q 41.40625 50.09375 41.84375 46.9375 
Q 42.296875 43.796875 42.34375 40.640625 
Q 42.40625 37.5 42.40625 34.90625 
Q 42.40625 30.90625 42.15625 25.953125 
Q 41.90625 21 40.546875 16.640625 
Q 39.203125 12.296875 36.203125 9.296875 
Q 33.203125 6.296875 27.796875 6.296875 
Q 22.40625 6.296875 19.40625 9.296875 
Q 16.40625 12.296875 15.046875 16.640625 
Q 13.703125 21 13.453125 25.953125 
Q 13.203125 30.90625 13.203125 34.90625 
z
M 4.203125 34.796875 
Q 4.203125 30.90625 4.390625 26.703125 
Q 4.59375 22.5 5.390625 18.5 
Q 6.203125 14.5 7.703125 10.953125 
Q 9.203125 7.40625 11.796875 4.703125 
Q 14.40625 2 18.34375 0.453125 
Q 22.296875 -1.09375 27.796875 -1.09375 
Q 33.40625 -1.09375 37.296875 0.453125 
Q 41.203125 2 43.796875 4.703125 
Q 46.40625 7.40625 47.90625 10.953125 
Q 49.40625 14.5 50.203125 18.5 
Q 51 22.5 51.203125 26.703125 
Q 51.40625 30.90625 51.40625 34.796875 
Q 51.40625 38.703125 51.203125 42.890625 
Q 51 47.09375 50.203125 51.09375 
Q 49.40625 55.09375 47.90625 58.6875 
Q 46.40625 62.296875 43.796875 65 
Q 41.203125 67.703125 37.25 69.296875 
Q 33.296875 70.90625 27.796875 70.90625 
Q 22.296875 70.90625 18.34375 69.296875 
Q 14.40625 67.703125 11.796875 65 
Q 9.203125 62.296875 7.703125 58.6875 
Q 6.203125 55.09375 5.390625 51.09375 
Q 4.59375 47.09375 4.390625 42.890625 
Q 4.203125 38.703125 4.203125 34.796875 
z
" id="HelveticaNeue-48"/>
        <path d="M 35.59375 0 
L 35.59375 70.90625 
L 29.09375 70.90625 
Q 28.40625 66.90625 26.5 64.296875 
Q 24.59375 61.703125 21.84375 60.203125 
Q 19.09375 58.703125 15.6875 58.140625 
Q 12.296875 57.59375 8.703125 57.59375 
L 8.703125 50.796875 
L 27.09375 50.796875 
L 27.09375 0 
z
" id="HelveticaNeue-49"/>
       </defs>
       <use xlink:href="#HelveticaNeue-50"/>
       <use x="55.599991" xlink:href="#HelveticaNeue-48"/>
       <use x="111.199982" xlink:href="#HelveticaNeue-50"/>
       <use x="166.799973" xlink:href="#HelveticaNeue-49"/>
      </g>
     </g>
    </g>
    <g id="xtick_5">
     <g id="line2d_5">
      <g>
       <use style="fill:#555555;stroke:#555555;stroke-width:0.8;" x="352.096603" xlink:href="#m13e6dce7e1" y="262.5"/>
      </g>
     </g>
     <g id="text_4">
      <!-- Apr -->
      <g style="fill:#555555;" transform="translate(344.227072 276.640625)scale(0.1 -0.1)">
       <defs>
        <path d="M 20.09375 29.5 
L 32.203125 62.796875 
L 32.40625 62.796875 
L 44.296875 29.5 
z
M 27.203125 71.40625 
L -0.59375 0 
L 9.09375 0 
L 17.09375 21.5 
L 47.296875 21.5 
L 55.09375 0 
L 65.59375 0 
L 37.703125 71.40625 
z
" id="HelveticaNeue-65"/>
        <path d="M 6.703125 51.703125 
L 6.703125 -19.703125 
L 15.203125 -19.703125 
L 15.203125 6.90625 
L 15.40625 6.90625 
Q 16.796875 4.59375 18.84375 3.046875 
Q 20.90625 1.5 23.203125 0.59375 
Q 25.5 -0.296875 27.84375 -0.6875 
Q 30.203125 -1.09375 32.09375 -1.09375 
Q 38 -1.09375 42.453125 1 
Q 46.90625 3.09375 49.84375 6.75 
Q 52.796875 10.40625 54.25 15.296875 
Q 55.703125 20.203125 55.703125 25.703125 
Q 55.703125 31.203125 54.203125 36.09375 
Q 52.703125 41 49.75 44.75 
Q 46.796875 48.5 42.34375 50.703125 
Q 37.90625 52.90625 31.90625 52.90625 
Q 26.5 52.90625 22 50.953125 
Q 17.5 49 15.40625 44.703125 
L 15.203125 44.703125 
L 15.203125 51.703125 
z
M 46.703125 26.296875 
Q 46.703125 22.5 45.890625 18.890625 
Q 45.09375 15.296875 43.296875 12.5 
Q 41.5 9.703125 38.546875 8 
Q 35.59375 6.296875 31.203125 6.296875 
Q 26.796875 6.296875 23.6875 7.9375 
Q 20.59375 9.59375 18.640625 12.296875 
Q 16.703125 15 15.796875 18.546875 
Q 14.90625 22.09375 14.90625 25.90625 
Q 14.90625 29.5 15.75 33 
Q 16.59375 36.5 18.5 39.25 
Q 20.40625 42 23.40625 43.703125 
Q 26.40625 45.40625 30.703125 45.40625 
Q 34.796875 45.40625 37.84375 43.796875 
Q 40.90625 42.203125 42.84375 39.5 
Q 44.796875 36.796875 45.75 33.34375 
Q 46.703125 29.90625 46.703125 26.296875 
z
" id="HelveticaNeue-112"/>
        <path d="M 6.09375 51.703125 
L 6.09375 0 
L 14.59375 0 
L 14.59375 23 
Q 14.59375 28 15.59375 31.84375 
Q 16.59375 35.703125 18.796875 38.390625 
Q 21 41.09375 24.59375 42.5 
Q 28.203125 43.90625 33.296875 43.90625 
L 33.296875 52.90625 
Q 26.40625 53.09375 21.90625 50.09375 
Q 17.40625 47.09375 14.296875 40.796875 
L 14.09375 40.796875 
L 14.09375 51.703125 
z
" id="HelveticaNeue-114"/>
       </defs>
       <use xlink:href="#HelveticaNeue-65"/>
       <use x="64.799988" xlink:href="#HelveticaNeue-112"/>
       <use x="124.099976" xlink:href="#HelveticaNeue-114"/>
      </g>
     </g>
    </g>
    <g id="xtick_6">
     <g id="line2d_6">
      <g>
       <use style="fill:#555555;stroke:#555555;stroke-width:0.8;" x="426.963907" xlink:href="#m13e6dce7e1" y="262.5"/>
      </g>
     </g>
     <g id="text_5">
      <!-- Jul -->
      <g style="fill:#555555;" transform="translate(420.47875 276.640625)scale(0.1 -0.1)">
       <use xlink:href="#HelveticaNeue-74"/>
       <use x="51.899994" xlink:href="#HelveticaNeue-117"/>
       <use x="107.499985" xlink:href="#HelveticaNeue-108"/>
      </g>
     </g>
    </g>
    <g id="xtick_7">
     <g id="line2d_7">
      <g>
       <use style="fill:#555555;stroke:#555555;stroke-width:0.8;" x="450" xlink:href="#m13e6dce7e1" y="262.5"/>
      </g>
     </g>
    </g>
    <g id="xtick_8">
     <g id="line2d_8">
      <defs>
       <path d="M 0 0 
L 0 2 
" id="mb53ad4e89b" style="stroke:#555555;stroke-width:0.6;"/>
      </defs>
      <g>
       <use style="fill:#555555;stroke:#555555;stroke-width:0.6;" x="76.4862" xlink:href="#mb53ad4e89b" y="262.5"/>
      </g>
     </g>
    </g>
    <g id="xtick_9">
     <g id="line2d_9">
      <g>
       <use style="fill:#555555;stroke:#555555;stroke-width:0.6;" x="101.990446" xlink:href="#mb53ad4e89b" y="262.5"/>
      </g>
     </g>
    </g>
    <g id="xtick_10">
     <g id="line2d_10">
      <g>
       <use style="fill:#555555;stroke:#555555;stroke-width:0.6;" x="152.176221" xlink:href="#mb53ad4e89b" y="262.5"/>
      </g>
     </g>
    </g>
    <g id="xtick_11">
     <g id="line2d_11">
      <g>
       <use style="fill:#555555;stroke:#555555;stroke-width:0.6;" x="177.680467" xlink:href="#mb53ad4e89b" y="262.5"/>
      </g>
     </g>
    </g>
    <g id="xtick_12">
     <g id="line2d_12">
      <g>
       <use style="fill:#555555;stroke:#555555;stroke-width:0.6;" x="227.866242" xlink:href="#mb53ad4e89b" y="262.5"/>
      </g>
     </g>
    </g>
    <g id="xtick_13">
     <g id="line2d_13">
      <g>
       <use style="fill:#555555;stroke:#555555;stroke-width:0.6;" x="252.547771" xlink:href="#mb53ad4e89b" y="262.5"/>
      </g>
     </g>
    </g>
    <g id="xtick_14">
     <g id="line2d_14">
      <g>
       <use style="fill:#555555;stroke:#555555;stroke-width:0.6;" x="303.556263" xlink:href="#mb53ad4e89b" y="262.5"/>
      </g>
     </g>
    </g>
    <g id="xtick_15">
     <g id="line2d_15">
      <g>
       <use style="fill:#555555;stroke:#555555;stroke-width:0.6;" x="326.592357" xlink:href="#mb53ad4e89b" y="262.5"/>
      </g>
     </g>
    </g>
    <g id="xtick_16">
     <g id="line2d_16">
      <g>
       <use style="fill:#555555;stroke:#555555;stroke-width:0.6;" x="376.778132" xlink:href="#mb53ad4e89b" y="262.5"/>
      </g>
     </g>
    </g>
    <g id="xtick_17">
     <g id="line2d_17">
      <g>
       <use style="fill:#555555;stroke:#555555;stroke-width:0.6;" x="402.282378" xlink:href="#mb53ad4e89b" y="262.5"/>
      </g>
     </g>
    </g>
    <g id="text_6">
     <!-- fecha -->
     <g style="fill:#555555;" transform="translate(243.935156 300.290625)scale(0.1 -0.1)">
      <defs>
       <path d="M 9.90625 44.203125 
L 9.90625 0 
L 18.40625 0 
L 18.40625 44.203125 
L 28.40625 44.203125 
L 28.40625 51.703125 
L 18.40625 51.703125 
L 18.40625 58.90625 
Q 18.40625 62.296875 20.09375 63.5 
Q 21.796875 64.703125 24.90625 64.703125 
Q 26 64.703125 27.296875 64.546875 
Q 28.59375 64.40625 29.703125 64 
L 29.703125 71.40625 
Q 28.5 71.796875 26.953125 72 
Q 25.40625 72.203125 24.203125 72.203125 
Q 17.203125 72.203125 13.546875 68.953125 
Q 9.90625 65.703125 9.90625 59.40625 
L 9.90625 51.703125 
L 1.203125 51.703125 
L 1.203125 44.203125 
z
" id="HelveticaNeue-102"/>
       <path d="M 42.296875 30.796875 
L 12.59375 30.796875 
Q 12.796875 33.796875 13.890625 36.4375 
Q 15 39.09375 16.890625 41.09375 
Q 18.796875 43.09375 21.4375 44.25 
Q 24.09375 45.40625 27.40625 45.40625 
Q 30.59375 45.40625 33.25 44.25 
Q 35.90625 43.09375 37.84375 41.140625 
Q 39.796875 39.203125 40.9375 36.5 
Q 42.09375 33.796875 42.296875 30.796875 
z
M 50.5 16.40625 
L 42.09375 16.40625 
Q 41 11.296875 37.546875 8.796875 
Q 34.09375 6.296875 28.703125 6.296875 
Q 24.5 6.296875 21.390625 7.6875 
Q 18.296875 9.09375 16.296875 11.4375 
Q 14.296875 13.796875 13.390625 16.84375 
Q 12.5 19.90625 12.59375 23.296875 
L 51.296875 23.296875 
Q 51.5 28 50.453125 33.203125 
Q 49.40625 38.40625 46.65625 42.796875 
Q 43.90625 47.203125 39.34375 50.046875 
Q 34.796875 52.90625 27.90625 52.90625 
Q 22.59375 52.90625 18.140625 50.90625 
Q 13.703125 48.90625 10.453125 45.296875 
Q 7.203125 41.703125 5.390625 36.796875 
Q 3.59375 31.90625 3.59375 26 
Q 3.796875 20.09375 5.34375 15.09375 
Q 6.90625 10.09375 10 6.5 
Q 13.09375 2.90625 17.640625 0.90625 
Q 22.203125 -1.09375 28.40625 -1.09375 
Q 37.203125 -1.09375 43 3.296875 
Q 48.796875 7.703125 50.5 16.40625 
z
" id="HelveticaNeue-101"/>
       <path d="M 6.40625 71.40625 
L 6.40625 0 
L 14.90625 0 
L 14.90625 29.203125 
Q 14.90625 32.703125 15.84375 35.640625 
Q 16.796875 38.59375 18.6875 40.796875 
Q 20.59375 43 23.4375 44.203125 
Q 26.296875 45.40625 30.203125 45.40625 
Q 35.09375 45.40625 37.890625 42.59375 
Q 40.703125 39.796875 40.703125 35 
L 40.703125 0 
L 49.203125 0 
L 49.203125 34 
Q 49.203125 38.203125 48.34375 41.640625 
Q 47.5 45.09375 45.390625 47.59375 
Q 43.296875 50.09375 39.890625 51.5 
Q 36.5 52.90625 31.40625 52.90625 
Q 29.09375 52.90625 26.640625 52.40625 
Q 24.203125 51.90625 21.953125 50.84375 
Q 19.703125 49.796875 17.890625 48.140625 
Q 16.09375 46.5 15.09375 44.09375 
L 14.90625 44.09375 
L 14.90625 71.40625 
z
" id="HelveticaNeue-104"/>
      </defs>
      <use xlink:href="#HelveticaNeue-102"/>
      <use x="29.599991" xlink:href="#HelveticaNeue-101"/>
      <use x="83.299988" xlink:href="#HelveticaNeue-99"/>
      <use x="136.999985" xlink:href="#HelveticaNeue-104"/>
      <use x="192.599976" xlink:href="#HelveticaNeue-97"/>
     </g>
    </g>
   </g>
   <g id="matplotlib.axis_2">
    <g id="ytick_1">
     <g id="line2d_18">
      <defs>
       <path d="M 0 0 
L -3.5 0 
" id="m6e25fdb1cd" style="stroke:#555555;stroke-width:0.8;"/>
      </defs>
      <g>
       <use style="fill:#555555;stroke:#555555;stroke-width:0.8;" x="62.5" xlink:href="#m6e25fdb1cd" y="251.795455"/>
      </g>
     </g>
     <g id="text_7">
      <!-- 0 -->
      <g style="fill:#555555;" transform="translate(49.940625 255.365767)scale(0.1 -0.1)">
       <use xlink:href="#HelveticaNeue-48"/>
      </g>
     </g>
    </g>
    <g id="ytick_2">
     <g id="line2d_19">
      <g>
       <use style="fill:#555555;stroke:#555555;stroke-width:0.8;" x="62.5" xlink:href="#m6e25fdb1cd" y="219.159645"/>
      </g>
     </g>
     <g id="text_8">
      <!-- 25 -->
      <g style="fill:#555555;" transform="translate(44.38125 222.729958)scale(0.1 -0.1)">
       <defs>
        <path d="M 47 62.203125 
L 47 69.703125 
L 12 69.703125 
L 5.40625 32.90625 
L 12.703125 32.5 
Q 15.203125 35.5 18.453125 37.34375 
Q 21.703125 39.203125 25.90625 39.203125 
Q 29.5 39.203125 32.453125 38 
Q 35.40625 36.796875 37.5 34.640625 
Q 39.59375 32.5 40.75 29.546875 
Q 41.90625 26.59375 41.90625 23.09375 
Q 41.90625 18.90625 40.703125 15.75 
Q 39.5 12.59375 37.453125 10.5 
Q 35.40625 8.40625 32.65625 7.34375 
Q 29.90625 6.296875 26.90625 6.296875 
Q 23.703125 6.296875 21.046875 7.25 
Q 18.40625 8.203125 16.453125 9.953125 
Q 14.5 11.703125 13.34375 14.046875 
Q 12.203125 16.40625 12 19.09375 
L 3.5 19.09375 
Q 3.59375 14.296875 5.390625 10.5 
Q 7.203125 6.703125 10.296875 4.140625 
Q 13.40625 1.59375 17.453125 0.25 
Q 21.5 -1.09375 26.09375 -1.09375 
Q 32.296875 -1.09375 36.9375 0.84375 
Q 41.59375 2.796875 44.6875 6.09375 
Q 47.796875 9.40625 49.34375 13.65625 
Q 50.90625 17.90625 50.90625 22.40625 
Q 50.90625 28.5 49.09375 33.046875 
Q 47.296875 37.59375 44.1875 40.640625 
Q 41.09375 43.703125 36.890625 45.203125 
Q 32.703125 46.703125 28 46.703125 
Q 24.40625 46.703125 20.75 45.453125 
Q 17.09375 44.203125 14.796875 41.59375 
L 14.59375 41.796875 
L 18.40625 62.203125 
z
" id="HelveticaNeue-53"/>
       </defs>
       <use xlink:href="#HelveticaNeue-50"/>
       <use x="55.599991" xlink:href="#HelveticaNeue-53"/>
      </g>
     </g>
    </g>
    <g id="ytick_3">
     <g id="line2d_20">
      <g>
       <use style="fill:#555555;stroke:#555555;stroke-width:0.8;" x="62.5" xlink:href="#m6e25fdb1cd" y="186.523836"/>
      </g>
     </g>
     <g id="text_9">
      <!-- 50 -->
      <g style="fill:#555555;" transform="translate(44.38125 190.094148)scale(0.1 -0.1)">
       <use xlink:href="#HelveticaNeue-53"/>
       <use x="55.599991" xlink:href="#HelveticaNeue-48"/>
      </g>
     </g>
    </g>
    <g id="ytick_4">
     <g id="line2d_21">
      <g>
       <use style="fill:#555555;stroke:#555555;stroke-width:0.8;" x="62.5" xlink:href="#m6e25fdb1cd" y="153.888027"/>
      </g>
     </g>
     <g id="text_10">
      <!-- 75 -->
      <g style="fill:#555555;" transform="translate(44.38125 157.458339)scale(0.1 -0.1)">
       <defs>
        <path d="M 50.90625 62.40625 
L 50.90625 69.703125 
L 5 69.703125 
L 5 61.703125 
L 42.203125 61.703125 
Q 36.59375 55.796875 31.75 48.796875 
Q 26.90625 41.796875 23.203125 33.9375 
Q 19.5 26.09375 17.140625 17.546875 
Q 14.796875 9 14.203125 0 
L 23.703125 0 
Q 24.203125 8.296875 26.5 17.09375 
Q 28.796875 25.90625 32.4375 34.203125 
Q 36.09375 42.5 40.796875 49.796875 
Q 45.5 57.09375 50.90625 62.40625 
z
" id="HelveticaNeue-55"/>
       </defs>
       <use xlink:href="#HelveticaNeue-55"/>
       <use x="55.599991" xlink:href="#HelveticaNeue-53"/>
      </g>
     </g>
    </g>
    <g id="ytick_5">
     <g id="line2d_22">
      <g>
       <use style="fill:#555555;stroke:#555555;stroke-width:0.8;" x="62.5" xlink:href="#m6e25fdb1cd" y="121.252217"/>
      </g>
     </g>
     <g id="text_11">
      <!-- 100 -->
      <g style="fill:#555555;" transform="translate(38.821875 124.82253)scale(0.1 -0.1)">
       <use xlink:href="#HelveticaNeue-49"/>
       <use x="55.599991" xlink:href="#HelveticaNeue-48"/>
       <use x="111.199982" xlink:href="#HelveticaNeue-48"/>
      </g>
     </g>
    </g>
    <g id="ytick_6">
     <g id="line2d_23">
      <g>
       <use style="fill:#555555;stroke:#555555;stroke-width:0.8;" x="62.5" xlink:href="#m6e25fdb1cd" y="88.616408"/>
      </g>
     </g>
     <g id="text_12">
      <!-- 125 -->
      <g style="fill:#555555;" transform="translate(38.821875 92.18672)scale(0.1 -0.1)">
       <use xlink:href="#HelveticaNeue-49"/>
       <use x="55.599991" xlink:href="#HelveticaNeue-50"/>
       <use x="111.199982" xlink:href="#HelveticaNeue-53"/>
      </g>
     </g>
    </g>
    <g id="ytick_7">
     <g id="line2d_24">
      <g>
       <use style="fill:#555555;stroke:#555555;stroke-width:0.8;" x="62.5" xlink:href="#m6e25fdb1cd" y="55.980599"/>
      </g>
     </g>
     <g id="text_13">
      <!-- 150 -->
      <g style="fill:#555555;" transform="translate(38.821875 59.550911)scale(0.1 -0.1)">
       <use xlink:href="#HelveticaNeue-49"/>
       <use x="55.599991" xlink:href="#HelveticaNeue-53"/>
       <use x="111.199982" xlink:href="#HelveticaNeue-48"/>
      </g>
     </g>
    </g>
   </g>
   <g id="line2d_25">
    <path clip-path="url(#p056049f679)" d="M 62.5 251.795455 
L 63.322718 251.795455 
L 64.145435 250.490022 
L 65.79087 250.490022 
L 66.613588 251.795455 
L 67.436306 249.18459 
L 68.259023 251.795455 
L 69.081741 251.795455 
L 69.904459 250.490022 
L 70.727176 251.795455 
L 72.372611 251.795455 
L 73.195329 250.490022 
L 74.018047 251.795455 
L 74.840764 250.490022 
L 75.663482 240.046563 
L 76.4862 250.490022 
L 77.308917 251.795455 
L 78.131635 249.18459 
L 78.954352 249.18459 
L 79.77707 246.573725 
L 80.599788 249.18459 
L 81.422505 243.96286 
L 82.245223 241.351996 
L 83.067941 250.490022 
L 83.890658 247.879157 
L 84.713376 250.490022 
L 85.536093 243.96286 
L 86.358811 247.879157 
L 87.181529 242.657428 
L 88.004246 249.18459 
L 88.826964 250.490022 
L 89.649682 245.268293 
L 90.472399 246.573725 
L 91.295117 243.96286 
L 92.117834 242.657428 
L 92.940552 246.573725 
L 93.76327 237.435698 
L 94.585987 243.96286 
L 95.408705 251.795455 
L 96.231423 242.657428 
L 97.05414 247.879157 
L 97.876858 232.213969 
L 98.699575 86.005543 
L 99.522293 221.77051 
L 100.345011 240.046563 
L 101.167728 223.075942 
L 101.990446 238.741131 
L 102.813163 223.075942 
L 103.635881 241.351996 
L 104.458599 241.351996 
L 105.281316 243.96286 
L 106.104034 241.351996 
L 106.926752 233.519401 
L 107.749469 243.96286 
L 108.572187 232.213969 
L 109.394904 242.657428 
L 111.04034 242.657428 
L 111.863057 241.351996 
L 112.685775 238.741131 
L 113.508493 247.879157 
L 114.33121 224.381375 
L 115.153928 225.686807 
L 115.976645 228.297672 
L 116.799363 229.603104 
L 117.622081 198.272727 
L 118.444798 236.130266 
L 119.267516 237.435698 
L 120.090234 233.519401 
L 120.912951 147.360865 
L 121.735669 237.435698 
L 122.558386 226.992239 
L 123.381104 221.77051 
L 124.203822 226.992239 
L 125.026539 245.268293 
L 125.849257 212.632483 
L 126.671975 198.272727 
L 127.494692 189.134701 
L 128.31741 233.519401 
L 129.140127 234.824834 
L 129.962845 225.686807 
L 130.785563 217.854213 
L 131.60828 204.799889 
L 132.430998 224.381375 
L 134.076433 224.381375 
L 134.899151 229.603104 
L 135.721868 212.632483 
L 136.544586 216.54878 
L 137.367304 224.381375 
L 138.190021 179.996674 
L 139.012739 207.410754 
L 140.658174 177.385809 
L 141.480892 204.799889 
L 142.303609 224.381375 
L 143.126327 174.774945 
L 143.949045 211.327051 
L 144.771762 220.465078 
L 145.59448 182.607539 
L 146.417197 213.937916 
L 147.239915 189.134701 
L 148.062633 189.134701 
L 148.88535 190.440133 
L 149.708068 131.695676 
L 150.530786 199.57816 
L 151.353503 203.494457 
L 152.176221 196.967295 
L 152.998938 204.799889 
L 153.821656 203.494457 
L 154.644374 165.636918 
L 155.467091 200.883592 
L 156.289809 206.105322 
L 157.112527 189.134701 
L 157.935244 203.494457 
L 158.757962 208.716186 
L 159.580679 174.774945 
L 160.403397 183.912971 
L 162.048832 220.465078 
L 162.87155 182.607539 
L 163.694268 194.35643 
L 164.516985 143.444568 
L 165.339703 216.54878 
L 166.16242 176.080377 
L 166.985138 216.54878 
L 167.807856 206.105322 
L 168.630573 219.159645 
L 169.453291 211.327051 
L 170.276008 200.883592 
L 171.098726 213.937916 
L 171.921444 191.745565 
L 172.744161 199.57816 
L 173.566879 212.632483 
L 174.389597 172.16408 
L 175.212314 215.243348 
L 176.035032 187.829268 
L 176.857749 198.272727 
L 177.680467 217.854213 
L 178.503185 226.992239 
L 179.325902 204.799889 
L 180.14862 202.189024 
L 181.794055 238.741131 
L 182.616773 204.799889 
L 183.43949 238.741131 
L 184.262208 240.046563 
L 185.084926 212.632483 
L 185.907643 216.54878 
L 186.730361 225.686807 
L 187.553079 233.519401 
L 188.375796 225.686807 
L 189.198514 233.519401 
L 190.843949 203.494457 
L 191.666667 219.159645 
L 192.489384 225.686807 
L 193.312102 206.105322 
L 194.13482 223.075942 
L 194.957537 230.908537 
L 195.780255 224.381375 
L 196.602972 229.603104 
L 197.42569 238.741131 
L 198.248408 228.297672 
L 199.071125 233.519401 
L 199.893843 230.908537 
L 200.716561 229.603104 
L 201.539278 217.854213 
L 202.361996 213.937916 
L 203.184713 190.440133 
L 204.007431 220.465078 
L 204.830149 217.854213 
L 205.652866 234.824834 
L 206.475584 216.54878 
L 207.298301 217.854213 
L 208.121019 204.799889 
L 208.943737 229.603104 
L 209.766454 226.992239 
L 210.589172 226.992239 
L 211.41189 236.130266 
L 212.234607 240.046563 
L 213.057325 229.603104 
L 213.880042 212.632483 
L 214.70276 223.075942 
L 215.525478 228.297672 
L 216.348195 236.130266 
L 217.170913 212.632483 
L 217.993631 211.327051 
L 218.816348 221.77051 
L 219.639066 225.686807 
L 220.461783 216.54878 
L 221.284501 228.297672 
L 222.107219 228.297672 
L 222.929936 212.632483 
L 223.752654 202.189024 
L 224.575372 208.716186 
L 225.398089 186.523836 
L 226.220807 219.159645 
L 227.043524 199.57816 
L 227.866242 223.075942 
L 228.68896 224.381375 
L 229.511677 228.297672 
L 230.334395 224.381375 
L 231.157113 224.381375 
L 231.97983 219.159645 
L 232.802548 217.854213 
L 233.625265 213.937916 
L 234.447983 226.992239 
L 235.270701 217.854213 
L 236.093418 217.854213 
L 236.916136 213.937916 
L 237.738854 226.992239 
L 238.561571 230.908537 
L 239.384289 236.130266 
L 240.207006 216.54878 
L 241.029724 219.159645 
L 241.852442 225.686807 
L 242.675159 203.494457 
L 243.497877 224.381375 
L 244.320594 212.632483 
L 245.143312 216.54878 
L 245.96603 230.908537 
L 246.788747 185.218404 
L 247.611465 202.189024 
L 248.434183 186.523836 
L 249.2569 183.912971 
L 250.079618 221.77051 
L 250.902335 211.327051 
L 252.547771 219.159645 
L 253.370488 210.021619 
L 254.193206 220.465078 
L 255.015924 203.494457 
L 255.838641 217.854213 
L 256.661359 226.992239 
L 257.484076 208.716186 
L 258.306794 233.519401 
L 259.129512 208.716186 
L 259.952229 216.54878 
L 260.774947 203.494457 
L 261.597665 211.327051 
L 262.420382 210.021619 
L 263.2431 212.632483 
L 264.065817 174.774945 
L 264.888535 164.331486 
L 265.711253 191.745565 
L 267.356688 199.57816 
L 268.179406 185.218404 
L 269.002123 191.745565 
L 269.824841 164.331486 
L 270.647558 157.804324 
L 271.470276 173.469512 
L 272.292994 216.54878 
L 273.115711 191.745565 
L 273.938429 183.912971 
L 274.761146 170.858647 
L 275.583864 119.946785 
L 276.406582 153.888027 
L 277.229299 193.050998 
L 278.052017 221.77051 
L 278.874735 182.607539 
L 279.697452 172.16408 
L 280.52017 195.661863 
L 281.342887 160.415188 
L 282.165605 179.996674 
L 282.988323 156.498891 
L 283.81104 155.193459 
L 284.633758 182.607539 
L 285.456476 195.661863 
L 286.279193 219.159645 
L 287.101911 117.33592 
L 287.924628 161.720621 
L 288.747346 113.419623 
L 289.570064 193.050998 
L 290.392781 122.55765 
L 291.215499 143.444568 
L 292.038217 193.050998 
L 292.860934 135.611973 
L 293.683652 172.16408 
L 294.506369 170.858647 
L 295.329087 179.996674 
L 296.151805 161.720621 
L 296.974522 195.661863 
L 297.79724 142.139135 
L 298.619958 191.745565 
L 299.442675 183.912971 
L 300.265393 170.858647 
L 301.08811 202.189024 
L 301.910828 215.243348 
L 302.733546 202.189024 
L 303.556263 200.883592 
L 304.378981 212.632483 
L 305.201699 213.937916 
L 306.024416 212.632483 
L 306.847134 217.854213 
L 307.669851 230.908537 
L 308.492569 233.519401 
L 309.315287 204.799889 
L 310.138004 203.494457 
L 310.960722 213.937916 
L 311.783439 202.189024 
L 312.606157 221.77051 
L 313.428875 232.213969 
L 314.251592 229.603104 
L 315.07431 236.130266 
L 315.897028 219.159645 
L 316.719745 233.519401 
L 317.542463 224.381375 
L 318.36518 212.632483 
L 319.187898 234.824834 
L 320.010616 232.213969 
L 320.833333 236.130266 
L 321.656051 233.519401 
L 322.478769 228.297672 
L 323.301486 230.908537 
L 324.124204 215.243348 
L 324.946921 246.573725 
L 325.769639 233.519401 
L 326.592357 238.741131 
L 327.415074 232.213969 
L 328.237792 238.741131 
L 329.06051 232.213969 
L 329.883227 240.046563 
L 330.705945 238.741131 
L 331.528662 242.657428 
L 332.35138 238.741131 
L 333.174098 249.18459 
L 333.996815 241.351996 
L 334.819533 234.824834 
L 335.642251 229.603104 
L 336.464968 242.657428 
L 337.287686 243.96286 
L 338.110403 234.824834 
L 338.933121 234.824834 
L 339.755839 232.213969 
L 340.578556 237.435698 
L 341.401274 226.992239 
L 342.223992 240.046563 
L 343.046709 236.130266 
L 343.869427 243.96286 
L 344.692144 238.741131 
L 345.514862 241.351996 
L 346.33758 230.908537 
L 347.160297 224.381375 
L 347.983015 216.54878 
L 348.805732 233.519401 
L 349.62845 219.159645 
L 350.451168 219.159645 
L 351.273885 208.716186 
L 352.096603 225.686807 
L 352.919321 230.908537 
L 353.742038 229.603104 
L 354.564756 212.632483 
L 355.387473 217.854213 
L 356.210191 202.189024 
L 357.032909 224.381375 
L 357.855626 193.050998 
L 358.678344 196.967295 
L 359.501062 178.691242 
L 360.323779 220.465078 
L 361.146497 199.57816 
L 361.969214 185.218404 
L 362.791932 153.888027 
L 364.437367 189.134701 
L 365.260085 183.912971 
L 366.082803 173.469512 
L 366.90552 179.996674 
L 367.728238 135.611973 
L 368.550955 181.302106 
L 369.373673 153.888027 
L 370.196391 155.193459 
L 371.019108 172.16408 
L 371.841826 210.021619 
L 372.664544 160.415188 
L 373.487261 174.774945 
L 374.309979 182.607539 
L 375.132696 194.35643 
L 375.955414 178.691242 
L 376.778132 200.883592 
L 377.600849 152.582594 
L 379.246285 206.105322 
L 380.069002 211.327051 
L 380.89172 142.139135 
L 381.714437 181.302106 
L 382.537155 164.331486 
L 383.359873 170.858647 
L 384.18259 194.35643 
L 385.005308 139.528271 
L 385.828025 155.193459 
L 386.650743 195.661863 
L 387.473461 178.691242 
L 388.296178 153.888027 
L 389.118896 200.883592 
L 389.941614 178.691242 
L 390.764331 181.302106 
L 391.587049 176.080377 
L 392.409766 151.277162 
L 393.232484 142.139135 
L 394.055202 130.390244 
L 394.877919 165.636918 
L 395.700637 123.863082 
L 396.523355 71.645787 
L 397.346072 118.641353 
L 398.16879 106.892461 
L 398.991507 133.001109 
L 399.814225 142.139135 
L 400.636943 178.691242 
L 401.45966 108.197894 
L 402.282378 102.976164 
L 403.105096 49.453437 
L 403.927813 148.666297 
L 404.750531 95.14357 
L 405.573248 71.645787 
L 406.395966 161.720621 
L 407.218684 127.779379 
L 408.864119 163.026053 
L 409.686837 163.026053 
L 410.509554 130.390244 
L 411.332272 116.030488 
L 412.154989 172.16408 
L 412.977707 173.469512 
L 413.800425 92.532705 
L 414.623142 58.591463 
L 415.44586 122.55765 
L 416.268577 108.197894 
L 417.091295 135.611973 
L 417.914013 121.252217 
L 418.73673 62.507761 
L 419.559448 71.645787 
L 420.382166 72.95122 
L 421.204883 117.33592 
L 422.027601 50.758869 
L 422.850318 66.424058 
L 423.673036 142.139135 
L 424.495754 62.507761 
L 425.318471 37.704545 
L 426.141189 127.779379 
L 426.963907 99.059867 
L 427.786624 152.582594 
L 428.609342 101.670732 
L 429.432059 138.222838 
L 430.254777 140.833703 
L 431.077495 114.725055 
L 431.900212 153.888027 
L 432.72293 178.691242 
L 433.545648 136.917406 
L 434.368365 165.636918 
L 435.191083 142.139135 
L 436.0138 142.139135 
L 436.836518 148.666297 
L 437.659236 123.863082 
L 438.481953 179.996674 
L 440.127389 121.252217 
L 440.950106 199.57816 
L 441.772824 177.385809 
L 442.595541 198.272727 
L 443.418259 160.415188 
L 444.240977 213.937916 
L 445.063694 221.77051 
L 445.886412 207.410754 
L 446.70913 220.465078 
L 447.531847 243.96286 
L 448.354565 226.992239 
L 449.177282 195.661863 
L 450 242.657428 
L 450 242.657428 
" style="fill:none;stroke:#000000;stroke-dasharray:1.5,2.475;stroke-dashoffset:0;stroke-opacity:0.5;stroke-width:1.5;"/>
   </g>
   <g id="line2d_26">
    <path clip-path="url(#p056049f679)" d="M 62.5 250.490022 
L 68.259023 250.490022 
L 69.081741 251.795455 
L 72.372611 251.795455 
L 74.018047 249.18459 
L 76.4862 249.18459 
L 77.308917 247.879157 
L 78.131635 247.879157 
L 78.954352 249.18459 
L 80.599788 246.573725 
L 84.713376 246.573725 
L 85.536093 247.879157 
L 86.358811 246.573725 
L 90.472399 246.573725 
L 92.117834 243.96286 
L 93.76327 243.96286 
L 94.585987 245.268293 
L 95.408705 243.96286 
L 96.231423 226.992239 
L 97.05414 219.159645 
L 98.699575 208.716186 
L 99.522293 208.716186 
L 100.345011 210.021619 
L 101.167728 215.243348 
L 101.990446 232.213969 
L 102.813163 234.824834 
L 103.635881 236.130266 
L 104.458599 238.741131 
L 105.281316 238.741131 
L 106.104034 240.046563 
L 109.394904 240.046563 
L 110.217622 241.351996 
L 111.04034 241.351996 
L 112.685775 238.741131 
L 114.33121 233.519401 
L 115.153928 228.297672 
L 115.976645 225.686807 
L 116.799363 224.381375 
L 117.622081 225.686807 
L 118.444798 219.159645 
L 120.090234 216.54878 
L 120.912951 217.854213 
L 121.735669 216.54878 
L 122.558386 219.159645 
L 123.381104 220.465078 
L 124.203822 225.686807 
L 125.026539 219.159645 
L 125.849257 217.854213 
L 127.494692 217.854213 
L 128.31741 216.54878 
L 129.140127 217.854213 
L 130.785563 223.075942 
L 132.430998 220.465078 
L 134.076433 220.465078 
L 134.899151 221.77051 
L 135.721868 216.54878 
L 136.544586 213.937916 
L 137.367304 208.716186 
L 138.190021 202.189024 
L 139.012739 199.57816 
L 139.835456 199.57816 
L 140.658174 195.661863 
L 142.303609 200.883592 
L 143.126327 200.883592 
L 143.949045 204.799889 
L 144.771762 202.189024 
L 145.59448 198.272727 
L 146.417197 199.57816 
L 147.239915 189.134701 
L 148.062633 185.218404 
L 148.88535 185.218404 
L 149.708068 183.912971 
L 150.530786 186.523836 
L 151.353503 190.440133 
L 152.176221 190.440133 
L 152.998938 196.967295 
L 153.821656 196.967295 
L 154.644374 194.35643 
L 156.289809 196.967295 
L 157.112527 194.35643 
L 157.935244 195.661863 
L 161.226115 195.661863 
L 162.048832 189.134701 
L 162.87155 191.745565 
L 163.694268 189.134701 
L 164.516985 190.440133 
L 165.339703 190.440133 
L 166.16242 195.661863 
L 166.985138 199.57816 
L 167.807856 207.410754 
L 168.630573 207.410754 
L 169.453291 208.716186 
L 170.276008 206.105322 
L 171.098726 206.105322 
L 171.921444 200.883592 
L 172.744161 200.883592 
L 173.566879 198.272727 
L 174.389597 196.967295 
L 175.212314 199.57816 
L 176.035032 203.494457 
L 176.857749 203.494457 
L 177.680467 208.716186 
L 178.503185 210.021619 
L 179.325902 215.243348 
L 180.14862 216.54878 
L 182.616773 224.381375 
L 183.43949 225.686807 
L 184.262208 225.686807 
L 185.084926 224.381375 
L 185.907643 226.992239 
L 187.553079 224.381375 
L 188.375796 224.381375 
L 190.021231 221.77051 
L 190.843949 217.854213 
L 192.489384 217.854213 
L 193.312102 219.159645 
L 194.13482 221.77051 
L 194.957537 225.686807 
L 195.780255 226.992239 
L 196.602972 229.603104 
L 197.42569 230.908537 
L 199.071125 230.908537 
L 199.893843 228.297672 
L 200.716561 221.77051 
L 202.361996 216.54878 
L 203.184713 215.243348 
L 204.007431 215.243348 
L 204.830149 216.54878 
L 205.652866 216.54878 
L 206.475584 220.465078 
L 207.298301 220.465078 
L 208.121019 221.77051 
L 208.943737 221.77051 
L 209.766454 225.686807 
L 210.589172 228.297672 
L 211.41189 229.603104 
L 212.234607 228.297672 
L 213.880042 228.297672 
L 215.525478 223.075942 
L 216.348195 221.77051 
L 217.993631 221.77051 
L 218.816348 220.465078 
L 219.639066 220.465078 
L 220.461783 221.77051 
L 221.284501 220.465078 
L 222.107219 217.854213 
L 222.929936 212.632483 
L 223.752654 211.327051 
L 224.575372 207.410754 
L 225.398089 206.105322 
L 226.220807 208.716186 
L 227.043524 212.632483 
L 227.866242 215.243348 
L 228.68896 220.465078 
L 230.334395 223.075942 
L 231.157113 221.77051 
L 231.97983 221.77051 
L 233.625265 219.159645 
L 235.270701 219.159645 
L 236.093418 220.465078 
L 236.916136 223.075942 
L 237.738854 223.075942 
L 238.561571 224.381375 
L 239.384289 224.381375 
L 241.029724 221.77051 
L 242.675159 216.54878 
L 243.497877 217.854213 
L 245.143312 212.632483 
L 245.96603 208.716186 
L 246.788747 203.494457 
L 248.434183 200.883592 
L 249.2569 200.883592 
L 250.079618 206.105322 
L 250.902335 208.716186 
L 251.725053 212.632483 
L 252.547771 215.243348 
L 253.370488 213.937916 
L 254.193206 215.243348 
L 255.015924 215.243348 
L 256.661359 217.854213 
L 257.484076 217.854213 
L 259.129512 215.243348 
L 259.952229 212.632483 
L 260.774947 212.632483 
L 261.597665 206.105322 
L 263.2431 195.661863 
L 265.711253 187.829268 
L 266.53397 186.523836 
L 267.356688 186.523836 
L 268.179406 185.218404 
L 269.002123 181.302106 
L 270.647558 181.302106 
L 271.470276 182.607539 
L 272.292994 182.607539 
L 273.115711 177.385809 
L 274.761146 172.16408 
L 275.583864 172.16408 
L 277.229299 174.774945 
L 278.874735 185.218404 
L 279.697452 186.523836 
L 280.52017 179.996674 
L 281.342887 172.16408 
L 282.165605 170.858647 
L 282.988323 172.16408 
L 283.81104 176.080377 
L 285.456476 173.469512 
L 286.279193 166.94235 
L 287.101911 166.94235 
L 287.924628 157.804324 
L 288.747346 151.277162 
L 289.570064 148.666297 
L 291.215499 153.888027 
L 292.038217 160.415188 
L 292.860934 160.415188 
L 294.506369 170.858647 
L 295.329087 168.247783 
L 296.151805 173.469512 
L 296.974522 174.774945 
L 297.79724 174.774945 
L 298.619958 177.385809 
L 299.442675 183.912971 
L 300.265393 187.829268 
L 301.08811 195.661863 
L 302.733546 203.494457 
L 303.556263 208.716186 
L 304.378981 210.021619 
L 305.201699 212.632483 
L 306.024416 217.854213 
L 306.847134 219.159645 
L 307.669851 217.854213 
L 308.492569 217.854213 
L 309.315287 215.243348 
L 310.138004 213.937916 
L 310.960722 213.937916 
L 311.783439 215.243348 
L 312.606157 220.465078 
L 315.07431 228.297672 
L 315.897028 226.992239 
L 318.36518 226.992239 
L 319.187898 229.603104 
L 320.010616 229.603104 
L 320.833333 230.908537 
L 323.301486 230.908537 
L 324.124204 232.213969 
L 324.946921 232.213969 
L 326.592357 234.824834 
L 327.415074 237.435698 
L 328.237792 236.130266 
L 329.06051 237.435698 
L 329.883227 237.435698 
L 330.705945 240.046563 
L 331.528662 240.046563 
L 332.35138 241.351996 
L 333.174098 240.046563 
L 334.819533 240.046563 
L 337.287686 236.130266 
L 338.110403 237.435698 
L 339.755839 234.824834 
L 340.578556 234.824834 
L 341.401274 236.130266 
L 342.223992 236.130266 
L 343.046709 237.435698 
L 344.692144 237.435698 
L 345.514862 233.519401 
L 346.33758 232.213969 
L 347.160297 228.297672 
L 347.983015 225.686807 
L 348.805732 221.77051 
L 349.62845 220.465078 
L 351.273885 223.075942 
L 352.096603 221.77051 
L 352.919321 221.77051 
L 353.742038 219.159645 
L 354.564756 220.465078 
L 355.387473 215.243348 
L 356.210191 211.327051 
L 357.032909 204.799889 
L 357.855626 203.494457 
L 358.678344 200.883592 
L 359.501062 199.57816 
L 360.323779 191.745565 
L 361.146497 187.829268 
L 361.969214 185.218404 
L 362.791932 183.912971 
L 363.61465 178.691242 
L 364.437367 177.385809 
L 365.260085 172.16408 
L 366.082803 173.469512 
L 366.90552 170.858647 
L 367.728238 165.636918 
L 368.550955 163.026053 
L 369.373673 166.94235 
L 370.196391 168.247783 
L 371.019108 172.16408 
L 371.841826 173.469512 
L 372.664544 178.691242 
L 374.309979 183.912971 
L 375.132696 179.996674 
L 375.955414 181.302106 
L 377.600849 186.523836 
L 378.423567 182.607539 
L 379.246285 182.607539 
L 380.069002 178.691242 
L 381.714437 178.691242 
L 383.359873 165.636918 
L 384.18259 170.858647 
L 385.005308 170.858647 
L 385.828025 169.553215 
L 386.650743 173.469512 
L 387.473461 173.469512 
L 388.296178 178.691242 
L 389.118896 179.996674 
L 389.941614 176.080377 
L 391.587049 165.636918 
L 393.232484 152.582594 
L 394.055202 138.222838 
L 395.700637 122.55765 
L 396.523355 118.641353 
L 397.346072 118.641353 
L 398.16879 122.55765 
L 398.991507 125.168514 
L 399.814225 130.390244 
L 400.636943 122.55765 
L 401.45966 122.55765 
L 402.282378 114.725055 
L 403.105096 105.587029 
L 403.927813 102.976164 
L 404.750531 106.892461 
L 405.573248 114.725055 
L 406.395966 127.779379 
L 407.218684 133.001109 
L 408.041401 140.833703 
L 408.864119 144.75 
L 409.686837 146.055432 
L 410.509554 149.971729 
L 411.332272 144.75 
L 412.154989 133.001109 
L 412.977707 125.168514 
L 413.800425 119.946785 
L 414.623142 118.641353 
L 415.44586 112.114191 
L 416.268577 102.976164 
L 417.914013 100.365299 
L 418.73673 96.449002 
L 419.559448 88.616408 
L 420.382166 79.478381 
L 421.204883 82.089246 
L 422.027601 83.394678 
L 422.850318 80.783814 
L 423.673036 84.700111 
L 424.495754 83.394678 
L 425.318471 95.14357 
L 426.141189 101.670732 
L 426.963907 104.281596 
L 427.786624 116.030488 
L 428.609342 125.168514 
L 429.432059 129.084812 
L 430.254777 138.222838 
L 431.077495 138.222838 
L 431.900212 147.360865 
L 433.545648 149.971729 
L 434.368365 152.582594 
L 435.191083 148.666297 
L 436.0138 147.360865 
L 436.836518 148.666297 
L 437.659236 144.75 
L 438.481953 151.277162 
L 439.304671 156.498891 
L 440.950106 169.553215 
L 441.772824 174.774945 
L 443.418259 195.661863 
L 444.240977 199.57816 
L 445.063694 208.716186 
L 445.886412 215.243348 
L 446.70913 220.465078 
L 447.531847 223.075942 
L 448.354565 223.075942 
L 449.177282 225.686807 
L 450 225.686807 
L 450 225.686807 
" style="fill:none;stroke:#b3220f;stroke-linecap:square;stroke-width:1.5;"/>
   </g>
   <g id="patch_3">
    <path d="M 62.5 262.5 
L 62.5 27 
" style="fill:none;stroke:#555555;stroke-linecap:square;stroke-linejoin:miter;"/>
   </g>
   <g id="patch_4">
    <path d="M 62.5 262.5 
L 450 262.5 
" style="fill:none;stroke:#555555;stroke-linecap:square;stroke-linejoin:miter;"/>
   </g>
   <g id="text_14">
    <!-- Los Mártires | Casos nuevos: 2021-07-29 -->
    <g style="fill:#555555;" transform="translate(127.225781 17)scale(0.14 -0.14)">
     <defs>
      <path d="M 7.796875 71.40625 
L 7.796875 0 
L 55.09375 0 
L 55.09375 8 
L 17.296875 8 
L 17.296875 71.40625 
z
" id="HelveticaNeue-76"/>
      <path d="M 12.59375 25.796875 
Q 12.59375 30.5 13.84375 34.140625 
Q 15.09375 37.796875 17.296875 40.296875 
Q 19.5 42.796875 22.453125 44.09375 
Q 25.40625 45.40625 28.703125 45.40625 
Q 32 45.40625 34.953125 44.09375 
Q 37.90625 42.796875 40.09375 40.296875 
Q 42.296875 37.796875 43.546875 34.140625 
Q 44.796875 30.5 44.796875 25.796875 
Q 44.796875 21.09375 43.546875 17.4375 
Q 42.296875 13.796875 40.09375 11.34375 
Q 37.90625 8.90625 34.953125 7.59375 
Q 32 6.296875 28.703125 6.296875 
Q 25.40625 6.296875 22.453125 7.59375 
Q 19.5 8.90625 17.296875 11.34375 
Q 15.09375 13.796875 13.84375 17.4375 
Q 12.59375 21.09375 12.59375 25.796875 
z
M 3.59375 25.796875 
Q 3.59375 20.09375 5.1875 15.1875 
Q 6.796875 10.296875 10 6.640625 
Q 13.203125 3 17.890625 0.953125 
Q 22.59375 -1.09375 28.703125 -1.09375 
Q 34.90625 -1.09375 39.546875 0.953125 
Q 44.203125 3 47.390625 6.640625 
Q 50.59375 10.296875 52.1875 15.1875 
Q 53.796875 20.09375 53.796875 25.796875 
Q 53.796875 31.5 52.1875 36.453125 
Q 50.59375 41.40625 47.390625 45.046875 
Q 44.203125 48.703125 39.546875 50.796875 
Q 34.90625 52.90625 28.703125 52.90625 
Q 22.59375 52.90625 17.890625 50.796875 
Q 13.203125 48.703125 10 45.046875 
Q 6.796875 41.40625 5.1875 36.453125 
Q 3.59375 31.5 3.59375 25.796875 
z
" id="HelveticaNeue-111"/>
      <path d="M 11.59375 16.296875 
L 3.09375 16.296875 
Q 3.296875 11.5 5.09375 8.140625 
Q 6.90625 4.796875 9.90625 2.75 
Q 12.90625 0.703125 16.796875 -0.1875 
Q 20.703125 -1.09375 25 -1.09375 
Q 28.90625 -1.09375 32.84375 -0.34375 
Q 36.796875 0.40625 39.9375 2.296875 
Q 43.09375 4.203125 45.046875 7.296875 
Q 47 10.40625 47 15.09375 
Q 47 18.796875 45.546875 21.296875 
Q 44.09375 23.796875 41.75 25.4375 
Q 39.40625 27.09375 36.34375 28.09375 
Q 33.296875 29.09375 30.09375 29.796875 
Q 27.09375 30.5 24.09375 31.140625 
Q 21.09375 31.796875 18.6875 32.75 
Q 16.296875 33.703125 14.75 35.140625 
Q 13.203125 36.59375 13.203125 38.796875 
Q 13.203125 40.796875 14.203125 42.046875 
Q 15.203125 43.296875 16.796875 44.046875 
Q 18.40625 44.796875 20.34375 45.09375 
Q 22.296875 45.40625 24.203125 45.40625 
Q 26.296875 45.40625 28.34375 44.953125 
Q 30.40625 44.5 32.09375 43.5 
Q 33.796875 42.5 34.890625 40.84375 
Q 36 39.203125 36.203125 36.703125 
L 44.703125 36.703125 
Q 44.40625 41.40625 42.703125 44.546875 
Q 41 47.703125 38.140625 49.546875 
Q 35.296875 51.40625 31.59375 52.15625 
Q 27.90625 52.90625 23.5 52.90625 
Q 20.09375 52.90625 16.640625 52.046875 
Q 13.203125 51.203125 10.453125 49.453125 
Q 7.703125 47.703125 5.953125 44.890625 
Q 4.203125 42.09375 4.203125 38.203125 
Q 4.203125 33.203125 6.703125 30.390625 
Q 9.203125 27.59375 12.953125 26.046875 
Q 16.703125 24.5 21.09375 23.640625 
Q 25.5 22.796875 29.25 21.75 
Q 33 20.703125 35.5 19 
Q 38 17.296875 38 14 
Q 38 11.59375 36.796875 10.046875 
Q 35.59375 8.5 33.75 7.703125 
Q 31.90625 6.90625 29.703125 6.59375 
Q 27.5 6.296875 25.5 6.296875 
Q 22.90625 6.296875 20.453125 6.796875 
Q 18 7.296875 16.046875 8.4375 
Q 14.09375 9.59375 12.890625 11.546875 
Q 11.703125 13.5 11.59375 16.296875 
z
" id="HelveticaNeue-115"/>
      <path id="HelveticaNeue-32"/>
      <path d="M 8 71.40625 
L 8 0 
L 17 0 
L 17 59.40625 
L 17.203125 59.40625 
L 39.5 0 
L 47.59375 0 
L 69.90625 59.40625 
L 70.09375 59.40625 
L 70.09375 0 
L 79.09375 0 
L 79.09375 71.40625 
L 66.09375 71.40625 
L 43.5 11.40625 
L 21 71.40625 
z
" id="HelveticaNeue-77"/>
      <path d="M 52.203125 0.203125 
Q 50 -1.09375 46.09375 -1.09375 
Q 42.796875 -1.09375 40.84375 0.75 
Q 38.90625 2.59375 38.90625 6.796875 
Q 35.40625 2.59375 30.75 0.75 
Q 26.09375 -1.09375 20.703125 -1.09375 
Q 17.203125 -1.09375 14.046875 -0.296875 
Q 10.90625 0.5 8.59375 2.203125 
Q 6.296875 3.90625 4.9375 6.65625 
Q 3.59375 9.40625 3.59375 13.296875 
Q 3.59375 17.703125 5.09375 20.5 
Q 6.59375 23.296875 9.046875 25.046875 
Q 11.5 26.796875 14.640625 27.6875 
Q 17.796875 28.59375 21.09375 29.203125 
Q 24.59375 29.90625 27.75 30.25 
Q 30.90625 30.59375 33.296875 31.25 
Q 35.703125 31.90625 37.09375 33.15625 
Q 38.5 34.40625 38.5 36.796875 
Q 38.5 39.59375 37.453125 41.296875 
Q 36.40625 43 34.75 43.890625 
Q 33.09375 44.796875 31.046875 45.09375 
Q 29 45.40625 27 45.40625 
Q 21.59375 45.40625 18 43.34375 
Q 14.40625 41.296875 14.09375 35.59375 
L 5.59375 35.59375 
Q 5.796875 40.40625 7.59375 43.703125 
Q 9.40625 47 12.40625 49.046875 
Q 15.40625 51.09375 19.25 52 
Q 23.09375 52.90625 27.5 52.90625 
Q 31 52.90625 34.453125 52.40625 
Q 37.90625 51.90625 40.703125 50.34375 
Q 43.5 48.796875 45.203125 46 
Q 46.90625 43.203125 46.90625 38.703125 
L 46.90625 12.09375 
Q 46.90625 9.09375 47.25 7.6875 
Q 47.59375 6.296875 49.59375 6.296875 
Q 50.703125 6.296875 52.203125 6.796875 
z
M 38.40625 26.703125 
Q 36.796875 25.5 34.1875 24.953125 
Q 31.59375 24.40625 28.75 24.046875 
Q 25.90625 23.703125 23 23.25 
Q 20.09375 22.796875 17.796875 21.796875 
Q 15.5 20.796875 14.046875 18.9375 
Q 12.59375 17.09375 12.59375 13.90625 
Q 12.59375 11.796875 13.4375 10.34375 
Q 14.296875 8.90625 15.640625 8 
Q 17 7.09375 18.796875 6.6875 
Q 20.59375 6.296875 22.59375 6.296875 
Q 26.796875 6.296875 29.796875 7.4375 
Q 32.796875 8.59375 34.6875 10.34375 
Q 36.59375 12.09375 37.5 14.140625 
Q 38.40625 16.203125 38.40625 18 
z
M 41.296875 77 
L 27.203125 60.796875 
L 20.796875 60.796875 
L 30.40625 77 
z
" id="HelveticaNeue-225"/>
      <path d="M 15.40625 61 
L 15.40625 71.40625 
L 6.90625 71.40625 
L 6.90625 61 
z
M 6.90625 51.703125 
L 6.90625 0 
L 15.40625 0 
L 15.40625 51.703125 
z
" id="HelveticaNeue-105"/>
      <path d="M 7.703125 78.59375 
L 7.703125 -21.296875 
L 14.5 -21.296875 
L 14.5 78.59375 
z
" id="HelveticaNeue-124"/>
      <path d="M 58 49.90625 
L 67.5 49.90625 
Q 66.703125 55.59375 64.09375 59.9375 
Q 61.5 64.296875 57.59375 67.1875 
Q 53.703125 70.09375 48.703125 71.59375 
Q 43.703125 73.09375 38.09375 73.09375 
Q 29.90625 73.09375 23.546875 70.140625 
Q 17.203125 67.203125 12.953125 62.09375 
Q 8.703125 57 6.5 50.140625 
Q 4.296875 43.296875 4.296875 35.5 
Q 4.296875 27.703125 6.34375 20.890625 
Q 8.40625 14.09375 12.5 9.09375 
Q 16.59375 4.09375 22.796875 1.25 
Q 29 -1.59375 37.296875 -1.59375 
Q 51 -1.59375 58.890625 5.90625 
Q 66.796875 13.40625 68.203125 26.90625 
L 58.703125 26.90625 
Q 58.40625 22.5 56.90625 18.703125 
Q 55.40625 14.90625 52.75 12.15625 
Q 50.09375 9.40625 46.4375 7.84375 
Q 42.796875 6.296875 38.09375 6.296875 
Q 31.703125 6.296875 27.09375 8.6875 
Q 22.5 11.09375 19.546875 15.140625 
Q 16.59375 19.203125 15.1875 24.640625 
Q 13.796875 30.09375 13.796875 36.203125 
Q 13.796875 41.796875 15.1875 47 
Q 16.59375 52.203125 19.546875 56.25 
Q 22.5 60.296875 27.046875 62.6875 
Q 31.59375 65.09375 38 65.09375 
Q 45.5 65.09375 50.953125 61.296875 
Q 56.40625 57.5 58 49.90625 
z
" id="HelveticaNeue-67"/>
      <path d="M 29.703125 0 
L 48.59375 51.703125 
L 39.703125 51.703125 
L 25.59375 8.59375 
L 25.40625 8.59375 
L 10.90625 51.703125 
L 1.40625 51.703125 
L 20.59375 0 
z
" id="HelveticaNeue-118"/>
      <path d="M 19.40625 40.59375 
L 19.40625 51.703125 
L 8.296875 51.703125 
L 8.296875 40.59375 
z
M 8.296875 11.09375 
L 8.296875 0 
L 19.40625 0 
L 19.40625 11.09375 
z
" id="HelveticaNeue-58"/>
      <path d="M 5 31.796875 
L 5 23.796875 
L 33.90625 23.796875 
L 33.90625 31.796875 
z
" id="HelveticaNeue-45"/>
      <path d="M 13.40625 17.09375 
L 4.90625 17.09375 
Q 5.703125 7.90625 11.59375 3.40625 
Q 17.5 -1.09375 26.40625 -1.09375 
Q 39.296875 -1.09375 45.140625 8.75 
Q 51 18.59375 51 37 
Q 51 47.09375 49.046875 53.640625 
Q 47.09375 60.203125 43.796875 64 
Q 40.5 67.796875 36.09375 69.34375 
Q 31.703125 70.90625 26.703125 70.90625 
Q 21.59375 70.90625 17.296875 69.203125 
Q 13 67.5 9.890625 64.453125 
Q 6.796875 61.40625 5.09375 57.15625 
Q 3.40625 52.90625 3.40625 47.796875 
Q 3.40625 42.59375 4.84375 38.1875 
Q 6.296875 33.796875 9.140625 30.6875 
Q 12 27.59375 16.203125 25.84375 
Q 20.40625 24.09375 25.796875 24.09375 
Q 31 24.09375 35.390625 26.75 
Q 39.796875 29.40625 42.203125 33.90625 
L 42.40625 33.703125 
Q 42 19.796875 38.09375 13.046875 
Q 34.203125 6.296875 26.40625 6.296875 
Q 21.296875 6.296875 17.59375 9.09375 
Q 13.90625 11.90625 13.40625 17.09375 
z
M 40.90625 47.203125 
Q 40.90625 44.09375 39.90625 41.25 
Q 38.90625 38.40625 37 36.25 
Q 35.09375 34.09375 32.390625 32.84375 
Q 29.703125 31.59375 26.40625 31.59375 
Q 23.296875 31.59375 20.75 32.84375 
Q 18.203125 34.09375 16.34375 36.1875 
Q 14.5 38.296875 13.453125 41 
Q 12.40625 43.703125 12.40625 46.59375 
Q 12.40625 49.90625 13.15625 52.90625 
Q 13.90625 55.90625 15.546875 58.25 
Q 17.203125 60.59375 19.84375 62 
Q 22.5 63.40625 26.296875 63.40625 
Q 29.90625 63.40625 32.59375 62.09375 
Q 35.296875 60.796875 37.140625 58.546875 
Q 39 56.296875 39.953125 53.390625 
Q 40.90625 50.5 40.90625 47.203125 
z
" id="HelveticaNeue-57"/>
     </defs>
     <use xlink:href="#HelveticaNeue-76"/>
     <use x="55.599991" xlink:href="#HelveticaNeue-111"/>
     <use x="112.999985" xlink:href="#HelveticaNeue-115"/>
     <use x="162.999969" xlink:href="#HelveticaNeue-32"/>
     <use x="190.799957" xlink:href="#HelveticaNeue-77"/>
     <use x="277.899948" xlink:href="#HelveticaNeue-225"/>
     <use x="331.599945" xlink:href="#HelveticaNeue-114"/>
     <use x="364.899933" xlink:href="#HelveticaNeue-116"/>
     <use x="396.399918" xlink:href="#HelveticaNeue-105"/>
     <use x="418.599915" xlink:href="#HelveticaNeue-114"/>
     <use x="450.149902" xlink:href="#HelveticaNeue-101"/>
     <use x="503.849899" xlink:href="#HelveticaNeue-115"/>
     <use x="553.849884" xlink:href="#HelveticaNeue-32"/>
     <use x="581.649872" xlink:href="#HelveticaNeue-124"/>
     <use x="603.849869" xlink:href="#HelveticaNeue-32"/>
     <use x="631.649857" xlink:href="#HelveticaNeue-67"/>
     <use x="703.849838" xlink:href="#HelveticaNeue-97"/>
     <use x="757.549835" xlink:href="#HelveticaNeue-115"/>
     <use x="807.54982" xlink:href="#HelveticaNeue-111"/>
     <use x="864.949814" xlink:href="#HelveticaNeue-115"/>
     <use x="914.949799" xlink:href="#HelveticaNeue-32"/>
     <use x="942.749786" xlink:href="#HelveticaNeue-110"/>
     <use x="998.349777" xlink:href="#HelveticaNeue-117"/>
     <use x="1053.949768" xlink:href="#HelveticaNeue-101"/>
     <use x="1107.649765" xlink:href="#HelveticaNeue-118"/>
     <use x="1157.64975" xlink:href="#HelveticaNeue-111"/>
     <use x="1215.049744" xlink:href="#HelveticaNeue-115"/>
     <use x="1265.049728" xlink:href="#HelveticaNeue-58"/>
     <use x="1292.849716" xlink:href="#HelveticaNeue-32"/>
     <use x="1320.649704" xlink:href="#HelveticaNeue-50"/>
     <use x="1376.249695" xlink:href="#HelveticaNeue-48"/>
     <use x="1431.849686" xlink:href="#HelveticaNeue-50"/>
     <use x="1487.449677" xlink:href="#HelveticaNeue-49"/>
     <use x="1543.049667" xlink:href="#HelveticaNeue-45"/>
     <use x="1581.949661" xlink:href="#HelveticaNeue-48"/>
     <use x="1637.549652" xlink:href="#HelveticaNeue-55"/>
     <use x="1693.149643" xlink:href="#HelveticaNeue-45"/>
     <use x="1732.049637" xlink:href="#HelveticaNeue-50"/>
     <use x="1787.649628" xlink:href="#HelveticaNeue-57"/>
    </g>
   </g>
   <g id="legend_1">
    <g id="line2d_27">
     <path d="M 71.5 39.640625 
L 91.5 39.640625 
" style="fill:none;stroke:#000000;stroke-dasharray:1.5,2.475;stroke-dashoffset:0;stroke-opacity:0.5;stroke-width:1.5;"/>
    </g>
    <g id="line2d_28"/>
    <g id="text_15">
     <!-- Actual -->
     <g style="fill:#555555;" transform="translate(99.5 43.140625)scale(0.1 -0.1)">
      <use xlink:href="#HelveticaNeue-65"/>
      <use x="64.799988" xlink:href="#HelveticaNeue-99"/>
      <use x="118.499985" xlink:href="#HelveticaNeue-116"/>
      <use x="149.999969" xlink:href="#HelveticaNeue-117"/>
      <use x="205.59996" xlink:href="#HelveticaNeue-97"/>
      <use x="259.299957" xlink:href="#HelveticaNeue-108"/>
     </g>
    </g>
    <g id="line2d_29">
     <path d="M 71.5 54.310937 
L 91.5 54.310937 
" style="fill:none;stroke:#b3220f;stroke-linecap:square;stroke-width:1.5;"/>
    </g>
    <g id="line2d_30"/>
    <g id="text_16">
     <!-- Promedio semanal (7 días)  -->
     <g style="fill:#555555;" transform="translate(99.5 57.810937)scale(0.1 -0.1)">
      <defs>
       <path d="M 17.296875 37.203125 
L 17.296875 63.40625 
L 35.90625 63.40625 
Q 44 63.40625 47.75 60.046875 
Q 51.5 56.703125 51.5 50.296875 
Q 51.5 43.90625 47.75 40.5 
Q 44 37.09375 35.90625 37.203125 
z
M 7.796875 71.40625 
L 7.796875 0 
L 17.296875 0 
L 17.296875 29.203125 
L 39.09375 29.203125 
Q 49.90625 29.09375 55.453125 34.6875 
Q 61 40.296875 61 50.296875 
Q 61 60.296875 55.453125 65.84375 
Q 49.90625 71.40625 39.09375 71.40625 
z
" id="HelveticaNeue-80"/>
       <path d="M 6.40625 51.703125 
L 6.40625 0 
L 14.90625 0 
L 14.90625 32.203125 
Q 14.90625 33.703125 15.65625 35.953125 
Q 16.40625 38.203125 18.046875 40.296875 
Q 19.703125 42.40625 22.34375 43.90625 
Q 25 45.40625 28.703125 45.40625 
Q 31.59375 45.40625 33.4375 44.546875 
Q 35.296875 43.703125 36.390625 42.140625 
Q 37.5 40.59375 37.953125 38.5 
Q 38.40625 36.40625 38.40625 33.90625 
L 38.40625 0 
L 46.90625 0 
L 46.90625 32.203125 
Q 46.90625 38.203125 50.5 41.796875 
Q 54.09375 45.40625 60.40625 45.40625 
Q 63.5 45.40625 65.453125 44.5 
Q 67.40625 43.59375 68.5 42.046875 
Q 69.59375 40.5 70 38.390625 
Q 70.40625 36.296875 70.40625 33.90625 
L 70.40625 0 
L 78.90625 0 
L 78.90625 37.90625 
Q 78.90625 41.90625 77.65625 44.75 
Q 76.40625 47.59375 74.15625 49.390625 
Q 71.90625 51.203125 68.75 52.046875 
Q 65.59375 52.90625 61.703125 52.90625 
Q 56.59375 52.90625 52.34375 50.59375 
Q 48.09375 48.296875 45.5 44.09375 
Q 43.90625 48.90625 40 50.90625 
Q 36.09375 52.90625 31.296875 52.90625 
Q 20.40625 52.90625 14.59375 44.09375 
L 14.40625 44.09375 
L 14.40625 51.703125 
z
" id="HelveticaNeue-109"/>
       <path d="M 12.59375 25.40625 
Q 12.59375 29.203125 13.390625 32.796875 
Q 14.203125 36.40625 16 39.203125 
Q 17.796875 42 20.796875 43.703125 
Q 23.796875 45.40625 28.09375 45.40625 
Q 32.5 45.40625 35.59375 43.75 
Q 38.703125 42.09375 40.640625 39.390625 
Q 42.59375 36.703125 43.5 33.140625 
Q 44.40625 29.59375 44.40625 25.796875 
Q 44.40625 22.203125 43.546875 18.703125 
Q 42.703125 15.203125 40.796875 12.453125 
Q 38.90625 9.703125 35.90625 8 
Q 32.90625 6.296875 28.59375 6.296875 
Q 24.5 6.296875 21.453125 7.890625 
Q 18.40625 9.5 16.453125 12.203125 
Q 14.5 14.90625 13.546875 18.34375 
Q 12.59375 21.796875 12.59375 25.40625 
z
M 52.59375 0 
L 52.59375 71.40625 
L 44.09375 71.40625 
L 44.09375 44.796875 
L 43.90625 44.796875 
Q 42.5 47.09375 40.453125 48.640625 
Q 38.40625 50.203125 36.09375 51.140625 
Q 33.796875 52.09375 31.5 52.5 
Q 29.203125 52.90625 27.203125 52.90625 
Q 21.296875 52.90625 16.84375 50.75 
Q 12.40625 48.59375 9.453125 44.9375 
Q 6.5 41.296875 5.046875 36.390625 
Q 3.59375 31.5 3.59375 26 
Q 3.59375 20.5 5.09375 15.59375 
Q 6.59375 10.703125 9.546875 7 
Q 12.5 3.296875 16.953125 1.09375 
Q 21.40625 -1.09375 27.40625 -1.09375 
Q 32.796875 -1.09375 37.296875 0.796875 
Q 41.796875 2.703125 43.90625 7 
L 44.09375 7 
L 44.09375 0 
z
" id="HelveticaNeue-100"/>
       <path d="M 20.40625 -19.703125 
L 26.90625 -19.703125 
Q 19.796875 -8.203125 16.75 3.09375 
Q 13.703125 14.40625 13.703125 27 
Q 13.703125 39.296875 16.703125 50.5 
Q 19.703125 61.703125 26.90625 73.09375 
L 20.40625 73.09375 
Q 12.59375 62.796875 8.640625 50.796875 
Q 4.703125 38.796875 4.703125 27 
Q 4.703125 20.40625 5.796875 14.40625 
Q 6.90625 8.40625 8.953125 2.703125 
Q 11 -3 13.890625 -8.546875 
Q 16.796875 -14.09375 20.40625 -19.703125 
z
" id="HelveticaNeue-40"/>
       <path d="M 6.90625 0 
L 15.40625 0 
L 15.40625 51.703125 
L 6.90625 51.703125 
z
M 25.5 77 
L 11.40625 60.796875 
L 5 60.796875 
L 14.59375 77 
z
" id="HelveticaNeue-237"/>
       <path d="M -0.90625 -19.703125 
L 5.5 -19.703125 
Q 13.296875 -9.40625 17.25 2.546875 
Q 21.203125 14.5 21.203125 26.296875 
Q 21.203125 32.90625 20.09375 38.90625 
Q 19 44.90625 16.953125 50.65625 
Q 14.90625 56.40625 12 61.953125 
Q 9.09375 67.5 5.5 73.09375 
L -0.90625 73.09375 
Q 6.09375 61.59375 9.140625 50.25 
Q 12.203125 38.90625 12.203125 26.296875 
Q 12.203125 14.09375 9.203125 2.84375 
Q 6.203125 -8.40625 -0.90625 -19.703125 
z
" id="HelveticaNeue-41"/>
      </defs>
      <use xlink:href="#HelveticaNeue-80"/>
      <use x="64.799988" xlink:href="#HelveticaNeue-114"/>
      <use x="96.349976" xlink:href="#HelveticaNeue-111"/>
      <use x="153.749969" xlink:href="#HelveticaNeue-109"/>
      <use x="239.049957" xlink:href="#HelveticaNeue-101"/>
      <use x="292.749954" xlink:href="#HelveticaNeue-100"/>
      <use x="352.049942" xlink:href="#HelveticaNeue-105"/>
      <use x="374.249939" xlink:href="#HelveticaNeue-111"/>
      <use x="431.649933" xlink:href="#HelveticaNeue-32"/>
      <use x="459.449921" xlink:href="#HelveticaNeue-115"/>
      <use x="509.449905" xlink:href="#HelveticaNeue-101"/>
      <use x="563.149902" xlink:href="#HelveticaNeue-109"/>
      <use x="648.44989" xlink:href="#HelveticaNeue-97"/>
      <use x="702.149887" xlink:href="#HelveticaNeue-110"/>
      <use x="757.749878" xlink:href="#HelveticaNeue-97"/>
      <use x="811.449875" xlink:href="#HelveticaNeue-108"/>
      <use x="833.649872" xlink:href="#HelveticaNeue-32"/>
      <use x="861.44986" xlink:href="#HelveticaNeue-40"/>
      <use x="887.349854" xlink:href="#HelveticaNeue-55"/>
      <use x="942.949844" xlink:href="#HelveticaNeue-32"/>
      <use x="970.749832" xlink:href="#HelveticaNeue-100"/>
      <use x="1030.04982" xlink:href="#HelveticaNeue-237"/>
      <use x="1052.249817" xlink:href="#HelveticaNeue-97"/>
      <use x="1105.949814" xlink:href="#HelveticaNeue-115"/>
      <use x="1155.949799" xlink:href="#HelveticaNeue-41"/>
      <use x="1181.849792" xlink:href="#HelveticaNeue-32"/>
     </g>
    </g>
   </g>
  </g>
 </g>
 <defs>
  <clipPath id="p056049f679">
   <rect height="235.5" width="387.5" x="62.5" y="27"/>
  </clipPath>
 </defs>
</svg>
