<?xml version="1.0" encoding="utf-8" standalone="no"?>
<!DOCTYPE svg PUBLIC "-//W3C//DTD SVG 1.1//EN"
  "http://www.w3.org/Graphics/SVG/1.1/DTD/svg11.dtd">
<!-- Created with matplotlib (https://matplotlib.org/) -->
<svg height="300pt" version="1.1" viewBox="0 0 500 300" width="500pt" xmlns="http://www.w3.org/2000/svg" xmlns:xlink="http://www.w3.org/1999/xlink">
 <metadata>
  <rdf:RDF xmlns:cc="http://creativecommons.org/ns#" xmlns:dc="http://purl.org/dc/elements/1.1/" xmlns:rdf="http://www.w3.org/1999/02/22-rdf-syntax-ns#">
   <cc:Work>
    <dc:type rdf:resource="http://purl.org/dc/dcmitype/StillImage"/>
    <dc:date>2021-06-07T19:37:02.011154</dc:date>
    <dc:format>image/svg+xml</dc:format>
    <dc:creator>
     <cc:Agent>
      <dc:title>Matplotlib v3.3.4, https://matplotlib.org/</dc:title>
     </cc:Agent>
    </dc:creator>
   </cc:Work>
  </rdf:RDF>
 </metadata>
 <defs>
  <style type="text/css">*{stroke-linecap:butt;stroke-linejoin:round;}</style>
 </defs>
 <g id="figure_1">
  <g id="patch_1">
   <path d="M 0 300 
L 500 300 
L 500 0 
L 0 0 
z
" style="fill:#ffffff;"/>
  </g>
  <g id="axes_1">
   <g id="patch_2">
    <path d="M 62.5 262.5 
L 450 262.5 
L 450 27 
L 62.5 27 
z
" style="fill:#ffffff;"/>
   </g>
   <g id="matplotlib.axis_1">
    <g id="xtick_1">
     <g id="line2d_1">
      <defs>
       <path d="M 0 0 
L 0 3.5 
" id="m881e441468" style="stroke:#555555;stroke-width:0.8;"/>
      </defs>
      <g>
       <use style="fill:#555555;stroke:#555555;stroke-width:0.8;" x="62.5" xlink:href="#m881e441468" y="262.5"/>
      </g>
     </g>
    </g>
    <g id="xtick_2">
     <g id="line2d_2">
      <g>
       <use style="fill:#555555;stroke:#555555;stroke-width:0.8;" x="64.293981" xlink:href="#m881e441468" y="262.5"/>
      </g>
     </g>
     <g id="text_1">
      <!-- Apr -->
      <g style="fill:#555555;" transform="translate(56.42445 276.640625)scale(0.1 -0.1)">
       <defs>
        <path d="M 20.09375 29.5 
L 32.203125 62.796875 
L 32.40625 62.796875 
L 44.296875 29.5 
z
M 27.203125 71.40625 
L -0.59375 0 
L 9.09375 0 
L 17.09375 21.5 
L 47.296875 21.5 
L 55.09375 0 
L 65.59375 0 
L 37.703125 71.40625 
z
" id="HelveticaNeue-65"/>
        <path d="M 6.703125 51.703125 
L 6.703125 -19.703125 
L 15.203125 -19.703125 
L 15.203125 6.90625 
L 15.40625 6.90625 
Q 16.796875 4.59375 18.84375 3.046875 
Q 20.90625 1.5 23.203125 0.59375 
Q 25.5 -0.296875 27.84375 -0.6875 
Q 30.203125 -1.09375 32.09375 -1.09375 
Q 38 -1.09375 42.453125 1 
Q 46.90625 3.09375 49.84375 6.75 
Q 52.796875 10.40625 54.25 15.296875 
Q 55.703125 20.203125 55.703125 25.703125 
Q 55.703125 31.203125 54.203125 36.09375 
Q 52.703125 41 49.75 44.75 
Q 46.796875 48.5 42.34375 50.703125 
Q 37.90625 52.90625 31.90625 52.90625 
Q 26.5 52.90625 22 50.953125 
Q 17.5 49 15.40625 44.703125 
L 15.203125 44.703125 
L 15.203125 51.703125 
z
M 46.703125 26.296875 
Q 46.703125 22.5 45.890625 18.890625 
Q 45.09375 15.296875 43.296875 12.5 
Q 41.5 9.703125 38.546875 8 
Q 35.59375 6.296875 31.203125 6.296875 
Q 26.796875 6.296875 23.6875 7.9375 
Q 20.59375 9.59375 18.640625 12.296875 
Q 16.703125 15 15.796875 18.546875 
Q 14.90625 22.09375 14.90625 25.90625 
Q 14.90625 29.5 15.75 33 
Q 16.59375 36.5 18.5 39.25 
Q 20.40625 42 23.40625 43.703125 
Q 26.40625 45.40625 30.703125 45.40625 
Q 34.796875 45.40625 37.84375 43.796875 
Q 40.90625 42.203125 42.84375 39.5 
Q 44.796875 36.796875 45.75 33.34375 
Q 46.703125 29.90625 46.703125 26.296875 
z
" id="HelveticaNeue-112"/>
        <path d="M 6.09375 51.703125 
L 6.09375 0 
L 14.59375 0 
L 14.59375 23 
Q 14.59375 28 15.59375 31.84375 
Q 16.59375 35.703125 18.796875 38.390625 
Q 21 41.09375 24.59375 42.5 
Q 28.203125 43.90625 33.296875 43.90625 
L 33.296875 52.90625 
Q 26.40625 53.09375 21.90625 50.09375 
Q 17.40625 47.09375 14.296875 40.796875 
L 14.09375 40.796875 
L 14.09375 51.703125 
z
" id="HelveticaNeue-114"/>
       </defs>
       <use xlink:href="#HelveticaNeue-65"/>
       <use x="64.799988" xlink:href="#HelveticaNeue-112"/>
       <use x="124.099976" xlink:href="#HelveticaNeue-114"/>
      </g>
     </g>
    </g>
    <g id="xtick_3">
     <g id="line2d_3">
      <g>
       <use style="fill:#555555;stroke:#555555;stroke-width:0.8;" x="145.920139" xlink:href="#m881e441468" y="262.5"/>
      </g>
     </g>
     <g id="text_2">
      <!-- Jul -->
      <g style="fill:#555555;" transform="translate(139.434983 276.640625)scale(0.1 -0.1)">
       <defs>
        <path d="M 44.09375 17.796875 
L 44.09375 71.40625 
L 34.59375 71.40625 
L 34.59375 19.203125 
Q 34.59375 13.296875 32.140625 9.796875 
Q 29.703125 6.296875 23.203125 6.296875 
Q 19.703125 6.296875 17.453125 7.34375 
Q 15.203125 8.40625 13.953125 10.296875 
Q 12.703125 12.203125 12.203125 14.796875 
Q 11.703125 17.40625 11.703125 20.5 
L 11.703125 23.5 
L 2.203125 23.5 
L 2.203125 19.09375 
Q 2.203125 8.90625 7.59375 3.65625 
Q 13 -1.59375 23 -1.59375 
Q 29 -1.59375 33.046875 0.046875 
Q 37.09375 1.703125 39.546875 4.453125 
Q 42 7.203125 43.046875 10.703125 
Q 44.09375 14.203125 44.09375 17.796875 
z
" id="HelveticaNeue-74"/>
        <path d="M 49.203125 0 
L 49.203125 51.703125 
L 40.703125 51.703125 
L 40.703125 22.5 
Q 40.703125 19 39.75 16.046875 
Q 38.796875 13.09375 36.890625 10.890625 
Q 35 8.703125 32.140625 7.5 
Q 29.296875 6.296875 25.40625 6.296875 
Q 20.5 6.296875 17.703125 9.09375 
Q 14.90625 11.90625 14.90625 16.703125 
L 14.90625 51.703125 
L 6.40625 51.703125 
L 6.40625 17.703125 
Q 6.40625 13.5 7.25 10.046875 
Q 8.09375 6.59375 10.1875 4.09375 
Q 12.296875 1.59375 15.6875 0.25 
Q 19.09375 -1.09375 24.203125 -1.09375 
Q 29.90625 -1.09375 34.09375 1.15625 
Q 38.296875 3.40625 41 8.203125 
L 41.203125 8.203125 
L 41.203125 0 
z
" id="HelveticaNeue-117"/>
        <path d="M 6.90625 71.40625 
L 6.90625 0 
L 15.40625 0 
L 15.40625 71.40625 
z
" id="HelveticaNeue-108"/>
       </defs>
       <use xlink:href="#HelveticaNeue-74"/>
       <use x="51.899994" xlink:href="#HelveticaNeue-117"/>
       <use x="107.499985" xlink:href="#HelveticaNeue-108"/>
      </g>
     </g>
    </g>
    <g id="xtick_4">
     <g id="line2d_4">
      <g>
       <use style="fill:#555555;stroke:#555555;stroke-width:0.8;" x="228.443287" xlink:href="#m881e441468" y="262.5"/>
      </g>
     </g>
     <g id="text_3">
      <!-- Oct -->
      <g style="fill:#555555;" transform="translate(220.383131 276.640625)scale(0.1 -0.1)">
       <defs>
        <path d="M 13.296875 35.703125 
Q 13.296875 41.09375 14.6875 46.34375 
Q 16.09375 51.59375 19.09375 55.796875 
Q 22.09375 60 26.796875 62.546875 
Q 31.5 65.09375 38 65.09375 
Q 44.5 65.09375 49.203125 62.546875 
Q 53.90625 60 56.90625 55.796875 
Q 59.90625 51.59375 61.296875 46.34375 
Q 62.703125 41.09375 62.703125 35.703125 
Q 62.703125 30.296875 61.296875 25.046875 
Q 59.90625 19.796875 56.90625 15.59375 
Q 53.90625 11.40625 49.203125 8.84375 
Q 44.5 6.296875 38 6.296875 
Q 31.5 6.296875 26.796875 8.84375 
Q 22.09375 11.40625 19.09375 15.59375 
Q 16.09375 19.796875 14.6875 25.046875 
Q 13.296875 30.296875 13.296875 35.703125 
z
M 3.796875 35.703125 
Q 3.796875 28.40625 5.9375 21.65625 
Q 8.09375 14.90625 12.390625 9.703125 
Q 16.703125 4.5 23.09375 1.453125 
Q 29.5 -1.59375 38 -1.59375 
Q 46.5 -1.59375 52.890625 1.453125 
Q 59.296875 4.5 63.59375 9.703125 
Q 67.90625 14.90625 70.046875 21.65625 
Q 72.203125 28.40625 72.203125 35.703125 
Q 72.203125 43 70.046875 49.75 
Q 67.90625 56.5 63.59375 61.703125 
Q 59.296875 66.90625 52.890625 70 
Q 46.5 73.09375 38 73.09375 
Q 29.5 73.09375 23.09375 70 
Q 16.703125 66.90625 12.390625 61.703125 
Q 8.09375 56.5 5.9375 49.75 
Q 3.796875 43 3.796875 35.703125 
z
" id="HelveticaNeue-79"/>
        <path d="M 41.5 35.09375 
L 50.296875 35.09375 
Q 49.796875 39.703125 47.890625 43.046875 
Q 46 46.40625 43.046875 48.59375 
Q 40.09375 50.796875 36.25 51.84375 
Q 32.40625 52.90625 28 52.90625 
Q 21.90625 52.90625 17.296875 50.75 
Q 12.703125 48.59375 9.640625 44.84375 
Q 6.59375 41.09375 5.09375 36.046875 
Q 3.59375 31 3.59375 25.203125 
Q 3.59375 19.40625 5.140625 14.546875 
Q 6.703125 9.703125 9.75 6.203125 
Q 12.796875 2.703125 17.34375 0.796875 
Q 21.90625 -1.09375 27.796875 -1.09375 
Q 37.703125 -1.09375 43.453125 4.09375 
Q 49.203125 9.296875 50.59375 18.90625 
L 41.90625 18.90625 
Q 41.09375 12.90625 37.546875 9.59375 
Q 34 6.296875 27.703125 6.296875 
Q 23.703125 6.296875 20.796875 7.890625 
Q 17.90625 9.5 16.09375 12.140625 
Q 14.296875 14.796875 13.4375 18.1875 
Q 12.59375 21.59375 12.59375 25.203125 
Q 12.59375 29.09375 13.390625 32.75 
Q 14.203125 36.40625 16.046875 39.203125 
Q 17.90625 42 21 43.703125 
Q 24.09375 45.40625 28.703125 45.40625 
Q 34.09375 45.40625 37.296875 42.703125 
Q 40.5 40 41.5 35.09375 
z
" id="HelveticaNeue-99"/>
        <path d="M 18.203125 51.703125 
L 18.203125 67.203125 
L 9.703125 67.203125 
L 9.703125 51.703125 
L 0.90625 51.703125 
L 0.90625 44.203125 
L 9.703125 44.203125 
L 9.703125 11.296875 
Q 9.703125 7.703125 10.390625 5.5 
Q 11.09375 3.296875 12.546875 2.09375 
Q 14 0.90625 16.34375 0.453125 
Q 18.703125 0 22 0 
L 28.5 0 
L 28.5 7.5 
L 24.59375 7.5 
Q 22.59375 7.5 21.34375 7.640625 
Q 20.09375 7.796875 19.390625 8.296875 
Q 18.703125 8.796875 18.453125 9.6875 
Q 18.203125 10.59375 18.203125 12.09375 
L 18.203125 44.203125 
L 28.5 44.203125 
L 28.5 51.703125 
z
" id="HelveticaNeue-116"/>
       </defs>
       <use xlink:href="#HelveticaNeue-79"/>
       <use x="75.999985" xlink:href="#HelveticaNeue-99"/>
       <use x="129.699982" xlink:href="#HelveticaNeue-116"/>
      </g>
     </g>
    </g>
    <g id="xtick_5">
     <g id="line2d_5">
      <g>
       <use style="fill:#555555;stroke:#555555;stroke-width:0.8;" x="310.966435" xlink:href="#m881e441468" y="262.5"/>
      </g>
     </g>
     <g id="text_4">
      <!-- Jan -->
      <g style="fill:#555555;" transform="translate(302.906279 276.640625)scale(0.1 -0.1)">
       <defs>
        <path d="M 52.203125 0.203125 
Q 50 -1.09375 46.09375 -1.09375 
Q 42.796875 -1.09375 40.84375 0.75 
Q 38.90625 2.59375 38.90625 6.796875 
Q 35.40625 2.59375 30.75 0.75 
Q 26.09375 -1.09375 20.703125 -1.09375 
Q 17.203125 -1.09375 14.046875 -0.296875 
Q 10.90625 0.5 8.59375 2.203125 
Q 6.296875 3.90625 4.9375 6.65625 
Q 3.59375 9.40625 3.59375 13.296875 
Q 3.59375 17.703125 5.09375 20.5 
Q 6.59375 23.296875 9.046875 25.046875 
Q 11.5 26.796875 14.640625 27.6875 
Q 17.796875 28.59375 21.09375 29.203125 
Q 24.59375 29.90625 27.75 30.25 
Q 30.90625 30.59375 33.296875 31.25 
Q 35.703125 31.90625 37.09375 33.15625 
Q 38.5 34.40625 38.5 36.796875 
Q 38.5 39.59375 37.453125 41.296875 
Q 36.40625 43 34.75 43.890625 
Q 33.09375 44.796875 31.046875 45.09375 
Q 29 45.40625 27 45.40625 
Q 21.59375 45.40625 18 43.34375 
Q 14.40625 41.296875 14.09375 35.59375 
L 5.59375 35.59375 
Q 5.796875 40.40625 7.59375 43.703125 
Q 9.40625 47 12.40625 49.046875 
Q 15.40625 51.09375 19.25 52 
Q 23.09375 52.90625 27.5 52.90625 
Q 31 52.90625 34.453125 52.40625 
Q 37.90625 51.90625 40.703125 50.34375 
Q 43.5 48.796875 45.203125 46 
Q 46.90625 43.203125 46.90625 38.703125 
L 46.90625 12.09375 
Q 46.90625 9.09375 47.25 7.6875 
Q 47.59375 6.296875 49.59375 6.296875 
Q 50.703125 6.296875 52.203125 6.796875 
z
M 38.40625 26.703125 
Q 36.796875 25.5 34.1875 24.953125 
Q 31.59375 24.40625 28.75 24.046875 
Q 25.90625 23.703125 23 23.25 
Q 20.09375 22.796875 17.796875 21.796875 
Q 15.5 20.796875 14.046875 18.9375 
Q 12.59375 17.09375 12.59375 13.90625 
Q 12.59375 11.796875 13.4375 10.34375 
Q 14.296875 8.90625 15.640625 8 
Q 17 7.09375 18.796875 6.6875 
Q 20.59375 6.296875 22.59375 6.296875 
Q 26.796875 6.296875 29.796875 7.4375 
Q 32.796875 8.59375 34.6875 10.34375 
Q 36.59375 12.09375 37.5 14.140625 
Q 38.40625 16.203125 38.40625 18 
z
" id="HelveticaNeue-97"/>
        <path d="M 6.40625 51.703125 
L 6.40625 0 
L 14.90625 0 
L 14.90625 29.203125 
Q 14.90625 32.703125 15.84375 35.640625 
Q 16.796875 38.59375 18.6875 40.796875 
Q 20.59375 43 23.4375 44.203125 
Q 26.296875 45.40625 30.203125 45.40625 
Q 35.09375 45.40625 37.890625 42.59375 
Q 40.703125 39.796875 40.703125 35 
L 40.703125 0 
L 49.203125 0 
L 49.203125 34 
Q 49.203125 38.203125 48.34375 41.640625 
Q 47.5 45.09375 45.390625 47.59375 
Q 43.296875 50.09375 39.890625 51.5 
Q 36.5 52.90625 31.40625 52.90625 
Q 19.90625 52.90625 14.59375 43.5 
L 14.40625 43.5 
L 14.40625 51.703125 
z
" id="HelveticaNeue-110"/>
       </defs>
       <use xlink:href="#HelveticaNeue-74"/>
       <use x="51.899994" xlink:href="#HelveticaNeue-97"/>
       <use x="105.599991" xlink:href="#HelveticaNeue-110"/>
      </g>
      <!-- 2021 -->
      <g style="fill:#555555;" transform="translate(299.847685 287.179688)scale(0.1 -0.1)">
       <defs>
        <path d="M 4.40625 45.796875 
L 12.90625 45.796875 
Q 12.796875 49 13.546875 52.140625 
Q 14.296875 55.296875 16 57.796875 
Q 17.703125 60.296875 20.34375 61.84375 
Q 23 63.40625 26.703125 63.40625 
Q 29.5 63.40625 32 62.5 
Q 34.5 61.59375 36.34375 59.890625 
Q 38.203125 58.203125 39.296875 55.84375 
Q 40.40625 53.5 40.40625 50.59375 
Q 40.40625 46.90625 39.25 44.09375 
Q 38.09375 41.296875 35.84375 38.890625 
Q 33.59375 36.5 30.1875 34.140625 
Q 26.796875 31.796875 22.296875 29 
Q 18.59375 26.796875 15.1875 24.296875 
Q 11.796875 21.796875 9.09375 18.5 
Q 6.40625 15.203125 4.65625 10.75 
Q 2.90625 6.296875 2.40625 0 
L 48.703125 0 
L 48.703125 7.5 
L 12.296875 7.5 
Q 12.90625 10.796875 14.84375 13.34375 
Q 16.796875 15.90625 19.546875 18.09375 
Q 22.296875 20.296875 25.59375 22.25 
Q 28.90625 24.203125 32.203125 26.203125 
Q 35.5 28.296875 38.59375 30.59375 
Q 41.703125 32.90625 44.09375 35.75 
Q 46.5 38.59375 47.953125 42.1875 
Q 49.40625 45.796875 49.40625 50.5 
Q 49.40625 55.5 47.65625 59.296875 
Q 45.90625 63.09375 42.90625 65.640625 
Q 39.90625 68.203125 35.84375 69.546875 
Q 31.796875 70.90625 27.203125 70.90625 
Q 21.59375 70.90625 17.1875 69 
Q 12.796875 67.09375 9.84375 63.75 
Q 6.90625 60.40625 5.5 55.796875 
Q 4.09375 51.203125 4.40625 45.796875 
z
" id="HelveticaNeue-50"/>
        <path d="M 13.203125 34.90625 
Q 13.203125 37.5 13.25 40.640625 
Q 13.296875 43.796875 13.75 46.9375 
Q 14.203125 50.09375 15.046875 53.09375 
Q 15.90625 56.09375 17.546875 58.34375 
Q 19.203125 60.59375 21.703125 62 
Q 24.203125 63.40625 27.796875 63.40625 
Q 31.40625 63.40625 33.90625 62 
Q 36.40625 60.59375 38.046875 58.34375 
Q 39.703125 56.09375 40.546875 53.09375 
Q 41.40625 50.09375 41.84375 46.9375 
Q 42.296875 43.796875 42.34375 40.640625 
Q 42.40625 37.5 42.40625 34.90625 
Q 42.40625 30.90625 42.15625 25.953125 
Q 41.90625 21 40.546875 16.640625 
Q 39.203125 12.296875 36.203125 9.296875 
Q 33.203125 6.296875 27.796875 6.296875 
Q 22.40625 6.296875 19.40625 9.296875 
Q 16.40625 12.296875 15.046875 16.640625 
Q 13.703125 21 13.453125 25.953125 
Q 13.203125 30.90625 13.203125 34.90625 
z
M 4.203125 34.796875 
Q 4.203125 30.90625 4.390625 26.703125 
Q 4.59375 22.5 5.390625 18.5 
Q 6.203125 14.5 7.703125 10.953125 
Q 9.203125 7.40625 11.796875 4.703125 
Q 14.40625 2 18.34375 0.453125 
Q 22.296875 -1.09375 27.796875 -1.09375 
Q 33.40625 -1.09375 37.296875 0.453125 
Q 41.203125 2 43.796875 4.703125 
Q 46.40625 7.40625 47.90625 10.953125 
Q 49.40625 14.5 50.203125 18.5 
Q 51 22.5 51.203125 26.703125 
Q 51.40625 30.90625 51.40625 34.796875 
Q 51.40625 38.703125 51.203125 42.890625 
Q 51 47.09375 50.203125 51.09375 
Q 49.40625 55.09375 47.90625 58.6875 
Q 46.40625 62.296875 43.796875 65 
Q 41.203125 67.703125 37.25 69.296875 
Q 33.296875 70.90625 27.796875 70.90625 
Q 22.296875 70.90625 18.34375 69.296875 
Q 14.40625 67.703125 11.796875 65 
Q 9.203125 62.296875 7.703125 58.6875 
Q 6.203125 55.09375 5.390625 51.09375 
Q 4.59375 47.09375 4.390625 42.890625 
Q 4.203125 38.703125 4.203125 34.796875 
z
" id="HelveticaNeue-48"/>
        <path d="M 35.59375 0 
L 35.59375 70.90625 
L 29.09375 70.90625 
Q 28.40625 66.90625 26.5 64.296875 
Q 24.59375 61.703125 21.84375 60.203125 
Q 19.09375 58.703125 15.6875 58.140625 
Q 12.296875 57.59375 8.703125 57.59375 
L 8.703125 50.796875 
L 27.09375 50.796875 
L 27.09375 0 
z
" id="HelveticaNeue-49"/>
       </defs>
       <use xlink:href="#HelveticaNeue-50"/>
       <use x="55.599991" xlink:href="#HelveticaNeue-48"/>
       <use x="111.199982" xlink:href="#HelveticaNeue-50"/>
       <use x="166.799973" xlink:href="#HelveticaNeue-49"/>
      </g>
     </g>
    </g>
    <g id="xtick_6">
     <g id="line2d_6">
      <g>
       <use style="fill:#555555;stroke:#555555;stroke-width:0.8;" x="391.695602" xlink:href="#m881e441468" y="262.5"/>
      </g>
     </g>
     <g id="text_5">
      <!-- Apr -->
      <g style="fill:#555555;" transform="translate(383.826071 276.640625)scale(0.1 -0.1)">
       <use xlink:href="#HelveticaNeue-65"/>
       <use x="64.799988" xlink:href="#HelveticaNeue-112"/>
       <use x="124.099976" xlink:href="#HelveticaNeue-114"/>
      </g>
     </g>
    </g>
    <g id="xtick_7">
     <g id="line2d_7">
      <g>
       <use style="fill:#555555;stroke:#555555;stroke-width:0.8;" x="450" xlink:href="#m881e441468" y="262.5"/>
      </g>
     </g>
    </g>
    <g id="xtick_8">
     <g id="line2d_8">
      <defs>
       <path d="M 0 0 
L 0 2 
" id="m18c34c6f8e" style="stroke:#555555;stroke-width:0.6;"/>
      </defs>
      <g>
       <use style="fill:#555555;stroke:#555555;stroke-width:0.6;" x="91.203704" xlink:href="#m18c34c6f8e" y="262.5"/>
      </g>
     </g>
    </g>
    <g id="xtick_9">
     <g id="line2d_9">
      <g>
       <use style="fill:#555555;stroke:#555555;stroke-width:0.6;" x="119.010417" xlink:href="#m18c34c6f8e" y="262.5"/>
      </g>
     </g>
    </g>
    <g id="xtick_10">
     <g id="line2d_10">
      <g>
       <use style="fill:#555555;stroke:#555555;stroke-width:0.6;" x="173.726852" xlink:href="#m18c34c6f8e" y="262.5"/>
      </g>
     </g>
    </g>
    <g id="xtick_11">
     <g id="line2d_11">
      <g>
       <use style="fill:#555555;stroke:#555555;stroke-width:0.6;" x="201.533565" xlink:href="#m18c34c6f8e" y="262.5"/>
      </g>
     </g>
    </g>
    <g id="xtick_12">
     <g id="line2d_12">
      <g>
       <use style="fill:#555555;stroke:#555555;stroke-width:0.6;" x="256.25" xlink:href="#m18c34c6f8e" y="262.5"/>
      </g>
     </g>
    </g>
    <g id="xtick_13">
     <g id="line2d_13">
      <g>
       <use style="fill:#555555;stroke:#555555;stroke-width:0.6;" x="283.159722" xlink:href="#m18c34c6f8e" y="262.5"/>
      </g>
     </g>
    </g>
    <g id="xtick_14">
     <g id="line2d_14">
      <g>
       <use style="fill:#555555;stroke:#555555;stroke-width:0.6;" x="338.773148" xlink:href="#m18c34c6f8e" y="262.5"/>
      </g>
     </g>
    </g>
    <g id="xtick_15">
     <g id="line2d_15">
      <g>
       <use style="fill:#555555;stroke:#555555;stroke-width:0.6;" x="363.888889" xlink:href="#m18c34c6f8e" y="262.5"/>
      </g>
     </g>
    </g>
    <g id="xtick_16">
     <g id="line2d_16">
      <g>
       <use style="fill:#555555;stroke:#555555;stroke-width:0.6;" x="418.605324" xlink:href="#m18c34c6f8e" y="262.5"/>
      </g>
     </g>
    </g>
    <g id="xtick_17">
     <g id="line2d_17">
      <g>
       <use style="fill:#555555;stroke:#555555;stroke-width:0.6;" x="446.412037" xlink:href="#m18c34c6f8e" y="262.5"/>
      </g>
     </g>
    </g>
    <g id="text_6">
     <!-- fecha -->
     <g style="fill:#555555;" transform="translate(243.935156 300.290625)scale(0.1 -0.1)">
      <defs>
       <path d="M 9.90625 44.203125 
L 9.90625 0 
L 18.40625 0 
L 18.40625 44.203125 
L 28.40625 44.203125 
L 28.40625 51.703125 
L 18.40625 51.703125 
L 18.40625 58.90625 
Q 18.40625 62.296875 20.09375 63.5 
Q 21.796875 64.703125 24.90625 64.703125 
Q 26 64.703125 27.296875 64.546875 
Q 28.59375 64.40625 29.703125 64 
L 29.703125 71.40625 
Q 28.5 71.796875 26.953125 72 
Q 25.40625 72.203125 24.203125 72.203125 
Q 17.203125 72.203125 13.546875 68.953125 
Q 9.90625 65.703125 9.90625 59.40625 
L 9.90625 51.703125 
L 1.203125 51.703125 
L 1.203125 44.203125 
z
" id="HelveticaNeue-102"/>
       <path d="M 42.296875 30.796875 
L 12.59375 30.796875 
Q 12.796875 33.796875 13.890625 36.4375 
Q 15 39.09375 16.890625 41.09375 
Q 18.796875 43.09375 21.4375 44.25 
Q 24.09375 45.40625 27.40625 45.40625 
Q 30.59375 45.40625 33.25 44.25 
Q 35.90625 43.09375 37.84375 41.140625 
Q 39.796875 39.203125 40.9375 36.5 
Q 42.09375 33.796875 42.296875 30.796875 
z
M 50.5 16.40625 
L 42.09375 16.40625 
Q 41 11.296875 37.546875 8.796875 
Q 34.09375 6.296875 28.703125 6.296875 
Q 24.5 6.296875 21.390625 7.6875 
Q 18.296875 9.09375 16.296875 11.4375 
Q 14.296875 13.796875 13.390625 16.84375 
Q 12.5 19.90625 12.59375 23.296875 
L 51.296875 23.296875 
Q 51.5 28 50.453125 33.203125 
Q 49.40625 38.40625 46.65625 42.796875 
Q 43.90625 47.203125 39.34375 50.046875 
Q 34.796875 52.90625 27.90625 52.90625 
Q 22.59375 52.90625 18.140625 50.90625 
Q 13.703125 48.90625 10.453125 45.296875 
Q 7.203125 41.703125 5.390625 36.796875 
Q 3.59375 31.90625 3.59375 26 
Q 3.796875 20.09375 5.34375 15.09375 
Q 6.90625 10.09375 10 6.5 
Q 13.09375 2.90625 17.640625 0.90625 
Q 22.203125 -1.09375 28.40625 -1.09375 
Q 37.203125 -1.09375 43 3.296875 
Q 48.796875 7.703125 50.5 16.40625 
z
" id="HelveticaNeue-101"/>
       <path d="M 6.40625 71.40625 
L 6.40625 0 
L 14.90625 0 
L 14.90625 29.203125 
Q 14.90625 32.703125 15.84375 35.640625 
Q 16.796875 38.59375 18.6875 40.796875 
Q 20.59375 43 23.4375 44.203125 
Q 26.296875 45.40625 30.203125 45.40625 
Q 35.09375 45.40625 37.890625 42.59375 
Q 40.703125 39.796875 40.703125 35 
L 40.703125 0 
L 49.203125 0 
L 49.203125 34 
Q 49.203125 38.203125 48.34375 41.640625 
Q 47.5 45.09375 45.390625 47.59375 
Q 43.296875 50.09375 39.890625 51.5 
Q 36.5 52.90625 31.40625 52.90625 
Q 29.09375 52.90625 26.640625 52.40625 
Q 24.203125 51.90625 21.953125 50.84375 
Q 19.703125 49.796875 17.890625 48.140625 
Q 16.09375 46.5 15.09375 44.09375 
L 14.90625 44.09375 
L 14.90625 71.40625 
z
" id="HelveticaNeue-104"/>
      </defs>
      <use xlink:href="#HelveticaNeue-102"/>
      <use x="29.599991" xlink:href="#HelveticaNeue-101"/>
      <use x="83.299988" xlink:href="#HelveticaNeue-99"/>
      <use x="136.999985" xlink:href="#HelveticaNeue-104"/>
      <use x="192.599976" xlink:href="#HelveticaNeue-97"/>
     </g>
    </g>
   </g>
   <g id="matplotlib.axis_2">
    <g id="ytick_1">
     <g id="line2d_18">
      <defs>
       <path d="M 0 0 
L -3.5 0 
" id="m088939afb5" style="stroke:#555555;stroke-width:0.8;"/>
      </defs>
      <g>
       <use style="fill:#555555;stroke:#555555;stroke-width:0.8;" x="62.5" xlink:href="#m088939afb5" y="251.795455"/>
      </g>
     </g>
     <g id="text_7">
      <!-- 0 -->
      <g style="fill:#555555;" transform="translate(49.940625 255.365767)scale(0.1 -0.1)">
       <use xlink:href="#HelveticaNeue-48"/>
      </g>
     </g>
    </g>
    <g id="ytick_2">
     <g id="line2d_19">
      <g>
       <use style="fill:#555555;stroke:#555555;stroke-width:0.8;" x="62.5" xlink:href="#m088939afb5" y="218.447961"/>
      </g>
     </g>
     <g id="text_8">
      <!-- 50 -->
      <g style="fill:#555555;" transform="translate(44.38125 222.018273)scale(0.1 -0.1)">
       <defs>
        <path d="M 47 62.203125 
L 47 69.703125 
L 12 69.703125 
L 5.40625 32.90625 
L 12.703125 32.5 
Q 15.203125 35.5 18.453125 37.34375 
Q 21.703125 39.203125 25.90625 39.203125 
Q 29.5 39.203125 32.453125 38 
Q 35.40625 36.796875 37.5 34.640625 
Q 39.59375 32.5 40.75 29.546875 
Q 41.90625 26.59375 41.90625 23.09375 
Q 41.90625 18.90625 40.703125 15.75 
Q 39.5 12.59375 37.453125 10.5 
Q 35.40625 8.40625 32.65625 7.34375 
Q 29.90625 6.296875 26.90625 6.296875 
Q 23.703125 6.296875 21.046875 7.25 
Q 18.40625 8.203125 16.453125 9.953125 
Q 14.5 11.703125 13.34375 14.046875 
Q 12.203125 16.40625 12 19.09375 
L 3.5 19.09375 
Q 3.59375 14.296875 5.390625 10.5 
Q 7.203125 6.703125 10.296875 4.140625 
Q 13.40625 1.59375 17.453125 0.25 
Q 21.5 -1.09375 26.09375 -1.09375 
Q 32.296875 -1.09375 36.9375 0.84375 
Q 41.59375 2.796875 44.6875 6.09375 
Q 47.796875 9.40625 49.34375 13.65625 
Q 50.90625 17.90625 50.90625 22.40625 
Q 50.90625 28.5 49.09375 33.046875 
Q 47.296875 37.59375 44.1875 40.640625 
Q 41.09375 43.703125 36.890625 45.203125 
Q 32.703125 46.703125 28 46.703125 
Q 24.40625 46.703125 20.75 45.453125 
Q 17.09375 44.203125 14.796875 41.59375 
L 14.59375 41.796875 
L 18.40625 62.203125 
z
" id="HelveticaNeue-53"/>
       </defs>
       <use xlink:href="#HelveticaNeue-53"/>
       <use x="55.599991" xlink:href="#HelveticaNeue-48"/>
      </g>
     </g>
    </g>
    <g id="ytick_3">
     <g id="line2d_20">
      <g>
       <use style="fill:#555555;stroke:#555555;stroke-width:0.8;" x="62.5" xlink:href="#m088939afb5" y="185.100467"/>
      </g>
     </g>
     <g id="text_9">
      <!-- 100 -->
      <g style="fill:#555555;" transform="translate(38.821875 188.67078)scale(0.1 -0.1)">
       <use xlink:href="#HelveticaNeue-49"/>
       <use x="55.599991" xlink:href="#HelveticaNeue-48"/>
       <use x="111.199982" xlink:href="#HelveticaNeue-48"/>
      </g>
     </g>
    </g>
    <g id="ytick_4">
     <g id="line2d_21">
      <g>
       <use style="fill:#555555;stroke:#555555;stroke-width:0.8;" x="62.5" xlink:href="#m088939afb5" y="151.752974"/>
      </g>
     </g>
     <g id="text_10">
      <!-- 150 -->
      <g style="fill:#555555;" transform="translate(38.821875 155.323286)scale(0.1 -0.1)">
       <use xlink:href="#HelveticaNeue-49"/>
       <use x="55.599991" xlink:href="#HelveticaNeue-53"/>
       <use x="111.199982" xlink:href="#HelveticaNeue-48"/>
      </g>
     </g>
    </g>
    <g id="ytick_5">
     <g id="line2d_22">
      <g>
       <use style="fill:#555555;stroke:#555555;stroke-width:0.8;" x="62.5" xlink:href="#m088939afb5" y="118.40548"/>
      </g>
     </g>
     <g id="text_11">
      <!-- 200 -->
      <g style="fill:#555555;" transform="translate(38.821875 121.975793)scale(0.1 -0.1)">
       <use xlink:href="#HelveticaNeue-50"/>
       <use x="55.599991" xlink:href="#HelveticaNeue-48"/>
       <use x="111.199982" xlink:href="#HelveticaNeue-48"/>
      </g>
     </g>
    </g>
    <g id="ytick_6">
     <g id="line2d_23">
      <g>
       <use style="fill:#555555;stroke:#555555;stroke-width:0.8;" x="62.5" xlink:href="#m088939afb5" y="85.057986"/>
      </g>
     </g>
     <g id="text_12">
      <!-- 250 -->
      <g style="fill:#555555;" transform="translate(38.821875 88.628299)scale(0.1 -0.1)">
       <use xlink:href="#HelveticaNeue-50"/>
       <use x="55.599991" xlink:href="#HelveticaNeue-53"/>
       <use x="111.199982" xlink:href="#HelveticaNeue-48"/>
      </g>
     </g>
    </g>
    <g id="ytick_7">
     <g id="line2d_24">
      <g>
       <use style="fill:#555555;stroke:#555555;stroke-width:0.8;" x="62.5" xlink:href="#m088939afb5" y="51.710493"/>
      </g>
     </g>
     <g id="text_13">
      <!-- 300 -->
      <g style="fill:#555555;" transform="translate(38.821875 55.280805)scale(0.1 -0.1)">
       <defs>
        <path d="M 21.796875 40.5 
L 21.796875 33.296875 
Q 24.203125 33.59375 26.90625 33.59375 
Q 30.09375 33.59375 32.84375 32.75 
Q 35.59375 31.90625 37.59375 30.15625 
Q 39.59375 28.40625 40.796875 25.84375 
Q 42 23.296875 42 20 
Q 42 16.796875 40.75 14.25 
Q 39.5 11.703125 37.390625 9.953125 
Q 35.296875 8.203125 32.5 7.25 
Q 29.703125 6.296875 26.59375 6.296875 
Q 19.296875 6.296875 15.5 10.640625 
Q 11.703125 15 11.5 21.90625 
L 3 21.90625 
Q 2.90625 16.40625 4.546875 12.09375 
Q 6.203125 7.796875 9.296875 4.84375 
Q 12.40625 1.90625 16.796875 0.40625 
Q 21.203125 -1.09375 26.59375 -1.09375 
Q 31.59375 -1.09375 36.046875 0.25 
Q 40.5 1.59375 43.796875 4.296875 
Q 47.09375 7 49.046875 11.046875 
Q 51 15.09375 51 20.40625 
Q 51 26.796875 47.84375 31.5 
Q 44.703125 36.203125 38.203125 37.59375 
L 38.203125 37.796875 
Q 42.40625 39.703125 45.203125 43.390625 
Q 48 47.09375 48 51.90625 
Q 48 56.796875 46.34375 60.390625 
Q 44.703125 64 41.796875 66.296875 
Q 38.90625 68.59375 34.953125 69.75 
Q 31 70.90625 26.40625 70.90625 
Q 21.09375 70.90625 17.046875 69.203125 
Q 13 67.5 10.296875 64.5 
Q 7.59375 61.5 6.140625 57.296875 
Q 4.703125 53.09375 4.5 48 
L 13 48 
Q 13 51.09375 13.796875 53.890625 
Q 14.59375 56.703125 16.25 58.796875 
Q 17.90625 60.90625 20.453125 62.15625 
Q 23 63.40625 26.40625 63.40625 
Q 31.796875 63.40625 35.390625 60.546875 
Q 39 57.703125 39 52 
Q 39 49.203125 37.890625 47 
Q 36.796875 44.796875 34.9375 43.34375 
Q 33.09375 41.90625 30.640625 41.15625 
Q 28.203125 40.40625 25.5 40.40625 
L 23.703125 40.40625 
Q 23.203125 40.40625 22.703125 40.40625 
Q 22.296875 40.40625 21.796875 40.5 
z
" id="HelveticaNeue-51"/>
       </defs>
       <use xlink:href="#HelveticaNeue-51"/>
       <use x="55.599991" xlink:href="#HelveticaNeue-48"/>
       <use x="111.199982" xlink:href="#HelveticaNeue-48"/>
      </g>
     </g>
    </g>
   </g>
   <g id="line2d_25">
    <path clip-path="url(#pf9289f4ada)" d="M 63.396991 251.795455 
L 64.293981 251.795455 
L 65.190972 248.460705 
L 66.087963 249.794605 
L 66.984954 249.794605 
L 67.881944 251.795455 
L 68.778935 249.127655 
L 69.675926 249.127655 
L 70.572917 250.461555 
L 71.469907 249.794605 
L 72.366898 251.128505 
L 73.263889 251.795455 
L 74.16088 250.461555 
L 75.05787 249.794605 
L 75.954861 249.794605 
L 76.851852 250.461555 
L 77.748843 249.794605 
L 78.645833 251.128505 
L 79.542824 249.127655 
L 80.439815 250.461555 
L 81.336806 249.127655 
L 82.233796 251.128505 
L 83.130787 247.126805 
L 84.027778 247.793755 
L 84.924769 245.792906 
L 85.821759 247.793755 
L 86.71875 251.128505 
L 87.615741 247.126805 
L 88.512731 250.461555 
L 89.409722 247.793755 
L 90.306713 245.792906 
L 91.203704 237.789507 
L 92.100694 246.459856 
L 92.997685 249.127655 
L 93.894676 247.793755 
L 94.791667 250.461555 
L 95.688657 250.461555 
L 96.585648 237.122557 
L 97.482639 249.794605 
L 98.37963 249.127655 
L 99.27662 250.461555 
L 100.173611 249.794605 
L 101.070602 247.793755 
L 101.967593 249.794605 
L 102.864583 245.125956 
L 103.761574 243.792056 
L 104.658565 248.460705 
L 105.555556 245.125956 
L 106.452546 250.461555 
L 107.349537 243.792056 
L 108.246528 248.460705 
L 109.143519 248.460705 
L 110.040509 242.458156 
L 110.9375 249.794605 
L 111.834491 247.126805 
L 112.731481 239.123407 
L 113.628472 244.459006 
L 114.525463 241.791206 
L 115.422454 240.457307 
L 116.319444 245.125956 
L 117.216435 241.124257 
L 118.113426 246.459856 
L 119.010417 233.787808 
L 119.907407 235.121708 
L 121.701389 245.792906 
L 122.59838 245.125956 
L 123.49537 250.461555 
L 124.392361 247.126805 
L 125.289352 246.459856 
L 126.186343 235.121708 
L 127.083333 243.125106 
L 127.980324 239.123407 
L 128.877315 239.123407 
L 129.774306 244.459006 
L 130.671296 242.458156 
L 132.465278 234.454758 
L 133.362269 237.122557 
L 134.259259 207.776763 
L 135.15625 211.778462 
L 136.053241 208.443713 
L 136.950231 228.452209 
L 137.847222 210.444562 
L 138.744213 231.120008 
L 139.641204 207.776763 
L 140.538194 231.786958 
L 141.435185 221.11576 
L 143.229167 223.78356 
L 144.126157 227.118309 
L 145.023148 218.447961 
L 145.920139 213.112362 
L 146.81713 199.773364 
L 147.71412 226.451359 
L 148.611111 213.112362 
L 149.508102 222.44966 
L 150.405093 227.118309 
L 151.302083 212.445412 
L 152.199074 213.779312 
L 153.096065 189.102167 
L 153.993056 193.770816 
L 154.890046 181.765718 
L 156.684028 219.781861 
L 157.581019 207.776763 
L 158.478009 201.107264 
L 159.375 181.765718 
L 160.271991 179.764868 
L 161.168981 188.435217 
L 162.065972 195.771665 
L 162.962963 216.447111 
L 163.859954 164.425021 
L 164.756944 163.758071 
L 165.653935 181.765718 
L 166.550926 145.083475 
L 167.447917 164.425021 
L 168.344907 147.084325 
L 169.241898 144.416525 
L 170.138889 110.402082 
L 171.03588 123.074129 
L 171.93287 137.747026 
L 172.829861 97.730034 
L 173.726852 149.085174 
L 174.623843 173.09537 
L 175.520833 152.419924 
L 176.417824 99.730884 
L 177.314815 150.419074 
L 178.211806 182.432668 
L 180.005787 53.711342 
L 180.902778 185.767417 
L 181.799769 97.730034 
L 182.696759 145.750425 
L 183.59375 162.424172 
L 184.490741 73.719839 
L 185.387731 165.758921 
L 186.284722 137.080076 
L 187.181713 157.755523 
L 188.078704 141.081776 
L 188.975694 143.082625 
L 189.872685 121.740229 
L 190.769676 172.42842 
L 192.563657 118.40548 
L 193.460648 149.085174 
L 194.357639 167.759771 
L 195.25463 155.087723 
L 196.15162 201.774214 
L 197.048611 152.419924 
L 197.945602 191.103016 
L 198.842593 170.42757 
L 199.739583 203.775064 
L 200.636574 177.097069 
L 201.533565 197.772515 
L 202.430556 202.441164 
L 203.327546 171.09452 
L 204.224537 189.102167 
L 205.121528 201.774214 
L 206.018519 212.445412 
L 206.915509 187.101317 
L 207.8125 209.777613 
L 209.606481 187.101317 
L 210.503472 190.436066 
L 211.400463 219.781861 
L 212.297454 235.121708 
L 213.194444 204.442014 
L 214.091435 209.110663 
L 214.988426 186.434367 
L 215.885417 203.775064 
L 216.782407 199.106415 
L 217.679398 193.770816 
L 218.576389 209.777613 
L 219.47338 227.785259 
L 220.37037 217.781011 
L 221.267361 183.766568 
L 222.164352 201.107264 
L 223.061343 199.773364 
L 223.958333 218.447961 
L 224.855324 233.787808 
L 225.752315 203.108114 
L 226.649306 176.430119 
L 227.546296 222.44966 
L 228.443287 200.440314 
L 229.340278 189.769116 
L 230.237269 207.109813 
L 231.134259 213.779312 
L 232.03125 199.106415 
L 233.825231 195.104715 
L 234.722222 185.100467 
L 235.619213 223.78356 
L 236.516204 219.114911 
L 237.413194 225.78441 
L 238.310185 222.44966 
L 239.207176 231.786958 
L 240.104167 195.771665 
L 241.001157 175.096219 
L 241.898148 197.105565 
L 242.795139 183.099618 
L 243.69213 203.775064 
L 244.58912 204.442014 
L 245.486111 195.771665 
L 246.383102 197.105565 
L 247.280093 201.774214 
L 248.177083 179.764868 
L 249.074074 213.779312 
L 249.971065 211.778462 
L 250.868056 211.778462 
L 251.765046 177.764019 
L 252.662037 189.102167 
L 253.559028 184.433517 
L 254.456019 172.42842 
L 255.353009 188.435217 
L 256.25 217.781011 
L 257.146991 193.103866 
L 258.043981 210.444562 
L 258.940972 198.439465 
L 259.837963 215.780161 
L 260.734954 201.107264 
L 261.631944 203.775064 
L 262.528935 201.107264 
L 263.425926 221.11576 
L 264.322917 199.106415 
L 265.219907 204.442014 
L 266.116898 185.100467 
L 267.013889 212.445412 
L 267.91088 207.109813 
L 268.80787 223.11661 
L 269.704861 216.447111 
L 270.601852 189.102167 
L 271.498843 215.780161 
L 272.395833 192.436916 
L 273.292824 209.110663 
L 274.189815 209.777613 
L 275.086806 209.110663 
L 275.983796 188.435217 
L 276.880787 183.099618 
L 277.777778 190.436066 
L 278.674769 177.097069 
L 279.571759 185.100467 
L 280.46875 189.769116 
L 281.365741 221.78271 
L 282.262731 204.442014 
L 283.159722 180.431818 
L 284.056713 196.438615 
L 284.953704 216.447111 
L 285.850694 174.429269 
L 286.747685 187.101317 
L 287.644676 222.44966 
L 288.541667 170.42757 
L 289.438657 184.433517 
L 290.335648 183.766568 
L 291.232639 162.424172 
L 292.12963 181.098768 
L 293.02662 171.76147 
L 293.923611 186.434367 
L 294.820602 179.764868 
L 295.717593 157.088573 
L 296.614583 125.074979 
L 297.511574 170.42757 
L 298.408565 127.075828 
L 299.305556 161.090272 
L 300.202546 171.09452 
L 301.099537 155.087723 
L 301.996528 118.40548 
L 302.893519 119.07243 
L 303.790509 145.083475 
L 304.6875 204.442014 
L 305.584491 147.751274 
L 306.481481 148.418224 
L 307.378472 135.746177 
L 308.275463 111.069031 
L 309.172454 118.40548 
L 310.069444 145.750425 
L 310.966435 201.774214 
L 311.863426 157.755523 
L 312.760417 133.078377 
L 313.657407 167.759771 
L 314.554398 71.718989 
L 315.451389 113.069881 
L 316.34838 109.068182 
L 317.24537 138.413976 
L 318.142361 109.068182 
L 319.039352 177.764019 
L 319.936343 159.089422 
L 320.833333 84.391037 
L 321.730324 92.394435 
L 322.627315 97.730034 
L 323.524306 146.417375 
L 324.421296 131.077528 
L 325.318287 142.415675 
L 326.215278 149.752124 
L 327.112269 97.063084 
L 328.009259 168.42672 
L 328.90625 147.751274 
L 329.803241 152.419924 
L 330.700231 125.074979 
L 331.597222 179.764868 
L 332.494213 119.07243 
L 333.391204 182.432668 
L 334.288194 114.403781 
L 335.185185 163.758071 
L 336.082176 155.087723 
L 336.979167 197.105565 
L 337.876157 189.102167 
L 338.773148 179.764868 
L 339.670139 207.109813 
L 340.56713 203.108114 
L 341.46412 211.111512 
L 342.361111 215.780161 
L 343.258102 217.781011 
L 344.155093 226.451359 
L 345.052083 210.444562 
L 345.949074 213.779312 
L 346.846065 222.44966 
L 347.743056 211.111512 
L 348.640046 215.113212 
L 349.537037 229.786109 
L 350.434028 228.452209 
L 351.331019 236.455607 
L 352.228009 212.445412 
L 353.125 219.114911 
L 354.021991 231.120008 
L 354.918981 230.453059 
L 355.815972 231.786958 
L 356.712963 241.791206 
L 357.609954 233.787808 
L 358.506944 230.453059 
L 359.403935 231.786958 
L 360.300926 231.120008 
L 361.197917 241.791206 
L 362.094907 243.125106 
L 362.991898 238.456457 
L 363.888889 240.457307 
L 364.78588 230.453059 
L 365.68287 233.120858 
L 366.579861 231.120008 
L 367.476852 237.789507 
L 368.373843 238.456457 
L 369.270833 241.124257 
L 370.167824 236.455607 
L 371.064815 241.791206 
L 371.961806 230.453059 
L 372.858796 233.787808 
L 373.755787 235.121708 
L 374.652778 238.456457 
L 375.549769 233.787808 
L 376.446759 234.454758 
L 377.34375 230.453059 
L 378.240741 221.11576 
L 379.137731 210.444562 
L 380.034722 222.44966 
L 380.931713 237.122557 
L 381.828704 231.786958 
L 382.725694 240.457307 
L 383.622685 221.78271 
L 384.519676 222.44966 
L 385.416667 217.114061 
L 386.313657 206.442863 
L 387.210648 204.442014 
L 388.107639 235.121708 
L 389.00463 216.447111 
L 389.90162 203.775064 
L 390.798611 210.444562 
L 391.695602 222.44966 
L 392.592593 206.442863 
L 393.489583 218.447961 
L 394.386574 212.445412 
L 395.283565 191.769966 
L 396.180556 199.106415 
L 397.077546 185.100467 
L 397.974537 195.771665 
L 398.871528 182.432668 
L 399.768519 176.430119 
L 400.665509 145.083475 
L 401.5625 133.745327 
L 402.459491 161.757222 
L 403.356481 116.40463 
L 404.253472 155.754673 
L 405.150463 115.737681 
L 406.047454 148.418224 
L 406.944444 201.774214 
L 407.841435 159.089422 
L 408.738426 83.057137 
L 409.635417 143.749575 
L 410.532407 127.075828 
L 411.429398 129.743628 
L 412.326389 159.089422 
L 413.22338 181.098768 
L 415.017361 91.060535 
L 415.914352 157.755523 
L 416.811343 145.083475 
L 417.708333 91.727485 
L 419.502315 183.099618 
L 420.399306 114.403781 
L 421.296296 131.744477 
L 422.193287 170.42757 
L 423.090278 91.727485 
L 423.987269 103.065633 
L 424.884259 172.42842 
L 425.78125 165.758921 
L 426.678241 142.415675 
L 427.575231 77.054588 
L 428.472222 145.750425 
L 429.369213 123.741079 
L 430.266204 156.421623 
L 431.163194 159.089422 
L 432.060185 187.768267 
L 432.957176 150.419074 
L 433.854167 138.413976 
L 434.751157 134.412277 
L 435.648148 112.402931 
L 436.545139 100.397833 
L 437.44213 134.412277 
L 438.33912 106.400382 
L 439.236111 69.718139 
L 440.133102 43.040144 
L 441.030093 60.380841 
L 441.927083 99.063934 
L 442.824074 80.389337 
L 443.721065 37.704545 
L 444.618056 133.078377 
L 445.515046 109.735132 
L 446.412037 77.721538 
L 447.309028 95.729184 
L 448.206019 42.373195 
L 450 221.78271 
L 450 221.78271 
" style="fill:none;stroke:#000000;stroke-dasharray:1.5,2.475;stroke-dashoffset:0;stroke-opacity:0.5;stroke-width:1.5;"/>
   </g>
   <g id="line2d_26">
    <path clip-path="url(#pf9289f4ada)" d="M 62.5 251.128505 
L 63.396991 250.461555 
L 66.087963 250.461555 
L 66.984954 249.794605 
L 69.675926 249.794605 
L 70.572917 250.461555 
L 75.954861 250.461555 
L 76.851852 249.794605 
L 78.645833 249.794605 
L 79.542824 250.461555 
L 80.439815 249.794605 
L 81.336806 249.794605 
L 82.233796 248.460705 
L 84.027778 248.460705 
L 84.924769 247.793755 
L 85.821759 248.460705 
L 87.615741 248.460705 
L 88.512731 247.126805 
L 90.306713 245.792906 
L 92.100694 245.792906 
L 92.997685 247.126805 
L 93.894676 246.459856 
L 94.791667 247.793755 
L 98.37963 247.793755 
L 100.173611 249.127655 
L 102.864583 247.126805 
L 103.761574 247.126805 
L 104.658565 246.459856 
L 105.555556 246.459856 
L 106.452546 247.126805 
L 109.143519 247.126805 
L 110.040509 245.792906 
L 110.9375 245.792906 
L 111.834491 244.459006 
L 112.731481 243.792056 
L 113.628472 243.792056 
L 114.525463 242.458156 
L 116.319444 242.458156 
L 117.216435 241.124257 
L 118.113426 240.457307 
L 119.907407 240.457307 
L 121.701389 243.125106 
L 122.59838 245.125956 
L 124.392361 245.125956 
L 126.186343 242.458156 
L 128.877315 240.457307 
L 129.774306 240.457307 
L 130.671296 239.790357 
L 132.465278 231.786958 
L 133.362269 225.78441 
L 134.259259 222.44966 
L 135.15625 218.447961 
L 136.053241 217.781011 
L 136.950231 215.780161 
L 137.847222 218.447961 
L 138.744213 219.781861 
L 139.641204 221.78271 
L 140.538194 221.78271 
L 141.435185 223.11661 
L 142.332176 222.44966 
L 143.229167 222.44966 
L 144.126157 219.114911 
L 145.023148 218.447961 
L 145.920139 216.447111 
L 147.71412 216.447111 
L 149.508102 217.781011 
L 150.405093 215.780161 
L 151.302083 211.111512 
L 152.199074 205.775913 
L 153.096065 201.774214 
L 153.993056 199.773364 
L 154.890046 199.106415 
L 155.787037 199.773364 
L 156.684028 199.773364 
L 158.478009 197.105565 
L 159.375 194.437766 
L 160.271991 193.770816 
L 161.168981 189.769116 
L 162.065972 186.434367 
L 162.962963 185.767417 
L 164.756944 175.096219 
L 165.653935 167.759771 
L 166.550926 159.089422 
L 170.138889 131.744477 
L 171.03588 128.409728 
L 171.93287 131.077528 
L 172.829861 134.412277 
L 173.726852 135.746177 
L 174.623843 138.413976 
L 175.520833 143.749575 
L 176.417824 145.750425 
L 177.314815 135.079227 
L 178.211806 134.412277 
L 179.108796 128.409728 
L 180.005787 130.410578 
L 180.902778 131.744477 
L 181.799769 123.074129 
L 182.696759 128.409728 
L 183.59375 136.413127 
L 184.490741 134.412277 
L 185.387731 139.080926 
L 186.284722 140.414826 
L 187.181713 137.747026 
L 188.078704 147.084325 
L 189.872685 143.082625 
L 190.769676 141.748726 
L 191.666667 144.416525 
L 192.563657 146.417375 
L 193.460648 155.087723 
L 194.357639 156.421623 
L 196.15162 170.42757 
L 197.048611 177.097069 
L 197.945602 179.097918 
L 198.842593 183.766568 
L 199.739583 185.767417 
L 200.636574 188.435217 
L 201.533565 188.435217 
L 202.430556 191.103016 
L 204.224537 193.770816 
L 205.121528 195.771665 
L 206.018519 197.105565 
L 206.915509 199.106415 
L 207.8125 198.439465 
L 208.709491 199.106415 
L 210.503472 205.775913 
L 211.400463 207.109813 
L 212.297454 207.109813 
L 213.194444 208.443713 
L 214.091435 207.776763 
L 214.988426 203.108114 
L 215.885417 200.440314 
L 216.782407 203.108114 
L 217.679398 205.108963 
L 218.576389 206.442863 
L 219.47338 206.442863 
L 220.37037 205.775913 
L 221.267361 207.109813 
L 222.164352 209.110663 
L 223.061343 207.776763 
L 223.958333 205.108963 
L 224.855324 208.443713 
L 225.752315 207.776763 
L 228.443287 201.774214 
L 229.340278 201.774214 
L 230.237269 203.775064 
L 231.134259 201.107264 
L 232.03125 199.106415 
L 232.928241 201.774214 
L 233.825231 203.108114 
L 234.722222 205.108963 
L 235.619213 209.777613 
L 236.516204 215.780161 
L 237.413194 217.114061 
L 238.310185 215.780161 
L 239.207176 210.444562 
L 240.104167 203.775064 
L 241.001157 199.106415 
L 241.898148 196.438615 
L 242.795139 193.103866 
L 243.69213 194.437766 
L 244.58912 197.772515 
L 245.486111 196.438615 
L 246.383102 198.439465 
L 248.177083 201.107264 
L 249.074074 200.440314 
L 249.971065 199.106415 
L 250.868056 197.105565 
L 251.765046 194.437766 
L 252.662037 189.769116 
L 254.456019 188.435217 
L 255.353009 193.103866 
L 256.25 195.771665 
L 257.146991 200.440314 
L 258.043981 203.775064 
L 258.940972 205.775913 
L 259.837963 203.775064 
L 260.734954 206.442863 
L 261.631944 205.775913 
L 262.528935 206.442863 
L 263.425926 203.108114 
L 264.322917 203.775064 
L 265.219907 203.775064 
L 266.116898 205.775913 
L 267.013889 206.442863 
L 267.91088 206.442863 
L 268.80787 208.443713 
L 269.704861 208.443713 
L 270.601852 207.109813 
L 271.498843 207.109813 
L 273.292824 203.108114 
L 274.189815 201.774214 
L 275.983796 195.104715 
L 276.880787 191.103016 
L 277.777778 187.768267 
L 278.674769 189.102167 
L 279.571759 192.436916 
L 281.365741 195.104715 
L 282.262731 199.106415 
L 283.159722 198.439465 
L 284.056713 197.105565 
L 284.953704 196.438615 
L 285.850694 193.770816 
L 286.747685 193.103866 
L 287.644676 191.103016 
L 288.541667 185.100467 
L 289.438657 184.433517 
L 290.335648 181.098768 
L 291.232639 177.097069 
L 292.12963 177.764019 
L 293.02662 175.096219 
L 293.923611 169.09367 
L 294.820602 167.759771 
L 295.717593 159.756372 
L 296.614583 156.421623 
L 297.511574 153.753823 
L 298.408565 151.752974 
L 299.305556 149.085174 
L 300.202546 147.751274 
L 301.099537 143.082625 
L 301.996528 149.085174 
L 302.893519 149.085174 
L 303.790509 148.418224 
L 304.6875 149.085174 
L 305.584491 148.418224 
L 306.481481 145.083475 
L 307.378472 141.081776 
L 308.275463 139.747876 
L 309.172454 143.082625 
L 310.069444 145.083475 
L 310.966435 150.419074 
L 311.863426 147.084325 
L 312.760417 143.082625 
L 313.657407 134.412277 
L 314.554398 124.408029 
L 315.451389 118.40548 
L 316.34838 123.074129 
L 317.24537 125.741929 
L 318.142361 130.410578 
L 319.039352 128.409728 
L 319.936343 124.408029 
L 320.833333 122.407179 
L 321.730324 122.407179 
L 322.627315 119.07243 
L 323.524306 121.740229 
L 324.421296 125.741929 
L 325.318287 133.745327 
L 326.215278 139.080926 
L 327.112269 140.414826 
L 328.009259 141.081776 
L 328.90625 145.083475 
L 329.803241 143.749575 
L 330.700231 151.752974 
L 331.597222 147.084325 
L 332.494213 148.418224 
L 333.391204 148.418224 
L 334.288194 155.754673 
L 335.185185 159.089422 
L 336.082176 167.759771 
L 336.979167 173.762319 
L 337.876157 185.100467 
L 339.670139 199.773364 
L 340.56713 203.775064 
L 342.361111 213.779312 
L 343.258102 215.113212 
L 344.155093 217.114061 
L 345.052083 217.114061 
L 345.949074 216.447111 
L 346.846065 217.781011 
L 347.743056 218.447961 
L 348.640046 221.78271 
L 349.537037 223.11661 
L 350.434028 223.11661 
L 351.331019 225.11746 
L 352.228009 226.451359 
L 353.125 226.451359 
L 354.021991 228.452209 
L 354.918981 229.119159 
L 355.815972 231.786958 
L 356.712963 233.120858 
L 357.609954 233.120858 
L 358.506944 234.454758 
L 360.300926 235.788658 
L 361.197917 237.122557 
L 362.094907 237.789507 
L 362.991898 237.789507 
L 363.888889 237.122557 
L 364.78588 235.788658 
L 365.68287 235.121708 
L 366.579861 235.788658 
L 367.476852 235.788658 
L 368.373843 237.122557 
L 370.167824 237.122557 
L 371.064815 236.455607 
L 371.961806 236.455607 
L 374.652778 234.454758 
L 375.549769 233.120858 
L 376.446759 229.786109 
L 377.34375 227.118309 
L 378.240741 225.78441 
L 379.137731 225.78441 
L 380.931713 227.118309 
L 381.828704 228.452209 
L 382.725694 228.452209 
L 383.622685 225.78441 
L 384.519676 221.11576 
L 385.416667 219.781861 
L 386.313657 217.114061 
L 387.210648 215.113212 
L 388.107639 213.779312 
L 389.00463 214.446262 
L 389.90162 214.446262 
L 390.798611 215.113212 
L 391.695602 213.112362 
L 392.592593 210.444562 
L 393.489583 209.110663 
L 394.386574 205.775913 
L 395.283565 201.107264 
L 396.180556 197.105565 
L 397.077546 191.769966 
L 399.768519 168.42672 
L 400.665509 158.422472 
L 402.459491 143.082625 
L 403.356481 139.080926 
L 404.253472 145.083475 
L 405.150463 149.752124 
L 406.047454 143.749575 
L 406.944444 145.750425 
L 407.841435 141.748726 
L 410.532407 137.747026 
L 411.429398 139.080926 
L 412.326389 141.081776 
L 414.12037 142.415675 
L 415.914352 132.411427 
L 417.708333 132.411427 
L 418.605324 136.413127 
L 419.502315 138.413976 
L 420.399306 134.412277 
L 421.296296 134.412277 
L 422.193287 135.079227 
L 423.090278 133.745327 
L 423.987269 138.413976 
L 424.884259 133.745327 
L 425.78125 131.744477 
L 426.678241 133.745327 
L 427.575231 137.080076 
L 428.472222 135.079227 
L 429.369213 139.747876 
L 430.266204 145.083475 
L 431.163194 153.753823 
L 432.060185 153.086873 
L 432.957176 150.419074 
L 433.854167 141.081776 
L 434.751157 134.412277 
L 436.545139 114.403781 
L 438.33912 91.060535 
L 440.133102 81.056287 
L 441.030093 70.385089 
L 441.927083 73.719839 
L 442.824074 80.389337 
L 444.618056 90.393585 
L 445.515046 85.724936 
L 446.412037 90.393585 
L 447.309028 108.401232 
L 448.206019 110.402082 
L 449.103009 117.73853 
L 450 131.077528 
L 450 131.077528 
" style="fill:none;stroke:#b3220f;stroke-linecap:square;stroke-width:1.5;"/>
   </g>
   <g id="patch_3">
    <path d="M 62.5 262.5 
L 62.5 27 
" style="fill:none;stroke:#555555;stroke-linecap:square;stroke-linejoin:miter;"/>
   </g>
   <g id="patch_4">
    <path d="M 62.5 262.5 
L 450 262.5 
" style="fill:none;stroke:#555555;stroke-linecap:square;stroke-linejoin:miter;"/>
   </g>
   <g id="text_14">
    <!-- Puente Aranda | Casos nuevos: 2021-06-05 -->
    <g style="fill:#555555;" transform="translate(119.579375 17)scale(0.14 -0.14)">
     <defs>
      <path d="M 17.296875 37.203125 
L 17.296875 63.40625 
L 35.90625 63.40625 
Q 44 63.40625 47.75 60.046875 
Q 51.5 56.703125 51.5 50.296875 
Q 51.5 43.90625 47.75 40.5 
Q 44 37.09375 35.90625 37.203125 
z
M 7.796875 71.40625 
L 7.796875 0 
L 17.296875 0 
L 17.296875 29.203125 
L 39.09375 29.203125 
Q 49.90625 29.09375 55.453125 34.6875 
Q 61 40.296875 61 50.296875 
Q 61 60.296875 55.453125 65.84375 
Q 49.90625 71.40625 39.09375 71.40625 
z
" id="HelveticaNeue-80"/>
      <path id="HelveticaNeue-32"/>
      <path d="M 12.59375 25.40625 
Q 12.59375 29.203125 13.390625 32.796875 
Q 14.203125 36.40625 16 39.203125 
Q 17.796875 42 20.796875 43.703125 
Q 23.796875 45.40625 28.09375 45.40625 
Q 32.5 45.40625 35.59375 43.75 
Q 38.703125 42.09375 40.640625 39.390625 
Q 42.59375 36.703125 43.5 33.140625 
Q 44.40625 29.59375 44.40625 25.796875 
Q 44.40625 22.203125 43.546875 18.703125 
Q 42.703125 15.203125 40.796875 12.453125 
Q 38.90625 9.703125 35.90625 8 
Q 32.90625 6.296875 28.59375 6.296875 
Q 24.5 6.296875 21.453125 7.890625 
Q 18.40625 9.5 16.453125 12.203125 
Q 14.5 14.90625 13.546875 18.34375 
Q 12.59375 21.796875 12.59375 25.40625 
z
M 52.59375 0 
L 52.59375 71.40625 
L 44.09375 71.40625 
L 44.09375 44.796875 
L 43.90625 44.796875 
Q 42.5 47.09375 40.453125 48.640625 
Q 38.40625 50.203125 36.09375 51.140625 
Q 33.796875 52.09375 31.5 52.5 
Q 29.203125 52.90625 27.203125 52.90625 
Q 21.296875 52.90625 16.84375 50.75 
Q 12.40625 48.59375 9.453125 44.9375 
Q 6.5 41.296875 5.046875 36.390625 
Q 3.59375 31.5 3.59375 26 
Q 3.59375 20.5 5.09375 15.59375 
Q 6.59375 10.703125 9.546875 7 
Q 12.5 3.296875 16.953125 1.09375 
Q 21.40625 -1.09375 27.40625 -1.09375 
Q 32.796875 -1.09375 37.296875 0.796875 
Q 41.796875 2.703125 43.90625 7 
L 44.09375 7 
L 44.09375 0 
z
" id="HelveticaNeue-100"/>
      <path d="M 7.703125 78.59375 
L 7.703125 -21.296875 
L 14.5 -21.296875 
L 14.5 78.59375 
z
" id="HelveticaNeue-124"/>
      <path d="M 58 49.90625 
L 67.5 49.90625 
Q 66.703125 55.59375 64.09375 59.9375 
Q 61.5 64.296875 57.59375 67.1875 
Q 53.703125 70.09375 48.703125 71.59375 
Q 43.703125 73.09375 38.09375 73.09375 
Q 29.90625 73.09375 23.546875 70.140625 
Q 17.203125 67.203125 12.953125 62.09375 
Q 8.703125 57 6.5 50.140625 
Q 4.296875 43.296875 4.296875 35.5 
Q 4.296875 27.703125 6.34375 20.890625 
Q 8.40625 14.09375 12.5 9.09375 
Q 16.59375 4.09375 22.796875 1.25 
Q 29 -1.59375 37.296875 -1.59375 
Q 51 -1.59375 58.890625 5.90625 
Q 66.796875 13.40625 68.203125 26.90625 
L 58.703125 26.90625 
Q 58.40625 22.5 56.90625 18.703125 
Q 55.40625 14.90625 52.75 12.15625 
Q 50.09375 9.40625 46.4375 7.84375 
Q 42.796875 6.296875 38.09375 6.296875 
Q 31.703125 6.296875 27.09375 8.6875 
Q 22.5 11.09375 19.546875 15.140625 
Q 16.59375 19.203125 15.1875 24.640625 
Q 13.796875 30.09375 13.796875 36.203125 
Q 13.796875 41.796875 15.1875 47 
Q 16.59375 52.203125 19.546875 56.25 
Q 22.5 60.296875 27.046875 62.6875 
Q 31.59375 65.09375 38 65.09375 
Q 45.5 65.09375 50.953125 61.296875 
Q 56.40625 57.5 58 49.90625 
z
" id="HelveticaNeue-67"/>
      <path d="M 11.59375 16.296875 
L 3.09375 16.296875 
Q 3.296875 11.5 5.09375 8.140625 
Q 6.90625 4.796875 9.90625 2.75 
Q 12.90625 0.703125 16.796875 -0.1875 
Q 20.703125 -1.09375 25 -1.09375 
Q 28.90625 -1.09375 32.84375 -0.34375 
Q 36.796875 0.40625 39.9375 2.296875 
Q 43.09375 4.203125 45.046875 7.296875 
Q 47 10.40625 47 15.09375 
Q 47 18.796875 45.546875 21.296875 
Q 44.09375 23.796875 41.75 25.4375 
Q 39.40625 27.09375 36.34375 28.09375 
Q 33.296875 29.09375 30.09375 29.796875 
Q 27.09375 30.5 24.09375 31.140625 
Q 21.09375 31.796875 18.6875 32.75 
Q 16.296875 33.703125 14.75 35.140625 
Q 13.203125 36.59375 13.203125 38.796875 
Q 13.203125 40.796875 14.203125 42.046875 
Q 15.203125 43.296875 16.796875 44.046875 
Q 18.40625 44.796875 20.34375 45.09375 
Q 22.296875 45.40625 24.203125 45.40625 
Q 26.296875 45.40625 28.34375 44.953125 
Q 30.40625 44.5 32.09375 43.5 
Q 33.796875 42.5 34.890625 40.84375 
Q 36 39.203125 36.203125 36.703125 
L 44.703125 36.703125 
Q 44.40625 41.40625 42.703125 44.546875 
Q 41 47.703125 38.140625 49.546875 
Q 35.296875 51.40625 31.59375 52.15625 
Q 27.90625 52.90625 23.5 52.90625 
Q 20.09375 52.90625 16.640625 52.046875 
Q 13.203125 51.203125 10.453125 49.453125 
Q 7.703125 47.703125 5.953125 44.890625 
Q 4.203125 42.09375 4.203125 38.203125 
Q 4.203125 33.203125 6.703125 30.390625 
Q 9.203125 27.59375 12.953125 26.046875 
Q 16.703125 24.5 21.09375 23.640625 
Q 25.5 22.796875 29.25 21.75 
Q 33 20.703125 35.5 19 
Q 38 17.296875 38 14 
Q 38 11.59375 36.796875 10.046875 
Q 35.59375 8.5 33.75 7.703125 
Q 31.90625 6.90625 29.703125 6.59375 
Q 27.5 6.296875 25.5 6.296875 
Q 22.90625 6.296875 20.453125 6.796875 
Q 18 7.296875 16.046875 8.4375 
Q 14.09375 9.59375 12.890625 11.546875 
Q 11.703125 13.5 11.59375 16.296875 
z
" id="HelveticaNeue-115"/>
      <path d="M 12.59375 25.796875 
Q 12.59375 30.5 13.84375 34.140625 
Q 15.09375 37.796875 17.296875 40.296875 
Q 19.5 42.796875 22.453125 44.09375 
Q 25.40625 45.40625 28.703125 45.40625 
Q 32 45.40625 34.953125 44.09375 
Q 37.90625 42.796875 40.09375 40.296875 
Q 42.296875 37.796875 43.546875 34.140625 
Q 44.796875 30.5 44.796875 25.796875 
Q 44.796875 21.09375 43.546875 17.4375 
Q 42.296875 13.796875 40.09375 11.34375 
Q 37.90625 8.90625 34.953125 7.59375 
Q 32 6.296875 28.703125 6.296875 
Q 25.40625 6.296875 22.453125 7.59375 
Q 19.5 8.90625 17.296875 11.34375 
Q 15.09375 13.796875 13.84375 17.4375 
Q 12.59375 21.09375 12.59375 25.796875 
z
M 3.59375 25.796875 
Q 3.59375 20.09375 5.1875 15.1875 
Q 6.796875 10.296875 10 6.640625 
Q 13.203125 3 17.890625 0.953125 
Q 22.59375 -1.09375 28.703125 -1.09375 
Q 34.90625 -1.09375 39.546875 0.953125 
Q 44.203125 3 47.390625 6.640625 
Q 50.59375 10.296875 52.1875 15.1875 
Q 53.796875 20.09375 53.796875 25.796875 
Q 53.796875 31.5 52.1875 36.453125 
Q 50.59375 41.40625 47.390625 45.046875 
Q 44.203125 48.703125 39.546875 50.796875 
Q 34.90625 52.90625 28.703125 52.90625 
Q 22.59375 52.90625 17.890625 50.796875 
Q 13.203125 48.703125 10 45.046875 
Q 6.796875 41.40625 5.1875 36.453125 
Q 3.59375 31.5 3.59375 25.796875 
z
" id="HelveticaNeue-111"/>
      <path d="M 29.703125 0 
L 48.59375 51.703125 
L 39.703125 51.703125 
L 25.59375 8.59375 
L 25.40625 8.59375 
L 10.90625 51.703125 
L 1.40625 51.703125 
L 20.59375 0 
z
" id="HelveticaNeue-118"/>
      <path d="M 19.40625 40.59375 
L 19.40625 51.703125 
L 8.296875 51.703125 
L 8.296875 40.59375 
z
M 8.296875 11.09375 
L 8.296875 0 
L 19.40625 0 
L 19.40625 11.09375 
z
" id="HelveticaNeue-58"/>
      <path d="M 5 31.796875 
L 5 23.796875 
L 33.90625 23.796875 
L 33.90625 31.796875 
z
" id="HelveticaNeue-45"/>
      <path d="M 41.40625 52.796875 
L 49.90625 52.796875 
Q 49.09375 61.59375 43.890625 66.25 
Q 38.703125 70.90625 29.90625 70.90625 
Q 22.296875 70.90625 17.296875 67.703125 
Q 12.296875 64.5 9.296875 59.203125 
Q 6.296875 53.90625 5.046875 47.046875 
Q 3.796875 40.203125 3.796875 32.90625 
Q 3.796875 27.296875 4.640625 21.296875 
Q 5.5 15.296875 8.09375 10.296875 
Q 10.703125 5.296875 15.5 2.09375 
Q 20.296875 -1.09375 28.203125 -1.09375 
Q 34.90625 -1.09375 39.453125 1.15625 
Q 44 3.40625 46.75 6.84375 
Q 49.5 10.296875 50.703125 14.5 
Q 51.90625 18.703125 51.90625 22.59375 
Q 51.90625 27.5 50.40625 31.703125 
Q 48.90625 35.90625 46.15625 39 
Q 43.40625 42.09375 39.34375 43.84375 
Q 35.296875 45.59375 30.203125 45.59375 
Q 24.40625 45.59375 19.953125 43.390625 
Q 15.5 41.203125 12.5 36.296875 
L 12.296875 36.5 
Q 12.40625 40.59375 13.09375 45.296875 
Q 13.796875 50 15.640625 54.046875 
Q 17.5 58.09375 20.796875 60.75 
Q 24.09375 63.40625 29.5 63.40625 
Q 34.59375 63.40625 37.6875 60.5 
Q 40.796875 57.59375 41.40625 52.796875 
z
M 28.59375 38.09375 
Q 32.203125 38.09375 34.890625 36.796875 
Q 37.59375 35.5 39.390625 33.34375 
Q 41.203125 31.203125 42.046875 28.25 
Q 42.90625 25.296875 42.90625 22 
Q 42.90625 18.90625 41.953125 16.046875 
Q 41 13.203125 39.203125 11 
Q 37.40625 8.796875 34.75 7.546875 
Q 32.09375 6.296875 28.59375 6.296875 
Q 25.09375 6.296875 22.34375 7.546875 
Q 19.59375 8.796875 17.75 10.890625 
Q 15.90625 13 14.90625 15.890625 
Q 13.90625 18.796875 13.90625 22.09375 
Q 13.90625 25.40625 14.84375 28.34375 
Q 15.796875 31.296875 17.6875 33.4375 
Q 19.59375 35.59375 22.296875 36.84375 
Q 25 38.09375 28.59375 38.09375 
z
" id="HelveticaNeue-54"/>
     </defs>
     <use xlink:href="#HelveticaNeue-80"/>
     <use x="64.799988" xlink:href="#HelveticaNeue-117"/>
     <use x="120.399979" xlink:href="#HelveticaNeue-101"/>
     <use x="174.099976" xlink:href="#HelveticaNeue-110"/>
     <use x="229.699966" xlink:href="#HelveticaNeue-116"/>
     <use x="261.199951" xlink:href="#HelveticaNeue-101"/>
     <use x="314.899948" xlink:href="#HelveticaNeue-32"/>
     <use x="342.699936" xlink:href="#HelveticaNeue-65"/>
     <use x="407.499924" xlink:href="#HelveticaNeue-114"/>
     <use x="440.799911" xlink:href="#HelveticaNeue-97"/>
     <use x="494.499908" xlink:href="#HelveticaNeue-110"/>
     <use x="550.099899" xlink:href="#HelveticaNeue-100"/>
     <use x="609.399887" xlink:href="#HelveticaNeue-97"/>
     <use x="663.099884" xlink:href="#HelveticaNeue-32"/>
     <use x="690.899872" xlink:href="#HelveticaNeue-124"/>
     <use x="713.099869" xlink:href="#HelveticaNeue-32"/>
     <use x="740.899857" xlink:href="#HelveticaNeue-67"/>
     <use x="813.099838" xlink:href="#HelveticaNeue-97"/>
     <use x="866.799835" xlink:href="#HelveticaNeue-115"/>
     <use x="916.79982" xlink:href="#HelveticaNeue-111"/>
     <use x="974.199814" xlink:href="#HelveticaNeue-115"/>
     <use x="1024.199799" xlink:href="#HelveticaNeue-32"/>
     <use x="1051.999786" xlink:href="#HelveticaNeue-110"/>
     <use x="1107.599777" xlink:href="#HelveticaNeue-117"/>
     <use x="1163.199768" xlink:href="#HelveticaNeue-101"/>
     <use x="1216.899765" xlink:href="#HelveticaNeue-118"/>
     <use x="1266.89975" xlink:href="#HelveticaNeue-111"/>
     <use x="1324.299744" xlink:href="#HelveticaNeue-115"/>
     <use x="1374.299728" xlink:href="#HelveticaNeue-58"/>
     <use x="1402.099716" xlink:href="#HelveticaNeue-32"/>
     <use x="1429.899704" xlink:href="#HelveticaNeue-50"/>
     <use x="1485.499695" xlink:href="#HelveticaNeue-48"/>
     <use x="1541.099686" xlink:href="#HelveticaNeue-50"/>
     <use x="1596.699677" xlink:href="#HelveticaNeue-49"/>
     <use x="1652.299667" xlink:href="#HelveticaNeue-45"/>
     <use x="1691.199661" xlink:href="#HelveticaNeue-48"/>
     <use x="1746.799652" xlink:href="#HelveticaNeue-54"/>
     <use x="1802.399643" xlink:href="#HelveticaNeue-45"/>
     <use x="1841.299637" xlink:href="#HelveticaNeue-48"/>
     <use x="1896.899628" xlink:href="#HelveticaNeue-53"/>
    </g>
   </g>
   <g id="legend_1">
    <g id="line2d_27">
     <path d="M 71.5 39.640625 
L 91.5 39.640625 
" style="fill:none;stroke:#000000;stroke-dasharray:1.5,2.475;stroke-dashoffset:0;stroke-opacity:0.5;stroke-width:1.5;"/>
    </g>
    <g id="line2d_28"/>
    <g id="text_15">
     <!-- Actual -->
     <g style="fill:#555555;" transform="translate(99.5 43.140625)scale(0.1 -0.1)">
      <use xlink:href="#HelveticaNeue-65"/>
      <use x="64.799988" xlink:href="#HelveticaNeue-99"/>
      <use x="118.499985" xlink:href="#HelveticaNeue-116"/>
      <use x="149.999969" xlink:href="#HelveticaNeue-117"/>
      <use x="205.59996" xlink:href="#HelveticaNeue-97"/>
      <use x="259.299957" xlink:href="#HelveticaNeue-108"/>
     </g>
    </g>
    <g id="line2d_29">
     <path d="M 71.5 54.310937 
L 91.5 54.310937 
" style="fill:none;stroke:#b3220f;stroke-linecap:square;stroke-width:1.5;"/>
    </g>
    <g id="line2d_30"/>
    <g id="text_16">
     <!-- Promedio semanal (7 das)  -->
     <g style="fill:#555555;" transform="translate(99.5 57.810937)scale(0.1 -0.1)">
      <defs>
       <path d="M 6.40625 51.703125 
L 6.40625 0 
L 14.90625 0 
L 14.90625 32.203125 
Q 14.90625 33.703125 15.65625 35.953125 
Q 16.40625 38.203125 18.046875 40.296875 
Q 19.703125 42.40625 22.34375 43.90625 
Q 25 45.40625 28.703125 45.40625 
Q 31.59375 45.40625 33.4375 44.546875 
Q 35.296875 43.703125 36.390625 42.140625 
Q 37.5 40.59375 37.953125 38.5 
Q 38.40625 36.40625 38.40625 33.90625 
L 38.40625 0 
L 46.90625 0 
L 46.90625 32.203125 
Q 46.90625 38.203125 50.5 41.796875 
Q 54.09375 45.40625 60.40625 45.40625 
Q 63.5 45.40625 65.453125 44.5 
Q 67.40625 43.59375 68.5 42.046875 
Q 69.59375 40.5 70 38.390625 
Q 70.40625 36.296875 70.40625 33.90625 
L 70.40625 0 
L 78.90625 0 
L 78.90625 37.90625 
Q 78.90625 41.90625 77.65625 44.75 
Q 76.40625 47.59375 74.15625 49.390625 
Q 71.90625 51.203125 68.75 52.046875 
Q 65.59375 52.90625 61.703125 52.90625 
Q 56.59375 52.90625 52.34375 50.59375 
Q 48.09375 48.296875 45.5 44.09375 
Q 43.90625 48.90625 40 50.90625 
Q 36.09375 52.90625 31.296875 52.90625 
Q 20.40625 52.90625 14.59375 44.09375 
L 14.40625 44.09375 
L 14.40625 51.703125 
z
" id="HelveticaNeue-109"/>
       <path d="M 15.40625 61 
L 15.40625 71.40625 
L 6.90625 71.40625 
L 6.90625 61 
z
M 6.90625 51.703125 
L 6.90625 0 
L 15.40625 0 
L 15.40625 51.703125 
z
" id="HelveticaNeue-105"/>
       <path d="M 20.40625 -19.703125 
L 26.90625 -19.703125 
Q 19.796875 -8.203125 16.75 3.09375 
Q 13.703125 14.40625 13.703125 27 
Q 13.703125 39.296875 16.703125 50.5 
Q 19.703125 61.703125 26.90625 73.09375 
L 20.40625 73.09375 
Q 12.59375 62.796875 8.640625 50.796875 
Q 4.703125 38.796875 4.703125 27 
Q 4.703125 20.40625 5.796875 14.40625 
Q 6.90625 8.40625 8.953125 2.703125 
Q 11 -3 13.890625 -8.546875 
Q 16.796875 -14.09375 20.40625 -19.703125 
z
" id="HelveticaNeue-40"/>
       <path d="M 50.90625 62.40625 
L 50.90625 69.703125 
L 5 69.703125 
L 5 61.703125 
L 42.203125 61.703125 
Q 36.59375 55.796875 31.75 48.796875 
Q 26.90625 41.796875 23.203125 33.9375 
Q 19.5 26.09375 17.140625 17.546875 
Q 14.796875 9 14.203125 0 
L 23.703125 0 
Q 24.203125 8.296875 26.5 17.09375 
Q 28.796875 25.90625 32.4375 34.203125 
Q 36.09375 42.5 40.796875 49.796875 
Q 45.5 57.09375 50.90625 62.40625 
z
" id="HelveticaNeue-55"/>
       <path d="M 6.90625 0 
L 15.40625 0 
L 15.40625 51.703125 
L 6.90625 51.703125 
z
M 25.5 77 
L 11.40625 60.796875 
L 5 60.796875 
L 14.59375 77 
z
" id="HelveticaNeue-237"/>
       <path d="M -0.90625 -19.703125 
L 5.5 -19.703125 
Q 13.296875 -9.40625 17.25 2.546875 
Q 21.203125 14.5 21.203125 26.296875 
Q 21.203125 32.90625 20.09375 38.90625 
Q 19 44.90625 16.953125 50.65625 
Q 14.90625 56.40625 12 61.953125 
Q 9.09375 67.5 5.5 73.09375 
L -0.90625 73.09375 
Q 6.09375 61.59375 9.140625 50.25 
Q 12.203125 38.90625 12.203125 26.296875 
Q 12.203125 14.09375 9.203125 2.84375 
Q 6.203125 -8.40625 -0.90625 -19.703125 
z
" id="HelveticaNeue-41"/>
      </defs>
      <use xlink:href="#HelveticaNeue-80"/>
      <use x="64.799988" xlink:href="#HelveticaNeue-114"/>
      <use x="96.349976" xlink:href="#HelveticaNeue-111"/>
      <use x="153.749969" xlink:href="#HelveticaNeue-109"/>
      <use x="239.049957" xlink:href="#HelveticaNeue-101"/>
      <use x="292.749954" xlink:href="#HelveticaNeue-100"/>
      <use x="352.049942" xlink:href="#HelveticaNeue-105"/>
      <use x="374.249939" xlink:href="#HelveticaNeue-111"/>
      <use x="431.649933" xlink:href="#HelveticaNeue-32"/>
      <use x="459.449921" xlink:href="#HelveticaNeue-115"/>
      <use x="509.449905" xlink:href="#HelveticaNeue-101"/>
      <use x="563.149902" xlink:href="#HelveticaNeue-109"/>
      <use x="648.44989" xlink:href="#HelveticaNeue-97"/>
      <use x="702.149887" xlink:href="#HelveticaNeue-110"/>
      <use x="757.749878" xlink:href="#HelveticaNeue-97"/>
      <use x="811.449875" xlink:href="#HelveticaNeue-108"/>
      <use x="833.649872" xlink:href="#HelveticaNeue-32"/>
      <use x="861.44986" xlink:href="#HelveticaNeue-40"/>
      <use x="887.349854" xlink:href="#HelveticaNeue-55"/>
      <use x="942.949844" xlink:href="#HelveticaNeue-32"/>
      <use x="970.749832" xlink:href="#HelveticaNeue-100"/>
      <use x="1030.04982" xlink:href="#HelveticaNeue-237"/>
      <use x="1052.249817" xlink:href="#HelveticaNeue-97"/>
      <use x="1105.949814" xlink:href="#HelveticaNeue-115"/>
      <use x="1155.949799" xlink:href="#HelveticaNeue-41"/>
      <use x="1181.849792" xlink:href="#HelveticaNeue-32"/>
     </g>
    </g>
   </g>
  </g>
 </g>
 <defs>
  <clipPath id="pf9289f4ada">
   <rect height="235.5" width="387.5" x="62.5" y="27"/>
  </clipPath>
 </defs>
</svg>
