<?xml version="1.0" encoding="utf-8" standalone="no"?>
<!DOCTYPE svg PUBLIC "-//W3C//DTD SVG 1.1//EN"
  "http://www.w3.org/Graphics/SVG/1.1/DTD/svg11.dtd">
<!-- Created with matplotlib (https://matplotlib.org/) -->
<svg height="300pt" version="1.1" viewBox="0 0 500 300" width="500pt" xmlns="http://www.w3.org/2000/svg" xmlns:xlink="http://www.w3.org/1999/xlink">
 <metadata>
  <rdf:RDF xmlns:cc="http://creativecommons.org/ns#" xmlns:dc="http://purl.org/dc/elements/1.1/" xmlns:rdf="http://www.w3.org/1999/02/22-rdf-syntax-ns#">
   <cc:Work>
    <dc:type rdf:resource="http://purl.org/dc/dcmitype/StillImage"/>
    <dc:date>2021-06-26T00:11:02.041474</dc:date>
    <dc:format>image/svg+xml</dc:format>
    <dc:creator>
     <cc:Agent>
      <dc:title>Matplotlib v3.3.4, https://matplotlib.org/</dc:title>
     </cc:Agent>
    </dc:creator>
   </cc:Work>
  </rdf:RDF>
 </metadata>
 <defs>
  <style type="text/css">*{stroke-linecap:butt;stroke-linejoin:round;}</style>
 </defs>
 <g id="figure_1">
  <g id="patch_1">
   <path d="M 0 300 
L 500 300 
L 500 0 
L 0 0 
z
" style="fill:#ffffff;"/>
  </g>
  <g id="axes_1">
   <g id="patch_2">
    <path d="M 62.5 262.5 
L 450 262.5 
L 450 36 
L 62.5 36 
z
" style="fill:#ffffff;"/>
   </g>
   <g id="matplotlib.axis_1">
    <g id="xtick_1">
     <g id="line2d_1">
      <defs>
       <path d="M 0 0 
L 0 3.5 
" id="m7ab9d0418d" style="stroke:#000000;stroke-width:0.8;"/>
      </defs>
      <g>
       <use style="stroke:#000000;stroke-width:0.8;" x="62.5" xlink:href="#m7ab9d0418d" y="262.5"/>
      </g>
     </g>
    </g>
    <g id="xtick_2">
     <g id="line2d_2">
      <g>
       <use style="stroke:#000000;stroke-width:0.8;" x="64.222222" xlink:href="#m7ab9d0418d" y="262.5"/>
      </g>
     </g>
     <g id="text_1">
      <!-- Apr -->
      <g transform="translate(56.322222 277)scale(0.1 -0.1)">
       <defs>
        <path d="M 47.015625 16.546875 
L 19.484375 16.546875 
L 13.71875 0 
L 0.875 0 
L 27.734375 71.09375 
L 38.8125 71.09375 
L 65.71875 0 
L 52.828125 0 
z
M 22.953125 26.515625 
L 43.5625 26.515625 
L 33.25 56 
z
" id="Roboto-Medium-65"/>
        <path d="M 52.34375 25.875 
Q 52.34375 13.625 46.78125 6.3125 
Q 41.21875 -0.984375 31.84375 -0.984375 
Q 23.140625 -0.984375 17.921875 4.734375 
L 17.921875 -20.3125 
L 6.0625 -20.3125 
L 6.0625 52.828125 
L 17 52.828125 
L 17.484375 47.46875 
Q 22.703125 53.8125 31.6875 53.8125 
Q 41.359375 53.8125 46.84375 46.609375 
Q 52.34375 39.40625 52.34375 26.609375 
z
M 40.53125 26.90625 
Q 40.53125 34.8125 37.375 39.453125 
Q 34.234375 44.09375 28.375 44.09375 
Q 21.09375 44.09375 17.921875 38.09375 
L 17.921875 14.65625 
Q 21.140625 8.5 28.46875 8.5 
Q 34.125 8.5 37.328125 13.0625 
Q 40.53125 17.625 40.53125 26.90625 
z
" id="Roboto-Medium-112"/>
        <path d="M 33.734375 42 
Q 31.390625 42.390625 28.90625 42.390625 
Q 20.75 42.390625 17.921875 36.140625 
L 17.921875 0 
L 6.0625 0 
L 6.0625 52.828125 
L 17.390625 52.828125 
L 17.671875 46.921875 
Q 21.96875 53.8125 29.59375 53.8125 
Q 32.125 53.8125 33.796875 53.125 
z
" id="Roboto-Medium-114"/>
       </defs>
       <use xlink:href="#Roboto-Medium-65"/>
       <use x="66.552734" xlink:href="#Roboto-Medium-112"/>
       <use x="122.851562" xlink:href="#Roboto-Medium-114"/>
      </g>
     </g>
    </g>
    <g id="xtick_3">
     <g id="line2d_3">
      <g>
       <use style="stroke:#000000;stroke-width:0.8;" x="142.583333" xlink:href="#m7ab9d0418d" y="262.5"/>
      </g>
     </g>
     <g id="text_2">
      <!-- Jul -->
      <g transform="translate(135.752865 277)scale(0.1 -0.1)">
       <defs>
        <path d="M 36.328125 71.09375 
L 48.640625 71.09375 
L 48.640625 21.234375 
Q 48.640625 11.03125 42.265625 5.015625 
Q 35.890625 -0.984375 25.4375 -0.984375 
Q 14.3125 -0.984375 8.25 4.625 
Q 2.203125 10.25 2.203125 20.265625 
L 14.5 20.265625 
Q 14.5 14.59375 17.3125 11.734375 
Q 20.125 8.890625 25.4375 8.890625 
Q 30.421875 8.890625 33.375 12.1875 
Q 36.328125 15.484375 36.328125 21.296875 
z
" id="Roboto-Medium-74"/>
        <path d="M 38.09375 5.171875 
Q 32.859375 -0.984375 23.25 -0.984375 
Q 14.65625 -0.984375 10.234375 4.046875 
Q 5.8125 9.078125 5.8125 18.609375 
L 5.8125 52.828125 
L 17.671875 52.828125 
L 17.671875 18.75 
Q 17.671875 8.6875 26.03125 8.6875 
Q 34.671875 8.6875 37.703125 14.890625 
L 37.703125 52.828125 
L 49.5625 52.828125 
L 49.5625 0 
L 38.375 0 
z
" id="Roboto-Medium-117"/>
        <path d="M 18.703125 0 
L 6.84375 0 
L 6.84375 75 
L 18.703125 75 
z
" id="Roboto-Medium-108"/>
       </defs>
       <use xlink:href="#Roboto-Medium-74"/>
       <use x="55.517578" xlink:href="#Roboto-Medium-117"/>
       <use x="111.083984" xlink:href="#Roboto-Medium-108"/>
      </g>
     </g>
    </g>
    <g id="xtick_4">
     <g id="line2d_4">
      <g>
       <use style="stroke:#000000;stroke-width:0.8;" x="221.805556" xlink:href="#m7ab9d0418d" y="262.5"/>
      </g>
     </g>
     <g id="text_3">
      <!-- Oct -->
      <g transform="translate(214.073524 277)scale(0.1 -0.1)">
       <defs>
        <path d="M 63.96875 33.6875 
Q 63.96875 23.25 60.34375 15.359375 
Q 56.734375 7.46875 50.015625 3.234375 
Q 43.3125 -0.984375 34.578125 -0.984375 
Q 25.921875 -0.984375 19.15625 3.234375 
Q 12.40625 7.46875 8.71875 15.28125 
Q 5.03125 23.09375 4.984375 33.296875 
L 4.984375 37.3125 
Q 4.984375 47.703125 8.671875 55.65625 
Q 12.359375 63.625 19.0625 67.84375 
Q 25.78125 72.078125 34.46875 72.078125 
Q 43.171875 72.078125 49.875 67.890625 
Q 56.59375 63.71875 60.25 55.875 
Q 63.921875 48.046875 63.96875 37.640625 
z
M 51.609375 37.40625 
Q 51.609375 49.21875 47.140625 55.515625 
Q 42.671875 61.8125 34.46875 61.8125 
Q 26.46875 61.8125 21.953125 55.53125 
Q 17.4375 49.265625 17.328125 37.796875 
L 17.328125 33.6875 
Q 17.328125 21.96875 21.890625 15.578125 
Q 26.46875 9.1875 34.578125 9.1875 
Q 42.78125 9.1875 47.1875 15.4375 
Q 51.609375 21.6875 51.609375 33.6875 
z
" id="Roboto-Medium-79"/>
        <path d="M 27.78125 8.5 
Q 32.234375 8.5 35.15625 11.078125 
Q 38.09375 13.671875 38.28125 17.484375 
L 49.46875 17.484375 
Q 49.265625 12.546875 46.375 8.265625 
Q 43.5 4 38.5625 1.5 
Q 33.640625 -0.984375 27.9375 -0.984375 
Q 16.84375 -0.984375 10.34375 6.1875 
Q 3.859375 13.375 3.859375 26.03125 
L 3.859375 27.25 
Q 3.859375 39.3125 10.296875 46.5625 
Q 16.75 53.8125 27.875 53.8125 
Q 37.3125 53.8125 43.234375 48.3125 
Q 49.171875 42.828125 49.46875 33.890625 
L 38.28125 33.890625 
Q 38.09375 38.421875 35.1875 41.34375 
Q 32.28125 44.28125 27.78125 44.28125 
Q 22.015625 44.28125 18.890625 40.109375 
Q 15.765625 35.9375 15.71875 27.4375 
L 15.71875 25.53125 
Q 15.71875 16.9375 18.8125 12.71875 
Q 21.921875 8.5 27.78125 8.5 
z
" id="Roboto-Medium-99"/>
        <path d="M 20.953125 65.671875 
L 20.953125 52.828125 
L 30.28125 52.828125 
L 30.28125 44.046875 
L 20.953125 44.046875 
L 20.953125 14.546875 
Q 20.953125 11.53125 22.140625 10.1875 
Q 23.34375 8.84375 26.421875 8.84375 
Q 28.46875 8.84375 30.5625 9.328125 
L 30.5625 0.140625 
Q 26.515625 -0.984375 22.75 -0.984375 
Q 9.078125 -0.984375 9.078125 14.109375 
L 9.078125 44.046875 
L 0.390625 44.046875 
L 0.390625 52.828125 
L 9.078125 52.828125 
L 9.078125 65.671875 
z
" id="Roboto-Medium-116"/>
       </defs>
       <use xlink:href="#Roboto-Medium-79"/>
       <use x="69.042969" xlink:href="#Roboto-Medium-99"/>
       <use x="121.386719" xlink:href="#Roboto-Medium-116"/>
      </g>
     </g>
    </g>
    <g id="xtick_5">
     <g id="line2d_5">
      <g>
       <use style="stroke:#000000;stroke-width:0.8;" x="301.027778" xlink:href="#m7ab9d0418d" y="262.5"/>
      </g>
     </g>
     <g id="text_4">
      <!-- Jan -->
      <g transform="translate(292.766059 277)scale(0.1 -0.1)">
       <defs>
        <path d="M 37.640625 0 
Q 36.859375 1.515625 36.28125 4.9375 
Q 30.609375 -0.984375 22.40625 -0.984375 
Q 14.453125 -0.984375 9.421875 3.5625 
Q 4.390625 8.109375 4.390625 14.796875 
Q 4.390625 23.25 10.65625 27.765625 
Q 16.9375 32.28125 28.609375 32.28125 
L 35.890625 32.28125 
L 35.890625 35.75 
Q 35.890625 39.84375 33.59375 42.3125 
Q 31.296875 44.78125 26.609375 44.78125 
Q 22.5625 44.78125 19.96875 42.75 
Q 17.390625 40.71875 17.390625 37.59375 
L 5.515625 37.59375 
Q 5.515625 41.9375 8.390625 45.71875 
Q 11.28125 49.515625 16.234375 51.65625 
Q 21.1875 53.8125 27.296875 53.8125 
Q 36.578125 53.8125 42.09375 49.140625 
Q 47.609375 44.484375 47.75 36.03125 
L 47.75 12.203125 
Q 47.75 5.078125 49.75 0.828125 
L 49.75 0 
z
M 24.609375 8.546875 
Q 28.125 8.546875 31.21875 10.25 
Q 34.328125 11.96875 35.890625 14.84375 
L 35.890625 24.8125 
L 29.5 24.8125 
Q 22.90625 24.8125 19.578125 22.515625 
Q 16.265625 20.21875 16.265625 16.015625 
Q 16.265625 12.59375 18.53125 10.5625 
Q 20.796875 8.546875 24.609375 8.546875 
z
" id="Roboto-Medium-97"/>
        <path d="M 17.09375 52.828125 
L 17.4375 46.734375 
Q 23.296875 53.8125 32.8125 53.8125 
Q 49.3125 53.8125 49.609375 34.90625 
L 49.609375 0 
L 37.75 0 
L 37.75 34.234375 
Q 37.75 39.265625 35.578125 41.671875 
Q 33.40625 44.09375 28.46875 44.09375 
Q 21.296875 44.09375 17.78125 37.59375 
L 17.78125 0 
L 5.90625 0 
L 5.90625 52.828125 
z
" id="Roboto-Medium-110"/>
       </defs>
       <use xlink:href="#Roboto-Medium-74"/>
       <use x="55.517578" xlink:href="#Roboto-Medium-97"/>
       <use x="109.619141" xlink:href="#Roboto-Medium-110"/>
      </g>
      <!-- 2021 -->
      <g transform="translate(289.659028 288.03125)scale(0.1 -0.1)">
       <defs>
        <path d="M 53.125 0 
L 5.328125 0 
L 5.328125 8.15625 
L 29 33.984375 
Q 34.125 39.703125 36.296875 43.53125 
Q 38.484375 47.359375 38.484375 51.21875 
Q 38.484375 56.296875 35.625 59.421875 
Q 32.765625 62.546875 27.9375 62.546875 
Q 22.171875 62.546875 19 59.03125 
Q 15.828125 55.515625 15.828125 49.421875 
L 3.953125 49.421875 
Q 3.953125 55.90625 6.90625 61.109375 
Q 9.859375 66.3125 15.34375 69.1875 
Q 20.84375 72.078125 28.03125 72.078125 
Q 38.375 72.078125 44.359375 66.875 
Q 50.34375 61.671875 50.34375 52.484375 
Q 50.34375 47.171875 47.34375 41.328125 
Q 44.34375 35.5 37.5 28.078125 
L 20.125 9.46875 
L 53.125 9.46875 
z
" id="Roboto-Medium-50"/>
        <path d="M 51.65625 29.9375 
Q 51.65625 14.59375 45.921875 6.796875 
Q 40.1875 -0.984375 28.46875 -0.984375 
Q 16.9375 -0.984375 11.109375 6.609375 
Q 5.28125 14.203125 5.125 29.109375 
L 5.125 41.40625 
Q 5.125 56.734375 10.859375 64.40625 
Q 16.609375 72.078125 28.375 72.078125 
Q 40.046875 72.078125 45.78125 64.59375 
Q 51.515625 57.125 51.65625 42.234375 
z
M 39.796875 43.21875 
Q 39.796875 53.21875 37.0625 57.875 
Q 34.328125 62.546875 28.375 62.546875 
Q 22.5625 62.546875 19.828125 58.125 
Q 17.09375 53.71875 16.9375 44.34375 
L 16.9375 28.21875 
Q 16.9375 18.265625 19.71875 13.375 
Q 22.515625 8.5 28.46875 8.5 
Q 34.1875 8.5 36.921875 13.015625 
Q 39.65625 17.53125 39.796875 27.15625 
z
" id="Roboto-Medium-48"/>
        <path d="M 37.453125 0 
L 25.640625 0 
L 25.640625 57.078125 
L 8.203125 51.125 
L 8.203125 61.140625 
L 35.9375 71.34375 
L 37.453125 71.34375 
z
" id="Roboto-Medium-49"/>
       </defs>
       <use xlink:href="#Roboto-Medium-50"/>
       <use x="56.835938" xlink:href="#Roboto-Medium-48"/>
       <use x="113.671875" xlink:href="#Roboto-Medium-50"/>
       <use x="170.507812" xlink:href="#Roboto-Medium-49"/>
      </g>
     </g>
    </g>
    <g id="xtick_6">
     <g id="line2d_6">
      <g>
       <use style="stroke:#000000;stroke-width:0.8;" x="378.527778" xlink:href="#m7ab9d0418d" y="262.5"/>
      </g>
     </g>
     <g id="text_5">
      <!-- Apr -->
      <g transform="translate(370.627778 277)scale(0.1 -0.1)">
       <use xlink:href="#Roboto-Medium-65"/>
       <use x="66.552734" xlink:href="#Roboto-Medium-112"/>
       <use x="122.851562" xlink:href="#Roboto-Medium-114"/>
      </g>
     </g>
    </g>
    <g id="xtick_7">
     <g id="line2d_7">
      <g>
       <use style="stroke:#000000;stroke-width:0.8;" x="450" xlink:href="#m7ab9d0418d" y="262.5"/>
      </g>
     </g>
    </g>
    <g id="xtick_8">
     <g id="line2d_8">
      <defs>
       <path d="M 0 0 
L 0 2 
" id="m043a6b0e02" style="stroke:#000000;stroke-width:0.6;"/>
      </defs>
      <g>
       <use style="stroke:#000000;stroke-width:0.6;" x="90.055556" xlink:href="#m043a6b0e02" y="262.5"/>
      </g>
     </g>
    </g>
    <g id="xtick_9">
     <g id="line2d_9">
      <g>
       <use style="stroke:#000000;stroke-width:0.6;" x="116.75" xlink:href="#m043a6b0e02" y="262.5"/>
      </g>
     </g>
    </g>
    <g id="xtick_10">
     <g id="line2d_10">
      <g>
       <use style="stroke:#000000;stroke-width:0.6;" x="169.277778" xlink:href="#m043a6b0e02" y="262.5"/>
      </g>
     </g>
    </g>
    <g id="xtick_11">
     <g id="line2d_11">
      <g>
       <use style="stroke:#000000;stroke-width:0.6;" x="195.972222" xlink:href="#m043a6b0e02" y="262.5"/>
      </g>
     </g>
    </g>
    <g id="xtick_12">
     <g id="line2d_12">
      <g>
       <use style="stroke:#000000;stroke-width:0.6;" x="248.5" xlink:href="#m043a6b0e02" y="262.5"/>
      </g>
     </g>
    </g>
    <g id="xtick_13">
     <g id="line2d_13">
      <g>
       <use style="stroke:#000000;stroke-width:0.6;" x="274.333333" xlink:href="#m043a6b0e02" y="262.5"/>
      </g>
     </g>
    </g>
    <g id="xtick_14">
     <g id="line2d_14">
      <g>
       <use style="stroke:#000000;stroke-width:0.6;" x="327.722222" xlink:href="#m043a6b0e02" y="262.5"/>
      </g>
     </g>
    </g>
    <g id="xtick_15">
     <g id="line2d_15">
      <g>
       <use style="stroke:#000000;stroke-width:0.6;" x="351.833333" xlink:href="#m043a6b0e02" y="262.5"/>
      </g>
     </g>
    </g>
    <g id="xtick_16">
     <g id="line2d_16">
      <g>
       <use style="stroke:#000000;stroke-width:0.6;" x="404.361111" xlink:href="#m043a6b0e02" y="262.5"/>
      </g>
     </g>
    </g>
    <g id="xtick_17">
     <g id="line2d_17">
      <g>
       <use style="stroke:#000000;stroke-width:0.6;" x="431.055556" xlink:href="#m043a6b0e02" y="262.5"/>
      </g>
     </g>
    </g>
    <g id="text_6">
     <!-- fecha -->
     <g transform="translate(243.774219 301.5625)scale(0.1 -0.1)">
      <defs>
       <path d="M 11.28125 0 
L 11.28125 45.84375 
L 2.9375 45.84375 
L 2.9375 52.828125 
L 11.28125 52.828125 
L 11.28125 58.25 
Q 11.28125 66.75 15.8125 71.390625 
Q 20.359375 76.03125 28.65625 76.03125 
Q 31.78125 76.03125 34.859375 75.203125 
L 34.375 67.875 
Q 32.078125 68.3125 29.5 68.3125 
Q 25.09375 68.3125 22.703125 65.75 
Q 20.3125 63.1875 20.3125 58.40625 
L 20.3125 52.828125 
L 31.59375 52.828125 
L 31.59375 45.84375 
L 20.3125 45.84375 
L 20.3125 0 
z
" id="Roboto-Regular-102"/>
       <path d="M 28.765625 -0.984375 
Q 18.015625 -0.984375 11.28125 6.078125 
Q 4.546875 13.140625 4.546875 24.953125 
L 4.546875 26.609375 
Q 4.546875 34.46875 7.546875 40.640625 
Q 10.546875 46.828125 15.9375 50.3125 
Q 21.34375 53.8125 27.640625 53.8125 
Q 37.9375 53.8125 43.640625 47.015625 
Q 49.359375 40.234375 49.359375 27.59375 
L 49.359375 23.828125 
L 13.578125 23.828125 
Q 13.765625 16.015625 18.140625 11.203125 
Q 22.515625 6.390625 29.25 6.390625 
Q 34.03125 6.390625 37.34375 8.34375 
Q 40.671875 10.296875 43.171875 13.53125 
L 48.6875 9.234375 
Q 42.046875 -0.984375 28.765625 -0.984375 
z
M 27.640625 46.390625 
Q 22.171875 46.390625 18.453125 42.40625 
Q 14.75 38.421875 13.875 31.25 
L 40.328125 31.25 
L 40.328125 31.9375 
Q 39.9375 38.8125 36.609375 42.59375 
Q 33.296875 46.390625 27.640625 46.390625 
z
" id="Roboto-Regular-101"/>
       <path d="M 28.03125 6.390625 
Q 32.859375 6.390625 36.46875 9.3125 
Q 40.09375 12.25 40.484375 16.65625 
L 49.03125 16.65625 
Q 48.78125 12.109375 45.890625 8 
Q 43.015625 3.90625 38.203125 1.453125 
Q 33.40625 -0.984375 28.03125 -0.984375 
Q 17.234375 -0.984375 10.859375 6.21875 
Q 4.5 13.421875 4.5 25.921875 
L 4.5 27.4375 
Q 4.5 35.15625 7.328125 41.15625 
Q 10.15625 47.171875 15.453125 50.484375 
Q 20.75 53.8125 27.984375 53.8125 
Q 36.859375 53.8125 42.75 48.484375 
Q 48.640625 43.171875 49.03125 34.671875 
L 40.484375 34.671875 
Q 40.09375 39.796875 36.59375 43.09375 
Q 33.109375 46.390625 27.984375 46.390625 
Q 21.09375 46.390625 17.3125 41.421875 
Q 13.53125 36.46875 13.53125 27.09375 
L 13.53125 25.390625 
Q 13.53125 16.265625 17.28125 11.328125 
Q 21.046875 6.390625 28.03125 6.390625 
z
" id="Roboto-Regular-99"/>
       <path d="M 15.875 46.4375 
Q 21.875 53.8125 31.5 53.8125 
Q 48.25 53.8125 48.390625 34.90625 
L 48.390625 0 
L 39.359375 0 
L 39.359375 34.96875 
Q 39.3125 40.671875 36.75 43.40625 
Q 34.1875 46.140625 28.765625 46.140625 
Q 24.359375 46.140625 21.03125 43.796875 
Q 17.71875 41.453125 15.875 37.640625 
L 15.875 0 
L 6.84375 0 
L 6.84375 75 
L 15.875 75 
z
" id="Roboto-Regular-104"/>
       <path d="M 39.453125 0 
Q 38.671875 1.5625 38.1875 5.5625 
Q 31.890625 -0.984375 23.140625 -0.984375 
Q 15.328125 -0.984375 10.328125 3.4375 
Q 5.328125 7.859375 5.328125 14.65625 
Q 5.328125 22.90625 11.59375 27.46875 
Q 17.875 32.03125 29.25 32.03125 
L 38.03125 32.03125 
L 38.03125 36.1875 
Q 38.03125 40.921875 35.203125 43.71875 
Q 32.375 46.53125 26.859375 46.53125 
Q 22.015625 46.53125 18.75 44.09375 
Q 15.484375 41.65625 15.484375 38.1875 
L 6.390625 38.1875 
Q 6.390625 42.140625 9.203125 45.828125 
Q 12.015625 49.515625 16.8125 51.65625 
Q 21.625 53.8125 27.390625 53.8125 
Q 36.53125 53.8125 41.703125 49.234375 
Q 46.875 44.671875 47.078125 36.671875 
L 47.078125 12.359375 
Q 47.078125 5.078125 48.921875 0.78125 
L 48.921875 0 
z
M 24.46875 6.890625 
Q 28.71875 6.890625 32.515625 9.078125 
Q 36.328125 11.28125 38.03125 14.796875 
L 38.03125 25.640625 
L 30.953125 25.640625 
Q 14.359375 25.640625 14.359375 15.921875 
Q 14.359375 11.671875 17.1875 9.28125 
Q 20.015625 6.890625 24.46875 6.890625 
z
" id="Roboto-Regular-97"/>
      </defs>
      <use xlink:href="#Roboto-Regular-102"/>
      <use x="34.716797" xlink:href="#Roboto-Regular-101"/>
      <use x="87.695312" xlink:href="#Roboto-Regular-99"/>
      <use x="140.039062" xlink:href="#Roboto-Regular-104"/>
      <use x="195.117188" xlink:href="#Roboto-Regular-97"/>
     </g>
    </g>
   </g>
   <g id="matplotlib.axis_2">
    <g id="ytick_1">
     <g id="line2d_18">
      <defs>
       <path d="M 0 0 
L -3.5 0 
" id="m60f54800b3" style="stroke:#000000;stroke-width:0.8;"/>
      </defs>
      <g>
       <use style="stroke:#000000;stroke-width:0.8;" x="62.5" xlink:href="#m60f54800b3" y="252.204545"/>
      </g>
     </g>
     <g id="text_7">
      <!-- 0 -->
      <g transform="translate(49.815625 255.954545)scale(0.1 -0.1)">
       <use xlink:href="#Roboto-Medium-48"/>
      </g>
     </g>
    </g>
    <g id="ytick_2">
     <g id="line2d_19">
      <g>
       <use style="stroke:#000000;stroke-width:0.8;" x="62.5" xlink:href="#m60f54800b3" y="202.10501"/>
      </g>
     </g>
     <g id="text_8">
      <!-- 100 -->
      <g transform="translate(38.446875 205.85501)scale(0.1 -0.1)">
       <use xlink:href="#Roboto-Medium-49"/>
       <use x="56.835938" xlink:href="#Roboto-Medium-48"/>
       <use x="113.671875" xlink:href="#Roboto-Medium-48"/>
      </g>
     </g>
    </g>
    <g id="ytick_3">
     <g id="line2d_20">
      <g>
       <use style="stroke:#000000;stroke-width:0.8;" x="62.5" xlink:href="#m60f54800b3" y="152.005474"/>
      </g>
     </g>
     <g id="text_9">
      <!-- 200 -->
      <g transform="translate(38.446875 155.755474)scale(0.1 -0.1)">
       <use xlink:href="#Roboto-Medium-50"/>
       <use x="56.835938" xlink:href="#Roboto-Medium-48"/>
       <use x="113.671875" xlink:href="#Roboto-Medium-48"/>
      </g>
     </g>
    </g>
    <g id="ytick_4">
     <g id="line2d_21">
      <g>
       <use style="stroke:#000000;stroke-width:0.8;" x="62.5" xlink:href="#m60f54800b3" y="101.905939"/>
      </g>
     </g>
     <g id="text_10">
      <!-- 300 -->
      <g transform="translate(38.446875 105.655939)scale(0.1 -0.1)">
       <defs>
        <path d="M 19.046875 40.96875 
L 26.265625 40.96875 
Q 31.734375 41.015625 34.9375 43.796875 
Q 38.140625 46.578125 38.140625 51.859375 
Q 38.140625 56.9375 35.46875 59.734375 
Q 32.8125 62.546875 27.34375 62.546875 
Q 22.5625 62.546875 19.484375 59.78125 
Q 16.40625 57.03125 16.40625 52.59375 
L 4.546875 52.59375 
Q 4.546875 58.0625 7.453125 62.546875 
Q 10.359375 67.046875 15.546875 69.5625 
Q 20.75 72.078125 27.203125 72.078125 
Q 37.84375 72.078125 43.921875 66.71875 
Q 50 61.375 50 51.859375 
Q 50 47.078125 46.9375 42.84375 
Q 43.890625 38.625 39.0625 36.46875 
Q 44.921875 34.46875 47.96875 30.171875 
Q 51.03125 25.875 51.03125 19.921875 
Q 51.03125 10.359375 44.453125 4.6875 
Q 37.890625 -0.984375 27.203125 -0.984375 
Q 16.9375 -0.984375 10.390625 4.484375 
Q 3.859375 9.96875 3.859375 19.046875 
L 15.71875 19.046875 
Q 15.71875 14.359375 18.859375 11.421875 
Q 22.015625 8.5 27.34375 8.5 
Q 32.859375 8.5 36.03125 11.421875 
Q 39.203125 14.359375 39.203125 19.921875 
Q 39.203125 25.53125 35.875 28.5625 
Q 32.5625 31.59375 26.03125 31.59375 
L 19.046875 31.59375 
z
" id="Roboto-Medium-51"/>
       </defs>
       <use xlink:href="#Roboto-Medium-51"/>
       <use x="56.835938" xlink:href="#Roboto-Medium-48"/>
       <use x="113.671875" xlink:href="#Roboto-Medium-48"/>
      </g>
     </g>
    </g>
    <g id="ytick_5">
     <g id="line2d_22">
      <g>
       <use style="stroke:#000000;stroke-width:0.8;" x="62.5" xlink:href="#m60f54800b3" y="51.806403"/>
      </g>
     </g>
     <g id="text_11">
      <!-- 400 -->
      <g transform="translate(38.446875 55.556403)scale(0.1 -0.1)">
       <defs>
        <path d="M 45.453125 25.34375 
L 54.296875 25.34375 
L 54.296875 15.828125 
L 45.453125 15.828125 
L 45.453125 0 
L 33.59375 0 
L 33.59375 15.828125 
L 2.875 15.828125 
L 2.546875 23.046875 
L 33.203125 71.09375 
L 45.453125 71.09375 
z
M 14.984375 25.34375 
L 33.59375 25.34375 
L 33.59375 55.03125 
L 32.71875 53.46875 
z
" id="Roboto-Medium-52"/>
       </defs>
       <use xlink:href="#Roboto-Medium-52"/>
       <use x="56.835938" xlink:href="#Roboto-Medium-48"/>
       <use x="113.671875" xlink:href="#Roboto-Medium-48"/>
      </g>
     </g>
    </g>
   </g>
   <g id="line2d_23">
    <path clip-path="url(#p9be84aedf6)" d="M 63.361111 252.204545 
L 64.222222 252.204545 
L 65.083333 249.699569 
L 65.944444 250.701559 
L 66.805556 250.701559 
L 67.666667 252.204545 
L 68.527778 250.200564 
L 69.388889 250.200564 
L 70.25 251.202555 
L 71.111111 250.701559 
L 71.972222 251.70355 
L 72.833333 252.204545 
L 73.694444 251.202555 
L 74.555556 250.701559 
L 75.416667 250.701559 
L 76.277778 251.202555 
L 77.138889 250.701559 
L 78 251.70355 
L 78.861111 250.200564 
L 79.722222 251.202555 
L 80.583333 250.200564 
L 81.444444 251.70355 
L 82.305556 248.697578 
L 83.166667 249.198573 
L 84.027778 247.695587 
L 84.888889 249.198573 
L 85.75 251.70355 
L 86.611111 248.697578 
L 87.472222 251.202555 
L 88.333333 249.198573 
L 89.194444 247.695587 
L 90.055556 241.683643 
L 90.916667 248.196583 
L 91.777778 250.200564 
L 92.638889 249.198573 
L 93.5 251.202555 
L 94.361111 251.202555 
L 95.222222 241.182648 
L 96.083333 250.701559 
L 96.944444 250.200564 
L 97.805556 251.202555 
L 98.666667 250.701559 
L 99.527778 249.198573 
L 100.388889 250.701559 
L 101.25 247.194592 
L 102.111111 246.192601 
L 102.972222 249.699569 
L 103.833333 247.194592 
L 104.694444 251.202555 
L 105.555556 246.192601 
L 106.416667 249.699569 
L 107.277778 249.699569 
L 108.138889 245.19061 
L 109 250.701559 
L 109.861111 248.697578 
L 110.722222 242.685634 
L 111.583333 246.693597 
L 112.444444 244.689615 
L 113.305556 243.687624 
L 114.166667 247.194592 
L 115.027778 244.18862 
L 115.888889 248.196583 
L 116.75 238.677671 
L 117.611111 239.679662 
L 119.333333 247.695587 
L 120.194444 247.194592 
L 121.055556 251.202555 
L 121.916667 248.697578 
L 122.777778 248.196583 
L 123.638889 239.679662 
L 124.5 245.691606 
L 125.361111 242.685634 
L 126.222222 242.685634 
L 127.083333 246.693597 
L 127.944444 245.19061 
L 129.666667 239.178666 
L 130.527778 241.182648 
L 131.388889 219.138852 
L 132.25 222.144824 
L 133.111111 219.639847 
L 133.972222 234.669708 
L 134.833333 221.142833 
L 135.694444 236.673689 
L 136.555556 219.138852 
L 137.416667 237.174685 
L 138.277778 229.158759 
L 140 231.162741 
L 140.861111 233.667717 
L 141.722222 227.154778 
L 142.583333 223.146815 
L 143.444444 213.126908 
L 144.305556 233.166722 
L 145.166667 223.146815 
L 146.027778 230.16075 
L 146.888889 233.667717 
L 147.75 222.64582 
L 148.611111 223.64781 
L 149.472222 205.110982 
L 150.333333 208.61795 
L 151.194444 199.600033 
L 152.916667 228.156768 
L 153.777778 219.138852 
L 154.638889 214.128898 
L 155.5 199.600033 
L 156.361111 198.097047 
L 157.222222 204.609987 
L 158.083333 210.120936 
L 158.944444 225.651792 
L 159.805556 186.574154 
L 160.666667 186.073159 
L 161.527778 199.600033 
L 162.388889 172.045289 
L 163.25 186.574154 
L 164.111111 173.548275 
L 164.972222 171.544293 
L 165.833333 145.99353 
L 166.694444 155.512442 
L 167.555556 166.53434 
L 168.416667 136.474618 
L 169.277778 175.051261 
L 170.138889 193.087094 
L 171 177.556238 
L 171.861111 137.977605 
L 172.722222 176.053251 
L 173.583333 200.101029 
L 175.305556 103.408925 
L 176.166667 202.606005 
L 177.027778 136.474618 
L 177.888889 172.546284 
L 178.75 185.071168 
L 179.611111 118.438786 
L 180.472222 187.576145 
L 181.333333 166.033344 
L 182.194444 181.5642 
L 183.055556 169.039317 
L 183.916667 170.542303 
L 184.777778 154.510451 
L 185.638889 192.586098 
L 187.361111 152.005474 
L 188.222222 175.051261 
L 189.083333 189.079131 
L 189.944444 179.560219 
L 190.805556 214.629894 
L 191.666667 177.556238 
L 192.527778 206.613968 
L 193.388889 191.083112 
L 194.25 216.13288 
L 195.111111 196.093066 
L 195.972222 211.623922 
L 196.833333 215.130889 
L 197.694444 191.584107 
L 198.555556 205.110982 
L 199.416667 214.629894 
L 200.277778 222.64582 
L 201.138889 203.607996 
L 202 220.641838 
L 203.722222 203.607996 
L 204.583333 206.112973 
L 205.444444 228.156768 
L 206.305556 239.679662 
L 207.166667 216.633875 
L 208.027778 220.140843 
L 208.888889 203.107001 
L 209.75 216.13288 
L 210.611111 212.625912 
L 211.472222 208.61795 
L 213.194444 234.168713 
L 214.055556 226.653782 
L 214.916667 201.103019 
L 215.777778 214.128898 
L 216.638889 213.126908 
L 217.5 227.154778 
L 218.361111 238.677671 
L 219.222222 215.631885 
L 220.083333 195.59207 
L 220.944444 230.16075 
L 221.805556 213.627903 
L 222.666667 205.611977 
L 223.527778 218.637857 
L 224.388889 223.64781 
L 225.25 212.625912 
L 226.972222 209.61994 
L 227.833333 202.10501 
L 228.694444 231.162741 
L 229.555556 227.655773 
L 230.416667 232.665727 
L 231.277778 230.16075 
L 232.138889 237.174685 
L 233 210.120936 
L 233.861111 194.59008 
L 234.722222 211.122926 
L 235.583333 200.602024 
L 236.444444 216.13288 
L 237.305556 216.633875 
L 238.166667 210.120936 
L 239.027778 211.122926 
L 239.888889 214.629894 
L 240.75 198.097047 
L 241.611111 223.64781 
L 242.472222 222.144824 
L 243.333333 222.144824 
L 244.194444 196.594061 
L 245.055556 205.110982 
L 245.916667 201.604015 
L 246.777778 192.586098 
L 247.638889 204.609987 
L 248.5 226.653782 
L 249.361111 208.116954 
L 250.222222 221.142833 
L 251.083333 212.124917 
L 251.944444 225.150796 
L 252.805556 214.128898 
L 253.666667 216.13288 
L 254.527778 214.128898 
L 255.388889 229.158759 
L 256.25 212.625912 
L 257.111111 216.633875 
L 257.972222 202.10501 
L 258.833333 222.64582 
L 259.694444 218.637857 
L 260.555556 230.661745 
L 261.416667 225.651792 
L 262.277778 205.110982 
L 263.138889 225.150796 
L 264 207.615959 
L 264.861111 220.140843 
L 265.722222 220.641838 
L 266.583333 220.140843 
L 267.444444 204.609987 
L 268.305556 200.602024 
L 269.166667 206.112973 
L 270.027778 196.093066 
L 270.888889 202.10501 
L 271.75 205.611977 
L 272.611111 229.659754 
L 273.472222 216.633875 
L 274.333333 198.598042 
L 275.194444 210.621931 
L 276.055556 225.651792 
L 276.916667 194.089084 
L 277.777778 203.607996 
L 278.638889 230.16075 
L 279.5 191.083112 
L 280.361111 201.604015 
L 281.222222 201.103019 
L 282.083333 185.071168 
L 282.944444 199.099038 
L 283.805556 192.085103 
L 284.666667 203.107001 
L 285.527778 198.097047 
L 286.388889 181.063205 
L 287.25 157.015428 
L 288.111111 191.083112 
L 288.972222 158.518414 
L 289.833333 184.069177 
L 290.694444 191.584107 
L 291.555556 179.560219 
L 292.416667 152.005474 
L 293.277778 152.50647 
L 294.138889 172.045289 
L 295 216.633875 
L 295.861111 174.04927 
L 296.722222 174.550265 
L 297.583333 165.031354 
L 298.444444 146.494526 
L 299.305556 151.504479 
L 300.166667 172.546284 
L 301.027778 214.629894 
L 301.888889 181.5642 
L 302.75 163.027372 
L 303.611111 189.079131 
L 304.472222 116.9358 
L 305.333333 145.99353 
L 306.194444 144.991539 
L 307.055556 167.035335 
L 307.916667 144.991539 
L 308.777778 196.093066 
L 309.638889 182.566191 
L 310.5 126.454711 
L 311.361111 132.466656 
L 312.222222 135.973623 
L 313.083333 173.047279 
L 313.944444 161.524386 
L 314.805556 169.540312 
L 315.666667 175.051261 
L 316.527778 135.472628 
L 317.388889 189.079131 
L 318.25 173.047279 
L 319.111111 177.556238 
L 319.972222 157.015428 
L 320.833333 197.596052 
L 321.694444 152.005474 
L 322.555556 200.101029 
L 323.416667 148.498507 
L 324.277778 186.073159 
L 325.138889 179.560219 
L 326 211.122926 
L 326.861111 205.110982 
L 327.722222 198.097047 
L 328.583333 218.637857 
L 329.444444 215.631885 
L 330.305556 221.142833 
L 331.166667 225.150796 
L 332.027778 224.649801 
L 332.888889 233.166722 
L 333.75 221.142833 
L 334.611111 223.64781 
L 335.472222 229.659754 
L 336.333333 221.643829 
L 337.194444 224.148806 
L 338.055556 235.671699 
L 338.916667 234.669708 
L 339.777778 240.681652 
L 340.638889 222.64582 
L 341.5 227.655773 
L 342.361111 236.673689 
L 343.222222 236.172694 
L 344.083333 237.174685 
L 344.944444 244.689615 
L 345.805556 238.677671 
L 346.666667 236.172694 
L 347.527778 237.174685 
L 348.388889 236.673689 
L 349.25 244.689615 
L 350.111111 245.691606 
L 350.972222 242.184638 
L 351.833333 243.687624 
L 352.694444 236.172694 
L 353.555556 238.176676 
L 354.416667 236.673689 
L 355.277778 241.683643 
L 356.138889 241.182648 
L 357 244.18862 
L 357.861111 240.681652 
L 358.722222 244.689615 
L 359.583333 236.172694 
L 360.444444 238.677671 
L 361.305556 239.679662 
L 362.166667 242.184638 
L 363.027778 238.677671 
L 363.888889 239.178666 
L 364.75 236.172694 
L 365.611111 229.158759 
L 366.472222 221.142833 
L 367.333333 230.16075 
L 368.194444 241.182648 
L 369.055556 237.174685 
L 369.916667 243.687624 
L 370.777778 229.659754 
L 371.638889 230.16075 
L 372.5 226.152787 
L 373.361111 218.136861 
L 374.222222 216.633875 
L 375.083333 239.679662 
L 375.944444 225.150796 
L 376.805556 216.13288 
L 377.666667 220.140843 
L 378.527778 229.659754 
L 379.388889 217.635866 
L 380.25 227.154778 
L 381.111111 222.64582 
L 381.972222 207.114964 
L 382.833333 211.623922 
L 383.694444 200.602024 
L 384.555556 208.61795 
L 385.416667 199.099038 
L 386.277778 195.59207 
L 387.138889 172.045289 
L 388 160.0214 
L 388.861111 182.566191 
L 389.722222 148.999502 
L 390.583333 179.059224 
L 391.444444 147.997512 
L 392.305556 171.544293 
L 393.166667 213.627903 
L 394.027778 182.065196 
L 394.888889 124.951725 
L 395.75 171.043298 
L 396.611111 157.015428 
L 397.472222 158.518414 
L 398.333333 182.065196 
L 399.194444 198.598042 
L 400.916667 130.96367 
L 401.777778 180.061214 
L 402.638889 171.043298 
L 403.5 127.957697 
L 404.361111 161.524386 
L 405.222222 201.103019 
L 406.083333 146.494526 
L 406.944444 157.015428 
L 407.805556 188.578135 
L 408.666667 123.949735 
L 409.527778 136.474618 
L 410.388889 191.584107 
L 411.25 185.572163 
L 412.111111 162.526377 
L 412.972222 119.440776 
L 413.833333 166.033344 
L 414.694444 148.498507 
L 415.555556 178.057233 
L 416.416667 179.560219 
L 417.277778 200.101029 
L 418.138889 174.04927 
L 419 164.530358 
L 419.861111 161.524386 
L 420.722222 143.488553 
L 421.583333 135.472628 
L 422.444444 162.025382 
L 423.305556 136.975614 
L 425.027778 79.862143 
L 425.888889 91.385036 
L 426.75 129.460683 
L 427.611111 109.921865 
L 428.472222 79.361148 
L 429.333333 154.510451 
L 430.194444 116.9358 
L 431.055556 84.371102 
L 431.916667 86.375083 
L 432.777778 46.295455 
L 433.638889 115.432814 
L 434.5 113.428832 
L 435.361111 135.472628 
L 436.222222 83.870106 
L 437.083333 132.967651 
L 437.944444 108.919874 
L 438.805556 108.418879 
L 439.666667 141.985567 
L 440.527778 143.989549 
L 441.388889 158.017419 
L 442.25 151.003484 
L 443.111111 113.929827 
L 443.972222 154.510451 
L 444.833333 66.335269 
L 445.694444 141.484572 
L 446.555556 145.492535 
L 447.416667 115.432814 
L 448.277778 145.492535 
L 449.138889 144.490544 
L 450 219.138852 
L 450 219.138852 
" style="fill:none;stroke:#000000;stroke-dasharray:1.5,2.475;stroke-dashoffset:0;stroke-opacity:0.5;stroke-width:1.5;"/>
   </g>
   <g id="line2d_24">
    <path clip-path="url(#p9be84aedf6)" d="M 62.5 251.70355 
L 63.361111 251.202555 
L 65.944444 251.202555 
L 66.805556 250.701559 
L 69.388889 250.701559 
L 70.25 251.202555 
L 75.416667 251.202555 
L 76.277778 250.701559 
L 78 250.701559 
L 78.861111 251.202555 
L 79.722222 250.701559 
L 80.583333 250.701559 
L 81.444444 249.699569 
L 83.166667 249.699569 
L 84.027778 249.198573 
L 84.888889 249.699569 
L 86.611111 249.699569 
L 87.472222 248.697578 
L 89.194444 247.695587 
L 90.916667 247.695587 
L 91.777778 248.697578 
L 92.638889 248.196583 
L 93.5 249.198573 
L 96.944444 249.198573 
L 98.666667 250.200564 
L 101.25 248.697578 
L 102.111111 248.697578 
L 102.972222 248.196583 
L 103.833333 248.196583 
L 104.694444 248.697578 
L 107.277778 248.697578 
L 108.138889 247.695587 
L 109 247.695587 
L 109.861111 246.693597 
L 110.722222 246.192601 
L 111.583333 246.192601 
L 112.444444 245.19061 
L 114.166667 245.19061 
L 115.027778 244.18862 
L 115.888889 243.687624 
L 117.611111 243.687624 
L 119.333333 245.691606 
L 120.194444 247.194592 
L 121.916667 247.194592 
L 123.638889 245.19061 
L 126.222222 243.687624 
L 127.083333 243.687624 
L 127.944444 243.186629 
L 129.666667 237.174685 
L 130.527778 232.665727 
L 131.388889 230.16075 
L 132.25 227.154778 
L 133.111111 226.653782 
L 133.972222 225.150796 
L 134.833333 227.154778 
L 135.694444 228.156768 
L 136.555556 229.659754 
L 137.416667 229.659754 
L 138.277778 230.661745 
L 139.138889 230.16075 
L 140 230.16075 
L 140.861111 227.655773 
L 141.722222 227.154778 
L 142.583333 225.651792 
L 144.305556 225.651792 
L 146.027778 226.653782 
L 146.888889 225.150796 
L 147.75 221.643829 
L 148.611111 217.635866 
L 149.472222 214.629894 
L 150.333333 213.126908 
L 151.194444 212.625912 
L 152.055556 213.126908 
L 152.916667 213.126908 
L 154.638889 211.122926 
L 155.5 209.118945 
L 156.361111 208.61795 
L 157.222222 205.611977 
L 158.083333 203.107001 
L 158.944444 202.606005 
L 160.666667 194.59008 
L 161.527778 189.079131 
L 162.388889 182.566191 
L 165.833333 162.025382 
L 166.694444 159.520405 
L 167.555556 161.524386 
L 168.416667 164.029363 
L 169.277778 165.031354 
L 170.138889 167.035335 
L 171 171.043298 
L 171.861111 172.546284 
L 172.722222 164.530358 
L 173.583333 164.029363 
L 174.444444 159.520405 
L 175.305556 161.023391 
L 176.166667 162.025382 
L 177.027778 155.512442 
L 177.888889 159.520405 
L 178.75 165.532349 
L 179.611111 164.029363 
L 180.472222 167.53633 
L 181.333333 168.538321 
L 182.194444 166.53434 
L 183.055556 173.548275 
L 184.777778 170.542303 
L 185.638889 169.540312 
L 186.5 171.544293 
L 187.361111 173.047279 
L 188.222222 179.560219 
L 189.083333 180.56221 
L 190.805556 191.083112 
L 191.666667 196.093066 
L 192.527778 197.596052 
L 193.388889 201.103019 
L 194.25 202.606005 
L 195.111111 204.609987 
L 195.972222 204.609987 
L 196.833333 206.613968 
L 198.555556 208.61795 
L 199.416667 210.120936 
L 200.277778 211.122926 
L 201.138889 212.625912 
L 202 212.124917 
L 202.861111 212.625912 
L 204.583333 217.635866 
L 205.444444 218.637857 
L 206.305556 218.637857 
L 207.166667 219.639847 
L 208.027778 219.138852 
L 208.888889 215.631885 
L 209.75 213.627903 
L 210.611111 215.631885 
L 211.472222 217.134871 
L 212.333333 218.136861 
L 213.194444 218.136861 
L 214.055556 217.635866 
L 214.916667 218.637857 
L 215.777778 220.140843 
L 216.638889 219.138852 
L 217.5 217.134871 
L 218.361111 219.639847 
L 219.222222 219.138852 
L 221.805556 214.629894 
L 222.666667 214.629894 
L 223.527778 216.13288 
L 224.388889 214.128898 
L 225.25 212.625912 
L 226.111111 214.629894 
L 226.972222 215.631885 
L 227.833333 217.134871 
L 228.694444 220.641838 
L 229.555556 225.150796 
L 230.416667 226.152787 
L 231.277778 225.150796 
L 232.138889 221.142833 
L 233 216.13288 
L 233.861111 212.625912 
L 234.722222 210.621931 
L 235.583333 208.116954 
L 236.444444 209.118945 
L 237.305556 211.623922 
L 238.166667 210.621931 
L 239.027778 212.124917 
L 240.75 214.128898 
L 241.611111 213.627903 
L 242.472222 212.625912 
L 243.333333 211.122926 
L 244.194444 209.118945 
L 245.055556 205.611977 
L 246.777778 204.609987 
L 247.638889 208.116954 
L 248.5 210.120936 
L 249.361111 213.627903 
L 250.222222 216.13288 
L 251.083333 217.635866 
L 251.944444 216.13288 
L 252.805556 218.136861 
L 253.666667 217.635866 
L 254.527778 218.136861 
L 255.388889 215.631885 
L 256.25 216.13288 
L 257.111111 216.13288 
L 257.972222 217.635866 
L 258.833333 218.136861 
L 259.694444 218.136861 
L 260.555556 219.639847 
L 261.416667 219.639847 
L 262.277778 218.637857 
L 263.138889 218.637857 
L 264.861111 215.631885 
L 265.722222 214.629894 
L 267.444444 209.61994 
L 268.305556 206.613968 
L 269.166667 204.108991 
L 270.027778 205.110982 
L 270.888889 207.615959 
L 272.611111 209.61994 
L 273.472222 212.625912 
L 274.333333 212.124917 
L 275.194444 211.122926 
L 276.055556 210.621931 
L 276.916667 208.61795 
L 277.777778 208.116954 
L 278.638889 206.613968 
L 279.5 202.10501 
L 280.361111 201.604015 
L 281.222222 199.099038 
L 282.083333 196.093066 
L 282.944444 196.594061 
L 283.805556 194.59008 
L 284.666667 190.081121 
L 285.527778 189.079131 
L 286.388889 183.067186 
L 287.25 180.56221 
L 288.111111 178.558228 
L 288.972222 177.055242 
L 289.833333 175.051261 
L 290.694444 174.04927 
L 291.555556 170.542303 
L 292.416667 175.051261 
L 293.277778 175.051261 
L 294.138889 174.550265 
L 295 175.051261 
L 295.861111 174.550265 
L 296.722222 172.045289 
L 297.583333 169.039317 
L 298.444444 168.037326 
L 299.305556 170.542303 
L 300.166667 172.045289 
L 301.027778 176.053251 
L 301.888889 173.548275 
L 302.75 170.542303 
L 304.472222 156.514433 
L 305.333333 151.504479 
L 306.194444 155.011447 
L 307.055556 157.015428 
L 307.916667 160.522395 
L 308.777778 159.520405 
L 309.638889 156.514433 
L 310.5 155.011447 
L 311.361111 154.510451 
L 312.222222 152.50647 
L 313.083333 154.009456 
L 313.944444 157.015428 
L 314.805556 163.528368 
L 315.666667 167.035335 
L 316.527778 168.037326 
L 317.388889 168.538321 
L 318.25 171.544293 
L 319.111111 170.542303 
L 319.972222 176.554247 
L 320.833333 173.047279 
L 321.694444 174.04927 
L 322.555556 174.550265 
L 323.416667 180.061214 
L 324.277778 182.566191 
L 325.138889 189.079131 
L 326 193.588089 
L 326.861111 202.10501 
L 328.583333 213.126908 
L 329.444444 215.631885 
L 331.166667 223.146815 
L 332.027778 224.148806 
L 332.888889 225.651792 
L 334.611111 225.651792 
L 335.472222 226.152787 
L 336.333333 227.154778 
L 337.194444 229.659754 
L 338.916667 230.661745 
L 339.777778 232.164731 
L 340.638889 233.166722 
L 341.5 233.166722 
L 342.361111 234.669708 
L 343.222222 235.170703 
L 344.083333 237.174685 
L 344.944444 238.176676 
L 345.805556 238.176676 
L 346.666667 239.178666 
L 348.388889 240.180657 
L 349.25 241.182648 
L 350.111111 241.683643 
L 350.972222 241.683643 
L 351.833333 241.182648 
L 352.694444 240.180657 
L 353.555556 239.679662 
L 354.416667 239.679662 
L 355.277778 240.180657 
L 356.138889 241.182648 
L 357.861111 241.182648 
L 358.722222 240.681652 
L 359.583333 240.681652 
L 362.166667 239.178666 
L 363.027778 238.176676 
L 363.888889 235.671699 
L 364.75 233.667717 
L 365.611111 232.665727 
L 366.472222 232.665727 
L 368.194444 233.667717 
L 369.055556 234.669708 
L 369.916667 234.669708 
L 370.777778 232.665727 
L 371.638889 229.158759 
L 372.5 228.156768 
L 373.361111 225.651792 
L 375.083333 223.64781 
L 375.944444 224.148806 
L 376.805556 223.64781 
L 377.666667 224.148806 
L 379.388889 221.142833 
L 380.25 220.140843 
L 381.111111 217.134871 
L 381.972222 213.627903 
L 382.833333 210.621931 
L 383.694444 206.112973 
L 386.277778 188.07714 
L 387.138889 180.56221 
L 388 175.552256 
L 388.861111 169.039317 
L 389.722222 166.033344 
L 391.444444 173.548275 
L 392.305556 170.041307 
L 393.166667 171.544293 
L 394.027778 168.538321 
L 396.611111 165.532349 
L 397.472222 166.53434 
L 398.333333 168.037326 
L 400.055556 169.039317 
L 401.777778 160.522395 
L 402.638889 161.023391 
L 403.5 160.522395 
L 404.361111 163.027372 
L 405.222222 164.530358 
L 406.083333 161.023391 
L 406.944444 160.522395 
L 407.805556 161.023391 
L 408.666667 160.0214 
L 409.527778 162.526377 
L 410.388889 160.0214 
L 411.25 158.017419 
L 412.111111 159.520405 
L 412.972222 161.524386 
L 413.833333 160.0214 
L 414.694444 163.528368 
L 415.555556 168.037326 
L 416.416667 174.550265 
L 417.277778 174.550265 
L 418.138889 173.047279 
L 419 166.033344 
L 419.861111 161.524386 
L 421.583333 144.991539 
L 423.305556 123.949735 
L 425.027778 112.927837 
L 425.888889 103.90992 
L 426.75 106.414897 
L 427.611111 109.420869 
L 428.472222 110.923855 
L 429.333333 109.921865 
L 430.194444 99.901958 
L 431.055556 97.396981 
L 431.916667 97.897976 
L 432.777778 96.39499 
L 433.638889 95.893995 
L 434.5 102.90793 
L 435.361111 107.917883 
L 436.222222 114.430823 
L 437.083333 116.434804 
L 438.805556 124.951725 
L 439.666667 134.470637 
L 440.527778 134.971632 
L 441.388889 140.482581 
L 442.25 135.472628 
L 443.111111 132.466656 
L 443.972222 130.462674 
L 444.833333 125.452721 
L 445.694444 125.452721 
L 446.555556 129.460683 
L 447.416667 138.979595 
L 448.277778 151.003484 
L 450 161.524386 
L 450 161.524386 
" style="fill:none;stroke:#b3220f;stroke-linecap:square;stroke-width:1.5;"/>
   </g>
   <g id="patch_3">
    <path d="M 62.5 262.5 
L 62.5 36 
" style="fill:none;stroke:#000000;stroke-linecap:square;stroke-linejoin:miter;stroke-width:0.8;"/>
   </g>
   <g id="patch_4">
    <path d="M 450 262.5 
L 450 36 
" style="fill:none;stroke:#000000;stroke-linecap:square;stroke-linejoin:miter;stroke-width:0.8;"/>
   </g>
   <g id="patch_5">
    <path d="M 62.5 262.5 
L 450 262.5 
" style="fill:none;stroke:#000000;stroke-linecap:square;stroke-linejoin:miter;stroke-width:0.8;"/>
   </g>
   <g id="patch_6">
    <path d="M 62.5 36 
L 450 36 
" style="fill:none;stroke:#000000;stroke-linecap:square;stroke-linejoin:miter;stroke-width:0.8;"/>
   </g>
   <g id="text_12">
    <!-- Puente Aranda | Casos nuevos: 2021-06-23 -->
    <g transform="translate(141.759687 30)scale(0.12 -0.12)">
     <defs>
      <path d="M 17.625 27.828125 
L 17.625 0 
L 8.25 0 
L 8.25 71.09375 
L 34.46875 71.09375 
Q 46.140625 71.09375 52.75 65.140625 
Q 59.375 59.1875 59.375 49.359375 
Q 59.375 39.015625 52.90625 33.421875 
Q 46.4375 27.828125 34.375 27.828125 
z
M 17.625 35.5 
L 34.46875 35.5 
Q 42 35.5 46 39.03125 
Q 50 42.578125 50 49.265625 
Q 50 55.609375 46 59.421875 
Q 42 63.234375 35.015625 63.375 
L 17.625 63.375 
z
" id="Roboto-Regular-80"/>
      <path d="M 39.453125 5.21875 
Q 34.1875 -0.984375 23.96875 -0.984375 
Q 15.53125 -0.984375 11.109375 3.921875 
Q 6.6875 8.84375 6.640625 18.453125 
L 6.640625 52.828125 
L 15.671875 52.828125 
L 15.671875 18.703125 
Q 15.671875 6.6875 25.4375 6.6875 
Q 35.796875 6.6875 39.203125 14.40625 
L 39.203125 52.828125 
L 48.25 52.828125 
L 48.25 0 
L 39.65625 0 
z
" id="Roboto-Regular-117"/>
      <path d="M 15.375 52.828125 
L 15.671875 46.1875 
Q 21.734375 53.8125 31.5 53.8125 
Q 48.25 53.8125 48.390625 34.90625 
L 48.390625 0 
L 39.359375 0 
L 39.359375 34.96875 
Q 39.3125 40.671875 36.75 43.40625 
Q 34.1875 46.140625 28.765625 46.140625 
Q 24.359375 46.140625 21.03125 43.796875 
Q 17.71875 41.453125 15.875 37.640625 
L 15.875 0 
L 6.84375 0 
L 6.84375 52.828125 
z
" id="Roboto-Regular-110"/>
      <path d="M 19.09375 65.625 
L 19.09375 52.828125 
L 28.953125 52.828125 
L 28.953125 45.84375 
L 19.09375 45.84375 
L 19.09375 13.09375 
Q 19.09375 9.90625 20.40625 8.3125 
Q 21.734375 6.734375 24.90625 6.734375 
Q 26.46875 6.734375 29.203125 7.328125 
L 29.203125 0 
Q 25.640625 -0.984375 22.265625 -0.984375 
Q 16.21875 -0.984375 13.140625 2.671875 
Q 10.0625 6.34375 10.0625 13.09375 
L 10.0625 45.84375 
L 0.4375 45.84375 
L 0.4375 52.828125 
L 10.0625 52.828125 
L 10.0625 65.625 
z
" id="Roboto-Regular-116"/>
      <path id="Roboto-Regular-32"/>
      <path d="M 47.515625 18.5625 
L 17.71875 18.5625 
L 11.03125 0 
L 1.375 0 
L 28.515625 71.09375 
L 36.71875 71.09375 
L 63.921875 0 
L 54.296875 0 
z
M 20.5625 26.265625 
L 44.734375 26.265625 
L 32.625 59.515625 
z
" id="Roboto-Regular-65"/>
      <path d="M 32.375 44.734375 
Q 30.328125 45.0625 27.9375 45.0625 
Q 19.046875 45.0625 15.875 37.5 
L 15.875 0 
L 6.84375 0 
L 6.84375 52.828125 
L 15.625 52.828125 
L 15.765625 46.734375 
Q 20.21875 53.8125 28.375 53.8125 
Q 31 53.8125 32.375 53.125 
z
" id="Roboto-Regular-114"/>
      <path d="M 4.640625 26.859375 
Q 4.640625 39.015625 10.390625 46.40625 
Q 16.15625 53.8125 25.484375 53.8125 
Q 34.765625 53.8125 40.1875 47.46875 
L 40.1875 75 
L 49.21875 75 
L 49.21875 0 
L 40.921875 0 
L 40.484375 5.671875 
Q 35.0625 -0.984375 25.390625 -0.984375 
Q 16.21875 -0.984375 10.421875 6.53125 
Q 4.640625 14.0625 4.640625 26.171875 
z
M 13.671875 25.828125 
Q 13.671875 16.84375 17.375 11.765625 
Q 21.09375 6.6875 27.640625 6.6875 
Q 36.234375 6.6875 40.1875 14.40625 
L 40.1875 38.671875 
Q 36.140625 46.140625 27.734375 46.140625 
Q 21.09375 46.140625 17.375 41.015625 
Q 13.671875 35.890625 13.671875 25.828125 
z
" id="Roboto-Regular-100"/>
      <path d="M 15.828125 -13.1875 
L 8.546875 -13.1875 
L 8.546875 71.09375 
L 15.828125 71.09375 
z
" id="Roboto-Regular-124"/>
      <path d="M 60.546875 22.5625 
Q 59.234375 11.28125 52.21875 5.140625 
Q 45.21875 -0.984375 33.59375 -0.984375 
Q 21 -0.984375 13.40625 8.046875 
Q 5.8125 17.09375 5.8125 32.234375 
L 5.8125 39.0625 
Q 5.8125 48.96875 9.34375 56.484375 
Q 12.890625 64.015625 19.375 68.046875 
Q 25.875 72.078125 34.421875 72.078125 
Q 45.75 72.078125 52.578125 65.75 
Q 59.421875 59.421875 60.546875 48.25 
L 51.125 48.25 
Q 49.90625 56.734375 45.828125 60.546875 
Q 41.75 64.359375 34.421875 64.359375 
Q 25.4375 64.359375 20.328125 57.71875 
Q 15.234375 51.078125 15.234375 38.8125 
L 15.234375 31.9375 
Q 15.234375 20.359375 20.0625 13.515625 
Q 24.90625 6.6875 33.59375 6.6875 
Q 41.40625 6.6875 45.578125 10.21875 
Q 49.75 13.765625 51.125 22.5625 
z
" id="Roboto-Regular-67"/>
      <path d="M 37.59375 14.015625 
Q 37.59375 17.671875 34.828125 19.703125 
Q 32.078125 21.734375 25.21875 23.1875 
Q 18.359375 24.65625 14.328125 26.703125 
Q 10.296875 28.765625 8.375 31.59375 
Q 6.453125 34.421875 6.453125 38.328125 
Q 6.453125 44.828125 11.9375 49.3125 
Q 17.4375 53.8125 25.984375 53.8125 
Q 34.96875 53.8125 40.546875 49.171875 
Q 46.140625 44.53125 46.140625 37.3125 
L 37.0625 37.3125 
Q 37.0625 41.015625 33.90625 43.703125 
Q 30.765625 46.390625 25.984375 46.390625 
Q 21.046875 46.390625 18.265625 44.234375 
Q 15.484375 42.09375 15.484375 38.625 
Q 15.484375 35.359375 18.0625 33.6875 
Q 20.65625 32.03125 27.421875 30.515625 
Q 34.1875 29 38.375 26.90625 
Q 42.578125 24.8125 44.59375 21.84375 
Q 46.625 18.890625 46.625 14.65625 
Q 46.625 7.5625 40.953125 3.28125 
Q 35.296875 -0.984375 26.265625 -0.984375 
Q 19.921875 -0.984375 15.03125 1.265625 
Q 10.15625 3.515625 7.390625 7.546875 
Q 4.640625 11.578125 4.640625 16.265625 
L 13.671875 16.265625 
Q 13.921875 11.71875 17.3125 9.046875 
Q 20.703125 6.390625 26.265625 6.390625 
Q 31.390625 6.390625 34.484375 8.46875 
Q 37.59375 10.546875 37.59375 14.015625 
z
" id="Roboto-Regular-115"/>
      <path d="M 4.4375 26.90625 
Q 4.4375 34.671875 7.484375 40.875 
Q 10.546875 47.078125 15.984375 50.4375 
Q 21.4375 53.8125 28.421875 53.8125 
Q 39.203125 53.8125 45.875 46.34375 
Q 52.546875 38.875 52.546875 26.46875 
L 52.546875 25.828125 
Q 52.546875 18.109375 49.578125 11.984375 
Q 46.625 5.859375 41.125 2.4375 
Q 35.640625 -0.984375 28.515625 -0.984375 
Q 17.78125 -0.984375 11.109375 6.484375 
Q 4.4375 13.96875 4.4375 26.265625 
z
M 13.53125 25.828125 
Q 13.53125 17.046875 17.609375 11.71875 
Q 21.6875 6.390625 28.515625 6.390625 
Q 35.40625 6.390625 39.453125 11.78125 
Q 43.5 17.1875 43.5 26.90625 
Q 43.5 35.59375 39.375 40.984375 
Q 35.25 46.390625 28.421875 46.390625 
Q 21.734375 46.390625 17.625 41.0625 
Q 13.53125 35.75 13.53125 25.828125 
z
" id="Roboto-Regular-111"/>
      <path d="M 24.265625 12.25 
L 37.359375 52.828125 
L 46.578125 52.828125 
L 27.640625 0 
L 20.75 0 
L 1.609375 52.828125 
L 10.84375 52.828125 
z
" id="Roboto-Regular-118"/>
      <path d="M 6.546875 4.734375 
Q 6.546875 7.078125 7.9375 8.640625 
Q 9.328125 10.203125 12.109375 10.203125 
Q 14.890625 10.203125 16.328125 8.640625 
Q 17.78125 7.078125 17.78125 4.734375 
Q 17.78125 2.484375 16.328125 0.96875 
Q 14.890625 -0.53125 12.109375 -0.53125 
Q 9.328125 -0.53125 7.9375 0.96875 
Q 6.546875 2.484375 6.546875 4.734375 
z
M 6.59375 47.84375 
Q 6.59375 50.1875 7.984375 51.75 
Q 9.375 53.3125 12.15625 53.3125 
Q 14.9375 53.3125 16.375 51.75 
Q 17.828125 50.1875 17.828125 47.84375 
Q 17.828125 45.59375 16.375 44.078125 
Q 14.9375 42.578125 12.15625 42.578125 
Q 9.375 42.578125 7.984375 44.078125 
Q 6.59375 45.59375 6.59375 47.84375 
z
" id="Roboto-Regular-58"/>
      <path d="M 52.484375 0 
L 5.90625 0 
L 5.90625 6.5 
L 30.515625 33.84375 
Q 35.984375 40.046875 38.0625 43.921875 
Q 40.140625 47.796875 40.140625 51.953125 
Q 40.140625 57.515625 36.765625 61.078125 
Q 33.40625 64.65625 27.78125 64.65625 
Q 21.046875 64.65625 17.3125 60.8125 
Q 13.578125 56.984375 13.578125 50.140625 
L 4.546875 50.140625 
Q 4.546875 59.96875 10.859375 66.015625 
Q 17.1875 72.078125 27.78125 72.078125 
Q 37.703125 72.078125 43.453125 66.875 
Q 49.21875 61.671875 49.21875 53.03125 
Q 49.21875 42.53125 35.84375 28.03125 
L 16.796875 7.375 
L 52.484375 7.375 
z
" id="Roboto-Regular-50"/>
      <path d="M 50.484375 30.328125 
Q 50.484375 14.453125 45.0625 6.734375 
Q 39.65625 -0.984375 28.125 -0.984375 
Q 16.75 -0.984375 11.28125 6.5625 
Q 5.8125 14.109375 5.609375 29.109375 
L 5.609375 41.15625 
Q 5.609375 56.84375 11.03125 64.453125 
Q 16.453125 72.078125 28.03125 72.078125 
Q 39.5 72.078125 44.921875 64.71875 
Q 50.34375 57.375 50.484375 42.046875 
z
M 41.453125 42.671875 
Q 41.453125 54.15625 38.234375 59.40625 
Q 35.015625 64.65625 28.03125 64.65625 
Q 21.09375 64.65625 17.921875 59.421875 
Q 14.75 54.203125 14.65625 43.359375 
L 14.65625 28.90625 
Q 14.65625 17.390625 18 11.890625 
Q 21.34375 6.390625 28.125 6.390625 
Q 34.8125 6.390625 38.0625 11.5625 
Q 41.3125 16.75 41.453125 27.875 
z
" id="Roboto-Regular-48"/>
      <path d="M 35.59375 0 
L 26.515625 0 
L 26.515625 60.203125 
L 8.296875 53.515625 
L 8.296875 61.71875 
L 34.1875 71.4375 
L 35.59375 71.4375 
z
" id="Roboto-Regular-49"/>
      <path d="M 25.640625 26.515625 
L 1.8125 26.515625 
L 1.8125 33.890625 
L 25.640625 33.890625 
z
" id="Roboto-Regular-45"/>
      <path d="M 41.359375 71.140625 
L 41.359375 63.484375 
L 39.703125 63.484375 
Q 29.15625 63.28125 22.90625 57.21875 
Q 16.65625 51.171875 15.671875 40.1875 
Q 21.296875 46.625 31 46.625 
Q 40.28125 46.625 45.828125 40.078125 
Q 51.375 33.546875 51.375 23.1875 
Q 51.375 12.203125 45.390625 5.609375 
Q 39.40625 -0.984375 29.34375 -0.984375 
Q 19.140625 -0.984375 12.796875 6.859375 
Q 6.453125 14.703125 6.453125 27.046875 
L 6.453125 30.515625 
Q 6.453125 50.140625 14.8125 60.515625 
Q 23.1875 70.90625 39.75 71.140625 
z
M 29.5 39.109375 
Q 24.859375 39.109375 20.953125 36.328125 
Q 17.046875 33.546875 15.53125 29.34375 
L 15.53125 26.03125 
Q 15.53125 17.234375 19.484375 11.859375 
Q 23.4375 6.5 29.34375 6.5 
Q 35.453125 6.5 38.9375 10.984375 
Q 42.4375 15.484375 42.4375 22.75 
Q 42.4375 30.078125 38.890625 34.59375 
Q 35.359375 39.109375 29.5 39.109375 
z
" id="Roboto-Regular-54"/>
      <path d="M 19.046875 39.9375 
L 25.828125 39.9375 
Q 32.234375 40.046875 35.890625 43.3125 
Q 39.546875 46.578125 39.546875 52.15625 
Q 39.546875 64.65625 27.09375 64.65625 
Q 21.234375 64.65625 17.75 61.296875 
Q 14.265625 57.953125 14.265625 52.4375 
L 5.21875 52.4375 
Q 5.21875 60.890625 11.390625 66.484375 
Q 17.578125 72.078125 27.09375 72.078125 
Q 37.15625 72.078125 42.859375 66.75 
Q 48.578125 61.421875 48.578125 51.953125 
Q 48.578125 47.3125 45.578125 42.96875 
Q 42.578125 38.625 37.40625 36.46875 
Q 43.265625 34.625 46.453125 30.328125 
Q 49.65625 26.03125 49.65625 19.828125 
Q 49.65625 10.25 43.40625 4.625 
Q 37.15625 -0.984375 27.140625 -0.984375 
Q 17.140625 -0.984375 10.859375 4.4375 
Q 4.59375 9.859375 4.59375 18.75 
L 13.671875 18.75 
Q 13.671875 13.140625 17.328125 9.765625 
Q 21 6.390625 27.15625 6.390625 
Q 33.6875 6.390625 37.15625 9.8125 
Q 40.625 13.234375 40.625 19.625 
Q 40.625 25.828125 36.8125 29.140625 
Q 33.015625 32.46875 25.828125 32.5625 
L 19.046875 32.5625 
z
" id="Roboto-Regular-51"/>
     </defs>
     <use xlink:href="#Roboto-Regular-80"/>
     <use x="63.085938" xlink:href="#Roboto-Regular-117"/>
     <use x="118.212891" xlink:href="#Roboto-Regular-101"/>
     <use x="171.191406" xlink:href="#Roboto-Regular-110"/>
     <use x="226.367188" xlink:href="#Roboto-Regular-116"/>
     <use x="259.033203" xlink:href="#Roboto-Regular-101"/>
     <use x="312.011719" xlink:href="#Roboto-Regular-32"/>
     <use x="336.767578" xlink:href="#Roboto-Regular-65"/>
     <use x="402.001953" xlink:href="#Roboto-Regular-114"/>
     <use x="435.839844" xlink:href="#Roboto-Regular-97"/>
     <use x="490.234375" xlink:href="#Roboto-Regular-110"/>
     <use x="545.410156" xlink:href="#Roboto-Regular-100"/>
     <use x="601.806641" xlink:href="#Roboto-Regular-97"/>
     <use x="656.201172" xlink:href="#Roboto-Regular-32"/>
     <use x="680.957031" xlink:href="#Roboto-Regular-124"/>
     <use x="705.322266" xlink:href="#Roboto-Regular-32"/>
     <use x="730.078125" xlink:href="#Roboto-Regular-67"/>
     <use x="795.166016" xlink:href="#Roboto-Regular-97"/>
     <use x="849.560547" xlink:href="#Roboto-Regular-115"/>
     <use x="901.123047" xlink:href="#Roboto-Regular-111"/>
     <use x="958.154297" xlink:href="#Roboto-Regular-115"/>
     <use x="1009.716797" xlink:href="#Roboto-Regular-32"/>
     <use x="1034.472656" xlink:href="#Roboto-Regular-110"/>
     <use x="1089.648438" xlink:href="#Roboto-Regular-117"/>
     <use x="1144.775391" xlink:href="#Roboto-Regular-101"/>
     <use x="1197.753906" xlink:href="#Roboto-Regular-118"/>
     <use x="1246.191406" xlink:href="#Roboto-Regular-111"/>
     <use x="1303.222656" xlink:href="#Roboto-Regular-115"/>
     <use x="1354.785156" xlink:href="#Roboto-Regular-58"/>
     <use x="1379.003906" xlink:href="#Roboto-Regular-32"/>
     <use x="1403.759766" xlink:href="#Roboto-Regular-50"/>
     <use x="1459.912109" xlink:href="#Roboto-Regular-48"/>
     <use x="1516.064453" xlink:href="#Roboto-Regular-50"/>
     <use x="1572.216797" xlink:href="#Roboto-Regular-49"/>
     <use x="1628.369141" xlink:href="#Roboto-Regular-45"/>
     <use x="1655.957031" xlink:href="#Roboto-Regular-48"/>
     <use x="1712.109375" xlink:href="#Roboto-Regular-54"/>
     <use x="1768.261719" xlink:href="#Roboto-Regular-45"/>
     <use x="1795.849609" xlink:href="#Roboto-Regular-50"/>
     <use x="1852.001953" xlink:href="#Roboto-Regular-51"/>
    </g>
   </g>
   <g id="legend_1">
    <g id="patch_7">
     <path d="M 69.5 73.75625 
L 224.726562 73.75625 
Q 226.726562 73.75625 226.726562 71.75625 
L 226.726562 43 
Q 226.726562 41 224.726562 41 
L 69.5 41 
Q 67.5 41 67.5 43 
L 67.5 71.75625 
Q 67.5 73.75625 69.5 73.75625 
z
" style="fill:#ffffff;opacity:0.8;stroke:#cccccc;stroke-linejoin:miter;"/>
    </g>
    <g id="line2d_25">
     <path d="M 71.5 49 
L 91.5 49 
" style="fill:none;stroke:#000000;stroke-dasharray:1.5,2.475;stroke-dashoffset:0;stroke-opacity:0.5;stroke-width:1.5;"/>
    </g>
    <g id="line2d_26"/>
    <g id="text_13">
     <!-- Actual -->
     <g transform="translate(99.5 52.5)scale(0.1 -0.1)">
      <use xlink:href="#Roboto-Medium-65"/>
      <use x="66.552734" xlink:href="#Roboto-Medium-99"/>
      <use x="118.896484" xlink:href="#Roboto-Medium-116"/>
      <use x="152.148438" xlink:href="#Roboto-Medium-117"/>
      <use x="207.714844" xlink:href="#Roboto-Medium-97"/>
      <use x="261.816406" xlink:href="#Roboto-Medium-108"/>
     </g>
    </g>
    <g id="line2d_27">
     <path d="M 71.5 63.995313 
L 91.5 63.995313 
" style="fill:none;stroke:#b3220f;stroke-linecap:square;stroke-width:1.5;"/>
    </g>
    <g id="line2d_28"/>
    <g id="text_14">
     <!-- Promedio semanal (7 das)  -->
     <g transform="translate(99.5 67.495313)scale(0.1 -0.1)">
      <defs>
       <path d="M 19.578125 26.421875 
L 19.578125 0 
L 7.234375 0 
L 7.234375 71.09375 
L 34.421875 71.09375 
Q 46.34375 71.09375 53.34375 64.890625 
Q 60.359375 58.6875 60.359375 48.484375 
Q 60.359375 38.03125 53.484375 32.21875 
Q 46.625 26.421875 34.28125 26.421875 
z
M 19.578125 36.328125 
L 34.421875 36.328125 
Q 41.015625 36.328125 44.484375 39.421875 
Q 47.953125 42.53125 47.953125 48.390625 
Q 47.953125 54.15625 44.4375 57.59375 
Q 40.921875 61.03125 34.765625 61.140625 
L 19.578125 61.140625 
z
" id="Roboto-Medium-80"/>
       <path d="M 3.859375 26.90625 
Q 3.859375 34.671875 6.9375 40.890625 
Q 10.015625 47.125 15.578125 50.46875 
Q 21.140625 53.8125 28.375 53.8125 
Q 39.0625 53.8125 45.71875 46.921875 
Q 52.390625 40.046875 52.9375 28.65625 
L 52.984375 25.875 
Q 52.984375 18.0625 49.96875 11.90625 
Q 46.96875 5.765625 41.375 2.390625 
Q 35.796875 -0.984375 28.46875 -0.984375 
Q 17.28125 -0.984375 10.5625 6.46875 
Q 3.859375 13.921875 3.859375 26.3125 
z
M 15.71875 25.875 
Q 15.71875 17.71875 19.09375 13.109375 
Q 22.46875 8.5 28.46875 8.5 
Q 34.46875 8.5 37.8125 13.1875 
Q 41.15625 17.875 41.15625 26.90625 
Q 41.15625 34.90625 37.71875 39.59375 
Q 34.28125 44.28125 28.375 44.28125 
Q 22.5625 44.28125 19.140625 39.671875 
Q 15.71875 35.0625 15.71875 25.875 
z
" id="Roboto-Medium-111"/>
       <path d="M 17.234375 52.828125 
L 17.578125 47.3125 
Q 23.140625 53.8125 32.8125 53.8125 
Q 43.40625 53.8125 47.3125 45.703125 
Q 53.078125 53.8125 63.53125 53.8125 
Q 72.265625 53.8125 76.53125 48.96875 
Q 80.8125 44.140625 80.90625 34.71875 
L 80.90625 0 
L 69.046875 0 
L 69.046875 34.375 
Q 69.046875 39.40625 66.84375 41.75 
Q 64.65625 44.09375 59.578125 44.09375 
Q 55.515625 44.09375 52.953125 41.921875 
Q 50.390625 39.75 49.359375 36.234375 
L 49.421875 0 
L 37.546875 0 
L 37.546875 34.765625 
Q 37.3125 44.09375 28.03125 44.09375 
Q 20.90625 44.09375 17.921875 38.28125 
L 17.921875 0 
L 6.0625 0 
L 6.0625 52.828125 
z
" id="Roboto-Medium-109"/>
       <path d="M 29.34375 -0.984375 
Q 18.0625 -0.984375 11.046875 6.125 
Q 4.046875 13.234375 4.046875 25.046875 
L 4.046875 26.515625 
Q 4.046875 34.421875 7.09375 40.640625 
Q 10.15625 46.875 15.671875 50.34375 
Q 21.1875 53.8125 27.984375 53.8125 
Q 38.765625 53.8125 44.640625 46.921875 
Q 50.53125 40.046875 50.53125 27.4375 
L 50.53125 22.65625 
L 16.015625 22.65625 
Q 16.546875 16.109375 20.375 12.296875 
Q 24.21875 8.5 30.03125 8.5 
Q 38.1875 8.5 43.3125 15.09375 
L 49.703125 8.984375 
Q 46.53125 4.25 41.234375 1.625 
Q 35.9375 -0.984375 29.34375 -0.984375 
z
M 27.9375 44.28125 
Q 23.046875 44.28125 20.046875 40.859375 
Q 17.046875 37.453125 16.21875 31.34375 
L 38.8125 31.34375 
L 38.8125 32.234375 
Q 38.421875 38.1875 35.640625 41.234375 
Q 32.859375 44.28125 27.9375 44.28125 
z
" id="Roboto-Medium-101"/>
       <path d="M 3.859375 26.8125 
Q 3.859375 39.015625 9.515625 46.40625 
Q 15.1875 53.8125 24.703125 53.8125 
Q 33.109375 53.8125 38.28125 47.953125 
L 38.28125 75 
L 50.140625 75 
L 50.140625 0 
L 39.40625 0 
L 38.8125 5.46875 
Q 33.5 -0.984375 24.609375 -0.984375 
Q 15.328125 -0.984375 9.59375 6.484375 
Q 3.859375 13.96875 3.859375 26.8125 
z
M 15.71875 25.78125 
Q 15.71875 17.71875 18.8125 13.203125 
Q 21.921875 8.6875 27.640625 8.6875 
Q 34.90625 8.6875 38.28125 15.1875 
L 38.28125 37.75 
Q 35.015625 44.09375 27.734375 44.09375 
Q 21.96875 44.09375 18.84375 39.53125 
Q 15.71875 34.96875 15.71875 25.78125 
z
" id="Roboto-Medium-100"/>
       <path d="M 18.703125 0 
L 6.84375 0 
L 6.84375 52.828125 
L 18.703125 52.828125 
z
M 6.109375 66.546875 
Q 6.109375 69.28125 7.84375 71.09375 
Q 9.578125 72.90625 12.796875 72.90625 
Q 16.015625 72.90625 17.765625 71.09375 
Q 19.53125 69.28125 19.53125 66.546875 
Q 19.53125 63.875 17.765625 62.078125 
Q 16.015625 60.296875 12.796875 60.296875 
Q 9.578125 60.296875 7.84375 62.078125 
Q 6.109375 63.875 6.109375 66.546875 
z
" id="Roboto-Medium-105"/>
       <path id="Roboto-Medium-32"/>
       <path d="M 35.6875 14.359375 
Q 35.6875 17.53125 33.078125 19.1875 
Q 30.46875 20.84375 24.40625 22.109375 
Q 18.359375 23.390625 14.3125 25.34375 
Q 5.421875 29.640625 5.421875 37.796875 
Q 5.421875 44.625 11.171875 49.21875 
Q 16.9375 53.8125 25.828125 53.8125 
Q 35.296875 53.8125 41.125 49.125 
Q 46.96875 44.4375 46.96875 36.96875 
L 35.109375 36.96875 
Q 35.109375 40.375 32.5625 42.640625 
Q 30.03125 44.921875 25.828125 44.921875 
Q 21.921875 44.921875 19.453125 43.109375 
Q 17 41.3125 17 38.28125 
Q 17 35.546875 19.28125 34.03125 
Q 21.578125 32.515625 28.5625 30.96875 
Q 35.546875 29.4375 39.515625 27.3125 
Q 43.5 25.203125 45.421875 22.21875 
Q 47.359375 19.234375 47.359375 14.984375 
Q 47.359375 7.859375 41.453125 3.4375 
Q 35.546875 -0.984375 25.984375 -0.984375 
Q 19.484375 -0.984375 14.40625 1.359375 
Q 9.328125 3.71875 6.484375 7.8125 
Q 3.65625 11.921875 3.65625 16.65625 
L 15.1875 16.65625 
Q 15.4375 12.453125 18.359375 10.171875 
Q 21.296875 7.90625 26.125 7.90625 
Q 30.8125 7.90625 33.25 9.6875 
Q 35.6875 11.46875 35.6875 14.359375 
z
" id="Roboto-Medium-115"/>
       <path d="M 6.25 28.90625 
Q 6.25 40.1875 9.28125 50.3125 
Q 12.3125 60.453125 18.171875 68.4375 
Q 24.03125 76.421875 30.5625 79.640625 
L 32.90625 72.703125 
Q 26.03125 67.484375 21.75 56.765625 
Q 17.484375 46.046875 17.09375 32.234375 
L 17.046875 28.03125 
Q 17.046875 13.234375 21.21875 1.625 
Q 25.390625 -9.96875 32.90625 -16.015625 
L 30.5625 -22.609375 
Q 24.03125 -19.390625 18.140625 -11.359375 
Q 12.25 -3.328125 9.25 6.75 
Q 6.25 16.84375 6.25 28.90625 
z
" id="Roboto-Medium-40"/>
       <path d="M 52.640625 64.5 
L 24.21875 0 
L 11.765625 0 
L 40.140625 61.578125 
L 3.375 61.578125 
L 3.375 71.09375 
L 52.640625 71.09375 
z
" id="Roboto-Medium-55"/>
       <path d="M 18.84375 0 
L 6.984375 0 
L 6.984375 52.828125 
L 18.84375 52.828125 
z
M 16.609375 74.65625 
L 30.125 74.65625 
L 16.609375 59.859375 
L 7.078125 59.859375 
z
" id="Roboto-Medium-237"/>
       <path d="M 28.953125 28.125 
Q 28.953125 17.28125 25.96875 7.203125 
Q 23 -2.875 16.9375 -11.15625 
Q 10.890625 -19.4375 4.296875 -22.609375 
L 1.953125 -16.015625 
Q 9.28125 -10.359375 13.546875 1.28125 
Q 17.828125 12.9375 17.828125 27.875 
L 17.828125 29 
Q 17.828125 42.578125 14.109375 53.734375 
Q 10.40625 64.890625 3.46875 71.625 
L 1.953125 73 
L 4.296875 79.640625 
Q 10.546875 76.609375 16.40625 68.890625 
Q 22.265625 61.1875 25.390625 51.640625 
Q 28.515625 42.09375 28.90625 31.9375 
z
" id="Roboto-Medium-41"/>
      </defs>
      <use xlink:href="#Roboto-Medium-80"/>
      <use x="63.916016" xlink:href="#Roboto-Medium-114"/>
      <use x="99.072266" xlink:href="#Roboto-Medium-111"/>
      <use x="156.005859" xlink:href="#Roboto-Medium-109"/>
      <use x="243.017578" xlink:href="#Roboto-Medium-101"/>
      <use x="296.679688" xlink:href="#Roboto-Medium-100"/>
      <use x="353.125" xlink:href="#Roboto-Medium-105"/>
      <use x="378.662109" xlink:href="#Roboto-Medium-111"/>
      <use x="435.595703" xlink:href="#Roboto-Medium-32"/>
      <use x="460.498047" xlink:href="#Roboto-Medium-115"/>
      <use x="512.109375" xlink:href="#Roboto-Medium-101"/>
      <use x="565.771484" xlink:href="#Roboto-Medium-109"/>
      <use x="652.783203" xlink:href="#Roboto-Medium-97"/>
      <use x="706.884766" xlink:href="#Roboto-Medium-110"/>
      <use x="762.5" xlink:href="#Roboto-Medium-97"/>
      <use x="816.601562" xlink:href="#Roboto-Medium-108"/>
      <use x="842.138672" xlink:href="#Roboto-Medium-32"/>
      <use x="867.041016" xlink:href="#Roboto-Medium-40"/>
      <use x="901.904297" xlink:href="#Roboto-Medium-55"/>
      <use x="958.740234" xlink:href="#Roboto-Medium-32"/>
      <use x="983.642578" xlink:href="#Roboto-Medium-100"/>
      <use x="1040.087891" xlink:href="#Roboto-Medium-237"/>
      <use x="1066.357422" xlink:href="#Roboto-Medium-97"/>
      <use x="1120.458984" xlink:href="#Roboto-Medium-115"/>
      <use x="1172.070312" xlink:href="#Roboto-Medium-41"/>
      <use x="1207.324219" xlink:href="#Roboto-Medium-32"/>
     </g>
    </g>
   </g>
  </g>
 </g>
 <defs>
  <clipPath id="p9be84aedf6">
   <rect height="226.5" width="387.5" x="62.5" y="36"/>
  </clipPath>
 </defs>
</svg>
