<?xml version="1.0" encoding="utf-8" standalone="no"?>
<!DOCTYPE svg PUBLIC "-//W3C//DTD SVG 1.1//EN"
  "http://www.w3.org/Graphics/SVG/1.1/DTD/svg11.dtd">
<!-- Created with matplotlib (https://matplotlib.org/) -->
<svg height="300pt" version="1.1" viewBox="0 0 500 300" width="500pt" xmlns="http://www.w3.org/2000/svg" xmlns:xlink="http://www.w3.org/1999/xlink">
 <metadata>
  <rdf:RDF xmlns:cc="http://creativecommons.org/ns#" xmlns:dc="http://purl.org/dc/elements/1.1/" xmlns:rdf="http://www.w3.org/1999/02/22-rdf-syntax-ns#">
   <cc:Work>
    <dc:type rdf:resource="http://purl.org/dc/dcmitype/StillImage"/>
    <dc:date>2021-07-24T14:52:14.177380</dc:date>
    <dc:format>image/svg+xml</dc:format>
    <dc:creator>
     <cc:Agent>
      <dc:title>Matplotlib v3.3.4, https://matplotlib.org/</dc:title>
     </cc:Agent>
    </dc:creator>
   </cc:Work>
  </rdf:RDF>
 </metadata>
 <defs>
  <style type="text/css">*{stroke-linecap:butt;stroke-linejoin:round;}</style>
 </defs>
 <g id="figure_1">
  <g id="patch_1">
   <path d="M 0 300 
L 500 300 
L 500 0 
L 0 0 
z
" style="fill:#ffffff;"/>
  </g>
  <g id="axes_1">
   <g id="patch_2">
    <path d="M 62.5 262.5 
L 450 262.5 
L 450 27 
L 62.5 27 
z
" style="fill:#ffffff;"/>
   </g>
   <g id="matplotlib.axis_1">
    <g id="xtick_1">
     <g id="line2d_1">
      <defs>
       <path d="M 0 0 
L 0 3.5 
" id="m6b4d50bde8" style="stroke:#555555;stroke-width:0.8;"/>
      </defs>
      <g>
       <use style="fill:#555555;stroke:#555555;stroke-width:0.8;" x="62.5" xlink:href="#m6b4d50bde8" y="262.5"/>
      </g>
     </g>
    </g>
    <g id="xtick_2">
     <g id="line2d_2">
      <g>
       <use style="fill:#555555;stroke:#555555;stroke-width:0.8;" x="64.117954" xlink:href="#m6b4d50bde8" y="262.5"/>
      </g>
     </g>
     <g id="text_1">
      <!-- Apr -->
      <g style="fill:#555555;" transform="translate(56.248423 276.640625)scale(0.1 -0.1)">
       <defs>
        <path d="M 20.09375 29.5 
L 32.203125 62.796875 
L 32.40625 62.796875 
L 44.296875 29.5 
z
M 27.203125 71.40625 
L -0.59375 0 
L 9.09375 0 
L 17.09375 21.5 
L 47.296875 21.5 
L 55.09375 0 
L 65.59375 0 
L 37.703125 71.40625 
z
" id="HelveticaNeue-65"/>
        <path d="M 6.703125 51.703125 
L 6.703125 -19.703125 
L 15.203125 -19.703125 
L 15.203125 6.90625 
L 15.40625 6.90625 
Q 16.796875 4.59375 18.84375 3.046875 
Q 20.90625 1.5 23.203125 0.59375 
Q 25.5 -0.296875 27.84375 -0.6875 
Q 30.203125 -1.09375 32.09375 -1.09375 
Q 38 -1.09375 42.453125 1 
Q 46.90625 3.09375 49.84375 6.75 
Q 52.796875 10.40625 54.25 15.296875 
Q 55.703125 20.203125 55.703125 25.703125 
Q 55.703125 31.203125 54.203125 36.09375 
Q 52.703125 41 49.75 44.75 
Q 46.796875 48.5 42.34375 50.703125 
Q 37.90625 52.90625 31.90625 52.90625 
Q 26.5 52.90625 22 50.953125 
Q 17.5 49 15.40625 44.703125 
L 15.203125 44.703125 
L 15.203125 51.703125 
z
M 46.703125 26.296875 
Q 46.703125 22.5 45.890625 18.890625 
Q 45.09375 15.296875 43.296875 12.5 
Q 41.5 9.703125 38.546875 8 
Q 35.59375 6.296875 31.203125 6.296875 
Q 26.796875 6.296875 23.6875 7.9375 
Q 20.59375 9.59375 18.640625 12.296875 
Q 16.703125 15 15.796875 18.546875 
Q 14.90625 22.09375 14.90625 25.90625 
Q 14.90625 29.5 15.75 33 
Q 16.59375 36.5 18.5 39.25 
Q 20.40625 42 23.40625 43.703125 
Q 26.40625 45.40625 30.703125 45.40625 
Q 34.796875 45.40625 37.84375 43.796875 
Q 40.90625 42.203125 42.84375 39.5 
Q 44.796875 36.796875 45.75 33.34375 
Q 46.703125 29.90625 46.703125 26.296875 
z
" id="HelveticaNeue-112"/>
        <path d="M 6.09375 51.703125 
L 6.09375 0 
L 14.59375 0 
L 14.59375 23 
Q 14.59375 28 15.59375 31.84375 
Q 16.59375 35.703125 18.796875 38.390625 
Q 21 41.09375 24.59375 42.5 
Q 28.203125 43.90625 33.296875 43.90625 
L 33.296875 52.90625 
Q 26.40625 53.09375 21.90625 50.09375 
Q 17.40625 47.09375 14.296875 40.796875 
L 14.09375 40.796875 
L 14.09375 51.703125 
z
" id="HelveticaNeue-114"/>
       </defs>
       <use xlink:href="#HelveticaNeue-65"/>
       <use x="64.799988" xlink:href="#HelveticaNeue-112"/>
       <use x="124.099976" xlink:href="#HelveticaNeue-114"/>
      </g>
     </g>
    </g>
    <g id="xtick_3">
     <g id="line2d_3">
      <g>
       <use style="fill:#555555;stroke:#555555;stroke-width:0.8;" x="137.734864" xlink:href="#m6b4d50bde8" y="262.5"/>
      </g>
     </g>
     <g id="text_2">
      <!-- Jul -->
      <g style="fill:#555555;" transform="translate(131.249708 276.640625)scale(0.1 -0.1)">
       <defs>
        <path d="M 44.09375 17.796875 
L 44.09375 71.40625 
L 34.59375 71.40625 
L 34.59375 19.203125 
Q 34.59375 13.296875 32.140625 9.796875 
Q 29.703125 6.296875 23.203125 6.296875 
Q 19.703125 6.296875 17.453125 7.34375 
Q 15.203125 8.40625 13.953125 10.296875 
Q 12.703125 12.203125 12.203125 14.796875 
Q 11.703125 17.40625 11.703125 20.5 
L 11.703125 23.5 
L 2.203125 23.5 
L 2.203125 19.09375 
Q 2.203125 8.90625 7.59375 3.65625 
Q 13 -1.59375 23 -1.59375 
Q 29 -1.59375 33.046875 0.046875 
Q 37.09375 1.703125 39.546875 4.453125 
Q 42 7.203125 43.046875 10.703125 
Q 44.09375 14.203125 44.09375 17.796875 
z
" id="HelveticaNeue-74"/>
        <path d="M 49.203125 0 
L 49.203125 51.703125 
L 40.703125 51.703125 
L 40.703125 22.5 
Q 40.703125 19 39.75 16.046875 
Q 38.796875 13.09375 36.890625 10.890625 
Q 35 8.703125 32.140625 7.5 
Q 29.296875 6.296875 25.40625 6.296875 
Q 20.5 6.296875 17.703125 9.09375 
Q 14.90625 11.90625 14.90625 16.703125 
L 14.90625 51.703125 
L 6.40625 51.703125 
L 6.40625 17.703125 
Q 6.40625 13.5 7.25 10.046875 
Q 8.09375 6.59375 10.1875 4.09375 
Q 12.296875 1.59375 15.6875 0.25 
Q 19.09375 -1.09375 24.203125 -1.09375 
Q 29.90625 -1.09375 34.09375 1.15625 
Q 38.296875 3.40625 41 8.203125 
L 41.203125 8.203125 
L 41.203125 0 
z
" id="HelveticaNeue-117"/>
        <path d="M 6.90625 71.40625 
L 6.90625 0 
L 15.40625 0 
L 15.40625 71.40625 
z
" id="HelveticaNeue-108"/>
       </defs>
       <use xlink:href="#HelveticaNeue-74"/>
       <use x="51.899994" xlink:href="#HelveticaNeue-117"/>
       <use x="107.499985" xlink:href="#HelveticaNeue-108"/>
      </g>
     </g>
    </g>
    <g id="xtick_4">
     <g id="line2d_4">
      <g>
       <use style="fill:#555555;stroke:#555555;stroke-width:0.8;" x="212.160752" xlink:href="#m6b4d50bde8" y="262.5"/>
      </g>
     </g>
     <g id="text_3">
      <!-- Oct -->
      <g style="fill:#555555;" transform="translate(204.100595 276.640625)scale(0.1 -0.1)">
       <defs>
        <path d="M 13.296875 35.703125 
Q 13.296875 41.09375 14.6875 46.34375 
Q 16.09375 51.59375 19.09375 55.796875 
Q 22.09375 60 26.796875 62.546875 
Q 31.5 65.09375 38 65.09375 
Q 44.5 65.09375 49.203125 62.546875 
Q 53.90625 60 56.90625 55.796875 
Q 59.90625 51.59375 61.296875 46.34375 
Q 62.703125 41.09375 62.703125 35.703125 
Q 62.703125 30.296875 61.296875 25.046875 
Q 59.90625 19.796875 56.90625 15.59375 
Q 53.90625 11.40625 49.203125 8.84375 
Q 44.5 6.296875 38 6.296875 
Q 31.5 6.296875 26.796875 8.84375 
Q 22.09375 11.40625 19.09375 15.59375 
Q 16.09375 19.796875 14.6875 25.046875 
Q 13.296875 30.296875 13.296875 35.703125 
z
M 3.796875 35.703125 
Q 3.796875 28.40625 5.9375 21.65625 
Q 8.09375 14.90625 12.390625 9.703125 
Q 16.703125 4.5 23.09375 1.453125 
Q 29.5 -1.59375 38 -1.59375 
Q 46.5 -1.59375 52.890625 1.453125 
Q 59.296875 4.5 63.59375 9.703125 
Q 67.90625 14.90625 70.046875 21.65625 
Q 72.203125 28.40625 72.203125 35.703125 
Q 72.203125 43 70.046875 49.75 
Q 67.90625 56.5 63.59375 61.703125 
Q 59.296875 66.90625 52.890625 70 
Q 46.5 73.09375 38 73.09375 
Q 29.5 73.09375 23.09375 70 
Q 16.703125 66.90625 12.390625 61.703125 
Q 8.09375 56.5 5.9375 49.75 
Q 3.796875 43 3.796875 35.703125 
z
" id="HelveticaNeue-79"/>
        <path d="M 41.5 35.09375 
L 50.296875 35.09375 
Q 49.796875 39.703125 47.890625 43.046875 
Q 46 46.40625 43.046875 48.59375 
Q 40.09375 50.796875 36.25 51.84375 
Q 32.40625 52.90625 28 52.90625 
Q 21.90625 52.90625 17.296875 50.75 
Q 12.703125 48.59375 9.640625 44.84375 
Q 6.59375 41.09375 5.09375 36.046875 
Q 3.59375 31 3.59375 25.203125 
Q 3.59375 19.40625 5.140625 14.546875 
Q 6.703125 9.703125 9.75 6.203125 
Q 12.796875 2.703125 17.34375 0.796875 
Q 21.90625 -1.09375 27.796875 -1.09375 
Q 37.703125 -1.09375 43.453125 4.09375 
Q 49.203125 9.296875 50.59375 18.90625 
L 41.90625 18.90625 
Q 41.09375 12.90625 37.546875 9.59375 
Q 34 6.296875 27.703125 6.296875 
Q 23.703125 6.296875 20.796875 7.890625 
Q 17.90625 9.5 16.09375 12.140625 
Q 14.296875 14.796875 13.4375 18.1875 
Q 12.59375 21.59375 12.59375 25.203125 
Q 12.59375 29.09375 13.390625 32.75 
Q 14.203125 36.40625 16.046875 39.203125 
Q 17.90625 42 21 43.703125 
Q 24.09375 45.40625 28.703125 45.40625 
Q 34.09375 45.40625 37.296875 42.703125 
Q 40.5 40 41.5 35.09375 
z
" id="HelveticaNeue-99"/>
        <path d="M 18.203125 51.703125 
L 18.203125 67.203125 
L 9.703125 67.203125 
L 9.703125 51.703125 
L 0.90625 51.703125 
L 0.90625 44.203125 
L 9.703125 44.203125 
L 9.703125 11.296875 
Q 9.703125 7.703125 10.390625 5.5 
Q 11.09375 3.296875 12.546875 2.09375 
Q 14 0.90625 16.34375 0.453125 
Q 18.703125 0 22 0 
L 28.5 0 
L 28.5 7.5 
L 24.59375 7.5 
Q 22.59375 7.5 21.34375 7.640625 
Q 20.09375 7.796875 19.390625 8.296875 
Q 18.703125 8.796875 18.453125 9.6875 
Q 18.203125 10.59375 18.203125 12.09375 
L 18.203125 44.203125 
L 28.5 44.203125 
L 28.5 51.703125 
z
" id="HelveticaNeue-116"/>
       </defs>
       <use xlink:href="#HelveticaNeue-79"/>
       <use x="75.999985" xlink:href="#HelveticaNeue-99"/>
       <use x="129.699982" xlink:href="#HelveticaNeue-116"/>
      </g>
     </g>
    </g>
    <g id="xtick_5">
     <g id="line2d_5">
      <g>
       <use style="fill:#555555;stroke:#555555;stroke-width:0.8;" x="286.586639" xlink:href="#m6b4d50bde8" y="262.5"/>
      </g>
     </g>
     <g id="text_4">
      <!-- Jan -->
      <g style="fill:#555555;" transform="translate(278.526483 276.640625)scale(0.1 -0.1)">
       <defs>
        <path d="M 52.203125 0.203125 
Q 50 -1.09375 46.09375 -1.09375 
Q 42.796875 -1.09375 40.84375 0.75 
Q 38.90625 2.59375 38.90625 6.796875 
Q 35.40625 2.59375 30.75 0.75 
Q 26.09375 -1.09375 20.703125 -1.09375 
Q 17.203125 -1.09375 14.046875 -0.296875 
Q 10.90625 0.5 8.59375 2.203125 
Q 6.296875 3.90625 4.9375 6.65625 
Q 3.59375 9.40625 3.59375 13.296875 
Q 3.59375 17.703125 5.09375 20.5 
Q 6.59375 23.296875 9.046875 25.046875 
Q 11.5 26.796875 14.640625 27.6875 
Q 17.796875 28.59375 21.09375 29.203125 
Q 24.59375 29.90625 27.75 30.25 
Q 30.90625 30.59375 33.296875 31.25 
Q 35.703125 31.90625 37.09375 33.15625 
Q 38.5 34.40625 38.5 36.796875 
Q 38.5 39.59375 37.453125 41.296875 
Q 36.40625 43 34.75 43.890625 
Q 33.09375 44.796875 31.046875 45.09375 
Q 29 45.40625 27 45.40625 
Q 21.59375 45.40625 18 43.34375 
Q 14.40625 41.296875 14.09375 35.59375 
L 5.59375 35.59375 
Q 5.796875 40.40625 7.59375 43.703125 
Q 9.40625 47 12.40625 49.046875 
Q 15.40625 51.09375 19.25 52 
Q 23.09375 52.90625 27.5 52.90625 
Q 31 52.90625 34.453125 52.40625 
Q 37.90625 51.90625 40.703125 50.34375 
Q 43.5 48.796875 45.203125 46 
Q 46.90625 43.203125 46.90625 38.703125 
L 46.90625 12.09375 
Q 46.90625 9.09375 47.25 7.6875 
Q 47.59375 6.296875 49.59375 6.296875 
Q 50.703125 6.296875 52.203125 6.796875 
z
M 38.40625 26.703125 
Q 36.796875 25.5 34.1875 24.953125 
Q 31.59375 24.40625 28.75 24.046875 
Q 25.90625 23.703125 23 23.25 
Q 20.09375 22.796875 17.796875 21.796875 
Q 15.5 20.796875 14.046875 18.9375 
Q 12.59375 17.09375 12.59375 13.90625 
Q 12.59375 11.796875 13.4375 10.34375 
Q 14.296875 8.90625 15.640625 8 
Q 17 7.09375 18.796875 6.6875 
Q 20.59375 6.296875 22.59375 6.296875 
Q 26.796875 6.296875 29.796875 7.4375 
Q 32.796875 8.59375 34.6875 10.34375 
Q 36.59375 12.09375 37.5 14.140625 
Q 38.40625 16.203125 38.40625 18 
z
" id="HelveticaNeue-97"/>
        <path d="M 6.40625 51.703125 
L 6.40625 0 
L 14.90625 0 
L 14.90625 29.203125 
Q 14.90625 32.703125 15.84375 35.640625 
Q 16.796875 38.59375 18.6875 40.796875 
Q 20.59375 43 23.4375 44.203125 
Q 26.296875 45.40625 30.203125 45.40625 
Q 35.09375 45.40625 37.890625 42.59375 
Q 40.703125 39.796875 40.703125 35 
L 40.703125 0 
L 49.203125 0 
L 49.203125 34 
Q 49.203125 38.203125 48.34375 41.640625 
Q 47.5 45.09375 45.390625 47.59375 
Q 43.296875 50.09375 39.890625 51.5 
Q 36.5 52.90625 31.40625 52.90625 
Q 19.90625 52.90625 14.59375 43.5 
L 14.40625 43.5 
L 14.40625 51.703125 
z
" id="HelveticaNeue-110"/>
       </defs>
       <use xlink:href="#HelveticaNeue-74"/>
       <use x="51.899994" xlink:href="#HelveticaNeue-97"/>
       <use x="105.599991" xlink:href="#HelveticaNeue-110"/>
      </g>
      <!-- 2021 -->
      <g style="fill:#555555;" transform="translate(275.467889 287.179688)scale(0.1 -0.1)">
       <defs>
        <path d="M 4.40625 45.796875 
L 12.90625 45.796875 
Q 12.796875 49 13.546875 52.140625 
Q 14.296875 55.296875 16 57.796875 
Q 17.703125 60.296875 20.34375 61.84375 
Q 23 63.40625 26.703125 63.40625 
Q 29.5 63.40625 32 62.5 
Q 34.5 61.59375 36.34375 59.890625 
Q 38.203125 58.203125 39.296875 55.84375 
Q 40.40625 53.5 40.40625 50.59375 
Q 40.40625 46.90625 39.25 44.09375 
Q 38.09375 41.296875 35.84375 38.890625 
Q 33.59375 36.5 30.1875 34.140625 
Q 26.796875 31.796875 22.296875 29 
Q 18.59375 26.796875 15.1875 24.296875 
Q 11.796875 21.796875 9.09375 18.5 
Q 6.40625 15.203125 4.65625 10.75 
Q 2.90625 6.296875 2.40625 0 
L 48.703125 0 
L 48.703125 7.5 
L 12.296875 7.5 
Q 12.90625 10.796875 14.84375 13.34375 
Q 16.796875 15.90625 19.546875 18.09375 
Q 22.296875 20.296875 25.59375 22.25 
Q 28.90625 24.203125 32.203125 26.203125 
Q 35.5 28.296875 38.59375 30.59375 
Q 41.703125 32.90625 44.09375 35.75 
Q 46.5 38.59375 47.953125 42.1875 
Q 49.40625 45.796875 49.40625 50.5 
Q 49.40625 55.5 47.65625 59.296875 
Q 45.90625 63.09375 42.90625 65.640625 
Q 39.90625 68.203125 35.84375 69.546875 
Q 31.796875 70.90625 27.203125 70.90625 
Q 21.59375 70.90625 17.1875 69 
Q 12.796875 67.09375 9.84375 63.75 
Q 6.90625 60.40625 5.5 55.796875 
Q 4.09375 51.203125 4.40625 45.796875 
z
" id="HelveticaNeue-50"/>
        <path d="M 13.203125 34.90625 
Q 13.203125 37.5 13.25 40.640625 
Q 13.296875 43.796875 13.75 46.9375 
Q 14.203125 50.09375 15.046875 53.09375 
Q 15.90625 56.09375 17.546875 58.34375 
Q 19.203125 60.59375 21.703125 62 
Q 24.203125 63.40625 27.796875 63.40625 
Q 31.40625 63.40625 33.90625 62 
Q 36.40625 60.59375 38.046875 58.34375 
Q 39.703125 56.09375 40.546875 53.09375 
Q 41.40625 50.09375 41.84375 46.9375 
Q 42.296875 43.796875 42.34375 40.640625 
Q 42.40625 37.5 42.40625 34.90625 
Q 42.40625 30.90625 42.15625 25.953125 
Q 41.90625 21 40.546875 16.640625 
Q 39.203125 12.296875 36.203125 9.296875 
Q 33.203125 6.296875 27.796875 6.296875 
Q 22.40625 6.296875 19.40625 9.296875 
Q 16.40625 12.296875 15.046875 16.640625 
Q 13.703125 21 13.453125 25.953125 
Q 13.203125 30.90625 13.203125 34.90625 
z
M 4.203125 34.796875 
Q 4.203125 30.90625 4.390625 26.703125 
Q 4.59375 22.5 5.390625 18.5 
Q 6.203125 14.5 7.703125 10.953125 
Q 9.203125 7.40625 11.796875 4.703125 
Q 14.40625 2 18.34375 0.453125 
Q 22.296875 -1.09375 27.796875 -1.09375 
Q 33.40625 -1.09375 37.296875 0.453125 
Q 41.203125 2 43.796875 4.703125 
Q 46.40625 7.40625 47.90625 10.953125 
Q 49.40625 14.5 50.203125 18.5 
Q 51 22.5 51.203125 26.703125 
Q 51.40625 30.90625 51.40625 34.796875 
Q 51.40625 38.703125 51.203125 42.890625 
Q 51 47.09375 50.203125 51.09375 
Q 49.40625 55.09375 47.90625 58.6875 
Q 46.40625 62.296875 43.796875 65 
Q 41.203125 67.703125 37.25 69.296875 
Q 33.296875 70.90625 27.796875 70.90625 
Q 22.296875 70.90625 18.34375 69.296875 
Q 14.40625 67.703125 11.796875 65 
Q 9.203125 62.296875 7.703125 58.6875 
Q 6.203125 55.09375 5.390625 51.09375 
Q 4.59375 47.09375 4.390625 42.890625 
Q 4.203125 38.703125 4.203125 34.796875 
z
" id="HelveticaNeue-48"/>
        <path d="M 35.59375 0 
L 35.59375 70.90625 
L 29.09375 70.90625 
Q 28.40625 66.90625 26.5 64.296875 
Q 24.59375 61.703125 21.84375 60.203125 
Q 19.09375 58.703125 15.6875 58.140625 
Q 12.296875 57.59375 8.703125 57.59375 
L 8.703125 50.796875 
L 27.09375 50.796875 
L 27.09375 0 
z
" id="HelveticaNeue-49"/>
       </defs>
       <use xlink:href="#HelveticaNeue-50"/>
       <use x="55.599991" xlink:href="#HelveticaNeue-48"/>
       <use x="111.199982" xlink:href="#HelveticaNeue-50"/>
       <use x="166.799973" xlink:href="#HelveticaNeue-49"/>
      </g>
     </g>
    </g>
    <g id="xtick_6">
     <g id="line2d_6">
      <g>
       <use style="fill:#555555;stroke:#555555;stroke-width:0.8;" x="359.394572" xlink:href="#m6b4d50bde8" y="262.5"/>
      </g>
     </g>
     <g id="text_5">
      <!-- Apr -->
      <g style="fill:#555555;" transform="translate(351.525041 276.640625)scale(0.1 -0.1)">
       <use xlink:href="#HelveticaNeue-65"/>
       <use x="64.799988" xlink:href="#HelveticaNeue-112"/>
       <use x="124.099976" xlink:href="#HelveticaNeue-114"/>
      </g>
     </g>
    </g>
    <g id="xtick_7">
     <g id="line2d_7">
      <g>
       <use style="fill:#555555;stroke:#555555;stroke-width:0.8;" x="433.011482" xlink:href="#m6b4d50bde8" y="262.5"/>
      </g>
     </g>
     <g id="text_6">
      <!-- Jul -->
      <g style="fill:#555555;" transform="translate(426.526326 276.640625)scale(0.1 -0.1)">
       <use xlink:href="#HelveticaNeue-74"/>
       <use x="51.899994" xlink:href="#HelveticaNeue-117"/>
       <use x="107.499985" xlink:href="#HelveticaNeue-108"/>
      </g>
     </g>
    </g>
    <g id="xtick_8">
     <g id="line2d_8">
      <g>
       <use style="fill:#555555;stroke:#555555;stroke-width:0.8;" x="450" xlink:href="#m6b4d50bde8" y="262.5"/>
      </g>
     </g>
    </g>
    <g id="xtick_9">
     <g id="line2d_9">
      <defs>
       <path d="M 0 0 
L 0 2 
" id="m8ac4e79184" style="stroke:#555555;stroke-width:0.6;"/>
      </defs>
      <g>
       <use style="fill:#555555;stroke:#555555;stroke-width:0.6;" x="88.387265" xlink:href="#m8ac4e79184" y="262.5"/>
      </g>
     </g>
    </g>
    <g id="xtick_10">
     <g id="line2d_10">
      <g>
       <use style="fill:#555555;stroke:#555555;stroke-width:0.6;" x="113.465553" xlink:href="#m8ac4e79184" y="262.5"/>
      </g>
     </g>
    </g>
    <g id="xtick_11">
     <g id="line2d_11">
      <g>
       <use style="fill:#555555;stroke:#555555;stroke-width:0.6;" x="162.813152" xlink:href="#m8ac4e79184" y="262.5"/>
      </g>
     </g>
    </g>
    <g id="xtick_12">
     <g id="line2d_12">
      <g>
       <use style="fill:#555555;stroke:#555555;stroke-width:0.6;" x="187.891441" xlink:href="#m8ac4e79184" y="262.5"/>
      </g>
     </g>
    </g>
    <g id="xtick_13">
     <g id="line2d_13">
      <g>
       <use style="fill:#555555;stroke:#555555;stroke-width:0.6;" x="237.23904" xlink:href="#m8ac4e79184" y="262.5"/>
      </g>
     </g>
    </g>
    <g id="xtick_14">
     <g id="line2d_14">
      <g>
       <use style="fill:#555555;stroke:#555555;stroke-width:0.6;" x="261.508351" xlink:href="#m8ac4e79184" y="262.5"/>
      </g>
     </g>
    </g>
    <g id="xtick_15">
     <g id="line2d_15">
      <g>
       <use style="fill:#555555;stroke:#555555;stroke-width:0.6;" x="311.664927" xlink:href="#m8ac4e79184" y="262.5"/>
      </g>
     </g>
    </g>
    <g id="xtick_16">
     <g id="line2d_16">
      <g>
       <use style="fill:#555555;stroke:#555555;stroke-width:0.6;" x="334.316284" xlink:href="#m8ac4e79184" y="262.5"/>
      </g>
     </g>
    </g>
    <g id="xtick_17">
     <g id="line2d_17">
      <g>
       <use style="fill:#555555;stroke:#555555;stroke-width:0.6;" x="383.663883" xlink:href="#m8ac4e79184" y="262.5"/>
      </g>
     </g>
    </g>
    <g id="xtick_18">
     <g id="line2d_18">
      <g>
       <use style="fill:#555555;stroke:#555555;stroke-width:0.6;" x="408.742171" xlink:href="#m8ac4e79184" y="262.5"/>
      </g>
     </g>
    </g>
    <g id="text_7">
     <!-- fecha -->
     <g style="fill:#555555;" transform="translate(243.935156 300.290625)scale(0.1 -0.1)">
      <defs>
       <path d="M 9.90625 44.203125 
L 9.90625 0 
L 18.40625 0 
L 18.40625 44.203125 
L 28.40625 44.203125 
L 28.40625 51.703125 
L 18.40625 51.703125 
L 18.40625 58.90625 
Q 18.40625 62.296875 20.09375 63.5 
Q 21.796875 64.703125 24.90625 64.703125 
Q 26 64.703125 27.296875 64.546875 
Q 28.59375 64.40625 29.703125 64 
L 29.703125 71.40625 
Q 28.5 71.796875 26.953125 72 
Q 25.40625 72.203125 24.203125 72.203125 
Q 17.203125 72.203125 13.546875 68.953125 
Q 9.90625 65.703125 9.90625 59.40625 
L 9.90625 51.703125 
L 1.203125 51.703125 
L 1.203125 44.203125 
z
" id="HelveticaNeue-102"/>
       <path d="M 42.296875 30.796875 
L 12.59375 30.796875 
Q 12.796875 33.796875 13.890625 36.4375 
Q 15 39.09375 16.890625 41.09375 
Q 18.796875 43.09375 21.4375 44.25 
Q 24.09375 45.40625 27.40625 45.40625 
Q 30.59375 45.40625 33.25 44.25 
Q 35.90625 43.09375 37.84375 41.140625 
Q 39.796875 39.203125 40.9375 36.5 
Q 42.09375 33.796875 42.296875 30.796875 
z
M 50.5 16.40625 
L 42.09375 16.40625 
Q 41 11.296875 37.546875 8.796875 
Q 34.09375 6.296875 28.703125 6.296875 
Q 24.5 6.296875 21.390625 7.6875 
Q 18.296875 9.09375 16.296875 11.4375 
Q 14.296875 13.796875 13.390625 16.84375 
Q 12.5 19.90625 12.59375 23.296875 
L 51.296875 23.296875 
Q 51.5 28 50.453125 33.203125 
Q 49.40625 38.40625 46.65625 42.796875 
Q 43.90625 47.203125 39.34375 50.046875 
Q 34.796875 52.90625 27.90625 52.90625 
Q 22.59375 52.90625 18.140625 50.90625 
Q 13.703125 48.90625 10.453125 45.296875 
Q 7.203125 41.703125 5.390625 36.796875 
Q 3.59375 31.90625 3.59375 26 
Q 3.796875 20.09375 5.34375 15.09375 
Q 6.90625 10.09375 10 6.5 
Q 13.09375 2.90625 17.640625 0.90625 
Q 22.203125 -1.09375 28.40625 -1.09375 
Q 37.203125 -1.09375 43 3.296875 
Q 48.796875 7.703125 50.5 16.40625 
z
" id="HelveticaNeue-101"/>
       <path d="M 6.40625 71.40625 
L 6.40625 0 
L 14.90625 0 
L 14.90625 29.203125 
Q 14.90625 32.703125 15.84375 35.640625 
Q 16.796875 38.59375 18.6875 40.796875 
Q 20.59375 43 23.4375 44.203125 
Q 26.296875 45.40625 30.203125 45.40625 
Q 35.09375 45.40625 37.890625 42.59375 
Q 40.703125 39.796875 40.703125 35 
L 40.703125 0 
L 49.203125 0 
L 49.203125 34 
Q 49.203125 38.203125 48.34375 41.640625 
Q 47.5 45.09375 45.390625 47.59375 
Q 43.296875 50.09375 39.890625 51.5 
Q 36.5 52.90625 31.40625 52.90625 
Q 29.09375 52.90625 26.640625 52.40625 
Q 24.203125 51.90625 21.953125 50.84375 
Q 19.703125 49.796875 17.890625 48.140625 
Q 16.09375 46.5 15.09375 44.09375 
L 14.90625 44.09375 
L 14.90625 71.40625 
z
" id="HelveticaNeue-104"/>
      </defs>
      <use xlink:href="#HelveticaNeue-102"/>
      <use x="29.599991" xlink:href="#HelveticaNeue-101"/>
      <use x="83.299988" xlink:href="#HelveticaNeue-99"/>
      <use x="136.999985" xlink:href="#HelveticaNeue-104"/>
      <use x="192.599976" xlink:href="#HelveticaNeue-97"/>
     </g>
    </g>
   </g>
   <g id="matplotlib.axis_2">
    <g id="ytick_1">
     <g id="line2d_19">
      <defs>
       <path d="M 0 0 
L -3.5 0 
" id="m4b9e2a2e55" style="stroke:#555555;stroke-width:0.8;"/>
      </defs>
      <g>
       <use style="fill:#555555;stroke:#555555;stroke-width:0.8;" x="62.5" xlink:href="#m4b9e2a2e55" y="251.795455"/>
      </g>
     </g>
     <g id="text_8">
      <!-- 0 -->
      <g style="fill:#555555;" transform="translate(49.940625 255.365767)scale(0.1 -0.1)">
       <use xlink:href="#HelveticaNeue-48"/>
      </g>
     </g>
    </g>
    <g id="ytick_2">
     <g id="line2d_20">
      <g>
       <use style="fill:#555555;stroke:#555555;stroke-width:0.8;" x="62.5" xlink:href="#m4b9e2a2e55" y="201.302316"/>
      </g>
     </g>
     <g id="text_9">
      <!-- 100 -->
      <g style="fill:#555555;" transform="translate(38.821875 204.872628)scale(0.1 -0.1)">
       <use xlink:href="#HelveticaNeue-49"/>
       <use x="55.599991" xlink:href="#HelveticaNeue-48"/>
       <use x="111.199982" xlink:href="#HelveticaNeue-48"/>
      </g>
     </g>
    </g>
    <g id="ytick_3">
     <g id="line2d_21">
      <g>
       <use style="fill:#555555;stroke:#555555;stroke-width:0.8;" x="62.5" xlink:href="#m4b9e2a2e55" y="150.809177"/>
      </g>
     </g>
     <g id="text_10">
      <!-- 200 -->
      <g style="fill:#555555;" transform="translate(38.821875 154.379489)scale(0.1 -0.1)">
       <use xlink:href="#HelveticaNeue-50"/>
       <use x="55.599991" xlink:href="#HelveticaNeue-48"/>
       <use x="111.199982" xlink:href="#HelveticaNeue-48"/>
      </g>
     </g>
    </g>
    <g id="ytick_4">
     <g id="line2d_22">
      <g>
       <use style="fill:#555555;stroke:#555555;stroke-width:0.8;" x="62.5" xlink:href="#m4b9e2a2e55" y="100.316038"/>
      </g>
     </g>
     <g id="text_11">
      <!-- 300 -->
      <g style="fill:#555555;" transform="translate(38.821875 103.88635)scale(0.1 -0.1)">
       <defs>
        <path d="M 21.796875 40.5 
L 21.796875 33.296875 
Q 24.203125 33.59375 26.90625 33.59375 
Q 30.09375 33.59375 32.84375 32.75 
Q 35.59375 31.90625 37.59375 30.15625 
Q 39.59375 28.40625 40.796875 25.84375 
Q 42 23.296875 42 20 
Q 42 16.796875 40.75 14.25 
Q 39.5 11.703125 37.390625 9.953125 
Q 35.296875 8.203125 32.5 7.25 
Q 29.703125 6.296875 26.59375 6.296875 
Q 19.296875 6.296875 15.5 10.640625 
Q 11.703125 15 11.5 21.90625 
L 3 21.90625 
Q 2.90625 16.40625 4.546875 12.09375 
Q 6.203125 7.796875 9.296875 4.84375 
Q 12.40625 1.90625 16.796875 0.40625 
Q 21.203125 -1.09375 26.59375 -1.09375 
Q 31.59375 -1.09375 36.046875 0.25 
Q 40.5 1.59375 43.796875 4.296875 
Q 47.09375 7 49.046875 11.046875 
Q 51 15.09375 51 20.40625 
Q 51 26.796875 47.84375 31.5 
Q 44.703125 36.203125 38.203125 37.59375 
L 38.203125 37.796875 
Q 42.40625 39.703125 45.203125 43.390625 
Q 48 47.09375 48 51.90625 
Q 48 56.796875 46.34375 60.390625 
Q 44.703125 64 41.796875 66.296875 
Q 38.90625 68.59375 34.953125 69.75 
Q 31 70.90625 26.40625 70.90625 
Q 21.09375 70.90625 17.046875 69.203125 
Q 13 67.5 10.296875 64.5 
Q 7.59375 61.5 6.140625 57.296875 
Q 4.703125 53.09375 4.5 48 
L 13 48 
Q 13 51.09375 13.796875 53.890625 
Q 14.59375 56.703125 16.25 58.796875 
Q 17.90625 60.90625 20.453125 62.15625 
Q 23 63.40625 26.40625 63.40625 
Q 31.796875 63.40625 35.390625 60.546875 
Q 39 57.703125 39 52 
Q 39 49.203125 37.890625 47 
Q 36.796875 44.796875 34.9375 43.34375 
Q 33.09375 41.90625 30.640625 41.15625 
Q 28.203125 40.40625 25.5 40.40625 
L 23.703125 40.40625 
Q 23.203125 40.40625 22.703125 40.40625 
Q 22.296875 40.40625 21.796875 40.5 
z
" id="HelveticaNeue-51"/>
       </defs>
       <use xlink:href="#HelveticaNeue-51"/>
       <use x="55.599991" xlink:href="#HelveticaNeue-48"/>
       <use x="111.199982" xlink:href="#HelveticaNeue-48"/>
      </g>
     </g>
    </g>
    <g id="ytick_5">
     <g id="line2d_23">
      <g>
       <use style="fill:#555555;stroke:#555555;stroke-width:0.8;" x="62.5" xlink:href="#m4b9e2a2e55" y="49.822899"/>
      </g>
     </g>
     <g id="text_12">
      <!-- 400 -->
      <g style="fill:#555555;" transform="translate(38.821875 53.393211)scale(0.1 -0.1)">
       <defs>
        <path d="M 33.90625 24.09375 
L 10.09375 24.09375 
L 33.703125 58.796875 
L 33.90625 58.796875 
z
M 41.90625 24.09375 
L 41.90625 70.90625 
L 35.09375 70.90625 
L 2.796875 24.796875 
L 2.796875 16.59375 
L 33.90625 16.59375 
L 33.90625 0 
L 41.90625 0 
L 41.90625 16.59375 
L 51.5 16.59375 
L 51.5 24.09375 
z
" id="HelveticaNeue-52"/>
       </defs>
       <use xlink:href="#HelveticaNeue-52"/>
       <use x="55.599991" xlink:href="#HelveticaNeue-48"/>
       <use x="111.199982" xlink:href="#HelveticaNeue-48"/>
      </g>
     </g>
    </g>
   </g>
   <g id="line2d_24">
    <path clip-path="url(#pb1e508635a)" d="M 63.308977 251.795455 
L 64.117954 251.795455 
L 64.926931 249.270798 
L 65.735908 250.28066 
L 66.544885 250.28066 
L 67.353862 251.795455 
L 68.162839 249.775729 
L 68.971816 249.775729 
L 69.780793 250.785592 
L 70.58977 250.28066 
L 71.398747 251.290523 
L 72.207724 251.795455 
L 73.016701 250.785592 
L 73.825678 250.28066 
L 74.634656 250.28066 
L 75.443633 250.785592 
L 76.25261 250.28066 
L 77.061587 251.290523 
L 77.870564 249.775729 
L 78.679541 250.785592 
L 79.488518 249.775729 
L 80.297495 251.290523 
L 81.106472 248.260935 
L 81.915449 248.765866 
L 82.724426 247.251072 
L 83.533403 248.765866 
L 84.34238 251.290523 
L 85.151357 248.260935 
L 85.960334 250.785592 
L 86.769311 248.765866 
L 87.578288 247.251072 
L 88.387265 241.191895 
L 89.196242 247.756003 
L 90.005219 249.775729 
L 90.814196 248.765866 
L 91.623173 250.785592 
L 92.43215 250.785592 
L 93.241127 240.686964 
L 94.050104 250.28066 
L 94.859081 249.775729 
L 95.668058 250.785592 
L 96.477035 250.28066 
L 97.286013 248.765866 
L 98.09499 250.28066 
L 98.903967 246.746141 
L 99.712944 245.736278 
L 100.521921 249.270798 
L 101.330898 246.746141 
L 102.139875 250.785592 
L 102.948852 245.736278 
L 103.757829 249.270798 
L 104.566806 249.270798 
L 105.375783 244.726415 
L 106.18476 250.28066 
L 106.993737 248.260935 
L 107.802714 242.201758 
L 108.611691 246.241209 
L 109.420668 244.221484 
L 110.229645 243.211621 
L 111.038622 246.746141 
L 111.847599 243.716552 
L 112.656576 247.756003 
L 113.465553 238.162307 
L 114.27453 239.17217 
L 115.892484 247.251072 
L 116.701461 246.746141 
L 117.510438 250.785592 
L 118.319415 248.260935 
L 119.128392 247.756003 
L 119.93737 239.17217 
L 120.746347 245.231346 
L 121.555324 242.201758 
L 122.364301 242.201758 
L 123.173278 246.241209 
L 123.982255 244.726415 
L 125.600209 238.667238 
L 126.409186 240.686964 
L 127.218163 218.469983 
L 128.02714 221.499571 
L 128.836117 218.974914 
L 129.645094 234.122856 
L 130.454071 220.489708 
L 131.263048 236.142581 
L 132.072025 218.469983 
L 132.881002 236.647513 
L 133.689979 228.568611 
L 135.307933 230.588336 
L 136.11691 233.112993 
L 136.925887 226.548885 
L 137.734864 222.509434 
L 138.543841 212.410806 
L 139.352818 232.608062 
L 140.161795 222.509434 
L 140.970772 229.578473 
L 141.779749 233.112993 
L 142.588727 222.004503 
L 143.397704 223.014365 
L 144.206681 204.331904 
L 145.015658 207.866424 
L 145.824635 198.777659 
L 147.442589 227.558748 
L 148.251566 218.469983 
L 149.060543 213.420669 
L 149.86952 198.777659 
L 150.678497 197.262864 
L 151.487474 203.826973 
L 152.296451 209.381218 
L 153.105428 225.034091 
L 153.914405 185.649443 
L 154.723382 185.144511 
L 155.532359 198.777659 
L 156.341336 171.006432 
L 157.150313 185.649443 
L 157.95929 172.521226 
L 158.768267 170.501501 
L 159.577244 144.75 
L 160.386221 154.343696 
L 161.195198 165.452187 
L 162.004175 135.156304 
L 162.813152 174.036021 
L 163.622129 192.213551 
L 164.431106 176.560678 
L 165.240084 136.671098 
L 166.049061 175.045883 
L 166.858038 199.28259 
L 168.475992 101.830832 
L 169.284969 201.807247 
L 170.093946 135.156304 
L 170.902923 171.511364 
L 171.7119 184.134648 
L 172.520877 116.978774 
L 173.329854 186.659305 
L 174.138831 164.947256 
L 174.947808 180.600129 
L 175.756785 167.976844 
L 176.565762 169.491638 
L 177.374739 153.333834 
L 178.183716 191.708619 
L 179.80167 150.809177 
L 180.610647 174.036021 
L 181.419624 188.174099 
L 182.228601 178.580403 
L 183.037578 213.9256 
L 183.846555 176.560678 
L 184.655532 205.846698 
L 185.464509 190.193825 
L 186.273486 215.440395 
L 187.082463 195.243139 
L 187.891441 210.896012 
L 188.700418 214.430532 
L 189.509395 190.698756 
L 190.318372 204.331904 
L 191.127349 213.9256 
L 191.936326 222.004503 
L 192.745303 202.81711 
L 193.55428 219.984777 
L 195.172234 202.81711 
L 195.981211 205.341767 
L 196.790188 227.558748 
L 197.599165 239.17217 
L 198.408142 215.945326 
L 199.217119 219.479846 
L 200.026096 202.312178 
L 200.835073 215.440395 
L 201.64405 211.905875 
L 202.453027 207.866424 
L 204.070981 233.617925 
L 204.879958 226.043954 
L 205.688935 200.292453 
L 206.497912 213.420669 
L 207.306889 212.410806 
L 208.115866 226.548885 
L 208.924843 238.162307 
L 210.542797 194.738208 
L 211.351775 229.578473 
L 212.160752 212.915738 
L 212.969729 204.836835 
L 213.778706 217.965051 
L 214.587683 223.014365 
L 215.39666 211.905875 
L 217.014614 208.876286 
L 217.823591 201.302316 
L 218.632568 230.588336 
L 219.441545 227.053816 
L 220.250522 232.10313 
L 221.059499 229.578473 
L 221.868476 236.647513 
L 222.677453 209.381218 
L 223.48643 193.728345 
L 224.295407 210.391081 
L 225.104384 199.787521 
L 225.913361 215.440395 
L 226.722338 215.945326 
L 227.531315 209.381218 
L 228.340292 210.391081 
L 229.149269 213.9256 
L 229.958246 197.262864 
L 230.767223 223.014365 
L 231.5762 221.499571 
L 232.385177 221.499571 
L 233.194154 195.74807 
L 234.003132 204.331904 
L 234.812109 200.797384 
L 235.621086 191.708619 
L 236.430063 203.826973 
L 237.23904 226.043954 
L 238.048017 207.361492 
L 238.856994 220.489708 
L 239.665971 211.400943 
L 240.474948 224.52916 
L 241.283925 213.420669 
L 242.092902 215.440395 
L 242.901879 213.420669 
L 243.710856 228.568611 
L 244.519833 211.905875 
L 245.32881 215.945326 
L 246.137787 201.302316 
L 246.946764 222.004503 
L 247.755741 217.965051 
L 248.564718 230.083405 
L 249.373695 225.034091 
L 250.182672 204.331904 
L 250.991649 224.52916 
L 251.800626 206.856561 
L 252.609603 219.479846 
L 253.41858 219.984777 
L 254.227557 219.479846 
L 255.036534 203.826973 
L 255.845511 199.787521 
L 256.654489 205.341767 
L 257.463466 195.243139 
L 258.272443 201.302316 
L 259.08142 204.836835 
L 259.890397 229.073542 
L 260.699374 215.945326 
L 261.508351 197.767796 
L 262.317328 209.886149 
L 263.126305 225.034091 
L 263.935282 193.223413 
L 264.744259 202.81711 
L 265.553236 229.578473 
L 266.362213 190.193825 
L 267.17119 200.797384 
L 267.980167 200.292453 
L 268.789144 184.134648 
L 269.598121 198.272727 
L 270.407098 191.203688 
L 271.216075 202.312178 
L 272.025052 197.262864 
L 272.834029 180.095197 
L 273.643006 155.353559 
L 274.451983 190.193825 
L 275.26096 157.373285 
L 276.069937 183.124786 
L 276.878914 190.698756 
L 277.687891 178.580403 
L 278.496868 150.809177 
L 279.305846 151.314108 
L 280.114823 171.006432 
L 280.9238 215.945326 
L 281.732777 173.026158 
L 282.541754 173.531089 
L 283.350731 163.937393 
L 284.159708 145.254931 
L 284.968685 150.304245 
L 285.777662 171.511364 
L 286.586639 213.9256 
L 287.395616 180.095197 
L 288.204593 161.917667 
L 289.01357 188.174099 
L 289.822547 115.463979 
L 290.631524 144.245069 
L 291.440501 142.730274 
L 292.249478 165.957118 
L 293.058455 143.740137 
L 293.867432 194.738208 
L 294.676409 181.609991 
L 295.485386 124.552744 
L 296.294363 131.116852 
L 297.10334 134.651372 
L 297.912317 172.016295 
L 298.721294 159.897942 
L 299.530271 168.481775 
L 300.339248 174.036021 
L 301.148225 134.146441 
L 301.957203 187.164237 
L 302.76618 171.511364 
L 303.575157 173.531089 
L 304.384134 155.353559 
L 305.193111 196.253002 
L 306.002088 149.799314 
L 306.811065 197.767796 
L 307.620042 146.769726 
L 308.429019 185.144511 
L 309.237996 178.075472 
L 310.046973 210.391081 
L 310.85595 203.322041 
L 311.664927 197.767796 
L 312.473904 217.965051 
L 313.282881 214.430532 
L 314.091858 220.489708 
L 314.900835 224.52916 
L 315.709812 223.519297 
L 316.518789 232.608062 
L 317.327766 220.489708 
L 318.136743 222.509434 
L 318.94572 229.073542 
L 319.754697 220.99464 
L 320.563674 223.519297 
L 321.372651 235.132719 
L 322.181628 234.122856 
L 322.990605 240.182033 
L 323.799582 222.004503 
L 324.608559 227.053816 
L 325.417537 236.142581 
L 326.226514 235.63765 
L 327.035491 236.647513 
L 327.844468 244.221484 
L 328.653445 238.162307 
L 329.462422 235.63765 
L 330.271399 236.647513 
L 331.080376 236.142581 
L 331.889353 244.221484 
L 332.69833 244.726415 
L 333.507307 241.696827 
L 334.316284 243.211621 
L 335.125261 235.63765 
L 335.934238 237.657376 
L 336.743215 236.142581 
L 337.552192 241.191895 
L 338.361169 240.182033 
L 339.170146 243.716552 
L 339.979123 240.182033 
L 340.7881 244.221484 
L 341.597077 235.63765 
L 342.406054 237.657376 
L 343.215031 239.17217 
L 344.024008 241.696827 
L 344.832985 238.162307 
L 345.641962 238.667238 
L 346.450939 235.63765 
L 347.259916 228.568611 
L 348.068894 220.489708 
L 348.877871 229.578473 
L 349.686848 240.686964 
L 350.495825 236.647513 
L 351.304802 243.211621 
L 352.113779 229.073542 
L 352.922756 229.073542 
L 353.731733 225.034091 
L 354.54071 217.46012 
L 355.349687 215.945326 
L 356.158664 239.17217 
L 356.967641 224.52916 
L 357.776618 214.935463 
L 358.585595 219.479846 
L 359.394572 228.568611 
L 360.203549 215.945326 
L 361.012526 225.539022 
L 361.821503 222.004503 
L 362.63048 206.35163 
L 363.439457 210.896012 
L 364.248434 199.28259 
L 365.057411 206.856561 
L 365.866388 196.253002 
L 366.675365 194.233276 
L 367.484342 170.501501 
L 368.293319 158.383148 
L 369.102296 181.10506 
L 369.911273 146.769726 
L 370.720251 176.560678 
L 371.529228 145.759863 
L 372.338205 168.481775 
L 373.147182 211.905875 
L 373.956159 180.095197 
L 374.765136 122.533019 
L 375.574113 169.996569 
L 376.38309 155.353559 
L 377.192067 155.858491 
L 378.001044 180.095197 
L 378.810021 197.262864 
L 380.427975 129.097127 
L 381.236952 177.065609 
L 382.045929 169.491638 
L 382.854906 126.067539 
L 383.663883 159.897942 
L 384.47286 198.777659 
L 385.281837 144.245069 
L 386.090814 154.848628 
L 386.899791 187.164237 
L 387.708768 120.513293 
L 388.517745 134.146441 
L 389.326722 188.174099 
L 390.135699 183.629717 
L 390.944676 159.897942 
L 391.753653 116.978774 
L 392.56263 161.412736 
L 393.371608 145.254931 
L 394.180585 175.550815 
L 394.989562 176.055746 
L 395.798539 197.262864 
L 396.607516 172.016295 
L 397.416493 160.402873 
L 398.22547 159.897942 
L 399.034447 140.710549 
L 399.843424 131.621784 
L 400.652401 159.897942 
L 402.270355 104.355489 
L 403.079332 71.534949 
L 403.888309 77.089194 
L 404.697286 121.018225 
L 405.506263 101.325901 
L 406.31524 74.564537 
L 407.124217 146.769726 
L 408.742171 72.544811 
L 409.551148 78.099057 
L 410.360125 40.229202 
L 411.169102 104.86042 
L 411.978079 100.820969 
L 412.787056 127.077401 
L 413.596033 72.03988 
L 414.40501 122.028087 
L 415.213987 88.702616 
L 416.022965 86.177959 
L 416.831942 116.978774 
L 417.640919 126.57247 
L 418.449896 141.720412 
L 419.258873 137.176029 
L 420.06785 79.613851 
L 420.876827 120.008362 
L 421.685804 37.704545 
L 422.494781 121.018225 
L 423.303758 115.968911 
L 424.112735 98.296312 
L 424.921712 90.722341 
L 425.730689 100.316038 
L 426.539666 88.702616 
L 427.348643 89.207547 
L 428.15762 74.564537 
L 428.966597 93.246998 
L 429.775574 130.10699 
L 430.584551 77.089194 
L 431.393528 87.692753 
L 432.202505 90.722341 
L 433.011482 91.227273 
L 433.820459 120.513293 
L 434.629436 119.503431 
L 435.438413 166.46205 
L 436.24739 146.264794 
L 437.056367 148.789451 
L 437.865344 139.700686 
L 438.674322 157.878216 
L 439.483299 160.907804 
L 440.292276 141.720412 
L 441.101253 189.183962 
L 441.91023 159.897942 
L 442.719207 168.986707 
L 443.528184 142.225343 
L 444.337161 188.174099 
L 445.146138 145.759863 
L 445.955115 196.757933 
L 446.764092 197.262864 
L 447.573069 192.718482 
L 448.382046 200.292453 
L 449.191023 220.99464 
L 450 233.112993 
L 450 233.112993 
" style="fill:none;stroke:#000000;stroke-dasharray:1.5,2.475;stroke-dashoffset:0;stroke-opacity:0.5;stroke-width:1.5;"/>
   </g>
   <g id="line2d_25">
    <path clip-path="url(#pb1e508635a)" d="M 62.5 251.290523 
L 63.308977 250.785592 
L 65.735908 250.785592 
L 66.544885 250.28066 
L 68.971816 250.28066 
L 69.780793 250.785592 
L 74.634656 250.785592 
L 75.443633 250.28066 
L 77.061587 250.28066 
L 77.870564 250.785592 
L 78.679541 250.28066 
L 79.488518 250.28066 
L 80.297495 249.270798 
L 81.915449 249.270798 
L 82.724426 248.765866 
L 83.533403 249.270798 
L 85.151357 249.270798 
L 85.960334 248.260935 
L 87.578288 247.251072 
L 89.196242 247.251072 
L 90.005219 248.260935 
L 90.814196 247.756003 
L 91.623173 248.765866 
L 94.859081 248.765866 
L 96.477035 249.775729 
L 98.903967 248.260935 
L 99.712944 248.260935 
L 100.521921 247.756003 
L 101.330898 247.756003 
L 102.139875 248.260935 
L 104.566806 248.260935 
L 105.375783 247.251072 
L 106.18476 247.251072 
L 106.993737 246.241209 
L 107.802714 245.736278 
L 108.611691 245.736278 
L 109.420668 244.726415 
L 111.038622 244.726415 
L 111.847599 243.716552 
L 112.656576 243.211621 
L 114.27453 243.211621 
L 115.892484 245.231346 
L 116.701461 246.746141 
L 118.319415 246.746141 
L 119.93737 244.726415 
L 122.364301 243.211621 
L 123.173278 243.211621 
L 123.982255 242.70669 
L 125.600209 236.647513 
L 126.409186 232.10313 
L 127.218163 229.578473 
L 128.02714 226.548885 
L 128.836117 226.043954 
L 129.645094 224.52916 
L 130.454071 226.548885 
L 131.263048 227.558748 
L 132.072025 229.073542 
L 132.881002 229.073542 
L 133.689979 230.083405 
L 134.498956 229.578473 
L 135.307933 229.578473 
L 136.11691 227.053816 
L 136.925887 226.548885 
L 137.734864 225.034091 
L 139.352818 225.034091 
L 140.970772 226.043954 
L 141.779749 224.52916 
L 142.588727 220.99464 
L 143.397704 216.955189 
L 144.206681 213.9256 
L 145.015658 212.410806 
L 145.824635 211.905875 
L 146.633612 212.410806 
L 147.442589 212.410806 
L 149.060543 210.391081 
L 149.86952 208.371355 
L 150.678497 207.866424 
L 151.487474 204.836835 
L 152.296451 202.312178 
L 153.105428 201.807247 
L 154.723382 193.728345 
L 155.532359 188.174099 
L 156.341336 181.609991 
L 159.577244 160.907804 
L 160.386221 158.383148 
L 161.195198 160.402873 
L 162.004175 162.92753 
L 162.813152 163.937393 
L 163.622129 165.957118 
L 164.431106 169.996569 
L 165.240084 171.511364 
L 166.049061 163.432461 
L 166.858038 162.92753 
L 167.667015 158.383148 
L 168.475992 159.897942 
L 169.284969 160.907804 
L 170.093946 154.343696 
L 170.902923 158.383148 
L 171.7119 164.442324 
L 172.520877 162.92753 
L 173.329854 166.46205 
L 174.138831 167.471913 
L 174.947808 165.452187 
L 175.756785 172.521226 
L 177.374739 169.491638 
L 178.183716 168.481775 
L 178.992693 170.501501 
L 179.80167 172.016295 
L 180.610647 178.580403 
L 181.419624 179.590266 
L 183.037578 190.193825 
L 183.846555 195.243139 
L 184.655532 196.757933 
L 185.464509 200.292453 
L 186.273486 201.807247 
L 187.082463 203.826973 
L 187.891441 203.826973 
L 188.700418 205.846698 
L 190.318372 207.866424 
L 191.127349 209.381218 
L 191.936326 210.391081 
L 192.745303 211.905875 
L 193.55428 211.400943 
L 194.363257 211.905875 
L 195.981211 216.955189 
L 196.790188 217.965051 
L 197.599165 217.965051 
L 198.408142 218.974914 
L 199.217119 218.469983 
L 200.026096 214.935463 
L 200.835073 212.915738 
L 201.64405 214.935463 
L 202.453027 216.450257 
L 203.262004 217.46012 
L 204.070981 217.46012 
L 204.879958 216.955189 
L 205.688935 217.965051 
L 206.497912 219.479846 
L 207.306889 218.469983 
L 208.115866 216.450257 
L 208.924843 218.974914 
L 209.73382 218.469983 
L 212.160752 213.9256 
L 212.969729 213.9256 
L 213.778706 215.440395 
L 214.587683 213.420669 
L 215.39666 211.905875 
L 216.205637 213.9256 
L 217.014614 214.935463 
L 217.823591 216.450257 
L 218.632568 219.984777 
L 219.441545 224.52916 
L 220.250522 225.539022 
L 221.059499 224.52916 
L 221.868476 220.489708 
L 222.677453 215.440395 
L 223.48643 211.905875 
L 224.295407 209.886149 
L 225.104384 207.361492 
L 225.913361 208.371355 
L 226.722338 210.896012 
L 227.531315 209.886149 
L 228.340292 211.400943 
L 229.958246 213.420669 
L 230.767223 212.915738 
L 231.5762 211.905875 
L 232.385177 210.391081 
L 233.194154 208.371355 
L 234.003132 204.836835 
L 235.621086 203.826973 
L 236.430063 207.361492 
L 237.23904 209.381218 
L 238.048017 212.915738 
L 238.856994 215.440395 
L 239.665971 216.955189 
L 240.474948 215.440395 
L 241.283925 217.46012 
L 242.092902 216.955189 
L 242.901879 217.46012 
L 243.710856 214.935463 
L 244.519833 215.440395 
L 245.32881 215.440395 
L 246.137787 216.955189 
L 246.946764 217.46012 
L 247.755741 217.46012 
L 248.564718 218.974914 
L 249.373695 218.974914 
L 250.182672 217.965051 
L 250.991649 217.965051 
L 252.609603 214.935463 
L 253.41858 213.9256 
L 255.036534 208.876286 
L 255.845511 205.846698 
L 256.654489 203.322041 
L 257.463466 204.331904 
L 258.272443 206.856561 
L 259.890397 208.876286 
L 260.699374 211.905875 
L 261.508351 211.400943 
L 262.317328 210.391081 
L 263.126305 209.886149 
L 263.935282 207.866424 
L 264.744259 207.361492 
L 265.553236 205.846698 
L 266.362213 201.302316 
L 267.17119 200.797384 
L 267.980167 198.272727 
L 268.789144 195.243139 
L 269.598121 195.74807 
L 270.407098 193.728345 
L 271.216075 189.183962 
L 272.025052 187.669168 
L 272.834029 182.114923 
L 273.643006 179.085334 
L 275.26096 176.055746 
L 276.069937 174.036021 
L 276.878914 173.026158 
L 277.687891 169.491638 
L 278.496868 174.036021 
L 279.305846 174.036021 
L 280.114823 173.531089 
L 280.9238 174.036021 
L 281.732777 173.531089 
L 282.541754 171.006432 
L 283.350731 167.976844 
L 284.159708 166.966981 
L 284.968685 169.491638 
L 285.777662 170.501501 
L 286.586639 175.045883 
L 287.395616 172.521226 
L 288.204593 168.986707 
L 289.01357 162.422599 
L 289.822547 154.848628 
L 290.631524 150.304245 
L 291.440501 153.333834 
L 292.249478 155.858491 
L 293.058455 158.888079 
L 293.867432 157.878216 
L 294.676409 155.353559 
L 295.485386 153.333834 
L 296.294363 153.333834 
L 297.10334 150.809177 
L 297.912317 152.828902 
L 298.721294 155.858491 
L 299.530271 161.917667 
L 300.339248 165.957118 
L 301.148225 166.46205 
L 301.957203 166.46205 
L 302.76618 169.996569 
L 303.575157 168.481775 
L 304.384134 174.540952 
L 305.193111 171.006432 
L 306.811065 173.026158 
L 307.620042 178.580403 
L 308.429019 181.10506 
L 309.237996 188.174099 
L 310.046973 192.718482 
L 310.85595 201.302316 
L 311.664927 206.35163 
L 312.473904 212.410806 
L 313.282881 214.935463 
L 314.900835 222.509434 
L 315.709812 223.519297 
L 316.518789 225.034091 
L 317.327766 225.034091 
L 318.136743 224.52916 
L 318.94572 225.539022 
L 319.754697 226.043954 
L 320.563674 229.073542 
L 322.181628 230.083405 
L 322.990605 231.598199 
L 323.799582 232.608062 
L 324.608559 232.608062 
L 325.417537 234.122856 
L 326.226514 234.627787 
L 327.035491 236.647513 
L 327.844468 237.657376 
L 328.653445 237.657376 
L 329.462422 238.667238 
L 331.080376 239.677101 
L 331.889353 240.686964 
L 334.316284 240.686964 
L 335.125261 239.677101 
L 335.934238 239.17217 
L 337.552192 239.17217 
L 338.361169 240.686964 
L 339.979123 240.686964 
L 340.7881 240.182033 
L 341.597077 240.182033 
L 342.406054 239.17217 
L 343.215031 239.17217 
L 344.024008 238.162307 
L 344.832985 237.657376 
L 345.641962 235.132719 
L 346.450939 233.112993 
L 347.259916 232.10313 
L 348.068894 232.10313 
L 351.304802 234.122856 
L 352.113779 232.10313 
L 352.922756 228.063679 
L 353.731733 227.053816 
L 354.54071 225.034091 
L 356.158664 223.014365 
L 358.585595 223.014365 
L 360.203549 219.984777 
L 361.012526 218.974914 
L 361.821503 215.945326 
L 362.63048 212.410806 
L 363.439457 209.381218 
L 364.248434 204.836835 
L 366.675365 186.659305 
L 367.484342 179.085334 
L 368.293319 173.531089 
L 369.102296 166.966981 
L 369.911273 163.937393 
L 371.529228 171.511364 
L 372.338205 167.471913 
L 373.147182 169.491638 
L 373.956159 166.46205 
L 375.574113 164.442324 
L 376.38309 163.937393 
L 377.192067 164.442324 
L 378.001044 166.46205 
L 378.810021 166.46205 
L 379.618998 166.966981 
L 381.236952 158.888079 
L 382.045929 158.888079 
L 382.854906 158.383148 
L 383.663883 161.412736 
L 384.47286 162.422599 
L 385.281837 158.888079 
L 386.090814 157.878216 
L 386.899791 158.888079 
L 387.708768 157.373285 
L 388.517745 160.402873 
L 389.326722 157.373285 
L 390.135699 154.848628 
L 390.944676 156.363422 
L 391.753653 158.383148 
L 392.56263 156.868353 
L 393.371608 160.402873 
L 394.180585 164.947256 
L 394.989562 171.511364 
L 395.798539 172.016295 
L 396.607516 169.996569 
L 397.416493 163.432461 
L 398.22547 158.383148 
L 399.843424 142.225343 
L 401.461378 118.998499 
L 403.079332 105.870283 
L 403.888309 96.276587 
L 404.697286 97.791381 
L 405.506263 100.820969 
L 406.31524 102.335763 
L 407.124217 101.325901 
L 407.933194 91.732204 
L 408.742171 88.702616 
L 409.551148 88.702616 
L 410.360125 86.68289 
L 411.169102 85.673027 
L 411.978079 93.246998 
L 412.787056 96.276587 
L 413.596033 100.820969 
L 414.40501 101.325901 
L 415.213987 103.345626 
L 416.022965 106.880146 
L 416.831942 115.463979 
L 417.640919 114.454117 
L 418.449896 117.988636 
L 419.258873 111.92946 
L 420.876827 103.850557 
L 421.685804 98.801244 
L 422.494781 95.266724 
L 423.303758 98.296312 
L 424.112735 95.771655 
L 424.921712 99.811106 
L 425.730689 93.75193 
L 426.539666 90.722341 
L 427.348643 93.246998 
L 428.966597 92.237136 
L 430.584551 93.246998 
L 431.393528 96.781518 
L 432.202505 99.811106 
L 433.011482 105.870283 
L 434.629436 127.077401 
L 436.24739 143.740137 
L 437.056367 148.789451 
L 438.674322 153.838765 
L 439.483299 156.868353 
L 440.292276 160.402873 
L 441.101253 161.412736 
L 441.91023 164.442324 
L 442.719207 163.432461 
L 443.528184 167.976844 
L 444.337161 169.996569 
L 445.955115 181.10506 
L 446.764092 191.203688 
L 448.382046 206.856561 
L 449.191023 210.391081 
L 450 214.430532 
L 450 214.430532 
" style="fill:none;stroke:#b3220f;stroke-linecap:square;stroke-width:1.5;"/>
   </g>
   <g id="patch_3">
    <path d="M 62.5 262.5 
L 62.5 27 
" style="fill:none;stroke:#555555;stroke-linecap:square;stroke-linejoin:miter;"/>
   </g>
   <g id="patch_4">
    <path d="M 62.5 262.5 
L 450 262.5 
" style="fill:none;stroke:#555555;stroke-linecap:square;stroke-linejoin:miter;"/>
   </g>
   <g id="text_13">
    <!-- Puente Aranda | Casos nuevos: 2021-07-22 -->
    <g style="fill:#555555;" transform="translate(119.579375 17)scale(0.14 -0.14)">
     <defs>
      <path d="M 17.296875 37.203125 
L 17.296875 63.40625 
L 35.90625 63.40625 
Q 44 63.40625 47.75 60.046875 
Q 51.5 56.703125 51.5 50.296875 
Q 51.5 43.90625 47.75 40.5 
Q 44 37.09375 35.90625 37.203125 
z
M 7.796875 71.40625 
L 7.796875 0 
L 17.296875 0 
L 17.296875 29.203125 
L 39.09375 29.203125 
Q 49.90625 29.09375 55.453125 34.6875 
Q 61 40.296875 61 50.296875 
Q 61 60.296875 55.453125 65.84375 
Q 49.90625 71.40625 39.09375 71.40625 
z
" id="HelveticaNeue-80"/>
      <path id="HelveticaNeue-32"/>
      <path d="M 12.59375 25.40625 
Q 12.59375 29.203125 13.390625 32.796875 
Q 14.203125 36.40625 16 39.203125 
Q 17.796875 42 20.796875 43.703125 
Q 23.796875 45.40625 28.09375 45.40625 
Q 32.5 45.40625 35.59375 43.75 
Q 38.703125 42.09375 40.640625 39.390625 
Q 42.59375 36.703125 43.5 33.140625 
Q 44.40625 29.59375 44.40625 25.796875 
Q 44.40625 22.203125 43.546875 18.703125 
Q 42.703125 15.203125 40.796875 12.453125 
Q 38.90625 9.703125 35.90625 8 
Q 32.90625 6.296875 28.59375 6.296875 
Q 24.5 6.296875 21.453125 7.890625 
Q 18.40625 9.5 16.453125 12.203125 
Q 14.5 14.90625 13.546875 18.34375 
Q 12.59375 21.796875 12.59375 25.40625 
z
M 52.59375 0 
L 52.59375 71.40625 
L 44.09375 71.40625 
L 44.09375 44.796875 
L 43.90625 44.796875 
Q 42.5 47.09375 40.453125 48.640625 
Q 38.40625 50.203125 36.09375 51.140625 
Q 33.796875 52.09375 31.5 52.5 
Q 29.203125 52.90625 27.203125 52.90625 
Q 21.296875 52.90625 16.84375 50.75 
Q 12.40625 48.59375 9.453125 44.9375 
Q 6.5 41.296875 5.046875 36.390625 
Q 3.59375 31.5 3.59375 26 
Q 3.59375 20.5 5.09375 15.59375 
Q 6.59375 10.703125 9.546875 7 
Q 12.5 3.296875 16.953125 1.09375 
Q 21.40625 -1.09375 27.40625 -1.09375 
Q 32.796875 -1.09375 37.296875 0.796875 
Q 41.796875 2.703125 43.90625 7 
L 44.09375 7 
L 44.09375 0 
z
" id="HelveticaNeue-100"/>
      <path d="M 7.703125 78.59375 
L 7.703125 -21.296875 
L 14.5 -21.296875 
L 14.5 78.59375 
z
" id="HelveticaNeue-124"/>
      <path d="M 58 49.90625 
L 67.5 49.90625 
Q 66.703125 55.59375 64.09375 59.9375 
Q 61.5 64.296875 57.59375 67.1875 
Q 53.703125 70.09375 48.703125 71.59375 
Q 43.703125 73.09375 38.09375 73.09375 
Q 29.90625 73.09375 23.546875 70.140625 
Q 17.203125 67.203125 12.953125 62.09375 
Q 8.703125 57 6.5 50.140625 
Q 4.296875 43.296875 4.296875 35.5 
Q 4.296875 27.703125 6.34375 20.890625 
Q 8.40625 14.09375 12.5 9.09375 
Q 16.59375 4.09375 22.796875 1.25 
Q 29 -1.59375 37.296875 -1.59375 
Q 51 -1.59375 58.890625 5.90625 
Q 66.796875 13.40625 68.203125 26.90625 
L 58.703125 26.90625 
Q 58.40625 22.5 56.90625 18.703125 
Q 55.40625 14.90625 52.75 12.15625 
Q 50.09375 9.40625 46.4375 7.84375 
Q 42.796875 6.296875 38.09375 6.296875 
Q 31.703125 6.296875 27.09375 8.6875 
Q 22.5 11.09375 19.546875 15.140625 
Q 16.59375 19.203125 15.1875 24.640625 
Q 13.796875 30.09375 13.796875 36.203125 
Q 13.796875 41.796875 15.1875 47 
Q 16.59375 52.203125 19.546875 56.25 
Q 22.5 60.296875 27.046875 62.6875 
Q 31.59375 65.09375 38 65.09375 
Q 45.5 65.09375 50.953125 61.296875 
Q 56.40625 57.5 58 49.90625 
z
" id="HelveticaNeue-67"/>
      <path d="M 11.59375 16.296875 
L 3.09375 16.296875 
Q 3.296875 11.5 5.09375 8.140625 
Q 6.90625 4.796875 9.90625 2.75 
Q 12.90625 0.703125 16.796875 -0.1875 
Q 20.703125 -1.09375 25 -1.09375 
Q 28.90625 -1.09375 32.84375 -0.34375 
Q 36.796875 0.40625 39.9375 2.296875 
Q 43.09375 4.203125 45.046875 7.296875 
Q 47 10.40625 47 15.09375 
Q 47 18.796875 45.546875 21.296875 
Q 44.09375 23.796875 41.75 25.4375 
Q 39.40625 27.09375 36.34375 28.09375 
Q 33.296875 29.09375 30.09375 29.796875 
Q 27.09375 30.5 24.09375 31.140625 
Q 21.09375 31.796875 18.6875 32.75 
Q 16.296875 33.703125 14.75 35.140625 
Q 13.203125 36.59375 13.203125 38.796875 
Q 13.203125 40.796875 14.203125 42.046875 
Q 15.203125 43.296875 16.796875 44.046875 
Q 18.40625 44.796875 20.34375 45.09375 
Q 22.296875 45.40625 24.203125 45.40625 
Q 26.296875 45.40625 28.34375 44.953125 
Q 30.40625 44.5 32.09375 43.5 
Q 33.796875 42.5 34.890625 40.84375 
Q 36 39.203125 36.203125 36.703125 
L 44.703125 36.703125 
Q 44.40625 41.40625 42.703125 44.546875 
Q 41 47.703125 38.140625 49.546875 
Q 35.296875 51.40625 31.59375 52.15625 
Q 27.90625 52.90625 23.5 52.90625 
Q 20.09375 52.90625 16.640625 52.046875 
Q 13.203125 51.203125 10.453125 49.453125 
Q 7.703125 47.703125 5.953125 44.890625 
Q 4.203125 42.09375 4.203125 38.203125 
Q 4.203125 33.203125 6.703125 30.390625 
Q 9.203125 27.59375 12.953125 26.046875 
Q 16.703125 24.5 21.09375 23.640625 
Q 25.5 22.796875 29.25 21.75 
Q 33 20.703125 35.5 19 
Q 38 17.296875 38 14 
Q 38 11.59375 36.796875 10.046875 
Q 35.59375 8.5 33.75 7.703125 
Q 31.90625 6.90625 29.703125 6.59375 
Q 27.5 6.296875 25.5 6.296875 
Q 22.90625 6.296875 20.453125 6.796875 
Q 18 7.296875 16.046875 8.4375 
Q 14.09375 9.59375 12.890625 11.546875 
Q 11.703125 13.5 11.59375 16.296875 
z
" id="HelveticaNeue-115"/>
      <path d="M 12.59375 25.796875 
Q 12.59375 30.5 13.84375 34.140625 
Q 15.09375 37.796875 17.296875 40.296875 
Q 19.5 42.796875 22.453125 44.09375 
Q 25.40625 45.40625 28.703125 45.40625 
Q 32 45.40625 34.953125 44.09375 
Q 37.90625 42.796875 40.09375 40.296875 
Q 42.296875 37.796875 43.546875 34.140625 
Q 44.796875 30.5 44.796875 25.796875 
Q 44.796875 21.09375 43.546875 17.4375 
Q 42.296875 13.796875 40.09375 11.34375 
Q 37.90625 8.90625 34.953125 7.59375 
Q 32 6.296875 28.703125 6.296875 
Q 25.40625 6.296875 22.453125 7.59375 
Q 19.5 8.90625 17.296875 11.34375 
Q 15.09375 13.796875 13.84375 17.4375 
Q 12.59375 21.09375 12.59375 25.796875 
z
M 3.59375 25.796875 
Q 3.59375 20.09375 5.1875 15.1875 
Q 6.796875 10.296875 10 6.640625 
Q 13.203125 3 17.890625 0.953125 
Q 22.59375 -1.09375 28.703125 -1.09375 
Q 34.90625 -1.09375 39.546875 0.953125 
Q 44.203125 3 47.390625 6.640625 
Q 50.59375 10.296875 52.1875 15.1875 
Q 53.796875 20.09375 53.796875 25.796875 
Q 53.796875 31.5 52.1875 36.453125 
Q 50.59375 41.40625 47.390625 45.046875 
Q 44.203125 48.703125 39.546875 50.796875 
Q 34.90625 52.90625 28.703125 52.90625 
Q 22.59375 52.90625 17.890625 50.796875 
Q 13.203125 48.703125 10 45.046875 
Q 6.796875 41.40625 5.1875 36.453125 
Q 3.59375 31.5 3.59375 25.796875 
z
" id="HelveticaNeue-111"/>
      <path d="M 29.703125 0 
L 48.59375 51.703125 
L 39.703125 51.703125 
L 25.59375 8.59375 
L 25.40625 8.59375 
L 10.90625 51.703125 
L 1.40625 51.703125 
L 20.59375 0 
z
" id="HelveticaNeue-118"/>
      <path d="M 19.40625 40.59375 
L 19.40625 51.703125 
L 8.296875 51.703125 
L 8.296875 40.59375 
z
M 8.296875 11.09375 
L 8.296875 0 
L 19.40625 0 
L 19.40625 11.09375 
z
" id="HelveticaNeue-58"/>
      <path d="M 5 31.796875 
L 5 23.796875 
L 33.90625 23.796875 
L 33.90625 31.796875 
z
" id="HelveticaNeue-45"/>
      <path d="M 50.90625 62.40625 
L 50.90625 69.703125 
L 5 69.703125 
L 5 61.703125 
L 42.203125 61.703125 
Q 36.59375 55.796875 31.75 48.796875 
Q 26.90625 41.796875 23.203125 33.9375 
Q 19.5 26.09375 17.140625 17.546875 
Q 14.796875 9 14.203125 0 
L 23.703125 0 
Q 24.203125 8.296875 26.5 17.09375 
Q 28.796875 25.90625 32.4375 34.203125 
Q 36.09375 42.5 40.796875 49.796875 
Q 45.5 57.09375 50.90625 62.40625 
z
" id="HelveticaNeue-55"/>
     </defs>
     <use xlink:href="#HelveticaNeue-80"/>
     <use x="64.799988" xlink:href="#HelveticaNeue-117"/>
     <use x="120.399979" xlink:href="#HelveticaNeue-101"/>
     <use x="174.099976" xlink:href="#HelveticaNeue-110"/>
     <use x="229.699966" xlink:href="#HelveticaNeue-116"/>
     <use x="261.199951" xlink:href="#HelveticaNeue-101"/>
     <use x="314.899948" xlink:href="#HelveticaNeue-32"/>
     <use x="342.699936" xlink:href="#HelveticaNeue-65"/>
     <use x="407.499924" xlink:href="#HelveticaNeue-114"/>
     <use x="440.799911" xlink:href="#HelveticaNeue-97"/>
     <use x="494.499908" xlink:href="#HelveticaNeue-110"/>
     <use x="550.099899" xlink:href="#HelveticaNeue-100"/>
     <use x="609.399887" xlink:href="#HelveticaNeue-97"/>
     <use x="663.099884" xlink:href="#HelveticaNeue-32"/>
     <use x="690.899872" xlink:href="#HelveticaNeue-124"/>
     <use x="713.099869" xlink:href="#HelveticaNeue-32"/>
     <use x="740.899857" xlink:href="#HelveticaNeue-67"/>
     <use x="813.099838" xlink:href="#HelveticaNeue-97"/>
     <use x="866.799835" xlink:href="#HelveticaNeue-115"/>
     <use x="916.79982" xlink:href="#HelveticaNeue-111"/>
     <use x="974.199814" xlink:href="#HelveticaNeue-115"/>
     <use x="1024.199799" xlink:href="#HelveticaNeue-32"/>
     <use x="1051.999786" xlink:href="#HelveticaNeue-110"/>
     <use x="1107.599777" xlink:href="#HelveticaNeue-117"/>
     <use x="1163.199768" xlink:href="#HelveticaNeue-101"/>
     <use x="1216.899765" xlink:href="#HelveticaNeue-118"/>
     <use x="1266.89975" xlink:href="#HelveticaNeue-111"/>
     <use x="1324.299744" xlink:href="#HelveticaNeue-115"/>
     <use x="1374.299728" xlink:href="#HelveticaNeue-58"/>
     <use x="1402.099716" xlink:href="#HelveticaNeue-32"/>
     <use x="1429.899704" xlink:href="#HelveticaNeue-50"/>
     <use x="1485.499695" xlink:href="#HelveticaNeue-48"/>
     <use x="1541.099686" xlink:href="#HelveticaNeue-50"/>
     <use x="1596.699677" xlink:href="#HelveticaNeue-49"/>
     <use x="1652.299667" xlink:href="#HelveticaNeue-45"/>
     <use x="1691.199661" xlink:href="#HelveticaNeue-48"/>
     <use x="1746.799652" xlink:href="#HelveticaNeue-55"/>
     <use x="1802.399643" xlink:href="#HelveticaNeue-45"/>
     <use x="1841.299637" xlink:href="#HelveticaNeue-50"/>
     <use x="1896.899628" xlink:href="#HelveticaNeue-50"/>
    </g>
   </g>
   <g id="legend_1">
    <g id="line2d_26">
     <path d="M 71.5 39.640625 
L 91.5 39.640625 
" style="fill:none;stroke:#000000;stroke-dasharray:1.5,2.475;stroke-dashoffset:0;stroke-opacity:0.5;stroke-width:1.5;"/>
    </g>
    <g id="line2d_27"/>
    <g id="text_14">
     <!-- Actual -->
     <g style="fill:#555555;" transform="translate(99.5 43.140625)scale(0.1 -0.1)">
      <use xlink:href="#HelveticaNeue-65"/>
      <use x="64.799988" xlink:href="#HelveticaNeue-99"/>
      <use x="118.499985" xlink:href="#HelveticaNeue-116"/>
      <use x="149.999969" xlink:href="#HelveticaNeue-117"/>
      <use x="205.59996" xlink:href="#HelveticaNeue-97"/>
      <use x="259.299957" xlink:href="#HelveticaNeue-108"/>
     </g>
    </g>
    <g id="line2d_28">
     <path d="M 71.5 54.310937 
L 91.5 54.310937 
" style="fill:none;stroke:#b3220f;stroke-linecap:square;stroke-width:1.5;"/>
    </g>
    <g id="line2d_29"/>
    <g id="text_15">
     <!-- Promedio semanal (7 das)  -->
     <g style="fill:#555555;" transform="translate(99.5 57.810937)scale(0.1 -0.1)">
      <defs>
       <path d="M 6.40625 51.703125 
L 6.40625 0 
L 14.90625 0 
L 14.90625 32.203125 
Q 14.90625 33.703125 15.65625 35.953125 
Q 16.40625 38.203125 18.046875 40.296875 
Q 19.703125 42.40625 22.34375 43.90625 
Q 25 45.40625 28.703125 45.40625 
Q 31.59375 45.40625 33.4375 44.546875 
Q 35.296875 43.703125 36.390625 42.140625 
Q 37.5 40.59375 37.953125 38.5 
Q 38.40625 36.40625 38.40625 33.90625 
L 38.40625 0 
L 46.90625 0 
L 46.90625 32.203125 
Q 46.90625 38.203125 50.5 41.796875 
Q 54.09375 45.40625 60.40625 45.40625 
Q 63.5 45.40625 65.453125 44.5 
Q 67.40625 43.59375 68.5 42.046875 
Q 69.59375 40.5 70 38.390625 
Q 70.40625 36.296875 70.40625 33.90625 
L 70.40625 0 
L 78.90625 0 
L 78.90625 37.90625 
Q 78.90625 41.90625 77.65625 44.75 
Q 76.40625 47.59375 74.15625 49.390625 
Q 71.90625 51.203125 68.75 52.046875 
Q 65.59375 52.90625 61.703125 52.90625 
Q 56.59375 52.90625 52.34375 50.59375 
Q 48.09375 48.296875 45.5 44.09375 
Q 43.90625 48.90625 40 50.90625 
Q 36.09375 52.90625 31.296875 52.90625 
Q 20.40625 52.90625 14.59375 44.09375 
L 14.40625 44.09375 
L 14.40625 51.703125 
z
" id="HelveticaNeue-109"/>
       <path d="M 15.40625 61 
L 15.40625 71.40625 
L 6.90625 71.40625 
L 6.90625 61 
z
M 6.90625 51.703125 
L 6.90625 0 
L 15.40625 0 
L 15.40625 51.703125 
z
" id="HelveticaNeue-105"/>
       <path d="M 20.40625 -19.703125 
L 26.90625 -19.703125 
Q 19.796875 -8.203125 16.75 3.09375 
Q 13.703125 14.40625 13.703125 27 
Q 13.703125 39.296875 16.703125 50.5 
Q 19.703125 61.703125 26.90625 73.09375 
L 20.40625 73.09375 
Q 12.59375 62.796875 8.640625 50.796875 
Q 4.703125 38.796875 4.703125 27 
Q 4.703125 20.40625 5.796875 14.40625 
Q 6.90625 8.40625 8.953125 2.703125 
Q 11 -3 13.890625 -8.546875 
Q 16.796875 -14.09375 20.40625 -19.703125 
z
" id="HelveticaNeue-40"/>
       <path d="M 6.90625 0 
L 15.40625 0 
L 15.40625 51.703125 
L 6.90625 51.703125 
z
M 25.5 77 
L 11.40625 60.796875 
L 5 60.796875 
L 14.59375 77 
z
" id="HelveticaNeue-237"/>
       <path d="M -0.90625 -19.703125 
L 5.5 -19.703125 
Q 13.296875 -9.40625 17.25 2.546875 
Q 21.203125 14.5 21.203125 26.296875 
Q 21.203125 32.90625 20.09375 38.90625 
Q 19 44.90625 16.953125 50.65625 
Q 14.90625 56.40625 12 61.953125 
Q 9.09375 67.5 5.5 73.09375 
L -0.90625 73.09375 
Q 6.09375 61.59375 9.140625 50.25 
Q 12.203125 38.90625 12.203125 26.296875 
Q 12.203125 14.09375 9.203125 2.84375 
Q 6.203125 -8.40625 -0.90625 -19.703125 
z
" id="HelveticaNeue-41"/>
      </defs>
      <use xlink:href="#HelveticaNeue-80"/>
      <use x="64.799988" xlink:href="#HelveticaNeue-114"/>
      <use x="96.349976" xlink:href="#HelveticaNeue-111"/>
      <use x="153.749969" xlink:href="#HelveticaNeue-109"/>
      <use x="239.049957" xlink:href="#HelveticaNeue-101"/>
      <use x="292.749954" xlink:href="#HelveticaNeue-100"/>
      <use x="352.049942" xlink:href="#HelveticaNeue-105"/>
      <use x="374.249939" xlink:href="#HelveticaNeue-111"/>
      <use x="431.649933" xlink:href="#HelveticaNeue-32"/>
      <use x="459.449921" xlink:href="#HelveticaNeue-115"/>
      <use x="509.449905" xlink:href="#HelveticaNeue-101"/>
      <use x="563.149902" xlink:href="#HelveticaNeue-109"/>
      <use x="648.44989" xlink:href="#HelveticaNeue-97"/>
      <use x="702.149887" xlink:href="#HelveticaNeue-110"/>
      <use x="757.749878" xlink:href="#HelveticaNeue-97"/>
      <use x="811.449875" xlink:href="#HelveticaNeue-108"/>
      <use x="833.649872" xlink:href="#HelveticaNeue-32"/>
      <use x="861.44986" xlink:href="#HelveticaNeue-40"/>
      <use x="887.349854" xlink:href="#HelveticaNeue-55"/>
      <use x="942.949844" xlink:href="#HelveticaNeue-32"/>
      <use x="970.749832" xlink:href="#HelveticaNeue-100"/>
      <use x="1030.04982" xlink:href="#HelveticaNeue-237"/>
      <use x="1052.249817" xlink:href="#HelveticaNeue-97"/>
      <use x="1105.949814" xlink:href="#HelveticaNeue-115"/>
      <use x="1155.949799" xlink:href="#HelveticaNeue-41"/>
      <use x="1181.849792" xlink:href="#HelveticaNeue-32"/>
     </g>
    </g>
   </g>
  </g>
 </g>
 <defs>
  <clipPath id="pb1e508635a">
   <rect height="235.5" width="387.5" x="62.5" y="27"/>
  </clipPath>
 </defs>
</svg>
