<?xml version="1.0" encoding="utf-8" standalone="no"?>
<!DOCTYPE svg PUBLIC "-//W3C//DTD SVG 1.1//EN"
  "http://www.w3.org/Graphics/SVG/1.1/DTD/svg11.dtd">
<!-- Created with matplotlib (https://matplotlib.org/) -->
<svg height="300pt" version="1.1" viewBox="0 0 500 300" width="500pt" xmlns="http://www.w3.org/2000/svg" xmlns:xlink="http://www.w3.org/1999/xlink">
 <metadata>
  <rdf:RDF xmlns:cc="http://creativecommons.org/ns#" xmlns:dc="http://purl.org/dc/elements/1.1/" xmlns:rdf="http://www.w3.org/1999/02/22-rdf-syntax-ns#">
   <cc:Work>
    <dc:type rdf:resource="http://purl.org/dc/dcmitype/StillImage"/>
    <dc:date>2021-06-19T21:11:28.852280</dc:date>
    <dc:format>image/svg+xml</dc:format>
    <dc:creator>
     <cc:Agent>
      <dc:title>Matplotlib v3.3.4, https://matplotlib.org/</dc:title>
     </cc:Agent>
    </dc:creator>
   </cc:Work>
  </rdf:RDF>
 </metadata>
 <defs>
  <style type="text/css">*{stroke-linecap:butt;stroke-linejoin:round;}</style>
 </defs>
 <g id="figure_1">
  <g id="patch_1">
   <path d="M 0 300 
L 500 300 
L 500 0 
L 0 0 
z
" style="fill:#ffffff;"/>
  </g>
  <g id="axes_1">
   <g id="patch_2">
    <path d="M 62.5 262.5 
L 450 262.5 
L 450 27 
L 62.5 27 
z
" style="fill:#ffffff;"/>
   </g>
   <g id="matplotlib.axis_1">
    <g id="xtick_1">
     <g id="line2d_1">
      <defs>
       <path d="M 0 0 
L 0 3.5 
" id="med373413e1" style="stroke:#555555;stroke-width:0.8;"/>
      </defs>
      <g>
       <use style="fill:#555555;stroke:#555555;stroke-width:0.8;" x="62.5" xlink:href="#med373413e1" y="262.5"/>
      </g>
     </g>
    </g>
    <g id="xtick_2">
     <g id="line2d_2">
      <g>
       <use style="fill:#555555;stroke:#555555;stroke-width:0.8;" x="141.581633" xlink:href="#med373413e1" y="262.5"/>
      </g>
     </g>
     <g id="text_1">
      <!-- Jul -->
      <g style="fill:#555555;" transform="translate(135.096476 276.640625)scale(0.1 -0.1)">
       <defs>
        <path d="M 44.09375 17.796875 
L 44.09375 71.40625 
L 34.59375 71.40625 
L 34.59375 19.203125 
Q 34.59375 13.296875 32.140625 9.796875 
Q 29.703125 6.296875 23.203125 6.296875 
Q 19.703125 6.296875 17.453125 7.34375 
Q 15.203125 8.40625 13.953125 10.296875 
Q 12.703125 12.203125 12.203125 14.796875 
Q 11.703125 17.40625 11.703125 20.5 
L 11.703125 23.5 
L 2.203125 23.5 
L 2.203125 19.09375 
Q 2.203125 8.90625 7.59375 3.65625 
Q 13 -1.59375 23 -1.59375 
Q 29 -1.59375 33.046875 0.046875 
Q 37.09375 1.703125 39.546875 4.453125 
Q 42 7.203125 43.046875 10.703125 
Q 44.09375 14.203125 44.09375 17.796875 
z
" id="HelveticaNeue-74"/>
        <path d="M 49.203125 0 
L 49.203125 51.703125 
L 40.703125 51.703125 
L 40.703125 22.5 
Q 40.703125 19 39.75 16.046875 
Q 38.796875 13.09375 36.890625 10.890625 
Q 35 8.703125 32.140625 7.5 
Q 29.296875 6.296875 25.40625 6.296875 
Q 20.5 6.296875 17.703125 9.09375 
Q 14.90625 11.90625 14.90625 16.703125 
L 14.90625 51.703125 
L 6.40625 51.703125 
L 6.40625 17.703125 
Q 6.40625 13.5 7.25 10.046875 
Q 8.09375 6.59375 10.1875 4.09375 
Q 12.296875 1.59375 15.6875 0.25 
Q 19.09375 -1.09375 24.203125 -1.09375 
Q 29.90625 -1.09375 34.09375 1.15625 
Q 38.296875 3.40625 41 8.203125 
L 41.203125 8.203125 
L 41.203125 0 
z
" id="HelveticaNeue-117"/>
        <path d="M 6.90625 71.40625 
L 6.90625 0 
L 15.40625 0 
L 15.40625 71.40625 
z
" id="HelveticaNeue-108"/>
       </defs>
       <use xlink:href="#HelveticaNeue-74"/>
       <use x="51.899994" xlink:href="#HelveticaNeue-117"/>
       <use x="107.499985" xlink:href="#HelveticaNeue-108"/>
      </g>
     </g>
    </g>
    <g id="xtick_3">
     <g id="line2d_3">
      <g>
       <use style="fill:#555555;stroke:#555555;stroke-width:0.8;" x="222.420635" xlink:href="#med373413e1" y="262.5"/>
      </g>
     </g>
     <g id="text_2">
      <!-- Oct -->
      <g style="fill:#555555;" transform="translate(214.360479 276.640625)scale(0.1 -0.1)">
       <defs>
        <path d="M 13.296875 35.703125 
Q 13.296875 41.09375 14.6875 46.34375 
Q 16.09375 51.59375 19.09375 55.796875 
Q 22.09375 60 26.796875 62.546875 
Q 31.5 65.09375 38 65.09375 
Q 44.5 65.09375 49.203125 62.546875 
Q 53.90625 60 56.90625 55.796875 
Q 59.90625 51.59375 61.296875 46.34375 
Q 62.703125 41.09375 62.703125 35.703125 
Q 62.703125 30.296875 61.296875 25.046875 
Q 59.90625 19.796875 56.90625 15.59375 
Q 53.90625 11.40625 49.203125 8.84375 
Q 44.5 6.296875 38 6.296875 
Q 31.5 6.296875 26.796875 8.84375 
Q 22.09375 11.40625 19.09375 15.59375 
Q 16.09375 19.796875 14.6875 25.046875 
Q 13.296875 30.296875 13.296875 35.703125 
z
M 3.796875 35.703125 
Q 3.796875 28.40625 5.9375 21.65625 
Q 8.09375 14.90625 12.390625 9.703125 
Q 16.703125 4.5 23.09375 1.453125 
Q 29.5 -1.59375 38 -1.59375 
Q 46.5 -1.59375 52.890625 1.453125 
Q 59.296875 4.5 63.59375 9.703125 
Q 67.90625 14.90625 70.046875 21.65625 
Q 72.203125 28.40625 72.203125 35.703125 
Q 72.203125 43 70.046875 49.75 
Q 67.90625 56.5 63.59375 61.703125 
Q 59.296875 66.90625 52.890625 70 
Q 46.5 73.09375 38 73.09375 
Q 29.5 73.09375 23.09375 70 
Q 16.703125 66.90625 12.390625 61.703125 
Q 8.09375 56.5 5.9375 49.75 
Q 3.796875 43 3.796875 35.703125 
z
" id="HelveticaNeue-79"/>
        <path d="M 41.5 35.09375 
L 50.296875 35.09375 
Q 49.796875 39.703125 47.890625 43.046875 
Q 46 46.40625 43.046875 48.59375 
Q 40.09375 50.796875 36.25 51.84375 
Q 32.40625 52.90625 28 52.90625 
Q 21.90625 52.90625 17.296875 50.75 
Q 12.703125 48.59375 9.640625 44.84375 
Q 6.59375 41.09375 5.09375 36.046875 
Q 3.59375 31 3.59375 25.203125 
Q 3.59375 19.40625 5.140625 14.546875 
Q 6.703125 9.703125 9.75 6.203125 
Q 12.796875 2.703125 17.34375 0.796875 
Q 21.90625 -1.09375 27.796875 -1.09375 
Q 37.703125 -1.09375 43.453125 4.09375 
Q 49.203125 9.296875 50.59375 18.90625 
L 41.90625 18.90625 
Q 41.09375 12.90625 37.546875 9.59375 
Q 34 6.296875 27.703125 6.296875 
Q 23.703125 6.296875 20.796875 7.890625 
Q 17.90625 9.5 16.09375 12.140625 
Q 14.296875 14.796875 13.4375 18.1875 
Q 12.59375 21.59375 12.59375 25.203125 
Q 12.59375 29.09375 13.390625 32.75 
Q 14.203125 36.40625 16.046875 39.203125 
Q 17.90625 42 21 43.703125 
Q 24.09375 45.40625 28.703125 45.40625 
Q 34.09375 45.40625 37.296875 42.703125 
Q 40.5 40 41.5 35.09375 
z
" id="HelveticaNeue-99"/>
        <path d="M 18.203125 51.703125 
L 18.203125 67.203125 
L 9.703125 67.203125 
L 9.703125 51.703125 
L 0.90625 51.703125 
L 0.90625 44.203125 
L 9.703125 44.203125 
L 9.703125 11.296875 
Q 9.703125 7.703125 10.390625 5.5 
Q 11.09375 3.296875 12.546875 2.09375 
Q 14 0.90625 16.34375 0.453125 
Q 18.703125 0 22 0 
L 28.5 0 
L 28.5 7.5 
L 24.59375 7.5 
Q 22.59375 7.5 21.34375 7.640625 
Q 20.09375 7.796875 19.390625 8.296875 
Q 18.703125 8.796875 18.453125 9.6875 
Q 18.203125 10.59375 18.203125 12.09375 
L 18.203125 44.203125 
L 28.5 44.203125 
L 28.5 51.703125 
z
" id="HelveticaNeue-116"/>
       </defs>
       <use xlink:href="#HelveticaNeue-79"/>
       <use x="75.999985" xlink:href="#HelveticaNeue-99"/>
       <use x="129.699982" xlink:href="#HelveticaNeue-116"/>
      </g>
     </g>
    </g>
    <g id="xtick_4">
     <g id="line2d_4">
      <g>
       <use style="fill:#555555;stroke:#555555;stroke-width:0.8;" x="303.259637" xlink:href="#med373413e1" y="262.5"/>
      </g>
     </g>
     <g id="text_3">
      <!-- Jan -->
      <g style="fill:#555555;" transform="translate(295.199481 276.640625)scale(0.1 -0.1)">
       <defs>
        <path d="M 52.203125 0.203125 
Q 50 -1.09375 46.09375 -1.09375 
Q 42.796875 -1.09375 40.84375 0.75 
Q 38.90625 2.59375 38.90625 6.796875 
Q 35.40625 2.59375 30.75 0.75 
Q 26.09375 -1.09375 20.703125 -1.09375 
Q 17.203125 -1.09375 14.046875 -0.296875 
Q 10.90625 0.5 8.59375 2.203125 
Q 6.296875 3.90625 4.9375 6.65625 
Q 3.59375 9.40625 3.59375 13.296875 
Q 3.59375 17.703125 5.09375 20.5 
Q 6.59375 23.296875 9.046875 25.046875 
Q 11.5 26.796875 14.640625 27.6875 
Q 17.796875 28.59375 21.09375 29.203125 
Q 24.59375 29.90625 27.75 30.25 
Q 30.90625 30.59375 33.296875 31.25 
Q 35.703125 31.90625 37.09375 33.15625 
Q 38.5 34.40625 38.5 36.796875 
Q 38.5 39.59375 37.453125 41.296875 
Q 36.40625 43 34.75 43.890625 
Q 33.09375 44.796875 31.046875 45.09375 
Q 29 45.40625 27 45.40625 
Q 21.59375 45.40625 18 43.34375 
Q 14.40625 41.296875 14.09375 35.59375 
L 5.59375 35.59375 
Q 5.796875 40.40625 7.59375 43.703125 
Q 9.40625 47 12.40625 49.046875 
Q 15.40625 51.09375 19.25 52 
Q 23.09375 52.90625 27.5 52.90625 
Q 31 52.90625 34.453125 52.40625 
Q 37.90625 51.90625 40.703125 50.34375 
Q 43.5 48.796875 45.203125 46 
Q 46.90625 43.203125 46.90625 38.703125 
L 46.90625 12.09375 
Q 46.90625 9.09375 47.25 7.6875 
Q 47.59375 6.296875 49.59375 6.296875 
Q 50.703125 6.296875 52.203125 6.796875 
z
M 38.40625 26.703125 
Q 36.796875 25.5 34.1875 24.953125 
Q 31.59375 24.40625 28.75 24.046875 
Q 25.90625 23.703125 23 23.25 
Q 20.09375 22.796875 17.796875 21.796875 
Q 15.5 20.796875 14.046875 18.9375 
Q 12.59375 17.09375 12.59375 13.90625 
Q 12.59375 11.796875 13.4375 10.34375 
Q 14.296875 8.90625 15.640625 8 
Q 17 7.09375 18.796875 6.6875 
Q 20.59375 6.296875 22.59375 6.296875 
Q 26.796875 6.296875 29.796875 7.4375 
Q 32.796875 8.59375 34.6875 10.34375 
Q 36.59375 12.09375 37.5 14.140625 
Q 38.40625 16.203125 38.40625 18 
z
" id="HelveticaNeue-97"/>
        <path d="M 6.40625 51.703125 
L 6.40625 0 
L 14.90625 0 
L 14.90625 29.203125 
Q 14.90625 32.703125 15.84375 35.640625 
Q 16.796875 38.59375 18.6875 40.796875 
Q 20.59375 43 23.4375 44.203125 
Q 26.296875 45.40625 30.203125 45.40625 
Q 35.09375 45.40625 37.890625 42.59375 
Q 40.703125 39.796875 40.703125 35 
L 40.703125 0 
L 49.203125 0 
L 49.203125 34 
Q 49.203125 38.203125 48.34375 41.640625 
Q 47.5 45.09375 45.390625 47.59375 
Q 43.296875 50.09375 39.890625 51.5 
Q 36.5 52.90625 31.40625 52.90625 
Q 19.90625 52.90625 14.59375 43.5 
L 14.40625 43.5 
L 14.40625 51.703125 
z
" id="HelveticaNeue-110"/>
       </defs>
       <use xlink:href="#HelveticaNeue-74"/>
       <use x="51.899994" xlink:href="#HelveticaNeue-97"/>
       <use x="105.599991" xlink:href="#HelveticaNeue-110"/>
      </g>
      <!-- 2021 -->
      <g style="fill:#555555;" transform="translate(292.140887 287.179688)scale(0.1 -0.1)">
       <defs>
        <path d="M 4.40625 45.796875 
L 12.90625 45.796875 
Q 12.796875 49 13.546875 52.140625 
Q 14.296875 55.296875 16 57.796875 
Q 17.703125 60.296875 20.34375 61.84375 
Q 23 63.40625 26.703125 63.40625 
Q 29.5 63.40625 32 62.5 
Q 34.5 61.59375 36.34375 59.890625 
Q 38.203125 58.203125 39.296875 55.84375 
Q 40.40625 53.5 40.40625 50.59375 
Q 40.40625 46.90625 39.25 44.09375 
Q 38.09375 41.296875 35.84375 38.890625 
Q 33.59375 36.5 30.1875 34.140625 
Q 26.796875 31.796875 22.296875 29 
Q 18.59375 26.796875 15.1875 24.296875 
Q 11.796875 21.796875 9.09375 18.5 
Q 6.40625 15.203125 4.65625 10.75 
Q 2.90625 6.296875 2.40625 0 
L 48.703125 0 
L 48.703125 7.5 
L 12.296875 7.5 
Q 12.90625 10.796875 14.84375 13.34375 
Q 16.796875 15.90625 19.546875 18.09375 
Q 22.296875 20.296875 25.59375 22.25 
Q 28.90625 24.203125 32.203125 26.203125 
Q 35.5 28.296875 38.59375 30.59375 
Q 41.703125 32.90625 44.09375 35.75 
Q 46.5 38.59375 47.953125 42.1875 
Q 49.40625 45.796875 49.40625 50.5 
Q 49.40625 55.5 47.65625 59.296875 
Q 45.90625 63.09375 42.90625 65.640625 
Q 39.90625 68.203125 35.84375 69.546875 
Q 31.796875 70.90625 27.203125 70.90625 
Q 21.59375 70.90625 17.1875 69 
Q 12.796875 67.09375 9.84375 63.75 
Q 6.90625 60.40625 5.5 55.796875 
Q 4.09375 51.203125 4.40625 45.796875 
z
" id="HelveticaNeue-50"/>
        <path d="M 13.203125 34.90625 
Q 13.203125 37.5 13.25 40.640625 
Q 13.296875 43.796875 13.75 46.9375 
Q 14.203125 50.09375 15.046875 53.09375 
Q 15.90625 56.09375 17.546875 58.34375 
Q 19.203125 60.59375 21.703125 62 
Q 24.203125 63.40625 27.796875 63.40625 
Q 31.40625 63.40625 33.90625 62 
Q 36.40625 60.59375 38.046875 58.34375 
Q 39.703125 56.09375 40.546875 53.09375 
Q 41.40625 50.09375 41.84375 46.9375 
Q 42.296875 43.796875 42.34375 40.640625 
Q 42.40625 37.5 42.40625 34.90625 
Q 42.40625 30.90625 42.15625 25.953125 
Q 41.90625 21 40.546875 16.640625 
Q 39.203125 12.296875 36.203125 9.296875 
Q 33.203125 6.296875 27.796875 6.296875 
Q 22.40625 6.296875 19.40625 9.296875 
Q 16.40625 12.296875 15.046875 16.640625 
Q 13.703125 21 13.453125 25.953125 
Q 13.203125 30.90625 13.203125 34.90625 
z
M 4.203125 34.796875 
Q 4.203125 30.90625 4.390625 26.703125 
Q 4.59375 22.5 5.390625 18.5 
Q 6.203125 14.5 7.703125 10.953125 
Q 9.203125 7.40625 11.796875 4.703125 
Q 14.40625 2 18.34375 0.453125 
Q 22.296875 -1.09375 27.796875 -1.09375 
Q 33.40625 -1.09375 37.296875 0.453125 
Q 41.203125 2 43.796875 4.703125 
Q 46.40625 7.40625 47.90625 10.953125 
Q 49.40625 14.5 50.203125 18.5 
Q 51 22.5 51.203125 26.703125 
Q 51.40625 30.90625 51.40625 34.796875 
Q 51.40625 38.703125 51.203125 42.890625 
Q 51 47.09375 50.203125 51.09375 
Q 49.40625 55.09375 47.90625 58.6875 
Q 46.40625 62.296875 43.796875 65 
Q 41.203125 67.703125 37.25 69.296875 
Q 33.296875 70.90625 27.796875 70.90625 
Q 22.296875 70.90625 18.34375 69.296875 
Q 14.40625 67.703125 11.796875 65 
Q 9.203125 62.296875 7.703125 58.6875 
Q 6.203125 55.09375 5.390625 51.09375 
Q 4.59375 47.09375 4.390625 42.890625 
Q 4.203125 38.703125 4.203125 34.796875 
z
" id="HelveticaNeue-48"/>
        <path d="M 35.59375 0 
L 35.59375 70.90625 
L 29.09375 70.90625 
Q 28.40625 66.90625 26.5 64.296875 
Q 24.59375 61.703125 21.84375 60.203125 
Q 19.09375 58.703125 15.6875 58.140625 
Q 12.296875 57.59375 8.703125 57.59375 
L 8.703125 50.796875 
L 27.09375 50.796875 
L 27.09375 0 
z
" id="HelveticaNeue-49"/>
       </defs>
       <use xlink:href="#HelveticaNeue-50"/>
       <use x="55.599991" xlink:href="#HelveticaNeue-48"/>
       <use x="111.199982" xlink:href="#HelveticaNeue-50"/>
       <use x="166.799973" xlink:href="#HelveticaNeue-49"/>
      </g>
     </g>
    </g>
    <g id="xtick_5">
     <g id="line2d_5">
      <g>
       <use style="fill:#555555;stroke:#555555;stroke-width:0.8;" x="382.34127" xlink:href="#med373413e1" y="262.5"/>
      </g>
     </g>
     <g id="text_4">
      <!-- Apr -->
      <g style="fill:#555555;" transform="translate(374.471739 276.640625)scale(0.1 -0.1)">
       <defs>
        <path d="M 20.09375 29.5 
L 32.203125 62.796875 
L 32.40625 62.796875 
L 44.296875 29.5 
z
M 27.203125 71.40625 
L -0.59375 0 
L 9.09375 0 
L 17.09375 21.5 
L 47.296875 21.5 
L 55.09375 0 
L 65.59375 0 
L 37.703125 71.40625 
z
" id="HelveticaNeue-65"/>
        <path d="M 6.703125 51.703125 
L 6.703125 -19.703125 
L 15.203125 -19.703125 
L 15.203125 6.90625 
L 15.40625 6.90625 
Q 16.796875 4.59375 18.84375 3.046875 
Q 20.90625 1.5 23.203125 0.59375 
Q 25.5 -0.296875 27.84375 -0.6875 
Q 30.203125 -1.09375 32.09375 -1.09375 
Q 38 -1.09375 42.453125 1 
Q 46.90625 3.09375 49.84375 6.75 
Q 52.796875 10.40625 54.25 15.296875 
Q 55.703125 20.203125 55.703125 25.703125 
Q 55.703125 31.203125 54.203125 36.09375 
Q 52.703125 41 49.75 44.75 
Q 46.796875 48.5 42.34375 50.703125 
Q 37.90625 52.90625 31.90625 52.90625 
Q 26.5 52.90625 22 50.953125 
Q 17.5 49 15.40625 44.703125 
L 15.203125 44.703125 
L 15.203125 51.703125 
z
M 46.703125 26.296875 
Q 46.703125 22.5 45.890625 18.890625 
Q 45.09375 15.296875 43.296875 12.5 
Q 41.5 9.703125 38.546875 8 
Q 35.59375 6.296875 31.203125 6.296875 
Q 26.796875 6.296875 23.6875 7.9375 
Q 20.59375 9.59375 18.640625 12.296875 
Q 16.703125 15 15.796875 18.546875 
Q 14.90625 22.09375 14.90625 25.90625 
Q 14.90625 29.5 15.75 33 
Q 16.59375 36.5 18.5 39.25 
Q 20.40625 42 23.40625 43.703125 
Q 26.40625 45.40625 30.703125 45.40625 
Q 34.796875 45.40625 37.84375 43.796875 
Q 40.90625 42.203125 42.84375 39.5 
Q 44.796875 36.796875 45.75 33.34375 
Q 46.703125 29.90625 46.703125 26.296875 
z
" id="HelveticaNeue-112"/>
        <path d="M 6.09375 51.703125 
L 6.09375 0 
L 14.59375 0 
L 14.59375 23 
Q 14.59375 28 15.59375 31.84375 
Q 16.59375 35.703125 18.796875 38.390625 
Q 21 41.09375 24.59375 42.5 
Q 28.203125 43.90625 33.296875 43.90625 
L 33.296875 52.90625 
Q 26.40625 53.09375 21.90625 50.09375 
Q 17.40625 47.09375 14.296875 40.796875 
L 14.09375 40.796875 
L 14.09375 51.703125 
z
" id="HelveticaNeue-114"/>
       </defs>
       <use xlink:href="#HelveticaNeue-65"/>
       <use x="64.799988" xlink:href="#HelveticaNeue-112"/>
       <use x="124.099976" xlink:href="#HelveticaNeue-114"/>
      </g>
     </g>
    </g>
    <g id="xtick_6">
     <g id="line2d_6">
      <g>
       <use style="fill:#555555;stroke:#555555;stroke-width:0.8;" x="450" xlink:href="#med373413e1" y="262.5"/>
      </g>
     </g>
    </g>
    <g id="xtick_7">
     <g id="line2d_7">
      <defs>
       <path d="M 0 0 
L 0 2 
" id="m000a881f86" style="stroke:#555555;stroke-width:0.6;"/>
      </defs>
      <g>
       <use style="fill:#555555;stroke:#555555;stroke-width:0.6;" x="87.981859" xlink:href="#m000a881f86" y="262.5"/>
      </g>
     </g>
    </g>
    <g id="xtick_8">
     <g id="line2d_8">
      <g>
       <use style="fill:#555555;stroke:#555555;stroke-width:0.6;" x="115.221088" xlink:href="#m000a881f86" y="262.5"/>
      </g>
     </g>
    </g>
    <g id="xtick_9">
     <g id="line2d_9">
      <g>
       <use style="fill:#555555;stroke:#555555;stroke-width:0.6;" x="168.820862" xlink:href="#m000a881f86" y="262.5"/>
      </g>
     </g>
    </g>
    <g id="xtick_10">
     <g id="line2d_10">
      <g>
       <use style="fill:#555555;stroke:#555555;stroke-width:0.6;" x="196.060091" xlink:href="#m000a881f86" y="262.5"/>
      </g>
     </g>
    </g>
    <g id="xtick_11">
     <g id="line2d_11">
      <g>
       <use style="fill:#555555;stroke:#555555;stroke-width:0.6;" x="249.659864" xlink:href="#m000a881f86" y="262.5"/>
      </g>
     </g>
    </g>
    <g id="xtick_12">
     <g id="line2d_12">
      <g>
       <use style="fill:#555555;stroke:#555555;stroke-width:0.6;" x="276.020408" xlink:href="#m000a881f86" y="262.5"/>
      </g>
     </g>
    </g>
    <g id="xtick_13">
     <g id="line2d_13">
      <g>
       <use style="fill:#555555;stroke:#555555;stroke-width:0.6;" x="330.498866" xlink:href="#m000a881f86" y="262.5"/>
      </g>
     </g>
    </g>
    <g id="xtick_14">
     <g id="line2d_14">
      <g>
       <use style="fill:#555555;stroke:#555555;stroke-width:0.6;" x="355.102041" xlink:href="#m000a881f86" y="262.5"/>
      </g>
     </g>
    </g>
    <g id="xtick_15">
     <g id="line2d_15">
      <g>
       <use style="fill:#555555;stroke:#555555;stroke-width:0.6;" x="408.701814" xlink:href="#m000a881f86" y="262.5"/>
      </g>
     </g>
    </g>
    <g id="xtick_16">
     <g id="line2d_16">
      <g>
       <use style="fill:#555555;stroke:#555555;stroke-width:0.6;" x="435.941043" xlink:href="#m000a881f86" y="262.5"/>
      </g>
     </g>
    </g>
    <g id="text_5">
     <!-- fecha -->
     <g style="fill:#555555;" transform="translate(243.935156 300.290625)scale(0.1 -0.1)">
      <defs>
       <path d="M 9.90625 44.203125 
L 9.90625 0 
L 18.40625 0 
L 18.40625 44.203125 
L 28.40625 44.203125 
L 28.40625 51.703125 
L 18.40625 51.703125 
L 18.40625 58.90625 
Q 18.40625 62.296875 20.09375 63.5 
Q 21.796875 64.703125 24.90625 64.703125 
Q 26 64.703125 27.296875 64.546875 
Q 28.59375 64.40625 29.703125 64 
L 29.703125 71.40625 
Q 28.5 71.796875 26.953125 72 
Q 25.40625 72.203125 24.203125 72.203125 
Q 17.203125 72.203125 13.546875 68.953125 
Q 9.90625 65.703125 9.90625 59.40625 
L 9.90625 51.703125 
L 1.203125 51.703125 
L 1.203125 44.203125 
z
" id="HelveticaNeue-102"/>
       <path d="M 42.296875 30.796875 
L 12.59375 30.796875 
Q 12.796875 33.796875 13.890625 36.4375 
Q 15 39.09375 16.890625 41.09375 
Q 18.796875 43.09375 21.4375 44.25 
Q 24.09375 45.40625 27.40625 45.40625 
Q 30.59375 45.40625 33.25 44.25 
Q 35.90625 43.09375 37.84375 41.140625 
Q 39.796875 39.203125 40.9375 36.5 
Q 42.09375 33.796875 42.296875 30.796875 
z
M 50.5 16.40625 
L 42.09375 16.40625 
Q 41 11.296875 37.546875 8.796875 
Q 34.09375 6.296875 28.703125 6.296875 
Q 24.5 6.296875 21.390625 7.6875 
Q 18.296875 9.09375 16.296875 11.4375 
Q 14.296875 13.796875 13.390625 16.84375 
Q 12.5 19.90625 12.59375 23.296875 
L 51.296875 23.296875 
Q 51.5 28 50.453125 33.203125 
Q 49.40625 38.40625 46.65625 42.796875 
Q 43.90625 47.203125 39.34375 50.046875 
Q 34.796875 52.90625 27.90625 52.90625 
Q 22.59375 52.90625 18.140625 50.90625 
Q 13.703125 48.90625 10.453125 45.296875 
Q 7.203125 41.703125 5.390625 36.796875 
Q 3.59375 31.90625 3.59375 26 
Q 3.796875 20.09375 5.34375 15.09375 
Q 6.90625 10.09375 10 6.5 
Q 13.09375 2.90625 17.640625 0.90625 
Q 22.203125 -1.09375 28.40625 -1.09375 
Q 37.203125 -1.09375 43 3.296875 
Q 48.796875 7.703125 50.5 16.40625 
z
" id="HelveticaNeue-101"/>
       <path d="M 6.40625 71.40625 
L 6.40625 0 
L 14.90625 0 
L 14.90625 29.203125 
Q 14.90625 32.703125 15.84375 35.640625 
Q 16.796875 38.59375 18.6875 40.796875 
Q 20.59375 43 23.4375 44.203125 
Q 26.296875 45.40625 30.203125 45.40625 
Q 35.09375 45.40625 37.890625 42.59375 
Q 40.703125 39.796875 40.703125 35 
L 40.703125 0 
L 49.203125 0 
L 49.203125 34 
Q 49.203125 38.203125 48.34375 41.640625 
Q 47.5 45.09375 45.390625 47.59375 
Q 43.296875 50.09375 39.890625 51.5 
Q 36.5 52.90625 31.40625 52.90625 
Q 29.09375 52.90625 26.640625 52.40625 
Q 24.203125 51.90625 21.953125 50.84375 
Q 19.703125 49.796875 17.890625 48.140625 
Q 16.09375 46.5 15.09375 44.09375 
L 14.90625 44.09375 
L 14.90625 71.40625 
z
" id="HelveticaNeue-104"/>
      </defs>
      <use xlink:href="#HelveticaNeue-102"/>
      <use x="29.599991" xlink:href="#HelveticaNeue-101"/>
      <use x="83.299988" xlink:href="#HelveticaNeue-99"/>
      <use x="136.999985" xlink:href="#HelveticaNeue-104"/>
      <use x="192.599976" xlink:href="#HelveticaNeue-97"/>
     </g>
    </g>
   </g>
   <g id="matplotlib.axis_2">
    <g id="ytick_1">
     <g id="line2d_17">
      <defs>
       <path d="M 0 0 
L -3.5 0 
" id="m6136aad955" style="stroke:#555555;stroke-width:0.8;"/>
      </defs>
      <g>
       <use style="fill:#555555;stroke:#555555;stroke-width:0.8;" x="62.5" xlink:href="#m6136aad955" y="251.795455"/>
      </g>
     </g>
     <g id="text_6">
      <!-- 0 -->
      <g style="fill:#555555;" transform="translate(49.940625 255.365767)scale(0.1 -0.1)">
       <use xlink:href="#HelveticaNeue-48"/>
      </g>
     </g>
    </g>
    <g id="ytick_2">
     <g id="line2d_18">
      <g>
       <use style="fill:#555555;stroke:#555555;stroke-width:0.8;" x="62.5" xlink:href="#m6136aad955" y="220.812689"/>
      </g>
     </g>
     <g id="text_7">
      <!-- 100 -->
      <g style="fill:#555555;" transform="translate(38.821875 224.383002)scale(0.1 -0.1)">
       <use xlink:href="#HelveticaNeue-49"/>
       <use x="55.599991" xlink:href="#HelveticaNeue-48"/>
       <use x="111.199982" xlink:href="#HelveticaNeue-48"/>
      </g>
     </g>
    </g>
    <g id="ytick_3">
     <g id="line2d_19">
      <g>
       <use style="fill:#555555;stroke:#555555;stroke-width:0.8;" x="62.5" xlink:href="#m6136aad955" y="189.829924"/>
      </g>
     </g>
     <g id="text_8">
      <!-- 200 -->
      <g style="fill:#555555;" transform="translate(38.821875 193.400236)scale(0.1 -0.1)">
       <use xlink:href="#HelveticaNeue-50"/>
       <use x="55.599991" xlink:href="#HelveticaNeue-48"/>
       <use x="111.199982" xlink:href="#HelveticaNeue-48"/>
      </g>
     </g>
    </g>
    <g id="ytick_4">
     <g id="line2d_20">
      <g>
       <use style="fill:#555555;stroke:#555555;stroke-width:0.8;" x="62.5" xlink:href="#m6136aad955" y="158.847158"/>
      </g>
     </g>
     <g id="text_9">
      <!-- 300 -->
      <g style="fill:#555555;" transform="translate(38.821875 162.417471)scale(0.1 -0.1)">
       <defs>
        <path d="M 21.796875 40.5 
L 21.796875 33.296875 
Q 24.203125 33.59375 26.90625 33.59375 
Q 30.09375 33.59375 32.84375 32.75 
Q 35.59375 31.90625 37.59375 30.15625 
Q 39.59375 28.40625 40.796875 25.84375 
Q 42 23.296875 42 20 
Q 42 16.796875 40.75 14.25 
Q 39.5 11.703125 37.390625 9.953125 
Q 35.296875 8.203125 32.5 7.25 
Q 29.703125 6.296875 26.59375 6.296875 
Q 19.296875 6.296875 15.5 10.640625 
Q 11.703125 15 11.5 21.90625 
L 3 21.90625 
Q 2.90625 16.40625 4.546875 12.09375 
Q 6.203125 7.796875 9.296875 4.84375 
Q 12.40625 1.90625 16.796875 0.40625 
Q 21.203125 -1.09375 26.59375 -1.09375 
Q 31.59375 -1.09375 36.046875 0.25 
Q 40.5 1.59375 43.796875 4.296875 
Q 47.09375 7 49.046875 11.046875 
Q 51 15.09375 51 20.40625 
Q 51 26.796875 47.84375 31.5 
Q 44.703125 36.203125 38.203125 37.59375 
L 38.203125 37.796875 
Q 42.40625 39.703125 45.203125 43.390625 
Q 48 47.09375 48 51.90625 
Q 48 56.796875 46.34375 60.390625 
Q 44.703125 64 41.796875 66.296875 
Q 38.90625 68.59375 34.953125 69.75 
Q 31 70.90625 26.40625 70.90625 
Q 21.09375 70.90625 17.046875 69.203125 
Q 13 67.5 10.296875 64.5 
Q 7.59375 61.5 6.140625 57.296875 
Q 4.703125 53.09375 4.5 48 
L 13 48 
Q 13 51.09375 13.796875 53.890625 
Q 14.59375 56.703125 16.25 58.796875 
Q 17.90625 60.90625 20.453125 62.15625 
Q 23 63.40625 26.40625 63.40625 
Q 31.796875 63.40625 35.390625 60.546875 
Q 39 57.703125 39 52 
Q 39 49.203125 37.890625 47 
Q 36.796875 44.796875 34.9375 43.34375 
Q 33.09375 41.90625 30.640625 41.15625 
Q 28.203125 40.40625 25.5 40.40625 
L 23.703125 40.40625 
Q 23.203125 40.40625 22.703125 40.40625 
Q 22.296875 40.40625 21.796875 40.5 
z
" id="HelveticaNeue-51"/>
       </defs>
       <use xlink:href="#HelveticaNeue-51"/>
       <use x="55.599991" xlink:href="#HelveticaNeue-48"/>
       <use x="111.199982" xlink:href="#HelveticaNeue-48"/>
      </g>
     </g>
    </g>
    <g id="ytick_5">
     <g id="line2d_21">
      <g>
       <use style="fill:#555555;stroke:#555555;stroke-width:0.8;" x="62.5" xlink:href="#m6136aad955" y="127.864393"/>
      </g>
     </g>
     <g id="text_10">
      <!-- 400 -->
      <g style="fill:#555555;" transform="translate(38.821875 131.434705)scale(0.1 -0.1)">
       <defs>
        <path d="M 33.90625 24.09375 
L 10.09375 24.09375 
L 33.703125 58.796875 
L 33.90625 58.796875 
z
M 41.90625 24.09375 
L 41.90625 70.90625 
L 35.09375 70.90625 
L 2.796875 24.796875 
L 2.796875 16.59375 
L 33.90625 16.59375 
L 33.90625 0 
L 41.90625 0 
L 41.90625 16.59375 
L 51.5 16.59375 
L 51.5 24.09375 
z
" id="HelveticaNeue-52"/>
       </defs>
       <use xlink:href="#HelveticaNeue-52"/>
       <use x="55.599991" xlink:href="#HelveticaNeue-48"/>
       <use x="111.199982" xlink:href="#HelveticaNeue-48"/>
      </g>
     </g>
    </g>
    <g id="ytick_6">
     <g id="line2d_22">
      <g>
       <use style="fill:#555555;stroke:#555555;stroke-width:0.8;" x="62.5" xlink:href="#m6136aad955" y="96.881627"/>
      </g>
     </g>
     <g id="text_11">
      <!-- 500 -->
      <g style="fill:#555555;" transform="translate(38.821875 100.45194)scale(0.1 -0.1)">
       <defs>
        <path d="M 47 62.203125 
L 47 69.703125 
L 12 69.703125 
L 5.40625 32.90625 
L 12.703125 32.5 
Q 15.203125 35.5 18.453125 37.34375 
Q 21.703125 39.203125 25.90625 39.203125 
Q 29.5 39.203125 32.453125 38 
Q 35.40625 36.796875 37.5 34.640625 
Q 39.59375 32.5 40.75 29.546875 
Q 41.90625 26.59375 41.90625 23.09375 
Q 41.90625 18.90625 40.703125 15.75 
Q 39.5 12.59375 37.453125 10.5 
Q 35.40625 8.40625 32.65625 7.34375 
Q 29.90625 6.296875 26.90625 6.296875 
Q 23.703125 6.296875 21.046875 7.25 
Q 18.40625 8.203125 16.453125 9.953125 
Q 14.5 11.703125 13.34375 14.046875 
Q 12.203125 16.40625 12 19.09375 
L 3.5 19.09375 
Q 3.59375 14.296875 5.390625 10.5 
Q 7.203125 6.703125 10.296875 4.140625 
Q 13.40625 1.59375 17.453125 0.25 
Q 21.5 -1.09375 26.09375 -1.09375 
Q 32.296875 -1.09375 36.9375 0.84375 
Q 41.59375 2.796875 44.6875 6.09375 
Q 47.796875 9.40625 49.34375 13.65625 
Q 50.90625 17.90625 50.90625 22.40625 
Q 50.90625 28.5 49.09375 33.046875 
Q 47.296875 37.59375 44.1875 40.640625 
Q 41.09375 43.703125 36.890625 45.203125 
Q 32.703125 46.703125 28 46.703125 
Q 24.40625 46.703125 20.75 45.453125 
Q 17.09375 44.203125 14.796875 41.59375 
L 14.59375 41.796875 
L 18.40625 62.203125 
z
" id="HelveticaNeue-53"/>
       </defs>
       <use xlink:href="#HelveticaNeue-53"/>
       <use x="55.599991" xlink:href="#HelveticaNeue-48"/>
       <use x="111.199982" xlink:href="#HelveticaNeue-48"/>
      </g>
     </g>
    </g>
    <g id="ytick_7">
     <g id="line2d_23">
      <g>
       <use style="fill:#555555;stroke:#555555;stroke-width:0.8;" x="62.5" xlink:href="#m6136aad955" y="65.898862"/>
      </g>
     </g>
     <g id="text_12">
      <!-- 600 -->
      <g style="fill:#555555;" transform="translate(38.821875 69.469174)scale(0.1 -0.1)">
       <defs>
        <path d="M 41.40625 52.796875 
L 49.90625 52.796875 
Q 49.09375 61.59375 43.890625 66.25 
Q 38.703125 70.90625 29.90625 70.90625 
Q 22.296875 70.90625 17.296875 67.703125 
Q 12.296875 64.5 9.296875 59.203125 
Q 6.296875 53.90625 5.046875 47.046875 
Q 3.796875 40.203125 3.796875 32.90625 
Q 3.796875 27.296875 4.640625 21.296875 
Q 5.5 15.296875 8.09375 10.296875 
Q 10.703125 5.296875 15.5 2.09375 
Q 20.296875 -1.09375 28.203125 -1.09375 
Q 34.90625 -1.09375 39.453125 1.15625 
Q 44 3.40625 46.75 6.84375 
Q 49.5 10.296875 50.703125 14.5 
Q 51.90625 18.703125 51.90625 22.59375 
Q 51.90625 27.5 50.40625 31.703125 
Q 48.90625 35.90625 46.15625 39 
Q 43.40625 42.09375 39.34375 43.84375 
Q 35.296875 45.59375 30.203125 45.59375 
Q 24.40625 45.59375 19.953125 43.390625 
Q 15.5 41.203125 12.5 36.296875 
L 12.296875 36.5 
Q 12.40625 40.59375 13.09375 45.296875 
Q 13.796875 50 15.640625 54.046875 
Q 17.5 58.09375 20.796875 60.75 
Q 24.09375 63.40625 29.5 63.40625 
Q 34.59375 63.40625 37.6875 60.5 
Q 40.796875 57.59375 41.40625 52.796875 
z
M 28.59375 38.09375 
Q 32.203125 38.09375 34.890625 36.796875 
Q 37.59375 35.5 39.390625 33.34375 
Q 41.203125 31.203125 42.046875 28.25 
Q 42.90625 25.296875 42.90625 22 
Q 42.90625 18.90625 41.953125 16.046875 
Q 41 13.203125 39.203125 11 
Q 37.40625 8.796875 34.75 7.546875 
Q 32.09375 6.296875 28.59375 6.296875 
Q 25.09375 6.296875 22.34375 7.546875 
Q 19.59375 8.796875 17.75 10.890625 
Q 15.90625 13 14.90625 15.890625 
Q 13.90625 18.796875 13.90625 22.09375 
Q 13.90625 25.40625 14.84375 28.34375 
Q 15.796875 31.296875 17.6875 33.4375 
Q 19.59375 35.59375 22.296875 36.84375 
Q 25 38.09375 28.59375 38.09375 
z
" id="HelveticaNeue-54"/>
       </defs>
       <use xlink:href="#HelveticaNeue-54"/>
       <use x="55.599991" xlink:href="#HelveticaNeue-48"/>
       <use x="111.199982" xlink:href="#HelveticaNeue-48"/>
      </g>
     </g>
    </g>
    <g id="ytick_8">
     <g id="line2d_24">
      <g>
       <use style="fill:#555555;stroke:#555555;stroke-width:0.8;" x="62.5" xlink:href="#m6136aad955" y="34.916097"/>
      </g>
     </g>
     <g id="text_13">
      <!-- 700 -->
      <g style="fill:#555555;" transform="translate(38.821875 38.486409)scale(0.1 -0.1)">
       <defs>
        <path d="M 50.90625 62.40625 
L 50.90625 69.703125 
L 5 69.703125 
L 5 61.703125 
L 42.203125 61.703125 
Q 36.59375 55.796875 31.75 48.796875 
Q 26.90625 41.796875 23.203125 33.9375 
Q 19.5 26.09375 17.140625 17.546875 
Q 14.796875 9 14.203125 0 
L 23.703125 0 
Q 24.203125 8.296875 26.5 17.09375 
Q 28.796875 25.90625 32.4375 34.203125 
Q 36.09375 42.5 40.796875 49.796875 
Q 45.5 57.09375 50.90625 62.40625 
z
" id="HelveticaNeue-55"/>
       </defs>
       <use xlink:href="#HelveticaNeue-55"/>
       <use x="55.599991" xlink:href="#HelveticaNeue-48"/>
       <use x="111.199982" xlink:href="#HelveticaNeue-48"/>
      </g>
     </g>
    </g>
   </g>
   <g id="line2d_25">
    <path clip-path="url(#p0659e004cd)" d="M 63.378685 251.175799 
L 64.25737 249.936489 
L 65.136054 251.795455 
L 66.014739 251.485627 
L 66.893424 250.556144 
L 68.650794 251.795455 
L 69.529478 251.485627 
L 70.408163 251.795455 
L 71.286848 251.485627 
L 72.165533 251.485627 
L 73.044218 250.556144 
L 73.922902 251.175799 
L 74.801587 249.626661 
L 75.680272 249.316833 
L 76.558957 249.316833 
L 77.437642 249.626661 
L 78.316327 250.246316 
L 79.195011 251.485627 
L 80.073696 250.865972 
L 80.952381 251.175799 
L 81.831066 251.795455 
L 82.709751 250.556144 
L 84.46712 249.936489 
L 85.345805 251.485627 
L 86.22449 250.246316 
L 87.103175 249.316833 
L 87.981859 251.175799 
L 88.860544 250.865972 
L 89.739229 248.697178 
L 90.617914 250.246316 
L 91.496599 243.430108 
L 92.375283 250.865972 
L 93.253968 247.767695 
L 94.132653 248.077523 
L 95.011338 249.316833 
L 95.890023 250.865972 
L 96.768707 250.556144 
L 97.647392 249.936489 
L 98.526077 250.556144 
L 99.404762 248.38735 
L 101.162132 250.246316 
L 102.040816 249.316833 
L 102.919501 249.316833 
L 103.798186 247.767695 
L 105.555556 249.626661 
L 106.43424 242.810453 
L 107.312925 247.457867 
L 108.19161 249.936489 
L 109.070295 248.697178 
L 109.94898 248.077523 
L 110.827664 244.669418 
L 111.706349 242.190797 
L 112.585034 246.838212 
L 113.463719 247.767695 
L 114.342404 246.838212 
L 115.221088 246.218557 
L 116.099773 242.810453 
L 116.978458 246.528384 
L 117.857143 247.457867 
L 118.735828 244.979246 
L 119.614512 249.316833 
L 120.493197 244.359591 
L 121.371882 246.528384 
L 122.250567 235.994244 
L 123.129252 242.190797 
L 124.007937 247.14804 
L 124.886621 244.049763 
L 125.765306 244.359591 
L 126.643991 244.359591 
L 127.522676 246.218557 
L 128.401361 243.12028 
L 129.280045 242.500625 
L 130.15873 238.472865 
L 131.037415 235.994244 
L 131.9161 241.261314 
L 132.794785 241.571142 
L 133.673469 234.754934 
L 134.552154 236.923727 
L 135.430839 224.840449 
L 136.309524 241.571142 
L 137.188209 237.233555 
L 138.066893 222.981483 
L 138.945578 237.233555 
L 139.824263 239.402348 
L 140.702948 223.29131 
L 141.581633 229.797691 
L 142.460317 200.983719 
L 143.339002 239.092521 
L 144.217687 214.925964 
L 145.096372 234.754934 
L 145.975057 227.009242 
L 146.853741 220.812689 
L 147.732426 222.671655 
L 148.611111 223.601138 
L 149.489796 216.78493 
L 150.368481 219.573379 
L 151.247166 209.039238 
L 152.12585 229.178036 
L 153.004535 222.981483 
L 153.88322 193.547856 
L 154.761905 203.772168 
L 155.64059 197.575615 
L 156.519274 196.336304 
L 157.397959 173.409058 
L 158.276644 146.76388 
L 159.155329 134.060946 
L 160.034014 37.704545 
L 160.912698 194.477339 
L 161.791383 157.917675 
L 162.670068 189.520096 
L 163.548753 169.071471 
L 164.427438 152.340778 
L 165.306122 187.66113 
L 166.184807 200.364064 
L 167.063492 183.943198 
L 167.942177 200.054236 
L 168.820862 195.096994 
L 169.699546 208.419583 
L 170.578231 196.646132 
L 171.456916 158.227503 
L 172.335601 188.280785 
L 173.214286 213.686653 
L 174.092971 203.46234 
L 174.971655 215.235791 
L 175.85034 218.643896 
L 176.729025 183.633371 
L 177.60771 174.958196 
L 178.486395 195.716649 
L 179.365079 200.054236 
L 181.122449 186.731647 
L 182.001134 202.842685 
L 182.879819 194.787166 
L 183.758503 166.283022 
L 184.637188 203.46234 
L 185.515873 206.870445 
L 186.394558 185.492337 
L 187.273243 202.22303 
L 188.151927 221.122517 
L 189.030612 214.616136 
L 189.909297 200.983719 
L 190.787982 209.968721 
L 191.666667 226.699415 
L 192.545351 207.799928 
L 193.424036 218.334068 
L 194.302721 221.122517 
L 195.181406 212.137515 
L 196.060091 208.419583 
L 196.938776 236.613899 
L 197.81746 212.447342 
L 198.696145 222.361827 
L 199.57483 227.009242 
L 200.453515 239.712176 
L 201.3322 205.631134 
L 202.210884 224.840449 
L 203.089569 231.037002 
L 203.968254 219.883206 
L 204.846939 223.29131 
L 205.725624 221.122517 
L 206.604308 215.235791 
L 207.482993 225.769932 
L 208.361678 215.855447 
L 209.240363 219.573379 
L 210.119048 206.250789 
L 210.997732 201.603375 
L 211.876417 226.699415 
L 212.755102 235.994244 
L 213.633787 232.895968 
L 214.512472 236.613899 
L 215.391156 225.769932 
L 216.269841 224.840449 
L 217.148526 233.205795 
L 218.027211 233.205795 
L 218.905896 232.895968 
L 219.78458 230.727174 
L 220.663265 219.573379 
L 221.54195 232.895968 
L 222.420635 231.346829 
L 223.29932 215.545619 
L 224.178005 222.052 
L 225.056689 217.404585 
L 225.935374 227.009242 
L 226.814059 229.487863 
L 227.692744 231.037002 
L 228.571429 222.981483 
L 229.450113 233.205795 
L 230.328798 230.417346 
L 231.207483 238.472865 
L 232.086168 243.12028 
L 232.964853 243.12028 
L 233.843537 230.727174 
L 234.722222 222.671655 
L 235.600907 220.502861 
L 236.479592 233.515623 
L 237.358277 231.346829 
L 238.236961 224.530621 
L 239.115646 230.417346 
L 239.994331 228.55838 
L 240.873016 222.671655 
L 241.751701 219.573379 
L 242.630385 235.684417 
L 243.50907 231.346829 
L 244.387755 229.797691 
L 245.26644 227.938725 
L 246.145125 219.883206 
L 247.02381 230.727174 
L 247.902494 228.55838 
L 248.781179 230.107519 
L 249.659864 239.402348 
L 250.538549 235.994244 
L 251.417234 231.346829 
L 252.295918 220.812689 
L 253.174603 230.727174 
L 254.053288 235.374589 
L 254.931973 235.374589 
L 255.810658 227.31907 
L 256.689342 230.107519 
L 257.568027 220.502861 
L 258.446712 228.868208 
L 259.325397 230.107519 
L 260.204082 239.092521 
L 261.082766 237.543382 
L 261.961451 241.261314 
L 262.840136 227.628898 
L 263.718821 226.699415 
L 264.597506 229.797691 
L 265.47619 225.150276 
L 266.354875 231.966485 
L 267.23356 229.487863 
L 268.112245 237.543382 
L 268.99093 229.487863 
L 269.869615 212.447342 
L 270.748299 213.066998 
L 271.626984 212.75717 
L 272.505669 212.75717 
L 273.384354 229.487863 
L 274.263039 232.276312 
L 275.141723 226.699415 
L 276.020408 217.404585 
L 277.777778 231.966485 
L 278.656463 208.729411 
L 279.535147 214.925964 
L 280.413832 232.276312 
L 281.292517 219.263551 
L 282.171202 231.346829 
L 283.049887 218.953723 
L 283.928571 203.152513 
L 284.807256 217.404585 
L 285.685941 213.066998 
L 286.564626 225.150276 
L 287.443311 217.404585 
L 288.321995 221.432344 
L 289.20068 196.026477 
L 290.079365 211.517859 
L 290.95805 199.124753 
L 291.836735 212.447342 
L 292.71542 214.306308 
L 293.594104 213.996481 
L 294.472789 194.787166 
L 295.351474 207.4901 
L 296.230159 198.814926 
L 297.108844 220.812689 
L 297.987528 218.02424 
L 298.866213 212.137515 
L 300.623583 183.323543 
L 301.502268 188.900441 
L 302.380952 207.4901 
L 303.259637 228.868208 
L 304.138322 203.46234 
L 305.017007 199.744409 
L 305.895692 207.799928 
L 306.774376 186.421819 
L 307.653061 171.550092 
L 308.531746 186.731647 
L 309.410431 187.66113 
L 310.289116 205.631134 
L 311.1678 204.081996 
L 312.046485 216.165274 
L 312.92517 152.960433 
L 313.803855 170.310781 
L 314.68254 181.774405 
L 315.561224 175.887679 
L 316.439909 187.66113 
L 317.318594 176.817162 
L 318.197279 202.532858 
L 319.075964 190.759407 
L 319.954649 172.789403 
L 320.833333 190.449579 
L 321.712018 191.998717 
L 322.590703 187.351302 
L 323.469388 208.109755 
L 324.348073 173.409058 
L 325.226757 208.419583 
L 326.105442 190.759407 
L 326.984127 184.872681 
L 327.862812 209.658894 
L 328.741497 227.009242 
L 329.620181 218.334068 
L 330.498866 215.855447 
L 332.256236 230.107519 
L 333.134921 220.502861 
L 334.013605 227.938725 
L 334.89229 228.868208 
L 335.770975 234.135278 
L 336.64966 233.515623 
L 337.528345 229.487863 
L 338.407029 232.276312 
L 339.285714 232.895968 
L 340.164399 236.613899 
L 341.043084 240.951487 
L 341.921769 234.135278 
L 342.800454 240.331831 
L 343.679138 232.895968 
L 344.557823 237.85321 
L 345.436508 237.543382 
L 346.315193 238.782693 
L 347.193878 239.402348 
L 348.072562 242.500625 
L 348.951247 243.12028 
L 349.829932 242.810453 
L 350.708617 236.304072 
L 351.587302 240.331831 
L 352.465986 243.12028 
L 353.344671 244.049763 
L 354.223356 242.810453 
L 355.102041 243.430108 
L 355.980726 239.712176 
L 356.85941 240.331831 
L 357.738095 240.641659 
L 358.61678 242.500625 
L 360.37415 244.979246 
L 361.252834 244.979246 
L 362.131519 244.049763 
L 363.010204 235.064761 
L 363.888889 241.88097 
L 364.767574 243.430108 
L 365.646259 245.598901 
L 366.524943 245.289074 
L 367.403628 245.908729 
L 368.282313 241.261314 
L 369.160998 242.190797 
L 370.039683 243.739936 
L 370.918367 241.571142 
L 371.797052 244.049763 
L 373.554422 245.289074 
L 374.433107 242.190797 
L 375.311791 236.613899 
L 376.190476 235.684417 
L 377.069161 231.346829 
L 377.947846 232.276312 
L 378.826531 242.190797 
L 379.705215 235.374589 
L 380.5839 232.895968 
L 381.462585 231.346829 
L 382.34127 230.417346 
L 383.219955 241.571142 
L 384.098639 233.515623 
L 384.977324 239.092521 
L 385.856009 232.58614 
L 386.734694 216.475102 
L 387.613379 223.29131 
L 388.492063 216.475102 
L 389.370748 218.334068 
L 390.249433 211.827687 
L 391.128118 226.389587 
L 392.006803 211.827687 
L 392.885488 180.535094 
L 393.764172 195.096994 
L 394.642857 201.913202 
L 395.521542 198.19527 
L 396.400227 213.996481 
L 397.278912 214.925964 
L 398.157596 182.084232 
L 399.036281 183.323543 
L 399.914966 185.492337 
L 400.793651 188.590613 
L 401.672336 190.139751 
L 402.55102 205.631134 
L 403.429705 218.643896 
L 404.30839 193.857683 
L 405.187075 185.492337 
L 406.06576 211.827687 
L 406.944444 191.68889 
L 407.823129 176.197507 
L 408.701814 212.137515 
L 409.580499 190.449579 
L 410.459184 183.013715 
L 411.337868 200.364064 
L 412.216553 209.039238 
L 413.095238 154.199743 
L 413.973923 197.575615 
L 415.731293 200.054236 
L 418.367347 166.59285 
L 419.246032 199.434581 
L 420.124717 206.560617 
L 421.003401 195.406821 
L 421.882086 217.094757 
L 422.760771 197.575615 
L 423.639456 191.998717 
L 424.518141 174.028713 
L 425.396825 175.577852 
L 426.27551 160.396297 
L 427.154195 164.114228 
L 428.03288 160.396297 
L 428.911565 173.409058 
L 429.790249 119.189219 
L 430.668934 149.552329 
L 431.547619 144.285259 
L 432.426304 156.678365 
L 433.304989 130.652842 
L 434.183673 181.154749 
L 435.062358 168.761643 
L 435.941043 126.93491 
L 436.819728 145.834397 
L 437.698413 121.358012 
L 438.577098 162.874918 
L 439.455782 144.285259 
L 440.334467 183.633371 
L 441.213152 183.013715 
L 442.091837 160.396297 
L 442.970522 166.283022 
L 443.849206 168.451816 
L 444.727891 178.676128 
L 445.606576 135.919912 
L 446.485261 182.39406 
L 447.363946 160.396297 
L 448.24263 170.310781 
L 449.121315 215.855447 
L 450 251.795455 
L 450 251.795455 
" style="fill:none;stroke:#000000;stroke-dasharray:1.5,2.475;stroke-dashoffset:0;stroke-opacity:0.5;stroke-width:1.5;"/>
   </g>
   <g id="line2d_26">
    <path clip-path="url(#p0659e004cd)" d="M 62.5 250.865972 
L 63.378685 251.175799 
L 64.25737 250.865972 
L 65.136054 251.175799 
L 66.893424 251.175799 
L 67.772109 251.485627 
L 71.286848 251.485627 
L 75.680272 249.936489 
L 77.437642 249.936489 
L 80.073696 250.865972 
L 83.588435 250.865972 
L 84.46712 250.556144 
L 86.22449 250.556144 
L 87.103175 250.246316 
L 87.981859 250.246316 
L 88.860544 249.316833 
L 89.739229 249.316833 
L 90.617914 249.007006 
L 91.496599 248.38735 
L 93.253968 248.38735 
L 94.132653 248.697178 
L 95.011338 249.626661 
L 95.890023 249.626661 
L 96.768707 249.936489 
L 98.526077 249.936489 
L 99.404762 249.626661 
L 100.283447 249.626661 
L 102.040816 249.007006 
L 102.919501 249.007006 
L 104.676871 247.767695 
L 107.312925 247.767695 
L 108.19161 247.457867 
L 109.070295 246.838212 
L 109.94898 246.838212 
L 113.463719 245.598901 
L 115.221088 246.218557 
L 116.099773 245.908729 
L 116.978458 246.218557 
L 117.857143 245.908729 
L 118.735828 246.218557 
L 119.614512 245.289074 
L 121.371882 244.049763 
L 123.129252 243.430108 
L 124.007937 243.430108 
L 124.886621 243.739936 
L 125.765306 244.669418 
L 126.643991 244.669418 
L 127.522676 243.430108 
L 129.280045 241.571142 
L 130.15873 240.951487 
L 131.037415 239.712176 
L 131.9161 238.782693 
L 132.794785 236.923727 
L 134.552154 236.304072 
L 135.430839 234.445106 
L 136.309524 233.515623 
L 137.188209 234.135278 
L 138.066893 232.895968 
L 138.945578 232.895968 
L 139.824263 228.55838 
L 140.702948 227.628898 
L 141.581633 225.769932 
L 143.339002 223.910966 
L 144.217687 224.220793 
L 145.096372 223.910966 
L 145.975057 225.769932 
L 146.853741 223.29131 
L 147.732426 223.29131 
L 148.611111 220.193034 
L 149.489796 219.883206 
L 150.368481 219.883206 
L 153.004535 211.517859 
L 153.88322 207.4901 
L 154.761905 202.22303 
L 156.519274 179.915439 
L 157.397959 159.466814 
L 159.155329 143.355776 
L 160.034014 142.426293 
L 160.912698 145.524569 
L 161.791383 150.791639 
L 162.670068 160.086469 
L 163.548753 176.817162 
L 164.427438 176.817162 
L 165.306122 182.39406 
L 166.184807 184.872681 
L 167.942177 196.026477 
L 169.699546 191.379062 
L 170.578231 192.9282 
L 171.456916 193.238028 
L 172.335601 195.716649 
L 173.214286 198.814926 
L 174.092971 200.054236 
L 174.971655 201.913202 
L 175.85034 200.983719 
L 176.729025 197.885443 
L 177.60771 195.716649 
L 178.486395 192.618373 
L 179.365079 191.379062 
L 180.243764 193.238028 
L 181.122449 192.308545 
L 182.001134 192.308545 
L 182.879819 192.618373 
L 183.758503 192.308545 
L 184.637188 193.857683 
L 185.515873 196.646132 
L 186.394558 200.364064 
L 187.273243 205.011479 
L 188.151927 206.250789 
L 189.909297 212.137515 
L 190.787982 213.686653 
L 191.666667 213.996481 
L 192.545351 214.616136 
L 193.424036 215.545619 
L 194.302721 217.714413 
L 195.181406 216.78493 
L 196.060091 218.643896 
L 196.938776 219.883206 
L 197.81746 222.361827 
L 198.696145 222.671655 
L 199.57483 224.220793 
L 200.453515 223.601138 
L 201.3322 224.220793 
L 202.210884 224.220793 
L 203.089569 223.29131 
L 203.968254 221.122517 
L 204.846939 222.671655 
L 206.604308 220.193034 
L 207.482993 218.643896 
L 208.361678 215.855447 
L 209.240363 215.545619 
L 210.997732 218.643896 
L 211.876417 222.361827 
L 212.755102 224.840449 
L 214.512472 231.037002 
L 215.391156 231.346829 
L 217.148526 230.727174 
L 218.027211 229.487863 
L 219.78458 230.107519 
L 222.420635 224.530621 
L 223.29932 223.601138 
L 224.178005 224.220793 
L 225.056689 224.220793 
L 225.935374 223.910966 
L 226.814059 226.389587 
L 227.692744 227.628898 
L 229.450113 232.276312 
L 230.328798 234.445106 
L 231.207483 235.374589 
L 232.086168 235.684417 
L 232.964853 233.825451 
L 233.843537 232.895968 
L 234.722222 231.037002 
L 235.600907 228.868208 
L 236.479592 227.628898 
L 237.358277 227.628898 
L 238.236961 227.938725 
L 239.115646 227.31907 
L 239.994331 227.009242 
L 240.873016 227.31907 
L 241.751701 227.938725 
L 242.630385 227.938725 
L 243.50907 227.628898 
L 244.387755 228.248553 
L 245.26644 228.55838 
L 246.145125 227.938725 
L 247.02381 228.868208 
L 248.781179 231.346829 
L 249.659864 231.656657 
L 250.538549 231.346829 
L 252.295918 231.966485 
L 253.174603 230.727174 
L 254.053288 230.417346 
L 254.931973 229.487863 
L 255.810658 229.797691 
L 256.689342 229.178036 
L 257.568027 229.487863 
L 258.446712 230.107519 
L 259.325397 232.276312 
L 260.204082 232.895968 
L 261.082766 233.825451 
L 261.961451 233.515623 
L 264.597506 229.797691 
L 265.47619 229.487863 
L 266.354875 230.107519 
L 267.23356 228.868208 
L 268.112245 226.699415 
L 268.99093 224.220793 
L 269.869615 220.812689 
L 270.748299 219.573379 
L 271.626984 218.953723 
L 272.505669 219.883206 
L 273.384354 221.432344 
L 275.141723 225.150276 
L 276.020408 224.530621 
L 276.899093 222.361827 
L 277.777778 222.052 
L 278.656463 221.122517 
L 279.535147 222.671655 
L 280.413832 222.361827 
L 281.292517 219.883206 
L 282.171202 220.193034 
L 283.049887 218.953723 
L 283.928571 217.404585 
L 284.807256 217.094757 
L 285.685941 216.475102 
L 286.564626 214.925964 
L 287.443311 215.235791 
L 288.321995 212.447342 
L 289.20068 211.208032 
L 290.079365 209.349066 
L 290.95805 209.039238 
L 291.836735 206.870445 
L 292.71542 208.109755 
L 293.594104 206.560617 
L 294.472789 208.109755 
L 295.351474 208.419583 
L 296.230159 209.039238 
L 297.108844 208.419583 
L 297.987528 207.180272 
L 298.866213 204.081996 
L 299.744898 202.842685 
L 300.623583 202.842685 
L 301.502268 201.913202 
L 302.380952 202.22303 
L 303.259637 204.391823 
L 304.138322 205.011479 
L 305.017007 201.603375 
L 305.895692 197.265787 
L 306.774376 191.379062 
L 307.653061 190.449579 
L 308.531746 191.069234 
L 309.410431 193.547856 
L 310.289116 191.998717 
L 311.1678 191.379062 
L 312.046485 189.210268 
L 313.803855 182.084232 
L 314.68254 178.676128 
L 315.561224 178.676128 
L 316.439909 183.633371 
L 317.318594 184.872681 
L 318.197279 185.802164 
L 319.075964 187.66113 
L 319.954649 187.66113 
L 320.833333 190.449579 
L 321.712018 188.280785 
L 323.469388 192.9282 
L 324.348073 192.618373 
L 325.226757 194.167511 
L 326.105442 198.505098 
L 326.984127 201.603375 
L 327.862812 207.4901 
L 328.741497 210.898204 
L 329.620181 216.475102 
L 330.498866 220.812689 
L 331.377551 222.981483 
L 332.256236 223.601138 
L 333.134921 225.769932 
L 334.013605 228.248553 
L 335.770975 230.107519 
L 338.407029 233.825451 
L 339.285714 234.135278 
L 340.164399 235.374589 
L 342.800454 237.233555 
L 344.557823 237.233555 
L 345.436508 238.163038 
L 346.315193 238.782693 
L 347.193878 240.331831 
L 348.072562 240.331831 
L 349.829932 240.951487 
L 350.708617 241.571142 
L 351.587302 241.571142 
L 352.465986 241.88097 
L 353.344671 241.88097 
L 354.223356 242.190797 
L 355.102041 241.88097 
L 355.980726 241.88097 
L 356.85941 241.571142 
L 357.738095 241.88097 
L 359.495465 243.12028 
L 360.37415 242.810453 
L 361.252834 242.810453 
L 362.131519 242.500625 
L 363.888889 242.500625 
L 365.646259 243.12028 
L 366.524943 244.049763 
L 367.403628 244.049763 
L 368.282313 243.739936 
L 369.160998 243.12028 
L 370.918367 243.12028 
L 371.797052 243.430108 
L 372.675737 242.810453 
L 373.554422 241.88097 
L 374.433107 240.331831 
L 375.311791 238.163038 
L 376.190476 237.233555 
L 377.069161 235.994244 
L 377.947846 235.064761 
L 378.826531 234.754934 
L 379.705215 234.135278 
L 380.5839 234.754934 
L 383.219955 234.754934 
L 384.977324 231.656657 
L 385.856009 229.178036 
L 387.613379 222.052 
L 388.492063 219.883206 
L 389.370748 218.02424 
L 392.006803 206.250789 
L 392.885488 202.842685 
L 393.764172 201.913202 
L 394.642857 201.293547 
L 395.521542 199.744409 
L 396.400227 200.054236 
L 397.278912 197.885443 
L 399.036281 192.618373 
L 399.914966 191.069234 
L 400.793651 192.618373 
L 401.672336 195.406821 
L 402.55102 196.95596 
L 403.429705 199.744409 
L 404.30839 200.054236 
L 405.187075 197.885443 
L 406.06576 197.265787 
L 406.944444 194.477339 
L 407.823129 193.547856 
L 408.701814 194.477339 
L 409.580499 194.167511 
L 410.459184 191.069234 
L 411.337868 191.998717 
L 412.216553 190.139751 
L 413.973923 191.998717 
L 414.852608 189.829924 
L 415.731293 185.802164 
L 416.609977 188.900441 
L 418.367347 188.900441 
L 421.003401 198.19527 
L 421.882086 198.814926 
L 422.760771 194.787166 
L 424.518141 182.084232 
L 425.396825 174.338541 
L 426.27551 170.310781 
L 427.154195 161.945435 
L 428.03288 157.917675 
L 428.911565 153.27026 
L 429.790249 151.411295 
L 430.668934 147.073707 
L 431.547619 148.932673 
L 432.426304 150.171984 
L 433.304989 152.340778 
L 434.183673 152.03095 
L 435.062358 148.932673 
L 435.941043 148.00319 
L 436.819728 147.693363 
L 437.698413 148.00319 
L 438.577098 151.721122 
L 439.455782 157.917675 
L 440.334467 162.255262 
L 441.213152 167.83216 
L 442.091837 169.691126 
L 443.849206 167.212505 
L 444.727891 164.733884 
L 445.606576 165.663367 
L 446.485261 170.930437 
L 447.363946 181.774405 
L 448.24263 187.66113 
L 449.121315 198.814926 
L 450 205.631134 
L 450 205.631134 
" style="fill:none;stroke:#b3220f;stroke-linecap:square;stroke-width:1.5;"/>
   </g>
   <g id="patch_3">
    <path d="M 62.5 262.5 
L 62.5 27 
" style="fill:none;stroke:#555555;stroke-linecap:square;stroke-linejoin:miter;"/>
   </g>
   <g id="patch_4">
    <path d="M 62.5 262.5 
L 450 262.5 
" style="fill:none;stroke:#555555;stroke-linecap:square;stroke-linejoin:miter;"/>
   </g>
   <g id="text_14">
    <!-- Rafael Uribe Uribe | Casos nuevos: 2021-06-17 -->
    <g style="fill:#555555;" transform="translate(108.706406 17)scale(0.14 -0.14)">
     <defs>
      <path d="M 7.796875 71.40625 
L 7.796875 0 
L 17.296875 0 
L 17.296875 30.5 
L 40.5 30.5 
Q 44 30.5 46.09375 29.453125 
Q 48.203125 28.40625 49.5 26.65625 
Q 50.796875 24.90625 51.390625 22.546875 
Q 52 20.203125 52.40625 17.59375 
Q 52.90625 15 53 12.296875 
Q 53.09375 9.59375 53.1875 7.25 
Q 53.296875 4.90625 53.640625 3 
Q 54 1.09375 55 0 
L 65.59375 0 
Q 64.09375 1.796875 63.34375 4.140625 
Q 62.59375 6.5 62.1875 9.09375 
Q 61.796875 11.703125 61.6875 14.390625 
Q 61.59375 17.09375 61.40625 19.703125 
Q 61.09375 22.296875 60.546875 24.6875 
Q 60 27.09375 58.84375 29.046875 
Q 57.703125 31 55.75 32.390625 
Q 53.796875 33.796875 50.703125 34.40625 
L 50.703125 34.59375 
Q 57.203125 36.40625 60.140625 41.296875 
Q 63.09375 46.203125 63.09375 52.703125 
Q 63.09375 61.40625 57.34375 66.40625 
Q 51.59375 71.40625 41.40625 71.40625 
z
M 37.09375 38.5 
L 17.296875 38.5 
L 17.296875 63.40625 
L 40.90625 63.40625 
Q 47.59375 63.40625 50.59375 60 
Q 53.59375 56.59375 53.59375 51.203125 
Q 53.59375 47.296875 52.25 44.84375 
Q 50.90625 42.40625 48.65625 40.953125 
Q 46.40625 39.5 43.40625 39 
Q 40.40625 38.5 37.09375 38.5 
z
" id="HelveticaNeue-82"/>
      <path id="HelveticaNeue-32"/>
      <path d="M 64.796875 25.796875 
L 64.796875 71.40625 
L 55.296875 71.40625 
L 55.296875 25.796875 
Q 55.296875 16.203125 50.546875 11.25 
Q 45.796875 6.296875 36.703125 6.296875 
Q 27.09375 6.296875 22 11.25 
Q 16.90625 16.203125 16.90625 25.796875 
L 16.90625 71.40625 
L 7.40625 71.40625 
L 7.40625 25.796875 
Q 7.40625 11.5 15.15625 4.953125 
Q 22.90625 -1.59375 36.703125 -1.59375 
Q 50.203125 -1.59375 57.5 5.25 
Q 64.796875 12.09375 64.796875 25.796875 
z
" id="HelveticaNeue-85"/>
      <path d="M 15.40625 61 
L 15.40625 71.40625 
L 6.90625 71.40625 
L 6.90625 61 
z
M 6.90625 51.703125 
L 6.90625 0 
L 15.40625 0 
L 15.40625 51.703125 
z
" id="HelveticaNeue-105"/>
      <path d="M 6.703125 71.40625 
L 6.703125 0 
L 15.203125 0 
L 15.203125 6.90625 
L 15.40625 6.90625 
Q 16.796875 4.59375 18.84375 3.046875 
Q 20.90625 1.5 23.203125 0.59375 
Q 25.5 -0.296875 27.84375 -0.6875 
Q 30.203125 -1.09375 32.09375 -1.09375 
Q 38 -1.09375 42.453125 1 
Q 46.90625 3.09375 49.84375 6.75 
Q 52.796875 10.40625 54.25 15.296875 
Q 55.703125 20.203125 55.703125 25.703125 
Q 55.703125 31.203125 54.203125 36.09375 
Q 52.703125 41 49.75 44.75 
Q 46.796875 48.5 42.34375 50.703125 
Q 37.90625 52.90625 31.90625 52.90625 
Q 26.5 52.90625 22 50.953125 
Q 17.5 49 15.40625 44.703125 
L 15.203125 44.703125 
L 15.203125 71.40625 
z
M 46.703125 26.296875 
Q 46.703125 22.5 45.890625 18.890625 
Q 45.09375 15.296875 43.296875 12.5 
Q 41.5 9.703125 38.546875 8 
Q 35.59375 6.296875 31.203125 6.296875 
Q 26.796875 6.296875 23.6875 7.9375 
Q 20.59375 9.59375 18.640625 12.296875 
Q 16.703125 15 15.796875 18.546875 
Q 14.90625 22.09375 14.90625 25.90625 
Q 14.90625 29.5 15.75 33 
Q 16.59375 36.5 18.5 39.25 
Q 20.40625 42 23.40625 43.703125 
Q 26.40625 45.40625 30.703125 45.40625 
Q 34.796875 45.40625 37.84375 43.796875 
Q 40.90625 42.203125 42.84375 39.5 
Q 44.796875 36.796875 45.75 33.34375 
Q 46.703125 29.90625 46.703125 26.296875 
z
" id="HelveticaNeue-98"/>
      <path d="M 7.703125 78.59375 
L 7.703125 -21.296875 
L 14.5 -21.296875 
L 14.5 78.59375 
z
" id="HelveticaNeue-124"/>
      <path d="M 58 49.90625 
L 67.5 49.90625 
Q 66.703125 55.59375 64.09375 59.9375 
Q 61.5 64.296875 57.59375 67.1875 
Q 53.703125 70.09375 48.703125 71.59375 
Q 43.703125 73.09375 38.09375 73.09375 
Q 29.90625 73.09375 23.546875 70.140625 
Q 17.203125 67.203125 12.953125 62.09375 
Q 8.703125 57 6.5 50.140625 
Q 4.296875 43.296875 4.296875 35.5 
Q 4.296875 27.703125 6.34375 20.890625 
Q 8.40625 14.09375 12.5 9.09375 
Q 16.59375 4.09375 22.796875 1.25 
Q 29 -1.59375 37.296875 -1.59375 
Q 51 -1.59375 58.890625 5.90625 
Q 66.796875 13.40625 68.203125 26.90625 
L 58.703125 26.90625 
Q 58.40625 22.5 56.90625 18.703125 
Q 55.40625 14.90625 52.75 12.15625 
Q 50.09375 9.40625 46.4375 7.84375 
Q 42.796875 6.296875 38.09375 6.296875 
Q 31.703125 6.296875 27.09375 8.6875 
Q 22.5 11.09375 19.546875 15.140625 
Q 16.59375 19.203125 15.1875 24.640625 
Q 13.796875 30.09375 13.796875 36.203125 
Q 13.796875 41.796875 15.1875 47 
Q 16.59375 52.203125 19.546875 56.25 
Q 22.5 60.296875 27.046875 62.6875 
Q 31.59375 65.09375 38 65.09375 
Q 45.5 65.09375 50.953125 61.296875 
Q 56.40625 57.5 58 49.90625 
z
" id="HelveticaNeue-67"/>
      <path d="M 11.59375 16.296875 
L 3.09375 16.296875 
Q 3.296875 11.5 5.09375 8.140625 
Q 6.90625 4.796875 9.90625 2.75 
Q 12.90625 0.703125 16.796875 -0.1875 
Q 20.703125 -1.09375 25 -1.09375 
Q 28.90625 -1.09375 32.84375 -0.34375 
Q 36.796875 0.40625 39.9375 2.296875 
Q 43.09375 4.203125 45.046875 7.296875 
Q 47 10.40625 47 15.09375 
Q 47 18.796875 45.546875 21.296875 
Q 44.09375 23.796875 41.75 25.4375 
Q 39.40625 27.09375 36.34375 28.09375 
Q 33.296875 29.09375 30.09375 29.796875 
Q 27.09375 30.5 24.09375 31.140625 
Q 21.09375 31.796875 18.6875 32.75 
Q 16.296875 33.703125 14.75 35.140625 
Q 13.203125 36.59375 13.203125 38.796875 
Q 13.203125 40.796875 14.203125 42.046875 
Q 15.203125 43.296875 16.796875 44.046875 
Q 18.40625 44.796875 20.34375 45.09375 
Q 22.296875 45.40625 24.203125 45.40625 
Q 26.296875 45.40625 28.34375 44.953125 
Q 30.40625 44.5 32.09375 43.5 
Q 33.796875 42.5 34.890625 40.84375 
Q 36 39.203125 36.203125 36.703125 
L 44.703125 36.703125 
Q 44.40625 41.40625 42.703125 44.546875 
Q 41 47.703125 38.140625 49.546875 
Q 35.296875 51.40625 31.59375 52.15625 
Q 27.90625 52.90625 23.5 52.90625 
Q 20.09375 52.90625 16.640625 52.046875 
Q 13.203125 51.203125 10.453125 49.453125 
Q 7.703125 47.703125 5.953125 44.890625 
Q 4.203125 42.09375 4.203125 38.203125 
Q 4.203125 33.203125 6.703125 30.390625 
Q 9.203125 27.59375 12.953125 26.046875 
Q 16.703125 24.5 21.09375 23.640625 
Q 25.5 22.796875 29.25 21.75 
Q 33 20.703125 35.5 19 
Q 38 17.296875 38 14 
Q 38 11.59375 36.796875 10.046875 
Q 35.59375 8.5 33.75 7.703125 
Q 31.90625 6.90625 29.703125 6.59375 
Q 27.5 6.296875 25.5 6.296875 
Q 22.90625 6.296875 20.453125 6.796875 
Q 18 7.296875 16.046875 8.4375 
Q 14.09375 9.59375 12.890625 11.546875 
Q 11.703125 13.5 11.59375 16.296875 
z
" id="HelveticaNeue-115"/>
      <path d="M 12.59375 25.796875 
Q 12.59375 30.5 13.84375 34.140625 
Q 15.09375 37.796875 17.296875 40.296875 
Q 19.5 42.796875 22.453125 44.09375 
Q 25.40625 45.40625 28.703125 45.40625 
Q 32 45.40625 34.953125 44.09375 
Q 37.90625 42.796875 40.09375 40.296875 
Q 42.296875 37.796875 43.546875 34.140625 
Q 44.796875 30.5 44.796875 25.796875 
Q 44.796875 21.09375 43.546875 17.4375 
Q 42.296875 13.796875 40.09375 11.34375 
Q 37.90625 8.90625 34.953125 7.59375 
Q 32 6.296875 28.703125 6.296875 
Q 25.40625 6.296875 22.453125 7.59375 
Q 19.5 8.90625 17.296875 11.34375 
Q 15.09375 13.796875 13.84375 17.4375 
Q 12.59375 21.09375 12.59375 25.796875 
z
M 3.59375 25.796875 
Q 3.59375 20.09375 5.1875 15.1875 
Q 6.796875 10.296875 10 6.640625 
Q 13.203125 3 17.890625 0.953125 
Q 22.59375 -1.09375 28.703125 -1.09375 
Q 34.90625 -1.09375 39.546875 0.953125 
Q 44.203125 3 47.390625 6.640625 
Q 50.59375 10.296875 52.1875 15.1875 
Q 53.796875 20.09375 53.796875 25.796875 
Q 53.796875 31.5 52.1875 36.453125 
Q 50.59375 41.40625 47.390625 45.046875 
Q 44.203125 48.703125 39.546875 50.796875 
Q 34.90625 52.90625 28.703125 52.90625 
Q 22.59375 52.90625 17.890625 50.796875 
Q 13.203125 48.703125 10 45.046875 
Q 6.796875 41.40625 5.1875 36.453125 
Q 3.59375 31.5 3.59375 25.796875 
z
" id="HelveticaNeue-111"/>
      <path d="M 29.703125 0 
L 48.59375 51.703125 
L 39.703125 51.703125 
L 25.59375 8.59375 
L 25.40625 8.59375 
L 10.90625 51.703125 
L 1.40625 51.703125 
L 20.59375 0 
z
" id="HelveticaNeue-118"/>
      <path d="M 19.40625 40.59375 
L 19.40625 51.703125 
L 8.296875 51.703125 
L 8.296875 40.59375 
z
M 8.296875 11.09375 
L 8.296875 0 
L 19.40625 0 
L 19.40625 11.09375 
z
" id="HelveticaNeue-58"/>
      <path d="M 5 31.796875 
L 5 23.796875 
L 33.90625 23.796875 
L 33.90625 31.796875 
z
" id="HelveticaNeue-45"/>
     </defs>
     <use xlink:href="#HelveticaNeue-82"/>
     <use x="68.499985" xlink:href="#HelveticaNeue-97"/>
     <use x="122.199982" xlink:href="#HelveticaNeue-102"/>
     <use x="151.799973" xlink:href="#HelveticaNeue-97"/>
     <use x="205.499969" xlink:href="#HelveticaNeue-101"/>
     <use x="259.199966" xlink:href="#HelveticaNeue-108"/>
     <use x="281.399963" xlink:href="#HelveticaNeue-32"/>
     <use x="309.199951" xlink:href="#HelveticaNeue-85"/>
     <use x="381.399933" xlink:href="#HelveticaNeue-114"/>
     <use x="414.699921" xlink:href="#HelveticaNeue-105"/>
     <use x="436.899918" xlink:href="#HelveticaNeue-98"/>
     <use x="496.199905" xlink:href="#HelveticaNeue-101"/>
     <use x="549.899902" xlink:href="#HelveticaNeue-32"/>
     <use x="577.69989" xlink:href="#HelveticaNeue-85"/>
     <use x="649.899872" xlink:href="#HelveticaNeue-114"/>
     <use x="683.19986" xlink:href="#HelveticaNeue-105"/>
     <use x="705.399857" xlink:href="#HelveticaNeue-98"/>
     <use x="764.699844" xlink:href="#HelveticaNeue-101"/>
     <use x="818.399841" xlink:href="#HelveticaNeue-32"/>
     <use x="846.199829" xlink:href="#HelveticaNeue-124"/>
     <use x="868.399826" xlink:href="#HelveticaNeue-32"/>
     <use x="896.199814" xlink:href="#HelveticaNeue-67"/>
     <use x="968.399796" xlink:href="#HelveticaNeue-97"/>
     <use x="1022.099792" xlink:href="#HelveticaNeue-115"/>
     <use x="1072.099777" xlink:href="#HelveticaNeue-111"/>
     <use x="1129.499771" xlink:href="#HelveticaNeue-115"/>
     <use x="1179.499756" xlink:href="#HelveticaNeue-32"/>
     <use x="1207.299744" xlink:href="#HelveticaNeue-110"/>
     <use x="1262.899734" xlink:href="#HelveticaNeue-117"/>
     <use x="1318.499725" xlink:href="#HelveticaNeue-101"/>
     <use x="1372.199722" xlink:href="#HelveticaNeue-118"/>
     <use x="1422.199707" xlink:href="#HelveticaNeue-111"/>
     <use x="1479.599701" xlink:href="#HelveticaNeue-115"/>
     <use x="1529.599686" xlink:href="#HelveticaNeue-58"/>
     <use x="1557.399673" xlink:href="#HelveticaNeue-32"/>
     <use x="1585.199661" xlink:href="#HelveticaNeue-50"/>
     <use x="1640.799652" xlink:href="#HelveticaNeue-48"/>
     <use x="1696.399643" xlink:href="#HelveticaNeue-50"/>
     <use x="1751.999634" xlink:href="#HelveticaNeue-49"/>
     <use x="1807.599625" xlink:href="#HelveticaNeue-45"/>
     <use x="1846.499619" xlink:href="#HelveticaNeue-48"/>
     <use x="1902.099609" xlink:href="#HelveticaNeue-54"/>
     <use x="1957.6996" xlink:href="#HelveticaNeue-45"/>
     <use x="1996.599594" xlink:href="#HelveticaNeue-49"/>
     <use x="2052.199585" xlink:href="#HelveticaNeue-55"/>
    </g>
   </g>
   <g id="legend_1">
    <g id="line2d_27">
     <path d="M 292.034375 39.640625 
L 312.034375 39.640625 
" style="fill:none;stroke:#000000;stroke-dasharray:1.5,2.475;stroke-dashoffset:0;stroke-opacity:0.5;stroke-width:1.5;"/>
    </g>
    <g id="line2d_28"/>
    <g id="text_15">
     <!-- Actual -->
     <g style="fill:#555555;" transform="translate(320.034375 43.140625)scale(0.1 -0.1)">
      <use xlink:href="#HelveticaNeue-65"/>
      <use x="64.799988" xlink:href="#HelveticaNeue-99"/>
      <use x="118.499985" xlink:href="#HelveticaNeue-116"/>
      <use x="149.999969" xlink:href="#HelveticaNeue-117"/>
      <use x="205.59996" xlink:href="#HelveticaNeue-97"/>
      <use x="259.299957" xlink:href="#HelveticaNeue-108"/>
     </g>
    </g>
    <g id="line2d_29">
     <path d="M 292.034375 54.310937 
L 312.034375 54.310937 
" style="fill:none;stroke:#b3220f;stroke-linecap:square;stroke-width:1.5;"/>
    </g>
    <g id="line2d_30"/>
    <g id="text_16">
     <!-- Promedio semanal (7 das)  -->
     <g style="fill:#555555;" transform="translate(320.034375 57.810937)scale(0.1 -0.1)">
      <defs>
       <path d="M 17.296875 37.203125 
L 17.296875 63.40625 
L 35.90625 63.40625 
Q 44 63.40625 47.75 60.046875 
Q 51.5 56.703125 51.5 50.296875 
Q 51.5 43.90625 47.75 40.5 
Q 44 37.09375 35.90625 37.203125 
z
M 7.796875 71.40625 
L 7.796875 0 
L 17.296875 0 
L 17.296875 29.203125 
L 39.09375 29.203125 
Q 49.90625 29.09375 55.453125 34.6875 
Q 61 40.296875 61 50.296875 
Q 61 60.296875 55.453125 65.84375 
Q 49.90625 71.40625 39.09375 71.40625 
z
" id="HelveticaNeue-80"/>
       <path d="M 6.40625 51.703125 
L 6.40625 0 
L 14.90625 0 
L 14.90625 32.203125 
Q 14.90625 33.703125 15.65625 35.953125 
Q 16.40625 38.203125 18.046875 40.296875 
Q 19.703125 42.40625 22.34375 43.90625 
Q 25 45.40625 28.703125 45.40625 
Q 31.59375 45.40625 33.4375 44.546875 
Q 35.296875 43.703125 36.390625 42.140625 
Q 37.5 40.59375 37.953125 38.5 
Q 38.40625 36.40625 38.40625 33.90625 
L 38.40625 0 
L 46.90625 0 
L 46.90625 32.203125 
Q 46.90625 38.203125 50.5 41.796875 
Q 54.09375 45.40625 60.40625 45.40625 
Q 63.5 45.40625 65.453125 44.5 
Q 67.40625 43.59375 68.5 42.046875 
Q 69.59375 40.5 70 38.390625 
Q 70.40625 36.296875 70.40625 33.90625 
L 70.40625 0 
L 78.90625 0 
L 78.90625 37.90625 
Q 78.90625 41.90625 77.65625 44.75 
Q 76.40625 47.59375 74.15625 49.390625 
Q 71.90625 51.203125 68.75 52.046875 
Q 65.59375 52.90625 61.703125 52.90625 
Q 56.59375 52.90625 52.34375 50.59375 
Q 48.09375 48.296875 45.5 44.09375 
Q 43.90625 48.90625 40 50.90625 
Q 36.09375 52.90625 31.296875 52.90625 
Q 20.40625 52.90625 14.59375 44.09375 
L 14.40625 44.09375 
L 14.40625 51.703125 
z
" id="HelveticaNeue-109"/>
       <path d="M 12.59375 25.40625 
Q 12.59375 29.203125 13.390625 32.796875 
Q 14.203125 36.40625 16 39.203125 
Q 17.796875 42 20.796875 43.703125 
Q 23.796875 45.40625 28.09375 45.40625 
Q 32.5 45.40625 35.59375 43.75 
Q 38.703125 42.09375 40.640625 39.390625 
Q 42.59375 36.703125 43.5 33.140625 
Q 44.40625 29.59375 44.40625 25.796875 
Q 44.40625 22.203125 43.546875 18.703125 
Q 42.703125 15.203125 40.796875 12.453125 
Q 38.90625 9.703125 35.90625 8 
Q 32.90625 6.296875 28.59375 6.296875 
Q 24.5 6.296875 21.453125 7.890625 
Q 18.40625 9.5 16.453125 12.203125 
Q 14.5 14.90625 13.546875 18.34375 
Q 12.59375 21.796875 12.59375 25.40625 
z
M 52.59375 0 
L 52.59375 71.40625 
L 44.09375 71.40625 
L 44.09375 44.796875 
L 43.90625 44.796875 
Q 42.5 47.09375 40.453125 48.640625 
Q 38.40625 50.203125 36.09375 51.140625 
Q 33.796875 52.09375 31.5 52.5 
Q 29.203125 52.90625 27.203125 52.90625 
Q 21.296875 52.90625 16.84375 50.75 
Q 12.40625 48.59375 9.453125 44.9375 
Q 6.5 41.296875 5.046875 36.390625 
Q 3.59375 31.5 3.59375 26 
Q 3.59375 20.5 5.09375 15.59375 
Q 6.59375 10.703125 9.546875 7 
Q 12.5 3.296875 16.953125 1.09375 
Q 21.40625 -1.09375 27.40625 -1.09375 
Q 32.796875 -1.09375 37.296875 0.796875 
Q 41.796875 2.703125 43.90625 7 
L 44.09375 7 
L 44.09375 0 
z
" id="HelveticaNeue-100"/>
       <path d="M 20.40625 -19.703125 
L 26.90625 -19.703125 
Q 19.796875 -8.203125 16.75 3.09375 
Q 13.703125 14.40625 13.703125 27 
Q 13.703125 39.296875 16.703125 50.5 
Q 19.703125 61.703125 26.90625 73.09375 
L 20.40625 73.09375 
Q 12.59375 62.796875 8.640625 50.796875 
Q 4.703125 38.796875 4.703125 27 
Q 4.703125 20.40625 5.796875 14.40625 
Q 6.90625 8.40625 8.953125 2.703125 
Q 11 -3 13.890625 -8.546875 
Q 16.796875 -14.09375 20.40625 -19.703125 
z
" id="HelveticaNeue-40"/>
       <path d="M 6.90625 0 
L 15.40625 0 
L 15.40625 51.703125 
L 6.90625 51.703125 
z
M 25.5 77 
L 11.40625 60.796875 
L 5 60.796875 
L 14.59375 77 
z
" id="HelveticaNeue-237"/>
       <path d="M -0.90625 -19.703125 
L 5.5 -19.703125 
Q 13.296875 -9.40625 17.25 2.546875 
Q 21.203125 14.5 21.203125 26.296875 
Q 21.203125 32.90625 20.09375 38.90625 
Q 19 44.90625 16.953125 50.65625 
Q 14.90625 56.40625 12 61.953125 
Q 9.09375 67.5 5.5 73.09375 
L -0.90625 73.09375 
Q 6.09375 61.59375 9.140625 50.25 
Q 12.203125 38.90625 12.203125 26.296875 
Q 12.203125 14.09375 9.203125 2.84375 
Q 6.203125 -8.40625 -0.90625 -19.703125 
z
" id="HelveticaNeue-41"/>
      </defs>
      <use xlink:href="#HelveticaNeue-80"/>
      <use x="64.799988" xlink:href="#HelveticaNeue-114"/>
      <use x="96.349976" xlink:href="#HelveticaNeue-111"/>
      <use x="153.749969" xlink:href="#HelveticaNeue-109"/>
      <use x="239.049957" xlink:href="#HelveticaNeue-101"/>
      <use x="292.749954" xlink:href="#HelveticaNeue-100"/>
      <use x="352.049942" xlink:href="#HelveticaNeue-105"/>
      <use x="374.249939" xlink:href="#HelveticaNeue-111"/>
      <use x="431.649933" xlink:href="#HelveticaNeue-32"/>
      <use x="459.449921" xlink:href="#HelveticaNeue-115"/>
      <use x="509.449905" xlink:href="#HelveticaNeue-101"/>
      <use x="563.149902" xlink:href="#HelveticaNeue-109"/>
      <use x="648.44989" xlink:href="#HelveticaNeue-97"/>
      <use x="702.149887" xlink:href="#HelveticaNeue-110"/>
      <use x="757.749878" xlink:href="#HelveticaNeue-97"/>
      <use x="811.449875" xlink:href="#HelveticaNeue-108"/>
      <use x="833.649872" xlink:href="#HelveticaNeue-32"/>
      <use x="861.44986" xlink:href="#HelveticaNeue-40"/>
      <use x="887.349854" xlink:href="#HelveticaNeue-55"/>
      <use x="942.949844" xlink:href="#HelveticaNeue-32"/>
      <use x="970.749832" xlink:href="#HelveticaNeue-100"/>
      <use x="1030.04982" xlink:href="#HelveticaNeue-237"/>
      <use x="1052.249817" xlink:href="#HelveticaNeue-97"/>
      <use x="1105.949814" xlink:href="#HelveticaNeue-115"/>
      <use x="1155.949799" xlink:href="#HelveticaNeue-41"/>
      <use x="1181.849792" xlink:href="#HelveticaNeue-32"/>
     </g>
    </g>
   </g>
  </g>
 </g>
 <defs>
  <clipPath id="p0659e004cd">
   <rect height="235.5" width="387.5" x="62.5" y="27"/>
  </clipPath>
 </defs>
</svg>
