<?xml version="1.0" encoding="utf-8" standalone="no"?>
<!DOCTYPE svg PUBLIC "-//W3C//DTD SVG 1.1//EN"
  "http://www.w3.org/Graphics/SVG/1.1/DTD/svg11.dtd">
<!-- Created with matplotlib (https://matplotlib.org/) -->
<svg height="300pt" version="1.1" viewBox="0 0 500 300" width="500pt" xmlns="http://www.w3.org/2000/svg" xmlns:xlink="http://www.w3.org/1999/xlink">
 <metadata>
  <rdf:RDF xmlns:cc="http://creativecommons.org/ns#" xmlns:dc="http://purl.org/dc/elements/1.1/" xmlns:rdf="http://www.w3.org/1999/02/22-rdf-syntax-ns#">
   <cc:Work>
    <dc:type rdf:resource="http://purl.org/dc/dcmitype/StillImage"/>
    <dc:date>2021-07-31T15:05:13.052703</dc:date>
    <dc:format>image/svg+xml</dc:format>
    <dc:creator>
     <cc:Agent>
      <dc:title>Matplotlib v3.3.4, https://matplotlib.org/</dc:title>
     </cc:Agent>
    </dc:creator>
   </cc:Work>
  </rdf:RDF>
 </metadata>
 <defs>
  <style type="text/css">*{stroke-linecap:butt;stroke-linejoin:round;}</style>
 </defs>
 <g id="figure_1">
  <g id="patch_1">
   <path d="M 0 300 
L 500 300 
L 500 0 
L 0 0 
z
" style="fill:#ffffff;"/>
  </g>
  <g id="axes_1">
   <g id="patch_2">
    <path d="M 62.5 262.5 
L 450 262.5 
L 450 27 
L 62.5 27 
z
" style="fill:#ffffff;"/>
   </g>
   <g id="matplotlib.axis_1">
    <g id="xtick_1">
     <g id="line2d_1">
      <defs>
       <path d="M 0 0 
L 0 3.5 
" id="m68d5471da3" style="stroke:#555555;stroke-width:0.8;"/>
      </defs>
      <g>
       <use style="fill:#555555;stroke:#555555;stroke-width:0.8;" x="62.5" xlink:href="#m68d5471da3" y="262.5"/>
      </g>
     </g>
    </g>
    <g id="xtick_2">
     <g id="line2d_2">
      <g>
       <use style="fill:#555555;stroke:#555555;stroke-width:0.8;" x="134.704969" xlink:href="#m68d5471da3" y="262.5"/>
      </g>
     </g>
     <g id="text_1">
      <!-- Jul -->
      <g style="fill:#555555;" transform="translate(128.219813 276.640625)scale(0.1 -0.1)">
       <defs>
        <path d="M 44.09375 17.796875 
L 44.09375 71.40625 
L 34.59375 71.40625 
L 34.59375 19.203125 
Q 34.59375 13.296875 32.140625 9.796875 
Q 29.703125 6.296875 23.203125 6.296875 
Q 19.703125 6.296875 17.453125 7.34375 
Q 15.203125 8.40625 13.953125 10.296875 
Q 12.703125 12.203125 12.203125 14.796875 
Q 11.703125 17.40625 11.703125 20.5 
L 11.703125 23.5 
L 2.203125 23.5 
L 2.203125 19.09375 
Q 2.203125 8.90625 7.59375 3.65625 
Q 13 -1.59375 23 -1.59375 
Q 29 -1.59375 33.046875 0.046875 
Q 37.09375 1.703125 39.546875 4.453125 
Q 42 7.203125 43.046875 10.703125 
Q 44.09375 14.203125 44.09375 17.796875 
z
" id="HelveticaNeue-74"/>
        <path d="M 49.203125 0 
L 49.203125 51.703125 
L 40.703125 51.703125 
L 40.703125 22.5 
Q 40.703125 19 39.75 16.046875 
Q 38.796875 13.09375 36.890625 10.890625 
Q 35 8.703125 32.140625 7.5 
Q 29.296875 6.296875 25.40625 6.296875 
Q 20.5 6.296875 17.703125 9.09375 
Q 14.90625 11.90625 14.90625 16.703125 
L 14.90625 51.703125 
L 6.40625 51.703125 
L 6.40625 17.703125 
Q 6.40625 13.5 7.25 10.046875 
Q 8.09375 6.59375 10.1875 4.09375 
Q 12.296875 1.59375 15.6875 0.25 
Q 19.09375 -1.09375 24.203125 -1.09375 
Q 29.90625 -1.09375 34.09375 1.15625 
Q 38.296875 3.40625 41 8.203125 
L 41.203125 8.203125 
L 41.203125 0 
z
" id="HelveticaNeue-117"/>
        <path d="M 6.90625 71.40625 
L 6.90625 0 
L 15.40625 0 
L 15.40625 71.40625 
z
" id="HelveticaNeue-108"/>
       </defs>
       <use xlink:href="#HelveticaNeue-74"/>
       <use x="51.899994" xlink:href="#HelveticaNeue-117"/>
       <use x="107.499985" xlink:href="#HelveticaNeue-108"/>
      </g>
     </g>
    </g>
    <g id="xtick_3">
     <g id="line2d_3">
      <g>
       <use style="fill:#555555;stroke:#555555;stroke-width:0.8;" x="208.514493" xlink:href="#m68d5471da3" y="262.5"/>
      </g>
     </g>
     <g id="text_2">
      <!-- Oct -->
      <g style="fill:#555555;" transform="translate(200.454337 276.640625)scale(0.1 -0.1)">
       <defs>
        <path d="M 13.296875 35.703125 
Q 13.296875 41.09375 14.6875 46.34375 
Q 16.09375 51.59375 19.09375 55.796875 
Q 22.09375 60 26.796875 62.546875 
Q 31.5 65.09375 38 65.09375 
Q 44.5 65.09375 49.203125 62.546875 
Q 53.90625 60 56.90625 55.796875 
Q 59.90625 51.59375 61.296875 46.34375 
Q 62.703125 41.09375 62.703125 35.703125 
Q 62.703125 30.296875 61.296875 25.046875 
Q 59.90625 19.796875 56.90625 15.59375 
Q 53.90625 11.40625 49.203125 8.84375 
Q 44.5 6.296875 38 6.296875 
Q 31.5 6.296875 26.796875 8.84375 
Q 22.09375 11.40625 19.09375 15.59375 
Q 16.09375 19.796875 14.6875 25.046875 
Q 13.296875 30.296875 13.296875 35.703125 
z
M 3.796875 35.703125 
Q 3.796875 28.40625 5.9375 21.65625 
Q 8.09375 14.90625 12.390625 9.703125 
Q 16.703125 4.5 23.09375 1.453125 
Q 29.5 -1.59375 38 -1.59375 
Q 46.5 -1.59375 52.890625 1.453125 
Q 59.296875 4.5 63.59375 9.703125 
Q 67.90625 14.90625 70.046875 21.65625 
Q 72.203125 28.40625 72.203125 35.703125 
Q 72.203125 43 70.046875 49.75 
Q 67.90625 56.5 63.59375 61.703125 
Q 59.296875 66.90625 52.890625 70 
Q 46.5 73.09375 38 73.09375 
Q 29.5 73.09375 23.09375 70 
Q 16.703125 66.90625 12.390625 61.703125 
Q 8.09375 56.5 5.9375 49.75 
Q 3.796875 43 3.796875 35.703125 
z
" id="HelveticaNeue-79"/>
        <path d="M 41.5 35.09375 
L 50.296875 35.09375 
Q 49.796875 39.703125 47.890625 43.046875 
Q 46 46.40625 43.046875 48.59375 
Q 40.09375 50.796875 36.25 51.84375 
Q 32.40625 52.90625 28 52.90625 
Q 21.90625 52.90625 17.296875 50.75 
Q 12.703125 48.59375 9.640625 44.84375 
Q 6.59375 41.09375 5.09375 36.046875 
Q 3.59375 31 3.59375 25.203125 
Q 3.59375 19.40625 5.140625 14.546875 
Q 6.703125 9.703125 9.75 6.203125 
Q 12.796875 2.703125 17.34375 0.796875 
Q 21.90625 -1.09375 27.796875 -1.09375 
Q 37.703125 -1.09375 43.453125 4.09375 
Q 49.203125 9.296875 50.59375 18.90625 
L 41.90625 18.90625 
Q 41.09375 12.90625 37.546875 9.59375 
Q 34 6.296875 27.703125 6.296875 
Q 23.703125 6.296875 20.796875 7.890625 
Q 17.90625 9.5 16.09375 12.140625 
Q 14.296875 14.796875 13.4375 18.1875 
Q 12.59375 21.59375 12.59375 25.203125 
Q 12.59375 29.09375 13.390625 32.75 
Q 14.203125 36.40625 16.046875 39.203125 
Q 17.90625 42 21 43.703125 
Q 24.09375 45.40625 28.703125 45.40625 
Q 34.09375 45.40625 37.296875 42.703125 
Q 40.5 40 41.5 35.09375 
z
" id="HelveticaNeue-99"/>
        <path d="M 18.203125 51.703125 
L 18.203125 67.203125 
L 9.703125 67.203125 
L 9.703125 51.703125 
L 0.90625 51.703125 
L 0.90625 44.203125 
L 9.703125 44.203125 
L 9.703125 11.296875 
Q 9.703125 7.703125 10.390625 5.5 
Q 11.09375 3.296875 12.546875 2.09375 
Q 14 0.90625 16.34375 0.453125 
Q 18.703125 0 22 0 
L 28.5 0 
L 28.5 7.5 
L 24.59375 7.5 
Q 22.59375 7.5 21.34375 7.640625 
Q 20.09375 7.796875 19.390625 8.296875 
Q 18.703125 8.796875 18.453125 9.6875 
Q 18.203125 10.59375 18.203125 12.09375 
L 18.203125 44.203125 
L 28.5 44.203125 
L 28.5 51.703125 
z
" id="HelveticaNeue-116"/>
       </defs>
       <use xlink:href="#HelveticaNeue-79"/>
       <use x="75.999985" xlink:href="#HelveticaNeue-99"/>
       <use x="129.699982" xlink:href="#HelveticaNeue-116"/>
      </g>
     </g>
    </g>
    <g id="xtick_4">
     <g id="line2d_4">
      <g>
       <use style="fill:#555555;stroke:#555555;stroke-width:0.8;" x="282.324017" xlink:href="#m68d5471da3" y="262.5"/>
      </g>
     </g>
     <g id="text_3">
      <!-- Jan -->
      <g style="fill:#555555;" transform="translate(274.26386 276.640625)scale(0.1 -0.1)">
       <defs>
        <path d="M 52.203125 0.203125 
Q 50 -1.09375 46.09375 -1.09375 
Q 42.796875 -1.09375 40.84375 0.75 
Q 38.90625 2.59375 38.90625 6.796875 
Q 35.40625 2.59375 30.75 0.75 
Q 26.09375 -1.09375 20.703125 -1.09375 
Q 17.203125 -1.09375 14.046875 -0.296875 
Q 10.90625 0.5 8.59375 2.203125 
Q 6.296875 3.90625 4.9375 6.65625 
Q 3.59375 9.40625 3.59375 13.296875 
Q 3.59375 17.703125 5.09375 20.5 
Q 6.59375 23.296875 9.046875 25.046875 
Q 11.5 26.796875 14.640625 27.6875 
Q 17.796875 28.59375 21.09375 29.203125 
Q 24.59375 29.90625 27.75 30.25 
Q 30.90625 30.59375 33.296875 31.25 
Q 35.703125 31.90625 37.09375 33.15625 
Q 38.5 34.40625 38.5 36.796875 
Q 38.5 39.59375 37.453125 41.296875 
Q 36.40625 43 34.75 43.890625 
Q 33.09375 44.796875 31.046875 45.09375 
Q 29 45.40625 27 45.40625 
Q 21.59375 45.40625 18 43.34375 
Q 14.40625 41.296875 14.09375 35.59375 
L 5.59375 35.59375 
Q 5.796875 40.40625 7.59375 43.703125 
Q 9.40625 47 12.40625 49.046875 
Q 15.40625 51.09375 19.25 52 
Q 23.09375 52.90625 27.5 52.90625 
Q 31 52.90625 34.453125 52.40625 
Q 37.90625 51.90625 40.703125 50.34375 
Q 43.5 48.796875 45.203125 46 
Q 46.90625 43.203125 46.90625 38.703125 
L 46.90625 12.09375 
Q 46.90625 9.09375 47.25 7.6875 
Q 47.59375 6.296875 49.59375 6.296875 
Q 50.703125 6.296875 52.203125 6.796875 
z
M 38.40625 26.703125 
Q 36.796875 25.5 34.1875 24.953125 
Q 31.59375 24.40625 28.75 24.046875 
Q 25.90625 23.703125 23 23.25 
Q 20.09375 22.796875 17.796875 21.796875 
Q 15.5 20.796875 14.046875 18.9375 
Q 12.59375 17.09375 12.59375 13.90625 
Q 12.59375 11.796875 13.4375 10.34375 
Q 14.296875 8.90625 15.640625 8 
Q 17 7.09375 18.796875 6.6875 
Q 20.59375 6.296875 22.59375 6.296875 
Q 26.796875 6.296875 29.796875 7.4375 
Q 32.796875 8.59375 34.6875 10.34375 
Q 36.59375 12.09375 37.5 14.140625 
Q 38.40625 16.203125 38.40625 18 
z
" id="HelveticaNeue-97"/>
        <path d="M 6.40625 51.703125 
L 6.40625 0 
L 14.90625 0 
L 14.90625 29.203125 
Q 14.90625 32.703125 15.84375 35.640625 
Q 16.796875 38.59375 18.6875 40.796875 
Q 20.59375 43 23.4375 44.203125 
Q 26.296875 45.40625 30.203125 45.40625 
Q 35.09375 45.40625 37.890625 42.59375 
Q 40.703125 39.796875 40.703125 35 
L 40.703125 0 
L 49.203125 0 
L 49.203125 34 
Q 49.203125 38.203125 48.34375 41.640625 
Q 47.5 45.09375 45.390625 47.59375 
Q 43.296875 50.09375 39.890625 51.5 
Q 36.5 52.90625 31.40625 52.90625 
Q 19.90625 52.90625 14.59375 43.5 
L 14.40625 43.5 
L 14.40625 51.703125 
z
" id="HelveticaNeue-110"/>
       </defs>
       <use xlink:href="#HelveticaNeue-74"/>
       <use x="51.899994" xlink:href="#HelveticaNeue-97"/>
       <use x="105.599991" xlink:href="#HelveticaNeue-110"/>
      </g>
      <!-- 2021 -->
      <g style="fill:#555555;" transform="translate(271.205267 287.179688)scale(0.1 -0.1)">
       <defs>
        <path d="M 4.40625 45.796875 
L 12.90625 45.796875 
Q 12.796875 49 13.546875 52.140625 
Q 14.296875 55.296875 16 57.796875 
Q 17.703125 60.296875 20.34375 61.84375 
Q 23 63.40625 26.703125 63.40625 
Q 29.5 63.40625 32 62.5 
Q 34.5 61.59375 36.34375 59.890625 
Q 38.203125 58.203125 39.296875 55.84375 
Q 40.40625 53.5 40.40625 50.59375 
Q 40.40625 46.90625 39.25 44.09375 
Q 38.09375 41.296875 35.84375 38.890625 
Q 33.59375 36.5 30.1875 34.140625 
Q 26.796875 31.796875 22.296875 29 
Q 18.59375 26.796875 15.1875 24.296875 
Q 11.796875 21.796875 9.09375 18.5 
Q 6.40625 15.203125 4.65625 10.75 
Q 2.90625 6.296875 2.40625 0 
L 48.703125 0 
L 48.703125 7.5 
L 12.296875 7.5 
Q 12.90625 10.796875 14.84375 13.34375 
Q 16.796875 15.90625 19.546875 18.09375 
Q 22.296875 20.296875 25.59375 22.25 
Q 28.90625 24.203125 32.203125 26.203125 
Q 35.5 28.296875 38.59375 30.59375 
Q 41.703125 32.90625 44.09375 35.75 
Q 46.5 38.59375 47.953125 42.1875 
Q 49.40625 45.796875 49.40625 50.5 
Q 49.40625 55.5 47.65625 59.296875 
Q 45.90625 63.09375 42.90625 65.640625 
Q 39.90625 68.203125 35.84375 69.546875 
Q 31.796875 70.90625 27.203125 70.90625 
Q 21.59375 70.90625 17.1875 69 
Q 12.796875 67.09375 9.84375 63.75 
Q 6.90625 60.40625 5.5 55.796875 
Q 4.09375 51.203125 4.40625 45.796875 
z
" id="HelveticaNeue-50"/>
        <path d="M 13.203125 34.90625 
Q 13.203125 37.5 13.25 40.640625 
Q 13.296875 43.796875 13.75 46.9375 
Q 14.203125 50.09375 15.046875 53.09375 
Q 15.90625 56.09375 17.546875 58.34375 
Q 19.203125 60.59375 21.703125 62 
Q 24.203125 63.40625 27.796875 63.40625 
Q 31.40625 63.40625 33.90625 62 
Q 36.40625 60.59375 38.046875 58.34375 
Q 39.703125 56.09375 40.546875 53.09375 
Q 41.40625 50.09375 41.84375 46.9375 
Q 42.296875 43.796875 42.34375 40.640625 
Q 42.40625 37.5 42.40625 34.90625 
Q 42.40625 30.90625 42.15625 25.953125 
Q 41.90625 21 40.546875 16.640625 
Q 39.203125 12.296875 36.203125 9.296875 
Q 33.203125 6.296875 27.796875 6.296875 
Q 22.40625 6.296875 19.40625 9.296875 
Q 16.40625 12.296875 15.046875 16.640625 
Q 13.703125 21 13.453125 25.953125 
Q 13.203125 30.90625 13.203125 34.90625 
z
M 4.203125 34.796875 
Q 4.203125 30.90625 4.390625 26.703125 
Q 4.59375 22.5 5.390625 18.5 
Q 6.203125 14.5 7.703125 10.953125 
Q 9.203125 7.40625 11.796875 4.703125 
Q 14.40625 2 18.34375 0.453125 
Q 22.296875 -1.09375 27.796875 -1.09375 
Q 33.40625 -1.09375 37.296875 0.453125 
Q 41.203125 2 43.796875 4.703125 
Q 46.40625 7.40625 47.90625 10.953125 
Q 49.40625 14.5 50.203125 18.5 
Q 51 22.5 51.203125 26.703125 
Q 51.40625 30.90625 51.40625 34.796875 
Q 51.40625 38.703125 51.203125 42.890625 
Q 51 47.09375 50.203125 51.09375 
Q 49.40625 55.09375 47.90625 58.6875 
Q 46.40625 62.296875 43.796875 65 
Q 41.203125 67.703125 37.25 69.296875 
Q 33.296875 70.90625 27.796875 70.90625 
Q 22.296875 70.90625 18.34375 69.296875 
Q 14.40625 67.703125 11.796875 65 
Q 9.203125 62.296875 7.703125 58.6875 
Q 6.203125 55.09375 5.390625 51.09375 
Q 4.59375 47.09375 4.390625 42.890625 
Q 4.203125 38.703125 4.203125 34.796875 
z
" id="HelveticaNeue-48"/>
        <path d="M 35.59375 0 
L 35.59375 70.90625 
L 29.09375 70.90625 
Q 28.40625 66.90625 26.5 64.296875 
Q 24.59375 61.703125 21.84375 60.203125 
Q 19.09375 58.703125 15.6875 58.140625 
Q 12.296875 57.59375 8.703125 57.59375 
L 8.703125 50.796875 
L 27.09375 50.796875 
L 27.09375 0 
z
" id="HelveticaNeue-49"/>
       </defs>
       <use xlink:href="#HelveticaNeue-50"/>
       <use x="55.599991" xlink:href="#HelveticaNeue-48"/>
       <use x="111.199982" xlink:href="#HelveticaNeue-50"/>
       <use x="166.799973" xlink:href="#HelveticaNeue-49"/>
      </g>
     </g>
    </g>
    <g id="xtick_5">
     <g id="line2d_5">
      <g>
       <use style="fill:#555555;stroke:#555555;stroke-width:0.8;" x="354.528986" xlink:href="#m68d5471da3" y="262.5"/>
      </g>
     </g>
     <g id="text_4">
      <!-- Apr -->
      <g style="fill:#555555;" transform="translate(346.659454 276.640625)scale(0.1 -0.1)">
       <defs>
        <path d="M 20.09375 29.5 
L 32.203125 62.796875 
L 32.40625 62.796875 
L 44.296875 29.5 
z
M 27.203125 71.40625 
L -0.59375 0 
L 9.09375 0 
L 17.09375 21.5 
L 47.296875 21.5 
L 55.09375 0 
L 65.59375 0 
L 37.703125 71.40625 
z
" id="HelveticaNeue-65"/>
        <path d="M 6.703125 51.703125 
L 6.703125 -19.703125 
L 15.203125 -19.703125 
L 15.203125 6.90625 
L 15.40625 6.90625 
Q 16.796875 4.59375 18.84375 3.046875 
Q 20.90625 1.5 23.203125 0.59375 
Q 25.5 -0.296875 27.84375 -0.6875 
Q 30.203125 -1.09375 32.09375 -1.09375 
Q 38 -1.09375 42.453125 1 
Q 46.90625 3.09375 49.84375 6.75 
Q 52.796875 10.40625 54.25 15.296875 
Q 55.703125 20.203125 55.703125 25.703125 
Q 55.703125 31.203125 54.203125 36.09375 
Q 52.703125 41 49.75 44.75 
Q 46.796875 48.5 42.34375 50.703125 
Q 37.90625 52.90625 31.90625 52.90625 
Q 26.5 52.90625 22 50.953125 
Q 17.5 49 15.40625 44.703125 
L 15.203125 44.703125 
L 15.203125 51.703125 
z
M 46.703125 26.296875 
Q 46.703125 22.5 45.890625 18.890625 
Q 45.09375 15.296875 43.296875 12.5 
Q 41.5 9.703125 38.546875 8 
Q 35.59375 6.296875 31.203125 6.296875 
Q 26.796875 6.296875 23.6875 7.9375 
Q 20.59375 9.59375 18.640625 12.296875 
Q 16.703125 15 15.796875 18.546875 
Q 14.90625 22.09375 14.90625 25.90625 
Q 14.90625 29.5 15.75 33 
Q 16.59375 36.5 18.5 39.25 
Q 20.40625 42 23.40625 43.703125 
Q 26.40625 45.40625 30.703125 45.40625 
Q 34.796875 45.40625 37.84375 43.796875 
Q 40.90625 42.203125 42.84375 39.5 
Q 44.796875 36.796875 45.75 33.34375 
Q 46.703125 29.90625 46.703125 26.296875 
z
" id="HelveticaNeue-112"/>
        <path d="M 6.09375 51.703125 
L 6.09375 0 
L 14.59375 0 
L 14.59375 23 
Q 14.59375 28 15.59375 31.84375 
Q 16.59375 35.703125 18.796875 38.390625 
Q 21 41.09375 24.59375 42.5 
Q 28.203125 43.90625 33.296875 43.90625 
L 33.296875 52.90625 
Q 26.40625 53.09375 21.90625 50.09375 
Q 17.40625 47.09375 14.296875 40.796875 
L 14.09375 40.796875 
L 14.09375 51.703125 
z
" id="HelveticaNeue-114"/>
       </defs>
       <use xlink:href="#HelveticaNeue-65"/>
       <use x="64.799988" xlink:href="#HelveticaNeue-112"/>
       <use x="124.099976" xlink:href="#HelveticaNeue-114"/>
      </g>
     </g>
    </g>
    <g id="xtick_6">
     <g id="line2d_6">
      <g>
       <use style="fill:#555555;stroke:#555555;stroke-width:0.8;" x="427.536232" xlink:href="#m68d5471da3" y="262.5"/>
      </g>
     </g>
     <g id="text_5">
      <!-- Jul -->
      <g style="fill:#555555;" transform="translate(421.051076 276.640625)scale(0.1 -0.1)">
       <use xlink:href="#HelveticaNeue-74"/>
       <use x="51.899994" xlink:href="#HelveticaNeue-117"/>
       <use x="107.499985" xlink:href="#HelveticaNeue-108"/>
      </g>
     </g>
    </g>
    <g id="xtick_7">
     <g id="line2d_7">
      <g>
       <use style="fill:#555555;stroke:#555555;stroke-width:0.8;" x="450" xlink:href="#m68d5471da3" y="262.5"/>
      </g>
     </g>
    </g>
    <g id="xtick_8">
     <g id="line2d_8">
      <defs>
       <path d="M 0 0 
L 0 2 
" id="mf68cae44cf" style="stroke:#555555;stroke-width:0.6;"/>
      </defs>
      <g>
       <use style="fill:#555555;stroke:#555555;stroke-width:0.6;" x="85.766046" xlink:href="#mf68cae44cf" y="262.5"/>
      </g>
     </g>
    </g>
    <g id="xtick_9">
     <g id="line2d_9">
      <g>
       <use style="fill:#555555;stroke:#555555;stroke-width:0.6;" x="110.636646" xlink:href="#mf68cae44cf" y="262.5"/>
      </g>
     </g>
    </g>
    <g id="xtick_10">
     <g id="line2d_10">
      <g>
       <use style="fill:#555555;stroke:#555555;stroke-width:0.6;" x="159.575569" xlink:href="#mf68cae44cf" y="262.5"/>
      </g>
     </g>
    </g>
    <g id="xtick_11">
     <g id="line2d_11">
      <g>
       <use style="fill:#555555;stroke:#555555;stroke-width:0.6;" x="184.44617" xlink:href="#mf68cae44cf" y="262.5"/>
      </g>
     </g>
    </g>
    <g id="xtick_12">
     <g id="line2d_12">
      <g>
       <use style="fill:#555555;stroke:#555555;stroke-width:0.6;" x="233.385093" xlink:href="#mf68cae44cf" y="262.5"/>
      </g>
     </g>
    </g>
    <g id="xtick_13">
     <g id="line2d_13">
      <g>
       <use style="fill:#555555;stroke:#555555;stroke-width:0.6;" x="257.453416" xlink:href="#mf68cae44cf" y="262.5"/>
      </g>
     </g>
    </g>
    <g id="xtick_14">
     <g id="line2d_14">
      <g>
       <use style="fill:#555555;stroke:#555555;stroke-width:0.6;" x="307.194617" xlink:href="#mf68cae44cf" y="262.5"/>
      </g>
     </g>
    </g>
    <g id="xtick_15">
     <g id="line2d_15">
      <g>
       <use style="fill:#555555;stroke:#555555;stroke-width:0.6;" x="329.658385" xlink:href="#mf68cae44cf" y="262.5"/>
      </g>
     </g>
    </g>
    <g id="xtick_16">
     <g id="line2d_16">
      <g>
       <use style="fill:#555555;stroke:#555555;stroke-width:0.6;" x="378.597308" xlink:href="#mf68cae44cf" y="262.5"/>
      </g>
     </g>
    </g>
    <g id="xtick_17">
     <g id="line2d_17">
      <g>
       <use style="fill:#555555;stroke:#555555;stroke-width:0.6;" x="403.467909" xlink:href="#mf68cae44cf" y="262.5"/>
      </g>
     </g>
    </g>
    <g id="text_6">
     <!-- fecha -->
     <g style="fill:#555555;" transform="translate(243.935156 300.290625)scale(0.1 -0.1)">
      <defs>
       <path d="M 9.90625 44.203125 
L 9.90625 0 
L 18.40625 0 
L 18.40625 44.203125 
L 28.40625 44.203125 
L 28.40625 51.703125 
L 18.40625 51.703125 
L 18.40625 58.90625 
Q 18.40625 62.296875 20.09375 63.5 
Q 21.796875 64.703125 24.90625 64.703125 
Q 26 64.703125 27.296875 64.546875 
Q 28.59375 64.40625 29.703125 64 
L 29.703125 71.40625 
Q 28.5 71.796875 26.953125 72 
Q 25.40625 72.203125 24.203125 72.203125 
Q 17.203125 72.203125 13.546875 68.953125 
Q 9.90625 65.703125 9.90625 59.40625 
L 9.90625 51.703125 
L 1.203125 51.703125 
L 1.203125 44.203125 
z
" id="HelveticaNeue-102"/>
       <path d="M 42.296875 30.796875 
L 12.59375 30.796875 
Q 12.796875 33.796875 13.890625 36.4375 
Q 15 39.09375 16.890625 41.09375 
Q 18.796875 43.09375 21.4375 44.25 
Q 24.09375 45.40625 27.40625 45.40625 
Q 30.59375 45.40625 33.25 44.25 
Q 35.90625 43.09375 37.84375 41.140625 
Q 39.796875 39.203125 40.9375 36.5 
Q 42.09375 33.796875 42.296875 30.796875 
z
M 50.5 16.40625 
L 42.09375 16.40625 
Q 41 11.296875 37.546875 8.796875 
Q 34.09375 6.296875 28.703125 6.296875 
Q 24.5 6.296875 21.390625 7.6875 
Q 18.296875 9.09375 16.296875 11.4375 
Q 14.296875 13.796875 13.390625 16.84375 
Q 12.5 19.90625 12.59375 23.296875 
L 51.296875 23.296875 
Q 51.5 28 50.453125 33.203125 
Q 49.40625 38.40625 46.65625 42.796875 
Q 43.90625 47.203125 39.34375 50.046875 
Q 34.796875 52.90625 27.90625 52.90625 
Q 22.59375 52.90625 18.140625 50.90625 
Q 13.703125 48.90625 10.453125 45.296875 
Q 7.203125 41.703125 5.390625 36.796875 
Q 3.59375 31.90625 3.59375 26 
Q 3.796875 20.09375 5.34375 15.09375 
Q 6.90625 10.09375 10 6.5 
Q 13.09375 2.90625 17.640625 0.90625 
Q 22.203125 -1.09375 28.40625 -1.09375 
Q 37.203125 -1.09375 43 3.296875 
Q 48.796875 7.703125 50.5 16.40625 
z
" id="HelveticaNeue-101"/>
       <path d="M 6.40625 71.40625 
L 6.40625 0 
L 14.90625 0 
L 14.90625 29.203125 
Q 14.90625 32.703125 15.84375 35.640625 
Q 16.796875 38.59375 18.6875 40.796875 
Q 20.59375 43 23.4375 44.203125 
Q 26.296875 45.40625 30.203125 45.40625 
Q 35.09375 45.40625 37.890625 42.59375 
Q 40.703125 39.796875 40.703125 35 
L 40.703125 0 
L 49.203125 0 
L 49.203125 34 
Q 49.203125 38.203125 48.34375 41.640625 
Q 47.5 45.09375 45.390625 47.59375 
Q 43.296875 50.09375 39.890625 51.5 
Q 36.5 52.90625 31.40625 52.90625 
Q 29.09375 52.90625 26.640625 52.40625 
Q 24.203125 51.90625 21.953125 50.84375 
Q 19.703125 49.796875 17.890625 48.140625 
Q 16.09375 46.5 15.09375 44.09375 
L 14.90625 44.09375 
L 14.90625 71.40625 
z
" id="HelveticaNeue-104"/>
      </defs>
      <use xlink:href="#HelveticaNeue-102"/>
      <use x="29.599991" xlink:href="#HelveticaNeue-101"/>
      <use x="83.299988" xlink:href="#HelveticaNeue-99"/>
      <use x="136.999985" xlink:href="#HelveticaNeue-104"/>
      <use x="192.599976" xlink:href="#HelveticaNeue-97"/>
     </g>
    </g>
   </g>
   <g id="matplotlib.axis_2">
    <g id="ytick_1">
     <g id="line2d_18">
      <defs>
       <path d="M 0 0 
L -3.5 0 
" id="mf230777ac0" style="stroke:#555555;stroke-width:0.8;"/>
      </defs>
      <g>
       <use style="fill:#555555;stroke:#555555;stroke-width:0.8;" x="62.5" xlink:href="#mf230777ac0" y="251.795455"/>
      </g>
     </g>
     <g id="text_7">
      <!-- 0 -->
      <g style="fill:#555555;" transform="translate(49.940625 255.365767)scale(0.1 -0.1)">
       <use xlink:href="#HelveticaNeue-48"/>
      </g>
     </g>
    </g>
    <g id="ytick_2">
     <g id="line2d_19">
      <g>
       <use style="fill:#555555;stroke:#555555;stroke-width:0.8;" x="62.5" xlink:href="#mf230777ac0" y="220.812689"/>
      </g>
     </g>
     <g id="text_8">
      <!-- 100 -->
      <g style="fill:#555555;" transform="translate(38.821875 224.383002)scale(0.1 -0.1)">
       <use xlink:href="#HelveticaNeue-49"/>
       <use x="55.599991" xlink:href="#HelveticaNeue-48"/>
       <use x="111.199982" xlink:href="#HelveticaNeue-48"/>
      </g>
     </g>
    </g>
    <g id="ytick_3">
     <g id="line2d_20">
      <g>
       <use style="fill:#555555;stroke:#555555;stroke-width:0.8;" x="62.5" xlink:href="#mf230777ac0" y="189.829924"/>
      </g>
     </g>
     <g id="text_9">
      <!-- 200 -->
      <g style="fill:#555555;" transform="translate(38.821875 193.400236)scale(0.1 -0.1)">
       <use xlink:href="#HelveticaNeue-50"/>
       <use x="55.599991" xlink:href="#HelveticaNeue-48"/>
       <use x="111.199982" xlink:href="#HelveticaNeue-48"/>
      </g>
     </g>
    </g>
    <g id="ytick_4">
     <g id="line2d_21">
      <g>
       <use style="fill:#555555;stroke:#555555;stroke-width:0.8;" x="62.5" xlink:href="#mf230777ac0" y="158.847158"/>
      </g>
     </g>
     <g id="text_10">
      <!-- 300 -->
      <g style="fill:#555555;" transform="translate(38.821875 162.417471)scale(0.1 -0.1)">
       <defs>
        <path d="M 21.796875 40.5 
L 21.796875 33.296875 
Q 24.203125 33.59375 26.90625 33.59375 
Q 30.09375 33.59375 32.84375 32.75 
Q 35.59375 31.90625 37.59375 30.15625 
Q 39.59375 28.40625 40.796875 25.84375 
Q 42 23.296875 42 20 
Q 42 16.796875 40.75 14.25 
Q 39.5 11.703125 37.390625 9.953125 
Q 35.296875 8.203125 32.5 7.25 
Q 29.703125 6.296875 26.59375 6.296875 
Q 19.296875 6.296875 15.5 10.640625 
Q 11.703125 15 11.5 21.90625 
L 3 21.90625 
Q 2.90625 16.40625 4.546875 12.09375 
Q 6.203125 7.796875 9.296875 4.84375 
Q 12.40625 1.90625 16.796875 0.40625 
Q 21.203125 -1.09375 26.59375 -1.09375 
Q 31.59375 -1.09375 36.046875 0.25 
Q 40.5 1.59375 43.796875 4.296875 
Q 47.09375 7 49.046875 11.046875 
Q 51 15.09375 51 20.40625 
Q 51 26.796875 47.84375 31.5 
Q 44.703125 36.203125 38.203125 37.59375 
L 38.203125 37.796875 
Q 42.40625 39.703125 45.203125 43.390625 
Q 48 47.09375 48 51.90625 
Q 48 56.796875 46.34375 60.390625 
Q 44.703125 64 41.796875 66.296875 
Q 38.90625 68.59375 34.953125 69.75 
Q 31 70.90625 26.40625 70.90625 
Q 21.09375 70.90625 17.046875 69.203125 
Q 13 67.5 10.296875 64.5 
Q 7.59375 61.5 6.140625 57.296875 
Q 4.703125 53.09375 4.5 48 
L 13 48 
Q 13 51.09375 13.796875 53.890625 
Q 14.59375 56.703125 16.25 58.796875 
Q 17.90625 60.90625 20.453125 62.15625 
Q 23 63.40625 26.40625 63.40625 
Q 31.796875 63.40625 35.390625 60.546875 
Q 39 57.703125 39 52 
Q 39 49.203125 37.890625 47 
Q 36.796875 44.796875 34.9375 43.34375 
Q 33.09375 41.90625 30.640625 41.15625 
Q 28.203125 40.40625 25.5 40.40625 
L 23.703125 40.40625 
Q 23.203125 40.40625 22.703125 40.40625 
Q 22.296875 40.40625 21.796875 40.5 
z
" id="HelveticaNeue-51"/>
       </defs>
       <use xlink:href="#HelveticaNeue-51"/>
       <use x="55.599991" xlink:href="#HelveticaNeue-48"/>
       <use x="111.199982" xlink:href="#HelveticaNeue-48"/>
      </g>
     </g>
    </g>
    <g id="ytick_5">
     <g id="line2d_22">
      <g>
       <use style="fill:#555555;stroke:#555555;stroke-width:0.8;" x="62.5" xlink:href="#mf230777ac0" y="127.864393"/>
      </g>
     </g>
     <g id="text_11">
      <!-- 400 -->
      <g style="fill:#555555;" transform="translate(38.821875 131.434705)scale(0.1 -0.1)">
       <defs>
        <path d="M 33.90625 24.09375 
L 10.09375 24.09375 
L 33.703125 58.796875 
L 33.90625 58.796875 
z
M 41.90625 24.09375 
L 41.90625 70.90625 
L 35.09375 70.90625 
L 2.796875 24.796875 
L 2.796875 16.59375 
L 33.90625 16.59375 
L 33.90625 0 
L 41.90625 0 
L 41.90625 16.59375 
L 51.5 16.59375 
L 51.5 24.09375 
z
" id="HelveticaNeue-52"/>
       </defs>
       <use xlink:href="#HelveticaNeue-52"/>
       <use x="55.599991" xlink:href="#HelveticaNeue-48"/>
       <use x="111.199982" xlink:href="#HelveticaNeue-48"/>
      </g>
     </g>
    </g>
    <g id="ytick_6">
     <g id="line2d_23">
      <g>
       <use style="fill:#555555;stroke:#555555;stroke-width:0.8;" x="62.5" xlink:href="#mf230777ac0" y="96.881627"/>
      </g>
     </g>
     <g id="text_12">
      <!-- 500 -->
      <g style="fill:#555555;" transform="translate(38.821875 100.45194)scale(0.1 -0.1)">
       <defs>
        <path d="M 47 62.203125 
L 47 69.703125 
L 12 69.703125 
L 5.40625 32.90625 
L 12.703125 32.5 
Q 15.203125 35.5 18.453125 37.34375 
Q 21.703125 39.203125 25.90625 39.203125 
Q 29.5 39.203125 32.453125 38 
Q 35.40625 36.796875 37.5 34.640625 
Q 39.59375 32.5 40.75 29.546875 
Q 41.90625 26.59375 41.90625 23.09375 
Q 41.90625 18.90625 40.703125 15.75 
Q 39.5 12.59375 37.453125 10.5 
Q 35.40625 8.40625 32.65625 7.34375 
Q 29.90625 6.296875 26.90625 6.296875 
Q 23.703125 6.296875 21.046875 7.25 
Q 18.40625 8.203125 16.453125 9.953125 
Q 14.5 11.703125 13.34375 14.046875 
Q 12.203125 16.40625 12 19.09375 
L 3.5 19.09375 
Q 3.59375 14.296875 5.390625 10.5 
Q 7.203125 6.703125 10.296875 4.140625 
Q 13.40625 1.59375 17.453125 0.25 
Q 21.5 -1.09375 26.09375 -1.09375 
Q 32.296875 -1.09375 36.9375 0.84375 
Q 41.59375 2.796875 44.6875 6.09375 
Q 47.796875 9.40625 49.34375 13.65625 
Q 50.90625 17.90625 50.90625 22.40625 
Q 50.90625 28.5 49.09375 33.046875 
Q 47.296875 37.59375 44.1875 40.640625 
Q 41.09375 43.703125 36.890625 45.203125 
Q 32.703125 46.703125 28 46.703125 
Q 24.40625 46.703125 20.75 45.453125 
Q 17.09375 44.203125 14.796875 41.59375 
L 14.59375 41.796875 
L 18.40625 62.203125 
z
" id="HelveticaNeue-53"/>
       </defs>
       <use xlink:href="#HelveticaNeue-53"/>
       <use x="55.599991" xlink:href="#HelveticaNeue-48"/>
       <use x="111.199982" xlink:href="#HelveticaNeue-48"/>
      </g>
     </g>
    </g>
    <g id="ytick_7">
     <g id="line2d_24">
      <g>
       <use style="fill:#555555;stroke:#555555;stroke-width:0.8;" x="62.5" xlink:href="#mf230777ac0" y="65.898862"/>
      </g>
     </g>
     <g id="text_13">
      <!-- 600 -->
      <g style="fill:#555555;" transform="translate(38.821875 69.469174)scale(0.1 -0.1)">
       <defs>
        <path d="M 41.40625 52.796875 
L 49.90625 52.796875 
Q 49.09375 61.59375 43.890625 66.25 
Q 38.703125 70.90625 29.90625 70.90625 
Q 22.296875 70.90625 17.296875 67.703125 
Q 12.296875 64.5 9.296875 59.203125 
Q 6.296875 53.90625 5.046875 47.046875 
Q 3.796875 40.203125 3.796875 32.90625 
Q 3.796875 27.296875 4.640625 21.296875 
Q 5.5 15.296875 8.09375 10.296875 
Q 10.703125 5.296875 15.5 2.09375 
Q 20.296875 -1.09375 28.203125 -1.09375 
Q 34.90625 -1.09375 39.453125 1.15625 
Q 44 3.40625 46.75 6.84375 
Q 49.5 10.296875 50.703125 14.5 
Q 51.90625 18.703125 51.90625 22.59375 
Q 51.90625 27.5 50.40625 31.703125 
Q 48.90625 35.90625 46.15625 39 
Q 43.40625 42.09375 39.34375 43.84375 
Q 35.296875 45.59375 30.203125 45.59375 
Q 24.40625 45.59375 19.953125 43.390625 
Q 15.5 41.203125 12.5 36.296875 
L 12.296875 36.5 
Q 12.40625 40.59375 13.09375 45.296875 
Q 13.796875 50 15.640625 54.046875 
Q 17.5 58.09375 20.796875 60.75 
Q 24.09375 63.40625 29.5 63.40625 
Q 34.59375 63.40625 37.6875 60.5 
Q 40.796875 57.59375 41.40625 52.796875 
z
M 28.59375 38.09375 
Q 32.203125 38.09375 34.890625 36.796875 
Q 37.59375 35.5 39.390625 33.34375 
Q 41.203125 31.203125 42.046875 28.25 
Q 42.90625 25.296875 42.90625 22 
Q 42.90625 18.90625 41.953125 16.046875 
Q 41 13.203125 39.203125 11 
Q 37.40625 8.796875 34.75 7.546875 
Q 32.09375 6.296875 28.59375 6.296875 
Q 25.09375 6.296875 22.34375 7.546875 
Q 19.59375 8.796875 17.75 10.890625 
Q 15.90625 13 14.90625 15.890625 
Q 13.90625 18.796875 13.90625 22.09375 
Q 13.90625 25.40625 14.84375 28.34375 
Q 15.796875 31.296875 17.6875 33.4375 
Q 19.59375 35.59375 22.296875 36.84375 
Q 25 38.09375 28.59375 38.09375 
z
" id="HelveticaNeue-54"/>
       </defs>
       <use xlink:href="#HelveticaNeue-54"/>
       <use x="55.599991" xlink:href="#HelveticaNeue-48"/>
       <use x="111.199982" xlink:href="#HelveticaNeue-48"/>
      </g>
     </g>
    </g>
    <g id="ytick_8">
     <g id="line2d_25">
      <g>
       <use style="fill:#555555;stroke:#555555;stroke-width:0.8;" x="62.5" xlink:href="#mf230777ac0" y="34.916097"/>
      </g>
     </g>
     <g id="text_14">
      <!-- 700 -->
      <g style="fill:#555555;" transform="translate(38.821875 38.486409)scale(0.1 -0.1)">
       <defs>
        <path d="M 50.90625 62.40625 
L 50.90625 69.703125 
L 5 69.703125 
L 5 61.703125 
L 42.203125 61.703125 
Q 36.59375 55.796875 31.75 48.796875 
Q 26.90625 41.796875 23.203125 33.9375 
Q 19.5 26.09375 17.140625 17.546875 
Q 14.796875 9 14.203125 0 
L 23.703125 0 
Q 24.203125 8.296875 26.5 17.09375 
Q 28.796875 25.90625 32.4375 34.203125 
Q 36.09375 42.5 40.796875 49.796875 
Q 45.5 57.09375 50.90625 62.40625 
z
" id="HelveticaNeue-55"/>
       </defs>
       <use xlink:href="#HelveticaNeue-55"/>
       <use x="55.599991" xlink:href="#HelveticaNeue-48"/>
       <use x="111.199982" xlink:href="#HelveticaNeue-48"/>
      </g>
     </g>
    </g>
   </g>
   <g id="line2d_26">
    <path clip-path="url(#p9a7369a166)" d="M 63.302277 251.175799 
L 64.104555 249.936489 
L 64.906832 251.795455 
L 65.70911 251.485627 
L 66.511387 250.556144 
L 68.115942 251.795455 
L 68.918219 251.485627 
L 69.720497 251.795455 
L 70.522774 251.485627 
L 71.325052 251.485627 
L 72.127329 250.556144 
L 72.929607 251.175799 
L 73.731884 249.626661 
L 74.534161 249.316833 
L 75.336439 249.316833 
L 76.138716 249.626661 
L 76.940994 250.246316 
L 77.743271 251.485627 
L 78.545549 250.865972 
L 79.347826 251.175799 
L 80.150104 251.795455 
L 80.952381 250.556144 
L 82.556936 249.936489 
L 83.359213 251.485627 
L 84.161491 250.246316 
L 84.963768 249.316833 
L 85.766046 251.175799 
L 86.568323 250.865972 
L 87.3706 248.697178 
L 88.172878 250.246316 
L 88.975155 243.430108 
L 89.777433 250.865972 
L 90.57971 247.767695 
L 91.381988 248.077523 
L 92.184265 249.316833 
L 92.986542 250.865972 
L 93.78882 250.556144 
L 94.591097 249.936489 
L 95.393375 250.556144 
L 96.195652 248.38735 
L 97.800207 250.246316 
L 98.602484 249.316833 
L 99.404762 249.316833 
L 100.207039 247.767695 
L 101.811594 249.626661 
L 102.613872 242.810453 
L 103.416149 247.457867 
L 104.218427 249.936489 
L 105.020704 248.697178 
L 105.822981 248.077523 
L 106.625259 244.669418 
L 107.427536 242.190797 
L 108.229814 246.838212 
L 109.032091 247.767695 
L 109.834369 246.838212 
L 110.636646 246.218557 
L 111.438923 242.810453 
L 112.241201 246.528384 
L 113.043478 247.457867 
L 113.845756 244.979246 
L 114.648033 249.316833 
L 115.450311 244.359591 
L 116.252588 246.528384 
L 117.054865 235.994244 
L 117.857143 242.190797 
L 118.65942 247.14804 
L 119.461698 244.049763 
L 120.263975 244.359591 
L 121.066253 244.359591 
L 121.86853 246.218557 
L 122.670807 243.12028 
L 123.473085 242.500625 
L 124.275362 238.472865 
L 125.07764 235.994244 
L 125.879917 241.261314 
L 126.682195 241.571142 
L 127.484472 234.754934 
L 128.286749 236.923727 
L 129.089027 224.840449 
L 129.891304 241.571142 
L 130.693582 237.233555 
L 131.495859 222.981483 
L 132.298137 237.233555 
L 133.100414 239.402348 
L 133.902692 223.29131 
L 134.704969 229.797691 
L 135.507246 200.983719 
L 136.309524 239.092521 
L 137.111801 214.925964 
L 137.914079 234.754934 
L 138.716356 227.009242 
L 139.518634 220.812689 
L 140.320911 222.671655 
L 141.123188 223.601138 
L 141.925466 216.78493 
L 142.727743 219.573379 
L 143.530021 209.039238 
L 144.332298 229.178036 
L 145.134576 222.981483 
L 145.936853 193.547856 
L 146.73913 203.772168 
L 147.541408 197.575615 
L 148.343685 196.336304 
L 149.145963 173.409058 
L 149.94824 146.76388 
L 150.750518 134.060946 
L 151.552795 37.704545 
L 152.355072 194.477339 
L 153.15735 157.917675 
L 153.959627 189.520096 
L 154.761905 169.071471 
L 155.564182 152.340778 
L 156.36646 187.66113 
L 157.168737 200.364064 
L 157.971014 183.943198 
L 158.773292 200.054236 
L 159.575569 195.096994 
L 160.377847 208.419583 
L 161.180124 196.646132 
L 161.982402 158.227503 
L 162.784679 188.280785 
L 163.586957 213.686653 
L 164.389234 203.46234 
L 165.191511 215.235791 
L 165.993789 218.643896 
L 166.796066 183.633371 
L 167.598344 174.958196 
L 168.400621 195.716649 
L 169.202899 200.054236 
L 170.807453 186.731647 
L 171.609731 202.842685 
L 172.412008 194.787166 
L 173.214286 166.283022 
L 174.016563 203.46234 
L 174.818841 206.870445 
L 175.621118 185.492337 
L 177.225673 221.122517 
L 178.02795 214.616136 
L 178.830228 200.983719 
L 179.632505 209.968721 
L 180.434783 226.699415 
L 181.23706 207.799928 
L 182.039337 218.334068 
L 182.841615 221.122517 
L 183.643892 212.137515 
L 184.44617 208.419583 
L 185.248447 236.613899 
L 186.050725 212.447342 
L 186.853002 222.361827 
L 187.65528 227.009242 
L 188.457557 239.712176 
L 189.259834 205.631134 
L 190.062112 224.840449 
L 190.864389 230.727174 
L 191.666667 219.883206 
L 192.468944 223.29131 
L 193.271222 221.122517 
L 194.073499 215.235791 
L 194.875776 225.769932 
L 195.678054 215.855447 
L 196.480331 219.573379 
L 197.282609 206.250789 
L 198.084886 201.603375 
L 198.887164 226.699415 
L 199.689441 235.994244 
L 200.491718 232.895968 
L 201.293996 236.613899 
L 202.096273 225.769932 
L 202.898551 224.840449 
L 203.700828 233.205795 
L 204.503106 233.205795 
L 205.305383 232.895968 
L 206.10766 230.727174 
L 206.909938 219.573379 
L 207.712215 232.895968 
L 208.514493 231.346829 
L 209.31677 215.545619 
L 210.119048 222.052 
L 210.921325 217.404585 
L 211.723602 227.009242 
L 212.52588 229.487863 
L 213.328157 231.037002 
L 214.130435 222.981483 
L 214.932712 233.205795 
L 215.73499 230.417346 
L 216.537267 238.472865 
L 217.339545 243.12028 
L 218.141822 243.12028 
L 218.944099 230.727174 
L 219.746377 222.671655 
L 220.548654 220.502861 
L 221.350932 233.515623 
L 222.153209 231.346829 
L 222.955487 224.530621 
L 223.757764 230.417346 
L 224.560041 228.55838 
L 225.362319 222.671655 
L 226.164596 219.573379 
L 226.966874 235.684417 
L 227.769151 231.346829 
L 228.571429 229.797691 
L 229.373706 227.938725 
L 230.175983 219.883206 
L 230.978261 230.727174 
L 231.780538 228.55838 
L 232.582816 230.107519 
L 233.385093 239.402348 
L 234.187371 235.994244 
L 234.989648 231.346829 
L 235.791925 220.812689 
L 236.594203 230.727174 
L 237.39648 235.374589 
L 238.198758 235.374589 
L 239.001035 227.31907 
L 239.803313 230.107519 
L 240.60559 220.812689 
L 241.407867 228.868208 
L 242.210145 230.107519 
L 243.012422 239.092521 
L 243.8147 237.543382 
L 244.616977 241.261314 
L 245.419255 227.628898 
L 246.221532 226.699415 
L 247.02381 229.797691 
L 247.826087 225.150276 
L 248.628364 231.966485 
L 249.430642 229.487863 
L 250.232919 237.543382 
L 251.035197 229.487863 
L 251.837474 212.447342 
L 252.639752 213.066998 
L 253.442029 212.75717 
L 254.244306 212.75717 
L 255.046584 229.487863 
L 255.848861 232.276312 
L 256.651139 226.699415 
L 257.453416 217.404585 
L 259.057971 231.966485 
L 259.860248 208.729411 
L 260.662526 214.925964 
L 261.464803 232.276312 
L 262.267081 219.263551 
L 263.069358 231.346829 
L 263.871636 218.953723 
L 264.673913 203.152513 
L 265.47619 217.404585 
L 266.278468 213.066998 
L 267.080745 225.150276 
L 267.883023 217.404585 
L 268.6853 221.742172 
L 269.487578 196.026477 
L 270.289855 211.208032 
L 271.092133 199.124753 
L 271.89441 212.447342 
L 272.696687 214.306308 
L 273.498965 213.996481 
L 274.301242 194.787166 
L 275.10352 207.4901 
L 275.905797 198.814926 
L 276.708075 220.812689 
L 277.510352 218.02424 
L 278.312629 211.827687 
L 279.114907 198.814926 
L 279.917184 183.633371 
L 280.719462 188.900441 
L 281.521739 207.4901 
L 282.324017 228.868208 
L 283.126294 204.391823 
L 283.928571 199.744409 
L 284.730849 208.729411 
L 285.533126 186.111992 
L 286.335404 170.000954 
L 287.137681 187.351302 
L 287.939959 187.351302 
L 288.742236 204.701651 
L 289.544513 204.391823 
L 290.346791 215.855447 
L 291.149068 152.340778 
L 291.951346 171.550092 
L 292.753623 182.39406 
L 293.555901 176.817162 
L 294.358178 187.970958 
L 295.160455 177.12699 
L 295.962733 202.22303 
L 296.76501 191.68889 
L 297.567288 172.479575 
L 298.369565 191.998717 
L 299.171843 192.618373 
L 299.97412 187.66113 
L 300.776398 210.588377 
L 301.578675 174.958196 
L 302.380952 209.039238 
L 303.18323 191.68889 
L 303.985507 185.492337 
L 304.787785 209.658894 
L 305.590062 226.699415 
L 306.39234 218.643896 
L 307.194617 215.855447 
L 307.996894 224.220793 
L 308.799172 228.868208 
L 309.601449 221.742172 
L 310.403727 228.55838 
L 311.206004 230.107519 
L 312.008282 234.135278 
L 312.810559 234.754934 
L 313.612836 229.797691 
L 314.415114 232.58614 
L 315.217391 237.543382 
L 316.019669 237.85321 
L 316.821946 240.951487 
L 317.624224 233.825451 
L 318.426501 240.641659 
L 319.228778 234.135278 
L 320.031056 238.163038 
L 320.833333 238.163038 
L 321.635611 240.331831 
L 322.437888 240.641659 
L 323.240166 241.88097 
L 324.042443 243.430108 
L 324.84472 243.430108 
L 325.646998 237.85321 
L 326.449275 240.641659 
L 327.251553 244.049763 
L 328.05383 244.049763 
L 328.856108 243.739936 
L 329.658385 244.669418 
L 330.460663 242.190797 
L 331.26294 241.261314 
L 332.065217 240.641659 
L 332.867495 242.810453 
L 333.669772 244.049763 
L 334.47205 245.908729 
L 335.274327 245.598901 
L 336.076605 244.049763 
L 336.878882 235.064761 
L 337.681159 243.430108 
L 338.483437 243.739936 
L 339.285714 246.218557 
L 340.890269 246.838212 
L 341.692547 241.88097 
L 342.494824 241.88097 
L 343.297101 244.049763 
L 344.099379 243.12028 
L 344.901656 244.979246 
L 345.703934 245.289074 
L 346.506211 246.218557 
L 347.308489 242.500625 
L 348.110766 236.304072 
L 348.913043 237.233555 
L 349.715321 232.276312 
L 350.517598 234.135278 
L 351.319876 242.500625 
L 352.122153 236.923727 
L 352.924431 233.205795 
L 353.726708 232.58614 
L 354.528986 232.276312 
L 355.331263 237.233555 
L 356.13354 235.374589 
L 356.935818 238.472865 
L 357.738095 232.895968 
L 358.540373 216.475102 
L 359.34265 223.601138 
L 360.144928 215.855447 
L 360.947205 218.334068 
L 361.749482 211.827687 
L 362.55176 226.699415 
L 363.354037 212.137515 
L 364.156315 179.295783 
L 364.958592 195.716649 
L 365.76087 202.22303 
L 366.563147 198.814926 
L 367.365424 214.306308 
L 368.167702 215.235791 
L 368.969979 183.013715 
L 369.772257 187.041475 
L 370.574534 185.802164 
L 371.376812 188.900441 
L 372.179089 186.421819 
L 372.981366 205.940962 
L 373.783644 217.404585 
L 374.585921 194.477339 
L 375.388199 183.323543 
L 376.190476 212.447342 
L 376.992754 192.308545 
L 377.795031 175.268024 
L 378.597308 210.588377 
L 379.399586 188.900441 
L 380.201863 181.464577 
L 381.806418 208.109755 
L 382.608696 145.524569 
L 383.410973 194.477339 
L 384.213251 197.265787 
L 385.015528 198.505098 
L 387.42236 163.494573 
L 388.224638 197.575615 
L 389.026915 203.152513 
L 389.829193 193.238028 
L 390.63147 215.545619 
L 391.433747 196.336304 
L 392.236025 189.829924 
L 393.038302 171.550092 
L 393.84058 174.028713 
L 394.642857 157.29802 
L 395.445135 161.635607 
L 396.247412 159.156986 
L 397.049689 171.85992 
L 397.851967 111.753355 
L 398.654244 144.904914 
L 399.456522 141.49681 
L 400.258799 152.650605 
L 401.061077 125.385772 
L 401.863354 177.746645 
L 402.665631 149.862156 
L 403.467909 112.992665 
L 404.270186 134.990429 
L 405.072464 112.063182 
L 405.874741 152.650605 
L 406.677019 135.919912 
L 407.479296 168.451816 
L 408.281573 171.240264 
L 409.083851 146.144224 
L 409.886128 156.988192 
L 410.688406 156.988192 
L 411.490683 150.171984 
L 412.292961 119.808874 
L 413.095238 174.338541 
L 413.897516 153.27026 
L 414.699793 126.93491 
L 415.50207 112.682838 
L 416.304348 153.889916 
L 417.106625 99.670076 
L 417.908903 159.156986 
L 418.71118 174.338541 
L 419.513458 143.045948 
L 420.315735 117.64008 
L 421.118012 146.454052 
L 421.92029 160.706124 
L 422.722567 143.045948 
L 423.524845 117.330253 
L 424.327122 162.874918 
L 425.1294 127.244738 
L 425.931677 116.090942 
L 426.733954 162.255262 
L 427.536232 130.652842 
L 428.338509 176.197507 
L 429.140787 156.988192 
L 429.943064 164.114228 
L 430.745342 182.39406 
L 431.547619 177.746645 
L 432.349896 178.3663 
L 433.152174 189.520096 
L 433.954451 177.436818 
L 434.756729 191.68889 
L 435.559006 224.530621 
L 436.361284 192.308545 
L 437.163561 180.225266 
L 437.965839 182.703888 
L 438.768116 221.432344 
L 439.570393 184.872681 
L 440.372671 200.364064 
L 441.174948 229.487863 
L 441.977226 218.02424 
L 442.779503 215.235791 
L 443.581781 207.4901 
L 444.384058 222.361827 
L 445.186335 224.840449 
L 445.988613 230.107519 
L 446.79089 224.530621 
L 447.593168 231.346829 
L 448.395445 223.29131 
L 449.197723 229.178036 
L 450 243.739936 
L 450 243.739936 
" style="fill:none;stroke:#000000;stroke-dasharray:1.5,2.475;stroke-dashoffset:0;stroke-opacity:0.5;stroke-width:1.5;"/>
   </g>
   <g id="line2d_27">
    <path clip-path="url(#p9a7369a166)" d="M 62.5 250.865972 
L 63.302277 251.175799 
L 64.104555 250.865972 
L 64.906832 251.175799 
L 66.511387 251.175799 
L 67.313665 251.485627 
L 70.522774 251.485627 
L 74.534161 249.936489 
L 76.138716 249.936489 
L 78.545549 250.865972 
L 81.754658 250.865972 
L 82.556936 250.556144 
L 84.161491 250.556144 
L 84.963768 250.246316 
L 85.766046 250.246316 
L 86.568323 249.316833 
L 87.3706 249.316833 
L 88.172878 249.007006 
L 88.975155 248.38735 
L 90.57971 248.38735 
L 91.381988 248.697178 
L 92.184265 249.626661 
L 92.986542 249.626661 
L 93.78882 249.936489 
L 95.393375 249.936489 
L 96.195652 249.626661 
L 96.99793 249.626661 
L 98.602484 249.007006 
L 99.404762 249.007006 
L 101.009317 247.767695 
L 103.416149 247.767695 
L 104.218427 247.457867 
L 105.020704 246.838212 
L 105.822981 246.838212 
L 109.032091 245.598901 
L 110.636646 246.218557 
L 111.438923 245.908729 
L 112.241201 246.218557 
L 113.043478 245.908729 
L 113.845756 246.218557 
L 114.648033 245.289074 
L 116.252588 244.049763 
L 117.857143 243.430108 
L 118.65942 243.430108 
L 119.461698 243.739936 
L 120.263975 244.669418 
L 121.066253 244.669418 
L 121.86853 243.430108 
L 123.473085 241.571142 
L 124.275362 240.951487 
L 125.07764 239.712176 
L 125.879917 238.782693 
L 126.682195 236.923727 
L 128.286749 236.304072 
L 129.089027 234.445106 
L 129.891304 233.515623 
L 130.693582 234.135278 
L 131.495859 232.895968 
L 132.298137 232.895968 
L 133.100414 228.55838 
L 133.902692 227.628898 
L 134.704969 225.769932 
L 136.309524 223.910966 
L 137.111801 224.220793 
L 137.914079 223.910966 
L 138.716356 225.769932 
L 139.518634 223.29131 
L 140.320911 223.29131 
L 141.123188 220.193034 
L 141.925466 219.883206 
L 142.727743 219.883206 
L 145.134576 211.517859 
L 145.936853 207.4901 
L 146.73913 202.22303 
L 148.343685 179.915439 
L 149.145963 159.466814 
L 150.750518 143.355776 
L 151.552795 142.426293 
L 152.355072 145.524569 
L 153.15735 150.791639 
L 153.959627 160.086469 
L 154.761905 176.817162 
L 155.564182 176.817162 
L 156.36646 182.39406 
L 157.168737 184.872681 
L 158.773292 196.026477 
L 160.377847 191.379062 
L 161.180124 192.9282 
L 161.982402 193.238028 
L 162.784679 195.716649 
L 163.586957 198.814926 
L 164.389234 200.054236 
L 165.191511 201.913202 
L 165.993789 200.983719 
L 166.796066 197.885443 
L 167.598344 195.716649 
L 168.400621 192.618373 
L 169.202899 191.379062 
L 170.005176 193.238028 
L 170.807453 192.308545 
L 171.609731 192.308545 
L 172.412008 192.618373 
L 173.214286 192.308545 
L 174.016563 193.857683 
L 174.818841 196.646132 
L 175.621118 200.364064 
L 176.423395 205.011479 
L 177.225673 206.250789 
L 178.830228 212.137515 
L 179.632505 213.686653 
L 180.434783 213.996481 
L 181.23706 214.616136 
L 182.039337 215.545619 
L 182.841615 217.714413 
L 183.643892 216.78493 
L 184.44617 218.643896 
L 185.248447 219.883206 
L 186.050725 222.361827 
L 186.853002 222.671655 
L 187.65528 224.220793 
L 188.457557 223.601138 
L 189.259834 224.220793 
L 190.062112 224.220793 
L 190.864389 223.29131 
L 191.666667 221.122517 
L 192.468944 222.671655 
L 194.073499 220.193034 
L 194.875776 218.643896 
L 195.678054 215.855447 
L 196.480331 215.545619 
L 198.084886 218.643896 
L 198.887164 222.361827 
L 199.689441 224.840449 
L 201.293996 231.037002 
L 202.096273 231.346829 
L 203.700828 230.727174 
L 204.503106 229.487863 
L 206.10766 230.107519 
L 208.514493 224.530621 
L 209.31677 223.601138 
L 210.119048 224.220793 
L 210.921325 224.220793 
L 211.723602 223.910966 
L 212.52588 226.389587 
L 213.328157 227.628898 
L 214.932712 232.276312 
L 215.73499 234.445106 
L 216.537267 235.374589 
L 217.339545 235.684417 
L 218.141822 233.825451 
L 218.944099 232.895968 
L 219.746377 231.037002 
L 220.548654 228.868208 
L 221.350932 227.628898 
L 222.153209 227.628898 
L 222.955487 227.938725 
L 223.757764 227.31907 
L 224.560041 227.009242 
L 225.362319 227.31907 
L 226.164596 227.938725 
L 226.966874 227.938725 
L 227.769151 227.628898 
L 228.571429 228.248553 
L 229.373706 228.55838 
L 230.175983 227.938725 
L 230.978261 228.868208 
L 232.582816 231.346829 
L 233.385093 231.656657 
L 234.187371 231.346829 
L 235.791925 231.966485 
L 236.594203 230.727174 
L 237.39648 230.417346 
L 238.198758 229.487863 
L 239.001035 229.797691 
L 239.803313 229.178036 
L 240.60559 229.487863 
L 241.407867 230.107519 
L 242.210145 232.276312 
L 243.012422 233.205795 
L 243.8147 233.825451 
L 244.616977 233.515623 
L 247.02381 229.797691 
L 247.826087 229.487863 
L 248.628364 230.107519 
L 249.430642 228.868208 
L 251.035197 224.220793 
L 251.837474 220.812689 
L 252.639752 219.573379 
L 253.442029 218.953723 
L 254.244306 219.883206 
L 255.046584 221.432344 
L 256.651139 225.150276 
L 257.453416 224.530621 
L 258.255694 222.361827 
L 259.057971 222.052 
L 259.860248 221.122517 
L 260.662526 222.671655 
L 261.464803 222.361827 
L 262.267081 219.883206 
L 263.069358 220.193034 
L 263.871636 218.953723 
L 264.673913 217.404585 
L 265.47619 217.094757 
L 266.278468 216.475102 
L 267.080745 214.925964 
L 267.883023 215.235791 
L 268.6853 212.447342 
L 269.487578 211.208032 
L 270.289855 209.349066 
L 271.092133 209.039238 
L 271.89441 206.870445 
L 272.696687 208.109755 
L 273.498965 206.560617 
L 274.301242 208.109755 
L 275.10352 208.419583 
L 275.905797 209.039238 
L 276.708075 208.419583 
L 277.510352 207.180272 
L 278.312629 204.081996 
L 279.114907 203.152513 
L 279.917184 202.842685 
L 280.719462 202.22303 
L 281.521739 202.532858 
L 282.324017 204.701651 
L 283.126294 205.011479 
L 283.928571 201.913202 
L 284.730849 197.265787 
L 285.533126 191.379062 
L 286.335404 190.139751 
L 287.137681 190.759407 
L 287.939959 192.9282 
L 288.742236 191.68889 
L 289.544513 191.379062 
L 290.346791 189.210268 
L 292.753623 179.295783 
L 293.555901 178.985956 
L 294.358178 184.253026 
L 295.160455 185.182509 
L 295.962733 186.421819 
L 296.76501 187.970958 
L 297.567288 187.970958 
L 298.369565 191.379062 
L 299.171843 189.520096 
L 300.776398 194.167511 
L 301.578675 193.547856 
L 302.380952 195.096994 
L 303.18323 199.434581 
L 303.985507 201.913202 
L 304.787785 207.799928 
L 305.590062 211.208032 
L 307.194617 221.122517 
L 307.996894 223.29131 
L 308.799172 224.220793 
L 310.403727 228.55838 
L 311.206004 229.797691 
L 312.008282 230.727174 
L 312.810559 232.58614 
L 313.612836 233.515623 
L 314.415114 235.064761 
L 315.217391 235.374589 
L 316.821946 237.233555 
L 317.624224 237.543382 
L 318.426501 237.543382 
L 319.228778 237.85321 
L 320.031056 237.85321 
L 320.833333 239.092521 
L 321.635611 239.712176 
L 322.437888 240.951487 
L 323.240166 241.261314 
L 324.042443 241.261314 
L 328.856108 243.12028 
L 329.658385 243.12028 
L 331.26294 242.500625 
L 332.867495 243.12028 
L 333.669772 243.739936 
L 334.47205 243.12028 
L 335.274327 243.12028 
L 336.076605 242.810453 
L 336.878882 243.12028 
L 337.681159 243.12028 
L 338.483437 243.739936 
L 339.285714 244.049763 
L 340.087992 244.669418 
L 340.890269 244.669418 
L 343.297101 243.739936 
L 344.099379 244.049763 
L 344.901656 244.049763 
L 345.703934 243.739936 
L 346.506211 242.500625 
L 347.308489 240.951487 
L 348.110766 239.092521 
L 348.913043 238.163038 
L 349.715321 236.923727 
L 351.319876 235.684417 
L 352.122153 235.374589 
L 353.726708 235.374589 
L 354.528986 234.754934 
L 355.331263 234.754934 
L 356.935818 231.656657 
L 357.738095 228.868208 
L 359.34265 222.052 
L 360.947205 218.02424 
L 362.55176 209.658894 
L 364.156315 202.842685 
L 365.76087 201.603375 
L 366.563147 200.054236 
L 367.365424 200.983719 
L 368.167702 198.814926 
L 369.772257 193.238028 
L 370.574534 191.379062 
L 371.376812 192.618373 
L 372.179089 195.096994 
L 372.981366 196.026477 
L 373.783644 199.124753 
L 374.585921 199.434581 
L 375.388199 197.575615 
L 376.190476 196.95596 
L 376.992754 193.857683 
L 377.795031 192.618373 
L 378.597308 192.9282 
L 379.399586 192.618373 
L 380.201863 188.280785 
L 381.004141 188.900441 
L 381.806418 186.731647 
L 383.410973 188.590613 
L 384.213251 187.041475 
L 385.015528 183.013715 
L 385.817805 187.041475 
L 386.620083 186.731647 
L 387.42236 186.731647 
L 389.829193 196.026477 
L 390.63147 196.646132 
L 391.433747 192.9282 
L 393.84058 172.169747 
L 394.642857 168.141988 
L 395.445135 159.466814 
L 397.049689 149.862156 
L 397.851967 147.693363 
L 398.654244 143.045948 
L 399.456522 144.595086 
L 400.258799 143.975431 
L 401.061077 144.904914 
L 401.863354 143.355776 
L 402.665631 139.018188 
L 403.467909 137.159222 
L 404.270186 136.849395 
L 405.072464 136.22974 
L 405.874741 140.567327 
L 406.677019 146.76388 
L 407.479296 151.101467 
L 408.281573 156.058709 
L 409.083851 156.058709 
L 409.886128 153.580088 
L 410.688406 152.340778 
L 412.292961 148.622846 
L 413.095238 143.355776 
L 413.897516 141.806637 
L 414.699793 135.610084 
L 415.50207 137.159222 
L 416.304348 137.159222 
L 417.106625 138.398533 
L 417.908903 139.328016 
L 418.71118 143.045948 
L 419.513458 143.975431 
L 420.315735 147.693363 
L 421.118012 143.045948 
L 421.92029 141.49681 
L 423.524845 139.637844 
L 424.327122 139.637844 
L 425.1294 136.849395 
L 425.931677 140.567327 
L 426.733954 145.834397 
L 427.536232 148.313018 
L 429.140787 164.114228 
L 429.943064 167.522333 
L 430.745342 174.648369 
L 431.547619 176.197507 
L 432.349896 180.535094 
L 433.152174 187.351302 
L 433.954451 190.139751 
L 434.756729 191.998717 
L 435.559006 192.618373 
L 436.361284 195.716649 
L 437.163561 196.336304 
L 437.965839 196.646132 
L 438.768116 197.885443 
L 441.174948 211.208032 
L 441.977226 212.447342 
L 442.779503 216.78493 
L 443.581781 219.883206 
L 444.384058 220.193034 
L 447.593168 229.178036 
L 448.395445 230.107519 
L 449.197723 230.727174 
L 450 232.58614 
L 450 232.58614 
" style="fill:none;stroke:#b3220f;stroke-linecap:square;stroke-width:1.5;"/>
   </g>
   <g id="patch_3">
    <path d="M 62.5 262.5 
L 62.5 27 
" style="fill:none;stroke:#555555;stroke-linecap:square;stroke-linejoin:miter;"/>
   </g>
   <g id="patch_4">
    <path d="M 62.5 262.5 
L 450 262.5 
" style="fill:none;stroke:#555555;stroke-linecap:square;stroke-linejoin:miter;"/>
   </g>
   <g id="text_15">
    <!-- Rafael Uribe Uribe | Casos nuevos: 2021-07-29 -->
    <g style="fill:#555555;" transform="translate(108.706406 17)scale(0.14 -0.14)">
     <defs>
      <path d="M 7.796875 71.40625 
L 7.796875 0 
L 17.296875 0 
L 17.296875 30.5 
L 40.5 30.5 
Q 44 30.5 46.09375 29.453125 
Q 48.203125 28.40625 49.5 26.65625 
Q 50.796875 24.90625 51.390625 22.546875 
Q 52 20.203125 52.40625 17.59375 
Q 52.90625 15 53 12.296875 
Q 53.09375 9.59375 53.1875 7.25 
Q 53.296875 4.90625 53.640625 3 
Q 54 1.09375 55 0 
L 65.59375 0 
Q 64.09375 1.796875 63.34375 4.140625 
Q 62.59375 6.5 62.1875 9.09375 
Q 61.796875 11.703125 61.6875 14.390625 
Q 61.59375 17.09375 61.40625 19.703125 
Q 61.09375 22.296875 60.546875 24.6875 
Q 60 27.09375 58.84375 29.046875 
Q 57.703125 31 55.75 32.390625 
Q 53.796875 33.796875 50.703125 34.40625 
L 50.703125 34.59375 
Q 57.203125 36.40625 60.140625 41.296875 
Q 63.09375 46.203125 63.09375 52.703125 
Q 63.09375 61.40625 57.34375 66.40625 
Q 51.59375 71.40625 41.40625 71.40625 
z
M 37.09375 38.5 
L 17.296875 38.5 
L 17.296875 63.40625 
L 40.90625 63.40625 
Q 47.59375 63.40625 50.59375 60 
Q 53.59375 56.59375 53.59375 51.203125 
Q 53.59375 47.296875 52.25 44.84375 
Q 50.90625 42.40625 48.65625 40.953125 
Q 46.40625 39.5 43.40625 39 
Q 40.40625 38.5 37.09375 38.5 
z
" id="HelveticaNeue-82"/>
      <path id="HelveticaNeue-32"/>
      <path d="M 64.796875 25.796875 
L 64.796875 71.40625 
L 55.296875 71.40625 
L 55.296875 25.796875 
Q 55.296875 16.203125 50.546875 11.25 
Q 45.796875 6.296875 36.703125 6.296875 
Q 27.09375 6.296875 22 11.25 
Q 16.90625 16.203125 16.90625 25.796875 
L 16.90625 71.40625 
L 7.40625 71.40625 
L 7.40625 25.796875 
Q 7.40625 11.5 15.15625 4.953125 
Q 22.90625 -1.59375 36.703125 -1.59375 
Q 50.203125 -1.59375 57.5 5.25 
Q 64.796875 12.09375 64.796875 25.796875 
z
" id="HelveticaNeue-85"/>
      <path d="M 15.40625 61 
L 15.40625 71.40625 
L 6.90625 71.40625 
L 6.90625 61 
z
M 6.90625 51.703125 
L 6.90625 0 
L 15.40625 0 
L 15.40625 51.703125 
z
" id="HelveticaNeue-105"/>
      <path d="M 6.703125 71.40625 
L 6.703125 0 
L 15.203125 0 
L 15.203125 6.90625 
L 15.40625 6.90625 
Q 16.796875 4.59375 18.84375 3.046875 
Q 20.90625 1.5 23.203125 0.59375 
Q 25.5 -0.296875 27.84375 -0.6875 
Q 30.203125 -1.09375 32.09375 -1.09375 
Q 38 -1.09375 42.453125 1 
Q 46.90625 3.09375 49.84375 6.75 
Q 52.796875 10.40625 54.25 15.296875 
Q 55.703125 20.203125 55.703125 25.703125 
Q 55.703125 31.203125 54.203125 36.09375 
Q 52.703125 41 49.75 44.75 
Q 46.796875 48.5 42.34375 50.703125 
Q 37.90625 52.90625 31.90625 52.90625 
Q 26.5 52.90625 22 50.953125 
Q 17.5 49 15.40625 44.703125 
L 15.203125 44.703125 
L 15.203125 71.40625 
z
M 46.703125 26.296875 
Q 46.703125 22.5 45.890625 18.890625 
Q 45.09375 15.296875 43.296875 12.5 
Q 41.5 9.703125 38.546875 8 
Q 35.59375 6.296875 31.203125 6.296875 
Q 26.796875 6.296875 23.6875 7.9375 
Q 20.59375 9.59375 18.640625 12.296875 
Q 16.703125 15 15.796875 18.546875 
Q 14.90625 22.09375 14.90625 25.90625 
Q 14.90625 29.5 15.75 33 
Q 16.59375 36.5 18.5 39.25 
Q 20.40625 42 23.40625 43.703125 
Q 26.40625 45.40625 30.703125 45.40625 
Q 34.796875 45.40625 37.84375 43.796875 
Q 40.90625 42.203125 42.84375 39.5 
Q 44.796875 36.796875 45.75 33.34375 
Q 46.703125 29.90625 46.703125 26.296875 
z
" id="HelveticaNeue-98"/>
      <path d="M 7.703125 78.59375 
L 7.703125 -21.296875 
L 14.5 -21.296875 
L 14.5 78.59375 
z
" id="HelveticaNeue-124"/>
      <path d="M 58 49.90625 
L 67.5 49.90625 
Q 66.703125 55.59375 64.09375 59.9375 
Q 61.5 64.296875 57.59375 67.1875 
Q 53.703125 70.09375 48.703125 71.59375 
Q 43.703125 73.09375 38.09375 73.09375 
Q 29.90625 73.09375 23.546875 70.140625 
Q 17.203125 67.203125 12.953125 62.09375 
Q 8.703125 57 6.5 50.140625 
Q 4.296875 43.296875 4.296875 35.5 
Q 4.296875 27.703125 6.34375 20.890625 
Q 8.40625 14.09375 12.5 9.09375 
Q 16.59375 4.09375 22.796875 1.25 
Q 29 -1.59375 37.296875 -1.59375 
Q 51 -1.59375 58.890625 5.90625 
Q 66.796875 13.40625 68.203125 26.90625 
L 58.703125 26.90625 
Q 58.40625 22.5 56.90625 18.703125 
Q 55.40625 14.90625 52.75 12.15625 
Q 50.09375 9.40625 46.4375 7.84375 
Q 42.796875 6.296875 38.09375 6.296875 
Q 31.703125 6.296875 27.09375 8.6875 
Q 22.5 11.09375 19.546875 15.140625 
Q 16.59375 19.203125 15.1875 24.640625 
Q 13.796875 30.09375 13.796875 36.203125 
Q 13.796875 41.796875 15.1875 47 
Q 16.59375 52.203125 19.546875 56.25 
Q 22.5 60.296875 27.046875 62.6875 
Q 31.59375 65.09375 38 65.09375 
Q 45.5 65.09375 50.953125 61.296875 
Q 56.40625 57.5 58 49.90625 
z
" id="HelveticaNeue-67"/>
      <path d="M 11.59375 16.296875 
L 3.09375 16.296875 
Q 3.296875 11.5 5.09375 8.140625 
Q 6.90625 4.796875 9.90625 2.75 
Q 12.90625 0.703125 16.796875 -0.1875 
Q 20.703125 -1.09375 25 -1.09375 
Q 28.90625 -1.09375 32.84375 -0.34375 
Q 36.796875 0.40625 39.9375 2.296875 
Q 43.09375 4.203125 45.046875 7.296875 
Q 47 10.40625 47 15.09375 
Q 47 18.796875 45.546875 21.296875 
Q 44.09375 23.796875 41.75 25.4375 
Q 39.40625 27.09375 36.34375 28.09375 
Q 33.296875 29.09375 30.09375 29.796875 
Q 27.09375 30.5 24.09375 31.140625 
Q 21.09375 31.796875 18.6875 32.75 
Q 16.296875 33.703125 14.75 35.140625 
Q 13.203125 36.59375 13.203125 38.796875 
Q 13.203125 40.796875 14.203125 42.046875 
Q 15.203125 43.296875 16.796875 44.046875 
Q 18.40625 44.796875 20.34375 45.09375 
Q 22.296875 45.40625 24.203125 45.40625 
Q 26.296875 45.40625 28.34375 44.953125 
Q 30.40625 44.5 32.09375 43.5 
Q 33.796875 42.5 34.890625 40.84375 
Q 36 39.203125 36.203125 36.703125 
L 44.703125 36.703125 
Q 44.40625 41.40625 42.703125 44.546875 
Q 41 47.703125 38.140625 49.546875 
Q 35.296875 51.40625 31.59375 52.15625 
Q 27.90625 52.90625 23.5 52.90625 
Q 20.09375 52.90625 16.640625 52.046875 
Q 13.203125 51.203125 10.453125 49.453125 
Q 7.703125 47.703125 5.953125 44.890625 
Q 4.203125 42.09375 4.203125 38.203125 
Q 4.203125 33.203125 6.703125 30.390625 
Q 9.203125 27.59375 12.953125 26.046875 
Q 16.703125 24.5 21.09375 23.640625 
Q 25.5 22.796875 29.25 21.75 
Q 33 20.703125 35.5 19 
Q 38 17.296875 38 14 
Q 38 11.59375 36.796875 10.046875 
Q 35.59375 8.5 33.75 7.703125 
Q 31.90625 6.90625 29.703125 6.59375 
Q 27.5 6.296875 25.5 6.296875 
Q 22.90625 6.296875 20.453125 6.796875 
Q 18 7.296875 16.046875 8.4375 
Q 14.09375 9.59375 12.890625 11.546875 
Q 11.703125 13.5 11.59375 16.296875 
z
" id="HelveticaNeue-115"/>
      <path d="M 12.59375 25.796875 
Q 12.59375 30.5 13.84375 34.140625 
Q 15.09375 37.796875 17.296875 40.296875 
Q 19.5 42.796875 22.453125 44.09375 
Q 25.40625 45.40625 28.703125 45.40625 
Q 32 45.40625 34.953125 44.09375 
Q 37.90625 42.796875 40.09375 40.296875 
Q 42.296875 37.796875 43.546875 34.140625 
Q 44.796875 30.5 44.796875 25.796875 
Q 44.796875 21.09375 43.546875 17.4375 
Q 42.296875 13.796875 40.09375 11.34375 
Q 37.90625 8.90625 34.953125 7.59375 
Q 32 6.296875 28.703125 6.296875 
Q 25.40625 6.296875 22.453125 7.59375 
Q 19.5 8.90625 17.296875 11.34375 
Q 15.09375 13.796875 13.84375 17.4375 
Q 12.59375 21.09375 12.59375 25.796875 
z
M 3.59375 25.796875 
Q 3.59375 20.09375 5.1875 15.1875 
Q 6.796875 10.296875 10 6.640625 
Q 13.203125 3 17.890625 0.953125 
Q 22.59375 -1.09375 28.703125 -1.09375 
Q 34.90625 -1.09375 39.546875 0.953125 
Q 44.203125 3 47.390625 6.640625 
Q 50.59375 10.296875 52.1875 15.1875 
Q 53.796875 20.09375 53.796875 25.796875 
Q 53.796875 31.5 52.1875 36.453125 
Q 50.59375 41.40625 47.390625 45.046875 
Q 44.203125 48.703125 39.546875 50.796875 
Q 34.90625 52.90625 28.703125 52.90625 
Q 22.59375 52.90625 17.890625 50.796875 
Q 13.203125 48.703125 10 45.046875 
Q 6.796875 41.40625 5.1875 36.453125 
Q 3.59375 31.5 3.59375 25.796875 
z
" id="HelveticaNeue-111"/>
      <path d="M 29.703125 0 
L 48.59375 51.703125 
L 39.703125 51.703125 
L 25.59375 8.59375 
L 25.40625 8.59375 
L 10.90625 51.703125 
L 1.40625 51.703125 
L 20.59375 0 
z
" id="HelveticaNeue-118"/>
      <path d="M 19.40625 40.59375 
L 19.40625 51.703125 
L 8.296875 51.703125 
L 8.296875 40.59375 
z
M 8.296875 11.09375 
L 8.296875 0 
L 19.40625 0 
L 19.40625 11.09375 
z
" id="HelveticaNeue-58"/>
      <path d="M 5 31.796875 
L 5 23.796875 
L 33.90625 23.796875 
L 33.90625 31.796875 
z
" id="HelveticaNeue-45"/>
      <path d="M 13.40625 17.09375 
L 4.90625 17.09375 
Q 5.703125 7.90625 11.59375 3.40625 
Q 17.5 -1.09375 26.40625 -1.09375 
Q 39.296875 -1.09375 45.140625 8.75 
Q 51 18.59375 51 37 
Q 51 47.09375 49.046875 53.640625 
Q 47.09375 60.203125 43.796875 64 
Q 40.5 67.796875 36.09375 69.34375 
Q 31.703125 70.90625 26.703125 70.90625 
Q 21.59375 70.90625 17.296875 69.203125 
Q 13 67.5 9.890625 64.453125 
Q 6.796875 61.40625 5.09375 57.15625 
Q 3.40625 52.90625 3.40625 47.796875 
Q 3.40625 42.59375 4.84375 38.1875 
Q 6.296875 33.796875 9.140625 30.6875 
Q 12 27.59375 16.203125 25.84375 
Q 20.40625 24.09375 25.796875 24.09375 
Q 31 24.09375 35.390625 26.75 
Q 39.796875 29.40625 42.203125 33.90625 
L 42.40625 33.703125 
Q 42 19.796875 38.09375 13.046875 
Q 34.203125 6.296875 26.40625 6.296875 
Q 21.296875 6.296875 17.59375 9.09375 
Q 13.90625 11.90625 13.40625 17.09375 
z
M 40.90625 47.203125 
Q 40.90625 44.09375 39.90625 41.25 
Q 38.90625 38.40625 37 36.25 
Q 35.09375 34.09375 32.390625 32.84375 
Q 29.703125 31.59375 26.40625 31.59375 
Q 23.296875 31.59375 20.75 32.84375 
Q 18.203125 34.09375 16.34375 36.1875 
Q 14.5 38.296875 13.453125 41 
Q 12.40625 43.703125 12.40625 46.59375 
Q 12.40625 49.90625 13.15625 52.90625 
Q 13.90625 55.90625 15.546875 58.25 
Q 17.203125 60.59375 19.84375 62 
Q 22.5 63.40625 26.296875 63.40625 
Q 29.90625 63.40625 32.59375 62.09375 
Q 35.296875 60.796875 37.140625 58.546875 
Q 39 56.296875 39.953125 53.390625 
Q 40.90625 50.5 40.90625 47.203125 
z
" id="HelveticaNeue-57"/>
     </defs>
     <use xlink:href="#HelveticaNeue-82"/>
     <use x="68.499985" xlink:href="#HelveticaNeue-97"/>
     <use x="122.199982" xlink:href="#HelveticaNeue-102"/>
     <use x="151.799973" xlink:href="#HelveticaNeue-97"/>
     <use x="205.499969" xlink:href="#HelveticaNeue-101"/>
     <use x="259.199966" xlink:href="#HelveticaNeue-108"/>
     <use x="281.399963" xlink:href="#HelveticaNeue-32"/>
     <use x="309.199951" xlink:href="#HelveticaNeue-85"/>
     <use x="381.399933" xlink:href="#HelveticaNeue-114"/>
     <use x="414.699921" xlink:href="#HelveticaNeue-105"/>
     <use x="436.899918" xlink:href="#HelveticaNeue-98"/>
     <use x="496.199905" xlink:href="#HelveticaNeue-101"/>
     <use x="549.899902" xlink:href="#HelveticaNeue-32"/>
     <use x="577.69989" xlink:href="#HelveticaNeue-85"/>
     <use x="649.899872" xlink:href="#HelveticaNeue-114"/>
     <use x="683.19986" xlink:href="#HelveticaNeue-105"/>
     <use x="705.399857" xlink:href="#HelveticaNeue-98"/>
     <use x="764.699844" xlink:href="#HelveticaNeue-101"/>
     <use x="818.399841" xlink:href="#HelveticaNeue-32"/>
     <use x="846.199829" xlink:href="#HelveticaNeue-124"/>
     <use x="868.399826" xlink:href="#HelveticaNeue-32"/>
     <use x="896.199814" xlink:href="#HelveticaNeue-67"/>
     <use x="968.399796" xlink:href="#HelveticaNeue-97"/>
     <use x="1022.099792" xlink:href="#HelveticaNeue-115"/>
     <use x="1072.099777" xlink:href="#HelveticaNeue-111"/>
     <use x="1129.499771" xlink:href="#HelveticaNeue-115"/>
     <use x="1179.499756" xlink:href="#HelveticaNeue-32"/>
     <use x="1207.299744" xlink:href="#HelveticaNeue-110"/>
     <use x="1262.899734" xlink:href="#HelveticaNeue-117"/>
     <use x="1318.499725" xlink:href="#HelveticaNeue-101"/>
     <use x="1372.199722" xlink:href="#HelveticaNeue-118"/>
     <use x="1422.199707" xlink:href="#HelveticaNeue-111"/>
     <use x="1479.599701" xlink:href="#HelveticaNeue-115"/>
     <use x="1529.599686" xlink:href="#HelveticaNeue-58"/>
     <use x="1557.399673" xlink:href="#HelveticaNeue-32"/>
     <use x="1585.199661" xlink:href="#HelveticaNeue-50"/>
     <use x="1640.799652" xlink:href="#HelveticaNeue-48"/>
     <use x="1696.399643" xlink:href="#HelveticaNeue-50"/>
     <use x="1751.999634" xlink:href="#HelveticaNeue-49"/>
     <use x="1807.599625" xlink:href="#HelveticaNeue-45"/>
     <use x="1846.499619" xlink:href="#HelveticaNeue-48"/>
     <use x="1902.099609" xlink:href="#HelveticaNeue-55"/>
     <use x="1957.6996" xlink:href="#HelveticaNeue-45"/>
     <use x="1996.599594" xlink:href="#HelveticaNeue-50"/>
     <use x="2052.199585" xlink:href="#HelveticaNeue-57"/>
    </g>
   </g>
   <g id="legend_1">
    <g id="line2d_28">
     <path d="M 292.034375 39.640625 
L 312.034375 39.640625 
" style="fill:none;stroke:#000000;stroke-dasharray:1.5,2.475;stroke-dashoffset:0;stroke-opacity:0.5;stroke-width:1.5;"/>
    </g>
    <g id="line2d_29"/>
    <g id="text_16">
     <!-- Actual -->
     <g style="fill:#555555;" transform="translate(320.034375 43.140625)scale(0.1 -0.1)">
      <use xlink:href="#HelveticaNeue-65"/>
      <use x="64.799988" xlink:href="#HelveticaNeue-99"/>
      <use x="118.499985" xlink:href="#HelveticaNeue-116"/>
      <use x="149.999969" xlink:href="#HelveticaNeue-117"/>
      <use x="205.59996" xlink:href="#HelveticaNeue-97"/>
      <use x="259.299957" xlink:href="#HelveticaNeue-108"/>
     </g>
    </g>
    <g id="line2d_30">
     <path d="M 292.034375 54.310937 
L 312.034375 54.310937 
" style="fill:none;stroke:#b3220f;stroke-linecap:square;stroke-width:1.5;"/>
    </g>
    <g id="line2d_31"/>
    <g id="text_17">
     <!-- Promedio semanal (7 das)  -->
     <g style="fill:#555555;" transform="translate(320.034375 57.810937)scale(0.1 -0.1)">
      <defs>
       <path d="M 17.296875 37.203125 
L 17.296875 63.40625 
L 35.90625 63.40625 
Q 44 63.40625 47.75 60.046875 
Q 51.5 56.703125 51.5 50.296875 
Q 51.5 43.90625 47.75 40.5 
Q 44 37.09375 35.90625 37.203125 
z
M 7.796875 71.40625 
L 7.796875 0 
L 17.296875 0 
L 17.296875 29.203125 
L 39.09375 29.203125 
Q 49.90625 29.09375 55.453125 34.6875 
Q 61 40.296875 61 50.296875 
Q 61 60.296875 55.453125 65.84375 
Q 49.90625 71.40625 39.09375 71.40625 
z
" id="HelveticaNeue-80"/>
       <path d="M 6.40625 51.703125 
L 6.40625 0 
L 14.90625 0 
L 14.90625 32.203125 
Q 14.90625 33.703125 15.65625 35.953125 
Q 16.40625 38.203125 18.046875 40.296875 
Q 19.703125 42.40625 22.34375 43.90625 
Q 25 45.40625 28.703125 45.40625 
Q 31.59375 45.40625 33.4375 44.546875 
Q 35.296875 43.703125 36.390625 42.140625 
Q 37.5 40.59375 37.953125 38.5 
Q 38.40625 36.40625 38.40625 33.90625 
L 38.40625 0 
L 46.90625 0 
L 46.90625 32.203125 
Q 46.90625 38.203125 50.5 41.796875 
Q 54.09375 45.40625 60.40625 45.40625 
Q 63.5 45.40625 65.453125 44.5 
Q 67.40625 43.59375 68.5 42.046875 
Q 69.59375 40.5 70 38.390625 
Q 70.40625 36.296875 70.40625 33.90625 
L 70.40625 0 
L 78.90625 0 
L 78.90625 37.90625 
Q 78.90625 41.90625 77.65625 44.75 
Q 76.40625 47.59375 74.15625 49.390625 
Q 71.90625 51.203125 68.75 52.046875 
Q 65.59375 52.90625 61.703125 52.90625 
Q 56.59375 52.90625 52.34375 50.59375 
Q 48.09375 48.296875 45.5 44.09375 
Q 43.90625 48.90625 40 50.90625 
Q 36.09375 52.90625 31.296875 52.90625 
Q 20.40625 52.90625 14.59375 44.09375 
L 14.40625 44.09375 
L 14.40625 51.703125 
z
" id="HelveticaNeue-109"/>
       <path d="M 12.59375 25.40625 
Q 12.59375 29.203125 13.390625 32.796875 
Q 14.203125 36.40625 16 39.203125 
Q 17.796875 42 20.796875 43.703125 
Q 23.796875 45.40625 28.09375 45.40625 
Q 32.5 45.40625 35.59375 43.75 
Q 38.703125 42.09375 40.640625 39.390625 
Q 42.59375 36.703125 43.5 33.140625 
Q 44.40625 29.59375 44.40625 25.796875 
Q 44.40625 22.203125 43.546875 18.703125 
Q 42.703125 15.203125 40.796875 12.453125 
Q 38.90625 9.703125 35.90625 8 
Q 32.90625 6.296875 28.59375 6.296875 
Q 24.5 6.296875 21.453125 7.890625 
Q 18.40625 9.5 16.453125 12.203125 
Q 14.5 14.90625 13.546875 18.34375 
Q 12.59375 21.796875 12.59375 25.40625 
z
M 52.59375 0 
L 52.59375 71.40625 
L 44.09375 71.40625 
L 44.09375 44.796875 
L 43.90625 44.796875 
Q 42.5 47.09375 40.453125 48.640625 
Q 38.40625 50.203125 36.09375 51.140625 
Q 33.796875 52.09375 31.5 52.5 
Q 29.203125 52.90625 27.203125 52.90625 
Q 21.296875 52.90625 16.84375 50.75 
Q 12.40625 48.59375 9.453125 44.9375 
Q 6.5 41.296875 5.046875 36.390625 
Q 3.59375 31.5 3.59375 26 
Q 3.59375 20.5 5.09375 15.59375 
Q 6.59375 10.703125 9.546875 7 
Q 12.5 3.296875 16.953125 1.09375 
Q 21.40625 -1.09375 27.40625 -1.09375 
Q 32.796875 -1.09375 37.296875 0.796875 
Q 41.796875 2.703125 43.90625 7 
L 44.09375 7 
L 44.09375 0 
z
" id="HelveticaNeue-100"/>
       <path d="M 20.40625 -19.703125 
L 26.90625 -19.703125 
Q 19.796875 -8.203125 16.75 3.09375 
Q 13.703125 14.40625 13.703125 27 
Q 13.703125 39.296875 16.703125 50.5 
Q 19.703125 61.703125 26.90625 73.09375 
L 20.40625 73.09375 
Q 12.59375 62.796875 8.640625 50.796875 
Q 4.703125 38.796875 4.703125 27 
Q 4.703125 20.40625 5.796875 14.40625 
Q 6.90625 8.40625 8.953125 2.703125 
Q 11 -3 13.890625 -8.546875 
Q 16.796875 -14.09375 20.40625 -19.703125 
z
" id="HelveticaNeue-40"/>
       <path d="M 6.90625 0 
L 15.40625 0 
L 15.40625 51.703125 
L 6.90625 51.703125 
z
M 25.5 77 
L 11.40625 60.796875 
L 5 60.796875 
L 14.59375 77 
z
" id="HelveticaNeue-237"/>
       <path d="M -0.90625 -19.703125 
L 5.5 -19.703125 
Q 13.296875 -9.40625 17.25 2.546875 
Q 21.203125 14.5 21.203125 26.296875 
Q 21.203125 32.90625 20.09375 38.90625 
Q 19 44.90625 16.953125 50.65625 
Q 14.90625 56.40625 12 61.953125 
Q 9.09375 67.5 5.5 73.09375 
L -0.90625 73.09375 
Q 6.09375 61.59375 9.140625 50.25 
Q 12.203125 38.90625 12.203125 26.296875 
Q 12.203125 14.09375 9.203125 2.84375 
Q 6.203125 -8.40625 -0.90625 -19.703125 
z
" id="HelveticaNeue-41"/>
      </defs>
      <use xlink:href="#HelveticaNeue-80"/>
      <use x="64.799988" xlink:href="#HelveticaNeue-114"/>
      <use x="96.349976" xlink:href="#HelveticaNeue-111"/>
      <use x="153.749969" xlink:href="#HelveticaNeue-109"/>
      <use x="239.049957" xlink:href="#HelveticaNeue-101"/>
      <use x="292.749954" xlink:href="#HelveticaNeue-100"/>
      <use x="352.049942" xlink:href="#HelveticaNeue-105"/>
      <use x="374.249939" xlink:href="#HelveticaNeue-111"/>
      <use x="431.649933" xlink:href="#HelveticaNeue-32"/>
      <use x="459.449921" xlink:href="#HelveticaNeue-115"/>
      <use x="509.449905" xlink:href="#HelveticaNeue-101"/>
      <use x="563.149902" xlink:href="#HelveticaNeue-109"/>
      <use x="648.44989" xlink:href="#HelveticaNeue-97"/>
      <use x="702.149887" xlink:href="#HelveticaNeue-110"/>
      <use x="757.749878" xlink:href="#HelveticaNeue-97"/>
      <use x="811.449875" xlink:href="#HelveticaNeue-108"/>
      <use x="833.649872" xlink:href="#HelveticaNeue-32"/>
      <use x="861.44986" xlink:href="#HelveticaNeue-40"/>
      <use x="887.349854" xlink:href="#HelveticaNeue-55"/>
      <use x="942.949844" xlink:href="#HelveticaNeue-32"/>
      <use x="970.749832" xlink:href="#HelveticaNeue-100"/>
      <use x="1030.04982" xlink:href="#HelveticaNeue-237"/>
      <use x="1052.249817" xlink:href="#HelveticaNeue-97"/>
      <use x="1105.949814" xlink:href="#HelveticaNeue-115"/>
      <use x="1155.949799" xlink:href="#HelveticaNeue-41"/>
      <use x="1181.849792" xlink:href="#HelveticaNeue-32"/>
     </g>
    </g>
   </g>
  </g>
 </g>
 <defs>
  <clipPath id="p9a7369a166">
   <rect height="235.5" width="387.5" x="62.5" y="27"/>
  </clipPath>
 </defs>
</svg>
