<?xml version="1.0" encoding="utf-8" standalone="no"?>
<!DOCTYPE svg PUBLIC "-//W3C//DTD SVG 1.1//EN"
  "http://www.w3.org/Graphics/SVG/1.1/DTD/svg11.dtd">
<!-- Created with matplotlib (https://matplotlib.org/) -->
<svg height="300pt" version="1.1" viewBox="0 0 500 300" width="500pt" xmlns="http://www.w3.org/2000/svg" xmlns:xlink="http://www.w3.org/1999/xlink">
 <metadata>
  <rdf:RDF xmlns:cc="http://creativecommons.org/ns#" xmlns:dc="http://purl.org/dc/elements/1.1/" xmlns:rdf="http://www.w3.org/1999/02/22-rdf-syntax-ns#">
   <cc:Work>
    <dc:type rdf:resource="http://purl.org/dc/dcmitype/StillImage"/>
    <dc:date>2021-06-11T19:31:52.764886</dc:date>
    <dc:format>image/svg+xml</dc:format>
    <dc:creator>
     <cc:Agent>
      <dc:title>Matplotlib v3.3.4, https://matplotlib.org/</dc:title>
     </cc:Agent>
    </dc:creator>
   </cc:Work>
  </rdf:RDF>
 </metadata>
 <defs>
  <style type="text/css">*{stroke-linecap:butt;stroke-linejoin:round;}</style>
 </defs>
 <g id="figure_1">
  <g id="patch_1">
   <path d="M 0 300 
L 500 300 
L 500 0 
L 0 0 
z
" style="fill:#ffffff;"/>
  </g>
  <g id="axes_1">
   <g id="patch_2">
    <path d="M 62.5 262.5 
L 450 262.5 
L 450 27 
L 62.5 27 
z
" style="fill:#ffffff;"/>
   </g>
   <g id="matplotlib.axis_1">
    <g id="xtick_1">
     <g id="line2d_1">
      <defs>
       <path d="M 0 0 
L 0 3.5 
" id="me62a3de308" style="stroke:#555555;stroke-width:0.8;"/>
      </defs>
      <g>
       <use style="fill:#555555;stroke:#555555;stroke-width:0.8;" x="62.5" xlink:href="#me62a3de308" y="262.5"/>
      </g>
     </g>
    </g>
    <g id="xtick_2">
     <g id="line2d_2">
      <g>
       <use style="fill:#555555;stroke:#555555;stroke-width:0.8;" x="140.180653" xlink:href="#me62a3de308" y="262.5"/>
      </g>
     </g>
     <g id="text_1">
      <!-- Jul -->
      <g style="fill:#555555;" transform="translate(133.695496 276.640625)scale(0.1 -0.1)">
       <defs>
        <path d="M 44.09375 17.796875 
L 44.09375 71.40625 
L 34.59375 71.40625 
L 34.59375 19.203125 
Q 34.59375 13.296875 32.140625 9.796875 
Q 29.703125 6.296875 23.203125 6.296875 
Q 19.703125 6.296875 17.453125 7.34375 
Q 15.203125 8.40625 13.953125 10.296875 
Q 12.703125 12.203125 12.203125 14.796875 
Q 11.703125 17.40625 11.703125 20.5 
L 11.703125 23.5 
L 2.203125 23.5 
L 2.203125 19.09375 
Q 2.203125 8.90625 7.59375 3.65625 
Q 13 -1.59375 23 -1.59375 
Q 29 -1.59375 33.046875 0.046875 
Q 37.09375 1.703125 39.546875 4.453125 
Q 42 7.203125 43.046875 10.703125 
Q 44.09375 14.203125 44.09375 17.796875 
z
" id="HelveticaNeue-74"/>
        <path d="M 49.203125 0 
L 49.203125 51.703125 
L 40.703125 51.703125 
L 40.703125 22.5 
Q 40.703125 19 39.75 16.046875 
Q 38.796875 13.09375 36.890625 10.890625 
Q 35 8.703125 32.140625 7.5 
Q 29.296875 6.296875 25.40625 6.296875 
Q 20.5 6.296875 17.703125 9.09375 
Q 14.90625 11.90625 14.90625 16.703125 
L 14.90625 51.703125 
L 6.40625 51.703125 
L 6.40625 17.703125 
Q 6.40625 13.5 7.25 10.046875 
Q 8.09375 6.59375 10.1875 4.09375 
Q 12.296875 1.59375 15.6875 0.25 
Q 19.09375 -1.09375 24.203125 -1.09375 
Q 29.90625 -1.09375 34.09375 1.15625 
Q 38.296875 3.40625 41 8.203125 
L 41.203125 8.203125 
L 41.203125 0 
z
" id="HelveticaNeue-117"/>
        <path d="M 6.90625 71.40625 
L 6.90625 0 
L 15.40625 0 
L 15.40625 71.40625 
z
" id="HelveticaNeue-108"/>
       </defs>
       <use xlink:href="#HelveticaNeue-74"/>
       <use x="51.899994" xlink:href="#HelveticaNeue-117"/>
       <use x="107.499985" xlink:href="#HelveticaNeue-108"/>
      </g>
     </g>
    </g>
    <g id="xtick_3">
     <g id="line2d_3">
      <g>
       <use style="fill:#555555;stroke:#555555;stroke-width:0.8;" x="223.280886" xlink:href="#me62a3de308" y="262.5"/>
      </g>
     </g>
     <g id="text_2">
      <!-- Oct -->
      <g style="fill:#555555;" transform="translate(215.22073 276.640625)scale(0.1 -0.1)">
       <defs>
        <path d="M 13.296875 35.703125 
Q 13.296875 41.09375 14.6875 46.34375 
Q 16.09375 51.59375 19.09375 55.796875 
Q 22.09375 60 26.796875 62.546875 
Q 31.5 65.09375 38 65.09375 
Q 44.5 65.09375 49.203125 62.546875 
Q 53.90625 60 56.90625 55.796875 
Q 59.90625 51.59375 61.296875 46.34375 
Q 62.703125 41.09375 62.703125 35.703125 
Q 62.703125 30.296875 61.296875 25.046875 
Q 59.90625 19.796875 56.90625 15.59375 
Q 53.90625 11.40625 49.203125 8.84375 
Q 44.5 6.296875 38 6.296875 
Q 31.5 6.296875 26.796875 8.84375 
Q 22.09375 11.40625 19.09375 15.59375 
Q 16.09375 19.796875 14.6875 25.046875 
Q 13.296875 30.296875 13.296875 35.703125 
z
M 3.796875 35.703125 
Q 3.796875 28.40625 5.9375 21.65625 
Q 8.09375 14.90625 12.390625 9.703125 
Q 16.703125 4.5 23.09375 1.453125 
Q 29.5 -1.59375 38 -1.59375 
Q 46.5 -1.59375 52.890625 1.453125 
Q 59.296875 4.5 63.59375 9.703125 
Q 67.90625 14.90625 70.046875 21.65625 
Q 72.203125 28.40625 72.203125 35.703125 
Q 72.203125 43 70.046875 49.75 
Q 67.90625 56.5 63.59375 61.703125 
Q 59.296875 66.90625 52.890625 70 
Q 46.5 73.09375 38 73.09375 
Q 29.5 73.09375 23.09375 70 
Q 16.703125 66.90625 12.390625 61.703125 
Q 8.09375 56.5 5.9375 49.75 
Q 3.796875 43 3.796875 35.703125 
z
" id="HelveticaNeue-79"/>
        <path d="M 41.5 35.09375 
L 50.296875 35.09375 
Q 49.796875 39.703125 47.890625 43.046875 
Q 46 46.40625 43.046875 48.59375 
Q 40.09375 50.796875 36.25 51.84375 
Q 32.40625 52.90625 28 52.90625 
Q 21.90625 52.90625 17.296875 50.75 
Q 12.703125 48.59375 9.640625 44.84375 
Q 6.59375 41.09375 5.09375 36.046875 
Q 3.59375 31 3.59375 25.203125 
Q 3.59375 19.40625 5.140625 14.546875 
Q 6.703125 9.703125 9.75 6.203125 
Q 12.796875 2.703125 17.34375 0.796875 
Q 21.90625 -1.09375 27.796875 -1.09375 
Q 37.703125 -1.09375 43.453125 4.09375 
Q 49.203125 9.296875 50.59375 18.90625 
L 41.90625 18.90625 
Q 41.09375 12.90625 37.546875 9.59375 
Q 34 6.296875 27.703125 6.296875 
Q 23.703125 6.296875 20.796875 7.890625 
Q 17.90625 9.5 16.09375 12.140625 
Q 14.296875 14.796875 13.4375 18.1875 
Q 12.59375 21.59375 12.59375 25.203125 
Q 12.59375 29.09375 13.390625 32.75 
Q 14.203125 36.40625 16.046875 39.203125 
Q 17.90625 42 21 43.703125 
Q 24.09375 45.40625 28.703125 45.40625 
Q 34.09375 45.40625 37.296875 42.703125 
Q 40.5 40 41.5 35.09375 
z
" id="HelveticaNeue-99"/>
        <path d="M 18.203125 51.703125 
L 18.203125 67.203125 
L 9.703125 67.203125 
L 9.703125 51.703125 
L 0.90625 51.703125 
L 0.90625 44.203125 
L 9.703125 44.203125 
L 9.703125 11.296875 
Q 9.703125 7.703125 10.390625 5.5 
Q 11.09375 3.296875 12.546875 2.09375 
Q 14 0.90625 16.34375 0.453125 
Q 18.703125 0 22 0 
L 28.5 0 
L 28.5 7.5 
L 24.59375 7.5 
Q 22.59375 7.5 21.34375 7.640625 
Q 20.09375 7.796875 19.390625 8.296875 
Q 18.703125 8.796875 18.453125 9.6875 
Q 18.203125 10.59375 18.203125 12.09375 
L 18.203125 44.203125 
L 28.5 44.203125 
L 28.5 51.703125 
z
" id="HelveticaNeue-116"/>
       </defs>
       <use xlink:href="#HelveticaNeue-79"/>
       <use x="75.999985" xlink:href="#HelveticaNeue-99"/>
       <use x="129.699982" xlink:href="#HelveticaNeue-116"/>
      </g>
     </g>
    </g>
    <g id="xtick_4">
     <g id="line2d_4">
      <g>
       <use style="fill:#555555;stroke:#555555;stroke-width:0.8;" x="306.381119" xlink:href="#me62a3de308" y="262.5"/>
      </g>
     </g>
     <g id="text_3">
      <!-- Jan -->
      <g style="fill:#555555;" transform="translate(298.320963 276.640625)scale(0.1 -0.1)">
       <defs>
        <path d="M 52.203125 0.203125 
Q 50 -1.09375 46.09375 -1.09375 
Q 42.796875 -1.09375 40.84375 0.75 
Q 38.90625 2.59375 38.90625 6.796875 
Q 35.40625 2.59375 30.75 0.75 
Q 26.09375 -1.09375 20.703125 -1.09375 
Q 17.203125 -1.09375 14.046875 -0.296875 
Q 10.90625 0.5 8.59375 2.203125 
Q 6.296875 3.90625 4.9375 6.65625 
Q 3.59375 9.40625 3.59375 13.296875 
Q 3.59375 17.703125 5.09375 20.5 
Q 6.59375 23.296875 9.046875 25.046875 
Q 11.5 26.796875 14.640625 27.6875 
Q 17.796875 28.59375 21.09375 29.203125 
Q 24.59375 29.90625 27.75 30.25 
Q 30.90625 30.59375 33.296875 31.25 
Q 35.703125 31.90625 37.09375 33.15625 
Q 38.5 34.40625 38.5 36.796875 
Q 38.5 39.59375 37.453125 41.296875 
Q 36.40625 43 34.75 43.890625 
Q 33.09375 44.796875 31.046875 45.09375 
Q 29 45.40625 27 45.40625 
Q 21.59375 45.40625 18 43.34375 
Q 14.40625 41.296875 14.09375 35.59375 
L 5.59375 35.59375 
Q 5.796875 40.40625 7.59375 43.703125 
Q 9.40625 47 12.40625 49.046875 
Q 15.40625 51.09375 19.25 52 
Q 23.09375 52.90625 27.5 52.90625 
Q 31 52.90625 34.453125 52.40625 
Q 37.90625 51.90625 40.703125 50.34375 
Q 43.5 48.796875 45.203125 46 
Q 46.90625 43.203125 46.90625 38.703125 
L 46.90625 12.09375 
Q 46.90625 9.09375 47.25 7.6875 
Q 47.59375 6.296875 49.59375 6.296875 
Q 50.703125 6.296875 52.203125 6.796875 
z
M 38.40625 26.703125 
Q 36.796875 25.5 34.1875 24.953125 
Q 31.59375 24.40625 28.75 24.046875 
Q 25.90625 23.703125 23 23.25 
Q 20.09375 22.796875 17.796875 21.796875 
Q 15.5 20.796875 14.046875 18.9375 
Q 12.59375 17.09375 12.59375 13.90625 
Q 12.59375 11.796875 13.4375 10.34375 
Q 14.296875 8.90625 15.640625 8 
Q 17 7.09375 18.796875 6.6875 
Q 20.59375 6.296875 22.59375 6.296875 
Q 26.796875 6.296875 29.796875 7.4375 
Q 32.796875 8.59375 34.6875 10.34375 
Q 36.59375 12.09375 37.5 14.140625 
Q 38.40625 16.203125 38.40625 18 
z
" id="HelveticaNeue-97"/>
        <path d="M 6.40625 51.703125 
L 6.40625 0 
L 14.90625 0 
L 14.90625 29.203125 
Q 14.90625 32.703125 15.84375 35.640625 
Q 16.796875 38.59375 18.6875 40.796875 
Q 20.59375 43 23.4375 44.203125 
Q 26.296875 45.40625 30.203125 45.40625 
Q 35.09375 45.40625 37.890625 42.59375 
Q 40.703125 39.796875 40.703125 35 
L 40.703125 0 
L 49.203125 0 
L 49.203125 34 
Q 49.203125 38.203125 48.34375 41.640625 
Q 47.5 45.09375 45.390625 47.59375 
Q 43.296875 50.09375 39.890625 51.5 
Q 36.5 52.90625 31.40625 52.90625 
Q 19.90625 52.90625 14.59375 43.5 
L 14.40625 43.5 
L 14.40625 51.703125 
z
" id="HelveticaNeue-110"/>
       </defs>
       <use xlink:href="#HelveticaNeue-74"/>
       <use x="51.899994" xlink:href="#HelveticaNeue-97"/>
       <use x="105.599991" xlink:href="#HelveticaNeue-110"/>
      </g>
      <!-- 2021 -->
      <g style="fill:#555555;" transform="translate(295.262369 287.179688)scale(0.1 -0.1)">
       <defs>
        <path d="M 4.40625 45.796875 
L 12.90625 45.796875 
Q 12.796875 49 13.546875 52.140625 
Q 14.296875 55.296875 16 57.796875 
Q 17.703125 60.296875 20.34375 61.84375 
Q 23 63.40625 26.703125 63.40625 
Q 29.5 63.40625 32 62.5 
Q 34.5 61.59375 36.34375 59.890625 
Q 38.203125 58.203125 39.296875 55.84375 
Q 40.40625 53.5 40.40625 50.59375 
Q 40.40625 46.90625 39.25 44.09375 
Q 38.09375 41.296875 35.84375 38.890625 
Q 33.59375 36.5 30.1875 34.140625 
Q 26.796875 31.796875 22.296875 29 
Q 18.59375 26.796875 15.1875 24.296875 
Q 11.796875 21.796875 9.09375 18.5 
Q 6.40625 15.203125 4.65625 10.75 
Q 2.90625 6.296875 2.40625 0 
L 48.703125 0 
L 48.703125 7.5 
L 12.296875 7.5 
Q 12.90625 10.796875 14.84375 13.34375 
Q 16.796875 15.90625 19.546875 18.09375 
Q 22.296875 20.296875 25.59375 22.25 
Q 28.90625 24.203125 32.203125 26.203125 
Q 35.5 28.296875 38.59375 30.59375 
Q 41.703125 32.90625 44.09375 35.75 
Q 46.5 38.59375 47.953125 42.1875 
Q 49.40625 45.796875 49.40625 50.5 
Q 49.40625 55.5 47.65625 59.296875 
Q 45.90625 63.09375 42.90625 65.640625 
Q 39.90625 68.203125 35.84375 69.546875 
Q 31.796875 70.90625 27.203125 70.90625 
Q 21.59375 70.90625 17.1875 69 
Q 12.796875 67.09375 9.84375 63.75 
Q 6.90625 60.40625 5.5 55.796875 
Q 4.09375 51.203125 4.40625 45.796875 
z
" id="HelveticaNeue-50"/>
        <path d="M 13.203125 34.90625 
Q 13.203125 37.5 13.25 40.640625 
Q 13.296875 43.796875 13.75 46.9375 
Q 14.203125 50.09375 15.046875 53.09375 
Q 15.90625 56.09375 17.546875 58.34375 
Q 19.203125 60.59375 21.703125 62 
Q 24.203125 63.40625 27.796875 63.40625 
Q 31.40625 63.40625 33.90625 62 
Q 36.40625 60.59375 38.046875 58.34375 
Q 39.703125 56.09375 40.546875 53.09375 
Q 41.40625 50.09375 41.84375 46.9375 
Q 42.296875 43.796875 42.34375 40.640625 
Q 42.40625 37.5 42.40625 34.90625 
Q 42.40625 30.90625 42.15625 25.953125 
Q 41.90625 21 40.546875 16.640625 
Q 39.203125 12.296875 36.203125 9.296875 
Q 33.203125 6.296875 27.796875 6.296875 
Q 22.40625 6.296875 19.40625 9.296875 
Q 16.40625 12.296875 15.046875 16.640625 
Q 13.703125 21 13.453125 25.953125 
Q 13.203125 30.90625 13.203125 34.90625 
z
M 4.203125 34.796875 
Q 4.203125 30.90625 4.390625 26.703125 
Q 4.59375 22.5 5.390625 18.5 
Q 6.203125 14.5 7.703125 10.953125 
Q 9.203125 7.40625 11.796875 4.703125 
Q 14.40625 2 18.34375 0.453125 
Q 22.296875 -1.09375 27.796875 -1.09375 
Q 33.40625 -1.09375 37.296875 0.453125 
Q 41.203125 2 43.796875 4.703125 
Q 46.40625 7.40625 47.90625 10.953125 
Q 49.40625 14.5 50.203125 18.5 
Q 51 22.5 51.203125 26.703125 
Q 51.40625 30.90625 51.40625 34.796875 
Q 51.40625 38.703125 51.203125 42.890625 
Q 51 47.09375 50.203125 51.09375 
Q 49.40625 55.09375 47.90625 58.6875 
Q 46.40625 62.296875 43.796875 65 
Q 41.203125 67.703125 37.25 69.296875 
Q 33.296875 70.90625 27.796875 70.90625 
Q 22.296875 70.90625 18.34375 69.296875 
Q 14.40625 67.703125 11.796875 65 
Q 9.203125 62.296875 7.703125 58.6875 
Q 6.203125 55.09375 5.390625 51.09375 
Q 4.59375 47.09375 4.390625 42.890625 
Q 4.203125 38.703125 4.203125 34.796875 
z
" id="HelveticaNeue-48"/>
        <path d="M 35.59375 0 
L 35.59375 70.90625 
L 29.09375 70.90625 
Q 28.40625 66.90625 26.5 64.296875 
Q 24.59375 61.703125 21.84375 60.203125 
Q 19.09375 58.703125 15.6875 58.140625 
Q 12.296875 57.59375 8.703125 57.59375 
L 8.703125 50.796875 
L 27.09375 50.796875 
L 27.09375 0 
z
" id="HelveticaNeue-49"/>
       </defs>
       <use xlink:href="#HelveticaNeue-50"/>
       <use x="55.599991" xlink:href="#HelveticaNeue-48"/>
       <use x="111.199982" xlink:href="#HelveticaNeue-50"/>
       <use x="166.799973" xlink:href="#HelveticaNeue-49"/>
      </g>
     </g>
    </g>
    <g id="xtick_5">
     <g id="line2d_5">
      <g>
       <use style="fill:#555555;stroke:#555555;stroke-width:0.8;" x="387.674825" xlink:href="#me62a3de308" y="262.5"/>
      </g>
     </g>
     <g id="text_4">
      <!-- Apr -->
      <g style="fill:#555555;" transform="translate(379.805294 276.640625)scale(0.1 -0.1)">
       <defs>
        <path d="M 20.09375 29.5 
L 32.203125 62.796875 
L 32.40625 62.796875 
L 44.296875 29.5 
z
M 27.203125 71.40625 
L -0.59375 0 
L 9.09375 0 
L 17.09375 21.5 
L 47.296875 21.5 
L 55.09375 0 
L 65.59375 0 
L 37.703125 71.40625 
z
" id="HelveticaNeue-65"/>
        <path d="M 6.703125 51.703125 
L 6.703125 -19.703125 
L 15.203125 -19.703125 
L 15.203125 6.90625 
L 15.40625 6.90625 
Q 16.796875 4.59375 18.84375 3.046875 
Q 20.90625 1.5 23.203125 0.59375 
Q 25.5 -0.296875 27.84375 -0.6875 
Q 30.203125 -1.09375 32.09375 -1.09375 
Q 38 -1.09375 42.453125 1 
Q 46.90625 3.09375 49.84375 6.75 
Q 52.796875 10.40625 54.25 15.296875 
Q 55.703125 20.203125 55.703125 25.703125 
Q 55.703125 31.203125 54.203125 36.09375 
Q 52.703125 41 49.75 44.75 
Q 46.796875 48.5 42.34375 50.703125 
Q 37.90625 52.90625 31.90625 52.90625 
Q 26.5 52.90625 22 50.953125 
Q 17.5 49 15.40625 44.703125 
L 15.203125 44.703125 
L 15.203125 51.703125 
z
M 46.703125 26.296875 
Q 46.703125 22.5 45.890625 18.890625 
Q 45.09375 15.296875 43.296875 12.5 
Q 41.5 9.703125 38.546875 8 
Q 35.59375 6.296875 31.203125 6.296875 
Q 26.796875 6.296875 23.6875 7.9375 
Q 20.59375 9.59375 18.640625 12.296875 
Q 16.703125 15 15.796875 18.546875 
Q 14.90625 22.09375 14.90625 25.90625 
Q 14.90625 29.5 15.75 33 
Q 16.59375 36.5 18.5 39.25 
Q 20.40625 42 23.40625 43.703125 
Q 26.40625 45.40625 30.703125 45.40625 
Q 34.796875 45.40625 37.84375 43.796875 
Q 40.90625 42.203125 42.84375 39.5 
Q 44.796875 36.796875 45.75 33.34375 
Q 46.703125 29.90625 46.703125 26.296875 
z
" id="HelveticaNeue-112"/>
        <path d="M 6.09375 51.703125 
L 6.09375 0 
L 14.59375 0 
L 14.59375 23 
Q 14.59375 28 15.59375 31.84375 
Q 16.59375 35.703125 18.796875 38.390625 
Q 21 41.09375 24.59375 42.5 
Q 28.203125 43.90625 33.296875 43.90625 
L 33.296875 52.90625 
Q 26.40625 53.09375 21.90625 50.09375 
Q 17.40625 47.09375 14.296875 40.796875 
L 14.09375 40.796875 
L 14.09375 51.703125 
z
" id="HelveticaNeue-114"/>
       </defs>
       <use xlink:href="#HelveticaNeue-65"/>
       <use x="64.799988" xlink:href="#HelveticaNeue-112"/>
       <use x="124.099976" xlink:href="#HelveticaNeue-114"/>
      </g>
     </g>
    </g>
    <g id="xtick_6">
     <g id="line2d_6">
      <g>
       <use style="fill:#555555;stroke:#555555;stroke-width:0.8;" x="450" xlink:href="#me62a3de308" y="262.5"/>
      </g>
     </g>
    </g>
    <g id="xtick_7">
     <g id="line2d_7">
      <defs>
       <path d="M 0 0 
L 0 2 
" id="ma11c2ca564" style="stroke:#555555;stroke-width:0.6;"/>
      </defs>
      <g>
       <use style="fill:#555555;stroke:#555555;stroke-width:0.6;" x="85.081585" xlink:href="#ma11c2ca564" y="262.5"/>
      </g>
     </g>
    </g>
    <g id="xtick_8">
     <g id="line2d_8">
      <g>
       <use style="fill:#555555;stroke:#555555;stroke-width:0.6;" x="113.082751" xlink:href="#ma11c2ca564" y="262.5"/>
      </g>
     </g>
    </g>
    <g id="xtick_9">
     <g id="line2d_9">
      <g>
       <use style="fill:#555555;stroke:#555555;stroke-width:0.6;" x="168.181818" xlink:href="#ma11c2ca564" y="262.5"/>
      </g>
     </g>
    </g>
    <g id="xtick_10">
     <g id="line2d_10">
      <g>
       <use style="fill:#555555;stroke:#555555;stroke-width:0.6;" x="196.182984" xlink:href="#ma11c2ca564" y="262.5"/>
      </g>
     </g>
    </g>
    <g id="xtick_11">
     <g id="line2d_11">
      <g>
       <use style="fill:#555555;stroke:#555555;stroke-width:0.6;" x="251.282051" xlink:href="#ma11c2ca564" y="262.5"/>
      </g>
     </g>
    </g>
    <g id="xtick_12">
     <g id="line2d_12">
      <g>
       <use style="fill:#555555;stroke:#555555;stroke-width:0.6;" x="278.379953" xlink:href="#ma11c2ca564" y="262.5"/>
      </g>
     </g>
    </g>
    <g id="xtick_13">
     <g id="line2d_13">
      <g>
       <use style="fill:#555555;stroke:#555555;stroke-width:0.6;" x="334.382284" xlink:href="#ma11c2ca564" y="262.5"/>
      </g>
     </g>
    </g>
    <g id="xtick_14">
     <g id="line2d_14">
      <g>
       <use style="fill:#555555;stroke:#555555;stroke-width:0.6;" x="359.67366" xlink:href="#ma11c2ca564" y="262.5"/>
      </g>
     </g>
    </g>
    <g id="xtick_15">
     <g id="line2d_15">
      <g>
       <use style="fill:#555555;stroke:#555555;stroke-width:0.6;" x="414.772727" xlink:href="#ma11c2ca564" y="262.5"/>
      </g>
     </g>
    </g>
    <g id="xtick_16">
     <g id="line2d_16">
      <g>
       <use style="fill:#555555;stroke:#555555;stroke-width:0.6;" x="442.773893" xlink:href="#ma11c2ca564" y="262.5"/>
      </g>
     </g>
    </g>
    <g id="text_5">
     <!-- fecha -->
     <g style="fill:#555555;" transform="translate(243.935156 300.290625)scale(0.1 -0.1)">
      <defs>
       <path d="M 9.90625 44.203125 
L 9.90625 0 
L 18.40625 0 
L 18.40625 44.203125 
L 28.40625 44.203125 
L 28.40625 51.703125 
L 18.40625 51.703125 
L 18.40625 58.90625 
Q 18.40625 62.296875 20.09375 63.5 
Q 21.796875 64.703125 24.90625 64.703125 
Q 26 64.703125 27.296875 64.546875 
Q 28.59375 64.40625 29.703125 64 
L 29.703125 71.40625 
Q 28.5 71.796875 26.953125 72 
Q 25.40625 72.203125 24.203125 72.203125 
Q 17.203125 72.203125 13.546875 68.953125 
Q 9.90625 65.703125 9.90625 59.40625 
L 9.90625 51.703125 
L 1.203125 51.703125 
L 1.203125 44.203125 
z
" id="HelveticaNeue-102"/>
       <path d="M 42.296875 30.796875 
L 12.59375 30.796875 
Q 12.796875 33.796875 13.890625 36.4375 
Q 15 39.09375 16.890625 41.09375 
Q 18.796875 43.09375 21.4375 44.25 
Q 24.09375 45.40625 27.40625 45.40625 
Q 30.59375 45.40625 33.25 44.25 
Q 35.90625 43.09375 37.84375 41.140625 
Q 39.796875 39.203125 40.9375 36.5 
Q 42.09375 33.796875 42.296875 30.796875 
z
M 50.5 16.40625 
L 42.09375 16.40625 
Q 41 11.296875 37.546875 8.796875 
Q 34.09375 6.296875 28.703125 6.296875 
Q 24.5 6.296875 21.390625 7.6875 
Q 18.296875 9.09375 16.296875 11.4375 
Q 14.296875 13.796875 13.390625 16.84375 
Q 12.5 19.90625 12.59375 23.296875 
L 51.296875 23.296875 
Q 51.5 28 50.453125 33.203125 
Q 49.40625 38.40625 46.65625 42.796875 
Q 43.90625 47.203125 39.34375 50.046875 
Q 34.796875 52.90625 27.90625 52.90625 
Q 22.59375 52.90625 18.140625 50.90625 
Q 13.703125 48.90625 10.453125 45.296875 
Q 7.203125 41.703125 5.390625 36.796875 
Q 3.59375 31.90625 3.59375 26 
Q 3.796875 20.09375 5.34375 15.09375 
Q 6.90625 10.09375 10 6.5 
Q 13.09375 2.90625 17.640625 0.90625 
Q 22.203125 -1.09375 28.40625 -1.09375 
Q 37.203125 -1.09375 43 3.296875 
Q 48.796875 7.703125 50.5 16.40625 
z
" id="HelveticaNeue-101"/>
       <path d="M 6.40625 71.40625 
L 6.40625 0 
L 14.90625 0 
L 14.90625 29.203125 
Q 14.90625 32.703125 15.84375 35.640625 
Q 16.796875 38.59375 18.6875 40.796875 
Q 20.59375 43 23.4375 44.203125 
Q 26.296875 45.40625 30.203125 45.40625 
Q 35.09375 45.40625 37.890625 42.59375 
Q 40.703125 39.796875 40.703125 35 
L 40.703125 0 
L 49.203125 0 
L 49.203125 34 
Q 49.203125 38.203125 48.34375 41.640625 
Q 47.5 45.09375 45.390625 47.59375 
Q 43.296875 50.09375 39.890625 51.5 
Q 36.5 52.90625 31.40625 52.90625 
Q 29.09375 52.90625 26.640625 52.40625 
Q 24.203125 51.90625 21.953125 50.84375 
Q 19.703125 49.796875 17.890625 48.140625 
Q 16.09375 46.5 15.09375 44.09375 
L 14.90625 44.09375 
L 14.90625 71.40625 
z
" id="HelveticaNeue-104"/>
      </defs>
      <use xlink:href="#HelveticaNeue-102"/>
      <use x="29.599991" xlink:href="#HelveticaNeue-101"/>
      <use x="83.299988" xlink:href="#HelveticaNeue-99"/>
      <use x="136.999985" xlink:href="#HelveticaNeue-104"/>
      <use x="192.599976" xlink:href="#HelveticaNeue-97"/>
     </g>
    </g>
   </g>
   <g id="matplotlib.axis_2">
    <g id="ytick_1">
     <g id="line2d_17">
      <defs>
       <path d="M 0 0 
L -3.5 0 
" id="mdf17962900" style="stroke:#555555;stroke-width:0.8;"/>
      </defs>
      <g>
       <use style="fill:#555555;stroke:#555555;stroke-width:0.8;" x="62.5" xlink:href="#mdf17962900" y="251.795455"/>
      </g>
     </g>
     <g id="text_6">
      <!-- 0 -->
      <g style="fill:#555555;" transform="translate(49.940625 255.365767)scale(0.1 -0.1)">
       <use xlink:href="#HelveticaNeue-48"/>
      </g>
     </g>
    </g>
    <g id="ytick_2">
     <g id="line2d_18">
      <g>
       <use style="fill:#555555;stroke:#555555;stroke-width:0.8;" x="62.5" xlink:href="#mdf17962900" y="202.351827"/>
      </g>
     </g>
     <g id="text_7">
      <!-- 100 -->
      <g style="fill:#555555;" transform="translate(38.821875 205.922139)scale(0.1 -0.1)">
       <use xlink:href="#HelveticaNeue-49"/>
       <use x="55.599991" xlink:href="#HelveticaNeue-48"/>
       <use x="111.199982" xlink:href="#HelveticaNeue-48"/>
      </g>
     </g>
    </g>
    <g id="ytick_3">
     <g id="line2d_19">
      <g>
       <use style="fill:#555555;stroke:#555555;stroke-width:0.8;" x="62.5" xlink:href="#mdf17962900" y="152.908199"/>
      </g>
     </g>
     <g id="text_8">
      <!-- 200 -->
      <g style="fill:#555555;" transform="translate(38.821875 156.478511)scale(0.1 -0.1)">
       <use xlink:href="#HelveticaNeue-50"/>
       <use x="55.599991" xlink:href="#HelveticaNeue-48"/>
       <use x="111.199982" xlink:href="#HelveticaNeue-48"/>
      </g>
     </g>
    </g>
    <g id="ytick_4">
     <g id="line2d_20">
      <g>
       <use style="fill:#555555;stroke:#555555;stroke-width:0.8;" x="62.5" xlink:href="#mdf17962900" y="103.464571"/>
      </g>
     </g>
     <g id="text_9">
      <!-- 300 -->
      <g style="fill:#555555;" transform="translate(38.821875 107.034883)scale(0.1 -0.1)">
       <defs>
        <path d="M 21.796875 40.5 
L 21.796875 33.296875 
Q 24.203125 33.59375 26.90625 33.59375 
Q 30.09375 33.59375 32.84375 32.75 
Q 35.59375 31.90625 37.59375 30.15625 
Q 39.59375 28.40625 40.796875 25.84375 
Q 42 23.296875 42 20 
Q 42 16.796875 40.75 14.25 
Q 39.5 11.703125 37.390625 9.953125 
Q 35.296875 8.203125 32.5 7.25 
Q 29.703125 6.296875 26.59375 6.296875 
Q 19.296875 6.296875 15.5 10.640625 
Q 11.703125 15 11.5 21.90625 
L 3 21.90625 
Q 2.90625 16.40625 4.546875 12.09375 
Q 6.203125 7.796875 9.296875 4.84375 
Q 12.40625 1.90625 16.796875 0.40625 
Q 21.203125 -1.09375 26.59375 -1.09375 
Q 31.59375 -1.09375 36.046875 0.25 
Q 40.5 1.59375 43.796875 4.296875 
Q 47.09375 7 49.046875 11.046875 
Q 51 15.09375 51 20.40625 
Q 51 26.796875 47.84375 31.5 
Q 44.703125 36.203125 38.203125 37.59375 
L 38.203125 37.796875 
Q 42.40625 39.703125 45.203125 43.390625 
Q 48 47.09375 48 51.90625 
Q 48 56.796875 46.34375 60.390625 
Q 44.703125 64 41.796875 66.296875 
Q 38.90625 68.59375 34.953125 69.75 
Q 31 70.90625 26.40625 70.90625 
Q 21.09375 70.90625 17.046875 69.203125 
Q 13 67.5 10.296875 64.5 
Q 7.59375 61.5 6.140625 57.296875 
Q 4.703125 53.09375 4.5 48 
L 13 48 
Q 13 51.09375 13.796875 53.890625 
Q 14.59375 56.703125 16.25 58.796875 
Q 17.90625 60.90625 20.453125 62.15625 
Q 23 63.40625 26.40625 63.40625 
Q 31.796875 63.40625 35.390625 60.546875 
Q 39 57.703125 39 52 
Q 39 49.203125 37.890625 47 
Q 36.796875 44.796875 34.9375 43.34375 
Q 33.09375 41.90625 30.640625 41.15625 
Q 28.203125 40.40625 25.5 40.40625 
L 23.703125 40.40625 
Q 23.203125 40.40625 22.703125 40.40625 
Q 22.296875 40.40625 21.796875 40.5 
z
" id="HelveticaNeue-51"/>
       </defs>
       <use xlink:href="#HelveticaNeue-51"/>
       <use x="55.599991" xlink:href="#HelveticaNeue-48"/>
       <use x="111.199982" xlink:href="#HelveticaNeue-48"/>
      </g>
     </g>
    </g>
    <g id="ytick_5">
     <g id="line2d_21">
      <g>
       <use style="fill:#555555;stroke:#555555;stroke-width:0.8;" x="62.5" xlink:href="#mdf17962900" y="54.020943"/>
      </g>
     </g>
     <g id="text_10">
      <!-- 400 -->
      <g style="fill:#555555;" transform="translate(38.821875 57.591255)scale(0.1 -0.1)">
       <defs>
        <path d="M 33.90625 24.09375 
L 10.09375 24.09375 
L 33.703125 58.796875 
L 33.90625 58.796875 
z
M 41.90625 24.09375 
L 41.90625 70.90625 
L 35.09375 70.90625 
L 2.796875 24.796875 
L 2.796875 16.59375 
L 33.90625 16.59375 
L 33.90625 0 
L 41.90625 0 
L 41.90625 16.59375 
L 51.5 16.59375 
L 51.5 24.09375 
z
" id="HelveticaNeue-52"/>
       </defs>
       <use xlink:href="#HelveticaNeue-52"/>
       <use x="55.599991" xlink:href="#HelveticaNeue-48"/>
       <use x="111.199982" xlink:href="#HelveticaNeue-48"/>
      </g>
     </g>
    </g>
   </g>
   <g id="line2d_22">
    <path clip-path="url(#p85f5e0827d)" d="M 63.403263 250.806582 
L 64.306527 249.817709 
L 65.20979 251.301018 
L 66.113054 251.795455 
L 67.91958 251.795455 
L 68.822844 250.806582 
L 69.726107 250.806582 
L 70.629371 249.817709 
L 71.532634 251.301018 
L 72.435897 249.323273 
L 73.339161 248.828837 
L 74.242424 248.828837 
L 75.145688 250.806582 
L 76.048951 251.301018 
L 76.952214 250.806582 
L 77.855478 249.323273 
L 78.758741 249.817709 
L 79.662005 248.828837 
L 80.565268 245.862219 
L 81.468531 251.301018 
L 82.371795 248.334401 
L 83.275058 250.806582 
L 84.178322 249.817709 
L 85.081585 249.323273 
L 85.984848 248.334401 
L 86.888112 247.839964 
L 87.791375 250.312146 
L 88.694639 247.345528 
L 89.597902 249.323273 
L 90.501166 237.951239 
L 91.404429 247.345528 
L 92.307692 250.806582 
L 93.210956 250.312146 
L 94.114219 246.356655 
L 95.017483 249.323273 
L 95.920746 248.334401 
L 96.824009 247.839964 
L 97.727273 243.884474 
L 98.630536 248.828837 
L 99.5338 245.367783 
L 100.437063 249.817709 
L 101.340326 244.37891 
L 102.24359 243.390038 
L 103.146853 249.323273 
L 104.050117 239.928984 
L 105.856643 250.806582 
L 106.759907 243.390038 
L 107.66317 248.828837 
L 108.566434 239.434548 
L 109.469697 234.490185 
L 110.37296 239.928984 
L 111.276224 243.390038 
L 112.179487 240.42342 
L 113.082751 243.884474 
L 113.986014 240.917856 
L 114.889277 237.456802 
L 115.792541 241.412293 
L 116.695804 242.401165 
L 117.599068 241.906729 
L 118.502331 244.873347 
L 119.405594 242.895602 
L 120.308858 232.018003 
L 121.212121 242.401165 
L 122.115385 246.356655 
L 123.018648 240.917856 
L 123.921911 238.940111 
L 124.825175 244.37891 
L 125.728438 244.37891 
L 126.631702 239.434548 
L 127.534965 226.084768 
L 128.438228 223.612587 
L 129.341492 229.051386 
L 130.244755 211.746116 
L 131.148019 223.11815 
L 132.051282 225.095895 
L 132.954545 230.040258 
L 133.857809 213.229425 
L 134.761072 233.501312 
L 135.664336 207.790626 
L 136.567599 217.679351 
L 137.470862 207.790626 
L 138.374126 224.601459 
L 139.277389 192.957537 
L 140.180653 193.94641 
L 141.083916 217.184915 
L 141.987179 216.690479 
L 142.890443 204.824008 
L 143.793706 199.385209 
L 144.69697 208.285062 
L 145.600233 191.474228 
L 146.503497 195.429719 
L 147.40676 200.868518 
L 148.310023 202.351827 
L 149.213287 209.768371 
L 150.11655 185.046557 
L 151.019814 200.374081 
L 151.923077 174.663395 
L 152.82634 165.269106 
L 153.729604 160.819179 
L 154.632867 176.146704 
L 155.536131 179.113321 
L 156.439394 193.451974 
L 157.342657 189.99092 
L 158.245921 145.986091 
L 159.149184 162.796924 
L 160.052448 209.768371 
L 160.955711 123.242022 
L 161.858974 171.202341 
L 162.762238 179.607758 
L 163.665501 153.402635 
L 164.568765 141.536164 
L 165.472028 175.652267 
L 166.375291 143.513909 
L 167.278555 157.852561 
L 168.181818 144.997218 
L 169.085082 183.563248 
L 169.988345 161.808052 
L 170.891608 136.097365 
L 171.794872 150.436017 
L 172.698135 181.585503 
L 173.601399 182.079939 
L 174.504662 189.496483 
L 175.407925 198.396336 
L 176.311189 123.736458 
L 177.214452 147.963836 
L 178.117716 156.369253 
L 179.020979 149.941581 
L 179.924242 184.057684 
L 180.827506 154.885944 
L 181.730769 166.752414 
L 182.634033 163.785797 
L 183.537296 115.331041 
L 184.440559 166.257978 
L 185.343823 167.741287 
L 186.247086 179.113321 
L 187.15035 168.73016 
L 188.053613 132.141875 
L 188.956876 173.674522 
L 189.86014 182.079939 
L 190.763403 200.868518 
L 191.666667 199.879645 
L 192.56993 172.191214 
L 193.473193 185.046557 
L 194.376457 189.99092 
L 195.27972 172.68565 
L 196.182984 167.741287 
L 197.086247 194.935282 
L 197.98951 176.64114 
L 198.892774 208.285062 
L 199.796037 79.731629 
L 200.699301 236.962366 
L 201.602564 176.64114 
L 203.409091 207.296189 
L 204.312354 165.763542 
L 205.215618 208.779498 
L 206.118881 197.9019 
L 207.022145 196.913028 
L 207.925408 212.734988 
L 208.828671 175.652267 
L 209.731935 208.779498 
L 210.635198 205.812881 
L 211.538462 178.124449 
L 212.441725 204.824008 
L 213.344988 216.690479 
L 214.248252 226.579204 
L 215.151515 212.734988 
L 216.054779 201.362954 
L 216.958042 200.374081 
L 217.861305 189.002047 
L 218.764569 230.534695 
L 219.667832 225.590332 
L 220.571096 218.668224 
L 221.474359 210.262807 
L 222.377622 215.701606 
L 223.280886 222.623714 
L 224.184149 189.99092 
L 225.087413 219.657096 
L 225.990676 210.757243 
L 226.893939 231.523567 
L 227.797203 207.790626 
L 228.700466 222.623714 
L 229.60373 196.418591 
L 230.506993 213.229425 
L 231.410256 206.801753 
L 232.31352 229.051386 
L 233.216783 234.984621 
L 234.120047 234.490185 
L 235.02331 229.545822 
L 235.926573 203.835135 
L 236.829837 200.374081 
L 237.7331 229.545822 
L 238.636364 211.746116 
L 239.539627 210.262807 
L 240.44289 221.634841 
L 241.346154 214.218297 
L 242.249417 205.318444 
L 243.152681 209.273934 
L 244.055944 219.16266 
L 244.959207 222.623714 
L 245.862471 208.285062 
L 246.765734 215.20717 
L 247.668998 200.374081 
L 248.572261 203.835135 
L 250.378788 219.657096 
L 251.282051 217.184915 
L 252.185315 223.11815 
L 253.088578 212.734988 
L 253.991841 211.25168 
L 254.895105 212.240552 
L 255.798368 220.645969 
L 256.701632 219.16266 
L 257.604895 216.690479 
L 258.508159 223.612587 
L 259.411422 219.657096 
L 260.314685 210.757243 
L 261.217949 214.712734 
L 262.121212 229.051386 
L 263.024476 227.568077 
L 263.927739 233.006876 
L 264.831002 214.218297 
L 265.734266 204.329572 
L 266.637529 209.273934 
L 267.540793 210.262807 
L 268.444056 214.712734 
L 269.347319 216.690479 
L 270.250583 228.556949 
L 272.05711 198.890773 
L 272.960373 189.99092 
L 273.863636 196.913028 
L 274.7669 185.540993 
L 275.670163 212.240552 
L 276.573427 206.307317 
L 277.47669 212.240552 
L 278.379953 196.418591 
L 280.18648 218.173788 
L 281.089744 194.440846 
L 281.993007 209.768371 
L 282.89627 218.173788 
L 283.799534 197.9019 
L 284.702797 207.296189 
L 285.606061 192.957537 
L 286.509324 200.374081 
L 287.412587 191.474228 
L 288.315851 171.696777 
L 289.219114 208.779498 
L 290.122378 212.734988 
L 291.025641 177.135576 
L 291.928904 147.4694 
L 292.832168 187.518738 
L 293.735431 181.091067 
L 294.638695 187.024302 
L 295.541958 199.879645 
L 296.445221 206.307317 
L 297.348485 150.436017 
L 298.251748 186.035429 
L 299.155012 170.213468 
L 300.058275 200.374081 
L 300.961538 195.924155 
L 301.864802 187.024302 
L 302.768065 183.563248 
L 303.671329 148.458272 
L 304.574592 145.491654 
L 305.477855 170.213468 
L 306.381119 212.734988 
L 307.284382 189.002047 
L 308.187646 158.841434 
L 309.090909 163.785797 
L 309.994172 133.625184 
L 310.897436 115.331041 
L 311.800699 123.736458 
L 312.703963 120.76984 
L 313.607226 178.618885 
L 314.51049 189.99092 
L 315.413753 182.079939 
L 316.317016 103.959007 
L 318.123543 162.302488 
L 319.026807 130.658566 
L 319.93007 142.525037 
L 320.833333 111.375551 
L 321.736597 165.763542 
L 322.63986 133.130747 
L 323.543124 139.558419 
L 324.446387 121.264277 
L 325.34965 116.319914 
L 326.252914 158.841434 
L 327.156177 159.830307 
L 328.059441 138.569547 
L 328.962704 163.785797 
L 329.865967 110.386679 
L 330.769231 180.59663 
L 331.672494 208.779498 
L 332.575758 196.913028 
L 333.479021 177.135576 
L 336.188811 213.229425 
L 337.092075 200.868518 
L 337.995338 220.151533 
L 338.898601 228.556949 
L 339.801865 229.051386 
L 340.705128 221.140405 
L 341.608392 205.318444 
L 342.511655 221.634841 
L 343.414918 225.590332 
L 344.318182 220.645969 
L 346.124709 225.590332 
L 347.027972 227.073641 
L 347.931235 224.601459 
L 348.834499 224.107023 
L 349.737762 228.062513 
L 350.641026 224.601459 
L 352.447552 235.479057 
L 353.350816 235.973494 
L 354.254079 233.006876 
L 355.157343 225.590332 
L 356.060606 229.051386 
L 356.963869 234.490185 
L 357.867133 238.445675 
L 358.770396 230.040258 
L 359.67366 236.962366 
L 360.576923 234.490185 
L 361.480186 235.973494 
L 362.38345 233.995748 
L 363.286713 233.995748 
L 364.189977 240.42342 
L 365.09324 236.962366 
L 365.996503 235.479057 
L 366.899767 242.401165 
L 367.80303 235.973494 
L 368.706294 232.51244 
L 369.609557 226.579204 
L 370.512821 238.445675 
L 371.416084 236.962366 
L 373.222611 237.951239 
L 374.125874 236.46793 
L 375.029138 239.928984 
L 375.932401 237.951239 
L 376.835664 231.523567 
L 377.738928 239.928984 
L 378.642191 233.006876 
L 379.545455 228.062513 
L 380.448718 235.973494 
L 381.351981 224.601459 
L 382.255245 223.612587 
L 383.158508 227.073641 
L 384.061772 232.018003 
L 384.965035 226.084768 
L 385.868298 227.568077 
L 386.771562 212.734988 
L 387.674825 222.623714 
L 388.578089 224.601459 
L 389.481352 223.612587 
L 390.384615 226.084768 
L 391.287879 220.645969 
L 392.191142 186.529866 
L 393.094406 206.801753 
L 393.997669 208.779498 
L 394.900932 191.474228 
L 395.804196 192.957537 
L 396.707459 217.679351 
L 397.610723 164.774669 
L 398.513986 176.64114 
L 399.417249 142.525037 
L 400.320513 196.913028 
L 401.223776 173.180086 
L 402.12704 195.924155 
L 403.030303 200.868518 
L 403.933566 114.342169 
L 404.83683 155.874816 
L 405.740093 174.168959 
L 406.643357 163.785797 
L 407.54662 164.774669 
L 408.449883 184.057684 
L 409.353147 209.273934 
L 410.25641 149.941581 
L 411.159674 121.264277 
L 412.062937 194.440846 
L 412.9662 152.908199 
L 413.869464 162.302488 
L 414.772727 173.674522 
L 415.675991 158.346998 
L 416.579254 158.841434 
L 417.482517 162.302488 
L 418.385781 186.529866 
L 419.289044 103.464571 
L 420.192308 163.29136 
L 421.095571 161.313615 
L 421.998834 169.719032 
L 422.902098 131.647439 
L 423.805361 152.413762 
L 424.708625 101.486826 
L 425.611888 163.29136 
L 426.515152 178.124449 
L 427.418415 118.297659 
L 428.321678 193.451974 
L 429.224942 172.191214 
L 430.128205 169.224596 
L 431.031469 138.07511 
L 431.934732 116.81435 
L 432.837995 99.014644 
L 433.741259 52.043198 
L 434.644522 120.275404 
L 435.547786 123.736458 
L 436.451049 37.704545 
L 437.354312 118.792095 
L 438.257576 92.586972 
L 439.160839 91.5981 
L 440.064103 50.065452 
L 440.967366 150.436017 
L 441.870629 126.703076 
L 442.773893 62.426359 
L 443.677156 87.64261 
L 444.58042 66.876286 
L 445.483683 68.854031 
L 446.386946 53.03207 
L 447.29021 138.569547 
L 448.193473 121.758713 
L 449.096737 135.108493 
L 450 178.124449 
L 450 178.124449 
" style="fill:none;stroke:#000000;stroke-dasharray:1.5,2.475;stroke-dashoffset:0;stroke-opacity:0.5;stroke-width:1.5;"/>
   </g>
   <g id="line2d_23">
    <path clip-path="url(#p85f5e0827d)" d="M 62.5 250.806582 
L 64.306527 250.806582 
L 65.20979 251.301018 
L 68.822844 251.301018 
L 71.532634 249.817709 
L 75.145688 249.817709 
L 76.048951 250.312146 
L 76.952214 250.312146 
L 79.662005 248.828837 
L 80.565268 248.828837 
L 81.468531 249.323273 
L 85.081585 249.323273 
L 85.984848 248.828837 
L 86.888112 248.828837 
L 87.791375 247.345528 
L 88.694639 246.851092 
L 89.597902 246.851092 
L 90.501166 247.345528 
L 91.404429 246.851092 
L 93.210956 247.839964 
L 94.114219 248.828837 
L 96.824009 247.345528 
L 97.727273 247.345528 
L 99.5338 246.356655 
L 100.437063 246.356655 
L 102.24359 245.367783 
L 103.146853 245.862219 
L 104.050117 245.367783 
L 104.95338 245.862219 
L 105.856643 245.367783 
L 106.759907 243.884474 
L 107.66317 243.390038 
L 108.566434 242.401165 
L 109.469697 240.917856 
L 110.37296 240.917856 
L 111.276224 240.42342 
L 112.179487 240.42342 
L 113.986014 241.412293 
L 114.889277 240.917856 
L 116.695804 241.906729 
L 117.599068 240.917856 
L 118.502331 241.412293 
L 120.308858 241.412293 
L 121.212121 240.917856 
L 122.115385 241.412293 
L 123.018648 241.412293 
L 123.921911 242.401165 
L 124.825175 240.42342 
L 125.728438 237.456802 
L 126.631702 235.479057 
L 128.438228 227.568077 
L 129.341492 224.601459 
L 130.244755 223.612587 
L 131.148019 222.129278 
L 132.051282 223.11815 
L 132.954545 221.634841 
L 133.857809 221.634841 
L 134.761072 219.657096 
L 135.664336 218.668224 
L 137.470862 211.25168 
L 138.374126 208.779498 
L 139.277389 208.779498 
L 141.987179 205.812881 
L 142.890443 205.318444 
L 143.793706 204.329572 
L 144.69697 201.85739 
L 145.600233 199.879645 
L 146.503497 200.374081 
L 148.310023 198.396336 
L 149.213287 196.418591 
L 150.11655 192.463101 
L 151.019814 186.035429 
L 151.923077 180.59663 
L 152.82634 176.146704 
L 154.632867 176.146704 
L 155.536131 175.157831 
L 156.439394 174.663395 
L 157.342657 178.618885 
L 158.245921 172.68565 
L 160.052448 167.741287 
L 160.955711 164.774669 
L 161.858974 163.29136 
L 162.762238 163.29136 
L 163.665501 157.358125 
L 164.568765 159.830307 
L 165.472028 156.369253 
L 166.375291 156.369253 
L 167.278555 158.346998 
L 168.181818 157.852561 
L 169.085082 155.38038 
L 169.988345 158.841434 
L 170.891608 161.808052 
L 171.794872 166.752414 
L 172.698135 170.707905 
L 173.601399 170.213468 
L 174.504662 170.707905 
L 175.407925 168.73016 
L 176.311189 162.796924 
L 177.214452 160.819179 
L 178.117716 157.358125 
L 179.020979 155.874816 
L 179.924242 161.313615 
L 180.827506 158.346998 
L 181.730769 157.852561 
L 182.634033 157.852561 
L 183.537296 157.358125 
L 184.440559 159.830307 
L 185.343823 157.852561 
L 186.247086 159.830307 
L 187.15035 166.257978 
L 188.053613 169.719032 
L 188.956876 174.663395 
L 189.86014 176.64114 
L 190.763403 180.59663 
L 191.666667 187.024302 
L 192.56993 186.529866 
L 193.473193 184.057684 
L 195.27972 180.102194 
L 196.182984 183.563248 
L 197.086247 173.180086 
L 197.98951 176.146704 
L 198.892774 176.146704 
L 200.699301 181.091067 
L 201.602564 182.079939 
L 202.505828 184.552121 
L 203.409091 195.924155 
L 204.312354 192.463101 
L 205.215618 196.418591 
L 206.118881 195.924155 
L 207.022145 196.418591 
L 207.925408 200.374081 
L 208.828671 196.913028 
L 209.731935 197.407464 
L 210.635198 199.385209 
L 211.538462 201.85739 
L 212.441725 206.801753 
L 213.344988 207.790626 
L 215.151515 208.779498 
L 216.054779 209.768371 
L 216.958042 210.262807 
L 217.861305 210.262807 
L 218.764569 211.746116 
L 219.667832 214.218297 
L 220.571096 217.184915 
L 221.474359 216.196042 
L 223.280886 212.240552 
L 224.184149 213.229425 
L 225.087413 213.723861 
L 225.990676 214.712734 
L 226.893939 213.229425 
L 227.797203 214.712734 
L 228.700466 212.734988 
L 230.506993 214.712734 
L 231.410256 218.668224 
L 232.31352 221.634841 
L 233.216783 223.612587 
L 234.120047 222.129278 
L 235.02331 222.623714 
L 235.926573 219.657096 
L 236.829837 216.196042 
L 237.7331 214.712734 
L 238.636364 213.723861 
L 239.539627 214.218297 
L 240.44289 214.218297 
L 241.346154 213.229425 
L 242.249417 214.218297 
L 243.152681 214.218297 
L 244.055944 213.723861 
L 245.862471 211.746116 
L 248.572261 210.262807 
L 249.475524 212.734988 
L 250.378788 213.723861 
L 251.282051 215.20717 
L 252.185315 216.196042 
L 254.895105 216.196042 
L 255.798368 216.690479 
L 256.701632 217.679351 
L 257.604895 218.173788 
L 258.508159 218.173788 
L 259.411422 218.668224 
L 260.314685 219.657096 
L 261.217949 221.634841 
L 262.121212 221.634841 
L 263.024476 220.645969 
L 263.927739 220.151533 
L 264.831002 218.173788 
L 265.734266 215.20717 
L 266.637529 213.229425 
L 267.540793 213.229425 
L 268.444056 214.218297 
L 269.347319 214.218297 
L 271.153846 209.273934 
L 272.05711 204.329572 
L 272.960373 201.85739 
L 273.863636 198.890773 
L 275.670163 200.868518 
L 276.573427 202.846263 
L 277.47669 205.812881 
L 278.379953 206.801753 
L 279.283217 206.307317 
L 280.18648 207.296189 
L 281.089744 206.801753 
L 281.993007 207.790626 
L 283.799534 203.835135 
L 284.702797 202.351827 
L 285.606061 197.407464 
L 286.509324 195.429719 
L 287.412587 196.418591 
L 288.315851 193.94641 
L 289.219114 189.002047 
L 291.025641 184.057684 
L 291.928904 183.563248 
L 292.832168 182.079939 
L 293.735431 183.563248 
L 294.638695 183.068812 
L 295.541958 186.529866 
L 296.445221 184.057684 
L 298.251748 185.046557 
L 299.155012 184.057684 
L 300.058275 183.563248 
L 300.961538 183.563248 
L 301.864802 178.124449 
L 302.768065 175.157831 
L 303.671329 174.168959 
L 306.381119 172.68565 
L 307.284382 171.202341 
L 308.187646 165.269106 
L 309.090909 155.874816 
L 309.994172 142.0306 
L 310.897436 138.569547 
L 311.800699 142.0306 
L 312.703963 147.4694 
L 313.607226 148.952708 
L 314.51049 151.919326 
L 315.413753 154.391507 
L 316.317016 152.413762 
L 317.22028 146.480527 
L 318.123543 137.580674 
L 319.026807 136.097365 
L 319.93007 139.063983 
L 320.833333 139.558419 
L 321.736597 136.097365 
L 322.63986 134.11962 
L 323.543124 135.108493 
L 324.446387 139.063983 
L 325.34965 137.580674 
L 326.252914 142.525037 
L 327.156177 141.041728 
L 328.059441 147.4694 
L 328.962704 156.863689 
L 329.865967 163.29136 
L 330.769231 168.73016 
L 331.672494 177.135576 
L 332.575758 183.563248 
L 333.479021 194.440846 
L 335.285548 199.385209 
L 336.188811 204.329572 
L 337.092075 211.746116 
L 337.995338 216.690479 
L 338.898601 218.173788 
L 339.801865 219.16266 
L 340.705128 221.140405 
L 341.608392 221.140405 
L 342.511655 220.151533 
L 343.414918 220.645969 
L 344.318182 221.634841 
L 345.221445 224.107023 
L 348.834499 226.084768 
L 349.737762 227.073641 
L 351.544289 230.040258 
L 352.447552 231.029131 
L 353.350816 231.029131 
L 354.254079 232.018003 
L 355.157343 232.51244 
L 356.060606 232.018003 
L 357.867133 233.006876 
L 358.770396 234.490185 
L 359.67366 234.984621 
L 361.480186 234.984621 
L 362.38345 235.973494 
L 363.286713 235.973494 
L 364.189977 236.962366 
L 365.09324 237.456802 
L 365.996503 236.962366 
L 366.899767 235.973494 
L 368.706294 234.984621 
L 370.512821 234.984621 
L 371.416084 235.479057 
L 372.319347 236.46793 
L 373.222611 237.951239 
L 374.125874 236.962366 
L 375.029138 237.456802 
L 375.932401 236.962366 
L 376.835664 235.479057 
L 377.738928 234.984621 
L 379.545455 231.029131 
L 382.255245 228.062513 
L 383.158508 228.062513 
L 384.061772 225.590332 
L 385.868298 224.601459 
L 386.771562 223.612587 
L 388.578089 222.623714 
L 389.481352 218.668224 
L 390.384615 216.690479 
L 391.287879 213.723861 
L 393.094406 204.329572 
L 393.997669 202.351827 
L 394.900932 196.913028 
L 395.804196 194.935282 
L 396.707459 186.529866 
L 398.513986 179.113321 
L 399.417249 178.124449 
L 400.320513 178.124449 
L 401.223776 174.663395 
L 402.12704 171.696777 
L 403.030303 172.191214 
L 403.933566 166.752414 
L 404.83683 164.774669 
L 405.740093 163.785797 
L 406.643357 166.752414 
L 407.54662 172.68565 
L 408.449883 169.719032 
L 409.353147 170.213468 
L 410.25641 167.741287 
L 411.159674 165.763542 
L 412.062937 164.280233 
L 412.9662 160.324743 
L 413.869464 161.808052 
L 414.772727 165.269106 
L 415.675991 164.280233 
L 416.579254 159.830307 
L 417.482517 158.346998 
L 418.385781 155.874816 
L 419.289044 156.369253 
L 420.192308 153.897071 
L 421.095571 152.413762 
L 421.998834 144.502782 
L 422.902098 147.963836 
L 423.805361 147.963836 
L 424.708625 144.008346 
L 425.611888 147.4694 
L 426.515152 153.897071 
L 428.321678 162.796924 
L 429.224942 157.852561 
L 430.128205 147.963836 
L 431.934732 121.758713 
L 432.837995 112.85886 
L 433.741259 98.025772 
L 434.644522 94.564718 
L 435.547786 92.092536 
L 436.451049 92.092536 
L 437.354312 90.609227 
L 438.257576 92.586972 
L 439.160839 95.059154 
L 440.064103 99.014644 
L 440.967366 96.542463 
L 441.870629 93.575845 
L 444.58042 82.203811 
L 445.483683 83.192683 
L 446.386946 94.070281 
L 447.29021 107.914497 
L 449.096737 130.658566 
L 450 145.491654 
L 450 145.491654 
" style="fill:none;stroke:#b3220f;stroke-linecap:square;stroke-width:1.5;"/>
   </g>
   <g id="patch_3">
    <path d="M 62.5 262.5 
L 62.5 27 
" style="fill:none;stroke:#555555;stroke-linecap:square;stroke-linejoin:miter;"/>
   </g>
   <g id="patch_4">
    <path d="M 62.5 262.5 
L 450 262.5 
" style="fill:none;stroke:#555555;stroke-linecap:square;stroke-linejoin:miter;"/>
   </g>
   <g id="text_11">
    <!-- San Cristóbal | Casos nuevos: 2021-06-09 -->
    <g style="fill:#555555;" transform="translate(123.735625 17)scale(0.14 -0.14)">
     <defs>
      <path d="M 49.09375 50.5 
L 58.09375 50.5 
Q 57.90625 56.40625 55.84375 60.65625 
Q 53.796875 64.90625 50.25 67.703125 
Q 46.703125 70.5 42 71.796875 
Q 37.296875 73.09375 31.796875 73.09375 
Q 26.90625 73.09375 22.25 71.84375 
Q 17.59375 70.59375 13.9375 68.046875 
Q 10.296875 65.5 8.09375 61.546875 
Q 5.90625 57.59375 5.90625 52.203125 
Q 5.90625 47.296875 7.84375 44.046875 
Q 9.796875 40.796875 13.046875 38.75 
Q 16.296875 36.703125 20.390625 35.453125 
Q 24.5 34.203125 28.75 33.25 
Q 33 32.296875 37.09375 31.390625 
Q 41.203125 30.5 44.453125 29.046875 
Q 47.703125 27.59375 49.640625 25.296875 
Q 51.59375 23 51.59375 19.296875 
Q 51.59375 15.40625 50 12.90625 
Q 48.40625 10.40625 45.796875 8.953125 
Q 43.203125 7.5 39.953125 6.890625 
Q 36.703125 6.296875 33.5 6.296875 
Q 29.5 6.296875 25.703125 7.296875 
Q 21.90625 8.296875 19.046875 10.390625 
Q 16.203125 12.5 14.453125 15.75 
Q 12.703125 19 12.703125 23.5 
L 3.703125 23.5 
Q 3.703125 17 6.046875 12.25 
Q 8.40625 7.5 12.453125 4.453125 
Q 16.5 1.40625 21.84375 -0.09375 
Q 27.203125 -1.59375 33.203125 -1.59375 
Q 38.09375 -1.59375 43.046875 -0.4375 
Q 48 0.703125 52 3.25 
Q 56 5.796875 58.546875 9.84375 
Q 61.09375 13.90625 61.09375 19.59375 
Q 61.09375 24.90625 59.140625 28.40625 
Q 57.203125 31.90625 53.953125 34.203125 
Q 50.703125 36.5 46.59375 37.84375 
Q 42.5 39.203125 38.25 40.203125 
Q 34 41.203125 29.890625 42.046875 
Q 25.796875 42.90625 22.546875 44.203125 
Q 19.296875 45.5 17.34375 47.546875 
Q 15.40625 49.59375 15.40625 52.90625 
Q 15.40625 56.40625 16.75 58.75 
Q 18.09375 61.09375 20.34375 62.5 
Q 22.59375 63.90625 25.5 64.5 
Q 28.40625 65.09375 31.40625 65.09375 
Q 38.796875 65.09375 43.546875 61.640625 
Q 48.296875 58.203125 49.09375 50.5 
z
" id="HelveticaNeue-83"/>
      <path id="HelveticaNeue-32"/>
      <path d="M 58 49.90625 
L 67.5 49.90625 
Q 66.703125 55.59375 64.09375 59.9375 
Q 61.5 64.296875 57.59375 67.1875 
Q 53.703125 70.09375 48.703125 71.59375 
Q 43.703125 73.09375 38.09375 73.09375 
Q 29.90625 73.09375 23.546875 70.140625 
Q 17.203125 67.203125 12.953125 62.09375 
Q 8.703125 57 6.5 50.140625 
Q 4.296875 43.296875 4.296875 35.5 
Q 4.296875 27.703125 6.34375 20.890625 
Q 8.40625 14.09375 12.5 9.09375 
Q 16.59375 4.09375 22.796875 1.25 
Q 29 -1.59375 37.296875 -1.59375 
Q 51 -1.59375 58.890625 5.90625 
Q 66.796875 13.40625 68.203125 26.90625 
L 58.703125 26.90625 
Q 58.40625 22.5 56.90625 18.703125 
Q 55.40625 14.90625 52.75 12.15625 
Q 50.09375 9.40625 46.4375 7.84375 
Q 42.796875 6.296875 38.09375 6.296875 
Q 31.703125 6.296875 27.09375 8.6875 
Q 22.5 11.09375 19.546875 15.140625 
Q 16.59375 19.203125 15.1875 24.640625 
Q 13.796875 30.09375 13.796875 36.203125 
Q 13.796875 41.796875 15.1875 47 
Q 16.59375 52.203125 19.546875 56.25 
Q 22.5 60.296875 27.046875 62.6875 
Q 31.59375 65.09375 38 65.09375 
Q 45.5 65.09375 50.953125 61.296875 
Q 56.40625 57.5 58 49.90625 
z
" id="HelveticaNeue-67"/>
      <path d="M 15.40625 61 
L 15.40625 71.40625 
L 6.90625 71.40625 
L 6.90625 61 
z
M 6.90625 51.703125 
L 6.90625 0 
L 15.40625 0 
L 15.40625 51.703125 
z
" id="HelveticaNeue-105"/>
      <path d="M 11.59375 16.296875 
L 3.09375 16.296875 
Q 3.296875 11.5 5.09375 8.140625 
Q 6.90625 4.796875 9.90625 2.75 
Q 12.90625 0.703125 16.796875 -0.1875 
Q 20.703125 -1.09375 25 -1.09375 
Q 28.90625 -1.09375 32.84375 -0.34375 
Q 36.796875 0.40625 39.9375 2.296875 
Q 43.09375 4.203125 45.046875 7.296875 
Q 47 10.40625 47 15.09375 
Q 47 18.796875 45.546875 21.296875 
Q 44.09375 23.796875 41.75 25.4375 
Q 39.40625 27.09375 36.34375 28.09375 
Q 33.296875 29.09375 30.09375 29.796875 
Q 27.09375 30.5 24.09375 31.140625 
Q 21.09375 31.796875 18.6875 32.75 
Q 16.296875 33.703125 14.75 35.140625 
Q 13.203125 36.59375 13.203125 38.796875 
Q 13.203125 40.796875 14.203125 42.046875 
Q 15.203125 43.296875 16.796875 44.046875 
Q 18.40625 44.796875 20.34375 45.09375 
Q 22.296875 45.40625 24.203125 45.40625 
Q 26.296875 45.40625 28.34375 44.953125 
Q 30.40625 44.5 32.09375 43.5 
Q 33.796875 42.5 34.890625 40.84375 
Q 36 39.203125 36.203125 36.703125 
L 44.703125 36.703125 
Q 44.40625 41.40625 42.703125 44.546875 
Q 41 47.703125 38.140625 49.546875 
Q 35.296875 51.40625 31.59375 52.15625 
Q 27.90625 52.90625 23.5 52.90625 
Q 20.09375 52.90625 16.640625 52.046875 
Q 13.203125 51.203125 10.453125 49.453125 
Q 7.703125 47.703125 5.953125 44.890625 
Q 4.203125 42.09375 4.203125 38.203125 
Q 4.203125 33.203125 6.703125 30.390625 
Q 9.203125 27.59375 12.953125 26.046875 
Q 16.703125 24.5 21.09375 23.640625 
Q 25.5 22.796875 29.25 21.75 
Q 33 20.703125 35.5 19 
Q 38 17.296875 38 14 
Q 38 11.59375 36.796875 10.046875 
Q 35.59375 8.5 33.75 7.703125 
Q 31.90625 6.90625 29.703125 6.59375 
Q 27.5 6.296875 25.5 6.296875 
Q 22.90625 6.296875 20.453125 6.796875 
Q 18 7.296875 16.046875 8.4375 
Q 14.09375 9.59375 12.890625 11.546875 
Q 11.703125 13.5 11.59375 16.296875 
z
" id="HelveticaNeue-115"/>
      <path d="M 12.59375 25.796875 
Q 12.59375 30.5 13.84375 34.140625 
Q 15.09375 37.796875 17.296875 40.296875 
Q 19.5 42.796875 22.453125 44.09375 
Q 25.40625 45.40625 28.703125 45.40625 
Q 32 45.40625 34.953125 44.09375 
Q 37.90625 42.796875 40.09375 40.296875 
Q 42.296875 37.796875 43.546875 34.140625 
Q 44.796875 30.5 44.796875 25.796875 
Q 44.796875 21.09375 43.546875 17.4375 
Q 42.296875 13.796875 40.09375 11.34375 
Q 37.90625 8.90625 34.953125 7.59375 
Q 32 6.296875 28.703125 6.296875 
Q 25.40625 6.296875 22.453125 7.59375 
Q 19.5 8.90625 17.296875 11.34375 
Q 15.09375 13.796875 13.84375 17.4375 
Q 12.59375 21.09375 12.59375 25.796875 
z
M 3.59375 25.796875 
Q 3.59375 20.09375 5.1875 15.1875 
Q 6.796875 10.296875 10 6.640625 
Q 13.203125 3 17.890625 0.953125 
Q 22.59375 -1.09375 28.703125 -1.09375 
Q 34.90625 -1.09375 39.546875 0.953125 
Q 44.203125 3 47.390625 6.640625 
Q 50.59375 10.296875 52.1875 15.1875 
Q 53.796875 20.09375 53.796875 25.796875 
Q 53.796875 31.5 52.1875 36.453125 
Q 50.59375 41.40625 47.390625 45.046875 
Q 44.203125 48.703125 39.546875 50.796875 
Q 34.90625 52.90625 28.703125 52.90625 
Q 22.59375 52.90625 17.890625 50.796875 
Q 13.203125 48.703125 10 45.046875 
Q 6.796875 41.40625 5.1875 36.453125 
Q 3.59375 31.5 3.59375 25.796875 
z
M 42.5 77 
L 28.40625 60.796875 
L 22 60.796875 
L 31.59375 77 
z
" id="HelveticaNeue-243"/>
      <path d="M 6.703125 71.40625 
L 6.703125 0 
L 15.203125 0 
L 15.203125 6.90625 
L 15.40625 6.90625 
Q 16.796875 4.59375 18.84375 3.046875 
Q 20.90625 1.5 23.203125 0.59375 
Q 25.5 -0.296875 27.84375 -0.6875 
Q 30.203125 -1.09375 32.09375 -1.09375 
Q 38 -1.09375 42.453125 1 
Q 46.90625 3.09375 49.84375 6.75 
Q 52.796875 10.40625 54.25 15.296875 
Q 55.703125 20.203125 55.703125 25.703125 
Q 55.703125 31.203125 54.203125 36.09375 
Q 52.703125 41 49.75 44.75 
Q 46.796875 48.5 42.34375 50.703125 
Q 37.90625 52.90625 31.90625 52.90625 
Q 26.5 52.90625 22 50.953125 
Q 17.5 49 15.40625 44.703125 
L 15.203125 44.703125 
L 15.203125 71.40625 
z
M 46.703125 26.296875 
Q 46.703125 22.5 45.890625 18.890625 
Q 45.09375 15.296875 43.296875 12.5 
Q 41.5 9.703125 38.546875 8 
Q 35.59375 6.296875 31.203125 6.296875 
Q 26.796875 6.296875 23.6875 7.9375 
Q 20.59375 9.59375 18.640625 12.296875 
Q 16.703125 15 15.796875 18.546875 
Q 14.90625 22.09375 14.90625 25.90625 
Q 14.90625 29.5 15.75 33 
Q 16.59375 36.5 18.5 39.25 
Q 20.40625 42 23.40625 43.703125 
Q 26.40625 45.40625 30.703125 45.40625 
Q 34.796875 45.40625 37.84375 43.796875 
Q 40.90625 42.203125 42.84375 39.5 
Q 44.796875 36.796875 45.75 33.34375 
Q 46.703125 29.90625 46.703125 26.296875 
z
" id="HelveticaNeue-98"/>
      <path d="M 7.703125 78.59375 
L 7.703125 -21.296875 
L 14.5 -21.296875 
L 14.5 78.59375 
z
" id="HelveticaNeue-124"/>
      <path d="M 12.59375 25.796875 
Q 12.59375 30.5 13.84375 34.140625 
Q 15.09375 37.796875 17.296875 40.296875 
Q 19.5 42.796875 22.453125 44.09375 
Q 25.40625 45.40625 28.703125 45.40625 
Q 32 45.40625 34.953125 44.09375 
Q 37.90625 42.796875 40.09375 40.296875 
Q 42.296875 37.796875 43.546875 34.140625 
Q 44.796875 30.5 44.796875 25.796875 
Q 44.796875 21.09375 43.546875 17.4375 
Q 42.296875 13.796875 40.09375 11.34375 
Q 37.90625 8.90625 34.953125 7.59375 
Q 32 6.296875 28.703125 6.296875 
Q 25.40625 6.296875 22.453125 7.59375 
Q 19.5 8.90625 17.296875 11.34375 
Q 15.09375 13.796875 13.84375 17.4375 
Q 12.59375 21.09375 12.59375 25.796875 
z
M 3.59375 25.796875 
Q 3.59375 20.09375 5.1875 15.1875 
Q 6.796875 10.296875 10 6.640625 
Q 13.203125 3 17.890625 0.953125 
Q 22.59375 -1.09375 28.703125 -1.09375 
Q 34.90625 -1.09375 39.546875 0.953125 
Q 44.203125 3 47.390625 6.640625 
Q 50.59375 10.296875 52.1875 15.1875 
Q 53.796875 20.09375 53.796875 25.796875 
Q 53.796875 31.5 52.1875 36.453125 
Q 50.59375 41.40625 47.390625 45.046875 
Q 44.203125 48.703125 39.546875 50.796875 
Q 34.90625 52.90625 28.703125 52.90625 
Q 22.59375 52.90625 17.890625 50.796875 
Q 13.203125 48.703125 10 45.046875 
Q 6.796875 41.40625 5.1875 36.453125 
Q 3.59375 31.5 3.59375 25.796875 
z
" id="HelveticaNeue-111"/>
      <path d="M 29.703125 0 
L 48.59375 51.703125 
L 39.703125 51.703125 
L 25.59375 8.59375 
L 25.40625 8.59375 
L 10.90625 51.703125 
L 1.40625 51.703125 
L 20.59375 0 
z
" id="HelveticaNeue-118"/>
      <path d="M 19.40625 40.59375 
L 19.40625 51.703125 
L 8.296875 51.703125 
L 8.296875 40.59375 
z
M 8.296875 11.09375 
L 8.296875 0 
L 19.40625 0 
L 19.40625 11.09375 
z
" id="HelveticaNeue-58"/>
      <path d="M 5 31.796875 
L 5 23.796875 
L 33.90625 23.796875 
L 33.90625 31.796875 
z
" id="HelveticaNeue-45"/>
      <path d="M 41.40625 52.796875 
L 49.90625 52.796875 
Q 49.09375 61.59375 43.890625 66.25 
Q 38.703125 70.90625 29.90625 70.90625 
Q 22.296875 70.90625 17.296875 67.703125 
Q 12.296875 64.5 9.296875 59.203125 
Q 6.296875 53.90625 5.046875 47.046875 
Q 3.796875 40.203125 3.796875 32.90625 
Q 3.796875 27.296875 4.640625 21.296875 
Q 5.5 15.296875 8.09375 10.296875 
Q 10.703125 5.296875 15.5 2.09375 
Q 20.296875 -1.09375 28.203125 -1.09375 
Q 34.90625 -1.09375 39.453125 1.15625 
Q 44 3.40625 46.75 6.84375 
Q 49.5 10.296875 50.703125 14.5 
Q 51.90625 18.703125 51.90625 22.59375 
Q 51.90625 27.5 50.40625 31.703125 
Q 48.90625 35.90625 46.15625 39 
Q 43.40625 42.09375 39.34375 43.84375 
Q 35.296875 45.59375 30.203125 45.59375 
Q 24.40625 45.59375 19.953125 43.390625 
Q 15.5 41.203125 12.5 36.296875 
L 12.296875 36.5 
Q 12.40625 40.59375 13.09375 45.296875 
Q 13.796875 50 15.640625 54.046875 
Q 17.5 58.09375 20.796875 60.75 
Q 24.09375 63.40625 29.5 63.40625 
Q 34.59375 63.40625 37.6875 60.5 
Q 40.796875 57.59375 41.40625 52.796875 
z
M 28.59375 38.09375 
Q 32.203125 38.09375 34.890625 36.796875 
Q 37.59375 35.5 39.390625 33.34375 
Q 41.203125 31.203125 42.046875 28.25 
Q 42.90625 25.296875 42.90625 22 
Q 42.90625 18.90625 41.953125 16.046875 
Q 41 13.203125 39.203125 11 
Q 37.40625 8.796875 34.75 7.546875 
Q 32.09375 6.296875 28.59375 6.296875 
Q 25.09375 6.296875 22.34375 7.546875 
Q 19.59375 8.796875 17.75 10.890625 
Q 15.90625 13 14.90625 15.890625 
Q 13.90625 18.796875 13.90625 22.09375 
Q 13.90625 25.40625 14.84375 28.34375 
Q 15.796875 31.296875 17.6875 33.4375 
Q 19.59375 35.59375 22.296875 36.84375 
Q 25 38.09375 28.59375 38.09375 
z
" id="HelveticaNeue-54"/>
      <path d="M 13.40625 17.09375 
L 4.90625 17.09375 
Q 5.703125 7.90625 11.59375 3.40625 
Q 17.5 -1.09375 26.40625 -1.09375 
Q 39.296875 -1.09375 45.140625 8.75 
Q 51 18.59375 51 37 
Q 51 47.09375 49.046875 53.640625 
Q 47.09375 60.203125 43.796875 64 
Q 40.5 67.796875 36.09375 69.34375 
Q 31.703125 70.90625 26.703125 70.90625 
Q 21.59375 70.90625 17.296875 69.203125 
Q 13 67.5 9.890625 64.453125 
Q 6.796875 61.40625 5.09375 57.15625 
Q 3.40625 52.90625 3.40625 47.796875 
Q 3.40625 42.59375 4.84375 38.1875 
Q 6.296875 33.796875 9.140625 30.6875 
Q 12 27.59375 16.203125 25.84375 
Q 20.40625 24.09375 25.796875 24.09375 
Q 31 24.09375 35.390625 26.75 
Q 39.796875 29.40625 42.203125 33.90625 
L 42.40625 33.703125 
Q 42 19.796875 38.09375 13.046875 
Q 34.203125 6.296875 26.40625 6.296875 
Q 21.296875 6.296875 17.59375 9.09375 
Q 13.90625 11.90625 13.40625 17.09375 
z
M 40.90625 47.203125 
Q 40.90625 44.09375 39.90625 41.25 
Q 38.90625 38.40625 37 36.25 
Q 35.09375 34.09375 32.390625 32.84375 
Q 29.703125 31.59375 26.40625 31.59375 
Q 23.296875 31.59375 20.75 32.84375 
Q 18.203125 34.09375 16.34375 36.1875 
Q 14.5 38.296875 13.453125 41 
Q 12.40625 43.703125 12.40625 46.59375 
Q 12.40625 49.90625 13.15625 52.90625 
Q 13.90625 55.90625 15.546875 58.25 
Q 17.203125 60.59375 19.84375 62 
Q 22.5 63.40625 26.296875 63.40625 
Q 29.90625 63.40625 32.59375 62.09375 
Q 35.296875 60.796875 37.140625 58.546875 
Q 39 56.296875 39.953125 53.390625 
Q 40.90625 50.5 40.90625 47.203125 
z
" id="HelveticaNeue-57"/>
     </defs>
     <use xlink:href="#HelveticaNeue-83"/>
     <use x="64.799988" xlink:href="#HelveticaNeue-97"/>
     <use x="118.499985" xlink:href="#HelveticaNeue-110"/>
     <use x="174.099976" xlink:href="#HelveticaNeue-32"/>
     <use x="201.899963" xlink:href="#HelveticaNeue-67"/>
     <use x="274.099945" xlink:href="#HelveticaNeue-114"/>
     <use x="307.399933" xlink:href="#HelveticaNeue-105"/>
     <use x="329.59993" xlink:href="#HelveticaNeue-115"/>
     <use x="379.599915" xlink:href="#HelveticaNeue-116"/>
     <use x="411.099899" xlink:href="#HelveticaNeue-243"/>
     <use x="468.499893" xlink:href="#HelveticaNeue-98"/>
     <use x="527.799881" xlink:href="#HelveticaNeue-97"/>
     <use x="581.499878" xlink:href="#HelveticaNeue-108"/>
     <use x="603.699875" xlink:href="#HelveticaNeue-32"/>
     <use x="631.499863" xlink:href="#HelveticaNeue-124"/>
     <use x="653.69986" xlink:href="#HelveticaNeue-32"/>
     <use x="681.499847" xlink:href="#HelveticaNeue-67"/>
     <use x="753.699829" xlink:href="#HelveticaNeue-97"/>
     <use x="807.399826" xlink:href="#HelveticaNeue-115"/>
     <use x="857.399811" xlink:href="#HelveticaNeue-111"/>
     <use x="914.799805" xlink:href="#HelveticaNeue-115"/>
     <use x="964.799789" xlink:href="#HelveticaNeue-32"/>
     <use x="992.599777" xlink:href="#HelveticaNeue-110"/>
     <use x="1048.199768" xlink:href="#HelveticaNeue-117"/>
     <use x="1103.799759" xlink:href="#HelveticaNeue-101"/>
     <use x="1157.499756" xlink:href="#HelveticaNeue-118"/>
     <use x="1207.499741" xlink:href="#HelveticaNeue-111"/>
     <use x="1264.899734" xlink:href="#HelveticaNeue-115"/>
     <use x="1314.899719" xlink:href="#HelveticaNeue-58"/>
     <use x="1342.699707" xlink:href="#HelveticaNeue-32"/>
     <use x="1370.499695" xlink:href="#HelveticaNeue-50"/>
     <use x="1426.099686" xlink:href="#HelveticaNeue-48"/>
     <use x="1481.699677" xlink:href="#HelveticaNeue-50"/>
     <use x="1537.299667" xlink:href="#HelveticaNeue-49"/>
     <use x="1592.899658" xlink:href="#HelveticaNeue-45"/>
     <use x="1631.799652" xlink:href="#HelveticaNeue-48"/>
     <use x="1687.399643" xlink:href="#HelveticaNeue-54"/>
     <use x="1742.999634" xlink:href="#HelveticaNeue-45"/>
     <use x="1781.899628" xlink:href="#HelveticaNeue-48"/>
     <use x="1837.499619" xlink:href="#HelveticaNeue-57"/>
    </g>
   </g>
   <g id="legend_1">
    <g id="line2d_24">
     <path d="M 71.5 39.640625 
L 91.5 39.640625 
" style="fill:none;stroke:#000000;stroke-dasharray:1.5,2.475;stroke-dashoffset:0;stroke-opacity:0.5;stroke-width:1.5;"/>
    </g>
    <g id="line2d_25"/>
    <g id="text_12">
     <!-- Actual -->
     <g style="fill:#555555;" transform="translate(99.5 43.140625)scale(0.1 -0.1)">
      <use xlink:href="#HelveticaNeue-65"/>
      <use x="64.799988" xlink:href="#HelveticaNeue-99"/>
      <use x="118.499985" xlink:href="#HelveticaNeue-116"/>
      <use x="149.999969" xlink:href="#HelveticaNeue-117"/>
      <use x="205.59996" xlink:href="#HelveticaNeue-97"/>
      <use x="259.299957" xlink:href="#HelveticaNeue-108"/>
     </g>
    </g>
    <g id="line2d_26">
     <path d="M 71.5 54.310937 
L 91.5 54.310937 
" style="fill:none;stroke:#b3220f;stroke-linecap:square;stroke-width:1.5;"/>
    </g>
    <g id="line2d_27"/>
    <g id="text_13">
     <!-- Promedio semanal (7 días)  -->
     <g style="fill:#555555;" transform="translate(99.5 57.810937)scale(0.1 -0.1)">
      <defs>
       <path d="M 17.296875 37.203125 
L 17.296875 63.40625 
L 35.90625 63.40625 
Q 44 63.40625 47.75 60.046875 
Q 51.5 56.703125 51.5 50.296875 
Q 51.5 43.90625 47.75 40.5 
Q 44 37.09375 35.90625 37.203125 
z
M 7.796875 71.40625 
L 7.796875 0 
L 17.296875 0 
L 17.296875 29.203125 
L 39.09375 29.203125 
Q 49.90625 29.09375 55.453125 34.6875 
Q 61 40.296875 61 50.296875 
Q 61 60.296875 55.453125 65.84375 
Q 49.90625 71.40625 39.09375 71.40625 
z
" id="HelveticaNeue-80"/>
       <path d="M 6.40625 51.703125 
L 6.40625 0 
L 14.90625 0 
L 14.90625 32.203125 
Q 14.90625 33.703125 15.65625 35.953125 
Q 16.40625 38.203125 18.046875 40.296875 
Q 19.703125 42.40625 22.34375 43.90625 
Q 25 45.40625 28.703125 45.40625 
Q 31.59375 45.40625 33.4375 44.546875 
Q 35.296875 43.703125 36.390625 42.140625 
Q 37.5 40.59375 37.953125 38.5 
Q 38.40625 36.40625 38.40625 33.90625 
L 38.40625 0 
L 46.90625 0 
L 46.90625 32.203125 
Q 46.90625 38.203125 50.5 41.796875 
Q 54.09375 45.40625 60.40625 45.40625 
Q 63.5 45.40625 65.453125 44.5 
Q 67.40625 43.59375 68.5 42.046875 
Q 69.59375 40.5 70 38.390625 
Q 70.40625 36.296875 70.40625 33.90625 
L 70.40625 0 
L 78.90625 0 
L 78.90625 37.90625 
Q 78.90625 41.90625 77.65625 44.75 
Q 76.40625 47.59375 74.15625 49.390625 
Q 71.90625 51.203125 68.75 52.046875 
Q 65.59375 52.90625 61.703125 52.90625 
Q 56.59375 52.90625 52.34375 50.59375 
Q 48.09375 48.296875 45.5 44.09375 
Q 43.90625 48.90625 40 50.90625 
Q 36.09375 52.90625 31.296875 52.90625 
Q 20.40625 52.90625 14.59375 44.09375 
L 14.40625 44.09375 
L 14.40625 51.703125 
z
" id="HelveticaNeue-109"/>
       <path d="M 12.59375 25.40625 
Q 12.59375 29.203125 13.390625 32.796875 
Q 14.203125 36.40625 16 39.203125 
Q 17.796875 42 20.796875 43.703125 
Q 23.796875 45.40625 28.09375 45.40625 
Q 32.5 45.40625 35.59375 43.75 
Q 38.703125 42.09375 40.640625 39.390625 
Q 42.59375 36.703125 43.5 33.140625 
Q 44.40625 29.59375 44.40625 25.796875 
Q 44.40625 22.203125 43.546875 18.703125 
Q 42.703125 15.203125 40.796875 12.453125 
Q 38.90625 9.703125 35.90625 8 
Q 32.90625 6.296875 28.59375 6.296875 
Q 24.5 6.296875 21.453125 7.890625 
Q 18.40625 9.5 16.453125 12.203125 
Q 14.5 14.90625 13.546875 18.34375 
Q 12.59375 21.796875 12.59375 25.40625 
z
M 52.59375 0 
L 52.59375 71.40625 
L 44.09375 71.40625 
L 44.09375 44.796875 
L 43.90625 44.796875 
Q 42.5 47.09375 40.453125 48.640625 
Q 38.40625 50.203125 36.09375 51.140625 
Q 33.796875 52.09375 31.5 52.5 
Q 29.203125 52.90625 27.203125 52.90625 
Q 21.296875 52.90625 16.84375 50.75 
Q 12.40625 48.59375 9.453125 44.9375 
Q 6.5 41.296875 5.046875 36.390625 
Q 3.59375 31.5 3.59375 26 
Q 3.59375 20.5 5.09375 15.59375 
Q 6.59375 10.703125 9.546875 7 
Q 12.5 3.296875 16.953125 1.09375 
Q 21.40625 -1.09375 27.40625 -1.09375 
Q 32.796875 -1.09375 37.296875 0.796875 
Q 41.796875 2.703125 43.90625 7 
L 44.09375 7 
L 44.09375 0 
z
" id="HelveticaNeue-100"/>
       <path d="M 20.40625 -19.703125 
L 26.90625 -19.703125 
Q 19.796875 -8.203125 16.75 3.09375 
Q 13.703125 14.40625 13.703125 27 
Q 13.703125 39.296875 16.703125 50.5 
Q 19.703125 61.703125 26.90625 73.09375 
L 20.40625 73.09375 
Q 12.59375 62.796875 8.640625 50.796875 
Q 4.703125 38.796875 4.703125 27 
Q 4.703125 20.40625 5.796875 14.40625 
Q 6.90625 8.40625 8.953125 2.703125 
Q 11 -3 13.890625 -8.546875 
Q 16.796875 -14.09375 20.40625 -19.703125 
z
" id="HelveticaNeue-40"/>
       <path d="M 50.90625 62.40625 
L 50.90625 69.703125 
L 5 69.703125 
L 5 61.703125 
L 42.203125 61.703125 
Q 36.59375 55.796875 31.75 48.796875 
Q 26.90625 41.796875 23.203125 33.9375 
Q 19.5 26.09375 17.140625 17.546875 
Q 14.796875 9 14.203125 0 
L 23.703125 0 
Q 24.203125 8.296875 26.5 17.09375 
Q 28.796875 25.90625 32.4375 34.203125 
Q 36.09375 42.5 40.796875 49.796875 
Q 45.5 57.09375 50.90625 62.40625 
z
" id="HelveticaNeue-55"/>
       <path d="M 6.90625 0 
L 15.40625 0 
L 15.40625 51.703125 
L 6.90625 51.703125 
z
M 25.5 77 
L 11.40625 60.796875 
L 5 60.796875 
L 14.59375 77 
z
" id="HelveticaNeue-237"/>
       <path d="M -0.90625 -19.703125 
L 5.5 -19.703125 
Q 13.296875 -9.40625 17.25 2.546875 
Q 21.203125 14.5 21.203125 26.296875 
Q 21.203125 32.90625 20.09375 38.90625 
Q 19 44.90625 16.953125 50.65625 
Q 14.90625 56.40625 12 61.953125 
Q 9.09375 67.5 5.5 73.09375 
L -0.90625 73.09375 
Q 6.09375 61.59375 9.140625 50.25 
Q 12.203125 38.90625 12.203125 26.296875 
Q 12.203125 14.09375 9.203125 2.84375 
Q 6.203125 -8.40625 -0.90625 -19.703125 
z
" id="HelveticaNeue-41"/>
      </defs>
      <use xlink:href="#HelveticaNeue-80"/>
      <use x="64.799988" xlink:href="#HelveticaNeue-114"/>
      <use x="96.349976" xlink:href="#HelveticaNeue-111"/>
      <use x="153.749969" xlink:href="#HelveticaNeue-109"/>
      <use x="239.049957" xlink:href="#HelveticaNeue-101"/>
      <use x="292.749954" xlink:href="#HelveticaNeue-100"/>
      <use x="352.049942" xlink:href="#HelveticaNeue-105"/>
      <use x="374.249939" xlink:href="#HelveticaNeue-111"/>
      <use x="431.649933" xlink:href="#HelveticaNeue-32"/>
      <use x="459.449921" xlink:href="#HelveticaNeue-115"/>
      <use x="509.449905" xlink:href="#HelveticaNeue-101"/>
      <use x="563.149902" xlink:href="#HelveticaNeue-109"/>
      <use x="648.44989" xlink:href="#HelveticaNeue-97"/>
      <use x="702.149887" xlink:href="#HelveticaNeue-110"/>
      <use x="757.749878" xlink:href="#HelveticaNeue-97"/>
      <use x="811.449875" xlink:href="#HelveticaNeue-108"/>
      <use x="833.649872" xlink:href="#HelveticaNeue-32"/>
      <use x="861.44986" xlink:href="#HelveticaNeue-40"/>
      <use x="887.349854" xlink:href="#HelveticaNeue-55"/>
      <use x="942.949844" xlink:href="#HelveticaNeue-32"/>
      <use x="970.749832" xlink:href="#HelveticaNeue-100"/>
      <use x="1030.04982" xlink:href="#HelveticaNeue-237"/>
      <use x="1052.249817" xlink:href="#HelveticaNeue-97"/>
      <use x="1105.949814" xlink:href="#HelveticaNeue-115"/>
      <use x="1155.949799" xlink:href="#HelveticaNeue-41"/>
      <use x="1181.849792" xlink:href="#HelveticaNeue-32"/>
     </g>
    </g>
   </g>
  </g>
 </g>
 <defs>
  <clipPath id="p85f5e0827d">
   <rect height="235.5" width="387.5" x="62.5" y="27"/>
  </clipPath>
 </defs>
</svg>
