<?xml version="1.0" encoding="utf-8" standalone="no"?>
<!DOCTYPE svg PUBLIC "-//W3C//DTD SVG 1.1//EN"
  "http://www.w3.org/Graphics/SVG/1.1/DTD/svg11.dtd">
<!-- Created with matplotlib (https://matplotlib.org/) -->
<svg height="300pt" version="1.1" viewBox="0 0 500 300" width="500pt" xmlns="http://www.w3.org/2000/svg" xmlns:xlink="http://www.w3.org/1999/xlink">
 <metadata>
  <rdf:RDF xmlns:cc="http://creativecommons.org/ns#" xmlns:dc="http://purl.org/dc/elements/1.1/" xmlns:rdf="http://www.w3.org/1999/02/22-rdf-syntax-ns#">
   <cc:Work>
    <dc:type rdf:resource="http://purl.org/dc/dcmitype/StillImage"/>
    <dc:date>2021-06-26T00:11:02.930866</dc:date>
    <dc:format>image/svg+xml</dc:format>
    <dc:creator>
     <cc:Agent>
      <dc:title>Matplotlib v3.3.4, https://matplotlib.org/</dc:title>
     </cc:Agent>
    </dc:creator>
   </cc:Work>
  </rdf:RDF>
 </metadata>
 <defs>
  <style type="text/css">*{stroke-linecap:butt;stroke-linejoin:round;}</style>
 </defs>
 <g id="figure_1">
  <g id="patch_1">
   <path d="M 0 300 
L 500 300 
L 500 0 
L 0 0 
z
" style="fill:#ffffff;"/>
  </g>
  <g id="axes_1">
   <g id="patch_2">
    <path d="M 62.5 262.5 
L 450 262.5 
L 450 36 
L 62.5 36 
z
" style="fill:#ffffff;"/>
   </g>
   <g id="matplotlib.axis_1">
    <g id="xtick_1">
     <g id="line2d_1">
      <defs>
       <path d="M 0 0 
L 0 3.5 
" id="mc436d1d6a3" style="stroke:#000000;stroke-width:0.8;"/>
      </defs>
      <g>
       <use style="stroke:#000000;stroke-width:0.8;" x="62.5" xlink:href="#mc436d1d6a3" y="262.5"/>
      </g>
     </g>
    </g>
    <g id="xtick_2">
     <g id="line2d_2">
      <g>
       <use style="stroke:#000000;stroke-width:0.8;" x="137.725734" xlink:href="#mc436d1d6a3" y="262.5"/>
      </g>
     </g>
     <g id="text_1">
      <!-- Jul -->
      <g transform="translate(130.895265 277)scale(0.1 -0.1)">
       <defs>
        <path d="M 36.328125 71.09375 
L 48.640625 71.09375 
L 48.640625 21.234375 
Q 48.640625 11.03125 42.265625 5.015625 
Q 35.890625 -0.984375 25.4375 -0.984375 
Q 14.3125 -0.984375 8.25 4.625 
Q 2.203125 10.25 2.203125 20.265625 
L 14.5 20.265625 
Q 14.5 14.59375 17.3125 11.734375 
Q 20.125 8.890625 25.4375 8.890625 
Q 30.421875 8.890625 33.375 12.1875 
Q 36.328125 15.484375 36.328125 21.296875 
z
" id="Roboto-Medium-74"/>
        <path d="M 38.09375 5.171875 
Q 32.859375 -0.984375 23.25 -0.984375 
Q 14.65625 -0.984375 10.234375 4.046875 
Q 5.8125 9.078125 5.8125 18.609375 
L 5.8125 52.828125 
L 17.671875 52.828125 
L 17.671875 18.75 
Q 17.671875 8.6875 26.03125 8.6875 
Q 34.671875 8.6875 37.703125 14.890625 
L 37.703125 52.828125 
L 49.5625 52.828125 
L 49.5625 0 
L 38.375 0 
z
" id="Roboto-Medium-117"/>
        <path d="M 18.703125 0 
L 6.84375 0 
L 6.84375 75 
L 18.703125 75 
z
" id="Roboto-Medium-108"/>
       </defs>
       <use xlink:href="#Roboto-Medium-74"/>
       <use x="55.517578" xlink:href="#Roboto-Medium-117"/>
       <use x="111.083984" xlink:href="#Roboto-Medium-108"/>
      </g>
     </g>
    </g>
    <g id="xtick_3">
     <g id="line2d_3">
      <g>
       <use style="stroke:#000000;stroke-width:0.8;" x="218.199774" xlink:href="#mc436d1d6a3" y="262.5"/>
      </g>
     </g>
     <g id="text_2">
      <!-- Oct -->
      <g transform="translate(210.467743 277)scale(0.1 -0.1)">
       <defs>
        <path d="M 63.96875 33.6875 
Q 63.96875 23.25 60.34375 15.359375 
Q 56.734375 7.46875 50.015625 3.234375 
Q 43.3125 -0.984375 34.578125 -0.984375 
Q 25.921875 -0.984375 19.15625 3.234375 
Q 12.40625 7.46875 8.71875 15.28125 
Q 5.03125 23.09375 4.984375 33.296875 
L 4.984375 37.3125 
Q 4.984375 47.703125 8.671875 55.65625 
Q 12.359375 63.625 19.0625 67.84375 
Q 25.78125 72.078125 34.46875 72.078125 
Q 43.171875 72.078125 49.875 67.890625 
Q 56.59375 63.71875 60.25 55.875 
Q 63.921875 48.046875 63.96875 37.640625 
z
M 51.609375 37.40625 
Q 51.609375 49.21875 47.140625 55.515625 
Q 42.671875 61.8125 34.46875 61.8125 
Q 26.46875 61.8125 21.953125 55.53125 
Q 17.4375 49.265625 17.328125 37.796875 
L 17.328125 33.6875 
Q 17.328125 21.96875 21.890625 15.578125 
Q 26.46875 9.1875 34.578125 9.1875 
Q 42.78125 9.1875 47.1875 15.4375 
Q 51.609375 21.6875 51.609375 33.6875 
z
" id="Roboto-Medium-79"/>
        <path d="M 27.78125 8.5 
Q 32.234375 8.5 35.15625 11.078125 
Q 38.09375 13.671875 38.28125 17.484375 
L 49.46875 17.484375 
Q 49.265625 12.546875 46.375 8.265625 
Q 43.5 4 38.5625 1.5 
Q 33.640625 -0.984375 27.9375 -0.984375 
Q 16.84375 -0.984375 10.34375 6.1875 
Q 3.859375 13.375 3.859375 26.03125 
L 3.859375 27.25 
Q 3.859375 39.3125 10.296875 46.5625 
Q 16.75 53.8125 27.875 53.8125 
Q 37.3125 53.8125 43.234375 48.3125 
Q 49.171875 42.828125 49.46875 33.890625 
L 38.28125 33.890625 
Q 38.09375 38.421875 35.1875 41.34375 
Q 32.28125 44.28125 27.78125 44.28125 
Q 22.015625 44.28125 18.890625 40.109375 
Q 15.765625 35.9375 15.71875 27.4375 
L 15.71875 25.53125 
Q 15.71875 16.9375 18.8125 12.71875 
Q 21.921875 8.5 27.78125 8.5 
z
" id="Roboto-Medium-99"/>
        <path d="M 20.953125 65.671875 
L 20.953125 52.828125 
L 30.28125 52.828125 
L 30.28125 44.046875 
L 20.953125 44.046875 
L 20.953125 14.546875 
Q 20.953125 11.53125 22.140625 10.1875 
Q 23.34375 8.84375 26.421875 8.84375 
Q 28.46875 8.84375 30.5625 9.328125 
L 30.5625 0.140625 
Q 26.515625 -0.984375 22.75 -0.984375 
Q 9.078125 -0.984375 9.078125 14.109375 
L 9.078125 44.046875 
L 0.390625 44.046875 
L 0.390625 52.828125 
L 9.078125 52.828125 
L 9.078125 65.671875 
z
" id="Roboto-Medium-116"/>
       </defs>
       <use xlink:href="#Roboto-Medium-79"/>
       <use x="69.042969" xlink:href="#Roboto-Medium-99"/>
       <use x="121.386719" xlink:href="#Roboto-Medium-116"/>
      </g>
     </g>
    </g>
    <g id="xtick_4">
     <g id="line2d_4">
      <g>
       <use style="stroke:#000000;stroke-width:0.8;" x="298.673815" xlink:href="#mc436d1d6a3" y="262.5"/>
      </g>
     </g>
     <g id="text_3">
      <!-- Jan -->
      <g transform="translate(290.412096 277)scale(0.1 -0.1)">
       <defs>
        <path d="M 37.640625 0 
Q 36.859375 1.515625 36.28125 4.9375 
Q 30.609375 -0.984375 22.40625 -0.984375 
Q 14.453125 -0.984375 9.421875 3.5625 
Q 4.390625 8.109375 4.390625 14.796875 
Q 4.390625 23.25 10.65625 27.765625 
Q 16.9375 32.28125 28.609375 32.28125 
L 35.890625 32.28125 
L 35.890625 35.75 
Q 35.890625 39.84375 33.59375 42.3125 
Q 31.296875 44.78125 26.609375 44.78125 
Q 22.5625 44.78125 19.96875 42.75 
Q 17.390625 40.71875 17.390625 37.59375 
L 5.515625 37.59375 
Q 5.515625 41.9375 8.390625 45.71875 
Q 11.28125 49.515625 16.234375 51.65625 
Q 21.1875 53.8125 27.296875 53.8125 
Q 36.578125 53.8125 42.09375 49.140625 
Q 47.609375 44.484375 47.75 36.03125 
L 47.75 12.203125 
Q 47.75 5.078125 49.75 0.828125 
L 49.75 0 
z
M 24.609375 8.546875 
Q 28.125 8.546875 31.21875 10.25 
Q 34.328125 11.96875 35.890625 14.84375 
L 35.890625 24.8125 
L 29.5 24.8125 
Q 22.90625 24.8125 19.578125 22.515625 
Q 16.265625 20.21875 16.265625 16.015625 
Q 16.265625 12.59375 18.53125 10.5625 
Q 20.796875 8.546875 24.609375 8.546875 
z
" id="Roboto-Medium-97"/>
        <path d="M 17.09375 52.828125 
L 17.4375 46.734375 
Q 23.296875 53.8125 32.8125 53.8125 
Q 49.3125 53.8125 49.609375 34.90625 
L 49.609375 0 
L 37.75 0 
L 37.75 34.234375 
Q 37.75 39.265625 35.578125 41.671875 
Q 33.40625 44.09375 28.46875 44.09375 
Q 21.296875 44.09375 17.78125 37.59375 
L 17.78125 0 
L 5.90625 0 
L 5.90625 52.828125 
z
" id="Roboto-Medium-110"/>
       </defs>
       <use xlink:href="#Roboto-Medium-74"/>
       <use x="55.517578" xlink:href="#Roboto-Medium-97"/>
       <use x="109.619141" xlink:href="#Roboto-Medium-110"/>
      </g>
      <!-- 2021 -->
      <g transform="translate(287.305065 288.03125)scale(0.1 -0.1)">
       <defs>
        <path d="M 53.125 0 
L 5.328125 0 
L 5.328125 8.15625 
L 29 33.984375 
Q 34.125 39.703125 36.296875 43.53125 
Q 38.484375 47.359375 38.484375 51.21875 
Q 38.484375 56.296875 35.625 59.421875 
Q 32.765625 62.546875 27.9375 62.546875 
Q 22.171875 62.546875 19 59.03125 
Q 15.828125 55.515625 15.828125 49.421875 
L 3.953125 49.421875 
Q 3.953125 55.90625 6.90625 61.109375 
Q 9.859375 66.3125 15.34375 69.1875 
Q 20.84375 72.078125 28.03125 72.078125 
Q 38.375 72.078125 44.359375 66.875 
Q 50.34375 61.671875 50.34375 52.484375 
Q 50.34375 47.171875 47.34375 41.328125 
Q 44.34375 35.5 37.5 28.078125 
L 20.125 9.46875 
L 53.125 9.46875 
z
" id="Roboto-Medium-50"/>
        <path d="M 51.65625 29.9375 
Q 51.65625 14.59375 45.921875 6.796875 
Q 40.1875 -0.984375 28.46875 -0.984375 
Q 16.9375 -0.984375 11.109375 6.609375 
Q 5.28125 14.203125 5.125 29.109375 
L 5.125 41.40625 
Q 5.125 56.734375 10.859375 64.40625 
Q 16.609375 72.078125 28.375 72.078125 
Q 40.046875 72.078125 45.78125 64.59375 
Q 51.515625 57.125 51.65625 42.234375 
z
M 39.796875 43.21875 
Q 39.796875 53.21875 37.0625 57.875 
Q 34.328125 62.546875 28.375 62.546875 
Q 22.5625 62.546875 19.828125 58.125 
Q 17.09375 53.71875 16.9375 44.34375 
L 16.9375 28.21875 
Q 16.9375 18.265625 19.71875 13.375 
Q 22.515625 8.5 28.46875 8.5 
Q 34.1875 8.5 36.921875 13.015625 
Q 39.65625 17.53125 39.796875 27.15625 
z
" id="Roboto-Medium-48"/>
        <path d="M 37.453125 0 
L 25.640625 0 
L 25.640625 57.078125 
L 8.203125 51.125 
L 8.203125 61.140625 
L 35.9375 71.34375 
L 37.453125 71.34375 
z
" id="Roboto-Medium-49"/>
       </defs>
       <use xlink:href="#Roboto-Medium-50"/>
       <use x="56.835938" xlink:href="#Roboto-Medium-48"/>
       <use x="113.671875" xlink:href="#Roboto-Medium-50"/>
       <use x="170.507812" xlink:href="#Roboto-Medium-49"/>
      </g>
     </g>
    </g>
    <g id="xtick_5">
     <g id="line2d_5">
      <g>
       <use style="stroke:#000000;stroke-width:0.8;" x="377.39842" xlink:href="#mc436d1d6a3" y="262.5"/>
      </g>
     </g>
     <g id="text_4">
      <!-- Apr -->
      <g transform="translate(369.49842 277)scale(0.1 -0.1)">
       <defs>
        <path d="M 47.015625 16.546875 
L 19.484375 16.546875 
L 13.71875 0 
L 0.875 0 
L 27.734375 71.09375 
L 38.8125 71.09375 
L 65.71875 0 
L 52.828125 0 
z
M 22.953125 26.515625 
L 43.5625 26.515625 
L 33.25 56 
z
" id="Roboto-Medium-65"/>
        <path d="M 52.34375 25.875 
Q 52.34375 13.625 46.78125 6.3125 
Q 41.21875 -0.984375 31.84375 -0.984375 
Q 23.140625 -0.984375 17.921875 4.734375 
L 17.921875 -20.3125 
L 6.0625 -20.3125 
L 6.0625 52.828125 
L 17 52.828125 
L 17.484375 47.46875 
Q 22.703125 53.8125 31.6875 53.8125 
Q 41.359375 53.8125 46.84375 46.609375 
Q 52.34375 39.40625 52.34375 26.609375 
z
M 40.53125 26.90625 
Q 40.53125 34.8125 37.375 39.453125 
Q 34.234375 44.09375 28.375 44.09375 
Q 21.09375 44.09375 17.921875 38.09375 
L 17.921875 14.65625 
Q 21.140625 8.5 28.46875 8.5 
Q 34.125 8.5 37.328125 13.0625 
Q 40.53125 17.625 40.53125 26.90625 
z
" id="Roboto-Medium-112"/>
        <path d="M 33.734375 42 
Q 31.390625 42.390625 28.90625 42.390625 
Q 20.75 42.390625 17.921875 36.140625 
L 17.921875 0 
L 6.0625 0 
L 6.0625 52.828125 
L 17.390625 52.828125 
L 17.671875 46.921875 
Q 21.96875 53.8125 29.59375 53.8125 
Q 32.125 53.8125 33.796875 53.125 
z
" id="Roboto-Medium-114"/>
       </defs>
       <use xlink:href="#Roboto-Medium-65"/>
       <use x="66.552734" xlink:href="#Roboto-Medium-112"/>
       <use x="122.851562" xlink:href="#Roboto-Medium-114"/>
      </g>
     </g>
    </g>
    <g id="xtick_6">
     <g id="line2d_6">
      <g>
       <use style="stroke:#000000;stroke-width:0.8;" x="450" xlink:href="#mc436d1d6a3" y="262.5"/>
      </g>
     </g>
    </g>
    <g id="xtick_7">
     <g id="line2d_7">
      <defs>
       <path d="M 0 0 
L 0 2 
" id="mdbe9379fb8" style="stroke:#000000;stroke-width:0.6;"/>
      </defs>
      <g>
       <use style="stroke:#000000;stroke-width:0.6;" x="84.367946" xlink:href="#mdbe9379fb8" y="262.5"/>
      </g>
     </g>
    </g>
    <g id="xtick_8">
     <g id="line2d_8">
      <g>
       <use style="stroke:#000000;stroke-width:0.6;" x="111.484199" xlink:href="#mdbe9379fb8" y="262.5"/>
      </g>
     </g>
    </g>
    <g id="xtick_9">
     <g id="line2d_9">
      <g>
       <use style="stroke:#000000;stroke-width:0.6;" x="164.841986" xlink:href="#mdbe9379fb8" y="262.5"/>
      </g>
     </g>
    </g>
    <g id="xtick_10">
     <g id="line2d_10">
      <g>
       <use style="stroke:#000000;stroke-width:0.6;" x="191.958239" xlink:href="#mdbe9379fb8" y="262.5"/>
      </g>
     </g>
    </g>
    <g id="xtick_11">
     <g id="line2d_11">
      <g>
       <use style="stroke:#000000;stroke-width:0.6;" x="245.316027" xlink:href="#mdbe9379fb8" y="262.5"/>
      </g>
     </g>
    </g>
    <g id="xtick_12">
     <g id="line2d_12">
      <g>
       <use style="stroke:#000000;stroke-width:0.6;" x="271.557562" xlink:href="#mdbe9379fb8" y="262.5"/>
      </g>
     </g>
    </g>
    <g id="xtick_13">
     <g id="line2d_13">
      <g>
       <use style="stroke:#000000;stroke-width:0.6;" x="325.790068" xlink:href="#mdbe9379fb8" y="262.5"/>
      </g>
     </g>
    </g>
    <g id="xtick_14">
     <g id="line2d_14">
      <g>
       <use style="stroke:#000000;stroke-width:0.6;" x="350.282167" xlink:href="#mdbe9379fb8" y="262.5"/>
      </g>
     </g>
    </g>
    <g id="xtick_15">
     <g id="line2d_15">
      <g>
       <use style="stroke:#000000;stroke-width:0.6;" x="403.639955" xlink:href="#mdbe9379fb8" y="262.5"/>
      </g>
     </g>
    </g>
    <g id="xtick_16">
     <g id="line2d_16">
      <g>
       <use style="stroke:#000000;stroke-width:0.6;" x="430.756208" xlink:href="#mdbe9379fb8" y="262.5"/>
      </g>
     </g>
    </g>
    <g id="text_5">
     <!-- fecha -->
     <g transform="translate(243.774219 301.5625)scale(0.1 -0.1)">
      <defs>
       <path d="M 11.28125 0 
L 11.28125 45.84375 
L 2.9375 45.84375 
L 2.9375 52.828125 
L 11.28125 52.828125 
L 11.28125 58.25 
Q 11.28125 66.75 15.8125 71.390625 
Q 20.359375 76.03125 28.65625 76.03125 
Q 31.78125 76.03125 34.859375 75.203125 
L 34.375 67.875 
Q 32.078125 68.3125 29.5 68.3125 
Q 25.09375 68.3125 22.703125 65.75 
Q 20.3125 63.1875 20.3125 58.40625 
L 20.3125 52.828125 
L 31.59375 52.828125 
L 31.59375 45.84375 
L 20.3125 45.84375 
L 20.3125 0 
z
" id="Roboto-Regular-102"/>
       <path d="M 28.765625 -0.984375 
Q 18.015625 -0.984375 11.28125 6.078125 
Q 4.546875 13.140625 4.546875 24.953125 
L 4.546875 26.609375 
Q 4.546875 34.46875 7.546875 40.640625 
Q 10.546875 46.828125 15.9375 50.3125 
Q 21.34375 53.8125 27.640625 53.8125 
Q 37.9375 53.8125 43.640625 47.015625 
Q 49.359375 40.234375 49.359375 27.59375 
L 49.359375 23.828125 
L 13.578125 23.828125 
Q 13.765625 16.015625 18.140625 11.203125 
Q 22.515625 6.390625 29.25 6.390625 
Q 34.03125 6.390625 37.34375 8.34375 
Q 40.671875 10.296875 43.171875 13.53125 
L 48.6875 9.234375 
Q 42.046875 -0.984375 28.765625 -0.984375 
z
M 27.640625 46.390625 
Q 22.171875 46.390625 18.453125 42.40625 
Q 14.75 38.421875 13.875 31.25 
L 40.328125 31.25 
L 40.328125 31.9375 
Q 39.9375 38.8125 36.609375 42.59375 
Q 33.296875 46.390625 27.640625 46.390625 
z
" id="Roboto-Regular-101"/>
       <path d="M 28.03125 6.390625 
Q 32.859375 6.390625 36.46875 9.3125 
Q 40.09375 12.25 40.484375 16.65625 
L 49.03125 16.65625 
Q 48.78125 12.109375 45.890625 8 
Q 43.015625 3.90625 38.203125 1.453125 
Q 33.40625 -0.984375 28.03125 -0.984375 
Q 17.234375 -0.984375 10.859375 6.21875 
Q 4.5 13.421875 4.5 25.921875 
L 4.5 27.4375 
Q 4.5 35.15625 7.328125 41.15625 
Q 10.15625 47.171875 15.453125 50.484375 
Q 20.75 53.8125 27.984375 53.8125 
Q 36.859375 53.8125 42.75 48.484375 
Q 48.640625 43.171875 49.03125 34.671875 
L 40.484375 34.671875 
Q 40.09375 39.796875 36.59375 43.09375 
Q 33.109375 46.390625 27.984375 46.390625 
Q 21.09375 46.390625 17.3125 41.421875 
Q 13.53125 36.46875 13.53125 27.09375 
L 13.53125 25.390625 
Q 13.53125 16.265625 17.28125 11.328125 
Q 21.046875 6.390625 28.03125 6.390625 
z
" id="Roboto-Regular-99"/>
       <path d="M 15.875 46.4375 
Q 21.875 53.8125 31.5 53.8125 
Q 48.25 53.8125 48.390625 34.90625 
L 48.390625 0 
L 39.359375 0 
L 39.359375 34.96875 
Q 39.3125 40.671875 36.75 43.40625 
Q 34.1875 46.140625 28.765625 46.140625 
Q 24.359375 46.140625 21.03125 43.796875 
Q 17.71875 41.453125 15.875 37.640625 
L 15.875 0 
L 6.84375 0 
L 6.84375 75 
L 15.875 75 
z
" id="Roboto-Regular-104"/>
       <path d="M 39.453125 0 
Q 38.671875 1.5625 38.1875 5.5625 
Q 31.890625 -0.984375 23.140625 -0.984375 
Q 15.328125 -0.984375 10.328125 3.4375 
Q 5.328125 7.859375 5.328125 14.65625 
Q 5.328125 22.90625 11.59375 27.46875 
Q 17.875 32.03125 29.25 32.03125 
L 38.03125 32.03125 
L 38.03125 36.1875 
Q 38.03125 40.921875 35.203125 43.71875 
Q 32.375 46.53125 26.859375 46.53125 
Q 22.015625 46.53125 18.75 44.09375 
Q 15.484375 41.65625 15.484375 38.1875 
L 6.390625 38.1875 
Q 6.390625 42.140625 9.203125 45.828125 
Q 12.015625 49.515625 16.8125 51.65625 
Q 21.625 53.8125 27.390625 53.8125 
Q 36.53125 53.8125 41.703125 49.234375 
Q 46.875 44.671875 47.078125 36.671875 
L 47.078125 12.359375 
Q 47.078125 5.078125 48.921875 0.78125 
L 48.921875 0 
z
M 24.46875 6.890625 
Q 28.71875 6.890625 32.515625 9.078125 
Q 36.328125 11.28125 38.03125 14.796875 
L 38.03125 25.640625 
L 30.953125 25.640625 
Q 14.359375 25.640625 14.359375 15.921875 
Q 14.359375 11.671875 17.1875 9.28125 
Q 20.015625 6.890625 24.46875 6.890625 
z
" id="Roboto-Regular-97"/>
      </defs>
      <use xlink:href="#Roboto-Regular-102"/>
      <use x="34.716797" xlink:href="#Roboto-Regular-101"/>
      <use x="87.695312" xlink:href="#Roboto-Regular-99"/>
      <use x="140.039062" xlink:href="#Roboto-Regular-104"/>
      <use x="195.117188" xlink:href="#Roboto-Regular-97"/>
     </g>
    </g>
   </g>
   <g id="matplotlib.axis_2">
    <g id="ytick_1">
     <g id="line2d_17">
      <defs>
       <path d="M 0 0 
L -3.5 0 
" id="m4c31e3b30a" style="stroke:#000000;stroke-width:0.8;"/>
      </defs>
      <g>
       <use style="stroke:#000000;stroke-width:0.8;" x="62.5" xlink:href="#m4c31e3b30a" y="252.204545"/>
      </g>
     </g>
     <g id="text_6">
      <!-- 0 -->
      <g transform="translate(49.815625 255.954545)scale(0.1 -0.1)">
       <use xlink:href="#Roboto-Medium-48"/>
      </g>
     </g>
    </g>
    <g id="ytick_2">
     <g id="line2d_18">
      <g>
       <use style="stroke:#000000;stroke-width:0.8;" x="62.5" xlink:href="#m4c31e3b30a" y="209.396003"/>
      </g>
     </g>
     <g id="text_7">
      <!-- 100 -->
      <g transform="translate(38.446875 213.146003)scale(0.1 -0.1)">
       <use xlink:href="#Roboto-Medium-49"/>
       <use x="56.835938" xlink:href="#Roboto-Medium-48"/>
       <use x="113.671875" xlink:href="#Roboto-Medium-48"/>
      </g>
     </g>
    </g>
    <g id="ytick_3">
     <g id="line2d_19">
      <g>
       <use style="stroke:#000000;stroke-width:0.8;" x="62.5" xlink:href="#m4c31e3b30a" y="166.58746"/>
      </g>
     </g>
     <g id="text_8">
      <!-- 200 -->
      <g transform="translate(38.446875 170.33746)scale(0.1 -0.1)">
       <use xlink:href="#Roboto-Medium-50"/>
       <use x="56.835938" xlink:href="#Roboto-Medium-48"/>
       <use x="113.671875" xlink:href="#Roboto-Medium-48"/>
      </g>
     </g>
    </g>
    <g id="ytick_4">
     <g id="line2d_20">
      <g>
       <use style="stroke:#000000;stroke-width:0.8;" x="62.5" xlink:href="#m4c31e3b30a" y="123.778917"/>
      </g>
     </g>
     <g id="text_9">
      <!-- 300 -->
      <g transform="translate(38.446875 127.528917)scale(0.1 -0.1)">
       <defs>
        <path d="M 19.046875 40.96875 
L 26.265625 40.96875 
Q 31.734375 41.015625 34.9375 43.796875 
Q 38.140625 46.578125 38.140625 51.859375 
Q 38.140625 56.9375 35.46875 59.734375 
Q 32.8125 62.546875 27.34375 62.546875 
Q 22.5625 62.546875 19.484375 59.78125 
Q 16.40625 57.03125 16.40625 52.59375 
L 4.546875 52.59375 
Q 4.546875 58.0625 7.453125 62.546875 
Q 10.359375 67.046875 15.546875 69.5625 
Q 20.75 72.078125 27.203125 72.078125 
Q 37.84375 72.078125 43.921875 66.71875 
Q 50 61.375 50 51.859375 
Q 50 47.078125 46.9375 42.84375 
Q 43.890625 38.625 39.0625 36.46875 
Q 44.921875 34.46875 47.96875 30.171875 
Q 51.03125 25.875 51.03125 19.921875 
Q 51.03125 10.359375 44.453125 4.6875 
Q 37.890625 -0.984375 27.203125 -0.984375 
Q 16.9375 -0.984375 10.390625 4.484375 
Q 3.859375 9.96875 3.859375 19.046875 
L 15.71875 19.046875 
Q 15.71875 14.359375 18.859375 11.421875 
Q 22.015625 8.5 27.34375 8.5 
Q 32.859375 8.5 36.03125 11.421875 
Q 39.203125 14.359375 39.203125 19.921875 
Q 39.203125 25.53125 35.875 28.5625 
Q 32.5625 31.59375 26.03125 31.59375 
L 19.046875 31.59375 
z
" id="Roboto-Medium-51"/>
       </defs>
       <use xlink:href="#Roboto-Medium-51"/>
       <use x="56.835938" xlink:href="#Roboto-Medium-48"/>
       <use x="113.671875" xlink:href="#Roboto-Medium-48"/>
      </g>
     </g>
    </g>
    <g id="ytick_5">
     <g id="line2d_21">
      <g>
       <use style="stroke:#000000;stroke-width:0.8;" x="62.5" xlink:href="#m4c31e3b30a" y="80.970374"/>
      </g>
     </g>
     <g id="text_10">
      <!-- 400 -->
      <g transform="translate(38.446875 84.720374)scale(0.1 -0.1)">
       <defs>
        <path d="M 45.453125 25.34375 
L 54.296875 25.34375 
L 54.296875 15.828125 
L 45.453125 15.828125 
L 45.453125 0 
L 33.59375 0 
L 33.59375 15.828125 
L 2.875 15.828125 
L 2.546875 23.046875 
L 33.203125 71.09375 
L 45.453125 71.09375 
z
M 14.984375 25.34375 
L 33.59375 25.34375 
L 33.59375 55.03125 
L 32.71875 53.46875 
z
" id="Roboto-Medium-52"/>
       </defs>
       <use xlink:href="#Roboto-Medium-52"/>
       <use x="56.835938" xlink:href="#Roboto-Medium-48"/>
       <use x="113.671875" xlink:href="#Roboto-Medium-48"/>
      </g>
     </g>
    </g>
    <g id="ytick_6">
     <g id="line2d_22">
      <g>
       <use style="stroke:#000000;stroke-width:0.8;" x="62.5" xlink:href="#m4c31e3b30a" y="38.161831"/>
      </g>
     </g>
     <g id="text_11">
      <!-- 500 -->
      <g transform="translate(38.446875 41.911831)scale(0.1 -0.1)">
       <defs>
        <path d="M 8.5 35.25 
L 12.359375 71.09375 
L 50.53125 71.09375 
L 50.53125 60.84375 
L 22.21875 60.84375 
L 20.265625 43.84375 
Q 25.203125 46.6875 31.390625 46.6875 
Q 41.546875 46.6875 47.1875 40.1875 
Q 52.828125 33.6875 52.828125 22.703125 
Q 52.828125 11.859375 46.578125 5.4375 
Q 40.328125 -0.984375 29.4375 -0.984375 
Q 19.671875 -0.984375 13.25 4.5625 
Q 6.84375 10.109375 6.296875 19.1875 
L 17.78125 19.1875 
Q 18.453125 14.015625 21.484375 11.25 
Q 24.515625 8.5 29.390625 8.5 
Q 34.859375 8.5 37.90625 12.40625 
Q 40.96875 16.3125 40.96875 23.046875 
Q 40.96875 29.546875 37.59375 33.328125 
Q 34.234375 37.109375 28.328125 37.109375 
Q 25.09375 37.109375 22.84375 36.25 
Q 20.609375 35.40625 17.96875 32.90625 
z
" id="Roboto-Medium-53"/>
       </defs>
       <use xlink:href="#Roboto-Medium-53"/>
       <use x="56.835938" xlink:href="#Roboto-Medium-48"/>
       <use x="113.671875" xlink:href="#Roboto-Medium-48"/>
      </g>
     </g>
    </g>
   </g>
   <g id="line2d_23">
    <path clip-path="url(#p6ff14986d2)" d="M 63.374718 251.348375 
L 64.249436 250.492204 
L 65.124153 251.77646 
L 65.998871 252.204545 
L 67.748307 252.204545 
L 68.623025 251.348375 
L 69.497743 251.348375 
L 70.37246 250.492204 
L 71.247178 251.77646 
L 72.121896 250.064118 
L 72.996614 249.636033 
L 73.871332 249.636033 
L 74.74605 251.348375 
L 75.620767 251.77646 
L 76.495485 251.348375 
L 77.370203 250.064118 
L 78.244921 250.492204 
L 79.119639 249.636033 
L 79.994357 247.06752 
L 80.869074 251.77646 
L 81.743792 249.207947 
L 82.61851 251.348375 
L 83.493228 250.492204 
L 84.367946 250.064118 
L 85.242664 249.207947 
L 86.117381 248.779862 
L 86.992099 250.920289 
L 87.866817 248.351777 
L 88.741535 250.064118 
L 89.616253 240.218153 
L 90.490971 248.351777 
L 91.365688 251.348375 
L 92.240406 250.920289 
L 93.115124 247.495606 
L 93.989842 250.064118 
L 94.86456 249.207947 
L 95.739278 248.779862 
L 96.613995 245.355179 
L 97.488713 249.636033 
L 98.363431 246.639435 
L 99.238149 250.492204 
L 100.112867 245.783264 
L 100.987585 244.927093 
L 101.862302 250.064118 
L 102.73702 241.930495 
L 104.486456 251.348375 
L 105.361174 244.927093 
L 106.235892 249.636033 
L 107.110609 241.50241 
L 107.985327 237.221555 
L 108.860045 241.930495 
L 109.734763 244.927093 
L 110.609481 242.358581 
L 111.484199 245.355179 
L 112.358916 242.786666 
L 113.233634 239.790068 
L 114.108352 243.214751 
L 114.98307 244.070922 
L 115.857788 243.642837 
L 116.732506 246.211349 
L 117.607223 244.499008 
L 118.481941 235.081128 
L 119.356659 244.070922 
L 120.231377 247.495606 
L 121.106095 242.786666 
L 121.980813 241.074324 
L 122.85553 245.783264 
L 123.730248 245.783264 
L 124.604966 241.50241 
L 125.479684 229.944103 
L 126.354402 227.803676 
L 127.22912 232.512616 
L 128.103837 217.529626 
L 128.978555 227.375591 
L 129.853273 229.087932 
L 130.727991 233.368787 
L 131.602709 218.813882 
L 132.477427 236.365385 
L 133.352144 214.104942 
L 134.226862 222.666651 
L 135.10158 214.104942 
L 135.976298 228.659847 
L 136.851016 201.26238 
L 137.725734 202.11855 
L 138.600451 222.238565 
L 139.475169 221.81048 
L 140.349887 211.53643 
L 141.224605 206.82749 
L 142.099323 214.533028 
L 142.974041 199.978123 
L 143.848758 203.402807 
L 144.723476 208.111746 
L 145.598194 209.396003 
L 146.472912 215.817284 
L 147.34763 194.413013 
L 148.222348 207.683661 
L 149.097065 185.423219 
L 149.971783 177.289596 
L 150.846501 173.436827 
L 151.721219 186.707475 
L 152.595937 189.275988 
L 153.470655 201.690465 
L 154.345372 198.693867 
L 155.22009 160.594264 
L 156.094808 175.149168 
L 156.969526 215.817284 
L 157.844244 140.902334 
L 158.718962 182.426621 
L 159.593679 189.704073 
L 160.468397 167.015545 
L 161.343115 156.741495 
L 162.217833 186.27939 
L 163.092551 158.453837 
L 163.967269 170.868314 
L 164.841986 159.738093 
L 165.716704 193.128756 
L 166.591422 174.292998 
L 167.46614 152.032555 
L 168.340858 164.447033 
L 169.215576 191.416415 
L 170.090293 191.8445 
L 170.965011 198.265782 
L 171.839729 205.971319 
L 172.714447 141.33042 
L 173.589165 162.306606 
L 174.463883 169.584058 
L 175.3386 164.018947 
L 176.213318 193.556842 
L 177.088036 168.299802 
L 177.962754 178.573852 
L 178.837472 176.005339 
L 179.71219 134.052967 
L 180.586907 178.145766 
L 181.461625 179.430023 
L 182.336343 189.275988 
L 183.211061 180.286194 
L 184.085779 148.607872 
L 184.960497 184.567048 
L 185.835214 191.8445 
L 186.709932 208.111746 
L 187.58465 207.255576 
L 188.459368 183.282792 
L 189.334086 194.413013 
L 190.208804 198.693867 
L 191.083521 183.710877 
L 191.958239 179.430023 
L 192.832957 202.974721 
L 193.707675 187.13556 
L 194.582393 214.533028 
L 195.457111 103.230816 
L 196.331828 239.361983 
L 197.206546 187.13556 
L 198.955982 213.676857 
L 199.8307 177.717681 
L 200.705418 214.961113 
L 201.580135 205.543234 
L 202.454853 204.687063 
L 203.329571 218.385797 
L 204.204289 186.27939 
L 205.079007 214.961113 
L 205.953725 212.392601 
L 206.828442 188.419817 
L 207.70316 211.53643 
L 208.577878 221.81048 
L 209.452596 230.372189 
L 210.327314 218.385797 
L 211.202032 208.539832 
L 212.076749 207.683661 
L 212.951467 197.837696 
L 213.826185 233.796872 
L 214.700903 229.516018 
L 215.575621 223.522822 
L 216.450339 216.245369 
L 217.325056 220.954309 
L 218.199774 226.947505 
L 219.074492 198.693867 
L 219.94921 224.378993 
L 220.823928 216.673455 
L 221.698646 234.653043 
L 222.573363 214.104942 
L 223.448081 227.375591 
L 224.322799 204.258978 
L 225.197517 218.813882 
L 226.072235 213.248771 
L 226.946953 232.512616 
L 227.82167 237.649641 
L 228.696388 237.221555 
L 229.571106 232.940701 
L 230.445824 210.680259 
L 231.320542 207.683661 
L 232.19526 232.940701 
L 233.069977 217.529626 
L 233.944695 216.245369 
L 234.819413 226.091334 
L 235.694131 219.670053 
L 236.568849 211.964515 
L 237.443567 215.389199 
L 238.318284 223.950907 
L 239.193002 226.947505 
L 240.06772 214.533028 
L 240.942438 220.526224 
L 241.817156 207.683661 
L 242.691874 210.680259 
L 244.441309 224.378993 
L 245.316027 222.238565 
L 246.190745 227.375591 
L 247.065463 218.385797 
L 247.940181 217.10154 
L 248.814898 217.957711 
L 249.689616 225.235163 
L 250.564334 223.950907 
L 251.439052 221.81048 
L 252.31377 227.803676 
L 253.188488 224.378993 
L 254.063205 216.673455 
L 254.937923 220.098138 
L 255.812641 232.512616 
L 256.687359 231.228359 
L 257.562077 235.937299 
L 258.436795 219.670053 
L 259.311512 211.108344 
L 260.18623 215.389199 
L 261.060948 216.245369 
L 261.935666 220.098138 
L 262.810384 221.81048 
L 263.685102 232.08453 
L 265.434537 206.399405 
L 266.309255 198.693867 
L 267.183973 204.687063 
L 268.058691 194.841098 
L 268.933409 217.957711 
L 269.808126 212.820686 
L 270.682844 217.957711 
L 271.557562 204.258978 
L 273.306998 223.094736 
L 274.181716 202.546636 
L 275.056433 215.817284 
L 275.931151 223.094736 
L 276.805869 205.543234 
L 277.680587 213.676857 
L 278.555305 201.26238 
L 279.430023 207.683661 
L 280.30474 199.978123 
L 281.179458 182.854706 
L 282.054176 214.961113 
L 282.928894 218.385797 
L 283.803612 187.563646 
L 284.67833 161.87852 
L 285.553047 196.55344 
L 286.427765 190.988329 
L 287.302483 196.125354 
L 288.177201 207.255576 
L 289.051919 212.820686 
L 289.926637 164.447033 
L 290.801354 195.269184 
L 291.676072 181.57045 
L 292.55079 207.683661 
L 293.425508 203.830892 
L 294.300226 196.125354 
L 295.174944 193.128756 
L 296.049661 162.734691 
L 296.924379 160.166178 
L 297.799097 181.57045 
L 298.673815 218.385797 
L 299.548533 197.837696 
L 300.423251 171.724485 
L 301.297968 176.005339 
L 302.172686 149.892128 
L 303.047404 133.196796 
L 303.922122 140.902334 
L 304.79684 138.333822 
L 305.671558 188.847902 
L 306.546275 198.693867 
L 307.420993 191.8445 
L 308.295711 124.207002 
L 310.045147 174.721083 
L 310.919865 147.323616 
L 311.794582 157.597666 
L 312.6693 130.628284 
L 313.544018 177.717681 
L 314.418736 149.464043 
L 315.293454 154.601068 
L 316.168172 139.189992 
L 317.042889 134.481053 
L 317.917607 171.2964 
L 318.792325 172.580656 
L 319.667043 154.172982 
L 320.541761 175.577254 
L 321.416479 129.772113 
L 322.291196 190.988329 
L 323.165914 214.961113 
L 324.040632 204.258978 
L 324.91535 187.563646 
L 327.539503 218.813882 
L 328.414221 208.111746 
L 329.288939 224.807078 
L 330.163657 232.08453 
L 331.038375 232.512616 
L 331.913093 225.663249 
L 332.78781 211.53643 
L 333.662528 226.091334 
L 334.537246 229.516018 
L 335.411964 225.235163 
L 337.1614 229.516018 
L 338.036117 230.800274 
L 338.910835 228.659847 
L 339.785553 228.231761 
L 340.660271 231.228359 
L 341.534989 228.659847 
L 343.284424 238.077726 
L 344.159142 238.505812 
L 345.03386 235.937299 
L 345.908578 229.516018 
L 346.783296 232.512616 
L 347.658014 237.221555 
L 348.532731 240.646239 
L 349.407449 233.368787 
L 350.282167 239.361983 
L 351.156885 237.221555 
L 352.031603 238.505812 
L 352.906321 236.79347 
L 353.781038 236.79347 
L 354.655756 240.646239 
L 356.405192 238.077726 
L 357.27991 243.642837 
L 358.154628 238.505812 
L 359.029345 235.509214 
L 359.904063 230.372189 
L 360.778781 240.646239 
L 361.653499 239.361983 
L 363.402935 240.218153 
L 364.277652 238.933897 
L 365.15237 241.930495 
L 366.027088 240.218153 
L 366.901806 234.224957 
L 367.776524 241.50241 
L 368.651242 235.937299 
L 369.525959 231.656445 
L 370.400677 238.505812 
L 371.275395 228.659847 
L 372.150113 227.803676 
L 373.024831 230.800274 
L 373.899549 235.081128 
L 374.774266 229.944103 
L 375.648984 231.228359 
L 376.523702 217.957711 
L 377.39842 226.947505 
L 378.273138 229.087932 
L 379.147856 227.803676 
L 380.022573 229.944103 
L 380.897291 225.235163 
L 381.772009 192.700671 
L 382.646727 213.248771 
L 383.521445 214.961113 
L 384.396163 199.550038 
L 385.27088 200.406209 
L 386.145598 222.238565 
L 387.020316 176.86151 
L 387.895034 186.27939 
L 388.769752 157.597666 
L 389.64447 204.687063 
L 390.519187 183.282792 
L 391.393905 202.974721 
L 392.268623 206.399405 
L 393.143341 132.340626 
L 394.018059 169.584058 
L 394.892777 184.995133 
L 395.767494 175.577254 
L 396.642212 176.005339 
L 397.51693 191.416415 
L 398.391648 213.676857 
L 399.266366 163.590862 
L 400.141084 138.761907 
L 401.015801 200.834294 
L 401.890519 166.58746 
L 402.765237 173.436827 
L 403.639955 184.138962 
L 404.514673 171.2964 
L 405.389391 170.012143 
L 406.264108 171.2964 
L 407.138826 193.556842 
L 408.013544 117.785721 
L 408.888262 174.721083 
L 409.76298 173.008741 
L 410.637698 180.714279 
L 411.512415 148.179786 
L 412.387133 163.590862 
L 413.261851 119.926148 
L 414.136569 173.436827 
L 415.011287 186.707475 
L 415.886005 135.337224 
L 416.760722 199.550038 
L 417.63544 181.142364 
L 418.510158 179.858108 
L 419.384876 154.172982 
L 420.259594 134.481053 
L 421.134312 118.213806 
L 422.009029 78.829947 
L 422.883747 136.62148 
L 423.758465 138.333822 
L 424.633183 62.562701 
L 425.507901 131.484455 
L 426.382619 110.508269 
L 427.257336 107.939756 
L 428.132054 69.840153 
L 429.006772 161.87852 
L 429.88149 126.775515 
L 430.756208 75.833349 
L 431.630926 94.669108 
L 432.505643 85.251229 
L 433.380361 86.107399 
L 434.255079 66.843555 
L 435.129797 144.327018 
L 436.004515 132.340626 
L 436.879233 130.628284 
L 437.75395 100.234218 
L 438.628668 155.029153 
L 439.503386 105.371244 
L 440.378104 89.103997 
L 441.252822 118.641892 
L 442.12754 127.631686 
L 443.002257 87.391656 
L 443.876975 88.247826 
L 444.751693 103.658902 
L 445.626411 46.295455 
L 446.501129 124.207002 
L 447.375847 148.179786 
L 448.250564 137.049565 
L 449.125282 116.073379 
L 450 202.974721 
L 450 202.974721 
" style="fill:none;stroke:#000000;stroke-dasharray:1.5,2.475;stroke-dashoffset:0;stroke-opacity:0.5;stroke-width:1.5;"/>
   </g>
   <g id="line2d_24">
    <path clip-path="url(#p6ff14986d2)" d="M 62.5 251.348375 
L 64.249436 251.348375 
L 65.124153 251.77646 
L 68.623025 251.77646 
L 71.247178 250.492204 
L 74.74605 250.492204 
L 75.620767 250.920289 
L 76.495485 250.920289 
L 79.119639 249.636033 
L 79.994357 249.636033 
L 80.869074 250.064118 
L 84.367946 250.064118 
L 85.242664 249.636033 
L 86.117381 249.636033 
L 86.992099 248.351777 
L 87.866817 247.923691 
L 88.741535 247.923691 
L 89.616253 248.351777 
L 90.490971 247.923691 
L 92.240406 248.779862 
L 93.115124 249.636033 
L 95.739278 248.351777 
L 96.613995 248.351777 
L 98.363431 247.495606 
L 99.238149 247.495606 
L 100.987585 246.639435 
L 101.862302 247.06752 
L 102.73702 246.639435 
L 103.611738 247.06752 
L 104.486456 246.639435 
L 105.361174 245.355179 
L 106.235892 244.927093 
L 107.110609 244.070922 
L 107.985327 242.786666 
L 108.860045 242.786666 
L 109.734763 242.358581 
L 110.609481 242.358581 
L 112.358916 243.214751 
L 113.233634 242.786666 
L 114.98307 243.642837 
L 115.857788 242.786666 
L 116.732506 243.214751 
L 118.481941 243.214751 
L 119.356659 242.786666 
L 120.231377 243.214751 
L 121.106095 243.214751 
L 121.980813 244.070922 
L 122.85553 242.358581 
L 123.730248 239.790068 
L 124.604966 238.077726 
L 126.354402 231.228359 
L 127.22912 228.659847 
L 128.103837 227.803676 
L 128.978555 226.51942 
L 129.853273 227.375591 
L 130.727991 226.091334 
L 131.602709 226.091334 
L 132.477427 224.378993 
L 133.352144 223.522822 
L 135.10158 217.10154 
L 135.976298 214.961113 
L 136.851016 214.961113 
L 139.475169 212.392601 
L 140.349887 211.964515 
L 141.224605 211.108344 
L 142.099323 208.967917 
L 142.974041 207.255576 
L 143.848758 207.683661 
L 145.598194 205.971319 
L 146.472912 204.258978 
L 147.34763 200.834294 
L 148.222348 195.269184 
L 149.097065 190.560244 
L 149.971783 186.707475 
L 151.721219 186.707475 
L 152.595937 185.851304 
L 153.470655 185.423219 
L 154.345372 188.847902 
L 155.22009 183.710877 
L 156.969526 179.430023 
L 157.844244 176.86151 
L 158.718962 175.577254 
L 159.593679 175.577254 
L 160.468397 170.440229 
L 161.343115 172.580656 
L 162.217833 169.584058 
L 163.092551 169.584058 
L 163.967269 171.2964 
L 164.841986 170.868314 
L 165.716704 168.727887 
L 166.591422 171.724485 
L 167.46614 174.292998 
L 168.340858 178.573852 
L 169.215576 181.998535 
L 170.090293 181.57045 
L 170.965011 181.998535 
L 171.839729 180.286194 
L 172.714447 175.149168 
L 173.589165 173.436827 
L 174.463883 170.440229 
L 175.3386 169.155972 
L 176.213318 173.864912 
L 177.088036 171.2964 
L 177.962754 170.868314 
L 178.837472 170.868314 
L 179.71219 170.440229 
L 180.586907 172.580656 
L 181.461625 170.868314 
L 182.336343 172.580656 
L 183.211061 178.145766 
L 184.085779 181.142364 
L 184.960497 185.423219 
L 185.835214 187.13556 
L 186.709932 190.560244 
L 187.58465 196.125354 
L 188.459368 195.697269 
L 189.334086 193.556842 
L 191.083521 190.132158 
L 191.958239 193.128756 
L 192.832957 184.138962 
L 193.707675 186.707475 
L 194.582393 186.707475 
L 196.331828 190.988329 
L 197.206546 191.8445 
L 198.081264 193.984927 
L 198.955982 203.830892 
L 199.8307 200.834294 
L 200.705418 204.258978 
L 201.580135 203.830892 
L 202.454853 204.258978 
L 203.329571 207.683661 
L 204.204289 204.687063 
L 205.079007 205.115148 
L 205.953725 206.82749 
L 206.828442 208.967917 
L 207.70316 213.248771 
L 208.577878 214.104942 
L 210.327314 214.961113 
L 211.202032 215.817284 
L 212.076749 216.245369 
L 212.951467 216.245369 
L 213.826185 217.529626 
L 214.700903 219.670053 
L 215.575621 222.238565 
L 216.450339 221.382395 
L 218.199774 217.957711 
L 219.074492 218.813882 
L 219.94921 219.241967 
L 220.823928 220.098138 
L 221.698646 218.813882 
L 222.573363 220.098138 
L 223.448081 218.385797 
L 225.197517 220.098138 
L 226.072235 223.522822 
L 226.946953 226.091334 
L 227.82167 227.803676 
L 228.696388 226.51942 
L 229.571106 226.947505 
L 230.445824 224.378993 
L 231.320542 221.382395 
L 232.19526 220.098138 
L 233.069977 219.241967 
L 233.944695 219.670053 
L 234.819413 219.670053 
L 235.694131 218.813882 
L 236.568849 219.670053 
L 237.443567 219.670053 
L 238.318284 219.241967 
L 240.06772 217.529626 
L 242.691874 216.245369 
L 243.566591 218.385797 
L 244.441309 219.241967 
L 245.316027 220.526224 
L 246.190745 221.382395 
L 248.814898 221.382395 
L 249.689616 221.81048 
L 250.564334 222.666651 
L 251.439052 223.094736 
L 252.31377 223.094736 
L 253.188488 223.522822 
L 254.063205 224.378993 
L 254.937923 226.091334 
L 255.812641 226.091334 
L 256.687359 225.235163 
L 257.562077 224.807078 
L 258.436795 223.094736 
L 259.311512 220.526224 
L 260.18623 218.813882 
L 261.060948 218.813882 
L 261.935666 219.670053 
L 262.810384 219.670053 
L 264.559819 215.389199 
L 265.434537 211.108344 
L 266.309255 208.967917 
L 267.183973 206.399405 
L 268.933409 208.111746 
L 269.808126 209.824088 
L 270.682844 212.392601 
L 271.557562 213.248771 
L 272.43228 212.820686 
L 273.306998 213.676857 
L 274.181716 213.248771 
L 275.056433 214.104942 
L 276.805869 210.680259 
L 277.680587 209.396003 
L 278.555305 205.115148 
L 279.430023 203.402807 
L 280.30474 204.258978 
L 281.179458 202.11855 
L 282.054176 197.837696 
L 283.803612 193.556842 
L 284.67833 193.128756 
L 285.553047 191.8445 
L 286.427765 193.128756 
L 287.302483 192.700671 
L 288.177201 195.697269 
L 289.051919 193.556842 
L 290.801354 194.413013 
L 291.676072 193.556842 
L 292.55079 193.128756 
L 293.425508 193.128756 
L 294.300226 188.419817 
L 295.174944 185.851304 
L 296.049661 184.995133 
L 298.673815 183.710877 
L 299.548533 182.426621 
L 300.423251 177.289596 
L 301.297968 168.727887 
L 302.172686 157.16958 
L 303.047404 154.172982 
L 303.922122 157.16958 
L 304.79684 161.87852 
L 305.671558 163.162776 
L 306.546275 165.303204 
L 307.420993 167.871716 
L 308.295711 166.159374 
L 309.170429 161.022349 
L 310.045147 153.316812 
L 310.919865 152.032555 
L 311.794582 154.601068 
L 312.6693 155.029153 
L 313.544018 152.032555 
L 314.418736 150.320214 
L 315.293454 150.748299 
L 316.168172 154.601068 
L 317.042889 153.316812 
L 317.917607 157.16958 
L 318.792325 156.31341 
L 319.667043 161.450435 
L 320.541761 170.012143 
L 322.291196 180.286194 
L 323.165914 187.563646 
L 324.040632 193.128756 
L 324.91535 202.546636 
L 326.664786 206.82749 
L 327.539503 211.108344 
L 328.414221 217.529626 
L 329.288939 221.81048 
L 330.163657 223.094736 
L 331.038375 223.950907 
L 331.913093 225.663249 
L 333.662528 224.807078 
L 334.537246 224.807078 
L 335.411964 226.091334 
L 336.286682 228.231761 
L 337.1614 228.659847 
L 338.036117 228.659847 
L 338.910835 229.087932 
L 340.660271 230.800274 
L 342.409707 233.368787 
L 343.284424 234.224957 
L 344.159142 234.224957 
L 345.03386 235.081128 
L 345.908578 235.509214 
L 346.783296 235.081128 
L 348.532731 235.937299 
L 349.407449 237.221555 
L 350.282167 237.649641 
L 352.031603 237.649641 
L 352.906321 238.077726 
L 353.781038 238.077726 
L 354.655756 238.933897 
L 355.530474 239.361983 
L 356.405192 239.361983 
L 357.27991 238.505812 
L 359.029345 237.649641 
L 360.778781 237.649641 
L 361.653499 238.077726 
L 362.528217 238.933897 
L 363.402935 240.218153 
L 364.277652 239.361983 
L 365.15237 239.361983 
L 366.027088 238.933897 
L 366.901806 238.077726 
L 367.776524 237.649641 
L 369.525959 234.224957 
L 372.150113 231.656445 
L 373.024831 231.656445 
L 373.899549 229.516018 
L 375.648984 228.659847 
L 376.523702 227.803676 
L 378.273138 226.947505 
L 379.147856 223.094736 
L 380.022573 221.382395 
L 380.897291 218.813882 
L 381.772009 214.104942 
L 382.646727 210.252174 
L 383.521445 208.967917 
L 384.396163 204.258978 
L 385.27088 202.546636 
L 386.145598 195.269184 
L 387.895034 188.847902 
L 388.769752 187.991731 
L 389.64447 187.563646 
L 390.519187 184.567048 
L 391.393905 182.426621 
L 392.268623 182.854706 
L 393.143341 178.145766 
L 394.018059 176.005339 
L 394.892777 175.149168 
L 395.767494 178.145766 
L 396.642212 182.854706 
L 397.51693 180.286194 
L 398.391648 180.286194 
L 400.141084 176.86151 
L 401.015801 175.577254 
L 401.890519 172.15257 
L 402.765237 173.436827 
L 403.639955 176.005339 
L 404.514673 175.577254 
L 405.389391 170.440229 
L 406.264108 169.155972 
L 407.138826 167.015545 
L 408.013544 167.443631 
L 408.888262 165.303204 
L 409.76298 164.447033 
L 410.637698 157.597666 
L 411.512415 161.022349 
L 412.387133 161.022349 
L 413.261851 157.597666 
L 414.136569 160.166178 
L 415.011287 165.303204 
L 415.886005 169.155972 
L 416.760722 173.864912 
L 417.63544 169.584058 
L 418.510158 161.022349 
L 419.384876 150.748299 
L 420.259594 138.761907 
L 421.134312 130.628284 
L 422.009029 117.357636 
L 422.883747 113.504867 
L 423.758465 110.936354 
L 424.633183 110.080183 
L 425.507901 108.367842 
L 426.382619 109.652098 
L 427.257336 110.080183 
L 428.132054 112.22061 
L 429.006772 108.367842 
L 429.88149 105.371244 
L 430.756208 101.090389 
L 432.505643 93.812937 
L 433.380361 95.953364 
L 434.255079 104.515073 
L 435.129797 108.367842 
L 436.004515 117.785721 
L 436.879233 121.63849 
L 437.75395 122.922746 
L 438.628668 118.641892 
L 439.503386 116.92955 
L 440.378104 112.22061 
L 441.252822 109.652098 
L 442.12754 103.658902 
L 443.002257 96.809535 
L 443.876975 97.23762 
L 444.751693 99.378048 
L 445.626411 102.802731 
L 446.501129 109.652098 
L 447.375847 124.635088 
L 448.250564 132.768711 
L 449.125282 146.89553 
L 450 152.888726 
L 450 152.888726 
" style="fill:none;stroke:#b3220f;stroke-linecap:square;stroke-width:1.5;"/>
   </g>
   <g id="patch_3">
    <path d="M 62.5 262.5 
L 62.5 36 
" style="fill:none;stroke:#000000;stroke-linecap:square;stroke-linejoin:miter;stroke-width:0.8;"/>
   </g>
   <g id="patch_4">
    <path d="M 450 262.5 
L 450 36 
" style="fill:none;stroke:#000000;stroke-linecap:square;stroke-linejoin:miter;stroke-width:0.8;"/>
   </g>
   <g id="patch_5">
    <path d="M 62.5 262.5 
L 450 262.5 
" style="fill:none;stroke:#000000;stroke-linecap:square;stroke-linejoin:miter;stroke-width:0.8;"/>
   </g>
   <g id="patch_6">
    <path d="M 62.5 36 
L 450 36 
" style="fill:none;stroke:#000000;stroke-linecap:square;stroke-linejoin:miter;stroke-width:0.8;"/>
   </g>
   <g id="text_12">
    <!-- San Cristóbal | Casos nuevos: 2021-06-23 -->
    <g transform="translate(145.559375 30)scale(0.12 -0.12)">
     <defs>
      <path d="M 29.203125 31.6875 
Q 17.140625 35.15625 11.640625 40.203125 
Q 6.15625 45.265625 6.15625 52.6875 
Q 6.15625 61.078125 12.859375 66.578125 
Q 19.578125 72.078125 30.328125 72.078125 
Q 37.640625 72.078125 43.375 69.234375 
Q 49.125 66.40625 52.265625 61.421875 
Q 55.421875 56.453125 55.421875 50.53125 
L 46 50.53125 
Q 46 56.984375 41.890625 60.671875 
Q 37.796875 64.359375 30.328125 64.359375 
Q 23.390625 64.359375 19.5 61.296875 
Q 15.625 58.25 15.625 52.828125 
Q 15.625 48.484375 19.3125 45.484375 
Q 23 42.484375 31.859375 39.984375 
Q 40.71875 37.5 45.71875 34.5 
Q 50.734375 31.5 53.140625 27.484375 
Q 55.5625 23.484375 55.5625 18.0625 
Q 55.5625 9.421875 48.828125 4.21875 
Q 42.09375 -0.984375 30.8125 -0.984375 
Q 23.484375 -0.984375 17.140625 1.828125 
Q 10.796875 4.640625 7.34375 9.515625 
Q 3.90625 14.40625 3.90625 20.609375 
L 13.328125 20.609375 
Q 13.328125 14.15625 18.09375 10.421875 
Q 22.859375 6.6875 30.8125 6.6875 
Q 38.234375 6.6875 42.1875 9.71875 
Q 46.140625 12.75 46.140625 17.96875 
Q 46.140625 23.1875 42.46875 26.046875 
Q 38.8125 28.90625 29.203125 31.6875 
z
" id="Roboto-Regular-83"/>
      <path d="M 15.375 52.828125 
L 15.671875 46.1875 
Q 21.734375 53.8125 31.5 53.8125 
Q 48.25 53.8125 48.390625 34.90625 
L 48.390625 0 
L 39.359375 0 
L 39.359375 34.96875 
Q 39.3125 40.671875 36.75 43.40625 
Q 34.1875 46.140625 28.765625 46.140625 
Q 24.359375 46.140625 21.03125 43.796875 
Q 17.71875 41.453125 15.875 37.640625 
L 15.875 0 
L 6.84375 0 
L 6.84375 52.828125 
z
" id="Roboto-Regular-110"/>
      <path id="Roboto-Regular-32"/>
      <path d="M 60.546875 22.5625 
Q 59.234375 11.28125 52.21875 5.140625 
Q 45.21875 -0.984375 33.59375 -0.984375 
Q 21 -0.984375 13.40625 8.046875 
Q 5.8125 17.09375 5.8125 32.234375 
L 5.8125 39.0625 
Q 5.8125 48.96875 9.34375 56.484375 
Q 12.890625 64.015625 19.375 68.046875 
Q 25.875 72.078125 34.421875 72.078125 
Q 45.75 72.078125 52.578125 65.75 
Q 59.421875 59.421875 60.546875 48.25 
L 51.125 48.25 
Q 49.90625 56.734375 45.828125 60.546875 
Q 41.75 64.359375 34.421875 64.359375 
Q 25.4375 64.359375 20.328125 57.71875 
Q 15.234375 51.078125 15.234375 38.8125 
L 15.234375 31.9375 
Q 15.234375 20.359375 20.0625 13.515625 
Q 24.90625 6.6875 33.59375 6.6875 
Q 41.40625 6.6875 45.578125 10.21875 
Q 49.75 13.765625 51.125 22.5625 
z
" id="Roboto-Regular-67"/>
      <path d="M 32.375 44.734375 
Q 30.328125 45.0625 27.9375 45.0625 
Q 19.046875 45.0625 15.875 37.5 
L 15.875 0 
L 6.84375 0 
L 6.84375 52.828125 
L 15.625 52.828125 
L 15.765625 46.734375 
Q 20.21875 53.8125 28.375 53.8125 
Q 31 53.8125 32.375 53.125 
z
" id="Roboto-Regular-114"/>
      <path d="M 16.65625 0 
L 7.625 0 
L 7.625 52.828125 
L 16.65625 52.828125 
z
M 6.890625 66.84375 
Q 6.890625 69.046875 8.234375 70.5625 
Q 9.578125 72.078125 12.203125 72.078125 
Q 14.84375 72.078125 16.203125 70.5625 
Q 17.578125 69.046875 17.578125 66.84375 
Q 17.578125 64.65625 16.203125 63.1875 
Q 14.84375 61.71875 12.203125 61.71875 
Q 9.578125 61.71875 8.234375 63.1875 
Q 6.890625 64.65625 6.890625 66.84375 
z
" id="Roboto-Regular-105"/>
      <path d="M 37.59375 14.015625 
Q 37.59375 17.671875 34.828125 19.703125 
Q 32.078125 21.734375 25.21875 23.1875 
Q 18.359375 24.65625 14.328125 26.703125 
Q 10.296875 28.765625 8.375 31.59375 
Q 6.453125 34.421875 6.453125 38.328125 
Q 6.453125 44.828125 11.9375 49.3125 
Q 17.4375 53.8125 25.984375 53.8125 
Q 34.96875 53.8125 40.546875 49.171875 
Q 46.140625 44.53125 46.140625 37.3125 
L 37.0625 37.3125 
Q 37.0625 41.015625 33.90625 43.703125 
Q 30.765625 46.390625 25.984375 46.390625 
Q 21.046875 46.390625 18.265625 44.234375 
Q 15.484375 42.09375 15.484375 38.625 
Q 15.484375 35.359375 18.0625 33.6875 
Q 20.65625 32.03125 27.421875 30.515625 
Q 34.1875 29 38.375 26.90625 
Q 42.578125 24.8125 44.59375 21.84375 
Q 46.625 18.890625 46.625 14.65625 
Q 46.625 7.5625 40.953125 3.28125 
Q 35.296875 -0.984375 26.265625 -0.984375 
Q 19.921875 -0.984375 15.03125 1.265625 
Q 10.15625 3.515625 7.390625 7.546875 
Q 4.640625 11.578125 4.640625 16.265625 
L 13.671875 16.265625 
Q 13.921875 11.71875 17.3125 9.046875 
Q 20.703125 6.390625 26.265625 6.390625 
Q 31.390625 6.390625 34.484375 8.46875 
Q 37.59375 10.546875 37.59375 14.015625 
z
" id="Roboto-Regular-115"/>
      <path d="M 19.09375 65.625 
L 19.09375 52.828125 
L 28.953125 52.828125 
L 28.953125 45.84375 
L 19.09375 45.84375 
L 19.09375 13.09375 
Q 19.09375 9.90625 20.40625 8.3125 
Q 21.734375 6.734375 24.90625 6.734375 
Q 26.46875 6.734375 29.203125 7.328125 
L 29.203125 0 
Q 25.640625 -0.984375 22.265625 -0.984375 
Q 16.21875 -0.984375 13.140625 2.671875 
Q 10.0625 6.34375 10.0625 13.09375 
L 10.0625 45.84375 
L 0.4375 45.84375 
L 0.4375 52.828125 
L 10.0625 52.828125 
L 10.0625 65.625 
z
" id="Roboto-Regular-116"/>
      <path d="M 4.4375 26.90625 
Q 4.4375 34.671875 7.484375 40.875 
Q 10.546875 47.078125 15.984375 50.4375 
Q 21.4375 53.8125 28.421875 53.8125 
Q 39.203125 53.8125 45.875 46.34375 
Q 52.546875 38.875 52.546875 26.46875 
L 52.546875 25.828125 
Q 52.546875 18.109375 49.578125 11.984375 
Q 46.625 5.859375 41.125 2.4375 
Q 35.640625 -0.984375 28.515625 -0.984375 
Q 17.78125 -0.984375 11.109375 6.484375 
Q 4.4375 13.96875 4.4375 26.265625 
z
M 13.53125 25.828125 
Q 13.53125 17.046875 17.609375 11.71875 
Q 21.6875 6.390625 28.515625 6.390625 
Q 35.40625 6.390625 39.453125 11.78125 
Q 43.5 17.1875 43.5 26.90625 
Q 43.5 35.59375 39.375 40.984375 
Q 35.25 46.390625 28.421875 46.390625 
Q 21.734375 46.390625 17.625 41.0625 
Q 13.53125 35.75 13.53125 25.828125 
z
M 32.515625 75 
L 43.453125 75 
L 30.375 60.640625 
L 23.09375 60.640625 
z
" id="Roboto-Regular-243"/>
      <path d="M 51.5625 25.828125 
Q 51.5625 13.71875 46 6.359375 
Q 40.4375 -0.984375 31.0625 -0.984375 
Q 21.046875 -0.984375 15.578125 6.109375 
L 15.140625 0 
L 6.84375 0 
L 6.84375 75 
L 15.875 75 
L 15.875 47.015625 
Q 21.34375 53.8125 30.953125 53.8125 
Q 40.578125 53.8125 46.0625 46.53125 
Q 51.5625 39.265625 51.5625 26.609375 
z
M 42.53125 26.859375 
Q 42.53125 36.078125 38.96875 41.109375 
Q 35.40625 46.140625 28.71875 46.140625 
Q 19.78125 46.140625 15.875 37.84375 
L 15.875 14.984375 
Q 20.015625 6.6875 28.8125 6.6875 
Q 35.296875 6.6875 38.90625 11.71875 
Q 42.53125 16.75 42.53125 26.859375 
z
" id="Roboto-Regular-98"/>
      <path d="M 16.65625 0 
L 7.625 0 
L 7.625 75 
L 16.65625 75 
z
" id="Roboto-Regular-108"/>
      <path d="M 15.828125 -13.1875 
L 8.546875 -13.1875 
L 8.546875 71.09375 
L 15.828125 71.09375 
z
" id="Roboto-Regular-124"/>
      <path d="M 4.4375 26.90625 
Q 4.4375 34.671875 7.484375 40.875 
Q 10.546875 47.078125 15.984375 50.4375 
Q 21.4375 53.8125 28.421875 53.8125 
Q 39.203125 53.8125 45.875 46.34375 
Q 52.546875 38.875 52.546875 26.46875 
L 52.546875 25.828125 
Q 52.546875 18.109375 49.578125 11.984375 
Q 46.625 5.859375 41.125 2.4375 
Q 35.640625 -0.984375 28.515625 -0.984375 
Q 17.78125 -0.984375 11.109375 6.484375 
Q 4.4375 13.96875 4.4375 26.265625 
z
M 13.53125 25.828125 
Q 13.53125 17.046875 17.609375 11.71875 
Q 21.6875 6.390625 28.515625 6.390625 
Q 35.40625 6.390625 39.453125 11.78125 
Q 43.5 17.1875 43.5 26.90625 
Q 43.5 35.59375 39.375 40.984375 
Q 35.25 46.390625 28.421875 46.390625 
Q 21.734375 46.390625 17.625 41.0625 
Q 13.53125 35.75 13.53125 25.828125 
z
" id="Roboto-Regular-111"/>
      <path d="M 39.453125 5.21875 
Q 34.1875 -0.984375 23.96875 -0.984375 
Q 15.53125 -0.984375 11.109375 3.921875 
Q 6.6875 8.84375 6.640625 18.453125 
L 6.640625 52.828125 
L 15.671875 52.828125 
L 15.671875 18.703125 
Q 15.671875 6.6875 25.4375 6.6875 
Q 35.796875 6.6875 39.203125 14.40625 
L 39.203125 52.828125 
L 48.25 52.828125 
L 48.25 0 
L 39.65625 0 
z
" id="Roboto-Regular-117"/>
      <path d="M 24.265625 12.25 
L 37.359375 52.828125 
L 46.578125 52.828125 
L 27.640625 0 
L 20.75 0 
L 1.609375 52.828125 
L 10.84375 52.828125 
z
" id="Roboto-Regular-118"/>
      <path d="M 6.546875 4.734375 
Q 6.546875 7.078125 7.9375 8.640625 
Q 9.328125 10.203125 12.109375 10.203125 
Q 14.890625 10.203125 16.328125 8.640625 
Q 17.78125 7.078125 17.78125 4.734375 
Q 17.78125 2.484375 16.328125 0.96875 
Q 14.890625 -0.53125 12.109375 -0.53125 
Q 9.328125 -0.53125 7.9375 0.96875 
Q 6.546875 2.484375 6.546875 4.734375 
z
M 6.59375 47.84375 
Q 6.59375 50.1875 7.984375 51.75 
Q 9.375 53.3125 12.15625 53.3125 
Q 14.9375 53.3125 16.375 51.75 
Q 17.828125 50.1875 17.828125 47.84375 
Q 17.828125 45.59375 16.375 44.078125 
Q 14.9375 42.578125 12.15625 42.578125 
Q 9.375 42.578125 7.984375 44.078125 
Q 6.59375 45.59375 6.59375 47.84375 
z
" id="Roboto-Regular-58"/>
      <path d="M 52.484375 0 
L 5.90625 0 
L 5.90625 6.5 
L 30.515625 33.84375 
Q 35.984375 40.046875 38.0625 43.921875 
Q 40.140625 47.796875 40.140625 51.953125 
Q 40.140625 57.515625 36.765625 61.078125 
Q 33.40625 64.65625 27.78125 64.65625 
Q 21.046875 64.65625 17.3125 60.8125 
Q 13.578125 56.984375 13.578125 50.140625 
L 4.546875 50.140625 
Q 4.546875 59.96875 10.859375 66.015625 
Q 17.1875 72.078125 27.78125 72.078125 
Q 37.703125 72.078125 43.453125 66.875 
Q 49.21875 61.671875 49.21875 53.03125 
Q 49.21875 42.53125 35.84375 28.03125 
L 16.796875 7.375 
L 52.484375 7.375 
z
" id="Roboto-Regular-50"/>
      <path d="M 50.484375 30.328125 
Q 50.484375 14.453125 45.0625 6.734375 
Q 39.65625 -0.984375 28.125 -0.984375 
Q 16.75 -0.984375 11.28125 6.5625 
Q 5.8125 14.109375 5.609375 29.109375 
L 5.609375 41.15625 
Q 5.609375 56.84375 11.03125 64.453125 
Q 16.453125 72.078125 28.03125 72.078125 
Q 39.5 72.078125 44.921875 64.71875 
Q 50.34375 57.375 50.484375 42.046875 
z
M 41.453125 42.671875 
Q 41.453125 54.15625 38.234375 59.40625 
Q 35.015625 64.65625 28.03125 64.65625 
Q 21.09375 64.65625 17.921875 59.421875 
Q 14.75 54.203125 14.65625 43.359375 
L 14.65625 28.90625 
Q 14.65625 17.390625 18 11.890625 
Q 21.34375 6.390625 28.125 6.390625 
Q 34.8125 6.390625 38.0625 11.5625 
Q 41.3125 16.75 41.453125 27.875 
z
" id="Roboto-Regular-48"/>
      <path d="M 35.59375 0 
L 26.515625 0 
L 26.515625 60.203125 
L 8.296875 53.515625 
L 8.296875 61.71875 
L 34.1875 71.4375 
L 35.59375 71.4375 
z
" id="Roboto-Regular-49"/>
      <path d="M 25.640625 26.515625 
L 1.8125 26.515625 
L 1.8125 33.890625 
L 25.640625 33.890625 
z
" id="Roboto-Regular-45"/>
      <path d="M 41.359375 71.140625 
L 41.359375 63.484375 
L 39.703125 63.484375 
Q 29.15625 63.28125 22.90625 57.21875 
Q 16.65625 51.171875 15.671875 40.1875 
Q 21.296875 46.625 31 46.625 
Q 40.28125 46.625 45.828125 40.078125 
Q 51.375 33.546875 51.375 23.1875 
Q 51.375 12.203125 45.390625 5.609375 
Q 39.40625 -0.984375 29.34375 -0.984375 
Q 19.140625 -0.984375 12.796875 6.859375 
Q 6.453125 14.703125 6.453125 27.046875 
L 6.453125 30.515625 
Q 6.453125 50.140625 14.8125 60.515625 
Q 23.1875 70.90625 39.75 71.140625 
z
M 29.5 39.109375 
Q 24.859375 39.109375 20.953125 36.328125 
Q 17.046875 33.546875 15.53125 29.34375 
L 15.53125 26.03125 
Q 15.53125 17.234375 19.484375 11.859375 
Q 23.4375 6.5 29.34375 6.5 
Q 35.453125 6.5 38.9375 10.984375 
Q 42.4375 15.484375 42.4375 22.75 
Q 42.4375 30.078125 38.890625 34.59375 
Q 35.359375 39.109375 29.5 39.109375 
z
" id="Roboto-Regular-54"/>
      <path d="M 19.046875 39.9375 
L 25.828125 39.9375 
Q 32.234375 40.046875 35.890625 43.3125 
Q 39.546875 46.578125 39.546875 52.15625 
Q 39.546875 64.65625 27.09375 64.65625 
Q 21.234375 64.65625 17.75 61.296875 
Q 14.265625 57.953125 14.265625 52.4375 
L 5.21875 52.4375 
Q 5.21875 60.890625 11.390625 66.484375 
Q 17.578125 72.078125 27.09375 72.078125 
Q 37.15625 72.078125 42.859375 66.75 
Q 48.578125 61.421875 48.578125 51.953125 
Q 48.578125 47.3125 45.578125 42.96875 
Q 42.578125 38.625 37.40625 36.46875 
Q 43.265625 34.625 46.453125 30.328125 
Q 49.65625 26.03125 49.65625 19.828125 
Q 49.65625 10.25 43.40625 4.625 
Q 37.15625 -0.984375 27.140625 -0.984375 
Q 17.140625 -0.984375 10.859375 4.4375 
Q 4.59375 9.859375 4.59375 18.75 
L 13.671875 18.75 
Q 13.671875 13.140625 17.328125 9.765625 
Q 21 6.390625 27.15625 6.390625 
Q 33.6875 6.390625 37.15625 9.8125 
Q 40.625 13.234375 40.625 19.625 
Q 40.625 25.828125 36.8125 29.140625 
Q 33.015625 32.46875 25.828125 32.5625 
L 19.046875 32.5625 
z
" id="Roboto-Regular-51"/>
     </defs>
     <use xlink:href="#Roboto-Regular-83"/>
     <use x="59.326172" xlink:href="#Roboto-Regular-97"/>
     <use x="113.720703" xlink:href="#Roboto-Regular-110"/>
     <use x="168.896484" xlink:href="#Roboto-Regular-32"/>
     <use x="193.652344" xlink:href="#Roboto-Regular-67"/>
     <use x="258.740234" xlink:href="#Roboto-Regular-114"/>
     <use x="292.578125" xlink:href="#Roboto-Regular-105"/>
     <use x="316.845703" xlink:href="#Roboto-Regular-115"/>
     <use x="368.408203" xlink:href="#Roboto-Regular-116"/>
     <use x="401.074219" xlink:href="#Roboto-Regular-243"/>
     <use x="458.105469" xlink:href="#Roboto-Regular-98"/>
     <use x="514.208984" xlink:href="#Roboto-Regular-97"/>
     <use x="568.603516" xlink:href="#Roboto-Regular-108"/>
     <use x="592.871094" xlink:href="#Roboto-Regular-32"/>
     <use x="617.626953" xlink:href="#Roboto-Regular-124"/>
     <use x="641.992188" xlink:href="#Roboto-Regular-32"/>
     <use x="666.748047" xlink:href="#Roboto-Regular-67"/>
     <use x="731.835938" xlink:href="#Roboto-Regular-97"/>
     <use x="786.230469" xlink:href="#Roboto-Regular-115"/>
     <use x="837.792969" xlink:href="#Roboto-Regular-111"/>
     <use x="894.824219" xlink:href="#Roboto-Regular-115"/>
     <use x="946.386719" xlink:href="#Roboto-Regular-32"/>
     <use x="971.142578" xlink:href="#Roboto-Regular-110"/>
     <use x="1026.318359" xlink:href="#Roboto-Regular-117"/>
     <use x="1081.445312" xlink:href="#Roboto-Regular-101"/>
     <use x="1134.423828" xlink:href="#Roboto-Regular-118"/>
     <use x="1182.861328" xlink:href="#Roboto-Regular-111"/>
     <use x="1239.892578" xlink:href="#Roboto-Regular-115"/>
     <use x="1291.455078" xlink:href="#Roboto-Regular-58"/>
     <use x="1315.673828" xlink:href="#Roboto-Regular-32"/>
     <use x="1340.429688" xlink:href="#Roboto-Regular-50"/>
     <use x="1396.582031" xlink:href="#Roboto-Regular-48"/>
     <use x="1452.734375" xlink:href="#Roboto-Regular-50"/>
     <use x="1508.886719" xlink:href="#Roboto-Regular-49"/>
     <use x="1565.039062" xlink:href="#Roboto-Regular-45"/>
     <use x="1592.626953" xlink:href="#Roboto-Regular-48"/>
     <use x="1648.779297" xlink:href="#Roboto-Regular-54"/>
     <use x="1704.931641" xlink:href="#Roboto-Regular-45"/>
     <use x="1732.519531" xlink:href="#Roboto-Regular-50"/>
     <use x="1788.671875" xlink:href="#Roboto-Regular-51"/>
    </g>
   </g>
   <g id="legend_1">
    <g id="patch_7">
     <path d="M 69.5 73.75625 
L 224.726562 73.75625 
Q 226.726562 73.75625 226.726562 71.75625 
L 226.726562 43 
Q 226.726562 41 224.726562 41 
L 69.5 41 
Q 67.5 41 67.5 43 
L 67.5 71.75625 
Q 67.5 73.75625 69.5 73.75625 
z
" style="fill:#ffffff;opacity:0.8;stroke:#cccccc;stroke-linejoin:miter;"/>
    </g>
    <g id="line2d_25">
     <path d="M 71.5 49 
L 91.5 49 
" style="fill:none;stroke:#000000;stroke-dasharray:1.5,2.475;stroke-dashoffset:0;stroke-opacity:0.5;stroke-width:1.5;"/>
    </g>
    <g id="line2d_26"/>
    <g id="text_13">
     <!-- Actual -->
     <g transform="translate(99.5 52.5)scale(0.1 -0.1)">
      <use xlink:href="#Roboto-Medium-65"/>
      <use x="66.552734" xlink:href="#Roboto-Medium-99"/>
      <use x="118.896484" xlink:href="#Roboto-Medium-116"/>
      <use x="152.148438" xlink:href="#Roboto-Medium-117"/>
      <use x="207.714844" xlink:href="#Roboto-Medium-97"/>
      <use x="261.816406" xlink:href="#Roboto-Medium-108"/>
     </g>
    </g>
    <g id="line2d_27">
     <path d="M 71.5 63.995313 
L 91.5 63.995313 
" style="fill:none;stroke:#b3220f;stroke-linecap:square;stroke-width:1.5;"/>
    </g>
    <g id="line2d_28"/>
    <g id="text_14">
     <!-- Promedio semanal (7 días)  -->
     <g transform="translate(99.5 67.495313)scale(0.1 -0.1)">
      <defs>
       <path d="M 19.578125 26.421875 
L 19.578125 0 
L 7.234375 0 
L 7.234375 71.09375 
L 34.421875 71.09375 
Q 46.34375 71.09375 53.34375 64.890625 
Q 60.359375 58.6875 60.359375 48.484375 
Q 60.359375 38.03125 53.484375 32.21875 
Q 46.625 26.421875 34.28125 26.421875 
z
M 19.578125 36.328125 
L 34.421875 36.328125 
Q 41.015625 36.328125 44.484375 39.421875 
Q 47.953125 42.53125 47.953125 48.390625 
Q 47.953125 54.15625 44.4375 57.59375 
Q 40.921875 61.03125 34.765625 61.140625 
L 19.578125 61.140625 
z
" id="Roboto-Medium-80"/>
       <path d="M 3.859375 26.90625 
Q 3.859375 34.671875 6.9375 40.890625 
Q 10.015625 47.125 15.578125 50.46875 
Q 21.140625 53.8125 28.375 53.8125 
Q 39.0625 53.8125 45.71875 46.921875 
Q 52.390625 40.046875 52.9375 28.65625 
L 52.984375 25.875 
Q 52.984375 18.0625 49.96875 11.90625 
Q 46.96875 5.765625 41.375 2.390625 
Q 35.796875 -0.984375 28.46875 -0.984375 
Q 17.28125 -0.984375 10.5625 6.46875 
Q 3.859375 13.921875 3.859375 26.3125 
z
M 15.71875 25.875 
Q 15.71875 17.71875 19.09375 13.109375 
Q 22.46875 8.5 28.46875 8.5 
Q 34.46875 8.5 37.8125 13.1875 
Q 41.15625 17.875 41.15625 26.90625 
Q 41.15625 34.90625 37.71875 39.59375 
Q 34.28125 44.28125 28.375 44.28125 
Q 22.5625 44.28125 19.140625 39.671875 
Q 15.71875 35.0625 15.71875 25.875 
z
" id="Roboto-Medium-111"/>
       <path d="M 17.234375 52.828125 
L 17.578125 47.3125 
Q 23.140625 53.8125 32.8125 53.8125 
Q 43.40625 53.8125 47.3125 45.703125 
Q 53.078125 53.8125 63.53125 53.8125 
Q 72.265625 53.8125 76.53125 48.96875 
Q 80.8125 44.140625 80.90625 34.71875 
L 80.90625 0 
L 69.046875 0 
L 69.046875 34.375 
Q 69.046875 39.40625 66.84375 41.75 
Q 64.65625 44.09375 59.578125 44.09375 
Q 55.515625 44.09375 52.953125 41.921875 
Q 50.390625 39.75 49.359375 36.234375 
L 49.421875 0 
L 37.546875 0 
L 37.546875 34.765625 
Q 37.3125 44.09375 28.03125 44.09375 
Q 20.90625 44.09375 17.921875 38.28125 
L 17.921875 0 
L 6.0625 0 
L 6.0625 52.828125 
z
" id="Roboto-Medium-109"/>
       <path d="M 29.34375 -0.984375 
Q 18.0625 -0.984375 11.046875 6.125 
Q 4.046875 13.234375 4.046875 25.046875 
L 4.046875 26.515625 
Q 4.046875 34.421875 7.09375 40.640625 
Q 10.15625 46.875 15.671875 50.34375 
Q 21.1875 53.8125 27.984375 53.8125 
Q 38.765625 53.8125 44.640625 46.921875 
Q 50.53125 40.046875 50.53125 27.4375 
L 50.53125 22.65625 
L 16.015625 22.65625 
Q 16.546875 16.109375 20.375 12.296875 
Q 24.21875 8.5 30.03125 8.5 
Q 38.1875 8.5 43.3125 15.09375 
L 49.703125 8.984375 
Q 46.53125 4.25 41.234375 1.625 
Q 35.9375 -0.984375 29.34375 -0.984375 
z
M 27.9375 44.28125 
Q 23.046875 44.28125 20.046875 40.859375 
Q 17.046875 37.453125 16.21875 31.34375 
L 38.8125 31.34375 
L 38.8125 32.234375 
Q 38.421875 38.1875 35.640625 41.234375 
Q 32.859375 44.28125 27.9375 44.28125 
z
" id="Roboto-Medium-101"/>
       <path d="M 3.859375 26.8125 
Q 3.859375 39.015625 9.515625 46.40625 
Q 15.1875 53.8125 24.703125 53.8125 
Q 33.109375 53.8125 38.28125 47.953125 
L 38.28125 75 
L 50.140625 75 
L 50.140625 0 
L 39.40625 0 
L 38.8125 5.46875 
Q 33.5 -0.984375 24.609375 -0.984375 
Q 15.328125 -0.984375 9.59375 6.484375 
Q 3.859375 13.96875 3.859375 26.8125 
z
M 15.71875 25.78125 
Q 15.71875 17.71875 18.8125 13.203125 
Q 21.921875 8.6875 27.640625 8.6875 
Q 34.90625 8.6875 38.28125 15.1875 
L 38.28125 37.75 
Q 35.015625 44.09375 27.734375 44.09375 
Q 21.96875 44.09375 18.84375 39.53125 
Q 15.71875 34.96875 15.71875 25.78125 
z
" id="Roboto-Medium-100"/>
       <path d="M 18.703125 0 
L 6.84375 0 
L 6.84375 52.828125 
L 18.703125 52.828125 
z
M 6.109375 66.546875 
Q 6.109375 69.28125 7.84375 71.09375 
Q 9.578125 72.90625 12.796875 72.90625 
Q 16.015625 72.90625 17.765625 71.09375 
Q 19.53125 69.28125 19.53125 66.546875 
Q 19.53125 63.875 17.765625 62.078125 
Q 16.015625 60.296875 12.796875 60.296875 
Q 9.578125 60.296875 7.84375 62.078125 
Q 6.109375 63.875 6.109375 66.546875 
z
" id="Roboto-Medium-105"/>
       <path id="Roboto-Medium-32"/>
       <path d="M 35.6875 14.359375 
Q 35.6875 17.53125 33.078125 19.1875 
Q 30.46875 20.84375 24.40625 22.109375 
Q 18.359375 23.390625 14.3125 25.34375 
Q 5.421875 29.640625 5.421875 37.796875 
Q 5.421875 44.625 11.171875 49.21875 
Q 16.9375 53.8125 25.828125 53.8125 
Q 35.296875 53.8125 41.125 49.125 
Q 46.96875 44.4375 46.96875 36.96875 
L 35.109375 36.96875 
Q 35.109375 40.375 32.5625 42.640625 
Q 30.03125 44.921875 25.828125 44.921875 
Q 21.921875 44.921875 19.453125 43.109375 
Q 17 41.3125 17 38.28125 
Q 17 35.546875 19.28125 34.03125 
Q 21.578125 32.515625 28.5625 30.96875 
Q 35.546875 29.4375 39.515625 27.3125 
Q 43.5 25.203125 45.421875 22.21875 
Q 47.359375 19.234375 47.359375 14.984375 
Q 47.359375 7.859375 41.453125 3.4375 
Q 35.546875 -0.984375 25.984375 -0.984375 
Q 19.484375 -0.984375 14.40625 1.359375 
Q 9.328125 3.71875 6.484375 7.8125 
Q 3.65625 11.921875 3.65625 16.65625 
L 15.1875 16.65625 
Q 15.4375 12.453125 18.359375 10.171875 
Q 21.296875 7.90625 26.125 7.90625 
Q 30.8125 7.90625 33.25 9.6875 
Q 35.6875 11.46875 35.6875 14.359375 
z
" id="Roboto-Medium-115"/>
       <path d="M 6.25 28.90625 
Q 6.25 40.1875 9.28125 50.3125 
Q 12.3125 60.453125 18.171875 68.4375 
Q 24.03125 76.421875 30.5625 79.640625 
L 32.90625 72.703125 
Q 26.03125 67.484375 21.75 56.765625 
Q 17.484375 46.046875 17.09375 32.234375 
L 17.046875 28.03125 
Q 17.046875 13.234375 21.21875 1.625 
Q 25.390625 -9.96875 32.90625 -16.015625 
L 30.5625 -22.609375 
Q 24.03125 -19.390625 18.140625 -11.359375 
Q 12.25 -3.328125 9.25 6.75 
Q 6.25 16.84375 6.25 28.90625 
z
" id="Roboto-Medium-40"/>
       <path d="M 52.640625 64.5 
L 24.21875 0 
L 11.765625 0 
L 40.140625 61.578125 
L 3.375 61.578125 
L 3.375 71.09375 
L 52.640625 71.09375 
z
" id="Roboto-Medium-55"/>
       <path d="M 18.84375 0 
L 6.984375 0 
L 6.984375 52.828125 
L 18.84375 52.828125 
z
M 16.609375 74.65625 
L 30.125 74.65625 
L 16.609375 59.859375 
L 7.078125 59.859375 
z
" id="Roboto-Medium-237"/>
       <path d="M 28.953125 28.125 
Q 28.953125 17.28125 25.96875 7.203125 
Q 23 -2.875 16.9375 -11.15625 
Q 10.890625 -19.4375 4.296875 -22.609375 
L 1.953125 -16.015625 
Q 9.28125 -10.359375 13.546875 1.28125 
Q 17.828125 12.9375 17.828125 27.875 
L 17.828125 29 
Q 17.828125 42.578125 14.109375 53.734375 
Q 10.40625 64.890625 3.46875 71.625 
L 1.953125 73 
L 4.296875 79.640625 
Q 10.546875 76.609375 16.40625 68.890625 
Q 22.265625 61.1875 25.390625 51.640625 
Q 28.515625 42.09375 28.90625 31.9375 
z
" id="Roboto-Medium-41"/>
      </defs>
      <use xlink:href="#Roboto-Medium-80"/>
      <use x="63.916016" xlink:href="#Roboto-Medium-114"/>
      <use x="99.072266" xlink:href="#Roboto-Medium-111"/>
      <use x="156.005859" xlink:href="#Roboto-Medium-109"/>
      <use x="243.017578" xlink:href="#Roboto-Medium-101"/>
      <use x="296.679688" xlink:href="#Roboto-Medium-100"/>
      <use x="353.125" xlink:href="#Roboto-Medium-105"/>
      <use x="378.662109" xlink:href="#Roboto-Medium-111"/>
      <use x="435.595703" xlink:href="#Roboto-Medium-32"/>
      <use x="460.498047" xlink:href="#Roboto-Medium-115"/>
      <use x="512.109375" xlink:href="#Roboto-Medium-101"/>
      <use x="565.771484" xlink:href="#Roboto-Medium-109"/>
      <use x="652.783203" xlink:href="#Roboto-Medium-97"/>
      <use x="706.884766" xlink:href="#Roboto-Medium-110"/>
      <use x="762.5" xlink:href="#Roboto-Medium-97"/>
      <use x="816.601562" xlink:href="#Roboto-Medium-108"/>
      <use x="842.138672" xlink:href="#Roboto-Medium-32"/>
      <use x="867.041016" xlink:href="#Roboto-Medium-40"/>
      <use x="901.904297" xlink:href="#Roboto-Medium-55"/>
      <use x="958.740234" xlink:href="#Roboto-Medium-32"/>
      <use x="983.642578" xlink:href="#Roboto-Medium-100"/>
      <use x="1040.087891" xlink:href="#Roboto-Medium-237"/>
      <use x="1066.357422" xlink:href="#Roboto-Medium-97"/>
      <use x="1120.458984" xlink:href="#Roboto-Medium-115"/>
      <use x="1172.070312" xlink:href="#Roboto-Medium-41"/>
      <use x="1207.324219" xlink:href="#Roboto-Medium-32"/>
     </g>
    </g>
   </g>
  </g>
 </g>
 <defs>
  <clipPath id="p6ff14986d2">
   <rect height="226.5" width="387.5" x="62.5" y="36"/>
  </clipPath>
 </defs>
</svg>
