<?xml version="1.0" encoding="utf-8" standalone="no"?>
<!DOCTYPE svg PUBLIC "-//W3C//DTD SVG 1.1//EN"
  "http://www.w3.org/Graphics/SVG/1.1/DTD/svg11.dtd">
<!-- Created with matplotlib (https://matplotlib.org/) -->
<svg height="300pt" version="1.1" viewBox="0 0 500 300" width="500pt" xmlns="http://www.w3.org/2000/svg" xmlns:xlink="http://www.w3.org/1999/xlink">
 <metadata>
  <rdf:RDF xmlns:cc="http://creativecommons.org/ns#" xmlns:dc="http://purl.org/dc/elements/1.1/" xmlns:rdf="http://www.w3.org/1999/02/22-rdf-syntax-ns#">
   <cc:Work>
    <dc:type rdf:resource="http://purl.org/dc/dcmitype/StillImage"/>
    <dc:date>2021-07-31T15:05:16.995969</dc:date>
    <dc:format>image/svg+xml</dc:format>
    <dc:creator>
     <cc:Agent>
      <dc:title>Matplotlib v3.3.4, https://matplotlib.org/</dc:title>
     </cc:Agent>
    </dc:creator>
   </cc:Work>
  </rdf:RDF>
 </metadata>
 <defs>
  <style type="text/css">*{stroke-linecap:butt;stroke-linejoin:round;}</style>
 </defs>
 <g id="figure_1">
  <g id="patch_1">
   <path d="M 0 300 
L 500 300 
L 500 0 
L 0 0 
z
" style="fill:#ffffff;"/>
  </g>
  <g id="axes_1">
   <g id="patch_2">
    <path d="M 62.5 262.5 
L 450 262.5 
L 450 27 
L 62.5 27 
z
" style="fill:#ffffff;"/>
   </g>
   <g id="matplotlib.axis_1">
    <g id="xtick_1">
     <g id="line2d_1">
      <defs>
       <path d="M 0 0 
L 0 3.5 
" id="mfee018e41f" style="stroke:#555555;stroke-width:0.8;"/>
      </defs>
      <g>
       <use style="fill:#555555;stroke:#555555;stroke-width:0.8;" x="62.5" xlink:href="#mfee018e41f" y="262.5"/>
      </g>
     </g>
    </g>
    <g id="xtick_2">
     <g id="line2d_2">
      <g>
       <use style="fill:#555555;stroke:#555555;stroke-width:0.8;" x="132.072025" xlink:href="#mfee018e41f" y="262.5"/>
      </g>
     </g>
     <g id="text_1">
      <!-- Jul -->
      <g style="fill:#555555;" transform="translate(125.586869 276.640625)scale(0.1 -0.1)">
       <defs>
        <path d="M 44.09375 17.796875 
L 44.09375 71.40625 
L 34.59375 71.40625 
L 34.59375 19.203125 
Q 34.59375 13.296875 32.140625 9.796875 
Q 29.703125 6.296875 23.203125 6.296875 
Q 19.703125 6.296875 17.453125 7.34375 
Q 15.203125 8.40625 13.953125 10.296875 
Q 12.703125 12.203125 12.203125 14.796875 
Q 11.703125 17.40625 11.703125 20.5 
L 11.703125 23.5 
L 2.203125 23.5 
L 2.203125 19.09375 
Q 2.203125 8.90625 7.59375 3.65625 
Q 13 -1.59375 23 -1.59375 
Q 29 -1.59375 33.046875 0.046875 
Q 37.09375 1.703125 39.546875 4.453125 
Q 42 7.203125 43.046875 10.703125 
Q 44.09375 14.203125 44.09375 17.796875 
z
" id="HelveticaNeue-74"/>
        <path d="M 49.203125 0 
L 49.203125 51.703125 
L 40.703125 51.703125 
L 40.703125 22.5 
Q 40.703125 19 39.75 16.046875 
Q 38.796875 13.09375 36.890625 10.890625 
Q 35 8.703125 32.140625 7.5 
Q 29.296875 6.296875 25.40625 6.296875 
Q 20.5 6.296875 17.703125 9.09375 
Q 14.90625 11.90625 14.90625 16.703125 
L 14.90625 51.703125 
L 6.40625 51.703125 
L 6.40625 17.703125 
Q 6.40625 13.5 7.25 10.046875 
Q 8.09375 6.59375 10.1875 4.09375 
Q 12.296875 1.59375 15.6875 0.25 
Q 19.09375 -1.09375 24.203125 -1.09375 
Q 29.90625 -1.09375 34.09375 1.15625 
Q 38.296875 3.40625 41 8.203125 
L 41.203125 8.203125 
L 41.203125 0 
z
" id="HelveticaNeue-117"/>
        <path d="M 6.90625 71.40625 
L 6.90625 0 
L 15.40625 0 
L 15.40625 71.40625 
z
" id="HelveticaNeue-108"/>
       </defs>
       <use xlink:href="#HelveticaNeue-74"/>
       <use x="51.899994" xlink:href="#HelveticaNeue-117"/>
       <use x="107.499985" xlink:href="#HelveticaNeue-108"/>
      </g>
     </g>
    </g>
    <g id="xtick_3">
     <g id="line2d_3">
      <g>
       <use style="fill:#555555;stroke:#555555;stroke-width:0.8;" x="206.497912" xlink:href="#mfee018e41f" y="262.5"/>
      </g>
     </g>
     <g id="text_2">
      <!-- Oct -->
      <g style="fill:#555555;" transform="translate(198.437756 276.640625)scale(0.1 -0.1)">
       <defs>
        <path d="M 13.296875 35.703125 
Q 13.296875 41.09375 14.6875 46.34375 
Q 16.09375 51.59375 19.09375 55.796875 
Q 22.09375 60 26.796875 62.546875 
Q 31.5 65.09375 38 65.09375 
Q 44.5 65.09375 49.203125 62.546875 
Q 53.90625 60 56.90625 55.796875 
Q 59.90625 51.59375 61.296875 46.34375 
Q 62.703125 41.09375 62.703125 35.703125 
Q 62.703125 30.296875 61.296875 25.046875 
Q 59.90625 19.796875 56.90625 15.59375 
Q 53.90625 11.40625 49.203125 8.84375 
Q 44.5 6.296875 38 6.296875 
Q 31.5 6.296875 26.796875 8.84375 
Q 22.09375 11.40625 19.09375 15.59375 
Q 16.09375 19.796875 14.6875 25.046875 
Q 13.296875 30.296875 13.296875 35.703125 
z
M 3.796875 35.703125 
Q 3.796875 28.40625 5.9375 21.65625 
Q 8.09375 14.90625 12.390625 9.703125 
Q 16.703125 4.5 23.09375 1.453125 
Q 29.5 -1.59375 38 -1.59375 
Q 46.5 -1.59375 52.890625 1.453125 
Q 59.296875 4.5 63.59375 9.703125 
Q 67.90625 14.90625 70.046875 21.65625 
Q 72.203125 28.40625 72.203125 35.703125 
Q 72.203125 43 70.046875 49.75 
Q 67.90625 56.5 63.59375 61.703125 
Q 59.296875 66.90625 52.890625 70 
Q 46.5 73.09375 38 73.09375 
Q 29.5 73.09375 23.09375 70 
Q 16.703125 66.90625 12.390625 61.703125 
Q 8.09375 56.5 5.9375 49.75 
Q 3.796875 43 3.796875 35.703125 
z
" id="HelveticaNeue-79"/>
        <path d="M 41.5 35.09375 
L 50.296875 35.09375 
Q 49.796875 39.703125 47.890625 43.046875 
Q 46 46.40625 43.046875 48.59375 
Q 40.09375 50.796875 36.25 51.84375 
Q 32.40625 52.90625 28 52.90625 
Q 21.90625 52.90625 17.296875 50.75 
Q 12.703125 48.59375 9.640625 44.84375 
Q 6.59375 41.09375 5.09375 36.046875 
Q 3.59375 31 3.59375 25.203125 
Q 3.59375 19.40625 5.140625 14.546875 
Q 6.703125 9.703125 9.75 6.203125 
Q 12.796875 2.703125 17.34375 0.796875 
Q 21.90625 -1.09375 27.796875 -1.09375 
Q 37.703125 -1.09375 43.453125 4.09375 
Q 49.203125 9.296875 50.59375 18.90625 
L 41.90625 18.90625 
Q 41.09375 12.90625 37.546875 9.59375 
Q 34 6.296875 27.703125 6.296875 
Q 23.703125 6.296875 20.796875 7.890625 
Q 17.90625 9.5 16.09375 12.140625 
Q 14.296875 14.796875 13.4375 18.1875 
Q 12.59375 21.59375 12.59375 25.203125 
Q 12.59375 29.09375 13.390625 32.75 
Q 14.203125 36.40625 16.046875 39.203125 
Q 17.90625 42 21 43.703125 
Q 24.09375 45.40625 28.703125 45.40625 
Q 34.09375 45.40625 37.296875 42.703125 
Q 40.5 40 41.5 35.09375 
z
" id="HelveticaNeue-99"/>
        <path d="M 18.203125 51.703125 
L 18.203125 67.203125 
L 9.703125 67.203125 
L 9.703125 51.703125 
L 0.90625 51.703125 
L 0.90625 44.203125 
L 9.703125 44.203125 
L 9.703125 11.296875 
Q 9.703125 7.703125 10.390625 5.5 
Q 11.09375 3.296875 12.546875 2.09375 
Q 14 0.90625 16.34375 0.453125 
Q 18.703125 0 22 0 
L 28.5 0 
L 28.5 7.5 
L 24.59375 7.5 
Q 22.59375 7.5 21.34375 7.640625 
Q 20.09375 7.796875 19.390625 8.296875 
Q 18.703125 8.796875 18.453125 9.6875 
Q 18.203125 10.59375 18.203125 12.09375 
L 18.203125 44.203125 
L 28.5 44.203125 
L 28.5 51.703125 
z
" id="HelveticaNeue-116"/>
       </defs>
       <use xlink:href="#HelveticaNeue-79"/>
       <use x="75.999985" xlink:href="#HelveticaNeue-99"/>
       <use x="129.699982" xlink:href="#HelveticaNeue-116"/>
      </g>
     </g>
    </g>
    <g id="xtick_4">
     <g id="line2d_4">
      <g>
       <use style="fill:#555555;stroke:#555555;stroke-width:0.8;" x="280.9238" xlink:href="#mfee018e41f" y="262.5"/>
      </g>
     </g>
     <g id="text_3">
      <!-- Jan -->
      <g style="fill:#555555;" transform="translate(272.863643 276.640625)scale(0.1 -0.1)">
       <defs>
        <path d="M 52.203125 0.203125 
Q 50 -1.09375 46.09375 -1.09375 
Q 42.796875 -1.09375 40.84375 0.75 
Q 38.90625 2.59375 38.90625 6.796875 
Q 35.40625 2.59375 30.75 0.75 
Q 26.09375 -1.09375 20.703125 -1.09375 
Q 17.203125 -1.09375 14.046875 -0.296875 
Q 10.90625 0.5 8.59375 2.203125 
Q 6.296875 3.90625 4.9375 6.65625 
Q 3.59375 9.40625 3.59375 13.296875 
Q 3.59375 17.703125 5.09375 20.5 
Q 6.59375 23.296875 9.046875 25.046875 
Q 11.5 26.796875 14.640625 27.6875 
Q 17.796875 28.59375 21.09375 29.203125 
Q 24.59375 29.90625 27.75 30.25 
Q 30.90625 30.59375 33.296875 31.25 
Q 35.703125 31.90625 37.09375 33.15625 
Q 38.5 34.40625 38.5 36.796875 
Q 38.5 39.59375 37.453125 41.296875 
Q 36.40625 43 34.75 43.890625 
Q 33.09375 44.796875 31.046875 45.09375 
Q 29 45.40625 27 45.40625 
Q 21.59375 45.40625 18 43.34375 
Q 14.40625 41.296875 14.09375 35.59375 
L 5.59375 35.59375 
Q 5.796875 40.40625 7.59375 43.703125 
Q 9.40625 47 12.40625 49.046875 
Q 15.40625 51.09375 19.25 52 
Q 23.09375 52.90625 27.5 52.90625 
Q 31 52.90625 34.453125 52.40625 
Q 37.90625 51.90625 40.703125 50.34375 
Q 43.5 48.796875 45.203125 46 
Q 46.90625 43.203125 46.90625 38.703125 
L 46.90625 12.09375 
Q 46.90625 9.09375 47.25 7.6875 
Q 47.59375 6.296875 49.59375 6.296875 
Q 50.703125 6.296875 52.203125 6.796875 
z
M 38.40625 26.703125 
Q 36.796875 25.5 34.1875 24.953125 
Q 31.59375 24.40625 28.75 24.046875 
Q 25.90625 23.703125 23 23.25 
Q 20.09375 22.796875 17.796875 21.796875 
Q 15.5 20.796875 14.046875 18.9375 
Q 12.59375 17.09375 12.59375 13.90625 
Q 12.59375 11.796875 13.4375 10.34375 
Q 14.296875 8.90625 15.640625 8 
Q 17 7.09375 18.796875 6.6875 
Q 20.59375 6.296875 22.59375 6.296875 
Q 26.796875 6.296875 29.796875 7.4375 
Q 32.796875 8.59375 34.6875 10.34375 
Q 36.59375 12.09375 37.5 14.140625 
Q 38.40625 16.203125 38.40625 18 
z
" id="HelveticaNeue-97"/>
        <path d="M 6.40625 51.703125 
L 6.40625 0 
L 14.90625 0 
L 14.90625 29.203125 
Q 14.90625 32.703125 15.84375 35.640625 
Q 16.796875 38.59375 18.6875 40.796875 
Q 20.59375 43 23.4375 44.203125 
Q 26.296875 45.40625 30.203125 45.40625 
Q 35.09375 45.40625 37.890625 42.59375 
Q 40.703125 39.796875 40.703125 35 
L 40.703125 0 
L 49.203125 0 
L 49.203125 34 
Q 49.203125 38.203125 48.34375 41.640625 
Q 47.5 45.09375 45.390625 47.59375 
Q 43.296875 50.09375 39.890625 51.5 
Q 36.5 52.90625 31.40625 52.90625 
Q 19.90625 52.90625 14.59375 43.5 
L 14.40625 43.5 
L 14.40625 51.703125 
z
" id="HelveticaNeue-110"/>
       </defs>
       <use xlink:href="#HelveticaNeue-74"/>
       <use x="51.899994" xlink:href="#HelveticaNeue-97"/>
       <use x="105.599991" xlink:href="#HelveticaNeue-110"/>
      </g>
      <!-- 2021 -->
      <g style="fill:#555555;" transform="translate(269.80505 287.179688)scale(0.1 -0.1)">
       <defs>
        <path d="M 4.40625 45.796875 
L 12.90625 45.796875 
Q 12.796875 49 13.546875 52.140625 
Q 14.296875 55.296875 16 57.796875 
Q 17.703125 60.296875 20.34375 61.84375 
Q 23 63.40625 26.703125 63.40625 
Q 29.5 63.40625 32 62.5 
Q 34.5 61.59375 36.34375 59.890625 
Q 38.203125 58.203125 39.296875 55.84375 
Q 40.40625 53.5 40.40625 50.59375 
Q 40.40625 46.90625 39.25 44.09375 
Q 38.09375 41.296875 35.84375 38.890625 
Q 33.59375 36.5 30.1875 34.140625 
Q 26.796875 31.796875 22.296875 29 
Q 18.59375 26.796875 15.1875 24.296875 
Q 11.796875 21.796875 9.09375 18.5 
Q 6.40625 15.203125 4.65625 10.75 
Q 2.90625 6.296875 2.40625 0 
L 48.703125 0 
L 48.703125 7.5 
L 12.296875 7.5 
Q 12.90625 10.796875 14.84375 13.34375 
Q 16.796875 15.90625 19.546875 18.09375 
Q 22.296875 20.296875 25.59375 22.25 
Q 28.90625 24.203125 32.203125 26.203125 
Q 35.5 28.296875 38.59375 30.59375 
Q 41.703125 32.90625 44.09375 35.75 
Q 46.5 38.59375 47.953125 42.1875 
Q 49.40625 45.796875 49.40625 50.5 
Q 49.40625 55.5 47.65625 59.296875 
Q 45.90625 63.09375 42.90625 65.640625 
Q 39.90625 68.203125 35.84375 69.546875 
Q 31.796875 70.90625 27.203125 70.90625 
Q 21.59375 70.90625 17.1875 69 
Q 12.796875 67.09375 9.84375 63.75 
Q 6.90625 60.40625 5.5 55.796875 
Q 4.09375 51.203125 4.40625 45.796875 
z
" id="HelveticaNeue-50"/>
        <path d="M 13.203125 34.90625 
Q 13.203125 37.5 13.25 40.640625 
Q 13.296875 43.796875 13.75 46.9375 
Q 14.203125 50.09375 15.046875 53.09375 
Q 15.90625 56.09375 17.546875 58.34375 
Q 19.203125 60.59375 21.703125 62 
Q 24.203125 63.40625 27.796875 63.40625 
Q 31.40625 63.40625 33.90625 62 
Q 36.40625 60.59375 38.046875 58.34375 
Q 39.703125 56.09375 40.546875 53.09375 
Q 41.40625 50.09375 41.84375 46.9375 
Q 42.296875 43.796875 42.34375 40.640625 
Q 42.40625 37.5 42.40625 34.90625 
Q 42.40625 30.90625 42.15625 25.953125 
Q 41.90625 21 40.546875 16.640625 
Q 39.203125 12.296875 36.203125 9.296875 
Q 33.203125 6.296875 27.796875 6.296875 
Q 22.40625 6.296875 19.40625 9.296875 
Q 16.40625 12.296875 15.046875 16.640625 
Q 13.703125 21 13.453125 25.953125 
Q 13.203125 30.90625 13.203125 34.90625 
z
M 4.203125 34.796875 
Q 4.203125 30.90625 4.390625 26.703125 
Q 4.59375 22.5 5.390625 18.5 
Q 6.203125 14.5 7.703125 10.953125 
Q 9.203125 7.40625 11.796875 4.703125 
Q 14.40625 2 18.34375 0.453125 
Q 22.296875 -1.09375 27.796875 -1.09375 
Q 33.40625 -1.09375 37.296875 0.453125 
Q 41.203125 2 43.796875 4.703125 
Q 46.40625 7.40625 47.90625 10.953125 
Q 49.40625 14.5 50.203125 18.5 
Q 51 22.5 51.203125 26.703125 
Q 51.40625 30.90625 51.40625 34.796875 
Q 51.40625 38.703125 51.203125 42.890625 
Q 51 47.09375 50.203125 51.09375 
Q 49.40625 55.09375 47.90625 58.6875 
Q 46.40625 62.296875 43.796875 65 
Q 41.203125 67.703125 37.25 69.296875 
Q 33.296875 70.90625 27.796875 70.90625 
Q 22.296875 70.90625 18.34375 69.296875 
Q 14.40625 67.703125 11.796875 65 
Q 9.203125 62.296875 7.703125 58.6875 
Q 6.203125 55.09375 5.390625 51.09375 
Q 4.59375 47.09375 4.390625 42.890625 
Q 4.203125 38.703125 4.203125 34.796875 
z
" id="HelveticaNeue-48"/>
        <path d="M 35.59375 0 
L 35.59375 70.90625 
L 29.09375 70.90625 
Q 28.40625 66.90625 26.5 64.296875 
Q 24.59375 61.703125 21.84375 60.203125 
Q 19.09375 58.703125 15.6875 58.140625 
Q 12.296875 57.59375 8.703125 57.59375 
L 8.703125 50.796875 
L 27.09375 50.796875 
L 27.09375 0 
z
" id="HelveticaNeue-49"/>
       </defs>
       <use xlink:href="#HelveticaNeue-50"/>
       <use x="55.599991" xlink:href="#HelveticaNeue-48"/>
       <use x="111.199982" xlink:href="#HelveticaNeue-50"/>
       <use x="166.799973" xlink:href="#HelveticaNeue-49"/>
      </g>
     </g>
    </g>
    <g id="xtick_5">
     <g id="line2d_5">
      <g>
       <use style="fill:#555555;stroke:#555555;stroke-width:0.8;" x="353.731733" xlink:href="#mfee018e41f" y="262.5"/>
      </g>
     </g>
     <g id="text_4">
      <!-- Apr -->
      <g style="fill:#555555;" transform="translate(345.862202 276.640625)scale(0.1 -0.1)">
       <defs>
        <path d="M 20.09375 29.5 
L 32.203125 62.796875 
L 32.40625 62.796875 
L 44.296875 29.5 
z
M 27.203125 71.40625 
L -0.59375 0 
L 9.09375 0 
L 17.09375 21.5 
L 47.296875 21.5 
L 55.09375 0 
L 65.59375 0 
L 37.703125 71.40625 
z
" id="HelveticaNeue-65"/>
        <path d="M 6.703125 51.703125 
L 6.703125 -19.703125 
L 15.203125 -19.703125 
L 15.203125 6.90625 
L 15.40625 6.90625 
Q 16.796875 4.59375 18.84375 3.046875 
Q 20.90625 1.5 23.203125 0.59375 
Q 25.5 -0.296875 27.84375 -0.6875 
Q 30.203125 -1.09375 32.09375 -1.09375 
Q 38 -1.09375 42.453125 1 
Q 46.90625 3.09375 49.84375 6.75 
Q 52.796875 10.40625 54.25 15.296875 
Q 55.703125 20.203125 55.703125 25.703125 
Q 55.703125 31.203125 54.203125 36.09375 
Q 52.703125 41 49.75 44.75 
Q 46.796875 48.5 42.34375 50.703125 
Q 37.90625 52.90625 31.90625 52.90625 
Q 26.5 52.90625 22 50.953125 
Q 17.5 49 15.40625 44.703125 
L 15.203125 44.703125 
L 15.203125 51.703125 
z
M 46.703125 26.296875 
Q 46.703125 22.5 45.890625 18.890625 
Q 45.09375 15.296875 43.296875 12.5 
Q 41.5 9.703125 38.546875 8 
Q 35.59375 6.296875 31.203125 6.296875 
Q 26.796875 6.296875 23.6875 7.9375 
Q 20.59375 9.59375 18.640625 12.296875 
Q 16.703125 15 15.796875 18.546875 
Q 14.90625 22.09375 14.90625 25.90625 
Q 14.90625 29.5 15.75 33 
Q 16.59375 36.5 18.5 39.25 
Q 20.40625 42 23.40625 43.703125 
Q 26.40625 45.40625 30.703125 45.40625 
Q 34.796875 45.40625 37.84375 43.796875 
Q 40.90625 42.203125 42.84375 39.5 
Q 44.796875 36.796875 45.75 33.34375 
Q 46.703125 29.90625 46.703125 26.296875 
z
" id="HelveticaNeue-112"/>
        <path d="M 6.09375 51.703125 
L 6.09375 0 
L 14.59375 0 
L 14.59375 23 
Q 14.59375 28 15.59375 31.84375 
Q 16.59375 35.703125 18.796875 38.390625 
Q 21 41.09375 24.59375 42.5 
Q 28.203125 43.90625 33.296875 43.90625 
L 33.296875 52.90625 
Q 26.40625 53.09375 21.90625 50.09375 
Q 17.40625 47.09375 14.296875 40.796875 
L 14.09375 40.796875 
L 14.09375 51.703125 
z
" id="HelveticaNeue-114"/>
       </defs>
       <use xlink:href="#HelveticaNeue-65"/>
       <use x="64.799988" xlink:href="#HelveticaNeue-112"/>
       <use x="124.099976" xlink:href="#HelveticaNeue-114"/>
      </g>
     </g>
    </g>
    <g id="xtick_6">
     <g id="line2d_6">
      <g>
       <use style="fill:#555555;stroke:#555555;stroke-width:0.8;" x="427.348643" xlink:href="#mfee018e41f" y="262.5"/>
      </g>
     </g>
     <g id="text_5">
      <!-- Jul -->
      <g style="fill:#555555;" transform="translate(420.863487 276.640625)scale(0.1 -0.1)">
       <use xlink:href="#HelveticaNeue-74"/>
       <use x="51.899994" xlink:href="#HelveticaNeue-117"/>
       <use x="107.499985" xlink:href="#HelveticaNeue-108"/>
      </g>
     </g>
    </g>
    <g id="xtick_7">
     <g id="line2d_7">
      <g>
       <use style="fill:#555555;stroke:#555555;stroke-width:0.8;" x="450" xlink:href="#mfee018e41f" y="262.5"/>
      </g>
     </g>
    </g>
    <g id="xtick_8">
     <g id="line2d_8">
      <defs>
       <path d="M 0 0 
L 0 2 
" id="m6cb5433d22" style="stroke:#555555;stroke-width:0.6;"/>
      </defs>
      <g>
       <use style="fill:#555555;stroke:#555555;stroke-width:0.6;" x="82.724426" xlink:href="#m6cb5433d22" y="262.5"/>
      </g>
     </g>
    </g>
    <g id="xtick_9">
     <g id="line2d_9">
      <g>
       <use style="fill:#555555;stroke:#555555;stroke-width:0.6;" x="107.802714" xlink:href="#m6cb5433d22" y="262.5"/>
      </g>
     </g>
    </g>
    <g id="xtick_10">
     <g id="line2d_10">
      <g>
       <use style="fill:#555555;stroke:#555555;stroke-width:0.6;" x="157.150313" xlink:href="#m6cb5433d22" y="262.5"/>
      </g>
     </g>
    </g>
    <g id="xtick_11">
     <g id="line2d_11">
      <g>
       <use style="fill:#555555;stroke:#555555;stroke-width:0.6;" x="182.228601" xlink:href="#m6cb5433d22" y="262.5"/>
      </g>
     </g>
    </g>
    <g id="xtick_12">
     <g id="line2d_12">
      <g>
       <use style="fill:#555555;stroke:#555555;stroke-width:0.6;" x="231.5762" xlink:href="#m6cb5433d22" y="262.5"/>
      </g>
     </g>
    </g>
    <g id="xtick_13">
     <g id="line2d_13">
      <g>
       <use style="fill:#555555;stroke:#555555;stroke-width:0.6;" x="255.845511" xlink:href="#m6cb5433d22" y="262.5"/>
      </g>
     </g>
    </g>
    <g id="xtick_14">
     <g id="line2d_14">
      <g>
       <use style="fill:#555555;stroke:#555555;stroke-width:0.6;" x="306.002088" xlink:href="#m6cb5433d22" y="262.5"/>
      </g>
     </g>
    </g>
    <g id="xtick_15">
     <g id="line2d_15">
      <g>
       <use style="fill:#555555;stroke:#555555;stroke-width:0.6;" x="328.653445" xlink:href="#m6cb5433d22" y="262.5"/>
      </g>
     </g>
    </g>
    <g id="xtick_16">
     <g id="line2d_16">
      <g>
       <use style="fill:#555555;stroke:#555555;stroke-width:0.6;" x="378.001044" xlink:href="#m6cb5433d22" y="262.5"/>
      </g>
     </g>
    </g>
    <g id="xtick_17">
     <g id="line2d_17">
      <g>
       <use style="fill:#555555;stroke:#555555;stroke-width:0.6;" x="403.079332" xlink:href="#m6cb5433d22" y="262.5"/>
      </g>
     </g>
    </g>
    <g id="text_6">
     <!-- fecha -->
     <g style="fill:#555555;" transform="translate(243.935156 300.290625)scale(0.1 -0.1)">
      <defs>
       <path d="M 9.90625 44.203125 
L 9.90625 0 
L 18.40625 0 
L 18.40625 44.203125 
L 28.40625 44.203125 
L 28.40625 51.703125 
L 18.40625 51.703125 
L 18.40625 58.90625 
Q 18.40625 62.296875 20.09375 63.5 
Q 21.796875 64.703125 24.90625 64.703125 
Q 26 64.703125 27.296875 64.546875 
Q 28.59375 64.40625 29.703125 64 
L 29.703125 71.40625 
Q 28.5 71.796875 26.953125 72 
Q 25.40625 72.203125 24.203125 72.203125 
Q 17.203125 72.203125 13.546875 68.953125 
Q 9.90625 65.703125 9.90625 59.40625 
L 9.90625 51.703125 
L 1.203125 51.703125 
L 1.203125 44.203125 
z
" id="HelveticaNeue-102"/>
       <path d="M 42.296875 30.796875 
L 12.59375 30.796875 
Q 12.796875 33.796875 13.890625 36.4375 
Q 15 39.09375 16.890625 41.09375 
Q 18.796875 43.09375 21.4375 44.25 
Q 24.09375 45.40625 27.40625 45.40625 
Q 30.59375 45.40625 33.25 44.25 
Q 35.90625 43.09375 37.84375 41.140625 
Q 39.796875 39.203125 40.9375 36.5 
Q 42.09375 33.796875 42.296875 30.796875 
z
M 50.5 16.40625 
L 42.09375 16.40625 
Q 41 11.296875 37.546875 8.796875 
Q 34.09375 6.296875 28.703125 6.296875 
Q 24.5 6.296875 21.390625 7.6875 
Q 18.296875 9.09375 16.296875 11.4375 
Q 14.296875 13.796875 13.390625 16.84375 
Q 12.5 19.90625 12.59375 23.296875 
L 51.296875 23.296875 
Q 51.5 28 50.453125 33.203125 
Q 49.40625 38.40625 46.65625 42.796875 
Q 43.90625 47.203125 39.34375 50.046875 
Q 34.796875 52.90625 27.90625 52.90625 
Q 22.59375 52.90625 18.140625 50.90625 
Q 13.703125 48.90625 10.453125 45.296875 
Q 7.203125 41.703125 5.390625 36.796875 
Q 3.59375 31.90625 3.59375 26 
Q 3.796875 20.09375 5.34375 15.09375 
Q 6.90625 10.09375 10 6.5 
Q 13.09375 2.90625 17.640625 0.90625 
Q 22.203125 -1.09375 28.40625 -1.09375 
Q 37.203125 -1.09375 43 3.296875 
Q 48.796875 7.703125 50.5 16.40625 
z
" id="HelveticaNeue-101"/>
       <path d="M 6.40625 71.40625 
L 6.40625 0 
L 14.90625 0 
L 14.90625 29.203125 
Q 14.90625 32.703125 15.84375 35.640625 
Q 16.796875 38.59375 18.6875 40.796875 
Q 20.59375 43 23.4375 44.203125 
Q 26.296875 45.40625 30.203125 45.40625 
Q 35.09375 45.40625 37.890625 42.59375 
Q 40.703125 39.796875 40.703125 35 
L 40.703125 0 
L 49.203125 0 
L 49.203125 34 
Q 49.203125 38.203125 48.34375 41.640625 
Q 47.5 45.09375 45.390625 47.59375 
Q 43.296875 50.09375 39.890625 51.5 
Q 36.5 52.90625 31.40625 52.90625 
Q 29.09375 52.90625 26.640625 52.40625 
Q 24.203125 51.90625 21.953125 50.84375 
Q 19.703125 49.796875 17.890625 48.140625 
Q 16.09375 46.5 15.09375 44.09375 
L 14.90625 44.09375 
L 14.90625 71.40625 
z
" id="HelveticaNeue-104"/>
      </defs>
      <use xlink:href="#HelveticaNeue-102"/>
      <use x="29.599991" xlink:href="#HelveticaNeue-101"/>
      <use x="83.299988" xlink:href="#HelveticaNeue-99"/>
      <use x="136.999985" xlink:href="#HelveticaNeue-104"/>
      <use x="192.599976" xlink:href="#HelveticaNeue-97"/>
     </g>
    </g>
   </g>
   <g id="matplotlib.axis_2">
    <g id="ytick_1">
     <g id="line2d_18">
      <defs>
       <path d="M 0 0 
L -3.5 0 
" id="m36e6ce4b48" style="stroke:#555555;stroke-width:0.8;"/>
      </defs>
      <g>
       <use style="fill:#555555;stroke:#555555;stroke-width:0.8;" x="62.5" xlink:href="#m36e6ce4b48" y="251.795455"/>
      </g>
     </g>
     <g id="text_7">
      <!-- 0 -->
      <g style="fill:#555555;" transform="translate(49.940625 255.365767)scale(0.1 -0.1)">
       <use xlink:href="#HelveticaNeue-48"/>
      </g>
     </g>
    </g>
    <g id="ytick_2">
     <g id="line2d_19">
      <g>
       <use style="fill:#555555;stroke:#555555;stroke-width:0.8;" x="62.5" xlink:href="#m36e6ce4b48" y="208.014083"/>
      </g>
     </g>
     <g id="text_8">
      <!-- 100 -->
      <g style="fill:#555555;" transform="translate(38.821875 211.584395)scale(0.1 -0.1)">
       <use xlink:href="#HelveticaNeue-49"/>
       <use x="55.599991" xlink:href="#HelveticaNeue-48"/>
       <use x="111.199982" xlink:href="#HelveticaNeue-48"/>
      </g>
     </g>
    </g>
    <g id="ytick_3">
     <g id="line2d_20">
      <g>
       <use style="fill:#555555;stroke:#555555;stroke-width:0.8;" x="62.5" xlink:href="#m36e6ce4b48" y="164.232711"/>
      </g>
     </g>
     <g id="text_9">
      <!-- 200 -->
      <g style="fill:#555555;" transform="translate(38.821875 167.803023)scale(0.1 -0.1)">
       <use xlink:href="#HelveticaNeue-50"/>
       <use x="55.599991" xlink:href="#HelveticaNeue-48"/>
       <use x="111.199982" xlink:href="#HelveticaNeue-48"/>
      </g>
     </g>
    </g>
    <g id="ytick_4">
     <g id="line2d_21">
      <g>
       <use style="fill:#555555;stroke:#555555;stroke-width:0.8;" x="62.5" xlink:href="#m36e6ce4b48" y="120.451339"/>
      </g>
     </g>
     <g id="text_10">
      <!-- 300 -->
      <g style="fill:#555555;" transform="translate(38.821875 124.021651)scale(0.1 -0.1)">
       <defs>
        <path d="M 21.796875 40.5 
L 21.796875 33.296875 
Q 24.203125 33.59375 26.90625 33.59375 
Q 30.09375 33.59375 32.84375 32.75 
Q 35.59375 31.90625 37.59375 30.15625 
Q 39.59375 28.40625 40.796875 25.84375 
Q 42 23.296875 42 20 
Q 42 16.796875 40.75 14.25 
Q 39.5 11.703125 37.390625 9.953125 
Q 35.296875 8.203125 32.5 7.25 
Q 29.703125 6.296875 26.59375 6.296875 
Q 19.296875 6.296875 15.5 10.640625 
Q 11.703125 15 11.5 21.90625 
L 3 21.90625 
Q 2.90625 16.40625 4.546875 12.09375 
Q 6.203125 7.796875 9.296875 4.84375 
Q 12.40625 1.90625 16.796875 0.40625 
Q 21.203125 -1.09375 26.59375 -1.09375 
Q 31.59375 -1.09375 36.046875 0.25 
Q 40.5 1.59375 43.796875 4.296875 
Q 47.09375 7 49.046875 11.046875 
Q 51 15.09375 51 20.40625 
Q 51 26.796875 47.84375 31.5 
Q 44.703125 36.203125 38.203125 37.59375 
L 38.203125 37.796875 
Q 42.40625 39.703125 45.203125 43.390625 
Q 48 47.09375 48 51.90625 
Q 48 56.796875 46.34375 60.390625 
Q 44.703125 64 41.796875 66.296875 
Q 38.90625 68.59375 34.953125 69.75 
Q 31 70.90625 26.40625 70.90625 
Q 21.09375 70.90625 17.046875 69.203125 
Q 13 67.5 10.296875 64.5 
Q 7.59375 61.5 6.140625 57.296875 
Q 4.703125 53.09375 4.5 48 
L 13 48 
Q 13 51.09375 13.796875 53.890625 
Q 14.59375 56.703125 16.25 58.796875 
Q 17.90625 60.90625 20.453125 62.15625 
Q 23 63.40625 26.40625 63.40625 
Q 31.796875 63.40625 35.390625 60.546875 
Q 39 57.703125 39 52 
Q 39 49.203125 37.890625 47 
Q 36.796875 44.796875 34.9375 43.34375 
Q 33.09375 41.90625 30.640625 41.15625 
Q 28.203125 40.40625 25.5 40.40625 
L 23.703125 40.40625 
Q 23.203125 40.40625 22.703125 40.40625 
Q 22.296875 40.40625 21.796875 40.5 
z
" id="HelveticaNeue-51"/>
       </defs>
       <use xlink:href="#HelveticaNeue-51"/>
       <use x="55.599991" xlink:href="#HelveticaNeue-48"/>
       <use x="111.199982" xlink:href="#HelveticaNeue-48"/>
      </g>
     </g>
    </g>
    <g id="ytick_5">
     <g id="line2d_22">
      <g>
       <use style="fill:#555555;stroke:#555555;stroke-width:0.8;" x="62.5" xlink:href="#m36e6ce4b48" y="76.669967"/>
      </g>
     </g>
     <g id="text_11">
      <!-- 400 -->
      <g style="fill:#555555;" transform="translate(38.821875 80.240279)scale(0.1 -0.1)">
       <defs>
        <path d="M 33.90625 24.09375 
L 10.09375 24.09375 
L 33.703125 58.796875 
L 33.90625 58.796875 
z
M 41.90625 24.09375 
L 41.90625 70.90625 
L 35.09375 70.90625 
L 2.796875 24.796875 
L 2.796875 16.59375 
L 33.90625 16.59375 
L 33.90625 0 
L 41.90625 0 
L 41.90625 16.59375 
L 51.5 16.59375 
L 51.5 24.09375 
z
" id="HelveticaNeue-52"/>
       </defs>
       <use xlink:href="#HelveticaNeue-52"/>
       <use x="55.599991" xlink:href="#HelveticaNeue-48"/>
       <use x="111.199982" xlink:href="#HelveticaNeue-48"/>
      </g>
     </g>
    </g>
    <g id="ytick_6">
     <g id="line2d_23">
      <g>
       <use style="fill:#555555;stroke:#555555;stroke-width:0.8;" x="62.5" xlink:href="#m36e6ce4b48" y="32.888595"/>
      </g>
     </g>
     <g id="text_12">
      <!-- 500 -->
      <g style="fill:#555555;" transform="translate(38.821875 36.458907)scale(0.1 -0.1)">
       <defs>
        <path d="M 47 62.203125 
L 47 69.703125 
L 12 69.703125 
L 5.40625 32.90625 
L 12.703125 32.5 
Q 15.203125 35.5 18.453125 37.34375 
Q 21.703125 39.203125 25.90625 39.203125 
Q 29.5 39.203125 32.453125 38 
Q 35.40625 36.796875 37.5 34.640625 
Q 39.59375 32.5 40.75 29.546875 
Q 41.90625 26.59375 41.90625 23.09375 
Q 41.90625 18.90625 40.703125 15.75 
Q 39.5 12.59375 37.453125 10.5 
Q 35.40625 8.40625 32.65625 7.34375 
Q 29.90625 6.296875 26.90625 6.296875 
Q 23.703125 6.296875 21.046875 7.25 
Q 18.40625 8.203125 16.453125 9.953125 
Q 14.5 11.703125 13.34375 14.046875 
Q 12.203125 16.40625 12 19.09375 
L 3.5 19.09375 
Q 3.59375 14.296875 5.390625 10.5 
Q 7.203125 6.703125 10.296875 4.140625 
Q 13.40625 1.59375 17.453125 0.25 
Q 21.5 -1.09375 26.09375 -1.09375 
Q 32.296875 -1.09375 36.9375 0.84375 
Q 41.59375 2.796875 44.6875 6.09375 
Q 47.796875 9.40625 49.34375 13.65625 
Q 50.90625 17.90625 50.90625 22.40625 
Q 50.90625 28.5 49.09375 33.046875 
Q 47.296875 37.59375 44.1875 40.640625 
Q 41.09375 43.703125 36.890625 45.203125 
Q 32.703125 46.703125 28 46.703125 
Q 24.40625 46.703125 20.75 45.453125 
Q 17.09375 44.203125 14.796875 41.59375 
L 14.59375 41.796875 
L 18.40625 62.203125 
z
" id="HelveticaNeue-53"/>
       </defs>
       <use xlink:href="#HelveticaNeue-53"/>
       <use x="55.599991" xlink:href="#HelveticaNeue-48"/>
       <use x="111.199982" xlink:href="#HelveticaNeue-48"/>
      </g>
     </g>
    </g>
   </g>
   <g id="line2d_24">
    <path clip-path="url(#pb7b110cd48)" d="M 63.308977 250.919827 
L 64.117954 250.0442 
L 64.926931 251.357641 
L 65.735908 251.795455 
L 67.353862 251.795455 
L 68.162839 250.919827 
L 68.971816 250.919827 
L 69.780793 250.0442 
L 70.58977 251.357641 
L 71.398747 249.606386 
L 72.207724 249.168572 
L 73.016701 249.168572 
L 73.825678 250.919827 
L 74.634656 251.357641 
L 75.443633 250.919827 
L 76.25261 249.606386 
L 77.061587 250.0442 
L 77.870564 249.168572 
L 78.679541 246.54169 
L 79.488518 251.357641 
L 80.297495 248.730759 
L 81.106472 250.919827 
L 81.915449 250.0442 
L 82.724426 249.606386 
L 83.533403 248.730759 
L 84.34238 248.292945 
L 85.151357 250.482013 
L 85.960334 247.855131 
L 86.769311 249.606386 
L 87.578288 239.53667 
L 88.387265 247.855131 
L 89.196242 250.919827 
L 90.005219 250.482013 
L 90.814196 246.979504 
L 91.623173 249.606386 
L 92.43215 248.730759 
L 93.241127 248.292945 
L 94.050104 244.790435 
L 94.859081 249.168572 
L 95.668058 246.103876 
L 96.477035 250.0442 
L 97.286013 245.228249 
L 98.09499 244.352621 
L 98.903967 249.606386 
L 99.712944 241.287925 
L 101.330898 250.919827 
L 102.139875 244.352621 
L 102.948852 249.168572 
L 103.757829 240.850112 
L 104.566806 236.471974 
L 105.375783 241.287925 
L 106.18476 244.352621 
L 106.993737 241.725739 
L 107.802714 244.790435 
L 108.611691 242.163553 
L 109.420668 239.098857 
L 110.229645 242.601366 
L 111.038622 243.476994 
L 111.847599 243.03918 
L 112.656576 245.666062 
L 113.465553 243.914808 
L 114.27453 234.282906 
L 115.083507 243.476994 
L 115.892484 246.979504 
L 116.701461 242.163553 
L 117.510438 240.412298 
L 118.319415 245.228249 
L 119.128392 245.228249 
L 119.93737 240.850112 
L 120.746347 229.029141 
L 121.555324 226.840073 
L 122.364301 231.656023 
L 123.173278 216.332543 
L 123.982255 226.402259 
L 124.791232 228.153514 
L 125.600209 232.531651 
L 126.409186 217.645984 
L 127.218163 235.596347 
L 128.02714 212.830033 
L 128.836117 221.586308 
L 129.645094 212.830033 
L 130.454071 227.7157 
L 131.263048 199.695622 
L 132.072025 200.571249 
L 132.881002 221.148494 
L 133.689979 220.71068 
L 134.498956 210.203151 
L 135.307933 205.3872 
L 136.11691 213.267847 
L 136.925887 198.382181 
L 137.734864 201.88469 
L 138.543841 206.700641 
L 139.352818 208.014083 
L 140.161795 214.581288 
L 140.970772 192.690602 
L 141.779749 206.262828 
L 142.588727 183.496514 
L 143.397704 175.178054 
L 144.206681 171.23773 
L 145.015658 184.809955 
L 145.824635 187.436838 
L 146.633612 200.133436 
L 147.442589 197.06874 
L 148.251566 158.103318 
L 149.060543 172.988985 
L 149.86952 214.581288 
L 150.678497 137.963887 
L 151.487474 180.431818 
L 152.296451 187.874651 
L 153.105428 164.670524 
L 153.914405 154.162995 
L 154.723382 184.372142 
L 155.532359 155.91425 
L 156.341336 168.610848 
L 157.150313 157.227691 
L 157.95929 191.377161 
L 158.768267 172.113358 
L 159.577244 149.347044 
L 160.386221 162.043642 
L 161.195198 189.625906 
L 162.004175 190.06372 
L 162.813152 196.630926 
L 163.622129 204.511573 
L 164.431106 138.401701 
L 165.240084 159.854573 
L 166.049061 167.297407 
L 166.858038 161.605828 
L 167.667015 191.814975 
L 168.475992 165.983965 
L 169.284969 176.491495 
L 170.093946 173.864612 
L 170.902923 130.958868 
L 171.7119 176.053681 
L 172.520877 177.367122 
L 173.329854 187.436838 
L 174.138831 178.24275 
L 174.947808 145.844534 
L 175.756785 182.620887 
L 176.565762 190.06372 
L 177.374739 206.700641 
L 178.183716 205.825014 
L 178.992693 181.307446 
L 179.80167 192.690602 
L 180.610647 197.06874 
L 181.419624 181.745259 
L 182.228601 177.367122 
L 183.037578 201.446877 
L 183.846555 185.247769 
L 184.655532 213.267847 
L 185.464509 99.43628 
L 186.273486 238.661043 
L 187.082463 185.247769 
L 188.700418 212.39222 
L 189.509395 175.615867 
L 190.318372 213.705661 
L 191.127349 204.073759 
L 191.936326 203.198132 
L 192.745303 217.208171 
L 193.55428 184.372142 
L 194.363257 213.705661 
L 195.172234 211.078779 
L 195.981211 186.56121 
L 196.790188 210.203151 
L 197.599165 220.71068 
L 198.408142 229.466955 
L 199.217119 217.208171 
L 200.026096 207.138455 
L 200.835073 206.262828 
L 201.64405 196.193112 
L 202.453027 232.969465 
L 203.262004 228.591327 
L 204.070981 222.461935 
L 204.879958 215.019102 
L 205.688935 219.835053 
L 206.497912 225.964445 
L 207.306889 197.06874 
L 208.115866 223.337563 
L 208.924843 215.456916 
L 209.73382 233.845092 
L 210.542797 212.830033 
L 211.351775 226.402259 
L 212.160752 202.760318 
L 212.969729 217.645984 
L 213.778706 211.954406 
L 214.587683 231.656023 
L 215.39666 236.909788 
L 216.205637 236.471974 
L 217.014614 232.093837 
L 217.823591 209.327524 
L 218.632568 206.262828 
L 219.441545 232.093837 
L 220.250522 216.332543 
L 221.059499 215.019102 
L 221.868476 225.088818 
L 222.677453 218.521612 
L 223.48643 210.640965 
L 224.295407 214.143475 
L 225.104384 222.899749 
L 225.913361 225.964445 
L 226.722338 213.267847 
L 227.531315 219.397239 
L 228.340292 206.262828 
L 229.149269 209.327524 
L 230.767223 223.337563 
L 231.5762 221.148494 
L 232.385177 226.402259 
L 233.194154 217.208171 
L 234.003132 215.89473 
L 234.812109 216.770357 
L 235.621086 224.21319 
L 236.430063 222.899749 
L 237.23904 220.71068 
L 238.048017 226.840073 
L 238.856994 223.337563 
L 239.665971 215.456916 
L 240.474948 218.959426 
L 241.283925 231.656023 
L 242.092902 230.342582 
L 242.901879 235.158533 
L 243.710856 218.521612 
L 244.519833 209.765337 
L 245.32881 214.143475 
L 246.137787 215.019102 
L 246.946764 218.959426 
L 247.755741 220.71068 
L 248.564718 231.21821 
L 250.182672 204.949387 
L 250.991649 197.06874 
L 251.800626 203.198132 
L 252.609603 193.128416 
L 253.41858 216.770357 
L 254.227557 211.516592 
L 255.036534 216.770357 
L 255.845511 203.198132 
L 256.654489 211.954406 
L 257.463466 222.024122 
L 258.272443 201.009063 
L 259.08142 214.581288 
L 259.890397 222.024122 
L 260.699374 204.073759 
L 261.508351 212.39222 
L 262.317328 199.695622 
L 263.126305 206.262828 
L 263.935282 198.382181 
L 264.744259 180.869632 
L 265.553236 213.705661 
L 266.362213 217.208171 
L 267.17119 185.685583 
L 267.980167 159.41676 
L 268.789144 194.879671 
L 269.598121 189.188093 
L 270.407098 194.441857 
L 271.216075 205.825014 
L 272.025052 211.516592 
L 272.834029 162.043642 
L 273.643006 193.56623 
L 274.451983 179.556191 
L 275.26096 206.262828 
L 276.069937 202.322504 
L 276.878914 194.441857 
L 277.687891 190.939347 
L 278.496868 160.730201 
L 279.305846 157.227691 
L 280.114823 179.118377 
L 280.9238 217.645984 
L 281.732777 196.630926 
L 282.541754 172.113358 
L 283.350731 174.74024 
L 284.159708 148.471417 
L 284.968685 130.08324 
L 285.777662 139.277328 
L 286.586639 135.774819 
L 287.395616 188.312465 
L 288.204593 197.06874 
L 289.01357 190.939347 
L 289.822547 120.451339 
L 291.440501 170.799916 
L 292.249478 146.282348 
L 293.058455 153.725181 
L 293.867432 127.894172 
L 294.676409 177.804936 
L 295.485386 147.595789 
L 296.294363 153.725181 
L 297.10334 134.899191 
L 297.912317 132.710123 
L 298.721294 169.048661 
L 299.530271 165.546152 
L 300.339248 148.90923 
L 301.148225 175.615867 
L 301.957203 126.580731 
L 302.76618 188.312465 
L 303.575157 213.705661 
L 304.384134 202.760318 
L 305.193111 185.247769 
L 306.002088 196.630926 
L 306.811065 205.3872 
L 307.620042 218.083798 
L 308.429019 206.700641 
L 309.237996 226.402259 
L 310.046973 230.342582 
L 310.85595 231.656023 
L 311.664927 228.153514 
L 312.473904 211.954406 
L 313.282881 228.591327 
L 314.091858 226.402259 
L 314.900835 225.088818 
L 315.709812 225.964445 
L 316.518789 229.466955 
L 317.327766 230.780396 
L 318.136743 227.277886 
L 318.94572 232.531651 
L 319.754697 230.780396 
L 320.563674 226.402259 
L 321.372651 233.407278 
L 322.181628 237.785416 
L 322.990605 238.223229 
L 323.799582 235.158533 
L 324.608559 227.7157 
L 325.417537 234.282906 
L 327.035491 240.412298 
L 327.844468 232.969465 
L 328.653445 238.661043 
L 329.462422 237.347602 
L 330.271399 237.785416 
L 331.080376 239.53667 
L 331.889353 239.098857 
L 332.69833 242.163553 
L 333.507307 239.53667 
L 334.316284 238.661043 
L 335.125261 243.03918 
L 335.934238 238.661043 
L 336.743215 236.034161 
L 337.552192 231.656023 
L 338.361169 241.725739 
L 339.170146 241.287925 
L 339.979123 238.661043 
L 340.7881 240.412298 
L 341.597077 237.347602 
L 342.406054 240.850112 
L 343.215031 241.725739 
L 344.024008 233.407278 
L 344.832985 243.03918 
L 345.641962 236.909788 
L 346.450939 229.904769 
L 347.259916 238.223229 
L 348.068894 227.7157 
L 348.877871 225.526631 
L 349.686848 227.7157 
L 350.495825 234.282906 
L 351.304802 230.342582 
L 352.113779 232.531651 
L 352.922756 219.397239 
L 353.731733 233.407278 
L 354.54071 234.720719 
L 355.349687 232.531651 
L 356.158664 234.720719 
L 356.967641 224.21319 
L 357.776618 192.252789 
L 358.585595 211.954406 
L 359.394572 215.456916 
L 360.203549 199.257808 
L 361.012526 198.819994 
L 361.821503 222.461935 
L 362.63048 176.053681 
L 363.439457 184.809955 
L 364.248434 154.600809 
L 365.057411 204.073759 
L 365.866388 182.183073 
L 366.675365 202.322504 
L 367.484342 203.635945 
L 368.293319 126.580731 
L 369.102296 168.173034 
L 369.911273 181.307446 
L 370.720251 174.74024 
L 371.529228 176.491495 
L 372.338205 186.999024 
L 373.147182 211.078779 
L 373.956159 161.168015 
L 374.765136 134.899191 
L 375.574113 196.630926 
L 376.38309 163.357083 
L 377.192067 168.610848 
L 378.001044 184.372142 
L 378.810021 165.108338 
L 379.618998 162.481456 
L 380.427975 167.297407 
L 381.236952 190.06372 
L 382.045929 108.192554 
L 382.854906 171.675544 
L 383.663883 169.048661 
L 384.47286 175.615867 
L 385.281837 141.904211 
L 386.090814 159.854573 
L 386.899791 115.635388 
L 387.708768 169.924289 
L 388.517745 183.934328 
L 389.326722 131.396682 
L 390.135699 197.944367 
L 390.944676 175.178054 
L 391.753653 177.367122 
L 392.56263 149.347044 
L 393.371608 129.207613 
L 394.180585 113.008505 
L 394.989562 70.978388 
L 395.798539 130.958868 
L 396.607516 127.018544 
L 397.416493 52.590212 
L 398.22547 121.326966 
L 399.034447 102.93879 
L 399.843424 101.187535 
L 400.652401 60.033045 
L 401.461378 158.103318 
L 402.270355 122.640407 
L 403.079332 66.162437 
L 403.888309 78.421221 
L 404.697286 67.475878 
L 405.506263 73.167457 
L 406.31524 51.714584 
L 407.124217 128.769799 
L 407.933194 118.700084 
L 408.742171 114.321946 
L 409.551148 81.048104 
L 410.360125 124.391662 
L 411.169102 75.356525 
L 411.978079 69.664947 
L 412.787056 118.700084 
L 413.596033 127.894172 
L 414.40501 75.794339 
L 415.213987 80.172476 
L 416.022965 101.625349 
L 416.831942 37.704545 
L 417.640919 114.321946 
L 418.449896 138.839515 
L 419.258873 89.366564 
L 420.06785 63.535555 
L 420.876827 65.724624 
L 421.685804 135.337005 
L 422.494781 70.978388 
L 423.303758 51.714584 
L 424.112735 130.521054 
L 424.921712 106.441299 
L 425.730689 56.092722 
L 426.539666 117.824456 
L 427.348643 101.625349 
L 428.15762 142.779838 
L 428.966597 109.943809 
L 429.775574 135.774819 
L 430.584551 155.476436 
L 431.393528 148.471417 
L 432.202505 139.277328 
L 433.011482 163.357083 
L 433.820459 125.705103 
L 434.629436 173.864612 
L 435.438413 190.501534 
L 436.24739 146.282348 
L 437.056367 144.531093 
L 437.865344 177.804936 
L 438.674322 197.506553 
L 439.483299 176.053681 
L 440.292276 179.994004 
L 441.101253 210.203151 
L 441.91023 170.799916 
L 442.719207 211.954406 
L 443.528184 204.511573 
L 444.337161 215.456916 
L 445.146138 217.645984 
L 445.955115 213.705661 
L 446.764092 224.21319 
L 447.573069 228.153514 
L 448.382046 221.586308 
L 449.191023 211.954406 
L 450 244.790435 
L 450 244.790435 
" style="fill:none;stroke:#000000;stroke-dasharray:1.5,2.475;stroke-dashoffset:0;stroke-opacity:0.5;stroke-width:1.5;"/>
   </g>
   <g id="line2d_25">
    <path clip-path="url(#pb7b110cd48)" d="M 62.5 250.919827 
L 64.117954 250.919827 
L 64.926931 251.357641 
L 68.162839 251.357641 
L 70.58977 250.0442 
L 73.825678 250.0442 
L 74.634656 250.482013 
L 75.443633 250.482013 
L 77.870564 249.168572 
L 78.679541 249.168572 
L 79.488518 249.606386 
L 82.724426 249.606386 
L 83.533403 249.168572 
L 84.34238 249.168572 
L 85.151357 247.855131 
L 85.960334 247.417317 
L 86.769311 247.417317 
L 87.578288 247.855131 
L 88.387265 247.417317 
L 90.005219 248.292945 
L 90.814196 249.168572 
L 93.241127 247.855131 
L 94.050104 247.855131 
L 95.668058 246.979504 
L 96.477035 246.979504 
L 98.09499 246.103876 
L 98.903967 246.54169 
L 99.712944 246.103876 
L 100.521921 246.54169 
L 101.330898 246.103876 
L 102.139875 244.790435 
L 102.948852 244.352621 
L 103.757829 243.476994 
L 104.566806 242.163553 
L 105.375783 242.163553 
L 106.18476 241.725739 
L 106.993737 241.725739 
L 108.611691 242.601366 
L 109.420668 242.163553 
L 111.038622 243.03918 
L 111.847599 242.163553 
L 112.656576 242.601366 
L 114.27453 242.601366 
L 115.083507 242.163553 
L 115.892484 242.601366 
L 116.701461 242.601366 
L 117.510438 243.476994 
L 118.319415 241.725739 
L 119.128392 239.098857 
L 119.93737 237.347602 
L 121.555324 230.342582 
L 122.364301 227.7157 
L 123.173278 226.840073 
L 123.982255 225.526631 
L 124.791232 226.402259 
L 125.600209 225.088818 
L 126.409186 225.088818 
L 127.218163 223.337563 
L 128.02714 222.461935 
L 129.645094 215.89473 
L 130.454071 213.705661 
L 131.263048 213.705661 
L 133.689979 211.078779 
L 134.498956 210.640965 
L 135.307933 209.765337 
L 136.11691 207.576269 
L 136.925887 205.825014 
L 137.734864 206.262828 
L 139.352818 204.511573 
L 140.161795 202.760318 
L 140.970772 199.257808 
L 141.779749 193.56623 
L 142.588727 188.750279 
L 143.397704 184.809955 
L 145.015658 184.809955 
L 145.824635 183.934328 
L 146.633612 183.496514 
L 147.442589 186.999024 
L 148.251566 181.745259 
L 149.86952 177.367122 
L 150.678497 174.74024 
L 151.487474 173.426799 
L 152.296451 173.426799 
L 153.105428 168.173034 
L 153.914405 170.362103 
L 154.723382 167.297407 
L 155.532359 167.297407 
L 156.341336 169.048661 
L 157.150313 168.610848 
L 157.95929 166.421779 
L 158.768267 169.486475 
L 159.577244 172.113358 
L 160.386221 176.491495 
L 161.195198 179.994004 
L 162.004175 179.556191 
L 162.813152 179.994004 
L 163.622129 178.24275 
L 164.431106 172.988985 
L 165.240084 171.23773 
L 166.049061 168.173034 
L 166.858038 166.859593 
L 167.667015 171.675544 
L 168.475992 169.048661 
L 169.284969 168.610848 
L 170.093946 168.610848 
L 170.902923 168.173034 
L 171.7119 170.362103 
L 172.520877 168.610848 
L 173.329854 170.362103 
L 174.138831 176.053681 
L 174.947808 179.118377 
L 175.756785 183.496514 
L 176.565762 185.247769 
L 177.374739 188.750279 
L 178.183716 194.441857 
L 178.992693 194.004044 
L 179.80167 191.814975 
L 181.419624 188.312465 
L 182.228601 191.377161 
L 183.037578 182.183073 
L 183.846555 184.809955 
L 184.655532 184.809955 
L 186.273486 189.188093 
L 187.082463 190.06372 
L 187.891441 192.252789 
L 188.700418 202.322504 
L 189.509395 199.257808 
L 190.318372 202.760318 
L 191.127349 202.322504 
L 191.936326 202.760318 
L 192.745303 206.262828 
L 193.55428 203.198132 
L 194.363257 203.635945 
L 195.172234 205.3872 
L 195.981211 207.576269 
L 196.790188 211.954406 
L 197.599165 212.830033 
L 199.217119 213.705661 
L 200.026096 214.581288 
L 200.835073 215.019102 
L 201.64405 215.019102 
L 202.453027 216.332543 
L 203.262004 218.521612 
L 204.070981 221.148494 
L 204.879958 220.272867 
L 206.497912 216.770357 
L 207.306889 217.645984 
L 208.115866 218.083798 
L 208.924843 218.959426 
L 209.73382 217.645984 
L 210.542797 218.959426 
L 211.351775 217.208171 
L 212.969729 218.959426 
L 213.778706 222.461935 
L 214.587683 225.088818 
L 215.39666 226.840073 
L 216.205637 225.526631 
L 217.014614 225.964445 
L 217.823591 223.337563 
L 218.632568 220.272867 
L 219.441545 218.959426 
L 220.250522 218.083798 
L 221.059499 218.521612 
L 221.868476 218.521612 
L 222.677453 217.645984 
L 223.48643 218.521612 
L 224.295407 218.521612 
L 225.104384 218.083798 
L 226.722338 216.332543 
L 229.149269 215.019102 
L 229.958246 217.208171 
L 230.767223 218.083798 
L 231.5762 219.397239 
L 232.385177 220.272867 
L 234.812109 220.272867 
L 235.621086 220.71068 
L 236.430063 221.586308 
L 237.23904 222.024122 
L 238.048017 222.024122 
L 238.856994 222.461935 
L 239.665971 223.337563 
L 240.474948 225.088818 
L 241.283925 225.088818 
L 242.092902 224.21319 
L 242.901879 223.775376 
L 243.710856 222.024122 
L 244.519833 219.397239 
L 245.32881 217.645984 
L 246.137787 217.645984 
L 246.946764 218.521612 
L 247.755741 218.521612 
L 249.373695 214.143475 
L 250.182672 209.765337 
L 250.991649 207.576269 
L 251.800626 204.949387 
L 253.41858 206.700641 
L 255.036534 211.078779 
L 255.845511 211.954406 
L 256.654489 211.516592 
L 257.463466 212.830033 
L 258.272443 211.954406 
L 259.08142 212.830033 
L 260.699374 209.327524 
L 261.508351 208.014083 
L 262.317328 203.635945 
L 263.126305 201.88469 
L 263.935282 202.760318 
L 264.744259 200.571249 
L 265.553236 196.193112 
L 267.17119 191.814975 
L 267.980167 191.377161 
L 268.789144 190.06372 
L 269.598121 191.377161 
L 270.407098 190.939347 
L 271.216075 194.004044 
L 272.025052 191.814975 
L 273.643006 192.690602 
L 274.451983 191.814975 
L 275.26096 191.377161 
L 276.069937 191.377161 
L 276.878914 186.56121 
L 277.687891 183.934328 
L 278.496868 183.058701 
L 280.114823 182.183073 
L 280.9238 182.183073 
L 281.732777 181.307446 
L 282.541754 176.053681 
L 283.350731 167.73522 
L 284.159708 155.476436 
L 284.968685 152.41174 
L 285.777662 155.038622 
L 286.586639 160.292387 
L 287.395616 161.168015 
L 288.204593 163.794897 
L 289.01357 165.546152 
L 289.822547 164.232711 
L 290.631524 158.541132 
L 291.440501 150.660485 
L 292.249478 149.784858 
L 293.058455 152.41174 
L 293.867432 153.287368 
L 294.676409 149.784858 
L 295.485386 148.033603 
L 296.294363 148.90923 
L 297.10334 151.973926 
L 297.912317 149.784858 
L 298.721294 153.725181 
L 299.530271 152.849554 
L 300.339248 158.103318 
L 301.148225 166.859593 
L 302.76618 177.804936 
L 303.575157 185.685583 
L 304.384134 190.939347 
L 305.193111 200.571249 
L 306.002088 202.760318 
L 306.811065 205.3872 
L 307.620042 210.203151 
L 308.429019 216.770357 
L 309.237996 221.148494 
L 310.046973 222.899749 
L 310.85595 224.21319 
L 311.664927 225.964445 
L 313.282881 225.088818 
L 314.091858 225.088818 
L 314.900835 225.964445 
L 315.709812 227.7157 
L 316.518789 228.153514 
L 317.327766 229.029141 
L 318.94572 229.904769 
L 319.754697 230.780396 
L 321.372651 233.407278 
L 322.181628 233.407278 
L 322.990605 233.845092 
L 323.799582 234.720719 
L 324.608559 235.158533 
L 326.226514 235.158533 
L 328.653445 237.785416 
L 329.462422 237.785416 
L 330.271399 238.223229 
L 331.080376 239.098857 
L 332.69833 239.974484 
L 334.316284 239.974484 
L 335.125261 238.661043 
L 335.934238 238.223229 
L 338.361169 238.223229 
L 339.979123 239.098857 
L 340.7881 239.974484 
L 341.597077 239.098857 
L 343.215031 239.098857 
L 344.024008 237.785416 
L 344.832985 237.785416 
L 345.641962 236.034161 
L 346.450939 233.845092 
L 348.068894 231.21821 
L 348.877871 230.342582 
L 349.686848 230.342582 
L 350.495825 228.591327 
L 351.304802 229.466955 
L 353.731733 230.780396 
L 354.54071 230.780396 
L 355.349687 226.402259 
L 356.158664 224.21319 
L 356.967641 220.272867 
L 358.585595 210.203151 
L 359.394572 208.451896 
L 360.203549 203.635945 
L 361.012526 201.88469 
L 361.821503 194.441857 
L 363.439457 187.436838 
L 364.248434 186.999024 
L 365.057411 186.123397 
L 365.866388 182.620887 
L 366.675365 179.994004 
L 367.484342 180.431818 
L 368.293319 175.615867 
L 369.102296 173.864612 
L 369.911273 172.551171 
L 370.720251 175.615867 
L 371.529228 180.869632 
L 372.338205 177.804936 
L 373.147182 177.804936 
L 374.765136 173.426799 
L 375.574113 172.113358 
L 376.38309 168.610848 
L 377.192067 169.486475 
L 378.001044 172.113358 
L 378.810021 171.23773 
L 379.618998 165.546152 
L 380.427975 163.794897 
L 381.236952 161.168015 
L 382.045929 162.043642 
L 382.854906 160.292387 
L 383.663883 159.41676 
L 384.47286 152.849554 
L 385.281837 156.789877 
L 386.090814 156.789877 
L 386.899791 153.287368 
L 387.708768 156.352064 
L 388.517745 161.605828 
L 390.135699 169.924289 
L 390.944676 165.546152 
L 391.753653 156.789877 
L 394.180585 124.829476 
L 394.989562 110.381623 
L 395.798539 105.565672 
L 396.607516 102.500976 
L 397.416493 101.625349 
L 398.22547 99.43628 
L 399.034447 101.187535 
L 399.843424 102.500976 
L 400.652401 105.127858 
L 402.270355 95.93377 
L 404.697286 80.172476 
L 405.506263 81.485917 
L 406.31524 89.366564 
L 407.124217 92.869074 
L 407.933194 100.749721 
L 408.742171 102.063162 
L 409.551148 102.063162 
L 410.360125 98.560653 
L 411.169102 98.998466 
L 411.978079 96.371584 
L 412.787056 96.371584 
L 413.596033 94.620329 
L 414.40501 90.242192 
L 415.213987 91.555633 
L 416.022965 92.43126 
L 416.831942 90.680006 
L 417.640919 91.555633 
L 418.449896 90.242192 
L 419.258873 92.869074 
L 420.06785 95.058143 
L 420.876827 87.177496 
L 421.685804 85.864055 
L 422.494781 88.928751 
L 423.303758 89.366564 
L 424.112735 93.744702 
L 424.921712 91.555633 
L 425.730689 100.311907 
L 426.539666 107.316927 
L 427.348643 109.943809 
L 428.15762 118.26227 
L 428.966597 129.645427 
L 429.775574 134.461378 
L 430.584551 141.904211 
L 431.393528 141.904211 
L 433.011482 154.600809 
L 434.629436 156.352064 
L 436.24739 164.670524 
L 437.056367 170.799916 
L 437.865344 172.551171 
L 438.674322 176.491495 
L 439.483299 181.307446 
L 440.292276 188.750279 
L 441.91023 195.317485 
L 442.719207 201.446877 
L 443.528184 206.262828 
L 444.337161 209.327524 
L 445.146138 216.332543 
L 445.955115 218.083798 
L 446.764092 219.397239 
L 447.573069 222.899749 
L 448.382046 224.21319 
L 449.191023 225.964445 
L 450 226.840073 
L 450 226.840073 
" style="fill:none;stroke:#b3220f;stroke-linecap:square;stroke-width:1.5;"/>
   </g>
   <g id="patch_3">
    <path d="M 62.5 262.5 
L 62.5 27 
" style="fill:none;stroke:#555555;stroke-linecap:square;stroke-linejoin:miter;"/>
   </g>
   <g id="patch_4">
    <path d="M 62.5 262.5 
L 450 262.5 
" style="fill:none;stroke:#555555;stroke-linecap:square;stroke-linejoin:miter;"/>
   </g>
   <g id="text_13">
    <!-- San Cristbal | Casos nuevos: 2021-07-29 -->
    <g style="fill:#555555;" transform="translate(123.735625 17)scale(0.14 -0.14)">
     <defs>
      <path d="M 49.09375 50.5 
L 58.09375 50.5 
Q 57.90625 56.40625 55.84375 60.65625 
Q 53.796875 64.90625 50.25 67.703125 
Q 46.703125 70.5 42 71.796875 
Q 37.296875 73.09375 31.796875 73.09375 
Q 26.90625 73.09375 22.25 71.84375 
Q 17.59375 70.59375 13.9375 68.046875 
Q 10.296875 65.5 8.09375 61.546875 
Q 5.90625 57.59375 5.90625 52.203125 
Q 5.90625 47.296875 7.84375 44.046875 
Q 9.796875 40.796875 13.046875 38.75 
Q 16.296875 36.703125 20.390625 35.453125 
Q 24.5 34.203125 28.75 33.25 
Q 33 32.296875 37.09375 31.390625 
Q 41.203125 30.5 44.453125 29.046875 
Q 47.703125 27.59375 49.640625 25.296875 
Q 51.59375 23 51.59375 19.296875 
Q 51.59375 15.40625 50 12.90625 
Q 48.40625 10.40625 45.796875 8.953125 
Q 43.203125 7.5 39.953125 6.890625 
Q 36.703125 6.296875 33.5 6.296875 
Q 29.5 6.296875 25.703125 7.296875 
Q 21.90625 8.296875 19.046875 10.390625 
Q 16.203125 12.5 14.453125 15.75 
Q 12.703125 19 12.703125 23.5 
L 3.703125 23.5 
Q 3.703125 17 6.046875 12.25 
Q 8.40625 7.5 12.453125 4.453125 
Q 16.5 1.40625 21.84375 -0.09375 
Q 27.203125 -1.59375 33.203125 -1.59375 
Q 38.09375 -1.59375 43.046875 -0.4375 
Q 48 0.703125 52 3.25 
Q 56 5.796875 58.546875 9.84375 
Q 61.09375 13.90625 61.09375 19.59375 
Q 61.09375 24.90625 59.140625 28.40625 
Q 57.203125 31.90625 53.953125 34.203125 
Q 50.703125 36.5 46.59375 37.84375 
Q 42.5 39.203125 38.25 40.203125 
Q 34 41.203125 29.890625 42.046875 
Q 25.796875 42.90625 22.546875 44.203125 
Q 19.296875 45.5 17.34375 47.546875 
Q 15.40625 49.59375 15.40625 52.90625 
Q 15.40625 56.40625 16.75 58.75 
Q 18.09375 61.09375 20.34375 62.5 
Q 22.59375 63.90625 25.5 64.5 
Q 28.40625 65.09375 31.40625 65.09375 
Q 38.796875 65.09375 43.546875 61.640625 
Q 48.296875 58.203125 49.09375 50.5 
z
" id="HelveticaNeue-83"/>
      <path id="HelveticaNeue-32"/>
      <path d="M 58 49.90625 
L 67.5 49.90625 
Q 66.703125 55.59375 64.09375 59.9375 
Q 61.5 64.296875 57.59375 67.1875 
Q 53.703125 70.09375 48.703125 71.59375 
Q 43.703125 73.09375 38.09375 73.09375 
Q 29.90625 73.09375 23.546875 70.140625 
Q 17.203125 67.203125 12.953125 62.09375 
Q 8.703125 57 6.5 50.140625 
Q 4.296875 43.296875 4.296875 35.5 
Q 4.296875 27.703125 6.34375 20.890625 
Q 8.40625 14.09375 12.5 9.09375 
Q 16.59375 4.09375 22.796875 1.25 
Q 29 -1.59375 37.296875 -1.59375 
Q 51 -1.59375 58.890625 5.90625 
Q 66.796875 13.40625 68.203125 26.90625 
L 58.703125 26.90625 
Q 58.40625 22.5 56.90625 18.703125 
Q 55.40625 14.90625 52.75 12.15625 
Q 50.09375 9.40625 46.4375 7.84375 
Q 42.796875 6.296875 38.09375 6.296875 
Q 31.703125 6.296875 27.09375 8.6875 
Q 22.5 11.09375 19.546875 15.140625 
Q 16.59375 19.203125 15.1875 24.640625 
Q 13.796875 30.09375 13.796875 36.203125 
Q 13.796875 41.796875 15.1875 47 
Q 16.59375 52.203125 19.546875 56.25 
Q 22.5 60.296875 27.046875 62.6875 
Q 31.59375 65.09375 38 65.09375 
Q 45.5 65.09375 50.953125 61.296875 
Q 56.40625 57.5 58 49.90625 
z
" id="HelveticaNeue-67"/>
      <path d="M 15.40625 61 
L 15.40625 71.40625 
L 6.90625 71.40625 
L 6.90625 61 
z
M 6.90625 51.703125 
L 6.90625 0 
L 15.40625 0 
L 15.40625 51.703125 
z
" id="HelveticaNeue-105"/>
      <path d="M 11.59375 16.296875 
L 3.09375 16.296875 
Q 3.296875 11.5 5.09375 8.140625 
Q 6.90625 4.796875 9.90625 2.75 
Q 12.90625 0.703125 16.796875 -0.1875 
Q 20.703125 -1.09375 25 -1.09375 
Q 28.90625 -1.09375 32.84375 -0.34375 
Q 36.796875 0.40625 39.9375 2.296875 
Q 43.09375 4.203125 45.046875 7.296875 
Q 47 10.40625 47 15.09375 
Q 47 18.796875 45.546875 21.296875 
Q 44.09375 23.796875 41.75 25.4375 
Q 39.40625 27.09375 36.34375 28.09375 
Q 33.296875 29.09375 30.09375 29.796875 
Q 27.09375 30.5 24.09375 31.140625 
Q 21.09375 31.796875 18.6875 32.75 
Q 16.296875 33.703125 14.75 35.140625 
Q 13.203125 36.59375 13.203125 38.796875 
Q 13.203125 40.796875 14.203125 42.046875 
Q 15.203125 43.296875 16.796875 44.046875 
Q 18.40625 44.796875 20.34375 45.09375 
Q 22.296875 45.40625 24.203125 45.40625 
Q 26.296875 45.40625 28.34375 44.953125 
Q 30.40625 44.5 32.09375 43.5 
Q 33.796875 42.5 34.890625 40.84375 
Q 36 39.203125 36.203125 36.703125 
L 44.703125 36.703125 
Q 44.40625 41.40625 42.703125 44.546875 
Q 41 47.703125 38.140625 49.546875 
Q 35.296875 51.40625 31.59375 52.15625 
Q 27.90625 52.90625 23.5 52.90625 
Q 20.09375 52.90625 16.640625 52.046875 
Q 13.203125 51.203125 10.453125 49.453125 
Q 7.703125 47.703125 5.953125 44.890625 
Q 4.203125 42.09375 4.203125 38.203125 
Q 4.203125 33.203125 6.703125 30.390625 
Q 9.203125 27.59375 12.953125 26.046875 
Q 16.703125 24.5 21.09375 23.640625 
Q 25.5 22.796875 29.25 21.75 
Q 33 20.703125 35.5 19 
Q 38 17.296875 38 14 
Q 38 11.59375 36.796875 10.046875 
Q 35.59375 8.5 33.75 7.703125 
Q 31.90625 6.90625 29.703125 6.59375 
Q 27.5 6.296875 25.5 6.296875 
Q 22.90625 6.296875 20.453125 6.796875 
Q 18 7.296875 16.046875 8.4375 
Q 14.09375 9.59375 12.890625 11.546875 
Q 11.703125 13.5 11.59375 16.296875 
z
" id="HelveticaNeue-115"/>
      <path d="M 12.59375 25.796875 
Q 12.59375 30.5 13.84375 34.140625 
Q 15.09375 37.796875 17.296875 40.296875 
Q 19.5 42.796875 22.453125 44.09375 
Q 25.40625 45.40625 28.703125 45.40625 
Q 32 45.40625 34.953125 44.09375 
Q 37.90625 42.796875 40.09375 40.296875 
Q 42.296875 37.796875 43.546875 34.140625 
Q 44.796875 30.5 44.796875 25.796875 
Q 44.796875 21.09375 43.546875 17.4375 
Q 42.296875 13.796875 40.09375 11.34375 
Q 37.90625 8.90625 34.953125 7.59375 
Q 32 6.296875 28.703125 6.296875 
Q 25.40625 6.296875 22.453125 7.59375 
Q 19.5 8.90625 17.296875 11.34375 
Q 15.09375 13.796875 13.84375 17.4375 
Q 12.59375 21.09375 12.59375 25.796875 
z
M 3.59375 25.796875 
Q 3.59375 20.09375 5.1875 15.1875 
Q 6.796875 10.296875 10 6.640625 
Q 13.203125 3 17.890625 0.953125 
Q 22.59375 -1.09375 28.703125 -1.09375 
Q 34.90625 -1.09375 39.546875 0.953125 
Q 44.203125 3 47.390625 6.640625 
Q 50.59375 10.296875 52.1875 15.1875 
Q 53.796875 20.09375 53.796875 25.796875 
Q 53.796875 31.5 52.1875 36.453125 
Q 50.59375 41.40625 47.390625 45.046875 
Q 44.203125 48.703125 39.546875 50.796875 
Q 34.90625 52.90625 28.703125 52.90625 
Q 22.59375 52.90625 17.890625 50.796875 
Q 13.203125 48.703125 10 45.046875 
Q 6.796875 41.40625 5.1875 36.453125 
Q 3.59375 31.5 3.59375 25.796875 
z
M 42.5 77 
L 28.40625 60.796875 
L 22 60.796875 
L 31.59375 77 
z
" id="HelveticaNeue-243"/>
      <path d="M 6.703125 71.40625 
L 6.703125 0 
L 15.203125 0 
L 15.203125 6.90625 
L 15.40625 6.90625 
Q 16.796875 4.59375 18.84375 3.046875 
Q 20.90625 1.5 23.203125 0.59375 
Q 25.5 -0.296875 27.84375 -0.6875 
Q 30.203125 -1.09375 32.09375 -1.09375 
Q 38 -1.09375 42.453125 1 
Q 46.90625 3.09375 49.84375 6.75 
Q 52.796875 10.40625 54.25 15.296875 
Q 55.703125 20.203125 55.703125 25.703125 
Q 55.703125 31.203125 54.203125 36.09375 
Q 52.703125 41 49.75 44.75 
Q 46.796875 48.5 42.34375 50.703125 
Q 37.90625 52.90625 31.90625 52.90625 
Q 26.5 52.90625 22 50.953125 
Q 17.5 49 15.40625 44.703125 
L 15.203125 44.703125 
L 15.203125 71.40625 
z
M 46.703125 26.296875 
Q 46.703125 22.5 45.890625 18.890625 
Q 45.09375 15.296875 43.296875 12.5 
Q 41.5 9.703125 38.546875 8 
Q 35.59375 6.296875 31.203125 6.296875 
Q 26.796875 6.296875 23.6875 7.9375 
Q 20.59375 9.59375 18.640625 12.296875 
Q 16.703125 15 15.796875 18.546875 
Q 14.90625 22.09375 14.90625 25.90625 
Q 14.90625 29.5 15.75 33 
Q 16.59375 36.5 18.5 39.25 
Q 20.40625 42 23.40625 43.703125 
Q 26.40625 45.40625 30.703125 45.40625 
Q 34.796875 45.40625 37.84375 43.796875 
Q 40.90625 42.203125 42.84375 39.5 
Q 44.796875 36.796875 45.75 33.34375 
Q 46.703125 29.90625 46.703125 26.296875 
z
" id="HelveticaNeue-98"/>
      <path d="M 7.703125 78.59375 
L 7.703125 -21.296875 
L 14.5 -21.296875 
L 14.5 78.59375 
z
" id="HelveticaNeue-124"/>
      <path d="M 12.59375 25.796875 
Q 12.59375 30.5 13.84375 34.140625 
Q 15.09375 37.796875 17.296875 40.296875 
Q 19.5 42.796875 22.453125 44.09375 
Q 25.40625 45.40625 28.703125 45.40625 
Q 32 45.40625 34.953125 44.09375 
Q 37.90625 42.796875 40.09375 40.296875 
Q 42.296875 37.796875 43.546875 34.140625 
Q 44.796875 30.5 44.796875 25.796875 
Q 44.796875 21.09375 43.546875 17.4375 
Q 42.296875 13.796875 40.09375 11.34375 
Q 37.90625 8.90625 34.953125 7.59375 
Q 32 6.296875 28.703125 6.296875 
Q 25.40625 6.296875 22.453125 7.59375 
Q 19.5 8.90625 17.296875 11.34375 
Q 15.09375 13.796875 13.84375 17.4375 
Q 12.59375 21.09375 12.59375 25.796875 
z
M 3.59375 25.796875 
Q 3.59375 20.09375 5.1875 15.1875 
Q 6.796875 10.296875 10 6.640625 
Q 13.203125 3 17.890625 0.953125 
Q 22.59375 -1.09375 28.703125 -1.09375 
Q 34.90625 -1.09375 39.546875 0.953125 
Q 44.203125 3 47.390625 6.640625 
Q 50.59375 10.296875 52.1875 15.1875 
Q 53.796875 20.09375 53.796875 25.796875 
Q 53.796875 31.5 52.1875 36.453125 
Q 50.59375 41.40625 47.390625 45.046875 
Q 44.203125 48.703125 39.546875 50.796875 
Q 34.90625 52.90625 28.703125 52.90625 
Q 22.59375 52.90625 17.890625 50.796875 
Q 13.203125 48.703125 10 45.046875 
Q 6.796875 41.40625 5.1875 36.453125 
Q 3.59375 31.5 3.59375 25.796875 
z
" id="HelveticaNeue-111"/>
      <path d="M 29.703125 0 
L 48.59375 51.703125 
L 39.703125 51.703125 
L 25.59375 8.59375 
L 25.40625 8.59375 
L 10.90625 51.703125 
L 1.40625 51.703125 
L 20.59375 0 
z
" id="HelveticaNeue-118"/>
      <path d="M 19.40625 40.59375 
L 19.40625 51.703125 
L 8.296875 51.703125 
L 8.296875 40.59375 
z
M 8.296875 11.09375 
L 8.296875 0 
L 19.40625 0 
L 19.40625 11.09375 
z
" id="HelveticaNeue-58"/>
      <path d="M 5 31.796875 
L 5 23.796875 
L 33.90625 23.796875 
L 33.90625 31.796875 
z
" id="HelveticaNeue-45"/>
      <path d="M 50.90625 62.40625 
L 50.90625 69.703125 
L 5 69.703125 
L 5 61.703125 
L 42.203125 61.703125 
Q 36.59375 55.796875 31.75 48.796875 
Q 26.90625 41.796875 23.203125 33.9375 
Q 19.5 26.09375 17.140625 17.546875 
Q 14.796875 9 14.203125 0 
L 23.703125 0 
Q 24.203125 8.296875 26.5 17.09375 
Q 28.796875 25.90625 32.4375 34.203125 
Q 36.09375 42.5 40.796875 49.796875 
Q 45.5 57.09375 50.90625 62.40625 
z
" id="HelveticaNeue-55"/>
      <path d="M 13.40625 17.09375 
L 4.90625 17.09375 
Q 5.703125 7.90625 11.59375 3.40625 
Q 17.5 -1.09375 26.40625 -1.09375 
Q 39.296875 -1.09375 45.140625 8.75 
Q 51 18.59375 51 37 
Q 51 47.09375 49.046875 53.640625 
Q 47.09375 60.203125 43.796875 64 
Q 40.5 67.796875 36.09375 69.34375 
Q 31.703125 70.90625 26.703125 70.90625 
Q 21.59375 70.90625 17.296875 69.203125 
Q 13 67.5 9.890625 64.453125 
Q 6.796875 61.40625 5.09375 57.15625 
Q 3.40625 52.90625 3.40625 47.796875 
Q 3.40625 42.59375 4.84375 38.1875 
Q 6.296875 33.796875 9.140625 30.6875 
Q 12 27.59375 16.203125 25.84375 
Q 20.40625 24.09375 25.796875 24.09375 
Q 31 24.09375 35.390625 26.75 
Q 39.796875 29.40625 42.203125 33.90625 
L 42.40625 33.703125 
Q 42 19.796875 38.09375 13.046875 
Q 34.203125 6.296875 26.40625 6.296875 
Q 21.296875 6.296875 17.59375 9.09375 
Q 13.90625 11.90625 13.40625 17.09375 
z
M 40.90625 47.203125 
Q 40.90625 44.09375 39.90625 41.25 
Q 38.90625 38.40625 37 36.25 
Q 35.09375 34.09375 32.390625 32.84375 
Q 29.703125 31.59375 26.40625 31.59375 
Q 23.296875 31.59375 20.75 32.84375 
Q 18.203125 34.09375 16.34375 36.1875 
Q 14.5 38.296875 13.453125 41 
Q 12.40625 43.703125 12.40625 46.59375 
Q 12.40625 49.90625 13.15625 52.90625 
Q 13.90625 55.90625 15.546875 58.25 
Q 17.203125 60.59375 19.84375 62 
Q 22.5 63.40625 26.296875 63.40625 
Q 29.90625 63.40625 32.59375 62.09375 
Q 35.296875 60.796875 37.140625 58.546875 
Q 39 56.296875 39.953125 53.390625 
Q 40.90625 50.5 40.90625 47.203125 
z
" id="HelveticaNeue-57"/>
     </defs>
     <use xlink:href="#HelveticaNeue-83"/>
     <use x="64.799988" xlink:href="#HelveticaNeue-97"/>
     <use x="118.499985" xlink:href="#HelveticaNeue-110"/>
     <use x="174.099976" xlink:href="#HelveticaNeue-32"/>
     <use x="201.899963" xlink:href="#HelveticaNeue-67"/>
     <use x="274.099945" xlink:href="#HelveticaNeue-114"/>
     <use x="307.399933" xlink:href="#HelveticaNeue-105"/>
     <use x="329.59993" xlink:href="#HelveticaNeue-115"/>
     <use x="379.599915" xlink:href="#HelveticaNeue-116"/>
     <use x="411.099899" xlink:href="#HelveticaNeue-243"/>
     <use x="468.499893" xlink:href="#HelveticaNeue-98"/>
     <use x="527.799881" xlink:href="#HelveticaNeue-97"/>
     <use x="581.499878" xlink:href="#HelveticaNeue-108"/>
     <use x="603.699875" xlink:href="#HelveticaNeue-32"/>
     <use x="631.499863" xlink:href="#HelveticaNeue-124"/>
     <use x="653.69986" xlink:href="#HelveticaNeue-32"/>
     <use x="681.499847" xlink:href="#HelveticaNeue-67"/>
     <use x="753.699829" xlink:href="#HelveticaNeue-97"/>
     <use x="807.399826" xlink:href="#HelveticaNeue-115"/>
     <use x="857.399811" xlink:href="#HelveticaNeue-111"/>
     <use x="914.799805" xlink:href="#HelveticaNeue-115"/>
     <use x="964.799789" xlink:href="#HelveticaNeue-32"/>
     <use x="992.599777" xlink:href="#HelveticaNeue-110"/>
     <use x="1048.199768" xlink:href="#HelveticaNeue-117"/>
     <use x="1103.799759" xlink:href="#HelveticaNeue-101"/>
     <use x="1157.499756" xlink:href="#HelveticaNeue-118"/>
     <use x="1207.499741" xlink:href="#HelveticaNeue-111"/>
     <use x="1264.899734" xlink:href="#HelveticaNeue-115"/>
     <use x="1314.899719" xlink:href="#HelveticaNeue-58"/>
     <use x="1342.699707" xlink:href="#HelveticaNeue-32"/>
     <use x="1370.499695" xlink:href="#HelveticaNeue-50"/>
     <use x="1426.099686" xlink:href="#HelveticaNeue-48"/>
     <use x="1481.699677" xlink:href="#HelveticaNeue-50"/>
     <use x="1537.299667" xlink:href="#HelveticaNeue-49"/>
     <use x="1592.899658" xlink:href="#HelveticaNeue-45"/>
     <use x="1631.799652" xlink:href="#HelveticaNeue-48"/>
     <use x="1687.399643" xlink:href="#HelveticaNeue-55"/>
     <use x="1742.999634" xlink:href="#HelveticaNeue-45"/>
     <use x="1781.899628" xlink:href="#HelveticaNeue-50"/>
     <use x="1837.499619" xlink:href="#HelveticaNeue-57"/>
    </g>
   </g>
   <g id="legend_1">
    <g id="line2d_26">
     <path d="M 71.5 39.640625 
L 91.5 39.640625 
" style="fill:none;stroke:#000000;stroke-dasharray:1.5,2.475;stroke-dashoffset:0;stroke-opacity:0.5;stroke-width:1.5;"/>
    </g>
    <g id="line2d_27"/>
    <g id="text_14">
     <!-- Actual -->
     <g style="fill:#555555;" transform="translate(99.5 43.140625)scale(0.1 -0.1)">
      <use xlink:href="#HelveticaNeue-65"/>
      <use x="64.799988" xlink:href="#HelveticaNeue-99"/>
      <use x="118.499985" xlink:href="#HelveticaNeue-116"/>
      <use x="149.999969" xlink:href="#HelveticaNeue-117"/>
      <use x="205.59996" xlink:href="#HelveticaNeue-97"/>
      <use x="259.299957" xlink:href="#HelveticaNeue-108"/>
     </g>
    </g>
    <g id="line2d_28">
     <path d="M 71.5 54.310937 
L 91.5 54.310937 
" style="fill:none;stroke:#b3220f;stroke-linecap:square;stroke-width:1.5;"/>
    </g>
    <g id="line2d_29"/>
    <g id="text_15">
     <!-- Promedio semanal (7 das)  -->
     <g style="fill:#555555;" transform="translate(99.5 57.810937)scale(0.1 -0.1)">
      <defs>
       <path d="M 17.296875 37.203125 
L 17.296875 63.40625 
L 35.90625 63.40625 
Q 44 63.40625 47.75 60.046875 
Q 51.5 56.703125 51.5 50.296875 
Q 51.5 43.90625 47.75 40.5 
Q 44 37.09375 35.90625 37.203125 
z
M 7.796875 71.40625 
L 7.796875 0 
L 17.296875 0 
L 17.296875 29.203125 
L 39.09375 29.203125 
Q 49.90625 29.09375 55.453125 34.6875 
Q 61 40.296875 61 50.296875 
Q 61 60.296875 55.453125 65.84375 
Q 49.90625 71.40625 39.09375 71.40625 
z
" id="HelveticaNeue-80"/>
       <path d="M 6.40625 51.703125 
L 6.40625 0 
L 14.90625 0 
L 14.90625 32.203125 
Q 14.90625 33.703125 15.65625 35.953125 
Q 16.40625 38.203125 18.046875 40.296875 
Q 19.703125 42.40625 22.34375 43.90625 
Q 25 45.40625 28.703125 45.40625 
Q 31.59375 45.40625 33.4375 44.546875 
Q 35.296875 43.703125 36.390625 42.140625 
Q 37.5 40.59375 37.953125 38.5 
Q 38.40625 36.40625 38.40625 33.90625 
L 38.40625 0 
L 46.90625 0 
L 46.90625 32.203125 
Q 46.90625 38.203125 50.5 41.796875 
Q 54.09375 45.40625 60.40625 45.40625 
Q 63.5 45.40625 65.453125 44.5 
Q 67.40625 43.59375 68.5 42.046875 
Q 69.59375 40.5 70 38.390625 
Q 70.40625 36.296875 70.40625 33.90625 
L 70.40625 0 
L 78.90625 0 
L 78.90625 37.90625 
Q 78.90625 41.90625 77.65625 44.75 
Q 76.40625 47.59375 74.15625 49.390625 
Q 71.90625 51.203125 68.75 52.046875 
Q 65.59375 52.90625 61.703125 52.90625 
Q 56.59375 52.90625 52.34375 50.59375 
Q 48.09375 48.296875 45.5 44.09375 
Q 43.90625 48.90625 40 50.90625 
Q 36.09375 52.90625 31.296875 52.90625 
Q 20.40625 52.90625 14.59375 44.09375 
L 14.40625 44.09375 
L 14.40625 51.703125 
z
" id="HelveticaNeue-109"/>
       <path d="M 12.59375 25.40625 
Q 12.59375 29.203125 13.390625 32.796875 
Q 14.203125 36.40625 16 39.203125 
Q 17.796875 42 20.796875 43.703125 
Q 23.796875 45.40625 28.09375 45.40625 
Q 32.5 45.40625 35.59375 43.75 
Q 38.703125 42.09375 40.640625 39.390625 
Q 42.59375 36.703125 43.5 33.140625 
Q 44.40625 29.59375 44.40625 25.796875 
Q 44.40625 22.203125 43.546875 18.703125 
Q 42.703125 15.203125 40.796875 12.453125 
Q 38.90625 9.703125 35.90625 8 
Q 32.90625 6.296875 28.59375 6.296875 
Q 24.5 6.296875 21.453125 7.890625 
Q 18.40625 9.5 16.453125 12.203125 
Q 14.5 14.90625 13.546875 18.34375 
Q 12.59375 21.796875 12.59375 25.40625 
z
M 52.59375 0 
L 52.59375 71.40625 
L 44.09375 71.40625 
L 44.09375 44.796875 
L 43.90625 44.796875 
Q 42.5 47.09375 40.453125 48.640625 
Q 38.40625 50.203125 36.09375 51.140625 
Q 33.796875 52.09375 31.5 52.5 
Q 29.203125 52.90625 27.203125 52.90625 
Q 21.296875 52.90625 16.84375 50.75 
Q 12.40625 48.59375 9.453125 44.9375 
Q 6.5 41.296875 5.046875 36.390625 
Q 3.59375 31.5 3.59375 26 
Q 3.59375 20.5 5.09375 15.59375 
Q 6.59375 10.703125 9.546875 7 
Q 12.5 3.296875 16.953125 1.09375 
Q 21.40625 -1.09375 27.40625 -1.09375 
Q 32.796875 -1.09375 37.296875 0.796875 
Q 41.796875 2.703125 43.90625 7 
L 44.09375 7 
L 44.09375 0 
z
" id="HelveticaNeue-100"/>
       <path d="M 20.40625 -19.703125 
L 26.90625 -19.703125 
Q 19.796875 -8.203125 16.75 3.09375 
Q 13.703125 14.40625 13.703125 27 
Q 13.703125 39.296875 16.703125 50.5 
Q 19.703125 61.703125 26.90625 73.09375 
L 20.40625 73.09375 
Q 12.59375 62.796875 8.640625 50.796875 
Q 4.703125 38.796875 4.703125 27 
Q 4.703125 20.40625 5.796875 14.40625 
Q 6.90625 8.40625 8.953125 2.703125 
Q 11 -3 13.890625 -8.546875 
Q 16.796875 -14.09375 20.40625 -19.703125 
z
" id="HelveticaNeue-40"/>
       <path d="M 6.90625 0 
L 15.40625 0 
L 15.40625 51.703125 
L 6.90625 51.703125 
z
M 25.5 77 
L 11.40625 60.796875 
L 5 60.796875 
L 14.59375 77 
z
" id="HelveticaNeue-237"/>
       <path d="M -0.90625 -19.703125 
L 5.5 -19.703125 
Q 13.296875 -9.40625 17.25 2.546875 
Q 21.203125 14.5 21.203125 26.296875 
Q 21.203125 32.90625 20.09375 38.90625 
Q 19 44.90625 16.953125 50.65625 
Q 14.90625 56.40625 12 61.953125 
Q 9.09375 67.5 5.5 73.09375 
L -0.90625 73.09375 
Q 6.09375 61.59375 9.140625 50.25 
Q 12.203125 38.90625 12.203125 26.296875 
Q 12.203125 14.09375 9.203125 2.84375 
Q 6.203125 -8.40625 -0.90625 -19.703125 
z
" id="HelveticaNeue-41"/>
      </defs>
      <use xlink:href="#HelveticaNeue-80"/>
      <use x="64.799988" xlink:href="#HelveticaNeue-114"/>
      <use x="96.349976" xlink:href="#HelveticaNeue-111"/>
      <use x="153.749969" xlink:href="#HelveticaNeue-109"/>
      <use x="239.049957" xlink:href="#HelveticaNeue-101"/>
      <use x="292.749954" xlink:href="#HelveticaNeue-100"/>
      <use x="352.049942" xlink:href="#HelveticaNeue-105"/>
      <use x="374.249939" xlink:href="#HelveticaNeue-111"/>
      <use x="431.649933" xlink:href="#HelveticaNeue-32"/>
      <use x="459.449921" xlink:href="#HelveticaNeue-115"/>
      <use x="509.449905" xlink:href="#HelveticaNeue-101"/>
      <use x="563.149902" xlink:href="#HelveticaNeue-109"/>
      <use x="648.44989" xlink:href="#HelveticaNeue-97"/>
      <use x="702.149887" xlink:href="#HelveticaNeue-110"/>
      <use x="757.749878" xlink:href="#HelveticaNeue-97"/>
      <use x="811.449875" xlink:href="#HelveticaNeue-108"/>
      <use x="833.649872" xlink:href="#HelveticaNeue-32"/>
      <use x="861.44986" xlink:href="#HelveticaNeue-40"/>
      <use x="887.349854" xlink:href="#HelveticaNeue-55"/>
      <use x="942.949844" xlink:href="#HelveticaNeue-32"/>
      <use x="970.749832" xlink:href="#HelveticaNeue-100"/>
      <use x="1030.04982" xlink:href="#HelveticaNeue-237"/>
      <use x="1052.249817" xlink:href="#HelveticaNeue-97"/>
      <use x="1105.949814" xlink:href="#HelveticaNeue-115"/>
      <use x="1155.949799" xlink:href="#HelveticaNeue-41"/>
      <use x="1181.849792" xlink:href="#HelveticaNeue-32"/>
     </g>
    </g>
   </g>
  </g>
 </g>
 <defs>
  <clipPath id="pb7b110cd48">
   <rect height="235.5" width="387.5" x="62.5" y="27"/>
  </clipPath>
 </defs>
</svg>
