<?xml version="1.0" encoding="utf-8" standalone="no"?>
<!DOCTYPE svg PUBLIC "-//W3C//DTD SVG 1.1//EN"
  "http://www.w3.org/Graphics/SVG/1.1/DTD/svg11.dtd">
<!-- Created with matplotlib (https://matplotlib.org/) -->
<svg height="300pt" version="1.1" viewBox="0 0 500 300" width="500pt" xmlns="http://www.w3.org/2000/svg" xmlns:xlink="http://www.w3.org/1999/xlink">
 <metadata>
  <rdf:RDF xmlns:cc="http://creativecommons.org/ns#" xmlns:dc="http://purl.org/dc/elements/1.1/" xmlns:rdf="http://www.w3.org/1999/02/22-rdf-syntax-ns#">
   <cc:Work>
    <dc:type rdf:resource="http://purl.org/dc/dcmitype/StillImage"/>
    <dc:date>2021-06-30T08:20:08.568652</dc:date>
    <dc:format>image/svg+xml</dc:format>
    <dc:creator>
     <cc:Agent>
      <dc:title>Matplotlib v3.3.4, https://matplotlib.org/</dc:title>
     </cc:Agent>
    </dc:creator>
   </cc:Work>
  </rdf:RDF>
 </metadata>
 <defs>
  <style type="text/css">*{stroke-linecap:butt;stroke-linejoin:round;}</style>
 </defs>
 <g id="figure_1">
  <g id="patch_1">
   <path d="M 0 300 
L 500 300 
L 500 0 
L 0 0 
z
" style="fill:#ffffff;"/>
  </g>
  <g id="axes_1">
   <g id="patch_2">
    <path d="M 62.5 262.5 
L 450 262.5 
L 450 27 
L 62.5 27 
z
" style="fill:#ffffff;"/>
   </g>
   <g id="matplotlib.axis_1">
    <g id="xtick_1">
     <g id="line2d_1">
      <defs>
       <path d="M 0 0 
L 0 3.5 
" id="m8b129f2b85" style="stroke:#555555;stroke-width:0.8;"/>
      </defs>
      <g>
       <use style="fill:#555555;stroke:#555555;stroke-width:0.8;" x="62.5" xlink:href="#m8b129f2b85" y="262.5"/>
      </g>
     </g>
    </g>
    <g id="xtick_2">
     <g id="line2d_2">
      <g>
       <use style="fill:#555555;stroke:#555555;stroke-width:0.8;" x="136.886161" xlink:href="#m8b129f2b85" y="262.5"/>
      </g>
     </g>
     <g id="text_1">
      <!-- Jul -->
      <g style="fill:#555555;" transform="translate(130.401004 276.640625)scale(0.1 -0.1)">
       <defs>
        <path d="M 44.09375 17.796875 
L 44.09375 71.40625 
L 34.59375 71.40625 
L 34.59375 19.203125 
Q 34.59375 13.296875 32.140625 9.796875 
Q 29.703125 6.296875 23.203125 6.296875 
Q 19.703125 6.296875 17.453125 7.34375 
Q 15.203125 8.40625 13.953125 10.296875 
Q 12.703125 12.203125 12.203125 14.796875 
Q 11.703125 17.40625 11.703125 20.5 
L 11.703125 23.5 
L 2.203125 23.5 
L 2.203125 19.09375 
Q 2.203125 8.90625 7.59375 3.65625 
Q 13 -1.59375 23 -1.59375 
Q 29 -1.59375 33.046875 0.046875 
Q 37.09375 1.703125 39.546875 4.453125 
Q 42 7.203125 43.046875 10.703125 
Q 44.09375 14.203125 44.09375 17.796875 
z
" id="HelveticaNeue-74"/>
        <path d="M 49.203125 0 
L 49.203125 51.703125 
L 40.703125 51.703125 
L 40.703125 22.5 
Q 40.703125 19 39.75 16.046875 
Q 38.796875 13.09375 36.890625 10.890625 
Q 35 8.703125 32.140625 7.5 
Q 29.296875 6.296875 25.40625 6.296875 
Q 20.5 6.296875 17.703125 9.09375 
Q 14.90625 11.90625 14.90625 16.703125 
L 14.90625 51.703125 
L 6.40625 51.703125 
L 6.40625 17.703125 
Q 6.40625 13.5 7.25 10.046875 
Q 8.09375 6.59375 10.1875 4.09375 
Q 12.296875 1.59375 15.6875 0.25 
Q 19.09375 -1.09375 24.203125 -1.09375 
Q 29.90625 -1.09375 34.09375 1.15625 
Q 38.296875 3.40625 41 8.203125 
L 41.203125 8.203125 
L 41.203125 0 
z
" id="HelveticaNeue-117"/>
        <path d="M 6.90625 71.40625 
L 6.90625 0 
L 15.40625 0 
L 15.40625 71.40625 
z
" id="HelveticaNeue-108"/>
       </defs>
       <use xlink:href="#HelveticaNeue-74"/>
       <use x="51.899994" xlink:href="#HelveticaNeue-117"/>
       <use x="107.499985" xlink:href="#HelveticaNeue-108"/>
      </g>
     </g>
    </g>
    <g id="xtick_3">
     <g id="line2d_3">
      <g>
       <use style="fill:#555555;stroke:#555555;stroke-width:0.8;" x="216.462054" xlink:href="#m8b129f2b85" y="262.5"/>
      </g>
     </g>
     <g id="text_2">
      <!-- Oct -->
      <g style="fill:#555555;" transform="translate(208.401897 276.640625)scale(0.1 -0.1)">
       <defs>
        <path d="M 13.296875 35.703125 
Q 13.296875 41.09375 14.6875 46.34375 
Q 16.09375 51.59375 19.09375 55.796875 
Q 22.09375 60 26.796875 62.546875 
Q 31.5 65.09375 38 65.09375 
Q 44.5 65.09375 49.203125 62.546875 
Q 53.90625 60 56.90625 55.796875 
Q 59.90625 51.59375 61.296875 46.34375 
Q 62.703125 41.09375 62.703125 35.703125 
Q 62.703125 30.296875 61.296875 25.046875 
Q 59.90625 19.796875 56.90625 15.59375 
Q 53.90625 11.40625 49.203125 8.84375 
Q 44.5 6.296875 38 6.296875 
Q 31.5 6.296875 26.796875 8.84375 
Q 22.09375 11.40625 19.09375 15.59375 
Q 16.09375 19.796875 14.6875 25.046875 
Q 13.296875 30.296875 13.296875 35.703125 
z
M 3.796875 35.703125 
Q 3.796875 28.40625 5.9375 21.65625 
Q 8.09375 14.90625 12.390625 9.703125 
Q 16.703125 4.5 23.09375 1.453125 
Q 29.5 -1.59375 38 -1.59375 
Q 46.5 -1.59375 52.890625 1.453125 
Q 59.296875 4.5 63.59375 9.703125 
Q 67.90625 14.90625 70.046875 21.65625 
Q 72.203125 28.40625 72.203125 35.703125 
Q 72.203125 43 70.046875 49.75 
Q 67.90625 56.5 63.59375 61.703125 
Q 59.296875 66.90625 52.890625 70 
Q 46.5 73.09375 38 73.09375 
Q 29.5 73.09375 23.09375 70 
Q 16.703125 66.90625 12.390625 61.703125 
Q 8.09375 56.5 5.9375 49.75 
Q 3.796875 43 3.796875 35.703125 
z
" id="HelveticaNeue-79"/>
        <path d="M 41.5 35.09375 
L 50.296875 35.09375 
Q 49.796875 39.703125 47.890625 43.046875 
Q 46 46.40625 43.046875 48.59375 
Q 40.09375 50.796875 36.25 51.84375 
Q 32.40625 52.90625 28 52.90625 
Q 21.90625 52.90625 17.296875 50.75 
Q 12.703125 48.59375 9.640625 44.84375 
Q 6.59375 41.09375 5.09375 36.046875 
Q 3.59375 31 3.59375 25.203125 
Q 3.59375 19.40625 5.140625 14.546875 
Q 6.703125 9.703125 9.75 6.203125 
Q 12.796875 2.703125 17.34375 0.796875 
Q 21.90625 -1.09375 27.796875 -1.09375 
Q 37.703125 -1.09375 43.453125 4.09375 
Q 49.203125 9.296875 50.59375 18.90625 
L 41.90625 18.90625 
Q 41.09375 12.90625 37.546875 9.59375 
Q 34 6.296875 27.703125 6.296875 
Q 23.703125 6.296875 20.796875 7.890625 
Q 17.90625 9.5 16.09375 12.140625 
Q 14.296875 14.796875 13.4375 18.1875 
Q 12.59375 21.59375 12.59375 25.203125 
Q 12.59375 29.09375 13.390625 32.75 
Q 14.203125 36.40625 16.046875 39.203125 
Q 17.90625 42 21 43.703125 
Q 24.09375 45.40625 28.703125 45.40625 
Q 34.09375 45.40625 37.296875 42.703125 
Q 40.5 40 41.5 35.09375 
z
" id="HelveticaNeue-99"/>
        <path d="M 18.203125 51.703125 
L 18.203125 67.203125 
L 9.703125 67.203125 
L 9.703125 51.703125 
L 0.90625 51.703125 
L 0.90625 44.203125 
L 9.703125 44.203125 
L 9.703125 11.296875 
Q 9.703125 7.703125 10.390625 5.5 
Q 11.09375 3.296875 12.546875 2.09375 
Q 14 0.90625 16.34375 0.453125 
Q 18.703125 0 22 0 
L 28.5 0 
L 28.5 7.5 
L 24.59375 7.5 
Q 22.59375 7.5 21.34375 7.640625 
Q 20.09375 7.796875 19.390625 8.296875 
Q 18.703125 8.796875 18.453125 9.6875 
Q 18.203125 10.59375 18.203125 12.09375 
L 18.203125 44.203125 
L 28.5 44.203125 
L 28.5 51.703125 
z
" id="HelveticaNeue-116"/>
       </defs>
       <use xlink:href="#HelveticaNeue-79"/>
       <use x="75.999985" xlink:href="#HelveticaNeue-99"/>
       <use x="129.699982" xlink:href="#HelveticaNeue-116"/>
      </g>
     </g>
    </g>
    <g id="xtick_4">
     <g id="line2d_4">
      <g>
       <use style="fill:#555555;stroke:#555555;stroke-width:0.8;" x="296.037946" xlink:href="#m8b129f2b85" y="262.5"/>
      </g>
     </g>
     <g id="text_3">
      <!-- Jan -->
      <g style="fill:#555555;" transform="translate(287.97779 276.640625)scale(0.1 -0.1)">
       <defs>
        <path d="M 52.203125 0.203125 
Q 50 -1.09375 46.09375 -1.09375 
Q 42.796875 -1.09375 40.84375 0.75 
Q 38.90625 2.59375 38.90625 6.796875 
Q 35.40625 2.59375 30.75 0.75 
Q 26.09375 -1.09375 20.703125 -1.09375 
Q 17.203125 -1.09375 14.046875 -0.296875 
Q 10.90625 0.5 8.59375 2.203125 
Q 6.296875 3.90625 4.9375 6.65625 
Q 3.59375 9.40625 3.59375 13.296875 
Q 3.59375 17.703125 5.09375 20.5 
Q 6.59375 23.296875 9.046875 25.046875 
Q 11.5 26.796875 14.640625 27.6875 
Q 17.796875 28.59375 21.09375 29.203125 
Q 24.59375 29.90625 27.75 30.25 
Q 30.90625 30.59375 33.296875 31.25 
Q 35.703125 31.90625 37.09375 33.15625 
Q 38.5 34.40625 38.5 36.796875 
Q 38.5 39.59375 37.453125 41.296875 
Q 36.40625 43 34.75 43.890625 
Q 33.09375 44.796875 31.046875 45.09375 
Q 29 45.40625 27 45.40625 
Q 21.59375 45.40625 18 43.34375 
Q 14.40625 41.296875 14.09375 35.59375 
L 5.59375 35.59375 
Q 5.796875 40.40625 7.59375 43.703125 
Q 9.40625 47 12.40625 49.046875 
Q 15.40625 51.09375 19.25 52 
Q 23.09375 52.90625 27.5 52.90625 
Q 31 52.90625 34.453125 52.40625 
Q 37.90625 51.90625 40.703125 50.34375 
Q 43.5 48.796875 45.203125 46 
Q 46.90625 43.203125 46.90625 38.703125 
L 46.90625 12.09375 
Q 46.90625 9.09375 47.25 7.6875 
Q 47.59375 6.296875 49.59375 6.296875 
Q 50.703125 6.296875 52.203125 6.796875 
z
M 38.40625 26.703125 
Q 36.796875 25.5 34.1875 24.953125 
Q 31.59375 24.40625 28.75 24.046875 
Q 25.90625 23.703125 23 23.25 
Q 20.09375 22.796875 17.796875 21.796875 
Q 15.5 20.796875 14.046875 18.9375 
Q 12.59375 17.09375 12.59375 13.90625 
Q 12.59375 11.796875 13.4375 10.34375 
Q 14.296875 8.90625 15.640625 8 
Q 17 7.09375 18.796875 6.6875 
Q 20.59375 6.296875 22.59375 6.296875 
Q 26.796875 6.296875 29.796875 7.4375 
Q 32.796875 8.59375 34.6875 10.34375 
Q 36.59375 12.09375 37.5 14.140625 
Q 38.40625 16.203125 38.40625 18 
z
" id="HelveticaNeue-97"/>
        <path d="M 6.40625 51.703125 
L 6.40625 0 
L 14.90625 0 
L 14.90625 29.203125 
Q 14.90625 32.703125 15.84375 35.640625 
Q 16.796875 38.59375 18.6875 40.796875 
Q 20.59375 43 23.4375 44.203125 
Q 26.296875 45.40625 30.203125 45.40625 
Q 35.09375 45.40625 37.890625 42.59375 
Q 40.703125 39.796875 40.703125 35 
L 40.703125 0 
L 49.203125 0 
L 49.203125 34 
Q 49.203125 38.203125 48.34375 41.640625 
Q 47.5 45.09375 45.390625 47.59375 
Q 43.296875 50.09375 39.890625 51.5 
Q 36.5 52.90625 31.40625 52.90625 
Q 19.90625 52.90625 14.59375 43.5 
L 14.40625 43.5 
L 14.40625 51.703125 
z
" id="HelveticaNeue-110"/>
       </defs>
       <use xlink:href="#HelveticaNeue-74"/>
       <use x="51.899994" xlink:href="#HelveticaNeue-97"/>
       <use x="105.599991" xlink:href="#HelveticaNeue-110"/>
      </g>
      <!-- 2021 -->
      <g style="fill:#555555;" transform="translate(284.919196 287.179688)scale(0.1 -0.1)">
       <defs>
        <path d="M 4.40625 45.796875 
L 12.90625 45.796875 
Q 12.796875 49 13.546875 52.140625 
Q 14.296875 55.296875 16 57.796875 
Q 17.703125 60.296875 20.34375 61.84375 
Q 23 63.40625 26.703125 63.40625 
Q 29.5 63.40625 32 62.5 
Q 34.5 61.59375 36.34375 59.890625 
Q 38.203125 58.203125 39.296875 55.84375 
Q 40.40625 53.5 40.40625 50.59375 
Q 40.40625 46.90625 39.25 44.09375 
Q 38.09375 41.296875 35.84375 38.890625 
Q 33.59375 36.5 30.1875 34.140625 
Q 26.796875 31.796875 22.296875 29 
Q 18.59375 26.796875 15.1875 24.296875 
Q 11.796875 21.796875 9.09375 18.5 
Q 6.40625 15.203125 4.65625 10.75 
Q 2.90625 6.296875 2.40625 0 
L 48.703125 0 
L 48.703125 7.5 
L 12.296875 7.5 
Q 12.90625 10.796875 14.84375 13.34375 
Q 16.796875 15.90625 19.546875 18.09375 
Q 22.296875 20.296875 25.59375 22.25 
Q 28.90625 24.203125 32.203125 26.203125 
Q 35.5 28.296875 38.59375 30.59375 
Q 41.703125 32.90625 44.09375 35.75 
Q 46.5 38.59375 47.953125 42.1875 
Q 49.40625 45.796875 49.40625 50.5 
Q 49.40625 55.5 47.65625 59.296875 
Q 45.90625 63.09375 42.90625 65.640625 
Q 39.90625 68.203125 35.84375 69.546875 
Q 31.796875 70.90625 27.203125 70.90625 
Q 21.59375 70.90625 17.1875 69 
Q 12.796875 67.09375 9.84375 63.75 
Q 6.90625 60.40625 5.5 55.796875 
Q 4.09375 51.203125 4.40625 45.796875 
z
" id="HelveticaNeue-50"/>
        <path d="M 13.203125 34.90625 
Q 13.203125 37.5 13.25 40.640625 
Q 13.296875 43.796875 13.75 46.9375 
Q 14.203125 50.09375 15.046875 53.09375 
Q 15.90625 56.09375 17.546875 58.34375 
Q 19.203125 60.59375 21.703125 62 
Q 24.203125 63.40625 27.796875 63.40625 
Q 31.40625 63.40625 33.90625 62 
Q 36.40625 60.59375 38.046875 58.34375 
Q 39.703125 56.09375 40.546875 53.09375 
Q 41.40625 50.09375 41.84375 46.9375 
Q 42.296875 43.796875 42.34375 40.640625 
Q 42.40625 37.5 42.40625 34.90625 
Q 42.40625 30.90625 42.15625 25.953125 
Q 41.90625 21 40.546875 16.640625 
Q 39.203125 12.296875 36.203125 9.296875 
Q 33.203125 6.296875 27.796875 6.296875 
Q 22.40625 6.296875 19.40625 9.296875 
Q 16.40625 12.296875 15.046875 16.640625 
Q 13.703125 21 13.453125 25.953125 
Q 13.203125 30.90625 13.203125 34.90625 
z
M 4.203125 34.796875 
Q 4.203125 30.90625 4.390625 26.703125 
Q 4.59375 22.5 5.390625 18.5 
Q 6.203125 14.5 7.703125 10.953125 
Q 9.203125 7.40625 11.796875 4.703125 
Q 14.40625 2 18.34375 0.453125 
Q 22.296875 -1.09375 27.796875 -1.09375 
Q 33.40625 -1.09375 37.296875 0.453125 
Q 41.203125 2 43.796875 4.703125 
Q 46.40625 7.40625 47.90625 10.953125 
Q 49.40625 14.5 50.203125 18.5 
Q 51 22.5 51.203125 26.703125 
Q 51.40625 30.90625 51.40625 34.796875 
Q 51.40625 38.703125 51.203125 42.890625 
Q 51 47.09375 50.203125 51.09375 
Q 49.40625 55.09375 47.90625 58.6875 
Q 46.40625 62.296875 43.796875 65 
Q 41.203125 67.703125 37.25 69.296875 
Q 33.296875 70.90625 27.796875 70.90625 
Q 22.296875 70.90625 18.34375 69.296875 
Q 14.40625 67.703125 11.796875 65 
Q 9.203125 62.296875 7.703125 58.6875 
Q 6.203125 55.09375 5.390625 51.09375 
Q 4.59375 47.09375 4.390625 42.890625 
Q 4.203125 38.703125 4.203125 34.796875 
z
" id="HelveticaNeue-48"/>
        <path d="M 35.59375 0 
L 35.59375 70.90625 
L 29.09375 70.90625 
Q 28.40625 66.90625 26.5 64.296875 
Q 24.59375 61.703125 21.84375 60.203125 
Q 19.09375 58.703125 15.6875 58.140625 
Q 12.296875 57.59375 8.703125 57.59375 
L 8.703125 50.796875 
L 27.09375 50.796875 
L 27.09375 0 
z
" id="HelveticaNeue-49"/>
       </defs>
       <use xlink:href="#HelveticaNeue-50"/>
       <use x="55.599991" xlink:href="#HelveticaNeue-48"/>
       <use x="111.199982" xlink:href="#HelveticaNeue-50"/>
       <use x="166.799973" xlink:href="#HelveticaNeue-49"/>
      </g>
     </g>
    </g>
    <g id="xtick_5">
     <g id="line2d_5">
      <g>
       <use style="fill:#555555;stroke:#555555;stroke-width:0.8;" x="373.883929" xlink:href="#m8b129f2b85" y="262.5"/>
      </g>
     </g>
     <g id="text_4">
      <!-- Apr -->
      <g style="fill:#555555;" transform="translate(366.014397 276.640625)scale(0.1 -0.1)">
       <defs>
        <path d="M 20.09375 29.5 
L 32.203125 62.796875 
L 32.40625 62.796875 
L 44.296875 29.5 
z
M 27.203125 71.40625 
L -0.59375 0 
L 9.09375 0 
L 17.09375 21.5 
L 47.296875 21.5 
L 55.09375 0 
L 65.59375 0 
L 37.703125 71.40625 
z
" id="HelveticaNeue-65"/>
        <path d="M 6.703125 51.703125 
L 6.703125 -19.703125 
L 15.203125 -19.703125 
L 15.203125 6.90625 
L 15.40625 6.90625 
Q 16.796875 4.59375 18.84375 3.046875 
Q 20.90625 1.5 23.203125 0.59375 
Q 25.5 -0.296875 27.84375 -0.6875 
Q 30.203125 -1.09375 32.09375 -1.09375 
Q 38 -1.09375 42.453125 1 
Q 46.90625 3.09375 49.84375 6.75 
Q 52.796875 10.40625 54.25 15.296875 
Q 55.703125 20.203125 55.703125 25.703125 
Q 55.703125 31.203125 54.203125 36.09375 
Q 52.703125 41 49.75 44.75 
Q 46.796875 48.5 42.34375 50.703125 
Q 37.90625 52.90625 31.90625 52.90625 
Q 26.5 52.90625 22 50.953125 
Q 17.5 49 15.40625 44.703125 
L 15.203125 44.703125 
L 15.203125 51.703125 
z
M 46.703125 26.296875 
Q 46.703125 22.5 45.890625 18.890625 
Q 45.09375 15.296875 43.296875 12.5 
Q 41.5 9.703125 38.546875 8 
Q 35.59375 6.296875 31.203125 6.296875 
Q 26.796875 6.296875 23.6875 7.9375 
Q 20.59375 9.59375 18.640625 12.296875 
Q 16.703125 15 15.796875 18.546875 
Q 14.90625 22.09375 14.90625 25.90625 
Q 14.90625 29.5 15.75 33 
Q 16.59375 36.5 18.5 39.25 
Q 20.40625 42 23.40625 43.703125 
Q 26.40625 45.40625 30.703125 45.40625 
Q 34.796875 45.40625 37.84375 43.796875 
Q 40.90625 42.203125 42.84375 39.5 
Q 44.796875 36.796875 45.75 33.34375 
Q 46.703125 29.90625 46.703125 26.296875 
z
" id="HelveticaNeue-112"/>
        <path d="M 6.09375 51.703125 
L 6.09375 0 
L 14.59375 0 
L 14.59375 23 
Q 14.59375 28 15.59375 31.84375 
Q 16.59375 35.703125 18.796875 38.390625 
Q 21 41.09375 24.59375 42.5 
Q 28.203125 43.90625 33.296875 43.90625 
L 33.296875 52.90625 
Q 26.40625 53.09375 21.90625 50.09375 
Q 17.40625 47.09375 14.296875 40.796875 
L 14.09375 40.796875 
L 14.09375 51.703125 
z
" id="HelveticaNeue-114"/>
       </defs>
       <use xlink:href="#HelveticaNeue-65"/>
       <use x="64.799988" xlink:href="#HelveticaNeue-112"/>
       <use x="124.099976" xlink:href="#HelveticaNeue-114"/>
      </g>
     </g>
    </g>
    <g id="xtick_6">
     <g id="line2d_6">
      <g>
       <use style="fill:#555555;stroke:#555555;stroke-width:0.8;" x="450" xlink:href="#m8b129f2b85" y="262.5"/>
      </g>
     </g>
    </g>
    <g id="xtick_7">
     <g id="line2d_7">
      <defs>
       <path d="M 0 0 
L 0 2 
" id="m2ed760788d" style="stroke:#555555;stroke-width:0.6;"/>
      </defs>
      <g>
       <use style="fill:#555555;stroke:#555555;stroke-width:0.6;" x="84.123884" xlink:href="#m2ed760788d" y="262.5"/>
      </g>
     </g>
    </g>
    <g id="xtick_8">
     <g id="line2d_8">
      <g>
       <use style="fill:#555555;stroke:#555555;stroke-width:0.6;" x="110.9375" xlink:href="#m2ed760788d" y="262.5"/>
      </g>
     </g>
    </g>
    <g id="xtick_9">
     <g id="line2d_9">
      <g>
       <use style="fill:#555555;stroke:#555555;stroke-width:0.6;" x="163.699777" xlink:href="#m2ed760788d" y="262.5"/>
      </g>
     </g>
    </g>
    <g id="xtick_10">
     <g id="line2d_10">
      <g>
       <use style="fill:#555555;stroke:#555555;stroke-width:0.6;" x="190.513393" xlink:href="#m2ed760788d" y="262.5"/>
      </g>
     </g>
    </g>
    <g id="xtick_11">
     <g id="line2d_11">
      <g>
       <use style="fill:#555555;stroke:#555555;stroke-width:0.6;" x="243.27567" xlink:href="#m2ed760788d" y="262.5"/>
      </g>
     </g>
    </g>
    <g id="xtick_12">
     <g id="line2d_12">
      <g>
       <use style="fill:#555555;stroke:#555555;stroke-width:0.6;" x="269.22433" xlink:href="#m2ed760788d" y="262.5"/>
      </g>
     </g>
    </g>
    <g id="xtick_13">
     <g id="line2d_13">
      <g>
       <use style="fill:#555555;stroke:#555555;stroke-width:0.6;" x="322.851562" xlink:href="#m2ed760788d" y="262.5"/>
      </g>
     </g>
    </g>
    <g id="xtick_14">
     <g id="line2d_14">
      <g>
       <use style="fill:#555555;stroke:#555555;stroke-width:0.6;" x="347.070312" xlink:href="#m2ed760788d" y="262.5"/>
      </g>
     </g>
    </g>
    <g id="xtick_15">
     <g id="line2d_15">
      <g>
       <use style="fill:#555555;stroke:#555555;stroke-width:0.6;" x="399.832589" xlink:href="#m2ed760788d" y="262.5"/>
      </g>
     </g>
    </g>
    <g id="xtick_16">
     <g id="line2d_16">
      <g>
       <use style="fill:#555555;stroke:#555555;stroke-width:0.6;" x="426.646205" xlink:href="#m2ed760788d" y="262.5"/>
      </g>
     </g>
    </g>
    <g id="text_5">
     <!-- fecha -->
     <g style="fill:#555555;" transform="translate(243.935156 300.290625)scale(0.1 -0.1)">
      <defs>
       <path d="M 9.90625 44.203125 
L 9.90625 0 
L 18.40625 0 
L 18.40625 44.203125 
L 28.40625 44.203125 
L 28.40625 51.703125 
L 18.40625 51.703125 
L 18.40625 58.90625 
Q 18.40625 62.296875 20.09375 63.5 
Q 21.796875 64.703125 24.90625 64.703125 
Q 26 64.703125 27.296875 64.546875 
Q 28.59375 64.40625 29.703125 64 
L 29.703125 71.40625 
Q 28.5 71.796875 26.953125 72 
Q 25.40625 72.203125 24.203125 72.203125 
Q 17.203125 72.203125 13.546875 68.953125 
Q 9.90625 65.703125 9.90625 59.40625 
L 9.90625 51.703125 
L 1.203125 51.703125 
L 1.203125 44.203125 
z
" id="HelveticaNeue-102"/>
       <path d="M 42.296875 30.796875 
L 12.59375 30.796875 
Q 12.796875 33.796875 13.890625 36.4375 
Q 15 39.09375 16.890625 41.09375 
Q 18.796875 43.09375 21.4375 44.25 
Q 24.09375 45.40625 27.40625 45.40625 
Q 30.59375 45.40625 33.25 44.25 
Q 35.90625 43.09375 37.84375 41.140625 
Q 39.796875 39.203125 40.9375 36.5 
Q 42.09375 33.796875 42.296875 30.796875 
z
M 50.5 16.40625 
L 42.09375 16.40625 
Q 41 11.296875 37.546875 8.796875 
Q 34.09375 6.296875 28.703125 6.296875 
Q 24.5 6.296875 21.390625 7.6875 
Q 18.296875 9.09375 16.296875 11.4375 
Q 14.296875 13.796875 13.390625 16.84375 
Q 12.5 19.90625 12.59375 23.296875 
L 51.296875 23.296875 
Q 51.5 28 50.453125 33.203125 
Q 49.40625 38.40625 46.65625 42.796875 
Q 43.90625 47.203125 39.34375 50.046875 
Q 34.796875 52.90625 27.90625 52.90625 
Q 22.59375 52.90625 18.140625 50.90625 
Q 13.703125 48.90625 10.453125 45.296875 
Q 7.203125 41.703125 5.390625 36.796875 
Q 3.59375 31.90625 3.59375 26 
Q 3.796875 20.09375 5.34375 15.09375 
Q 6.90625 10.09375 10 6.5 
Q 13.09375 2.90625 17.640625 0.90625 
Q 22.203125 -1.09375 28.40625 -1.09375 
Q 37.203125 -1.09375 43 3.296875 
Q 48.796875 7.703125 50.5 16.40625 
z
" id="HelveticaNeue-101"/>
       <path d="M 6.40625 71.40625 
L 6.40625 0 
L 14.90625 0 
L 14.90625 29.203125 
Q 14.90625 32.703125 15.84375 35.640625 
Q 16.796875 38.59375 18.6875 40.796875 
Q 20.59375 43 23.4375 44.203125 
Q 26.296875 45.40625 30.203125 45.40625 
Q 35.09375 45.40625 37.890625 42.59375 
Q 40.703125 39.796875 40.703125 35 
L 40.703125 0 
L 49.203125 0 
L 49.203125 34 
Q 49.203125 38.203125 48.34375 41.640625 
Q 47.5 45.09375 45.390625 47.59375 
Q 43.296875 50.09375 39.890625 51.5 
Q 36.5 52.90625 31.40625 52.90625 
Q 29.09375 52.90625 26.640625 52.40625 
Q 24.203125 51.90625 21.953125 50.84375 
Q 19.703125 49.796875 17.890625 48.140625 
Q 16.09375 46.5 15.09375 44.09375 
L 14.90625 44.09375 
L 14.90625 71.40625 
z
" id="HelveticaNeue-104"/>
      </defs>
      <use xlink:href="#HelveticaNeue-102"/>
      <use x="29.599991" xlink:href="#HelveticaNeue-101"/>
      <use x="83.299988" xlink:href="#HelveticaNeue-99"/>
      <use x="136.999985" xlink:href="#HelveticaNeue-104"/>
      <use x="192.599976" xlink:href="#HelveticaNeue-97"/>
     </g>
    </g>
   </g>
   <g id="matplotlib.axis_2">
    <g id="ytick_1">
     <g id="line2d_17">
      <defs>
       <path d="M 0 0 
L -3.5 0 
" id="mfaf6784ba0" style="stroke:#555555;stroke-width:0.8;"/>
      </defs>
      <g>
       <use style="fill:#555555;stroke:#555555;stroke-width:0.8;" x="62.5" xlink:href="#mfaf6784ba0" y="251.795455"/>
      </g>
     </g>
     <g id="text_6">
      <!-- 0 -->
      <g style="fill:#555555;" transform="translate(49.940625 255.365767)scale(0.1 -0.1)">
       <use xlink:href="#HelveticaNeue-48"/>
      </g>
     </g>
    </g>
    <g id="ytick_2">
     <g id="line2d_18">
      <g>
       <use style="fill:#555555;stroke:#555555;stroke-width:0.8;" x="62.5" xlink:href="#mfaf6784ba0" y="206.244197"/>
      </g>
     </g>
     <g id="text_7">
      <!-- 100 -->
      <g style="fill:#555555;" transform="translate(38.821875 209.81451)scale(0.1 -0.1)">
       <use xlink:href="#HelveticaNeue-49"/>
       <use x="55.599991" xlink:href="#HelveticaNeue-48"/>
       <use x="111.199982" xlink:href="#HelveticaNeue-48"/>
      </g>
     </g>
    </g>
    <g id="ytick_3">
     <g id="line2d_19">
      <g>
       <use style="fill:#555555;stroke:#555555;stroke-width:0.8;" x="62.5" xlink:href="#mfaf6784ba0" y="160.69294"/>
      </g>
     </g>
     <g id="text_8">
      <!-- 200 -->
      <g style="fill:#555555;" transform="translate(38.821875 164.263253)scale(0.1 -0.1)">
       <use xlink:href="#HelveticaNeue-50"/>
       <use x="55.599991" xlink:href="#HelveticaNeue-48"/>
       <use x="111.199982" xlink:href="#HelveticaNeue-48"/>
      </g>
     </g>
    </g>
    <g id="ytick_4">
     <g id="line2d_20">
      <g>
       <use style="fill:#555555;stroke:#555555;stroke-width:0.8;" x="62.5" xlink:href="#mfaf6784ba0" y="115.141683"/>
      </g>
     </g>
     <g id="text_9">
      <!-- 300 -->
      <g style="fill:#555555;" transform="translate(38.821875 118.711995)scale(0.1 -0.1)">
       <defs>
        <path d="M 21.796875 40.5 
L 21.796875 33.296875 
Q 24.203125 33.59375 26.90625 33.59375 
Q 30.09375 33.59375 32.84375 32.75 
Q 35.59375 31.90625 37.59375 30.15625 
Q 39.59375 28.40625 40.796875 25.84375 
Q 42 23.296875 42 20 
Q 42 16.796875 40.75 14.25 
Q 39.5 11.703125 37.390625 9.953125 
Q 35.296875 8.203125 32.5 7.25 
Q 29.703125 6.296875 26.59375 6.296875 
Q 19.296875 6.296875 15.5 10.640625 
Q 11.703125 15 11.5 21.90625 
L 3 21.90625 
Q 2.90625 16.40625 4.546875 12.09375 
Q 6.203125 7.796875 9.296875 4.84375 
Q 12.40625 1.90625 16.796875 0.40625 
Q 21.203125 -1.09375 26.59375 -1.09375 
Q 31.59375 -1.09375 36.046875 0.25 
Q 40.5 1.59375 43.796875 4.296875 
Q 47.09375 7 49.046875 11.046875 
Q 51 15.09375 51 20.40625 
Q 51 26.796875 47.84375 31.5 
Q 44.703125 36.203125 38.203125 37.59375 
L 38.203125 37.796875 
Q 42.40625 39.703125 45.203125 43.390625 
Q 48 47.09375 48 51.90625 
Q 48 56.796875 46.34375 60.390625 
Q 44.703125 64 41.796875 66.296875 
Q 38.90625 68.59375 34.953125 69.75 
Q 31 70.90625 26.40625 70.90625 
Q 21.09375 70.90625 17.046875 69.203125 
Q 13 67.5 10.296875 64.5 
Q 7.59375 61.5 6.140625 57.296875 
Q 4.703125 53.09375 4.5 48 
L 13 48 
Q 13 51.09375 13.796875 53.890625 
Q 14.59375 56.703125 16.25 58.796875 
Q 17.90625 60.90625 20.453125 62.15625 
Q 23 63.40625 26.40625 63.40625 
Q 31.796875 63.40625 35.390625 60.546875 
Q 39 57.703125 39 52 
Q 39 49.203125 37.890625 47 
Q 36.796875 44.796875 34.9375 43.34375 
Q 33.09375 41.90625 30.640625 41.15625 
Q 28.203125 40.40625 25.5 40.40625 
L 23.703125 40.40625 
Q 23.203125 40.40625 22.703125 40.40625 
Q 22.296875 40.40625 21.796875 40.5 
z
" id="HelveticaNeue-51"/>
       </defs>
       <use xlink:href="#HelveticaNeue-51"/>
       <use x="55.599991" xlink:href="#HelveticaNeue-48"/>
       <use x="111.199982" xlink:href="#HelveticaNeue-48"/>
      </g>
     </g>
    </g>
    <g id="ytick_5">
     <g id="line2d_21">
      <g>
       <use style="fill:#555555;stroke:#555555;stroke-width:0.8;" x="62.5" xlink:href="#mfaf6784ba0" y="69.590426"/>
      </g>
     </g>
     <g id="text_10">
      <!-- 400 -->
      <g style="fill:#555555;" transform="translate(38.821875 73.160738)scale(0.1 -0.1)">
       <defs>
        <path d="M 33.90625 24.09375 
L 10.09375 24.09375 
L 33.703125 58.796875 
L 33.90625 58.796875 
z
M 41.90625 24.09375 
L 41.90625 70.90625 
L 35.09375 70.90625 
L 2.796875 24.796875 
L 2.796875 16.59375 
L 33.90625 16.59375 
L 33.90625 0 
L 41.90625 0 
L 41.90625 16.59375 
L 51.5 16.59375 
L 51.5 24.09375 
z
" id="HelveticaNeue-52"/>
       </defs>
       <use xlink:href="#HelveticaNeue-52"/>
       <use x="55.599991" xlink:href="#HelveticaNeue-48"/>
       <use x="111.199982" xlink:href="#HelveticaNeue-48"/>
      </g>
     </g>
    </g>
   </g>
   <g id="line2d_22">
    <path clip-path="url(#p113a6e926c)" d="M 63.364955 250.884429 
L 64.229911 249.973404 
L 65.094866 251.339942 
L 65.959821 251.795455 
L 67.689732 251.795455 
L 68.554688 250.884429 
L 69.419643 250.884429 
L 70.284598 249.973404 
L 71.149554 251.339942 
L 72.014509 249.517892 
L 72.879464 249.062379 
L 73.74442 249.062379 
L 74.609375 250.884429 
L 75.47433 251.339942 
L 76.339286 250.884429 
L 77.204241 249.517892 
L 78.069196 249.973404 
L 78.934152 249.062379 
L 79.799107 246.329304 
L 80.664062 251.339942 
L 81.529018 248.606867 
L 82.393973 250.884429 
L 83.258929 249.973404 
L 84.123884 249.517892 
L 84.988839 248.606867 
L 85.853795 248.151354 
L 86.71875 250.428917 
L 87.583705 247.695841 
L 88.448661 249.517892 
L 89.313616 239.041103 
L 90.178571 247.695841 
L 91.043527 250.884429 
L 91.908482 250.428917 
L 92.773438 246.784816 
L 93.638393 249.517892 
L 94.503348 248.606867 
L 95.368304 248.151354 
L 96.233259 244.507253 
L 97.098214 249.062379 
L 97.96317 245.873791 
L 98.828125 249.973404 
L 99.69308 244.962766 
L 100.558036 244.051741 
L 101.422991 249.517892 
L 102.287946 240.863153 
L 104.017857 250.884429 
L 104.882812 244.051741 
L 105.747768 249.062379 
L 106.612723 240.40764 
L 107.477679 235.852515 
L 108.342634 240.863153 
L 109.207589 244.051741 
L 110.072545 241.318665 
L 110.9375 244.507253 
L 111.802455 241.774178 
L 112.667411 238.58559 
L 113.532366 242.229691 
L 114.397321 243.140716 
L 115.262277 242.685203 
L 116.127232 245.418279 
L 116.992188 243.596228 
L 117.857143 233.574952 
L 118.722098 243.140716 
L 119.587054 246.784816 
L 120.452009 241.774178 
L 121.316964 239.952128 
L 122.18192 244.962766 
L 123.046875 244.962766 
L 123.91183 240.40764 
L 124.776786 228.108801 
L 125.641741 225.831238 
L 126.506696 230.841876 
L 127.371652 214.898936 
L 128.236607 225.375725 
L 129.101562 227.197776 
L 129.966518 231.752901 
L 130.831473 216.265474 
L 131.696429 234.941489 
L 132.561384 211.254836 
L 133.426339 220.365087 
L 134.291295 211.254836 
L 135.15625 226.742263 
L 136.021205 197.589458 
L 136.886161 198.500484 
L 137.751116 219.909574 
L 138.616071 219.454062 
L 139.481027 208.52176 
L 140.345982 203.511122 
L 141.210938 211.710348 
L 142.075893 196.222921 
L 142.940848 199.867021 
L 143.805804 204.87766 
L 144.670759 206.244197 
L 145.535714 213.076886 
L 146.40067 190.301257 
L 147.265625 204.422147 
L 148.13058 180.735493 
L 148.995536 172.080754 
L 149.860491 167.981141 
L 150.725446 182.102031 
L 151.590402 184.835106 
L 152.455357 198.044971 
L 153.320312 194.856383 
L 154.185268 154.315764 
L 155.050223 169.803191 
L 155.915179 213.076886 
L 156.780134 133.362186 
L 157.645089 177.546905 
L 158.510045 185.290619 
L 159.375 161.148453 
L 160.239955 150.216151 
L 161.104911 181.646518 
L 161.969866 152.038201 
L 162.834821 165.248066 
L 163.699777 153.404739 
L 164.564732 188.93472 
L 165.429688 168.892166 
L 166.294643 145.205513 
L 167.159598 158.415377 
L 168.024554 187.112669 
L 168.889509 187.568182 
L 169.754464 194.40087 
L 170.61942 202.600097 
L 171.484375 133.817698 
L 172.34933 156.137814 
L 173.214286 163.881528 
L 174.079241 157.959865 
L 174.944196 189.390232 
L 175.809152 162.51499 
L 176.674107 173.447292 
L 177.539062 170.714217 
L 178.404018 126.073985 
L 179.268973 172.991779 
L 180.133929 174.358317 
L 180.998884 184.835106 
L 181.863839 175.269342 
L 182.728795 141.561412 
L 183.59375 179.824468 
L 184.458705 187.568182 
L 185.323661 204.87766 
L 186.188616 203.966634 
L 187.053571 178.45793 
L 187.918527 190.301257 
L 188.783482 194.856383 
L 189.648438 178.913443 
L 190.513393 174.358317 
L 191.378348 199.411509 
L 192.243304 182.557544 
L 193.108259 211.710348 
L 193.973214 93.277079 
L 194.83817 238.130077 
L 195.703125 182.557544 
L 197.433036 210.799323 
L 198.297991 172.536267 
L 199.162946 212.165861 
L 200.027902 202.144584 
L 200.892857 201.233559 
L 201.757812 215.809961 
L 202.622768 181.646518 
L 203.487723 212.165861 
L 204.352679 209.432785 
L 205.217634 183.924081 
L 206.082589 208.52176 
L 206.947545 219.454062 
L 207.8125 228.564313 
L 208.677455 215.809961 
L 209.542411 205.333172 
L 210.407366 204.422147 
L 211.272321 193.945358 
L 212.137277 232.208414 
L 213.002232 227.653288 
L 213.867188 221.276112 
L 214.732143 213.532398 
L 215.597098 218.543037 
L 216.462054 224.920213 
L 217.327009 194.856383 
L 218.191964 222.187137 
L 219.05692 213.987911 
L 219.921875 233.119439 
L 220.78683 211.254836 
L 221.651786 225.375725 
L 222.516741 200.778046 
L 223.381696 216.265474 
L 224.246652 210.34381 
L 225.111607 230.841876 
L 225.976562 236.308027 
L 226.841518 235.852515 
L 227.706473 231.297389 
L 228.571429 207.610735 
L 229.436384 204.422147 
L 230.301339 231.297389 
L 231.166295 214.898936 
L 232.03125 213.532398 
L 232.896205 224.009188 
L 233.761161 217.176499 
L 234.626116 208.977273 
L 235.491071 212.621373 
L 236.356027 221.731625 
L 237.220982 224.920213 
L 238.085938 211.710348 
L 238.950893 218.087524 
L 239.815848 204.422147 
L 240.680804 207.610735 
L 242.410714 222.187137 
L 243.27567 219.909574 
L 244.140625 225.375725 
L 245.00558 215.809961 
L 245.870536 214.443424 
L 246.735491 215.354449 
L 247.600446 223.098162 
L 248.465402 221.731625 
L 249.330357 219.454062 
L 250.195312 225.831238 
L 251.060268 222.187137 
L 251.925223 213.987911 
L 252.790179 217.632012 
L 253.655134 230.841876 
L 254.520089 229.475338 
L 255.385045 234.485977 
L 256.25 217.176499 
L 257.114955 208.066248 
L 257.979911 212.621373 
L 258.844866 213.532398 
L 259.709821 217.632012 
L 260.574777 219.454062 
L 261.439732 230.386364 
L 263.169643 203.055609 
L 264.034598 194.856383 
L 264.899554 201.233559 
L 265.764509 190.75677 
L 266.629464 215.354449 
L 267.49442 209.888298 
L 268.359375 215.354449 
L 269.22433 200.778046 
L 270.954241 220.8206 
L 271.819196 198.955996 
L 272.684152 213.076886 
L 273.549107 220.8206 
L 274.414062 202.144584 
L 275.279018 210.799323 
L 276.143973 197.589458 
L 277.008929 204.422147 
L 277.873884 196.222921 
L 278.738839 178.002418 
L 279.603795 212.165861 
L 280.46875 215.809961 
L 281.333705 183.013056 
L 282.198661 155.682302 
L 283.063616 192.57882 
L 283.928571 186.657157 
L 284.793527 192.123308 
L 285.658482 203.966634 
L 286.523438 209.888298 
L 287.388393 158.415377 
L 288.253348 191.212282 
L 289.118304 176.63588 
L 289.983259 204.422147 
L 290.848214 200.322534 
L 291.71317 192.123308 
L 292.578125 188.93472 
L 293.44308 156.593327 
L 294.308036 153.860251 
L 295.172991 176.63588 
L 296.037946 215.809961 
L 296.902902 193.945358 
L 297.767857 166.159091 
L 298.632812 170.714217 
L 299.497768 142.92795 
L 300.362723 125.162959 
L 301.227679 133.362186 
L 302.092634 130.62911 
L 302.957589 184.379594 
L 303.822545 194.856383 
L 304.6875 187.568182 
L 305.552455 115.597195 
L 307.282366 169.347679 
L 308.147321 140.194874 
L 309.012277 151.127176 
L 309.877232 122.429884 
L 310.742188 172.536267 
L 311.607143 142.472437 
L 312.472098 147.938588 
L 313.337054 131.540135 
L 314.202009 126.529497 
L 315.066964 165.703578 
L 315.93192 167.070116 
L 316.796875 147.483075 
L 317.66183 170.258704 
L 318.526786 121.518859 
L 319.391741 186.657157 
L 320.256696 212.165861 
L 321.121652 200.778046 
L 321.986607 183.013056 
L 324.581473 216.265474 
L 325.446429 204.87766 
L 326.311384 222.64265 
L 327.176339 230.386364 
L 328.041295 230.841876 
L 328.90625 223.553675 
L 329.771205 208.52176 
L 330.636161 224.009188 
L 331.501116 227.653288 
L 332.366071 223.098162 
L 334.095982 227.653288 
L 334.960938 229.019826 
L 335.825893 226.742263 
L 336.690848 226.28675 
L 337.555804 229.475338 
L 338.420759 226.742263 
L 340.15067 236.76354 
L 341.015625 237.219052 
L 341.88058 234.485977 
L 342.745536 227.653288 
L 343.610491 230.841876 
L 344.475446 235.852515 
L 345.340402 239.496615 
L 346.205357 231.752901 
L 347.070312 238.130077 
L 347.935268 235.852515 
L 348.800223 237.219052 
L 349.665179 235.397002 
L 350.530134 235.397002 
L 351.395089 239.496615 
L 353.125 236.76354 
L 353.989955 242.685203 
L 354.854911 237.219052 
L 355.719866 234.030464 
L 356.584821 228.564313 
L 357.449777 239.496615 
L 358.314732 238.130077 
L 360.044643 239.041103 
L 360.909598 237.674565 
L 361.774554 240.863153 
L 362.639509 239.041103 
L 363.504464 232.663926 
L 364.36942 240.40764 
L 365.234375 234.485977 
L 366.09933 229.930851 
L 366.964286 237.219052 
L 367.829241 226.742263 
L 368.694196 225.831238 
L 369.559152 229.019826 
L 370.424107 233.574952 
L 371.289062 228.108801 
L 372.154018 229.475338 
L 373.018973 215.354449 
L 373.883929 224.920213 
L 374.748884 227.197776 
L 375.613839 225.831238 
L 376.478795 228.108801 
L 377.34375 223.098162 
L 378.208705 188.479207 
L 379.073661 210.34381 
L 379.938616 212.165861 
L 380.803571 195.767408 
L 381.668527 196.678433 
L 382.533482 219.909574 
L 383.398438 171.625242 
L 384.263393 181.646518 
L 385.128348 150.671663 
L 385.993304 201.233559 
L 386.858259 178.45793 
L 387.723214 199.411509 
L 388.58817 203.055609 
L 389.453125 124.251934 
L 390.31808 163.881528 
L 391.183036 180.279981 
L 392.047991 170.258704 
L 392.912946 170.714217 
L 393.777902 187.112669 
L 394.642857 210.799323 
L 395.507812 157.504352 
L 396.372768 131.084623 
L 397.237723 197.133946 
L 398.102679 160.69294 
L 398.967634 167.981141 
L 399.832589 179.368956 
L 400.697545 165.703578 
L 401.5625 164.337041 
L 402.427455 165.703578 
L 403.292411 189.390232 
L 404.157366 108.764507 
L 405.022321 169.347679 
L 405.887277 167.525629 
L 406.752232 175.724855 
L 407.617188 141.105899 
L 408.482143 157.504352 
L 409.347098 111.04207 
L 410.212054 167.981141 
L 411.077009 182.102031 
L 411.941964 127.440522 
L 412.80692 195.767408 
L 413.671875 176.180368 
L 414.53683 174.81383 
L 415.401786 147.483075 
L 416.266741 126.529497 
L 417.131696 109.220019 
L 417.996652 67.312863 
L 418.861607 128.80706 
L 419.726562 130.62911 
L 420.591518 50.003385 
L 421.456473 123.340909 
L 422.321429 101.020793 
L 423.186384 98.287718 
L 424.051339 57.747099 
L 424.916295 155.682302 
L 425.78125 118.330271 
L 426.646205 64.124275 
L 427.511161 84.166828 
L 428.376116 74.145551 
L 429.241071 75.056576 
L 430.106027 54.558511 
L 430.970982 137.006286 
L 431.835938 124.707447 
L 432.700893 122.429884 
L 433.565848 90.544004 
L 434.430804 148.394101 
L 435.295759 96.010155 
L 436.160714 79.15619 
L 437.02567 120.607834 
L 437.890625 132.906673 
L 438.75558 84.62234 
L 439.620536 81.889265 
L 440.485491 102.842843 
L 441.350446 37.704545 
L 442.215402 111.953095 
L 443.080357 138.372824 
L 443.945312 123.796422 
L 444.810268 90.999516 
L 445.675223 87.355416 
L 446.540179 153.860251 
L 447.405134 89.632979 
L 448.270089 67.768375 
L 449.135045 152.949226 
L 450 212.621373 
L 450 212.621373 
" style="fill:none;stroke:#000000;stroke-dasharray:1.5,2.475;stroke-dashoffset:0;stroke-opacity:0.5;stroke-width:1.5;"/>
   </g>
   <g id="line2d_23">
    <path clip-path="url(#p113a6e926c)" d="M 62.5 250.884429 
L 64.229911 250.884429 
L 65.094866 251.339942 
L 68.554688 251.339942 
L 71.149554 249.973404 
L 74.609375 249.973404 
L 75.47433 250.428917 
L 76.339286 250.428917 
L 78.934152 249.062379 
L 79.799107 249.062379 
L 80.664062 249.517892 
L 84.123884 249.517892 
L 84.988839 249.062379 
L 85.853795 249.062379 
L 86.71875 247.695841 
L 87.583705 247.240329 
L 88.448661 247.240329 
L 89.313616 247.695841 
L 90.178571 247.240329 
L 91.908482 248.151354 
L 92.773438 249.062379 
L 95.368304 247.695841 
L 96.233259 247.695841 
L 97.96317 246.784816 
L 98.828125 246.784816 
L 100.558036 245.873791 
L 101.422991 246.329304 
L 102.287946 245.873791 
L 103.152902 246.329304 
L 104.017857 245.873791 
L 104.882812 244.507253 
L 105.747768 244.051741 
L 106.612723 243.140716 
L 107.477679 241.774178 
L 108.342634 241.774178 
L 109.207589 241.318665 
L 110.072545 241.318665 
L 111.802455 242.229691 
L 112.667411 241.774178 
L 114.397321 242.685203 
L 115.262277 241.774178 
L 116.127232 242.229691 
L 117.857143 242.229691 
L 118.722098 241.774178 
L 119.587054 242.229691 
L 120.452009 242.229691 
L 121.316964 243.140716 
L 122.18192 241.318665 
L 123.046875 238.58559 
L 123.91183 236.76354 
L 125.641741 229.475338 
L 126.506696 226.742263 
L 127.371652 225.831238 
L 128.236607 224.4647 
L 129.101562 225.375725 
L 129.966518 224.009188 
L 130.831473 224.009188 
L 131.696429 222.187137 
L 132.561384 221.276112 
L 134.291295 214.443424 
L 135.15625 212.165861 
L 136.021205 212.165861 
L 138.616071 209.432785 
L 139.481027 208.977273 
L 140.345982 208.066248 
L 141.210938 205.788685 
L 142.075893 203.966634 
L 142.940848 204.422147 
L 144.670759 202.600097 
L 145.535714 200.778046 
L 146.40067 197.133946 
L 147.265625 191.212282 
L 148.13058 186.201644 
L 148.995536 182.102031 
L 150.725446 182.102031 
L 151.590402 181.191006 
L 152.455357 180.735493 
L 153.320312 184.379594 
L 154.185268 178.913443 
L 155.915179 174.358317 
L 156.780134 171.625242 
L 157.645089 170.258704 
L 158.510045 170.258704 
L 159.375 164.792553 
L 160.239955 167.070116 
L 161.104911 163.881528 
L 161.969866 163.881528 
L 162.834821 165.703578 
L 163.699777 165.248066 
L 164.564732 162.970503 
L 165.429688 166.159091 
L 166.294643 168.892166 
L 167.159598 173.447292 
L 168.024554 177.091393 
L 168.889509 176.63588 
L 169.754464 177.091393 
L 170.61942 175.269342 
L 171.484375 169.803191 
L 172.34933 167.981141 
L 173.214286 164.792553 
L 174.079241 163.426015 
L 174.944196 168.436654 
L 175.809152 165.703578 
L 176.674107 165.248066 
L 177.539062 165.248066 
L 178.404018 164.792553 
L 179.268973 167.070116 
L 180.133929 165.248066 
L 180.998884 167.070116 
L 181.863839 172.991779 
L 182.728795 176.180368 
L 183.59375 180.735493 
L 184.458705 182.557544 
L 185.323661 186.201644 
L 186.188616 192.123308 
L 187.053571 191.667795 
L 187.918527 189.390232 
L 189.648438 185.746132 
L 190.513393 188.93472 
L 191.378348 179.368956 
L 192.243304 182.102031 
L 193.108259 182.102031 
L 194.83817 186.657157 
L 195.703125 187.568182 
L 196.56808 189.845745 
L 197.433036 200.322534 
L 198.297991 197.133946 
L 199.162946 200.778046 
L 200.027902 200.322534 
L 200.892857 200.778046 
L 201.757812 204.422147 
L 202.622768 201.233559 
L 203.487723 201.689072 
L 204.352679 203.511122 
L 205.217634 205.788685 
L 206.082589 210.34381 
L 206.947545 211.254836 
L 208.677455 212.165861 
L 209.542411 213.076886 
L 210.407366 213.532398 
L 211.272321 213.532398 
L 212.137277 214.898936 
L 213.002232 217.176499 
L 213.867188 219.909574 
L 214.732143 218.998549 
L 216.462054 215.354449 
L 217.327009 216.265474 
L 218.191964 216.720986 
L 219.05692 217.632012 
L 219.921875 216.265474 
L 220.78683 217.632012 
L 221.651786 215.809961 
L 223.381696 217.632012 
L 224.246652 221.276112 
L 225.111607 224.009188 
L 225.976562 225.831238 
L 226.841518 224.4647 
L 227.706473 224.920213 
L 228.571429 222.187137 
L 229.436384 218.998549 
L 230.301339 217.632012 
L 231.166295 216.720986 
L 232.03125 217.176499 
L 232.896205 217.176499 
L 233.761161 216.265474 
L 234.626116 217.176499 
L 235.491071 217.176499 
L 236.356027 216.720986 
L 238.085938 214.898936 
L 240.680804 213.532398 
L 241.545759 215.809961 
L 242.410714 216.720986 
L 243.27567 218.087524 
L 244.140625 218.998549 
L 246.735491 218.998549 
L 247.600446 219.454062 
L 248.465402 220.365087 
L 249.330357 220.8206 
L 250.195312 220.8206 
L 251.060268 221.276112 
L 251.925223 222.187137 
L 252.790179 224.009188 
L 253.655134 224.009188 
L 254.520089 223.098162 
L 255.385045 222.64265 
L 256.25 220.8206 
L 257.114955 218.087524 
L 257.979911 216.265474 
L 258.844866 216.265474 
L 259.709821 217.176499 
L 260.574777 217.176499 
L 262.304688 212.621373 
L 263.169643 208.066248 
L 264.034598 205.788685 
L 264.899554 203.055609 
L 266.629464 204.87766 
L 267.49442 206.69971 
L 268.359375 209.432785 
L 269.22433 210.34381 
L 270.089286 209.888298 
L 270.954241 210.799323 
L 271.819196 210.34381 
L 272.684152 211.254836 
L 274.414062 207.610735 
L 275.279018 206.244197 
L 276.143973 201.689072 
L 277.008929 199.867021 
L 277.873884 200.778046 
L 278.738839 198.500484 
L 279.603795 193.945358 
L 281.333705 189.390232 
L 282.198661 188.93472 
L 283.063616 187.568182 
L 283.928571 188.93472 
L 284.793527 188.479207 
L 285.658482 191.667795 
L 286.523438 189.390232 
L 288.253348 190.301257 
L 289.118304 189.390232 
L 289.983259 188.93472 
L 290.848214 188.93472 
L 291.71317 183.924081 
L 292.578125 181.191006 
L 293.44308 180.279981 
L 296.037946 178.913443 
L 296.902902 177.546905 
L 297.767857 172.080754 
L 298.632812 162.970503 
L 299.497768 150.671663 
L 300.362723 147.483075 
L 301.227679 150.671663 
L 302.092634 155.682302 
L 302.957589 157.048839 
L 303.822545 159.326402 
L 304.6875 162.059478 
L 305.552455 160.237427 
L 306.417411 154.771277 
L 307.282366 146.57205 
L 308.147321 145.205513 
L 309.012277 147.938588 
L 309.877232 148.394101 
L 310.742188 145.205513 
L 311.607143 143.383462 
L 312.472098 143.838975 
L 313.337054 147.938588 
L 314.202009 146.57205 
L 315.066964 150.671663 
L 315.93192 149.760638 
L 316.796875 155.226789 
L 317.66183 164.337041 
L 319.391741 175.269342 
L 320.256696 183.013056 
L 321.121652 188.93472 
L 321.986607 198.955996 
L 323.716518 203.511122 
L 324.581473 208.066248 
L 325.446429 214.898936 
L 326.311384 219.454062 
L 327.176339 220.8206 
L 328.041295 221.731625 
L 328.90625 223.553675 
L 330.636161 222.64265 
L 331.501116 222.64265 
L 332.366071 224.009188 
L 333.231027 226.28675 
L 334.095982 226.742263 
L 334.960938 226.742263 
L 335.825893 227.197776 
L 337.555804 229.019826 
L 339.285714 231.752901 
L 340.15067 232.663926 
L 341.015625 232.663926 
L 341.88058 233.574952 
L 342.745536 234.030464 
L 343.610491 233.574952 
L 345.340402 234.485977 
L 346.205357 235.852515 
L 347.070312 236.308027 
L 348.800223 236.308027 
L 349.665179 236.76354 
L 350.530134 236.76354 
L 351.395089 237.674565 
L 352.260045 238.130077 
L 353.125 238.130077 
L 353.989955 237.219052 
L 355.719866 236.308027 
L 357.449777 236.308027 
L 358.314732 236.76354 
L 359.179688 237.674565 
L 360.044643 239.041103 
L 360.909598 238.130077 
L 361.774554 238.130077 
L 362.639509 237.674565 
L 363.504464 236.76354 
L 364.36942 236.308027 
L 366.09933 232.663926 
L 368.694196 229.930851 
L 369.559152 229.930851 
L 370.424107 227.653288 
L 372.154018 226.742263 
L 373.018973 225.831238 
L 374.748884 224.920213 
L 375.613839 220.8206 
L 376.478795 218.998549 
L 377.34375 216.265474 
L 378.208705 211.254836 
L 379.073661 207.155222 
L 379.938616 205.788685 
L 380.803571 200.778046 
L 381.668527 198.955996 
L 382.533482 191.212282 
L 384.263393 184.379594 
L 385.128348 183.468569 
L 385.993304 183.013056 
L 386.858259 179.824468 
L 387.723214 177.091393 
L 388.58817 178.002418 
L 389.453125 172.991779 
L 390.31808 170.714217 
L 391.183036 169.803191 
L 392.047991 172.991779 
L 392.912946 178.002418 
L 393.777902 175.269342 
L 394.642857 175.269342 
L 396.372768 171.625242 
L 397.237723 170.258704 
L 398.102679 166.614603 
L 398.967634 167.981141 
L 399.832589 170.714217 
L 400.697545 170.258704 
L 401.5625 164.792553 
L 402.427455 163.426015 
L 403.292411 161.148453 
L 404.157366 161.603965 
L 405.022321 159.326402 
L 405.887277 158.415377 
L 406.752232 151.127176 
L 407.617188 154.771277 
L 408.482143 154.771277 
L 409.347098 151.127176 
L 410.212054 153.860251 
L 411.077009 159.326402 
L 411.941964 163.426015 
L 412.80692 168.436654 
L 413.671875 163.881528 
L 414.53683 154.771277 
L 415.401786 143.838975 
L 416.266741 131.084623 
L 417.131696 122.429884 
L 417.996652 108.308994 
L 418.861607 104.209381 
L 419.726562 101.476306 
L 420.591518 100.56528 
L 421.456473 98.74323 
L 422.321429 100.109768 
L 423.186384 100.56528 
L 424.051339 102.842843 
L 424.916295 98.74323 
L 425.78125 95.554642 
L 426.646205 90.999516 
L 428.376116 83.255803 
L 429.241071 85.533366 
L 430.106027 94.643617 
L 430.970982 98.74323 
L 431.835938 108.764507 
L 432.700893 113.319632 
L 433.565848 114.68617 
L 434.430804 111.497582 
L 435.295759 111.497582 
L 436.160714 107.853482 
L 437.02567 106.031431 
L 437.890625 101.020793 
L 438.75558 94.188104 
L 440.485491 94.188104 
L 441.350446 95.09913 
L 442.215402 99.198743 
L 443.080357 101.476306 
L 443.945312 107.853482 
L 444.810268 113.319632 
L 445.675223 107.853482 
L 446.540179 107.853482 
L 447.405134 118.330271 
L 448.270089 126.073985 
L 449.135045 135.639749 
L 450 138.828337 
L 450 138.828337 
" style="fill:none;stroke:#b3220f;stroke-linecap:square;stroke-width:1.5;"/>
   </g>
   <g id="patch_3">
    <path d="M 62.5 262.5 
L 62.5 27 
" style="fill:none;stroke:#555555;stroke-linecap:square;stroke-linejoin:miter;"/>
   </g>
   <g id="patch_4">
    <path d="M 62.5 262.5 
L 450 262.5 
" style="fill:none;stroke:#555555;stroke-linecap:square;stroke-linejoin:miter;"/>
   </g>
   <g id="text_11">
    <!-- San Cristóbal | Casos nuevos: 2021-06-28 -->
    <g style="fill:#555555;" transform="translate(123.735625 17)scale(0.14 -0.14)">
     <defs>
      <path d="M 49.09375 50.5 
L 58.09375 50.5 
Q 57.90625 56.40625 55.84375 60.65625 
Q 53.796875 64.90625 50.25 67.703125 
Q 46.703125 70.5 42 71.796875 
Q 37.296875 73.09375 31.796875 73.09375 
Q 26.90625 73.09375 22.25 71.84375 
Q 17.59375 70.59375 13.9375 68.046875 
Q 10.296875 65.5 8.09375 61.546875 
Q 5.90625 57.59375 5.90625 52.203125 
Q 5.90625 47.296875 7.84375 44.046875 
Q 9.796875 40.796875 13.046875 38.75 
Q 16.296875 36.703125 20.390625 35.453125 
Q 24.5 34.203125 28.75 33.25 
Q 33 32.296875 37.09375 31.390625 
Q 41.203125 30.5 44.453125 29.046875 
Q 47.703125 27.59375 49.640625 25.296875 
Q 51.59375 23 51.59375 19.296875 
Q 51.59375 15.40625 50 12.90625 
Q 48.40625 10.40625 45.796875 8.953125 
Q 43.203125 7.5 39.953125 6.890625 
Q 36.703125 6.296875 33.5 6.296875 
Q 29.5 6.296875 25.703125 7.296875 
Q 21.90625 8.296875 19.046875 10.390625 
Q 16.203125 12.5 14.453125 15.75 
Q 12.703125 19 12.703125 23.5 
L 3.703125 23.5 
Q 3.703125 17 6.046875 12.25 
Q 8.40625 7.5 12.453125 4.453125 
Q 16.5 1.40625 21.84375 -0.09375 
Q 27.203125 -1.59375 33.203125 -1.59375 
Q 38.09375 -1.59375 43.046875 -0.4375 
Q 48 0.703125 52 3.25 
Q 56 5.796875 58.546875 9.84375 
Q 61.09375 13.90625 61.09375 19.59375 
Q 61.09375 24.90625 59.140625 28.40625 
Q 57.203125 31.90625 53.953125 34.203125 
Q 50.703125 36.5 46.59375 37.84375 
Q 42.5 39.203125 38.25 40.203125 
Q 34 41.203125 29.890625 42.046875 
Q 25.796875 42.90625 22.546875 44.203125 
Q 19.296875 45.5 17.34375 47.546875 
Q 15.40625 49.59375 15.40625 52.90625 
Q 15.40625 56.40625 16.75 58.75 
Q 18.09375 61.09375 20.34375 62.5 
Q 22.59375 63.90625 25.5 64.5 
Q 28.40625 65.09375 31.40625 65.09375 
Q 38.796875 65.09375 43.546875 61.640625 
Q 48.296875 58.203125 49.09375 50.5 
z
" id="HelveticaNeue-83"/>
      <path id="HelveticaNeue-32"/>
      <path d="M 58 49.90625 
L 67.5 49.90625 
Q 66.703125 55.59375 64.09375 59.9375 
Q 61.5 64.296875 57.59375 67.1875 
Q 53.703125 70.09375 48.703125 71.59375 
Q 43.703125 73.09375 38.09375 73.09375 
Q 29.90625 73.09375 23.546875 70.140625 
Q 17.203125 67.203125 12.953125 62.09375 
Q 8.703125 57 6.5 50.140625 
Q 4.296875 43.296875 4.296875 35.5 
Q 4.296875 27.703125 6.34375 20.890625 
Q 8.40625 14.09375 12.5 9.09375 
Q 16.59375 4.09375 22.796875 1.25 
Q 29 -1.59375 37.296875 -1.59375 
Q 51 -1.59375 58.890625 5.90625 
Q 66.796875 13.40625 68.203125 26.90625 
L 58.703125 26.90625 
Q 58.40625 22.5 56.90625 18.703125 
Q 55.40625 14.90625 52.75 12.15625 
Q 50.09375 9.40625 46.4375 7.84375 
Q 42.796875 6.296875 38.09375 6.296875 
Q 31.703125 6.296875 27.09375 8.6875 
Q 22.5 11.09375 19.546875 15.140625 
Q 16.59375 19.203125 15.1875 24.640625 
Q 13.796875 30.09375 13.796875 36.203125 
Q 13.796875 41.796875 15.1875 47 
Q 16.59375 52.203125 19.546875 56.25 
Q 22.5 60.296875 27.046875 62.6875 
Q 31.59375 65.09375 38 65.09375 
Q 45.5 65.09375 50.953125 61.296875 
Q 56.40625 57.5 58 49.90625 
z
" id="HelveticaNeue-67"/>
      <path d="M 15.40625 61 
L 15.40625 71.40625 
L 6.90625 71.40625 
L 6.90625 61 
z
M 6.90625 51.703125 
L 6.90625 0 
L 15.40625 0 
L 15.40625 51.703125 
z
" id="HelveticaNeue-105"/>
      <path d="M 11.59375 16.296875 
L 3.09375 16.296875 
Q 3.296875 11.5 5.09375 8.140625 
Q 6.90625 4.796875 9.90625 2.75 
Q 12.90625 0.703125 16.796875 -0.1875 
Q 20.703125 -1.09375 25 -1.09375 
Q 28.90625 -1.09375 32.84375 -0.34375 
Q 36.796875 0.40625 39.9375 2.296875 
Q 43.09375 4.203125 45.046875 7.296875 
Q 47 10.40625 47 15.09375 
Q 47 18.796875 45.546875 21.296875 
Q 44.09375 23.796875 41.75 25.4375 
Q 39.40625 27.09375 36.34375 28.09375 
Q 33.296875 29.09375 30.09375 29.796875 
Q 27.09375 30.5 24.09375 31.140625 
Q 21.09375 31.796875 18.6875 32.75 
Q 16.296875 33.703125 14.75 35.140625 
Q 13.203125 36.59375 13.203125 38.796875 
Q 13.203125 40.796875 14.203125 42.046875 
Q 15.203125 43.296875 16.796875 44.046875 
Q 18.40625 44.796875 20.34375 45.09375 
Q 22.296875 45.40625 24.203125 45.40625 
Q 26.296875 45.40625 28.34375 44.953125 
Q 30.40625 44.5 32.09375 43.5 
Q 33.796875 42.5 34.890625 40.84375 
Q 36 39.203125 36.203125 36.703125 
L 44.703125 36.703125 
Q 44.40625 41.40625 42.703125 44.546875 
Q 41 47.703125 38.140625 49.546875 
Q 35.296875 51.40625 31.59375 52.15625 
Q 27.90625 52.90625 23.5 52.90625 
Q 20.09375 52.90625 16.640625 52.046875 
Q 13.203125 51.203125 10.453125 49.453125 
Q 7.703125 47.703125 5.953125 44.890625 
Q 4.203125 42.09375 4.203125 38.203125 
Q 4.203125 33.203125 6.703125 30.390625 
Q 9.203125 27.59375 12.953125 26.046875 
Q 16.703125 24.5 21.09375 23.640625 
Q 25.5 22.796875 29.25 21.75 
Q 33 20.703125 35.5 19 
Q 38 17.296875 38 14 
Q 38 11.59375 36.796875 10.046875 
Q 35.59375 8.5 33.75 7.703125 
Q 31.90625 6.90625 29.703125 6.59375 
Q 27.5 6.296875 25.5 6.296875 
Q 22.90625 6.296875 20.453125 6.796875 
Q 18 7.296875 16.046875 8.4375 
Q 14.09375 9.59375 12.890625 11.546875 
Q 11.703125 13.5 11.59375 16.296875 
z
" id="HelveticaNeue-115"/>
      <path d="M 12.59375 25.796875 
Q 12.59375 30.5 13.84375 34.140625 
Q 15.09375 37.796875 17.296875 40.296875 
Q 19.5 42.796875 22.453125 44.09375 
Q 25.40625 45.40625 28.703125 45.40625 
Q 32 45.40625 34.953125 44.09375 
Q 37.90625 42.796875 40.09375 40.296875 
Q 42.296875 37.796875 43.546875 34.140625 
Q 44.796875 30.5 44.796875 25.796875 
Q 44.796875 21.09375 43.546875 17.4375 
Q 42.296875 13.796875 40.09375 11.34375 
Q 37.90625 8.90625 34.953125 7.59375 
Q 32 6.296875 28.703125 6.296875 
Q 25.40625 6.296875 22.453125 7.59375 
Q 19.5 8.90625 17.296875 11.34375 
Q 15.09375 13.796875 13.84375 17.4375 
Q 12.59375 21.09375 12.59375 25.796875 
z
M 3.59375 25.796875 
Q 3.59375 20.09375 5.1875 15.1875 
Q 6.796875 10.296875 10 6.640625 
Q 13.203125 3 17.890625 0.953125 
Q 22.59375 -1.09375 28.703125 -1.09375 
Q 34.90625 -1.09375 39.546875 0.953125 
Q 44.203125 3 47.390625 6.640625 
Q 50.59375 10.296875 52.1875 15.1875 
Q 53.796875 20.09375 53.796875 25.796875 
Q 53.796875 31.5 52.1875 36.453125 
Q 50.59375 41.40625 47.390625 45.046875 
Q 44.203125 48.703125 39.546875 50.796875 
Q 34.90625 52.90625 28.703125 52.90625 
Q 22.59375 52.90625 17.890625 50.796875 
Q 13.203125 48.703125 10 45.046875 
Q 6.796875 41.40625 5.1875 36.453125 
Q 3.59375 31.5 3.59375 25.796875 
z
M 42.5 77 
L 28.40625 60.796875 
L 22 60.796875 
L 31.59375 77 
z
" id="HelveticaNeue-243"/>
      <path d="M 6.703125 71.40625 
L 6.703125 0 
L 15.203125 0 
L 15.203125 6.90625 
L 15.40625 6.90625 
Q 16.796875 4.59375 18.84375 3.046875 
Q 20.90625 1.5 23.203125 0.59375 
Q 25.5 -0.296875 27.84375 -0.6875 
Q 30.203125 -1.09375 32.09375 -1.09375 
Q 38 -1.09375 42.453125 1 
Q 46.90625 3.09375 49.84375 6.75 
Q 52.796875 10.40625 54.25 15.296875 
Q 55.703125 20.203125 55.703125 25.703125 
Q 55.703125 31.203125 54.203125 36.09375 
Q 52.703125 41 49.75 44.75 
Q 46.796875 48.5 42.34375 50.703125 
Q 37.90625 52.90625 31.90625 52.90625 
Q 26.5 52.90625 22 50.953125 
Q 17.5 49 15.40625 44.703125 
L 15.203125 44.703125 
L 15.203125 71.40625 
z
M 46.703125 26.296875 
Q 46.703125 22.5 45.890625 18.890625 
Q 45.09375 15.296875 43.296875 12.5 
Q 41.5 9.703125 38.546875 8 
Q 35.59375 6.296875 31.203125 6.296875 
Q 26.796875 6.296875 23.6875 7.9375 
Q 20.59375 9.59375 18.640625 12.296875 
Q 16.703125 15 15.796875 18.546875 
Q 14.90625 22.09375 14.90625 25.90625 
Q 14.90625 29.5 15.75 33 
Q 16.59375 36.5 18.5 39.25 
Q 20.40625 42 23.40625 43.703125 
Q 26.40625 45.40625 30.703125 45.40625 
Q 34.796875 45.40625 37.84375 43.796875 
Q 40.90625 42.203125 42.84375 39.5 
Q 44.796875 36.796875 45.75 33.34375 
Q 46.703125 29.90625 46.703125 26.296875 
z
" id="HelveticaNeue-98"/>
      <path d="M 7.703125 78.59375 
L 7.703125 -21.296875 
L 14.5 -21.296875 
L 14.5 78.59375 
z
" id="HelveticaNeue-124"/>
      <path d="M 12.59375 25.796875 
Q 12.59375 30.5 13.84375 34.140625 
Q 15.09375 37.796875 17.296875 40.296875 
Q 19.5 42.796875 22.453125 44.09375 
Q 25.40625 45.40625 28.703125 45.40625 
Q 32 45.40625 34.953125 44.09375 
Q 37.90625 42.796875 40.09375 40.296875 
Q 42.296875 37.796875 43.546875 34.140625 
Q 44.796875 30.5 44.796875 25.796875 
Q 44.796875 21.09375 43.546875 17.4375 
Q 42.296875 13.796875 40.09375 11.34375 
Q 37.90625 8.90625 34.953125 7.59375 
Q 32 6.296875 28.703125 6.296875 
Q 25.40625 6.296875 22.453125 7.59375 
Q 19.5 8.90625 17.296875 11.34375 
Q 15.09375 13.796875 13.84375 17.4375 
Q 12.59375 21.09375 12.59375 25.796875 
z
M 3.59375 25.796875 
Q 3.59375 20.09375 5.1875 15.1875 
Q 6.796875 10.296875 10 6.640625 
Q 13.203125 3 17.890625 0.953125 
Q 22.59375 -1.09375 28.703125 -1.09375 
Q 34.90625 -1.09375 39.546875 0.953125 
Q 44.203125 3 47.390625 6.640625 
Q 50.59375 10.296875 52.1875 15.1875 
Q 53.796875 20.09375 53.796875 25.796875 
Q 53.796875 31.5 52.1875 36.453125 
Q 50.59375 41.40625 47.390625 45.046875 
Q 44.203125 48.703125 39.546875 50.796875 
Q 34.90625 52.90625 28.703125 52.90625 
Q 22.59375 52.90625 17.890625 50.796875 
Q 13.203125 48.703125 10 45.046875 
Q 6.796875 41.40625 5.1875 36.453125 
Q 3.59375 31.5 3.59375 25.796875 
z
" id="HelveticaNeue-111"/>
      <path d="M 29.703125 0 
L 48.59375 51.703125 
L 39.703125 51.703125 
L 25.59375 8.59375 
L 25.40625 8.59375 
L 10.90625 51.703125 
L 1.40625 51.703125 
L 20.59375 0 
z
" id="HelveticaNeue-118"/>
      <path d="M 19.40625 40.59375 
L 19.40625 51.703125 
L 8.296875 51.703125 
L 8.296875 40.59375 
z
M 8.296875 11.09375 
L 8.296875 0 
L 19.40625 0 
L 19.40625 11.09375 
z
" id="HelveticaNeue-58"/>
      <path d="M 5 31.796875 
L 5 23.796875 
L 33.90625 23.796875 
L 33.90625 31.796875 
z
" id="HelveticaNeue-45"/>
      <path d="M 41.40625 52.796875 
L 49.90625 52.796875 
Q 49.09375 61.59375 43.890625 66.25 
Q 38.703125 70.90625 29.90625 70.90625 
Q 22.296875 70.90625 17.296875 67.703125 
Q 12.296875 64.5 9.296875 59.203125 
Q 6.296875 53.90625 5.046875 47.046875 
Q 3.796875 40.203125 3.796875 32.90625 
Q 3.796875 27.296875 4.640625 21.296875 
Q 5.5 15.296875 8.09375 10.296875 
Q 10.703125 5.296875 15.5 2.09375 
Q 20.296875 -1.09375 28.203125 -1.09375 
Q 34.90625 -1.09375 39.453125 1.15625 
Q 44 3.40625 46.75 6.84375 
Q 49.5 10.296875 50.703125 14.5 
Q 51.90625 18.703125 51.90625 22.59375 
Q 51.90625 27.5 50.40625 31.703125 
Q 48.90625 35.90625 46.15625 39 
Q 43.40625 42.09375 39.34375 43.84375 
Q 35.296875 45.59375 30.203125 45.59375 
Q 24.40625 45.59375 19.953125 43.390625 
Q 15.5 41.203125 12.5 36.296875 
L 12.296875 36.5 
Q 12.40625 40.59375 13.09375 45.296875 
Q 13.796875 50 15.640625 54.046875 
Q 17.5 58.09375 20.796875 60.75 
Q 24.09375 63.40625 29.5 63.40625 
Q 34.59375 63.40625 37.6875 60.5 
Q 40.796875 57.59375 41.40625 52.796875 
z
M 28.59375 38.09375 
Q 32.203125 38.09375 34.890625 36.796875 
Q 37.59375 35.5 39.390625 33.34375 
Q 41.203125 31.203125 42.046875 28.25 
Q 42.90625 25.296875 42.90625 22 
Q 42.90625 18.90625 41.953125 16.046875 
Q 41 13.203125 39.203125 11 
Q 37.40625 8.796875 34.75 7.546875 
Q 32.09375 6.296875 28.59375 6.296875 
Q 25.09375 6.296875 22.34375 7.546875 
Q 19.59375 8.796875 17.75 10.890625 
Q 15.90625 13 14.90625 15.890625 
Q 13.90625 18.796875 13.90625 22.09375 
Q 13.90625 25.40625 14.84375 28.34375 
Q 15.796875 31.296875 17.6875 33.4375 
Q 19.59375 35.59375 22.296875 36.84375 
Q 25 38.09375 28.59375 38.09375 
z
" id="HelveticaNeue-54"/>
      <path d="M 15.5 52.5 
Q 15.5 55.203125 16.5 57.203125 
Q 17.5 59.203125 19.140625 60.59375 
Q 20.796875 62 23.09375 62.703125 
Q 25.40625 63.40625 27.90625 63.40625 
Q 33.09375 63.40625 36.4375 60.65625 
Q 39.796875 57.90625 39.796875 52.5 
Q 39.796875 47.09375 36.5 44.09375 
Q 33.203125 41.09375 28.09375 41.09375 
Q 25.5 41.09375 23.203125 41.796875 
Q 20.90625 42.5 19.203125 43.890625 
Q 17.5 45.296875 16.5 47.4375 
Q 15.5 49.59375 15.5 52.5 
z
M 6.5 52.796875 
Q 6.5 48 9.203125 43.953125 
Q 11.90625 39.90625 16.40625 38.09375 
Q 10.40625 36 7.203125 31.34375 
Q 4 26.703125 4 20.40625 
Q 4 15 5.84375 10.953125 
Q 7.703125 6.90625 10.953125 4.203125 
Q 14.203125 1.5 18.59375 0.203125 
Q 23 -1.09375 28.09375 -1.09375 
Q 33 -1.09375 37.296875 0.296875 
Q 41.59375 1.703125 44.75 4.453125 
Q 47.90625 7.203125 49.75 11.203125 
Q 51.59375 15.203125 51.59375 20.40625 
Q 51.59375 27 48.5 31.546875 
Q 45.40625 36.09375 39 38.09375 
Q 43.5 40.09375 46.140625 44.046875 
Q 48.796875 48 48.796875 52.796875 
Q 48.796875 56.203125 47.59375 59.453125 
Q 46.40625 62.703125 43.84375 65.25 
Q 41.296875 67.796875 37.1875 69.34375 
Q 33.09375 70.90625 27.296875 70.90625 
Q 23.203125 70.90625 19.453125 69.703125 
Q 15.703125 68.5 12.796875 66.203125 
Q 9.90625 63.90625 8.203125 60.546875 
Q 6.5 57.203125 6.5 52.796875 
z
M 13 20 
Q 13 23.09375 14.140625 25.59375 
Q 15.296875 28.09375 17.34375 29.890625 
Q 19.40625 31.703125 22.15625 32.640625 
Q 24.90625 33.59375 28 33.59375 
Q 31 33.59375 33.640625 32.546875 
Q 36.296875 31.5 38.296875 29.703125 
Q 40.296875 27.90625 41.4375 25.453125 
Q 42.59375 23 42.59375 20.09375 
Q 42.59375 17.09375 41.546875 14.59375 
Q 40.5 12.09375 38.546875 10.25 
Q 36.59375 8.40625 33.9375 7.34375 
Q 31.296875 6.296875 28.09375 6.296875 
Q 21.5 6.296875 17.25 9.9375 
Q 13 13.59375 13 20 
z
" id="HelveticaNeue-56"/>
     </defs>
     <use xlink:href="#HelveticaNeue-83"/>
     <use x="64.799988" xlink:href="#HelveticaNeue-97"/>
     <use x="118.499985" xlink:href="#HelveticaNeue-110"/>
     <use x="174.099976" xlink:href="#HelveticaNeue-32"/>
     <use x="201.899963" xlink:href="#HelveticaNeue-67"/>
     <use x="274.099945" xlink:href="#HelveticaNeue-114"/>
     <use x="307.399933" xlink:href="#HelveticaNeue-105"/>
     <use x="329.59993" xlink:href="#HelveticaNeue-115"/>
     <use x="379.599915" xlink:href="#HelveticaNeue-116"/>
     <use x="411.099899" xlink:href="#HelveticaNeue-243"/>
     <use x="468.499893" xlink:href="#HelveticaNeue-98"/>
     <use x="527.799881" xlink:href="#HelveticaNeue-97"/>
     <use x="581.499878" xlink:href="#HelveticaNeue-108"/>
     <use x="603.699875" xlink:href="#HelveticaNeue-32"/>
     <use x="631.499863" xlink:href="#HelveticaNeue-124"/>
     <use x="653.69986" xlink:href="#HelveticaNeue-32"/>
     <use x="681.499847" xlink:href="#HelveticaNeue-67"/>
     <use x="753.699829" xlink:href="#HelveticaNeue-97"/>
     <use x="807.399826" xlink:href="#HelveticaNeue-115"/>
     <use x="857.399811" xlink:href="#HelveticaNeue-111"/>
     <use x="914.799805" xlink:href="#HelveticaNeue-115"/>
     <use x="964.799789" xlink:href="#HelveticaNeue-32"/>
     <use x="992.599777" xlink:href="#HelveticaNeue-110"/>
     <use x="1048.199768" xlink:href="#HelveticaNeue-117"/>
     <use x="1103.799759" xlink:href="#HelveticaNeue-101"/>
     <use x="1157.499756" xlink:href="#HelveticaNeue-118"/>
     <use x="1207.499741" xlink:href="#HelveticaNeue-111"/>
     <use x="1264.899734" xlink:href="#HelveticaNeue-115"/>
     <use x="1314.899719" xlink:href="#HelveticaNeue-58"/>
     <use x="1342.699707" xlink:href="#HelveticaNeue-32"/>
     <use x="1370.499695" xlink:href="#HelveticaNeue-50"/>
     <use x="1426.099686" xlink:href="#HelveticaNeue-48"/>
     <use x="1481.699677" xlink:href="#HelveticaNeue-50"/>
     <use x="1537.299667" xlink:href="#HelveticaNeue-49"/>
     <use x="1592.899658" xlink:href="#HelveticaNeue-45"/>
     <use x="1631.799652" xlink:href="#HelveticaNeue-48"/>
     <use x="1687.399643" xlink:href="#HelveticaNeue-54"/>
     <use x="1742.999634" xlink:href="#HelveticaNeue-45"/>
     <use x="1781.899628" xlink:href="#HelveticaNeue-50"/>
     <use x="1837.499619" xlink:href="#HelveticaNeue-56"/>
    </g>
   </g>
   <g id="legend_1">
    <g id="line2d_24">
     <path d="M 71.5 39.640625 
L 91.5 39.640625 
" style="fill:none;stroke:#000000;stroke-dasharray:1.5,2.475;stroke-dashoffset:0;stroke-opacity:0.5;stroke-width:1.5;"/>
    </g>
    <g id="line2d_25"/>
    <g id="text_12">
     <!-- Actual -->
     <g style="fill:#555555;" transform="translate(99.5 43.140625)scale(0.1 -0.1)">
      <use xlink:href="#HelveticaNeue-65"/>
      <use x="64.799988" xlink:href="#HelveticaNeue-99"/>
      <use x="118.499985" xlink:href="#HelveticaNeue-116"/>
      <use x="149.999969" xlink:href="#HelveticaNeue-117"/>
      <use x="205.59996" xlink:href="#HelveticaNeue-97"/>
      <use x="259.299957" xlink:href="#HelveticaNeue-108"/>
     </g>
    </g>
    <g id="line2d_26">
     <path d="M 71.5 54.310937 
L 91.5 54.310937 
" style="fill:none;stroke:#b3220f;stroke-linecap:square;stroke-width:1.5;"/>
    </g>
    <g id="line2d_27"/>
    <g id="text_13">
     <!-- Promedio semanal (7 días)  -->
     <g style="fill:#555555;" transform="translate(99.5 57.810937)scale(0.1 -0.1)">
      <defs>
       <path d="M 17.296875 37.203125 
L 17.296875 63.40625 
L 35.90625 63.40625 
Q 44 63.40625 47.75 60.046875 
Q 51.5 56.703125 51.5 50.296875 
Q 51.5 43.90625 47.75 40.5 
Q 44 37.09375 35.90625 37.203125 
z
M 7.796875 71.40625 
L 7.796875 0 
L 17.296875 0 
L 17.296875 29.203125 
L 39.09375 29.203125 
Q 49.90625 29.09375 55.453125 34.6875 
Q 61 40.296875 61 50.296875 
Q 61 60.296875 55.453125 65.84375 
Q 49.90625 71.40625 39.09375 71.40625 
z
" id="HelveticaNeue-80"/>
       <path d="M 6.40625 51.703125 
L 6.40625 0 
L 14.90625 0 
L 14.90625 32.203125 
Q 14.90625 33.703125 15.65625 35.953125 
Q 16.40625 38.203125 18.046875 40.296875 
Q 19.703125 42.40625 22.34375 43.90625 
Q 25 45.40625 28.703125 45.40625 
Q 31.59375 45.40625 33.4375 44.546875 
Q 35.296875 43.703125 36.390625 42.140625 
Q 37.5 40.59375 37.953125 38.5 
Q 38.40625 36.40625 38.40625 33.90625 
L 38.40625 0 
L 46.90625 0 
L 46.90625 32.203125 
Q 46.90625 38.203125 50.5 41.796875 
Q 54.09375 45.40625 60.40625 45.40625 
Q 63.5 45.40625 65.453125 44.5 
Q 67.40625 43.59375 68.5 42.046875 
Q 69.59375 40.5 70 38.390625 
Q 70.40625 36.296875 70.40625 33.90625 
L 70.40625 0 
L 78.90625 0 
L 78.90625 37.90625 
Q 78.90625 41.90625 77.65625 44.75 
Q 76.40625 47.59375 74.15625 49.390625 
Q 71.90625 51.203125 68.75 52.046875 
Q 65.59375 52.90625 61.703125 52.90625 
Q 56.59375 52.90625 52.34375 50.59375 
Q 48.09375 48.296875 45.5 44.09375 
Q 43.90625 48.90625 40 50.90625 
Q 36.09375 52.90625 31.296875 52.90625 
Q 20.40625 52.90625 14.59375 44.09375 
L 14.40625 44.09375 
L 14.40625 51.703125 
z
" id="HelveticaNeue-109"/>
       <path d="M 12.59375 25.40625 
Q 12.59375 29.203125 13.390625 32.796875 
Q 14.203125 36.40625 16 39.203125 
Q 17.796875 42 20.796875 43.703125 
Q 23.796875 45.40625 28.09375 45.40625 
Q 32.5 45.40625 35.59375 43.75 
Q 38.703125 42.09375 40.640625 39.390625 
Q 42.59375 36.703125 43.5 33.140625 
Q 44.40625 29.59375 44.40625 25.796875 
Q 44.40625 22.203125 43.546875 18.703125 
Q 42.703125 15.203125 40.796875 12.453125 
Q 38.90625 9.703125 35.90625 8 
Q 32.90625 6.296875 28.59375 6.296875 
Q 24.5 6.296875 21.453125 7.890625 
Q 18.40625 9.5 16.453125 12.203125 
Q 14.5 14.90625 13.546875 18.34375 
Q 12.59375 21.796875 12.59375 25.40625 
z
M 52.59375 0 
L 52.59375 71.40625 
L 44.09375 71.40625 
L 44.09375 44.796875 
L 43.90625 44.796875 
Q 42.5 47.09375 40.453125 48.640625 
Q 38.40625 50.203125 36.09375 51.140625 
Q 33.796875 52.09375 31.5 52.5 
Q 29.203125 52.90625 27.203125 52.90625 
Q 21.296875 52.90625 16.84375 50.75 
Q 12.40625 48.59375 9.453125 44.9375 
Q 6.5 41.296875 5.046875 36.390625 
Q 3.59375 31.5 3.59375 26 
Q 3.59375 20.5 5.09375 15.59375 
Q 6.59375 10.703125 9.546875 7 
Q 12.5 3.296875 16.953125 1.09375 
Q 21.40625 -1.09375 27.40625 -1.09375 
Q 32.796875 -1.09375 37.296875 0.796875 
Q 41.796875 2.703125 43.90625 7 
L 44.09375 7 
L 44.09375 0 
z
" id="HelveticaNeue-100"/>
       <path d="M 20.40625 -19.703125 
L 26.90625 -19.703125 
Q 19.796875 -8.203125 16.75 3.09375 
Q 13.703125 14.40625 13.703125 27 
Q 13.703125 39.296875 16.703125 50.5 
Q 19.703125 61.703125 26.90625 73.09375 
L 20.40625 73.09375 
Q 12.59375 62.796875 8.640625 50.796875 
Q 4.703125 38.796875 4.703125 27 
Q 4.703125 20.40625 5.796875 14.40625 
Q 6.90625 8.40625 8.953125 2.703125 
Q 11 -3 13.890625 -8.546875 
Q 16.796875 -14.09375 20.40625 -19.703125 
z
" id="HelveticaNeue-40"/>
       <path d="M 50.90625 62.40625 
L 50.90625 69.703125 
L 5 69.703125 
L 5 61.703125 
L 42.203125 61.703125 
Q 36.59375 55.796875 31.75 48.796875 
Q 26.90625 41.796875 23.203125 33.9375 
Q 19.5 26.09375 17.140625 17.546875 
Q 14.796875 9 14.203125 0 
L 23.703125 0 
Q 24.203125 8.296875 26.5 17.09375 
Q 28.796875 25.90625 32.4375 34.203125 
Q 36.09375 42.5 40.796875 49.796875 
Q 45.5 57.09375 50.90625 62.40625 
z
" id="HelveticaNeue-55"/>
       <path d="M 6.90625 0 
L 15.40625 0 
L 15.40625 51.703125 
L 6.90625 51.703125 
z
M 25.5 77 
L 11.40625 60.796875 
L 5 60.796875 
L 14.59375 77 
z
" id="HelveticaNeue-237"/>
       <path d="M -0.90625 -19.703125 
L 5.5 -19.703125 
Q 13.296875 -9.40625 17.25 2.546875 
Q 21.203125 14.5 21.203125 26.296875 
Q 21.203125 32.90625 20.09375 38.90625 
Q 19 44.90625 16.953125 50.65625 
Q 14.90625 56.40625 12 61.953125 
Q 9.09375 67.5 5.5 73.09375 
L -0.90625 73.09375 
Q 6.09375 61.59375 9.140625 50.25 
Q 12.203125 38.90625 12.203125 26.296875 
Q 12.203125 14.09375 9.203125 2.84375 
Q 6.203125 -8.40625 -0.90625 -19.703125 
z
" id="HelveticaNeue-41"/>
      </defs>
      <use xlink:href="#HelveticaNeue-80"/>
      <use x="64.799988" xlink:href="#HelveticaNeue-114"/>
      <use x="96.349976" xlink:href="#HelveticaNeue-111"/>
      <use x="153.749969" xlink:href="#HelveticaNeue-109"/>
      <use x="239.049957" xlink:href="#HelveticaNeue-101"/>
      <use x="292.749954" xlink:href="#HelveticaNeue-100"/>
      <use x="352.049942" xlink:href="#HelveticaNeue-105"/>
      <use x="374.249939" xlink:href="#HelveticaNeue-111"/>
      <use x="431.649933" xlink:href="#HelveticaNeue-32"/>
      <use x="459.449921" xlink:href="#HelveticaNeue-115"/>
      <use x="509.449905" xlink:href="#HelveticaNeue-101"/>
      <use x="563.149902" xlink:href="#HelveticaNeue-109"/>
      <use x="648.44989" xlink:href="#HelveticaNeue-97"/>
      <use x="702.149887" xlink:href="#HelveticaNeue-110"/>
      <use x="757.749878" xlink:href="#HelveticaNeue-97"/>
      <use x="811.449875" xlink:href="#HelveticaNeue-108"/>
      <use x="833.649872" xlink:href="#HelveticaNeue-32"/>
      <use x="861.44986" xlink:href="#HelveticaNeue-40"/>
      <use x="887.349854" xlink:href="#HelveticaNeue-55"/>
      <use x="942.949844" xlink:href="#HelveticaNeue-32"/>
      <use x="970.749832" xlink:href="#HelveticaNeue-100"/>
      <use x="1030.04982" xlink:href="#HelveticaNeue-237"/>
      <use x="1052.249817" xlink:href="#HelveticaNeue-97"/>
      <use x="1105.949814" xlink:href="#HelveticaNeue-115"/>
      <use x="1155.949799" xlink:href="#HelveticaNeue-41"/>
      <use x="1181.849792" xlink:href="#HelveticaNeue-32"/>
     </g>
    </g>
   </g>
  </g>
 </g>
 <defs>
  <clipPath id="p113a6e926c">
   <rect height="235.5" width="387.5" x="62.5" y="27"/>
  </clipPath>
 </defs>
</svg>
