<?xml version="1.0" encoding="utf-8" standalone="no"?>
<!DOCTYPE svg PUBLIC "-//W3C//DTD SVG 1.1//EN"
  "http://www.w3.org/Graphics/SVG/1.1/DTD/svg11.dtd">
<!-- Created with matplotlib (https://matplotlib.org/) -->
<svg height="300pt" version="1.1" viewBox="0 0 500 300" width="500pt" xmlns="http://www.w3.org/2000/svg" xmlns:xlink="http://www.w3.org/1999/xlink">
 <metadata>
  <rdf:RDF xmlns:cc="http://creativecommons.org/ns#" xmlns:dc="http://purl.org/dc/elements/1.1/" xmlns:rdf="http://www.w3.org/1999/02/22-rdf-syntax-ns#">
   <cc:Work>
    <dc:type rdf:resource="http://purl.org/dc/dcmitype/StillImage"/>
    <dc:date>2021-07-07T23:33:20.976562</dc:date>
    <dc:format>image/svg+xml</dc:format>
    <dc:creator>
     <cc:Agent>
      <dc:title>Matplotlib v3.3.4, https://matplotlib.org/</dc:title>
     </cc:Agent>
    </dc:creator>
   </cc:Work>
  </rdf:RDF>
 </metadata>
 <defs>
  <style type="text/css">*{stroke-linecap:butt;stroke-linejoin:round;}</style>
 </defs>
 <g id="figure_1">
  <g id="patch_1">
   <path d="M 0 300 
L 500 300 
L 500 0 
L 0 0 
z
" style="fill:#ffffff;"/>
  </g>
  <g id="axes_1">
   <g id="patch_2">
    <path d="M 62.5 262.5 
L 450 262.5 
L 450 27 
L 62.5 27 
z
" style="fill:#ffffff;"/>
   </g>
   <g id="matplotlib.axis_1">
    <g id="xtick_1">
     <g id="line2d_1">
      <defs>
       <path d="M 0 0 
L 0 3.5 
" id="ma9664dff97" style="stroke:#555555;stroke-width:0.8;"/>
      </defs>
      <g>
       <use style="fill:#555555;stroke:#555555;stroke-width:0.8;" x="62.5" xlink:href="#ma9664dff97" y="262.5"/>
      </g>
     </g>
    </g>
    <g id="xtick_2">
     <g id="line2d_2">
      <g>
       <use style="fill:#555555;stroke:#555555;stroke-width:0.8;" x="135.741758" xlink:href="#ma9664dff97" y="262.5"/>
      </g>
     </g>
     <g id="text_1">
      <!-- Jul -->
      <g style="fill:#555555;" transform="translate(129.256602 276.640625)scale(0.1 -0.1)">
       <defs>
        <path d="M 44.09375 17.796875 
L 44.09375 71.40625 
L 34.59375 71.40625 
L 34.59375 19.203125 
Q 34.59375 13.296875 32.140625 9.796875 
Q 29.703125 6.296875 23.203125 6.296875 
Q 19.703125 6.296875 17.453125 7.34375 
Q 15.203125 8.40625 13.953125 10.296875 
Q 12.703125 12.203125 12.203125 14.796875 
Q 11.703125 17.40625 11.703125 20.5 
L 11.703125 23.5 
L 2.203125 23.5 
L 2.203125 19.09375 
Q 2.203125 8.90625 7.59375 3.65625 
Q 13 -1.59375 23 -1.59375 
Q 29 -1.59375 33.046875 0.046875 
Q 37.09375 1.703125 39.546875 4.453125 
Q 42 7.203125 43.046875 10.703125 
Q 44.09375 14.203125 44.09375 17.796875 
z
" id="HelveticaNeue-74"/>
        <path d="M 49.203125 0 
L 49.203125 51.703125 
L 40.703125 51.703125 
L 40.703125 22.5 
Q 40.703125 19 39.75 16.046875 
Q 38.796875 13.09375 36.890625 10.890625 
Q 35 8.703125 32.140625 7.5 
Q 29.296875 6.296875 25.40625 6.296875 
Q 20.5 6.296875 17.703125 9.09375 
Q 14.90625 11.90625 14.90625 16.703125 
L 14.90625 51.703125 
L 6.40625 51.703125 
L 6.40625 17.703125 
Q 6.40625 13.5 7.25 10.046875 
Q 8.09375 6.59375 10.1875 4.09375 
Q 12.296875 1.59375 15.6875 0.25 
Q 19.09375 -1.09375 24.203125 -1.09375 
Q 29.90625 -1.09375 34.09375 1.15625 
Q 38.296875 3.40625 41 8.203125 
L 41.203125 8.203125 
L 41.203125 0 
z
" id="HelveticaNeue-117"/>
        <path d="M 6.90625 71.40625 
L 6.90625 0 
L 15.40625 0 
L 15.40625 71.40625 
z
" id="HelveticaNeue-108"/>
       </defs>
       <use xlink:href="#HelveticaNeue-74"/>
       <use x="51.899994" xlink:href="#HelveticaNeue-117"/>
       <use x="107.499985" xlink:href="#HelveticaNeue-108"/>
      </g>
     </g>
    </g>
    <g id="xtick_3">
     <g id="line2d_3">
      <g>
       <use style="fill:#555555;stroke:#555555;stroke-width:0.8;" x="214.093407" xlink:href="#ma9664dff97" y="262.5"/>
      </g>
     </g>
     <g id="text_2">
      <!-- Oct -->
      <g style="fill:#555555;" transform="translate(206.03325 276.640625)scale(0.1 -0.1)">
       <defs>
        <path d="M 13.296875 35.703125 
Q 13.296875 41.09375 14.6875 46.34375 
Q 16.09375 51.59375 19.09375 55.796875 
Q 22.09375 60 26.796875 62.546875 
Q 31.5 65.09375 38 65.09375 
Q 44.5 65.09375 49.203125 62.546875 
Q 53.90625 60 56.90625 55.796875 
Q 59.90625 51.59375 61.296875 46.34375 
Q 62.703125 41.09375 62.703125 35.703125 
Q 62.703125 30.296875 61.296875 25.046875 
Q 59.90625 19.796875 56.90625 15.59375 
Q 53.90625 11.40625 49.203125 8.84375 
Q 44.5 6.296875 38 6.296875 
Q 31.5 6.296875 26.796875 8.84375 
Q 22.09375 11.40625 19.09375 15.59375 
Q 16.09375 19.796875 14.6875 25.046875 
Q 13.296875 30.296875 13.296875 35.703125 
z
M 3.796875 35.703125 
Q 3.796875 28.40625 5.9375 21.65625 
Q 8.09375 14.90625 12.390625 9.703125 
Q 16.703125 4.5 23.09375 1.453125 
Q 29.5 -1.59375 38 -1.59375 
Q 46.5 -1.59375 52.890625 1.453125 
Q 59.296875 4.5 63.59375 9.703125 
Q 67.90625 14.90625 70.046875 21.65625 
Q 72.203125 28.40625 72.203125 35.703125 
Q 72.203125 43 70.046875 49.75 
Q 67.90625 56.5 63.59375 61.703125 
Q 59.296875 66.90625 52.890625 70 
Q 46.5 73.09375 38 73.09375 
Q 29.5 73.09375 23.09375 70 
Q 16.703125 66.90625 12.390625 61.703125 
Q 8.09375 56.5 5.9375 49.75 
Q 3.796875 43 3.796875 35.703125 
z
" id="HelveticaNeue-79"/>
        <path d="M 41.5 35.09375 
L 50.296875 35.09375 
Q 49.796875 39.703125 47.890625 43.046875 
Q 46 46.40625 43.046875 48.59375 
Q 40.09375 50.796875 36.25 51.84375 
Q 32.40625 52.90625 28 52.90625 
Q 21.90625 52.90625 17.296875 50.75 
Q 12.703125 48.59375 9.640625 44.84375 
Q 6.59375 41.09375 5.09375 36.046875 
Q 3.59375 31 3.59375 25.203125 
Q 3.59375 19.40625 5.140625 14.546875 
Q 6.703125 9.703125 9.75 6.203125 
Q 12.796875 2.703125 17.34375 0.796875 
Q 21.90625 -1.09375 27.796875 -1.09375 
Q 37.703125 -1.09375 43.453125 4.09375 
Q 49.203125 9.296875 50.59375 18.90625 
L 41.90625 18.90625 
Q 41.09375 12.90625 37.546875 9.59375 
Q 34 6.296875 27.703125 6.296875 
Q 23.703125 6.296875 20.796875 7.890625 
Q 17.90625 9.5 16.09375 12.140625 
Q 14.296875 14.796875 13.4375 18.1875 
Q 12.59375 21.59375 12.59375 25.203125 
Q 12.59375 29.09375 13.390625 32.75 
Q 14.203125 36.40625 16.046875 39.203125 
Q 17.90625 42 21 43.703125 
Q 24.09375 45.40625 28.703125 45.40625 
Q 34.09375 45.40625 37.296875 42.703125 
Q 40.5 40 41.5 35.09375 
z
" id="HelveticaNeue-99"/>
        <path d="M 18.203125 51.703125 
L 18.203125 67.203125 
L 9.703125 67.203125 
L 9.703125 51.703125 
L 0.90625 51.703125 
L 0.90625 44.203125 
L 9.703125 44.203125 
L 9.703125 11.296875 
Q 9.703125 7.703125 10.390625 5.5 
Q 11.09375 3.296875 12.546875 2.09375 
Q 14 0.90625 16.34375 0.453125 
Q 18.703125 0 22 0 
L 28.5 0 
L 28.5 7.5 
L 24.59375 7.5 
Q 22.59375 7.5 21.34375 7.640625 
Q 20.09375 7.796875 19.390625 8.296875 
Q 18.703125 8.796875 18.453125 9.6875 
Q 18.203125 10.59375 18.203125 12.09375 
L 18.203125 44.203125 
L 28.5 44.203125 
L 28.5 51.703125 
z
" id="HelveticaNeue-116"/>
       </defs>
       <use xlink:href="#HelveticaNeue-79"/>
       <use x="75.999985" xlink:href="#HelveticaNeue-99"/>
       <use x="129.699982" xlink:href="#HelveticaNeue-116"/>
      </g>
     </g>
    </g>
    <g id="xtick_4">
     <g id="line2d_4">
      <g>
       <use style="fill:#555555;stroke:#555555;stroke-width:0.8;" x="292.445055" xlink:href="#ma9664dff97" y="262.5"/>
      </g>
     </g>
     <g id="text_3">
      <!-- Jan -->
      <g style="fill:#555555;" transform="translate(284.384899 276.640625)scale(0.1 -0.1)">
       <defs>
        <path d="M 52.203125 0.203125 
Q 50 -1.09375 46.09375 -1.09375 
Q 42.796875 -1.09375 40.84375 0.75 
Q 38.90625 2.59375 38.90625 6.796875 
Q 35.40625 2.59375 30.75 0.75 
Q 26.09375 -1.09375 20.703125 -1.09375 
Q 17.203125 -1.09375 14.046875 -0.296875 
Q 10.90625 0.5 8.59375 2.203125 
Q 6.296875 3.90625 4.9375 6.65625 
Q 3.59375 9.40625 3.59375 13.296875 
Q 3.59375 17.703125 5.09375 20.5 
Q 6.59375 23.296875 9.046875 25.046875 
Q 11.5 26.796875 14.640625 27.6875 
Q 17.796875 28.59375 21.09375 29.203125 
Q 24.59375 29.90625 27.75 30.25 
Q 30.90625 30.59375 33.296875 31.25 
Q 35.703125 31.90625 37.09375 33.15625 
Q 38.5 34.40625 38.5 36.796875 
Q 38.5 39.59375 37.453125 41.296875 
Q 36.40625 43 34.75 43.890625 
Q 33.09375 44.796875 31.046875 45.09375 
Q 29 45.40625 27 45.40625 
Q 21.59375 45.40625 18 43.34375 
Q 14.40625 41.296875 14.09375 35.59375 
L 5.59375 35.59375 
Q 5.796875 40.40625 7.59375 43.703125 
Q 9.40625 47 12.40625 49.046875 
Q 15.40625 51.09375 19.25 52 
Q 23.09375 52.90625 27.5 52.90625 
Q 31 52.90625 34.453125 52.40625 
Q 37.90625 51.90625 40.703125 50.34375 
Q 43.5 48.796875 45.203125 46 
Q 46.90625 43.203125 46.90625 38.703125 
L 46.90625 12.09375 
Q 46.90625 9.09375 47.25 7.6875 
Q 47.59375 6.296875 49.59375 6.296875 
Q 50.703125 6.296875 52.203125 6.796875 
z
M 38.40625 26.703125 
Q 36.796875 25.5 34.1875 24.953125 
Q 31.59375 24.40625 28.75 24.046875 
Q 25.90625 23.703125 23 23.25 
Q 20.09375 22.796875 17.796875 21.796875 
Q 15.5 20.796875 14.046875 18.9375 
Q 12.59375 17.09375 12.59375 13.90625 
Q 12.59375 11.796875 13.4375 10.34375 
Q 14.296875 8.90625 15.640625 8 
Q 17 7.09375 18.796875 6.6875 
Q 20.59375 6.296875 22.59375 6.296875 
Q 26.796875 6.296875 29.796875 7.4375 
Q 32.796875 8.59375 34.6875 10.34375 
Q 36.59375 12.09375 37.5 14.140625 
Q 38.40625 16.203125 38.40625 18 
z
" id="HelveticaNeue-97"/>
        <path d="M 6.40625 51.703125 
L 6.40625 0 
L 14.90625 0 
L 14.90625 29.203125 
Q 14.90625 32.703125 15.84375 35.640625 
Q 16.796875 38.59375 18.6875 40.796875 
Q 20.59375 43 23.4375 44.203125 
Q 26.296875 45.40625 30.203125 45.40625 
Q 35.09375 45.40625 37.890625 42.59375 
Q 40.703125 39.796875 40.703125 35 
L 40.703125 0 
L 49.203125 0 
L 49.203125 34 
Q 49.203125 38.203125 48.34375 41.640625 
Q 47.5 45.09375 45.390625 47.59375 
Q 43.296875 50.09375 39.890625 51.5 
Q 36.5 52.90625 31.40625 52.90625 
Q 19.90625 52.90625 14.59375 43.5 
L 14.40625 43.5 
L 14.40625 51.703125 
z
" id="HelveticaNeue-110"/>
       </defs>
       <use xlink:href="#HelveticaNeue-74"/>
       <use x="51.899994" xlink:href="#HelveticaNeue-97"/>
       <use x="105.599991" xlink:href="#HelveticaNeue-110"/>
      </g>
      <!-- 2021 -->
      <g style="fill:#555555;" transform="translate(281.326305 287.179688)scale(0.1 -0.1)">
       <defs>
        <path d="M 4.40625 45.796875 
L 12.90625 45.796875 
Q 12.796875 49 13.546875 52.140625 
Q 14.296875 55.296875 16 57.796875 
Q 17.703125 60.296875 20.34375 61.84375 
Q 23 63.40625 26.703125 63.40625 
Q 29.5 63.40625 32 62.5 
Q 34.5 61.59375 36.34375 59.890625 
Q 38.203125 58.203125 39.296875 55.84375 
Q 40.40625 53.5 40.40625 50.59375 
Q 40.40625 46.90625 39.25 44.09375 
Q 38.09375 41.296875 35.84375 38.890625 
Q 33.59375 36.5 30.1875 34.140625 
Q 26.796875 31.796875 22.296875 29 
Q 18.59375 26.796875 15.1875 24.296875 
Q 11.796875 21.796875 9.09375 18.5 
Q 6.40625 15.203125 4.65625 10.75 
Q 2.90625 6.296875 2.40625 0 
L 48.703125 0 
L 48.703125 7.5 
L 12.296875 7.5 
Q 12.90625 10.796875 14.84375 13.34375 
Q 16.796875 15.90625 19.546875 18.09375 
Q 22.296875 20.296875 25.59375 22.25 
Q 28.90625 24.203125 32.203125 26.203125 
Q 35.5 28.296875 38.59375 30.59375 
Q 41.703125 32.90625 44.09375 35.75 
Q 46.5 38.59375 47.953125 42.1875 
Q 49.40625 45.796875 49.40625 50.5 
Q 49.40625 55.5 47.65625 59.296875 
Q 45.90625 63.09375 42.90625 65.640625 
Q 39.90625 68.203125 35.84375 69.546875 
Q 31.796875 70.90625 27.203125 70.90625 
Q 21.59375 70.90625 17.1875 69 
Q 12.796875 67.09375 9.84375 63.75 
Q 6.90625 60.40625 5.5 55.796875 
Q 4.09375 51.203125 4.40625 45.796875 
z
" id="HelveticaNeue-50"/>
        <path d="M 13.203125 34.90625 
Q 13.203125 37.5 13.25 40.640625 
Q 13.296875 43.796875 13.75 46.9375 
Q 14.203125 50.09375 15.046875 53.09375 
Q 15.90625 56.09375 17.546875 58.34375 
Q 19.203125 60.59375 21.703125 62 
Q 24.203125 63.40625 27.796875 63.40625 
Q 31.40625 63.40625 33.90625 62 
Q 36.40625 60.59375 38.046875 58.34375 
Q 39.703125 56.09375 40.546875 53.09375 
Q 41.40625 50.09375 41.84375 46.9375 
Q 42.296875 43.796875 42.34375 40.640625 
Q 42.40625 37.5 42.40625 34.90625 
Q 42.40625 30.90625 42.15625 25.953125 
Q 41.90625 21 40.546875 16.640625 
Q 39.203125 12.296875 36.203125 9.296875 
Q 33.203125 6.296875 27.796875 6.296875 
Q 22.40625 6.296875 19.40625 9.296875 
Q 16.40625 12.296875 15.046875 16.640625 
Q 13.703125 21 13.453125 25.953125 
Q 13.203125 30.90625 13.203125 34.90625 
z
M 4.203125 34.796875 
Q 4.203125 30.90625 4.390625 26.703125 
Q 4.59375 22.5 5.390625 18.5 
Q 6.203125 14.5 7.703125 10.953125 
Q 9.203125 7.40625 11.796875 4.703125 
Q 14.40625 2 18.34375 0.453125 
Q 22.296875 -1.09375 27.796875 -1.09375 
Q 33.40625 -1.09375 37.296875 0.453125 
Q 41.203125 2 43.796875 4.703125 
Q 46.40625 7.40625 47.90625 10.953125 
Q 49.40625 14.5 50.203125 18.5 
Q 51 22.5 51.203125 26.703125 
Q 51.40625 30.90625 51.40625 34.796875 
Q 51.40625 38.703125 51.203125 42.890625 
Q 51 47.09375 50.203125 51.09375 
Q 49.40625 55.09375 47.90625 58.6875 
Q 46.40625 62.296875 43.796875 65 
Q 41.203125 67.703125 37.25 69.296875 
Q 33.296875 70.90625 27.796875 70.90625 
Q 22.296875 70.90625 18.34375 69.296875 
Q 14.40625 67.703125 11.796875 65 
Q 9.203125 62.296875 7.703125 58.6875 
Q 6.203125 55.09375 5.390625 51.09375 
Q 4.59375 47.09375 4.390625 42.890625 
Q 4.203125 38.703125 4.203125 34.796875 
z
" id="HelveticaNeue-48"/>
        <path d="M 35.59375 0 
L 35.59375 70.90625 
L 29.09375 70.90625 
Q 28.40625 66.90625 26.5 64.296875 
Q 24.59375 61.703125 21.84375 60.203125 
Q 19.09375 58.703125 15.6875 58.140625 
Q 12.296875 57.59375 8.703125 57.59375 
L 8.703125 50.796875 
L 27.09375 50.796875 
L 27.09375 0 
z
" id="HelveticaNeue-49"/>
       </defs>
       <use xlink:href="#HelveticaNeue-50"/>
       <use x="55.599991" xlink:href="#HelveticaNeue-48"/>
       <use x="111.199982" xlink:href="#HelveticaNeue-50"/>
       <use x="166.799973" xlink:href="#HelveticaNeue-49"/>
      </g>
     </g>
    </g>
    <g id="xtick_5">
     <g id="line2d_5">
      <g>
       <use style="fill:#555555;stroke:#555555;stroke-width:0.8;" x="369.093407" xlink:href="#ma9664dff97" y="262.5"/>
      </g>
     </g>
     <g id="text_4">
      <!-- Apr -->
      <g style="fill:#555555;" transform="translate(361.223875 276.640625)scale(0.1 -0.1)">
       <defs>
        <path d="M 20.09375 29.5 
L 32.203125 62.796875 
L 32.40625 62.796875 
L 44.296875 29.5 
z
M 27.203125 71.40625 
L -0.59375 0 
L 9.09375 0 
L 17.09375 21.5 
L 47.296875 21.5 
L 55.09375 0 
L 65.59375 0 
L 37.703125 71.40625 
z
" id="HelveticaNeue-65"/>
        <path d="M 6.703125 51.703125 
L 6.703125 -19.703125 
L 15.203125 -19.703125 
L 15.203125 6.90625 
L 15.40625 6.90625 
Q 16.796875 4.59375 18.84375 3.046875 
Q 20.90625 1.5 23.203125 0.59375 
Q 25.5 -0.296875 27.84375 -0.6875 
Q 30.203125 -1.09375 32.09375 -1.09375 
Q 38 -1.09375 42.453125 1 
Q 46.90625 3.09375 49.84375 6.75 
Q 52.796875 10.40625 54.25 15.296875 
Q 55.703125 20.203125 55.703125 25.703125 
Q 55.703125 31.203125 54.203125 36.09375 
Q 52.703125 41 49.75 44.75 
Q 46.796875 48.5 42.34375 50.703125 
Q 37.90625 52.90625 31.90625 52.90625 
Q 26.5 52.90625 22 50.953125 
Q 17.5 49 15.40625 44.703125 
L 15.203125 44.703125 
L 15.203125 51.703125 
z
M 46.703125 26.296875 
Q 46.703125 22.5 45.890625 18.890625 
Q 45.09375 15.296875 43.296875 12.5 
Q 41.5 9.703125 38.546875 8 
Q 35.59375 6.296875 31.203125 6.296875 
Q 26.796875 6.296875 23.6875 7.9375 
Q 20.59375 9.59375 18.640625 12.296875 
Q 16.703125 15 15.796875 18.546875 
Q 14.90625 22.09375 14.90625 25.90625 
Q 14.90625 29.5 15.75 33 
Q 16.59375 36.5 18.5 39.25 
Q 20.40625 42 23.40625 43.703125 
Q 26.40625 45.40625 30.703125 45.40625 
Q 34.796875 45.40625 37.84375 43.796875 
Q 40.90625 42.203125 42.84375 39.5 
Q 44.796875 36.796875 45.75 33.34375 
Q 46.703125 29.90625 46.703125 26.296875 
z
" id="HelveticaNeue-112"/>
        <path d="M 6.09375 51.703125 
L 6.09375 0 
L 14.59375 0 
L 14.59375 23 
Q 14.59375 28 15.59375 31.84375 
Q 16.59375 35.703125 18.796875 38.390625 
Q 21 41.09375 24.59375 42.5 
Q 28.203125 43.90625 33.296875 43.90625 
L 33.296875 52.90625 
Q 26.40625 53.09375 21.90625 50.09375 
Q 17.40625 47.09375 14.296875 40.796875 
L 14.09375 40.796875 
L 14.09375 51.703125 
z
" id="HelveticaNeue-114"/>
       </defs>
       <use xlink:href="#HelveticaNeue-65"/>
       <use x="64.799988" xlink:href="#HelveticaNeue-112"/>
       <use x="124.099976" xlink:href="#HelveticaNeue-114"/>
      </g>
     </g>
    </g>
    <g id="xtick_6">
     <g id="line2d_6">
      <g>
       <use style="fill:#555555;stroke:#555555;stroke-width:0.8;" x="446.593407" xlink:href="#ma9664dff97" y="262.5"/>
      </g>
     </g>
     <g id="text_5">
      <!-- Jul -->
      <g style="fill:#555555;" transform="translate(440.10825 276.640625)scale(0.1 -0.1)">
       <use xlink:href="#HelveticaNeue-74"/>
       <use x="51.899994" xlink:href="#HelveticaNeue-117"/>
       <use x="107.499985" xlink:href="#HelveticaNeue-108"/>
      </g>
     </g>
    </g>
    <g id="xtick_7">
     <g id="line2d_7">
      <g>
       <use style="fill:#555555;stroke:#555555;stroke-width:0.8;" x="450" xlink:href="#ma9664dff97" y="262.5"/>
      </g>
     </g>
    </g>
    <g id="xtick_8">
     <g id="line2d_8">
      <defs>
       <path d="M 0 0 
L 0 2 
" id="m8dbfb2109a" style="stroke:#555555;stroke-width:0.6;"/>
      </defs>
      <g>
       <use style="fill:#555555;stroke:#555555;stroke-width:0.6;" x="83.791209" xlink:href="#m8dbfb2109a" y="262.5"/>
      </g>
     </g>
    </g>
    <g id="xtick_9">
     <g id="line2d_9">
      <g>
       <use style="fill:#555555;stroke:#555555;stroke-width:0.6;" x="110.192308" xlink:href="#m8dbfb2109a" y="262.5"/>
      </g>
     </g>
    </g>
    <g id="xtick_10">
     <g id="line2d_10">
      <g>
       <use style="fill:#555555;stroke:#555555;stroke-width:0.6;" x="162.142857" xlink:href="#m8dbfb2109a" y="262.5"/>
      </g>
     </g>
    </g>
    <g id="xtick_11">
     <g id="line2d_11">
      <g>
       <use style="fill:#555555;stroke:#555555;stroke-width:0.6;" x="188.543956" xlink:href="#m8dbfb2109a" y="262.5"/>
      </g>
     </g>
    </g>
    <g id="xtick_12">
     <g id="line2d_12">
      <g>
       <use style="fill:#555555;stroke:#555555;stroke-width:0.6;" x="240.494505" xlink:href="#m8dbfb2109a" y="262.5"/>
      </g>
     </g>
    </g>
    <g id="xtick_13">
     <g id="line2d_13">
      <g>
       <use style="fill:#555555;stroke:#555555;stroke-width:0.6;" x="266.043956" xlink:href="#m8dbfb2109a" y="262.5"/>
      </g>
     </g>
    </g>
    <g id="xtick_14">
     <g id="line2d_14">
      <g>
       <use style="fill:#555555;stroke:#555555;stroke-width:0.6;" x="318.846154" xlink:href="#m8dbfb2109a" y="262.5"/>
      </g>
     </g>
    </g>
    <g id="xtick_15">
     <g id="line2d_15">
      <g>
       <use style="fill:#555555;stroke:#555555;stroke-width:0.6;" x="342.692308" xlink:href="#m8dbfb2109a" y="262.5"/>
      </g>
     </g>
    </g>
    <g id="xtick_16">
     <g id="line2d_16">
      <g>
       <use style="fill:#555555;stroke:#555555;stroke-width:0.6;" x="394.642857" xlink:href="#m8dbfb2109a" y="262.5"/>
      </g>
     </g>
    </g>
    <g id="xtick_17">
     <g id="line2d_17">
      <g>
       <use style="fill:#555555;stroke:#555555;stroke-width:0.6;" x="421.043956" xlink:href="#m8dbfb2109a" y="262.5"/>
      </g>
     </g>
    </g>
    <g id="text_6">
     <!-- fecha -->
     <g style="fill:#555555;" transform="translate(243.935156 300.290625)scale(0.1 -0.1)">
      <defs>
       <path d="M 9.90625 44.203125 
L 9.90625 0 
L 18.40625 0 
L 18.40625 44.203125 
L 28.40625 44.203125 
L 28.40625 51.703125 
L 18.40625 51.703125 
L 18.40625 58.90625 
Q 18.40625 62.296875 20.09375 63.5 
Q 21.796875 64.703125 24.90625 64.703125 
Q 26 64.703125 27.296875 64.546875 
Q 28.59375 64.40625 29.703125 64 
L 29.703125 71.40625 
Q 28.5 71.796875 26.953125 72 
Q 25.40625 72.203125 24.203125 72.203125 
Q 17.203125 72.203125 13.546875 68.953125 
Q 9.90625 65.703125 9.90625 59.40625 
L 9.90625 51.703125 
L 1.203125 51.703125 
L 1.203125 44.203125 
z
" id="HelveticaNeue-102"/>
       <path d="M 42.296875 30.796875 
L 12.59375 30.796875 
Q 12.796875 33.796875 13.890625 36.4375 
Q 15 39.09375 16.890625 41.09375 
Q 18.796875 43.09375 21.4375 44.25 
Q 24.09375 45.40625 27.40625 45.40625 
Q 30.59375 45.40625 33.25 44.25 
Q 35.90625 43.09375 37.84375 41.140625 
Q 39.796875 39.203125 40.9375 36.5 
Q 42.09375 33.796875 42.296875 30.796875 
z
M 50.5 16.40625 
L 42.09375 16.40625 
Q 41 11.296875 37.546875 8.796875 
Q 34.09375 6.296875 28.703125 6.296875 
Q 24.5 6.296875 21.390625 7.6875 
Q 18.296875 9.09375 16.296875 11.4375 
Q 14.296875 13.796875 13.390625 16.84375 
Q 12.5 19.90625 12.59375 23.296875 
L 51.296875 23.296875 
Q 51.5 28 50.453125 33.203125 
Q 49.40625 38.40625 46.65625 42.796875 
Q 43.90625 47.203125 39.34375 50.046875 
Q 34.796875 52.90625 27.90625 52.90625 
Q 22.59375 52.90625 18.140625 50.90625 
Q 13.703125 48.90625 10.453125 45.296875 
Q 7.203125 41.703125 5.390625 36.796875 
Q 3.59375 31.90625 3.59375 26 
Q 3.796875 20.09375 5.34375 15.09375 
Q 6.90625 10.09375 10 6.5 
Q 13.09375 2.90625 17.640625 0.90625 
Q 22.203125 -1.09375 28.40625 -1.09375 
Q 37.203125 -1.09375 43 3.296875 
Q 48.796875 7.703125 50.5 16.40625 
z
" id="HelveticaNeue-101"/>
       <path d="M 6.40625 71.40625 
L 6.40625 0 
L 14.90625 0 
L 14.90625 29.203125 
Q 14.90625 32.703125 15.84375 35.640625 
Q 16.796875 38.59375 18.6875 40.796875 
Q 20.59375 43 23.4375 44.203125 
Q 26.296875 45.40625 30.203125 45.40625 
Q 35.09375 45.40625 37.890625 42.59375 
Q 40.703125 39.796875 40.703125 35 
L 40.703125 0 
L 49.203125 0 
L 49.203125 34 
Q 49.203125 38.203125 48.34375 41.640625 
Q 47.5 45.09375 45.390625 47.59375 
Q 43.296875 50.09375 39.890625 51.5 
Q 36.5 52.90625 31.40625 52.90625 
Q 29.09375 52.90625 26.640625 52.40625 
Q 24.203125 51.90625 21.953125 50.84375 
Q 19.703125 49.796875 17.890625 48.140625 
Q 16.09375 46.5 15.09375 44.09375 
L 14.90625 44.09375 
L 14.90625 71.40625 
z
" id="HelveticaNeue-104"/>
      </defs>
      <use xlink:href="#HelveticaNeue-102"/>
      <use x="29.599991" xlink:href="#HelveticaNeue-101"/>
      <use x="83.299988" xlink:href="#HelveticaNeue-99"/>
      <use x="136.999985" xlink:href="#HelveticaNeue-104"/>
      <use x="192.599976" xlink:href="#HelveticaNeue-97"/>
     </g>
    </g>
   </g>
   <g id="matplotlib.axis_2">
    <g id="ytick_1">
     <g id="line2d_18">
      <defs>
       <path d="M 0 0 
L -3.5 0 
" id="mad6e914ee3" style="stroke:#555555;stroke-width:0.8;"/>
      </defs>
      <g>
       <use style="fill:#555555;stroke:#555555;stroke-width:0.8;" x="62.5" xlink:href="#mad6e914ee3" y="251.795455"/>
      </g>
     </g>
     <g id="text_7">
      <!-- 0 -->
      <g style="fill:#555555;" transform="translate(49.940625 255.365767)scale(0.1 -0.1)">
       <use xlink:href="#HelveticaNeue-48"/>
      </g>
     </g>
    </g>
    <g id="ytick_2">
     <g id="line2d_19">
      <g>
       <use style="fill:#555555;stroke:#555555;stroke-width:0.8;" x="62.5" xlink:href="#mad6e914ee3" y="206.437211"/>
      </g>
     </g>
     <g id="text_8">
      <!-- 100 -->
      <g style="fill:#555555;" transform="translate(38.821875 210.007524)scale(0.1 -0.1)">
       <use xlink:href="#HelveticaNeue-49"/>
       <use x="55.599991" xlink:href="#HelveticaNeue-48"/>
       <use x="111.199982" xlink:href="#HelveticaNeue-48"/>
      </g>
     </g>
    </g>
    <g id="ytick_3">
     <g id="line2d_20">
      <g>
       <use style="fill:#555555;stroke:#555555;stroke-width:0.8;" x="62.5" xlink:href="#mad6e914ee3" y="161.078968"/>
      </g>
     </g>
     <g id="text_9">
      <!-- 200 -->
      <g style="fill:#555555;" transform="translate(38.821875 164.64928)scale(0.1 -0.1)">
       <use xlink:href="#HelveticaNeue-50"/>
       <use x="55.599991" xlink:href="#HelveticaNeue-48"/>
       <use x="111.199982" xlink:href="#HelveticaNeue-48"/>
      </g>
     </g>
    </g>
    <g id="ytick_4">
     <g id="line2d_21">
      <g>
       <use style="fill:#555555;stroke:#555555;stroke-width:0.8;" x="62.5" xlink:href="#mad6e914ee3" y="115.720724"/>
      </g>
     </g>
     <g id="text_10">
      <!-- 300 -->
      <g style="fill:#555555;" transform="translate(38.821875 119.291037)scale(0.1 -0.1)">
       <defs>
        <path d="M 21.796875 40.5 
L 21.796875 33.296875 
Q 24.203125 33.59375 26.90625 33.59375 
Q 30.09375 33.59375 32.84375 32.75 
Q 35.59375 31.90625 37.59375 30.15625 
Q 39.59375 28.40625 40.796875 25.84375 
Q 42 23.296875 42 20 
Q 42 16.796875 40.75 14.25 
Q 39.5 11.703125 37.390625 9.953125 
Q 35.296875 8.203125 32.5 7.25 
Q 29.703125 6.296875 26.59375 6.296875 
Q 19.296875 6.296875 15.5 10.640625 
Q 11.703125 15 11.5 21.90625 
L 3 21.90625 
Q 2.90625 16.40625 4.546875 12.09375 
Q 6.203125 7.796875 9.296875 4.84375 
Q 12.40625 1.90625 16.796875 0.40625 
Q 21.203125 -1.09375 26.59375 -1.09375 
Q 31.59375 -1.09375 36.046875 0.25 
Q 40.5 1.59375 43.796875 4.296875 
Q 47.09375 7 49.046875 11.046875 
Q 51 15.09375 51 20.40625 
Q 51 26.796875 47.84375 31.5 
Q 44.703125 36.203125 38.203125 37.59375 
L 38.203125 37.796875 
Q 42.40625 39.703125 45.203125 43.390625 
Q 48 47.09375 48 51.90625 
Q 48 56.796875 46.34375 60.390625 
Q 44.703125 64 41.796875 66.296875 
Q 38.90625 68.59375 34.953125 69.75 
Q 31 70.90625 26.40625 70.90625 
Q 21.09375 70.90625 17.046875 69.203125 
Q 13 67.5 10.296875 64.5 
Q 7.59375 61.5 6.140625 57.296875 
Q 4.703125 53.09375 4.5 48 
L 13 48 
Q 13 51.09375 13.796875 53.890625 
Q 14.59375 56.703125 16.25 58.796875 
Q 17.90625 60.90625 20.453125 62.15625 
Q 23 63.40625 26.40625 63.40625 
Q 31.796875 63.40625 35.390625 60.546875 
Q 39 57.703125 39 52 
Q 39 49.203125 37.890625 47 
Q 36.796875 44.796875 34.9375 43.34375 
Q 33.09375 41.90625 30.640625 41.15625 
Q 28.203125 40.40625 25.5 40.40625 
L 23.703125 40.40625 
Q 23.203125 40.40625 22.703125 40.40625 
Q 22.296875 40.40625 21.796875 40.5 
z
" id="HelveticaNeue-51"/>
       </defs>
       <use xlink:href="#HelveticaNeue-51"/>
       <use x="55.599991" xlink:href="#HelveticaNeue-48"/>
       <use x="111.199982" xlink:href="#HelveticaNeue-48"/>
      </g>
     </g>
    </g>
    <g id="ytick_5">
     <g id="line2d_22">
      <g>
       <use style="fill:#555555;stroke:#555555;stroke-width:0.8;" x="62.5" xlink:href="#mad6e914ee3" y="70.362481"/>
      </g>
     </g>
     <g id="text_11">
      <!-- 400 -->
      <g style="fill:#555555;" transform="translate(38.821875 73.932793)scale(0.1 -0.1)">
       <defs>
        <path d="M 33.90625 24.09375 
L 10.09375 24.09375 
L 33.703125 58.796875 
L 33.90625 58.796875 
z
M 41.90625 24.09375 
L 41.90625 70.90625 
L 35.09375 70.90625 
L 2.796875 24.796875 
L 2.796875 16.59375 
L 33.90625 16.59375 
L 33.90625 0 
L 41.90625 0 
L 41.90625 16.59375 
L 51.5 16.59375 
L 51.5 24.09375 
z
" id="HelveticaNeue-52"/>
       </defs>
       <use xlink:href="#HelveticaNeue-52"/>
       <use x="55.599991" xlink:href="#HelveticaNeue-48"/>
       <use x="111.199982" xlink:href="#HelveticaNeue-48"/>
      </g>
     </g>
    </g>
   </g>
   <g id="line2d_23">
    <path clip-path="url(#p3af663d969)" d="M 63.351648 250.88829 
L 64.203297 249.981125 
L 65.054945 251.341872 
L 65.906593 251.795455 
L 67.60989 251.795455 
L 68.461538 250.88829 
L 69.313187 250.88829 
L 70.164835 249.981125 
L 71.016484 251.341872 
L 71.868132 249.527542 
L 72.71978 249.07396 
L 73.571429 249.07396 
L 74.423077 250.88829 
L 75.274725 251.341872 
L 76.126374 250.88829 
L 76.978022 249.527542 
L 77.82967 249.981125 
L 78.681319 249.07396 
L 79.532967 246.352465 
L 80.384615 251.341872 
L 81.236264 248.620378 
L 82.087912 250.88829 
L 82.93956 249.981125 
L 83.791209 249.527542 
L 84.642857 248.620378 
L 85.494505 248.166795 
L 86.346154 250.434707 
L 87.197802 247.713213 
L 88.049451 249.527542 
L 88.901099 239.095146 
L 89.752747 247.713213 
L 90.604396 250.88829 
L 91.456044 250.434707 
L 92.307692 246.806048 
L 93.159341 249.527542 
L 94.010989 248.620378 
L 94.862637 248.166795 
L 95.714286 244.538136 
L 96.565934 249.07396 
L 97.417582 245.898883 
L 98.269231 249.981125 
L 99.120879 244.991718 
L 99.972527 244.084553 
L 100.824176 249.527542 
L 101.675824 240.909476 
L 103.379121 250.88829 
L 104.230769 244.084553 
L 105.082418 249.07396 
L 105.934066 240.455894 
L 106.785714 235.920069 
L 107.637363 240.909476 
L 108.489011 244.084553 
L 109.340659 241.363059 
L 110.192308 244.538136 
L 111.043956 241.816641 
L 111.895604 238.641564 
L 112.747253 242.270223 
L 113.598901 243.177388 
L 114.450549 242.723806 
L 115.302198 245.4453 
L 116.153846 243.630971 
L 117.005495 233.652157 
L 117.857143 243.177388 
L 118.708791 246.806048 
L 119.56044 241.816641 
L 120.412088 240.002311 
L 121.263736 244.991718 
L 122.115385 244.991718 
L 122.967033 240.455894 
L 123.818681 228.209168 
L 124.67033 225.941256 
L 125.521978 230.930663 
L 126.373626 215.055277 
L 127.225275 225.487673 
L 128.076923 227.302003 
L 128.928571 231.837827 
L 129.78022 216.416025 
L 130.631868 235.012904 
L 131.483516 211.426618 
L 132.335165 220.498267 
L 133.186813 211.426618 
L 134.038462 226.848421 
L 134.89011 197.819145 
L 135.741758 198.72631 
L 136.593407 220.044684 
L 137.445055 219.591102 
L 138.296703 208.705123 
L 139.148352 203.715716 
L 140 211.8802 
L 140.851648 196.458398 
L 141.703297 200.087057 
L 142.554945 205.076464 
L 143.406593 206.437211 
L 144.258242 213.240948 
L 145.10989 190.561826 
L 145.961538 204.622881 
L 146.813187 181.036595 
L 147.664835 172.418529 
L 148.516484 168.336287 
L 149.368132 182.397342 
L 150.21978 185.118837 
L 151.071429 198.272727 
L 151.923077 195.09765 
L 152.774725 154.728814 
L 153.626374 170.150616 
L 154.478022 213.240948 
L 155.32967 133.864022 
L 156.181319 177.861518 
L 157.032967 185.572419 
L 157.884615 161.53255 
L 158.736264 150.646572 
L 159.587912 181.94376 
L 160.43956 152.460901 
L 161.291209 165.614792 
L 162.142857 153.821649 
L 162.994505 189.201079 
L 163.846154 169.243451 
L 164.697802 145.657165 
L 165.549451 158.811055 
L 166.401099 187.386749 
L 167.252747 187.840331 
L 168.104396 194.644068 
L 168.956044 202.808552 
L 169.807692 134.317604 
L 170.659341 156.543143 
L 171.510989 164.254045 
L 172.362637 158.357473 
L 173.214286 189.654661 
L 174.065934 162.893297 
L 174.917582 173.779276 
L 175.769231 171.057781 
L 176.620879 126.606703 
L 177.472527 173.325693 
L 178.324176 174.686441 
L 179.175824 185.118837 
L 180.027473 175.593606 
L 180.879121 142.028505 
L 181.730769 180.12943 
L 182.582418 187.840331 
L 183.434066 205.076464 
L 184.285714 204.169299 
L 185.137363 178.768683 
L 185.989011 190.561826 
L 186.840659 195.09765 
L 187.692308 179.222265 
L 188.543956 174.686441 
L 189.395604 199.633475 
L 190.247253 182.850924 
L 191.098901 211.8802 
L 191.950549 93.948767 
L 192.802198 238.187982 
L 193.653846 182.850924 
L 195.357143 210.973035 
L 196.208791 172.872111 
L 197.06044 212.333783 
L 197.912088 202.354969 
L 198.763736 201.447804 
L 199.615385 215.962442 
L 200.467033 181.94376 
L 201.318681 212.333783 
L 202.17033 209.612288 
L 203.021978 184.211672 
L 203.873626 208.705123 
L 204.725275 219.591102 
L 205.576923 228.66275 
L 206.428571 215.962442 
L 207.28022 205.530046 
L 208.131868 204.622881 
L 208.983516 194.190485 
L 209.835165 232.29141 
L 210.686813 227.755586 
L 211.538462 221.405431 
L 212.39011 213.69453 
L 213.241758 218.683937 
L 214.093407 225.034091 
L 214.945055 195.09765 
L 215.796703 222.312596 
L 216.648352 214.148112 
L 217.5 233.198575 
L 218.351648 211.426618 
L 219.203297 225.487673 
L 220.054945 200.994222 
L 220.906593 216.416025 
L 221.758242 210.519453 
L 222.60989 230.930663 
L 223.461538 236.373652 
L 224.313187 235.920069 
L 225.164835 231.384245 
L 226.016484 207.797958 
L 226.868132 204.622881 
L 227.71978 231.384245 
L 228.571429 215.055277 
L 229.423077 213.69453 
L 230.274725 224.126926 
L 231.126374 217.32319 
L 231.978022 209.158706 
L 232.82967 212.787365 
L 233.681319 221.859014 
L 234.532967 225.034091 
L 235.384615 211.8802 
L 236.236264 218.230354 
L 237.087912 204.622881 
L 237.93956 207.797958 
L 239.642857 222.312596 
L 240.494505 220.044684 
L 241.346154 225.487673 
L 242.197802 215.962442 
L 243.049451 214.601695 
L 243.901099 215.50886 
L 244.752747 223.219761 
L 245.604396 221.859014 
L 246.456044 219.591102 
L 247.307692 225.941256 
L 248.159341 222.312596 
L 249.010989 214.148112 
L 249.862637 217.776772 
L 250.714286 230.930663 
L 251.565934 229.569915 
L 252.417582 234.559322 
L 253.269231 217.32319 
L 254.120879 208.251541 
L 254.972527 212.787365 
L 255.824176 213.69453 
L 256.675824 217.776772 
L 257.527473 219.591102 
L 258.379121 230.47708 
L 260.082418 203.262134 
L 260.934066 195.09765 
L 261.785714 201.447804 
L 262.637363 191.015408 
L 263.489011 215.50886 
L 264.340659 210.065871 
L 265.192308 215.50886 
L 266.043956 200.994222 
L 267.747253 220.951849 
L 268.598901 199.179892 
L 269.450549 213.240948 
L 270.302198 220.951849 
L 271.153846 202.354969 
L 272.005495 210.973035 
L 272.857143 197.819145 
L 273.708791 204.622881 
L 274.56044 196.458398 
L 275.412088 178.3151 
L 276.263736 212.333783 
L 277.115385 215.962442 
L 277.967033 183.304507 
L 278.818681 156.089561 
L 279.67033 192.829738 
L 280.521978 186.933166 
L 281.373626 192.376156 
L 282.225275 204.169299 
L 283.076923 210.065871 
L 283.928571 158.811055 
L 284.78022 191.468991 
L 285.631868 176.954353 
L 286.483516 204.622881 
L 287.335165 200.540639 
L 288.186813 192.376156 
L 289.038462 189.201079 
L 289.89011 156.996726 
L 290.741758 154.275231 
L 291.593407 176.954353 
L 292.445055 215.962442 
L 293.296703 194.190485 
L 294.148352 166.521957 
L 295 171.057781 
L 295.851648 143.389253 
L 296.703297 125.245955 
L 297.554945 133.864022 
L 298.406593 131.142527 
L 299.258242 184.665254 
L 300.10989 195.09765 
L 300.961538 187.840331 
L 301.813187 116.174307 
L 303.516484 169.697034 
L 304.368132 140.667758 
L 305.21978 151.553737 
L 306.071429 122.978043 
L 306.923077 172.872111 
L 307.774725 142.93567 
L 308.626374 148.378659 
L 309.478022 132.049692 
L 310.32967 127.060285 
L 311.181319 166.068374 
L 312.032967 167.429122 
L 312.884615 147.925077 
L 313.736264 171.057781 
L 314.587912 122.070878 
L 315.43956 186.933166 
L 316.291209 212.333783 
L 317.142857 200.994222 
L 317.994505 183.304507 
L 320.549451 216.416025 
L 321.401099 205.076464 
L 322.252747 222.766179 
L 323.104396 230.47708 
L 323.956044 230.930663 
L 324.807692 223.673344 
L 325.659341 208.705123 
L 326.510989 224.126926 
L 327.362637 227.755586 
L 328.214286 223.219761 
L 329.917582 227.755586 
L 330.769231 229.116333 
L 331.620879 226.848421 
L 332.472527 226.394838 
L 333.324176 229.569915 
L 334.175824 226.848421 
L 335.879121 236.827234 
L 336.730769 237.280817 
L 337.582418 234.559322 
L 338.434066 227.755586 
L 339.285714 230.930663 
L 340.137363 235.920069 
L 340.989011 239.548729 
L 341.840659 231.837827 
L 342.692308 238.187982 
L 343.543956 235.920069 
L 344.395604 237.280817 
L 345.247253 235.466487 
L 346.098901 235.466487 
L 346.950549 239.548729 
L 348.653846 236.827234 
L 349.505495 242.723806 
L 350.357143 237.280817 
L 351.208791 234.10574 
L 352.06044 228.66275 
L 352.912088 239.548729 
L 353.763736 238.187982 
L 355.467033 239.095146 
L 356.318681 237.734399 
L 357.17033 240.909476 
L 358.021978 239.095146 
L 358.873626 232.744992 
L 359.725275 240.455894 
L 360.576923 234.559322 
L 361.428571 230.023498 
L 362.28022 237.280817 
L 363.131868 226.848421 
L 363.983516 225.941256 
L 364.835165 229.116333 
L 365.686813 233.652157 
L 366.538462 228.209168 
L 367.39011 229.569915 
L 368.241758 215.50886 
L 369.093407 225.034091 
L 369.945055 227.302003 
L 370.796703 225.941256 
L 371.648352 228.209168 
L 372.5 223.219761 
L 373.351648 188.293914 
L 374.203297 210.519453 
L 375.054945 212.333783 
L 375.906593 196.004815 
L 376.758242 196.91198 
L 377.60989 220.044684 
L 378.461538 171.964946 
L 379.313187 182.397342 
L 380.164835 150.646572 
L 381.016484 201.447804 
L 381.868132 178.768683 
L 382.71978 199.633475 
L 383.571429 203.262134 
L 384.423077 124.792373 
L 385.274725 164.254045 
L 386.126374 179.675847 
L 386.978022 170.604199 
L 387.82967 171.057781 
L 388.681319 187.386749 
L 389.532967 210.973035 
L 390.384615 157.450308 
L 391.236264 131.596109 
L 392.087912 197.365562 
L 392.93956 161.078968 
L 393.791209 168.789869 
L 394.642857 179.675847 
L 395.494505 166.068374 
L 396.346154 164.707627 
L 397.197802 166.521957 
L 398.049451 189.654661 
L 398.901099 108.916988 
L 399.752747 170.150616 
L 400.604396 167.429122 
L 401.456044 176.047188 
L 402.307692 140.214176 
L 403.159341 157.903891 
L 404.010989 111.638482 
L 404.862637 168.336287 
L 405.714286 181.94376 
L 406.565934 127.96745 
L 407.417582 196.004815 
L 408.269231 176.047188 
L 409.120879 175.140023 
L 409.972527 147.925077 
L 411.675824 108.009823 
L 412.527473 68.094569 
L 413.379121 129.328197 
L 414.230769 129.328197 
L 415.082418 48.590524 
L 415.934066 123.431626 
L 416.785714 101.206086 
L 417.637363 98.938174 
L 418.489011 58.115755 
L 419.340659 155.635978 
L 420.192308 114.813559 
L 421.043956 61.744414 
L 421.895604 82.609206 
L 422.747253 72.17681 
L 423.598901 75.351888 
L 424.450549 52.672766 
L 425.302198 136.131934 
L 426.153846 120.256549 
L 427.005495 119.802966 
L 427.857143 85.784284 
L 428.708791 136.585516 
L 429.56044 75.351888 
L 430.412088 69.908898 
L 431.263736 115.720724 
L 432.115385 129.78178 
L 432.967033 80.794877 
L 433.818681 81.702042 
L 434.67033 99.391757 
L 435.521978 37.704545 
L 436.373626 115.267142 
L 437.225275 138.399846 
L 438.076923 118.895801 
L 438.928571 85.330701 
L 439.78022 74.898305 
L 440.631868 148.832242 
L 441.483516 87.598613 
L 442.335165 51.765601 
L 443.186813 132.049692 
L 444.038462 109.37057 
L 444.89011 61.290832 
L 445.741758 122.978043 
L 446.593407 111.638482 
L 447.445055 161.986133 
L 448.296703 137.492681 
L 449.148352 152.914484 
L 450 232.29141 
L 450 232.29141 
" style="fill:none;stroke:#000000;stroke-dasharray:1.5,2.475;stroke-dashoffset:0;stroke-opacity:0.5;stroke-width:1.5;"/>
   </g>
   <g id="line2d_24">
    <path clip-path="url(#p3af663d969)" d="M 62.5 250.88829 
L 64.203297 250.88829 
L 65.054945 251.341872 
L 68.461538 251.341872 
L 71.016484 249.981125 
L 74.423077 249.981125 
L 75.274725 250.434707 
L 76.126374 250.434707 
L 78.681319 249.07396 
L 79.532967 249.07396 
L 80.384615 249.527542 
L 83.791209 249.527542 
L 84.642857 249.07396 
L 85.494505 249.07396 
L 86.346154 247.713213 
L 87.197802 247.25963 
L 88.049451 247.25963 
L 88.901099 247.713213 
L 89.752747 247.25963 
L 91.456044 248.166795 
L 92.307692 249.07396 
L 94.862637 247.713213 
L 95.714286 247.713213 
L 97.417582 246.806048 
L 98.269231 246.806048 
L 99.972527 245.898883 
L 100.824176 246.352465 
L 101.675824 245.898883 
L 102.527473 246.352465 
L 103.379121 245.898883 
L 104.230769 244.538136 
L 105.082418 244.084553 
L 105.934066 243.177388 
L 106.785714 241.816641 
L 107.637363 241.816641 
L 108.489011 241.363059 
L 109.340659 241.363059 
L 111.043956 242.270223 
L 111.895604 241.816641 
L 113.598901 242.723806 
L 114.450549 241.816641 
L 115.302198 242.270223 
L 117.005495 242.270223 
L 117.857143 241.816641 
L 118.708791 242.270223 
L 119.56044 242.270223 
L 120.412088 243.177388 
L 121.263736 241.363059 
L 122.115385 238.641564 
L 122.967033 236.827234 
L 124.67033 229.569915 
L 125.521978 226.848421 
L 126.373626 225.941256 
L 127.225275 224.580508 
L 128.076923 225.487673 
L 128.928571 224.126926 
L 129.78022 224.126926 
L 130.631868 222.312596 
L 131.483516 221.405431 
L 133.186813 214.601695 
L 134.038462 212.333783 
L 134.89011 212.333783 
L 137.445055 209.612288 
L 138.296703 209.158706 
L 139.148352 208.251541 
L 140 205.983629 
L 140.851648 204.169299 
L 141.703297 204.622881 
L 143.406593 202.808552 
L 144.258242 200.994222 
L 145.10989 197.365562 
L 145.961538 191.468991 
L 146.813187 186.479584 
L 147.664835 182.397342 
L 149.368132 182.397342 
L 150.21978 181.490177 
L 151.071429 181.036595 
L 151.923077 184.665254 
L 152.774725 179.222265 
L 154.478022 174.686441 
L 155.32967 171.964946 
L 156.181319 170.604199 
L 157.032967 170.604199 
L 157.884615 165.16121 
L 158.736264 167.429122 
L 159.587912 164.254045 
L 160.43956 164.254045 
L 161.291209 166.068374 
L 162.142857 165.614792 
L 162.994505 163.34688 
L 163.846154 166.521957 
L 164.697802 169.243451 
L 165.549451 173.779276 
L 166.401099 177.407935 
L 167.252747 176.954353 
L 168.104396 177.407935 
L 168.956044 175.593606 
L 169.807692 170.150616 
L 170.659341 168.336287 
L 171.510989 165.16121 
L 172.362637 163.800462 
L 173.214286 168.789869 
L 174.065934 166.068374 
L 174.917582 165.614792 
L 175.769231 165.614792 
L 176.620879 165.16121 
L 177.472527 167.429122 
L 178.324176 165.614792 
L 179.175824 167.429122 
L 180.027473 173.325693 
L 180.879121 176.50077 
L 181.730769 181.036595 
L 182.582418 182.850924 
L 183.434066 186.479584 
L 184.285714 192.376156 
L 185.137363 191.922573 
L 185.989011 189.654661 
L 187.692308 186.026002 
L 188.543956 189.201079 
L 189.395604 179.675847 
L 190.247253 182.397342 
L 191.098901 182.397342 
L 192.802198 186.933166 
L 193.653846 187.840331 
L 194.505495 190.108243 
L 195.357143 200.540639 
L 196.208791 197.365562 
L 197.06044 200.994222 
L 197.912088 200.540639 
L 198.763736 200.994222 
L 199.615385 204.622881 
L 200.467033 201.447804 
L 201.318681 201.901387 
L 202.17033 203.715716 
L 203.021978 205.983629 
L 203.873626 210.519453 
L 204.725275 211.426618 
L 206.428571 212.333783 
L 207.28022 213.240948 
L 208.131868 213.69453 
L 208.983516 213.69453 
L 209.835165 215.055277 
L 210.686813 217.32319 
L 211.538462 220.044684 
L 212.39011 219.137519 
L 214.093407 215.50886 
L 214.945055 216.416025 
L 215.796703 216.869607 
L 216.648352 217.776772 
L 217.5 216.416025 
L 218.351648 217.776772 
L 219.203297 215.962442 
L 220.906593 217.776772 
L 221.758242 221.405431 
L 222.60989 224.126926 
L 223.461538 225.941256 
L 224.313187 224.580508 
L 225.164835 225.034091 
L 226.016484 222.312596 
L 226.868132 219.137519 
L 227.71978 217.776772 
L 228.571429 216.869607 
L 229.423077 217.32319 
L 230.274725 217.32319 
L 231.126374 216.416025 
L 231.978022 217.32319 
L 232.82967 217.32319 
L 233.681319 216.869607 
L 235.384615 215.055277 
L 237.93956 213.69453 
L 238.791209 215.962442 
L 239.642857 216.869607 
L 240.494505 218.230354 
L 241.346154 219.137519 
L 243.901099 219.137519 
L 244.752747 219.591102 
L 245.604396 220.498267 
L 246.456044 220.951849 
L 247.307692 220.951849 
L 248.159341 221.405431 
L 249.010989 222.312596 
L 249.862637 224.126926 
L 250.714286 224.126926 
L 251.565934 223.219761 
L 252.417582 222.766179 
L 253.269231 220.951849 
L 254.120879 218.230354 
L 254.972527 216.416025 
L 255.824176 216.416025 
L 256.675824 217.32319 
L 257.527473 217.32319 
L 259.230769 212.787365 
L 260.082418 208.251541 
L 260.934066 205.983629 
L 261.785714 203.262134 
L 263.489011 205.076464 
L 264.340659 206.890794 
L 265.192308 209.612288 
L 266.043956 210.519453 
L 266.895604 210.065871 
L 267.747253 210.973035 
L 268.598901 210.519453 
L 269.450549 211.426618 
L 271.153846 207.797958 
L 272.005495 206.437211 
L 272.857143 201.901387 
L 273.708791 200.087057 
L 274.56044 200.994222 
L 275.412088 198.72631 
L 276.263736 194.190485 
L 277.967033 189.654661 
L 278.818681 189.201079 
L 279.67033 187.840331 
L 280.521978 189.201079 
L 281.373626 188.747496 
L 282.225275 191.922573 
L 283.076923 189.654661 
L 284.78022 190.561826 
L 285.631868 189.654661 
L 286.483516 189.201079 
L 287.335165 189.201079 
L 288.186813 184.211672 
L 289.038462 181.490177 
L 289.89011 180.583012 
L 292.445055 179.222265 
L 293.296703 177.861518 
L 294.148352 172.418529 
L 295 163.34688 
L 295.851648 151.100154 
L 296.703297 147.471495 
L 297.554945 151.100154 
L 298.406593 156.089561 
L 299.258242 157.450308 
L 300.10989 159.71822 
L 300.961538 162.439715 
L 301.813187 160.625385 
L 302.664835 155.182396 
L 303.516484 147.017912 
L 304.368132 145.657165 
L 305.21978 148.378659 
L 306.071429 148.832242 
L 306.923077 145.657165 
L 307.774725 143.842835 
L 308.626374 144.296418 
L 309.478022 148.378659 
L 310.32967 147.017912 
L 311.181319 151.100154 
L 312.032967 150.192989 
L 312.884615 155.635978 
L 313.736264 164.707627 
L 314.587912 170.604199 
L 315.43956 175.593606 
L 316.291209 183.304507 
L 317.142857 189.201079 
L 317.994505 199.179892 
L 319.697802 203.715716 
L 320.549451 208.251541 
L 321.401099 215.055277 
L 322.252747 219.591102 
L 323.104396 220.951849 
L 323.956044 221.859014 
L 324.807692 223.673344 
L 326.510989 222.766179 
L 327.362637 222.766179 
L 328.214286 224.126926 
L 329.065934 226.394838 
L 329.917582 226.848421 
L 330.769231 226.848421 
L 331.620879 227.302003 
L 333.324176 229.116333 
L 335.027473 231.837827 
L 335.879121 232.744992 
L 336.730769 232.744992 
L 337.582418 233.652157 
L 338.434066 234.10574 
L 339.285714 233.652157 
L 340.989011 234.559322 
L 341.840659 235.920069 
L 342.692308 236.373652 
L 344.395604 236.373652 
L 345.247253 236.827234 
L 346.098901 236.827234 
L 346.950549 237.734399 
L 347.802198 238.187982 
L 348.653846 238.187982 
L 349.505495 237.280817 
L 351.208791 236.373652 
L 352.912088 236.373652 
L 353.763736 236.827234 
L 354.615385 237.734399 
L 355.467033 239.095146 
L 356.318681 238.187982 
L 357.17033 238.187982 
L 358.021978 237.734399 
L 358.873626 236.827234 
L 359.725275 236.373652 
L 361.428571 232.744992 
L 363.983516 230.023498 
L 364.835165 230.023498 
L 365.686813 227.755586 
L 367.39011 226.848421 
L 368.241758 225.941256 
L 369.945055 225.034091 
L 370.796703 220.951849 
L 371.648352 219.137519 
L 372.5 215.962442 
L 374.203297 207.344376 
L 375.054945 205.983629 
L 375.906593 200.994222 
L 376.758242 199.179892 
L 377.60989 191.468991 
L 379.313187 184.665254 
L 380.164835 183.758089 
L 381.016484 183.304507 
L 381.868132 180.12943 
L 382.71978 177.407935 
L 383.571429 177.861518 
L 384.423077 173.325693 
L 385.274725 171.057781 
L 386.126374 170.150616 
L 386.978022 172.872111 
L 387.82967 178.3151 
L 388.681319 175.140023 
L 389.532967 175.593606 
L 391.236264 171.964946 
L 392.087912 170.604199 
L 392.93956 166.975539 
L 393.791209 168.336287 
L 394.642857 171.511364 
L 395.494505 170.604199 
L 396.346154 165.16121 
L 397.197802 163.800462 
L 398.049451 161.53255 
L 398.901099 161.986133 
L 399.752747 159.71822 
L 400.604396 158.811055 
L 401.456044 151.100154 
L 402.307692 155.182396 
L 403.159341 154.728814 
L 404.010989 151.100154 
L 404.862637 153.821649 
L 405.714286 159.71822 
L 407.417582 168.336287 
L 408.269231 163.800462 
L 409.120879 154.728814 
L 409.972527 143.842835 
L 410.824176 131.142527 
L 411.675824 122.524461 
L 412.527473 108.009823 
L 413.379121 103.927581 
L 414.230769 101.206086 
L 415.082418 100.298921 
L 415.934066 98.484592 
L 416.785714 99.845339 
L 417.637363 100.298921 
L 418.489011 102.566834 
L 420.192308 93.948767 
L 422.747253 81.702042 
L 423.598901 83.969954 
L 424.450549 92.58802 
L 425.302198 96.670262 
L 426.153846 105.288328 
L 427.005495 107.102658 
L 427.857143 107.102658 
L 428.708791 102.566834 
L 429.56044 102.113251 
L 430.412088 98.938174 
L 431.263736 98.484592 
L 432.115385 95.309515 
L 432.967033 90.77369 
L 433.818681 92.134438 
L 434.67033 93.041602 
L 435.521978 94.40235 
L 436.373626 97.577427 
L 437.225275 98.938174 
L 438.076923 104.381163 
L 438.928571 108.916988 
L 439.78022 101.206086 
L 440.631868 98.938174 
L 441.483516 98.484592 
L 442.335165 96.21668 
L 443.186813 99.845339 
L 444.038462 97.123844 
L 444.89011 106.195493 
L 445.741758 117.081471 
L 446.593407 122.524461 
L 447.445055 139.760593 
L 448.296703 153.821649 
L 449.148352 162.893297 
L 450 174.686441 
L 450 174.686441 
" style="fill:none;stroke:#b3220f;stroke-linecap:square;stroke-width:1.5;"/>
   </g>
   <g id="patch_3">
    <path d="M 62.5 262.5 
L 62.5 27 
" style="fill:none;stroke:#555555;stroke-linecap:square;stroke-linejoin:miter;"/>
   </g>
   <g id="patch_4">
    <path d="M 62.5 262.5 
L 450 262.5 
" style="fill:none;stroke:#555555;stroke-linecap:square;stroke-linejoin:miter;"/>
   </g>
   <g id="text_12">
    <!-- San Cristóbal | Casos nuevos: 2021-07-05 -->
    <g style="fill:#555555;" transform="translate(123.735625 17)scale(0.14 -0.14)">
     <defs>
      <path d="M 49.09375 50.5 
L 58.09375 50.5 
Q 57.90625 56.40625 55.84375 60.65625 
Q 53.796875 64.90625 50.25 67.703125 
Q 46.703125 70.5 42 71.796875 
Q 37.296875 73.09375 31.796875 73.09375 
Q 26.90625 73.09375 22.25 71.84375 
Q 17.59375 70.59375 13.9375 68.046875 
Q 10.296875 65.5 8.09375 61.546875 
Q 5.90625 57.59375 5.90625 52.203125 
Q 5.90625 47.296875 7.84375 44.046875 
Q 9.796875 40.796875 13.046875 38.75 
Q 16.296875 36.703125 20.390625 35.453125 
Q 24.5 34.203125 28.75 33.25 
Q 33 32.296875 37.09375 31.390625 
Q 41.203125 30.5 44.453125 29.046875 
Q 47.703125 27.59375 49.640625 25.296875 
Q 51.59375 23 51.59375 19.296875 
Q 51.59375 15.40625 50 12.90625 
Q 48.40625 10.40625 45.796875 8.953125 
Q 43.203125 7.5 39.953125 6.890625 
Q 36.703125 6.296875 33.5 6.296875 
Q 29.5 6.296875 25.703125 7.296875 
Q 21.90625 8.296875 19.046875 10.390625 
Q 16.203125 12.5 14.453125 15.75 
Q 12.703125 19 12.703125 23.5 
L 3.703125 23.5 
Q 3.703125 17 6.046875 12.25 
Q 8.40625 7.5 12.453125 4.453125 
Q 16.5 1.40625 21.84375 -0.09375 
Q 27.203125 -1.59375 33.203125 -1.59375 
Q 38.09375 -1.59375 43.046875 -0.4375 
Q 48 0.703125 52 3.25 
Q 56 5.796875 58.546875 9.84375 
Q 61.09375 13.90625 61.09375 19.59375 
Q 61.09375 24.90625 59.140625 28.40625 
Q 57.203125 31.90625 53.953125 34.203125 
Q 50.703125 36.5 46.59375 37.84375 
Q 42.5 39.203125 38.25 40.203125 
Q 34 41.203125 29.890625 42.046875 
Q 25.796875 42.90625 22.546875 44.203125 
Q 19.296875 45.5 17.34375 47.546875 
Q 15.40625 49.59375 15.40625 52.90625 
Q 15.40625 56.40625 16.75 58.75 
Q 18.09375 61.09375 20.34375 62.5 
Q 22.59375 63.90625 25.5 64.5 
Q 28.40625 65.09375 31.40625 65.09375 
Q 38.796875 65.09375 43.546875 61.640625 
Q 48.296875 58.203125 49.09375 50.5 
z
" id="HelveticaNeue-83"/>
      <path id="HelveticaNeue-32"/>
      <path d="M 58 49.90625 
L 67.5 49.90625 
Q 66.703125 55.59375 64.09375 59.9375 
Q 61.5 64.296875 57.59375 67.1875 
Q 53.703125 70.09375 48.703125 71.59375 
Q 43.703125 73.09375 38.09375 73.09375 
Q 29.90625 73.09375 23.546875 70.140625 
Q 17.203125 67.203125 12.953125 62.09375 
Q 8.703125 57 6.5 50.140625 
Q 4.296875 43.296875 4.296875 35.5 
Q 4.296875 27.703125 6.34375 20.890625 
Q 8.40625 14.09375 12.5 9.09375 
Q 16.59375 4.09375 22.796875 1.25 
Q 29 -1.59375 37.296875 -1.59375 
Q 51 -1.59375 58.890625 5.90625 
Q 66.796875 13.40625 68.203125 26.90625 
L 58.703125 26.90625 
Q 58.40625 22.5 56.90625 18.703125 
Q 55.40625 14.90625 52.75 12.15625 
Q 50.09375 9.40625 46.4375 7.84375 
Q 42.796875 6.296875 38.09375 6.296875 
Q 31.703125 6.296875 27.09375 8.6875 
Q 22.5 11.09375 19.546875 15.140625 
Q 16.59375 19.203125 15.1875 24.640625 
Q 13.796875 30.09375 13.796875 36.203125 
Q 13.796875 41.796875 15.1875 47 
Q 16.59375 52.203125 19.546875 56.25 
Q 22.5 60.296875 27.046875 62.6875 
Q 31.59375 65.09375 38 65.09375 
Q 45.5 65.09375 50.953125 61.296875 
Q 56.40625 57.5 58 49.90625 
z
" id="HelveticaNeue-67"/>
      <path d="M 15.40625 61 
L 15.40625 71.40625 
L 6.90625 71.40625 
L 6.90625 61 
z
M 6.90625 51.703125 
L 6.90625 0 
L 15.40625 0 
L 15.40625 51.703125 
z
" id="HelveticaNeue-105"/>
      <path d="M 11.59375 16.296875 
L 3.09375 16.296875 
Q 3.296875 11.5 5.09375 8.140625 
Q 6.90625 4.796875 9.90625 2.75 
Q 12.90625 0.703125 16.796875 -0.1875 
Q 20.703125 -1.09375 25 -1.09375 
Q 28.90625 -1.09375 32.84375 -0.34375 
Q 36.796875 0.40625 39.9375 2.296875 
Q 43.09375 4.203125 45.046875 7.296875 
Q 47 10.40625 47 15.09375 
Q 47 18.796875 45.546875 21.296875 
Q 44.09375 23.796875 41.75 25.4375 
Q 39.40625 27.09375 36.34375 28.09375 
Q 33.296875 29.09375 30.09375 29.796875 
Q 27.09375 30.5 24.09375 31.140625 
Q 21.09375 31.796875 18.6875 32.75 
Q 16.296875 33.703125 14.75 35.140625 
Q 13.203125 36.59375 13.203125 38.796875 
Q 13.203125 40.796875 14.203125 42.046875 
Q 15.203125 43.296875 16.796875 44.046875 
Q 18.40625 44.796875 20.34375 45.09375 
Q 22.296875 45.40625 24.203125 45.40625 
Q 26.296875 45.40625 28.34375 44.953125 
Q 30.40625 44.5 32.09375 43.5 
Q 33.796875 42.5 34.890625 40.84375 
Q 36 39.203125 36.203125 36.703125 
L 44.703125 36.703125 
Q 44.40625 41.40625 42.703125 44.546875 
Q 41 47.703125 38.140625 49.546875 
Q 35.296875 51.40625 31.59375 52.15625 
Q 27.90625 52.90625 23.5 52.90625 
Q 20.09375 52.90625 16.640625 52.046875 
Q 13.203125 51.203125 10.453125 49.453125 
Q 7.703125 47.703125 5.953125 44.890625 
Q 4.203125 42.09375 4.203125 38.203125 
Q 4.203125 33.203125 6.703125 30.390625 
Q 9.203125 27.59375 12.953125 26.046875 
Q 16.703125 24.5 21.09375 23.640625 
Q 25.5 22.796875 29.25 21.75 
Q 33 20.703125 35.5 19 
Q 38 17.296875 38 14 
Q 38 11.59375 36.796875 10.046875 
Q 35.59375 8.5 33.75 7.703125 
Q 31.90625 6.90625 29.703125 6.59375 
Q 27.5 6.296875 25.5 6.296875 
Q 22.90625 6.296875 20.453125 6.796875 
Q 18 7.296875 16.046875 8.4375 
Q 14.09375 9.59375 12.890625 11.546875 
Q 11.703125 13.5 11.59375 16.296875 
z
" id="HelveticaNeue-115"/>
      <path d="M 12.59375 25.796875 
Q 12.59375 30.5 13.84375 34.140625 
Q 15.09375 37.796875 17.296875 40.296875 
Q 19.5 42.796875 22.453125 44.09375 
Q 25.40625 45.40625 28.703125 45.40625 
Q 32 45.40625 34.953125 44.09375 
Q 37.90625 42.796875 40.09375 40.296875 
Q 42.296875 37.796875 43.546875 34.140625 
Q 44.796875 30.5 44.796875 25.796875 
Q 44.796875 21.09375 43.546875 17.4375 
Q 42.296875 13.796875 40.09375 11.34375 
Q 37.90625 8.90625 34.953125 7.59375 
Q 32 6.296875 28.703125 6.296875 
Q 25.40625 6.296875 22.453125 7.59375 
Q 19.5 8.90625 17.296875 11.34375 
Q 15.09375 13.796875 13.84375 17.4375 
Q 12.59375 21.09375 12.59375 25.796875 
z
M 3.59375 25.796875 
Q 3.59375 20.09375 5.1875 15.1875 
Q 6.796875 10.296875 10 6.640625 
Q 13.203125 3 17.890625 0.953125 
Q 22.59375 -1.09375 28.703125 -1.09375 
Q 34.90625 -1.09375 39.546875 0.953125 
Q 44.203125 3 47.390625 6.640625 
Q 50.59375 10.296875 52.1875 15.1875 
Q 53.796875 20.09375 53.796875 25.796875 
Q 53.796875 31.5 52.1875 36.453125 
Q 50.59375 41.40625 47.390625 45.046875 
Q 44.203125 48.703125 39.546875 50.796875 
Q 34.90625 52.90625 28.703125 52.90625 
Q 22.59375 52.90625 17.890625 50.796875 
Q 13.203125 48.703125 10 45.046875 
Q 6.796875 41.40625 5.1875 36.453125 
Q 3.59375 31.5 3.59375 25.796875 
z
M 42.5 77 
L 28.40625 60.796875 
L 22 60.796875 
L 31.59375 77 
z
" id="HelveticaNeue-243"/>
      <path d="M 6.703125 71.40625 
L 6.703125 0 
L 15.203125 0 
L 15.203125 6.90625 
L 15.40625 6.90625 
Q 16.796875 4.59375 18.84375 3.046875 
Q 20.90625 1.5 23.203125 0.59375 
Q 25.5 -0.296875 27.84375 -0.6875 
Q 30.203125 -1.09375 32.09375 -1.09375 
Q 38 -1.09375 42.453125 1 
Q 46.90625 3.09375 49.84375 6.75 
Q 52.796875 10.40625 54.25 15.296875 
Q 55.703125 20.203125 55.703125 25.703125 
Q 55.703125 31.203125 54.203125 36.09375 
Q 52.703125 41 49.75 44.75 
Q 46.796875 48.5 42.34375 50.703125 
Q 37.90625 52.90625 31.90625 52.90625 
Q 26.5 52.90625 22 50.953125 
Q 17.5 49 15.40625 44.703125 
L 15.203125 44.703125 
L 15.203125 71.40625 
z
M 46.703125 26.296875 
Q 46.703125 22.5 45.890625 18.890625 
Q 45.09375 15.296875 43.296875 12.5 
Q 41.5 9.703125 38.546875 8 
Q 35.59375 6.296875 31.203125 6.296875 
Q 26.796875 6.296875 23.6875 7.9375 
Q 20.59375 9.59375 18.640625 12.296875 
Q 16.703125 15 15.796875 18.546875 
Q 14.90625 22.09375 14.90625 25.90625 
Q 14.90625 29.5 15.75 33 
Q 16.59375 36.5 18.5 39.25 
Q 20.40625 42 23.40625 43.703125 
Q 26.40625 45.40625 30.703125 45.40625 
Q 34.796875 45.40625 37.84375 43.796875 
Q 40.90625 42.203125 42.84375 39.5 
Q 44.796875 36.796875 45.75 33.34375 
Q 46.703125 29.90625 46.703125 26.296875 
z
" id="HelveticaNeue-98"/>
      <path d="M 7.703125 78.59375 
L 7.703125 -21.296875 
L 14.5 -21.296875 
L 14.5 78.59375 
z
" id="HelveticaNeue-124"/>
      <path d="M 12.59375 25.796875 
Q 12.59375 30.5 13.84375 34.140625 
Q 15.09375 37.796875 17.296875 40.296875 
Q 19.5 42.796875 22.453125 44.09375 
Q 25.40625 45.40625 28.703125 45.40625 
Q 32 45.40625 34.953125 44.09375 
Q 37.90625 42.796875 40.09375 40.296875 
Q 42.296875 37.796875 43.546875 34.140625 
Q 44.796875 30.5 44.796875 25.796875 
Q 44.796875 21.09375 43.546875 17.4375 
Q 42.296875 13.796875 40.09375 11.34375 
Q 37.90625 8.90625 34.953125 7.59375 
Q 32 6.296875 28.703125 6.296875 
Q 25.40625 6.296875 22.453125 7.59375 
Q 19.5 8.90625 17.296875 11.34375 
Q 15.09375 13.796875 13.84375 17.4375 
Q 12.59375 21.09375 12.59375 25.796875 
z
M 3.59375 25.796875 
Q 3.59375 20.09375 5.1875 15.1875 
Q 6.796875 10.296875 10 6.640625 
Q 13.203125 3 17.890625 0.953125 
Q 22.59375 -1.09375 28.703125 -1.09375 
Q 34.90625 -1.09375 39.546875 0.953125 
Q 44.203125 3 47.390625 6.640625 
Q 50.59375 10.296875 52.1875 15.1875 
Q 53.796875 20.09375 53.796875 25.796875 
Q 53.796875 31.5 52.1875 36.453125 
Q 50.59375 41.40625 47.390625 45.046875 
Q 44.203125 48.703125 39.546875 50.796875 
Q 34.90625 52.90625 28.703125 52.90625 
Q 22.59375 52.90625 17.890625 50.796875 
Q 13.203125 48.703125 10 45.046875 
Q 6.796875 41.40625 5.1875 36.453125 
Q 3.59375 31.5 3.59375 25.796875 
z
" id="HelveticaNeue-111"/>
      <path d="M 29.703125 0 
L 48.59375 51.703125 
L 39.703125 51.703125 
L 25.59375 8.59375 
L 25.40625 8.59375 
L 10.90625 51.703125 
L 1.40625 51.703125 
L 20.59375 0 
z
" id="HelveticaNeue-118"/>
      <path d="M 19.40625 40.59375 
L 19.40625 51.703125 
L 8.296875 51.703125 
L 8.296875 40.59375 
z
M 8.296875 11.09375 
L 8.296875 0 
L 19.40625 0 
L 19.40625 11.09375 
z
" id="HelveticaNeue-58"/>
      <path d="M 5 31.796875 
L 5 23.796875 
L 33.90625 23.796875 
L 33.90625 31.796875 
z
" id="HelveticaNeue-45"/>
      <path d="M 50.90625 62.40625 
L 50.90625 69.703125 
L 5 69.703125 
L 5 61.703125 
L 42.203125 61.703125 
Q 36.59375 55.796875 31.75 48.796875 
Q 26.90625 41.796875 23.203125 33.9375 
Q 19.5 26.09375 17.140625 17.546875 
Q 14.796875 9 14.203125 0 
L 23.703125 0 
Q 24.203125 8.296875 26.5 17.09375 
Q 28.796875 25.90625 32.4375 34.203125 
Q 36.09375 42.5 40.796875 49.796875 
Q 45.5 57.09375 50.90625 62.40625 
z
" id="HelveticaNeue-55"/>
      <path d="M 47 62.203125 
L 47 69.703125 
L 12 69.703125 
L 5.40625 32.90625 
L 12.703125 32.5 
Q 15.203125 35.5 18.453125 37.34375 
Q 21.703125 39.203125 25.90625 39.203125 
Q 29.5 39.203125 32.453125 38 
Q 35.40625 36.796875 37.5 34.640625 
Q 39.59375 32.5 40.75 29.546875 
Q 41.90625 26.59375 41.90625 23.09375 
Q 41.90625 18.90625 40.703125 15.75 
Q 39.5 12.59375 37.453125 10.5 
Q 35.40625 8.40625 32.65625 7.34375 
Q 29.90625 6.296875 26.90625 6.296875 
Q 23.703125 6.296875 21.046875 7.25 
Q 18.40625 8.203125 16.453125 9.953125 
Q 14.5 11.703125 13.34375 14.046875 
Q 12.203125 16.40625 12 19.09375 
L 3.5 19.09375 
Q 3.59375 14.296875 5.390625 10.5 
Q 7.203125 6.703125 10.296875 4.140625 
Q 13.40625 1.59375 17.453125 0.25 
Q 21.5 -1.09375 26.09375 -1.09375 
Q 32.296875 -1.09375 36.9375 0.84375 
Q 41.59375 2.796875 44.6875 6.09375 
Q 47.796875 9.40625 49.34375 13.65625 
Q 50.90625 17.90625 50.90625 22.40625 
Q 50.90625 28.5 49.09375 33.046875 
Q 47.296875 37.59375 44.1875 40.640625 
Q 41.09375 43.703125 36.890625 45.203125 
Q 32.703125 46.703125 28 46.703125 
Q 24.40625 46.703125 20.75 45.453125 
Q 17.09375 44.203125 14.796875 41.59375 
L 14.59375 41.796875 
L 18.40625 62.203125 
z
" id="HelveticaNeue-53"/>
     </defs>
     <use xlink:href="#HelveticaNeue-83"/>
     <use x="64.799988" xlink:href="#HelveticaNeue-97"/>
     <use x="118.499985" xlink:href="#HelveticaNeue-110"/>
     <use x="174.099976" xlink:href="#HelveticaNeue-32"/>
     <use x="201.899963" xlink:href="#HelveticaNeue-67"/>
     <use x="274.099945" xlink:href="#HelveticaNeue-114"/>
     <use x="307.399933" xlink:href="#HelveticaNeue-105"/>
     <use x="329.59993" xlink:href="#HelveticaNeue-115"/>
     <use x="379.599915" xlink:href="#HelveticaNeue-116"/>
     <use x="411.099899" xlink:href="#HelveticaNeue-243"/>
     <use x="468.499893" xlink:href="#HelveticaNeue-98"/>
     <use x="527.799881" xlink:href="#HelveticaNeue-97"/>
     <use x="581.499878" xlink:href="#HelveticaNeue-108"/>
     <use x="603.699875" xlink:href="#HelveticaNeue-32"/>
     <use x="631.499863" xlink:href="#HelveticaNeue-124"/>
     <use x="653.69986" xlink:href="#HelveticaNeue-32"/>
     <use x="681.499847" xlink:href="#HelveticaNeue-67"/>
     <use x="753.699829" xlink:href="#HelveticaNeue-97"/>
     <use x="807.399826" xlink:href="#HelveticaNeue-115"/>
     <use x="857.399811" xlink:href="#HelveticaNeue-111"/>
     <use x="914.799805" xlink:href="#HelveticaNeue-115"/>
     <use x="964.799789" xlink:href="#HelveticaNeue-32"/>
     <use x="992.599777" xlink:href="#HelveticaNeue-110"/>
     <use x="1048.199768" xlink:href="#HelveticaNeue-117"/>
     <use x="1103.799759" xlink:href="#HelveticaNeue-101"/>
     <use x="1157.499756" xlink:href="#HelveticaNeue-118"/>
     <use x="1207.499741" xlink:href="#HelveticaNeue-111"/>
     <use x="1264.899734" xlink:href="#HelveticaNeue-115"/>
     <use x="1314.899719" xlink:href="#HelveticaNeue-58"/>
     <use x="1342.699707" xlink:href="#HelveticaNeue-32"/>
     <use x="1370.499695" xlink:href="#HelveticaNeue-50"/>
     <use x="1426.099686" xlink:href="#HelveticaNeue-48"/>
     <use x="1481.699677" xlink:href="#HelveticaNeue-50"/>
     <use x="1537.299667" xlink:href="#HelveticaNeue-49"/>
     <use x="1592.899658" xlink:href="#HelveticaNeue-45"/>
     <use x="1631.799652" xlink:href="#HelveticaNeue-48"/>
     <use x="1687.399643" xlink:href="#HelveticaNeue-55"/>
     <use x="1742.999634" xlink:href="#HelveticaNeue-45"/>
     <use x="1781.899628" xlink:href="#HelveticaNeue-48"/>
     <use x="1837.499619" xlink:href="#HelveticaNeue-53"/>
    </g>
   </g>
   <g id="legend_1">
    <g id="line2d_25">
     <path d="M 71.5 39.640625 
L 91.5 39.640625 
" style="fill:none;stroke:#000000;stroke-dasharray:1.5,2.475;stroke-dashoffset:0;stroke-opacity:0.5;stroke-width:1.5;"/>
    </g>
    <g id="line2d_26"/>
    <g id="text_13">
     <!-- Actual -->
     <g style="fill:#555555;" transform="translate(99.5 43.140625)scale(0.1 -0.1)">
      <use xlink:href="#HelveticaNeue-65"/>
      <use x="64.799988" xlink:href="#HelveticaNeue-99"/>
      <use x="118.499985" xlink:href="#HelveticaNeue-116"/>
      <use x="149.999969" xlink:href="#HelveticaNeue-117"/>
      <use x="205.59996" xlink:href="#HelveticaNeue-97"/>
      <use x="259.299957" xlink:href="#HelveticaNeue-108"/>
     </g>
    </g>
    <g id="line2d_27">
     <path d="M 71.5 54.310937 
L 91.5 54.310937 
" style="fill:none;stroke:#b3220f;stroke-linecap:square;stroke-width:1.5;"/>
    </g>
    <g id="line2d_28"/>
    <g id="text_14">
     <!-- Promedio semanal (7 días)  -->
     <g style="fill:#555555;" transform="translate(99.5 57.810937)scale(0.1 -0.1)">
      <defs>
       <path d="M 17.296875 37.203125 
L 17.296875 63.40625 
L 35.90625 63.40625 
Q 44 63.40625 47.75 60.046875 
Q 51.5 56.703125 51.5 50.296875 
Q 51.5 43.90625 47.75 40.5 
Q 44 37.09375 35.90625 37.203125 
z
M 7.796875 71.40625 
L 7.796875 0 
L 17.296875 0 
L 17.296875 29.203125 
L 39.09375 29.203125 
Q 49.90625 29.09375 55.453125 34.6875 
Q 61 40.296875 61 50.296875 
Q 61 60.296875 55.453125 65.84375 
Q 49.90625 71.40625 39.09375 71.40625 
z
" id="HelveticaNeue-80"/>
       <path d="M 6.40625 51.703125 
L 6.40625 0 
L 14.90625 0 
L 14.90625 32.203125 
Q 14.90625 33.703125 15.65625 35.953125 
Q 16.40625 38.203125 18.046875 40.296875 
Q 19.703125 42.40625 22.34375 43.90625 
Q 25 45.40625 28.703125 45.40625 
Q 31.59375 45.40625 33.4375 44.546875 
Q 35.296875 43.703125 36.390625 42.140625 
Q 37.5 40.59375 37.953125 38.5 
Q 38.40625 36.40625 38.40625 33.90625 
L 38.40625 0 
L 46.90625 0 
L 46.90625 32.203125 
Q 46.90625 38.203125 50.5 41.796875 
Q 54.09375 45.40625 60.40625 45.40625 
Q 63.5 45.40625 65.453125 44.5 
Q 67.40625 43.59375 68.5 42.046875 
Q 69.59375 40.5 70 38.390625 
Q 70.40625 36.296875 70.40625 33.90625 
L 70.40625 0 
L 78.90625 0 
L 78.90625 37.90625 
Q 78.90625 41.90625 77.65625 44.75 
Q 76.40625 47.59375 74.15625 49.390625 
Q 71.90625 51.203125 68.75 52.046875 
Q 65.59375 52.90625 61.703125 52.90625 
Q 56.59375 52.90625 52.34375 50.59375 
Q 48.09375 48.296875 45.5 44.09375 
Q 43.90625 48.90625 40 50.90625 
Q 36.09375 52.90625 31.296875 52.90625 
Q 20.40625 52.90625 14.59375 44.09375 
L 14.40625 44.09375 
L 14.40625 51.703125 
z
" id="HelveticaNeue-109"/>
       <path d="M 12.59375 25.40625 
Q 12.59375 29.203125 13.390625 32.796875 
Q 14.203125 36.40625 16 39.203125 
Q 17.796875 42 20.796875 43.703125 
Q 23.796875 45.40625 28.09375 45.40625 
Q 32.5 45.40625 35.59375 43.75 
Q 38.703125 42.09375 40.640625 39.390625 
Q 42.59375 36.703125 43.5 33.140625 
Q 44.40625 29.59375 44.40625 25.796875 
Q 44.40625 22.203125 43.546875 18.703125 
Q 42.703125 15.203125 40.796875 12.453125 
Q 38.90625 9.703125 35.90625 8 
Q 32.90625 6.296875 28.59375 6.296875 
Q 24.5 6.296875 21.453125 7.890625 
Q 18.40625 9.5 16.453125 12.203125 
Q 14.5 14.90625 13.546875 18.34375 
Q 12.59375 21.796875 12.59375 25.40625 
z
M 52.59375 0 
L 52.59375 71.40625 
L 44.09375 71.40625 
L 44.09375 44.796875 
L 43.90625 44.796875 
Q 42.5 47.09375 40.453125 48.640625 
Q 38.40625 50.203125 36.09375 51.140625 
Q 33.796875 52.09375 31.5 52.5 
Q 29.203125 52.90625 27.203125 52.90625 
Q 21.296875 52.90625 16.84375 50.75 
Q 12.40625 48.59375 9.453125 44.9375 
Q 6.5 41.296875 5.046875 36.390625 
Q 3.59375 31.5 3.59375 26 
Q 3.59375 20.5 5.09375 15.59375 
Q 6.59375 10.703125 9.546875 7 
Q 12.5 3.296875 16.953125 1.09375 
Q 21.40625 -1.09375 27.40625 -1.09375 
Q 32.796875 -1.09375 37.296875 0.796875 
Q 41.796875 2.703125 43.90625 7 
L 44.09375 7 
L 44.09375 0 
z
" id="HelveticaNeue-100"/>
       <path d="M 20.40625 -19.703125 
L 26.90625 -19.703125 
Q 19.796875 -8.203125 16.75 3.09375 
Q 13.703125 14.40625 13.703125 27 
Q 13.703125 39.296875 16.703125 50.5 
Q 19.703125 61.703125 26.90625 73.09375 
L 20.40625 73.09375 
Q 12.59375 62.796875 8.640625 50.796875 
Q 4.703125 38.796875 4.703125 27 
Q 4.703125 20.40625 5.796875 14.40625 
Q 6.90625 8.40625 8.953125 2.703125 
Q 11 -3 13.890625 -8.546875 
Q 16.796875 -14.09375 20.40625 -19.703125 
z
" id="HelveticaNeue-40"/>
       <path d="M 6.90625 0 
L 15.40625 0 
L 15.40625 51.703125 
L 6.90625 51.703125 
z
M 25.5 77 
L 11.40625 60.796875 
L 5 60.796875 
L 14.59375 77 
z
" id="HelveticaNeue-237"/>
       <path d="M -0.90625 -19.703125 
L 5.5 -19.703125 
Q 13.296875 -9.40625 17.25 2.546875 
Q 21.203125 14.5 21.203125 26.296875 
Q 21.203125 32.90625 20.09375 38.90625 
Q 19 44.90625 16.953125 50.65625 
Q 14.90625 56.40625 12 61.953125 
Q 9.09375 67.5 5.5 73.09375 
L -0.90625 73.09375 
Q 6.09375 61.59375 9.140625 50.25 
Q 12.203125 38.90625 12.203125 26.296875 
Q 12.203125 14.09375 9.203125 2.84375 
Q 6.203125 -8.40625 -0.90625 -19.703125 
z
" id="HelveticaNeue-41"/>
      </defs>
      <use xlink:href="#HelveticaNeue-80"/>
      <use x="64.799988" xlink:href="#HelveticaNeue-114"/>
      <use x="96.349976" xlink:href="#HelveticaNeue-111"/>
      <use x="153.749969" xlink:href="#HelveticaNeue-109"/>
      <use x="239.049957" xlink:href="#HelveticaNeue-101"/>
      <use x="292.749954" xlink:href="#HelveticaNeue-100"/>
      <use x="352.049942" xlink:href="#HelveticaNeue-105"/>
      <use x="374.249939" xlink:href="#HelveticaNeue-111"/>
      <use x="431.649933" xlink:href="#HelveticaNeue-32"/>
      <use x="459.449921" xlink:href="#HelveticaNeue-115"/>
      <use x="509.449905" xlink:href="#HelveticaNeue-101"/>
      <use x="563.149902" xlink:href="#HelveticaNeue-109"/>
      <use x="648.44989" xlink:href="#HelveticaNeue-97"/>
      <use x="702.149887" xlink:href="#HelveticaNeue-110"/>
      <use x="757.749878" xlink:href="#HelveticaNeue-97"/>
      <use x="811.449875" xlink:href="#HelveticaNeue-108"/>
      <use x="833.649872" xlink:href="#HelveticaNeue-32"/>
      <use x="861.44986" xlink:href="#HelveticaNeue-40"/>
      <use x="887.349854" xlink:href="#HelveticaNeue-55"/>
      <use x="942.949844" xlink:href="#HelveticaNeue-32"/>
      <use x="970.749832" xlink:href="#HelveticaNeue-100"/>
      <use x="1030.04982" xlink:href="#HelveticaNeue-237"/>
      <use x="1052.249817" xlink:href="#HelveticaNeue-97"/>
      <use x="1105.949814" xlink:href="#HelveticaNeue-115"/>
      <use x="1155.949799" xlink:href="#HelveticaNeue-41"/>
      <use x="1181.849792" xlink:href="#HelveticaNeue-32"/>
     </g>
    </g>
   </g>
  </g>
 </g>
 <defs>
  <clipPath id="p3af663d969">
   <rect height="235.5" width="387.5" x="62.5" y="27"/>
  </clipPath>
 </defs>
</svg>
