<?xml version="1.0" encoding="utf-8" standalone="no"?>
<!DOCTYPE svg PUBLIC "-//W3C//DTD SVG 1.1//EN"
  "http://www.w3.org/Graphics/SVG/1.1/DTD/svg11.dtd">
<!-- Created with matplotlib (https://matplotlib.org/) -->
<svg height="300pt" version="1.1" viewBox="0 0 500 300" width="500pt" xmlns="http://www.w3.org/2000/svg" xmlns:xlink="http://www.w3.org/1999/xlink">
 <metadata>
  <rdf:RDF xmlns:cc="http://creativecommons.org/ns#" xmlns:dc="http://purl.org/dc/elements/1.1/" xmlns:rdf="http://www.w3.org/1999/02/22-rdf-syntax-ns#">
   <cc:Work>
    <dc:type rdf:resource="http://purl.org/dc/dcmitype/StillImage"/>
    <dc:date>2021-06-26T23:23:42.804657</dc:date>
    <dc:format>image/svg+xml</dc:format>
    <dc:creator>
     <cc:Agent>
      <dc:title>Matplotlib v3.3.4, https://matplotlib.org/</dc:title>
     </cc:Agent>
    </dc:creator>
   </cc:Work>
  </rdf:RDF>
 </metadata>
 <defs>
  <style type="text/css">*{stroke-linecap:butt;stroke-linejoin:round;}</style>
 </defs>
 <g id="figure_1">
  <g id="patch_1">
   <path d="M 0 300 
L 500 300 
L 500 0 
L 0 0 
z
" style="fill:#ffffff;"/>
  </g>
  <g id="axes_1">
   <g id="patch_2">
    <path d="M 62.5 262.5 
L 450 262.5 
L 450 27 
L 62.5 27 
z
" style="fill:#ffffff;"/>
   </g>
   <g id="matplotlib.axis_1">
    <g id="xtick_1">
     <g id="line2d_1">
      <defs>
       <path d="M 0 0 
L 0 3.5 
" id="m86cd9daad4" style="stroke:#555555;stroke-width:0.8;"/>
      </defs>
      <g>
       <use style="fill:#555555;stroke:#555555;stroke-width:0.8;" x="62.5" xlink:href="#m86cd9daad4" y="262.5"/>
      </g>
     </g>
    </g>
    <g id="xtick_2">
     <g id="line2d_2">
      <g>
       <use style="fill:#555555;stroke:#555555;stroke-width:0.8;" x="137.556306" xlink:href="#m86cd9daad4" y="262.5"/>
      </g>
     </g>
     <g id="text_1">
      <!-- Jul -->
      <g style="fill:#555555;" transform="translate(131.07115 276.640625)scale(0.1 -0.1)">
       <defs>
        <path d="M 44.09375 17.796875 
L 44.09375 71.40625 
L 34.59375 71.40625 
L 34.59375 19.203125 
Q 34.59375 13.296875 32.140625 9.796875 
Q 29.703125 6.296875 23.203125 6.296875 
Q 19.703125 6.296875 17.453125 7.34375 
Q 15.203125 8.40625 13.953125 10.296875 
Q 12.703125 12.203125 12.203125 14.796875 
Q 11.703125 17.40625 11.703125 20.5 
L 11.703125 23.5 
L 2.203125 23.5 
L 2.203125 19.09375 
Q 2.203125 8.90625 7.59375 3.65625 
Q 13 -1.59375 23 -1.59375 
Q 29 -1.59375 33.046875 0.046875 
Q 37.09375 1.703125 39.546875 4.453125 
Q 42 7.203125 43.046875 10.703125 
Q 44.09375 14.203125 44.09375 17.796875 
z
" id="HelveticaNeue-74"/>
        <path d="M 49.203125 0 
L 49.203125 51.703125 
L 40.703125 51.703125 
L 40.703125 22.5 
Q 40.703125 19 39.75 16.046875 
Q 38.796875 13.09375 36.890625 10.890625 
Q 35 8.703125 32.140625 7.5 
Q 29.296875 6.296875 25.40625 6.296875 
Q 20.5 6.296875 17.703125 9.09375 
Q 14.90625 11.90625 14.90625 16.703125 
L 14.90625 51.703125 
L 6.40625 51.703125 
L 6.40625 17.703125 
Q 6.40625 13.5 7.25 10.046875 
Q 8.09375 6.59375 10.1875 4.09375 
Q 12.296875 1.59375 15.6875 0.25 
Q 19.09375 -1.09375 24.203125 -1.09375 
Q 29.90625 -1.09375 34.09375 1.15625 
Q 38.296875 3.40625 41 8.203125 
L 41.203125 8.203125 
L 41.203125 0 
z
" id="HelveticaNeue-117"/>
        <path d="M 6.90625 71.40625 
L 6.90625 0 
L 15.40625 0 
L 15.40625 71.40625 
z
" id="HelveticaNeue-108"/>
       </defs>
       <use xlink:href="#HelveticaNeue-74"/>
       <use x="51.899994" xlink:href="#HelveticaNeue-117"/>
       <use x="107.499985" xlink:href="#HelveticaNeue-108"/>
      </g>
     </g>
    </g>
    <g id="xtick_3">
     <g id="line2d_3">
      <g>
       <use style="fill:#555555;stroke:#555555;stroke-width:0.8;" x="217.849099" xlink:href="#m86cd9daad4" y="262.5"/>
      </g>
     </g>
     <g id="text_2">
      <!-- Oct -->
      <g style="fill:#555555;" transform="translate(209.788943 276.640625)scale(0.1 -0.1)">
       <defs>
        <path d="M 13.296875 35.703125 
Q 13.296875 41.09375 14.6875 46.34375 
Q 16.09375 51.59375 19.09375 55.796875 
Q 22.09375 60 26.796875 62.546875 
Q 31.5 65.09375 38 65.09375 
Q 44.5 65.09375 49.203125 62.546875 
Q 53.90625 60 56.90625 55.796875 
Q 59.90625 51.59375 61.296875 46.34375 
Q 62.703125 41.09375 62.703125 35.703125 
Q 62.703125 30.296875 61.296875 25.046875 
Q 59.90625 19.796875 56.90625 15.59375 
Q 53.90625 11.40625 49.203125 8.84375 
Q 44.5 6.296875 38 6.296875 
Q 31.5 6.296875 26.796875 8.84375 
Q 22.09375 11.40625 19.09375 15.59375 
Q 16.09375 19.796875 14.6875 25.046875 
Q 13.296875 30.296875 13.296875 35.703125 
z
M 3.796875 35.703125 
Q 3.796875 28.40625 5.9375 21.65625 
Q 8.09375 14.90625 12.390625 9.703125 
Q 16.703125 4.5 23.09375 1.453125 
Q 29.5 -1.59375 38 -1.59375 
Q 46.5 -1.59375 52.890625 1.453125 
Q 59.296875 4.5 63.59375 9.703125 
Q 67.90625 14.90625 70.046875 21.65625 
Q 72.203125 28.40625 72.203125 35.703125 
Q 72.203125 43 70.046875 49.75 
Q 67.90625 56.5 63.59375 61.703125 
Q 59.296875 66.90625 52.890625 70 
Q 46.5 73.09375 38 73.09375 
Q 29.5 73.09375 23.09375 70 
Q 16.703125 66.90625 12.390625 61.703125 
Q 8.09375 56.5 5.9375 49.75 
Q 3.796875 43 3.796875 35.703125 
z
" id="HelveticaNeue-79"/>
        <path d="M 41.5 35.09375 
L 50.296875 35.09375 
Q 49.796875 39.703125 47.890625 43.046875 
Q 46 46.40625 43.046875 48.59375 
Q 40.09375 50.796875 36.25 51.84375 
Q 32.40625 52.90625 28 52.90625 
Q 21.90625 52.90625 17.296875 50.75 
Q 12.703125 48.59375 9.640625 44.84375 
Q 6.59375 41.09375 5.09375 36.046875 
Q 3.59375 31 3.59375 25.203125 
Q 3.59375 19.40625 5.140625 14.546875 
Q 6.703125 9.703125 9.75 6.203125 
Q 12.796875 2.703125 17.34375 0.796875 
Q 21.90625 -1.09375 27.796875 -1.09375 
Q 37.703125 -1.09375 43.453125 4.09375 
Q 49.203125 9.296875 50.59375 18.90625 
L 41.90625 18.90625 
Q 41.09375 12.90625 37.546875 9.59375 
Q 34 6.296875 27.703125 6.296875 
Q 23.703125 6.296875 20.796875 7.890625 
Q 17.90625 9.5 16.09375 12.140625 
Q 14.296875 14.796875 13.4375 18.1875 
Q 12.59375 21.59375 12.59375 25.203125 
Q 12.59375 29.09375 13.390625 32.75 
Q 14.203125 36.40625 16.046875 39.203125 
Q 17.90625 42 21 43.703125 
Q 24.09375 45.40625 28.703125 45.40625 
Q 34.09375 45.40625 37.296875 42.703125 
Q 40.5 40 41.5 35.09375 
z
" id="HelveticaNeue-99"/>
        <path d="M 18.203125 51.703125 
L 18.203125 67.203125 
L 9.703125 67.203125 
L 9.703125 51.703125 
L 0.90625 51.703125 
L 0.90625 44.203125 
L 9.703125 44.203125 
L 9.703125 11.296875 
Q 9.703125 7.703125 10.390625 5.5 
Q 11.09375 3.296875 12.546875 2.09375 
Q 14 0.90625 16.34375 0.453125 
Q 18.703125 0 22 0 
L 28.5 0 
L 28.5 7.5 
L 24.59375 7.5 
Q 22.59375 7.5 21.34375 7.640625 
Q 20.09375 7.796875 19.390625 8.296875 
Q 18.703125 8.796875 18.453125 9.6875 
Q 18.203125 10.59375 18.203125 12.09375 
L 18.203125 44.203125 
L 28.5 44.203125 
L 28.5 51.703125 
z
" id="HelveticaNeue-116"/>
       </defs>
       <use xlink:href="#HelveticaNeue-79"/>
       <use x="75.999985" xlink:href="#HelveticaNeue-99"/>
       <use x="129.699982" xlink:href="#HelveticaNeue-116"/>
      </g>
     </g>
    </g>
    <g id="xtick_4">
     <g id="line2d_4">
      <g>
       <use style="fill:#555555;stroke:#555555;stroke-width:0.8;" x="298.141892" xlink:href="#m86cd9daad4" y="262.5"/>
      </g>
     </g>
     <g id="text_3">
      <!-- Jan -->
      <g style="fill:#555555;" transform="translate(290.081736 276.640625)scale(0.1 -0.1)">
       <defs>
        <path d="M 52.203125 0.203125 
Q 50 -1.09375 46.09375 -1.09375 
Q 42.796875 -1.09375 40.84375 0.75 
Q 38.90625 2.59375 38.90625 6.796875 
Q 35.40625 2.59375 30.75 0.75 
Q 26.09375 -1.09375 20.703125 -1.09375 
Q 17.203125 -1.09375 14.046875 -0.296875 
Q 10.90625 0.5 8.59375 2.203125 
Q 6.296875 3.90625 4.9375 6.65625 
Q 3.59375 9.40625 3.59375 13.296875 
Q 3.59375 17.703125 5.09375 20.5 
Q 6.59375 23.296875 9.046875 25.046875 
Q 11.5 26.796875 14.640625 27.6875 
Q 17.796875 28.59375 21.09375 29.203125 
Q 24.59375 29.90625 27.75 30.25 
Q 30.90625 30.59375 33.296875 31.25 
Q 35.703125 31.90625 37.09375 33.15625 
Q 38.5 34.40625 38.5 36.796875 
Q 38.5 39.59375 37.453125 41.296875 
Q 36.40625 43 34.75 43.890625 
Q 33.09375 44.796875 31.046875 45.09375 
Q 29 45.40625 27 45.40625 
Q 21.59375 45.40625 18 43.34375 
Q 14.40625 41.296875 14.09375 35.59375 
L 5.59375 35.59375 
Q 5.796875 40.40625 7.59375 43.703125 
Q 9.40625 47 12.40625 49.046875 
Q 15.40625 51.09375 19.25 52 
Q 23.09375 52.90625 27.5 52.90625 
Q 31 52.90625 34.453125 52.40625 
Q 37.90625 51.90625 40.703125 50.34375 
Q 43.5 48.796875 45.203125 46 
Q 46.90625 43.203125 46.90625 38.703125 
L 46.90625 12.09375 
Q 46.90625 9.09375 47.25 7.6875 
Q 47.59375 6.296875 49.59375 6.296875 
Q 50.703125 6.296875 52.203125 6.796875 
z
M 38.40625 26.703125 
Q 36.796875 25.5 34.1875 24.953125 
Q 31.59375 24.40625 28.75 24.046875 
Q 25.90625 23.703125 23 23.25 
Q 20.09375 22.796875 17.796875 21.796875 
Q 15.5 20.796875 14.046875 18.9375 
Q 12.59375 17.09375 12.59375 13.90625 
Q 12.59375 11.796875 13.4375 10.34375 
Q 14.296875 8.90625 15.640625 8 
Q 17 7.09375 18.796875 6.6875 
Q 20.59375 6.296875 22.59375 6.296875 
Q 26.796875 6.296875 29.796875 7.4375 
Q 32.796875 8.59375 34.6875 10.34375 
Q 36.59375 12.09375 37.5 14.140625 
Q 38.40625 16.203125 38.40625 18 
z
" id="HelveticaNeue-97"/>
        <path d="M 6.40625 51.703125 
L 6.40625 0 
L 14.90625 0 
L 14.90625 29.203125 
Q 14.90625 32.703125 15.84375 35.640625 
Q 16.796875 38.59375 18.6875 40.796875 
Q 20.59375 43 23.4375 44.203125 
Q 26.296875 45.40625 30.203125 45.40625 
Q 35.09375 45.40625 37.890625 42.59375 
Q 40.703125 39.796875 40.703125 35 
L 40.703125 0 
L 49.203125 0 
L 49.203125 34 
Q 49.203125 38.203125 48.34375 41.640625 
Q 47.5 45.09375 45.390625 47.59375 
Q 43.296875 50.09375 39.890625 51.5 
Q 36.5 52.90625 31.40625 52.90625 
Q 19.90625 52.90625 14.59375 43.5 
L 14.40625 43.5 
L 14.40625 51.703125 
z
" id="HelveticaNeue-110"/>
       </defs>
       <use xlink:href="#HelveticaNeue-74"/>
       <use x="51.899994" xlink:href="#HelveticaNeue-97"/>
       <use x="105.599991" xlink:href="#HelveticaNeue-110"/>
      </g>
      <!-- 2021 -->
      <g style="fill:#555555;" transform="translate(287.023142 287.179688)scale(0.1 -0.1)">
       <defs>
        <path d="M 4.40625 45.796875 
L 12.90625 45.796875 
Q 12.796875 49 13.546875 52.140625 
Q 14.296875 55.296875 16 57.796875 
Q 17.703125 60.296875 20.34375 61.84375 
Q 23 63.40625 26.703125 63.40625 
Q 29.5 63.40625 32 62.5 
Q 34.5 61.59375 36.34375 59.890625 
Q 38.203125 58.203125 39.296875 55.84375 
Q 40.40625 53.5 40.40625 50.59375 
Q 40.40625 46.90625 39.25 44.09375 
Q 38.09375 41.296875 35.84375 38.890625 
Q 33.59375 36.5 30.1875 34.140625 
Q 26.796875 31.796875 22.296875 29 
Q 18.59375 26.796875 15.1875 24.296875 
Q 11.796875 21.796875 9.09375 18.5 
Q 6.40625 15.203125 4.65625 10.75 
Q 2.90625 6.296875 2.40625 0 
L 48.703125 0 
L 48.703125 7.5 
L 12.296875 7.5 
Q 12.90625 10.796875 14.84375 13.34375 
Q 16.796875 15.90625 19.546875 18.09375 
Q 22.296875 20.296875 25.59375 22.25 
Q 28.90625 24.203125 32.203125 26.203125 
Q 35.5 28.296875 38.59375 30.59375 
Q 41.703125 32.90625 44.09375 35.75 
Q 46.5 38.59375 47.953125 42.1875 
Q 49.40625 45.796875 49.40625 50.5 
Q 49.40625 55.5 47.65625 59.296875 
Q 45.90625 63.09375 42.90625 65.640625 
Q 39.90625 68.203125 35.84375 69.546875 
Q 31.796875 70.90625 27.203125 70.90625 
Q 21.59375 70.90625 17.1875 69 
Q 12.796875 67.09375 9.84375 63.75 
Q 6.90625 60.40625 5.5 55.796875 
Q 4.09375 51.203125 4.40625 45.796875 
z
" id="HelveticaNeue-50"/>
        <path d="M 13.203125 34.90625 
Q 13.203125 37.5 13.25 40.640625 
Q 13.296875 43.796875 13.75 46.9375 
Q 14.203125 50.09375 15.046875 53.09375 
Q 15.90625 56.09375 17.546875 58.34375 
Q 19.203125 60.59375 21.703125 62 
Q 24.203125 63.40625 27.796875 63.40625 
Q 31.40625 63.40625 33.90625 62 
Q 36.40625 60.59375 38.046875 58.34375 
Q 39.703125 56.09375 40.546875 53.09375 
Q 41.40625 50.09375 41.84375 46.9375 
Q 42.296875 43.796875 42.34375 40.640625 
Q 42.40625 37.5 42.40625 34.90625 
Q 42.40625 30.90625 42.15625 25.953125 
Q 41.90625 21 40.546875 16.640625 
Q 39.203125 12.296875 36.203125 9.296875 
Q 33.203125 6.296875 27.796875 6.296875 
Q 22.40625 6.296875 19.40625 9.296875 
Q 16.40625 12.296875 15.046875 16.640625 
Q 13.703125 21 13.453125 25.953125 
Q 13.203125 30.90625 13.203125 34.90625 
z
M 4.203125 34.796875 
Q 4.203125 30.90625 4.390625 26.703125 
Q 4.59375 22.5 5.390625 18.5 
Q 6.203125 14.5 7.703125 10.953125 
Q 9.203125 7.40625 11.796875 4.703125 
Q 14.40625 2 18.34375 0.453125 
Q 22.296875 -1.09375 27.796875 -1.09375 
Q 33.40625 -1.09375 37.296875 0.453125 
Q 41.203125 2 43.796875 4.703125 
Q 46.40625 7.40625 47.90625 10.953125 
Q 49.40625 14.5 50.203125 18.5 
Q 51 22.5 51.203125 26.703125 
Q 51.40625 30.90625 51.40625 34.796875 
Q 51.40625 38.703125 51.203125 42.890625 
Q 51 47.09375 50.203125 51.09375 
Q 49.40625 55.09375 47.90625 58.6875 
Q 46.40625 62.296875 43.796875 65 
Q 41.203125 67.703125 37.25 69.296875 
Q 33.296875 70.90625 27.796875 70.90625 
Q 22.296875 70.90625 18.34375 69.296875 
Q 14.40625 67.703125 11.796875 65 
Q 9.203125 62.296875 7.703125 58.6875 
Q 6.203125 55.09375 5.390625 51.09375 
Q 4.59375 47.09375 4.390625 42.890625 
Q 4.203125 38.703125 4.203125 34.796875 
z
" id="HelveticaNeue-48"/>
        <path d="M 35.59375 0 
L 35.59375 70.90625 
L 29.09375 70.90625 
Q 28.40625 66.90625 26.5 64.296875 
Q 24.59375 61.703125 21.84375 60.203125 
Q 19.09375 58.703125 15.6875 58.140625 
Q 12.296875 57.59375 8.703125 57.59375 
L 8.703125 50.796875 
L 27.09375 50.796875 
L 27.09375 0 
z
" id="HelveticaNeue-49"/>
       </defs>
       <use xlink:href="#HelveticaNeue-50"/>
       <use x="55.599991" xlink:href="#HelveticaNeue-48"/>
       <use x="111.199982" xlink:href="#HelveticaNeue-50"/>
       <use x="166.799973" xlink:href="#HelveticaNeue-49"/>
      </g>
     </g>
    </g>
    <g id="xtick_5">
     <g id="line2d_5">
      <g>
       <use style="fill:#555555;stroke:#555555;stroke-width:0.8;" x="376.689189" xlink:href="#m86cd9daad4" y="262.5"/>
      </g>
     </g>
     <g id="text_4">
      <!-- Apr -->
      <g style="fill:#555555;" transform="translate(368.819658 276.640625)scale(0.1 -0.1)">
       <defs>
        <path d="M 20.09375 29.5 
L 32.203125 62.796875 
L 32.40625 62.796875 
L 44.296875 29.5 
z
M 27.203125 71.40625 
L -0.59375 0 
L 9.09375 0 
L 17.09375 21.5 
L 47.296875 21.5 
L 55.09375 0 
L 65.59375 0 
L 37.703125 71.40625 
z
" id="HelveticaNeue-65"/>
        <path d="M 6.703125 51.703125 
L 6.703125 -19.703125 
L 15.203125 -19.703125 
L 15.203125 6.90625 
L 15.40625 6.90625 
Q 16.796875 4.59375 18.84375 3.046875 
Q 20.90625 1.5 23.203125 0.59375 
Q 25.5 -0.296875 27.84375 -0.6875 
Q 30.203125 -1.09375 32.09375 -1.09375 
Q 38 -1.09375 42.453125 1 
Q 46.90625 3.09375 49.84375 6.75 
Q 52.796875 10.40625 54.25 15.296875 
Q 55.703125 20.203125 55.703125 25.703125 
Q 55.703125 31.203125 54.203125 36.09375 
Q 52.703125 41 49.75 44.75 
Q 46.796875 48.5 42.34375 50.703125 
Q 37.90625 52.90625 31.90625 52.90625 
Q 26.5 52.90625 22 50.953125 
Q 17.5 49 15.40625 44.703125 
L 15.203125 44.703125 
L 15.203125 51.703125 
z
M 46.703125 26.296875 
Q 46.703125 22.5 45.890625 18.890625 
Q 45.09375 15.296875 43.296875 12.5 
Q 41.5 9.703125 38.546875 8 
Q 35.59375 6.296875 31.203125 6.296875 
Q 26.796875 6.296875 23.6875 7.9375 
Q 20.59375 9.59375 18.640625 12.296875 
Q 16.703125 15 15.796875 18.546875 
Q 14.90625 22.09375 14.90625 25.90625 
Q 14.90625 29.5 15.75 33 
Q 16.59375 36.5 18.5 39.25 
Q 20.40625 42 23.40625 43.703125 
Q 26.40625 45.40625 30.703125 45.40625 
Q 34.796875 45.40625 37.84375 43.796875 
Q 40.90625 42.203125 42.84375 39.5 
Q 44.796875 36.796875 45.75 33.34375 
Q 46.703125 29.90625 46.703125 26.296875 
z
" id="HelveticaNeue-112"/>
        <path d="M 6.09375 51.703125 
L 6.09375 0 
L 14.59375 0 
L 14.59375 23 
Q 14.59375 28 15.59375 31.84375 
Q 16.59375 35.703125 18.796875 38.390625 
Q 21 41.09375 24.59375 42.5 
Q 28.203125 43.90625 33.296875 43.90625 
L 33.296875 52.90625 
Q 26.40625 53.09375 21.90625 50.09375 
Q 17.40625 47.09375 14.296875 40.796875 
L 14.09375 40.796875 
L 14.09375 51.703125 
z
" id="HelveticaNeue-114"/>
       </defs>
       <use xlink:href="#HelveticaNeue-65"/>
       <use x="64.799988" xlink:href="#HelveticaNeue-112"/>
       <use x="124.099976" xlink:href="#HelveticaNeue-114"/>
      </g>
     </g>
    </g>
    <g id="xtick_6">
     <g id="line2d_6">
      <g>
       <use style="fill:#555555;stroke:#555555;stroke-width:0.8;" x="450" xlink:href="#m86cd9daad4" y="262.5"/>
      </g>
     </g>
    </g>
    <g id="xtick_7">
     <g id="line2d_7">
      <defs>
       <path d="M 0 0 
L 0 2 
" id="m78cd7e98ef" style="stroke:#555555;stroke-width:0.6;"/>
      </defs>
      <g>
       <use style="fill:#555555;stroke:#555555;stroke-width:0.6;" x="84.318694" xlink:href="#m78cd7e98ef" y="262.5"/>
      </g>
     </g>
    </g>
    <g id="xtick_8">
     <g id="line2d_8">
      <g>
       <use style="fill:#555555;stroke:#555555;stroke-width:0.6;" x="111.373874" xlink:href="#m78cd7e98ef" y="262.5"/>
      </g>
     </g>
    </g>
    <g id="xtick_9">
     <g id="line2d_9">
      <g>
       <use style="fill:#555555;stroke:#555555;stroke-width:0.6;" x="164.611486" xlink:href="#m78cd7e98ef" y="262.5"/>
      </g>
     </g>
    </g>
    <g id="xtick_10">
     <g id="line2d_10">
      <g>
       <use style="fill:#555555;stroke:#555555;stroke-width:0.6;" x="191.666667" xlink:href="#m78cd7e98ef" y="262.5"/>
      </g>
     </g>
    </g>
    <g id="xtick_11">
     <g id="line2d_11">
      <g>
       <use style="fill:#555555;stroke:#555555;stroke-width:0.6;" x="244.904279" xlink:href="#m78cd7e98ef" y="262.5"/>
      </g>
     </g>
    </g>
    <g id="xtick_12">
     <g id="line2d_12">
      <g>
       <use style="fill:#555555;stroke:#555555;stroke-width:0.6;" x="271.086712" xlink:href="#m78cd7e98ef" y="262.5"/>
      </g>
     </g>
    </g>
    <g id="xtick_13">
     <g id="line2d_13">
      <g>
       <use style="fill:#555555;stroke:#555555;stroke-width:0.6;" x="325.197072" xlink:href="#m78cd7e98ef" y="262.5"/>
      </g>
     </g>
    </g>
    <g id="xtick_14">
     <g id="line2d_14">
      <g>
       <use style="fill:#555555;stroke:#555555;stroke-width:0.6;" x="349.634009" xlink:href="#m78cd7e98ef" y="262.5"/>
      </g>
     </g>
    </g>
    <g id="xtick_15">
     <g id="line2d_15">
      <g>
       <use style="fill:#555555;stroke:#555555;stroke-width:0.6;" x="402.871622" xlink:href="#m78cd7e98ef" y="262.5"/>
      </g>
     </g>
    </g>
    <g id="xtick_16">
     <g id="line2d_16">
      <g>
       <use style="fill:#555555;stroke:#555555;stroke-width:0.6;" x="429.926802" xlink:href="#m78cd7e98ef" y="262.5"/>
      </g>
     </g>
    </g>
    <g id="text_5">
     <!-- fecha -->
     <g style="fill:#555555;" transform="translate(243.935156 300.290625)scale(0.1 -0.1)">
      <defs>
       <path d="M 9.90625 44.203125 
L 9.90625 0 
L 18.40625 0 
L 18.40625 44.203125 
L 28.40625 44.203125 
L 28.40625 51.703125 
L 18.40625 51.703125 
L 18.40625 58.90625 
Q 18.40625 62.296875 20.09375 63.5 
Q 21.796875 64.703125 24.90625 64.703125 
Q 26 64.703125 27.296875 64.546875 
Q 28.59375 64.40625 29.703125 64 
L 29.703125 71.40625 
Q 28.5 71.796875 26.953125 72 
Q 25.40625 72.203125 24.203125 72.203125 
Q 17.203125 72.203125 13.546875 68.953125 
Q 9.90625 65.703125 9.90625 59.40625 
L 9.90625 51.703125 
L 1.203125 51.703125 
L 1.203125 44.203125 
z
" id="HelveticaNeue-102"/>
       <path d="M 42.296875 30.796875 
L 12.59375 30.796875 
Q 12.796875 33.796875 13.890625 36.4375 
Q 15 39.09375 16.890625 41.09375 
Q 18.796875 43.09375 21.4375 44.25 
Q 24.09375 45.40625 27.40625 45.40625 
Q 30.59375 45.40625 33.25 44.25 
Q 35.90625 43.09375 37.84375 41.140625 
Q 39.796875 39.203125 40.9375 36.5 
Q 42.09375 33.796875 42.296875 30.796875 
z
M 50.5 16.40625 
L 42.09375 16.40625 
Q 41 11.296875 37.546875 8.796875 
Q 34.09375 6.296875 28.703125 6.296875 
Q 24.5 6.296875 21.390625 7.6875 
Q 18.296875 9.09375 16.296875 11.4375 
Q 14.296875 13.796875 13.390625 16.84375 
Q 12.5 19.90625 12.59375 23.296875 
L 51.296875 23.296875 
Q 51.5 28 50.453125 33.203125 
Q 49.40625 38.40625 46.65625 42.796875 
Q 43.90625 47.203125 39.34375 50.046875 
Q 34.796875 52.90625 27.90625 52.90625 
Q 22.59375 52.90625 18.140625 50.90625 
Q 13.703125 48.90625 10.453125 45.296875 
Q 7.203125 41.703125 5.390625 36.796875 
Q 3.59375 31.90625 3.59375 26 
Q 3.796875 20.09375 5.34375 15.09375 
Q 6.90625 10.09375 10 6.5 
Q 13.09375 2.90625 17.640625 0.90625 
Q 22.203125 -1.09375 28.40625 -1.09375 
Q 37.203125 -1.09375 43 3.296875 
Q 48.796875 7.703125 50.5 16.40625 
z
" id="HelveticaNeue-101"/>
       <path d="M 6.40625 71.40625 
L 6.40625 0 
L 14.90625 0 
L 14.90625 29.203125 
Q 14.90625 32.703125 15.84375 35.640625 
Q 16.796875 38.59375 18.6875 40.796875 
Q 20.59375 43 23.4375 44.203125 
Q 26.296875 45.40625 30.203125 45.40625 
Q 35.09375 45.40625 37.890625 42.59375 
Q 40.703125 39.796875 40.703125 35 
L 40.703125 0 
L 49.203125 0 
L 49.203125 34 
Q 49.203125 38.203125 48.34375 41.640625 
Q 47.5 45.09375 45.390625 47.59375 
Q 43.296875 50.09375 39.890625 51.5 
Q 36.5 52.90625 31.40625 52.90625 
Q 29.09375 52.90625 26.640625 52.40625 
Q 24.203125 51.90625 21.953125 50.84375 
Q 19.703125 49.796875 17.890625 48.140625 
Q 16.09375 46.5 15.09375 44.09375 
L 14.90625 44.09375 
L 14.90625 71.40625 
z
" id="HelveticaNeue-104"/>
      </defs>
      <use xlink:href="#HelveticaNeue-102"/>
      <use x="29.599991" xlink:href="#HelveticaNeue-101"/>
      <use x="83.299988" xlink:href="#HelveticaNeue-99"/>
      <use x="136.999985" xlink:href="#HelveticaNeue-104"/>
      <use x="192.599976" xlink:href="#HelveticaNeue-97"/>
     </g>
    </g>
   </g>
   <g id="matplotlib.axis_2">
    <g id="ytick_1">
     <g id="line2d_17">
      <defs>
       <path d="M 0 0 
L -3.5 0 
" id="me9ac0f449a" style="stroke:#555555;stroke-width:0.8;"/>
      </defs>
      <g>
       <use style="fill:#555555;stroke:#555555;stroke-width:0.8;" x="62.5" xlink:href="#me9ac0f449a" y="251.795455"/>
      </g>
     </g>
     <g id="text_6">
      <!-- 0 -->
      <g style="fill:#555555;" transform="translate(49.940625 255.365767)scale(0.1 -0.1)">
       <use xlink:href="#HelveticaNeue-48"/>
      </g>
     </g>
    </g>
    <g id="ytick_2">
     <g id="line2d_18">
      <g>
       <use style="fill:#555555;stroke:#555555;stroke-width:0.8;" x="62.5" xlink:href="#me9ac0f449a" y="205.951577"/>
      </g>
     </g>
     <g id="text_7">
      <!-- 100 -->
      <g style="fill:#555555;" transform="translate(38.821875 209.521889)scale(0.1 -0.1)">
       <use xlink:href="#HelveticaNeue-49"/>
       <use x="55.599991" xlink:href="#HelveticaNeue-48"/>
       <use x="111.199982" xlink:href="#HelveticaNeue-48"/>
      </g>
     </g>
    </g>
    <g id="ytick_3">
     <g id="line2d_19">
      <g>
       <use style="fill:#555555;stroke:#555555;stroke-width:0.8;" x="62.5" xlink:href="#me9ac0f449a" y="160.107699"/>
      </g>
     </g>
     <g id="text_8">
      <!-- 200 -->
      <g style="fill:#555555;" transform="translate(38.821875 163.678012)scale(0.1 -0.1)">
       <use xlink:href="#HelveticaNeue-50"/>
       <use x="55.599991" xlink:href="#HelveticaNeue-48"/>
       <use x="111.199982" xlink:href="#HelveticaNeue-48"/>
      </g>
     </g>
    </g>
    <g id="ytick_4">
     <g id="line2d_20">
      <g>
       <use style="fill:#555555;stroke:#555555;stroke-width:0.8;" x="62.5" xlink:href="#me9ac0f449a" y="114.263821"/>
      </g>
     </g>
     <g id="text_9">
      <!-- 300 -->
      <g style="fill:#555555;" transform="translate(38.821875 117.834134)scale(0.1 -0.1)">
       <defs>
        <path d="M 21.796875 40.5 
L 21.796875 33.296875 
Q 24.203125 33.59375 26.90625 33.59375 
Q 30.09375 33.59375 32.84375 32.75 
Q 35.59375 31.90625 37.59375 30.15625 
Q 39.59375 28.40625 40.796875 25.84375 
Q 42 23.296875 42 20 
Q 42 16.796875 40.75 14.25 
Q 39.5 11.703125 37.390625 9.953125 
Q 35.296875 8.203125 32.5 7.25 
Q 29.703125 6.296875 26.59375 6.296875 
Q 19.296875 6.296875 15.5 10.640625 
Q 11.703125 15 11.5 21.90625 
L 3 21.90625 
Q 2.90625 16.40625 4.546875 12.09375 
Q 6.203125 7.796875 9.296875 4.84375 
Q 12.40625 1.90625 16.796875 0.40625 
Q 21.203125 -1.09375 26.59375 -1.09375 
Q 31.59375 -1.09375 36.046875 0.25 
Q 40.5 1.59375 43.796875 4.296875 
Q 47.09375 7 49.046875 11.046875 
Q 51 15.09375 51 20.40625 
Q 51 26.796875 47.84375 31.5 
Q 44.703125 36.203125 38.203125 37.59375 
L 38.203125 37.796875 
Q 42.40625 39.703125 45.203125 43.390625 
Q 48 47.09375 48 51.90625 
Q 48 56.796875 46.34375 60.390625 
Q 44.703125 64 41.796875 66.296875 
Q 38.90625 68.59375 34.953125 69.75 
Q 31 70.90625 26.40625 70.90625 
Q 21.09375 70.90625 17.046875 69.203125 
Q 13 67.5 10.296875 64.5 
Q 7.59375 61.5 6.140625 57.296875 
Q 4.703125 53.09375 4.5 48 
L 13 48 
Q 13 51.09375 13.796875 53.890625 
Q 14.59375 56.703125 16.25 58.796875 
Q 17.90625 60.90625 20.453125 62.15625 
Q 23 63.40625 26.40625 63.40625 
Q 31.796875 63.40625 35.390625 60.546875 
Q 39 57.703125 39 52 
Q 39 49.203125 37.890625 47 
Q 36.796875 44.796875 34.9375 43.34375 
Q 33.09375 41.90625 30.640625 41.15625 
Q 28.203125 40.40625 25.5 40.40625 
L 23.703125 40.40625 
Q 23.203125 40.40625 22.703125 40.40625 
Q 22.296875 40.40625 21.796875 40.5 
z
" id="HelveticaNeue-51"/>
       </defs>
       <use xlink:href="#HelveticaNeue-51"/>
       <use x="55.599991" xlink:href="#HelveticaNeue-48"/>
       <use x="111.199982" xlink:href="#HelveticaNeue-48"/>
      </g>
     </g>
    </g>
    <g id="ytick_5">
     <g id="line2d_21">
      <g>
       <use style="fill:#555555;stroke:#555555;stroke-width:0.8;" x="62.5" xlink:href="#me9ac0f449a" y="68.419944"/>
      </g>
     </g>
     <g id="text_10">
      <!-- 400 -->
      <g style="fill:#555555;" transform="translate(38.821875 71.990256)scale(0.1 -0.1)">
       <defs>
        <path d="M 33.90625 24.09375 
L 10.09375 24.09375 
L 33.703125 58.796875 
L 33.90625 58.796875 
z
M 41.90625 24.09375 
L 41.90625 70.90625 
L 35.09375 70.90625 
L 2.796875 24.796875 
L 2.796875 16.59375 
L 33.90625 16.59375 
L 33.90625 0 
L 41.90625 0 
L 41.90625 16.59375 
L 51.5 16.59375 
L 51.5 24.09375 
z
" id="HelveticaNeue-52"/>
       </defs>
       <use xlink:href="#HelveticaNeue-52"/>
       <use x="55.599991" xlink:href="#HelveticaNeue-48"/>
       <use x="111.199982" xlink:href="#HelveticaNeue-48"/>
      </g>
     </g>
    </g>
   </g>
   <g id="line2d_22">
    <path clip-path="url(#p3bcc4a6686)" d="M 63.372748 250.878577 
L 64.245495 249.961699 
L 65.118243 251.337016 
L 65.990991 251.795455 
L 67.736486 251.795455 
L 68.609234 250.878577 
L 69.481982 250.878577 
L 70.35473 249.961699 
L 71.227477 251.337016 
L 72.100225 249.503261 
L 72.972973 249.044822 
L 73.845721 249.044822 
L 74.718468 250.878577 
L 75.591216 251.337016 
L 76.463964 250.878577 
L 77.336712 249.503261 
L 78.209459 249.961699 
L 79.082207 249.044822 
L 79.954955 246.294189 
L 80.827703 251.337016 
L 81.70045 248.586383 
L 82.573198 250.878577 
L 83.445946 249.961699 
L 84.318694 249.503261 
L 85.191441 248.586383 
L 86.064189 248.127944 
L 86.936937 250.420138 
L 87.809685 247.669506 
L 88.682432 249.503261 
L 89.55518 238.959169 
L 90.427928 247.669506 
L 91.300676 250.878577 
L 92.173423 250.420138 
L 93.046171 246.752628 
L 93.918919 249.503261 
L 94.791667 248.586383 
L 95.664414 248.127944 
L 96.537162 244.460434 
L 97.40991 249.044822 
L 98.282658 245.83575 
L 99.155405 249.961699 
L 100.028153 244.918873 
L 100.900901 244.001995 
L 101.773649 249.503261 
L 102.646396 240.792924 
L 104.391892 250.878577 
L 105.26464 244.001995 
L 106.137387 249.044822 
L 107.010135 240.334485 
L 107.882883 235.750097 
L 108.755631 240.792924 
L 109.628378 244.001995 
L 110.501126 241.251363 
L 111.373874 244.460434 
L 112.246622 241.709801 
L 113.119369 238.50073 
L 113.992117 242.16824 
L 114.864865 243.085118 
L 115.737613 242.626679 
L 116.61036 245.377312 
L 117.483108 243.543557 
L 118.355856 233.457903 
L 119.228604 243.085118 
L 120.101351 246.752628 
L 120.974099 241.709801 
L 121.846847 239.876046 
L 122.719595 244.918873 
L 123.592342 244.918873 
L 124.46509 240.334485 
L 125.337838 227.956638 
L 126.210586 225.664444 
L 127.083333 230.707271 
L 127.956081 214.661914 
L 128.828829 225.206005 
L 129.701577 227.039761 
L 130.574324 231.624148 
L 131.447072 216.03723 
L 132.31982 234.83322 
L 133.192568 210.994403 
L 134.065315 220.163179 
L 134.938063 210.994403 
L 135.810811 226.581322 
L 136.683559 197.24124 
L 137.556306 198.158118 
L 138.429054 219.70474 
L 139.301802 219.246301 
L 140.17455 208.243771 
L 141.047297 203.200944 
L 141.920045 211.452842 
L 142.792793 195.865924 
L 143.665541 199.533434 
L 144.538288 204.57626 
L 145.411036 205.951577 
L 146.283784 212.828158 
L 147.156532 189.90622 
L 148.029279 204.117822 
L 148.902027 180.279005 
L 149.774775 171.568668 
L 150.647523 167.442719 
L 151.52027 181.654322 
L 152.393018 184.404954 
L 153.265766 197.699679 
L 154.138514 194.490607 
L 155.011261 153.689556 
L 155.884009 169.276475 
L 156.756757 212.828158 
L 157.629505 132.601372 
L 158.502252 177.069934 
L 159.375 184.863393 
L 160.247748 160.566138 
L 161.120495 149.563607 
L 161.993243 181.195883 
L 162.865991 151.397362 
L 163.738739 164.692087 
L 164.611486 152.772679 
L 165.484234 188.530903 
L 166.356982 168.359597 
L 167.22973 144.520781 
L 168.102477 157.815505 
L 168.975225 186.697148 
L 169.847973 187.155587 
L 170.720721 194.032169 
L 171.593468 202.284067 
L 172.466216 133.059811 
L 173.338964 155.523311 
L 174.211712 163.31677 
L 175.084459 157.357066 
L 175.957207 188.989342 
L 176.829955 161.941454 
L 177.702703 172.943985 
L 178.57545 170.193352 
L 179.448198 125.266352 
L 180.320946 172.485546 
L 181.193694 173.860862 
L 182.066441 184.404954 
L 182.939189 174.77774 
L 183.811937 140.85327 
L 184.684685 179.362128 
L 185.557432 187.155587 
L 186.43018 204.57626 
L 187.302928 203.659383 
L 188.175676 177.986811 
L 189.048423 189.90622 
L 189.921171 194.490607 
L 190.793919 178.44525 
L 191.666667 173.860862 
L 192.539414 199.074995 
L 193.412162 182.11276 
L 194.28491 211.452842 
L 195.157658 92.25876 
L 196.030405 238.042291 
L 196.903153 182.11276 
L 198.648649 210.535965 
L 199.521396 172.027107 
L 200.394144 211.911281 
L 201.266892 201.825628 
L 202.13964 200.90875 
L 203.012387 215.578791 
L 203.885135 181.195883 
L 204.757883 211.911281 
L 205.630631 209.160648 
L 206.503378 183.488077 
L 207.376126 208.243771 
L 208.248874 219.246301 
L 209.121622 228.415077 
L 209.994369 215.578791 
L 210.867117 205.034699 
L 211.739865 204.117822 
L 212.612613 193.57373 
L 213.48536 232.082587 
L 214.358108 227.498199 
L 215.230856 221.080056 
L 216.103604 213.286597 
L 216.976351 218.329424 
L 217.849099 224.747567 
L 218.721847 194.490607 
L 219.594595 221.996934 
L 220.467342 213.745036 
L 221.34009 232.999465 
L 222.212838 210.994403 
L 223.085586 225.206005 
L 223.958333 200.450311 
L 224.831081 216.03723 
L 225.703829 210.077526 
L 226.576577 230.707271 
L 227.449324 236.208536 
L 228.322072 235.750097 
L 229.19482 231.16571 
L 230.067568 207.326893 
L 230.940315 204.117822 
L 231.813063 231.16571 
L 232.685811 214.661914 
L 233.558559 213.286597 
L 234.431306 223.830689 
L 235.304054 216.954107 
L 236.176802 208.702209 
L 237.04955 212.36972 
L 237.922297 221.538495 
L 238.795045 224.747567 
L 239.667793 211.452842 
L 240.540541 217.870985 
L 241.413288 204.117822 
L 242.286036 207.326893 
L 244.031532 221.996934 
L 244.904279 219.70474 
L 245.777027 225.206005 
L 246.649775 215.578791 
L 247.522523 214.203475 
L 248.39527 215.120352 
L 249.268018 222.913812 
L 250.140766 221.538495 
L 251.013514 219.246301 
L 251.886261 225.664444 
L 252.759009 221.996934 
L 253.631757 213.745036 
L 254.504505 217.412546 
L 255.377252 230.707271 
L 256.25 229.331954 
L 257.122748 234.374781 
L 257.995495 216.954107 
L 258.868243 207.785332 
L 259.740991 212.36972 
L 260.613739 213.286597 
L 261.486486 217.412546 
L 262.359234 219.246301 
L 263.231982 230.248832 
L 264.977477 202.742505 
L 265.850225 194.490607 
L 266.722973 200.90875 
L 267.595721 190.364658 
L 268.468468 215.120352 
L 269.341216 209.619087 
L 270.213964 215.120352 
L 271.086712 200.450311 
L 272.832207 220.621618 
L 273.704955 198.616556 
L 274.577703 212.828158 
L 275.45045 220.621618 
L 276.323198 201.825628 
L 277.195946 210.535965 
L 278.068694 197.24124 
L 278.941441 204.117822 
L 279.814189 195.865924 
L 280.686937 177.528373 
L 281.559685 211.911281 
L 282.432432 215.578791 
L 283.30518 182.571199 
L 284.177928 155.064872 
L 285.050676 192.198413 
L 285.923423 186.238709 
L 286.796171 191.739975 
L 287.668919 203.659383 
L 288.541667 209.619087 
L 289.414414 157.815505 
L 290.287162 190.823097 
L 291.15991 176.153056 
L 292.032658 204.117822 
L 292.905405 199.991873 
L 293.778153 191.739975 
L 294.650901 188.530903 
L 295.523649 155.98175 
L 296.396396 153.231117 
L 297.269144 176.153056 
L 298.141892 215.578791 
L 299.01464 193.57373 
L 299.887387 165.608964 
L 300.760135 170.193352 
L 301.632883 142.228587 
L 302.505631 124.349474 
L 303.378378 132.601372 
L 304.251126 129.85074 
L 305.123874 183.946515 
L 305.996622 194.490607 
L 306.869369 187.155587 
L 307.742117 114.72226 
L 309.487613 168.818036 
L 310.36036 139.477954 
L 311.233108 150.480485 
L 312.105856 121.598842 
L 312.978604 172.027107 
L 313.851351 141.770148 
L 314.724099 147.271413 
L 315.596847 130.767617 
L 316.469595 125.724791 
L 317.342342 165.150526 
L 318.21509 166.525842 
L 319.087838 146.812974 
L 319.960586 169.734913 
L 320.833333 120.681964 
L 321.706081 186.238709 
L 322.578829 211.911281 
L 323.451577 200.450311 
L 324.324324 182.571199 
L 326.942568 216.03723 
L 327.815315 204.57626 
L 328.688063 222.455373 
L 329.560811 230.248832 
L 330.433559 230.707271 
L 331.306306 223.37225 
L 332.179054 208.243771 
L 333.051802 223.830689 
L 333.92455 227.498199 
L 334.797297 222.913812 
L 336.542793 227.498199 
L 337.415541 228.873516 
L 338.288288 226.581322 
L 339.161036 226.122883 
L 340.033784 229.331954 
L 340.906532 226.581322 
L 342.652027 236.666975 
L 343.524775 237.125414 
L 344.397523 234.374781 
L 345.27027 227.498199 
L 346.143018 230.707271 
L 347.015766 235.750097 
L 347.888514 239.417608 
L 348.761261 231.624148 
L 349.634009 238.042291 
L 350.506757 235.750097 
L 351.379505 237.125414 
L 352.252252 235.291659 
L 353.125 235.291659 
L 353.997748 239.417608 
L 355.743243 236.666975 
L 356.615991 242.626679 
L 357.488739 237.125414 
L 358.361486 233.916342 
L 359.234234 228.415077 
L 360.106982 239.417608 
L 360.97973 238.042291 
L 362.725225 238.959169 
L 363.597973 237.583852 
L 364.470721 240.792924 
L 365.343468 238.959169 
L 366.216216 232.541026 
L 367.088964 240.334485 
L 367.961712 234.374781 
L 368.834459 229.790393 
L 369.707207 237.125414 
L 370.579955 226.581322 
L 371.452703 225.664444 
L 372.32545 228.873516 
L 373.198198 233.457903 
L 374.070946 227.956638 
L 374.943694 229.331954 
L 375.816441 215.120352 
L 376.689189 224.747567 
L 377.561937 227.039761 
L 378.434685 225.664444 
L 379.307432 227.956638 
L 380.18018 222.913812 
L 381.052928 188.072464 
L 381.925676 210.077526 
L 382.798423 211.911281 
L 383.671171 195.407485 
L 384.543919 196.324362 
L 385.416667 219.70474 
L 386.289414 171.11023 
L 387.162162 181.195883 
L 388.03491 150.022046 
L 388.907658 200.90875 
L 389.780405 177.986811 
L 390.653153 199.074995 
L 391.525901 202.742505 
L 392.398649 123.432597 
L 393.271396 163.31677 
L 394.144144 179.820566 
L 395.016892 169.734913 
L 395.88964 170.193352 
L 396.762387 186.697148 
L 397.635135 210.535965 
L 398.507883 156.898628 
L 399.380631 130.309179 
L 400.253378 196.782801 
L 401.126126 160.107699 
L 401.998874 167.442719 
L 402.871622 178.903689 
L 403.744369 165.150526 
L 404.617117 163.775209 
L 405.489865 165.150526 
L 406.362613 188.989342 
L 407.23536 107.845678 
L 408.108108 168.818036 
L 408.980856 166.984281 
L 409.853604 175.236179 
L 410.726351 140.394832 
L 411.599099 156.898628 
L 412.471847 110.137872 
L 413.344595 167.442719 
L 414.217342 181.654322 
L 415.09009 126.641668 
L 415.962838 195.407485 
L 416.835586 175.694617 
L 417.708333 174.319301 
L 418.581081 146.812974 
L 419.453829 125.724791 
L 420.326577 108.304117 
L 421.199324 66.12775 
L 422.072072 128.016985 
L 422.94482 129.85074 
L 423.817568 48.707076 
L 424.690315 122.515719 
L 425.563063 100.052219 
L 426.435811 97.301587 
L 427.308559 56.500535 
L 428.181306 155.064872 
L 429.054054 117.472893 
L 429.926802 62.918678 
L 430.79955 83.089984 
L 431.672297 73.004331 
L 432.545045 73.921209 
L 433.417793 53.291464 
L 434.290541 136.268883 
L 435.163288 123.891036 
L 436.036036 122.057281 
L 436.908784 89.508127 
L 437.781532 147.729852 
L 438.654279 95.467831 
L 439.527027 78.047158 
L 440.399775 120.223525 
L 441.272523 132.142934 
L 442.14527 83.548423 
L 443.018018 80.797791 
L 443.890766 102.344413 
L 444.763514 37.704545 
L 445.636261 113.346944 
L 446.509009 138.561077 
L 447.381757 126.641668 
L 448.254505 94.550954 
L 449.127252 94.550954 
L 450 229.331954 
L 450 229.331954 
" style="fill:none;stroke:#000000;stroke-dasharray:1.5,2.475;stroke-dashoffset:0;stroke-opacity:0.5;stroke-width:1.5;"/>
   </g>
   <g id="line2d_23">
    <path clip-path="url(#p3bcc4a6686)" d="M 62.5 250.878577 
L 64.245495 250.878577 
L 65.118243 251.337016 
L 68.609234 251.337016 
L 71.227477 249.961699 
L 74.718468 249.961699 
L 75.591216 250.420138 
L 76.463964 250.420138 
L 79.082207 249.044822 
L 79.954955 249.044822 
L 80.827703 249.503261 
L 84.318694 249.503261 
L 85.191441 249.044822 
L 86.064189 249.044822 
L 86.936937 247.669506 
L 87.809685 247.211067 
L 88.682432 247.211067 
L 89.55518 247.669506 
L 90.427928 247.211067 
L 92.173423 248.127944 
L 93.046171 249.044822 
L 95.664414 247.669506 
L 96.537162 247.669506 
L 98.282658 246.752628 
L 99.155405 246.752628 
L 100.900901 245.83575 
L 101.773649 246.294189 
L 102.646396 245.83575 
L 103.519144 246.294189 
L 104.391892 245.83575 
L 105.26464 244.460434 
L 106.137387 244.001995 
L 107.010135 243.085118 
L 107.882883 241.709801 
L 108.755631 241.709801 
L 109.628378 241.251363 
L 110.501126 241.251363 
L 112.246622 242.16824 
L 113.119369 241.709801 
L 114.864865 242.626679 
L 115.737613 241.709801 
L 116.61036 242.16824 
L 118.355856 242.16824 
L 119.228604 241.709801 
L 120.101351 242.16824 
L 120.974099 242.16824 
L 121.846847 243.085118 
L 122.719595 241.251363 
L 123.592342 238.50073 
L 124.46509 236.666975 
L 126.210586 229.331954 
L 127.083333 226.581322 
L 127.956081 225.664444 
L 128.828829 224.289128 
L 129.701577 225.206005 
L 130.574324 223.830689 
L 131.447072 223.830689 
L 132.31982 221.996934 
L 133.192568 221.080056 
L 134.938063 214.203475 
L 135.810811 211.911281 
L 136.683559 211.911281 
L 139.301802 209.160648 
L 140.17455 208.702209 
L 141.047297 207.785332 
L 141.920045 205.493138 
L 142.792793 203.659383 
L 143.665541 204.117822 
L 145.411036 202.284067 
L 146.283784 200.450311 
L 147.156532 196.782801 
L 148.029279 190.823097 
L 148.902027 185.780271 
L 149.774775 181.654322 
L 151.52027 181.654322 
L 152.393018 180.737444 
L 153.265766 180.279005 
L 154.138514 183.946515 
L 155.011261 178.44525 
L 156.756757 173.860862 
L 157.629505 171.11023 
L 158.502252 169.734913 
L 159.375 169.734913 
L 160.247748 164.233648 
L 161.120495 166.525842 
L 161.993243 163.31677 
L 162.865991 163.31677 
L 163.738739 165.150526 
L 164.611486 164.692087 
L 165.484234 162.399893 
L 166.356982 165.608964 
L 167.22973 168.359597 
L 168.102477 172.943985 
L 168.975225 176.611495 
L 169.847973 176.153056 
L 170.720721 176.611495 
L 171.593468 174.77774 
L 172.466216 169.276475 
L 173.338964 167.442719 
L 174.211712 164.233648 
L 175.084459 162.858332 
L 175.957207 167.901158 
L 176.829955 165.150526 
L 177.702703 164.692087 
L 178.57545 164.692087 
L 179.448198 164.233648 
L 180.320946 166.525842 
L 181.193694 164.692087 
L 182.066441 166.525842 
L 182.939189 172.485546 
L 183.811937 175.694617 
L 184.684685 180.279005 
L 185.557432 182.11276 
L 186.43018 185.780271 
L 187.302928 191.739975 
L 188.175676 191.281536 
L 189.048423 188.989342 
L 190.793919 185.321832 
L 191.666667 188.530903 
L 192.539414 178.903689 
L 193.412162 181.654322 
L 194.28491 181.654322 
L 196.030405 186.238709 
L 196.903153 187.155587 
L 197.775901 189.447781 
L 198.648649 199.991873 
L 199.521396 196.782801 
L 200.394144 200.450311 
L 201.266892 199.991873 
L 202.13964 200.450311 
L 203.012387 204.117822 
L 203.885135 200.90875 
L 204.757883 201.367189 
L 205.630631 203.200944 
L 206.503378 205.493138 
L 207.376126 210.077526 
L 208.248874 210.994403 
L 209.994369 211.911281 
L 210.867117 212.828158 
L 211.739865 213.286597 
L 212.612613 213.286597 
L 213.48536 214.661914 
L 214.358108 216.954107 
L 215.230856 219.70474 
L 216.103604 218.787863 
L 217.849099 215.120352 
L 218.721847 216.03723 
L 219.594595 216.495669 
L 220.467342 217.412546 
L 221.34009 216.03723 
L 222.212838 217.412546 
L 223.085586 215.578791 
L 224.831081 217.412546 
L 225.703829 221.080056 
L 226.576577 223.830689 
L 227.449324 225.664444 
L 228.322072 224.289128 
L 229.19482 224.747567 
L 230.067568 221.996934 
L 230.940315 218.787863 
L 231.813063 217.412546 
L 232.685811 216.495669 
L 233.558559 216.954107 
L 234.431306 216.954107 
L 235.304054 216.03723 
L 236.176802 216.954107 
L 237.04955 216.954107 
L 237.922297 216.495669 
L 239.667793 214.661914 
L 242.286036 213.286597 
L 243.158784 215.578791 
L 244.031532 216.495669 
L 244.904279 217.870985 
L 245.777027 218.787863 
L 248.39527 218.787863 
L 249.268018 219.246301 
L 250.140766 220.163179 
L 251.013514 220.621618 
L 251.886261 220.621618 
L 252.759009 221.080056 
L 253.631757 221.996934 
L 254.504505 223.830689 
L 255.377252 223.830689 
L 256.25 222.913812 
L 257.122748 222.455373 
L 257.995495 220.621618 
L 258.868243 217.870985 
L 259.740991 216.03723 
L 260.613739 216.03723 
L 261.486486 216.954107 
L 262.359234 216.954107 
L 264.10473 212.36972 
L 264.977477 207.785332 
L 265.850225 205.493138 
L 266.722973 202.742505 
L 268.468468 204.57626 
L 269.341216 206.410016 
L 270.213964 209.160648 
L 271.086712 210.077526 
L 271.959459 209.619087 
L 272.832207 210.535965 
L 273.704955 210.077526 
L 274.577703 210.994403 
L 276.323198 207.326893 
L 277.195946 205.951577 
L 278.068694 201.367189 
L 278.941441 199.533434 
L 279.814189 200.450311 
L 280.686937 198.158118 
L 281.559685 193.57373 
L 283.30518 188.989342 
L 284.177928 188.530903 
L 285.050676 187.155587 
L 285.923423 188.530903 
L 286.796171 188.072464 
L 287.668919 191.281536 
L 288.541667 188.989342 
L 290.287162 189.90622 
L 291.15991 188.989342 
L 292.032658 188.530903 
L 292.905405 188.530903 
L 293.778153 183.488077 
L 294.650901 180.737444 
L 295.523649 179.820566 
L 298.141892 178.44525 
L 299.01464 177.069934 
L 299.887387 171.568668 
L 300.760135 162.399893 
L 301.632883 150.022046 
L 302.505631 146.812974 
L 303.378378 150.022046 
L 304.251126 155.064872 
L 305.123874 156.440189 
L 305.996622 158.732383 
L 306.869369 161.483015 
L 307.742117 159.64926 
L 308.614865 154.147995 
L 309.487613 145.896097 
L 310.36036 144.520781 
L 311.233108 147.271413 
L 312.105856 147.729852 
L 312.978604 144.520781 
L 313.851351 142.687026 
L 314.724099 143.145464 
L 315.596847 147.271413 
L 316.469595 145.896097 
L 317.342342 150.022046 
L 318.21509 149.105168 
L 319.087838 154.606434 
L 319.960586 163.775209 
L 321.706081 174.77774 
L 322.578829 182.571199 
L 323.451577 188.530903 
L 324.324324 198.616556 
L 326.06982 203.200944 
L 326.942568 207.785332 
L 327.815315 214.661914 
L 328.688063 219.246301 
L 329.560811 220.621618 
L 330.433559 221.538495 
L 331.306306 223.37225 
L 333.051802 222.455373 
L 333.92455 222.455373 
L 334.797297 223.830689 
L 335.670045 226.122883 
L 336.542793 226.581322 
L 337.415541 226.581322 
L 338.288288 227.039761 
L 340.033784 228.873516 
L 341.779279 231.624148 
L 342.652027 232.541026 
L 343.524775 232.541026 
L 344.397523 233.457903 
L 345.27027 233.916342 
L 346.143018 233.457903 
L 347.888514 234.374781 
L 348.761261 235.750097 
L 349.634009 236.208536 
L 351.379505 236.208536 
L 352.252252 236.666975 
L 353.125 236.666975 
L 353.997748 237.583852 
L 354.870495 238.042291 
L 355.743243 238.042291 
L 356.615991 237.125414 
L 358.361486 236.208536 
L 360.106982 236.208536 
L 360.97973 236.666975 
L 361.852477 237.583852 
L 362.725225 238.959169 
L 363.597973 238.042291 
L 364.470721 238.042291 
L 365.343468 237.583852 
L 366.216216 236.666975 
L 367.088964 236.208536 
L 368.834459 232.541026 
L 371.452703 229.790393 
L 372.32545 229.790393 
L 373.198198 227.498199 
L 374.943694 226.581322 
L 375.816441 225.664444 
L 377.561937 224.747567 
L 378.434685 220.621618 
L 379.307432 218.787863 
L 380.18018 216.03723 
L 381.052928 210.994403 
L 381.925676 206.868454 
L 382.798423 205.493138 
L 383.671171 200.450311 
L 384.543919 198.616556 
L 385.416667 190.823097 
L 387.162162 183.946515 
L 388.03491 183.029638 
L 388.907658 182.571199 
L 389.780405 179.362128 
L 390.653153 176.611495 
L 391.525901 177.528373 
L 392.398649 172.485546 
L 393.271396 170.193352 
L 394.144144 169.276475 
L 395.016892 172.485546 
L 395.88964 177.528373 
L 396.762387 174.77774 
L 397.635135 174.77774 
L 399.380631 171.11023 
L 400.253378 169.734913 
L 401.126126 166.067403 
L 401.998874 167.442719 
L 402.871622 170.193352 
L 403.744369 169.734913 
L 404.617117 164.233648 
L 405.489865 162.858332 
L 406.362613 160.566138 
L 407.23536 161.024577 
L 408.108108 158.732383 
L 408.980856 157.815505 
L 409.853604 150.480485 
L 410.726351 154.147995 
L 411.599099 154.147995 
L 412.471847 150.480485 
L 413.344595 153.231117 
L 414.217342 158.732383 
L 415.09009 162.858332 
L 415.962838 167.901158 
L 416.835586 163.31677 
L 417.708333 154.147995 
L 418.581081 143.145464 
L 419.453829 130.309179 
L 420.326577 121.598842 
L 421.199324 107.38724 
L 422.072072 103.261291 
L 422.94482 100.510658 
L 423.817568 99.59378 
L 424.690315 97.760025 
L 425.563063 99.135342 
L 426.435811 99.59378 
L 427.308559 101.885974 
L 428.181306 97.760025 
L 429.054054 94.550954 
L 429.926802 89.966566 
L 431.672297 82.173107 
L 432.545045 84.465301 
L 433.417793 93.634076 
L 434.290541 98.218464 
L 435.163288 108.304117 
L 436.036036 112.430066 
L 436.908784 113.805383 
L 437.781532 110.596311 
L 438.654279 110.596311 
L 439.527027 106.928801 
L 440.399775 105.095046 
L 441.272523 100.052219 
L 442.14527 93.634076 
L 443.018018 93.634076 
L 443.890766 94.092515 
L 444.763514 95.467831 
L 445.636261 100.052219 
L 446.509009 103.719729 
L 447.381757 118.38977 
L 448.254505 130.767617 
L 449.127252 136.268883 
L 450 140.394832 
L 450 140.394832 
" style="fill:none;stroke:#b3220f;stroke-linecap:square;stroke-width:1.5;"/>
   </g>
   <g id="patch_3">
    <path d="M 62.5 262.5 
L 62.5 27 
" style="fill:none;stroke:#555555;stroke-linecap:square;stroke-linejoin:miter;"/>
   </g>
   <g id="patch_4">
    <path d="M 62.5 262.5 
L 450 262.5 
" style="fill:none;stroke:#555555;stroke-linecap:square;stroke-linejoin:miter;"/>
   </g>
   <g id="text_11">
    <!-- San Cristóbal | Casos nuevos: 2021-06-24 -->
    <g style="fill:#555555;" transform="translate(123.735625 17)scale(0.14 -0.14)">
     <defs>
      <path d="M 49.09375 50.5 
L 58.09375 50.5 
Q 57.90625 56.40625 55.84375 60.65625 
Q 53.796875 64.90625 50.25 67.703125 
Q 46.703125 70.5 42 71.796875 
Q 37.296875 73.09375 31.796875 73.09375 
Q 26.90625 73.09375 22.25 71.84375 
Q 17.59375 70.59375 13.9375 68.046875 
Q 10.296875 65.5 8.09375 61.546875 
Q 5.90625 57.59375 5.90625 52.203125 
Q 5.90625 47.296875 7.84375 44.046875 
Q 9.796875 40.796875 13.046875 38.75 
Q 16.296875 36.703125 20.390625 35.453125 
Q 24.5 34.203125 28.75 33.25 
Q 33 32.296875 37.09375 31.390625 
Q 41.203125 30.5 44.453125 29.046875 
Q 47.703125 27.59375 49.640625 25.296875 
Q 51.59375 23 51.59375 19.296875 
Q 51.59375 15.40625 50 12.90625 
Q 48.40625 10.40625 45.796875 8.953125 
Q 43.203125 7.5 39.953125 6.890625 
Q 36.703125 6.296875 33.5 6.296875 
Q 29.5 6.296875 25.703125 7.296875 
Q 21.90625 8.296875 19.046875 10.390625 
Q 16.203125 12.5 14.453125 15.75 
Q 12.703125 19 12.703125 23.5 
L 3.703125 23.5 
Q 3.703125 17 6.046875 12.25 
Q 8.40625 7.5 12.453125 4.453125 
Q 16.5 1.40625 21.84375 -0.09375 
Q 27.203125 -1.59375 33.203125 -1.59375 
Q 38.09375 -1.59375 43.046875 -0.4375 
Q 48 0.703125 52 3.25 
Q 56 5.796875 58.546875 9.84375 
Q 61.09375 13.90625 61.09375 19.59375 
Q 61.09375 24.90625 59.140625 28.40625 
Q 57.203125 31.90625 53.953125 34.203125 
Q 50.703125 36.5 46.59375 37.84375 
Q 42.5 39.203125 38.25 40.203125 
Q 34 41.203125 29.890625 42.046875 
Q 25.796875 42.90625 22.546875 44.203125 
Q 19.296875 45.5 17.34375 47.546875 
Q 15.40625 49.59375 15.40625 52.90625 
Q 15.40625 56.40625 16.75 58.75 
Q 18.09375 61.09375 20.34375 62.5 
Q 22.59375 63.90625 25.5 64.5 
Q 28.40625 65.09375 31.40625 65.09375 
Q 38.796875 65.09375 43.546875 61.640625 
Q 48.296875 58.203125 49.09375 50.5 
z
" id="HelveticaNeue-83"/>
      <path id="HelveticaNeue-32"/>
      <path d="M 58 49.90625 
L 67.5 49.90625 
Q 66.703125 55.59375 64.09375 59.9375 
Q 61.5 64.296875 57.59375 67.1875 
Q 53.703125 70.09375 48.703125 71.59375 
Q 43.703125 73.09375 38.09375 73.09375 
Q 29.90625 73.09375 23.546875 70.140625 
Q 17.203125 67.203125 12.953125 62.09375 
Q 8.703125 57 6.5 50.140625 
Q 4.296875 43.296875 4.296875 35.5 
Q 4.296875 27.703125 6.34375 20.890625 
Q 8.40625 14.09375 12.5 9.09375 
Q 16.59375 4.09375 22.796875 1.25 
Q 29 -1.59375 37.296875 -1.59375 
Q 51 -1.59375 58.890625 5.90625 
Q 66.796875 13.40625 68.203125 26.90625 
L 58.703125 26.90625 
Q 58.40625 22.5 56.90625 18.703125 
Q 55.40625 14.90625 52.75 12.15625 
Q 50.09375 9.40625 46.4375 7.84375 
Q 42.796875 6.296875 38.09375 6.296875 
Q 31.703125 6.296875 27.09375 8.6875 
Q 22.5 11.09375 19.546875 15.140625 
Q 16.59375 19.203125 15.1875 24.640625 
Q 13.796875 30.09375 13.796875 36.203125 
Q 13.796875 41.796875 15.1875 47 
Q 16.59375 52.203125 19.546875 56.25 
Q 22.5 60.296875 27.046875 62.6875 
Q 31.59375 65.09375 38 65.09375 
Q 45.5 65.09375 50.953125 61.296875 
Q 56.40625 57.5 58 49.90625 
z
" id="HelveticaNeue-67"/>
      <path d="M 15.40625 61 
L 15.40625 71.40625 
L 6.90625 71.40625 
L 6.90625 61 
z
M 6.90625 51.703125 
L 6.90625 0 
L 15.40625 0 
L 15.40625 51.703125 
z
" id="HelveticaNeue-105"/>
      <path d="M 11.59375 16.296875 
L 3.09375 16.296875 
Q 3.296875 11.5 5.09375 8.140625 
Q 6.90625 4.796875 9.90625 2.75 
Q 12.90625 0.703125 16.796875 -0.1875 
Q 20.703125 -1.09375 25 -1.09375 
Q 28.90625 -1.09375 32.84375 -0.34375 
Q 36.796875 0.40625 39.9375 2.296875 
Q 43.09375 4.203125 45.046875 7.296875 
Q 47 10.40625 47 15.09375 
Q 47 18.796875 45.546875 21.296875 
Q 44.09375 23.796875 41.75 25.4375 
Q 39.40625 27.09375 36.34375 28.09375 
Q 33.296875 29.09375 30.09375 29.796875 
Q 27.09375 30.5 24.09375 31.140625 
Q 21.09375 31.796875 18.6875 32.75 
Q 16.296875 33.703125 14.75 35.140625 
Q 13.203125 36.59375 13.203125 38.796875 
Q 13.203125 40.796875 14.203125 42.046875 
Q 15.203125 43.296875 16.796875 44.046875 
Q 18.40625 44.796875 20.34375 45.09375 
Q 22.296875 45.40625 24.203125 45.40625 
Q 26.296875 45.40625 28.34375 44.953125 
Q 30.40625 44.5 32.09375 43.5 
Q 33.796875 42.5 34.890625 40.84375 
Q 36 39.203125 36.203125 36.703125 
L 44.703125 36.703125 
Q 44.40625 41.40625 42.703125 44.546875 
Q 41 47.703125 38.140625 49.546875 
Q 35.296875 51.40625 31.59375 52.15625 
Q 27.90625 52.90625 23.5 52.90625 
Q 20.09375 52.90625 16.640625 52.046875 
Q 13.203125 51.203125 10.453125 49.453125 
Q 7.703125 47.703125 5.953125 44.890625 
Q 4.203125 42.09375 4.203125 38.203125 
Q 4.203125 33.203125 6.703125 30.390625 
Q 9.203125 27.59375 12.953125 26.046875 
Q 16.703125 24.5 21.09375 23.640625 
Q 25.5 22.796875 29.25 21.75 
Q 33 20.703125 35.5 19 
Q 38 17.296875 38 14 
Q 38 11.59375 36.796875 10.046875 
Q 35.59375 8.5 33.75 7.703125 
Q 31.90625 6.90625 29.703125 6.59375 
Q 27.5 6.296875 25.5 6.296875 
Q 22.90625 6.296875 20.453125 6.796875 
Q 18 7.296875 16.046875 8.4375 
Q 14.09375 9.59375 12.890625 11.546875 
Q 11.703125 13.5 11.59375 16.296875 
z
" id="HelveticaNeue-115"/>
      <path d="M 12.59375 25.796875 
Q 12.59375 30.5 13.84375 34.140625 
Q 15.09375 37.796875 17.296875 40.296875 
Q 19.5 42.796875 22.453125 44.09375 
Q 25.40625 45.40625 28.703125 45.40625 
Q 32 45.40625 34.953125 44.09375 
Q 37.90625 42.796875 40.09375 40.296875 
Q 42.296875 37.796875 43.546875 34.140625 
Q 44.796875 30.5 44.796875 25.796875 
Q 44.796875 21.09375 43.546875 17.4375 
Q 42.296875 13.796875 40.09375 11.34375 
Q 37.90625 8.90625 34.953125 7.59375 
Q 32 6.296875 28.703125 6.296875 
Q 25.40625 6.296875 22.453125 7.59375 
Q 19.5 8.90625 17.296875 11.34375 
Q 15.09375 13.796875 13.84375 17.4375 
Q 12.59375 21.09375 12.59375 25.796875 
z
M 3.59375 25.796875 
Q 3.59375 20.09375 5.1875 15.1875 
Q 6.796875 10.296875 10 6.640625 
Q 13.203125 3 17.890625 0.953125 
Q 22.59375 -1.09375 28.703125 -1.09375 
Q 34.90625 -1.09375 39.546875 0.953125 
Q 44.203125 3 47.390625 6.640625 
Q 50.59375 10.296875 52.1875 15.1875 
Q 53.796875 20.09375 53.796875 25.796875 
Q 53.796875 31.5 52.1875 36.453125 
Q 50.59375 41.40625 47.390625 45.046875 
Q 44.203125 48.703125 39.546875 50.796875 
Q 34.90625 52.90625 28.703125 52.90625 
Q 22.59375 52.90625 17.890625 50.796875 
Q 13.203125 48.703125 10 45.046875 
Q 6.796875 41.40625 5.1875 36.453125 
Q 3.59375 31.5 3.59375 25.796875 
z
M 42.5 77 
L 28.40625 60.796875 
L 22 60.796875 
L 31.59375 77 
z
" id="HelveticaNeue-243"/>
      <path d="M 6.703125 71.40625 
L 6.703125 0 
L 15.203125 0 
L 15.203125 6.90625 
L 15.40625 6.90625 
Q 16.796875 4.59375 18.84375 3.046875 
Q 20.90625 1.5 23.203125 0.59375 
Q 25.5 -0.296875 27.84375 -0.6875 
Q 30.203125 -1.09375 32.09375 -1.09375 
Q 38 -1.09375 42.453125 1 
Q 46.90625 3.09375 49.84375 6.75 
Q 52.796875 10.40625 54.25 15.296875 
Q 55.703125 20.203125 55.703125 25.703125 
Q 55.703125 31.203125 54.203125 36.09375 
Q 52.703125 41 49.75 44.75 
Q 46.796875 48.5 42.34375 50.703125 
Q 37.90625 52.90625 31.90625 52.90625 
Q 26.5 52.90625 22 50.953125 
Q 17.5 49 15.40625 44.703125 
L 15.203125 44.703125 
L 15.203125 71.40625 
z
M 46.703125 26.296875 
Q 46.703125 22.5 45.890625 18.890625 
Q 45.09375 15.296875 43.296875 12.5 
Q 41.5 9.703125 38.546875 8 
Q 35.59375 6.296875 31.203125 6.296875 
Q 26.796875 6.296875 23.6875 7.9375 
Q 20.59375 9.59375 18.640625 12.296875 
Q 16.703125 15 15.796875 18.546875 
Q 14.90625 22.09375 14.90625 25.90625 
Q 14.90625 29.5 15.75 33 
Q 16.59375 36.5 18.5 39.25 
Q 20.40625 42 23.40625 43.703125 
Q 26.40625 45.40625 30.703125 45.40625 
Q 34.796875 45.40625 37.84375 43.796875 
Q 40.90625 42.203125 42.84375 39.5 
Q 44.796875 36.796875 45.75 33.34375 
Q 46.703125 29.90625 46.703125 26.296875 
z
" id="HelveticaNeue-98"/>
      <path d="M 7.703125 78.59375 
L 7.703125 -21.296875 
L 14.5 -21.296875 
L 14.5 78.59375 
z
" id="HelveticaNeue-124"/>
      <path d="M 12.59375 25.796875 
Q 12.59375 30.5 13.84375 34.140625 
Q 15.09375 37.796875 17.296875 40.296875 
Q 19.5 42.796875 22.453125 44.09375 
Q 25.40625 45.40625 28.703125 45.40625 
Q 32 45.40625 34.953125 44.09375 
Q 37.90625 42.796875 40.09375 40.296875 
Q 42.296875 37.796875 43.546875 34.140625 
Q 44.796875 30.5 44.796875 25.796875 
Q 44.796875 21.09375 43.546875 17.4375 
Q 42.296875 13.796875 40.09375 11.34375 
Q 37.90625 8.90625 34.953125 7.59375 
Q 32 6.296875 28.703125 6.296875 
Q 25.40625 6.296875 22.453125 7.59375 
Q 19.5 8.90625 17.296875 11.34375 
Q 15.09375 13.796875 13.84375 17.4375 
Q 12.59375 21.09375 12.59375 25.796875 
z
M 3.59375 25.796875 
Q 3.59375 20.09375 5.1875 15.1875 
Q 6.796875 10.296875 10 6.640625 
Q 13.203125 3 17.890625 0.953125 
Q 22.59375 -1.09375 28.703125 -1.09375 
Q 34.90625 -1.09375 39.546875 0.953125 
Q 44.203125 3 47.390625 6.640625 
Q 50.59375 10.296875 52.1875 15.1875 
Q 53.796875 20.09375 53.796875 25.796875 
Q 53.796875 31.5 52.1875 36.453125 
Q 50.59375 41.40625 47.390625 45.046875 
Q 44.203125 48.703125 39.546875 50.796875 
Q 34.90625 52.90625 28.703125 52.90625 
Q 22.59375 52.90625 17.890625 50.796875 
Q 13.203125 48.703125 10 45.046875 
Q 6.796875 41.40625 5.1875 36.453125 
Q 3.59375 31.5 3.59375 25.796875 
z
" id="HelveticaNeue-111"/>
      <path d="M 29.703125 0 
L 48.59375 51.703125 
L 39.703125 51.703125 
L 25.59375 8.59375 
L 25.40625 8.59375 
L 10.90625 51.703125 
L 1.40625 51.703125 
L 20.59375 0 
z
" id="HelveticaNeue-118"/>
      <path d="M 19.40625 40.59375 
L 19.40625 51.703125 
L 8.296875 51.703125 
L 8.296875 40.59375 
z
M 8.296875 11.09375 
L 8.296875 0 
L 19.40625 0 
L 19.40625 11.09375 
z
" id="HelveticaNeue-58"/>
      <path d="M 5 31.796875 
L 5 23.796875 
L 33.90625 23.796875 
L 33.90625 31.796875 
z
" id="HelveticaNeue-45"/>
      <path d="M 41.40625 52.796875 
L 49.90625 52.796875 
Q 49.09375 61.59375 43.890625 66.25 
Q 38.703125 70.90625 29.90625 70.90625 
Q 22.296875 70.90625 17.296875 67.703125 
Q 12.296875 64.5 9.296875 59.203125 
Q 6.296875 53.90625 5.046875 47.046875 
Q 3.796875 40.203125 3.796875 32.90625 
Q 3.796875 27.296875 4.640625 21.296875 
Q 5.5 15.296875 8.09375 10.296875 
Q 10.703125 5.296875 15.5 2.09375 
Q 20.296875 -1.09375 28.203125 -1.09375 
Q 34.90625 -1.09375 39.453125 1.15625 
Q 44 3.40625 46.75 6.84375 
Q 49.5 10.296875 50.703125 14.5 
Q 51.90625 18.703125 51.90625 22.59375 
Q 51.90625 27.5 50.40625 31.703125 
Q 48.90625 35.90625 46.15625 39 
Q 43.40625 42.09375 39.34375 43.84375 
Q 35.296875 45.59375 30.203125 45.59375 
Q 24.40625 45.59375 19.953125 43.390625 
Q 15.5 41.203125 12.5 36.296875 
L 12.296875 36.5 
Q 12.40625 40.59375 13.09375 45.296875 
Q 13.796875 50 15.640625 54.046875 
Q 17.5 58.09375 20.796875 60.75 
Q 24.09375 63.40625 29.5 63.40625 
Q 34.59375 63.40625 37.6875 60.5 
Q 40.796875 57.59375 41.40625 52.796875 
z
M 28.59375 38.09375 
Q 32.203125 38.09375 34.890625 36.796875 
Q 37.59375 35.5 39.390625 33.34375 
Q 41.203125 31.203125 42.046875 28.25 
Q 42.90625 25.296875 42.90625 22 
Q 42.90625 18.90625 41.953125 16.046875 
Q 41 13.203125 39.203125 11 
Q 37.40625 8.796875 34.75 7.546875 
Q 32.09375 6.296875 28.59375 6.296875 
Q 25.09375 6.296875 22.34375 7.546875 
Q 19.59375 8.796875 17.75 10.890625 
Q 15.90625 13 14.90625 15.890625 
Q 13.90625 18.796875 13.90625 22.09375 
Q 13.90625 25.40625 14.84375 28.34375 
Q 15.796875 31.296875 17.6875 33.4375 
Q 19.59375 35.59375 22.296875 36.84375 
Q 25 38.09375 28.59375 38.09375 
z
" id="HelveticaNeue-54"/>
     </defs>
     <use xlink:href="#HelveticaNeue-83"/>
     <use x="64.799988" xlink:href="#HelveticaNeue-97"/>
     <use x="118.499985" xlink:href="#HelveticaNeue-110"/>
     <use x="174.099976" xlink:href="#HelveticaNeue-32"/>
     <use x="201.899963" xlink:href="#HelveticaNeue-67"/>
     <use x="274.099945" xlink:href="#HelveticaNeue-114"/>
     <use x="307.399933" xlink:href="#HelveticaNeue-105"/>
     <use x="329.59993" xlink:href="#HelveticaNeue-115"/>
     <use x="379.599915" xlink:href="#HelveticaNeue-116"/>
     <use x="411.099899" xlink:href="#HelveticaNeue-243"/>
     <use x="468.499893" xlink:href="#HelveticaNeue-98"/>
     <use x="527.799881" xlink:href="#HelveticaNeue-97"/>
     <use x="581.499878" xlink:href="#HelveticaNeue-108"/>
     <use x="603.699875" xlink:href="#HelveticaNeue-32"/>
     <use x="631.499863" xlink:href="#HelveticaNeue-124"/>
     <use x="653.69986" xlink:href="#HelveticaNeue-32"/>
     <use x="681.499847" xlink:href="#HelveticaNeue-67"/>
     <use x="753.699829" xlink:href="#HelveticaNeue-97"/>
     <use x="807.399826" xlink:href="#HelveticaNeue-115"/>
     <use x="857.399811" xlink:href="#HelveticaNeue-111"/>
     <use x="914.799805" xlink:href="#HelveticaNeue-115"/>
     <use x="964.799789" xlink:href="#HelveticaNeue-32"/>
     <use x="992.599777" xlink:href="#HelveticaNeue-110"/>
     <use x="1048.199768" xlink:href="#HelveticaNeue-117"/>
     <use x="1103.799759" xlink:href="#HelveticaNeue-101"/>
     <use x="1157.499756" xlink:href="#HelveticaNeue-118"/>
     <use x="1207.499741" xlink:href="#HelveticaNeue-111"/>
     <use x="1264.899734" xlink:href="#HelveticaNeue-115"/>
     <use x="1314.899719" xlink:href="#HelveticaNeue-58"/>
     <use x="1342.699707" xlink:href="#HelveticaNeue-32"/>
     <use x="1370.499695" xlink:href="#HelveticaNeue-50"/>
     <use x="1426.099686" xlink:href="#HelveticaNeue-48"/>
     <use x="1481.699677" xlink:href="#HelveticaNeue-50"/>
     <use x="1537.299667" xlink:href="#HelveticaNeue-49"/>
     <use x="1592.899658" xlink:href="#HelveticaNeue-45"/>
     <use x="1631.799652" xlink:href="#HelveticaNeue-48"/>
     <use x="1687.399643" xlink:href="#HelveticaNeue-54"/>
     <use x="1742.999634" xlink:href="#HelveticaNeue-45"/>
     <use x="1781.899628" xlink:href="#HelveticaNeue-50"/>
     <use x="1837.499619" xlink:href="#HelveticaNeue-52"/>
    </g>
   </g>
   <g id="legend_1">
    <g id="line2d_24">
     <path d="M 71.5 39.640625 
L 91.5 39.640625 
" style="fill:none;stroke:#000000;stroke-dasharray:1.5,2.475;stroke-dashoffset:0;stroke-opacity:0.5;stroke-width:1.5;"/>
    </g>
    <g id="line2d_25"/>
    <g id="text_12">
     <!-- Actual -->
     <g style="fill:#555555;" transform="translate(99.5 43.140625)scale(0.1 -0.1)">
      <use xlink:href="#HelveticaNeue-65"/>
      <use x="64.799988" xlink:href="#HelveticaNeue-99"/>
      <use x="118.499985" xlink:href="#HelveticaNeue-116"/>
      <use x="149.999969" xlink:href="#HelveticaNeue-117"/>
      <use x="205.59996" xlink:href="#HelveticaNeue-97"/>
      <use x="259.299957" xlink:href="#HelveticaNeue-108"/>
     </g>
    </g>
    <g id="line2d_26">
     <path d="M 71.5 54.310937 
L 91.5 54.310937 
" style="fill:none;stroke:#b3220f;stroke-linecap:square;stroke-width:1.5;"/>
    </g>
    <g id="line2d_27"/>
    <g id="text_13">
     <!-- Promedio semanal (7 días)  -->
     <g style="fill:#555555;" transform="translate(99.5 57.810937)scale(0.1 -0.1)">
      <defs>
       <path d="M 17.296875 37.203125 
L 17.296875 63.40625 
L 35.90625 63.40625 
Q 44 63.40625 47.75 60.046875 
Q 51.5 56.703125 51.5 50.296875 
Q 51.5 43.90625 47.75 40.5 
Q 44 37.09375 35.90625 37.203125 
z
M 7.796875 71.40625 
L 7.796875 0 
L 17.296875 0 
L 17.296875 29.203125 
L 39.09375 29.203125 
Q 49.90625 29.09375 55.453125 34.6875 
Q 61 40.296875 61 50.296875 
Q 61 60.296875 55.453125 65.84375 
Q 49.90625 71.40625 39.09375 71.40625 
z
" id="HelveticaNeue-80"/>
       <path d="M 6.40625 51.703125 
L 6.40625 0 
L 14.90625 0 
L 14.90625 32.203125 
Q 14.90625 33.703125 15.65625 35.953125 
Q 16.40625 38.203125 18.046875 40.296875 
Q 19.703125 42.40625 22.34375 43.90625 
Q 25 45.40625 28.703125 45.40625 
Q 31.59375 45.40625 33.4375 44.546875 
Q 35.296875 43.703125 36.390625 42.140625 
Q 37.5 40.59375 37.953125 38.5 
Q 38.40625 36.40625 38.40625 33.90625 
L 38.40625 0 
L 46.90625 0 
L 46.90625 32.203125 
Q 46.90625 38.203125 50.5 41.796875 
Q 54.09375 45.40625 60.40625 45.40625 
Q 63.5 45.40625 65.453125 44.5 
Q 67.40625 43.59375 68.5 42.046875 
Q 69.59375 40.5 70 38.390625 
Q 70.40625 36.296875 70.40625 33.90625 
L 70.40625 0 
L 78.90625 0 
L 78.90625 37.90625 
Q 78.90625 41.90625 77.65625 44.75 
Q 76.40625 47.59375 74.15625 49.390625 
Q 71.90625 51.203125 68.75 52.046875 
Q 65.59375 52.90625 61.703125 52.90625 
Q 56.59375 52.90625 52.34375 50.59375 
Q 48.09375 48.296875 45.5 44.09375 
Q 43.90625 48.90625 40 50.90625 
Q 36.09375 52.90625 31.296875 52.90625 
Q 20.40625 52.90625 14.59375 44.09375 
L 14.40625 44.09375 
L 14.40625 51.703125 
z
" id="HelveticaNeue-109"/>
       <path d="M 12.59375 25.40625 
Q 12.59375 29.203125 13.390625 32.796875 
Q 14.203125 36.40625 16 39.203125 
Q 17.796875 42 20.796875 43.703125 
Q 23.796875 45.40625 28.09375 45.40625 
Q 32.5 45.40625 35.59375 43.75 
Q 38.703125 42.09375 40.640625 39.390625 
Q 42.59375 36.703125 43.5 33.140625 
Q 44.40625 29.59375 44.40625 25.796875 
Q 44.40625 22.203125 43.546875 18.703125 
Q 42.703125 15.203125 40.796875 12.453125 
Q 38.90625 9.703125 35.90625 8 
Q 32.90625 6.296875 28.59375 6.296875 
Q 24.5 6.296875 21.453125 7.890625 
Q 18.40625 9.5 16.453125 12.203125 
Q 14.5 14.90625 13.546875 18.34375 
Q 12.59375 21.796875 12.59375 25.40625 
z
M 52.59375 0 
L 52.59375 71.40625 
L 44.09375 71.40625 
L 44.09375 44.796875 
L 43.90625 44.796875 
Q 42.5 47.09375 40.453125 48.640625 
Q 38.40625 50.203125 36.09375 51.140625 
Q 33.796875 52.09375 31.5 52.5 
Q 29.203125 52.90625 27.203125 52.90625 
Q 21.296875 52.90625 16.84375 50.75 
Q 12.40625 48.59375 9.453125 44.9375 
Q 6.5 41.296875 5.046875 36.390625 
Q 3.59375 31.5 3.59375 26 
Q 3.59375 20.5 5.09375 15.59375 
Q 6.59375 10.703125 9.546875 7 
Q 12.5 3.296875 16.953125 1.09375 
Q 21.40625 -1.09375 27.40625 -1.09375 
Q 32.796875 -1.09375 37.296875 0.796875 
Q 41.796875 2.703125 43.90625 7 
L 44.09375 7 
L 44.09375 0 
z
" id="HelveticaNeue-100"/>
       <path d="M 20.40625 -19.703125 
L 26.90625 -19.703125 
Q 19.796875 -8.203125 16.75 3.09375 
Q 13.703125 14.40625 13.703125 27 
Q 13.703125 39.296875 16.703125 50.5 
Q 19.703125 61.703125 26.90625 73.09375 
L 20.40625 73.09375 
Q 12.59375 62.796875 8.640625 50.796875 
Q 4.703125 38.796875 4.703125 27 
Q 4.703125 20.40625 5.796875 14.40625 
Q 6.90625 8.40625 8.953125 2.703125 
Q 11 -3 13.890625 -8.546875 
Q 16.796875 -14.09375 20.40625 -19.703125 
z
" id="HelveticaNeue-40"/>
       <path d="M 50.90625 62.40625 
L 50.90625 69.703125 
L 5 69.703125 
L 5 61.703125 
L 42.203125 61.703125 
Q 36.59375 55.796875 31.75 48.796875 
Q 26.90625 41.796875 23.203125 33.9375 
Q 19.5 26.09375 17.140625 17.546875 
Q 14.796875 9 14.203125 0 
L 23.703125 0 
Q 24.203125 8.296875 26.5 17.09375 
Q 28.796875 25.90625 32.4375 34.203125 
Q 36.09375 42.5 40.796875 49.796875 
Q 45.5 57.09375 50.90625 62.40625 
z
" id="HelveticaNeue-55"/>
       <path d="M 6.90625 0 
L 15.40625 0 
L 15.40625 51.703125 
L 6.90625 51.703125 
z
M 25.5 77 
L 11.40625 60.796875 
L 5 60.796875 
L 14.59375 77 
z
" id="HelveticaNeue-237"/>
       <path d="M -0.90625 -19.703125 
L 5.5 -19.703125 
Q 13.296875 -9.40625 17.25 2.546875 
Q 21.203125 14.5 21.203125 26.296875 
Q 21.203125 32.90625 20.09375 38.90625 
Q 19 44.90625 16.953125 50.65625 
Q 14.90625 56.40625 12 61.953125 
Q 9.09375 67.5 5.5 73.09375 
L -0.90625 73.09375 
Q 6.09375 61.59375 9.140625 50.25 
Q 12.203125 38.90625 12.203125 26.296875 
Q 12.203125 14.09375 9.203125 2.84375 
Q 6.203125 -8.40625 -0.90625 -19.703125 
z
" id="HelveticaNeue-41"/>
      </defs>
      <use xlink:href="#HelveticaNeue-80"/>
      <use x="64.799988" xlink:href="#HelveticaNeue-114"/>
      <use x="96.349976" xlink:href="#HelveticaNeue-111"/>
      <use x="153.749969" xlink:href="#HelveticaNeue-109"/>
      <use x="239.049957" xlink:href="#HelveticaNeue-101"/>
      <use x="292.749954" xlink:href="#HelveticaNeue-100"/>
      <use x="352.049942" xlink:href="#HelveticaNeue-105"/>
      <use x="374.249939" xlink:href="#HelveticaNeue-111"/>
      <use x="431.649933" xlink:href="#HelveticaNeue-32"/>
      <use x="459.449921" xlink:href="#HelveticaNeue-115"/>
      <use x="509.449905" xlink:href="#HelveticaNeue-101"/>
      <use x="563.149902" xlink:href="#HelveticaNeue-109"/>
      <use x="648.44989" xlink:href="#HelveticaNeue-97"/>
      <use x="702.149887" xlink:href="#HelveticaNeue-110"/>
      <use x="757.749878" xlink:href="#HelveticaNeue-97"/>
      <use x="811.449875" xlink:href="#HelveticaNeue-108"/>
      <use x="833.649872" xlink:href="#HelveticaNeue-32"/>
      <use x="861.44986" xlink:href="#HelveticaNeue-40"/>
      <use x="887.349854" xlink:href="#HelveticaNeue-55"/>
      <use x="942.949844" xlink:href="#HelveticaNeue-32"/>
      <use x="970.749832" xlink:href="#HelveticaNeue-100"/>
      <use x="1030.04982" xlink:href="#HelveticaNeue-237"/>
      <use x="1052.249817" xlink:href="#HelveticaNeue-97"/>
      <use x="1105.949814" xlink:href="#HelveticaNeue-115"/>
      <use x="1155.949799" xlink:href="#HelveticaNeue-41"/>
      <use x="1181.849792" xlink:href="#HelveticaNeue-32"/>
     </g>
    </g>
   </g>
  </g>
 </g>
 <defs>
  <clipPath id="p3bcc4a6686">
   <rect height="235.5" width="387.5" x="62.5" y="27"/>
  </clipPath>
 </defs>
</svg>
