<?xml version="1.0" encoding="utf-8" standalone="no"?>
<!DOCTYPE svg PUBLIC "-//W3C//DTD SVG 1.1//EN"
  "http://www.w3.org/Graphics/SVG/1.1/DTD/svg11.dtd">
<!-- Created with matplotlib (https://matplotlib.org/) -->
<svg height="300pt" version="1.1" viewBox="0 0 500 300" width="500pt" xmlns="http://www.w3.org/2000/svg" xmlns:xlink="http://www.w3.org/1999/xlink">
 <metadata>
  <rdf:RDF xmlns:cc="http://creativecommons.org/ns#" xmlns:dc="http://purl.org/dc/elements/1.1/" xmlns:rdf="http://www.w3.org/1999/02/22-rdf-syntax-ns#">
   <cc:Work>
    <dc:type rdf:resource="http://purl.org/dc/dcmitype/StillImage"/>
    <dc:date>2021-07-31T15:05:18.671503</dc:date>
    <dc:format>image/svg+xml</dc:format>
    <dc:creator>
     <cc:Agent>
      <dc:title>Matplotlib v3.3.4, https://matplotlib.org/</dc:title>
     </cc:Agent>
    </dc:creator>
   </cc:Work>
  </rdf:RDF>
 </metadata>
 <defs>
  <style type="text/css">*{stroke-linecap:butt;stroke-linejoin:round;}</style>
 </defs>
 <g id="figure_1">
  <g id="patch_1">
   <path d="M 0 300 
L 500 300 
L 500 0 
L 0 0 
z
" style="fill:#ffffff;"/>
  </g>
  <g id="axes_1">
   <g id="patch_2">
    <path d="M 62.5 262.5 
L 450 262.5 
L 450 27 
L 62.5 27 
z
" style="fill:#ffffff;"/>
   </g>
   <g id="matplotlib.axis_1">
    <g id="xtick_1">
     <g id="line2d_1">
      <defs>
       <path d="M 0 0 
L 0 3.5 
" id="mddeda58fa6" style="stroke:#555555;stroke-width:0.8;"/>
      </defs>
      <g>
       <use style="fill:#555555;stroke:#555555;stroke-width:0.8;" x="62.5" xlink:href="#mddeda58fa6" y="262.5"/>
      </g>
     </g>
    </g>
    <g id="xtick_2">
     <g id="line2d_2">
      <g>
       <use style="fill:#555555;stroke:#555555;stroke-width:0.8;" x="123.20279" xlink:href="#mddeda58fa6" y="262.5"/>
      </g>
     </g>
     <g id="text_1">
      <!-- Jul -->
      <g style="fill:#555555;" transform="translate(116.717633 276.640625)scale(0.1 -0.1)">
       <defs>
        <path d="M 44.09375 17.796875 
L 44.09375 71.40625 
L 34.59375 71.40625 
L 34.59375 19.203125 
Q 34.59375 13.296875 32.140625 9.796875 
Q 29.703125 6.296875 23.203125 6.296875 
Q 19.703125 6.296875 17.453125 7.34375 
Q 15.203125 8.40625 13.953125 10.296875 
Q 12.703125 12.203125 12.203125 14.796875 
Q 11.703125 17.40625 11.703125 20.5 
L 11.703125 23.5 
L 2.203125 23.5 
L 2.203125 19.09375 
Q 2.203125 8.90625 7.59375 3.65625 
Q 13 -1.59375 23 -1.59375 
Q 29 -1.59375 33.046875 0.046875 
Q 37.09375 1.703125 39.546875 4.453125 
Q 42 7.203125 43.046875 10.703125 
Q 44.09375 14.203125 44.09375 17.796875 
z
" id="HelveticaNeue-74"/>
        <path d="M 49.203125 0 
L 49.203125 51.703125 
L 40.703125 51.703125 
L 40.703125 22.5 
Q 40.703125 19 39.75 16.046875 
Q 38.796875 13.09375 36.890625 10.890625 
Q 35 8.703125 32.140625 7.5 
Q 29.296875 6.296875 25.40625 6.296875 
Q 20.5 6.296875 17.703125 9.09375 
Q 14.90625 11.90625 14.90625 16.703125 
L 14.90625 51.703125 
L 6.40625 51.703125 
L 6.40625 17.703125 
Q 6.40625 13.5 7.25 10.046875 
Q 8.09375 6.59375 10.1875 4.09375 
Q 12.296875 1.59375 15.6875 0.25 
Q 19.09375 -1.09375 24.203125 -1.09375 
Q 29.90625 -1.09375 34.09375 1.15625 
Q 38.296875 3.40625 41 8.203125 
L 41.203125 8.203125 
L 41.203125 0 
z
" id="HelveticaNeue-117"/>
        <path d="M 6.90625 71.40625 
L 6.90625 0 
L 15.40625 0 
L 15.40625 71.40625 
z
" id="HelveticaNeue-108"/>
       </defs>
       <use xlink:href="#HelveticaNeue-74"/>
       <use x="51.899994" xlink:href="#HelveticaNeue-117"/>
       <use x="107.499985" xlink:href="#HelveticaNeue-108"/>
      </g>
     </g>
    </g>
    <g id="xtick_3">
     <g id="line2d_3">
      <g>
       <use style="fill:#555555;stroke:#555555;stroke-width:0.8;" x="199.704936" xlink:href="#mddeda58fa6" y="262.5"/>
      </g>
     </g>
     <g id="text_2">
      <!-- Oct -->
      <g style="fill:#555555;" transform="translate(191.644779 276.640625)scale(0.1 -0.1)">
       <defs>
        <path d="M 13.296875 35.703125 
Q 13.296875 41.09375 14.6875 46.34375 
Q 16.09375 51.59375 19.09375 55.796875 
Q 22.09375 60 26.796875 62.546875 
Q 31.5 65.09375 38 65.09375 
Q 44.5 65.09375 49.203125 62.546875 
Q 53.90625 60 56.90625 55.796875 
Q 59.90625 51.59375 61.296875 46.34375 
Q 62.703125 41.09375 62.703125 35.703125 
Q 62.703125 30.296875 61.296875 25.046875 
Q 59.90625 19.796875 56.90625 15.59375 
Q 53.90625 11.40625 49.203125 8.84375 
Q 44.5 6.296875 38 6.296875 
Q 31.5 6.296875 26.796875 8.84375 
Q 22.09375 11.40625 19.09375 15.59375 
Q 16.09375 19.796875 14.6875 25.046875 
Q 13.296875 30.296875 13.296875 35.703125 
z
M 3.796875 35.703125 
Q 3.796875 28.40625 5.9375 21.65625 
Q 8.09375 14.90625 12.390625 9.703125 
Q 16.703125 4.5 23.09375 1.453125 
Q 29.5 -1.59375 38 -1.59375 
Q 46.5 -1.59375 52.890625 1.453125 
Q 59.296875 4.5 63.59375 9.703125 
Q 67.90625 14.90625 70.046875 21.65625 
Q 72.203125 28.40625 72.203125 35.703125 
Q 72.203125 43 70.046875 49.75 
Q 67.90625 56.5 63.59375 61.703125 
Q 59.296875 66.90625 52.890625 70 
Q 46.5 73.09375 38 73.09375 
Q 29.5 73.09375 23.09375 70 
Q 16.703125 66.90625 12.390625 61.703125 
Q 8.09375 56.5 5.9375 49.75 
Q 3.796875 43 3.796875 35.703125 
z
" id="HelveticaNeue-79"/>
        <path d="M 41.5 35.09375 
L 50.296875 35.09375 
Q 49.796875 39.703125 47.890625 43.046875 
Q 46 46.40625 43.046875 48.59375 
Q 40.09375 50.796875 36.25 51.84375 
Q 32.40625 52.90625 28 52.90625 
Q 21.90625 52.90625 17.296875 50.75 
Q 12.703125 48.59375 9.640625 44.84375 
Q 6.59375 41.09375 5.09375 36.046875 
Q 3.59375 31 3.59375 25.203125 
Q 3.59375 19.40625 5.140625 14.546875 
Q 6.703125 9.703125 9.75 6.203125 
Q 12.796875 2.703125 17.34375 0.796875 
Q 21.90625 -1.09375 27.796875 -1.09375 
Q 37.703125 -1.09375 43.453125 4.09375 
Q 49.203125 9.296875 50.59375 18.90625 
L 41.90625 18.90625 
Q 41.09375 12.90625 37.546875 9.59375 
Q 34 6.296875 27.703125 6.296875 
Q 23.703125 6.296875 20.796875 7.890625 
Q 17.90625 9.5 16.09375 12.140625 
Q 14.296875 14.796875 13.4375 18.1875 
Q 12.59375 21.59375 12.59375 25.203125 
Q 12.59375 29.09375 13.390625 32.75 
Q 14.203125 36.40625 16.046875 39.203125 
Q 17.90625 42 21 43.703125 
Q 24.09375 45.40625 28.703125 45.40625 
Q 34.09375 45.40625 37.296875 42.703125 
Q 40.5 40 41.5 35.09375 
z
" id="HelveticaNeue-99"/>
        <path d="M 18.203125 51.703125 
L 18.203125 67.203125 
L 9.703125 67.203125 
L 9.703125 51.703125 
L 0.90625 51.703125 
L 0.90625 44.203125 
L 9.703125 44.203125 
L 9.703125 11.296875 
Q 9.703125 7.703125 10.390625 5.5 
Q 11.09375 3.296875 12.546875 2.09375 
Q 14 0.90625 16.34375 0.453125 
Q 18.703125 0 22 0 
L 28.5 0 
L 28.5 7.5 
L 24.59375 7.5 
Q 22.59375 7.5 21.34375 7.640625 
Q 20.09375 7.796875 19.390625 8.296875 
Q 18.703125 8.796875 18.453125 9.6875 
Q 18.203125 10.59375 18.203125 12.09375 
L 18.203125 44.203125 
L 28.5 44.203125 
L 28.5 51.703125 
z
" id="HelveticaNeue-116"/>
       </defs>
       <use xlink:href="#HelveticaNeue-79"/>
       <use x="75.999985" xlink:href="#HelveticaNeue-99"/>
       <use x="129.699982" xlink:href="#HelveticaNeue-116"/>
      </g>
     </g>
    </g>
    <g id="xtick_4">
     <g id="line2d_4">
      <g>
       <use style="fill:#555555;stroke:#555555;stroke-width:0.8;" x="276.207082" xlink:href="#mddeda58fa6" y="262.5"/>
      </g>
     </g>
     <g id="text_3">
      <!-- Jan -->
      <g style="fill:#555555;" transform="translate(268.146925 276.640625)scale(0.1 -0.1)">
       <defs>
        <path d="M 52.203125 0.203125 
Q 50 -1.09375 46.09375 -1.09375 
Q 42.796875 -1.09375 40.84375 0.75 
Q 38.90625 2.59375 38.90625 6.796875 
Q 35.40625 2.59375 30.75 0.75 
Q 26.09375 -1.09375 20.703125 -1.09375 
Q 17.203125 -1.09375 14.046875 -0.296875 
Q 10.90625 0.5 8.59375 2.203125 
Q 6.296875 3.90625 4.9375 6.65625 
Q 3.59375 9.40625 3.59375 13.296875 
Q 3.59375 17.703125 5.09375 20.5 
Q 6.59375 23.296875 9.046875 25.046875 
Q 11.5 26.796875 14.640625 27.6875 
Q 17.796875 28.59375 21.09375 29.203125 
Q 24.59375 29.90625 27.75 30.25 
Q 30.90625 30.59375 33.296875 31.25 
Q 35.703125 31.90625 37.09375 33.15625 
Q 38.5 34.40625 38.5 36.796875 
Q 38.5 39.59375 37.453125 41.296875 
Q 36.40625 43 34.75 43.890625 
Q 33.09375 44.796875 31.046875 45.09375 
Q 29 45.40625 27 45.40625 
Q 21.59375 45.40625 18 43.34375 
Q 14.40625 41.296875 14.09375 35.59375 
L 5.59375 35.59375 
Q 5.796875 40.40625 7.59375 43.703125 
Q 9.40625 47 12.40625 49.046875 
Q 15.40625 51.09375 19.25 52 
Q 23.09375 52.90625 27.5 52.90625 
Q 31 52.90625 34.453125 52.40625 
Q 37.90625 51.90625 40.703125 50.34375 
Q 43.5 48.796875 45.203125 46 
Q 46.90625 43.203125 46.90625 38.703125 
L 46.90625 12.09375 
Q 46.90625 9.09375 47.25 7.6875 
Q 47.59375 6.296875 49.59375 6.296875 
Q 50.703125 6.296875 52.203125 6.796875 
z
M 38.40625 26.703125 
Q 36.796875 25.5 34.1875 24.953125 
Q 31.59375 24.40625 28.75 24.046875 
Q 25.90625 23.703125 23 23.25 
Q 20.09375 22.796875 17.796875 21.796875 
Q 15.5 20.796875 14.046875 18.9375 
Q 12.59375 17.09375 12.59375 13.90625 
Q 12.59375 11.796875 13.4375 10.34375 
Q 14.296875 8.90625 15.640625 8 
Q 17 7.09375 18.796875 6.6875 
Q 20.59375 6.296875 22.59375 6.296875 
Q 26.796875 6.296875 29.796875 7.4375 
Q 32.796875 8.59375 34.6875 10.34375 
Q 36.59375 12.09375 37.5 14.140625 
Q 38.40625 16.203125 38.40625 18 
z
" id="HelveticaNeue-97"/>
        <path d="M 6.40625 51.703125 
L 6.40625 0 
L 14.90625 0 
L 14.90625 29.203125 
Q 14.90625 32.703125 15.84375 35.640625 
Q 16.796875 38.59375 18.6875 40.796875 
Q 20.59375 43 23.4375 44.203125 
Q 26.296875 45.40625 30.203125 45.40625 
Q 35.09375 45.40625 37.890625 42.59375 
Q 40.703125 39.796875 40.703125 35 
L 40.703125 0 
L 49.203125 0 
L 49.203125 34 
Q 49.203125 38.203125 48.34375 41.640625 
Q 47.5 45.09375 45.390625 47.59375 
Q 43.296875 50.09375 39.890625 51.5 
Q 36.5 52.90625 31.40625 52.90625 
Q 19.90625 52.90625 14.59375 43.5 
L 14.40625 43.5 
L 14.40625 51.703125 
z
" id="HelveticaNeue-110"/>
       </defs>
       <use xlink:href="#HelveticaNeue-74"/>
       <use x="51.899994" xlink:href="#HelveticaNeue-97"/>
       <use x="105.599991" xlink:href="#HelveticaNeue-110"/>
      </g>
      <!-- 2021 -->
      <g style="fill:#555555;" transform="translate(265.088332 287.179688)scale(0.1 -0.1)">
       <defs>
        <path d="M 4.40625 45.796875 
L 12.90625 45.796875 
Q 12.796875 49 13.546875 52.140625 
Q 14.296875 55.296875 16 57.796875 
Q 17.703125 60.296875 20.34375 61.84375 
Q 23 63.40625 26.703125 63.40625 
Q 29.5 63.40625 32 62.5 
Q 34.5 61.59375 36.34375 59.890625 
Q 38.203125 58.203125 39.296875 55.84375 
Q 40.40625 53.5 40.40625 50.59375 
Q 40.40625 46.90625 39.25 44.09375 
Q 38.09375 41.296875 35.84375 38.890625 
Q 33.59375 36.5 30.1875 34.140625 
Q 26.796875 31.796875 22.296875 29 
Q 18.59375 26.796875 15.1875 24.296875 
Q 11.796875 21.796875 9.09375 18.5 
Q 6.40625 15.203125 4.65625 10.75 
Q 2.90625 6.296875 2.40625 0 
L 48.703125 0 
L 48.703125 7.5 
L 12.296875 7.5 
Q 12.90625 10.796875 14.84375 13.34375 
Q 16.796875 15.90625 19.546875 18.09375 
Q 22.296875 20.296875 25.59375 22.25 
Q 28.90625 24.203125 32.203125 26.203125 
Q 35.5 28.296875 38.59375 30.59375 
Q 41.703125 32.90625 44.09375 35.75 
Q 46.5 38.59375 47.953125 42.1875 
Q 49.40625 45.796875 49.40625 50.5 
Q 49.40625 55.5 47.65625 59.296875 
Q 45.90625 63.09375 42.90625 65.640625 
Q 39.90625 68.203125 35.84375 69.546875 
Q 31.796875 70.90625 27.203125 70.90625 
Q 21.59375 70.90625 17.1875 69 
Q 12.796875 67.09375 9.84375 63.75 
Q 6.90625 60.40625 5.5 55.796875 
Q 4.09375 51.203125 4.40625 45.796875 
z
" id="HelveticaNeue-50"/>
        <path d="M 13.203125 34.90625 
Q 13.203125 37.5 13.25 40.640625 
Q 13.296875 43.796875 13.75 46.9375 
Q 14.203125 50.09375 15.046875 53.09375 
Q 15.90625 56.09375 17.546875 58.34375 
Q 19.203125 60.59375 21.703125 62 
Q 24.203125 63.40625 27.796875 63.40625 
Q 31.40625 63.40625 33.90625 62 
Q 36.40625 60.59375 38.046875 58.34375 
Q 39.703125 56.09375 40.546875 53.09375 
Q 41.40625 50.09375 41.84375 46.9375 
Q 42.296875 43.796875 42.34375 40.640625 
Q 42.40625 37.5 42.40625 34.90625 
Q 42.40625 30.90625 42.15625 25.953125 
Q 41.90625 21 40.546875 16.640625 
Q 39.203125 12.296875 36.203125 9.296875 
Q 33.203125 6.296875 27.796875 6.296875 
Q 22.40625 6.296875 19.40625 9.296875 
Q 16.40625 12.296875 15.046875 16.640625 
Q 13.703125 21 13.453125 25.953125 
Q 13.203125 30.90625 13.203125 34.90625 
z
M 4.203125 34.796875 
Q 4.203125 30.90625 4.390625 26.703125 
Q 4.59375 22.5 5.390625 18.5 
Q 6.203125 14.5 7.703125 10.953125 
Q 9.203125 7.40625 11.796875 4.703125 
Q 14.40625 2 18.34375 0.453125 
Q 22.296875 -1.09375 27.796875 -1.09375 
Q 33.40625 -1.09375 37.296875 0.453125 
Q 41.203125 2 43.796875 4.703125 
Q 46.40625 7.40625 47.90625 10.953125 
Q 49.40625 14.5 50.203125 18.5 
Q 51 22.5 51.203125 26.703125 
Q 51.40625 30.90625 51.40625 34.796875 
Q 51.40625 38.703125 51.203125 42.890625 
Q 51 47.09375 50.203125 51.09375 
Q 49.40625 55.09375 47.90625 58.6875 
Q 46.40625 62.296875 43.796875 65 
Q 41.203125 67.703125 37.25 69.296875 
Q 33.296875 70.90625 27.796875 70.90625 
Q 22.296875 70.90625 18.34375 69.296875 
Q 14.40625 67.703125 11.796875 65 
Q 9.203125 62.296875 7.703125 58.6875 
Q 6.203125 55.09375 5.390625 51.09375 
Q 4.59375 47.09375 4.390625 42.890625 
Q 4.203125 38.703125 4.203125 34.796875 
z
" id="HelveticaNeue-48"/>
        <path d="M 35.59375 0 
L 35.59375 70.90625 
L 29.09375 70.90625 
Q 28.40625 66.90625 26.5 64.296875 
Q 24.59375 61.703125 21.84375 60.203125 
Q 19.09375 58.703125 15.6875 58.140625 
Q 12.296875 57.59375 8.703125 57.59375 
L 8.703125 50.796875 
L 27.09375 50.796875 
L 27.09375 0 
z
" id="HelveticaNeue-49"/>
       </defs>
       <use xlink:href="#HelveticaNeue-50"/>
       <use x="55.599991" xlink:href="#HelveticaNeue-48"/>
       <use x="111.199982" xlink:href="#HelveticaNeue-50"/>
       <use x="166.799973" xlink:href="#HelveticaNeue-49"/>
      </g>
     </g>
    </g>
    <g id="xtick_5">
     <g id="line2d_5">
      <g>
       <use style="fill:#555555;stroke:#555555;stroke-width:0.8;" x="351.046137" xlink:href="#mddeda58fa6" y="262.5"/>
      </g>
     </g>
     <g id="text_4">
      <!-- Apr -->
      <g style="fill:#555555;" transform="translate(343.176606 276.640625)scale(0.1 -0.1)">
       <defs>
        <path d="M 20.09375 29.5 
L 32.203125 62.796875 
L 32.40625 62.796875 
L 44.296875 29.5 
z
M 27.203125 71.40625 
L -0.59375 0 
L 9.09375 0 
L 17.09375 21.5 
L 47.296875 21.5 
L 55.09375 0 
L 65.59375 0 
L 37.703125 71.40625 
z
" id="HelveticaNeue-65"/>
        <path d="M 6.703125 51.703125 
L 6.703125 -19.703125 
L 15.203125 -19.703125 
L 15.203125 6.90625 
L 15.40625 6.90625 
Q 16.796875 4.59375 18.84375 3.046875 
Q 20.90625 1.5 23.203125 0.59375 
Q 25.5 -0.296875 27.84375 -0.6875 
Q 30.203125 -1.09375 32.09375 -1.09375 
Q 38 -1.09375 42.453125 1 
Q 46.90625 3.09375 49.84375 6.75 
Q 52.796875 10.40625 54.25 15.296875 
Q 55.703125 20.203125 55.703125 25.703125 
Q 55.703125 31.203125 54.203125 36.09375 
Q 52.703125 41 49.75 44.75 
Q 46.796875 48.5 42.34375 50.703125 
Q 37.90625 52.90625 31.90625 52.90625 
Q 26.5 52.90625 22 50.953125 
Q 17.5 49 15.40625 44.703125 
L 15.203125 44.703125 
L 15.203125 51.703125 
z
M 46.703125 26.296875 
Q 46.703125 22.5 45.890625 18.890625 
Q 45.09375 15.296875 43.296875 12.5 
Q 41.5 9.703125 38.546875 8 
Q 35.59375 6.296875 31.203125 6.296875 
Q 26.796875 6.296875 23.6875 7.9375 
Q 20.59375 9.59375 18.640625 12.296875 
Q 16.703125 15 15.796875 18.546875 
Q 14.90625 22.09375 14.90625 25.90625 
Q 14.90625 29.5 15.75 33 
Q 16.59375 36.5 18.5 39.25 
Q 20.40625 42 23.40625 43.703125 
Q 26.40625 45.40625 30.703125 45.40625 
Q 34.796875 45.40625 37.84375 43.796875 
Q 40.90625 42.203125 42.84375 39.5 
Q 44.796875 36.796875 45.75 33.34375 
Q 46.703125 29.90625 46.703125 26.296875 
z
" id="HelveticaNeue-112"/>
        <path d="M 6.09375 51.703125 
L 6.09375 0 
L 14.59375 0 
L 14.59375 23 
Q 14.59375 28 15.59375 31.84375 
Q 16.59375 35.703125 18.796875 38.390625 
Q 21 41.09375 24.59375 42.5 
Q 28.203125 43.90625 33.296875 43.90625 
L 33.296875 52.90625 
Q 26.40625 53.09375 21.90625 50.09375 
Q 17.40625 47.09375 14.296875 40.796875 
L 14.09375 40.796875 
L 14.09375 51.703125 
z
" id="HelveticaNeue-114"/>
       </defs>
       <use xlink:href="#HelveticaNeue-65"/>
       <use x="64.799988" xlink:href="#HelveticaNeue-112"/>
       <use x="124.099976" xlink:href="#HelveticaNeue-114"/>
      </g>
     </g>
    </g>
    <g id="xtick_6">
     <g id="line2d_6">
      <g>
       <use style="fill:#555555;stroke:#555555;stroke-width:0.8;" x="426.716738" xlink:href="#mddeda58fa6" y="262.5"/>
      </g>
     </g>
     <g id="text_5">
      <!-- Jul -->
      <g style="fill:#555555;" transform="translate(420.231582 276.640625)scale(0.1 -0.1)">
       <use xlink:href="#HelveticaNeue-74"/>
       <use x="51.899994" xlink:href="#HelveticaNeue-117"/>
       <use x="107.499985" xlink:href="#HelveticaNeue-108"/>
      </g>
     </g>
    </g>
    <g id="xtick_7">
     <g id="line2d_7">
      <g>
       <use style="fill:#555555;stroke:#555555;stroke-width:0.8;" x="450" xlink:href="#mddeda58fa6" y="262.5"/>
      </g>
     </g>
    </g>
    <g id="xtick_8">
     <g id="line2d_8">
      <defs>
       <path d="M 0 0 
L 0 2 
" id="ma5914f0632" style="stroke:#555555;stroke-width:0.6;"/>
      </defs>
      <g>
       <use style="fill:#555555;stroke:#555555;stroke-width:0.6;" x="72.478541" xlink:href="#ma5914f0632" y="262.5"/>
      </g>
     </g>
    </g>
    <g id="xtick_9">
     <g id="line2d_9">
      <g>
       <use style="fill:#555555;stroke:#555555;stroke-width:0.6;" x="98.256438" xlink:href="#ma5914f0632" y="262.5"/>
      </g>
     </g>
    </g>
    <g id="xtick_10">
     <g id="line2d_10">
      <g>
       <use style="fill:#555555;stroke:#555555;stroke-width:0.6;" x="148.980687" xlink:href="#ma5914f0632" y="262.5"/>
      </g>
     </g>
    </g>
    <g id="xtick_11">
     <g id="line2d_11">
      <g>
       <use style="fill:#555555;stroke:#555555;stroke-width:0.6;" x="174.758584" xlink:href="#ma5914f0632" y="262.5"/>
      </g>
     </g>
    </g>
    <g id="xtick_12">
     <g id="line2d_12">
      <g>
       <use style="fill:#555555;stroke:#555555;stroke-width:0.6;" x="225.482833" xlink:href="#ma5914f0632" y="262.5"/>
      </g>
     </g>
    </g>
    <g id="xtick_13">
     <g id="line2d_13">
      <g>
       <use style="fill:#555555;stroke:#555555;stroke-width:0.6;" x="250.429185" xlink:href="#ma5914f0632" y="262.5"/>
      </g>
     </g>
    </g>
    <g id="xtick_14">
     <g id="line2d_14">
      <g>
       <use style="fill:#555555;stroke:#555555;stroke-width:0.6;" x="301.984979" xlink:href="#ma5914f0632" y="262.5"/>
      </g>
     </g>
    </g>
    <g id="xtick_15">
     <g id="line2d_15">
      <g>
       <use style="fill:#555555;stroke:#555555;stroke-width:0.6;" x="325.26824" xlink:href="#ma5914f0632" y="262.5"/>
      </g>
     </g>
    </g>
    <g id="xtick_16">
     <g id="line2d_16">
      <g>
       <use style="fill:#555555;stroke:#555555;stroke-width:0.6;" x="375.992489" xlink:href="#ma5914f0632" y="262.5"/>
      </g>
     </g>
    </g>
    <g id="xtick_17">
     <g id="line2d_17">
      <g>
       <use style="fill:#555555;stroke:#555555;stroke-width:0.6;" x="401.770386" xlink:href="#ma5914f0632" y="262.5"/>
      </g>
     </g>
    </g>
    <g id="text_6">
     <!-- fecha -->
     <g style="fill:#555555;" transform="translate(243.935156 300.290625)scale(0.1 -0.1)">
      <defs>
       <path d="M 9.90625 44.203125 
L 9.90625 0 
L 18.40625 0 
L 18.40625 44.203125 
L 28.40625 44.203125 
L 28.40625 51.703125 
L 18.40625 51.703125 
L 18.40625 58.90625 
Q 18.40625 62.296875 20.09375 63.5 
Q 21.796875 64.703125 24.90625 64.703125 
Q 26 64.703125 27.296875 64.546875 
Q 28.59375 64.40625 29.703125 64 
L 29.703125 71.40625 
Q 28.5 71.796875 26.953125 72 
Q 25.40625 72.203125 24.203125 72.203125 
Q 17.203125 72.203125 13.546875 68.953125 
Q 9.90625 65.703125 9.90625 59.40625 
L 9.90625 51.703125 
L 1.203125 51.703125 
L 1.203125 44.203125 
z
" id="HelveticaNeue-102"/>
       <path d="M 42.296875 30.796875 
L 12.59375 30.796875 
Q 12.796875 33.796875 13.890625 36.4375 
Q 15 39.09375 16.890625 41.09375 
Q 18.796875 43.09375 21.4375 44.25 
Q 24.09375 45.40625 27.40625 45.40625 
Q 30.59375 45.40625 33.25 44.25 
Q 35.90625 43.09375 37.84375 41.140625 
Q 39.796875 39.203125 40.9375 36.5 
Q 42.09375 33.796875 42.296875 30.796875 
z
M 50.5 16.40625 
L 42.09375 16.40625 
Q 41 11.296875 37.546875 8.796875 
Q 34.09375 6.296875 28.703125 6.296875 
Q 24.5 6.296875 21.390625 7.6875 
Q 18.296875 9.09375 16.296875 11.4375 
Q 14.296875 13.796875 13.390625 16.84375 
Q 12.5 19.90625 12.59375 23.296875 
L 51.296875 23.296875 
Q 51.5 28 50.453125 33.203125 
Q 49.40625 38.40625 46.65625 42.796875 
Q 43.90625 47.203125 39.34375 50.046875 
Q 34.796875 52.90625 27.90625 52.90625 
Q 22.59375 52.90625 18.140625 50.90625 
Q 13.703125 48.90625 10.453125 45.296875 
Q 7.203125 41.703125 5.390625 36.796875 
Q 3.59375 31.90625 3.59375 26 
Q 3.796875 20.09375 5.34375 15.09375 
Q 6.90625 10.09375 10 6.5 
Q 13.09375 2.90625 17.640625 0.90625 
Q 22.203125 -1.09375 28.40625 -1.09375 
Q 37.203125 -1.09375 43 3.296875 
Q 48.796875 7.703125 50.5 16.40625 
z
" id="HelveticaNeue-101"/>
       <path d="M 6.40625 71.40625 
L 6.40625 0 
L 14.90625 0 
L 14.90625 29.203125 
Q 14.90625 32.703125 15.84375 35.640625 
Q 16.796875 38.59375 18.6875 40.796875 
Q 20.59375 43 23.4375 44.203125 
Q 26.296875 45.40625 30.203125 45.40625 
Q 35.09375 45.40625 37.890625 42.59375 
Q 40.703125 39.796875 40.703125 35 
L 40.703125 0 
L 49.203125 0 
L 49.203125 34 
Q 49.203125 38.203125 48.34375 41.640625 
Q 47.5 45.09375 45.390625 47.59375 
Q 43.296875 50.09375 39.890625 51.5 
Q 36.5 52.90625 31.40625 52.90625 
Q 29.09375 52.90625 26.640625 52.40625 
Q 24.203125 51.90625 21.953125 50.84375 
Q 19.703125 49.796875 17.890625 48.140625 
Q 16.09375 46.5 15.09375 44.09375 
L 14.90625 44.09375 
L 14.90625 71.40625 
z
" id="HelveticaNeue-104"/>
      </defs>
      <use xlink:href="#HelveticaNeue-102"/>
      <use x="29.599991" xlink:href="#HelveticaNeue-101"/>
      <use x="83.299988" xlink:href="#HelveticaNeue-99"/>
      <use x="136.999985" xlink:href="#HelveticaNeue-104"/>
      <use x="192.599976" xlink:href="#HelveticaNeue-97"/>
     </g>
    </g>
   </g>
   <g id="matplotlib.axis_2">
    <g id="ytick_1">
     <g id="line2d_18">
      <defs>
       <path d="M 0 0 
L -3.5 0 
" id="m4a48fee21b" style="stroke:#555555;stroke-width:0.8;"/>
      </defs>
      <g>
       <use style="fill:#555555;stroke:#555555;stroke-width:0.8;" x="62.5" xlink:href="#m4a48fee21b" y="251.795455"/>
      </g>
     </g>
     <g id="text_7">
      <!-- 0 -->
      <g style="fill:#555555;" transform="translate(49.940625 255.365767)scale(0.1 -0.1)">
       <use xlink:href="#HelveticaNeue-48"/>
      </g>
     </g>
    </g>
    <g id="ytick_2">
     <g id="line2d_19">
      <g>
       <use style="fill:#555555;stroke:#555555;stroke-width:0.8;" x="62.5" xlink:href="#m4a48fee21b" y="210.304968"/>
      </g>
     </g>
     <g id="text_8">
      <!-- 50 -->
      <g style="fill:#555555;" transform="translate(44.38125 213.875281)scale(0.1 -0.1)">
       <defs>
        <path d="M 47 62.203125 
L 47 69.703125 
L 12 69.703125 
L 5.40625 32.90625 
L 12.703125 32.5 
Q 15.203125 35.5 18.453125 37.34375 
Q 21.703125 39.203125 25.90625 39.203125 
Q 29.5 39.203125 32.453125 38 
Q 35.40625 36.796875 37.5 34.640625 
Q 39.59375 32.5 40.75 29.546875 
Q 41.90625 26.59375 41.90625 23.09375 
Q 41.90625 18.90625 40.703125 15.75 
Q 39.5 12.59375 37.453125 10.5 
Q 35.40625 8.40625 32.65625 7.34375 
Q 29.90625 6.296875 26.90625 6.296875 
Q 23.703125 6.296875 21.046875 7.25 
Q 18.40625 8.203125 16.453125 9.953125 
Q 14.5 11.703125 13.34375 14.046875 
Q 12.203125 16.40625 12 19.09375 
L 3.5 19.09375 
Q 3.59375 14.296875 5.390625 10.5 
Q 7.203125 6.703125 10.296875 4.140625 
Q 13.40625 1.59375 17.453125 0.25 
Q 21.5 -1.09375 26.09375 -1.09375 
Q 32.296875 -1.09375 36.9375 0.84375 
Q 41.59375 2.796875 44.6875 6.09375 
Q 47.796875 9.40625 49.34375 13.65625 
Q 50.90625 17.90625 50.90625 22.40625 
Q 50.90625 28.5 49.09375 33.046875 
Q 47.296875 37.59375 44.1875 40.640625 
Q 41.09375 43.703125 36.890625 45.203125 
Q 32.703125 46.703125 28 46.703125 
Q 24.40625 46.703125 20.75 45.453125 
Q 17.09375 44.203125 14.796875 41.59375 
L 14.59375 41.796875 
L 18.40625 62.203125 
z
" id="HelveticaNeue-53"/>
       </defs>
       <use xlink:href="#HelveticaNeue-53"/>
       <use x="55.599991" xlink:href="#HelveticaNeue-48"/>
      </g>
     </g>
    </g>
    <g id="ytick_3">
     <g id="line2d_20">
      <g>
       <use style="fill:#555555;stroke:#555555;stroke-width:0.8;" x="62.5" xlink:href="#m4a48fee21b" y="168.814482"/>
      </g>
     </g>
     <g id="text_9">
      <!-- 100 -->
      <g style="fill:#555555;" transform="translate(38.821875 172.384795)scale(0.1 -0.1)">
       <use xlink:href="#HelveticaNeue-49"/>
       <use x="55.599991" xlink:href="#HelveticaNeue-48"/>
       <use x="111.199982" xlink:href="#HelveticaNeue-48"/>
      </g>
     </g>
    </g>
    <g id="ytick_4">
     <g id="line2d_21">
      <g>
       <use style="fill:#555555;stroke:#555555;stroke-width:0.8;" x="62.5" xlink:href="#m4a48fee21b" y="127.323996"/>
      </g>
     </g>
     <g id="text_10">
      <!-- 150 -->
      <g style="fill:#555555;" transform="translate(38.821875 130.894308)scale(0.1 -0.1)">
       <use xlink:href="#HelveticaNeue-49"/>
       <use x="55.599991" xlink:href="#HelveticaNeue-53"/>
       <use x="111.199982" xlink:href="#HelveticaNeue-48"/>
      </g>
     </g>
    </g>
    <g id="ytick_5">
     <g id="line2d_22">
      <g>
       <use style="fill:#555555;stroke:#555555;stroke-width:0.8;" x="62.5" xlink:href="#m4a48fee21b" y="85.83351"/>
      </g>
     </g>
     <g id="text_11">
      <!-- 200 -->
      <g style="fill:#555555;" transform="translate(38.821875 89.403822)scale(0.1 -0.1)">
       <use xlink:href="#HelveticaNeue-50"/>
       <use x="55.599991" xlink:href="#HelveticaNeue-48"/>
       <use x="111.199982" xlink:href="#HelveticaNeue-48"/>
      </g>
     </g>
    </g>
    <g id="ytick_6">
     <g id="line2d_23">
      <g>
       <use style="fill:#555555;stroke:#555555;stroke-width:0.8;" x="62.5" xlink:href="#m4a48fee21b" y="44.343023"/>
      </g>
     </g>
     <g id="text_12">
      <!-- 250 -->
      <g style="fill:#555555;" transform="translate(38.821875 47.913336)scale(0.1 -0.1)">
       <use xlink:href="#HelveticaNeue-50"/>
       <use x="55.599991" xlink:href="#HelveticaNeue-53"/>
       <use x="111.199982" xlink:href="#HelveticaNeue-48"/>
      </g>
     </g>
    </g>
   </g>
   <g id="line2d_24">
    <path clip-path="url(#p8aee43cacb)" d="M 62.5 251.795455 
L 63.331545 250.965645 
L 64.16309 251.795455 
L 64.994635 250.135835 
L 65.82618 251.795455 
L 66.657725 251.795455 
L 67.48927 249.306025 
L 68.320815 251.795455 
L 69.152361 250.135835 
L 69.983906 251.795455 
L 70.815451 250.965645 
L 71.646996 250.965645 
L 72.478541 251.795455 
L 73.310086 250.965645 
L 74.973176 250.965645 
L 75.804721 245.156977 
L 76.636266 251.795455 
L 77.467811 248.476216 
L 78.299356 249.306025 
L 79.130901 251.795455 
L 79.962446 248.476216 
L 80.793991 250.965645 
L 82.457082 250.965645 
L 83.288627 249.306025 
L 84.120172 248.476216 
L 84.951717 249.306025 
L 85.783262 245.156977 
L 86.614807 249.306025 
L 88.277897 242.667548 
L 89.109442 248.476216 
L 89.940987 242.667548 
L 90.772532 246.816596 
L 91.604077 251.795455 
L 92.435622 244.327167 
L 93.267167 245.986786 
L 94.098712 244.327167 
L 94.930258 247.646406 
L 95.761803 249.306025 
L 96.593348 244.327167 
L 97.424893 241.837738 
L 98.256438 245.156977 
L 99.087983 241.837738 
L 99.919528 242.667548 
L 100.751073 241.837738 
L 101.582618 244.327167 
L 102.414163 249.306025 
L 103.245708 244.327167 
L 104.077253 247.646406 
L 104.908798 243.497357 
L 105.740343 244.327167 
L 106.571888 248.476216 
L 107.403433 250.135835 
L 108.234979 241.837738 
L 109.066524 247.646406 
L 109.898069 246.816596 
L 110.729614 235.19926 
L 111.561159 243.497357 
L 112.392704 238.518499 
L 113.224249 241.007928 
L 114.055794 228.560782 
L 114.887339 231.880021 
L 115.718884 238.518499 
L 116.550429 227.730973 
L 117.381974 226.071353 
L 118.213519 242.667548 
L 119.045064 236.02907 
L 119.876609 238.518499 
L 120.708155 235.19926 
L 121.5397 242.667548 
L 122.371245 215.283827 
L 123.20279 231.050211 
L 124.034335 162.176004 
L 124.86588 233.539641 
L 125.697425 156.367336 
L 126.52897 231.880021 
L 127.360515 230.220402 
L 128.19206 211.964588 
L 129.023605 203.66649 
L 129.85515 184.580867 
L 130.686695 223.581924 
L 131.51824 225.241543 
L 132.349785 221.922304 
L 133.18133 212.794397 
L 134.012876 232.709831 
L 134.844421 219.432875 
L 135.675966 203.66649 
L 136.507511 190.389535 
L 138.170601 200.347252 
L 139.002146 217.773256 
L 139.833691 174.62315 
L 140.665236 191.219345 
L 141.496781 170.474101 
L 142.328326 144.75 
L 143.159871 212.794397 
L 143.991416 221.922304 
L 144.822961 177.942389 
L 145.654506 209.475159 
L 146.486052 197.857822 
L 147.317597 182.921247 
L 148.149142 225.241543 
L 148.980687 214.454017 
L 149.812232 223.581924 
L 150.643777 205.32611 
L 151.475322 182.921247 
L 153.138412 213.624207 
L 153.969957 207.815539 
L 154.801502 210.304968 
L 155.633047 213.624207 
L 156.464592 197.028013 
L 157.296137 176.28277 
L 158.127682 213.624207 
L 158.959227 221.922304 
L 159.790773 224.411734 
L 160.622318 215.283827 
L 161.453863 211.134778 
L 162.285408 208.645349 
L 163.116953 193.708774 
L 163.948498 213.624207 
L 164.780043 202.836681 
L 165.611588 217.773256 
L 166.443133 221.922304 
L 167.274678 177.112579 
L 168.106223 192.049154 
L 168.937768 214.454017 
L 170.600858 231.880021 
L 171.432403 201.177061 
L 172.263948 219.432875 
L 173.095494 223.581924 
L 173.927039 218.603066 
L 174.758584 215.283827 
L 175.590129 236.858879 
L 176.421674 215.283827 
L 177.253219 220.262685 
L 178.084764 228.560782 
L 178.916309 241.837738 
L 179.747854 217.773256 
L 180.579399 208.645349 
L 181.410944 221.922304 
L 182.242489 206.15592 
L 183.074034 222.752114 
L 183.905579 217.773256 
L 184.737124 236.858879 
L 185.56867 228.560782 
L 186.400215 224.411734 
L 187.23176 230.220402 
L 188.063305 214.454017 
L 188.89485 233.539641 
L 189.726395 236.02907 
L 190.55794 229.390592 
L 191.389485 228.560782 
L 192.22103 233.539641 
L 193.052575 224.411734 
L 193.88412 225.241543 
L 194.715665 216.943446 
L 195.54721 231.880021 
L 196.378755 232.709831 
L 197.2103 216.943446 
L 198.041845 215.283827 
L 198.873391 226.901163 
L 199.704936 233.539641 
L 200.536481 218.603066 
L 201.368026 216.943446 
L 202.199571 212.794397 
L 203.031116 226.071353 
L 203.862661 221.922304 
L 204.694206 221.922304 
L 205.525751 210.304968 
L 206.357296 226.901163 
L 207.188841 216.113636 
L 208.020386 237.688689 
L 208.851931 246.816596 
L 209.683476 241.837738 
L 210.515021 235.19926 
L 211.346567 217.773256 
L 212.178112 219.432875 
L 213.009657 229.390592 
L 213.841202 236.02907 
L 214.672747 213.624207 
L 215.504292 216.943446 
L 216.335837 224.411734 
L 217.167382 224.411734 
L 217.998927 218.603066 
L 218.830472 235.19926 
L 219.662017 231.050211 
L 220.493562 216.113636 
L 221.325107 229.390592 
L 222.156652 216.113636 
L 222.988197 217.773256 
L 223.819742 220.262685 
L 224.651288 216.943446 
L 225.482833 234.36945 
L 226.314378 226.071353 
L 227.145923 225.241543 
L 227.977468 197.028013 
L 228.809013 226.901163 
L 229.640558 219.432875 
L 230.472103 231.050211 
L 231.303648 225.241543 
L 232.135193 228.560782 
L 232.966738 228.560782 
L 234.629828 218.603066 
L 235.461373 231.050211 
L 236.292918 226.901163 
L 237.124464 242.667548 
L 237.956009 218.603066 
L 238.787554 211.964588 
L 239.619099 222.752114 
L 240.450644 214.454017 
L 241.282189 228.560782 
L 242.113734 227.730973 
L 242.945279 225.241543 
L 243.776824 223.581924 
L 244.608369 203.66649 
L 245.439914 217.773256 
L 246.271459 210.304968 
L 247.103004 201.177061 
L 247.934549 216.943446 
L 248.766094 230.220402 
L 249.597639 229.390592 
L 251.26073 205.32611 
L 252.092275 215.283827 
L 252.92382 192.049154 
L 253.755365 212.794397 
L 254.58691 216.113636 
L 255.418455 210.304968 
L 256.25 225.241543 
L 257.081545 206.15592 
L 257.91309 209.475159 
L 258.744635 207.815539 
L 259.57618 192.049154 
L 260.407725 216.943446 
L 261.23927 212.794397 
L 262.070815 193.708774 
L 262.902361 167.984672 
L 263.733906 187.070296 
L 264.565451 181.261628 
L 265.396996 200.347252 
L 266.228541 212.794397 
L 267.060086 180.431818 
L 267.891631 171.303911 
L 268.723176 179.602008 
L 269.554721 173.79334 
L 270.386266 230.220402 
L 271.217811 206.985729 
L 272.049356 190.389535 
L 272.880901 187.070296 
L 273.712446 182.921247 
L 274.543991 158.026956 
L 275.375536 197.857822 
L 276.207082 226.071353 
L 277.038627 197.857822 
L 277.870172 183.751057 
L 278.701717 214.454017 
L 279.533262 174.62315 
L 280.364807 167.984672 
L 281.196352 150.558668 
L 282.027897 151.388478 
L 282.859442 198.687632 
L 283.690987 225.241543 
L 284.522532 221.092495 
L 285.354077 137.281712 
L 287.017167 183.751057 
L 287.848712 187.070296 
L 288.680258 170.474101 
L 289.511803 158.856765 
L 290.343348 182.921247 
L 291.174893 152.218288 
L 292.006438 174.62315 
L 292.837983 161.346195 
L 293.669528 188.729915 
L 294.501073 181.261628 
L 295.332618 215.283827 
L 296.164163 163.005814 
L 296.995708 196.198203 
L 297.827253 197.857822 
L 298.658798 194.538584 
L 300.321888 221.922304 
L 301.153433 181.261628 
L 301.984979 213.624207 
L 302.816524 221.092495 
L 303.648069 211.134778 
L 304.479614 218.603066 
L 305.311159 216.943446 
L 306.142704 234.36945 
L 306.974249 237.688689 
L 307.805794 222.752114 
L 308.637339 229.390592 
L 309.468884 226.071353 
L 310.300429 236.858879 
L 311.131974 231.880021 
L 311.963519 223.581924 
L 312.795064 225.241543 
L 313.626609 235.19926 
L 314.458155 229.390592 
L 315.2897 238.518499 
L 316.121245 231.880021 
L 316.95279 226.901163 
L 318.61588 242.667548 
L 319.447425 237.688689 
L 320.27897 236.858879 
L 321.110515 231.880021 
L 321.94206 233.539641 
L 322.773605 240.178118 
L 323.60515 238.518499 
L 324.436695 242.667548 
L 325.26824 242.667548 
L 326.099785 237.688689 
L 326.93133 237.688689 
L 327.762876 240.178118 
L 328.594421 236.02907 
L 329.425966 244.327167 
L 330.257511 241.007928 
L 331.089056 244.327167 
L 331.920601 246.816596 
L 332.752146 243.497357 
L 333.583691 237.688689 
L 334.415236 230.220402 
L 335.246781 235.19926 
L 336.078326 233.539641 
L 336.909871 234.36945 
L 337.741416 238.518499 
L 338.572961 236.858879 
L 339.404506 233.539641 
L 340.236052 236.858879 
L 341.067597 236.858879 
L 341.899142 238.518499 
L 342.730687 243.497357 
L 343.562232 241.007928 
L 344.393777 237.688689 
L 345.225322 231.050211 
L 346.056867 219.432875 
L 347.719957 233.539641 
L 348.551502 236.02907 
L 349.383047 224.411734 
L 350.214592 216.943446 
L 351.046137 227.730973 
L 351.877682 223.581924 
L 352.709227 217.773256 
L 353.540773 234.36945 
L 354.372318 216.113636 
L 355.203863 191.219345 
L 356.035408 215.283827 
L 356.866953 210.304968 
L 357.698498 194.538584 
L 358.530043 212.794397 
L 359.361588 213.624207 
L 360.193133 193.708774 
L 361.024678 168.814482 
L 361.856223 177.112579 
L 362.687768 180.431818 
L 363.519313 177.942389 
L 364.350858 199.517442 
L 365.182403 204.4963 
L 366.013948 187.070296 
L 366.845494 172.963531 
L 368.508584 160.516385 
L 369.340129 176.28277 
L 370.171674 182.091438 
L 371.003219 212.794397 
L 371.834764 177.942389 
L 372.666309 160.516385 
L 373.497854 200.347252 
L 374.329399 186.240486 
L 375.160944 181.261628 
L 375.992489 208.645349 
L 377.655579 163.005814 
L 378.487124 168.814482 
L 379.31867 202.836681 
L 380.150215 139.771142 
L 380.98176 175.45296 
L 381.813305 177.942389 
L 382.64485 190.389535 
L 383.476395 161.346195 
L 384.30794 172.133721 
L 385.139485 168.814482 
L 385.97103 151.388478 
L 386.802575 186.240486 
L 387.63412 175.45296 
L 388.465665 203.66649 
L 389.29721 167.984672 
L 390.128755 168.814482 
L 390.9603 182.921247 
L 391.791845 158.026956 
L 392.623391 155.537526 
L 393.454936 126.494186 
L 394.286481 173.79334 
L 395.118026 144.75 
L 395.949571 84.17389 
L 396.781116 143.92019 
L 397.612661 70.067125 
L 398.444206 119.855708 
L 399.275751 140.600951 
L 400.107296 152.218288 
L 400.938841 144.75 
L 401.770386 96.621036 
L 402.601931 85.0037 
L 403.433476 114.87685 
L 404.265021 100.770085 
L 405.096567 114.04704 
L 405.928112 174.62315 
L 406.759657 167.984672 
L 407.591202 157.197146 
L 408.422747 152.218288 
L 409.254292 183.751057 
L 410.085837 128.153805 
L 410.917382 156.367336 
L 411.748927 191.219345 
L 412.580472 206.15592 
L 413.412017 143.090381 
L 414.243562 37.704545 
L 415.075107 165.495243 
L 415.906652 123.174947 
L 416.738197 178.772199 
L 417.569742 141.430761 
L 418.401288 130.643235 
L 419.232833 80.024841 
L 420.064378 137.281712 
L 420.895923 167.984672 
L 421.727468 143.92019 
L 422.559013 138.941332 
L 423.390558 169.644292 
L 424.222103 116.536469 
L 425.053648 101.599894 
L 425.885193 139.771142 
L 426.716738 137.281712 
L 427.548283 186.240486 
L 428.379828 135.622093 
L 429.211373 156.367336 
L 430.042918 153.877907 
L 430.874464 173.79334 
L 431.706009 136.451903 
L 432.537554 189.559725 
L 433.369099 158.856765 
L 434.200644 194.538584 
L 435.032189 190.389535 
L 435.863734 172.963531 
L 436.695279 175.45296 
L 437.526824 183.751057 
L 438.358369 183.751057 
L 439.189914 182.091438 
L 440.021459 196.198203 
L 440.853004 207.815539 
L 441.684549 196.198203 
L 442.516094 216.113636 
L 444.179185 222.752114 
L 445.01073 227.730973 
L 445.842275 212.794397 
L 446.67382 219.432875 
L 447.505365 234.36945 
L 448.33691 235.19926 
L 449.168455 221.922304 
L 450 245.986786 
L 450 245.986786 
" style="fill:none;stroke:#000000;stroke-dasharray:1.5,2.475;stroke-dashoffset:0;stroke-opacity:0.5;stroke-width:1.5;"/>
   </g>
   <g id="line2d_25">
    <path clip-path="url(#p8aee43cacb)" d="M 62.5 250.965645 
L 72.478541 250.965645 
L 73.310086 250.135835 
L 74.973176 250.135835 
L 75.804721 249.306025 
L 78.299356 249.306025 
L 79.130901 250.135835 
L 82.457082 250.135835 
L 83.288627 249.306025 
L 84.120172 249.306025 
L 87.446352 245.986786 
L 88.277897 245.986786 
L 89.109442 246.816596 
L 89.940987 245.986786 
L 90.772532 245.986786 
L 91.604077 246.816596 
L 92.435622 245.986786 
L 93.267167 246.816596 
L 94.098712 246.816596 
L 94.930258 245.986786 
L 95.761803 245.986786 
L 99.087983 242.667548 
L 100.751073 244.327167 
L 101.582618 244.327167 
L 102.414163 245.156977 
L 103.245708 245.156977 
L 104.908798 246.816596 
L 105.740343 245.986786 
L 107.403433 245.986786 
L 108.234979 245.156977 
L 109.066524 245.156977 
L 111.561159 240.178118 
L 112.392704 237.688689 
L 113.224249 236.858879 
L 114.887339 233.539641 
L 115.718884 233.539641 
L 116.550429 232.709831 
L 117.381974 234.36945 
L 119.045064 236.02907 
L 120.708155 234.36945 
L 121.5397 225.241543 
L 122.371245 221.922304 
L 123.20279 211.134778 
L 124.034335 207.815539 
L 124.86588 206.15592 
L 125.697425 206.985729 
L 126.52897 206.15592 
L 127.360515 208.645349 
L 128.19206 207.815539 
L 129.023605 213.624207 
L 130.686695 211.964588 
L 132.349785 218.603066 
L 133.18133 220.262685 
L 135.675966 207.815539 
L 136.507511 206.15592 
L 137.339056 200.347252 
L 138.170601 197.028013 
L 139.002146 192.878964 
L 139.833691 186.240486 
L 140.665236 185.410677 
L 141.496781 187.070296 
L 142.328326 184.580867 
L 143.159871 189.559725 
L 143.991416 192.878964 
L 144.822961 195.368393 
L 145.654506 202.006871 
L 146.486052 202.836681 
L 147.317597 204.4963 
L 148.149142 208.645349 
L 148.980687 206.985729 
L 149.812232 206.985729 
L 150.643777 207.815539 
L 151.475322 205.32611 
L 152.306867 204.4963 
L 153.138412 204.4963 
L 153.969957 205.32611 
L 154.801502 204.4963 
L 156.464592 204.4963 
L 158.959227 209.475159 
L 159.790773 211.964588 
L 160.622318 213.624207 
L 161.453863 211.964588 
L 162.285408 209.475159 
L 163.116953 207.815539 
L 163.948498 208.645349 
L 164.780043 206.15592 
L 165.611588 204.4963 
L 166.443133 205.32611 
L 167.274678 205.32611 
L 168.106223 208.645349 
L 168.937768 208.645349 
L 169.769313 210.304968 
L 170.600858 216.113636 
L 171.432403 218.603066 
L 172.263948 218.603066 
L 173.095494 220.262685 
L 173.927039 219.432875 
L 174.758584 221.922304 
L 175.590129 222.752114 
L 176.421674 224.411734 
L 177.253219 225.241543 
L 178.084764 224.411734 
L 179.747854 221.092495 
L 180.579399 220.262685 
L 181.410944 218.603066 
L 182.242489 217.773256 
L 183.905579 222.752114 
L 185.56867 226.071353 
L 186.400215 226.901163 
L 187.23176 228.560782 
L 188.063305 227.730973 
L 189.726395 229.390592 
L 190.55794 229.390592 
L 191.389485 230.220402 
L 192.22103 227.730973 
L 193.052575 226.901163 
L 193.88412 226.901163 
L 194.715665 226.071353 
L 195.54721 223.581924 
L 196.378755 223.581924 
L 197.2103 224.411734 
L 198.041845 224.411734 
L 199.704936 221.092495 
L 200.536481 221.922304 
L 201.368026 221.922304 
L 202.199571 221.092495 
L 203.031116 218.603066 
L 203.862661 219.432875 
L 204.694206 219.432875 
L 206.357296 224.411734 
L 207.188841 228.560782 
L 208.020386 231.880021 
L 208.851931 233.539641 
L 209.683476 232.709831 
L 210.515021 232.709831 
L 211.346567 231.050211 
L 212.178112 226.901163 
L 213.009657 224.411734 
L 213.841202 222.752114 
L 214.672747 223.581924 
L 215.504292 222.752114 
L 216.335837 223.581924 
L 217.167382 223.581924 
L 217.998927 224.411734 
L 218.830472 226.071353 
L 219.662017 225.241543 
L 220.493562 223.581924 
L 221.325107 223.581924 
L 222.156652 221.092495 
L 222.988197 221.092495 
L 224.651288 222.752114 
L 225.482833 221.092495 
L 228.809013 221.092495 
L 229.640558 221.922304 
L 230.472103 223.581924 
L 231.303648 226.071353 
L 232.135193 225.241543 
L 232.966738 226.071353 
L 233.798283 226.071353 
L 234.629828 227.730973 
L 237.956009 224.411734 
L 238.787554 222.752114 
L 239.619099 222.752114 
L 240.450644 221.092495 
L 241.282189 222.752114 
L 242.945279 221.092495 
L 243.776824 219.432875 
L 244.608369 215.283827 
L 245.439914 213.624207 
L 246.271459 213.624207 
L 247.103004 215.283827 
L 247.934549 217.773256 
L 248.766094 216.943446 
L 249.597639 217.773256 
L 250.429185 216.113636 
L 252.092275 211.134778 
L 252.92382 209.475159 
L 254.58691 211.134778 
L 255.418455 211.134778 
L 256.25 212.794397 
L 257.081545 210.304968 
L 258.744635 208.645349 
L 259.57618 206.15592 
L 260.407725 201.177061 
L 261.23927 197.857822 
L 262.070815 193.708774 
L 262.902361 192.049154 
L 263.733906 191.219345 
L 265.396996 187.900106 
L 266.228541 188.729915 
L 267.060086 186.240486 
L 267.891631 189.559725 
L 268.723176 191.219345 
L 269.554721 191.219345 
L 270.386266 193.708774 
L 271.217811 195.368393 
L 272.049356 192.049154 
L 272.880901 191.219345 
L 273.712446 189.559725 
L 275.375536 191.219345 
L 276.207082 195.368393 
L 277.038627 196.198203 
L 277.870172 195.368393 
L 278.701717 188.729915 
L 279.533262 177.942389 
L 280.364807 175.45296 
L 281.196352 178.772199 
L 282.027897 181.261628 
L 283.690987 182.921247 
L 284.522532 184.580867 
L 285.354077 185.410677 
L 286.185622 180.431818 
L 287.017167 172.963531 
L 287.848712 170.474101 
L 288.680258 172.133721 
L 289.511803 172.133721 
L 290.343348 168.814482 
L 291.174893 168.814482 
L 292.006438 170.474101 
L 292.837983 177.942389 
L 293.669528 177.942389 
L 294.501073 183.751057 
L 296.164163 190.389535 
L 296.995708 192.878964 
L 297.827253 197.857822 
L 298.658798 196.198203 
L 299.490343 202.006871 
L 300.321888 205.32611 
L 301.153433 206.985729 
L 301.984979 210.304968 
L 302.816524 211.964588 
L 303.648069 214.454017 
L 304.479614 221.092495 
L 305.311159 223.581924 
L 306.142704 225.241543 
L 306.974249 227.730973 
L 308.637339 231.050211 
L 309.468884 229.390592 
L 310.300429 228.560782 
L 311.131974 229.390592 
L 311.963519 229.390592 
L 312.795064 231.050211 
L 314.458155 231.050211 
L 315.2897 231.880021 
L 316.121245 233.539641 
L 317.784335 235.19926 
L 319.447425 235.19926 
L 320.27897 236.858879 
L 321.94206 236.858879 
L 325.26824 240.178118 
L 326.099785 239.348309 
L 326.93133 240.178118 
L 327.762876 239.348309 
L 329.425966 241.007928 
L 330.257511 242.667548 
L 331.089056 242.667548 
L 331.920601 241.837738 
L 335.246781 235.19926 
L 336.909871 235.19926 
L 337.741416 236.02907 
L 339.404506 236.02907 
L 340.236052 237.688689 
L 341.067597 237.688689 
L 341.899142 238.518499 
L 342.730687 238.518499 
L 343.562232 236.02907 
L 347.719957 227.730973 
L 348.551502 226.901163 
L 349.383047 226.901163 
L 350.214592 225.241543 
L 351.046137 225.241543 
L 351.877682 223.581924 
L 352.709227 219.432875 
L 353.540773 218.603066 
L 354.372318 215.283827 
L 355.203863 211.134778 
L 356.035408 209.475159 
L 356.866953 206.985729 
L 357.698498 205.32611 
L 358.530043 202.836681 
L 359.361588 197.028013 
L 360.193133 192.049154 
L 361.024678 187.900106 
L 361.856223 184.580867 
L 362.687768 184.580867 
L 363.519313 185.410677 
L 364.350858 187.070296 
L 365.182403 186.240486 
L 366.013948 182.921247 
L 366.845494 180.431818 
L 367.677039 176.28277 
L 370.171674 178.772199 
L 371.003219 182.921247 
L 371.834764 185.410677 
L 372.666309 185.410677 
L 373.497854 187.900106 
L 374.329399 186.240486 
L 375.992489 186.240486 
L 376.824034 184.580867 
L 377.655579 179.602008 
L 378.487124 177.112579 
L 379.31867 172.963531 
L 380.150215 173.79334 
L 381.813305 173.79334 
L 382.64485 171.303911 
L 383.476395 172.133721 
L 385.139485 170.474101 
L 386.802575 175.45296 
L 387.63412 176.28277 
L 388.465665 177.942389 
L 389.29721 177.942389 
L 390.128755 173.79334 
L 390.9603 166.325053 
L 391.791845 161.346195 
L 392.623391 158.026956 
L 393.454936 147.239429 
L 394.286481 141.430761 
L 395.118026 129.813425 
L 395.949571 123.174947 
L 396.781116 121.515328 
L 397.612661 119.025899 
L 398.444206 121.515328 
L 399.275751 125.664376 
L 400.107296 120.685518 
L 400.938841 123.174947 
L 401.770386 118.196089 
L 402.601931 112.387421 
L 403.433476 114.04704 
L 404.265021 119.855708 
L 405.928112 142.260571 
L 406.759657 152.218288 
L 407.591202 156.367336 
L 408.422747 159.686575 
L 409.254292 160.516385 
L 410.085837 165.495243 
L 410.917382 166.325053 
L 411.748927 155.537526 
L 412.580472 149.728858 
L 413.412017 145.57981 
L 414.243562 143.090381 
L 415.906652 133.132664 
L 416.738197 128.983615 
L 417.569742 136.451903 
L 418.401288 134.792283 
L 419.232833 136.451903 
L 420.064378 133.132664 
L 420.895923 138.941332 
L 421.727468 139.771142 
L 422.559013 141.430761 
L 423.390558 138.941332 
L 424.222103 134.792283 
L 425.053648 138.111522 
L 425.885193 138.941332 
L 426.716738 140.600951 
L 427.548283 146.409619 
L 428.379828 154.707717 
L 429.211373 154.707717 
L 430.042918 159.686575 
L 430.874464 158.026956 
L 431.706009 165.495243 
L 432.537554 170.474101 
L 433.369099 174.62315 
L 434.200644 176.28277 
L 435.032189 181.261628 
L 435.863734 180.431818 
L 436.695279 182.091438 
L 437.526824 182.921247 
L 438.358369 185.410677 
L 439.189914 189.559725 
L 440.021459 194.538584 
L 442.516094 211.964588 
L 443.347639 215.283827 
L 444.179185 217.773256 
L 445.01073 221.922304 
L 445.842275 223.581924 
L 446.67382 224.411734 
L 447.505365 227.730973 
L 448.33691 229.390592 
L 450 234.36945 
L 450 234.36945 
" style="fill:none;stroke:#b3220f;stroke-linecap:square;stroke-width:1.5;"/>
   </g>
   <g id="patch_3">
    <path d="M 62.5 262.5 
L 62.5 27 
" style="fill:none;stroke:#555555;stroke-linecap:square;stroke-linejoin:miter;"/>
   </g>
   <g id="patch_4">
    <path d="M 62.5 262.5 
L 450 262.5 
" style="fill:none;stroke:#555555;stroke-linecap:square;stroke-linejoin:miter;"/>
   </g>
   <g id="text_13">
    <!-- Santa Fe | Casos nuevos: 2021-07-29 -->
    <g style="fill:#555555;" transform="translate(138.120625 17)scale(0.14 -0.14)">
     <defs>
      <path d="M 49.09375 50.5 
L 58.09375 50.5 
Q 57.90625 56.40625 55.84375 60.65625 
Q 53.796875 64.90625 50.25 67.703125 
Q 46.703125 70.5 42 71.796875 
Q 37.296875 73.09375 31.796875 73.09375 
Q 26.90625 73.09375 22.25 71.84375 
Q 17.59375 70.59375 13.9375 68.046875 
Q 10.296875 65.5 8.09375 61.546875 
Q 5.90625 57.59375 5.90625 52.203125 
Q 5.90625 47.296875 7.84375 44.046875 
Q 9.796875 40.796875 13.046875 38.75 
Q 16.296875 36.703125 20.390625 35.453125 
Q 24.5 34.203125 28.75 33.25 
Q 33 32.296875 37.09375 31.390625 
Q 41.203125 30.5 44.453125 29.046875 
Q 47.703125 27.59375 49.640625 25.296875 
Q 51.59375 23 51.59375 19.296875 
Q 51.59375 15.40625 50 12.90625 
Q 48.40625 10.40625 45.796875 8.953125 
Q 43.203125 7.5 39.953125 6.890625 
Q 36.703125 6.296875 33.5 6.296875 
Q 29.5 6.296875 25.703125 7.296875 
Q 21.90625 8.296875 19.046875 10.390625 
Q 16.203125 12.5 14.453125 15.75 
Q 12.703125 19 12.703125 23.5 
L 3.703125 23.5 
Q 3.703125 17 6.046875 12.25 
Q 8.40625 7.5 12.453125 4.453125 
Q 16.5 1.40625 21.84375 -0.09375 
Q 27.203125 -1.59375 33.203125 -1.59375 
Q 38.09375 -1.59375 43.046875 -0.4375 
Q 48 0.703125 52 3.25 
Q 56 5.796875 58.546875 9.84375 
Q 61.09375 13.90625 61.09375 19.59375 
Q 61.09375 24.90625 59.140625 28.40625 
Q 57.203125 31.90625 53.953125 34.203125 
Q 50.703125 36.5 46.59375 37.84375 
Q 42.5 39.203125 38.25 40.203125 
Q 34 41.203125 29.890625 42.046875 
Q 25.796875 42.90625 22.546875 44.203125 
Q 19.296875 45.5 17.34375 47.546875 
Q 15.40625 49.59375 15.40625 52.90625 
Q 15.40625 56.40625 16.75 58.75 
Q 18.09375 61.09375 20.34375 62.5 
Q 22.59375 63.90625 25.5 64.5 
Q 28.40625 65.09375 31.40625 65.09375 
Q 38.796875 65.09375 43.546875 61.640625 
Q 48.296875 58.203125 49.09375 50.5 
z
" id="HelveticaNeue-83"/>
      <path id="HelveticaNeue-32"/>
      <path d="M 7.796875 71.40625 
L 7.796875 0 
L 17.296875 0 
L 17.296875 32.703125 
L 50.09375 32.703125 
L 50.09375 40.703125 
L 17.296875 40.703125 
L 17.296875 63.40625 
L 54.703125 63.40625 
L 54.703125 71.40625 
z
" id="HelveticaNeue-70"/>
      <path d="M 7.703125 78.59375 
L 7.703125 -21.296875 
L 14.5 -21.296875 
L 14.5 78.59375 
z
" id="HelveticaNeue-124"/>
      <path d="M 58 49.90625 
L 67.5 49.90625 
Q 66.703125 55.59375 64.09375 59.9375 
Q 61.5 64.296875 57.59375 67.1875 
Q 53.703125 70.09375 48.703125 71.59375 
Q 43.703125 73.09375 38.09375 73.09375 
Q 29.90625 73.09375 23.546875 70.140625 
Q 17.203125 67.203125 12.953125 62.09375 
Q 8.703125 57 6.5 50.140625 
Q 4.296875 43.296875 4.296875 35.5 
Q 4.296875 27.703125 6.34375 20.890625 
Q 8.40625 14.09375 12.5 9.09375 
Q 16.59375 4.09375 22.796875 1.25 
Q 29 -1.59375 37.296875 -1.59375 
Q 51 -1.59375 58.890625 5.90625 
Q 66.796875 13.40625 68.203125 26.90625 
L 58.703125 26.90625 
Q 58.40625 22.5 56.90625 18.703125 
Q 55.40625 14.90625 52.75 12.15625 
Q 50.09375 9.40625 46.4375 7.84375 
Q 42.796875 6.296875 38.09375 6.296875 
Q 31.703125 6.296875 27.09375 8.6875 
Q 22.5 11.09375 19.546875 15.140625 
Q 16.59375 19.203125 15.1875 24.640625 
Q 13.796875 30.09375 13.796875 36.203125 
Q 13.796875 41.796875 15.1875 47 
Q 16.59375 52.203125 19.546875 56.25 
Q 22.5 60.296875 27.046875 62.6875 
Q 31.59375 65.09375 38 65.09375 
Q 45.5 65.09375 50.953125 61.296875 
Q 56.40625 57.5 58 49.90625 
z
" id="HelveticaNeue-67"/>
      <path d="M 11.59375 16.296875 
L 3.09375 16.296875 
Q 3.296875 11.5 5.09375 8.140625 
Q 6.90625 4.796875 9.90625 2.75 
Q 12.90625 0.703125 16.796875 -0.1875 
Q 20.703125 -1.09375 25 -1.09375 
Q 28.90625 -1.09375 32.84375 -0.34375 
Q 36.796875 0.40625 39.9375 2.296875 
Q 43.09375 4.203125 45.046875 7.296875 
Q 47 10.40625 47 15.09375 
Q 47 18.796875 45.546875 21.296875 
Q 44.09375 23.796875 41.75 25.4375 
Q 39.40625 27.09375 36.34375 28.09375 
Q 33.296875 29.09375 30.09375 29.796875 
Q 27.09375 30.5 24.09375 31.140625 
Q 21.09375 31.796875 18.6875 32.75 
Q 16.296875 33.703125 14.75 35.140625 
Q 13.203125 36.59375 13.203125 38.796875 
Q 13.203125 40.796875 14.203125 42.046875 
Q 15.203125 43.296875 16.796875 44.046875 
Q 18.40625 44.796875 20.34375 45.09375 
Q 22.296875 45.40625 24.203125 45.40625 
Q 26.296875 45.40625 28.34375 44.953125 
Q 30.40625 44.5 32.09375 43.5 
Q 33.796875 42.5 34.890625 40.84375 
Q 36 39.203125 36.203125 36.703125 
L 44.703125 36.703125 
Q 44.40625 41.40625 42.703125 44.546875 
Q 41 47.703125 38.140625 49.546875 
Q 35.296875 51.40625 31.59375 52.15625 
Q 27.90625 52.90625 23.5 52.90625 
Q 20.09375 52.90625 16.640625 52.046875 
Q 13.203125 51.203125 10.453125 49.453125 
Q 7.703125 47.703125 5.953125 44.890625 
Q 4.203125 42.09375 4.203125 38.203125 
Q 4.203125 33.203125 6.703125 30.390625 
Q 9.203125 27.59375 12.953125 26.046875 
Q 16.703125 24.5 21.09375 23.640625 
Q 25.5 22.796875 29.25 21.75 
Q 33 20.703125 35.5 19 
Q 38 17.296875 38 14 
Q 38 11.59375 36.796875 10.046875 
Q 35.59375 8.5 33.75 7.703125 
Q 31.90625 6.90625 29.703125 6.59375 
Q 27.5 6.296875 25.5 6.296875 
Q 22.90625 6.296875 20.453125 6.796875 
Q 18 7.296875 16.046875 8.4375 
Q 14.09375 9.59375 12.890625 11.546875 
Q 11.703125 13.5 11.59375 16.296875 
z
" id="HelveticaNeue-115"/>
      <path d="M 12.59375 25.796875 
Q 12.59375 30.5 13.84375 34.140625 
Q 15.09375 37.796875 17.296875 40.296875 
Q 19.5 42.796875 22.453125 44.09375 
Q 25.40625 45.40625 28.703125 45.40625 
Q 32 45.40625 34.953125 44.09375 
Q 37.90625 42.796875 40.09375 40.296875 
Q 42.296875 37.796875 43.546875 34.140625 
Q 44.796875 30.5 44.796875 25.796875 
Q 44.796875 21.09375 43.546875 17.4375 
Q 42.296875 13.796875 40.09375 11.34375 
Q 37.90625 8.90625 34.953125 7.59375 
Q 32 6.296875 28.703125 6.296875 
Q 25.40625 6.296875 22.453125 7.59375 
Q 19.5 8.90625 17.296875 11.34375 
Q 15.09375 13.796875 13.84375 17.4375 
Q 12.59375 21.09375 12.59375 25.796875 
z
M 3.59375 25.796875 
Q 3.59375 20.09375 5.1875 15.1875 
Q 6.796875 10.296875 10 6.640625 
Q 13.203125 3 17.890625 0.953125 
Q 22.59375 -1.09375 28.703125 -1.09375 
Q 34.90625 -1.09375 39.546875 0.953125 
Q 44.203125 3 47.390625 6.640625 
Q 50.59375 10.296875 52.1875 15.1875 
Q 53.796875 20.09375 53.796875 25.796875 
Q 53.796875 31.5 52.1875 36.453125 
Q 50.59375 41.40625 47.390625 45.046875 
Q 44.203125 48.703125 39.546875 50.796875 
Q 34.90625 52.90625 28.703125 52.90625 
Q 22.59375 52.90625 17.890625 50.796875 
Q 13.203125 48.703125 10 45.046875 
Q 6.796875 41.40625 5.1875 36.453125 
Q 3.59375 31.5 3.59375 25.796875 
z
" id="HelveticaNeue-111"/>
      <path d="M 29.703125 0 
L 48.59375 51.703125 
L 39.703125 51.703125 
L 25.59375 8.59375 
L 25.40625 8.59375 
L 10.90625 51.703125 
L 1.40625 51.703125 
L 20.59375 0 
z
" id="HelveticaNeue-118"/>
      <path d="M 19.40625 40.59375 
L 19.40625 51.703125 
L 8.296875 51.703125 
L 8.296875 40.59375 
z
M 8.296875 11.09375 
L 8.296875 0 
L 19.40625 0 
L 19.40625 11.09375 
z
" id="HelveticaNeue-58"/>
      <path d="M 5 31.796875 
L 5 23.796875 
L 33.90625 23.796875 
L 33.90625 31.796875 
z
" id="HelveticaNeue-45"/>
      <path d="M 50.90625 62.40625 
L 50.90625 69.703125 
L 5 69.703125 
L 5 61.703125 
L 42.203125 61.703125 
Q 36.59375 55.796875 31.75 48.796875 
Q 26.90625 41.796875 23.203125 33.9375 
Q 19.5 26.09375 17.140625 17.546875 
Q 14.796875 9 14.203125 0 
L 23.703125 0 
Q 24.203125 8.296875 26.5 17.09375 
Q 28.796875 25.90625 32.4375 34.203125 
Q 36.09375 42.5 40.796875 49.796875 
Q 45.5 57.09375 50.90625 62.40625 
z
" id="HelveticaNeue-55"/>
      <path d="M 13.40625 17.09375 
L 4.90625 17.09375 
Q 5.703125 7.90625 11.59375 3.40625 
Q 17.5 -1.09375 26.40625 -1.09375 
Q 39.296875 -1.09375 45.140625 8.75 
Q 51 18.59375 51 37 
Q 51 47.09375 49.046875 53.640625 
Q 47.09375 60.203125 43.796875 64 
Q 40.5 67.796875 36.09375 69.34375 
Q 31.703125 70.90625 26.703125 70.90625 
Q 21.59375 70.90625 17.296875 69.203125 
Q 13 67.5 9.890625 64.453125 
Q 6.796875 61.40625 5.09375 57.15625 
Q 3.40625 52.90625 3.40625 47.796875 
Q 3.40625 42.59375 4.84375 38.1875 
Q 6.296875 33.796875 9.140625 30.6875 
Q 12 27.59375 16.203125 25.84375 
Q 20.40625 24.09375 25.796875 24.09375 
Q 31 24.09375 35.390625 26.75 
Q 39.796875 29.40625 42.203125 33.90625 
L 42.40625 33.703125 
Q 42 19.796875 38.09375 13.046875 
Q 34.203125 6.296875 26.40625 6.296875 
Q 21.296875 6.296875 17.59375 9.09375 
Q 13.90625 11.90625 13.40625 17.09375 
z
M 40.90625 47.203125 
Q 40.90625 44.09375 39.90625 41.25 
Q 38.90625 38.40625 37 36.25 
Q 35.09375 34.09375 32.390625 32.84375 
Q 29.703125 31.59375 26.40625 31.59375 
Q 23.296875 31.59375 20.75 32.84375 
Q 18.203125 34.09375 16.34375 36.1875 
Q 14.5 38.296875 13.453125 41 
Q 12.40625 43.703125 12.40625 46.59375 
Q 12.40625 49.90625 13.15625 52.90625 
Q 13.90625 55.90625 15.546875 58.25 
Q 17.203125 60.59375 19.84375 62 
Q 22.5 63.40625 26.296875 63.40625 
Q 29.90625 63.40625 32.59375 62.09375 
Q 35.296875 60.796875 37.140625 58.546875 
Q 39 56.296875 39.953125 53.390625 
Q 40.90625 50.5 40.90625 47.203125 
z
" id="HelveticaNeue-57"/>
     </defs>
     <use xlink:href="#HelveticaNeue-83"/>
     <use x="64.799988" xlink:href="#HelveticaNeue-97"/>
     <use x="118.499985" xlink:href="#HelveticaNeue-110"/>
     <use x="174.099976" xlink:href="#HelveticaNeue-116"/>
     <use x="205.59996" xlink:href="#HelveticaNeue-97"/>
     <use x="259.299957" xlink:href="#HelveticaNeue-32"/>
     <use x="287.099945" xlink:href="#HelveticaNeue-70"/>
     <use x="344.499939" xlink:href="#HelveticaNeue-101"/>
     <use x="398.199936" xlink:href="#HelveticaNeue-32"/>
     <use x="425.999924" xlink:href="#HelveticaNeue-124"/>
     <use x="448.199921" xlink:href="#HelveticaNeue-32"/>
     <use x="475.999908" xlink:href="#HelveticaNeue-67"/>
     <use x="548.19989" xlink:href="#HelveticaNeue-97"/>
     <use x="601.899887" xlink:href="#HelveticaNeue-115"/>
     <use x="651.899872" xlink:href="#HelveticaNeue-111"/>
     <use x="709.299866" xlink:href="#HelveticaNeue-115"/>
     <use x="759.29985" xlink:href="#HelveticaNeue-32"/>
     <use x="787.099838" xlink:href="#HelveticaNeue-110"/>
     <use x="842.699829" xlink:href="#HelveticaNeue-117"/>
     <use x="898.29982" xlink:href="#HelveticaNeue-101"/>
     <use x="951.999817" xlink:href="#HelveticaNeue-118"/>
     <use x="1001.999802" xlink:href="#HelveticaNeue-111"/>
     <use x="1059.399796" xlink:href="#HelveticaNeue-115"/>
     <use x="1109.39978" xlink:href="#HelveticaNeue-58"/>
     <use x="1137.199768" xlink:href="#HelveticaNeue-32"/>
     <use x="1164.999756" xlink:href="#HelveticaNeue-50"/>
     <use x="1220.599747" xlink:href="#HelveticaNeue-48"/>
     <use x="1276.199738" xlink:href="#HelveticaNeue-50"/>
     <use x="1331.799728" xlink:href="#HelveticaNeue-49"/>
     <use x="1387.399719" xlink:href="#HelveticaNeue-45"/>
     <use x="1426.299713" xlink:href="#HelveticaNeue-48"/>
     <use x="1481.899704" xlink:href="#HelveticaNeue-55"/>
     <use x="1537.499695" xlink:href="#HelveticaNeue-45"/>
     <use x="1576.399689" xlink:href="#HelveticaNeue-50"/>
     <use x="1631.99968" xlink:href="#HelveticaNeue-57"/>
    </g>
   </g>
   <g id="legend_1">
    <g id="line2d_26">
     <path d="M 71.5 39.640625 
L 91.5 39.640625 
" style="fill:none;stroke:#000000;stroke-dasharray:1.5,2.475;stroke-dashoffset:0;stroke-opacity:0.5;stroke-width:1.5;"/>
    </g>
    <g id="line2d_27"/>
    <g id="text_14">
     <!-- Actual -->
     <g style="fill:#555555;" transform="translate(99.5 43.140625)scale(0.1 -0.1)">
      <use xlink:href="#HelveticaNeue-65"/>
      <use x="64.799988" xlink:href="#HelveticaNeue-99"/>
      <use x="118.499985" xlink:href="#HelveticaNeue-116"/>
      <use x="149.999969" xlink:href="#HelveticaNeue-117"/>
      <use x="205.59996" xlink:href="#HelveticaNeue-97"/>
      <use x="259.299957" xlink:href="#HelveticaNeue-108"/>
     </g>
    </g>
    <g id="line2d_28">
     <path d="M 71.5 54.310937 
L 91.5 54.310937 
" style="fill:none;stroke:#b3220f;stroke-linecap:square;stroke-width:1.5;"/>
    </g>
    <g id="line2d_29"/>
    <g id="text_15">
     <!-- Promedio semanal (7 das)  -->
     <g style="fill:#555555;" transform="translate(99.5 57.810937)scale(0.1 -0.1)">
      <defs>
       <path d="M 17.296875 37.203125 
L 17.296875 63.40625 
L 35.90625 63.40625 
Q 44 63.40625 47.75 60.046875 
Q 51.5 56.703125 51.5 50.296875 
Q 51.5 43.90625 47.75 40.5 
Q 44 37.09375 35.90625 37.203125 
z
M 7.796875 71.40625 
L 7.796875 0 
L 17.296875 0 
L 17.296875 29.203125 
L 39.09375 29.203125 
Q 49.90625 29.09375 55.453125 34.6875 
Q 61 40.296875 61 50.296875 
Q 61 60.296875 55.453125 65.84375 
Q 49.90625 71.40625 39.09375 71.40625 
z
" id="HelveticaNeue-80"/>
       <path d="M 6.40625 51.703125 
L 6.40625 0 
L 14.90625 0 
L 14.90625 32.203125 
Q 14.90625 33.703125 15.65625 35.953125 
Q 16.40625 38.203125 18.046875 40.296875 
Q 19.703125 42.40625 22.34375 43.90625 
Q 25 45.40625 28.703125 45.40625 
Q 31.59375 45.40625 33.4375 44.546875 
Q 35.296875 43.703125 36.390625 42.140625 
Q 37.5 40.59375 37.953125 38.5 
Q 38.40625 36.40625 38.40625 33.90625 
L 38.40625 0 
L 46.90625 0 
L 46.90625 32.203125 
Q 46.90625 38.203125 50.5 41.796875 
Q 54.09375 45.40625 60.40625 45.40625 
Q 63.5 45.40625 65.453125 44.5 
Q 67.40625 43.59375 68.5 42.046875 
Q 69.59375 40.5 70 38.390625 
Q 70.40625 36.296875 70.40625 33.90625 
L 70.40625 0 
L 78.90625 0 
L 78.90625 37.90625 
Q 78.90625 41.90625 77.65625 44.75 
Q 76.40625 47.59375 74.15625 49.390625 
Q 71.90625 51.203125 68.75 52.046875 
Q 65.59375 52.90625 61.703125 52.90625 
Q 56.59375 52.90625 52.34375 50.59375 
Q 48.09375 48.296875 45.5 44.09375 
Q 43.90625 48.90625 40 50.90625 
Q 36.09375 52.90625 31.296875 52.90625 
Q 20.40625 52.90625 14.59375 44.09375 
L 14.40625 44.09375 
L 14.40625 51.703125 
z
" id="HelveticaNeue-109"/>
       <path d="M 12.59375 25.40625 
Q 12.59375 29.203125 13.390625 32.796875 
Q 14.203125 36.40625 16 39.203125 
Q 17.796875 42 20.796875 43.703125 
Q 23.796875 45.40625 28.09375 45.40625 
Q 32.5 45.40625 35.59375 43.75 
Q 38.703125 42.09375 40.640625 39.390625 
Q 42.59375 36.703125 43.5 33.140625 
Q 44.40625 29.59375 44.40625 25.796875 
Q 44.40625 22.203125 43.546875 18.703125 
Q 42.703125 15.203125 40.796875 12.453125 
Q 38.90625 9.703125 35.90625 8 
Q 32.90625 6.296875 28.59375 6.296875 
Q 24.5 6.296875 21.453125 7.890625 
Q 18.40625 9.5 16.453125 12.203125 
Q 14.5 14.90625 13.546875 18.34375 
Q 12.59375 21.796875 12.59375 25.40625 
z
M 52.59375 0 
L 52.59375 71.40625 
L 44.09375 71.40625 
L 44.09375 44.796875 
L 43.90625 44.796875 
Q 42.5 47.09375 40.453125 48.640625 
Q 38.40625 50.203125 36.09375 51.140625 
Q 33.796875 52.09375 31.5 52.5 
Q 29.203125 52.90625 27.203125 52.90625 
Q 21.296875 52.90625 16.84375 50.75 
Q 12.40625 48.59375 9.453125 44.9375 
Q 6.5 41.296875 5.046875 36.390625 
Q 3.59375 31.5 3.59375 26 
Q 3.59375 20.5 5.09375 15.59375 
Q 6.59375 10.703125 9.546875 7 
Q 12.5 3.296875 16.953125 1.09375 
Q 21.40625 -1.09375 27.40625 -1.09375 
Q 32.796875 -1.09375 37.296875 0.796875 
Q 41.796875 2.703125 43.90625 7 
L 44.09375 7 
L 44.09375 0 
z
" id="HelveticaNeue-100"/>
       <path d="M 15.40625 61 
L 15.40625 71.40625 
L 6.90625 71.40625 
L 6.90625 61 
z
M 6.90625 51.703125 
L 6.90625 0 
L 15.40625 0 
L 15.40625 51.703125 
z
" id="HelveticaNeue-105"/>
       <path d="M 20.40625 -19.703125 
L 26.90625 -19.703125 
Q 19.796875 -8.203125 16.75 3.09375 
Q 13.703125 14.40625 13.703125 27 
Q 13.703125 39.296875 16.703125 50.5 
Q 19.703125 61.703125 26.90625 73.09375 
L 20.40625 73.09375 
Q 12.59375 62.796875 8.640625 50.796875 
Q 4.703125 38.796875 4.703125 27 
Q 4.703125 20.40625 5.796875 14.40625 
Q 6.90625 8.40625 8.953125 2.703125 
Q 11 -3 13.890625 -8.546875 
Q 16.796875 -14.09375 20.40625 -19.703125 
z
" id="HelveticaNeue-40"/>
       <path d="M 6.90625 0 
L 15.40625 0 
L 15.40625 51.703125 
L 6.90625 51.703125 
z
M 25.5 77 
L 11.40625 60.796875 
L 5 60.796875 
L 14.59375 77 
z
" id="HelveticaNeue-237"/>
       <path d="M -0.90625 -19.703125 
L 5.5 -19.703125 
Q 13.296875 -9.40625 17.25 2.546875 
Q 21.203125 14.5 21.203125 26.296875 
Q 21.203125 32.90625 20.09375 38.90625 
Q 19 44.90625 16.953125 50.65625 
Q 14.90625 56.40625 12 61.953125 
Q 9.09375 67.5 5.5 73.09375 
L -0.90625 73.09375 
Q 6.09375 61.59375 9.140625 50.25 
Q 12.203125 38.90625 12.203125 26.296875 
Q 12.203125 14.09375 9.203125 2.84375 
Q 6.203125 -8.40625 -0.90625 -19.703125 
z
" id="HelveticaNeue-41"/>
      </defs>
      <use xlink:href="#HelveticaNeue-80"/>
      <use x="64.799988" xlink:href="#HelveticaNeue-114"/>
      <use x="96.349976" xlink:href="#HelveticaNeue-111"/>
      <use x="153.749969" xlink:href="#HelveticaNeue-109"/>
      <use x="239.049957" xlink:href="#HelveticaNeue-101"/>
      <use x="292.749954" xlink:href="#HelveticaNeue-100"/>
      <use x="352.049942" xlink:href="#HelveticaNeue-105"/>
      <use x="374.249939" xlink:href="#HelveticaNeue-111"/>
      <use x="431.649933" xlink:href="#HelveticaNeue-32"/>
      <use x="459.449921" xlink:href="#HelveticaNeue-115"/>
      <use x="509.449905" xlink:href="#HelveticaNeue-101"/>
      <use x="563.149902" xlink:href="#HelveticaNeue-109"/>
      <use x="648.44989" xlink:href="#HelveticaNeue-97"/>
      <use x="702.149887" xlink:href="#HelveticaNeue-110"/>
      <use x="757.749878" xlink:href="#HelveticaNeue-97"/>
      <use x="811.449875" xlink:href="#HelveticaNeue-108"/>
      <use x="833.649872" xlink:href="#HelveticaNeue-32"/>
      <use x="861.44986" xlink:href="#HelveticaNeue-40"/>
      <use x="887.349854" xlink:href="#HelveticaNeue-55"/>
      <use x="942.949844" xlink:href="#HelveticaNeue-32"/>
      <use x="970.749832" xlink:href="#HelveticaNeue-100"/>
      <use x="1030.04982" xlink:href="#HelveticaNeue-237"/>
      <use x="1052.249817" xlink:href="#HelveticaNeue-97"/>
      <use x="1105.949814" xlink:href="#HelveticaNeue-115"/>
      <use x="1155.949799" xlink:href="#HelveticaNeue-41"/>
      <use x="1181.849792" xlink:href="#HelveticaNeue-32"/>
     </g>
    </g>
   </g>
  </g>
 </g>
 <defs>
  <clipPath id="p8aee43cacb">
   <rect height="235.5" width="387.5" x="62.5" y="27"/>
  </clipPath>
 </defs>
</svg>
