<?xml version="1.0" encoding="utf-8" standalone="no"?>
<!DOCTYPE svg PUBLIC "-//W3C//DTD SVG 1.1//EN"
  "http://www.w3.org/Graphics/SVG/1.1/DTD/svg11.dtd">
<!-- Created with matplotlib (https://matplotlib.org/) -->
<svg height="300pt" version="1.1" viewBox="0 0 500 300" width="500pt" xmlns="http://www.w3.org/2000/svg" xmlns:xlink="http://www.w3.org/1999/xlink">
 <metadata>
  <rdf:RDF xmlns:cc="http://creativecommons.org/ns#" xmlns:dc="http://purl.org/dc/elements/1.1/" xmlns:rdf="http://www.w3.org/1999/02/22-rdf-syntax-ns#">
   <cc:Work>
    <dc:type rdf:resource="http://purl.org/dc/dcmitype/StillImage"/>
    <dc:date>2021-06-05T22:09:10.294548</dc:date>
    <dc:format>image/svg+xml</dc:format>
    <dc:creator>
     <cc:Agent>
      <dc:title>Matplotlib v3.3.4, https://matplotlib.org/</dc:title>
     </cc:Agent>
    </dc:creator>
   </cc:Work>
  </rdf:RDF>
 </metadata>
 <defs>
  <style type="text/css">*{stroke-linecap:butt;stroke-linejoin:round;}</style>
 </defs>
 <g id="figure_1">
  <g id="patch_1">
   <path d="M 0 300 
L 500 300 
L 500 0 
L 0 0 
z
" style="fill:#ffffff;"/>
  </g>
  <g id="axes_1">
   <g id="patch_2">
    <path d="M 62.5 262.5 
L 450 262.5 
L 450 27 
L 62.5 27 
z
" style="fill:#ffffff;"/>
   </g>
   <g id="matplotlib.axis_1">
    <g id="xtick_1">
     <g id="line2d_1">
      <defs>
       <path d="M 0 0 
L 0 3.5 
" id="m8a7db91b46" style="stroke:#555555;stroke-width:0.8;"/>
      </defs>
      <g>
       <use style="fill:#555555;stroke:#555555;stroke-width:0.8;" x="62.5" xlink:href="#m8a7db91b46" y="262.5"/>
      </g>
     </g>
    </g>
    <g id="xtick_2">
     <g id="line2d_2">
      <g>
       <use style="fill:#555555;stroke:#555555;stroke-width:0.8;" x="73.841463" xlink:href="#m8a7db91b46" y="262.5"/>
      </g>
     </g>
     <g id="text_1">
      <!-- May -->
      <g style="fill:#555555;" transform="translate(64.30162 276.640625)scale(0.1 -0.1)">
       <defs>
        <path d="M 8 71.40625 
L 8 0 
L 17 0 
L 17 59.40625 
L 17.203125 59.40625 
L 39.5 0 
L 47.59375 0 
L 69.90625 59.40625 
L 70.09375 59.40625 
L 70.09375 0 
L 79.09375 0 
L 79.09375 71.40625 
L 66.09375 71.40625 
L 43.5 11.40625 
L 21 71.40625 
z
" id="HelveticaNeue-77"/>
        <path d="M 52.203125 0.203125 
Q 50 -1.09375 46.09375 -1.09375 
Q 42.796875 -1.09375 40.84375 0.75 
Q 38.90625 2.59375 38.90625 6.796875 
Q 35.40625 2.59375 30.75 0.75 
Q 26.09375 -1.09375 20.703125 -1.09375 
Q 17.203125 -1.09375 14.046875 -0.296875 
Q 10.90625 0.5 8.59375 2.203125 
Q 6.296875 3.90625 4.9375 6.65625 
Q 3.59375 9.40625 3.59375 13.296875 
Q 3.59375 17.703125 5.09375 20.5 
Q 6.59375 23.296875 9.046875 25.046875 
Q 11.5 26.796875 14.640625 27.6875 
Q 17.796875 28.59375 21.09375 29.203125 
Q 24.59375 29.90625 27.75 30.25 
Q 30.90625 30.59375 33.296875 31.25 
Q 35.703125 31.90625 37.09375 33.15625 
Q 38.5 34.40625 38.5 36.796875 
Q 38.5 39.59375 37.453125 41.296875 
Q 36.40625 43 34.75 43.890625 
Q 33.09375 44.796875 31.046875 45.09375 
Q 29 45.40625 27 45.40625 
Q 21.59375 45.40625 18 43.34375 
Q 14.40625 41.296875 14.09375 35.59375 
L 5.59375 35.59375 
Q 5.796875 40.40625 7.59375 43.703125 
Q 9.40625 47 12.40625 49.046875 
Q 15.40625 51.09375 19.25 52 
Q 23.09375 52.90625 27.5 52.90625 
Q 31 52.90625 34.453125 52.40625 
Q 37.90625 51.90625 40.703125 50.34375 
Q 43.5 48.796875 45.203125 46 
Q 46.90625 43.203125 46.90625 38.703125 
L 46.90625 12.09375 
Q 46.90625 9.09375 47.25 7.6875 
Q 47.59375 6.296875 49.59375 6.296875 
Q 50.703125 6.296875 52.203125 6.796875 
z
M 38.40625 26.703125 
Q 36.796875 25.5 34.1875 24.953125 
Q 31.59375 24.40625 28.75 24.046875 
Q 25.90625 23.703125 23 23.25 
Q 20.09375 22.796875 17.796875 21.796875 
Q 15.5 20.796875 14.046875 18.9375 
Q 12.59375 17.09375 12.59375 13.90625 
Q 12.59375 11.796875 13.4375 10.34375 
Q 14.296875 8.90625 15.640625 8 
Q 17 7.09375 18.796875 6.6875 
Q 20.59375 6.296875 22.59375 6.296875 
Q 26.796875 6.296875 29.796875 7.4375 
Q 32.796875 8.59375 34.6875 10.34375 
Q 36.59375 12.09375 37.5 14.140625 
Q 38.40625 16.203125 38.40625 18 
z
" id="HelveticaNeue-97"/>
        <path d="M 26.703125 -6.90625 
Q 25.203125 -10.703125 23.75 -13.296875 
Q 22.296875 -15.90625 20.546875 -17.546875 
Q 18.796875 -19.203125 16.640625 -19.953125 
Q 14.5 -20.703125 11.703125 -20.703125 
Q 10.203125 -20.703125 8.703125 -20.5 
Q 7.203125 -20.296875 5.796875 -19.796875 
L 5.796875 -12 
Q 6.90625 -12.5 8.34375 -12.84375 
Q 9.796875 -13.203125 10.796875 -13.203125 
Q 13.40625 -13.203125 15.15625 -11.953125 
Q 16.90625 -10.703125 17.796875 -8.40625 
L 21.296875 0.296875 
L 0.796875 51.703125 
L 10.40625 51.703125 
L 25.5 9.40625 
L 25.703125 9.40625 
L 40.203125 51.703125 
L 49.203125 51.703125 
z
" id="HelveticaNeue-121"/>
       </defs>
       <use xlink:href="#HelveticaNeue-77"/>
       <use x="87.099991" xlink:href="#HelveticaNeue-97"/>
       <use x="140.799988" xlink:href="#HelveticaNeue-121"/>
      </g>
     </g>
    </g>
    <g id="xtick_3">
     <g id="line2d_3">
      <g>
       <use style="fill:#555555;stroke:#555555;stroke-width:0.8;" x="103.140244" xlink:href="#m8a7db91b46" y="262.5"/>
      </g>
     </g>
     <g id="text_2">
      <!-- Jun -->
      <g style="fill:#555555;" transform="translate(94.985556 276.640625)scale(0.1 -0.1)">
       <defs>
        <path d="M 44.09375 17.796875 
L 44.09375 71.40625 
L 34.59375 71.40625 
L 34.59375 19.203125 
Q 34.59375 13.296875 32.140625 9.796875 
Q 29.703125 6.296875 23.203125 6.296875 
Q 19.703125 6.296875 17.453125 7.34375 
Q 15.203125 8.40625 13.953125 10.296875 
Q 12.703125 12.203125 12.203125 14.796875 
Q 11.703125 17.40625 11.703125 20.5 
L 11.703125 23.5 
L 2.203125 23.5 
L 2.203125 19.09375 
Q 2.203125 8.90625 7.59375 3.65625 
Q 13 -1.59375 23 -1.59375 
Q 29 -1.59375 33.046875 0.046875 
Q 37.09375 1.703125 39.546875 4.453125 
Q 42 7.203125 43.046875 10.703125 
Q 44.09375 14.203125 44.09375 17.796875 
z
" id="HelveticaNeue-74"/>
        <path d="M 49.203125 0 
L 49.203125 51.703125 
L 40.703125 51.703125 
L 40.703125 22.5 
Q 40.703125 19 39.75 16.046875 
Q 38.796875 13.09375 36.890625 10.890625 
Q 35 8.703125 32.140625 7.5 
Q 29.296875 6.296875 25.40625 6.296875 
Q 20.5 6.296875 17.703125 9.09375 
Q 14.90625 11.90625 14.90625 16.703125 
L 14.90625 51.703125 
L 6.40625 51.703125 
L 6.40625 17.703125 
Q 6.40625 13.5 7.25 10.046875 
Q 8.09375 6.59375 10.1875 4.09375 
Q 12.296875 1.59375 15.6875 0.25 
Q 19.09375 -1.09375 24.203125 -1.09375 
Q 29.90625 -1.09375 34.09375 1.15625 
Q 38.296875 3.40625 41 8.203125 
L 41.203125 8.203125 
L 41.203125 0 
z
" id="HelveticaNeue-117"/>
        <path d="M 6.40625 51.703125 
L 6.40625 0 
L 14.90625 0 
L 14.90625 29.203125 
Q 14.90625 32.703125 15.84375 35.640625 
Q 16.796875 38.59375 18.6875 40.796875 
Q 20.59375 43 23.4375 44.203125 
Q 26.296875 45.40625 30.203125 45.40625 
Q 35.09375 45.40625 37.890625 42.59375 
Q 40.703125 39.796875 40.703125 35 
L 40.703125 0 
L 49.203125 0 
L 49.203125 34 
Q 49.203125 38.203125 48.34375 41.640625 
Q 47.5 45.09375 45.390625 47.59375 
Q 43.296875 50.09375 39.890625 51.5 
Q 36.5 52.90625 31.40625 52.90625 
Q 19.90625 52.90625 14.59375 43.5 
L 14.40625 43.5 
L 14.40625 51.703125 
z
" id="HelveticaNeue-110"/>
       </defs>
       <use xlink:href="#HelveticaNeue-74"/>
       <use x="51.899994" xlink:href="#HelveticaNeue-117"/>
       <use x="107.499985" xlink:href="#HelveticaNeue-110"/>
      </g>
     </g>
    </g>
    <g id="xtick_4">
     <g id="line2d_4">
      <g>
       <use style="fill:#555555;stroke:#555555;stroke-width:0.8;" x="131.493902" xlink:href="#m8a7db91b46" y="262.5"/>
      </g>
     </g>
     <g id="text_3">
      <!-- Jul -->
      <g style="fill:#555555;" transform="translate(125.008746 276.640625)scale(0.1 -0.1)">
       <defs>
        <path d="M 6.90625 71.40625 
L 6.90625 0 
L 15.40625 0 
L 15.40625 71.40625 
z
" id="HelveticaNeue-108"/>
       </defs>
       <use xlink:href="#HelveticaNeue-74"/>
       <use x="51.899994" xlink:href="#HelveticaNeue-117"/>
       <use x="107.499985" xlink:href="#HelveticaNeue-108"/>
      </g>
     </g>
    </g>
    <g id="xtick_5">
     <g id="line2d_5">
      <g>
       <use style="fill:#555555;stroke:#555555;stroke-width:0.8;" x="160.792683" xlink:href="#m8a7db91b46" y="262.5"/>
      </g>
     </g>
     <g id="text_4">
      <!-- Aug -->
      <g style="fill:#555555;" transform="translate(151.902839 276.640625)scale(0.1 -0.1)">
       <defs>
        <path d="M 20.09375 29.5 
L 32.203125 62.796875 
L 32.40625 62.796875 
L 44.296875 29.5 
z
M 27.203125 71.40625 
L -0.59375 0 
L 9.09375 0 
L 17.09375 21.5 
L 47.296875 21.5 
L 55.09375 0 
L 65.59375 0 
L 37.703125 71.40625 
z
" id="HelveticaNeue-65"/>
        <path d="M 51 4.40625 
L 51 51.703125 
L 43 51.703125 
L 43 44.296875 
L 42.90625 44.296875 
Q 40.59375 48.59375 36.5 50.75 
Q 32.40625 52.90625 27.5 52.90625 
Q 20.796875 52.90625 16.1875 50.34375 
Q 11.59375 47.796875 8.796875 43.84375 
Q 6 39.90625 4.796875 35.046875 
Q 3.59375 30.203125 3.59375 25.59375 
Q 3.59375 20.296875 5.046875 15.546875 
Q 6.5 10.796875 9.390625 7.25 
Q 12.296875 3.703125 16.59375 1.59375 
Q 20.90625 -0.5 26.703125 -0.5 
Q 31.703125 -0.5 36.140625 1.75 
Q 40.59375 4 42.796875 8.796875 
L 43 8.796875 
L 43 5.40625 
Q 43 1.09375 42.140625 -2.5 
Q 41.296875 -6.09375 39.390625 -8.640625 
Q 37.5 -11.203125 34.59375 -12.640625 
Q 31.703125 -14.09375 27.5 -14.09375 
Q 25.40625 -14.09375 23.09375 -13.640625 
Q 20.796875 -13.203125 18.84375 -12.203125 
Q 16.90625 -11.203125 15.546875 -9.59375 
Q 14.203125 -8 14.09375 -5.703125 
L 5.59375 -5.703125 
Q 5.796875 -9.90625 7.796875 -12.796875 
Q 9.796875 -15.703125 12.84375 -17.5 
Q 15.90625 -19.296875 19.65625 -20.09375 
Q 23.40625 -20.90625 27 -20.90625 
Q 39.40625 -20.90625 45.203125 -14.59375 
Q 51 -8.296875 51 4.40625 
z
M 27.203125 6.90625 
Q 23 6.90625 20.203125 8.65625 
Q 17.40625 10.40625 15.703125 13.25 
Q 14 16.09375 13.296875 19.59375 
Q 12.59375 23.09375 12.59375 26.59375 
Q 12.59375 30.296875 13.4375 33.6875 
Q 14.296875 37.09375 16.140625 39.6875 
Q 18 42.296875 20.890625 43.84375 
Q 23.796875 45.40625 27.90625 45.40625 
Q 31.90625 45.40625 34.703125 43.796875 
Q 37.5 42.203125 39.25 39.546875 
Q 41 36.90625 41.796875 33.59375 
Q 42.59375 30.296875 42.59375 26.90625 
Q 42.59375 23.296875 41.75 19.6875 
Q 40.90625 16.09375 39.09375 13.25 
Q 37.296875 10.40625 34.34375 8.65625 
Q 31.40625 6.90625 27.203125 6.90625 
z
" id="HelveticaNeue-103"/>
       </defs>
       <use xlink:href="#HelveticaNeue-65"/>
       <use x="64.799988" xlink:href="#HelveticaNeue-117"/>
       <use x="120.399979" xlink:href="#HelveticaNeue-103"/>
      </g>
     </g>
    </g>
    <g id="xtick_6">
     <g id="line2d_6">
      <g>
       <use style="fill:#555555;stroke:#555555;stroke-width:0.8;" x="190.091463" xlink:href="#m8a7db91b46" y="262.5"/>
      </g>
     </g>
     <g id="text_5">
      <!-- Sep -->
      <g style="fill:#555555;" transform="translate(181.20162 276.809375)scale(0.1 -0.1)">
       <defs>
        <path d="M 49.09375 50.5 
L 58.09375 50.5 
Q 57.90625 56.40625 55.84375 60.65625 
Q 53.796875 64.90625 50.25 67.703125 
Q 46.703125 70.5 42 71.796875 
Q 37.296875 73.09375 31.796875 73.09375 
Q 26.90625 73.09375 22.25 71.84375 
Q 17.59375 70.59375 13.9375 68.046875 
Q 10.296875 65.5 8.09375 61.546875 
Q 5.90625 57.59375 5.90625 52.203125 
Q 5.90625 47.296875 7.84375 44.046875 
Q 9.796875 40.796875 13.046875 38.75 
Q 16.296875 36.703125 20.390625 35.453125 
Q 24.5 34.203125 28.75 33.25 
Q 33 32.296875 37.09375 31.390625 
Q 41.203125 30.5 44.453125 29.046875 
Q 47.703125 27.59375 49.640625 25.296875 
Q 51.59375 23 51.59375 19.296875 
Q 51.59375 15.40625 50 12.90625 
Q 48.40625 10.40625 45.796875 8.953125 
Q 43.203125 7.5 39.953125 6.890625 
Q 36.703125 6.296875 33.5 6.296875 
Q 29.5 6.296875 25.703125 7.296875 
Q 21.90625 8.296875 19.046875 10.390625 
Q 16.203125 12.5 14.453125 15.75 
Q 12.703125 19 12.703125 23.5 
L 3.703125 23.5 
Q 3.703125 17 6.046875 12.25 
Q 8.40625 7.5 12.453125 4.453125 
Q 16.5 1.40625 21.84375 -0.09375 
Q 27.203125 -1.59375 33.203125 -1.59375 
Q 38.09375 -1.59375 43.046875 -0.4375 
Q 48 0.703125 52 3.25 
Q 56 5.796875 58.546875 9.84375 
Q 61.09375 13.90625 61.09375 19.59375 
Q 61.09375 24.90625 59.140625 28.40625 
Q 57.203125 31.90625 53.953125 34.203125 
Q 50.703125 36.5 46.59375 37.84375 
Q 42.5 39.203125 38.25 40.203125 
Q 34 41.203125 29.890625 42.046875 
Q 25.796875 42.90625 22.546875 44.203125 
Q 19.296875 45.5 17.34375 47.546875 
Q 15.40625 49.59375 15.40625 52.90625 
Q 15.40625 56.40625 16.75 58.75 
Q 18.09375 61.09375 20.34375 62.5 
Q 22.59375 63.90625 25.5 64.5 
Q 28.40625 65.09375 31.40625 65.09375 
Q 38.796875 65.09375 43.546875 61.640625 
Q 48.296875 58.203125 49.09375 50.5 
z
" id="HelveticaNeue-83"/>
        <path d="M 42.296875 30.796875 
L 12.59375 30.796875 
Q 12.796875 33.796875 13.890625 36.4375 
Q 15 39.09375 16.890625 41.09375 
Q 18.796875 43.09375 21.4375 44.25 
Q 24.09375 45.40625 27.40625 45.40625 
Q 30.59375 45.40625 33.25 44.25 
Q 35.90625 43.09375 37.84375 41.140625 
Q 39.796875 39.203125 40.9375 36.5 
Q 42.09375 33.796875 42.296875 30.796875 
z
M 50.5 16.40625 
L 42.09375 16.40625 
Q 41 11.296875 37.546875 8.796875 
Q 34.09375 6.296875 28.703125 6.296875 
Q 24.5 6.296875 21.390625 7.6875 
Q 18.296875 9.09375 16.296875 11.4375 
Q 14.296875 13.796875 13.390625 16.84375 
Q 12.5 19.90625 12.59375 23.296875 
L 51.296875 23.296875 
Q 51.5 28 50.453125 33.203125 
Q 49.40625 38.40625 46.65625 42.796875 
Q 43.90625 47.203125 39.34375 50.046875 
Q 34.796875 52.90625 27.90625 52.90625 
Q 22.59375 52.90625 18.140625 50.90625 
Q 13.703125 48.90625 10.453125 45.296875 
Q 7.203125 41.703125 5.390625 36.796875 
Q 3.59375 31.90625 3.59375 26 
Q 3.796875 20.09375 5.34375 15.09375 
Q 6.90625 10.09375 10 6.5 
Q 13.09375 2.90625 17.640625 0.90625 
Q 22.203125 -1.09375 28.40625 -1.09375 
Q 37.203125 -1.09375 43 3.296875 
Q 48.796875 7.703125 50.5 16.40625 
z
" id="HelveticaNeue-101"/>
        <path d="M 6.703125 51.703125 
L 6.703125 -19.703125 
L 15.203125 -19.703125 
L 15.203125 6.90625 
L 15.40625 6.90625 
Q 16.796875 4.59375 18.84375 3.046875 
Q 20.90625 1.5 23.203125 0.59375 
Q 25.5 -0.296875 27.84375 -0.6875 
Q 30.203125 -1.09375 32.09375 -1.09375 
Q 38 -1.09375 42.453125 1 
Q 46.90625 3.09375 49.84375 6.75 
Q 52.796875 10.40625 54.25 15.296875 
Q 55.703125 20.203125 55.703125 25.703125 
Q 55.703125 31.203125 54.203125 36.09375 
Q 52.703125 41 49.75 44.75 
Q 46.796875 48.5 42.34375 50.703125 
Q 37.90625 52.90625 31.90625 52.90625 
Q 26.5 52.90625 22 50.953125 
Q 17.5 49 15.40625 44.703125 
L 15.203125 44.703125 
L 15.203125 51.703125 
z
M 46.703125 26.296875 
Q 46.703125 22.5 45.890625 18.890625 
Q 45.09375 15.296875 43.296875 12.5 
Q 41.5 9.703125 38.546875 8 
Q 35.59375 6.296875 31.203125 6.296875 
Q 26.796875 6.296875 23.6875 7.9375 
Q 20.59375 9.59375 18.640625 12.296875 
Q 16.703125 15 15.796875 18.546875 
Q 14.90625 22.09375 14.90625 25.90625 
Q 14.90625 29.5 15.75 33 
Q 16.59375 36.5 18.5 39.25 
Q 20.40625 42 23.40625 43.703125 
Q 26.40625 45.40625 30.703125 45.40625 
Q 34.796875 45.40625 37.84375 43.796875 
Q 40.90625 42.203125 42.84375 39.5 
Q 44.796875 36.796875 45.75 33.34375 
Q 46.703125 29.90625 46.703125 26.296875 
z
" id="HelveticaNeue-112"/>
       </defs>
       <use xlink:href="#HelveticaNeue-83"/>
       <use x="64.799988" xlink:href="#HelveticaNeue-101"/>
       <use x="118.499985" xlink:href="#HelveticaNeue-112"/>
      </g>
     </g>
    </g>
    <g id="xtick_7">
     <g id="line2d_7">
      <g>
       <use style="fill:#555555;stroke:#555555;stroke-width:0.8;" x="218.445122" xlink:href="#m8a7db91b46" y="262.5"/>
      </g>
     </g>
     <g id="text_6">
      <!-- Oct -->
      <g style="fill:#555555;" transform="translate(210.384966 276.640625)scale(0.1 -0.1)">
       <defs>
        <path d="M 13.296875 35.703125 
Q 13.296875 41.09375 14.6875 46.34375 
Q 16.09375 51.59375 19.09375 55.796875 
Q 22.09375 60 26.796875 62.546875 
Q 31.5 65.09375 38 65.09375 
Q 44.5 65.09375 49.203125 62.546875 
Q 53.90625 60 56.90625 55.796875 
Q 59.90625 51.59375 61.296875 46.34375 
Q 62.703125 41.09375 62.703125 35.703125 
Q 62.703125 30.296875 61.296875 25.046875 
Q 59.90625 19.796875 56.90625 15.59375 
Q 53.90625 11.40625 49.203125 8.84375 
Q 44.5 6.296875 38 6.296875 
Q 31.5 6.296875 26.796875 8.84375 
Q 22.09375 11.40625 19.09375 15.59375 
Q 16.09375 19.796875 14.6875 25.046875 
Q 13.296875 30.296875 13.296875 35.703125 
z
M 3.796875 35.703125 
Q 3.796875 28.40625 5.9375 21.65625 
Q 8.09375 14.90625 12.390625 9.703125 
Q 16.703125 4.5 23.09375 1.453125 
Q 29.5 -1.59375 38 -1.59375 
Q 46.5 -1.59375 52.890625 1.453125 
Q 59.296875 4.5 63.59375 9.703125 
Q 67.90625 14.90625 70.046875 21.65625 
Q 72.203125 28.40625 72.203125 35.703125 
Q 72.203125 43 70.046875 49.75 
Q 67.90625 56.5 63.59375 61.703125 
Q 59.296875 66.90625 52.890625 70 
Q 46.5 73.09375 38 73.09375 
Q 29.5 73.09375 23.09375 70 
Q 16.703125 66.90625 12.390625 61.703125 
Q 8.09375 56.5 5.9375 49.75 
Q 3.796875 43 3.796875 35.703125 
z
" id="HelveticaNeue-79"/>
        <path d="M 41.5 35.09375 
L 50.296875 35.09375 
Q 49.796875 39.703125 47.890625 43.046875 
Q 46 46.40625 43.046875 48.59375 
Q 40.09375 50.796875 36.25 51.84375 
Q 32.40625 52.90625 28 52.90625 
Q 21.90625 52.90625 17.296875 50.75 
Q 12.703125 48.59375 9.640625 44.84375 
Q 6.59375 41.09375 5.09375 36.046875 
Q 3.59375 31 3.59375 25.203125 
Q 3.59375 19.40625 5.140625 14.546875 
Q 6.703125 9.703125 9.75 6.203125 
Q 12.796875 2.703125 17.34375 0.796875 
Q 21.90625 -1.09375 27.796875 -1.09375 
Q 37.703125 -1.09375 43.453125 4.09375 
Q 49.203125 9.296875 50.59375 18.90625 
L 41.90625 18.90625 
Q 41.09375 12.90625 37.546875 9.59375 
Q 34 6.296875 27.703125 6.296875 
Q 23.703125 6.296875 20.796875 7.890625 
Q 17.90625 9.5 16.09375 12.140625 
Q 14.296875 14.796875 13.4375 18.1875 
Q 12.59375 21.59375 12.59375 25.203125 
Q 12.59375 29.09375 13.390625 32.75 
Q 14.203125 36.40625 16.046875 39.203125 
Q 17.90625 42 21 43.703125 
Q 24.09375 45.40625 28.703125 45.40625 
Q 34.09375 45.40625 37.296875 42.703125 
Q 40.5 40 41.5 35.09375 
z
" id="HelveticaNeue-99"/>
        <path d="M 18.203125 51.703125 
L 18.203125 67.203125 
L 9.703125 67.203125 
L 9.703125 51.703125 
L 0.90625 51.703125 
L 0.90625 44.203125 
L 9.703125 44.203125 
L 9.703125 11.296875 
Q 9.703125 7.703125 10.390625 5.5 
Q 11.09375 3.296875 12.546875 2.09375 
Q 14 0.90625 16.34375 0.453125 
Q 18.703125 0 22 0 
L 28.5 0 
L 28.5 7.5 
L 24.59375 7.5 
Q 22.59375 7.5 21.34375 7.640625 
Q 20.09375 7.796875 19.390625 8.296875 
Q 18.703125 8.796875 18.453125 9.6875 
Q 18.203125 10.59375 18.203125 12.09375 
L 18.203125 44.203125 
L 28.5 44.203125 
L 28.5 51.703125 
z
" id="HelveticaNeue-116"/>
       </defs>
       <use xlink:href="#HelveticaNeue-79"/>
       <use x="75.999985" xlink:href="#HelveticaNeue-99"/>
       <use x="129.699982" xlink:href="#HelveticaNeue-116"/>
      </g>
     </g>
    </g>
    <g id="xtick_8">
     <g id="line2d_8">
      <g>
       <use style="fill:#555555;stroke:#555555;stroke-width:0.8;" x="247.743902" xlink:href="#m8a7db91b46" y="262.5"/>
      </g>
     </g>
     <g id="text_7">
      <!-- Nov -->
      <g style="fill:#555555;" transform="translate(238.763434 276.640625)scale(0.1 -0.1)">
       <defs>
        <path d="M 7.703125 71.40625 
L 7.703125 0 
L 16.703125 0 
L 16.703125 57.296875 
L 16.90625 57.296875 
L 54.203125 0 
L 64.59375 0 
L 64.59375 71.40625 
L 55.59375 71.40625 
L 55.59375 13.5 
L 55.40625 13.5 
L 17.796875 71.40625 
z
" id="HelveticaNeue-78"/>
        <path d="M 12.59375 25.796875 
Q 12.59375 30.5 13.84375 34.140625 
Q 15.09375 37.796875 17.296875 40.296875 
Q 19.5 42.796875 22.453125 44.09375 
Q 25.40625 45.40625 28.703125 45.40625 
Q 32 45.40625 34.953125 44.09375 
Q 37.90625 42.796875 40.09375 40.296875 
Q 42.296875 37.796875 43.546875 34.140625 
Q 44.796875 30.5 44.796875 25.796875 
Q 44.796875 21.09375 43.546875 17.4375 
Q 42.296875 13.796875 40.09375 11.34375 
Q 37.90625 8.90625 34.953125 7.59375 
Q 32 6.296875 28.703125 6.296875 
Q 25.40625 6.296875 22.453125 7.59375 
Q 19.5 8.90625 17.296875 11.34375 
Q 15.09375 13.796875 13.84375 17.4375 
Q 12.59375 21.09375 12.59375 25.796875 
z
M 3.59375 25.796875 
Q 3.59375 20.09375 5.1875 15.1875 
Q 6.796875 10.296875 10 6.640625 
Q 13.203125 3 17.890625 0.953125 
Q 22.59375 -1.09375 28.703125 -1.09375 
Q 34.90625 -1.09375 39.546875 0.953125 
Q 44.203125 3 47.390625 6.640625 
Q 50.59375 10.296875 52.1875 15.1875 
Q 53.796875 20.09375 53.796875 25.796875 
Q 53.796875 31.5 52.1875 36.453125 
Q 50.59375 41.40625 47.390625 45.046875 
Q 44.203125 48.703125 39.546875 50.796875 
Q 34.90625 52.90625 28.703125 52.90625 
Q 22.59375 52.90625 17.890625 50.796875 
Q 13.203125 48.703125 10 45.046875 
Q 6.796875 41.40625 5.1875 36.453125 
Q 3.59375 31.5 3.59375 25.796875 
z
" id="HelveticaNeue-111"/>
        <path d="M 29.703125 0 
L 48.59375 51.703125 
L 39.703125 51.703125 
L 25.59375 8.59375 
L 25.40625 8.59375 
L 10.90625 51.703125 
L 1.40625 51.703125 
L 20.59375 0 
z
" id="HelveticaNeue-118"/>
       </defs>
       <use xlink:href="#HelveticaNeue-78"/>
       <use x="72.199982" xlink:href="#HelveticaNeue-111"/>
       <use x="129.599976" xlink:href="#HelveticaNeue-118"/>
      </g>
     </g>
    </g>
    <g id="xtick_9">
     <g id="line2d_9">
      <g>
       <use style="fill:#555555;stroke:#555555;stroke-width:0.8;" x="276.097561" xlink:href="#m8a7db91b46" y="262.5"/>
      </g>
     </g>
     <g id="text_8">
      <!-- Dec -->
      <g style="fill:#555555;" transform="translate(267.206936 276.640625)scale(0.1 -0.1)">
       <defs>
        <path d="M 17.296875 8 
L 17.296875 63.40625 
L 33.296875 63.40625 
Q 39.90625 63.40625 44.40625 61.546875 
Q 48.90625 59.703125 51.75 56.140625 
Q 54.59375 52.59375 55.84375 47.546875 
Q 57.09375 42.5 57.09375 36.09375 
Q 57.09375 29.5 55.75 24.84375 
Q 54.40625 20.203125 52.296875 17.09375 
Q 50.203125 14 47.546875 12.203125 
Q 44.90625 10.40625 42.203125 9.453125 
Q 39.5 8.5 37.09375 8.25 
Q 34.703125 8 33.09375 8 
z
M 7.796875 71.40625 
L 7.796875 0 
L 32.296875 0 
Q 41.203125 0 47.703125 2.5 
Q 54.203125 5 58.390625 9.75 
Q 62.59375 14.5 64.59375 21.453125 
Q 66.59375 28.40625 66.59375 37.40625 
Q 66.59375 54.59375 57.6875 63 
Q 48.796875 71.40625 32.296875 71.40625 
z
" id="HelveticaNeue-68"/>
       </defs>
       <use xlink:href="#HelveticaNeue-68"/>
       <use x="70.399994" xlink:href="#HelveticaNeue-101"/>
       <use x="124.099991" xlink:href="#HelveticaNeue-99"/>
      </g>
     </g>
    </g>
    <g id="xtick_10">
     <g id="line2d_10">
      <g>
       <use style="fill:#555555;stroke:#555555;stroke-width:0.8;" x="305.396341" xlink:href="#m8a7db91b46" y="262.5"/>
      </g>
     </g>
     <g id="text_9">
      <!-- Jan -->
      <g style="fill:#555555;" transform="translate(297.336185 276.640625)scale(0.1 -0.1)">
       <use xlink:href="#HelveticaNeue-74"/>
       <use x="51.899994" xlink:href="#HelveticaNeue-97"/>
       <use x="105.599991" xlink:href="#HelveticaNeue-110"/>
      </g>
      <!-- 2021 -->
      <g style="fill:#555555;" transform="translate(294.277591 287.179688)scale(0.1 -0.1)">
       <defs>
        <path d="M 4.40625 45.796875 
L 12.90625 45.796875 
Q 12.796875 49 13.546875 52.140625 
Q 14.296875 55.296875 16 57.796875 
Q 17.703125 60.296875 20.34375 61.84375 
Q 23 63.40625 26.703125 63.40625 
Q 29.5 63.40625 32 62.5 
Q 34.5 61.59375 36.34375 59.890625 
Q 38.203125 58.203125 39.296875 55.84375 
Q 40.40625 53.5 40.40625 50.59375 
Q 40.40625 46.90625 39.25 44.09375 
Q 38.09375 41.296875 35.84375 38.890625 
Q 33.59375 36.5 30.1875 34.140625 
Q 26.796875 31.796875 22.296875 29 
Q 18.59375 26.796875 15.1875 24.296875 
Q 11.796875 21.796875 9.09375 18.5 
Q 6.40625 15.203125 4.65625 10.75 
Q 2.90625 6.296875 2.40625 0 
L 48.703125 0 
L 48.703125 7.5 
L 12.296875 7.5 
Q 12.90625 10.796875 14.84375 13.34375 
Q 16.796875 15.90625 19.546875 18.09375 
Q 22.296875 20.296875 25.59375 22.25 
Q 28.90625 24.203125 32.203125 26.203125 
Q 35.5 28.296875 38.59375 30.59375 
Q 41.703125 32.90625 44.09375 35.75 
Q 46.5 38.59375 47.953125 42.1875 
Q 49.40625 45.796875 49.40625 50.5 
Q 49.40625 55.5 47.65625 59.296875 
Q 45.90625 63.09375 42.90625 65.640625 
Q 39.90625 68.203125 35.84375 69.546875 
Q 31.796875 70.90625 27.203125 70.90625 
Q 21.59375 70.90625 17.1875 69 
Q 12.796875 67.09375 9.84375 63.75 
Q 6.90625 60.40625 5.5 55.796875 
Q 4.09375 51.203125 4.40625 45.796875 
z
" id="HelveticaNeue-50"/>
        <path d="M 13.203125 34.90625 
Q 13.203125 37.5 13.25 40.640625 
Q 13.296875 43.796875 13.75 46.9375 
Q 14.203125 50.09375 15.046875 53.09375 
Q 15.90625 56.09375 17.546875 58.34375 
Q 19.203125 60.59375 21.703125 62 
Q 24.203125 63.40625 27.796875 63.40625 
Q 31.40625 63.40625 33.90625 62 
Q 36.40625 60.59375 38.046875 58.34375 
Q 39.703125 56.09375 40.546875 53.09375 
Q 41.40625 50.09375 41.84375 46.9375 
Q 42.296875 43.796875 42.34375 40.640625 
Q 42.40625 37.5 42.40625 34.90625 
Q 42.40625 30.90625 42.15625 25.953125 
Q 41.90625 21 40.546875 16.640625 
Q 39.203125 12.296875 36.203125 9.296875 
Q 33.203125 6.296875 27.796875 6.296875 
Q 22.40625 6.296875 19.40625 9.296875 
Q 16.40625 12.296875 15.046875 16.640625 
Q 13.703125 21 13.453125 25.953125 
Q 13.203125 30.90625 13.203125 34.90625 
z
M 4.203125 34.796875 
Q 4.203125 30.90625 4.390625 26.703125 
Q 4.59375 22.5 5.390625 18.5 
Q 6.203125 14.5 7.703125 10.953125 
Q 9.203125 7.40625 11.796875 4.703125 
Q 14.40625 2 18.34375 0.453125 
Q 22.296875 -1.09375 27.796875 -1.09375 
Q 33.40625 -1.09375 37.296875 0.453125 
Q 41.203125 2 43.796875 4.703125 
Q 46.40625 7.40625 47.90625 10.953125 
Q 49.40625 14.5 50.203125 18.5 
Q 51 22.5 51.203125 26.703125 
Q 51.40625 30.90625 51.40625 34.796875 
Q 51.40625 38.703125 51.203125 42.890625 
Q 51 47.09375 50.203125 51.09375 
Q 49.40625 55.09375 47.90625 58.6875 
Q 46.40625 62.296875 43.796875 65 
Q 41.203125 67.703125 37.25 69.296875 
Q 33.296875 70.90625 27.796875 70.90625 
Q 22.296875 70.90625 18.34375 69.296875 
Q 14.40625 67.703125 11.796875 65 
Q 9.203125 62.296875 7.703125 58.6875 
Q 6.203125 55.09375 5.390625 51.09375 
Q 4.59375 47.09375 4.390625 42.890625 
Q 4.203125 38.703125 4.203125 34.796875 
z
" id="HelveticaNeue-48"/>
        <path d="M 35.59375 0 
L 35.59375 70.90625 
L 29.09375 70.90625 
Q 28.40625 66.90625 26.5 64.296875 
Q 24.59375 61.703125 21.84375 60.203125 
Q 19.09375 58.703125 15.6875 58.140625 
Q 12.296875 57.59375 8.703125 57.59375 
L 8.703125 50.796875 
L 27.09375 50.796875 
L 27.09375 0 
z
" id="HelveticaNeue-49"/>
       </defs>
       <use xlink:href="#HelveticaNeue-50"/>
       <use x="55.599991" xlink:href="#HelveticaNeue-48"/>
       <use x="111.199982" xlink:href="#HelveticaNeue-50"/>
       <use x="166.799973" xlink:href="#HelveticaNeue-49"/>
      </g>
     </g>
    </g>
    <g id="xtick_11">
     <g id="line2d_11">
      <g>
       <use style="fill:#555555;stroke:#555555;stroke-width:0.8;" x="334.695122" xlink:href="#m8a7db91b46" y="262.5"/>
      </g>
     </g>
     <g id="text_10">
      <!-- Feb -->
      <g style="fill:#555555;" transform="translate(326.174809 276.640625)scale(0.1 -0.1)">
       <defs>
        <path d="M 7.796875 71.40625 
L 7.796875 0 
L 17.296875 0 
L 17.296875 32.703125 
L 50.09375 32.703125 
L 50.09375 40.703125 
L 17.296875 40.703125 
L 17.296875 63.40625 
L 54.703125 63.40625 
L 54.703125 71.40625 
z
" id="HelveticaNeue-70"/>
        <path d="M 6.703125 71.40625 
L 6.703125 0 
L 15.203125 0 
L 15.203125 6.90625 
L 15.40625 6.90625 
Q 16.796875 4.59375 18.84375 3.046875 
Q 20.90625 1.5 23.203125 0.59375 
Q 25.5 -0.296875 27.84375 -0.6875 
Q 30.203125 -1.09375 32.09375 -1.09375 
Q 38 -1.09375 42.453125 1 
Q 46.90625 3.09375 49.84375 6.75 
Q 52.796875 10.40625 54.25 15.296875 
Q 55.703125 20.203125 55.703125 25.703125 
Q 55.703125 31.203125 54.203125 36.09375 
Q 52.703125 41 49.75 44.75 
Q 46.796875 48.5 42.34375 50.703125 
Q 37.90625 52.90625 31.90625 52.90625 
Q 26.5 52.90625 22 50.953125 
Q 17.5 49 15.40625 44.703125 
L 15.203125 44.703125 
L 15.203125 71.40625 
z
M 46.703125 26.296875 
Q 46.703125 22.5 45.890625 18.890625 
Q 45.09375 15.296875 43.296875 12.5 
Q 41.5 9.703125 38.546875 8 
Q 35.59375 6.296875 31.203125 6.296875 
Q 26.796875 6.296875 23.6875 7.9375 
Q 20.59375 9.59375 18.640625 12.296875 
Q 16.703125 15 15.796875 18.546875 
Q 14.90625 22.09375 14.90625 25.90625 
Q 14.90625 29.5 15.75 33 
Q 16.59375 36.5 18.5 39.25 
Q 20.40625 42 23.40625 43.703125 
Q 26.40625 45.40625 30.703125 45.40625 
Q 34.796875 45.40625 37.84375 43.796875 
Q 40.90625 42.203125 42.84375 39.5 
Q 44.796875 36.796875 45.75 33.34375 
Q 46.703125 29.90625 46.703125 26.296875 
z
" id="HelveticaNeue-98"/>
       </defs>
       <use xlink:href="#HelveticaNeue-70"/>
       <use x="57.399994" xlink:href="#HelveticaNeue-101"/>
       <use x="111.099991" xlink:href="#HelveticaNeue-98"/>
      </g>
     </g>
    </g>
    <g id="xtick_12">
     <g id="line2d_12">
      <g>
       <use style="fill:#555555;stroke:#555555;stroke-width:0.8;" x="361.158537" xlink:href="#m8a7db91b46" y="262.5"/>
      </g>
     </g>
     <g id="text_11">
      <!-- Mar -->
      <g style="fill:#555555;" transform="translate(352.453849 276.640625)scale(0.1 -0.1)">
       <defs>
        <path d="M 6.09375 51.703125 
L 6.09375 0 
L 14.59375 0 
L 14.59375 23 
Q 14.59375 28 15.59375 31.84375 
Q 16.59375 35.703125 18.796875 38.390625 
Q 21 41.09375 24.59375 42.5 
Q 28.203125 43.90625 33.296875 43.90625 
L 33.296875 52.90625 
Q 26.40625 53.09375 21.90625 50.09375 
Q 17.40625 47.09375 14.296875 40.796875 
L 14.09375 40.796875 
L 14.09375 51.703125 
z
" id="HelveticaNeue-114"/>
       </defs>
       <use xlink:href="#HelveticaNeue-77"/>
       <use x="87.099991" xlink:href="#HelveticaNeue-97"/>
       <use x="140.799988" xlink:href="#HelveticaNeue-114"/>
      </g>
     </g>
    </g>
    <g id="xtick_13">
     <g id="line2d_13">
      <g>
       <use style="fill:#555555;stroke:#555555;stroke-width:0.8;" x="390.457317" xlink:href="#m8a7db91b46" y="262.5"/>
      </g>
     </g>
     <g id="text_12">
      <!-- Apr -->
      <g style="fill:#555555;" transform="translate(382.587786 276.640625)scale(0.1 -0.1)">
       <use xlink:href="#HelveticaNeue-65"/>
       <use x="64.799988" xlink:href="#HelveticaNeue-112"/>
       <use x="124.099976" xlink:href="#HelveticaNeue-114"/>
      </g>
     </g>
    </g>
    <g id="xtick_14">
     <g id="line2d_14">
      <g>
       <use style="fill:#555555;stroke:#555555;stroke-width:0.8;" x="418.810976" xlink:href="#m8a7db91b46" y="262.5"/>
      </g>
     </g>
     <g id="text_13">
      <!-- May -->
      <g style="fill:#555555;" transform="translate(409.271132 276.640625)scale(0.1 -0.1)">
       <use xlink:href="#HelveticaNeue-77"/>
       <use x="87.099991" xlink:href="#HelveticaNeue-97"/>
       <use x="140.799988" xlink:href="#HelveticaNeue-121"/>
      </g>
     </g>
    </g>
    <g id="xtick_15">
     <g id="line2d_15">
      <g>
       <use style="fill:#555555;stroke:#555555;stroke-width:0.8;" x="448.109756" xlink:href="#m8a7db91b46" y="262.5"/>
      </g>
     </g>
     <g id="text_14">
      <!-- Jun -->
      <g style="fill:#555555;" transform="translate(439.955069 276.640625)scale(0.1 -0.1)">
       <use xlink:href="#HelveticaNeue-74"/>
       <use x="51.899994" xlink:href="#HelveticaNeue-117"/>
       <use x="107.499985" xlink:href="#HelveticaNeue-110"/>
      </g>
     </g>
    </g>
    <g id="xtick_16">
     <g id="line2d_16">
      <g>
       <use style="fill:#555555;stroke:#555555;stroke-width:0.8;" x="450" xlink:href="#m8a7db91b46" y="262.5"/>
      </g>
     </g>
    </g>
    <g id="xtick_17">
     <g id="line2d_17">
      <defs>
       <path d="M 0 0 
L 0 2 
" id="mef7f816794" style="stroke:#555555;stroke-width:0.6;"/>
      </defs>
      <g>
       <use style="fill:#555555;stroke:#555555;stroke-width:0.6;" x="63.445122" xlink:href="#mef7f816794" y="262.5"/>
      </g>
     </g>
    </g>
    <g id="xtick_18">
     <g id="line2d_18">
      <g>
       <use style="fill:#555555;stroke:#555555;stroke-width:0.6;" x="70.060976" xlink:href="#mef7f816794" y="262.5"/>
      </g>
     </g>
    </g>
    <g id="xtick_19">
     <g id="line2d_19">
      <g>
       <use style="fill:#555555;stroke:#555555;stroke-width:0.6;" x="76.676829" xlink:href="#mef7f816794" y="262.5"/>
      </g>
     </g>
    </g>
    <g id="xtick_20">
     <g id="line2d_20">
      <g>
       <use style="fill:#555555;stroke:#555555;stroke-width:0.6;" x="83.292683" xlink:href="#mef7f816794" y="262.5"/>
      </g>
     </g>
    </g>
    <g id="xtick_21">
     <g id="line2d_21">
      <g>
       <use style="fill:#555555;stroke:#555555;stroke-width:0.6;" x="89.908537" xlink:href="#mef7f816794" y="262.5"/>
      </g>
     </g>
    </g>
    <g id="xtick_22">
     <g id="line2d_22">
      <g>
       <use style="fill:#555555;stroke:#555555;stroke-width:0.6;" x="96.52439" xlink:href="#mef7f816794" y="262.5"/>
      </g>
     </g>
    </g>
    <g id="xtick_23">
     <g id="line2d_23">
      <g>
       <use style="fill:#555555;stroke:#555555;stroke-width:0.6;" x="109.756098" xlink:href="#mef7f816794" y="262.5"/>
      </g>
     </g>
    </g>
    <g id="xtick_24">
     <g id="line2d_24">
      <g>
       <use style="fill:#555555;stroke:#555555;stroke-width:0.6;" x="116.371951" xlink:href="#mef7f816794" y="262.5"/>
      </g>
     </g>
    </g>
    <g id="xtick_25">
     <g id="line2d_25">
      <g>
       <use style="fill:#555555;stroke:#555555;stroke-width:0.6;" x="122.987805" xlink:href="#mef7f816794" y="262.5"/>
      </g>
     </g>
    </g>
    <g id="xtick_26">
     <g id="line2d_26">
      <g>
       <use style="fill:#555555;stroke:#555555;stroke-width:0.6;" x="129.603659" xlink:href="#mef7f816794" y="262.5"/>
      </g>
     </g>
    </g>
    <g id="xtick_27">
     <g id="line2d_27">
      <g>
       <use style="fill:#555555;stroke:#555555;stroke-width:0.6;" x="136.219512" xlink:href="#mef7f816794" y="262.5"/>
      </g>
     </g>
    </g>
    <g id="xtick_28">
     <g id="line2d_28">
      <g>
       <use style="fill:#555555;stroke:#555555;stroke-width:0.6;" x="142.835366" xlink:href="#mef7f816794" y="262.5"/>
      </g>
     </g>
    </g>
    <g id="xtick_29">
     <g id="line2d_29">
      <g>
       <use style="fill:#555555;stroke:#555555;stroke-width:0.6;" x="149.45122" xlink:href="#mef7f816794" y="262.5"/>
      </g>
     </g>
    </g>
    <g id="xtick_30">
     <g id="line2d_30">
      <g>
       <use style="fill:#555555;stroke:#555555;stroke-width:0.6;" x="156.067073" xlink:href="#mef7f816794" y="262.5"/>
      </g>
     </g>
    </g>
    <g id="xtick_31">
     <g id="line2d_31">
      <g>
       <use style="fill:#555555;stroke:#555555;stroke-width:0.6;" x="162.682927" xlink:href="#mef7f816794" y="262.5"/>
      </g>
     </g>
    </g>
    <g id="xtick_32">
     <g id="line2d_32">
      <g>
       <use style="fill:#555555;stroke:#555555;stroke-width:0.6;" x="169.29878" xlink:href="#mef7f816794" y="262.5"/>
      </g>
     </g>
    </g>
    <g id="xtick_33">
     <g id="line2d_33">
      <g>
       <use style="fill:#555555;stroke:#555555;stroke-width:0.6;" x="175.914634" xlink:href="#mef7f816794" y="262.5"/>
      </g>
     </g>
    </g>
    <g id="xtick_34">
     <g id="line2d_34">
      <g>
       <use style="fill:#555555;stroke:#555555;stroke-width:0.6;" x="182.530488" xlink:href="#mef7f816794" y="262.5"/>
      </g>
     </g>
    </g>
    <g id="xtick_35">
     <g id="line2d_35">
      <g>
       <use style="fill:#555555;stroke:#555555;stroke-width:0.6;" x="189.146341" xlink:href="#mef7f816794" y="262.5"/>
      </g>
     </g>
    </g>
    <g id="xtick_36">
     <g id="line2d_36">
      <g>
       <use style="fill:#555555;stroke:#555555;stroke-width:0.6;" x="195.762195" xlink:href="#mef7f816794" y="262.5"/>
      </g>
     </g>
    </g>
    <g id="xtick_37">
     <g id="line2d_37">
      <g>
       <use style="fill:#555555;stroke:#555555;stroke-width:0.6;" x="202.378049" xlink:href="#mef7f816794" y="262.5"/>
      </g>
     </g>
    </g>
    <g id="xtick_38">
     <g id="line2d_38">
      <g>
       <use style="fill:#555555;stroke:#555555;stroke-width:0.6;" x="208.993902" xlink:href="#mef7f816794" y="262.5"/>
      </g>
     </g>
    </g>
    <g id="xtick_39">
     <g id="line2d_39">
      <g>
       <use style="fill:#555555;stroke:#555555;stroke-width:0.6;" x="215.609756" xlink:href="#mef7f816794" y="262.5"/>
      </g>
     </g>
    </g>
    <g id="xtick_40">
     <g id="line2d_40">
      <g>
       <use style="fill:#555555;stroke:#555555;stroke-width:0.6;" x="222.22561" xlink:href="#mef7f816794" y="262.5"/>
      </g>
     </g>
    </g>
    <g id="xtick_41">
     <g id="line2d_41">
      <g>
       <use style="fill:#555555;stroke:#555555;stroke-width:0.6;" x="228.841463" xlink:href="#mef7f816794" y="262.5"/>
      </g>
     </g>
    </g>
    <g id="xtick_42">
     <g id="line2d_42">
      <g>
       <use style="fill:#555555;stroke:#555555;stroke-width:0.6;" x="235.457317" xlink:href="#mef7f816794" y="262.5"/>
      </g>
     </g>
    </g>
    <g id="xtick_43">
     <g id="line2d_43">
      <g>
       <use style="fill:#555555;stroke:#555555;stroke-width:0.6;" x="242.073171" xlink:href="#mef7f816794" y="262.5"/>
      </g>
     </g>
    </g>
    <g id="xtick_44">
     <g id="line2d_44">
      <g>
       <use style="fill:#555555;stroke:#555555;stroke-width:0.6;" x="248.689024" xlink:href="#mef7f816794" y="262.5"/>
      </g>
     </g>
    </g>
    <g id="xtick_45">
     <g id="line2d_45">
      <g>
       <use style="fill:#555555;stroke:#555555;stroke-width:0.6;" x="255.304878" xlink:href="#mef7f816794" y="262.5"/>
      </g>
     </g>
    </g>
    <g id="xtick_46">
     <g id="line2d_46">
      <g>
       <use style="fill:#555555;stroke:#555555;stroke-width:0.6;" x="261.920732" xlink:href="#mef7f816794" y="262.5"/>
      </g>
     </g>
    </g>
    <g id="xtick_47">
     <g id="line2d_47">
      <g>
       <use style="fill:#555555;stroke:#555555;stroke-width:0.6;" x="268.536585" xlink:href="#mef7f816794" y="262.5"/>
      </g>
     </g>
    </g>
    <g id="xtick_48">
     <g id="line2d_48">
      <g>
       <use style="fill:#555555;stroke:#555555;stroke-width:0.6;" x="275.152439" xlink:href="#mef7f816794" y="262.5"/>
      </g>
     </g>
    </g>
    <g id="xtick_49">
     <g id="line2d_49">
      <g>
       <use style="fill:#555555;stroke:#555555;stroke-width:0.6;" x="281.768293" xlink:href="#mef7f816794" y="262.5"/>
      </g>
     </g>
    </g>
    <g id="xtick_50">
     <g id="line2d_50">
      <g>
       <use style="fill:#555555;stroke:#555555;stroke-width:0.6;" x="288.384146" xlink:href="#mef7f816794" y="262.5"/>
      </g>
     </g>
    </g>
    <g id="xtick_51">
     <g id="line2d_51">
      <g>
       <use style="fill:#555555;stroke:#555555;stroke-width:0.6;" x="295" xlink:href="#mef7f816794" y="262.5"/>
      </g>
     </g>
    </g>
    <g id="xtick_52">
     <g id="line2d_52">
      <g>
       <use style="fill:#555555;stroke:#555555;stroke-width:0.6;" x="301.615854" xlink:href="#mef7f816794" y="262.5"/>
      </g>
     </g>
    </g>
    <g id="xtick_53">
     <g id="line2d_53">
      <g>
       <use style="fill:#555555;stroke:#555555;stroke-width:0.6;" x="308.231707" xlink:href="#mef7f816794" y="262.5"/>
      </g>
     </g>
    </g>
    <g id="xtick_54">
     <g id="line2d_54">
      <g>
       <use style="fill:#555555;stroke:#555555;stroke-width:0.6;" x="314.847561" xlink:href="#mef7f816794" y="262.5"/>
      </g>
     </g>
    </g>
    <g id="xtick_55">
     <g id="line2d_55">
      <g>
       <use style="fill:#555555;stroke:#555555;stroke-width:0.6;" x="321.463415" xlink:href="#mef7f816794" y="262.5"/>
      </g>
     </g>
    </g>
    <g id="xtick_56">
     <g id="line2d_56">
      <g>
       <use style="fill:#555555;stroke:#555555;stroke-width:0.6;" x="328.079268" xlink:href="#mef7f816794" y="262.5"/>
      </g>
     </g>
    </g>
    <g id="xtick_57">
     <g id="line2d_57">
      <g>
       <use style="fill:#555555;stroke:#555555;stroke-width:0.6;" x="341.310976" xlink:href="#mef7f816794" y="262.5"/>
      </g>
     </g>
    </g>
    <g id="xtick_58">
     <g id="line2d_58">
      <g>
       <use style="fill:#555555;stroke:#555555;stroke-width:0.6;" x="347.926829" xlink:href="#mef7f816794" y="262.5"/>
      </g>
     </g>
    </g>
    <g id="xtick_59">
     <g id="line2d_59">
      <g>
       <use style="fill:#555555;stroke:#555555;stroke-width:0.6;" x="354.542683" xlink:href="#mef7f816794" y="262.5"/>
      </g>
     </g>
    </g>
    <g id="xtick_60">
     <g id="line2d_60">
      <g>
       <use style="fill:#555555;stroke:#555555;stroke-width:0.6;" x="367.77439" xlink:href="#mef7f816794" y="262.5"/>
      </g>
     </g>
    </g>
    <g id="xtick_61">
     <g id="line2d_61">
      <g>
       <use style="fill:#555555;stroke:#555555;stroke-width:0.6;" x="374.390244" xlink:href="#mef7f816794" y="262.5"/>
      </g>
     </g>
    </g>
    <g id="xtick_62">
     <g id="line2d_62">
      <g>
       <use style="fill:#555555;stroke:#555555;stroke-width:0.6;" x="381.006098" xlink:href="#mef7f816794" y="262.5"/>
      </g>
     </g>
    </g>
    <g id="xtick_63">
     <g id="line2d_63">
      <g>
       <use style="fill:#555555;stroke:#555555;stroke-width:0.6;" x="387.621951" xlink:href="#mef7f816794" y="262.5"/>
      </g>
     </g>
    </g>
    <g id="xtick_64">
     <g id="line2d_64">
      <g>
       <use style="fill:#555555;stroke:#555555;stroke-width:0.6;" x="394.237805" xlink:href="#mef7f816794" y="262.5"/>
      </g>
     </g>
    </g>
    <g id="xtick_65">
     <g id="line2d_65">
      <g>
       <use style="fill:#555555;stroke:#555555;stroke-width:0.6;" x="400.853659" xlink:href="#mef7f816794" y="262.5"/>
      </g>
     </g>
    </g>
    <g id="xtick_66">
     <g id="line2d_66">
      <g>
       <use style="fill:#555555;stroke:#555555;stroke-width:0.6;" x="407.469512" xlink:href="#mef7f816794" y="262.5"/>
      </g>
     </g>
    </g>
    <g id="xtick_67">
     <g id="line2d_67">
      <g>
       <use style="fill:#555555;stroke:#555555;stroke-width:0.6;" x="414.085366" xlink:href="#mef7f816794" y="262.5"/>
      </g>
     </g>
    </g>
    <g id="xtick_68">
     <g id="line2d_68">
      <g>
       <use style="fill:#555555;stroke:#555555;stroke-width:0.6;" x="420.70122" xlink:href="#mef7f816794" y="262.5"/>
      </g>
     </g>
    </g>
    <g id="xtick_69">
     <g id="line2d_69">
      <g>
       <use style="fill:#555555;stroke:#555555;stroke-width:0.6;" x="427.317073" xlink:href="#mef7f816794" y="262.5"/>
      </g>
     </g>
    </g>
    <g id="xtick_70">
     <g id="line2d_70">
      <g>
       <use style="fill:#555555;stroke:#555555;stroke-width:0.6;" x="433.932927" xlink:href="#mef7f816794" y="262.5"/>
      </g>
     </g>
    </g>
    <g id="xtick_71">
     <g id="line2d_71">
      <g>
       <use style="fill:#555555;stroke:#555555;stroke-width:0.6;" x="440.54878" xlink:href="#mef7f816794" y="262.5"/>
      </g>
     </g>
    </g>
    <g id="xtick_72">
     <g id="line2d_72">
      <g>
       <use style="fill:#555555;stroke:#555555;stroke-width:0.6;" x="447.164634" xlink:href="#mef7f816794" y="262.5"/>
      </g>
     </g>
    </g>
    <g id="text_15">
     <!-- fecha -->
     <g style="fill:#555555;" transform="translate(243.935156 300.290625)scale(0.1 -0.1)">
      <defs>
       <path d="M 9.90625 44.203125 
L 9.90625 0 
L 18.40625 0 
L 18.40625 44.203125 
L 28.40625 44.203125 
L 28.40625 51.703125 
L 18.40625 51.703125 
L 18.40625 58.90625 
Q 18.40625 62.296875 20.09375 63.5 
Q 21.796875 64.703125 24.90625 64.703125 
Q 26 64.703125 27.296875 64.546875 
Q 28.59375 64.40625 29.703125 64 
L 29.703125 71.40625 
Q 28.5 71.796875 26.953125 72 
Q 25.40625 72.203125 24.203125 72.203125 
Q 17.203125 72.203125 13.546875 68.953125 
Q 9.90625 65.703125 9.90625 59.40625 
L 9.90625 51.703125 
L 1.203125 51.703125 
L 1.203125 44.203125 
z
" id="HelveticaNeue-102"/>
       <path d="M 6.40625 71.40625 
L 6.40625 0 
L 14.90625 0 
L 14.90625 29.203125 
Q 14.90625 32.703125 15.84375 35.640625 
Q 16.796875 38.59375 18.6875 40.796875 
Q 20.59375 43 23.4375 44.203125 
Q 26.296875 45.40625 30.203125 45.40625 
Q 35.09375 45.40625 37.890625 42.59375 
Q 40.703125 39.796875 40.703125 35 
L 40.703125 0 
L 49.203125 0 
L 49.203125 34 
Q 49.203125 38.203125 48.34375 41.640625 
Q 47.5 45.09375 45.390625 47.59375 
Q 43.296875 50.09375 39.890625 51.5 
Q 36.5 52.90625 31.40625 52.90625 
Q 29.09375 52.90625 26.640625 52.40625 
Q 24.203125 51.90625 21.953125 50.84375 
Q 19.703125 49.796875 17.890625 48.140625 
Q 16.09375 46.5 15.09375 44.09375 
L 14.90625 44.09375 
L 14.90625 71.40625 
z
" id="HelveticaNeue-104"/>
      </defs>
      <use xlink:href="#HelveticaNeue-102"/>
      <use x="29.599991" xlink:href="#HelveticaNeue-101"/>
      <use x="83.299988" xlink:href="#HelveticaNeue-99"/>
      <use x="136.999985" xlink:href="#HelveticaNeue-104"/>
      <use x="192.599976" xlink:href="#HelveticaNeue-97"/>
     </g>
    </g>
   </g>
   <g id="matplotlib.axis_2">
    <g id="ytick_1">
     <g id="line2d_73">
      <defs>
       <path d="M 0 0 
L -3.5 0 
" id="m042050dffb" style="stroke:#555555;stroke-width:0.8;"/>
      </defs>
      <g>
       <use style="fill:#555555;stroke:#555555;stroke-width:0.8;" x="62.5" xlink:href="#m042050dffb" y="251.795455"/>
      </g>
     </g>
     <g id="text_16">
      <!-- 0 -->
      <g style="fill:#555555;" transform="translate(49.940625 255.365767)scale(0.1 -0.1)">
       <use xlink:href="#HelveticaNeue-48"/>
      </g>
     </g>
    </g>
    <g id="ytick_2">
     <g id="line2d_74">
      <g>
       <use style="fill:#555555;stroke:#555555;stroke-width:0.8;" x="62.5" xlink:href="#m042050dffb" y="224.20642"/>
      </g>
     </g>
     <g id="text_17">
      <!-- 25 -->
      <g style="fill:#555555;" transform="translate(44.38125 227.776732)scale(0.1 -0.1)">
       <defs>
        <path d="M 47 62.203125 
L 47 69.703125 
L 12 69.703125 
L 5.40625 32.90625 
L 12.703125 32.5 
Q 15.203125 35.5 18.453125 37.34375 
Q 21.703125 39.203125 25.90625 39.203125 
Q 29.5 39.203125 32.453125 38 
Q 35.40625 36.796875 37.5 34.640625 
Q 39.59375 32.5 40.75 29.546875 
Q 41.90625 26.59375 41.90625 23.09375 
Q 41.90625 18.90625 40.703125 15.75 
Q 39.5 12.59375 37.453125 10.5 
Q 35.40625 8.40625 32.65625 7.34375 
Q 29.90625 6.296875 26.90625 6.296875 
Q 23.703125 6.296875 21.046875 7.25 
Q 18.40625 8.203125 16.453125 9.953125 
Q 14.5 11.703125 13.34375 14.046875 
Q 12.203125 16.40625 12 19.09375 
L 3.5 19.09375 
Q 3.59375 14.296875 5.390625 10.5 
Q 7.203125 6.703125 10.296875 4.140625 
Q 13.40625 1.59375 17.453125 0.25 
Q 21.5 -1.09375 26.09375 -1.09375 
Q 32.296875 -1.09375 36.9375 0.84375 
Q 41.59375 2.796875 44.6875 6.09375 
Q 47.796875 9.40625 49.34375 13.65625 
Q 50.90625 17.90625 50.90625 22.40625 
Q 50.90625 28.5 49.09375 33.046875 
Q 47.296875 37.59375 44.1875 40.640625 
Q 41.09375 43.703125 36.890625 45.203125 
Q 32.703125 46.703125 28 46.703125 
Q 24.40625 46.703125 20.75 45.453125 
Q 17.09375 44.203125 14.796875 41.59375 
L 14.59375 41.796875 
L 18.40625 62.203125 
z
" id="HelveticaNeue-53"/>
       </defs>
       <use xlink:href="#HelveticaNeue-50"/>
       <use x="55.599991" xlink:href="#HelveticaNeue-53"/>
      </g>
     </g>
    </g>
    <g id="ytick_3">
     <g id="line2d_75">
      <g>
       <use style="fill:#555555;stroke:#555555;stroke-width:0.8;" x="62.5" xlink:href="#m042050dffb" y="196.617385"/>
      </g>
     </g>
     <g id="text_18">
      <!-- 50 -->
      <g style="fill:#555555;" transform="translate(44.38125 200.187698)scale(0.1 -0.1)">
       <use xlink:href="#HelveticaNeue-53"/>
       <use x="55.599991" xlink:href="#HelveticaNeue-48"/>
      </g>
     </g>
    </g>
    <g id="ytick_4">
     <g id="line2d_76">
      <g>
       <use style="fill:#555555;stroke:#555555;stroke-width:0.8;" x="62.5" xlink:href="#m042050dffb" y="169.028351"/>
      </g>
     </g>
     <g id="text_19">
      <!-- 75 -->
      <g style="fill:#555555;" transform="translate(44.38125 172.598663)scale(0.1 -0.1)">
       <defs>
        <path d="M 50.90625 62.40625 
L 50.90625 69.703125 
L 5 69.703125 
L 5 61.703125 
L 42.203125 61.703125 
Q 36.59375 55.796875 31.75 48.796875 
Q 26.90625 41.796875 23.203125 33.9375 
Q 19.5 26.09375 17.140625 17.546875 
Q 14.796875 9 14.203125 0 
L 23.703125 0 
Q 24.203125 8.296875 26.5 17.09375 
Q 28.796875 25.90625 32.4375 34.203125 
Q 36.09375 42.5 40.796875 49.796875 
Q 45.5 57.09375 50.90625 62.40625 
z
" id="HelveticaNeue-55"/>
       </defs>
       <use xlink:href="#HelveticaNeue-55"/>
       <use x="55.599991" xlink:href="#HelveticaNeue-53"/>
      </g>
     </g>
    </g>
    <g id="ytick_5">
     <g id="line2d_77">
      <g>
       <use style="fill:#555555;stroke:#555555;stroke-width:0.8;" x="62.5" xlink:href="#m042050dffb" y="141.439316"/>
      </g>
     </g>
     <g id="text_20">
      <!-- 100 -->
      <g style="fill:#555555;" transform="translate(38.821875 145.009628)scale(0.1 -0.1)">
       <use xlink:href="#HelveticaNeue-49"/>
       <use x="55.599991" xlink:href="#HelveticaNeue-48"/>
       <use x="111.199982" xlink:href="#HelveticaNeue-48"/>
      </g>
     </g>
    </g>
    <g id="ytick_6">
     <g id="line2d_78">
      <g>
       <use style="fill:#555555;stroke:#555555;stroke-width:0.8;" x="62.5" xlink:href="#m042050dffb" y="113.850281"/>
      </g>
     </g>
     <g id="text_21">
      <!-- 125 -->
      <g style="fill:#555555;" transform="translate(38.821875 117.420594)scale(0.1 -0.1)">
       <use xlink:href="#HelveticaNeue-49"/>
       <use x="55.599991" xlink:href="#HelveticaNeue-50"/>
       <use x="111.199982" xlink:href="#HelveticaNeue-53"/>
      </g>
     </g>
    </g>
    <g id="ytick_7">
     <g id="line2d_79">
      <g>
       <use style="fill:#555555;stroke:#555555;stroke-width:0.8;" x="62.5" xlink:href="#m042050dffb" y="86.261246"/>
      </g>
     </g>
     <g id="text_22">
      <!-- 150 -->
      <g style="fill:#555555;" transform="translate(38.821875 89.831559)scale(0.1 -0.1)">
       <use xlink:href="#HelveticaNeue-49"/>
       <use x="55.599991" xlink:href="#HelveticaNeue-53"/>
       <use x="111.199982" xlink:href="#HelveticaNeue-48"/>
      </g>
     </g>
    </g>
    <g id="ytick_8">
     <g id="line2d_80">
      <g>
       <use style="fill:#555555;stroke:#555555;stroke-width:0.8;" x="62.5" xlink:href="#m042050dffb" y="58.672212"/>
      </g>
     </g>
     <g id="text_23">
      <!-- 175 -->
      <g style="fill:#555555;" transform="translate(38.821875 62.242524)scale(0.1 -0.1)">
       <use xlink:href="#HelveticaNeue-49"/>
       <use x="55.599991" xlink:href="#HelveticaNeue-55"/>
       <use x="111.199982" xlink:href="#HelveticaNeue-53"/>
      </g>
     </g>
    </g>
    <g id="ytick_9">
     <g id="line2d_81">
      <g>
       <use style="fill:#555555;stroke:#555555;stroke-width:0.8;" x="62.5" xlink:href="#m042050dffb" y="31.083177"/>
      </g>
     </g>
     <g id="text_24">
      <!-- 200 -->
      <g style="fill:#555555;" transform="translate(38.821875 34.65349)scale(0.1 -0.1)">
       <use xlink:href="#HelveticaNeue-50"/>
       <use x="55.599991" xlink:href="#HelveticaNeue-48"/>
       <use x="111.199982" xlink:href="#HelveticaNeue-48"/>
      </g>
     </g>
    </g>
   </g>
   <g id="line2d_82">
    <path clip-path="url(#p6d2fd2a7d9)" d="M 62.5 251.795455 
L 63.445122 250.691893 
L 64.390244 251.795455 
L 65.335366 249.588332 
L 66.280488 251.795455 
L 67.22561 251.795455 
L 68.170732 248.48477 
L 69.115854 251.795455 
L 70.060976 249.588332 
L 71.006098 251.795455 
L 71.95122 250.691893 
L 72.896341 250.691893 
L 73.841463 251.795455 
L 74.786585 250.691893 
L 76.676829 250.691893 
L 77.621951 242.966963 
L 78.567073 251.795455 
L 79.512195 247.381209 
L 80.457317 248.48477 
L 81.402439 251.795455 
L 82.347561 247.381209 
L 83.292683 250.691893 
L 85.182927 250.691893 
L 86.128049 248.48477 
L 87.073171 247.381209 
L 88.018293 248.48477 
L 88.963415 242.966963 
L 89.908537 248.48477 
L 91.79878 239.656279 
L 92.743902 247.381209 
L 93.689024 239.656279 
L 94.634146 245.174086 
L 95.579268 251.795455 
L 96.52439 241.863402 
L 97.469512 244.070525 
L 98.414634 241.863402 
L 99.359756 246.277648 
L 100.304878 248.48477 
L 101.25 241.863402 
L 102.195122 238.552718 
L 103.140244 242.966963 
L 104.085366 238.552718 
L 105.030488 239.656279 
L 105.97561 238.552718 
L 106.920732 241.863402 
L 107.865854 248.48477 
L 108.810976 241.863402 
L 109.756098 246.277648 
L 110.70122 240.759841 
L 111.646341 241.863402 
L 112.591463 247.381209 
L 113.536585 249.588332 
L 114.481707 238.552718 
L 115.426829 246.277648 
L 116.371951 245.174086 
L 117.317073 229.724227 
L 118.262195 240.759841 
L 119.207317 234.138472 
L 120.152439 237.449157 
L 121.097561 220.895736 
L 122.042683 225.309981 
L 122.987805 234.138472 
L 123.932927 219.792174 
L 124.878049 217.585052 
L 125.823171 239.656279 
L 126.768293 230.827788 
L 127.713415 234.138472 
L 128.658537 229.724227 
L 129.603659 239.656279 
L 130.54878 203.238754 
L 131.493902 224.20642 
L 132.439024 132.610825 
L 133.384146 227.517104 
L 134.329268 124.885895 
L 135.27439 225.309981 
L 136.219512 223.102858 
L 137.164634 198.824508 
L 138.109756 187.788894 
L 139.054878 162.406982 
L 140 214.274367 
L 140.945122 216.48149 
L 141.890244 212.067245 
L 142.835366 199.928069 
L 143.780488 226.413543 
L 144.72561 208.75656 
L 145.670732 187.788894 
L 146.615854 170.131912 
L 148.506098 183.374649 
L 149.45122 206.549438 
L 150.396341 149.164246 
L 151.341463 171.235473 
L 152.286585 143.646439 
L 153.231707 109.436036 
L 154.176829 199.928069 
L 155.121951 212.067245 
L 156.067073 153.578491 
L 157.012195 195.513824 
L 157.957317 180.063964 
L 158.902439 160.199859 
L 159.847561 216.48149 
L 160.792683 202.135192 
L 161.737805 214.274367 
L 162.682927 189.996017 
L 163.628049 160.199859 
L 165.518293 201.031631 
L 166.463415 193.306701 
L 167.408537 196.617385 
L 168.353659 201.031631 
L 169.29878 178.960403 
L 170.243902 151.371368 
L 171.189024 201.031631 
L 172.134146 212.067245 
L 173.079268 215.377929 
L 174.02439 203.238754 
L 174.969512 197.720947 
L 175.914634 194.410262 
L 176.859756 174.546157 
L 177.804878 201.031631 
L 178.75 186.685333 
L 179.695122 206.549438 
L 180.640244 212.067245 
L 181.585366 152.47493 
L 182.530488 172.339035 
L 183.47561 202.135192 
L 185.365854 225.309981 
L 186.310976 184.47821 
L 187.256098 208.75656 
L 188.20122 214.274367 
L 189.146341 207.652999 
L 190.091463 203.238754 
L 191.036585 231.93135 
L 191.981707 203.238754 
L 192.926829 209.860122 
L 193.871951 220.895736 
L 194.817073 238.552718 
L 195.762195 206.549438 
L 196.707317 194.410262 
L 197.652439 212.067245 
L 198.597561 191.099578 
L 199.542683 213.170806 
L 200.487805 206.549438 
L 201.432927 231.93135 
L 202.378049 220.895736 
L 203.323171 215.377929 
L 204.268293 223.102858 
L 205.213415 202.135192 
L 206.158537 227.517104 
L 207.103659 230.827788 
L 208.04878 221.999297 
L 208.993902 220.895736 
L 209.939024 227.517104 
L 210.884146 215.377929 
L 211.829268 216.48149 
L 212.77439 205.445876 
L 213.719512 225.309981 
L 214.664634 226.413543 
L 215.609756 205.445876 
L 216.554878 203.238754 
L 217.5 218.688613 
L 218.445122 227.517104 
L 219.390244 207.652999 
L 220.335366 205.445876 
L 221.280488 199.928069 
L 222.22561 218.688613 
L 223.170732 212.067245 
L 224.115854 212.067245 
L 225.060976 196.617385 
L 226.006098 218.688613 
L 226.95122 204.342315 
L 227.896341 233.034911 
L 228.841463 245.174086 
L 229.786585 238.552718 
L 230.731707 229.724227 
L 231.676829 206.549438 
L 232.621951 208.75656 
L 233.567073 221.999297 
L 234.512195 230.827788 
L 235.457317 201.031631 
L 236.402439 205.445876 
L 237.347561 215.377929 
L 238.292683 215.377929 
L 239.237805 207.652999 
L 240.182927 229.724227 
L 241.128049 224.20642 
L 242.073171 204.342315 
L 243.018293 221.999297 
L 243.963415 204.342315 
L 244.908537 206.549438 
L 245.853659 209.860122 
L 246.79878 205.445876 
L 247.743902 228.620665 
L 248.689024 217.585052 
L 249.634146 216.48149 
L 250.579268 178.960403 
L 251.52439 218.688613 
L 252.469512 208.75656 
L 253.414634 224.20642 
L 254.359756 216.48149 
L 255.304878 220.895736 
L 256.25 220.895736 
L 258.140244 207.652999 
L 259.085366 224.20642 
L 260.030488 218.688613 
L 260.97561 239.656279 
L 261.920732 207.652999 
L 262.865854 198.824508 
L 263.810976 213.170806 
L 264.756098 202.135192 
L 265.70122 220.895736 
L 266.646341 219.792174 
L 267.591463 216.48149 
L 268.536585 214.274367 
L 269.481707 187.788894 
L 270.426829 206.549438 
L 271.371951 196.617385 
L 272.317073 184.47821 
L 273.262195 205.445876 
L 274.207317 223.102858 
L 275.152439 221.999297 
L 277.042683 189.996017 
L 277.987805 203.238754 
L 278.932927 173.442596 
L 279.878049 199.928069 
L 280.823171 204.342315 
L 281.768293 196.617385 
L 282.713415 216.48149 
L 283.658537 191.099578 
L 284.603659 195.513824 
L 285.54878 193.306701 
L 286.493902 172.339035 
L 287.439024 205.445876 
L 288.384146 199.928069 
L 289.329268 174.546157 
L 290.27439 140.335754 
L 291.219512 164.614105 
L 292.164634 157.992737 
L 293.109756 183.374649 
L 294.054878 199.928069 
L 295 156.889175 
L 295.945122 144.75 
L 296.890244 154.682052 
L 297.835366 148.060684 
L 298.780488 223.102858 
L 299.72561 192.20314 
L 300.670732 170.131912 
L 301.615854 166.821228 
L 302.560976 159.096298 
L 303.506098 125.989456 
L 304.45122 178.960403 
L 305.396341 216.48149 
L 306.341463 178.960403 
L 307.286585 159.096298 
L 308.231707 198.824508 
L 309.176829 144.75 
L 310.121951 142.542877 
L 311.067073 118.264527 
L 312.012195 116.057404 
L 312.957317 181.167526 
L 313.902439 212.067245 
L 314.847561 212.067245 
L 315.792683 89.571931 
L 317.682927 161.303421 
L 318.628049 164.614105 
L 319.573171 141.439316 
L 320.518293 128.196579 
L 321.463415 164.614105 
L 322.408537 121.575211 
L 323.353659 150.267807 
L 324.29878 130.403702 
L 325.243902 166.821228 
L 326.189024 156.889175 
L 327.134146 201.031631 
L 328.079268 137.02507 
L 329.02439 180.063964 
L 329.969512 177.856842 
L 330.914634 172.339035 
L 331.859756 194.410262 
L 332.804878 212.067245 
L 333.75 159.096298 
L 334.695122 201.031631 
L 335.640244 210.963683 
L 336.585366 189.996017 
L 337.530488 199.928069 
L 338.47561 196.617385 
L 339.420732 223.102858 
L 340.365854 227.517104 
L 341.310976 207.652999 
L 342.256098 216.48149 
L 343.20122 214.274367 
L 344.146341 220.895736 
L 345.091463 224.20642 
L 346.036585 213.170806 
L 346.981707 212.067245 
L 347.926829 229.724227 
L 348.871951 216.48149 
L 349.817073 233.034911 
L 350.762195 219.792174 
L 351.707317 215.377929 
L 352.652439 230.827788 
L 353.597561 237.449157 
L 354.542683 229.724227 
L 355.487805 230.827788 
L 356.432927 225.309981 
L 357.378049 231.93135 
L 358.323171 233.034911 
L 359.268293 231.93135 
L 360.213415 239.656279 
L 361.158537 239.656279 
L 362.103659 235.242034 
L 363.04878 234.138472 
L 363.993902 238.552718 
L 364.939024 231.93135 
L 365.884146 242.966963 
L 366.829268 236.345595 
L 367.77439 242.966963 
L 368.719512 244.070525 
L 369.664634 239.656279 
L 370.609756 239.656279 
L 371.554878 225.309981 
L 372.5 234.138472 
L 373.445122 231.93135 
L 374.390244 235.242034 
L 376.280488 230.827788 
L 377.22561 225.309981 
L 378.170732 230.827788 
L 381.006098 240.759841 
L 381.95122 235.242034 
L 382.896341 233.034911 
L 383.841463 219.792174 
L 384.786585 208.75656 
L 385.731707 215.377929 
L 386.676829 229.724227 
L 387.621951 231.93135 
L 388.567073 214.274367 
L 389.512195 210.963683 
L 390.457317 223.102858 
L 391.402439 216.48149 
L 392.347561 215.377929 
L 393.292683 225.309981 
L 395.182927 174.546157 
L 396.128049 208.75656 
L 397.073171 196.617385 
L 398.018293 173.442596 
L 398.963415 196.617385 
L 399.908537 199.928069 
L 400.853659 175.649719 
L 401.79878 146.957123 
L 402.743902 155.785614 
L 403.689024 154.682052 
L 404.634146 160.199859 
L 405.579268 191.099578 
L 406.52439 191.099578 
L 407.469512 162.406982 
L 408.414634 144.75 
L 409.359756 141.439316 
L 410.304878 154.682052 
L 411.25 154.682052 
L 412.195122 156.889175 
L 413.140244 199.928069 
L 414.085366 153.578491 
L 415.030488 129.300141 
L 415.97561 182.271087 
L 417.865854 159.096298 
L 418.810976 195.513824 
L 419.756098 171.235473 
L 420.70122 138.128632 
L 421.646341 145.853561 
L 422.591463 196.617385 
L 423.536585 118.264527 
L 424.481707 155.785614 
L 425.426829 154.682052 
L 426.371951 177.856842 
L 427.317073 135.921509 
L 428.262195 152.47493 
L 429.207317 145.853561 
L 430.152439 121.575211 
L 431.097561 170.131912 
L 432.042683 159.096298 
L 432.987805 191.099578 
L 433.932927 149.164246 
L 434.878049 157.992737 
L 435.823171 163.510544 
L 436.768293 152.47493 
L 437.713415 125.989456 
L 438.658537 90.675492 
L 439.603659 153.578491 
L 440.54878 127.093018 
L 441.493902 74.122071 
L 442.439024 140.335754 
L 443.384146 37.704545 
L 444.329268 97.29686 
L 445.27439 121.575211 
L 447.164634 151.371368 
L 448.109756 119.368088 
L 449.054878 156.889175 
L 450 206.549438 
L 450 206.549438 
" style="fill:none;stroke:#000000;stroke-dasharray:1.5,2.475;stroke-dashoffset:0;stroke-opacity:0.5;stroke-width:1.5;"/>
   </g>
   <g id="line2d_83">
    <path clip-path="url(#p6d2fd2a7d9)" d="M 62.5 250.691893 
L 73.841463 250.691893 
L 74.786585 249.588332 
L 76.676829 249.588332 
L 77.621951 248.48477 
L 80.457317 248.48477 
L 81.402439 249.588332 
L 85.182927 249.588332 
L 86.128049 248.48477 
L 87.073171 248.48477 
L 90.853659 244.070525 
L 91.79878 244.070525 
L 92.743902 245.174086 
L 93.689024 244.070525 
L 94.634146 244.070525 
L 95.579268 245.174086 
L 96.52439 244.070525 
L 97.469512 245.174086 
L 98.414634 245.174086 
L 99.359756 244.070525 
L 100.304878 244.070525 
L 104.085366 239.656279 
L 105.97561 241.863402 
L 106.920732 241.863402 
L 107.865854 242.966963 
L 108.810976 242.966963 
L 110.70122 245.174086 
L 111.646341 244.070525 
L 113.536585 244.070525 
L 114.481707 242.966963 
L 115.426829 242.966963 
L 118.262195 236.345595 
L 119.207317 233.034911 
L 120.152439 231.93135 
L 122.042683 227.517104 
L 122.987805 227.517104 
L 123.932927 226.413543 
L 124.878049 228.620665 
L 126.768293 230.827788 
L 128.658537 228.620665 
L 129.603659 216.48149 
L 130.54878 212.067245 
L 131.493902 197.720947 
L 132.439024 193.306701 
L 133.384146 191.099578 
L 134.329268 192.20314 
L 135.27439 191.099578 
L 136.219512 194.410262 
L 137.164634 193.306701 
L 138.109756 201.031631 
L 140 198.824508 
L 141.890244 207.652999 
L 142.835366 209.860122 
L 145.670732 193.306701 
L 146.615854 191.099578 
L 147.560976 183.374649 
L 148.506098 178.960403 
L 149.45122 173.442596 
L 150.396341 164.614105 
L 151.341463 163.510544 
L 152.286585 165.717666 
L 153.231707 162.406982 
L 154.176829 169.028351 
L 155.121951 173.442596 
L 156.067073 176.75328 
L 157.012195 185.581771 
L 157.957317 186.685333 
L 158.902439 188.892455 
L 159.847561 194.410262 
L 160.792683 192.20314 
L 161.737805 192.20314 
L 162.682927 193.306701 
L 163.628049 189.996017 
L 164.573171 188.892455 
L 165.518293 188.892455 
L 166.463415 189.996017 
L 167.408537 188.892455 
L 169.29878 188.892455 
L 172.134146 195.513824 
L 173.079268 198.824508 
L 174.02439 201.031631 
L 174.969512 198.824508 
L 175.914634 195.513824 
L 176.859756 193.306701 
L 177.804878 194.410262 
L 178.75 191.099578 
L 179.695122 188.892455 
L 180.640244 189.996017 
L 181.585366 189.996017 
L 182.530488 194.410262 
L 183.47561 194.410262 
L 184.420732 196.617385 
L 185.365854 204.342315 
L 186.310976 207.652999 
L 187.256098 207.652999 
L 188.20122 209.860122 
L 189.146341 208.75656 
L 190.091463 212.067245 
L 191.036585 213.170806 
L 191.981707 215.377929 
L 192.926829 216.48149 
L 193.871951 215.377929 
L 195.762195 210.963683 
L 196.707317 209.860122 
L 197.652439 207.652999 
L 198.597561 206.549438 
L 200.487805 213.170806 
L 202.378049 217.585052 
L 203.323171 218.688613 
L 204.268293 220.895736 
L 205.213415 219.792174 
L 207.103659 221.999297 
L 208.04878 221.999297 
L 208.993902 223.102858 
L 209.939024 219.792174 
L 210.884146 218.688613 
L 211.829268 218.688613 
L 212.77439 217.585052 
L 213.719512 214.274367 
L 214.664634 214.274367 
L 215.609756 215.377929 
L 216.554878 215.377929 
L 218.445122 210.963683 
L 219.390244 212.067245 
L 220.335366 212.067245 
L 221.280488 210.963683 
L 222.22561 207.652999 
L 223.170732 208.75656 
L 224.115854 208.75656 
L 226.006098 215.377929 
L 226.95122 220.895736 
L 227.896341 225.309981 
L 228.841463 227.517104 
L 229.786585 226.413543 
L 230.731707 226.413543 
L 231.676829 224.20642 
L 232.621951 218.688613 
L 233.567073 215.377929 
L 234.512195 213.170806 
L 235.457317 214.274367 
L 236.402439 213.170806 
L 237.347561 214.274367 
L 238.292683 214.274367 
L 239.237805 215.377929 
L 240.182927 217.585052 
L 241.128049 216.48149 
L 242.073171 214.274367 
L 243.018293 214.274367 
L 243.963415 210.963683 
L 244.908537 210.963683 
L 246.79878 213.170806 
L 247.743902 210.963683 
L 251.52439 210.963683 
L 252.469512 212.067245 
L 253.414634 214.274367 
L 254.359756 217.585052 
L 255.304878 216.48149 
L 256.25 217.585052 
L 257.195122 217.585052 
L 258.140244 219.792174 
L 261.920732 215.377929 
L 262.865854 213.170806 
L 263.810976 213.170806 
L 264.756098 210.963683 
L 265.70122 213.170806 
L 267.591463 210.963683 
L 268.536585 208.75656 
L 269.481707 203.238754 
L 270.426829 201.031631 
L 271.371951 201.031631 
L 272.317073 203.238754 
L 273.262195 206.549438 
L 274.207317 205.445876 
L 275.152439 206.549438 
L 277.042683 202.135192 
L 277.987805 197.720947 
L 278.932927 195.513824 
L 282.713415 199.928069 
L 283.658537 196.617385 
L 285.54878 194.410262 
L 286.493902 191.099578 
L 287.439024 184.47821 
L 288.384146 180.063964 
L 289.329268 174.546157 
L 290.27439 172.339035 
L 291.219512 171.235473 
L 292.164634 167.924789 
L 293.109756 166.821228 
L 294.054878 167.924789 
L 295 164.614105 
L 295.945122 169.028351 
L 296.890244 170.131912 
L 297.835366 170.131912 
L 298.780488 174.546157 
L 299.72561 176.75328 
L 300.670732 172.339035 
L 301.615854 171.235473 
L 302.560976 169.028351 
L 303.506098 169.028351 
L 304.45122 170.131912 
L 305.396341 175.649719 
L 307.286585 175.649719 
L 308.231707 165.717666 
L 309.176829 152.47493 
L 310.121951 149.164246 
L 311.067073 152.47493 
L 312.012195 157.992737 
L 312.957317 156.889175 
L 313.902439 156.889175 
L 314.847561 160.199859 
L 315.792683 161.303421 
L 316.737805 154.682052 
L 317.682927 144.75 
L 318.628049 141.439316 
L 319.573171 145.853561 
L 320.518293 146.957123 
L 321.463415 142.542877 
L 322.408537 142.542877 
L 323.353659 144.75 
L 324.29878 153.578491 
L 325.243902 153.578491 
L 326.189024 161.303421 
L 328.079268 170.131912 
L 329.02439 173.442596 
L 329.969512 180.063964 
L 330.914634 178.960403 
L 331.859756 185.581771 
L 332.804878 189.996017 
L 334.695122 194.410262 
L 335.640244 195.513824 
L 336.585366 197.720947 
L 337.530488 205.445876 
L 339.420732 209.860122 
L 340.365854 213.170806 
L 341.310976 215.377929 
L 342.256098 218.688613 
L 344.146341 216.48149 
L 345.091463 218.688613 
L 346.036585 218.688613 
L 346.981707 220.895736 
L 348.871951 220.895736 
L 350.762195 225.309981 
L 352.652439 227.517104 
L 353.597561 227.517104 
L 354.542683 229.724227 
L 355.487805 230.827788 
L 356.432927 230.827788 
L 361.158537 236.345595 
L 362.103659 236.345595 
L 363.04878 237.449157 
L 363.993902 236.345595 
L 366.829268 239.656279 
L 368.719512 239.656279 
L 369.664634 237.449157 
L 374.390244 231.93135 
L 375.335366 231.93135 
L 376.280488 230.827788 
L 379.115854 234.138472 
L 381.006098 234.138472 
L 382.896341 227.517104 
L 385.731707 220.895736 
L 386.676829 219.792174 
L 387.621951 219.792174 
L 388.567073 220.895736 
L 390.457317 218.688613 
L 391.402439 216.48149 
L 392.347561 210.963683 
L 393.292683 208.75656 
L 394.237805 205.445876 
L 395.182927 198.824508 
L 397.073171 192.20314 
L 398.018293 189.996017 
L 398.963415 186.685333 
L 399.908537 178.960403 
L 400.853659 172.339035 
L 401.79878 167.924789 
L 402.743902 165.717666 
L 403.689024 165.717666 
L 405.579268 167.924789 
L 406.52439 166.821228 
L 407.469512 164.614105 
L 408.414634 161.303421 
L 409.359756 155.785614 
L 411.25 157.992737 
L 412.195122 157.992737 
L 413.140244 162.406982 
L 414.085366 163.510544 
L 415.030488 163.510544 
L 415.97561 167.924789 
L 416.920732 166.821228 
L 419.756098 166.821228 
L 420.70122 161.303421 
L 421.646341 159.096298 
L 422.591463 153.578491 
L 423.536585 154.682052 
L 425.426829 154.682052 
L 426.371951 150.267807 
L 429.207317 150.267807 
L 430.152439 152.47493 
L 431.097561 155.785614 
L 432.042683 157.992737 
L 432.987805 161.303421 
L 433.932927 163.510544 
L 434.878049 157.992737 
L 435.823171 149.164246 
L 436.768293 141.439316 
L 437.713415 137.02507 
L 438.658537 127.093018 
L 439.603659 122.678772 
L 440.54878 109.436036 
L 441.493902 103.918229 
L 442.439024 103.918229 
L 443.384146 101.711106 
L 444.329268 106.125351 
L 445.27439 113.850281 
L 446.219512 120.471649 
L 447.164634 140.335754 
L 448.109756 149.164246 
L 449.054878 155.785614 
L 450 161.303421 
L 450 161.303421 
" style="fill:none;stroke:#b3220f;stroke-linecap:square;stroke-width:1.5;"/>
   </g>
   <g id="patch_3">
    <path d="M 62.5 262.5 
L 62.5 27 
" style="fill:none;stroke:#555555;stroke-linecap:square;stroke-linejoin:miter;"/>
   </g>
   <g id="patch_4">
    <path d="M 62.5 262.5 
L 450 262.5 
" style="fill:none;stroke:#555555;stroke-linecap:square;stroke-linejoin:miter;"/>
   </g>
   <g id="text_25">
    <!-- Santa Fe | Casos nuevos: 2021-06-03 -->
    <g style="fill:#555555;" transform="translate(138.120625 17)scale(0.14 -0.14)">
     <defs>
      <path id="HelveticaNeue-32"/>
      <path d="M 7.703125 78.59375 
L 7.703125 -21.296875 
L 14.5 -21.296875 
L 14.5 78.59375 
z
" id="HelveticaNeue-124"/>
      <path d="M 58 49.90625 
L 67.5 49.90625 
Q 66.703125 55.59375 64.09375 59.9375 
Q 61.5 64.296875 57.59375 67.1875 
Q 53.703125 70.09375 48.703125 71.59375 
Q 43.703125 73.09375 38.09375 73.09375 
Q 29.90625 73.09375 23.546875 70.140625 
Q 17.203125 67.203125 12.953125 62.09375 
Q 8.703125 57 6.5 50.140625 
Q 4.296875 43.296875 4.296875 35.5 
Q 4.296875 27.703125 6.34375 20.890625 
Q 8.40625 14.09375 12.5 9.09375 
Q 16.59375 4.09375 22.796875 1.25 
Q 29 -1.59375 37.296875 -1.59375 
Q 51 -1.59375 58.890625 5.90625 
Q 66.796875 13.40625 68.203125 26.90625 
L 58.703125 26.90625 
Q 58.40625 22.5 56.90625 18.703125 
Q 55.40625 14.90625 52.75 12.15625 
Q 50.09375 9.40625 46.4375 7.84375 
Q 42.796875 6.296875 38.09375 6.296875 
Q 31.703125 6.296875 27.09375 8.6875 
Q 22.5 11.09375 19.546875 15.140625 
Q 16.59375 19.203125 15.1875 24.640625 
Q 13.796875 30.09375 13.796875 36.203125 
Q 13.796875 41.796875 15.1875 47 
Q 16.59375 52.203125 19.546875 56.25 
Q 22.5 60.296875 27.046875 62.6875 
Q 31.59375 65.09375 38 65.09375 
Q 45.5 65.09375 50.953125 61.296875 
Q 56.40625 57.5 58 49.90625 
z
" id="HelveticaNeue-67"/>
      <path d="M 11.59375 16.296875 
L 3.09375 16.296875 
Q 3.296875 11.5 5.09375 8.140625 
Q 6.90625 4.796875 9.90625 2.75 
Q 12.90625 0.703125 16.796875 -0.1875 
Q 20.703125 -1.09375 25 -1.09375 
Q 28.90625 -1.09375 32.84375 -0.34375 
Q 36.796875 0.40625 39.9375 2.296875 
Q 43.09375 4.203125 45.046875 7.296875 
Q 47 10.40625 47 15.09375 
Q 47 18.796875 45.546875 21.296875 
Q 44.09375 23.796875 41.75 25.4375 
Q 39.40625 27.09375 36.34375 28.09375 
Q 33.296875 29.09375 30.09375 29.796875 
Q 27.09375 30.5 24.09375 31.140625 
Q 21.09375 31.796875 18.6875 32.75 
Q 16.296875 33.703125 14.75 35.140625 
Q 13.203125 36.59375 13.203125 38.796875 
Q 13.203125 40.796875 14.203125 42.046875 
Q 15.203125 43.296875 16.796875 44.046875 
Q 18.40625 44.796875 20.34375 45.09375 
Q 22.296875 45.40625 24.203125 45.40625 
Q 26.296875 45.40625 28.34375 44.953125 
Q 30.40625 44.5 32.09375 43.5 
Q 33.796875 42.5 34.890625 40.84375 
Q 36 39.203125 36.203125 36.703125 
L 44.703125 36.703125 
Q 44.40625 41.40625 42.703125 44.546875 
Q 41 47.703125 38.140625 49.546875 
Q 35.296875 51.40625 31.59375 52.15625 
Q 27.90625 52.90625 23.5 52.90625 
Q 20.09375 52.90625 16.640625 52.046875 
Q 13.203125 51.203125 10.453125 49.453125 
Q 7.703125 47.703125 5.953125 44.890625 
Q 4.203125 42.09375 4.203125 38.203125 
Q 4.203125 33.203125 6.703125 30.390625 
Q 9.203125 27.59375 12.953125 26.046875 
Q 16.703125 24.5 21.09375 23.640625 
Q 25.5 22.796875 29.25 21.75 
Q 33 20.703125 35.5 19 
Q 38 17.296875 38 14 
Q 38 11.59375 36.796875 10.046875 
Q 35.59375 8.5 33.75 7.703125 
Q 31.90625 6.90625 29.703125 6.59375 
Q 27.5 6.296875 25.5 6.296875 
Q 22.90625 6.296875 20.453125 6.796875 
Q 18 7.296875 16.046875 8.4375 
Q 14.09375 9.59375 12.890625 11.546875 
Q 11.703125 13.5 11.59375 16.296875 
z
" id="HelveticaNeue-115"/>
      <path d="M 19.40625 40.59375 
L 19.40625 51.703125 
L 8.296875 51.703125 
L 8.296875 40.59375 
z
M 8.296875 11.09375 
L 8.296875 0 
L 19.40625 0 
L 19.40625 11.09375 
z
" id="HelveticaNeue-58"/>
      <path d="M 5 31.796875 
L 5 23.796875 
L 33.90625 23.796875 
L 33.90625 31.796875 
z
" id="HelveticaNeue-45"/>
      <path d="M 41.40625 52.796875 
L 49.90625 52.796875 
Q 49.09375 61.59375 43.890625 66.25 
Q 38.703125 70.90625 29.90625 70.90625 
Q 22.296875 70.90625 17.296875 67.703125 
Q 12.296875 64.5 9.296875 59.203125 
Q 6.296875 53.90625 5.046875 47.046875 
Q 3.796875 40.203125 3.796875 32.90625 
Q 3.796875 27.296875 4.640625 21.296875 
Q 5.5 15.296875 8.09375 10.296875 
Q 10.703125 5.296875 15.5 2.09375 
Q 20.296875 -1.09375 28.203125 -1.09375 
Q 34.90625 -1.09375 39.453125 1.15625 
Q 44 3.40625 46.75 6.84375 
Q 49.5 10.296875 50.703125 14.5 
Q 51.90625 18.703125 51.90625 22.59375 
Q 51.90625 27.5 50.40625 31.703125 
Q 48.90625 35.90625 46.15625 39 
Q 43.40625 42.09375 39.34375 43.84375 
Q 35.296875 45.59375 30.203125 45.59375 
Q 24.40625 45.59375 19.953125 43.390625 
Q 15.5 41.203125 12.5 36.296875 
L 12.296875 36.5 
Q 12.40625 40.59375 13.09375 45.296875 
Q 13.796875 50 15.640625 54.046875 
Q 17.5 58.09375 20.796875 60.75 
Q 24.09375 63.40625 29.5 63.40625 
Q 34.59375 63.40625 37.6875 60.5 
Q 40.796875 57.59375 41.40625 52.796875 
z
M 28.59375 38.09375 
Q 32.203125 38.09375 34.890625 36.796875 
Q 37.59375 35.5 39.390625 33.34375 
Q 41.203125 31.203125 42.046875 28.25 
Q 42.90625 25.296875 42.90625 22 
Q 42.90625 18.90625 41.953125 16.046875 
Q 41 13.203125 39.203125 11 
Q 37.40625 8.796875 34.75 7.546875 
Q 32.09375 6.296875 28.59375 6.296875 
Q 25.09375 6.296875 22.34375 7.546875 
Q 19.59375 8.796875 17.75 10.890625 
Q 15.90625 13 14.90625 15.890625 
Q 13.90625 18.796875 13.90625 22.09375 
Q 13.90625 25.40625 14.84375 28.34375 
Q 15.796875 31.296875 17.6875 33.4375 
Q 19.59375 35.59375 22.296875 36.84375 
Q 25 38.09375 28.59375 38.09375 
z
" id="HelveticaNeue-54"/>
      <path d="M 21.796875 40.5 
L 21.796875 33.296875 
Q 24.203125 33.59375 26.90625 33.59375 
Q 30.09375 33.59375 32.84375 32.75 
Q 35.59375 31.90625 37.59375 30.15625 
Q 39.59375 28.40625 40.796875 25.84375 
Q 42 23.296875 42 20 
Q 42 16.796875 40.75 14.25 
Q 39.5 11.703125 37.390625 9.953125 
Q 35.296875 8.203125 32.5 7.25 
Q 29.703125 6.296875 26.59375 6.296875 
Q 19.296875 6.296875 15.5 10.640625 
Q 11.703125 15 11.5 21.90625 
L 3 21.90625 
Q 2.90625 16.40625 4.546875 12.09375 
Q 6.203125 7.796875 9.296875 4.84375 
Q 12.40625 1.90625 16.796875 0.40625 
Q 21.203125 -1.09375 26.59375 -1.09375 
Q 31.59375 -1.09375 36.046875 0.25 
Q 40.5 1.59375 43.796875 4.296875 
Q 47.09375 7 49.046875 11.046875 
Q 51 15.09375 51 20.40625 
Q 51 26.796875 47.84375 31.5 
Q 44.703125 36.203125 38.203125 37.59375 
L 38.203125 37.796875 
Q 42.40625 39.703125 45.203125 43.390625 
Q 48 47.09375 48 51.90625 
Q 48 56.796875 46.34375 60.390625 
Q 44.703125 64 41.796875 66.296875 
Q 38.90625 68.59375 34.953125 69.75 
Q 31 70.90625 26.40625 70.90625 
Q 21.09375 70.90625 17.046875 69.203125 
Q 13 67.5 10.296875 64.5 
Q 7.59375 61.5 6.140625 57.296875 
Q 4.703125 53.09375 4.5 48 
L 13 48 
Q 13 51.09375 13.796875 53.890625 
Q 14.59375 56.703125 16.25 58.796875 
Q 17.90625 60.90625 20.453125 62.15625 
Q 23 63.40625 26.40625 63.40625 
Q 31.796875 63.40625 35.390625 60.546875 
Q 39 57.703125 39 52 
Q 39 49.203125 37.890625 47 
Q 36.796875 44.796875 34.9375 43.34375 
Q 33.09375 41.90625 30.640625 41.15625 
Q 28.203125 40.40625 25.5 40.40625 
L 23.703125 40.40625 
Q 23.203125 40.40625 22.703125 40.40625 
Q 22.296875 40.40625 21.796875 40.5 
z
" id="HelveticaNeue-51"/>
     </defs>
     <use xlink:href="#HelveticaNeue-83"/>
     <use x="64.799988" xlink:href="#HelveticaNeue-97"/>
     <use x="118.499985" xlink:href="#HelveticaNeue-110"/>
     <use x="174.099976" xlink:href="#HelveticaNeue-116"/>
     <use x="205.59996" xlink:href="#HelveticaNeue-97"/>
     <use x="259.299957" xlink:href="#HelveticaNeue-32"/>
     <use x="287.099945" xlink:href="#HelveticaNeue-70"/>
     <use x="344.499939" xlink:href="#HelveticaNeue-101"/>
     <use x="398.199936" xlink:href="#HelveticaNeue-32"/>
     <use x="425.999924" xlink:href="#HelveticaNeue-124"/>
     <use x="448.199921" xlink:href="#HelveticaNeue-32"/>
     <use x="475.999908" xlink:href="#HelveticaNeue-67"/>
     <use x="548.19989" xlink:href="#HelveticaNeue-97"/>
     <use x="601.899887" xlink:href="#HelveticaNeue-115"/>
     <use x="651.899872" xlink:href="#HelveticaNeue-111"/>
     <use x="709.299866" xlink:href="#HelveticaNeue-115"/>
     <use x="759.29985" xlink:href="#HelveticaNeue-32"/>
     <use x="787.099838" xlink:href="#HelveticaNeue-110"/>
     <use x="842.699829" xlink:href="#HelveticaNeue-117"/>
     <use x="898.29982" xlink:href="#HelveticaNeue-101"/>
     <use x="951.999817" xlink:href="#HelveticaNeue-118"/>
     <use x="1001.999802" xlink:href="#HelveticaNeue-111"/>
     <use x="1059.399796" xlink:href="#HelveticaNeue-115"/>
     <use x="1109.39978" xlink:href="#HelveticaNeue-58"/>
     <use x="1137.199768" xlink:href="#HelveticaNeue-32"/>
     <use x="1164.999756" xlink:href="#HelveticaNeue-50"/>
     <use x="1220.599747" xlink:href="#HelveticaNeue-48"/>
     <use x="1276.199738" xlink:href="#HelveticaNeue-50"/>
     <use x="1331.799728" xlink:href="#HelveticaNeue-49"/>
     <use x="1387.399719" xlink:href="#HelveticaNeue-45"/>
     <use x="1426.299713" xlink:href="#HelveticaNeue-48"/>
     <use x="1481.899704" xlink:href="#HelveticaNeue-54"/>
     <use x="1537.499695" xlink:href="#HelveticaNeue-45"/>
     <use x="1576.399689" xlink:href="#HelveticaNeue-48"/>
     <use x="1631.99968" xlink:href="#HelveticaNeue-51"/>
    </g>
   </g>
   <g id="legend_1">
    <g id="line2d_84">
     <path d="M 71.5 39.640625 
L 91.5 39.640625 
" style="fill:none;stroke:#000000;stroke-dasharray:1.5,2.475;stroke-dashoffset:0;stroke-opacity:0.5;stroke-width:1.5;"/>
    </g>
    <g id="line2d_85"/>
    <g id="text_26">
     <!-- Actual -->
     <g style="fill:#555555;" transform="translate(99.5 43.140625)scale(0.1 -0.1)">
      <use xlink:href="#HelveticaNeue-65"/>
      <use x="64.799988" xlink:href="#HelveticaNeue-99"/>
      <use x="118.499985" xlink:href="#HelveticaNeue-116"/>
      <use x="149.999969" xlink:href="#HelveticaNeue-117"/>
      <use x="205.59996" xlink:href="#HelveticaNeue-97"/>
      <use x="259.299957" xlink:href="#HelveticaNeue-108"/>
     </g>
    </g>
    <g id="line2d_86">
     <path d="M 71.5 54.310937 
L 91.5 54.310937 
" style="fill:none;stroke:#b3220f;stroke-linecap:square;stroke-width:1.5;"/>
    </g>
    <g id="line2d_87"/>
    <g id="text_27">
     <!-- Promedio semanal (7 das)  -->
     <g style="fill:#555555;" transform="translate(99.5 57.810937)scale(0.1 -0.1)">
      <defs>
       <path d="M 17.296875 37.203125 
L 17.296875 63.40625 
L 35.90625 63.40625 
Q 44 63.40625 47.75 60.046875 
Q 51.5 56.703125 51.5 50.296875 
Q 51.5 43.90625 47.75 40.5 
Q 44 37.09375 35.90625 37.203125 
z
M 7.796875 71.40625 
L 7.796875 0 
L 17.296875 0 
L 17.296875 29.203125 
L 39.09375 29.203125 
Q 49.90625 29.09375 55.453125 34.6875 
Q 61 40.296875 61 50.296875 
Q 61 60.296875 55.453125 65.84375 
Q 49.90625 71.40625 39.09375 71.40625 
z
" id="HelveticaNeue-80"/>
       <path d="M 6.40625 51.703125 
L 6.40625 0 
L 14.90625 0 
L 14.90625 32.203125 
Q 14.90625 33.703125 15.65625 35.953125 
Q 16.40625 38.203125 18.046875 40.296875 
Q 19.703125 42.40625 22.34375 43.90625 
Q 25 45.40625 28.703125 45.40625 
Q 31.59375 45.40625 33.4375 44.546875 
Q 35.296875 43.703125 36.390625 42.140625 
Q 37.5 40.59375 37.953125 38.5 
Q 38.40625 36.40625 38.40625 33.90625 
L 38.40625 0 
L 46.90625 0 
L 46.90625 32.203125 
Q 46.90625 38.203125 50.5 41.796875 
Q 54.09375 45.40625 60.40625 45.40625 
Q 63.5 45.40625 65.453125 44.5 
Q 67.40625 43.59375 68.5 42.046875 
Q 69.59375 40.5 70 38.390625 
Q 70.40625 36.296875 70.40625 33.90625 
L 70.40625 0 
L 78.90625 0 
L 78.90625 37.90625 
Q 78.90625 41.90625 77.65625 44.75 
Q 76.40625 47.59375 74.15625 49.390625 
Q 71.90625 51.203125 68.75 52.046875 
Q 65.59375 52.90625 61.703125 52.90625 
Q 56.59375 52.90625 52.34375 50.59375 
Q 48.09375 48.296875 45.5 44.09375 
Q 43.90625 48.90625 40 50.90625 
Q 36.09375 52.90625 31.296875 52.90625 
Q 20.40625 52.90625 14.59375 44.09375 
L 14.40625 44.09375 
L 14.40625 51.703125 
z
" id="HelveticaNeue-109"/>
       <path d="M 12.59375 25.40625 
Q 12.59375 29.203125 13.390625 32.796875 
Q 14.203125 36.40625 16 39.203125 
Q 17.796875 42 20.796875 43.703125 
Q 23.796875 45.40625 28.09375 45.40625 
Q 32.5 45.40625 35.59375 43.75 
Q 38.703125 42.09375 40.640625 39.390625 
Q 42.59375 36.703125 43.5 33.140625 
Q 44.40625 29.59375 44.40625 25.796875 
Q 44.40625 22.203125 43.546875 18.703125 
Q 42.703125 15.203125 40.796875 12.453125 
Q 38.90625 9.703125 35.90625 8 
Q 32.90625 6.296875 28.59375 6.296875 
Q 24.5 6.296875 21.453125 7.890625 
Q 18.40625 9.5 16.453125 12.203125 
Q 14.5 14.90625 13.546875 18.34375 
Q 12.59375 21.796875 12.59375 25.40625 
z
M 52.59375 0 
L 52.59375 71.40625 
L 44.09375 71.40625 
L 44.09375 44.796875 
L 43.90625 44.796875 
Q 42.5 47.09375 40.453125 48.640625 
Q 38.40625 50.203125 36.09375 51.140625 
Q 33.796875 52.09375 31.5 52.5 
Q 29.203125 52.90625 27.203125 52.90625 
Q 21.296875 52.90625 16.84375 50.75 
Q 12.40625 48.59375 9.453125 44.9375 
Q 6.5 41.296875 5.046875 36.390625 
Q 3.59375 31.5 3.59375 26 
Q 3.59375 20.5 5.09375 15.59375 
Q 6.59375 10.703125 9.546875 7 
Q 12.5 3.296875 16.953125 1.09375 
Q 21.40625 -1.09375 27.40625 -1.09375 
Q 32.796875 -1.09375 37.296875 0.796875 
Q 41.796875 2.703125 43.90625 7 
L 44.09375 7 
L 44.09375 0 
z
" id="HelveticaNeue-100"/>
       <path d="M 15.40625 61 
L 15.40625 71.40625 
L 6.90625 71.40625 
L 6.90625 61 
z
M 6.90625 51.703125 
L 6.90625 0 
L 15.40625 0 
L 15.40625 51.703125 
z
" id="HelveticaNeue-105"/>
       <path d="M 20.40625 -19.703125 
L 26.90625 -19.703125 
Q 19.796875 -8.203125 16.75 3.09375 
Q 13.703125 14.40625 13.703125 27 
Q 13.703125 39.296875 16.703125 50.5 
Q 19.703125 61.703125 26.90625 73.09375 
L 20.40625 73.09375 
Q 12.59375 62.796875 8.640625 50.796875 
Q 4.703125 38.796875 4.703125 27 
Q 4.703125 20.40625 5.796875 14.40625 
Q 6.90625 8.40625 8.953125 2.703125 
Q 11 -3 13.890625 -8.546875 
Q 16.796875 -14.09375 20.40625 -19.703125 
z
" id="HelveticaNeue-40"/>
       <path d="M 6.90625 0 
L 15.40625 0 
L 15.40625 51.703125 
L 6.90625 51.703125 
z
M 25.5 77 
L 11.40625 60.796875 
L 5 60.796875 
L 14.59375 77 
z
" id="HelveticaNeue-237"/>
       <path d="M -0.90625 -19.703125 
L 5.5 -19.703125 
Q 13.296875 -9.40625 17.25 2.546875 
Q 21.203125 14.5 21.203125 26.296875 
Q 21.203125 32.90625 20.09375 38.90625 
Q 19 44.90625 16.953125 50.65625 
Q 14.90625 56.40625 12 61.953125 
Q 9.09375 67.5 5.5 73.09375 
L -0.90625 73.09375 
Q 6.09375 61.59375 9.140625 50.25 
Q 12.203125 38.90625 12.203125 26.296875 
Q 12.203125 14.09375 9.203125 2.84375 
Q 6.203125 -8.40625 -0.90625 -19.703125 
z
" id="HelveticaNeue-41"/>
      </defs>
      <use xlink:href="#HelveticaNeue-80"/>
      <use x="64.799988" xlink:href="#HelveticaNeue-114"/>
      <use x="96.349976" xlink:href="#HelveticaNeue-111"/>
      <use x="153.749969" xlink:href="#HelveticaNeue-109"/>
      <use x="239.049957" xlink:href="#HelveticaNeue-101"/>
      <use x="292.749954" xlink:href="#HelveticaNeue-100"/>
      <use x="352.049942" xlink:href="#HelveticaNeue-105"/>
      <use x="374.249939" xlink:href="#HelveticaNeue-111"/>
      <use x="431.649933" xlink:href="#HelveticaNeue-32"/>
      <use x="459.449921" xlink:href="#HelveticaNeue-115"/>
      <use x="509.449905" xlink:href="#HelveticaNeue-101"/>
      <use x="563.149902" xlink:href="#HelveticaNeue-109"/>
      <use x="648.44989" xlink:href="#HelveticaNeue-97"/>
      <use x="702.149887" xlink:href="#HelveticaNeue-110"/>
      <use x="757.749878" xlink:href="#HelveticaNeue-97"/>
      <use x="811.449875" xlink:href="#HelveticaNeue-108"/>
      <use x="833.649872" xlink:href="#HelveticaNeue-32"/>
      <use x="861.44986" xlink:href="#HelveticaNeue-40"/>
      <use x="887.349854" xlink:href="#HelveticaNeue-55"/>
      <use x="942.949844" xlink:href="#HelveticaNeue-32"/>
      <use x="970.749832" xlink:href="#HelveticaNeue-100"/>
      <use x="1030.04982" xlink:href="#HelveticaNeue-237"/>
      <use x="1052.249817" xlink:href="#HelveticaNeue-97"/>
      <use x="1105.949814" xlink:href="#HelveticaNeue-115"/>
      <use x="1155.949799" xlink:href="#HelveticaNeue-41"/>
      <use x="1181.849792" xlink:href="#HelveticaNeue-32"/>
     </g>
    </g>
   </g>
  </g>
 </g>
 <defs>
  <clipPath id="p6d2fd2a7d9">
   <rect height="235.5" width="387.5" x="62.5" y="27"/>
  </clipPath>
 </defs>
</svg>
