<?xml version="1.0" encoding="utf-8" standalone="no"?>
<!DOCTYPE svg PUBLIC "-//W3C//DTD SVG 1.1//EN"
  "http://www.w3.org/Graphics/SVG/1.1/DTD/svg11.dtd">
<!-- Created with matplotlib (https://matplotlib.org/) -->
<svg height="300pt" version="1.1" viewBox="0 0 500 300" width="500pt" xmlns="http://www.w3.org/2000/svg" xmlns:xlink="http://www.w3.org/1999/xlink">
 <metadata>
  <rdf:RDF xmlns:cc="http://creativecommons.org/ns#" xmlns:dc="http://purl.org/dc/elements/1.1/" xmlns:rdf="http://www.w3.org/1999/02/22-rdf-syntax-ns#">
   <cc:Work>
    <dc:type rdf:resource="http://purl.org/dc/dcmitype/StillImage"/>
    <dc:date>2021-06-07T19:37:05.874286</dc:date>
    <dc:format>image/svg+xml</dc:format>
    <dc:creator>
     <cc:Agent>
      <dc:title>Matplotlib v3.3.4, https://matplotlib.org/</dc:title>
     </cc:Agent>
    </dc:creator>
   </cc:Work>
  </rdf:RDF>
 </metadata>
 <defs>
  <style type="text/css">*{stroke-linecap:butt;stroke-linejoin:round;}</style>
 </defs>
 <g id="figure_1">
  <g id="patch_1">
   <path d="M 0 300 
L 500 300 
L 500 0 
L 0 0 
z
" style="fill:#ffffff;"/>
  </g>
  <g id="axes_1">
   <g id="patch_2">
    <path d="M 62.5 262.5 
L 450 262.5 
L 450 27 
L 62.5 27 
z
" style="fill:#ffffff;"/>
   </g>
   <g id="matplotlib.axis_1">
    <g id="xtick_1">
     <g id="line2d_1">
      <defs>
       <path d="M 0 0 
L 0 3.5 
" id="m2ce824771f" style="stroke:#555555;stroke-width:0.8;"/>
      </defs>
      <g>
       <use style="fill:#555555;stroke:#555555;stroke-width:0.8;" x="62.5" xlink:href="#m2ce824771f" y="262.5"/>
      </g>
     </g>
    </g>
    <g id="xtick_2">
     <g id="line2d_2">
      <g>
       <use style="fill:#555555;stroke:#555555;stroke-width:0.8;" x="73.786408" xlink:href="#m2ce824771f" y="262.5"/>
      </g>
     </g>
     <g id="text_1">
      <!-- May -->
      <g style="fill:#555555;" transform="translate(64.246564 276.640625)scale(0.1 -0.1)">
       <defs>
        <path d="M 8 71.40625 
L 8 0 
L 17 0 
L 17 59.40625 
L 17.203125 59.40625 
L 39.5 0 
L 47.59375 0 
L 69.90625 59.40625 
L 70.09375 59.40625 
L 70.09375 0 
L 79.09375 0 
L 79.09375 71.40625 
L 66.09375 71.40625 
L 43.5 11.40625 
L 21 71.40625 
z
" id="HelveticaNeue-77"/>
        <path d="M 52.203125 0.203125 
Q 50 -1.09375 46.09375 -1.09375 
Q 42.796875 -1.09375 40.84375 0.75 
Q 38.90625 2.59375 38.90625 6.796875 
Q 35.40625 2.59375 30.75 0.75 
Q 26.09375 -1.09375 20.703125 -1.09375 
Q 17.203125 -1.09375 14.046875 -0.296875 
Q 10.90625 0.5 8.59375 2.203125 
Q 6.296875 3.90625 4.9375 6.65625 
Q 3.59375 9.40625 3.59375 13.296875 
Q 3.59375 17.703125 5.09375 20.5 
Q 6.59375 23.296875 9.046875 25.046875 
Q 11.5 26.796875 14.640625 27.6875 
Q 17.796875 28.59375 21.09375 29.203125 
Q 24.59375 29.90625 27.75 30.25 
Q 30.90625 30.59375 33.296875 31.25 
Q 35.703125 31.90625 37.09375 33.15625 
Q 38.5 34.40625 38.5 36.796875 
Q 38.5 39.59375 37.453125 41.296875 
Q 36.40625 43 34.75 43.890625 
Q 33.09375 44.796875 31.046875 45.09375 
Q 29 45.40625 27 45.40625 
Q 21.59375 45.40625 18 43.34375 
Q 14.40625 41.296875 14.09375 35.59375 
L 5.59375 35.59375 
Q 5.796875 40.40625 7.59375 43.703125 
Q 9.40625 47 12.40625 49.046875 
Q 15.40625 51.09375 19.25 52 
Q 23.09375 52.90625 27.5 52.90625 
Q 31 52.90625 34.453125 52.40625 
Q 37.90625 51.90625 40.703125 50.34375 
Q 43.5 48.796875 45.203125 46 
Q 46.90625 43.203125 46.90625 38.703125 
L 46.90625 12.09375 
Q 46.90625 9.09375 47.25 7.6875 
Q 47.59375 6.296875 49.59375 6.296875 
Q 50.703125 6.296875 52.203125 6.796875 
z
M 38.40625 26.703125 
Q 36.796875 25.5 34.1875 24.953125 
Q 31.59375 24.40625 28.75 24.046875 
Q 25.90625 23.703125 23 23.25 
Q 20.09375 22.796875 17.796875 21.796875 
Q 15.5 20.796875 14.046875 18.9375 
Q 12.59375 17.09375 12.59375 13.90625 
Q 12.59375 11.796875 13.4375 10.34375 
Q 14.296875 8.90625 15.640625 8 
Q 17 7.09375 18.796875 6.6875 
Q 20.59375 6.296875 22.59375 6.296875 
Q 26.796875 6.296875 29.796875 7.4375 
Q 32.796875 8.59375 34.6875 10.34375 
Q 36.59375 12.09375 37.5 14.140625 
Q 38.40625 16.203125 38.40625 18 
z
" id="HelveticaNeue-97"/>
        <path d="M 26.703125 -6.90625 
Q 25.203125 -10.703125 23.75 -13.296875 
Q 22.296875 -15.90625 20.546875 -17.546875 
Q 18.796875 -19.203125 16.640625 -19.953125 
Q 14.5 -20.703125 11.703125 -20.703125 
Q 10.203125 -20.703125 8.703125 -20.5 
Q 7.203125 -20.296875 5.796875 -19.796875 
L 5.796875 -12 
Q 6.90625 -12.5 8.34375 -12.84375 
Q 9.796875 -13.203125 10.796875 -13.203125 
Q 13.40625 -13.203125 15.15625 -11.953125 
Q 16.90625 -10.703125 17.796875 -8.40625 
L 21.296875 0.296875 
L 0.796875 51.703125 
L 10.40625 51.703125 
L 25.5 9.40625 
L 25.703125 9.40625 
L 40.203125 51.703125 
L 49.203125 51.703125 
z
" id="HelveticaNeue-121"/>
       </defs>
       <use xlink:href="#HelveticaNeue-77"/>
       <use x="87.099991" xlink:href="#HelveticaNeue-97"/>
       <use x="140.799988" xlink:href="#HelveticaNeue-121"/>
      </g>
     </g>
    </g>
    <g id="xtick_3">
     <g id="line2d_3">
      <g>
       <use style="fill:#555555;stroke:#555555;stroke-width:0.8;" x="102.942961" xlink:href="#m2ce824771f" y="262.5"/>
      </g>
     </g>
     <g id="text_2">
      <!-- Jun -->
      <g style="fill:#555555;" transform="translate(94.788274 276.640625)scale(0.1 -0.1)">
       <defs>
        <path d="M 44.09375 17.796875 
L 44.09375 71.40625 
L 34.59375 71.40625 
L 34.59375 19.203125 
Q 34.59375 13.296875 32.140625 9.796875 
Q 29.703125 6.296875 23.203125 6.296875 
Q 19.703125 6.296875 17.453125 7.34375 
Q 15.203125 8.40625 13.953125 10.296875 
Q 12.703125 12.203125 12.203125 14.796875 
Q 11.703125 17.40625 11.703125 20.5 
L 11.703125 23.5 
L 2.203125 23.5 
L 2.203125 19.09375 
Q 2.203125 8.90625 7.59375 3.65625 
Q 13 -1.59375 23 -1.59375 
Q 29 -1.59375 33.046875 0.046875 
Q 37.09375 1.703125 39.546875 4.453125 
Q 42 7.203125 43.046875 10.703125 
Q 44.09375 14.203125 44.09375 17.796875 
z
" id="HelveticaNeue-74"/>
        <path d="M 49.203125 0 
L 49.203125 51.703125 
L 40.703125 51.703125 
L 40.703125 22.5 
Q 40.703125 19 39.75 16.046875 
Q 38.796875 13.09375 36.890625 10.890625 
Q 35 8.703125 32.140625 7.5 
Q 29.296875 6.296875 25.40625 6.296875 
Q 20.5 6.296875 17.703125 9.09375 
Q 14.90625 11.90625 14.90625 16.703125 
L 14.90625 51.703125 
L 6.40625 51.703125 
L 6.40625 17.703125 
Q 6.40625 13.5 7.25 10.046875 
Q 8.09375 6.59375 10.1875 4.09375 
Q 12.296875 1.59375 15.6875 0.25 
Q 19.09375 -1.09375 24.203125 -1.09375 
Q 29.90625 -1.09375 34.09375 1.15625 
Q 38.296875 3.40625 41 8.203125 
L 41.203125 8.203125 
L 41.203125 0 
z
" id="HelveticaNeue-117"/>
        <path d="M 6.40625 51.703125 
L 6.40625 0 
L 14.90625 0 
L 14.90625 29.203125 
Q 14.90625 32.703125 15.84375 35.640625 
Q 16.796875 38.59375 18.6875 40.796875 
Q 20.59375 43 23.4375 44.203125 
Q 26.296875 45.40625 30.203125 45.40625 
Q 35.09375 45.40625 37.890625 42.59375 
Q 40.703125 39.796875 40.703125 35 
L 40.703125 0 
L 49.203125 0 
L 49.203125 34 
Q 49.203125 38.203125 48.34375 41.640625 
Q 47.5 45.09375 45.390625 47.59375 
Q 43.296875 50.09375 39.890625 51.5 
Q 36.5 52.90625 31.40625 52.90625 
Q 19.90625 52.90625 14.59375 43.5 
L 14.40625 43.5 
L 14.40625 51.703125 
z
" id="HelveticaNeue-110"/>
       </defs>
       <use xlink:href="#HelveticaNeue-74"/>
       <use x="51.899994" xlink:href="#HelveticaNeue-117"/>
       <use x="107.499985" xlink:href="#HelveticaNeue-110"/>
      </g>
     </g>
    </g>
    <g id="xtick_4">
     <g id="line2d_4">
      <g>
       <use style="fill:#555555;stroke:#555555;stroke-width:0.8;" x="131.158981" xlink:href="#m2ce824771f" y="262.5"/>
      </g>
     </g>
     <g id="text_3">
      <!-- Jul -->
      <g style="fill:#555555;" transform="translate(124.673824 276.640625)scale(0.1 -0.1)">
       <defs>
        <path d="M 6.90625 71.40625 
L 6.90625 0 
L 15.40625 0 
L 15.40625 71.40625 
z
" id="HelveticaNeue-108"/>
       </defs>
       <use xlink:href="#HelveticaNeue-74"/>
       <use x="51.899994" xlink:href="#HelveticaNeue-117"/>
       <use x="107.499985" xlink:href="#HelveticaNeue-108"/>
      </g>
     </g>
    </g>
    <g id="xtick_5">
     <g id="line2d_5">
      <g>
       <use style="fill:#555555;stroke:#555555;stroke-width:0.8;" x="160.315534" xlink:href="#m2ce824771f" y="262.5"/>
      </g>
     </g>
     <g id="text_4">
      <!-- Aug -->
      <g style="fill:#555555;" transform="translate(151.42569 276.640625)scale(0.1 -0.1)">
       <defs>
        <path d="M 20.09375 29.5 
L 32.203125 62.796875 
L 32.40625 62.796875 
L 44.296875 29.5 
z
M 27.203125 71.40625 
L -0.59375 0 
L 9.09375 0 
L 17.09375 21.5 
L 47.296875 21.5 
L 55.09375 0 
L 65.59375 0 
L 37.703125 71.40625 
z
" id="HelveticaNeue-65"/>
        <path d="M 51 4.40625 
L 51 51.703125 
L 43 51.703125 
L 43 44.296875 
L 42.90625 44.296875 
Q 40.59375 48.59375 36.5 50.75 
Q 32.40625 52.90625 27.5 52.90625 
Q 20.796875 52.90625 16.1875 50.34375 
Q 11.59375 47.796875 8.796875 43.84375 
Q 6 39.90625 4.796875 35.046875 
Q 3.59375 30.203125 3.59375 25.59375 
Q 3.59375 20.296875 5.046875 15.546875 
Q 6.5 10.796875 9.390625 7.25 
Q 12.296875 3.703125 16.59375 1.59375 
Q 20.90625 -0.5 26.703125 -0.5 
Q 31.703125 -0.5 36.140625 1.75 
Q 40.59375 4 42.796875 8.796875 
L 43 8.796875 
L 43 5.40625 
Q 43 1.09375 42.140625 -2.5 
Q 41.296875 -6.09375 39.390625 -8.640625 
Q 37.5 -11.203125 34.59375 -12.640625 
Q 31.703125 -14.09375 27.5 -14.09375 
Q 25.40625 -14.09375 23.09375 -13.640625 
Q 20.796875 -13.203125 18.84375 -12.203125 
Q 16.90625 -11.203125 15.546875 -9.59375 
Q 14.203125 -8 14.09375 -5.703125 
L 5.59375 -5.703125 
Q 5.796875 -9.90625 7.796875 -12.796875 
Q 9.796875 -15.703125 12.84375 -17.5 
Q 15.90625 -19.296875 19.65625 -20.09375 
Q 23.40625 -20.90625 27 -20.90625 
Q 39.40625 -20.90625 45.203125 -14.59375 
Q 51 -8.296875 51 4.40625 
z
M 27.203125 6.90625 
Q 23 6.90625 20.203125 8.65625 
Q 17.40625 10.40625 15.703125 13.25 
Q 14 16.09375 13.296875 19.59375 
Q 12.59375 23.09375 12.59375 26.59375 
Q 12.59375 30.296875 13.4375 33.6875 
Q 14.296875 37.09375 16.140625 39.6875 
Q 18 42.296875 20.890625 43.84375 
Q 23.796875 45.40625 27.90625 45.40625 
Q 31.90625 45.40625 34.703125 43.796875 
Q 37.5 42.203125 39.25 39.546875 
Q 41 36.90625 41.796875 33.59375 
Q 42.59375 30.296875 42.59375 26.90625 
Q 42.59375 23.296875 41.75 19.6875 
Q 40.90625 16.09375 39.09375 13.25 
Q 37.296875 10.40625 34.34375 8.65625 
Q 31.40625 6.90625 27.203125 6.90625 
z
" id="HelveticaNeue-103"/>
       </defs>
       <use xlink:href="#HelveticaNeue-65"/>
       <use x="64.799988" xlink:href="#HelveticaNeue-117"/>
       <use x="120.399979" xlink:href="#HelveticaNeue-103"/>
      </g>
     </g>
    </g>
    <g id="xtick_6">
     <g id="line2d_6">
      <g>
       <use style="fill:#555555;stroke:#555555;stroke-width:0.8;" x="189.472087" xlink:href="#m2ce824771f" y="262.5"/>
      </g>
     </g>
     <g id="text_5">
      <!-- Sep -->
      <g style="fill:#555555;" transform="translate(180.582244 276.809375)scale(0.1 -0.1)">
       <defs>
        <path d="M 49.09375 50.5 
L 58.09375 50.5 
Q 57.90625 56.40625 55.84375 60.65625 
Q 53.796875 64.90625 50.25 67.703125 
Q 46.703125 70.5 42 71.796875 
Q 37.296875 73.09375 31.796875 73.09375 
Q 26.90625 73.09375 22.25 71.84375 
Q 17.59375 70.59375 13.9375 68.046875 
Q 10.296875 65.5 8.09375 61.546875 
Q 5.90625 57.59375 5.90625 52.203125 
Q 5.90625 47.296875 7.84375 44.046875 
Q 9.796875 40.796875 13.046875 38.75 
Q 16.296875 36.703125 20.390625 35.453125 
Q 24.5 34.203125 28.75 33.25 
Q 33 32.296875 37.09375 31.390625 
Q 41.203125 30.5 44.453125 29.046875 
Q 47.703125 27.59375 49.640625 25.296875 
Q 51.59375 23 51.59375 19.296875 
Q 51.59375 15.40625 50 12.90625 
Q 48.40625 10.40625 45.796875 8.953125 
Q 43.203125 7.5 39.953125 6.890625 
Q 36.703125 6.296875 33.5 6.296875 
Q 29.5 6.296875 25.703125 7.296875 
Q 21.90625 8.296875 19.046875 10.390625 
Q 16.203125 12.5 14.453125 15.75 
Q 12.703125 19 12.703125 23.5 
L 3.703125 23.5 
Q 3.703125 17 6.046875 12.25 
Q 8.40625 7.5 12.453125 4.453125 
Q 16.5 1.40625 21.84375 -0.09375 
Q 27.203125 -1.59375 33.203125 -1.59375 
Q 38.09375 -1.59375 43.046875 -0.4375 
Q 48 0.703125 52 3.25 
Q 56 5.796875 58.546875 9.84375 
Q 61.09375 13.90625 61.09375 19.59375 
Q 61.09375 24.90625 59.140625 28.40625 
Q 57.203125 31.90625 53.953125 34.203125 
Q 50.703125 36.5 46.59375 37.84375 
Q 42.5 39.203125 38.25 40.203125 
Q 34 41.203125 29.890625 42.046875 
Q 25.796875 42.90625 22.546875 44.203125 
Q 19.296875 45.5 17.34375 47.546875 
Q 15.40625 49.59375 15.40625 52.90625 
Q 15.40625 56.40625 16.75 58.75 
Q 18.09375 61.09375 20.34375 62.5 
Q 22.59375 63.90625 25.5 64.5 
Q 28.40625 65.09375 31.40625 65.09375 
Q 38.796875 65.09375 43.546875 61.640625 
Q 48.296875 58.203125 49.09375 50.5 
z
" id="HelveticaNeue-83"/>
        <path d="M 42.296875 30.796875 
L 12.59375 30.796875 
Q 12.796875 33.796875 13.890625 36.4375 
Q 15 39.09375 16.890625 41.09375 
Q 18.796875 43.09375 21.4375 44.25 
Q 24.09375 45.40625 27.40625 45.40625 
Q 30.59375 45.40625 33.25 44.25 
Q 35.90625 43.09375 37.84375 41.140625 
Q 39.796875 39.203125 40.9375 36.5 
Q 42.09375 33.796875 42.296875 30.796875 
z
M 50.5 16.40625 
L 42.09375 16.40625 
Q 41 11.296875 37.546875 8.796875 
Q 34.09375 6.296875 28.703125 6.296875 
Q 24.5 6.296875 21.390625 7.6875 
Q 18.296875 9.09375 16.296875 11.4375 
Q 14.296875 13.796875 13.390625 16.84375 
Q 12.5 19.90625 12.59375 23.296875 
L 51.296875 23.296875 
Q 51.5 28 50.453125 33.203125 
Q 49.40625 38.40625 46.65625 42.796875 
Q 43.90625 47.203125 39.34375 50.046875 
Q 34.796875 52.90625 27.90625 52.90625 
Q 22.59375 52.90625 18.140625 50.90625 
Q 13.703125 48.90625 10.453125 45.296875 
Q 7.203125 41.703125 5.390625 36.796875 
Q 3.59375 31.90625 3.59375 26 
Q 3.796875 20.09375 5.34375 15.09375 
Q 6.90625 10.09375 10 6.5 
Q 13.09375 2.90625 17.640625 0.90625 
Q 22.203125 -1.09375 28.40625 -1.09375 
Q 37.203125 -1.09375 43 3.296875 
Q 48.796875 7.703125 50.5 16.40625 
z
" id="HelveticaNeue-101"/>
        <path d="M 6.703125 51.703125 
L 6.703125 -19.703125 
L 15.203125 -19.703125 
L 15.203125 6.90625 
L 15.40625 6.90625 
Q 16.796875 4.59375 18.84375 3.046875 
Q 20.90625 1.5 23.203125 0.59375 
Q 25.5 -0.296875 27.84375 -0.6875 
Q 30.203125 -1.09375 32.09375 -1.09375 
Q 38 -1.09375 42.453125 1 
Q 46.90625 3.09375 49.84375 6.75 
Q 52.796875 10.40625 54.25 15.296875 
Q 55.703125 20.203125 55.703125 25.703125 
Q 55.703125 31.203125 54.203125 36.09375 
Q 52.703125 41 49.75 44.75 
Q 46.796875 48.5 42.34375 50.703125 
Q 37.90625 52.90625 31.90625 52.90625 
Q 26.5 52.90625 22 50.953125 
Q 17.5 49 15.40625 44.703125 
L 15.203125 44.703125 
L 15.203125 51.703125 
z
M 46.703125 26.296875 
Q 46.703125 22.5 45.890625 18.890625 
Q 45.09375 15.296875 43.296875 12.5 
Q 41.5 9.703125 38.546875 8 
Q 35.59375 6.296875 31.203125 6.296875 
Q 26.796875 6.296875 23.6875 7.9375 
Q 20.59375 9.59375 18.640625 12.296875 
Q 16.703125 15 15.796875 18.546875 
Q 14.90625 22.09375 14.90625 25.90625 
Q 14.90625 29.5 15.75 33 
Q 16.59375 36.5 18.5 39.25 
Q 20.40625 42 23.40625 43.703125 
Q 26.40625 45.40625 30.703125 45.40625 
Q 34.796875 45.40625 37.84375 43.796875 
Q 40.90625 42.203125 42.84375 39.5 
Q 44.796875 36.796875 45.75 33.34375 
Q 46.703125 29.90625 46.703125 26.296875 
z
" id="HelveticaNeue-112"/>
       </defs>
       <use xlink:href="#HelveticaNeue-83"/>
       <use x="64.799988" xlink:href="#HelveticaNeue-101"/>
       <use x="118.499985" xlink:href="#HelveticaNeue-112"/>
      </g>
     </g>
    </g>
    <g id="xtick_7">
     <g id="line2d_7">
      <g>
       <use style="fill:#555555;stroke:#555555;stroke-width:0.8;" x="217.688107" xlink:href="#m2ce824771f" y="262.5"/>
      </g>
     </g>
     <g id="text_6">
      <!-- Oct -->
      <g style="fill:#555555;" transform="translate(209.627951 276.640625)scale(0.1 -0.1)">
       <defs>
        <path d="M 13.296875 35.703125 
Q 13.296875 41.09375 14.6875 46.34375 
Q 16.09375 51.59375 19.09375 55.796875 
Q 22.09375 60 26.796875 62.546875 
Q 31.5 65.09375 38 65.09375 
Q 44.5 65.09375 49.203125 62.546875 
Q 53.90625 60 56.90625 55.796875 
Q 59.90625 51.59375 61.296875 46.34375 
Q 62.703125 41.09375 62.703125 35.703125 
Q 62.703125 30.296875 61.296875 25.046875 
Q 59.90625 19.796875 56.90625 15.59375 
Q 53.90625 11.40625 49.203125 8.84375 
Q 44.5 6.296875 38 6.296875 
Q 31.5 6.296875 26.796875 8.84375 
Q 22.09375 11.40625 19.09375 15.59375 
Q 16.09375 19.796875 14.6875 25.046875 
Q 13.296875 30.296875 13.296875 35.703125 
z
M 3.796875 35.703125 
Q 3.796875 28.40625 5.9375 21.65625 
Q 8.09375 14.90625 12.390625 9.703125 
Q 16.703125 4.5 23.09375 1.453125 
Q 29.5 -1.59375 38 -1.59375 
Q 46.5 -1.59375 52.890625 1.453125 
Q 59.296875 4.5 63.59375 9.703125 
Q 67.90625 14.90625 70.046875 21.65625 
Q 72.203125 28.40625 72.203125 35.703125 
Q 72.203125 43 70.046875 49.75 
Q 67.90625 56.5 63.59375 61.703125 
Q 59.296875 66.90625 52.890625 70 
Q 46.5 73.09375 38 73.09375 
Q 29.5 73.09375 23.09375 70 
Q 16.703125 66.90625 12.390625 61.703125 
Q 8.09375 56.5 5.9375 49.75 
Q 3.796875 43 3.796875 35.703125 
z
" id="HelveticaNeue-79"/>
        <path d="M 41.5 35.09375 
L 50.296875 35.09375 
Q 49.796875 39.703125 47.890625 43.046875 
Q 46 46.40625 43.046875 48.59375 
Q 40.09375 50.796875 36.25 51.84375 
Q 32.40625 52.90625 28 52.90625 
Q 21.90625 52.90625 17.296875 50.75 
Q 12.703125 48.59375 9.640625 44.84375 
Q 6.59375 41.09375 5.09375 36.046875 
Q 3.59375 31 3.59375 25.203125 
Q 3.59375 19.40625 5.140625 14.546875 
Q 6.703125 9.703125 9.75 6.203125 
Q 12.796875 2.703125 17.34375 0.796875 
Q 21.90625 -1.09375 27.796875 -1.09375 
Q 37.703125 -1.09375 43.453125 4.09375 
Q 49.203125 9.296875 50.59375 18.90625 
L 41.90625 18.90625 
Q 41.09375 12.90625 37.546875 9.59375 
Q 34 6.296875 27.703125 6.296875 
Q 23.703125 6.296875 20.796875 7.890625 
Q 17.90625 9.5 16.09375 12.140625 
Q 14.296875 14.796875 13.4375 18.1875 
Q 12.59375 21.59375 12.59375 25.203125 
Q 12.59375 29.09375 13.390625 32.75 
Q 14.203125 36.40625 16.046875 39.203125 
Q 17.90625 42 21 43.703125 
Q 24.09375 45.40625 28.703125 45.40625 
Q 34.09375 45.40625 37.296875 42.703125 
Q 40.5 40 41.5 35.09375 
z
" id="HelveticaNeue-99"/>
        <path d="M 18.203125 51.703125 
L 18.203125 67.203125 
L 9.703125 67.203125 
L 9.703125 51.703125 
L 0.90625 51.703125 
L 0.90625 44.203125 
L 9.703125 44.203125 
L 9.703125 11.296875 
Q 9.703125 7.703125 10.390625 5.5 
Q 11.09375 3.296875 12.546875 2.09375 
Q 14 0.90625 16.34375 0.453125 
Q 18.703125 0 22 0 
L 28.5 0 
L 28.5 7.5 
L 24.59375 7.5 
Q 22.59375 7.5 21.34375 7.640625 
Q 20.09375 7.796875 19.390625 8.296875 
Q 18.703125 8.796875 18.453125 9.6875 
Q 18.203125 10.59375 18.203125 12.09375 
L 18.203125 44.203125 
L 28.5 44.203125 
L 28.5 51.703125 
z
" id="HelveticaNeue-116"/>
       </defs>
       <use xlink:href="#HelveticaNeue-79"/>
       <use x="75.999985" xlink:href="#HelveticaNeue-99"/>
       <use x="129.699982" xlink:href="#HelveticaNeue-116"/>
      </g>
     </g>
    </g>
    <g id="xtick_8">
     <g id="line2d_8">
      <g>
       <use style="fill:#555555;stroke:#555555;stroke-width:0.8;" x="246.84466" xlink:href="#m2ce824771f" y="262.5"/>
      </g>
     </g>
     <g id="text_7">
      <!-- Nov -->
      <g style="fill:#555555;" transform="translate(237.864191 276.640625)scale(0.1 -0.1)">
       <defs>
        <path d="M 7.703125 71.40625 
L 7.703125 0 
L 16.703125 0 
L 16.703125 57.296875 
L 16.90625 57.296875 
L 54.203125 0 
L 64.59375 0 
L 64.59375 71.40625 
L 55.59375 71.40625 
L 55.59375 13.5 
L 55.40625 13.5 
L 17.796875 71.40625 
z
" id="HelveticaNeue-78"/>
        <path d="M 12.59375 25.796875 
Q 12.59375 30.5 13.84375 34.140625 
Q 15.09375 37.796875 17.296875 40.296875 
Q 19.5 42.796875 22.453125 44.09375 
Q 25.40625 45.40625 28.703125 45.40625 
Q 32 45.40625 34.953125 44.09375 
Q 37.90625 42.796875 40.09375 40.296875 
Q 42.296875 37.796875 43.546875 34.140625 
Q 44.796875 30.5 44.796875 25.796875 
Q 44.796875 21.09375 43.546875 17.4375 
Q 42.296875 13.796875 40.09375 11.34375 
Q 37.90625 8.90625 34.953125 7.59375 
Q 32 6.296875 28.703125 6.296875 
Q 25.40625 6.296875 22.453125 7.59375 
Q 19.5 8.90625 17.296875 11.34375 
Q 15.09375 13.796875 13.84375 17.4375 
Q 12.59375 21.09375 12.59375 25.796875 
z
M 3.59375 25.796875 
Q 3.59375 20.09375 5.1875 15.1875 
Q 6.796875 10.296875 10 6.640625 
Q 13.203125 3 17.890625 0.953125 
Q 22.59375 -1.09375 28.703125 -1.09375 
Q 34.90625 -1.09375 39.546875 0.953125 
Q 44.203125 3 47.390625 6.640625 
Q 50.59375 10.296875 52.1875 15.1875 
Q 53.796875 20.09375 53.796875 25.796875 
Q 53.796875 31.5 52.1875 36.453125 
Q 50.59375 41.40625 47.390625 45.046875 
Q 44.203125 48.703125 39.546875 50.796875 
Q 34.90625 52.90625 28.703125 52.90625 
Q 22.59375 52.90625 17.890625 50.796875 
Q 13.203125 48.703125 10 45.046875 
Q 6.796875 41.40625 5.1875 36.453125 
Q 3.59375 31.5 3.59375 25.796875 
z
" id="HelveticaNeue-111"/>
        <path d="M 29.703125 0 
L 48.59375 51.703125 
L 39.703125 51.703125 
L 25.59375 8.59375 
L 25.40625 8.59375 
L 10.90625 51.703125 
L 1.40625 51.703125 
L 20.59375 0 
z
" id="HelveticaNeue-118"/>
       </defs>
       <use xlink:href="#HelveticaNeue-78"/>
       <use x="72.199982" xlink:href="#HelveticaNeue-111"/>
       <use x="129.599976" xlink:href="#HelveticaNeue-118"/>
      </g>
     </g>
    </g>
    <g id="xtick_9">
     <g id="line2d_9">
      <g>
       <use style="fill:#555555;stroke:#555555;stroke-width:0.8;" x="275.06068" xlink:href="#m2ce824771f" y="262.5"/>
      </g>
     </g>
     <g id="text_8">
      <!-- Dec -->
      <g style="fill:#555555;" transform="translate(266.170055 276.640625)scale(0.1 -0.1)">
       <defs>
        <path d="M 17.296875 8 
L 17.296875 63.40625 
L 33.296875 63.40625 
Q 39.90625 63.40625 44.40625 61.546875 
Q 48.90625 59.703125 51.75 56.140625 
Q 54.59375 52.59375 55.84375 47.546875 
Q 57.09375 42.5 57.09375 36.09375 
Q 57.09375 29.5 55.75 24.84375 
Q 54.40625 20.203125 52.296875 17.09375 
Q 50.203125 14 47.546875 12.203125 
Q 44.90625 10.40625 42.203125 9.453125 
Q 39.5 8.5 37.09375 8.25 
Q 34.703125 8 33.09375 8 
z
M 7.796875 71.40625 
L 7.796875 0 
L 32.296875 0 
Q 41.203125 0 47.703125 2.5 
Q 54.203125 5 58.390625 9.75 
Q 62.59375 14.5 64.59375 21.453125 
Q 66.59375 28.40625 66.59375 37.40625 
Q 66.59375 54.59375 57.6875 63 
Q 48.796875 71.40625 32.296875 71.40625 
z
" id="HelveticaNeue-68"/>
       </defs>
       <use xlink:href="#HelveticaNeue-68"/>
       <use x="70.399994" xlink:href="#HelveticaNeue-101"/>
       <use x="124.099991" xlink:href="#HelveticaNeue-99"/>
      </g>
     </g>
    </g>
    <g id="xtick_10">
     <g id="line2d_10">
      <g>
       <use style="fill:#555555;stroke:#555555;stroke-width:0.8;" x="304.217233" xlink:href="#m2ce824771f" y="262.5"/>
      </g>
     </g>
     <g id="text_9">
      <!-- Jan -->
      <g style="fill:#555555;" transform="translate(296.157077 276.640625)scale(0.1 -0.1)">
       <use xlink:href="#HelveticaNeue-74"/>
       <use x="51.899994" xlink:href="#HelveticaNeue-97"/>
       <use x="105.599991" xlink:href="#HelveticaNeue-110"/>
      </g>
      <!-- 2021 -->
      <g style="fill:#555555;" transform="translate(293.098483 287.179688)scale(0.1 -0.1)">
       <defs>
        <path d="M 4.40625 45.796875 
L 12.90625 45.796875 
Q 12.796875 49 13.546875 52.140625 
Q 14.296875 55.296875 16 57.796875 
Q 17.703125 60.296875 20.34375 61.84375 
Q 23 63.40625 26.703125 63.40625 
Q 29.5 63.40625 32 62.5 
Q 34.5 61.59375 36.34375 59.890625 
Q 38.203125 58.203125 39.296875 55.84375 
Q 40.40625 53.5 40.40625 50.59375 
Q 40.40625 46.90625 39.25 44.09375 
Q 38.09375 41.296875 35.84375 38.890625 
Q 33.59375 36.5 30.1875 34.140625 
Q 26.796875 31.796875 22.296875 29 
Q 18.59375 26.796875 15.1875 24.296875 
Q 11.796875 21.796875 9.09375 18.5 
Q 6.40625 15.203125 4.65625 10.75 
Q 2.90625 6.296875 2.40625 0 
L 48.703125 0 
L 48.703125 7.5 
L 12.296875 7.5 
Q 12.90625 10.796875 14.84375 13.34375 
Q 16.796875 15.90625 19.546875 18.09375 
Q 22.296875 20.296875 25.59375 22.25 
Q 28.90625 24.203125 32.203125 26.203125 
Q 35.5 28.296875 38.59375 30.59375 
Q 41.703125 32.90625 44.09375 35.75 
Q 46.5 38.59375 47.953125 42.1875 
Q 49.40625 45.796875 49.40625 50.5 
Q 49.40625 55.5 47.65625 59.296875 
Q 45.90625 63.09375 42.90625 65.640625 
Q 39.90625 68.203125 35.84375 69.546875 
Q 31.796875 70.90625 27.203125 70.90625 
Q 21.59375 70.90625 17.1875 69 
Q 12.796875 67.09375 9.84375 63.75 
Q 6.90625 60.40625 5.5 55.796875 
Q 4.09375 51.203125 4.40625 45.796875 
z
" id="HelveticaNeue-50"/>
        <path d="M 13.203125 34.90625 
Q 13.203125 37.5 13.25 40.640625 
Q 13.296875 43.796875 13.75 46.9375 
Q 14.203125 50.09375 15.046875 53.09375 
Q 15.90625 56.09375 17.546875 58.34375 
Q 19.203125 60.59375 21.703125 62 
Q 24.203125 63.40625 27.796875 63.40625 
Q 31.40625 63.40625 33.90625 62 
Q 36.40625 60.59375 38.046875 58.34375 
Q 39.703125 56.09375 40.546875 53.09375 
Q 41.40625 50.09375 41.84375 46.9375 
Q 42.296875 43.796875 42.34375 40.640625 
Q 42.40625 37.5 42.40625 34.90625 
Q 42.40625 30.90625 42.15625 25.953125 
Q 41.90625 21 40.546875 16.640625 
Q 39.203125 12.296875 36.203125 9.296875 
Q 33.203125 6.296875 27.796875 6.296875 
Q 22.40625 6.296875 19.40625 9.296875 
Q 16.40625 12.296875 15.046875 16.640625 
Q 13.703125 21 13.453125 25.953125 
Q 13.203125 30.90625 13.203125 34.90625 
z
M 4.203125 34.796875 
Q 4.203125 30.90625 4.390625 26.703125 
Q 4.59375 22.5 5.390625 18.5 
Q 6.203125 14.5 7.703125 10.953125 
Q 9.203125 7.40625 11.796875 4.703125 
Q 14.40625 2 18.34375 0.453125 
Q 22.296875 -1.09375 27.796875 -1.09375 
Q 33.40625 -1.09375 37.296875 0.453125 
Q 41.203125 2 43.796875 4.703125 
Q 46.40625 7.40625 47.90625 10.953125 
Q 49.40625 14.5 50.203125 18.5 
Q 51 22.5 51.203125 26.703125 
Q 51.40625 30.90625 51.40625 34.796875 
Q 51.40625 38.703125 51.203125 42.890625 
Q 51 47.09375 50.203125 51.09375 
Q 49.40625 55.09375 47.90625 58.6875 
Q 46.40625 62.296875 43.796875 65 
Q 41.203125 67.703125 37.25 69.296875 
Q 33.296875 70.90625 27.796875 70.90625 
Q 22.296875 70.90625 18.34375 69.296875 
Q 14.40625 67.703125 11.796875 65 
Q 9.203125 62.296875 7.703125 58.6875 
Q 6.203125 55.09375 5.390625 51.09375 
Q 4.59375 47.09375 4.390625 42.890625 
Q 4.203125 38.703125 4.203125 34.796875 
z
" id="HelveticaNeue-48"/>
        <path d="M 35.59375 0 
L 35.59375 70.90625 
L 29.09375 70.90625 
Q 28.40625 66.90625 26.5 64.296875 
Q 24.59375 61.703125 21.84375 60.203125 
Q 19.09375 58.703125 15.6875 58.140625 
Q 12.296875 57.59375 8.703125 57.59375 
L 8.703125 50.796875 
L 27.09375 50.796875 
L 27.09375 0 
z
" id="HelveticaNeue-49"/>
       </defs>
       <use xlink:href="#HelveticaNeue-50"/>
       <use x="55.599991" xlink:href="#HelveticaNeue-48"/>
       <use x="111.199982" xlink:href="#HelveticaNeue-50"/>
       <use x="166.799973" xlink:href="#HelveticaNeue-49"/>
      </g>
     </g>
    </g>
    <g id="xtick_11">
     <g id="line2d_11">
      <g>
       <use style="fill:#555555;stroke:#555555;stroke-width:0.8;" x="333.373786" xlink:href="#m2ce824771f" y="262.5"/>
      </g>
     </g>
     <g id="text_10">
      <!-- Feb -->
      <g style="fill:#555555;" transform="translate(324.853474 276.640625)scale(0.1 -0.1)">
       <defs>
        <path d="M 7.796875 71.40625 
L 7.796875 0 
L 17.296875 0 
L 17.296875 32.703125 
L 50.09375 32.703125 
L 50.09375 40.703125 
L 17.296875 40.703125 
L 17.296875 63.40625 
L 54.703125 63.40625 
L 54.703125 71.40625 
z
" id="HelveticaNeue-70"/>
        <path d="M 6.703125 71.40625 
L 6.703125 0 
L 15.203125 0 
L 15.203125 6.90625 
L 15.40625 6.90625 
Q 16.796875 4.59375 18.84375 3.046875 
Q 20.90625 1.5 23.203125 0.59375 
Q 25.5 -0.296875 27.84375 -0.6875 
Q 30.203125 -1.09375 32.09375 -1.09375 
Q 38 -1.09375 42.453125 1 
Q 46.90625 3.09375 49.84375 6.75 
Q 52.796875 10.40625 54.25 15.296875 
Q 55.703125 20.203125 55.703125 25.703125 
Q 55.703125 31.203125 54.203125 36.09375 
Q 52.703125 41 49.75 44.75 
Q 46.796875 48.5 42.34375 50.703125 
Q 37.90625 52.90625 31.90625 52.90625 
Q 26.5 52.90625 22 50.953125 
Q 17.5 49 15.40625 44.703125 
L 15.203125 44.703125 
L 15.203125 71.40625 
z
M 46.703125 26.296875 
Q 46.703125 22.5 45.890625 18.890625 
Q 45.09375 15.296875 43.296875 12.5 
Q 41.5 9.703125 38.546875 8 
Q 35.59375 6.296875 31.203125 6.296875 
Q 26.796875 6.296875 23.6875 7.9375 
Q 20.59375 9.59375 18.640625 12.296875 
Q 16.703125 15 15.796875 18.546875 
Q 14.90625 22.09375 14.90625 25.90625 
Q 14.90625 29.5 15.75 33 
Q 16.59375 36.5 18.5 39.25 
Q 20.40625 42 23.40625 43.703125 
Q 26.40625 45.40625 30.703125 45.40625 
Q 34.796875 45.40625 37.84375 43.796875 
Q 40.90625 42.203125 42.84375 39.5 
Q 44.796875 36.796875 45.75 33.34375 
Q 46.703125 29.90625 46.703125 26.296875 
z
" id="HelveticaNeue-98"/>
       </defs>
       <use xlink:href="#HelveticaNeue-70"/>
       <use x="57.399994" xlink:href="#HelveticaNeue-101"/>
       <use x="111.099991" xlink:href="#HelveticaNeue-98"/>
      </g>
     </g>
    </g>
    <g id="xtick_12">
     <g id="line2d_12">
      <g>
       <use style="fill:#555555;stroke:#555555;stroke-width:0.8;" x="359.708738" xlink:href="#m2ce824771f" y="262.5"/>
      </g>
     </g>
     <g id="text_11">
      <!-- Mar -->
      <g style="fill:#555555;" transform="translate(351.00405 276.640625)scale(0.1 -0.1)">
       <defs>
        <path d="M 6.09375 51.703125 
L 6.09375 0 
L 14.59375 0 
L 14.59375 23 
Q 14.59375 28 15.59375 31.84375 
Q 16.59375 35.703125 18.796875 38.390625 
Q 21 41.09375 24.59375 42.5 
Q 28.203125 43.90625 33.296875 43.90625 
L 33.296875 52.90625 
Q 26.40625 53.09375 21.90625 50.09375 
Q 17.40625 47.09375 14.296875 40.796875 
L 14.09375 40.796875 
L 14.09375 51.703125 
z
" id="HelveticaNeue-114"/>
       </defs>
       <use xlink:href="#HelveticaNeue-77"/>
       <use x="87.099991" xlink:href="#HelveticaNeue-97"/>
       <use x="140.799988" xlink:href="#HelveticaNeue-114"/>
      </g>
     </g>
    </g>
    <g id="xtick_13">
     <g id="line2d_13">
      <g>
       <use style="fill:#555555;stroke:#555555;stroke-width:0.8;" x="388.865291" xlink:href="#m2ce824771f" y="262.5"/>
      </g>
     </g>
     <g id="text_12">
      <!-- Apr -->
      <g style="fill:#555555;" transform="translate(380.99576 276.640625)scale(0.1 -0.1)">
       <use xlink:href="#HelveticaNeue-65"/>
       <use x="64.799988" xlink:href="#HelveticaNeue-112"/>
       <use x="124.099976" xlink:href="#HelveticaNeue-114"/>
      </g>
     </g>
    </g>
    <g id="xtick_14">
     <g id="line2d_14">
      <g>
       <use style="fill:#555555;stroke:#555555;stroke-width:0.8;" x="417.081311" xlink:href="#m2ce824771f" y="262.5"/>
      </g>
     </g>
     <g id="text_13">
      <!-- May -->
      <g style="fill:#555555;" transform="translate(407.541467 276.640625)scale(0.1 -0.1)">
       <use xlink:href="#HelveticaNeue-77"/>
       <use x="87.099991" xlink:href="#HelveticaNeue-97"/>
       <use x="140.799988" xlink:href="#HelveticaNeue-121"/>
      </g>
     </g>
    </g>
    <g id="xtick_15">
     <g id="line2d_15">
      <g>
       <use style="fill:#555555;stroke:#555555;stroke-width:0.8;" x="446.237864" xlink:href="#m2ce824771f" y="262.5"/>
      </g>
     </g>
     <g id="text_14">
      <!-- Jun -->
      <g style="fill:#555555;" transform="translate(438.083177 276.640625)scale(0.1 -0.1)">
       <use xlink:href="#HelveticaNeue-74"/>
       <use x="51.899994" xlink:href="#HelveticaNeue-117"/>
       <use x="107.499985" xlink:href="#HelveticaNeue-110"/>
      </g>
     </g>
    </g>
    <g id="xtick_16">
     <g id="line2d_16">
      <g>
       <use style="fill:#555555;stroke:#555555;stroke-width:0.8;" x="450" xlink:href="#m2ce824771f" y="262.5"/>
      </g>
     </g>
    </g>
    <g id="xtick_17">
     <g id="line2d_17">
      <defs>
       <path d="M 0 0 
L 0 2 
" id="mc979c3f5dc" style="stroke:#555555;stroke-width:0.6;"/>
      </defs>
      <g>
       <use style="fill:#555555;stroke:#555555;stroke-width:0.6;" x="63.440534" xlink:href="#mc979c3f5dc" y="262.5"/>
      </g>
     </g>
    </g>
    <g id="xtick_18">
     <g id="line2d_18">
      <g>
       <use style="fill:#555555;stroke:#555555;stroke-width:0.6;" x="70.024272" xlink:href="#mc979c3f5dc" y="262.5"/>
      </g>
     </g>
    </g>
    <g id="xtick_19">
     <g id="line2d_19">
      <g>
       <use style="fill:#555555;stroke:#555555;stroke-width:0.6;" x="76.60801" xlink:href="#mc979c3f5dc" y="262.5"/>
      </g>
     </g>
    </g>
    <g id="xtick_20">
     <g id="line2d_20">
      <g>
       <use style="fill:#555555;stroke:#555555;stroke-width:0.6;" x="83.191748" xlink:href="#mc979c3f5dc" y="262.5"/>
      </g>
     </g>
    </g>
    <g id="xtick_21">
     <g id="line2d_21">
      <g>
       <use style="fill:#555555;stroke:#555555;stroke-width:0.6;" x="89.775485" xlink:href="#mc979c3f5dc" y="262.5"/>
      </g>
     </g>
    </g>
    <g id="xtick_22">
     <g id="line2d_22">
      <g>
       <use style="fill:#555555;stroke:#555555;stroke-width:0.6;" x="96.359223" xlink:href="#mc979c3f5dc" y="262.5"/>
      </g>
     </g>
    </g>
    <g id="xtick_23">
     <g id="line2d_23">
      <g>
       <use style="fill:#555555;stroke:#555555;stroke-width:0.6;" x="109.526699" xlink:href="#mc979c3f5dc" y="262.5"/>
      </g>
     </g>
    </g>
    <g id="xtick_24">
     <g id="line2d_24">
      <g>
       <use style="fill:#555555;stroke:#555555;stroke-width:0.6;" x="116.110437" xlink:href="#mc979c3f5dc" y="262.5"/>
      </g>
     </g>
    </g>
    <g id="xtick_25">
     <g id="line2d_25">
      <g>
       <use style="fill:#555555;stroke:#555555;stroke-width:0.6;" x="122.694175" xlink:href="#mc979c3f5dc" y="262.5"/>
      </g>
     </g>
    </g>
    <g id="xtick_26">
     <g id="line2d_26">
      <g>
       <use style="fill:#555555;stroke:#555555;stroke-width:0.6;" x="129.277913" xlink:href="#mc979c3f5dc" y="262.5"/>
      </g>
     </g>
    </g>
    <g id="xtick_27">
     <g id="line2d_27">
      <g>
       <use style="fill:#555555;stroke:#555555;stroke-width:0.6;" x="135.86165" xlink:href="#mc979c3f5dc" y="262.5"/>
      </g>
     </g>
    </g>
    <g id="xtick_28">
     <g id="line2d_28">
      <g>
       <use style="fill:#555555;stroke:#555555;stroke-width:0.6;" x="142.445388" xlink:href="#mc979c3f5dc" y="262.5"/>
      </g>
     </g>
    </g>
    <g id="xtick_29">
     <g id="line2d_29">
      <g>
       <use style="fill:#555555;stroke:#555555;stroke-width:0.6;" x="149.029126" xlink:href="#mc979c3f5dc" y="262.5"/>
      </g>
     </g>
    </g>
    <g id="xtick_30">
     <g id="line2d_30">
      <g>
       <use style="fill:#555555;stroke:#555555;stroke-width:0.6;" x="155.612864" xlink:href="#mc979c3f5dc" y="262.5"/>
      </g>
     </g>
    </g>
    <g id="xtick_31">
     <g id="line2d_31">
      <g>
       <use style="fill:#555555;stroke:#555555;stroke-width:0.6;" x="162.196602" xlink:href="#mc979c3f5dc" y="262.5"/>
      </g>
     </g>
    </g>
    <g id="xtick_32">
     <g id="line2d_32">
      <g>
       <use style="fill:#555555;stroke:#555555;stroke-width:0.6;" x="168.78034" xlink:href="#mc979c3f5dc" y="262.5"/>
      </g>
     </g>
    </g>
    <g id="xtick_33">
     <g id="line2d_33">
      <g>
       <use style="fill:#555555;stroke:#555555;stroke-width:0.6;" x="175.364078" xlink:href="#mc979c3f5dc" y="262.5"/>
      </g>
     </g>
    </g>
    <g id="xtick_34">
     <g id="line2d_34">
      <g>
       <use style="fill:#555555;stroke:#555555;stroke-width:0.6;" x="181.947816" xlink:href="#mc979c3f5dc" y="262.5"/>
      </g>
     </g>
    </g>
    <g id="xtick_35">
     <g id="line2d_35">
      <g>
       <use style="fill:#555555;stroke:#555555;stroke-width:0.6;" x="188.531553" xlink:href="#mc979c3f5dc" y="262.5"/>
      </g>
     </g>
    </g>
    <g id="xtick_36">
     <g id="line2d_36">
      <g>
       <use style="fill:#555555;stroke:#555555;stroke-width:0.6;" x="195.115291" xlink:href="#mc979c3f5dc" y="262.5"/>
      </g>
     </g>
    </g>
    <g id="xtick_37">
     <g id="line2d_37">
      <g>
       <use style="fill:#555555;stroke:#555555;stroke-width:0.6;" x="201.699029" xlink:href="#mc979c3f5dc" y="262.5"/>
      </g>
     </g>
    </g>
    <g id="xtick_38">
     <g id="line2d_38">
      <g>
       <use style="fill:#555555;stroke:#555555;stroke-width:0.6;" x="208.282767" xlink:href="#mc979c3f5dc" y="262.5"/>
      </g>
     </g>
    </g>
    <g id="xtick_39">
     <g id="line2d_39">
      <g>
       <use style="fill:#555555;stroke:#555555;stroke-width:0.6;" x="214.866505" xlink:href="#mc979c3f5dc" y="262.5"/>
      </g>
     </g>
    </g>
    <g id="xtick_40">
     <g id="line2d_40">
      <g>
       <use style="fill:#555555;stroke:#555555;stroke-width:0.6;" x="221.450243" xlink:href="#mc979c3f5dc" y="262.5"/>
      </g>
     </g>
    </g>
    <g id="xtick_41">
     <g id="line2d_41">
      <g>
       <use style="fill:#555555;stroke:#555555;stroke-width:0.6;" x="228.033981" xlink:href="#mc979c3f5dc" y="262.5"/>
      </g>
     </g>
    </g>
    <g id="xtick_42">
     <g id="line2d_42">
      <g>
       <use style="fill:#555555;stroke:#555555;stroke-width:0.6;" x="234.617718" xlink:href="#mc979c3f5dc" y="262.5"/>
      </g>
     </g>
    </g>
    <g id="xtick_43">
     <g id="line2d_43">
      <g>
       <use style="fill:#555555;stroke:#555555;stroke-width:0.6;" x="241.201456" xlink:href="#mc979c3f5dc" y="262.5"/>
      </g>
     </g>
    </g>
    <g id="xtick_44">
     <g id="line2d_44">
      <g>
       <use style="fill:#555555;stroke:#555555;stroke-width:0.6;" x="247.785194" xlink:href="#mc979c3f5dc" y="262.5"/>
      </g>
     </g>
    </g>
    <g id="xtick_45">
     <g id="line2d_45">
      <g>
       <use style="fill:#555555;stroke:#555555;stroke-width:0.6;" x="254.368932" xlink:href="#mc979c3f5dc" y="262.5"/>
      </g>
     </g>
    </g>
    <g id="xtick_46">
     <g id="line2d_46">
      <g>
       <use style="fill:#555555;stroke:#555555;stroke-width:0.6;" x="260.95267" xlink:href="#mc979c3f5dc" y="262.5"/>
      </g>
     </g>
    </g>
    <g id="xtick_47">
     <g id="line2d_47">
      <g>
       <use style="fill:#555555;stroke:#555555;stroke-width:0.6;" x="267.536408" xlink:href="#mc979c3f5dc" y="262.5"/>
      </g>
     </g>
    </g>
    <g id="xtick_48">
     <g id="line2d_48">
      <g>
       <use style="fill:#555555;stroke:#555555;stroke-width:0.6;" x="274.120146" xlink:href="#mc979c3f5dc" y="262.5"/>
      </g>
     </g>
    </g>
    <g id="xtick_49">
     <g id="line2d_49">
      <g>
       <use style="fill:#555555;stroke:#555555;stroke-width:0.6;" x="280.703883" xlink:href="#mc979c3f5dc" y="262.5"/>
      </g>
     </g>
    </g>
    <g id="xtick_50">
     <g id="line2d_50">
      <g>
       <use style="fill:#555555;stroke:#555555;stroke-width:0.6;" x="287.287621" xlink:href="#mc979c3f5dc" y="262.5"/>
      </g>
     </g>
    </g>
    <g id="xtick_51">
     <g id="line2d_51">
      <g>
       <use style="fill:#555555;stroke:#555555;stroke-width:0.6;" x="293.871359" xlink:href="#mc979c3f5dc" y="262.5"/>
      </g>
     </g>
    </g>
    <g id="xtick_52">
     <g id="line2d_52">
      <g>
       <use style="fill:#555555;stroke:#555555;stroke-width:0.6;" x="300.455097" xlink:href="#mc979c3f5dc" y="262.5"/>
      </g>
     </g>
    </g>
    <g id="xtick_53">
     <g id="line2d_53">
      <g>
       <use style="fill:#555555;stroke:#555555;stroke-width:0.6;" x="307.038835" xlink:href="#mc979c3f5dc" y="262.5"/>
      </g>
     </g>
    </g>
    <g id="xtick_54">
     <g id="line2d_54">
      <g>
       <use style="fill:#555555;stroke:#555555;stroke-width:0.6;" x="313.622573" xlink:href="#mc979c3f5dc" y="262.5"/>
      </g>
     </g>
    </g>
    <g id="xtick_55">
     <g id="line2d_55">
      <g>
       <use style="fill:#555555;stroke:#555555;stroke-width:0.6;" x="320.206311" xlink:href="#mc979c3f5dc" y="262.5"/>
      </g>
     </g>
    </g>
    <g id="xtick_56">
     <g id="line2d_56">
      <g>
       <use style="fill:#555555;stroke:#555555;stroke-width:0.6;" x="326.790049" xlink:href="#mc979c3f5dc" y="262.5"/>
      </g>
     </g>
    </g>
    <g id="xtick_57">
     <g id="line2d_57">
      <g>
       <use style="fill:#555555;stroke:#555555;stroke-width:0.6;" x="339.957524" xlink:href="#mc979c3f5dc" y="262.5"/>
      </g>
     </g>
    </g>
    <g id="xtick_58">
     <g id="line2d_58">
      <g>
       <use style="fill:#555555;stroke:#555555;stroke-width:0.6;" x="346.541262" xlink:href="#mc979c3f5dc" y="262.5"/>
      </g>
     </g>
    </g>
    <g id="xtick_59">
     <g id="line2d_59">
      <g>
       <use style="fill:#555555;stroke:#555555;stroke-width:0.6;" x="353.125" xlink:href="#mc979c3f5dc" y="262.5"/>
      </g>
     </g>
    </g>
    <g id="xtick_60">
     <g id="line2d_60">
      <g>
       <use style="fill:#555555;stroke:#555555;stroke-width:0.6;" x="366.292476" xlink:href="#mc979c3f5dc" y="262.5"/>
      </g>
     </g>
    </g>
    <g id="xtick_61">
     <g id="line2d_61">
      <g>
       <use style="fill:#555555;stroke:#555555;stroke-width:0.6;" x="372.876214" xlink:href="#mc979c3f5dc" y="262.5"/>
      </g>
     </g>
    </g>
    <g id="xtick_62">
     <g id="line2d_62">
      <g>
       <use style="fill:#555555;stroke:#555555;stroke-width:0.6;" x="379.459951" xlink:href="#mc979c3f5dc" y="262.5"/>
      </g>
     </g>
    </g>
    <g id="xtick_63">
     <g id="line2d_63">
      <g>
       <use style="fill:#555555;stroke:#555555;stroke-width:0.6;" x="386.043689" xlink:href="#mc979c3f5dc" y="262.5"/>
      </g>
     </g>
    </g>
    <g id="xtick_64">
     <g id="line2d_64">
      <g>
       <use style="fill:#555555;stroke:#555555;stroke-width:0.6;" x="392.627427" xlink:href="#mc979c3f5dc" y="262.5"/>
      </g>
     </g>
    </g>
    <g id="xtick_65">
     <g id="line2d_65">
      <g>
       <use style="fill:#555555;stroke:#555555;stroke-width:0.6;" x="399.211165" xlink:href="#mc979c3f5dc" y="262.5"/>
      </g>
     </g>
    </g>
    <g id="xtick_66">
     <g id="line2d_66">
      <g>
       <use style="fill:#555555;stroke:#555555;stroke-width:0.6;" x="405.794903" xlink:href="#mc979c3f5dc" y="262.5"/>
      </g>
     </g>
    </g>
    <g id="xtick_67">
     <g id="line2d_67">
      <g>
       <use style="fill:#555555;stroke:#555555;stroke-width:0.6;" x="412.378641" xlink:href="#mc979c3f5dc" y="262.5"/>
      </g>
     </g>
    </g>
    <g id="xtick_68">
     <g id="line2d_68">
      <g>
       <use style="fill:#555555;stroke:#555555;stroke-width:0.6;" x="418.962379" xlink:href="#mc979c3f5dc" y="262.5"/>
      </g>
     </g>
    </g>
    <g id="xtick_69">
     <g id="line2d_69">
      <g>
       <use style="fill:#555555;stroke:#555555;stroke-width:0.6;" x="425.546117" xlink:href="#mc979c3f5dc" y="262.5"/>
      </g>
     </g>
    </g>
    <g id="xtick_70">
     <g id="line2d_70">
      <g>
       <use style="fill:#555555;stroke:#555555;stroke-width:0.6;" x="432.129854" xlink:href="#mc979c3f5dc" y="262.5"/>
      </g>
     </g>
    </g>
    <g id="xtick_71">
     <g id="line2d_71">
      <g>
       <use style="fill:#555555;stroke:#555555;stroke-width:0.6;" x="438.713592" xlink:href="#mc979c3f5dc" y="262.5"/>
      </g>
     </g>
    </g>
    <g id="xtick_72">
     <g id="line2d_72">
      <g>
       <use style="fill:#555555;stroke:#555555;stroke-width:0.6;" x="445.29733" xlink:href="#mc979c3f5dc" y="262.5"/>
      </g>
     </g>
    </g>
    <g id="text_15">
     <!-- fecha -->
     <g style="fill:#555555;" transform="translate(243.935156 300.290625)scale(0.1 -0.1)">
      <defs>
       <path d="M 9.90625 44.203125 
L 9.90625 0 
L 18.40625 0 
L 18.40625 44.203125 
L 28.40625 44.203125 
L 28.40625 51.703125 
L 18.40625 51.703125 
L 18.40625 58.90625 
Q 18.40625 62.296875 20.09375 63.5 
Q 21.796875 64.703125 24.90625 64.703125 
Q 26 64.703125 27.296875 64.546875 
Q 28.59375 64.40625 29.703125 64 
L 29.703125 71.40625 
Q 28.5 71.796875 26.953125 72 
Q 25.40625 72.203125 24.203125 72.203125 
Q 17.203125 72.203125 13.546875 68.953125 
Q 9.90625 65.703125 9.90625 59.40625 
L 9.90625 51.703125 
L 1.203125 51.703125 
L 1.203125 44.203125 
z
" id="HelveticaNeue-102"/>
       <path d="M 6.40625 71.40625 
L 6.40625 0 
L 14.90625 0 
L 14.90625 29.203125 
Q 14.90625 32.703125 15.84375 35.640625 
Q 16.796875 38.59375 18.6875 40.796875 
Q 20.59375 43 23.4375 44.203125 
Q 26.296875 45.40625 30.203125 45.40625 
Q 35.09375 45.40625 37.890625 42.59375 
Q 40.703125 39.796875 40.703125 35 
L 40.703125 0 
L 49.203125 0 
L 49.203125 34 
Q 49.203125 38.203125 48.34375 41.640625 
Q 47.5 45.09375 45.390625 47.59375 
Q 43.296875 50.09375 39.890625 51.5 
Q 36.5 52.90625 31.40625 52.90625 
Q 29.09375 52.90625 26.640625 52.40625 
Q 24.203125 51.90625 21.953125 50.84375 
Q 19.703125 49.796875 17.890625 48.140625 
Q 16.09375 46.5 15.09375 44.09375 
L 14.90625 44.09375 
L 14.90625 71.40625 
z
" id="HelveticaNeue-104"/>
      </defs>
      <use xlink:href="#HelveticaNeue-102"/>
      <use x="29.599991" xlink:href="#HelveticaNeue-101"/>
      <use x="83.299988" xlink:href="#HelveticaNeue-99"/>
      <use x="136.999985" xlink:href="#HelveticaNeue-104"/>
      <use x="192.599976" xlink:href="#HelveticaNeue-97"/>
     </g>
    </g>
   </g>
   <g id="matplotlib.axis_2">
    <g id="ytick_1">
     <g id="line2d_73">
      <defs>
       <path d="M 0 0 
L -3.5 0 
" id="m35d90d4827" style="stroke:#555555;stroke-width:0.8;"/>
      </defs>
      <g>
       <use style="fill:#555555;stroke:#555555;stroke-width:0.8;" x="62.5" xlink:href="#m35d90d4827" y="251.795455"/>
      </g>
     </g>
     <g id="text_16">
      <!-- 0 -->
      <g style="fill:#555555;" transform="translate(49.940625 255.365767)scale(0.1 -0.1)">
       <use xlink:href="#HelveticaNeue-48"/>
      </g>
     </g>
    </g>
    <g id="ytick_2">
     <g id="line2d_74">
      <g>
       <use style="fill:#555555;stroke:#555555;stroke-width:0.8;" x="62.5" xlink:href="#m35d90d4827" y="225.034091"/>
      </g>
     </g>
     <g id="text_17">
      <!-- 25 -->
      <g style="fill:#555555;" transform="translate(44.38125 228.604403)scale(0.1 -0.1)">
       <defs>
        <path d="M 47 62.203125 
L 47 69.703125 
L 12 69.703125 
L 5.40625 32.90625 
L 12.703125 32.5 
Q 15.203125 35.5 18.453125 37.34375 
Q 21.703125 39.203125 25.90625 39.203125 
Q 29.5 39.203125 32.453125 38 
Q 35.40625 36.796875 37.5 34.640625 
Q 39.59375 32.5 40.75 29.546875 
Q 41.90625 26.59375 41.90625 23.09375 
Q 41.90625 18.90625 40.703125 15.75 
Q 39.5 12.59375 37.453125 10.5 
Q 35.40625 8.40625 32.65625 7.34375 
Q 29.90625 6.296875 26.90625 6.296875 
Q 23.703125 6.296875 21.046875 7.25 
Q 18.40625 8.203125 16.453125 9.953125 
Q 14.5 11.703125 13.34375 14.046875 
Q 12.203125 16.40625 12 19.09375 
L 3.5 19.09375 
Q 3.59375 14.296875 5.390625 10.5 
Q 7.203125 6.703125 10.296875 4.140625 
Q 13.40625 1.59375 17.453125 0.25 
Q 21.5 -1.09375 26.09375 -1.09375 
Q 32.296875 -1.09375 36.9375 0.84375 
Q 41.59375 2.796875 44.6875 6.09375 
Q 47.796875 9.40625 49.34375 13.65625 
Q 50.90625 17.90625 50.90625 22.40625 
Q 50.90625 28.5 49.09375 33.046875 
Q 47.296875 37.59375 44.1875 40.640625 
Q 41.09375 43.703125 36.890625 45.203125 
Q 32.703125 46.703125 28 46.703125 
Q 24.40625 46.703125 20.75 45.453125 
Q 17.09375 44.203125 14.796875 41.59375 
L 14.59375 41.796875 
L 18.40625 62.203125 
z
" id="HelveticaNeue-53"/>
       </defs>
       <use xlink:href="#HelveticaNeue-50"/>
       <use x="55.599991" xlink:href="#HelveticaNeue-53"/>
      </g>
     </g>
    </g>
    <g id="ytick_3">
     <g id="line2d_75">
      <g>
       <use style="fill:#555555;stroke:#555555;stroke-width:0.8;" x="62.5" xlink:href="#m35d90d4827" y="198.272727"/>
      </g>
     </g>
     <g id="text_18">
      <!-- 50 -->
      <g style="fill:#555555;" transform="translate(44.38125 201.84304)scale(0.1 -0.1)">
       <use xlink:href="#HelveticaNeue-53"/>
       <use x="55.599991" xlink:href="#HelveticaNeue-48"/>
      </g>
     </g>
    </g>
    <g id="ytick_4">
     <g id="line2d_76">
      <g>
       <use style="fill:#555555;stroke:#555555;stroke-width:0.8;" x="62.5" xlink:href="#m35d90d4827" y="171.511364"/>
      </g>
     </g>
     <g id="text_19">
      <!-- 75 -->
      <g style="fill:#555555;" transform="translate(44.38125 175.081676)scale(0.1 -0.1)">
       <defs>
        <path d="M 50.90625 62.40625 
L 50.90625 69.703125 
L 5 69.703125 
L 5 61.703125 
L 42.203125 61.703125 
Q 36.59375 55.796875 31.75 48.796875 
Q 26.90625 41.796875 23.203125 33.9375 
Q 19.5 26.09375 17.140625 17.546875 
Q 14.796875 9 14.203125 0 
L 23.703125 0 
Q 24.203125 8.296875 26.5 17.09375 
Q 28.796875 25.90625 32.4375 34.203125 
Q 36.09375 42.5 40.796875 49.796875 
Q 45.5 57.09375 50.90625 62.40625 
z
" id="HelveticaNeue-55"/>
       </defs>
       <use xlink:href="#HelveticaNeue-55"/>
       <use x="55.599991" xlink:href="#HelveticaNeue-53"/>
      </g>
     </g>
    </g>
    <g id="ytick_5">
     <g id="line2d_77">
      <g>
       <use style="fill:#555555;stroke:#555555;stroke-width:0.8;" x="62.5" xlink:href="#m35d90d4827" y="144.75"/>
      </g>
     </g>
     <g id="text_20">
      <!-- 100 -->
      <g style="fill:#555555;" transform="translate(38.821875 148.320312)scale(0.1 -0.1)">
       <use xlink:href="#HelveticaNeue-49"/>
       <use x="55.599991" xlink:href="#HelveticaNeue-48"/>
       <use x="111.199982" xlink:href="#HelveticaNeue-48"/>
      </g>
     </g>
    </g>
    <g id="ytick_6">
     <g id="line2d_78">
      <g>
       <use style="fill:#555555;stroke:#555555;stroke-width:0.8;" x="62.5" xlink:href="#m35d90d4827" y="117.988636"/>
      </g>
     </g>
     <g id="text_21">
      <!-- 125 -->
      <g style="fill:#555555;" transform="translate(38.821875 121.558949)scale(0.1 -0.1)">
       <use xlink:href="#HelveticaNeue-49"/>
       <use x="55.599991" xlink:href="#HelveticaNeue-50"/>
       <use x="111.199982" xlink:href="#HelveticaNeue-53"/>
      </g>
     </g>
    </g>
    <g id="ytick_7">
     <g id="line2d_79">
      <g>
       <use style="fill:#555555;stroke:#555555;stroke-width:0.8;" x="62.5" xlink:href="#m35d90d4827" y="91.227273"/>
      </g>
     </g>
     <g id="text_22">
      <!-- 150 -->
      <g style="fill:#555555;" transform="translate(38.821875 94.797585)scale(0.1 -0.1)">
       <use xlink:href="#HelveticaNeue-49"/>
       <use x="55.599991" xlink:href="#HelveticaNeue-53"/>
       <use x="111.199982" xlink:href="#HelveticaNeue-48"/>
      </g>
     </g>
    </g>
    <g id="ytick_8">
     <g id="line2d_80">
      <g>
       <use style="fill:#555555;stroke:#555555;stroke-width:0.8;" x="62.5" xlink:href="#m35d90d4827" y="64.465909"/>
      </g>
     </g>
     <g id="text_23">
      <!-- 175 -->
      <g style="fill:#555555;" transform="translate(38.821875 68.036222)scale(0.1 -0.1)">
       <use xlink:href="#HelveticaNeue-49"/>
       <use x="55.599991" xlink:href="#HelveticaNeue-55"/>
       <use x="111.199982" xlink:href="#HelveticaNeue-53"/>
      </g>
     </g>
    </g>
    <g id="ytick_9">
     <g id="line2d_81">
      <g>
       <use style="fill:#555555;stroke:#555555;stroke-width:0.8;" x="62.5" xlink:href="#m35d90d4827" y="37.704545"/>
      </g>
     </g>
     <g id="text_24">
      <!-- 200 -->
      <g style="fill:#555555;" transform="translate(38.821875 41.274858)scale(0.1 -0.1)">
       <use xlink:href="#HelveticaNeue-50"/>
       <use x="55.599991" xlink:href="#HelveticaNeue-48"/>
       <use x="111.199982" xlink:href="#HelveticaNeue-48"/>
      </g>
     </g>
    </g>
   </g>
   <g id="line2d_82">
    <path clip-path="url(#pcaea84f5f2)" d="M 62.5 251.795455 
L 63.440534 250.725 
L 64.381068 251.795455 
L 65.321602 249.654545 
L 66.262136 251.795455 
L 67.20267 251.795455 
L 68.143204 248.584091 
L 69.083738 251.795455 
L 70.024272 249.654545 
L 70.964806 251.795455 
L 71.90534 250.725 
L 72.845874 250.725 
L 73.786408 251.795455 
L 74.726942 250.725 
L 76.60801 250.725 
L 77.548544 243.231818 
L 78.489078 251.795455 
L 79.429612 247.513636 
L 80.370146 248.584091 
L 81.31068 251.795455 
L 82.251214 247.513636 
L 83.191748 250.725 
L 85.072816 250.725 
L 86.01335 248.584091 
L 86.953883 247.513636 
L 87.894417 248.584091 
L 88.834951 243.231818 
L 89.775485 248.584091 
L 91.656553 240.020455 
L 92.597087 247.513636 
L 93.537621 240.020455 
L 94.478155 245.372727 
L 95.418689 251.795455 
L 96.359223 242.161364 
L 97.299757 244.302273 
L 98.240291 242.161364 
L 99.180825 246.443182 
L 100.121359 248.584091 
L 101.061893 242.161364 
L 102.002427 238.95 
L 102.942961 243.231818 
L 103.883495 238.95 
L 104.824029 240.020455 
L 105.764563 238.95 
L 106.705097 242.161364 
L 107.645631 248.584091 
L 108.586165 242.161364 
L 109.526699 246.443182 
L 110.467233 241.090909 
L 111.407767 242.161364 
L 112.348301 247.513636 
L 113.288835 249.654545 
L 114.229369 238.95 
L 115.169903 246.443182 
L 116.110437 245.372727 
L 117.050971 230.386364 
L 117.991505 241.090909 
L 118.932039 234.668182 
L 119.872573 237.879545 
L 120.813107 221.822727 
L 121.753641 226.104545 
L 122.694175 234.668182 
L 123.634709 220.752273 
L 124.575243 218.611364 
L 125.515777 240.020455 
L 126.456311 231.456818 
L 127.396845 234.668182 
L 128.337379 230.386364 
L 129.277913 240.020455 
L 130.218447 204.695455 
L 131.158981 225.034091 
L 132.099515 136.186364 
L 133.040049 228.245455 
L 133.980583 128.693182 
L 134.921117 226.104545 
L 135.86165 223.963636 
L 136.802184 200.413636 
L 137.742718 189.709091 
L 138.683252 165.088636 
L 139.623786 215.4 
L 140.56432 217.540909 
L 141.504854 213.259091 
L 142.445388 201.484091 
L 143.385922 227.175 
L 144.326456 210.047727 
L 145.26699 189.709091 
L 146.207524 172.581818 
L 148.088592 185.427273 
L 149.029126 207.906818 
L 149.96966 152.243182 
L 150.910194 173.652273 
L 151.850728 146.890909 
L 152.791262 113.706818 
L 153.731796 201.484091 
L 154.67233 213.259091 
L 155.612864 156.525 
L 156.553398 197.202273 
L 157.493932 182.215909 
L 158.434466 162.947727 
L 159.375 217.540909 
L 160.315534 203.625 
L 161.256068 215.4 
L 162.196602 191.85 
L 163.137136 162.947727 
L 165.018204 202.554545 
L 165.958738 195.061364 
L 166.899272 198.272727 
L 167.839806 202.554545 
L 168.78034 181.145455 
L 169.720874 154.384091 
L 170.661408 202.554545 
L 171.601942 213.259091 
L 172.542476 216.470455 
L 173.48301 204.695455 
L 174.423544 199.343182 
L 175.364078 196.131818 
L 176.304612 176.863636 
L 177.245146 202.554545 
L 178.18568 188.638636 
L 179.126214 207.906818 
L 180.066748 213.259091 
L 181.007282 155.454545 
L 181.947816 174.722727 
L 182.88835 203.625 
L 184.769417 226.104545 
L 185.709951 186.497727 
L 186.650485 210.047727 
L 187.591019 215.4 
L 188.531553 208.977273 
L 189.472087 204.695455 
L 190.412621 232.527273 
L 191.353155 204.695455 
L 192.293689 211.118182 
L 193.234223 221.822727 
L 194.174757 238.95 
L 195.115291 207.906818 
L 196.055825 196.131818 
L 196.996359 213.259091 
L 197.936893 192.920455 
L 198.877427 214.329545 
L 199.817961 207.906818 
L 200.758495 232.527273 
L 201.699029 221.822727 
L 202.639563 216.470455 
L 203.580097 223.963636 
L 204.520631 203.625 
L 205.461165 228.245455 
L 206.401699 231.456818 
L 207.342233 222.893182 
L 208.282767 221.822727 
L 209.223301 228.245455 
L 210.163835 216.470455 
L 211.104369 217.540909 
L 212.044903 206.836364 
L 212.985437 226.104545 
L 213.925971 227.175 
L 214.866505 206.836364 
L 215.807039 204.695455 
L 216.747573 219.681818 
L 217.688107 228.245455 
L 218.628641 208.977273 
L 219.569175 206.836364 
L 220.509709 201.484091 
L 221.450243 218.611364 
L 222.390777 213.259091 
L 223.331311 213.259091 
L 224.271845 198.272727 
L 225.212379 219.681818 
L 226.152913 205.765909 
L 227.093447 233.597727 
L 228.033981 245.372727 
L 228.974515 238.95 
L 229.915049 230.386364 
L 230.855583 207.906818 
L 231.796117 210.047727 
L 232.73665 222.893182 
L 233.677184 231.456818 
L 234.617718 202.554545 
L 235.558252 206.836364 
L 236.498786 216.470455 
L 237.43932 216.470455 
L 238.379854 208.977273 
L 239.320388 230.386364 
L 240.260922 225.034091 
L 241.201456 205.765909 
L 242.14199 222.893182 
L 243.082524 205.765909 
L 244.023058 207.906818 
L 244.963592 211.118182 
L 245.904126 206.836364 
L 246.84466 229.315909 
L 247.785194 218.611364 
L 248.725728 217.540909 
L 249.666262 181.145455 
L 250.606796 219.681818 
L 251.54733 210.047727 
L 252.487864 225.034091 
L 253.428398 217.540909 
L 254.368932 221.822727 
L 255.309466 221.822727 
L 257.190534 208.977273 
L 258.131068 225.034091 
L 259.071602 219.681818 
L 260.012136 240.020455 
L 260.95267 208.977273 
L 261.893204 200.413636 
L 262.833738 214.329545 
L 263.774272 203.625 
L 264.714806 221.822727 
L 265.65534 220.752273 
L 266.595874 217.540909 
L 267.536408 215.4 
L 268.476942 189.709091 
L 269.417476 207.906818 
L 270.35801 198.272727 
L 271.298544 186.497727 
L 272.239078 206.836364 
L 273.179612 223.963636 
L 274.120146 222.893182 
L 276.001214 191.85 
L 276.941748 204.695455 
L 277.882282 175.793182 
L 278.822816 201.484091 
L 279.76335 205.765909 
L 280.703883 198.272727 
L 281.644417 217.540909 
L 282.584951 192.920455 
L 283.525485 197.202273 
L 284.466019 195.061364 
L 285.406553 174.722727 
L 286.347087 206.836364 
L 287.287621 201.484091 
L 288.228155 176.863636 
L 289.168689 143.679545 
L 290.109223 167.229545 
L 291.049757 160.806818 
L 291.990291 185.427273 
L 292.930825 201.484091 
L 293.871359 159.736364 
L 294.811893 147.961364 
L 295.752427 157.595455 
L 296.692961 151.172727 
L 297.633495 223.963636 
L 298.574029 193.990909 
L 299.514563 172.581818 
L 300.455097 168.3 
L 301.395631 161.877273 
L 302.336165 129.763636 
L 303.276699 181.145455 
L 304.217233 217.540909 
L 305.157767 181.145455 
L 306.098301 161.877273 
L 307.038835 200.413636 
L 307.979369 147.961364 
L 308.919903 145.820455 
L 309.860437 122.270455 
L 310.800971 120.129545 
L 311.741505 183.286364 
L 312.682039 213.259091 
L 313.622573 213.259091 
L 314.563107 94.438636 
L 316.444175 164.018182 
L 317.384709 167.229545 
L 318.325243 144.75 
L 319.265777 131.904545 
L 320.206311 167.229545 
L 321.146845 125.481818 
L 322.087379 153.313636 
L 323.027913 134.045455 
L 323.968447 169.370455 
L 324.908981 159.736364 
L 325.849515 202.554545 
L 326.790049 140.468182 
L 327.730583 182.215909 
L 328.671117 180.075 
L 329.61165 174.722727 
L 330.552184 196.131818 
L 331.492718 213.259091 
L 332.433252 161.877273 
L 333.373786 202.554545 
L 334.31432 212.188636 
L 335.254854 191.85 
L 336.195388 201.484091 
L 337.135922 198.272727 
L 338.076456 223.963636 
L 339.01699 228.245455 
L 339.957524 208.977273 
L 340.898058 217.540909 
L 341.838592 215.4 
L 342.779126 221.822727 
L 343.71966 225.034091 
L 344.660194 214.329545 
L 345.600728 213.259091 
L 346.541262 230.386364 
L 347.481796 217.540909 
L 348.42233 233.597727 
L 349.362864 220.752273 
L 350.303398 216.470455 
L 351.243932 231.456818 
L 352.184466 237.879545 
L 353.125 230.386364 
L 354.065534 231.456818 
L 355.006068 226.104545 
L 355.946602 232.527273 
L 356.887136 233.597727 
L 357.82767 232.527273 
L 358.768204 240.020455 
L 359.708738 240.020455 
L 360.649272 235.738636 
L 361.589806 234.668182 
L 362.53034 238.95 
L 363.470874 232.527273 
L 364.411408 243.231818 
L 365.351942 236.809091 
L 366.292476 243.231818 
L 367.23301 244.302273 
L 368.173544 240.020455 
L 369.114078 240.020455 
L 370.054612 226.104545 
L 370.995146 234.668182 
L 371.93568 232.527273 
L 372.876214 235.738636 
L 374.757282 231.456818 
L 375.697816 226.104545 
L 376.63835 231.456818 
L 379.459951 241.090909 
L 380.400485 235.738636 
L 381.341019 233.597727 
L 382.281553 220.752273 
L 383.222087 210.047727 
L 384.162621 216.470455 
L 385.103155 230.386364 
L 386.043689 232.527273 
L 386.984223 215.4 
L 387.924757 211.118182 
L 388.865291 223.963636 
L 389.805825 217.540909 
L 390.746359 216.470455 
L 391.686893 226.104545 
L 393.567961 176.863636 
L 394.508495 210.047727 
L 395.449029 198.272727 
L 396.389563 175.793182 
L 397.330097 198.272727 
L 398.270631 201.484091 
L 399.211165 177.934091 
L 400.151699 150.102273 
L 401.092233 158.665909 
L 402.032767 157.595455 
L 402.973301 162.947727 
L 403.913835 192.920455 
L 404.854369 192.920455 
L 405.794903 165.088636 
L 406.735437 147.961364 
L 407.675971 144.75 
L 408.616505 156.525 
L 409.557039 157.595455 
L 410.497573 159.736364 
L 411.438107 201.484091 
L 412.378641 155.454545 
L 413.319175 132.975 
L 414.259709 184.356818 
L 416.140777 161.877273 
L 417.081311 197.202273 
L 418.021845 173.652273 
L 418.962379 140.468182 
L 419.902913 149.031818 
L 420.843447 196.131818 
L 421.783981 122.270455 
L 422.724515 158.665909 
L 423.665049 157.595455 
L 424.605583 179.004545 
L 425.546117 139.397727 
L 426.48665 155.454545 
L 427.427184 149.031818 
L 428.367718 125.481818 
L 429.308252 171.511364 
L 430.248786 160.806818 
L 431.18932 191.85 
L 432.129854 152.243182 
L 433.070388 159.736364 
L 434.010922 165.088636 
L 434.951456 155.454545 
L 435.89199 129.763636 
L 436.832524 95.509091 
L 437.773058 155.454545 
L 438.713592 123.340909 
L 439.654126 77.311364 
L 440.59466 139.397727 
L 441.535194 37.704545 
L 442.475728 99.790909 
L 443.416262 117.988636 
L 444.356796 132.975 
L 445.29733 144.75 
L 446.237864 83.734091 
L 447.178398 115.847727 
L 448.118932 123.340909 
L 449.059466 83.734091 
L 450 221.822727 
L 450 221.822727 
" style="fill:none;stroke:#000000;stroke-dasharray:1.5,2.475;stroke-dashoffset:0;stroke-opacity:0.5;stroke-width:1.5;"/>
   </g>
   <g id="line2d_83">
    <path clip-path="url(#pcaea84f5f2)" d="M 62.5 250.725 
L 73.786408 250.725 
L 74.726942 249.654545 
L 76.60801 249.654545 
L 77.548544 248.584091 
L 80.370146 248.584091 
L 81.31068 249.654545 
L 85.072816 249.654545 
L 86.01335 248.584091 
L 86.953883 248.584091 
L 90.716019 244.302273 
L 91.656553 244.302273 
L 92.597087 245.372727 
L 93.537621 244.302273 
L 94.478155 244.302273 
L 95.418689 245.372727 
L 96.359223 244.302273 
L 97.299757 245.372727 
L 98.240291 245.372727 
L 99.180825 244.302273 
L 100.121359 244.302273 
L 103.883495 240.020455 
L 105.764563 242.161364 
L 106.705097 242.161364 
L 107.645631 243.231818 
L 108.586165 243.231818 
L 110.467233 245.372727 
L 111.407767 244.302273 
L 113.288835 244.302273 
L 114.229369 243.231818 
L 115.169903 243.231818 
L 117.991505 236.809091 
L 118.932039 233.597727 
L 119.872573 232.527273 
L 121.753641 228.245455 
L 122.694175 228.245455 
L 123.634709 227.175 
L 124.575243 229.315909 
L 126.456311 231.456818 
L 128.337379 229.315909 
L 129.277913 217.540909 
L 130.218447 213.259091 
L 131.158981 199.343182 
L 132.099515 195.061364 
L 133.040049 192.920455 
L 133.980583 193.990909 
L 134.921117 192.920455 
L 135.86165 196.131818 
L 136.802184 195.061364 
L 137.742718 202.554545 
L 139.623786 200.413636 
L 141.504854 208.977273 
L 142.445388 211.118182 
L 145.26699 195.061364 
L 146.207524 192.920455 
L 147.148058 185.427273 
L 148.088592 181.145455 
L 149.029126 175.793182 
L 149.96966 167.229545 
L 150.910194 166.159091 
L 151.850728 168.3 
L 152.791262 165.088636 
L 153.731796 171.511364 
L 154.67233 175.793182 
L 155.612864 179.004545 
L 156.553398 187.568182 
L 157.493932 188.638636 
L 158.434466 190.779545 
L 159.375 196.131818 
L 160.315534 193.990909 
L 161.256068 193.990909 
L 162.196602 195.061364 
L 163.137136 191.85 
L 164.07767 190.779545 
L 165.018204 190.779545 
L 165.958738 191.85 
L 166.899272 190.779545 
L 168.78034 190.779545 
L 171.601942 197.202273 
L 172.542476 200.413636 
L 173.48301 202.554545 
L 174.423544 200.413636 
L 175.364078 197.202273 
L 176.304612 195.061364 
L 177.245146 196.131818 
L 178.18568 192.920455 
L 179.126214 190.779545 
L 180.066748 191.85 
L 181.007282 191.85 
L 181.947816 196.131818 
L 182.88835 196.131818 
L 183.828883 198.272727 
L 184.769417 205.765909 
L 185.709951 208.977273 
L 186.650485 208.977273 
L 187.591019 211.118182 
L 188.531553 210.047727 
L 189.472087 213.259091 
L 190.412621 214.329545 
L 191.353155 216.470455 
L 192.293689 217.540909 
L 193.234223 216.470455 
L 195.115291 212.188636 
L 196.055825 211.118182 
L 196.996359 208.977273 
L 197.936893 207.906818 
L 199.817961 214.329545 
L 201.699029 218.611364 
L 202.639563 219.681818 
L 203.580097 221.822727 
L 204.520631 220.752273 
L 206.401699 222.893182 
L 207.342233 222.893182 
L 208.282767 223.963636 
L 209.223301 220.752273 
L 210.163835 219.681818 
L 211.104369 219.681818 
L 212.044903 218.611364 
L 212.985437 215.4 
L 213.925971 215.4 
L 214.866505 216.470455 
L 215.807039 216.470455 
L 217.688107 212.188636 
L 218.628641 213.259091 
L 219.569175 213.259091 
L 220.509709 212.188636 
L 221.450243 208.977273 
L 222.390777 210.047727 
L 223.331311 210.047727 
L 225.212379 216.470455 
L 226.152913 221.822727 
L 227.093447 226.104545 
L 228.033981 228.245455 
L 228.974515 227.175 
L 229.915049 227.175 
L 230.855583 225.034091 
L 231.796117 219.681818 
L 232.73665 216.470455 
L 233.677184 214.329545 
L 234.617718 215.4 
L 235.558252 214.329545 
L 236.498786 215.4 
L 237.43932 215.4 
L 238.379854 216.470455 
L 239.320388 218.611364 
L 240.260922 217.540909 
L 241.201456 215.4 
L 242.14199 215.4 
L 243.082524 212.188636 
L 244.023058 212.188636 
L 245.904126 214.329545 
L 246.84466 212.188636 
L 250.606796 212.188636 
L 251.54733 213.259091 
L 252.487864 215.4 
L 253.428398 218.611364 
L 254.368932 217.540909 
L 255.309466 218.611364 
L 256.25 218.611364 
L 257.190534 220.752273 
L 260.95267 216.470455 
L 261.893204 214.329545 
L 262.833738 214.329545 
L 263.774272 212.188636 
L 264.714806 214.329545 
L 266.595874 212.188636 
L 267.536408 210.047727 
L 268.476942 204.695455 
L 269.417476 202.554545 
L 270.35801 202.554545 
L 271.298544 204.695455 
L 272.239078 207.906818 
L 273.179612 206.836364 
L 274.120146 207.906818 
L 276.001214 203.625 
L 276.941748 199.343182 
L 277.882282 197.202273 
L 281.644417 201.484091 
L 282.584951 198.272727 
L 284.466019 196.131818 
L 285.406553 192.920455 
L 286.347087 186.497727 
L 287.287621 182.215909 
L 288.228155 176.863636 
L 289.168689 174.722727 
L 290.109223 173.652273 
L 291.049757 170.440909 
L 291.990291 169.370455 
L 292.930825 170.440909 
L 293.871359 167.229545 
L 294.811893 171.511364 
L 295.752427 172.581818 
L 296.692961 172.581818 
L 297.633495 176.863636 
L 298.574029 179.004545 
L 299.514563 174.722727 
L 300.455097 173.652273 
L 301.395631 171.511364 
L 302.336165 171.511364 
L 303.276699 172.581818 
L 304.217233 177.934091 
L 306.098301 177.934091 
L 307.038835 168.3 
L 307.979369 155.454545 
L 308.919903 152.243182 
L 309.860437 155.454545 
L 310.800971 160.806818 
L 311.741505 159.736364 
L 312.682039 159.736364 
L 313.622573 162.947727 
L 314.563107 164.018182 
L 315.503641 157.595455 
L 316.444175 147.961364 
L 317.384709 144.75 
L 318.325243 149.031818 
L 319.265777 150.102273 
L 320.206311 145.820455 
L 321.146845 145.820455 
L 322.087379 147.961364 
L 323.027913 156.525 
L 323.968447 156.525 
L 324.908981 164.018182 
L 326.790049 172.581818 
L 327.730583 175.793182 
L 328.671117 182.215909 
L 329.61165 181.145455 
L 330.552184 187.568182 
L 331.492718 191.85 
L 333.373786 196.131818 
L 334.31432 197.202273 
L 335.254854 199.343182 
L 336.195388 206.836364 
L 338.076456 211.118182 
L 339.01699 214.329545 
L 339.957524 216.470455 
L 340.898058 219.681818 
L 342.779126 217.540909 
L 343.71966 219.681818 
L 344.660194 219.681818 
L 345.600728 221.822727 
L 347.481796 221.822727 
L 349.362864 226.104545 
L 351.243932 228.245455 
L 352.184466 228.245455 
L 353.125 230.386364 
L 354.065534 231.456818 
L 355.006068 231.456818 
L 359.708738 236.809091 
L 360.649272 236.809091 
L 361.589806 237.879545 
L 362.53034 236.809091 
L 365.351942 240.020455 
L 367.23301 240.020455 
L 368.173544 237.879545 
L 372.876214 232.527273 
L 373.816748 232.527273 
L 374.757282 231.456818 
L 377.578883 234.668182 
L 379.459951 234.668182 
L 381.341019 228.245455 
L 384.162621 221.822727 
L 385.103155 220.752273 
L 387.924757 220.752273 
L 388.865291 219.681818 
L 389.805825 216.470455 
L 390.746359 212.188636 
L 391.686893 210.047727 
L 392.627427 206.836364 
L 393.567961 200.413636 
L 395.449029 193.990909 
L 396.389563 191.85 
L 397.330097 188.638636 
L 398.270631 181.145455 
L 399.211165 174.722727 
L 400.151699 170.440909 
L 401.092233 168.3 
L 402.032767 168.3 
L 403.913835 170.440909 
L 404.854369 169.370455 
L 405.794903 167.229545 
L 406.735437 164.018182 
L 407.675971 158.665909 
L 409.557039 160.806818 
L 410.497573 160.806818 
L 411.438107 165.088636 
L 412.378641 166.159091 
L 413.319175 166.159091 
L 414.259709 169.370455 
L 418.021845 169.370455 
L 418.962379 164.018182 
L 419.902913 160.806818 
L 420.843447 156.525 
L 421.783981 157.595455 
L 423.665049 157.595455 
L 424.605583 153.313636 
L 425.546117 153.313636 
L 426.48665 152.243182 
L 427.427184 152.243182 
L 428.367718 154.384091 
L 429.308252 157.595455 
L 430.248786 159.736364 
L 431.18932 162.947727 
L 432.129854 165.088636 
L 433.070388 159.736364 
L 434.010922 151.172727 
L 434.951456 144.75 
L 435.89199 139.397727 
L 436.832524 128.693182 
L 437.773058 124.411364 
L 438.713592 110.495455 
L 439.654126 105.143182 
L 440.59466 104.072727 
L 441.535194 100.861364 
L 442.475728 105.143182 
L 443.416262 108.354545 
L 444.356796 109.425 
L 445.29733 117.988636 
L 446.237864 114.777273 
L 447.178398 124.411364 
L 449.059466 128.693182 
L 450 140.468182 
L 450 140.468182 
" style="fill:none;stroke:#b3220f;stroke-linecap:square;stroke-width:1.5;"/>
   </g>
   <g id="patch_3">
    <path d="M 62.5 262.5 
L 62.5 27 
" style="fill:none;stroke:#555555;stroke-linecap:square;stroke-linejoin:miter;"/>
   </g>
   <g id="patch_4">
    <path d="M 62.5 262.5 
L 450 262.5 
" style="fill:none;stroke:#555555;stroke-linecap:square;stroke-linejoin:miter;"/>
   </g>
   <g id="text_25">
    <!-- Santa Fe | Casos nuevos: 2021-06-05 -->
    <g style="fill:#555555;" transform="translate(138.120625 17)scale(0.14 -0.14)">
     <defs>
      <path id="HelveticaNeue-32"/>
      <path d="M 7.703125 78.59375 
L 7.703125 -21.296875 
L 14.5 -21.296875 
L 14.5 78.59375 
z
" id="HelveticaNeue-124"/>
      <path d="M 58 49.90625 
L 67.5 49.90625 
Q 66.703125 55.59375 64.09375 59.9375 
Q 61.5 64.296875 57.59375 67.1875 
Q 53.703125 70.09375 48.703125 71.59375 
Q 43.703125 73.09375 38.09375 73.09375 
Q 29.90625 73.09375 23.546875 70.140625 
Q 17.203125 67.203125 12.953125 62.09375 
Q 8.703125 57 6.5 50.140625 
Q 4.296875 43.296875 4.296875 35.5 
Q 4.296875 27.703125 6.34375 20.890625 
Q 8.40625 14.09375 12.5 9.09375 
Q 16.59375 4.09375 22.796875 1.25 
Q 29 -1.59375 37.296875 -1.59375 
Q 51 -1.59375 58.890625 5.90625 
Q 66.796875 13.40625 68.203125 26.90625 
L 58.703125 26.90625 
Q 58.40625 22.5 56.90625 18.703125 
Q 55.40625 14.90625 52.75 12.15625 
Q 50.09375 9.40625 46.4375 7.84375 
Q 42.796875 6.296875 38.09375 6.296875 
Q 31.703125 6.296875 27.09375 8.6875 
Q 22.5 11.09375 19.546875 15.140625 
Q 16.59375 19.203125 15.1875 24.640625 
Q 13.796875 30.09375 13.796875 36.203125 
Q 13.796875 41.796875 15.1875 47 
Q 16.59375 52.203125 19.546875 56.25 
Q 22.5 60.296875 27.046875 62.6875 
Q 31.59375 65.09375 38 65.09375 
Q 45.5 65.09375 50.953125 61.296875 
Q 56.40625 57.5 58 49.90625 
z
" id="HelveticaNeue-67"/>
      <path d="M 11.59375 16.296875 
L 3.09375 16.296875 
Q 3.296875 11.5 5.09375 8.140625 
Q 6.90625 4.796875 9.90625 2.75 
Q 12.90625 0.703125 16.796875 -0.1875 
Q 20.703125 -1.09375 25 -1.09375 
Q 28.90625 -1.09375 32.84375 -0.34375 
Q 36.796875 0.40625 39.9375 2.296875 
Q 43.09375 4.203125 45.046875 7.296875 
Q 47 10.40625 47 15.09375 
Q 47 18.796875 45.546875 21.296875 
Q 44.09375 23.796875 41.75 25.4375 
Q 39.40625 27.09375 36.34375 28.09375 
Q 33.296875 29.09375 30.09375 29.796875 
Q 27.09375 30.5 24.09375 31.140625 
Q 21.09375 31.796875 18.6875 32.75 
Q 16.296875 33.703125 14.75 35.140625 
Q 13.203125 36.59375 13.203125 38.796875 
Q 13.203125 40.796875 14.203125 42.046875 
Q 15.203125 43.296875 16.796875 44.046875 
Q 18.40625 44.796875 20.34375 45.09375 
Q 22.296875 45.40625 24.203125 45.40625 
Q 26.296875 45.40625 28.34375 44.953125 
Q 30.40625 44.5 32.09375 43.5 
Q 33.796875 42.5 34.890625 40.84375 
Q 36 39.203125 36.203125 36.703125 
L 44.703125 36.703125 
Q 44.40625 41.40625 42.703125 44.546875 
Q 41 47.703125 38.140625 49.546875 
Q 35.296875 51.40625 31.59375 52.15625 
Q 27.90625 52.90625 23.5 52.90625 
Q 20.09375 52.90625 16.640625 52.046875 
Q 13.203125 51.203125 10.453125 49.453125 
Q 7.703125 47.703125 5.953125 44.890625 
Q 4.203125 42.09375 4.203125 38.203125 
Q 4.203125 33.203125 6.703125 30.390625 
Q 9.203125 27.59375 12.953125 26.046875 
Q 16.703125 24.5 21.09375 23.640625 
Q 25.5 22.796875 29.25 21.75 
Q 33 20.703125 35.5 19 
Q 38 17.296875 38 14 
Q 38 11.59375 36.796875 10.046875 
Q 35.59375 8.5 33.75 7.703125 
Q 31.90625 6.90625 29.703125 6.59375 
Q 27.5 6.296875 25.5 6.296875 
Q 22.90625 6.296875 20.453125 6.796875 
Q 18 7.296875 16.046875 8.4375 
Q 14.09375 9.59375 12.890625 11.546875 
Q 11.703125 13.5 11.59375 16.296875 
z
" id="HelveticaNeue-115"/>
      <path d="M 19.40625 40.59375 
L 19.40625 51.703125 
L 8.296875 51.703125 
L 8.296875 40.59375 
z
M 8.296875 11.09375 
L 8.296875 0 
L 19.40625 0 
L 19.40625 11.09375 
z
" id="HelveticaNeue-58"/>
      <path d="M 5 31.796875 
L 5 23.796875 
L 33.90625 23.796875 
L 33.90625 31.796875 
z
" id="HelveticaNeue-45"/>
      <path d="M 41.40625 52.796875 
L 49.90625 52.796875 
Q 49.09375 61.59375 43.890625 66.25 
Q 38.703125 70.90625 29.90625 70.90625 
Q 22.296875 70.90625 17.296875 67.703125 
Q 12.296875 64.5 9.296875 59.203125 
Q 6.296875 53.90625 5.046875 47.046875 
Q 3.796875 40.203125 3.796875 32.90625 
Q 3.796875 27.296875 4.640625 21.296875 
Q 5.5 15.296875 8.09375 10.296875 
Q 10.703125 5.296875 15.5 2.09375 
Q 20.296875 -1.09375 28.203125 -1.09375 
Q 34.90625 -1.09375 39.453125 1.15625 
Q 44 3.40625 46.75 6.84375 
Q 49.5 10.296875 50.703125 14.5 
Q 51.90625 18.703125 51.90625 22.59375 
Q 51.90625 27.5 50.40625 31.703125 
Q 48.90625 35.90625 46.15625 39 
Q 43.40625 42.09375 39.34375 43.84375 
Q 35.296875 45.59375 30.203125 45.59375 
Q 24.40625 45.59375 19.953125 43.390625 
Q 15.5 41.203125 12.5 36.296875 
L 12.296875 36.5 
Q 12.40625 40.59375 13.09375 45.296875 
Q 13.796875 50 15.640625 54.046875 
Q 17.5 58.09375 20.796875 60.75 
Q 24.09375 63.40625 29.5 63.40625 
Q 34.59375 63.40625 37.6875 60.5 
Q 40.796875 57.59375 41.40625 52.796875 
z
M 28.59375 38.09375 
Q 32.203125 38.09375 34.890625 36.796875 
Q 37.59375 35.5 39.390625 33.34375 
Q 41.203125 31.203125 42.046875 28.25 
Q 42.90625 25.296875 42.90625 22 
Q 42.90625 18.90625 41.953125 16.046875 
Q 41 13.203125 39.203125 11 
Q 37.40625 8.796875 34.75 7.546875 
Q 32.09375 6.296875 28.59375 6.296875 
Q 25.09375 6.296875 22.34375 7.546875 
Q 19.59375 8.796875 17.75 10.890625 
Q 15.90625 13 14.90625 15.890625 
Q 13.90625 18.796875 13.90625 22.09375 
Q 13.90625 25.40625 14.84375 28.34375 
Q 15.796875 31.296875 17.6875 33.4375 
Q 19.59375 35.59375 22.296875 36.84375 
Q 25 38.09375 28.59375 38.09375 
z
" id="HelveticaNeue-54"/>
     </defs>
     <use xlink:href="#HelveticaNeue-83"/>
     <use x="64.799988" xlink:href="#HelveticaNeue-97"/>
     <use x="118.499985" xlink:href="#HelveticaNeue-110"/>
     <use x="174.099976" xlink:href="#HelveticaNeue-116"/>
     <use x="205.59996" xlink:href="#HelveticaNeue-97"/>
     <use x="259.299957" xlink:href="#HelveticaNeue-32"/>
     <use x="287.099945" xlink:href="#HelveticaNeue-70"/>
     <use x="344.499939" xlink:href="#HelveticaNeue-101"/>
     <use x="398.199936" xlink:href="#HelveticaNeue-32"/>
     <use x="425.999924" xlink:href="#HelveticaNeue-124"/>
     <use x="448.199921" xlink:href="#HelveticaNeue-32"/>
     <use x="475.999908" xlink:href="#HelveticaNeue-67"/>
     <use x="548.19989" xlink:href="#HelveticaNeue-97"/>
     <use x="601.899887" xlink:href="#HelveticaNeue-115"/>
     <use x="651.899872" xlink:href="#HelveticaNeue-111"/>
     <use x="709.299866" xlink:href="#HelveticaNeue-115"/>
     <use x="759.29985" xlink:href="#HelveticaNeue-32"/>
     <use x="787.099838" xlink:href="#HelveticaNeue-110"/>
     <use x="842.699829" xlink:href="#HelveticaNeue-117"/>
     <use x="898.29982" xlink:href="#HelveticaNeue-101"/>
     <use x="951.999817" xlink:href="#HelveticaNeue-118"/>
     <use x="1001.999802" xlink:href="#HelveticaNeue-111"/>
     <use x="1059.399796" xlink:href="#HelveticaNeue-115"/>
     <use x="1109.39978" xlink:href="#HelveticaNeue-58"/>
     <use x="1137.199768" xlink:href="#HelveticaNeue-32"/>
     <use x="1164.999756" xlink:href="#HelveticaNeue-50"/>
     <use x="1220.599747" xlink:href="#HelveticaNeue-48"/>
     <use x="1276.199738" xlink:href="#HelveticaNeue-50"/>
     <use x="1331.799728" xlink:href="#HelveticaNeue-49"/>
     <use x="1387.399719" xlink:href="#HelveticaNeue-45"/>
     <use x="1426.299713" xlink:href="#HelveticaNeue-48"/>
     <use x="1481.899704" xlink:href="#HelveticaNeue-54"/>
     <use x="1537.499695" xlink:href="#HelveticaNeue-45"/>
     <use x="1576.399689" xlink:href="#HelveticaNeue-48"/>
     <use x="1631.99968" xlink:href="#HelveticaNeue-53"/>
    </g>
   </g>
   <g id="legend_1">
    <g id="line2d_84">
     <path d="M 71.5 39.640625 
L 91.5 39.640625 
" style="fill:none;stroke:#000000;stroke-dasharray:1.5,2.475;stroke-dashoffset:0;stroke-opacity:0.5;stroke-width:1.5;"/>
    </g>
    <g id="line2d_85"/>
    <g id="text_26">
     <!-- Actual -->
     <g style="fill:#555555;" transform="translate(99.5 43.140625)scale(0.1 -0.1)">
      <use xlink:href="#HelveticaNeue-65"/>
      <use x="64.799988" xlink:href="#HelveticaNeue-99"/>
      <use x="118.499985" xlink:href="#HelveticaNeue-116"/>
      <use x="149.999969" xlink:href="#HelveticaNeue-117"/>
      <use x="205.59996" xlink:href="#HelveticaNeue-97"/>
      <use x="259.299957" xlink:href="#HelveticaNeue-108"/>
     </g>
    </g>
    <g id="line2d_86">
     <path d="M 71.5 54.310937 
L 91.5 54.310937 
" style="fill:none;stroke:#b3220f;stroke-linecap:square;stroke-width:1.5;"/>
    </g>
    <g id="line2d_87"/>
    <g id="text_27">
     <!-- Promedio semanal (7 das)  -->
     <g style="fill:#555555;" transform="translate(99.5 57.810937)scale(0.1 -0.1)">
      <defs>
       <path d="M 17.296875 37.203125 
L 17.296875 63.40625 
L 35.90625 63.40625 
Q 44 63.40625 47.75 60.046875 
Q 51.5 56.703125 51.5 50.296875 
Q 51.5 43.90625 47.75 40.5 
Q 44 37.09375 35.90625 37.203125 
z
M 7.796875 71.40625 
L 7.796875 0 
L 17.296875 0 
L 17.296875 29.203125 
L 39.09375 29.203125 
Q 49.90625 29.09375 55.453125 34.6875 
Q 61 40.296875 61 50.296875 
Q 61 60.296875 55.453125 65.84375 
Q 49.90625 71.40625 39.09375 71.40625 
z
" id="HelveticaNeue-80"/>
       <path d="M 6.40625 51.703125 
L 6.40625 0 
L 14.90625 0 
L 14.90625 32.203125 
Q 14.90625 33.703125 15.65625 35.953125 
Q 16.40625 38.203125 18.046875 40.296875 
Q 19.703125 42.40625 22.34375 43.90625 
Q 25 45.40625 28.703125 45.40625 
Q 31.59375 45.40625 33.4375 44.546875 
Q 35.296875 43.703125 36.390625 42.140625 
Q 37.5 40.59375 37.953125 38.5 
Q 38.40625 36.40625 38.40625 33.90625 
L 38.40625 0 
L 46.90625 0 
L 46.90625 32.203125 
Q 46.90625 38.203125 50.5 41.796875 
Q 54.09375 45.40625 60.40625 45.40625 
Q 63.5 45.40625 65.453125 44.5 
Q 67.40625 43.59375 68.5 42.046875 
Q 69.59375 40.5 70 38.390625 
Q 70.40625 36.296875 70.40625 33.90625 
L 70.40625 0 
L 78.90625 0 
L 78.90625 37.90625 
Q 78.90625 41.90625 77.65625 44.75 
Q 76.40625 47.59375 74.15625 49.390625 
Q 71.90625 51.203125 68.75 52.046875 
Q 65.59375 52.90625 61.703125 52.90625 
Q 56.59375 52.90625 52.34375 50.59375 
Q 48.09375 48.296875 45.5 44.09375 
Q 43.90625 48.90625 40 50.90625 
Q 36.09375 52.90625 31.296875 52.90625 
Q 20.40625 52.90625 14.59375 44.09375 
L 14.40625 44.09375 
L 14.40625 51.703125 
z
" id="HelveticaNeue-109"/>
       <path d="M 12.59375 25.40625 
Q 12.59375 29.203125 13.390625 32.796875 
Q 14.203125 36.40625 16 39.203125 
Q 17.796875 42 20.796875 43.703125 
Q 23.796875 45.40625 28.09375 45.40625 
Q 32.5 45.40625 35.59375 43.75 
Q 38.703125 42.09375 40.640625 39.390625 
Q 42.59375 36.703125 43.5 33.140625 
Q 44.40625 29.59375 44.40625 25.796875 
Q 44.40625 22.203125 43.546875 18.703125 
Q 42.703125 15.203125 40.796875 12.453125 
Q 38.90625 9.703125 35.90625 8 
Q 32.90625 6.296875 28.59375 6.296875 
Q 24.5 6.296875 21.453125 7.890625 
Q 18.40625 9.5 16.453125 12.203125 
Q 14.5 14.90625 13.546875 18.34375 
Q 12.59375 21.796875 12.59375 25.40625 
z
M 52.59375 0 
L 52.59375 71.40625 
L 44.09375 71.40625 
L 44.09375 44.796875 
L 43.90625 44.796875 
Q 42.5 47.09375 40.453125 48.640625 
Q 38.40625 50.203125 36.09375 51.140625 
Q 33.796875 52.09375 31.5 52.5 
Q 29.203125 52.90625 27.203125 52.90625 
Q 21.296875 52.90625 16.84375 50.75 
Q 12.40625 48.59375 9.453125 44.9375 
Q 6.5 41.296875 5.046875 36.390625 
Q 3.59375 31.5 3.59375 26 
Q 3.59375 20.5 5.09375 15.59375 
Q 6.59375 10.703125 9.546875 7 
Q 12.5 3.296875 16.953125 1.09375 
Q 21.40625 -1.09375 27.40625 -1.09375 
Q 32.796875 -1.09375 37.296875 0.796875 
Q 41.796875 2.703125 43.90625 7 
L 44.09375 7 
L 44.09375 0 
z
" id="HelveticaNeue-100"/>
       <path d="M 15.40625 61 
L 15.40625 71.40625 
L 6.90625 71.40625 
L 6.90625 61 
z
M 6.90625 51.703125 
L 6.90625 0 
L 15.40625 0 
L 15.40625 51.703125 
z
" id="HelveticaNeue-105"/>
       <path d="M 20.40625 -19.703125 
L 26.90625 -19.703125 
Q 19.796875 -8.203125 16.75 3.09375 
Q 13.703125 14.40625 13.703125 27 
Q 13.703125 39.296875 16.703125 50.5 
Q 19.703125 61.703125 26.90625 73.09375 
L 20.40625 73.09375 
Q 12.59375 62.796875 8.640625 50.796875 
Q 4.703125 38.796875 4.703125 27 
Q 4.703125 20.40625 5.796875 14.40625 
Q 6.90625 8.40625 8.953125 2.703125 
Q 11 -3 13.890625 -8.546875 
Q 16.796875 -14.09375 20.40625 -19.703125 
z
" id="HelveticaNeue-40"/>
       <path d="M 6.90625 0 
L 15.40625 0 
L 15.40625 51.703125 
L 6.90625 51.703125 
z
M 25.5 77 
L 11.40625 60.796875 
L 5 60.796875 
L 14.59375 77 
z
" id="HelveticaNeue-237"/>
       <path d="M -0.90625 -19.703125 
L 5.5 -19.703125 
Q 13.296875 -9.40625 17.25 2.546875 
Q 21.203125 14.5 21.203125 26.296875 
Q 21.203125 32.90625 20.09375 38.90625 
Q 19 44.90625 16.953125 50.65625 
Q 14.90625 56.40625 12 61.953125 
Q 9.09375 67.5 5.5 73.09375 
L -0.90625 73.09375 
Q 6.09375 61.59375 9.140625 50.25 
Q 12.203125 38.90625 12.203125 26.296875 
Q 12.203125 14.09375 9.203125 2.84375 
Q 6.203125 -8.40625 -0.90625 -19.703125 
z
" id="HelveticaNeue-41"/>
      </defs>
      <use xlink:href="#HelveticaNeue-80"/>
      <use x="64.799988" xlink:href="#HelveticaNeue-114"/>
      <use x="96.349976" xlink:href="#HelveticaNeue-111"/>
      <use x="153.749969" xlink:href="#HelveticaNeue-109"/>
      <use x="239.049957" xlink:href="#HelveticaNeue-101"/>
      <use x="292.749954" xlink:href="#HelveticaNeue-100"/>
      <use x="352.049942" xlink:href="#HelveticaNeue-105"/>
      <use x="374.249939" xlink:href="#HelveticaNeue-111"/>
      <use x="431.649933" xlink:href="#HelveticaNeue-32"/>
      <use x="459.449921" xlink:href="#HelveticaNeue-115"/>
      <use x="509.449905" xlink:href="#HelveticaNeue-101"/>
      <use x="563.149902" xlink:href="#HelveticaNeue-109"/>
      <use x="648.44989" xlink:href="#HelveticaNeue-97"/>
      <use x="702.149887" xlink:href="#HelveticaNeue-110"/>
      <use x="757.749878" xlink:href="#HelveticaNeue-97"/>
      <use x="811.449875" xlink:href="#HelveticaNeue-108"/>
      <use x="833.649872" xlink:href="#HelveticaNeue-32"/>
      <use x="861.44986" xlink:href="#HelveticaNeue-40"/>
      <use x="887.349854" xlink:href="#HelveticaNeue-55"/>
      <use x="942.949844" xlink:href="#HelveticaNeue-32"/>
      <use x="970.749832" xlink:href="#HelveticaNeue-100"/>
      <use x="1030.04982" xlink:href="#HelveticaNeue-237"/>
      <use x="1052.249817" xlink:href="#HelveticaNeue-97"/>
      <use x="1105.949814" xlink:href="#HelveticaNeue-115"/>
      <use x="1155.949799" xlink:href="#HelveticaNeue-41"/>
      <use x="1181.849792" xlink:href="#HelveticaNeue-32"/>
     </g>
    </g>
   </g>
  </g>
 </g>
 <defs>
  <clipPath id="pcaea84f5f2">
   <rect height="235.5" width="387.5" x="62.5" y="27"/>
  </clipPath>
 </defs>
</svg>
