<?xml version="1.0" encoding="utf-8" standalone="no"?>
<!DOCTYPE svg PUBLIC "-//W3C//DTD SVG 1.1//EN"
  "http://www.w3.org/Graphics/SVG/1.1/DTD/svg11.dtd">
<!-- Created with matplotlib (https://matplotlib.org/) -->
<svg height="300pt" version="1.1" viewBox="0 0 500 300" width="500pt" xmlns="http://www.w3.org/2000/svg" xmlns:xlink="http://www.w3.org/1999/xlink">
 <metadata>
  <rdf:RDF xmlns:cc="http://creativecommons.org/ns#" xmlns:dc="http://purl.org/dc/elements/1.1/" xmlns:rdf="http://www.w3.org/1999/02/22-rdf-syntax-ns#">
   <cc:Work>
    <dc:type rdf:resource="http://purl.org/dc/dcmitype/StillImage"/>
    <dc:date>2021-06-21T21:58:54.559108</dc:date>
    <dc:format>image/svg+xml</dc:format>
    <dc:creator>
     <cc:Agent>
      <dc:title>Matplotlib v3.3.4, https://matplotlib.org/</dc:title>
     </cc:Agent>
    </dc:creator>
   </cc:Work>
  </rdf:RDF>
 </metadata>
 <defs>
  <style type="text/css">*{stroke-linecap:butt;stroke-linejoin:round;}</style>
 </defs>
 <g id="figure_1">
  <g id="patch_1">
   <path d="M 0 300 
L 500 300 
L 500 0 
L 0 0 
z
" style="fill:#ffffff;"/>
  </g>
  <g id="axes_1">
   <g id="patch_2">
    <path d="M 62.5 262.5 
L 450 262.5 
L 450 27 
L 62.5 27 
z
" style="fill:#ffffff;"/>
   </g>
   <g id="matplotlib.axis_1">
    <g id="xtick_1">
     <g id="line2d_1">
      <defs>
       <path d="M 0 0 
L 0 3.5 
" id="m3ed23792eb" style="stroke:#555555;stroke-width:0.8;"/>
      </defs>
      <g>
       <use style="fill:#555555;stroke:#555555;stroke-width:0.8;" x="62.5" xlink:href="#m3ed23792eb" y="262.5"/>
      </g>
     </g>
    </g>
    <g id="xtick_2">
     <g id="line2d_2">
      <g>
       <use style="fill:#555555;stroke:#555555;stroke-width:0.8;" x="128.902582" xlink:href="#m3ed23792eb" y="262.5"/>
      </g>
     </g>
     <g id="text_1">
      <!-- Jul -->
      <g style="fill:#555555;" transform="translate(122.417426 276.640625)scale(0.1 -0.1)">
       <defs>
        <path d="M 44.09375 17.796875 
L 44.09375 71.40625 
L 34.59375 71.40625 
L 34.59375 19.203125 
Q 34.59375 13.296875 32.140625 9.796875 
Q 29.703125 6.296875 23.203125 6.296875 
Q 19.703125 6.296875 17.453125 7.34375 
Q 15.203125 8.40625 13.953125 10.296875 
Q 12.703125 12.203125 12.203125 14.796875 
Q 11.703125 17.40625 11.703125 20.5 
L 11.703125 23.5 
L 2.203125 23.5 
L 2.203125 19.09375 
Q 2.203125 8.90625 7.59375 3.65625 
Q 13 -1.59375 23 -1.59375 
Q 29 -1.59375 33.046875 0.046875 
Q 37.09375 1.703125 39.546875 4.453125 
Q 42 7.203125 43.046875 10.703125 
Q 44.09375 14.203125 44.09375 17.796875 
z
" id="HelveticaNeue-74"/>
        <path d="M 49.203125 0 
L 49.203125 51.703125 
L 40.703125 51.703125 
L 40.703125 22.5 
Q 40.703125 19 39.75 16.046875 
Q 38.796875 13.09375 36.890625 10.890625 
Q 35 8.703125 32.140625 7.5 
Q 29.296875 6.296875 25.40625 6.296875 
Q 20.5 6.296875 17.703125 9.09375 
Q 14.90625 11.90625 14.90625 16.703125 
L 14.90625 51.703125 
L 6.40625 51.703125 
L 6.40625 17.703125 
Q 6.40625 13.5 7.25 10.046875 
Q 8.09375 6.59375 10.1875 4.09375 
Q 12.296875 1.59375 15.6875 0.25 
Q 19.09375 -1.09375 24.203125 -1.09375 
Q 29.90625 -1.09375 34.09375 1.15625 
Q 38.296875 3.40625 41 8.203125 
L 41.203125 8.203125 
L 41.203125 0 
z
" id="HelveticaNeue-117"/>
        <path d="M 6.90625 71.40625 
L 6.90625 0 
L 15.40625 0 
L 15.40625 71.40625 
z
" id="HelveticaNeue-108"/>
       </defs>
       <use xlink:href="#HelveticaNeue-74"/>
       <use x="51.899994" xlink:href="#HelveticaNeue-117"/>
       <use x="107.499985" xlink:href="#HelveticaNeue-108"/>
      </g>
     </g>
    </g>
    <g id="xtick_3">
     <g id="line2d_3">
      <g>
       <use style="fill:#555555;stroke:#555555;stroke-width:0.8;" x="212.588028" xlink:href="#m3ed23792eb" y="262.5"/>
      </g>
     </g>
     <g id="text_2">
      <!-- Oct -->
      <g style="fill:#555555;" transform="translate(204.527872 276.640625)scale(0.1 -0.1)">
       <defs>
        <path d="M 13.296875 35.703125 
Q 13.296875 41.09375 14.6875 46.34375 
Q 16.09375 51.59375 19.09375 55.796875 
Q 22.09375 60 26.796875 62.546875 
Q 31.5 65.09375 38 65.09375 
Q 44.5 65.09375 49.203125 62.546875 
Q 53.90625 60 56.90625 55.796875 
Q 59.90625 51.59375 61.296875 46.34375 
Q 62.703125 41.09375 62.703125 35.703125 
Q 62.703125 30.296875 61.296875 25.046875 
Q 59.90625 19.796875 56.90625 15.59375 
Q 53.90625 11.40625 49.203125 8.84375 
Q 44.5 6.296875 38 6.296875 
Q 31.5 6.296875 26.796875 8.84375 
Q 22.09375 11.40625 19.09375 15.59375 
Q 16.09375 19.796875 14.6875 25.046875 
Q 13.296875 30.296875 13.296875 35.703125 
z
M 3.796875 35.703125 
Q 3.796875 28.40625 5.9375 21.65625 
Q 8.09375 14.90625 12.390625 9.703125 
Q 16.703125 4.5 23.09375 1.453125 
Q 29.5 -1.59375 38 -1.59375 
Q 46.5 -1.59375 52.890625 1.453125 
Q 59.296875 4.5 63.59375 9.703125 
Q 67.90625 14.90625 70.046875 21.65625 
Q 72.203125 28.40625 72.203125 35.703125 
Q 72.203125 43 70.046875 49.75 
Q 67.90625 56.5 63.59375 61.703125 
Q 59.296875 66.90625 52.890625 70 
Q 46.5 73.09375 38 73.09375 
Q 29.5 73.09375 23.09375 70 
Q 16.703125 66.90625 12.390625 61.703125 
Q 8.09375 56.5 5.9375 49.75 
Q 3.796875 43 3.796875 35.703125 
z
" id="HelveticaNeue-79"/>
        <path d="M 41.5 35.09375 
L 50.296875 35.09375 
Q 49.796875 39.703125 47.890625 43.046875 
Q 46 46.40625 43.046875 48.59375 
Q 40.09375 50.796875 36.25 51.84375 
Q 32.40625 52.90625 28 52.90625 
Q 21.90625 52.90625 17.296875 50.75 
Q 12.703125 48.59375 9.640625 44.84375 
Q 6.59375 41.09375 5.09375 36.046875 
Q 3.59375 31 3.59375 25.203125 
Q 3.59375 19.40625 5.140625 14.546875 
Q 6.703125 9.703125 9.75 6.203125 
Q 12.796875 2.703125 17.34375 0.796875 
Q 21.90625 -1.09375 27.796875 -1.09375 
Q 37.703125 -1.09375 43.453125 4.09375 
Q 49.203125 9.296875 50.59375 18.90625 
L 41.90625 18.90625 
Q 41.09375 12.90625 37.546875 9.59375 
Q 34 6.296875 27.703125 6.296875 
Q 23.703125 6.296875 20.796875 7.890625 
Q 17.90625 9.5 16.09375 12.140625 
Q 14.296875 14.796875 13.4375 18.1875 
Q 12.59375 21.59375 12.59375 25.203125 
Q 12.59375 29.09375 13.390625 32.75 
Q 14.203125 36.40625 16.046875 39.203125 
Q 17.90625 42 21 43.703125 
Q 24.09375 45.40625 28.703125 45.40625 
Q 34.09375 45.40625 37.296875 42.703125 
Q 40.5 40 41.5 35.09375 
z
" id="HelveticaNeue-99"/>
        <path d="M 18.203125 51.703125 
L 18.203125 67.203125 
L 9.703125 67.203125 
L 9.703125 51.703125 
L 0.90625 51.703125 
L 0.90625 44.203125 
L 9.703125 44.203125 
L 9.703125 11.296875 
Q 9.703125 7.703125 10.390625 5.5 
Q 11.09375 3.296875 12.546875 2.09375 
Q 14 0.90625 16.34375 0.453125 
Q 18.703125 0 22 0 
L 28.5 0 
L 28.5 7.5 
L 24.59375 7.5 
Q 22.59375 7.5 21.34375 7.640625 
Q 20.09375 7.796875 19.390625 8.296875 
Q 18.703125 8.796875 18.453125 9.6875 
Q 18.203125 10.59375 18.203125 12.09375 
L 18.203125 44.203125 
L 28.5 44.203125 
L 28.5 51.703125 
z
" id="HelveticaNeue-116"/>
       </defs>
       <use xlink:href="#HelveticaNeue-79"/>
       <use x="75.999985" xlink:href="#HelveticaNeue-99"/>
       <use x="129.699982" xlink:href="#HelveticaNeue-116"/>
      </g>
     </g>
    </g>
    <g id="xtick_4">
     <g id="line2d_4">
      <g>
       <use style="fill:#555555;stroke:#555555;stroke-width:0.8;" x="296.273474" xlink:href="#m3ed23792eb" y="262.5"/>
      </g>
     </g>
     <g id="text_3">
      <!-- Jan -->
      <g style="fill:#555555;" transform="translate(288.213318 276.640625)scale(0.1 -0.1)">
       <defs>
        <path d="M 52.203125 0.203125 
Q 50 -1.09375 46.09375 -1.09375 
Q 42.796875 -1.09375 40.84375 0.75 
Q 38.90625 2.59375 38.90625 6.796875 
Q 35.40625 2.59375 30.75 0.75 
Q 26.09375 -1.09375 20.703125 -1.09375 
Q 17.203125 -1.09375 14.046875 -0.296875 
Q 10.90625 0.5 8.59375 2.203125 
Q 6.296875 3.90625 4.9375 6.65625 
Q 3.59375 9.40625 3.59375 13.296875 
Q 3.59375 17.703125 5.09375 20.5 
Q 6.59375 23.296875 9.046875 25.046875 
Q 11.5 26.796875 14.640625 27.6875 
Q 17.796875 28.59375 21.09375 29.203125 
Q 24.59375 29.90625 27.75 30.25 
Q 30.90625 30.59375 33.296875 31.25 
Q 35.703125 31.90625 37.09375 33.15625 
Q 38.5 34.40625 38.5 36.796875 
Q 38.5 39.59375 37.453125 41.296875 
Q 36.40625 43 34.75 43.890625 
Q 33.09375 44.796875 31.046875 45.09375 
Q 29 45.40625 27 45.40625 
Q 21.59375 45.40625 18 43.34375 
Q 14.40625 41.296875 14.09375 35.59375 
L 5.59375 35.59375 
Q 5.796875 40.40625 7.59375 43.703125 
Q 9.40625 47 12.40625 49.046875 
Q 15.40625 51.09375 19.25 52 
Q 23.09375 52.90625 27.5 52.90625 
Q 31 52.90625 34.453125 52.40625 
Q 37.90625 51.90625 40.703125 50.34375 
Q 43.5 48.796875 45.203125 46 
Q 46.90625 43.203125 46.90625 38.703125 
L 46.90625 12.09375 
Q 46.90625 9.09375 47.25 7.6875 
Q 47.59375 6.296875 49.59375 6.296875 
Q 50.703125 6.296875 52.203125 6.796875 
z
M 38.40625 26.703125 
Q 36.796875 25.5 34.1875 24.953125 
Q 31.59375 24.40625 28.75 24.046875 
Q 25.90625 23.703125 23 23.25 
Q 20.09375 22.796875 17.796875 21.796875 
Q 15.5 20.796875 14.046875 18.9375 
Q 12.59375 17.09375 12.59375 13.90625 
Q 12.59375 11.796875 13.4375 10.34375 
Q 14.296875 8.90625 15.640625 8 
Q 17 7.09375 18.796875 6.6875 
Q 20.59375 6.296875 22.59375 6.296875 
Q 26.796875 6.296875 29.796875 7.4375 
Q 32.796875 8.59375 34.6875 10.34375 
Q 36.59375 12.09375 37.5 14.140625 
Q 38.40625 16.203125 38.40625 18 
z
" id="HelveticaNeue-97"/>
        <path d="M 6.40625 51.703125 
L 6.40625 0 
L 14.90625 0 
L 14.90625 29.203125 
Q 14.90625 32.703125 15.84375 35.640625 
Q 16.796875 38.59375 18.6875 40.796875 
Q 20.59375 43 23.4375 44.203125 
Q 26.296875 45.40625 30.203125 45.40625 
Q 35.09375 45.40625 37.890625 42.59375 
Q 40.703125 39.796875 40.703125 35 
L 40.703125 0 
L 49.203125 0 
L 49.203125 34 
Q 49.203125 38.203125 48.34375 41.640625 
Q 47.5 45.09375 45.390625 47.59375 
Q 43.296875 50.09375 39.890625 51.5 
Q 36.5 52.90625 31.40625 52.90625 
Q 19.90625 52.90625 14.59375 43.5 
L 14.40625 43.5 
L 14.40625 51.703125 
z
" id="HelveticaNeue-110"/>
       </defs>
       <use xlink:href="#HelveticaNeue-74"/>
       <use x="51.899994" xlink:href="#HelveticaNeue-97"/>
       <use x="105.599991" xlink:href="#HelveticaNeue-110"/>
      </g>
      <!-- 2021 -->
      <g style="fill:#555555;" transform="translate(285.154724 287.179688)scale(0.1 -0.1)">
       <defs>
        <path d="M 4.40625 45.796875 
L 12.90625 45.796875 
Q 12.796875 49 13.546875 52.140625 
Q 14.296875 55.296875 16 57.796875 
Q 17.703125 60.296875 20.34375 61.84375 
Q 23 63.40625 26.703125 63.40625 
Q 29.5 63.40625 32 62.5 
Q 34.5 61.59375 36.34375 59.890625 
Q 38.203125 58.203125 39.296875 55.84375 
Q 40.40625 53.5 40.40625 50.59375 
Q 40.40625 46.90625 39.25 44.09375 
Q 38.09375 41.296875 35.84375 38.890625 
Q 33.59375 36.5 30.1875 34.140625 
Q 26.796875 31.796875 22.296875 29 
Q 18.59375 26.796875 15.1875 24.296875 
Q 11.796875 21.796875 9.09375 18.5 
Q 6.40625 15.203125 4.65625 10.75 
Q 2.90625 6.296875 2.40625 0 
L 48.703125 0 
L 48.703125 7.5 
L 12.296875 7.5 
Q 12.90625 10.796875 14.84375 13.34375 
Q 16.796875 15.90625 19.546875 18.09375 
Q 22.296875 20.296875 25.59375 22.25 
Q 28.90625 24.203125 32.203125 26.203125 
Q 35.5 28.296875 38.59375 30.59375 
Q 41.703125 32.90625 44.09375 35.75 
Q 46.5 38.59375 47.953125 42.1875 
Q 49.40625 45.796875 49.40625 50.5 
Q 49.40625 55.5 47.65625 59.296875 
Q 45.90625 63.09375 42.90625 65.640625 
Q 39.90625 68.203125 35.84375 69.546875 
Q 31.796875 70.90625 27.203125 70.90625 
Q 21.59375 70.90625 17.1875 69 
Q 12.796875 67.09375 9.84375 63.75 
Q 6.90625 60.40625 5.5 55.796875 
Q 4.09375 51.203125 4.40625 45.796875 
z
" id="HelveticaNeue-50"/>
        <path d="M 13.203125 34.90625 
Q 13.203125 37.5 13.25 40.640625 
Q 13.296875 43.796875 13.75 46.9375 
Q 14.203125 50.09375 15.046875 53.09375 
Q 15.90625 56.09375 17.546875 58.34375 
Q 19.203125 60.59375 21.703125 62 
Q 24.203125 63.40625 27.796875 63.40625 
Q 31.40625 63.40625 33.90625 62 
Q 36.40625 60.59375 38.046875 58.34375 
Q 39.703125 56.09375 40.546875 53.09375 
Q 41.40625 50.09375 41.84375 46.9375 
Q 42.296875 43.796875 42.34375 40.640625 
Q 42.40625 37.5 42.40625 34.90625 
Q 42.40625 30.90625 42.15625 25.953125 
Q 41.90625 21 40.546875 16.640625 
Q 39.203125 12.296875 36.203125 9.296875 
Q 33.203125 6.296875 27.796875 6.296875 
Q 22.40625 6.296875 19.40625 9.296875 
Q 16.40625 12.296875 15.046875 16.640625 
Q 13.703125 21 13.453125 25.953125 
Q 13.203125 30.90625 13.203125 34.90625 
z
M 4.203125 34.796875 
Q 4.203125 30.90625 4.390625 26.703125 
Q 4.59375 22.5 5.390625 18.5 
Q 6.203125 14.5 7.703125 10.953125 
Q 9.203125 7.40625 11.796875 4.703125 
Q 14.40625 2 18.34375 0.453125 
Q 22.296875 -1.09375 27.796875 -1.09375 
Q 33.40625 -1.09375 37.296875 0.453125 
Q 41.203125 2 43.796875 4.703125 
Q 46.40625 7.40625 47.90625 10.953125 
Q 49.40625 14.5 50.203125 18.5 
Q 51 22.5 51.203125 26.703125 
Q 51.40625 30.90625 51.40625 34.796875 
Q 51.40625 38.703125 51.203125 42.890625 
Q 51 47.09375 50.203125 51.09375 
Q 49.40625 55.09375 47.90625 58.6875 
Q 46.40625 62.296875 43.796875 65 
Q 41.203125 67.703125 37.25 69.296875 
Q 33.296875 70.90625 27.796875 70.90625 
Q 22.296875 70.90625 18.34375 69.296875 
Q 14.40625 67.703125 11.796875 65 
Q 9.203125 62.296875 7.703125 58.6875 
Q 6.203125 55.09375 5.390625 51.09375 
Q 4.59375 47.09375 4.390625 42.890625 
Q 4.203125 38.703125 4.203125 34.796875 
z
" id="HelveticaNeue-48"/>
        <path d="M 35.59375 0 
L 35.59375 70.90625 
L 29.09375 70.90625 
Q 28.40625 66.90625 26.5 64.296875 
Q 24.59375 61.703125 21.84375 60.203125 
Q 19.09375 58.703125 15.6875 58.140625 
Q 12.296875 57.59375 8.703125 57.59375 
L 8.703125 50.796875 
L 27.09375 50.796875 
L 27.09375 0 
z
" id="HelveticaNeue-49"/>
       </defs>
       <use xlink:href="#HelveticaNeue-50"/>
       <use x="55.599991" xlink:href="#HelveticaNeue-48"/>
       <use x="111.199982" xlink:href="#HelveticaNeue-50"/>
       <use x="166.799973" xlink:href="#HelveticaNeue-49"/>
      </g>
     </g>
    </g>
    <g id="xtick_5">
     <g id="line2d_5">
      <g>
       <use style="fill:#555555;stroke:#555555;stroke-width:0.8;" x="378.139671" xlink:href="#m3ed23792eb" y="262.5"/>
      </g>
     </g>
     <g id="text_4">
      <!-- Apr -->
      <g style="fill:#555555;" transform="translate(370.27014 276.640625)scale(0.1 -0.1)">
       <defs>
        <path d="M 20.09375 29.5 
L 32.203125 62.796875 
L 32.40625 62.796875 
L 44.296875 29.5 
z
M 27.203125 71.40625 
L -0.59375 0 
L 9.09375 0 
L 17.09375 21.5 
L 47.296875 21.5 
L 55.09375 0 
L 65.59375 0 
L 37.703125 71.40625 
z
" id="HelveticaNeue-65"/>
        <path d="M 6.703125 51.703125 
L 6.703125 -19.703125 
L 15.203125 -19.703125 
L 15.203125 6.90625 
L 15.40625 6.90625 
Q 16.796875 4.59375 18.84375 3.046875 
Q 20.90625 1.5 23.203125 0.59375 
Q 25.5 -0.296875 27.84375 -0.6875 
Q 30.203125 -1.09375 32.09375 -1.09375 
Q 38 -1.09375 42.453125 1 
Q 46.90625 3.09375 49.84375 6.75 
Q 52.796875 10.40625 54.25 15.296875 
Q 55.703125 20.203125 55.703125 25.703125 
Q 55.703125 31.203125 54.203125 36.09375 
Q 52.703125 41 49.75 44.75 
Q 46.796875 48.5 42.34375 50.703125 
Q 37.90625 52.90625 31.90625 52.90625 
Q 26.5 52.90625 22 50.953125 
Q 17.5 49 15.40625 44.703125 
L 15.203125 44.703125 
L 15.203125 51.703125 
z
M 46.703125 26.296875 
Q 46.703125 22.5 45.890625 18.890625 
Q 45.09375 15.296875 43.296875 12.5 
Q 41.5 9.703125 38.546875 8 
Q 35.59375 6.296875 31.203125 6.296875 
Q 26.796875 6.296875 23.6875 7.9375 
Q 20.59375 9.59375 18.640625 12.296875 
Q 16.703125 15 15.796875 18.546875 
Q 14.90625 22.09375 14.90625 25.90625 
Q 14.90625 29.5 15.75 33 
Q 16.59375 36.5 18.5 39.25 
Q 20.40625 42 23.40625 43.703125 
Q 26.40625 45.40625 30.703125 45.40625 
Q 34.796875 45.40625 37.84375 43.796875 
Q 40.90625 42.203125 42.84375 39.5 
Q 44.796875 36.796875 45.75 33.34375 
Q 46.703125 29.90625 46.703125 26.296875 
z
" id="HelveticaNeue-112"/>
        <path d="M 6.09375 51.703125 
L 6.09375 0 
L 14.59375 0 
L 14.59375 23 
Q 14.59375 28 15.59375 31.84375 
Q 16.59375 35.703125 18.796875 38.390625 
Q 21 41.09375 24.59375 42.5 
Q 28.203125 43.90625 33.296875 43.90625 
L 33.296875 52.90625 
Q 26.40625 53.09375 21.90625 50.09375 
Q 17.40625 47.09375 14.296875 40.796875 
L 14.09375 40.796875 
L 14.09375 51.703125 
z
" id="HelveticaNeue-114"/>
       </defs>
       <use xlink:href="#HelveticaNeue-65"/>
       <use x="64.799988" xlink:href="#HelveticaNeue-112"/>
       <use x="124.099976" xlink:href="#HelveticaNeue-114"/>
      </g>
     </g>
    </g>
    <g id="xtick_6">
     <g id="line2d_6">
      <g>
       <use style="fill:#555555;stroke:#555555;stroke-width:0.8;" x="450" xlink:href="#m3ed23792eb" y="262.5"/>
      </g>
     </g>
    </g>
    <g id="xtick_7">
     <g id="line2d_7">
      <defs>
       <path d="M 0 0 
L 0 2 
" id="mec5dc3e387" style="stroke:#555555;stroke-width:0.6;"/>
      </defs>
      <g>
       <use style="fill:#555555;stroke:#555555;stroke-width:0.6;" x="73.415493" xlink:href="#mec5dc3e387" y="262.5"/>
      </g>
     </g>
    </g>
    <g id="xtick_8">
     <g id="line2d_8">
      <g>
       <use style="fill:#555555;stroke:#555555;stroke-width:0.6;" x="101.61385" xlink:href="#mec5dc3e387" y="262.5"/>
      </g>
     </g>
    </g>
    <g id="xtick_9">
     <g id="line2d_9">
      <g>
       <use style="fill:#555555;stroke:#555555;stroke-width:0.6;" x="157.100939" xlink:href="#mec5dc3e387" y="262.5"/>
      </g>
     </g>
    </g>
    <g id="xtick_10">
     <g id="line2d_10">
      <g>
       <use style="fill:#555555;stroke:#555555;stroke-width:0.6;" x="185.299296" xlink:href="#mec5dc3e387" y="262.5"/>
      </g>
     </g>
    </g>
    <g id="xtick_11">
     <g id="line2d_11">
      <g>
       <use style="fill:#555555;stroke:#555555;stroke-width:0.6;" x="240.786385" xlink:href="#mec5dc3e387" y="262.5"/>
      </g>
     </g>
    </g>
    <g id="xtick_12">
     <g id="line2d_12">
      <g>
       <use style="fill:#555555;stroke:#555555;stroke-width:0.6;" x="268.075117" xlink:href="#mec5dc3e387" y="262.5"/>
      </g>
     </g>
    </g>
    <g id="xtick_13">
     <g id="line2d_13">
      <g>
       <use style="fill:#555555;stroke:#555555;stroke-width:0.6;" x="324.471831" xlink:href="#mec5dc3e387" y="262.5"/>
      </g>
     </g>
    </g>
    <g id="xtick_14">
     <g id="line2d_14">
      <g>
       <use style="fill:#555555;stroke:#555555;stroke-width:0.6;" x="349.941315" xlink:href="#mec5dc3e387" y="262.5"/>
      </g>
     </g>
    </g>
    <g id="xtick_15">
     <g id="line2d_15">
      <g>
       <use style="fill:#555555;stroke:#555555;stroke-width:0.6;" x="405.428404" xlink:href="#mec5dc3e387" y="262.5"/>
      </g>
     </g>
    </g>
    <g id="xtick_16">
     <g id="line2d_16">
      <g>
       <use style="fill:#555555;stroke:#555555;stroke-width:0.6;" x="433.626761" xlink:href="#mec5dc3e387" y="262.5"/>
      </g>
     </g>
    </g>
    <g id="text_5">
     <!-- fecha -->
     <g style="fill:#555555;" transform="translate(243.935156 300.290625)scale(0.1 -0.1)">
      <defs>
       <path d="M 9.90625 44.203125 
L 9.90625 0 
L 18.40625 0 
L 18.40625 44.203125 
L 28.40625 44.203125 
L 28.40625 51.703125 
L 18.40625 51.703125 
L 18.40625 58.90625 
Q 18.40625 62.296875 20.09375 63.5 
Q 21.796875 64.703125 24.90625 64.703125 
Q 26 64.703125 27.296875 64.546875 
Q 28.59375 64.40625 29.703125 64 
L 29.703125 71.40625 
Q 28.5 71.796875 26.953125 72 
Q 25.40625 72.203125 24.203125 72.203125 
Q 17.203125 72.203125 13.546875 68.953125 
Q 9.90625 65.703125 9.90625 59.40625 
L 9.90625 51.703125 
L 1.203125 51.703125 
L 1.203125 44.203125 
z
" id="HelveticaNeue-102"/>
       <path d="M 42.296875 30.796875 
L 12.59375 30.796875 
Q 12.796875 33.796875 13.890625 36.4375 
Q 15 39.09375 16.890625 41.09375 
Q 18.796875 43.09375 21.4375 44.25 
Q 24.09375 45.40625 27.40625 45.40625 
Q 30.59375 45.40625 33.25 44.25 
Q 35.90625 43.09375 37.84375 41.140625 
Q 39.796875 39.203125 40.9375 36.5 
Q 42.09375 33.796875 42.296875 30.796875 
z
M 50.5 16.40625 
L 42.09375 16.40625 
Q 41 11.296875 37.546875 8.796875 
Q 34.09375 6.296875 28.703125 6.296875 
Q 24.5 6.296875 21.390625 7.6875 
Q 18.296875 9.09375 16.296875 11.4375 
Q 14.296875 13.796875 13.390625 16.84375 
Q 12.5 19.90625 12.59375 23.296875 
L 51.296875 23.296875 
Q 51.5 28 50.453125 33.203125 
Q 49.40625 38.40625 46.65625 42.796875 
Q 43.90625 47.203125 39.34375 50.046875 
Q 34.796875 52.90625 27.90625 52.90625 
Q 22.59375 52.90625 18.140625 50.90625 
Q 13.703125 48.90625 10.453125 45.296875 
Q 7.203125 41.703125 5.390625 36.796875 
Q 3.59375 31.90625 3.59375 26 
Q 3.796875 20.09375 5.34375 15.09375 
Q 6.90625 10.09375 10 6.5 
Q 13.09375 2.90625 17.640625 0.90625 
Q 22.203125 -1.09375 28.40625 -1.09375 
Q 37.203125 -1.09375 43 3.296875 
Q 48.796875 7.703125 50.5 16.40625 
z
" id="HelveticaNeue-101"/>
       <path d="M 6.40625 71.40625 
L 6.40625 0 
L 14.90625 0 
L 14.90625 29.203125 
Q 14.90625 32.703125 15.84375 35.640625 
Q 16.796875 38.59375 18.6875 40.796875 
Q 20.59375 43 23.4375 44.203125 
Q 26.296875 45.40625 30.203125 45.40625 
Q 35.09375 45.40625 37.890625 42.59375 
Q 40.703125 39.796875 40.703125 35 
L 40.703125 0 
L 49.203125 0 
L 49.203125 34 
Q 49.203125 38.203125 48.34375 41.640625 
Q 47.5 45.09375 45.390625 47.59375 
Q 43.296875 50.09375 39.890625 51.5 
Q 36.5 52.90625 31.40625 52.90625 
Q 29.09375 52.90625 26.640625 52.40625 
Q 24.203125 51.90625 21.953125 50.84375 
Q 19.703125 49.796875 17.890625 48.140625 
Q 16.09375 46.5 15.09375 44.09375 
L 14.90625 44.09375 
L 14.90625 71.40625 
z
" id="HelveticaNeue-104"/>
      </defs>
      <use xlink:href="#HelveticaNeue-102"/>
      <use x="29.599991" xlink:href="#HelveticaNeue-101"/>
      <use x="83.299988" xlink:href="#HelveticaNeue-99"/>
      <use x="136.999985" xlink:href="#HelveticaNeue-104"/>
      <use x="192.599976" xlink:href="#HelveticaNeue-97"/>
     </g>
    </g>
   </g>
   <g id="matplotlib.axis_2">
    <g id="ytick_1">
     <g id="line2d_17">
      <defs>
       <path d="M 0 0 
L -3.5 0 
" id="md09fb22b32" style="stroke:#555555;stroke-width:0.8;"/>
      </defs>
      <g>
       <use style="fill:#555555;stroke:#555555;stroke-width:0.8;" x="62.5" xlink:href="#md09fb22b32" y="251.795455"/>
      </g>
     </g>
     <g id="text_6">
      <!-- 0 -->
      <g style="fill:#555555;" transform="translate(49.940625 255.365767)scale(0.1 -0.1)">
       <use xlink:href="#HelveticaNeue-48"/>
      </g>
     </g>
    </g>
    <g id="ytick_2">
     <g id="line2d_18">
      <g>
       <use style="fill:#555555;stroke:#555555;stroke-width:0.8;" x="62.5" xlink:href="#md09fb22b32" y="225.167232"/>
      </g>
     </g>
     <g id="text_7">
      <!-- 25 -->
      <g style="fill:#555555;" transform="translate(44.38125 228.737545)scale(0.1 -0.1)">
       <defs>
        <path d="M 47 62.203125 
L 47 69.703125 
L 12 69.703125 
L 5.40625 32.90625 
L 12.703125 32.5 
Q 15.203125 35.5 18.453125 37.34375 
Q 21.703125 39.203125 25.90625 39.203125 
Q 29.5 39.203125 32.453125 38 
Q 35.40625 36.796875 37.5 34.640625 
Q 39.59375 32.5 40.75 29.546875 
Q 41.90625 26.59375 41.90625 23.09375 
Q 41.90625 18.90625 40.703125 15.75 
Q 39.5 12.59375 37.453125 10.5 
Q 35.40625 8.40625 32.65625 7.34375 
Q 29.90625 6.296875 26.90625 6.296875 
Q 23.703125 6.296875 21.046875 7.25 
Q 18.40625 8.203125 16.453125 9.953125 
Q 14.5 11.703125 13.34375 14.046875 
Q 12.203125 16.40625 12 19.09375 
L 3.5 19.09375 
Q 3.59375 14.296875 5.390625 10.5 
Q 7.203125 6.703125 10.296875 4.140625 
Q 13.40625 1.59375 17.453125 0.25 
Q 21.5 -1.09375 26.09375 -1.09375 
Q 32.296875 -1.09375 36.9375 0.84375 
Q 41.59375 2.796875 44.6875 6.09375 
Q 47.796875 9.40625 49.34375 13.65625 
Q 50.90625 17.90625 50.90625 22.40625 
Q 50.90625 28.5 49.09375 33.046875 
Q 47.296875 37.59375 44.1875 40.640625 
Q 41.09375 43.703125 36.890625 45.203125 
Q 32.703125 46.703125 28 46.703125 
Q 24.40625 46.703125 20.75 45.453125 
Q 17.09375 44.203125 14.796875 41.59375 
L 14.59375 41.796875 
L 18.40625 62.203125 
z
" id="HelveticaNeue-53"/>
       </defs>
       <use xlink:href="#HelveticaNeue-50"/>
       <use x="55.599991" xlink:href="#HelveticaNeue-53"/>
      </g>
     </g>
    </g>
    <g id="ytick_3">
     <g id="line2d_19">
      <g>
       <use style="fill:#555555;stroke:#555555;stroke-width:0.8;" x="62.5" xlink:href="#md09fb22b32" y="198.539009"/>
      </g>
     </g>
     <g id="text_8">
      <!-- 50 -->
      <g style="fill:#555555;" transform="translate(44.38125 202.109322)scale(0.1 -0.1)">
       <use xlink:href="#HelveticaNeue-53"/>
       <use x="55.599991" xlink:href="#HelveticaNeue-48"/>
      </g>
     </g>
    </g>
    <g id="ytick_4">
     <g id="line2d_20">
      <g>
       <use style="fill:#555555;stroke:#555555;stroke-width:0.8;" x="62.5" xlink:href="#md09fb22b32" y="171.910787"/>
      </g>
     </g>
     <g id="text_9">
      <!-- 75 -->
      <g style="fill:#555555;" transform="translate(44.38125 175.481099)scale(0.1 -0.1)">
       <defs>
        <path d="M 50.90625 62.40625 
L 50.90625 69.703125 
L 5 69.703125 
L 5 61.703125 
L 42.203125 61.703125 
Q 36.59375 55.796875 31.75 48.796875 
Q 26.90625 41.796875 23.203125 33.9375 
Q 19.5 26.09375 17.140625 17.546875 
Q 14.796875 9 14.203125 0 
L 23.703125 0 
Q 24.203125 8.296875 26.5 17.09375 
Q 28.796875 25.90625 32.4375 34.203125 
Q 36.09375 42.5 40.796875 49.796875 
Q 45.5 57.09375 50.90625 62.40625 
z
" id="HelveticaNeue-55"/>
       </defs>
       <use xlink:href="#HelveticaNeue-55"/>
       <use x="55.599991" xlink:href="#HelveticaNeue-53"/>
      </g>
     </g>
    </g>
    <g id="ytick_5">
     <g id="line2d_21">
      <g>
       <use style="fill:#555555;stroke:#555555;stroke-width:0.8;" x="62.5" xlink:href="#md09fb22b32" y="145.282564"/>
      </g>
     </g>
     <g id="text_10">
      <!-- 100 -->
      <g style="fill:#555555;" transform="translate(38.821875 148.852877)scale(0.1 -0.1)">
       <use xlink:href="#HelveticaNeue-49"/>
       <use x="55.599991" xlink:href="#HelveticaNeue-48"/>
       <use x="111.199982" xlink:href="#HelveticaNeue-48"/>
      </g>
     </g>
    </g>
    <g id="ytick_6">
     <g id="line2d_22">
      <g>
       <use style="fill:#555555;stroke:#555555;stroke-width:0.8;" x="62.5" xlink:href="#md09fb22b32" y="118.654342"/>
      </g>
     </g>
     <g id="text_11">
      <!-- 125 -->
      <g style="fill:#555555;" transform="translate(38.821875 122.224654)scale(0.1 -0.1)">
       <use xlink:href="#HelveticaNeue-49"/>
       <use x="55.599991" xlink:href="#HelveticaNeue-50"/>
       <use x="111.199982" xlink:href="#HelveticaNeue-53"/>
      </g>
     </g>
    </g>
    <g id="ytick_7">
     <g id="line2d_23">
      <g>
       <use style="fill:#555555;stroke:#555555;stroke-width:0.8;" x="62.5" xlink:href="#md09fb22b32" y="92.026119"/>
      </g>
     </g>
     <g id="text_12">
      <!-- 150 -->
      <g style="fill:#555555;" transform="translate(38.821875 95.596432)scale(0.1 -0.1)">
       <use xlink:href="#HelveticaNeue-49"/>
       <use x="55.599991" xlink:href="#HelveticaNeue-53"/>
       <use x="111.199982" xlink:href="#HelveticaNeue-48"/>
      </g>
     </g>
    </g>
    <g id="ytick_8">
     <g id="line2d_24">
      <g>
       <use style="fill:#555555;stroke:#555555;stroke-width:0.8;" x="62.5" xlink:href="#md09fb22b32" y="65.397897"/>
      </g>
     </g>
     <g id="text_13">
      <!-- 175 -->
      <g style="fill:#555555;" transform="translate(38.821875 68.968209)scale(0.1 -0.1)">
       <use xlink:href="#HelveticaNeue-49"/>
       <use x="55.599991" xlink:href="#HelveticaNeue-55"/>
       <use x="111.199982" xlink:href="#HelveticaNeue-53"/>
      </g>
     </g>
    </g>
    <g id="ytick_9">
     <g id="line2d_25">
      <g>
       <use style="fill:#555555;stroke:#555555;stroke-width:0.8;" x="62.5" xlink:href="#md09fb22b32" y="38.769674"/>
      </g>
     </g>
     <g id="text_14">
      <!-- 200 -->
      <g style="fill:#555555;" transform="translate(38.821875 42.339987)scale(0.1 -0.1)">
       <use xlink:href="#HelveticaNeue-50"/>
       <use x="55.599991" xlink:href="#HelveticaNeue-48"/>
       <use x="111.199982" xlink:href="#HelveticaNeue-48"/>
      </g>
     </g>
    </g>
   </g>
   <g id="line2d_26">
    <path clip-path="url(#p2f51dd6819)" d="M 62.5 251.795455 
L 63.409624 250.730326 
L 64.319249 251.795455 
L 65.228873 249.665197 
L 66.138498 251.795455 
L 67.048122 251.795455 
L 67.957746 248.600068 
L 68.867371 251.795455 
L 69.776995 249.665197 
L 70.68662 251.795455 
L 71.596244 250.730326 
L 72.505869 250.730326 
L 73.415493 251.795455 
L 74.325117 250.730326 
L 76.144366 250.730326 
L 77.053991 243.274423 
L 77.963615 251.795455 
L 78.873239 247.534939 
L 79.782864 248.600068 
L 80.692488 251.795455 
L 81.602113 247.534939 
L 82.511737 250.730326 
L 84.330986 250.730326 
L 85.24061 248.600068 
L 86.150235 247.534939 
L 87.059859 248.600068 
L 87.969484 243.274423 
L 88.879108 248.600068 
L 90.698357 240.079037 
L 91.607981 247.534939 
L 92.517606 240.079037 
L 93.42723 245.404681 
L 94.336854 251.795455 
L 95.246479 242.209294 
L 96.156103 244.339552 
L 97.065728 242.209294 
L 97.975352 246.46981 
L 98.884977 248.600068 
L 99.794601 242.209294 
L 100.704225 239.013908 
L 101.61385 243.274423 
L 102.523474 239.013908 
L 103.433099 240.079037 
L 104.342723 239.013908 
L 105.252347 242.209294 
L 106.161972 248.600068 
L 107.071596 242.209294 
L 107.981221 246.46981 
L 108.890845 241.144166 
L 109.800469 242.209294 
L 110.710094 247.534939 
L 111.619718 249.665197 
L 112.529343 239.013908 
L 113.438967 246.46981 
L 114.348592 245.404681 
L 115.258216 230.492877 
L 116.16784 241.144166 
L 117.077465 234.753392 
L 117.987089 237.948779 
L 118.896714 221.971845 
L 119.806338 226.232361 
L 120.715962 234.753392 
L 121.625587 220.906716 
L 122.535211 218.776459 
L 123.444836 240.079037 
L 124.35446 231.558005 
L 125.264085 234.753392 
L 126.173709 230.492877 
L 127.083333 240.079037 
L 127.992958 204.929783 
L 128.902582 225.167232 
L 129.812207 136.761533 
L 130.721831 228.362619 
L 131.631455 129.305631 
L 132.54108 226.232361 
L 133.450704 224.102103 
L 134.360329 200.669267 
L 135.269953 190.017978 
L 136.179577 165.520014 
L 137.089202 215.581072 
L 137.998826 217.71133 
L 138.908451 213.450814 
L 139.818075 201.734396 
L 140.7277 227.29749 
L 141.637324 210.255427 
L 142.546948 190.017978 
L 143.456573 172.975916 
L 145.275822 185.757463 
L 146.185446 208.12517 
L 147.09507 152.738467 
L 148.004695 174.041045 
L 148.914319 147.412822 
L 149.823944 114.393826 
L 150.733568 201.734396 
L 151.643192 213.450814 
L 152.552817 156.998982 
L 153.462441 197.473881 
L 154.372066 182.562076 
L 155.28169 163.389756 
L 156.191315 217.71133 
L 157.100939 203.864654 
L 158.010563 215.581072 
L 158.920188 192.148236 
L 159.829812 163.389756 
L 161.649061 202.799525 
L 162.558685 195.343623 
L 163.46831 198.539009 
L 164.377934 202.799525 
L 165.287559 181.496947 
L 166.197183 154.868725 
L 167.106808 202.799525 
L 168.016432 213.450814 
L 168.926056 216.646201 
L 169.835681 204.929783 
L 170.745305 199.604138 
L 171.65493 196.408752 
L 172.564554 177.236431 
L 173.474178 202.799525 
L 174.383803 188.952849 
L 175.293427 208.12517 
L 176.203052 213.450814 
L 177.112676 155.933853 
L 178.0223 175.106174 
L 178.931925 203.864654 
L 180.751174 226.232361 
L 181.660798 186.822592 
L 182.570423 210.255427 
L 183.480047 215.581072 
L 184.389671 209.190299 
L 185.299296 204.929783 
L 186.20892 232.623134 
L 187.118545 204.929783 
L 188.028169 211.320556 
L 188.937793 221.971845 
L 189.847418 239.013908 
L 190.757042 208.12517 
L 191.666667 196.408752 
L 192.576291 213.450814 
L 193.485915 193.213365 
L 194.39554 214.515943 
L 195.305164 208.12517 
L 196.214789 232.623134 
L 197.124413 221.971845 
L 198.034038 216.646201 
L 198.943662 224.102103 
L 199.853286 203.864654 
L 200.762911 228.362619 
L 201.672535 231.558005 
L 202.58216 223.036974 
L 203.491784 221.971845 
L 204.401408 228.362619 
L 205.311033 216.646201 
L 206.220657 217.71133 
L 207.130282 207.060041 
L 208.039906 226.232361 
L 208.949531 227.29749 
L 209.859155 207.060041 
L 210.768779 204.929783 
L 211.678404 219.841588 
L 212.588028 228.362619 
L 213.497653 209.190299 
L 214.407277 207.060041 
L 215.316901 201.734396 
L 216.226526 218.776459 
L 217.13615 213.450814 
L 218.045775 213.450814 
L 218.955399 199.604138 
L 219.865023 219.841588 
L 220.774648 205.994912 
L 221.684272 233.688263 
L 222.593897 245.404681 
L 223.503521 239.013908 
L 224.413146 230.492877 
L 225.32277 208.12517 
L 226.232394 210.255427 
L 227.142019 223.036974 
L 228.051643 231.558005 
L 228.961268 202.799525 
L 229.870892 207.060041 
L 230.780516 216.646201 
L 231.690141 216.646201 
L 232.599765 209.190299 
L 233.50939 230.492877 
L 234.419014 225.167232 
L 235.328638 205.994912 
L 236.238263 223.036974 
L 237.147887 205.994912 
L 238.057512 208.12517 
L 238.967136 211.320556 
L 239.876761 207.060041 
L 240.786385 229.427748 
L 241.696009 218.776459 
L 242.605634 217.71133 
L 243.515258 181.496947 
L 244.424883 219.841588 
L 245.334507 210.255427 
L 246.244131 225.167232 
L 247.153756 217.71133 
L 248.06338 221.971845 
L 248.973005 221.971845 
L 250.792254 209.190299 
L 251.701878 225.167232 
L 252.611502 219.841588 
L 253.521127 240.079037 
L 254.430751 209.190299 
L 255.340376 200.669267 
L 256.25 214.515943 
L 257.159624 203.864654 
L 258.069249 221.971845 
L 258.978873 220.906716 
L 259.888498 217.71133 
L 260.798122 215.581072 
L 261.707746 190.017978 
L 262.617371 208.12517 
L 263.526995 198.539009 
L 264.43662 186.822592 
L 265.346244 207.060041 
L 266.255869 224.102103 
L 267.165493 223.036974 
L 268.984742 192.148236 
L 269.894366 204.929783 
L 270.803991 176.171303 
L 271.713615 201.734396 
L 272.623239 205.994912 
L 273.532864 198.539009 
L 274.442488 217.71133 
L 275.352113 193.213365 
L 276.261737 197.473881 
L 277.171362 195.343623 
L 278.080986 175.106174 
L 278.99061 207.060041 
L 279.900235 201.734396 
L 280.809859 177.236431 
L 281.719484 144.217436 
L 282.629108 167.650271 
L 283.538732 161.259498 
L 284.448357 185.757463 
L 285.357981 201.734396 
L 286.267606 160.194369 
L 287.17723 148.477951 
L 288.086854 158.064111 
L 288.996479 151.673338 
L 289.906103 224.102103 
L 290.815728 194.278494 
L 291.725352 172.975916 
L 292.634977 168.7154 
L 293.544601 162.324627 
L 294.454225 130.37076 
L 295.36385 181.496947 
L 296.273474 217.71133 
L 297.183099 181.496947 
L 298.092723 162.324627 
L 299.002347 200.669267 
L 299.911972 148.477951 
L 300.821596 146.347693 
L 301.731221 122.914858 
L 302.640845 120.7846 
L 303.550469 183.627205 
L 304.460094 213.450814 
L 305.369718 213.450814 
L 306.279343 95.221506 
L 308.098592 164.454885 
L 309.008216 167.650271 
L 309.91784 145.282564 
L 310.827465 132.501018 
L 311.737089 167.650271 
L 312.646714 126.110244 
L 313.556338 153.803596 
L 314.465962 134.631275 
L 315.375587 169.780529 
L 316.285211 160.194369 
L 317.194836 202.799525 
L 318.10446 141.022049 
L 319.014085 182.562076 
L 319.923709 180.431818 
L 320.833333 175.106174 
L 321.742958 197.473881 
L 322.652582 213.450814 
L 323.562207 161.259498 
L 324.471831 202.799525 
L 325.381455 212.385685 
L 326.29108 192.148236 
L 327.200704 201.734396 
L 328.110329 198.539009 
L 329.019953 224.102103 
L 329.929577 228.362619 
L 330.839202 209.190299 
L 331.748826 217.71133 
L 332.658451 215.581072 
L 333.568075 221.971845 
L 334.4777 225.167232 
L 335.387324 214.515943 
L 336.296948 213.450814 
L 337.206573 230.492877 
L 338.116197 217.71133 
L 339.025822 233.688263 
L 339.935446 220.906716 
L 340.84507 216.646201 
L 341.754695 231.558005 
L 342.664319 237.948779 
L 343.573944 230.492877 
L 344.483568 231.558005 
L 345.393192 226.232361 
L 346.302817 232.623134 
L 347.212441 233.688263 
L 348.122066 232.623134 
L 349.03169 240.079037 
L 349.941315 240.079037 
L 350.850939 235.818521 
L 351.760563 234.753392 
L 352.670188 239.013908 
L 353.579812 232.623134 
L 354.489437 242.209294 
L 355.399061 236.88365 
L 356.308685 243.274423 
L 357.21831 244.339552 
L 358.127934 240.079037 
L 359.037559 240.079037 
L 359.947183 226.232361 
L 360.856808 234.753392 
L 361.766432 232.623134 
L 362.676056 235.818521 
L 364.495305 231.558005 
L 365.40493 226.232361 
L 366.314554 231.558005 
L 369.043427 241.144166 
L 369.953052 235.818521 
L 370.862676 233.688263 
L 371.7723 220.906716 
L 372.681925 210.255427 
L 373.591549 216.646201 
L 374.501174 230.492877 
L 375.410798 232.623134 
L 376.320423 215.581072 
L 377.230047 211.320556 
L 378.139671 224.102103 
L 379.049296 217.71133 
L 379.95892 216.646201 
L 380.868545 226.232361 
L 381.778169 202.799525 
L 382.687793 174.041045 
L 383.597418 210.255427 
L 384.507042 198.539009 
L 385.416667 176.171303 
L 386.326291 198.539009 
L 387.235915 201.734396 
L 388.14554 178.30156 
L 389.055164 150.608209 
L 389.964789 159.12924 
L 390.874413 158.064111 
L 391.784038 163.389756 
L 392.693662 193.213365 
L 393.603286 193.213365 
L 394.512911 165.520014 
L 395.422535 148.477951 
L 396.33216 145.282564 
L 397.241784 144.217436 
L 398.151408 155.933853 
L 399.061033 160.194369 
L 399.970657 201.734396 
L 400.880282 156.998982 
L 401.789906 132.501018 
L 402.699531 184.692334 
L 403.609155 175.106174 
L 404.518779 161.259498 
L 405.428404 197.473881 
L 406.338028 174.041045 
L 407.247653 141.022049 
L 408.157277 149.54308 
L 409.066901 195.343623 
L 409.976526 121.849729 
L 410.88615 158.064111 
L 411.795775 158.064111 
L 412.705399 178.30156 
L 413.615023 139.95692 
L 414.524648 154.868725 
L 415.434272 148.477951 
L 416.343897 126.110244 
L 417.253521 170.845658 
L 418.163146 159.12924 
L 419.07277 191.083107 
L 419.982394 152.738467 
L 420.892019 156.998982 
L 421.801643 164.454885 
L 422.711268 151.673338 
L 423.620892 129.305631 
L 424.530516 95.221506 
L 425.440141 154.868725 
L 426.349765 120.7846 
L 427.25939 76.049186 
L 428.169014 137.826662 
L 429.078638 37.704545 
L 429.988263 101.61228 
L 430.897887 126.110244 
L 431.807512 134.631275 
L 432.717136 139.95692 
L 433.626761 74.984057 
L 434.536385 90.960991 
L 435.446009 96.286635 
L 436.355634 69.658412 
L 437.265258 82.439959 
L 438.174883 161.259498 
L 439.084507 168.7154 
L 439.994131 108.003053 
L 441.81338 221.971845 
L 442.723005 145.282564 
L 443.632629 151.673338 
L 444.542254 186.822592 
L 445.451878 183.627205 
L 446.361502 152.738467 
L 447.271127 51.551221 
L 448.180751 197.473881 
L 449.090376 134.631275 
L 450 233.688263 
L 450 233.688263 
" style="fill:none;stroke:#000000;stroke-dasharray:1.5,2.475;stroke-dashoffset:0;stroke-opacity:0.5;stroke-width:1.5;"/>
   </g>
   <g id="line2d_27">
    <path clip-path="url(#p2f51dd6819)" d="M 62.5 250.730326 
L 73.415493 250.730326 
L 74.325117 249.665197 
L 76.144366 249.665197 
L 77.053991 248.600068 
L 79.782864 248.600068 
L 80.692488 249.665197 
L 84.330986 249.665197 
L 85.24061 248.600068 
L 86.150235 248.600068 
L 89.788732 244.339552 
L 90.698357 244.339552 
L 91.607981 245.404681 
L 92.517606 244.339552 
L 93.42723 244.339552 
L 94.336854 245.404681 
L 95.246479 244.339552 
L 96.156103 245.404681 
L 97.065728 245.404681 
L 97.975352 244.339552 
L 98.884977 244.339552 
L 102.523474 240.079037 
L 104.342723 242.209294 
L 105.252347 242.209294 
L 106.161972 243.274423 
L 107.071596 243.274423 
L 108.890845 245.404681 
L 109.800469 244.339552 
L 111.619718 244.339552 
L 112.529343 243.274423 
L 113.438967 243.274423 
L 116.16784 236.88365 
L 117.077465 233.688263 
L 117.987089 232.623134 
L 119.806338 228.362619 
L 120.715962 228.362619 
L 121.625587 227.29749 
L 122.535211 229.427748 
L 124.35446 231.558005 
L 126.173709 229.427748 
L 127.083333 217.71133 
L 127.992958 213.450814 
L 128.902582 199.604138 
L 129.812207 195.343623 
L 130.721831 193.213365 
L 131.631455 194.278494 
L 132.54108 193.213365 
L 133.450704 196.408752 
L 134.360329 195.343623 
L 135.269953 202.799525 
L 137.089202 200.669267 
L 138.908451 209.190299 
L 139.818075 211.320556 
L 142.546948 195.343623 
L 143.456573 193.213365 
L 144.366197 185.757463 
L 145.275822 181.496947 
L 146.185446 176.171303 
L 147.09507 167.650271 
L 148.004695 166.585142 
L 148.914319 168.7154 
L 149.823944 165.520014 
L 150.733568 171.910787 
L 151.643192 176.171303 
L 152.552817 179.366689 
L 153.462441 187.88772 
L 154.372066 188.952849 
L 155.28169 191.083107 
L 156.191315 196.408752 
L 157.100939 194.278494 
L 158.010563 194.278494 
L 158.920188 195.343623 
L 159.829812 192.148236 
L 160.739437 191.083107 
L 161.649061 191.083107 
L 162.558685 192.148236 
L 163.46831 191.083107 
L 165.287559 191.083107 
L 168.016432 197.473881 
L 168.926056 200.669267 
L 169.835681 202.799525 
L 170.745305 200.669267 
L 171.65493 197.473881 
L 172.564554 195.343623 
L 173.474178 196.408752 
L 174.383803 193.213365 
L 175.293427 191.083107 
L 176.203052 192.148236 
L 177.112676 192.148236 
L 178.0223 196.408752 
L 178.931925 196.408752 
L 179.841549 198.539009 
L 180.751174 205.994912 
L 181.660798 209.190299 
L 182.570423 209.190299 
L 183.480047 211.320556 
L 184.389671 210.255427 
L 185.299296 213.450814 
L 186.20892 214.515943 
L 187.118545 216.646201 
L 188.028169 217.71133 
L 188.937793 216.646201 
L 190.757042 212.385685 
L 191.666667 211.320556 
L 192.576291 209.190299 
L 193.485915 208.12517 
L 195.305164 214.515943 
L 197.124413 218.776459 
L 198.034038 219.841588 
L 198.943662 221.971845 
L 199.853286 220.906716 
L 201.672535 223.036974 
L 202.58216 223.036974 
L 203.491784 224.102103 
L 204.401408 220.906716 
L 205.311033 219.841588 
L 206.220657 219.841588 
L 207.130282 218.776459 
L 208.039906 215.581072 
L 208.949531 215.581072 
L 209.859155 216.646201 
L 210.768779 216.646201 
L 212.588028 212.385685 
L 213.497653 213.450814 
L 214.407277 213.450814 
L 215.316901 212.385685 
L 216.226526 209.190299 
L 217.13615 210.255427 
L 218.045775 210.255427 
L 218.955399 213.450814 
L 221.684272 226.232361 
L 222.593897 228.362619 
L 223.503521 227.29749 
L 224.413146 227.29749 
L 225.32277 225.167232 
L 226.232394 219.841588 
L 227.142019 216.646201 
L 228.051643 214.515943 
L 228.961268 215.581072 
L 229.870892 214.515943 
L 230.780516 215.581072 
L 231.690141 215.581072 
L 232.599765 216.646201 
L 233.50939 218.776459 
L 234.419014 217.71133 
L 235.328638 215.581072 
L 236.238263 215.581072 
L 237.147887 212.385685 
L 238.057512 212.385685 
L 239.876761 214.515943 
L 240.786385 212.385685 
L 244.424883 212.385685 
L 245.334507 213.450814 
L 246.244131 215.581072 
L 247.153756 218.776459 
L 248.06338 217.71133 
L 248.973005 218.776459 
L 249.882629 218.776459 
L 250.792254 220.906716 
L 254.430751 216.646201 
L 255.340376 214.515943 
L 256.25 214.515943 
L 257.159624 212.385685 
L 258.069249 214.515943 
L 259.888498 212.385685 
L 260.798122 210.255427 
L 261.707746 204.929783 
L 262.617371 202.799525 
L 263.526995 202.799525 
L 264.43662 204.929783 
L 265.346244 208.12517 
L 266.255869 207.060041 
L 267.165493 208.12517 
L 268.984742 203.864654 
L 269.894366 199.604138 
L 270.803991 197.473881 
L 274.442488 201.734396 
L 275.352113 198.539009 
L 277.171362 196.408752 
L 278.080986 193.213365 
L 278.99061 186.822592 
L 279.900235 182.562076 
L 280.809859 177.236431 
L 281.719484 175.106174 
L 282.629108 174.041045 
L 283.538732 170.845658 
L 284.448357 169.780529 
L 285.357981 170.845658 
L 286.267606 167.650271 
L 287.17723 171.910787 
L 288.086854 172.975916 
L 288.996479 172.975916 
L 289.906103 177.236431 
L 290.815728 179.366689 
L 291.725352 175.106174 
L 292.634977 174.041045 
L 293.544601 171.910787 
L 294.454225 171.910787 
L 295.36385 172.975916 
L 296.273474 178.30156 
L 298.092723 178.30156 
L 299.002347 168.7154 
L 299.911972 155.933853 
L 300.821596 152.738467 
L 301.731221 155.933853 
L 302.640845 161.259498 
L 303.550469 160.194369 
L 304.460094 160.194369 
L 305.369718 163.389756 
L 306.279343 164.454885 
L 307.188967 158.064111 
L 308.098592 148.477951 
L 309.008216 145.282564 
L 309.91784 149.54308 
L 310.827465 150.608209 
L 311.737089 146.347693 
L 312.646714 146.347693 
L 313.556338 148.477951 
L 314.465962 156.998982 
L 315.375587 156.998982 
L 316.285211 164.454885 
L 318.10446 172.975916 
L 319.014085 176.171303 
L 319.923709 182.562076 
L 320.833333 181.496947 
L 321.742958 187.88772 
L 322.652582 192.148236 
L 324.471831 196.408752 
L 325.381455 197.473881 
L 326.29108 199.604138 
L 327.200704 207.060041 
L 329.019953 211.320556 
L 329.929577 214.515943 
L 330.839202 216.646201 
L 331.748826 219.841588 
L 333.568075 217.71133 
L 334.4777 219.841588 
L 335.387324 219.841588 
L 336.296948 221.971845 
L 338.116197 221.971845 
L 339.935446 226.232361 
L 341.754695 228.362619 
L 342.664319 228.362619 
L 343.573944 230.492877 
L 344.483568 231.558005 
L 345.393192 231.558005 
L 349.941315 236.88365 
L 350.850939 236.88365 
L 351.760563 237.948779 
L 352.670188 236.88365 
L 355.399061 240.079037 
L 357.21831 240.079037 
L 358.127934 237.948779 
L 362.676056 232.623134 
L 363.585681 232.623134 
L 364.495305 231.558005 
L 367.224178 234.753392 
L 369.043427 234.753392 
L 370.862676 228.362619 
L 373.591549 221.971845 
L 374.501174 220.906716 
L 377.230047 220.906716 
L 378.139671 219.841588 
L 379.049296 216.646201 
L 379.95892 212.385685 
L 380.868545 210.255427 
L 381.778169 205.994912 
L 382.687793 200.669267 
L 383.597418 196.408752 
L 385.416667 192.148236 
L 386.326291 188.952849 
L 387.235915 181.496947 
L 388.14554 175.106174 
L 389.055164 170.845658 
L 389.964789 168.7154 
L 390.874413 168.7154 
L 392.693662 170.845658 
L 393.603286 169.780529 
L 394.512911 165.520014 
L 395.422535 162.324627 
L 396.33216 156.998982 
L 398.151408 159.12924 
L 399.061033 159.12924 
L 399.970657 163.389756 
L 400.880282 166.585142 
L 401.789906 166.585142 
L 402.699531 170.845658 
L 403.609155 169.780529 
L 406.338028 169.780529 
L 407.247653 163.389756 
L 408.157277 161.259498 
L 409.066901 156.998982 
L 411.795775 156.998982 
L 412.705399 153.803596 
L 413.615023 152.738467 
L 414.524648 152.738467 
L 415.434272 151.673338 
L 416.343897 153.803596 
L 417.253521 158.064111 
L 418.163146 159.12924 
L 419.07277 162.324627 
L 419.982394 164.454885 
L 420.892019 159.12924 
L 421.801643 149.54308 
L 422.711268 143.152307 
L 423.620892 137.826662 
L 424.530516 127.175373 
L 425.440141 122.914858 
L 426.349765 110.133311 
L 427.25939 103.742537 
L 428.169014 103.742537 
L 429.078638 101.61228 
L 429.988263 105.872795 
L 430.897887 109.068182 
L 431.807512 105.872795 
L 432.717136 111.19844 
L 433.626761 104.807666 
L 434.536385 96.286635 
L 435.446009 97.351764 
L 436.355634 102.677408 
L 437.265258 111.19844 
L 438.174883 122.914858 
L 439.084507 139.95692 
L 439.994131 151.673338 
L 440.903756 160.194369 
L 441.81338 164.454885 
L 442.723005 167.650271 
L 443.632629 171.910787 
L 444.542254 159.12924 
L 445.451878 153.803596 
L 446.361502 150.608209 
L 447.271127 155.933853 
L 448.180751 155.933853 
L 449.090376 156.998982 
L 450 164.454885 
L 450 164.454885 
" style="fill:none;stroke:#b3220f;stroke-linecap:square;stroke-width:1.5;"/>
   </g>
   <g id="patch_3">
    <path d="M 62.5 262.5 
L 62.5 27 
" style="fill:none;stroke:#555555;stroke-linecap:square;stroke-linejoin:miter;"/>
   </g>
   <g id="patch_4">
    <path d="M 62.5 262.5 
L 450 262.5 
" style="fill:none;stroke:#555555;stroke-linecap:square;stroke-linejoin:miter;"/>
   </g>
   <g id="text_15">
    <!-- Santa Fe | Casos nuevos: 2021-06-19 -->
    <g style="fill:#555555;" transform="translate(138.120625 17)scale(0.14 -0.14)">
     <defs>
      <path d="M 49.09375 50.5 
L 58.09375 50.5 
Q 57.90625 56.40625 55.84375 60.65625 
Q 53.796875 64.90625 50.25 67.703125 
Q 46.703125 70.5 42 71.796875 
Q 37.296875 73.09375 31.796875 73.09375 
Q 26.90625 73.09375 22.25 71.84375 
Q 17.59375 70.59375 13.9375 68.046875 
Q 10.296875 65.5 8.09375 61.546875 
Q 5.90625 57.59375 5.90625 52.203125 
Q 5.90625 47.296875 7.84375 44.046875 
Q 9.796875 40.796875 13.046875 38.75 
Q 16.296875 36.703125 20.390625 35.453125 
Q 24.5 34.203125 28.75 33.25 
Q 33 32.296875 37.09375 31.390625 
Q 41.203125 30.5 44.453125 29.046875 
Q 47.703125 27.59375 49.640625 25.296875 
Q 51.59375 23 51.59375 19.296875 
Q 51.59375 15.40625 50 12.90625 
Q 48.40625 10.40625 45.796875 8.953125 
Q 43.203125 7.5 39.953125 6.890625 
Q 36.703125 6.296875 33.5 6.296875 
Q 29.5 6.296875 25.703125 7.296875 
Q 21.90625 8.296875 19.046875 10.390625 
Q 16.203125 12.5 14.453125 15.75 
Q 12.703125 19 12.703125 23.5 
L 3.703125 23.5 
Q 3.703125 17 6.046875 12.25 
Q 8.40625 7.5 12.453125 4.453125 
Q 16.5 1.40625 21.84375 -0.09375 
Q 27.203125 -1.59375 33.203125 -1.59375 
Q 38.09375 -1.59375 43.046875 -0.4375 
Q 48 0.703125 52 3.25 
Q 56 5.796875 58.546875 9.84375 
Q 61.09375 13.90625 61.09375 19.59375 
Q 61.09375 24.90625 59.140625 28.40625 
Q 57.203125 31.90625 53.953125 34.203125 
Q 50.703125 36.5 46.59375 37.84375 
Q 42.5 39.203125 38.25 40.203125 
Q 34 41.203125 29.890625 42.046875 
Q 25.796875 42.90625 22.546875 44.203125 
Q 19.296875 45.5 17.34375 47.546875 
Q 15.40625 49.59375 15.40625 52.90625 
Q 15.40625 56.40625 16.75 58.75 
Q 18.09375 61.09375 20.34375 62.5 
Q 22.59375 63.90625 25.5 64.5 
Q 28.40625 65.09375 31.40625 65.09375 
Q 38.796875 65.09375 43.546875 61.640625 
Q 48.296875 58.203125 49.09375 50.5 
z
" id="HelveticaNeue-83"/>
      <path id="HelveticaNeue-32"/>
      <path d="M 7.796875 71.40625 
L 7.796875 0 
L 17.296875 0 
L 17.296875 32.703125 
L 50.09375 32.703125 
L 50.09375 40.703125 
L 17.296875 40.703125 
L 17.296875 63.40625 
L 54.703125 63.40625 
L 54.703125 71.40625 
z
" id="HelveticaNeue-70"/>
      <path d="M 7.703125 78.59375 
L 7.703125 -21.296875 
L 14.5 -21.296875 
L 14.5 78.59375 
z
" id="HelveticaNeue-124"/>
      <path d="M 58 49.90625 
L 67.5 49.90625 
Q 66.703125 55.59375 64.09375 59.9375 
Q 61.5 64.296875 57.59375 67.1875 
Q 53.703125 70.09375 48.703125 71.59375 
Q 43.703125 73.09375 38.09375 73.09375 
Q 29.90625 73.09375 23.546875 70.140625 
Q 17.203125 67.203125 12.953125 62.09375 
Q 8.703125 57 6.5 50.140625 
Q 4.296875 43.296875 4.296875 35.5 
Q 4.296875 27.703125 6.34375 20.890625 
Q 8.40625 14.09375 12.5 9.09375 
Q 16.59375 4.09375 22.796875 1.25 
Q 29 -1.59375 37.296875 -1.59375 
Q 51 -1.59375 58.890625 5.90625 
Q 66.796875 13.40625 68.203125 26.90625 
L 58.703125 26.90625 
Q 58.40625 22.5 56.90625 18.703125 
Q 55.40625 14.90625 52.75 12.15625 
Q 50.09375 9.40625 46.4375 7.84375 
Q 42.796875 6.296875 38.09375 6.296875 
Q 31.703125 6.296875 27.09375 8.6875 
Q 22.5 11.09375 19.546875 15.140625 
Q 16.59375 19.203125 15.1875 24.640625 
Q 13.796875 30.09375 13.796875 36.203125 
Q 13.796875 41.796875 15.1875 47 
Q 16.59375 52.203125 19.546875 56.25 
Q 22.5 60.296875 27.046875 62.6875 
Q 31.59375 65.09375 38 65.09375 
Q 45.5 65.09375 50.953125 61.296875 
Q 56.40625 57.5 58 49.90625 
z
" id="HelveticaNeue-67"/>
      <path d="M 11.59375 16.296875 
L 3.09375 16.296875 
Q 3.296875 11.5 5.09375 8.140625 
Q 6.90625 4.796875 9.90625 2.75 
Q 12.90625 0.703125 16.796875 -0.1875 
Q 20.703125 -1.09375 25 -1.09375 
Q 28.90625 -1.09375 32.84375 -0.34375 
Q 36.796875 0.40625 39.9375 2.296875 
Q 43.09375 4.203125 45.046875 7.296875 
Q 47 10.40625 47 15.09375 
Q 47 18.796875 45.546875 21.296875 
Q 44.09375 23.796875 41.75 25.4375 
Q 39.40625 27.09375 36.34375 28.09375 
Q 33.296875 29.09375 30.09375 29.796875 
Q 27.09375 30.5 24.09375 31.140625 
Q 21.09375 31.796875 18.6875 32.75 
Q 16.296875 33.703125 14.75 35.140625 
Q 13.203125 36.59375 13.203125 38.796875 
Q 13.203125 40.796875 14.203125 42.046875 
Q 15.203125 43.296875 16.796875 44.046875 
Q 18.40625 44.796875 20.34375 45.09375 
Q 22.296875 45.40625 24.203125 45.40625 
Q 26.296875 45.40625 28.34375 44.953125 
Q 30.40625 44.5 32.09375 43.5 
Q 33.796875 42.5 34.890625 40.84375 
Q 36 39.203125 36.203125 36.703125 
L 44.703125 36.703125 
Q 44.40625 41.40625 42.703125 44.546875 
Q 41 47.703125 38.140625 49.546875 
Q 35.296875 51.40625 31.59375 52.15625 
Q 27.90625 52.90625 23.5 52.90625 
Q 20.09375 52.90625 16.640625 52.046875 
Q 13.203125 51.203125 10.453125 49.453125 
Q 7.703125 47.703125 5.953125 44.890625 
Q 4.203125 42.09375 4.203125 38.203125 
Q 4.203125 33.203125 6.703125 30.390625 
Q 9.203125 27.59375 12.953125 26.046875 
Q 16.703125 24.5 21.09375 23.640625 
Q 25.5 22.796875 29.25 21.75 
Q 33 20.703125 35.5 19 
Q 38 17.296875 38 14 
Q 38 11.59375 36.796875 10.046875 
Q 35.59375 8.5 33.75 7.703125 
Q 31.90625 6.90625 29.703125 6.59375 
Q 27.5 6.296875 25.5 6.296875 
Q 22.90625 6.296875 20.453125 6.796875 
Q 18 7.296875 16.046875 8.4375 
Q 14.09375 9.59375 12.890625 11.546875 
Q 11.703125 13.5 11.59375 16.296875 
z
" id="HelveticaNeue-115"/>
      <path d="M 12.59375 25.796875 
Q 12.59375 30.5 13.84375 34.140625 
Q 15.09375 37.796875 17.296875 40.296875 
Q 19.5 42.796875 22.453125 44.09375 
Q 25.40625 45.40625 28.703125 45.40625 
Q 32 45.40625 34.953125 44.09375 
Q 37.90625 42.796875 40.09375 40.296875 
Q 42.296875 37.796875 43.546875 34.140625 
Q 44.796875 30.5 44.796875 25.796875 
Q 44.796875 21.09375 43.546875 17.4375 
Q 42.296875 13.796875 40.09375 11.34375 
Q 37.90625 8.90625 34.953125 7.59375 
Q 32 6.296875 28.703125 6.296875 
Q 25.40625 6.296875 22.453125 7.59375 
Q 19.5 8.90625 17.296875 11.34375 
Q 15.09375 13.796875 13.84375 17.4375 
Q 12.59375 21.09375 12.59375 25.796875 
z
M 3.59375 25.796875 
Q 3.59375 20.09375 5.1875 15.1875 
Q 6.796875 10.296875 10 6.640625 
Q 13.203125 3 17.890625 0.953125 
Q 22.59375 -1.09375 28.703125 -1.09375 
Q 34.90625 -1.09375 39.546875 0.953125 
Q 44.203125 3 47.390625 6.640625 
Q 50.59375 10.296875 52.1875 15.1875 
Q 53.796875 20.09375 53.796875 25.796875 
Q 53.796875 31.5 52.1875 36.453125 
Q 50.59375 41.40625 47.390625 45.046875 
Q 44.203125 48.703125 39.546875 50.796875 
Q 34.90625 52.90625 28.703125 52.90625 
Q 22.59375 52.90625 17.890625 50.796875 
Q 13.203125 48.703125 10 45.046875 
Q 6.796875 41.40625 5.1875 36.453125 
Q 3.59375 31.5 3.59375 25.796875 
z
" id="HelveticaNeue-111"/>
      <path d="M 29.703125 0 
L 48.59375 51.703125 
L 39.703125 51.703125 
L 25.59375 8.59375 
L 25.40625 8.59375 
L 10.90625 51.703125 
L 1.40625 51.703125 
L 20.59375 0 
z
" id="HelveticaNeue-118"/>
      <path d="M 19.40625 40.59375 
L 19.40625 51.703125 
L 8.296875 51.703125 
L 8.296875 40.59375 
z
M 8.296875 11.09375 
L 8.296875 0 
L 19.40625 0 
L 19.40625 11.09375 
z
" id="HelveticaNeue-58"/>
      <path d="M 5 31.796875 
L 5 23.796875 
L 33.90625 23.796875 
L 33.90625 31.796875 
z
" id="HelveticaNeue-45"/>
      <path d="M 41.40625 52.796875 
L 49.90625 52.796875 
Q 49.09375 61.59375 43.890625 66.25 
Q 38.703125 70.90625 29.90625 70.90625 
Q 22.296875 70.90625 17.296875 67.703125 
Q 12.296875 64.5 9.296875 59.203125 
Q 6.296875 53.90625 5.046875 47.046875 
Q 3.796875 40.203125 3.796875 32.90625 
Q 3.796875 27.296875 4.640625 21.296875 
Q 5.5 15.296875 8.09375 10.296875 
Q 10.703125 5.296875 15.5 2.09375 
Q 20.296875 -1.09375 28.203125 -1.09375 
Q 34.90625 -1.09375 39.453125 1.15625 
Q 44 3.40625 46.75 6.84375 
Q 49.5 10.296875 50.703125 14.5 
Q 51.90625 18.703125 51.90625 22.59375 
Q 51.90625 27.5 50.40625 31.703125 
Q 48.90625 35.90625 46.15625 39 
Q 43.40625 42.09375 39.34375 43.84375 
Q 35.296875 45.59375 30.203125 45.59375 
Q 24.40625 45.59375 19.953125 43.390625 
Q 15.5 41.203125 12.5 36.296875 
L 12.296875 36.5 
Q 12.40625 40.59375 13.09375 45.296875 
Q 13.796875 50 15.640625 54.046875 
Q 17.5 58.09375 20.796875 60.75 
Q 24.09375 63.40625 29.5 63.40625 
Q 34.59375 63.40625 37.6875 60.5 
Q 40.796875 57.59375 41.40625 52.796875 
z
M 28.59375 38.09375 
Q 32.203125 38.09375 34.890625 36.796875 
Q 37.59375 35.5 39.390625 33.34375 
Q 41.203125 31.203125 42.046875 28.25 
Q 42.90625 25.296875 42.90625 22 
Q 42.90625 18.90625 41.953125 16.046875 
Q 41 13.203125 39.203125 11 
Q 37.40625 8.796875 34.75 7.546875 
Q 32.09375 6.296875 28.59375 6.296875 
Q 25.09375 6.296875 22.34375 7.546875 
Q 19.59375 8.796875 17.75 10.890625 
Q 15.90625 13 14.90625 15.890625 
Q 13.90625 18.796875 13.90625 22.09375 
Q 13.90625 25.40625 14.84375 28.34375 
Q 15.796875 31.296875 17.6875 33.4375 
Q 19.59375 35.59375 22.296875 36.84375 
Q 25 38.09375 28.59375 38.09375 
z
" id="HelveticaNeue-54"/>
      <path d="M 13.40625 17.09375 
L 4.90625 17.09375 
Q 5.703125 7.90625 11.59375 3.40625 
Q 17.5 -1.09375 26.40625 -1.09375 
Q 39.296875 -1.09375 45.140625 8.75 
Q 51 18.59375 51 37 
Q 51 47.09375 49.046875 53.640625 
Q 47.09375 60.203125 43.796875 64 
Q 40.5 67.796875 36.09375 69.34375 
Q 31.703125 70.90625 26.703125 70.90625 
Q 21.59375 70.90625 17.296875 69.203125 
Q 13 67.5 9.890625 64.453125 
Q 6.796875 61.40625 5.09375 57.15625 
Q 3.40625 52.90625 3.40625 47.796875 
Q 3.40625 42.59375 4.84375 38.1875 
Q 6.296875 33.796875 9.140625 30.6875 
Q 12 27.59375 16.203125 25.84375 
Q 20.40625 24.09375 25.796875 24.09375 
Q 31 24.09375 35.390625 26.75 
Q 39.796875 29.40625 42.203125 33.90625 
L 42.40625 33.703125 
Q 42 19.796875 38.09375 13.046875 
Q 34.203125 6.296875 26.40625 6.296875 
Q 21.296875 6.296875 17.59375 9.09375 
Q 13.90625 11.90625 13.40625 17.09375 
z
M 40.90625 47.203125 
Q 40.90625 44.09375 39.90625 41.25 
Q 38.90625 38.40625 37 36.25 
Q 35.09375 34.09375 32.390625 32.84375 
Q 29.703125 31.59375 26.40625 31.59375 
Q 23.296875 31.59375 20.75 32.84375 
Q 18.203125 34.09375 16.34375 36.1875 
Q 14.5 38.296875 13.453125 41 
Q 12.40625 43.703125 12.40625 46.59375 
Q 12.40625 49.90625 13.15625 52.90625 
Q 13.90625 55.90625 15.546875 58.25 
Q 17.203125 60.59375 19.84375 62 
Q 22.5 63.40625 26.296875 63.40625 
Q 29.90625 63.40625 32.59375 62.09375 
Q 35.296875 60.796875 37.140625 58.546875 
Q 39 56.296875 39.953125 53.390625 
Q 40.90625 50.5 40.90625 47.203125 
z
" id="HelveticaNeue-57"/>
     </defs>
     <use xlink:href="#HelveticaNeue-83"/>
     <use x="64.799988" xlink:href="#HelveticaNeue-97"/>
     <use x="118.499985" xlink:href="#HelveticaNeue-110"/>
     <use x="174.099976" xlink:href="#HelveticaNeue-116"/>
     <use x="205.59996" xlink:href="#HelveticaNeue-97"/>
     <use x="259.299957" xlink:href="#HelveticaNeue-32"/>
     <use x="287.099945" xlink:href="#HelveticaNeue-70"/>
     <use x="344.499939" xlink:href="#HelveticaNeue-101"/>
     <use x="398.199936" xlink:href="#HelveticaNeue-32"/>
     <use x="425.999924" xlink:href="#HelveticaNeue-124"/>
     <use x="448.199921" xlink:href="#HelveticaNeue-32"/>
     <use x="475.999908" xlink:href="#HelveticaNeue-67"/>
     <use x="548.19989" xlink:href="#HelveticaNeue-97"/>
     <use x="601.899887" xlink:href="#HelveticaNeue-115"/>
     <use x="651.899872" xlink:href="#HelveticaNeue-111"/>
     <use x="709.299866" xlink:href="#HelveticaNeue-115"/>
     <use x="759.29985" xlink:href="#HelveticaNeue-32"/>
     <use x="787.099838" xlink:href="#HelveticaNeue-110"/>
     <use x="842.699829" xlink:href="#HelveticaNeue-117"/>
     <use x="898.29982" xlink:href="#HelveticaNeue-101"/>
     <use x="951.999817" xlink:href="#HelveticaNeue-118"/>
     <use x="1001.999802" xlink:href="#HelveticaNeue-111"/>
     <use x="1059.399796" xlink:href="#HelveticaNeue-115"/>
     <use x="1109.39978" xlink:href="#HelveticaNeue-58"/>
     <use x="1137.199768" xlink:href="#HelveticaNeue-32"/>
     <use x="1164.999756" xlink:href="#HelveticaNeue-50"/>
     <use x="1220.599747" xlink:href="#HelveticaNeue-48"/>
     <use x="1276.199738" xlink:href="#HelveticaNeue-50"/>
     <use x="1331.799728" xlink:href="#HelveticaNeue-49"/>
     <use x="1387.399719" xlink:href="#HelveticaNeue-45"/>
     <use x="1426.299713" xlink:href="#HelveticaNeue-48"/>
     <use x="1481.899704" xlink:href="#HelveticaNeue-54"/>
     <use x="1537.499695" xlink:href="#HelveticaNeue-45"/>
     <use x="1576.399689" xlink:href="#HelveticaNeue-49"/>
     <use x="1631.99968" xlink:href="#HelveticaNeue-57"/>
    </g>
   </g>
   <g id="legend_1">
    <g id="line2d_28">
     <path d="M 71.5 39.640625 
L 91.5 39.640625 
" style="fill:none;stroke:#000000;stroke-dasharray:1.5,2.475;stroke-dashoffset:0;stroke-opacity:0.5;stroke-width:1.5;"/>
    </g>
    <g id="line2d_29"/>
    <g id="text_16">
     <!-- Actual -->
     <g style="fill:#555555;" transform="translate(99.5 43.140625)scale(0.1 -0.1)">
      <use xlink:href="#HelveticaNeue-65"/>
      <use x="64.799988" xlink:href="#HelveticaNeue-99"/>
      <use x="118.499985" xlink:href="#HelveticaNeue-116"/>
      <use x="149.999969" xlink:href="#HelveticaNeue-117"/>
      <use x="205.59996" xlink:href="#HelveticaNeue-97"/>
      <use x="259.299957" xlink:href="#HelveticaNeue-108"/>
     </g>
    </g>
    <g id="line2d_30">
     <path d="M 71.5 54.310937 
L 91.5 54.310937 
" style="fill:none;stroke:#b3220f;stroke-linecap:square;stroke-width:1.5;"/>
    </g>
    <g id="line2d_31"/>
    <g id="text_17">
     <!-- Promedio semanal (7 das)  -->
     <g style="fill:#555555;" transform="translate(99.5 57.810937)scale(0.1 -0.1)">
      <defs>
       <path d="M 17.296875 37.203125 
L 17.296875 63.40625 
L 35.90625 63.40625 
Q 44 63.40625 47.75 60.046875 
Q 51.5 56.703125 51.5 50.296875 
Q 51.5 43.90625 47.75 40.5 
Q 44 37.09375 35.90625 37.203125 
z
M 7.796875 71.40625 
L 7.796875 0 
L 17.296875 0 
L 17.296875 29.203125 
L 39.09375 29.203125 
Q 49.90625 29.09375 55.453125 34.6875 
Q 61 40.296875 61 50.296875 
Q 61 60.296875 55.453125 65.84375 
Q 49.90625 71.40625 39.09375 71.40625 
z
" id="HelveticaNeue-80"/>
       <path d="M 6.40625 51.703125 
L 6.40625 0 
L 14.90625 0 
L 14.90625 32.203125 
Q 14.90625 33.703125 15.65625 35.953125 
Q 16.40625 38.203125 18.046875 40.296875 
Q 19.703125 42.40625 22.34375 43.90625 
Q 25 45.40625 28.703125 45.40625 
Q 31.59375 45.40625 33.4375 44.546875 
Q 35.296875 43.703125 36.390625 42.140625 
Q 37.5 40.59375 37.953125 38.5 
Q 38.40625 36.40625 38.40625 33.90625 
L 38.40625 0 
L 46.90625 0 
L 46.90625 32.203125 
Q 46.90625 38.203125 50.5 41.796875 
Q 54.09375 45.40625 60.40625 45.40625 
Q 63.5 45.40625 65.453125 44.5 
Q 67.40625 43.59375 68.5 42.046875 
Q 69.59375 40.5 70 38.390625 
Q 70.40625 36.296875 70.40625 33.90625 
L 70.40625 0 
L 78.90625 0 
L 78.90625 37.90625 
Q 78.90625 41.90625 77.65625 44.75 
Q 76.40625 47.59375 74.15625 49.390625 
Q 71.90625 51.203125 68.75 52.046875 
Q 65.59375 52.90625 61.703125 52.90625 
Q 56.59375 52.90625 52.34375 50.59375 
Q 48.09375 48.296875 45.5 44.09375 
Q 43.90625 48.90625 40 50.90625 
Q 36.09375 52.90625 31.296875 52.90625 
Q 20.40625 52.90625 14.59375 44.09375 
L 14.40625 44.09375 
L 14.40625 51.703125 
z
" id="HelveticaNeue-109"/>
       <path d="M 12.59375 25.40625 
Q 12.59375 29.203125 13.390625 32.796875 
Q 14.203125 36.40625 16 39.203125 
Q 17.796875 42 20.796875 43.703125 
Q 23.796875 45.40625 28.09375 45.40625 
Q 32.5 45.40625 35.59375 43.75 
Q 38.703125 42.09375 40.640625 39.390625 
Q 42.59375 36.703125 43.5 33.140625 
Q 44.40625 29.59375 44.40625 25.796875 
Q 44.40625 22.203125 43.546875 18.703125 
Q 42.703125 15.203125 40.796875 12.453125 
Q 38.90625 9.703125 35.90625 8 
Q 32.90625 6.296875 28.59375 6.296875 
Q 24.5 6.296875 21.453125 7.890625 
Q 18.40625 9.5 16.453125 12.203125 
Q 14.5 14.90625 13.546875 18.34375 
Q 12.59375 21.796875 12.59375 25.40625 
z
M 52.59375 0 
L 52.59375 71.40625 
L 44.09375 71.40625 
L 44.09375 44.796875 
L 43.90625 44.796875 
Q 42.5 47.09375 40.453125 48.640625 
Q 38.40625 50.203125 36.09375 51.140625 
Q 33.796875 52.09375 31.5 52.5 
Q 29.203125 52.90625 27.203125 52.90625 
Q 21.296875 52.90625 16.84375 50.75 
Q 12.40625 48.59375 9.453125 44.9375 
Q 6.5 41.296875 5.046875 36.390625 
Q 3.59375 31.5 3.59375 26 
Q 3.59375 20.5 5.09375 15.59375 
Q 6.59375 10.703125 9.546875 7 
Q 12.5 3.296875 16.953125 1.09375 
Q 21.40625 -1.09375 27.40625 -1.09375 
Q 32.796875 -1.09375 37.296875 0.796875 
Q 41.796875 2.703125 43.90625 7 
L 44.09375 7 
L 44.09375 0 
z
" id="HelveticaNeue-100"/>
       <path d="M 15.40625 61 
L 15.40625 71.40625 
L 6.90625 71.40625 
L 6.90625 61 
z
M 6.90625 51.703125 
L 6.90625 0 
L 15.40625 0 
L 15.40625 51.703125 
z
" id="HelveticaNeue-105"/>
       <path d="M 20.40625 -19.703125 
L 26.90625 -19.703125 
Q 19.796875 -8.203125 16.75 3.09375 
Q 13.703125 14.40625 13.703125 27 
Q 13.703125 39.296875 16.703125 50.5 
Q 19.703125 61.703125 26.90625 73.09375 
L 20.40625 73.09375 
Q 12.59375 62.796875 8.640625 50.796875 
Q 4.703125 38.796875 4.703125 27 
Q 4.703125 20.40625 5.796875 14.40625 
Q 6.90625 8.40625 8.953125 2.703125 
Q 11 -3 13.890625 -8.546875 
Q 16.796875 -14.09375 20.40625 -19.703125 
z
" id="HelveticaNeue-40"/>
       <path d="M 6.90625 0 
L 15.40625 0 
L 15.40625 51.703125 
L 6.90625 51.703125 
z
M 25.5 77 
L 11.40625 60.796875 
L 5 60.796875 
L 14.59375 77 
z
" id="HelveticaNeue-237"/>
       <path d="M -0.90625 -19.703125 
L 5.5 -19.703125 
Q 13.296875 -9.40625 17.25 2.546875 
Q 21.203125 14.5 21.203125 26.296875 
Q 21.203125 32.90625 20.09375 38.90625 
Q 19 44.90625 16.953125 50.65625 
Q 14.90625 56.40625 12 61.953125 
Q 9.09375 67.5 5.5 73.09375 
L -0.90625 73.09375 
Q 6.09375 61.59375 9.140625 50.25 
Q 12.203125 38.90625 12.203125 26.296875 
Q 12.203125 14.09375 9.203125 2.84375 
Q 6.203125 -8.40625 -0.90625 -19.703125 
z
" id="HelveticaNeue-41"/>
      </defs>
      <use xlink:href="#HelveticaNeue-80"/>
      <use x="64.799988" xlink:href="#HelveticaNeue-114"/>
      <use x="96.349976" xlink:href="#HelveticaNeue-111"/>
      <use x="153.749969" xlink:href="#HelveticaNeue-109"/>
      <use x="239.049957" xlink:href="#HelveticaNeue-101"/>
      <use x="292.749954" xlink:href="#HelveticaNeue-100"/>
      <use x="352.049942" xlink:href="#HelveticaNeue-105"/>
      <use x="374.249939" xlink:href="#HelveticaNeue-111"/>
      <use x="431.649933" xlink:href="#HelveticaNeue-32"/>
      <use x="459.449921" xlink:href="#HelveticaNeue-115"/>
      <use x="509.449905" xlink:href="#HelveticaNeue-101"/>
      <use x="563.149902" xlink:href="#HelveticaNeue-109"/>
      <use x="648.44989" xlink:href="#HelveticaNeue-97"/>
      <use x="702.149887" xlink:href="#HelveticaNeue-110"/>
      <use x="757.749878" xlink:href="#HelveticaNeue-97"/>
      <use x="811.449875" xlink:href="#HelveticaNeue-108"/>
      <use x="833.649872" xlink:href="#HelveticaNeue-32"/>
      <use x="861.44986" xlink:href="#HelveticaNeue-40"/>
      <use x="887.349854" xlink:href="#HelveticaNeue-55"/>
      <use x="942.949844" xlink:href="#HelveticaNeue-32"/>
      <use x="970.749832" xlink:href="#HelveticaNeue-100"/>
      <use x="1030.04982" xlink:href="#HelveticaNeue-237"/>
      <use x="1052.249817" xlink:href="#HelveticaNeue-97"/>
      <use x="1105.949814" xlink:href="#HelveticaNeue-115"/>
      <use x="1155.949799" xlink:href="#HelveticaNeue-41"/>
      <use x="1181.849792" xlink:href="#HelveticaNeue-32"/>
     </g>
    </g>
   </g>
  </g>
 </g>
 <defs>
  <clipPath id="p2f51dd6819">
   <rect height="235.5" width="387.5" x="62.5" y="27"/>
  </clipPath>
 </defs>
</svg>
