<?xml version="1.0" encoding="utf-8" standalone="no"?>
<!DOCTYPE svg PUBLIC "-//W3C//DTD SVG 1.1//EN"
  "http://www.w3.org/Graphics/SVG/1.1/DTD/svg11.dtd">
<!-- Created with matplotlib (https://matplotlib.org/) -->
<svg height="300pt" version="1.1" viewBox="0 0 500 300" width="500pt" xmlns="http://www.w3.org/2000/svg" xmlns:xlink="http://www.w3.org/1999/xlink">
 <metadata>
  <rdf:RDF xmlns:cc="http://creativecommons.org/ns#" xmlns:dc="http://purl.org/dc/elements/1.1/" xmlns:rdf="http://www.w3.org/1999/02/22-rdf-syntax-ns#">
   <cc:Work>
    <dc:type rdf:resource="http://purl.org/dc/dcmitype/StillImage"/>
    <dc:date>2021-07-17T16:54:01.562962</dc:date>
    <dc:format>image/svg+xml</dc:format>
    <dc:creator>
     <cc:Agent>
      <dc:title>Matplotlib v3.3.4, https://matplotlib.org/</dc:title>
     </cc:Agent>
    </dc:creator>
   </cc:Work>
  </rdf:RDF>
 </metadata>
 <defs>
  <style type="text/css">*{stroke-linecap:butt;stroke-linejoin:round;}</style>
 </defs>
 <g id="figure_1">
  <g id="patch_1">
   <path d="M 0 300 
L 500 300 
L 500 0 
L 0 0 
z
" style="fill:#ffffff;"/>
  </g>
  <g id="axes_1">
   <g id="patch_2">
    <path d="M 62.5 262.5 
L 450 262.5 
L 450 27 
L 62.5 27 
z
" style="fill:#ffffff;"/>
   </g>
   <g id="matplotlib.axis_1">
    <g id="xtick_1">
     <g id="line2d_1">
      <defs>
       <path d="M 0 0 
L 0 3.5 
" id="m35cce4f982" style="stroke:#555555;stroke-width:0.8;"/>
      </defs>
      <g>
       <use style="fill:#555555;stroke:#555555;stroke-width:0.8;" x="62.5" xlink:href="#m35cce4f982" y="262.5"/>
      </g>
     </g>
    </g>
    <g id="xtick_2">
     <g id="line2d_2">
      <g>
       <use style="fill:#555555;stroke:#555555;stroke-width:0.8;" x="125.082965" xlink:href="#m35cce4f982" y="262.5"/>
      </g>
     </g>
     <g id="text_1">
      <!-- Jul -->
      <g style="fill:#555555;" transform="translate(118.597808 276.640625)scale(0.1 -0.1)">
       <defs>
        <path d="M 44.09375 17.796875 
L 44.09375 71.40625 
L 34.59375 71.40625 
L 34.59375 19.203125 
Q 34.59375 13.296875 32.140625 9.796875 
Q 29.703125 6.296875 23.203125 6.296875 
Q 19.703125 6.296875 17.453125 7.34375 
Q 15.203125 8.40625 13.953125 10.296875 
Q 12.703125 12.203125 12.203125 14.796875 
Q 11.703125 17.40625 11.703125 20.5 
L 11.703125 23.5 
L 2.203125 23.5 
L 2.203125 19.09375 
Q 2.203125 8.90625 7.59375 3.65625 
Q 13 -1.59375 23 -1.59375 
Q 29 -1.59375 33.046875 0.046875 
Q 37.09375 1.703125 39.546875 4.453125 
Q 42 7.203125 43.046875 10.703125 
Q 44.09375 14.203125 44.09375 17.796875 
z
" id="HelveticaNeue-74"/>
        <path d="M 49.203125 0 
L 49.203125 51.703125 
L 40.703125 51.703125 
L 40.703125 22.5 
Q 40.703125 19 39.75 16.046875 
Q 38.796875 13.09375 36.890625 10.890625 
Q 35 8.703125 32.140625 7.5 
Q 29.296875 6.296875 25.40625 6.296875 
Q 20.5 6.296875 17.703125 9.09375 
Q 14.90625 11.90625 14.90625 16.703125 
L 14.90625 51.703125 
L 6.40625 51.703125 
L 6.40625 17.703125 
Q 6.40625 13.5 7.25 10.046875 
Q 8.09375 6.59375 10.1875 4.09375 
Q 12.296875 1.59375 15.6875 0.25 
Q 19.09375 -1.09375 24.203125 -1.09375 
Q 29.90625 -1.09375 34.09375 1.15625 
Q 38.296875 3.40625 41 8.203125 
L 41.203125 8.203125 
L 41.203125 0 
z
" id="HelveticaNeue-117"/>
        <path d="M 6.90625 71.40625 
L 6.90625 0 
L 15.40625 0 
L 15.40625 71.40625 
z
" id="HelveticaNeue-108"/>
       </defs>
       <use xlink:href="#HelveticaNeue-74"/>
       <use x="51.899994" xlink:href="#HelveticaNeue-117"/>
       <use x="107.499985" xlink:href="#HelveticaNeue-108"/>
      </g>
     </g>
    </g>
    <g id="xtick_3">
     <g id="line2d_3">
      <g>
       <use style="fill:#555555;stroke:#555555;stroke-width:0.8;" x="203.954646" xlink:href="#m35cce4f982" y="262.5"/>
      </g>
     </g>
     <g id="text_2">
      <!-- Oct -->
      <g style="fill:#555555;" transform="translate(195.89449 276.640625)scale(0.1 -0.1)">
       <defs>
        <path d="M 13.296875 35.703125 
Q 13.296875 41.09375 14.6875 46.34375 
Q 16.09375 51.59375 19.09375 55.796875 
Q 22.09375 60 26.796875 62.546875 
Q 31.5 65.09375 38 65.09375 
Q 44.5 65.09375 49.203125 62.546875 
Q 53.90625 60 56.90625 55.796875 
Q 59.90625 51.59375 61.296875 46.34375 
Q 62.703125 41.09375 62.703125 35.703125 
Q 62.703125 30.296875 61.296875 25.046875 
Q 59.90625 19.796875 56.90625 15.59375 
Q 53.90625 11.40625 49.203125 8.84375 
Q 44.5 6.296875 38 6.296875 
Q 31.5 6.296875 26.796875 8.84375 
Q 22.09375 11.40625 19.09375 15.59375 
Q 16.09375 19.796875 14.6875 25.046875 
Q 13.296875 30.296875 13.296875 35.703125 
z
M 3.796875 35.703125 
Q 3.796875 28.40625 5.9375 21.65625 
Q 8.09375 14.90625 12.390625 9.703125 
Q 16.703125 4.5 23.09375 1.453125 
Q 29.5 -1.59375 38 -1.59375 
Q 46.5 -1.59375 52.890625 1.453125 
Q 59.296875 4.5 63.59375 9.703125 
Q 67.90625 14.90625 70.046875 21.65625 
Q 72.203125 28.40625 72.203125 35.703125 
Q 72.203125 43 70.046875 49.75 
Q 67.90625 56.5 63.59375 61.703125 
Q 59.296875 66.90625 52.890625 70 
Q 46.5 73.09375 38 73.09375 
Q 29.5 73.09375 23.09375 70 
Q 16.703125 66.90625 12.390625 61.703125 
Q 8.09375 56.5 5.9375 49.75 
Q 3.796875 43 3.796875 35.703125 
z
" id="HelveticaNeue-79"/>
        <path d="M 41.5 35.09375 
L 50.296875 35.09375 
Q 49.796875 39.703125 47.890625 43.046875 
Q 46 46.40625 43.046875 48.59375 
Q 40.09375 50.796875 36.25 51.84375 
Q 32.40625 52.90625 28 52.90625 
Q 21.90625 52.90625 17.296875 50.75 
Q 12.703125 48.59375 9.640625 44.84375 
Q 6.59375 41.09375 5.09375 36.046875 
Q 3.59375 31 3.59375 25.203125 
Q 3.59375 19.40625 5.140625 14.546875 
Q 6.703125 9.703125 9.75 6.203125 
Q 12.796875 2.703125 17.34375 0.796875 
Q 21.90625 -1.09375 27.796875 -1.09375 
Q 37.703125 -1.09375 43.453125 4.09375 
Q 49.203125 9.296875 50.59375 18.90625 
L 41.90625 18.90625 
Q 41.09375 12.90625 37.546875 9.59375 
Q 34 6.296875 27.703125 6.296875 
Q 23.703125 6.296875 20.796875 7.890625 
Q 17.90625 9.5 16.09375 12.140625 
Q 14.296875 14.796875 13.4375 18.1875 
Q 12.59375 21.59375 12.59375 25.203125 
Q 12.59375 29.09375 13.390625 32.75 
Q 14.203125 36.40625 16.046875 39.203125 
Q 17.90625 42 21 43.703125 
Q 24.09375 45.40625 28.703125 45.40625 
Q 34.09375 45.40625 37.296875 42.703125 
Q 40.5 40 41.5 35.09375 
z
" id="HelveticaNeue-99"/>
        <path d="M 18.203125 51.703125 
L 18.203125 67.203125 
L 9.703125 67.203125 
L 9.703125 51.703125 
L 0.90625 51.703125 
L 0.90625 44.203125 
L 9.703125 44.203125 
L 9.703125 11.296875 
Q 9.703125 7.703125 10.390625 5.5 
Q 11.09375 3.296875 12.546875 2.09375 
Q 14 0.90625 16.34375 0.453125 
Q 18.703125 0 22 0 
L 28.5 0 
L 28.5 7.5 
L 24.59375 7.5 
Q 22.59375 7.5 21.34375 7.640625 
Q 20.09375 7.796875 19.390625 8.296875 
Q 18.703125 8.796875 18.453125 9.6875 
Q 18.203125 10.59375 18.203125 12.09375 
L 18.203125 44.203125 
L 28.5 44.203125 
L 28.5 51.703125 
z
" id="HelveticaNeue-116"/>
       </defs>
       <use xlink:href="#HelveticaNeue-79"/>
       <use x="75.999985" xlink:href="#HelveticaNeue-99"/>
       <use x="129.699982" xlink:href="#HelveticaNeue-116"/>
      </g>
     </g>
    </g>
    <g id="xtick_4">
     <g id="line2d_4">
      <g>
       <use style="fill:#555555;stroke:#555555;stroke-width:0.8;" x="282.826327" xlink:href="#m35cce4f982" y="262.5"/>
      </g>
     </g>
     <g id="text_3">
      <!-- Jan -->
      <g style="fill:#555555;" transform="translate(274.766171 276.640625)scale(0.1 -0.1)">
       <defs>
        <path d="M 52.203125 0.203125 
Q 50 -1.09375 46.09375 -1.09375 
Q 42.796875 -1.09375 40.84375 0.75 
Q 38.90625 2.59375 38.90625 6.796875 
Q 35.40625 2.59375 30.75 0.75 
Q 26.09375 -1.09375 20.703125 -1.09375 
Q 17.203125 -1.09375 14.046875 -0.296875 
Q 10.90625 0.5 8.59375 2.203125 
Q 6.296875 3.90625 4.9375 6.65625 
Q 3.59375 9.40625 3.59375 13.296875 
Q 3.59375 17.703125 5.09375 20.5 
Q 6.59375 23.296875 9.046875 25.046875 
Q 11.5 26.796875 14.640625 27.6875 
Q 17.796875 28.59375 21.09375 29.203125 
Q 24.59375 29.90625 27.75 30.25 
Q 30.90625 30.59375 33.296875 31.25 
Q 35.703125 31.90625 37.09375 33.15625 
Q 38.5 34.40625 38.5 36.796875 
Q 38.5 39.59375 37.453125 41.296875 
Q 36.40625 43 34.75 43.890625 
Q 33.09375 44.796875 31.046875 45.09375 
Q 29 45.40625 27 45.40625 
Q 21.59375 45.40625 18 43.34375 
Q 14.40625 41.296875 14.09375 35.59375 
L 5.59375 35.59375 
Q 5.796875 40.40625 7.59375 43.703125 
Q 9.40625 47 12.40625 49.046875 
Q 15.40625 51.09375 19.25 52 
Q 23.09375 52.90625 27.5 52.90625 
Q 31 52.90625 34.453125 52.40625 
Q 37.90625 51.90625 40.703125 50.34375 
Q 43.5 48.796875 45.203125 46 
Q 46.90625 43.203125 46.90625 38.703125 
L 46.90625 12.09375 
Q 46.90625 9.09375 47.25 7.6875 
Q 47.59375 6.296875 49.59375 6.296875 
Q 50.703125 6.296875 52.203125 6.796875 
z
M 38.40625 26.703125 
Q 36.796875 25.5 34.1875 24.953125 
Q 31.59375 24.40625 28.75 24.046875 
Q 25.90625 23.703125 23 23.25 
Q 20.09375 22.796875 17.796875 21.796875 
Q 15.5 20.796875 14.046875 18.9375 
Q 12.59375 17.09375 12.59375 13.90625 
Q 12.59375 11.796875 13.4375 10.34375 
Q 14.296875 8.90625 15.640625 8 
Q 17 7.09375 18.796875 6.6875 
Q 20.59375 6.296875 22.59375 6.296875 
Q 26.796875 6.296875 29.796875 7.4375 
Q 32.796875 8.59375 34.6875 10.34375 
Q 36.59375 12.09375 37.5 14.140625 
Q 38.40625 16.203125 38.40625 18 
z
" id="HelveticaNeue-97"/>
        <path d="M 6.40625 51.703125 
L 6.40625 0 
L 14.90625 0 
L 14.90625 29.203125 
Q 14.90625 32.703125 15.84375 35.640625 
Q 16.796875 38.59375 18.6875 40.796875 
Q 20.59375 43 23.4375 44.203125 
Q 26.296875 45.40625 30.203125 45.40625 
Q 35.09375 45.40625 37.890625 42.59375 
Q 40.703125 39.796875 40.703125 35 
L 40.703125 0 
L 49.203125 0 
L 49.203125 34 
Q 49.203125 38.203125 48.34375 41.640625 
Q 47.5 45.09375 45.390625 47.59375 
Q 43.296875 50.09375 39.890625 51.5 
Q 36.5 52.90625 31.40625 52.90625 
Q 19.90625 52.90625 14.59375 43.5 
L 14.40625 43.5 
L 14.40625 51.703125 
z
" id="HelveticaNeue-110"/>
       </defs>
       <use xlink:href="#HelveticaNeue-74"/>
       <use x="51.899994" xlink:href="#HelveticaNeue-97"/>
       <use x="105.599991" xlink:href="#HelveticaNeue-110"/>
      </g>
      <!-- 2021 -->
      <g style="fill:#555555;" transform="translate(271.707577 287.179688)scale(0.1 -0.1)">
       <defs>
        <path d="M 4.40625 45.796875 
L 12.90625 45.796875 
Q 12.796875 49 13.546875 52.140625 
Q 14.296875 55.296875 16 57.796875 
Q 17.703125 60.296875 20.34375 61.84375 
Q 23 63.40625 26.703125 63.40625 
Q 29.5 63.40625 32 62.5 
Q 34.5 61.59375 36.34375 59.890625 
Q 38.203125 58.203125 39.296875 55.84375 
Q 40.40625 53.5 40.40625 50.59375 
Q 40.40625 46.90625 39.25 44.09375 
Q 38.09375 41.296875 35.84375 38.890625 
Q 33.59375 36.5 30.1875 34.140625 
Q 26.796875 31.796875 22.296875 29 
Q 18.59375 26.796875 15.1875 24.296875 
Q 11.796875 21.796875 9.09375 18.5 
Q 6.40625 15.203125 4.65625 10.75 
Q 2.90625 6.296875 2.40625 0 
L 48.703125 0 
L 48.703125 7.5 
L 12.296875 7.5 
Q 12.90625 10.796875 14.84375 13.34375 
Q 16.796875 15.90625 19.546875 18.09375 
Q 22.296875 20.296875 25.59375 22.25 
Q 28.90625 24.203125 32.203125 26.203125 
Q 35.5 28.296875 38.59375 30.59375 
Q 41.703125 32.90625 44.09375 35.75 
Q 46.5 38.59375 47.953125 42.1875 
Q 49.40625 45.796875 49.40625 50.5 
Q 49.40625 55.5 47.65625 59.296875 
Q 45.90625 63.09375 42.90625 65.640625 
Q 39.90625 68.203125 35.84375 69.546875 
Q 31.796875 70.90625 27.203125 70.90625 
Q 21.59375 70.90625 17.1875 69 
Q 12.796875 67.09375 9.84375 63.75 
Q 6.90625 60.40625 5.5 55.796875 
Q 4.09375 51.203125 4.40625 45.796875 
z
" id="HelveticaNeue-50"/>
        <path d="M 13.203125 34.90625 
Q 13.203125 37.5 13.25 40.640625 
Q 13.296875 43.796875 13.75 46.9375 
Q 14.203125 50.09375 15.046875 53.09375 
Q 15.90625 56.09375 17.546875 58.34375 
Q 19.203125 60.59375 21.703125 62 
Q 24.203125 63.40625 27.796875 63.40625 
Q 31.40625 63.40625 33.90625 62 
Q 36.40625 60.59375 38.046875 58.34375 
Q 39.703125 56.09375 40.546875 53.09375 
Q 41.40625 50.09375 41.84375 46.9375 
Q 42.296875 43.796875 42.34375 40.640625 
Q 42.40625 37.5 42.40625 34.90625 
Q 42.40625 30.90625 42.15625 25.953125 
Q 41.90625 21 40.546875 16.640625 
Q 39.203125 12.296875 36.203125 9.296875 
Q 33.203125 6.296875 27.796875 6.296875 
Q 22.40625 6.296875 19.40625 9.296875 
Q 16.40625 12.296875 15.046875 16.640625 
Q 13.703125 21 13.453125 25.953125 
Q 13.203125 30.90625 13.203125 34.90625 
z
M 4.203125 34.796875 
Q 4.203125 30.90625 4.390625 26.703125 
Q 4.59375 22.5 5.390625 18.5 
Q 6.203125 14.5 7.703125 10.953125 
Q 9.203125 7.40625 11.796875 4.703125 
Q 14.40625 2 18.34375 0.453125 
Q 22.296875 -1.09375 27.796875 -1.09375 
Q 33.40625 -1.09375 37.296875 0.453125 
Q 41.203125 2 43.796875 4.703125 
Q 46.40625 7.40625 47.90625 10.953125 
Q 49.40625 14.5 50.203125 18.5 
Q 51 22.5 51.203125 26.703125 
Q 51.40625 30.90625 51.40625 34.796875 
Q 51.40625 38.703125 51.203125 42.890625 
Q 51 47.09375 50.203125 51.09375 
Q 49.40625 55.09375 47.90625 58.6875 
Q 46.40625 62.296875 43.796875 65 
Q 41.203125 67.703125 37.25 69.296875 
Q 33.296875 70.90625 27.796875 70.90625 
Q 22.296875 70.90625 18.34375 69.296875 
Q 14.40625 67.703125 11.796875 65 
Q 9.203125 62.296875 7.703125 58.6875 
Q 6.203125 55.09375 5.390625 51.09375 
Q 4.59375 47.09375 4.390625 42.890625 
Q 4.203125 38.703125 4.203125 34.796875 
z
" id="HelveticaNeue-48"/>
        <path d="M 35.59375 0 
L 35.59375 70.90625 
L 29.09375 70.90625 
Q 28.40625 66.90625 26.5 64.296875 
Q 24.59375 61.703125 21.84375 60.203125 
Q 19.09375 58.703125 15.6875 58.140625 
Q 12.296875 57.59375 8.703125 57.59375 
L 8.703125 50.796875 
L 27.09375 50.796875 
L 27.09375 0 
z
" id="HelveticaNeue-49"/>
       </defs>
       <use xlink:href="#HelveticaNeue-50"/>
       <use x="55.599991" xlink:href="#HelveticaNeue-48"/>
       <use x="111.199982" xlink:href="#HelveticaNeue-50"/>
       <use x="166.799973" xlink:href="#HelveticaNeue-49"/>
      </g>
     </g>
    </g>
    <g id="xtick_5">
     <g id="line2d_5">
      <g>
       <use style="fill:#555555;stroke:#555555;stroke-width:0.8;" x="359.983407" xlink:href="#m35cce4f982" y="262.5"/>
      </g>
     </g>
     <g id="text_4">
      <!-- Apr -->
      <g style="fill:#555555;" transform="translate(352.113876 276.640625)scale(0.1 -0.1)">
       <defs>
        <path d="M 20.09375 29.5 
L 32.203125 62.796875 
L 32.40625 62.796875 
L 44.296875 29.5 
z
M 27.203125 71.40625 
L -0.59375 0 
L 9.09375 0 
L 17.09375 21.5 
L 47.296875 21.5 
L 55.09375 0 
L 65.59375 0 
L 37.703125 71.40625 
z
" id="HelveticaNeue-65"/>
        <path d="M 6.703125 51.703125 
L 6.703125 -19.703125 
L 15.203125 -19.703125 
L 15.203125 6.90625 
L 15.40625 6.90625 
Q 16.796875 4.59375 18.84375 3.046875 
Q 20.90625 1.5 23.203125 0.59375 
Q 25.5 -0.296875 27.84375 -0.6875 
Q 30.203125 -1.09375 32.09375 -1.09375 
Q 38 -1.09375 42.453125 1 
Q 46.90625 3.09375 49.84375 6.75 
Q 52.796875 10.40625 54.25 15.296875 
Q 55.703125 20.203125 55.703125 25.703125 
Q 55.703125 31.203125 54.203125 36.09375 
Q 52.703125 41 49.75 44.75 
Q 46.796875 48.5 42.34375 50.703125 
Q 37.90625 52.90625 31.90625 52.90625 
Q 26.5 52.90625 22 50.953125 
Q 17.5 49 15.40625 44.703125 
L 15.203125 44.703125 
L 15.203125 51.703125 
z
M 46.703125 26.296875 
Q 46.703125 22.5 45.890625 18.890625 
Q 45.09375 15.296875 43.296875 12.5 
Q 41.5 9.703125 38.546875 8 
Q 35.59375 6.296875 31.203125 6.296875 
Q 26.796875 6.296875 23.6875 7.9375 
Q 20.59375 9.59375 18.640625 12.296875 
Q 16.703125 15 15.796875 18.546875 
Q 14.90625 22.09375 14.90625 25.90625 
Q 14.90625 29.5 15.75 33 
Q 16.59375 36.5 18.5 39.25 
Q 20.40625 42 23.40625 43.703125 
Q 26.40625 45.40625 30.703125 45.40625 
Q 34.796875 45.40625 37.84375 43.796875 
Q 40.90625 42.203125 42.84375 39.5 
Q 44.796875 36.796875 45.75 33.34375 
Q 46.703125 29.90625 46.703125 26.296875 
z
" id="HelveticaNeue-112"/>
        <path d="M 6.09375 51.703125 
L 6.09375 0 
L 14.59375 0 
L 14.59375 23 
Q 14.59375 28 15.59375 31.84375 
Q 16.59375 35.703125 18.796875 38.390625 
Q 21 41.09375 24.59375 42.5 
Q 28.203125 43.90625 33.296875 43.90625 
L 33.296875 52.90625 
Q 26.40625 53.09375 21.90625 50.09375 
Q 17.40625 47.09375 14.296875 40.796875 
L 14.09375 40.796875 
L 14.09375 51.703125 
z
" id="HelveticaNeue-114"/>
       </defs>
       <use xlink:href="#HelveticaNeue-65"/>
       <use x="64.799988" xlink:href="#HelveticaNeue-112"/>
       <use x="124.099976" xlink:href="#HelveticaNeue-114"/>
      </g>
     </g>
    </g>
    <g id="xtick_6">
     <g id="line2d_6">
      <g>
       <use style="fill:#555555;stroke:#555555;stroke-width:0.8;" x="437.997788" xlink:href="#m35cce4f982" y="262.5"/>
      </g>
     </g>
     <g id="text_5">
      <!-- Jul -->
      <g style="fill:#555555;" transform="translate(431.512631 276.640625)scale(0.1 -0.1)">
       <use xlink:href="#HelveticaNeue-74"/>
       <use x="51.899994" xlink:href="#HelveticaNeue-117"/>
       <use x="107.499985" xlink:href="#HelveticaNeue-108"/>
      </g>
     </g>
    </g>
    <g id="xtick_7">
     <g id="line2d_7">
      <g>
       <use style="fill:#555555;stroke:#555555;stroke-width:0.8;" x="450" xlink:href="#m35cce4f982" y="262.5"/>
      </g>
     </g>
    </g>
    <g id="xtick_8">
     <g id="line2d_8">
      <defs>
       <path d="M 0 0 
L 0 2 
" id="mfe5e2cd2c6" style="stroke:#555555;stroke-width:0.6;"/>
      </defs>
      <g>
       <use style="fill:#555555;stroke:#555555;stroke-width:0.6;" x="72.787611" xlink:href="#mfe5e2cd2c6" y="262.5"/>
      </g>
     </g>
    </g>
    <g id="xtick_9">
     <g id="line2d_9">
      <g>
       <use style="fill:#555555;stroke:#555555;stroke-width:0.6;" x="99.363938" xlink:href="#mfe5e2cd2c6" y="262.5"/>
      </g>
     </g>
    </g>
    <g id="xtick_10">
     <g id="line2d_10">
      <g>
       <use style="fill:#555555;stroke:#555555;stroke-width:0.6;" x="151.659292" xlink:href="#mfe5e2cd2c6" y="262.5"/>
      </g>
     </g>
    </g>
    <g id="xtick_11">
     <g id="line2d_11">
      <g>
       <use style="fill:#555555;stroke:#555555;stroke-width:0.6;" x="178.235619" xlink:href="#mfe5e2cd2c6" y="262.5"/>
      </g>
     </g>
    </g>
    <g id="xtick_12">
     <g id="line2d_12">
      <g>
       <use style="fill:#555555;stroke:#555555;stroke-width:0.6;" x="230.530973" xlink:href="#mfe5e2cd2c6" y="262.5"/>
      </g>
     </g>
    </g>
    <g id="xtick_13">
     <g id="line2d_13">
      <g>
       <use style="fill:#555555;stroke:#555555;stroke-width:0.6;" x="256.25" xlink:href="#mfe5e2cd2c6" y="262.5"/>
      </g>
     </g>
    </g>
    <g id="xtick_14">
     <g id="line2d_14">
      <g>
       <use style="fill:#555555;stroke:#555555;stroke-width:0.6;" x="309.402655" xlink:href="#mfe5e2cd2c6" y="262.5"/>
      </g>
     </g>
    </g>
    <g id="xtick_15">
     <g id="line2d_15">
      <g>
       <use style="fill:#555555;stroke:#555555;stroke-width:0.6;" x="333.40708" xlink:href="#mfe5e2cd2c6" y="262.5"/>
      </g>
     </g>
    </g>
    <g id="xtick_16">
     <g id="line2d_16">
      <g>
       <use style="fill:#555555;stroke:#555555;stroke-width:0.6;" x="385.702434" xlink:href="#mfe5e2cd2c6" y="262.5"/>
      </g>
     </g>
    </g>
    <g id="xtick_17">
     <g id="line2d_17">
      <g>
       <use style="fill:#555555;stroke:#555555;stroke-width:0.6;" x="412.278761" xlink:href="#mfe5e2cd2c6" y="262.5"/>
      </g>
     </g>
    </g>
    <g id="text_6">
     <!-- fecha -->
     <g style="fill:#555555;" transform="translate(243.935156 300.290625)scale(0.1 -0.1)">
      <defs>
       <path d="M 9.90625 44.203125 
L 9.90625 0 
L 18.40625 0 
L 18.40625 44.203125 
L 28.40625 44.203125 
L 28.40625 51.703125 
L 18.40625 51.703125 
L 18.40625 58.90625 
Q 18.40625 62.296875 20.09375 63.5 
Q 21.796875 64.703125 24.90625 64.703125 
Q 26 64.703125 27.296875 64.546875 
Q 28.59375 64.40625 29.703125 64 
L 29.703125 71.40625 
Q 28.5 71.796875 26.953125 72 
Q 25.40625 72.203125 24.203125 72.203125 
Q 17.203125 72.203125 13.546875 68.953125 
Q 9.90625 65.703125 9.90625 59.40625 
L 9.90625 51.703125 
L 1.203125 51.703125 
L 1.203125 44.203125 
z
" id="HelveticaNeue-102"/>
       <path d="M 42.296875 30.796875 
L 12.59375 30.796875 
Q 12.796875 33.796875 13.890625 36.4375 
Q 15 39.09375 16.890625 41.09375 
Q 18.796875 43.09375 21.4375 44.25 
Q 24.09375 45.40625 27.40625 45.40625 
Q 30.59375 45.40625 33.25 44.25 
Q 35.90625 43.09375 37.84375 41.140625 
Q 39.796875 39.203125 40.9375 36.5 
Q 42.09375 33.796875 42.296875 30.796875 
z
M 50.5 16.40625 
L 42.09375 16.40625 
Q 41 11.296875 37.546875 8.796875 
Q 34.09375 6.296875 28.703125 6.296875 
Q 24.5 6.296875 21.390625 7.6875 
Q 18.296875 9.09375 16.296875 11.4375 
Q 14.296875 13.796875 13.390625 16.84375 
Q 12.5 19.90625 12.59375 23.296875 
L 51.296875 23.296875 
Q 51.5 28 50.453125 33.203125 
Q 49.40625 38.40625 46.65625 42.796875 
Q 43.90625 47.203125 39.34375 50.046875 
Q 34.796875 52.90625 27.90625 52.90625 
Q 22.59375 52.90625 18.140625 50.90625 
Q 13.703125 48.90625 10.453125 45.296875 
Q 7.203125 41.703125 5.390625 36.796875 
Q 3.59375 31.90625 3.59375 26 
Q 3.796875 20.09375 5.34375 15.09375 
Q 6.90625 10.09375 10 6.5 
Q 13.09375 2.90625 17.640625 0.90625 
Q 22.203125 -1.09375 28.40625 -1.09375 
Q 37.203125 -1.09375 43 3.296875 
Q 48.796875 7.703125 50.5 16.40625 
z
" id="HelveticaNeue-101"/>
       <path d="M 6.40625 71.40625 
L 6.40625 0 
L 14.90625 0 
L 14.90625 29.203125 
Q 14.90625 32.703125 15.84375 35.640625 
Q 16.796875 38.59375 18.6875 40.796875 
Q 20.59375 43 23.4375 44.203125 
Q 26.296875 45.40625 30.203125 45.40625 
Q 35.09375 45.40625 37.890625 42.59375 
Q 40.703125 39.796875 40.703125 35 
L 40.703125 0 
L 49.203125 0 
L 49.203125 34 
Q 49.203125 38.203125 48.34375 41.640625 
Q 47.5 45.09375 45.390625 47.59375 
Q 43.296875 50.09375 39.890625 51.5 
Q 36.5 52.90625 31.40625 52.90625 
Q 29.09375 52.90625 26.640625 52.40625 
Q 24.203125 51.90625 21.953125 50.84375 
Q 19.703125 49.796875 17.890625 48.140625 
Q 16.09375 46.5 15.09375 44.09375 
L 14.90625 44.09375 
L 14.90625 71.40625 
z
" id="HelveticaNeue-104"/>
      </defs>
      <use xlink:href="#HelveticaNeue-102"/>
      <use x="29.599991" xlink:href="#HelveticaNeue-101"/>
      <use x="83.299988" xlink:href="#HelveticaNeue-99"/>
      <use x="136.999985" xlink:href="#HelveticaNeue-104"/>
      <use x="192.599976" xlink:href="#HelveticaNeue-97"/>
     </g>
    </g>
   </g>
   <g id="matplotlib.axis_2">
    <g id="ytick_1">
     <g id="line2d_18">
      <defs>
       <path d="M 0 0 
L -3.5 0 
" id="madf98f150f" style="stroke:#555555;stroke-width:0.8;"/>
      </defs>
      <g>
       <use style="fill:#555555;stroke:#555555;stroke-width:0.8;" x="62.5" xlink:href="#madf98f150f" y="251.795455"/>
      </g>
     </g>
     <g id="text_7">
      <!-- 0 -->
      <g style="fill:#555555;" transform="translate(49.940625 255.365767)scale(0.1 -0.1)">
       <use xlink:href="#HelveticaNeue-48"/>
      </g>
     </g>
    </g>
    <g id="ytick_2">
     <g id="line2d_19">
      <g>
       <use style="fill:#555555;stroke:#555555;stroke-width:0.8;" x="62.5" xlink:href="#madf98f150f" y="208.805312"/>
      </g>
     </g>
     <g id="text_8">
      <!-- 50 -->
      <g style="fill:#555555;" transform="translate(44.38125 212.375625)scale(0.1 -0.1)">
       <defs>
        <path d="M 47 62.203125 
L 47 69.703125 
L 12 69.703125 
L 5.40625 32.90625 
L 12.703125 32.5 
Q 15.203125 35.5 18.453125 37.34375 
Q 21.703125 39.203125 25.90625 39.203125 
Q 29.5 39.203125 32.453125 38 
Q 35.40625 36.796875 37.5 34.640625 
Q 39.59375 32.5 40.75 29.546875 
Q 41.90625 26.59375 41.90625 23.09375 
Q 41.90625 18.90625 40.703125 15.75 
Q 39.5 12.59375 37.453125 10.5 
Q 35.40625 8.40625 32.65625 7.34375 
Q 29.90625 6.296875 26.90625 6.296875 
Q 23.703125 6.296875 21.046875 7.25 
Q 18.40625 8.203125 16.453125 9.953125 
Q 14.5 11.703125 13.34375 14.046875 
Q 12.203125 16.40625 12 19.09375 
L 3.5 19.09375 
Q 3.59375 14.296875 5.390625 10.5 
Q 7.203125 6.703125 10.296875 4.140625 
Q 13.40625 1.59375 17.453125 0.25 
Q 21.5 -1.09375 26.09375 -1.09375 
Q 32.296875 -1.09375 36.9375 0.84375 
Q 41.59375 2.796875 44.6875 6.09375 
Q 47.796875 9.40625 49.34375 13.65625 
Q 50.90625 17.90625 50.90625 22.40625 
Q 50.90625 28.5 49.09375 33.046875 
Q 47.296875 37.59375 44.1875 40.640625 
Q 41.09375 43.703125 36.890625 45.203125 
Q 32.703125 46.703125 28 46.703125 
Q 24.40625 46.703125 20.75 45.453125 
Q 17.09375 44.203125 14.796875 41.59375 
L 14.59375 41.796875 
L 18.40625 62.203125 
z
" id="HelveticaNeue-53"/>
       </defs>
       <use xlink:href="#HelveticaNeue-53"/>
       <use x="55.599991" xlink:href="#HelveticaNeue-48"/>
      </g>
     </g>
    </g>
    <g id="ytick_3">
     <g id="line2d_20">
      <g>
       <use style="fill:#555555;stroke:#555555;stroke-width:0.8;" x="62.5" xlink:href="#madf98f150f" y="165.81517"/>
      </g>
     </g>
     <g id="text_9">
      <!-- 100 -->
      <g style="fill:#555555;" transform="translate(38.821875 169.385482)scale(0.1 -0.1)">
       <use xlink:href="#HelveticaNeue-49"/>
       <use x="55.599991" xlink:href="#HelveticaNeue-48"/>
       <use x="111.199982" xlink:href="#HelveticaNeue-48"/>
      </g>
     </g>
    </g>
    <g id="ytick_4">
     <g id="line2d_21">
      <g>
       <use style="fill:#555555;stroke:#555555;stroke-width:0.8;" x="62.5" xlink:href="#madf98f150f" y="122.825027"/>
      </g>
     </g>
     <g id="text_10">
      <!-- 150 -->
      <g style="fill:#555555;" transform="translate(38.821875 126.39534)scale(0.1 -0.1)">
       <use xlink:href="#HelveticaNeue-49"/>
       <use x="55.599991" xlink:href="#HelveticaNeue-53"/>
       <use x="111.199982" xlink:href="#HelveticaNeue-48"/>
      </g>
     </g>
    </g>
    <g id="ytick_5">
     <g id="line2d_22">
      <g>
       <use style="fill:#555555;stroke:#555555;stroke-width:0.8;" x="62.5" xlink:href="#madf98f150f" y="79.834885"/>
      </g>
     </g>
     <g id="text_11">
      <!-- 200 -->
      <g style="fill:#555555;" transform="translate(38.821875 83.405197)scale(0.1 -0.1)">
       <use xlink:href="#HelveticaNeue-50"/>
       <use x="55.599991" xlink:href="#HelveticaNeue-48"/>
       <use x="111.199982" xlink:href="#HelveticaNeue-48"/>
      </g>
     </g>
    </g>
    <g id="ytick_6">
     <g id="line2d_23">
      <g>
       <use style="fill:#555555;stroke:#555555;stroke-width:0.8;" x="62.5" xlink:href="#madf98f150f" y="36.844743"/>
      </g>
     </g>
     <g id="text_12">
      <!-- 250 -->
      <g style="fill:#555555;" transform="translate(38.821875 40.415055)scale(0.1 -0.1)">
       <use xlink:href="#HelveticaNeue-50"/>
       <use x="55.599991" xlink:href="#HelveticaNeue-53"/>
       <use x="111.199982" xlink:href="#HelveticaNeue-48"/>
      </g>
     </g>
    </g>
   </g>
   <g id="line2d_24">
    <path clip-path="url(#p3ee85c1e85)" d="M 62.5 251.795455 
L 63.357301 250.935652 
L 64.214602 251.795455 
L 65.071903 250.075849 
L 65.929204 251.795455 
L 66.786504 251.795455 
L 67.643805 249.216046 
L 68.501106 251.795455 
L 69.358407 250.075849 
L 70.215708 251.795455 
L 71.073009 250.935652 
L 71.93031 250.935652 
L 72.787611 251.795455 
L 73.644912 250.935652 
L 75.359513 250.935652 
L 76.216814 244.917032 
L 77.074115 251.795455 
L 77.931416 248.356243 
L 78.788717 249.216046 
L 79.646018 251.795455 
L 80.503319 248.356243 
L 81.360619 250.935652 
L 83.075221 250.935652 
L 83.932522 249.216046 
L 84.789823 248.356243 
L 85.647124 249.216046 
L 86.504425 244.917032 
L 87.361726 249.216046 
L 89.076327 242.337623 
L 89.933628 248.356243 
L 90.790929 242.337623 
L 91.64823 246.636637 
L 92.505531 251.795455 
L 93.362832 244.057229 
L 94.220133 245.776835 
L 95.077434 244.057229 
L 95.934735 247.49644 
L 96.792035 249.216046 
L 97.649336 244.057229 
L 98.506637 241.47782 
L 99.363938 244.917032 
L 100.221239 241.47782 
L 101.07854 242.337623 
L 101.935841 241.47782 
L 102.793142 244.057229 
L 103.650442 249.216046 
L 104.507743 244.057229 
L 105.365044 247.49644 
L 106.222345 243.197426 
L 107.079646 244.057229 
L 107.936947 248.356243 
L 108.794248 250.075849 
L 109.651549 241.47782 
L 110.50885 247.49644 
L 111.36615 246.636637 
L 112.223451 234.599398 
L 113.080752 243.197426 
L 113.938053 238.038609 
L 114.795354 240.618018 
L 115.652655 227.720975 
L 116.509956 231.160186 
L 117.367257 238.038609 
L 118.224558 226.861172 
L 119.081858 225.141566 
L 119.939159 242.337623 
L 120.79646 235.4592 
L 121.653761 238.038609 
L 122.511062 234.599398 
L 123.368363 242.337623 
L 124.225664 213.964129 
L 125.082965 230.300383 
L 125.940265 158.936747 
L 126.797566 232.879792 
L 127.654867 152.918127 
L 128.512168 231.160186 
L 129.369469 229.440581 
L 130.22677 210.524918 
L 131.084071 201.926889 
L 131.941372 182.151424 
L 132.798673 222.562158 
L 133.655973 224.281763 
L 134.513274 220.842552 
L 135.370575 211.384721 
L 136.227876 232.019989 
L 137.085177 218.263143 
L 137.942478 201.926889 
L 138.799779 188.170044 
L 140.514381 198.487678 
L 141.371681 216.543538 
L 142.228982 171.83379 
L 143.086283 189.029847 
L 143.943584 167.534775 
L 144.800885 140.880887 
L 145.658186 211.384721 
L 146.515487 220.842552 
L 147.372788 175.273001 
L 148.230088 207.945509 
L 149.087389 195.908269 
L 149.94469 180.431818 
L 150.801991 224.281763 
L 151.659292 213.104326 
L 152.516593 222.562158 
L 153.373894 203.646495 
L 154.231195 180.431818 
L 155.945796 212.244524 
L 156.803097 206.225904 
L 157.660398 208.805312 
L 158.517699 212.244524 
L 159.375 195.048467 
L 160.232301 173.553395 
L 161.089602 212.244524 
L 161.946903 220.842552 
L 162.804204 223.421961 
L 163.661504 213.964129 
L 164.518805 209.665115 
L 165.376106 207.085706 
L 166.233407 191.609255 
L 167.090708 212.244524 
L 167.948009 201.067087 
L 168.80531 216.543538 
L 169.662611 220.842552 
L 170.519912 174.413198 
L 171.377212 189.88965 
L 172.234513 213.104326 
L 173.949115 231.160186 
L 174.806416 199.347481 
L 175.663717 218.263143 
L 176.521018 222.562158 
L 177.378319 217.403341 
L 178.235619 213.964129 
L 179.09292 236.319003 
L 179.950221 213.964129 
L 180.807522 219.122946 
L 181.664823 227.720975 
L 182.522124 241.47782 
L 183.379425 216.543538 
L 184.236726 207.085706 
L 185.094027 220.842552 
L 185.951327 204.506298 
L 186.808628 221.702355 
L 187.665929 216.543538 
L 188.52323 236.319003 
L 189.380531 227.720975 
L 190.237832 223.421961 
L 191.095133 229.440581 
L 191.952434 213.104326 
L 192.809735 232.879792 
L 193.667035 235.4592 
L 194.524336 228.580778 
L 195.381637 227.720975 
L 196.238938 232.879792 
L 197.096239 223.421961 
L 197.95354 224.281763 
L 198.810841 215.683735 
L 199.668142 231.160186 
L 200.525442 232.019989 
L 201.382743 215.683735 
L 202.240044 213.964129 
L 203.097345 226.001369 
L 203.954646 232.879792 
L 204.811947 217.403341 
L 205.669248 215.683735 
L 206.526549 211.384721 
L 207.38385 225.141566 
L 208.24115 220.842552 
L 209.098451 220.842552 
L 209.955752 208.805312 
L 210.813053 226.001369 
L 211.670354 214.823932 
L 212.527655 237.178806 
L 213.384956 246.636637 
L 214.242257 241.47782 
L 215.099558 234.599398 
L 215.956858 216.543538 
L 216.814159 218.263143 
L 217.67146 228.580778 
L 218.528761 235.4592 
L 219.386062 212.244524 
L 220.243363 215.683735 
L 221.100664 223.421961 
L 221.957965 223.421961 
L 222.815265 217.403341 
L 223.672566 234.599398 
L 224.529867 230.300383 
L 225.387168 214.823932 
L 226.244469 228.580778 
L 227.10177 214.823932 
L 227.959071 216.543538 
L 228.816372 219.122946 
L 229.673673 215.683735 
L 230.530973 233.739595 
L 231.388274 225.141566 
L 232.245575 224.281763 
L 233.102876 195.048467 
L 233.960177 226.001369 
L 234.817478 218.263143 
L 235.674779 230.300383 
L 236.53208 224.281763 
L 237.389381 227.720975 
L 238.246681 227.720975 
L 239.961283 217.403341 
L 240.818584 230.300383 
L 241.675885 226.001369 
L 242.533186 242.337623 
L 243.390487 217.403341 
L 244.247788 210.524918 
L 245.105088 221.702355 
L 245.962389 213.104326 
L 246.81969 227.720975 
L 247.676991 226.861172 
L 248.534292 224.281763 
L 249.391593 222.562158 
L 250.248894 201.926889 
L 251.106195 216.543538 
L 251.963496 208.805312 
L 252.820796 199.347481 
L 253.678097 215.683735 
L 254.535398 229.440581 
L 255.392699 228.580778 
L 257.107301 203.646495 
L 257.964602 213.964129 
L 258.821903 190.749452 
L 259.679204 211.384721 
L 260.536504 214.823932 
L 261.393805 208.805312 
L 262.251106 224.281763 
L 263.108407 204.506298 
L 263.965708 207.945509 
L 264.823009 206.225904 
L 265.68031 189.88965 
L 266.537611 215.683735 
L 267.394912 211.384721 
L 268.252212 191.609255 
L 269.109513 164.955367 
L 269.966814 183.87103 
L 270.824115 178.712212 
L 271.681416 198.487678 
L 272.538717 211.384721 
L 273.396018 177.85241 
L 274.253319 168.394578 
L 275.110619 176.132804 
L 275.96792 170.114184 
L 276.825221 229.440581 
L 277.682522 205.366101 
L 278.539823 188.170044 
L 279.397124 184.730832 
L 280.254425 180.431818 
L 281.111726 154.637733 
L 281.969027 195.908269 
L 282.826327 225.141566 
L 283.683628 196.768072 
L 284.540929 181.291621 
L 285.39823 211.384721 
L 286.255531 170.114184 
L 287.112832 164.955367 
L 287.970133 147.75931 
L 288.827434 146.899507 
L 289.684735 195.908269 
L 290.542035 222.562158 
L 291.399336 220.842552 
L 292.256637 127.983844 
L 293.971239 182.151424 
L 294.82854 183.87103 
L 295.685841 166.674973 
L 296.543142 153.77793 
L 297.400442 183.011227 
L 298.257743 150.338719 
L 299.115044 171.83379 
L 299.972345 158.076944 
L 300.829646 187.310241 
L 301.686947 178.712212 
L 302.544248 213.964129 
L 303.401549 162.375958 
L 304.25885 195.048467 
L 305.11615 195.048467 
L 305.973451 189.88965 
L 307.688053 220.842552 
L 308.545354 178.712212 
L 309.402655 212.244524 
L 310.259956 219.122946 
L 311.117257 206.225904 
L 311.974558 213.104326 
L 312.831858 210.524918 
L 313.689159 228.580778 
L 314.54646 233.739595 
L 315.403761 219.122946 
L 316.261062 225.141566 
L 317.118363 222.562158 
L 317.975664 227.720975 
L 318.832965 231.160186 
L 319.690265 221.702355 
L 320.547566 220.842552 
L 321.404867 234.599398 
L 322.262168 224.281763 
L 323.119469 237.178806 
L 323.97677 226.861172 
L 324.834071 223.421961 
L 325.691372 235.4592 
L 326.548673 240.618018 
L 327.405973 236.319003 
L 328.263274 236.319003 
L 329.120575 232.019989 
L 329.977876 236.319003 
L 330.835177 238.038609 
L 331.692478 237.178806 
L 332.549779 242.337623 
L 333.40708 242.337623 
L 334.264381 238.038609 
L 335.121681 238.038609 
L 335.978982 241.47782 
L 336.836283 236.319003 
L 337.693584 244.917032 
L 338.550885 239.758215 
L 339.408186 243.197426 
L 340.265487 245.776835 
L 341.122788 243.197426 
L 341.980088 242.337623 
L 342.837389 231.160186 
L 343.69469 238.898412 
L 344.551991 237.178806 
L 345.409292 239.758215 
L 346.266593 238.038609 
L 347.123894 235.4592 
L 347.981195 232.019989 
L 348.838496 236.319003 
L 349.695796 238.038609 
L 351.410398 243.197426 
L 352.267699 238.898412 
L 353.125 238.038609 
L 353.982301 230.300383 
L 354.839602 219.122946 
L 355.696903 225.141566 
L 356.554204 234.599398 
L 357.411504 238.038609 
L 358.268805 223.421961 
L 359.126106 219.122946 
L 359.983407 230.300383 
L 360.840708 227.720975 
L 361.698009 222.562158 
L 362.55531 232.019989 
L 363.412611 215.683735 
L 364.269912 189.88965 
L 365.127212 217.403341 
L 365.984513 208.805312 
L 366.841814 192.469058 
L 367.699115 211.384721 
L 368.556416 212.244524 
L 370.271018 168.394578 
L 371.128319 176.132804 
L 372.84292 177.85241 
L 373.700221 201.926889 
L 374.557522 205.366101 
L 375.414823 186.450438 
L 376.272124 172.693593 
L 377.129425 165.81517 
L 377.986726 164.955367 
L 378.844027 176.992607 
L 379.701327 178.712212 
L 380.558628 213.104326 
L 381.415929 177.85241 
L 382.27323 157.217141 
L 383.130531 198.487678 
L 383.987832 187.310241 
L 384.845133 179.572015 
L 385.702434 206.225904 
L 386.559735 188.170044 
L 387.417035 162.375958 
L 388.274336 166.674973 
L 389.131637 206.225904 
L 389.988938 140.880887 
L 390.846239 172.693593 
L 391.70354 175.273001 
L 392.560841 190.749452 
L 393.418142 159.79655 
L 394.275442 170.973987 
L 395.132743 167.534775 
L 395.990044 148.619113 
L 396.847345 185.590635 
L 397.704646 175.273001 
L 398.561947 202.786692 
L 399.419248 171.83379 
L 400.276549 173.553395 
L 401.13385 181.291621 
L 401.99115 170.973987 
L 402.848451 149.478916 
L 403.705752 123.68483 
L 404.563053 172.693593 
L 405.420354 146.039704 
L 406.277655 99.61035 
L 407.134956 157.217141 
L 407.992257 78.115279 
L 408.849558 123.68483 
L 409.706858 143.460296 
L 410.564159 153.77793 
L 411.42146 151.198521 
L 412.278761 103.909365 
L 413.136062 108.208379 
L 413.993363 120.245619 
L 414.850664 99.61035 
L 415.707965 121.105422 
L 416.565265 181.291621 
L 417.422566 181.291621 
L 418.279867 158.076944 
L 419.137168 156.357338 
L 419.994469 195.908269 
L 420.85177 137.441676 
L 421.709071 161.516156 
L 422.566372 193.328861 
L 423.423673 208.805312 
L 424.280973 152.058324 
L 425.138274 37.704545 
L 425.995575 170.973987 
L 426.852876 127.124042 
L 427.710177 184.730832 
L 428.567478 140.880887 
L 429.424779 140.021084 
L 430.28208 91.872125 
L 431.139381 141.74069 
L 431.996681 171.83379 
L 432.853982 147.75931 
L 433.711283 142.600493 
L 434.568584 170.114184 
L 435.425885 116.806407 
L 436.283186 100.470153 
L 437.140487 139.161281 
L 437.997788 135.72207 
L 438.855088 189.88965 
L 439.712389 134.862267 
L 440.56969 154.637733 
L 441.426991 154.637733 
L 442.284292 176.132804 
L 443.141593 149.478916 
L 443.998894 196.768072 
L 444.856195 164.955367 
L 445.713496 187.310241 
L 446.570796 195.908269 
L 447.428097 178.712212 
L 448.285398 197.627875 
L 449.142699 209.665115 
L 450 231.160186 
L 450 231.160186 
" style="fill:none;stroke:#000000;stroke-dasharray:1.5,2.475;stroke-dashoffset:0;stroke-opacity:0.5;stroke-width:1.5;"/>
   </g>
   <g id="line2d_25">
    <path clip-path="url(#p3ee85c1e85)" d="M 62.5 250.935652 
L 72.787611 250.935652 
L 73.644912 250.075849 
L 75.359513 250.075849 
L 76.216814 249.216046 
L 78.788717 249.216046 
L 79.646018 250.075849 
L 83.075221 250.075849 
L 83.932522 249.216046 
L 84.789823 249.216046 
L 88.219027 245.776835 
L 89.076327 245.776835 
L 89.933628 246.636637 
L 90.790929 245.776835 
L 91.64823 245.776835 
L 92.505531 246.636637 
L 93.362832 245.776835 
L 94.220133 246.636637 
L 95.077434 246.636637 
L 95.934735 245.776835 
L 96.792035 245.776835 
L 100.221239 242.337623 
L 101.935841 244.057229 
L 102.793142 244.057229 
L 103.650442 244.917032 
L 104.507743 244.917032 
L 106.222345 246.636637 
L 107.079646 245.776835 
L 108.794248 245.776835 
L 109.651549 244.917032 
L 110.50885 244.917032 
L 113.080752 239.758215 
L 113.938053 237.178806 
L 114.795354 236.319003 
L 116.509956 232.879792 
L 117.367257 232.879792 
L 118.224558 232.019989 
L 119.081858 233.739595 
L 120.79646 235.4592 
L 122.511062 233.739595 
L 123.368363 224.281763 
L 124.225664 220.842552 
L 125.082965 209.665115 
L 125.940265 206.225904 
L 126.797566 204.506298 
L 127.654867 205.366101 
L 128.512168 204.506298 
L 129.369469 207.085706 
L 130.22677 206.225904 
L 131.084071 212.244524 
L 132.798673 210.524918 
L 134.513274 217.403341 
L 135.370575 219.122946 
L 137.942478 206.225904 
L 138.799779 204.506298 
L 139.65708 198.487678 
L 140.514381 195.048467 
L 141.371681 190.749452 
L 142.228982 183.87103 
L 143.086283 183.011227 
L 143.943584 184.730832 
L 144.800885 182.151424 
L 145.658186 187.310241 
L 146.515487 190.749452 
L 147.372788 193.328861 
L 148.230088 200.207284 
L 149.087389 201.067087 
L 149.94469 202.786692 
L 150.801991 207.085706 
L 151.659292 205.366101 
L 152.516593 205.366101 
L 153.373894 206.225904 
L 154.231195 203.646495 
L 155.088496 202.786692 
L 155.945796 202.786692 
L 156.803097 203.646495 
L 157.660398 202.786692 
L 159.375 202.786692 
L 161.946903 207.945509 
L 162.804204 210.524918 
L 163.661504 212.244524 
L 164.518805 210.524918 
L 165.376106 207.945509 
L 166.233407 206.225904 
L 167.090708 207.085706 
L 167.948009 204.506298 
L 168.80531 202.786692 
L 169.662611 203.646495 
L 170.519912 203.646495 
L 171.377212 207.085706 
L 172.234513 207.085706 
L 173.091814 208.805312 
L 173.949115 214.823932 
L 174.806416 217.403341 
L 175.663717 217.403341 
L 176.521018 219.122946 
L 177.378319 218.263143 
L 178.235619 220.842552 
L 179.09292 221.702355 
L 179.950221 223.421961 
L 180.807522 224.281763 
L 181.664823 223.421961 
L 183.379425 219.982749 
L 184.236726 219.122946 
L 185.094027 217.403341 
L 185.951327 216.543538 
L 187.665929 221.702355 
L 189.380531 225.141566 
L 190.237832 226.001369 
L 191.095133 227.720975 
L 191.952434 226.861172 
L 193.667035 228.580778 
L 194.524336 228.580778 
L 195.381637 229.440581 
L 196.238938 226.861172 
L 197.096239 226.001369 
L 197.95354 226.001369 
L 198.810841 225.141566 
L 199.668142 222.562158 
L 200.525442 222.562158 
L 201.382743 223.421961 
L 202.240044 223.421961 
L 203.954646 219.982749 
L 204.811947 220.842552 
L 205.669248 220.842552 
L 206.526549 219.982749 
L 207.38385 217.403341 
L 208.24115 218.263143 
L 209.098451 218.263143 
L 210.813053 223.421961 
L 211.670354 227.720975 
L 212.527655 231.160186 
L 213.384956 232.879792 
L 214.242257 232.019989 
L 215.099558 232.019989 
L 215.956858 230.300383 
L 216.814159 226.001369 
L 217.67146 223.421961 
L 218.528761 221.702355 
L 219.386062 222.562158 
L 220.243363 221.702355 
L 221.100664 222.562158 
L 221.957965 222.562158 
L 222.815265 223.421961 
L 223.672566 225.141566 
L 224.529867 224.281763 
L 225.387168 222.562158 
L 226.244469 222.562158 
L 227.10177 219.982749 
L 227.959071 219.982749 
L 229.673673 221.702355 
L 230.530973 219.982749 
L 233.960177 219.982749 
L 234.817478 220.842552 
L 235.674779 222.562158 
L 236.53208 225.141566 
L 237.389381 224.281763 
L 238.246681 225.141566 
L 239.103982 225.141566 
L 239.961283 226.861172 
L 243.390487 223.421961 
L 244.247788 221.702355 
L 245.105088 221.702355 
L 245.962389 219.982749 
L 246.81969 221.702355 
L 248.534292 219.982749 
L 249.391593 218.263143 
L 250.248894 213.964129 
L 251.106195 212.244524 
L 251.963496 212.244524 
L 252.820796 213.964129 
L 253.678097 216.543538 
L 254.535398 215.683735 
L 255.392699 216.543538 
L 257.107301 213.104326 
L 257.964602 209.665115 
L 258.821903 207.945509 
L 262.251106 211.384721 
L 263.108407 208.805312 
L 264.823009 207.085706 
L 265.68031 204.506298 
L 266.537611 199.347481 
L 267.394912 195.908269 
L 268.252212 191.609255 
L 269.109513 189.88965 
L 269.966814 189.029847 
L 270.824115 186.450438 
L 271.681416 185.590635 
L 272.538717 186.450438 
L 273.396018 183.87103 
L 274.253319 187.310241 
L 275.110619 188.170044 
L 275.96792 188.170044 
L 277.682522 193.328861 
L 278.539823 189.88965 
L 279.397124 189.029847 
L 280.254425 187.310241 
L 281.969027 189.029847 
L 282.826327 193.328861 
L 284.540929 193.328861 
L 285.39823 185.590635 
L 286.255531 175.273001 
L 287.112832 171.83379 
L 288.827434 178.712212 
L 290.542035 178.712212 
L 291.399336 181.291621 
L 292.256637 182.151424 
L 293.113938 176.992607 
L 293.971239 169.254381 
L 294.82854 166.674973 
L 295.685841 169.254381 
L 296.543142 169.254381 
L 297.400442 166.674973 
L 298.257743 166.674973 
L 299.115044 168.394578 
L 299.972345 175.273001 
L 300.829646 176.132804 
L 301.686947 182.151424 
L 303.401549 189.029847 
L 304.25885 190.749452 
L 305.11615 195.908269 
L 305.973451 194.188664 
L 306.830752 200.207284 
L 307.688053 202.786692 
L 308.545354 204.506298 
L 309.402655 207.945509 
L 310.259956 208.805312 
L 311.117257 210.524918 
L 311.974558 216.543538 
L 313.689159 219.982749 
L 314.54646 222.562158 
L 316.261062 226.001369 
L 317.118363 226.001369 
L 317.975664 224.281763 
L 318.832965 226.001369 
L 319.690265 226.001369 
L 320.547566 227.720975 
L 322.262168 227.720975 
L 323.97677 231.160186 
L 324.834071 232.019989 
L 325.691372 233.739595 
L 326.548673 233.739595 
L 327.405973 234.599398 
L 328.263274 236.319003 
L 329.977876 236.319003 
L 330.835177 238.038609 
L 331.692478 238.038609 
L 333.40708 239.758215 
L 335.978982 239.758215 
L 338.550885 242.337623 
L 340.265487 242.337623 
L 341.122788 240.618018 
L 345.409292 236.319003 
L 346.266593 237.178806 
L 347.123894 236.319003 
L 347.981195 236.319003 
L 350.553097 238.898412 
L 351.410398 238.898412 
L 353.125 233.739595 
L 353.982301 232.019989 
L 354.839602 231.160186 
L 356.554204 227.720975 
L 357.411504 227.720975 
L 358.268805 228.580778 
L 359.983407 226.861172 
L 360.840708 225.141566 
L 361.698009 220.842552 
L 362.55531 219.122946 
L 363.412611 215.683735 
L 364.269912 211.384721 
L 365.984513 206.225904 
L 366.841814 204.506298 
L 367.699115 201.067087 
L 368.556416 195.048467 
L 369.413717 189.88965 
L 370.271018 186.450438 
L 371.128319 183.87103 
L 371.985619 183.87103 
L 373.700221 187.310241 
L 374.557522 185.590635 
L 375.414823 183.011227 
L 376.272124 181.291621 
L 377.129425 176.992607 
L 378.844027 178.712212 
L 379.701327 178.712212 
L 380.558628 182.151424 
L 381.415929 183.87103 
L 382.27323 183.87103 
L 383.130531 186.450438 
L 384.845133 184.730832 
L 386.559735 184.730832 
L 387.417035 179.572015 
L 388.274336 176.992607 
L 389.131637 172.693593 
L 390.846239 172.693593 
L 391.70354 173.553395 
L 392.560841 170.114184 
L 395.132743 170.114184 
L 395.990044 171.83379 
L 396.847345 174.413198 
L 397.704646 176.132804 
L 398.561947 178.712212 
L 399.419248 180.431818 
L 400.276549 176.132804 
L 401.13385 168.394578 
L 401.99115 163.235761 
L 402.848451 158.936747 
L 403.705752 149.478916 
L 404.563053 145.179901 
L 405.420354 134.002464 
L 406.277655 128.843647 
L 407.134956 128.843647 
L 407.992257 126.264239 
L 409.706858 131.423056 
L 410.564159 127.124042 
L 411.42146 130.563253 
L 413.136062 120.245619 
L 413.993363 122.825027 
L 414.850664 127.983844 
L 417.422566 158.076944 
L 418.279867 164.095564 
L 419.137168 167.534775 
L 419.994469 167.534775 
L 420.85177 170.973987 
L 421.709071 172.693593 
L 422.566372 160.656353 
L 423.423673 154.637733 
L 424.280973 149.478916 
L 425.138274 147.75931 
L 425.995575 141.74069 
L 426.852876 137.441676 
L 427.710177 134.002464 
L 428.567478 142.600493 
L 429.424779 140.880887 
L 430.28208 141.74069 
L 431.139381 139.161281 
L 431.996681 144.320099 
L 433.711283 144.320099 
L 434.568584 140.880887 
L 435.425885 134.862267 
L 436.283186 138.301479 
L 437.997788 140.021084 
L 439.712389 154.637733 
L 440.56969 156.357338 
L 441.426991 163.235761 
L 442.284292 162.375958 
L 443.998894 175.273001 
L 445.713496 182.151424 
L 446.570796 189.029847 
L 447.428097 194.188664 
L 448.285398 200.207284 
L 449.142699 203.646495 
L 450 207.945509 
L 450 207.945509 
" style="fill:none;stroke:#b3220f;stroke-linecap:square;stroke-width:1.5;"/>
   </g>
   <g id="patch_3">
    <path d="M 62.5 262.5 
L 62.5 27 
" style="fill:none;stroke:#555555;stroke-linecap:square;stroke-linejoin:miter;"/>
   </g>
   <g id="patch_4">
    <path d="M 62.5 262.5 
L 450 262.5 
" style="fill:none;stroke:#555555;stroke-linecap:square;stroke-linejoin:miter;"/>
   </g>
   <g id="text_13">
    <!-- Santa Fe | Casos nuevos: 2021-07-15 -->
    <g style="fill:#555555;" transform="translate(138.120625 17)scale(0.14 -0.14)">
     <defs>
      <path d="M 49.09375 50.5 
L 58.09375 50.5 
Q 57.90625 56.40625 55.84375 60.65625 
Q 53.796875 64.90625 50.25 67.703125 
Q 46.703125 70.5 42 71.796875 
Q 37.296875 73.09375 31.796875 73.09375 
Q 26.90625 73.09375 22.25 71.84375 
Q 17.59375 70.59375 13.9375 68.046875 
Q 10.296875 65.5 8.09375 61.546875 
Q 5.90625 57.59375 5.90625 52.203125 
Q 5.90625 47.296875 7.84375 44.046875 
Q 9.796875 40.796875 13.046875 38.75 
Q 16.296875 36.703125 20.390625 35.453125 
Q 24.5 34.203125 28.75 33.25 
Q 33 32.296875 37.09375 31.390625 
Q 41.203125 30.5 44.453125 29.046875 
Q 47.703125 27.59375 49.640625 25.296875 
Q 51.59375 23 51.59375 19.296875 
Q 51.59375 15.40625 50 12.90625 
Q 48.40625 10.40625 45.796875 8.953125 
Q 43.203125 7.5 39.953125 6.890625 
Q 36.703125 6.296875 33.5 6.296875 
Q 29.5 6.296875 25.703125 7.296875 
Q 21.90625 8.296875 19.046875 10.390625 
Q 16.203125 12.5 14.453125 15.75 
Q 12.703125 19 12.703125 23.5 
L 3.703125 23.5 
Q 3.703125 17 6.046875 12.25 
Q 8.40625 7.5 12.453125 4.453125 
Q 16.5 1.40625 21.84375 -0.09375 
Q 27.203125 -1.59375 33.203125 -1.59375 
Q 38.09375 -1.59375 43.046875 -0.4375 
Q 48 0.703125 52 3.25 
Q 56 5.796875 58.546875 9.84375 
Q 61.09375 13.90625 61.09375 19.59375 
Q 61.09375 24.90625 59.140625 28.40625 
Q 57.203125 31.90625 53.953125 34.203125 
Q 50.703125 36.5 46.59375 37.84375 
Q 42.5 39.203125 38.25 40.203125 
Q 34 41.203125 29.890625 42.046875 
Q 25.796875 42.90625 22.546875 44.203125 
Q 19.296875 45.5 17.34375 47.546875 
Q 15.40625 49.59375 15.40625 52.90625 
Q 15.40625 56.40625 16.75 58.75 
Q 18.09375 61.09375 20.34375 62.5 
Q 22.59375 63.90625 25.5 64.5 
Q 28.40625 65.09375 31.40625 65.09375 
Q 38.796875 65.09375 43.546875 61.640625 
Q 48.296875 58.203125 49.09375 50.5 
z
" id="HelveticaNeue-83"/>
      <path id="HelveticaNeue-32"/>
      <path d="M 7.796875 71.40625 
L 7.796875 0 
L 17.296875 0 
L 17.296875 32.703125 
L 50.09375 32.703125 
L 50.09375 40.703125 
L 17.296875 40.703125 
L 17.296875 63.40625 
L 54.703125 63.40625 
L 54.703125 71.40625 
z
" id="HelveticaNeue-70"/>
      <path d="M 7.703125 78.59375 
L 7.703125 -21.296875 
L 14.5 -21.296875 
L 14.5 78.59375 
z
" id="HelveticaNeue-124"/>
      <path d="M 58 49.90625 
L 67.5 49.90625 
Q 66.703125 55.59375 64.09375 59.9375 
Q 61.5 64.296875 57.59375 67.1875 
Q 53.703125 70.09375 48.703125 71.59375 
Q 43.703125 73.09375 38.09375 73.09375 
Q 29.90625 73.09375 23.546875 70.140625 
Q 17.203125 67.203125 12.953125 62.09375 
Q 8.703125 57 6.5 50.140625 
Q 4.296875 43.296875 4.296875 35.5 
Q 4.296875 27.703125 6.34375 20.890625 
Q 8.40625 14.09375 12.5 9.09375 
Q 16.59375 4.09375 22.796875 1.25 
Q 29 -1.59375 37.296875 -1.59375 
Q 51 -1.59375 58.890625 5.90625 
Q 66.796875 13.40625 68.203125 26.90625 
L 58.703125 26.90625 
Q 58.40625 22.5 56.90625 18.703125 
Q 55.40625 14.90625 52.75 12.15625 
Q 50.09375 9.40625 46.4375 7.84375 
Q 42.796875 6.296875 38.09375 6.296875 
Q 31.703125 6.296875 27.09375 8.6875 
Q 22.5 11.09375 19.546875 15.140625 
Q 16.59375 19.203125 15.1875 24.640625 
Q 13.796875 30.09375 13.796875 36.203125 
Q 13.796875 41.796875 15.1875 47 
Q 16.59375 52.203125 19.546875 56.25 
Q 22.5 60.296875 27.046875 62.6875 
Q 31.59375 65.09375 38 65.09375 
Q 45.5 65.09375 50.953125 61.296875 
Q 56.40625 57.5 58 49.90625 
z
" id="HelveticaNeue-67"/>
      <path d="M 11.59375 16.296875 
L 3.09375 16.296875 
Q 3.296875 11.5 5.09375 8.140625 
Q 6.90625 4.796875 9.90625 2.75 
Q 12.90625 0.703125 16.796875 -0.1875 
Q 20.703125 -1.09375 25 -1.09375 
Q 28.90625 -1.09375 32.84375 -0.34375 
Q 36.796875 0.40625 39.9375 2.296875 
Q 43.09375 4.203125 45.046875 7.296875 
Q 47 10.40625 47 15.09375 
Q 47 18.796875 45.546875 21.296875 
Q 44.09375 23.796875 41.75 25.4375 
Q 39.40625 27.09375 36.34375 28.09375 
Q 33.296875 29.09375 30.09375 29.796875 
Q 27.09375 30.5 24.09375 31.140625 
Q 21.09375 31.796875 18.6875 32.75 
Q 16.296875 33.703125 14.75 35.140625 
Q 13.203125 36.59375 13.203125 38.796875 
Q 13.203125 40.796875 14.203125 42.046875 
Q 15.203125 43.296875 16.796875 44.046875 
Q 18.40625 44.796875 20.34375 45.09375 
Q 22.296875 45.40625 24.203125 45.40625 
Q 26.296875 45.40625 28.34375 44.953125 
Q 30.40625 44.5 32.09375 43.5 
Q 33.796875 42.5 34.890625 40.84375 
Q 36 39.203125 36.203125 36.703125 
L 44.703125 36.703125 
Q 44.40625 41.40625 42.703125 44.546875 
Q 41 47.703125 38.140625 49.546875 
Q 35.296875 51.40625 31.59375 52.15625 
Q 27.90625 52.90625 23.5 52.90625 
Q 20.09375 52.90625 16.640625 52.046875 
Q 13.203125 51.203125 10.453125 49.453125 
Q 7.703125 47.703125 5.953125 44.890625 
Q 4.203125 42.09375 4.203125 38.203125 
Q 4.203125 33.203125 6.703125 30.390625 
Q 9.203125 27.59375 12.953125 26.046875 
Q 16.703125 24.5 21.09375 23.640625 
Q 25.5 22.796875 29.25 21.75 
Q 33 20.703125 35.5 19 
Q 38 17.296875 38 14 
Q 38 11.59375 36.796875 10.046875 
Q 35.59375 8.5 33.75 7.703125 
Q 31.90625 6.90625 29.703125 6.59375 
Q 27.5 6.296875 25.5 6.296875 
Q 22.90625 6.296875 20.453125 6.796875 
Q 18 7.296875 16.046875 8.4375 
Q 14.09375 9.59375 12.890625 11.546875 
Q 11.703125 13.5 11.59375 16.296875 
z
" id="HelveticaNeue-115"/>
      <path d="M 12.59375 25.796875 
Q 12.59375 30.5 13.84375 34.140625 
Q 15.09375 37.796875 17.296875 40.296875 
Q 19.5 42.796875 22.453125 44.09375 
Q 25.40625 45.40625 28.703125 45.40625 
Q 32 45.40625 34.953125 44.09375 
Q 37.90625 42.796875 40.09375 40.296875 
Q 42.296875 37.796875 43.546875 34.140625 
Q 44.796875 30.5 44.796875 25.796875 
Q 44.796875 21.09375 43.546875 17.4375 
Q 42.296875 13.796875 40.09375 11.34375 
Q 37.90625 8.90625 34.953125 7.59375 
Q 32 6.296875 28.703125 6.296875 
Q 25.40625 6.296875 22.453125 7.59375 
Q 19.5 8.90625 17.296875 11.34375 
Q 15.09375 13.796875 13.84375 17.4375 
Q 12.59375 21.09375 12.59375 25.796875 
z
M 3.59375 25.796875 
Q 3.59375 20.09375 5.1875 15.1875 
Q 6.796875 10.296875 10 6.640625 
Q 13.203125 3 17.890625 0.953125 
Q 22.59375 -1.09375 28.703125 -1.09375 
Q 34.90625 -1.09375 39.546875 0.953125 
Q 44.203125 3 47.390625 6.640625 
Q 50.59375 10.296875 52.1875 15.1875 
Q 53.796875 20.09375 53.796875 25.796875 
Q 53.796875 31.5 52.1875 36.453125 
Q 50.59375 41.40625 47.390625 45.046875 
Q 44.203125 48.703125 39.546875 50.796875 
Q 34.90625 52.90625 28.703125 52.90625 
Q 22.59375 52.90625 17.890625 50.796875 
Q 13.203125 48.703125 10 45.046875 
Q 6.796875 41.40625 5.1875 36.453125 
Q 3.59375 31.5 3.59375 25.796875 
z
" id="HelveticaNeue-111"/>
      <path d="M 29.703125 0 
L 48.59375 51.703125 
L 39.703125 51.703125 
L 25.59375 8.59375 
L 25.40625 8.59375 
L 10.90625 51.703125 
L 1.40625 51.703125 
L 20.59375 0 
z
" id="HelveticaNeue-118"/>
      <path d="M 19.40625 40.59375 
L 19.40625 51.703125 
L 8.296875 51.703125 
L 8.296875 40.59375 
z
M 8.296875 11.09375 
L 8.296875 0 
L 19.40625 0 
L 19.40625 11.09375 
z
" id="HelveticaNeue-58"/>
      <path d="M 5 31.796875 
L 5 23.796875 
L 33.90625 23.796875 
L 33.90625 31.796875 
z
" id="HelveticaNeue-45"/>
      <path d="M 50.90625 62.40625 
L 50.90625 69.703125 
L 5 69.703125 
L 5 61.703125 
L 42.203125 61.703125 
Q 36.59375 55.796875 31.75 48.796875 
Q 26.90625 41.796875 23.203125 33.9375 
Q 19.5 26.09375 17.140625 17.546875 
Q 14.796875 9 14.203125 0 
L 23.703125 0 
Q 24.203125 8.296875 26.5 17.09375 
Q 28.796875 25.90625 32.4375 34.203125 
Q 36.09375 42.5 40.796875 49.796875 
Q 45.5 57.09375 50.90625 62.40625 
z
" id="HelveticaNeue-55"/>
     </defs>
     <use xlink:href="#HelveticaNeue-83"/>
     <use x="64.799988" xlink:href="#HelveticaNeue-97"/>
     <use x="118.499985" xlink:href="#HelveticaNeue-110"/>
     <use x="174.099976" xlink:href="#HelveticaNeue-116"/>
     <use x="205.59996" xlink:href="#HelveticaNeue-97"/>
     <use x="259.299957" xlink:href="#HelveticaNeue-32"/>
     <use x="287.099945" xlink:href="#HelveticaNeue-70"/>
     <use x="344.499939" xlink:href="#HelveticaNeue-101"/>
     <use x="398.199936" xlink:href="#HelveticaNeue-32"/>
     <use x="425.999924" xlink:href="#HelveticaNeue-124"/>
     <use x="448.199921" xlink:href="#HelveticaNeue-32"/>
     <use x="475.999908" xlink:href="#HelveticaNeue-67"/>
     <use x="548.19989" xlink:href="#HelveticaNeue-97"/>
     <use x="601.899887" xlink:href="#HelveticaNeue-115"/>
     <use x="651.899872" xlink:href="#HelveticaNeue-111"/>
     <use x="709.299866" xlink:href="#HelveticaNeue-115"/>
     <use x="759.29985" xlink:href="#HelveticaNeue-32"/>
     <use x="787.099838" xlink:href="#HelveticaNeue-110"/>
     <use x="842.699829" xlink:href="#HelveticaNeue-117"/>
     <use x="898.29982" xlink:href="#HelveticaNeue-101"/>
     <use x="951.999817" xlink:href="#HelveticaNeue-118"/>
     <use x="1001.999802" xlink:href="#HelveticaNeue-111"/>
     <use x="1059.399796" xlink:href="#HelveticaNeue-115"/>
     <use x="1109.39978" xlink:href="#HelveticaNeue-58"/>
     <use x="1137.199768" xlink:href="#HelveticaNeue-32"/>
     <use x="1164.999756" xlink:href="#HelveticaNeue-50"/>
     <use x="1220.599747" xlink:href="#HelveticaNeue-48"/>
     <use x="1276.199738" xlink:href="#HelveticaNeue-50"/>
     <use x="1331.799728" xlink:href="#HelveticaNeue-49"/>
     <use x="1387.399719" xlink:href="#HelveticaNeue-45"/>
     <use x="1426.299713" xlink:href="#HelveticaNeue-48"/>
     <use x="1481.899704" xlink:href="#HelveticaNeue-55"/>
     <use x="1537.499695" xlink:href="#HelveticaNeue-45"/>
     <use x="1576.399689" xlink:href="#HelveticaNeue-49"/>
     <use x="1631.99968" xlink:href="#HelveticaNeue-53"/>
    </g>
   </g>
   <g id="legend_1">
    <g id="line2d_26">
     <path d="M 71.5 39.640625 
L 91.5 39.640625 
" style="fill:none;stroke:#000000;stroke-dasharray:1.5,2.475;stroke-dashoffset:0;stroke-opacity:0.5;stroke-width:1.5;"/>
    </g>
    <g id="line2d_27"/>
    <g id="text_14">
     <!-- Actual -->
     <g style="fill:#555555;" transform="translate(99.5 43.140625)scale(0.1 -0.1)">
      <use xlink:href="#HelveticaNeue-65"/>
      <use x="64.799988" xlink:href="#HelveticaNeue-99"/>
      <use x="118.499985" xlink:href="#HelveticaNeue-116"/>
      <use x="149.999969" xlink:href="#HelveticaNeue-117"/>
      <use x="205.59996" xlink:href="#HelveticaNeue-97"/>
      <use x="259.299957" xlink:href="#HelveticaNeue-108"/>
     </g>
    </g>
    <g id="line2d_28">
     <path d="M 71.5 54.310937 
L 91.5 54.310937 
" style="fill:none;stroke:#b3220f;stroke-linecap:square;stroke-width:1.5;"/>
    </g>
    <g id="line2d_29"/>
    <g id="text_15">
     <!-- Promedio semanal (7 das)  -->
     <g style="fill:#555555;" transform="translate(99.5 57.810937)scale(0.1 -0.1)">
      <defs>
       <path d="M 17.296875 37.203125 
L 17.296875 63.40625 
L 35.90625 63.40625 
Q 44 63.40625 47.75 60.046875 
Q 51.5 56.703125 51.5 50.296875 
Q 51.5 43.90625 47.75 40.5 
Q 44 37.09375 35.90625 37.203125 
z
M 7.796875 71.40625 
L 7.796875 0 
L 17.296875 0 
L 17.296875 29.203125 
L 39.09375 29.203125 
Q 49.90625 29.09375 55.453125 34.6875 
Q 61 40.296875 61 50.296875 
Q 61 60.296875 55.453125 65.84375 
Q 49.90625 71.40625 39.09375 71.40625 
z
" id="HelveticaNeue-80"/>
       <path d="M 6.40625 51.703125 
L 6.40625 0 
L 14.90625 0 
L 14.90625 32.203125 
Q 14.90625 33.703125 15.65625 35.953125 
Q 16.40625 38.203125 18.046875 40.296875 
Q 19.703125 42.40625 22.34375 43.90625 
Q 25 45.40625 28.703125 45.40625 
Q 31.59375 45.40625 33.4375 44.546875 
Q 35.296875 43.703125 36.390625 42.140625 
Q 37.5 40.59375 37.953125 38.5 
Q 38.40625 36.40625 38.40625 33.90625 
L 38.40625 0 
L 46.90625 0 
L 46.90625 32.203125 
Q 46.90625 38.203125 50.5 41.796875 
Q 54.09375 45.40625 60.40625 45.40625 
Q 63.5 45.40625 65.453125 44.5 
Q 67.40625 43.59375 68.5 42.046875 
Q 69.59375 40.5 70 38.390625 
Q 70.40625 36.296875 70.40625 33.90625 
L 70.40625 0 
L 78.90625 0 
L 78.90625 37.90625 
Q 78.90625 41.90625 77.65625 44.75 
Q 76.40625 47.59375 74.15625 49.390625 
Q 71.90625 51.203125 68.75 52.046875 
Q 65.59375 52.90625 61.703125 52.90625 
Q 56.59375 52.90625 52.34375 50.59375 
Q 48.09375 48.296875 45.5 44.09375 
Q 43.90625 48.90625 40 50.90625 
Q 36.09375 52.90625 31.296875 52.90625 
Q 20.40625 52.90625 14.59375 44.09375 
L 14.40625 44.09375 
L 14.40625 51.703125 
z
" id="HelveticaNeue-109"/>
       <path d="M 12.59375 25.40625 
Q 12.59375 29.203125 13.390625 32.796875 
Q 14.203125 36.40625 16 39.203125 
Q 17.796875 42 20.796875 43.703125 
Q 23.796875 45.40625 28.09375 45.40625 
Q 32.5 45.40625 35.59375 43.75 
Q 38.703125 42.09375 40.640625 39.390625 
Q 42.59375 36.703125 43.5 33.140625 
Q 44.40625 29.59375 44.40625 25.796875 
Q 44.40625 22.203125 43.546875 18.703125 
Q 42.703125 15.203125 40.796875 12.453125 
Q 38.90625 9.703125 35.90625 8 
Q 32.90625 6.296875 28.59375 6.296875 
Q 24.5 6.296875 21.453125 7.890625 
Q 18.40625 9.5 16.453125 12.203125 
Q 14.5 14.90625 13.546875 18.34375 
Q 12.59375 21.796875 12.59375 25.40625 
z
M 52.59375 0 
L 52.59375 71.40625 
L 44.09375 71.40625 
L 44.09375 44.796875 
L 43.90625 44.796875 
Q 42.5 47.09375 40.453125 48.640625 
Q 38.40625 50.203125 36.09375 51.140625 
Q 33.796875 52.09375 31.5 52.5 
Q 29.203125 52.90625 27.203125 52.90625 
Q 21.296875 52.90625 16.84375 50.75 
Q 12.40625 48.59375 9.453125 44.9375 
Q 6.5 41.296875 5.046875 36.390625 
Q 3.59375 31.5 3.59375 26 
Q 3.59375 20.5 5.09375 15.59375 
Q 6.59375 10.703125 9.546875 7 
Q 12.5 3.296875 16.953125 1.09375 
Q 21.40625 -1.09375 27.40625 -1.09375 
Q 32.796875 -1.09375 37.296875 0.796875 
Q 41.796875 2.703125 43.90625 7 
L 44.09375 7 
L 44.09375 0 
z
" id="HelveticaNeue-100"/>
       <path d="M 15.40625 61 
L 15.40625 71.40625 
L 6.90625 71.40625 
L 6.90625 61 
z
M 6.90625 51.703125 
L 6.90625 0 
L 15.40625 0 
L 15.40625 51.703125 
z
" id="HelveticaNeue-105"/>
       <path d="M 20.40625 -19.703125 
L 26.90625 -19.703125 
Q 19.796875 -8.203125 16.75 3.09375 
Q 13.703125 14.40625 13.703125 27 
Q 13.703125 39.296875 16.703125 50.5 
Q 19.703125 61.703125 26.90625 73.09375 
L 20.40625 73.09375 
Q 12.59375 62.796875 8.640625 50.796875 
Q 4.703125 38.796875 4.703125 27 
Q 4.703125 20.40625 5.796875 14.40625 
Q 6.90625 8.40625 8.953125 2.703125 
Q 11 -3 13.890625 -8.546875 
Q 16.796875 -14.09375 20.40625 -19.703125 
z
" id="HelveticaNeue-40"/>
       <path d="M 6.90625 0 
L 15.40625 0 
L 15.40625 51.703125 
L 6.90625 51.703125 
z
M 25.5 77 
L 11.40625 60.796875 
L 5 60.796875 
L 14.59375 77 
z
" id="HelveticaNeue-237"/>
       <path d="M -0.90625 -19.703125 
L 5.5 -19.703125 
Q 13.296875 -9.40625 17.25 2.546875 
Q 21.203125 14.5 21.203125 26.296875 
Q 21.203125 32.90625 20.09375 38.90625 
Q 19 44.90625 16.953125 50.65625 
Q 14.90625 56.40625 12 61.953125 
Q 9.09375 67.5 5.5 73.09375 
L -0.90625 73.09375 
Q 6.09375 61.59375 9.140625 50.25 
Q 12.203125 38.90625 12.203125 26.296875 
Q 12.203125 14.09375 9.203125 2.84375 
Q 6.203125 -8.40625 -0.90625 -19.703125 
z
" id="HelveticaNeue-41"/>
      </defs>
      <use xlink:href="#HelveticaNeue-80"/>
      <use x="64.799988" xlink:href="#HelveticaNeue-114"/>
      <use x="96.349976" xlink:href="#HelveticaNeue-111"/>
      <use x="153.749969" xlink:href="#HelveticaNeue-109"/>
      <use x="239.049957" xlink:href="#HelveticaNeue-101"/>
      <use x="292.749954" xlink:href="#HelveticaNeue-100"/>
      <use x="352.049942" xlink:href="#HelveticaNeue-105"/>
      <use x="374.249939" xlink:href="#HelveticaNeue-111"/>
      <use x="431.649933" xlink:href="#HelveticaNeue-32"/>
      <use x="459.449921" xlink:href="#HelveticaNeue-115"/>
      <use x="509.449905" xlink:href="#HelveticaNeue-101"/>
      <use x="563.149902" xlink:href="#HelveticaNeue-109"/>
      <use x="648.44989" xlink:href="#HelveticaNeue-97"/>
      <use x="702.149887" xlink:href="#HelveticaNeue-110"/>
      <use x="757.749878" xlink:href="#HelveticaNeue-97"/>
      <use x="811.449875" xlink:href="#HelveticaNeue-108"/>
      <use x="833.649872" xlink:href="#HelveticaNeue-32"/>
      <use x="861.44986" xlink:href="#HelveticaNeue-40"/>
      <use x="887.349854" xlink:href="#HelveticaNeue-55"/>
      <use x="942.949844" xlink:href="#HelveticaNeue-32"/>
      <use x="970.749832" xlink:href="#HelveticaNeue-100"/>
      <use x="1030.04982" xlink:href="#HelveticaNeue-237"/>
      <use x="1052.249817" xlink:href="#HelveticaNeue-97"/>
      <use x="1105.949814" xlink:href="#HelveticaNeue-115"/>
      <use x="1155.949799" xlink:href="#HelveticaNeue-41"/>
      <use x="1181.849792" xlink:href="#HelveticaNeue-32"/>
     </g>
    </g>
   </g>
  </g>
 </g>
 <defs>
  <clipPath id="p3ee85c1e85">
   <rect height="235.5" width="387.5" x="62.5" y="27"/>
  </clipPath>
 </defs>
</svg>
