<?xml version="1.0" encoding="utf-8" standalone="no"?>
<!DOCTYPE svg PUBLIC "-//W3C//DTD SVG 1.1//EN"
  "http://www.w3.org/Graphics/SVG/1.1/DTD/svg11.dtd">
<!-- Created with matplotlib (https://matplotlib.org/) -->
<svg height="300pt" version="1.1" viewBox="0 0 500 300" width="500pt" xmlns="http://www.w3.org/2000/svg" xmlns:xlink="http://www.w3.org/1999/xlink">
 <metadata>
  <rdf:RDF xmlns:cc="http://creativecommons.org/ns#" xmlns:dc="http://purl.org/dc/elements/1.1/" xmlns:rdf="http://www.w3.org/1999/02/22-rdf-syntax-ns#">
   <cc:Work>
    <dc:type rdf:resource="http://purl.org/dc/dcmitype/StillImage"/>
    <dc:date>2021-06-26T00:11:02.264072</dc:date>
    <dc:format>image/svg+xml</dc:format>
    <dc:creator>
     <cc:Agent>
      <dc:title>Matplotlib v3.3.4, https://matplotlib.org/</dc:title>
     </cc:Agent>
    </dc:creator>
   </cc:Work>
  </rdf:RDF>
 </metadata>
 <defs>
  <style type="text/css">*{stroke-linecap:butt;stroke-linejoin:round;}</style>
 </defs>
 <g id="figure_1">
  <g id="patch_1">
   <path d="M 0 300 
L 500 300 
L 500 0 
L 0 0 
z
" style="fill:#ffffff;"/>
  </g>
  <g id="axes_1">
   <g id="patch_2">
    <path d="M 62.5 262.5 
L 450 262.5 
L 450 36 
L 62.5 36 
z
" style="fill:#ffffff;"/>
   </g>
   <g id="matplotlib.axis_1">
    <g id="xtick_1">
     <g id="line2d_1">
      <defs>
       <path d="M 0 0 
L 0 3.5 
" id="m2d9970171f" style="stroke:#000000;stroke-width:0.8;"/>
      </defs>
      <g>
       <use style="stroke:#000000;stroke-width:0.8;" x="62.5" xlink:href="#m2d9970171f" y="262.5"/>
      </g>
     </g>
    </g>
    <g id="xtick_2">
     <g id="line2d_2">
      <g>
       <use style="stroke:#000000;stroke-width:0.8;" x="72.608696" xlink:href="#m2d9970171f" y="262.5"/>
      </g>
     </g>
     <g id="text_1">
      <!-- Apr -->
      <g transform="translate(64.708696 277)scale(0.1 -0.1)">
       <defs>
        <path d="M 47.015625 16.546875 
L 19.484375 16.546875 
L 13.71875 0 
L 0.875 0 
L 27.734375 71.09375 
L 38.8125 71.09375 
L 65.71875 0 
L 52.828125 0 
z
M 22.953125 26.515625 
L 43.5625 26.515625 
L 33.25 56 
z
" id="Roboto-Medium-65"/>
        <path d="M 52.34375 25.875 
Q 52.34375 13.625 46.78125 6.3125 
Q 41.21875 -0.984375 31.84375 -0.984375 
Q 23.140625 -0.984375 17.921875 4.734375 
L 17.921875 -20.3125 
L 6.0625 -20.3125 
L 6.0625 52.828125 
L 17 52.828125 
L 17.484375 47.46875 
Q 22.703125 53.8125 31.6875 53.8125 
Q 41.359375 53.8125 46.84375 46.609375 
Q 52.34375 39.40625 52.34375 26.609375 
z
M 40.53125 26.90625 
Q 40.53125 34.8125 37.375 39.453125 
Q 34.234375 44.09375 28.375 44.09375 
Q 21.09375 44.09375 17.921875 38.09375 
L 17.921875 14.65625 
Q 21.140625 8.5 28.46875 8.5 
Q 34.125 8.5 37.328125 13.0625 
Q 40.53125 17.625 40.53125 26.90625 
z
" id="Roboto-Medium-112"/>
        <path d="M 33.734375 42 
Q 31.390625 42.390625 28.90625 42.390625 
Q 20.75 42.390625 17.921875 36.140625 
L 17.921875 0 
L 6.0625 0 
L 6.0625 52.828125 
L 17.390625 52.828125 
L 17.671875 46.921875 
Q 21.96875 53.8125 29.59375 53.8125 
Q 32.125 53.8125 33.796875 53.125 
z
" id="Roboto-Medium-114"/>
       </defs>
       <use xlink:href="#Roboto-Medium-65"/>
       <use x="66.552734" xlink:href="#Roboto-Medium-112"/>
       <use x="122.851562" xlink:href="#Roboto-Medium-114"/>
      </g>
     </g>
    </g>
    <g id="xtick_3">
     <g id="line2d_3">
      <g>
       <use style="stroke:#000000;stroke-width:0.8;" x="149.266304" xlink:href="#m2d9970171f" y="262.5"/>
      </g>
     </g>
     <g id="text_2">
      <!-- Jul -->
      <g transform="translate(142.435836 277)scale(0.1 -0.1)">
       <defs>
        <path d="M 36.328125 71.09375 
L 48.640625 71.09375 
L 48.640625 21.234375 
Q 48.640625 11.03125 42.265625 5.015625 
Q 35.890625 -0.984375 25.4375 -0.984375 
Q 14.3125 -0.984375 8.25 4.625 
Q 2.203125 10.25 2.203125 20.265625 
L 14.5 20.265625 
Q 14.5 14.59375 17.3125 11.734375 
Q 20.125 8.890625 25.4375 8.890625 
Q 30.421875 8.890625 33.375 12.1875 
Q 36.328125 15.484375 36.328125 21.296875 
z
" id="Roboto-Medium-74"/>
        <path d="M 38.09375 5.171875 
Q 32.859375 -0.984375 23.25 -0.984375 
Q 14.65625 -0.984375 10.234375 4.046875 
Q 5.8125 9.078125 5.8125 18.609375 
L 5.8125 52.828125 
L 17.671875 52.828125 
L 17.671875 18.75 
Q 17.671875 8.6875 26.03125 8.6875 
Q 34.671875 8.6875 37.703125 14.890625 
L 37.703125 52.828125 
L 49.5625 52.828125 
L 49.5625 0 
L 38.375 0 
z
" id="Roboto-Medium-117"/>
        <path d="M 18.703125 0 
L 6.84375 0 
L 6.84375 75 
L 18.703125 75 
z
" id="Roboto-Medium-108"/>
       </defs>
       <use xlink:href="#Roboto-Medium-74"/>
       <use x="55.517578" xlink:href="#Roboto-Medium-117"/>
       <use x="111.083984" xlink:href="#Roboto-Medium-108"/>
      </g>
     </g>
    </g>
    <g id="xtick_4">
     <g id="line2d_4">
      <g>
       <use style="stroke:#000000;stroke-width:0.8;" x="226.766304" xlink:href="#m2d9970171f" y="262.5"/>
      </g>
     </g>
     <g id="text_3">
      <!-- Oct -->
      <g transform="translate(219.034273 277)scale(0.1 -0.1)">
       <defs>
        <path d="M 63.96875 33.6875 
Q 63.96875 23.25 60.34375 15.359375 
Q 56.734375 7.46875 50.015625 3.234375 
Q 43.3125 -0.984375 34.578125 -0.984375 
Q 25.921875 -0.984375 19.15625 3.234375 
Q 12.40625 7.46875 8.71875 15.28125 
Q 5.03125 23.09375 4.984375 33.296875 
L 4.984375 37.3125 
Q 4.984375 47.703125 8.671875 55.65625 
Q 12.359375 63.625 19.0625 67.84375 
Q 25.78125 72.078125 34.46875 72.078125 
Q 43.171875 72.078125 49.875 67.890625 
Q 56.59375 63.71875 60.25 55.875 
Q 63.921875 48.046875 63.96875 37.640625 
z
M 51.609375 37.40625 
Q 51.609375 49.21875 47.140625 55.515625 
Q 42.671875 61.8125 34.46875 61.8125 
Q 26.46875 61.8125 21.953125 55.53125 
Q 17.4375 49.265625 17.328125 37.796875 
L 17.328125 33.6875 
Q 17.328125 21.96875 21.890625 15.578125 
Q 26.46875 9.1875 34.578125 9.1875 
Q 42.78125 9.1875 47.1875 15.4375 
Q 51.609375 21.6875 51.609375 33.6875 
z
" id="Roboto-Medium-79"/>
        <path d="M 27.78125 8.5 
Q 32.234375 8.5 35.15625 11.078125 
Q 38.09375 13.671875 38.28125 17.484375 
L 49.46875 17.484375 
Q 49.265625 12.546875 46.375 8.265625 
Q 43.5 4 38.5625 1.5 
Q 33.640625 -0.984375 27.9375 -0.984375 
Q 16.84375 -0.984375 10.34375 6.1875 
Q 3.859375 13.375 3.859375 26.03125 
L 3.859375 27.25 
Q 3.859375 39.3125 10.296875 46.5625 
Q 16.75 53.8125 27.875 53.8125 
Q 37.3125 53.8125 43.234375 48.3125 
Q 49.171875 42.828125 49.46875 33.890625 
L 38.28125 33.890625 
Q 38.09375 38.421875 35.1875 41.34375 
Q 32.28125 44.28125 27.78125 44.28125 
Q 22.015625 44.28125 18.890625 40.109375 
Q 15.765625 35.9375 15.71875 27.4375 
L 15.71875 25.53125 
Q 15.71875 16.9375 18.8125 12.71875 
Q 21.921875 8.5 27.78125 8.5 
z
" id="Roboto-Medium-99"/>
        <path d="M 20.953125 65.671875 
L 20.953125 52.828125 
L 30.28125 52.828125 
L 30.28125 44.046875 
L 20.953125 44.046875 
L 20.953125 14.546875 
Q 20.953125 11.53125 22.140625 10.1875 
Q 23.34375 8.84375 26.421875 8.84375 
Q 28.46875 8.84375 30.5625 9.328125 
L 30.5625 0.140625 
Q 26.515625 -0.984375 22.75 -0.984375 
Q 9.078125 -0.984375 9.078125 14.109375 
L 9.078125 44.046875 
L 0.390625 44.046875 
L 0.390625 52.828125 
L 9.078125 52.828125 
L 9.078125 65.671875 
z
" id="Roboto-Medium-116"/>
       </defs>
       <use xlink:href="#Roboto-Medium-79"/>
       <use x="69.042969" xlink:href="#Roboto-Medium-99"/>
       <use x="121.386719" xlink:href="#Roboto-Medium-116"/>
      </g>
     </g>
    </g>
    <g id="xtick_5">
     <g id="line2d_5">
      <g>
       <use style="stroke:#000000;stroke-width:0.8;" x="304.266304" xlink:href="#m2d9970171f" y="262.5"/>
      </g>
     </g>
     <g id="text_4">
      <!-- Jan -->
      <g transform="translate(296.004586 277)scale(0.1 -0.1)">
       <defs>
        <path d="M 37.640625 0 
Q 36.859375 1.515625 36.28125 4.9375 
Q 30.609375 -0.984375 22.40625 -0.984375 
Q 14.453125 -0.984375 9.421875 3.5625 
Q 4.390625 8.109375 4.390625 14.796875 
Q 4.390625 23.25 10.65625 27.765625 
Q 16.9375 32.28125 28.609375 32.28125 
L 35.890625 32.28125 
L 35.890625 35.75 
Q 35.890625 39.84375 33.59375 42.3125 
Q 31.296875 44.78125 26.609375 44.78125 
Q 22.5625 44.78125 19.96875 42.75 
Q 17.390625 40.71875 17.390625 37.59375 
L 5.515625 37.59375 
Q 5.515625 41.9375 8.390625 45.71875 
Q 11.28125 49.515625 16.234375 51.65625 
Q 21.1875 53.8125 27.296875 53.8125 
Q 36.578125 53.8125 42.09375 49.140625 
Q 47.609375 44.484375 47.75 36.03125 
L 47.75 12.203125 
Q 47.75 5.078125 49.75 0.828125 
L 49.75 0 
z
M 24.609375 8.546875 
Q 28.125 8.546875 31.21875 10.25 
Q 34.328125 11.96875 35.890625 14.84375 
L 35.890625 24.8125 
L 29.5 24.8125 
Q 22.90625 24.8125 19.578125 22.515625 
Q 16.265625 20.21875 16.265625 16.015625 
Q 16.265625 12.59375 18.53125 10.5625 
Q 20.796875 8.546875 24.609375 8.546875 
z
" id="Roboto-Medium-97"/>
        <path d="M 17.09375 52.828125 
L 17.4375 46.734375 
Q 23.296875 53.8125 32.8125 53.8125 
Q 49.3125 53.8125 49.609375 34.90625 
L 49.609375 0 
L 37.75 0 
L 37.75 34.234375 
Q 37.75 39.265625 35.578125 41.671875 
Q 33.40625 44.09375 28.46875 44.09375 
Q 21.296875 44.09375 17.78125 37.59375 
L 17.78125 0 
L 5.90625 0 
L 5.90625 52.828125 
z
" id="Roboto-Medium-110"/>
       </defs>
       <use xlink:href="#Roboto-Medium-74"/>
       <use x="55.517578" xlink:href="#Roboto-Medium-97"/>
       <use x="109.619141" xlink:href="#Roboto-Medium-110"/>
      </g>
      <!-- 2021 -->
      <g transform="translate(292.897554 288.03125)scale(0.1 -0.1)">
       <defs>
        <path d="M 53.125 0 
L 5.328125 0 
L 5.328125 8.15625 
L 29 33.984375 
Q 34.125 39.703125 36.296875 43.53125 
Q 38.484375 47.359375 38.484375 51.21875 
Q 38.484375 56.296875 35.625 59.421875 
Q 32.765625 62.546875 27.9375 62.546875 
Q 22.171875 62.546875 19 59.03125 
Q 15.828125 55.515625 15.828125 49.421875 
L 3.953125 49.421875 
Q 3.953125 55.90625 6.90625 61.109375 
Q 9.859375 66.3125 15.34375 69.1875 
Q 20.84375 72.078125 28.03125 72.078125 
Q 38.375 72.078125 44.359375 66.875 
Q 50.34375 61.671875 50.34375 52.484375 
Q 50.34375 47.171875 47.34375 41.328125 
Q 44.34375 35.5 37.5 28.078125 
L 20.125 9.46875 
L 53.125 9.46875 
z
" id="Roboto-Medium-50"/>
        <path d="M 51.65625 29.9375 
Q 51.65625 14.59375 45.921875 6.796875 
Q 40.1875 -0.984375 28.46875 -0.984375 
Q 16.9375 -0.984375 11.109375 6.609375 
Q 5.28125 14.203125 5.125 29.109375 
L 5.125 41.40625 
Q 5.125 56.734375 10.859375 64.40625 
Q 16.609375 72.078125 28.375 72.078125 
Q 40.046875 72.078125 45.78125 64.59375 
Q 51.515625 57.125 51.65625 42.234375 
z
M 39.796875 43.21875 
Q 39.796875 53.21875 37.0625 57.875 
Q 34.328125 62.546875 28.375 62.546875 
Q 22.5625 62.546875 19.828125 58.125 
Q 17.09375 53.71875 16.9375 44.34375 
L 16.9375 28.21875 
Q 16.9375 18.265625 19.71875 13.375 
Q 22.515625 8.5 28.46875 8.5 
Q 34.1875 8.5 36.921875 13.015625 
Q 39.65625 17.53125 39.796875 27.15625 
z
" id="Roboto-Medium-48"/>
        <path d="M 37.453125 0 
L 25.640625 0 
L 25.640625 57.078125 
L 8.203125 51.125 
L 8.203125 61.140625 
L 35.9375 71.34375 
L 37.453125 71.34375 
z
" id="Roboto-Medium-49"/>
       </defs>
       <use xlink:href="#Roboto-Medium-50"/>
       <use x="56.835938" xlink:href="#Roboto-Medium-48"/>
       <use x="113.671875" xlink:href="#Roboto-Medium-50"/>
       <use x="170.507812" xlink:href="#Roboto-Medium-49"/>
      </g>
     </g>
    </g>
    <g id="xtick_6">
     <g id="line2d_6">
      <g>
       <use style="stroke:#000000;stroke-width:0.8;" x="380.081522" xlink:href="#m2d9970171f" y="262.5"/>
      </g>
     </g>
     <g id="text_5">
      <!-- Apr -->
      <g transform="translate(372.181522 277)scale(0.1 -0.1)">
       <use xlink:href="#Roboto-Medium-65"/>
       <use x="66.552734" xlink:href="#Roboto-Medium-112"/>
       <use x="122.851562" xlink:href="#Roboto-Medium-114"/>
      </g>
     </g>
    </g>
    <g id="xtick_7">
     <g id="line2d_7">
      <g>
       <use style="stroke:#000000;stroke-width:0.8;" x="450" xlink:href="#m2d9970171f" y="262.5"/>
      </g>
     </g>
    </g>
    <g id="xtick_8">
     <g id="line2d_8">
      <defs>
       <path d="M 0 0 
L 0 2 
" id="m114caa744c" style="stroke:#000000;stroke-width:0.6;"/>
      </defs>
      <g>
       <use style="stroke:#000000;stroke-width:0.6;" x="97.880435" xlink:href="#m114caa744c" y="262.5"/>
      </g>
     </g>
    </g>
    <g id="xtick_9">
     <g id="line2d_9">
      <g>
       <use style="stroke:#000000;stroke-width:0.6;" x="123.994565" xlink:href="#m114caa744c" y="262.5"/>
      </g>
     </g>
    </g>
    <g id="xtick_10">
     <g id="line2d_10">
      <g>
       <use style="stroke:#000000;stroke-width:0.6;" x="175.380435" xlink:href="#m114caa744c" y="262.5"/>
      </g>
     </g>
    </g>
    <g id="xtick_11">
     <g id="line2d_11">
      <g>
       <use style="stroke:#000000;stroke-width:0.6;" x="201.494565" xlink:href="#m114caa744c" y="262.5"/>
      </g>
     </g>
    </g>
    <g id="xtick_12">
     <g id="line2d_12">
      <g>
       <use style="stroke:#000000;stroke-width:0.6;" x="252.880435" xlink:href="#m114caa744c" y="262.5"/>
      </g>
     </g>
    </g>
    <g id="xtick_13">
     <g id="line2d_13">
      <g>
       <use style="stroke:#000000;stroke-width:0.6;" x="278.152174" xlink:href="#m114caa744c" y="262.5"/>
      </g>
     </g>
    </g>
    <g id="xtick_14">
     <g id="line2d_14">
      <g>
       <use style="stroke:#000000;stroke-width:0.6;" x="330.380435" xlink:href="#m114caa744c" y="262.5"/>
      </g>
     </g>
    </g>
    <g id="xtick_15">
     <g id="line2d_15">
      <g>
       <use style="stroke:#000000;stroke-width:0.6;" x="353.967391" xlink:href="#m114caa744c" y="262.5"/>
      </g>
     </g>
    </g>
    <g id="xtick_16">
     <g id="line2d_16">
      <g>
       <use style="stroke:#000000;stroke-width:0.6;" x="405.353261" xlink:href="#m114caa744c" y="262.5"/>
      </g>
     </g>
    </g>
    <g id="xtick_17">
     <g id="line2d_17">
      <g>
       <use style="stroke:#000000;stroke-width:0.6;" x="431.467391" xlink:href="#m114caa744c" y="262.5"/>
      </g>
     </g>
    </g>
    <g id="text_6">
     <!-- fecha -->
     <g transform="translate(243.774219 301.5625)scale(0.1 -0.1)">
      <defs>
       <path d="M 11.28125 0 
L 11.28125 45.84375 
L 2.9375 45.84375 
L 2.9375 52.828125 
L 11.28125 52.828125 
L 11.28125 58.25 
Q 11.28125 66.75 15.8125 71.390625 
Q 20.359375 76.03125 28.65625 76.03125 
Q 31.78125 76.03125 34.859375 75.203125 
L 34.375 67.875 
Q 32.078125 68.3125 29.5 68.3125 
Q 25.09375 68.3125 22.703125 65.75 
Q 20.3125 63.1875 20.3125 58.40625 
L 20.3125 52.828125 
L 31.59375 52.828125 
L 31.59375 45.84375 
L 20.3125 45.84375 
L 20.3125 0 
z
" id="Roboto-Regular-102"/>
       <path d="M 28.765625 -0.984375 
Q 18.015625 -0.984375 11.28125 6.078125 
Q 4.546875 13.140625 4.546875 24.953125 
L 4.546875 26.609375 
Q 4.546875 34.46875 7.546875 40.640625 
Q 10.546875 46.828125 15.9375 50.3125 
Q 21.34375 53.8125 27.640625 53.8125 
Q 37.9375 53.8125 43.640625 47.015625 
Q 49.359375 40.234375 49.359375 27.59375 
L 49.359375 23.828125 
L 13.578125 23.828125 
Q 13.765625 16.015625 18.140625 11.203125 
Q 22.515625 6.390625 29.25 6.390625 
Q 34.03125 6.390625 37.34375 8.34375 
Q 40.671875 10.296875 43.171875 13.53125 
L 48.6875 9.234375 
Q 42.046875 -0.984375 28.765625 -0.984375 
z
M 27.640625 46.390625 
Q 22.171875 46.390625 18.453125 42.40625 
Q 14.75 38.421875 13.875 31.25 
L 40.328125 31.25 
L 40.328125 31.9375 
Q 39.9375 38.8125 36.609375 42.59375 
Q 33.296875 46.390625 27.640625 46.390625 
z
" id="Roboto-Regular-101"/>
       <path d="M 28.03125 6.390625 
Q 32.859375 6.390625 36.46875 9.3125 
Q 40.09375 12.25 40.484375 16.65625 
L 49.03125 16.65625 
Q 48.78125 12.109375 45.890625 8 
Q 43.015625 3.90625 38.203125 1.453125 
Q 33.40625 -0.984375 28.03125 -0.984375 
Q 17.234375 -0.984375 10.859375 6.21875 
Q 4.5 13.421875 4.5 25.921875 
L 4.5 27.4375 
Q 4.5 35.15625 7.328125 41.15625 
Q 10.15625 47.171875 15.453125 50.484375 
Q 20.75 53.8125 27.984375 53.8125 
Q 36.859375 53.8125 42.75 48.484375 
Q 48.640625 43.171875 49.03125 34.671875 
L 40.484375 34.671875 
Q 40.09375 39.796875 36.59375 43.09375 
Q 33.109375 46.390625 27.984375 46.390625 
Q 21.09375 46.390625 17.3125 41.421875 
Q 13.53125 36.46875 13.53125 27.09375 
L 13.53125 25.390625 
Q 13.53125 16.265625 17.28125 11.328125 
Q 21.046875 6.390625 28.03125 6.390625 
z
" id="Roboto-Regular-99"/>
       <path d="M 15.875 46.4375 
Q 21.875 53.8125 31.5 53.8125 
Q 48.25 53.8125 48.390625 34.90625 
L 48.390625 0 
L 39.359375 0 
L 39.359375 34.96875 
Q 39.3125 40.671875 36.75 43.40625 
Q 34.1875 46.140625 28.765625 46.140625 
Q 24.359375 46.140625 21.03125 43.796875 
Q 17.71875 41.453125 15.875 37.640625 
L 15.875 0 
L 6.84375 0 
L 6.84375 75 
L 15.875 75 
z
" id="Roboto-Regular-104"/>
       <path d="M 39.453125 0 
Q 38.671875 1.5625 38.1875 5.5625 
Q 31.890625 -0.984375 23.140625 -0.984375 
Q 15.328125 -0.984375 10.328125 3.4375 
Q 5.328125 7.859375 5.328125 14.65625 
Q 5.328125 22.90625 11.59375 27.46875 
Q 17.875 32.03125 29.25 32.03125 
L 38.03125 32.03125 
L 38.03125 36.1875 
Q 38.03125 40.921875 35.203125 43.71875 
Q 32.375 46.53125 26.859375 46.53125 
Q 22.015625 46.53125 18.75 44.09375 
Q 15.484375 41.65625 15.484375 38.1875 
L 6.390625 38.1875 
Q 6.390625 42.140625 9.203125 45.828125 
Q 12.015625 49.515625 16.8125 51.65625 
Q 21.625 53.8125 27.390625 53.8125 
Q 36.53125 53.8125 41.703125 49.234375 
Q 46.875 44.671875 47.078125 36.671875 
L 47.078125 12.359375 
Q 47.078125 5.078125 48.921875 0.78125 
L 48.921875 0 
z
M 24.46875 6.890625 
Q 28.71875 6.890625 32.515625 9.078125 
Q 36.328125 11.28125 38.03125 14.796875 
L 38.03125 25.640625 
L 30.953125 25.640625 
Q 14.359375 25.640625 14.359375 15.921875 
Q 14.359375 11.671875 17.1875 9.28125 
Q 20.015625 6.890625 24.46875 6.890625 
z
" id="Roboto-Regular-97"/>
      </defs>
      <use xlink:href="#Roboto-Regular-102"/>
      <use x="34.716797" xlink:href="#Roboto-Regular-101"/>
      <use x="87.695312" xlink:href="#Roboto-Regular-99"/>
      <use x="140.039062" xlink:href="#Roboto-Regular-104"/>
      <use x="195.117188" xlink:href="#Roboto-Regular-97"/>
     </g>
    </g>
   </g>
   <g id="matplotlib.axis_2">
    <g id="ytick_1">
     <g id="line2d_18">
      <defs>
       <path d="M 0 0 
L -3.5 0 
" id="m2fb78ed36a" style="stroke:#000000;stroke-width:0.8;"/>
      </defs>
      <g>
       <use style="stroke:#000000;stroke-width:0.8;" x="62.5" xlink:href="#m2fb78ed36a" y="252.204545"/>
      </g>
     </g>
     <g id="text_7">
      <!-- 0 -->
      <g transform="translate(49.815625 255.954545)scale(0.1 -0.1)">
       <use xlink:href="#Roboto-Medium-48"/>
      </g>
     </g>
    </g>
    <g id="ytick_2">
     <g id="line2d_19">
      <g>
       <use style="stroke:#000000;stroke-width:0.8;" x="62.5" xlink:href="#m2fb78ed36a" y="222.275899"/>
      </g>
     </g>
     <g id="text_8">
      <!-- 250 -->
      <g transform="translate(38.446875 226.025899)scale(0.1 -0.1)">
       <defs>
        <path d="M 8.5 35.25 
L 12.359375 71.09375 
L 50.53125 71.09375 
L 50.53125 60.84375 
L 22.21875 60.84375 
L 20.265625 43.84375 
Q 25.203125 46.6875 31.390625 46.6875 
Q 41.546875 46.6875 47.1875 40.1875 
Q 52.828125 33.6875 52.828125 22.703125 
Q 52.828125 11.859375 46.578125 5.4375 
Q 40.328125 -0.984375 29.4375 -0.984375 
Q 19.671875 -0.984375 13.25 4.5625 
Q 6.84375 10.109375 6.296875 19.1875 
L 17.78125 19.1875 
Q 18.453125 14.015625 21.484375 11.25 
Q 24.515625 8.5 29.390625 8.5 
Q 34.859375 8.5 37.90625 12.40625 
Q 40.96875 16.3125 40.96875 23.046875 
Q 40.96875 29.546875 37.59375 33.328125 
Q 34.234375 37.109375 28.328125 37.109375 
Q 25.09375 37.109375 22.84375 36.25 
Q 20.609375 35.40625 17.96875 32.90625 
z
" id="Roboto-Medium-53"/>
       </defs>
       <use xlink:href="#Roboto-Medium-50"/>
       <use x="56.835938" xlink:href="#Roboto-Medium-53"/>
       <use x="113.671875" xlink:href="#Roboto-Medium-48"/>
      </g>
     </g>
    </g>
    <g id="ytick_3">
     <g id="line2d_20">
      <g>
       <use style="stroke:#000000;stroke-width:0.8;" x="62.5" xlink:href="#m2fb78ed36a" y="192.347252"/>
      </g>
     </g>
     <g id="text_9">
      <!-- 500 -->
      <g transform="translate(38.446875 196.097252)scale(0.1 -0.1)">
       <use xlink:href="#Roboto-Medium-53"/>
       <use x="56.835938" xlink:href="#Roboto-Medium-48"/>
       <use x="113.671875" xlink:href="#Roboto-Medium-48"/>
      </g>
     </g>
    </g>
    <g id="ytick_4">
     <g id="line2d_21">
      <g>
       <use style="stroke:#000000;stroke-width:0.8;" x="62.5" xlink:href="#m2fb78ed36a" y="162.418605"/>
      </g>
     </g>
     <g id="text_10">
      <!-- 750 -->
      <g transform="translate(38.446875 166.168605)scale(0.1 -0.1)">
       <defs>
        <path d="M 52.640625 64.5 
L 24.21875 0 
L 11.765625 0 
L 40.140625 61.578125 
L 3.375 61.578125 
L 3.375 71.09375 
L 52.640625 71.09375 
z
" id="Roboto-Medium-55"/>
       </defs>
       <use xlink:href="#Roboto-Medium-55"/>
       <use x="56.835938" xlink:href="#Roboto-Medium-53"/>
       <use x="113.671875" xlink:href="#Roboto-Medium-48"/>
      </g>
     </g>
    </g>
    <g id="ytick_5">
     <g id="line2d_22">
      <g>
       <use style="stroke:#000000;stroke-width:0.8;" x="62.5" xlink:href="#m2fb78ed36a" y="132.489958"/>
      </g>
     </g>
     <g id="text_11">
      <!-- 1000 -->
      <g transform="translate(32.7625 136.239958)scale(0.1 -0.1)">
       <use xlink:href="#Roboto-Medium-49"/>
       <use x="56.835938" xlink:href="#Roboto-Medium-48"/>
       <use x="113.671875" xlink:href="#Roboto-Medium-48"/>
       <use x="170.507812" xlink:href="#Roboto-Medium-48"/>
      </g>
     </g>
    </g>
    <g id="ytick_6">
     <g id="line2d_23">
      <g>
       <use style="stroke:#000000;stroke-width:0.8;" x="62.5" xlink:href="#m2fb78ed36a" y="102.561311"/>
      </g>
     </g>
     <g id="text_12">
      <!-- 1250 -->
      <g transform="translate(32.7625 106.311311)scale(0.1 -0.1)">
       <use xlink:href="#Roboto-Medium-49"/>
       <use x="56.835938" xlink:href="#Roboto-Medium-50"/>
       <use x="113.671875" xlink:href="#Roboto-Medium-53"/>
       <use x="170.507812" xlink:href="#Roboto-Medium-48"/>
      </g>
     </g>
    </g>
    <g id="ytick_7">
     <g id="line2d_24">
      <g>
       <use style="stroke:#000000;stroke-width:0.8;" x="62.5" xlink:href="#m2fb78ed36a" y="72.632664"/>
      </g>
     </g>
     <g id="text_13">
      <!-- 1500 -->
      <g transform="translate(32.7625 76.382664)scale(0.1 -0.1)">
       <use xlink:href="#Roboto-Medium-49"/>
       <use x="56.835938" xlink:href="#Roboto-Medium-53"/>
       <use x="113.671875" xlink:href="#Roboto-Medium-48"/>
       <use x="170.507812" xlink:href="#Roboto-Medium-48"/>
      </g>
     </g>
    </g>
    <g id="ytick_8">
     <g id="line2d_25">
      <g>
       <use style="stroke:#000000;stroke-width:0.8;" x="62.5" xlink:href="#m2fb78ed36a" y="42.704017"/>
      </g>
     </g>
     <g id="text_14">
      <!-- 1750 -->
      <g transform="translate(32.7625 46.454017)scale(0.1 -0.1)">
       <use xlink:href="#Roboto-Medium-49"/>
       <use x="56.835938" xlink:href="#Roboto-Medium-55"/>
       <use x="113.671875" xlink:href="#Roboto-Medium-53"/>
       <use x="170.507812" xlink:href="#Roboto-Medium-48"/>
      </g>
     </g>
    </g>
   </g>
   <g id="line2d_26">
    <path clip-path="url(#pff9fe00a22)" d="M 63.342391 251.965116 
L 64.184783 251.605973 
L 65.027174 251.965116 
L 65.869565 251.366543 
L 66.711957 251.845402 
L 67.554348 250.528541 
L 68.396739 251.725687 
L 69.23913 250.76797 
L 70.081522 250.76797 
L 70.923913 251.0074 
L 71.766304 251.845402 
L 72.608696 251.725687 
L 73.451087 250.887685 
L 75.13587 249.810254 
L 75.978261 251.725687 
L 76.820652 249.690539 
L 77.663043 251.127114 
L 78.505435 251.366543 
L 79.347826 251.366543 
L 80.190217 251.965116 
L 81.032609 252.204545 
L 81.875 251.845402 
L 83.559783 251.845402 
L 84.402174 251.486258 
L 85.244565 249.45111 
L 86.086957 250.648256 
L 86.929348 250.648256 
L 87.771739 249.211681 
L 88.61413 250.528541 
L 89.456522 252.084831 
L 90.298913 251.725687 
L 91.141304 251.725687 
L 91.983696 251.0074 
L 92.826087 250.887685 
L 93.668478 250.528541 
L 94.51087 250.648256 
L 95.353261 250.887685 
L 96.195652 251.366543 
L 97.038043 250.648256 
L 97.880435 250.76797 
L 98.722826 251.246829 
L 99.565217 250.408827 
L 100.407609 249.929968 
L 101.25 251.725687 
L 102.092391 250.408827 
L 102.934783 249.331395 
L 103.777174 251.366543 
L 104.619565 251.127114 
L 105.461957 250.289112 
L 106.304348 250.408827 
L 107.146739 251.127114 
L 107.98913 251.246829 
L 108.831522 249.690539 
L 109.673913 249.211681 
L 110.516304 250.169397 
L 111.358696 250.289112 
L 112.201087 251.366543 
L 113.043478 249.45111 
L 113.88587 249.091966 
L 114.728261 251.246829 
L 115.570652 247.056818 
L 116.413043 250.408827 
L 117.255435 249.690539 
L 118.097826 247.775106 
L 118.940217 249.45111 
L 120.625 244.901956 
L 121.467391 249.331395 
L 122.309783 249.810254 
L 123.152174 248.253964 
L 123.994565 249.091966 
L 124.836957 248.253964 
L 125.679348 244.542812 
L 126.521739 245.979387 
L 127.36413 247.89482 
L 128.206522 249.091966 
L 129.048913 247.176533 
L 129.891304 248.972252 
L 130.733696 246.338531 
L 131.576087 245.979387 
L 132.418478 248.613108 
L 133.26087 246.937104 
L 134.103261 248.373679 
L 134.945652 245.979387 
L 135.788043 247.176533 
L 136.630435 245.859672 
L 137.472826 247.056818 
L 138.315217 242.866808 
L 140 238.676797 
L 140.842391 242.507664 
L 141.684783 237.95851 
L 142.527174 239.754228 
L 143.369565 226.944767 
L 144.211957 242.028805 
L 145.054348 235.923362 
L 145.896739 234.606501 
L 146.73913 231.97278 
L 147.581522 240.472516 
L 148.423913 230.895349 
L 149.266304 231.493922 
L 150.108696 229.09963 
L 150.951087 239.395085 
L 151.793478 230.177061 
L 152.63587 224.191332 
L 153.478261 225.268763 
L 154.320652 222.874471 
L 155.163043 234.367072 
L 156.005435 229.578488 
L 156.847826 221.677326 
L 157.690217 222.156184 
L 158.532609 229.219345 
L 159.375 229.937632 
L 160.217391 225.268763 
L 161.059783 218.564746 
L 161.902174 214.015592 
L 162.744565 217.008457 
L 163.586957 218.445032 
L 164.429348 214.015592 
L 165.271739 227.78277 
L 166.11413 193.065539 
L 166.956522 196.656977 
L 167.798913 218.804175 
L 168.641304 195.459831 
L 169.483696 193.664112 
L 170.326087 222.754757 
L 171.168478 188.276956 
L 172.01087 183.847516 
L 172.853261 198.811839 
L 173.695652 205.994715 
L 174.538043 199.290698 
L 175.380435 178.460359 
L 176.222826 205.396142 
L 177.065217 202.882135 
L 177.907609 147.69371 
L 178.75 173.911205 
L 179.592391 196.537262 
L 180.434783 179.537791 
L 181.277174 194.262685 
L 182.119565 203.480708 
L 182.961957 150.088002 
L 183.804348 152.003436 
L 184.646739 163.615751 
L 185.48913 152.602008 
L 186.331522 185.164376 
L 187.173913 139.672833 
L 188.016304 172.714059 
L 188.858696 170.080338 
L 189.701087 162.418605 
L 190.543478 200.248414 
L 191.38587 182.051797 
L 192.228261 197.734408 
L 193.070652 205.396142 
L 193.913043 191.868393 
L 194.755435 215.691596 
L 195.597826 202.522992 
L 196.440217 228.620772 
L 197.282609 217.966173 
L 198.125 212.219873 
L 198.967391 223.592759 
L 199.809783 223.113901 
L 200.652174 187.798097 
L 201.494565 200.1287 
L 202.336957 208.628436 
L 203.179348 215.212738 
L 204.021739 216.409884 
L 204.86413 222.754757 
L 205.706522 237.838795 
L 206.548913 205.994715 
L 207.391304 218.804175 
L 208.233696 226.465909 
L 209.076087 205.396142 
L 210.76087 230.775634 
L 211.603261 237.599366 
L 212.445652 218.684461 
L 213.288043 222.275899 
L 214.130435 224.789905 
L 214.972826 210.663584 
L 215.815217 222.395613 
L 216.657609 221.677326 
L 217.5 221.677326 
L 218.342391 227.663055 
L 219.184783 221.677326 
L 220.027174 207.072146 
L 220.869565 226.22648 
L 221.711957 222.635042 
L 222.554348 222.036469 
L 223.396739 237.71908 
L 224.23913 219.881607 
L 225.081522 219.522463 
L 225.923913 230.536205 
L 226.766304 220.240751 
L 227.608696 222.515328 
L 228.451087 219.881607 
L 229.293478 222.275899 
L 230.13587 226.346195 
L 230.978261 225.867336 
L 231.820652 220.001321 
L 232.663043 220.001321 
L 233.505435 222.874471 
L 234.347826 226.705338 
L 235.190217 234.606501 
L 236.032609 234.965645 
L 236.875 233.409355 
L 237.717391 230.536205 
L 238.559783 208.149577 
L 239.402174 225.029334 
L 240.244565 223.35333 
L 241.086957 229.698203 
L 241.929348 225.627907 
L 242.771739 211.980444 
L 243.61413 220.959038 
L 244.456522 216.409884 
L 245.298913 218.445032 
L 246.141304 225.388478 
L 246.983696 229.458774 
L 247.826087 216.529598 
L 248.668478 213.895877 
L 249.51087 223.832188 
L 250.353261 215.931025 
L 251.195652 222.754757 
L 252.038043 219.402748 
L 252.880435 231.374207 
L 253.722826 221.557611 
L 254.565217 214.255021 
L 255.407609 215.332452 
L 256.25 226.346195 
L 257.092391 218.684461 
L 257.934783 223.473044 
L 258.777174 225.867336 
L 259.619565 219.522463 
L 260.461957 217.128171 
L 261.304348 222.994186 
L 262.146739 211.022727 
L 262.98913 220.719609 
L 263.831522 218.684461 
L 264.673913 233.52907 
L 265.516304 219.402748 
L 266.358696 212.100159 
L 267.201087 227.423626 
L 268.043478 209.825581 
L 268.88587 221.318182 
L 269.728261 209.705867 
L 270.570652 227.184197 
L 271.413043 219.881607 
L 272.255435 209.825581 
L 273.097826 204.079281 
L 273.940217 212.818446 
L 274.782609 211.6213 
L 275.625 215.332452 
L 276.467391 215.811311 
L 277.309783 214.374736 
L 278.152174 204.438425 
L 278.994565 196.776691 
L 279.836957 217.487315 
L 280.679348 184.565803 
L 281.521739 209.705867 
L 282.36413 215.332452 
L 283.206522 209.107294 
L 284.048913 211.022727 
L 284.891304 201.325846 
L 285.733696 197.25555 
L 286.576087 190.312104 
L 287.418478 193.065539 
L 288.26087 215.571882 
L 289.103261 185.044662 
L 289.945652 179.537791 
L 290.788043 178.580074 
L 291.630435 192.945825 
L 292.472826 187.319239 
L 293.315217 189.95296 
L 294.157609 204.438425 
L 295 177.382928 
L 295.842391 161.700317 
L 296.684783 156.073732 
L 297.527174 164.693182 
L 298.369565 211.980444 
L 299.211957 185.762949 
L 300.054348 180.256078 
L 300.896739 151.644292 
L 301.73913 145.299419 
L 302.581522 109.145613 
L 303.423913 175.228066 
L 304.266304 227.78277 
L 305.951087 116.089059 
L 306.793478 174.988636 
L 307.63587 119.680497 
L 308.478261 141.348837 
L 309.320652 144.221987 
L 310.163043 157.630021 
L 311.005435 168.763478 
L 311.847826 172.47463 
L 312.690217 216.649313 
L 313.532609 103.758457 
L 314.375 112.617336 
L 315.217391 151.644292 
L 316.059783 147.93314 
L 316.902174 141.468552 
L 317.744565 173.073203 
L 318.586957 152.362579 
L 319.429348 138.595402 
L 320.271739 170.91834 
L 321.11413 161.221459 
L 321.956522 167.925476 
L 323.641304 203.720137 
L 324.483696 148.172569 
L 325.326087 173.79149 
L 326.168478 189.354387 
L 327.853261 211.142442 
L 328.695652 225.987051 
L 329.538043 210.783298 
L 330.380435 217.008457 
L 331.222826 222.275899 
L 332.065217 215.931025 
L 332.907609 221.557611 
L 333.75 218.205603 
L 335.434783 232.451638 
L 336.277174 228.979915 
L 337.119565 219.402748 
L 337.961957 225.867336 
L 338.804348 227.184197 
L 339.646739 230.177061 
L 340.48913 229.458774 
L 341.331522 236.761364 
L 342.173913 237.240222 
L 343.016304 227.663055 
L 343.858696 228.501057 
L 344.701087 235.085359 
L 345.543478 234.367072 
L 346.38587 233.888214 
L 347.228261 243.345666 
L 348.913043 231.853066 
L 349.755435 233.169926 
L 350.597826 239.634514 
L 351.440217 238.197939 
L 352.282609 238.796512 
L 353.125 238.078224 
L 353.967391 238.197939 
L 354.809783 237.120507 
L 355.652174 239.035941 
L 356.494565 236.881078 
L 357.336957 238.078224 
L 358.179348 241.310518 
L 359.021739 243.465381 
L 359.86413 243.585095 
L 360.706522 240.352801 
L 361.548913 231.853066 
L 362.391304 237.71908 
L 363.233696 238.557082 
L 364.076087 241.310518 
L 364.918478 241.669662 
L 365.76087 242.387949 
L 366.603261 234.84593 
L 367.445652 237.479651 
L 368.288043 236.162791 
L 369.130435 234.486786 
L 369.972826 238.916226 
L 370.815217 234.247357 
L 371.657609 240.233087 
L 372.5 228.740486 
L 373.342391 228.860201 
L 374.184783 227.184197 
L 375.027174 226.944767 
L 375.869565 220.240751 
L 376.711957 233.888214 
L 377.554348 219.163319 
L 378.396739 220.360465 
L 379.23913 220.240751 
L 380.081522 229.578488 
L 380.923913 227.423626 
L 381.766304 223.233615 
L 382.608696 228.620772 
L 383.451087 208.74815 
L 384.293478 195.579545 
L 385.13587 204.438425 
L 385.978261 198.931554 
L 386.820652 190.431818 
L 387.663043 193.544397 
L 388.505435 209.586152 
L 389.347826 172.47463 
L 390.190217 175.108351 
L 391.032609 173.911205 
L 391.875 180.734937 
L 392.717391 189.833245 
L 393.559783 186.600951 
L 394.402174 187.199524 
L 395.244565 155.954017 
L 396.086957 166.010042 
L 396.929348 163.974894 
L 397.771739 144.82056 
L 398.61413 168.643763 
L 399.456522 187.917812 
L 400.298913 190.192389 
L 401.141304 178.939218 
L 401.983696 154.278013 
L 402.826087 181.932082 
L 403.668478 155.594873 
L 404.51087 173.073203 
L 405.353261 174.03092 
L 406.195652 190.790962 
L 407.038043 167.925476 
L 407.880435 155.714588 
L 408.722826 176.066068 
L 410.407609 161.341173 
L 411.25 180.136364 
L 412.092391 182.051797 
L 412.934783 153.918869 
L 413.777174 137.877114 
L 414.619565 169.122622 
L 415.461957 182.530655 
L 416.304348 169.362051 
L 417.146739 166.967759 
L 417.98913 192.347252 
L 418.831522 184.326374 
L 419.673913 161.580603 
L 420.516304 158.468023 
L 421.358696 148.890856 
L 422.201087 148.292283 
L 423.043478 142.785412 
L 423.88587 144.221987 
L 424.728261 114.891913 
L 425.570652 114.29334 
L 426.413043 106.871036 
L 427.255435 135.602537 
L 428.097826 118.72278 
L 428.940217 130.335095 
L 429.782609 140.271406 
L 430.625 126.145085 
L 431.467391 102.920455 
L 432.309783 46.295455 
L 433.152174 86.998414 
L 433.994565 64.492072 
L 435.679348 124.828224 
L 436.521739 103.040169 
L 437.36413 104.955603 
L 438.206522 133.926533 
L 439.048913 154.158298 
L 439.891304 136.320825 
L 440.733696 148.052854 
L 441.576087 135.482822 
L 442.418478 152.602008 
L 443.26087 129.975951 
L 444.103261 123.631078 
L 444.945652 119.081924 
L 445.788043 133.926533 
L 447.472826 149.609144 
L 448.315217 160.383457 
L 449.157609 149.130285 
L 450 218.804175 
L 450 218.804175 
" style="fill:none;stroke:#000000;stroke-dasharray:1.5,2.475;stroke-dashoffset:0;stroke-opacity:0.5;stroke-width:1.5;"/>
   </g>
   <g id="line2d_27">
    <path clip-path="url(#pff9fe00a22)" d="M 62.5 251.845402 
L 63.342391 251.725687 
L 64.184783 251.725687 
L 65.027174 251.605973 
L 65.869565 251.605973 
L 66.711957 251.366543 
L 68.396739 251.127114 
L 70.081522 251.127114 
L 70.923913 251.246829 
L 72.608696 251.0074 
L 73.451087 251.0074 
L 74.293478 250.76797 
L 75.13587 250.648256 
L 75.978261 250.648256 
L 76.820652 250.76797 
L 78.505435 251.246829 
L 79.347826 251.366543 
L 80.190217 251.725687 
L 81.032609 251.845402 
L 81.875 251.845402 
L 84.402174 251.127114 
L 86.086957 250.528541 
L 86.929348 250.408827 
L 87.771739 250.528541 
L 88.61413 250.887685 
L 91.141304 251.246829 
L 91.983696 251.246829 
L 92.826087 251.0074 
L 93.668478 250.887685 
L 97.038043 250.887685 
L 97.880435 250.76797 
L 99.565217 250.76797 
L 100.407609 250.528541 
L 101.25 250.648256 
L 104.619565 250.648256 
L 105.461957 250.76797 
L 106.304348 250.76797 
L 107.146739 250.528541 
L 108.831522 250.289112 
L 109.673913 250.289112 
L 110.516304 250.169397 
L 111.358696 249.929968 
L 112.201087 250.169397 
L 113.043478 249.929968 
L 114.728261 249.690539 
L 115.570652 249.331395 
L 116.413043 249.211681 
L 117.255435 248.972252 
L 118.097826 248.253964 
L 118.940217 248.253964 
L 120.625 248.014535 
L 121.467391 248.253964 
L 122.309783 248.253964 
L 123.152174 248.014535 
L 123.994565 248.014535 
L 124.836957 247.535677 
L 126.521739 247.296247 
L 127.36413 247.415962 
L 128.206522 247.296247 
L 129.048913 247.535677 
L 129.891304 247.655391 
L 134.103261 247.056818 
L 134.945652 247.056818 
L 135.788043 246.458245 
L 136.630435 245.620243 
L 137.472826 244.303383 
L 138.315217 243.465381 
L 139.157609 242.14852 
L 140 241.190803 
L 140.842391 238.916226 
L 141.684783 238.317653 
L 142.527174 237.479651 
L 143.369565 236.881078 
L 144.211957 235.683932 
L 145.054348 235.803647 
L 145.896739 235.085359 
L 146.73913 235.205074 
L 147.581522 233.648784 
L 148.423913 233.768499 
L 149.266304 233.289641 
L 150.108696 232.331924 
L 150.951087 230.536205 
L 151.793478 229.219345 
L 153.478261 228.620772 
L 154.320652 226.944767 
L 155.163043 226.22648 
L 156.847826 226.944767 
L 157.690217 227.064482 
L 159.375 223.832188 
L 160.217391 222.754757 
L 161.059783 221.437896 
L 161.902174 219.163319 
L 162.744565 218.564746 
L 164.429348 212.698732 
L 165.271739 211.980444 
L 166.956522 205.515856 
L 167.798913 205.515856 
L 168.641304 202.044133 
L 169.483696 200.846987 
L 170.326087 200.008985 
L 171.168478 198.093552 
L 172.01087 198.332981 
L 173.695652 194.741543 
L 174.538043 196.537262 
L 176.222826 188.276956 
L 177.907609 182.770085 
L 178.75 183.727801 
L 179.592391 184.20666 
L 180.434783 180.854651 
L 181.277174 180.854651 
L 182.119565 177.502643 
L 182.961957 170.798626 
L 183.804348 168.883192 
L 184.646739 162.658034 
L 185.48913 159.784884 
L 186.331522 162.29889 
L 187.173913 163.735465 
L 188.858696 172.115486 
L 189.701087 175.467495 
L 190.543478 183.96723 
L 191.38587 187.917812 
L 192.228261 194.14297 
L 193.070652 199.170983 
L 193.913043 203.241279 
L 194.755435 208.269292 
L 196.440217 214.015592 
L 197.282609 217.726744 
L 198.125 215.212738 
L 198.967391 213.895877 
L 199.809783 210.543869 
L 200.652174 209.107294 
L 201.494565 209.107294 
L 202.336957 209.466438 
L 204.86413 218.92389 
L 205.706522 220.719609 
L 206.548913 219.642178 
L 207.391304 219.163319 
L 208.233696 219.402748 
L 209.076087 220.001321 
L 209.918478 222.156184 
L 210.76087 223.233615 
L 212.445652 224.071617 
L 213.288043 223.592759 
L 214.972826 220.121036 
L 215.815217 221.078753 
L 216.657609 221.437896 
L 217.5 220.001321 
L 218.342391 221.198467 
L 219.184783 220.959038 
L 220.027174 220.839323 
L 220.869565 222.635042 
L 221.711957 222.635042 
L 222.554348 223.113901 
L 223.396739 225.508192 
L 224.23913 224.909619 
L 225.081522 224.67019 
L 225.923913 224.071617 
L 226.766304 222.395613 
L 228.451087 223.473044 
L 229.293478 222.635042 
L 230.13587 222.754757 
L 230.978261 222.635042 
L 231.820652 223.233615 
L 232.663043 224.430761 
L 233.505435 225.867336 
L 234.347826 227.54334 
L 235.190217 229.578488 
L 236.032609 228.740486 
L 236.875 228.261628 
L 238.559783 225.508192 
L 239.402174 224.311047 
L 240.244565 222.395613 
L 241.086957 221.557611 
L 241.929348 222.036469 
L 242.771739 220.719609 
L 243.61413 220.360465 
L 244.456522 220.48018 
L 245.298913 220.240751 
L 246.141304 220.719609 
L 246.983696 220.959038 
L 247.826087 220.599894 
L 248.668478 220.599894 
L 249.51087 219.881607 
L 250.353261 220.240751 
L 251.195652 221.318182 
L 252.038043 221.677326 
L 252.880435 220.839323 
L 253.722826 221.437896 
L 254.565217 220.719609 
L 255.407609 220.839323 
L 256.25 220.599894 
L 257.934783 221.437896 
L 258.777174 221.916755 
L 259.619565 220.240751 
L 260.461957 219.881607 
L 261.304348 219.043605 
L 262.146739 219.881607 
L 262.98913 220.360465 
L 263.831522 220.240751 
L 264.673913 220.839323 
L 265.516304 220.719609 
L 266.358696 220.240751 
L 267.201087 218.804175 
L 268.043478 217.846459 
L 268.88587 218.085888 
L 269.728261 217.846459 
L 270.570652 215.571882 
L 271.413043 215.212738 
L 272.255435 213.536734 
L 273.097826 213.417019 
L 273.940217 212.219873 
L 275.625 211.980444 
L 276.467391 211.022727 
L 277.309783 210.663584 
L 278.152174 207.311575 
L 278.994565 205.635571 
L 279.836957 205.156712 
L 280.679348 204.917283 
L 281.521739 206.234144 
L 282.36413 207.19186 
L 283.206522 205.635571 
L 284.048913 205.396142 
L 284.891304 202.403277 
L 285.733696 201.325846 
L 286.576087 198.692125 
L 287.418478 195.220402 
L 288.26087 192.347252 
L 289.103261 190.790962 
L 289.945652 189.474101 
L 290.788043 188.39667 
L 291.630435 187.678383 
L 292.472826 188.037526 
L 293.315217 186.361522 
L 294.157609 182.770085 
L 295 177.742072 
L 295.842391 178.101216 
L 296.684783 177.622357 
L 298.369565 175.706924 
L 299.211957 174.03092 
L 300.054348 166.72833 
L 300.896739 163.136892 
L 301.73913 162.538319 
L 302.581522 163.136892 
L 303.423913 159.665169 
L 304.266304 163.376321 
L 305.108696 160.862315 
L 305.951087 160.503171 
L 306.793478 153.440011 
L 307.63587 145.059989 
L 308.478261 145.419133 
L 310.163043 159.306025 
L 311.005435 160.98203 
L 311.847826 158.108879 
L 312.690217 156.073732 
L 313.532609 151.883721 
L 314.375 146.616279 
L 315.217391 145.658562 
L 316.059783 141.827696 
L 317.744565 153.559725 
L 318.586957 155.116015 
L 319.429348 157.630021 
L 321.11413 167.686047 
L 321.956522 169.960624 
L 322.798913 174.150634 
L 323.641304 176.185782 
L 324.483696 180.375793 
L 325.326087 185.284091 
L 326.168478 191.389535 
L 327.01087 195.818975 
L 327.853261 205.515856 
L 328.695652 211.980444 
L 329.538043 215.452167 
L 330.380435 217.846459 
L 331.222826 218.564746 
L 332.065217 218.804175 
L 332.907609 221.318182 
L 333.75 223.113901 
L 334.592391 223.592759 
L 335.434783 224.909619 
L 336.277174 225.627907 
L 337.119565 226.705338 
L 337.961957 227.184197 
L 338.804348 227.902484 
L 340.48913 231.015063 
L 341.331522 231.493922 
L 342.173913 232.331924 
L 343.016304 232.571353 
L 343.858696 232.930497 
L 346.38587 235.444503 
L 348.070652 236.282505 
L 348.913043 236.521934 
L 349.755435 237.000793 
L 350.597826 236.761364 
L 351.440217 237.120507 
L 352.282609 237.838795 
L 353.125 238.317653 
L 353.967391 238.078224 
L 354.809783 237.95851 
L 355.652174 238.197939 
L 358.179348 240.472516 
L 359.021739 239.993658 
L 359.86413 239.873943 
L 362.391304 238.796512 
L 363.233696 238.916226 
L 364.076087 238.916226 
L 364.918478 239.514799 
L 365.76087 239.155655 
L 366.603261 238.317653 
L 367.445652 237.71908 
L 368.288043 236.761364 
L 369.130435 236.521934 
L 369.972826 235.923362 
L 370.815217 234.84593 
L 372.5 232.092495 
L 373.342391 229.578488 
L 374.184783 228.740486 
L 375.027174 226.465909 
L 376.711957 224.191332 
L 377.554348 224.071617 
L 378.396739 224.071617 
L 379.23913 224.430761 
L 380.081522 224.311047 
L 380.923913 223.473044 
L 382.608696 217.128171 
L 385.13587 202.163848 
L 385.978261 199.410412 
L 386.820652 195.69926 
L 387.663043 192.706395 
L 388.505435 188.276956 
L 389.347826 185.044662 
L 390.190217 183.608087 
L 391.032609 182.410941 
L 391.875 180.974366 
L 392.717391 180.016649 
L 393.559783 178.580074 
L 394.402174 176.185782 
L 395.244565 170.678911 
L 396.086957 166.488901 
L 396.929348 165.650899 
L 397.771739 166.967759 
L 398.61413 171.038055 
L 399.456522 171.636628 
L 400.298913 174.150634 
L 401.141304 174.868922 
L 401.983696 173.79149 
L 402.826087 171.397199 
L 403.668478 171.516913 
L 404.51087 171.516913 
L 405.353261 172.115486 
L 406.195652 171.516913 
L 407.038043 172.354915 
L 407.880435 170.319767 
L 408.722826 170.200053 
L 409.565217 169.840909 
L 410.407609 169.242336 
L 412.092391 165.17204 
L 413.777174 166.010042 
L 414.619565 165.17204 
L 415.461957 167.686047 
L 416.304348 172.594345 
L 417.146739 175.826638 
L 417.98913 174.629493 
L 420.516304 161.580603 
L 421.358696 154.517442 
L 422.201087 146.257135 
L 423.88587 132.011099 
L 425.570652 123.870507 
L 426.413043 122.074789 
L 427.255435 122.553647 
L 428.097826 125.067653 
L 428.940217 124.828224 
L 429.782609 117.525634 
L 430.625 109.025899 
L 431.467391 99.209302 
L 432.309783 91.188425 
L 433.152174 87.836416 
L 433.994565 87.118129 
L 434.836957 90.470137 
L 435.679348 101.723309 
L 437.36413 121.236786 
L 438.206522 129.018235 
L 439.048913 132.609672 
L 439.891304 139.193975 
L 440.733696 142.067125 
L 441.576087 140.510835 
L 442.418478 135.961681 
L 444.103261 132.609672 
L 444.945652 133.806818 
L 445.788043 135.961681 
L 446.630435 140.031977 
L 447.472826 151.883721 
L 449.157609 166.010042 
L 450 172.714059 
L 450 172.714059 
" style="fill:none;stroke:#b3220f;stroke-linecap:square;stroke-width:1.5;"/>
   </g>
   <g id="patch_3">
    <path d="M 62.5 262.5 
L 62.5 36 
" style="fill:none;stroke:#000000;stroke-linecap:square;stroke-linejoin:miter;stroke-width:0.8;"/>
   </g>
   <g id="patch_4">
    <path d="M 450 262.5 
L 450 36 
" style="fill:none;stroke:#000000;stroke-linecap:square;stroke-linejoin:miter;stroke-width:0.8;"/>
   </g>
   <g id="patch_5">
    <path d="M 62.5 262.5 
L 450 262.5 
" style="fill:none;stroke:#000000;stroke-linecap:square;stroke-linejoin:miter;stroke-width:0.8;"/>
   </g>
   <g id="patch_6">
    <path d="M 62.5 36 
L 450 36 
" style="fill:none;stroke:#000000;stroke-linecap:square;stroke-linejoin:miter;stroke-width:0.8;"/>
   </g>
   <g id="text_15">
    <!-- Suba | Casos nuevos: 2021-06-23 -->
    <g transform="translate(167.634687 30)scale(0.12 -0.12)">
     <defs>
      <path d="M 29.203125 31.6875 
Q 17.140625 35.15625 11.640625 40.203125 
Q 6.15625 45.265625 6.15625 52.6875 
Q 6.15625 61.078125 12.859375 66.578125 
Q 19.578125 72.078125 30.328125 72.078125 
Q 37.640625 72.078125 43.375 69.234375 
Q 49.125 66.40625 52.265625 61.421875 
Q 55.421875 56.453125 55.421875 50.53125 
L 46 50.53125 
Q 46 56.984375 41.890625 60.671875 
Q 37.796875 64.359375 30.328125 64.359375 
Q 23.390625 64.359375 19.5 61.296875 
Q 15.625 58.25 15.625 52.828125 
Q 15.625 48.484375 19.3125 45.484375 
Q 23 42.484375 31.859375 39.984375 
Q 40.71875 37.5 45.71875 34.5 
Q 50.734375 31.5 53.140625 27.484375 
Q 55.5625 23.484375 55.5625 18.0625 
Q 55.5625 9.421875 48.828125 4.21875 
Q 42.09375 -0.984375 30.8125 -0.984375 
Q 23.484375 -0.984375 17.140625 1.828125 
Q 10.796875 4.640625 7.34375 9.515625 
Q 3.90625 14.40625 3.90625 20.609375 
L 13.328125 20.609375 
Q 13.328125 14.15625 18.09375 10.421875 
Q 22.859375 6.6875 30.8125 6.6875 
Q 38.234375 6.6875 42.1875 9.71875 
Q 46.140625 12.75 46.140625 17.96875 
Q 46.140625 23.1875 42.46875 26.046875 
Q 38.8125 28.90625 29.203125 31.6875 
z
" id="Roboto-Regular-83"/>
      <path d="M 39.453125 5.21875 
Q 34.1875 -0.984375 23.96875 -0.984375 
Q 15.53125 -0.984375 11.109375 3.921875 
Q 6.6875 8.84375 6.640625 18.453125 
L 6.640625 52.828125 
L 15.671875 52.828125 
L 15.671875 18.703125 
Q 15.671875 6.6875 25.4375 6.6875 
Q 35.796875 6.6875 39.203125 14.40625 
L 39.203125 52.828125 
L 48.25 52.828125 
L 48.25 0 
L 39.65625 0 
z
" id="Roboto-Regular-117"/>
      <path d="M 51.5625 25.828125 
Q 51.5625 13.71875 46 6.359375 
Q 40.4375 -0.984375 31.0625 -0.984375 
Q 21.046875 -0.984375 15.578125 6.109375 
L 15.140625 0 
L 6.84375 0 
L 6.84375 75 
L 15.875 75 
L 15.875 47.015625 
Q 21.34375 53.8125 30.953125 53.8125 
Q 40.578125 53.8125 46.0625 46.53125 
Q 51.5625 39.265625 51.5625 26.609375 
z
M 42.53125 26.859375 
Q 42.53125 36.078125 38.96875 41.109375 
Q 35.40625 46.140625 28.71875 46.140625 
Q 19.78125 46.140625 15.875 37.84375 
L 15.875 14.984375 
Q 20.015625 6.6875 28.8125 6.6875 
Q 35.296875 6.6875 38.90625 11.71875 
Q 42.53125 16.75 42.53125 26.859375 
z
" id="Roboto-Regular-98"/>
      <path id="Roboto-Regular-32"/>
      <path d="M 15.828125 -13.1875 
L 8.546875 -13.1875 
L 8.546875 71.09375 
L 15.828125 71.09375 
z
" id="Roboto-Regular-124"/>
      <path d="M 60.546875 22.5625 
Q 59.234375 11.28125 52.21875 5.140625 
Q 45.21875 -0.984375 33.59375 -0.984375 
Q 21 -0.984375 13.40625 8.046875 
Q 5.8125 17.09375 5.8125 32.234375 
L 5.8125 39.0625 
Q 5.8125 48.96875 9.34375 56.484375 
Q 12.890625 64.015625 19.375 68.046875 
Q 25.875 72.078125 34.421875 72.078125 
Q 45.75 72.078125 52.578125 65.75 
Q 59.421875 59.421875 60.546875 48.25 
L 51.125 48.25 
Q 49.90625 56.734375 45.828125 60.546875 
Q 41.75 64.359375 34.421875 64.359375 
Q 25.4375 64.359375 20.328125 57.71875 
Q 15.234375 51.078125 15.234375 38.8125 
L 15.234375 31.9375 
Q 15.234375 20.359375 20.0625 13.515625 
Q 24.90625 6.6875 33.59375 6.6875 
Q 41.40625 6.6875 45.578125 10.21875 
Q 49.75 13.765625 51.125 22.5625 
z
" id="Roboto-Regular-67"/>
      <path d="M 37.59375 14.015625 
Q 37.59375 17.671875 34.828125 19.703125 
Q 32.078125 21.734375 25.21875 23.1875 
Q 18.359375 24.65625 14.328125 26.703125 
Q 10.296875 28.765625 8.375 31.59375 
Q 6.453125 34.421875 6.453125 38.328125 
Q 6.453125 44.828125 11.9375 49.3125 
Q 17.4375 53.8125 25.984375 53.8125 
Q 34.96875 53.8125 40.546875 49.171875 
Q 46.140625 44.53125 46.140625 37.3125 
L 37.0625 37.3125 
Q 37.0625 41.015625 33.90625 43.703125 
Q 30.765625 46.390625 25.984375 46.390625 
Q 21.046875 46.390625 18.265625 44.234375 
Q 15.484375 42.09375 15.484375 38.625 
Q 15.484375 35.359375 18.0625 33.6875 
Q 20.65625 32.03125 27.421875 30.515625 
Q 34.1875 29 38.375 26.90625 
Q 42.578125 24.8125 44.59375 21.84375 
Q 46.625 18.890625 46.625 14.65625 
Q 46.625 7.5625 40.953125 3.28125 
Q 35.296875 -0.984375 26.265625 -0.984375 
Q 19.921875 -0.984375 15.03125 1.265625 
Q 10.15625 3.515625 7.390625 7.546875 
Q 4.640625 11.578125 4.640625 16.265625 
L 13.671875 16.265625 
Q 13.921875 11.71875 17.3125 9.046875 
Q 20.703125 6.390625 26.265625 6.390625 
Q 31.390625 6.390625 34.484375 8.46875 
Q 37.59375 10.546875 37.59375 14.015625 
z
" id="Roboto-Regular-115"/>
      <path d="M 4.4375 26.90625 
Q 4.4375 34.671875 7.484375 40.875 
Q 10.546875 47.078125 15.984375 50.4375 
Q 21.4375 53.8125 28.421875 53.8125 
Q 39.203125 53.8125 45.875 46.34375 
Q 52.546875 38.875 52.546875 26.46875 
L 52.546875 25.828125 
Q 52.546875 18.109375 49.578125 11.984375 
Q 46.625 5.859375 41.125 2.4375 
Q 35.640625 -0.984375 28.515625 -0.984375 
Q 17.78125 -0.984375 11.109375 6.484375 
Q 4.4375 13.96875 4.4375 26.265625 
z
M 13.53125 25.828125 
Q 13.53125 17.046875 17.609375 11.71875 
Q 21.6875 6.390625 28.515625 6.390625 
Q 35.40625 6.390625 39.453125 11.78125 
Q 43.5 17.1875 43.5 26.90625 
Q 43.5 35.59375 39.375 40.984375 
Q 35.25 46.390625 28.421875 46.390625 
Q 21.734375 46.390625 17.625 41.0625 
Q 13.53125 35.75 13.53125 25.828125 
z
" id="Roboto-Regular-111"/>
      <path d="M 15.375 52.828125 
L 15.671875 46.1875 
Q 21.734375 53.8125 31.5 53.8125 
Q 48.25 53.8125 48.390625 34.90625 
L 48.390625 0 
L 39.359375 0 
L 39.359375 34.96875 
Q 39.3125 40.671875 36.75 43.40625 
Q 34.1875 46.140625 28.765625 46.140625 
Q 24.359375 46.140625 21.03125 43.796875 
Q 17.71875 41.453125 15.875 37.640625 
L 15.875 0 
L 6.84375 0 
L 6.84375 52.828125 
z
" id="Roboto-Regular-110"/>
      <path d="M 24.265625 12.25 
L 37.359375 52.828125 
L 46.578125 52.828125 
L 27.640625 0 
L 20.75 0 
L 1.609375 52.828125 
L 10.84375 52.828125 
z
" id="Roboto-Regular-118"/>
      <path d="M 6.546875 4.734375 
Q 6.546875 7.078125 7.9375 8.640625 
Q 9.328125 10.203125 12.109375 10.203125 
Q 14.890625 10.203125 16.328125 8.640625 
Q 17.78125 7.078125 17.78125 4.734375 
Q 17.78125 2.484375 16.328125 0.96875 
Q 14.890625 -0.53125 12.109375 -0.53125 
Q 9.328125 -0.53125 7.9375 0.96875 
Q 6.546875 2.484375 6.546875 4.734375 
z
M 6.59375 47.84375 
Q 6.59375 50.1875 7.984375 51.75 
Q 9.375 53.3125 12.15625 53.3125 
Q 14.9375 53.3125 16.375 51.75 
Q 17.828125 50.1875 17.828125 47.84375 
Q 17.828125 45.59375 16.375 44.078125 
Q 14.9375 42.578125 12.15625 42.578125 
Q 9.375 42.578125 7.984375 44.078125 
Q 6.59375 45.59375 6.59375 47.84375 
z
" id="Roboto-Regular-58"/>
      <path d="M 52.484375 0 
L 5.90625 0 
L 5.90625 6.5 
L 30.515625 33.84375 
Q 35.984375 40.046875 38.0625 43.921875 
Q 40.140625 47.796875 40.140625 51.953125 
Q 40.140625 57.515625 36.765625 61.078125 
Q 33.40625 64.65625 27.78125 64.65625 
Q 21.046875 64.65625 17.3125 60.8125 
Q 13.578125 56.984375 13.578125 50.140625 
L 4.546875 50.140625 
Q 4.546875 59.96875 10.859375 66.015625 
Q 17.1875 72.078125 27.78125 72.078125 
Q 37.703125 72.078125 43.453125 66.875 
Q 49.21875 61.671875 49.21875 53.03125 
Q 49.21875 42.53125 35.84375 28.03125 
L 16.796875 7.375 
L 52.484375 7.375 
z
" id="Roboto-Regular-50"/>
      <path d="M 50.484375 30.328125 
Q 50.484375 14.453125 45.0625 6.734375 
Q 39.65625 -0.984375 28.125 -0.984375 
Q 16.75 -0.984375 11.28125 6.5625 
Q 5.8125 14.109375 5.609375 29.109375 
L 5.609375 41.15625 
Q 5.609375 56.84375 11.03125 64.453125 
Q 16.453125 72.078125 28.03125 72.078125 
Q 39.5 72.078125 44.921875 64.71875 
Q 50.34375 57.375 50.484375 42.046875 
z
M 41.453125 42.671875 
Q 41.453125 54.15625 38.234375 59.40625 
Q 35.015625 64.65625 28.03125 64.65625 
Q 21.09375 64.65625 17.921875 59.421875 
Q 14.75 54.203125 14.65625 43.359375 
L 14.65625 28.90625 
Q 14.65625 17.390625 18 11.890625 
Q 21.34375 6.390625 28.125 6.390625 
Q 34.8125 6.390625 38.0625 11.5625 
Q 41.3125 16.75 41.453125 27.875 
z
" id="Roboto-Regular-48"/>
      <path d="M 35.59375 0 
L 26.515625 0 
L 26.515625 60.203125 
L 8.296875 53.515625 
L 8.296875 61.71875 
L 34.1875 71.4375 
L 35.59375 71.4375 
z
" id="Roboto-Regular-49"/>
      <path d="M 25.640625 26.515625 
L 1.8125 26.515625 
L 1.8125 33.890625 
L 25.640625 33.890625 
z
" id="Roboto-Regular-45"/>
      <path d="M 41.359375 71.140625 
L 41.359375 63.484375 
L 39.703125 63.484375 
Q 29.15625 63.28125 22.90625 57.21875 
Q 16.65625 51.171875 15.671875 40.1875 
Q 21.296875 46.625 31 46.625 
Q 40.28125 46.625 45.828125 40.078125 
Q 51.375 33.546875 51.375 23.1875 
Q 51.375 12.203125 45.390625 5.609375 
Q 39.40625 -0.984375 29.34375 -0.984375 
Q 19.140625 -0.984375 12.796875 6.859375 
Q 6.453125 14.703125 6.453125 27.046875 
L 6.453125 30.515625 
Q 6.453125 50.140625 14.8125 60.515625 
Q 23.1875 70.90625 39.75 71.140625 
z
M 29.5 39.109375 
Q 24.859375 39.109375 20.953125 36.328125 
Q 17.046875 33.546875 15.53125 29.34375 
L 15.53125 26.03125 
Q 15.53125 17.234375 19.484375 11.859375 
Q 23.4375 6.5 29.34375 6.5 
Q 35.453125 6.5 38.9375 10.984375 
Q 42.4375 15.484375 42.4375 22.75 
Q 42.4375 30.078125 38.890625 34.59375 
Q 35.359375 39.109375 29.5 39.109375 
z
" id="Roboto-Regular-54"/>
      <path d="M 19.046875 39.9375 
L 25.828125 39.9375 
Q 32.234375 40.046875 35.890625 43.3125 
Q 39.546875 46.578125 39.546875 52.15625 
Q 39.546875 64.65625 27.09375 64.65625 
Q 21.234375 64.65625 17.75 61.296875 
Q 14.265625 57.953125 14.265625 52.4375 
L 5.21875 52.4375 
Q 5.21875 60.890625 11.390625 66.484375 
Q 17.578125 72.078125 27.09375 72.078125 
Q 37.15625 72.078125 42.859375 66.75 
Q 48.578125 61.421875 48.578125 51.953125 
Q 48.578125 47.3125 45.578125 42.96875 
Q 42.578125 38.625 37.40625 36.46875 
Q 43.265625 34.625 46.453125 30.328125 
Q 49.65625 26.03125 49.65625 19.828125 
Q 49.65625 10.25 43.40625 4.625 
Q 37.15625 -0.984375 27.140625 -0.984375 
Q 17.140625 -0.984375 10.859375 4.4375 
Q 4.59375 9.859375 4.59375 18.75 
L 13.671875 18.75 
Q 13.671875 13.140625 17.328125 9.765625 
Q 21 6.390625 27.15625 6.390625 
Q 33.6875 6.390625 37.15625 9.8125 
Q 40.625 13.234375 40.625 19.625 
Q 40.625 25.828125 36.8125 29.140625 
Q 33.015625 32.46875 25.828125 32.5625 
L 19.046875 32.5625 
z
" id="Roboto-Regular-51"/>
     </defs>
     <use xlink:href="#Roboto-Regular-83"/>
     <use x="59.326172" xlink:href="#Roboto-Regular-117"/>
     <use x="114.453125" xlink:href="#Roboto-Regular-98"/>
     <use x="170.556641" xlink:href="#Roboto-Regular-97"/>
     <use x="224.951172" xlink:href="#Roboto-Regular-32"/>
     <use x="249.707031" xlink:href="#Roboto-Regular-124"/>
     <use x="274.072266" xlink:href="#Roboto-Regular-32"/>
     <use x="298.828125" xlink:href="#Roboto-Regular-67"/>
     <use x="363.916016" xlink:href="#Roboto-Regular-97"/>
     <use x="418.310547" xlink:href="#Roboto-Regular-115"/>
     <use x="469.873047" xlink:href="#Roboto-Regular-111"/>
     <use x="526.904297" xlink:href="#Roboto-Regular-115"/>
     <use x="578.466797" xlink:href="#Roboto-Regular-32"/>
     <use x="603.222656" xlink:href="#Roboto-Regular-110"/>
     <use x="658.398438" xlink:href="#Roboto-Regular-117"/>
     <use x="713.525391" xlink:href="#Roboto-Regular-101"/>
     <use x="766.503906" xlink:href="#Roboto-Regular-118"/>
     <use x="814.941406" xlink:href="#Roboto-Regular-111"/>
     <use x="871.972656" xlink:href="#Roboto-Regular-115"/>
     <use x="923.535156" xlink:href="#Roboto-Regular-58"/>
     <use x="947.753906" xlink:href="#Roboto-Regular-32"/>
     <use x="972.509766" xlink:href="#Roboto-Regular-50"/>
     <use x="1028.662109" xlink:href="#Roboto-Regular-48"/>
     <use x="1084.814453" xlink:href="#Roboto-Regular-50"/>
     <use x="1140.966797" xlink:href="#Roboto-Regular-49"/>
     <use x="1197.119141" xlink:href="#Roboto-Regular-45"/>
     <use x="1224.707031" xlink:href="#Roboto-Regular-48"/>
     <use x="1280.859375" xlink:href="#Roboto-Regular-54"/>
     <use x="1337.011719" xlink:href="#Roboto-Regular-45"/>
     <use x="1364.599609" xlink:href="#Roboto-Regular-50"/>
     <use x="1420.751953" xlink:href="#Roboto-Regular-51"/>
    </g>
   </g>
   <g id="legend_1">
    <g id="patch_7">
     <path d="M 69.5 73.75625 
L 224.726562 73.75625 
Q 226.726562 73.75625 226.726562 71.75625 
L 226.726562 43 
Q 226.726562 41 224.726562 41 
L 69.5 41 
Q 67.5 41 67.5 43 
L 67.5 71.75625 
Q 67.5 73.75625 69.5 73.75625 
z
" style="fill:#ffffff;opacity:0.8;stroke:#cccccc;stroke-linejoin:miter;"/>
    </g>
    <g id="line2d_28">
     <path d="M 71.5 49 
L 91.5 49 
" style="fill:none;stroke:#000000;stroke-dasharray:1.5,2.475;stroke-dashoffset:0;stroke-opacity:0.5;stroke-width:1.5;"/>
    </g>
    <g id="line2d_29"/>
    <g id="text_16">
     <!-- Actual -->
     <g transform="translate(99.5 52.5)scale(0.1 -0.1)">
      <use xlink:href="#Roboto-Medium-65"/>
      <use x="66.552734" xlink:href="#Roboto-Medium-99"/>
      <use x="118.896484" xlink:href="#Roboto-Medium-116"/>
      <use x="152.148438" xlink:href="#Roboto-Medium-117"/>
      <use x="207.714844" xlink:href="#Roboto-Medium-97"/>
      <use x="261.816406" xlink:href="#Roboto-Medium-108"/>
     </g>
    </g>
    <g id="line2d_30">
     <path d="M 71.5 63.995313 
L 91.5 63.995313 
" style="fill:none;stroke:#b3220f;stroke-linecap:square;stroke-width:1.5;"/>
    </g>
    <g id="line2d_31"/>
    <g id="text_17">
     <!-- Promedio semanal (7 das)  -->
     <g transform="translate(99.5 67.495313)scale(0.1 -0.1)">
      <defs>
       <path d="M 19.578125 26.421875 
L 19.578125 0 
L 7.234375 0 
L 7.234375 71.09375 
L 34.421875 71.09375 
Q 46.34375 71.09375 53.34375 64.890625 
Q 60.359375 58.6875 60.359375 48.484375 
Q 60.359375 38.03125 53.484375 32.21875 
Q 46.625 26.421875 34.28125 26.421875 
z
M 19.578125 36.328125 
L 34.421875 36.328125 
Q 41.015625 36.328125 44.484375 39.421875 
Q 47.953125 42.53125 47.953125 48.390625 
Q 47.953125 54.15625 44.4375 57.59375 
Q 40.921875 61.03125 34.765625 61.140625 
L 19.578125 61.140625 
z
" id="Roboto-Medium-80"/>
       <path d="M 3.859375 26.90625 
Q 3.859375 34.671875 6.9375 40.890625 
Q 10.015625 47.125 15.578125 50.46875 
Q 21.140625 53.8125 28.375 53.8125 
Q 39.0625 53.8125 45.71875 46.921875 
Q 52.390625 40.046875 52.9375 28.65625 
L 52.984375 25.875 
Q 52.984375 18.0625 49.96875 11.90625 
Q 46.96875 5.765625 41.375 2.390625 
Q 35.796875 -0.984375 28.46875 -0.984375 
Q 17.28125 -0.984375 10.5625 6.46875 
Q 3.859375 13.921875 3.859375 26.3125 
z
M 15.71875 25.875 
Q 15.71875 17.71875 19.09375 13.109375 
Q 22.46875 8.5 28.46875 8.5 
Q 34.46875 8.5 37.8125 13.1875 
Q 41.15625 17.875 41.15625 26.90625 
Q 41.15625 34.90625 37.71875 39.59375 
Q 34.28125 44.28125 28.375 44.28125 
Q 22.5625 44.28125 19.140625 39.671875 
Q 15.71875 35.0625 15.71875 25.875 
z
" id="Roboto-Medium-111"/>
       <path d="M 17.234375 52.828125 
L 17.578125 47.3125 
Q 23.140625 53.8125 32.8125 53.8125 
Q 43.40625 53.8125 47.3125 45.703125 
Q 53.078125 53.8125 63.53125 53.8125 
Q 72.265625 53.8125 76.53125 48.96875 
Q 80.8125 44.140625 80.90625 34.71875 
L 80.90625 0 
L 69.046875 0 
L 69.046875 34.375 
Q 69.046875 39.40625 66.84375 41.75 
Q 64.65625 44.09375 59.578125 44.09375 
Q 55.515625 44.09375 52.953125 41.921875 
Q 50.390625 39.75 49.359375 36.234375 
L 49.421875 0 
L 37.546875 0 
L 37.546875 34.765625 
Q 37.3125 44.09375 28.03125 44.09375 
Q 20.90625 44.09375 17.921875 38.28125 
L 17.921875 0 
L 6.0625 0 
L 6.0625 52.828125 
z
" id="Roboto-Medium-109"/>
       <path d="M 29.34375 -0.984375 
Q 18.0625 -0.984375 11.046875 6.125 
Q 4.046875 13.234375 4.046875 25.046875 
L 4.046875 26.515625 
Q 4.046875 34.421875 7.09375 40.640625 
Q 10.15625 46.875 15.671875 50.34375 
Q 21.1875 53.8125 27.984375 53.8125 
Q 38.765625 53.8125 44.640625 46.921875 
Q 50.53125 40.046875 50.53125 27.4375 
L 50.53125 22.65625 
L 16.015625 22.65625 
Q 16.546875 16.109375 20.375 12.296875 
Q 24.21875 8.5 30.03125 8.5 
Q 38.1875 8.5 43.3125 15.09375 
L 49.703125 8.984375 
Q 46.53125 4.25 41.234375 1.625 
Q 35.9375 -0.984375 29.34375 -0.984375 
z
M 27.9375 44.28125 
Q 23.046875 44.28125 20.046875 40.859375 
Q 17.046875 37.453125 16.21875 31.34375 
L 38.8125 31.34375 
L 38.8125 32.234375 
Q 38.421875 38.1875 35.640625 41.234375 
Q 32.859375 44.28125 27.9375 44.28125 
z
" id="Roboto-Medium-101"/>
       <path d="M 3.859375 26.8125 
Q 3.859375 39.015625 9.515625 46.40625 
Q 15.1875 53.8125 24.703125 53.8125 
Q 33.109375 53.8125 38.28125 47.953125 
L 38.28125 75 
L 50.140625 75 
L 50.140625 0 
L 39.40625 0 
L 38.8125 5.46875 
Q 33.5 -0.984375 24.609375 -0.984375 
Q 15.328125 -0.984375 9.59375 6.484375 
Q 3.859375 13.96875 3.859375 26.8125 
z
M 15.71875 25.78125 
Q 15.71875 17.71875 18.8125 13.203125 
Q 21.921875 8.6875 27.640625 8.6875 
Q 34.90625 8.6875 38.28125 15.1875 
L 38.28125 37.75 
Q 35.015625 44.09375 27.734375 44.09375 
Q 21.96875 44.09375 18.84375 39.53125 
Q 15.71875 34.96875 15.71875 25.78125 
z
" id="Roboto-Medium-100"/>
       <path d="M 18.703125 0 
L 6.84375 0 
L 6.84375 52.828125 
L 18.703125 52.828125 
z
M 6.109375 66.546875 
Q 6.109375 69.28125 7.84375 71.09375 
Q 9.578125 72.90625 12.796875 72.90625 
Q 16.015625 72.90625 17.765625 71.09375 
Q 19.53125 69.28125 19.53125 66.546875 
Q 19.53125 63.875 17.765625 62.078125 
Q 16.015625 60.296875 12.796875 60.296875 
Q 9.578125 60.296875 7.84375 62.078125 
Q 6.109375 63.875 6.109375 66.546875 
z
" id="Roboto-Medium-105"/>
       <path id="Roboto-Medium-32"/>
       <path d="M 35.6875 14.359375 
Q 35.6875 17.53125 33.078125 19.1875 
Q 30.46875 20.84375 24.40625 22.109375 
Q 18.359375 23.390625 14.3125 25.34375 
Q 5.421875 29.640625 5.421875 37.796875 
Q 5.421875 44.625 11.171875 49.21875 
Q 16.9375 53.8125 25.828125 53.8125 
Q 35.296875 53.8125 41.125 49.125 
Q 46.96875 44.4375 46.96875 36.96875 
L 35.109375 36.96875 
Q 35.109375 40.375 32.5625 42.640625 
Q 30.03125 44.921875 25.828125 44.921875 
Q 21.921875 44.921875 19.453125 43.109375 
Q 17 41.3125 17 38.28125 
Q 17 35.546875 19.28125 34.03125 
Q 21.578125 32.515625 28.5625 30.96875 
Q 35.546875 29.4375 39.515625 27.3125 
Q 43.5 25.203125 45.421875 22.21875 
Q 47.359375 19.234375 47.359375 14.984375 
Q 47.359375 7.859375 41.453125 3.4375 
Q 35.546875 -0.984375 25.984375 -0.984375 
Q 19.484375 -0.984375 14.40625 1.359375 
Q 9.328125 3.71875 6.484375 7.8125 
Q 3.65625 11.921875 3.65625 16.65625 
L 15.1875 16.65625 
Q 15.4375 12.453125 18.359375 10.171875 
Q 21.296875 7.90625 26.125 7.90625 
Q 30.8125 7.90625 33.25 9.6875 
Q 35.6875 11.46875 35.6875 14.359375 
z
" id="Roboto-Medium-115"/>
       <path d="M 6.25 28.90625 
Q 6.25 40.1875 9.28125 50.3125 
Q 12.3125 60.453125 18.171875 68.4375 
Q 24.03125 76.421875 30.5625 79.640625 
L 32.90625 72.703125 
Q 26.03125 67.484375 21.75 56.765625 
Q 17.484375 46.046875 17.09375 32.234375 
L 17.046875 28.03125 
Q 17.046875 13.234375 21.21875 1.625 
Q 25.390625 -9.96875 32.90625 -16.015625 
L 30.5625 -22.609375 
Q 24.03125 -19.390625 18.140625 -11.359375 
Q 12.25 -3.328125 9.25 6.75 
Q 6.25 16.84375 6.25 28.90625 
z
" id="Roboto-Medium-40"/>
       <path d="M 18.84375 0 
L 6.984375 0 
L 6.984375 52.828125 
L 18.84375 52.828125 
z
M 16.609375 74.65625 
L 30.125 74.65625 
L 16.609375 59.859375 
L 7.078125 59.859375 
z
" id="Roboto-Medium-237"/>
       <path d="M 28.953125 28.125 
Q 28.953125 17.28125 25.96875 7.203125 
Q 23 -2.875 16.9375 -11.15625 
Q 10.890625 -19.4375 4.296875 -22.609375 
L 1.953125 -16.015625 
Q 9.28125 -10.359375 13.546875 1.28125 
Q 17.828125 12.9375 17.828125 27.875 
L 17.828125 29 
Q 17.828125 42.578125 14.109375 53.734375 
Q 10.40625 64.890625 3.46875 71.625 
L 1.953125 73 
L 4.296875 79.640625 
Q 10.546875 76.609375 16.40625 68.890625 
Q 22.265625 61.1875 25.390625 51.640625 
Q 28.515625 42.09375 28.90625 31.9375 
z
" id="Roboto-Medium-41"/>
      </defs>
      <use xlink:href="#Roboto-Medium-80"/>
      <use x="63.916016" xlink:href="#Roboto-Medium-114"/>
      <use x="99.072266" xlink:href="#Roboto-Medium-111"/>
      <use x="156.005859" xlink:href="#Roboto-Medium-109"/>
      <use x="243.017578" xlink:href="#Roboto-Medium-101"/>
      <use x="296.679688" xlink:href="#Roboto-Medium-100"/>
      <use x="353.125" xlink:href="#Roboto-Medium-105"/>
      <use x="378.662109" xlink:href="#Roboto-Medium-111"/>
      <use x="435.595703" xlink:href="#Roboto-Medium-32"/>
      <use x="460.498047" xlink:href="#Roboto-Medium-115"/>
      <use x="512.109375" xlink:href="#Roboto-Medium-101"/>
      <use x="565.771484" xlink:href="#Roboto-Medium-109"/>
      <use x="652.783203" xlink:href="#Roboto-Medium-97"/>
      <use x="706.884766" xlink:href="#Roboto-Medium-110"/>
      <use x="762.5" xlink:href="#Roboto-Medium-97"/>
      <use x="816.601562" xlink:href="#Roboto-Medium-108"/>
      <use x="842.138672" xlink:href="#Roboto-Medium-32"/>
      <use x="867.041016" xlink:href="#Roboto-Medium-40"/>
      <use x="901.904297" xlink:href="#Roboto-Medium-55"/>
      <use x="958.740234" xlink:href="#Roboto-Medium-32"/>
      <use x="983.642578" xlink:href="#Roboto-Medium-100"/>
      <use x="1040.087891" xlink:href="#Roboto-Medium-237"/>
      <use x="1066.357422" xlink:href="#Roboto-Medium-97"/>
      <use x="1120.458984" xlink:href="#Roboto-Medium-115"/>
      <use x="1172.070312" xlink:href="#Roboto-Medium-41"/>
      <use x="1207.324219" xlink:href="#Roboto-Medium-32"/>
     </g>
    </g>
   </g>
  </g>
 </g>
 <defs>
  <clipPath id="pff9fe00a22">
   <rect height="226.5" width="387.5" x="62.5" y="36"/>
  </clipPath>
 </defs>
</svg>
