<?xml version="1.0" encoding="utf-8" standalone="no"?>
<!DOCTYPE svg PUBLIC "-//W3C//DTD SVG 1.1//EN"
  "http://www.w3.org/Graphics/SVG/1.1/DTD/svg11.dtd">
<!-- Created with matplotlib (https://matplotlib.org/) -->
<svg height="300pt" version="1.1" viewBox="0 0 500 300" width="500pt" xmlns="http://www.w3.org/2000/svg" xmlns:xlink="http://www.w3.org/1999/xlink">
 <metadata>
  <rdf:RDF xmlns:cc="http://creativecommons.org/ns#" xmlns:dc="http://purl.org/dc/elements/1.1/" xmlns:rdf="http://www.w3.org/1999/02/22-rdf-syntax-ns#">
   <cc:Work>
    <dc:type rdf:resource="http://purl.org/dc/dcmitype/StillImage"/>
    <dc:date>2021-06-19T21:11:31.910463</dc:date>
    <dc:format>image/svg+xml</dc:format>
    <dc:creator>
     <cc:Agent>
      <dc:title>Matplotlib v3.3.4, https://matplotlib.org/</dc:title>
     </cc:Agent>
    </dc:creator>
   </cc:Work>
  </rdf:RDF>
 </metadata>
 <defs>
  <style type="text/css">*{stroke-linecap:butt;stroke-linejoin:round;}</style>
 </defs>
 <g id="figure_1">
  <g id="patch_1">
   <path d="M 0 300 
L 500 300 
L 500 0 
L 0 0 
z
" style="fill:#ffffff;"/>
  </g>
  <g id="axes_1">
   <g id="patch_2">
    <path d="M 62.5 262.5 
L 450 262.5 
L 450 27 
L 62.5 27 
z
" style="fill:#ffffff;"/>
   </g>
   <g id="matplotlib.axis_1">
    <g id="xtick_1">
     <g id="line2d_1">
      <defs>
       <path d="M 0 0 
L 0 3.5 
" id="m4f2652673a" style="stroke:#555555;stroke-width:0.8;"/>
      </defs>
      <g>
       <use style="fill:#555555;stroke:#555555;stroke-width:0.8;" x="62.5" xlink:href="#m4f2652673a" y="262.5"/>
      </g>
     </g>
    </g>
    <g id="xtick_2">
     <g id="line2d_2">
      <g>
       <use style="fill:#555555;stroke:#555555;stroke-width:0.8;" x="72.742291" xlink:href="#m4f2652673a" y="262.5"/>
      </g>
     </g>
     <g id="text_1">
      <!-- Apr -->
      <g style="fill:#555555;" transform="translate(64.872759 276.640625)scale(0.1 -0.1)">
       <defs>
        <path d="M 20.09375 29.5 
L 32.203125 62.796875 
L 32.40625 62.796875 
L 44.296875 29.5 
z
M 27.203125 71.40625 
L -0.59375 0 
L 9.09375 0 
L 17.09375 21.5 
L 47.296875 21.5 
L 55.09375 0 
L 65.59375 0 
L 37.703125 71.40625 
z
" id="HelveticaNeue-65"/>
        <path d="M 6.703125 51.703125 
L 6.703125 -19.703125 
L 15.203125 -19.703125 
L 15.203125 6.90625 
L 15.40625 6.90625 
Q 16.796875 4.59375 18.84375 3.046875 
Q 20.90625 1.5 23.203125 0.59375 
Q 25.5 -0.296875 27.84375 -0.6875 
Q 30.203125 -1.09375 32.09375 -1.09375 
Q 38 -1.09375 42.453125 1 
Q 46.90625 3.09375 49.84375 6.75 
Q 52.796875 10.40625 54.25 15.296875 
Q 55.703125 20.203125 55.703125 25.703125 
Q 55.703125 31.203125 54.203125 36.09375 
Q 52.703125 41 49.75 44.75 
Q 46.796875 48.5 42.34375 50.703125 
Q 37.90625 52.90625 31.90625 52.90625 
Q 26.5 52.90625 22 50.953125 
Q 17.5 49 15.40625 44.703125 
L 15.203125 44.703125 
L 15.203125 51.703125 
z
M 46.703125 26.296875 
Q 46.703125 22.5 45.890625 18.890625 
Q 45.09375 15.296875 43.296875 12.5 
Q 41.5 9.703125 38.546875 8 
Q 35.59375 6.296875 31.203125 6.296875 
Q 26.796875 6.296875 23.6875 7.9375 
Q 20.59375 9.59375 18.640625 12.296875 
Q 16.703125 15 15.796875 18.546875 
Q 14.90625 22.09375 14.90625 25.90625 
Q 14.90625 29.5 15.75 33 
Q 16.59375 36.5 18.5 39.25 
Q 20.40625 42 23.40625 43.703125 
Q 26.40625 45.40625 30.703125 45.40625 
Q 34.796875 45.40625 37.84375 43.796875 
Q 40.90625 42.203125 42.84375 39.5 
Q 44.796875 36.796875 45.75 33.34375 
Q 46.703125 29.90625 46.703125 26.296875 
z
" id="HelveticaNeue-112"/>
        <path d="M 6.09375 51.703125 
L 6.09375 0 
L 14.59375 0 
L 14.59375 23 
Q 14.59375 28 15.59375 31.84375 
Q 16.59375 35.703125 18.796875 38.390625 
Q 21 41.09375 24.59375 42.5 
Q 28.203125 43.90625 33.296875 43.90625 
L 33.296875 52.90625 
Q 26.40625 53.09375 21.90625 50.09375 
Q 17.40625 47.09375 14.296875 40.796875 
L 14.09375 40.796875 
L 14.09375 51.703125 
z
" id="HelveticaNeue-114"/>
       </defs>
       <use xlink:href="#HelveticaNeue-65"/>
       <use x="64.799988" xlink:href="#HelveticaNeue-112"/>
       <use x="124.099976" xlink:href="#HelveticaNeue-114"/>
      </g>
     </g>
    </g>
    <g id="xtick_3">
     <g id="line2d_3">
      <g>
       <use style="fill:#555555;stroke:#555555;stroke-width:0.8;" x="150.412996" xlink:href="#m4f2652673a" y="262.5"/>
      </g>
     </g>
     <g id="text_2">
      <!-- Jul -->
      <g style="fill:#555555;" transform="translate(143.927839 276.640625)scale(0.1 -0.1)">
       <defs>
        <path d="M 44.09375 17.796875 
L 44.09375 71.40625 
L 34.59375 71.40625 
L 34.59375 19.203125 
Q 34.59375 13.296875 32.140625 9.796875 
Q 29.703125 6.296875 23.203125 6.296875 
Q 19.703125 6.296875 17.453125 7.34375 
Q 15.203125 8.40625 13.953125 10.296875 
Q 12.703125 12.203125 12.203125 14.796875 
Q 11.703125 17.40625 11.703125 20.5 
L 11.703125 23.5 
L 2.203125 23.5 
L 2.203125 19.09375 
Q 2.203125 8.90625 7.59375 3.65625 
Q 13 -1.59375 23 -1.59375 
Q 29 -1.59375 33.046875 0.046875 
Q 37.09375 1.703125 39.546875 4.453125 
Q 42 7.203125 43.046875 10.703125 
Q 44.09375 14.203125 44.09375 17.796875 
z
" id="HelveticaNeue-74"/>
        <path d="M 49.203125 0 
L 49.203125 51.703125 
L 40.703125 51.703125 
L 40.703125 22.5 
Q 40.703125 19 39.75 16.046875 
Q 38.796875 13.09375 36.890625 10.890625 
Q 35 8.703125 32.140625 7.5 
Q 29.296875 6.296875 25.40625 6.296875 
Q 20.5 6.296875 17.703125 9.09375 
Q 14.90625 11.90625 14.90625 16.703125 
L 14.90625 51.703125 
L 6.40625 51.703125 
L 6.40625 17.703125 
Q 6.40625 13.5 7.25 10.046875 
Q 8.09375 6.59375 10.1875 4.09375 
Q 12.296875 1.59375 15.6875 0.25 
Q 19.09375 -1.09375 24.203125 -1.09375 
Q 29.90625 -1.09375 34.09375 1.15625 
Q 38.296875 3.40625 41 8.203125 
L 41.203125 8.203125 
L 41.203125 0 
z
" id="HelveticaNeue-117"/>
        <path d="M 6.90625 71.40625 
L 6.90625 0 
L 15.40625 0 
L 15.40625 71.40625 
z
" id="HelveticaNeue-108"/>
       </defs>
       <use xlink:href="#HelveticaNeue-74"/>
       <use x="51.899994" xlink:href="#HelveticaNeue-117"/>
       <use x="107.499985" xlink:href="#HelveticaNeue-108"/>
      </g>
     </g>
    </g>
    <g id="xtick_4">
     <g id="line2d_4">
      <g>
       <use style="fill:#555555;stroke:#555555;stroke-width:0.8;" x="228.937225" xlink:href="#m4f2652673a" y="262.5"/>
      </g>
     </g>
     <g id="text_3">
      <!-- Oct -->
      <g style="fill:#555555;" transform="translate(220.877068 276.640625)scale(0.1 -0.1)">
       <defs>
        <path d="M 13.296875 35.703125 
Q 13.296875 41.09375 14.6875 46.34375 
Q 16.09375 51.59375 19.09375 55.796875 
Q 22.09375 60 26.796875 62.546875 
Q 31.5 65.09375 38 65.09375 
Q 44.5 65.09375 49.203125 62.546875 
Q 53.90625 60 56.90625 55.796875 
Q 59.90625 51.59375 61.296875 46.34375 
Q 62.703125 41.09375 62.703125 35.703125 
Q 62.703125 30.296875 61.296875 25.046875 
Q 59.90625 19.796875 56.90625 15.59375 
Q 53.90625 11.40625 49.203125 8.84375 
Q 44.5 6.296875 38 6.296875 
Q 31.5 6.296875 26.796875 8.84375 
Q 22.09375 11.40625 19.09375 15.59375 
Q 16.09375 19.796875 14.6875 25.046875 
Q 13.296875 30.296875 13.296875 35.703125 
z
M 3.796875 35.703125 
Q 3.796875 28.40625 5.9375 21.65625 
Q 8.09375 14.90625 12.390625 9.703125 
Q 16.703125 4.5 23.09375 1.453125 
Q 29.5 -1.59375 38 -1.59375 
Q 46.5 -1.59375 52.890625 1.453125 
Q 59.296875 4.5 63.59375 9.703125 
Q 67.90625 14.90625 70.046875 21.65625 
Q 72.203125 28.40625 72.203125 35.703125 
Q 72.203125 43 70.046875 49.75 
Q 67.90625 56.5 63.59375 61.703125 
Q 59.296875 66.90625 52.890625 70 
Q 46.5 73.09375 38 73.09375 
Q 29.5 73.09375 23.09375 70 
Q 16.703125 66.90625 12.390625 61.703125 
Q 8.09375 56.5 5.9375 49.75 
Q 3.796875 43 3.796875 35.703125 
z
" id="HelveticaNeue-79"/>
        <path d="M 41.5 35.09375 
L 50.296875 35.09375 
Q 49.796875 39.703125 47.890625 43.046875 
Q 46 46.40625 43.046875 48.59375 
Q 40.09375 50.796875 36.25 51.84375 
Q 32.40625 52.90625 28 52.90625 
Q 21.90625 52.90625 17.296875 50.75 
Q 12.703125 48.59375 9.640625 44.84375 
Q 6.59375 41.09375 5.09375 36.046875 
Q 3.59375 31 3.59375 25.203125 
Q 3.59375 19.40625 5.140625 14.546875 
Q 6.703125 9.703125 9.75 6.203125 
Q 12.796875 2.703125 17.34375 0.796875 
Q 21.90625 -1.09375 27.796875 -1.09375 
Q 37.703125 -1.09375 43.453125 4.09375 
Q 49.203125 9.296875 50.59375 18.90625 
L 41.90625 18.90625 
Q 41.09375 12.90625 37.546875 9.59375 
Q 34 6.296875 27.703125 6.296875 
Q 23.703125 6.296875 20.796875 7.890625 
Q 17.90625 9.5 16.09375 12.140625 
Q 14.296875 14.796875 13.4375 18.1875 
Q 12.59375 21.59375 12.59375 25.203125 
Q 12.59375 29.09375 13.390625 32.75 
Q 14.203125 36.40625 16.046875 39.203125 
Q 17.90625 42 21 43.703125 
Q 24.09375 45.40625 28.703125 45.40625 
Q 34.09375 45.40625 37.296875 42.703125 
Q 40.5 40 41.5 35.09375 
z
" id="HelveticaNeue-99"/>
        <path d="M 18.203125 51.703125 
L 18.203125 67.203125 
L 9.703125 67.203125 
L 9.703125 51.703125 
L 0.90625 51.703125 
L 0.90625 44.203125 
L 9.703125 44.203125 
L 9.703125 11.296875 
Q 9.703125 7.703125 10.390625 5.5 
Q 11.09375 3.296875 12.546875 2.09375 
Q 14 0.90625 16.34375 0.453125 
Q 18.703125 0 22 0 
L 28.5 0 
L 28.5 7.5 
L 24.59375 7.5 
Q 22.59375 7.5 21.34375 7.640625 
Q 20.09375 7.796875 19.390625 8.296875 
Q 18.703125 8.796875 18.453125 9.6875 
Q 18.203125 10.59375 18.203125 12.09375 
L 18.203125 44.203125 
L 28.5 44.203125 
L 28.5 51.703125 
z
" id="HelveticaNeue-116"/>
       </defs>
       <use xlink:href="#HelveticaNeue-79"/>
       <use x="75.999985" xlink:href="#HelveticaNeue-99"/>
       <use x="129.699982" xlink:href="#HelveticaNeue-116"/>
      </g>
     </g>
    </g>
    <g id="xtick_5">
     <g id="line2d_5">
      <g>
       <use style="fill:#555555;stroke:#555555;stroke-width:0.8;" x="307.461454" xlink:href="#m4f2652673a" y="262.5"/>
      </g>
     </g>
     <g id="text_4">
      <!-- Jan -->
      <g style="fill:#555555;" transform="translate(299.401297 276.640625)scale(0.1 -0.1)">
       <defs>
        <path d="M 52.203125 0.203125 
Q 50 -1.09375 46.09375 -1.09375 
Q 42.796875 -1.09375 40.84375 0.75 
Q 38.90625 2.59375 38.90625 6.796875 
Q 35.40625 2.59375 30.75 0.75 
Q 26.09375 -1.09375 20.703125 -1.09375 
Q 17.203125 -1.09375 14.046875 -0.296875 
Q 10.90625 0.5 8.59375 2.203125 
Q 6.296875 3.90625 4.9375 6.65625 
Q 3.59375 9.40625 3.59375 13.296875 
Q 3.59375 17.703125 5.09375 20.5 
Q 6.59375 23.296875 9.046875 25.046875 
Q 11.5 26.796875 14.640625 27.6875 
Q 17.796875 28.59375 21.09375 29.203125 
Q 24.59375 29.90625 27.75 30.25 
Q 30.90625 30.59375 33.296875 31.25 
Q 35.703125 31.90625 37.09375 33.15625 
Q 38.5 34.40625 38.5 36.796875 
Q 38.5 39.59375 37.453125 41.296875 
Q 36.40625 43 34.75 43.890625 
Q 33.09375 44.796875 31.046875 45.09375 
Q 29 45.40625 27 45.40625 
Q 21.59375 45.40625 18 43.34375 
Q 14.40625 41.296875 14.09375 35.59375 
L 5.59375 35.59375 
Q 5.796875 40.40625 7.59375 43.703125 
Q 9.40625 47 12.40625 49.046875 
Q 15.40625 51.09375 19.25 52 
Q 23.09375 52.90625 27.5 52.90625 
Q 31 52.90625 34.453125 52.40625 
Q 37.90625 51.90625 40.703125 50.34375 
Q 43.5 48.796875 45.203125 46 
Q 46.90625 43.203125 46.90625 38.703125 
L 46.90625 12.09375 
Q 46.90625 9.09375 47.25 7.6875 
Q 47.59375 6.296875 49.59375 6.296875 
Q 50.703125 6.296875 52.203125 6.796875 
z
M 38.40625 26.703125 
Q 36.796875 25.5 34.1875 24.953125 
Q 31.59375 24.40625 28.75 24.046875 
Q 25.90625 23.703125 23 23.25 
Q 20.09375 22.796875 17.796875 21.796875 
Q 15.5 20.796875 14.046875 18.9375 
Q 12.59375 17.09375 12.59375 13.90625 
Q 12.59375 11.796875 13.4375 10.34375 
Q 14.296875 8.90625 15.640625 8 
Q 17 7.09375 18.796875 6.6875 
Q 20.59375 6.296875 22.59375 6.296875 
Q 26.796875 6.296875 29.796875 7.4375 
Q 32.796875 8.59375 34.6875 10.34375 
Q 36.59375 12.09375 37.5 14.140625 
Q 38.40625 16.203125 38.40625 18 
z
" id="HelveticaNeue-97"/>
        <path d="M 6.40625 51.703125 
L 6.40625 0 
L 14.90625 0 
L 14.90625 29.203125 
Q 14.90625 32.703125 15.84375 35.640625 
Q 16.796875 38.59375 18.6875 40.796875 
Q 20.59375 43 23.4375 44.203125 
Q 26.296875 45.40625 30.203125 45.40625 
Q 35.09375 45.40625 37.890625 42.59375 
Q 40.703125 39.796875 40.703125 35 
L 40.703125 0 
L 49.203125 0 
L 49.203125 34 
Q 49.203125 38.203125 48.34375 41.640625 
Q 47.5 45.09375 45.390625 47.59375 
Q 43.296875 50.09375 39.890625 51.5 
Q 36.5 52.90625 31.40625 52.90625 
Q 19.90625 52.90625 14.59375 43.5 
L 14.40625 43.5 
L 14.40625 51.703125 
z
" id="HelveticaNeue-110"/>
       </defs>
       <use xlink:href="#HelveticaNeue-74"/>
       <use x="51.899994" xlink:href="#HelveticaNeue-97"/>
       <use x="105.599991" xlink:href="#HelveticaNeue-110"/>
      </g>
      <!-- 2021 -->
      <g style="fill:#555555;" transform="translate(296.342704 287.179688)scale(0.1 -0.1)">
       <defs>
        <path d="M 4.40625 45.796875 
L 12.90625 45.796875 
Q 12.796875 49 13.546875 52.140625 
Q 14.296875 55.296875 16 57.796875 
Q 17.703125 60.296875 20.34375 61.84375 
Q 23 63.40625 26.703125 63.40625 
Q 29.5 63.40625 32 62.5 
Q 34.5 61.59375 36.34375 59.890625 
Q 38.203125 58.203125 39.296875 55.84375 
Q 40.40625 53.5 40.40625 50.59375 
Q 40.40625 46.90625 39.25 44.09375 
Q 38.09375 41.296875 35.84375 38.890625 
Q 33.59375 36.5 30.1875 34.140625 
Q 26.796875 31.796875 22.296875 29 
Q 18.59375 26.796875 15.1875 24.296875 
Q 11.796875 21.796875 9.09375 18.5 
Q 6.40625 15.203125 4.65625 10.75 
Q 2.90625 6.296875 2.40625 0 
L 48.703125 0 
L 48.703125 7.5 
L 12.296875 7.5 
Q 12.90625 10.796875 14.84375 13.34375 
Q 16.796875 15.90625 19.546875 18.09375 
Q 22.296875 20.296875 25.59375 22.25 
Q 28.90625 24.203125 32.203125 26.203125 
Q 35.5 28.296875 38.59375 30.59375 
Q 41.703125 32.90625 44.09375 35.75 
Q 46.5 38.59375 47.953125 42.1875 
Q 49.40625 45.796875 49.40625 50.5 
Q 49.40625 55.5 47.65625 59.296875 
Q 45.90625 63.09375 42.90625 65.640625 
Q 39.90625 68.203125 35.84375 69.546875 
Q 31.796875 70.90625 27.203125 70.90625 
Q 21.59375 70.90625 17.1875 69 
Q 12.796875 67.09375 9.84375 63.75 
Q 6.90625 60.40625 5.5 55.796875 
Q 4.09375 51.203125 4.40625 45.796875 
z
" id="HelveticaNeue-50"/>
        <path d="M 13.203125 34.90625 
Q 13.203125 37.5 13.25 40.640625 
Q 13.296875 43.796875 13.75 46.9375 
Q 14.203125 50.09375 15.046875 53.09375 
Q 15.90625 56.09375 17.546875 58.34375 
Q 19.203125 60.59375 21.703125 62 
Q 24.203125 63.40625 27.796875 63.40625 
Q 31.40625 63.40625 33.90625 62 
Q 36.40625 60.59375 38.046875 58.34375 
Q 39.703125 56.09375 40.546875 53.09375 
Q 41.40625 50.09375 41.84375 46.9375 
Q 42.296875 43.796875 42.34375 40.640625 
Q 42.40625 37.5 42.40625 34.90625 
Q 42.40625 30.90625 42.15625 25.953125 
Q 41.90625 21 40.546875 16.640625 
Q 39.203125 12.296875 36.203125 9.296875 
Q 33.203125 6.296875 27.796875 6.296875 
Q 22.40625 6.296875 19.40625 9.296875 
Q 16.40625 12.296875 15.046875 16.640625 
Q 13.703125 21 13.453125 25.953125 
Q 13.203125 30.90625 13.203125 34.90625 
z
M 4.203125 34.796875 
Q 4.203125 30.90625 4.390625 26.703125 
Q 4.59375 22.5 5.390625 18.5 
Q 6.203125 14.5 7.703125 10.953125 
Q 9.203125 7.40625 11.796875 4.703125 
Q 14.40625 2 18.34375 0.453125 
Q 22.296875 -1.09375 27.796875 -1.09375 
Q 33.40625 -1.09375 37.296875 0.453125 
Q 41.203125 2 43.796875 4.703125 
Q 46.40625 7.40625 47.90625 10.953125 
Q 49.40625 14.5 50.203125 18.5 
Q 51 22.5 51.203125 26.703125 
Q 51.40625 30.90625 51.40625 34.796875 
Q 51.40625 38.703125 51.203125 42.890625 
Q 51 47.09375 50.203125 51.09375 
Q 49.40625 55.09375 47.90625 58.6875 
Q 46.40625 62.296875 43.796875 65 
Q 41.203125 67.703125 37.25 69.296875 
Q 33.296875 70.90625 27.796875 70.90625 
Q 22.296875 70.90625 18.34375 69.296875 
Q 14.40625 67.703125 11.796875 65 
Q 9.203125 62.296875 7.703125 58.6875 
Q 6.203125 55.09375 5.390625 51.09375 
Q 4.59375 47.09375 4.390625 42.890625 
Q 4.203125 38.703125 4.203125 34.796875 
z
" id="HelveticaNeue-48"/>
        <path d="M 35.59375 0 
L 35.59375 70.90625 
L 29.09375 70.90625 
Q 28.40625 66.90625 26.5 64.296875 
Q 24.59375 61.703125 21.84375 60.203125 
Q 19.09375 58.703125 15.6875 58.140625 
Q 12.296875 57.59375 8.703125 57.59375 
L 8.703125 50.796875 
L 27.09375 50.796875 
L 27.09375 0 
z
" id="HelveticaNeue-49"/>
       </defs>
       <use xlink:href="#HelveticaNeue-50"/>
       <use x="55.599991" xlink:href="#HelveticaNeue-48"/>
       <use x="111.199982" xlink:href="#HelveticaNeue-50"/>
       <use x="166.799973" xlink:href="#HelveticaNeue-49"/>
      </g>
     </g>
    </g>
    <g id="xtick_6">
     <g id="line2d_6">
      <g>
       <use style="fill:#555555;stroke:#555555;stroke-width:0.8;" x="384.278634" xlink:href="#m4f2652673a" y="262.5"/>
      </g>
     </g>
     <g id="text_5">
      <!-- Apr -->
      <g style="fill:#555555;" transform="translate(376.409103 276.640625)scale(0.1 -0.1)">
       <use xlink:href="#HelveticaNeue-65"/>
       <use x="64.799988" xlink:href="#HelveticaNeue-112"/>
       <use x="124.099976" xlink:href="#HelveticaNeue-114"/>
      </g>
     </g>
    </g>
    <g id="xtick_7">
     <g id="line2d_7">
      <g>
       <use style="fill:#555555;stroke:#555555;stroke-width:0.8;" x="450" xlink:href="#m4f2652673a" y="262.5"/>
      </g>
     </g>
    </g>
    <g id="xtick_8">
     <g id="line2d_8">
      <defs>
       <path d="M 0 0 
L 0 2 
" id="m4cbf9bd67a" style="stroke:#555555;stroke-width:0.6;"/>
      </defs>
      <g>
       <use style="fill:#555555;stroke:#555555;stroke-width:0.6;" x="98.348018" xlink:href="#m4cbf9bd67a" y="262.5"/>
      </g>
     </g>
    </g>
    <g id="xtick_9">
     <g id="line2d_9">
      <g>
       <use style="fill:#555555;stroke:#555555;stroke-width:0.6;" x="124.807269" xlink:href="#m4cbf9bd67a" y="262.5"/>
      </g>
     </g>
    </g>
    <g id="xtick_10">
     <g id="line2d_10">
      <g>
       <use style="fill:#555555;stroke:#555555;stroke-width:0.6;" x="176.872247" xlink:href="#m4cbf9bd67a" y="262.5"/>
      </g>
     </g>
    </g>
    <g id="xtick_11">
     <g id="line2d_11">
      <g>
       <use style="fill:#555555;stroke:#555555;stroke-width:0.6;" x="203.331498" xlink:href="#m4cbf9bd67a" y="262.5"/>
      </g>
     </g>
    </g>
    <g id="xtick_12">
     <g id="line2d_12">
      <g>
       <use style="fill:#555555;stroke:#555555;stroke-width:0.6;" x="255.396476" xlink:href="#m4cbf9bd67a" y="262.5"/>
      </g>
     </g>
    </g>
    <g id="xtick_13">
     <g id="line2d_13">
      <g>
       <use style="fill:#555555;stroke:#555555;stroke-width:0.6;" x="281.002203" xlink:href="#m4cbf9bd67a" y="262.5"/>
      </g>
     </g>
    </g>
    <g id="xtick_14">
     <g id="line2d_14">
      <g>
       <use style="fill:#555555;stroke:#555555;stroke-width:0.6;" x="333.920705" xlink:href="#m4cbf9bd67a" y="262.5"/>
      </g>
     </g>
    </g>
    <g id="xtick_15">
     <g id="line2d_15">
      <g>
       <use style="fill:#555555;stroke:#555555;stroke-width:0.6;" x="357.819383" xlink:href="#m4cbf9bd67a" y="262.5"/>
      </g>
     </g>
    </g>
    <g id="xtick_16">
     <g id="line2d_16">
      <g>
       <use style="fill:#555555;stroke:#555555;stroke-width:0.6;" x="409.884361" xlink:href="#m4cbf9bd67a" y="262.5"/>
      </g>
     </g>
    </g>
    <g id="xtick_17">
     <g id="line2d_17">
      <g>
       <use style="fill:#555555;stroke:#555555;stroke-width:0.6;" x="436.343612" xlink:href="#m4cbf9bd67a" y="262.5"/>
      </g>
     </g>
    </g>
    <g id="text_6">
     <!-- fecha -->
     <g style="fill:#555555;" transform="translate(243.935156 300.290625)scale(0.1 -0.1)">
      <defs>
       <path d="M 9.90625 44.203125 
L 9.90625 0 
L 18.40625 0 
L 18.40625 44.203125 
L 28.40625 44.203125 
L 28.40625 51.703125 
L 18.40625 51.703125 
L 18.40625 58.90625 
Q 18.40625 62.296875 20.09375 63.5 
Q 21.796875 64.703125 24.90625 64.703125 
Q 26 64.703125 27.296875 64.546875 
Q 28.59375 64.40625 29.703125 64 
L 29.703125 71.40625 
Q 28.5 71.796875 26.953125 72 
Q 25.40625 72.203125 24.203125 72.203125 
Q 17.203125 72.203125 13.546875 68.953125 
Q 9.90625 65.703125 9.90625 59.40625 
L 9.90625 51.703125 
L 1.203125 51.703125 
L 1.203125 44.203125 
z
" id="HelveticaNeue-102"/>
       <path d="M 42.296875 30.796875 
L 12.59375 30.796875 
Q 12.796875 33.796875 13.890625 36.4375 
Q 15 39.09375 16.890625 41.09375 
Q 18.796875 43.09375 21.4375 44.25 
Q 24.09375 45.40625 27.40625 45.40625 
Q 30.59375 45.40625 33.25 44.25 
Q 35.90625 43.09375 37.84375 41.140625 
Q 39.796875 39.203125 40.9375 36.5 
Q 42.09375 33.796875 42.296875 30.796875 
z
M 50.5 16.40625 
L 42.09375 16.40625 
Q 41 11.296875 37.546875 8.796875 
Q 34.09375 6.296875 28.703125 6.296875 
Q 24.5 6.296875 21.390625 7.6875 
Q 18.296875 9.09375 16.296875 11.4375 
Q 14.296875 13.796875 13.390625 16.84375 
Q 12.5 19.90625 12.59375 23.296875 
L 51.296875 23.296875 
Q 51.5 28 50.453125 33.203125 
Q 49.40625 38.40625 46.65625 42.796875 
Q 43.90625 47.203125 39.34375 50.046875 
Q 34.796875 52.90625 27.90625 52.90625 
Q 22.59375 52.90625 18.140625 50.90625 
Q 13.703125 48.90625 10.453125 45.296875 
Q 7.203125 41.703125 5.390625 36.796875 
Q 3.59375 31.90625 3.59375 26 
Q 3.796875 20.09375 5.34375 15.09375 
Q 6.90625 10.09375 10 6.5 
Q 13.09375 2.90625 17.640625 0.90625 
Q 22.203125 -1.09375 28.40625 -1.09375 
Q 37.203125 -1.09375 43 3.296875 
Q 48.796875 7.703125 50.5 16.40625 
z
" id="HelveticaNeue-101"/>
       <path d="M 6.40625 71.40625 
L 6.40625 0 
L 14.90625 0 
L 14.90625 29.203125 
Q 14.90625 32.703125 15.84375 35.640625 
Q 16.796875 38.59375 18.6875 40.796875 
Q 20.59375 43 23.4375 44.203125 
Q 26.296875 45.40625 30.203125 45.40625 
Q 35.09375 45.40625 37.890625 42.59375 
Q 40.703125 39.796875 40.703125 35 
L 40.703125 0 
L 49.203125 0 
L 49.203125 34 
Q 49.203125 38.203125 48.34375 41.640625 
Q 47.5 45.09375 45.390625 47.59375 
Q 43.296875 50.09375 39.890625 51.5 
Q 36.5 52.90625 31.40625 52.90625 
Q 29.09375 52.90625 26.640625 52.40625 
Q 24.203125 51.90625 21.953125 50.84375 
Q 19.703125 49.796875 17.890625 48.140625 
Q 16.09375 46.5 15.09375 44.09375 
L 14.90625 44.09375 
L 14.90625 71.40625 
z
" id="HelveticaNeue-104"/>
      </defs>
      <use xlink:href="#HelveticaNeue-102"/>
      <use x="29.599991" xlink:href="#HelveticaNeue-101"/>
      <use x="83.299988" xlink:href="#HelveticaNeue-99"/>
      <use x="136.999985" xlink:href="#HelveticaNeue-104"/>
      <use x="192.599976" xlink:href="#HelveticaNeue-97"/>
     </g>
    </g>
   </g>
   <g id="matplotlib.axis_2">
    <g id="ytick_1">
     <g id="line2d_18">
      <defs>
       <path d="M 0 0 
L -3.5 0 
" id="m8966493fbb" style="stroke:#555555;stroke-width:0.8;"/>
      </defs>
      <g>
       <use style="fill:#555555;stroke:#555555;stroke-width:0.8;" x="62.5" xlink:href="#m8966493fbb" y="251.795455"/>
      </g>
     </g>
     <g id="text_7">
      <!-- 0 -->
      <g style="fill:#555555;" transform="translate(49.940625 255.365767)scale(0.1 -0.1)">
       <use xlink:href="#HelveticaNeue-48"/>
      </g>
     </g>
    </g>
    <g id="ytick_2">
     <g id="line2d_19">
      <g>
       <use style="fill:#555555;stroke:#555555;stroke-width:0.8;" x="62.5" xlink:href="#m8966493fbb" y="225.100827"/>
      </g>
     </g>
     <g id="text_8">
      <!-- 200 -->
      <g style="fill:#555555;" transform="translate(38.821875 228.67114)scale(0.1 -0.1)">
       <use xlink:href="#HelveticaNeue-50"/>
       <use x="55.599991" xlink:href="#HelveticaNeue-48"/>
       <use x="111.199982" xlink:href="#HelveticaNeue-48"/>
      </g>
     </g>
    </g>
    <g id="ytick_3">
     <g id="line2d_20">
      <g>
       <use style="fill:#555555;stroke:#555555;stroke-width:0.8;" x="62.5" xlink:href="#m8966493fbb" y="198.4062"/>
      </g>
     </g>
     <g id="text_9">
      <!-- 400 -->
      <g style="fill:#555555;" transform="translate(38.821875 201.976513)scale(0.1 -0.1)">
       <defs>
        <path d="M 33.90625 24.09375 
L 10.09375 24.09375 
L 33.703125 58.796875 
L 33.90625 58.796875 
z
M 41.90625 24.09375 
L 41.90625 70.90625 
L 35.09375 70.90625 
L 2.796875 24.796875 
L 2.796875 16.59375 
L 33.90625 16.59375 
L 33.90625 0 
L 41.90625 0 
L 41.90625 16.59375 
L 51.5 16.59375 
L 51.5 24.09375 
z
" id="HelveticaNeue-52"/>
       </defs>
       <use xlink:href="#HelveticaNeue-52"/>
       <use x="55.599991" xlink:href="#HelveticaNeue-48"/>
       <use x="111.199982" xlink:href="#HelveticaNeue-48"/>
      </g>
     </g>
    </g>
    <g id="ytick_4">
     <g id="line2d_21">
      <g>
       <use style="fill:#555555;stroke:#555555;stroke-width:0.8;" x="62.5" xlink:href="#m8966493fbb" y="171.711573"/>
      </g>
     </g>
     <g id="text_10">
      <!-- 600 -->
      <g style="fill:#555555;" transform="translate(38.821875 175.281886)scale(0.1 -0.1)">
       <defs>
        <path d="M 41.40625 52.796875 
L 49.90625 52.796875 
Q 49.09375 61.59375 43.890625 66.25 
Q 38.703125 70.90625 29.90625 70.90625 
Q 22.296875 70.90625 17.296875 67.703125 
Q 12.296875 64.5 9.296875 59.203125 
Q 6.296875 53.90625 5.046875 47.046875 
Q 3.796875 40.203125 3.796875 32.90625 
Q 3.796875 27.296875 4.640625 21.296875 
Q 5.5 15.296875 8.09375 10.296875 
Q 10.703125 5.296875 15.5 2.09375 
Q 20.296875 -1.09375 28.203125 -1.09375 
Q 34.90625 -1.09375 39.453125 1.15625 
Q 44 3.40625 46.75 6.84375 
Q 49.5 10.296875 50.703125 14.5 
Q 51.90625 18.703125 51.90625 22.59375 
Q 51.90625 27.5 50.40625 31.703125 
Q 48.90625 35.90625 46.15625 39 
Q 43.40625 42.09375 39.34375 43.84375 
Q 35.296875 45.59375 30.203125 45.59375 
Q 24.40625 45.59375 19.953125 43.390625 
Q 15.5 41.203125 12.5 36.296875 
L 12.296875 36.5 
Q 12.40625 40.59375 13.09375 45.296875 
Q 13.796875 50 15.640625 54.046875 
Q 17.5 58.09375 20.796875 60.75 
Q 24.09375 63.40625 29.5 63.40625 
Q 34.59375 63.40625 37.6875 60.5 
Q 40.796875 57.59375 41.40625 52.796875 
z
M 28.59375 38.09375 
Q 32.203125 38.09375 34.890625 36.796875 
Q 37.59375 35.5 39.390625 33.34375 
Q 41.203125 31.203125 42.046875 28.25 
Q 42.90625 25.296875 42.90625 22 
Q 42.90625 18.90625 41.953125 16.046875 
Q 41 13.203125 39.203125 11 
Q 37.40625 8.796875 34.75 7.546875 
Q 32.09375 6.296875 28.59375 6.296875 
Q 25.09375 6.296875 22.34375 7.546875 
Q 19.59375 8.796875 17.75 10.890625 
Q 15.90625 13 14.90625 15.890625 
Q 13.90625 18.796875 13.90625 22.09375 
Q 13.90625 25.40625 14.84375 28.34375 
Q 15.796875 31.296875 17.6875 33.4375 
Q 19.59375 35.59375 22.296875 36.84375 
Q 25 38.09375 28.59375 38.09375 
z
" id="HelveticaNeue-54"/>
       </defs>
       <use xlink:href="#HelveticaNeue-54"/>
       <use x="55.599991" xlink:href="#HelveticaNeue-48"/>
       <use x="111.199982" xlink:href="#HelveticaNeue-48"/>
      </g>
     </g>
    </g>
    <g id="ytick_5">
     <g id="line2d_22">
      <g>
       <use style="fill:#555555;stroke:#555555;stroke-width:0.8;" x="62.5" xlink:href="#m8966493fbb" y="145.016946"/>
      </g>
     </g>
     <g id="text_11">
      <!-- 800 -->
      <g style="fill:#555555;" transform="translate(38.821875 148.587259)scale(0.1 -0.1)">
       <defs>
        <path d="M 15.5 52.5 
Q 15.5 55.203125 16.5 57.203125 
Q 17.5 59.203125 19.140625 60.59375 
Q 20.796875 62 23.09375 62.703125 
Q 25.40625 63.40625 27.90625 63.40625 
Q 33.09375 63.40625 36.4375 60.65625 
Q 39.796875 57.90625 39.796875 52.5 
Q 39.796875 47.09375 36.5 44.09375 
Q 33.203125 41.09375 28.09375 41.09375 
Q 25.5 41.09375 23.203125 41.796875 
Q 20.90625 42.5 19.203125 43.890625 
Q 17.5 45.296875 16.5 47.4375 
Q 15.5 49.59375 15.5 52.5 
z
M 6.5 52.796875 
Q 6.5 48 9.203125 43.953125 
Q 11.90625 39.90625 16.40625 38.09375 
Q 10.40625 36 7.203125 31.34375 
Q 4 26.703125 4 20.40625 
Q 4 15 5.84375 10.953125 
Q 7.703125 6.90625 10.953125 4.203125 
Q 14.203125 1.5 18.59375 0.203125 
Q 23 -1.09375 28.09375 -1.09375 
Q 33 -1.09375 37.296875 0.296875 
Q 41.59375 1.703125 44.75 4.453125 
Q 47.90625 7.203125 49.75 11.203125 
Q 51.59375 15.203125 51.59375 20.40625 
Q 51.59375 27 48.5 31.546875 
Q 45.40625 36.09375 39 38.09375 
Q 43.5 40.09375 46.140625 44.046875 
Q 48.796875 48 48.796875 52.796875 
Q 48.796875 56.203125 47.59375 59.453125 
Q 46.40625 62.703125 43.84375 65.25 
Q 41.296875 67.796875 37.1875 69.34375 
Q 33.09375 70.90625 27.296875 70.90625 
Q 23.203125 70.90625 19.453125 69.703125 
Q 15.703125 68.5 12.796875 66.203125 
Q 9.90625 63.90625 8.203125 60.546875 
Q 6.5 57.203125 6.5 52.796875 
z
M 13 20 
Q 13 23.09375 14.140625 25.59375 
Q 15.296875 28.09375 17.34375 29.890625 
Q 19.40625 31.703125 22.15625 32.640625 
Q 24.90625 33.59375 28 33.59375 
Q 31 33.59375 33.640625 32.546875 
Q 36.296875 31.5 38.296875 29.703125 
Q 40.296875 27.90625 41.4375 25.453125 
Q 42.59375 23 42.59375 20.09375 
Q 42.59375 17.09375 41.546875 14.59375 
Q 40.5 12.09375 38.546875 10.25 
Q 36.59375 8.40625 33.9375 7.34375 
Q 31.296875 6.296875 28.09375 6.296875 
Q 21.5 6.296875 17.25 9.9375 
Q 13 13.59375 13 20 
z
" id="HelveticaNeue-56"/>
       </defs>
       <use xlink:href="#HelveticaNeue-56"/>
       <use x="55.599991" xlink:href="#HelveticaNeue-48"/>
       <use x="111.199982" xlink:href="#HelveticaNeue-48"/>
      </g>
     </g>
    </g>
    <g id="ytick_6">
     <g id="line2d_23">
      <g>
       <use style="fill:#555555;stroke:#555555;stroke-width:0.8;" x="62.5" xlink:href="#m8966493fbb" y="118.322319"/>
      </g>
     </g>
     <g id="text_12">
      <!-- 1000 -->
      <g style="fill:#555555;" transform="translate(33.2625 121.892632)scale(0.1 -0.1)">
       <use xlink:href="#HelveticaNeue-49"/>
       <use x="55.599991" xlink:href="#HelveticaNeue-48"/>
       <use x="111.199982" xlink:href="#HelveticaNeue-48"/>
       <use x="166.799973" xlink:href="#HelveticaNeue-48"/>
      </g>
     </g>
    </g>
    <g id="ytick_7">
     <g id="line2d_24">
      <g>
       <use style="fill:#555555;stroke:#555555;stroke-width:0.8;" x="62.5" xlink:href="#m8966493fbb" y="91.627692"/>
      </g>
     </g>
     <g id="text_13">
      <!-- 1200 -->
      <g style="fill:#555555;" transform="translate(33.2625 95.198005)scale(0.1 -0.1)">
       <use xlink:href="#HelveticaNeue-49"/>
       <use x="55.599991" xlink:href="#HelveticaNeue-50"/>
       <use x="111.199982" xlink:href="#HelveticaNeue-48"/>
       <use x="166.799973" xlink:href="#HelveticaNeue-48"/>
      </g>
     </g>
    </g>
    <g id="ytick_8">
     <g id="line2d_25">
      <g>
       <use style="fill:#555555;stroke:#555555;stroke-width:0.8;" x="62.5" xlink:href="#m8966493fbb" y="64.933065"/>
      </g>
     </g>
     <g id="text_14">
      <!-- 1400 -->
      <g style="fill:#555555;" transform="translate(33.2625 68.503378)scale(0.1 -0.1)">
       <use xlink:href="#HelveticaNeue-49"/>
       <use x="55.599991" xlink:href="#HelveticaNeue-52"/>
       <use x="111.199982" xlink:href="#HelveticaNeue-48"/>
       <use x="166.799973" xlink:href="#HelveticaNeue-48"/>
      </g>
     </g>
    </g>
    <g id="ytick_9">
     <g id="line2d_26">
      <g>
       <use style="fill:#555555;stroke:#555555;stroke-width:0.8;" x="62.5" xlink:href="#m8966493fbb" y="38.238438"/>
      </g>
     </g>
     <g id="text_15">
      <!-- 1600 -->
      <g style="fill:#555555;" transform="translate(33.2625 41.80875)scale(0.1 -0.1)">
       <use xlink:href="#HelveticaNeue-49"/>
       <use x="55.599991" xlink:href="#HelveticaNeue-54"/>
       <use x="111.199982" xlink:href="#HelveticaNeue-48"/>
       <use x="166.799973" xlink:href="#HelveticaNeue-48"/>
      </g>
     </g>
    </g>
   </g>
   <g id="line2d_27">
    <path clip-path="url(#p819aff693b)" d="M 63.353524 251.528508 
L 64.207048 251.128089 
L 65.060573 251.528508 
L 65.914097 250.861143 
L 66.767621 251.395035 
L 67.621145 249.926831 
L 68.47467 251.261562 
L 69.328194 250.193777 
L 70.181718 250.193777 
L 71.035242 250.460723 
L 71.888767 251.395035 
L 72.742291 251.261562 
L 73.595815 250.32725 
L 75.302863 249.125992 
L 76.156388 251.261562 
L 77.009912 248.992519 
L 77.863436 250.594196 
L 78.71696 250.861143 
L 79.570485 250.861143 
L 80.424009 251.528508 
L 81.277533 251.795455 
L 82.131057 251.395035 
L 83.838106 251.395035 
L 84.69163 250.994616 
L 85.545154 248.725572 
L 86.398678 250.060304 
L 87.252203 250.060304 
L 88.105727 248.458626 
L 88.959251 249.926831 
L 89.812775 251.661981 
L 90.6663 251.261562 
L 91.519824 251.261562 
L 92.373348 250.460723 
L 93.226872 250.32725 
L 94.080396 249.926831 
L 94.933921 250.060304 
L 95.787445 250.32725 
L 96.640969 250.861143 
L 97.494493 250.060304 
L 98.348018 250.193777 
L 99.201542 250.727669 
L 100.055066 249.793358 
L 100.90859 249.259465 
L 101.762115 251.261562 
L 102.615639 249.793358 
L 103.469163 248.592099 
L 104.322687 250.861143 
L 105.176211 250.594196 
L 106.029736 249.659884 
L 106.88326 249.793358 
L 107.736784 250.594196 
L 108.590308 250.727669 
L 109.443833 248.992519 
L 110.297357 248.458626 
L 111.150881 249.526411 
L 112.004405 249.659884 
L 112.85793 250.861143 
L 113.711454 248.725572 
L 114.564978 248.325153 
L 115.418502 250.727669 
L 116.272026 246.05611 
L 117.125551 249.793358 
L 117.979075 248.992519 
L 118.832599 246.856949 
L 119.686123 248.725572 
L 121.393172 243.653593 
L 122.246696 248.592099 
L 123.10022 249.125992 
L 123.953744 247.390841 
L 124.807269 248.325153 
L 125.660793 247.390841 
L 126.514317 243.253174 
L 127.367841 244.854852 
L 128.221366 246.990422 
L 129.07489 248.325153 
L 129.928414 246.189583 
L 130.781938 248.19168 
L 131.635463 245.255271 
L 132.488987 244.854852 
L 133.342511 247.79126 
L 134.196035 245.922637 
L 135.049559 247.524314 
L 135.903084 244.854852 
L 136.756608 246.189583 
L 137.610132 244.721378 
L 138.463656 246.05611 
L 139.317181 241.38455 
L 141.024229 236.71299 
L 141.877753 240.984131 
L 142.731278 235.912151 
L 143.584802 237.914248 
L 144.438326 223.632623 
L 145.29185 240.450238 
L 146.145374 233.643108 
L 146.998899 232.174904 
L 147.852423 229.238495 
L 148.705947 238.715087 
L 149.559471 228.037236 
L 150.412996 228.704602 
L 151.26652 226.035139 
L 152.120044 237.513829 
L 152.973568 227.236398 
L 153.827093 220.562741 
L 154.680617 221.763999 
L 155.534141 219.094536 
L 156.387665 231.907957 
L 157.241189 226.569032 
L 158.094714 217.759805 
L 158.948238 218.293698 
L 159.801762 226.168613 
L 160.655286 226.969451 
L 161.508811 221.763999 
L 162.362335 214.289504 
L 163.215859 209.217524 
L 164.069383 212.554353 
L 164.922907 214.15603 
L 165.776432 209.217524 
L 166.629956 224.566935 
L 167.48348 185.859726 
L 168.337004 189.86392 
L 169.190529 214.55645 
L 170.044053 188.529188 
L 170.897577 186.527091 
L 171.751101 218.961063 
L 172.604626 180.5208 
L 173.45815 175.582294 
L 174.311674 192.266436 
L 175.165198 200.274824 
L 176.018722 192.800329 
L 176.872247 169.576003 
L 177.725771 199.607459 
L 178.579295 196.804523 
L 179.432819 135.273407 
L 180.286344 164.504024 
L 181.139868 189.730447 
L 181.993392 170.777261 
L 182.846916 187.194457 
L 183.700441 197.471888 
L 184.553965 137.94287 
L 185.407489 140.07844 
L 186.261013 153.025334 
L 187.114537 140.745806 
L 187.968062 177.050499 
L 188.821586 126.330707 
L 189.67511 163.169293 
L 190.528634 160.232884 
L 191.382159 151.690603 
L 192.235683 193.868114 
L 193.089207 173.580197 
L 193.942731 191.065178 
L 194.796256 199.607459 
L 195.64978 184.524994 
L 196.503304 211.086148 
L 197.356828 196.404103 
L 198.210352 225.501247 
L 199.063877 213.622138 
L 199.917401 207.215427 
L 200.770925 219.895375 
L 201.624449 219.361483 
L 202.477974 179.986908 
L 203.331498 193.734641 
L 204.185022 203.211233 
L 205.038546 210.552256 
L 205.89207 211.886987 
L 206.745595 218.961063 
L 207.599119 235.778678 
L 208.452643 200.274824 
L 209.306167 214.55645 
L 210.159692 223.09873 
L 211.013216 199.607459 
L 212.720264 227.903763 
L 213.573789 235.511732 
L 214.427313 214.422977 
L 215.280837 218.427171 
L 216.134361 221.230107 
L 216.987885 205.480277 
L 217.84141 218.560644 
L 218.694934 217.759805 
L 219.548458 217.759805 
L 220.401982 224.433462 
L 221.255507 217.759805 
L 222.109031 201.476083 
L 222.962555 222.831784 
L 223.816079 218.82759 
L 224.669604 218.160224 
L 225.523128 235.645205 
L 226.376652 215.757708 
L 227.230176 215.357289 
L 228.0837 227.636817 
L 228.937225 216.158127 
L 229.790749 218.694117 
L 230.644273 215.757708 
L 231.497797 218.427171 
L 232.351322 222.965257 
L 233.204846 222.431365 
L 234.05837 215.891181 
L 234.911894 215.891181 
L 235.765419 219.094536 
L 236.618943 223.365677 
L 237.472467 232.174904 
L 238.325991 232.575323 
L 239.179515 230.840172 
L 240.03304 227.636817 
L 240.886564 202.677341 
L 241.740088 221.497053 
L 242.593612 219.628429 
L 243.447137 226.702505 
L 244.300661 222.164418 
L 245.154185 206.948481 
L 246.007709 216.958966 
L 246.861233 211.886987 
L 247.714758 214.15603 
L 248.568282 221.897472 
L 249.421806 226.435559 
L 250.27533 212.02046 
L 251.128855 209.084051 
L 251.982379 220.162321 
L 252.835903 211.486568 
L 253.689427 218.961063 
L 254.542952 215.223815 
L 255.396476 228.571129 
L 256.25 217.626332 
L 257.103524 209.484471 
L 257.957048 210.685729 
L 258.810573 222.965257 
L 259.664097 214.422977 
L 260.517621 219.761902 
L 261.371145 222.431365 
L 262.22467 215.357289 
L 263.078194 212.687826 
L 263.931718 219.22801 
L 264.785242 205.880696 
L 265.638767 216.69202 
L 266.492291 214.422977 
L 267.345815 230.973645 
L 268.199339 215.223815 
L 269.052863 207.081954 
L 269.906388 224.166516 
L 270.759912 204.545965 
L 271.613436 217.359386 
L 272.46696 204.412491 
L 273.320485 223.899569 
L 274.174009 215.757708 
L 275.027533 204.545965 
L 275.881057 198.139254 
L 276.734581 207.882793 
L 277.588106 206.548062 
L 278.44163 210.685729 
L 279.295154 211.219621 
L 280.148678 209.617944 
L 281.002203 198.539674 
L 281.855727 190.130866 
L 282.709251 213.088245 
L 283.562775 176.383133 
L 284.4163 204.412491 
L 285.269824 210.685729 
L 286.123348 203.745126 
L 286.976872 205.880696 
L 287.830396 195.069372 
L 288.683921 190.531285 
L 289.537445 182.789844 
L 290.390969 185.859726 
L 291.244493 210.952675 
L 292.098018 176.917026 
L 292.951542 170.777261 
L 293.805066 169.709476 
L 294.65859 185.726253 
L 295.512115 179.453015 
L 296.365639 182.389424 
L 297.219163 198.539674 
L 298.072687 168.374745 
L 298.926211 150.889764 
L 299.779736 144.883473 
L 300.63326 154.226593 
L 301.486784 206.948481 
L 302.340308 177.717864 
L 303.193833 171.5781 
L 304.047357 139.678021 
L 304.900881 132.737418 
L 305.754405 92.295058 
L 306.60793 165.972229 
L 307.461454 224.566935 
L 309.168502 100.0365 
L 310.022026 165.838755 
L 310.875551 104.574586 
L 311.729075 129.667536 
L 312.582599 131.803106 
L 313.436123 146.351678 
L 314.289648 158.764679 
L 315.143172 162.902346 
L 315.996696 212.153933 
L 316.85022 86.288767 
L 317.703744 96.165779 
L 318.557269 139.811494 
L 319.410793 135.540354 
L 320.264317 128.332804 
L 321.117841 163.569712 
L 321.971366 140.612333 
L 322.82489 125.129449 
L 323.678414 161.567615 
L 324.531938 150.489345 
L 325.385463 158.097314 
L 327.092511 198.139254 
L 327.946035 135.940773 
L 328.799559 164.504024 
L 329.653084 181.855532 
L 330.506608 194.935899 
L 331.360132 206.014169 
L 332.213656 222.698311 
L 333.067181 205.61375 
L 333.920705 212.554353 
L 334.774229 218.560644 
L 335.627753 211.353095 
L 336.481278 217.626332 
L 337.334802 213.889084 
L 339.04185 229.772387 
L 339.895374 225.901666 
L 340.748899 215.223815 
L 341.602423 222.431365 
L 342.455947 223.899569 
L 343.309471 227.236398 
L 344.162996 226.569032 
L 345.01652 234.57742 
L 345.870044 235.111313 
L 346.723568 224.433462 
L 347.577093 225.367774 
L 348.430617 232.708796 
L 349.284141 231.907957 
L 350.137665 231.374065 
L 350.991189 241.918443 
L 352.698238 229.105022 
L 353.551762 230.706699 
L 354.405286 237.914248 
L 355.258811 236.312571 
L 356.112335 236.846463 
L 356.965859 236.045625 
L 357.819383 236.179098 
L 358.672907 234.844366 
L 359.526432 237.246883 
L 360.379956 234.710893 
L 361.23348 236.045625 
L 362.087004 239.649399 
L 362.940529 242.051916 
L 363.794053 242.185389 
L 364.647577 238.581614 
L 365.501101 228.971548 
L 366.354626 235.645205 
L 367.20815 236.579517 
L 368.061674 239.649399 
L 368.915198 239.916345 
L 369.768722 240.850657 
L 370.622247 232.44185 
L 371.475771 235.244786 
L 372.329295 234.177001 
L 373.182819 232.041431 
L 374.036344 237.11341 
L 374.889868 231.774484 
L 375.743392 238.448141 
L 376.596916 225.63472 
L 377.450441 225.901666 
L 378.303965 223.899569 
L 379.157489 223.766096 
L 380.011013 216.158127 
L 380.864537 231.374065 
L 381.718062 214.956869 
L 382.571586 216.69202 
L 383.42511 216.291601 
L 384.278634 226.569032 
L 385.132159 224.299989 
L 385.985683 219.494956 
L 386.839207 226.702505 
L 387.692731 204.012072 
L 388.546256 189.330027 
L 389.39978 199.740932 
L 390.253304 193.067275 
L 391.106828 183.590682 
L 391.960352 187.32793 
L 392.813877 205.21333 
L 393.667401 163.436239 
L 394.520925 166.639594 
L 395.374449 166.239175 
L 396.227974 173.446724 
L 397.081498 183.857629 
L 397.935022 179.586488 
L 398.788546 180.253854 
L 399.64207 145.951258 
L 400.495595 157.96384 
L 401.349119 153.959646 
L 402.202643 133.538257 
L 403.056167 159.565518 
L 403.909692 181.188166 
L 404.763216 183.190263 
L 405.61674 171.044208 
L 406.470264 144.082634 
L 407.323789 174.514509 
L 408.177313 144.483054 
L 409.030837 164.904443 
L 409.884361 167.30696 
L 410.737885 184.925414 
L 411.59141 158.631206 
L 412.444934 146.618624 
L 413.298458 170.243369 
L 414.151982 159.565518 
L 415.005507 154.893958 
L 415.859031 174.381036 
L 416.712555 175.448821 
L 417.566079 145.150419 
L 418.419604 126.597654 
L 419.273128 162.101508 
L 420.126652 177.851338 
L 420.980176 161.567615 
L 421.8337 160.232884 
L 422.687225 186.393618 
L 423.540749 176.917026 
L 424.394273 152.091022 
L 425.247797 149.42156 
L 426.101322 139.544548 
L 426.954846 138.610236 
L 427.80837 133.805203 
L 428.661894 134.739515 
L 429.515419 104.574586 
L 430.368943 107.911415 
L 431.222467 97.50051 
L 432.075991 129.400589 
L 432.929515 112.182555 
L 433.78304 121.125255 
L 434.636564 131.269213 
L 435.490088 118.589265 
L 436.343612 98.034403 
L 437.197137 37.704545 
L 438.050661 80.949841 
L 438.904185 59.460667 
L 440.611233 120.858309 
L 441.464758 100.303446 
L 442.318282 110.447404 
L 443.171806 169.042111 
L 444.02533 200.94219 
L 444.878855 178.919123 
L 445.732379 171.444627 
L 446.585903 150.622818 
L 447.439427 168.641691 
L 448.292952 190.931705 
L 449.146476 238.581614 
L 450 251.661981 
L 450 251.661981 
" style="fill:none;stroke:#000000;stroke-dasharray:1.5,2.475;stroke-dashoffset:0;stroke-opacity:0.5;stroke-width:1.5;"/>
   </g>
   <g id="line2d_28">
    <path clip-path="url(#p819aff693b)" d="M 62.5 251.395035 
L 63.353524 251.261562 
L 64.207048 251.261562 
L 65.060573 251.128089 
L 65.914097 251.128089 
L 66.767621 250.861143 
L 68.47467 250.594196 
L 70.181718 250.594196 
L 71.035242 250.727669 
L 72.742291 250.460723 
L 73.595815 250.460723 
L 74.449339 250.193777 
L 75.302863 250.060304 
L 76.156388 250.060304 
L 77.009912 250.193777 
L 78.71696 250.727669 
L 79.570485 250.861143 
L 80.424009 251.261562 
L 81.277533 251.395035 
L 82.131057 251.395035 
L 84.69163 250.594196 
L 85.545154 250.193777 
L 86.398678 249.926831 
L 87.252203 249.793358 
L 88.105727 249.926831 
L 88.959251 250.32725 
L 91.519824 250.727669 
L 92.373348 250.727669 
L 93.226872 250.460723 
L 94.080396 250.32725 
L 97.494493 250.32725 
L 98.348018 250.193777 
L 100.055066 250.193777 
L 100.90859 249.926831 
L 101.762115 250.060304 
L 105.176211 250.060304 
L 106.029736 250.193777 
L 106.88326 250.193777 
L 107.736784 249.926831 
L 109.443833 249.659884 
L 110.297357 249.659884 
L 111.150881 249.526411 
L 112.004405 249.259465 
L 112.85793 249.526411 
L 113.711454 249.259465 
L 115.418502 248.992519 
L 116.272026 248.592099 
L 117.125551 248.458626 
L 117.979075 248.19168 
L 118.832599 247.390841 
L 119.686123 247.390841 
L 121.393172 247.123895 
L 122.246696 247.390841 
L 123.10022 247.390841 
L 123.953744 247.123895 
L 124.807269 247.123895 
L 125.660793 246.590002 
L 127.367841 246.323056 
L 128.221366 246.456529 
L 129.07489 246.323056 
L 129.928414 246.590002 
L 130.781938 246.723475 
L 135.049559 246.05611 
L 135.903084 246.05611 
L 136.756608 245.388744 
L 137.610132 244.454432 
L 138.463656 242.986228 
L 139.317181 242.051916 
L 140.170705 240.583711 
L 141.024229 239.515926 
L 141.877753 236.979937 
L 142.731278 236.312571 
L 143.584802 235.378259 
L 144.438326 234.710893 
L 145.29185 233.376162 
L 146.145374 233.509635 
L 146.998899 232.708796 
L 147.852423 232.842269 
L 148.705947 231.107119 
L 149.559471 231.240592 
L 150.412996 230.706699 
L 151.26652 229.638914 
L 152.120044 227.636817 
L 152.973568 226.168613 
L 153.827093 225.768193 
L 154.680617 225.501247 
L 155.534141 223.632623 
L 156.387665 222.831784 
L 158.094714 223.632623 
L 158.948238 223.766096 
L 160.655286 220.162321 
L 161.508811 218.961063 
L 162.362335 217.492859 
L 163.215859 214.956869 
L 164.069383 214.289504 
L 165.776432 207.74932 
L 166.629956 206.948481 
L 168.337004 199.740932 
L 169.190529 199.740932 
L 170.044053 195.870211 
L 170.897577 194.535479 
L 171.751101 193.601168 
L 172.604626 191.465597 
L 173.45815 191.732544 
L 175.165198 187.72835 
L 176.018722 189.730447 
L 177.725771 180.5208 
L 179.432819 174.381036 
L 180.286344 175.448821 
L 181.139868 175.982714 
L 181.993392 172.245466 
L 182.846916 172.245466 
L 183.700441 168.508218 
L 184.553965 161.033723 
L 185.407489 158.898152 
L 186.261013 151.957549 
L 187.114537 148.754194 
L 187.968062 151.55713 
L 188.821586 153.158808 
L 190.528634 162.501927 
L 191.382159 166.239175 
L 192.235683 175.715767 
L 193.089207 180.120381 
L 193.942731 187.060984 
L 194.796256 192.666856 
L 195.64978 197.204942 
L 196.503304 202.810814 
L 198.210352 209.217524 
L 199.063877 213.355192 
L 199.917401 210.552256 
L 200.770925 209.084051 
L 201.624449 205.346803 
L 202.477974 203.745126 
L 203.331498 203.745126 
L 204.185022 204.145545 
L 206.745595 214.689923 
L 207.599119 216.69202 
L 208.452643 215.490762 
L 209.306167 214.956869 
L 210.159692 215.223815 
L 211.013216 215.891181 
L 211.86674 218.293698 
L 212.720264 219.494956 
L 213.573789 220.028848 
L 214.427313 220.429268 
L 215.280837 219.895375 
L 216.987885 216.024654 
L 217.84141 217.092439 
L 218.694934 217.492859 
L 219.548458 215.891181 
L 220.401982 217.225912 
L 221.255507 216.958966 
L 222.109031 216.825493 
L 222.962555 218.82759 
L 223.816079 218.82759 
L 224.669604 219.361483 
L 225.523128 222.030945 
L 226.376652 221.36358 
L 227.230176 221.096633 
L 228.0837 220.429268 
L 228.937225 218.560644 
L 229.790749 219.094536 
L 230.644273 219.761902 
L 231.497797 218.82759 
L 232.351322 218.961063 
L 233.204846 218.82759 
L 234.05837 219.494956 
L 234.911894 220.829687 
L 235.765419 222.431365 
L 236.618943 224.299989 
L 237.472467 226.569032 
L 238.325991 225.63472 
L 239.179515 225.100827 
L 240.886564 222.030945 
L 241.740088 220.696214 
L 242.593612 218.560644 
L 243.447137 217.626332 
L 244.300661 218.160224 
L 245.154185 216.69202 
L 246.007709 216.291601 
L 246.861233 216.425074 
L 247.714758 216.158127 
L 248.568282 216.69202 
L 249.421806 216.958966 
L 250.27533 216.558547 
L 251.128855 216.558547 
L 251.982379 215.757708 
L 252.835903 216.158127 
L 253.689427 217.492859 
L 254.542952 217.759805 
L 255.396476 216.825493 
L 256.25 217.492859 
L 257.103524 216.69202 
L 257.957048 216.825493 
L 258.810573 216.558547 
L 259.664097 216.958966 
L 261.371145 218.026751 
L 262.22467 216.158127 
L 263.078194 215.757708 
L 263.931718 214.823396 
L 264.785242 215.757708 
L 265.638767 216.291601 
L 266.492291 216.158127 
L 267.345815 216.825493 
L 268.199339 216.69202 
L 269.052863 216.158127 
L 269.906388 214.55645 
L 270.759912 213.488665 
L 271.613436 213.755611 
L 272.46696 213.488665 
L 273.320485 210.952675 
L 274.174009 210.552256 
L 275.027533 208.683632 
L 275.881057 208.550159 
L 276.734581 207.215427 
L 278.44163 206.948481 
L 279.295154 205.880696 
L 280.148678 205.480277 
L 281.002203 201.743029 
L 281.855727 199.874405 
L 282.709251 199.340512 
L 283.562775 199.073566 
L 284.4163 200.541771 
L 285.269824 201.609556 
L 286.123348 199.874405 
L 286.976872 199.607459 
L 287.830396 196.27063 
L 288.683921 195.069372 
L 289.537445 192.132963 
L 290.390969 188.262242 
L 291.244493 185.058887 
L 292.098018 183.323736 
L 292.951542 181.855532 
L 293.805066 180.654273 
L 294.65859 179.853435 
L 295.512115 180.253854 
L 296.365639 178.38523 
L 297.219163 174.381036 
L 298.072687 168.775164 
L 298.926211 169.309057 
L 299.779736 168.641691 
L 301.486784 166.639594 
L 302.340308 164.637497 
L 303.193833 156.495636 
L 304.047357 152.491442 
L 304.900881 151.824076 
L 305.754405 152.491442 
L 306.60793 148.754194 
L 307.461454 152.758388 
L 308.314978 149.955452 
L 309.168502 149.821979 
L 310.022026 142.080537 
L 310.875551 132.870891 
L 311.729075 133.27131 
L 313.436123 148.487248 
L 314.289648 150.355872 
L 315.143172 146.88557 
L 315.996696 144.616527 
L 316.85022 139.944967 
L 317.703744 134.072149 
L 318.557269 133.004364 
L 319.410793 128.733224 
L 321.117841 141.813591 
L 321.971366 143.548742 
L 322.82489 146.485151 
L 324.531938 157.830367 
L 325.385463 160.232884 
L 326.238987 165.037917 
L 327.092511 167.30696 
L 327.946035 171.845046 
L 328.799559 177.450918 
L 329.653084 184.124575 
L 330.506608 189.063081 
L 331.360132 199.740932 
L 332.213656 206.948481 
L 333.067181 210.952675 
L 333.920705 213.488665 
L 334.774229 214.422977 
L 335.627753 214.55645 
L 336.481278 217.492859 
L 337.334802 219.494956 
L 338.188326 220.028848 
L 339.04185 221.497053 
L 339.895374 222.297892 
L 340.748899 223.49915 
L 341.602423 223.899569 
L 342.455947 224.700408 
L 344.162996 228.17071 
L 345.01652 228.704602 
L 345.870044 229.638914 
L 346.723568 229.90586 
L 347.577093 230.30628 
L 350.137665 233.109216 
L 350.991189 233.643108 
L 353.551762 234.844366 
L 354.405286 234.57742 
L 355.258811 235.111313 
L 356.965859 236.446044 
L 357.819383 236.045625 
L 358.672907 235.912151 
L 359.526432 236.179098 
L 362.087004 238.715087 
L 362.940529 238.181195 
L 363.794053 238.047722 
L 364.647577 237.513829 
L 365.501101 237.11341 
L 366.354626 236.846463 
L 367.20815 236.979937 
L 368.061674 236.846463 
L 368.915198 237.513829 
L 369.768722 237.246883 
L 370.622247 236.312571 
L 371.475771 235.645205 
L 372.329295 234.57742 
L 373.182819 234.310474 
L 374.036344 233.776581 
L 374.889868 232.575323 
L 376.596916 229.505441 
L 377.450441 226.569032 
L 378.303965 225.768193 
L 379.157489 223.09873 
L 380.864537 220.562741 
L 381.718062 220.429268 
L 382.571586 220.562741 
L 383.42511 220.96316 
L 384.278634 220.829687 
L 385.132159 220.162321 
L 386.839207 213.221718 
L 389.39978 196.804523 
L 390.253304 193.734641 
L 391.106828 189.596973 
L 391.960352 186.260145 
L 392.813877 181.455112 
L 393.667401 177.851338 
L 394.520925 176.383133 
L 395.374449 175.181875 
L 396.227974 173.580197 
L 397.081498 172.645885 
L 397.935022 171.044208 
L 398.788546 168.374745 
L 399.64207 162.234981 
L 400.495595 157.429948 
L 401.349119 156.629109 
L 402.202643 157.96384 
L 403.056167 162.368454 
L 403.909692 163.03582 
L 404.763216 165.838755 
L 405.61674 166.506121 
L 406.470264 165.304863 
L 407.323789 162.768873 
L 408.177313 163.169293 
L 409.030837 163.169293 
L 409.884361 163.970131 
L 410.737885 163.569712 
L 411.59141 164.637497 
L 412.444934 162.768873 
L 413.298458 162.768873 
L 415.005507 161.968034 
L 416.712555 157.429948 
L 417.566079 158.097314 
L 418.419604 158.36426 
L 419.273128 157.563421 
L 420.126652 160.366357 
L 420.980176 165.571809 
L 421.8337 168.908637 
L 422.687225 167.30696 
L 425.247797 152.891861 
L 426.101322 145.417366 
L 426.954846 136.741612 
L 427.80837 130.334901 
L 428.661894 122.860406 
L 429.515419 119.523577 
L 430.368943 115.652856 
L 431.222467 114.051179 
L 432.075991 114.585071 
L 432.929515 117.388007 
L 433.78304 117.121061 
L 434.636564 110.046985 
L 435.490088 101.638177 
L 436.343612 92.028112 
L 437.197137 84.687089 
L 438.050661 81.884153 
L 438.904185 81.884153 
L 439.757709 86.555713 
L 441.464758 119.790524 
L 442.318282 137.542451 
L 443.171806 151.55713 
L 449.146476 205.480277 
L 450 218.427171 
L 450 218.427171 
" style="fill:none;stroke:#b3220f;stroke-linecap:square;stroke-width:1.5;"/>
   </g>
   <g id="patch_3">
    <path d="M 62.5 262.5 
L 62.5 27 
" style="fill:none;stroke:#555555;stroke-linecap:square;stroke-linejoin:miter;"/>
   </g>
   <g id="patch_4">
    <path d="M 62.5 262.5 
L 450 262.5 
" style="fill:none;stroke:#555555;stroke-linecap:square;stroke-linejoin:miter;"/>
   </g>
   <g id="text_16">
    <!-- Suba | Casos nuevos: 2021-06-17 -->
    <g style="fill:#555555;" transform="translate(149.6575 17)scale(0.14 -0.14)">
     <defs>
      <path d="M 49.09375 50.5 
L 58.09375 50.5 
Q 57.90625 56.40625 55.84375 60.65625 
Q 53.796875 64.90625 50.25 67.703125 
Q 46.703125 70.5 42 71.796875 
Q 37.296875 73.09375 31.796875 73.09375 
Q 26.90625 73.09375 22.25 71.84375 
Q 17.59375 70.59375 13.9375 68.046875 
Q 10.296875 65.5 8.09375 61.546875 
Q 5.90625 57.59375 5.90625 52.203125 
Q 5.90625 47.296875 7.84375 44.046875 
Q 9.796875 40.796875 13.046875 38.75 
Q 16.296875 36.703125 20.390625 35.453125 
Q 24.5 34.203125 28.75 33.25 
Q 33 32.296875 37.09375 31.390625 
Q 41.203125 30.5 44.453125 29.046875 
Q 47.703125 27.59375 49.640625 25.296875 
Q 51.59375 23 51.59375 19.296875 
Q 51.59375 15.40625 50 12.90625 
Q 48.40625 10.40625 45.796875 8.953125 
Q 43.203125 7.5 39.953125 6.890625 
Q 36.703125 6.296875 33.5 6.296875 
Q 29.5 6.296875 25.703125 7.296875 
Q 21.90625 8.296875 19.046875 10.390625 
Q 16.203125 12.5 14.453125 15.75 
Q 12.703125 19 12.703125 23.5 
L 3.703125 23.5 
Q 3.703125 17 6.046875 12.25 
Q 8.40625 7.5 12.453125 4.453125 
Q 16.5 1.40625 21.84375 -0.09375 
Q 27.203125 -1.59375 33.203125 -1.59375 
Q 38.09375 -1.59375 43.046875 -0.4375 
Q 48 0.703125 52 3.25 
Q 56 5.796875 58.546875 9.84375 
Q 61.09375 13.90625 61.09375 19.59375 
Q 61.09375 24.90625 59.140625 28.40625 
Q 57.203125 31.90625 53.953125 34.203125 
Q 50.703125 36.5 46.59375 37.84375 
Q 42.5 39.203125 38.25 40.203125 
Q 34 41.203125 29.890625 42.046875 
Q 25.796875 42.90625 22.546875 44.203125 
Q 19.296875 45.5 17.34375 47.546875 
Q 15.40625 49.59375 15.40625 52.90625 
Q 15.40625 56.40625 16.75 58.75 
Q 18.09375 61.09375 20.34375 62.5 
Q 22.59375 63.90625 25.5 64.5 
Q 28.40625 65.09375 31.40625 65.09375 
Q 38.796875 65.09375 43.546875 61.640625 
Q 48.296875 58.203125 49.09375 50.5 
z
" id="HelveticaNeue-83"/>
      <path d="M 6.703125 71.40625 
L 6.703125 0 
L 15.203125 0 
L 15.203125 6.90625 
L 15.40625 6.90625 
Q 16.796875 4.59375 18.84375 3.046875 
Q 20.90625 1.5 23.203125 0.59375 
Q 25.5 -0.296875 27.84375 -0.6875 
Q 30.203125 -1.09375 32.09375 -1.09375 
Q 38 -1.09375 42.453125 1 
Q 46.90625 3.09375 49.84375 6.75 
Q 52.796875 10.40625 54.25 15.296875 
Q 55.703125 20.203125 55.703125 25.703125 
Q 55.703125 31.203125 54.203125 36.09375 
Q 52.703125 41 49.75 44.75 
Q 46.796875 48.5 42.34375 50.703125 
Q 37.90625 52.90625 31.90625 52.90625 
Q 26.5 52.90625 22 50.953125 
Q 17.5 49 15.40625 44.703125 
L 15.203125 44.703125 
L 15.203125 71.40625 
z
M 46.703125 26.296875 
Q 46.703125 22.5 45.890625 18.890625 
Q 45.09375 15.296875 43.296875 12.5 
Q 41.5 9.703125 38.546875 8 
Q 35.59375 6.296875 31.203125 6.296875 
Q 26.796875 6.296875 23.6875 7.9375 
Q 20.59375 9.59375 18.640625 12.296875 
Q 16.703125 15 15.796875 18.546875 
Q 14.90625 22.09375 14.90625 25.90625 
Q 14.90625 29.5 15.75 33 
Q 16.59375 36.5 18.5 39.25 
Q 20.40625 42 23.40625 43.703125 
Q 26.40625 45.40625 30.703125 45.40625 
Q 34.796875 45.40625 37.84375 43.796875 
Q 40.90625 42.203125 42.84375 39.5 
Q 44.796875 36.796875 45.75 33.34375 
Q 46.703125 29.90625 46.703125 26.296875 
z
" id="HelveticaNeue-98"/>
      <path id="HelveticaNeue-32"/>
      <path d="M 7.703125 78.59375 
L 7.703125 -21.296875 
L 14.5 -21.296875 
L 14.5 78.59375 
z
" id="HelveticaNeue-124"/>
      <path d="M 58 49.90625 
L 67.5 49.90625 
Q 66.703125 55.59375 64.09375 59.9375 
Q 61.5 64.296875 57.59375 67.1875 
Q 53.703125 70.09375 48.703125 71.59375 
Q 43.703125 73.09375 38.09375 73.09375 
Q 29.90625 73.09375 23.546875 70.140625 
Q 17.203125 67.203125 12.953125 62.09375 
Q 8.703125 57 6.5 50.140625 
Q 4.296875 43.296875 4.296875 35.5 
Q 4.296875 27.703125 6.34375 20.890625 
Q 8.40625 14.09375 12.5 9.09375 
Q 16.59375 4.09375 22.796875 1.25 
Q 29 -1.59375 37.296875 -1.59375 
Q 51 -1.59375 58.890625 5.90625 
Q 66.796875 13.40625 68.203125 26.90625 
L 58.703125 26.90625 
Q 58.40625 22.5 56.90625 18.703125 
Q 55.40625 14.90625 52.75 12.15625 
Q 50.09375 9.40625 46.4375 7.84375 
Q 42.796875 6.296875 38.09375 6.296875 
Q 31.703125 6.296875 27.09375 8.6875 
Q 22.5 11.09375 19.546875 15.140625 
Q 16.59375 19.203125 15.1875 24.640625 
Q 13.796875 30.09375 13.796875 36.203125 
Q 13.796875 41.796875 15.1875 47 
Q 16.59375 52.203125 19.546875 56.25 
Q 22.5 60.296875 27.046875 62.6875 
Q 31.59375 65.09375 38 65.09375 
Q 45.5 65.09375 50.953125 61.296875 
Q 56.40625 57.5 58 49.90625 
z
" id="HelveticaNeue-67"/>
      <path d="M 11.59375 16.296875 
L 3.09375 16.296875 
Q 3.296875 11.5 5.09375 8.140625 
Q 6.90625 4.796875 9.90625 2.75 
Q 12.90625 0.703125 16.796875 -0.1875 
Q 20.703125 -1.09375 25 -1.09375 
Q 28.90625 -1.09375 32.84375 -0.34375 
Q 36.796875 0.40625 39.9375 2.296875 
Q 43.09375 4.203125 45.046875 7.296875 
Q 47 10.40625 47 15.09375 
Q 47 18.796875 45.546875 21.296875 
Q 44.09375 23.796875 41.75 25.4375 
Q 39.40625 27.09375 36.34375 28.09375 
Q 33.296875 29.09375 30.09375 29.796875 
Q 27.09375 30.5 24.09375 31.140625 
Q 21.09375 31.796875 18.6875 32.75 
Q 16.296875 33.703125 14.75 35.140625 
Q 13.203125 36.59375 13.203125 38.796875 
Q 13.203125 40.796875 14.203125 42.046875 
Q 15.203125 43.296875 16.796875 44.046875 
Q 18.40625 44.796875 20.34375 45.09375 
Q 22.296875 45.40625 24.203125 45.40625 
Q 26.296875 45.40625 28.34375 44.953125 
Q 30.40625 44.5 32.09375 43.5 
Q 33.796875 42.5 34.890625 40.84375 
Q 36 39.203125 36.203125 36.703125 
L 44.703125 36.703125 
Q 44.40625 41.40625 42.703125 44.546875 
Q 41 47.703125 38.140625 49.546875 
Q 35.296875 51.40625 31.59375 52.15625 
Q 27.90625 52.90625 23.5 52.90625 
Q 20.09375 52.90625 16.640625 52.046875 
Q 13.203125 51.203125 10.453125 49.453125 
Q 7.703125 47.703125 5.953125 44.890625 
Q 4.203125 42.09375 4.203125 38.203125 
Q 4.203125 33.203125 6.703125 30.390625 
Q 9.203125 27.59375 12.953125 26.046875 
Q 16.703125 24.5 21.09375 23.640625 
Q 25.5 22.796875 29.25 21.75 
Q 33 20.703125 35.5 19 
Q 38 17.296875 38 14 
Q 38 11.59375 36.796875 10.046875 
Q 35.59375 8.5 33.75 7.703125 
Q 31.90625 6.90625 29.703125 6.59375 
Q 27.5 6.296875 25.5 6.296875 
Q 22.90625 6.296875 20.453125 6.796875 
Q 18 7.296875 16.046875 8.4375 
Q 14.09375 9.59375 12.890625 11.546875 
Q 11.703125 13.5 11.59375 16.296875 
z
" id="HelveticaNeue-115"/>
      <path d="M 12.59375 25.796875 
Q 12.59375 30.5 13.84375 34.140625 
Q 15.09375 37.796875 17.296875 40.296875 
Q 19.5 42.796875 22.453125 44.09375 
Q 25.40625 45.40625 28.703125 45.40625 
Q 32 45.40625 34.953125 44.09375 
Q 37.90625 42.796875 40.09375 40.296875 
Q 42.296875 37.796875 43.546875 34.140625 
Q 44.796875 30.5 44.796875 25.796875 
Q 44.796875 21.09375 43.546875 17.4375 
Q 42.296875 13.796875 40.09375 11.34375 
Q 37.90625 8.90625 34.953125 7.59375 
Q 32 6.296875 28.703125 6.296875 
Q 25.40625 6.296875 22.453125 7.59375 
Q 19.5 8.90625 17.296875 11.34375 
Q 15.09375 13.796875 13.84375 17.4375 
Q 12.59375 21.09375 12.59375 25.796875 
z
M 3.59375 25.796875 
Q 3.59375 20.09375 5.1875 15.1875 
Q 6.796875 10.296875 10 6.640625 
Q 13.203125 3 17.890625 0.953125 
Q 22.59375 -1.09375 28.703125 -1.09375 
Q 34.90625 -1.09375 39.546875 0.953125 
Q 44.203125 3 47.390625 6.640625 
Q 50.59375 10.296875 52.1875 15.1875 
Q 53.796875 20.09375 53.796875 25.796875 
Q 53.796875 31.5 52.1875 36.453125 
Q 50.59375 41.40625 47.390625 45.046875 
Q 44.203125 48.703125 39.546875 50.796875 
Q 34.90625 52.90625 28.703125 52.90625 
Q 22.59375 52.90625 17.890625 50.796875 
Q 13.203125 48.703125 10 45.046875 
Q 6.796875 41.40625 5.1875 36.453125 
Q 3.59375 31.5 3.59375 25.796875 
z
" id="HelveticaNeue-111"/>
      <path d="M 29.703125 0 
L 48.59375 51.703125 
L 39.703125 51.703125 
L 25.59375 8.59375 
L 25.40625 8.59375 
L 10.90625 51.703125 
L 1.40625 51.703125 
L 20.59375 0 
z
" id="HelveticaNeue-118"/>
      <path d="M 19.40625 40.59375 
L 19.40625 51.703125 
L 8.296875 51.703125 
L 8.296875 40.59375 
z
M 8.296875 11.09375 
L 8.296875 0 
L 19.40625 0 
L 19.40625 11.09375 
z
" id="HelveticaNeue-58"/>
      <path d="M 5 31.796875 
L 5 23.796875 
L 33.90625 23.796875 
L 33.90625 31.796875 
z
" id="HelveticaNeue-45"/>
      <path d="M 50.90625 62.40625 
L 50.90625 69.703125 
L 5 69.703125 
L 5 61.703125 
L 42.203125 61.703125 
Q 36.59375 55.796875 31.75 48.796875 
Q 26.90625 41.796875 23.203125 33.9375 
Q 19.5 26.09375 17.140625 17.546875 
Q 14.796875 9 14.203125 0 
L 23.703125 0 
Q 24.203125 8.296875 26.5 17.09375 
Q 28.796875 25.90625 32.4375 34.203125 
Q 36.09375 42.5 40.796875 49.796875 
Q 45.5 57.09375 50.90625 62.40625 
z
" id="HelveticaNeue-55"/>
     </defs>
     <use xlink:href="#HelveticaNeue-83"/>
     <use x="64.799988" xlink:href="#HelveticaNeue-117"/>
     <use x="120.399979" xlink:href="#HelveticaNeue-98"/>
     <use x="179.699966" xlink:href="#HelveticaNeue-97"/>
     <use x="233.399963" xlink:href="#HelveticaNeue-32"/>
     <use x="261.199951" xlink:href="#HelveticaNeue-124"/>
     <use x="283.399948" xlink:href="#HelveticaNeue-32"/>
     <use x="311.199936" xlink:href="#HelveticaNeue-67"/>
     <use x="383.399918" xlink:href="#HelveticaNeue-97"/>
     <use x="437.099915" xlink:href="#HelveticaNeue-115"/>
     <use x="487.099899" xlink:href="#HelveticaNeue-111"/>
     <use x="544.499893" xlink:href="#HelveticaNeue-115"/>
     <use x="594.499878" xlink:href="#HelveticaNeue-32"/>
     <use x="622.299866" xlink:href="#HelveticaNeue-110"/>
     <use x="677.899857" xlink:href="#HelveticaNeue-117"/>
     <use x="733.499847" xlink:href="#HelveticaNeue-101"/>
     <use x="787.199844" xlink:href="#HelveticaNeue-118"/>
     <use x="837.199829" xlink:href="#HelveticaNeue-111"/>
     <use x="894.599823" xlink:href="#HelveticaNeue-115"/>
     <use x="944.599808" xlink:href="#HelveticaNeue-58"/>
     <use x="972.399796" xlink:href="#HelveticaNeue-32"/>
     <use x="1000.199783" xlink:href="#HelveticaNeue-50"/>
     <use x="1055.799774" xlink:href="#HelveticaNeue-48"/>
     <use x="1111.399765" xlink:href="#HelveticaNeue-50"/>
     <use x="1166.999756" xlink:href="#HelveticaNeue-49"/>
     <use x="1222.599747" xlink:href="#HelveticaNeue-45"/>
     <use x="1261.499741" xlink:href="#HelveticaNeue-48"/>
     <use x="1317.099731" xlink:href="#HelveticaNeue-54"/>
     <use x="1372.699722" xlink:href="#HelveticaNeue-45"/>
     <use x="1411.599716" xlink:href="#HelveticaNeue-49"/>
     <use x="1467.199707" xlink:href="#HelveticaNeue-55"/>
    </g>
   </g>
   <g id="legend_1">
    <g id="line2d_29">
     <path d="M 71.5 39.640625 
L 91.5 39.640625 
" style="fill:none;stroke:#000000;stroke-dasharray:1.5,2.475;stroke-dashoffset:0;stroke-opacity:0.5;stroke-width:1.5;"/>
    </g>
    <g id="line2d_30"/>
    <g id="text_17">
     <!-- Actual -->
     <g style="fill:#555555;" transform="translate(99.5 43.140625)scale(0.1 -0.1)">
      <use xlink:href="#HelveticaNeue-65"/>
      <use x="64.799988" xlink:href="#HelveticaNeue-99"/>
      <use x="118.499985" xlink:href="#HelveticaNeue-116"/>
      <use x="149.999969" xlink:href="#HelveticaNeue-117"/>
      <use x="205.59996" xlink:href="#HelveticaNeue-97"/>
      <use x="259.299957" xlink:href="#HelveticaNeue-108"/>
     </g>
    </g>
    <g id="line2d_31">
     <path d="M 71.5 54.310937 
L 91.5 54.310937 
" style="fill:none;stroke:#b3220f;stroke-linecap:square;stroke-width:1.5;"/>
    </g>
    <g id="line2d_32"/>
    <g id="text_18">
     <!-- Promedio semanal (7 das)  -->
     <g style="fill:#555555;" transform="translate(99.5 57.810937)scale(0.1 -0.1)">
      <defs>
       <path d="M 17.296875 37.203125 
L 17.296875 63.40625 
L 35.90625 63.40625 
Q 44 63.40625 47.75 60.046875 
Q 51.5 56.703125 51.5 50.296875 
Q 51.5 43.90625 47.75 40.5 
Q 44 37.09375 35.90625 37.203125 
z
M 7.796875 71.40625 
L 7.796875 0 
L 17.296875 0 
L 17.296875 29.203125 
L 39.09375 29.203125 
Q 49.90625 29.09375 55.453125 34.6875 
Q 61 40.296875 61 50.296875 
Q 61 60.296875 55.453125 65.84375 
Q 49.90625 71.40625 39.09375 71.40625 
z
" id="HelveticaNeue-80"/>
       <path d="M 6.40625 51.703125 
L 6.40625 0 
L 14.90625 0 
L 14.90625 32.203125 
Q 14.90625 33.703125 15.65625 35.953125 
Q 16.40625 38.203125 18.046875 40.296875 
Q 19.703125 42.40625 22.34375 43.90625 
Q 25 45.40625 28.703125 45.40625 
Q 31.59375 45.40625 33.4375 44.546875 
Q 35.296875 43.703125 36.390625 42.140625 
Q 37.5 40.59375 37.953125 38.5 
Q 38.40625 36.40625 38.40625 33.90625 
L 38.40625 0 
L 46.90625 0 
L 46.90625 32.203125 
Q 46.90625 38.203125 50.5 41.796875 
Q 54.09375 45.40625 60.40625 45.40625 
Q 63.5 45.40625 65.453125 44.5 
Q 67.40625 43.59375 68.5 42.046875 
Q 69.59375 40.5 70 38.390625 
Q 70.40625 36.296875 70.40625 33.90625 
L 70.40625 0 
L 78.90625 0 
L 78.90625 37.90625 
Q 78.90625 41.90625 77.65625 44.75 
Q 76.40625 47.59375 74.15625 49.390625 
Q 71.90625 51.203125 68.75 52.046875 
Q 65.59375 52.90625 61.703125 52.90625 
Q 56.59375 52.90625 52.34375 50.59375 
Q 48.09375 48.296875 45.5 44.09375 
Q 43.90625 48.90625 40 50.90625 
Q 36.09375 52.90625 31.296875 52.90625 
Q 20.40625 52.90625 14.59375 44.09375 
L 14.40625 44.09375 
L 14.40625 51.703125 
z
" id="HelveticaNeue-109"/>
       <path d="M 12.59375 25.40625 
Q 12.59375 29.203125 13.390625 32.796875 
Q 14.203125 36.40625 16 39.203125 
Q 17.796875 42 20.796875 43.703125 
Q 23.796875 45.40625 28.09375 45.40625 
Q 32.5 45.40625 35.59375 43.75 
Q 38.703125 42.09375 40.640625 39.390625 
Q 42.59375 36.703125 43.5 33.140625 
Q 44.40625 29.59375 44.40625 25.796875 
Q 44.40625 22.203125 43.546875 18.703125 
Q 42.703125 15.203125 40.796875 12.453125 
Q 38.90625 9.703125 35.90625 8 
Q 32.90625 6.296875 28.59375 6.296875 
Q 24.5 6.296875 21.453125 7.890625 
Q 18.40625 9.5 16.453125 12.203125 
Q 14.5 14.90625 13.546875 18.34375 
Q 12.59375 21.796875 12.59375 25.40625 
z
M 52.59375 0 
L 52.59375 71.40625 
L 44.09375 71.40625 
L 44.09375 44.796875 
L 43.90625 44.796875 
Q 42.5 47.09375 40.453125 48.640625 
Q 38.40625 50.203125 36.09375 51.140625 
Q 33.796875 52.09375 31.5 52.5 
Q 29.203125 52.90625 27.203125 52.90625 
Q 21.296875 52.90625 16.84375 50.75 
Q 12.40625 48.59375 9.453125 44.9375 
Q 6.5 41.296875 5.046875 36.390625 
Q 3.59375 31.5 3.59375 26 
Q 3.59375 20.5 5.09375 15.59375 
Q 6.59375 10.703125 9.546875 7 
Q 12.5 3.296875 16.953125 1.09375 
Q 21.40625 -1.09375 27.40625 -1.09375 
Q 32.796875 -1.09375 37.296875 0.796875 
Q 41.796875 2.703125 43.90625 7 
L 44.09375 7 
L 44.09375 0 
z
" id="HelveticaNeue-100"/>
       <path d="M 15.40625 61 
L 15.40625 71.40625 
L 6.90625 71.40625 
L 6.90625 61 
z
M 6.90625 51.703125 
L 6.90625 0 
L 15.40625 0 
L 15.40625 51.703125 
z
" id="HelveticaNeue-105"/>
       <path d="M 20.40625 -19.703125 
L 26.90625 -19.703125 
Q 19.796875 -8.203125 16.75 3.09375 
Q 13.703125 14.40625 13.703125 27 
Q 13.703125 39.296875 16.703125 50.5 
Q 19.703125 61.703125 26.90625 73.09375 
L 20.40625 73.09375 
Q 12.59375 62.796875 8.640625 50.796875 
Q 4.703125 38.796875 4.703125 27 
Q 4.703125 20.40625 5.796875 14.40625 
Q 6.90625 8.40625 8.953125 2.703125 
Q 11 -3 13.890625 -8.546875 
Q 16.796875 -14.09375 20.40625 -19.703125 
z
" id="HelveticaNeue-40"/>
       <path d="M 6.90625 0 
L 15.40625 0 
L 15.40625 51.703125 
L 6.90625 51.703125 
z
M 25.5 77 
L 11.40625 60.796875 
L 5 60.796875 
L 14.59375 77 
z
" id="HelveticaNeue-237"/>
       <path d="M -0.90625 -19.703125 
L 5.5 -19.703125 
Q 13.296875 -9.40625 17.25 2.546875 
Q 21.203125 14.5 21.203125 26.296875 
Q 21.203125 32.90625 20.09375 38.90625 
Q 19 44.90625 16.953125 50.65625 
Q 14.90625 56.40625 12 61.953125 
Q 9.09375 67.5 5.5 73.09375 
L -0.90625 73.09375 
Q 6.09375 61.59375 9.140625 50.25 
Q 12.203125 38.90625 12.203125 26.296875 
Q 12.203125 14.09375 9.203125 2.84375 
Q 6.203125 -8.40625 -0.90625 -19.703125 
z
" id="HelveticaNeue-41"/>
      </defs>
      <use xlink:href="#HelveticaNeue-80"/>
      <use x="64.799988" xlink:href="#HelveticaNeue-114"/>
      <use x="96.349976" xlink:href="#HelveticaNeue-111"/>
      <use x="153.749969" xlink:href="#HelveticaNeue-109"/>
      <use x="239.049957" xlink:href="#HelveticaNeue-101"/>
      <use x="292.749954" xlink:href="#HelveticaNeue-100"/>
      <use x="352.049942" xlink:href="#HelveticaNeue-105"/>
      <use x="374.249939" xlink:href="#HelveticaNeue-111"/>
      <use x="431.649933" xlink:href="#HelveticaNeue-32"/>
      <use x="459.449921" xlink:href="#HelveticaNeue-115"/>
      <use x="509.449905" xlink:href="#HelveticaNeue-101"/>
      <use x="563.149902" xlink:href="#HelveticaNeue-109"/>
      <use x="648.44989" xlink:href="#HelveticaNeue-97"/>
      <use x="702.149887" xlink:href="#HelveticaNeue-110"/>
      <use x="757.749878" xlink:href="#HelveticaNeue-97"/>
      <use x="811.449875" xlink:href="#HelveticaNeue-108"/>
      <use x="833.649872" xlink:href="#HelveticaNeue-32"/>
      <use x="861.44986" xlink:href="#HelveticaNeue-40"/>
      <use x="887.349854" xlink:href="#HelveticaNeue-55"/>
      <use x="942.949844" xlink:href="#HelveticaNeue-32"/>
      <use x="970.749832" xlink:href="#HelveticaNeue-100"/>
      <use x="1030.04982" xlink:href="#HelveticaNeue-237"/>
      <use x="1052.249817" xlink:href="#HelveticaNeue-97"/>
      <use x="1105.949814" xlink:href="#HelveticaNeue-115"/>
      <use x="1155.949799" xlink:href="#HelveticaNeue-41"/>
      <use x="1181.849792" xlink:href="#HelveticaNeue-32"/>
     </g>
    </g>
   </g>
  </g>
 </g>
 <defs>
  <clipPath id="p819aff693b">
   <rect height="235.5" width="387.5" x="62.5" y="27"/>
  </clipPath>
 </defs>
</svg>
