<?xml version="1.0" encoding="utf-8" standalone="no"?>
<!DOCTYPE svg PUBLIC "-//W3C//DTD SVG 1.1//EN"
  "http://www.w3.org/Graphics/SVG/1.1/DTD/svg11.dtd">
<!-- Created with matplotlib (https://matplotlib.org/) -->
<svg height="300pt" version="1.1" viewBox="0 0 500 300" width="500pt" xmlns="http://www.w3.org/2000/svg" xmlns:xlink="http://www.w3.org/1999/xlink">
 <metadata>
  <rdf:RDF xmlns:cc="http://creativecommons.org/ns#" xmlns:dc="http://purl.org/dc/elements/1.1/" xmlns:rdf="http://www.w3.org/1999/02/22-rdf-syntax-ns#">
   <cc:Work>
    <dc:type rdf:resource="http://purl.org/dc/dcmitype/StillImage"/>
    <dc:date>2021-06-04T21:06:06.047252</dc:date>
    <dc:format>image/svg+xml</dc:format>
    <dc:creator>
     <cc:Agent>
      <dc:title>Matplotlib v3.3.4, https://matplotlib.org/</dc:title>
     </cc:Agent>
    </dc:creator>
   </cc:Work>
  </rdf:RDF>
 </metadata>
 <defs>
  <style type="text/css">*{stroke-linecap:butt;stroke-linejoin:round;}</style>
 </defs>
 <g id="figure_1">
  <g id="patch_1">
   <path d="M 0 300 
L 500 300 
L 500 0 
L 0 0 
z
" style="fill:#ffffff;"/>
  </g>
  <g id="axes_1">
   <g id="patch_2">
    <path d="M 62.5 262.5 
L 450 262.5 
L 450 27 
L 62.5 27 
z
" style="fill:#ffffff;"/>
   </g>
   <g id="matplotlib.axis_1">
    <g id="xtick_1">
     <g id="line2d_1">
      <defs>
       <path d="M 0 0 
L 0 3.5 
" id="ma546a6f232" style="stroke:#555555;stroke-width:0.8;"/>
      </defs>
      <g>
       <use style="fill:#555555;stroke:#555555;stroke-width:0.8;" x="62.5" xlink:href="#ma546a6f232" y="262.5"/>
      </g>
     </g>
    </g>
    <g id="xtick_2">
     <g id="line2d_2">
      <g>
       <use style="fill:#555555;stroke:#555555;stroke-width:0.8;" x="69.726107" xlink:href="#ma546a6f232" y="262.5"/>
      </g>
     </g>
     <g id="text_1">
      <!-- Apr -->
      <g style="fill:#555555;" transform="translate(61.856576 276.640625)scale(0.1 -0.1)">
       <defs>
        <path d="M 20.09375 29.5 
L 32.203125 62.796875 
L 32.40625 62.796875 
L 44.296875 29.5 
z
M 27.203125 71.40625 
L -0.59375 0 
L 9.09375 0 
L 17.09375 21.5 
L 47.296875 21.5 
L 55.09375 0 
L 65.59375 0 
L 37.703125 71.40625 
z
" id="HelveticaNeue-65"/>
        <path d="M 6.703125 51.703125 
L 6.703125 -19.703125 
L 15.203125 -19.703125 
L 15.203125 6.90625 
L 15.40625 6.90625 
Q 16.796875 4.59375 18.84375 3.046875 
Q 20.90625 1.5 23.203125 0.59375 
Q 25.5 -0.296875 27.84375 -0.6875 
Q 30.203125 -1.09375 32.09375 -1.09375 
Q 38 -1.09375 42.453125 1 
Q 46.90625 3.09375 49.84375 6.75 
Q 52.796875 10.40625 54.25 15.296875 
Q 55.703125 20.203125 55.703125 25.703125 
Q 55.703125 31.203125 54.203125 36.09375 
Q 52.703125 41 49.75 44.75 
Q 46.796875 48.5 42.34375 50.703125 
Q 37.90625 52.90625 31.90625 52.90625 
Q 26.5 52.90625 22 50.953125 
Q 17.5 49 15.40625 44.703125 
L 15.203125 44.703125 
L 15.203125 51.703125 
z
M 46.703125 26.296875 
Q 46.703125 22.5 45.890625 18.890625 
Q 45.09375 15.296875 43.296875 12.5 
Q 41.5 9.703125 38.546875 8 
Q 35.59375 6.296875 31.203125 6.296875 
Q 26.796875 6.296875 23.6875 7.9375 
Q 20.59375 9.59375 18.640625 12.296875 
Q 16.703125 15 15.796875 18.546875 
Q 14.90625 22.09375 14.90625 25.90625 
Q 14.90625 29.5 15.75 33 
Q 16.59375 36.5 18.5 39.25 
Q 20.40625 42 23.40625 43.703125 
Q 26.40625 45.40625 30.703125 45.40625 
Q 34.796875 45.40625 37.84375 43.796875 
Q 40.90625 42.203125 42.84375 39.5 
Q 44.796875 36.796875 45.75 33.34375 
Q 46.703125 29.90625 46.703125 26.296875 
z
" id="HelveticaNeue-112"/>
        <path d="M 6.09375 51.703125 
L 6.09375 0 
L 14.59375 0 
L 14.59375 23 
Q 14.59375 28 15.59375 31.84375 
Q 16.59375 35.703125 18.796875 38.390625 
Q 21 41.09375 24.59375 42.5 
Q 28.203125 43.90625 33.296875 43.90625 
L 33.296875 52.90625 
Q 26.40625 53.09375 21.90625 50.09375 
Q 17.40625 47.09375 14.296875 40.796875 
L 14.09375 40.796875 
L 14.09375 51.703125 
z
" id="HelveticaNeue-114"/>
       </defs>
       <use xlink:href="#HelveticaNeue-65"/>
       <use x="64.799988" xlink:href="#HelveticaNeue-112"/>
       <use x="124.099976" xlink:href="#HelveticaNeue-114"/>
      </g>
     </g>
    </g>
    <g id="xtick_3">
     <g id="line2d_3">
      <g>
       <use style="fill:#555555;stroke:#555555;stroke-width:0.8;" x="151.923077" xlink:href="#ma546a6f232" y="262.5"/>
      </g>
     </g>
     <g id="text_2">
      <!-- Jul -->
      <g style="fill:#555555;" transform="translate(145.437921 276.640625)scale(0.1 -0.1)">
       <defs>
        <path d="M 44.09375 17.796875 
L 44.09375 71.40625 
L 34.59375 71.40625 
L 34.59375 19.203125 
Q 34.59375 13.296875 32.140625 9.796875 
Q 29.703125 6.296875 23.203125 6.296875 
Q 19.703125 6.296875 17.453125 7.34375 
Q 15.203125 8.40625 13.953125 10.296875 
Q 12.703125 12.203125 12.203125 14.796875 
Q 11.703125 17.40625 11.703125 20.5 
L 11.703125 23.5 
L 2.203125 23.5 
L 2.203125 19.09375 
Q 2.203125 8.90625 7.59375 3.65625 
Q 13 -1.59375 23 -1.59375 
Q 29 -1.59375 33.046875 0.046875 
Q 37.09375 1.703125 39.546875 4.453125 
Q 42 7.203125 43.046875 10.703125 
Q 44.09375 14.203125 44.09375 17.796875 
z
" id="HelveticaNeue-74"/>
        <path d="M 49.203125 0 
L 49.203125 51.703125 
L 40.703125 51.703125 
L 40.703125 22.5 
Q 40.703125 19 39.75 16.046875 
Q 38.796875 13.09375 36.890625 10.890625 
Q 35 8.703125 32.140625 7.5 
Q 29.296875 6.296875 25.40625 6.296875 
Q 20.5 6.296875 17.703125 9.09375 
Q 14.90625 11.90625 14.90625 16.703125 
L 14.90625 51.703125 
L 6.40625 51.703125 
L 6.40625 17.703125 
Q 6.40625 13.5 7.25 10.046875 
Q 8.09375 6.59375 10.1875 4.09375 
Q 12.296875 1.59375 15.6875 0.25 
Q 19.09375 -1.09375 24.203125 -1.09375 
Q 29.90625 -1.09375 34.09375 1.15625 
Q 38.296875 3.40625 41 8.203125 
L 41.203125 8.203125 
L 41.203125 0 
z
" id="HelveticaNeue-117"/>
        <path d="M 6.90625 71.40625 
L 6.90625 0 
L 15.40625 0 
L 15.40625 71.40625 
z
" id="HelveticaNeue-108"/>
       </defs>
       <use xlink:href="#HelveticaNeue-74"/>
       <use x="51.899994" xlink:href="#HelveticaNeue-117"/>
       <use x="107.499985" xlink:href="#HelveticaNeue-108"/>
      </g>
     </g>
    </g>
    <g id="xtick_4">
     <g id="line2d_4">
      <g>
       <use style="fill:#555555;stroke:#555555;stroke-width:0.8;" x="235.02331" xlink:href="#ma546a6f232" y="262.5"/>
      </g>
     </g>
     <g id="text_3">
      <!-- Oct -->
      <g style="fill:#555555;" transform="translate(226.963154 276.640625)scale(0.1 -0.1)">
       <defs>
        <path d="M 13.296875 35.703125 
Q 13.296875 41.09375 14.6875 46.34375 
Q 16.09375 51.59375 19.09375 55.796875 
Q 22.09375 60 26.796875 62.546875 
Q 31.5 65.09375 38 65.09375 
Q 44.5 65.09375 49.203125 62.546875 
Q 53.90625 60 56.90625 55.796875 
Q 59.90625 51.59375 61.296875 46.34375 
Q 62.703125 41.09375 62.703125 35.703125 
Q 62.703125 30.296875 61.296875 25.046875 
Q 59.90625 19.796875 56.90625 15.59375 
Q 53.90625 11.40625 49.203125 8.84375 
Q 44.5 6.296875 38 6.296875 
Q 31.5 6.296875 26.796875 8.84375 
Q 22.09375 11.40625 19.09375 15.59375 
Q 16.09375 19.796875 14.6875 25.046875 
Q 13.296875 30.296875 13.296875 35.703125 
z
M 3.796875 35.703125 
Q 3.796875 28.40625 5.9375 21.65625 
Q 8.09375 14.90625 12.390625 9.703125 
Q 16.703125 4.5 23.09375 1.453125 
Q 29.5 -1.59375 38 -1.59375 
Q 46.5 -1.59375 52.890625 1.453125 
Q 59.296875 4.5 63.59375 9.703125 
Q 67.90625 14.90625 70.046875 21.65625 
Q 72.203125 28.40625 72.203125 35.703125 
Q 72.203125 43 70.046875 49.75 
Q 67.90625 56.5 63.59375 61.703125 
Q 59.296875 66.90625 52.890625 70 
Q 46.5 73.09375 38 73.09375 
Q 29.5 73.09375 23.09375 70 
Q 16.703125 66.90625 12.390625 61.703125 
Q 8.09375 56.5 5.9375 49.75 
Q 3.796875 43 3.796875 35.703125 
z
" id="HelveticaNeue-79"/>
        <path d="M 41.5 35.09375 
L 50.296875 35.09375 
Q 49.796875 39.703125 47.890625 43.046875 
Q 46 46.40625 43.046875 48.59375 
Q 40.09375 50.796875 36.25 51.84375 
Q 32.40625 52.90625 28 52.90625 
Q 21.90625 52.90625 17.296875 50.75 
Q 12.703125 48.59375 9.640625 44.84375 
Q 6.59375 41.09375 5.09375 36.046875 
Q 3.59375 31 3.59375 25.203125 
Q 3.59375 19.40625 5.140625 14.546875 
Q 6.703125 9.703125 9.75 6.203125 
Q 12.796875 2.703125 17.34375 0.796875 
Q 21.90625 -1.09375 27.796875 -1.09375 
Q 37.703125 -1.09375 43.453125 4.09375 
Q 49.203125 9.296875 50.59375 18.90625 
L 41.90625 18.90625 
Q 41.09375 12.90625 37.546875 9.59375 
Q 34 6.296875 27.703125 6.296875 
Q 23.703125 6.296875 20.796875 7.890625 
Q 17.90625 9.5 16.09375 12.140625 
Q 14.296875 14.796875 13.4375 18.1875 
Q 12.59375 21.59375 12.59375 25.203125 
Q 12.59375 29.09375 13.390625 32.75 
Q 14.203125 36.40625 16.046875 39.203125 
Q 17.90625 42 21 43.703125 
Q 24.09375 45.40625 28.703125 45.40625 
Q 34.09375 45.40625 37.296875 42.703125 
Q 40.5 40 41.5 35.09375 
z
" id="HelveticaNeue-99"/>
        <path d="M 18.203125 51.703125 
L 18.203125 67.203125 
L 9.703125 67.203125 
L 9.703125 51.703125 
L 0.90625 51.703125 
L 0.90625 44.203125 
L 9.703125 44.203125 
L 9.703125 11.296875 
Q 9.703125 7.703125 10.390625 5.5 
Q 11.09375 3.296875 12.546875 2.09375 
Q 14 0.90625 16.34375 0.453125 
Q 18.703125 0 22 0 
L 28.5 0 
L 28.5 7.5 
L 24.59375 7.5 
Q 22.59375 7.5 21.34375 7.640625 
Q 20.09375 7.796875 19.390625 8.296875 
Q 18.703125 8.796875 18.453125 9.6875 
Q 18.203125 10.59375 18.203125 12.09375 
L 18.203125 44.203125 
L 28.5 44.203125 
L 28.5 51.703125 
z
" id="HelveticaNeue-116"/>
       </defs>
       <use xlink:href="#HelveticaNeue-79"/>
       <use x="75.999985" xlink:href="#HelveticaNeue-99"/>
       <use x="129.699982" xlink:href="#HelveticaNeue-116"/>
      </g>
     </g>
    </g>
    <g id="xtick_5">
     <g id="line2d_5">
      <g>
       <use style="fill:#555555;stroke:#555555;stroke-width:0.8;" x="318.123543" xlink:href="#ma546a6f232" y="262.5"/>
      </g>
     </g>
     <g id="text_4">
      <!-- Jan -->
      <g style="fill:#555555;" transform="translate(310.063387 276.640625)scale(0.1 -0.1)">
       <defs>
        <path d="M 52.203125 0.203125 
Q 50 -1.09375 46.09375 -1.09375 
Q 42.796875 -1.09375 40.84375 0.75 
Q 38.90625 2.59375 38.90625 6.796875 
Q 35.40625 2.59375 30.75 0.75 
Q 26.09375 -1.09375 20.703125 -1.09375 
Q 17.203125 -1.09375 14.046875 -0.296875 
Q 10.90625 0.5 8.59375 2.203125 
Q 6.296875 3.90625 4.9375 6.65625 
Q 3.59375 9.40625 3.59375 13.296875 
Q 3.59375 17.703125 5.09375 20.5 
Q 6.59375 23.296875 9.046875 25.046875 
Q 11.5 26.796875 14.640625 27.6875 
Q 17.796875 28.59375 21.09375 29.203125 
Q 24.59375 29.90625 27.75 30.25 
Q 30.90625 30.59375 33.296875 31.25 
Q 35.703125 31.90625 37.09375 33.15625 
Q 38.5 34.40625 38.5 36.796875 
Q 38.5 39.59375 37.453125 41.296875 
Q 36.40625 43 34.75 43.890625 
Q 33.09375 44.796875 31.046875 45.09375 
Q 29 45.40625 27 45.40625 
Q 21.59375 45.40625 18 43.34375 
Q 14.40625 41.296875 14.09375 35.59375 
L 5.59375 35.59375 
Q 5.796875 40.40625 7.59375 43.703125 
Q 9.40625 47 12.40625 49.046875 
Q 15.40625 51.09375 19.25 52 
Q 23.09375 52.90625 27.5 52.90625 
Q 31 52.90625 34.453125 52.40625 
Q 37.90625 51.90625 40.703125 50.34375 
Q 43.5 48.796875 45.203125 46 
Q 46.90625 43.203125 46.90625 38.703125 
L 46.90625 12.09375 
Q 46.90625 9.09375 47.25 7.6875 
Q 47.59375 6.296875 49.59375 6.296875 
Q 50.703125 6.296875 52.203125 6.796875 
z
M 38.40625 26.703125 
Q 36.796875 25.5 34.1875 24.953125 
Q 31.59375 24.40625 28.75 24.046875 
Q 25.90625 23.703125 23 23.25 
Q 20.09375 22.796875 17.796875 21.796875 
Q 15.5 20.796875 14.046875 18.9375 
Q 12.59375 17.09375 12.59375 13.90625 
Q 12.59375 11.796875 13.4375 10.34375 
Q 14.296875 8.90625 15.640625 8 
Q 17 7.09375 18.796875 6.6875 
Q 20.59375 6.296875 22.59375 6.296875 
Q 26.796875 6.296875 29.796875 7.4375 
Q 32.796875 8.59375 34.6875 10.34375 
Q 36.59375 12.09375 37.5 14.140625 
Q 38.40625 16.203125 38.40625 18 
z
" id="HelveticaNeue-97"/>
        <path d="M 6.40625 51.703125 
L 6.40625 0 
L 14.90625 0 
L 14.90625 29.203125 
Q 14.90625 32.703125 15.84375 35.640625 
Q 16.796875 38.59375 18.6875 40.796875 
Q 20.59375 43 23.4375 44.203125 
Q 26.296875 45.40625 30.203125 45.40625 
Q 35.09375 45.40625 37.890625 42.59375 
Q 40.703125 39.796875 40.703125 35 
L 40.703125 0 
L 49.203125 0 
L 49.203125 34 
Q 49.203125 38.203125 48.34375 41.640625 
Q 47.5 45.09375 45.390625 47.59375 
Q 43.296875 50.09375 39.890625 51.5 
Q 36.5 52.90625 31.40625 52.90625 
Q 19.90625 52.90625 14.59375 43.5 
L 14.40625 43.5 
L 14.40625 51.703125 
z
" id="HelveticaNeue-110"/>
       </defs>
       <use xlink:href="#HelveticaNeue-74"/>
       <use x="51.899994" xlink:href="#HelveticaNeue-97"/>
       <use x="105.599991" xlink:href="#HelveticaNeue-110"/>
      </g>
      <!-- 2021 -->
      <g style="fill:#555555;" transform="translate(307.004793 287.179688)scale(0.1 -0.1)">
       <defs>
        <path d="M 4.40625 45.796875 
L 12.90625 45.796875 
Q 12.796875 49 13.546875 52.140625 
Q 14.296875 55.296875 16 57.796875 
Q 17.703125 60.296875 20.34375 61.84375 
Q 23 63.40625 26.703125 63.40625 
Q 29.5 63.40625 32 62.5 
Q 34.5 61.59375 36.34375 59.890625 
Q 38.203125 58.203125 39.296875 55.84375 
Q 40.40625 53.5 40.40625 50.59375 
Q 40.40625 46.90625 39.25 44.09375 
Q 38.09375 41.296875 35.84375 38.890625 
Q 33.59375 36.5 30.1875 34.140625 
Q 26.796875 31.796875 22.296875 29 
Q 18.59375 26.796875 15.1875 24.296875 
Q 11.796875 21.796875 9.09375 18.5 
Q 6.40625 15.203125 4.65625 10.75 
Q 2.90625 6.296875 2.40625 0 
L 48.703125 0 
L 48.703125 7.5 
L 12.296875 7.5 
Q 12.90625 10.796875 14.84375 13.34375 
Q 16.796875 15.90625 19.546875 18.09375 
Q 22.296875 20.296875 25.59375 22.25 
Q 28.90625 24.203125 32.203125 26.203125 
Q 35.5 28.296875 38.59375 30.59375 
Q 41.703125 32.90625 44.09375 35.75 
Q 46.5 38.59375 47.953125 42.1875 
Q 49.40625 45.796875 49.40625 50.5 
Q 49.40625 55.5 47.65625 59.296875 
Q 45.90625 63.09375 42.90625 65.640625 
Q 39.90625 68.203125 35.84375 69.546875 
Q 31.796875 70.90625 27.203125 70.90625 
Q 21.59375 70.90625 17.1875 69 
Q 12.796875 67.09375 9.84375 63.75 
Q 6.90625 60.40625 5.5 55.796875 
Q 4.09375 51.203125 4.40625 45.796875 
z
" id="HelveticaNeue-50"/>
        <path d="M 13.203125 34.90625 
Q 13.203125 37.5 13.25 40.640625 
Q 13.296875 43.796875 13.75 46.9375 
Q 14.203125 50.09375 15.046875 53.09375 
Q 15.90625 56.09375 17.546875 58.34375 
Q 19.203125 60.59375 21.703125 62 
Q 24.203125 63.40625 27.796875 63.40625 
Q 31.40625 63.40625 33.90625 62 
Q 36.40625 60.59375 38.046875 58.34375 
Q 39.703125 56.09375 40.546875 53.09375 
Q 41.40625 50.09375 41.84375 46.9375 
Q 42.296875 43.796875 42.34375 40.640625 
Q 42.40625 37.5 42.40625 34.90625 
Q 42.40625 30.90625 42.15625 25.953125 
Q 41.90625 21 40.546875 16.640625 
Q 39.203125 12.296875 36.203125 9.296875 
Q 33.203125 6.296875 27.796875 6.296875 
Q 22.40625 6.296875 19.40625 9.296875 
Q 16.40625 12.296875 15.046875 16.640625 
Q 13.703125 21 13.453125 25.953125 
Q 13.203125 30.90625 13.203125 34.90625 
z
M 4.203125 34.796875 
Q 4.203125 30.90625 4.390625 26.703125 
Q 4.59375 22.5 5.390625 18.5 
Q 6.203125 14.5 7.703125 10.953125 
Q 9.203125 7.40625 11.796875 4.703125 
Q 14.40625 2 18.34375 0.453125 
Q 22.296875 -1.09375 27.796875 -1.09375 
Q 33.40625 -1.09375 37.296875 0.453125 
Q 41.203125 2 43.796875 4.703125 
Q 46.40625 7.40625 47.90625 10.953125 
Q 49.40625 14.5 50.203125 18.5 
Q 51 22.5 51.203125 26.703125 
Q 51.40625 30.90625 51.40625 34.796875 
Q 51.40625 38.703125 51.203125 42.890625 
Q 51 47.09375 50.203125 51.09375 
Q 49.40625 55.09375 47.90625 58.6875 
Q 46.40625 62.296875 43.796875 65 
Q 41.203125 67.703125 37.25 69.296875 
Q 33.296875 70.90625 27.796875 70.90625 
Q 22.296875 70.90625 18.34375 69.296875 
Q 14.40625 67.703125 11.796875 65 
Q 9.203125 62.296875 7.703125 58.6875 
Q 6.203125 55.09375 5.390625 51.09375 
Q 4.59375 47.09375 4.390625 42.890625 
Q 4.203125 38.703125 4.203125 34.796875 
z
" id="HelveticaNeue-48"/>
        <path d="M 35.59375 0 
L 35.59375 70.90625 
L 29.09375 70.90625 
Q 28.40625 66.90625 26.5 64.296875 
Q 24.59375 61.703125 21.84375 60.203125 
Q 19.09375 58.703125 15.6875 58.140625 
Q 12.296875 57.59375 8.703125 57.59375 
L 8.703125 50.796875 
L 27.09375 50.796875 
L 27.09375 0 
z
" id="HelveticaNeue-49"/>
       </defs>
       <use xlink:href="#HelveticaNeue-50"/>
       <use x="55.599991" xlink:href="#HelveticaNeue-48"/>
       <use x="111.199982" xlink:href="#HelveticaNeue-50"/>
       <use x="166.799973" xlink:href="#HelveticaNeue-49"/>
      </g>
     </g>
    </g>
    <g id="xtick_6">
     <g id="line2d_6">
      <g>
       <use style="fill:#555555;stroke:#555555;stroke-width:0.8;" x="399.417249" xlink:href="#ma546a6f232" y="262.5"/>
      </g>
     </g>
     <g id="text_5">
      <!-- Apr -->
      <g style="fill:#555555;" transform="translate(391.547718 276.640625)scale(0.1 -0.1)">
       <use xlink:href="#HelveticaNeue-65"/>
       <use x="64.799988" xlink:href="#HelveticaNeue-112"/>
       <use x="124.099976" xlink:href="#HelveticaNeue-114"/>
      </g>
     </g>
    </g>
    <g id="xtick_7">
     <g id="line2d_7">
      <g>
       <use style="fill:#555555;stroke:#555555;stroke-width:0.8;" x="450" xlink:href="#ma546a6f232" y="262.5"/>
      </g>
     </g>
    </g>
    <g id="xtick_8">
     <g id="line2d_8">
      <defs>
       <path d="M 0 0 
L 0 2 
" id="me196164a06" style="stroke:#555555;stroke-width:0.6;"/>
      </defs>
      <g>
       <use style="fill:#555555;stroke:#555555;stroke-width:0.6;" x="96.824009" xlink:href="#me196164a06" y="262.5"/>
      </g>
     </g>
    </g>
    <g id="xtick_9">
     <g id="line2d_9">
      <g>
       <use style="fill:#555555;stroke:#555555;stroke-width:0.6;" x="124.825175" xlink:href="#me196164a06" y="262.5"/>
      </g>
     </g>
    </g>
    <g id="xtick_10">
     <g id="line2d_10">
      <g>
       <use style="fill:#555555;stroke:#555555;stroke-width:0.6;" x="179.924242" xlink:href="#me196164a06" y="262.5"/>
      </g>
     </g>
    </g>
    <g id="xtick_11">
     <g id="line2d_11">
      <g>
       <use style="fill:#555555;stroke:#555555;stroke-width:0.6;" x="207.925408" xlink:href="#me196164a06" y="262.5"/>
      </g>
     </g>
    </g>
    <g id="xtick_12">
     <g id="line2d_12">
      <g>
       <use style="fill:#555555;stroke:#555555;stroke-width:0.6;" x="263.024476" xlink:href="#me196164a06" y="262.5"/>
      </g>
     </g>
    </g>
    <g id="xtick_13">
     <g id="line2d_13">
      <g>
       <use style="fill:#555555;stroke:#555555;stroke-width:0.6;" x="290.122378" xlink:href="#me196164a06" y="262.5"/>
      </g>
     </g>
    </g>
    <g id="xtick_14">
     <g id="line2d_14">
      <g>
       <use style="fill:#555555;stroke:#555555;stroke-width:0.6;" x="346.124709" xlink:href="#me196164a06" y="262.5"/>
      </g>
     </g>
    </g>
    <g id="xtick_15">
     <g id="line2d_15">
      <g>
       <use style="fill:#555555;stroke:#555555;stroke-width:0.6;" x="371.416084" xlink:href="#me196164a06" y="262.5"/>
      </g>
     </g>
    </g>
    <g id="xtick_16">
     <g id="line2d_16">
      <g>
       <use style="fill:#555555;stroke:#555555;stroke-width:0.6;" x="426.515152" xlink:href="#me196164a06" y="262.5"/>
      </g>
     </g>
    </g>
    <g id="text_6">
     <!-- fecha -->
     <g style="fill:#555555;" transform="translate(243.935156 300.290625)scale(0.1 -0.1)">
      <defs>
       <path d="M 9.90625 44.203125 
L 9.90625 0 
L 18.40625 0 
L 18.40625 44.203125 
L 28.40625 44.203125 
L 28.40625 51.703125 
L 18.40625 51.703125 
L 18.40625 58.90625 
Q 18.40625 62.296875 20.09375 63.5 
Q 21.796875 64.703125 24.90625 64.703125 
Q 26 64.703125 27.296875 64.546875 
Q 28.59375 64.40625 29.703125 64 
L 29.703125 71.40625 
Q 28.5 71.796875 26.953125 72 
Q 25.40625 72.203125 24.203125 72.203125 
Q 17.203125 72.203125 13.546875 68.953125 
Q 9.90625 65.703125 9.90625 59.40625 
L 9.90625 51.703125 
L 1.203125 51.703125 
L 1.203125 44.203125 
z
" id="HelveticaNeue-102"/>
       <path d="M 42.296875 30.796875 
L 12.59375 30.796875 
Q 12.796875 33.796875 13.890625 36.4375 
Q 15 39.09375 16.890625 41.09375 
Q 18.796875 43.09375 21.4375 44.25 
Q 24.09375 45.40625 27.40625 45.40625 
Q 30.59375 45.40625 33.25 44.25 
Q 35.90625 43.09375 37.84375 41.140625 
Q 39.796875 39.203125 40.9375 36.5 
Q 42.09375 33.796875 42.296875 30.796875 
z
M 50.5 16.40625 
L 42.09375 16.40625 
Q 41 11.296875 37.546875 8.796875 
Q 34.09375 6.296875 28.703125 6.296875 
Q 24.5 6.296875 21.390625 7.6875 
Q 18.296875 9.09375 16.296875 11.4375 
Q 14.296875 13.796875 13.390625 16.84375 
Q 12.5 19.90625 12.59375 23.296875 
L 51.296875 23.296875 
Q 51.5 28 50.453125 33.203125 
Q 49.40625 38.40625 46.65625 42.796875 
Q 43.90625 47.203125 39.34375 50.046875 
Q 34.796875 52.90625 27.90625 52.90625 
Q 22.59375 52.90625 18.140625 50.90625 
Q 13.703125 48.90625 10.453125 45.296875 
Q 7.203125 41.703125 5.390625 36.796875 
Q 3.59375 31.90625 3.59375 26 
Q 3.796875 20.09375 5.34375 15.09375 
Q 6.90625 10.09375 10 6.5 
Q 13.09375 2.90625 17.640625 0.90625 
Q 22.203125 -1.09375 28.40625 -1.09375 
Q 37.203125 -1.09375 43 3.296875 
Q 48.796875 7.703125 50.5 16.40625 
z
" id="HelveticaNeue-101"/>
       <path d="M 6.40625 71.40625 
L 6.40625 0 
L 14.90625 0 
L 14.90625 29.203125 
Q 14.90625 32.703125 15.84375 35.640625 
Q 16.796875 38.59375 18.6875 40.796875 
Q 20.59375 43 23.4375 44.203125 
Q 26.296875 45.40625 30.203125 45.40625 
Q 35.09375 45.40625 37.890625 42.59375 
Q 40.703125 39.796875 40.703125 35 
L 40.703125 0 
L 49.203125 0 
L 49.203125 34 
Q 49.203125 38.203125 48.34375 41.640625 
Q 47.5 45.09375 45.390625 47.59375 
Q 43.296875 50.09375 39.890625 51.5 
Q 36.5 52.90625 31.40625 52.90625 
Q 29.09375 52.90625 26.640625 52.40625 
Q 24.203125 51.90625 21.953125 50.84375 
Q 19.703125 49.796875 17.890625 48.140625 
Q 16.09375 46.5 15.09375 44.09375 
L 14.90625 44.09375 
L 14.90625 71.40625 
z
" id="HelveticaNeue-104"/>
      </defs>
      <use xlink:href="#HelveticaNeue-102"/>
      <use x="29.599991" xlink:href="#HelveticaNeue-101"/>
      <use x="83.299988" xlink:href="#HelveticaNeue-99"/>
      <use x="136.999985" xlink:href="#HelveticaNeue-104"/>
      <use x="192.599976" xlink:href="#HelveticaNeue-97"/>
     </g>
    </g>
   </g>
   <g id="matplotlib.axis_2">
    <g id="ytick_1">
     <g id="line2d_17">
      <defs>
       <path d="M 0 0 
L -3.5 0 
" id="m5c75db912b" style="stroke:#555555;stroke-width:0.8;"/>
      </defs>
      <g>
       <use style="fill:#555555;stroke:#555555;stroke-width:0.8;" x="62.5" xlink:href="#m5c75db912b" y="251.795455"/>
      </g>
     </g>
     <g id="text_7">
      <!-- 0 -->
      <g style="fill:#555555;" transform="translate(49.940625 255.365767)scale(0.1 -0.1)">
       <use xlink:href="#HelveticaNeue-48"/>
      </g>
     </g>
    </g>
    <g id="ytick_2">
     <g id="line2d_18">
      <g>
       <use style="fill:#555555;stroke:#555555;stroke-width:0.8;" x="62.5" xlink:href="#m5c75db912b" y="208.977273"/>
      </g>
     </g>
     <g id="text_8">
      <!-- 50 -->
      <g style="fill:#555555;" transform="translate(44.38125 212.547585)scale(0.1 -0.1)">
       <defs>
        <path d="M 47 62.203125 
L 47 69.703125 
L 12 69.703125 
L 5.40625 32.90625 
L 12.703125 32.5 
Q 15.203125 35.5 18.453125 37.34375 
Q 21.703125 39.203125 25.90625 39.203125 
Q 29.5 39.203125 32.453125 38 
Q 35.40625 36.796875 37.5 34.640625 
Q 39.59375 32.5 40.75 29.546875 
Q 41.90625 26.59375 41.90625 23.09375 
Q 41.90625 18.90625 40.703125 15.75 
Q 39.5 12.59375 37.453125 10.5 
Q 35.40625 8.40625 32.65625 7.34375 
Q 29.90625 6.296875 26.90625 6.296875 
Q 23.703125 6.296875 21.046875 7.25 
Q 18.40625 8.203125 16.453125 9.953125 
Q 14.5 11.703125 13.34375 14.046875 
Q 12.203125 16.40625 12 19.09375 
L 3.5 19.09375 
Q 3.59375 14.296875 5.390625 10.5 
Q 7.203125 6.703125 10.296875 4.140625 
Q 13.40625 1.59375 17.453125 0.25 
Q 21.5 -1.09375 26.09375 -1.09375 
Q 32.296875 -1.09375 36.9375 0.84375 
Q 41.59375 2.796875 44.6875 6.09375 
Q 47.796875 9.40625 49.34375 13.65625 
Q 50.90625 17.90625 50.90625 22.40625 
Q 50.90625 28.5 49.09375 33.046875 
Q 47.296875 37.59375 44.1875 40.640625 
Q 41.09375 43.703125 36.890625 45.203125 
Q 32.703125 46.703125 28 46.703125 
Q 24.40625 46.703125 20.75 45.453125 
Q 17.09375 44.203125 14.796875 41.59375 
L 14.59375 41.796875 
L 18.40625 62.203125 
z
" id="HelveticaNeue-53"/>
       </defs>
       <use xlink:href="#HelveticaNeue-53"/>
       <use x="55.599991" xlink:href="#HelveticaNeue-48"/>
      </g>
     </g>
    </g>
    <g id="ytick_3">
     <g id="line2d_19">
      <g>
       <use style="fill:#555555;stroke:#555555;stroke-width:0.8;" x="62.5" xlink:href="#m5c75db912b" y="166.159091"/>
      </g>
     </g>
     <g id="text_9">
      <!-- 100 -->
      <g style="fill:#555555;" transform="translate(38.821875 169.729403)scale(0.1 -0.1)">
       <use xlink:href="#HelveticaNeue-49"/>
       <use x="55.599991" xlink:href="#HelveticaNeue-48"/>
       <use x="111.199982" xlink:href="#HelveticaNeue-48"/>
      </g>
     </g>
    </g>
    <g id="ytick_4">
     <g id="line2d_20">
      <g>
       <use style="fill:#555555;stroke:#555555;stroke-width:0.8;" x="62.5" xlink:href="#m5c75db912b" y="123.340909"/>
      </g>
     </g>
     <g id="text_10">
      <!-- 150 -->
      <g style="fill:#555555;" transform="translate(38.821875 126.911222)scale(0.1 -0.1)">
       <use xlink:href="#HelveticaNeue-49"/>
       <use x="55.599991" xlink:href="#HelveticaNeue-53"/>
       <use x="111.199982" xlink:href="#HelveticaNeue-48"/>
      </g>
     </g>
    </g>
    <g id="ytick_5">
     <g id="line2d_21">
      <g>
       <use style="fill:#555555;stroke:#555555;stroke-width:0.8;" x="62.5" xlink:href="#m5c75db912b" y="80.522727"/>
      </g>
     </g>
     <g id="text_11">
      <!-- 200 -->
      <g style="fill:#555555;" transform="translate(38.821875 84.09304)scale(0.1 -0.1)">
       <use xlink:href="#HelveticaNeue-50"/>
       <use x="55.599991" xlink:href="#HelveticaNeue-48"/>
       <use x="111.199982" xlink:href="#HelveticaNeue-48"/>
      </g>
     </g>
    </g>
    <g id="ytick_6">
     <g id="line2d_22">
      <g>
       <use style="fill:#555555;stroke:#555555;stroke-width:0.8;" x="62.5" xlink:href="#m5c75db912b" y="37.704545"/>
      </g>
     </g>
     <g id="text_12">
      <!-- 250 -->
      <g style="fill:#555555;" transform="translate(38.821875 41.274858)scale(0.1 -0.1)">
       <use xlink:href="#HelveticaNeue-50"/>
       <use x="55.599991" xlink:href="#HelveticaNeue-53"/>
       <use x="111.199982" xlink:href="#HelveticaNeue-48"/>
      </g>
     </g>
    </g>
   </g>
   <g id="line2d_23">
    <path clip-path="url(#pa6b13f0101)" d="M 63.403263 251.795455 
L 64.306527 249.226364 
L 65.20979 251.795455 
L 66.113054 247.513636 
L 67.016317 250.939091 
L 67.91958 249.226364 
L 69.726107 250.939091 
L 70.629371 246.657273 
L 71.532634 244.944545 
L 72.435897 250.082727 
L 73.339161 250.939091 
L 74.242424 245.800909 
L 75.145688 251.795455 
L 76.048951 248.37 
L 76.952214 248.37 
L 77.855478 250.939091 
L 78.758741 251.795455 
L 79.662005 250.082727 
L 80.565268 245.800909 
L 81.468531 250.082727 
L 82.371795 250.939091 
L 83.275058 249.226364 
L 84.178322 250.082727 
L 85.081585 250.082727 
L 85.984848 246.657273 
L 86.888112 250.939091 
L 87.791375 247.513636 
L 88.694639 249.226364 
L 89.597902 250.082727 
L 90.501166 250.082727 
L 91.404429 249.226364 
L 92.307692 249.226364 
L 93.210956 250.082727 
L 94.114219 249.226364 
L 95.017483 250.939091 
L 95.920746 250.082727 
L 96.824009 250.082727 
L 98.630536 251.795455 
L 99.5338 251.795455 
L 100.437063 250.939091 
L 101.340326 251.795455 
L 102.24359 247.513636 
L 103.146853 251.795455 
L 104.95338 244.944545 
L 105.856643 249.226364 
L 106.759907 250.082727 
L 107.66317 251.795455 
L 108.566434 250.082727 
L 109.469697 250.939091 
L 110.37296 250.939091 
L 112.179487 249.226364 
L 113.082751 247.513636 
L 113.986014 247.513636 
L 114.889277 246.657273 
L 115.792541 244.944545 
L 116.695804 248.37 
L 117.599068 250.082727 
L 118.502331 246.657273 
L 119.405594 245.800909 
L 120.308858 245.800909 
L 121.212121 249.226364 
L 122.115385 247.513636 
L 123.018648 244.944545 
L 123.921911 244.944545 
L 124.825175 247.513636 
L 125.728438 246.657273 
L 126.631702 249.226364 
L 127.534965 243.231818 
L 128.438228 250.082727 
L 129.341492 248.37 
L 130.244755 244.944545 
L 131.148019 245.800909 
L 132.051282 247.513636 
L 133.857809 249.226364 
L 134.761072 243.231818 
L 135.664336 247.513636 
L 136.567599 247.513636 
L 137.470862 242.375455 
L 138.374126 243.231818 
L 139.277389 240.662727 
L 140.180653 239.806364 
L 141.083916 236.380909 
L 141.987179 237.237273 
L 142.890443 240.662727 
L 144.69697 240.662727 
L 145.600233 226.104545 
L 146.503497 239.806364 
L 147.40676 239.806364 
L 149.213287 220.966364 
L 150.11655 243.231818 
L 151.019814 228.673636 
L 151.923077 230.386364 
L 152.82634 222.679091 
L 153.729604 231.242727 
L 154.632867 228.673636 
L 155.536131 232.955455 
L 156.439394 213.259091 
L 157.342657 225.248182 
L 158.245921 226.960909 
L 159.149184 226.960909 
L 160.052448 218.397273 
L 160.955711 214.971818 
L 161.858974 235.524545 
L 162.762238 202.126364 
L 163.665501 231.242727 
L 164.568765 225.248182 
L 165.472028 210.69 
L 166.375291 214.115455 
L 167.278555 196.131818 
L 168.181818 199.557273 
L 169.085082 220.11 
L 169.988345 205.551818 
L 170.891608 183.286364 
L 171.794872 207.264545 
L 172.698135 173.866364 
L 173.601399 188.424545 
L 174.504662 230.386364 
L 175.407925 173.866364 
L 176.311189 155.882727 
L 177.214452 192.706364 
L 178.117716 188.424545 
L 179.020979 181.573636 
L 179.924242 200.413636 
L 180.827506 223.535455 
L 181.730769 198.700909 
L 182.634033 147.319091 
L 183.537296 173.01 
L 184.440559 213.259091 
L 185.343823 195.275455 
L 186.247086 185.855455 
L 187.15035 190.993636 
L 188.053613 151.600909 
L 188.956876 171.297273 
L 189.86014 175.579091 
L 190.763403 203.839091 
L 191.666667 202.982727 
L 192.56993 175.579091 
L 193.473193 214.971818 
L 194.376457 183.286364 
L 195.27972 183.286364 
L 196.182984 208.977273 
L 197.086247 201.27 
L 197.98951 187.568182 
L 198.892774 218.397273 
L 199.796037 190.993636 
L 200.699301 206.408182 
L 201.602564 206.408182 
L 202.505828 222.679091 
L 203.409091 219.253636 
L 204.312354 212.402727 
L 205.215618 232.099091 
L 206.118881 213.259091 
L 207.925408 208.120909 
L 208.828671 227.817273 
L 209.731935 209.833636 
L 210.635198 226.104545 
L 211.538462 210.69 
L 212.441725 238.95 
L 213.344988 213.259091 
L 214.248252 228.673636 
L 215.151515 234.668182 
L 216.054779 213.259091 
L 216.958042 219.253636 
L 218.764569 240.662727 
L 219.667832 229.53 
L 220.571096 226.104545 
L 221.474359 221.822727 
L 222.377622 222.679091 
L 223.280886 210.69 
L 225.087413 227.817273 
L 225.990676 221.822727 
L 226.893939 226.960909 
L 227.797203 229.53 
L 228.700466 218.397273 
L 229.60373 223.535455 
L 230.506993 220.966364 
L 231.410256 235.524545 
L 232.31352 219.253636 
L 233.216783 224.391818 
L 234.120047 217.540909 
L 235.02331 220.11 
L 235.926573 224.391818 
L 236.829837 174.722727 
L 237.7331 219.253636 
L 238.636364 205.551818 
L 239.539627 216.684545 
L 240.44289 216.684545 
L 241.346154 202.126364 
L 242.249417 224.391818 
L 243.152681 216.684545 
L 244.055944 223.535455 
L 244.959207 238.093636 
L 245.862471 236.380909 
L 246.765734 227.817273 
L 247.668998 209.833636 
L 248.572261 219.253636 
L 249.475524 214.971818 
L 250.378788 226.104545 
L 251.282051 216.684545 
L 252.185315 184.999091 
L 253.088578 214.115455 
L 253.991841 214.115455 
L 254.895105 206.408182 
L 255.798368 220.966364 
L 256.701632 215.828182 
L 257.604895 213.259091 
L 258.508159 194.419091 
L 259.411422 208.120909 
L 260.314685 183.286364 
L 261.217949 184.142727 
L 263.024476 196.131818 
L 264.831002 202.982727 
L 265.734266 213.259091 
L 266.637529 208.120909 
L 267.540793 212.402727 
L 268.444056 202.126364 
L 269.347319 196.131818 
L 270.250583 202.126364 
L 271.153846 199.557273 
L 272.05711 197.844545 
L 272.960373 202.126364 
L 273.863636 222.679091 
L 274.7669 218.397273 
L 275.670163 232.955455 
L 276.573427 214.115455 
L 277.47669 203.839091 
L 278.379953 221.822727 
L 279.283217 196.988182 
L 280.18648 201.27 
L 281.089744 154.17 
L 281.993007 211.546364 
L 282.89627 210.69 
L 283.799534 201.27 
L 284.702797 175.579091 
L 285.606061 180.717273 
L 286.509324 187.568182 
L 287.412587 203.839091 
L 288.315851 178.148182 
L 289.219114 196.131818 
L 290.122378 199.557273 
L 291.025641 200.413636 
L 291.928904 195.275455 
L 292.832168 173.866364 
L 293.735431 180.717273 
L 294.638695 217.540909 
L 295.541958 192.706364 
L 296.445221 191.85 
L 297.348485 181.573636 
L 299.155012 158.451818 
L 300.058275 179.004545 
L 300.961538 192.706364 
L 301.864802 184.142727 
L 302.768065 173.01 
L 303.671329 126.766364 
L 304.574592 178.148182 
L 305.477855 150.744545 
L 306.381119 184.999091 
L 307.284382 174.722727 
L 308.187646 146.462727 
L 309.090909 149.888182 
L 309.994172 150.744545 
L 310.897436 135.33 
L 311.800699 211.546364 
L 312.703963 131.904545 
L 313.607226 154.17 
L 315.413753 98.506364 
L 316.317016 70.246364 
L 317.22028 193.562727 
L 318.123543 208.120909 
L 319.026807 181.573636 
L 319.93007 109.639091 
L 320.833333 162.733636 
L 321.736597 37.704545 
L 322.63986 118.202727 
L 323.543124 87.373636 
L 324.446387 133.617273 
L 325.34965 149.888182 
L 326.252914 176.435455 
L 327.156177 183.286364 
L 328.059441 105.357273 
L 328.962704 133.617273 
L 329.865967 150.744545 
L 330.769231 137.899091 
L 331.672494 155.882727 
L 332.575758 142.180909 
L 333.479021 137.042727 
L 334.382284 123.340909 
L 335.285548 158.451818 
L 336.188811 152.457273 
L 337.092075 153.313636 
L 337.995338 162.733636 
L 338.898601 190.993636 
L 339.801865 171.297273 
L 340.705128 186.711818 
L 341.608392 170.440909 
L 342.511655 189.280909 
L 343.414918 212.402727 
L 344.318182 199.557273 
L 345.221445 198.700909 
L 346.124709 173.866364 
L 347.027972 189.280909 
L 347.931235 220.11 
L 348.834499 208.120909 
L 349.737762 214.115455 
L 350.641026 227.817273 
L 351.544289 232.099091 
L 353.350816 212.402727 
L 354.254079 223.535455 
L 355.157343 229.53 
L 356.060606 228.673636 
L 356.963869 225.248182 
L 357.867133 232.099091 
L 358.770396 228.673636 
L 359.67366 229.53 
L 360.576923 228.673636 
L 361.480186 232.955455 
L 362.38345 236.380909 
L 363.286713 226.960909 
L 364.189977 239.806364 
L 365.09324 232.099091 
L 365.996503 230.386364 
L 366.899767 227.817273 
L 367.80303 236.380909 
L 368.706294 241.519091 
L 369.609557 237.237273 
L 370.512821 227.817273 
L 371.416084 232.099091 
L 372.319347 237.237273 
L 373.222611 225.248182 
L 374.125874 230.386364 
L 375.029138 226.960909 
L 375.932401 232.955455 
L 376.835664 238.093636 
L 377.738928 241.519091 
L 378.642191 238.95 
L 379.545455 230.386364 
L 380.448718 232.099091 
L 381.351981 238.093636 
L 382.255245 240.662727 
L 383.158508 238.093636 
L 384.061772 232.099091 
L 384.965035 223.535455 
L 385.868298 222.679091 
L 386.771562 236.380909 
L 387.674825 220.966364 
L 388.578089 232.099091 
L 389.481352 218.397273 
L 390.384615 239.806364 
L 391.287879 222.679091 
L 392.191142 220.11 
L 393.094406 214.971818 
L 393.997669 211.546364 
L 394.900932 189.280909 
L 395.804196 227.817273 
L 396.707459 225.248182 
L 397.610723 208.120909 
L 398.513986 196.131818 
L 399.417249 213.259091 
L 400.320513 202.126364 
L 401.223776 214.971818 
L 402.12704 223.535455 
L 403.030303 206.408182 
L 403.933566 173.866364 
L 404.83683 179.004545 
L 405.740093 156.739091 
L 406.643357 170.440909 
L 407.54662 172.153636 
L 408.449883 191.85 
L 409.353147 131.048182 
L 410.25641 155.882727 
L 411.159674 149.031818 
L 412.062937 119.915455 
L 412.9662 142.180909 
L 413.869464 185.855455 
L 414.772727 189.280909 
L 415.675991 150.744545 
L 416.579254 123.340909 
L 417.482517 166.159091 
L 418.385781 147.319091 
L 419.289044 144.75 
L 420.192308 190.137273 
L 421.998834 148.175455 
L 422.902098 137.899091 
L 423.805361 175.579091 
L 424.708625 165.302727 
L 425.611888 162.733636 
L 426.515152 174.722727 
L 427.418415 181.573636 
L 428.321678 146.462727 
L 429.224942 135.33 
L 430.128205 172.153636 
L 431.031469 142.180909 
L 431.934732 163.59 
L 432.837995 166.159091 
L 433.741259 157.595455 
L 434.644522 160.164545 
L 435.547786 155.026364 
L 436.451049 170.440909 
L 437.354312 193.562727 
L 438.257576 179.860909 
L 439.160839 174.722727 
L 440.064103 194.419091 
L 441.870629 132.760909 
L 442.773893 167.871818 
L 443.677156 164.446364 
L 444.58042 131.048182 
L 445.483683 157.595455 
L 446.386946 136.186364 
L 447.29021 119.915455 
L 448.193473 118.202727 
L 450 223.535455 
L 450 223.535455 
" style="fill:none;stroke:#000000;stroke-dasharray:1.5,2.475;stroke-dashoffset:0;stroke-opacity:0.5;stroke-width:1.5;"/>
   </g>
   <g id="line2d_24">
    <path clip-path="url(#pa6b13f0101)" d="M 62.5 250.939091 
L 63.403263 250.082727 
L 67.016317 250.082727 
L 67.91958 249.226364 
L 69.726107 249.226364 
L 70.629371 248.37 
L 74.242424 248.37 
L 75.145688 249.226364 
L 76.048951 249.226364 
L 76.952214 250.082727 
L 77.855478 250.082727 
L 78.758741 249.226364 
L 79.662005 250.082727 
L 80.565268 250.082727 
L 81.468531 249.226364 
L 83.275058 249.226364 
L 84.178322 250.082727 
L 85.081585 249.226364 
L 91.404429 249.226364 
L 92.307692 250.082727 
L 95.920746 250.082727 
L 96.824009 250.939091 
L 101.340326 250.939091 
L 103.146853 249.226364 
L 106.759907 249.226364 
L 108.566434 250.939091 
L 109.469697 250.939091 
L 111.276224 249.226364 
L 112.179487 249.226364 
L 113.986014 247.513636 
L 120.308858 247.513636 
L 121.212121 246.657273 
L 125.728438 246.657273 
L 126.631702 247.513636 
L 127.534965 247.513636 
L 128.438228 246.657273 
L 130.244755 246.657273 
L 131.148019 247.513636 
L 132.051282 246.657273 
L 134.761072 246.657273 
L 137.470862 244.088182 
L 139.277389 240.662727 
L 140.180653 239.806364 
L 141.083916 239.806364 
L 143.793706 237.237273 
L 144.69697 238.093636 
L 146.503497 234.668182 
L 148.310023 232.955455 
L 149.213287 232.955455 
L 151.019814 229.53 
L 151.923077 229.53 
L 152.82634 230.386364 
L 153.729604 226.960909 
L 154.632867 226.960909 
L 155.536131 226.104545 
L 156.439394 226.104545 
L 158.245921 222.679091 
L 159.149184 222.679091 
L 160.052448 221.822727 
L 161.858974 221.822727 
L 162.762238 220.11 
L 163.665501 219.253636 
L 164.568765 216.684545 
L 165.472028 212.402727 
L 166.375291 212.402727 
L 167.278555 208.977273 
L 168.181818 204.695455 
L 169.085082 203.839091 
L 169.988345 199.557273 
L 170.891608 196.988182 
L 171.794872 198.700909 
L 172.698135 194.419091 
L 173.601399 189.280909 
L 174.504662 189.280909 
L 175.407925 186.711818 
L 176.311189 185.855455 
L 178.117716 187.568182 
L 179.020979 192.706364 
L 179.924242 192.706364 
L 180.827506 190.137273 
L 181.730769 190.993636 
L 182.634033 190.993636 
L 183.537296 189.280909 
L 184.440559 186.711818 
L 185.343823 183.286364 
L 186.247086 184.142727 
L 187.15035 182.43 
L 188.053613 179.860909 
L 189.86014 181.573636 
L 190.763403 185.855455 
L 191.666667 190.993636 
L 192.56993 192.706364 
L 193.473193 195.275455 
L 194.376457 195.275455 
L 195.27972 194.419091 
L 196.182984 198.700909 
L 197.086247 196.988182 
L 198.892774 202.126364 
L 199.796037 203.839091 
L 201.602564 210.69 
L 202.505828 213.259091 
L 203.409091 216.684545 
L 204.312354 217.540909 
L 206.118881 217.540909 
L 207.022145 215.828182 
L 207.925408 217.540909 
L 208.828671 215.828182 
L 209.731935 218.397273 
L 210.635198 219.253636 
L 211.538462 221.822727 
L 212.441725 223.535455 
L 213.344988 224.391818 
L 214.248252 223.535455 
L 215.151515 225.248182 
L 216.054779 225.248182 
L 216.958042 226.960909 
L 217.861305 227.817273 
L 218.764569 226.960909 
L 219.667832 227.817273 
L 220.571096 226.104545 
L 221.474359 223.535455 
L 222.377622 221.822727 
L 223.280886 220.966364 
L 224.184149 220.966364 
L 225.087413 222.679091 
L 225.990676 222.679091 
L 226.893939 224.391818 
L 227.797203 224.391818 
L 228.700466 225.248182 
L 229.60373 224.391818 
L 230.506993 224.391818 
L 231.410256 223.535455 
L 232.31352 223.535455 
L 233.216783 222.679091 
L 234.120047 217.540909 
L 235.02331 214.115455 
L 235.926573 211.546364 
L 236.829837 209.833636 
L 237.7331 209.833636 
L 238.636364 208.120909 
L 239.539627 209.833636 
L 240.44289 214.115455 
L 241.346154 214.971818 
L 242.249417 219.253636 
L 243.152681 221.822727 
L 244.055944 225.248182 
L 244.959207 226.104545 
L 245.862471 226.104545 
L 246.765734 224.391818 
L 247.668998 223.535455 
L 248.572261 220.966364 
L 249.475524 214.971818 
L 250.378788 213.259091 
L 251.282051 212.402727 
L 252.185315 210.69 
L 253.088578 210.69 
L 253.991841 209.833636 
L 254.895105 210.69 
L 255.798368 212.402727 
L 256.701632 210.69 
L 257.604895 207.264545 
L 258.508159 202.982727 
L 259.411422 197.844545 
L 260.314685 194.419091 
L 261.217949 192.706364 
L 262.121212 193.562727 
L 263.024476 195.275455 
L 264.831002 203.839091 
L 265.734266 205.551818 
L 267.540793 205.551818 
L 268.444056 204.695455 
L 269.347319 202.126364 
L 270.250583 201.27 
L 271.153846 202.126364 
L 272.05711 204.695455 
L 272.960373 209.833636 
L 273.863636 213.259091 
L 274.7669 214.971818 
L 275.670163 217.540909 
L 276.573427 216.684545 
L 277.47669 213.259091 
L 278.379953 204.695455 
L 279.283217 200.413636 
L 280.18648 198.700909 
L 281.089744 197.844545 
L 281.993007 193.562727 
L 282.89627 191.85 
L 283.799534 190.993636 
L 284.702797 194.419091 
L 285.606061 190.137273 
L 286.509324 188.424545 
L 287.412587 189.280909 
L 288.315851 192.706364 
L 289.219114 194.419091 
L 290.122378 193.562727 
L 291.025641 190.993636 
L 291.928904 193.562727 
L 292.832168 193.562727 
L 293.735431 192.706364 
L 295.541958 189.280909 
L 296.445221 185.855455 
L 297.348485 183.286364 
L 298.251748 179.004545 
L 300.058275 177.291818 
L 300.961538 172.153636 
L 301.864802 171.297273 
L 302.768065 168.728182 
L 303.671329 167.871818 
L 305.477855 162.733636 
L 306.381119 161.020909 
L 307.284382 162.733636 
L 308.187646 156.739091 
L 309.090909 161.020909 
L 309.994172 156.739091 
L 311.800699 153.313636 
L 312.703963 147.319091 
L 313.607226 135.33 
L 315.413753 135.33 
L 316.317016 143.893636 
L 317.22028 144.75 
L 318.123543 151.600909 
L 319.026807 145.606364 
L 319.93007 143.893636 
L 320.833333 126.766364 
L 321.736597 113.920909 
L 322.63986 110.495455 
L 324.446387 127.622727 
L 325.34965 139.611818 
L 326.252914 143.037273 
L 327.156177 149.031818 
L 328.059441 147.319091 
L 328.962704 146.462727 
L 330.769231 139.611818 
L 332.575758 143.037273 
L 333.479021 143.037273 
L 335.285548 146.462727 
L 336.188811 153.313636 
L 337.092075 159.308182 
L 337.995338 167.871818 
L 338.898601 171.297273 
L 339.801865 175.579091 
L 340.705128 182.43 
L 341.608392 187.568182 
L 342.511655 190.137273 
L 343.414918 191.85 
L 344.318182 192.706364 
L 345.221445 196.988182 
L 346.124709 198.700909 
L 347.027972 199.557273 
L 347.931235 203.839091 
L 348.834499 209.833636 
L 349.737762 216.684545 
L 350.641026 220.11 
L 351.544289 220.966364 
L 353.350816 224.391818 
L 354.254079 224.391818 
L 356.060606 226.104545 
L 356.963869 228.673636 
L 357.867133 228.673636 
L 359.67366 230.386364 
L 360.576923 230.386364 
L 361.480186 232.099091 
L 362.38345 232.099091 
L 363.286713 232.955455 
L 365.996503 232.955455 
L 366.899767 234.668182 
L 367.80303 233.811818 
L 368.706294 233.811818 
L 369.609557 234.668182 
L 371.416084 232.955455 
L 372.319347 231.242727 
L 373.222611 230.386364 
L 375.029138 232.099091 
L 375.932401 233.811818 
L 378.642191 236.380909 
L 380.448718 236.380909 
L 382.255245 234.668182 
L 383.158508 232.955455 
L 384.061772 232.955455 
L 384.965035 230.386364 
L 386.771562 226.960909 
L 387.674825 227.817273 
L 388.578089 227.817273 
L 389.481352 226.960909 
L 391.287879 223.535455 
L 392.191142 217.540909 
L 393.094406 216.684545 
L 395.804196 211.546364 
L 397.610723 209.833636 
L 398.513986 211.546364 
L 399.417249 210.69 
L 400.320513 208.977273 
L 402.12704 203.839091 
L 403.030303 195.275455 
L 403.933566 188.424545 
L 404.83683 180.717273 
L 405.740093 176.435455 
L 406.643357 168.728182 
L 407.54662 166.159091 
L 408.449883 161.877273 
L 409.353147 156.739091 
L 410.25641 150.744545 
L 411.159674 150.744545 
L 412.062937 151.600909 
L 412.9662 155.882727 
L 413.869464 154.17 
L 414.772727 156.739091 
L 415.675991 158.451818 
L 416.579254 156.739091 
L 418.385781 155.026364 
L 419.289044 157.595455 
L 420.192308 159.308182 
L 421.998834 161.020909 
L 422.902098 162.733636 
L 423.805361 161.020909 
L 424.708625 163.59 
L 425.611888 165.302727 
L 426.515152 164.446364 
L 427.418415 162.733636 
L 428.321678 159.308182 
L 429.224942 157.595455 
L 430.128205 156.739091 
L 431.031469 155.026364 
L 431.934732 157.595455 
L 432.837995 159.308182 
L 433.741259 159.308182 
L 434.644522 165.302727 
L 436.451049 170.440909 
L 437.354312 175.579091 
L 438.257576 178.148182 
L 439.160839 174.722727 
L 440.064103 172.153636 
L 440.967366 167.871818 
L 441.870629 161.020909 
L 442.773893 157.595455 
L 443.677156 150.744545 
L 444.58042 145.606364 
L 445.483683 142.180909 
L 446.386946 140.468182 
L 447.29021 147.319091 
L 448.193473 153.313636 
L 449.096737 157.595455 
L 450 165.302727 
L 450 165.302727 
" style="fill:none;stroke:#b3220f;stroke-linecap:square;stroke-width:1.5;"/>
   </g>
   <g id="patch_3">
    <path d="M 62.5 262.5 
L 62.5 27 
" style="fill:none;stroke:#555555;stroke-linecap:square;stroke-linejoin:miter;"/>
   </g>
   <g id="patch_4">
    <path d="M 62.5 262.5 
L 450 262.5 
" style="fill:none;stroke:#555555;stroke-linecap:square;stroke-linejoin:miter;"/>
   </g>
   <g id="text_13">
    <!-- Teusaquillo | Casos nuevos: 2021-05-27 -->
    <g style="fill:#555555;" transform="translate(131.121719 17)scale(0.14 -0.14)">
     <defs>
      <path d="M 24 63.40625 
L 24 0 
L 33.5 0 
L 33.5 63.40625 
L 57.296875 63.40625 
L 57.296875 71.40625 
L 0.203125 71.40625 
L 0.203125 63.40625 
z
" id="HelveticaNeue-84"/>
      <path d="M 11.59375 16.296875 
L 3.09375 16.296875 
Q 3.296875 11.5 5.09375 8.140625 
Q 6.90625 4.796875 9.90625 2.75 
Q 12.90625 0.703125 16.796875 -0.1875 
Q 20.703125 -1.09375 25 -1.09375 
Q 28.90625 -1.09375 32.84375 -0.34375 
Q 36.796875 0.40625 39.9375 2.296875 
Q 43.09375 4.203125 45.046875 7.296875 
Q 47 10.40625 47 15.09375 
Q 47 18.796875 45.546875 21.296875 
Q 44.09375 23.796875 41.75 25.4375 
Q 39.40625 27.09375 36.34375 28.09375 
Q 33.296875 29.09375 30.09375 29.796875 
Q 27.09375 30.5 24.09375 31.140625 
Q 21.09375 31.796875 18.6875 32.75 
Q 16.296875 33.703125 14.75 35.140625 
Q 13.203125 36.59375 13.203125 38.796875 
Q 13.203125 40.796875 14.203125 42.046875 
Q 15.203125 43.296875 16.796875 44.046875 
Q 18.40625 44.796875 20.34375 45.09375 
Q 22.296875 45.40625 24.203125 45.40625 
Q 26.296875 45.40625 28.34375 44.953125 
Q 30.40625 44.5 32.09375 43.5 
Q 33.796875 42.5 34.890625 40.84375 
Q 36 39.203125 36.203125 36.703125 
L 44.703125 36.703125 
Q 44.40625 41.40625 42.703125 44.546875 
Q 41 47.703125 38.140625 49.546875 
Q 35.296875 51.40625 31.59375 52.15625 
Q 27.90625 52.90625 23.5 52.90625 
Q 20.09375 52.90625 16.640625 52.046875 
Q 13.203125 51.203125 10.453125 49.453125 
Q 7.703125 47.703125 5.953125 44.890625 
Q 4.203125 42.09375 4.203125 38.203125 
Q 4.203125 33.203125 6.703125 30.390625 
Q 9.203125 27.59375 12.953125 26.046875 
Q 16.703125 24.5 21.09375 23.640625 
Q 25.5 22.796875 29.25 21.75 
Q 33 20.703125 35.5 19 
Q 38 17.296875 38 14 
Q 38 11.59375 36.796875 10.046875 
Q 35.59375 8.5 33.75 7.703125 
Q 31.90625 6.90625 29.703125 6.59375 
Q 27.5 6.296875 25.5 6.296875 
Q 22.90625 6.296875 20.453125 6.796875 
Q 18 7.296875 16.046875 8.4375 
Q 14.09375 9.59375 12.890625 11.546875 
Q 11.703125 13.5 11.59375 16.296875 
z
" id="HelveticaNeue-115"/>
      <path d="M 12.59375 25.40625 
Q 12.59375 29.203125 13.390625 32.796875 
Q 14.203125 36.40625 16 39.203125 
Q 17.796875 42 20.796875 43.703125 
Q 23.796875 45.40625 28.09375 45.40625 
Q 32.5 45.40625 35.59375 43.75 
Q 38.703125 42.09375 40.640625 39.390625 
Q 42.59375 36.703125 43.5 33.140625 
Q 44.40625 29.59375 44.40625 25.796875 
Q 44.40625 22.203125 43.546875 18.703125 
Q 42.703125 15.203125 40.796875 12.453125 
Q 38.90625 9.703125 35.90625 8 
Q 32.90625 6.296875 28.59375 6.296875 
Q 24.5 6.296875 21.453125 7.890625 
Q 18.40625 9.5 16.453125 12.203125 
Q 14.5 14.90625 13.546875 18.34375 
Q 12.59375 21.796875 12.59375 25.40625 
z
M 52.59375 -19.703125 
L 52.59375 51.703125 
L 44.09375 51.703125 
L 44.09375 44.796875 
L 43.90625 44.796875 
Q 42.5 47.09375 40.453125 48.640625 
Q 38.40625 50.203125 36.09375 51.140625 
Q 33.796875 52.09375 31.5 52.5 
Q 29.203125 52.90625 27.203125 52.90625 
Q 21.296875 52.90625 16.84375 50.75 
Q 12.40625 48.59375 9.453125 44.9375 
Q 6.5 41.296875 5.046875 36.390625 
Q 3.59375 31.5 3.59375 26 
Q 3.59375 20.5 5.09375 15.59375 
Q 6.59375 10.703125 9.546875 7 
Q 12.5 3.296875 16.953125 1.09375 
Q 21.40625 -1.09375 27.40625 -1.09375 
Q 32.796875 -1.09375 37.296875 0.796875 
Q 41.796875 2.703125 43.90625 7 
L 44.09375 7 
L 44.09375 -19.703125 
z
" id="HelveticaNeue-113"/>
      <path d="M 15.40625 61 
L 15.40625 71.40625 
L 6.90625 71.40625 
L 6.90625 61 
z
M 6.90625 51.703125 
L 6.90625 0 
L 15.40625 0 
L 15.40625 51.703125 
z
" id="HelveticaNeue-105"/>
      <path d="M 12.59375 25.796875 
Q 12.59375 30.5 13.84375 34.140625 
Q 15.09375 37.796875 17.296875 40.296875 
Q 19.5 42.796875 22.453125 44.09375 
Q 25.40625 45.40625 28.703125 45.40625 
Q 32 45.40625 34.953125 44.09375 
Q 37.90625 42.796875 40.09375 40.296875 
Q 42.296875 37.796875 43.546875 34.140625 
Q 44.796875 30.5 44.796875 25.796875 
Q 44.796875 21.09375 43.546875 17.4375 
Q 42.296875 13.796875 40.09375 11.34375 
Q 37.90625 8.90625 34.953125 7.59375 
Q 32 6.296875 28.703125 6.296875 
Q 25.40625 6.296875 22.453125 7.59375 
Q 19.5 8.90625 17.296875 11.34375 
Q 15.09375 13.796875 13.84375 17.4375 
Q 12.59375 21.09375 12.59375 25.796875 
z
M 3.59375 25.796875 
Q 3.59375 20.09375 5.1875 15.1875 
Q 6.796875 10.296875 10 6.640625 
Q 13.203125 3 17.890625 0.953125 
Q 22.59375 -1.09375 28.703125 -1.09375 
Q 34.90625 -1.09375 39.546875 0.953125 
Q 44.203125 3 47.390625 6.640625 
Q 50.59375 10.296875 52.1875 15.1875 
Q 53.796875 20.09375 53.796875 25.796875 
Q 53.796875 31.5 52.1875 36.453125 
Q 50.59375 41.40625 47.390625 45.046875 
Q 44.203125 48.703125 39.546875 50.796875 
Q 34.90625 52.90625 28.703125 52.90625 
Q 22.59375 52.90625 17.890625 50.796875 
Q 13.203125 48.703125 10 45.046875 
Q 6.796875 41.40625 5.1875 36.453125 
Q 3.59375 31.5 3.59375 25.796875 
z
" id="HelveticaNeue-111"/>
      <path id="HelveticaNeue-32"/>
      <path d="M 7.703125 78.59375 
L 7.703125 -21.296875 
L 14.5 -21.296875 
L 14.5 78.59375 
z
" id="HelveticaNeue-124"/>
      <path d="M 58 49.90625 
L 67.5 49.90625 
Q 66.703125 55.59375 64.09375 59.9375 
Q 61.5 64.296875 57.59375 67.1875 
Q 53.703125 70.09375 48.703125 71.59375 
Q 43.703125 73.09375 38.09375 73.09375 
Q 29.90625 73.09375 23.546875 70.140625 
Q 17.203125 67.203125 12.953125 62.09375 
Q 8.703125 57 6.5 50.140625 
Q 4.296875 43.296875 4.296875 35.5 
Q 4.296875 27.703125 6.34375 20.890625 
Q 8.40625 14.09375 12.5 9.09375 
Q 16.59375 4.09375 22.796875 1.25 
Q 29 -1.59375 37.296875 -1.59375 
Q 51 -1.59375 58.890625 5.90625 
Q 66.796875 13.40625 68.203125 26.90625 
L 58.703125 26.90625 
Q 58.40625 22.5 56.90625 18.703125 
Q 55.40625 14.90625 52.75 12.15625 
Q 50.09375 9.40625 46.4375 7.84375 
Q 42.796875 6.296875 38.09375 6.296875 
Q 31.703125 6.296875 27.09375 8.6875 
Q 22.5 11.09375 19.546875 15.140625 
Q 16.59375 19.203125 15.1875 24.640625 
Q 13.796875 30.09375 13.796875 36.203125 
Q 13.796875 41.796875 15.1875 47 
Q 16.59375 52.203125 19.546875 56.25 
Q 22.5 60.296875 27.046875 62.6875 
Q 31.59375 65.09375 38 65.09375 
Q 45.5 65.09375 50.953125 61.296875 
Q 56.40625 57.5 58 49.90625 
z
" id="HelveticaNeue-67"/>
      <path d="M 29.703125 0 
L 48.59375 51.703125 
L 39.703125 51.703125 
L 25.59375 8.59375 
L 25.40625 8.59375 
L 10.90625 51.703125 
L 1.40625 51.703125 
L 20.59375 0 
z
" id="HelveticaNeue-118"/>
      <path d="M 19.40625 40.59375 
L 19.40625 51.703125 
L 8.296875 51.703125 
L 8.296875 40.59375 
z
M 8.296875 11.09375 
L 8.296875 0 
L 19.40625 0 
L 19.40625 11.09375 
z
" id="HelveticaNeue-58"/>
      <path d="M 5 31.796875 
L 5 23.796875 
L 33.90625 23.796875 
L 33.90625 31.796875 
z
" id="HelveticaNeue-45"/>
      <path d="M 50.90625 62.40625 
L 50.90625 69.703125 
L 5 69.703125 
L 5 61.703125 
L 42.203125 61.703125 
Q 36.59375 55.796875 31.75 48.796875 
Q 26.90625 41.796875 23.203125 33.9375 
Q 19.5 26.09375 17.140625 17.546875 
Q 14.796875 9 14.203125 0 
L 23.703125 0 
Q 24.203125 8.296875 26.5 17.09375 
Q 28.796875 25.90625 32.4375 34.203125 
Q 36.09375 42.5 40.796875 49.796875 
Q 45.5 57.09375 50.90625 62.40625 
z
" id="HelveticaNeue-55"/>
     </defs>
     <use xlink:href="#HelveticaNeue-84"/>
     <use x="46.274994" xlink:href="#HelveticaNeue-101"/>
     <use x="99.974991" xlink:href="#HelveticaNeue-117"/>
     <use x="155.574982" xlink:href="#HelveticaNeue-115"/>
     <use x="205.574966" xlink:href="#HelveticaNeue-97"/>
     <use x="259.274963" xlink:href="#HelveticaNeue-113"/>
     <use x="318.574951" xlink:href="#HelveticaNeue-117"/>
     <use x="374.174942" xlink:href="#HelveticaNeue-105"/>
     <use x="396.374939" xlink:href="#HelveticaNeue-108"/>
     <use x="418.574936" xlink:href="#HelveticaNeue-108"/>
     <use x="440.774933" xlink:href="#HelveticaNeue-111"/>
     <use x="498.174927" xlink:href="#HelveticaNeue-32"/>
     <use x="525.974915" xlink:href="#HelveticaNeue-124"/>
     <use x="548.174911" xlink:href="#HelveticaNeue-32"/>
     <use x="575.974899" xlink:href="#HelveticaNeue-67"/>
     <use x="648.174881" xlink:href="#HelveticaNeue-97"/>
     <use x="701.874878" xlink:href="#HelveticaNeue-115"/>
     <use x="751.874863" xlink:href="#HelveticaNeue-111"/>
     <use x="809.274857" xlink:href="#HelveticaNeue-115"/>
     <use x="859.274841" xlink:href="#HelveticaNeue-32"/>
     <use x="887.074829" xlink:href="#HelveticaNeue-110"/>
     <use x="942.67482" xlink:href="#HelveticaNeue-117"/>
     <use x="998.274811" xlink:href="#HelveticaNeue-101"/>
     <use x="1051.974808" xlink:href="#HelveticaNeue-118"/>
     <use x="1101.974792" xlink:href="#HelveticaNeue-111"/>
     <use x="1159.374786" xlink:href="#HelveticaNeue-115"/>
     <use x="1209.374771" xlink:href="#HelveticaNeue-58"/>
     <use x="1237.174759" xlink:href="#HelveticaNeue-32"/>
     <use x="1264.974747" xlink:href="#HelveticaNeue-50"/>
     <use x="1320.574738" xlink:href="#HelveticaNeue-48"/>
     <use x="1376.174728" xlink:href="#HelveticaNeue-50"/>
     <use x="1431.774719" xlink:href="#HelveticaNeue-49"/>
     <use x="1487.37471" xlink:href="#HelveticaNeue-45"/>
     <use x="1526.274704" xlink:href="#HelveticaNeue-48"/>
     <use x="1581.874695" xlink:href="#HelveticaNeue-53"/>
     <use x="1637.474686" xlink:href="#HelveticaNeue-45"/>
     <use x="1676.37468" xlink:href="#HelveticaNeue-50"/>
     <use x="1731.97467" xlink:href="#HelveticaNeue-55"/>
    </g>
   </g>
   <g id="legend_1">
    <g id="line2d_25">
     <path d="M 71.5 39.640625 
L 91.5 39.640625 
" style="fill:none;stroke:#000000;stroke-dasharray:1.5,2.475;stroke-dashoffset:0;stroke-opacity:0.5;stroke-width:1.5;"/>
    </g>
    <g id="line2d_26"/>
    <g id="text_14">
     <!-- Actual -->
     <g style="fill:#555555;" transform="translate(99.5 43.140625)scale(0.1 -0.1)">
      <use xlink:href="#HelveticaNeue-65"/>
      <use x="64.799988" xlink:href="#HelveticaNeue-99"/>
      <use x="118.499985" xlink:href="#HelveticaNeue-116"/>
      <use x="149.999969" xlink:href="#HelveticaNeue-117"/>
      <use x="205.59996" xlink:href="#HelveticaNeue-97"/>
      <use x="259.299957" xlink:href="#HelveticaNeue-108"/>
     </g>
    </g>
    <g id="line2d_27">
     <path d="M 71.5 54.310937 
L 91.5 54.310937 
" style="fill:none;stroke:#b3220f;stroke-linecap:square;stroke-width:1.5;"/>
    </g>
    <g id="line2d_28"/>
    <g id="text_15">
     <!-- Promedio semanal (7 das)  -->
     <g style="fill:#555555;" transform="translate(99.5 57.810937)scale(0.1 -0.1)">
      <defs>
       <path d="M 17.296875 37.203125 
L 17.296875 63.40625 
L 35.90625 63.40625 
Q 44 63.40625 47.75 60.046875 
Q 51.5 56.703125 51.5 50.296875 
Q 51.5 43.90625 47.75 40.5 
Q 44 37.09375 35.90625 37.203125 
z
M 7.796875 71.40625 
L 7.796875 0 
L 17.296875 0 
L 17.296875 29.203125 
L 39.09375 29.203125 
Q 49.90625 29.09375 55.453125 34.6875 
Q 61 40.296875 61 50.296875 
Q 61 60.296875 55.453125 65.84375 
Q 49.90625 71.40625 39.09375 71.40625 
z
" id="HelveticaNeue-80"/>
       <path d="M 6.40625 51.703125 
L 6.40625 0 
L 14.90625 0 
L 14.90625 32.203125 
Q 14.90625 33.703125 15.65625 35.953125 
Q 16.40625 38.203125 18.046875 40.296875 
Q 19.703125 42.40625 22.34375 43.90625 
Q 25 45.40625 28.703125 45.40625 
Q 31.59375 45.40625 33.4375 44.546875 
Q 35.296875 43.703125 36.390625 42.140625 
Q 37.5 40.59375 37.953125 38.5 
Q 38.40625 36.40625 38.40625 33.90625 
L 38.40625 0 
L 46.90625 0 
L 46.90625 32.203125 
Q 46.90625 38.203125 50.5 41.796875 
Q 54.09375 45.40625 60.40625 45.40625 
Q 63.5 45.40625 65.453125 44.5 
Q 67.40625 43.59375 68.5 42.046875 
Q 69.59375 40.5 70 38.390625 
Q 70.40625 36.296875 70.40625 33.90625 
L 70.40625 0 
L 78.90625 0 
L 78.90625 37.90625 
Q 78.90625 41.90625 77.65625 44.75 
Q 76.40625 47.59375 74.15625 49.390625 
Q 71.90625 51.203125 68.75 52.046875 
Q 65.59375 52.90625 61.703125 52.90625 
Q 56.59375 52.90625 52.34375 50.59375 
Q 48.09375 48.296875 45.5 44.09375 
Q 43.90625 48.90625 40 50.90625 
Q 36.09375 52.90625 31.296875 52.90625 
Q 20.40625 52.90625 14.59375 44.09375 
L 14.40625 44.09375 
L 14.40625 51.703125 
z
" id="HelveticaNeue-109"/>
       <path d="M 12.59375 25.40625 
Q 12.59375 29.203125 13.390625 32.796875 
Q 14.203125 36.40625 16 39.203125 
Q 17.796875 42 20.796875 43.703125 
Q 23.796875 45.40625 28.09375 45.40625 
Q 32.5 45.40625 35.59375 43.75 
Q 38.703125 42.09375 40.640625 39.390625 
Q 42.59375 36.703125 43.5 33.140625 
Q 44.40625 29.59375 44.40625 25.796875 
Q 44.40625 22.203125 43.546875 18.703125 
Q 42.703125 15.203125 40.796875 12.453125 
Q 38.90625 9.703125 35.90625 8 
Q 32.90625 6.296875 28.59375 6.296875 
Q 24.5 6.296875 21.453125 7.890625 
Q 18.40625 9.5 16.453125 12.203125 
Q 14.5 14.90625 13.546875 18.34375 
Q 12.59375 21.796875 12.59375 25.40625 
z
M 52.59375 0 
L 52.59375 71.40625 
L 44.09375 71.40625 
L 44.09375 44.796875 
L 43.90625 44.796875 
Q 42.5 47.09375 40.453125 48.640625 
Q 38.40625 50.203125 36.09375 51.140625 
Q 33.796875 52.09375 31.5 52.5 
Q 29.203125 52.90625 27.203125 52.90625 
Q 21.296875 52.90625 16.84375 50.75 
Q 12.40625 48.59375 9.453125 44.9375 
Q 6.5 41.296875 5.046875 36.390625 
Q 3.59375 31.5 3.59375 26 
Q 3.59375 20.5 5.09375 15.59375 
Q 6.59375 10.703125 9.546875 7 
Q 12.5 3.296875 16.953125 1.09375 
Q 21.40625 -1.09375 27.40625 -1.09375 
Q 32.796875 -1.09375 37.296875 0.796875 
Q 41.796875 2.703125 43.90625 7 
L 44.09375 7 
L 44.09375 0 
z
" id="HelveticaNeue-100"/>
       <path d="M 20.40625 -19.703125 
L 26.90625 -19.703125 
Q 19.796875 -8.203125 16.75 3.09375 
Q 13.703125 14.40625 13.703125 27 
Q 13.703125 39.296875 16.703125 50.5 
Q 19.703125 61.703125 26.90625 73.09375 
L 20.40625 73.09375 
Q 12.59375 62.796875 8.640625 50.796875 
Q 4.703125 38.796875 4.703125 27 
Q 4.703125 20.40625 5.796875 14.40625 
Q 6.90625 8.40625 8.953125 2.703125 
Q 11 -3 13.890625 -8.546875 
Q 16.796875 -14.09375 20.40625 -19.703125 
z
" id="HelveticaNeue-40"/>
       <path d="M 6.90625 0 
L 15.40625 0 
L 15.40625 51.703125 
L 6.90625 51.703125 
z
M 25.5 77 
L 11.40625 60.796875 
L 5 60.796875 
L 14.59375 77 
z
" id="HelveticaNeue-237"/>
       <path d="M -0.90625 -19.703125 
L 5.5 -19.703125 
Q 13.296875 -9.40625 17.25 2.546875 
Q 21.203125 14.5 21.203125 26.296875 
Q 21.203125 32.90625 20.09375 38.90625 
Q 19 44.90625 16.953125 50.65625 
Q 14.90625 56.40625 12 61.953125 
Q 9.09375 67.5 5.5 73.09375 
L -0.90625 73.09375 
Q 6.09375 61.59375 9.140625 50.25 
Q 12.203125 38.90625 12.203125 26.296875 
Q 12.203125 14.09375 9.203125 2.84375 
Q 6.203125 -8.40625 -0.90625 -19.703125 
z
" id="HelveticaNeue-41"/>
      </defs>
      <use xlink:href="#HelveticaNeue-80"/>
      <use x="64.799988" xlink:href="#HelveticaNeue-114"/>
      <use x="96.349976" xlink:href="#HelveticaNeue-111"/>
      <use x="153.749969" xlink:href="#HelveticaNeue-109"/>
      <use x="239.049957" xlink:href="#HelveticaNeue-101"/>
      <use x="292.749954" xlink:href="#HelveticaNeue-100"/>
      <use x="352.049942" xlink:href="#HelveticaNeue-105"/>
      <use x="374.249939" xlink:href="#HelveticaNeue-111"/>
      <use x="431.649933" xlink:href="#HelveticaNeue-32"/>
      <use x="459.449921" xlink:href="#HelveticaNeue-115"/>
      <use x="509.449905" xlink:href="#HelveticaNeue-101"/>
      <use x="563.149902" xlink:href="#HelveticaNeue-109"/>
      <use x="648.44989" xlink:href="#HelveticaNeue-97"/>
      <use x="702.149887" xlink:href="#HelveticaNeue-110"/>
      <use x="757.749878" xlink:href="#HelveticaNeue-97"/>
      <use x="811.449875" xlink:href="#HelveticaNeue-108"/>
      <use x="833.649872" xlink:href="#HelveticaNeue-32"/>
      <use x="861.44986" xlink:href="#HelveticaNeue-40"/>
      <use x="887.349854" xlink:href="#HelveticaNeue-55"/>
      <use x="942.949844" xlink:href="#HelveticaNeue-32"/>
      <use x="970.749832" xlink:href="#HelveticaNeue-100"/>
      <use x="1030.04982" xlink:href="#HelveticaNeue-237"/>
      <use x="1052.249817" xlink:href="#HelveticaNeue-97"/>
      <use x="1105.949814" xlink:href="#HelveticaNeue-115"/>
      <use x="1155.949799" xlink:href="#HelveticaNeue-41"/>
      <use x="1181.849792" xlink:href="#HelveticaNeue-32"/>
     </g>
    </g>
   </g>
  </g>
 </g>
 <defs>
  <clipPath id="pa6b13f0101">
   <rect height="235.5" width="387.5" x="62.5" y="27"/>
  </clipPath>
 </defs>
</svg>
