<?xml version="1.0" encoding="utf-8" standalone="no"?>
<!DOCTYPE svg PUBLIC "-//W3C//DTD SVG 1.1//EN"
  "http://www.w3.org/Graphics/SVG/1.1/DTD/svg11.dtd">
<!-- Created with matplotlib (https://matplotlib.org/) -->
<svg height="300pt" version="1.1" viewBox="0 0 500 300" width="500pt" xmlns="http://www.w3.org/2000/svg" xmlns:xlink="http://www.w3.org/1999/xlink">
 <metadata>
  <rdf:RDF xmlns:cc="http://creativecommons.org/ns#" xmlns:dc="http://purl.org/dc/elements/1.1/" xmlns:rdf="http://www.w3.org/1999/02/22-rdf-syntax-ns#">
   <cc:Work>
    <dc:type rdf:resource="http://purl.org/dc/dcmitype/StillImage"/>
    <dc:date>2021-07-07T23:33:20.535474</dc:date>
    <dc:format>image/svg+xml</dc:format>
    <dc:creator>
     <cc:Agent>
      <dc:title>Matplotlib v3.3.4, https://matplotlib.org/</dc:title>
     </cc:Agent>
    </dc:creator>
   </cc:Work>
  </rdf:RDF>
 </metadata>
 <defs>
  <style type="text/css">*{stroke-linecap:butt;stroke-linejoin:round;}</style>
 </defs>
 <g id="figure_1">
  <g id="patch_1">
   <path d="M 0 300 
L 500 300 
L 500 0 
L 0 0 
z
" style="fill:#ffffff;"/>
  </g>
  <g id="axes_1">
   <g id="patch_2">
    <path d="M 62.5 262.5 
L 450 262.5 
L 450 27 
L 62.5 27 
z
" style="fill:#ffffff;"/>
   </g>
   <g id="matplotlib.axis_1">
    <g id="xtick_1">
     <g id="line2d_1">
      <defs>
       <path d="M 0 0 
L 0 3.5 
" id="mf2d1fcd720" style="stroke:#555555;stroke-width:0.8;"/>
      </defs>
      <g>
       <use style="fill:#555555;stroke:#555555;stroke-width:0.8;" x="62.5" xlink:href="#mf2d1fcd720" y="262.5"/>
      </g>
     </g>
    </g>
    <g id="xtick_2">
     <g id="line2d_2">
      <g>
       <use style="fill:#555555;stroke:#555555;stroke-width:0.8;" x="69.123932" xlink:href="#mf2d1fcd720" y="262.5"/>
      </g>
     </g>
     <g id="text_1">
      <!-- Apr -->
      <g style="fill:#555555;" transform="translate(61.2544 276.640625)scale(0.1 -0.1)">
       <defs>
        <path d="M 20.09375 29.5 
L 32.203125 62.796875 
L 32.40625 62.796875 
L 44.296875 29.5 
z
M 27.203125 71.40625 
L -0.59375 0 
L 9.09375 0 
L 17.09375 21.5 
L 47.296875 21.5 
L 55.09375 0 
L 65.59375 0 
L 37.703125 71.40625 
z
" id="HelveticaNeue-65"/>
        <path d="M 6.703125 51.703125 
L 6.703125 -19.703125 
L 15.203125 -19.703125 
L 15.203125 6.90625 
L 15.40625 6.90625 
Q 16.796875 4.59375 18.84375 3.046875 
Q 20.90625 1.5 23.203125 0.59375 
Q 25.5 -0.296875 27.84375 -0.6875 
Q 30.203125 -1.09375 32.09375 -1.09375 
Q 38 -1.09375 42.453125 1 
Q 46.90625 3.09375 49.84375 6.75 
Q 52.796875 10.40625 54.25 15.296875 
Q 55.703125 20.203125 55.703125 25.703125 
Q 55.703125 31.203125 54.203125 36.09375 
Q 52.703125 41 49.75 44.75 
Q 46.796875 48.5 42.34375 50.703125 
Q 37.90625 52.90625 31.90625 52.90625 
Q 26.5 52.90625 22 50.953125 
Q 17.5 49 15.40625 44.703125 
L 15.203125 44.703125 
L 15.203125 51.703125 
z
M 46.703125 26.296875 
Q 46.703125 22.5 45.890625 18.890625 
Q 45.09375 15.296875 43.296875 12.5 
Q 41.5 9.703125 38.546875 8 
Q 35.59375 6.296875 31.203125 6.296875 
Q 26.796875 6.296875 23.6875 7.9375 
Q 20.59375 9.59375 18.640625 12.296875 
Q 16.703125 15 15.796875 18.546875 
Q 14.90625 22.09375 14.90625 25.90625 
Q 14.90625 29.5 15.75 33 
Q 16.59375 36.5 18.5 39.25 
Q 20.40625 42 23.40625 43.703125 
Q 26.40625 45.40625 30.703125 45.40625 
Q 34.796875 45.40625 37.84375 43.796875 
Q 40.90625 42.203125 42.84375 39.5 
Q 44.796875 36.796875 45.75 33.34375 
Q 46.703125 29.90625 46.703125 26.296875 
z
" id="HelveticaNeue-112"/>
        <path d="M 6.09375 51.703125 
L 6.09375 0 
L 14.59375 0 
L 14.59375 23 
Q 14.59375 28 15.59375 31.84375 
Q 16.59375 35.703125 18.796875 38.390625 
Q 21 41.09375 24.59375 42.5 
Q 28.203125 43.90625 33.296875 43.90625 
L 33.296875 52.90625 
Q 26.40625 53.09375 21.90625 50.09375 
Q 17.40625 47.09375 14.296875 40.796875 
L 14.09375 40.796875 
L 14.09375 51.703125 
z
" id="HelveticaNeue-114"/>
       </defs>
       <use xlink:href="#HelveticaNeue-65"/>
       <use x="64.799988" xlink:href="#HelveticaNeue-112"/>
       <use x="124.099976" xlink:href="#HelveticaNeue-114"/>
      </g>
     </g>
    </g>
    <g id="xtick_3">
     <g id="line2d_3">
      <g>
       <use style="fill:#555555;stroke:#555555;stroke-width:0.8;" x="144.471154" xlink:href="#mf2d1fcd720" y="262.5"/>
      </g>
     </g>
     <g id="text_2">
      <!-- Jul -->
      <g style="fill:#555555;" transform="translate(137.985998 276.640625)scale(0.1 -0.1)">
       <defs>
        <path d="M 44.09375 17.796875 
L 44.09375 71.40625 
L 34.59375 71.40625 
L 34.59375 19.203125 
Q 34.59375 13.296875 32.140625 9.796875 
Q 29.703125 6.296875 23.203125 6.296875 
Q 19.703125 6.296875 17.453125 7.34375 
Q 15.203125 8.40625 13.953125 10.296875 
Q 12.703125 12.203125 12.203125 14.796875 
Q 11.703125 17.40625 11.703125 20.5 
L 11.703125 23.5 
L 2.203125 23.5 
L 2.203125 19.09375 
Q 2.203125 8.90625 7.59375 3.65625 
Q 13 -1.59375 23 -1.59375 
Q 29 -1.59375 33.046875 0.046875 
Q 37.09375 1.703125 39.546875 4.453125 
Q 42 7.203125 43.046875 10.703125 
Q 44.09375 14.203125 44.09375 17.796875 
z
" id="HelveticaNeue-74"/>
        <path d="M 49.203125 0 
L 49.203125 51.703125 
L 40.703125 51.703125 
L 40.703125 22.5 
Q 40.703125 19 39.75 16.046875 
Q 38.796875 13.09375 36.890625 10.890625 
Q 35 8.703125 32.140625 7.5 
Q 29.296875 6.296875 25.40625 6.296875 
Q 20.5 6.296875 17.703125 9.09375 
Q 14.90625 11.90625 14.90625 16.703125 
L 14.90625 51.703125 
L 6.40625 51.703125 
L 6.40625 17.703125 
Q 6.40625 13.5 7.25 10.046875 
Q 8.09375 6.59375 10.1875 4.09375 
Q 12.296875 1.59375 15.6875 0.25 
Q 19.09375 -1.09375 24.203125 -1.09375 
Q 29.90625 -1.09375 34.09375 1.15625 
Q 38.296875 3.40625 41 8.203125 
L 41.203125 8.203125 
L 41.203125 0 
z
" id="HelveticaNeue-117"/>
        <path d="M 6.90625 71.40625 
L 6.90625 0 
L 15.40625 0 
L 15.40625 71.40625 
z
" id="HelveticaNeue-108"/>
       </defs>
       <use xlink:href="#HelveticaNeue-74"/>
       <use x="51.899994" xlink:href="#HelveticaNeue-117"/>
       <use x="107.499985" xlink:href="#HelveticaNeue-108"/>
      </g>
     </g>
    </g>
    <g id="xtick_4">
     <g id="line2d_4">
      <g>
       <use style="fill:#555555;stroke:#555555;stroke-width:0.8;" x="220.646368" xlink:href="#mf2d1fcd720" y="262.5"/>
      </g>
     </g>
     <g id="text_3">
      <!-- Oct -->
      <g style="fill:#555555;" transform="translate(212.586211 276.640625)scale(0.1 -0.1)">
       <defs>
        <path d="M 13.296875 35.703125 
Q 13.296875 41.09375 14.6875 46.34375 
Q 16.09375 51.59375 19.09375 55.796875 
Q 22.09375 60 26.796875 62.546875 
Q 31.5 65.09375 38 65.09375 
Q 44.5 65.09375 49.203125 62.546875 
Q 53.90625 60 56.90625 55.796875 
Q 59.90625 51.59375 61.296875 46.34375 
Q 62.703125 41.09375 62.703125 35.703125 
Q 62.703125 30.296875 61.296875 25.046875 
Q 59.90625 19.796875 56.90625 15.59375 
Q 53.90625 11.40625 49.203125 8.84375 
Q 44.5 6.296875 38 6.296875 
Q 31.5 6.296875 26.796875 8.84375 
Q 22.09375 11.40625 19.09375 15.59375 
Q 16.09375 19.796875 14.6875 25.046875 
Q 13.296875 30.296875 13.296875 35.703125 
z
M 3.796875 35.703125 
Q 3.796875 28.40625 5.9375 21.65625 
Q 8.09375 14.90625 12.390625 9.703125 
Q 16.703125 4.5 23.09375 1.453125 
Q 29.5 -1.59375 38 -1.59375 
Q 46.5 -1.59375 52.890625 1.453125 
Q 59.296875 4.5 63.59375 9.703125 
Q 67.90625 14.90625 70.046875 21.65625 
Q 72.203125 28.40625 72.203125 35.703125 
Q 72.203125 43 70.046875 49.75 
Q 67.90625 56.5 63.59375 61.703125 
Q 59.296875 66.90625 52.890625 70 
Q 46.5 73.09375 38 73.09375 
Q 29.5 73.09375 23.09375 70 
Q 16.703125 66.90625 12.390625 61.703125 
Q 8.09375 56.5 5.9375 49.75 
Q 3.796875 43 3.796875 35.703125 
z
" id="HelveticaNeue-79"/>
        <path d="M 41.5 35.09375 
L 50.296875 35.09375 
Q 49.796875 39.703125 47.890625 43.046875 
Q 46 46.40625 43.046875 48.59375 
Q 40.09375 50.796875 36.25 51.84375 
Q 32.40625 52.90625 28 52.90625 
Q 21.90625 52.90625 17.296875 50.75 
Q 12.703125 48.59375 9.640625 44.84375 
Q 6.59375 41.09375 5.09375 36.046875 
Q 3.59375 31 3.59375 25.203125 
Q 3.59375 19.40625 5.140625 14.546875 
Q 6.703125 9.703125 9.75 6.203125 
Q 12.796875 2.703125 17.34375 0.796875 
Q 21.90625 -1.09375 27.796875 -1.09375 
Q 37.703125 -1.09375 43.453125 4.09375 
Q 49.203125 9.296875 50.59375 18.90625 
L 41.90625 18.90625 
Q 41.09375 12.90625 37.546875 9.59375 
Q 34 6.296875 27.703125 6.296875 
Q 23.703125 6.296875 20.796875 7.890625 
Q 17.90625 9.5 16.09375 12.140625 
Q 14.296875 14.796875 13.4375 18.1875 
Q 12.59375 21.59375 12.59375 25.203125 
Q 12.59375 29.09375 13.390625 32.75 
Q 14.203125 36.40625 16.046875 39.203125 
Q 17.90625 42 21 43.703125 
Q 24.09375 45.40625 28.703125 45.40625 
Q 34.09375 45.40625 37.296875 42.703125 
Q 40.5 40 41.5 35.09375 
z
" id="HelveticaNeue-99"/>
        <path d="M 18.203125 51.703125 
L 18.203125 67.203125 
L 9.703125 67.203125 
L 9.703125 51.703125 
L 0.90625 51.703125 
L 0.90625 44.203125 
L 9.703125 44.203125 
L 9.703125 11.296875 
Q 9.703125 7.703125 10.390625 5.5 
Q 11.09375 3.296875 12.546875 2.09375 
Q 14 0.90625 16.34375 0.453125 
Q 18.703125 0 22 0 
L 28.5 0 
L 28.5 7.5 
L 24.59375 7.5 
Q 22.59375 7.5 21.34375 7.640625 
Q 20.09375 7.796875 19.390625 8.296875 
Q 18.703125 8.796875 18.453125 9.6875 
Q 18.203125 10.59375 18.203125 12.09375 
L 18.203125 44.203125 
L 28.5 44.203125 
L 28.5 51.703125 
z
" id="HelveticaNeue-116"/>
       </defs>
       <use xlink:href="#HelveticaNeue-79"/>
       <use x="75.999985" xlink:href="#HelveticaNeue-99"/>
       <use x="129.699982" xlink:href="#HelveticaNeue-116"/>
      </g>
     </g>
    </g>
    <g id="xtick_5">
     <g id="line2d_5">
      <g>
       <use style="fill:#555555;stroke:#555555;stroke-width:0.8;" x="296.821581" xlink:href="#mf2d1fcd720" y="262.5"/>
      </g>
     </g>
     <g id="text_4">
      <!-- Jan -->
      <g style="fill:#555555;" transform="translate(288.761425 276.640625)scale(0.1 -0.1)">
       <defs>
        <path d="M 52.203125 0.203125 
Q 50 -1.09375 46.09375 -1.09375 
Q 42.796875 -1.09375 40.84375 0.75 
Q 38.90625 2.59375 38.90625 6.796875 
Q 35.40625 2.59375 30.75 0.75 
Q 26.09375 -1.09375 20.703125 -1.09375 
Q 17.203125 -1.09375 14.046875 -0.296875 
Q 10.90625 0.5 8.59375 2.203125 
Q 6.296875 3.90625 4.9375 6.65625 
Q 3.59375 9.40625 3.59375 13.296875 
Q 3.59375 17.703125 5.09375 20.5 
Q 6.59375 23.296875 9.046875 25.046875 
Q 11.5 26.796875 14.640625 27.6875 
Q 17.796875 28.59375 21.09375 29.203125 
Q 24.59375 29.90625 27.75 30.25 
Q 30.90625 30.59375 33.296875 31.25 
Q 35.703125 31.90625 37.09375 33.15625 
Q 38.5 34.40625 38.5 36.796875 
Q 38.5 39.59375 37.453125 41.296875 
Q 36.40625 43 34.75 43.890625 
Q 33.09375 44.796875 31.046875 45.09375 
Q 29 45.40625 27 45.40625 
Q 21.59375 45.40625 18 43.34375 
Q 14.40625 41.296875 14.09375 35.59375 
L 5.59375 35.59375 
Q 5.796875 40.40625 7.59375 43.703125 
Q 9.40625 47 12.40625 49.046875 
Q 15.40625 51.09375 19.25 52 
Q 23.09375 52.90625 27.5 52.90625 
Q 31 52.90625 34.453125 52.40625 
Q 37.90625 51.90625 40.703125 50.34375 
Q 43.5 48.796875 45.203125 46 
Q 46.90625 43.203125 46.90625 38.703125 
L 46.90625 12.09375 
Q 46.90625 9.09375 47.25 7.6875 
Q 47.59375 6.296875 49.59375 6.296875 
Q 50.703125 6.296875 52.203125 6.796875 
z
M 38.40625 26.703125 
Q 36.796875 25.5 34.1875 24.953125 
Q 31.59375 24.40625 28.75 24.046875 
Q 25.90625 23.703125 23 23.25 
Q 20.09375 22.796875 17.796875 21.796875 
Q 15.5 20.796875 14.046875 18.9375 
Q 12.59375 17.09375 12.59375 13.90625 
Q 12.59375 11.796875 13.4375 10.34375 
Q 14.296875 8.90625 15.640625 8 
Q 17 7.09375 18.796875 6.6875 
Q 20.59375 6.296875 22.59375 6.296875 
Q 26.796875 6.296875 29.796875 7.4375 
Q 32.796875 8.59375 34.6875 10.34375 
Q 36.59375 12.09375 37.5 14.140625 
Q 38.40625 16.203125 38.40625 18 
z
" id="HelveticaNeue-97"/>
        <path d="M 6.40625 51.703125 
L 6.40625 0 
L 14.90625 0 
L 14.90625 29.203125 
Q 14.90625 32.703125 15.84375 35.640625 
Q 16.796875 38.59375 18.6875 40.796875 
Q 20.59375 43 23.4375 44.203125 
Q 26.296875 45.40625 30.203125 45.40625 
Q 35.09375 45.40625 37.890625 42.59375 
Q 40.703125 39.796875 40.703125 35 
L 40.703125 0 
L 49.203125 0 
L 49.203125 34 
Q 49.203125 38.203125 48.34375 41.640625 
Q 47.5 45.09375 45.390625 47.59375 
Q 43.296875 50.09375 39.890625 51.5 
Q 36.5 52.90625 31.40625 52.90625 
Q 19.90625 52.90625 14.59375 43.5 
L 14.40625 43.5 
L 14.40625 51.703125 
z
" id="HelveticaNeue-110"/>
       </defs>
       <use xlink:href="#HelveticaNeue-74"/>
       <use x="51.899994" xlink:href="#HelveticaNeue-97"/>
       <use x="105.599991" xlink:href="#HelveticaNeue-110"/>
      </g>
      <!-- 2021 -->
      <g style="fill:#555555;" transform="translate(285.702831 287.179688)scale(0.1 -0.1)">
       <defs>
        <path d="M 4.40625 45.796875 
L 12.90625 45.796875 
Q 12.796875 49 13.546875 52.140625 
Q 14.296875 55.296875 16 57.796875 
Q 17.703125 60.296875 20.34375 61.84375 
Q 23 63.40625 26.703125 63.40625 
Q 29.5 63.40625 32 62.5 
Q 34.5 61.59375 36.34375 59.890625 
Q 38.203125 58.203125 39.296875 55.84375 
Q 40.40625 53.5 40.40625 50.59375 
Q 40.40625 46.90625 39.25 44.09375 
Q 38.09375 41.296875 35.84375 38.890625 
Q 33.59375 36.5 30.1875 34.140625 
Q 26.796875 31.796875 22.296875 29 
Q 18.59375 26.796875 15.1875 24.296875 
Q 11.796875 21.796875 9.09375 18.5 
Q 6.40625 15.203125 4.65625 10.75 
Q 2.90625 6.296875 2.40625 0 
L 48.703125 0 
L 48.703125 7.5 
L 12.296875 7.5 
Q 12.90625 10.796875 14.84375 13.34375 
Q 16.796875 15.90625 19.546875 18.09375 
Q 22.296875 20.296875 25.59375 22.25 
Q 28.90625 24.203125 32.203125 26.203125 
Q 35.5 28.296875 38.59375 30.59375 
Q 41.703125 32.90625 44.09375 35.75 
Q 46.5 38.59375 47.953125 42.1875 
Q 49.40625 45.796875 49.40625 50.5 
Q 49.40625 55.5 47.65625 59.296875 
Q 45.90625 63.09375 42.90625 65.640625 
Q 39.90625 68.203125 35.84375 69.546875 
Q 31.796875 70.90625 27.203125 70.90625 
Q 21.59375 70.90625 17.1875 69 
Q 12.796875 67.09375 9.84375 63.75 
Q 6.90625 60.40625 5.5 55.796875 
Q 4.09375 51.203125 4.40625 45.796875 
z
" id="HelveticaNeue-50"/>
        <path d="M 13.203125 34.90625 
Q 13.203125 37.5 13.25 40.640625 
Q 13.296875 43.796875 13.75 46.9375 
Q 14.203125 50.09375 15.046875 53.09375 
Q 15.90625 56.09375 17.546875 58.34375 
Q 19.203125 60.59375 21.703125 62 
Q 24.203125 63.40625 27.796875 63.40625 
Q 31.40625 63.40625 33.90625 62 
Q 36.40625 60.59375 38.046875 58.34375 
Q 39.703125 56.09375 40.546875 53.09375 
Q 41.40625 50.09375 41.84375 46.9375 
Q 42.296875 43.796875 42.34375 40.640625 
Q 42.40625 37.5 42.40625 34.90625 
Q 42.40625 30.90625 42.15625 25.953125 
Q 41.90625 21 40.546875 16.640625 
Q 39.203125 12.296875 36.203125 9.296875 
Q 33.203125 6.296875 27.796875 6.296875 
Q 22.40625 6.296875 19.40625 9.296875 
Q 16.40625 12.296875 15.046875 16.640625 
Q 13.703125 21 13.453125 25.953125 
Q 13.203125 30.90625 13.203125 34.90625 
z
M 4.203125 34.796875 
Q 4.203125 30.90625 4.390625 26.703125 
Q 4.59375 22.5 5.390625 18.5 
Q 6.203125 14.5 7.703125 10.953125 
Q 9.203125 7.40625 11.796875 4.703125 
Q 14.40625 2 18.34375 0.453125 
Q 22.296875 -1.09375 27.796875 -1.09375 
Q 33.40625 -1.09375 37.296875 0.453125 
Q 41.203125 2 43.796875 4.703125 
Q 46.40625 7.40625 47.90625 10.953125 
Q 49.40625 14.5 50.203125 18.5 
Q 51 22.5 51.203125 26.703125 
Q 51.40625 30.90625 51.40625 34.796875 
Q 51.40625 38.703125 51.203125 42.890625 
Q 51 47.09375 50.203125 51.09375 
Q 49.40625 55.09375 47.90625 58.6875 
Q 46.40625 62.296875 43.796875 65 
Q 41.203125 67.703125 37.25 69.296875 
Q 33.296875 70.90625 27.796875 70.90625 
Q 22.296875 70.90625 18.34375 69.296875 
Q 14.40625 67.703125 11.796875 65 
Q 9.203125 62.296875 7.703125 58.6875 
Q 6.203125 55.09375 5.390625 51.09375 
Q 4.59375 47.09375 4.390625 42.890625 
Q 4.203125 38.703125 4.203125 34.796875 
z
" id="HelveticaNeue-48"/>
        <path d="M 35.59375 0 
L 35.59375 70.90625 
L 29.09375 70.90625 
Q 28.40625 66.90625 26.5 64.296875 
Q 24.59375 61.703125 21.84375 60.203125 
Q 19.09375 58.703125 15.6875 58.140625 
Q 12.296875 57.59375 8.703125 57.59375 
L 8.703125 50.796875 
L 27.09375 50.796875 
L 27.09375 0 
z
" id="HelveticaNeue-49"/>
       </defs>
       <use xlink:href="#HelveticaNeue-50"/>
       <use x="55.599991" xlink:href="#HelveticaNeue-48"/>
       <use x="111.199982" xlink:href="#HelveticaNeue-50"/>
       <use x="166.799973" xlink:href="#HelveticaNeue-49"/>
      </g>
     </g>
    </g>
    <g id="xtick_6">
     <g id="line2d_6">
      <g>
       <use style="fill:#555555;stroke:#555555;stroke-width:0.8;" x="371.340812" xlink:href="#mf2d1fcd720" y="262.5"/>
      </g>
     </g>
     <g id="text_5">
      <!-- Apr -->
      <g style="fill:#555555;" transform="translate(363.471281 276.640625)scale(0.1 -0.1)">
       <use xlink:href="#HelveticaNeue-65"/>
       <use x="64.799988" xlink:href="#HelveticaNeue-112"/>
       <use x="124.099976" xlink:href="#HelveticaNeue-114"/>
      </g>
     </g>
    </g>
    <g id="xtick_7">
     <g id="line2d_7">
      <g>
       <use style="fill:#555555;stroke:#555555;stroke-width:0.8;" x="446.688034" xlink:href="#mf2d1fcd720" y="262.5"/>
      </g>
     </g>
     <g id="text_6">
      <!-- Jul -->
      <g style="fill:#555555;" transform="translate(440.202878 276.640625)scale(0.1 -0.1)">
       <use xlink:href="#HelveticaNeue-74"/>
       <use x="51.899994" xlink:href="#HelveticaNeue-117"/>
       <use x="107.499985" xlink:href="#HelveticaNeue-108"/>
      </g>
     </g>
    </g>
    <g id="xtick_8">
     <g id="line2d_8">
      <g>
       <use style="fill:#555555;stroke:#555555;stroke-width:0.8;" x="450" xlink:href="#mf2d1fcd720" y="262.5"/>
      </g>
     </g>
    </g>
    <g id="xtick_9">
     <g id="line2d_9">
      <defs>
       <path d="M 0 0 
L 0 2 
" id="mc7bd114eca" style="stroke:#555555;stroke-width:0.6;"/>
      </defs>
      <g>
       <use style="fill:#555555;stroke:#555555;stroke-width:0.6;" x="93.963675" xlink:href="#mc7bd114eca" y="262.5"/>
      </g>
     </g>
    </g>
    <g id="xtick_10">
     <g id="line2d_10">
      <g>
       <use style="fill:#555555;stroke:#555555;stroke-width:0.6;" x="119.63141" xlink:href="#mc7bd114eca" y="262.5"/>
      </g>
     </g>
    </g>
    <g id="xtick_11">
     <g id="line2d_11">
      <g>
       <use style="fill:#555555;stroke:#555555;stroke-width:0.6;" x="170.138889" xlink:href="#mc7bd114eca" y="262.5"/>
      </g>
     </g>
    </g>
    <g id="xtick_12">
     <g id="line2d_12">
      <g>
       <use style="fill:#555555;stroke:#555555;stroke-width:0.6;" x="195.806624" xlink:href="#mc7bd114eca" y="262.5"/>
      </g>
     </g>
    </g>
    <g id="xtick_13">
     <g id="line2d_13">
      <g>
       <use style="fill:#555555;stroke:#555555;stroke-width:0.6;" x="246.314103" xlink:href="#mc7bd114eca" y="262.5"/>
      </g>
     </g>
    </g>
    <g id="xtick_14">
     <g id="line2d_14">
      <g>
       <use style="fill:#555555;stroke:#555555;stroke-width:0.6;" x="271.153846" xlink:href="#mc7bd114eca" y="262.5"/>
      </g>
     </g>
    </g>
    <g id="xtick_15">
     <g id="line2d_15">
      <g>
       <use style="fill:#555555;stroke:#555555;stroke-width:0.6;" x="322.489316" xlink:href="#mc7bd114eca" y="262.5"/>
      </g>
     </g>
    </g>
    <g id="xtick_16">
     <g id="line2d_16">
      <g>
       <use style="fill:#555555;stroke:#555555;stroke-width:0.6;" x="345.673077" xlink:href="#mc7bd114eca" y="262.5"/>
      </g>
     </g>
    </g>
    <g id="xtick_17">
     <g id="line2d_17">
      <g>
       <use style="fill:#555555;stroke:#555555;stroke-width:0.6;" x="396.180556" xlink:href="#mc7bd114eca" y="262.5"/>
      </g>
     </g>
    </g>
    <g id="xtick_18">
     <g id="line2d_18">
      <g>
       <use style="fill:#555555;stroke:#555555;stroke-width:0.6;" x="421.848291" xlink:href="#mc7bd114eca" y="262.5"/>
      </g>
     </g>
    </g>
    <g id="text_7">
     <!-- fecha -->
     <g style="fill:#555555;" transform="translate(243.935156 300.290625)scale(0.1 -0.1)">
      <defs>
       <path d="M 9.90625 44.203125 
L 9.90625 0 
L 18.40625 0 
L 18.40625 44.203125 
L 28.40625 44.203125 
L 28.40625 51.703125 
L 18.40625 51.703125 
L 18.40625 58.90625 
Q 18.40625 62.296875 20.09375 63.5 
Q 21.796875 64.703125 24.90625 64.703125 
Q 26 64.703125 27.296875 64.546875 
Q 28.59375 64.40625 29.703125 64 
L 29.703125 71.40625 
Q 28.5 71.796875 26.953125 72 
Q 25.40625 72.203125 24.203125 72.203125 
Q 17.203125 72.203125 13.546875 68.953125 
Q 9.90625 65.703125 9.90625 59.40625 
L 9.90625 51.703125 
L 1.203125 51.703125 
L 1.203125 44.203125 
z
" id="HelveticaNeue-102"/>
       <path d="M 42.296875 30.796875 
L 12.59375 30.796875 
Q 12.796875 33.796875 13.890625 36.4375 
Q 15 39.09375 16.890625 41.09375 
Q 18.796875 43.09375 21.4375 44.25 
Q 24.09375 45.40625 27.40625 45.40625 
Q 30.59375 45.40625 33.25 44.25 
Q 35.90625 43.09375 37.84375 41.140625 
Q 39.796875 39.203125 40.9375 36.5 
Q 42.09375 33.796875 42.296875 30.796875 
z
M 50.5 16.40625 
L 42.09375 16.40625 
Q 41 11.296875 37.546875 8.796875 
Q 34.09375 6.296875 28.703125 6.296875 
Q 24.5 6.296875 21.390625 7.6875 
Q 18.296875 9.09375 16.296875 11.4375 
Q 14.296875 13.796875 13.390625 16.84375 
Q 12.5 19.90625 12.59375 23.296875 
L 51.296875 23.296875 
Q 51.5 28 50.453125 33.203125 
Q 49.40625 38.40625 46.65625 42.796875 
Q 43.90625 47.203125 39.34375 50.046875 
Q 34.796875 52.90625 27.90625 52.90625 
Q 22.59375 52.90625 18.140625 50.90625 
Q 13.703125 48.90625 10.453125 45.296875 
Q 7.203125 41.703125 5.390625 36.796875 
Q 3.59375 31.90625 3.59375 26 
Q 3.796875 20.09375 5.34375 15.09375 
Q 6.90625 10.09375 10 6.5 
Q 13.09375 2.90625 17.640625 0.90625 
Q 22.203125 -1.09375 28.40625 -1.09375 
Q 37.203125 -1.09375 43 3.296875 
Q 48.796875 7.703125 50.5 16.40625 
z
" id="HelveticaNeue-101"/>
       <path d="M 6.40625 71.40625 
L 6.40625 0 
L 14.90625 0 
L 14.90625 29.203125 
Q 14.90625 32.703125 15.84375 35.640625 
Q 16.796875 38.59375 18.6875 40.796875 
Q 20.59375 43 23.4375 44.203125 
Q 26.296875 45.40625 30.203125 45.40625 
Q 35.09375 45.40625 37.890625 42.59375 
Q 40.703125 39.796875 40.703125 35 
L 40.703125 0 
L 49.203125 0 
L 49.203125 34 
Q 49.203125 38.203125 48.34375 41.640625 
Q 47.5 45.09375 45.390625 47.59375 
Q 43.296875 50.09375 39.890625 51.5 
Q 36.5 52.90625 31.40625 52.90625 
Q 29.09375 52.90625 26.640625 52.40625 
Q 24.203125 51.90625 21.953125 50.84375 
Q 19.703125 49.796875 17.890625 48.140625 
Q 16.09375 46.5 15.09375 44.09375 
L 14.90625 44.09375 
L 14.90625 71.40625 
z
" id="HelveticaNeue-104"/>
      </defs>
      <use xlink:href="#HelveticaNeue-102"/>
      <use x="29.599991" xlink:href="#HelveticaNeue-101"/>
      <use x="83.299988" xlink:href="#HelveticaNeue-99"/>
      <use x="136.999985" xlink:href="#HelveticaNeue-104"/>
      <use x="192.599976" xlink:href="#HelveticaNeue-97"/>
     </g>
    </g>
   </g>
   <g id="matplotlib.axis_2">
    <g id="ytick_1">
     <g id="line2d_19">
      <defs>
       <path d="M 0 0 
L -3.5 0 
" id="mbdecb80f44" style="stroke:#555555;stroke-width:0.8;"/>
      </defs>
      <g>
       <use style="fill:#555555;stroke:#555555;stroke-width:0.8;" x="62.5" xlink:href="#mbdecb80f44" y="251.795455"/>
      </g>
     </g>
     <g id="text_8">
      <!-- 0 -->
      <g style="fill:#555555;" transform="translate(49.940625 255.365767)scale(0.1 -0.1)">
       <use xlink:href="#HelveticaNeue-48"/>
      </g>
     </g>
    </g>
    <g id="ytick_2">
     <g id="line2d_20">
      <g>
       <use style="fill:#555555;stroke:#555555;stroke-width:0.8;" x="62.5" xlink:href="#mbdecb80f44" y="218.238886"/>
      </g>
     </g>
     <g id="text_9">
      <!-- 50 -->
      <g style="fill:#555555;" transform="translate(44.38125 221.809198)scale(0.1 -0.1)">
       <defs>
        <path d="M 47 62.203125 
L 47 69.703125 
L 12 69.703125 
L 5.40625 32.90625 
L 12.703125 32.5 
Q 15.203125 35.5 18.453125 37.34375 
Q 21.703125 39.203125 25.90625 39.203125 
Q 29.5 39.203125 32.453125 38 
Q 35.40625 36.796875 37.5 34.640625 
Q 39.59375 32.5 40.75 29.546875 
Q 41.90625 26.59375 41.90625 23.09375 
Q 41.90625 18.90625 40.703125 15.75 
Q 39.5 12.59375 37.453125 10.5 
Q 35.40625 8.40625 32.65625 7.34375 
Q 29.90625 6.296875 26.90625 6.296875 
Q 23.703125 6.296875 21.046875 7.25 
Q 18.40625 8.203125 16.453125 9.953125 
Q 14.5 11.703125 13.34375 14.046875 
Q 12.203125 16.40625 12 19.09375 
L 3.5 19.09375 
Q 3.59375 14.296875 5.390625 10.5 
Q 7.203125 6.703125 10.296875 4.140625 
Q 13.40625 1.59375 17.453125 0.25 
Q 21.5 -1.09375 26.09375 -1.09375 
Q 32.296875 -1.09375 36.9375 0.84375 
Q 41.59375 2.796875 44.6875 6.09375 
Q 47.796875 9.40625 49.34375 13.65625 
Q 50.90625 17.90625 50.90625 22.40625 
Q 50.90625 28.5 49.09375 33.046875 
Q 47.296875 37.59375 44.1875 40.640625 
Q 41.09375 43.703125 36.890625 45.203125 
Q 32.703125 46.703125 28 46.703125 
Q 24.40625 46.703125 20.75 45.453125 
Q 17.09375 44.203125 14.796875 41.59375 
L 14.59375 41.796875 
L 18.40625 62.203125 
z
" id="HelveticaNeue-53"/>
       </defs>
       <use xlink:href="#HelveticaNeue-53"/>
       <use x="55.599991" xlink:href="#HelveticaNeue-48"/>
      </g>
     </g>
    </g>
    <g id="ytick_3">
     <g id="line2d_21">
      <g>
       <use style="fill:#555555;stroke:#555555;stroke-width:0.8;" x="62.5" xlink:href="#mbdecb80f44" y="184.682317"/>
      </g>
     </g>
     <g id="text_10">
      <!-- 100 -->
      <g style="fill:#555555;" transform="translate(38.821875 188.252629)scale(0.1 -0.1)">
       <use xlink:href="#HelveticaNeue-49"/>
       <use x="55.599991" xlink:href="#HelveticaNeue-48"/>
       <use x="111.199982" xlink:href="#HelveticaNeue-48"/>
      </g>
     </g>
    </g>
    <g id="ytick_4">
     <g id="line2d_22">
      <g>
       <use style="fill:#555555;stroke:#555555;stroke-width:0.8;" x="62.5" xlink:href="#mbdecb80f44" y="151.125748"/>
      </g>
     </g>
     <g id="text_11">
      <!-- 150 -->
      <g style="fill:#555555;" transform="translate(38.821875 154.696061)scale(0.1 -0.1)">
       <use xlink:href="#HelveticaNeue-49"/>
       <use x="55.599991" xlink:href="#HelveticaNeue-53"/>
       <use x="111.199982" xlink:href="#HelveticaNeue-48"/>
      </g>
     </g>
    </g>
    <g id="ytick_5">
     <g id="line2d_23">
      <g>
       <use style="fill:#555555;stroke:#555555;stroke-width:0.8;" x="62.5" xlink:href="#mbdecb80f44" y="117.569179"/>
      </g>
     </g>
     <g id="text_12">
      <!-- 200 -->
      <g style="fill:#555555;" transform="translate(38.821875 121.139492)scale(0.1 -0.1)">
       <use xlink:href="#HelveticaNeue-50"/>
       <use x="55.599991" xlink:href="#HelveticaNeue-48"/>
       <use x="111.199982" xlink:href="#HelveticaNeue-48"/>
      </g>
     </g>
    </g>
    <g id="ytick_6">
     <g id="line2d_24">
      <g>
       <use style="fill:#555555;stroke:#555555;stroke-width:0.8;" x="62.5" xlink:href="#mbdecb80f44" y="84.01261"/>
      </g>
     </g>
     <g id="text_13">
      <!-- 250 -->
      <g style="fill:#555555;" transform="translate(38.821875 87.582923)scale(0.1 -0.1)">
       <use xlink:href="#HelveticaNeue-50"/>
       <use x="55.599991" xlink:href="#HelveticaNeue-53"/>
       <use x="111.199982" xlink:href="#HelveticaNeue-48"/>
      </g>
     </g>
    </g>
    <g id="ytick_7">
     <g id="line2d_25">
      <g>
       <use style="fill:#555555;stroke:#555555;stroke-width:0.8;" x="62.5" xlink:href="#mbdecb80f44" y="50.456042"/>
      </g>
     </g>
     <g id="text_14">
      <!-- 300 -->
      <g style="fill:#555555;" transform="translate(38.821875 54.026354)scale(0.1 -0.1)">
       <defs>
        <path d="M 21.796875 40.5 
L 21.796875 33.296875 
Q 24.203125 33.59375 26.90625 33.59375 
Q 30.09375 33.59375 32.84375 32.75 
Q 35.59375 31.90625 37.59375 30.15625 
Q 39.59375 28.40625 40.796875 25.84375 
Q 42 23.296875 42 20 
Q 42 16.796875 40.75 14.25 
Q 39.5 11.703125 37.390625 9.953125 
Q 35.296875 8.203125 32.5 7.25 
Q 29.703125 6.296875 26.59375 6.296875 
Q 19.296875 6.296875 15.5 10.640625 
Q 11.703125 15 11.5 21.90625 
L 3 21.90625 
Q 2.90625 16.40625 4.546875 12.09375 
Q 6.203125 7.796875 9.296875 4.84375 
Q 12.40625 1.90625 16.796875 0.40625 
Q 21.203125 -1.09375 26.59375 -1.09375 
Q 31.59375 -1.09375 36.046875 0.25 
Q 40.5 1.59375 43.796875 4.296875 
Q 47.09375 7 49.046875 11.046875 
Q 51 15.09375 51 20.40625 
Q 51 26.796875 47.84375 31.5 
Q 44.703125 36.203125 38.203125 37.59375 
L 38.203125 37.796875 
Q 42.40625 39.703125 45.203125 43.390625 
Q 48 47.09375 48 51.90625 
Q 48 56.796875 46.34375 60.390625 
Q 44.703125 64 41.796875 66.296875 
Q 38.90625 68.59375 34.953125 69.75 
Q 31 70.90625 26.40625 70.90625 
Q 21.09375 70.90625 17.046875 69.203125 
Q 13 67.5 10.296875 64.5 
Q 7.59375 61.5 6.140625 57.296875 
Q 4.703125 53.09375 4.5 48 
L 13 48 
Q 13 51.09375 13.796875 53.890625 
Q 14.59375 56.703125 16.25 58.796875 
Q 17.90625 60.90625 20.453125 62.15625 
Q 23 63.40625 26.40625 63.40625 
Q 31.796875 63.40625 35.390625 60.546875 
Q 39 57.703125 39 52 
Q 39 49.203125 37.890625 47 
Q 36.796875 44.796875 34.9375 43.34375 
Q 33.09375 41.90625 30.640625 41.15625 
Q 28.203125 40.40625 25.5 40.40625 
L 23.703125 40.40625 
Q 23.203125 40.40625 22.703125 40.40625 
Q 22.296875 40.40625 21.796875 40.5 
z
" id="HelveticaNeue-51"/>
       </defs>
       <use xlink:href="#HelveticaNeue-51"/>
       <use x="55.599991" xlink:href="#HelveticaNeue-48"/>
       <use x="111.199982" xlink:href="#HelveticaNeue-48"/>
      </g>
     </g>
    </g>
   </g>
   <g id="line2d_26">
    <path clip-path="url(#p8a597ab307)" d="M 63.327991 251.795455 
L 64.155983 249.78206 
L 64.983974 251.795455 
L 65.811966 248.439798 
L 66.639957 251.124323 
L 67.467949 249.78206 
L 69.123932 251.124323 
L 69.951923 247.768666 
L 70.779915 246.426404 
L 71.607906 250.453192 
L 72.435897 251.124323 
L 73.263889 247.097535 
L 74.09188 251.795455 
L 74.919872 249.110929 
L 75.747863 249.110929 
L 76.575855 251.124323 
L 77.403846 251.795455 
L 78.231838 250.453192 
L 79.059829 247.097535 
L 79.887821 250.453192 
L 80.715812 251.124323 
L 81.543803 249.78206 
L 82.371795 250.453192 
L 83.199786 250.453192 
L 84.027778 247.768666 
L 84.855769 251.124323 
L 85.683761 248.439798 
L 86.511752 249.78206 
L 87.339744 250.453192 
L 88.167735 250.453192 
L 88.995726 249.78206 
L 89.823718 249.78206 
L 90.651709 250.453192 
L 91.479701 249.78206 
L 92.307692 251.124323 
L 93.135684 250.453192 
L 93.963675 250.453192 
L 95.619658 251.795455 
L 96.44765 251.795455 
L 97.275641 251.124323 
L 98.103632 251.795455 
L 98.931624 248.439798 
L 99.759615 251.795455 
L 101.415598 246.426404 
L 102.24359 249.78206 
L 103.071581 250.453192 
L 103.899573 251.795455 
L 104.727564 250.453192 
L 105.555556 251.124323 
L 106.383547 251.124323 
L 108.03953 249.78206 
L 108.867521 248.439798 
L 109.695513 248.439798 
L 110.523504 247.768666 
L 111.351496 246.426404 
L 112.179487 249.110929 
L 113.007479 250.453192 
L 113.83547 247.768666 
L 114.663462 247.097535 
L 115.491453 247.097535 
L 116.319444 249.78206 
L 117.147436 248.439798 
L 117.975427 246.426404 
L 118.803419 246.426404 
L 119.63141 248.439798 
L 120.459402 247.768666 
L 121.287393 249.78206 
L 122.115385 245.084141 
L 122.943376 250.453192 
L 123.771368 249.110929 
L 124.599359 246.426404 
L 125.42735 247.097535 
L 126.255342 248.439798 
L 127.911325 249.78206 
L 128.739316 245.084141 
L 129.567308 248.439798 
L 130.395299 248.439798 
L 131.223291 244.413009 
L 132.051282 245.084141 
L 132.879274 243.070747 
L 133.707265 242.399615 
L 134.535256 239.71509 
L 135.363248 240.386221 
L 136.191239 243.070747 
L 137.847222 243.070747 
L 138.675214 231.661513 
L 139.503205 242.399615 
L 140.331197 242.399615 
L 141.987179 227.634725 
L 142.815171 245.084141 
L 143.643162 233.674907 
L 144.471154 235.01717 
L 145.299145 228.976988 
L 146.127137 235.688302 
L 146.955128 233.674907 
L 147.78312 237.030564 
L 148.611111 221.594543 
L 149.439103 230.990382 
L 150.267094 232.332645 
L 151.095085 232.332645 
L 151.923077 225.621331 
L 152.751068 222.936805 
L 153.57906 239.043958 
L 154.407051 212.869835 
L 155.235043 235.688302 
L 156.063034 230.990382 
L 156.891026 219.581148 
L 157.719017 222.265674 
L 158.547009 208.171915 
L 159.375 210.856441 
L 160.202991 226.963594 
L 161.030983 215.55436 
L 161.858974 198.104944 
L 162.686966 216.896623 
L 163.514957 190.722499 
L 164.342949 202.131733 
L 165.17094 235.01717 
L 165.998932 190.722499 
L 166.826923 176.62874 
L 167.654915 205.48739 
L 168.482906 202.131733 
L 169.310897 196.762682 
L 170.138889 211.527572 
L 170.96688 229.648119 
L 171.794872 210.185309 
L 172.622863 169.917427 
L 173.450855 190.051368 
L 174.278846 221.594543 
L 175.106838 207.500784 
L 175.934829 200.118339 
L 176.762821 204.145127 
L 177.590812 173.273083 
L 178.418803 188.037974 
L 179.246795 192.064762 
L 180.074786 214.212097 
L 180.902778 213.540966 
L 181.730769 192.064762 
L 182.558761 222.936805 
L 183.386752 198.104944 
L 184.214744 198.104944 
L 185.042735 218.238886 
L 185.870726 212.198703 
L 186.698718 201.460601 
L 187.526709 225.621331 
L 188.354701 204.145127 
L 189.182692 216.225492 
L 190.010684 216.225492 
L 190.838675 228.976988 
L 191.666667 226.292462 
L 192.494658 220.923411 
L 193.32265 236.359433 
L 194.150641 221.594543 
L 195.806624 217.567754 
L 196.634615 233.003776 
L 197.462607 218.910017 
L 198.290598 231.661513 
L 199.11859 219.581148 
L 199.946581 241.728484 
L 200.774573 221.594543 
L 201.602564 233.674907 
L 202.430556 238.372827 
L 203.258547 221.594543 
L 204.086538 226.292462 
L 205.742521 243.070747 
L 206.570513 234.346039 
L 207.398504 230.990382 
L 208.226496 228.305856 
L 209.054487 228.976988 
L 209.882479 219.581148 
L 211.538462 233.003776 
L 212.366453 228.305856 
L 213.194444 232.332645 
L 214.022436 234.346039 
L 214.850427 225.621331 
L 215.678419 229.648119 
L 216.50641 227.634725 
L 217.334402 239.043958 
L 218.162393 226.292462 
L 218.990385 230.31925 
L 219.818376 224.950199 
L 220.646368 226.963594 
L 221.474359 230.31925 
L 222.30235 191.393631 
L 223.130342 226.292462 
L 223.958333 215.55436 
L 224.786325 224.279068 
L 225.614316 224.279068 
L 226.442308 212.869835 
L 227.270299 230.31925 
L 228.098291 224.279068 
L 228.926282 229.648119 
L 229.754274 241.057353 
L 230.582265 239.71509 
L 231.410256 233.003776 
L 232.238248 218.910017 
L 233.066239 226.292462 
L 233.894231 222.936805 
L 234.722222 231.661513 
L 235.550214 224.279068 
L 236.378205 199.447207 
L 237.206197 222.265674 
L 238.034188 222.265674 
L 238.862179 216.225492 
L 239.690171 227.634725 
L 240.518162 223.607937 
L 241.346154 221.594543 
L 242.174145 206.829652 
L 243.002137 217.567754 
L 243.830128 198.104944 
L 244.65812 198.776076 
L 246.314103 208.171915 
L 247.970085 213.540966 
L 248.798077 221.594543 
L 249.626068 217.567754 
L 250.45406 220.923411 
L 251.282051 212.869835 
L 252.110043 208.843046 
L 252.938034 212.869835 
L 253.766026 210.856441 
L 254.594017 209.514178 
L 255.422009 212.869835 
L 256.25 228.976988 
L 257.077991 225.621331 
L 257.905983 237.030564 
L 258.733974 222.265674 
L 259.561966 214.212097 
L 260.389957 228.305856 
L 261.217949 208.843046 
L 262.04594 212.198703 
L 262.873932 175.286478 
L 263.701923 220.25228 
L 264.529915 219.581148 
L 265.357906 212.198703 
L 266.185897 192.064762 
L 267.013889 196.09155 
L 267.84188 201.460601 
L 268.669872 214.212097 
L 269.497863 194.078156 
L 270.325855 208.171915 
L 271.153846 210.856441 
L 271.981838 211.527572 
L 272.809829 207.500784 
L 273.637821 190.722499 
L 274.465812 196.09155 
L 275.293803 224.950199 
L 276.121795 205.48739 
L 276.949786 204.816258 
L 277.777778 196.762682 
L 279.433761 178.642135 
L 280.261752 194.749288 
L 281.089744 205.48739 
L 281.917735 198.776076 
L 282.745726 190.051368 
L 283.573718 153.810274 
L 284.401709 194.078156 
L 285.229701 172.601952 
L 286.057692 198.776076 
L 286.885684 192.064762 
L 287.713675 169.246295 
L 288.541667 171.930821 
L 289.369658 172.601952 
L 290.19765 160.521587 
L 291.025641 220.25228 
L 291.853632 157.837062 
L 292.681624 175.286478 
L 294.337607 130.991807 
L 295.165598 109.515603 
L 295.99359 206.158521 
L 296.821581 217.567754 
L 297.649573 197.433813 
L 298.477564 140.387646 
L 299.305556 182.668923 
L 300.133547 84.01261 
L 300.961538 146.427828 
L 301.78953 122.93823 
L 302.617521 159.179325 
L 303.445513 171.930821 
L 304.273504 192.735893 
L 305.101496 198.104944 
L 305.929487 135.689726 
L 306.757479 159.179325 
L 307.58547 172.601952 
L 308.413462 162.534981 
L 309.241453 176.62874 
L 310.069444 165.219507 
L 310.897436 161.192719 
L 311.725427 151.796879 
L 312.553419 178.642135 
L 313.38141 173.944215 
L 314.209402 173.944215 
L 315.037393 181.997791 
L 315.865385 203.473995 
L 316.693376 188.709105 
L 317.521368 200.78947 
L 318.349359 186.695711 
L 320.005342 220.25228 
L 320.833333 210.185309 
L 321.661325 210.185309 
L 322.489316 190.722499 
L 323.317308 202.802864 
L 324.145299 226.963594 
L 324.973291 216.225492 
L 325.801282 222.265674 
L 326.629274 231.661513 
L 327.457265 236.359433 
L 329.113248 220.923411 
L 329.941239 229.648119 
L 330.769231 234.346039 
L 331.597222 233.674907 
L 332.425214 230.990382 
L 333.253205 236.359433 
L 334.081197 233.674907 
L 334.909188 234.346039 
L 335.737179 233.674907 
L 336.565171 237.030564 
L 337.393162 239.71509 
L 338.221154 232.332645 
L 339.049145 242.399615 
L 339.877137 236.359433 
L 340.705128 235.01717 
L 341.53312 233.003776 
L 342.361111 239.71509 
L 343.189103 243.741878 
L 344.017094 240.386221 
L 344.845085 233.003776 
L 345.673077 236.359433 
L 346.501068 240.386221 
L 347.32906 230.990382 
L 348.157051 235.01717 
L 348.985043 232.332645 
L 349.813034 235.688302 
L 350.641026 241.057353 
L 351.469017 243.741878 
L 352.297009 241.728484 
L 353.125 235.01717 
L 353.952991 236.359433 
L 354.780983 241.057353 
L 355.608974 243.070747 
L 356.436966 241.057353 
L 357.264957 236.359433 
L 358.092949 229.648119 
L 358.92094 228.976988 
L 359.748932 239.71509 
L 360.576923 227.634725 
L 361.404915 236.359433 
L 362.232906 225.621331 
L 363.060897 242.399615 
L 363.888889 229.648119 
L 364.71688 226.963594 
L 365.544872 222.265674 
L 366.372863 220.25228 
L 367.200855 202.802864 
L 368.028846 233.003776 
L 368.856838 230.990382 
L 369.684829 217.567754 
L 370.512821 206.158521 
L 371.340812 221.594543 
L 372.168803 212.869835 
L 372.996795 222.936805 
L 373.824786 228.976988 
L 374.652778 215.55436 
L 375.480769 190.051368 
L 376.308761 192.064762 
L 377.136752 176.62874 
L 377.964744 187.366842 
L 378.792735 189.380237 
L 379.620726 204.816258 
L 380.448718 156.494799 
L 381.276709 174.615346 
L 382.104701 165.890638 
L 382.932692 147.09896 
L 383.760684 163.877244 
L 384.588675 197.433813 
L 385.416667 199.447207 
L 386.244658 169.246295 
L 387.07265 149.783485 
L 387.900641 181.997791 
L 388.728632 167.232901 
L 389.556624 165.219507 
L 390.384615 197.433813 
L 391.212607 187.366842 
L 392.040598 168.575164 
L 392.86859 157.16593 
L 393.696581 190.051368 
L 394.524573 180.655529 
L 395.352564 179.313266 
L 397.008547 193.407025 
L 397.836538 165.890638 
L 398.66453 154.481405 
L 399.492521 187.366842 
L 400.320513 165.219507 
L 401.148504 178.642135 
L 401.976496 181.32666 
L 402.804487 178.642135 
L 403.632479 174.615346 
L 404.46047 171.930821 
L 405.288462 184.682317 
L 406.116453 203.473995 
L 406.944444 194.078156 
L 407.772436 186.02458 
L 408.600427 204.816258 
L 409.428419 177.299872 
L 410.25641 145.756697 
L 411.084402 169.246295 
L 411.912393 165.890638 
L 412.740385 137.031989 
L 413.568376 161.192719 
L 414.396368 153.139142 
L 415.224359 126.965019 
L 416.05235 111.528997 
L 416.880342 158.508193 
L 417.708333 148.441223 
L 418.536325 126.293887 
L 419.364316 127.63615 
L 420.192308 133.005201 
L 421.020299 132.33407 
L 421.848291 106.831077 
L 422.676282 94.079581 
L 423.504274 37.704545 
L 424.332265 93.40845 
L 425.160256 108.844471 
L 425.988248 65.892063 
L 426.816239 124.951624 
L 427.644231 121.595968 
L 428.472222 122.267099 
L 429.300214 138.374252 
L 430.128205 151.796879 
L 430.956197 142.40104 
L 431.784188 155.152536 
L 432.612179 139.716515 
L 433.440171 142.40104 
L 434.268162 100.790895 
L 435.096154 100.790895 
L 435.924145 136.360858 
L 436.752137 118.240311 
L 437.580128 157.16593 
L 438.40812 144.414434 
L 439.236111 113.542391 
L 440.064103 63.878669 
L 440.892094 123.609362 
L 441.720085 120.924836 
L 442.548077 149.783485 
L 443.376068 169.917427 
L 444.20406 151.125748 
L 445.032051 84.683742 
L 445.860043 154.481405 
L 446.688034 146.427828 
L 447.516026 179.984397 
L 448.344017 173.944215 
L 449.172009 185.353448 
L 450 211.527572 
L 450 211.527572 
" style="fill:none;stroke:#000000;stroke-dasharray:1.5,2.475;stroke-dashoffset:0;stroke-opacity:0.5;stroke-width:1.5;"/>
   </g>
   <g id="line2d_27">
    <path clip-path="url(#p8a597ab307)" d="M 62.5 251.124323 
L 63.327991 250.453192 
L 66.639957 250.453192 
L 67.467949 249.78206 
L 69.123932 249.78206 
L 69.951923 249.110929 
L 73.263889 249.110929 
L 74.09188 249.78206 
L 74.919872 249.78206 
L 75.747863 250.453192 
L 76.575855 250.453192 
L 77.403846 249.78206 
L 78.231838 250.453192 
L 79.059829 250.453192 
L 79.887821 249.78206 
L 81.543803 249.78206 
L 82.371795 250.453192 
L 83.199786 249.78206 
L 88.995726 249.78206 
L 89.823718 250.453192 
L 93.135684 250.453192 
L 93.963675 251.124323 
L 98.103632 251.124323 
L 99.759615 249.78206 
L 103.071581 249.78206 
L 104.727564 251.124323 
L 105.555556 251.124323 
L 107.211538 249.78206 
L 108.03953 249.78206 
L 109.695513 248.439798 
L 115.491453 248.439798 
L 116.319444 247.768666 
L 120.459402 247.768666 
L 121.287393 248.439798 
L 122.115385 248.439798 
L 122.943376 247.768666 
L 124.599359 247.768666 
L 125.42735 248.439798 
L 126.255342 247.768666 
L 128.739316 247.768666 
L 131.223291 245.755272 
L 132.879274 243.070747 
L 133.707265 242.399615 
L 134.535256 242.399615 
L 137.019231 240.386221 
L 137.847222 241.057353 
L 139.503205 238.372827 
L 141.159188 237.030564 
L 141.987179 237.030564 
L 143.643162 234.346039 
L 144.471154 234.346039 
L 145.299145 235.01717 
L 146.127137 232.332645 
L 146.955128 232.332645 
L 147.78312 231.661513 
L 148.611111 231.661513 
L 150.267094 228.976988 
L 151.095085 228.976988 
L 151.923077 228.305856 
L 153.57906 228.305856 
L 154.407051 226.963594 
L 155.235043 226.292462 
L 156.063034 224.279068 
L 156.891026 220.923411 
L 157.719017 220.923411 
L 158.547009 218.238886 
L 159.375 214.883229 
L 160.202991 214.212097 
L 161.030983 210.856441 
L 161.858974 208.843046 
L 162.686966 210.185309 
L 163.514957 206.829652 
L 164.342949 202.802864 
L 165.17094 202.802864 
L 165.998932 200.78947 
L 166.826923 200.118339 
L 168.482906 201.460601 
L 169.310897 205.48739 
L 170.138889 205.48739 
L 170.96688 203.473995 
L 171.794872 204.145127 
L 172.622863 204.145127 
L 173.450855 202.802864 
L 174.278846 200.78947 
L 175.106838 198.104944 
L 175.934829 198.776076 
L 176.762821 197.433813 
L 177.590812 195.420419 
L 179.246795 196.762682 
L 180.074786 200.118339 
L 180.902778 204.145127 
L 181.730769 205.48739 
L 182.558761 207.500784 
L 183.386752 207.500784 
L 184.214744 206.829652 
L 185.042735 210.185309 
L 185.870726 208.843046 
L 187.526709 212.869835 
L 188.354701 214.212097 
L 190.010684 219.581148 
L 190.838675 221.594543 
L 191.666667 224.279068 
L 192.494658 224.950199 
L 194.150641 224.950199 
L 194.978632 223.607937 
L 195.806624 224.950199 
L 196.634615 223.607937 
L 197.462607 225.621331 
L 198.290598 226.292462 
L 199.11859 228.305856 
L 199.946581 229.648119 
L 200.774573 230.31925 
L 201.602564 229.648119 
L 202.430556 230.990382 
L 203.258547 230.990382 
L 204.086538 232.332645 
L 204.91453 233.003776 
L 205.742521 232.332645 
L 206.570513 233.003776 
L 207.398504 231.661513 
L 208.226496 229.648119 
L 209.054487 228.305856 
L 209.882479 227.634725 
L 210.71047 227.634725 
L 211.538462 228.976988 
L 212.366453 228.976988 
L 213.194444 230.31925 
L 214.022436 230.31925 
L 214.850427 230.990382 
L 215.678419 230.31925 
L 216.50641 230.31925 
L 217.334402 229.648119 
L 218.162393 229.648119 
L 218.990385 228.976988 
L 219.818376 224.950199 
L 220.646368 222.265674 
L 221.474359 220.25228 
L 222.30235 218.910017 
L 223.130342 218.910017 
L 223.958333 217.567754 
L 224.786325 218.910017 
L 225.614316 222.265674 
L 226.442308 222.936805 
L 227.270299 226.292462 
L 228.098291 228.305856 
L 228.926282 230.990382 
L 229.754274 231.661513 
L 230.582265 231.661513 
L 231.410256 230.31925 
L 232.238248 229.648119 
L 233.066239 227.634725 
L 233.894231 222.936805 
L 234.722222 221.594543 
L 235.550214 220.923411 
L 236.378205 219.581148 
L 237.206197 219.581148 
L 238.034188 218.910017 
L 238.862179 219.581148 
L 239.690171 220.923411 
L 240.518162 219.581148 
L 241.346154 216.896623 
L 242.174145 213.540966 
L 243.002137 209.514178 
L 243.830128 206.829652 
L 244.65812 205.48739 
L 245.486111 206.158521 
L 246.314103 207.500784 
L 247.970085 214.212097 
L 248.798077 215.55436 
L 249.626068 216.225492 
L 251.282051 214.883229 
L 252.110043 212.869835 
L 252.938034 212.198703 
L 253.766026 212.869835 
L 254.594017 214.883229 
L 255.422009 218.910017 
L 256.25 221.594543 
L 257.077991 222.936805 
L 257.905983 224.950199 
L 258.733974 224.279068 
L 259.561966 221.594543 
L 260.389957 214.883229 
L 261.217949 211.527572 
L 262.04594 210.185309 
L 262.873932 209.514178 
L 263.701923 206.158521 
L 264.529915 204.816258 
L 265.357906 204.145127 
L 266.185897 206.829652 
L 267.013889 203.473995 
L 267.84188 202.131733 
L 268.669872 202.802864 
L 269.497863 205.48739 
L 270.325855 206.829652 
L 271.153846 206.158521 
L 271.981838 204.145127 
L 272.809829 206.158521 
L 273.637821 206.158521 
L 274.465812 205.48739 
L 276.121795 202.802864 
L 276.949786 200.118339 
L 277.777778 198.104944 
L 278.605769 194.749288 
L 280.261752 193.407025 
L 281.089744 189.380237 
L 281.917735 188.709105 
L 282.745726 186.695711 
L 283.573718 186.02458 
L 285.229701 181.997791 
L 286.057692 180.655529 
L 286.885684 181.997791 
L 287.713675 177.299872 
L 288.541667 180.655529 
L 289.369658 177.299872 
L 291.025641 174.615346 
L 291.853632 169.917427 
L 292.681624 160.521587 
L 293.509615 160.521587 
L 294.337607 159.850456 
L 295.165598 167.232901 
L 295.99359 167.904032 
L 296.821581 173.273083 
L 297.649573 169.246295 
L 298.477564 167.232901 
L 299.305556 153.810274 
L 300.133547 144.414434 
L 300.961538 141.058777 
L 302.617521 154.481405 
L 303.445513 163.206113 
L 304.273504 166.56177 
L 305.101496 170.588558 
L 305.929487 169.917427 
L 306.757479 168.575164 
L 308.413462 163.206113 
L 309.241453 165.219507 
L 310.069444 166.56177 
L 310.897436 166.56177 
L 312.553419 169.246295 
L 315.037393 185.353448 
L 315.865385 188.037974 
L 316.693376 192.064762 
L 317.521368 197.433813 
L 318.349359 200.78947 
L 319.17735 203.473995 
L 320.833333 204.816258 
L 321.661325 208.171915 
L 323.317308 210.856441 
L 324.145299 214.212097 
L 324.973291 218.910017 
L 325.801282 224.279068 
L 326.629274 226.292462 
L 327.457265 226.963594 
L 328.285256 228.976988 
L 329.113248 230.31925 
L 329.941239 230.31925 
L 331.597222 231.661513 
L 332.425214 233.674907 
L 333.253205 233.674907 
L 334.909188 235.01717 
L 335.737179 235.01717 
L 336.565171 236.359433 
L 337.393162 236.359433 
L 338.221154 237.030564 
L 340.705128 237.030564 
L 341.53312 238.372827 
L 342.361111 237.701696 
L 343.189103 237.701696 
L 344.017094 238.372827 
L 345.673077 237.030564 
L 346.501068 235.688302 
L 347.32906 235.01717 
L 349.813034 237.030564 
L 350.641026 238.372827 
L 351.469017 238.372827 
L 352.297009 239.71509 
L 353.952991 239.71509 
L 355.608974 238.372827 
L 356.436966 237.030564 
L 357.264957 237.030564 
L 358.092949 235.01717 
L 359.748932 232.332645 
L 360.576923 233.003776 
L 362.232906 233.003776 
L 363.060897 230.990382 
L 363.888889 229.648119 
L 364.71688 224.950199 
L 365.544872 224.279068 
L 366.372863 222.265674 
L 367.200855 221.594543 
L 368.028846 219.581148 
L 368.856838 219.581148 
L 369.684829 218.238886 
L 370.512821 219.581148 
L 372.168803 218.238886 
L 372.996795 215.55436 
L 373.824786 213.540966 
L 374.652778 206.829652 
L 376.308761 195.420419 
L 377.136752 192.064762 
L 377.964744 186.02458 
L 378.792735 184.011186 
L 379.620726 180.655529 
L 381.276709 171.259689 
L 382.104701 169.917427 
L 382.932692 170.588558 
L 383.760684 173.944215 
L 384.588675 172.601952 
L 385.416667 174.615346 
L 386.244658 175.957609 
L 387.900641 173.273083 
L 388.728632 173.273083 
L 389.556624 175.286478 
L 391.212607 176.62874 
L 392.040598 177.971003 
L 392.86859 178.642135 
L 393.696581 177.971003 
L 395.352564 180.655529 
L 397.008547 177.971003 
L 397.836538 175.957609 
L 398.66453 174.615346 
L 400.320513 173.273083 
L 401.148504 175.286478 
L 401.976496 176.62874 
L 402.804487 176.62874 
L 403.632479 180.655529 
L 404.46047 183.340054 
L 405.288462 185.353448 
L 406.116453 188.709105 
L 406.944444 190.051368 
L 407.772436 187.366842 
L 408.600427 183.340054 
L 409.428419 177.299872 
L 410.25641 169.246295 
L 411.084402 164.548376 
L 411.912393 157.837062 
L 413.568376 147.09896 
L 414.396368 143.743303 
L 415.224359 141.058777 
L 416.05235 139.716515 
L 416.880342 136.360858 
L 417.708333 134.347464 
L 418.536325 135.018595 
L 419.364316 133.005201 
L 420.192308 124.951624 
L 421.020299 111.528997 
L 421.848291 103.47542 
L 422.676282 98.106369 
L 423.504274 88.71053 
L 424.332265 88.039399 
L 425.160256 91.395056 
L 425.988248 97.435238 
L 426.816239 110.186734 
L 427.644231 118.911442 
L 428.472222 125.622756 
L 429.300214 136.360858 
L 430.956197 143.072172 
L 431.784188 140.387646 
L 433.440171 130.320675 
L 434.268162 125.622756 
L 435.096154 124.951624 
L 435.924145 126.965019 
L 436.752137 126.293887 
L 437.580128 123.609362 
L 438.40812 123.609362 
L 439.236111 118.911442 
L 440.064103 120.253705 
L 440.892094 122.93823 
L 441.720085 127.63615 
L 442.548077 128.978413 
L 443.376068 138.374252 
L 444.20406 139.716515 
L 445.032051 145.085566 
L 445.860043 148.441223 
L 446.688034 153.139142 
L 447.516026 163.877244 
L 448.344017 176.62874 
L 449.172009 181.997791 
L 450 189.380237 
L 450 189.380237 
" style="fill:none;stroke:#b3220f;stroke-linecap:square;stroke-width:1.5;"/>
   </g>
   <g id="patch_3">
    <path d="M 62.5 262.5 
L 62.5 27 
" style="fill:none;stroke:#555555;stroke-linecap:square;stroke-linejoin:miter;"/>
   </g>
   <g id="patch_4">
    <path d="M 62.5 262.5 
L 450 262.5 
" style="fill:none;stroke:#555555;stroke-linecap:square;stroke-linejoin:miter;"/>
   </g>
   <g id="text_15">
    <!-- Teusaquillo | Casos nuevos: 2021-07-05 -->
    <g style="fill:#555555;" transform="translate(131.121719 17)scale(0.14 -0.14)">
     <defs>
      <path d="M 24 63.40625 
L 24 0 
L 33.5 0 
L 33.5 63.40625 
L 57.296875 63.40625 
L 57.296875 71.40625 
L 0.203125 71.40625 
L 0.203125 63.40625 
z
" id="HelveticaNeue-84"/>
      <path d="M 11.59375 16.296875 
L 3.09375 16.296875 
Q 3.296875 11.5 5.09375 8.140625 
Q 6.90625 4.796875 9.90625 2.75 
Q 12.90625 0.703125 16.796875 -0.1875 
Q 20.703125 -1.09375 25 -1.09375 
Q 28.90625 -1.09375 32.84375 -0.34375 
Q 36.796875 0.40625 39.9375 2.296875 
Q 43.09375 4.203125 45.046875 7.296875 
Q 47 10.40625 47 15.09375 
Q 47 18.796875 45.546875 21.296875 
Q 44.09375 23.796875 41.75 25.4375 
Q 39.40625 27.09375 36.34375 28.09375 
Q 33.296875 29.09375 30.09375 29.796875 
Q 27.09375 30.5 24.09375 31.140625 
Q 21.09375 31.796875 18.6875 32.75 
Q 16.296875 33.703125 14.75 35.140625 
Q 13.203125 36.59375 13.203125 38.796875 
Q 13.203125 40.796875 14.203125 42.046875 
Q 15.203125 43.296875 16.796875 44.046875 
Q 18.40625 44.796875 20.34375 45.09375 
Q 22.296875 45.40625 24.203125 45.40625 
Q 26.296875 45.40625 28.34375 44.953125 
Q 30.40625 44.5 32.09375 43.5 
Q 33.796875 42.5 34.890625 40.84375 
Q 36 39.203125 36.203125 36.703125 
L 44.703125 36.703125 
Q 44.40625 41.40625 42.703125 44.546875 
Q 41 47.703125 38.140625 49.546875 
Q 35.296875 51.40625 31.59375 52.15625 
Q 27.90625 52.90625 23.5 52.90625 
Q 20.09375 52.90625 16.640625 52.046875 
Q 13.203125 51.203125 10.453125 49.453125 
Q 7.703125 47.703125 5.953125 44.890625 
Q 4.203125 42.09375 4.203125 38.203125 
Q 4.203125 33.203125 6.703125 30.390625 
Q 9.203125 27.59375 12.953125 26.046875 
Q 16.703125 24.5 21.09375 23.640625 
Q 25.5 22.796875 29.25 21.75 
Q 33 20.703125 35.5 19 
Q 38 17.296875 38 14 
Q 38 11.59375 36.796875 10.046875 
Q 35.59375 8.5 33.75 7.703125 
Q 31.90625 6.90625 29.703125 6.59375 
Q 27.5 6.296875 25.5 6.296875 
Q 22.90625 6.296875 20.453125 6.796875 
Q 18 7.296875 16.046875 8.4375 
Q 14.09375 9.59375 12.890625 11.546875 
Q 11.703125 13.5 11.59375 16.296875 
z
" id="HelveticaNeue-115"/>
      <path d="M 12.59375 25.40625 
Q 12.59375 29.203125 13.390625 32.796875 
Q 14.203125 36.40625 16 39.203125 
Q 17.796875 42 20.796875 43.703125 
Q 23.796875 45.40625 28.09375 45.40625 
Q 32.5 45.40625 35.59375 43.75 
Q 38.703125 42.09375 40.640625 39.390625 
Q 42.59375 36.703125 43.5 33.140625 
Q 44.40625 29.59375 44.40625 25.796875 
Q 44.40625 22.203125 43.546875 18.703125 
Q 42.703125 15.203125 40.796875 12.453125 
Q 38.90625 9.703125 35.90625 8 
Q 32.90625 6.296875 28.59375 6.296875 
Q 24.5 6.296875 21.453125 7.890625 
Q 18.40625 9.5 16.453125 12.203125 
Q 14.5 14.90625 13.546875 18.34375 
Q 12.59375 21.796875 12.59375 25.40625 
z
M 52.59375 -19.703125 
L 52.59375 51.703125 
L 44.09375 51.703125 
L 44.09375 44.796875 
L 43.90625 44.796875 
Q 42.5 47.09375 40.453125 48.640625 
Q 38.40625 50.203125 36.09375 51.140625 
Q 33.796875 52.09375 31.5 52.5 
Q 29.203125 52.90625 27.203125 52.90625 
Q 21.296875 52.90625 16.84375 50.75 
Q 12.40625 48.59375 9.453125 44.9375 
Q 6.5 41.296875 5.046875 36.390625 
Q 3.59375 31.5 3.59375 26 
Q 3.59375 20.5 5.09375 15.59375 
Q 6.59375 10.703125 9.546875 7 
Q 12.5 3.296875 16.953125 1.09375 
Q 21.40625 -1.09375 27.40625 -1.09375 
Q 32.796875 -1.09375 37.296875 0.796875 
Q 41.796875 2.703125 43.90625 7 
L 44.09375 7 
L 44.09375 -19.703125 
z
" id="HelveticaNeue-113"/>
      <path d="M 15.40625 61 
L 15.40625 71.40625 
L 6.90625 71.40625 
L 6.90625 61 
z
M 6.90625 51.703125 
L 6.90625 0 
L 15.40625 0 
L 15.40625 51.703125 
z
" id="HelveticaNeue-105"/>
      <path d="M 12.59375 25.796875 
Q 12.59375 30.5 13.84375 34.140625 
Q 15.09375 37.796875 17.296875 40.296875 
Q 19.5 42.796875 22.453125 44.09375 
Q 25.40625 45.40625 28.703125 45.40625 
Q 32 45.40625 34.953125 44.09375 
Q 37.90625 42.796875 40.09375 40.296875 
Q 42.296875 37.796875 43.546875 34.140625 
Q 44.796875 30.5 44.796875 25.796875 
Q 44.796875 21.09375 43.546875 17.4375 
Q 42.296875 13.796875 40.09375 11.34375 
Q 37.90625 8.90625 34.953125 7.59375 
Q 32 6.296875 28.703125 6.296875 
Q 25.40625 6.296875 22.453125 7.59375 
Q 19.5 8.90625 17.296875 11.34375 
Q 15.09375 13.796875 13.84375 17.4375 
Q 12.59375 21.09375 12.59375 25.796875 
z
M 3.59375 25.796875 
Q 3.59375 20.09375 5.1875 15.1875 
Q 6.796875 10.296875 10 6.640625 
Q 13.203125 3 17.890625 0.953125 
Q 22.59375 -1.09375 28.703125 -1.09375 
Q 34.90625 -1.09375 39.546875 0.953125 
Q 44.203125 3 47.390625 6.640625 
Q 50.59375 10.296875 52.1875 15.1875 
Q 53.796875 20.09375 53.796875 25.796875 
Q 53.796875 31.5 52.1875 36.453125 
Q 50.59375 41.40625 47.390625 45.046875 
Q 44.203125 48.703125 39.546875 50.796875 
Q 34.90625 52.90625 28.703125 52.90625 
Q 22.59375 52.90625 17.890625 50.796875 
Q 13.203125 48.703125 10 45.046875 
Q 6.796875 41.40625 5.1875 36.453125 
Q 3.59375 31.5 3.59375 25.796875 
z
" id="HelveticaNeue-111"/>
      <path id="HelveticaNeue-32"/>
      <path d="M 7.703125 78.59375 
L 7.703125 -21.296875 
L 14.5 -21.296875 
L 14.5 78.59375 
z
" id="HelveticaNeue-124"/>
      <path d="M 58 49.90625 
L 67.5 49.90625 
Q 66.703125 55.59375 64.09375 59.9375 
Q 61.5 64.296875 57.59375 67.1875 
Q 53.703125 70.09375 48.703125 71.59375 
Q 43.703125 73.09375 38.09375 73.09375 
Q 29.90625 73.09375 23.546875 70.140625 
Q 17.203125 67.203125 12.953125 62.09375 
Q 8.703125 57 6.5 50.140625 
Q 4.296875 43.296875 4.296875 35.5 
Q 4.296875 27.703125 6.34375 20.890625 
Q 8.40625 14.09375 12.5 9.09375 
Q 16.59375 4.09375 22.796875 1.25 
Q 29 -1.59375 37.296875 -1.59375 
Q 51 -1.59375 58.890625 5.90625 
Q 66.796875 13.40625 68.203125 26.90625 
L 58.703125 26.90625 
Q 58.40625 22.5 56.90625 18.703125 
Q 55.40625 14.90625 52.75 12.15625 
Q 50.09375 9.40625 46.4375 7.84375 
Q 42.796875 6.296875 38.09375 6.296875 
Q 31.703125 6.296875 27.09375 8.6875 
Q 22.5 11.09375 19.546875 15.140625 
Q 16.59375 19.203125 15.1875 24.640625 
Q 13.796875 30.09375 13.796875 36.203125 
Q 13.796875 41.796875 15.1875 47 
Q 16.59375 52.203125 19.546875 56.25 
Q 22.5 60.296875 27.046875 62.6875 
Q 31.59375 65.09375 38 65.09375 
Q 45.5 65.09375 50.953125 61.296875 
Q 56.40625 57.5 58 49.90625 
z
" id="HelveticaNeue-67"/>
      <path d="M 29.703125 0 
L 48.59375 51.703125 
L 39.703125 51.703125 
L 25.59375 8.59375 
L 25.40625 8.59375 
L 10.90625 51.703125 
L 1.40625 51.703125 
L 20.59375 0 
z
" id="HelveticaNeue-118"/>
      <path d="M 19.40625 40.59375 
L 19.40625 51.703125 
L 8.296875 51.703125 
L 8.296875 40.59375 
z
M 8.296875 11.09375 
L 8.296875 0 
L 19.40625 0 
L 19.40625 11.09375 
z
" id="HelveticaNeue-58"/>
      <path d="M 5 31.796875 
L 5 23.796875 
L 33.90625 23.796875 
L 33.90625 31.796875 
z
" id="HelveticaNeue-45"/>
      <path d="M 50.90625 62.40625 
L 50.90625 69.703125 
L 5 69.703125 
L 5 61.703125 
L 42.203125 61.703125 
Q 36.59375 55.796875 31.75 48.796875 
Q 26.90625 41.796875 23.203125 33.9375 
Q 19.5 26.09375 17.140625 17.546875 
Q 14.796875 9 14.203125 0 
L 23.703125 0 
Q 24.203125 8.296875 26.5 17.09375 
Q 28.796875 25.90625 32.4375 34.203125 
Q 36.09375 42.5 40.796875 49.796875 
Q 45.5 57.09375 50.90625 62.40625 
z
" id="HelveticaNeue-55"/>
     </defs>
     <use xlink:href="#HelveticaNeue-84"/>
     <use x="46.274994" xlink:href="#HelveticaNeue-101"/>
     <use x="99.974991" xlink:href="#HelveticaNeue-117"/>
     <use x="155.574982" xlink:href="#HelveticaNeue-115"/>
     <use x="205.574966" xlink:href="#HelveticaNeue-97"/>
     <use x="259.274963" xlink:href="#HelveticaNeue-113"/>
     <use x="318.574951" xlink:href="#HelveticaNeue-117"/>
     <use x="374.174942" xlink:href="#HelveticaNeue-105"/>
     <use x="396.374939" xlink:href="#HelveticaNeue-108"/>
     <use x="418.574936" xlink:href="#HelveticaNeue-108"/>
     <use x="440.774933" xlink:href="#HelveticaNeue-111"/>
     <use x="498.174927" xlink:href="#HelveticaNeue-32"/>
     <use x="525.974915" xlink:href="#HelveticaNeue-124"/>
     <use x="548.174911" xlink:href="#HelveticaNeue-32"/>
     <use x="575.974899" xlink:href="#HelveticaNeue-67"/>
     <use x="648.174881" xlink:href="#HelveticaNeue-97"/>
     <use x="701.874878" xlink:href="#HelveticaNeue-115"/>
     <use x="751.874863" xlink:href="#HelveticaNeue-111"/>
     <use x="809.274857" xlink:href="#HelveticaNeue-115"/>
     <use x="859.274841" xlink:href="#HelveticaNeue-32"/>
     <use x="887.074829" xlink:href="#HelveticaNeue-110"/>
     <use x="942.67482" xlink:href="#HelveticaNeue-117"/>
     <use x="998.274811" xlink:href="#HelveticaNeue-101"/>
     <use x="1051.974808" xlink:href="#HelveticaNeue-118"/>
     <use x="1101.974792" xlink:href="#HelveticaNeue-111"/>
     <use x="1159.374786" xlink:href="#HelveticaNeue-115"/>
     <use x="1209.374771" xlink:href="#HelveticaNeue-58"/>
     <use x="1237.174759" xlink:href="#HelveticaNeue-32"/>
     <use x="1264.974747" xlink:href="#HelveticaNeue-50"/>
     <use x="1320.574738" xlink:href="#HelveticaNeue-48"/>
     <use x="1376.174728" xlink:href="#HelveticaNeue-50"/>
     <use x="1431.774719" xlink:href="#HelveticaNeue-49"/>
     <use x="1487.37471" xlink:href="#HelveticaNeue-45"/>
     <use x="1526.274704" xlink:href="#HelveticaNeue-48"/>
     <use x="1581.874695" xlink:href="#HelveticaNeue-55"/>
     <use x="1637.474686" xlink:href="#HelveticaNeue-45"/>
     <use x="1676.37468" xlink:href="#HelveticaNeue-48"/>
     <use x="1731.97467" xlink:href="#HelveticaNeue-53"/>
    </g>
   </g>
   <g id="legend_1">
    <g id="line2d_28">
     <path d="M 71.5 39.640625 
L 91.5 39.640625 
" style="fill:none;stroke:#000000;stroke-dasharray:1.5,2.475;stroke-dashoffset:0;stroke-opacity:0.5;stroke-width:1.5;"/>
    </g>
    <g id="line2d_29"/>
    <g id="text_16">
     <!-- Actual -->
     <g style="fill:#555555;" transform="translate(99.5 43.140625)scale(0.1 -0.1)">
      <use xlink:href="#HelveticaNeue-65"/>
      <use x="64.799988" xlink:href="#HelveticaNeue-99"/>
      <use x="118.499985" xlink:href="#HelveticaNeue-116"/>
      <use x="149.999969" xlink:href="#HelveticaNeue-117"/>
      <use x="205.59996" xlink:href="#HelveticaNeue-97"/>
      <use x="259.299957" xlink:href="#HelveticaNeue-108"/>
     </g>
    </g>
    <g id="line2d_30">
     <path d="M 71.5 54.310937 
L 91.5 54.310937 
" style="fill:none;stroke:#b3220f;stroke-linecap:square;stroke-width:1.5;"/>
    </g>
    <g id="line2d_31"/>
    <g id="text_17">
     <!-- Promedio semanal (7 das)  -->
     <g style="fill:#555555;" transform="translate(99.5 57.810937)scale(0.1 -0.1)">
      <defs>
       <path d="M 17.296875 37.203125 
L 17.296875 63.40625 
L 35.90625 63.40625 
Q 44 63.40625 47.75 60.046875 
Q 51.5 56.703125 51.5 50.296875 
Q 51.5 43.90625 47.75 40.5 
Q 44 37.09375 35.90625 37.203125 
z
M 7.796875 71.40625 
L 7.796875 0 
L 17.296875 0 
L 17.296875 29.203125 
L 39.09375 29.203125 
Q 49.90625 29.09375 55.453125 34.6875 
Q 61 40.296875 61 50.296875 
Q 61 60.296875 55.453125 65.84375 
Q 49.90625 71.40625 39.09375 71.40625 
z
" id="HelveticaNeue-80"/>
       <path d="M 6.40625 51.703125 
L 6.40625 0 
L 14.90625 0 
L 14.90625 32.203125 
Q 14.90625 33.703125 15.65625 35.953125 
Q 16.40625 38.203125 18.046875 40.296875 
Q 19.703125 42.40625 22.34375 43.90625 
Q 25 45.40625 28.703125 45.40625 
Q 31.59375 45.40625 33.4375 44.546875 
Q 35.296875 43.703125 36.390625 42.140625 
Q 37.5 40.59375 37.953125 38.5 
Q 38.40625 36.40625 38.40625 33.90625 
L 38.40625 0 
L 46.90625 0 
L 46.90625 32.203125 
Q 46.90625 38.203125 50.5 41.796875 
Q 54.09375 45.40625 60.40625 45.40625 
Q 63.5 45.40625 65.453125 44.5 
Q 67.40625 43.59375 68.5 42.046875 
Q 69.59375 40.5 70 38.390625 
Q 70.40625 36.296875 70.40625 33.90625 
L 70.40625 0 
L 78.90625 0 
L 78.90625 37.90625 
Q 78.90625 41.90625 77.65625 44.75 
Q 76.40625 47.59375 74.15625 49.390625 
Q 71.90625 51.203125 68.75 52.046875 
Q 65.59375 52.90625 61.703125 52.90625 
Q 56.59375 52.90625 52.34375 50.59375 
Q 48.09375 48.296875 45.5 44.09375 
Q 43.90625 48.90625 40 50.90625 
Q 36.09375 52.90625 31.296875 52.90625 
Q 20.40625 52.90625 14.59375 44.09375 
L 14.40625 44.09375 
L 14.40625 51.703125 
z
" id="HelveticaNeue-109"/>
       <path d="M 12.59375 25.40625 
Q 12.59375 29.203125 13.390625 32.796875 
Q 14.203125 36.40625 16 39.203125 
Q 17.796875 42 20.796875 43.703125 
Q 23.796875 45.40625 28.09375 45.40625 
Q 32.5 45.40625 35.59375 43.75 
Q 38.703125 42.09375 40.640625 39.390625 
Q 42.59375 36.703125 43.5 33.140625 
Q 44.40625 29.59375 44.40625 25.796875 
Q 44.40625 22.203125 43.546875 18.703125 
Q 42.703125 15.203125 40.796875 12.453125 
Q 38.90625 9.703125 35.90625 8 
Q 32.90625 6.296875 28.59375 6.296875 
Q 24.5 6.296875 21.453125 7.890625 
Q 18.40625 9.5 16.453125 12.203125 
Q 14.5 14.90625 13.546875 18.34375 
Q 12.59375 21.796875 12.59375 25.40625 
z
M 52.59375 0 
L 52.59375 71.40625 
L 44.09375 71.40625 
L 44.09375 44.796875 
L 43.90625 44.796875 
Q 42.5 47.09375 40.453125 48.640625 
Q 38.40625 50.203125 36.09375 51.140625 
Q 33.796875 52.09375 31.5 52.5 
Q 29.203125 52.90625 27.203125 52.90625 
Q 21.296875 52.90625 16.84375 50.75 
Q 12.40625 48.59375 9.453125 44.9375 
Q 6.5 41.296875 5.046875 36.390625 
Q 3.59375 31.5 3.59375 26 
Q 3.59375 20.5 5.09375 15.59375 
Q 6.59375 10.703125 9.546875 7 
Q 12.5 3.296875 16.953125 1.09375 
Q 21.40625 -1.09375 27.40625 -1.09375 
Q 32.796875 -1.09375 37.296875 0.796875 
Q 41.796875 2.703125 43.90625 7 
L 44.09375 7 
L 44.09375 0 
z
" id="HelveticaNeue-100"/>
       <path d="M 20.40625 -19.703125 
L 26.90625 -19.703125 
Q 19.796875 -8.203125 16.75 3.09375 
Q 13.703125 14.40625 13.703125 27 
Q 13.703125 39.296875 16.703125 50.5 
Q 19.703125 61.703125 26.90625 73.09375 
L 20.40625 73.09375 
Q 12.59375 62.796875 8.640625 50.796875 
Q 4.703125 38.796875 4.703125 27 
Q 4.703125 20.40625 5.796875 14.40625 
Q 6.90625 8.40625 8.953125 2.703125 
Q 11 -3 13.890625 -8.546875 
Q 16.796875 -14.09375 20.40625 -19.703125 
z
" id="HelveticaNeue-40"/>
       <path d="M 6.90625 0 
L 15.40625 0 
L 15.40625 51.703125 
L 6.90625 51.703125 
z
M 25.5 77 
L 11.40625 60.796875 
L 5 60.796875 
L 14.59375 77 
z
" id="HelveticaNeue-237"/>
       <path d="M -0.90625 -19.703125 
L 5.5 -19.703125 
Q 13.296875 -9.40625 17.25 2.546875 
Q 21.203125 14.5 21.203125 26.296875 
Q 21.203125 32.90625 20.09375 38.90625 
Q 19 44.90625 16.953125 50.65625 
Q 14.90625 56.40625 12 61.953125 
Q 9.09375 67.5 5.5 73.09375 
L -0.90625 73.09375 
Q 6.09375 61.59375 9.140625 50.25 
Q 12.203125 38.90625 12.203125 26.296875 
Q 12.203125 14.09375 9.203125 2.84375 
Q 6.203125 -8.40625 -0.90625 -19.703125 
z
" id="HelveticaNeue-41"/>
      </defs>
      <use xlink:href="#HelveticaNeue-80"/>
      <use x="64.799988" xlink:href="#HelveticaNeue-114"/>
      <use x="96.349976" xlink:href="#HelveticaNeue-111"/>
      <use x="153.749969" xlink:href="#HelveticaNeue-109"/>
      <use x="239.049957" xlink:href="#HelveticaNeue-101"/>
      <use x="292.749954" xlink:href="#HelveticaNeue-100"/>
      <use x="352.049942" xlink:href="#HelveticaNeue-105"/>
      <use x="374.249939" xlink:href="#HelveticaNeue-111"/>
      <use x="431.649933" xlink:href="#HelveticaNeue-32"/>
      <use x="459.449921" xlink:href="#HelveticaNeue-115"/>
      <use x="509.449905" xlink:href="#HelveticaNeue-101"/>
      <use x="563.149902" xlink:href="#HelveticaNeue-109"/>
      <use x="648.44989" xlink:href="#HelveticaNeue-97"/>
      <use x="702.149887" xlink:href="#HelveticaNeue-110"/>
      <use x="757.749878" xlink:href="#HelveticaNeue-97"/>
      <use x="811.449875" xlink:href="#HelveticaNeue-108"/>
      <use x="833.649872" xlink:href="#HelveticaNeue-32"/>
      <use x="861.44986" xlink:href="#HelveticaNeue-40"/>
      <use x="887.349854" xlink:href="#HelveticaNeue-55"/>
      <use x="942.949844" xlink:href="#HelveticaNeue-32"/>
      <use x="970.749832" xlink:href="#HelveticaNeue-100"/>
      <use x="1030.04982" xlink:href="#HelveticaNeue-237"/>
      <use x="1052.249817" xlink:href="#HelveticaNeue-97"/>
      <use x="1105.949814" xlink:href="#HelveticaNeue-115"/>
      <use x="1155.949799" xlink:href="#HelveticaNeue-41"/>
      <use x="1181.849792" xlink:href="#HelveticaNeue-32"/>
     </g>
    </g>
   </g>
  </g>
 </g>
 <defs>
  <clipPath id="p8a597ab307">
   <rect height="235.5" width="387.5" x="62.5" y="27"/>
  </clipPath>
 </defs>
</svg>
