<?xml version="1.0" encoding="utf-8" standalone="no"?>
<!DOCTYPE svg PUBLIC "-//W3C//DTD SVG 1.1//EN"
  "http://www.w3.org/Graphics/SVG/1.1/DTD/svg11.dtd">
<!-- Created with matplotlib (https://matplotlib.org/) -->
<svg height="300pt" version="1.1" viewBox="0 0 500 300" width="500pt" xmlns="http://www.w3.org/2000/svg" xmlns:xlink="http://www.w3.org/1999/xlink">
 <metadata>
  <rdf:RDF xmlns:cc="http://creativecommons.org/ns#" xmlns:dc="http://purl.org/dc/elements/1.1/" xmlns:rdf="http://www.w3.org/1999/02/22-rdf-syntax-ns#">
   <cc:Work>
    <dc:type rdf:resource="http://purl.org/dc/dcmitype/StillImage"/>
    <dc:date>2021-06-26T00:11:02.711524</dc:date>
    <dc:format>image/svg+xml</dc:format>
    <dc:creator>
     <cc:Agent>
      <dc:title>Matplotlib v3.3.4, https://matplotlib.org/</dc:title>
     </cc:Agent>
    </dc:creator>
   </cc:Work>
  </rdf:RDF>
 </metadata>
 <defs>
  <style type="text/css">*{stroke-linecap:butt;stroke-linejoin:round;}</style>
 </defs>
 <g id="figure_1">
  <g id="patch_1">
   <path d="M 0 300 
L 500 300 
L 500 0 
L 0 0 
z
" style="fill:#ffffff;"/>
  </g>
  <g id="axes_1">
   <g id="patch_2">
    <path d="M 62.5 262.5 
L 450 262.5 
L 450 36 
L 62.5 36 
z
" style="fill:#ffffff;"/>
   </g>
   <g id="matplotlib.axis_1">
    <g id="xtick_1">
     <g id="line2d_1">
      <defs>
       <path d="M 0 0 
L 0 3.5 
" id="mc9830f3958" style="stroke:#000000;stroke-width:0.8;"/>
      </defs>
      <g>
       <use style="stroke:#000000;stroke-width:0.8;" x="62.5" xlink:href="#mc9830f3958" y="262.5"/>
      </g>
     </g>
    </g>
    <g id="xtick_2">
     <g id="line2d_2">
      <g>
       <use style="stroke:#000000;stroke-width:0.8;" x="69.298246" xlink:href="#mc9830f3958" y="262.5"/>
      </g>
     </g>
     <g id="text_1">
      <!-- Apr -->
      <g transform="translate(61.398246 277)scale(0.1 -0.1)">
       <defs>
        <path d="M 47.015625 16.546875 
L 19.484375 16.546875 
L 13.71875 0 
L 0.875 0 
L 27.734375 71.09375 
L 38.8125 71.09375 
L 65.71875 0 
L 52.828125 0 
z
M 22.953125 26.515625 
L 43.5625 26.515625 
L 33.25 56 
z
" id="Roboto-Medium-65"/>
        <path d="M 52.34375 25.875 
Q 52.34375 13.625 46.78125 6.3125 
Q 41.21875 -0.984375 31.84375 -0.984375 
Q 23.140625 -0.984375 17.921875 4.734375 
L 17.921875 -20.3125 
L 6.0625 -20.3125 
L 6.0625 52.828125 
L 17 52.828125 
L 17.484375 47.46875 
Q 22.703125 53.8125 31.6875 53.8125 
Q 41.359375 53.8125 46.84375 46.609375 
Q 52.34375 39.40625 52.34375 26.609375 
z
M 40.53125 26.90625 
Q 40.53125 34.8125 37.375 39.453125 
Q 34.234375 44.09375 28.375 44.09375 
Q 21.09375 44.09375 17.921875 38.09375 
L 17.921875 14.65625 
Q 21.140625 8.5 28.46875 8.5 
Q 34.125 8.5 37.328125 13.0625 
Q 40.53125 17.625 40.53125 26.90625 
z
" id="Roboto-Medium-112"/>
        <path d="M 33.734375 42 
Q 31.390625 42.390625 28.90625 42.390625 
Q 20.75 42.390625 17.921875 36.140625 
L 17.921875 0 
L 6.0625 0 
L 6.0625 52.828125 
L 17.390625 52.828125 
L 17.671875 46.921875 
Q 21.96875 53.8125 29.59375 53.8125 
Q 32.125 53.8125 33.796875 53.125 
z
" id="Roboto-Medium-114"/>
       </defs>
       <use xlink:href="#Roboto-Medium-65"/>
       <use x="66.552734" xlink:href="#Roboto-Medium-112"/>
       <use x="122.851562" xlink:href="#Roboto-Medium-114"/>
      </g>
     </g>
    </g>
    <g id="xtick_3">
     <g id="line2d_3">
      <g>
       <use style="stroke:#000000;stroke-width:0.8;" x="146.628289" xlink:href="#mc9830f3958" y="262.5"/>
      </g>
     </g>
     <g id="text_2">
      <!-- Jul -->
      <g transform="translate(139.797821 277)scale(0.1 -0.1)">
       <defs>
        <path d="M 36.328125 71.09375 
L 48.640625 71.09375 
L 48.640625 21.234375 
Q 48.640625 11.03125 42.265625 5.015625 
Q 35.890625 -0.984375 25.4375 -0.984375 
Q 14.3125 -0.984375 8.25 4.625 
Q 2.203125 10.25 2.203125 20.265625 
L 14.5 20.265625 
Q 14.5 14.59375 17.3125 11.734375 
Q 20.125 8.890625 25.4375 8.890625 
Q 30.421875 8.890625 33.375 12.1875 
Q 36.328125 15.484375 36.328125 21.296875 
z
" id="Roboto-Medium-74"/>
        <path d="M 38.09375 5.171875 
Q 32.859375 -0.984375 23.25 -0.984375 
Q 14.65625 -0.984375 10.234375 4.046875 
Q 5.8125 9.078125 5.8125 18.609375 
L 5.8125 52.828125 
L 17.671875 52.828125 
L 17.671875 18.75 
Q 17.671875 8.6875 26.03125 8.6875 
Q 34.671875 8.6875 37.703125 14.890625 
L 37.703125 52.828125 
L 49.5625 52.828125 
L 49.5625 0 
L 38.375 0 
z
" id="Roboto-Medium-117"/>
        <path d="M 18.703125 0 
L 6.84375 0 
L 6.84375 75 
L 18.703125 75 
z
" id="Roboto-Medium-108"/>
       </defs>
       <use xlink:href="#Roboto-Medium-74"/>
       <use x="55.517578" xlink:href="#Roboto-Medium-117"/>
       <use x="111.083984" xlink:href="#Roboto-Medium-108"/>
      </g>
     </g>
    </g>
    <g id="xtick_4">
     <g id="line2d_4">
      <g>
       <use style="stroke:#000000;stroke-width:0.8;" x="224.808114" xlink:href="#mc9830f3958" y="262.5"/>
      </g>
     </g>
     <g id="text_3">
      <!-- Oct -->
      <g transform="translate(217.076083 277)scale(0.1 -0.1)">
       <defs>
        <path d="M 63.96875 33.6875 
Q 63.96875 23.25 60.34375 15.359375 
Q 56.734375 7.46875 50.015625 3.234375 
Q 43.3125 -0.984375 34.578125 -0.984375 
Q 25.921875 -0.984375 19.15625 3.234375 
Q 12.40625 7.46875 8.71875 15.28125 
Q 5.03125 23.09375 4.984375 33.296875 
L 4.984375 37.3125 
Q 4.984375 47.703125 8.671875 55.65625 
Q 12.359375 63.625 19.0625 67.84375 
Q 25.78125 72.078125 34.46875 72.078125 
Q 43.171875 72.078125 49.875 67.890625 
Q 56.59375 63.71875 60.25 55.875 
Q 63.921875 48.046875 63.96875 37.640625 
z
M 51.609375 37.40625 
Q 51.609375 49.21875 47.140625 55.515625 
Q 42.671875 61.8125 34.46875 61.8125 
Q 26.46875 61.8125 21.953125 55.53125 
Q 17.4375 49.265625 17.328125 37.796875 
L 17.328125 33.6875 
Q 17.328125 21.96875 21.890625 15.578125 
Q 26.46875 9.1875 34.578125 9.1875 
Q 42.78125 9.1875 47.1875 15.4375 
Q 51.609375 21.6875 51.609375 33.6875 
z
" id="Roboto-Medium-79"/>
        <path d="M 27.78125 8.5 
Q 32.234375 8.5 35.15625 11.078125 
Q 38.09375 13.671875 38.28125 17.484375 
L 49.46875 17.484375 
Q 49.265625 12.546875 46.375 8.265625 
Q 43.5 4 38.5625 1.5 
Q 33.640625 -0.984375 27.9375 -0.984375 
Q 16.84375 -0.984375 10.34375 6.1875 
Q 3.859375 13.375 3.859375 26.03125 
L 3.859375 27.25 
Q 3.859375 39.3125 10.296875 46.5625 
Q 16.75 53.8125 27.875 53.8125 
Q 37.3125 53.8125 43.234375 48.3125 
Q 49.171875 42.828125 49.46875 33.890625 
L 38.28125 33.890625 
Q 38.09375 38.421875 35.1875 41.34375 
Q 32.28125 44.28125 27.78125 44.28125 
Q 22.015625 44.28125 18.890625 40.109375 
Q 15.765625 35.9375 15.71875 27.4375 
L 15.71875 25.53125 
Q 15.71875 16.9375 18.8125 12.71875 
Q 21.921875 8.5 27.78125 8.5 
z
" id="Roboto-Medium-99"/>
        <path d="M 20.953125 65.671875 
L 20.953125 52.828125 
L 30.28125 52.828125 
L 30.28125 44.046875 
L 20.953125 44.046875 
L 20.953125 14.546875 
Q 20.953125 11.53125 22.140625 10.1875 
Q 23.34375 8.84375 26.421875 8.84375 
Q 28.46875 8.84375 30.5625 9.328125 
L 30.5625 0.140625 
Q 26.515625 -0.984375 22.75 -0.984375 
Q 9.078125 -0.984375 9.078125 14.109375 
L 9.078125 44.046875 
L 0.390625 44.046875 
L 0.390625 52.828125 
L 9.078125 52.828125 
L 9.078125 65.671875 
z
" id="Roboto-Medium-116"/>
       </defs>
       <use xlink:href="#Roboto-Medium-79"/>
       <use x="69.042969" xlink:href="#Roboto-Medium-99"/>
       <use x="121.386719" xlink:href="#Roboto-Medium-116"/>
      </g>
     </g>
    </g>
    <g id="xtick_5">
     <g id="line2d_5">
      <g>
       <use style="stroke:#000000;stroke-width:0.8;" x="302.987939" xlink:href="#mc9830f3958" y="262.5"/>
      </g>
     </g>
     <g id="text_4">
      <!-- Jan -->
      <g transform="translate(294.72622 277)scale(0.1 -0.1)">
       <defs>
        <path d="M 37.640625 0 
Q 36.859375 1.515625 36.28125 4.9375 
Q 30.609375 -0.984375 22.40625 -0.984375 
Q 14.453125 -0.984375 9.421875 3.5625 
Q 4.390625 8.109375 4.390625 14.796875 
Q 4.390625 23.25 10.65625 27.765625 
Q 16.9375 32.28125 28.609375 32.28125 
L 35.890625 32.28125 
L 35.890625 35.75 
Q 35.890625 39.84375 33.59375 42.3125 
Q 31.296875 44.78125 26.609375 44.78125 
Q 22.5625 44.78125 19.96875 42.75 
Q 17.390625 40.71875 17.390625 37.59375 
L 5.515625 37.59375 
Q 5.515625 41.9375 8.390625 45.71875 
Q 11.28125 49.515625 16.234375 51.65625 
Q 21.1875 53.8125 27.296875 53.8125 
Q 36.578125 53.8125 42.09375 49.140625 
Q 47.609375 44.484375 47.75 36.03125 
L 47.75 12.203125 
Q 47.75 5.078125 49.75 0.828125 
L 49.75 0 
z
M 24.609375 8.546875 
Q 28.125 8.546875 31.21875 10.25 
Q 34.328125 11.96875 35.890625 14.84375 
L 35.890625 24.8125 
L 29.5 24.8125 
Q 22.90625 24.8125 19.578125 22.515625 
Q 16.265625 20.21875 16.265625 16.015625 
Q 16.265625 12.59375 18.53125 10.5625 
Q 20.796875 8.546875 24.609375 8.546875 
z
" id="Roboto-Medium-97"/>
        <path d="M 17.09375 52.828125 
L 17.4375 46.734375 
Q 23.296875 53.8125 32.8125 53.8125 
Q 49.3125 53.8125 49.609375 34.90625 
L 49.609375 0 
L 37.75 0 
L 37.75 34.234375 
Q 37.75 39.265625 35.578125 41.671875 
Q 33.40625 44.09375 28.46875 44.09375 
Q 21.296875 44.09375 17.78125 37.59375 
L 17.78125 0 
L 5.90625 0 
L 5.90625 52.828125 
z
" id="Roboto-Medium-110"/>
       </defs>
       <use xlink:href="#Roboto-Medium-74"/>
       <use x="55.517578" xlink:href="#Roboto-Medium-97"/>
       <use x="109.619141" xlink:href="#Roboto-Medium-110"/>
      </g>
      <!-- 2021 -->
      <g transform="translate(291.619189 288.03125)scale(0.1 -0.1)">
       <defs>
        <path d="M 53.125 0 
L 5.328125 0 
L 5.328125 8.15625 
L 29 33.984375 
Q 34.125 39.703125 36.296875 43.53125 
Q 38.484375 47.359375 38.484375 51.21875 
Q 38.484375 56.296875 35.625 59.421875 
Q 32.765625 62.546875 27.9375 62.546875 
Q 22.171875 62.546875 19 59.03125 
Q 15.828125 55.515625 15.828125 49.421875 
L 3.953125 49.421875 
Q 3.953125 55.90625 6.90625 61.109375 
Q 9.859375 66.3125 15.34375 69.1875 
Q 20.84375 72.078125 28.03125 72.078125 
Q 38.375 72.078125 44.359375 66.875 
Q 50.34375 61.671875 50.34375 52.484375 
Q 50.34375 47.171875 47.34375 41.328125 
Q 44.34375 35.5 37.5 28.078125 
L 20.125 9.46875 
L 53.125 9.46875 
z
" id="Roboto-Medium-50"/>
        <path d="M 51.65625 29.9375 
Q 51.65625 14.59375 45.921875 6.796875 
Q 40.1875 -0.984375 28.46875 -0.984375 
Q 16.9375 -0.984375 11.109375 6.609375 
Q 5.28125 14.203125 5.125 29.109375 
L 5.125 41.40625 
Q 5.125 56.734375 10.859375 64.40625 
Q 16.609375 72.078125 28.375 72.078125 
Q 40.046875 72.078125 45.78125 64.59375 
Q 51.515625 57.125 51.65625 42.234375 
z
M 39.796875 43.21875 
Q 39.796875 53.21875 37.0625 57.875 
Q 34.328125 62.546875 28.375 62.546875 
Q 22.5625 62.546875 19.828125 58.125 
Q 17.09375 53.71875 16.9375 44.34375 
L 16.9375 28.21875 
Q 16.9375 18.265625 19.71875 13.375 
Q 22.515625 8.5 28.46875 8.5 
Q 34.1875 8.5 36.921875 13.015625 
Q 39.65625 17.53125 39.796875 27.15625 
z
" id="Roboto-Medium-48"/>
        <path d="M 37.453125 0 
L 25.640625 0 
L 25.640625 57.078125 
L 8.203125 51.125 
L 8.203125 61.140625 
L 35.9375 71.34375 
L 37.453125 71.34375 
z
" id="Roboto-Medium-49"/>
       </defs>
       <use xlink:href="#Roboto-Medium-50"/>
       <use x="56.835938" xlink:href="#Roboto-Medium-48"/>
       <use x="113.671875" xlink:href="#Roboto-Medium-50"/>
       <use x="170.507812" xlink:href="#Roboto-Medium-49"/>
      </g>
     </g>
    </g>
    <g id="xtick_6">
     <g id="line2d_6">
      <g>
       <use style="stroke:#000000;stroke-width:0.8;" x="379.468202" xlink:href="#mc9830f3958" y="262.5"/>
      </g>
     </g>
     <g id="text_5">
      <!-- Apr -->
      <g transform="translate(371.568202 277)scale(0.1 -0.1)">
       <use xlink:href="#Roboto-Medium-65"/>
       <use x="66.552734" xlink:href="#Roboto-Medium-112"/>
       <use x="122.851562" xlink:href="#Roboto-Medium-114"/>
      </g>
     </g>
    </g>
    <g id="xtick_7">
     <g id="line2d_7">
      <g>
       <use style="stroke:#000000;stroke-width:0.8;" x="450" xlink:href="#mc9830f3958" y="262.5"/>
      </g>
     </g>
    </g>
    <g id="xtick_8">
     <g id="line2d_8">
      <defs>
       <path d="M 0 0 
L 0 2 
" id="m7d7990e1aa" style="stroke:#000000;stroke-width:0.6;"/>
      </defs>
      <g>
       <use style="stroke:#000000;stroke-width:0.6;" x="94.791667" xlink:href="#m7d7990e1aa" y="262.5"/>
      </g>
     </g>
    </g>
    <g id="xtick_9">
     <g id="line2d_9">
      <g>
       <use style="stroke:#000000;stroke-width:0.6;" x="121.134868" xlink:href="#m7d7990e1aa" y="262.5"/>
      </g>
     </g>
    </g>
    <g id="xtick_10">
     <g id="line2d_10">
      <g>
       <use style="stroke:#000000;stroke-width:0.6;" x="172.971491" xlink:href="#m7d7990e1aa" y="262.5"/>
      </g>
     </g>
    </g>
    <g id="xtick_11">
     <g id="line2d_11">
      <g>
       <use style="stroke:#000000;stroke-width:0.6;" x="199.314693" xlink:href="#m7d7990e1aa" y="262.5"/>
      </g>
     </g>
    </g>
    <g id="xtick_12">
     <g id="line2d_12">
      <g>
       <use style="stroke:#000000;stroke-width:0.6;" x="251.151316" xlink:href="#m7d7990e1aa" y="262.5"/>
      </g>
     </g>
    </g>
    <g id="xtick_13">
     <g id="line2d_13">
      <g>
       <use style="stroke:#000000;stroke-width:0.6;" x="276.644737" xlink:href="#m7d7990e1aa" y="262.5"/>
      </g>
     </g>
    </g>
    <g id="xtick_14">
     <g id="line2d_14">
      <g>
       <use style="stroke:#000000;stroke-width:0.6;" x="329.33114" xlink:href="#m7d7990e1aa" y="262.5"/>
      </g>
     </g>
    </g>
    <g id="xtick_15">
     <g id="line2d_15">
      <g>
       <use style="stroke:#000000;stroke-width:0.6;" x="353.125" xlink:href="#m7d7990e1aa" y="262.5"/>
      </g>
     </g>
    </g>
    <g id="xtick_16">
     <g id="line2d_16">
      <g>
       <use style="stroke:#000000;stroke-width:0.6;" x="404.961623" xlink:href="#m7d7990e1aa" y="262.5"/>
      </g>
     </g>
    </g>
    <g id="xtick_17">
     <g id="line2d_17">
      <g>
       <use style="stroke:#000000;stroke-width:0.6;" x="431.304825" xlink:href="#m7d7990e1aa" y="262.5"/>
      </g>
     </g>
    </g>
    <g id="text_6">
     <!-- fecha -->
     <g transform="translate(243.774219 301.5625)scale(0.1 -0.1)">
      <defs>
       <path d="M 11.28125 0 
L 11.28125 45.84375 
L 2.9375 45.84375 
L 2.9375 52.828125 
L 11.28125 52.828125 
L 11.28125 58.25 
Q 11.28125 66.75 15.8125 71.390625 
Q 20.359375 76.03125 28.65625 76.03125 
Q 31.78125 76.03125 34.859375 75.203125 
L 34.375 67.875 
Q 32.078125 68.3125 29.5 68.3125 
Q 25.09375 68.3125 22.703125 65.75 
Q 20.3125 63.1875 20.3125 58.40625 
L 20.3125 52.828125 
L 31.59375 52.828125 
L 31.59375 45.84375 
L 20.3125 45.84375 
L 20.3125 0 
z
" id="Roboto-Regular-102"/>
       <path d="M 28.765625 -0.984375 
Q 18.015625 -0.984375 11.28125 6.078125 
Q 4.546875 13.140625 4.546875 24.953125 
L 4.546875 26.609375 
Q 4.546875 34.46875 7.546875 40.640625 
Q 10.546875 46.828125 15.9375 50.3125 
Q 21.34375 53.8125 27.640625 53.8125 
Q 37.9375 53.8125 43.640625 47.015625 
Q 49.359375 40.234375 49.359375 27.59375 
L 49.359375 23.828125 
L 13.578125 23.828125 
Q 13.765625 16.015625 18.140625 11.203125 
Q 22.515625 6.390625 29.25 6.390625 
Q 34.03125 6.390625 37.34375 8.34375 
Q 40.671875 10.296875 43.171875 13.53125 
L 48.6875 9.234375 
Q 42.046875 -0.984375 28.765625 -0.984375 
z
M 27.640625 46.390625 
Q 22.171875 46.390625 18.453125 42.40625 
Q 14.75 38.421875 13.875 31.25 
L 40.328125 31.25 
L 40.328125 31.9375 
Q 39.9375 38.8125 36.609375 42.59375 
Q 33.296875 46.390625 27.640625 46.390625 
z
" id="Roboto-Regular-101"/>
       <path d="M 28.03125 6.390625 
Q 32.859375 6.390625 36.46875 9.3125 
Q 40.09375 12.25 40.484375 16.65625 
L 49.03125 16.65625 
Q 48.78125 12.109375 45.890625 8 
Q 43.015625 3.90625 38.203125 1.453125 
Q 33.40625 -0.984375 28.03125 -0.984375 
Q 17.234375 -0.984375 10.859375 6.21875 
Q 4.5 13.421875 4.5 25.921875 
L 4.5 27.4375 
Q 4.5 35.15625 7.328125 41.15625 
Q 10.15625 47.171875 15.453125 50.484375 
Q 20.75 53.8125 27.984375 53.8125 
Q 36.859375 53.8125 42.75 48.484375 
Q 48.640625 43.171875 49.03125 34.671875 
L 40.484375 34.671875 
Q 40.09375 39.796875 36.59375 43.09375 
Q 33.109375 46.390625 27.984375 46.390625 
Q 21.09375 46.390625 17.3125 41.421875 
Q 13.53125 36.46875 13.53125 27.09375 
L 13.53125 25.390625 
Q 13.53125 16.265625 17.28125 11.328125 
Q 21.046875 6.390625 28.03125 6.390625 
z
" id="Roboto-Regular-99"/>
       <path d="M 15.875 46.4375 
Q 21.875 53.8125 31.5 53.8125 
Q 48.25 53.8125 48.390625 34.90625 
L 48.390625 0 
L 39.359375 0 
L 39.359375 34.96875 
Q 39.3125 40.671875 36.75 43.40625 
Q 34.1875 46.140625 28.765625 46.140625 
Q 24.359375 46.140625 21.03125 43.796875 
Q 17.71875 41.453125 15.875 37.640625 
L 15.875 0 
L 6.84375 0 
L 6.84375 75 
L 15.875 75 
z
" id="Roboto-Regular-104"/>
       <path d="M 39.453125 0 
Q 38.671875 1.5625 38.1875 5.5625 
Q 31.890625 -0.984375 23.140625 -0.984375 
Q 15.328125 -0.984375 10.328125 3.4375 
Q 5.328125 7.859375 5.328125 14.65625 
Q 5.328125 22.90625 11.59375 27.46875 
Q 17.875 32.03125 29.25 32.03125 
L 38.03125 32.03125 
L 38.03125 36.1875 
Q 38.03125 40.921875 35.203125 43.71875 
Q 32.375 46.53125 26.859375 46.53125 
Q 22.015625 46.53125 18.75 44.09375 
Q 15.484375 41.65625 15.484375 38.1875 
L 6.390625 38.1875 
Q 6.390625 42.140625 9.203125 45.828125 
Q 12.015625 49.515625 16.8125 51.65625 
Q 21.625 53.8125 27.390625 53.8125 
Q 36.53125 53.8125 41.703125 49.234375 
Q 46.875 44.671875 47.078125 36.671875 
L 47.078125 12.359375 
Q 47.078125 5.078125 48.921875 0.78125 
L 48.921875 0 
z
M 24.46875 6.890625 
Q 28.71875 6.890625 32.515625 9.078125 
Q 36.328125 11.28125 38.03125 14.796875 
L 38.03125 25.640625 
L 30.953125 25.640625 
Q 14.359375 25.640625 14.359375 15.921875 
Q 14.359375 11.671875 17.1875 9.28125 
Q 20.015625 6.890625 24.46875 6.890625 
z
" id="Roboto-Regular-97"/>
      </defs>
      <use xlink:href="#Roboto-Regular-102"/>
      <use x="34.716797" xlink:href="#Roboto-Regular-101"/>
      <use x="87.695312" xlink:href="#Roboto-Regular-99"/>
      <use x="140.039062" xlink:href="#Roboto-Regular-104"/>
      <use x="195.117188" xlink:href="#Roboto-Regular-97"/>
     </g>
    </g>
   </g>
   <g id="matplotlib.axis_2">
    <g id="ytick_1">
     <g id="line2d_18">
      <defs>
       <path d="M 0 0 
L -3.5 0 
" id="m62c6f15782" style="stroke:#000000;stroke-width:0.8;"/>
      </defs>
      <g>
       <use style="stroke:#000000;stroke-width:0.8;" x="62.5" xlink:href="#m62c6f15782" y="252.204545"/>
      </g>
     </g>
     <g id="text_7">
      <!-- 0 -->
      <g transform="translate(49.815625 255.954545)scale(0.1 -0.1)">
       <use xlink:href="#Roboto-Medium-48"/>
      </g>
     </g>
    </g>
    <g id="ytick_2">
     <g id="line2d_19">
      <g>
       <use style="stroke:#000000;stroke-width:0.8;" x="62.5" xlink:href="#m62c6f15782" y="219.930393"/>
      </g>
     </g>
     <g id="text_8">
      <!-- 50 -->
      <g transform="translate(44.13125 223.680393)scale(0.1 -0.1)">
       <defs>
        <path d="M 8.5 35.25 
L 12.359375 71.09375 
L 50.53125 71.09375 
L 50.53125 60.84375 
L 22.21875 60.84375 
L 20.265625 43.84375 
Q 25.203125 46.6875 31.390625 46.6875 
Q 41.546875 46.6875 47.1875 40.1875 
Q 52.828125 33.6875 52.828125 22.703125 
Q 52.828125 11.859375 46.578125 5.4375 
Q 40.328125 -0.984375 29.4375 -0.984375 
Q 19.671875 -0.984375 13.25 4.5625 
Q 6.84375 10.109375 6.296875 19.1875 
L 17.78125 19.1875 
Q 18.453125 14.015625 21.484375 11.25 
Q 24.515625 8.5 29.390625 8.5 
Q 34.859375 8.5 37.90625 12.40625 
Q 40.96875 16.3125 40.96875 23.046875 
Q 40.96875 29.546875 37.59375 33.328125 
Q 34.234375 37.109375 28.328125 37.109375 
Q 25.09375 37.109375 22.84375 36.25 
Q 20.609375 35.40625 17.96875 32.90625 
z
" id="Roboto-Medium-53"/>
       </defs>
       <use xlink:href="#Roboto-Medium-53"/>
       <use x="56.835938" xlink:href="#Roboto-Medium-48"/>
      </g>
     </g>
    </g>
    <g id="ytick_3">
     <g id="line2d_20">
      <g>
       <use style="stroke:#000000;stroke-width:0.8;" x="62.5" xlink:href="#m62c6f15782" y="187.656241"/>
      </g>
     </g>
     <g id="text_9">
      <!-- 100 -->
      <g transform="translate(38.446875 191.406241)scale(0.1 -0.1)">
       <use xlink:href="#Roboto-Medium-49"/>
       <use x="56.835938" xlink:href="#Roboto-Medium-48"/>
       <use x="113.671875" xlink:href="#Roboto-Medium-48"/>
      </g>
     </g>
    </g>
    <g id="ytick_4">
     <g id="line2d_21">
      <g>
       <use style="stroke:#000000;stroke-width:0.8;" x="62.5" xlink:href="#m62c6f15782" y="155.382089"/>
      </g>
     </g>
     <g id="text_10">
      <!-- 150 -->
      <g transform="translate(38.446875 159.132089)scale(0.1 -0.1)">
       <use xlink:href="#Roboto-Medium-49"/>
       <use x="56.835938" xlink:href="#Roboto-Medium-53"/>
       <use x="113.671875" xlink:href="#Roboto-Medium-48"/>
      </g>
     </g>
    </g>
    <g id="ytick_5">
     <g id="line2d_22">
      <g>
       <use style="stroke:#000000;stroke-width:0.8;" x="62.5" xlink:href="#m62c6f15782" y="123.107937"/>
      </g>
     </g>
     <g id="text_11">
      <!-- 200 -->
      <g transform="translate(38.446875 126.857937)scale(0.1 -0.1)">
       <use xlink:href="#Roboto-Medium-50"/>
       <use x="56.835938" xlink:href="#Roboto-Medium-48"/>
       <use x="113.671875" xlink:href="#Roboto-Medium-48"/>
      </g>
     </g>
    </g>
    <g id="ytick_6">
     <g id="line2d_23">
      <g>
       <use style="stroke:#000000;stroke-width:0.8;" x="62.5" xlink:href="#m62c6f15782" y="90.833785"/>
      </g>
     </g>
     <g id="text_12">
      <!-- 250 -->
      <g transform="translate(38.446875 94.583785)scale(0.1 -0.1)">
       <use xlink:href="#Roboto-Medium-50"/>
       <use x="56.835938" xlink:href="#Roboto-Medium-53"/>
       <use x="113.671875" xlink:href="#Roboto-Medium-48"/>
      </g>
     </g>
    </g>
    <g id="ytick_7">
     <g id="line2d_24">
      <g>
       <use style="stroke:#000000;stroke-width:0.8;" x="62.5" xlink:href="#m62c6f15782" y="58.559632"/>
      </g>
     </g>
     <g id="text_13">
      <!-- 300 -->
      <g transform="translate(38.446875 62.309632)scale(0.1 -0.1)">
       <defs>
        <path d="M 19.046875 40.96875 
L 26.265625 40.96875 
Q 31.734375 41.015625 34.9375 43.796875 
Q 38.140625 46.578125 38.140625 51.859375 
Q 38.140625 56.9375 35.46875 59.734375 
Q 32.8125 62.546875 27.34375 62.546875 
Q 22.5625 62.546875 19.484375 59.78125 
Q 16.40625 57.03125 16.40625 52.59375 
L 4.546875 52.59375 
Q 4.546875 58.0625 7.453125 62.546875 
Q 10.359375 67.046875 15.546875 69.5625 
Q 20.75 72.078125 27.203125 72.078125 
Q 37.84375 72.078125 43.921875 66.71875 
Q 50 61.375 50 51.859375 
Q 50 47.078125 46.9375 42.84375 
Q 43.890625 38.625 39.0625 36.46875 
Q 44.921875 34.46875 47.96875 30.171875 
Q 51.03125 25.875 51.03125 19.921875 
Q 51.03125 10.359375 44.453125 4.6875 
Q 37.890625 -0.984375 27.203125 -0.984375 
Q 16.9375 -0.984375 10.390625 4.484375 
Q 3.859375 9.96875 3.859375 19.046875 
L 15.71875 19.046875 
Q 15.71875 14.359375 18.859375 11.421875 
Q 22.015625 8.5 27.34375 8.5 
Q 32.859375 8.5 36.03125 11.421875 
Q 39.203125 14.359375 39.203125 19.921875 
Q 39.203125 25.53125 35.875 28.5625 
Q 32.5625 31.59375 26.03125 31.59375 
L 19.046875 31.59375 
z
" id="Roboto-Medium-51"/>
       </defs>
       <use xlink:href="#Roboto-Medium-51"/>
       <use x="56.835938" xlink:href="#Roboto-Medium-48"/>
       <use x="113.671875" xlink:href="#Roboto-Medium-48"/>
      </g>
     </g>
    </g>
   </g>
   <g id="line2d_25">
    <path clip-path="url(#pd31009741e)" d="M 63.349781 252.204545 
L 64.199561 250.268096 
L 65.049342 252.204545 
L 65.899123 248.97713 
L 66.748904 251.559062 
L 67.598684 250.268096 
L 69.298246 251.559062 
L 70.148026 248.331647 
L 70.997807 247.040681 
L 71.847588 250.913579 
L 72.697368 251.559062 
L 73.547149 247.686164 
L 74.39693 252.204545 
L 75.246711 249.622613 
L 76.096491 249.622613 
L 76.946272 251.559062 
L 77.796053 252.204545 
L 78.645833 250.913579 
L 79.495614 247.686164 
L 80.345395 250.913579 
L 81.195175 251.559062 
L 82.044956 250.268096 
L 82.894737 250.913579 
L 83.744518 250.913579 
L 84.594298 248.331647 
L 85.444079 251.559062 
L 86.29386 248.97713 
L 87.14364 250.268096 
L 87.993421 250.913579 
L 88.843202 250.913579 
L 89.692982 250.268096 
L 90.542763 250.268096 
L 91.392544 250.913579 
L 92.242325 250.268096 
L 93.092105 251.559062 
L 93.941886 250.913579 
L 94.791667 250.913579 
L 96.491228 252.204545 
L 97.341009 252.204545 
L 98.190789 251.559062 
L 99.04057 252.204545 
L 99.890351 248.97713 
L 100.740132 252.204545 
L 102.439693 247.040681 
L 103.289474 250.268096 
L 104.139254 250.913579 
L 104.989035 252.204545 
L 105.838816 250.913579 
L 106.688596 251.559062 
L 107.538377 251.559062 
L 109.237939 250.268096 
L 110.087719 248.97713 
L 110.9375 248.97713 
L 111.787281 248.331647 
L 112.637061 247.040681 
L 113.486842 249.622613 
L 114.336623 250.913579 
L 115.186404 248.331647 
L 116.036184 247.686164 
L 116.885965 247.686164 
L 117.735746 250.268096 
L 118.585526 248.97713 
L 119.435307 247.040681 
L 120.285088 247.040681 
L 121.134868 248.97713 
L 121.984649 248.331647 
L 122.83443 250.268096 
L 123.684211 245.749715 
L 124.533991 250.913579 
L 125.383772 249.622613 
L 126.233553 247.040681 
L 127.083333 247.686164 
L 127.933114 248.97713 
L 129.632675 250.268096 
L 130.482456 245.749715 
L 131.332237 248.97713 
L 132.182018 248.97713 
L 133.031798 245.104232 
L 133.881579 245.749715 
L 134.73136 243.813266 
L 135.58114 243.167783 
L 136.430921 240.585851 
L 137.280702 241.231334 
L 138.130482 243.813266 
L 139.830044 243.813266 
L 140.679825 232.840054 
L 141.529605 243.167783 
L 142.379386 243.167783 
L 144.078947 228.967156 
L 144.928728 245.749715 
L 145.778509 234.776503 
L 146.628289 236.067469 
L 147.47807 230.258122 
L 148.327851 236.712952 
L 149.177632 234.776503 
L 150.027412 238.003918 
L 150.877193 223.157808 
L 151.726974 232.194571 
L 152.576754 233.485537 
L 153.426535 233.485537 
L 154.276316 227.030707 
L 155.126096 224.448775 
L 155.975877 239.940368 
L 156.825658 214.766529 
L 157.675439 236.712952 
L 158.525219 232.194571 
L 159.375 221.221359 
L 160.224781 223.803292 
L 161.074561 210.248148 
L 161.924342 212.83008 
L 162.774123 228.321673 
L 163.623904 217.348461 
L 164.473684 200.565902 
L 165.323465 218.639427 
L 166.173246 193.465588 
L 167.023026 204.4388 
L 167.872807 236.067469 
L 168.722588 193.465588 
L 169.572368 179.910445 
L 170.422149 207.666215 
L 171.27193 204.4388 
L 172.121711 199.274936 
L 172.971491 213.475563 
L 173.821272 230.903605 
L 174.671053 212.184597 
L 175.520833 173.455614 
L 176.370614 192.820105 
L 177.220395 223.157808 
L 178.070175 209.602665 
L 178.919956 202.502351 
L 179.769737 206.375249 
L 180.619518 176.683029 
L 181.469298 190.883656 
L 182.319079 194.756555 
L 183.16886 216.057495 
L 184.01864 215.412012 
L 184.868421 194.756555 
L 185.718202 224.448775 
L 186.567982 200.565902 
L 187.417763 200.565902 
L 188.267544 219.930393 
L 189.117325 214.121046 
L 189.967105 203.793317 
L 190.816886 227.030707 
L 191.666667 206.375249 
L 192.516447 217.993944 
L 193.366228 217.993944 
L 194.216009 230.258122 
L 195.065789 227.67619 
L 195.91557 222.512325 
L 196.765351 237.358435 
L 197.615132 223.157808 
L 199.314693 219.28491 
L 200.164474 234.13102 
L 201.014254 220.575876 
L 201.864035 232.840054 
L 202.713816 221.221359 
L 203.563596 242.5223 
L 204.413377 223.157808 
L 205.263158 234.776503 
L 206.112939 239.294885 
L 206.962719 223.157808 
L 207.8125 227.67619 
L 209.512061 243.813266 
L 210.361842 235.421986 
L 211.211623 232.194571 
L 212.061404 229.612639 
L 212.911184 230.258122 
L 213.760965 221.221359 
L 215.460526 234.13102 
L 216.310307 229.612639 
L 217.160088 233.485537 
L 218.009868 235.421986 
L 218.859649 227.030707 
L 219.70943 230.903605 
L 220.559211 228.967156 
L 221.408991 239.940368 
L 222.258772 227.67619 
L 223.108553 231.549088 
L 223.958333 226.385224 
L 224.808114 228.321673 
L 225.657895 231.549088 
L 226.507675 194.111072 
L 227.357456 227.67619 
L 228.207237 217.348461 
L 229.057018 225.739741 
L 229.906798 225.739741 
L 230.756579 214.766529 
L 231.60636 231.549088 
L 232.45614 225.739741 
L 233.305921 230.903605 
L 234.155702 241.876817 
L 235.005482 240.585851 
L 235.855263 234.13102 
L 236.705044 220.575876 
L 237.554825 227.67619 
L 238.404605 224.448775 
L 239.254386 232.840054 
L 240.104167 225.739741 
L 240.953947 201.856868 
L 241.803728 223.803292 
L 242.653509 223.803292 
L 243.503289 217.993944 
L 244.35307 228.967156 
L 245.202851 225.094258 
L 246.052632 223.157808 
L 246.902412 208.957182 
L 247.752193 219.28491 
L 248.601974 200.565902 
L 249.451754 201.211385 
L 251.151316 210.248148 
L 252.850877 215.412012 
L 253.700658 223.157808 
L 254.550439 219.28491 
L 255.400219 222.512325 
L 256.25 214.766529 
L 257.099781 210.893631 
L 257.949561 214.766529 
L 258.799342 212.83008 
L 259.649123 211.539114 
L 260.498904 214.766529 
L 261.348684 230.258122 
L 262.198465 227.030707 
L 263.048246 238.003918 
L 263.898026 223.803292 
L 264.747807 216.057495 
L 265.597588 229.612639 
L 266.447368 210.893631 
L 267.297149 214.121046 
L 268.14693 178.619478 
L 268.996711 221.866842 
L 269.846491 221.221359 
L 270.696272 214.121046 
L 271.546053 194.756555 
L 272.395833 198.629453 
L 273.245614 203.793317 
L 274.095395 216.057495 
L 274.945175 196.693004 
L 275.794956 210.248148 
L 276.644737 212.83008 
L 277.494518 213.475563 
L 278.344298 209.602665 
L 279.194079 193.465588 
L 280.04386 198.629453 
L 280.89364 226.385224 
L 281.743421 207.666215 
L 282.593202 207.020732 
L 283.442982 199.274936 
L 285.142544 181.846894 
L 285.992325 197.338487 
L 286.842105 207.666215 
L 287.691886 201.211385 
L 288.541667 192.820105 
L 289.391447 157.964021 
L 290.241228 196.693004 
L 291.091009 176.037546 
L 291.940789 201.211385 
L 292.79057 194.756555 
L 293.640351 172.810131 
L 294.490132 175.392063 
L 295.339912 176.037546 
L 296.189693 164.418852 
L 297.039474 221.866842 
L 297.889254 161.836919 
L 298.739035 178.619478 
L 300.438596 136.017598 
L 301.288377 115.36214 
L 302.138158 208.311698 
L 302.987939 219.28491 
L 303.837719 199.920419 
L 304.6875 145.05436 
L 305.537281 185.719792 
L 306.387061 90.833785 
L 307.236842 150.863708 
L 308.086623 128.271801 
L 308.936404 163.127885 
L 309.786184 175.392063 
L 310.635965 195.402038 
L 311.485746 200.565902 
L 312.335526 140.535979 
L 313.185307 163.127885 
L 314.035088 176.037546 
L 314.884868 166.355301 
L 315.734649 179.910445 
L 316.58443 168.937233 
L 317.434211 165.064335 
L 318.283991 156.027572 
L 319.133772 181.846894 
L 319.983553 177.328512 
L 320.833333 177.328512 
L 321.683114 185.074309 
L 322.532895 205.729766 
L 323.382675 191.529139 
L 324.232456 203.147834 
L 325.082237 189.59269 
L 326.781798 221.866842 
L 327.631579 212.184597 
L 328.48136 212.184597 
L 329.33114 193.465588 
L 330.180921 205.084283 
L 331.030702 228.321673 
L 331.880482 217.993944 
L 332.730263 223.803292 
L 333.580044 232.840054 
L 334.429825 237.358435 
L 336.129386 222.512325 
L 336.979167 230.903605 
L 337.828947 235.421986 
L 338.678728 234.776503 
L 339.528509 232.194571 
L 340.378289 237.358435 
L 341.22807 234.776503 
L 342.077851 235.421986 
L 342.927632 234.776503 
L 343.777412 238.003918 
L 344.627193 240.585851 
L 345.476974 233.485537 
L 346.326754 243.167783 
L 347.176535 237.358435 
L 348.026316 236.067469 
L 348.876096 234.13102 
L 349.725877 240.585851 
L 350.575658 244.458749 
L 351.425439 241.231334 
L 352.275219 234.13102 
L 353.125 237.358435 
L 353.974781 241.231334 
L 354.824561 232.194571 
L 355.674342 236.067469 
L 356.524123 233.485537 
L 357.373904 236.712952 
L 358.223684 241.876817 
L 359.073465 244.458749 
L 359.923246 242.5223 
L 360.773026 236.067469 
L 361.622807 237.358435 
L 362.472588 241.876817 
L 363.322368 243.813266 
L 364.172149 241.876817 
L 365.02193 237.358435 
L 365.871711 230.903605 
L 366.721491 230.258122 
L 367.571272 240.585851 
L 368.421053 228.967156 
L 369.270833 237.358435 
L 370.120614 227.030707 
L 370.970395 243.167783 
L 371.820175 230.903605 
L 372.669956 228.321673 
L 373.519737 224.448775 
L 374.369518 221.866842 
L 375.219298 205.084283 
L 376.069079 234.13102 
L 376.91886 232.194571 
L 377.76864 219.28491 
L 378.618421 208.311698 
L 379.468202 223.157808 
L 380.317982 214.766529 
L 381.167763 225.094258 
L 382.017544 230.258122 
L 382.867325 217.348461 
L 383.717105 192.820105 
L 384.566886 194.756555 
L 385.416667 179.910445 
L 386.266447 190.238173 
L 387.116228 192.174622 
L 387.966009 207.020732 
L 388.815789 161.191436 
L 389.66557 178.619478 
L 390.515351 170.873682 
L 391.365132 151.509191 
L 392.214912 167.646267 
L 393.064693 199.920419 
L 393.914474 201.856868 
L 394.764254 173.455614 
L 395.614035 154.091123 
L 396.463816 186.365275 
L 397.313596 170.873682 
L 398.163377 169.582716 
L 399.013158 199.920419 
L 399.862939 190.238173 
L 400.712719 172.164648 
L 401.5625 161.191436 
L 402.412281 193.465588 
L 403.262061 183.783343 
L 404.111842 183.13786 
L 404.961623 188.947207 
L 405.811404 197.338487 
L 406.661184 169.582716 
L 407.510965 159.254987 
L 408.360746 190.238173 
L 409.210526 169.582716 
L 410.060307 181.846894 
L 410.910088 185.074309 
L 411.759868 181.846894 
L 412.609649 177.973995 
L 413.45943 175.392063 
L 414.309211 187.656241 
L 415.158991 206.375249 
L 416.008772 196.693004 
L 416.858553 189.59269 
L 417.708333 207.020732 
L 418.558114 181.846894 
L 419.407895 150.863708 
L 420.257675 173.455614 
L 421.107456 169.582716 
L 421.957237 145.05436 
L 422.807018 167.000784 
L 423.656798 157.318538 
L 424.506579 132.144699 
L 425.35636 117.944072 
L 426.20614 164.418852 
L 427.055921 153.44564 
L 427.905702 132.790182 
L 428.755482 134.081148 
L 429.605263 138.59953 
L 430.455044 142.472428 
L 431.304825 114.716657 
L 432.154605 102.452479 
L 433.004386 46.295455 
L 433.854167 99.870547 
L 434.703947 116.653106 
L 435.553728 73.405742 
L 436.403509 134.081148 
L 437.253289 135.372115 
L 438.10307 129.562767 
L 438.952851 143.763394 
L 439.802632 164.418852 
L 440.652412 153.44564 
L 441.502193 160.545953 
L 442.351974 149.572742 
L 443.201754 158.609504 
L 444.051535 139.890496 
L 444.901316 128.917284 
L 445.751096 145.699843 
L 446.600877 149.572742 
L 447.450658 171.519165 
L 448.300439 187.656241 
L 449.150219 151.509191 
L 450 177.973995 
L 450 177.973995 
" style="fill:none;stroke:#000000;stroke-dasharray:1.5,2.475;stroke-dashoffset:0;stroke-opacity:0.5;stroke-width:1.5;"/>
   </g>
   <g id="line2d_26">
    <path clip-path="url(#pd31009741e)" d="M 62.5 251.559062 
L 63.349781 250.913579 
L 66.748904 250.913579 
L 67.598684 250.268096 
L 69.298246 250.268096 
L 70.148026 249.622613 
L 73.547149 249.622613 
L 74.39693 250.268096 
L 75.246711 250.268096 
L 76.096491 250.913579 
L 76.946272 250.913579 
L 77.796053 250.268096 
L 78.645833 250.913579 
L 79.495614 250.913579 
L 80.345395 250.268096 
L 82.044956 250.268096 
L 82.894737 250.913579 
L 83.744518 250.268096 
L 89.692982 250.268096 
L 90.542763 250.913579 
L 93.941886 250.913579 
L 94.791667 251.559062 
L 99.04057 251.559062 
L 100.740132 250.268096 
L 104.139254 250.268096 
L 105.838816 251.559062 
L 106.688596 251.559062 
L 108.388158 250.268096 
L 109.237939 250.268096 
L 110.9375 248.97713 
L 116.885965 248.97713 
L 117.735746 248.331647 
L 121.984649 248.331647 
L 122.83443 248.97713 
L 123.684211 248.97713 
L 124.533991 248.331647 
L 126.233553 248.331647 
L 127.083333 248.97713 
L 127.933114 248.331647 
L 130.482456 248.331647 
L 133.031798 246.395198 
L 134.73136 243.813266 
L 135.58114 243.167783 
L 136.430921 243.167783 
L 138.980263 241.231334 
L 139.830044 241.876817 
L 141.529605 239.294885 
L 143.229167 238.003918 
L 144.078947 238.003918 
L 145.778509 235.421986 
L 146.628289 235.421986 
L 147.47807 236.067469 
L 148.327851 233.485537 
L 149.177632 233.485537 
L 150.027412 232.840054 
L 150.877193 232.840054 
L 152.576754 230.258122 
L 153.426535 230.258122 
L 154.276316 229.612639 
L 155.975877 229.612639 
L 156.825658 228.321673 
L 157.675439 227.67619 
L 158.525219 225.739741 
L 159.375 222.512325 
L 160.224781 222.512325 
L 161.074561 219.930393 
L 161.924342 216.702978 
L 162.774123 216.057495 
L 163.623904 212.83008 
L 164.473684 210.893631 
L 165.323465 212.184597 
L 166.173246 208.957182 
L 167.023026 205.084283 
L 167.872807 205.084283 
L 168.722588 203.147834 
L 169.572368 202.502351 
L 171.27193 203.793317 
L 172.121711 207.666215 
L 172.971491 207.666215 
L 173.821272 205.729766 
L 174.671053 206.375249 
L 175.520833 206.375249 
L 176.370614 205.084283 
L 177.220395 203.147834 
L 178.070175 200.565902 
L 178.919956 201.211385 
L 179.769737 199.920419 
L 180.619518 197.98397 
L 182.319079 199.274936 
L 183.16886 202.502351 
L 184.01864 206.375249 
L 184.868421 207.666215 
L 185.718202 209.602665 
L 186.567982 209.602665 
L 187.417763 208.957182 
L 188.267544 212.184597 
L 189.117325 210.893631 
L 190.816886 214.766529 
L 191.666667 216.057495 
L 193.366228 221.221359 
L 194.216009 223.157808 
L 195.065789 225.739741 
L 195.91557 226.385224 
L 197.615132 226.385224 
L 198.464912 225.094258 
L 199.314693 226.385224 
L 200.164474 225.094258 
L 201.014254 227.030707 
L 201.864035 227.67619 
L 202.713816 229.612639 
L 203.563596 230.903605 
L 204.413377 231.549088 
L 205.263158 230.903605 
L 206.112939 232.194571 
L 206.962719 232.194571 
L 207.8125 233.485537 
L 208.662281 234.13102 
L 209.512061 233.485537 
L 210.361842 234.13102 
L 211.211623 232.840054 
L 212.061404 230.903605 
L 212.911184 229.612639 
L 213.760965 228.967156 
L 214.610746 228.967156 
L 215.460526 230.258122 
L 216.310307 230.258122 
L 217.160088 231.549088 
L 218.009868 231.549088 
L 218.859649 232.194571 
L 219.70943 231.549088 
L 220.559211 231.549088 
L 221.408991 230.903605 
L 222.258772 230.903605 
L 223.108553 230.258122 
L 223.958333 226.385224 
L 224.808114 223.803292 
L 225.657895 221.866842 
L 226.507675 220.575876 
L 227.357456 220.575876 
L 228.207237 219.28491 
L 229.057018 220.575876 
L 229.906798 223.803292 
L 230.756579 224.448775 
L 231.60636 227.67619 
L 232.45614 229.612639 
L 233.305921 232.194571 
L 234.155702 232.840054 
L 235.005482 232.840054 
L 235.855263 231.549088 
L 236.705044 230.903605 
L 237.554825 228.967156 
L 238.404605 224.448775 
L 239.254386 223.157808 
L 240.104167 222.512325 
L 240.953947 221.221359 
L 241.803728 221.221359 
L 242.653509 220.575876 
L 243.503289 221.221359 
L 244.35307 222.512325 
L 245.202851 221.221359 
L 246.052632 218.639427 
L 246.902412 215.412012 
L 247.752193 211.539114 
L 248.601974 208.957182 
L 249.451754 207.666215 
L 250.301535 208.311698 
L 251.151316 209.602665 
L 252.850877 216.057495 
L 253.700658 217.348461 
L 254.550439 217.993944 
L 256.25 216.702978 
L 257.099781 214.766529 
L 257.949561 214.121046 
L 258.799342 214.766529 
L 259.649123 216.702978 
L 260.498904 220.575876 
L 261.348684 223.157808 
L 262.198465 224.448775 
L 263.048246 226.385224 
L 263.898026 225.739741 
L 264.747807 223.157808 
L 265.597588 216.702978 
L 266.447368 213.475563 
L 267.297149 212.184597 
L 268.14693 211.539114 
L 268.996711 208.311698 
L 269.846491 207.020732 
L 270.696272 206.375249 
L 271.546053 208.957182 
L 272.395833 205.729766 
L 273.245614 204.4388 
L 274.095395 205.084283 
L 274.945175 207.666215 
L 275.794956 208.957182 
L 276.644737 208.311698 
L 277.494518 206.375249 
L 278.344298 208.311698 
L 279.194079 208.311698 
L 280.04386 207.666215 
L 281.743421 205.084283 
L 282.593202 202.502351 
L 283.442982 200.565902 
L 284.292763 197.338487 
L 285.992325 196.047521 
L 286.842105 192.174622 
L 287.691886 191.529139 
L 288.541667 189.59269 
L 289.391447 188.947207 
L 291.091009 185.074309 
L 291.940789 183.783343 
L 292.79057 185.074309 
L 293.640351 180.555928 
L 294.490132 183.783343 
L 295.339912 180.555928 
L 297.039474 177.973995 
L 297.889254 173.455614 
L 298.739035 164.418852 
L 299.588816 164.418852 
L 300.438596 163.773368 
L 301.288377 170.873682 
L 302.138158 171.519165 
L 302.987939 176.683029 
L 303.837719 172.810131 
L 304.6875 170.873682 
L 305.537281 157.964021 
L 306.387061 148.927258 
L 307.236842 145.699843 
L 308.936404 158.609504 
L 309.786184 167.000784 
L 310.635965 170.228199 
L 311.485746 174.101097 
L 312.335526 173.455614 
L 313.185307 172.164648 
L 314.884868 167.000784 
L 315.734649 168.937233 
L 316.58443 170.228199 
L 317.434211 170.228199 
L 319.133772 172.810131 
L 321.683114 188.301724 
L 322.532895 190.883656 
L 323.382675 194.756555 
L 324.232456 199.920419 
L 325.082237 203.147834 
L 325.932018 205.729766 
L 327.631579 207.020732 
L 328.48136 210.248148 
L 330.180921 212.83008 
L 331.030702 216.057495 
L 331.880482 220.575876 
L 332.730263 225.739741 
L 333.580044 227.67619 
L 334.429825 228.321673 
L 335.279605 230.258122 
L 336.129386 231.549088 
L 336.979167 231.549088 
L 338.678728 232.840054 
L 339.528509 234.776503 
L 340.378289 234.776503 
L 342.077851 236.067469 
L 342.927632 236.067469 
L 343.777412 237.358435 
L 344.627193 237.358435 
L 345.476974 238.003918 
L 348.026316 238.003918 
L 348.876096 239.294885 
L 349.725877 238.649402 
L 350.575658 238.649402 
L 351.425439 239.294885 
L 353.125 238.003918 
L 353.974781 236.712952 
L 354.824561 236.067469 
L 357.373904 238.003918 
L 358.223684 239.294885 
L 359.073465 239.294885 
L 359.923246 240.585851 
L 361.622807 240.585851 
L 363.322368 239.294885 
L 364.172149 238.003918 
L 365.02193 238.003918 
L 365.871711 236.067469 
L 367.571272 233.485537 
L 368.421053 234.13102 
L 370.120614 234.13102 
L 370.970395 232.194571 
L 371.820175 230.903605 
L 372.669956 226.385224 
L 373.519737 225.739741 
L 375.219298 223.157808 
L 376.069079 221.221359 
L 376.91886 221.221359 
L 377.76864 219.930393 
L 378.618421 221.221359 
L 380.317982 219.930393 
L 381.167763 217.348461 
L 382.017544 215.412012 
L 382.867325 208.957182 
L 384.566886 197.98397 
L 385.416667 194.756555 
L 386.266447 188.947207 
L 387.116228 187.010758 
L 387.966009 183.783343 
L 389.66557 174.74658 
L 390.515351 174.101097 
L 391.365132 174.101097 
L 392.214912 177.328512 
L 393.064693 176.683029 
L 393.914474 178.619478 
L 394.764254 179.264962 
L 395.614035 177.973995 
L 396.463816 177.328512 
L 397.313596 177.328512 
L 399.013158 179.910445 
L 399.862939 179.910445 
L 400.712719 181.201411 
L 401.5625 181.846894 
L 402.412281 181.201411 
L 403.262061 183.13786 
L 404.111842 183.783343 
L 404.961623 183.13786 
L 405.811404 181.846894 
L 406.661184 179.264962 
L 409.210526 177.328512 
L 410.060307 178.619478 
L 410.910088 180.555928 
L 411.759868 179.910445 
L 412.609649 183.783343 
L 413.45943 186.365275 
L 414.309211 188.301724 
L 415.158991 192.174622 
L 416.008772 193.465588 
L 416.858553 190.883656 
L 417.708333 187.010758 
L 418.558114 181.201411 
L 419.407895 173.455614 
L 420.257675 168.937233 
L 421.957237 157.964021 
L 422.807018 152.800157 
L 423.656798 149.572742 
L 424.506579 146.990809 
L 425.35636 145.05436 
L 426.20614 141.826945 
L 427.055921 140.535979 
L 427.905702 141.181462 
L 428.755482 139.890496 
L 429.605263 132.144699 
L 430.455044 119.235038 
L 431.304825 111.489242 
L 432.154605 105.679895 
L 433.004386 97.288615 
L 433.854167 95.352166 
L 434.703947 99.870547 
L 435.553728 106.325378 
L 436.403509 118.589555 
L 437.253289 127.626318 
L 438.10307 134.726632 
L 438.952851 145.699843 
L 439.802632 148.927258 
L 440.652412 152.800157 
L 441.502193 154.091123 
L 442.351974 151.509191 
L 443.201754 148.281775 
L 444.051535 146.345326 
L 444.901316 146.990809 
L 445.751096 152.154674 
L 446.600877 154.091123 
L 447.450658 160.545953 
L 448.300439 165.709818 
L 449.150219 168.937233 
L 450 171.519165 
L 450 171.519165 
" style="fill:none;stroke:#b3220f;stroke-linecap:square;stroke-width:1.5;"/>
   </g>
   <g id="patch_3">
    <path d="M 62.5 262.5 
L 62.5 36 
" style="fill:none;stroke:#000000;stroke-linecap:square;stroke-linejoin:miter;stroke-width:0.8;"/>
   </g>
   <g id="patch_4">
    <path d="M 450 262.5 
L 450 36 
" style="fill:none;stroke:#000000;stroke-linecap:square;stroke-linejoin:miter;stroke-width:0.8;"/>
   </g>
   <g id="patch_5">
    <path d="M 62.5 262.5 
L 450 262.5 
" style="fill:none;stroke:#000000;stroke-linecap:square;stroke-linejoin:miter;stroke-width:0.8;"/>
   </g>
   <g id="patch_6">
    <path d="M 62.5 36 
L 450 36 
" style="fill:none;stroke:#000000;stroke-linecap:square;stroke-linejoin:miter;stroke-width:0.8;"/>
   </g>
   <g id="text_14">
    <!-- Teusaquillo | Casos nuevos: 2021-06-23 -->
    <g transform="translate(150.2 30)scale(0.12 -0.12)">
     <defs>
      <path d="M 57.375 63.375 
L 34.515625 63.375 
L 34.515625 0 
L 25.203125 0 
L 25.203125 63.375 
L 2.390625 63.375 
L 2.390625 71.09375 
L 57.375 71.09375 
z
" id="Roboto-Regular-84"/>
      <path d="M 39.453125 5.21875 
Q 34.1875 -0.984375 23.96875 -0.984375 
Q 15.53125 -0.984375 11.109375 3.921875 
Q 6.6875 8.84375 6.640625 18.453125 
L 6.640625 52.828125 
L 15.671875 52.828125 
L 15.671875 18.703125 
Q 15.671875 6.6875 25.4375 6.6875 
Q 35.796875 6.6875 39.203125 14.40625 
L 39.203125 52.828125 
L 48.25 52.828125 
L 48.25 0 
L 39.65625 0 
z
" id="Roboto-Regular-117"/>
      <path d="M 37.59375 14.015625 
Q 37.59375 17.671875 34.828125 19.703125 
Q 32.078125 21.734375 25.21875 23.1875 
Q 18.359375 24.65625 14.328125 26.703125 
Q 10.296875 28.765625 8.375 31.59375 
Q 6.453125 34.421875 6.453125 38.328125 
Q 6.453125 44.828125 11.9375 49.3125 
Q 17.4375 53.8125 25.984375 53.8125 
Q 34.96875 53.8125 40.546875 49.171875 
Q 46.140625 44.53125 46.140625 37.3125 
L 37.0625 37.3125 
Q 37.0625 41.015625 33.90625 43.703125 
Q 30.765625 46.390625 25.984375 46.390625 
Q 21.046875 46.390625 18.265625 44.234375 
Q 15.484375 42.09375 15.484375 38.625 
Q 15.484375 35.359375 18.0625 33.6875 
Q 20.65625 32.03125 27.421875 30.515625 
Q 34.1875 29 38.375 26.90625 
Q 42.578125 24.8125 44.59375 21.84375 
Q 46.625 18.890625 46.625 14.65625 
Q 46.625 7.5625 40.953125 3.28125 
Q 35.296875 -0.984375 26.265625 -0.984375 
Q 19.921875 -0.984375 15.03125 1.265625 
Q 10.15625 3.515625 7.390625 7.546875 
Q 4.640625 11.578125 4.640625 16.265625 
L 13.671875 16.265625 
Q 13.921875 11.71875 17.3125 9.046875 
Q 20.703125 6.390625 26.265625 6.390625 
Q 31.390625 6.390625 34.484375 8.46875 
Q 37.59375 10.546875 37.59375 14.015625 
z
" id="Roboto-Regular-115"/>
      <path d="M 4.640625 26.859375 
Q 4.640625 39.3125 10.34375 46.5625 
Q 16.0625 53.8125 25.6875 53.8125 
Q 35.0625 53.8125 40.484375 47.515625 
L 40.875 52.828125 
L 49.171875 52.828125 
L 49.171875 -20.3125 
L 40.140625 -20.3125 
L 40.140625 4.890625 
Q 34.671875 -0.984375 25.59375 -0.984375 
Q 16.015625 -0.984375 10.328125 6.46875 
Q 4.640625 13.921875 4.640625 26.21875 
z
M 13.671875 25.828125 
Q 13.671875 16.75 17.5 11.5625 
Q 21.34375 6.390625 27.828125 6.390625 
Q 35.890625 6.390625 40.140625 13.53125 
L 40.140625 39.40625 
Q 35.84375 46.390625 27.9375 46.390625 
Q 21.390625 46.390625 17.53125 41.1875 
Q 13.671875 35.984375 13.671875 25.828125 
z
" id="Roboto-Regular-113"/>
      <path d="M 16.65625 0 
L 7.625 0 
L 7.625 52.828125 
L 16.65625 52.828125 
z
M 6.890625 66.84375 
Q 6.890625 69.046875 8.234375 70.5625 
Q 9.578125 72.078125 12.203125 72.078125 
Q 14.84375 72.078125 16.203125 70.5625 
Q 17.578125 69.046875 17.578125 66.84375 
Q 17.578125 64.65625 16.203125 63.1875 
Q 14.84375 61.71875 12.203125 61.71875 
Q 9.578125 61.71875 8.234375 63.1875 
Q 6.890625 64.65625 6.890625 66.84375 
z
" id="Roboto-Regular-105"/>
      <path d="M 16.65625 0 
L 7.625 0 
L 7.625 75 
L 16.65625 75 
z
" id="Roboto-Regular-108"/>
      <path d="M 4.4375 26.90625 
Q 4.4375 34.671875 7.484375 40.875 
Q 10.546875 47.078125 15.984375 50.4375 
Q 21.4375 53.8125 28.421875 53.8125 
Q 39.203125 53.8125 45.875 46.34375 
Q 52.546875 38.875 52.546875 26.46875 
L 52.546875 25.828125 
Q 52.546875 18.109375 49.578125 11.984375 
Q 46.625 5.859375 41.125 2.4375 
Q 35.640625 -0.984375 28.515625 -0.984375 
Q 17.78125 -0.984375 11.109375 6.484375 
Q 4.4375 13.96875 4.4375 26.265625 
z
M 13.53125 25.828125 
Q 13.53125 17.046875 17.609375 11.71875 
Q 21.6875 6.390625 28.515625 6.390625 
Q 35.40625 6.390625 39.453125 11.78125 
Q 43.5 17.1875 43.5 26.90625 
Q 43.5 35.59375 39.375 40.984375 
Q 35.25 46.390625 28.421875 46.390625 
Q 21.734375 46.390625 17.625 41.0625 
Q 13.53125 35.75 13.53125 25.828125 
z
" id="Roboto-Regular-111"/>
      <path id="Roboto-Regular-32"/>
      <path d="M 15.828125 -13.1875 
L 8.546875 -13.1875 
L 8.546875 71.09375 
L 15.828125 71.09375 
z
" id="Roboto-Regular-124"/>
      <path d="M 60.546875 22.5625 
Q 59.234375 11.28125 52.21875 5.140625 
Q 45.21875 -0.984375 33.59375 -0.984375 
Q 21 -0.984375 13.40625 8.046875 
Q 5.8125 17.09375 5.8125 32.234375 
L 5.8125 39.0625 
Q 5.8125 48.96875 9.34375 56.484375 
Q 12.890625 64.015625 19.375 68.046875 
Q 25.875 72.078125 34.421875 72.078125 
Q 45.75 72.078125 52.578125 65.75 
Q 59.421875 59.421875 60.546875 48.25 
L 51.125 48.25 
Q 49.90625 56.734375 45.828125 60.546875 
Q 41.75 64.359375 34.421875 64.359375 
Q 25.4375 64.359375 20.328125 57.71875 
Q 15.234375 51.078125 15.234375 38.8125 
L 15.234375 31.9375 
Q 15.234375 20.359375 20.0625 13.515625 
Q 24.90625 6.6875 33.59375 6.6875 
Q 41.40625 6.6875 45.578125 10.21875 
Q 49.75 13.765625 51.125 22.5625 
z
" id="Roboto-Regular-67"/>
      <path d="M 15.375 52.828125 
L 15.671875 46.1875 
Q 21.734375 53.8125 31.5 53.8125 
Q 48.25 53.8125 48.390625 34.90625 
L 48.390625 0 
L 39.359375 0 
L 39.359375 34.96875 
Q 39.3125 40.671875 36.75 43.40625 
Q 34.1875 46.140625 28.765625 46.140625 
Q 24.359375 46.140625 21.03125 43.796875 
Q 17.71875 41.453125 15.875 37.640625 
L 15.875 0 
L 6.84375 0 
L 6.84375 52.828125 
z
" id="Roboto-Regular-110"/>
      <path d="M 24.265625 12.25 
L 37.359375 52.828125 
L 46.578125 52.828125 
L 27.640625 0 
L 20.75 0 
L 1.609375 52.828125 
L 10.84375 52.828125 
z
" id="Roboto-Regular-118"/>
      <path d="M 6.546875 4.734375 
Q 6.546875 7.078125 7.9375 8.640625 
Q 9.328125 10.203125 12.109375 10.203125 
Q 14.890625 10.203125 16.328125 8.640625 
Q 17.78125 7.078125 17.78125 4.734375 
Q 17.78125 2.484375 16.328125 0.96875 
Q 14.890625 -0.53125 12.109375 -0.53125 
Q 9.328125 -0.53125 7.9375 0.96875 
Q 6.546875 2.484375 6.546875 4.734375 
z
M 6.59375 47.84375 
Q 6.59375 50.1875 7.984375 51.75 
Q 9.375 53.3125 12.15625 53.3125 
Q 14.9375 53.3125 16.375 51.75 
Q 17.828125 50.1875 17.828125 47.84375 
Q 17.828125 45.59375 16.375 44.078125 
Q 14.9375 42.578125 12.15625 42.578125 
Q 9.375 42.578125 7.984375 44.078125 
Q 6.59375 45.59375 6.59375 47.84375 
z
" id="Roboto-Regular-58"/>
      <path d="M 52.484375 0 
L 5.90625 0 
L 5.90625 6.5 
L 30.515625 33.84375 
Q 35.984375 40.046875 38.0625 43.921875 
Q 40.140625 47.796875 40.140625 51.953125 
Q 40.140625 57.515625 36.765625 61.078125 
Q 33.40625 64.65625 27.78125 64.65625 
Q 21.046875 64.65625 17.3125 60.8125 
Q 13.578125 56.984375 13.578125 50.140625 
L 4.546875 50.140625 
Q 4.546875 59.96875 10.859375 66.015625 
Q 17.1875 72.078125 27.78125 72.078125 
Q 37.703125 72.078125 43.453125 66.875 
Q 49.21875 61.671875 49.21875 53.03125 
Q 49.21875 42.53125 35.84375 28.03125 
L 16.796875 7.375 
L 52.484375 7.375 
z
" id="Roboto-Regular-50"/>
      <path d="M 50.484375 30.328125 
Q 50.484375 14.453125 45.0625 6.734375 
Q 39.65625 -0.984375 28.125 -0.984375 
Q 16.75 -0.984375 11.28125 6.5625 
Q 5.8125 14.109375 5.609375 29.109375 
L 5.609375 41.15625 
Q 5.609375 56.84375 11.03125 64.453125 
Q 16.453125 72.078125 28.03125 72.078125 
Q 39.5 72.078125 44.921875 64.71875 
Q 50.34375 57.375 50.484375 42.046875 
z
M 41.453125 42.671875 
Q 41.453125 54.15625 38.234375 59.40625 
Q 35.015625 64.65625 28.03125 64.65625 
Q 21.09375 64.65625 17.921875 59.421875 
Q 14.75 54.203125 14.65625 43.359375 
L 14.65625 28.90625 
Q 14.65625 17.390625 18 11.890625 
Q 21.34375 6.390625 28.125 6.390625 
Q 34.8125 6.390625 38.0625 11.5625 
Q 41.3125 16.75 41.453125 27.875 
z
" id="Roboto-Regular-48"/>
      <path d="M 35.59375 0 
L 26.515625 0 
L 26.515625 60.203125 
L 8.296875 53.515625 
L 8.296875 61.71875 
L 34.1875 71.4375 
L 35.59375 71.4375 
z
" id="Roboto-Regular-49"/>
      <path d="M 25.640625 26.515625 
L 1.8125 26.515625 
L 1.8125 33.890625 
L 25.640625 33.890625 
z
" id="Roboto-Regular-45"/>
      <path d="M 41.359375 71.140625 
L 41.359375 63.484375 
L 39.703125 63.484375 
Q 29.15625 63.28125 22.90625 57.21875 
Q 16.65625 51.171875 15.671875 40.1875 
Q 21.296875 46.625 31 46.625 
Q 40.28125 46.625 45.828125 40.078125 
Q 51.375 33.546875 51.375 23.1875 
Q 51.375 12.203125 45.390625 5.609375 
Q 39.40625 -0.984375 29.34375 -0.984375 
Q 19.140625 -0.984375 12.796875 6.859375 
Q 6.453125 14.703125 6.453125 27.046875 
L 6.453125 30.515625 
Q 6.453125 50.140625 14.8125 60.515625 
Q 23.1875 70.90625 39.75 71.140625 
z
M 29.5 39.109375 
Q 24.859375 39.109375 20.953125 36.328125 
Q 17.046875 33.546875 15.53125 29.34375 
L 15.53125 26.03125 
Q 15.53125 17.234375 19.484375 11.859375 
Q 23.4375 6.5 29.34375 6.5 
Q 35.453125 6.5 38.9375 10.984375 
Q 42.4375 15.484375 42.4375 22.75 
Q 42.4375 30.078125 38.890625 34.59375 
Q 35.359375 39.109375 29.5 39.109375 
z
" id="Roboto-Regular-54"/>
      <path d="M 19.046875 39.9375 
L 25.828125 39.9375 
Q 32.234375 40.046875 35.890625 43.3125 
Q 39.546875 46.578125 39.546875 52.15625 
Q 39.546875 64.65625 27.09375 64.65625 
Q 21.234375 64.65625 17.75 61.296875 
Q 14.265625 57.953125 14.265625 52.4375 
L 5.21875 52.4375 
Q 5.21875 60.890625 11.390625 66.484375 
Q 17.578125 72.078125 27.09375 72.078125 
Q 37.15625 72.078125 42.859375 66.75 
Q 48.578125 61.421875 48.578125 51.953125 
Q 48.578125 47.3125 45.578125 42.96875 
Q 42.578125 38.625 37.40625 36.46875 
Q 43.265625 34.625 46.453125 30.328125 
Q 49.65625 26.03125 49.65625 19.828125 
Q 49.65625 10.25 43.40625 4.625 
Q 37.15625 -0.984375 27.140625 -0.984375 
Q 17.140625 -0.984375 10.859375 4.4375 
Q 4.59375 9.859375 4.59375 18.75 
L 13.671875 18.75 
Q 13.671875 13.140625 17.328125 9.765625 
Q 21 6.390625 27.15625 6.390625 
Q 33.6875 6.390625 37.15625 9.8125 
Q 40.625 13.234375 40.625 19.625 
Q 40.625 25.828125 36.8125 29.140625 
Q 33.015625 32.46875 25.828125 32.5625 
L 19.046875 32.5625 
z
" id="Roboto-Regular-51"/>
     </defs>
     <use xlink:href="#Roboto-Regular-84"/>
     <use x="59.667969" xlink:href="#Roboto-Regular-101"/>
     <use x="112.646484" xlink:href="#Roboto-Regular-117"/>
     <use x="167.773438" xlink:href="#Roboto-Regular-115"/>
     <use x="219.335938" xlink:href="#Roboto-Regular-97"/>
     <use x="273.730469" xlink:href="#Roboto-Regular-113"/>
     <use x="330.566406" xlink:href="#Roboto-Regular-117"/>
     <use x="385.693359" xlink:href="#Roboto-Regular-105"/>
     <use x="409.960938" xlink:href="#Roboto-Regular-108"/>
     <use x="434.228516" xlink:href="#Roboto-Regular-108"/>
     <use x="458.496094" xlink:href="#Roboto-Regular-111"/>
     <use x="515.527344" xlink:href="#Roboto-Regular-32"/>
     <use x="540.283203" xlink:href="#Roboto-Regular-124"/>
     <use x="564.648438" xlink:href="#Roboto-Regular-32"/>
     <use x="589.404297" xlink:href="#Roboto-Regular-67"/>
     <use x="654.492188" xlink:href="#Roboto-Regular-97"/>
     <use x="708.886719" xlink:href="#Roboto-Regular-115"/>
     <use x="760.449219" xlink:href="#Roboto-Regular-111"/>
     <use x="817.480469" xlink:href="#Roboto-Regular-115"/>
     <use x="869.042969" xlink:href="#Roboto-Regular-32"/>
     <use x="893.798828" xlink:href="#Roboto-Regular-110"/>
     <use x="948.974609" xlink:href="#Roboto-Regular-117"/>
     <use x="1004.101562" xlink:href="#Roboto-Regular-101"/>
     <use x="1057.080078" xlink:href="#Roboto-Regular-118"/>
     <use x="1105.517578" xlink:href="#Roboto-Regular-111"/>
     <use x="1162.548828" xlink:href="#Roboto-Regular-115"/>
     <use x="1214.111328" xlink:href="#Roboto-Regular-58"/>
     <use x="1238.330078" xlink:href="#Roboto-Regular-32"/>
     <use x="1263.085938" xlink:href="#Roboto-Regular-50"/>
     <use x="1319.238281" xlink:href="#Roboto-Regular-48"/>
     <use x="1375.390625" xlink:href="#Roboto-Regular-50"/>
     <use x="1431.542969" xlink:href="#Roboto-Regular-49"/>
     <use x="1487.695312" xlink:href="#Roboto-Regular-45"/>
     <use x="1515.283203" xlink:href="#Roboto-Regular-48"/>
     <use x="1571.435547" xlink:href="#Roboto-Regular-54"/>
     <use x="1627.587891" xlink:href="#Roboto-Regular-45"/>
     <use x="1655.175781" xlink:href="#Roboto-Regular-50"/>
     <use x="1711.328125" xlink:href="#Roboto-Regular-51"/>
    </g>
   </g>
   <g id="legend_1">
    <g id="patch_7">
     <path d="M 69.5 73.75625 
L 224.726562 73.75625 
Q 226.726562 73.75625 226.726562 71.75625 
L 226.726562 43 
Q 226.726562 41 224.726562 41 
L 69.5 41 
Q 67.5 41 67.5 43 
L 67.5 71.75625 
Q 67.5 73.75625 69.5 73.75625 
z
" style="fill:#ffffff;opacity:0.8;stroke:#cccccc;stroke-linejoin:miter;"/>
    </g>
    <g id="line2d_27">
     <path d="M 71.5 49 
L 91.5 49 
" style="fill:none;stroke:#000000;stroke-dasharray:1.5,2.475;stroke-dashoffset:0;stroke-opacity:0.5;stroke-width:1.5;"/>
    </g>
    <g id="line2d_28"/>
    <g id="text_15">
     <!-- Actual -->
     <g transform="translate(99.5 52.5)scale(0.1 -0.1)">
      <use xlink:href="#Roboto-Medium-65"/>
      <use x="66.552734" xlink:href="#Roboto-Medium-99"/>
      <use x="118.896484" xlink:href="#Roboto-Medium-116"/>
      <use x="152.148438" xlink:href="#Roboto-Medium-117"/>
      <use x="207.714844" xlink:href="#Roboto-Medium-97"/>
      <use x="261.816406" xlink:href="#Roboto-Medium-108"/>
     </g>
    </g>
    <g id="line2d_29">
     <path d="M 71.5 63.995313 
L 91.5 63.995313 
" style="fill:none;stroke:#b3220f;stroke-linecap:square;stroke-width:1.5;"/>
    </g>
    <g id="line2d_30"/>
    <g id="text_16">
     <!-- Promedio semanal (7 das)  -->
     <g transform="translate(99.5 67.495313)scale(0.1 -0.1)">
      <defs>
       <path d="M 19.578125 26.421875 
L 19.578125 0 
L 7.234375 0 
L 7.234375 71.09375 
L 34.421875 71.09375 
Q 46.34375 71.09375 53.34375 64.890625 
Q 60.359375 58.6875 60.359375 48.484375 
Q 60.359375 38.03125 53.484375 32.21875 
Q 46.625 26.421875 34.28125 26.421875 
z
M 19.578125 36.328125 
L 34.421875 36.328125 
Q 41.015625 36.328125 44.484375 39.421875 
Q 47.953125 42.53125 47.953125 48.390625 
Q 47.953125 54.15625 44.4375 57.59375 
Q 40.921875 61.03125 34.765625 61.140625 
L 19.578125 61.140625 
z
" id="Roboto-Medium-80"/>
       <path d="M 3.859375 26.90625 
Q 3.859375 34.671875 6.9375 40.890625 
Q 10.015625 47.125 15.578125 50.46875 
Q 21.140625 53.8125 28.375 53.8125 
Q 39.0625 53.8125 45.71875 46.921875 
Q 52.390625 40.046875 52.9375 28.65625 
L 52.984375 25.875 
Q 52.984375 18.0625 49.96875 11.90625 
Q 46.96875 5.765625 41.375 2.390625 
Q 35.796875 -0.984375 28.46875 -0.984375 
Q 17.28125 -0.984375 10.5625 6.46875 
Q 3.859375 13.921875 3.859375 26.3125 
z
M 15.71875 25.875 
Q 15.71875 17.71875 19.09375 13.109375 
Q 22.46875 8.5 28.46875 8.5 
Q 34.46875 8.5 37.8125 13.1875 
Q 41.15625 17.875 41.15625 26.90625 
Q 41.15625 34.90625 37.71875 39.59375 
Q 34.28125 44.28125 28.375 44.28125 
Q 22.5625 44.28125 19.140625 39.671875 
Q 15.71875 35.0625 15.71875 25.875 
z
" id="Roboto-Medium-111"/>
       <path d="M 17.234375 52.828125 
L 17.578125 47.3125 
Q 23.140625 53.8125 32.8125 53.8125 
Q 43.40625 53.8125 47.3125 45.703125 
Q 53.078125 53.8125 63.53125 53.8125 
Q 72.265625 53.8125 76.53125 48.96875 
Q 80.8125 44.140625 80.90625 34.71875 
L 80.90625 0 
L 69.046875 0 
L 69.046875 34.375 
Q 69.046875 39.40625 66.84375 41.75 
Q 64.65625 44.09375 59.578125 44.09375 
Q 55.515625 44.09375 52.953125 41.921875 
Q 50.390625 39.75 49.359375 36.234375 
L 49.421875 0 
L 37.546875 0 
L 37.546875 34.765625 
Q 37.3125 44.09375 28.03125 44.09375 
Q 20.90625 44.09375 17.921875 38.28125 
L 17.921875 0 
L 6.0625 0 
L 6.0625 52.828125 
z
" id="Roboto-Medium-109"/>
       <path d="M 29.34375 -0.984375 
Q 18.0625 -0.984375 11.046875 6.125 
Q 4.046875 13.234375 4.046875 25.046875 
L 4.046875 26.515625 
Q 4.046875 34.421875 7.09375 40.640625 
Q 10.15625 46.875 15.671875 50.34375 
Q 21.1875 53.8125 27.984375 53.8125 
Q 38.765625 53.8125 44.640625 46.921875 
Q 50.53125 40.046875 50.53125 27.4375 
L 50.53125 22.65625 
L 16.015625 22.65625 
Q 16.546875 16.109375 20.375 12.296875 
Q 24.21875 8.5 30.03125 8.5 
Q 38.1875 8.5 43.3125 15.09375 
L 49.703125 8.984375 
Q 46.53125 4.25 41.234375 1.625 
Q 35.9375 -0.984375 29.34375 -0.984375 
z
M 27.9375 44.28125 
Q 23.046875 44.28125 20.046875 40.859375 
Q 17.046875 37.453125 16.21875 31.34375 
L 38.8125 31.34375 
L 38.8125 32.234375 
Q 38.421875 38.1875 35.640625 41.234375 
Q 32.859375 44.28125 27.9375 44.28125 
z
" id="Roboto-Medium-101"/>
       <path d="M 3.859375 26.8125 
Q 3.859375 39.015625 9.515625 46.40625 
Q 15.1875 53.8125 24.703125 53.8125 
Q 33.109375 53.8125 38.28125 47.953125 
L 38.28125 75 
L 50.140625 75 
L 50.140625 0 
L 39.40625 0 
L 38.8125 5.46875 
Q 33.5 -0.984375 24.609375 -0.984375 
Q 15.328125 -0.984375 9.59375 6.484375 
Q 3.859375 13.96875 3.859375 26.8125 
z
M 15.71875 25.78125 
Q 15.71875 17.71875 18.8125 13.203125 
Q 21.921875 8.6875 27.640625 8.6875 
Q 34.90625 8.6875 38.28125 15.1875 
L 38.28125 37.75 
Q 35.015625 44.09375 27.734375 44.09375 
Q 21.96875 44.09375 18.84375 39.53125 
Q 15.71875 34.96875 15.71875 25.78125 
z
" id="Roboto-Medium-100"/>
       <path d="M 18.703125 0 
L 6.84375 0 
L 6.84375 52.828125 
L 18.703125 52.828125 
z
M 6.109375 66.546875 
Q 6.109375 69.28125 7.84375 71.09375 
Q 9.578125 72.90625 12.796875 72.90625 
Q 16.015625 72.90625 17.765625 71.09375 
Q 19.53125 69.28125 19.53125 66.546875 
Q 19.53125 63.875 17.765625 62.078125 
Q 16.015625 60.296875 12.796875 60.296875 
Q 9.578125 60.296875 7.84375 62.078125 
Q 6.109375 63.875 6.109375 66.546875 
z
" id="Roboto-Medium-105"/>
       <path id="Roboto-Medium-32"/>
       <path d="M 35.6875 14.359375 
Q 35.6875 17.53125 33.078125 19.1875 
Q 30.46875 20.84375 24.40625 22.109375 
Q 18.359375 23.390625 14.3125 25.34375 
Q 5.421875 29.640625 5.421875 37.796875 
Q 5.421875 44.625 11.171875 49.21875 
Q 16.9375 53.8125 25.828125 53.8125 
Q 35.296875 53.8125 41.125 49.125 
Q 46.96875 44.4375 46.96875 36.96875 
L 35.109375 36.96875 
Q 35.109375 40.375 32.5625 42.640625 
Q 30.03125 44.921875 25.828125 44.921875 
Q 21.921875 44.921875 19.453125 43.109375 
Q 17 41.3125 17 38.28125 
Q 17 35.546875 19.28125 34.03125 
Q 21.578125 32.515625 28.5625 30.96875 
Q 35.546875 29.4375 39.515625 27.3125 
Q 43.5 25.203125 45.421875 22.21875 
Q 47.359375 19.234375 47.359375 14.984375 
Q 47.359375 7.859375 41.453125 3.4375 
Q 35.546875 -0.984375 25.984375 -0.984375 
Q 19.484375 -0.984375 14.40625 1.359375 
Q 9.328125 3.71875 6.484375 7.8125 
Q 3.65625 11.921875 3.65625 16.65625 
L 15.1875 16.65625 
Q 15.4375 12.453125 18.359375 10.171875 
Q 21.296875 7.90625 26.125 7.90625 
Q 30.8125 7.90625 33.25 9.6875 
Q 35.6875 11.46875 35.6875 14.359375 
z
" id="Roboto-Medium-115"/>
       <path d="M 6.25 28.90625 
Q 6.25 40.1875 9.28125 50.3125 
Q 12.3125 60.453125 18.171875 68.4375 
Q 24.03125 76.421875 30.5625 79.640625 
L 32.90625 72.703125 
Q 26.03125 67.484375 21.75 56.765625 
Q 17.484375 46.046875 17.09375 32.234375 
L 17.046875 28.03125 
Q 17.046875 13.234375 21.21875 1.625 
Q 25.390625 -9.96875 32.90625 -16.015625 
L 30.5625 -22.609375 
Q 24.03125 -19.390625 18.140625 -11.359375 
Q 12.25 -3.328125 9.25 6.75 
Q 6.25 16.84375 6.25 28.90625 
z
" id="Roboto-Medium-40"/>
       <path d="M 52.640625 64.5 
L 24.21875 0 
L 11.765625 0 
L 40.140625 61.578125 
L 3.375 61.578125 
L 3.375 71.09375 
L 52.640625 71.09375 
z
" id="Roboto-Medium-55"/>
       <path d="M 18.84375 0 
L 6.984375 0 
L 6.984375 52.828125 
L 18.84375 52.828125 
z
M 16.609375 74.65625 
L 30.125 74.65625 
L 16.609375 59.859375 
L 7.078125 59.859375 
z
" id="Roboto-Medium-237"/>
       <path d="M 28.953125 28.125 
Q 28.953125 17.28125 25.96875 7.203125 
Q 23 -2.875 16.9375 -11.15625 
Q 10.890625 -19.4375 4.296875 -22.609375 
L 1.953125 -16.015625 
Q 9.28125 -10.359375 13.546875 1.28125 
Q 17.828125 12.9375 17.828125 27.875 
L 17.828125 29 
Q 17.828125 42.578125 14.109375 53.734375 
Q 10.40625 64.890625 3.46875 71.625 
L 1.953125 73 
L 4.296875 79.640625 
Q 10.546875 76.609375 16.40625 68.890625 
Q 22.265625 61.1875 25.390625 51.640625 
Q 28.515625 42.09375 28.90625 31.9375 
z
" id="Roboto-Medium-41"/>
      </defs>
      <use xlink:href="#Roboto-Medium-80"/>
      <use x="63.916016" xlink:href="#Roboto-Medium-114"/>
      <use x="99.072266" xlink:href="#Roboto-Medium-111"/>
      <use x="156.005859" xlink:href="#Roboto-Medium-109"/>
      <use x="243.017578" xlink:href="#Roboto-Medium-101"/>
      <use x="296.679688" xlink:href="#Roboto-Medium-100"/>
      <use x="353.125" xlink:href="#Roboto-Medium-105"/>
      <use x="378.662109" xlink:href="#Roboto-Medium-111"/>
      <use x="435.595703" xlink:href="#Roboto-Medium-32"/>
      <use x="460.498047" xlink:href="#Roboto-Medium-115"/>
      <use x="512.109375" xlink:href="#Roboto-Medium-101"/>
      <use x="565.771484" xlink:href="#Roboto-Medium-109"/>
      <use x="652.783203" xlink:href="#Roboto-Medium-97"/>
      <use x="706.884766" xlink:href="#Roboto-Medium-110"/>
      <use x="762.5" xlink:href="#Roboto-Medium-97"/>
      <use x="816.601562" xlink:href="#Roboto-Medium-108"/>
      <use x="842.138672" xlink:href="#Roboto-Medium-32"/>
      <use x="867.041016" xlink:href="#Roboto-Medium-40"/>
      <use x="901.904297" xlink:href="#Roboto-Medium-55"/>
      <use x="958.740234" xlink:href="#Roboto-Medium-32"/>
      <use x="983.642578" xlink:href="#Roboto-Medium-100"/>
      <use x="1040.087891" xlink:href="#Roboto-Medium-237"/>
      <use x="1066.357422" xlink:href="#Roboto-Medium-97"/>
      <use x="1120.458984" xlink:href="#Roboto-Medium-115"/>
      <use x="1172.070312" xlink:href="#Roboto-Medium-41"/>
      <use x="1207.324219" xlink:href="#Roboto-Medium-32"/>
     </g>
    </g>
   </g>
  </g>
 </g>
 <defs>
  <clipPath id="pd31009741e">
   <rect height="226.5" width="387.5" x="62.5" y="36"/>
  </clipPath>
 </defs>
</svg>
