<?xml version="1.0" encoding="utf-8" standalone="no"?>
<!DOCTYPE svg PUBLIC "-//W3C//DTD SVG 1.1//EN"
  "http://www.w3.org/Graphics/SVG/1.1/DTD/svg11.dtd">
<!-- Created with matplotlib (https://matplotlib.org/) -->
<svg height="300pt" version="1.1" viewBox="0 0 500 300" width="500pt" xmlns="http://www.w3.org/2000/svg" xmlns:xlink="http://www.w3.org/1999/xlink">
 <metadata>
  <rdf:RDF xmlns:cc="http://creativecommons.org/ns#" xmlns:dc="http://purl.org/dc/elements/1.1/" xmlns:rdf="http://www.w3.org/1999/02/22-rdf-syntax-ns#">
   <cc:Work>
    <dc:type rdf:resource="http://purl.org/dc/dcmitype/StillImage"/>
    <dc:date>2021-06-10T22:59:50.470892</dc:date>
    <dc:format>image/svg+xml</dc:format>
    <dc:creator>
     <cc:Agent>
      <dc:title>Matplotlib v3.3.4, https://matplotlib.org/</dc:title>
     </cc:Agent>
    </dc:creator>
   </cc:Work>
  </rdf:RDF>
 </metadata>
 <defs>
  <style type="text/css">*{stroke-linecap:butt;stroke-linejoin:round;}</style>
 </defs>
 <g id="figure_1">
  <g id="patch_1">
   <path d="M 0 300 
L 500 300 
L 500 0 
L 0 0 
z
" style="fill:#ffffff;"/>
  </g>
  <g id="axes_1">
   <g id="patch_2">
    <path d="M 62.5 262.5 
L 450 262.5 
L 450 27 
L 62.5 27 
z
" style="fill:#ffffff;"/>
   </g>
   <g id="matplotlib.axis_1">
    <g id="xtick_1">
     <g id="line2d_1">
      <defs>
       <path d="M 0 0 
L 0 3.5 
" id="m05ada76a2f" style="stroke:#555555;stroke-width:0.8;"/>
      </defs>
      <g>
       <use style="fill:#555555;stroke:#555555;stroke-width:0.8;" x="62.5" xlink:href="#m05ada76a2f" y="262.5"/>
      </g>
     </g>
    </g>
    <g id="xtick_2">
     <g id="line2d_2">
      <g>
       <use style="fill:#555555;stroke:#555555;stroke-width:0.8;" x="69.529478" xlink:href="#m05ada76a2f" y="262.5"/>
      </g>
     </g>
     <g id="text_1">
      <!-- Apr -->
      <g style="fill:#555555;" transform="translate(61.659947 276.640625)scale(0.1 -0.1)">
       <defs>
        <path d="M 20.09375 29.5 
L 32.203125 62.796875 
L 32.40625 62.796875 
L 44.296875 29.5 
z
M 27.203125 71.40625 
L -0.59375 0 
L 9.09375 0 
L 17.09375 21.5 
L 47.296875 21.5 
L 55.09375 0 
L 65.59375 0 
L 37.703125 71.40625 
z
" id="HelveticaNeue-65"/>
        <path d="M 6.703125 51.703125 
L 6.703125 -19.703125 
L 15.203125 -19.703125 
L 15.203125 6.90625 
L 15.40625 6.90625 
Q 16.796875 4.59375 18.84375 3.046875 
Q 20.90625 1.5 23.203125 0.59375 
Q 25.5 -0.296875 27.84375 -0.6875 
Q 30.203125 -1.09375 32.09375 -1.09375 
Q 38 -1.09375 42.453125 1 
Q 46.90625 3.09375 49.84375 6.75 
Q 52.796875 10.40625 54.25 15.296875 
Q 55.703125 20.203125 55.703125 25.703125 
Q 55.703125 31.203125 54.203125 36.09375 
Q 52.703125 41 49.75 44.75 
Q 46.796875 48.5 42.34375 50.703125 
Q 37.90625 52.90625 31.90625 52.90625 
Q 26.5 52.90625 22 50.953125 
Q 17.5 49 15.40625 44.703125 
L 15.203125 44.703125 
L 15.203125 51.703125 
z
M 46.703125 26.296875 
Q 46.703125 22.5 45.890625 18.890625 
Q 45.09375 15.296875 43.296875 12.5 
Q 41.5 9.703125 38.546875 8 
Q 35.59375 6.296875 31.203125 6.296875 
Q 26.796875 6.296875 23.6875 7.9375 
Q 20.59375 9.59375 18.640625 12.296875 
Q 16.703125 15 15.796875 18.546875 
Q 14.90625 22.09375 14.90625 25.90625 
Q 14.90625 29.5 15.75 33 
Q 16.59375 36.5 18.5 39.25 
Q 20.40625 42 23.40625 43.703125 
Q 26.40625 45.40625 30.703125 45.40625 
Q 34.796875 45.40625 37.84375 43.796875 
Q 40.90625 42.203125 42.84375 39.5 
Q 44.796875 36.796875 45.75 33.34375 
Q 46.703125 29.90625 46.703125 26.296875 
z
" id="HelveticaNeue-112"/>
        <path d="M 6.09375 51.703125 
L 6.09375 0 
L 14.59375 0 
L 14.59375 23 
Q 14.59375 28 15.59375 31.84375 
Q 16.59375 35.703125 18.796875 38.390625 
Q 21 41.09375 24.59375 42.5 
Q 28.203125 43.90625 33.296875 43.90625 
L 33.296875 52.90625 
Q 26.40625 53.09375 21.90625 50.09375 
Q 17.40625 47.09375 14.296875 40.796875 
L 14.09375 40.796875 
L 14.09375 51.703125 
z
" id="HelveticaNeue-114"/>
       </defs>
       <use xlink:href="#HelveticaNeue-65"/>
       <use x="64.799988" xlink:href="#HelveticaNeue-112"/>
       <use x="124.099976" xlink:href="#HelveticaNeue-114"/>
      </g>
     </g>
    </g>
    <g id="xtick_3">
     <g id="line2d_3">
      <g>
       <use style="fill:#555555;stroke:#555555;stroke-width:0.8;" x="149.489796" xlink:href="#m05ada76a2f" y="262.5"/>
      </g>
     </g>
     <g id="text_2">
      <!-- Jul -->
      <g style="fill:#555555;" transform="translate(143.00464 276.640625)scale(0.1 -0.1)">
       <defs>
        <path d="M 44.09375 17.796875 
L 44.09375 71.40625 
L 34.59375 71.40625 
L 34.59375 19.203125 
Q 34.59375 13.296875 32.140625 9.796875 
Q 29.703125 6.296875 23.203125 6.296875 
Q 19.703125 6.296875 17.453125 7.34375 
Q 15.203125 8.40625 13.953125 10.296875 
Q 12.703125 12.203125 12.203125 14.796875 
Q 11.703125 17.40625 11.703125 20.5 
L 11.703125 23.5 
L 2.203125 23.5 
L 2.203125 19.09375 
Q 2.203125 8.90625 7.59375 3.65625 
Q 13 -1.59375 23 -1.59375 
Q 29 -1.59375 33.046875 0.046875 
Q 37.09375 1.703125 39.546875 4.453125 
Q 42 7.203125 43.046875 10.703125 
Q 44.09375 14.203125 44.09375 17.796875 
z
" id="HelveticaNeue-74"/>
        <path d="M 49.203125 0 
L 49.203125 51.703125 
L 40.703125 51.703125 
L 40.703125 22.5 
Q 40.703125 19 39.75 16.046875 
Q 38.796875 13.09375 36.890625 10.890625 
Q 35 8.703125 32.140625 7.5 
Q 29.296875 6.296875 25.40625 6.296875 
Q 20.5 6.296875 17.703125 9.09375 
Q 14.90625 11.90625 14.90625 16.703125 
L 14.90625 51.703125 
L 6.40625 51.703125 
L 6.40625 17.703125 
Q 6.40625 13.5 7.25 10.046875 
Q 8.09375 6.59375 10.1875 4.09375 
Q 12.296875 1.59375 15.6875 0.25 
Q 19.09375 -1.09375 24.203125 -1.09375 
Q 29.90625 -1.09375 34.09375 1.15625 
Q 38.296875 3.40625 41 8.203125 
L 41.203125 8.203125 
L 41.203125 0 
z
" id="HelveticaNeue-117"/>
        <path d="M 6.90625 71.40625 
L 6.90625 0 
L 15.40625 0 
L 15.40625 71.40625 
z
" id="HelveticaNeue-108"/>
       </defs>
       <use xlink:href="#HelveticaNeue-74"/>
       <use x="51.899994" xlink:href="#HelveticaNeue-117"/>
       <use x="107.499985" xlink:href="#HelveticaNeue-108"/>
      </g>
     </g>
    </g>
    <g id="xtick_4">
     <g id="line2d_4">
      <g>
       <use style="fill:#555555;stroke:#555555;stroke-width:0.8;" x="230.328798" xlink:href="#m05ada76a2f" y="262.5"/>
      </g>
     </g>
     <g id="text_3">
      <!-- Oct -->
      <g style="fill:#555555;" transform="translate(222.268642 276.640625)scale(0.1 -0.1)">
       <defs>
        <path d="M 13.296875 35.703125 
Q 13.296875 41.09375 14.6875 46.34375 
Q 16.09375 51.59375 19.09375 55.796875 
Q 22.09375 60 26.796875 62.546875 
Q 31.5 65.09375 38 65.09375 
Q 44.5 65.09375 49.203125 62.546875 
Q 53.90625 60 56.90625 55.796875 
Q 59.90625 51.59375 61.296875 46.34375 
Q 62.703125 41.09375 62.703125 35.703125 
Q 62.703125 30.296875 61.296875 25.046875 
Q 59.90625 19.796875 56.90625 15.59375 
Q 53.90625 11.40625 49.203125 8.84375 
Q 44.5 6.296875 38 6.296875 
Q 31.5 6.296875 26.796875 8.84375 
Q 22.09375 11.40625 19.09375 15.59375 
Q 16.09375 19.796875 14.6875 25.046875 
Q 13.296875 30.296875 13.296875 35.703125 
z
M 3.796875 35.703125 
Q 3.796875 28.40625 5.9375 21.65625 
Q 8.09375 14.90625 12.390625 9.703125 
Q 16.703125 4.5 23.09375 1.453125 
Q 29.5 -1.59375 38 -1.59375 
Q 46.5 -1.59375 52.890625 1.453125 
Q 59.296875 4.5 63.59375 9.703125 
Q 67.90625 14.90625 70.046875 21.65625 
Q 72.203125 28.40625 72.203125 35.703125 
Q 72.203125 43 70.046875 49.75 
Q 67.90625 56.5 63.59375 61.703125 
Q 59.296875 66.90625 52.890625 70 
Q 46.5 73.09375 38 73.09375 
Q 29.5 73.09375 23.09375 70 
Q 16.703125 66.90625 12.390625 61.703125 
Q 8.09375 56.5 5.9375 49.75 
Q 3.796875 43 3.796875 35.703125 
z
" id="HelveticaNeue-79"/>
        <path d="M 41.5 35.09375 
L 50.296875 35.09375 
Q 49.796875 39.703125 47.890625 43.046875 
Q 46 46.40625 43.046875 48.59375 
Q 40.09375 50.796875 36.25 51.84375 
Q 32.40625 52.90625 28 52.90625 
Q 21.90625 52.90625 17.296875 50.75 
Q 12.703125 48.59375 9.640625 44.84375 
Q 6.59375 41.09375 5.09375 36.046875 
Q 3.59375 31 3.59375 25.203125 
Q 3.59375 19.40625 5.140625 14.546875 
Q 6.703125 9.703125 9.75 6.203125 
Q 12.796875 2.703125 17.34375 0.796875 
Q 21.90625 -1.09375 27.796875 -1.09375 
Q 37.703125 -1.09375 43.453125 4.09375 
Q 49.203125 9.296875 50.59375 18.90625 
L 41.90625 18.90625 
Q 41.09375 12.90625 37.546875 9.59375 
Q 34 6.296875 27.703125 6.296875 
Q 23.703125 6.296875 20.796875 7.890625 
Q 17.90625 9.5 16.09375 12.140625 
Q 14.296875 14.796875 13.4375 18.1875 
Q 12.59375 21.59375 12.59375 25.203125 
Q 12.59375 29.09375 13.390625 32.75 
Q 14.203125 36.40625 16.046875 39.203125 
Q 17.90625 42 21 43.703125 
Q 24.09375 45.40625 28.703125 45.40625 
Q 34.09375 45.40625 37.296875 42.703125 
Q 40.5 40 41.5 35.09375 
z
" id="HelveticaNeue-99"/>
        <path d="M 18.203125 51.703125 
L 18.203125 67.203125 
L 9.703125 67.203125 
L 9.703125 51.703125 
L 0.90625 51.703125 
L 0.90625 44.203125 
L 9.703125 44.203125 
L 9.703125 11.296875 
Q 9.703125 7.703125 10.390625 5.5 
Q 11.09375 3.296875 12.546875 2.09375 
Q 14 0.90625 16.34375 0.453125 
Q 18.703125 0 22 0 
L 28.5 0 
L 28.5 7.5 
L 24.59375 7.5 
Q 22.59375 7.5 21.34375 7.640625 
Q 20.09375 7.796875 19.390625 8.296875 
Q 18.703125 8.796875 18.453125 9.6875 
Q 18.203125 10.59375 18.203125 12.09375 
L 18.203125 44.203125 
L 28.5 44.203125 
L 28.5 51.703125 
z
" id="HelveticaNeue-116"/>
       </defs>
       <use xlink:href="#HelveticaNeue-79"/>
       <use x="75.999985" xlink:href="#HelveticaNeue-99"/>
       <use x="129.699982" xlink:href="#HelveticaNeue-116"/>
      </g>
     </g>
    </g>
    <g id="xtick_5">
     <g id="line2d_5">
      <g>
       <use style="fill:#555555;stroke:#555555;stroke-width:0.8;" x="311.1678" xlink:href="#m05ada76a2f" y="262.5"/>
      </g>
     </g>
     <g id="text_4">
      <!-- Jan -->
      <g style="fill:#555555;" transform="translate(303.107644 276.640625)scale(0.1 -0.1)">
       <defs>
        <path d="M 52.203125 0.203125 
Q 50 -1.09375 46.09375 -1.09375 
Q 42.796875 -1.09375 40.84375 0.75 
Q 38.90625 2.59375 38.90625 6.796875 
Q 35.40625 2.59375 30.75 0.75 
Q 26.09375 -1.09375 20.703125 -1.09375 
Q 17.203125 -1.09375 14.046875 -0.296875 
Q 10.90625 0.5 8.59375 2.203125 
Q 6.296875 3.90625 4.9375 6.65625 
Q 3.59375 9.40625 3.59375 13.296875 
Q 3.59375 17.703125 5.09375 20.5 
Q 6.59375 23.296875 9.046875 25.046875 
Q 11.5 26.796875 14.640625 27.6875 
Q 17.796875 28.59375 21.09375 29.203125 
Q 24.59375 29.90625 27.75 30.25 
Q 30.90625 30.59375 33.296875 31.25 
Q 35.703125 31.90625 37.09375 33.15625 
Q 38.5 34.40625 38.5 36.796875 
Q 38.5 39.59375 37.453125 41.296875 
Q 36.40625 43 34.75 43.890625 
Q 33.09375 44.796875 31.046875 45.09375 
Q 29 45.40625 27 45.40625 
Q 21.59375 45.40625 18 43.34375 
Q 14.40625 41.296875 14.09375 35.59375 
L 5.59375 35.59375 
Q 5.796875 40.40625 7.59375 43.703125 
Q 9.40625 47 12.40625 49.046875 
Q 15.40625 51.09375 19.25 52 
Q 23.09375 52.90625 27.5 52.90625 
Q 31 52.90625 34.453125 52.40625 
Q 37.90625 51.90625 40.703125 50.34375 
Q 43.5 48.796875 45.203125 46 
Q 46.90625 43.203125 46.90625 38.703125 
L 46.90625 12.09375 
Q 46.90625 9.09375 47.25 7.6875 
Q 47.59375 6.296875 49.59375 6.296875 
Q 50.703125 6.296875 52.203125 6.796875 
z
M 38.40625 26.703125 
Q 36.796875 25.5 34.1875 24.953125 
Q 31.59375 24.40625 28.75 24.046875 
Q 25.90625 23.703125 23 23.25 
Q 20.09375 22.796875 17.796875 21.796875 
Q 15.5 20.796875 14.046875 18.9375 
Q 12.59375 17.09375 12.59375 13.90625 
Q 12.59375 11.796875 13.4375 10.34375 
Q 14.296875 8.90625 15.640625 8 
Q 17 7.09375 18.796875 6.6875 
Q 20.59375 6.296875 22.59375 6.296875 
Q 26.796875 6.296875 29.796875 7.4375 
Q 32.796875 8.59375 34.6875 10.34375 
Q 36.59375 12.09375 37.5 14.140625 
Q 38.40625 16.203125 38.40625 18 
z
" id="HelveticaNeue-97"/>
        <path d="M 6.40625 51.703125 
L 6.40625 0 
L 14.90625 0 
L 14.90625 29.203125 
Q 14.90625 32.703125 15.84375 35.640625 
Q 16.796875 38.59375 18.6875 40.796875 
Q 20.59375 43 23.4375 44.203125 
Q 26.296875 45.40625 30.203125 45.40625 
Q 35.09375 45.40625 37.890625 42.59375 
Q 40.703125 39.796875 40.703125 35 
L 40.703125 0 
L 49.203125 0 
L 49.203125 34 
Q 49.203125 38.203125 48.34375 41.640625 
Q 47.5 45.09375 45.390625 47.59375 
Q 43.296875 50.09375 39.890625 51.5 
Q 36.5 52.90625 31.40625 52.90625 
Q 19.90625 52.90625 14.59375 43.5 
L 14.40625 43.5 
L 14.40625 51.703125 
z
" id="HelveticaNeue-110"/>
       </defs>
       <use xlink:href="#HelveticaNeue-74"/>
       <use x="51.899994" xlink:href="#HelveticaNeue-97"/>
       <use x="105.599991" xlink:href="#HelveticaNeue-110"/>
      </g>
      <!-- 2021 -->
      <g style="fill:#555555;" transform="translate(300.04905 287.179688)scale(0.1 -0.1)">
       <defs>
        <path d="M 4.40625 45.796875 
L 12.90625 45.796875 
Q 12.796875 49 13.546875 52.140625 
Q 14.296875 55.296875 16 57.796875 
Q 17.703125 60.296875 20.34375 61.84375 
Q 23 63.40625 26.703125 63.40625 
Q 29.5 63.40625 32 62.5 
Q 34.5 61.59375 36.34375 59.890625 
Q 38.203125 58.203125 39.296875 55.84375 
Q 40.40625 53.5 40.40625 50.59375 
Q 40.40625 46.90625 39.25 44.09375 
Q 38.09375 41.296875 35.84375 38.890625 
Q 33.59375 36.5 30.1875 34.140625 
Q 26.796875 31.796875 22.296875 29 
Q 18.59375 26.796875 15.1875 24.296875 
Q 11.796875 21.796875 9.09375 18.5 
Q 6.40625 15.203125 4.65625 10.75 
Q 2.90625 6.296875 2.40625 0 
L 48.703125 0 
L 48.703125 7.5 
L 12.296875 7.5 
Q 12.90625 10.796875 14.84375 13.34375 
Q 16.796875 15.90625 19.546875 18.09375 
Q 22.296875 20.296875 25.59375 22.25 
Q 28.90625 24.203125 32.203125 26.203125 
Q 35.5 28.296875 38.59375 30.59375 
Q 41.703125 32.90625 44.09375 35.75 
Q 46.5 38.59375 47.953125 42.1875 
Q 49.40625 45.796875 49.40625 50.5 
Q 49.40625 55.5 47.65625 59.296875 
Q 45.90625 63.09375 42.90625 65.640625 
Q 39.90625 68.203125 35.84375 69.546875 
Q 31.796875 70.90625 27.203125 70.90625 
Q 21.59375 70.90625 17.1875 69 
Q 12.796875 67.09375 9.84375 63.75 
Q 6.90625 60.40625 5.5 55.796875 
Q 4.09375 51.203125 4.40625 45.796875 
z
" id="HelveticaNeue-50"/>
        <path d="M 13.203125 34.90625 
Q 13.203125 37.5 13.25 40.640625 
Q 13.296875 43.796875 13.75 46.9375 
Q 14.203125 50.09375 15.046875 53.09375 
Q 15.90625 56.09375 17.546875 58.34375 
Q 19.203125 60.59375 21.703125 62 
Q 24.203125 63.40625 27.796875 63.40625 
Q 31.40625 63.40625 33.90625 62 
Q 36.40625 60.59375 38.046875 58.34375 
Q 39.703125 56.09375 40.546875 53.09375 
Q 41.40625 50.09375 41.84375 46.9375 
Q 42.296875 43.796875 42.34375 40.640625 
Q 42.40625 37.5 42.40625 34.90625 
Q 42.40625 30.90625 42.15625 25.953125 
Q 41.90625 21 40.546875 16.640625 
Q 39.203125 12.296875 36.203125 9.296875 
Q 33.203125 6.296875 27.796875 6.296875 
Q 22.40625 6.296875 19.40625 9.296875 
Q 16.40625 12.296875 15.046875 16.640625 
Q 13.703125 21 13.453125 25.953125 
Q 13.203125 30.90625 13.203125 34.90625 
z
M 4.203125 34.796875 
Q 4.203125 30.90625 4.390625 26.703125 
Q 4.59375 22.5 5.390625 18.5 
Q 6.203125 14.5 7.703125 10.953125 
Q 9.203125 7.40625 11.796875 4.703125 
Q 14.40625 2 18.34375 0.453125 
Q 22.296875 -1.09375 27.796875 -1.09375 
Q 33.40625 -1.09375 37.296875 0.453125 
Q 41.203125 2 43.796875 4.703125 
Q 46.40625 7.40625 47.90625 10.953125 
Q 49.40625 14.5 50.203125 18.5 
Q 51 22.5 51.203125 26.703125 
Q 51.40625 30.90625 51.40625 34.796875 
Q 51.40625 38.703125 51.203125 42.890625 
Q 51 47.09375 50.203125 51.09375 
Q 49.40625 55.09375 47.90625 58.6875 
Q 46.40625 62.296875 43.796875 65 
Q 41.203125 67.703125 37.25 69.296875 
Q 33.296875 70.90625 27.796875 70.90625 
Q 22.296875 70.90625 18.34375 69.296875 
Q 14.40625 67.703125 11.796875 65 
Q 9.203125 62.296875 7.703125 58.6875 
Q 6.203125 55.09375 5.390625 51.09375 
Q 4.59375 47.09375 4.390625 42.890625 
Q 4.203125 38.703125 4.203125 34.796875 
z
" id="HelveticaNeue-48"/>
        <path d="M 35.59375 0 
L 35.59375 70.90625 
L 29.09375 70.90625 
Q 28.40625 66.90625 26.5 64.296875 
Q 24.59375 61.703125 21.84375 60.203125 
Q 19.09375 58.703125 15.6875 58.140625 
Q 12.296875 57.59375 8.703125 57.59375 
L 8.703125 50.796875 
L 27.09375 50.796875 
L 27.09375 0 
z
" id="HelveticaNeue-49"/>
       </defs>
       <use xlink:href="#HelveticaNeue-50"/>
       <use x="55.599991" xlink:href="#HelveticaNeue-48"/>
       <use x="111.199982" xlink:href="#HelveticaNeue-50"/>
       <use x="166.799973" xlink:href="#HelveticaNeue-49"/>
      </g>
     </g>
    </g>
    <g id="xtick_6">
     <g id="line2d_6">
      <g>
       <use style="fill:#555555;stroke:#555555;stroke-width:0.8;" x="390.249433" xlink:href="#m05ada76a2f" y="262.5"/>
      </g>
     </g>
     <g id="text_5">
      <!-- Apr -->
      <g style="fill:#555555;" transform="translate(382.379902 276.640625)scale(0.1 -0.1)">
       <use xlink:href="#HelveticaNeue-65"/>
       <use x="64.799988" xlink:href="#HelveticaNeue-112"/>
       <use x="124.099976" xlink:href="#HelveticaNeue-114"/>
      </g>
     </g>
    </g>
    <g id="xtick_7">
     <g id="line2d_7">
      <g>
       <use style="fill:#555555;stroke:#555555;stroke-width:0.8;" x="450" xlink:href="#m05ada76a2f" y="262.5"/>
      </g>
     </g>
    </g>
    <g id="xtick_8">
     <g id="line2d_8">
      <defs>
       <path d="M 0 0 
L 0 2 
" id="m2ff4200cf1" style="stroke:#555555;stroke-width:0.6;"/>
      </defs>
      <g>
       <use style="fill:#555555;stroke:#555555;stroke-width:0.6;" x="95.890023" xlink:href="#m2ff4200cf1" y="262.5"/>
      </g>
     </g>
    </g>
    <g id="xtick_9">
     <g id="line2d_9">
      <g>
       <use style="fill:#555555;stroke:#555555;stroke-width:0.6;" x="123.129252" xlink:href="#m2ff4200cf1" y="262.5"/>
      </g>
     </g>
    </g>
    <g id="xtick_10">
     <g id="line2d_10">
      <g>
       <use style="fill:#555555;stroke:#555555;stroke-width:0.6;" x="176.729025" xlink:href="#m2ff4200cf1" y="262.5"/>
      </g>
     </g>
    </g>
    <g id="xtick_11">
     <g id="line2d_11">
      <g>
       <use style="fill:#555555;stroke:#555555;stroke-width:0.6;" x="203.968254" xlink:href="#m2ff4200cf1" y="262.5"/>
      </g>
     </g>
    </g>
    <g id="xtick_12">
     <g id="line2d_12">
      <g>
       <use style="fill:#555555;stroke:#555555;stroke-width:0.6;" x="257.568027" xlink:href="#m2ff4200cf1" y="262.5"/>
      </g>
     </g>
    </g>
    <g id="xtick_13">
     <g id="line2d_13">
      <g>
       <use style="fill:#555555;stroke:#555555;stroke-width:0.6;" x="283.928571" xlink:href="#m2ff4200cf1" y="262.5"/>
      </g>
     </g>
    </g>
    <g id="xtick_14">
     <g id="line2d_14">
      <g>
       <use style="fill:#555555;stroke:#555555;stroke-width:0.6;" x="338.407029" xlink:href="#m2ff4200cf1" y="262.5"/>
      </g>
     </g>
    </g>
    <g id="xtick_15">
     <g id="line2d_15">
      <g>
       <use style="fill:#555555;stroke:#555555;stroke-width:0.6;" x="363.010204" xlink:href="#m2ff4200cf1" y="262.5"/>
      </g>
     </g>
    </g>
    <g id="xtick_16">
     <g id="line2d_16">
      <g>
       <use style="fill:#555555;stroke:#555555;stroke-width:0.6;" x="416.609977" xlink:href="#m2ff4200cf1" y="262.5"/>
      </g>
     </g>
    </g>
    <g id="xtick_17">
     <g id="line2d_17">
      <g>
       <use style="fill:#555555;stroke:#555555;stroke-width:0.6;" x="443.849206" xlink:href="#m2ff4200cf1" y="262.5"/>
      </g>
     </g>
    </g>
    <g id="text_6">
     <!-- fecha -->
     <g style="fill:#555555;" transform="translate(243.935156 300.290625)scale(0.1 -0.1)">
      <defs>
       <path d="M 9.90625 44.203125 
L 9.90625 0 
L 18.40625 0 
L 18.40625 44.203125 
L 28.40625 44.203125 
L 28.40625 51.703125 
L 18.40625 51.703125 
L 18.40625 58.90625 
Q 18.40625 62.296875 20.09375 63.5 
Q 21.796875 64.703125 24.90625 64.703125 
Q 26 64.703125 27.296875 64.546875 
Q 28.59375 64.40625 29.703125 64 
L 29.703125 71.40625 
Q 28.5 71.796875 26.953125 72 
Q 25.40625 72.203125 24.203125 72.203125 
Q 17.203125 72.203125 13.546875 68.953125 
Q 9.90625 65.703125 9.90625 59.40625 
L 9.90625 51.703125 
L 1.203125 51.703125 
L 1.203125 44.203125 
z
" id="HelveticaNeue-102"/>
       <path d="M 42.296875 30.796875 
L 12.59375 30.796875 
Q 12.796875 33.796875 13.890625 36.4375 
Q 15 39.09375 16.890625 41.09375 
Q 18.796875 43.09375 21.4375 44.25 
Q 24.09375 45.40625 27.40625 45.40625 
Q 30.59375 45.40625 33.25 44.25 
Q 35.90625 43.09375 37.84375 41.140625 
Q 39.796875 39.203125 40.9375 36.5 
Q 42.09375 33.796875 42.296875 30.796875 
z
M 50.5 16.40625 
L 42.09375 16.40625 
Q 41 11.296875 37.546875 8.796875 
Q 34.09375 6.296875 28.703125 6.296875 
Q 24.5 6.296875 21.390625 7.6875 
Q 18.296875 9.09375 16.296875 11.4375 
Q 14.296875 13.796875 13.390625 16.84375 
Q 12.5 19.90625 12.59375 23.296875 
L 51.296875 23.296875 
Q 51.5 28 50.453125 33.203125 
Q 49.40625 38.40625 46.65625 42.796875 
Q 43.90625 47.203125 39.34375 50.046875 
Q 34.796875 52.90625 27.90625 52.90625 
Q 22.59375 52.90625 18.140625 50.90625 
Q 13.703125 48.90625 10.453125 45.296875 
Q 7.203125 41.703125 5.390625 36.796875 
Q 3.59375 31.90625 3.59375 26 
Q 3.796875 20.09375 5.34375 15.09375 
Q 6.90625 10.09375 10 6.5 
Q 13.09375 2.90625 17.640625 0.90625 
Q 22.203125 -1.09375 28.40625 -1.09375 
Q 37.203125 -1.09375 43 3.296875 
Q 48.796875 7.703125 50.5 16.40625 
z
" id="HelveticaNeue-101"/>
       <path d="M 6.40625 71.40625 
L 6.40625 0 
L 14.90625 0 
L 14.90625 29.203125 
Q 14.90625 32.703125 15.84375 35.640625 
Q 16.796875 38.59375 18.6875 40.796875 
Q 20.59375 43 23.4375 44.203125 
Q 26.296875 45.40625 30.203125 45.40625 
Q 35.09375 45.40625 37.890625 42.59375 
Q 40.703125 39.796875 40.703125 35 
L 40.703125 0 
L 49.203125 0 
L 49.203125 34 
Q 49.203125 38.203125 48.34375 41.640625 
Q 47.5 45.09375 45.390625 47.59375 
Q 43.296875 50.09375 39.890625 51.5 
Q 36.5 52.90625 31.40625 52.90625 
Q 29.09375 52.90625 26.640625 52.40625 
Q 24.203125 51.90625 21.953125 50.84375 
Q 19.703125 49.796875 17.890625 48.140625 
Q 16.09375 46.5 15.09375 44.09375 
L 14.90625 44.09375 
L 14.90625 71.40625 
z
" id="HelveticaNeue-104"/>
      </defs>
      <use xlink:href="#HelveticaNeue-102"/>
      <use x="29.599991" xlink:href="#HelveticaNeue-101"/>
      <use x="83.299988" xlink:href="#HelveticaNeue-99"/>
      <use x="136.999985" xlink:href="#HelveticaNeue-104"/>
      <use x="192.599976" xlink:href="#HelveticaNeue-97"/>
     </g>
    </g>
   </g>
   <g id="matplotlib.axis_2">
    <g id="ytick_1">
     <g id="line2d_18">
      <defs>
       <path d="M 0 0 
L -3.5 0 
" id="md5af07e714" style="stroke:#555555;stroke-width:0.8;"/>
      </defs>
      <g>
       <use style="fill:#555555;stroke:#555555;stroke-width:0.8;" x="62.5" xlink:href="#md5af07e714" y="251.795455"/>
      </g>
     </g>
     <g id="text_7">
      <!-- 0 -->
      <g style="fill:#555555;" transform="translate(49.940625 255.365767)scale(0.1 -0.1)">
       <use xlink:href="#HelveticaNeue-48"/>
      </g>
     </g>
    </g>
    <g id="ytick_2">
     <g id="line2d_19">
      <g>
       <use style="fill:#555555;stroke:#555555;stroke-width:0.8;" x="62.5" xlink:href="#md5af07e714" y="213.970206"/>
      </g>
     </g>
     <g id="text_8">
      <!-- 50 -->
      <g style="fill:#555555;" transform="translate(44.38125 217.540518)scale(0.1 -0.1)">
       <defs>
        <path d="M 47 62.203125 
L 47 69.703125 
L 12 69.703125 
L 5.40625 32.90625 
L 12.703125 32.5 
Q 15.203125 35.5 18.453125 37.34375 
Q 21.703125 39.203125 25.90625 39.203125 
Q 29.5 39.203125 32.453125 38 
Q 35.40625 36.796875 37.5 34.640625 
Q 39.59375 32.5 40.75 29.546875 
Q 41.90625 26.59375 41.90625 23.09375 
Q 41.90625 18.90625 40.703125 15.75 
Q 39.5 12.59375 37.453125 10.5 
Q 35.40625 8.40625 32.65625 7.34375 
Q 29.90625 6.296875 26.90625 6.296875 
Q 23.703125 6.296875 21.046875 7.25 
Q 18.40625 8.203125 16.453125 9.953125 
Q 14.5 11.703125 13.34375 14.046875 
Q 12.203125 16.40625 12 19.09375 
L 3.5 19.09375 
Q 3.59375 14.296875 5.390625 10.5 
Q 7.203125 6.703125 10.296875 4.140625 
Q 13.40625 1.59375 17.453125 0.25 
Q 21.5 -1.09375 26.09375 -1.09375 
Q 32.296875 -1.09375 36.9375 0.84375 
Q 41.59375 2.796875 44.6875 6.09375 
Q 47.796875 9.40625 49.34375 13.65625 
Q 50.90625 17.90625 50.90625 22.40625 
Q 50.90625 28.5 49.09375 33.046875 
Q 47.296875 37.59375 44.1875 40.640625 
Q 41.09375 43.703125 36.890625 45.203125 
Q 32.703125 46.703125 28 46.703125 
Q 24.40625 46.703125 20.75 45.453125 
Q 17.09375 44.203125 14.796875 41.59375 
L 14.59375 41.796875 
L 18.40625 62.203125 
z
" id="HelveticaNeue-53"/>
       </defs>
       <use xlink:href="#HelveticaNeue-53"/>
       <use x="55.599991" xlink:href="#HelveticaNeue-48"/>
      </g>
     </g>
    </g>
    <g id="ytick_3">
     <g id="line2d_20">
      <g>
       <use style="fill:#555555;stroke:#555555;stroke-width:0.8;" x="62.5" xlink:href="#md5af07e714" y="176.144957"/>
      </g>
     </g>
     <g id="text_9">
      <!-- 100 -->
      <g style="fill:#555555;" transform="translate(38.821875 179.715269)scale(0.1 -0.1)">
       <use xlink:href="#HelveticaNeue-49"/>
       <use x="55.599991" xlink:href="#HelveticaNeue-48"/>
       <use x="111.199982" xlink:href="#HelveticaNeue-48"/>
      </g>
     </g>
    </g>
    <g id="ytick_4">
     <g id="line2d_21">
      <g>
       <use style="fill:#555555;stroke:#555555;stroke-width:0.8;" x="62.5" xlink:href="#md5af07e714" y="138.319708"/>
      </g>
     </g>
     <g id="text_10">
      <!-- 150 -->
      <g style="fill:#555555;" transform="translate(38.821875 141.89002)scale(0.1 -0.1)">
       <use xlink:href="#HelveticaNeue-49"/>
       <use x="55.599991" xlink:href="#HelveticaNeue-53"/>
       <use x="111.199982" xlink:href="#HelveticaNeue-48"/>
      </g>
     </g>
    </g>
    <g id="ytick_5">
     <g id="line2d_22">
      <g>
       <use style="fill:#555555;stroke:#555555;stroke-width:0.8;" x="62.5" xlink:href="#md5af07e714" y="100.494459"/>
      </g>
     </g>
     <g id="text_11">
      <!-- 200 -->
      <g style="fill:#555555;" transform="translate(38.821875 104.064771)scale(0.1 -0.1)">
       <use xlink:href="#HelveticaNeue-50"/>
       <use x="55.599991" xlink:href="#HelveticaNeue-48"/>
       <use x="111.199982" xlink:href="#HelveticaNeue-48"/>
      </g>
     </g>
    </g>
    <g id="ytick_6">
     <g id="line2d_23">
      <g>
       <use style="fill:#555555;stroke:#555555;stroke-width:0.8;" x="62.5" xlink:href="#md5af07e714" y="62.66921"/>
      </g>
     </g>
     <g id="text_12">
      <!-- 250 -->
      <g style="fill:#555555;" transform="translate(38.821875 66.239522)scale(0.1 -0.1)">
       <use xlink:href="#HelveticaNeue-50"/>
       <use x="55.599991" xlink:href="#HelveticaNeue-53"/>
       <use x="111.199982" xlink:href="#HelveticaNeue-48"/>
      </g>
     </g>
    </g>
   </g>
   <g id="line2d_24">
    <path clip-path="url(#p089bc6ef72)" d="M 63.378685 251.795455 
L 64.25737 249.52594 
L 65.136054 251.795455 
L 66.014739 248.01293 
L 66.893424 251.03895 
L 67.772109 249.52594 
L 69.529478 251.03895 
L 70.408163 247.256425 
L 71.286848 245.743415 
L 72.165533 250.282445 
L 73.044218 251.03895 
L 73.922902 246.49992 
L 74.801587 251.795455 
L 75.680272 248.769435 
L 76.558957 248.769435 
L 77.437642 251.03895 
L 78.316327 251.795455 
L 79.195011 250.282445 
L 80.073696 246.49992 
L 80.952381 250.282445 
L 81.831066 251.03895 
L 82.709751 249.52594 
L 83.588435 250.282445 
L 84.46712 250.282445 
L 85.345805 247.256425 
L 86.22449 251.03895 
L 87.103175 248.01293 
L 87.981859 249.52594 
L 88.860544 250.282445 
L 89.739229 250.282445 
L 90.617914 249.52594 
L 91.496599 249.52594 
L 92.375283 250.282445 
L 93.253968 249.52594 
L 94.132653 251.03895 
L 95.011338 250.282445 
L 95.890023 250.282445 
L 97.647392 251.795455 
L 98.526077 251.795455 
L 99.404762 251.03895 
L 100.283447 251.795455 
L 101.162132 248.01293 
L 102.040816 251.795455 
L 103.798186 245.743415 
L 104.676871 249.52594 
L 105.555556 250.282445 
L 106.43424 251.795455 
L 107.312925 250.282445 
L 108.19161 251.03895 
L 109.070295 251.03895 
L 110.827664 249.52594 
L 111.706349 248.01293 
L 112.585034 248.01293 
L 113.463719 247.256425 
L 114.342404 245.743415 
L 115.221088 248.769435 
L 116.099773 250.282445 
L 116.978458 247.256425 
L 117.857143 246.49992 
L 118.735828 246.49992 
L 119.614512 249.52594 
L 120.493197 248.01293 
L 121.371882 245.743415 
L 122.250567 245.743415 
L 123.129252 248.01293 
L 124.007937 247.256425 
L 124.886621 249.52594 
L 125.765306 244.230405 
L 126.643991 250.282445 
L 127.522676 248.769435 
L 128.401361 245.743415 
L 129.280045 246.49992 
L 130.15873 248.01293 
L 131.9161 249.52594 
L 132.794785 244.230405 
L 133.673469 248.01293 
L 134.552154 248.01293 
L 135.430839 243.4739 
L 136.309524 244.230405 
L 137.188209 241.96089 
L 138.066893 241.204385 
L 138.945578 238.178365 
L 139.824263 238.93487 
L 140.702948 241.96089 
L 142.460317 241.96089 
L 143.339002 229.100305 
L 144.217687 241.204385 
L 145.096372 241.204385 
L 146.853741 224.561275 
L 147.732426 244.230405 
L 148.611111 231.36982 
L 149.489796 232.88283 
L 150.368481 226.074285 
L 151.247166 233.639335 
L 152.12585 231.36982 
L 153.004535 235.152345 
L 153.88322 217.75273 
L 154.761905 228.3438 
L 155.64059 229.85681 
L 156.519274 229.85681 
L 157.397959 222.29176 
L 158.276644 219.26574 
L 159.155329 237.42186 
L 160.034014 207.918166 
L 160.912698 233.639335 
L 161.791383 228.3438 
L 162.670068 215.483216 
L 163.548753 218.509235 
L 164.427438 202.622631 
L 165.306122 205.648651 
L 166.184807 223.80477 
L 167.063492 210.944186 
L 167.942177 191.275056 
L 168.820862 212.457196 
L 169.699546 182.953501 
L 170.578231 195.814086 
L 171.456916 232.88283 
L 172.335601 182.953501 
L 173.214286 167.066897 
L 174.092971 199.596611 
L 174.971655 195.814086 
L 175.85034 189.762046 
L 176.729025 206.405156 
L 177.60771 226.83079 
L 178.486395 204.892146 
L 179.365079 159.501847 
L 180.243764 182.196996 
L 181.122449 217.75273 
L 182.001134 201.866126 
L 182.879819 193.544571 
L 183.758503 198.083601 
L 184.637188 163.284372 
L 185.515873 179.927482 
L 186.394558 184.466511 
L 187.273243 209.431176 
L 188.151927 208.674671 
L 189.030612 184.466511 
L 189.909297 219.26574 
L 190.787982 191.275056 
L 191.666667 191.275056 
L 192.545351 213.970206 
L 193.424036 207.161661 
L 194.302721 195.057581 
L 195.181406 222.29176 
L 196.060091 198.083601 
L 196.938776 211.700691 
L 197.81746 211.700691 
L 198.696145 226.074285 
L 199.57483 223.048265 
L 200.453515 216.996226 
L 201.3322 234.39584 
L 202.210884 217.75273 
L 203.968254 213.213701 
L 204.846939 230.613315 
L 205.725624 214.726711 
L 206.604308 229.100305 
L 207.482993 215.483216 
L 208.361678 240.44788 
L 209.240363 217.75273 
L 210.119048 231.36982 
L 210.997732 236.665355 
L 211.876417 217.75273 
L 212.755102 223.048265 
L 214.512472 241.96089 
L 215.391156 232.126325 
L 216.269841 228.3438 
L 217.148526 225.31778 
L 218.027211 226.074285 
L 218.905896 215.483216 
L 220.663265 230.613315 
L 221.54195 225.31778 
L 222.420635 229.85681 
L 223.29932 232.126325 
L 224.178005 222.29176 
L 225.056689 226.83079 
L 225.935374 224.561275 
L 226.814059 237.42186 
L 227.692744 223.048265 
L 228.571429 227.587295 
L 229.450113 221.535255 
L 230.328798 223.80477 
L 231.207483 227.587295 
L 232.086168 183.710006 
L 232.964853 223.048265 
L 233.843537 210.944186 
L 234.722222 220.77875 
L 235.600907 220.77875 
L 236.479592 207.918166 
L 237.358277 227.587295 
L 238.236961 220.77875 
L 239.115646 226.83079 
L 239.994331 239.691375 
L 240.873016 238.178365 
L 241.751701 230.613315 
L 242.630385 214.726711 
L 243.50907 223.048265 
L 244.387755 219.26574 
L 245.26644 229.100305 
L 246.145125 220.77875 
L 247.02381 192.788066 
L 247.902494 218.509235 
L 248.781179 218.509235 
L 249.659864 211.700691 
L 250.538549 224.561275 
L 251.417234 220.022245 
L 252.295918 217.75273 
L 253.174603 201.109621 
L 254.053288 213.213701 
L 254.931973 191.275056 
L 255.810658 192.031561 
L 257.568027 202.622631 
L 259.325397 208.674671 
L 260.204082 217.75273 
L 261.082766 213.213701 
L 261.961451 216.996226 
L 262.840136 207.918166 
L 263.718821 203.379136 
L 264.597506 207.918166 
L 265.47619 205.648651 
L 266.354875 204.135641 
L 267.23356 207.918166 
L 268.112245 226.074285 
L 268.99093 222.29176 
L 269.869615 235.152345 
L 270.748299 218.509235 
L 271.626984 209.431176 
L 272.505669 225.31778 
L 273.384354 203.379136 
L 274.263039 207.161661 
L 275.141723 165.553887 
L 276.020408 216.239721 
L 276.899093 215.483216 
L 277.777778 207.161661 
L 278.656463 184.466511 
L 279.535147 189.005541 
L 280.413832 195.057581 
L 281.292517 209.431176 
L 282.171202 186.736026 
L 283.049887 202.622631 
L 283.928571 205.648651 
L 284.807256 206.405156 
L 285.685941 201.866126 
L 286.564626 182.953501 
L 287.443311 189.005541 
L 288.321995 221.535255 
L 289.20068 199.596611 
L 290.079365 198.840106 
L 290.95805 189.762046 
L 292.71542 169.336412 
L 293.594104 187.492531 
L 294.472789 199.596611 
L 295.351474 192.031561 
L 296.230159 182.196996 
L 297.108844 141.345728 
L 297.987528 186.736026 
L 298.866213 163.284372 
L 299.744898 192.788066 
L 300.623583 184.466511 
L 301.502268 158.745342 
L 302.380952 161.771362 
L 303.259637 162.527867 
L 304.138322 148.910777 
L 305.017007 216.239721 
L 305.895692 145.884757 
L 306.774376 165.553887 
L 307.653061 142.102233 
L 309.410431 91.416399 
L 310.289116 200.353116 
L 311.1678 213.213701 
L 312.046485 190.518551 
L 312.92517 126.215628 
L 313.803855 173.875442 
L 314.68254 63.425715 
L 315.561224 133.780678 
L 316.439909 106.546499 
L 317.318594 147.397767 
L 318.197279 161.771362 
L 319.075964 185.223016 
L 319.954649 191.275056 
L 320.833333 120.920093 
L 321.712018 147.397767 
L 322.590703 162.527867 
L 323.469388 151.180292 
L 324.348073 167.066897 
L 325.226757 154.206312 
L 326.105442 149.667282 
L 326.984127 139.076213 
L 327.862812 169.336412 
L 328.741497 164.040877 
L 329.620181 164.040877 
L 330.498866 173.118937 
L 331.377551 197.327096 
L 332.256236 180.683987 
L 333.134921 194.301076 
L 334.013605 179.170977 
L 335.770975 216.996226 
L 336.64966 205.648651 
L 337.528345 204.892146 
L 338.407029 182.953501 
L 339.285714 196.570591 
L 340.164399 223.80477 
L 341.043084 211.700691 
L 341.921769 218.509235 
L 342.800454 230.613315 
L 343.679138 234.39584 
L 345.436508 216.996226 
L 346.315193 226.83079 
L 347.193878 232.126325 
L 348.072562 231.36982 
L 348.951247 228.3438 
L 349.829932 234.39584 
L 350.708617 231.36982 
L 351.587302 232.126325 
L 352.465986 231.36982 
L 353.344671 235.152345 
L 354.223356 238.178365 
L 355.102041 229.85681 
L 355.980726 241.204385 
L 356.85941 234.39584 
L 357.738095 232.88283 
L 358.61678 230.613315 
L 359.495465 238.178365 
L 360.37415 242.717395 
L 361.252834 238.93487 
L 362.131519 230.613315 
L 363.010204 234.39584 
L 363.888889 238.93487 
L 364.767574 228.3438 
L 365.646259 232.88283 
L 366.524943 229.85681 
L 367.403628 235.152345 
L 368.282313 239.691375 
L 369.160998 242.717395 
L 370.039683 240.44788 
L 370.918367 232.88283 
L 371.797052 234.39584 
L 372.675737 239.691375 
L 373.554422 241.96089 
L 374.433107 239.691375 
L 375.311791 234.39584 
L 376.190476 226.83079 
L 377.069161 226.074285 
L 377.947846 238.178365 
L 378.826531 224.561275 
L 379.705215 234.39584 
L 380.5839 222.29176 
L 381.462585 241.204385 
L 382.34127 226.83079 
L 383.219955 223.80477 
L 384.098639 219.26574 
L 384.977324 216.239721 
L 385.856009 196.570591 
L 386.734694 230.613315 
L 387.613379 228.3438 
L 388.492063 213.213701 
L 389.370748 202.622631 
L 390.249433 217.75273 
L 391.128118 207.918166 
L 392.006803 220.022245 
L 392.885488 226.074285 
L 393.764172 210.944186 
L 394.642857 182.196996 
L 395.521542 185.979521 
L 396.400227 167.823402 
L 397.278912 179.927482 
L 398.157596 181.440491 
L 399.036281 198.840106 
L 399.914966 145.128252 
L 400.793651 167.066897 
L 401.672336 158.745342 
L 402.55102 134.537183 
L 403.429705 152.693302 
L 404.30839 191.275056 
L 405.187075 195.814086 
L 406.06576 162.527867 
L 406.944444 137.563203 
L 407.823129 176.144957 
L 408.701814 158.745342 
L 409.580499 154.962817 
L 410.459184 192.031561 
L 411.337868 179.170977 
L 412.216553 158.745342 
L 413.095238 148.910777 
L 413.973923 184.466511 
L 414.852608 173.875442 
L 415.731293 171.605927 
L 416.609977 180.683987 
L 417.488662 187.492531 
L 418.367347 157.988837 
L 419.246032 143.615243 
L 420.124717 179.170977 
L 421.003401 156.475827 
L 421.882086 173.118937 
L 422.760771 173.118937 
L 423.639456 170.092917 
L 424.518141 166.310392 
L 425.396825 164.797382 
L 426.27551 176.144957 
L 427.154195 199.596611 
L 428.03288 186.736026 
L 428.911565 182.953501 
L 429.790249 199.596611 
L 430.668934 170.092917 
L 431.547619 135.293688 
L 432.426304 162.527867 
L 433.304989 158.745342 
L 434.183673 127.728638 
L 435.062358 156.475827 
L 435.941043 143.615243 
L 436.819728 120.163588 
L 437.698413 112.598538 
L 438.577098 157.988837 
L 439.455782 142.858738 
L 440.334467 121.676598 
L 441.213152 122.433103 
L 442.091837 121.676598 
L 442.970522 142.858738 
L 443.849206 121.676598 
L 444.727891 96.711934 
L 445.606576 37.704545 
L 446.485261 97.468439 
L 447.363946 120.920093 
L 448.24263 74.773289 
L 449.121315 148.154272 
L 450 241.204385 
L 450 241.204385 
" style="fill:none;stroke:#000000;stroke-dasharray:1.5,2.475;stroke-dashoffset:0;stroke-opacity:0.5;stroke-width:1.5;"/>
   </g>
   <g id="line2d_25">
    <path clip-path="url(#p089bc6ef72)" d="M 62.5 251.03895 
L 63.378685 250.282445 
L 66.893424 250.282445 
L 67.772109 249.52594 
L 69.529478 249.52594 
L 70.408163 248.769435 
L 73.922902 248.769435 
L 74.801587 249.52594 
L 75.680272 249.52594 
L 76.558957 250.282445 
L 77.437642 250.282445 
L 78.316327 249.52594 
L 79.195011 250.282445 
L 80.073696 250.282445 
L 80.952381 249.52594 
L 82.709751 249.52594 
L 83.588435 250.282445 
L 84.46712 249.52594 
L 90.617914 249.52594 
L 91.496599 250.282445 
L 95.011338 250.282445 
L 95.890023 251.03895 
L 100.283447 251.03895 
L 102.040816 249.52594 
L 105.555556 249.52594 
L 107.312925 251.03895 
L 108.19161 251.03895 
L 109.94898 249.52594 
L 110.827664 249.52594 
L 112.585034 248.01293 
L 118.735828 248.01293 
L 119.614512 247.256425 
L 124.007937 247.256425 
L 124.886621 248.01293 
L 125.765306 248.01293 
L 126.643991 247.256425 
L 128.401361 247.256425 
L 129.280045 248.01293 
L 130.15873 247.256425 
L 132.794785 247.256425 
L 135.430839 244.98691 
L 137.188209 241.96089 
L 138.066893 241.204385 
L 138.945578 241.204385 
L 141.581633 238.93487 
L 142.460317 239.691375 
L 144.217687 236.665355 
L 145.975057 235.152345 
L 146.853741 235.152345 
L 148.611111 232.126325 
L 149.489796 232.126325 
L 150.368481 232.88283 
L 151.247166 229.85681 
L 152.12585 229.85681 
L 153.004535 229.100305 
L 153.88322 229.100305 
L 155.64059 226.074285 
L 156.519274 226.074285 
L 157.397959 225.31778 
L 159.155329 225.31778 
L 160.034014 223.80477 
L 160.912698 223.048265 
L 161.791383 220.77875 
L 162.670068 216.996226 
L 163.548753 216.996226 
L 164.427438 213.970206 
L 165.306122 210.187681 
L 166.184807 209.431176 
L 167.063492 205.648651 
L 167.942177 203.379136 
L 168.820862 204.892146 
L 169.699546 201.109621 
L 170.578231 196.570591 
L 171.456916 196.570591 
L 172.335601 194.301076 
L 173.214286 193.544571 
L 174.971655 195.057581 
L 175.85034 199.596611 
L 176.729025 199.596611 
L 177.60771 197.327096 
L 178.486395 198.083601 
L 179.365079 198.083601 
L 180.243764 196.570591 
L 181.122449 194.301076 
L 182.001134 191.275056 
L 182.879819 192.031561 
L 183.758503 190.518551 
L 184.637188 188.249036 
L 186.394558 189.762046 
L 187.273243 193.544571 
L 188.151927 198.083601 
L 189.030612 199.596611 
L 189.909297 201.866126 
L 190.787982 201.866126 
L 191.666667 201.109621 
L 192.545351 204.892146 
L 193.424036 203.379136 
L 195.181406 207.918166 
L 196.060091 209.431176 
L 197.81746 215.483216 
L 198.696145 217.75273 
L 199.57483 220.77875 
L 200.453515 221.535255 
L 202.210884 221.535255 
L 203.089569 220.022245 
L 203.968254 221.535255 
L 204.846939 220.022245 
L 205.725624 222.29176 
L 206.604308 223.048265 
L 207.482993 225.31778 
L 208.361678 226.83079 
L 209.240363 227.587295 
L 210.119048 226.83079 
L 210.997732 228.3438 
L 211.876417 228.3438 
L 212.755102 229.85681 
L 213.633787 230.613315 
L 214.512472 229.85681 
L 215.391156 230.613315 
L 216.269841 229.100305 
L 217.148526 226.83079 
L 218.027211 225.31778 
L 218.905896 224.561275 
L 219.78458 224.561275 
L 220.663265 226.074285 
L 221.54195 226.074285 
L 222.420635 227.587295 
L 223.29932 227.587295 
L 224.178005 228.3438 
L 225.056689 227.587295 
L 225.935374 227.587295 
L 226.814059 226.83079 
L 227.692744 226.83079 
L 228.571429 226.074285 
L 229.450113 221.535255 
L 230.328798 218.509235 
L 231.207483 216.239721 
L 232.086168 214.726711 
L 232.964853 214.726711 
L 233.843537 213.213701 
L 234.722222 214.726711 
L 235.600907 218.509235 
L 236.479592 219.26574 
L 237.358277 223.048265 
L 238.236961 225.31778 
L 239.115646 228.3438 
L 239.994331 229.100305 
L 240.873016 229.100305 
L 241.751701 227.587295 
L 242.630385 226.83079 
L 243.50907 224.561275 
L 244.387755 219.26574 
L 245.26644 217.75273 
L 246.145125 216.996226 
L 247.02381 215.483216 
L 247.902494 215.483216 
L 248.781179 214.726711 
L 249.659864 215.483216 
L 250.538549 216.996226 
L 251.417234 215.483216 
L 252.295918 212.457196 
L 253.174603 208.674671 
L 254.053288 204.135641 
L 254.931973 201.109621 
L 255.810658 199.596611 
L 256.689342 200.353116 
L 257.568027 201.866126 
L 259.325397 209.431176 
L 260.204082 210.944186 
L 261.082766 211.700691 
L 262.840136 210.187681 
L 263.718821 207.918166 
L 264.597506 207.161661 
L 265.47619 207.918166 
L 266.354875 210.187681 
L 267.23356 214.726711 
L 268.112245 217.75273 
L 268.99093 219.26574 
L 269.869615 221.535255 
L 270.748299 220.77875 
L 271.626984 217.75273 
L 272.505669 210.187681 
L 273.384354 206.405156 
L 274.263039 204.892146 
L 275.141723 204.135641 
L 276.020408 200.353116 
L 276.899093 198.840106 
L 277.777778 198.083601 
L 278.656463 201.109621 
L 279.535147 197.327096 
L 280.413832 195.814086 
L 281.292517 196.570591 
L 282.171202 199.596611 
L 283.049887 201.109621 
L 283.928571 200.353116 
L 284.807256 198.083601 
L 285.685941 200.353116 
L 286.564626 200.353116 
L 287.443311 199.596611 
L 289.20068 196.570591 
L 290.079365 193.544571 
L 290.95805 191.275056 
L 291.836735 187.492531 
L 293.594104 185.979521 
L 294.472789 181.440491 
L 295.351474 180.683987 
L 296.230159 178.414472 
L 297.108844 177.657967 
L 297.987528 176.144957 
L 298.866213 173.118937 
L 299.744898 172.362432 
L 300.623583 173.118937 
L 301.502268 168.579907 
L 302.380952 171.605927 
L 303.259637 167.823402 
L 305.017007 164.797382 
L 305.895692 159.501847 
L 306.774376 148.910777 
L 307.653061 148.910777 
L 308.531746 148.154272 
L 309.410431 156.475827 
L 310.289116 157.232332 
L 311.1678 163.284372 
L 312.046485 158.745342 
L 312.92517 157.232332 
L 313.803855 141.345728 
L 314.68254 130.754658 
L 315.561224 126.972133 
L 316.439909 135.293688 
L 317.318594 142.102233 
L 318.197279 152.693302 
L 319.075964 155.719322 
L 319.954649 160.258352 
L 320.833333 159.501847 
L 321.712018 157.988837 
L 323.469388 151.936797 
L 324.348073 154.206312 
L 325.226757 155.719322 
L 326.105442 155.719322 
L 327.862812 158.745342 
L 330.498866 176.901462 
L 331.377551 179.927482 
L 332.256236 184.466511 
L 333.134921 190.518551 
L 334.013605 195.057581 
L 334.89229 197.327096 
L 335.770975 198.840106 
L 336.64966 199.596611 
L 337.528345 203.379136 
L 338.407029 204.135641 
L 339.285714 205.648651 
L 340.164399 209.431176 
L 341.043084 214.726711 
L 341.921769 220.77875 
L 342.800454 223.80477 
L 343.679138 224.561275 
L 345.436508 227.587295 
L 346.315193 227.587295 
L 348.072562 229.100305 
L 348.951247 231.36982 
L 349.829932 231.36982 
L 351.587302 232.88283 
L 352.465986 232.88283 
L 353.344671 234.39584 
L 354.223356 234.39584 
L 355.102041 235.152345 
L 357.738095 235.152345 
L 358.61678 236.665355 
L 359.495465 235.90885 
L 360.37415 235.90885 
L 361.252834 236.665355 
L 363.010204 235.152345 
L 363.888889 233.639335 
L 364.767574 232.88283 
L 366.524943 234.39584 
L 367.403628 235.90885 
L 370.039683 238.178365 
L 371.797052 238.178365 
L 373.554422 236.665355 
L 374.433107 235.152345 
L 375.311791 235.152345 
L 376.190476 232.88283 
L 377.947846 229.85681 
L 378.826531 230.613315 
L 380.5839 230.613315 
L 381.462585 228.3438 
L 382.34127 226.83079 
L 383.219955 221.535255 
L 384.098639 220.77875 
L 386.734694 216.239721 
L 388.492063 214.726711 
L 389.370748 216.239721 
L 390.249433 215.483216 
L 391.128118 213.970206 
L 392.006803 211.700691 
L 392.885488 208.674671 
L 395.521542 189.005541 
L 396.400227 184.466511 
L 397.278912 178.414472 
L 398.157596 176.144957 
L 399.036281 172.362432 
L 400.793651 161.771362 
L 401.672336 161.014857 
L 402.55102 161.771362 
L 403.429705 165.553887 
L 404.30839 164.797382 
L 405.187075 167.066897 
L 406.06576 168.579907 
L 407.823129 165.553887 
L 408.701814 165.553887 
L 409.580499 166.310392 
L 410.459184 167.823402 
L 411.337868 168.579907 
L 412.216553 170.092917 
L 413.095238 170.849422 
L 413.973923 170.092917 
L 414.852608 172.362432 
L 415.731293 173.875442 
L 417.488662 170.849422 
L 418.367347 167.823402 
L 420.124717 166.310392 
L 421.003401 164.797382 
L 422.760771 169.336412 
L 423.639456 168.579907 
L 424.518141 173.118937 
L 425.396825 176.144957 
L 426.27551 178.414472 
L 427.154195 182.953501 
L 428.03288 184.466511 
L 428.911565 181.440491 
L 429.790249 176.901462 
L 430.668934 170.849422 
L 431.547619 162.527867 
L 432.426304 157.232332 
L 434.183673 144.371748 
L 435.062358 140.589223 
L 436.819728 136.050193 
L 437.698413 135.293688 
L 438.577098 132.267668 
L 439.455782 129.998153 
L 440.334467 131.511163 
L 441.213152 131.511163 
L 442.091837 124.702618 
L 442.970522 113.355043 
L 443.849206 106.546499 
L 444.727891 102.763974 
L 445.606576 95.955429 
L 446.485261 95.955429 
L 447.363946 111.842033 
L 448.24263 122.433103 
L 449.121315 140.589223 
L 450 153.449807 
L 450 153.449807 
" style="fill:none;stroke:#b3220f;stroke-linecap:square;stroke-width:1.5;"/>
   </g>
   <g id="patch_3">
    <path d="M 62.5 262.5 
L 62.5 27 
" style="fill:none;stroke:#555555;stroke-linecap:square;stroke-linejoin:miter;"/>
   </g>
   <g id="patch_4">
    <path d="M 62.5 262.5 
L 450 262.5 
" style="fill:none;stroke:#555555;stroke-linecap:square;stroke-linejoin:miter;"/>
   </g>
   <g id="text_13">
    <!-- Teusaquillo | Casos nuevos: 2021-06-08 -->
    <g style="fill:#555555;" transform="translate(131.121719 17)scale(0.14 -0.14)">
     <defs>
      <path d="M 24 63.40625 
L 24 0 
L 33.5 0 
L 33.5 63.40625 
L 57.296875 63.40625 
L 57.296875 71.40625 
L 0.203125 71.40625 
L 0.203125 63.40625 
z
" id="HelveticaNeue-84"/>
      <path d="M 11.59375 16.296875 
L 3.09375 16.296875 
Q 3.296875 11.5 5.09375 8.140625 
Q 6.90625 4.796875 9.90625 2.75 
Q 12.90625 0.703125 16.796875 -0.1875 
Q 20.703125 -1.09375 25 -1.09375 
Q 28.90625 -1.09375 32.84375 -0.34375 
Q 36.796875 0.40625 39.9375 2.296875 
Q 43.09375 4.203125 45.046875 7.296875 
Q 47 10.40625 47 15.09375 
Q 47 18.796875 45.546875 21.296875 
Q 44.09375 23.796875 41.75 25.4375 
Q 39.40625 27.09375 36.34375 28.09375 
Q 33.296875 29.09375 30.09375 29.796875 
Q 27.09375 30.5 24.09375 31.140625 
Q 21.09375 31.796875 18.6875 32.75 
Q 16.296875 33.703125 14.75 35.140625 
Q 13.203125 36.59375 13.203125 38.796875 
Q 13.203125 40.796875 14.203125 42.046875 
Q 15.203125 43.296875 16.796875 44.046875 
Q 18.40625 44.796875 20.34375 45.09375 
Q 22.296875 45.40625 24.203125 45.40625 
Q 26.296875 45.40625 28.34375 44.953125 
Q 30.40625 44.5 32.09375 43.5 
Q 33.796875 42.5 34.890625 40.84375 
Q 36 39.203125 36.203125 36.703125 
L 44.703125 36.703125 
Q 44.40625 41.40625 42.703125 44.546875 
Q 41 47.703125 38.140625 49.546875 
Q 35.296875 51.40625 31.59375 52.15625 
Q 27.90625 52.90625 23.5 52.90625 
Q 20.09375 52.90625 16.640625 52.046875 
Q 13.203125 51.203125 10.453125 49.453125 
Q 7.703125 47.703125 5.953125 44.890625 
Q 4.203125 42.09375 4.203125 38.203125 
Q 4.203125 33.203125 6.703125 30.390625 
Q 9.203125 27.59375 12.953125 26.046875 
Q 16.703125 24.5 21.09375 23.640625 
Q 25.5 22.796875 29.25 21.75 
Q 33 20.703125 35.5 19 
Q 38 17.296875 38 14 
Q 38 11.59375 36.796875 10.046875 
Q 35.59375 8.5 33.75 7.703125 
Q 31.90625 6.90625 29.703125 6.59375 
Q 27.5 6.296875 25.5 6.296875 
Q 22.90625 6.296875 20.453125 6.796875 
Q 18 7.296875 16.046875 8.4375 
Q 14.09375 9.59375 12.890625 11.546875 
Q 11.703125 13.5 11.59375 16.296875 
z
" id="HelveticaNeue-115"/>
      <path d="M 12.59375 25.40625 
Q 12.59375 29.203125 13.390625 32.796875 
Q 14.203125 36.40625 16 39.203125 
Q 17.796875 42 20.796875 43.703125 
Q 23.796875 45.40625 28.09375 45.40625 
Q 32.5 45.40625 35.59375 43.75 
Q 38.703125 42.09375 40.640625 39.390625 
Q 42.59375 36.703125 43.5 33.140625 
Q 44.40625 29.59375 44.40625 25.796875 
Q 44.40625 22.203125 43.546875 18.703125 
Q 42.703125 15.203125 40.796875 12.453125 
Q 38.90625 9.703125 35.90625 8 
Q 32.90625 6.296875 28.59375 6.296875 
Q 24.5 6.296875 21.453125 7.890625 
Q 18.40625 9.5 16.453125 12.203125 
Q 14.5 14.90625 13.546875 18.34375 
Q 12.59375 21.796875 12.59375 25.40625 
z
M 52.59375 -19.703125 
L 52.59375 51.703125 
L 44.09375 51.703125 
L 44.09375 44.796875 
L 43.90625 44.796875 
Q 42.5 47.09375 40.453125 48.640625 
Q 38.40625 50.203125 36.09375 51.140625 
Q 33.796875 52.09375 31.5 52.5 
Q 29.203125 52.90625 27.203125 52.90625 
Q 21.296875 52.90625 16.84375 50.75 
Q 12.40625 48.59375 9.453125 44.9375 
Q 6.5 41.296875 5.046875 36.390625 
Q 3.59375 31.5 3.59375 26 
Q 3.59375 20.5 5.09375 15.59375 
Q 6.59375 10.703125 9.546875 7 
Q 12.5 3.296875 16.953125 1.09375 
Q 21.40625 -1.09375 27.40625 -1.09375 
Q 32.796875 -1.09375 37.296875 0.796875 
Q 41.796875 2.703125 43.90625 7 
L 44.09375 7 
L 44.09375 -19.703125 
z
" id="HelveticaNeue-113"/>
      <path d="M 15.40625 61 
L 15.40625 71.40625 
L 6.90625 71.40625 
L 6.90625 61 
z
M 6.90625 51.703125 
L 6.90625 0 
L 15.40625 0 
L 15.40625 51.703125 
z
" id="HelveticaNeue-105"/>
      <path d="M 12.59375 25.796875 
Q 12.59375 30.5 13.84375 34.140625 
Q 15.09375 37.796875 17.296875 40.296875 
Q 19.5 42.796875 22.453125 44.09375 
Q 25.40625 45.40625 28.703125 45.40625 
Q 32 45.40625 34.953125 44.09375 
Q 37.90625 42.796875 40.09375 40.296875 
Q 42.296875 37.796875 43.546875 34.140625 
Q 44.796875 30.5 44.796875 25.796875 
Q 44.796875 21.09375 43.546875 17.4375 
Q 42.296875 13.796875 40.09375 11.34375 
Q 37.90625 8.90625 34.953125 7.59375 
Q 32 6.296875 28.703125 6.296875 
Q 25.40625 6.296875 22.453125 7.59375 
Q 19.5 8.90625 17.296875 11.34375 
Q 15.09375 13.796875 13.84375 17.4375 
Q 12.59375 21.09375 12.59375 25.796875 
z
M 3.59375 25.796875 
Q 3.59375 20.09375 5.1875 15.1875 
Q 6.796875 10.296875 10 6.640625 
Q 13.203125 3 17.890625 0.953125 
Q 22.59375 -1.09375 28.703125 -1.09375 
Q 34.90625 -1.09375 39.546875 0.953125 
Q 44.203125 3 47.390625 6.640625 
Q 50.59375 10.296875 52.1875 15.1875 
Q 53.796875 20.09375 53.796875 25.796875 
Q 53.796875 31.5 52.1875 36.453125 
Q 50.59375 41.40625 47.390625 45.046875 
Q 44.203125 48.703125 39.546875 50.796875 
Q 34.90625 52.90625 28.703125 52.90625 
Q 22.59375 52.90625 17.890625 50.796875 
Q 13.203125 48.703125 10 45.046875 
Q 6.796875 41.40625 5.1875 36.453125 
Q 3.59375 31.5 3.59375 25.796875 
z
" id="HelveticaNeue-111"/>
      <path id="HelveticaNeue-32"/>
      <path d="M 7.703125 78.59375 
L 7.703125 -21.296875 
L 14.5 -21.296875 
L 14.5 78.59375 
z
" id="HelveticaNeue-124"/>
      <path d="M 58 49.90625 
L 67.5 49.90625 
Q 66.703125 55.59375 64.09375 59.9375 
Q 61.5 64.296875 57.59375 67.1875 
Q 53.703125 70.09375 48.703125 71.59375 
Q 43.703125 73.09375 38.09375 73.09375 
Q 29.90625 73.09375 23.546875 70.140625 
Q 17.203125 67.203125 12.953125 62.09375 
Q 8.703125 57 6.5 50.140625 
Q 4.296875 43.296875 4.296875 35.5 
Q 4.296875 27.703125 6.34375 20.890625 
Q 8.40625 14.09375 12.5 9.09375 
Q 16.59375 4.09375 22.796875 1.25 
Q 29 -1.59375 37.296875 -1.59375 
Q 51 -1.59375 58.890625 5.90625 
Q 66.796875 13.40625 68.203125 26.90625 
L 58.703125 26.90625 
Q 58.40625 22.5 56.90625 18.703125 
Q 55.40625 14.90625 52.75 12.15625 
Q 50.09375 9.40625 46.4375 7.84375 
Q 42.796875 6.296875 38.09375 6.296875 
Q 31.703125 6.296875 27.09375 8.6875 
Q 22.5 11.09375 19.546875 15.140625 
Q 16.59375 19.203125 15.1875 24.640625 
Q 13.796875 30.09375 13.796875 36.203125 
Q 13.796875 41.796875 15.1875 47 
Q 16.59375 52.203125 19.546875 56.25 
Q 22.5 60.296875 27.046875 62.6875 
Q 31.59375 65.09375 38 65.09375 
Q 45.5 65.09375 50.953125 61.296875 
Q 56.40625 57.5 58 49.90625 
z
" id="HelveticaNeue-67"/>
      <path d="M 29.703125 0 
L 48.59375 51.703125 
L 39.703125 51.703125 
L 25.59375 8.59375 
L 25.40625 8.59375 
L 10.90625 51.703125 
L 1.40625 51.703125 
L 20.59375 0 
z
" id="HelveticaNeue-118"/>
      <path d="M 19.40625 40.59375 
L 19.40625 51.703125 
L 8.296875 51.703125 
L 8.296875 40.59375 
z
M 8.296875 11.09375 
L 8.296875 0 
L 19.40625 0 
L 19.40625 11.09375 
z
" id="HelveticaNeue-58"/>
      <path d="M 5 31.796875 
L 5 23.796875 
L 33.90625 23.796875 
L 33.90625 31.796875 
z
" id="HelveticaNeue-45"/>
      <path d="M 41.40625 52.796875 
L 49.90625 52.796875 
Q 49.09375 61.59375 43.890625 66.25 
Q 38.703125 70.90625 29.90625 70.90625 
Q 22.296875 70.90625 17.296875 67.703125 
Q 12.296875 64.5 9.296875 59.203125 
Q 6.296875 53.90625 5.046875 47.046875 
Q 3.796875 40.203125 3.796875 32.90625 
Q 3.796875 27.296875 4.640625 21.296875 
Q 5.5 15.296875 8.09375 10.296875 
Q 10.703125 5.296875 15.5 2.09375 
Q 20.296875 -1.09375 28.203125 -1.09375 
Q 34.90625 -1.09375 39.453125 1.15625 
Q 44 3.40625 46.75 6.84375 
Q 49.5 10.296875 50.703125 14.5 
Q 51.90625 18.703125 51.90625 22.59375 
Q 51.90625 27.5 50.40625 31.703125 
Q 48.90625 35.90625 46.15625 39 
Q 43.40625 42.09375 39.34375 43.84375 
Q 35.296875 45.59375 30.203125 45.59375 
Q 24.40625 45.59375 19.953125 43.390625 
Q 15.5 41.203125 12.5 36.296875 
L 12.296875 36.5 
Q 12.40625 40.59375 13.09375 45.296875 
Q 13.796875 50 15.640625 54.046875 
Q 17.5 58.09375 20.796875 60.75 
Q 24.09375 63.40625 29.5 63.40625 
Q 34.59375 63.40625 37.6875 60.5 
Q 40.796875 57.59375 41.40625 52.796875 
z
M 28.59375 38.09375 
Q 32.203125 38.09375 34.890625 36.796875 
Q 37.59375 35.5 39.390625 33.34375 
Q 41.203125 31.203125 42.046875 28.25 
Q 42.90625 25.296875 42.90625 22 
Q 42.90625 18.90625 41.953125 16.046875 
Q 41 13.203125 39.203125 11 
Q 37.40625 8.796875 34.75 7.546875 
Q 32.09375 6.296875 28.59375 6.296875 
Q 25.09375 6.296875 22.34375 7.546875 
Q 19.59375 8.796875 17.75 10.890625 
Q 15.90625 13 14.90625 15.890625 
Q 13.90625 18.796875 13.90625 22.09375 
Q 13.90625 25.40625 14.84375 28.34375 
Q 15.796875 31.296875 17.6875 33.4375 
Q 19.59375 35.59375 22.296875 36.84375 
Q 25 38.09375 28.59375 38.09375 
z
" id="HelveticaNeue-54"/>
      <path d="M 15.5 52.5 
Q 15.5 55.203125 16.5 57.203125 
Q 17.5 59.203125 19.140625 60.59375 
Q 20.796875 62 23.09375 62.703125 
Q 25.40625 63.40625 27.90625 63.40625 
Q 33.09375 63.40625 36.4375 60.65625 
Q 39.796875 57.90625 39.796875 52.5 
Q 39.796875 47.09375 36.5 44.09375 
Q 33.203125 41.09375 28.09375 41.09375 
Q 25.5 41.09375 23.203125 41.796875 
Q 20.90625 42.5 19.203125 43.890625 
Q 17.5 45.296875 16.5 47.4375 
Q 15.5 49.59375 15.5 52.5 
z
M 6.5 52.796875 
Q 6.5 48 9.203125 43.953125 
Q 11.90625 39.90625 16.40625 38.09375 
Q 10.40625 36 7.203125 31.34375 
Q 4 26.703125 4 20.40625 
Q 4 15 5.84375 10.953125 
Q 7.703125 6.90625 10.953125 4.203125 
Q 14.203125 1.5 18.59375 0.203125 
Q 23 -1.09375 28.09375 -1.09375 
Q 33 -1.09375 37.296875 0.296875 
Q 41.59375 1.703125 44.75 4.453125 
Q 47.90625 7.203125 49.75 11.203125 
Q 51.59375 15.203125 51.59375 20.40625 
Q 51.59375 27 48.5 31.546875 
Q 45.40625 36.09375 39 38.09375 
Q 43.5 40.09375 46.140625 44.046875 
Q 48.796875 48 48.796875 52.796875 
Q 48.796875 56.203125 47.59375 59.453125 
Q 46.40625 62.703125 43.84375 65.25 
Q 41.296875 67.796875 37.1875 69.34375 
Q 33.09375 70.90625 27.296875 70.90625 
Q 23.203125 70.90625 19.453125 69.703125 
Q 15.703125 68.5 12.796875 66.203125 
Q 9.90625 63.90625 8.203125 60.546875 
Q 6.5 57.203125 6.5 52.796875 
z
M 13 20 
Q 13 23.09375 14.140625 25.59375 
Q 15.296875 28.09375 17.34375 29.890625 
Q 19.40625 31.703125 22.15625 32.640625 
Q 24.90625 33.59375 28 33.59375 
Q 31 33.59375 33.640625 32.546875 
Q 36.296875 31.5 38.296875 29.703125 
Q 40.296875 27.90625 41.4375 25.453125 
Q 42.59375 23 42.59375 20.09375 
Q 42.59375 17.09375 41.546875 14.59375 
Q 40.5 12.09375 38.546875 10.25 
Q 36.59375 8.40625 33.9375 7.34375 
Q 31.296875 6.296875 28.09375 6.296875 
Q 21.5 6.296875 17.25 9.9375 
Q 13 13.59375 13 20 
z
" id="HelveticaNeue-56"/>
     </defs>
     <use xlink:href="#HelveticaNeue-84"/>
     <use x="46.274994" xlink:href="#HelveticaNeue-101"/>
     <use x="99.974991" xlink:href="#HelveticaNeue-117"/>
     <use x="155.574982" xlink:href="#HelveticaNeue-115"/>
     <use x="205.574966" xlink:href="#HelveticaNeue-97"/>
     <use x="259.274963" xlink:href="#HelveticaNeue-113"/>
     <use x="318.574951" xlink:href="#HelveticaNeue-117"/>
     <use x="374.174942" xlink:href="#HelveticaNeue-105"/>
     <use x="396.374939" xlink:href="#HelveticaNeue-108"/>
     <use x="418.574936" xlink:href="#HelveticaNeue-108"/>
     <use x="440.774933" xlink:href="#HelveticaNeue-111"/>
     <use x="498.174927" xlink:href="#HelveticaNeue-32"/>
     <use x="525.974915" xlink:href="#HelveticaNeue-124"/>
     <use x="548.174911" xlink:href="#HelveticaNeue-32"/>
     <use x="575.974899" xlink:href="#HelveticaNeue-67"/>
     <use x="648.174881" xlink:href="#HelveticaNeue-97"/>
     <use x="701.874878" xlink:href="#HelveticaNeue-115"/>
     <use x="751.874863" xlink:href="#HelveticaNeue-111"/>
     <use x="809.274857" xlink:href="#HelveticaNeue-115"/>
     <use x="859.274841" xlink:href="#HelveticaNeue-32"/>
     <use x="887.074829" xlink:href="#HelveticaNeue-110"/>
     <use x="942.67482" xlink:href="#HelveticaNeue-117"/>
     <use x="998.274811" xlink:href="#HelveticaNeue-101"/>
     <use x="1051.974808" xlink:href="#HelveticaNeue-118"/>
     <use x="1101.974792" xlink:href="#HelveticaNeue-111"/>
     <use x="1159.374786" xlink:href="#HelveticaNeue-115"/>
     <use x="1209.374771" xlink:href="#HelveticaNeue-58"/>
     <use x="1237.174759" xlink:href="#HelveticaNeue-32"/>
     <use x="1264.974747" xlink:href="#HelveticaNeue-50"/>
     <use x="1320.574738" xlink:href="#HelveticaNeue-48"/>
     <use x="1376.174728" xlink:href="#HelveticaNeue-50"/>
     <use x="1431.774719" xlink:href="#HelveticaNeue-49"/>
     <use x="1487.37471" xlink:href="#HelveticaNeue-45"/>
     <use x="1526.274704" xlink:href="#HelveticaNeue-48"/>
     <use x="1581.874695" xlink:href="#HelveticaNeue-54"/>
     <use x="1637.474686" xlink:href="#HelveticaNeue-45"/>
     <use x="1676.37468" xlink:href="#HelveticaNeue-48"/>
     <use x="1731.97467" xlink:href="#HelveticaNeue-56"/>
    </g>
   </g>
   <g id="legend_1">
    <g id="line2d_26">
     <path d="M 71.5 39.640625 
L 91.5 39.640625 
" style="fill:none;stroke:#000000;stroke-dasharray:1.5,2.475;stroke-dashoffset:0;stroke-opacity:0.5;stroke-width:1.5;"/>
    </g>
    <g id="line2d_27"/>
    <g id="text_14">
     <!-- Actual -->
     <g style="fill:#555555;" transform="translate(99.5 43.140625)scale(0.1 -0.1)">
      <use xlink:href="#HelveticaNeue-65"/>
      <use x="64.799988" xlink:href="#HelveticaNeue-99"/>
      <use x="118.499985" xlink:href="#HelveticaNeue-116"/>
      <use x="149.999969" xlink:href="#HelveticaNeue-117"/>
      <use x="205.59996" xlink:href="#HelveticaNeue-97"/>
      <use x="259.299957" xlink:href="#HelveticaNeue-108"/>
     </g>
    </g>
    <g id="line2d_28">
     <path d="M 71.5 54.310937 
L 91.5 54.310937 
" style="fill:none;stroke:#b3220f;stroke-linecap:square;stroke-width:1.5;"/>
    </g>
    <g id="line2d_29"/>
    <g id="text_15">
     <!-- Promedio semanal (7 das)  -->
     <g style="fill:#555555;" transform="translate(99.5 57.810937)scale(0.1 -0.1)">
      <defs>
       <path d="M 17.296875 37.203125 
L 17.296875 63.40625 
L 35.90625 63.40625 
Q 44 63.40625 47.75 60.046875 
Q 51.5 56.703125 51.5 50.296875 
Q 51.5 43.90625 47.75 40.5 
Q 44 37.09375 35.90625 37.203125 
z
M 7.796875 71.40625 
L 7.796875 0 
L 17.296875 0 
L 17.296875 29.203125 
L 39.09375 29.203125 
Q 49.90625 29.09375 55.453125 34.6875 
Q 61 40.296875 61 50.296875 
Q 61 60.296875 55.453125 65.84375 
Q 49.90625 71.40625 39.09375 71.40625 
z
" id="HelveticaNeue-80"/>
       <path d="M 6.40625 51.703125 
L 6.40625 0 
L 14.90625 0 
L 14.90625 32.203125 
Q 14.90625 33.703125 15.65625 35.953125 
Q 16.40625 38.203125 18.046875 40.296875 
Q 19.703125 42.40625 22.34375 43.90625 
Q 25 45.40625 28.703125 45.40625 
Q 31.59375 45.40625 33.4375 44.546875 
Q 35.296875 43.703125 36.390625 42.140625 
Q 37.5 40.59375 37.953125 38.5 
Q 38.40625 36.40625 38.40625 33.90625 
L 38.40625 0 
L 46.90625 0 
L 46.90625 32.203125 
Q 46.90625 38.203125 50.5 41.796875 
Q 54.09375 45.40625 60.40625 45.40625 
Q 63.5 45.40625 65.453125 44.5 
Q 67.40625 43.59375 68.5 42.046875 
Q 69.59375 40.5 70 38.390625 
Q 70.40625 36.296875 70.40625 33.90625 
L 70.40625 0 
L 78.90625 0 
L 78.90625 37.90625 
Q 78.90625 41.90625 77.65625 44.75 
Q 76.40625 47.59375 74.15625 49.390625 
Q 71.90625 51.203125 68.75 52.046875 
Q 65.59375 52.90625 61.703125 52.90625 
Q 56.59375 52.90625 52.34375 50.59375 
Q 48.09375 48.296875 45.5 44.09375 
Q 43.90625 48.90625 40 50.90625 
Q 36.09375 52.90625 31.296875 52.90625 
Q 20.40625 52.90625 14.59375 44.09375 
L 14.40625 44.09375 
L 14.40625 51.703125 
z
" id="HelveticaNeue-109"/>
       <path d="M 12.59375 25.40625 
Q 12.59375 29.203125 13.390625 32.796875 
Q 14.203125 36.40625 16 39.203125 
Q 17.796875 42 20.796875 43.703125 
Q 23.796875 45.40625 28.09375 45.40625 
Q 32.5 45.40625 35.59375 43.75 
Q 38.703125 42.09375 40.640625 39.390625 
Q 42.59375 36.703125 43.5 33.140625 
Q 44.40625 29.59375 44.40625 25.796875 
Q 44.40625 22.203125 43.546875 18.703125 
Q 42.703125 15.203125 40.796875 12.453125 
Q 38.90625 9.703125 35.90625 8 
Q 32.90625 6.296875 28.59375 6.296875 
Q 24.5 6.296875 21.453125 7.890625 
Q 18.40625 9.5 16.453125 12.203125 
Q 14.5 14.90625 13.546875 18.34375 
Q 12.59375 21.796875 12.59375 25.40625 
z
M 52.59375 0 
L 52.59375 71.40625 
L 44.09375 71.40625 
L 44.09375 44.796875 
L 43.90625 44.796875 
Q 42.5 47.09375 40.453125 48.640625 
Q 38.40625 50.203125 36.09375 51.140625 
Q 33.796875 52.09375 31.5 52.5 
Q 29.203125 52.90625 27.203125 52.90625 
Q 21.296875 52.90625 16.84375 50.75 
Q 12.40625 48.59375 9.453125 44.9375 
Q 6.5 41.296875 5.046875 36.390625 
Q 3.59375 31.5 3.59375 26 
Q 3.59375 20.5 5.09375 15.59375 
Q 6.59375 10.703125 9.546875 7 
Q 12.5 3.296875 16.953125 1.09375 
Q 21.40625 -1.09375 27.40625 -1.09375 
Q 32.796875 -1.09375 37.296875 0.796875 
Q 41.796875 2.703125 43.90625 7 
L 44.09375 7 
L 44.09375 0 
z
" id="HelveticaNeue-100"/>
       <path d="M 20.40625 -19.703125 
L 26.90625 -19.703125 
Q 19.796875 -8.203125 16.75 3.09375 
Q 13.703125 14.40625 13.703125 27 
Q 13.703125 39.296875 16.703125 50.5 
Q 19.703125 61.703125 26.90625 73.09375 
L 20.40625 73.09375 
Q 12.59375 62.796875 8.640625 50.796875 
Q 4.703125 38.796875 4.703125 27 
Q 4.703125 20.40625 5.796875 14.40625 
Q 6.90625 8.40625 8.953125 2.703125 
Q 11 -3 13.890625 -8.546875 
Q 16.796875 -14.09375 20.40625 -19.703125 
z
" id="HelveticaNeue-40"/>
       <path d="M 50.90625 62.40625 
L 50.90625 69.703125 
L 5 69.703125 
L 5 61.703125 
L 42.203125 61.703125 
Q 36.59375 55.796875 31.75 48.796875 
Q 26.90625 41.796875 23.203125 33.9375 
Q 19.5 26.09375 17.140625 17.546875 
Q 14.796875 9 14.203125 0 
L 23.703125 0 
Q 24.203125 8.296875 26.5 17.09375 
Q 28.796875 25.90625 32.4375 34.203125 
Q 36.09375 42.5 40.796875 49.796875 
Q 45.5 57.09375 50.90625 62.40625 
z
" id="HelveticaNeue-55"/>
       <path d="M 6.90625 0 
L 15.40625 0 
L 15.40625 51.703125 
L 6.90625 51.703125 
z
M 25.5 77 
L 11.40625 60.796875 
L 5 60.796875 
L 14.59375 77 
z
" id="HelveticaNeue-237"/>
       <path d="M -0.90625 -19.703125 
L 5.5 -19.703125 
Q 13.296875 -9.40625 17.25 2.546875 
Q 21.203125 14.5 21.203125 26.296875 
Q 21.203125 32.90625 20.09375 38.90625 
Q 19 44.90625 16.953125 50.65625 
Q 14.90625 56.40625 12 61.953125 
Q 9.09375 67.5 5.5 73.09375 
L -0.90625 73.09375 
Q 6.09375 61.59375 9.140625 50.25 
Q 12.203125 38.90625 12.203125 26.296875 
Q 12.203125 14.09375 9.203125 2.84375 
Q 6.203125 -8.40625 -0.90625 -19.703125 
z
" id="HelveticaNeue-41"/>
      </defs>
      <use xlink:href="#HelveticaNeue-80"/>
      <use x="64.799988" xlink:href="#HelveticaNeue-114"/>
      <use x="96.349976" xlink:href="#HelveticaNeue-111"/>
      <use x="153.749969" xlink:href="#HelveticaNeue-109"/>
      <use x="239.049957" xlink:href="#HelveticaNeue-101"/>
      <use x="292.749954" xlink:href="#HelveticaNeue-100"/>
      <use x="352.049942" xlink:href="#HelveticaNeue-105"/>
      <use x="374.249939" xlink:href="#HelveticaNeue-111"/>
      <use x="431.649933" xlink:href="#HelveticaNeue-32"/>
      <use x="459.449921" xlink:href="#HelveticaNeue-115"/>
      <use x="509.449905" xlink:href="#HelveticaNeue-101"/>
      <use x="563.149902" xlink:href="#HelveticaNeue-109"/>
      <use x="648.44989" xlink:href="#HelveticaNeue-97"/>
      <use x="702.149887" xlink:href="#HelveticaNeue-110"/>
      <use x="757.749878" xlink:href="#HelveticaNeue-97"/>
      <use x="811.449875" xlink:href="#HelveticaNeue-108"/>
      <use x="833.649872" xlink:href="#HelveticaNeue-32"/>
      <use x="861.44986" xlink:href="#HelveticaNeue-40"/>
      <use x="887.349854" xlink:href="#HelveticaNeue-55"/>
      <use x="942.949844" xlink:href="#HelveticaNeue-32"/>
      <use x="970.749832" xlink:href="#HelveticaNeue-100"/>
      <use x="1030.04982" xlink:href="#HelveticaNeue-237"/>
      <use x="1052.249817" xlink:href="#HelveticaNeue-97"/>
      <use x="1105.949814" xlink:href="#HelveticaNeue-115"/>
      <use x="1155.949799" xlink:href="#HelveticaNeue-41"/>
      <use x="1181.849792" xlink:href="#HelveticaNeue-32"/>
     </g>
    </g>
   </g>
  </g>
 </g>
 <defs>
  <clipPath id="p089bc6ef72">
   <rect height="235.5" width="387.5" x="62.5" y="27"/>
  </clipPath>
 </defs>
</svg>
