<?xml version="1.0" encoding="utf-8" standalone="no"?>
<!DOCTYPE svg PUBLIC "-//W3C//DTD SVG 1.1//EN"
  "http://www.w3.org/Graphics/SVG/1.1/DTD/svg11.dtd">
<!-- Created with matplotlib (https://matplotlib.org/) -->
<svg height="300pt" version="1.1" viewBox="0 0 500 300" width="500pt" xmlns="http://www.w3.org/2000/svg" xmlns:xlink="http://www.w3.org/1999/xlink">
 <metadata>
  <rdf:RDF xmlns:cc="http://creativecommons.org/ns#" xmlns:dc="http://purl.org/dc/elements/1.1/" xmlns:rdf="http://www.w3.org/1999/02/22-rdf-syntax-ns#">
   <cc:Work>
    <dc:type rdf:resource="http://purl.org/dc/dcmitype/StillImage"/>
    <dc:date>2021-06-09T19:29:06.947037</dc:date>
    <dc:format>image/svg+xml</dc:format>
    <dc:creator>
     <cc:Agent>
      <dc:title>Matplotlib v3.3.4, https://matplotlib.org/</dc:title>
     </cc:Agent>
    </dc:creator>
   </cc:Work>
  </rdf:RDF>
 </metadata>
 <defs>
  <style type="text/css">*{stroke-linecap:butt;stroke-linejoin:round;}</style>
 </defs>
 <g id="figure_1">
  <g id="patch_1">
   <path d="M 0 300 
L 500 300 
L 500 0 
L 0 0 
z
" style="fill:#ffffff;"/>
  </g>
  <g id="axes_1">
   <g id="patch_2">
    <path d="M 62.5 262.5 
L 450 262.5 
L 450 27 
L 62.5 27 
z
" style="fill:#ffffff;"/>
   </g>
   <g id="matplotlib.axis_1">
    <g id="xtick_1">
     <g id="line2d_1">
      <defs>
       <path d="M 0 0 
L 0 3.5 
" id="m6a9db37bf9" style="stroke:#555555;stroke-width:0.8;"/>
      </defs>
      <g>
       <use style="fill:#555555;stroke:#555555;stroke-width:0.8;" x="62.5" xlink:href="#m6a9db37bf9" y="262.5"/>
      </g>
     </g>
    </g>
    <g id="xtick_2">
     <g id="line2d_2">
      <g>
       <use style="fill:#555555;stroke:#555555;stroke-width:0.8;" x="142.703488" xlink:href="#m6a9db37bf9" y="262.5"/>
      </g>
     </g>
     <g id="text_1">
      <!-- Jul -->
      <g style="fill:#555555;" transform="translate(136.218332 276.640625)scale(0.1 -0.1)">
       <defs>
        <path d="M 44.09375 17.796875 
L 44.09375 71.40625 
L 34.59375 71.40625 
L 34.59375 19.203125 
Q 34.59375 13.296875 32.140625 9.796875 
Q 29.703125 6.296875 23.203125 6.296875 
Q 19.703125 6.296875 17.453125 7.34375 
Q 15.203125 8.40625 13.953125 10.296875 
Q 12.703125 12.203125 12.203125 14.796875 
Q 11.703125 17.40625 11.703125 20.5 
L 11.703125 23.5 
L 2.203125 23.5 
L 2.203125 19.09375 
Q 2.203125 8.90625 7.59375 3.65625 
Q 13 -1.59375 23 -1.59375 
Q 29 -1.59375 33.046875 0.046875 
Q 37.09375 1.703125 39.546875 4.453125 
Q 42 7.203125 43.046875 10.703125 
Q 44.09375 14.203125 44.09375 17.796875 
z
" id="HelveticaNeue-74"/>
        <path d="M 49.203125 0 
L 49.203125 51.703125 
L 40.703125 51.703125 
L 40.703125 22.5 
Q 40.703125 19 39.75 16.046875 
Q 38.796875 13.09375 36.890625 10.890625 
Q 35 8.703125 32.140625 7.5 
Q 29.296875 6.296875 25.40625 6.296875 
Q 20.5 6.296875 17.703125 9.09375 
Q 14.90625 11.90625 14.90625 16.703125 
L 14.90625 51.703125 
L 6.40625 51.703125 
L 6.40625 17.703125 
Q 6.40625 13.5 7.25 10.046875 
Q 8.09375 6.59375 10.1875 4.09375 
Q 12.296875 1.59375 15.6875 0.25 
Q 19.09375 -1.09375 24.203125 -1.09375 
Q 29.90625 -1.09375 34.09375 1.15625 
Q 38.296875 3.40625 41 8.203125 
L 41.203125 8.203125 
L 41.203125 0 
z
" id="HelveticaNeue-117"/>
        <path d="M 6.90625 71.40625 
L 6.90625 0 
L 15.40625 0 
L 15.40625 71.40625 
z
" id="HelveticaNeue-108"/>
       </defs>
       <use xlink:href="#HelveticaNeue-74"/>
       <use x="51.899994" xlink:href="#HelveticaNeue-117"/>
       <use x="107.499985" xlink:href="#HelveticaNeue-108"/>
      </g>
     </g>
    </g>
    <g id="xtick_3">
     <g id="line2d_3">
      <g>
       <use style="fill:#555555;stroke:#555555;stroke-width:0.8;" x="225.610465" xlink:href="#m6a9db37bf9" y="262.5"/>
      </g>
     </g>
     <g id="text_2">
      <!-- Oct -->
      <g style="fill:#555555;" transform="translate(217.550309 276.640625)scale(0.1 -0.1)">
       <defs>
        <path d="M 13.296875 35.703125 
Q 13.296875 41.09375 14.6875 46.34375 
Q 16.09375 51.59375 19.09375 55.796875 
Q 22.09375 60 26.796875 62.546875 
Q 31.5 65.09375 38 65.09375 
Q 44.5 65.09375 49.203125 62.546875 
Q 53.90625 60 56.90625 55.796875 
Q 59.90625 51.59375 61.296875 46.34375 
Q 62.703125 41.09375 62.703125 35.703125 
Q 62.703125 30.296875 61.296875 25.046875 
Q 59.90625 19.796875 56.90625 15.59375 
Q 53.90625 11.40625 49.203125 8.84375 
Q 44.5 6.296875 38 6.296875 
Q 31.5 6.296875 26.796875 8.84375 
Q 22.09375 11.40625 19.09375 15.59375 
Q 16.09375 19.796875 14.6875 25.046875 
Q 13.296875 30.296875 13.296875 35.703125 
z
M 3.796875 35.703125 
Q 3.796875 28.40625 5.9375 21.65625 
Q 8.09375 14.90625 12.390625 9.703125 
Q 16.703125 4.5 23.09375 1.453125 
Q 29.5 -1.59375 38 -1.59375 
Q 46.5 -1.59375 52.890625 1.453125 
Q 59.296875 4.5 63.59375 9.703125 
Q 67.90625 14.90625 70.046875 21.65625 
Q 72.203125 28.40625 72.203125 35.703125 
Q 72.203125 43 70.046875 49.75 
Q 67.90625 56.5 63.59375 61.703125 
Q 59.296875 66.90625 52.890625 70 
Q 46.5 73.09375 38 73.09375 
Q 29.5 73.09375 23.09375 70 
Q 16.703125 66.90625 12.390625 61.703125 
Q 8.09375 56.5 5.9375 49.75 
Q 3.796875 43 3.796875 35.703125 
z
" id="HelveticaNeue-79"/>
        <path d="M 41.5 35.09375 
L 50.296875 35.09375 
Q 49.796875 39.703125 47.890625 43.046875 
Q 46 46.40625 43.046875 48.59375 
Q 40.09375 50.796875 36.25 51.84375 
Q 32.40625 52.90625 28 52.90625 
Q 21.90625 52.90625 17.296875 50.75 
Q 12.703125 48.59375 9.640625 44.84375 
Q 6.59375 41.09375 5.09375 36.046875 
Q 3.59375 31 3.59375 25.203125 
Q 3.59375 19.40625 5.140625 14.546875 
Q 6.703125 9.703125 9.75 6.203125 
Q 12.796875 2.703125 17.34375 0.796875 
Q 21.90625 -1.09375 27.796875 -1.09375 
Q 37.703125 -1.09375 43.453125 4.09375 
Q 49.203125 9.296875 50.59375 18.90625 
L 41.90625 18.90625 
Q 41.09375 12.90625 37.546875 9.59375 
Q 34 6.296875 27.703125 6.296875 
Q 23.703125 6.296875 20.796875 7.890625 
Q 17.90625 9.5 16.09375 12.140625 
Q 14.296875 14.796875 13.4375 18.1875 
Q 12.59375 21.59375 12.59375 25.203125 
Q 12.59375 29.09375 13.390625 32.75 
Q 14.203125 36.40625 16.046875 39.203125 
Q 17.90625 42 21 43.703125 
Q 24.09375 45.40625 28.703125 45.40625 
Q 34.09375 45.40625 37.296875 42.703125 
Q 40.5 40 41.5 35.09375 
z
" id="HelveticaNeue-99"/>
        <path d="M 18.203125 51.703125 
L 18.203125 67.203125 
L 9.703125 67.203125 
L 9.703125 51.703125 
L 0.90625 51.703125 
L 0.90625 44.203125 
L 9.703125 44.203125 
L 9.703125 11.296875 
Q 9.703125 7.703125 10.390625 5.5 
Q 11.09375 3.296875 12.546875 2.09375 
Q 14 0.90625 16.34375 0.453125 
Q 18.703125 0 22 0 
L 28.5 0 
L 28.5 7.5 
L 24.59375 7.5 
Q 22.59375 7.5 21.34375 7.640625 
Q 20.09375 7.796875 19.390625 8.296875 
Q 18.703125 8.796875 18.453125 9.6875 
Q 18.203125 10.59375 18.203125 12.09375 
L 18.203125 44.203125 
L 28.5 44.203125 
L 28.5 51.703125 
z
" id="HelveticaNeue-116"/>
       </defs>
       <use xlink:href="#HelveticaNeue-79"/>
       <use x="75.999985" xlink:href="#HelveticaNeue-99"/>
       <use x="129.699982" xlink:href="#HelveticaNeue-116"/>
      </g>
     </g>
    </g>
    <g id="xtick_4">
     <g id="line2d_4">
      <g>
       <use style="fill:#555555;stroke:#555555;stroke-width:0.8;" x="308.517442" xlink:href="#m6a9db37bf9" y="262.5"/>
      </g>
     </g>
     <g id="text_3">
      <!-- Jan -->
      <g style="fill:#555555;" transform="translate(300.457286 276.640625)scale(0.1 -0.1)">
       <defs>
        <path d="M 52.203125 0.203125 
Q 50 -1.09375 46.09375 -1.09375 
Q 42.796875 -1.09375 40.84375 0.75 
Q 38.90625 2.59375 38.90625 6.796875 
Q 35.40625 2.59375 30.75 0.75 
Q 26.09375 -1.09375 20.703125 -1.09375 
Q 17.203125 -1.09375 14.046875 -0.296875 
Q 10.90625 0.5 8.59375 2.203125 
Q 6.296875 3.90625 4.9375 6.65625 
Q 3.59375 9.40625 3.59375 13.296875 
Q 3.59375 17.703125 5.09375 20.5 
Q 6.59375 23.296875 9.046875 25.046875 
Q 11.5 26.796875 14.640625 27.6875 
Q 17.796875 28.59375 21.09375 29.203125 
Q 24.59375 29.90625 27.75 30.25 
Q 30.90625 30.59375 33.296875 31.25 
Q 35.703125 31.90625 37.09375 33.15625 
Q 38.5 34.40625 38.5 36.796875 
Q 38.5 39.59375 37.453125 41.296875 
Q 36.40625 43 34.75 43.890625 
Q 33.09375 44.796875 31.046875 45.09375 
Q 29 45.40625 27 45.40625 
Q 21.59375 45.40625 18 43.34375 
Q 14.40625 41.296875 14.09375 35.59375 
L 5.59375 35.59375 
Q 5.796875 40.40625 7.59375 43.703125 
Q 9.40625 47 12.40625 49.046875 
Q 15.40625 51.09375 19.25 52 
Q 23.09375 52.90625 27.5 52.90625 
Q 31 52.90625 34.453125 52.40625 
Q 37.90625 51.90625 40.703125 50.34375 
Q 43.5 48.796875 45.203125 46 
Q 46.90625 43.203125 46.90625 38.703125 
L 46.90625 12.09375 
Q 46.90625 9.09375 47.25 7.6875 
Q 47.59375 6.296875 49.59375 6.296875 
Q 50.703125 6.296875 52.203125 6.796875 
z
M 38.40625 26.703125 
Q 36.796875 25.5 34.1875 24.953125 
Q 31.59375 24.40625 28.75 24.046875 
Q 25.90625 23.703125 23 23.25 
Q 20.09375 22.796875 17.796875 21.796875 
Q 15.5 20.796875 14.046875 18.9375 
Q 12.59375 17.09375 12.59375 13.90625 
Q 12.59375 11.796875 13.4375 10.34375 
Q 14.296875 8.90625 15.640625 8 
Q 17 7.09375 18.796875 6.6875 
Q 20.59375 6.296875 22.59375 6.296875 
Q 26.796875 6.296875 29.796875 7.4375 
Q 32.796875 8.59375 34.6875 10.34375 
Q 36.59375 12.09375 37.5 14.140625 
Q 38.40625 16.203125 38.40625 18 
z
" id="HelveticaNeue-97"/>
        <path d="M 6.40625 51.703125 
L 6.40625 0 
L 14.90625 0 
L 14.90625 29.203125 
Q 14.90625 32.703125 15.84375 35.640625 
Q 16.796875 38.59375 18.6875 40.796875 
Q 20.59375 43 23.4375 44.203125 
Q 26.296875 45.40625 30.203125 45.40625 
Q 35.09375 45.40625 37.890625 42.59375 
Q 40.703125 39.796875 40.703125 35 
L 40.703125 0 
L 49.203125 0 
L 49.203125 34 
Q 49.203125 38.203125 48.34375 41.640625 
Q 47.5 45.09375 45.390625 47.59375 
Q 43.296875 50.09375 39.890625 51.5 
Q 36.5 52.90625 31.40625 52.90625 
Q 19.90625 52.90625 14.59375 43.5 
L 14.40625 43.5 
L 14.40625 51.703125 
z
" id="HelveticaNeue-110"/>
       </defs>
       <use xlink:href="#HelveticaNeue-74"/>
       <use x="51.899994" xlink:href="#HelveticaNeue-97"/>
       <use x="105.599991" xlink:href="#HelveticaNeue-110"/>
      </g>
      <!-- 2021 -->
      <g style="fill:#555555;" transform="translate(297.398692 287.179688)scale(0.1 -0.1)">
       <defs>
        <path d="M 4.40625 45.796875 
L 12.90625 45.796875 
Q 12.796875 49 13.546875 52.140625 
Q 14.296875 55.296875 16 57.796875 
Q 17.703125 60.296875 20.34375 61.84375 
Q 23 63.40625 26.703125 63.40625 
Q 29.5 63.40625 32 62.5 
Q 34.5 61.59375 36.34375 59.890625 
Q 38.203125 58.203125 39.296875 55.84375 
Q 40.40625 53.5 40.40625 50.59375 
Q 40.40625 46.90625 39.25 44.09375 
Q 38.09375 41.296875 35.84375 38.890625 
Q 33.59375 36.5 30.1875 34.140625 
Q 26.796875 31.796875 22.296875 29 
Q 18.59375 26.796875 15.1875 24.296875 
Q 11.796875 21.796875 9.09375 18.5 
Q 6.40625 15.203125 4.65625 10.75 
Q 2.90625 6.296875 2.40625 0 
L 48.703125 0 
L 48.703125 7.5 
L 12.296875 7.5 
Q 12.90625 10.796875 14.84375 13.34375 
Q 16.796875 15.90625 19.546875 18.09375 
Q 22.296875 20.296875 25.59375 22.25 
Q 28.90625 24.203125 32.203125 26.203125 
Q 35.5 28.296875 38.59375 30.59375 
Q 41.703125 32.90625 44.09375 35.75 
Q 46.5 38.59375 47.953125 42.1875 
Q 49.40625 45.796875 49.40625 50.5 
Q 49.40625 55.5 47.65625 59.296875 
Q 45.90625 63.09375 42.90625 65.640625 
Q 39.90625 68.203125 35.84375 69.546875 
Q 31.796875 70.90625 27.203125 70.90625 
Q 21.59375 70.90625 17.1875 69 
Q 12.796875 67.09375 9.84375 63.75 
Q 6.90625 60.40625 5.5 55.796875 
Q 4.09375 51.203125 4.40625 45.796875 
z
" id="HelveticaNeue-50"/>
        <path d="M 13.203125 34.90625 
Q 13.203125 37.5 13.25 40.640625 
Q 13.296875 43.796875 13.75 46.9375 
Q 14.203125 50.09375 15.046875 53.09375 
Q 15.90625 56.09375 17.546875 58.34375 
Q 19.203125 60.59375 21.703125 62 
Q 24.203125 63.40625 27.796875 63.40625 
Q 31.40625 63.40625 33.90625 62 
Q 36.40625 60.59375 38.046875 58.34375 
Q 39.703125 56.09375 40.546875 53.09375 
Q 41.40625 50.09375 41.84375 46.9375 
Q 42.296875 43.796875 42.34375 40.640625 
Q 42.40625 37.5 42.40625 34.90625 
Q 42.40625 30.90625 42.15625 25.953125 
Q 41.90625 21 40.546875 16.640625 
Q 39.203125 12.296875 36.203125 9.296875 
Q 33.203125 6.296875 27.796875 6.296875 
Q 22.40625 6.296875 19.40625 9.296875 
Q 16.40625 12.296875 15.046875 16.640625 
Q 13.703125 21 13.453125 25.953125 
Q 13.203125 30.90625 13.203125 34.90625 
z
M 4.203125 34.796875 
Q 4.203125 30.90625 4.390625 26.703125 
Q 4.59375 22.5 5.390625 18.5 
Q 6.203125 14.5 7.703125 10.953125 
Q 9.203125 7.40625 11.796875 4.703125 
Q 14.40625 2 18.34375 0.453125 
Q 22.296875 -1.09375 27.796875 -1.09375 
Q 33.40625 -1.09375 37.296875 0.453125 
Q 41.203125 2 43.796875 4.703125 
Q 46.40625 7.40625 47.90625 10.953125 
Q 49.40625 14.5 50.203125 18.5 
Q 51 22.5 51.203125 26.703125 
Q 51.40625 30.90625 51.40625 34.796875 
Q 51.40625 38.703125 51.203125 42.890625 
Q 51 47.09375 50.203125 51.09375 
Q 49.40625 55.09375 47.90625 58.6875 
Q 46.40625 62.296875 43.796875 65 
Q 41.203125 67.703125 37.25 69.296875 
Q 33.296875 70.90625 27.796875 70.90625 
Q 22.296875 70.90625 18.34375 69.296875 
Q 14.40625 67.703125 11.796875 65 
Q 9.203125 62.296875 7.703125 58.6875 
Q 6.203125 55.09375 5.390625 51.09375 
Q 4.59375 47.09375 4.390625 42.890625 
Q 4.203125 38.703125 4.203125 34.796875 
z
" id="HelveticaNeue-48"/>
        <path d="M 35.59375 0 
L 35.59375 70.90625 
L 29.09375 70.90625 
Q 28.40625 66.90625 26.5 64.296875 
Q 24.59375 61.703125 21.84375 60.203125 
Q 19.09375 58.703125 15.6875 58.140625 
Q 12.296875 57.59375 8.703125 57.59375 
L 8.703125 50.796875 
L 27.09375 50.796875 
L 27.09375 0 
z
" id="HelveticaNeue-49"/>
       </defs>
       <use xlink:href="#HelveticaNeue-50"/>
       <use x="55.599991" xlink:href="#HelveticaNeue-48"/>
       <use x="111.199982" xlink:href="#HelveticaNeue-50"/>
       <use x="166.799973" xlink:href="#HelveticaNeue-49"/>
      </g>
     </g>
    </g>
    <g id="xtick_5">
     <g id="line2d_5">
      <g>
       <use style="fill:#555555;stroke:#555555;stroke-width:0.8;" x="389.622093" xlink:href="#m6a9db37bf9" y="262.5"/>
      </g>
     </g>
     <g id="text_4">
      <!-- Apr -->
      <g style="fill:#555555;" transform="translate(381.752562 276.640625)scale(0.1 -0.1)">
       <defs>
        <path d="M 20.09375 29.5 
L 32.203125 62.796875 
L 32.40625 62.796875 
L 44.296875 29.5 
z
M 27.203125 71.40625 
L -0.59375 0 
L 9.09375 0 
L 17.09375 21.5 
L 47.296875 21.5 
L 55.09375 0 
L 65.59375 0 
L 37.703125 71.40625 
z
" id="HelveticaNeue-65"/>
        <path d="M 6.703125 51.703125 
L 6.703125 -19.703125 
L 15.203125 -19.703125 
L 15.203125 6.90625 
L 15.40625 6.90625 
Q 16.796875 4.59375 18.84375 3.046875 
Q 20.90625 1.5 23.203125 0.59375 
Q 25.5 -0.296875 27.84375 -0.6875 
Q 30.203125 -1.09375 32.09375 -1.09375 
Q 38 -1.09375 42.453125 1 
Q 46.90625 3.09375 49.84375 6.75 
Q 52.796875 10.40625 54.25 15.296875 
Q 55.703125 20.203125 55.703125 25.703125 
Q 55.703125 31.203125 54.203125 36.09375 
Q 52.703125 41 49.75 44.75 
Q 46.796875 48.5 42.34375 50.703125 
Q 37.90625 52.90625 31.90625 52.90625 
Q 26.5 52.90625 22 50.953125 
Q 17.5 49 15.40625 44.703125 
L 15.203125 44.703125 
L 15.203125 51.703125 
z
M 46.703125 26.296875 
Q 46.703125 22.5 45.890625 18.890625 
Q 45.09375 15.296875 43.296875 12.5 
Q 41.5 9.703125 38.546875 8 
Q 35.59375 6.296875 31.203125 6.296875 
Q 26.796875 6.296875 23.6875 7.9375 
Q 20.59375 9.59375 18.640625 12.296875 
Q 16.703125 15 15.796875 18.546875 
Q 14.90625 22.09375 14.90625 25.90625 
Q 14.90625 29.5 15.75 33 
Q 16.59375 36.5 18.5 39.25 
Q 20.40625 42 23.40625 43.703125 
Q 26.40625 45.40625 30.703125 45.40625 
Q 34.796875 45.40625 37.84375 43.796875 
Q 40.90625 42.203125 42.84375 39.5 
Q 44.796875 36.796875 45.75 33.34375 
Q 46.703125 29.90625 46.703125 26.296875 
z
" id="HelveticaNeue-112"/>
        <path d="M 6.09375 51.703125 
L 6.09375 0 
L 14.59375 0 
L 14.59375 23 
Q 14.59375 28 15.59375 31.84375 
Q 16.59375 35.703125 18.796875 38.390625 
Q 21 41.09375 24.59375 42.5 
Q 28.203125 43.90625 33.296875 43.90625 
L 33.296875 52.90625 
Q 26.40625 53.09375 21.90625 50.09375 
Q 17.40625 47.09375 14.296875 40.796875 
L 14.09375 40.796875 
L 14.09375 51.703125 
z
" id="HelveticaNeue-114"/>
       </defs>
       <use xlink:href="#HelveticaNeue-65"/>
       <use x="64.799988" xlink:href="#HelveticaNeue-112"/>
       <use x="124.099976" xlink:href="#HelveticaNeue-114"/>
      </g>
     </g>
    </g>
    <g id="xtick_6">
     <g id="line2d_6">
      <g>
       <use style="fill:#555555;stroke:#555555;stroke-width:0.8;" x="450" xlink:href="#m6a9db37bf9" y="262.5"/>
      </g>
     </g>
    </g>
    <g id="xtick_7">
     <g id="line2d_7">
      <defs>
       <path d="M 0 0 
L 0 2 
" id="me59082952c" style="stroke:#555555;stroke-width:0.6;"/>
      </defs>
      <g>
       <use style="fill:#555555;stroke:#555555;stroke-width:0.6;" x="87.732558" xlink:href="#me59082952c" y="262.5"/>
      </g>
     </g>
    </g>
    <g id="xtick_8">
     <g id="line2d_8">
      <g>
       <use style="fill:#555555;stroke:#555555;stroke-width:0.6;" x="115.668605" xlink:href="#me59082952c" y="262.5"/>
      </g>
     </g>
    </g>
    <g id="xtick_9">
     <g id="line2d_9">
      <g>
       <use style="fill:#555555;stroke:#555555;stroke-width:0.6;" x="170.639535" xlink:href="#me59082952c" y="262.5"/>
      </g>
     </g>
    </g>
    <g id="xtick_10">
     <g id="line2d_10">
      <g>
       <use style="fill:#555555;stroke:#555555;stroke-width:0.6;" x="198.575581" xlink:href="#me59082952c" y="262.5"/>
      </g>
     </g>
    </g>
    <g id="xtick_11">
     <g id="line2d_11">
      <g>
       <use style="fill:#555555;stroke:#555555;stroke-width:0.6;" x="253.546512" xlink:href="#me59082952c" y="262.5"/>
      </g>
     </g>
    </g>
    <g id="xtick_12">
     <g id="line2d_12">
      <g>
       <use style="fill:#555555;stroke:#555555;stroke-width:0.6;" x="280.581395" xlink:href="#me59082952c" y="262.5"/>
      </g>
     </g>
    </g>
    <g id="xtick_13">
     <g id="line2d_13">
      <g>
       <use style="fill:#555555;stroke:#555555;stroke-width:0.6;" x="336.453488" xlink:href="#me59082952c" y="262.5"/>
      </g>
     </g>
    </g>
    <g id="xtick_14">
     <g id="line2d_14">
      <g>
       <use style="fill:#555555;stroke:#555555;stroke-width:0.6;" x="361.686047" xlink:href="#me59082952c" y="262.5"/>
      </g>
     </g>
    </g>
    <g id="xtick_15">
     <g id="line2d_15">
      <g>
       <use style="fill:#555555;stroke:#555555;stroke-width:0.6;" x="416.656977" xlink:href="#me59082952c" y="262.5"/>
      </g>
     </g>
    </g>
    <g id="xtick_16">
     <g id="line2d_16">
      <g>
       <use style="fill:#555555;stroke:#555555;stroke-width:0.6;" x="444.593023" xlink:href="#me59082952c" y="262.5"/>
      </g>
     </g>
    </g>
    <g id="text_5">
     <!-- fecha -->
     <g style="fill:#555555;" transform="translate(243.935156 300.290625)scale(0.1 -0.1)">
      <defs>
       <path d="M 9.90625 44.203125 
L 9.90625 0 
L 18.40625 0 
L 18.40625 44.203125 
L 28.40625 44.203125 
L 28.40625 51.703125 
L 18.40625 51.703125 
L 18.40625 58.90625 
Q 18.40625 62.296875 20.09375 63.5 
Q 21.796875 64.703125 24.90625 64.703125 
Q 26 64.703125 27.296875 64.546875 
Q 28.59375 64.40625 29.703125 64 
L 29.703125 71.40625 
Q 28.5 71.796875 26.953125 72 
Q 25.40625 72.203125 24.203125 72.203125 
Q 17.203125 72.203125 13.546875 68.953125 
Q 9.90625 65.703125 9.90625 59.40625 
L 9.90625 51.703125 
L 1.203125 51.703125 
L 1.203125 44.203125 
z
" id="HelveticaNeue-102"/>
       <path d="M 42.296875 30.796875 
L 12.59375 30.796875 
Q 12.796875 33.796875 13.890625 36.4375 
Q 15 39.09375 16.890625 41.09375 
Q 18.796875 43.09375 21.4375 44.25 
Q 24.09375 45.40625 27.40625 45.40625 
Q 30.59375 45.40625 33.25 44.25 
Q 35.90625 43.09375 37.84375 41.140625 
Q 39.796875 39.203125 40.9375 36.5 
Q 42.09375 33.796875 42.296875 30.796875 
z
M 50.5 16.40625 
L 42.09375 16.40625 
Q 41 11.296875 37.546875 8.796875 
Q 34.09375 6.296875 28.703125 6.296875 
Q 24.5 6.296875 21.390625 7.6875 
Q 18.296875 9.09375 16.296875 11.4375 
Q 14.296875 13.796875 13.390625 16.84375 
Q 12.5 19.90625 12.59375 23.296875 
L 51.296875 23.296875 
Q 51.5 28 50.453125 33.203125 
Q 49.40625 38.40625 46.65625 42.796875 
Q 43.90625 47.203125 39.34375 50.046875 
Q 34.796875 52.90625 27.90625 52.90625 
Q 22.59375 52.90625 18.140625 50.90625 
Q 13.703125 48.90625 10.453125 45.296875 
Q 7.203125 41.703125 5.390625 36.796875 
Q 3.59375 31.90625 3.59375 26 
Q 3.796875 20.09375 5.34375 15.09375 
Q 6.90625 10.09375 10 6.5 
Q 13.09375 2.90625 17.640625 0.90625 
Q 22.203125 -1.09375 28.40625 -1.09375 
Q 37.203125 -1.09375 43 3.296875 
Q 48.796875 7.703125 50.5 16.40625 
z
" id="HelveticaNeue-101"/>
       <path d="M 6.40625 71.40625 
L 6.40625 0 
L 14.90625 0 
L 14.90625 29.203125 
Q 14.90625 32.703125 15.84375 35.640625 
Q 16.796875 38.59375 18.6875 40.796875 
Q 20.59375 43 23.4375 44.203125 
Q 26.296875 45.40625 30.203125 45.40625 
Q 35.09375 45.40625 37.890625 42.59375 
Q 40.703125 39.796875 40.703125 35 
L 40.703125 0 
L 49.203125 0 
L 49.203125 34 
Q 49.203125 38.203125 48.34375 41.640625 
Q 47.5 45.09375 45.390625 47.59375 
Q 43.296875 50.09375 39.890625 51.5 
Q 36.5 52.90625 31.40625 52.90625 
Q 29.09375 52.90625 26.640625 52.40625 
Q 24.203125 51.90625 21.953125 50.84375 
Q 19.703125 49.796875 17.890625 48.140625 
Q 16.09375 46.5 15.09375 44.09375 
L 14.90625 44.09375 
L 14.90625 71.40625 
z
" id="HelveticaNeue-104"/>
      </defs>
      <use xlink:href="#HelveticaNeue-102"/>
      <use x="29.599991" xlink:href="#HelveticaNeue-101"/>
      <use x="83.299988" xlink:href="#HelveticaNeue-99"/>
      <use x="136.999985" xlink:href="#HelveticaNeue-104"/>
      <use x="192.599976" xlink:href="#HelveticaNeue-97"/>
     </g>
    </g>
   </g>
   <g id="matplotlib.axis_2">
    <g id="ytick_1">
     <g id="line2d_17">
      <defs>
       <path d="M 0 0 
L -3.5 0 
" id="mf003553eba" style="stroke:#555555;stroke-width:0.8;"/>
      </defs>
      <g>
       <use style="fill:#555555;stroke:#555555;stroke-width:0.8;" x="62.5" xlink:href="#mf003553eba" y="251.795455"/>
      </g>
     </g>
     <g id="text_6">
      <!-- 0 -->
      <g style="fill:#555555;" transform="translate(49.940625 255.365767)scale(0.1 -0.1)">
       <use xlink:href="#HelveticaNeue-48"/>
      </g>
     </g>
    </g>
    <g id="ytick_2">
     <g id="line2d_18">
      <g>
       <use style="fill:#555555;stroke:#555555;stroke-width:0.8;" x="62.5" xlink:href="#mf003553eba" y="202.006871"/>
      </g>
     </g>
     <g id="text_7">
      <!-- 50 -->
      <g style="fill:#555555;" transform="translate(44.38125 205.577184)scale(0.1 -0.1)">
       <defs>
        <path d="M 47 62.203125 
L 47 69.703125 
L 12 69.703125 
L 5.40625 32.90625 
L 12.703125 32.5 
Q 15.203125 35.5 18.453125 37.34375 
Q 21.703125 39.203125 25.90625 39.203125 
Q 29.5 39.203125 32.453125 38 
Q 35.40625 36.796875 37.5 34.640625 
Q 39.59375 32.5 40.75 29.546875 
Q 41.90625 26.59375 41.90625 23.09375 
Q 41.90625 18.90625 40.703125 15.75 
Q 39.5 12.59375 37.453125 10.5 
Q 35.40625 8.40625 32.65625 7.34375 
Q 29.90625 6.296875 26.90625 6.296875 
Q 23.703125 6.296875 21.046875 7.25 
Q 18.40625 8.203125 16.453125 9.953125 
Q 14.5 11.703125 13.34375 14.046875 
Q 12.203125 16.40625 12 19.09375 
L 3.5 19.09375 
Q 3.59375 14.296875 5.390625 10.5 
Q 7.203125 6.703125 10.296875 4.140625 
Q 13.40625 1.59375 17.453125 0.25 
Q 21.5 -1.09375 26.09375 -1.09375 
Q 32.296875 -1.09375 36.9375 0.84375 
Q 41.59375 2.796875 44.6875 6.09375 
Q 47.796875 9.40625 49.34375 13.65625 
Q 50.90625 17.90625 50.90625 22.40625 
Q 50.90625 28.5 49.09375 33.046875 
Q 47.296875 37.59375 44.1875 40.640625 
Q 41.09375 43.703125 36.890625 45.203125 
Q 32.703125 46.703125 28 46.703125 
Q 24.40625 46.703125 20.75 45.453125 
Q 17.09375 44.203125 14.796875 41.59375 
L 14.59375 41.796875 
L 18.40625 62.203125 
z
" id="HelveticaNeue-53"/>
       </defs>
       <use xlink:href="#HelveticaNeue-53"/>
       <use x="55.599991" xlink:href="#HelveticaNeue-48"/>
      </g>
     </g>
    </g>
    <g id="ytick_3">
     <g id="line2d_19">
      <g>
       <use style="fill:#555555;stroke:#555555;stroke-width:0.8;" x="62.5" xlink:href="#mf003553eba" y="152.218288"/>
      </g>
     </g>
     <g id="text_8">
      <!-- 100 -->
      <g style="fill:#555555;" transform="translate(38.821875 155.7886)scale(0.1 -0.1)">
       <use xlink:href="#HelveticaNeue-49"/>
       <use x="55.599991" xlink:href="#HelveticaNeue-48"/>
       <use x="111.199982" xlink:href="#HelveticaNeue-48"/>
      </g>
     </g>
    </g>
    <g id="ytick_4">
     <g id="line2d_20">
      <g>
       <use style="fill:#555555;stroke:#555555;stroke-width:0.8;" x="62.5" xlink:href="#mf003553eba" y="102.429704"/>
      </g>
     </g>
     <g id="text_9">
      <!-- 150 -->
      <g style="fill:#555555;" transform="translate(38.821875 106.000017)scale(0.1 -0.1)">
       <use xlink:href="#HelveticaNeue-49"/>
       <use x="55.599991" xlink:href="#HelveticaNeue-53"/>
       <use x="111.199982" xlink:href="#HelveticaNeue-48"/>
      </g>
     </g>
    </g>
    <g id="ytick_5">
     <g id="line2d_21">
      <g>
       <use style="fill:#555555;stroke:#555555;stroke-width:0.8;" x="62.5" xlink:href="#mf003553eba" y="52.641121"/>
      </g>
     </g>
     <g id="text_10">
      <!-- 200 -->
      <g style="fill:#555555;" transform="translate(38.821875 56.211433)scale(0.1 -0.1)">
       <use xlink:href="#HelveticaNeue-50"/>
       <use x="55.599991" xlink:href="#HelveticaNeue-48"/>
       <use x="111.199982" xlink:href="#HelveticaNeue-48"/>
      </g>
     </g>
    </g>
   </g>
   <g id="line2d_22">
    <path clip-path="url(#p54d743e153)" d="M 63.401163 248.80814 
L 64.302326 251.795455 
L 65.203488 248.80814 
L 66.104651 247.812368 
L 67.005814 250.799683 
L 67.906977 249.803911 
L 69.709302 251.795455 
L 70.610465 247.812368 
L 71.511628 249.803911 
L 72.412791 250.799683 
L 73.313953 248.80814 
L 74.215116 251.795455 
L 75.116279 249.803911 
L 76.017442 248.80814 
L 76.918605 249.803911 
L 77.819767 246.816596 
L 78.72093 251.795455 
L 81.424419 251.795455 
L 82.325581 248.80814 
L 83.226744 249.803911 
L 85.02907 249.803911 
L 85.930233 251.795455 
L 86.831395 245.820825 
L 87.732558 251.795455 
L 88.633721 247.812368 
L 89.534884 248.80814 
L 90.436047 247.812368 
L 91.337209 248.80814 
L 92.238372 250.799683 
L 93.139535 243.829281 
L 94.040698 249.803911 
L 94.94186 250.799683 
L 95.843023 248.80814 
L 96.744186 240.841966 
L 97.645349 247.812368 
L 98.546512 249.803911 
L 99.447674 249.803911 
L 100.348837 243.829281 
L 101.25 248.80814 
L 102.151163 249.803911 
L 103.052326 249.803911 
L 103.953488 246.816596 
L 104.854651 244.825053 
L 105.755814 248.80814 
L 107.55814 242.83351 
L 108.459302 248.80814 
L 109.360465 243.829281 
L 110.261628 245.820825 
L 111.162791 243.829281 
L 112.063953 240.841966 
L 112.965116 241.837738 
L 113.866279 247.812368 
L 114.767442 241.837738 
L 115.668605 249.803911 
L 116.569767 242.83351 
L 117.47093 234.867336 
L 118.372093 240.841966 
L 119.273256 245.820825 
L 120.174419 245.820825 
L 121.075581 243.829281 
L 121.976744 242.83351 
L 122.877907 235.863108 
L 123.77907 245.820825 
L 124.680233 243.829281 
L 125.581395 247.812368 
L 126.482558 241.837738 
L 127.383721 244.825053 
L 128.284884 236.858879 
L 129.186047 227.896934 
L 130.087209 233.871564 
L 130.988372 233.871564 
L 131.889535 236.858879 
L 132.790698 222.918076 
L 133.69186 241.837738 
L 134.593023 188.066068 
L 135.494186 237.854651 
L 136.395349 202.006871 
L 137.296512 231.880021 
L 138.197674 224.909619 
L 139.098837 227.896934 
L 140 207.981501 
L 140.901163 220.926533 
L 141.802326 207.981501 
L 142.703488 204.994186 
L 143.604651 209.973044 
L 144.505814 234.867336 
L 145.406977 218.934989 
L 146.30814 223.913848 
L 147.209302 219.930761 
L 148.110465 203.002643 
L 149.011628 158.192918 
L 149.912791 205.989958 
L 150.813953 184.082981 
L 151.715116 168.150634 
L 152.616279 196.032241 
L 153.517442 204.994186 
L 154.418605 193.044926 
L 155.319767 199.019556 
L 156.22093 189.061839 
L 157.122093 200.015328 
L 158.924419 148.235201 
L 159.825581 216.943446 
L 160.726744 170.142178 
L 161.627907 159.188689 
L 162.52907 168.150634 
L 163.430233 145.247886 
L 164.331395 93.467759 
L 165.232558 131.307082 
L 166.133721 96.455074 
L 167.936047 187.070296 
L 168.837209 143.256342 
L 169.738372 123.340909 
L 170.639535 118.362051 
L 171.540698 197.028013 
L 172.44186 199.019556 
L 173.343023 136.285941 
L 174.244186 136.285941 
L 175.145349 151.222516 
L 176.046512 184.082981 
L 176.947674 171.137949 
L 177.848837 183.087209 
L 178.75 144.252114 
L 179.651163 114.378964 
L 180.552326 171.137949 
L 181.453488 179.104123 
L 182.354651 147.239429 
L 183.255814 135.290169 
L 184.156977 193.044926 
L 185.05814 157.197146 
L 185.959302 127.323996 
L 186.860465 206.985729 
L 187.761628 140.269027 
L 188.662791 131.307082 
L 189.563953 184.082981 
L 190.465116 190.057611 
L 191.366279 200.015328 
L 192.267442 193.044926 
L 193.168605 181.095666 
L 194.069767 222.918076 
L 194.97093 168.150634 
L 195.872093 191.053383 
L 196.773256 191.053383 
L 197.674419 190.057611 
L 198.575581 201.011099 
L 199.476744 192.049154 
L 200.377907 164.167548 
L 201.27907 215.947674 
L 202.180233 199.019556 
L 203.081395 201.011099 
L 203.982558 184.082981 
L 204.883721 215.947674 
L 205.784884 193.044926 
L 206.686047 187.070296 
L 207.587209 204.994186 
L 208.488372 210.968816 
L 209.389535 236.858879 
L 210.290698 183.087209 
L 211.19186 205.989958 
L 212.093023 179.104123 
L 212.994186 170.142178 
L 213.895349 203.998414 
L 214.796512 213.956131 
L 215.697674 167.154863 
L 216.598837 212.960359 
L 217.5 203.998414 
L 218.401163 202.006871 
L 219.302326 195.036469 
L 220.203488 226.901163 
L 221.104651 193.044926 
L 222.005814 232.875793 
L 222.906977 221.922304 
L 223.80814 194.040698 
L 224.709302 218.934989 
L 225.610465 223.913848 
L 226.511628 200.015328 
L 227.412791 158.192918 
L 228.313953 203.998414 
L 229.215116 217.939218 
L 230.116279 207.981501 
L 231.017442 188.066068 
L 231.918605 189.061839 
L 232.819767 212.960359 
L 233.72093 207.981501 
L 234.622093 229.888478 
L 235.523256 221.922304 
L 236.424419 233.871564 
L 237.325581 207.981501 
L 238.226744 195.036469 
L 239.127907 212.960359 
L 240.02907 220.926533 
L 240.930233 225.905391 
L 241.831395 214.951903 
L 242.732558 192.049154 
L 243.633721 207.981501 
L 244.534884 207.981501 
L 245.436047 203.998414 
L 246.337209 226.901163 
L 247.238372 212.960359 
L 248.139535 214.951903 
L 249.040698 194.040698 
L 249.94186 192.049154 
L 250.843023 214.951903 
L 251.744186 213.956131 
L 252.645349 213.956131 
L 253.546512 221.922304 
L 254.447674 188.066068 
L 255.348837 184.082981 
L 257.151163 224.909619 
L 258.052326 213.956131 
L 258.953488 224.909619 
L 259.854651 227.896934 
L 260.755814 213.956131 
L 261.656977 208.977273 
L 262.55814 222.918076 
L 263.459302 218.934989 
L 264.360465 235.863108 
L 265.261628 231.880021 
L 266.162791 218.934989 
L 267.063953 215.947674 
L 267.965116 218.934989 
L 268.866279 208.977273 
L 269.767442 203.002643 
L 270.668605 215.947674 
L 271.569767 195.036469 
L 272.47093 201.011099 
L 273.372093 220.926533 
L 274.273256 198.023784 
L 275.174419 184.082981 
L 276.075581 194.040698 
L 276.976744 98.446617 
L 277.877907 219.930761 
L 278.77907 234.867336 
L 280.581395 188.066068 
L 281.482558 208.977273 
L 282.383721 233.871564 
L 283.284884 164.167548 
L 284.186047 205.989958 
L 285.087209 237.854651 
L 285.988372 195.036469 
L 286.889535 194.040698 
L 287.790698 177.112579 
L 288.69186 176.116808 
L 289.593023 205.989958 
L 290.494186 191.053383 
L 291.395349 190.057611 
L 292.296512 201.011099 
L 293.197674 180.099894 
L 294.098837 129.315539 
L 295 213.956131 
L 295.901163 183.087209 
L 296.802326 171.137949 
L 297.703488 199.019556 
L 298.604651 184.082981 
L 299.505814 173.129493 
L 300.406977 184.082981 
L 301.30814 156.201374 
L 302.209302 191.053383 
L 303.110465 186.074524 
L 304.011628 203.002643 
L 304.912791 156.201374 
L 305.813953 151.222516 
L 306.715116 142.260571 
L 307.616279 197.028013 
L 308.517442 211.964588 
L 309.418605 159.188689 
L 310.319767 151.222516 
L 311.22093 131.307082 
L 312.122093 130.311311 
L 313.023256 112.387421 
L 313.924419 157.197146 
L 314.825581 135.290169 
L 315.726744 165.163319 
L 316.627907 171.137949 
L 317.52907 164.167548 
L 318.430233 73.552326 
L 319.331395 129.315539 
L 320.232558 106.412791 
L 321.133721 102.429704 
L 322.034884 126.328224 
L 322.936047 155.205603 
L 323.837209 174.125264 
L 324.738372 146.243658 
L 325.639535 167.154863 
L 326.540698 171.137949 
L 327.44186 161.180233 
L 328.343023 164.167548 
L 329.244186 180.099894 
L 330.145349 163.171776 
L 331.046512 152.218288 
L 332.848837 179.104123 
L 333.75 198.023784 
L 334.651163 187.070296 
L 335.552326 195.036469 
L 336.453488 225.905391 
L 337.354651 211.964588 
L 338.255814 200.015328 
L 339.156977 226.901163 
L 340.05814 206.985729 
L 340.959302 232.875793 
L 341.860465 240.841966 
L 342.761628 231.880021 
L 343.662791 225.905391 
L 344.563953 216.943446 
L 345.465116 219.930761 
L 346.366279 233.871564 
L 347.267442 214.951903 
L 348.168605 233.871564 
L 349.97093 225.905391 
L 350.872093 228.892706 
L 351.773256 227.896934 
L 352.674419 229.888478 
L 353.575581 238.850423 
L 354.476744 234.867336 
L 355.377907 248.80814 
L 356.27907 234.867336 
L 357.180233 230.884249 
L 358.081395 236.858879 
L 358.982558 238.850423 
L 359.883721 241.837738 
L 360.784884 237.854651 
L 361.686047 239.846195 
L 362.587209 217.939218 
L 363.488372 228.892706 
L 364.389535 236.858879 
L 365.290698 228.892706 
L 366.19186 242.83351 
L 367.093023 237.854651 
L 367.994186 231.880021 
L 368.895349 235.863108 
L 369.796512 229.888478 
L 370.697674 244.825053 
L 371.598837 236.858879 
L 372.5 235.863108 
L 373.401163 228.892706 
L 374.302326 241.837738 
L 375.203488 240.841966 
L 376.104651 234.867336 
L 377.005814 233.871564 
L 377.906977 240.841966 
L 378.80814 236.858879 
L 379.709302 237.854651 
L 380.610465 244.825053 
L 381.511628 235.863108 
L 383.313953 225.905391 
L 384.215116 225.905391 
L 385.116279 244.825053 
L 386.017442 242.83351 
L 386.918605 222.918076 
L 387.819767 224.909619 
L 388.72093 223.913848 
L 389.622093 234.867336 
L 390.523256 217.939218 
L 391.424419 224.909619 
L 392.325581 241.837738 
L 393.226744 215.947674 
L 394.127907 205.989958 
L 395.02907 206.985729 
L 395.930233 188.066068 
L 396.831395 211.964588 
L 397.732558 196.032241 
L 398.633721 147.239429 
L 399.534884 176.116808 
L 400.436047 171.137949 
L 401.337209 173.129493 
L 402.238372 170.142178 
L 403.139535 154.209831 
L 404.040698 153.214059 
L 404.94186 207.981501 
L 405.843023 115.374736 
L 406.744186 155.205603 
L 407.645349 177.112579 
L 408.546512 173.129493 
L 409.447674 179.104123 
L 410.348837 187.070296 
L 411.25 167.154863 
L 412.151163 162.176004 
L 413.052326 165.163319 
L 413.953488 186.074524 
L 414.854651 146.243658 
L 415.755814 158.192918 
L 416.656977 177.112579 
L 417.55814 173.129493 
L 418.459302 128.319767 
L 419.360465 177.112579 
L 420.261628 144.252114 
L 421.162791 118.362051 
L 422.965116 168.150634 
L 423.866279 200.015328 
L 424.767442 143.256342 
L 425.668605 147.239429 
L 426.569767 178.108351 
L 427.47093 153.214059 
L 428.372093 148.235201 
L 429.273256 197.028013 
L 430.174419 178.108351 
L 431.075581 154.209831 
L 431.976744 155.205603 
L 432.877907 146.243658 
L 433.77907 130.311311 
L 434.680233 154.209831 
L 435.581395 182.091438 
L 436.482558 118.362051 
L 437.383721 117.366279 
L 438.284884 109.400106 
L 439.186047 73.552326 
L 440.087209 90.480444 
L 440.988372 134.294397 
L 441.889535 37.704545 
L 442.790698 162.176004 
L 443.69186 136.285941 
L 444.593023 56.624207 
L 445.494186 74.548097 
L 446.395349 67.577696 
L 447.296512 126.328224 
L 448.197674 157.197146 
L 449.098837 41.687632 
L 450 217.939218 
L 450 217.939218 
" style="fill:none;stroke:#000000;stroke-dasharray:1.5,2.475;stroke-dashoffset:0;stroke-opacity:0.5;stroke-width:1.5;"/>
   </g>
   <g id="line2d_23">
    <path clip-path="url(#p54d743e153)" d="M 62.5 249.803911 
L 77.819767 249.803911 
L 78.72093 250.799683 
L 83.226744 250.799683 
L 84.127907 249.803911 
L 86.831395 249.803911 
L 87.732558 248.80814 
L 90.436047 248.80814 
L 91.337209 247.812368 
L 92.238372 248.80814 
L 93.139535 248.80814 
L 94.040698 247.812368 
L 96.744186 247.812368 
L 97.645349 246.816596 
L 98.546512 246.816596 
L 100.348837 248.80814 
L 101.25 248.80814 
L 102.151163 247.812368 
L 103.953488 247.812368 
L 104.854651 246.816596 
L 105.755814 246.816596 
L 106.656977 245.820825 
L 108.459302 245.820825 
L 110.261628 243.829281 
L 111.162791 244.825053 
L 112.063953 243.829281 
L 114.767442 243.829281 
L 115.668605 242.83351 
L 119.273256 242.83351 
L 120.174419 241.837738 
L 121.075581 242.83351 
L 123.77907 242.83351 
L 124.680233 243.829281 
L 126.482558 241.837738 
L 130.087209 233.871564 
L 130.988372 232.875793 
L 131.889535 227.896934 
L 132.790698 227.896934 
L 133.69186 223.913848 
L 135.494186 219.930761 
L 136.395349 220.926533 
L 137.296512 218.934989 
L 138.197674 221.922304 
L 139.098837 218.934989 
L 140 217.939218 
L 140.901163 214.951903 
L 142.703488 214.951903 
L 143.604651 216.943446 
L 144.505814 217.939218 
L 145.406977 217.939218 
L 146.30814 212.960359 
L 147.209302 208.977273 
L 148.110465 201.011099 
L 149.011628 194.040698 
L 149.912791 189.061839 
L 150.813953 187.070296 
L 151.715116 187.070296 
L 152.616279 192.049154 
L 153.517442 192.049154 
L 154.418605 194.040698 
L 155.319767 194.040698 
L 156.22093 188.066068 
L 157.122093 187.070296 
L 158.023256 184.082981 
L 158.924419 180.099894 
L 159.825581 177.112579 
L 160.726744 170.142178 
L 161.627907 160.184461 
L 162.52907 154.209831 
L 163.430233 138.277484 
L 164.331395 131.307082 
L 165.232558 132.302854 
L 166.133721 131.307082 
L 167.034884 133.298626 
L 167.936047 137.281712 
L 168.837209 144.252114 
L 169.738372 155.205603 
L 170.639535 156.201374 
L 171.540698 153.214059 
L 172.44186 155.205603 
L 173.343023 160.184461 
L 174.244186 164.167548 
L 175.145349 163.171776 
L 176.046512 160.184461 
L 176.947674 159.188689 
L 178.75 161.180233 
L 180.552326 153.214059 
L 181.453488 155.205603 
L 182.354651 158.192918 
L 183.255814 159.188689 
L 184.156977 162.176004 
L 185.05814 159.188689 
L 185.959302 158.192918 
L 186.860465 161.180233 
L 187.761628 161.180233 
L 188.662791 167.154863 
L 189.563953 176.116808 
L 190.465116 177.112579 
L 191.366279 187.070296 
L 192.267442 192.049154 
L 193.168605 193.044926 
L 194.97093 191.053383 
L 196.773256 193.044926 
L 197.674419 187.070296 
L 198.575581 192.049154 
L 200.377907 194.040698 
L 201.27907 194.040698 
L 202.180233 196.032241 
L 203.081395 197.028013 
L 203.982558 199.019556 
L 204.883721 198.023784 
L 205.784884 199.019556 
L 206.686047 203.002643 
L 207.587209 204.994186 
L 208.488372 204.994186 
L 209.389535 203.002643 
L 211.19186 197.028013 
L 212.093023 196.032241 
L 212.994186 189.061839 
L 213.895349 192.049154 
L 214.796512 193.044926 
L 215.697674 197.028013 
L 216.598837 200.015328 
L 217.5 202.006871 
L 218.401163 202.006871 
L 219.302326 207.981501 
L 220.203488 209.973044 
L 221.104651 210.968816 
L 222.906977 214.951903 
L 223.80814 212.960359 
L 225.610465 203.002643 
L 226.511628 202.006871 
L 227.412791 202.006871 
L 229.215116 196.032241 
L 230.116279 198.023784 
L 231.017442 203.002643 
L 231.918605 205.989958 
L 232.819767 206.985729 
L 234.622093 216.943446 
L 235.523256 217.939218 
L 236.424419 216.943446 
L 237.325581 216.943446 
L 238.226744 214.951903 
L 239.127907 214.951903 
L 240.02907 211.964588 
L 241.831395 211.964588 
L 242.732558 209.973044 
L 243.633721 209.973044 
L 244.534884 208.977273 
L 246.337209 210.968816 
L 247.238372 208.977273 
L 248.139535 207.981501 
L 249.040698 207.981501 
L 249.94186 206.985729 
L 250.843023 208.977273 
L 251.744186 206.985729 
L 252.645349 205.989958 
L 255.348837 205.989958 
L 257.151163 209.973044 
L 258.052326 214.951903 
L 258.953488 217.939218 
L 259.854651 219.930761 
L 260.755814 218.934989 
L 261.656977 220.926533 
L 262.55814 221.922304 
L 263.459302 221.922304 
L 265.261628 223.913848 
L 266.162791 221.922304 
L 267.965116 215.947674 
L 268.866279 210.968816 
L 269.767442 207.981501 
L 270.668605 207.981501 
L 271.569767 205.989958 
L 272.47093 203.002643 
L 273.372093 202.006871 
L 274.273256 188.066068 
L 275.174419 187.070296 
L 276.075581 188.066068 
L 276.976744 188.066068 
L 277.877907 190.057611 
L 278.77907 196.032241 
L 279.680233 203.002643 
L 280.581395 208.977273 
L 281.482558 205.989958 
L 282.383721 205.989958 
L 283.284884 204.994186 
L 284.186047 205.989958 
L 285.087209 202.006871 
L 285.988372 196.032241 
L 286.889535 198.023784 
L 287.790698 194.040698 
L 288.69186 189.061839 
L 289.593023 190.057611 
L 290.494186 190.057611 
L 291.395349 185.078753 
L 292.296512 186.074524 
L 294.098837 180.099894 
L 295 181.095666 
L 296.802326 181.095666 
L 297.703488 186.074524 
L 298.604651 180.099894 
L 300.406977 180.099894 
L 301.30814 181.095666 
L 303.110465 177.112579 
L 304.011628 172.133721 
L 305.813953 174.125264 
L 306.715116 173.129493 
L 307.616279 169.146406 
L 308.517442 167.154863 
L 309.418605 163.171776 
L 311.22093 147.239429 
L 312.122093 138.277484 
L 313.023256 138.277484 
L 313.924419 142.260571 
L 314.825581 148.235201 
L 315.726744 144.252114 
L 316.627907 144.252114 
L 317.52907 136.285941 
L 318.430233 129.315539 
L 319.331395 121.349366 
L 320.232558 119.357822 
L 321.133721 122.345137 
L 322.034884 133.298626 
L 322.936047 141.264799 
L 323.837209 151.222516 
L 324.738372 158.192918 
L 325.639535 163.171776 
L 326.540698 165.163319 
L 327.44186 165.163319 
L 328.343023 166.159091 
L 329.244186 165.163319 
L 330.145349 166.159091 
L 331.046512 170.142178 
L 331.947674 173.129493 
L 332.848837 177.112579 
L 334.651163 195.036469 
L 335.552326 200.015328 
L 336.453488 206.985729 
L 337.354651 208.977273 
L 339.156977 218.934989 
L 340.959302 224.909619 
L 341.860465 226.901163 
L 342.761628 226.901163 
L 343.662791 227.896934 
L 344.563953 225.905391 
L 345.465116 224.909619 
L 347.267442 224.909619 
L 348.168605 226.901163 
L 349.069767 227.896934 
L 349.97093 227.896934 
L 350.872093 229.888478 
L 351.773256 230.884249 
L 353.575581 234.867336 
L 356.27907 237.854651 
L 358.982558 237.854651 
L 359.883721 235.863108 
L 363.488372 231.880021 
L 364.389535 232.875793 
L 365.290698 232.875793 
L 366.19186 234.867336 
L 367.093023 234.867336 
L 368.895349 236.858879 
L 369.796512 235.863108 
L 371.598837 235.863108 
L 372.5 236.858879 
L 373.401163 236.858879 
L 374.302326 235.863108 
L 375.203488 236.858879 
L 376.104651 236.858879 
L 377.005814 237.854651 
L 379.709302 237.854651 
L 380.610465 236.858879 
L 381.511628 234.867336 
L 382.412791 233.871564 
L 383.313953 234.867336 
L 384.215116 232.875793 
L 386.017442 230.884249 
L 386.918605 230.884249 
L 387.819767 229.888478 
L 388.72093 226.901163 
L 390.523256 226.901163 
L 391.424419 224.909619 
L 392.325581 221.922304 
L 393.226744 215.947674 
L 394.127907 212.960359 
L 395.02907 207.981501 
L 395.930233 197.028013 
L 397.732558 185.078753 
L 398.633721 180.099894 
L 399.534884 176.116808 
L 400.436047 170.142178 
L 401.337209 165.163319 
L 402.238372 170.142178 
L 403.139535 164.167548 
L 404.040698 162.176004 
L 404.94186 161.180233 
L 405.843023 161.180233 
L 406.744186 164.167548 
L 407.645349 169.146406 
L 408.546512 167.154863 
L 409.447674 173.129493 
L 410.348837 173.129493 
L 411.25 174.125264 
L 412.151163 170.142178 
L 413.052326 167.154863 
L 413.953488 166.159091 
L 414.854651 166.159091 
L 415.755814 163.171776 
L 416.656977 163.171776 
L 419.360465 151.222516 
L 420.261628 149.230973 
L 422.063953 155.205603 
L 422.965116 154.209831 
L 423.866279 159.188689 
L 424.767442 163.171776 
L 425.668605 162.176004 
L 426.569767 164.167548 
L 427.47093 163.171776 
L 428.372093 166.159091 
L 429.273256 167.154863 
L 430.174419 164.167548 
L 431.075581 160.184461 
L 432.877907 154.209831 
L 433.77907 149.230973 
L 434.680233 145.247886 
L 435.581395 139.273256 
L 437.383721 120.353594 
L 438.284884 113.383192 
L 439.186047 97.450846 
L 440.087209 100.438161 
L 440.988372 104.421247 
L 441.889535 101.433932 
L 442.790698 101.433932 
L 443.69186 97.450846 
L 444.593023 94.463531 
L 445.494186 104.421247 
L 446.395349 94.463531 
L 449.098837 125.332452 
L 450 137.281712 
L 450 137.281712 
" style="fill:none;stroke:#b3220f;stroke-linecap:square;stroke-width:1.5;"/>
   </g>
   <g id="patch_3">
    <path d="M 62.5 262.5 
L 62.5 27 
" style="fill:none;stroke:#555555;stroke-linecap:square;stroke-linejoin:miter;"/>
   </g>
   <g id="patch_4">
    <path d="M 62.5 262.5 
L 450 262.5 
" style="fill:none;stroke:#555555;stroke-linecap:square;stroke-linejoin:miter;"/>
   </g>
   <g id="text_11">
    <!-- Tunjuelito | Casos nuevos: 2021-06-07 -->
    <g style="fill:#555555;" transform="translate(136.303906 17)scale(0.14 -0.14)">
     <defs>
      <path d="M 24 63.40625 
L 24 0 
L 33.5 0 
L 33.5 63.40625 
L 57.296875 63.40625 
L 57.296875 71.40625 
L 0.203125 71.40625 
L 0.203125 63.40625 
z
" id="HelveticaNeue-84"/>
      <path d="M 15.40625 61 
L 15.40625 71.40625 
L 6.90625 71.40625 
L 6.90625 61 
z
M 15.40625 -6.5 
L 15.40625 51.703125 
L 6.90625 51.703125 
L 6.90625 -5.09375 
Q 6.90625 -9.09375 5.90625 -10.640625 
Q 4.90625 -12.203125 2.09375 -12.203125 
L 0.296875 -12.203125 
Q -0.09375 -12.203125 -0.4375 -12.140625 
Q -0.796875 -12.09375 -1.296875 -12 
L -1.296875 -19.296875 
Q 0.703125 -19.703125 3 -19.703125 
Q 8.703125 -19.703125 12.046875 -16.546875 
Q 15.40625 -13.40625 15.40625 -6.5 
z
" id="HelveticaNeue-106"/>
      <path d="M 15.40625 61 
L 15.40625 71.40625 
L 6.90625 71.40625 
L 6.90625 61 
z
M 6.90625 51.703125 
L 6.90625 0 
L 15.40625 0 
L 15.40625 51.703125 
z
" id="HelveticaNeue-105"/>
      <path d="M 12.59375 25.796875 
Q 12.59375 30.5 13.84375 34.140625 
Q 15.09375 37.796875 17.296875 40.296875 
Q 19.5 42.796875 22.453125 44.09375 
Q 25.40625 45.40625 28.703125 45.40625 
Q 32 45.40625 34.953125 44.09375 
Q 37.90625 42.796875 40.09375 40.296875 
Q 42.296875 37.796875 43.546875 34.140625 
Q 44.796875 30.5 44.796875 25.796875 
Q 44.796875 21.09375 43.546875 17.4375 
Q 42.296875 13.796875 40.09375 11.34375 
Q 37.90625 8.90625 34.953125 7.59375 
Q 32 6.296875 28.703125 6.296875 
Q 25.40625 6.296875 22.453125 7.59375 
Q 19.5 8.90625 17.296875 11.34375 
Q 15.09375 13.796875 13.84375 17.4375 
Q 12.59375 21.09375 12.59375 25.796875 
z
M 3.59375 25.796875 
Q 3.59375 20.09375 5.1875 15.1875 
Q 6.796875 10.296875 10 6.640625 
Q 13.203125 3 17.890625 0.953125 
Q 22.59375 -1.09375 28.703125 -1.09375 
Q 34.90625 -1.09375 39.546875 0.953125 
Q 44.203125 3 47.390625 6.640625 
Q 50.59375 10.296875 52.1875 15.1875 
Q 53.796875 20.09375 53.796875 25.796875 
Q 53.796875 31.5 52.1875 36.453125 
Q 50.59375 41.40625 47.390625 45.046875 
Q 44.203125 48.703125 39.546875 50.796875 
Q 34.90625 52.90625 28.703125 52.90625 
Q 22.59375 52.90625 17.890625 50.796875 
Q 13.203125 48.703125 10 45.046875 
Q 6.796875 41.40625 5.1875 36.453125 
Q 3.59375 31.5 3.59375 25.796875 
z
" id="HelveticaNeue-111"/>
      <path id="HelveticaNeue-32"/>
      <path d="M 7.703125 78.59375 
L 7.703125 -21.296875 
L 14.5 -21.296875 
L 14.5 78.59375 
z
" id="HelveticaNeue-124"/>
      <path d="M 58 49.90625 
L 67.5 49.90625 
Q 66.703125 55.59375 64.09375 59.9375 
Q 61.5 64.296875 57.59375 67.1875 
Q 53.703125 70.09375 48.703125 71.59375 
Q 43.703125 73.09375 38.09375 73.09375 
Q 29.90625 73.09375 23.546875 70.140625 
Q 17.203125 67.203125 12.953125 62.09375 
Q 8.703125 57 6.5 50.140625 
Q 4.296875 43.296875 4.296875 35.5 
Q 4.296875 27.703125 6.34375 20.890625 
Q 8.40625 14.09375 12.5 9.09375 
Q 16.59375 4.09375 22.796875 1.25 
Q 29 -1.59375 37.296875 -1.59375 
Q 51 -1.59375 58.890625 5.90625 
Q 66.796875 13.40625 68.203125 26.90625 
L 58.703125 26.90625 
Q 58.40625 22.5 56.90625 18.703125 
Q 55.40625 14.90625 52.75 12.15625 
Q 50.09375 9.40625 46.4375 7.84375 
Q 42.796875 6.296875 38.09375 6.296875 
Q 31.703125 6.296875 27.09375 8.6875 
Q 22.5 11.09375 19.546875 15.140625 
Q 16.59375 19.203125 15.1875 24.640625 
Q 13.796875 30.09375 13.796875 36.203125 
Q 13.796875 41.796875 15.1875 47 
Q 16.59375 52.203125 19.546875 56.25 
Q 22.5 60.296875 27.046875 62.6875 
Q 31.59375 65.09375 38 65.09375 
Q 45.5 65.09375 50.953125 61.296875 
Q 56.40625 57.5 58 49.90625 
z
" id="HelveticaNeue-67"/>
      <path d="M 11.59375 16.296875 
L 3.09375 16.296875 
Q 3.296875 11.5 5.09375 8.140625 
Q 6.90625 4.796875 9.90625 2.75 
Q 12.90625 0.703125 16.796875 -0.1875 
Q 20.703125 -1.09375 25 -1.09375 
Q 28.90625 -1.09375 32.84375 -0.34375 
Q 36.796875 0.40625 39.9375 2.296875 
Q 43.09375 4.203125 45.046875 7.296875 
Q 47 10.40625 47 15.09375 
Q 47 18.796875 45.546875 21.296875 
Q 44.09375 23.796875 41.75 25.4375 
Q 39.40625 27.09375 36.34375 28.09375 
Q 33.296875 29.09375 30.09375 29.796875 
Q 27.09375 30.5 24.09375 31.140625 
Q 21.09375 31.796875 18.6875 32.75 
Q 16.296875 33.703125 14.75 35.140625 
Q 13.203125 36.59375 13.203125 38.796875 
Q 13.203125 40.796875 14.203125 42.046875 
Q 15.203125 43.296875 16.796875 44.046875 
Q 18.40625 44.796875 20.34375 45.09375 
Q 22.296875 45.40625 24.203125 45.40625 
Q 26.296875 45.40625 28.34375 44.953125 
Q 30.40625 44.5 32.09375 43.5 
Q 33.796875 42.5 34.890625 40.84375 
Q 36 39.203125 36.203125 36.703125 
L 44.703125 36.703125 
Q 44.40625 41.40625 42.703125 44.546875 
Q 41 47.703125 38.140625 49.546875 
Q 35.296875 51.40625 31.59375 52.15625 
Q 27.90625 52.90625 23.5 52.90625 
Q 20.09375 52.90625 16.640625 52.046875 
Q 13.203125 51.203125 10.453125 49.453125 
Q 7.703125 47.703125 5.953125 44.890625 
Q 4.203125 42.09375 4.203125 38.203125 
Q 4.203125 33.203125 6.703125 30.390625 
Q 9.203125 27.59375 12.953125 26.046875 
Q 16.703125 24.5 21.09375 23.640625 
Q 25.5 22.796875 29.25 21.75 
Q 33 20.703125 35.5 19 
Q 38 17.296875 38 14 
Q 38 11.59375 36.796875 10.046875 
Q 35.59375 8.5 33.75 7.703125 
Q 31.90625 6.90625 29.703125 6.59375 
Q 27.5 6.296875 25.5 6.296875 
Q 22.90625 6.296875 20.453125 6.796875 
Q 18 7.296875 16.046875 8.4375 
Q 14.09375 9.59375 12.890625 11.546875 
Q 11.703125 13.5 11.59375 16.296875 
z
" id="HelveticaNeue-115"/>
      <path d="M 29.703125 0 
L 48.59375 51.703125 
L 39.703125 51.703125 
L 25.59375 8.59375 
L 25.40625 8.59375 
L 10.90625 51.703125 
L 1.40625 51.703125 
L 20.59375 0 
z
" id="HelveticaNeue-118"/>
      <path d="M 19.40625 40.59375 
L 19.40625 51.703125 
L 8.296875 51.703125 
L 8.296875 40.59375 
z
M 8.296875 11.09375 
L 8.296875 0 
L 19.40625 0 
L 19.40625 11.09375 
z
" id="HelveticaNeue-58"/>
      <path d="M 5 31.796875 
L 5 23.796875 
L 33.90625 23.796875 
L 33.90625 31.796875 
z
" id="HelveticaNeue-45"/>
      <path d="M 41.40625 52.796875 
L 49.90625 52.796875 
Q 49.09375 61.59375 43.890625 66.25 
Q 38.703125 70.90625 29.90625 70.90625 
Q 22.296875 70.90625 17.296875 67.703125 
Q 12.296875 64.5 9.296875 59.203125 
Q 6.296875 53.90625 5.046875 47.046875 
Q 3.796875 40.203125 3.796875 32.90625 
Q 3.796875 27.296875 4.640625 21.296875 
Q 5.5 15.296875 8.09375 10.296875 
Q 10.703125 5.296875 15.5 2.09375 
Q 20.296875 -1.09375 28.203125 -1.09375 
Q 34.90625 -1.09375 39.453125 1.15625 
Q 44 3.40625 46.75 6.84375 
Q 49.5 10.296875 50.703125 14.5 
Q 51.90625 18.703125 51.90625 22.59375 
Q 51.90625 27.5 50.40625 31.703125 
Q 48.90625 35.90625 46.15625 39 
Q 43.40625 42.09375 39.34375 43.84375 
Q 35.296875 45.59375 30.203125 45.59375 
Q 24.40625 45.59375 19.953125 43.390625 
Q 15.5 41.203125 12.5 36.296875 
L 12.296875 36.5 
Q 12.40625 40.59375 13.09375 45.296875 
Q 13.796875 50 15.640625 54.046875 
Q 17.5 58.09375 20.796875 60.75 
Q 24.09375 63.40625 29.5 63.40625 
Q 34.59375 63.40625 37.6875 60.5 
Q 40.796875 57.59375 41.40625 52.796875 
z
M 28.59375 38.09375 
Q 32.203125 38.09375 34.890625 36.796875 
Q 37.59375 35.5 39.390625 33.34375 
Q 41.203125 31.203125 42.046875 28.25 
Q 42.90625 25.296875 42.90625 22 
Q 42.90625 18.90625 41.953125 16.046875 
Q 41 13.203125 39.203125 11 
Q 37.40625 8.796875 34.75 7.546875 
Q 32.09375 6.296875 28.59375 6.296875 
Q 25.09375 6.296875 22.34375 7.546875 
Q 19.59375 8.796875 17.75 10.890625 
Q 15.90625 13 14.90625 15.890625 
Q 13.90625 18.796875 13.90625 22.09375 
Q 13.90625 25.40625 14.84375 28.34375 
Q 15.796875 31.296875 17.6875 33.4375 
Q 19.59375 35.59375 22.296875 36.84375 
Q 25 38.09375 28.59375 38.09375 
z
" id="HelveticaNeue-54"/>
      <path d="M 50.90625 62.40625 
L 50.90625 69.703125 
L 5 69.703125 
L 5 61.703125 
L 42.203125 61.703125 
Q 36.59375 55.796875 31.75 48.796875 
Q 26.90625 41.796875 23.203125 33.9375 
Q 19.5 26.09375 17.140625 17.546875 
Q 14.796875 9 14.203125 0 
L 23.703125 0 
Q 24.203125 8.296875 26.5 17.09375 
Q 28.796875 25.90625 32.4375 34.203125 
Q 36.09375 42.5 40.796875 49.796875 
Q 45.5 57.09375 50.90625 62.40625 
z
" id="HelveticaNeue-55"/>
     </defs>
     <use xlink:href="#HelveticaNeue-84"/>
     <use x="48.149994" xlink:href="#HelveticaNeue-117"/>
     <use x="103.749985" xlink:href="#HelveticaNeue-110"/>
     <use x="159.349976" xlink:href="#HelveticaNeue-106"/>
     <use x="181.549973" xlink:href="#HelveticaNeue-117"/>
     <use x="237.149963" xlink:href="#HelveticaNeue-101"/>
     <use x="290.84996" xlink:href="#HelveticaNeue-108"/>
     <use x="313.049957" xlink:href="#HelveticaNeue-105"/>
     <use x="335.249954" xlink:href="#HelveticaNeue-116"/>
     <use x="366.749939" xlink:href="#HelveticaNeue-111"/>
     <use x="424.149933" xlink:href="#HelveticaNeue-32"/>
     <use x="451.949921" xlink:href="#HelveticaNeue-124"/>
     <use x="474.149918" xlink:href="#HelveticaNeue-32"/>
     <use x="501.949905" xlink:href="#HelveticaNeue-67"/>
     <use x="574.149887" xlink:href="#HelveticaNeue-97"/>
     <use x="627.849884" xlink:href="#HelveticaNeue-115"/>
     <use x="677.849869" xlink:href="#HelveticaNeue-111"/>
     <use x="735.249863" xlink:href="#HelveticaNeue-115"/>
     <use x="785.249847" xlink:href="#HelveticaNeue-32"/>
     <use x="813.049835" xlink:href="#HelveticaNeue-110"/>
     <use x="868.649826" xlink:href="#HelveticaNeue-117"/>
     <use x="924.249817" xlink:href="#HelveticaNeue-101"/>
     <use x="977.949814" xlink:href="#HelveticaNeue-118"/>
     <use x="1027.949799" xlink:href="#HelveticaNeue-111"/>
     <use x="1085.349792" xlink:href="#HelveticaNeue-115"/>
     <use x="1135.349777" xlink:href="#HelveticaNeue-58"/>
     <use x="1163.149765" xlink:href="#HelveticaNeue-32"/>
     <use x="1190.949753" xlink:href="#HelveticaNeue-50"/>
     <use x="1246.549744" xlink:href="#HelveticaNeue-48"/>
     <use x="1302.149734" xlink:href="#HelveticaNeue-50"/>
     <use x="1357.749725" xlink:href="#HelveticaNeue-49"/>
     <use x="1413.349716" xlink:href="#HelveticaNeue-45"/>
     <use x="1452.24971" xlink:href="#HelveticaNeue-48"/>
     <use x="1507.849701" xlink:href="#HelveticaNeue-54"/>
     <use x="1563.449692" xlink:href="#HelveticaNeue-45"/>
     <use x="1602.349686" xlink:href="#HelveticaNeue-48"/>
     <use x="1657.949677" xlink:href="#HelveticaNeue-55"/>
    </g>
   </g>
   <g id="legend_1">
    <g id="line2d_24">
     <path d="M 71.5 39.640625 
L 91.5 39.640625 
" style="fill:none;stroke:#000000;stroke-dasharray:1.5,2.475;stroke-dashoffset:0;stroke-opacity:0.5;stroke-width:1.5;"/>
    </g>
    <g id="line2d_25"/>
    <g id="text_12">
     <!-- Actual -->
     <g style="fill:#555555;" transform="translate(99.5 43.140625)scale(0.1 -0.1)">
      <use xlink:href="#HelveticaNeue-65"/>
      <use x="64.799988" xlink:href="#HelveticaNeue-99"/>
      <use x="118.499985" xlink:href="#HelveticaNeue-116"/>
      <use x="149.999969" xlink:href="#HelveticaNeue-117"/>
      <use x="205.59996" xlink:href="#HelveticaNeue-97"/>
      <use x="259.299957" xlink:href="#HelveticaNeue-108"/>
     </g>
    </g>
    <g id="line2d_26">
     <path d="M 71.5 54.310937 
L 91.5 54.310937 
" style="fill:none;stroke:#b3220f;stroke-linecap:square;stroke-width:1.5;"/>
    </g>
    <g id="line2d_27"/>
    <g id="text_13">
     <!-- Promedio semanal (7 das)  -->
     <g style="fill:#555555;" transform="translate(99.5 57.810937)scale(0.1 -0.1)">
      <defs>
       <path d="M 17.296875 37.203125 
L 17.296875 63.40625 
L 35.90625 63.40625 
Q 44 63.40625 47.75 60.046875 
Q 51.5 56.703125 51.5 50.296875 
Q 51.5 43.90625 47.75 40.5 
Q 44 37.09375 35.90625 37.203125 
z
M 7.796875 71.40625 
L 7.796875 0 
L 17.296875 0 
L 17.296875 29.203125 
L 39.09375 29.203125 
Q 49.90625 29.09375 55.453125 34.6875 
Q 61 40.296875 61 50.296875 
Q 61 60.296875 55.453125 65.84375 
Q 49.90625 71.40625 39.09375 71.40625 
z
" id="HelveticaNeue-80"/>
       <path d="M 6.40625 51.703125 
L 6.40625 0 
L 14.90625 0 
L 14.90625 32.203125 
Q 14.90625 33.703125 15.65625 35.953125 
Q 16.40625 38.203125 18.046875 40.296875 
Q 19.703125 42.40625 22.34375 43.90625 
Q 25 45.40625 28.703125 45.40625 
Q 31.59375 45.40625 33.4375 44.546875 
Q 35.296875 43.703125 36.390625 42.140625 
Q 37.5 40.59375 37.953125 38.5 
Q 38.40625 36.40625 38.40625 33.90625 
L 38.40625 0 
L 46.90625 0 
L 46.90625 32.203125 
Q 46.90625 38.203125 50.5 41.796875 
Q 54.09375 45.40625 60.40625 45.40625 
Q 63.5 45.40625 65.453125 44.5 
Q 67.40625 43.59375 68.5 42.046875 
Q 69.59375 40.5 70 38.390625 
Q 70.40625 36.296875 70.40625 33.90625 
L 70.40625 0 
L 78.90625 0 
L 78.90625 37.90625 
Q 78.90625 41.90625 77.65625 44.75 
Q 76.40625 47.59375 74.15625 49.390625 
Q 71.90625 51.203125 68.75 52.046875 
Q 65.59375 52.90625 61.703125 52.90625 
Q 56.59375 52.90625 52.34375 50.59375 
Q 48.09375 48.296875 45.5 44.09375 
Q 43.90625 48.90625 40 50.90625 
Q 36.09375 52.90625 31.296875 52.90625 
Q 20.40625 52.90625 14.59375 44.09375 
L 14.40625 44.09375 
L 14.40625 51.703125 
z
" id="HelveticaNeue-109"/>
       <path d="M 12.59375 25.40625 
Q 12.59375 29.203125 13.390625 32.796875 
Q 14.203125 36.40625 16 39.203125 
Q 17.796875 42 20.796875 43.703125 
Q 23.796875 45.40625 28.09375 45.40625 
Q 32.5 45.40625 35.59375 43.75 
Q 38.703125 42.09375 40.640625 39.390625 
Q 42.59375 36.703125 43.5 33.140625 
Q 44.40625 29.59375 44.40625 25.796875 
Q 44.40625 22.203125 43.546875 18.703125 
Q 42.703125 15.203125 40.796875 12.453125 
Q 38.90625 9.703125 35.90625 8 
Q 32.90625 6.296875 28.59375 6.296875 
Q 24.5 6.296875 21.453125 7.890625 
Q 18.40625 9.5 16.453125 12.203125 
Q 14.5 14.90625 13.546875 18.34375 
Q 12.59375 21.796875 12.59375 25.40625 
z
M 52.59375 0 
L 52.59375 71.40625 
L 44.09375 71.40625 
L 44.09375 44.796875 
L 43.90625 44.796875 
Q 42.5 47.09375 40.453125 48.640625 
Q 38.40625 50.203125 36.09375 51.140625 
Q 33.796875 52.09375 31.5 52.5 
Q 29.203125 52.90625 27.203125 52.90625 
Q 21.296875 52.90625 16.84375 50.75 
Q 12.40625 48.59375 9.453125 44.9375 
Q 6.5 41.296875 5.046875 36.390625 
Q 3.59375 31.5 3.59375 26 
Q 3.59375 20.5 5.09375 15.59375 
Q 6.59375 10.703125 9.546875 7 
Q 12.5 3.296875 16.953125 1.09375 
Q 21.40625 -1.09375 27.40625 -1.09375 
Q 32.796875 -1.09375 37.296875 0.796875 
Q 41.796875 2.703125 43.90625 7 
L 44.09375 7 
L 44.09375 0 
z
" id="HelveticaNeue-100"/>
       <path d="M 20.40625 -19.703125 
L 26.90625 -19.703125 
Q 19.796875 -8.203125 16.75 3.09375 
Q 13.703125 14.40625 13.703125 27 
Q 13.703125 39.296875 16.703125 50.5 
Q 19.703125 61.703125 26.90625 73.09375 
L 20.40625 73.09375 
Q 12.59375 62.796875 8.640625 50.796875 
Q 4.703125 38.796875 4.703125 27 
Q 4.703125 20.40625 5.796875 14.40625 
Q 6.90625 8.40625 8.953125 2.703125 
Q 11 -3 13.890625 -8.546875 
Q 16.796875 -14.09375 20.40625 -19.703125 
z
" id="HelveticaNeue-40"/>
       <path d="M 6.90625 0 
L 15.40625 0 
L 15.40625 51.703125 
L 6.90625 51.703125 
z
M 25.5 77 
L 11.40625 60.796875 
L 5 60.796875 
L 14.59375 77 
z
" id="HelveticaNeue-237"/>
       <path d="M -0.90625 -19.703125 
L 5.5 -19.703125 
Q 13.296875 -9.40625 17.25 2.546875 
Q 21.203125 14.5 21.203125 26.296875 
Q 21.203125 32.90625 20.09375 38.90625 
Q 19 44.90625 16.953125 50.65625 
Q 14.90625 56.40625 12 61.953125 
Q 9.09375 67.5 5.5 73.09375 
L -0.90625 73.09375 
Q 6.09375 61.59375 9.140625 50.25 
Q 12.203125 38.90625 12.203125 26.296875 
Q 12.203125 14.09375 9.203125 2.84375 
Q 6.203125 -8.40625 -0.90625 -19.703125 
z
" id="HelveticaNeue-41"/>
      </defs>
      <use xlink:href="#HelveticaNeue-80"/>
      <use x="64.799988" xlink:href="#HelveticaNeue-114"/>
      <use x="96.349976" xlink:href="#HelveticaNeue-111"/>
      <use x="153.749969" xlink:href="#HelveticaNeue-109"/>
      <use x="239.049957" xlink:href="#HelveticaNeue-101"/>
      <use x="292.749954" xlink:href="#HelveticaNeue-100"/>
      <use x="352.049942" xlink:href="#HelveticaNeue-105"/>
      <use x="374.249939" xlink:href="#HelveticaNeue-111"/>
      <use x="431.649933" xlink:href="#HelveticaNeue-32"/>
      <use x="459.449921" xlink:href="#HelveticaNeue-115"/>
      <use x="509.449905" xlink:href="#HelveticaNeue-101"/>
      <use x="563.149902" xlink:href="#HelveticaNeue-109"/>
      <use x="648.44989" xlink:href="#HelveticaNeue-97"/>
      <use x="702.149887" xlink:href="#HelveticaNeue-110"/>
      <use x="757.749878" xlink:href="#HelveticaNeue-97"/>
      <use x="811.449875" xlink:href="#HelveticaNeue-108"/>
      <use x="833.649872" xlink:href="#HelveticaNeue-32"/>
      <use x="861.44986" xlink:href="#HelveticaNeue-40"/>
      <use x="887.349854" xlink:href="#HelveticaNeue-55"/>
      <use x="942.949844" xlink:href="#HelveticaNeue-32"/>
      <use x="970.749832" xlink:href="#HelveticaNeue-100"/>
      <use x="1030.04982" xlink:href="#HelveticaNeue-237"/>
      <use x="1052.249817" xlink:href="#HelveticaNeue-97"/>
      <use x="1105.949814" xlink:href="#HelveticaNeue-115"/>
      <use x="1155.949799" xlink:href="#HelveticaNeue-41"/>
      <use x="1181.849792" xlink:href="#HelveticaNeue-32"/>
     </g>
    </g>
   </g>
  </g>
 </g>
 <defs>
  <clipPath id="p54d743e153">
   <rect height="235.5" width="387.5" x="62.5" y="27"/>
  </clipPath>
 </defs>
</svg>
