<?xml version="1.0" encoding="utf-8" standalone="no"?>
<!DOCTYPE svg PUBLIC "-//W3C//DTD SVG 1.1//EN"
  "http://www.w3.org/Graphics/SVG/1.1/DTD/svg11.dtd">
<!-- Created with matplotlib (https://matplotlib.org/) -->
<svg height="300pt" version="1.1" viewBox="0 0 500 300" width="500pt" xmlns="http://www.w3.org/2000/svg" xmlns:xlink="http://www.w3.org/1999/xlink">
 <metadata>
  <rdf:RDF xmlns:cc="http://creativecommons.org/ns#" xmlns:dc="http://purl.org/dc/elements/1.1/" xmlns:rdf="http://www.w3.org/1999/02/22-rdf-syntax-ns#">
   <cc:Work>
    <dc:type rdf:resource="http://purl.org/dc/dcmitype/StillImage"/>
    <dc:date>2021-06-26T00:11:03.140239</dc:date>
    <dc:format>image/svg+xml</dc:format>
    <dc:creator>
     <cc:Agent>
      <dc:title>Matplotlib v3.3.4, https://matplotlib.org/</dc:title>
     </cc:Agent>
    </dc:creator>
   </cc:Work>
  </rdf:RDF>
 </metadata>
 <defs>
  <style type="text/css">*{stroke-linecap:butt;stroke-linejoin:round;}</style>
 </defs>
 <g id="figure_1">
  <g id="patch_1">
   <path d="M 0 300 
L 500 300 
L 500 0 
L 0 0 
z
" style="fill:#ffffff;"/>
  </g>
  <g id="axes_1">
   <g id="patch_2">
    <path d="M 62.5 262.5 
L 450 262.5 
L 450 36 
L 62.5 36 
z
" style="fill:#ffffff;"/>
   </g>
   <g id="matplotlib.axis_1">
    <g id="xtick_1">
     <g id="line2d_1">
      <defs>
       <path d="M 0 0 
L 0 3.5 
" id="m4ff3b0fbd3" style="stroke:#000000;stroke-width:0.8;"/>
      </defs>
      <g>
       <use style="stroke:#000000;stroke-width:0.8;" x="62.5" xlink:href="#m4ff3b0fbd3" y="262.5"/>
      </g>
     </g>
    </g>
    <g id="xtick_2">
     <g id="line2d_2">
      <g>
       <use style="stroke:#000000;stroke-width:0.8;" x="72.608696" xlink:href="#m4ff3b0fbd3" y="262.5"/>
      </g>
     </g>
     <g id="text_1">
      <!-- Apr -->
      <g transform="translate(64.708696 277)scale(0.1 -0.1)">
       <defs>
        <path d="M 47.015625 16.546875 
L 19.484375 16.546875 
L 13.71875 0 
L 0.875 0 
L 27.734375 71.09375 
L 38.8125 71.09375 
L 65.71875 0 
L 52.828125 0 
z
M 22.953125 26.515625 
L 43.5625 26.515625 
L 33.25 56 
z
" id="Roboto-Medium-65"/>
        <path d="M 52.34375 25.875 
Q 52.34375 13.625 46.78125 6.3125 
Q 41.21875 -0.984375 31.84375 -0.984375 
Q 23.140625 -0.984375 17.921875 4.734375 
L 17.921875 -20.3125 
L 6.0625 -20.3125 
L 6.0625 52.828125 
L 17 52.828125 
L 17.484375 47.46875 
Q 22.703125 53.8125 31.6875 53.8125 
Q 41.359375 53.8125 46.84375 46.609375 
Q 52.34375 39.40625 52.34375 26.609375 
z
M 40.53125 26.90625 
Q 40.53125 34.8125 37.375 39.453125 
Q 34.234375 44.09375 28.375 44.09375 
Q 21.09375 44.09375 17.921875 38.09375 
L 17.921875 14.65625 
Q 21.140625 8.5 28.46875 8.5 
Q 34.125 8.5 37.328125 13.0625 
Q 40.53125 17.625 40.53125 26.90625 
z
" id="Roboto-Medium-112"/>
        <path d="M 33.734375 42 
Q 31.390625 42.390625 28.90625 42.390625 
Q 20.75 42.390625 17.921875 36.140625 
L 17.921875 0 
L 6.0625 0 
L 6.0625 52.828125 
L 17.390625 52.828125 
L 17.671875 46.921875 
Q 21.96875 53.8125 29.59375 53.8125 
Q 32.125 53.8125 33.796875 53.125 
z
" id="Roboto-Medium-114"/>
       </defs>
       <use xlink:href="#Roboto-Medium-65"/>
       <use x="66.552734" xlink:href="#Roboto-Medium-112"/>
       <use x="122.851562" xlink:href="#Roboto-Medium-114"/>
      </g>
     </g>
    </g>
    <g id="xtick_3">
     <g id="line2d_3">
      <g>
       <use style="stroke:#000000;stroke-width:0.8;" x="149.266304" xlink:href="#m4ff3b0fbd3" y="262.5"/>
      </g>
     </g>
     <g id="text_2">
      <!-- Jul -->
      <g transform="translate(142.435836 277)scale(0.1 -0.1)">
       <defs>
        <path d="M 36.328125 71.09375 
L 48.640625 71.09375 
L 48.640625 21.234375 
Q 48.640625 11.03125 42.265625 5.015625 
Q 35.890625 -0.984375 25.4375 -0.984375 
Q 14.3125 -0.984375 8.25 4.625 
Q 2.203125 10.25 2.203125 20.265625 
L 14.5 20.265625 
Q 14.5 14.59375 17.3125 11.734375 
Q 20.125 8.890625 25.4375 8.890625 
Q 30.421875 8.890625 33.375 12.1875 
Q 36.328125 15.484375 36.328125 21.296875 
z
" id="Roboto-Medium-74"/>
        <path d="M 38.09375 5.171875 
Q 32.859375 -0.984375 23.25 -0.984375 
Q 14.65625 -0.984375 10.234375 4.046875 
Q 5.8125 9.078125 5.8125 18.609375 
L 5.8125 52.828125 
L 17.671875 52.828125 
L 17.671875 18.75 
Q 17.671875 8.6875 26.03125 8.6875 
Q 34.671875 8.6875 37.703125 14.890625 
L 37.703125 52.828125 
L 49.5625 52.828125 
L 49.5625 0 
L 38.375 0 
z
" id="Roboto-Medium-117"/>
        <path d="M 18.703125 0 
L 6.84375 0 
L 6.84375 75 
L 18.703125 75 
z
" id="Roboto-Medium-108"/>
       </defs>
       <use xlink:href="#Roboto-Medium-74"/>
       <use x="55.517578" xlink:href="#Roboto-Medium-117"/>
       <use x="111.083984" xlink:href="#Roboto-Medium-108"/>
      </g>
     </g>
    </g>
    <g id="xtick_4">
     <g id="line2d_4">
      <g>
       <use style="stroke:#000000;stroke-width:0.8;" x="226.766304" xlink:href="#m4ff3b0fbd3" y="262.5"/>
      </g>
     </g>
     <g id="text_3">
      <!-- Oct -->
      <g transform="translate(219.034273 277)scale(0.1 -0.1)">
       <defs>
        <path d="M 63.96875 33.6875 
Q 63.96875 23.25 60.34375 15.359375 
Q 56.734375 7.46875 50.015625 3.234375 
Q 43.3125 -0.984375 34.578125 -0.984375 
Q 25.921875 -0.984375 19.15625 3.234375 
Q 12.40625 7.46875 8.71875 15.28125 
Q 5.03125 23.09375 4.984375 33.296875 
L 4.984375 37.3125 
Q 4.984375 47.703125 8.671875 55.65625 
Q 12.359375 63.625 19.0625 67.84375 
Q 25.78125 72.078125 34.46875 72.078125 
Q 43.171875 72.078125 49.875 67.890625 
Q 56.59375 63.71875 60.25 55.875 
Q 63.921875 48.046875 63.96875 37.640625 
z
M 51.609375 37.40625 
Q 51.609375 49.21875 47.140625 55.515625 
Q 42.671875 61.8125 34.46875 61.8125 
Q 26.46875 61.8125 21.953125 55.53125 
Q 17.4375 49.265625 17.328125 37.796875 
L 17.328125 33.6875 
Q 17.328125 21.96875 21.890625 15.578125 
Q 26.46875 9.1875 34.578125 9.1875 
Q 42.78125 9.1875 47.1875 15.4375 
Q 51.609375 21.6875 51.609375 33.6875 
z
" id="Roboto-Medium-79"/>
        <path d="M 27.78125 8.5 
Q 32.234375 8.5 35.15625 11.078125 
Q 38.09375 13.671875 38.28125 17.484375 
L 49.46875 17.484375 
Q 49.265625 12.546875 46.375 8.265625 
Q 43.5 4 38.5625 1.5 
Q 33.640625 -0.984375 27.9375 -0.984375 
Q 16.84375 -0.984375 10.34375 6.1875 
Q 3.859375 13.375 3.859375 26.03125 
L 3.859375 27.25 
Q 3.859375 39.3125 10.296875 46.5625 
Q 16.75 53.8125 27.875 53.8125 
Q 37.3125 53.8125 43.234375 48.3125 
Q 49.171875 42.828125 49.46875 33.890625 
L 38.28125 33.890625 
Q 38.09375 38.421875 35.1875 41.34375 
Q 32.28125 44.28125 27.78125 44.28125 
Q 22.015625 44.28125 18.890625 40.109375 
Q 15.765625 35.9375 15.71875 27.4375 
L 15.71875 25.53125 
Q 15.71875 16.9375 18.8125 12.71875 
Q 21.921875 8.5 27.78125 8.5 
z
" id="Roboto-Medium-99"/>
        <path d="M 20.953125 65.671875 
L 20.953125 52.828125 
L 30.28125 52.828125 
L 30.28125 44.046875 
L 20.953125 44.046875 
L 20.953125 14.546875 
Q 20.953125 11.53125 22.140625 10.1875 
Q 23.34375 8.84375 26.421875 8.84375 
Q 28.46875 8.84375 30.5625 9.328125 
L 30.5625 0.140625 
Q 26.515625 -0.984375 22.75 -0.984375 
Q 9.078125 -0.984375 9.078125 14.109375 
L 9.078125 44.046875 
L 0.390625 44.046875 
L 0.390625 52.828125 
L 9.078125 52.828125 
L 9.078125 65.671875 
z
" id="Roboto-Medium-116"/>
       </defs>
       <use xlink:href="#Roboto-Medium-79"/>
       <use x="69.042969" xlink:href="#Roboto-Medium-99"/>
       <use x="121.386719" xlink:href="#Roboto-Medium-116"/>
      </g>
     </g>
    </g>
    <g id="xtick_5">
     <g id="line2d_5">
      <g>
       <use style="stroke:#000000;stroke-width:0.8;" x="304.266304" xlink:href="#m4ff3b0fbd3" y="262.5"/>
      </g>
     </g>
     <g id="text_4">
      <!-- Jan -->
      <g transform="translate(296.004586 277)scale(0.1 -0.1)">
       <defs>
        <path d="M 37.640625 0 
Q 36.859375 1.515625 36.28125 4.9375 
Q 30.609375 -0.984375 22.40625 -0.984375 
Q 14.453125 -0.984375 9.421875 3.5625 
Q 4.390625 8.109375 4.390625 14.796875 
Q 4.390625 23.25 10.65625 27.765625 
Q 16.9375 32.28125 28.609375 32.28125 
L 35.890625 32.28125 
L 35.890625 35.75 
Q 35.890625 39.84375 33.59375 42.3125 
Q 31.296875 44.78125 26.609375 44.78125 
Q 22.5625 44.78125 19.96875 42.75 
Q 17.390625 40.71875 17.390625 37.59375 
L 5.515625 37.59375 
Q 5.515625 41.9375 8.390625 45.71875 
Q 11.28125 49.515625 16.234375 51.65625 
Q 21.1875 53.8125 27.296875 53.8125 
Q 36.578125 53.8125 42.09375 49.140625 
Q 47.609375 44.484375 47.75 36.03125 
L 47.75 12.203125 
Q 47.75 5.078125 49.75 0.828125 
L 49.75 0 
z
M 24.609375 8.546875 
Q 28.125 8.546875 31.21875 10.25 
Q 34.328125 11.96875 35.890625 14.84375 
L 35.890625 24.8125 
L 29.5 24.8125 
Q 22.90625 24.8125 19.578125 22.515625 
Q 16.265625 20.21875 16.265625 16.015625 
Q 16.265625 12.59375 18.53125 10.5625 
Q 20.796875 8.546875 24.609375 8.546875 
z
" id="Roboto-Medium-97"/>
        <path d="M 17.09375 52.828125 
L 17.4375 46.734375 
Q 23.296875 53.8125 32.8125 53.8125 
Q 49.3125 53.8125 49.609375 34.90625 
L 49.609375 0 
L 37.75 0 
L 37.75 34.234375 
Q 37.75 39.265625 35.578125 41.671875 
Q 33.40625 44.09375 28.46875 44.09375 
Q 21.296875 44.09375 17.78125 37.59375 
L 17.78125 0 
L 5.90625 0 
L 5.90625 52.828125 
z
" id="Roboto-Medium-110"/>
       </defs>
       <use xlink:href="#Roboto-Medium-74"/>
       <use x="55.517578" xlink:href="#Roboto-Medium-97"/>
       <use x="109.619141" xlink:href="#Roboto-Medium-110"/>
      </g>
      <!-- 2021 -->
      <g transform="translate(292.897554 288.03125)scale(0.1 -0.1)">
       <defs>
        <path d="M 53.125 0 
L 5.328125 0 
L 5.328125 8.15625 
L 29 33.984375 
Q 34.125 39.703125 36.296875 43.53125 
Q 38.484375 47.359375 38.484375 51.21875 
Q 38.484375 56.296875 35.625 59.421875 
Q 32.765625 62.546875 27.9375 62.546875 
Q 22.171875 62.546875 19 59.03125 
Q 15.828125 55.515625 15.828125 49.421875 
L 3.953125 49.421875 
Q 3.953125 55.90625 6.90625 61.109375 
Q 9.859375 66.3125 15.34375 69.1875 
Q 20.84375 72.078125 28.03125 72.078125 
Q 38.375 72.078125 44.359375 66.875 
Q 50.34375 61.671875 50.34375 52.484375 
Q 50.34375 47.171875 47.34375 41.328125 
Q 44.34375 35.5 37.5 28.078125 
L 20.125 9.46875 
L 53.125 9.46875 
z
" id="Roboto-Medium-50"/>
        <path d="M 51.65625 29.9375 
Q 51.65625 14.59375 45.921875 6.796875 
Q 40.1875 -0.984375 28.46875 -0.984375 
Q 16.9375 -0.984375 11.109375 6.609375 
Q 5.28125 14.203125 5.125 29.109375 
L 5.125 41.40625 
Q 5.125 56.734375 10.859375 64.40625 
Q 16.609375 72.078125 28.375 72.078125 
Q 40.046875 72.078125 45.78125 64.59375 
Q 51.515625 57.125 51.65625 42.234375 
z
M 39.796875 43.21875 
Q 39.796875 53.21875 37.0625 57.875 
Q 34.328125 62.546875 28.375 62.546875 
Q 22.5625 62.546875 19.828125 58.125 
Q 17.09375 53.71875 16.9375 44.34375 
L 16.9375 28.21875 
Q 16.9375 18.265625 19.71875 13.375 
Q 22.515625 8.5 28.46875 8.5 
Q 34.1875 8.5 36.921875 13.015625 
Q 39.65625 17.53125 39.796875 27.15625 
z
" id="Roboto-Medium-48"/>
        <path d="M 37.453125 0 
L 25.640625 0 
L 25.640625 57.078125 
L 8.203125 51.125 
L 8.203125 61.140625 
L 35.9375 71.34375 
L 37.453125 71.34375 
z
" id="Roboto-Medium-49"/>
       </defs>
       <use xlink:href="#Roboto-Medium-50"/>
       <use x="56.835938" xlink:href="#Roboto-Medium-48"/>
       <use x="113.671875" xlink:href="#Roboto-Medium-50"/>
       <use x="170.507812" xlink:href="#Roboto-Medium-49"/>
      </g>
     </g>
    </g>
    <g id="xtick_6">
     <g id="line2d_6">
      <g>
       <use style="stroke:#000000;stroke-width:0.8;" x="380.081522" xlink:href="#m4ff3b0fbd3" y="262.5"/>
      </g>
     </g>
     <g id="text_5">
      <!-- Apr -->
      <g transform="translate(372.181522 277)scale(0.1 -0.1)">
       <use xlink:href="#Roboto-Medium-65"/>
       <use x="66.552734" xlink:href="#Roboto-Medium-112"/>
       <use x="122.851562" xlink:href="#Roboto-Medium-114"/>
      </g>
     </g>
    </g>
    <g id="xtick_7">
     <g id="line2d_7">
      <g>
       <use style="stroke:#000000;stroke-width:0.8;" x="450" xlink:href="#m4ff3b0fbd3" y="262.5"/>
      </g>
     </g>
    </g>
    <g id="xtick_8">
     <g id="line2d_8">
      <defs>
       <path d="M 0 0 
L 0 2 
" id="me5cdc1dd71" style="stroke:#000000;stroke-width:0.6;"/>
      </defs>
      <g>
       <use style="stroke:#000000;stroke-width:0.6;" x="97.880435" xlink:href="#me5cdc1dd71" y="262.5"/>
      </g>
     </g>
    </g>
    <g id="xtick_9">
     <g id="line2d_9">
      <g>
       <use style="stroke:#000000;stroke-width:0.6;" x="123.994565" xlink:href="#me5cdc1dd71" y="262.5"/>
      </g>
     </g>
    </g>
    <g id="xtick_10">
     <g id="line2d_10">
      <g>
       <use style="stroke:#000000;stroke-width:0.6;" x="175.380435" xlink:href="#me5cdc1dd71" y="262.5"/>
      </g>
     </g>
    </g>
    <g id="xtick_11">
     <g id="line2d_11">
      <g>
       <use style="stroke:#000000;stroke-width:0.6;" x="201.494565" xlink:href="#me5cdc1dd71" y="262.5"/>
      </g>
     </g>
    </g>
    <g id="xtick_12">
     <g id="line2d_12">
      <g>
       <use style="stroke:#000000;stroke-width:0.6;" x="252.880435" xlink:href="#me5cdc1dd71" y="262.5"/>
      </g>
     </g>
    </g>
    <g id="xtick_13">
     <g id="line2d_13">
      <g>
       <use style="stroke:#000000;stroke-width:0.6;" x="278.152174" xlink:href="#me5cdc1dd71" y="262.5"/>
      </g>
     </g>
    </g>
    <g id="xtick_14">
     <g id="line2d_14">
      <g>
       <use style="stroke:#000000;stroke-width:0.6;" x="330.380435" xlink:href="#me5cdc1dd71" y="262.5"/>
      </g>
     </g>
    </g>
    <g id="xtick_15">
     <g id="line2d_15">
      <g>
       <use style="stroke:#000000;stroke-width:0.6;" x="353.967391" xlink:href="#me5cdc1dd71" y="262.5"/>
      </g>
     </g>
    </g>
    <g id="xtick_16">
     <g id="line2d_16">
      <g>
       <use style="stroke:#000000;stroke-width:0.6;" x="405.353261" xlink:href="#me5cdc1dd71" y="262.5"/>
      </g>
     </g>
    </g>
    <g id="xtick_17">
     <g id="line2d_17">
      <g>
       <use style="stroke:#000000;stroke-width:0.6;" x="431.467391" xlink:href="#me5cdc1dd71" y="262.5"/>
      </g>
     </g>
    </g>
    <g id="text_6">
     <!-- fecha -->
     <g transform="translate(243.774219 301.5625)scale(0.1 -0.1)">
      <defs>
       <path d="M 11.28125 0 
L 11.28125 45.84375 
L 2.9375 45.84375 
L 2.9375 52.828125 
L 11.28125 52.828125 
L 11.28125 58.25 
Q 11.28125 66.75 15.8125 71.390625 
Q 20.359375 76.03125 28.65625 76.03125 
Q 31.78125 76.03125 34.859375 75.203125 
L 34.375 67.875 
Q 32.078125 68.3125 29.5 68.3125 
Q 25.09375 68.3125 22.703125 65.75 
Q 20.3125 63.1875 20.3125 58.40625 
L 20.3125 52.828125 
L 31.59375 52.828125 
L 31.59375 45.84375 
L 20.3125 45.84375 
L 20.3125 0 
z
" id="Roboto-Regular-102"/>
       <path d="M 28.765625 -0.984375 
Q 18.015625 -0.984375 11.28125 6.078125 
Q 4.546875 13.140625 4.546875 24.953125 
L 4.546875 26.609375 
Q 4.546875 34.46875 7.546875 40.640625 
Q 10.546875 46.828125 15.9375 50.3125 
Q 21.34375 53.8125 27.640625 53.8125 
Q 37.9375 53.8125 43.640625 47.015625 
Q 49.359375 40.234375 49.359375 27.59375 
L 49.359375 23.828125 
L 13.578125 23.828125 
Q 13.765625 16.015625 18.140625 11.203125 
Q 22.515625 6.390625 29.25 6.390625 
Q 34.03125 6.390625 37.34375 8.34375 
Q 40.671875 10.296875 43.171875 13.53125 
L 48.6875 9.234375 
Q 42.046875 -0.984375 28.765625 -0.984375 
z
M 27.640625 46.390625 
Q 22.171875 46.390625 18.453125 42.40625 
Q 14.75 38.421875 13.875 31.25 
L 40.328125 31.25 
L 40.328125 31.9375 
Q 39.9375 38.8125 36.609375 42.59375 
Q 33.296875 46.390625 27.640625 46.390625 
z
" id="Roboto-Regular-101"/>
       <path d="M 28.03125 6.390625 
Q 32.859375 6.390625 36.46875 9.3125 
Q 40.09375 12.25 40.484375 16.65625 
L 49.03125 16.65625 
Q 48.78125 12.109375 45.890625 8 
Q 43.015625 3.90625 38.203125 1.453125 
Q 33.40625 -0.984375 28.03125 -0.984375 
Q 17.234375 -0.984375 10.859375 6.21875 
Q 4.5 13.421875 4.5 25.921875 
L 4.5 27.4375 
Q 4.5 35.15625 7.328125 41.15625 
Q 10.15625 47.171875 15.453125 50.484375 
Q 20.75 53.8125 27.984375 53.8125 
Q 36.859375 53.8125 42.75 48.484375 
Q 48.640625 43.171875 49.03125 34.671875 
L 40.484375 34.671875 
Q 40.09375 39.796875 36.59375 43.09375 
Q 33.109375 46.390625 27.984375 46.390625 
Q 21.09375 46.390625 17.3125 41.421875 
Q 13.53125 36.46875 13.53125 27.09375 
L 13.53125 25.390625 
Q 13.53125 16.265625 17.28125 11.328125 
Q 21.046875 6.390625 28.03125 6.390625 
z
" id="Roboto-Regular-99"/>
       <path d="M 15.875 46.4375 
Q 21.875 53.8125 31.5 53.8125 
Q 48.25 53.8125 48.390625 34.90625 
L 48.390625 0 
L 39.359375 0 
L 39.359375 34.96875 
Q 39.3125 40.671875 36.75 43.40625 
Q 34.1875 46.140625 28.765625 46.140625 
Q 24.359375 46.140625 21.03125 43.796875 
Q 17.71875 41.453125 15.875 37.640625 
L 15.875 0 
L 6.84375 0 
L 6.84375 75 
L 15.875 75 
z
" id="Roboto-Regular-104"/>
       <path d="M 39.453125 0 
Q 38.671875 1.5625 38.1875 5.5625 
Q 31.890625 -0.984375 23.140625 -0.984375 
Q 15.328125 -0.984375 10.328125 3.4375 
Q 5.328125 7.859375 5.328125 14.65625 
Q 5.328125 22.90625 11.59375 27.46875 
Q 17.875 32.03125 29.25 32.03125 
L 38.03125 32.03125 
L 38.03125 36.1875 
Q 38.03125 40.921875 35.203125 43.71875 
Q 32.375 46.53125 26.859375 46.53125 
Q 22.015625 46.53125 18.75 44.09375 
Q 15.484375 41.65625 15.484375 38.1875 
L 6.390625 38.1875 
Q 6.390625 42.140625 9.203125 45.828125 
Q 12.015625 49.515625 16.8125 51.65625 
Q 21.625 53.8125 27.390625 53.8125 
Q 36.53125 53.8125 41.703125 49.234375 
Q 46.875 44.671875 47.078125 36.671875 
L 47.078125 12.359375 
Q 47.078125 5.078125 48.921875 0.78125 
L 48.921875 0 
z
M 24.46875 6.890625 
Q 28.71875 6.890625 32.515625 9.078125 
Q 36.328125 11.28125 38.03125 14.796875 
L 38.03125 25.640625 
L 30.953125 25.640625 
Q 14.359375 25.640625 14.359375 15.921875 
Q 14.359375 11.671875 17.1875 9.28125 
Q 20.015625 6.890625 24.46875 6.890625 
z
" id="Roboto-Regular-97"/>
      </defs>
      <use xlink:href="#Roboto-Regular-102"/>
      <use x="34.716797" xlink:href="#Roboto-Regular-101"/>
      <use x="87.695312" xlink:href="#Roboto-Regular-99"/>
      <use x="140.039062" xlink:href="#Roboto-Regular-104"/>
      <use x="195.117188" xlink:href="#Roboto-Regular-97"/>
     </g>
    </g>
   </g>
   <g id="matplotlib.axis_2">
    <g id="ytick_1">
     <g id="line2d_18">
      <defs>
       <path d="M 0 0 
L -3.5 0 
" id="md710f2ebd2" style="stroke:#000000;stroke-width:0.8;"/>
      </defs>
      <g>
       <use style="stroke:#000000;stroke-width:0.8;" x="62.5" xlink:href="#md710f2ebd2" y="252.204545"/>
      </g>
     </g>
     <g id="text_7">
      <!-- 0 -->
      <g transform="translate(49.815625 255.954545)scale(0.1 -0.1)">
       <use xlink:href="#Roboto-Medium-48"/>
      </g>
     </g>
    </g>
    <g id="ytick_2">
     <g id="line2d_19">
      <g>
       <use style="stroke:#000000;stroke-width:0.8;" x="62.5" xlink:href="#md710f2ebd2" y="203.526273"/>
      </g>
     </g>
     <g id="text_8">
      <!-- 200 -->
      <g transform="translate(38.446875 207.276273)scale(0.1 -0.1)">
       <use xlink:href="#Roboto-Medium-50"/>
       <use x="56.835938" xlink:href="#Roboto-Medium-48"/>
       <use x="113.671875" xlink:href="#Roboto-Medium-48"/>
      </g>
     </g>
    </g>
    <g id="ytick_3">
     <g id="line2d_20">
      <g>
       <use style="stroke:#000000;stroke-width:0.8;" x="62.5" xlink:href="#md710f2ebd2" y="154.848001"/>
      </g>
     </g>
     <g id="text_9">
      <!-- 400 -->
      <g transform="translate(38.446875 158.598001)scale(0.1 -0.1)">
       <defs>
        <path d="M 45.453125 25.34375 
L 54.296875 25.34375 
L 54.296875 15.828125 
L 45.453125 15.828125 
L 45.453125 0 
L 33.59375 0 
L 33.59375 15.828125 
L 2.875 15.828125 
L 2.546875 23.046875 
L 33.203125 71.09375 
L 45.453125 71.09375 
z
M 14.984375 25.34375 
L 33.59375 25.34375 
L 33.59375 55.03125 
L 32.71875 53.46875 
z
" id="Roboto-Medium-52"/>
       </defs>
       <use xlink:href="#Roboto-Medium-52"/>
       <use x="56.835938" xlink:href="#Roboto-Medium-48"/>
       <use x="113.671875" xlink:href="#Roboto-Medium-48"/>
      </g>
     </g>
    </g>
    <g id="ytick_4">
     <g id="line2d_21">
      <g>
       <use style="stroke:#000000;stroke-width:0.8;" x="62.5" xlink:href="#md710f2ebd2" y="106.169729"/>
      </g>
     </g>
     <g id="text_10">
      <!-- 600 -->
      <g transform="translate(38.446875 109.919729)scale(0.1 -0.1)">
       <defs>
        <path d="M 42.234375 71.4375 
L 42.234375 61.625 
L 40.765625 61.625 
Q 30.8125 61.46875 24.84375 56.140625 
Q 18.890625 50.828125 17.78125 41.0625 
Q 23.484375 47.078125 32.375 47.078125 
Q 41.796875 47.078125 47.234375 40.4375 
Q 52.6875 33.796875 52.6875 23.296875 
Q 52.6875 12.453125 46.3125 5.734375 
Q 39.9375 -0.984375 29.59375 -0.984375 
Q 18.953125 -0.984375 12.328125 6.875 
Q 5.71875 14.75 5.71875 27.484375 
L 5.71875 31.546875 
Q 5.71875 50.25 14.8125 60.84375 
Q 23.921875 71.4375 41.015625 71.4375 
z
M 29.5 37.5 
Q 25.59375 37.5 22.34375 35.296875 
Q 19.09375 33.109375 17.578125 29.4375 
L 17.578125 25.828125 
Q 17.578125 17.921875 20.890625 13.25 
Q 24.21875 8.59375 29.484375 8.59375 
Q 34.765625 8.59375 37.84375 12.546875 
Q 40.921875 16.5 40.921875 22.9375 
Q 40.921875 29.390625 37.796875 33.4375 
Q 34.671875 37.5 29.5 37.5 
z
" id="Roboto-Medium-54"/>
       </defs>
       <use xlink:href="#Roboto-Medium-54"/>
       <use x="56.835938" xlink:href="#Roboto-Medium-48"/>
       <use x="113.671875" xlink:href="#Roboto-Medium-48"/>
      </g>
     </g>
    </g>
    <g id="ytick_5">
     <g id="line2d_22">
      <g>
       <use style="stroke:#000000;stroke-width:0.8;" x="62.5" xlink:href="#md710f2ebd2" y="57.491457"/>
      </g>
     </g>
     <g id="text_11">
      <!-- 800 -->
      <g transform="translate(38.446875 61.241457)scale(0.1 -0.1)">
       <defs>
        <path d="M 50.09375 52.34375 
Q 50.09375 47.125 47.40625 43.046875 
Q 44.734375 38.96875 40.09375 36.625 
Q 45.65625 34.03125 48.65625 29.53125 
Q 51.65625 25.046875 51.65625 19.390625 
Q 51.65625 10.015625 45.3125 4.515625 
Q 38.96875 -0.984375 28.421875 -0.984375 
Q 17.828125 -0.984375 11.453125 4.53125 
Q 5.078125 10.0625 5.078125 19.390625 
Q 5.078125 25.09375 8.109375 29.640625 
Q 11.140625 34.1875 16.609375 36.625 
Q 12.015625 38.96875 9.34375 43.046875 
Q 6.6875 47.125 6.6875 52.34375 
Q 6.6875 61.421875 12.546875 66.75 
Q 18.40625 72.078125 28.375 72.078125 
Q 38.375 72.078125 44.234375 66.75 
Q 50.09375 61.421875 50.09375 52.34375 
z
M 39.796875 19.96875 
Q 39.796875 25.25 36.640625 28.484375 
Q 33.5 31.734375 28.3125 31.734375 
Q 23.140625 31.734375 20.03125 28.515625 
Q 16.9375 25.296875 16.9375 19.96875 
Q 16.9375 14.75 19.984375 11.625 
Q 23.046875 8.5 28.421875 8.5 
Q 33.796875 8.5 36.796875 11.515625 
Q 39.796875 14.546875 39.796875 19.96875 
z
M 38.28125 51.90625 
Q 38.28125 56.546875 35.59375 59.546875 
Q 32.90625 62.546875 28.359375 62.546875 
Q 23.828125 62.546875 21.1875 59.6875 
Q 18.5625 56.84375 18.5625 51.90625 
Q 18.5625 47.015625 21.21875 44.140625 
Q 23.875 41.265625 28.40625 41.265625 
Q 32.953125 41.265625 35.609375 44.140625 
Q 38.28125 47.015625 38.28125 51.90625 
z
" id="Roboto-Medium-56"/>
       </defs>
       <use xlink:href="#Roboto-Medium-56"/>
       <use x="56.835938" xlink:href="#Roboto-Medium-48"/>
       <use x="113.671875" xlink:href="#Roboto-Medium-48"/>
      </g>
     </g>
    </g>
   </g>
   <g id="line2d_23">
    <path clip-path="url(#p9fee10c9f8)" d="M 63.342391 251.961154 
L 64.184783 250.744197 
L 65.027174 252.204545 
L 65.869565 249.040458 
L 66.711957 252.204545 
L 67.554348 249.770632 
L 68.396739 250.014023 
L 69.23913 249.770632 
L 70.081522 250.744197 
L 70.923913 250.257415 
L 71.766304 251.23098 
L 72.608696 250.257415 
L 73.451087 248.797066 
L 74.293478 247.823501 
L 75.13587 249.770632 
L 75.978261 252.204545 
L 76.820652 247.823501 
L 77.663043 249.040458 
L 78.505435 250.744197 
L 79.347826 251.717763 
L 80.190217 251.961154 
L 81.032609 251.961154 
L 81.875 251.23098 
L 82.717391 251.961154 
L 83.559783 251.717763 
L 84.402174 250.500806 
L 85.244565 251.23098 
L 86.086957 247.823501 
L 86.929348 250.500806 
L 87.771739 249.52724 
L 88.61413 250.257415 
L 89.456522 251.717763 
L 90.298913 251.717763 
L 91.141304 250.744197 
L 91.983696 251.961154 
L 92.826087 251.717763 
L 93.668478 251.961154 
L 94.51087 251.717763 
L 95.353261 250.987589 
L 98.722826 251.961154 
L 99.565217 251.23098 
L 100.407609 251.717763 
L 101.25 250.500806 
L 102.092391 251.961154 
L 102.934783 246.606544 
L 103.777174 250.987589 
L 104.619565 251.23098 
L 105.461957 250.987589 
L 106.304348 251.717763 
L 107.146739 251.474371 
L 107.98913 251.961154 
L 108.831522 251.717763 
L 109.673913 252.204545 
L 111.358696 251.23098 
L 112.201087 252.204545 
L 113.043478 248.797066 
L 113.88587 249.52724 
L 114.728261 251.474371 
L 115.570652 250.014023 
L 116.413043 250.257415 
L 117.255435 251.23098 
L 118.097826 249.283849 
L 118.940217 249.52724 
L 119.782609 247.58011 
L 120.625 249.52724 
L 121.467391 244.416022 
L 122.309783 248.553675 
L 123.152174 250.500806 
L 123.994565 250.744197 
L 124.836957 249.283849 
L 125.679348 245.146196 
L 126.521739 248.310284 
L 127.36413 250.257415 
L 128.206522 251.717763 
L 129.048913 249.283849 
L 129.891304 248.310284 
L 130.733696 246.363153 
L 131.576087 247.58011 
L 132.418478 249.283849 
L 133.26087 248.797066 
L 134.103261 249.770632 
L 134.945652 247.823501 
L 135.788043 250.257415 
L 136.630435 247.093327 
L 137.472826 246.363153 
L 138.315217 242.468891 
L 139.157609 244.659413 
L 140 237.601064 
L 140.842391 244.416022 
L 141.684783 239.791586 
L 142.527174 245.632979 
L 143.369565 237.844455 
L 144.211957 244.902805 
L 145.054348 238.087847 
L 145.896739 238.818021 
L 146.73913 237.844455 
L 147.581522 245.146196 
L 148.423913 239.304803 
L 150.108696 237.357672 
L 150.951087 237.357672 
L 151.793478 237.601064 
L 152.63587 235.16715 
L 153.478261 236.627498 
L 154.320652 215.939233 
L 155.163043 228.838975 
L 156.005435 231.51628 
L 156.847826 221.293843 
L 157.690217 216.426015 
L 158.532609 233.950193 
L 159.375 219.590103 
L 160.217391 220.80706 
L 161.059783 216.669407 
L 161.902174 218.129755 
L 162.744565 219.10332 
L 163.586957 212.531754 
L 164.429348 207.177144 
L 165.271739 229.81254 
L 166.11413 203.039491 
L 166.956522 199.875403 
L 167.798913 211.071406 
L 168.641304 197.928272 
L 169.483696 202.065925 
L 170.326087 217.399581 
L 171.168478 197.441489 
L 172.01087 192.086879 
L 172.853261 204.256447 
L 173.695652 200.848968 
L 174.538043 193.060445 
L 175.380435 201.579142 
L 176.222826 223.727756 
L 177.065217 199.38862 
L 177.907609 146.572695 
L 178.75 191.113314 
L 179.592391 205.230013 
L 180.434783 194.277402 
L 181.277174 188.192618 
L 182.119565 210.09784 
L 182.961957 180.647485 
L 183.804348 178.943746 
L 184.646739 163.853482 
L 185.48913 181.37766 
L 186.331522 183.568182 
L 187.173913 180.890877 
L 188.016304 192.330271 
L 189.701087 167.017569 
L 190.543478 207.907318 
L 191.38587 197.684881 
L 192.228261 191.843488 
L 193.070652 211.558188 
L 193.913043 203.526273 
L 194.755435 200.362186 
L 195.597826 200.118794 
L 196.440217 214.235493 
L 197.282609 214.478885 
L 198.125 206.44697 
L 198.967391 238.087847 
L 199.809783 224.45793 
L 200.652174 201.822534 
L 201.494565 223.240974 
L 202.336957 226.405061 
L 203.179348 216.182624 
L 204.021739 209.854449 
L 204.86413 226.405061 
L 205.706522 238.574629 
L 206.548913 206.933752 
L 207.391304 220.320277 
L 208.233696 221.050451 
L 209.076087 211.80158 
L 209.918478 218.373146 
L 210.76087 227.135235 
L 211.603261 242.2255 
L 212.445652 218.616538 
L 213.288043 214.235493 
L 214.130435 223.240974 
L 214.972826 227.135235 
L 215.815217 226.891844 
L 216.657609 234.193585 
L 217.5 235.897324 
L 218.342391 226.16167 
L 219.184783 226.16167 
L 220.027174 217.399581 
L 220.869565 220.563669 
L 221.711957 224.944713 
L 222.554348 227.622018 
L 223.396739 237.601064 
L 224.23913 226.16167 
L 225.081522 219.346712 
L 225.923913 227.622018 
L 226.766304 230.542714 
L 227.608696 216.912798 
L 228.451087 224.701322 
L 229.293478 213.018536 
L 230.13587 222.754191 
L 230.978261 223.727756 
L 231.820652 217.886364 
L 232.663043 220.076886 
L 233.505435 224.214539 
L 234.347826 230.542714 
L 235.190217 232.003063 
L 236.032609 229.569149 
L 236.875 236.384107 
L 237.717391 230.542714 
L 238.559783 209.124275 
L 239.402174 219.346712 
L 240.244565 221.293843 
L 241.086957 234.680368 
L 242.771739 210.584623 
L 243.61413 214.722276 
L 244.456522 211.314797 
L 245.298913 210.584623 
L 246.141304 210.828014 
L 246.983696 227.378627 
L 247.826087 209.611057 
L 248.668478 214.235493 
L 249.51087 216.182624 
L 250.353261 208.637492 
L 251.195652 212.531754 
L 252.038043 208.637492 
L 252.880435 234.923759 
L 253.722826 219.10332 
L 254.565217 222.754191 
L 255.407609 217.399581 
L 256.25 217.399581 
L 257.092391 215.695841 
L 257.934783 218.373146 
L 258.777174 222.024017 
L 259.619565 216.182624 
L 260.461957 209.124275 
L 261.304348 214.235493 
L 262.146739 199.632012 
L 262.98913 216.182624 
L 263.831522 209.124275 
L 264.673913 234.436976 
L 265.516304 219.590103 
L 266.358696 200.605577 
L 267.201087 221.537234 
L 268.043478 193.547228 
L 268.88587 213.505319 
L 269.728261 198.901838 
L 270.570652 216.426015 
L 271.413043 204.74323 
L 272.255435 195.494358 
L 273.940217 205.960187 
L 274.782609 183.568182 
L 275.625 210.09784 
L 276.467391 209.854449 
L 277.309783 217.399581 
L 278.152174 199.38862 
L 278.994565 193.790619 
L 279.836957 202.552708 
L 280.679348 176.753224 
L 281.521739 198.171663 
L 282.36413 198.901838 
L 283.206522 195.494358 
L 284.048913 200.605577 
L 284.891304 183.568182 
L 285.733696 185.02853 
L 286.576087 186.002095 
L 287.418478 179.187137 
L 288.26087 207.907318 
L 289.103261 179.917311 
L 289.945652 155.821567 
L 290.788043 159.715828 
L 291.630435 179.430529 
L 292.472826 156.795132 
L 293.315217 169.451483 
L 294.157609 195.494358 
L 295 166.774178 
L 295.842391 143.651999 
L 296.684783 137.810606 
L 297.527174 144.138781 
L 298.369565 209.367666 
L 299.211957 172.128788 
L 300.054348 167.017569 
L 300.896739 136.106867 
L 301.73913 128.318343 
L 302.581522 106.169729 
L 304.266304 219.833495 
L 305.108696 178.456963 
L 305.951087 121.016602 
L 306.793478 181.621051 
L 307.63587 98.867988 
L 308.478261 117.852515 
L 309.320652 140.731302 
L 310.163043 156.551741 
L 311.005435 162.879916 
L 312.690217 206.690361 
L 313.532609 119.069471 
L 314.375 99.598162 
L 315.217391 149.736783 
L 316.059783 145.355738 
L 316.902174 154.361219 
L 317.744565 175.779658 
L 318.586957 158.012089 
L 319.429348 137.810606 
L 320.271739 166.774178 
L 321.11413 158.985654 
L 321.956522 180.647485 
L 322.798913 191.356705 
L 323.641304 218.373146 
L 324.483696 166.774178 
L 325.326087 193.790619 
L 327.01087 197.684881 
L 327.853261 206.203578 
L 328.695652 225.188104 
L 329.538043 217.399581 
L 330.380435 212.775145 
L 331.222826 218.373146 
L 332.065217 220.320277 
L 332.907609 212.044971 
L 333.75 223.727756 
L 334.592391 225.431496 
L 335.434783 231.51628 
L 336.277174 232.246454 
L 337.119565 217.886364 
L 337.961957 228.352192 
L 338.804348 228.838975 
L 339.646739 228.352192 
L 340.48913 230.299323 
L 341.331522 238.331238 
L 342.173913 237.844455 
L 343.016304 234.193585 
L 343.858696 229.082366 
L 344.701087 234.193585 
L 345.543478 233.950193 
L 346.38587 234.436976 
L 347.228261 242.712282 
L 348.070652 240.034977 
L 348.913043 236.627498 
L 349.755435 234.680368 
L 350.597826 240.034977 
L 351.440217 235.897324 
L 352.282609 238.331238 
L 353.125 240.278369 
L 353.967391 222.754191 
L 354.809783 235.897324 
L 355.652174 236.384107 
L 356.494565 232.003063 
L 357.336957 241.738717 
L 358.179348 236.384107 
L 359.021739 241.982108 
L 360.706522 236.384107 
L 361.548913 228.352192 
L 362.391304 236.627498 
L 363.233696 235.410542 
L 364.076087 241.738717 
L 364.918478 243.199065 
L 365.76087 233.463411 
L 366.603261 234.680368 
L 367.445652 231.51628 
L 368.288043 232.976628 
L 369.130435 232.003063 
L 369.972826 231.272888 
L 370.815217 227.135235 
L 371.657609 240.52176 
L 372.5 230.786106 
L 373.342391 218.616538 
L 374.184783 219.833495 
L 375.027174 214.478885 
L 375.869565 214.965667 
L 376.711957 229.082366 
L 377.554348 212.288362 
L 378.396739 214.722276 
L 379.23913 212.775145 
L 380.081522 224.214539 
L 380.923913 230.299323 
L 381.766304 213.748711 
L 382.608696 221.780625 
L 383.451087 207.420535 
L 384.293478 183.811573 
L 385.13587 199.38862 
L 385.978261 176.753224 
L 386.820652 183.568182 
L 387.663043 197.684881 
L 388.505435 194.03401 
L 389.347826 181.37766 
L 390.190217 176.996615 
L 391.032609 176.509832 
L 391.875 181.621051 
L 392.717391 180.160703 
L 393.559783 190.626531 
L 394.402174 183.32479 
L 395.244565 125.154255 
L 396.086957 165.557221 
L 396.929348 173.345745 
L 397.771739 170.66844 
L 398.61413 164.827047 
L 399.456522 191.113314 
L 400.298913 182.838008 
L 401.141304 183.568182 
L 401.983696 154.848001 
L 402.826087 181.621051 
L 403.668478 159.95922 
L 404.51087 171.398614 
L 406.195652 205.230013 
L 407.038043 178.213572 
L 407.880435 159.472437 
L 408.722826 183.081399 
L 409.565217 177.726789 
L 410.407609 173.345745 
L 411.25 184.541747 
L 412.092391 183.568182 
L 412.934783 175.536267 
L 413.777174 174.31931 
L 414.619565 182.594616 
L 415.461957 180.404094 
L 416.304348 171.155222 
L 417.146739 169.451483 
L 417.98913 199.875403 
L 418.831522 182.107834 
L 419.673913 158.742263 
L 420.516304 165.557221 
L 421.358696 149.493391 
L 422.201087 148.033043 
L 423.043478 146.085912 
L 423.88587 136.837041 
L 424.728261 146.329304 
L 425.570652 110.550774 
L 426.413043 112.984687 
L 427.255435 124.424081 
L 428.097826 143.651999 
L 428.940217 101.545293 
L 429.782609 139.757737 
L 430.625 116.392166 
L 431.467391 89.862508 
L 432.309783 46.295455 
L 433.152174 66.740329 
L 433.994565 64.306415 
L 434.836957 105.439555 
L 435.679348 113.228079 
L 436.521739 110.307382 
L 437.36413 116.878949 
L 438.206522 107.873469 
L 439.048913 150.710348 
L 439.891304 128.318343 
L 440.733696 117.12234 
L 441.576087 128.805126 
L 442.418478 112.011122 
L 443.26087 103.492424 
L 444.103261 115.661992 
L 444.945652 119.069471 
L 445.788043 115.661992 
L 446.630435 145.112347 
L 447.472826 154.361219 
L 448.315217 171.642005 
L 449.157609 151.683914 
L 450 229.81254 
L 450 229.81254 
" style="fill:none;stroke:#000000;stroke-dasharray:1.5,2.475;stroke-dashoffset:0;stroke-opacity:0.5;stroke-width:1.5;"/>
   </g>
   <g id="line2d_24">
    <path clip-path="url(#p9fee10c9f8)" d="M 62.5 251.717763 
L 63.342391 251.23098 
L 64.184783 251.23098 
L 66.711957 250.500806 
L 67.554348 250.500806 
L 68.396739 250.257415 
L 69.23913 250.500806 
L 70.081522 250.257415 
L 70.923913 250.257415 
L 72.608696 249.770632 
L 73.451087 249.770632 
L 74.293478 249.52724 
L 75.978261 249.52724 
L 76.820652 249.770632 
L 78.505435 250.744197 
L 79.347826 250.744197 
L 81.032609 251.717763 
L 81.875 251.717763 
L 82.717391 251.474371 
L 83.559783 250.987589 
L 85.244565 250.500806 
L 86.086957 250.014023 
L 86.929348 250.014023 
L 88.61413 250.500806 
L 89.456522 250.987589 
L 91.983696 251.717763 
L 92.826087 251.474371 
L 99.565217 251.474371 
L 100.407609 250.987589 
L 102.092391 250.500806 
L 103.777174 250.500806 
L 104.619565 250.744197 
L 105.461957 250.744197 
L 106.304348 251.474371 
L 107.146739 251.717763 
L 109.673913 251.717763 
L 113.88587 250.500806 
L 114.728261 250.500806 
L 115.570652 250.257415 
L 116.413043 250.257415 
L 117.255435 250.014023 
L 119.782609 248.553675 
L 120.625 248.310284 
L 121.467391 248.553675 
L 123.994565 248.553675 
L 125.679348 249.040458 
L 127.36413 249.040458 
L 128.206522 248.797066 
L 129.048913 249.040458 
L 131.576087 248.310284 
L 132.418478 248.310284 
L 134.103261 248.797066 
L 134.945652 248.553675 
L 136.630435 247.093327 
L 137.472826 245.389587 
L 138.315217 244.416022 
L 139.157609 242.955674 
L 140 242.712282 
L 140.842391 241.738717 
L 141.684783 241.982108 
L 142.527174 241.495326 
L 143.369565 241.495326 
L 144.211957 240.52176 
L 145.054348 240.765152 
L 145.896739 240.278369 
L 146.73913 240.278369 
L 147.581522 239.548195 
L 149.266304 239.061412 
L 150.108696 238.331238 
L 150.951087 237.357672 
L 151.793478 234.680368 
L 154.320652 229.325758 
L 155.163043 226.648453 
L 156.005435 225.918279 
L 156.847826 224.214539 
L 157.690217 224.45793 
L 158.532609 222.997582 
L 159.375 221.293843 
L 160.217391 220.80706 
L 161.059783 219.833495 
L 161.902174 216.669407 
L 162.744565 217.15619 
L 163.586957 215.45245 
L 164.429348 213.261928 
L 165.271739 211.80158 
L 166.11413 209.124275 
L 166.956522 207.177144 
L 167.798913 207.420535 
L 168.641304 204.256447 
L 169.483696 203.282882 
L 170.326087 203.282882 
L 171.168478 201.822534 
L 172.01087 200.848968 
L 172.853261 200.362186 
L 173.695652 201.09236 
L 174.538043 202.309317 
L 175.380435 197.928272 
L 176.222826 195.007576 
L 177.907609 192.573662 
L 178.75 190.869923 
L 179.592391 190.38314 
L 180.434783 190.38314 
L 181.277174 193.547228 
L 182.961957 185.515313 
L 183.804348 182.838008 
L 185.48913 179.430529 
L 186.331522 180.404094 
L 187.173913 179.917311 
L 188.016304 184.054965 
L 188.858696 186.245487 
L 189.701087 187.949226 
L 190.543478 192.086879 
L 191.38587 194.764184 
L 193.070652 201.822534 
L 193.913043 202.796099 
L 195.597826 206.933752 
L 197.282609 213.992102 
L 198.125 215.45245 
L 198.967391 218.129755 
L 199.809783 219.346712 
L 200.652174 219.590103 
L 201.494565 219.590103 
L 202.336957 218.129755 
L 203.179348 220.076886 
L 204.021739 221.050451 
L 205.706522 220.563669 
L 206.548913 219.833495 
L 207.391304 220.076886 
L 208.233696 219.590103 
L 209.076087 220.563669 
L 209.918478 222.754191 
L 210.76087 222.754191 
L 211.603261 223.240974 
L 212.445652 224.45793 
L 214.130435 225.431496 
L 214.972826 225.674887 
L 216.657609 229.082366 
L 217.5 228.352192 
L 220.027174 224.701322 
L 220.869565 224.944713 
L 221.711957 225.674887 
L 222.554348 225.674887 
L 223.396739 226.891844 
L 224.23913 227.622018 
L 225.923913 225.674887 
L 226.766304 222.997582 
L 227.608696 222.267408 
L 228.451087 222.267408 
L 229.293478 221.050451 
L 230.13587 220.076886 
L 231.820652 221.537234 
L 232.663043 223.971148 
L 233.505435 225.188104 
L 235.190217 229.569149 
L 236.032609 228.595583 
L 236.875 227.378627 
L 237.717391 225.431496 
L 238.559783 224.701322 
L 239.402174 223.727756 
L 240.244565 221.537234 
L 241.086957 220.076886 
L 241.929348 219.833495 
L 243.61413 215.695841 
L 244.456522 214.478885 
L 245.298913 213.505319 
L 246.141304 214.235493 
L 246.983696 214.478885 
L 247.826087 214.478885 
L 248.668478 214.235493 
L 249.51087 213.505319 
L 250.353261 214.235493 
L 251.195652 215.695841 
L 252.038043 217.399581 
L 252.880435 218.373146 
L 253.722826 219.833495 
L 255.407609 220.320277 
L 256.25 218.616538 
L 257.092391 218.373146 
L 257.934783 216.912798 
L 258.777174 216.426015 
L 259.619565 214.235493 
L 260.461957 213.261928 
L 261.304348 211.80158 
L 262.98913 214.235493 
L 263.831522 214.235493 
L 264.673913 215.45245 
L 265.516304 214.478885 
L 266.358696 213.261928 
L 267.201087 211.071406 
L 268.043478 208.394101 
L 268.88587 206.933752 
L 269.728261 206.44697 
L 270.570652 204.013056 
L 271.413043 204.74323 
L 272.255435 201.335751 
L 273.097826 201.579142 
L 273.940217 200.848968 
L 275.625 204.013056 
L 276.467391 203.769665 
L 277.309783 203.769665 
L 278.152174 202.065925 
L 278.994565 199.145229 
L 280.679348 194.520793 
L 281.521739 194.764184 
L 282.36413 194.03401 
L 283.206522 192.573662 
L 284.048913 192.817054 
L 284.891304 189.896357 
L 285.733696 189.896357 
L 286.576087 188.436009 
L 287.418478 184.054965 
L 288.26087 180.647485 
L 289.103261 178.213572 
L 289.945652 173.589136 
L 290.788043 170.911831 
L 291.630435 169.451483 
L 292.472826 169.451483 
L 293.315217 168.9647 
L 294.157609 165.800613 
L 295 160.446003 
L 295.842391 163.61009 
L 296.684783 163.61009 
L 298.369565 161.662959 
L 299.211957 160.202611 
L 300.054348 154.361219 
L 300.896739 151.683914 
L 301.73913 151.197131 
L 302.581522 154.117827 
L 303.423913 153.631044 
L 304.266304 160.446003 
L 305.108696 158.498872 
L 305.951087 155.821567 
L 306.793478 148.276435 
L 307.63587 139.270954 
L 308.478261 138.053997 
L 310.163043 152.90087 
L 311.005435 159.229046 
L 311.847826 158.012089 
L 312.690217 156.064958 
L 313.532609 151.440522 
L 314.375 147.54626 
L 316.059783 143.89539 
L 316.902174 148.763217 
L 317.744565 156.064958 
L 318.586957 157.038524 
L 319.429348 160.689394 
L 320.271739 165.070438 
L 321.11413 171.642005 
L 321.956522 176.266441 
L 322.798913 183.811573 
L 324.483696 192.086879 
L 325.326087 194.764184 
L 326.168478 198.658446 
L 327.01087 200.848968 
L 327.853261 207.420535 
L 329.538043 214.722276 
L 331.222826 218.129755 
L 332.065217 218.373146 
L 332.907609 220.320277 
L 333.75 222.997582 
L 334.592391 223.971148 
L 335.434783 225.188104 
L 336.277174 226.891844 
L 337.961957 227.865409 
L 338.804348 228.595583 
L 339.646739 230.055932 
L 340.48913 232.489845 
L 341.331522 232.976628 
L 342.173913 233.706802 
L 343.016304 234.193585 
L 343.858696 234.193585 
L 344.701087 234.680368 
L 346.38587 236.140716 
L 347.228261 237.114281 
L 348.070652 237.844455 
L 348.913043 237.844455 
L 349.755435 238.087847 
L 350.597826 237.844455 
L 351.440217 236.140716 
L 352.282609 235.653933 
L 353.125 235.410542 
L 353.967391 234.436976 
L 355.652174 234.923759 
L 356.494565 235.653933 
L 357.336957 237.601064 
L 358.179348 238.087847 
L 359.021739 237.357672 
L 359.86413 237.357672 
L 360.706522 236.140716 
L 362.391304 236.627498 
L 363.233696 236.627498 
L 364.918478 237.114281 
L 365.76087 236.384107 
L 366.603261 235.410542 
L 367.445652 233.950193 
L 368.288043 232.003063 
L 369.130435 232.489845 
L 369.972826 232.246454 
L 370.815217 231.029497 
L 371.657609 229.325758 
L 373.342391 223.727756 
L 374.184783 222.754191 
L 375.027174 219.590103 
L 375.869565 217.886364 
L 376.711957 217.15619 
L 377.554348 217.399581 
L 378.396739 219.10332 
L 380.081522 219.10332 
L 380.923913 218.859929 
L 382.608696 211.80158 
L 384.293478 197.684881 
L 385.978261 190.626531 
L 386.820652 188.192618 
L 387.663043 187.462444 
L 388.505435 185.02853 
L 389.347826 184.541747 
L 391.032609 182.107834 
L 391.875 181.37766 
L 392.717391 175.779658 
L 394.402174 170.66844 
L 396.086957 166.044004 
L 396.929348 166.530787 
L 397.771739 168.721309 
L 398.61413 176.02305 
L 399.456522 175.779658 
L 400.298913 176.509832 
L 401.141304 175.049484 
L 401.983696 174.31931 
L 402.826087 173.345745 
L 403.668478 176.02305 
L 404.51087 177.483398 
L 405.353261 179.187137 
L 406.195652 179.67392 
L 407.038043 180.890877 
L 407.880435 179.917311 
L 408.722826 178.700355 
L 409.565217 176.996615 
L 410.407609 177.483398 
L 411.25 178.943746 
L 412.092391 178.943746 
L 412.934783 179.187137 
L 413.777174 178.700355 
L 414.619565 176.996615 
L 415.461957 178.456963 
L 416.304348 179.430529 
L 417.146739 178.456963 
L 417.98913 176.266441 
L 419.673913 168.234526 
L 420.516304 163.123308 
L 421.358696 154.848001 
L 422.201087 149.736783 
L 423.043478 143.651999 
L 423.88587 136.593649 
L 424.728261 131.969213 
L 425.570652 129.778691 
L 426.413043 124.667473 
L 427.255435 124.424081 
L 428.940217 120.043037 
L 429.782609 111.524339 
L 430.625 101.545293 
L 431.467391 89.375725 
L 433.152174 81.830593 
L 433.994565 83.534333 
L 434.836957 90.105899 
L 437.36413 118.582689 
L 439.048913 123.693907 
L 439.891304 124.424081 
L 440.733696 122.47695 
L 441.576087 121.503385 
L 442.418478 117.12234 
L 443.26087 115.418601 
L 444.103261 118.339297 
L 444.945652 122.47695 
L 446.630435 139.514346 
L 447.472826 154.117827 
L 450 180.160703 
L 450 180.160703 
" style="fill:none;stroke:#b3220f;stroke-linecap:square;stroke-width:1.5;"/>
   </g>
   <g id="patch_3">
    <path d="M 62.5 262.5 
L 62.5 36 
" style="fill:none;stroke:#000000;stroke-linecap:square;stroke-linejoin:miter;stroke-width:0.8;"/>
   </g>
   <g id="patch_4">
    <path d="M 450 262.5 
L 450 36 
" style="fill:none;stroke:#000000;stroke-linecap:square;stroke-linejoin:miter;stroke-width:0.8;"/>
   </g>
   <g id="patch_5">
    <path d="M 62.5 262.5 
L 450 262.5 
" style="fill:none;stroke:#000000;stroke-linecap:square;stroke-linejoin:miter;stroke-width:0.8;"/>
   </g>
   <g id="patch_6">
    <path d="M 62.5 36 
L 450 36 
" style="fill:none;stroke:#000000;stroke-linecap:square;stroke-linejoin:miter;stroke-width:0.8;"/>
   </g>
   <g id="text_12">
    <!-- Usaquén | Casos nuevos: 2021-06-23 -->
    <g transform="translate(157.676562 30)scale(0.12 -0.12)">
     <defs>
      <path d="M 58.296875 71.09375 
L 58.296875 22.75 
Q 58.25 12.703125 51.96875 6.296875 
Q 45.703125 -0.09375 34.96875 -0.875 
L 32.46875 -0.984375 
Q 20.796875 -0.984375 13.859375 5.3125 
Q 6.9375 11.625 6.84375 22.65625 
L 6.84375 71.09375 
L 16.109375 71.09375 
L 16.109375 22.953125 
Q 16.109375 15.234375 20.359375 10.953125 
Q 24.609375 6.6875 32.46875 6.6875 
Q 40.4375 6.6875 44.65625 10.9375 
Q 48.875 15.1875 48.875 22.90625 
L 48.875 71.09375 
z
" id="Roboto-Regular-85"/>
      <path d="M 37.59375 14.015625 
Q 37.59375 17.671875 34.828125 19.703125 
Q 32.078125 21.734375 25.21875 23.1875 
Q 18.359375 24.65625 14.328125 26.703125 
Q 10.296875 28.765625 8.375 31.59375 
Q 6.453125 34.421875 6.453125 38.328125 
Q 6.453125 44.828125 11.9375 49.3125 
Q 17.4375 53.8125 25.984375 53.8125 
Q 34.96875 53.8125 40.546875 49.171875 
Q 46.140625 44.53125 46.140625 37.3125 
L 37.0625 37.3125 
Q 37.0625 41.015625 33.90625 43.703125 
Q 30.765625 46.390625 25.984375 46.390625 
Q 21.046875 46.390625 18.265625 44.234375 
Q 15.484375 42.09375 15.484375 38.625 
Q 15.484375 35.359375 18.0625 33.6875 
Q 20.65625 32.03125 27.421875 30.515625 
Q 34.1875 29 38.375 26.90625 
Q 42.578125 24.8125 44.59375 21.84375 
Q 46.625 18.890625 46.625 14.65625 
Q 46.625 7.5625 40.953125 3.28125 
Q 35.296875 -0.984375 26.265625 -0.984375 
Q 19.921875 -0.984375 15.03125 1.265625 
Q 10.15625 3.515625 7.390625 7.546875 
Q 4.640625 11.578125 4.640625 16.265625 
L 13.671875 16.265625 
Q 13.921875 11.71875 17.3125 9.046875 
Q 20.703125 6.390625 26.265625 6.390625 
Q 31.390625 6.390625 34.484375 8.46875 
Q 37.59375 10.546875 37.59375 14.015625 
z
" id="Roboto-Regular-115"/>
      <path d="M 4.640625 26.859375 
Q 4.640625 39.3125 10.34375 46.5625 
Q 16.0625 53.8125 25.6875 53.8125 
Q 35.0625 53.8125 40.484375 47.515625 
L 40.875 52.828125 
L 49.171875 52.828125 
L 49.171875 -20.3125 
L 40.140625 -20.3125 
L 40.140625 4.890625 
Q 34.671875 -0.984375 25.59375 -0.984375 
Q 16.015625 -0.984375 10.328125 6.46875 
Q 4.640625 13.921875 4.640625 26.21875 
z
M 13.671875 25.828125 
Q 13.671875 16.75 17.5 11.5625 
Q 21.34375 6.390625 27.828125 6.390625 
Q 35.890625 6.390625 40.140625 13.53125 
L 40.140625 39.40625 
Q 35.84375 46.390625 27.9375 46.390625 
Q 21.390625 46.390625 17.53125 41.1875 
Q 13.671875 35.984375 13.671875 25.828125 
z
" id="Roboto-Regular-113"/>
      <path d="M 39.453125 5.21875 
Q 34.1875 -0.984375 23.96875 -0.984375 
Q 15.53125 -0.984375 11.109375 3.921875 
Q 6.6875 8.84375 6.640625 18.453125 
L 6.640625 52.828125 
L 15.671875 52.828125 
L 15.671875 18.703125 
Q 15.671875 6.6875 25.4375 6.6875 
Q 35.796875 6.6875 39.203125 14.40625 
L 39.203125 52.828125 
L 48.25 52.828125 
L 48.25 0 
L 39.65625 0 
z
" id="Roboto-Regular-117"/>
      <path d="M 28.765625 -0.984375 
Q 18.015625 -0.984375 11.28125 6.078125 
Q 4.546875 13.140625 4.546875 24.953125 
L 4.546875 26.609375 
Q 4.546875 34.46875 7.546875 40.640625 
Q 10.546875 46.828125 15.9375 50.3125 
Q 21.34375 53.8125 27.640625 53.8125 
Q 37.9375 53.8125 43.640625 47.015625 
Q 49.359375 40.234375 49.359375 27.59375 
L 49.359375 23.828125 
L 13.578125 23.828125 
Q 13.765625 16.015625 18.140625 11.203125 
Q 22.515625 6.390625 29.25 6.390625 
Q 34.03125 6.390625 37.34375 8.34375 
Q 40.671875 10.296875 43.171875 13.53125 
L 48.6875 9.234375 
Q 42.046875 -0.984375 28.765625 -0.984375 
z
M 27.640625 46.390625 
Q 22.171875 46.390625 18.453125 42.40625 
Q 14.75 38.421875 13.875 31.25 
L 40.328125 31.25 
L 40.328125 31.9375 
Q 39.9375 38.8125 36.609375 42.59375 
Q 33.296875 46.390625 27.640625 46.390625 
z
M 32.03125 75 
L 42.96875 75 
L 29.890625 60.640625 
L 22.609375 60.640625 
z
" id="Roboto-Regular-233"/>
      <path d="M 15.375 52.828125 
L 15.671875 46.1875 
Q 21.734375 53.8125 31.5 53.8125 
Q 48.25 53.8125 48.390625 34.90625 
L 48.390625 0 
L 39.359375 0 
L 39.359375 34.96875 
Q 39.3125 40.671875 36.75 43.40625 
Q 34.1875 46.140625 28.765625 46.140625 
Q 24.359375 46.140625 21.03125 43.796875 
Q 17.71875 41.453125 15.875 37.640625 
L 15.875 0 
L 6.84375 0 
L 6.84375 52.828125 
z
" id="Roboto-Regular-110"/>
      <path id="Roboto-Regular-32"/>
      <path d="M 15.828125 -13.1875 
L 8.546875 -13.1875 
L 8.546875 71.09375 
L 15.828125 71.09375 
z
" id="Roboto-Regular-124"/>
      <path d="M 60.546875 22.5625 
Q 59.234375 11.28125 52.21875 5.140625 
Q 45.21875 -0.984375 33.59375 -0.984375 
Q 21 -0.984375 13.40625 8.046875 
Q 5.8125 17.09375 5.8125 32.234375 
L 5.8125 39.0625 
Q 5.8125 48.96875 9.34375 56.484375 
Q 12.890625 64.015625 19.375 68.046875 
Q 25.875 72.078125 34.421875 72.078125 
Q 45.75 72.078125 52.578125 65.75 
Q 59.421875 59.421875 60.546875 48.25 
L 51.125 48.25 
Q 49.90625 56.734375 45.828125 60.546875 
Q 41.75 64.359375 34.421875 64.359375 
Q 25.4375 64.359375 20.328125 57.71875 
Q 15.234375 51.078125 15.234375 38.8125 
L 15.234375 31.9375 
Q 15.234375 20.359375 20.0625 13.515625 
Q 24.90625 6.6875 33.59375 6.6875 
Q 41.40625 6.6875 45.578125 10.21875 
Q 49.75 13.765625 51.125 22.5625 
z
" id="Roboto-Regular-67"/>
      <path d="M 4.4375 26.90625 
Q 4.4375 34.671875 7.484375 40.875 
Q 10.546875 47.078125 15.984375 50.4375 
Q 21.4375 53.8125 28.421875 53.8125 
Q 39.203125 53.8125 45.875 46.34375 
Q 52.546875 38.875 52.546875 26.46875 
L 52.546875 25.828125 
Q 52.546875 18.109375 49.578125 11.984375 
Q 46.625 5.859375 41.125 2.4375 
Q 35.640625 -0.984375 28.515625 -0.984375 
Q 17.78125 -0.984375 11.109375 6.484375 
Q 4.4375 13.96875 4.4375 26.265625 
z
M 13.53125 25.828125 
Q 13.53125 17.046875 17.609375 11.71875 
Q 21.6875 6.390625 28.515625 6.390625 
Q 35.40625 6.390625 39.453125 11.78125 
Q 43.5 17.1875 43.5 26.90625 
Q 43.5 35.59375 39.375 40.984375 
Q 35.25 46.390625 28.421875 46.390625 
Q 21.734375 46.390625 17.625 41.0625 
Q 13.53125 35.75 13.53125 25.828125 
z
" id="Roboto-Regular-111"/>
      <path d="M 24.265625 12.25 
L 37.359375 52.828125 
L 46.578125 52.828125 
L 27.640625 0 
L 20.75 0 
L 1.609375 52.828125 
L 10.84375 52.828125 
z
" id="Roboto-Regular-118"/>
      <path d="M 6.546875 4.734375 
Q 6.546875 7.078125 7.9375 8.640625 
Q 9.328125 10.203125 12.109375 10.203125 
Q 14.890625 10.203125 16.328125 8.640625 
Q 17.78125 7.078125 17.78125 4.734375 
Q 17.78125 2.484375 16.328125 0.96875 
Q 14.890625 -0.53125 12.109375 -0.53125 
Q 9.328125 -0.53125 7.9375 0.96875 
Q 6.546875 2.484375 6.546875 4.734375 
z
M 6.59375 47.84375 
Q 6.59375 50.1875 7.984375 51.75 
Q 9.375 53.3125 12.15625 53.3125 
Q 14.9375 53.3125 16.375 51.75 
Q 17.828125 50.1875 17.828125 47.84375 
Q 17.828125 45.59375 16.375 44.078125 
Q 14.9375 42.578125 12.15625 42.578125 
Q 9.375 42.578125 7.984375 44.078125 
Q 6.59375 45.59375 6.59375 47.84375 
z
" id="Roboto-Regular-58"/>
      <path d="M 52.484375 0 
L 5.90625 0 
L 5.90625 6.5 
L 30.515625 33.84375 
Q 35.984375 40.046875 38.0625 43.921875 
Q 40.140625 47.796875 40.140625 51.953125 
Q 40.140625 57.515625 36.765625 61.078125 
Q 33.40625 64.65625 27.78125 64.65625 
Q 21.046875 64.65625 17.3125 60.8125 
Q 13.578125 56.984375 13.578125 50.140625 
L 4.546875 50.140625 
Q 4.546875 59.96875 10.859375 66.015625 
Q 17.1875 72.078125 27.78125 72.078125 
Q 37.703125 72.078125 43.453125 66.875 
Q 49.21875 61.671875 49.21875 53.03125 
Q 49.21875 42.53125 35.84375 28.03125 
L 16.796875 7.375 
L 52.484375 7.375 
z
" id="Roboto-Regular-50"/>
      <path d="M 50.484375 30.328125 
Q 50.484375 14.453125 45.0625 6.734375 
Q 39.65625 -0.984375 28.125 -0.984375 
Q 16.75 -0.984375 11.28125 6.5625 
Q 5.8125 14.109375 5.609375 29.109375 
L 5.609375 41.15625 
Q 5.609375 56.84375 11.03125 64.453125 
Q 16.453125 72.078125 28.03125 72.078125 
Q 39.5 72.078125 44.921875 64.71875 
Q 50.34375 57.375 50.484375 42.046875 
z
M 41.453125 42.671875 
Q 41.453125 54.15625 38.234375 59.40625 
Q 35.015625 64.65625 28.03125 64.65625 
Q 21.09375 64.65625 17.921875 59.421875 
Q 14.75 54.203125 14.65625 43.359375 
L 14.65625 28.90625 
Q 14.65625 17.390625 18 11.890625 
Q 21.34375 6.390625 28.125 6.390625 
Q 34.8125 6.390625 38.0625 11.5625 
Q 41.3125 16.75 41.453125 27.875 
z
" id="Roboto-Regular-48"/>
      <path d="M 35.59375 0 
L 26.515625 0 
L 26.515625 60.203125 
L 8.296875 53.515625 
L 8.296875 61.71875 
L 34.1875 71.4375 
L 35.59375 71.4375 
z
" id="Roboto-Regular-49"/>
      <path d="M 25.640625 26.515625 
L 1.8125 26.515625 
L 1.8125 33.890625 
L 25.640625 33.890625 
z
" id="Roboto-Regular-45"/>
      <path d="M 41.359375 71.140625 
L 41.359375 63.484375 
L 39.703125 63.484375 
Q 29.15625 63.28125 22.90625 57.21875 
Q 16.65625 51.171875 15.671875 40.1875 
Q 21.296875 46.625 31 46.625 
Q 40.28125 46.625 45.828125 40.078125 
Q 51.375 33.546875 51.375 23.1875 
Q 51.375 12.203125 45.390625 5.609375 
Q 39.40625 -0.984375 29.34375 -0.984375 
Q 19.140625 -0.984375 12.796875 6.859375 
Q 6.453125 14.703125 6.453125 27.046875 
L 6.453125 30.515625 
Q 6.453125 50.140625 14.8125 60.515625 
Q 23.1875 70.90625 39.75 71.140625 
z
M 29.5 39.109375 
Q 24.859375 39.109375 20.953125 36.328125 
Q 17.046875 33.546875 15.53125 29.34375 
L 15.53125 26.03125 
Q 15.53125 17.234375 19.484375 11.859375 
Q 23.4375 6.5 29.34375 6.5 
Q 35.453125 6.5 38.9375 10.984375 
Q 42.4375 15.484375 42.4375 22.75 
Q 42.4375 30.078125 38.890625 34.59375 
Q 35.359375 39.109375 29.5 39.109375 
z
" id="Roboto-Regular-54"/>
      <path d="M 19.046875 39.9375 
L 25.828125 39.9375 
Q 32.234375 40.046875 35.890625 43.3125 
Q 39.546875 46.578125 39.546875 52.15625 
Q 39.546875 64.65625 27.09375 64.65625 
Q 21.234375 64.65625 17.75 61.296875 
Q 14.265625 57.953125 14.265625 52.4375 
L 5.21875 52.4375 
Q 5.21875 60.890625 11.390625 66.484375 
Q 17.578125 72.078125 27.09375 72.078125 
Q 37.15625 72.078125 42.859375 66.75 
Q 48.578125 61.421875 48.578125 51.953125 
Q 48.578125 47.3125 45.578125 42.96875 
Q 42.578125 38.625 37.40625 36.46875 
Q 43.265625 34.625 46.453125 30.328125 
Q 49.65625 26.03125 49.65625 19.828125 
Q 49.65625 10.25 43.40625 4.625 
Q 37.15625 -0.984375 27.140625 -0.984375 
Q 17.140625 -0.984375 10.859375 4.4375 
Q 4.59375 9.859375 4.59375 18.75 
L 13.671875 18.75 
Q 13.671875 13.140625 17.328125 9.765625 
Q 21 6.390625 27.15625 6.390625 
Q 33.6875 6.390625 37.15625 9.8125 
Q 40.625 13.234375 40.625 19.625 
Q 40.625 25.828125 36.8125 29.140625 
Q 33.015625 32.46875 25.828125 32.5625 
L 19.046875 32.5625 
z
" id="Roboto-Regular-51"/>
     </defs>
     <use xlink:href="#Roboto-Regular-85"/>
     <use x="64.84375" xlink:href="#Roboto-Regular-115"/>
     <use x="116.40625" xlink:href="#Roboto-Regular-97"/>
     <use x="170.800781" xlink:href="#Roboto-Regular-113"/>
     <use x="227.636719" xlink:href="#Roboto-Regular-117"/>
     <use x="282.763672" xlink:href="#Roboto-Regular-233"/>
     <use x="335.742188" xlink:href="#Roboto-Regular-110"/>
     <use x="390.917969" xlink:href="#Roboto-Regular-32"/>
     <use x="415.673828" xlink:href="#Roboto-Regular-124"/>
     <use x="440.039062" xlink:href="#Roboto-Regular-32"/>
     <use x="464.794922" xlink:href="#Roboto-Regular-67"/>
     <use x="529.882812" xlink:href="#Roboto-Regular-97"/>
     <use x="584.277344" xlink:href="#Roboto-Regular-115"/>
     <use x="635.839844" xlink:href="#Roboto-Regular-111"/>
     <use x="692.871094" xlink:href="#Roboto-Regular-115"/>
     <use x="744.433594" xlink:href="#Roboto-Regular-32"/>
     <use x="769.189453" xlink:href="#Roboto-Regular-110"/>
     <use x="824.365234" xlink:href="#Roboto-Regular-117"/>
     <use x="879.492188" xlink:href="#Roboto-Regular-101"/>
     <use x="932.470703" xlink:href="#Roboto-Regular-118"/>
     <use x="980.908203" xlink:href="#Roboto-Regular-111"/>
     <use x="1037.939453" xlink:href="#Roboto-Regular-115"/>
     <use x="1089.501953" xlink:href="#Roboto-Regular-58"/>
     <use x="1113.720703" xlink:href="#Roboto-Regular-32"/>
     <use x="1138.476562" xlink:href="#Roboto-Regular-50"/>
     <use x="1194.628906" xlink:href="#Roboto-Regular-48"/>
     <use x="1250.78125" xlink:href="#Roboto-Regular-50"/>
     <use x="1306.933594" xlink:href="#Roboto-Regular-49"/>
     <use x="1363.085938" xlink:href="#Roboto-Regular-45"/>
     <use x="1390.673828" xlink:href="#Roboto-Regular-48"/>
     <use x="1446.826172" xlink:href="#Roboto-Regular-54"/>
     <use x="1502.978516" xlink:href="#Roboto-Regular-45"/>
     <use x="1530.566406" xlink:href="#Roboto-Regular-50"/>
     <use x="1586.71875" xlink:href="#Roboto-Regular-51"/>
    </g>
   </g>
   <g id="legend_1">
    <g id="patch_7">
     <path d="M 69.5 73.75625 
L 224.726562 73.75625 
Q 226.726562 73.75625 226.726562 71.75625 
L 226.726562 43 
Q 226.726562 41 224.726562 41 
L 69.5 41 
Q 67.5 41 67.5 43 
L 67.5 71.75625 
Q 67.5 73.75625 69.5 73.75625 
z
" style="fill:#ffffff;opacity:0.8;stroke:#cccccc;stroke-linejoin:miter;"/>
    </g>
    <g id="line2d_25">
     <path d="M 71.5 49 
L 91.5 49 
" style="fill:none;stroke:#000000;stroke-dasharray:1.5,2.475;stroke-dashoffset:0;stroke-opacity:0.5;stroke-width:1.5;"/>
    </g>
    <g id="line2d_26"/>
    <g id="text_13">
     <!-- Actual -->
     <g transform="translate(99.5 52.5)scale(0.1 -0.1)">
      <use xlink:href="#Roboto-Medium-65"/>
      <use x="66.552734" xlink:href="#Roboto-Medium-99"/>
      <use x="118.896484" xlink:href="#Roboto-Medium-116"/>
      <use x="152.148438" xlink:href="#Roboto-Medium-117"/>
      <use x="207.714844" xlink:href="#Roboto-Medium-97"/>
      <use x="261.816406" xlink:href="#Roboto-Medium-108"/>
     </g>
    </g>
    <g id="line2d_27">
     <path d="M 71.5 63.995313 
L 91.5 63.995313 
" style="fill:none;stroke:#b3220f;stroke-linecap:square;stroke-width:1.5;"/>
    </g>
    <g id="line2d_28"/>
    <g id="text_14">
     <!-- Promedio semanal (7 días)  -->
     <g transform="translate(99.5 67.495313)scale(0.1 -0.1)">
      <defs>
       <path d="M 19.578125 26.421875 
L 19.578125 0 
L 7.234375 0 
L 7.234375 71.09375 
L 34.421875 71.09375 
Q 46.34375 71.09375 53.34375 64.890625 
Q 60.359375 58.6875 60.359375 48.484375 
Q 60.359375 38.03125 53.484375 32.21875 
Q 46.625 26.421875 34.28125 26.421875 
z
M 19.578125 36.328125 
L 34.421875 36.328125 
Q 41.015625 36.328125 44.484375 39.421875 
Q 47.953125 42.53125 47.953125 48.390625 
Q 47.953125 54.15625 44.4375 57.59375 
Q 40.921875 61.03125 34.765625 61.140625 
L 19.578125 61.140625 
z
" id="Roboto-Medium-80"/>
       <path d="M 3.859375 26.90625 
Q 3.859375 34.671875 6.9375 40.890625 
Q 10.015625 47.125 15.578125 50.46875 
Q 21.140625 53.8125 28.375 53.8125 
Q 39.0625 53.8125 45.71875 46.921875 
Q 52.390625 40.046875 52.9375 28.65625 
L 52.984375 25.875 
Q 52.984375 18.0625 49.96875 11.90625 
Q 46.96875 5.765625 41.375 2.390625 
Q 35.796875 -0.984375 28.46875 -0.984375 
Q 17.28125 -0.984375 10.5625 6.46875 
Q 3.859375 13.921875 3.859375 26.3125 
z
M 15.71875 25.875 
Q 15.71875 17.71875 19.09375 13.109375 
Q 22.46875 8.5 28.46875 8.5 
Q 34.46875 8.5 37.8125 13.1875 
Q 41.15625 17.875 41.15625 26.90625 
Q 41.15625 34.90625 37.71875 39.59375 
Q 34.28125 44.28125 28.375 44.28125 
Q 22.5625 44.28125 19.140625 39.671875 
Q 15.71875 35.0625 15.71875 25.875 
z
" id="Roboto-Medium-111"/>
       <path d="M 17.234375 52.828125 
L 17.578125 47.3125 
Q 23.140625 53.8125 32.8125 53.8125 
Q 43.40625 53.8125 47.3125 45.703125 
Q 53.078125 53.8125 63.53125 53.8125 
Q 72.265625 53.8125 76.53125 48.96875 
Q 80.8125 44.140625 80.90625 34.71875 
L 80.90625 0 
L 69.046875 0 
L 69.046875 34.375 
Q 69.046875 39.40625 66.84375 41.75 
Q 64.65625 44.09375 59.578125 44.09375 
Q 55.515625 44.09375 52.953125 41.921875 
Q 50.390625 39.75 49.359375 36.234375 
L 49.421875 0 
L 37.546875 0 
L 37.546875 34.765625 
Q 37.3125 44.09375 28.03125 44.09375 
Q 20.90625 44.09375 17.921875 38.28125 
L 17.921875 0 
L 6.0625 0 
L 6.0625 52.828125 
z
" id="Roboto-Medium-109"/>
       <path d="M 29.34375 -0.984375 
Q 18.0625 -0.984375 11.046875 6.125 
Q 4.046875 13.234375 4.046875 25.046875 
L 4.046875 26.515625 
Q 4.046875 34.421875 7.09375 40.640625 
Q 10.15625 46.875 15.671875 50.34375 
Q 21.1875 53.8125 27.984375 53.8125 
Q 38.765625 53.8125 44.640625 46.921875 
Q 50.53125 40.046875 50.53125 27.4375 
L 50.53125 22.65625 
L 16.015625 22.65625 
Q 16.546875 16.109375 20.375 12.296875 
Q 24.21875 8.5 30.03125 8.5 
Q 38.1875 8.5 43.3125 15.09375 
L 49.703125 8.984375 
Q 46.53125 4.25 41.234375 1.625 
Q 35.9375 -0.984375 29.34375 -0.984375 
z
M 27.9375 44.28125 
Q 23.046875 44.28125 20.046875 40.859375 
Q 17.046875 37.453125 16.21875 31.34375 
L 38.8125 31.34375 
L 38.8125 32.234375 
Q 38.421875 38.1875 35.640625 41.234375 
Q 32.859375 44.28125 27.9375 44.28125 
z
" id="Roboto-Medium-101"/>
       <path d="M 3.859375 26.8125 
Q 3.859375 39.015625 9.515625 46.40625 
Q 15.1875 53.8125 24.703125 53.8125 
Q 33.109375 53.8125 38.28125 47.953125 
L 38.28125 75 
L 50.140625 75 
L 50.140625 0 
L 39.40625 0 
L 38.8125 5.46875 
Q 33.5 -0.984375 24.609375 -0.984375 
Q 15.328125 -0.984375 9.59375 6.484375 
Q 3.859375 13.96875 3.859375 26.8125 
z
M 15.71875 25.78125 
Q 15.71875 17.71875 18.8125 13.203125 
Q 21.921875 8.6875 27.640625 8.6875 
Q 34.90625 8.6875 38.28125 15.1875 
L 38.28125 37.75 
Q 35.015625 44.09375 27.734375 44.09375 
Q 21.96875 44.09375 18.84375 39.53125 
Q 15.71875 34.96875 15.71875 25.78125 
z
" id="Roboto-Medium-100"/>
       <path d="M 18.703125 0 
L 6.84375 0 
L 6.84375 52.828125 
L 18.703125 52.828125 
z
M 6.109375 66.546875 
Q 6.109375 69.28125 7.84375 71.09375 
Q 9.578125 72.90625 12.796875 72.90625 
Q 16.015625 72.90625 17.765625 71.09375 
Q 19.53125 69.28125 19.53125 66.546875 
Q 19.53125 63.875 17.765625 62.078125 
Q 16.015625 60.296875 12.796875 60.296875 
Q 9.578125 60.296875 7.84375 62.078125 
Q 6.109375 63.875 6.109375 66.546875 
z
" id="Roboto-Medium-105"/>
       <path id="Roboto-Medium-32"/>
       <path d="M 35.6875 14.359375 
Q 35.6875 17.53125 33.078125 19.1875 
Q 30.46875 20.84375 24.40625 22.109375 
Q 18.359375 23.390625 14.3125 25.34375 
Q 5.421875 29.640625 5.421875 37.796875 
Q 5.421875 44.625 11.171875 49.21875 
Q 16.9375 53.8125 25.828125 53.8125 
Q 35.296875 53.8125 41.125 49.125 
Q 46.96875 44.4375 46.96875 36.96875 
L 35.109375 36.96875 
Q 35.109375 40.375 32.5625 42.640625 
Q 30.03125 44.921875 25.828125 44.921875 
Q 21.921875 44.921875 19.453125 43.109375 
Q 17 41.3125 17 38.28125 
Q 17 35.546875 19.28125 34.03125 
Q 21.578125 32.515625 28.5625 30.96875 
Q 35.546875 29.4375 39.515625 27.3125 
Q 43.5 25.203125 45.421875 22.21875 
Q 47.359375 19.234375 47.359375 14.984375 
Q 47.359375 7.859375 41.453125 3.4375 
Q 35.546875 -0.984375 25.984375 -0.984375 
Q 19.484375 -0.984375 14.40625 1.359375 
Q 9.328125 3.71875 6.484375 7.8125 
Q 3.65625 11.921875 3.65625 16.65625 
L 15.1875 16.65625 
Q 15.4375 12.453125 18.359375 10.171875 
Q 21.296875 7.90625 26.125 7.90625 
Q 30.8125 7.90625 33.25 9.6875 
Q 35.6875 11.46875 35.6875 14.359375 
z
" id="Roboto-Medium-115"/>
       <path d="M 6.25 28.90625 
Q 6.25 40.1875 9.28125 50.3125 
Q 12.3125 60.453125 18.171875 68.4375 
Q 24.03125 76.421875 30.5625 79.640625 
L 32.90625 72.703125 
Q 26.03125 67.484375 21.75 56.765625 
Q 17.484375 46.046875 17.09375 32.234375 
L 17.046875 28.03125 
Q 17.046875 13.234375 21.21875 1.625 
Q 25.390625 -9.96875 32.90625 -16.015625 
L 30.5625 -22.609375 
Q 24.03125 -19.390625 18.140625 -11.359375 
Q 12.25 -3.328125 9.25 6.75 
Q 6.25 16.84375 6.25 28.90625 
z
" id="Roboto-Medium-40"/>
       <path d="M 52.640625 64.5 
L 24.21875 0 
L 11.765625 0 
L 40.140625 61.578125 
L 3.375 61.578125 
L 3.375 71.09375 
L 52.640625 71.09375 
z
" id="Roboto-Medium-55"/>
       <path d="M 18.84375 0 
L 6.984375 0 
L 6.984375 52.828125 
L 18.84375 52.828125 
z
M 16.609375 74.65625 
L 30.125 74.65625 
L 16.609375 59.859375 
L 7.078125 59.859375 
z
" id="Roboto-Medium-237"/>
       <path d="M 28.953125 28.125 
Q 28.953125 17.28125 25.96875 7.203125 
Q 23 -2.875 16.9375 -11.15625 
Q 10.890625 -19.4375 4.296875 -22.609375 
L 1.953125 -16.015625 
Q 9.28125 -10.359375 13.546875 1.28125 
Q 17.828125 12.9375 17.828125 27.875 
L 17.828125 29 
Q 17.828125 42.578125 14.109375 53.734375 
Q 10.40625 64.890625 3.46875 71.625 
L 1.953125 73 
L 4.296875 79.640625 
Q 10.546875 76.609375 16.40625 68.890625 
Q 22.265625 61.1875 25.390625 51.640625 
Q 28.515625 42.09375 28.90625 31.9375 
z
" id="Roboto-Medium-41"/>
      </defs>
      <use xlink:href="#Roboto-Medium-80"/>
      <use x="63.916016" xlink:href="#Roboto-Medium-114"/>
      <use x="99.072266" xlink:href="#Roboto-Medium-111"/>
      <use x="156.005859" xlink:href="#Roboto-Medium-109"/>
      <use x="243.017578" xlink:href="#Roboto-Medium-101"/>
      <use x="296.679688" xlink:href="#Roboto-Medium-100"/>
      <use x="353.125" xlink:href="#Roboto-Medium-105"/>
      <use x="378.662109" xlink:href="#Roboto-Medium-111"/>
      <use x="435.595703" xlink:href="#Roboto-Medium-32"/>
      <use x="460.498047" xlink:href="#Roboto-Medium-115"/>
      <use x="512.109375" xlink:href="#Roboto-Medium-101"/>
      <use x="565.771484" xlink:href="#Roboto-Medium-109"/>
      <use x="652.783203" xlink:href="#Roboto-Medium-97"/>
      <use x="706.884766" xlink:href="#Roboto-Medium-110"/>
      <use x="762.5" xlink:href="#Roboto-Medium-97"/>
      <use x="816.601562" xlink:href="#Roboto-Medium-108"/>
      <use x="842.138672" xlink:href="#Roboto-Medium-32"/>
      <use x="867.041016" xlink:href="#Roboto-Medium-40"/>
      <use x="901.904297" xlink:href="#Roboto-Medium-55"/>
      <use x="958.740234" xlink:href="#Roboto-Medium-32"/>
      <use x="983.642578" xlink:href="#Roboto-Medium-100"/>
      <use x="1040.087891" xlink:href="#Roboto-Medium-237"/>
      <use x="1066.357422" xlink:href="#Roboto-Medium-97"/>
      <use x="1120.458984" xlink:href="#Roboto-Medium-115"/>
      <use x="1172.070312" xlink:href="#Roboto-Medium-41"/>
      <use x="1207.324219" xlink:href="#Roboto-Medium-32"/>
     </g>
    </g>
   </g>
  </g>
 </g>
 <defs>
  <clipPath id="p9fee10c9f8">
   <rect height="226.5" width="387.5" x="62.5" y="36"/>
  </clipPath>
 </defs>
</svg>
