<?xml version="1.0" encoding="utf-8" standalone="no"?>
<!DOCTYPE svg PUBLIC "-//W3C//DTD SVG 1.1//EN"
  "http://www.w3.org/Graphics/SVG/1.1/DTD/svg11.dtd">
<!-- Created with matplotlib (https://matplotlib.org/) -->
<svg height="300pt" version="1.1" viewBox="0 0 500 300" width="500pt" xmlns="http://www.w3.org/2000/svg" xmlns:xlink="http://www.w3.org/1999/xlink">
 <metadata>
  <rdf:RDF xmlns:cc="http://creativecommons.org/ns#" xmlns:dc="http://purl.org/dc/elements/1.1/" xmlns:rdf="http://www.w3.org/1999/02/22-rdf-syntax-ns#">
   <cc:Work>
    <dc:type rdf:resource="http://purl.org/dc/dcmitype/StillImage"/>
    <dc:date>2021-06-04T21:06:07.100313</dc:date>
    <dc:format>image/svg+xml</dc:format>
    <dc:creator>
     <cc:Agent>
      <dc:title>Matplotlib v3.3.4, https://matplotlib.org/</dc:title>
     </cc:Agent>
    </dc:creator>
   </cc:Work>
  </rdf:RDF>
 </metadata>
 <defs>
  <style type="text/css">*{stroke-linecap:butt;stroke-linejoin:round;}</style>
 </defs>
 <g id="figure_1">
  <g id="patch_1">
   <path d="M 0 300 
L 500 300 
L 500 0 
L 0 0 
z
" style="fill:#ffffff;"/>
  </g>
  <g id="axes_1">
   <g id="patch_2">
    <path d="M 62.5 262.5 
L 450 262.5 
L 450 27 
L 62.5 27 
z
" style="fill:#ffffff;"/>
   </g>
   <g id="matplotlib.axis_1">
    <g id="xtick_1">
     <g id="line2d_1">
      <defs>
       <path d="M 0 0 
L 0 3.5 
" id="ma6a3888824" style="stroke:#555555;stroke-width:0.8;"/>
      </defs>
      <g>
       <use style="fill:#555555;stroke:#555555;stroke-width:0.8;" x="62.5" xlink:href="#ma6a3888824" y="262.5"/>
      </g>
     </g>
    </g>
    <g id="xtick_2">
     <g id="line2d_2">
      <g>
       <use style="fill:#555555;stroke:#555555;stroke-width:0.8;" x="73.23903" xlink:href="#ma6a3888824" y="262.5"/>
      </g>
     </g>
     <g id="text_1">
      <!-- Apr -->
      <g style="fill:#555555;" transform="translate(65.369499 276.640625)scale(0.1 -0.1)">
       <defs>
        <path d="M 20.09375 29.5 
L 32.203125 62.796875 
L 32.40625 62.796875 
L 44.296875 29.5 
z
M 27.203125 71.40625 
L -0.59375 0 
L 9.09375 0 
L 17.09375 21.5 
L 47.296875 21.5 
L 55.09375 0 
L 65.59375 0 
L 37.703125 71.40625 
z
" id="HelveticaNeue-65"/>
        <path d="M 6.703125 51.703125 
L 6.703125 -19.703125 
L 15.203125 -19.703125 
L 15.203125 6.90625 
L 15.40625 6.90625 
Q 16.796875 4.59375 18.84375 3.046875 
Q 20.90625 1.5 23.203125 0.59375 
Q 25.5 -0.296875 27.84375 -0.6875 
Q 30.203125 -1.09375 32.09375 -1.09375 
Q 38 -1.09375 42.453125 1 
Q 46.90625 3.09375 49.84375 6.75 
Q 52.796875 10.40625 54.25 15.296875 
Q 55.703125 20.203125 55.703125 25.703125 
Q 55.703125 31.203125 54.203125 36.09375 
Q 52.703125 41 49.75 44.75 
Q 46.796875 48.5 42.34375 50.703125 
Q 37.90625 52.90625 31.90625 52.90625 
Q 26.5 52.90625 22 50.953125 
Q 17.5 49 15.40625 44.703125 
L 15.203125 44.703125 
L 15.203125 51.703125 
z
M 46.703125 26.296875 
Q 46.703125 22.5 45.890625 18.890625 
Q 45.09375 15.296875 43.296875 12.5 
Q 41.5 9.703125 38.546875 8 
Q 35.59375 6.296875 31.203125 6.296875 
Q 26.796875 6.296875 23.6875 7.9375 
Q 20.59375 9.59375 18.640625 12.296875 
Q 16.703125 15 15.796875 18.546875 
Q 14.90625 22.09375 14.90625 25.90625 
Q 14.90625 29.5 15.75 33 
Q 16.59375 36.5 18.5 39.25 
Q 20.40625 42 23.40625 43.703125 
Q 26.40625 45.40625 30.703125 45.40625 
Q 34.796875 45.40625 37.84375 43.796875 
Q 40.90625 42.203125 42.84375 39.5 
Q 44.796875 36.796875 45.75 33.34375 
Q 46.703125 29.90625 46.703125 26.296875 
z
" id="HelveticaNeue-112"/>
        <path d="M 6.09375 51.703125 
L 6.09375 0 
L 14.59375 0 
L 14.59375 23 
Q 14.59375 28 15.59375 31.84375 
Q 16.59375 35.703125 18.796875 38.390625 
Q 21 41.09375 24.59375 42.5 
Q 28.203125 43.90625 33.296875 43.90625 
L 33.296875 52.90625 
Q 26.40625 53.09375 21.90625 50.09375 
Q 17.40625 47.09375 14.296875 40.796875 
L 14.09375 40.796875 
L 14.09375 51.703125 
z
" id="HelveticaNeue-114"/>
       </defs>
       <use xlink:href="#HelveticaNeue-65"/>
       <use x="64.799988" xlink:href="#HelveticaNeue-112"/>
       <use x="124.099976" xlink:href="#HelveticaNeue-114"/>
      </g>
     </g>
    </g>
    <g id="xtick_3">
     <g id="line2d_3">
      <g>
       <use style="fill:#555555;stroke:#555555;stroke-width:0.8;" x="154.676674" xlink:href="#ma6a3888824" y="262.5"/>
      </g>
     </g>
     <g id="text_2">
      <!-- Jul -->
      <g style="fill:#555555;" transform="translate(148.191518 276.640625)scale(0.1 -0.1)">
       <defs>
        <path d="M 44.09375 17.796875 
L 44.09375 71.40625 
L 34.59375 71.40625 
L 34.59375 19.203125 
Q 34.59375 13.296875 32.140625 9.796875 
Q 29.703125 6.296875 23.203125 6.296875 
Q 19.703125 6.296875 17.453125 7.34375 
Q 15.203125 8.40625 13.953125 10.296875 
Q 12.703125 12.203125 12.203125 14.796875 
Q 11.703125 17.40625 11.703125 20.5 
L 11.703125 23.5 
L 2.203125 23.5 
L 2.203125 19.09375 
Q 2.203125 8.90625 7.59375 3.65625 
Q 13 -1.59375 23 -1.59375 
Q 29 -1.59375 33.046875 0.046875 
Q 37.09375 1.703125 39.546875 4.453125 
Q 42 7.203125 43.046875 10.703125 
Q 44.09375 14.203125 44.09375 17.796875 
z
" id="HelveticaNeue-74"/>
        <path d="M 49.203125 0 
L 49.203125 51.703125 
L 40.703125 51.703125 
L 40.703125 22.5 
Q 40.703125 19 39.75 16.046875 
Q 38.796875 13.09375 36.890625 10.890625 
Q 35 8.703125 32.140625 7.5 
Q 29.296875 6.296875 25.40625 6.296875 
Q 20.5 6.296875 17.703125 9.09375 
Q 14.90625 11.90625 14.90625 16.703125 
L 14.90625 51.703125 
L 6.40625 51.703125 
L 6.40625 17.703125 
Q 6.40625 13.5 7.25 10.046875 
Q 8.09375 6.59375 10.1875 4.09375 
Q 12.296875 1.59375 15.6875 0.25 
Q 19.09375 -1.09375 24.203125 -1.09375 
Q 29.90625 -1.09375 34.09375 1.15625 
Q 38.296875 3.40625 41 8.203125 
L 41.203125 8.203125 
L 41.203125 0 
z
" id="HelveticaNeue-117"/>
        <path d="M 6.90625 71.40625 
L 6.90625 0 
L 15.40625 0 
L 15.40625 71.40625 
z
" id="HelveticaNeue-108"/>
       </defs>
       <use xlink:href="#HelveticaNeue-74"/>
       <use x="51.899994" xlink:href="#HelveticaNeue-117"/>
       <use x="107.499985" xlink:href="#HelveticaNeue-108"/>
      </g>
     </g>
    </g>
    <g id="xtick_4">
     <g id="line2d_4">
      <g>
       <use style="fill:#555555;stroke:#555555;stroke-width:0.8;" x="237.009238" xlink:href="#ma6a3888824" y="262.5"/>
      </g>
     </g>
     <g id="text_3">
      <!-- Oct -->
      <g style="fill:#555555;" transform="translate(228.949082 276.640625)scale(0.1 -0.1)">
       <defs>
        <path d="M 13.296875 35.703125 
Q 13.296875 41.09375 14.6875 46.34375 
Q 16.09375 51.59375 19.09375 55.796875 
Q 22.09375 60 26.796875 62.546875 
Q 31.5 65.09375 38 65.09375 
Q 44.5 65.09375 49.203125 62.546875 
Q 53.90625 60 56.90625 55.796875 
Q 59.90625 51.59375 61.296875 46.34375 
Q 62.703125 41.09375 62.703125 35.703125 
Q 62.703125 30.296875 61.296875 25.046875 
Q 59.90625 19.796875 56.90625 15.59375 
Q 53.90625 11.40625 49.203125 8.84375 
Q 44.5 6.296875 38 6.296875 
Q 31.5 6.296875 26.796875 8.84375 
Q 22.09375 11.40625 19.09375 15.59375 
Q 16.09375 19.796875 14.6875 25.046875 
Q 13.296875 30.296875 13.296875 35.703125 
z
M 3.796875 35.703125 
Q 3.796875 28.40625 5.9375 21.65625 
Q 8.09375 14.90625 12.390625 9.703125 
Q 16.703125 4.5 23.09375 1.453125 
Q 29.5 -1.59375 38 -1.59375 
Q 46.5 -1.59375 52.890625 1.453125 
Q 59.296875 4.5 63.59375 9.703125 
Q 67.90625 14.90625 70.046875 21.65625 
Q 72.203125 28.40625 72.203125 35.703125 
Q 72.203125 43 70.046875 49.75 
Q 67.90625 56.5 63.59375 61.703125 
Q 59.296875 66.90625 52.890625 70 
Q 46.5 73.09375 38 73.09375 
Q 29.5 73.09375 23.09375 70 
Q 16.703125 66.90625 12.390625 61.703125 
Q 8.09375 56.5 5.9375 49.75 
Q 3.796875 43 3.796875 35.703125 
z
" id="HelveticaNeue-79"/>
        <path d="M 41.5 35.09375 
L 50.296875 35.09375 
Q 49.796875 39.703125 47.890625 43.046875 
Q 46 46.40625 43.046875 48.59375 
Q 40.09375 50.796875 36.25 51.84375 
Q 32.40625 52.90625 28 52.90625 
Q 21.90625 52.90625 17.296875 50.75 
Q 12.703125 48.59375 9.640625 44.84375 
Q 6.59375 41.09375 5.09375 36.046875 
Q 3.59375 31 3.59375 25.203125 
Q 3.59375 19.40625 5.140625 14.546875 
Q 6.703125 9.703125 9.75 6.203125 
Q 12.796875 2.703125 17.34375 0.796875 
Q 21.90625 -1.09375 27.796875 -1.09375 
Q 37.703125 -1.09375 43.453125 4.09375 
Q 49.203125 9.296875 50.59375 18.90625 
L 41.90625 18.90625 
Q 41.09375 12.90625 37.546875 9.59375 
Q 34 6.296875 27.703125 6.296875 
Q 23.703125 6.296875 20.796875 7.890625 
Q 17.90625 9.5 16.09375 12.140625 
Q 14.296875 14.796875 13.4375 18.1875 
Q 12.59375 21.59375 12.59375 25.203125 
Q 12.59375 29.09375 13.390625 32.75 
Q 14.203125 36.40625 16.046875 39.203125 
Q 17.90625 42 21 43.703125 
Q 24.09375 45.40625 28.703125 45.40625 
Q 34.09375 45.40625 37.296875 42.703125 
Q 40.5 40 41.5 35.09375 
z
" id="HelveticaNeue-99"/>
        <path d="M 18.203125 51.703125 
L 18.203125 67.203125 
L 9.703125 67.203125 
L 9.703125 51.703125 
L 0.90625 51.703125 
L 0.90625 44.203125 
L 9.703125 44.203125 
L 9.703125 11.296875 
Q 9.703125 7.703125 10.390625 5.5 
Q 11.09375 3.296875 12.546875 2.09375 
Q 14 0.90625 16.34375 0.453125 
Q 18.703125 0 22 0 
L 28.5 0 
L 28.5 7.5 
L 24.59375 7.5 
Q 22.59375 7.5 21.34375 7.640625 
Q 20.09375 7.796875 19.390625 8.296875 
Q 18.703125 8.796875 18.453125 9.6875 
Q 18.203125 10.59375 18.203125 12.09375 
L 18.203125 44.203125 
L 28.5 44.203125 
L 28.5 51.703125 
z
" id="HelveticaNeue-116"/>
       </defs>
       <use xlink:href="#HelveticaNeue-79"/>
       <use x="75.999985" xlink:href="#HelveticaNeue-99"/>
       <use x="129.699982" xlink:href="#HelveticaNeue-116"/>
      </g>
     </g>
    </g>
    <g id="xtick_5">
     <g id="line2d_5">
      <g>
       <use style="fill:#555555;stroke:#555555;stroke-width:0.8;" x="319.341801" xlink:href="#ma6a3888824" y="262.5"/>
      </g>
     </g>
     <g id="text_4">
      <!-- Jan -->
      <g style="fill:#555555;" transform="translate(311.281645 276.640625)scale(0.1 -0.1)">
       <defs>
        <path d="M 52.203125 0.203125 
Q 50 -1.09375 46.09375 -1.09375 
Q 42.796875 -1.09375 40.84375 0.75 
Q 38.90625 2.59375 38.90625 6.796875 
Q 35.40625 2.59375 30.75 0.75 
Q 26.09375 -1.09375 20.703125 -1.09375 
Q 17.203125 -1.09375 14.046875 -0.296875 
Q 10.90625 0.5 8.59375 2.203125 
Q 6.296875 3.90625 4.9375 6.65625 
Q 3.59375 9.40625 3.59375 13.296875 
Q 3.59375 17.703125 5.09375 20.5 
Q 6.59375 23.296875 9.046875 25.046875 
Q 11.5 26.796875 14.640625 27.6875 
Q 17.796875 28.59375 21.09375 29.203125 
Q 24.59375 29.90625 27.75 30.25 
Q 30.90625 30.59375 33.296875 31.25 
Q 35.703125 31.90625 37.09375 33.15625 
Q 38.5 34.40625 38.5 36.796875 
Q 38.5 39.59375 37.453125 41.296875 
Q 36.40625 43 34.75 43.890625 
Q 33.09375 44.796875 31.046875 45.09375 
Q 29 45.40625 27 45.40625 
Q 21.59375 45.40625 18 43.34375 
Q 14.40625 41.296875 14.09375 35.59375 
L 5.59375 35.59375 
Q 5.796875 40.40625 7.59375 43.703125 
Q 9.40625 47 12.40625 49.046875 
Q 15.40625 51.09375 19.25 52 
Q 23.09375 52.90625 27.5 52.90625 
Q 31 52.90625 34.453125 52.40625 
Q 37.90625 51.90625 40.703125 50.34375 
Q 43.5 48.796875 45.203125 46 
Q 46.90625 43.203125 46.90625 38.703125 
L 46.90625 12.09375 
Q 46.90625 9.09375 47.25 7.6875 
Q 47.59375 6.296875 49.59375 6.296875 
Q 50.703125 6.296875 52.203125 6.796875 
z
M 38.40625 26.703125 
Q 36.796875 25.5 34.1875 24.953125 
Q 31.59375 24.40625 28.75 24.046875 
Q 25.90625 23.703125 23 23.25 
Q 20.09375 22.796875 17.796875 21.796875 
Q 15.5 20.796875 14.046875 18.9375 
Q 12.59375 17.09375 12.59375 13.90625 
Q 12.59375 11.796875 13.4375 10.34375 
Q 14.296875 8.90625 15.640625 8 
Q 17 7.09375 18.796875 6.6875 
Q 20.59375 6.296875 22.59375 6.296875 
Q 26.796875 6.296875 29.796875 7.4375 
Q 32.796875 8.59375 34.6875 10.34375 
Q 36.59375 12.09375 37.5 14.140625 
Q 38.40625 16.203125 38.40625 18 
z
" id="HelveticaNeue-97"/>
        <path d="M 6.40625 51.703125 
L 6.40625 0 
L 14.90625 0 
L 14.90625 29.203125 
Q 14.90625 32.703125 15.84375 35.640625 
Q 16.796875 38.59375 18.6875 40.796875 
Q 20.59375 43 23.4375 44.203125 
Q 26.296875 45.40625 30.203125 45.40625 
Q 35.09375 45.40625 37.890625 42.59375 
Q 40.703125 39.796875 40.703125 35 
L 40.703125 0 
L 49.203125 0 
L 49.203125 34 
Q 49.203125 38.203125 48.34375 41.640625 
Q 47.5 45.09375 45.390625 47.59375 
Q 43.296875 50.09375 39.890625 51.5 
Q 36.5 52.90625 31.40625 52.90625 
Q 19.90625 52.90625 14.59375 43.5 
L 14.40625 43.5 
L 14.40625 51.703125 
z
" id="HelveticaNeue-110"/>
       </defs>
       <use xlink:href="#HelveticaNeue-74"/>
       <use x="51.899994" xlink:href="#HelveticaNeue-97"/>
       <use x="105.599991" xlink:href="#HelveticaNeue-110"/>
      </g>
      <!-- 2021 -->
      <g style="fill:#555555;" transform="translate(308.223051 287.179688)scale(0.1 -0.1)">
       <defs>
        <path d="M 4.40625 45.796875 
L 12.90625 45.796875 
Q 12.796875 49 13.546875 52.140625 
Q 14.296875 55.296875 16 57.796875 
Q 17.703125 60.296875 20.34375 61.84375 
Q 23 63.40625 26.703125 63.40625 
Q 29.5 63.40625 32 62.5 
Q 34.5 61.59375 36.34375 59.890625 
Q 38.203125 58.203125 39.296875 55.84375 
Q 40.40625 53.5 40.40625 50.59375 
Q 40.40625 46.90625 39.25 44.09375 
Q 38.09375 41.296875 35.84375 38.890625 
Q 33.59375 36.5 30.1875 34.140625 
Q 26.796875 31.796875 22.296875 29 
Q 18.59375 26.796875 15.1875 24.296875 
Q 11.796875 21.796875 9.09375 18.5 
Q 6.40625 15.203125 4.65625 10.75 
Q 2.90625 6.296875 2.40625 0 
L 48.703125 0 
L 48.703125 7.5 
L 12.296875 7.5 
Q 12.90625 10.796875 14.84375 13.34375 
Q 16.796875 15.90625 19.546875 18.09375 
Q 22.296875 20.296875 25.59375 22.25 
Q 28.90625 24.203125 32.203125 26.203125 
Q 35.5 28.296875 38.59375 30.59375 
Q 41.703125 32.90625 44.09375 35.75 
Q 46.5 38.59375 47.953125 42.1875 
Q 49.40625 45.796875 49.40625 50.5 
Q 49.40625 55.5 47.65625 59.296875 
Q 45.90625 63.09375 42.90625 65.640625 
Q 39.90625 68.203125 35.84375 69.546875 
Q 31.796875 70.90625 27.203125 70.90625 
Q 21.59375 70.90625 17.1875 69 
Q 12.796875 67.09375 9.84375 63.75 
Q 6.90625 60.40625 5.5 55.796875 
Q 4.09375 51.203125 4.40625 45.796875 
z
" id="HelveticaNeue-50"/>
        <path d="M 13.203125 34.90625 
Q 13.203125 37.5 13.25 40.640625 
Q 13.296875 43.796875 13.75 46.9375 
Q 14.203125 50.09375 15.046875 53.09375 
Q 15.90625 56.09375 17.546875 58.34375 
Q 19.203125 60.59375 21.703125 62 
Q 24.203125 63.40625 27.796875 63.40625 
Q 31.40625 63.40625 33.90625 62 
Q 36.40625 60.59375 38.046875 58.34375 
Q 39.703125 56.09375 40.546875 53.09375 
Q 41.40625 50.09375 41.84375 46.9375 
Q 42.296875 43.796875 42.34375 40.640625 
Q 42.40625 37.5 42.40625 34.90625 
Q 42.40625 30.90625 42.15625 25.953125 
Q 41.90625 21 40.546875 16.640625 
Q 39.203125 12.296875 36.203125 9.296875 
Q 33.203125 6.296875 27.796875 6.296875 
Q 22.40625 6.296875 19.40625 9.296875 
Q 16.40625 12.296875 15.046875 16.640625 
Q 13.703125 21 13.453125 25.953125 
Q 13.203125 30.90625 13.203125 34.90625 
z
M 4.203125 34.796875 
Q 4.203125 30.90625 4.390625 26.703125 
Q 4.59375 22.5 5.390625 18.5 
Q 6.203125 14.5 7.703125 10.953125 
Q 9.203125 7.40625 11.796875 4.703125 
Q 14.40625 2 18.34375 0.453125 
Q 22.296875 -1.09375 27.796875 -1.09375 
Q 33.40625 -1.09375 37.296875 0.453125 
Q 41.203125 2 43.796875 4.703125 
Q 46.40625 7.40625 47.90625 10.953125 
Q 49.40625 14.5 50.203125 18.5 
Q 51 22.5 51.203125 26.703125 
Q 51.40625 30.90625 51.40625 34.796875 
Q 51.40625 38.703125 51.203125 42.890625 
Q 51 47.09375 50.203125 51.09375 
Q 49.40625 55.09375 47.90625 58.6875 
Q 46.40625 62.296875 43.796875 65 
Q 41.203125 67.703125 37.25 69.296875 
Q 33.296875 70.90625 27.796875 70.90625 
Q 22.296875 70.90625 18.34375 69.296875 
Q 14.40625 67.703125 11.796875 65 
Q 9.203125 62.296875 7.703125 58.6875 
Q 6.203125 55.09375 5.390625 51.09375 
Q 4.59375 47.09375 4.390625 42.890625 
Q 4.203125 38.703125 4.203125 34.796875 
z
" id="HelveticaNeue-48"/>
        <path d="M 35.59375 0 
L 35.59375 70.90625 
L 29.09375 70.90625 
Q 28.40625 66.90625 26.5 64.296875 
Q 24.59375 61.703125 21.84375 60.203125 
Q 19.09375 58.703125 15.6875 58.140625 
Q 12.296875 57.59375 8.703125 57.59375 
L 8.703125 50.796875 
L 27.09375 50.796875 
L 27.09375 0 
z
" id="HelveticaNeue-49"/>
       </defs>
       <use xlink:href="#HelveticaNeue-50"/>
       <use x="55.599991" xlink:href="#HelveticaNeue-48"/>
       <use x="111.199982" xlink:href="#HelveticaNeue-50"/>
       <use x="166.799973" xlink:href="#HelveticaNeue-49"/>
      </g>
     </g>
    </g>
    <g id="xtick_6">
     <g id="line2d_6">
      <g>
       <use style="fill:#555555;stroke:#555555;stroke-width:0.8;" x="399.884527" xlink:href="#ma6a3888824" y="262.5"/>
      </g>
     </g>
     <g id="text_5">
      <!-- Apr -->
      <g style="fill:#555555;" transform="translate(392.014995 276.640625)scale(0.1 -0.1)">
       <use xlink:href="#HelveticaNeue-65"/>
       <use x="64.799988" xlink:href="#HelveticaNeue-112"/>
       <use x="124.099976" xlink:href="#HelveticaNeue-114"/>
      </g>
     </g>
    </g>
    <g id="xtick_7">
     <g id="line2d_7">
      <g>
       <use style="fill:#555555;stroke:#555555;stroke-width:0.8;" x="450" xlink:href="#ma6a3888824" y="262.5"/>
      </g>
     </g>
    </g>
    <g id="xtick_8">
     <g id="line2d_8">
      <defs>
       <path d="M 0 0 
L 0 2 
" id="m645e5af1df" style="stroke:#555555;stroke-width:0.6;"/>
      </defs>
      <g>
       <use style="fill:#555555;stroke:#555555;stroke-width:0.6;" x="100.086605" xlink:href="#m645e5af1df" y="262.5"/>
      </g>
     </g>
    </g>
    <g id="xtick_9">
     <g id="line2d_9">
      <g>
       <use style="fill:#555555;stroke:#555555;stroke-width:0.6;" x="127.829099" xlink:href="#m645e5af1df" y="262.5"/>
      </g>
     </g>
    </g>
    <g id="xtick_10">
     <g id="line2d_10">
      <g>
       <use style="fill:#555555;stroke:#555555;stroke-width:0.6;" x="182.419169" xlink:href="#m645e5af1df" y="262.5"/>
      </g>
     </g>
    </g>
    <g id="xtick_11">
     <g id="line2d_11">
      <g>
       <use style="fill:#555555;stroke:#555555;stroke-width:0.6;" x="210.161663" xlink:href="#m645e5af1df" y="262.5"/>
      </g>
     </g>
    </g>
    <g id="xtick_12">
     <g id="line2d_12">
      <g>
       <use style="fill:#555555;stroke:#555555;stroke-width:0.6;" x="264.751732" xlink:href="#m645e5af1df" y="262.5"/>
      </g>
     </g>
    </g>
    <g id="xtick_13">
     <g id="line2d_13">
      <g>
       <use style="fill:#555555;stroke:#555555;stroke-width:0.6;" x="291.599307" xlink:href="#m645e5af1df" y="262.5"/>
      </g>
     </g>
    </g>
    <g id="xtick_14">
     <g id="line2d_14">
      <g>
       <use style="fill:#555555;stroke:#555555;stroke-width:0.6;" x="347.084296" xlink:href="#m645e5af1df" y="262.5"/>
      </g>
     </g>
    </g>
    <g id="xtick_15">
     <g id="line2d_15">
      <g>
       <use style="fill:#555555;stroke:#555555;stroke-width:0.6;" x="372.142032" xlink:href="#m645e5af1df" y="262.5"/>
      </g>
     </g>
    </g>
    <g id="xtick_16">
     <g id="line2d_16">
      <g>
       <use style="fill:#555555;stroke:#555555;stroke-width:0.6;" x="426.732102" xlink:href="#m645e5af1df" y="262.5"/>
      </g>
     </g>
    </g>
    <g id="text_6">
     <!-- fecha -->
     <g style="fill:#555555;" transform="translate(243.935156 300.290625)scale(0.1 -0.1)">
      <defs>
       <path d="M 9.90625 44.203125 
L 9.90625 0 
L 18.40625 0 
L 18.40625 44.203125 
L 28.40625 44.203125 
L 28.40625 51.703125 
L 18.40625 51.703125 
L 18.40625 58.90625 
Q 18.40625 62.296875 20.09375 63.5 
Q 21.796875 64.703125 24.90625 64.703125 
Q 26 64.703125 27.296875 64.546875 
Q 28.59375 64.40625 29.703125 64 
L 29.703125 71.40625 
Q 28.5 71.796875 26.953125 72 
Q 25.40625 72.203125 24.203125 72.203125 
Q 17.203125 72.203125 13.546875 68.953125 
Q 9.90625 65.703125 9.90625 59.40625 
L 9.90625 51.703125 
L 1.203125 51.703125 
L 1.203125 44.203125 
z
" id="HelveticaNeue-102"/>
       <path d="M 42.296875 30.796875 
L 12.59375 30.796875 
Q 12.796875 33.796875 13.890625 36.4375 
Q 15 39.09375 16.890625 41.09375 
Q 18.796875 43.09375 21.4375 44.25 
Q 24.09375 45.40625 27.40625 45.40625 
Q 30.59375 45.40625 33.25 44.25 
Q 35.90625 43.09375 37.84375 41.140625 
Q 39.796875 39.203125 40.9375 36.5 
Q 42.09375 33.796875 42.296875 30.796875 
z
M 50.5 16.40625 
L 42.09375 16.40625 
Q 41 11.296875 37.546875 8.796875 
Q 34.09375 6.296875 28.703125 6.296875 
Q 24.5 6.296875 21.390625 7.6875 
Q 18.296875 9.09375 16.296875 11.4375 
Q 14.296875 13.796875 13.390625 16.84375 
Q 12.5 19.90625 12.59375 23.296875 
L 51.296875 23.296875 
Q 51.5 28 50.453125 33.203125 
Q 49.40625 38.40625 46.65625 42.796875 
Q 43.90625 47.203125 39.34375 50.046875 
Q 34.796875 52.90625 27.90625 52.90625 
Q 22.59375 52.90625 18.140625 50.90625 
Q 13.703125 48.90625 10.453125 45.296875 
Q 7.203125 41.703125 5.390625 36.796875 
Q 3.59375 31.90625 3.59375 26 
Q 3.796875 20.09375 5.34375 15.09375 
Q 6.90625 10.09375 10 6.5 
Q 13.09375 2.90625 17.640625 0.90625 
Q 22.203125 -1.09375 28.40625 -1.09375 
Q 37.203125 -1.09375 43 3.296875 
Q 48.796875 7.703125 50.5 16.40625 
z
" id="HelveticaNeue-101"/>
       <path d="M 6.40625 71.40625 
L 6.40625 0 
L 14.90625 0 
L 14.90625 29.203125 
Q 14.90625 32.703125 15.84375 35.640625 
Q 16.796875 38.59375 18.6875 40.796875 
Q 20.59375 43 23.4375 44.203125 
Q 26.296875 45.40625 30.203125 45.40625 
Q 35.09375 45.40625 37.890625 42.59375 
Q 40.703125 39.796875 40.703125 35 
L 40.703125 0 
L 49.203125 0 
L 49.203125 34 
Q 49.203125 38.203125 48.34375 41.640625 
Q 47.5 45.09375 45.390625 47.59375 
Q 43.296875 50.09375 39.890625 51.5 
Q 36.5 52.90625 31.40625 52.90625 
Q 29.09375 52.90625 26.640625 52.40625 
Q 24.203125 51.90625 21.953125 50.84375 
Q 19.703125 49.796875 17.890625 48.140625 
Q 16.09375 46.5 15.09375 44.09375 
L 14.90625 44.09375 
L 14.90625 71.40625 
z
" id="HelveticaNeue-104"/>
      </defs>
      <use xlink:href="#HelveticaNeue-102"/>
      <use x="29.599991" xlink:href="#HelveticaNeue-101"/>
      <use x="83.299988" xlink:href="#HelveticaNeue-99"/>
      <use x="136.999985" xlink:href="#HelveticaNeue-104"/>
      <use x="192.599976" xlink:href="#HelveticaNeue-97"/>
     </g>
    </g>
   </g>
   <g id="matplotlib.axis_2">
    <g id="ytick_1">
     <g id="line2d_17">
      <defs>
       <path d="M 0 0 
L -3.5 0 
" id="m5aa69697bd" style="stroke:#555555;stroke-width:0.8;"/>
      </defs>
      <g>
       <use style="fill:#555555;stroke:#555555;stroke-width:0.8;" x="62.5" xlink:href="#m5aa69697bd" y="251.795455"/>
      </g>
     </g>
     <g id="text_7">
      <!-- 0 -->
      <g style="fill:#555555;" transform="translate(49.940625 255.365767)scale(0.1 -0.1)">
       <use xlink:href="#HelveticaNeue-48"/>
      </g>
     </g>
    </g>
    <g id="ytick_2">
     <g id="line2d_18">
      <g>
       <use style="fill:#555555;stroke:#555555;stroke-width:0.8;" x="62.5" xlink:href="#m5aa69697bd" y="218.027172"/>
      </g>
     </g>
     <g id="text_8">
      <!-- 100 -->
      <g style="fill:#555555;" transform="translate(38.821875 221.597485)scale(0.1 -0.1)">
       <use xlink:href="#HelveticaNeue-49"/>
       <use x="55.599991" xlink:href="#HelveticaNeue-48"/>
       <use x="111.199982" xlink:href="#HelveticaNeue-48"/>
      </g>
     </g>
    </g>
    <g id="ytick_3">
     <g id="line2d_19">
      <g>
       <use style="fill:#555555;stroke:#555555;stroke-width:0.8;" x="62.5" xlink:href="#m5aa69697bd" y="184.25889"/>
      </g>
     </g>
     <g id="text_9">
      <!-- 200 -->
      <g style="fill:#555555;" transform="translate(38.821875 187.829203)scale(0.1 -0.1)">
       <use xlink:href="#HelveticaNeue-50"/>
       <use x="55.599991" xlink:href="#HelveticaNeue-48"/>
       <use x="111.199982" xlink:href="#HelveticaNeue-48"/>
      </g>
     </g>
    </g>
    <g id="ytick_4">
     <g id="line2d_20">
      <g>
       <use style="fill:#555555;stroke:#555555;stroke-width:0.8;" x="62.5" xlink:href="#m5aa69697bd" y="150.490608"/>
      </g>
     </g>
     <g id="text_10">
      <!-- 300 -->
      <g style="fill:#555555;" transform="translate(38.821875 154.06092)scale(0.1 -0.1)">
       <defs>
        <path d="M 21.796875 40.5 
L 21.796875 33.296875 
Q 24.203125 33.59375 26.90625 33.59375 
Q 30.09375 33.59375 32.84375 32.75 
Q 35.59375 31.90625 37.59375 30.15625 
Q 39.59375 28.40625 40.796875 25.84375 
Q 42 23.296875 42 20 
Q 42 16.796875 40.75 14.25 
Q 39.5 11.703125 37.390625 9.953125 
Q 35.296875 8.203125 32.5 7.25 
Q 29.703125 6.296875 26.59375 6.296875 
Q 19.296875 6.296875 15.5 10.640625 
Q 11.703125 15 11.5 21.90625 
L 3 21.90625 
Q 2.90625 16.40625 4.546875 12.09375 
Q 6.203125 7.796875 9.296875 4.84375 
Q 12.40625 1.90625 16.796875 0.40625 
Q 21.203125 -1.09375 26.59375 -1.09375 
Q 31.59375 -1.09375 36.046875 0.25 
Q 40.5 1.59375 43.796875 4.296875 
Q 47.09375 7 49.046875 11.046875 
Q 51 15.09375 51 20.40625 
Q 51 26.796875 47.84375 31.5 
Q 44.703125 36.203125 38.203125 37.59375 
L 38.203125 37.796875 
Q 42.40625 39.703125 45.203125 43.390625 
Q 48 47.09375 48 51.90625 
Q 48 56.796875 46.34375 60.390625 
Q 44.703125 64 41.796875 66.296875 
Q 38.90625 68.59375 34.953125 69.75 
Q 31 70.90625 26.40625 70.90625 
Q 21.09375 70.90625 17.046875 69.203125 
Q 13 67.5 10.296875 64.5 
Q 7.59375 61.5 6.140625 57.296875 
Q 4.703125 53.09375 4.5 48 
L 13 48 
Q 13 51.09375 13.796875 53.890625 
Q 14.59375 56.703125 16.25 58.796875 
Q 17.90625 60.90625 20.453125 62.15625 
Q 23 63.40625 26.40625 63.40625 
Q 31.796875 63.40625 35.390625 60.546875 
Q 39 57.703125 39 52 
Q 39 49.203125 37.890625 47 
Q 36.796875 44.796875 34.9375 43.34375 
Q 33.09375 41.90625 30.640625 41.15625 
Q 28.203125 40.40625 25.5 40.40625 
L 23.703125 40.40625 
Q 23.203125 40.40625 22.703125 40.40625 
Q 22.296875 40.40625 21.796875 40.5 
z
" id="HelveticaNeue-51"/>
       </defs>
       <use xlink:href="#HelveticaNeue-51"/>
       <use x="55.599991" xlink:href="#HelveticaNeue-48"/>
       <use x="111.199982" xlink:href="#HelveticaNeue-48"/>
      </g>
     </g>
    </g>
    <g id="ytick_5">
     <g id="line2d_21">
      <g>
       <use style="fill:#555555;stroke:#555555;stroke-width:0.8;" x="62.5" xlink:href="#m5aa69697bd" y="116.722326"/>
      </g>
     </g>
     <g id="text_11">
      <!-- 400 -->
      <g style="fill:#555555;" transform="translate(38.821875 120.292638)scale(0.1 -0.1)">
       <defs>
        <path d="M 33.90625 24.09375 
L 10.09375 24.09375 
L 33.703125 58.796875 
L 33.90625 58.796875 
z
M 41.90625 24.09375 
L 41.90625 70.90625 
L 35.09375 70.90625 
L 2.796875 24.796875 
L 2.796875 16.59375 
L 33.90625 16.59375 
L 33.90625 0 
L 41.90625 0 
L 41.90625 16.59375 
L 51.5 16.59375 
L 51.5 24.09375 
z
" id="HelveticaNeue-52"/>
       </defs>
       <use xlink:href="#HelveticaNeue-52"/>
       <use x="55.599991" xlink:href="#HelveticaNeue-48"/>
       <use x="111.199982" xlink:href="#HelveticaNeue-48"/>
      </g>
     </g>
    </g>
    <g id="ytick_6">
     <g id="line2d_22">
      <g>
       <use style="fill:#555555;stroke:#555555;stroke-width:0.8;" x="62.5" xlink:href="#m5aa69697bd" y="82.954044"/>
      </g>
     </g>
     <g id="text_12">
      <!-- 500 -->
      <g style="fill:#555555;" transform="translate(38.821875 86.524356)scale(0.1 -0.1)">
       <defs>
        <path d="M 47 62.203125 
L 47 69.703125 
L 12 69.703125 
L 5.40625 32.90625 
L 12.703125 32.5 
Q 15.203125 35.5 18.453125 37.34375 
Q 21.703125 39.203125 25.90625 39.203125 
Q 29.5 39.203125 32.453125 38 
Q 35.40625 36.796875 37.5 34.640625 
Q 39.59375 32.5 40.75 29.546875 
Q 41.90625 26.59375 41.90625 23.09375 
Q 41.90625 18.90625 40.703125 15.75 
Q 39.5 12.59375 37.453125 10.5 
Q 35.40625 8.40625 32.65625 7.34375 
Q 29.90625 6.296875 26.90625 6.296875 
Q 23.703125 6.296875 21.046875 7.25 
Q 18.40625 8.203125 16.453125 9.953125 
Q 14.5 11.703125 13.34375 14.046875 
Q 12.203125 16.40625 12 19.09375 
L 3.5 19.09375 
Q 3.59375 14.296875 5.390625 10.5 
Q 7.203125 6.703125 10.296875 4.140625 
Q 13.40625 1.59375 17.453125 0.25 
Q 21.5 -1.09375 26.09375 -1.09375 
Q 32.296875 -1.09375 36.9375 0.84375 
Q 41.59375 2.796875 44.6875 6.09375 
Q 47.796875 9.40625 49.34375 13.65625 
Q 50.90625 17.90625 50.90625 22.40625 
Q 50.90625 28.5 49.09375 33.046875 
Q 47.296875 37.59375 44.1875 40.640625 
Q 41.09375 43.703125 36.890625 45.203125 
Q 32.703125 46.703125 28 46.703125 
Q 24.40625 46.703125 20.75 45.453125 
Q 17.09375 44.203125 14.796875 41.59375 
L 14.59375 41.796875 
L 18.40625 62.203125 
z
" id="HelveticaNeue-53"/>
       </defs>
       <use xlink:href="#HelveticaNeue-53"/>
       <use x="55.599991" xlink:href="#HelveticaNeue-48"/>
       <use x="111.199982" xlink:href="#HelveticaNeue-48"/>
      </g>
     </g>
    </g>
    <g id="ytick_7">
     <g id="line2d_23">
      <g>
       <use style="fill:#555555;stroke:#555555;stroke-width:0.8;" x="62.5" xlink:href="#m5aa69697bd" y="49.185761"/>
      </g>
     </g>
     <g id="text_13">
      <!-- 600 -->
      <g style="fill:#555555;" transform="translate(38.821875 52.756074)scale(0.1 -0.1)">
       <defs>
        <path d="M 41.40625 52.796875 
L 49.90625 52.796875 
Q 49.09375 61.59375 43.890625 66.25 
Q 38.703125 70.90625 29.90625 70.90625 
Q 22.296875 70.90625 17.296875 67.703125 
Q 12.296875 64.5 9.296875 59.203125 
Q 6.296875 53.90625 5.046875 47.046875 
Q 3.796875 40.203125 3.796875 32.90625 
Q 3.796875 27.296875 4.640625 21.296875 
Q 5.5 15.296875 8.09375 10.296875 
Q 10.703125 5.296875 15.5 2.09375 
Q 20.296875 -1.09375 28.203125 -1.09375 
Q 34.90625 -1.09375 39.453125 1.15625 
Q 44 3.40625 46.75 6.84375 
Q 49.5 10.296875 50.703125 14.5 
Q 51.90625 18.703125 51.90625 22.59375 
Q 51.90625 27.5 50.40625 31.703125 
Q 48.90625 35.90625 46.15625 39 
Q 43.40625 42.09375 39.34375 43.84375 
Q 35.296875 45.59375 30.203125 45.59375 
Q 24.40625 45.59375 19.953125 43.390625 
Q 15.5 41.203125 12.5 36.296875 
L 12.296875 36.5 
Q 12.40625 40.59375 13.09375 45.296875 
Q 13.796875 50 15.640625 54.046875 
Q 17.5 58.09375 20.796875 60.75 
Q 24.09375 63.40625 29.5 63.40625 
Q 34.59375 63.40625 37.6875 60.5 
Q 40.796875 57.59375 41.40625 52.796875 
z
M 28.59375 38.09375 
Q 32.203125 38.09375 34.890625 36.796875 
Q 37.59375 35.5 39.390625 33.34375 
Q 41.203125 31.203125 42.046875 28.25 
Q 42.90625 25.296875 42.90625 22 
Q 42.90625 18.90625 41.953125 16.046875 
Q 41 13.203125 39.203125 11 
Q 37.40625 8.796875 34.75 7.546875 
Q 32.09375 6.296875 28.59375 6.296875 
Q 25.09375 6.296875 22.34375 7.546875 
Q 19.59375 8.796875 17.75 10.890625 
Q 15.90625 13 14.90625 15.890625 
Q 13.90625 18.796875 13.90625 22.09375 
Q 13.90625 25.40625 14.84375 28.34375 
Q 15.796875 31.296875 17.6875 33.4375 
Q 19.59375 35.59375 22.296875 36.84375 
Q 25 38.09375 28.59375 38.09375 
z
" id="HelveticaNeue-54"/>
       </defs>
       <use xlink:href="#HelveticaNeue-54"/>
       <use x="55.599991" xlink:href="#HelveticaNeue-48"/>
       <use x="111.199982" xlink:href="#HelveticaNeue-48"/>
      </g>
     </g>
    </g>
   </g>
   <g id="line2d_24">
    <path clip-path="url(#p59993b8d10)" d="M 63.394919 251.457772 
L 64.289838 249.769358 
L 65.184758 251.795455 
L 66.079677 247.405578 
L 66.974596 251.795455 
L 67.869515 248.418626 
L 68.764434 248.756309 
L 69.659353 248.418626 
L 70.554273 249.769358 
L 71.449192 249.093992 
L 72.344111 250.444723 
L 73.23903 249.093992 
L 74.133949 247.067895 
L 75.028868 245.717164 
L 75.923788 248.418626 
L 76.818707 251.795455 
L 77.713626 245.717164 
L 78.608545 247.405578 
L 79.503464 249.769358 
L 80.398383 251.120089 
L 81.293303 251.457772 
L 82.188222 251.457772 
L 83.083141 250.444723 
L 83.97806 251.457772 
L 84.872979 251.120089 
L 85.767898 249.431675 
L 86.662818 250.444723 
L 87.557737 245.717164 
L 88.452656 249.431675 
L 89.347575 248.080944 
L 90.242494 249.093992 
L 91.137413 251.120089 
L 92.032333 251.120089 
L 92.927252 249.769358 
L 93.822171 251.457772 
L 94.71709 251.120089 
L 95.612009 251.457772 
L 96.506928 251.120089 
L 97.401848 250.10704 
L 100.981524 251.457772 
L 101.876443 250.444723 
L 102.771363 251.120089 
L 103.666282 249.431675 
L 104.561201 251.457772 
L 105.45612 244.02875 
L 106.351039 250.10704 
L 107.245958 250.444723 
L 108.140878 250.10704 
L 109.035797 251.120089 
L 109.930716 250.782406 
L 110.825635 251.457772 
L 111.720554 251.120089 
L 112.615473 251.795455 
L 114.405312 250.444723 
L 115.300231 251.795455 
L 116.19515 247.067895 
L 117.090069 248.080944 
L 117.984988 250.782406 
L 118.879908 248.756309 
L 119.774827 249.093992 
L 120.669746 250.444723 
L 121.564665 247.743261 
L 122.459584 248.080944 
L 123.354503 245.379481 
L 124.249423 248.080944 
L 125.144342 240.989604 
L 126.039261 246.730212 
L 126.93418 249.431675 
L 127.829099 249.769358 
L 128.724018 247.743261 
L 129.618938 242.002653 
L 130.513857 246.392529 
L 131.408776 249.093992 
L 132.303695 251.120089 
L 133.198614 247.743261 
L 134.093533 246.392529 
L 134.988453 243.691067 
L 135.883372 245.379481 
L 136.778291 247.743261 
L 137.67321 247.067895 
L 138.568129 248.418626 
L 139.463048 245.717164 
L 140.357968 249.093992 
L 141.252887 244.704115 
L 142.147806 243.691067 
L 143.042725 238.288142 
L 143.937644 241.327287 
L 144.832564 231.534485 
L 145.727483 240.989604 
L 146.622402 234.573631 
L 147.517321 242.678018 
L 148.41224 231.872168 
L 149.307159 241.66497 
L 150.202079 232.209851 
L 151.096998 233.222899 
L 151.991917 231.872168 
L 152.886836 242.002653 
L 153.781755 233.898265 
L 155.571594 231.196802 
L 156.466513 231.196802 
L 157.361432 231.534485 
L 158.256351 228.157657 
L 159.15127 230.183754 
L 160.046189 201.480714 
L 160.941109 219.377904 
L 161.836028 223.092415 
L 162.730947 208.909736 
L 163.625866 202.15608 
L 164.520785 226.469243 
L 165.415704 206.545956 
L 166.310624 208.234371 
L 167.205543 202.493763 
L 168.100462 204.519859 
L 168.995381 205.870591 
L 169.8903 196.753155 
L 170.785219 189.324132 
L 171.680139 220.728635 
L 172.575058 183.583525 
L 173.469977 179.193648 
L 174.364896 194.727058 
L 175.259815 176.492185 
L 176.154734 182.232793 
L 177.049654 203.506811 
L 177.944573 175.81682 
L 178.839492 168.387798 
L 179.734411 185.271939 
L 180.62933 180.544379 
L 181.524249 169.738529 
L 182.419169 181.557428 
L 183.314088 212.286564 
L 184.209007 178.518282 
L 185.103926 105.24111 
L 185.998845 167.037066 
L 186.893764 186.62267 
L 187.788684 171.426943 
L 188.683603 163.322555 
L 189.578522 193.376326 
L 190.473441 152.516705 
L 191.36836 150.152925 
L 192.263279 129.21659 
L 193.158199 153.529753 
L 194.053118 156.568899 
L 194.948037 152.854388 
L 195.842956 168.72548 
L 197.632794 133.606467 
L 198.527714 190.337181 
L 199.422633 176.154502 
L 200.317552 168.050115 
L 201.212471 195.402423 
L 202.10739 184.25889 
L 203.002309 179.869013 
L 203.897229 179.531331 
L 204.792148 199.116934 
L 205.687067 199.454617 
L 206.581986 188.311084 
L 207.476905 232.209851 
L 208.371824 213.299613 
L 209.266744 181.89511 
L 210.161663 211.273516 
L 211.056582 216.001075 
L 211.951501 201.818397 
L 212.84642 193.038644 
L 213.741339 216.001075 
L 214.636259 232.885217 
L 215.531178 188.98645 
L 216.426097 207.559005 
L 217.321016 208.572053 
L 218.215935 195.740106 
L 219.110855 204.857542 
L 220.005774 217.014124 
L 220.900693 237.950459 
L 221.795612 205.195225 
L 222.690531 199.116934 
L 223.58545 211.948882 
L 224.48037 217.014124 
L 225.375289 216.676441 
L 226.270208 226.806926 
L 227.165127 229.170705 
L 228.060046 215.663393 
L 228.954965 215.663393 
L 229.849885 203.506811 
L 230.744804 207.896688 
L 231.639723 213.974978 
L 232.534642 217.68949 
L 233.429561 231.534485 
L 234.32448 215.663393 
L 235.2194 206.545956 
L 236.114319 217.68949 
L 237.009238 221.741683 
L 237.904157 202.831445 
L 238.799076 213.637296 
L 239.693995 197.42852 
L 240.588915 210.935833 
L 241.483834 212.286564 
L 242.378753 204.182177 
L 243.273672 207.559005 
L 244.168591 212.96193 
L 245.06351 221.741683 
L 245.95843 223.76778 
L 246.853349 220.390952 
L 247.748268 229.846071 
L 248.643187 221.741683 
L 249.538106 192.025595 
L 250.433025 205.870591 
L 251.327945 208.909736 
L 252.222864 227.482291 
L 254.012702 194.051692 
L 254.907621 200.129983 
L 255.80254 195.06474 
L 256.69746 194.051692 
L 257.592379 194.389375 
L 258.487298 217.351807 
L 259.382217 192.700961 
L 260.277136 198.779252 
L 261.172055 201.818397 
L 262.066975 190.674864 
L 262.961894 196.753155 
L 263.856813 191.350229 
L 264.751732 227.819974 
L 265.646651 205.870591 
L 266.54157 210.59815 
L 267.43649 203.506811 
L 268.331409 203.506811 
L 269.226328 201.143031 
L 270.121247 204.857542 
L 271.016166 209.922785 
L 271.911085 201.818397 
L 272.806005 192.025595 
L 273.700924 199.116934 
L 274.595843 178.855965 
L 275.490762 201.818397 
L 276.385681 192.025595 
L 277.2806 227.144609 
L 278.17552 206.545956 
L 279.070439 180.206696 
L 279.965358 209.247419 
L 280.860277 170.413894 
L 281.755196 198.103886 
L 282.650115 177.842917 
L 283.545035 202.15608 
L 284.439954 185.947304 
L 285.334873 173.115357 
L 287.124711 187.973401 
L 288.01963 156.568899 
L 288.91455 193.376326 
L 289.809469 193.038644 
L 290.704388 203.506811 
L 291.599307 178.518282 
L 292.494226 170.751577 
L 293.389145 182.908159 
L 294.284065 147.11378 
L 295.178984 176.829868 
L 296.073903 177.842917 
L 296.968822 173.115357 
L 297.863741 180.206696 
L 298.758661 156.568899 
L 299.65358 159.270361 
L 300.548499 159.945727 
L 301.443418 150.490608 
L 302.338337 190.337181 
L 303.233256 151.503656 
L 304.128176 118.073057 
L 305.023095 123.475982 
L 305.918014 151.165974 
L 306.812933 119.761471 
L 307.707852 136.983295 
L 308.602771 173.45304 
L 309.497691 133.606467 
L 310.39261 100.51355 
L 311.287529 93.422211 
L 312.182448 101.864282 
L 313.077367 192.363278 
L 313.972286 140.697806 
L 314.867206 133.606467 
L 315.762125 91.058431 
L 316.657044 79.577215 
L 317.551963 48.848079 
L 319.341801 206.883639 
L 320.236721 148.464511 
L 321.13164 69.109048 
L 322.026559 151.841339 
L 322.921478 38.042228 
L 324.711316 97.136722 
L 325.606236 119.086106 
L 326.501155 128.203542 
L 327.396074 159.945727 
L 328.290993 187.635718 
L 329.185912 61.680026 
L 330.080831 37.704545 
L 330.975751 108.617938 
L 331.87067 108.280255 
L 332.765589 116.722326 
L 333.660508 144.75 
L 334.555427 120.77452 
L 335.450346 93.422211 
L 336.345266 132.593418 
L 337.240185 121.787568 
L 338.135104 151.841339 
L 339.030023 166.699383 
L 339.924942 204.519859 
L 340.819861 132.255736 
L 341.714781 168.050115 
L 342.6097 173.115357 
L 343.504619 174.803771 
L 344.399538 186.62267 
L 345.294457 211.611199 
L 346.189376 201.480714 
L 347.084296 197.090837 
L 347.979215 204.182177 
L 348.874134 206.208274 
L 349.769053 194.727058 
L 350.663972 212.624247 
L 351.558891 216.676441 
L 352.453811 223.092415 
L 353.34873 223.430098 
L 354.243649 204.182177 
L 355.138568 218.702538 
L 356.033487 219.040221 
L 356.928406 217.68949 
L 357.823326 220.053269 
L 358.718245 232.885217 
L 359.613164 230.521437 
L 360.508083 227.144609 
L 361.403002 219.377904 
L 362.297921 226.806926 
L 363.192841 225.793877 
L 364.08776 226.806926 
L 364.982679 238.963507 
L 365.877598 233.560582 
L 366.772517 229.508388 
L 367.667436 227.482291 
L 368.562356 235.248996 
L 369.457275 229.170705 
L 370.352194 232.547534 
L 371.247113 235.248996 
L 372.142032 210.59815 
L 373.036952 229.170705 
L 373.931871 229.846071 
L 374.82679 223.76778 
L 375.721709 237.612776 
L 376.616628 232.547534 
L 377.511547 237.612776 
L 379.301386 229.846071 
L 380.196305 217.014124 
L 381.091224 230.183754 
L 381.986143 227.819974 
L 382.881062 237.612776 
L 383.775982 238.963507 
L 384.670901 225.793877 
L 385.56582 227.144609 
L 386.460739 221.741683 
L 387.355658 225.118512 
L 388.250577 223.76778 
L 389.145497 222.754732 
L 390.040416 216.676441 
L 390.935335 235.586679 
L 391.830254 221.741683 
L 392.725173 204.519859 
L 393.620092 205.870591 
L 394.515012 195.402423 
L 395.409931 194.051692 
L 396.30485 215.663393 
L 397.199769 164.673286 
L 398.094688 151.841339 
L 398.989607 154.205119 
L 399.884527 191.012547 
L 400.779446 192.363278 
L 401.674365 148.802194 
L 402.569284 175.81682 
L 403.464203 156.231216 
L 404.359122 150.490608 
L 405.254042 147.451463 
L 406.148961 124.151348 
L 407.04388 158.594996 
L 407.938799 178.518282 
L 408.833718 173.790723 
L 409.728637 155.893533 
L 410.623557 149.139877 
L 411.518476 150.490608 
L 412.413395 156.231216 
L 413.308314 153.867436 
L 414.203233 171.426943 
L 415.098152 157.244264 
L 415.993072 77.213436 
L 416.887991 135.632564 
L 417.78291 145.763048 
L 418.677829 141.035489 
L 419.572748 131.918053 
L 420.467667 170.751577 
L 421.362587 157.244264 
L 422.257506 159.270361 
L 423.152425 121.449885 
L 424.047344 157.244264 
L 424.942263 129.554273 
L 425.837182 144.074634 
L 426.732102 169.738529 
L 427.627021 190.337181 
L 428.52194 151.503656 
L 429.416859 130.567321 
L 430.311778 162.309507 
L 431.206697 159.608044 
L 432.101617 148.464511 
L 432.996536 163.322555 
L 433.891455 162.64719 
L 434.786374 151.503656 
L 435.681293 149.815242 
L 436.576212 162.309507 
L 437.471132 159.945727 
L 438.366051 149.139877 
L 439.26097 150.828291 
L 440.155889 182.232793 
L 441.050808 158.932679 
L 441.945727 129.891956 
L 442.840647 139.684758 
L 443.735566 129.891956 
L 444.630485 137.320978 
L 445.525404 135.294881 
L 446.420323 115.709277 
L 447.315242 150.152925 
L 448.210162 109.630987 
L 449.105081 131.58037 
L 450 234.235948 
L 450 234.235948 
" style="fill:none;stroke:#000000;stroke-dasharray:1.5,2.475;stroke-dashoffset:0;stroke-opacity:0.5;stroke-width:1.5;"/>
   </g>
   <g id="line2d_25">
    <path clip-path="url(#p59993b8d10)" d="M 62.5 251.120089 
L 63.394919 250.444723 
L 64.289838 250.444723 
L 66.974596 249.431675 
L 67.869515 249.431675 
L 68.764434 249.093992 
L 69.659353 249.431675 
L 70.554273 249.093992 
L 71.449192 249.093992 
L 73.23903 248.418626 
L 74.133949 248.418626 
L 75.028868 248.080944 
L 76.818707 248.080944 
L 77.713626 248.418626 
L 79.503464 249.769358 
L 80.398383 249.769358 
L 82.188222 251.120089 
L 83.083141 251.120089 
L 83.97806 250.782406 
L 84.872979 250.10704 
L 86.662818 249.431675 
L 87.557737 248.756309 
L 88.452656 248.756309 
L 90.242494 249.431675 
L 91.137413 250.10704 
L 93.822171 251.120089 
L 94.71709 250.782406 
L 101.876443 250.782406 
L 102.771363 250.10704 
L 104.561201 249.431675 
L 106.351039 249.431675 
L 107.245958 249.769358 
L 108.140878 249.769358 
L 109.035797 250.782406 
L 109.930716 251.120089 
L 112.615473 251.120089 
L 117.090069 249.431675 
L 117.984988 249.431675 
L 118.879908 249.093992 
L 119.774827 249.093992 
L 120.669746 248.756309 
L 123.354503 246.730212 
L 124.249423 246.392529 
L 125.144342 246.730212 
L 127.829099 246.730212 
L 129.618938 247.405578 
L 131.408776 247.405578 
L 132.303695 247.067895 
L 133.198614 247.405578 
L 135.883372 246.392529 
L 136.778291 246.392529 
L 138.568129 247.067895 
L 139.463048 246.730212 
L 141.252887 244.704115 
L 142.147806 242.340336 
L 143.042725 240.989604 
L 143.937644 238.963507 
L 144.832564 238.625824 
L 145.727483 237.275093 
L 146.622402 237.612776 
L 147.517321 236.93741 
L 148.41224 236.93741 
L 149.307159 235.586679 
L 150.202079 235.924362 
L 151.096998 235.248996 
L 151.991917 235.248996 
L 152.886836 234.235948 
L 154.676674 233.560582 
L 155.571594 232.547534 
L 156.466513 231.196802 
L 157.361432 227.482291 
L 158.256351 225.118512 
L 159.15127 223.092415 
L 160.046189 220.053269 
L 160.941109 216.338758 
L 161.836028 215.32571 
L 162.730947 212.96193 
L 163.625866 213.299613 
L 164.520785 211.273516 
L 165.415704 208.909736 
L 166.310624 208.234371 
L 167.205543 206.883639 
L 168.100462 202.493763 
L 168.995381 203.169128 
L 169.8903 200.805348 
L 170.785219 197.766203 
L 171.680139 195.740106 
L 172.575058 192.025595 
L 173.469977 189.324132 
L 174.364896 189.661815 
L 175.259815 185.271939 
L 176.154734 183.921207 
L 177.049654 183.921207 
L 177.944573 181.89511 
L 178.839492 180.544379 
L 179.734411 179.869013 
L 180.62933 180.882062 
L 181.524249 182.570476 
L 182.419169 176.492185 
L 183.314088 172.439991 
L 185.103926 169.063163 
L 185.998845 166.699383 
L 186.893764 166.024018 
L 187.788684 166.024018 
L 188.683603 170.413894 
L 190.473441 159.270361 
L 191.36836 155.55585 
L 193.158199 150.828291 
L 194.053118 152.179022 
L 194.948037 151.503656 
L 195.842956 157.244264 
L 196.737875 160.28341 
L 197.632794 162.64719 
L 198.527714 168.387798 
L 199.422633 172.102309 
L 201.212471 181.89511 
L 202.10739 183.245842 
L 203.897229 188.98645 
L 205.687067 198.779252 
L 206.581986 200.805348 
L 207.476905 204.519859 
L 208.371824 206.208274 
L 209.266744 206.545956 
L 210.161663 206.545956 
L 211.056582 204.519859 
L 211.951501 207.221322 
L 212.84642 208.572053 
L 214.636259 207.896688 
L 215.531178 206.883639 
L 216.426097 207.221322 
L 217.321016 206.545956 
L 218.215935 207.896688 
L 219.110855 210.935833 
L 220.005774 210.935833 
L 220.900693 211.611199 
L 221.795612 213.299613 
L 223.58545 214.650344 
L 224.48037 214.988027 
L 225.375289 217.68949 
L 226.270208 219.715586 
L 227.165127 218.702538 
L 229.849885 213.637296 
L 230.744804 213.974978 
L 231.639723 214.988027 
L 232.534642 214.988027 
L 233.429561 216.676441 
L 234.32448 217.68949 
L 235.2194 216.338758 
L 236.114319 215.32571 
L 237.009238 211.273516 
L 237.904157 210.260467 
L 238.799076 210.260467 
L 239.693995 208.572053 
L 240.588915 207.221322 
L 242.378753 209.247419 
L 243.273672 212.624247 
L 244.168591 214.650344 
L 245.95843 220.390952 
L 246.853349 219.040221 
L 247.748268 217.351807 
L 248.643187 214.650344 
L 249.538106 213.637296 
L 250.433025 212.286564 
L 251.327945 209.247419 
L 252.222864 207.221322 
L 253.117783 206.883639 
L 254.907621 201.143031 
L 255.80254 199.454617 
L 256.69746 198.103886 
L 257.592379 199.116934 
L 258.487298 199.454617 
L 259.382217 199.116934 
L 260.277136 199.116934 
L 261.172055 198.103886 
L 262.066975 198.779252 
L 263.856813 203.506811 
L 264.751732 204.857542 
L 265.646651 206.545956 
L 266.54157 206.883639 
L 267.43649 207.559005 
L 268.331409 205.195225 
L 269.226328 204.857542 
L 270.121247 202.831445 
L 271.016166 202.15608 
L 271.911085 199.116934 
L 272.806005 197.766203 
L 273.700924 195.740106 
L 275.490762 199.116934 
L 276.385681 199.116934 
L 277.2806 200.805348 
L 278.17552 199.454617 
L 279.070439 197.766203 
L 279.965358 194.727058 
L 280.860277 191.012547 
L 281.755196 188.98645 
L 282.650115 188.311084 
L 283.545035 184.934256 
L 284.439954 185.947304 
L 285.334873 181.219745 
L 286.229792 181.557428 
L 287.124711 180.544379 
L 288.01963 182.908159 
L 288.91455 184.934256 
L 289.809469 184.934256 
L 290.704388 184.596573 
L 291.599307 182.232793 
L 292.494226 178.180599 
L 294.284065 171.764626 
L 295.178984 172.102309 
L 296.073903 171.08926 
L 296.968822 169.063163 
L 297.863741 169.400846 
L 298.758661 165.348652 
L 299.65358 165.348652 
L 300.548499 163.322555 
L 301.443418 157.244264 
L 302.338337 152.516705 
L 303.233256 149.139877 
L 304.128176 143.061586 
L 305.023095 139.009392 
L 305.918014 136.983295 
L 306.812933 137.320978 
L 307.707852 136.307929 
L 308.602771 132.255736 
L 309.497691 124.826714 
L 310.39261 128.878907 
L 311.287529 129.21659 
L 312.182448 127.528176 
L 313.077367 126.177445 
L 313.972286 124.151348 
L 314.867206 116.04696 
L 315.762125 112.332449 
L 316.657044 111.319401 
L 317.551963 115.371594 
L 318.446882 114.696229 
L 319.341801 123.813665 
L 321.13164 117.397691 
L 322.026559 106.929524 
L 322.921478 94.772942 
L 323.816397 93.084528 
L 324.711316 104.565744 
L 326.501155 122.462934 
L 327.396074 120.099154 
L 328.290993 117.060009 
L 329.185912 110.981718 
L 330.080831 105.916475 
L 331.87067 101.188916 
L 332.765589 108.617938 
L 333.660508 118.748423 
L 334.555427 120.099154 
L 335.450346 124.151348 
L 336.345266 130.229639 
L 337.240185 139.684758 
L 338.135104 145.763048 
L 339.030023 155.893533 
L 340.819861 167.374749 
L 341.714781 170.751577 
L 342.6097 176.154502 
L 343.504619 178.855965 
L 344.399538 187.973401 
L 345.294457 193.714009 
L 346.189376 198.441569 
L 347.979215 203.169128 
L 348.874134 204.182177 
L 349.769053 207.221322 
L 350.663972 211.273516 
L 351.558891 212.624247 
L 352.453811 214.312661 
L 353.34873 217.014124 
L 354.243649 217.351807 
L 355.138568 217.351807 
L 356.033487 218.702538 
L 356.928406 220.390952 
L 357.823326 223.76778 
L 358.718245 224.443146 
L 359.613164 225.456194 
L 360.508083 226.13156 
L 361.403002 226.469243 
L 362.297921 227.144609 
L 364.08776 229.170705 
L 364.982679 230.521437 
L 365.877598 231.196802 
L 367.667436 231.872168 
L 368.562356 231.534485 
L 369.457275 229.508388 
L 370.352194 228.833023 
L 371.247113 228.49534 
L 372.142032 226.806926 
L 373.036952 227.482291 
L 373.931871 227.819974 
L 374.82679 229.170705 
L 375.721709 232.209851 
L 376.616628 232.547534 
L 377.511547 231.534485 
L 378.406467 231.196802 
L 379.301386 229.508388 
L 380.196305 229.508388 
L 381.091224 229.846071 
L 381.986143 229.846071 
L 383.775982 230.521437 
L 384.670901 229.508388 
L 385.56582 228.157657 
L 386.460739 226.13156 
L 387.355658 223.430098 
L 388.250577 224.105463 
L 389.145497 223.76778 
L 390.040416 222.079366 
L 390.935335 219.715586 
L 391.830254 215.663393 
L 392.725173 210.935833 
L 393.620092 208.572053 
L 396.30485 184.25889 
L 397.199769 179.869013 
L 398.094688 177.505234 
L 398.989607 172.777674 
L 399.884527 169.400846 
L 400.779446 169.063163 
L 401.674365 168.387798 
L 402.569284 165.348652 
L 403.464203 156.568899 
L 404.359122 151.503656 
L 405.254042 153.192071 
L 406.148961 153.867436 
L 407.938799 157.244264 
L 408.833718 158.257313 
L 409.728637 160.621093 
L 410.623557 158.594996 
L 411.518476 157.244264 
L 412.413395 156.231216 
L 413.308314 148.464511 
L 415.098152 141.373172 
L 416.887991 134.957198 
L 417.78291 135.632564 
L 418.677829 138.671709 
L 419.572748 148.802194 
L 420.467667 148.464511 
L 421.362587 149.47756 
L 422.257506 147.789145 
L 423.152425 147.451463 
L 424.047344 146.438414 
L 424.942263 150.828291 
L 425.837182 152.516705 
L 426.732102 155.218167 
L 427.627021 156.231216 
L 428.52194 158.594996 
L 429.416859 157.91963 
L 430.311778 156.231216 
L 431.206697 154.205119 
L 432.101617 155.218167 
L 432.996536 156.906582 
L 435.681293 156.906582 
L 436.576212 155.218167 
L 437.471132 157.244264 
L 438.366051 158.932679 
L 439.26097 157.244264 
L 440.155889 154.205119 
L 441.050808 150.152925 
L 441.945727 146.776097 
L 442.840647 142.723903 
L 443.735566 134.957198 
L 444.630485 133.606467 
L 445.525404 131.58037 
L 446.420323 129.891956 
L 447.315242 140.697806 
L 448.210162 144.75 
L 449.105081 150.490608 
L 450 160.28341 
L 450 160.28341 
" style="fill:none;stroke:#b3220f;stroke-linecap:square;stroke-width:1.5;"/>
   </g>
   <g id="patch_3">
    <path d="M 62.5 262.5 
L 62.5 27 
" style="fill:none;stroke:#555555;stroke-linecap:square;stroke-linejoin:miter;"/>
   </g>
   <g id="patch_4">
    <path d="M 62.5 262.5 
L 450 262.5 
" style="fill:none;stroke:#555555;stroke-linecap:square;stroke-linejoin:miter;"/>
   </g>
   <g id="text_14">
    <!-- Usaqun | Casos nuevos: 2021-05-27 -->
    <g style="fill:#555555;" transform="translate(137.988281 17)scale(0.14 -0.14)">
     <defs>
      <path d="M 64.796875 25.796875 
L 64.796875 71.40625 
L 55.296875 71.40625 
L 55.296875 25.796875 
Q 55.296875 16.203125 50.546875 11.25 
Q 45.796875 6.296875 36.703125 6.296875 
Q 27.09375 6.296875 22 11.25 
Q 16.90625 16.203125 16.90625 25.796875 
L 16.90625 71.40625 
L 7.40625 71.40625 
L 7.40625 25.796875 
Q 7.40625 11.5 15.15625 4.953125 
Q 22.90625 -1.59375 36.703125 -1.59375 
Q 50.203125 -1.59375 57.5 5.25 
Q 64.796875 12.09375 64.796875 25.796875 
z
" id="HelveticaNeue-85"/>
      <path d="M 11.59375 16.296875 
L 3.09375 16.296875 
Q 3.296875 11.5 5.09375 8.140625 
Q 6.90625 4.796875 9.90625 2.75 
Q 12.90625 0.703125 16.796875 -0.1875 
Q 20.703125 -1.09375 25 -1.09375 
Q 28.90625 -1.09375 32.84375 -0.34375 
Q 36.796875 0.40625 39.9375 2.296875 
Q 43.09375 4.203125 45.046875 7.296875 
Q 47 10.40625 47 15.09375 
Q 47 18.796875 45.546875 21.296875 
Q 44.09375 23.796875 41.75 25.4375 
Q 39.40625 27.09375 36.34375 28.09375 
Q 33.296875 29.09375 30.09375 29.796875 
Q 27.09375 30.5 24.09375 31.140625 
Q 21.09375 31.796875 18.6875 32.75 
Q 16.296875 33.703125 14.75 35.140625 
Q 13.203125 36.59375 13.203125 38.796875 
Q 13.203125 40.796875 14.203125 42.046875 
Q 15.203125 43.296875 16.796875 44.046875 
Q 18.40625 44.796875 20.34375 45.09375 
Q 22.296875 45.40625 24.203125 45.40625 
Q 26.296875 45.40625 28.34375 44.953125 
Q 30.40625 44.5 32.09375 43.5 
Q 33.796875 42.5 34.890625 40.84375 
Q 36 39.203125 36.203125 36.703125 
L 44.703125 36.703125 
Q 44.40625 41.40625 42.703125 44.546875 
Q 41 47.703125 38.140625 49.546875 
Q 35.296875 51.40625 31.59375 52.15625 
Q 27.90625 52.90625 23.5 52.90625 
Q 20.09375 52.90625 16.640625 52.046875 
Q 13.203125 51.203125 10.453125 49.453125 
Q 7.703125 47.703125 5.953125 44.890625 
Q 4.203125 42.09375 4.203125 38.203125 
Q 4.203125 33.203125 6.703125 30.390625 
Q 9.203125 27.59375 12.953125 26.046875 
Q 16.703125 24.5 21.09375 23.640625 
Q 25.5 22.796875 29.25 21.75 
Q 33 20.703125 35.5 19 
Q 38 17.296875 38 14 
Q 38 11.59375 36.796875 10.046875 
Q 35.59375 8.5 33.75 7.703125 
Q 31.90625 6.90625 29.703125 6.59375 
Q 27.5 6.296875 25.5 6.296875 
Q 22.90625 6.296875 20.453125 6.796875 
Q 18 7.296875 16.046875 8.4375 
Q 14.09375 9.59375 12.890625 11.546875 
Q 11.703125 13.5 11.59375 16.296875 
z
" id="HelveticaNeue-115"/>
      <path d="M 12.59375 25.40625 
Q 12.59375 29.203125 13.390625 32.796875 
Q 14.203125 36.40625 16 39.203125 
Q 17.796875 42 20.796875 43.703125 
Q 23.796875 45.40625 28.09375 45.40625 
Q 32.5 45.40625 35.59375 43.75 
Q 38.703125 42.09375 40.640625 39.390625 
Q 42.59375 36.703125 43.5 33.140625 
Q 44.40625 29.59375 44.40625 25.796875 
Q 44.40625 22.203125 43.546875 18.703125 
Q 42.703125 15.203125 40.796875 12.453125 
Q 38.90625 9.703125 35.90625 8 
Q 32.90625 6.296875 28.59375 6.296875 
Q 24.5 6.296875 21.453125 7.890625 
Q 18.40625 9.5 16.453125 12.203125 
Q 14.5 14.90625 13.546875 18.34375 
Q 12.59375 21.796875 12.59375 25.40625 
z
M 52.59375 -19.703125 
L 52.59375 51.703125 
L 44.09375 51.703125 
L 44.09375 44.796875 
L 43.90625 44.796875 
Q 42.5 47.09375 40.453125 48.640625 
Q 38.40625 50.203125 36.09375 51.140625 
Q 33.796875 52.09375 31.5 52.5 
Q 29.203125 52.90625 27.203125 52.90625 
Q 21.296875 52.90625 16.84375 50.75 
Q 12.40625 48.59375 9.453125 44.9375 
Q 6.5 41.296875 5.046875 36.390625 
Q 3.59375 31.5 3.59375 26 
Q 3.59375 20.5 5.09375 15.59375 
Q 6.59375 10.703125 9.546875 7 
Q 12.5 3.296875 16.953125 1.09375 
Q 21.40625 -1.09375 27.40625 -1.09375 
Q 32.796875 -1.09375 37.296875 0.796875 
Q 41.796875 2.703125 43.90625 7 
L 44.09375 7 
L 44.09375 -19.703125 
z
" id="HelveticaNeue-113"/>
      <path d="M 42.296875 30.796875 
L 12.59375 30.796875 
Q 12.796875 33.796875 13.890625 36.4375 
Q 15 39.09375 16.890625 41.09375 
Q 18.796875 43.09375 21.4375 44.25 
Q 24.09375 45.40625 27.40625 45.40625 
Q 30.59375 45.40625 33.25 44.25 
Q 35.90625 43.09375 37.84375 41.140625 
Q 39.796875 39.203125 40.9375 36.5 
Q 42.09375 33.796875 42.296875 30.796875 
z
M 50.5 16.40625 
L 42.09375 16.40625 
Q 41 11.296875 37.546875 8.796875 
Q 34.09375 6.296875 28.703125 6.296875 
Q 24.5 6.296875 21.390625 7.6875 
Q 18.296875 9.09375 16.296875 11.4375 
Q 14.296875 13.796875 13.390625 16.84375 
Q 12.5 19.90625 12.59375 23.296875 
L 51.296875 23.296875 
Q 51.5 28 50.453125 33.203125 
Q 49.40625 38.40625 46.65625 42.796875 
Q 43.90625 47.203125 39.34375 50.046875 
Q 34.796875 52.90625 27.90625 52.90625 
Q 22.59375 52.90625 18.140625 50.90625 
Q 13.703125 48.90625 10.453125 45.296875 
Q 7.203125 41.703125 5.390625 36.796875 
Q 3.59375 31.90625 3.59375 26 
Q 3.796875 20.09375 5.34375 15.09375 
Q 6.90625 10.09375 10 6.5 
Q 13.09375 2.90625 17.640625 0.90625 
Q 22.203125 -1.09375 28.40625 -1.09375 
Q 37.203125 -1.09375 43 3.296875 
Q 48.796875 7.703125 50.5 16.40625 
z
M 41.296875 77 
L 27.203125 60.796875 
L 20.796875 60.796875 
L 30.40625 77 
z
" id="HelveticaNeue-233"/>
      <path id="HelveticaNeue-32"/>
      <path d="M 7.703125 78.59375 
L 7.703125 -21.296875 
L 14.5 -21.296875 
L 14.5 78.59375 
z
" id="HelveticaNeue-124"/>
      <path d="M 58 49.90625 
L 67.5 49.90625 
Q 66.703125 55.59375 64.09375 59.9375 
Q 61.5 64.296875 57.59375 67.1875 
Q 53.703125 70.09375 48.703125 71.59375 
Q 43.703125 73.09375 38.09375 73.09375 
Q 29.90625 73.09375 23.546875 70.140625 
Q 17.203125 67.203125 12.953125 62.09375 
Q 8.703125 57 6.5 50.140625 
Q 4.296875 43.296875 4.296875 35.5 
Q 4.296875 27.703125 6.34375 20.890625 
Q 8.40625 14.09375 12.5 9.09375 
Q 16.59375 4.09375 22.796875 1.25 
Q 29 -1.59375 37.296875 -1.59375 
Q 51 -1.59375 58.890625 5.90625 
Q 66.796875 13.40625 68.203125 26.90625 
L 58.703125 26.90625 
Q 58.40625 22.5 56.90625 18.703125 
Q 55.40625 14.90625 52.75 12.15625 
Q 50.09375 9.40625 46.4375 7.84375 
Q 42.796875 6.296875 38.09375 6.296875 
Q 31.703125 6.296875 27.09375 8.6875 
Q 22.5 11.09375 19.546875 15.140625 
Q 16.59375 19.203125 15.1875 24.640625 
Q 13.796875 30.09375 13.796875 36.203125 
Q 13.796875 41.796875 15.1875 47 
Q 16.59375 52.203125 19.546875 56.25 
Q 22.5 60.296875 27.046875 62.6875 
Q 31.59375 65.09375 38 65.09375 
Q 45.5 65.09375 50.953125 61.296875 
Q 56.40625 57.5 58 49.90625 
z
" id="HelveticaNeue-67"/>
      <path d="M 12.59375 25.796875 
Q 12.59375 30.5 13.84375 34.140625 
Q 15.09375 37.796875 17.296875 40.296875 
Q 19.5 42.796875 22.453125 44.09375 
Q 25.40625 45.40625 28.703125 45.40625 
Q 32 45.40625 34.953125 44.09375 
Q 37.90625 42.796875 40.09375 40.296875 
Q 42.296875 37.796875 43.546875 34.140625 
Q 44.796875 30.5 44.796875 25.796875 
Q 44.796875 21.09375 43.546875 17.4375 
Q 42.296875 13.796875 40.09375 11.34375 
Q 37.90625 8.90625 34.953125 7.59375 
Q 32 6.296875 28.703125 6.296875 
Q 25.40625 6.296875 22.453125 7.59375 
Q 19.5 8.90625 17.296875 11.34375 
Q 15.09375 13.796875 13.84375 17.4375 
Q 12.59375 21.09375 12.59375 25.796875 
z
M 3.59375 25.796875 
Q 3.59375 20.09375 5.1875 15.1875 
Q 6.796875 10.296875 10 6.640625 
Q 13.203125 3 17.890625 0.953125 
Q 22.59375 -1.09375 28.703125 -1.09375 
Q 34.90625 -1.09375 39.546875 0.953125 
Q 44.203125 3 47.390625 6.640625 
Q 50.59375 10.296875 52.1875 15.1875 
Q 53.796875 20.09375 53.796875 25.796875 
Q 53.796875 31.5 52.1875 36.453125 
Q 50.59375 41.40625 47.390625 45.046875 
Q 44.203125 48.703125 39.546875 50.796875 
Q 34.90625 52.90625 28.703125 52.90625 
Q 22.59375 52.90625 17.890625 50.796875 
Q 13.203125 48.703125 10 45.046875 
Q 6.796875 41.40625 5.1875 36.453125 
Q 3.59375 31.5 3.59375 25.796875 
z
" id="HelveticaNeue-111"/>
      <path d="M 29.703125 0 
L 48.59375 51.703125 
L 39.703125 51.703125 
L 25.59375 8.59375 
L 25.40625 8.59375 
L 10.90625 51.703125 
L 1.40625 51.703125 
L 20.59375 0 
z
" id="HelveticaNeue-118"/>
      <path d="M 19.40625 40.59375 
L 19.40625 51.703125 
L 8.296875 51.703125 
L 8.296875 40.59375 
z
M 8.296875 11.09375 
L 8.296875 0 
L 19.40625 0 
L 19.40625 11.09375 
z
" id="HelveticaNeue-58"/>
      <path d="M 5 31.796875 
L 5 23.796875 
L 33.90625 23.796875 
L 33.90625 31.796875 
z
" id="HelveticaNeue-45"/>
      <path d="M 50.90625 62.40625 
L 50.90625 69.703125 
L 5 69.703125 
L 5 61.703125 
L 42.203125 61.703125 
Q 36.59375 55.796875 31.75 48.796875 
Q 26.90625 41.796875 23.203125 33.9375 
Q 19.5 26.09375 17.140625 17.546875 
Q 14.796875 9 14.203125 0 
L 23.703125 0 
Q 24.203125 8.296875 26.5 17.09375 
Q 28.796875 25.90625 32.4375 34.203125 
Q 36.09375 42.5 40.796875 49.796875 
Q 45.5 57.09375 50.90625 62.40625 
z
" id="HelveticaNeue-55"/>
     </defs>
     <use xlink:href="#HelveticaNeue-85"/>
     <use x="72.199982" xlink:href="#HelveticaNeue-115"/>
     <use x="122.199966" xlink:href="#HelveticaNeue-97"/>
     <use x="175.899963" xlink:href="#HelveticaNeue-113"/>
     <use x="235.199951" xlink:href="#HelveticaNeue-117"/>
     <use x="290.799942" xlink:href="#HelveticaNeue-233"/>
     <use x="344.499939" xlink:href="#HelveticaNeue-110"/>
     <use x="400.09993" xlink:href="#HelveticaNeue-32"/>
     <use x="427.899918" xlink:href="#HelveticaNeue-124"/>
     <use x="450.099915" xlink:href="#HelveticaNeue-32"/>
     <use x="477.899902" xlink:href="#HelveticaNeue-67"/>
     <use x="550.099884" xlink:href="#HelveticaNeue-97"/>
     <use x="603.799881" xlink:href="#HelveticaNeue-115"/>
     <use x="653.799866" xlink:href="#HelveticaNeue-111"/>
     <use x="711.19986" xlink:href="#HelveticaNeue-115"/>
     <use x="761.199844" xlink:href="#HelveticaNeue-32"/>
     <use x="788.999832" xlink:href="#HelveticaNeue-110"/>
     <use x="844.599823" xlink:href="#HelveticaNeue-117"/>
     <use x="900.199814" xlink:href="#HelveticaNeue-101"/>
     <use x="953.899811" xlink:href="#HelveticaNeue-118"/>
     <use x="1003.899796" xlink:href="#HelveticaNeue-111"/>
     <use x="1061.299789" xlink:href="#HelveticaNeue-115"/>
     <use x="1111.299774" xlink:href="#HelveticaNeue-58"/>
     <use x="1139.099762" xlink:href="#HelveticaNeue-32"/>
     <use x="1166.89975" xlink:href="#HelveticaNeue-50"/>
     <use x="1222.499741" xlink:href="#HelveticaNeue-48"/>
     <use x="1278.099731" xlink:href="#HelveticaNeue-50"/>
     <use x="1333.699722" xlink:href="#HelveticaNeue-49"/>
     <use x="1389.299713" xlink:href="#HelveticaNeue-45"/>
     <use x="1428.199707" xlink:href="#HelveticaNeue-48"/>
     <use x="1483.799698" xlink:href="#HelveticaNeue-53"/>
     <use x="1539.399689" xlink:href="#HelveticaNeue-45"/>
     <use x="1578.299683" xlink:href="#HelveticaNeue-50"/>
     <use x="1633.899673" xlink:href="#HelveticaNeue-55"/>
    </g>
   </g>
   <g id="legend_1">
    <g id="line2d_26">
     <path d="M 71.5 39.640625 
L 91.5 39.640625 
" style="fill:none;stroke:#000000;stroke-dasharray:1.5,2.475;stroke-dashoffset:0;stroke-opacity:0.5;stroke-width:1.5;"/>
    </g>
    <g id="line2d_27"/>
    <g id="text_15">
     <!-- Actual -->
     <g style="fill:#555555;" transform="translate(99.5 43.140625)scale(0.1 -0.1)">
      <use xlink:href="#HelveticaNeue-65"/>
      <use x="64.799988" xlink:href="#HelveticaNeue-99"/>
      <use x="118.499985" xlink:href="#HelveticaNeue-116"/>
      <use x="149.999969" xlink:href="#HelveticaNeue-117"/>
      <use x="205.59996" xlink:href="#HelveticaNeue-97"/>
      <use x="259.299957" xlink:href="#HelveticaNeue-108"/>
     </g>
    </g>
    <g id="line2d_28">
     <path d="M 71.5 54.310937 
L 91.5 54.310937 
" style="fill:none;stroke:#b3220f;stroke-linecap:square;stroke-width:1.5;"/>
    </g>
    <g id="line2d_29"/>
    <g id="text_16">
     <!-- Promedio semanal (7 das)  -->
     <g style="fill:#555555;" transform="translate(99.5 57.810937)scale(0.1 -0.1)">
      <defs>
       <path d="M 17.296875 37.203125 
L 17.296875 63.40625 
L 35.90625 63.40625 
Q 44 63.40625 47.75 60.046875 
Q 51.5 56.703125 51.5 50.296875 
Q 51.5 43.90625 47.75 40.5 
Q 44 37.09375 35.90625 37.203125 
z
M 7.796875 71.40625 
L 7.796875 0 
L 17.296875 0 
L 17.296875 29.203125 
L 39.09375 29.203125 
Q 49.90625 29.09375 55.453125 34.6875 
Q 61 40.296875 61 50.296875 
Q 61 60.296875 55.453125 65.84375 
Q 49.90625 71.40625 39.09375 71.40625 
z
" id="HelveticaNeue-80"/>
       <path d="M 6.40625 51.703125 
L 6.40625 0 
L 14.90625 0 
L 14.90625 32.203125 
Q 14.90625 33.703125 15.65625 35.953125 
Q 16.40625 38.203125 18.046875 40.296875 
Q 19.703125 42.40625 22.34375 43.90625 
Q 25 45.40625 28.703125 45.40625 
Q 31.59375 45.40625 33.4375 44.546875 
Q 35.296875 43.703125 36.390625 42.140625 
Q 37.5 40.59375 37.953125 38.5 
Q 38.40625 36.40625 38.40625 33.90625 
L 38.40625 0 
L 46.90625 0 
L 46.90625 32.203125 
Q 46.90625 38.203125 50.5 41.796875 
Q 54.09375 45.40625 60.40625 45.40625 
Q 63.5 45.40625 65.453125 44.5 
Q 67.40625 43.59375 68.5 42.046875 
Q 69.59375 40.5 70 38.390625 
Q 70.40625 36.296875 70.40625 33.90625 
L 70.40625 0 
L 78.90625 0 
L 78.90625 37.90625 
Q 78.90625 41.90625 77.65625 44.75 
Q 76.40625 47.59375 74.15625 49.390625 
Q 71.90625 51.203125 68.75 52.046875 
Q 65.59375 52.90625 61.703125 52.90625 
Q 56.59375 52.90625 52.34375 50.59375 
Q 48.09375 48.296875 45.5 44.09375 
Q 43.90625 48.90625 40 50.90625 
Q 36.09375 52.90625 31.296875 52.90625 
Q 20.40625 52.90625 14.59375 44.09375 
L 14.40625 44.09375 
L 14.40625 51.703125 
z
" id="HelveticaNeue-109"/>
       <path d="M 12.59375 25.40625 
Q 12.59375 29.203125 13.390625 32.796875 
Q 14.203125 36.40625 16 39.203125 
Q 17.796875 42 20.796875 43.703125 
Q 23.796875 45.40625 28.09375 45.40625 
Q 32.5 45.40625 35.59375 43.75 
Q 38.703125 42.09375 40.640625 39.390625 
Q 42.59375 36.703125 43.5 33.140625 
Q 44.40625 29.59375 44.40625 25.796875 
Q 44.40625 22.203125 43.546875 18.703125 
Q 42.703125 15.203125 40.796875 12.453125 
Q 38.90625 9.703125 35.90625 8 
Q 32.90625 6.296875 28.59375 6.296875 
Q 24.5 6.296875 21.453125 7.890625 
Q 18.40625 9.5 16.453125 12.203125 
Q 14.5 14.90625 13.546875 18.34375 
Q 12.59375 21.796875 12.59375 25.40625 
z
M 52.59375 0 
L 52.59375 71.40625 
L 44.09375 71.40625 
L 44.09375 44.796875 
L 43.90625 44.796875 
Q 42.5 47.09375 40.453125 48.640625 
Q 38.40625 50.203125 36.09375 51.140625 
Q 33.796875 52.09375 31.5 52.5 
Q 29.203125 52.90625 27.203125 52.90625 
Q 21.296875 52.90625 16.84375 50.75 
Q 12.40625 48.59375 9.453125 44.9375 
Q 6.5 41.296875 5.046875 36.390625 
Q 3.59375 31.5 3.59375 26 
Q 3.59375 20.5 5.09375 15.59375 
Q 6.59375 10.703125 9.546875 7 
Q 12.5 3.296875 16.953125 1.09375 
Q 21.40625 -1.09375 27.40625 -1.09375 
Q 32.796875 -1.09375 37.296875 0.796875 
Q 41.796875 2.703125 43.90625 7 
L 44.09375 7 
L 44.09375 0 
z
" id="HelveticaNeue-100"/>
       <path d="M 15.40625 61 
L 15.40625 71.40625 
L 6.90625 71.40625 
L 6.90625 61 
z
M 6.90625 51.703125 
L 6.90625 0 
L 15.40625 0 
L 15.40625 51.703125 
z
" id="HelveticaNeue-105"/>
       <path d="M 20.40625 -19.703125 
L 26.90625 -19.703125 
Q 19.796875 -8.203125 16.75 3.09375 
Q 13.703125 14.40625 13.703125 27 
Q 13.703125 39.296875 16.703125 50.5 
Q 19.703125 61.703125 26.90625 73.09375 
L 20.40625 73.09375 
Q 12.59375 62.796875 8.640625 50.796875 
Q 4.703125 38.796875 4.703125 27 
Q 4.703125 20.40625 5.796875 14.40625 
Q 6.90625 8.40625 8.953125 2.703125 
Q 11 -3 13.890625 -8.546875 
Q 16.796875 -14.09375 20.40625 -19.703125 
z
" id="HelveticaNeue-40"/>
       <path d="M 6.90625 0 
L 15.40625 0 
L 15.40625 51.703125 
L 6.90625 51.703125 
z
M 25.5 77 
L 11.40625 60.796875 
L 5 60.796875 
L 14.59375 77 
z
" id="HelveticaNeue-237"/>
       <path d="M -0.90625 -19.703125 
L 5.5 -19.703125 
Q 13.296875 -9.40625 17.25 2.546875 
Q 21.203125 14.5 21.203125 26.296875 
Q 21.203125 32.90625 20.09375 38.90625 
Q 19 44.90625 16.953125 50.65625 
Q 14.90625 56.40625 12 61.953125 
Q 9.09375 67.5 5.5 73.09375 
L -0.90625 73.09375 
Q 6.09375 61.59375 9.140625 50.25 
Q 12.203125 38.90625 12.203125 26.296875 
Q 12.203125 14.09375 9.203125 2.84375 
Q 6.203125 -8.40625 -0.90625 -19.703125 
z
" id="HelveticaNeue-41"/>
      </defs>
      <use xlink:href="#HelveticaNeue-80"/>
      <use x="64.799988" xlink:href="#HelveticaNeue-114"/>
      <use x="96.349976" xlink:href="#HelveticaNeue-111"/>
      <use x="153.749969" xlink:href="#HelveticaNeue-109"/>
      <use x="239.049957" xlink:href="#HelveticaNeue-101"/>
      <use x="292.749954" xlink:href="#HelveticaNeue-100"/>
      <use x="352.049942" xlink:href="#HelveticaNeue-105"/>
      <use x="374.249939" xlink:href="#HelveticaNeue-111"/>
      <use x="431.649933" xlink:href="#HelveticaNeue-32"/>
      <use x="459.449921" xlink:href="#HelveticaNeue-115"/>
      <use x="509.449905" xlink:href="#HelveticaNeue-101"/>
      <use x="563.149902" xlink:href="#HelveticaNeue-109"/>
      <use x="648.44989" xlink:href="#HelveticaNeue-97"/>
      <use x="702.149887" xlink:href="#HelveticaNeue-110"/>
      <use x="757.749878" xlink:href="#HelveticaNeue-97"/>
      <use x="811.449875" xlink:href="#HelveticaNeue-108"/>
      <use x="833.649872" xlink:href="#HelveticaNeue-32"/>
      <use x="861.44986" xlink:href="#HelveticaNeue-40"/>
      <use x="887.349854" xlink:href="#HelveticaNeue-55"/>
      <use x="942.949844" xlink:href="#HelveticaNeue-32"/>
      <use x="970.749832" xlink:href="#HelveticaNeue-100"/>
      <use x="1030.04982" xlink:href="#HelveticaNeue-237"/>
      <use x="1052.249817" xlink:href="#HelveticaNeue-97"/>
      <use x="1105.949814" xlink:href="#HelveticaNeue-115"/>
      <use x="1155.949799" xlink:href="#HelveticaNeue-41"/>
      <use x="1181.849792" xlink:href="#HelveticaNeue-32"/>
     </g>
    </g>
   </g>
  </g>
 </g>
 <defs>
  <clipPath id="p59993b8d10">
   <rect height="235.5" width="387.5" x="62.5" y="27"/>
  </clipPath>
 </defs>
</svg>
