<?xml version="1.0" encoding="utf-8" standalone="no"?>
<!DOCTYPE svg PUBLIC "-//W3C//DTD SVG 1.1//EN"
  "http://www.w3.org/Graphics/SVG/1.1/DTD/svg11.dtd">
<!-- Created with matplotlib (https://matplotlib.org/) -->
<svg height="300pt" version="1.1" viewBox="0 0 500 300" width="500pt" xmlns="http://www.w3.org/2000/svg" xmlns:xlink="http://www.w3.org/1999/xlink">
 <metadata>
  <rdf:RDF xmlns:cc="http://creativecommons.org/ns#" xmlns:dc="http://purl.org/dc/elements/1.1/" xmlns:rdf="http://www.w3.org/1999/02/22-rdf-syntax-ns#">
   <cc:Work>
    <dc:type rdf:resource="http://purl.org/dc/dcmitype/StillImage"/>
    <dc:date>2021-06-05T20:48:18.804982</dc:date>
    <dc:format>image/svg+xml</dc:format>
    <dc:creator>
     <cc:Agent>
      <dc:title>Matplotlib v3.3.4, https://matplotlib.org/</dc:title>
     </cc:Agent>
    </dc:creator>
   </cc:Work>
  </rdf:RDF>
 </metadata>
 <defs>
  <style type="text/css">*{stroke-linecap:butt;stroke-linejoin:round;}</style>
 </defs>
 <g id="figure_1">
  <g id="patch_1">
   <path d="M 0 300 
L 500 300 
L 500 0 
L 0 0 
z
" style="fill:#ffffff;"/>
  </g>
  <g id="axes_1">
   <g id="patch_2">
    <path d="M 62.5 262.5 
L 450 262.5 
L 450 27 
L 62.5 27 
z
" style="fill:#ffffff;"/>
   </g>
   <g id="matplotlib.axis_1">
    <g id="xtick_1">
     <g id="line2d_1">
      <defs>
       <path d="M 0 0 
L 0 3.5 
" id="mb2b8e8056e" style="stroke:#555555;stroke-width:0.8;"/>
      </defs>
      <g>
       <use style="fill:#555555;stroke:#555555;stroke-width:0.8;" x="62.5" xlink:href="#mb2b8e8056e" y="262.5"/>
      </g>
     </g>
    </g>
    <g id="xtick_2">
     <g id="line2d_2">
      <g>
       <use style="fill:#555555;stroke:#555555;stroke-width:0.8;" x="83.141646" xlink:href="#mb2b8e8056e" y="262.5"/>
      </g>
     </g>
     <g id="text_1">
      <!-- May -->
      <g style="fill:#555555;" transform="translate(73.601803 276.640625)scale(0.1 -0.1)">
       <defs>
        <path d="M 8 71.40625 
L 8 0 
L 17 0 
L 17 59.40625 
L 17.203125 59.40625 
L 39.5 0 
L 47.59375 0 
L 69.90625 59.40625 
L 70.09375 59.40625 
L 70.09375 0 
L 79.09375 0 
L 79.09375 71.40625 
L 66.09375 71.40625 
L 43.5 11.40625 
L 21 71.40625 
z
" id="HelveticaNeue-77"/>
        <path d="M 52.203125 0.203125 
Q 50 -1.09375 46.09375 -1.09375 
Q 42.796875 -1.09375 40.84375 0.75 
Q 38.90625 2.59375 38.90625 6.796875 
Q 35.40625 2.59375 30.75 0.75 
Q 26.09375 -1.09375 20.703125 -1.09375 
Q 17.203125 -1.09375 14.046875 -0.296875 
Q 10.90625 0.5 8.59375 2.203125 
Q 6.296875 3.90625 4.9375 6.65625 
Q 3.59375 9.40625 3.59375 13.296875 
Q 3.59375 17.703125 5.09375 20.5 
Q 6.59375 23.296875 9.046875 25.046875 
Q 11.5 26.796875 14.640625 27.6875 
Q 17.796875 28.59375 21.09375 29.203125 
Q 24.59375 29.90625 27.75 30.25 
Q 30.90625 30.59375 33.296875 31.25 
Q 35.703125 31.90625 37.09375 33.15625 
Q 38.5 34.40625 38.5 36.796875 
Q 38.5 39.59375 37.453125 41.296875 
Q 36.40625 43 34.75 43.890625 
Q 33.09375 44.796875 31.046875 45.09375 
Q 29 45.40625 27 45.40625 
Q 21.59375 45.40625 18 43.34375 
Q 14.40625 41.296875 14.09375 35.59375 
L 5.59375 35.59375 
Q 5.796875 40.40625 7.59375 43.703125 
Q 9.40625 47 12.40625 49.046875 
Q 15.40625 51.09375 19.25 52 
Q 23.09375 52.90625 27.5 52.90625 
Q 31 52.90625 34.453125 52.40625 
Q 37.90625 51.90625 40.703125 50.34375 
Q 43.5 48.796875 45.203125 46 
Q 46.90625 43.203125 46.90625 38.703125 
L 46.90625 12.09375 
Q 46.90625 9.09375 47.25 7.6875 
Q 47.59375 6.296875 49.59375 6.296875 
Q 50.703125 6.296875 52.203125 6.796875 
z
M 38.40625 26.703125 
Q 36.796875 25.5 34.1875 24.953125 
Q 31.59375 24.40625 28.75 24.046875 
Q 25.90625 23.703125 23 23.25 
Q 20.09375 22.796875 17.796875 21.796875 
Q 15.5 20.796875 14.046875 18.9375 
Q 12.59375 17.09375 12.59375 13.90625 
Q 12.59375 11.796875 13.4375 10.34375 
Q 14.296875 8.90625 15.640625 8 
Q 17 7.09375 18.796875 6.6875 
Q 20.59375 6.296875 22.59375 6.296875 
Q 26.796875 6.296875 29.796875 7.4375 
Q 32.796875 8.59375 34.6875 10.34375 
Q 36.59375 12.09375 37.5 14.140625 
Q 38.40625 16.203125 38.40625 18 
z
" id="HelveticaNeue-97"/>
        <path d="M 26.703125 -6.90625 
Q 25.203125 -10.703125 23.75 -13.296875 
Q 22.296875 -15.90625 20.546875 -17.546875 
Q 18.796875 -19.203125 16.640625 -19.953125 
Q 14.5 -20.703125 11.703125 -20.703125 
Q 10.203125 -20.703125 8.703125 -20.5 
Q 7.203125 -20.296875 5.796875 -19.796875 
L 5.796875 -12 
Q 6.90625 -12.5 8.34375 -12.84375 
Q 9.796875 -13.203125 10.796875 -13.203125 
Q 13.40625 -13.203125 15.15625 -11.953125 
Q 16.90625 -10.703125 17.796875 -8.40625 
L 21.296875 0.296875 
L 0.796875 51.703125 
L 10.40625 51.703125 
L 25.5 9.40625 
L 25.703125 9.40625 
L 40.203125 51.703125 
L 49.203125 51.703125 
z
" id="HelveticaNeue-121"/>
       </defs>
       <use xlink:href="#HelveticaNeue-77"/>
       <use x="87.099991" xlink:href="#HelveticaNeue-97"/>
       <use x="140.799988" xlink:href="#HelveticaNeue-121"/>
      </g>
     </g>
    </g>
    <g id="xtick_3">
     <g id="line2d_3">
      <g>
       <use style="fill:#555555;stroke:#555555;stroke-width:0.8;" x="112.227603" xlink:href="#mb2b8e8056e" y="262.5"/>
      </g>
     </g>
     <g id="text_2">
      <!-- Jun -->
      <g style="fill:#555555;" transform="translate(104.072915 276.640625)scale(0.1 -0.1)">
       <defs>
        <path d="M 44.09375 17.796875 
L 44.09375 71.40625 
L 34.59375 71.40625 
L 34.59375 19.203125 
Q 34.59375 13.296875 32.140625 9.796875 
Q 29.703125 6.296875 23.203125 6.296875 
Q 19.703125 6.296875 17.453125 7.34375 
Q 15.203125 8.40625 13.953125 10.296875 
Q 12.703125 12.203125 12.203125 14.796875 
Q 11.703125 17.40625 11.703125 20.5 
L 11.703125 23.5 
L 2.203125 23.5 
L 2.203125 19.09375 
Q 2.203125 8.90625 7.59375 3.65625 
Q 13 -1.59375 23 -1.59375 
Q 29 -1.59375 33.046875 0.046875 
Q 37.09375 1.703125 39.546875 4.453125 
Q 42 7.203125 43.046875 10.703125 
Q 44.09375 14.203125 44.09375 17.796875 
z
" id="HelveticaNeue-74"/>
        <path d="M 49.203125 0 
L 49.203125 51.703125 
L 40.703125 51.703125 
L 40.703125 22.5 
Q 40.703125 19 39.75 16.046875 
Q 38.796875 13.09375 36.890625 10.890625 
Q 35 8.703125 32.140625 7.5 
Q 29.296875 6.296875 25.40625 6.296875 
Q 20.5 6.296875 17.703125 9.09375 
Q 14.90625 11.90625 14.90625 16.703125 
L 14.90625 51.703125 
L 6.40625 51.703125 
L 6.40625 17.703125 
Q 6.40625 13.5 7.25 10.046875 
Q 8.09375 6.59375 10.1875 4.09375 
Q 12.296875 1.59375 15.6875 0.25 
Q 19.09375 -1.09375 24.203125 -1.09375 
Q 29.90625 -1.09375 34.09375 1.15625 
Q 38.296875 3.40625 41 8.203125 
L 41.203125 8.203125 
L 41.203125 0 
z
" id="HelveticaNeue-117"/>
        <path d="M 6.40625 51.703125 
L 6.40625 0 
L 14.90625 0 
L 14.90625 29.203125 
Q 14.90625 32.703125 15.84375 35.640625 
Q 16.796875 38.59375 18.6875 40.796875 
Q 20.59375 43 23.4375 44.203125 
Q 26.296875 45.40625 30.203125 45.40625 
Q 35.09375 45.40625 37.890625 42.59375 
Q 40.703125 39.796875 40.703125 35 
L 40.703125 0 
L 49.203125 0 
L 49.203125 34 
Q 49.203125 38.203125 48.34375 41.640625 
Q 47.5 45.09375 45.390625 47.59375 
Q 43.296875 50.09375 39.890625 51.5 
Q 36.5 52.90625 31.40625 52.90625 
Q 19.90625 52.90625 14.59375 43.5 
L 14.40625 43.5 
L 14.40625 51.703125 
z
" id="HelveticaNeue-110"/>
       </defs>
       <use xlink:href="#HelveticaNeue-74"/>
       <use x="51.899994" xlink:href="#HelveticaNeue-117"/>
       <use x="107.499985" xlink:href="#HelveticaNeue-110"/>
      </g>
     </g>
    </g>
    <g id="xtick_4">
     <g id="line2d_4">
      <g>
       <use style="fill:#555555;stroke:#555555;stroke-width:0.8;" x="140.375303" xlink:href="#mb2b8e8056e" y="262.5"/>
      </g>
     </g>
     <g id="text_3">
      <!-- Jul -->
      <g style="fill:#555555;" transform="translate(133.890146 276.640625)scale(0.1 -0.1)">
       <defs>
        <path d="M 6.90625 71.40625 
L 6.90625 0 
L 15.40625 0 
L 15.40625 71.40625 
z
" id="HelveticaNeue-108"/>
       </defs>
       <use xlink:href="#HelveticaNeue-74"/>
       <use x="51.899994" xlink:href="#HelveticaNeue-117"/>
       <use x="107.499985" xlink:href="#HelveticaNeue-108"/>
      </g>
     </g>
    </g>
    <g id="xtick_5">
     <g id="line2d_5">
      <g>
       <use style="fill:#555555;stroke:#555555;stroke-width:0.8;" x="169.461259" xlink:href="#mb2b8e8056e" y="262.5"/>
      </g>
     </g>
     <g id="text_4">
      <!-- Aug -->
      <g style="fill:#555555;" transform="translate(160.571415 276.640625)scale(0.1 -0.1)">
       <defs>
        <path d="M 20.09375 29.5 
L 32.203125 62.796875 
L 32.40625 62.796875 
L 44.296875 29.5 
z
M 27.203125 71.40625 
L -0.59375 0 
L 9.09375 0 
L 17.09375 21.5 
L 47.296875 21.5 
L 55.09375 0 
L 65.59375 0 
L 37.703125 71.40625 
z
" id="HelveticaNeue-65"/>
        <path d="M 51 4.40625 
L 51 51.703125 
L 43 51.703125 
L 43 44.296875 
L 42.90625 44.296875 
Q 40.59375 48.59375 36.5 50.75 
Q 32.40625 52.90625 27.5 52.90625 
Q 20.796875 52.90625 16.1875 50.34375 
Q 11.59375 47.796875 8.796875 43.84375 
Q 6 39.90625 4.796875 35.046875 
Q 3.59375 30.203125 3.59375 25.59375 
Q 3.59375 20.296875 5.046875 15.546875 
Q 6.5 10.796875 9.390625 7.25 
Q 12.296875 3.703125 16.59375 1.59375 
Q 20.90625 -0.5 26.703125 -0.5 
Q 31.703125 -0.5 36.140625 1.75 
Q 40.59375 4 42.796875 8.796875 
L 43 8.796875 
L 43 5.40625 
Q 43 1.09375 42.140625 -2.5 
Q 41.296875 -6.09375 39.390625 -8.640625 
Q 37.5 -11.203125 34.59375 -12.640625 
Q 31.703125 -14.09375 27.5 -14.09375 
Q 25.40625 -14.09375 23.09375 -13.640625 
Q 20.796875 -13.203125 18.84375 -12.203125 
Q 16.90625 -11.203125 15.546875 -9.59375 
Q 14.203125 -8 14.09375 -5.703125 
L 5.59375 -5.703125 
Q 5.796875 -9.90625 7.796875 -12.796875 
Q 9.796875 -15.703125 12.84375 -17.5 
Q 15.90625 -19.296875 19.65625 -20.09375 
Q 23.40625 -20.90625 27 -20.90625 
Q 39.40625 -20.90625 45.203125 -14.59375 
Q 51 -8.296875 51 4.40625 
z
M 27.203125 6.90625 
Q 23 6.90625 20.203125 8.65625 
Q 17.40625 10.40625 15.703125 13.25 
Q 14 16.09375 13.296875 19.59375 
Q 12.59375 23.09375 12.59375 26.59375 
Q 12.59375 30.296875 13.4375 33.6875 
Q 14.296875 37.09375 16.140625 39.6875 
Q 18 42.296875 20.890625 43.84375 
Q 23.796875 45.40625 27.90625 45.40625 
Q 31.90625 45.40625 34.703125 43.796875 
Q 37.5 42.203125 39.25 39.546875 
Q 41 36.90625 41.796875 33.59375 
Q 42.59375 30.296875 42.59375 26.90625 
Q 42.59375 23.296875 41.75 19.6875 
Q 40.90625 16.09375 39.09375 13.25 
Q 37.296875 10.40625 34.34375 8.65625 
Q 31.40625 6.90625 27.203125 6.90625 
z
" id="HelveticaNeue-103"/>
       </defs>
       <use xlink:href="#HelveticaNeue-65"/>
       <use x="64.799988" xlink:href="#HelveticaNeue-117"/>
       <use x="120.399979" xlink:href="#HelveticaNeue-103"/>
      </g>
     </g>
    </g>
    <g id="xtick_6">
     <g id="line2d_6">
      <g>
       <use style="fill:#555555;stroke:#555555;stroke-width:0.8;" x="198.547215" xlink:href="#mb2b8e8056e" y="262.5"/>
      </g>
     </g>
     <g id="text_5">
      <!-- Sep -->
      <g style="fill:#555555;" transform="translate(189.657372 276.809375)scale(0.1 -0.1)">
       <defs>
        <path d="M 49.09375 50.5 
L 58.09375 50.5 
Q 57.90625 56.40625 55.84375 60.65625 
Q 53.796875 64.90625 50.25 67.703125 
Q 46.703125 70.5 42 71.796875 
Q 37.296875 73.09375 31.796875 73.09375 
Q 26.90625 73.09375 22.25 71.84375 
Q 17.59375 70.59375 13.9375 68.046875 
Q 10.296875 65.5 8.09375 61.546875 
Q 5.90625 57.59375 5.90625 52.203125 
Q 5.90625 47.296875 7.84375 44.046875 
Q 9.796875 40.796875 13.046875 38.75 
Q 16.296875 36.703125 20.390625 35.453125 
Q 24.5 34.203125 28.75 33.25 
Q 33 32.296875 37.09375 31.390625 
Q 41.203125 30.5 44.453125 29.046875 
Q 47.703125 27.59375 49.640625 25.296875 
Q 51.59375 23 51.59375 19.296875 
Q 51.59375 15.40625 50 12.90625 
Q 48.40625 10.40625 45.796875 8.953125 
Q 43.203125 7.5 39.953125 6.890625 
Q 36.703125 6.296875 33.5 6.296875 
Q 29.5 6.296875 25.703125 7.296875 
Q 21.90625 8.296875 19.046875 10.390625 
Q 16.203125 12.5 14.453125 15.75 
Q 12.703125 19 12.703125 23.5 
L 3.703125 23.5 
Q 3.703125 17 6.046875 12.25 
Q 8.40625 7.5 12.453125 4.453125 
Q 16.5 1.40625 21.84375 -0.09375 
Q 27.203125 -1.59375 33.203125 -1.59375 
Q 38.09375 -1.59375 43.046875 -0.4375 
Q 48 0.703125 52 3.25 
Q 56 5.796875 58.546875 9.84375 
Q 61.09375 13.90625 61.09375 19.59375 
Q 61.09375 24.90625 59.140625 28.40625 
Q 57.203125 31.90625 53.953125 34.203125 
Q 50.703125 36.5 46.59375 37.84375 
Q 42.5 39.203125 38.25 40.203125 
Q 34 41.203125 29.890625 42.046875 
Q 25.796875 42.90625 22.546875 44.203125 
Q 19.296875 45.5 17.34375 47.546875 
Q 15.40625 49.59375 15.40625 52.90625 
Q 15.40625 56.40625 16.75 58.75 
Q 18.09375 61.09375 20.34375 62.5 
Q 22.59375 63.90625 25.5 64.5 
Q 28.40625 65.09375 31.40625 65.09375 
Q 38.796875 65.09375 43.546875 61.640625 
Q 48.296875 58.203125 49.09375 50.5 
z
" id="HelveticaNeue-83"/>
        <path d="M 42.296875 30.796875 
L 12.59375 30.796875 
Q 12.796875 33.796875 13.890625 36.4375 
Q 15 39.09375 16.890625 41.09375 
Q 18.796875 43.09375 21.4375 44.25 
Q 24.09375 45.40625 27.40625 45.40625 
Q 30.59375 45.40625 33.25 44.25 
Q 35.90625 43.09375 37.84375 41.140625 
Q 39.796875 39.203125 40.9375 36.5 
Q 42.09375 33.796875 42.296875 30.796875 
z
M 50.5 16.40625 
L 42.09375 16.40625 
Q 41 11.296875 37.546875 8.796875 
Q 34.09375 6.296875 28.703125 6.296875 
Q 24.5 6.296875 21.390625 7.6875 
Q 18.296875 9.09375 16.296875 11.4375 
Q 14.296875 13.796875 13.390625 16.84375 
Q 12.5 19.90625 12.59375 23.296875 
L 51.296875 23.296875 
Q 51.5 28 50.453125 33.203125 
Q 49.40625 38.40625 46.65625 42.796875 
Q 43.90625 47.203125 39.34375 50.046875 
Q 34.796875 52.90625 27.90625 52.90625 
Q 22.59375 52.90625 18.140625 50.90625 
Q 13.703125 48.90625 10.453125 45.296875 
Q 7.203125 41.703125 5.390625 36.796875 
Q 3.59375 31.90625 3.59375 26 
Q 3.796875 20.09375 5.34375 15.09375 
Q 6.90625 10.09375 10 6.5 
Q 13.09375 2.90625 17.640625 0.90625 
Q 22.203125 -1.09375 28.40625 -1.09375 
Q 37.203125 -1.09375 43 3.296875 
Q 48.796875 7.703125 50.5 16.40625 
z
" id="HelveticaNeue-101"/>
        <path d="M 6.703125 51.703125 
L 6.703125 -19.703125 
L 15.203125 -19.703125 
L 15.203125 6.90625 
L 15.40625 6.90625 
Q 16.796875 4.59375 18.84375 3.046875 
Q 20.90625 1.5 23.203125 0.59375 
Q 25.5 -0.296875 27.84375 -0.6875 
Q 30.203125 -1.09375 32.09375 -1.09375 
Q 38 -1.09375 42.453125 1 
Q 46.90625 3.09375 49.84375 6.75 
Q 52.796875 10.40625 54.25 15.296875 
Q 55.703125 20.203125 55.703125 25.703125 
Q 55.703125 31.203125 54.203125 36.09375 
Q 52.703125 41 49.75 44.75 
Q 46.796875 48.5 42.34375 50.703125 
Q 37.90625 52.90625 31.90625 52.90625 
Q 26.5 52.90625 22 50.953125 
Q 17.5 49 15.40625 44.703125 
L 15.203125 44.703125 
L 15.203125 51.703125 
z
M 46.703125 26.296875 
Q 46.703125 22.5 45.890625 18.890625 
Q 45.09375 15.296875 43.296875 12.5 
Q 41.5 9.703125 38.546875 8 
Q 35.59375 6.296875 31.203125 6.296875 
Q 26.796875 6.296875 23.6875 7.9375 
Q 20.59375 9.59375 18.640625 12.296875 
Q 16.703125 15 15.796875 18.546875 
Q 14.90625 22.09375 14.90625 25.90625 
Q 14.90625 29.5 15.75 33 
Q 16.59375 36.5 18.5 39.25 
Q 20.40625 42 23.40625 43.703125 
Q 26.40625 45.40625 30.703125 45.40625 
Q 34.796875 45.40625 37.84375 43.796875 
Q 40.90625 42.203125 42.84375 39.5 
Q 44.796875 36.796875 45.75 33.34375 
Q 46.703125 29.90625 46.703125 26.296875 
z
" id="HelveticaNeue-112"/>
       </defs>
       <use xlink:href="#HelveticaNeue-83"/>
       <use x="64.799988" xlink:href="#HelveticaNeue-101"/>
       <use x="118.499985" xlink:href="#HelveticaNeue-112"/>
      </g>
     </g>
    </g>
    <g id="xtick_7">
     <g id="line2d_7">
      <g>
       <use style="fill:#555555;stroke:#555555;stroke-width:0.8;" x="226.694915" xlink:href="#mb2b8e8056e" y="262.5"/>
      </g>
     </g>
     <g id="text_6">
      <!-- Oct -->
      <g style="fill:#555555;" transform="translate(218.634759 276.640625)scale(0.1 -0.1)">
       <defs>
        <path d="M 13.296875 35.703125 
Q 13.296875 41.09375 14.6875 46.34375 
Q 16.09375 51.59375 19.09375 55.796875 
Q 22.09375 60 26.796875 62.546875 
Q 31.5 65.09375 38 65.09375 
Q 44.5 65.09375 49.203125 62.546875 
Q 53.90625 60 56.90625 55.796875 
Q 59.90625 51.59375 61.296875 46.34375 
Q 62.703125 41.09375 62.703125 35.703125 
Q 62.703125 30.296875 61.296875 25.046875 
Q 59.90625 19.796875 56.90625 15.59375 
Q 53.90625 11.40625 49.203125 8.84375 
Q 44.5 6.296875 38 6.296875 
Q 31.5 6.296875 26.796875 8.84375 
Q 22.09375 11.40625 19.09375 15.59375 
Q 16.09375 19.796875 14.6875 25.046875 
Q 13.296875 30.296875 13.296875 35.703125 
z
M 3.796875 35.703125 
Q 3.796875 28.40625 5.9375 21.65625 
Q 8.09375 14.90625 12.390625 9.703125 
Q 16.703125 4.5 23.09375 1.453125 
Q 29.5 -1.59375 38 -1.59375 
Q 46.5 -1.59375 52.890625 1.453125 
Q 59.296875 4.5 63.59375 9.703125 
Q 67.90625 14.90625 70.046875 21.65625 
Q 72.203125 28.40625 72.203125 35.703125 
Q 72.203125 43 70.046875 49.75 
Q 67.90625 56.5 63.59375 61.703125 
Q 59.296875 66.90625 52.890625 70 
Q 46.5 73.09375 38 73.09375 
Q 29.5 73.09375 23.09375 70 
Q 16.703125 66.90625 12.390625 61.703125 
Q 8.09375 56.5 5.9375 49.75 
Q 3.796875 43 3.796875 35.703125 
z
" id="HelveticaNeue-79"/>
        <path d="M 41.5 35.09375 
L 50.296875 35.09375 
Q 49.796875 39.703125 47.890625 43.046875 
Q 46 46.40625 43.046875 48.59375 
Q 40.09375 50.796875 36.25 51.84375 
Q 32.40625 52.90625 28 52.90625 
Q 21.90625 52.90625 17.296875 50.75 
Q 12.703125 48.59375 9.640625 44.84375 
Q 6.59375 41.09375 5.09375 36.046875 
Q 3.59375 31 3.59375 25.203125 
Q 3.59375 19.40625 5.140625 14.546875 
Q 6.703125 9.703125 9.75 6.203125 
Q 12.796875 2.703125 17.34375 0.796875 
Q 21.90625 -1.09375 27.796875 -1.09375 
Q 37.703125 -1.09375 43.453125 4.09375 
Q 49.203125 9.296875 50.59375 18.90625 
L 41.90625 18.90625 
Q 41.09375 12.90625 37.546875 9.59375 
Q 34 6.296875 27.703125 6.296875 
Q 23.703125 6.296875 20.796875 7.890625 
Q 17.90625 9.5 16.09375 12.140625 
Q 14.296875 14.796875 13.4375 18.1875 
Q 12.59375 21.59375 12.59375 25.203125 
Q 12.59375 29.09375 13.390625 32.75 
Q 14.203125 36.40625 16.046875 39.203125 
Q 17.90625 42 21 43.703125 
Q 24.09375 45.40625 28.703125 45.40625 
Q 34.09375 45.40625 37.296875 42.703125 
Q 40.5 40 41.5 35.09375 
z
" id="HelveticaNeue-99"/>
        <path d="M 18.203125 51.703125 
L 18.203125 67.203125 
L 9.703125 67.203125 
L 9.703125 51.703125 
L 0.90625 51.703125 
L 0.90625 44.203125 
L 9.703125 44.203125 
L 9.703125 11.296875 
Q 9.703125 7.703125 10.390625 5.5 
Q 11.09375 3.296875 12.546875 2.09375 
Q 14 0.90625 16.34375 0.453125 
Q 18.703125 0 22 0 
L 28.5 0 
L 28.5 7.5 
L 24.59375 7.5 
Q 22.59375 7.5 21.34375 7.640625 
Q 20.09375 7.796875 19.390625 8.296875 
Q 18.703125 8.796875 18.453125 9.6875 
Q 18.203125 10.59375 18.203125 12.09375 
L 18.203125 44.203125 
L 28.5 44.203125 
L 28.5 51.703125 
z
" id="HelveticaNeue-116"/>
       </defs>
       <use xlink:href="#HelveticaNeue-79"/>
       <use x="75.999985" xlink:href="#HelveticaNeue-99"/>
       <use x="129.699982" xlink:href="#HelveticaNeue-116"/>
      </g>
     </g>
    </g>
    <g id="xtick_8">
     <g id="line2d_8">
      <g>
       <use style="fill:#555555;stroke:#555555;stroke-width:0.8;" x="255.780872" xlink:href="#mb2b8e8056e" y="262.5"/>
      </g>
     </g>
     <g id="text_7">
      <!-- Nov -->
      <g style="fill:#555555;" transform="translate(246.800403 276.640625)scale(0.1 -0.1)">
       <defs>
        <path d="M 7.703125 71.40625 
L 7.703125 0 
L 16.703125 0 
L 16.703125 57.296875 
L 16.90625 57.296875 
L 54.203125 0 
L 64.59375 0 
L 64.59375 71.40625 
L 55.59375 71.40625 
L 55.59375 13.5 
L 55.40625 13.5 
L 17.796875 71.40625 
z
" id="HelveticaNeue-78"/>
        <path d="M 12.59375 25.796875 
Q 12.59375 30.5 13.84375 34.140625 
Q 15.09375 37.796875 17.296875 40.296875 
Q 19.5 42.796875 22.453125 44.09375 
Q 25.40625 45.40625 28.703125 45.40625 
Q 32 45.40625 34.953125 44.09375 
Q 37.90625 42.796875 40.09375 40.296875 
Q 42.296875 37.796875 43.546875 34.140625 
Q 44.796875 30.5 44.796875 25.796875 
Q 44.796875 21.09375 43.546875 17.4375 
Q 42.296875 13.796875 40.09375 11.34375 
Q 37.90625 8.90625 34.953125 7.59375 
Q 32 6.296875 28.703125 6.296875 
Q 25.40625 6.296875 22.453125 7.59375 
Q 19.5 8.90625 17.296875 11.34375 
Q 15.09375 13.796875 13.84375 17.4375 
Q 12.59375 21.09375 12.59375 25.796875 
z
M 3.59375 25.796875 
Q 3.59375 20.09375 5.1875 15.1875 
Q 6.796875 10.296875 10 6.640625 
Q 13.203125 3 17.890625 0.953125 
Q 22.59375 -1.09375 28.703125 -1.09375 
Q 34.90625 -1.09375 39.546875 0.953125 
Q 44.203125 3 47.390625 6.640625 
Q 50.59375 10.296875 52.1875 15.1875 
Q 53.796875 20.09375 53.796875 25.796875 
Q 53.796875 31.5 52.1875 36.453125 
Q 50.59375 41.40625 47.390625 45.046875 
Q 44.203125 48.703125 39.546875 50.796875 
Q 34.90625 52.90625 28.703125 52.90625 
Q 22.59375 52.90625 17.890625 50.796875 
Q 13.203125 48.703125 10 45.046875 
Q 6.796875 41.40625 5.1875 36.453125 
Q 3.59375 31.5 3.59375 25.796875 
z
" id="HelveticaNeue-111"/>
        <path d="M 29.703125 0 
L 48.59375 51.703125 
L 39.703125 51.703125 
L 25.59375 8.59375 
L 25.40625 8.59375 
L 10.90625 51.703125 
L 1.40625 51.703125 
L 20.59375 0 
z
" id="HelveticaNeue-118"/>
       </defs>
       <use xlink:href="#HelveticaNeue-78"/>
       <use x="72.199982" xlink:href="#HelveticaNeue-111"/>
       <use x="129.599976" xlink:href="#HelveticaNeue-118"/>
      </g>
     </g>
    </g>
    <g id="xtick_9">
     <g id="line2d_9">
      <g>
       <use style="fill:#555555;stroke:#555555;stroke-width:0.8;" x="283.928571" xlink:href="#mb2b8e8056e" y="262.5"/>
      </g>
     </g>
     <g id="text_8">
      <!-- Dec -->
      <g style="fill:#555555;" transform="translate(275.037946 276.640625)scale(0.1 -0.1)">
       <defs>
        <path d="M 17.296875 8 
L 17.296875 63.40625 
L 33.296875 63.40625 
Q 39.90625 63.40625 44.40625 61.546875 
Q 48.90625 59.703125 51.75 56.140625 
Q 54.59375 52.59375 55.84375 47.546875 
Q 57.09375 42.5 57.09375 36.09375 
Q 57.09375 29.5 55.75 24.84375 
Q 54.40625 20.203125 52.296875 17.09375 
Q 50.203125 14 47.546875 12.203125 
Q 44.90625 10.40625 42.203125 9.453125 
Q 39.5 8.5 37.09375 8.25 
Q 34.703125 8 33.09375 8 
z
M 7.796875 71.40625 
L 7.796875 0 
L 32.296875 0 
Q 41.203125 0 47.703125 2.5 
Q 54.203125 5 58.390625 9.75 
Q 62.59375 14.5 64.59375 21.453125 
Q 66.59375 28.40625 66.59375 37.40625 
Q 66.59375 54.59375 57.6875 63 
Q 48.796875 71.40625 32.296875 71.40625 
z
" id="HelveticaNeue-68"/>
       </defs>
       <use xlink:href="#HelveticaNeue-68"/>
       <use x="70.399994" xlink:href="#HelveticaNeue-101"/>
       <use x="124.099991" xlink:href="#HelveticaNeue-99"/>
      </g>
     </g>
    </g>
    <g id="xtick_10">
     <g id="line2d_10">
      <g>
       <use style="fill:#555555;stroke:#555555;stroke-width:0.8;" x="313.014528" xlink:href="#mb2b8e8056e" y="262.5"/>
      </g>
     </g>
     <g id="text_9">
      <!-- Jan -->
      <g style="fill:#555555;" transform="translate(304.954372 276.640625)scale(0.1 -0.1)">
       <use xlink:href="#HelveticaNeue-74"/>
       <use x="51.899994" xlink:href="#HelveticaNeue-97"/>
       <use x="105.599991" xlink:href="#HelveticaNeue-110"/>
      </g>
      <!-- 2021 -->
      <g style="fill:#555555;" transform="translate(301.895778 287.179688)scale(0.1 -0.1)">
       <defs>
        <path d="M 4.40625 45.796875 
L 12.90625 45.796875 
Q 12.796875 49 13.546875 52.140625 
Q 14.296875 55.296875 16 57.796875 
Q 17.703125 60.296875 20.34375 61.84375 
Q 23 63.40625 26.703125 63.40625 
Q 29.5 63.40625 32 62.5 
Q 34.5 61.59375 36.34375 59.890625 
Q 38.203125 58.203125 39.296875 55.84375 
Q 40.40625 53.5 40.40625 50.59375 
Q 40.40625 46.90625 39.25 44.09375 
Q 38.09375 41.296875 35.84375 38.890625 
Q 33.59375 36.5 30.1875 34.140625 
Q 26.796875 31.796875 22.296875 29 
Q 18.59375 26.796875 15.1875 24.296875 
Q 11.796875 21.796875 9.09375 18.5 
Q 6.40625 15.203125 4.65625 10.75 
Q 2.90625 6.296875 2.40625 0 
L 48.703125 0 
L 48.703125 7.5 
L 12.296875 7.5 
Q 12.90625 10.796875 14.84375 13.34375 
Q 16.796875 15.90625 19.546875 18.09375 
Q 22.296875 20.296875 25.59375 22.25 
Q 28.90625 24.203125 32.203125 26.203125 
Q 35.5 28.296875 38.59375 30.59375 
Q 41.703125 32.90625 44.09375 35.75 
Q 46.5 38.59375 47.953125 42.1875 
Q 49.40625 45.796875 49.40625 50.5 
Q 49.40625 55.5 47.65625 59.296875 
Q 45.90625 63.09375 42.90625 65.640625 
Q 39.90625 68.203125 35.84375 69.546875 
Q 31.796875 70.90625 27.203125 70.90625 
Q 21.59375 70.90625 17.1875 69 
Q 12.796875 67.09375 9.84375 63.75 
Q 6.90625 60.40625 5.5 55.796875 
Q 4.09375 51.203125 4.40625 45.796875 
z
" id="HelveticaNeue-50"/>
        <path d="M 13.203125 34.90625 
Q 13.203125 37.5 13.25 40.640625 
Q 13.296875 43.796875 13.75 46.9375 
Q 14.203125 50.09375 15.046875 53.09375 
Q 15.90625 56.09375 17.546875 58.34375 
Q 19.203125 60.59375 21.703125 62 
Q 24.203125 63.40625 27.796875 63.40625 
Q 31.40625 63.40625 33.90625 62 
Q 36.40625 60.59375 38.046875 58.34375 
Q 39.703125 56.09375 40.546875 53.09375 
Q 41.40625 50.09375 41.84375 46.9375 
Q 42.296875 43.796875 42.34375 40.640625 
Q 42.40625 37.5 42.40625 34.90625 
Q 42.40625 30.90625 42.15625 25.953125 
Q 41.90625 21 40.546875 16.640625 
Q 39.203125 12.296875 36.203125 9.296875 
Q 33.203125 6.296875 27.796875 6.296875 
Q 22.40625 6.296875 19.40625 9.296875 
Q 16.40625 12.296875 15.046875 16.640625 
Q 13.703125 21 13.453125 25.953125 
Q 13.203125 30.90625 13.203125 34.90625 
z
M 4.203125 34.796875 
Q 4.203125 30.90625 4.390625 26.703125 
Q 4.59375 22.5 5.390625 18.5 
Q 6.203125 14.5 7.703125 10.953125 
Q 9.203125 7.40625 11.796875 4.703125 
Q 14.40625 2 18.34375 0.453125 
Q 22.296875 -1.09375 27.796875 -1.09375 
Q 33.40625 -1.09375 37.296875 0.453125 
Q 41.203125 2 43.796875 4.703125 
Q 46.40625 7.40625 47.90625 10.953125 
Q 49.40625 14.5 50.203125 18.5 
Q 51 22.5 51.203125 26.703125 
Q 51.40625 30.90625 51.40625 34.796875 
Q 51.40625 38.703125 51.203125 42.890625 
Q 51 47.09375 50.203125 51.09375 
Q 49.40625 55.09375 47.90625 58.6875 
Q 46.40625 62.296875 43.796875 65 
Q 41.203125 67.703125 37.25 69.296875 
Q 33.296875 70.90625 27.796875 70.90625 
Q 22.296875 70.90625 18.34375 69.296875 
Q 14.40625 67.703125 11.796875 65 
Q 9.203125 62.296875 7.703125 58.6875 
Q 6.203125 55.09375 5.390625 51.09375 
Q 4.59375 47.09375 4.390625 42.890625 
Q 4.203125 38.703125 4.203125 34.796875 
z
" id="HelveticaNeue-48"/>
        <path d="M 35.59375 0 
L 35.59375 70.90625 
L 29.09375 70.90625 
Q 28.40625 66.90625 26.5 64.296875 
Q 24.59375 61.703125 21.84375 60.203125 
Q 19.09375 58.703125 15.6875 58.140625 
Q 12.296875 57.59375 8.703125 57.59375 
L 8.703125 50.796875 
L 27.09375 50.796875 
L 27.09375 0 
z
" id="HelveticaNeue-49"/>
       </defs>
       <use xlink:href="#HelveticaNeue-50"/>
       <use x="55.599991" xlink:href="#HelveticaNeue-48"/>
       <use x="111.199982" xlink:href="#HelveticaNeue-50"/>
       <use x="166.799973" xlink:href="#HelveticaNeue-49"/>
      </g>
     </g>
    </g>
    <g id="xtick_11">
     <g id="line2d_11">
      <g>
       <use style="fill:#555555;stroke:#555555;stroke-width:0.8;" x="342.100484" xlink:href="#mb2b8e8056e" y="262.5"/>
      </g>
     </g>
     <g id="text_10">
      <!-- Feb -->
      <g style="fill:#555555;" transform="translate(333.580172 276.640625)scale(0.1 -0.1)">
       <defs>
        <path d="M 7.796875 71.40625 
L 7.796875 0 
L 17.296875 0 
L 17.296875 32.703125 
L 50.09375 32.703125 
L 50.09375 40.703125 
L 17.296875 40.703125 
L 17.296875 63.40625 
L 54.703125 63.40625 
L 54.703125 71.40625 
z
" id="HelveticaNeue-70"/>
        <path d="M 6.703125 71.40625 
L 6.703125 0 
L 15.203125 0 
L 15.203125 6.90625 
L 15.40625 6.90625 
Q 16.796875 4.59375 18.84375 3.046875 
Q 20.90625 1.5 23.203125 0.59375 
Q 25.5 -0.296875 27.84375 -0.6875 
Q 30.203125 -1.09375 32.09375 -1.09375 
Q 38 -1.09375 42.453125 1 
Q 46.90625 3.09375 49.84375 6.75 
Q 52.796875 10.40625 54.25 15.296875 
Q 55.703125 20.203125 55.703125 25.703125 
Q 55.703125 31.203125 54.203125 36.09375 
Q 52.703125 41 49.75 44.75 
Q 46.796875 48.5 42.34375 50.703125 
Q 37.90625 52.90625 31.90625 52.90625 
Q 26.5 52.90625 22 50.953125 
Q 17.5 49 15.40625 44.703125 
L 15.203125 44.703125 
L 15.203125 71.40625 
z
M 46.703125 26.296875 
Q 46.703125 22.5 45.890625 18.890625 
Q 45.09375 15.296875 43.296875 12.5 
Q 41.5 9.703125 38.546875 8 
Q 35.59375 6.296875 31.203125 6.296875 
Q 26.796875 6.296875 23.6875 7.9375 
Q 20.59375 9.59375 18.640625 12.296875 
Q 16.703125 15 15.796875 18.546875 
Q 14.90625 22.09375 14.90625 25.90625 
Q 14.90625 29.5 15.75 33 
Q 16.59375 36.5 18.5 39.25 
Q 20.40625 42 23.40625 43.703125 
Q 26.40625 45.40625 30.703125 45.40625 
Q 34.796875 45.40625 37.84375 43.796875 
Q 40.90625 42.203125 42.84375 39.5 
Q 44.796875 36.796875 45.75 33.34375 
Q 46.703125 29.90625 46.703125 26.296875 
z
" id="HelveticaNeue-98"/>
       </defs>
       <use xlink:href="#HelveticaNeue-70"/>
       <use x="57.399994" xlink:href="#HelveticaNeue-101"/>
       <use x="111.099991" xlink:href="#HelveticaNeue-98"/>
      </g>
     </g>
    </g>
    <g id="xtick_12">
     <g id="line2d_12">
      <g>
       <use style="fill:#555555;stroke:#555555;stroke-width:0.8;" x="368.371671" xlink:href="#mb2b8e8056e" y="262.5"/>
      </g>
     </g>
     <g id="text_11">
      <!-- Mar -->
      <g style="fill:#555555;" transform="translate(359.666983 276.640625)scale(0.1 -0.1)">
       <defs>
        <path d="M 6.09375 51.703125 
L 6.09375 0 
L 14.59375 0 
L 14.59375 23 
Q 14.59375 28 15.59375 31.84375 
Q 16.59375 35.703125 18.796875 38.390625 
Q 21 41.09375 24.59375 42.5 
Q 28.203125 43.90625 33.296875 43.90625 
L 33.296875 52.90625 
Q 26.40625 53.09375 21.90625 50.09375 
Q 17.40625 47.09375 14.296875 40.796875 
L 14.09375 40.796875 
L 14.09375 51.703125 
z
" id="HelveticaNeue-114"/>
       </defs>
       <use xlink:href="#HelveticaNeue-77"/>
       <use x="87.099991" xlink:href="#HelveticaNeue-97"/>
       <use x="140.799988" xlink:href="#HelveticaNeue-114"/>
      </g>
     </g>
    </g>
    <g id="xtick_13">
     <g id="line2d_13">
      <g>
       <use style="fill:#555555;stroke:#555555;stroke-width:0.8;" x="397.457627" xlink:href="#mb2b8e8056e" y="262.5"/>
      </g>
     </g>
     <g id="text_12">
      <!-- Apr -->
      <g style="fill:#555555;" transform="translate(389.588096 276.640625)scale(0.1 -0.1)">
       <use xlink:href="#HelveticaNeue-65"/>
       <use x="64.799988" xlink:href="#HelveticaNeue-112"/>
       <use x="124.099976" xlink:href="#HelveticaNeue-114"/>
      </g>
     </g>
    </g>
    <g id="xtick_14">
     <g id="line2d_14">
      <g>
       <use style="fill:#555555;stroke:#555555;stroke-width:0.8;" x="425.605327" xlink:href="#mb2b8e8056e" y="262.5"/>
      </g>
     </g>
     <g id="text_13">
      <!-- May -->
      <g style="fill:#555555;" transform="translate(416.065483 276.640625)scale(0.1 -0.1)">
       <use xlink:href="#HelveticaNeue-77"/>
       <use x="87.099991" xlink:href="#HelveticaNeue-97"/>
       <use x="140.799988" xlink:href="#HelveticaNeue-121"/>
      </g>
     </g>
    </g>
    <g id="xtick_15">
     <g id="line2d_15">
      <g>
       <use style="fill:#555555;stroke:#555555;stroke-width:0.8;" x="450" xlink:href="#mb2b8e8056e" y="262.5"/>
      </g>
     </g>
    </g>
    <g id="xtick_16">
     <g id="line2d_16">
      <defs>
       <path d="M 0 0 
L 0 2 
" id="m48a4bdee39" style="stroke:#555555;stroke-width:0.6;"/>
      </defs>
      <g>
       <use style="fill:#555555;stroke:#555555;stroke-width:0.6;" x="66.253027" xlink:href="#m48a4bdee39" y="262.5"/>
      </g>
     </g>
    </g>
    <g id="xtick_17">
     <g id="line2d_17">
      <g>
       <use style="fill:#555555;stroke:#555555;stroke-width:0.6;" x="72.820823" xlink:href="#m48a4bdee39" y="262.5"/>
      </g>
     </g>
    </g>
    <g id="xtick_18">
     <g id="line2d_18">
      <g>
       <use style="fill:#555555;stroke:#555555;stroke-width:0.6;" x="79.38862" xlink:href="#m48a4bdee39" y="262.5"/>
      </g>
     </g>
    </g>
    <g id="xtick_19">
     <g id="line2d_19">
      <g>
       <use style="fill:#555555;stroke:#555555;stroke-width:0.6;" x="85.956416" xlink:href="#m48a4bdee39" y="262.5"/>
      </g>
     </g>
    </g>
    <g id="xtick_20">
     <g id="line2d_20">
      <g>
       <use style="fill:#555555;stroke:#555555;stroke-width:0.6;" x="92.524213" xlink:href="#m48a4bdee39" y="262.5"/>
      </g>
     </g>
    </g>
    <g id="xtick_21">
     <g id="line2d_21">
      <g>
       <use style="fill:#555555;stroke:#555555;stroke-width:0.6;" x="99.09201" xlink:href="#m48a4bdee39" y="262.5"/>
      </g>
     </g>
    </g>
    <g id="xtick_22">
     <g id="line2d_22">
      <g>
       <use style="fill:#555555;stroke:#555555;stroke-width:0.6;" x="105.659806" xlink:href="#m48a4bdee39" y="262.5"/>
      </g>
     </g>
    </g>
    <g id="xtick_23">
     <g id="line2d_23">
      <g>
       <use style="fill:#555555;stroke:#555555;stroke-width:0.6;" x="118.7954" xlink:href="#m48a4bdee39" y="262.5"/>
      </g>
     </g>
    </g>
    <g id="xtick_24">
     <g id="line2d_24">
      <g>
       <use style="fill:#555555;stroke:#555555;stroke-width:0.6;" x="125.363196" xlink:href="#m48a4bdee39" y="262.5"/>
      </g>
     </g>
    </g>
    <g id="xtick_25">
     <g id="line2d_25">
      <g>
       <use style="fill:#555555;stroke:#555555;stroke-width:0.6;" x="131.930993" xlink:href="#m48a4bdee39" y="262.5"/>
      </g>
     </g>
    </g>
    <g id="xtick_26">
     <g id="line2d_26">
      <g>
       <use style="fill:#555555;stroke:#555555;stroke-width:0.6;" x="138.498789" xlink:href="#m48a4bdee39" y="262.5"/>
      </g>
     </g>
    </g>
    <g id="xtick_27">
     <g id="line2d_27">
      <g>
       <use style="fill:#555555;stroke:#555555;stroke-width:0.6;" x="145.066586" xlink:href="#m48a4bdee39" y="262.5"/>
      </g>
     </g>
    </g>
    <g id="xtick_28">
     <g id="line2d_28">
      <g>
       <use style="fill:#555555;stroke:#555555;stroke-width:0.6;" x="151.634383" xlink:href="#m48a4bdee39" y="262.5"/>
      </g>
     </g>
    </g>
    <g id="xtick_29">
     <g id="line2d_29">
      <g>
       <use style="fill:#555555;stroke:#555555;stroke-width:0.6;" x="158.202179" xlink:href="#m48a4bdee39" y="262.5"/>
      </g>
     </g>
    </g>
    <g id="xtick_30">
     <g id="line2d_30">
      <g>
       <use style="fill:#555555;stroke:#555555;stroke-width:0.6;" x="164.769976" xlink:href="#m48a4bdee39" y="262.5"/>
      </g>
     </g>
    </g>
    <g id="xtick_31">
     <g id="line2d_31">
      <g>
       <use style="fill:#555555;stroke:#555555;stroke-width:0.6;" x="171.337772" xlink:href="#m48a4bdee39" y="262.5"/>
      </g>
     </g>
    </g>
    <g id="xtick_32">
     <g id="line2d_32">
      <g>
       <use style="fill:#555555;stroke:#555555;stroke-width:0.6;" x="177.905569" xlink:href="#m48a4bdee39" y="262.5"/>
      </g>
     </g>
    </g>
    <g id="xtick_33">
     <g id="line2d_33">
      <g>
       <use style="fill:#555555;stroke:#555555;stroke-width:0.6;" x="184.473366" xlink:href="#m48a4bdee39" y="262.5"/>
      </g>
     </g>
    </g>
    <g id="xtick_34">
     <g id="line2d_34">
      <g>
       <use style="fill:#555555;stroke:#555555;stroke-width:0.6;" x="191.041162" xlink:href="#m48a4bdee39" y="262.5"/>
      </g>
     </g>
    </g>
    <g id="xtick_35">
     <g id="line2d_35">
      <g>
       <use style="fill:#555555;stroke:#555555;stroke-width:0.6;" x="197.608959" xlink:href="#m48a4bdee39" y="262.5"/>
      </g>
     </g>
    </g>
    <g id="xtick_36">
     <g id="line2d_36">
      <g>
       <use style="fill:#555555;stroke:#555555;stroke-width:0.6;" x="204.176755" xlink:href="#m48a4bdee39" y="262.5"/>
      </g>
     </g>
    </g>
    <g id="xtick_37">
     <g id="line2d_37">
      <g>
       <use style="fill:#555555;stroke:#555555;stroke-width:0.6;" x="210.744552" xlink:href="#m48a4bdee39" y="262.5"/>
      </g>
     </g>
    </g>
    <g id="xtick_38">
     <g id="line2d_38">
      <g>
       <use style="fill:#555555;stroke:#555555;stroke-width:0.6;" x="217.312349" xlink:href="#m48a4bdee39" y="262.5"/>
      </g>
     </g>
    </g>
    <g id="xtick_39">
     <g id="line2d_39">
      <g>
       <use style="fill:#555555;stroke:#555555;stroke-width:0.6;" x="223.880145" xlink:href="#m48a4bdee39" y="262.5"/>
      </g>
     </g>
    </g>
    <g id="xtick_40">
     <g id="line2d_40">
      <g>
       <use style="fill:#555555;stroke:#555555;stroke-width:0.6;" x="230.447942" xlink:href="#m48a4bdee39" y="262.5"/>
      </g>
     </g>
    </g>
    <g id="xtick_41">
     <g id="line2d_41">
      <g>
       <use style="fill:#555555;stroke:#555555;stroke-width:0.6;" x="237.015738" xlink:href="#m48a4bdee39" y="262.5"/>
      </g>
     </g>
    </g>
    <g id="xtick_42">
     <g id="line2d_42">
      <g>
       <use style="fill:#555555;stroke:#555555;stroke-width:0.6;" x="243.583535" xlink:href="#m48a4bdee39" y="262.5"/>
      </g>
     </g>
    </g>
    <g id="xtick_43">
     <g id="line2d_43">
      <g>
       <use style="fill:#555555;stroke:#555555;stroke-width:0.6;" x="250.151332" xlink:href="#m48a4bdee39" y="262.5"/>
      </g>
     </g>
    </g>
    <g id="xtick_44">
     <g id="line2d_44">
      <g>
       <use style="fill:#555555;stroke:#555555;stroke-width:0.6;" x="256.719128" xlink:href="#m48a4bdee39" y="262.5"/>
      </g>
     </g>
    </g>
    <g id="xtick_45">
     <g id="line2d_45">
      <g>
       <use style="fill:#555555;stroke:#555555;stroke-width:0.6;" x="263.286925" xlink:href="#m48a4bdee39" y="262.5"/>
      </g>
     </g>
    </g>
    <g id="xtick_46">
     <g id="line2d_46">
      <g>
       <use style="fill:#555555;stroke:#555555;stroke-width:0.6;" x="269.854722" xlink:href="#m48a4bdee39" y="262.5"/>
      </g>
     </g>
    </g>
    <g id="xtick_47">
     <g id="line2d_47">
      <g>
       <use style="fill:#555555;stroke:#555555;stroke-width:0.6;" x="276.422518" xlink:href="#m48a4bdee39" y="262.5"/>
      </g>
     </g>
    </g>
    <g id="xtick_48">
     <g id="line2d_48">
      <g>
       <use style="fill:#555555;stroke:#555555;stroke-width:0.6;" x="282.990315" xlink:href="#m48a4bdee39" y="262.5"/>
      </g>
     </g>
    </g>
    <g id="xtick_49">
     <g id="line2d_49">
      <g>
       <use style="fill:#555555;stroke:#555555;stroke-width:0.6;" x="289.558111" xlink:href="#m48a4bdee39" y="262.5"/>
      </g>
     </g>
    </g>
    <g id="xtick_50">
     <g id="line2d_50">
      <g>
       <use style="fill:#555555;stroke:#555555;stroke-width:0.6;" x="296.125908" xlink:href="#m48a4bdee39" y="262.5"/>
      </g>
     </g>
    </g>
    <g id="xtick_51">
     <g id="line2d_51">
      <g>
       <use style="fill:#555555;stroke:#555555;stroke-width:0.6;" x="302.693705" xlink:href="#m48a4bdee39" y="262.5"/>
      </g>
     </g>
    </g>
    <g id="xtick_52">
     <g id="line2d_52">
      <g>
       <use style="fill:#555555;stroke:#555555;stroke-width:0.6;" x="309.261501" xlink:href="#m48a4bdee39" y="262.5"/>
      </g>
     </g>
    </g>
    <g id="xtick_53">
     <g id="line2d_53">
      <g>
       <use style="fill:#555555;stroke:#555555;stroke-width:0.6;" x="315.829298" xlink:href="#m48a4bdee39" y="262.5"/>
      </g>
     </g>
    </g>
    <g id="xtick_54">
     <g id="line2d_54">
      <g>
       <use style="fill:#555555;stroke:#555555;stroke-width:0.6;" x="322.397094" xlink:href="#m48a4bdee39" y="262.5"/>
      </g>
     </g>
    </g>
    <g id="xtick_55">
     <g id="line2d_55">
      <g>
       <use style="fill:#555555;stroke:#555555;stroke-width:0.6;" x="328.964891" xlink:href="#m48a4bdee39" y="262.5"/>
      </g>
     </g>
    </g>
    <g id="xtick_56">
     <g id="line2d_56">
      <g>
       <use style="fill:#555555;stroke:#555555;stroke-width:0.6;" x="335.532688" xlink:href="#m48a4bdee39" y="262.5"/>
      </g>
     </g>
    </g>
    <g id="xtick_57">
     <g id="line2d_57">
      <g>
       <use style="fill:#555555;stroke:#555555;stroke-width:0.6;" x="348.668281" xlink:href="#m48a4bdee39" y="262.5"/>
      </g>
     </g>
    </g>
    <g id="xtick_58">
     <g id="line2d_58">
      <g>
       <use style="fill:#555555;stroke:#555555;stroke-width:0.6;" x="355.236077" xlink:href="#m48a4bdee39" y="262.5"/>
      </g>
     </g>
    </g>
    <g id="xtick_59">
     <g id="line2d_59">
      <g>
       <use style="fill:#555555;stroke:#555555;stroke-width:0.6;" x="361.803874" xlink:href="#m48a4bdee39" y="262.5"/>
      </g>
     </g>
    </g>
    <g id="xtick_60">
     <g id="line2d_60">
      <g>
       <use style="fill:#555555;stroke:#555555;stroke-width:0.6;" x="374.939467" xlink:href="#m48a4bdee39" y="262.5"/>
      </g>
     </g>
    </g>
    <g id="xtick_61">
     <g id="line2d_61">
      <g>
       <use style="fill:#555555;stroke:#555555;stroke-width:0.6;" x="381.507264" xlink:href="#m48a4bdee39" y="262.5"/>
      </g>
     </g>
    </g>
    <g id="xtick_62">
     <g id="line2d_62">
      <g>
       <use style="fill:#555555;stroke:#555555;stroke-width:0.6;" x="388.075061" xlink:href="#m48a4bdee39" y="262.5"/>
      </g>
     </g>
    </g>
    <g id="xtick_63">
     <g id="line2d_63">
      <g>
       <use style="fill:#555555;stroke:#555555;stroke-width:0.6;" x="394.642857" xlink:href="#m48a4bdee39" y="262.5"/>
      </g>
     </g>
    </g>
    <g id="xtick_64">
     <g id="line2d_64">
      <g>
       <use style="fill:#555555;stroke:#555555;stroke-width:0.6;" x="401.210654" xlink:href="#m48a4bdee39" y="262.5"/>
      </g>
     </g>
    </g>
    <g id="xtick_65">
     <g id="line2d_65">
      <g>
       <use style="fill:#555555;stroke:#555555;stroke-width:0.6;" x="407.77845" xlink:href="#m48a4bdee39" y="262.5"/>
      </g>
     </g>
    </g>
    <g id="xtick_66">
     <g id="line2d_66">
      <g>
       <use style="fill:#555555;stroke:#555555;stroke-width:0.6;" x="414.346247" xlink:href="#m48a4bdee39" y="262.5"/>
      </g>
     </g>
    </g>
    <g id="xtick_67">
     <g id="line2d_67">
      <g>
       <use style="fill:#555555;stroke:#555555;stroke-width:0.6;" x="420.914044" xlink:href="#m48a4bdee39" y="262.5"/>
      </g>
     </g>
    </g>
    <g id="xtick_68">
     <g id="line2d_68">
      <g>
       <use style="fill:#555555;stroke:#555555;stroke-width:0.6;" x="427.48184" xlink:href="#m48a4bdee39" y="262.5"/>
      </g>
     </g>
    </g>
    <g id="xtick_69">
     <g id="line2d_69">
      <g>
       <use style="fill:#555555;stroke:#555555;stroke-width:0.6;" x="434.049637" xlink:href="#m48a4bdee39" y="262.5"/>
      </g>
     </g>
    </g>
    <g id="xtick_70">
     <g id="line2d_70">
      <g>
       <use style="fill:#555555;stroke:#555555;stroke-width:0.6;" x="440.617433" xlink:href="#m48a4bdee39" y="262.5"/>
      </g>
     </g>
    </g>
    <g id="xtick_71">
     <g id="line2d_71">
      <g>
       <use style="fill:#555555;stroke:#555555;stroke-width:0.6;" x="447.18523" xlink:href="#m48a4bdee39" y="262.5"/>
      </g>
     </g>
    </g>
    <g id="text_14">
     <!-- fecha -->
     <g style="fill:#555555;" transform="translate(243.935156 300.290625)scale(0.1 -0.1)">
      <defs>
       <path d="M 9.90625 44.203125 
L 9.90625 0 
L 18.40625 0 
L 18.40625 44.203125 
L 28.40625 44.203125 
L 28.40625 51.703125 
L 18.40625 51.703125 
L 18.40625 58.90625 
Q 18.40625 62.296875 20.09375 63.5 
Q 21.796875 64.703125 24.90625 64.703125 
Q 26 64.703125 27.296875 64.546875 
Q 28.59375 64.40625 29.703125 64 
L 29.703125 71.40625 
Q 28.5 71.796875 26.953125 72 
Q 25.40625 72.203125 24.203125 72.203125 
Q 17.203125 72.203125 13.546875 68.953125 
Q 9.90625 65.703125 9.90625 59.40625 
L 9.90625 51.703125 
L 1.203125 51.703125 
L 1.203125 44.203125 
z
" id="HelveticaNeue-102"/>
       <path d="M 6.40625 71.40625 
L 6.40625 0 
L 14.90625 0 
L 14.90625 29.203125 
Q 14.90625 32.703125 15.84375 35.640625 
Q 16.796875 38.59375 18.6875 40.796875 
Q 20.59375 43 23.4375 44.203125 
Q 26.296875 45.40625 30.203125 45.40625 
Q 35.09375 45.40625 37.890625 42.59375 
Q 40.703125 39.796875 40.703125 35 
L 40.703125 0 
L 49.203125 0 
L 49.203125 34 
Q 49.203125 38.203125 48.34375 41.640625 
Q 47.5 45.09375 45.390625 47.59375 
Q 43.296875 50.09375 39.890625 51.5 
Q 36.5 52.90625 31.40625 52.90625 
Q 29.09375 52.90625 26.640625 52.40625 
Q 24.203125 51.90625 21.953125 50.84375 
Q 19.703125 49.796875 17.890625 48.140625 
Q 16.09375 46.5 15.09375 44.09375 
L 14.90625 44.09375 
L 14.90625 71.40625 
z
" id="HelveticaNeue-104"/>
      </defs>
      <use xlink:href="#HelveticaNeue-102"/>
      <use x="29.599991" xlink:href="#HelveticaNeue-101"/>
      <use x="83.299988" xlink:href="#HelveticaNeue-99"/>
      <use x="136.999985" xlink:href="#HelveticaNeue-104"/>
      <use x="192.599976" xlink:href="#HelveticaNeue-97"/>
     </g>
    </g>
   </g>
   <g id="matplotlib.axis_2">
    <g id="ytick_1">
     <g id="line2d_72">
      <defs>
       <path d="M 0 0 
L -3.5 0 
" id="m56644299d0" style="stroke:#555555;stroke-width:0.8;"/>
      </defs>
      <g>
       <use style="fill:#555555;stroke:#555555;stroke-width:0.8;" x="62.5" xlink:href="#m56644299d0" y="251.795455"/>
      </g>
     </g>
     <g id="text_15">
      <!-- 0 -->
      <g style="fill:#555555;" transform="translate(49.940625 255.365767)scale(0.1 -0.1)">
       <use xlink:href="#HelveticaNeue-48"/>
      </g>
     </g>
    </g>
    <g id="ytick_2">
     <g id="line2d_73">
      <g>
       <use style="fill:#555555;stroke:#555555;stroke-width:0.8;" x="62.5" xlink:href="#m56644299d0" y="213.700987"/>
      </g>
     </g>
     <g id="text_16">
      <!-- 50 -->
      <g style="fill:#555555;" transform="translate(44.38125 217.271299)scale(0.1 -0.1)">
       <defs>
        <path d="M 47 62.203125 
L 47 69.703125 
L 12 69.703125 
L 5.40625 32.90625 
L 12.703125 32.5 
Q 15.203125 35.5 18.453125 37.34375 
Q 21.703125 39.203125 25.90625 39.203125 
Q 29.5 39.203125 32.453125 38 
Q 35.40625 36.796875 37.5 34.640625 
Q 39.59375 32.5 40.75 29.546875 
Q 41.90625 26.59375 41.90625 23.09375 
Q 41.90625 18.90625 40.703125 15.75 
Q 39.5 12.59375 37.453125 10.5 
Q 35.40625 8.40625 32.65625 7.34375 
Q 29.90625 6.296875 26.90625 6.296875 
Q 23.703125 6.296875 21.046875 7.25 
Q 18.40625 8.203125 16.453125 9.953125 
Q 14.5 11.703125 13.34375 14.046875 
Q 12.203125 16.40625 12 19.09375 
L 3.5 19.09375 
Q 3.59375 14.296875 5.390625 10.5 
Q 7.203125 6.703125 10.296875 4.140625 
Q 13.40625 1.59375 17.453125 0.25 
Q 21.5 -1.09375 26.09375 -1.09375 
Q 32.296875 -1.09375 36.9375 0.84375 
Q 41.59375 2.796875 44.6875 6.09375 
Q 47.796875 9.40625 49.34375 13.65625 
Q 50.90625 17.90625 50.90625 22.40625 
Q 50.90625 28.5 49.09375 33.046875 
Q 47.296875 37.59375 44.1875 40.640625 
Q 41.09375 43.703125 36.890625 45.203125 
Q 32.703125 46.703125 28 46.703125 
Q 24.40625 46.703125 20.75 45.453125 
Q 17.09375 44.203125 14.796875 41.59375 
L 14.59375 41.796875 
L 18.40625 62.203125 
z
" id="HelveticaNeue-53"/>
       </defs>
       <use xlink:href="#HelveticaNeue-53"/>
       <use x="55.599991" xlink:href="#HelveticaNeue-48"/>
      </g>
     </g>
    </g>
    <g id="ytick_3">
     <g id="line2d_74">
      <g>
       <use style="fill:#555555;stroke:#555555;stroke-width:0.8;" x="62.5" xlink:href="#m56644299d0" y="175.606519"/>
      </g>
     </g>
     <g id="text_17">
      <!-- 100 -->
      <g style="fill:#555555;" transform="translate(38.821875 179.176831)scale(0.1 -0.1)">
       <use xlink:href="#HelveticaNeue-49"/>
       <use x="55.599991" xlink:href="#HelveticaNeue-48"/>
       <use x="111.199982" xlink:href="#HelveticaNeue-48"/>
      </g>
     </g>
    </g>
    <g id="ytick_4">
     <g id="line2d_75">
      <g>
       <use style="fill:#555555;stroke:#555555;stroke-width:0.8;" x="62.5" xlink:href="#m56644299d0" y="137.512051"/>
      </g>
     </g>
     <g id="text_18">
      <!-- 150 -->
      <g style="fill:#555555;" transform="translate(38.821875 141.082364)scale(0.1 -0.1)">
       <use xlink:href="#HelveticaNeue-49"/>
       <use x="55.599991" xlink:href="#HelveticaNeue-53"/>
       <use x="111.199982" xlink:href="#HelveticaNeue-48"/>
      </g>
     </g>
    </g>
    <g id="ytick_5">
     <g id="line2d_76">
      <g>
       <use style="fill:#555555;stroke:#555555;stroke-width:0.8;" x="62.5" xlink:href="#m56644299d0" y="99.417583"/>
      </g>
     </g>
     <g id="text_19">
      <!-- 200 -->
      <g style="fill:#555555;" transform="translate(38.821875 102.987896)scale(0.1 -0.1)">
       <use xlink:href="#HelveticaNeue-50"/>
       <use x="55.599991" xlink:href="#HelveticaNeue-48"/>
       <use x="111.199982" xlink:href="#HelveticaNeue-48"/>
      </g>
     </g>
    </g>
    <g id="ytick_6">
     <g id="line2d_77">
      <g>
       <use style="fill:#555555;stroke:#555555;stroke-width:0.8;" x="62.5" xlink:href="#m56644299d0" y="61.323115"/>
      </g>
     </g>
     <g id="text_20">
      <!-- 250 -->
      <g style="fill:#555555;" transform="translate(38.821875 64.893428)scale(0.1 -0.1)">
       <use xlink:href="#HelveticaNeue-50"/>
       <use x="55.599991" xlink:href="#HelveticaNeue-53"/>
       <use x="111.199982" xlink:href="#HelveticaNeue-48"/>
      </g>
     </g>
    </g>
   </g>
   <g id="line2d_78">
    <path clip-path="url(#p2215755065)" d="M 62.5 250.271676 
L 64.376513 251.795455 
L 66.253027 251.795455 
L 67.191283 251.033565 
L 68.12954 251.795455 
L 69.067797 250.271676 
L 70.94431 248.747897 
L 73.75908 251.033565 
L 74.697337 247.986008 
L 75.635593 248.747897 
L 76.57385 247.986008 
L 77.512107 251.033565 
L 78.450363 246.462229 
L 79.38862 249.509786 
L 80.326877 243.414672 
L 81.265133 250.271676 
L 82.20339 250.271676 
L 83.141646 249.509786 
L 85.01816 249.509786 
L 85.956416 248.747897 
L 86.894673 233.51011 
L 87.83293 249.509786 
L 88.771186 243.414672 
L 89.709443 245.70034 
L 90.6477 244.93845 
L 91.585956 244.93845 
L 92.524213 244.176561 
L 93.46247 248.747897 
L 94.400726 249.509786 
L 95.338983 245.70034 
L 96.27724 238.081446 
L 97.215496 244.176561 
L 99.09201 248.747897 
L 100.030266 242.652782 
L 100.968523 243.414672 
L 101.90678 249.509786 
L 102.845036 245.70034 
L 103.783293 241.129004 
L 104.72155 247.224118 
L 105.659806 241.890893 
L 106.598063 247.986008 
L 107.53632 239.605225 
L 108.474576 235.795778 
L 109.412833 233.51011 
L 110.35109 244.176561 
L 111.289346 246.462229 
L 112.227603 247.224118 
L 113.16586 241.129004 
L 114.104116 228.938774 
L 115.042373 244.176561 
L 115.98063 241.890893 
L 116.918886 244.176561 
L 117.857143 235.033889 
L 118.7954 235.795778 
L 119.733656 235.033889 
L 120.671913 228.176885 
L 121.610169 245.70034 
L 122.548426 238.843335 
L 123.486683 242.652782 
L 124.424939 235.795778 
L 125.363196 239.605225 
L 126.301453 233.51011 
L 127.239709 236.557667 
L 128.177966 229.700663 
L 129.116223 220.557991 
L 130.054479 220.557991 
L 130.992736 235.795778 
L 131.930993 171.797072 
L 132.869249 234.271999 
L 133.807506 187.034859 
L 134.745763 234.271999 
L 135.684019 193.129974 
L 136.622276 236.557667 
L 137.560533 212.177208 
L 138.498789 231.986331 
L 139.437046 215.224765 
L 140.375303 200.748868 
L 141.313559 206.843983 
L 142.251816 221.31988 
L 143.190073 212.177208 
L 144.128329 212.939097 
L 145.066586 205.320204 
L 146.004843 162.6544 
L 146.943099 161.892511 
L 147.881356 206.082093 
L 148.819613 197.70131 
L 149.757869 209.129651 
L 150.696126 195.415642 
L 151.634383 206.082093 
L 152.572639 193.129974 
L 153.510896 132.940715 
L 154.449153 170.273293 
L 155.387409 203.034536 
L 156.325666 185.511081 
L 157.263923 172.558962 
L 158.202179 210.653429 
L 159.140436 197.70131 
L 160.078692 148.178502 
L 161.016949 151.22606 
L 161.955206 145.130945 
L 162.893462 164.940068 
L 163.831719 179.415966 
L 164.769976 188.558638 
L 165.708232 102.465141 
L 166.646489 171.797072 
L 167.584746 119.226707 
L 168.523002 148.940391 
L 169.461259 126.083711 
L 170.399516 182.463523 
L 171.337772 132.940715 
L 172.276029 100.179473 
L 173.214286 130.655047 
L 174.152542 180.939744 
L 175.090799 172.558962 
L 176.967312 183.225412 
L 177.905569 133.702604 
L 178.843826 90.274911 
L 179.782082 146.654723 
L 180.720339 148.940391 
L 181.658596 123.798043 
L 182.596852 80.370349 
L 183.535109 161.130621 
L 184.473366 139.03583 
L 185.411622 147.416613 
L 186.349879 170.273293 
L 187.288136 94.084358 
L 188.226392 135.226383 
L 189.164649 166.463847 
L 190.102906 174.08274 
L 191.041162 140.559609 
L 191.979419 183.987302 
L 192.917676 129.893158 
L 193.855932 199.986978 
L 194.794189 148.940391 
L 195.732446 177.130298 
L 196.670702 190.844306 
L 198.547215 148.178502 
L 199.485472 166.463847 
L 200.423729 140.559609 
L 201.361985 212.939097 
L 202.300242 196.939421 
L 203.238499 217.510434 
L 204.176755 159.606842 
L 205.115012 211.415319 
L 206.991525 145.130945 
L 207.929782 194.653753 
L 208.868039 197.70131 
L 209.806295 231.224442 
L 210.744552 190.844306 
L 211.682809 169.511404 
L 212.621065 203.796425 
L 213.559322 194.653753 
L 214.497579 206.843983 
L 215.435835 180.177855 
L 216.374092 189.320527 
L 217.312349 178.654076 
L 218.250605 205.320204 
L 219.188862 174.08274 
L 220.127119 196.939421 
L 221.065375 212.177208 
L 222.003632 214.462876 
L 222.941889 235.795778 
L 223.880145 217.510434 
L 224.818402 182.463523 
L 225.756659 210.653429 
L 226.694915 209.89154 
L 227.633172 193.891863 
L 228.571429 164.940068 
L 229.509685 170.273293 
L 230.447942 186.27297 
L 231.386199 198.4632 
L 232.324455 191.606195 
L 233.262712 210.653429 
L 234.200969 213.700987 
L 235.139225 210.653429 
L 236.077482 225.891216 
L 237.015738 212.177208 
L 237.953995 231.224442 
L 238.892252 215.986655 
L 239.830508 190.082417 
L 240.768765 212.177208 
L 241.707022 218.272323 
L 242.645278 238.081446 
L 243.583535 211.415319 
L 244.521792 202.272646 
L 245.460048 221.31988 
L 246.398305 211.415319 
L 247.336562 197.70131 
L 248.274818 225.891216 
L 249.213075 231.986331 
L 250.151332 196.939421 
L 251.089588 181.701634 
L 252.027845 198.4632 
L 252.966102 203.034536 
L 253.904358 212.177208 
L 254.842615 205.320204 
L 255.780872 209.129651 
L 256.719128 207.605872 
L 257.657385 199.986978 
L 258.595642 186.27297 
L 259.533898 201.510757 
L 260.472155 199.986978 
L 262.348668 220.557991 
L 263.286925 195.415642 
L 264.225182 203.034536 
L 265.163438 197.70131 
L 266.101695 189.320527 
L 267.039952 197.70131 
L 267.978208 226.653106 
L 268.916465 205.320204 
L 269.854722 188.558638 
L 270.792978 196.177532 
L 271.731235 199.986978 
L 272.669492 198.4632 
L 273.607748 210.653429 
L 274.546005 196.939421 
L 276.422518 217.510434 
L 277.360775 203.796425 
L 278.299031 152.749838 
L 279.237288 153.511728 
L 280.175545 190.844306 
L 281.113801 200.748868 
L 282.052058 223.605548 
L 282.990315 208.367761 
L 283.928571 180.939744 
L 284.866828 201.510757 
L 285.805085 228.176885 
L 286.743341 177.130298 
L 287.681598 180.939744 
L 288.619855 234.271999 
L 289.558111 199.225089 
L 290.496368 205.320204 
L 291.434625 187.796749 
L 292.372881 187.034859 
L 293.311138 178.654076 
L 294.249395 191.606195 
L 295.187651 215.986655 
L 296.125908 155.035506 
L 297.064165 189.320527 
L 298.002421 97.893805 
L 298.940678 211.415319 
L 299.878935 158.083064 
L 300.817191 185.511081 
L 301.755448 183.225412 
L 302.693705 161.892511 
L 303.631961 161.892511 
L 304.570218 185.511081 
L 305.508475 143.607166 
L 306.446731 185.511081 
L 307.384988 196.939421 
L 308.323245 180.939744 
L 309.261501 143.607166 
L 310.199758 142.845277 
L 311.138015 138.27394 
L 312.076271 173.320851 
L 313.014528 215.986655 
L 314.891041 145.130945 
L 315.829298 126.8456 
L 316.767554 98.655694 
L 317.705811 142.845277 
L 318.644068 147.416613 
L 319.582324 109.322145 
L 320.520581 121.512375 
L 321.458838 168.749515 
L 322.397094 175.606519 
L 323.335351 103.22703 
L 324.273608 120.750485 
L 325.211864 120.750485 
L 326.150121 133.702604 
L 327.088378 140.559609 
L 328.026634 129.893158 
L 328.964891 163.416289 
L 329.903148 116.179149 
L 330.841404 124.559932 
L 331.779661 153.511728 
L 332.717918 155.797396 
L 333.656174 160.368732 
L 334.594431 177.130298 
L 335.532688 145.892834 
L 336.470944 37.704545 
L 337.409201 183.225412 
L 338.347458 142.083387 
L 339.285714 196.939421 
L 340.223971 223.605548 
L 341.162228 186.27297 
L 342.100484 217.510434 
L 343.038741 215.986655 
L 343.976998 203.796425 
L 344.915254 198.4632 
L 346.791768 214.462876 
L 347.730024 231.986331 
L 348.668281 227.414995 
L 349.606538 220.557991 
L 350.544794 209.129651 
L 351.483051 203.796425 
L 352.421308 226.653106 
L 353.359564 215.224765 
L 354.297821 227.414995 
L 355.236077 236.557667 
L 356.174334 220.557991 
L 357.112591 213.700987 
L 358.050847 227.414995 
L 358.989104 227.414995 
L 359.927361 225.891216 
L 360.865617 243.414672 
L 361.803874 235.033889 
L 363.680387 225.891216 
L 364.618644 229.700663 
L 365.556901 223.605548 
L 366.495157 239.605225 
L 367.433414 235.033889 
L 368.371671 234.271999 
L 369.309927 221.31988 
L 370.248184 230.462553 
L 371.186441 238.081446 
L 372.124697 231.986331 
L 373.062954 238.843335 
L 374.001211 239.605225 
L 374.939467 237.319557 
L 375.877724 233.51011 
L 376.815981 238.843335 
L 377.754237 228.938774 
L 378.692494 238.843335 
L 379.630751 240.367114 
L 380.569007 234.271999 
L 381.507264 236.557667 
L 382.445521 241.129004 
L 383.383777 231.224442 
L 384.322034 235.033889 
L 385.260291 233.51011 
L 386.198547 239.605225 
L 387.136804 239.605225 
L 388.075061 244.93845 
L 389.013317 233.51011 
L 389.951574 231.986331 
L 390.889831 231.224442 
L 391.828087 222.08177 
L 392.766344 233.51011 
L 393.7046 236.557667 
L 394.642857 228.176885 
L 395.581114 217.510434 
L 396.51937 201.510757 
L 397.457627 230.462553 
L 398.395884 206.082093 
L 400.272397 238.081446 
L 402.14891 164.178179 
L 403.087167 209.89154 
L 404.025424 180.939744 
L 404.96368 206.843983 
L 405.901937 209.129651 
L 406.840194 131.416936 
L 407.77845 203.034536 
L 408.716707 138.27394 
L 409.654964 165.701957 
L 410.59322 164.178179 
L 411.531477 129.131268 
L 412.469734 175.606519 
L 413.40799 207.605872 
L 414.346247 99.417583 
L 415.284504 137.512051 
L 416.22276 116.941038 
L 418.099274 148.940391 
L 419.03753 159.606842 
L 419.975787 174.84463 
L 420.914044 145.892834 
L 421.8523 157.321174 
L 422.790557 174.08274 
L 423.728814 155.797396 
L 424.66707 171.797072 
L 425.605327 151.987949 
L 426.543584 164.178179 
L 427.48184 101.703251 
L 428.420097 132.940715 
L 429.358354 139.03583 
L 430.29661 145.892834 
L 431.234867 143.607166 
L 432.173123 117.702928 
L 433.11138 179.415966 
L 434.049637 95.608137 
L 434.987893 117.702928 
L 435.92615 165.701957 
L 436.864407 110.845924 
L 437.802663 121.512375 
L 438.74092 157.321174 
L 439.679177 149.702281 
L 440.617433 170.273293 
L 441.55569 148.940391 
L 442.493947 140.559609 
L 443.432203 57.513669 
L 444.37046 116.179149 
L 445.308717 155.797396 
L 446.246973 75.799013 
L 447.18523 137.512051 
L 448.123487 102.465141 
L 449.061743 80.370349 
L 450 196.177532 
L 450 196.177532 
" style="fill:none;stroke:#000000;stroke-dasharray:1.5,2.475;stroke-dashoffset:0;stroke-opacity:0.5;stroke-width:1.5;"/>
   </g>
   <g id="line2d_79">
    <path clip-path="url(#p2215755065)" d="M 62.5 251.033565 
L 64.376513 251.033565 
L 65.31477 251.795455 
L 66.253027 251.795455 
L 67.191283 251.033565 
L 68.12954 251.033565 
L 69.067797 250.271676 
L 70.94431 250.271676 
L 71.882567 249.509786 
L 74.697337 249.509786 
L 75.635593 248.747897 
L 76.57385 248.747897 
L 77.512107 247.986008 
L 79.38862 247.986008 
L 80.326877 248.747897 
L 83.141646 248.747897 
L 85.01816 247.224118 
L 85.956416 245.70034 
L 86.894673 245.70034 
L 88.771186 244.176561 
L 89.709443 244.176561 
L 90.6477 245.70034 
L 91.585956 245.70034 
L 92.524213 246.462229 
L 93.46247 245.70034 
L 94.400726 245.70034 
L 95.338983 244.93845 
L 96.27724 245.70034 
L 98.153753 244.176561 
L 100.030266 245.70034 
L 101.90678 245.70034 
L 102.845036 244.93845 
L 104.72155 244.93845 
L 105.659806 243.414672 
L 106.598063 241.129004 
L 107.53632 241.129004 
L 108.474576 240.367114 
L 109.412833 241.129004 
L 110.35109 241.129004 
L 111.289346 240.367114 
L 113.16586 241.890893 
L 115.042373 240.367114 
L 115.98063 238.843335 
L 116.918886 238.843335 
L 119.733656 236.557667 
L 120.671913 237.319557 
L 121.610169 237.319557 
L 122.548426 238.081446 
L 123.486683 238.081446 
L 124.424939 238.843335 
L 126.301453 234.271999 
L 127.239709 231.224442 
L 128.177966 230.462553 
L 129.116223 222.843659 
L 130.054479 220.557991 
L 130.992736 214.462876 
L 131.930993 213.700987 
L 132.869249 210.653429 
L 133.807506 212.177208 
L 134.745763 210.653429 
L 135.684019 217.510434 
L 136.622276 216.748544 
L 137.560533 218.272323 
L 138.498789 215.224765 
L 139.437046 216.748544 
L 140.375303 213.700987 
L 141.313559 213.700987 
L 142.251816 210.653429 
L 143.190073 205.320204 
L 144.128329 199.225089 
L 145.066586 196.177532 
L 146.004843 191.606195 
L 146.943099 190.844306 
L 147.881356 190.844306 
L 148.819613 193.129974 
L 149.757869 197.70131 
L 150.696126 193.891863 
L 151.634383 187.796749 
L 152.572639 185.511081 
L 153.510896 181.701634 
L 154.449153 178.654076 
L 155.387409 180.177855 
L 157.263923 186.27297 
L 158.202179 182.463523 
L 159.140436 174.84463 
L 160.078692 169.511404 
L 161.955206 164.940068 
L 162.893462 157.321174 
L 163.831719 158.844953 
L 164.769976 155.035506 
L 165.708232 152.749838 
L 166.646489 146.654723 
L 167.584746 145.892834 
L 168.523002 141.321498 
L 169.461259 141.321498 
L 170.399516 136.750162 
L 171.337772 141.321498 
L 172.276029 143.607166 
L 173.214286 150.46417 
L 174.152542 154.273617 
L 175.090799 158.844953 
L 176.029056 158.083064 
L 176.967312 155.797396 
L 178.843826 141.321498 
L 179.782082 129.131268 
L 180.720339 126.083711 
L 181.658596 127.607489 
L 182.596852 132.940715 
L 183.535109 136.750162 
L 184.473366 133.702604 
L 185.411622 135.988272 
L 186.349879 142.845277 
L 188.226392 145.892834 
L 189.164649 151.22606 
L 190.102906 149.702281 
L 191.041162 161.130621 
L 191.979419 163.416289 
L 192.917676 164.178179 
L 193.855932 167.225736 
L 194.794189 171.035183 
L 195.732446 168.749515 
L 196.670702 171.797072 
L 197.608959 164.940068 
L 198.547215 169.511404 
L 199.485472 171.797072 
L 200.423729 177.130298 
L 201.361985 180.177855 
L 202.300242 187.796749 
L 203.238499 190.082417 
L 204.176755 189.320527 
L 205.115012 185.511081 
L 206.053269 183.987302 
L 206.991525 185.511081 
L 207.929782 190.844306 
L 208.868039 189.320527 
L 209.806295 193.129974 
L 210.744552 197.70131 
L 211.682809 197.70131 
L 212.621065 195.415642 
L 213.559322 191.606195 
L 214.497579 190.844306 
L 215.435835 193.129974 
L 216.374092 189.320527 
L 217.312349 189.320527 
L 218.250605 190.082417 
L 219.188862 194.653753 
L 221.065375 207.605872 
L 222.003632 207.605872 
L 222.941889 211.415319 
L 223.880145 212.177208 
L 224.818402 209.129651 
L 225.756659 202.272646 
L 226.694915 193.891863 
L 227.633172 188.558638 
L 228.571429 188.558638 
L 229.509685 185.511081 
L 230.447942 187.034859 
L 231.386199 190.844306 
L 233.262712 205.320204 
L 234.200969 209.89154 
L 236.077482 217.510434 
L 237.953995 214.462876 
L 238.892252 214.462876 
L 240.768765 215.986655 
L 241.707022 213.700987 
L 242.645278 214.462876 
L 243.583535 216.748544 
L 244.521792 214.462876 
L 245.460048 214.462876 
L 247.336562 212.939097 
L 248.274818 210.653429 
L 249.213075 207.605872 
L 250.151332 205.320204 
L 251.089588 205.320204 
L 252.027845 202.272646 
L 252.966102 200.748868 
L 253.904358 203.796425 
L 254.842615 206.082093 
L 256.719128 203.034536 
L 257.657385 200.748868 
L 258.595642 200.748868 
L 259.533898 202.272646 
L 260.472155 202.272646 
L 261.410412 203.796425 
L 262.348668 204.558314 
L 264.225182 201.510757 
L 265.163438 202.272646 
L 266.101695 201.510757 
L 269.854722 201.510757 
L 270.792978 202.272646 
L 271.731235 199.225089 
L 272.669492 199.986978 
L 273.607748 203.796425 
L 274.546005 205.320204 
L 275.484262 200.748868 
L 276.422518 193.891863 
L 277.360775 189.320527 
L 278.299031 187.034859 
L 280.175545 188.558638 
L 281.113801 190.082417 
L 282.990315 204.558314 
L 283.928571 203.034536 
L 284.866828 199.986978 
L 285.805085 200.748868 
L 286.743341 200.748868 
L 287.681598 203.034536 
L 288.619855 202.272646 
L 289.558111 198.4632 
L 290.496368 197.70131 
L 291.434625 196.177532 
L 292.372881 193.129974 
L 293.311138 189.320527 
L 294.249395 187.034859 
L 295.187651 177.130298 
L 296.125908 176.368408 
L 297.064165 172.558962 
L 298.940678 167.987625 
L 299.878935 170.273293 
L 300.817191 168.749515 
L 301.755448 177.130298 
L 302.693705 169.511404 
L 304.570218 172.558962 
L 305.508475 173.320851 
L 306.446731 172.558962 
L 307.384988 170.273293 
L 308.323245 164.178179 
L 309.261501 164.178179 
L 310.199758 165.701957 
L 311.138015 165.701957 
L 312.076271 164.940068 
L 313.014528 164.940068 
L 313.952785 158.844953 
L 314.891041 154.273617 
L 315.829298 146.654723 
L 316.767554 133.702604 
L 317.705811 127.607489 
L 318.644068 129.893158 
L 319.582324 136.750162 
L 320.520581 139.03583 
L 321.458838 137.512051 
L 322.397094 134.464494 
L 323.335351 135.226383 
L 324.273608 134.464494 
L 325.211864 129.893158 
L 326.150121 129.893158 
L 327.088378 133.702604 
L 328.026634 134.464494 
L 328.964891 137.512051 
L 329.903148 139.03583 
L 330.841404 142.083387 
L 331.779661 148.178502 
L 332.717918 149.702281 
L 333.656174 142.845277 
L 334.594431 145.130945 
L 335.532688 141.321498 
L 336.470944 143.607166 
L 337.409201 152.749838 
L 338.347458 159.606842 
L 339.285714 174.08274 
L 340.223971 195.415642 
L 341.162228 200.748868 
L 342.100484 206.843983 
L 343.038741 207.605872 
L 343.976998 206.082093 
L 344.915254 210.653429 
L 346.791768 215.224765 
L 347.730024 216.748544 
L 348.668281 217.510434 
L 349.606538 219.034212 
L 351.483051 217.510434 
L 354.297821 222.08177 
L 355.236077 224.367438 
L 356.174334 224.367438 
L 357.112591 225.129327 
L 358.050847 226.653106 
L 358.989104 227.414995 
L 359.927361 229.700663 
L 360.865617 231.224442 
L 361.803874 231.986331 
L 362.742131 231.224442 
L 363.680387 231.224442 
L 364.618644 230.462553 
L 365.556901 231.224442 
L 366.495157 230.462553 
L 368.371671 231.986331 
L 370.248184 231.986331 
L 371.186441 233.51011 
L 372.124697 234.271999 
L 373.062954 235.795778 
L 374.001211 236.557667 
L 374.939467 235.795778 
L 375.877724 236.557667 
L 376.815981 236.557667 
L 377.754237 235.795778 
L 378.692494 235.795778 
L 379.630751 236.557667 
L 381.507264 236.557667 
L 382.445521 235.795778 
L 383.383777 235.795778 
L 385.260291 237.319557 
L 387.136804 237.319557 
L 388.075061 236.557667 
L 389.951574 233.51011 
L 390.889831 232.748221 
L 391.828087 230.462553 
L 392.766344 228.938774 
L 393.7046 225.891216 
L 394.642857 224.367438 
L 395.581114 221.31988 
L 396.51937 219.034212 
L 397.457627 219.034212 
L 398.395884 217.510434 
L 399.33414 212.177208 
L 400.272397 210.653429 
L 401.210654 203.796425 
L 402.14891 201.510757 
L 403.087167 198.4632 
L 404.025424 188.558638 
L 404.96368 187.796749 
L 405.901937 183.987302 
L 406.840194 176.368408 
L 407.77845 172.558962 
L 408.716707 162.6544 
L 409.654964 158.083064 
L 410.59322 165.701957 
L 411.531477 156.559285 
L 412.469734 155.797396 
L 413.40799 148.940391 
L 414.346247 143.607166 
L 415.284504 142.083387 
L 416.22276 139.03583 
L 417.161017 138.27394 
L 418.099274 145.892834 
L 419.03753 149.702281 
L 419.975787 157.321174 
L 421.8523 161.892511 
L 422.790557 161.892511 
L 423.728814 161.130621 
L 424.66707 155.797396 
L 425.605327 151.22606 
L 426.543584 145.130945 
L 427.48184 141.321498 
L 429.358354 135.226383 
L 430.29661 137.512051 
L 431.234867 137.512051 
L 432.173123 135.226383 
L 433.11138 136.750162 
L 434.049637 132.940715 
L 434.987893 129.893158 
L 435.92615 132.940715 
L 436.864407 131.416936 
L 437.802663 140.559609 
L 438.74092 145.130945 
L 439.679177 145.130945 
L 440.617433 139.797719 
L 441.55569 135.988272 
L 442.493947 131.416936 
L 443.432203 121.512375 
L 444.37046 116.179149 
L 445.308717 112.369702 
L 446.246973 107.036477 
L 447.18523 119.988596 
L 448.123487 121.512375 
L 449.061743 120.750485 
L 450 130.655047 
L 450 130.655047 
" style="fill:none;stroke:#b3220f;stroke-linecap:square;stroke-width:1.5;"/>
   </g>
   <g id="patch_3">
    <path d="M 62.5 262.5 
L 62.5 27 
" style="fill:none;stroke:#555555;stroke-linecap:square;stroke-linejoin:miter;"/>
   </g>
   <g id="patch_4">
    <path d="M 62.5 262.5 
L 450 262.5 
" style="fill:none;stroke:#555555;stroke-linecap:square;stroke-linejoin:miter;"/>
   </g>
   <g id="text_21">
    <!-- Usme | Casos nuevos: 2021-05-27 -->
    <g style="fill:#555555;" transform="translate(147.710625 17)scale(0.14 -0.14)">
     <defs>
      <path d="M 64.796875 25.796875 
L 64.796875 71.40625 
L 55.296875 71.40625 
L 55.296875 25.796875 
Q 55.296875 16.203125 50.546875 11.25 
Q 45.796875 6.296875 36.703125 6.296875 
Q 27.09375 6.296875 22 11.25 
Q 16.90625 16.203125 16.90625 25.796875 
L 16.90625 71.40625 
L 7.40625 71.40625 
L 7.40625 25.796875 
Q 7.40625 11.5 15.15625 4.953125 
Q 22.90625 -1.59375 36.703125 -1.59375 
Q 50.203125 -1.59375 57.5 5.25 
Q 64.796875 12.09375 64.796875 25.796875 
z
" id="HelveticaNeue-85"/>
      <path d="M 11.59375 16.296875 
L 3.09375 16.296875 
Q 3.296875 11.5 5.09375 8.140625 
Q 6.90625 4.796875 9.90625 2.75 
Q 12.90625 0.703125 16.796875 -0.1875 
Q 20.703125 -1.09375 25 -1.09375 
Q 28.90625 -1.09375 32.84375 -0.34375 
Q 36.796875 0.40625 39.9375 2.296875 
Q 43.09375 4.203125 45.046875 7.296875 
Q 47 10.40625 47 15.09375 
Q 47 18.796875 45.546875 21.296875 
Q 44.09375 23.796875 41.75 25.4375 
Q 39.40625 27.09375 36.34375 28.09375 
Q 33.296875 29.09375 30.09375 29.796875 
Q 27.09375 30.5 24.09375 31.140625 
Q 21.09375 31.796875 18.6875 32.75 
Q 16.296875 33.703125 14.75 35.140625 
Q 13.203125 36.59375 13.203125 38.796875 
Q 13.203125 40.796875 14.203125 42.046875 
Q 15.203125 43.296875 16.796875 44.046875 
Q 18.40625 44.796875 20.34375 45.09375 
Q 22.296875 45.40625 24.203125 45.40625 
Q 26.296875 45.40625 28.34375 44.953125 
Q 30.40625 44.5 32.09375 43.5 
Q 33.796875 42.5 34.890625 40.84375 
Q 36 39.203125 36.203125 36.703125 
L 44.703125 36.703125 
Q 44.40625 41.40625 42.703125 44.546875 
Q 41 47.703125 38.140625 49.546875 
Q 35.296875 51.40625 31.59375 52.15625 
Q 27.90625 52.90625 23.5 52.90625 
Q 20.09375 52.90625 16.640625 52.046875 
Q 13.203125 51.203125 10.453125 49.453125 
Q 7.703125 47.703125 5.953125 44.890625 
Q 4.203125 42.09375 4.203125 38.203125 
Q 4.203125 33.203125 6.703125 30.390625 
Q 9.203125 27.59375 12.953125 26.046875 
Q 16.703125 24.5 21.09375 23.640625 
Q 25.5 22.796875 29.25 21.75 
Q 33 20.703125 35.5 19 
Q 38 17.296875 38 14 
Q 38 11.59375 36.796875 10.046875 
Q 35.59375 8.5 33.75 7.703125 
Q 31.90625 6.90625 29.703125 6.59375 
Q 27.5 6.296875 25.5 6.296875 
Q 22.90625 6.296875 20.453125 6.796875 
Q 18 7.296875 16.046875 8.4375 
Q 14.09375 9.59375 12.890625 11.546875 
Q 11.703125 13.5 11.59375 16.296875 
z
" id="HelveticaNeue-115"/>
      <path d="M 6.40625 51.703125 
L 6.40625 0 
L 14.90625 0 
L 14.90625 32.203125 
Q 14.90625 33.703125 15.65625 35.953125 
Q 16.40625 38.203125 18.046875 40.296875 
Q 19.703125 42.40625 22.34375 43.90625 
Q 25 45.40625 28.703125 45.40625 
Q 31.59375 45.40625 33.4375 44.546875 
Q 35.296875 43.703125 36.390625 42.140625 
Q 37.5 40.59375 37.953125 38.5 
Q 38.40625 36.40625 38.40625 33.90625 
L 38.40625 0 
L 46.90625 0 
L 46.90625 32.203125 
Q 46.90625 38.203125 50.5 41.796875 
Q 54.09375 45.40625 60.40625 45.40625 
Q 63.5 45.40625 65.453125 44.5 
Q 67.40625 43.59375 68.5 42.046875 
Q 69.59375 40.5 70 38.390625 
Q 70.40625 36.296875 70.40625 33.90625 
L 70.40625 0 
L 78.90625 0 
L 78.90625 37.90625 
Q 78.90625 41.90625 77.65625 44.75 
Q 76.40625 47.59375 74.15625 49.390625 
Q 71.90625 51.203125 68.75 52.046875 
Q 65.59375 52.90625 61.703125 52.90625 
Q 56.59375 52.90625 52.34375 50.59375 
Q 48.09375 48.296875 45.5 44.09375 
Q 43.90625 48.90625 40 50.90625 
Q 36.09375 52.90625 31.296875 52.90625 
Q 20.40625 52.90625 14.59375 44.09375 
L 14.40625 44.09375 
L 14.40625 51.703125 
z
" id="HelveticaNeue-109"/>
      <path id="HelveticaNeue-32"/>
      <path d="M 7.703125 78.59375 
L 7.703125 -21.296875 
L 14.5 -21.296875 
L 14.5 78.59375 
z
" id="HelveticaNeue-124"/>
      <path d="M 58 49.90625 
L 67.5 49.90625 
Q 66.703125 55.59375 64.09375 59.9375 
Q 61.5 64.296875 57.59375 67.1875 
Q 53.703125 70.09375 48.703125 71.59375 
Q 43.703125 73.09375 38.09375 73.09375 
Q 29.90625 73.09375 23.546875 70.140625 
Q 17.203125 67.203125 12.953125 62.09375 
Q 8.703125 57 6.5 50.140625 
Q 4.296875 43.296875 4.296875 35.5 
Q 4.296875 27.703125 6.34375 20.890625 
Q 8.40625 14.09375 12.5 9.09375 
Q 16.59375 4.09375 22.796875 1.25 
Q 29 -1.59375 37.296875 -1.59375 
Q 51 -1.59375 58.890625 5.90625 
Q 66.796875 13.40625 68.203125 26.90625 
L 58.703125 26.90625 
Q 58.40625 22.5 56.90625 18.703125 
Q 55.40625 14.90625 52.75 12.15625 
Q 50.09375 9.40625 46.4375 7.84375 
Q 42.796875 6.296875 38.09375 6.296875 
Q 31.703125 6.296875 27.09375 8.6875 
Q 22.5 11.09375 19.546875 15.140625 
Q 16.59375 19.203125 15.1875 24.640625 
Q 13.796875 30.09375 13.796875 36.203125 
Q 13.796875 41.796875 15.1875 47 
Q 16.59375 52.203125 19.546875 56.25 
Q 22.5 60.296875 27.046875 62.6875 
Q 31.59375 65.09375 38 65.09375 
Q 45.5 65.09375 50.953125 61.296875 
Q 56.40625 57.5 58 49.90625 
z
" id="HelveticaNeue-67"/>
      <path d="M 19.40625 40.59375 
L 19.40625 51.703125 
L 8.296875 51.703125 
L 8.296875 40.59375 
z
M 8.296875 11.09375 
L 8.296875 0 
L 19.40625 0 
L 19.40625 11.09375 
z
" id="HelveticaNeue-58"/>
      <path d="M 5 31.796875 
L 5 23.796875 
L 33.90625 23.796875 
L 33.90625 31.796875 
z
" id="HelveticaNeue-45"/>
      <path d="M 50.90625 62.40625 
L 50.90625 69.703125 
L 5 69.703125 
L 5 61.703125 
L 42.203125 61.703125 
Q 36.59375 55.796875 31.75 48.796875 
Q 26.90625 41.796875 23.203125 33.9375 
Q 19.5 26.09375 17.140625 17.546875 
Q 14.796875 9 14.203125 0 
L 23.703125 0 
Q 24.203125 8.296875 26.5 17.09375 
Q 28.796875 25.90625 32.4375 34.203125 
Q 36.09375 42.5 40.796875 49.796875 
Q 45.5 57.09375 50.90625 62.40625 
z
" id="HelveticaNeue-55"/>
     </defs>
     <use xlink:href="#HelveticaNeue-85"/>
     <use x="72.199982" xlink:href="#HelveticaNeue-115"/>
     <use x="122.199966" xlink:href="#HelveticaNeue-109"/>
     <use x="207.499954" xlink:href="#HelveticaNeue-101"/>
     <use x="261.199951" xlink:href="#HelveticaNeue-32"/>
     <use x="288.999939" xlink:href="#HelveticaNeue-124"/>
     <use x="311.199936" xlink:href="#HelveticaNeue-32"/>
     <use x="338.999924" xlink:href="#HelveticaNeue-67"/>
     <use x="411.199905" xlink:href="#HelveticaNeue-97"/>
     <use x="464.899902" xlink:href="#HelveticaNeue-115"/>
     <use x="514.899887" xlink:href="#HelveticaNeue-111"/>
     <use x="572.299881" xlink:href="#HelveticaNeue-115"/>
     <use x="622.299866" xlink:href="#HelveticaNeue-32"/>
     <use x="650.099854" xlink:href="#HelveticaNeue-110"/>
     <use x="705.699844" xlink:href="#HelveticaNeue-117"/>
     <use x="761.299835" xlink:href="#HelveticaNeue-101"/>
     <use x="814.999832" xlink:href="#HelveticaNeue-118"/>
     <use x="864.999817" xlink:href="#HelveticaNeue-111"/>
     <use x="922.399811" xlink:href="#HelveticaNeue-115"/>
     <use x="972.399796" xlink:href="#HelveticaNeue-58"/>
     <use x="1000.199783" xlink:href="#HelveticaNeue-32"/>
     <use x="1027.999771" xlink:href="#HelveticaNeue-50"/>
     <use x="1083.599762" xlink:href="#HelveticaNeue-48"/>
     <use x="1139.199753" xlink:href="#HelveticaNeue-50"/>
     <use x="1194.799744" xlink:href="#HelveticaNeue-49"/>
     <use x="1250.399734" xlink:href="#HelveticaNeue-45"/>
     <use x="1289.299728" xlink:href="#HelveticaNeue-48"/>
     <use x="1344.899719" xlink:href="#HelveticaNeue-53"/>
     <use x="1400.49971" xlink:href="#HelveticaNeue-45"/>
     <use x="1439.399704" xlink:href="#HelveticaNeue-50"/>
     <use x="1494.999695" xlink:href="#HelveticaNeue-55"/>
    </g>
   </g>
   <g id="legend_1">
    <g id="line2d_80">
     <path d="M 71.5 39.640625 
L 91.5 39.640625 
" style="fill:none;stroke:#000000;stroke-dasharray:1.5,2.475;stroke-dashoffset:0;stroke-opacity:0.5;stroke-width:1.5;"/>
    </g>
    <g id="line2d_81"/>
    <g id="text_22">
     <!-- Actual -->
     <g style="fill:#555555;" transform="translate(99.5 43.140625)scale(0.1 -0.1)">
      <use xlink:href="#HelveticaNeue-65"/>
      <use x="64.799988" xlink:href="#HelveticaNeue-99"/>
      <use x="118.499985" xlink:href="#HelveticaNeue-116"/>
      <use x="149.999969" xlink:href="#HelveticaNeue-117"/>
      <use x="205.59996" xlink:href="#HelveticaNeue-97"/>
      <use x="259.299957" xlink:href="#HelveticaNeue-108"/>
     </g>
    </g>
    <g id="line2d_82">
     <path d="M 71.5 54.310937 
L 91.5 54.310937 
" style="fill:none;stroke:#b3220f;stroke-linecap:square;stroke-width:1.5;"/>
    </g>
    <g id="line2d_83"/>
    <g id="text_23">
     <!-- Promedio semanal (7 das)  -->
     <g style="fill:#555555;" transform="translate(99.5 57.810937)scale(0.1 -0.1)">
      <defs>
       <path d="M 17.296875 37.203125 
L 17.296875 63.40625 
L 35.90625 63.40625 
Q 44 63.40625 47.75 60.046875 
Q 51.5 56.703125 51.5 50.296875 
Q 51.5 43.90625 47.75 40.5 
Q 44 37.09375 35.90625 37.203125 
z
M 7.796875 71.40625 
L 7.796875 0 
L 17.296875 0 
L 17.296875 29.203125 
L 39.09375 29.203125 
Q 49.90625 29.09375 55.453125 34.6875 
Q 61 40.296875 61 50.296875 
Q 61 60.296875 55.453125 65.84375 
Q 49.90625 71.40625 39.09375 71.40625 
z
" id="HelveticaNeue-80"/>
       <path d="M 12.59375 25.40625 
Q 12.59375 29.203125 13.390625 32.796875 
Q 14.203125 36.40625 16 39.203125 
Q 17.796875 42 20.796875 43.703125 
Q 23.796875 45.40625 28.09375 45.40625 
Q 32.5 45.40625 35.59375 43.75 
Q 38.703125 42.09375 40.640625 39.390625 
Q 42.59375 36.703125 43.5 33.140625 
Q 44.40625 29.59375 44.40625 25.796875 
Q 44.40625 22.203125 43.546875 18.703125 
Q 42.703125 15.203125 40.796875 12.453125 
Q 38.90625 9.703125 35.90625 8 
Q 32.90625 6.296875 28.59375 6.296875 
Q 24.5 6.296875 21.453125 7.890625 
Q 18.40625 9.5 16.453125 12.203125 
Q 14.5 14.90625 13.546875 18.34375 
Q 12.59375 21.796875 12.59375 25.40625 
z
M 52.59375 0 
L 52.59375 71.40625 
L 44.09375 71.40625 
L 44.09375 44.796875 
L 43.90625 44.796875 
Q 42.5 47.09375 40.453125 48.640625 
Q 38.40625 50.203125 36.09375 51.140625 
Q 33.796875 52.09375 31.5 52.5 
Q 29.203125 52.90625 27.203125 52.90625 
Q 21.296875 52.90625 16.84375 50.75 
Q 12.40625 48.59375 9.453125 44.9375 
Q 6.5 41.296875 5.046875 36.390625 
Q 3.59375 31.5 3.59375 26 
Q 3.59375 20.5 5.09375 15.59375 
Q 6.59375 10.703125 9.546875 7 
Q 12.5 3.296875 16.953125 1.09375 
Q 21.40625 -1.09375 27.40625 -1.09375 
Q 32.796875 -1.09375 37.296875 0.796875 
Q 41.796875 2.703125 43.90625 7 
L 44.09375 7 
L 44.09375 0 
z
" id="HelveticaNeue-100"/>
       <path d="M 15.40625 61 
L 15.40625 71.40625 
L 6.90625 71.40625 
L 6.90625 61 
z
M 6.90625 51.703125 
L 6.90625 0 
L 15.40625 0 
L 15.40625 51.703125 
z
" id="HelveticaNeue-105"/>
       <path d="M 20.40625 -19.703125 
L 26.90625 -19.703125 
Q 19.796875 -8.203125 16.75 3.09375 
Q 13.703125 14.40625 13.703125 27 
Q 13.703125 39.296875 16.703125 50.5 
Q 19.703125 61.703125 26.90625 73.09375 
L 20.40625 73.09375 
Q 12.59375 62.796875 8.640625 50.796875 
Q 4.703125 38.796875 4.703125 27 
Q 4.703125 20.40625 5.796875 14.40625 
Q 6.90625 8.40625 8.953125 2.703125 
Q 11 -3 13.890625 -8.546875 
Q 16.796875 -14.09375 20.40625 -19.703125 
z
" id="HelveticaNeue-40"/>
       <path d="M 6.90625 0 
L 15.40625 0 
L 15.40625 51.703125 
L 6.90625 51.703125 
z
M 25.5 77 
L 11.40625 60.796875 
L 5 60.796875 
L 14.59375 77 
z
" id="HelveticaNeue-237"/>
       <path d="M -0.90625 -19.703125 
L 5.5 -19.703125 
Q 13.296875 -9.40625 17.25 2.546875 
Q 21.203125 14.5 21.203125 26.296875 
Q 21.203125 32.90625 20.09375 38.90625 
Q 19 44.90625 16.953125 50.65625 
Q 14.90625 56.40625 12 61.953125 
Q 9.09375 67.5 5.5 73.09375 
L -0.90625 73.09375 
Q 6.09375 61.59375 9.140625 50.25 
Q 12.203125 38.90625 12.203125 26.296875 
Q 12.203125 14.09375 9.203125 2.84375 
Q 6.203125 -8.40625 -0.90625 -19.703125 
z
" id="HelveticaNeue-41"/>
      </defs>
      <use xlink:href="#HelveticaNeue-80"/>
      <use x="64.799988" xlink:href="#HelveticaNeue-114"/>
      <use x="96.349976" xlink:href="#HelveticaNeue-111"/>
      <use x="153.749969" xlink:href="#HelveticaNeue-109"/>
      <use x="239.049957" xlink:href="#HelveticaNeue-101"/>
      <use x="292.749954" xlink:href="#HelveticaNeue-100"/>
      <use x="352.049942" xlink:href="#HelveticaNeue-105"/>
      <use x="374.249939" xlink:href="#HelveticaNeue-111"/>
      <use x="431.649933" xlink:href="#HelveticaNeue-32"/>
      <use x="459.449921" xlink:href="#HelveticaNeue-115"/>
      <use x="509.449905" xlink:href="#HelveticaNeue-101"/>
      <use x="563.149902" xlink:href="#HelveticaNeue-109"/>
      <use x="648.44989" xlink:href="#HelveticaNeue-97"/>
      <use x="702.149887" xlink:href="#HelveticaNeue-110"/>
      <use x="757.749878" xlink:href="#HelveticaNeue-97"/>
      <use x="811.449875" xlink:href="#HelveticaNeue-108"/>
      <use x="833.649872" xlink:href="#HelveticaNeue-32"/>
      <use x="861.44986" xlink:href="#HelveticaNeue-40"/>
      <use x="887.349854" xlink:href="#HelveticaNeue-55"/>
      <use x="942.949844" xlink:href="#HelveticaNeue-32"/>
      <use x="970.749832" xlink:href="#HelveticaNeue-100"/>
      <use x="1030.04982" xlink:href="#HelveticaNeue-237"/>
      <use x="1052.249817" xlink:href="#HelveticaNeue-97"/>
      <use x="1105.949814" xlink:href="#HelveticaNeue-115"/>
      <use x="1155.949799" xlink:href="#HelveticaNeue-41"/>
      <use x="1181.849792" xlink:href="#HelveticaNeue-32"/>
     </g>
    </g>
   </g>
  </g>
 </g>
 <defs>
  <clipPath id="p2215755065">
   <rect height="235.5" width="387.5" x="62.5" y="27"/>
  </clipPath>
 </defs>
</svg>
