<?xml version="1.0" encoding="utf-8" standalone="no"?>
<!DOCTYPE svg PUBLIC "-//W3C//DTD SVG 1.1//EN"
  "http://www.w3.org/Graphics/SVG/1.1/DTD/svg11.dtd">
<!-- Created with matplotlib (https://matplotlib.org/) -->
<svg height="300pt" version="1.1" viewBox="0 0 500 300" width="500pt" xmlns="http://www.w3.org/2000/svg" xmlns:xlink="http://www.w3.org/1999/xlink">
 <metadata>
  <rdf:RDF xmlns:cc="http://creativecommons.org/ns#" xmlns:dc="http://purl.org/dc/elements/1.1/" xmlns:rdf="http://www.w3.org/1999/02/22-rdf-syntax-ns#">
   <cc:Work>
    <dc:type rdf:resource="http://purl.org/dc/dcmitype/StillImage"/>
    <dc:date>2021-07-10T13:30:01.892832</dc:date>
    <dc:format>image/svg+xml</dc:format>
    <dc:creator>
     <cc:Agent>
      <dc:title>Matplotlib v3.3.4, https://matplotlib.org/</dc:title>
     </cc:Agent>
    </dc:creator>
   </cc:Work>
  </rdf:RDF>
 </metadata>
 <defs>
  <style type="text/css">*{stroke-linecap:butt;stroke-linejoin:round;}</style>
 </defs>
 <g id="figure_1">
  <g id="patch_1">
   <path d="M 0 300 
L 500 300 
L 500 0 
L 0 0 
z
" style="fill:#ffffff;"/>
  </g>
  <g id="axes_1">
   <g id="patch_2">
    <path d="M 62.5 262.5 
L 450 262.5 
L 450 27 
L 62.5 27 
z
" style="fill:#ffffff;"/>
   </g>
   <g id="matplotlib.axis_1">
    <g id="xtick_1">
     <g id="line2d_1">
      <defs>
       <path d="M 0 0 
L 0 3.5 
" id="m8dd34c0b89" style="stroke:#555555;stroke-width:0.8;"/>
      </defs>
      <g>
       <use style="fill:#555555;stroke:#555555;stroke-width:0.8;" x="62.5" xlink:href="#m8dd34c0b89" y="262.5"/>
      </g>
     </g>
    </g>
    <g id="xtick_2">
     <g id="line2d_2">
      <g>
       <use style="fill:#555555;stroke:#555555;stroke-width:0.8;" x="133.186813" xlink:href="#m8dd34c0b89" y="262.5"/>
      </g>
     </g>
     <g id="text_1">
      <!-- Jul -->
      <g style="fill:#555555;" transform="translate(126.701657 276.640625)scale(0.1 -0.1)">
       <defs>
        <path d="M 44.09375 17.796875 
L 44.09375 71.40625 
L 34.59375 71.40625 
L 34.59375 19.203125 
Q 34.59375 13.296875 32.140625 9.796875 
Q 29.703125 6.296875 23.203125 6.296875 
Q 19.703125 6.296875 17.453125 7.34375 
Q 15.203125 8.40625 13.953125 10.296875 
Q 12.703125 12.203125 12.203125 14.796875 
Q 11.703125 17.40625 11.703125 20.5 
L 11.703125 23.5 
L 2.203125 23.5 
L 2.203125 19.09375 
Q 2.203125 8.90625 7.59375 3.65625 
Q 13 -1.59375 23 -1.59375 
Q 29 -1.59375 33.046875 0.046875 
Q 37.09375 1.703125 39.546875 4.453125 
Q 42 7.203125 43.046875 10.703125 
Q 44.09375 14.203125 44.09375 17.796875 
z
" id="HelveticaNeue-74"/>
        <path d="M 49.203125 0 
L 49.203125 51.703125 
L 40.703125 51.703125 
L 40.703125 22.5 
Q 40.703125 19 39.75 16.046875 
Q 38.796875 13.09375 36.890625 10.890625 
Q 35 8.703125 32.140625 7.5 
Q 29.296875 6.296875 25.40625 6.296875 
Q 20.5 6.296875 17.703125 9.09375 
Q 14.90625 11.90625 14.90625 16.703125 
L 14.90625 51.703125 
L 6.40625 51.703125 
L 6.40625 17.703125 
Q 6.40625 13.5 7.25 10.046875 
Q 8.09375 6.59375 10.1875 4.09375 
Q 12.296875 1.59375 15.6875 0.25 
Q 19.09375 -1.09375 24.203125 -1.09375 
Q 29.90625 -1.09375 34.09375 1.15625 
Q 38.296875 3.40625 41 8.203125 
L 41.203125 8.203125 
L 41.203125 0 
z
" id="HelveticaNeue-117"/>
        <path d="M 6.90625 71.40625 
L 6.90625 0 
L 15.40625 0 
L 15.40625 71.40625 
z
" id="HelveticaNeue-108"/>
       </defs>
       <use xlink:href="#HelveticaNeue-74"/>
       <use x="51.899994" xlink:href="#HelveticaNeue-117"/>
       <use x="107.499985" xlink:href="#HelveticaNeue-108"/>
      </g>
     </g>
    </g>
    <g id="xtick_3">
     <g id="line2d_3">
      <g>
       <use style="fill:#555555;stroke:#555555;stroke-width:0.8;" x="211.538462" xlink:href="#m8dd34c0b89" y="262.5"/>
      </g>
     </g>
     <g id="text_2">
      <!-- Oct -->
      <g style="fill:#555555;" transform="translate(203.478305 276.640625)scale(0.1 -0.1)">
       <defs>
        <path d="M 13.296875 35.703125 
Q 13.296875 41.09375 14.6875 46.34375 
Q 16.09375 51.59375 19.09375 55.796875 
Q 22.09375 60 26.796875 62.546875 
Q 31.5 65.09375 38 65.09375 
Q 44.5 65.09375 49.203125 62.546875 
Q 53.90625 60 56.90625 55.796875 
Q 59.90625 51.59375 61.296875 46.34375 
Q 62.703125 41.09375 62.703125 35.703125 
Q 62.703125 30.296875 61.296875 25.046875 
Q 59.90625 19.796875 56.90625 15.59375 
Q 53.90625 11.40625 49.203125 8.84375 
Q 44.5 6.296875 38 6.296875 
Q 31.5 6.296875 26.796875 8.84375 
Q 22.09375 11.40625 19.09375 15.59375 
Q 16.09375 19.796875 14.6875 25.046875 
Q 13.296875 30.296875 13.296875 35.703125 
z
M 3.796875 35.703125 
Q 3.796875 28.40625 5.9375 21.65625 
Q 8.09375 14.90625 12.390625 9.703125 
Q 16.703125 4.5 23.09375 1.453125 
Q 29.5 -1.59375 38 -1.59375 
Q 46.5 -1.59375 52.890625 1.453125 
Q 59.296875 4.5 63.59375 9.703125 
Q 67.90625 14.90625 70.046875 21.65625 
Q 72.203125 28.40625 72.203125 35.703125 
Q 72.203125 43 70.046875 49.75 
Q 67.90625 56.5 63.59375 61.703125 
Q 59.296875 66.90625 52.890625 70 
Q 46.5 73.09375 38 73.09375 
Q 29.5 73.09375 23.09375 70 
Q 16.703125 66.90625 12.390625 61.703125 
Q 8.09375 56.5 5.9375 49.75 
Q 3.796875 43 3.796875 35.703125 
z
" id="HelveticaNeue-79"/>
        <path d="M 41.5 35.09375 
L 50.296875 35.09375 
Q 49.796875 39.703125 47.890625 43.046875 
Q 46 46.40625 43.046875 48.59375 
Q 40.09375 50.796875 36.25 51.84375 
Q 32.40625 52.90625 28 52.90625 
Q 21.90625 52.90625 17.296875 50.75 
Q 12.703125 48.59375 9.640625 44.84375 
Q 6.59375 41.09375 5.09375 36.046875 
Q 3.59375 31 3.59375 25.203125 
Q 3.59375 19.40625 5.140625 14.546875 
Q 6.703125 9.703125 9.75 6.203125 
Q 12.796875 2.703125 17.34375 0.796875 
Q 21.90625 -1.09375 27.796875 -1.09375 
Q 37.703125 -1.09375 43.453125 4.09375 
Q 49.203125 9.296875 50.59375 18.90625 
L 41.90625 18.90625 
Q 41.09375 12.90625 37.546875 9.59375 
Q 34 6.296875 27.703125 6.296875 
Q 23.703125 6.296875 20.796875 7.890625 
Q 17.90625 9.5 16.09375 12.140625 
Q 14.296875 14.796875 13.4375 18.1875 
Q 12.59375 21.59375 12.59375 25.203125 
Q 12.59375 29.09375 13.390625 32.75 
Q 14.203125 36.40625 16.046875 39.203125 
Q 17.90625 42 21 43.703125 
Q 24.09375 45.40625 28.703125 45.40625 
Q 34.09375 45.40625 37.296875 42.703125 
Q 40.5 40 41.5 35.09375 
z
" id="HelveticaNeue-99"/>
        <path d="M 18.203125 51.703125 
L 18.203125 67.203125 
L 9.703125 67.203125 
L 9.703125 51.703125 
L 0.90625 51.703125 
L 0.90625 44.203125 
L 9.703125 44.203125 
L 9.703125 11.296875 
Q 9.703125 7.703125 10.390625 5.5 
Q 11.09375 3.296875 12.546875 2.09375 
Q 14 0.90625 16.34375 0.453125 
Q 18.703125 0 22 0 
L 28.5 0 
L 28.5 7.5 
L 24.59375 7.5 
Q 22.59375 7.5 21.34375 7.640625 
Q 20.09375 7.796875 19.390625 8.296875 
Q 18.703125 8.796875 18.453125 9.6875 
Q 18.203125 10.59375 18.203125 12.09375 
L 18.203125 44.203125 
L 28.5 44.203125 
L 28.5 51.703125 
z
" id="HelveticaNeue-116"/>
       </defs>
       <use xlink:href="#HelveticaNeue-79"/>
       <use x="75.999985" xlink:href="#HelveticaNeue-99"/>
       <use x="129.699982" xlink:href="#HelveticaNeue-116"/>
      </g>
     </g>
    </g>
    <g id="xtick_4">
     <g id="line2d_4">
      <g>
       <use style="fill:#555555;stroke:#555555;stroke-width:0.8;" x="289.89011" xlink:href="#m8dd34c0b89" y="262.5"/>
      </g>
     </g>
     <g id="text_3">
      <!-- Jan -->
      <g style="fill:#555555;" transform="translate(281.829954 276.640625)scale(0.1 -0.1)">
       <defs>
        <path d="M 52.203125 0.203125 
Q 50 -1.09375 46.09375 -1.09375 
Q 42.796875 -1.09375 40.84375 0.75 
Q 38.90625 2.59375 38.90625 6.796875 
Q 35.40625 2.59375 30.75 0.75 
Q 26.09375 -1.09375 20.703125 -1.09375 
Q 17.203125 -1.09375 14.046875 -0.296875 
Q 10.90625 0.5 8.59375 2.203125 
Q 6.296875 3.90625 4.9375 6.65625 
Q 3.59375 9.40625 3.59375 13.296875 
Q 3.59375 17.703125 5.09375 20.5 
Q 6.59375 23.296875 9.046875 25.046875 
Q 11.5 26.796875 14.640625 27.6875 
Q 17.796875 28.59375 21.09375 29.203125 
Q 24.59375 29.90625 27.75 30.25 
Q 30.90625 30.59375 33.296875 31.25 
Q 35.703125 31.90625 37.09375 33.15625 
Q 38.5 34.40625 38.5 36.796875 
Q 38.5 39.59375 37.453125 41.296875 
Q 36.40625 43 34.75 43.890625 
Q 33.09375 44.796875 31.046875 45.09375 
Q 29 45.40625 27 45.40625 
Q 21.59375 45.40625 18 43.34375 
Q 14.40625 41.296875 14.09375 35.59375 
L 5.59375 35.59375 
Q 5.796875 40.40625 7.59375 43.703125 
Q 9.40625 47 12.40625 49.046875 
Q 15.40625 51.09375 19.25 52 
Q 23.09375 52.90625 27.5 52.90625 
Q 31 52.90625 34.453125 52.40625 
Q 37.90625 51.90625 40.703125 50.34375 
Q 43.5 48.796875 45.203125 46 
Q 46.90625 43.203125 46.90625 38.703125 
L 46.90625 12.09375 
Q 46.90625 9.09375 47.25 7.6875 
Q 47.59375 6.296875 49.59375 6.296875 
Q 50.703125 6.296875 52.203125 6.796875 
z
M 38.40625 26.703125 
Q 36.796875 25.5 34.1875 24.953125 
Q 31.59375 24.40625 28.75 24.046875 
Q 25.90625 23.703125 23 23.25 
Q 20.09375 22.796875 17.796875 21.796875 
Q 15.5 20.796875 14.046875 18.9375 
Q 12.59375 17.09375 12.59375 13.90625 
Q 12.59375 11.796875 13.4375 10.34375 
Q 14.296875 8.90625 15.640625 8 
Q 17 7.09375 18.796875 6.6875 
Q 20.59375 6.296875 22.59375 6.296875 
Q 26.796875 6.296875 29.796875 7.4375 
Q 32.796875 8.59375 34.6875 10.34375 
Q 36.59375 12.09375 37.5 14.140625 
Q 38.40625 16.203125 38.40625 18 
z
" id="HelveticaNeue-97"/>
        <path d="M 6.40625 51.703125 
L 6.40625 0 
L 14.90625 0 
L 14.90625 29.203125 
Q 14.90625 32.703125 15.84375 35.640625 
Q 16.796875 38.59375 18.6875 40.796875 
Q 20.59375 43 23.4375 44.203125 
Q 26.296875 45.40625 30.203125 45.40625 
Q 35.09375 45.40625 37.890625 42.59375 
Q 40.703125 39.796875 40.703125 35 
L 40.703125 0 
L 49.203125 0 
L 49.203125 34 
Q 49.203125 38.203125 48.34375 41.640625 
Q 47.5 45.09375 45.390625 47.59375 
Q 43.296875 50.09375 39.890625 51.5 
Q 36.5 52.90625 31.40625 52.90625 
Q 19.90625 52.90625 14.59375 43.5 
L 14.40625 43.5 
L 14.40625 51.703125 
z
" id="HelveticaNeue-110"/>
       </defs>
       <use xlink:href="#HelveticaNeue-74"/>
       <use x="51.899994" xlink:href="#HelveticaNeue-97"/>
       <use x="105.599991" xlink:href="#HelveticaNeue-110"/>
      </g>
      <!-- 2021 -->
      <g style="fill:#555555;" transform="translate(278.77136 287.179688)scale(0.1 -0.1)">
       <defs>
        <path d="M 4.40625 45.796875 
L 12.90625 45.796875 
Q 12.796875 49 13.546875 52.140625 
Q 14.296875 55.296875 16 57.796875 
Q 17.703125 60.296875 20.34375 61.84375 
Q 23 63.40625 26.703125 63.40625 
Q 29.5 63.40625 32 62.5 
Q 34.5 61.59375 36.34375 59.890625 
Q 38.203125 58.203125 39.296875 55.84375 
Q 40.40625 53.5 40.40625 50.59375 
Q 40.40625 46.90625 39.25 44.09375 
Q 38.09375 41.296875 35.84375 38.890625 
Q 33.59375 36.5 30.1875 34.140625 
Q 26.796875 31.796875 22.296875 29 
Q 18.59375 26.796875 15.1875 24.296875 
Q 11.796875 21.796875 9.09375 18.5 
Q 6.40625 15.203125 4.65625 10.75 
Q 2.90625 6.296875 2.40625 0 
L 48.703125 0 
L 48.703125 7.5 
L 12.296875 7.5 
Q 12.90625 10.796875 14.84375 13.34375 
Q 16.796875 15.90625 19.546875 18.09375 
Q 22.296875 20.296875 25.59375 22.25 
Q 28.90625 24.203125 32.203125 26.203125 
Q 35.5 28.296875 38.59375 30.59375 
Q 41.703125 32.90625 44.09375 35.75 
Q 46.5 38.59375 47.953125 42.1875 
Q 49.40625 45.796875 49.40625 50.5 
Q 49.40625 55.5 47.65625 59.296875 
Q 45.90625 63.09375 42.90625 65.640625 
Q 39.90625 68.203125 35.84375 69.546875 
Q 31.796875 70.90625 27.203125 70.90625 
Q 21.59375 70.90625 17.1875 69 
Q 12.796875 67.09375 9.84375 63.75 
Q 6.90625 60.40625 5.5 55.796875 
Q 4.09375 51.203125 4.40625 45.796875 
z
" id="HelveticaNeue-50"/>
        <path d="M 13.203125 34.90625 
Q 13.203125 37.5 13.25 40.640625 
Q 13.296875 43.796875 13.75 46.9375 
Q 14.203125 50.09375 15.046875 53.09375 
Q 15.90625 56.09375 17.546875 58.34375 
Q 19.203125 60.59375 21.703125 62 
Q 24.203125 63.40625 27.796875 63.40625 
Q 31.40625 63.40625 33.90625 62 
Q 36.40625 60.59375 38.046875 58.34375 
Q 39.703125 56.09375 40.546875 53.09375 
Q 41.40625 50.09375 41.84375 46.9375 
Q 42.296875 43.796875 42.34375 40.640625 
Q 42.40625 37.5 42.40625 34.90625 
Q 42.40625 30.90625 42.15625 25.953125 
Q 41.90625 21 40.546875 16.640625 
Q 39.203125 12.296875 36.203125 9.296875 
Q 33.203125 6.296875 27.796875 6.296875 
Q 22.40625 6.296875 19.40625 9.296875 
Q 16.40625 12.296875 15.046875 16.640625 
Q 13.703125 21 13.453125 25.953125 
Q 13.203125 30.90625 13.203125 34.90625 
z
M 4.203125 34.796875 
Q 4.203125 30.90625 4.390625 26.703125 
Q 4.59375 22.5 5.390625 18.5 
Q 6.203125 14.5 7.703125 10.953125 
Q 9.203125 7.40625 11.796875 4.703125 
Q 14.40625 2 18.34375 0.453125 
Q 22.296875 -1.09375 27.796875 -1.09375 
Q 33.40625 -1.09375 37.296875 0.453125 
Q 41.203125 2 43.796875 4.703125 
Q 46.40625 7.40625 47.90625 10.953125 
Q 49.40625 14.5 50.203125 18.5 
Q 51 22.5 51.203125 26.703125 
Q 51.40625 30.90625 51.40625 34.796875 
Q 51.40625 38.703125 51.203125 42.890625 
Q 51 47.09375 50.203125 51.09375 
Q 49.40625 55.09375 47.90625 58.6875 
Q 46.40625 62.296875 43.796875 65 
Q 41.203125 67.703125 37.25 69.296875 
Q 33.296875 70.90625 27.796875 70.90625 
Q 22.296875 70.90625 18.34375 69.296875 
Q 14.40625 67.703125 11.796875 65 
Q 9.203125 62.296875 7.703125 58.6875 
Q 6.203125 55.09375 5.390625 51.09375 
Q 4.59375 47.09375 4.390625 42.890625 
Q 4.203125 38.703125 4.203125 34.796875 
z
" id="HelveticaNeue-48"/>
        <path d="M 35.59375 0 
L 35.59375 70.90625 
L 29.09375 70.90625 
Q 28.40625 66.90625 26.5 64.296875 
Q 24.59375 61.703125 21.84375 60.203125 
Q 19.09375 58.703125 15.6875 58.140625 
Q 12.296875 57.59375 8.703125 57.59375 
L 8.703125 50.796875 
L 27.09375 50.796875 
L 27.09375 0 
z
" id="HelveticaNeue-49"/>
       </defs>
       <use xlink:href="#HelveticaNeue-50"/>
       <use x="55.599991" xlink:href="#HelveticaNeue-48"/>
       <use x="111.199982" xlink:href="#HelveticaNeue-50"/>
       <use x="166.799973" xlink:href="#HelveticaNeue-49"/>
      </g>
     </g>
    </g>
    <g id="xtick_5">
     <g id="line2d_5">
      <g>
       <use style="fill:#555555;stroke:#555555;stroke-width:0.8;" x="366.538462" xlink:href="#m8dd34c0b89" y="262.5"/>
      </g>
     </g>
     <g id="text_4">
      <!-- Apr -->
      <g style="fill:#555555;" transform="translate(358.66893 276.640625)scale(0.1 -0.1)">
       <defs>
        <path d="M 20.09375 29.5 
L 32.203125 62.796875 
L 32.40625 62.796875 
L 44.296875 29.5 
z
M 27.203125 71.40625 
L -0.59375 0 
L 9.09375 0 
L 17.09375 21.5 
L 47.296875 21.5 
L 55.09375 0 
L 65.59375 0 
L 37.703125 71.40625 
z
" id="HelveticaNeue-65"/>
        <path d="M 6.703125 51.703125 
L 6.703125 -19.703125 
L 15.203125 -19.703125 
L 15.203125 6.90625 
L 15.40625 6.90625 
Q 16.796875 4.59375 18.84375 3.046875 
Q 20.90625 1.5 23.203125 0.59375 
Q 25.5 -0.296875 27.84375 -0.6875 
Q 30.203125 -1.09375 32.09375 -1.09375 
Q 38 -1.09375 42.453125 1 
Q 46.90625 3.09375 49.84375 6.75 
Q 52.796875 10.40625 54.25 15.296875 
Q 55.703125 20.203125 55.703125 25.703125 
Q 55.703125 31.203125 54.203125 36.09375 
Q 52.703125 41 49.75 44.75 
Q 46.796875 48.5 42.34375 50.703125 
Q 37.90625 52.90625 31.90625 52.90625 
Q 26.5 52.90625 22 50.953125 
Q 17.5 49 15.40625 44.703125 
L 15.203125 44.703125 
L 15.203125 51.703125 
z
M 46.703125 26.296875 
Q 46.703125 22.5 45.890625 18.890625 
Q 45.09375 15.296875 43.296875 12.5 
Q 41.5 9.703125 38.546875 8 
Q 35.59375 6.296875 31.203125 6.296875 
Q 26.796875 6.296875 23.6875 7.9375 
Q 20.59375 9.59375 18.640625 12.296875 
Q 16.703125 15 15.796875 18.546875 
Q 14.90625 22.09375 14.90625 25.90625 
Q 14.90625 29.5 15.75 33 
Q 16.59375 36.5 18.5 39.25 
Q 20.40625 42 23.40625 43.703125 
Q 26.40625 45.40625 30.703125 45.40625 
Q 34.796875 45.40625 37.84375 43.796875 
Q 40.90625 42.203125 42.84375 39.5 
Q 44.796875 36.796875 45.75 33.34375 
Q 46.703125 29.90625 46.703125 26.296875 
z
" id="HelveticaNeue-112"/>
        <path d="M 6.09375 51.703125 
L 6.09375 0 
L 14.59375 0 
L 14.59375 23 
Q 14.59375 28 15.59375 31.84375 
Q 16.59375 35.703125 18.796875 38.390625 
Q 21 41.09375 24.59375 42.5 
Q 28.203125 43.90625 33.296875 43.90625 
L 33.296875 52.90625 
Q 26.40625 53.09375 21.90625 50.09375 
Q 17.40625 47.09375 14.296875 40.796875 
L 14.09375 40.796875 
L 14.09375 51.703125 
z
" id="HelveticaNeue-114"/>
       </defs>
       <use xlink:href="#HelveticaNeue-65"/>
       <use x="64.799988" xlink:href="#HelveticaNeue-112"/>
       <use x="124.099976" xlink:href="#HelveticaNeue-114"/>
      </g>
     </g>
    </g>
    <g id="xtick_6">
     <g id="line2d_6">
      <g>
       <use style="fill:#555555;stroke:#555555;stroke-width:0.8;" x="444.038462" xlink:href="#m8dd34c0b89" y="262.5"/>
      </g>
     </g>
     <g id="text_5">
      <!-- Jul -->
      <g style="fill:#555555;" transform="translate(437.553305 276.640625)scale(0.1 -0.1)">
       <use xlink:href="#HelveticaNeue-74"/>
       <use x="51.899994" xlink:href="#HelveticaNeue-117"/>
       <use x="107.499985" xlink:href="#HelveticaNeue-108"/>
      </g>
     </g>
    </g>
    <g id="xtick_7">
     <g id="line2d_7">
      <g>
       <use style="fill:#555555;stroke:#555555;stroke-width:0.8;" x="450" xlink:href="#m8dd34c0b89" y="262.5"/>
      </g>
     </g>
    </g>
    <g id="xtick_8">
     <g id="line2d_8">
      <defs>
       <path d="M 0 0 
L 0 2 
" id="m863983d8f7" style="stroke:#555555;stroke-width:0.6;"/>
      </defs>
      <g>
       <use style="fill:#555555;stroke:#555555;stroke-width:0.6;" x="81.236264" xlink:href="#m863983d8f7" y="262.5"/>
      </g>
     </g>
    </g>
    <g id="xtick_9">
     <g id="line2d_9">
      <g>
       <use style="fill:#555555;stroke:#555555;stroke-width:0.6;" x="107.637363" xlink:href="#m863983d8f7" y="262.5"/>
      </g>
     </g>
    </g>
    <g id="xtick_10">
     <g id="line2d_10">
      <g>
       <use style="fill:#555555;stroke:#555555;stroke-width:0.6;" x="159.587912" xlink:href="#m863983d8f7" y="262.5"/>
      </g>
     </g>
    </g>
    <g id="xtick_11">
     <g id="line2d_11">
      <g>
       <use style="fill:#555555;stroke:#555555;stroke-width:0.6;" x="185.989011" xlink:href="#m863983d8f7" y="262.5"/>
      </g>
     </g>
    </g>
    <g id="xtick_12">
     <g id="line2d_12">
      <g>
       <use style="fill:#555555;stroke:#555555;stroke-width:0.6;" x="237.93956" xlink:href="#m863983d8f7" y="262.5"/>
      </g>
     </g>
    </g>
    <g id="xtick_13">
     <g id="line2d_13">
      <g>
       <use style="fill:#555555;stroke:#555555;stroke-width:0.6;" x="263.489011" xlink:href="#m863983d8f7" y="262.5"/>
      </g>
     </g>
    </g>
    <g id="xtick_14">
     <g id="line2d_14">
      <g>
       <use style="fill:#555555;stroke:#555555;stroke-width:0.6;" x="316.291209" xlink:href="#m863983d8f7" y="262.5"/>
      </g>
     </g>
    </g>
    <g id="xtick_15">
     <g id="line2d_15">
      <g>
       <use style="fill:#555555;stroke:#555555;stroke-width:0.6;" x="340.137363" xlink:href="#m863983d8f7" y="262.5"/>
      </g>
     </g>
    </g>
    <g id="xtick_16">
     <g id="line2d_16">
      <g>
       <use style="fill:#555555;stroke:#555555;stroke-width:0.6;" x="392.087912" xlink:href="#m863983d8f7" y="262.5"/>
      </g>
     </g>
    </g>
    <g id="xtick_17">
     <g id="line2d_17">
      <g>
       <use style="fill:#555555;stroke:#555555;stroke-width:0.6;" x="418.489011" xlink:href="#m863983d8f7" y="262.5"/>
      </g>
     </g>
    </g>
    <g id="text_6">
     <!-- fecha -->
     <g style="fill:#555555;" transform="translate(243.935156 300.290625)scale(0.1 -0.1)">
      <defs>
       <path d="M 9.90625 44.203125 
L 9.90625 0 
L 18.40625 0 
L 18.40625 44.203125 
L 28.40625 44.203125 
L 28.40625 51.703125 
L 18.40625 51.703125 
L 18.40625 58.90625 
Q 18.40625 62.296875 20.09375 63.5 
Q 21.796875 64.703125 24.90625 64.703125 
Q 26 64.703125 27.296875 64.546875 
Q 28.59375 64.40625 29.703125 64 
L 29.703125 71.40625 
Q 28.5 71.796875 26.953125 72 
Q 25.40625 72.203125 24.203125 72.203125 
Q 17.203125 72.203125 13.546875 68.953125 
Q 9.90625 65.703125 9.90625 59.40625 
L 9.90625 51.703125 
L 1.203125 51.703125 
L 1.203125 44.203125 
z
" id="HelveticaNeue-102"/>
       <path d="M 42.296875 30.796875 
L 12.59375 30.796875 
Q 12.796875 33.796875 13.890625 36.4375 
Q 15 39.09375 16.890625 41.09375 
Q 18.796875 43.09375 21.4375 44.25 
Q 24.09375 45.40625 27.40625 45.40625 
Q 30.59375 45.40625 33.25 44.25 
Q 35.90625 43.09375 37.84375 41.140625 
Q 39.796875 39.203125 40.9375 36.5 
Q 42.09375 33.796875 42.296875 30.796875 
z
M 50.5 16.40625 
L 42.09375 16.40625 
Q 41 11.296875 37.546875 8.796875 
Q 34.09375 6.296875 28.703125 6.296875 
Q 24.5 6.296875 21.390625 7.6875 
Q 18.296875 9.09375 16.296875 11.4375 
Q 14.296875 13.796875 13.390625 16.84375 
Q 12.5 19.90625 12.59375 23.296875 
L 51.296875 23.296875 
Q 51.5 28 50.453125 33.203125 
Q 49.40625 38.40625 46.65625 42.796875 
Q 43.90625 47.203125 39.34375 50.046875 
Q 34.796875 52.90625 27.90625 52.90625 
Q 22.59375 52.90625 18.140625 50.90625 
Q 13.703125 48.90625 10.453125 45.296875 
Q 7.203125 41.703125 5.390625 36.796875 
Q 3.59375 31.90625 3.59375 26 
Q 3.796875 20.09375 5.34375 15.09375 
Q 6.90625 10.09375 10 6.5 
Q 13.09375 2.90625 17.640625 0.90625 
Q 22.203125 -1.09375 28.40625 -1.09375 
Q 37.203125 -1.09375 43 3.296875 
Q 48.796875 7.703125 50.5 16.40625 
z
" id="HelveticaNeue-101"/>
       <path d="M 6.40625 71.40625 
L 6.40625 0 
L 14.90625 0 
L 14.90625 29.203125 
Q 14.90625 32.703125 15.84375 35.640625 
Q 16.796875 38.59375 18.6875 40.796875 
Q 20.59375 43 23.4375 44.203125 
Q 26.296875 45.40625 30.203125 45.40625 
Q 35.09375 45.40625 37.890625 42.59375 
Q 40.703125 39.796875 40.703125 35 
L 40.703125 0 
L 49.203125 0 
L 49.203125 34 
Q 49.203125 38.203125 48.34375 41.640625 
Q 47.5 45.09375 45.390625 47.59375 
Q 43.296875 50.09375 39.890625 51.5 
Q 36.5 52.90625 31.40625 52.90625 
Q 29.09375 52.90625 26.640625 52.40625 
Q 24.203125 51.90625 21.953125 50.84375 
Q 19.703125 49.796875 17.890625 48.140625 
Q 16.09375 46.5 15.09375 44.09375 
L 14.90625 44.09375 
L 14.90625 71.40625 
z
" id="HelveticaNeue-104"/>
      </defs>
      <use xlink:href="#HelveticaNeue-102"/>
      <use x="29.599991" xlink:href="#HelveticaNeue-101"/>
      <use x="83.299988" xlink:href="#HelveticaNeue-99"/>
      <use x="136.999985" xlink:href="#HelveticaNeue-104"/>
      <use x="192.599976" xlink:href="#HelveticaNeue-97"/>
     </g>
    </g>
   </g>
   <g id="matplotlib.axis_2">
    <g id="ytick_1">
     <g id="line2d_18">
      <defs>
       <path d="M 0 0 
L -3.5 0 
" id="m95ee0f81e9" style="stroke:#555555;stroke-width:0.8;"/>
      </defs>
      <g>
       <use style="fill:#555555;stroke:#555555;stroke-width:0.8;" x="62.5" xlink:href="#m95ee0f81e9" y="251.795455"/>
      </g>
     </g>
     <g id="text_7">
      <!-- 0 -->
      <g style="fill:#555555;" transform="translate(49.940625 255.365767)scale(0.1 -0.1)">
       <use xlink:href="#HelveticaNeue-48"/>
      </g>
     </g>
    </g>
    <g id="ytick_2">
     <g id="line2d_19">
      <g>
       <use style="fill:#555555;stroke:#555555;stroke-width:0.8;" x="62.5" xlink:href="#m95ee0f81e9" y="223.99144"/>
      </g>
     </g>
     <g id="text_8">
      <!-- 50 -->
      <g style="fill:#555555;" transform="translate(44.38125 227.561753)scale(0.1 -0.1)">
       <defs>
        <path d="M 47 62.203125 
L 47 69.703125 
L 12 69.703125 
L 5.40625 32.90625 
L 12.703125 32.5 
Q 15.203125 35.5 18.453125 37.34375 
Q 21.703125 39.203125 25.90625 39.203125 
Q 29.5 39.203125 32.453125 38 
Q 35.40625 36.796875 37.5 34.640625 
Q 39.59375 32.5 40.75 29.546875 
Q 41.90625 26.59375 41.90625 23.09375 
Q 41.90625 18.90625 40.703125 15.75 
Q 39.5 12.59375 37.453125 10.5 
Q 35.40625 8.40625 32.65625 7.34375 
Q 29.90625 6.296875 26.90625 6.296875 
Q 23.703125 6.296875 21.046875 7.25 
Q 18.40625 8.203125 16.453125 9.953125 
Q 14.5 11.703125 13.34375 14.046875 
Q 12.203125 16.40625 12 19.09375 
L 3.5 19.09375 
Q 3.59375 14.296875 5.390625 10.5 
Q 7.203125 6.703125 10.296875 4.140625 
Q 13.40625 1.59375 17.453125 0.25 
Q 21.5 -1.09375 26.09375 -1.09375 
Q 32.296875 -1.09375 36.9375 0.84375 
Q 41.59375 2.796875 44.6875 6.09375 
Q 47.796875 9.40625 49.34375 13.65625 
Q 50.90625 17.90625 50.90625 22.40625 
Q 50.90625 28.5 49.09375 33.046875 
Q 47.296875 37.59375 44.1875 40.640625 
Q 41.09375 43.703125 36.890625 45.203125 
Q 32.703125 46.703125 28 46.703125 
Q 24.40625 46.703125 20.75 45.453125 
Q 17.09375 44.203125 14.796875 41.59375 
L 14.59375 41.796875 
L 18.40625 62.203125 
z
" id="HelveticaNeue-53"/>
       </defs>
       <use xlink:href="#HelveticaNeue-53"/>
       <use x="55.599991" xlink:href="#HelveticaNeue-48"/>
      </g>
     </g>
    </g>
    <g id="ytick_3">
     <g id="line2d_20">
      <g>
       <use style="fill:#555555;stroke:#555555;stroke-width:0.8;" x="62.5" xlink:href="#m95ee0f81e9" y="196.187426"/>
      </g>
     </g>
     <g id="text_9">
      <!-- 100 -->
      <g style="fill:#555555;" transform="translate(38.821875 199.757739)scale(0.1 -0.1)">
       <use xlink:href="#HelveticaNeue-49"/>
       <use x="55.599991" xlink:href="#HelveticaNeue-48"/>
       <use x="111.199982" xlink:href="#HelveticaNeue-48"/>
      </g>
     </g>
    </g>
    <g id="ytick_4">
     <g id="line2d_21">
      <g>
       <use style="fill:#555555;stroke:#555555;stroke-width:0.8;" x="62.5" xlink:href="#m95ee0f81e9" y="168.383412"/>
      </g>
     </g>
     <g id="text_10">
      <!-- 150 -->
      <g style="fill:#555555;" transform="translate(38.821875 171.953725)scale(0.1 -0.1)">
       <use xlink:href="#HelveticaNeue-49"/>
       <use x="55.599991" xlink:href="#HelveticaNeue-53"/>
       <use x="111.199982" xlink:href="#HelveticaNeue-48"/>
      </g>
     </g>
    </g>
    <g id="ytick_5">
     <g id="line2d_22">
      <g>
       <use style="fill:#555555;stroke:#555555;stroke-width:0.8;" x="62.5" xlink:href="#m95ee0f81e9" y="140.579398"/>
      </g>
     </g>
     <g id="text_11">
      <!-- 200 -->
      <g style="fill:#555555;" transform="translate(38.821875 144.14971)scale(0.1 -0.1)">
       <use xlink:href="#HelveticaNeue-50"/>
       <use x="55.599991" xlink:href="#HelveticaNeue-48"/>
       <use x="111.199982" xlink:href="#HelveticaNeue-48"/>
      </g>
     </g>
    </g>
    <g id="ytick_6">
     <g id="line2d_23">
      <g>
       <use style="fill:#555555;stroke:#555555;stroke-width:0.8;" x="62.5" xlink:href="#m95ee0f81e9" y="112.775384"/>
      </g>
     </g>
     <g id="text_12">
      <!-- 250 -->
      <g style="fill:#555555;" transform="translate(38.821875 116.345696)scale(0.1 -0.1)">
       <use xlink:href="#HelveticaNeue-50"/>
       <use x="55.599991" xlink:href="#HelveticaNeue-53"/>
       <use x="111.199982" xlink:href="#HelveticaNeue-48"/>
      </g>
     </g>
    </g>
    <g id="ytick_7">
     <g id="line2d_24">
      <g>
       <use style="fill:#555555;stroke:#555555;stroke-width:0.8;" x="62.5" xlink:href="#m95ee0f81e9" y="84.97137"/>
      </g>
     </g>
     <g id="text_13">
      <!-- 300 -->
      <g style="fill:#555555;" transform="translate(38.821875 88.541682)scale(0.1 -0.1)">
       <defs>
        <path d="M 21.796875 40.5 
L 21.796875 33.296875 
Q 24.203125 33.59375 26.90625 33.59375 
Q 30.09375 33.59375 32.84375 32.75 
Q 35.59375 31.90625 37.59375 30.15625 
Q 39.59375 28.40625 40.796875 25.84375 
Q 42 23.296875 42 20 
Q 42 16.796875 40.75 14.25 
Q 39.5 11.703125 37.390625 9.953125 
Q 35.296875 8.203125 32.5 7.25 
Q 29.703125 6.296875 26.59375 6.296875 
Q 19.296875 6.296875 15.5 10.640625 
Q 11.703125 15 11.5 21.90625 
L 3 21.90625 
Q 2.90625 16.40625 4.546875 12.09375 
Q 6.203125 7.796875 9.296875 4.84375 
Q 12.40625 1.90625 16.796875 0.40625 
Q 21.203125 -1.09375 26.59375 -1.09375 
Q 31.59375 -1.09375 36.046875 0.25 
Q 40.5 1.59375 43.796875 4.296875 
Q 47.09375 7 49.046875 11.046875 
Q 51 15.09375 51 20.40625 
Q 51 26.796875 47.84375 31.5 
Q 44.703125 36.203125 38.203125 37.59375 
L 38.203125 37.796875 
Q 42.40625 39.703125 45.203125 43.390625 
Q 48 47.09375 48 51.90625 
Q 48 56.796875 46.34375 60.390625 
Q 44.703125 64 41.796875 66.296875 
Q 38.90625 68.59375 34.953125 69.75 
Q 31 70.90625 26.40625 70.90625 
Q 21.09375 70.90625 17.046875 69.203125 
Q 13 67.5 10.296875 64.5 
Q 7.59375 61.5 6.140625 57.296875 
Q 4.703125 53.09375 4.5 48 
L 13 48 
Q 13 51.09375 13.796875 53.890625 
Q 14.59375 56.703125 16.25 58.796875 
Q 17.90625 60.90625 20.453125 62.15625 
Q 23 63.40625 26.40625 63.40625 
Q 31.796875 63.40625 35.390625 60.546875 
Q 39 57.703125 39 52 
Q 39 49.203125 37.890625 47 
Q 36.796875 44.796875 34.9375 43.34375 
Q 33.09375 41.90625 30.640625 41.15625 
Q 28.203125 40.40625 25.5 40.40625 
L 23.703125 40.40625 
Q 23.203125 40.40625 22.703125 40.40625 
Q 22.296875 40.40625 21.796875 40.5 
z
" id="HelveticaNeue-51"/>
       </defs>
       <use xlink:href="#HelveticaNeue-51"/>
       <use x="55.599991" xlink:href="#HelveticaNeue-48"/>
       <use x="111.199982" xlink:href="#HelveticaNeue-48"/>
      </g>
     </g>
    </g>
    <g id="ytick_8">
     <g id="line2d_25">
      <g>
       <use style="fill:#555555;stroke:#555555;stroke-width:0.8;" x="62.5" xlink:href="#m95ee0f81e9" y="57.167355"/>
      </g>
     </g>
     <g id="text_14">
      <!-- 350 -->
      <g style="fill:#555555;" transform="translate(38.821875 60.737668)scale(0.1 -0.1)">
       <use xlink:href="#HelveticaNeue-51"/>
       <use x="55.599991" xlink:href="#HelveticaNeue-53"/>
       <use x="111.199982" xlink:href="#HelveticaNeue-48"/>
      </g>
     </g>
    </g>
    <g id="ytick_9">
     <g id="line2d_26">
      <g>
       <use style="fill:#555555;stroke:#555555;stroke-width:0.8;" x="62.5" xlink:href="#m95ee0f81e9" y="29.363341"/>
      </g>
     </g>
     <g id="text_15">
      <!-- 400 -->
      <g style="fill:#555555;" transform="translate(38.821875 32.933654)scale(0.1 -0.1)">
       <defs>
        <path d="M 33.90625 24.09375 
L 10.09375 24.09375 
L 33.703125 58.796875 
L 33.90625 58.796875 
z
M 41.90625 24.09375 
L 41.90625 70.90625 
L 35.09375 70.90625 
L 2.796875 24.796875 
L 2.796875 16.59375 
L 33.90625 16.59375 
L 33.90625 0 
L 41.90625 0 
L 41.90625 16.59375 
L 51.5 16.59375 
L 51.5 24.09375 
z
" id="HelveticaNeue-52"/>
       </defs>
       <use xlink:href="#HelveticaNeue-52"/>
       <use x="55.599991" xlink:href="#HelveticaNeue-48"/>
       <use x="111.199982" xlink:href="#HelveticaNeue-48"/>
      </g>
     </g>
    </g>
   </g>
   <g id="line2d_27">
    <path clip-path="url(#p31f4923287)" d="M 62.5 250.683294 
L 64.203297 251.795455 
L 65.906593 251.795455 
L 66.758242 251.239374 
L 67.60989 251.795455 
L 68.461538 250.683294 
L 70.164835 249.571133 
L 72.71978 251.239374 
L 73.571429 249.015053 
L 74.423077 249.571133 
L 75.274725 249.015053 
L 76.126374 251.239374 
L 76.978022 247.902893 
L 77.82967 250.127214 
L 78.681319 245.678571 
L 79.532967 250.683294 
L 80.384615 250.683294 
L 81.236264 250.127214 
L 82.93956 250.127214 
L 83.791209 249.571133 
L 84.642857 238.449528 
L 85.494505 250.127214 
L 86.346154 245.678571 
L 87.197802 247.346812 
L 88.049451 246.790732 
L 88.901099 246.790732 
L 89.752747 246.234652 
L 90.604396 249.571133 
L 91.456044 250.127214 
L 92.307692 247.346812 
L 93.159341 241.786009 
L 94.010989 246.234652 
L 95.714286 249.571133 
L 96.565934 245.122491 
L 97.417582 245.678571 
L 98.269231 250.127214 
L 99.120879 247.346812 
L 99.972527 244.010331 
L 100.824176 248.458973 
L 101.675824 244.566411 
L 102.527473 249.015053 
L 103.379121 242.89817 
L 104.230769 240.117769 
L 105.082418 238.449528 
L 105.934066 246.234652 
L 106.785714 247.902893 
L 107.637363 248.458973 
L 108.489011 244.010331 
L 109.340659 235.113046 
L 110.192308 246.234652 
L 111.043956 244.566411 
L 111.895604 246.234652 
L 112.747253 239.561688 
L 113.598901 240.117769 
L 114.450549 239.561688 
L 115.302198 234.556966 
L 116.153846 247.346812 
L 117.005495 242.34209 
L 117.857143 245.122491 
L 118.708791 240.117769 
L 119.56044 242.89817 
L 120.412088 238.449528 
L 121.263736 240.673849 
L 122.115385 235.669126 
L 122.967033 228.996163 
L 123.818681 228.996163 
L 124.67033 240.117769 
L 125.521978 193.407025 
L 126.373626 239.005608 
L 127.225275 204.52863 
L 128.076923 239.005608 
L 128.928571 208.977273 
L 129.78022 240.673849 
L 130.631868 222.87928 
L 131.483516 237.337367 
L 132.335165 225.103601 
L 133.186813 214.538076 
L 134.038462 218.986718 
L 134.89011 229.552243 
L 135.741758 222.87928 
L 136.593407 223.43536 
L 137.445055 217.874557 
L 138.296703 186.734061 
L 139.148352 186.177981 
L 140 218.430638 
L 140.851648 212.313754 
L 141.703297 220.654959 
L 142.554945 210.645514 
L 143.406593 218.430638 
L 144.258242 208.977273 
L 145.10989 165.04693 
L 146.813187 216.206316 
L 147.664835 203.41647 
L 148.516484 193.963105 
L 149.368132 221.767119 
L 150.21978 212.313754 
L 151.071429 176.168536 
L 151.923077 178.392857 
L 152.774725 173.944215 
L 153.626374 188.402302 
L 154.478022 198.967828 
L 155.32967 205.640791 
L 156.181319 142.803719 
L 157.032967 193.407025 
L 157.884615 155.037485 
L 158.736264 176.724616 
L 159.587912 160.042208 
L 160.43956 201.192149 
L 161.291209 165.04693 
L 162.142857 141.135478 
L 162.994505 163.378689 
L 163.846154 199.523908 
L 164.697802 193.963105 
L 166.401099 201.748229 
L 168.104396 133.906434 
L 168.956044 175.056375 
L 169.807692 176.724616 
L 170.659341 158.373967 
L 171.510989 126.677391 
L 172.362637 185.621901 
L 173.214286 169.495573 
L 174.065934 175.612456 
L 174.917582 192.294864 
L 175.769231 136.686836 
L 176.620879 166.715171 
L 177.472527 189.514463 
L 178.324176 195.075266 
L 179.175824 170.607733 
L 180.027473 202.304309 
L 180.879121 162.822609 
L 181.730769 213.981995 
L 182.582418 176.724616 
L 183.434066 197.299587 
L 184.285714 207.309032 
L 185.989011 176.168536 
L 186.840659 189.514463 
L 187.692308 170.607733 
L 188.543956 223.43536 
L 189.395604 211.757674 
L 190.247253 226.771842 
L 191.098901 184.50974 
L 191.950549 222.3232 
L 193.653846 173.944215 
L 194.505495 210.089433 
L 195.357143 212.313754 
L 196.208791 236.781287 
L 197.06044 207.309032 
L 197.912088 191.738784 
L 198.763736 216.762397 
L 199.615385 210.089433 
L 200.467033 218.986718 
L 201.318681 199.523908 
L 202.17033 206.196871 
L 203.021978 198.411747 
L 203.873626 217.874557 
L 204.725275 195.075266 
L 205.576923 211.757674 
L 206.428571 222.87928 
L 207.28022 224.547521 
L 208.131868 240.117769 
L 208.983516 226.771842 
L 209.835165 201.192149 
L 210.686813 221.767119 
L 211.538462 221.211039 
L 212.39011 209.533353 
L 213.241758 188.402302 
L 214.093407 192.294864 
L 214.945055 203.97255 
L 215.796703 212.869835 
L 216.648352 207.865112 
L 217.5 221.767119 
L 218.351648 223.99144 
L 219.203297 221.767119 
L 220.054945 232.888725 
L 220.906593 222.87928 
L 221.758242 236.781287 
L 222.60989 225.659681 
L 223.461538 206.752952 
L 224.313187 222.87928 
L 225.164835 227.327922 
L 226.016484 241.786009 
L 226.868132 222.3232 
L 227.71978 215.650236 
L 228.571429 229.552243 
L 229.423077 222.3232 
L 230.274725 212.313754 
L 231.126374 232.888725 
L 231.978022 237.337367 
L 232.82967 211.757674 
L 233.681319 200.636068 
L 234.532967 212.869835 
L 235.384615 216.206316 
L 236.236264 222.87928 
L 237.087912 217.874557 
L 237.93956 220.654959 
L 238.791209 219.542798 
L 239.642857 213.981995 
L 240.494505 203.97255 
L 241.346154 215.094156 
L 242.197802 213.981995 
L 243.901099 228.996163 
L 244.752747 210.645514 
L 245.604396 216.206316 
L 246.456044 212.313754 
L 247.307692 206.196871 
L 248.159341 212.313754 
L 249.010989 233.444805 
L 249.862637 217.874557 
L 250.714286 205.640791 
L 251.565934 211.201594 
L 252.417582 213.981995 
L 253.269231 212.869835 
L 254.120879 221.767119 
L 254.972527 211.757674 
L 256.675824 226.771842 
L 257.527473 216.762397 
L 258.379121 179.505018 
L 259.230769 180.061098 
L 260.082418 207.309032 
L 260.934066 214.538076 
L 261.785714 231.220484 
L 262.637363 220.098878 
L 263.489011 200.079988 
L 264.340659 215.094156 
L 265.192308 234.556966 
L 266.043956 197.299587 
L 266.895604 200.079988 
L 267.747253 239.005608 
L 268.598901 213.425915 
L 269.450549 217.874557 
L 270.302198 205.084711 
L 271.153846 204.52863 
L 272.005495 198.411747 
L 272.857143 207.865112 
L 273.708791 225.659681 
L 274.56044 181.173259 
L 275.412088 206.196871 
L 276.263736 139.467237 
L 277.115385 222.3232 
L 277.967033 183.39758 
L 278.818681 203.41647 
L 279.67033 201.748229 
L 280.521978 186.177981 
L 281.373626 186.177981 
L 282.225275 203.41647 
L 283.076923 172.832054 
L 283.928571 203.41647 
L 284.78022 211.757674 
L 285.631868 200.079988 
L 286.483516 172.832054 
L 287.335165 172.275974 
L 288.186813 170.607733 
L 289.038462 196.187426 
L 289.89011 225.659681 
L 291.593407 173.944215 
L 292.445055 160.598288 
L 293.296703 140.579398 
L 294.148352 171.719894 
L 295 175.612456 
L 295.851648 149.476682 
L 296.703297 156.705726 
L 297.554945 191.182704 
L 298.406593 196.187426 
L 299.258242 142.803719 
L 300.10989 156.149646 
L 300.961538 156.149646 
L 301.813187 167.271251 
L 302.664835 171.163813 
L 303.516484 162.266529 
L 304.368132 187.846222 
L 305.21978 152.813164 
L 306.071429 160.042208 
L 306.923077 178.948937 
L 307.774725 180.617178 
L 308.626374 183.95366 
L 309.478022 197.299587 
L 310.32967 174.500295 
L 311.181319 94.980815 
L 312.032967 201.192149 
L 312.884615 171.719894 
L 313.736264 211.201594 
L 314.587912 231.220484 
L 315.43956 203.97255 
L 316.291209 226.771842 
L 317.142857 225.103601 
L 317.994505 216.762397 
L 318.846154 212.869835 
L 319.697802 218.430638 
L 320.549451 225.103601 
L 321.401099 237.337367 
L 322.252747 234.000885 
L 323.104396 228.440083 
L 323.956044 220.654959 
L 324.807692 216.206316 
L 325.659341 233.444805 
L 326.510989 225.103601 
L 327.362637 234.000885 
L 328.214286 240.673849 
L 329.065934 228.996163 
L 329.917582 225.103601 
L 330.769231 233.444805 
L 331.620879 234.000885 
L 332.472527 232.888725 
L 333.324176 245.678571 
L 334.175824 239.005608 
L 335.027473 236.781287 
L 335.879121 232.888725 
L 336.730769 236.225207 
L 337.582418 231.776564 
L 338.434066 242.34209 
L 339.285714 238.449528 
L 340.137363 238.449528 
L 340.989011 228.996163 
L 341.840659 236.781287 
L 342.692308 241.786009 
L 343.543956 237.337367 
L 344.395604 241.786009 
L 345.247253 242.89817 
L 346.098901 240.673849 
L 346.950549 237.893447 
L 347.802198 242.34209 
L 348.653846 235.113046 
L 349.505495 241.786009 
L 350.357143 242.89817 
L 351.208791 239.005608 
L 352.06044 240.673849 
L 352.912088 244.010331 
L 353.763736 236.781287 
L 354.615385 239.005608 
L 355.467033 237.893447 
L 356.318681 242.89817 
L 357.17033 242.89817 
L 358.021978 246.790732 
L 358.873626 238.449528 
L 359.725275 237.337367 
L 360.576923 236.781287 
L 361.428571 230.664404 
L 362.28022 237.337367 
L 363.131868 240.673849 
L 364.835165 226.771842 
L 365.686813 214.538076 
L 366.538462 236.781287 
L 367.39011 218.430638 
L 368.241758 228.996163 
L 369.093407 241.786009 
L 370.796703 187.290142 
L 371.648352 220.654959 
L 372.5 198.411747 
L 373.351648 219.542798 
L 374.203297 222.87928 
L 375.054945 163.93477 
L 375.906593 215.094156 
L 376.758242 167.271251 
L 377.60989 187.290142 
L 378.461538 186.177981 
L 379.313187 161.154368 
L 380.164835 198.411747 
L 381.016484 220.654959 
L 381.868132 138.355077 
L 382.71978 167.271251 
L 383.571429 153.369244 
L 385.274725 180.617178 
L 386.126374 183.95366 
L 386.978022 195.631346 
L 387.82967 177.836777 
L 389.532967 193.407025 
L 390.384615 179.505018 
L 391.236264 192.294864 
L 392.087912 177.280697 
L 392.93956 187.846222 
L 393.791209 142.247639 
L 394.642857 157.261806 
L 395.494505 165.603011 
L 396.346154 169.495573 
L 397.197802 170.607733 
L 398.049451 152.257084 
L 398.901099 198.411747 
L 399.752747 136.130756 
L 400.604396 148.920602 
L 401.456044 183.39758 
L 402.307692 147.252361 
L 403.159341 155.593566 
L 404.010989 177.836777 
L 404.862637 175.056375 
L 405.714286 186.177981 
L 406.565934 147.808442 
L 407.417582 144.47196 
L 408.269231 95.536895 
L 409.120879 140.023318 
L 409.972527 169.495573 
L 410.824176 113.887544 
L 411.675824 127.233471 
L 412.527473 98.317296 
L 413.379121 101.097698 
L 414.230769 141.691558 
L 415.082418 132.794274 
L 415.934066 37.704545 
L 416.785714 182.841499 
L 417.637363 141.691558 
L 418.489011 87.195691 
L 419.340659 58.835596 
L 420.192308 99.985537 
L 421.043956 108.882822 
L 421.895604 120.560508 
L 422.747253 144.47196 
L 423.598901 163.378689 
L 424.450549 77.742326 
L 425.302198 52.718713 
L 426.153846 169.495573 
L 427.005495 155.593566 
L 427.857143 120.004427 
L 428.708791 120.004427 
L 429.56044 155.037485 
L 430.412088 49.382231 
L 431.263736 64.952479 
L 432.115385 46.60183 
L 432.967033 114.443625 
L 433.818681 87.751771 
L 434.67033 165.603011 
L 435.521978 143.359799 
L 436.373626 129.457792 
L 437.225275 120.560508 
L 438.076923 88.307851 
L 438.928571 109.438902 
L 439.78022 62.172078 
L 440.631868 125.56523 
L 441.483516 89.420012 
L 442.335165 78.298406 
L 443.186813 103.322019 
L 444.038462 144.47196 
L 444.89011 128.901712 
L 445.741758 152.257084 
L 446.593407 150.588843 
L 447.445055 151.144923 
L 448.296703 138.355077 
L 449.148352 152.257084 
L 450 244.010331 
L 450 244.010331 
" style="fill:none;stroke:#000000;stroke-dasharray:1.5,2.475;stroke-dashoffset:0;stroke-opacity:0.5;stroke-width:1.5;"/>
   </g>
   <g id="line2d_28">
    <path clip-path="url(#p31f4923287)" d="M 62.5 251.239374 
L 64.203297 251.239374 
L 65.054945 251.795455 
L 65.906593 251.795455 
L 66.758242 251.239374 
L 67.60989 251.239374 
L 68.461538 250.683294 
L 70.164835 250.683294 
L 71.016484 250.127214 
L 73.571429 250.127214 
L 74.423077 249.571133 
L 75.274725 249.571133 
L 76.126374 249.015053 
L 77.82967 249.015053 
L 78.681319 249.571133 
L 81.236264 249.571133 
L 82.93956 248.458973 
L 83.791209 247.346812 
L 84.642857 247.346812 
L 86.346154 246.234652 
L 87.197802 246.234652 
L 88.049451 247.346812 
L 88.901099 247.346812 
L 89.752747 247.902893 
L 90.604396 247.346812 
L 91.456044 247.346812 
L 92.307692 246.790732 
L 93.159341 247.346812 
L 94.862637 246.234652 
L 96.565934 247.346812 
L 98.269231 247.346812 
L 99.120879 246.790732 
L 100.824176 246.790732 
L 101.675824 245.678571 
L 102.527473 244.010331 
L 103.379121 244.010331 
L 104.230769 243.45425 
L 105.082418 244.010331 
L 105.934066 244.010331 
L 106.785714 243.45425 
L 108.489011 244.566411 
L 110.192308 243.45425 
L 111.043956 242.34209 
L 111.895604 242.34209 
L 114.450549 240.673849 
L 115.302198 241.229929 
L 116.153846 241.229929 
L 117.005495 241.786009 
L 117.857143 241.786009 
L 118.708791 242.34209 
L 120.412088 239.005608 
L 121.263736 236.781287 
L 122.115385 236.225207 
L 122.967033 230.664404 
L 123.818681 228.996163 
L 124.67033 224.547521 
L 125.521978 223.99144 
L 126.373626 221.767119 
L 127.225275 222.87928 
L 128.076923 221.767119 
L 128.928571 226.771842 
L 129.78022 226.215762 
L 130.631868 227.327922 
L 131.483516 225.103601 
L 132.335165 226.215762 
L 133.186813 223.99144 
L 134.038462 223.99144 
L 134.89011 221.767119 
L 135.741758 217.874557 
L 136.593407 213.425915 
L 137.445055 211.201594 
L 138.296703 207.865112 
L 139.148352 207.309032 
L 140 207.309032 
L 140.851648 208.977273 
L 141.703297 212.313754 
L 142.554945 209.533353 
L 143.406593 205.084711 
L 144.258242 203.41647 
L 145.10989 200.636068 
L 145.961538 198.411747 
L 146.813187 199.523908 
L 148.516484 203.97255 
L 149.368132 201.192149 
L 150.21978 195.631346 
L 151.071429 191.738784 
L 152.774725 188.402302 
L 153.626374 182.841499 
L 154.478022 183.95366 
L 155.32967 181.173259 
L 156.181319 179.505018 
L 157.032967 175.056375 
L 157.884615 174.500295 
L 158.736264 171.163813 
L 159.587912 171.163813 
L 160.43956 167.827332 
L 161.291209 171.163813 
L 162.142857 172.832054 
L 162.994505 177.836777 
L 163.846154 180.617178 
L 164.697802 183.95366 
L 165.549451 182.841499 
L 166.401099 181.173259 
L 168.104396 171.163813 
L 168.956044 162.266529 
L 169.807692 160.042208 
L 170.659341 161.154368 
L 171.510989 165.04693 
L 172.362637 167.827332 
L 173.214286 165.603011 
L 174.065934 167.271251 
L 174.917582 172.275974 
L 176.620879 174.500295 
L 177.472527 178.392857 
L 178.324176 177.280697 
L 179.175824 185.621901 
L 180.027473 187.290142 
L 180.879121 187.846222 
L 181.730769 190.070543 
L 182.582418 192.850945 
L 183.434066 191.182704 
L 184.285714 193.407025 
L 185.137363 188.402302 
L 185.989011 191.738784 
L 186.840659 193.407025 
L 187.692308 197.299587 
L 188.543956 199.523908 
L 189.395604 205.084711 
L 190.247253 206.752952 
L 191.098901 206.196871 
L 191.950549 203.41647 
L 192.802198 202.304309 
L 193.653846 203.41647 
L 194.505495 207.309032 
L 195.357143 206.196871 
L 196.208791 208.977273 
L 197.06044 212.313754 
L 197.912088 212.313754 
L 198.763736 210.645514 
L 199.615385 207.865112 
L 200.467033 207.309032 
L 201.318681 208.977273 
L 202.17033 206.196871 
L 203.021978 206.196871 
L 203.873626 206.752952 
L 204.725275 210.089433 
L 206.428571 219.542798 
L 207.28022 219.542798 
L 208.131868 222.3232 
L 208.983516 222.87928 
L 209.835165 220.654959 
L 210.686813 215.650236 
L 211.538462 209.533353 
L 212.39011 205.640791 
L 213.241758 205.640791 
L 214.093407 203.41647 
L 214.945055 204.52863 
L 215.796703 207.309032 
L 217.5 217.874557 
L 218.351648 221.211039 
L 220.054945 226.771842 
L 221.758242 224.547521 
L 222.60989 224.547521 
L 224.313187 225.659681 
L 225.164835 223.99144 
L 226.016484 224.547521 
L 226.868132 226.215762 
L 227.71978 224.547521 
L 228.571429 224.547521 
L 230.274725 223.43536 
L 231.126374 221.767119 
L 231.978022 219.542798 
L 232.82967 217.874557 
L 233.681319 217.874557 
L 234.532967 215.650236 
L 235.384615 214.538076 
L 236.236264 216.762397 
L 237.087912 218.430638 
L 238.791209 216.206316 
L 239.642857 214.538076 
L 240.494505 214.538076 
L 241.346154 215.650236 
L 242.197802 215.650236 
L 243.049451 216.762397 
L 243.901099 217.318477 
L 245.604396 215.094156 
L 246.456044 215.650236 
L 247.307692 215.094156 
L 250.714286 215.094156 
L 251.565934 215.650236 
L 252.417582 213.425915 
L 253.269231 213.981995 
L 254.120879 216.762397 
L 254.972527 217.874557 
L 255.824176 214.538076 
L 256.675824 209.533353 
L 257.527473 206.196871 
L 258.379121 204.52863 
L 260.082418 205.640791 
L 260.934066 206.752952 
L 262.637363 217.318477 
L 263.489011 216.206316 
L 264.340659 213.981995 
L 265.192308 214.538076 
L 266.043956 214.538076 
L 266.895604 216.206316 
L 267.747253 215.650236 
L 268.598901 212.869835 
L 269.450549 212.313754 
L 270.302198 211.201594 
L 271.153846 208.977273 
L 272.005495 206.196871 
L 272.857143 204.52863 
L 273.708791 197.299587 
L 274.56044 196.743506 
L 275.412088 193.963105 
L 277.115385 190.626623 
L 277.967033 192.294864 
L 278.818681 191.182704 
L 279.67033 197.299587 
L 280.521978 191.738784 
L 282.225275 193.963105 
L 283.076923 194.519185 
L 283.928571 193.963105 
L 284.78022 192.294864 
L 285.631868 187.846222 
L 288.186813 189.514463 
L 289.038462 188.958383 
L 289.89011 188.958383 
L 292.445055 175.056375 
L 293.296703 166.159091 
L 294.148352 161.154368 
L 295 163.378689 
L 295.851648 167.827332 
L 296.703297 169.495573 
L 297.554945 168.383412 
L 298.406593 166.159091 
L 299.258242 166.715171 
L 300.10989 166.159091 
L 300.961538 163.378689 
L 301.813187 163.378689 
L 302.664835 165.603011 
L 303.516484 166.715171 
L 304.368132 168.383412 
L 305.21978 169.495573 
L 306.071429 171.719894 
L 306.923077 176.168536 
L 307.774725 176.724616 
L 308.626374 171.719894 
L 309.478022 172.832054 
L 310.32967 170.607733 
L 311.181319 172.832054 
L 312.884615 184.50974 
L 313.736264 195.075266 
L 314.587912 210.645514 
L 315.43956 213.981995 
L 316.291209 218.986718 
L 317.142857 218.986718 
L 317.994505 218.430638 
L 318.846154 221.767119 
L 320.549451 225.103601 
L 321.401099 226.215762 
L 322.252747 226.771842 
L 323.104396 227.884002 
L 324.807692 226.771842 
L 327.362637 230.108323 
L 328.214286 231.776564 
L 329.065934 231.776564 
L 329.917582 232.332645 
L 330.769231 233.444805 
L 331.620879 234.000885 
L 332.472527 235.669126 
L 333.324176 236.781287 
L 334.175824 237.337367 
L 335.027473 236.781287 
L 335.879121 237.337367 
L 336.730769 236.225207 
L 337.582418 236.781287 
L 338.434066 236.225207 
L 339.285714 236.225207 
L 340.989011 237.337367 
L 341.840659 237.337367 
L 342.692308 238.449528 
L 343.543956 239.005608 
L 344.395604 240.117769 
L 345.247253 240.673849 
L 346.098901 240.117769 
L 349.505495 240.117769 
L 350.357143 240.673849 
L 351.208791 240.117769 
L 352.06044 240.673849 
L 352.912088 240.117769 
L 354.615385 240.117769 
L 355.467033 241.229929 
L 356.318681 240.673849 
L 357.17033 241.229929 
L 358.021978 240.673849 
L 359.725275 238.449528 
L 360.576923 237.893447 
L 361.428571 236.225207 
L 362.28022 235.113046 
L 363.131868 232.332645 
L 363.983516 231.776564 
L 364.835165 229.552243 
L 365.686813 227.884002 
L 366.538462 227.884002 
L 367.39011 226.771842 
L 368.241758 222.87928 
L 369.093407 221.767119 
L 369.945055 216.206316 
L 371.648352 212.869835 
L 372.5 205.640791 
L 373.351648 205.084711 
L 374.203297 201.748229 
L 375.054945 196.743506 
L 375.906593 193.407025 
L 376.758242 186.177981 
L 377.60989 182.841499 
L 378.461538 187.846222 
L 379.313187 181.729339 
L 380.164835 181.173259 
L 381.868132 172.832054 
L 382.71978 172.275974 
L 383.571429 170.051653 
L 384.423077 169.495573 
L 385.274725 175.612456 
L 386.126374 178.948937 
L 386.978022 183.95366 
L 387.82967 185.621901 
L 388.681319 186.734061 
L 389.532967 186.177981 
L 390.384615 185.065821 
L 391.236264 181.173259 
L 392.93956 171.719894 
L 393.791209 168.939492 
L 394.642857 165.603011 
L 395.494505 163.378689 
L 396.346154 165.04693 
L 397.197802 165.603011 
L 398.049451 163.93477 
L 398.901099 165.04693 
L 399.752747 162.266529 
L 400.604396 160.042208 
L 401.456044 162.266529 
L 402.307692 161.154368 
L 403.159341 167.271251 
L 404.010989 167.827332 
L 404.862637 164.49085 
L 405.714286 157.817887 
L 406.565934 152.257084 
L 407.417582 147.808442 
L 409.120879 133.906434 
L 410.824176 123.340909 
L 411.675824 125.56523 
L 412.527473 123.340909 
L 413.379121 109.994982 
L 414.230769 115.555785 
L 415.082418 118.336187 
L 415.934066 118.892267 
L 416.785714 113.887544 
L 417.637363 107.770661 
L 418.489011 103.878099 
L 419.340659 108.882822 
L 420.192308 104.99026 
L 421.043956 110.551063 
L 421.895604 114.443625 
L 422.747253 114.999705 
L 423.598901 119.448347 
L 424.450549 122.784829 
L 425.302198 123.340909 
L 426.153846 122.228749 
L 427.005495 124.45307 
L 427.857143 123.340909 
L 428.708791 120.560508 
L 429.56044 102.765939 
L 430.412088 93.312574 
L 431.263736 87.195691 
L 432.967033 94.980815 
L 433.818681 108.882822 
L 434.67033 119.448347 
L 435.521978 125.00915 
L 436.373626 122.784829 
L 437.225275 116.667946 
L 438.928571 101.653778 
L 439.78022 96.092975 
L 440.631868 93.868654 
L 441.483516 99.429457 
L 442.335165 103.878099 
L 443.186813 114.999705 
L 444.038462 121.672668 
L 444.89011 131.682113 
L 445.741758 140.023318 
L 446.593407 145.58412 
L 447.445055 156.705726 
L 448.296703 163.378689 
L 449.148352 168.939492 
L 450 176.168536 
L 450 176.168536 
" style="fill:none;stroke:#b3220f;stroke-linecap:square;stroke-width:1.5;"/>
   </g>
   <g id="patch_3">
    <path d="M 62.5 262.5 
L 62.5 27 
" style="fill:none;stroke:#555555;stroke-linecap:square;stroke-linejoin:miter;"/>
   </g>
   <g id="patch_4">
    <path d="M 62.5 262.5 
L 450 262.5 
" style="fill:none;stroke:#555555;stroke-linecap:square;stroke-linejoin:miter;"/>
   </g>
   <g id="text_16">
    <!-- Usme | Casos nuevos: 2021-07-08 -->
    <g style="fill:#555555;" transform="translate(147.710625 17)scale(0.14 -0.14)">
     <defs>
      <path d="M 64.796875 25.796875 
L 64.796875 71.40625 
L 55.296875 71.40625 
L 55.296875 25.796875 
Q 55.296875 16.203125 50.546875 11.25 
Q 45.796875 6.296875 36.703125 6.296875 
Q 27.09375 6.296875 22 11.25 
Q 16.90625 16.203125 16.90625 25.796875 
L 16.90625 71.40625 
L 7.40625 71.40625 
L 7.40625 25.796875 
Q 7.40625 11.5 15.15625 4.953125 
Q 22.90625 -1.59375 36.703125 -1.59375 
Q 50.203125 -1.59375 57.5 5.25 
Q 64.796875 12.09375 64.796875 25.796875 
z
" id="HelveticaNeue-85"/>
      <path d="M 11.59375 16.296875 
L 3.09375 16.296875 
Q 3.296875 11.5 5.09375 8.140625 
Q 6.90625 4.796875 9.90625 2.75 
Q 12.90625 0.703125 16.796875 -0.1875 
Q 20.703125 -1.09375 25 -1.09375 
Q 28.90625 -1.09375 32.84375 -0.34375 
Q 36.796875 0.40625 39.9375 2.296875 
Q 43.09375 4.203125 45.046875 7.296875 
Q 47 10.40625 47 15.09375 
Q 47 18.796875 45.546875 21.296875 
Q 44.09375 23.796875 41.75 25.4375 
Q 39.40625 27.09375 36.34375 28.09375 
Q 33.296875 29.09375 30.09375 29.796875 
Q 27.09375 30.5 24.09375 31.140625 
Q 21.09375 31.796875 18.6875 32.75 
Q 16.296875 33.703125 14.75 35.140625 
Q 13.203125 36.59375 13.203125 38.796875 
Q 13.203125 40.796875 14.203125 42.046875 
Q 15.203125 43.296875 16.796875 44.046875 
Q 18.40625 44.796875 20.34375 45.09375 
Q 22.296875 45.40625 24.203125 45.40625 
Q 26.296875 45.40625 28.34375 44.953125 
Q 30.40625 44.5 32.09375 43.5 
Q 33.796875 42.5 34.890625 40.84375 
Q 36 39.203125 36.203125 36.703125 
L 44.703125 36.703125 
Q 44.40625 41.40625 42.703125 44.546875 
Q 41 47.703125 38.140625 49.546875 
Q 35.296875 51.40625 31.59375 52.15625 
Q 27.90625 52.90625 23.5 52.90625 
Q 20.09375 52.90625 16.640625 52.046875 
Q 13.203125 51.203125 10.453125 49.453125 
Q 7.703125 47.703125 5.953125 44.890625 
Q 4.203125 42.09375 4.203125 38.203125 
Q 4.203125 33.203125 6.703125 30.390625 
Q 9.203125 27.59375 12.953125 26.046875 
Q 16.703125 24.5 21.09375 23.640625 
Q 25.5 22.796875 29.25 21.75 
Q 33 20.703125 35.5 19 
Q 38 17.296875 38 14 
Q 38 11.59375 36.796875 10.046875 
Q 35.59375 8.5 33.75 7.703125 
Q 31.90625 6.90625 29.703125 6.59375 
Q 27.5 6.296875 25.5 6.296875 
Q 22.90625 6.296875 20.453125 6.796875 
Q 18 7.296875 16.046875 8.4375 
Q 14.09375 9.59375 12.890625 11.546875 
Q 11.703125 13.5 11.59375 16.296875 
z
" id="HelveticaNeue-115"/>
      <path d="M 6.40625 51.703125 
L 6.40625 0 
L 14.90625 0 
L 14.90625 32.203125 
Q 14.90625 33.703125 15.65625 35.953125 
Q 16.40625 38.203125 18.046875 40.296875 
Q 19.703125 42.40625 22.34375 43.90625 
Q 25 45.40625 28.703125 45.40625 
Q 31.59375 45.40625 33.4375 44.546875 
Q 35.296875 43.703125 36.390625 42.140625 
Q 37.5 40.59375 37.953125 38.5 
Q 38.40625 36.40625 38.40625 33.90625 
L 38.40625 0 
L 46.90625 0 
L 46.90625 32.203125 
Q 46.90625 38.203125 50.5 41.796875 
Q 54.09375 45.40625 60.40625 45.40625 
Q 63.5 45.40625 65.453125 44.5 
Q 67.40625 43.59375 68.5 42.046875 
Q 69.59375 40.5 70 38.390625 
Q 70.40625 36.296875 70.40625 33.90625 
L 70.40625 0 
L 78.90625 0 
L 78.90625 37.90625 
Q 78.90625 41.90625 77.65625 44.75 
Q 76.40625 47.59375 74.15625 49.390625 
Q 71.90625 51.203125 68.75 52.046875 
Q 65.59375 52.90625 61.703125 52.90625 
Q 56.59375 52.90625 52.34375 50.59375 
Q 48.09375 48.296875 45.5 44.09375 
Q 43.90625 48.90625 40 50.90625 
Q 36.09375 52.90625 31.296875 52.90625 
Q 20.40625 52.90625 14.59375 44.09375 
L 14.40625 44.09375 
L 14.40625 51.703125 
z
" id="HelveticaNeue-109"/>
      <path id="HelveticaNeue-32"/>
      <path d="M 7.703125 78.59375 
L 7.703125 -21.296875 
L 14.5 -21.296875 
L 14.5 78.59375 
z
" id="HelveticaNeue-124"/>
      <path d="M 58 49.90625 
L 67.5 49.90625 
Q 66.703125 55.59375 64.09375 59.9375 
Q 61.5 64.296875 57.59375 67.1875 
Q 53.703125 70.09375 48.703125 71.59375 
Q 43.703125 73.09375 38.09375 73.09375 
Q 29.90625 73.09375 23.546875 70.140625 
Q 17.203125 67.203125 12.953125 62.09375 
Q 8.703125 57 6.5 50.140625 
Q 4.296875 43.296875 4.296875 35.5 
Q 4.296875 27.703125 6.34375 20.890625 
Q 8.40625 14.09375 12.5 9.09375 
Q 16.59375 4.09375 22.796875 1.25 
Q 29 -1.59375 37.296875 -1.59375 
Q 51 -1.59375 58.890625 5.90625 
Q 66.796875 13.40625 68.203125 26.90625 
L 58.703125 26.90625 
Q 58.40625 22.5 56.90625 18.703125 
Q 55.40625 14.90625 52.75 12.15625 
Q 50.09375 9.40625 46.4375 7.84375 
Q 42.796875 6.296875 38.09375 6.296875 
Q 31.703125 6.296875 27.09375 8.6875 
Q 22.5 11.09375 19.546875 15.140625 
Q 16.59375 19.203125 15.1875 24.640625 
Q 13.796875 30.09375 13.796875 36.203125 
Q 13.796875 41.796875 15.1875 47 
Q 16.59375 52.203125 19.546875 56.25 
Q 22.5 60.296875 27.046875 62.6875 
Q 31.59375 65.09375 38 65.09375 
Q 45.5 65.09375 50.953125 61.296875 
Q 56.40625 57.5 58 49.90625 
z
" id="HelveticaNeue-67"/>
      <path d="M 12.59375 25.796875 
Q 12.59375 30.5 13.84375 34.140625 
Q 15.09375 37.796875 17.296875 40.296875 
Q 19.5 42.796875 22.453125 44.09375 
Q 25.40625 45.40625 28.703125 45.40625 
Q 32 45.40625 34.953125 44.09375 
Q 37.90625 42.796875 40.09375 40.296875 
Q 42.296875 37.796875 43.546875 34.140625 
Q 44.796875 30.5 44.796875 25.796875 
Q 44.796875 21.09375 43.546875 17.4375 
Q 42.296875 13.796875 40.09375 11.34375 
Q 37.90625 8.90625 34.953125 7.59375 
Q 32 6.296875 28.703125 6.296875 
Q 25.40625 6.296875 22.453125 7.59375 
Q 19.5 8.90625 17.296875 11.34375 
Q 15.09375 13.796875 13.84375 17.4375 
Q 12.59375 21.09375 12.59375 25.796875 
z
M 3.59375 25.796875 
Q 3.59375 20.09375 5.1875 15.1875 
Q 6.796875 10.296875 10 6.640625 
Q 13.203125 3 17.890625 0.953125 
Q 22.59375 -1.09375 28.703125 -1.09375 
Q 34.90625 -1.09375 39.546875 0.953125 
Q 44.203125 3 47.390625 6.640625 
Q 50.59375 10.296875 52.1875 15.1875 
Q 53.796875 20.09375 53.796875 25.796875 
Q 53.796875 31.5 52.1875 36.453125 
Q 50.59375 41.40625 47.390625 45.046875 
Q 44.203125 48.703125 39.546875 50.796875 
Q 34.90625 52.90625 28.703125 52.90625 
Q 22.59375 52.90625 17.890625 50.796875 
Q 13.203125 48.703125 10 45.046875 
Q 6.796875 41.40625 5.1875 36.453125 
Q 3.59375 31.5 3.59375 25.796875 
z
" id="HelveticaNeue-111"/>
      <path d="M 29.703125 0 
L 48.59375 51.703125 
L 39.703125 51.703125 
L 25.59375 8.59375 
L 25.40625 8.59375 
L 10.90625 51.703125 
L 1.40625 51.703125 
L 20.59375 0 
z
" id="HelveticaNeue-118"/>
      <path d="M 19.40625 40.59375 
L 19.40625 51.703125 
L 8.296875 51.703125 
L 8.296875 40.59375 
z
M 8.296875 11.09375 
L 8.296875 0 
L 19.40625 0 
L 19.40625 11.09375 
z
" id="HelveticaNeue-58"/>
      <path d="M 5 31.796875 
L 5 23.796875 
L 33.90625 23.796875 
L 33.90625 31.796875 
z
" id="HelveticaNeue-45"/>
      <path d="M 50.90625 62.40625 
L 50.90625 69.703125 
L 5 69.703125 
L 5 61.703125 
L 42.203125 61.703125 
Q 36.59375 55.796875 31.75 48.796875 
Q 26.90625 41.796875 23.203125 33.9375 
Q 19.5 26.09375 17.140625 17.546875 
Q 14.796875 9 14.203125 0 
L 23.703125 0 
Q 24.203125 8.296875 26.5 17.09375 
Q 28.796875 25.90625 32.4375 34.203125 
Q 36.09375 42.5 40.796875 49.796875 
Q 45.5 57.09375 50.90625 62.40625 
z
" id="HelveticaNeue-55"/>
      <path d="M 15.5 52.5 
Q 15.5 55.203125 16.5 57.203125 
Q 17.5 59.203125 19.140625 60.59375 
Q 20.796875 62 23.09375 62.703125 
Q 25.40625 63.40625 27.90625 63.40625 
Q 33.09375 63.40625 36.4375 60.65625 
Q 39.796875 57.90625 39.796875 52.5 
Q 39.796875 47.09375 36.5 44.09375 
Q 33.203125 41.09375 28.09375 41.09375 
Q 25.5 41.09375 23.203125 41.796875 
Q 20.90625 42.5 19.203125 43.890625 
Q 17.5 45.296875 16.5 47.4375 
Q 15.5 49.59375 15.5 52.5 
z
M 6.5 52.796875 
Q 6.5 48 9.203125 43.953125 
Q 11.90625 39.90625 16.40625 38.09375 
Q 10.40625 36 7.203125 31.34375 
Q 4 26.703125 4 20.40625 
Q 4 15 5.84375 10.953125 
Q 7.703125 6.90625 10.953125 4.203125 
Q 14.203125 1.5 18.59375 0.203125 
Q 23 -1.09375 28.09375 -1.09375 
Q 33 -1.09375 37.296875 0.296875 
Q 41.59375 1.703125 44.75 4.453125 
Q 47.90625 7.203125 49.75 11.203125 
Q 51.59375 15.203125 51.59375 20.40625 
Q 51.59375 27 48.5 31.546875 
Q 45.40625 36.09375 39 38.09375 
Q 43.5 40.09375 46.140625 44.046875 
Q 48.796875 48 48.796875 52.796875 
Q 48.796875 56.203125 47.59375 59.453125 
Q 46.40625 62.703125 43.84375 65.25 
Q 41.296875 67.796875 37.1875 69.34375 
Q 33.09375 70.90625 27.296875 70.90625 
Q 23.203125 70.90625 19.453125 69.703125 
Q 15.703125 68.5 12.796875 66.203125 
Q 9.90625 63.90625 8.203125 60.546875 
Q 6.5 57.203125 6.5 52.796875 
z
M 13 20 
Q 13 23.09375 14.140625 25.59375 
Q 15.296875 28.09375 17.34375 29.890625 
Q 19.40625 31.703125 22.15625 32.640625 
Q 24.90625 33.59375 28 33.59375 
Q 31 33.59375 33.640625 32.546875 
Q 36.296875 31.5 38.296875 29.703125 
Q 40.296875 27.90625 41.4375 25.453125 
Q 42.59375 23 42.59375 20.09375 
Q 42.59375 17.09375 41.546875 14.59375 
Q 40.5 12.09375 38.546875 10.25 
Q 36.59375 8.40625 33.9375 7.34375 
Q 31.296875 6.296875 28.09375 6.296875 
Q 21.5 6.296875 17.25 9.9375 
Q 13 13.59375 13 20 
z
" id="HelveticaNeue-56"/>
     </defs>
     <use xlink:href="#HelveticaNeue-85"/>
     <use x="72.199982" xlink:href="#HelveticaNeue-115"/>
     <use x="122.199966" xlink:href="#HelveticaNeue-109"/>
     <use x="207.499954" xlink:href="#HelveticaNeue-101"/>
     <use x="261.199951" xlink:href="#HelveticaNeue-32"/>
     <use x="288.999939" xlink:href="#HelveticaNeue-124"/>
     <use x="311.199936" xlink:href="#HelveticaNeue-32"/>
     <use x="338.999924" xlink:href="#HelveticaNeue-67"/>
     <use x="411.199905" xlink:href="#HelveticaNeue-97"/>
     <use x="464.899902" xlink:href="#HelveticaNeue-115"/>
     <use x="514.899887" xlink:href="#HelveticaNeue-111"/>
     <use x="572.299881" xlink:href="#HelveticaNeue-115"/>
     <use x="622.299866" xlink:href="#HelveticaNeue-32"/>
     <use x="650.099854" xlink:href="#HelveticaNeue-110"/>
     <use x="705.699844" xlink:href="#HelveticaNeue-117"/>
     <use x="761.299835" xlink:href="#HelveticaNeue-101"/>
     <use x="814.999832" xlink:href="#HelveticaNeue-118"/>
     <use x="864.999817" xlink:href="#HelveticaNeue-111"/>
     <use x="922.399811" xlink:href="#HelveticaNeue-115"/>
     <use x="972.399796" xlink:href="#HelveticaNeue-58"/>
     <use x="1000.199783" xlink:href="#HelveticaNeue-32"/>
     <use x="1027.999771" xlink:href="#HelveticaNeue-50"/>
     <use x="1083.599762" xlink:href="#HelveticaNeue-48"/>
     <use x="1139.199753" xlink:href="#HelveticaNeue-50"/>
     <use x="1194.799744" xlink:href="#HelveticaNeue-49"/>
     <use x="1250.399734" xlink:href="#HelveticaNeue-45"/>
     <use x="1289.299728" xlink:href="#HelveticaNeue-48"/>
     <use x="1344.899719" xlink:href="#HelveticaNeue-55"/>
     <use x="1400.49971" xlink:href="#HelveticaNeue-45"/>
     <use x="1439.399704" xlink:href="#HelveticaNeue-48"/>
     <use x="1494.999695" xlink:href="#HelveticaNeue-56"/>
    </g>
   </g>
   <g id="legend_1">
    <g id="line2d_29">
     <path d="M 71.5 39.640625 
L 91.5 39.640625 
" style="fill:none;stroke:#000000;stroke-dasharray:1.5,2.475;stroke-dashoffset:0;stroke-opacity:0.5;stroke-width:1.5;"/>
    </g>
    <g id="line2d_30"/>
    <g id="text_17">
     <!-- Actual -->
     <g style="fill:#555555;" transform="translate(99.5 43.140625)scale(0.1 -0.1)">
      <use xlink:href="#HelveticaNeue-65"/>
      <use x="64.799988" xlink:href="#HelveticaNeue-99"/>
      <use x="118.499985" xlink:href="#HelveticaNeue-116"/>
      <use x="149.999969" xlink:href="#HelveticaNeue-117"/>
      <use x="205.59996" xlink:href="#HelveticaNeue-97"/>
      <use x="259.299957" xlink:href="#HelveticaNeue-108"/>
     </g>
    </g>
    <g id="line2d_31">
     <path d="M 71.5 54.310937 
L 91.5 54.310937 
" style="fill:none;stroke:#b3220f;stroke-linecap:square;stroke-width:1.5;"/>
    </g>
    <g id="line2d_32"/>
    <g id="text_18">
     <!-- Promedio semanal (7 das)  -->
     <g style="fill:#555555;" transform="translate(99.5 57.810937)scale(0.1 -0.1)">
      <defs>
       <path d="M 17.296875 37.203125 
L 17.296875 63.40625 
L 35.90625 63.40625 
Q 44 63.40625 47.75 60.046875 
Q 51.5 56.703125 51.5 50.296875 
Q 51.5 43.90625 47.75 40.5 
Q 44 37.09375 35.90625 37.203125 
z
M 7.796875 71.40625 
L 7.796875 0 
L 17.296875 0 
L 17.296875 29.203125 
L 39.09375 29.203125 
Q 49.90625 29.09375 55.453125 34.6875 
Q 61 40.296875 61 50.296875 
Q 61 60.296875 55.453125 65.84375 
Q 49.90625 71.40625 39.09375 71.40625 
z
" id="HelveticaNeue-80"/>
       <path d="M 12.59375 25.40625 
Q 12.59375 29.203125 13.390625 32.796875 
Q 14.203125 36.40625 16 39.203125 
Q 17.796875 42 20.796875 43.703125 
Q 23.796875 45.40625 28.09375 45.40625 
Q 32.5 45.40625 35.59375 43.75 
Q 38.703125 42.09375 40.640625 39.390625 
Q 42.59375 36.703125 43.5 33.140625 
Q 44.40625 29.59375 44.40625 25.796875 
Q 44.40625 22.203125 43.546875 18.703125 
Q 42.703125 15.203125 40.796875 12.453125 
Q 38.90625 9.703125 35.90625 8 
Q 32.90625 6.296875 28.59375 6.296875 
Q 24.5 6.296875 21.453125 7.890625 
Q 18.40625 9.5 16.453125 12.203125 
Q 14.5 14.90625 13.546875 18.34375 
Q 12.59375 21.796875 12.59375 25.40625 
z
M 52.59375 0 
L 52.59375 71.40625 
L 44.09375 71.40625 
L 44.09375 44.796875 
L 43.90625 44.796875 
Q 42.5 47.09375 40.453125 48.640625 
Q 38.40625 50.203125 36.09375 51.140625 
Q 33.796875 52.09375 31.5 52.5 
Q 29.203125 52.90625 27.203125 52.90625 
Q 21.296875 52.90625 16.84375 50.75 
Q 12.40625 48.59375 9.453125 44.9375 
Q 6.5 41.296875 5.046875 36.390625 
Q 3.59375 31.5 3.59375 26 
Q 3.59375 20.5 5.09375 15.59375 
Q 6.59375 10.703125 9.546875 7 
Q 12.5 3.296875 16.953125 1.09375 
Q 21.40625 -1.09375 27.40625 -1.09375 
Q 32.796875 -1.09375 37.296875 0.796875 
Q 41.796875 2.703125 43.90625 7 
L 44.09375 7 
L 44.09375 0 
z
" id="HelveticaNeue-100"/>
       <path d="M 15.40625 61 
L 15.40625 71.40625 
L 6.90625 71.40625 
L 6.90625 61 
z
M 6.90625 51.703125 
L 6.90625 0 
L 15.40625 0 
L 15.40625 51.703125 
z
" id="HelveticaNeue-105"/>
       <path d="M 20.40625 -19.703125 
L 26.90625 -19.703125 
Q 19.796875 -8.203125 16.75 3.09375 
Q 13.703125 14.40625 13.703125 27 
Q 13.703125 39.296875 16.703125 50.5 
Q 19.703125 61.703125 26.90625 73.09375 
L 20.40625 73.09375 
Q 12.59375 62.796875 8.640625 50.796875 
Q 4.703125 38.796875 4.703125 27 
Q 4.703125 20.40625 5.796875 14.40625 
Q 6.90625 8.40625 8.953125 2.703125 
Q 11 -3 13.890625 -8.546875 
Q 16.796875 -14.09375 20.40625 -19.703125 
z
" id="HelveticaNeue-40"/>
       <path d="M 6.90625 0 
L 15.40625 0 
L 15.40625 51.703125 
L 6.90625 51.703125 
z
M 25.5 77 
L 11.40625 60.796875 
L 5 60.796875 
L 14.59375 77 
z
" id="HelveticaNeue-237"/>
       <path d="M -0.90625 -19.703125 
L 5.5 -19.703125 
Q 13.296875 -9.40625 17.25 2.546875 
Q 21.203125 14.5 21.203125 26.296875 
Q 21.203125 32.90625 20.09375 38.90625 
Q 19 44.90625 16.953125 50.65625 
Q 14.90625 56.40625 12 61.953125 
Q 9.09375 67.5 5.5 73.09375 
L -0.90625 73.09375 
Q 6.09375 61.59375 9.140625 50.25 
Q 12.203125 38.90625 12.203125 26.296875 
Q 12.203125 14.09375 9.203125 2.84375 
Q 6.203125 -8.40625 -0.90625 -19.703125 
z
" id="HelveticaNeue-41"/>
      </defs>
      <use xlink:href="#HelveticaNeue-80"/>
      <use x="64.799988" xlink:href="#HelveticaNeue-114"/>
      <use x="96.349976" xlink:href="#HelveticaNeue-111"/>
      <use x="153.749969" xlink:href="#HelveticaNeue-109"/>
      <use x="239.049957" xlink:href="#HelveticaNeue-101"/>
      <use x="292.749954" xlink:href="#HelveticaNeue-100"/>
      <use x="352.049942" xlink:href="#HelveticaNeue-105"/>
      <use x="374.249939" xlink:href="#HelveticaNeue-111"/>
      <use x="431.649933" xlink:href="#HelveticaNeue-32"/>
      <use x="459.449921" xlink:href="#HelveticaNeue-115"/>
      <use x="509.449905" xlink:href="#HelveticaNeue-101"/>
      <use x="563.149902" xlink:href="#HelveticaNeue-109"/>
      <use x="648.44989" xlink:href="#HelveticaNeue-97"/>
      <use x="702.149887" xlink:href="#HelveticaNeue-110"/>
      <use x="757.749878" xlink:href="#HelveticaNeue-97"/>
      <use x="811.449875" xlink:href="#HelveticaNeue-108"/>
      <use x="833.649872" xlink:href="#HelveticaNeue-32"/>
      <use x="861.44986" xlink:href="#HelveticaNeue-40"/>
      <use x="887.349854" xlink:href="#HelveticaNeue-55"/>
      <use x="942.949844" xlink:href="#HelveticaNeue-32"/>
      <use x="970.749832" xlink:href="#HelveticaNeue-100"/>
      <use x="1030.04982" xlink:href="#HelveticaNeue-237"/>
      <use x="1052.249817" xlink:href="#HelveticaNeue-97"/>
      <use x="1105.949814" xlink:href="#HelveticaNeue-115"/>
      <use x="1155.949799" xlink:href="#HelveticaNeue-41"/>
      <use x="1181.849792" xlink:href="#HelveticaNeue-32"/>
     </g>
    </g>
   </g>
  </g>
 </g>
 <defs>
  <clipPath id="p31f4923287">
   <rect height="235.5" width="387.5" x="62.5" y="27"/>
  </clipPath>
 </defs>
</svg>
